# Blender 4.5.3 LTS
# www.blender.org
o Remix_Special_Edition.040
v 27.549225 -26.523838 24.632778
v 27.592947 -27.526075 24.617519
v 26.266619 -26.579821 24.632778
v 28.910851 -26.427643 22.218006
v 30.289305 -26.404272 24.632771
v 28.954586 -27.429884 22.202755
v 30.333036 -27.406502 24.617519
v 28.317299 -27.445124 21.376850
v 29.613354 -27.388577 21.376850
v 29.569618 -26.386324 21.392101
v 31.696417 -27.247494 18.082386
v 31.624601 -27.350140 24.617512
v 28.971401 -27.403805 20.537495
v 28.927668 -26.401566 20.552761
v 27.552773 -27.428310 18.082386
v 30.386927 -27.304628 18.082386
v 30.343193 -26.302416 18.097645
v 31.652685 -26.245287 18.097637
v 27.509045 -26.426086 18.097637
v 26.261213 -27.484671 18.082386
v 26.217485 -26.482439 18.097645
v 28.273573 -26.442879 21.392109
v 31.580870 -26.347919 24.632771
v 26.310341 -27.582047 24.617512
v 34.062271 -20.336983 21.360706
v 33.964237 -20.336983 20.374943
v 34.042561 -25.751017 21.367115
v 33.964237 -20.336983 22.346485
v 33.944427 -25.771667 22.352909
v 33.677574 -20.336988 23.294727
v 33.657413 -25.801065 23.301266
v 33.209755 -20.336988 24.167942
v 33.189037 -25.838228 24.174679
v 32.582039 -20.336983 24.934307
v 32.560719 -25.881575 24.941235
v 31.815662 -20.336988 25.562016
v 31.793953 -25.929510 25.569080
v 30.942455 -20.336983 26.029835
v 30.920511 -25.980131 26.036976
v 29.994207 -20.336988 26.316509
v 29.972198 -26.031540 26.323643
v 29.008440 -20.336983 26.414539
v 28.986492 -26.081743 26.421673
v 28.022671 -20.336988 26.316509
v 28.000881 -26.128803 26.323582
v 27.074421 -20.336983 26.029850
v 27.052902 -26.170979 26.036839
v 26.201206 -20.336988 25.562016
v 26.180122 -26.206524 25.568867
v 25.434843 -20.336983 24.934307
v 25.414179 -26.234221 24.941021
v 24.807121 -20.336988 24.167942
v 24.786728 -26.252878 24.174564
v 24.339308 -20.336988 23.294727
v 24.318985 -26.261957 23.301334
v 24.052649 -20.336983 22.346485
v 24.032148 -26.260927 22.353146
v 23.954605 -20.336983 21.360706
v 23.933987 -26.249977 21.367405
v 24.052649 -20.336983 20.374943
v 24.032269 -26.229294 20.381573
v 24.339310 -20.336990 19.426685
v 24.319178 -26.199909 19.433239
v 24.807121 -20.336990 18.553486
v 24.786901 -26.162836 18.560055
v 25.434841 -20.336990 17.787113
v 25.414289 -26.119616 17.793789
v 26.201206 -20.336990 17.159397
v 26.180174 -26.071789 17.166225
v 27.074419 -20.336983 16.691578
v 27.052914 -26.021250 16.698566
v 28.022671 -20.336990 16.404919
v 28.000830 -25.969898 16.412022
v 29.008442 -20.336983 16.306873
v 28.986406 -25.919706 16.314037
v 29.994207 -20.336990 16.404919
v 29.972120 -25.872629 16.412098
v 30.942451 -20.336983 16.691578
v 30.920481 -25.830420 16.698719
v 31.815662 -20.336990 17.159397
v 31.794008 -25.794779 17.166439
v 32.582039 -20.336990 17.787106
v 32.560806 -25.766960 17.794010
v 33.209755 -20.336990 18.553486
v 33.189022 -25.748213 18.560215
v 33.677574 -20.336990 19.426685
v 33.657310 -25.739056 19.433285
v 33.657295 -26.076151 19.433285
v 33.944347 -25.740074 20.381405
v 33.944355 -26.077188 20.381405
v 34.042580 -26.088140 21.367107
v 33.452984 -26.102997 20.479130
v 33.541439 -26.112860 21.366764
v 32.385193 -26.158693 20.666126
v 33.194473 -26.102074 19.625317
v 32.198128 -26.157242 19.999180
v 32.772697 -26.110294 18.839054
v 33.188976 -26.085278 18.560230
v 31.890997 -26.162607 19.388081
v 32.206833 -26.127163 18.148952
v 31.469505 -26.174929 18.858875
v 32.560738 -26.104008 17.794033
v 31.516071 -26.152193 17.583645
v 31.793907 -26.131800 17.166462
v 30.939341 -26.194345 18.437611
v 30.729126 -26.184284 17.162319
v 30.327030 -26.219641 18.130444
v 30.920370 -26.167419 16.698757
v 29.874718 -26.222313 16.904102
v 29.972000 -26.209621 16.412136
v 29.659071 -26.249615 17.943508
v 28.986662 -26.264721 16.815762
v 28.963379 -26.282934 17.880131
v 28.986286 -26.256697 16.314083
v 28.098740 -26.309956 16.904026
v 28.000723 -26.306908 16.412060
v 28.267855 -26.318272 17.943668
v 27.244781 -26.356232 17.162174
v 27.600534 -26.354197 18.130749
v 27.052832 -26.358269 16.698597
v 26.458569 -26.401773 17.583462
v 26.180124 -26.408836 17.166248
v 26.989450 -26.389273 18.438099
v 25.768637 -26.444885 18.148808
v 26.460314 -26.422150 18.859615
v 25.414265 -26.456678 17.793797
v 25.203455 -26.483837 18.839108
v 24.786890 -26.499926 18.560055
v 26.038866 -26.451433 19.389225
v 24.782095 -26.517244 19.625690
v 25.731396 -26.476410 20.000813
v 24.319178 -26.537001 19.433247
v 24.523638 -26.543692 20.479893
v 24.032249 -26.566368 20.381573
v 25.544254 -26.496340 20.668247
v 24.435101 -26.562298 21.367809
v 25.480803 -26.510616 21.363522
v 23.933956 -26.587019 21.367413
v 24.523504 -26.572161 22.255558
v 24.032124 -26.597986 22.353153
v 25.544395 -26.518633 22.058659
v 24.781847 -26.573107 23.109493
v 25.731659 -26.520084 22.725864
v 24.318970 -26.599028 23.301342
v 25.203159 -26.564920 23.895992
v 24.786709 -26.589933 24.174572
v 26.039181 -26.514708 23.337360
v 25.768291 -26.548107 24.586353
v 26.460615 -26.502405 23.866886
v 25.414145 -26.571262 24.941029
v 26.458155 -26.523129 25.151882
v 26.180063 -26.543539 25.568890
v 26.989632 -26.483051 24.288166
v 27.244278 -26.491091 25.573376
v 27.600554 -26.457823 24.595219
v 27.052822 -26.507971 26.036861
v 28.098177 -26.453098 25.831676
v 28.000778 -26.465796 26.323612
v 28.267708 -26.427895 24.782101
v 28.986053 -26.410702 25.920040
v 28.963125 -26.394598 24.845417
v 28.986385 -26.418726 26.421711
v 29.874105 -26.365454 25.831715
v 29.972086 -26.368505 26.323681
v 29.658802 -26.359245 24.781826
v 30.728525 -26.319159 25.573399
v 30.326818 -26.323282 24.594624
v 30.920404 -26.317118 26.037006
v 31.515516 -26.273548 25.151821
v 31.793856 -26.266502 25.569111
v 30.939293 -26.288120 24.287151
v 32.206421 -26.230375 24.586132
v 31.469637 -26.255186 23.865414
v 32.560642 -26.218588 24.941257
v 32.772522 -26.191364 23.895496
v 33.188988 -26.175287 24.174686
v 31.891314 -26.225868 23.335453
v 33.194504 -26.157915 23.108723
v 33.657406 -26.138157 23.301266
v 33.453049 -26.131462 22.254559
v 32.198524 -26.200891 22.723598
v 32.385441 -26.180965 22.056179
v 31.687157 -26.223385 22.552341
v 31.828899 -26.207006 21.966846
v 31.453196 -26.243460 23.084003
v 31.219301 -26.244411 22.423656
v 30.765825 -26.265509 22.343716
v 31.068316 -26.259365 22.891315
v 31.311668 -26.231438 21.898853
v 30.813576 -26.255308 21.854168
v 31.342943 -26.221025 21.345570
v 31.876556 -26.194836 21.354527
v 31.310656 -26.213758 20.792522
v 30.830305 -26.246193 21.336994
v 30.321051 -26.271236 21.331608
v 30.812090 -26.238796 20.820164
v 30.312634 -26.263592 20.828869
v 30.763079 -26.233393 20.332012
v 30.294333 -26.256767 20.347141
v 30.687426 -26.230223 19.900921
v 31.217434 -26.209957 20.268597
v 31.686195 -26.185047 20.157467
v 31.065916 -26.209970 19.802662
v 31.452011 -26.188105 19.626842
v 30.819887 -26.216120 19.428768
v 30.606096 -26.229584 19.610142
v 31.115387 -26.197535 19.178852
v 30.443125 -26.230745 19.180981
v 30.665850 -26.214321 18.841839
v 30.301502 -26.243101 19.515781
v 29.973042 -26.251463 19.026455
v 29.862925 -26.263426 19.433758
v 30.133104 -26.236847 18.606731
v 29.446987 -26.275923 18.932346
v 29.546864 -26.263496 18.464436
v 29.371277 -26.286871 19.382496
v 28.893288 -26.302740 18.900585
v 28.853691 -26.312128 19.364819
v 28.934034 -26.292973 18.416599
v 28.340261 -26.330555 18.933086
v 28.321510 -26.323977 18.464855
v 28.337362 -26.337908 19.383541
v 27.817244 -26.357878 19.027874
v 27.851379 -26.362720 19.435734
v 27.736622 -26.355118 18.607540
v 27.353518 -26.383242 19.182957
v 27.206671 -26.385048 18.843021
v 27.424879 -26.385096 19.518459
v 26.981089 -26.405607 19.431217
v 27.142494 -26.400549 19.613041
v 26.759155 -26.412540 19.180424
v 26.731882 -26.423895 19.805553
v 26.421537 -26.436388 19.628834
v 27.039898 -26.410276 19.904308
v 26.575130 -26.439112 20.271885
v 26.953526 -26.421465 20.335751
v 26.185520 -26.456547 20.159916
v 26.480064 -26.452204 20.796131
v 26.042814 -26.472975 20.745235
v 26.900366 -26.431915 20.824139
v 26.448193 -26.462646 21.349377
v 26.882456 -26.441090 21.341114
v 25.994911 -26.485159 21.357639
v 26.481058 -26.469904 21.902683
v 26.043322 -26.492582 21.970013
v 26.901854 -26.448420 21.858295
v 26.576996 -26.473572 22.427341
v 26.956280 -26.453575 22.347721
v 26.186464 -26.494902 22.555332
v 26.734333 -26.473303 22.894711
v 26.422766 -26.491755 23.086666
v 27.043503 -26.456228 22.781445
v 26.983898 -26.466991 23.269520
v 27.146152 -26.455904 23.076939
v 26.760529 -26.482283 23.535137
v 27.356522 -26.452572 23.516537
v 27.208042 -26.465597 23.871891
v 27.429115 -26.443373 23.166645
v 27.820295 -26.432142 23.669773
v 27.855829 -26.423590 23.246128
v 27.737906 -26.443213 24.106510
v 28.343296 -26.407829 23.763256
v 28.322674 -26.416628 24.248562
v 28.341846 -26.400412 23.296192
v 28.896254 -26.381050 23.794849
v 28.858154 -26.375212 23.313580
v 28.935110 -26.387169 24.296307
v 29.449930 -26.353205 23.762409
v 29.547928 -26.356159 24.248013
v 29.375696 -26.349377 23.295078
v 29.975962 -26.325727 23.668118
v 29.867268 -26.324287 23.243992
v 30.134199 -26.324936 24.105412
v 30.445984 -26.300064 23.514164
v 30.667015 -26.294872 23.870213
v 30.305641 -26.301378 23.163685
v 30.822580 -26.277515 23.266567
v 30.609663 -26.284922 23.073650
v 31.116598 -26.267273 23.532917
v 30.690966 -26.276167 22.777699
v 30.275431 -26.296440 22.763424
v 29.823286 -26.319248 22.794292
v 30.297613 -26.288210 22.318707
v 30.314428 -26.279627 21.834827
v 29.815088 -26.312086 22.322010
v 29.318684 -26.336662 22.327023
v 29.813726 -26.304266 21.830135
v 29.310993 -26.329067 21.829403
v 29.814268 -26.296198 21.328770
v 29.309055 -26.321117 21.327877
v 29.811766 -26.288298 20.828022
v 29.308947 -26.313097 20.827007
v 29.811525 -26.280472 20.338985
v 29.314978 -26.304871 20.332531
v 29.818832 -26.272636 19.872753
v 29.331499 -26.296328 19.850117
v 30.271259 -26.250860 19.906986
v 28.827745 -26.321056 19.842030
v 28.326008 -26.345966 19.851368
v 28.812906 -26.329615 20.330074
v 28.313551 -26.354305 20.333904
v 28.806643 -26.337883 20.826824
v 28.307350 -26.362549 20.828465
v 28.806177 -26.345936 21.328281
v 28.306324 -26.370623 21.329342
v 28.808714 -26.353863 21.830402
v 28.309399 -26.378510 21.830868
v 28.816647 -26.361481 22.330288
v 28.317270 -26.386101 22.328419
v 28.832376 -26.368645 22.825039
v 28.330629 -26.393282 22.817387
v 29.336103 -26.343649 22.816090
v 27.852568 -26.416542 22.796757
v 27.419889 -26.437418 22.766781
v 27.833258 -26.409924 22.324665
v 27.377316 -26.432386 22.322300
v 27.820604 -26.402672 21.832882
v 27.349897 -26.425983 21.838528
v 27.815460 -26.394880 21.331524
v 27.339516 -26.418430 21.335316
v 27.818630 -26.386702 20.830738
v 27.348097 -26.409952 20.832485
v 27.829664 -26.378309 20.341549
v 27.374012 -26.400949 20.350567
v 27.848059 -26.369932 19.875095
v 27.415655 -26.391832 19.910114
v 31.828348 -26.187399 20.742390
v 32.448776 -26.166698 21.361073
v 33.944439 -26.108778 22.352901
vn 0.8701 0.0305 0.4919
vn 0.0007 -0.0152 0.9999
vn -0.8674 -0.0454 0.4956
vn 0.0436 -0.9989 -0.0152
vn 0.8486 0.0450 -0.5272
vn 0.8443 0.0287 0.5351
vn -0.8654 -0.0301 -0.5002
vn 0.8648 0.0453 -0.5001
vn -0.0007 0.0152 -0.9999
vn -0.8472 -0.0450 0.5293
vn -0.8493 -0.0290 -0.5272
vn 1.0000 -0.0018 -0.0000
vn 0.9807 -0.0019 -0.1953
vn 0.9807 -0.0039 -0.1953
vn 1.0000 -0.0037 -0.0001
vn 0.9808 -0.0034 0.1950
vn 0.9807 -0.0017 0.1953
vn 0.9238 -0.0015 0.3830
vn 0.9239 -0.0030 0.3827
vn 0.8315 -0.0024 0.5555
vn 0.8313 -0.0013 0.5559
vn 0.7069 -0.0010 0.7073
vn 0.7072 -0.0018 0.7070
vn 0.5558 -0.0011 0.8313
vn 0.5554 -0.0006 0.8316
vn 0.3826 -0.0002 0.9239
vn 0.3829 -0.0003 0.9238
vn 0.1953 0.0005 0.9807
vn 0.1950 0.0003 0.9808
vn -0.0002 0.0007 1.0000
vn 0.0002 0.0012 1.0000
vn -0.1950 0.0019 0.9808
vn -0.1953 0.0010 0.9807
vn -0.3830 0.0013 0.9238
vn -0.3827 0.0025 0.9239
vn -0.5556 0.0030 0.8314
vn -0.5559 0.0015 0.8313
vn -0.7073 0.0017 0.7069
vn -0.7072 0.0033 0.7070
vn -0.8315 0.0035 0.5555
vn -0.8316 0.0018 0.5554
vn -0.9239 0.0018 0.3827
vn -0.9239 0.0036 0.3827
vn -0.9808 0.0036 0.1952
vn -0.9808 0.0018 0.1952
vn -1.0000 0.0018 -0.0000
vn -1.0000 0.0035 -0.0001
vn -0.9807 0.0032 -0.1953
vn -0.9808 0.0016 -0.1952
vn -0.9239 0.0014 -0.3826
vn -0.9238 0.0028 -0.3828
vn -0.8314 0.0023 -0.5556
vn -0.8316 0.0011 -0.5554
vn -0.7073 0.0009 -0.7069
vn -0.7071 0.0017 -0.7072
vn -0.5555 0.0010 -0.8315
vn -0.5558 0.0005 -0.8313
vn -0.3828 0.0002 -0.9238
vn -0.3825 0.0003 -0.9240
vn -0.1948 -0.0005 -0.9808
vn -0.1952 -0.0003 -0.9808
vn -0.0001 -0.0007 -1.0000
vn 0.0003 -0.0013 -1.0000
vn 0.1953 -0.0020 -0.9807
vn 0.1950 -0.0011 -0.9808
vn 0.3825 -0.0015 -0.9239
vn 0.3828 -0.0027 -0.9238
vn 0.5556 -0.0033 -0.8314
vn 0.5553 -0.0017 -0.8316
vn 0.7068 -0.0019 -0.7074
vn 0.7071 -0.0037 -0.7071
vn 0.8314 -0.0039 -0.5557
vn 0.8312 -0.0020 -0.5559
vn 0.9237 -0.0020 -0.3830
vn 0.9238 -0.0039 -0.3829
vn 0.9236 -0.0000 -0.3833
vn 0.8307 -0.0001 -0.5567
vn 0.9808 -0.0000 -0.1950
vn 1.0000 -0.0000 0.0010
vn 0.0493 -0.9987 -0.0160
vn 0.9229 -0.0000 0.3850
vn 0.9804 -0.0000 0.1968
vn 0.8299 -0.0001 0.5580
vn 0.7049 -0.0001 0.7093
vn 0.5529 -0.0001 0.8332
vn 0.3796 -0.0000 0.9251
vn 0.1919 -0.0000 0.9814
vn -0.0032 0.0001 1.0000
vn -0.1980 0.0001 0.9802
vn -0.3852 0.0002 0.9228
vn -0.5575 0.0001 0.8302
vn -0.7084 0.0001 0.7058
vn -0.8321 0.0001 0.5547
vn -0.9240 0.0001 0.3825
vn -0.9807 0.0001 0.1956
vn -1.0000 0.0001 0.0010
vn -0.9810 0.0001 -0.1938
vn -0.9247 -0.0000 -0.3808
vn -0.8329 -0.0000 -0.5534
vn -0.7093 -0.0000 -0.7049
vn -0.5583 -0.0000 -0.8297
vn -0.3857 -0.0000 -0.9226
vn -0.1982 -0.0001 -0.9802
vn -0.0031 -0.0001 -1.0000
vn 0.1923 -0.0002 -0.9813
vn 0.3802 -0.0002 -0.9249
vn 0.5537 -0.0002 -0.8327
vn 0.7057 -0.0002 -0.7085
vt 0.561097 0.007133
vt 0.561097 0.002977
vt 0.572585 0.002977
vt 0.572585 0.007132
vt 0.353109 0.430842
vt 0.353109 0.426686
vt 0.358426 0.426687
vt 0.358426 0.430842
vt 0.584101 0.007132
vt 0.584101 0.002977
vt 0.375140 0.426688
vt 0.369785 0.426688
vt 0.364079 0.416685
vt 0.366812 0.413264
vt 0.361439 0.413264
vt 0.364153 0.409788
vt 0.996759 0.016159
vt 0.996759 0.031956
vt 0.992604 0.031956
vt 0.992604 0.016159
vt 0.992604 0.000006
vt 0.996759 0.000006
vt 0.370029 0.399619
vt 0.375457 0.399619
vt 0.283332 0.004161
vt 0.283331 0.000006
vt 0.295076 0.000006
vt 0.295076 0.004161
vt 0.271588 0.004162
vt 0.271587 0.000007
vt 0.352926 0.399617
vt 0.358280 0.399618
vt 0.370029 0.395464
vt 0.375458 0.395464
vt 0.352926 0.395462
vt 0.358280 0.395463
vt 0.998138 0.049453
vt 0.993982 0.049452
vt 0.993983 0.033368
vt 0.998138 0.033368
vt 0.993982 0.065250
vt 0.998138 0.065250
vt 0.375139 0.430843
vt 0.369785 0.430843
vt 0.430441 0.707677
vt 0.426338 0.707615
vt 0.426411 0.685238
vt 0.430514 0.685255
vt 0.303329 0.684890
vt 0.303268 0.707398
vt 0.299166 0.707295
vt 0.299226 0.684872
vt 0.307371 0.707540
vt 0.307432 0.684910
vt 0.311534 0.684932
vt 0.311475 0.707716
vt 0.315579 0.707920
vt 0.315637 0.684957
vt 0.319740 0.684982
vt 0.319682 0.708144
vt 0.323784 0.708381
vt 0.323842 0.685009
vt 0.327945 0.685036
vt 0.327886 0.708621
vt 0.331987 0.708855
vt 0.332048 0.685063
vt 0.336151 0.685088
vt 0.336088 0.709076
vt 0.340189 0.709274
vt 0.340253 0.685112
vt 0.344356 0.685134
vt 0.344289 0.709444
vt 0.348390 0.709578
vt 0.348459 0.685154
vt 0.352561 0.685171
vt 0.352492 0.709672
vt 0.356595 0.709724
vt 0.356664 0.685185
vt 0.360767 0.685196
vt 0.360697 0.709731
vt 0.364800 0.709694
vt 0.364870 0.685205
vt 0.368973 0.685211
vt 0.368903 0.709614
vt 0.373007 0.709496
vt 0.373075 0.685214
vt 0.377178 0.685215
vt 0.377109 0.709343
vt 0.381211 0.709163
vt 0.381281 0.685214
vt 0.385384 0.685211
vt 0.385311 0.708963
vt 0.389412 0.708750
vt 0.389486 0.685208
vt 0.393589 0.685205
vt 0.393513 0.708534
vt 0.397615 0.708324
vt 0.397692 0.685202
vt 0.401795 0.685200
vt 0.401717 0.708127
vt 0.405821 0.707951
vt 0.405897 0.685200
vt 0.410000 0.685202
vt 0.409924 0.707806
vt 0.414028 0.707695
vt 0.414103 0.685206
vt 0.418206 0.685214
vt 0.418132 0.707625
vt 0.422236 0.707597
vt 0.422309 0.685224
vt 0.422231 0.708993
vt 0.418129 0.709021
vt 0.426333 0.709012
vt 0.430435 0.709074
vt 0.055703 0.345307
vt 0.053625 0.345308
vt 0.053256 0.341632
vt 0.055294 0.341225
vt 0.052183 0.338096
vt 0.054102 0.337299
vt 0.049094 0.345290
vt 0.048829 0.342412
vt 0.048052 0.339650
vt 0.046778 0.337120
vt 0.050433 0.334842
vt 0.052159 0.333685
vt 0.048085 0.331986
vt 0.049552 0.330514
vt 0.045029 0.334930
vt 0.042830 0.333188
vt 0.045220 0.329648
vt 0.046371 0.327919
vt 0.041956 0.327907
vt 0.042748 0.325986
vt 0.040290 0.331919
vt 0.037520 0.331148
vt 0.038413 0.326841
vt 0.038816 0.324803
vt 0.034730 0.326480
vt 0.034728 0.324402
vt 0.034636 0.330889
vt 0.031752 0.331155
vt 0.031049 0.326850
vt 0.030641 0.324812
vt 0.027508 0.327923
vt 0.026711 0.326004
vt 0.028985 0.331933
vt 0.026451 0.333209
vt 0.024249 0.329672
vt 0.023093 0.327945
vt 0.021389 0.332017
vt 0.019919 0.330548
vt 0.024258 0.334958
vt 0.022511 0.337154
vt 0.019046 0.334879
vt 0.017318 0.333725
vt 0.017300 0.338139
vt 0.015380 0.337345
vt 0.021237 0.339689
vt 0.020462 0.342454
vt 0.016230 0.341679
vt 0.014192 0.341274
vt 0.015864 0.345357
vt 0.013786 0.345358
vt 0.020200 0.345334
vt 0.020465 0.348213
vt 0.016232 0.349034
vt 0.014195 0.349441
vt 0.017305 0.352570
vt 0.015386 0.353367
vt 0.021243 0.350976
vt 0.022519 0.353507
vt 0.019053 0.355825
vt 0.017327 0.356981
vt 0.021398 0.358682
vt 0.019930 0.360153
vt 0.024267 0.355699
vt 0.026462 0.357441
vt 0.024259 0.361021
vt 0.023107 0.362750
vt 0.027520 0.362763
vt 0.026727 0.364684
vt 0.028996 0.358710
vt 0.031762 0.359481
vt 0.031061 0.363829
vt 0.030658 0.365867
vt 0.034743 0.364191
vt 0.034745 0.366269
vt 0.034646 0.359739
vt 0.037531 0.359473
vt 0.038425 0.363820
vt 0.038832 0.365858
vt 0.041968 0.362746
vt 0.042764 0.364666
vt 0.040300 0.358694
vt 0.042839 0.357417
vt 0.045230 0.360996
vt 0.046385 0.362723
vt 0.048094 0.358649
vt 0.049564 0.360119
vt 0.045038 0.355668
vt 0.046786 0.353471
vt 0.050440 0.355786
vt 0.052168 0.356940
vt 0.052189 0.352525
vt 0.054109 0.353320
vt 0.048058 0.350935
vt 0.053260 0.348986
vt 0.055297 0.349391
vt 0.048832 0.348169
vt 0.045938 0.350228
vt 0.046524 0.347802
vt 0.044968 0.352431
vt 0.043997 0.349697
vt 0.044380 0.347523
vt 0.043372 0.351635
vt 0.042117 0.349368
vt 0.042314 0.347340
vt 0.041807 0.351166
vt 0.044508 0.345231
vt 0.046721 0.345265
vt 0.042383 0.345198
vt 0.044374 0.342940
vt 0.046520 0.342730
vt 0.042306 0.343057
vt 0.040271 0.345178
vt 0.040244 0.347263
vt 0.040235 0.343096
vt 0.040159 0.341101
vt 0.042102 0.341036
vt 0.043986 0.340771
vt 0.040062 0.339278
vt 0.041788 0.339250
vt 0.043357 0.338842
vt 0.045930 0.340308
vt 0.044958 0.338111
vt 0.042336 0.337294
vt 0.043561 0.336257
vt 0.041450 0.338046
vt 0.040187 0.337657
vt 0.040774 0.336269
vt 0.041697 0.334864
vt 0.038824 0.335632
vt 0.039487 0.333893
vt 0.038368 0.337319
vt 0.036329 0.337110
vt 0.036643 0.335245
vt 0.037056 0.333306
vt 0.034347 0.335116
vt 0.034515 0.333111
vt 0.034183 0.337039
vt 0.032042 0.337119
vt 0.032053 0.335253
vt 0.031975 0.333314
vt 0.029885 0.335648
vt 0.029550 0.333908
vt 0.030027 0.337337
vt 0.028259 0.337682
vt 0.027962 0.336293
vt 0.027353 0.334886
vt 0.026418 0.337323
vt 0.025498 0.336285
vt 0.027088 0.338075
vt 0.026663 0.339282
vt 0.025386 0.338875
vt 0.024098 0.338144
vt 0.024736 0.340807
vt 0.023121 0.340345
vt 0.026305 0.341070
vt 0.026086 0.343093
vt 0.024343 0.342979
vt 0.022530 0.342770
vt 0.024212 0.345271
vt 0.022332 0.345307
vt 0.026012 0.345235
vt 0.026094 0.347377
vt 0.024349 0.347563
vt 0.022534 0.347844
vt 0.024748 0.349735
vt 0.023128 0.350267
vt 0.026320 0.349404
vt 0.026683 0.351200
vt 0.025401 0.351670
vt 0.024109 0.352467
vt 0.026436 0.353222
vt 0.025511 0.354323
vt 0.027109 0.352423
vt 0.028282 0.352793
vt 0.027982 0.354243
vt 0.027367 0.355716
vt 0.029905 0.354876
vt 0.029564 0.356685
vt 0.030052 0.353121
vt 0.032067 0.353326
vt 0.032074 0.355260
vt 0.031989 0.357270
vt 0.034367 0.355388
vt 0.034529 0.357465
vt 0.034208 0.353395
vt 0.036354 0.353316
vt 0.036663 0.355251
vt 0.037070 0.357262
vt 0.038844 0.354858
vt 0.039501 0.356669
vt 0.038392 0.353102
vt 0.040210 0.352767
vt 0.040793 0.354218
vt 0.041710 0.355692
vt 0.042354 0.353191
vt 0.043573 0.354292
vt 0.041471 0.352393
vt 0.040084 0.351109
vt 0.040175 0.349267
vt 0.038209 0.351239
vt 0.038175 0.349283
vt 0.038168 0.347246
vt 0.036116 0.349306
vt 0.036189 0.351332
vt 0.036083 0.347245
vt 0.036075 0.345168
vt 0.038170 0.345169
vt 0.036073 0.343093
vt 0.038158 0.343095
vt 0.036098 0.341045
vt 0.038157 0.341069
vt 0.036165 0.339047
vt 0.038186 0.339138
vt 0.034016 0.341037
vt 0.034076 0.339016
vt 0.031996 0.339057
vt 0.031945 0.341056
vt 0.033990 0.343095
vt 0.031920 0.343104
vt 0.033989 0.345172
vt 0.031917 0.345179
vt 0.034001 0.347252
vt 0.031930 0.347256
vt 0.034034 0.349322
vt 0.031964 0.349317
vt 0.034100 0.351372
vt 0.032020 0.351342
vt 0.030038 0.351259
vt 0.029957 0.349304
vt 0.028066 0.349296
vt 0.028243 0.351137
vt 0.027952 0.347293
vt 0.029903 0.347267
vt 0.027908 0.345208
vt 0.029881 0.345190
vt 0.027943 0.343125
vt 0.029894 0.343116
vt 0.028049 0.341129
vt 0.029939 0.341090
vt 0.028221 0.339305
vt 0.030014 0.339157
vt 0.307364 0.708936
vt 0.303262 0.708794
vt 0.299160 0.708691
vt 0.311467 0.709112
vt 0.315571 0.709316
vt 0.319674 0.709540
vt 0.323776 0.709776
vt 0.327877 0.710016
vt 0.331979 0.710251
vt 0.336080 0.710471
vt 0.340181 0.710670
vt 0.344282 0.710839
vt 0.348384 0.710974
vt 0.352487 0.711068
vt 0.356590 0.711120
vt 0.360694 0.711127
vt 0.364798 0.711090
vt 0.368902 0.711010
vt 0.373006 0.710892
vt 0.377109 0.710739
vt 0.381211 0.710559
vt 0.385312 0.710359
vt 0.389413 0.710146
vt 0.393514 0.709930
vt 0.397615 0.709719
vt 0.401717 0.709522
vt 0.405820 0.709347
vt 0.409923 0.709202
vt 0.414026 0.709091
s 1
f 1/1/1 2/2/1 6/3/1 4/4/1
f 3/5/2 24/6/2 2/7/2 1/8/2
f 5/9/3 4/4/3 6/3/3 7/10/3
f 12/11/4 7/12/4 6/13/4 9/14/4
f 24/6/4 8/15/4 6/13/4 2/7/4
f 13/16/4 9/14/4 6/13/4 8/15/4
f 10/17/5 23/18/5 12/19/5 9/20/5
f 11/21/6 18/22/6 10/17/6 9/20/6
f 9/14/4 13/16/4 16/23/4 11/24/4
f 13/25/7 14/26/7 17/27/7 16/28/7
f 15/29/8 19/30/8 14/26/8 13/25/8
f 13/16/4 8/15/4 20/31/4 15/32/4
f 17/33/9 18/34/9 11/24/9 16/23/9
f 21/35/9 19/36/9 15/32/9 20/31/9
f 8/37/10 22/38/10 21/39/10 20/40/10
f 3/41/11 22/38/11 8/37/11 24/42/11
f 23/43/2 5/44/2 7/12/2 12/11/2
f 27/45/12 89/46/13 26/47/14 25/48/15
f 28/49/16 29/50/17 27/51/12 25/52/15
f 31/53/18 29/50/17 28/49/16 30/54/19
f 32/55/20 33/56/21 31/53/18 30/54/19
f 35/57/22 33/56/21 32/55/20 34/58/23
f 36/59/24 37/60/25 35/57/22 34/58/23
f 39/61/26 37/60/25 36/59/24 38/62/27
f 40/63/28 41/64/29 39/61/26 38/62/27
f 43/65/30 41/64/29 40/63/28 42/66/31
f 44/67/32 45/68/33 43/65/30 42/66/31
f 47/69/34 45/68/33 44/67/32 46/70/35
f 47/69/34 46/70/35 48/71/36 49/72/37
f 51/73/38 49/72/37 48/71/36 50/74/39
f 51/73/38 50/74/39 52/75/40 53/76/41
f 55/77/42 53/76/41 52/75/40 54/78/43
f 55/77/42 54/78/43 56/79/44 57/80/45
f 59/81/46 57/80/45 56/79/44 58/82/47
f 60/83/48 61/84/49 59/81/46 58/82/47
f 63/85/50 61/84/49 60/83/48 62/86/51
f 64/87/52 65/88/53 63/85/50 62/86/51
f 67/89/54 65/88/53 64/87/52 66/90/55
f 68/91/56 69/92/57 67/89/54 66/90/55
f 71/93/58 69/92/57 68/91/56 70/94/59
f 72/95/60 73/96/61 71/93/58 70/94/59
f 75/97/62 73/96/61 72/95/60 74/98/63
f 76/99/64 77/100/65 75/97/62 74/98/63
f 79/101/66 77/100/65 76/99/64 78/102/67
f 80/103/68 81/104/69 79/101/66 78/102/67
f 83/105/70 81/104/69 80/103/68 82/106/71
f 84/107/72 85/108/73 83/105/70 82/106/71
f 87/109/74 85/108/73 84/107/72 86/110/75
f 87/109/74 86/110/75 26/47/14 89/46/13
f 88/111/76 98/112/77 85/108/73 87/109/74
f 88/111/76 87/109/74 89/46/13 90/113/78
f 27/45/12 91/114/79 90/113/78 89/46/13
f 91/115/80 93/116/80 92/117/80 90/118/80
f 95/119/80 88/120/80 90/118/80 92/117/80
f 93/116/80 328/121/80 94/122/80 92/117/80
f 92/117/80 94/122/80 96/123/80 95/119/80
f 95/119/80 96/123/80 99/124/80 97/125/80
f 88/120/80 95/119/80 97/125/80 98/126/80
f 100/127/80 102/128/80 98/126/80 97/125/80
f 97/125/80 99/124/80 101/129/80 100/127/80
f 100/127/80 101/129/80 105/130/80 103/131/80
f 102/128/80 100/127/80 103/131/80 104/132/80
f 106/133/80 108/134/80 104/132/80 103/131/80
f 103/131/80 105/130/80 107/135/80 106/133/80
f 106/133/80 107/135/80 111/136/80 109/137/80
f 108/134/80 106/133/80 109/137/80 110/138/80
f 112/139/80 114/140/80 110/138/80 109/137/80
f 109/137/80 111/136/80 113/141/80 112/139/80
f 112/139/80 113/141/80 117/142/80 115/143/80
f 114/140/80 112/139/80 115/143/80 116/144/80
f 118/145/80 120/146/80 116/144/80 115/143/80
f 115/143/80 117/142/80 119/147/80 118/145/80
f 118/145/80 119/147/80 123/148/80 121/149/80
f 120/146/80 118/145/80 121/149/80 122/150/80
f 124/151/80 126/152/80 122/150/80 121/149/80
f 121/149/80 123/148/80 125/153/80 124/151/80
f 124/151/80 125/153/80 129/154/80 127/155/80
f 126/152/80 124/151/80 127/155/80 128/156/80
f 130/157/80 132/158/80 128/156/80 127/155/80
f 127/155/80 129/154/80 131/159/80 130/157/80
f 130/157/80 131/159/80 135/160/80 133/161/80
f 132/158/80 130/157/80 133/161/80 134/162/80
f 136/163/80 138/164/80 134/162/80 133/161/80
f 133/161/80 135/160/80 137/165/80 136/163/80
f 136/163/80 137/165/80 141/166/80 139/167/80
f 138/164/80 136/163/80 139/167/80 140/168/80
f 142/169/80 144/170/80 140/168/80 139/167/80
f 139/167/80 141/166/80 143/171/80 142/169/80
f 142/169/80 143/171/80 147/172/80 145/173/80
f 144/170/80 142/169/80 145/173/80 146/174/80
f 148/175/80 150/176/80 146/174/80 145/173/80
f 145/173/80 147/172/80 149/177/80 148/175/80
f 148/175/80 149/177/80 153/178/80 151/179/80
f 150/176/80 148/175/80 151/179/80 152/180/80
f 154/181/80 156/182/80 152/180/80 151/179/80
f 151/179/80 153/178/80 155/183/80 154/181/80
f 154/181/80 155/183/80 159/184/80 157/185/80
f 156/182/80 154/181/80 157/185/80 158/186/80
f 160/187/80 162/188/80 158/186/80 157/185/80
f 157/185/80 159/184/80 161/189/80 160/187/80
f 160/187/80 161/189/80 165/190/80 163/191/80
f 162/188/80 160/187/80 163/191/80 164/192/80
f 166/193/80 168/194/80 164/192/80 163/191/80
f 163/191/80 165/190/80 167/195/80 166/193/80
f 166/193/80 167/195/80 171/196/80 169/197/80
f 168/194/80 166/193/80 169/197/80 170/198/80
f 172/199/80 174/200/80 170/198/80 169/197/80
f 169/197/80 171/196/80 173/201/80 172/199/80
f 172/199/80 173/201/80 177/202/80 175/203/80
f 174/200/80 172/199/80 175/203/80 176/204/80
f 178/205/80 179/206/80 176/204/80 175/203/80
f 175/203/80 177/202/80 181/207/80 178/205/80
f 179/206/80 178/205/80 180/208/80 329/209/80
f 181/207/80 182/210/80 180/208/80 178/205/80
f 181/207/80 183/211/80 184/212/80 182/210/80
f 183/211/80 181/207/80 177/202/80 185/213/80
f 183/211/80 186/214/80 189/215/80 184/212/80
f 186/214/80 183/211/80 185/213/80 188/216/80
f 186/214/80 187/217/80 190/218/80 189/215/80
f 187/217/80 186/214/80 188/216/80 280/219/80
f 191/220/80 192/221/80 184/212/80 189/215/80
f 194/222/80 191/220/80 189/215/80 190/218/80
f 192/221/80 191/220/80 193/223/80 327/224/80
f 191/220/80 194/222/80 196/225/80 193/223/80
f 195/226/80 194/222/80 190/218/80 284/227/80
f 194/222/80 195/226/80 197/228/80 196/225/80
f 199/229/80 198/230/80 196/225/80 197/228/80
f 198/230/80 201/231/80 193/223/80 196/225/80
f 198/230/80 199/229/80 297/232/80 200/233/80
f 201/231/80 198/230/80 200/233/80 203/234/80
f 201/231/80 202/235/80 327/224/80 193/223/80
f 202/235/80 201/231/80 203/234/80 204/236/80
f 205/237/80 207/238/80 204/236/80 203/234/80
f 206/239/80 205/237/80 203/234/80 200/233/80
f 205/237/80 206/239/80 210/240/80 208/241/80
f 207/238/80 205/237/80 208/241/80 209/242/80
f 211/243/80 213/244/80 209/242/80 208/241/80
f 212/245/80 211/243/80 208/241/80 210/240/80
f 211/243/80 212/245/80 216/246/80 214/247/80
f 213/244/80 211/243/80 214/247/80 215/248/80
f 217/249/80 219/250/80 215/248/80 214/247/80
f 218/251/80 217/249/80 214/247/80 216/246/80
f 217/249/80 218/251/80 222/252/80 220/253/80
f 219/250/80 217/249/80 220/253/80 221/254/80
f 223/255/80 225/256/80 221/254/80 220/253/80
f 224/257/80 223/255/80 220/253/80 222/252/80
f 223/255/80 224/257/80 228/258/80 226/259/80
f 225/256/80 223/255/80 226/259/80 227/260/80
f 229/261/80 231/262/80 227/260/80 226/259/80
f 230/263/80 229/261/80 226/259/80 228/258/80
f 229/261/80 230/263/80 234/264/80 232/265/80
f 231/262/80 229/261/80 232/265/80 233/266/80
f 235/267/80 237/268/80 233/266/80 232/265/80
f 236/269/80 235/267/80 232/265/80 234/264/80
f 235/267/80 236/269/80 240/270/80 238/271/80
f 237/268/80 235/267/80 238/271/80 239/272/80
f 241/273/80 243/274/80 239/272/80 238/271/80
f 242/275/80 241/273/80 238/271/80 240/270/80
f 241/273/80 242/275/80 246/276/80 244/277/80
f 243/274/80 241/273/80 244/277/80 245/278/80
f 247/279/80 249/280/80 245/278/80 244/277/80
f 248/281/80 247/279/80 244/277/80 246/276/80
f 247/279/80 248/281/80 252/282/80 250/283/80
f 249/280/80 247/279/80 250/283/80 251/284/80
f 253/285/80 255/286/80 251/284/80 250/283/80
f 254/287/80 253/285/80 250/283/80 252/282/80
f 253/285/80 254/287/80 258/288/80 256/289/80
f 255/286/80 253/285/80 256/289/80 257/290/80
f 259/291/80 261/292/80 257/290/80 256/289/80
f 260/293/80 259/291/80 256/289/80 258/288/80
f 259/291/80 260/293/80 264/294/80 262/295/80
f 261/292/80 259/291/80 262/295/80 263/296/80
f 265/297/80 267/298/80 263/296/80 262/295/80
f 266/299/80 265/297/80 262/295/80 264/294/80
f 265/297/80 266/299/80 270/300/80 268/301/80
f 267/298/80 265/297/80 268/301/80 269/302/80
f 271/303/80 273/304/80 269/302/80 268/301/80
f 272/305/80 271/303/80 268/301/80 270/300/80
f 271/303/80 272/305/80 276/306/80 274/307/80
f 273/304/80 271/303/80 274/307/80 275/308/80
f 277/309/80 279/310/80 275/308/80 274/307/80
f 278/311/80 277/309/80 274/307/80 276/306/80
f 277/309/80 278/311/80 280/219/80 188/216/80
f 279/310/80 277/309/80 188/216/80 185/213/80
f 173/201/80 279/310/80 185/213/80 177/202/80
f 279/310/80 173/201/80 171/196/80 275/308/80
f 278/311/80 276/306/80 281/312/80 280/219/80
f 283/313/80 187/217/80 280/219/80 281/312/80
f 276/306/80 272/305/80 282/314/80 281/312/80
f 285/315/80 283/313/80 281/312/80 282/314/80
f 187/217/80 283/313/80 284/227/80 190/218/80
f 283/313/80 285/315/80 287/316/80 284/227/80
f 286/317/80 285/315/80 282/314/80 312/318/80
f 285/315/80 286/317/80 288/319/80 287/316/80
f 290/320/80 289/321/80 287/316/80 288/319/80
f 289/321/80 195/226/80 284/227/80 287/316/80
f 289/321/80 290/320/80 292/322/80 291/323/80
f 195/226/80 289/321/80 291/323/80 197/228/80
f 294/324/80 293/325/80 291/323/80 292/322/80
f 293/325/80 199/229/80 197/228/80 291/323/80
f 293/325/80 294/324/80 296/326/80 295/327/80
f 199/229/80 293/325/80 295/327/80 297/232/80
f 216/246/80 212/245/80 295/327/80 296/326/80
f 212/245/80 210/240/80 297/232/80 295/327/80
f 210/240/80 206/239/80 200/233/80 297/232/80
f 294/324/80 300/328/80 298/329/80 296/326/80
f 218/251/80 216/246/80 296/326/80 298/329/80
f 222/252/80 218/251/80 298/329/80 299/330/80
f 300/328/80 301/331/80 299/330/80 298/329/80
f 301/331/80 300/328/80 302/332/80 303/333/80
f 300/328/80 294/324/80 292/322/80 302/332/80
f 304/334/80 305/335/80 303/333/80 302/332/80
f 290/320/80 304/334/80 302/332/80 292/322/80
f 305/335/80 304/334/80 306/336/80 307/337/80
f 304/334/80 290/320/80 288/319/80 306/336/80
f 308/338/80 309/339/80 307/337/80 306/336/80
f 286/317/80 308/338/80 306/336/80 288/319/80
f 309/339/80 308/338/80 310/340/80 311/341/80
f 308/338/80 286/317/80 312/318/80 310/340/80
f 266/299/80 264/294/80 311/341/80 310/340/80
f 270/300/80 266/299/80 310/340/80 312/318/80
f 272/305/80 270/300/80 312/318/80 282/314/80
f 264/294/80 260/293/80 313/342/80 311/341/80
f 315/343/80 309/339/80 311/341/80 313/342/80
f 316/344/80 315/343/80 313/342/80 314/345/80
f 260/293/80 258/288/80 314/345/80 313/342/80
f 315/343/80 316/344/80 318/346/80 317/347/80
f 309/339/80 315/343/80 317/347/80 307/337/80
f 320/348/80 319/349/80 317/347/80 318/346/80
f 319/349/80 305/335/80 307/337/80 317/347/80
f 319/349/80 320/348/80 322/350/80 321/351/80
f 305/335/80 319/349/80 321/351/80 303/333/80
f 324/352/80 323/353/80 321/351/80 322/350/80
f 323/353/80 301/331/80 303/333/80 321/351/80
f 323/353/80 324/352/80 326/354/80 325/355/80
f 301/331/80 323/353/80 325/355/80 299/330/80
f 228/258/80 224/257/80 325/355/80 326/354/80
f 224/257/80 222/252/80 299/330/80 325/355/80
f 324/352/80 236/269/80 234/264/80 326/354/80
f 230/263/80 228/258/80 326/354/80 234/264/80
f 236/269/80 324/352/80 322/350/80 240/270/80
f 320/348/80 242/275/80 240/270/80 322/350/80
f 242/275/80 320/348/80 318/346/80 246/276/80
f 316/344/80 248/281/80 246/276/80 318/346/80
f 248/281/80 316/344/80 314/345/80 252/282/80
f 258/288/80 254/287/80 252/282/80 314/345/80
f 167/195/80 273/304/80 275/308/80 171/196/80
f 273/304/80 167/195/80 165/190/80 269/302/80
f 161/189/80 267/298/80 269/302/80 165/190/80
f 267/298/80 161/189/80 159/184/80 263/296/80
f 155/183/80 261/292/80 263/296/80 159/184/80
f 261/292/80 155/183/80 153/178/80 257/290/80
f 149/177/80 255/286/80 257/290/80 153/178/80
f 255/286/80 149/177/80 147/172/80 251/284/80
f 143/171/80 249/280/80 251/284/80 147/172/80
f 249/280/80 143/171/80 141/166/80 245/278/80
f 137/165/80 243/274/80 245/278/80 141/166/80
f 243/274/80 137/165/80 135/160/80 239/272/80
f 131/159/80 237/268/80 239/272/80 135/160/80
f 237/268/80 131/159/80 129/154/80 233/266/80
f 125/153/80 231/262/80 233/266/80 129/154/80
f 231/262/80 125/153/80 123/148/80 227/260/80
f 119/147/80 225/256/80 227/260/80 123/148/80
f 225/256/80 119/147/80 117/142/80 221/254/80
f 113/141/80 219/250/80 221/254/80 117/142/80
f 219/250/80 113/141/80 111/136/80 215/248/80
f 107/135/80 213/244/80 215/248/80 111/136/80
f 213/244/80 107/135/80 105/130/80 209/242/80
f 101/129/80 207/238/80 209/242/80 105/130/80
f 207/238/80 101/129/80 99/124/80 204/236/80
f 96/123/80 202/235/80 204/236/80 99/124/80
f 202/235/80 96/123/80 94/122/80 327/224/80
f 328/121/80 192/221/80 327/224/80 94/122/80
f 192/221/80 328/121/80 182/210/80 184/212/80
f 180/208/80 182/210/80 328/121/80 93/116/80
f 93/116/80 91/115/80 329/209/80 180/208/80
f 31/53/18 179/356/81 329/357/82 29/50/17
f 91/358/79 27/51/12 29/50/17 329/357/82
f 179/356/81 31/53/18 33/56/21 176/359/83
f 35/57/22 174/360/84 176/359/83 33/56/21
f 174/360/84 35/57/22 37/60/25 170/361/85
f 39/61/26 168/362/86 170/361/85 37/60/25
f 168/362/86 39/61/26 41/64/29 164/363/87
f 43/65/30 162/364/88 164/363/87 41/64/29
f 162/364/88 43/65/30 45/68/33 158/365/89
f 47/69/34 156/366/90 158/365/89 45/68/33
f 156/366/90 47/69/34 49/72/37 152/367/91
f 51/73/38 150/368/92 152/367/91 49/72/37
f 150/368/92 51/73/38 53/76/41 146/369/93
f 55/77/42 144/370/94 146/369/93 53/76/41
f 144/370/94 55/77/42 57/80/45 140/371/95
f 59/81/46 138/372/96 140/371/95 57/80/45
f 134/373/97 138/372/96 59/81/46 61/84/49
f 132/374/98 134/373/97 61/84/49 63/85/50
f 128/375/99 132/374/98 63/85/50 65/88/53
f 126/376/100 128/375/99 65/88/53 67/89/54
f 122/377/101 126/376/100 67/89/54 69/92/57
f 120/378/102 122/377/101 69/92/57 71/93/58
f 116/379/103 120/378/102 71/93/58 73/96/61
f 114/380/104 116/379/103 73/96/61 75/97/62
f 110/381/105 114/380/104 75/97/62 77/100/65
f 108/382/106 110/381/105 77/100/65 79/101/66
f 104/383/107 108/382/106 79/101/66 81/104/69
f 102/384/108 104/383/107 81/104/69 83/105/70
f 98/112/77 102/384/108 83/105/70 85/108/73
