# PadForge: decal shells re-partitioned to their host part
o Decal-Shoulder-Left-Trigger
v -36.524977 -3.152883 47.722556
v -35.745653 -3.026990 47.702484
v -36.037031 -1.688689 47.819018
v -36.807760 -1.813974 47.839738
v -36.319147 -0.366997 47.990374
v -37.085719 -0.491492 48.008233
v -35.724844 -0.265578 47.925755
v -35.442649 -1.587840 47.755711
v -35.149380 -2.927644 47.642991
v -37.629767 2.175569 48.581727
v -36.857869 2.300916 48.557348
v -37.160120 3.854278 49.005166
v -37.921525 3.730314 49.050301
v -37.468544 5.387297 49.507767
v -38.213126 5.257170 49.563818
v -36.905560 5.493525 49.381010
v -36.577120 3.954490 48.895709
v -36.260403 2.403041 48.475444
v -38.762341 7.585442 50.433181
v -38.077864 7.782858 50.440311
v -38.463897 8.629183 50.772108
v -39.055917 8.362067 50.721727
v -38.980029 9.260236 51.031381
v -39.280783 8.890691 50.922476
v -38.659255 9.672372 51.072463
v -38.032211 8.927881 50.760560
v -37.568878 7.971643 50.373472
v -41.719950 -4.029956 47.592454
v -41.970755 -2.660988 47.667399
v -42.832240 -2.800390 47.628179
v -42.578469 -4.177496 47.561370
v -43.632395 -2.930216 47.589302
v -43.376635 -4.315570 47.530286
v -43.893891 -1.556825 47.696516
v -43.091196 -1.436747 47.742970
v -42.224175 -1.306988 47.790185
v -44.465906 1.230875 48.152625
v -43.625767 1.327138 48.215032
v -43.935615 2.923377 48.653327
v -44.790625 2.841044 48.581011
v -44.225737 4.450056 49.149915
v -45.082460 4.373401 49.072191
v -43.301980 4.545077 49.230009
v -43.016116 3.018614 48.727915
v -42.722522 1.432296 48.278950
v -45.280746 5.574906 49.542256
v -45.935894 5.510857 49.460031
v -45.744120 4.310438 48.995815
v -46.408831 5.478596 49.300171
v -46.223919 4.270909 48.847772
v -46.471386 6.524697 49.754746
v -45.998852 6.523425 49.903646
v -45.360475 6.572723 49.972303
v -42.020104 7.178289 50.301872
v -42.223430 8.342257 50.758600
v -43.127644 8.176278 50.665326
v -42.888462 7.024750 50.213285
v -43.965089 7.942685 50.547108
v -43.745845 6.858345 50.121501
v -44.202059 8.905508 50.918214
v -43.361879 9.219170 51.071308
v -42.405690 9.398292 51.172577
v -38.127597 -3.406500 47.701865
v -38.373421 -2.057614 47.810502
v -39.283960 -2.206221 47.779433
v -39.044458 -3.560275 47.678180
v -40.221422 -2.363456 47.743603
v -39.980645 -3.722288 47.650829
v -40.460325 -1.022972 47.884084
v -39.528045 -0.871625 47.928773
v -38.628674 -0.728246 47.967859
v -40.987003 1.667622 48.405386
v -40.076631 1.803413 48.466660
v -40.392052 3.371486 48.938475
v -41.296414 3.248926 48.874013
v -40.693901 4.903925 49.459487
v -41.590623 4.787234 49.392417
v -39.807159 5.018115 49.514592
v -39.502657 3.493601 48.994124
v -39.189386 1.938434 48.521459
v -40.561176 9.256418 51.133588
v -40.546886 9.990268 51.413633
v -41.517864 10.181294 51.497571
v -41.449024 9.392158 51.189490
v -42.542282 10.209611 51.489010
v -42.630795 10.747720 51.586315
v -41.545938 10.719412 51.598973
v -40.490917 10.510687 51.507778
v -44.466625 9.625743 51.187955
v -45.143291 9.081731 50.969064
v -44.812496 8.506543 50.745740
v -45.612841 8.374991 50.690100
v -45.241873 8.137416 50.599322
v -46.053971 8.592030 50.668798
v -45.481618 9.437465 50.995015
v -44.687613 10.095938 51.245943
v -40.291707 7.399858 50.415225
v -41.143353 7.301901 50.370797
v -40.939695 6.174594 49.930043
v -40.071192 6.298059 49.987666
v -41.820481 6.044991 49.857408
v -41.108738 -2.515189 47.706067
v -40.863215 -3.878521 47.622263
v -41.353095 -1.168575 47.837570
v -41.855889 1.544872 48.342630
v -42.153648 3.129247 48.802636
v -42.441691 4.662573 49.313389
v -43.562780 10.012730 51.373511
v -43.708052 10.535938 51.455811
v -37.303328 -3.275033 47.719501
v -37.567231 -1.931892 47.833770
v -37.834994 -0.606695 47.997542
v -38.390289 2.058645 48.564769
v -38.690723 3.611674 49.039028
v -38.986421 5.135007 49.557738
v -44.311511 -3.047477 47.551609
v -44.053237 -4.438695 47.500342
v -44.857266 -3.143039 47.442913
v -44.598977 -4.540881 47.398463
v -45.115168 -1.753779 47.536261
v -44.573124 -1.666330 47.651485
v -45.663818 1.080321 47.965303
v -45.145023 1.144647 48.093490
v -45.461844 2.768751 48.513032
v -45.959841 2.717672 48.375718
v -45.296422 7.492826 50.343148
v -44.670674 7.677701 50.428569
v -44.589880 6.695989 50.043031
v -37.760253 6.699452 50.002448
v -37.214733 6.829565 49.893536
v -38.487385 6.546322 50.035931
v -39.812381 9.046352 51.016346
v -39.687577 9.698580 51.251717
v -39.503745 10.180768 51.326893
v -45.894454 7.500308 50.324350
v -46.368304 7.591961 50.233170
v -42.673185 5.907129 49.773112
v -43.534986 5.775232 49.688488
v -41.318647 8.403640 50.802290
v -40.465525 8.389658 50.799027
v -39.255670 6.417282 50.026990
v -39.499036 7.476165 50.430417
v -44.442683 5.663678 49.614936
v -34.666813 -5.095700 47.548219
v -35.261045 -5.223030 47.587022
v -35.087767 -5.938386 47.548696
v -34.490294 -5.803719 47.516763
v -34.939326 -6.575054 47.506228
v -34.335087 -6.439056 47.476344
v -35.747058 -6.756857 47.503009
v -35.885072 -6.118048 47.545344
v -36.050039 -5.392043 47.588952
v -41.077911 -7.960679 47.469221
v -41.180632 -7.314768 47.491088
v -42.017530 -7.504519 47.479272
v -41.913561 -8.149998 47.461264
v -42.777526 -7.676996 47.467567
v -42.670234 -8.321559 47.453195
v -42.914155 -6.867606 47.480680
v -42.146533 -6.701983 47.497079
v -41.306130 -6.520854 47.513634
v -37.454172 -7.141458 47.495216
v -37.570409 -6.498035 47.532171
v -38.469325 -6.701084 47.523230
v -38.355692 -7.344956 47.489911
v -39.385031 -6.908160 47.513172
v -39.272758 -7.552199 47.483683
v -39.528548 -6.138321 47.544815
v -38.610346 -5.940972 47.559410
v -37.709325 -5.747558 47.572486
v -40.295924 -7.114336 47.502428
v -40.188908 -7.759418 47.476753
v -40.430172 -6.332254 47.529571
v -36.860741 -5.565679 47.583170
v -36.710641 -6.304104 47.539681
v -36.584924 -6.945530 47.499448
v -43.432425 -7.825712 47.456361
v -43.323039 -8.469651 47.445342
v -43.971527 -7.948352 47.370277
v -43.861467 -8.592000 47.361962
v -44.113244 -7.126754 47.375485
v -43.573159 -7.009910 47.465131
v -36.585125 0.928305 48.227750
v -35.986832 1.030470 48.158884
v -37.355418 0.803292 48.244946
v -43.349984 -0.093633 47.925070
v -42.466625 0.023874 47.980219
v -44.169362 -0.202503 47.871038
v -39.790428 0.426926 48.143975
v -38.899346 0.567410 48.192091
v -40.711898 0.282130 48.090041
v -41.595581 0.148462 48.035346
v -38.107175 0.687964 48.229411
v -44.849879 -0.301400 47.819205
v -45.383151 -0.378147 47.697939
v -35.494073 -4.167823 47.642395
v -34.897278 -4.061064 47.593333
v -36.280061 -4.308339 47.653519
v -42.369484 -5.399821 47.530197
v -41.517942 -5.246665 47.553889
v -43.154690 -5.541204 47.506422
v -37.914421 -4.600491 47.635786
v -38.825191 -4.763572 47.618069
v -39.754766 -4.930221 47.597751
v -40.649432 -5.090725 47.576405
v -37.076335 -4.450642 47.649451
v -43.825003 -5.662063 47.483578
v -44.370058 -5.760577 47.387607
v -39.716958 8.329259 50.751425
v -34.864611 -6.887848 47.481313
v -34.255213 -6.750585 47.450177
v -34.864518 -7.056318 47.370419
v -34.281227 -6.926337 47.337770
v -35.653337 -7.232439 47.367446
v -35.678695 -7.071087 47.480598
v -40.998276 -8.434212 47.318041
v -41.025306 -8.278852 47.458403
v -41.860811 -8.468186 47.452055
v -41.833955 -8.623132 47.306873
v -42.616896 -8.639636 47.445491
v -42.580701 -8.792138 47.296464
v -38.299340 -7.662084 47.473751
v -37.395573 -7.458007 47.477104
v -38.269996 -7.818995 47.348380
v -37.365052 -7.615641 47.356382
v -39.189316 -8.026002 47.339111
v -39.217803 -7.869717 47.469385
v -40.135383 -8.077325 47.464222
v -40.107745 -8.233124 47.328889
v -36.522149 -7.261064 47.479302
v -36.489814 -7.419499 47.362745
v -43.269160 -8.787574 47.438994
v -43.204873 -8.933598 47.287822
v -43.807331 -8.909827 47.356687
v -43.713554 -9.049239 47.205903
vn 0.0201 -0.0679 0.9975
vn 0.0690 -0.0540 0.9962
vn 0.0800 -0.0896 0.9928
vn 0.0247 -0.1010 0.9946
vn 0.0885 -0.1350 0.9869
vn 0.0281 -0.1468 0.9888
vn 0.1293 -0.1249 0.9837
vn 0.1180 -0.0800 0.9898
vn 0.1036 -0.0430 0.9937
vn 0.0479 -0.2529 0.9663
vn 0.1253 -0.2291 0.9653
vn 0.1592 -0.2604 0.9523
vn 0.0665 -0.2899 0.9547
vn 0.1837 -0.2908 0.9390
vn 0.0795 -0.3165 0.9453
vn 0.2478 -0.2707 0.9302
vn 0.2153 -0.2395 0.9467
vn 0.1742 -0.2119 0.9616
vn 0.0702 -0.3372 0.9388
vn 0.1645 -0.3106 0.9362
vn 0.1441 -0.2899 0.9462
vn 0.0648 -0.3320 0.9411
vn 0.1290 -0.2782 0.9518
vn 0.0675 -0.3364 0.9393
vn 0.1749 -0.2273 0.9580
vn 0.2036 -0.2547 0.9454
vn 0.2327 -0.2889 0.9286
vn -0.0274 -0.0480 0.9985
vn -0.0321 -0.0784 0.9964
vn -0.0352 -0.0728 0.9967
vn -0.0306 -0.0425 0.9986
vn -0.0408 -0.0679 0.9969
vn -0.0355 -0.0375 0.9987
vn -0.0445 -0.1116 0.9928
vn -0.0384 -0.1164 0.9925
vn -0.0352 -0.1223 0.9919
vn -0.0511 -0.2348 0.9707
vn -0.0432 -0.2402 0.9698
vn -0.0477 -0.2950 0.9543
vn -0.0582 -0.2910 0.9550
vn -0.0461 -0.3403 0.9392
vn -0.0618 -0.3425 0.9375
vn -0.0422 -0.3382 0.9401
vn -0.0434 -0.2994 0.9531
vn -0.0397 -0.2465 0.9683
vn -0.0565 -0.3837 0.9217
vn -0.1733 -0.3899 0.9044
vn -0.1622 -0.3492 0.9229
vn -0.2646 -0.3882 0.8828
vn -0.2474 -0.3514 0.9029
vn -0.2672 -0.3840 0.8838
vn -0.1703 -0.3885 0.9056
vn -0.0449 -0.3866 0.9212
vn -0.0254 -0.3690 0.9291
vn -0.0243 -0.3684 0.9293
vn -0.0289 -0.3690 0.9290
vn -0.0293 -0.3710 0.9282
vn -0.0247 -0.3669 0.9299
vn -0.0239 -0.3728 0.9276
vn -0.0264 -0.3639 0.9311
vn -0.0319 -0.3658 0.9302
vn -0.0248 -0.3666 0.9301
vn -0.0125 -0.0698 0.9975
vn -0.0154 -0.1015 0.9947
vn -0.0203 -0.0964 0.9951
vn -0.0168 -0.0651 0.9977
vn -0.0249 -0.0906 0.9956
vn -0.0207 -0.0597 0.9980
vn -0.0278 -0.1352 0.9904
vn -0.0227 -0.1416 0.9897
vn -0.0172 -0.1472 0.9890
vn -0.0293 -0.2581 0.9657
vn -0.0220 -0.2621 0.9648
vn -0.0209 -0.3084 0.9510
vn -0.0304 -0.3068 0.9513
vn -0.0198 -0.3377 0.9411
vn -0.0308 -0.3381 0.9406
vn -0.0076 -0.3357 0.9420
vn -0.0115 -0.3086 0.9511
vn -0.0148 -0.2648 0.9642
vn 0.0246 -0.3566 0.9339
vn 0.0574 -0.2699 0.9612
vn 0.0072 -0.2692 0.9631
vn -0.0074 -0.3637 0.9315
vn -0.0366 -0.2689 0.9625
vn -0.0484 -0.1838 0.9818
vn 0.0134 -0.1836 0.9829
vn 0.0785 -0.1877 0.9791
vn -0.0873 -0.2713 0.9585
vn -0.0958 -0.2898 0.9523
vn -0.0152 -0.3631 0.9316
vn -0.1154 -0.3261 0.9383
vn -0.0156 -0.3670 0.9301
vn -0.2001 -0.2875 0.9366
vn -0.1617 -0.2238 0.9611
vn -0.1344 -0.1908 0.9724
vn 0.0056 -0.3595 0.9331
vn -0.0139 -0.3660 0.9305
vn -0.0170 -0.3582 0.9335
vn -0.0018 -0.3538 0.9353
vn -0.0282 -0.3605 0.9323
vn -0.0291 -0.0845 0.9960
vn -0.0244 -0.0539 0.9982
vn -0.0323 -0.1287 0.9912
vn -0.0360 -0.2528 0.9668
vn -0.0389 -0.3037 0.9520
vn -0.0391 -0.3379 0.9404
vn -0.0707 -0.2689 0.9606
vn -0.1006 -0.1839 0.9778
vn -0.0019 -0.0717 0.9974
vn -0.0025 -0.1037 0.9946
vn -0.0026 -0.1496 0.9887
vn 0.0048 -0.2631 0.9648
vn 0.0128 -0.3041 0.9526
vn 0.0205 -0.3293 0.9440
vn -0.1129 -0.0754 0.9907
vn -0.1067 -0.0451 0.9933
vn -0.1808 -0.0847 0.9799
vn -0.1741 -0.0548 0.9832
vn -0.1868 -0.1287 0.9739
vn -0.1178 -0.1193 0.9858
vn -0.2051 -0.2482 0.9468
vn -0.1316 -0.2411 0.9615
vn -0.1461 -0.2965 0.9438
vn -0.2247 -0.3015 0.9266
vn -0.0291 -0.3722 0.9277
vn -0.0185 -0.3658 0.9305
vn -0.0226 -0.3773 0.9258
vn 0.1830 -0.3155 0.9311
vn 0.2521 -0.2982 0.9206
vn 0.0789 -0.3359 0.9386
vn 0.0557 -0.3464 0.9364
vn 0.1036 -0.2733 0.9563
vn 0.1376 -0.2041 0.9692
vn -0.1477 -0.3614 0.9206
vn -0.2428 -0.3459 0.9063
vn -0.0340 -0.3626 0.9313
vn -0.0323 -0.3667 0.9298
vn -0.0110 -0.3654 0.9308
vn 0.0150 -0.3572 0.9339
vn 0.0268 -0.3456 0.9380
vn 0.0336 -0.3477 0.9370
vn -0.0339 -0.3748 0.9265
vn 0.0726 -0.0316 0.9969
vn 0.0436 -0.0424 0.9981
vn 0.0375 -0.0502 0.9980
vn 0.0643 -0.0415 0.9971
vn 0.0380 -0.0648 0.9972
vn 0.0637 -0.0595 0.9962
vn 0.0116 -0.0682 0.9976
vn 0.0089 -0.0598 0.9982
vn 0.0101 -0.0557 0.9984
vn -0.0009 -0.0383 0.9993
vn -0.0065 -0.0321 0.9995
vn -0.0091 -0.0265 0.9996
vn -0.0033 -0.0334 0.9994
vn -0.0119 -0.0213 0.9997
vn -0.0057 -0.0291 0.9996
vn -0.0190 -0.0213 0.9996
vn -0.0157 -0.0265 0.9995
vn -0.0129 -0.0321 0.9994
vn 0.0074 -0.0586 0.9983
vn 0.0028 -0.0548 0.9985
vn 0.0004 -0.0494 0.9988
vn 0.0052 -0.0535 0.9986
vn -0.0018 -0.0437 0.9990
vn 0.0032 -0.0484 0.9988
vn -0.0076 -0.0438 0.9990
vn -0.0051 -0.0495 0.9988
vn -0.0022 -0.0545 0.9985
vn -0.0040 -0.0379 0.9993
vn 0.0012 -0.0434 0.9991
vn -0.0101 -0.0379 0.9992
vn 0.0024 -0.0575 0.9983
vn 0.0056 -0.0589 0.9982
vn 0.0097 -0.0637 0.9979
vn -0.0817 -0.0281 0.9963
vn -0.0753 -0.0374 0.9965
vn -0.1494 -0.0374 0.9881
vn -0.1433 -0.0478 0.9885
vn -0.1564 -0.0379 0.9870
vn -0.0886 -0.0284 0.9957
vn 0.1010 -0.1855 0.9774
vn 0.1452 -0.1729 0.9742
vn 0.0345 -0.2013 0.9789
vn -0.0403 -0.1748 0.9838
vn -0.0372 -0.1810 0.9828
vn -0.0471 -0.1697 0.9844
vn -0.0232 -0.2003 0.9795
vn -0.0171 -0.2053 0.9785
vn -0.0290 -0.1943 0.9805
vn -0.0341 -0.1877 0.9816
vn -0.0007 -0.2066 0.9784
vn -0.1231 -0.1773 0.9764
vn -0.1936 -0.1862 0.9632
vn 0.0554 -0.0398 0.9977
vn 0.0870 -0.0287 0.9958
vn 0.0145 -0.0547 0.9984
vn -0.0236 -0.0295 0.9993
vn -0.0205 -0.0351 0.9992
vn -0.0277 -0.0244 0.9993
vn -0.0078 -0.0563 0.9984
vn -0.0114 -0.0517 0.9986
vn -0.0145 -0.0464 0.9988
vn -0.0175 -0.0408 0.9990
vn -0.0003 -0.0584 0.9983
vn -0.0980 -0.0321 0.9947
vn -0.1654 -0.0421 0.9853
vn 0.0437 -0.3437 0.9381
vn 0.0951 -0.3142 0.9446
vn 0.1144 -0.2920 0.9496
vn 0.1398 -0.5380 0.8313
vn 0.1644 -0.5335 0.8297
vn 0.1205 -0.5481 0.8277
vn 0.0694 -0.3211 0.9445
vn 0.1367 -0.6370 0.7586
vn 0.0731 -0.3592 0.9304
vn 0.0734 -0.3644 0.9284
vn 0.1389 -0.6488 0.7482
vn 0.0736 -0.3692 0.9264
vn 0.1409 -0.6585 0.7392
vn 0.0707 -0.3384 0.9383
vn 0.0702 -0.3315 0.9408
vn 0.1281 -0.5916 0.7960
vn 0.1254 -0.5763 0.8076
vn 0.1311 -0.6079 0.7831
vn 0.0715 -0.3458 0.9356
vn 0.0725 -0.3532 0.9327
vn 0.1342 -0.6235 0.7702
vn 0.0698 -0.3263 0.9427
vn 0.1227 -0.5618 0.8181
vn 0.0081 -0.3840 0.9233
vn 0.0973 -0.6818 0.7250
vn -0.0526 -0.3946 0.9173
vn 0.0487 -0.7007 0.7118
vt 0.034266 0.883132
vt 0.018325 0.883647
vt 0.019027 0.855915
vt 0.034797 0.855397
vt 0.019575 0.828435
vt 0.035261 0.827891
vt 0.007337 0.828914
vt 0.006791 0.856331
vt 0.006064 0.884044
vt 0.035652 0.771667
vt 0.019857 0.772338
vt 0.019628 0.739169
vt 0.035215 0.738344
vt 0.019512 0.706035
vt 0.034803 0.705284
vt 0.007706 0.706999
vt 0.007520 0.740132
vt 0.007528 0.773076
vt 0.036166 0.653920
vt 0.021840 0.652797
vt 0.025991 0.633323
vt 0.038775 0.636378
vt 0.033584 0.617839
vt 0.041040 0.624311
vt 0.025458 0.611056
vt 0.016119 0.629457
vt 0.010860 0.651670
vt 0.140673 0.881135
vt 0.140547 0.852992
vt 0.158191 0.852611
vt 0.158275 0.880914
vt 0.174581 0.852277
vt 0.174646 0.880739
vt 0.174649 0.823971
vt 0.158231 0.824490
vt 0.140497 0.825065
vt 0.175373 0.765755
vt 0.158267 0.766823
vt 0.158077 0.732816
vt 0.175448 0.731475
vt 0.157628 0.699874
vt 0.175027 0.698445
vt 0.138833 0.701191
vt 0.139373 0.734142
vt 0.139870 0.767954
vt 0.173871 0.672110
vt 0.187244 0.671259
vt 0.188515 0.697511
vt 0.197339 0.671097
vt 0.198692 0.697306
vt 0.194022 0.648299
vt 0.184065 0.649149
vt 0.171129 0.650291
vt 0.102339 0.649880
vt 0.101507 0.624305
vt 0.120129 0.624513
vt 0.120215 0.649964
vt 0.137710 0.626394
vt 0.137924 0.650332
vt 0.138381 0.605018
vt 0.120409 0.601420
vt 0.100706 0.601118
vt 0.067019 0.882099
vt 0.066799 0.854314
vt 0.085446 0.853869
vt 0.085794 0.881721
vt 0.104663 0.853517
vt 0.104986 0.881454
vt 0.104340 0.825868
vt 0.085228 0.826294
vt 0.066806 0.826779
vt 0.104386 0.769462
vt 0.085735 0.770035
vt 0.085705 0.736347
vt 0.104191 0.735567
vt 0.085452 0.703091
vt 0.103760 0.702251
vt 0.067372 0.704001
vt 0.067534 0.737117
vt 0.067557 0.770563
vt 0.064805 0.611159
vt 0.061491 0.595648
vt 0.079869 0.587778
vt 0.081792 0.604826
vt 0.100020 0.583338
vt 0.099706 0.572149
vt 0.078282 0.576823
vt 0.058251 0.585420
vt 0.140628 0.588742
vt 0.156285 0.597714
vt 0.152141 0.611230
vt 0.168518 0.610909
vt 0.162178 0.617403
vt 0.176672 0.605220
vt 0.161807 0.589465
vt 0.143355 0.578546
vt 0.067158 0.651649
vt 0.084435 0.650498
vt 0.085087 0.675280
vt 0.067348 0.675929
vt 0.103116 0.674782
vt 0.122867 0.853260
vt 0.123094 0.881288
vt 0.122647 0.825491
vt 0.122169 0.768800
vt 0.121743 0.734946
vt 0.121213 0.701799
vt 0.121076 0.583808
vt 0.122034 0.572760
vt 0.050168 0.882593
vt 0.050315 0.854843
vt 0.050572 0.827324
vt 0.051201 0.771091
vt 0.050933 0.737721
vt 0.050610 0.704669
vt 0.188520 0.852145
vt 0.188547 0.880720
vt 0.199922 0.852154
vt 0.199947 0.880806
vt 0.199894 0.823651
vt 0.188573 0.823704
vt 0.200109 0.764922
vt 0.189240 0.765094
vt 0.189129 0.730629
vt 0.199610 0.730423
vt 0.165968 0.630914
vt 0.152797 0.629363
vt 0.155330 0.650567
vt 0.019962 0.677144
vt 0.008440 0.677533
vt 0.034978 0.677018
vt 0.050892 0.618741
vt 0.045750 0.605474
vt 0.040073 0.596601
vt 0.177801 0.628539
vt 0.187260 0.625570
vt 0.120640 0.674607
vt 0.138323 0.674271
vt 0.083323 0.626368
vt 0.066498 0.629937
vt 0.050701 0.676561
vt 0.051166 0.653162
vt 0.156826 0.673279
vt 0.004733 0.928867
vt 0.017029 0.929078
vt 0.016304 0.943934
vt 0.003922 0.943596
vt 0.015782 0.957137
vt 0.003272 0.956828
vt 0.032469 0.957688
vt 0.032788 0.944468
vt 0.033313 0.929421
vt 0.142549 0.961587
vt 0.142181 0.948374
vt 0.159471 0.949039
vt 0.159803 0.962246
vt 0.175177 0.949650
vt 0.175421 0.962838
vt 0.174908 0.933089
vt 0.159060 0.932629
vt 0.141720 0.932142
vt 0.067723 0.958866
vt 0.067607 0.945641
vt 0.086175 0.946295
vt 0.086338 0.959516
vt 0.105090 0.946981
vt 0.105274 0.960196
vt 0.105056 0.931150
vt 0.086120 0.930663
vt 0.067538 0.930204
vt 0.123905 0.947680
vt 0.124191 0.960894
vt 0.123651 0.931645
vt 0.050036 0.929794
vt 0.049846 0.945036
vt 0.049773 0.958261
vt 0.188728 0.950199
vt 0.188893 0.963341
vt 0.200030 0.950741
vt 0.200146 0.963988
vt 0.199828 0.933885
vt 0.188524 0.933506
vt 0.019843 0.801336
vt 0.007520 0.801919
vt 0.035605 0.800749
vt 0.158285 0.796628
vt 0.140255 0.797480
vt 0.175008 0.795850
vt 0.085448 0.799177
vt 0.067185 0.799650
vt 0.104340 0.798698
vt 0.122440 0.798151
vt 0.050973 0.800180
vt 0.188933 0.795395
vt 0.200084 0.795279
vt 0.017660 0.907248
vt 0.005380 0.907467
vt 0.033779 0.907020
vt 0.158658 0.905954
vt 0.141186 0.906049
vt 0.174773 0.905882
vt 0.067287 0.906635
vt 0.085962 0.906459
vt 0.105023 0.906300
vt 0.123371 0.906165
vt 0.050105 0.906819
vt 0.188534 0.905836
vt 0.199886 0.905829
vt 0.051960 0.634258
vt 0.015495 0.963632
vt 0.002897 0.963347
vt 0.016072 0.967659
vt 0.003990 0.967451
vt 0.032378 0.968209
vt 0.032298 0.964196
vt 0.142715 0.972366
vt 0.142692 0.968103
vt 0.159946 0.968764
vt 0.159976 0.973087
vt 0.175554 0.969357
vt 0.175412 0.973731
vt 0.086411 0.966028
vt 0.067752 0.965377
vt 0.086397 0.970126
vt 0.067719 0.969433
vt 0.105371 0.970858
vt 0.105372 0.966709
vt 0.124316 0.967409
vt 0.124329 0.971613
vt 0.049718 0.964770
vt 0.049652 0.968795
vt 0.188960 0.969807
vt 0.188370 0.974182
vt 0.200113 0.970558
vt 0.199018 0.974992
s 0
f 1/1/1 2/2/2 3/3/3 4/4/4
f 4/4/4 3/3/3 5/5/5 6/6/6
f 7/7/7 5/5/5 3/3/3 8/8/8
f 8/8/8 3/3/3 2/2/2 9/9/9
f 10/10/10 11/11/11 12/12/12 13/13/13
f 13/13/13 12/12/12 14/14/14 15/15/15
f 16/16/16 14/14/14 12/12/12 17/17/17
f 17/17/17 12/12/12 11/11/11 18/18/18
f 19/19/19 20/20/20 21/21/21 22/22/22
f 22/22/22 21/21/21 23/23/23 24/24/24
f 25/25/25 23/23/23 21/21/21 26/26/26
f 26/26/26 21/21/21 20/20/20 27/27/27
f 28/28/28 29/29/29 30/30/30 31/31/31
f 31/31/31 30/30/30 32/32/32 33/33/33
f 34/34/34 32/32/32 30/30/30 35/35/35
f 35/35/35 30/30/30 29/29/29 36/36/36
f 37/37/37 38/38/38 39/39/39 40/40/40
f 40/40/40 39/39/39 41/41/41 42/42/42
f 43/43/43 41/41/41 39/39/39 44/44/44
f 44/44/44 39/39/39 38/38/38 45/45/45
f 42/42/42 46/46/46 47/47/47 48/48/48
f 48/48/48 47/47/47 49/49/49 50/50/50
f 51/51/51 49/49/49 47/47/47 52/52/52
f 52/52/52 47/47/47 46/46/46 53/53/53
f 54/54/54 55/55/55 56/56/56 57/57/57
f 57/57/57 56/56/56 58/58/58 59/59/59
f 60/60/60 58/58/58 56/56/56 61/61/61
f 61/61/61 56/56/56 55/55/55 62/62/62
f 63/63/63 64/64/64 65/65/65 66/66/66
f 66/66/66 65/65/65 67/67/67 68/68/68
f 69/69/69 67/67/67 65/65/65 70/70/70
f 70/70/70 65/65/65 64/64/64 71/71/71
f 72/72/72 73/73/73 74/74/74 75/75/75
f 75/75/75 74/74/74 76/76/76 77/77/77
f 78/78/78 76/76/76 74/74/74 79/79/79
f 79/79/79 74/74/74 73/73/73 80/80/80
f 81/81/81 82/82/82 83/83/83 84/84/84
f 84/84/84 83/83/83 85/85/85 62/62/62
f 86/86/86 85/85/85 83/83/83 87/87/87
f 87/87/87 83/83/83 82/82/82 88/88/88
f 60/60/60 89/89/89 90/90/90 91/91/91
f 91/91/91 90/90/90 92/92/92 93/93/93
f 94/94/94 92/92/92 90/90/90 95/95/95
f 95/95/95 90/90/90 89/89/89 96/96/96
f 97/97/97 98/98/98 99/99/99 100/100/100
f 100/100/100 99/99/99 76/76/76 78/78/78
f 77/77/77 76/76/76 99/99/99 101/101/101
f 101/101/101 99/99/99 98/98/98 54/54/54
f 68/68/68 67/67/67 102/102/102 103/103/103
f 103/103/103 102/102/102 29/29/29 28/28/28
f 36/36/36 29/29/29 102/102/102 104/104/104
f 104/104/104 102/102/102 67/67/67 69/69/69
f 45/45/45 105/105/105 106/106/106 44/44/44
f 44/44/44 106/106/106 107/107/107 43/43/43
f 77/77/77 107/107/107 106/106/106 75/75/75
f 75/75/75 106/106/106 105/105/105 72/72/72
f 60/60/60 61/61/61 108/108/108 89/89/89
f 89/89/89 108/108/108 109/109/109 96/96/96
f 86/86/86 109/109/109 108/108/108 85/85/85
f 85/85/85 108/108/108 61/61/61 62/62/62
f 63/63/63 110/110/110 111/111/111 64/64/64
f 64/64/64 111/111/111 112/112/112 71/71/71
f 6/6/6 112/112/112 111/111/111 4/4/4
f 4/4/4 111/111/111 110/110/110 1/1/1
f 80/80/80 113/113/113 114/114/114 79/79/79
f 79/79/79 114/114/114 115/115/115 78/78/78
f 15/15/15 115/115/115 114/114/114 13/13/13
f 13/13/13 114/114/114 113/113/113 10/10/10
f 33/33/33 32/32/32 116/116/116 117/117/117
f 117/117/117 116/116/116 118/118/118 119/119/119
f 120/120/120 118/118/118 116/116/116 121/121/121
f 121/121/121 116/116/116 32/32/32 34/34/34
f 122/122/122 123/123/123 124/124/124 125/125/125
f 125/125/125 124/124/124 48/48/48 50/50/50
f 42/42/42 48/48/48 124/124/124 40/40/40
f 40/40/40 124/124/124 123/123/123 37/37/37
f 93/93/93 126/126/126 127/127/127 91/91/91
f 91/91/91 127/127/127 58/58/58 60/60/60
f 59/59/59 58/58/58 127/127/127 128/128/128
f 128/128/128 127/127/127 126/126/126 53/53/53
f 27/27/27 20/20/20 129/129/129 130/130/130
f 130/130/130 129/129/129 14/14/14 16/16/16
f 15/15/15 14/14/14 129/129/129 131/131/131
f 131/131/131 129/129/129 20/20/20 19/19/19
f 81/81/81 132/132/132 133/133/133 82/82/82
f 82/82/82 133/133/133 134/134/134 88/88/88
f 25/25/25 134/134/134 133/133/133 23/23/23
f 23/23/23 133/133/133 132/132/132 24/24/24
f 53/53/53 126/126/126 135/135/135 52/52/52
f 52/52/52 135/135/135 136/136/136 51/51/51
f 94/94/94 136/136/136 135/135/135 92/92/92
f 92/92/92 135/135/135 126/126/126 93/93/93
f 54/54/54 57/57/57 137/137/137 101/101/101
f 101/101/101 137/137/137 107/107/107 77/77/77
f 43/43/43 107/107/107 137/137/137 138/138/138
f 138/138/138 137/137/137 57/57/57 59/59/59
f 54/54/54 98/98/98 139/139/139 55/55/55
f 55/55/55 139/139/139 84/84/84 62/62/62
f 81/81/81 84/84/84 139/139/139 140/140/140
f 140/140/140 139/139/139 98/98/98 97/97/97
f 78/78/78 115/115/115 141/141/141 100/100/100
f 100/100/100 141/141/141 142/142/142 97/97/97
f 19/19/19 142/142/142 141/141/141 131/131/131
f 131/131/131 141/141/141 115/115/115 15/15/15
f 43/43/43 138/138/138 143/143/143 41/41/41
f 41/41/41 143/143/143 46/46/46 42/42/42
f 53/53/53 46/46/46 143/143/143 128/128/128
f 128/128/128 143/143/143 138/138/138 59/59/59
f 144/144/144 145/145/145 146/146/146 147/147/147
f 147/147/147 146/146/146 148/148/148 149/149/149
f 150/150/150 148/148/148 146/146/146 151/151/151
f 151/151/151 146/146/146 145/145/145 152/152/152
f 153/153/153 154/154/154 155/155/155 156/156/156
f 156/156/156 155/155/155 157/157/157 158/158/158
f 159/159/159 157/157/157 155/155/155 160/160/160
f 160/160/160 155/155/155 154/154/154 161/161/161
f 162/162/162 163/163/163 164/164/164 165/165/165
f 165/165/165 164/164/164 166/166/166 167/167/167
f 168/168/168 166/166/166 164/164/164 169/169/169
f 169/169/169 164/164/164 163/163/163 170/170/170
f 167/167/167 166/166/166 171/171/171 172/172/172
f 172/172/172 171/171/171 154/154/154 153/153/153
f 161/161/161 154/154/154 171/171/171 173/173/173
f 173/173/173 171/171/171 166/166/166 168/168/168
f 152/152/152 174/174/174 175/175/175 151/151/151
f 151/151/151 175/175/175 176/176/176 150/150/150
f 162/162/162 176/176/176 175/175/175 163/163/163
f 163/163/163 175/175/175 174/174/174 170/170/170
f 158/158/158 157/157/157 177/177/177 178/178/178
f 178/178/178 177/177/177 179/179/179 180/180/180
f 181/181/181 179/179/179 177/177/177 182/182/182
f 182/182/182 177/177/177 157/157/157 159/159/159
f 18/18/18 11/11/11 183/183/183 184/184/184
f 184/184/184 183/183/183 5/5/5 7/7/7
f 6/6/6 5/5/5 183/183/183 185/185/185
f 185/185/185 183/183/183 11/11/11 10/10/10
f 45/45/45 38/38/38 186/186/186 187/187/187
f 187/187/187 186/186/186 35/35/35 36/36/36
f 34/34/34 35/35/35 186/186/186 188/188/188
f 188/188/188 186/186/186 38/38/38 37/37/37
f 80/80/80 73/73/73 189/189/189 190/190/190
f 190/190/190 189/189/189 70/70/70 71/71/71
f 69/69/69 70/70/70 189/189/189 191/191/191
f 191/191/191 189/189/189 73/73/73 72/72/72
f 72/72/72 105/105/105 192/192/192 191/191/191
f 191/191/191 192/192/192 104/104/104 69/69/69
f 36/36/36 104/104/104 192/192/192 187/187/187
f 187/187/187 192/192/192 105/105/105 45/45/45
f 6/6/6 185/185/185 193/193/193 112/112/112
f 112/112/112 193/193/193 190/190/190 71/71/71
f 80/80/80 190/190/190 193/193/193 113/113/113
f 113/113/113 193/193/193 185/185/185 10/10/10
f 37/37/37 123/123/123 194/194/194 188/188/188
f 188/188/188 194/194/194 121/121/121 34/34/34
f 120/120/120 121/121/121 194/194/194 195/195/195
f 195/195/195 194/194/194 123/123/123 122/122/122
f 9/9/9 2/2/2 196/196/196 197/197/197
f 197/197/197 196/196/196 145/145/145 144/144/144
f 152/152/152 145/145/145 196/196/196 198/198/198
f 198/198/198 196/196/196 2/2/2 1/1/1
f 28/28/28 31/31/31 199/199/199 200/200/200
f 200/200/200 199/199/199 160/160/160 161/161/161
f 159/159/159 160/160/160 199/199/199 201/201/201
f 201/201/201 199/199/199 31/31/31 33/33/33
f 170/170/170 202/202/202 203/203/203 169/169/169
f 169/169/169 203/203/203 204/204/204 168/168/168
f 68/68/68 204/204/204 203/203/203 66/66/66
f 66/66/66 203/203/203 202/202/202 63/63/63
f 168/168/168 204/204/204 205/205/205 173/173/173
f 173/173/173 205/205/205 200/200/200 161/161/161
f 28/28/28 200/200/200 205/205/205 103/103/103
f 103/103/103 205/205/205 204/204/204 68/68/68
f 1/1/1 110/110/110 206/206/206 198/198/198
f 198/198/198 206/206/206 174/174/174 152/152/152
f 170/170/170 174/174/174 206/206/206 202/202/202
f 202/202/202 206/206/206 110/110/110 63/63/63
f 159/159/159 201/201/201 207/207/207 182/182/182
f 182/182/182 207/207/207 208/208/208 181/181/181
f 119/119/119 208/208/208 207/207/207 117/117/117
f 117/117/117 207/207/207 201/201/201 33/33/33
f 97/97/97 142/142/142 209/209/209 140/140/140
f 140/140/140 209/209/209 132/132/132 81/81/81
f 24/24/24 132/132/132 209/209/209 22/22/22
f 22/22/22 209/209/209 142/142/142 19/19/19
f 149/149/149 148/148/148 210/210/210 211/211/211
f 211/211/211 210/210/210 212/212/212 213/213/213
f 214/214/214 212/212/212 210/210/210 215/215/215
f 215/215/215 210/210/210 148/148/148 150/150/150
f 216/216/216 217/217/217 218/218/218 219/219/219
f 219/219/219 218/218/218 220/220/220 221/221/221
f 158/158/158 220/220/220 218/218/218 156/156/156
f 156/156/156 218/218/218 217/217/217 153/153/153
f 162/162/162 165/165/165 222/222/222 223/223/223
f 223/223/223 222/222/222 224/224/224 225/225/225
f 226/226/226 224/224/224 222/222/222 227/227/227
f 227/227/227 222/222/222 165/165/165 167/167/167
f 226/226/226 227/227/227 228/228/228 229/229/229
f 229/229/229 228/228/228 217/217/217 216/216/216
f 153/153/153 217/217/217 228/228/228 172/172/172
f 172/172/172 228/228/228 227/227/227 167/167/167
f 150/150/150 176/176/176 230/230/230 215/215/215
f 215/215/215 230/230/230 231/231/231 214/214/214
f 225/225/225 231/231/231 230/230/230 223/223/223
f 223/223/223 230/230/230 176/176/176 162/162/162
f 221/221/221 220/220/220 232/232/232 233/233/233
f 233/233/233 232/232/232 234/234/234 235/235/235
f 180/180/180 234/234/234 232/232/232 178/178/178
f 178/178/178 232/232/232 220/220/220 158/158/158
