# Blender 4.5.3 LTS
# www.blender.org
o Decal-L1
v -19.581664 -22.578248 47.643967
v -51.506153 -17.686146 42.975865
v -35.721607 -22.466650 50.354831
v -22.779920 -22.579068 47.631852
v -53.430322 -15.108748 40.818922
v -25.903433 -22.578077 49.077660
v -23.986346 -22.578665 47.779791
v -38.579646 -22.231465 49.825556
v -54.000328 -13.737636 40.061533
v -33.435675 -22.579202 50.651126
v -21.407402 -22.578624 47.643915
v -28.934668 -22.579928 50.781146
v -23.376330 -22.579276 47.629267
v -25.397609 -22.578211 48.698276
v -27.224424 -22.577730 50.362438
v -27.648675 -22.577917 50.689958
v -41.715971 -21.799190 48.970453
v -47.622155 -20.143060 46.117917
v -31.534161 -22.581985 50.777480
v -24.892428 -22.578282 48.341066
v -26.767732 -22.577790 49.869418
v -28.453221 -22.579243 50.774209
v -20.172245 -22.578386 47.664635
v -27.333171 -14.815339 50.317943
v -44.823437 -21.095744 47.678314
v -49.846823 -18.963853 44.505417
v -26.365533 -22.577887 49.479619
v -52.665192 -16.405011 41.765280
v -27.974415 -22.578527 50.765775
v -19.681445 -22.578282 47.670483
v -24.428285 -22.578408 48.028104
v -19.583642 -14.666336 47.643520
v -23.133888 -14.669022 47.697194
v -24.404726 -14.686218 47.946721
v -25.279719 -14.694775 48.507348
v -26.190576 -14.684735 49.189523
v -26.928582 -14.674561 49.878344
v -27.714557 -14.657681 50.552733
v -30.182528 -14.500560 50.880134
v -32.852735 -14.246473 50.786383
v -35.263728 -13.891617 50.495095
v -38.218866 -13.252085 49.983084
v -28.473676 -14.612233 50.738692
v -20.222991 -14.666641 47.688983
v -19.689814 -14.820533 47.673046
v -26.597033 -14.827950 49.565211
v -28.014931 -14.789482 50.711147
v -31.544647 -14.540383 50.901845
v -24.842451 -14.844099 48.226654
v -25.743821 -14.841175 48.872016
v -23.775031 -14.829850 47.777019
v -36.884892 -13.762468 50.288297
v -39.761829 -12.887163 49.643546
v -34.154995 -14.244148 50.689690
v -28.957148 -14.733200 50.821908
v -21.604440 -14.821699 47.714963
v -25.741478 -14.690915 48.846751
v -31.489394 -14.387050 50.869957
v -27.332812 -14.667825 50.285645
v -20.222939 -14.820865 47.690757
v -19.689859 -14.666321 47.672577
v -19.583595 -14.820544 47.643721
v -26.928847 -14.821949 49.908295
v -26.594606 -14.679788 49.535535
v -26.192808 -14.834309 49.216427
v -28.473764 -14.762302 50.770640
v -28.014707 -14.641022 50.678231
v -27.714870 -14.805504 50.584569
v -32.932951 -14.400029 50.814912
v -30.215095 -14.652771 50.913617
v -25.281740 -14.845366 48.531800
v -24.840932 -14.692454 48.203908
v -24.406004 -14.838899 47.966361
v -23.774118 -14.675914 47.746360
v -23.134411 -14.823431 47.718771
v -38.403011 -13.385551 49.983546
v -36.724563 -13.618769 50.263554
v -35.398363 -14.041016 50.530411
v -34.047722 -14.091933 50.664440
v -28.957100 -14.581775 50.789915
v -21.604373 -14.667442 47.709972
v -48.164251 -13.088322 45.914523
v -47.389633 -14.045751 46.372294
v -46.356081 -15.005036 46.961635
v -44.912088 -15.960464 47.699921
v -43.064865 -16.794497 48.565633
v -40.882620 -17.433854 49.396366
v -38.591917 -17.890217 50.063930
v -36.440327 -18.189815 50.440922
v -34.426357 -18.382934 50.746605
v -32.566088 -18.525479 50.937354
v -30.904026 -18.610631 51.006071
v -28.948075 -18.638783 50.947003
v -28.465438 -18.647657 50.913788
v -27.998177 -18.655000 50.877347
v -27.687471 -18.660617 50.765768
v -27.288237 -18.663888 50.475307
v -26.862194 -18.670136 50.020203
v -26.512004 -18.674178 49.658790
v -26.083727 -18.680835 49.278967
v -25.611577 -18.687079 48.912473
v -25.130001 -18.691210 48.559315
v -24.678555 -18.692496 48.244215
v -24.239193 -18.692577 47.976024
v -23.615091 -18.681912 47.848552
v -22.990509 -18.684915 47.776684
v -21.523411 -18.688822 47.707468
v -20.201770 -18.688118 47.687791
v -19.686145 -18.687831 47.674023
v -19.582587 -18.687668 47.644645
v -44.689796 -12.866461 47.951117
v -43.697990 -13.660302 48.375174
v -42.381636 -14.433695 48.937932
v -40.766518 -15.109504 49.523622
v -38.903917 -15.603764 50.063707
v -37.018194 -15.951575 50.452597
v -35.341519 -16.191033 50.672211
v -33.738322 -16.364326 50.875127
v -32.100248 -16.514921 51.013566
v -30.577048 -16.621900 51.053747
v -28.953851 -16.679713 50.969615
v -28.470731 -16.698581 50.924994
v -28.008600 -16.715450 50.875582
v -27.704506 -16.726588 50.750539
v -27.316230 -16.733003 50.475851
v -26.903630 -16.740656 50.041221
v -26.572443 -16.745771 49.691863
v -26.159045 -16.753456 49.324907
v -25.701550 -16.760869 48.966758
v -25.230925 -16.765656 48.617490
v -24.785741 -16.766249 48.303857
v -24.347779 -16.764539 48.031531
v -23.718071 -16.751295 47.897845
v -23.082006 -16.752200 47.807157
v -21.574223 -16.755438 47.727674
v -20.214827 -16.754536 47.695182
v -19.688294 -16.754193 47.674842
v -19.583075 -16.754108 47.644645
v -51.393128 -12.879985 43.130338
v -50.811089 -14.087761 43.642133
v -50.029556 -15.236018 44.278867
v -48.936761 -16.366570 45.096040
v -47.386835 -17.463843 46.185382
v -45.350350 -18.474033 47.368415
v -42.858134 -19.268396 48.548311
v -40.159146 -19.845886 49.525462
v -37.516414 -20.209084 50.146334
v -35.081896 -20.423250 50.562337
v -33.006831 -20.551768 50.805859
v -31.221482 -20.609488 50.903387
v -28.941526 -20.605059 50.874621
v -28.459459 -20.603829 50.854251
v -27.986541 -20.601743 50.831646
v -27.668496 -20.601155 50.737187
v -27.257006 -20.601717 50.428644
v -26.815948 -20.605756 49.954310
v -26.440957 -20.609079 49.579061
v -25.996109 -20.613911 49.187854
v -25.507505 -20.618325 48.814557
v -25.014267 -20.621265 48.459068
v -24.556478 -20.622635 48.144586
v -24.115781 -20.623384 47.885314
v -23.498436 -20.619085 47.749430
v -22.887566 -20.620687 47.711626
v -21.466649 -20.622256 47.677733
v -20.187303 -20.621667 47.676928
v -19.683826 -20.621462 47.672428
v -19.582116 -20.621224 47.644362
v -53.808871 -13.664133 40.309861
v -53.241654 -15.014528 41.054599
v -52.472497 -16.318159 41.962847
v -51.315735 -17.573493 43.153264
v -49.656245 -18.848622 44.634320
v -47.445628 -20.014065 46.213642
v -44.672157 -20.954496 47.749109
v -41.595339 -21.648551 49.013466
v -38.497313 -22.075312 49.850389
v -35.672105 -22.308798 50.370879
v -33.402468 -22.422572 50.663091
v -31.509942 -22.429590 50.787203
v -28.935199 -22.427340 50.788380
v -28.453709 -22.426614 50.780386
v -27.975365 -22.425791 50.770871
v -27.650255 -22.425180 50.693639
v -27.226969 -22.425049 50.367586
v -26.771448 -22.425422 49.875960
v -26.371346 -22.425761 49.487293
v -25.910569 -22.426308 49.086153
v -25.406086 -22.426778 48.707254
v -24.901834 -22.427065 48.350178
v -24.438153 -22.427284 48.037097
v -23.996231 -22.427579 47.787912
v -23.385664 -22.427817 47.638543
v -22.788233 -22.427754 47.638006
v -21.411975 -22.427463 47.646537
v -20.173409 -22.427195 47.665588
v -19.681630 -22.427072 47.670647
v -19.581697 -22.427024 47.643989
v -50.146903 -12.466332 44.378906
v -49.526080 -13.601015 44.825599
v -48.733576 -14.664645 45.335881
v -47.656897 -15.700756 46.028763
v -46.157024 -16.722037 46.947531
v -44.212702 -17.638909 47.970377
v -41.874352 -18.353751 48.988424
v -39.378855 -18.868933 49.808800
v -36.982144 -19.198456 50.301321
v -34.758791 -19.402118 50.661310
v -32.789971 -19.538217 50.878435
v -31.063824 -19.610168 50.961688
v -28.944886 -19.622077 50.916962
v -28.462517 -19.625859 50.889984
v -27.992482 -19.628448 50.860315
v -27.678187 -19.630914 50.756872
v -27.272961 -19.632899 50.457604
v -26.839572 -19.638090 49.992710
v -26.477647 -19.641849 49.624570
v -26.041276 -19.647634 49.238861
v -25.561105 -19.652998 48.868768
v -25.073773 -19.656545 48.514254
v -24.619169 -19.657871 48.199206
v -24.179145 -19.658247 47.934919
v -23.558264 -19.650834 47.805034
v -22.940314 -19.652969 47.748372
v -21.495707 -19.655572 47.693752
v -20.194697 -19.654894 47.682784
v -19.685005 -19.654641 47.673307
v -19.582353 -19.654444 47.644555
v -19.581906 -21.524126 47.644168
v -19.682727 -21.524275 47.671541
v -20.180362 -21.524435 47.671303
v -21.439345 -21.524860 47.662236
v -22.837971 -21.524253 47.675252
v -23.442133 -21.523511 47.694601
v -24.056104 -21.525523 47.837011
v -24.497402 -21.525001 48.091292
v -24.958140 -21.524208 48.405111
v -25.456878 -21.522595 48.761412
v -25.953408 -21.520159 49.137540
v -26.406213 -21.517465 49.533732
v -26.793704 -21.515629 49.915679
v -27.241989 -21.513415 50.398677
v -27.659378 -21.513195 50.715983
v -27.980954 -21.513806 50.801866
v -28.456588 -21.515266 50.817951
v -28.938376 -21.516246 50.832160
v -31.365617 -21.519632 50.846159
v -33.205054 -21.487170 50.735235
v -35.377546 -21.365957 50.467387
v -38.007322 -21.142120 49.999222
v -40.877319 -20.746885 49.268611
v -43.766967 -20.110490 48.155695
v -46.400010 -19.243108 46.810806
v -48.517107 -18.154459 45.413032
v -50.150658 -16.984960 44.176012
v -51.294441 -15.808715 43.198086
v -52.066486 -14.580099 42.423196
v -52.650678 -13.287289 41.788608
v -19.582824 -17.720895 47.644734
v -19.687285 -17.721014 47.674708
v -20.208827 -17.721338 47.692731
v -21.551014 -17.722221 47.721088
v -23.040419 -17.718727 47.804601
v -23.671470 -17.716816 47.891386
v -24.298851 -17.728960 48.016667
v -24.737525 -17.729746 48.288651
v -25.185800 -17.728759 48.603766
v -25.661648 -17.724214 48.955552
v -26.125818 -17.717252 49.318448
v -26.546040 -17.709894 49.692385
v -26.884639 -17.705178 50.047167
v -27.303410 -17.698036 50.492480
v -27.696700 -17.693115 50.774246
v -28.003824 -17.684792 50.893843
v -28.468321 -17.672793 50.937086
v -28.951221 -17.659006 50.976500
v -30.744559 -17.615491 51.049948
v -32.343156 -17.517899 50.995529
v -34.095514 -17.369529 50.830960
v -35.901195 -17.186453 50.579272
v -37.812355 -16.920639 50.295375
v -39.901591 -16.523676 49.779028
v -41.927989 -15.960129 49.085833
v -43.650928 -15.202644 48.318021
v -45.044757 -14.350889 47.696128
v -46.064600 -13.491055 47.193229
v -46.857893 -12.578314 46.806253
v -19.583325 -15.787332 47.644362
v -19.689179 -15.787369 47.674477
v -20.219877 -15.787719 47.695354
v -21.593464 -15.788591 47.727920
v -23.116063 -15.786564 47.786802
v -23.755810 -15.787816 47.871545
v -24.386997 -15.800731 48.023149
v -24.824231 -15.803734 48.292696
v -25.266403 -15.803779 48.603490
v -25.732265 -15.798996 48.949264
v -26.184267 -15.791482 49.301617
v -26.591950 -15.783875 49.660601
v -26.919513 -15.778372 50.005697
v -27.326961 -15.770660 50.428815
v -27.711061 -15.762703 50.697885
v -28.012603 -15.748942 50.826013
v -28.472702 -15.727070 50.880991
v -28.955990 -15.703087 50.929904
v -30.402887 -15.632374 51.021337
v -31.840134 -15.519233 50.995394
v -33.358651 -15.369986 50.882898
v -34.765086 -15.206018 50.723925
v -36.215696 -14.988565 50.556637
v -37.899944 -14.682827 50.252505
v -39.595044 -14.252594 49.829364
v -41.086319 -13.665771 49.341254
v -42.334030 -12.978488 48.902430
v -38.216080 -13.255996 50.008424
v -36.610830 -13.520980 50.258048
v -36.722510 -13.624353 50.289214
v -38.081090 -13.154709 49.989752
vn 0.0301 0.0032 0.9995
vn 0.1552 0.0014 0.9879
vn 0.1512 0.0020 0.9885
vn 0.0265 0.0117 0.9996
vn 0.2546 0.0003 0.9671
vn 0.1277 -0.0013 0.9918
vn 0.1211 0.0005 0.9926
vn 0.2515 0.0019 0.9679
vn 0.6291 -0.0131 0.7772
vn 0.6775 -0.0123 0.7355
vn 0.6758 -0.0116 0.7370
vn 0.6272 -0.0114 0.7787
vn 0.1129 0.0795 0.9904
vn 0.2569 0.0817 0.9630
vn 0.2634 0.1576 0.9517
vn 0.1235 0.1613 0.9791
vn -0.0663 0.1577 0.9853
vn -0.0865 0.0657 0.9941
vn -0.0402 0.0665 0.9970
vn -0.0235 0.1543 0.9877
vn 0.0262 0.0666 0.9974
vn 0.0404 0.1526 0.9875
vn 0.7132 0.1084 0.6925
vn 0.7207 0.0584 0.6908
vn 0.6926 0.0562 0.7191
vn 0.6859 0.1033 0.7203
vn 0.5843 0.0515 0.8099
vn 0.5488 0.0491 0.8345
vn 0.5414 0.0916 0.8358
vn 0.5803 0.0950 0.8088
vn 0.3873 0.0510 0.9206
vn 0.3977 0.1033 0.9117
vn 0.6370 0.0552 0.7689
vn 0.6042 0.0531 0.7950
vn 0.5996 0.0975 0.7943
vn 0.6304 0.1011 0.7696
vn 0.4816 0.1436 0.8646
vn 0.4827 0.0769 0.8724
vn 0.6478 0.0672 0.7589
vn 0.6407 0.1255 0.7575
vn 0.1818 0.0560 0.9817
vn 0.1869 0.1212 0.9749
vn 0.0785 0.0424 0.9960
vn 0.0521 0.0950 0.9941
vn -0.1878 0.1474 0.9711
vn -0.2484 0.0750 0.9658
vn -0.1911 0.0794 0.9784
vn -0.1385 0.1947 0.9710
vn -0.1371 0.0696 0.9881
vn -0.1060 0.1981 0.9744
vn -0.2416 0.1018 0.9650
vn -0.3031 0.0583 0.9512
vn -0.1094 0.0623 0.9920
vn -0.0895 0.1736 0.9807
vn 0.7159 -0.0111 0.6981
vn 0.6732 -0.0124 0.7393
vn 0.6747 -0.0107 0.7380
vn 0.7150 -0.0099 0.6991
vn 0.4346 -0.0204 0.9004
vn 0.1334 -0.0314 0.9906
vn 0.1261 -0.0298 0.9916
vn 0.4300 -0.0190 0.9026
vn 0.0844 0.0722 0.9938
vn 0.0951 0.1554 0.9833
vn 0.0277 0.0158 0.9995
vn 0.0136 0.0407 0.9991
vn 0.1515 0.0012 0.9885
vn 0.0245 0.0171 0.9996
vn 0.2668 -0.0062 0.9637
vn 0.2671 -0.0020 0.9637
vn 0.7089 0.1375 0.6918
vn 0.6779 0.1309 0.7234
vn 0.6245 0.1271 0.7706
vn 0.2691 0.2024 0.9416
vn 0.1274 0.2081 0.9698
vn 0.4821 0.1836 0.8567
vn -0.0524 0.2105 0.9762
vn -0.0115 0.2050 0.9787
vn 0.0504 0.2024 0.9780
vn 0.5765 0.1200 0.8082
vn 0.5342 0.1164 0.8373
vn 0.3961 0.1338 0.9084
vn 0.5959 0.1227 0.7936
vn 0.1820 0.1582 0.9705
vn 0.0388 0.1250 0.9914
vn -0.1270 0.2423 0.9618
vn -0.1082 0.2738 0.9557
vn -0.0903 0.2693 0.9588
vn -0.0773 0.2322 0.9696
vn 0.6431 0.1587 0.7491
vn 0.0992 0.2038 0.9740
vn 0.0065 0.0557 0.9984
vn 0.0213 -0.0062 0.9998
vn 0.0139 -0.0067 0.9999
vn 0.1525 -0.0017 0.9883
vn 0.1551 -0.0016 0.9879
vn 0.2793 -0.0003 0.9602
vn 0.2752 -0.0000 0.9614
vn 0.1552 -0.0010 0.9879
vn 0.6912 -0.0016 0.7226
vn 0.6386 -0.0035 0.7696
vn 0.6404 0.0070 0.7680
vn 0.6944 0.0087 0.7195
vn -0.5715 -0.0718 0.8174
vn -0.6413 -0.0620 0.7648
vn -0.6010 -0.0621 0.7969
vn -0.5497 -0.0656 0.8328
vn -0.5632 -0.0465 0.8250
vn -0.5118 -0.0547 0.8574
vn 0.2109 -0.0152 0.9774
vn 0.0735 -0.0236 0.9970
vn 0.0599 -0.0299 0.9978
vn 0.1909 -0.0213 0.9814
vn -0.1293 -0.0424 0.9907
vn -0.1382 -0.0467 0.9893
vn -0.0814 -0.0478 0.9955
vn -0.0742 -0.0422 0.9964
vn -0.0147 -0.0473 0.9988
vn -0.0069 -0.0412 0.9991
vn 0.7241 -0.0012 0.6897
vn 0.7221 -0.0050 0.6917
vn 0.6878 -0.0054 0.7259
vn 0.5475 -0.0047 0.8368
vn 0.5818 -0.0041 0.8133
vn 0.5788 -0.0078 0.8155
vn 0.5427 -0.0085 0.8399
vn 0.3659 -0.0184 0.9305
vn 0.3652 -0.0227 0.9306
vn 0.6022 -0.0045 0.7983
vn 0.6364 -0.0072 0.7713
vn 0.5991 -0.0083 0.8006
vn 0.6620 -0.0025 0.7495
vn 0.4683 -0.0067 0.8835
vn 0.4597 -0.0120 0.8880
vn 0.6653 -0.0066 0.7465
vn 0.1568 -0.0305 0.9872
vn 0.1476 -0.0362 0.9884
vn 0.0803 -0.0250 0.9965
vn 0.0628 -0.0301 0.9976
vn -0.4077 -0.0379 0.9123
vn -0.4429 -0.0373 0.8958
vn -0.3637 -0.0448 0.9304
vn -0.3305 -0.0514 0.9424
vn -0.2655 -0.0561 0.9625
vn -0.2353 -0.0606 0.9700
vn -0.5088 -0.0380 0.8600
vn -0.4632 -0.0431 0.8852
vn -0.1859 -0.0562 0.9810
vn -0.1674 -0.0552 0.9843
vn 0.7254 0.0093 0.6883
vn 0.6575 0.0096 0.7534
vn 0.4745 0.0082 0.8802
vn 0.2287 0.0022 0.9735
vn 0.0382 -0.0396 0.9985
vn 0.0490 -0.0333 0.9982
vn 0.0309 -0.0145 0.9994
vn 0.0223 -0.0167 0.9996
vn 0.0308 -0.0013 0.9995
vn 0.0272 -0.0044 0.9996
vn 0.1587 -0.0001 0.9873
vn -0.4490 -0.0459 0.8924
vn -0.4930 -0.0454 0.8689
vn -0.4534 -0.0407 0.8904
vn -0.4134 -0.0285 0.9101
vn 0.2461 0.0347 0.9686
vn 0.1005 0.0293 0.9945
vn 0.0871 -0.0052 0.9962
vn -0.1038 0.0112 0.9945
vn -0.1181 -0.0248 0.9927
vn -0.0655 -0.0237 0.9976
vn -0.0542 0.0126 0.9984
vn 0.0022 -0.0227 0.9997
vn 0.0133 0.0134 0.9998
vn 0.6950 0.0279 0.7185
vn 0.7248 0.0291 0.6884
vn 0.5521 0.0229 0.8335
vn 0.5856 0.0245 0.8102
vn 0.5845 0.0059 0.8114
vn 0.5514 0.0050 0.8342
vn 0.3751 0.0175 0.9268
vn 0.3701 -0.0058 0.9290
vn 0.6059 0.0251 0.7952
vn 0.6401 0.0264 0.7679
vn 0.6049 0.0059 0.7963
vn 0.6538 0.0327 0.7559
vn 0.4812 0.0361 0.8759
vn 0.1737 0.0142 0.9847
vn 0.1657 -0.0147 0.9861
vn 0.0938 0.0098 0.9955
vn 0.0926 -0.0126 0.9956
vn -0.3116 0.0137 0.9501
vn -0.3685 -0.0326 0.9290
vn -0.2895 -0.0371 0.9565
vn -0.2412 0.0095 0.9704
vn -0.2010 -0.0434 0.9786
vn -0.1676 -0.0022 0.9858
vn -0.4215 -0.0299 0.9063
vn -0.3675 0.0026 0.9300
vn -0.1480 -0.0376 0.9883
vn -0.1283 -0.0005 0.9917
vn 0.0604 -0.0147 0.9981
vn 0.0724 0.0205 0.9972
vn 0.0366 0.0011 0.9993
vn 0.0366 -0.0090 0.9993
vn 0.2754 0.0003 0.9613
vn 0.2712 0.0011 0.9625
vn 0.2723 -0.0003 0.9622
vn 0.2825 -0.0003 0.9593
vn 0.1429 -0.0018 0.9897
vn 0.6841 -0.0100 0.7293
vn 0.6339 -0.0118 0.7733
vn 0.6683 -0.0117 0.7438
vn 0.7198 -0.0097 0.6941
vn 0.1698 -0.0287 0.9851
vn 0.4503 -0.0185 0.8927
vn 0.0054 -0.0074 1.0000
vn -0.0035 -0.0082 1.0000
vn 0.1307 -0.0024 0.9914
vn -0.6786 -0.0285 0.7340
vn -0.7273 -0.0060 0.6863
vn -0.6855 -0.0054 0.7281
vn -0.6360 -0.0262 0.7713
vn -0.6317 0.0076 0.7752
vn -0.5934 -0.0136 0.8048
vn 0.0458 -0.0377 0.9982
vn 0.0321 -0.0406 0.9987
vn 0.1481 -0.0317 0.9885
vn -0.1460 -0.0533 0.9879
vn -0.1523 -0.0544 0.9868
vn -0.0932 -0.0574 0.9940
vn -0.0878 -0.0553 0.9946
vn -0.0277 -0.0577 0.9979
vn -0.0217 -0.0552 0.9982
vn 0.7176 -0.0115 0.6964
vn 0.6805 -0.0120 0.7327
vn 0.5374 -0.0131 0.8432
vn 0.5754 -0.0123 0.8178
vn 0.5721 -0.0143 0.8200
vn 0.5320 -0.0153 0.8466
vn 0.3653 -0.0279 0.9305
vn 0.3669 -0.0296 0.9298
vn 0.5958 -0.0129 0.8030
vn 0.6315 -0.0138 0.7752
vn 0.5925 -0.0150 0.8054
vn 0.4396 -0.0210 0.8980
vn 0.6707 -0.0134 0.7416
vn 0.1384 -0.0431 0.9894
vn 0.1296 -0.0460 0.9905
vn 0.0423 -0.0361 0.9985
vn 0.0200 -0.0393 0.9990
vn -0.7006 -0.0264 0.7131
vn -0.7504 -0.0072 0.6609
vn -0.4687 -0.0063 0.8833
vn -0.4968 0.0146 0.8677
vn -0.4079 -0.0012 0.9130
vn -0.3883 -0.0223 0.9213
vn -0.3077 -0.0301 0.9510
vn -0.2903 -0.0470 0.9558
vn -0.5722 0.0216 0.8198
vn -0.5407 -0.0023 0.8412
vn -0.2153 -0.0507 0.9752
vn -0.2027 -0.0568 0.9776
vn 0.0177 -0.0503 0.9986
vn 0.0277 -0.0475 0.9985
vn 0.0121 -0.0192 0.9997
vn 0.0009 -0.0207 0.9998
vn 0.2606 -0.0007 0.9654
vn -0.0102 -0.0070 0.9999
vn -0.0126 -0.0051 0.9999
vn -0.7650 0.0067 0.6440
vn -0.7756 0.0151 0.6310
vn -0.7394 0.0234 0.6729
vn -0.7242 0.0100 0.6895
vn -0.6875 0.0360 0.7253
vn -0.6693 0.0247 0.7426
vn 0.0219 -0.0399 0.9990
vn 0.0183 -0.0380 0.9991
vn -0.1566 -0.0515 0.9863
vn -0.1621 -0.0482 0.9856
vn -0.1020 -0.0537 0.9933
vn -0.0969 -0.0561 0.9937
vn -0.0368 -0.0561 0.9977
vn -0.0319 -0.0573 0.9978
vn 0.5270 -0.0160 0.8497
vn 0.5696 -0.0141 0.8218
vn 0.5683 -0.0130 0.8227
vn 0.5236 -0.0159 0.8518
vn 0.3664 -0.0296 0.9300
vn 0.3623 -0.0291 0.9316
vn 0.5899 -0.0137 0.8074
vn 0.5885 -0.0116 0.8084
vn 0.1210 -0.0460 0.9916
vn 0.1142 -0.0447 0.9925
vn 0.0016 -0.0391 0.9992
vn -0.0055 -0.0371 0.9993
vn -0.7822 0.0049 0.6230
vn -0.7877 0.0110 0.6160
vn -0.5141 0.0410 0.8568
vn -0.5331 0.0646 0.8436
vn -0.4488 0.0252 0.8933
vn -0.4250 0.0084 0.9052
vn -0.3450 -0.0126 0.9385
vn -0.3204 -0.0210 0.9471
vn -0.6209 0.0628 0.7814
vn -0.5939 0.0509 0.8030
vn -0.2361 -0.0383 0.9710
vn -0.2233 -0.0440 0.9738
vn 0.0074 -0.0474 0.9988
vn 0.0102 -0.0493 0.9987
vn -0.0082 -0.0195 0.9998
vn -0.0117 -0.0175 0.9998
vn -0.6822 -0.0519 0.7293
vn -0.5275 -0.0595 0.8475
vn -0.3467 0.0342 0.9373
vn -0.0875 0.3455 0.9343
vt 0.694700 0.897170
vt 0.694868 0.903494
vt 0.683744 0.903629
vt 0.683022 0.897534
vt 0.773950 0.905265
vt 0.773937 0.904023
vt 0.775748 0.904009
vt 0.775763 0.905244
vt 0.774162 0.824787
vt 0.774158 0.817495
vt 0.775978 0.817607
vt 0.775978 0.824917
vt 0.694203 0.786109
vt 0.694534 0.791651
vt 0.683004 0.792037
vt 0.682600 0.786398
vt 0.678391 0.732291
vt 0.690108 0.727348
vt 0.691760 0.745634
vt 0.679958 0.749095
vt 0.693040 0.762891
vt 0.681251 0.765185
vt 0.683170 0.808668
vt 0.694659 0.808221
vt 0.694641 0.813930
vt 0.683154 0.814435
vt 0.694759 0.834304
vt 0.694715 0.840797
vt 0.683192 0.840900
vt 0.683253 0.834518
vt 0.694631 0.846971
vt 0.683074 0.846953
vt 0.694681 0.820453
vt 0.694737 0.827336
vt 0.683237 0.827653
vt 0.683183 0.820863
vt 0.683171 0.796012
vt 0.694685 0.795571
vt 0.694701 0.801182
vt 0.683222 0.801685
vt 0.694478 0.854774
vt 0.682938 0.854797
vt 0.694477 0.862528
vt 0.682911 0.862466
vt 0.667053 0.665378
vt 0.677788 0.651223
vt 0.682581 0.672243
vt 0.671255 0.684131
vt 0.685940 0.692805
vt 0.674373 0.702332
vt 0.661424 0.648377
vt 0.671116 0.632290
vt 0.688310 0.710346
vt 0.676652 0.717461
vt 0.774153 0.810827
vt 0.774138 0.802805
vt 0.775965 0.802866
vt 0.775977 0.810912
vt 0.774137 0.796401
vt 0.774166 0.792393
vt 0.775994 0.792426
vt 0.775965 0.796440
vt 0.693879 0.780289
vt 0.682225 0.780476
vt 0.694538 0.880795
vt 0.682947 0.880814
vt 0.681947 0.903864
vt 0.681125 0.897705
vt 0.682138 0.905140
vt 0.683906 0.904874
vt 0.681385 0.808896
vt 0.681362 0.814679
vt 0.681377 0.821076
vt 0.681190 0.792149
vt 0.680768 0.786461
vt 0.681365 0.796183
vt 0.676502 0.733216
vt 0.678077 0.749741
vt 0.679389 0.765590
vt 0.681436 0.834695
vt 0.681364 0.841045
vt 0.681235 0.847045
vt 0.681424 0.827848
vt 0.681062 0.854879
vt 0.681044 0.862490
vt 0.665366 0.667523
vt 0.669417 0.685970
vt 0.672468 0.703869
vt 0.674770 0.718697
vt 0.681431 0.801912
vt 0.680373 0.780513
vt 0.681096 0.880827
vt 0.729238 0.897434
vt 0.740769 0.897617
vt 0.740722 0.903716
vt 0.729201 0.903608
vt 0.729191 0.904896
vt 0.717701 0.904821
vt 0.717707 0.903521
vt 0.729262 0.814999
vt 0.729315 0.821840
vt 0.717769 0.821119
vt 0.717722 0.814392
vt 0.666489 0.537630
vt 0.673312 0.516968
vt 0.685713 0.528632
vt 0.677649 0.548708
vt 0.697667 0.544337
vt 0.688752 0.563246
vt 0.729118 0.791707
vt 0.729056 0.786112
vt 0.740732 0.786226
vt 0.740724 0.791848
vt 0.726331 0.714784
vt 0.738589 0.710846
vt 0.739984 0.734519
vt 0.727827 0.737133
vt 0.740700 0.755159
vt 0.728719 0.756995
vt 0.729240 0.808988
vt 0.740810 0.809400
vt 0.740842 0.815567
vt 0.729412 0.842723
vt 0.729401 0.836134
vt 0.740983 0.836978
vt 0.741004 0.843592
vt 0.729419 0.848884
vt 0.741021 0.849733
vt 0.729367 0.828988
vt 0.740896 0.822526
vt 0.740947 0.829772
vt 0.729197 0.801544
vt 0.729177 0.795649
vt 0.740742 0.795797
vt 0.740758 0.801811
vt 0.729273 0.856509
vt 0.740912 0.857322
vt 0.729285 0.864036
vt 0.740897 0.864747
vt 0.709113 0.607561
vt 0.719601 0.592346
vt 0.727453 0.623058
vt 0.716171 0.635640
vt 0.732992 0.654592
vt 0.721100 0.664262
vt 0.709296 0.565759
vt 0.699709 0.582928
vt 0.736497 0.683902
vt 0.724323 0.690419
vt 0.717711 0.808536
vt 0.717687 0.801246
vt 0.717662 0.795484
vt 0.717571 0.791560
vt 0.740720 0.780460
vt 0.728969 0.780341
vt 0.729285 0.881617
vt 0.740848 0.882045
vt 0.706218 0.897180
vt 0.717722 0.897281
vt 0.706247 0.903487
vt 0.662567 0.585801
vt 0.670510 0.567191
vt 0.680469 0.581043
vt 0.671774 0.598913
vt 0.706046 0.791541
vt 0.705811 0.786002
vt 0.717428 0.786007
vt 0.702060 0.722907
vt 0.714142 0.718710
vt 0.715733 0.739747
vt 0.703704 0.742587
vt 0.716791 0.758841
vt 0.704893 0.760808
vt 0.706174 0.814049
vt 0.706181 0.808293
vt 0.706268 0.841208
vt 0.706293 0.834667
vt 0.717850 0.835267
vt 0.717844 0.841841
vt 0.706220 0.847405
vt 0.717827 0.848035
vt 0.706269 0.827633
vt 0.706214 0.820667
vt 0.717821 0.828174
vt 0.706190 0.801134
vt 0.706170 0.795460
vt 0.706060 0.855140
vt 0.717668 0.855714
vt 0.706073 0.862856
vt 0.717683 0.863356
vt 0.688317 0.636927
vt 0.698789 0.622283
vt 0.705020 0.647998
vt 0.693802 0.660209
vt 0.709331 0.673779
vt 0.697599 0.683289
vt 0.690243 0.599528
vt 0.680652 0.616230
vt 0.712206 0.696902
vt 0.700196 0.703550
vt 0.717260 0.780240
vt 0.705561 0.780220
vt 0.706140 0.880941
vt 0.717718 0.881222
vt 0.706247 0.904797
vt 0.694878 0.904811
vt 0.752256 0.905105
vt 0.740709 0.904992
vt 0.752270 0.903842
vt 0.752418 0.816216
vt 0.752468 0.823293
vt 0.752330 0.802138
vt 0.752382 0.809877
vt 0.752344 0.792026
vt 0.752324 0.795992
vt 0.752317 0.897817
vt 0.763109 0.897996
vt 0.763083 0.903960
vt 0.679891 0.496270
vt 0.686551 0.475546
vt 0.700751 0.489165
vt 0.693210 0.508833
vt 0.714197 0.507632
vt 0.706210 0.525617
vt 0.752421 0.786368
vt 0.763327 0.786508
vt 0.763252 0.792203
vt 0.750874 0.706999
vt 0.762215 0.703473
vt 0.763390 0.729657
vt 0.752156 0.731982
vt 0.763608 0.751697
vt 0.752688 0.753352
vt 0.763267 0.810340
vt 0.763289 0.816842
vt 0.752577 0.844536
vt 0.752549 0.837901
vt 0.763366 0.838778
vt 0.763390 0.845427
vt 0.752603 0.850644
vt 0.763416 0.851502
vt 0.752513 0.830638
vt 0.763317 0.824029
vt 0.763342 0.831464
vt 0.763226 0.796187
vt 0.763231 0.802460
vt 0.752533 0.858197
vt 0.763379 0.859020
vt 0.752497 0.865512
vt 0.763319 0.866233
vt 0.665783 0.486449
vt 0.671496 0.464631
vt 0.729986 0.577207
vt 0.739568 0.563246
vt 0.749049 0.598837
vt 0.738695 0.610429
vt 0.755849 0.636017
vt 0.744882 0.644909
vt 0.727407 0.532564
vt 0.718661 0.548693
vt 0.759966 0.671506
vt 0.748699 0.677444
vt 0.763388 0.780739
vt 0.752480 0.780602
vt 0.752410 0.882507
vt 0.763204 0.882938
vt 0.763073 0.905210
vt 0.773897 0.898136
vt 0.775698 0.898147
vt 0.692586 0.454175
vt 0.693856 0.450611
vt 0.708771 0.465727
vt 0.707603 0.468984
vt 0.723314 0.486275
vt 0.721858 0.489337
vt 0.774239 0.786652
vt 0.776067 0.786677
vt 0.773557 0.699956
vt 0.775456 0.699365
vt 0.776505 0.726943
vt 0.774624 0.727334
vt 0.776357 0.749753
vt 0.774528 0.750033
vt 0.774194 0.846324
vt 0.774175 0.839667
vt 0.775984 0.839817
vt 0.776004 0.846474
vt 0.774219 0.852359
vt 0.776028 0.852500
vt 0.774165 0.832309
vt 0.775977 0.832453
vt 0.774214 0.859836
vt 0.776028 0.859969
vt 0.774135 0.866944
vt 0.775946 0.867059
vt 0.676902 0.442347
vt 0.677935 0.438634
vt 0.749200 0.549128
vt 0.750817 0.546778
vt 0.761180 0.585284
vt 0.759438 0.587235
vt 0.768666 0.625650
vt 0.766830 0.627141
vt 0.737702 0.513640
vt 0.736228 0.516339
vt 0.773124 0.664585
vt 0.771237 0.665579
vt 0.776130 0.780893
vt 0.774302 0.780873
vt 0.773999 0.883350
vt 0.775808 0.883418
vt 0.660033 0.507368
vt 0.659838 0.556378
vt 0.663231 0.616265
vt 0.555927 0.948769
vt 0.553314 0.947276
vt 0.578808 0.932230
vt 0.581829 0.933532
s 1
f 290/1/1 289/2/2 45/3/3 60/4/4
f 198/5/5 197/6/6 30/7/7 1/8/8
f 188/9/9 187/10/10 27/11/11 6/12/12
f 304/13/13 303/14/14 47/15/15 66/16/16
f 69/17/17 308/18/18 307/19/19 48/20/20
f 48/20/20 307/19/19 306/21/21 70/22/22
f 63/23/23 300/24/24 299/25/25 46/26/26
f 296/27/27 295/28/28 49/29/29 71/30/30
f 295/28/28 294/31/31 73/32/32 49/29/29
f 298/33/33 297/34/34 50/35/35 65/36/36
f 297/34/34 296/27/27 71/30/30 50/35/35
f 68/37/37 302/38/38 301/39/39 24/40/40
f 294/31/31 293/41/41 51/42/42 73/32/32
f 293/41/41 292/43/43 75/44/44 51/42/42
f 76/45/45 312/46/46 311/47/47 52/48/48
f 52/48/48 311/47/47 310/49/49 78/50/50
f 53/51/51 313/52/52 312/46/46 76/45/45
f 78/50/50 310/49/49 309/53/53 54/54/54
f 54/54/54 309/53/53 308/18/18 69/17/17
f 186/55/55 185/56/56 15/57/57 21/58/58
f 184/59/59 183/60/60 29/61/61 16/62/62
f 70/22/22 306/21/21 305/63/63 55/64/64
f 305/63/63 304/13/13 66/16/16 55/64/64
f 292/43/43 291/65/65 56/66/66 75/44/44
f 291/65/65 290/1/1 60/4/4 56/66/66
f 60/4/4 45/3/3 61/67/67 44/68/68
f 32/69/69 61/67/67 45/3/3 62/70/70
f 37/71/71 63/23/23 46/26/26 64/72/72
f 64/72/72 46/26/26 65/36/36 36/73/73
f 66/16/16 47/15/15 67/74/74 43/75/75
f 38/76/76 67/74/74 47/15/15 68/37/37
f 40/77/77 69/17/17 48/20/20 58/78/78
f 58/78/78 48/20/20 70/22/22 39/79/79
f 35/80/80 71/30/30 49/29/29 72/81/81
f 72/81/81 49/29/29 73/32/32 34/82/82
f 36/73/73 65/36/36 50/35/35 57/83/83
f 57/83/83 50/35/35 71/30/30 35/80/80
f 34/82/82 73/32/32 51/42/42 74/84/84
f 74/84/84 51/42/42 75/44/44 33/85/85
f 42/86/86 76/45/45 52/48/48 77/87/87
f 77/87/87 52/48/48 78/50/50 41/88/88
f 41/88/88 78/50/50 54/54/54 79/89/89
f 79/89/89 54/54/54 69/17/17 40/77/77
f 38/76/76 68/37/37 24/40/40 59/90/90
f 59/90/90 24/40/40 63/23/23 37/71/71
f 39/79/79 70/22/22 55/64/64 80/91/91
f 80/91/91 55/64/64 66/16/16 43/75/75
f 33/85/85 75/44/44 56/66/66 81/92/92
f 81/92/92 56/66/66 60/4/4 44/68/68
f 108/93/93 226/94/94 227/95/95 109/96/96
f 110/97/97 259/98/98 260/99/99 109/96/96
f 99/100/100 100/101/101 269/102/102 270/103/103
f 82/104/104 200/105/105 201/106/106 83/107/107
f 83/107/107 201/106/106 202/108/108 84/109/109
f 95/110/110 94/111/111 212/112/112 213/113/113
f 90/114/114 208/115/115 209/116/116 91/117/117
f 91/117/117 209/116/116 210/118/118 92/119/119
f 99/100/100 98/120/120 216/121/121 217/122/122
f 103/123/123 102/124/124 220/125/125 221/126/126
f 104/127/127 103/123/123 221/126/126 222/128/128
f 101/129/129 100/101/101 218/130/130 219/131/131
f 102/124/124 101/129/129 219/131/131 220/125/125
f 97/132/132 96/133/133 214/134/134 215/135/135
f 105/136/136 104/127/127 222/128/128 223/137/137
f 106/138/138 105/136/136 223/137/137 224/139/139
f 86/140/140 204/141/141 205/142/142 87/143/143
f 87/143/143 205/142/142 206/144/144 88/145/145
f 84/109/109 202/108/108 203/146/146 85/147/147
f 85/147/147 203/146/146 204/141/141 86/140/140
f 88/145/145 206/144/144 207/148/148 89/149/149
f 89/149/149 207/148/148 208/115/115 90/114/114
f 97/132/132 98/120/120 271/150/150 272/151/151
f 95/110/110 96/133/133 273/152/152 274/153/153
f 92/119/119 210/118/118 211/154/154 93/155/155
f 94/111/111 93/155/155 211/154/154 212/112/112
f 107/156/156 106/138/138 224/139/139 225/157/157
f 108/93/93 107/156/156 225/157/157 226/94/94
f 136/158/158 261/159/159 260/99/99 137/160/160
f 111/161/161 286/162/162 285/163/163 112/164/164
f 123/165/165 122/166/166 275/167/167 274/153/153
f 118/168/168 279/169/169 278/170/170 119/171/171
f 119/171/171 278/170/170 277/172/172 120/173/173
f 127/174/174 126/175/175 271/150/150 270/103/103
f 131/176/176 130/177/177 267/178/178 266/179/179
f 132/180/180 131/176/176 266/179/179 265/181/181
f 129/182/182 128/183/183 269/102/102 268/184/184
f 130/177/177 129/182/182 268/184/184 267/178/178
f 125/185/185 124/186/186 273/152/152 272/151/151
f 133/187/187 132/180/180 265/181/181 264/188/188
f 134/189/189 133/187/187 264/188/188 263/190/190
f 114/191/191 283/192/192 282/193/193 115/194/194
f 115/194/194 282/193/193 281/195/195 116/196/196
f 112/164/164 285/163/163 284/197/197 113/198/198
f 113/198/198 284/197/197 283/192/192 114/191/191
f 116/196/196 281/195/195 280/199/199 117/200/200
f 117/200/200 280/199/199 279/169/169 118/168/168
f 120/173/173 277/172/172 276/201/201 121/202/202
f 122/166/166 121/202/202 276/201/201 275/167/167
f 135/203/203 134/189/189 263/190/190 262/204/204
f 136/158/158 135/203/203 262/204/204 261/159/159
f 138/205/205 288/206/206 289/2/2 137/160/160
f 128/183/183 298/33/33 299/25/25 127/174/174
f 126/175/175 300/24/24 301/39/39 125/185/185
f 123/165/165 124/186/186 302/38/38 303/14/14
f 168/207/207 228/208/208 227/95/95 167/209/209
f 157/210/210 158/211/211 218/130/130 217/122/122
f 155/212/212 156/213/213 216/121/121 215/135/135
f 153/214/214 154/215/215 214/134/134 213/113/113
f 166/216/216 231/217/217 230/218/218 167/209/209
f 140/219/219 257/220/220 256/221/221 141/222/222
f 141/222/222 256/221/221 255/223/223 142/224/224
f 152/225/225 245/226/226 244/227/227 153/214/214
f 148/228/228 249/229/229 248/230/230 149/231/231
f 149/231/231 248/230/230 247/232/232 150/233/233
f 157/210/210 156/213/213 241/234/234 240/235/235
f 161/236/236 160/237/237 237/238/238 236/239/239
f 162/240/240 161/236/236 236/239/239 235/241/241
f 159/242/242 158/211/211 239/243/243 238/244/244
f 160/237/237 159/242/242 238/244/244 237/238/238
f 155/212/212 154/215/215 243/245/245 242/246/246
f 163/247/247 162/240/240 235/241/241 234/248/248
f 164/249/249 163/247/247 234/248/248 233/250/250
f 139/251/251 258/252/252 257/220/220 140/219/219
f 144/253/253 253/254/254 252/255/255 145/256/256
f 145/256/256 252/255/255 251/257/257 146/258/258
f 142/224/224 255/223/223 254/259/259 143/260/260
f 143/260/260 254/259/259 253/254/254 144/253/253
f 146/258/258 251/257/257 250/261/261 147/262/262
f 147/262/262 250/261/261 249/229/229 148/228/228
f 150/233/233 247/232/232 246/263/263 151/264/264
f 151/264/264 246/263/263 245/226/226 152/225/225
f 165/265/265 164/249/249 233/250/250 232/266/266
f 166/216/216 165/265/265 232/266/266 231/217/217
f 198/5/5 229/267/267 230/218/218 197/6/6
f 187/10/10 188/9/9 239/243/243 240/235/235
f 185/56/56 186/55/55 241/234/234 242/246/246
f 183/60/60 184/59/59 243/245/245 244/227/227
f 196/268/268 23/269/269 30/7/7 197/6/6
f 170/270/270 5/271/271 28/272/272 171/273/273
f 171/273/273 28/272/272 2/274/274 172/275/275
f 182/276/276 22/277/277 29/61/61 183/60/60
f 178/278/278 3/279/279 10/280/280 179/281/281
f 179/281/281 10/280/280 19/282/282 180/283/283
f 187/10/10 186/55/55 21/58/58 27/11/11
f 191/284/284 190/285/285 20/286/286 31/287/287
f 192/288/288 191/284/284 31/287/287 7/289/289
f 189/290/290 188/9/9 6/12/12 14/291/291
f 190/285/285 189/290/290 14/291/291 20/286/286
f 185/56/56 184/59/59 16/62/62 15/57/57
f 193/292/292 192/288/288 7/289/289 13/293/293
f 194/294/294 193/292/292 13/293/293 4/295/295
f 169/296/296 9/297/297 5/271/271 170/270/270
f 174/298/298 18/299/299 25/300/300 175/301/301
f 175/301/301 25/300/300 17/302/302 176/303/303
f 172/275/275 2/274/274 26/304/304 173/305/305
f 173/305/305 26/304/304 18/299/299 174/298/298
f 176/303/303 17/302/302 8/306/306 177/307/307
f 177/307/307 8/306/306 3/279/279 178/278/278
f 180/283/283 19/282/282 12/308/308 181/309/309
f 181/309/309 12/308/308 22/277/277 182/276/276
f 195/310/310 194/294/294 4/295/295 11/311/311
f 195/310/310 11/311/311 23/269/269 196/268/268
f 166/216/216 167/209/209 227/95/95 226/94/94
f 200/105/105 140/219/219 141/222/222 201/106/106
f 201/106/106 141/222/222 142/224/224 202/108/108
f 152/225/225 153/214/214 213/113/113 212/112/112
f 208/115/115 148/228/228 149/231/231 209/116/116
f 209/116/116 149/231/231 150/233/233 210/118/118
f 156/213/213 157/210/210 217/122/122 216/121/121
f 160/237/237 161/236/236 221/126/126 220/125/125
f 161/236/236 162/240/240 222/128/128 221/126/126
f 158/211/211 159/242/242 219/131/131 218/130/130
f 159/242/242 160/237/237 220/125/125 219/131/131
f 154/215/215 155/212/212 215/135/135 214/134/134
f 162/240/240 163/247/247 223/137/137 222/128/128
f 163/247/247 164/249/249 224/139/139 223/137/137
f 199/312/312 139/251/251 140/219/219 200/105/105
f 204/141/141 144/253/253 145/256/256 205/142/142
f 205/142/142 145/256/256 146/258/258 206/144/144
f 202/108/108 142/224/224 143/260/260 203/146/146
f 203/146/146 143/260/260 144/253/253 204/141/141
f 206/144/144 146/258/258 147/262/262 207/148/148
f 207/148/148 147/262/262 148/228/228 208/115/115
f 210/118/118 150/233/233 151/264/264 211/154/154
f 151/264/264 152/225/225 212/112/112 211/154/154
f 164/249/249 165/265/265 225/157/157 224/139/139
f 165/265/265 166/216/216 226/94/94 225/157/157
f 110/97/97 109/96/96 227/95/95 228/208/208
f 100/101/101 99/100/100 217/122/122 218/130/130
f 98/120/120 97/132/132 215/135/135 216/121/121
f 96/133/133 95/110/110 213/113/113 214/134/134
f 196/268/268 197/6/6 230/218/218 231/217/217
f 257/220/220 170/270/270 171/273/273 256/221/221
f 256/221/221 171/273/273 172/275/275 255/223/223
f 182/276/276 183/60/60 244/227/227 245/226/226
f 249/229/229 178/278/278 179/281/281 248/230/230
f 248/230/230 179/281/281 180/283/283 247/232/232
f 186/55/55 187/10/10 240/235/235 241/234/234
f 190/285/285 191/284/284 236/239/239 237/238/238
f 191/284/284 192/288/288 235/241/241 236/239/239
f 188/9/9 189/290/290 238/244/244 239/243/243
f 189/290/290 190/285/285 237/238/238 238/244/244
f 184/59/59 185/56/56 242/246/246 243/245/245
f 192/288/288 193/292/292 234/248/248 235/241/241
f 193/292/292 194/294/294 233/250/250 234/248/248
f 258/252/252 169/296/296 170/270/270 257/220/220
f 253/254/254 174/298/298 175/301/301 252/255/255
f 252/255/255 175/301/301 176/303/303 251/257/257
f 255/223/223 172/275/275 173/305/305 254/259/259
f 254/259/259 173/305/305 174/298/298 253/254/254
f 251/257/257 176/303/303 177/307/307 250/261/261
f 250/261/261 177/307/307 178/278/278 249/229/229
f 247/232/232 180/283/283 181/309/309 246/263/263
f 181/309/309 182/276/276 245/226/226 246/263/263
f 194/294/294 195/310/310 232/266/266 233/250/250
f 195/310/310 196/268/268 231/217/217 232/266/266
f 168/207/207 167/209/209 230/218/218 229/267/267
f 158/211/211 157/210/210 240/235/235 239/243/243
f 156/213/213 155/212/212 242/246/246 241/234/234
f 154/215/215 153/214/214 244/227/227 243/245/245
f 138/205/205 137/160/160 260/99/99 259/98/98
f 128/183/183 127/174/174 270/103/103 269/102/102
f 126/175/175 125/185/185 272/151/151 271/150/150
f 124/186/186 123/165/165 274/153/153 273/152/152
f 108/93/93 109/96/96 260/99/99 261/159/159
f 287/313/313 82/104/104 83/107/107 286/162/162
f 286/162/162 83/107/107 84/109/109 285/163/163
f 94/111/111 95/110/110 274/153/153 275/167/167
f 279/169/169 90/114/114 91/117/117 278/170/170
f 278/170/170 91/117/117 92/119/119 277/172/172
f 98/120/120 99/100/100 270/103/103 271/150/150
f 102/124/124 103/123/123 266/179/179 267/178/178
f 103/123/123 104/127/127 265/181/181 266/179/179
f 100/101/101 101/129/129 268/184/184 269/102/102
f 101/129/129 102/124/124 267/178/178 268/184/184
f 96/133/133 97/132/132 272/151/151 273/152/152
f 104/127/127 105/136/136 264/188/188 265/181/181
f 105/136/136 106/138/138 263/190/190 264/188/188
f 283/192/192 86/140/140 87/143/143 282/193/193
f 282/193/193 87/143/143 88/145/145 281/195/195
f 285/163/163 84/109/109 85/147/147 284/197/197
f 284/197/197 85/147/147 86/140/140 283/192/192
f 281/195/195 88/145/145 89/149/149 280/199/199
f 280/199/199 89/149/149 90/114/114 279/169/169
f 277/172/172 92/119/119 93/155/155 276/201/201
f 93/155/155 94/111/111 275/167/167 276/201/201
f 106/138/138 107/156/156 262/204/204 263/190/190
f 107/156/156 108/93/93 261/159/159 262/204/204
f 136/158/158 137/160/160 289/2/2 290/1/1
f 122/166/166 123/165/165 303/14/14 304/13/13
f 308/18/18 118/168/168 119/171/171 307/19/19
f 307/19/19 119/171/171 120/173/173 306/21/21
f 300/24/24 126/175/175 127/174/174 299/25/25
f 130/177/177 131/176/176 295/28/28 296/27/27
f 131/176/176 132/180/180 294/31/31 295/28/28
f 128/183/183 129/182/182 297/34/34 298/33/33
f 129/182/182 130/177/177 296/27/27 297/34/34
f 302/38/38 124/186/186 125/185/185 301/39/39
f 132/180/180 133/187/187 293/41/41 294/31/31
f 133/187/187 134/189/189 292/43/43 293/41/41
f 312/46/46 114/191/191 115/194/194 311/47/47
f 311/47/47 115/194/194 116/196/196 310/49/49
f 314/314/314 112/164/164 113/198/198 313/52/52
f 313/52/52 113/198/198 114/191/191 312/46/46
f 310/49/49 116/196/196 117/200/200 309/53/53
f 309/53/53 117/200/200 118/168/168 308/18/18
f 306/21/21 120/173/173 121/202/202 305/63/63
f 121/202/202 122/166/166 304/13/13 305/63/63
f 134/189/189 135/203/203 291/65/65 292/43/43
f 135/203/203 136/158/158 290/1/1 291/65/65
f 62/70/70 45/3/3 289/2/2 288/206/206
f 298/33/33 65/36/36 46/26/26 299/25/25
f 300/24/24 63/23/23 24/40/40 301/39/39
f 68/37/37 47/15/15 303/14/14 302/38/38
f 317/315/315 316/316/315 318/317/315 315/318/315
