# Blender 4.5.3 LTS
# www.blender.org
o DPadDown
v -23.920017 -26.726343 -7.132057
v -23.765032 -26.716452 -7.216347
v -23.933311 -26.694826 -7.156517
v -23.696539 -26.745510 -7.149906
v -23.493601 -26.752079 -7.153938
v -23.700308 -26.766424 -6.948261
v -23.610735 -26.737749 -7.359379
v -23.468636 -26.757921 -7.356731
v -23.575926 -26.768707 -7.702236
v -23.679728 -26.709867 -7.369633
v -23.642223 -26.734598 -7.702148
v -23.706305 -26.679224 -7.380821
v -23.788292 -26.686035 -7.237549
v -23.669279 -26.700172 -7.702499
v -23.721172 -26.650810 -7.386288
v -23.684019 -26.668230 -7.701607
v -23.801302 -26.657892 -7.248627
v -23.730190 -26.623493 -7.388885
v -23.809193 -26.630863 -7.254631
v -23.692678 -26.634876 -7.699554
v -23.745966 -26.567150 -7.392838
v -23.708151 -26.555834 -7.693073
v -23.748222 -26.534689 -7.391697
v -23.822998 -26.575150 -7.264553
v -23.824966 -26.543131 -7.264286
v -23.953144 -26.581453 -7.188316
v -23.954269 -26.548927 -7.188293
v -23.945257 -26.638308 -7.176502
v -23.940746 -26.665911 -7.169403
v -27.604595 -26.245291 -11.032677
v -25.052214 -26.423820 -8.484238
v -24.624920 -26.453733 -8.057224
v -24.246721 -26.480194 -7.679516
v -23.910048 -26.480215 -7.679089
v -24.246252 -26.503605 -7.345245
v -24.139885 -26.436747 -8.299652
v -24.437380 -26.428776 -8.413445
v -24.144741 -26.383026 -9.066422
v -23.903534 -26.438993 -8.267513
v -23.749197 -26.450069 -8.274849
v -23.911215 -26.380743 -9.098991
v -23.751120 -26.394060 -9.113865
v -24.023777 -26.084743 -13.324593
v -24.484121 -26.096380 -13.158375
v -23.779255 -26.106064 -13.376904
v -24.028250 -26.072762 -13.495567
v -23.780399 -26.094345 -13.550171
v -24.498188 -26.084755 -13.324291
v -24.038549 -26.060825 -13.666084
v -24.047743 -26.055788 -13.737946
v -24.522285 -26.073259 -13.488415
v -23.782953 -26.082912 -13.723423
v -23.785252 -26.078190 -13.798645
v -23.697754 -26.159538 -13.747383
v -23.697754 -26.156397 -13.823837
v -23.694738 -26.388100 -13.752251
v -23.697754 -26.168945 -13.573162
v -23.697754 -26.179487 -13.398998
v -23.694187 -26.397421 -13.575809
v -23.694283 -26.401711 -13.399010
v -23.672497 -27.358107 -13.567471
v -23.672472 -27.337456 -13.373657
v -23.665995 -27.585371 -13.579002
v -23.675137 -27.343304 -13.755863
v -23.667608 -27.570179 -13.771252
v -23.680235 -27.288322 -13.878395
v -23.671007 -27.506662 -13.903999
v -23.686455 -27.213989 -13.987442
v -23.695585 -26.378922 -13.835197
v -23.696623 -26.366808 -13.916260
v -23.697472 -26.352406 -14.010208
v -23.697754 -26.153240 -13.900288
v -23.697754 -26.149439 -13.992558
v -23.787550 -26.073467 -13.873875
v -23.790295 -26.067770 -13.964619
v -24.056932 -26.050758 -13.809803
v -24.559052 -26.063818 -13.623276
v -24.067905 -26.044693 -13.896343
v -24.082445 -26.036572 -14.012238
v -24.581001 -26.058138 -13.704269
v -24.610077 -26.050568 -13.812420
v -25.379984 -26.086113 -13.304955
v -25.423594 -26.079077 -13.405376
v -26.297173 -26.124510 -12.756893
v -25.347059 -26.091404 -13.229485
v -26.254375 -26.129389 -12.687187
v -25.319485 -26.095818 -13.166473
v -24.540672 -26.068539 -13.555851
v -26.218534 -26.133472 -12.628849
v -25.291912 -26.100233 -13.103458
v -26.182692 -26.137566 -12.570518
v -25.247492 -26.110933 -12.950657
v -25.213123 -26.121868 -12.794567
v -26.115921 -26.147264 -12.432045
v -26.942886 -26.189699 -11.826252
v -26.056335 -26.157221 -12.289890
v -24.716679 -26.380390 -9.104088
v -26.859324 -26.198473 -11.701080
v -24.822315 -26.406076 -8.737404
v -24.418415 -26.387285 -9.005684
v -27.029911 -26.181110 -11.948902
v -27.710228 -26.237900 -11.138142
v -27.815876 -26.230515 -11.243591
v -27.863632 -26.227173 -11.291229
v -27.911388 -26.223845 -11.338871
v -27.968401 -26.219854 -11.395748
v -28.043938 -26.214581 -11.471096
v -27.164883 -26.169224 -12.118572
v -27.231728 -26.163340 -12.202591
v -27.114429 -26.173662 -12.055145
v -27.072170 -26.177391 -12.002029
v -26.353859 -26.118029 -12.849350
v -27.299366 -26.145819 -12.286800
v -28.120378 -26.197666 -11.546543
v -26.411207 -26.099941 -12.942093
v -27.352207 -26.106510 -12.350784
v -28.180111 -26.158789 -11.603699
v -27.393057 -26.049278 -12.398361
v -26.455984 -26.060228 -13.012646
v -26.490601 -26.002687 -13.065296
v -25.502125 -26.020350 -13.582893
v -25.528740 -25.962528 -13.640221
v -24.657681 -25.990747 -14.006176
v -25.467707 -26.060442 -13.506191
v -24.638298 -26.031349 -13.921715
v -24.092421 -26.016678 -14.131260
v -23.789316 -26.042051 -14.213268
v -24.089714 -25.975288 -14.227165
v -24.075142 -25.916180 -14.303349
v -23.767330 -26.005005 -14.319260
v -23.659636 -26.110926 -14.355839
v -23.725870 -25.952343 -14.407227
v -23.602110 -26.079596 -14.450424
v -23.662859 -25.887379 -14.480007
v -23.507397 -25.638678 -14.547310
v -24.049534 -25.843100 -14.363182
v -23.505762 -26.040901 -14.534882
v -23.474091 -26.286968 -14.558334
v -23.345509 -26.007820 -14.612877
v -23.298244 -26.276691 -14.643196
v -23.096252 -25.993351 -14.688053
v -23.064777 -26.270178 -14.715393
v -22.708708 -25.987213 -14.775543
v -23.127729 -25.550179 -14.649067
v -22.716576 -25.543631 -14.742481
v -23.138220 -21.624947 -14.371460
v -22.719198 -21.618271 -14.466846
v -23.526129 -21.632204 -14.267979
v -24.018408 -21.642132 -14.126156
v -24.677837 -21.659966 -13.871536
v -24.026190 -25.525501 -14.383877
v -24.677181 -25.543144 -14.131924
v -25.562757 -25.573997 -13.691441
v -24.675241 -25.860174 -14.119221
v -24.669550 -25.932465 -14.070454
v -25.549446 -25.890686 -13.682930
v -26.517494 -25.931152 -13.104321
v -26.534756 -25.614674 -13.110432
v -27.424730 -25.978060 -12.433388
v -27.445049 -25.661840 -12.436916
v -28.262068 -26.031002 -11.676899
v -28.285011 -25.715008 -11.677761
v -28.226288 -26.101908 -11.645996
v -28.292654 -21.832157 -11.413441
v -27.451820 -21.778912 -12.173473
v -26.540514 -21.731676 -12.847858
v -25.567196 -21.690916 -13.429657
v -22.133581 -21.610031 -14.584415
v -22.133581 -25.535439 -14.859390
v -21.463400 -21.602362 -14.693966
v -21.463398 -25.527773 -14.968945
v -20.790699 -21.597361 -14.765320
v -20.790699 -25.522776 -15.040302
v -20.116739 -21.595531 -14.791443
v -19.442778 -21.597361 -14.765320
v -20.116739 -25.520950 -15.066429
v -19.442781 -25.522779 -15.040302
v -20.116739 -25.964661 -15.097515
v -19.442781 -25.966505 -15.071384
v -20.116739 -26.242054 -15.116947
v -20.790699 -25.966496 -15.071384
v -20.790699 -26.243885 -15.090820
v -21.463398 -25.971495 -15.000027
v -22.133581 -25.979166 -14.890469
v -21.463398 -26.248884 -15.019459
v -21.461700 -26.906618 -15.051025
v -22.133581 -26.256556 -14.909901
v -22.700838 -26.264471 -14.796951
v -22.131037 -26.914284 -14.941612
v -22.694956 -26.922140 -14.829453
v -22.123400 -27.150297 -14.915035
v -22.685184 -27.158121 -14.803307
v -22.115759 -27.326452 -14.868370
v -21.456600 -27.142658 -15.024036
v -21.451496 -27.318996 -14.976669
v -20.787296 -27.137680 -15.095028
v -20.784739 -27.314196 -15.047104
v -20.116739 -27.135862 -15.121029
v -20.789848 -26.901619 -15.122295
v -20.116739 -26.899794 -15.148388
v -19.443630 -26.901619 -15.122295
v -19.442781 -26.243891 -15.090820
v -18.771786 -26.906618 -15.051025
v -19.446180 -27.137680 -15.095028
v -19.448738 -27.314199 -15.047104
v -18.776878 -27.142662 -15.024036
v -18.781986 -27.319002 -14.976665
v -18.110085 -27.150297 -14.915039
v -18.117723 -27.326452 -14.868370
v -17.548300 -27.158125 -14.803310
v -18.102449 -26.914284 -14.941612
v -17.538521 -26.922140 -14.829453
v -18.099901 -26.256565 -14.909901
v -17.532644 -26.264477 -14.796951
v -18.099901 -25.979176 -14.890469
v -18.770084 -26.248888 -15.019459
v -18.770084 -25.971502 -15.000027
v -18.770082 -25.527781 -14.968945
v -18.099901 -25.535452 -14.859390
v -18.770075 -21.602362 -14.693966
v -18.099895 -21.610031 -14.584415
v -17.514280 -21.618271 -14.466846
v -17.516905 -25.543644 -14.742481
v -17.095264 -21.624947 -14.371460
v -17.105757 -25.550182 -14.649067
v -16.707359 -21.632204 -14.267979
v -16.726091 -25.638689 -14.547310
v -16.215078 -21.642132 -14.126156
v -16.207298 -25.525511 -14.383877
v -15.555648 -21.659966 -13.871536
v -15.556295 -25.543154 -14.131924
v -14.666286 -21.690922 -13.429657
v -14.670724 -25.574007 -13.691441
v -13.692966 -21.731682 -12.847855
v -13.698720 -25.614685 -13.110432
v -12.781662 -21.778923 -12.173470
v -12.788434 -25.661848 -12.436916
v -11.940831 -21.832165 -11.413429
v -11.948476 -25.715015 -11.677761
v -16.533178 -26.766424 -6.948261
v -16.536945 -26.745510 -7.149906
v -16.313471 -26.726355 -7.132050
v -16.300180 -26.694832 -7.156513
v -16.468458 -26.716452 -7.216347
v -16.280342 -26.581453 -7.188316
v -16.279213 -26.548927 -7.188293
v -16.285522 -26.520184 -7.231052
v -16.408518 -26.543131 -7.264286
v -16.385273 -26.522816 -7.285744
v -16.485262 -26.534689 -7.391697
v -16.410492 -26.575153 -7.264553
v -16.487514 -26.567150 -7.392838
v -16.424295 -26.630863 -7.254627
v -16.288235 -26.638308 -7.176495
v -16.432186 -26.657892 -7.248619
v -16.503292 -26.623493 -7.388882
v -16.512314 -26.650810 -7.386284
v -16.540810 -26.634876 -7.699554
v -16.549473 -26.668234 -7.701607
v -16.525331 -26.555834 -7.693069
v -16.552423 -26.683712 -8.306915
v -16.552158 -26.774220 -9.158958
v -16.560015 -26.733713 -8.313797
v -16.537853 -26.539593 -8.285160
v -16.535730 -26.484528 -8.279449
v -16.537867 -26.517744 -9.129002
v -16.535730 -26.436632 -9.121479
v -16.539200 -26.401711 -13.399010
v -16.535730 -26.179493 -13.398998
v -16.561007 -27.337456 -13.373657
v -16.539291 -26.397421 -13.575809
v -16.535730 -26.168945 -13.573162
v -16.560982 -27.358107 -13.567471
v -16.538744 -26.388100 -13.752251
v -16.537897 -26.378931 -13.835197
v -16.535730 -26.159538 -13.747383
v -16.558342 -27.343311 -13.755863
v -16.553247 -27.288326 -13.878395
v -16.565870 -27.570185 -13.771252
v -16.562475 -27.506666 -13.903999
v -16.579979 -27.672197 -13.800266
v -16.567484 -27.585371 -13.579002
v -16.580307 -27.687176 -13.603500
v -16.567411 -27.560692 -13.380825
v -16.558670 -26.850904 -9.169022
v -16.580084 -27.661366 -13.401093
v -16.572515 -26.903868 -9.176842
v -16.610281 -27.761681 -13.428894
v -16.602392 -26.960157 -9.185509
v -16.678299 -27.851843 -13.463825
v -16.610432 -27.789461 -13.639519
v -16.610277 -27.774935 -13.844711
v -16.678299 -27.881701 -13.683983
v -16.804398 -27.953348 -13.733833
v -16.677938 -27.867765 -13.898937
v -16.677309 -27.791637 -14.073269
v -16.804138 -27.940041 -13.957329
v -16.803720 -27.859739 -14.149014
v -16.983057 -27.985502 -14.017399
v -16.982952 -27.902544 -14.222130
v -17.208862 -27.997911 -14.076687
v -16.983120 -27.998379 -13.787529
v -17.208862 -28.010735 -13.843494
v -16.983130 -27.966105 -13.553036
v -17.208862 -27.978214 -13.605732
v -16.982008 -27.088175 -9.221050
v -16.804428 -27.921982 -13.505466
v -16.799950 -27.058344 -9.207531
v -16.798990 -26.900391 -8.336990
v -16.670729 -27.013678 -9.195564
v -16.669641 -26.861847 -8.330132
v -16.657558 -26.768707 -7.702229
v -16.602837 -26.818642 -8.324142
v -16.591263 -26.734598 -7.702148
v -16.574364 -26.774641 -8.318771
v -16.564213 -26.700178 -7.702499
v -16.527185 -26.679230 -7.380821
v -16.553764 -26.709867 -7.369633
v -16.445198 -26.686037 -7.237545
v -16.622749 -26.737749 -7.359379
v -16.764851 -26.757921 -7.356728
v -16.790028 -26.799711 -7.704422
v -16.739889 -26.752079 -7.153931
v -16.961475 -26.770103 -7.357574
v -16.946415 -26.755123 -7.154152
v -16.976587 -26.821674 -7.707302
v -17.194025 -26.774012 -7.357853
v -17.205151 -26.828648 -7.709446
v -17.182899 -26.756105 -7.154221
v -17.548912 -26.773722 -7.357841
v -17.558661 -26.828014 -7.711670
v -18.112541 -26.773342 -7.357811
v -17.539146 -26.756033 -7.154217
v -18.104950 -26.755936 -7.154213
v -17.535892 -26.759262 -6.956104
v -17.535892 -26.773926 -6.746792
v -17.179193 -26.759262 -6.956104
v -18.102421 -26.759262 -6.956097
v -18.102421 -26.773920 -6.746792
v -18.773863 -26.759262 -6.956104
v -18.775536 -26.755844 -7.154202
v -19.445303 -26.759262 -6.956104
v -18.773861 -26.773926 -6.746792
v -19.445303 -26.773926 -6.746792
v -18.773863 -26.790543 -6.509571
v -18.773861 -26.815456 -6.153740
v -18.102421 -26.790543 -6.509571
v -19.445303 -26.790543 -6.509567
v -20.116745 -26.790543 -6.509571
v -19.445303 -26.815466 -6.153740
v -20.116745 -26.815466 -6.153740
v -19.445303 -26.855053 -5.588596
v -20.116745 -26.855053 -5.588596
v -19.445303 -26.901966 -4.918808
v -18.773863 -26.855053 -5.588596
v -18.773861 -26.901970 -4.918808
v -18.102421 -26.855053 -5.588596
v -17.535892 -26.855053 -5.588596
v -18.102421 -26.815466 -6.153740
v -18.102421 -26.901970 -4.918808
v -19.445303 -26.995808 -3.579201
v -20.116745 -26.995802 -3.579201
v -20.788187 -26.995808 -3.579201
v -21.459623 -26.948881 -4.249001
v -22.131067 -26.901966 -4.918808
v -21.459620 -26.901960 -4.918804
v -22.131067 -26.855043 -5.588596
v -22.131067 -26.815456 -6.153740
v -22.697598 -26.855043 -5.588596
v -21.459623 -26.855049 -5.588596
v -20.788187 -26.855049 -5.588596
v -21.459623 -26.815456 -6.153740
v -20.788187 -26.815466 -6.153740
v -21.459623 -26.790543 -6.509571
v -21.459620 -26.773920 -6.746792
v -22.131067 -26.790533 -6.509567
v -20.788187 -26.790543 -6.509571
v -20.788187 -26.773920 -6.746792
v -20.116745 -26.773920 -6.746792
v -20.788187 -26.759262 -6.956097
v -20.116745 -26.759262 -6.956104
v -21.459620 -26.759262 -6.956104
v -20.787346 -26.755791 -7.154198
v -21.457945 -26.755844 -7.154202
v -20.116745 -26.755774 -7.154198
v -20.784843 -26.772768 -7.357761
v -20.116745 -26.772696 -7.357761
v -20.782408 -26.825836 -7.719456
v -21.452919 -26.772982 -7.357780
v -21.447987 -26.826323 -7.717690
v -22.120941 -26.773342 -7.357811
v -22.113419 -26.827145 -7.714752
v -22.128531 -26.755936 -7.154213
v -22.684568 -26.773716 -7.357841
v -22.694330 -26.756033 -7.154217
v -22.674822 -26.828012 -7.711670
v -23.039461 -26.774006 -7.357857
v -23.028336 -26.828646 -7.709457
v -23.272013 -26.770103 -7.357582
v -23.050587 -26.756105 -7.154221
v -23.287077 -26.755123 -7.154160
v -23.054296 -26.759262 -6.956097
v -23.054296 -26.773920 -6.746792
v -22.697590 -26.759262 -6.956104
v -23.292099 -26.759262 -6.956104
v -23.292099 -26.773920 -6.746792
v -23.501925 -26.759262 -6.956104
v -23.501925 -26.773920 -6.746792
v -23.292099 -26.790533 -6.509571
v -23.054298 -26.790533 -6.509571
v -23.054300 -26.815456 -6.153740
v -22.697596 -26.790533 -6.509571
v -22.697598 -26.815453 -6.153740
v -22.697588 -26.773920 -6.746792
v -22.131063 -26.773920 -6.746792
v -22.131063 -26.759262 -6.956104
v -23.256895 -26.821671 -7.707314
v -23.251717 -26.927319 -8.344257
v -23.443457 -26.799711 -7.704433
v -23.434496 -26.900391 -8.336990
v -23.563843 -26.861843 -8.330132
v -23.433538 -27.058348 -9.207531
v -23.562759 -27.013678 -9.195564
v -23.251476 -27.088165 -9.221050
v -23.429058 -27.921976 -13.505466
v -23.555182 -27.851837 -13.463825
v -23.250357 -27.966105 -13.553036
v -23.429092 -27.953348 -13.733829
v -23.250364 -27.998379 -13.787529
v -23.429344 -27.940027 -13.957325
v -23.555183 -27.881695 -13.683979
v -23.623051 -27.789454 -13.639515
v -23.555548 -27.867750 -13.898933
v -23.556177 -27.791618 -14.073269
v -23.623205 -27.774925 -13.844707
v -23.623625 -27.704214 -14.000977
v -23.653494 -27.672190 -13.800266
v -23.654449 -27.606291 -13.941452
v -23.653168 -27.687172 -13.603500
v -23.653397 -27.661356 -13.401093
v -23.666069 -27.560692 -13.380825
v -23.660978 -26.903864 -9.176842
v -23.623199 -27.761681 -13.428894
v -23.631098 -26.960152 -9.185509
v -23.630653 -26.818638 -8.324142
v -23.659130 -26.774630 -8.318771
v -23.673473 -26.733704 -8.313797
v -23.681065 -26.683712 -8.306915
v -23.674818 -26.850904 -9.169022
v -23.681332 -26.774216 -9.158955
v -23.695618 -26.517738 -9.128998
v -23.697754 -26.436628 -9.121479
v -23.695629 -26.539593 -8.285160
v -23.697754 -26.484522 -8.279449
v -23.710371 -26.517271 -7.690189
v -23.760286 -26.489182 -7.686092
v -23.793423 -26.509508 -7.383602
v -23.848211 -26.522816 -7.285744
v -23.929037 -26.502285 -7.364128
v -23.947964 -26.520184 -7.231052
v -23.655399 -27.521896 -14.061577
v -23.623262 -27.606764 -14.124489
v -23.659771 -27.424017 -14.163685
v -23.675152 -27.424316 -14.020432
v -23.680799 -27.327518 -14.123955
v -23.688713 -27.220636 -14.217987
v -23.692106 -27.125959 -14.090336
v -23.695494 -27.029835 -14.194408
v -23.687355 -26.953262 -14.297184
v -23.697754 -26.336321 -14.131790
v -23.688175 -26.321091 -14.258339
v -23.697754 -26.144327 -14.116470
v -23.688227 -26.133108 -14.246178
v -23.793928 -26.060135 -14.086403
v -23.659439 -26.309273 -14.367168
v -23.658409 -26.923836 -14.396183
v -23.593943 -26.298641 -14.464939
v -23.589273 -26.921217 -14.493198
v -23.582039 -27.138924 -14.485481
v -23.460560 -26.925060 -14.590050
v -23.278809 -26.929255 -14.678417
v -23.450705 -27.153582 -14.573555
v -23.267527 -27.163343 -14.655029
v -23.439686 -27.322325 -14.534393
v -23.572496 -27.296423 -14.453075
v -23.433071 -27.459061 -14.475605
v -23.255953 -27.337421 -14.611252
v -23.028336 -27.339561 -14.678581
v -23.251364 -27.477835 -14.558754
v -23.250582 -27.611546 -14.484390
v -23.024630 -27.481331 -14.627914
v -23.024630 -27.616854 -14.555264
v -22.672146 -27.476133 -14.706085
v -22.113199 -27.468866 -14.816292
v -22.675409 -27.334133 -14.757309
v -22.672140 -27.611866 -14.632698
v -22.113174 -27.604891 -14.741730
v -22.672131 -27.768984 -14.520187
v -22.672121 -27.908850 -14.361671
v -22.113140 -27.761908 -14.627640
v -23.024630 -27.774050 -14.443752
v -23.024630 -27.914038 -14.286514
v -23.250443 -27.765497 -14.374985
v -23.429409 -27.731701 -14.290558
v -23.250532 -27.902544 -14.222130
v -23.250431 -27.985497 -14.017399
v -23.429770 -27.859730 -14.149014
v -23.024630 -27.997908 -14.076687
v -22.672110 -27.992750 -14.150257
v -23.024630 -28.010735 -13.843494
v -23.024630 -27.978207 -13.605732
v -22.672092 -28.005745 -13.914734
v -22.672070 -27.973354 -13.674633
v -22.112967 -27.998785 -14.014267
v -22.112892 -27.966585 -13.770790
v -21.449434 -27.992109 -14.109436
v -22.113037 -27.985544 -14.253178
v -22.113094 -27.901573 -14.467094
v -21.449537 -27.978634 -14.351818
v -20.783718 -27.974380 -14.412567
v -21.449619 -27.894587 -14.568714
v -20.783775 -27.890257 -14.632469
v -21.449694 -27.755154 -14.731667
v -21.449747 -27.598270 -14.847637
v -20.783821 -27.751045 -14.797852
v -20.116743 -27.749662 -14.821480
v -20.783855 -27.594286 -14.915710
v -20.116739 -27.592970 -14.940285
v -20.783876 -27.457537 -14.993065
v -21.449780 -27.461876 -14.923584
v -20.116739 -27.456036 -15.018345
v -19.449600 -27.457542 -14.993065
v -20.116739 -27.312458 -15.072857
v -18.783703 -27.461882 -14.923584
v -19.449625 -27.594294 -14.915710
v -18.783741 -27.598270 -14.847637
v -19.449661 -27.751051 -14.797852
v -19.449713 -27.890263 -14.632469
v -18.783794 -27.755154 -14.731667
v -18.783869 -27.894587 -14.568714
v -18.120346 -27.761908 -14.627640
v -18.120394 -27.901573 -14.467094
v -18.120310 -27.604891 -14.741730
v -17.561357 -27.768984 -14.520187
v -17.561342 -27.611866 -14.632698
v -17.561371 -27.908850 -14.361671
v -17.208858 -27.774057 -14.443752
v -17.208858 -27.616858 -14.555264
v -16.983042 -27.765503 -14.374985
v -17.208862 -27.914043 -14.286514
v -16.804079 -27.731707 -14.290558
v -16.982904 -27.611551 -14.484390
v -16.803537 -27.587591 -14.395042
v -16.982124 -27.477840 -14.558754
v -16.800417 -27.459066 -14.475605
v -16.977530 -27.337421 -14.611252
v -17.208858 -27.481331 -14.627918
v -17.561337 -27.476133 -14.706085
v -17.205149 -27.339561 -14.678581
v -17.194023 -27.163673 -14.724125
v -17.558073 -27.334133 -14.757309
v -17.182896 -26.927706 -14.749966
v -16.965952 -27.163349 -14.655029
v -16.954668 -26.929255 -14.678413
v -16.782780 -27.153585 -14.573551
v -16.772923 -26.925060 -14.590046
v -16.651443 -27.138929 -14.485474
v -16.793798 -27.322330 -14.534393
v -16.660986 -27.296438 -14.453072
v -16.670092 -27.426868 -14.389439
v -16.586128 -27.261871 -14.372375
v -16.597513 -27.383102 -14.311234
v -16.563148 -27.239193 -14.310673
v -16.578890 -27.123919 -14.396587
v -16.548779 -27.140503 -14.307274
v -16.575073 -26.923847 -14.396175
v -16.546131 -26.953278 -14.297184
v -16.574047 -26.309278 -14.367168
v -16.644207 -26.921225 -14.493191
v -16.639542 -26.298645 -14.464939
v -16.631374 -26.079596 -14.450424
v -16.759388 -26.286968 -14.558327
v -16.935230 -26.276691 -14.643188
v -16.727718 -26.040901 -14.534882
v -16.887974 -26.007820 -14.612877
v -16.570621 -25.887383 -14.480007
v -16.507612 -25.952349 -14.407227
v -16.183952 -25.843109 -14.363182
v -15.558244 -25.860184 -14.119221
v -16.158344 -25.916185 -14.303349
v -15.563932 -25.932470 -14.070454
v -16.143772 -25.975292 -14.227165
v -15.575804 -25.990751 -14.006176
v -16.141066 -26.016678 -14.131260
v -16.466158 -26.005005 -14.319260
v -16.573849 -26.110929 -14.355839
v -16.444168 -26.042051 -14.213268
v -16.439558 -26.060135 -14.086403
v -16.545258 -26.133112 -14.246178
v -16.545309 -26.321104 -14.258339
v -16.535730 -26.144327 -14.116470
v -16.535730 -26.149443 -13.992558
v -16.535730 -26.336327 -14.131790
v -16.536013 -26.352409 -14.010208
v -16.537991 -27.029842 -14.194401
v -16.541378 -27.125963 -14.090332
v -16.544767 -27.220646 -14.217983
v -16.552677 -27.327522 -14.123951
v -16.562475 -27.317711 -14.250813
v -16.573709 -27.424034 -14.163685
v -16.607414 -27.495445 -14.224739
v -16.578079 -27.521906 -14.061577
v -16.610214 -27.606777 -14.124489
v -16.579027 -27.606310 -13.941456
v -16.558329 -27.424320 -14.020428
v -16.547029 -27.214003 -13.987442
v -16.536858 -26.366814 -13.916260
v -16.535730 -26.153240 -13.900288
v -16.445936 -26.073467 -13.873875
v -16.535730 -26.156401 -13.823837
v -16.448231 -26.078190 -13.798645
v -16.450529 -26.082912 -13.723423
v -16.185743 -26.055788 -13.737946
v -16.194933 -26.060825 -13.666084
v -15.692814 -26.068539 -13.555851
v -16.176550 -26.050758 -13.809803
v -16.165577 -26.044697 -13.896343
v -15.674428 -26.063818 -13.623276
v -14.886423 -26.091404 -13.229485
v -15.652482 -26.058138 -13.704269
v -15.623408 -26.050571 -13.812416
v -14.853501 -26.086121 -13.304955
v -13.936317 -26.124516 -12.756893
v -14.809890 -26.079082 -13.405369
v -13.879627 -26.118034 -12.849346
v -14.765779 -26.060450 -13.506187
v -13.822277 -26.099947 -12.942085
v -15.595187 -26.031355 -13.921715
v -14.731361 -26.020359 -13.582890
v -13.777501 -26.060232 -13.012642
v -14.704746 -25.962536 -13.640221
v -13.742879 -26.002687 -13.065296
v -14.684038 -25.890692 -13.682930
v -13.715988 -25.931152 -13.104321
v -12.808750 -25.978073 -12.433388
v -11.971415 -26.031017 -11.676899
v -12.840426 -26.049286 -12.398357
v -12.007199 -26.101917 -11.645996
v -12.881278 -26.106516 -12.350777
v -12.934117 -26.145836 -12.286793
v -12.053375 -26.158798 -11.603691
v -12.113105 -26.197681 -11.546543
v -15.987233 -26.503605 -7.345245
v -15.986762 -26.480188 -7.679516
v -15.608564 -26.453733 -8.057224
v -15.796103 -26.428776 -8.413445
v -15.181267 -26.423820 -8.484234
v -12.628889 -26.245300 -11.032677
v -15.411165 -26.406076 -8.737400
v -15.516806 -26.380394 -9.104088
v -13.374159 -26.198477 -11.701080
v -13.290602 -26.189703 -11.826252
v -14.177147 -26.157230 -12.289890
v -14.117562 -26.147276 -12.432045
v -15.020359 -26.121868 -12.794567
v -15.815064 -26.387285 -9.005684
v -15.749360 -26.096386 -13.158375
v -14.985994 -26.110933 -12.950657
v -14.941572 -26.100239 -13.103458
v -15.735291 -26.084764 -13.324299
v -15.711196 -26.073265 -13.488422
v -16.205235 -26.072762 -13.495567
v -16.453083 -26.094345 -13.550171
v -16.209705 -26.084743 -13.324593
v -16.322269 -26.380747 -9.098991
v -16.454226 -26.106064 -13.376911
v -16.482365 -26.394070 -9.113861
v -16.484285 -26.450075 -8.274849
v -16.473196 -26.489182 -7.686092
v -16.329948 -26.438993 -8.267513
v -16.093597 -26.436747 -8.299648
v -16.323442 -26.480215 -7.679089
v -16.304447 -26.502285 -7.364128
v -16.440062 -26.509508 -7.383602
v -16.088741 -26.383026 -9.066422
v -16.523113 -26.517271 -7.690189
v -14.050792 -26.137571 -12.570518
v -14.914000 -26.095821 -13.166473
v -14.014950 -26.133472 -12.628849
v -13.161316 -26.177391 -12.002029
v -13.979106 -26.129395 -12.687187
v -13.119056 -26.173677 -12.055145
v -12.322099 -26.223845 -11.338867
v -13.068601 -26.169230 -12.118565
v -13.001759 -26.163345 -12.202591
v -12.265084 -26.219862 -11.395744
v -12.189547 -26.214584 -11.471092
v -12.369852 -26.227186 -11.291229
v -12.417608 -26.230520 -11.243591
v -13.203577 -26.181116 -11.948902
v -12.523257 -26.237906 -11.138142
v -16.151041 -26.036577 -14.012238
v -16.443192 -26.067770 -13.964619
v -16.609856 -27.704231 -14.000977
v -16.677847 -27.677263 -14.202900
v -16.676470 -27.547920 -14.303177
v -17.137228 -25.993357 -14.688053
v -17.524775 -25.987223 -14.775543
v -17.168699 -26.270182 -14.715393
v -18.120283 -27.468872 -14.816292
v -17.561382 -27.992750 -14.150257
v -18.120451 -27.985544 -14.253178
v -17.561401 -28.005751 -13.914734
v -17.561417 -27.973360 -13.674633
v -18.120520 -27.998789 -14.014267
v -18.784054 -27.992109 -14.109436
v -18.120596 -27.966589 -13.770790
v -18.784166 -27.960129 -13.862507
v -18.122095 -27.092981 -9.281372
v -18.786419 -27.090687 -9.306667
v -18.122396 -26.933014 -8.372887
v -17.561789 -27.095411 -9.254803
v -17.561865 -26.934561 -8.360413
v -17.208858 -27.097166 -9.235752
v -17.208858 -26.935684 -8.351467
v -16.981766 -26.927322 -8.344254
v -18.786873 -26.931547 -8.384769
v -18.120064 -26.827148 -7.714752
v -18.785496 -26.826328 -7.717690
v -18.780569 -26.772982 -7.357780
v -19.451084 -26.825836 -7.719456
v -19.451719 -26.930674 -8.391922
v -20.116745 -26.825680 -7.720055
v -19.448643 -26.772766 -7.357769
v -19.446136 -26.755791 -7.154198
v -20.116745 -26.930380 -8.394318
v -20.781775 -26.930670 -8.391922
v -20.116745 -27.088844 -9.327019
v -20.782074 -27.089289 -9.321907
v -19.451418 -27.089289 -9.321907
v -20.116745 -27.954893 -13.936852
v -20.116745 -27.986593 -14.187393
v -19.449915 -27.956219 -13.918091
v -20.783575 -27.956219 -13.918091
v -20.783649 -27.987999 -14.167576
v -21.449316 -27.960129 -13.862507
v -21.447067 -27.090687 -9.306667
v -21.446615 -26.931547 -8.384769
v -22.111393 -27.092981 -9.281372
v -22.671696 -27.095411 -9.254803
v -22.111090 -26.933010 -8.372887
v -22.671619 -26.934561 -8.360413
v -23.024630 -26.935684 -8.351467
v -23.024630 -27.097166 -9.235752
v -19.449839 -27.987999 -14.167576
v -19.449768 -27.974377 -14.412567
v -20.116745 -27.972918 -14.433475
v -18.783951 -27.978634 -14.351818
v -20.116745 -27.888746 -14.654881
v -23.429949 -27.587587 -14.395042
v -23.555637 -27.677254 -14.202900
v -23.557013 -27.547913 -14.303177
v -23.626066 -27.495434 -14.224739
v -23.563395 -27.426863 -14.389442
v -23.635967 -27.383099 -14.311237
v -23.647348 -27.261871 -14.372387
v -23.671007 -27.317703 -14.250816
v -23.670328 -27.239187 -14.310677
v -23.684704 -27.140497 -14.307281
v -23.654591 -27.123913 -14.396587
v -23.039457 -27.163668 -14.724125
v -23.050581 -26.927700 -14.749966
v -20.788187 -26.901966 -4.918808
v -20.116745 -26.901960 -4.918808
v -20.788187 -26.948881 -4.249001
v -20.116745 -26.948881 -4.249001
v -19.445303 -26.948881 -4.249001
v -18.773863 -26.948881 -4.249001
v -17.179190 -26.815466 -6.153740
v -17.535892 -26.815466 -6.153740
v -17.179190 -26.790543 -6.509567
v -17.535892 -26.790543 -6.509571
v -17.179190 -26.773926 -6.746792
v -16.941387 -26.790543 -6.509571
v -16.941385 -26.773926 -6.746792
v -16.941391 -26.759262 -6.956104
v -16.731564 -26.773920 -6.746792
v -16.731565 -26.759262 -6.956097
v -16.292746 -26.665916 -7.169392
vn -0.5322 -0.6163 -0.5804
vn -0.4126 -0.8202 -0.3962
vn -0.3221 -0.6776 -0.6611
vn -0.3681 -0.5834 -0.7240
vn -0.0318 -0.9993 -0.0203
vn -0.1121 -0.9897 -0.0895
vn -0.2353 -0.9718 -0.0178
vn -0.0966 -0.9935 0.0599
vn -0.0026 -0.9984 -0.0568
vn -0.0006 -0.9975 -0.0702
vn -0.5238 -0.8388 -0.1483
vn -0.3379 -0.9364 0.0952
vn -0.1611 -0.9784 0.1298
vn -0.6382 -0.7688 0.0419
vn -0.7712 -0.5896 -0.2400
vn -0.8582 -0.5133 -0.0078
vn -0.6233 -0.4209 -0.6591
vn -0.8713 -0.3993 -0.2854
vn -0.9457 -0.3227 -0.0378
vn -0.9076 -0.2835 -0.3097
vn -0.9768 -0.2059 -0.0591
vn -0.6599 -0.3019 -0.6881
vn -0.6887 -0.1587 -0.7075
vn -0.9333 -0.1555 -0.3235
vn -0.9908 -0.1143 -0.0722
vn -0.8583 -0.5049 -0.0916
vn -0.8221 -0.4827 -0.3017
vn -0.6161 -0.4400 -0.6533
vn -0.4935 -0.1397 -0.8584
vn -0.4666 -0.3536 -0.8107
vn -0.4674 -0.2799 -0.8386
vn -0.4364 -0.3930 -0.8094
vn -0.0335 -0.9969 -0.0707
vn -0.0000 -0.9976 -0.0699
vn -0.0379 -0.9969 -0.0691
vn -0.0525 -0.9930 -0.1058
vn -0.0446 -0.9966 -0.0686
vn -0.3032 -0.9493 -0.0826
vn -0.3309 -0.9415 -0.0641
vn -0.3735 -0.9257 -0.0598
vn -0.0492 -0.9964 -0.0684
vn -0.4020 -0.9137 -0.0590
vn -0.0510 -0.9964 -0.0677
vn -0.4094 -0.9106 -0.0565
vn -0.0509 -0.9966 -0.0655
vn -0.4082 -0.9115 -0.0499
vn -0.0492 -0.9967 -0.0641
vn -0.4049 -0.9132 -0.0456
vn -0.9120 -0.4101 -0.0127
vn -0.9114 -0.4112 -0.0167
vn -0.9119 -0.4098 -0.0228
vn -0.9998 -0.0139 0.0162
vn -0.9998 -0.0168 0.0091
vn -0.9998 -0.0186 0.0021
vn -0.9096 -0.4147 -0.0253
vn -0.9998 -0.0218 -0.0002
vn -0.9996 -0.0264 0.0050
vn -0.9995 -0.0316 0.0023
vn -0.9995 -0.0289 0.0129
vn -0.9952 -0.0970 0.0137
vn -0.9965 -0.0828 0.0064
vn -0.9960 -0.0893 -0.0097
vn -0.9993 -0.0327 0.0189
vn -0.9950 -0.0954 -0.0290
vn -0.9992 -0.0350 0.0179
vn -0.9933 -0.1065 -0.0459
vn -0.9998 -0.0101 0.0168
vn -0.9122 -0.4096 -0.0129
vn -0.9994 -0.0304 0.0149
vn -0.9999 -0.0057 0.0111
vn -0.9122 -0.4094 -0.0143
vn -0.4014 -0.9147 -0.0459
vn -0.4032 -0.9140 -0.0457
vn -0.0485 -0.9968 -0.0642
vn -0.0489 -0.9967 -0.0642
vn -0.0638 -0.9916 -0.1122
vn -0.4092 -0.9075 -0.0951
vn -0.0215 -0.9928 -0.1177
vn -0.0258 -0.9929 -0.1163
vn -0.0301 -0.9929 -0.1147
vn -0.0369 -0.9932 -0.1105
vn -0.0346 -0.9931 -0.1120
vn -0.1576 -0.9528 -0.2595
vn -0.1371 -0.9524 -0.2723
vn -0.1677 -0.9529 -0.2527
vn -0.3468 -0.8272 -0.4421
vn -0.3264 -0.8273 -0.4571
vn -0.2845 -0.8271 -0.4848
vn -0.4879 -0.6473 -0.5856
vn -0.4599 -0.6476 -0.6076
vn -0.4015 -0.6473 -0.6479
vn -0.3475 -0.6464 -0.6792
vn -0.2455 -0.8275 -0.5050
vn -0.1178 -0.9525 -0.2808
vn -0.2930 -0.6478 -0.7032
vn -0.2053 -0.8303 -0.5181
vn -0.0982 -0.9531 -0.2865
vn -0.1208 -0.9524 -0.2798
vn -0.2024 -0.8347 -0.5121
vn -0.4440 -0.8554 -0.2666
vn -0.4745 -0.7179 -0.5095
vn -0.2703 -0.6533 -0.7072
vn -0.4612 -0.5224 -0.7172
vn -0.8381 -0.2734 -0.4720
vn -0.9089 -0.3522 -0.2232
vn -0.6856 -0.1824 -0.7048
vn -0.4088 -0.1872 -0.8932
vn -0.4973 -0.0540 -0.8659
vn -0.3260 -0.2979 -0.8972
vn -0.3014 0.0259 -0.9532
vn -0.3483 0.0315 -0.9369
vn -0.3260 0.0136 -0.9453
vn -0.5296 0.0253 -0.8478
vn -0.7360 0.0193 -0.6768
vn -0.3641 0.0419 -0.9304
vn -0.2566 0.0548 -0.9650
vn -0.2543 0.0636 -0.9650
vn -0.2473 0.0654 -0.9667
vn -0.2076 0.0580 -0.9765
vn -0.2086 0.0694 -0.9755
vn -0.2095 0.0687 -0.9754
vn -0.2098 0.0684 -0.9754
vn -0.2440 0.0674 -0.9674
vn -0.2740 0.0657 -0.9595
vn -0.3220 0.0636 -0.9446
vn -0.4041 0.0611 -0.9127
vn -0.4036 0.0113 -0.9149
vn -0.3769 -0.3011 -0.8759
vn -0.4798 0.0080 -0.8774
vn -0.4804 0.0585 -0.8751
vn -0.4479 -0.3044 -0.8406
vn -0.5547 0.0047 -0.8321
vn -0.5176 -0.3069 -0.7987
vn -0.6334 0.0011 -0.7738
vn -0.5916 -0.3087 -0.7448
vn -0.6705 -0.0008 -0.7419
vn -0.6267 -0.3093 -0.7153
vn -0.6714 0.0490 -0.7394
vn -0.6344 0.0512 -0.7713
vn -0.5555 0.0553 -0.8296
vn -0.1794 0.0689 -0.9814
vn -0.1795 0.0688 -0.9814
vn -0.1338 0.0693 -0.9886
vn -0.1338 0.0692 -0.9886
vn -0.0723 0.0697 -0.9949
vn -0.0000 0.0699 -0.9976
vn 0.0723 0.0697 -0.9949
vn 0.0723 0.0586 -0.9957
vn -0.0000 0.0588 -0.9983
vn -0.0723 0.0586 -0.9957
vn -0.1338 0.0582 -0.9893
vn -0.1791 0.0690 -0.9814
vn -0.1788 0.0579 -0.9822
vn -0.1330 -0.0341 -0.9905
vn -0.1777 -0.0345 -0.9835
vn -0.0719 -0.0337 -0.9968
vn -0.2061 -0.0349 -0.9779
vn -0.2001 -0.1875 -0.9617
vn -0.1726 -0.1878 -0.9669
vn -0.1291 -0.1883 -0.9736
vn -0.1924 -0.2980 -0.9350
vn -0.1656 -0.3006 -0.9393
vn -0.1236 -0.3039 -0.9446
vn -0.0698 -0.1888 -0.9795
vn -0.0666 -0.3070 -0.9494
vn -0.0000 -0.3083 -0.9513
vn -0.0000 -0.1891 -0.9820
vn -0.0000 -0.0336 -0.9994
vn 0.0719 -0.0337 -0.9968
vn 0.0698 -0.1888 -0.9795
vn 0.1338 0.0582 -0.9893
vn 0.1330 -0.0341 -0.9905
vn 0.1291 -0.1883 -0.9736
vn 0.0666 -0.3070 -0.9494
vn 0.1236 -0.3039 -0.9446
vn 0.1656 -0.3006 -0.9393
vn 0.1726 -0.1878 -0.9669
vn 0.1777 -0.0345 -0.9835
vn 0.1924 -0.2980 -0.9350
vn 0.2001 -0.1875 -0.9616
vn 0.2061 -0.0349 -0.9779
vn 0.1788 0.0579 -0.9822
vn 0.2076 0.0580 -0.9765
vn 0.1791 0.0690 -0.9814
vn 0.2086 0.0694 -0.9755
vn 0.1338 0.0693 -0.9886
vn 0.1338 0.0692 -0.9886
vn 0.1794 0.0689 -0.9814
vn 0.1795 0.0688 -0.9814
vn 0.2098 0.0684 -0.9754
vn 0.2095 0.0687 -0.9754
vn 0.2440 0.0674 -0.9674
vn 0.2473 0.0654 -0.9667
vn 0.2740 0.0657 -0.9595
vn 0.3014 0.0259 -0.9532
vn 0.3220 0.0636 -0.9446
vn 0.3260 0.0136 -0.9453
vn 0.4036 0.0113 -0.9149
vn 0.4041 0.0611 -0.9127
vn 0.4804 0.0585 -0.8751
vn 0.4798 0.0080 -0.8774
vn 0.5547 0.0047 -0.8321
vn 0.5555 0.0553 -0.8296
vn 0.6344 0.0512 -0.7713
vn 0.6334 0.0011 -0.7738
vn 0.6714 0.0490 -0.7394
vn 0.6705 -0.0008 -0.7419
vn 0.5323 -0.6163 -0.5804
vn 0.3681 -0.5833 -0.7241
vn 0.3221 -0.6775 -0.6612
vn 0.4126 -0.8202 -0.3962
vn 0.2697 -0.9021 -0.3368
vn 0.2352 -0.8736 -0.4260
vn 0.4666 -0.3537 -0.8107
vn 0.6161 -0.4401 -0.6533
vn 0.4935 -0.1398 -0.8584
vn 0.6887 -0.1588 -0.7075
vn 0.3091 -0.9307 -0.1957
vn 0.8222 -0.4827 -0.3017
vn 0.9334 -0.1555 -0.3235
vn 0.6599 -0.3020 -0.6880
vn 0.9076 -0.2835 -0.3097
vn 0.4674 -0.2800 -0.8385
vn 0.4364 -0.3930 -0.8094
vn 0.6233 -0.4209 -0.6591
vn 0.8713 -0.3993 -0.2854
vn 0.9457 -0.3228 -0.0378
vn 0.9768 -0.2059 -0.0591
vn 0.9908 -0.1143 -0.0722
vn 0.9918 -0.1274 0.0005
vn 0.9699 -0.2428 0.0213
vn 0.9974 -0.0708 -0.0095
vn 0.9978 -0.0657 0.0059
vn 0.9993 -0.0385 0.0003
vn 0.9871 -0.1583 0.0231
vn 0.8583 -0.5049 -0.0916
vn 0.8757 -0.4813 -0.0380
vn 0.8970 -0.4411 -0.0267
vn 0.9998 -0.0218 -0.0002
vn 0.9096 -0.4147 -0.0252
vn 0.9995 -0.0316 0.0023
vn 0.9998 -0.0186 0.0021
vn 0.9119 -0.4098 -0.0228
vn 0.9996 -0.0264 0.0050
vn 0.9998 -0.0168 0.0091
vn 0.9114 -0.4112 -0.0167
vn 0.9995 -0.0289 0.0129
vn 0.9993 -0.0327 0.0189
vn 0.9998 -0.0139 0.0162
vn 0.9120 -0.4100 -0.0127
vn 0.9960 -0.0892 -0.0097
vn 0.9950 -0.0953 -0.0290
vn 0.9965 -0.0828 0.0064
vn 0.9781 -0.2034 -0.0447
vn 0.9769 -0.1885 -0.1010
vn 0.9767 -0.2143 0.0097
vn 0.9681 -0.2477 0.0386
vn 0.9952 -0.0970 0.0137
vn 0.9387 -0.3402 0.0554
vn 0.7827 -0.6131 0.1073
vn 0.8545 -0.5126 0.0842
vn 0.8876 -0.4602 0.0208
vn 0.4940 -0.8550 0.1576
vn 0.5900 -0.7964 0.1329
vn 0.6504 -0.7590 0.0311
vn 0.9037 -0.4176 -0.0942
vn 0.6975 -0.6989 -0.1584
vn 0.3033 -0.9397 0.1582
vn 0.3605 -0.9320 0.0362
vn 0.4295 -0.8807 -0.1997
vn 0.4939 -0.7376 -0.4604
vn 0.7324 -0.5788 -0.3585
vn 0.9126 -0.3507 -0.2104
vn 0.2854 -0.8142 -0.5055
vn 0.2089 -0.9543 -0.2137
vn 0.1402 -0.9894 0.0386
vn 0.0715 -0.9735 -0.2171
vn 0.1442 -0.8415 -0.5207
vn 0.0122 -0.9992 0.0388
vn 0.1035 -0.9807 0.1658
vn -0.0089 -0.9861 0.1658
vn 0.0887 -0.9781 0.1882
vn 0.0001 -0.9821 0.1882
vn 0.2451 -0.9524 0.1811
vn 0.0816 -0.9820 0.1701
vn 0.2027 -0.9657 0.1622
vn 0.4059 -0.9028 0.1423
vn 0.7001 -0.7069 0.1006
vn 0.3379 -0.9364 0.0952
vn 0.1611 -0.9784 0.1298
vn 0.6382 -0.7687 0.0419
vn 0.8958 -0.4412 0.0533
vn 0.8582 -0.5133 -0.0078
vn 0.7712 -0.5896 -0.2400
vn 0.5238 -0.8388 -0.1482
vn 0.1121 -0.9897 -0.0895
vn 0.2353 -0.9718 -0.0178
vn 0.0966 -0.9935 0.0599
vn 0.0318 -0.9993 -0.0203
vn 0.0396 -0.9941 0.1013
vn 0.0661 -0.9865 0.1498
vn 0.0146 -0.9997 0.0197
vn 0.0030 -0.9994 0.0331
vn 0.0077 -0.9931 0.1173
vn 0.0113 -0.9875 0.1572
vn -0.0010 -0.9929 0.1191
vn -0.0032 -0.9876 0.1567
vn -0.0003 -0.9994 0.0351
vn -0.0026 -0.9881 0.1540
vn -0.0009 -0.9931 0.1172
vn -0.0002 -0.9994 0.0343
vn -0.0000 -0.9991 -0.0431
vn -0.0000 -0.9991 -0.0433
vn 0.0005 -0.9990 -0.0436
vn -0.0000 -0.9991 -0.0436
vn -0.0002 -0.9994 0.0335
vn -0.0000 -0.9990 -0.0437
vn -0.0001 -0.9995 0.0329
vn -0.0000 -0.9991 -0.0435
vn 0.0001 -0.9995 0.0329
vn -0.0000 -0.9995 0.0327
vn 0.0002 -0.9994 0.0335
vn 0.0006 -0.9933 0.1155
vn 0.0003 -0.9934 0.1144
vn -0.0000 -0.9935 0.1140
vn -0.0000 -0.9888 0.1493
vn 0.0009 -0.9887 0.1499
vn 0.0019 -0.9885 0.1515
vn 0.0009 -0.9931 0.1172
vn 0.0026 -0.9881 0.1540
vn 0.0002 -0.9994 0.0343
vn 0.0010 -0.9929 0.1191
vn 0.0032 -0.9876 0.1567
vn 0.0003 -0.9994 0.0351
vn -0.0030 -0.9994 0.0331
vn -0.0077 -0.9931 0.1173
vn -0.0113 -0.9875 0.1572
vn -0.0661 -0.9865 0.1498
vn -0.0396 -0.9941 0.1013
vn -0.0146 -0.9997 0.0197
vn -0.0005 -0.9990 -0.0436
vn -0.0024 -0.9989 -0.0468
vn -0.0816 -0.9820 0.1701
vn -0.0107 -0.9851 0.1714
vn -0.2027 -0.9657 0.1622
vn -0.4059 -0.9028 0.1423
vn -0.2451 -0.9524 0.1811
vn -0.0887 -0.9781 0.1882
vn -0.4941 -0.8550 0.1576
vn -0.3033 -0.9397 0.1582
vn -0.5900 -0.7963 0.1329
vn -0.1035 -0.9807 0.1658
vn -0.6504 -0.7590 0.0311
vn -0.3606 -0.9320 0.0362
vn -0.1402 -0.9894 0.0386
vn -0.4295 -0.8807 -0.1997
vn -0.2089 -0.9543 -0.2137
vn -0.6975 -0.6989 -0.1584
vn -0.9037 -0.4176 -0.0942
vn -0.8876 -0.4602 0.0208
vn -0.8545 -0.5126 0.0842
vn -0.7325 -0.5788 -0.3584
vn -0.4940 -0.7376 -0.4603
vn -0.9126 -0.3506 -0.2103
vn -0.9769 -0.1885 -0.1010
vn -0.9781 -0.2034 -0.0447
vn -0.9767 -0.2143 0.0097
vn -0.9681 -0.2477 0.0386
vn -0.9387 -0.3402 0.0554
vn -0.9871 -0.1583 0.0231
vn -0.7827 -0.6131 0.1073
vn -0.7001 -0.7069 0.1006
vn -0.8958 -0.4412 0.0533
vn -0.9699 -0.2427 0.0213
vn -0.9918 -0.1274 0.0005
vn -0.9978 -0.0657 0.0059
vn -0.9993 -0.0385 0.0003
vn -0.9974 -0.0708 -0.0095
vn -0.8971 -0.4411 -0.0267
vn -0.8757 -0.4813 -0.0380
vn -0.3091 -0.9307 -0.1957
vn -0.2697 -0.9021 -0.3368
vn -0.2352 -0.8736 -0.4260
vn -0.9708 -0.1933 -0.1421
vn -0.9033 -0.3149 -0.2913
vn -0.9641 -0.2106 -0.1617
vn -0.8836 -0.3233 -0.3387
vn -0.9928 -0.1101 -0.0462
vn -0.9621 -0.1990 -0.1867
vn -0.9932 -0.0881 -0.0765
vn -0.9994 -0.0148 -0.0322
vn -0.9994 0.0004 -0.0338
vn -0.9833 -0.0011 -0.1821
vn -0.9760 -0.0575 -0.2100
vn -0.9858 0.0091 -0.1674
vn -0.9150 -0.3983 -0.0637
vn -0.9115 0.0169 -0.4110
vn -0.8974 -0.0002 -0.4412
vn -0.7100 -0.0111 -0.7041
vn -0.5142 -0.0247 -0.8573
vn -0.6797 -0.1202 -0.7235
vn -0.8762 -0.0751 -0.4761
vn -0.4900 -0.1556 -0.8577
vn -0.3633 -0.0335 -0.9311
vn -0.3490 -0.1778 -0.9201
vn -0.3383 -0.2983 -0.8925
vn -0.4774 -0.2982 -0.8265
vn -0.6645 -0.2772 -0.6940
vn -0.4937 -0.4179 -0.7627
vn -0.6792 -0.4000 -0.6153
vn -0.3430 -0.4074 -0.8464
vn -0.2487 -0.1862 -0.9505
vn -0.2396 -0.2967 -0.9244
vn -0.2321 -0.4015 -0.8860
vn -0.3489 -0.5062 -0.7887
vn -0.5192 -0.4861 -0.7030
vn -0.2206 -0.5163 -0.8275
vn -0.1662 -0.5230 -0.8360
vn -0.1819 -0.4040 -0.8965
vn -0.1421 -0.5299 -0.8361
vn -0.1562 -0.4094 -0.8989
vn -0.1201 -0.6704 -0.7322
vn -0.1412 -0.6639 -0.7344
vn -0.1964 -0.6546 -0.7300
vn -0.0933 -0.8485 -0.5209
vn -0.1442 -0.8415 -0.5207
vn -0.0790 -0.8519 -0.5177
vn -0.3348 -0.6295 -0.7012
vn -0.2855 -0.8142 -0.5055
vn -0.5243 -0.5735 -0.6294
vn -0.0715 -0.9735 -0.2171
vn -0.7347 -0.4698 -0.4893
vn -0.0122 -0.9992 0.0388
vn -0.0296 -0.9760 -0.2156
vn 0.0202 -0.9991 0.0386
vn 0.0089 -0.9861 0.1658
vn 0.0347 -0.9859 0.1638
vn 0.0290 -0.9866 0.1607
vn 0.0168 -0.9992 0.0370
vn -0.0250 -0.9764 -0.2146
vn 0.0206 -0.9873 0.1577
vn 0.0118 -0.9993 0.0350
vn -0.0182 -0.9767 -0.2137
vn -0.0573 -0.8557 -0.5144
vn -0.0093 -0.9772 -0.2120
vn 0.0059 -0.9994 0.0341
vn -0.0297 -0.8593 -0.5106
vn -0.0880 -0.6779 -0.7299
vn -0.0462 -0.6848 -0.7273
vn -0.1050 -0.5381 -0.8363
vn -0.0558 -0.5455 -0.8362
vn -0.0000 -0.8607 -0.5091
vn -0.0000 -0.6875 -0.7262
vn -0.0000 -0.5486 -0.8361
vn -0.0622 -0.4219 -0.9045
vn -0.0000 -0.4243 -0.9055
vn -0.1161 -0.4159 -0.9020
vn 0.0622 -0.4219 -0.9045
vn 0.0558 -0.5455 -0.8362
vn 0.1161 -0.4159 -0.9020
vn 0.1050 -0.5381 -0.8363
vn 0.0880 -0.6779 -0.7299
vn 0.0462 -0.6848 -0.7273
vn 0.0297 -0.8593 -0.5106
vn 0.0573 -0.8557 -0.5144
vn 0.1201 -0.6704 -0.7322
vn 0.0790 -0.8519 -0.5177
vn 0.1421 -0.5299 -0.8361
vn 0.1412 -0.6639 -0.7344
vn 0.0933 -0.8485 -0.5209
vn 0.1662 -0.5230 -0.8360
vn 0.2206 -0.5163 -0.8275
vn 0.1964 -0.6547 -0.7300
vn 0.3489 -0.5062 -0.7887
vn 0.3348 -0.6295 -0.7012
vn 0.0296 -0.9760 -0.2157
vn 0.5243 -0.5735 -0.6294
vn 0.5192 -0.4861 -0.7030
vn 0.3430 -0.4074 -0.8464
vn 0.4937 -0.4179 -0.7627
vn 0.2321 -0.4015 -0.8860
vn 0.3383 -0.2983 -0.8925
vn 0.4774 -0.2982 -0.8265
vn 0.2396 -0.2967 -0.9244
vn 0.1819 -0.4040 -0.8965
vn 0.2487 -0.1862 -0.9505
vn 0.3490 -0.1778 -0.9201
vn 0.1562 -0.4094 -0.8989
vn 0.2568 -0.0353 -0.9658
vn 0.3633 -0.0335 -0.9311
vn 0.5142 -0.0246 -0.8573
vn 0.4900 -0.1556 -0.8577
vn 0.7100 -0.0111 -0.7041
vn 0.6797 -0.1202 -0.7235
vn 0.6645 -0.2772 -0.6940
vn 0.6792 -0.4000 -0.6153
vn 0.8602 -0.2127 -0.4634
vn 0.8644 -0.3162 -0.3908
vn 0.8762 -0.0751 -0.4761
vn 0.9555 -0.1523 -0.2527
vn 0.9620 -0.1990 -0.1867
vn 0.9760 -0.0575 -0.2099
vn 0.8974 -0.0002 -0.4412
vn 0.9833 -0.0011 -0.1821
vn 0.9115 0.0169 -0.4110
vn 0.9858 0.0091 -0.1674
vn 0.7360 0.0193 -0.6768
vn 0.5296 0.0253 -0.8478
vn 0.6856 -0.1824 -0.7048
vn 0.8381 -0.2734 -0.4720
vn 0.4973 -0.0540 -0.8659
vn 0.3641 0.0418 -0.9304
vn 0.3483 0.0315 -0.9369
vn 0.4088 -0.1872 -0.8932
vn 0.4612 -0.5224 -0.7172
vn 0.3260 -0.2979 -0.8972
vn 0.2703 -0.6534 -0.7072
vn 0.3769 -0.3011 -0.8759
vn 0.2930 -0.6478 -0.7032
vn 0.2053 -0.8303 -0.5181
vn 0.2024 -0.8347 -0.5121
vn 0.4745 -0.7179 -0.5095
vn 0.0982 -0.9530 -0.2865
vn 0.1208 -0.9524 -0.2798
vn 0.4440 -0.8554 -0.2666
vn 0.9089 -0.3522 -0.2232
vn 0.4092 -0.9075 -0.0951
vn 0.9150 -0.3983 -0.0637
vn 0.0638 -0.9916 -0.1122
vn 0.9994 0.0004 -0.0338
vn 0.4014 -0.9147 -0.0459
vn 0.9122 -0.4094 -0.0143
vn 0.9999 -0.0057 0.0111
vn 0.9994 -0.0304 0.0149
vn 0.9994 -0.0148 -0.0322
vn 0.9932 -0.0881 -0.0765
vn 0.9928 -0.1101 -0.0462
vn 0.9641 -0.2106 -0.1617
vn 0.8836 -0.3233 -0.3387
vn 0.9708 -0.1933 -0.1421
vn 0.9033 -0.3149 -0.2913
vn 0.9933 -0.1065 -0.0459
vn 0.9992 -0.0350 0.0179
vn 0.9998 -0.0101 0.0168
vn 0.9122 -0.4096 -0.0129
vn 0.4032 -0.9140 -0.0457
vn 0.4049 -0.9132 -0.0456
vn 0.4082 -0.9115 -0.0499
vn 0.0489 -0.9967 -0.0642
vn 0.0492 -0.9967 -0.0641
vn 0.0509 -0.9966 -0.0655
vn 0.0485 -0.9968 -0.0642
vn 0.0215 -0.9928 -0.1177
vn 0.0258 -0.9929 -0.1163
vn -0.0000 -0.9976 -0.0698
vn 0.0301 -0.9929 -0.1147
vn 0.1371 -0.9524 -0.2723
vn 0.1178 -0.9525 -0.2808
vn 0.2845 -0.8271 -0.4848
vn 0.2455 -0.8275 -0.5050
vn 0.4015 -0.6473 -0.6479
vn 0.3475 -0.6464 -0.6792
vn 0.5176 -0.3069 -0.7987
vn 0.4479 -0.3044 -0.8406
vn 0.5916 -0.3087 -0.7448
vn 0.4598 -0.6476 -0.6076
vn 0.6267 -0.3093 -0.7153
vn 0.4879 -0.6473 -0.5856
vn 0.3468 -0.8272 -0.4422
vn 0.3264 -0.8273 -0.4571
vn 0.1576 -0.9528 -0.2595
vn 0.1677 -0.9529 -0.2527
vn 0.0509 -0.9964 -0.0677
vn 0.0492 -0.9964 -0.0684
vn 0.4094 -0.9106 -0.0566
vn 0.4020 -0.9137 -0.0590
vn 0.0447 -0.9966 -0.0686
vn 0.3735 -0.9257 -0.0598
vn 0.3309 -0.9415 -0.0641
vn 0.0379 -0.9969 -0.0691
vn 0.3032 -0.9493 -0.0826
vn 0.0335 -0.9969 -0.0707
vn 0.0525 -0.9930 -0.1058
vn 0.0369 -0.9932 -0.1105
vn 0.0346 -0.9931 -0.1119
vn 0.7347 -0.4698 -0.4893
vn 0.7118 -0.4331 -0.5530
vn 0.2566 0.0547 -0.9650
vn 0.2543 0.0636 -0.9650
vn 0.0250 -0.9764 -0.2146
vn -0.0202 -0.9991 0.0386
vn -0.0168 -0.9992 0.0369
vn -0.0347 -0.9859 0.1638
vn -0.0290 -0.9866 0.1607
vn -0.0118 -0.9993 0.0350
vn 0.0182 -0.9767 -0.2137
vn -0.0206 -0.9873 0.1577
vn -0.0174 -0.9831 0.1823
vn -0.0123 -0.9837 0.1792
vn -0.0209 -0.9824 0.1856
vn -0.0044 -0.9866 0.1633
vn -0.0063 -0.9861 0.1662
vn -0.0075 -0.9855 0.1693
vn 0.0106 -0.9851 0.1714
vn -0.0019 -0.9885 0.1515
vn -0.0006 -0.9933 0.1155
vn -0.0009 -0.9887 0.1499
vn -0.0003 -0.9934 0.1144
vn -0.0022 -0.9869 0.1614
vn -0.0000 -0.9870 0.1608
vn 0.0022 -0.9869 0.1614
vn 0.0062 -0.9842 0.1771
vn -0.0000 -0.9843 0.1765
vn -0.0061 -0.9842 0.1771
vn 0.0103 -0.9877 0.1557
vn -0.0000 -0.9879 0.1550
vn -0.0103 -0.9877 0.1557
vn -0.0000 -0.9994 0.0337
vn -0.0059 -0.9994 0.0340
vn 0.0123 -0.9837 0.1792
vn 0.0174 -0.9831 0.1823
vn 0.0044 -0.9866 0.1633
vn 0.0063 -0.9861 0.1662
vn 0.0209 -0.9824 0.1856
vn 0.0075 -0.9855 0.1693
vn -0.0001 -0.9821 0.1882
vn -0.0000 -0.9774 -0.2114
vn 0.0093 -0.9772 -0.2120
vn -0.7118 -0.4331 -0.5529
vn -0.8644 -0.3163 -0.3908
vn -0.8602 -0.2127 -0.4635
vn -0.9555 -0.1523 -0.2527
vn -0.2568 -0.0353 -0.9658
vn 0.0024 -0.9989 -0.0468
vn 0.0026 -0.9984 -0.0568
vn 0.0006 -0.9975 -0.0702
vn -0.0688 -0.9952 -0.0689
vn -0.0819 -0.9943 -0.0675
vn -0.0961 -0.9931 -0.0667
vn -0.0961 -0.9931 -0.0667
vn -0.1010 -0.9927 -0.0667
vn -0.1010 -0.9927 -0.0667
vn -0.1003 -0.9929 -0.0637
vn -0.1003 -0.9929 -0.0637
vn -0.0986 -0.9934 -0.0582
vn -0.0986 -0.9934 -0.0582
vn -0.0973 -0.9935 -0.0584
vn -0.0973 -0.9935 -0.0584
vn -0.0979 -0.9935 -0.0582
vn -0.0979 -0.9935 -0.0582
vn -0.0966 -0.9936 -0.0585
vn -0.0966 -0.9936 -0.0585
vn -0.1205 -0.9815 -0.1490
vn -0.1205 -0.9815 -0.1490
vn -0.0633 -0.9953 -0.0737
vn -0.0922 -0.9824 -0.1622
vn -0.0922 -0.9824 -0.1622
vn 0.1205 -0.9815 -0.1490
vn 0.1205 -0.9815 -0.1490
vn 0.0979 -0.9935 -0.0582
vn 0.0979 -0.9935 -0.0582
vn 0.0986 -0.9934 -0.0582
vn 0.0986 -0.9934 -0.0582
vn 0.0973 -0.9935 -0.0584
vn 0.0973 -0.9935 -0.0584
vn 0.1003 -0.9929 -0.0637
vn 0.1003 -0.9929 -0.0637
vn 0.1010 -0.9927 -0.0667
vn 0.1010 -0.9927 -0.0667
vn 0.0961 -0.9931 -0.0667
vn 0.0961 -0.9931 -0.0667
vn 0.0819 -0.9943 -0.0675
vn 0.0689 -0.9952 -0.0689
vn 0.0633 -0.9953 -0.0737
vn 0.0922 -0.9824 -0.1622
vn 0.0922 -0.9824 -0.1622
vn 0.0966 -0.9936 -0.0585
vn 0.0966 -0.9936 -0.0585
vt 0.796352 0.405790
vt 0.796480 0.405918
vt 0.795768 0.406384
vt 0.795685 0.406231
vt 0.909266 0.661918
vt 0.908428 0.661944
vt 0.908768 0.661073
vt 0.909361 0.661075
vt 0.909236 0.662740
vt 0.908413 0.662781
vt 0.908135 0.661656
vt 0.908459 0.661033
vt 0.908889 0.659653
vt 0.909451 0.659623
vt 0.908580 0.659673
vt 0.796793 0.405130
vt 0.797224 0.403736
vt 0.797404 0.403761
vt 0.796946 0.405212
vt 0.796257 0.405695
vt 0.796673 0.405071
vt 0.797079 0.403720
vt 0.796567 0.405022
vt 0.796937 0.403707
vt 0.796175 0.405613
vt 0.796013 0.405452
vt 0.796352 0.404924
vt 0.796603 0.403681
vt 0.796445 0.403666
vt 0.796232 0.404877
vt 0.795923 0.405362
vt 0.795480 0.405791
vt 0.795432 0.405670
vt 0.795578 0.406005
vt 0.795626 0.406112
vt 0.795589 0.403666
vt 0.794204 0.403658
vt 0.794666 0.401106
vt 0.795645 0.401247
vt 0.795487 0.404933
vt 0.794214 0.405037
vt 0.792653 0.402107
vt 0.793435 0.400634
vt 0.793519 0.398182
vt 0.794653 0.397932
vt 0.795621 0.397799
vt 0.796208 0.403663
vt 0.796287 0.401228
vt 0.796287 0.397743
vt 0.793245 0.380945
vt 0.795151 0.380253
vt 0.796169 0.380042
vt 0.793186 0.380257
vt 0.795133 0.379543
vt 0.796164 0.379321
vt 0.795091 0.378835
vt 0.796155 0.378599
vt 0.793086 0.379577
vt 0.795053 0.378537
vt 0.796148 0.378285
vt 0.793010 0.379297
vt 0.796638 0.378201
vt 0.796633 0.378520
vt 0.796628 0.379246
vt 0.797563 0.378217
vt 0.797580 0.378563
vt 0.797573 0.379296
vt 0.796627 0.379971
vt 0.797545 0.380029
vt 0.801544 0.379587
vt 0.801408 0.380382
vt 0.801533 0.378806
vt 0.802333 0.380411
vt 0.802487 0.379599
vt 0.802475 0.378802
vt 0.801338 0.378285
vt 0.802248 0.378237
vt 0.801060 0.377815
vt 0.801939 0.377734
vt 0.797535 0.377879
vt 0.796643 0.377881
vt 0.800723 0.377367
vt 0.797501 0.377486
vt 0.796649 0.377494
vt 0.796129 0.377590
vt 0.796139 0.377970
vt 0.794968 0.377881
vt 0.795015 0.378239
vt 0.792934 0.379018
vt 0.792843 0.378682
vt 0.794904 0.377402
vt 0.796112 0.377078
vt 0.792722 0.378234
vt 0.789533 0.380338
vt 0.789353 0.379921
vt 0.789670 0.380651
vt 0.785734 0.382614
vt 0.785499 0.382230
vt 0.785911 0.382903
vt 0.789784 0.380913
vt 0.786060 0.383145
vt 0.789898 0.381174
vt 0.786208 0.383387
vt 0.790082 0.381808
vt 0.786485 0.383962
vt 0.790225 0.382456
vt 0.786732 0.384552
vt 0.783406 0.386998
vt 0.783059 0.386479
vt 0.782699 0.385969
vt 0.792283 0.397773
vt 0.791844 0.399294
vt 0.779881 0.389338
vt 0.780319 0.389775
vt 0.790892 0.400345
vt 0.779444 0.388900
vt 0.779246 0.388703
vt 0.782524 0.385749
vt 0.782140 0.385265
vt 0.778812 0.388269
vt 0.778498 0.387956
vt 0.781863 0.384916
vt 0.779048 0.388505
vt 0.782349 0.385528
vt 0.781581 0.384562
vt 0.785260 0.381839
vt 0.778180 0.387638
vt 0.777912 0.387371
vt 0.781344 0.384264
vt 0.785059 0.381513
vt 0.507207 0.868456
vt 0.507205 0.868106
vt 0.511884 0.868082
vt 0.511881 0.868433
vt 0.516560 0.868064
vt 0.516550 0.868416
vt 0.521226 0.868051
vt 0.521200 0.868404
vt 0.789169 0.379497
vt 0.789013 0.379144
vt 0.525225 0.868038
vt 0.525152 0.868393
vt 0.792512 0.377390
vt 0.792604 0.377775
vt 0.794854 0.376906
vt 0.794845 0.376477
vt 0.796100 0.376541
vt 0.796104 0.376065
vt 0.527882 0.868038
vt 0.529391 0.868245
vt 0.529077 0.868585
vt 0.527705 0.868402
vt 0.796681 0.375946
vt 0.796672 0.376424
vt 0.529952 0.868754
vt 0.529551 0.868992
vt 0.529755 0.867920
vt 0.530450 0.868555
vt 0.528079 0.867683
vt 0.530477 0.866888
vt 0.531179 0.868425
vt 0.528236 0.866372
vt 0.908415 0.624981
vt 0.907799 0.625144
vt 0.907582 0.624257
vt 0.908077 0.624003
vt 0.909209 0.624781
vt 0.908785 0.623726
vt 0.910215 0.624551
vt 0.909853 0.623451
vt 0.532111 0.866548
vt 0.532254 0.868386
vt 0.911768 0.624227
vt 0.911522 0.623105
vt 0.533857 0.866545
vt 0.533895 0.868386
vt 0.533831 0.850246
vt 0.532050 0.850247
vt 0.530386 0.850249
vt 0.528262 0.850251
vt 0.525331 0.850255
vt 0.525347 0.866372
vt 0.525295 0.867683
vt 0.521254 0.866381
vt 0.521212 0.850265
vt 0.521245 0.867694
vt 0.516568 0.866397
vt 0.516567 0.867709
vt 0.511882 0.866416
vt 0.511886 0.867728
vt 0.507195 0.866442
vt 0.507203 0.867754
vt 0.507100 0.850324
vt 0.511804 0.850300
vt 0.516508 0.850278
vt 0.536319 0.866542
vt 0.536307 0.850244
vt 0.539122 0.850242
vt 0.539130 0.866541
vt 0.541930 0.866539
vt 0.541926 0.850242
vt 0.544722 0.866539
vt 0.544721 0.850241
vt 0.547517 0.850242
vt 0.547513 0.866539
vt 0.547513 0.868381
vt 0.544722 0.868381
vt 0.541930 0.868382
vt 0.925933 0.623060
vt 0.922989 0.622987
vt 0.922984 0.621831
vt 0.925987 0.621910
vt 0.920047 0.623080
vt 0.919974 0.621934
vt 0.539131 0.868383
vt 0.917116 0.623367
vt 0.916986 0.622223
vt 0.536320 0.868384
vt 0.914206 0.623769
vt 0.914029 0.622634
vt 0.917393 0.626054
vt 0.914594 0.626469
vt 0.920201 0.625808
vt 0.912235 0.626896
vt 0.912399 0.627857
vt 0.914731 0.627434
vt 0.917491 0.627031
vt 0.912514 0.628594
vt 0.914825 0.628177
vt 0.917557 0.627781
vt 0.920253 0.626781
vt 0.920290 0.627530
vt 0.923021 0.627423
vt 0.923016 0.626673
vt 0.923007 0.625700
vt 0.925820 0.625754
vt 0.925780 0.626732
vt 0.928870 0.623269
vt 0.928628 0.625986
vt 0.928544 0.626959
vt 0.925754 0.627484
vt 0.928489 0.627707
vt 0.931229 0.628055
vt 0.931312 0.627310
vt 0.931434 0.626338
vt 0.933544 0.628444
vt 0.933648 0.627706
vt 0.933799 0.626745
vt 0.931781 0.623656
vt 0.934229 0.624061
vt 0.931943 0.622517
vt 0.934456 0.622936
vt 0.928982 0.622125
vt 0.550313 0.866540
vt 0.553124 0.866542
vt 0.553122 0.868384
vt 0.550312 0.868383
vt 0.550321 0.850242
vt 0.553135 0.850244
vt 0.555611 0.850246
vt 0.555586 0.866545
vt 0.557393 0.850247
vt 0.557332 0.866548
vt 0.559057 0.850249
vt 0.558966 0.866888
vt 0.561180 0.850251
vt 0.561207 0.866372
vt 0.564096 0.866372
vt 0.564111 0.850255
vt 0.568231 0.850263
vt 0.568188 0.866382
vt 0.572875 0.866395
vt 0.572935 0.850280
vt 0.577639 0.850298
vt 0.577561 0.866417
vt 0.582343 0.850326
vt 0.582248 0.866441
vt 0.270343 0.279511
vt 0.271010 0.279953
vt 0.270928 0.280106
vt 0.270215 0.279639
vt 0.270879 0.278978
vt 0.271264 0.279188
vt 0.271264 0.279391
vt 0.270772 0.279083
vt 0.271216 0.279512
vt 0.270682 0.279173
vt 0.270668 0.278598
vt 0.270463 0.278598
vt 0.270342 0.278645
vt 0.270520 0.279335
vt 0.270128 0.278744
vt 0.271118 0.279726
vt 0.271069 0.279833
vt 0.270439 0.279417
vt 0.270022 0.278792
vt 0.269616 0.277441
vt 0.269758 0.277429
vt 0.270091 0.277403
vt 0.269315 0.274898
vt 0.269104 0.274886
vt 0.269919 0.274940
vt 0.268714 0.271381
vt 0.269784 0.271436
vt 0.268393 0.271360
vt 0.270250 0.277388
vt 0.270149 0.274944
vt 0.270121 0.271445
vt 0.269139 0.253751
vt 0.270057 0.253692
vt 0.265276 0.254106
vt 0.269111 0.253018
vt 0.270055 0.252967
vt 0.265140 0.253311
vt 0.269103 0.252285
vt 0.270050 0.252242
vt 0.265151 0.252530
vt 0.265345 0.252009
vt 0.269120 0.251940
vt 0.270045 0.251922
vt 0.264209 0.252526
vt 0.264435 0.251961
vt 0.264197 0.253323
vt 0.263775 0.252433
vt 0.264008 0.251832
vt 0.263766 0.253250
vt 0.263926 0.254079
vt 0.264351 0.254135
vt 0.268165 0.271343
vt 0.267898 0.271329
vt 0.263485 0.253994
vt 0.263316 0.253129
vt 0.937773 0.635230
vt 0.937901 0.653249
vt 0.937548 0.653169
vt 0.937330 0.635023
vt 0.937298 0.633983
vt 0.937765 0.634188
vt 0.263322 0.252274
vt 0.937256 0.632978
vt 0.937758 0.633110
vt 0.936746 0.634816
vt 0.936696 0.633804
vt 0.936625 0.632845
vt 0.936605 0.631956
vt 0.937246 0.632099
vt 0.937784 0.632191
vt 0.935821 0.631786
vt 0.935850 0.632692
vt 0.935926 0.633635
vt 0.934922 0.632513
vt 0.934882 0.631599
vt 0.934986 0.633462
vt 0.935988 0.634620
vt 0.935049 0.634439
vt 0.936221 0.653020
vt 0.935279 0.652965
vt 0.936985 0.653090
vt 0.936240 0.656727
vt 0.937004 0.656770
vt 0.937562 0.656821
vt 0.937888 0.656874
vt 0.937615 0.659448
vt 0.937052 0.659425
vt 0.937924 0.659463
vt 0.268924 0.274879
vt 0.269471 0.277458
vt 0.269291 0.277483
vt 0.268705 0.274877
vt 0.269902 0.278851
vt 0.269749 0.278934
vt 0.938397 0.661439
vt 0.938108 0.661731
vt 0.937756 0.660866
vt 0.938064 0.660821
vt 0.937163 0.660876
vt 0.937270 0.661717
vt 0.936347 0.660874
vt 0.936275 0.659407
vt 0.936415 0.661721
vt 0.935436 0.661728
vt 0.935384 0.660879
vt 0.935328 0.659402
vt 0.933914 0.660892
vt 0.933864 0.659407
vt 0.933960 0.661740
vt 0.931536 0.659417
vt 0.931577 0.660913
vt 0.931614 0.661760
vt 0.933978 0.662562
vt 0.931630 0.662582
vt 0.935457 0.662550
vt 0.933984 0.663432
vt 0.931635 0.663451
vt 0.935463 0.663420
vt 0.928851 0.663475
vt 0.928845 0.662605
vt 0.928833 0.661785
vt 0.926060 0.662628
vt 0.926051 0.661808
vt 0.926066 0.663497
vt 0.928858 0.664460
vt 0.926072 0.664482
vt 0.931642 0.664437
vt 0.928867 0.665938
vt 0.926083 0.665960
vt 0.931652 0.665916
vt 0.923287 0.664503
vt 0.923280 0.663518
vt 0.923298 0.665980
vt 0.923314 0.668327
vt 0.926099 0.668307
vt 0.928883 0.668286
vt 0.923334 0.671110
vt 0.926118 0.671090
vt 0.928902 0.671069
vt 0.931667 0.668264
vt 0.931685 0.671048
vt 0.934000 0.665897
vt 0.934015 0.668246
vt 0.917767 0.671149
vt 0.914984 0.671168
vt 0.914962 0.668384
vt 0.917746 0.668366
vt 0.914944 0.666035
vt 0.917728 0.666018
vt 0.912595 0.666050
vt 0.912614 0.668399
vt 0.920551 0.671130
vt 0.920530 0.668347
vt 0.920513 0.666000
vt 0.917717 0.664540
vt 0.920502 0.664522
vt 0.914932 0.664557
vt 0.917709 0.663554
vt 0.920494 0.663537
vt 0.914925 0.663571
vt 0.920488 0.662668
vt 0.923274 0.662649
vt 0.917702 0.662685
vt 0.920485 0.661848
vt 0.923268 0.661829
vt 0.917703 0.661864
vt 0.917717 0.661018
vt 0.920489 0.661002
vt 0.923262 0.660983
vt 0.923251 0.659468
vt 0.920488 0.659488
vt 0.917726 0.659511
vt 0.914947 0.661032
vt 0.914966 0.659536
vt 0.914922 0.661880
vt 0.912610 0.661045
vt 0.912639 0.659559
vt 0.912576 0.661893
vt 0.911100 0.661902
vt 0.911140 0.661053
vt 0.911174 0.659575
vt 0.910228 0.659593
vt 0.910176 0.661061
vt 0.910121 0.661909
vt 0.911091 0.662724
vt 0.910106 0.662732
vt 0.912569 0.662715
vt 0.911097 0.663595
vt 0.910112 0.663602
vt 0.912576 0.663585
vt 0.909241 0.663609
vt 0.911105 0.664581
vt 0.910118 0.664588
vt 0.911116 0.666060
vt 0.912583 0.664571
vt 0.914918 0.662701
vt 0.910224 0.656913
vt 0.911165 0.656873
vt 0.909461 0.656967
vt 0.908904 0.657027
vt 0.909429 0.653288
vt 0.910191 0.653207
vt 0.908866 0.653375
vt 0.909403 0.635011
vt 0.908822 0.635227
vt 0.910158 0.634805
vt 0.908839 0.634187
vt 0.909439 0.633999
vt 0.910206 0.633819
vt 0.909496 0.633039
vt 0.910269 0.632875
vt 0.908867 0.633181
vt 0.908367 0.633320
vt 0.908375 0.634398
vt 0.908382 0.635441
vt 0.908865 0.632302
vt 0.909504 0.632150
vt 0.908328 0.632402
vt 0.802675 0.378107
vt 0.803112 0.377882
vt 0.803361 0.378550
vt 0.802908 0.378709
vt 0.803368 0.379404
vt 0.802918 0.379525
vt 0.802758 0.380354
vt 0.803199 0.380269
vt 0.798527 0.397620
vt 0.798299 0.397637
vt 0.798794 0.397606
vt 0.908514 0.653460
vt 0.797989 0.401155
vt 0.797770 0.401158
vt 0.908579 0.657084
vt 0.797590 0.401164
vt 0.797379 0.401177
vt 0.797978 0.397659
vt 0.796909 0.397714
vt 0.796774 0.401218
vt 0.796571 0.397723
vt 0.796544 0.401223
vt 0.796026 0.404877
vt 0.795816 0.405257
vt 0.795431 0.405467
vt 0.802361 0.377587
vt 0.802746 0.377342
vt 0.801984 0.377139
vt 0.802316 0.376893
vt 0.801566 0.377281
vt 0.801563 0.376753
vt 0.801149 0.376865
vt 0.800355 0.376912
vt 0.797471 0.376980
vt 0.800069 0.376465
vt 0.800844 0.376475
vt 0.797453 0.376453
vt 0.796660 0.376973
vt 0.797445 0.375988
vt 0.799977 0.376032
vt 0.908306 0.627736
vt 0.907825 0.627838
vt 0.907324 0.625267
vt 0.907151 0.624461
vt 0.908959 0.627609
vt 0.908493 0.628678
vt 0.908018 0.628740
vt 0.909143 0.628563
vt 0.909780 0.627439
vt 0.909961 0.628394
vt 0.910089 0.629124
vt 0.909271 0.629289
vt 0.908618 0.629387
vt 0.909344 0.629922
vt 0.908687 0.630046
vt 0.910164 0.629737
vt 0.910927 0.628174
vt 0.911052 0.628905
vt 0.911123 0.629514
vt 0.910211 0.630364
vt 0.909391 0.630573
vt 0.911165 0.630137
vt 0.912618 0.629839
vt 0.912580 0.629209
vt 0.914909 0.629434
vt 0.914879 0.628797
vt 0.914935 0.630230
vt 0.912651 0.630629
vt 0.911207 0.630917
vt 0.912660 0.631493
vt 0.911222 0.631769
vt 0.914941 0.631103
vt 0.910262 0.631134
vt 0.910285 0.631969
vt 0.909457 0.631335
vt 0.911195 0.632684
vt 0.908801 0.631496
vt 0.911144 0.633633
vt 0.912637 0.632422
vt 0.912597 0.633385
vt 0.911094 0.634611
vt 0.912557 0.634374
vt 0.914867 0.634032
vt 0.914895 0.633027
vt 0.914923 0.632046
vt 0.917597 0.633696
vt 0.917613 0.632677
vt 0.917630 0.631682
vt 0.917641 0.630728
vt 0.920339 0.631452
vt 0.920334 0.632456
vt 0.920342 0.630489
vt 0.917637 0.629848
vt 0.920337 0.629604
vt 0.917618 0.629048
vt 0.920325 0.628801
vt 0.923043 0.630390
vt 0.923036 0.629502
vt 0.923031 0.628697
vt 0.920311 0.628157
vt 0.923026 0.628052
vt 0.917596 0.628407
vt 0.925741 0.628113
vt 0.925737 0.628758
vt 0.928460 0.628332
vt 0.928447 0.628972
vt 0.928440 0.629772
vt 0.925736 0.629562
vt 0.925744 0.630448
vt 0.928447 0.630651
vt 0.931147 0.630112
vt 0.931154 0.630986
vt 0.931162 0.629315
vt 0.933436 0.630480
vt 0.933440 0.631344
vt 0.933458 0.629690
vt 0.934916 0.629967
vt 0.934885 0.630747
vt 0.935873 0.630181
vt 0.935833 0.630951
vt 0.933477 0.632272
vt 0.936640 0.631140
vt 0.936696 0.630378
vt 0.935911 0.629552
vt 0.936733 0.629726
vt 0.934949 0.629343
vt 0.935977 0.628938
vt 0.936797 0.629092
vt 0.935011 0.628734
vt 0.933487 0.629059
vt 0.935125 0.628001
vt 0.936095 0.628207
vt 0.931184 0.628677
vt 0.935288 0.627044
vt 0.936263 0.627248
vt 0.937084 0.627406
vt 0.936915 0.628364
vt 0.937740 0.627524
vt 0.937567 0.628469
vt 0.937451 0.629180
vt 0.937392 0.629840
vt 0.937936 0.629198
vt 0.937870 0.629873
vt 0.938043 0.628524
vt 0.265426 0.250205
vt 0.265120 0.250477
vt 0.264812 0.250228
vt 0.265305 0.249944
vt 0.265876 0.249805
vt 0.265838 0.250199
vt 0.266706 0.249754
vt 0.266613 0.250189
vt 0.938223 0.627620
vt 0.269237 0.249710
vt 0.269229 0.250175
vt 0.938208 0.624924
vt 0.938684 0.625041
vt 0.937592 0.624771
vt 0.938414 0.624035
vt 0.938847 0.624233
vt 0.937915 0.623788
vt 0.936793 0.624583
vt 0.937203 0.623521
vt 0.558264 0.868425
vt 0.559688 0.867920
vt 0.558993 0.868555
vt 0.560052 0.868245
vt 0.559491 0.868754
vt 0.561364 0.867683
vt 0.561561 0.868038
vt 0.564147 0.867683
vt 0.564218 0.868037
vt 0.564291 0.868392
vt 0.561739 0.868401
vt 0.560366 0.868585
vt 0.274171 0.251110
vt 0.274079 0.251495
vt 0.271828 0.250627
vt 0.271838 0.250198
vt 0.270583 0.250262
vt 0.270579 0.249787
vt 0.559892 0.868992
vt 0.270010 0.250146
vt 0.270001 0.249668
vt 0.270571 0.250800
vt 0.270022 0.250695
vt 0.271778 0.251123
vt 0.269211 0.250703
vt 0.270554 0.251312
vt 0.270034 0.251216
vt 0.269182 0.251209
vt 0.265959 0.251091
vt 0.266327 0.250635
vt 0.265534 0.250589
vt 0.265116 0.251005
vt 0.264699 0.250863
vt 0.264366 0.250617
vt 0.264322 0.251312
vt 0.263936 0.251066
vt 0.264744 0.251458
vt 0.263571 0.251607
vt 0.265623 0.251539
vt 0.269148 0.251601
vt 0.270040 0.251603
vt 0.270544 0.251692
vt 0.270536 0.252007
vt 0.270528 0.252321
vt 0.271669 0.251960
vt 0.271630 0.252258
vt 0.271592 0.252556
vt 0.273673 0.253017
vt 0.273597 0.253297
vt 0.273750 0.252738
vt 0.271715 0.251602
vt 0.273841 0.252402
vt 0.277151 0.254056
vt 0.277015 0.254370
vt 0.276900 0.254631
vt 0.273961 0.251954
vt 0.277331 0.253639
vt 0.280951 0.256330
vt 0.280774 0.256620
vt 0.281186 0.255946
vt 0.281425 0.255556
vt 0.277515 0.253215
vt 0.281626 0.255229
vt 0.277671 0.252862
vt 0.572883 0.868063
vt 0.572893 0.868415
vt 0.568242 0.868405
vt 0.568217 0.868052
vt 0.572875 0.867708
vt 0.568198 0.867695
vt 0.577557 0.867729
vt 0.577559 0.868083
vt 0.582240 0.867752
vt 0.582238 0.868105
vt 0.582236 0.868455
vt 0.577561 0.868434
vt 0.285106 0.258277
vt 0.285342 0.257979
vt 0.288508 0.261352
vt 0.288775 0.261084
vt 0.274848 0.273014
vt 0.275801 0.274064
vt 0.274041 0.275827
vt 0.273258 0.274354
vt 0.272490 0.277379
vt 0.272028 0.274827
vt 0.286369 0.263490
vt 0.283282 0.260714
vt 0.274409 0.271493
vt 0.279954 0.258269
vt 0.273173 0.271903
vt 0.280201 0.257679
vt 0.283628 0.260194
vt 0.286807 0.263052
vt 0.276460 0.256175
vt 0.276603 0.255527
vt 0.273440 0.254665
vt 0.272039 0.271653
vt 0.273498 0.253977
vt 0.280477 0.257104
vt 0.276786 0.254893
vt 0.271551 0.253264
vt 0.271533 0.253975
vt 0.270519 0.253043
vt 0.270515 0.253764
vt 0.271071 0.271520
vt 0.270405 0.271464
vt 0.270406 0.274950
vt 0.271048 0.274968
vt 0.270486 0.277384
vt 0.271105 0.277387
vt 0.271208 0.278654
vt 0.272481 0.278757
vt 0.280626 0.256862
vt 0.284163 0.259464
vt 0.284338 0.259244
vt 0.283988 0.259685
vt 0.284547 0.258981
vt 0.287442 0.262417
vt 0.287640 0.262219
vt 0.287876 0.261983
vt 0.288189 0.261670
vt 0.284824 0.258632
vt 0.287244 0.262614
vt 0.937299 0.631292
vt 0.937813 0.631362
vt 0.937360 0.630530
vt 0.937844 0.630591
vt 0.935785 0.624365
vt 0.936131 0.623260
vt 0.557189 0.868386
vt 0.555548 0.868385
vt 0.931186 0.631929
vt 0.933530 0.633235
vt 0.931228 0.632909
vt 0.933585 0.634223
vt 0.931270 0.633914
vt 0.928504 0.632597
vt 0.928473 0.631603
vt 0.928534 0.633615
vt 0.931487 0.652834
vt 0.928728 0.652768
vt 0.933813 0.652909
vt 0.928753 0.656637
vt 0.931510 0.656655
vt 0.933835 0.656679
vt 0.935298 0.656700
vt 0.928777 0.659432
vt 0.928807 0.660939
vt 0.926014 0.659449
vt 0.926035 0.660962
vt 0.925992 0.656634
vt 0.923231 0.656647
vt 0.920469 0.656673
vt 0.920440 0.652775
vt 0.923203 0.652739
vt 0.925966 0.652735
vt 0.920330 0.633483
vt 0.923064 0.633398
vt 0.925799 0.633444
vt 0.923057 0.632366
vt 0.925780 0.632416
vt 0.917679 0.652845
vt 0.914920 0.652952
vt 0.917710 0.656715
vt 0.914952 0.656773
vt 0.912595 0.653060
vt 0.912628 0.656831
vt 0.911131 0.653138
vt 0.923050 0.631358
vt 0.925761 0.631412
vt 0.908729 0.630735
vt 0.908246 0.630803
vt 0.908287 0.631574
vt 0.908210 0.630085
vt 0.908134 0.629412
vt 0.801257 0.376481
vt 0.801377 0.376220
vt 0.801871 0.376504
vt 0.800807 0.376082
vt 0.910750 0.627219
vt 0.923354 0.673893
vt 0.920571 0.673913
vt 0.917788 0.673932
vt 0.923374 0.676676
vt 0.920591 0.676696
vt 0.926138 0.673873
vt 0.926157 0.676656
vt 0.928921 0.673853
vt 0.933991 0.664418
vt 0.935470 0.664407
vt 0.935479 0.665886
vt 0.936448 0.663414
vt 0.936456 0.664399
vt 0.936442 0.662543
vt 0.937311 0.662538
vt 0.937319 0.663408
vt 0.938135 0.662568
s 1
f 13/1/1 2/2/2 1/3/3 3/4/4
f 5/5/5 4/6/6 7/7/7 8/8/8
f 4/6/6 5/5/5 407/9/9 6/10/10
f 7/7/7 4/6/6 2/11/2 10/12/11
f 9/13/12 419/14/13 8/8/8 7/7/7
f 9/13/12 7/7/7 10/12/11 11/15/14
f 12/16/15 14/17/16 11/18/14 10/19/11
f 13/1/1 12/16/15 10/19/11 2/2/2
f 12/16/15 13/1/1 17/20/17 15/21/18
f 14/17/16 12/16/15 15/21/18 16/22/19
f 18/23/20 20/24/21 16/22/19 15/21/18
f 19/25/22 18/23/20 15/21/18 17/20/17
f 18/23/20 19/25/22 24/26/23 21/27/24
f 20/24/21 18/23/20 21/27/24 22/28/25
f 455/29/26 22/28/25 21/27/24 23/30/27
f 24/26/23 25/31/28 23/30/27 21/27/24
f 25/31/28 24/26/23 26/32/29 27/33/30
f 24/26/23 19/25/22 28/34/31 26/32/29
f 19/25/22 17/20/17 29/35/32 28/34/31
f 17/20/17 13/1/1 3/4/4 29/35/32
f 34/36/33 33/37/34 36/38/34 39/39/35
f 33/37/34 34/36/33 459/40/36 35/41/34
f 33/37/34 32/42/34 37/43/34 36/38/34
f 100/44/34 38/45/34 36/38/34 37/43/34
f 38/45/34 41/46/37 39/39/35 36/38/34
f 456/47/38 34/36/33 39/39/35 40/48/637
f 41/46/37 42/49/638 40/48/39 39/39/35
f 44/50/34 43/51/41 41/46/37 38/45/34
f 45/52/639 42/49/640 41/46/37 43/51/41
f 43/51/41 44/50/34 48/53/34 46/54/43
f 45/52/641 43/51/41 46/54/43 47/55/642
f 49/56/45 52/57/643 47/55/644 46/54/43
f 51/58/34 49/56/45 46/54/43 48/53/34
f 50/59/47 53/60/645 52/57/646 49/56/45
f 88/61/34 50/59/47 49/56/45 51/58/34
f 53/60/48 55/62/49 54/63/50 52/57/46
f 52/57/46 54/63/50 57/64/51 47/55/44
f 55/62/49 69/65/52 56/66/53 54/63/50
f 57/64/51 54/63/50 56/66/53 59/67/54
f 58/68/55 45/52/42 47/55/44 57/64/51
f 58/68/55 57/64/51 59/67/54 60/69/56
f 61/70/57 62/71/58 60/69/56 59/67/54
f 61/70/57 59/67/54 56/66/53 64/72/59
f 441/73/60 62/71/58 61/70/57 63/74/61
f 64/72/59 65/75/62 63/74/61 61/70/57
f 66/76/63 67/77/64 65/75/62 64/72/59
f 66/76/63 64/72/59 56/66/53 69/65/52
f 67/77/64 66/76/63 68/78/65 464/79/66
f 68/78/65 66/76/63 69/65/52 70/80/67
f 69/65/52 55/62/49 72/81/68 70/80/67
f 467/82/69 68/78/65 70/80/67 71/83/70
f 73/84/71 71/83/70 70/80/67 72/81/68
f 75/85/72 73/84/71 72/81/68 74/86/73
f 55/62/49 53/60/48 74/86/73 72/81/68
f 78/87/74 75/85/647 74/86/648 76/88/75
f 53/60/649 50/59/47 76/88/75 74/86/650
f 50/59/47 88/61/34 77/89/34 76/88/75
f 80/90/34 78/87/74 76/88/75 77/89/34
f 75/85/651 78/87/74 79/91/76 474/92/652
f 78/87/74 80/90/34 81/93/78 79/91/76
f 80/90/34 82/94/34 83/95/79 81/93/78
f 82/94/34 80/90/34 77/89/34 85/96/34
f 82/94/34 84/97/34 112/98/80 83/95/79
f 84/97/34 82/94/34 85/96/34 86/99/34
f 87/100/34 89/101/34 86/99/34 85/96/34
f 88/61/34 87/100/34 85/96/34 77/89/34
f 87/100/34 88/61/34 51/58/34 90/102/34
f 89/101/34 87/100/34 90/102/34 91/103/34
f 91/103/34 90/102/34 92/104/34 94/105/34
f 90/102/34 51/58/34 48/53/34 92/104/34
f 93/106/34 96/107/34 94/105/34 92/104/34
f 44/50/34 93/106/34 92/104/34 48/53/34
f 96/107/34 98/108/34 95/109/34 94/105/34
f 94/105/34 95/109/34 101/110/34 91/103/34
f 98/108/34 96/107/34 97/111/34 99/112/34
f 97/111/34 96/107/34 93/106/34 100/44/34
f 102/113/34 95/109/34 98/108/34 30/114/34
f 30/114/34 98/108/34 99/112/34 31/115/34
f 32/42/34 31/115/34 99/112/34 37/43/34
f 97/111/34 100/44/34 37/43/34 99/112/34
f 38/45/34 100/44/34 93/106/34 44/50/34
f 103/116/34 101/110/34 95/109/34 102/113/34
f 103/116/34 104/117/34 111/118/34 101/110/34
f 108/119/34 106/120/34 107/121/81 109/122/82
f 105/123/34 106/120/34 108/119/34 110/124/34
f 84/97/34 86/99/34 110/124/34 108/119/34
f 84/97/34 108/119/34 109/122/82 112/98/80
f 86/99/34 89/101/34 111/118/34 110/124/34
f 104/117/34 105/123/34 110/124/34 111/118/34
f 89/101/34 91/103/34 101/110/34 111/118/34
f 113/125/83 115/126/84 112/98/80 109/122/82
f 114/127/85 113/125/83 109/122/82 107/121/81
f 114/127/85 117/128/86 116/129/87 113/125/83
f 119/130/88 115/126/84 113/125/83 116/129/87
f 117/131/86 163/132/89 118/133/90 116/134/87
f 120/135/91 119/136/88 116/134/87 118/133/90
f 120/135/91 122/137/92 121/138/93 119/136/88
f 124/139/94 115/126/84 119/130/88 121/140/93
f 122/137/92 155/141/95 123/142/96 121/138/93
f 124/139/94 121/140/93 123/143/96 125/144/97
f 115/126/84 124/139/94 83/95/79 112/98/80
f 124/139/94 125/144/97 81/93/78 83/95/79
f 126/145/98 125/144/97 123/143/96 128/146/99
f 125/144/97 126/145/98 79/91/76 81/93/78
f 126/145/98 127/147/653 474/92/654 79/91/76
f 127/147/100 126/145/98 128/146/99 130/148/101
f 129/149/102 132/150/103 130/151/101 128/152/99
f 155/141/95 129/149/102 128/152/99 123/142/96
f 127/147/100 130/148/101 131/153/104 473/154/105
f 130/151/101 132/150/103 133/155/106 131/156/104
f 132/150/103 134/157/107 137/158/108 133/155/106
f 132/150/103 129/149/102 136/159/109 134/157/107
f 134/157/107 135/160/110 139/161/111 137/158/108
f 151/162/112 135/160/110 134/157/107 136/159/109
f 138/163/113 477/164/114 133/165/106 137/166/108
f 140/167/115 138/163/113 137/166/108 139/168/111
f 142/169/116 140/167/115 139/168/111 141/170/117
f 135/160/110 144/171/118 141/172/117 139/161/111
f 188/173/119 142/169/116 141/170/117 143/174/120
f 144/171/118 145/175/121 143/176/120 141/172/117
f 147/177/122 145/175/121 144/171/118 146/178/123
f 135/160/110 148/179/124 146/178/123 144/171/118
f 148/179/124 135/160/110 151/162/112 149/180/125
f 150/181/126 149/180/125 151/162/112 152/182/127
f 152/182/127 151/162/112 136/159/109 154/183/128
f 150/181/126 152/182/127 153/184/129 167/185/130
f 153/184/129 152/182/127 154/183/128 156/186/131
f 129/149/102 155/141/95 154/183/128 136/159/109
f 155/141/95 122/137/92 156/186/131 154/183/128
f 158/187/132 153/184/129 156/186/131 157/188/133
f 122/137/92 120/135/91 157/188/133 156/186/131
f 160/189/134 158/187/132 157/188/133 159/190/135
f 120/135/91 118/133/90 159/190/135 157/188/133
f 162/191/136 160/189/134 159/190/135 161/192/137
f 118/133/90 163/132/89 161/192/137 159/190/135
f 164/193/138 165/194/139 160/189/134 162/191/136
f 166/195/140 158/187/132 160/189/134 165/194/139
f 166/195/140 167/185/130 153/184/129 158/187/132
f 169/196/141 145/175/121 147/177/122 168/197/142
f 169/196/141 168/197/142 170/198/143 171/199/144
f 173/200/145 171/199/144 170/198/143 172/201/145
f 176/202/146 173/200/145 172/201/145 174/203/146
f 174/203/146 175/204/147 177/205/147 176/202/146
f 176/202/146 177/205/147 179/206/147 178/207/146
f 176/202/146 178/207/146 181/208/145 173/200/145
f 202/209/148 180/210/149 178/211/146 179/212/147
f 178/211/146 180/210/149 182/213/150 181/214/145
f 183/215/143 171/199/144 173/200/145 181/208/145
f 185/216/151 183/217/143 181/214/145 182/213/150
f 171/199/144 183/215/143 184/218/152 169/196/141
f 183/217/143 185/216/151 187/219/153 184/220/152
f 187/219/153 185/216/151 186/221/154 189/222/155
f 186/221/154 185/216/151 182/213/150 199/223/156
f 188/173/119 143/174/120 184/220/152 187/219/153
f 187/219/153 189/222/155 190/224/157 188/173/119
f 192/225/158 190/224/157 189/222/155 191/226/159
f 186/221/154 194/227/160 191/226/159 189/222/155
f 495/228/161 192/225/158 191/226/159 193/229/162
f 194/227/160 195/230/163 193/229/162 191/226/159
f 186/221/154 199/223/156 196/231/164 194/227/160
f 197/232/165 195/230/163 194/227/160 196/231/164
f 533/233/166 197/232/165 196/231/164 198/234/167
f 199/223/156 200/235/168 198/234/167 196/231/164
f 200/235/168 199/223/156 182/213/150 180/210/149
f 198/234/167 200/235/168 201/236/169 204/237/170
f 180/210/149 202/209/148 201/236/169 200/235/168
f 216/238/171 203/239/172 201/236/169 202/209/148
f 203/239/172 206/240/173 204/237/170 201/236/169
f 533/233/166 198/234/167 204/237/170 205/241/174
f 206/240/173 207/242/175 205/241/174 204/237/170
f 209/243/176 207/242/175 206/240/173 208/244/177
f 203/239/172 211/245/178 208/244/177 206/240/173
f 561/246/179 209/243/176 208/244/177 210/247/180
f 211/245/178 212/248/181 210/247/180 208/244/177
f 216/238/171 213/249/182 211/245/178 203/239/172
f 214/250/183 212/248/181 211/245/178 213/249/182
f 214/250/183 213/249/182 215/251/184 708/252/185
f 213/249/182 216/238/171 217/253/186 215/251/184
f 216/238/171 202/209/148 179/212/147 217/253/186
f 218/254/187 219/255/188 215/256/184 217/257/186
f 177/205/147 218/254/187 217/257/186 179/206/147
f 220/258/186 221/259/189 219/255/188 218/254/187
f 220/258/186 218/254/187 177/205/147 175/204/147
f 222/260/190 223/261/191 219/255/188 221/259/189
f 222/260/190 224/262/192 225/263/193 223/261/191
f 226/264/194 227/265/195 225/263/193 224/262/192
f 227/265/195 226/264/194 228/266/196 229/267/197
f 231/268/198 229/267/197 228/266/196 230/269/199
f 231/268/198 230/269/199 232/270/200 233/271/201
f 235/272/202 233/271/201 232/270/200 234/273/203
f 236/274/204 237/275/205 235/272/202 234/273/203
f 236/274/204 238/276/206 239/277/207 237/275/205
f 319/278/208 243/279/209 242/280/210 244/281/211
f 249/282/212 247/283/213 246/284/214 248/285/215
f 245/286/216 251/287/217 248/285/215 246/284/214
f 684/288/218 249/282/212 248/285/215 250/289/219
f 251/287/217 252/290/220 250/289/219 248/285/215
f 251/287/217 253/291/221 256/292/222 252/290/220
f 251/287/217 245/286/216 254/293/223 253/291/221
f 253/291/221 254/293/223 789/294/224 255/295/225
f 253/291/221 255/295/225 257/296/226 256/292/222
f 259/297/227 258/298/228 256/292/222 257/296/226
f 258/298/228 260/299/229 252/290/220 256/292/222
f 261/300/230 258/298/228 259/297/227 263/301/231
f 264/302/232 260/299/229 258/298/228 261/300/230
f 264/302/232 261/300/230 262/303/233 266/304/234
f 262/303/233 261/300/230 263/301/231 285/305/235
f 686/306/236 260/299/229 264/302/232 265/307/237
f 266/304/234 267/308/238 265/307/237 264/302/232
f 268/309/239 269/310/240 267/308/238 266/304/234
f 268/309/239 266/304/234 262/303/233 270/311/241
f 271/312/242 272/313/243 269/310/240 268/309/239
f 268/309/239 270/311/241 273/314/244 271/312/242
f 274/315/245 276/316/246 272/313/243 271/312/242
f 277/317/247 274/315/245 271/312/242 273/314/244
f 278/318/248 275/319/249 274/315/245 277/317/247
f 274/315/245 275/319/249 620/320/250 276/316/246
f 278/318/248 277/317/247 279/321/251 280/322/252
f 277/317/247 273/314/244 282/323/253 279/321/251
f 281/324/254 614/325/255 280/322/252 279/321/251
f 283/326/256 281/324/254 279/321/251 282/323/253
f 286/327/257 283/326/256 282/323/253 284/328/258
f 273/314/244 270/311/241 284/328/258 282/323/253
f 286/327/257 284/328/258 285/305/235 287/329/259
f 262/303/233 285/305/235 284/328/258 270/311/241
f 286/327/257 287/329/259 289/330/260 288/331/261
f 283/326/256 286/327/257 288/331/261 291/332/262
f 288/333/261 289/334/260 310/335/263 290/336/264
f 290/336/264 293/337/265 291/338/262 288/333/261
f 281/324/254 283/326/256 291/332/262 292/339/266
f 293/337/265 295/340/267 292/341/266 291/338/262
f 307/342/268 294/343/269 293/337/265 290/336/264
f 294/343/269 297/344/270 295/340/267 293/337/265
f 298/345/271 296/346/272 295/340/267 297/344/270
f 295/340/267 296/346/272 704/347/273 292/341/266
f 300/348/274 298/345/271 297/344/270 299/349/275
f 302/350/276 299/349/275 297/344/270 294/343/269
f 300/348/274 299/349/275 301/351/277 550/352/278
f 299/349/275 302/350/276 303/353/279 301/351/277
f 302/350/276 304/354/280 305/355/281 303/353/279
f 304/354/280 302/350/276 294/343/269 307/342/268
f 306/356/282 724/357/283 305/355/281 304/354/280
f 307/342/268 308/358/284 306/356/282 304/354/280
f 290/336/264 310/335/263 308/358/284 307/342/268
f 726/359/285 306/356/282 308/358/284 309/360/286
f 310/335/263 311/361/287 309/360/286 308/358/284
f 311/361/287 310/335/263 289/334/260 313/362/288
f 311/361/287 312/363/289 322/364/290 309/360/286
f 312/363/289 311/361/287 313/362/288 314/365/291
f 315/366/292 316/367/293 314/368/291 313/369/288
f 287/329/259 315/366/292 313/369/288 289/330/260
f 315/366/292 287/329/259 285/305/235 263/301/231
f 316/367/293 315/366/292 263/301/231 259/297/227
f 314/368/291 316/367/293 317/370/294 318/371/295
f 316/367/293 259/297/227 257/296/226 317/370/294
f 319/278/208 244/281/211 318/371/295 317/370/294
f 255/295/225 319/278/208 317/370/294 257/296/226
f 243/279/209 319/278/208 255/295/225 789/294/224
f 244/372/211 241/373/296 320/374/297 318/375/295
f 312/363/289 314/365/291 318/375/295 320/374/297
f 312/363/289 320/374/297 321/376/298 322/364/290
f 320/374/297 241/373/296 323/377/299 321/376/298
f 324/378/300 326/379/301 322/364/290 321/376/298
f 325/380/302 324/378/300 321/376/298 323/377/299
f 324/378/300 325/380/302 329/381/303 327/382/304
f 326/379/301 324/378/300 327/382/304 328/383/305
f 330/384/306 331/385/307 328/383/305 327/382/304
f 333/386/308 330/384/306 327/382/304 329/381/303
f 728/387/309 331/385/307 330/384/306 332/388/310
f 333/386/308 334/389/311 332/388/310 330/384/306
f 334/389/311 333/386/308 335/390/312 338/391/313
f 335/390/312 333/386/308 329/381/303 337/392/314
f 336/393/34 339/394/34 338/391/313 335/390/312
f 336/393/34 335/390/312 337/392/314 783/395/34
f 339/394/34 343/396/34 340/397/315 338/391/313
f 341/398/316 334/389/311 338/391/313 340/397/315
f 341/398/316 340/397/315 342/399/317 735/400/318
f 340/397/315 343/396/34 344/401/34 342/399/317
f 343/396/34 345/402/34 348/403/34 344/401/34
f 343/396/34 339/394/34 347/404/34 345/402/34
f 345/402/34 346/405/34 350/406/34 348/403/34
f 359/407/34 346/405/34 345/402/34 347/404/34
f 349/408/34 379/409/34 344/401/34 348/403/34
f 351/410/34 349/408/34 348/403/34 350/406/34
f 353/411/34 351/410/34 350/406/34 352/412/34
f 346/405/34 355/413/34 352/412/34 350/406/34
f 774/414/34 353/411/34 352/412/34 354/415/34
f 355/413/34 356/416/34 354/415/34 352/412/34
f 355/413/34 346/405/34 359/407/34 357/417/34
f 356/416/34 355/413/34 357/417/34 360/418/34
f 780/419/34 358/420/34 357/417/34 359/407/34
f 366/421/34 365/422/34 367/423/34 370/424/34
f 368/425/34 372/426/34 370/424/34 367/423/34
f 413/427/34 368/425/34 367/423/34 369/428/34
f 773/429/34 366/421/34 370/424/34 371/430/34
f 372/426/34 373/431/34 371/430/34 370/424/34
f 373/431/34 372/426/34 374/432/34 377/433/34
f 374/432/34 372/426/34 368/425/34 376/434/34
f 375/435/34 378/436/34 377/433/34 374/432/34
f 375/435/34 374/432/34 376/434/34 415/437/34
f 351/410/34 373/431/34 377/433/34 349/408/34
f 378/436/34 379/409/34 349/408/34 377/433/34
f 379/409/34 378/436/34 380/438/317 381/439/317
f 378/436/34 375/435/34 382/440/319 380/438/317
f 383/441/320 385/442/321 381/439/317 380/438/317
f 384/443/322 383/441/320 380/438/317 382/440/319
f 384/443/322 389/444/323 386/445/324 383/441/320
f 387/446/325 385/442/321 383/441/320 386/445/324
f 733/447/326 387/446/325 386/445/324 388/448/327
f 389/444/323 390/449/328 388/448/327 386/445/324
f 390/449/328 389/444/323 391/450/329 392/451/330
f 389/444/323 384/443/322 393/452/331 391/450/329
f 394/453/332 396/454/333 392/451/330 391/450/329
f 395/455/334 394/453/332 391/450/329 393/452/331
f 395/455/334 400/456/335 397/457/336 394/453/332
f 398/458/337 396/454/333 394/453/332 397/457/336
f 417/459/338 398/458/337 397/457/336 399/460/339
f 400/456/335 401/461/340 399/460/339 397/457/336
f 401/461/340 400/456/335 402/462/341 405/463/342
f 400/456/335 395/455/334 404/464/312 402/462/341
f 403/465/34 406/466/34 405/463/342 402/462/341
f 414/467/34 403/465/34 402/462/341 404/464/312
f 406/466/34 408/468/34 407/9/9 405/463/342
f 5/5/5 401/461/340 405/463/342 407/9/9
f 406/466/34 403/465/34 410/469/34 409/470/34
f 413/427/34 411/471/34 410/469/34 412/472/34
f 403/465/34 414/467/34 412/472/34 410/469/34
f 413/427/34 412/472/34 376/434/34 368/425/34
f 412/472/34 414/467/34 415/437/34 376/434/34
f 414/467/34 404/464/312 416/473/313 415/437/34
f 382/440/319 375/435/34 415/437/34 416/473/313
f 404/464/312 395/455/334 393/452/331 416/473/313
f 384/443/322 382/440/319 416/473/313 393/452/331
f 401/461/340 5/5/5 8/8/8 399/460/339
f 419/14/13 417/459/338 399/460/339 8/8/8
f 398/458/337 417/459/338 418/474/343 753/475/344
f 417/459/338 419/14/13 420/476/345 418/474/343
f 419/14/13 9/13/12 421/477/346 420/476/345
f 422/478/347 424/479/348 418/474/343 420/476/345
f 423/480/349 422/478/347 420/476/345 421/477/346
f 425/481/350 422/478/347 423/480/349 426/482/351
f 425/481/350 427/483/352 424/479/348 422/478/347
f 431/484/353 428/485/354 425/481/350 426/482/351
f 427/483/352 425/481/350 428/485/354 429/486/355
f 429/486/355 428/485/354 430/487/356 506/488/357
f 433/489/358 430/487/356 428/485/354 431/484/353
f 435/490/359 433/489/358 431/484/353 432/491/360
f 426/482/351 443/492/361 432/491/360 431/484/353
f 433/489/358 434/493/362 507/494/363 430/487/356
f 436/495/364 434/493/362 433/489/358 435/490/359
f 438/496/365 436/497/364 435/498/359 437/499/366
f 437/499/366 435/498/359 432/500/360 439/501/367
f 67/77/64 438/496/365 437/499/366 65/75/62
f 65/75/62 437/499/366 439/501/367 63/74/61
f 440/502/368 441/73/60 63/74/61 439/501/367
f 443/503/361 440/502/368 439/501/367 432/500/360
f 441/73/60 440/502/368 442/504/369 449/505/370
f 440/502/368 443/503/361 444/506/371 442/504/369
f 443/492/361 426/482/351 423/480/349 444/507/371
f 442/504/369 444/506/371 445/508/372 446/509/373
f 444/507/371 423/480/349 421/477/346 445/510/372
f 11/18/14 14/17/16 446/509/373 445/508/372
f 9/13/12 11/15/14 445/510/372 421/477/346
f 14/17/16 16/22/19 447/511/374 446/509/373
f 449/505/370 442/504/369 446/509/373 447/511/374
f 16/22/19 20/24/21 448/512/375 447/511/374
f 450/513/376 449/505/370 447/511/374 448/512/375
f 62/71/58 441/73/60 449/505/370 450/513/376
f 62/71/58 450/513/376 451/514/377 60/69/56
f 451/514/377 450/513/376 448/512/375 453/515/378
f 58/68/55 60/69/56 451/514/377 452/516/379
f 452/516/379 451/514/377 453/515/378 454/517/380
f 22/28/25 455/29/26 454/517/380 453/515/378
f 20/24/21 22/28/25 453/515/378 448/512/375
f 42/49/40 452/516/379 454/517/380 40/48/39
f 455/29/26 456/47/38 40/48/39 454/517/380
f 456/47/38 455/29/26 23/30/27 457/518/381
f 34/36/33 456/47/38 457/518/655 459/40/36
f 25/31/28 458/519/382 457/518/381 23/30/27
f 458/519/656 460/520/657 459/40/36 457/518/381
f 458/519/382 25/31/28 27/33/30 460/520/383
f 45/52/42 58/68/55 452/516/379 42/49/40
f 438/496/365 67/77/64 464/79/66 461/521/384
f 436/497/364 438/496/365 461/521/384 462/522/385
f 463/523/386 763/524/387 462/522/385 461/521/384
f 465/525/388 463/523/386 461/521/384 464/79/66
f 467/82/69 465/525/388 464/79/66 68/78/65
f 767/526/389 463/523/386 465/525/388 466/527/390
f 467/82/69 468/528/391 466/527/390 465/525/388
f 467/82/69 71/83/70 470/529/392 468/528/391
f 468/528/391 469/530/393 769/531/394 466/527/390
f 471/532/395 469/530/393 468/528/391 470/529/392
f 473/154/105 471/532/395 470/529/392 472/533/396
f 71/83/70 73/84/71 472/533/396 470/529/392
f 127/147/100 473/154/105 472/533/396 474/92/77
f 73/84/71 75/85/72 474/92/77 472/533/396
f 475/534/397 471/532/395 473/154/105 131/153/104
f 471/532/395 475/534/397 476/535/398 469/530/393
f 477/164/114 478/536/399 476/537/398 475/538/397
f 477/164/114 475/538/397 131/539/104 133/165/106
f 477/164/114 138/163/113 480/540/400 478/536/399
f 478/536/399 479/541/401 770/542/402 476/537/398
f 479/541/401 478/536/399 480/540/400 482/543/403
f 481/544/404 483/545/405 482/543/403 480/540/400
f 140/167/115 481/544/404 480/540/400 138/163/113
f 483/545/405 487/546/406 484/547/407 482/543/403
f 485/548/408 479/541/401 482/543/403 484/547/407
f 485/548/408 484/547/407 486/549/409 764/550/410
f 484/547/407 487/546/406 489/551/411 486/549/409
f 487/546/406 483/545/405 771/552/412 488/553/413
f 487/546/406 488/553/413 491/554/414 489/551/411
f 490/555/415 760/556/416 486/549/409 489/551/411
f 492/557/417 490/555/415 489/551/411 491/554/414
f 496/558/418 492/557/417 491/554/414 493/559/419
f 488/553/413 495/228/161 493/559/419 491/554/414
f 497/560/420 496/558/418 493/559/419 494/561/421
f 495/228/161 193/229/162 494/561/421 493/559/419
f 496/558/418 497/560/420 500/562/422 498/563/423
f 496/558/418 498/563/423 501/564/424 492/557/417
f 498/563/423 499/565/425 502/566/426 501/564/424
f 518/567/427 499/565/425 498/563/423 500/562/422
f 503/568/428 490/555/415 492/557/417 501/564/424
f 505/569/429 503/568/428 501/564/424 502/566/426
f 760/556/416 490/555/415 503/568/428 504/570/430
f 505/569/429 507/494/363 504/570/430 503/568/428
f 505/569/429 502/566/426 508/571/431 506/488/357
f 505/569/429 506/488/357 430/487/356 507/494/363
f 507/494/363 434/493/362 761/572/432 504/570/430
f 506/488/357 508/571/431 510/573/433 429/486/355
f 502/566/426 499/565/425 509/574/434 508/571/431
f 508/571/431 509/574/434 512/575/435 510/573/433
f 511/576/436 427/483/352 429/486/355 510/573/433
f 513/577/437 511/576/436 510/573/433 512/575/435
f 515/578/438 513/577/437 512/575/435 514/579/439
f 509/574/434 517/580/440 514/579/439 512/575/435
f 746/581/441 515/578/438 514/579/439 516/582/442
f 517/580/440 519/583/443 516/582/442 514/579/439
f 518/567/427 521/584/444 519/583/443 517/580/440
f 499/565/425 518/567/427 517/580/440 509/574/434
f 519/583/443 520/585/445 745/586/446 516/582/442
f 521/584/444 522/587/447 520/585/445 519/583/443
f 522/587/447 521/584/444 523/588/448 525/589/449
f 521/584/444 518/567/427 500/562/422 523/588/448
f 497/560/420 524/590/450 523/588/448 500/562/422
f 524/590/450 527/591/451 525/589/449 523/588/448
f 759/592/452 522/587/447 525/589/449 526/593/453
f 527/591/451 528/594/454 526/593/453 525/589/449
f 528/594/454 527/591/451 529/595/455 531/596/456
f 527/591/451 524/590/450 530/597/457 529/595/455
f 197/232/165 533/233/166 531/596/456 529/595/455
f 195/230/163 197/232/165 529/595/455 530/597/457
f 528/594/454 531/596/456 532/598/458 535/599/459
f 531/596/456 533/233/166 205/241/174 532/598/458
f 534/600/460 536/601/461 535/599/459 532/598/458
f 207/242/175 534/600/460 532/598/458 205/241/174
f 536/601/461 539/602/462 537/603/463 535/599/459
f 526/593/453 528/594/454 535/599/459 537/603/463
f 759/592/452 526/593/453 537/603/463 538/604/464
f 539/602/462 540/605/465 538/604/464 537/603/463
f 540/605/465 539/602/462 541/606/466 542/607/467
f 539/602/462 536/601/461 543/608/468 541/606/466
f 544/609/469 546/610/470 542/607/467 541/606/466
f 545/611/471 544/609/469 541/606/466 543/608/468
f 545/611/471 548/612/472 547/613/473 544/609/469
f 550/352/278 546/610/470 544/609/469 547/613/473
f 548/612/472 552/614/474 549/615/475 547/613/473
f 300/348/274 550/352/278 547/613/473 549/615/475
f 711/616/476 546/610/470 550/352/278 301/351/277
f 300/348/274 549/615/475 551/617/477 298/345/271
f 549/615/475 552/614/474 553/618/478 551/617/477
f 552/614/474 554/619/479 555/620/480 553/618/478
f 554/619/479 552/614/474 548/612/472 557/621/481
f 554/619/479 556/622/482 568/623/483 555/620/480
f 556/622/482 554/619/479 557/621/481 559/624/484
f 558/625/485 561/246/179 559/624/484 557/621/481
f 545/611/471 558/625/485 557/621/481 548/612/472
f 556/622/482 559/624/484 560/626/486 563/627/487
f 559/624/484 561/246/179 210/247/180 560/626/486
f 561/246/179 558/625/485 710/628/488 209/243/176
f 562/629/489 564/630/490 563/627/487 560/626/486
f 212/248/181 562/629/489 560/626/486 210/247/180
f 564/630/490 566/631/491 565/632/492 563/627/487
f 568/623/483 556/622/482 563/627/487 565/632/492
f 566/631/491 579/633/493 567/634/494 565/632/492
f 569/635/495 568/623/483 565/632/492 567/634/494
f 569/635/495 570/636/496 555/620/480 568/623/483
f 570/636/496 569/635/495 571/637/497 572/638/498
f 571/637/497 569/635/495 567/634/494 574/639/499
f 573/640/500 609/641/501 572/642/498 571/643/497
f 573/640/500 571/643/497 574/644/499 575/645/502
f 576/646/503 577/647/504 575/645/502 574/644/499
f 579/633/493 576/648/503 574/639/499 567/634/494
f 577/647/504 576/646/503 578/649/505 600/650/506
f 576/648/503 579/633/493 580/651/507 578/652/505
f 582/653/508 580/651/507 579/633/493 566/631/491
f 580/651/507 581/654/509 596/655/510 578/652/505
f 581/654/509 580/651/507 582/653/508 584/656/511
f 582/653/508 566/631/491 564/630/490 583/657/512
f 583/657/512 585/658/513 584/656/511 582/653/508
f 585/659/513 227/265/195 586/660/514 584/661/511
f 587/662/515 581/663/509 584/661/511 586/660/514
f 587/662/515 586/660/514 588/664/516 590/665/517
f 586/660/514 227/265/195 229/267/197 588/664/516
f 589/666/518 591/667/519 590/665/517 588/664/516
f 231/268/198 589/666/518 588/664/516 229/267/197
f 591/667/519 593/668/520 592/669/521 590/665/517
f 595/670/522 587/662/515 590/665/517 592/669/521
f 593/671/520 638/672/523 594/673/524 592/674/521
f 597/675/525 595/676/522 592/674/521 594/673/524
f 581/663/509 587/662/515 595/670/522 596/677/510
f 597/675/525 599/678/526 596/679/510 595/676/522
f 597/675/525 598/680/527 601/681/528 599/678/526
f 598/680/658 597/675/659 594/673/524 702/682/529
f 599/678/526 600/650/506 578/649/505 596/679/510
f 603/683/530 600/650/506 599/678/526 601/681/528
f 598/680/527 703/684/531 602/685/532 601/681/528
f 604/686/533 603/683/530 601/681/528 602/685/532
f 603/683/530 604/686/533 606/687/534 605/688/535
f 600/650/506 603/683/530 605/688/535 577/647/504
f 575/645/502 577/647/504 605/688/535 607/689/536
f 606/687/534 608/690/537 607/689/536 605/688/535
f 608/690/537 610/691/538 609/641/501 607/689/536
f 573/640/500 575/645/502 607/689/536 609/641/501
f 609/641/501 610/691/538 611/692/539 572/642/498
f 610/691/538 612/693/540 613/694/541 611/692/539
f 612/693/540 610/691/538 608/690/537 615/695/542
f 612/693/540 614/325/255 704/696/273 613/694/541
f 614/325/255 612/693/540 615/695/542 280/322/252
f 616/697/543 278/318/248 280/322/252 615/695/542
f 606/687/534 616/697/543 615/695/542 608/690/537
f 275/319/249 278/318/248 616/697/543 617/698/544
f 606/687/534 604/686/533 617/698/544 616/697/543
f 275/319/249 617/698/544 618/699/545 620/320/250
f 617/698/544 604/686/533 602/685/532 618/699/545
f 619/700/546 621/701/547 620/320/250 618/699/545
f 703/684/531 619/700/546 618/699/545 602/685/532
f 621/701/547 622/702/548 276/316/246 620/320/250
f 621/701/660 619/700/661 626/703/549 623/704/550
f 622/702/662 621/701/663 623/704/550 624/705/551
f 625/706/34 671/707/34 624/705/551 623/704/550
f 628/708/34 625/706/34 623/704/550 626/703/549
f 619/700/664 703/684/665 627/709/552 626/703/549
f 630/710/34 628/708/34 626/703/549 627/709/552
f 628/708/34 630/710/34 632/711/34 629/712/34
f 628/708/34 629/712/34 688/713/34 625/706/34
f 631/714/553 634/715/554 632/711/34 630/710/34
f 631/714/553 630/710/34 627/709/552 702/682/529
f 633/716/34 691/717/555 629/712/34 632/711/34
f 635/718/556 633/716/34 632/711/34 634/715/554
f 637/719/557 635/718/556 634/715/554 636/720/558
f 631/714/553 638/672/523 636/720/558 634/715/554
f 640/721/559 637/719/557 636/720/558 639/722/560
f 638/672/523 593/671/520 639/722/560 636/720/558
f 642/723/561 640/724/559 639/725/560 641/726/562
f 593/668/520 591/667/519 641/726/562 639/725/560
f 644/727/563 642/723/561 641/726/562 643/728/564
f 589/666/518 643/728/564 641/726/562 591/667/519
f 235/272/202 644/727/563 643/728/564 233/271/201
f 589/666/518 231/268/198 233/271/201 643/728/564
f 642/723/561 644/727/563 645/729/565 647/730/566
f 644/727/563 235/272/202 237/275/205 645/729/565
f 646/731/567 648/732/568 647/730/566 645/729/565
f 239/277/207 646/731/567 645/729/565 237/275/205
f 647/730/566 648/732/568 651/733/569 649/734/570
f 642/723/561 647/730/566 649/734/570 640/724/559
f 650/735/571 637/719/557 640/721/559 649/736/570
f 652/737/572 650/735/571 649/736/570 651/738/569
f 659/739/34 657/740/34 655/741/34 656/742/34
f 654/743/34 681/744/34 656/742/34 655/741/34
f 658/745/34 657/740/34 659/739/34 661/746/34
f 661/746/34 659/739/34 660/747/34 663/748/34
f 660/747/34 659/739/34 656/742/34 666/749/34
f 663/748/34 664/750/34 662/751/34 661/746/34
f 661/746/34 662/751/34 701/752/34 658/745/34
f 664/750/34 663/748/34 665/753/34 668/754/34
f 660/747/34 666/749/34 665/753/34 663/748/34
f 667/755/34 665/753/34 666/749/34 685/756/34
f 667/755/34 670/757/34 668/754/34 665/753/34
f 687/758/34 664/750/34 668/754/34 669/759/34
f 670/757/34 671/707/34 669/759/34 668/754/34
f 671/707/34 670/757/34 672/760/573 624/705/551
f 670/757/34 667/755/34 674/761/574 672/760/573
f 673/762/666 622/702/667 624/705/551 672/760/573
f 676/763/668 673/762/669 672/760/573 674/761/574
f 674/761/574 675/764/577 677/765/670 676/763/671
f 667/755/34 685/756/34 675/764/577 674/761/574
f 673/762/575 676/763/576 269/310/240 272/313/243
f 677/765/578 267/308/238 269/310/240 676/763/576
f 267/308/238 677/765/578 678/766/579 265/307/237
f 678/766/579 677/765/672 675/764/577 680/767/580
f 679/768/581 686/306/236 265/307/237 678/766/579
f 679/768/581 678/766/673 680/767/580 682/769/582
f 681/744/34 654/743/34 682/769/582 680/767/580
f 685/756/34 681/744/34 680/767/580 675/764/577
f 684/288/674 679/768/581 682/769/582 683/770/583
f 654/743/34 653/771/34 683/770/583 682/769/582
f 249/282/675 684/288/218 683/770/583 247/283/676
f 679/768/581 684/288/218 250/289/219 686/306/236
f 681/744/34 685/756/34 666/749/34 656/742/34
f 252/290/220 260/299/229 686/306/236 250/289/219
f 622/702/548 673/762/575 272/313/243 276/316/246
f 671/707/34 625/706/34 688/713/34 669/759/34
f 689/772/34 687/758/34 669/759/34 688/713/34
f 691/717/555 689/772/34 688/713/34 629/712/34
f 690/773/34 689/772/34 691/717/555 692/774/34
f 689/772/34 690/773/34 700/775/34 687/758/34
f 633/716/34 694/776/34 692/774/34 691/717/555
f 698/777/34 690/773/34 692/774/34 693/778/34
f 694/776/34 696/779/34 693/778/34 692/774/34
f 697/780/584 696/779/34 694/776/34 695/781/585
f 633/716/34 635/718/556 695/781/585 694/776/34
f 652/737/572 697/780/584 695/781/585 650/735/571
f 690/773/34 698/777/34 699/782/34 700/775/34
f 662/751/34 700/775/34 699/782/34 701/752/34
f 664/750/34 687/758/34 700/775/34 662/751/34
f 635/718/556 637/719/557 650/735/571 695/781/585
f 638/672/523 631/714/553 702/682/529 594/673/524
f 703/684/677 598/680/678 702/682/529 627/709/552
f 614/325/255 281/324/254 292/339/266 704/696/273
f 296/346/272 705/783/586 613/784/541 704/347/273
f 705/783/586 706/785/587 611/786/539 613/784/541
f 706/785/587 705/783/586 551/617/477 553/618/478
f 705/783/586 296/346/272 298/345/271 551/617/477
f 570/636/496 706/785/587 553/618/478 555/620/480
f 706/785/587 570/636/496 572/638/498 611/786/539
f 585/658/513 583/657/512 709/787/588 707/788/589
f 227/265/195 585/659/513 707/789/589 225/263/193
f 708/790/185 223/261/191 225/263/193 707/789/589
f 214/250/183 708/252/185 707/788/589 709/787/588
f 212/248/181 214/250/183 709/787/588 562/629/489
f 564/630/490 562/629/489 709/787/588 583/657/512
f 219/255/188 223/261/191 708/790/185 215/256/184
f 558/625/485 545/611/471 543/608/468 710/628/488
f 534/600/460 207/242/175 209/243/176 710/628/488
f 536/601/461 534/600/460 710/628/488 543/608/468
f 546/610/470 711/616/476 712/791/590 542/607/467
f 713/792/591 711/616/476 301/351/277 303/353/279
f 711/616/476 713/792/591 715/793/592 712/791/590
f 713/792/591 714/794/593 717/795/594 715/793/592
f 714/794/593 713/792/591 303/353/279 305/355/281
f 716/796/595 758/797/596 712/791/590 715/793/592
f 718/798/597 716/796/595 715/793/592 717/795/594
f 717/795/594 719/799/598 720/800/599 718/798/597
f 714/794/593 722/801/600 719/799/598 717/795/594
f 727/802/601 720/800/599 719/799/598 721/803/602
f 722/801/600 723/804/603 721/803/602 719/799/598
f 723/804/603 722/801/600 724/357/283 725/805/604
f 714/794/593 305/355/281 724/357/283 722/801/600
f 306/356/282 726/359/285 725/805/604 724/357/283
f 331/385/307 723/804/603 725/805/604 328/383/305
f 726/359/285 326/379/301 328/383/305 725/805/604
f 326/379/301 726/359/285 309/360/286 322/364/290
f 723/804/603 331/385/307 728/387/309 721/803/602
f 729/806/605 727/802/601 721/803/602 728/387/309
f 729/806/605 728/387/309 332/388/310 730/807/606
f 731/808/607 729/806/605 730/807/606 734/809/608
f 727/802/601 729/806/605 731/808/607 732/810/609
f 733/447/326 736/811/610 732/810/609 731/808/607
f 733/447/326 731/808/607 734/809/608 387/446/325
f 735/400/318 385/442/321 387/446/325 734/809/608
f 341/398/316 735/400/318 734/809/608 730/807/606
f 381/439/317 385/442/321 735/400/318 342/399/317
f 733/447/326 388/448/327 737/812/611 736/811/610
f 739/813/612 738/814/613 736/811/610 737/812/611
f 736/811/610 738/814/613 740/815/614 732/810/609
f 738/814/613 739/813/612 744/816/615 741/817/616
f 743/818/617 740/815/614 738/814/613 741/817/616
f 741/817/616 744/816/615 745/586/446 742/819/618
f 741/817/616 742/819/618 755/820/619 743/818/617
f 744/816/615 746/581/441 516/582/442 745/586/446
f 739/813/612 747/821/620 746/581/441 744/816/615
f 749/822/621 515/578/438 746/581/441 747/821/620
f 747/821/620 739/813/612 737/812/611 748/823/622
f 749/822/621 747/821/620 748/823/622 751/824/623
f 749/822/621 750/825/624 513/577/437 515/578/438
f 750/825/624 749/822/621 751/824/623 752/826/625
f 392/451/330 396/454/333 752/826/625 751/824/623
f 390/449/328 392/451/330 751/824/623 748/823/622
f 754/827/626 750/825/624 752/826/625 753/475/344
f 396/454/333 398/458/337 753/475/344 752/826/625
f 424/479/348 754/827/626 753/475/344 418/474/343
f 427/483/352 511/576/436 754/827/626 424/479/348
f 511/576/436 513/577/437 750/825/624 754/827/626
f 388/448/327 390/449/328 748/823/622 737/812/611
f 520/585/445 757/828/627 742/819/618 745/586/446
f 716/796/595 718/798/597 743/818/617 755/820/619
f 720/800/599 740/815/614 743/818/617 718/798/597
f 742/819/618 757/828/627 756/829/628 755/820/619
f 758/797/596 716/796/595 755/820/619 756/829/628
f 540/605/465 758/797/596 756/829/628 538/604/464
f 757/828/627 759/592/452 538/604/464 756/829/628
f 758/797/596 540/605/465 542/607/467 712/791/590
f 522/587/447 759/592/452 757/828/627 520/585/445
f 720/800/599 727/802/601 732/810/609 740/815/614
f 334/389/311 341/398/316 730/807/606 332/388/310
f 193/229/162 195/230/163 530/597/457 494/561/421
f 524/590/450 497/560/420 494/561/421 530/597/457
f 762/830/629 760/556/416 504/570/430 761/572/432
f 763/831/387 762/830/629 761/572/432 462/832/385
f 434/493/362 436/495/364 462/832/385 761/572/432
f 762/830/629 763/831/387 765/833/630 764/550/410
f 760/556/416 762/830/629 764/550/410 486/549/409
f 766/834/631 485/548/408 764/550/410 765/833/630
f 768/835/632 766/836/631 765/837/630 767/526/389
f 763/524/387 463/523/386 767/526/389 765/837/630
f 768/835/632 767/526/389 466/527/390 769/531/394
f 768/835/632 769/531/394 770/838/402 766/836/631
f 769/531/394 469/530/393 476/535/398 770/838/402
f 479/541/401 485/548/408 766/834/631 770/542/402
f 192/225/158 495/228/161 488/553/413 771/552/412
f 190/224/157 192/225/158 771/552/412 772/839/633
f 483/545/405 481/544/404 772/839/633 771/552/412
f 190/224/157 772/839/633 142/169/116 188/173/119
f 772/839/633 481/544/404 140/167/115 142/169/116
f 379/409/34 381/439/317 342/399/317 344/401/34
f 373/431/34 351/410/34 353/411/34 371/430/34
f 774/414/34 773/429/34 371/430/34 353/411/34
f 773/429/34 774/414/34 776/840/34 775/841/34
f 366/421/34 773/429/34 775/841/34 364/842/34
f 362/843/34 363/844/34 775/841/34 776/840/34
f 362/843/34 776/840/34 777/845/34 361/846/34
f 776/840/34 774/414/34 354/415/34 777/845/34
f 356/416/34 778/847/34 777/845/34 354/415/34
f 780/419/34 782/848/34 781/849/34 779/850/34
f 782/848/34 336/393/34 783/395/34 781/849/34
f 785/851/34 784/852/34 781/849/34 783/395/34
f 785/851/34 786/853/634 788/854/635 787/855/34
f 786/853/634 785/851/34 783/395/34 337/392/314
f 241/373/296 240/856/636 788/854/635 323/377/299
f 786/853/634 325/380/302 323/377/299 788/854/635
f 325/380/302 786/853/634 337/392/314 329/381/303
f 339/394/34 336/393/34 782/848/34 347/404/34
f 780/419/34 359/407/34 347/404/34 782/848/34
f 143/176/120 145/175/121 169/196/141 184/218/152
