# Blender 4.5.3 LTS
# www.blender.org
o LeftStickClick
v -39.613453 -29.348030 16.204884
v -39.613449 -29.493898 16.225941
v -38.683891 -29.348036 16.297337
v -40.542999 -29.348036 16.297337
v -39.613449 -29.269207 16.141705
v -38.671562 -29.269213 16.235378
v -39.613445 -29.104990 15.836330
v -40.555328 -29.269207 16.235378
v -40.614887 -29.104990 15.935917
v -41.461357 -29.269207 16.509281
v -41.578213 -29.104996 16.227146
v -42.295696 -29.269213 16.956272
v -41.437176 -29.348036 16.567654
v -41.429111 -29.493898 16.587101
v -42.260601 -29.348026 17.008778
v -42.983280 -29.348021 17.600704
v -42.248898 -29.493893 17.026287
v -42.248901 -33.619797 17.026295
v -42.968380 -29.493893 17.615597
v -43.557690 -29.493889 18.335072
v -42.968380 -33.619793 17.615597
v -43.557690 -33.619797 18.335072
v -41.429115 -33.619797 16.587109
v -40.538895 -33.619804 16.317989
v -39.613457 -33.619804 16.225948
v -40.538895 -29.493898 16.317989
v -38.688004 -33.619804 16.317989
v -37.797775 -33.619804 16.587109
v -37.797764 -29.493898 16.587101
v -36.977993 -33.619797 17.026295
v -36.977985 -29.493893 17.026287
v -36.258522 -33.619793 17.615604
v -36.258518 -29.493893 17.615597
v -35.669216 -33.619804 18.335072
v -35.230026 -33.619797 19.154858
v -35.230022 -29.493889 19.154858
v -34.960907 -33.619797 20.045086
v -34.960899 -29.493889 20.045086
v -34.868866 -33.619797 20.970531
v -34.868858 -29.493938 20.985058
v -34.960911 -33.619793 21.895985
v -35.230026 -33.619793 22.786213
v -35.230022 -29.493900 22.786205
v -35.669216 -33.619789 23.605991
v -35.669216 -29.493900 23.605991
v -36.258522 -33.619793 24.325466
v -36.258518 -29.493898 24.325459
v -36.977993 -33.619789 24.914776
v -37.797775 -33.619797 25.353970
v -37.797764 -29.493893 25.353962
v -38.688004 -33.619793 25.623074
v -38.687992 -29.493893 25.623074
v -39.613457 -33.619793 25.715122
v -39.613449 -29.493898 25.715122
v -40.538898 -33.619793 25.623074
v -41.429119 -33.619797 25.353970
v -41.429111 -29.493893 25.353970
v -42.248905 -33.619793 24.914776
v -42.248901 -29.493883 24.914776
v -42.968380 -33.619793 24.325474
v -42.968380 -29.493889 24.325474
v -43.557697 -33.619793 23.605991
v -43.996880 -33.619793 22.786213
v -43.996880 -29.493893 22.786213
v -44.265995 -33.619793 21.895985
v -44.265987 -29.493889 21.895985
v -44.358036 -33.619797 20.970531
v -44.358032 -29.493938 20.985058
v -44.265995 -33.619797 20.045086
v -43.996880 -33.619793 19.154858
v -43.996880 -29.493889 19.154858
v -44.265991 -29.493889 20.045086
v -44.016335 -29.348021 19.146801
v -44.286644 -29.348030 20.040974
v -43.575191 -29.348026 18.323376
v -44.074699 -29.269201 19.122616
v -44.356827 -29.104996 19.005764
v -44.348598 -29.269207 20.028652
v -43.627712 -29.269207 18.288288
v -43.027946 -29.269207 17.556034
v -43.881577 -29.104990 18.118656
v -44.503101 -28.702953 17.703373
v -43.243874 -29.105001 17.340099
v -43.772537 -28.702953 16.811436
v -42.465317 -29.104990 16.702404
v -42.880608 -28.702953 16.080868
v -43.417252 -28.143127 15.277737
v -41.864330 -28.702953 15.536411
v -42.234047 -28.143137 14.643848
v -40.760723 -28.702948 15.202793
v -40.949165 -28.143127 14.255413
v -39.613449 -28.702948 15.088688
v -38.466171 -28.702948 15.202793
v -39.613445 -28.143131 14.122578
v -38.277729 -28.143127 14.255413
v -39.613449 -27.505571 13.161793
v -38.090321 -27.505568 13.313282
v -39.613445 -26.764988 12.260204
v -41.136570 -27.505571 13.313282
v -41.312424 -26.764996 12.429180
v -42.601723 -27.505573 13.756191
v -42.946735 -26.764988 12.923237
v -43.950928 -27.505571 14.479023
v -44.451733 -26.764988 13.729519
v -45.135056 -27.505568 15.448917
v -45.772575 -26.764988 14.811398
v -46.104950 -27.505568 16.633038
v -44.455685 -28.143131 16.128300
v -45.306240 -28.143127 17.166729
v -45.940132 -28.143150 18.349934
v -45.047562 -28.702953 18.719646
v -46.328552 -28.143213 19.634800
v -46.827778 -27.505648 17.982250
v -47.660732 -26.765759 17.637157
v -47.270699 -27.505886 19.447376
v -48.154797 -26.768085 19.271252
v -47.422188 -27.506397 20.992062
v -48.323772 -26.771046 20.994656
v -47.270699 -27.506996 22.493526
v -46.461403 -28.143385 20.989826
v -45.495289 -28.703011 20.987850
v -46.328552 -28.143478 22.306217
v -45.940136 -28.143555 23.591091
v -45.381187 -28.702944 22.117809
v -45.047562 -28.702944 23.221416
v -44.648052 -29.104990 21.971981
v -44.356834 -29.104984 22.935307
v -44.747646 -29.105045 20.986439
v -44.348602 -29.269207 21.912418
v -44.442272 -29.269264 20.985851
v -44.286644 -29.348030 21.900097
v -44.074707 -29.269201 22.818447
v -43.627724 -29.269207 23.652775
v -44.016335 -29.348030 22.794270
v -43.575191 -29.348026 23.617687
v -42.983273 -29.348026 24.340351
v -43.557690 -29.493898 23.605991
v -42.260601 -29.348021 24.932285
v -43.027946 -29.269201 24.385029
v -43.243874 -29.104996 24.600964
v -42.295696 -29.269201 24.984806
v -42.465317 -29.104986 25.238667
v -41.461357 -29.269201 25.431789
v -41.578217 -29.104984 25.713917
v -40.555328 -29.269207 25.705685
v -41.437176 -29.348021 25.373425
v -40.542999 -29.348026 25.643726
v -39.613453 -29.348036 25.736179
v -40.538895 -29.493893 25.623074
v -38.683884 -29.348026 25.643726
v -39.613449 -29.269207 25.799366
v -39.613445 -29.104984 26.104740
v -38.671562 -29.269207 25.705685
v -38.612003 -29.104990 26.005138
v -37.765533 -29.269207 25.431789
v -37.648670 -29.104996 25.713917
v -36.931198 -29.269213 24.984798
v -37.789711 -29.348030 25.373417
v -36.966293 -29.348030 24.932270
v -36.243626 -29.348036 24.340343
v -36.977993 -29.493893 24.914768
v -35.651703 -29.348036 23.617687
v -36.198952 -29.269207 24.385029
v -35.983009 -29.105001 24.600964
v -35.599178 -29.269213 23.652775
v -35.345314 -29.104996 23.822414
v -35.152187 -29.269213 22.818447
v -34.870060 -29.104986 22.935307
v -34.878296 -29.269217 21.912418
v -35.210564 -29.348036 22.794270
v -34.940247 -29.348030 21.900097
v -34.847797 -29.348085 20.985584
v -34.960899 -29.493889 21.895985
v -34.940250 -29.348030 20.040974
v -34.784615 -29.269268 20.985851
v -34.479240 -29.105055 20.986439
v -34.878296 -29.269213 20.028652
v -34.578842 -29.104990 19.969090
v -35.152187 -29.269207 19.122616
v -34.870060 -29.104996 19.005764
v -35.599178 -29.269207 18.288288
v -35.210564 -29.348021 19.146801
v -35.651703 -29.348026 18.323376
v -36.243626 -29.348026 17.600704
v -35.669216 -29.493889 18.335072
v -36.966286 -29.348026 17.008778
v -36.198948 -29.269207 17.556034
v -35.983009 -29.105001 17.340099
v -36.931194 -29.269213 16.956264
v -36.761566 -29.104990 16.702404
v -37.765533 -29.269207 16.509281
v -37.648670 -29.104996 16.227146
v -37.789711 -29.348036 16.567654
v -37.362564 -28.702953 15.536411
v -38.612003 -29.104996 15.935917
v -36.992847 -28.143137 14.643848
v -36.346283 -28.702953 16.080868
v -35.809643 -28.143127 15.277737
v -35.454350 -28.702953 16.811443
v -34.771210 -28.143137 16.128300
v -34.723793 -28.702953 17.703373
v -35.345314 -29.104990 18.118656
v -33.920654 -28.143127 17.166737
v -34.179329 -28.702953 18.719646
v -33.286758 -28.143131 18.349941
v -33.845703 -28.702948 19.823261
v -32.898331 -28.143131 19.634815
v -33.731602 -28.703014 20.987850
v -32.765491 -28.143194 20.989826
v -33.845703 -28.702953 22.117809
v -34.578842 -29.104996 21.971981
v -32.898331 -28.143127 22.306255
v -34.179329 -28.702953 23.221416
v -33.286758 -28.143122 23.591129
v -34.723793 -28.702948 24.237690
v -33.920647 -28.143122 24.774334
v -35.454350 -28.702948 25.129627
v -34.771210 -28.143127 25.812771
v -36.346283 -28.702948 25.860188
v -36.761566 -29.104996 25.238659
v -35.809643 -28.143122 26.663326
v -37.362564 -28.702948 26.404659
v -36.992851 -28.143122 27.297222
v -38.466171 -28.702948 26.738277
v -38.277729 -28.143127 27.685650
v -39.613449 -28.702948 26.852375
v -39.613445 -28.143118 27.818493
v -40.760723 -28.702944 26.738277
v -40.614887 -29.104986 26.005138
v -40.949165 -28.143122 27.685650
v -41.864330 -28.702948 26.404659
v -42.234051 -28.143122 27.297222
v -42.880611 -28.702948 25.860188
v -43.417255 -28.143118 26.663326
v -43.772545 -28.702948 25.129627
v -44.455692 -28.143188 25.812771
v -44.503105 -28.702948 24.237690
v -43.881580 -29.104986 23.822414
v -45.306248 -28.143396 24.774303
v -46.104954 -27.506674 25.307919
v -46.854450 -26.770380 25.808346
v -45.135063 -27.505835 26.492123
v -46.827778 -27.507311 23.958645
v -47.660732 -26.773724 24.303059
v -48.389240 -25.922323 24.603268
v -48.154797 -26.773380 22.668758
v -48.928024 -25.922520 22.820934
v -49.616001 -24.983847 22.956287
v -49.112297 -25.916327 20.997669
v -49.814156 -24.971926 21.000988
v -48.928024 -25.906914 19.116726
v -49.616356 -24.952944 18.979076
v -48.389240 -25.898808 17.335217
v -49.037754 -24.936235 17.066410
v -47.509968 -25.896103 15.694248
v -48.093510 -24.930658 15.304333
v -46.330147 -25.896107 14.253826
v -46.854450 -26.764984 16.132244
v -46.826500 -24.930658 13.757473
v -44.889725 -25.896107 13.074009
v -45.279640 -24.930649 12.490467
v -43.248493 -25.896112 12.194729
v -43.517113 -24.930656 11.546215
v -41.466228 -25.896107 11.655949
v -41.603149 -24.930656 10.967613
v -39.613449 -25.896109 11.471672
v -37.760658 -25.896107 11.655949
v -39.613445 -24.930651 10.769733
v -37.623745 -24.930656 10.967621
v -39.613449 -23.900379 10.127876
v -37.498547 -23.900385 10.338223
v -39.613449 -22.837677 9.516083
v -41.728333 -23.900379 10.338219
v -41.847664 -22.837671 9.738289
v -43.762741 -23.900379 10.953224
v -43.996864 -22.837671 10.388000
v -45.636154 -23.900377 11.956882
v -45.975983 -22.837671 11.448296
v -47.280357 -23.900383 13.303616
v -47.712955 -22.837688 12.871006
v -48.627083 -23.900396 14.947803
v -49.135677 -22.837730 14.607975
v -49.630749 -23.909498 16.820721
v -50.195984 -22.850691 16.586582
v -50.245754 -23.936760 18.853619
v -50.845684 -22.889456 18.734257
v -50.455734 -23.967558 21.004528
v -51.067165 -22.933195 21.008167
v -50.244316 -23.986786 23.081066
v -50.842804 -22.960512 23.200542
v -49.628571 -23.984980 25.115742
v -50.191612 -22.957933 25.350101
v -48.625546 -23.952133 26.990726
v -49.037209 -24.982826 24.870449
v -48.093121 -24.962505 26.634434
v -46.826385 -24.939802 28.182903
v -47.509968 -25.912125 26.245419
v -46.330151 -25.900629 27.686840
v -44.889740 -25.896507 28.867023
v -45.772575 -26.766466 27.129528
v -44.451736 -26.765087 28.211529
v -42.946747 -26.765005 29.017826
v -43.950928 -27.505558 27.462040
v -42.601723 -27.505564 28.184879
v -41.136574 -27.505564 28.627789
v -41.312431 -26.764975 29.511883
v -39.613449 -27.505568 28.779278
v -39.613449 -26.764971 29.680859
v -38.090324 -27.505564 28.627789
v -37.914467 -26.764978 29.511883
v -36.625172 -27.505568 28.184879
v -36.280148 -26.764978 29.017811
v -35.275963 -27.505564 27.462040
v -34.775162 -26.764984 28.211536
v -34.091839 -27.505564 26.492138
v -33.454311 -26.764978 27.129658
v -33.121937 -27.505564 25.308018
v -32.372429 -26.764978 25.808811
v -32.399105 -27.505568 23.958805
v -31.566151 -26.764984 24.303822
v -31.956192 -27.505564 22.493656
v -31.072090 -26.764984 22.669506
v -31.804707 -27.505640 20.992069
v -30.903120 -26.765060 20.994671
v -31.956196 -27.505568 19.447407
v -31.072092 -26.764978 19.271549
v -32.399109 -27.505568 17.982258
v -31.566158 -26.764984 17.637241
v -33.121944 -27.505571 16.633038
v -32.372437 -26.764988 16.132244
v -34.091839 -27.505571 15.448917
v -33.454319 -26.764996 14.811398
v -35.275963 -27.505573 14.479023
v -34.775162 -26.764988 13.729519
v -36.625172 -27.505573 13.756207
v -36.280148 -26.764988 12.923244
v -37.914467 -26.764996 12.429188
v -35.978390 -25.896112 12.194736
v -35.709766 -24.930660 11.546223
v -34.337162 -25.896107 13.074009
v -33.947250 -24.930655 12.490467
v -32.896744 -25.896107 14.253826
v -32.400391 -24.930655 13.757473
v -31.716927 -25.896107 15.694248
v -31.133389 -24.930658 15.304333
v -30.837652 -25.896103 17.335484
v -30.189137 -24.930649 17.066853
v -30.298866 -25.896103 19.117733
v -29.610533 -24.930649 18.980831
v -30.114590 -25.896204 20.997738
v -29.412640 -24.930765 21.001141
v -30.298861 -25.896099 22.823315
v -29.610527 -24.930655 22.960232
v -30.837643 -25.896112 24.605572
v -30.189127 -24.930655 24.874203
v -31.716917 -25.896107 26.246815
v -31.133377 -24.930655 26.636723
v -32.896736 -25.896103 27.687229
v -32.400379 -24.930655 28.183590
v -34.337158 -25.896099 28.867062
v -33.947250 -24.930649 29.450596
v -35.978390 -25.896103 29.746334
v -35.709766 -24.930647 30.394848
v -37.760658 -25.896099 30.285122
v -37.623745 -24.930647 30.973438
v -39.613449 -25.896093 30.469372
v -39.613445 -24.930643 31.171337
v -41.466228 -25.896099 30.285122
v -41.603149 -24.930643 30.973438
v -43.248505 -25.896198 29.746319
v -43.517117 -24.930882 30.394833
v -45.279621 -24.931597 29.450504
v -43.762726 -23.900787 30.987789
v -43.996822 -22.838305 31.552982
v -41.728344 -23.900360 31.602848
v -45.636070 -23.902075 29.984005
v -45.975796 -22.840244 30.492512
v -47.279854 -23.915451 28.636608
v -47.711941 -22.859329 29.069126
v -49.132603 -22.911381 27.330639
v -41.847675 -22.837654 32.202763
v -39.613449 -23.900360 31.813190
v -39.613449 -22.837654 32.424969
v -37.498547 -23.900362 31.602848
v -37.379215 -22.837658 32.202763
v -35.464142 -23.900368 30.987827
v -35.230022 -22.837666 31.553066
v -33.590717 -23.900368 29.984165
v -33.250885 -22.837658 30.492771
v -31.946527 -23.900368 28.637432
v -31.513922 -22.837658 29.070042
v -30.599804 -23.900368 26.993244
v -30.091204 -22.837654 27.333080
v -29.596136 -23.900373 25.119816
v -29.030905 -22.837654 25.353962
v -28.981131 -23.900377 23.085423
v -28.381199 -22.837666 23.204762
v -28.770790 -23.900497 21.004765
v -28.158998 -22.837805 21.008503
v -28.981136 -23.900377 18.855625
v -28.381207 -22.837669 18.736294
v -29.596144 -23.900377 16.821224
v -29.030912 -22.837675 16.587093
v -30.599812 -23.900377 14.947811
v -30.091211 -22.837675 14.607975
v -31.946539 -23.900373 13.303616
v -31.513929 -22.837675 12.871006
v -33.590729 -23.900383 11.956890
v -33.250896 -22.837677 11.448296
v -35.464146 -23.900385 10.953232
v -35.230022 -22.837677 10.388000
v -37.379215 -22.837681 9.738285
v -44.379089 -29.348080 20.985584
v -44.648052 -29.104990 19.969090
v -45.381180 -28.702944 19.823246
v -38.687996 -29.493898 16.317989
vn -0.0000 -0.4044 -0.9146
vn -0.0000 -0.0720 -0.9974
vn -0.1946 -0.0719 -0.9782
vn -0.1784 -0.4042 -0.8971
vn 0.1784 -0.4042 -0.8971
vn 0.1946 -0.0719 -0.9782
vn -0.0000 -0.7748 -0.6323
vn 0.1234 -0.7746 -0.6203
vn -0.1234 -0.7746 -0.6203
vn -0.0000 -0.8807 -0.4736
vn 0.0924 -0.8807 -0.4646
vn -0.0924 -0.8807 -0.4646
vn -0.2420 -0.7747 -0.5841
vn -0.1812 -0.8807 -0.4376
vn -0.3500 -0.4044 -0.8450
vn -0.3514 -0.7746 -0.5259
vn -0.2632 -0.8807 -0.3939
vn -0.5082 -0.4042 -0.7605
vn -0.3817 -0.0720 -0.9215
vn -0.5541 -0.0719 -0.8293
vn -0.6467 -0.4044 -0.6467
vn -0.4471 -0.7747 -0.4471
vn -0.7053 -0.0720 -0.7053
vn -0.5556 -0.0000 -0.8315
vn -0.7071 -0.0000 -0.7071
vn -0.3827 -0.0000 -0.9239
vn -0.8293 -0.0719 -0.5541
vn -0.7605 -0.4042 -0.5082
vn -0.8315 -0.0000 -0.5556
vn -0.1951 -0.0000 -0.9808
vn -0.0000 -0.0000 -1.0000
vn 0.1951 -0.0000 -0.9808
vn 0.3817 -0.0719 -0.9215
vn 0.5541 -0.0719 -0.8293
vn 0.5556 -0.0000 -0.8315
vn 0.3827 -0.0000 -0.9239
vn 0.7053 -0.0720 -0.7053
vn 0.7071 -0.0000 -0.7071
vn 0.8293 -0.0719 -0.5541
vn 0.8315 -0.0000 -0.5556
vn 0.9215 -0.0720 -0.3817
vn 0.9784 -0.0718 -0.1940
vn 0.9809 0.0001 -0.1947
vn 0.9239 -0.0000 -0.3827
vn 0.9974 -0.0720 0.0012
vn 1.0000 -0.0000 0.0006
vn 0.9781 -0.0720 0.1952
vn 0.9807 -0.0001 0.1955
vn 0.9215 -0.0720 0.3817
vn 0.8293 -0.0719 0.5541
vn 0.8315 -0.0000 0.5556
vn 0.9239 -0.0000 0.3827
vn 0.7053 -0.0720 0.7053
vn 0.7071 -0.0000 0.7071
vn 0.5541 -0.0719 0.8293
vn 0.5556 -0.0000 0.8315
vn 0.3817 -0.0719 0.9215
vn 0.1946 -0.0719 0.9782
vn 0.1951 -0.0000 0.9808
vn 0.3827 -0.0000 0.9239
vn -0.0000 -0.0720 0.9974
vn -0.0000 -0.0000 1.0000
vn -0.1946 -0.0719 0.9782
vn -0.1951 -0.0000 0.9808
vn -0.3817 -0.0720 0.9215
vn -0.5541 -0.0719 0.8293
vn -0.5556 -0.0000 0.8315
vn -0.3827 -0.0000 0.9239
vn -0.7053 -0.0719 0.7053
vn -0.7071 -0.0000 0.7071
vn -0.8293 -0.0719 0.5541
vn -0.8315 -0.0000 0.5556
vn -0.9215 -0.0720 0.3817
vn -0.9781 -0.0720 0.1952
vn -0.9807 -0.0001 0.1955
vn -0.9239 -0.0000 0.3827
vn -0.9974 -0.0720 0.0012
vn -1.0000 -0.0000 0.0006
vn -0.9784 -0.0719 -0.1940
vn -0.9809 0.0001 -0.1947
vn -0.9215 -0.0719 -0.3817
vn -0.9239 -0.0000 -0.3827
vn -0.8450 -0.4043 -0.3500
vn -0.8972 -0.4042 -0.1777
vn -0.5841 -0.7748 -0.2420
vn -0.6204 -0.7746 -0.1229
vn -0.5259 -0.7746 -0.3514
vn -0.4376 -0.8807 -0.1812
vn -0.3938 -0.8807 -0.2632
vn -0.4646 -0.8807 -0.0921
vn -0.3349 -0.8807 -0.3349
vn -0.3453 -0.8727 -0.3453
vn -0.4061 -0.8726 -0.2713
vn -0.4511 -0.8727 -0.1869
vn -0.2713 -0.8726 -0.4061
vn -0.1869 -0.8727 -0.4511
vn -0.3739 -0.8488 -0.3739
vn -0.2938 -0.8487 -0.4397
vn -0.2023 -0.8488 -0.4885
vn -0.1032 -0.8487 -0.5186
vn -0.0953 -0.8726 -0.4790
vn -0.0000 -0.8488 -0.5288
vn -0.0000 -0.8727 -0.4883
vn 0.0953 -0.8726 -0.4790
vn 0.1032 -0.8487 -0.5186
vn -0.0000 -0.8025 -0.5967
vn 0.1164 -0.8025 -0.5852
vn -0.1164 -0.8025 -0.5852
vn -0.0000 -0.7220 -0.6919
vn 0.1350 -0.7220 -0.6786
vn -0.1350 -0.7220 -0.6786
vn -0.2648 -0.7220 -0.6392
vn -0.2283 -0.8025 -0.5512
vn -0.3844 -0.7220 -0.5753
vn -0.3315 -0.8025 -0.4961
vn -0.4892 -0.7220 -0.4892
vn -0.4219 -0.8025 -0.4219
vn -0.5750 -0.7221 -0.3845
vn -0.4961 -0.8025 -0.3315
vn -0.4397 -0.8487 -0.2938
vn -0.4885 -0.8488 -0.2024
vn -0.5509 -0.8027 -0.2285
vn -0.4790 -0.8727 -0.0950
vn -0.5186 -0.8488 -0.1029
vn -0.5844 -0.8031 -0.1163
vn -0.6380 -0.7228 -0.2653
vn -0.6761 -0.7243 -0.1356
vn -0.6878 -0.7259 -0.0005
vn -0.5951 -0.8037 0.0003
vn -0.5285 -0.8489 0.0006
vn -0.6735 -0.7269 0.1339
vn -0.5831 -0.8040 0.1161
vn -0.5182 -0.8490 0.1034
vn -0.4882 -0.8727 0.0007
vn -0.4788 -0.8727 0.0956
vn -0.4881 -0.8491 0.2022
vn -0.5493 -0.8040 0.2278
vn -0.4510 -0.8727 0.1868
vn -0.4376 -0.8807 0.1812
vn -0.4645 -0.8807 0.0928
vn -0.4736 -0.8807 0.0007
vn -0.5841 -0.7748 0.2420
vn -0.6203 -0.7745 0.1239
vn -0.6322 -0.7748 0.0010
vn -0.9146 -0.4044 0.0015
vn -0.8969 -0.4042 0.1792
vn -0.8450 -0.4044 0.3500
vn -0.5259 -0.7746 0.3514
vn -0.3939 -0.8807 0.2632
vn -0.7605 -0.4042 0.5082
vn -0.6467 -0.4043 0.6467
vn -0.4471 -0.7748 0.4471
vn -0.5082 -0.4042 0.7605
vn -0.3514 -0.7746 0.5259
vn -0.3349 -0.8807 0.3349
vn -0.2632 -0.8807 0.3939
vn -0.2420 -0.7748 0.5841
vn -0.1812 -0.8807 0.4376
vn -0.3500 -0.4044 0.8450
vn -0.1234 -0.7746 0.6203
vn -0.0924 -0.8807 0.4646
vn -0.1784 -0.4042 0.8971
vn -0.0000 -0.4044 0.9146
vn -0.0000 -0.7748 0.6323
vn 0.1784 -0.4042 0.8971
vn 0.1234 -0.7746 0.6203
vn -0.0000 -0.8807 0.4736
vn 0.0924 -0.8807 0.4646
vn 0.2420 -0.7748 0.5841
vn 0.1812 -0.8807 0.4376
vn 0.3500 -0.4044 0.8450
vn 0.3514 -0.7746 0.5259
vn 0.2632 -0.8807 0.3939
vn 0.5082 -0.4042 0.7605
vn 0.6467 -0.4044 0.6467
vn 0.4471 -0.7748 0.4471
vn 0.7605 -0.4042 0.5082
vn 0.5259 -0.7746 0.3514
vn 0.3349 -0.8807 0.3349
vn 0.3939 -0.8807 0.2632
vn 0.5841 -0.7748 0.2420
vn 0.4376 -0.8807 0.1812
vn 0.8450 -0.4044 0.3500
vn 0.6203 -0.7745 0.1239
vn 0.4645 -0.8807 0.0928
vn 0.8969 -0.4042 0.1792
vn 0.9146 -0.4044 0.0015
vn 0.6322 -0.7748 0.0010
vn 0.8972 -0.4042 -0.1777
vn 0.6203 -0.7746 -0.1229
vn 0.4736 -0.8807 0.0007
vn 0.4646 -0.8807 -0.0921
vn 0.5841 -0.7748 -0.2420
vn 0.4376 -0.8807 -0.1812
vn 0.8450 -0.4044 -0.3500
vn 0.5259 -0.7746 -0.3514
vn 0.3939 -0.8807 -0.2632
vn 0.7605 -0.4042 -0.5082
vn 0.6467 -0.4044 -0.6467
vn 0.4471 -0.7748 -0.4471
vn 0.5082 -0.4042 -0.7605
vn 0.3514 -0.7746 -0.5259
vn 0.3349 -0.8807 -0.3349
vn 0.2632 -0.8807 -0.3939
vn 0.2420 -0.7748 -0.5841
vn 0.1812 -0.8807 -0.4376
vn 0.3500 -0.4043 -0.8450
vn 0.1869 -0.8727 -0.4511
vn 0.2713 -0.8726 -0.4061
vn 0.2023 -0.8488 -0.4885
vn 0.2938 -0.8487 -0.4397
vn 0.3453 -0.8727 -0.3453
vn 0.3739 -0.8488 -0.3739
vn 0.4397 -0.8487 -0.2938
vn 0.4061 -0.8726 -0.2713
vn 0.4511 -0.8727 -0.1869
vn 0.4885 -0.8488 -0.2024
vn 0.5187 -0.8487 -0.1028
vn 0.4790 -0.8726 -0.0949
vn 0.4883 -0.8727 0.0007
vn 0.5288 -0.8488 0.0007
vn 0.5186 -0.8487 0.1036
vn 0.4789 -0.8726 0.0957
vn 0.4511 -0.8727 0.1869
vn 0.4885 -0.8488 0.2024
vn 0.4397 -0.8487 0.2938
vn 0.4061 -0.8726 0.2713
vn 0.3453 -0.8727 0.3453
vn 0.3739 -0.8488 0.3739
vn 0.2938 -0.8487 0.4397
vn 0.2713 -0.8726 0.4061
vn 0.1869 -0.8727 0.4511
vn 0.2024 -0.8488 0.4885
vn 0.1032 -0.8487 0.5186
vn 0.0953 -0.8726 0.4790
vn -0.0000 -0.8727 0.4883
vn -0.0000 -0.8488 0.5288
vn -0.1032 -0.8487 0.5186
vn -0.0953 -0.8726 0.4790
vn -0.1869 -0.8727 0.4511
vn -0.2024 -0.8488 0.4885
vn -0.2938 -0.8488 0.4397
vn -0.2713 -0.8726 0.4061
vn -0.3452 -0.8727 0.3453
vn -0.3737 -0.8488 0.3739
vn -0.4393 -0.8489 0.2938
vn -0.4060 -0.8727 0.2713
vn -0.4212 -0.8029 0.4219
vn -0.4946 -0.8035 0.3313
vn -0.5716 -0.7250 0.3843
vn -0.6344 -0.7266 0.2637
vn -0.4874 -0.7232 0.4894
vn -0.6407 -0.6343 0.4326
vn -0.7113 -0.6372 0.2966
vn -0.7555 -0.6378 0.1498
vn -0.7715 -0.6362 -0.0017
vn -0.8072 -0.5683 0.1597
vn -0.8242 -0.5663 -0.0031
vn -0.7595 -0.5676 0.3178
vn -0.8099 -0.5627 -0.1657
vn -0.7585 -0.6333 -0.1536
vn -0.7645 -0.5595 -0.3203
vn -0.7161 -0.6308 -0.2989
vn -0.6895 -0.5579 -0.4618
vn -0.6458 -0.6295 -0.4321
vn -0.5869 -0.5577 -0.5869
vn -0.5495 -0.6293 -0.5495
vn -0.4612 -0.5577 -0.6902
vn -0.4318 -0.6293 -0.6462
vn -0.3176 -0.5577 -0.7668
vn -0.2974 -0.6293 -0.7180
vn -0.1619 -0.5577 -0.8141
vn -0.1516 -0.6293 -0.7623
vn -0.0000 -0.5577 -0.8300
vn -0.0000 -0.6293 -0.7772
vn 0.1516 -0.6293 -0.7623
vn 0.1619 -0.5577 -0.8141
vn -0.0000 -0.5134 -0.8581
vn 0.1674 -0.5134 -0.8417
vn -0.1674 -0.5134 -0.8417
vn -0.0000 -0.4989 -0.8666
vn 0.1691 -0.4989 -0.8500
vn -0.1691 -0.4989 -0.8500
vn -0.3317 -0.4989 -0.8007
vn -0.3284 -0.5134 -0.7928
vn -0.4815 -0.4989 -0.7206
vn -0.4768 -0.5134 -0.7135
vn -0.6128 -0.4989 -0.6128
vn -0.6068 -0.5134 -0.6068
vn -0.7197 -0.4992 -0.4826
vn -0.7127 -0.5137 -0.4776
vn -0.7974 -0.5009 -0.3366
vn -0.7900 -0.5153 -0.3322
vn -0.8453 -0.5043 -0.1766
vn -0.8372 -0.5188 -0.1731
vn -0.8611 -0.5084 -0.0058
vn -0.8525 -0.5227 -0.0044
vn -0.8436 -0.5105 0.1663
vn -0.8350 -0.5249 0.1650
vn -0.7928 -0.5097 0.3342
vn -0.7852 -0.5241 0.3298
vn -0.7116 -0.5058 0.4877
vn -0.7056 -0.5202 0.4811
vn -0.6834 -0.5640 0.4636
vn -0.5829 -0.5601 0.5887
vn -0.6017 -0.5161 0.6096
vn -0.5465 -0.6312 0.5503
vn -0.4600 -0.5582 0.6905
vn -0.4310 -0.6297 0.6464
vn -0.3839 -0.7222 0.5753
vn -0.3313 -0.8025 0.4961
vn -0.2647 -0.7221 0.6392
vn -0.2973 -0.6294 0.7180
vn -0.2283 -0.8025 0.5512
vn -0.1350 -0.7220 0.6786
vn -0.1164 -0.8025 0.5852
vn -0.0000 -0.7220 0.6919
vn -0.0000 -0.8025 0.5967
vn 0.1350 -0.7220 0.6786
vn 0.1164 -0.8025 0.5852
vn 0.2648 -0.7220 0.6392
vn 0.2283 -0.8025 0.5512
vn 0.3844 -0.7220 0.5753
vn 0.3315 -0.8025 0.4961
vn 0.4892 -0.7220 0.4892
vn 0.4219 -0.8025 0.4219
vn 0.5753 -0.7220 0.3844
vn 0.4961 -0.8025 0.3315
vn 0.6392 -0.7220 0.2648
vn 0.5512 -0.8025 0.2283
vn 0.5851 -0.8025 0.1168
vn 0.6785 -0.7220 0.1355
vn 0.6919 -0.7220 0.0010
vn 0.5967 -0.8025 0.0008
vn 0.6787 -0.7220 -0.1345
vn 0.5853 -0.8025 -0.1160
vn 0.6392 -0.7220 -0.2648
vn 0.5512 -0.8025 -0.2283
vn 0.4961 -0.8025 -0.3315
vn 0.5753 -0.7220 -0.3844
vn 0.4892 -0.7220 -0.4892
vn 0.4219 -0.8025 -0.4219
vn 0.3844 -0.7220 -0.5753
vn 0.3315 -0.8025 -0.4961
vn 0.2648 -0.7220 -0.6392
vn 0.2283 -0.8025 -0.5512
vn 0.2974 -0.6293 -0.7180
vn 0.4318 -0.6293 -0.6462
vn 0.3176 -0.5577 -0.7668
vn 0.4612 -0.5577 -0.6902
vn 0.5869 -0.5577 -0.5869
vn 0.5495 -0.6293 -0.5495
vn 0.6902 -0.5577 -0.4612
vn 0.6462 -0.6293 -0.4318
vn 0.7668 -0.5577 -0.3176
vn 0.7180 -0.6293 -0.2974
vn 0.8142 -0.5577 -0.1613
vn 0.7624 -0.6292 -0.1511
vn 0.8300 -0.5577 0.0012
vn 0.7771 -0.6293 0.0011
vn 0.8140 -0.5577 0.1626
vn 0.7621 -0.6293 0.1522
vn 0.7668 -0.5577 0.3176
vn 0.7180 -0.6293 0.2974
vn 0.6902 -0.5577 0.4612
vn 0.6462 -0.6293 0.4318
vn 0.5869 -0.5577 0.5869
vn 0.5495 -0.6293 0.5495
vn 0.4612 -0.5577 0.6902
vn 0.4318 -0.6293 0.6462
vn 0.3176 -0.5577 0.7668
vn 0.2974 -0.6293 0.7180
vn 0.1619 -0.5577 0.8141
vn 0.1516 -0.6293 0.7623
vn -0.0000 -0.5577 0.8300
vn -0.0000 -0.6293 0.7772
vn -0.1619 -0.5577 0.8141
vn -0.1516 -0.6293 0.7623
vn -0.3175 -0.5578 0.7668
vn -0.1674 -0.5134 0.8417
vn -0.3282 -0.5135 0.7928
vn -0.4752 -0.5139 0.7142
vn -0.3314 -0.4990 0.8007
vn -0.4796 -0.4994 0.7215
vn -0.1690 -0.4989 0.8500
vn -0.6066 -0.5016 0.6168
vn -0.0000 -0.4989 0.8667
vn -0.0000 -0.5134 0.8581
vn 0.1691 -0.4989 0.8500
vn 0.1674 -0.5134 0.8417
vn 0.3316 -0.4989 0.8007
vn 0.3284 -0.5134 0.7928
vn 0.4815 -0.4989 0.7206
vn 0.4768 -0.5134 0.7135
vn 0.6128 -0.4989 0.6128
vn 0.6068 -0.5134 0.6068
vn 0.7206 -0.4989 0.4815
vn 0.7135 -0.5134 0.4768
vn 0.8007 -0.4989 0.3317
vn 0.7928 -0.5134 0.3284
vn 0.8499 -0.4989 0.1698
vn 0.8415 -0.5134 0.1681
vn 0.8666 -0.4989 0.0015
vn 0.8581 -0.5134 0.0014
vn 0.8418 -0.5134 -0.1668
vn 0.8502 -0.4988 -0.1684
vn 0.8007 -0.4989 -0.3316
vn 0.7928 -0.5134 -0.3284
vn 0.7206 -0.4989 -0.4815
vn 0.7135 -0.5134 -0.4768
vn 0.6128 -0.4989 -0.6128
vn 0.6068 -0.5134 -0.6068
vn 0.4815 -0.4989 -0.7206
vn 0.4768 -0.5134 -0.7135
vn 0.3317 -0.4989 -0.8007
vn 0.3284 -0.5134 -0.7928
vt 0.282414 0.914832
vt 0.282413 0.915443
vt 0.278562 0.915440
vt 0.278563 0.914830
vt 0.286264 0.914833
vt 0.286264 0.915444
vt 0.055962 0.647157
vt 0.055960 0.646765
vt 0.059638 0.647109
vt 0.059564 0.647494
vt 0.052365 0.647540
vt 0.052286 0.647157
vt 0.055951 0.645419
vt 0.059892 0.645791
vt 0.052015 0.645842
vt 0.048757 0.648251
vt 0.048237 0.647018
vt 0.048908 0.648611
vt 0.045509 0.650014
vt 0.044758 0.648902
vt 0.045728 0.650338
vt 0.274712 0.915434
vt 0.274713 0.914824
vt 0.270861 0.915427
vt 0.270862 0.914816
vt 0.042942 0.652646
vt 0.042664 0.652371
vt 0.267010 0.915419
vt 0.267011 0.914809
vt 0.270826 0.932518
vt 0.266967 0.932508
vt 0.274685 0.932524
vt 0.263159 0.915408
vt 0.263160 0.914798
vt 0.263108 0.932498
vt 0.278544 0.932528
vt 0.282403 0.932532
vt 0.286262 0.932534
vt 0.290115 0.915444
vt 0.293966 0.915441
vt 0.293980 0.932532
vt 0.290121 0.932533
vt 0.297817 0.915438
vt 0.297839 0.932527
vt 0.301668 0.915432
vt 0.301698 0.932522
vt 0.305519 0.915425
vt 0.309370 0.915415
vt 0.309415 0.932505
vt 0.305556 0.932514
vt 0.313281 0.915404
vt 0.313274 0.932494
vt 0.317072 0.915391
vt 0.317133 0.932481
vt 0.320923 0.915377
vt 0.324774 0.915360
vt 0.324851 0.932450
vt 0.320992 0.932466
vt 0.328625 0.915342
vt 0.328710 0.932431
vt 0.332476 0.915321
vt 0.332568 0.932412
vt 0.336327 0.915300
vt 0.340178 0.915275
vt 0.340286 0.932367
vt 0.336427 0.932390
vt 0.344029 0.915251
vt 0.344142 0.932326
vt 0.220798 0.915175
vt 0.224649 0.915204
vt 0.224520 0.932296
vt 0.220664 0.932250
vt 0.228500 0.915233
vt 0.232351 0.915259
vt 0.232237 0.932351
vt 0.228379 0.932324
vt 0.236202 0.915285
vt 0.236096 0.932375
vt 0.240053 0.915308
vt 0.239955 0.932398
vt 0.243904 0.915330
vt 0.247755 0.915348
vt 0.247673 0.932438
vt 0.243814 0.932419
vt 0.251546 0.915367
vt 0.251532 0.932456
vt 0.255457 0.915382
vt 0.255390 0.932472
vt 0.259308 0.915397
vt 0.259249 0.932486
vt 0.259310 0.914786
vt 0.255459 0.914771
vt 0.038612 0.658508
vt 0.038975 0.658656
vt 0.037947 0.662125
vt 0.037562 0.662051
vt 0.040339 0.655242
vt 0.040665 0.655458
vt 0.037368 0.658002
vt 0.039218 0.654502
vt 0.036243 0.661797
vt 0.041710 0.651426
vt 0.039371 0.649114
vt 0.036473 0.652691
vt 0.034321 0.656762
vt 0.042916 0.646176
vt 0.046959 0.643983
vt 0.036284 0.646063
vt 0.040482 0.642581
vt 0.045271 0.639973
vt 0.050484 0.638369
vt 0.051353 0.642621
vt 0.055907 0.637804
vt 0.055931 0.642135
vt 0.060515 0.642563
vt 0.061335 0.638303
vt 0.055885 0.633294
vt 0.062192 0.633879
vt 0.049586 0.633953
vt 0.055865 0.628701
vt 0.063067 0.629372
vt 0.048672 0.629454
vt 0.041759 0.631586
vt 0.043532 0.635820
vt 0.035401 0.635036
vt 0.037964 0.638844
vt 0.029830 0.639653
vt 0.033086 0.642889
vt 0.025270 0.645273
vt 0.029094 0.647812
vt 0.032850 0.650302
vt 0.030299 0.655125
vt 0.026128 0.653416
vt 0.033011 0.661176
vt 0.028746 0.660356
vt 0.024320 0.659495
vt 0.021883 0.651671
vt 0.019819 0.658613
vt 0.019143 0.665931
vt 0.023726 0.665900
vt 0.028237 0.665868
vt 0.019900 0.673031
vt 0.024388 0.672119
vt 0.028807 0.671216
vt 0.032582 0.665829
vt 0.033063 0.670339
vt 0.030423 0.676429
vt 0.026266 0.678179
vt 0.034424 0.674736
vt 0.037458 0.673454
vt 0.036288 0.669673
vt 0.035874 0.665800
vt 0.038696 0.672932
vt 0.037605 0.669403
vt 0.037218 0.665789
vt 0.037610 0.665785
vt 0.037989 0.669324
vt 0.039057 0.672780
vt 0.040462 0.676177
vt 0.039350 0.676931
vt 0.040786 0.675957
vt 0.243907 0.914719
vt 0.247758 0.914738
vt 0.240056 0.914697
vt 0.043097 0.678740
vt 0.042822 0.679019
vt 0.236206 0.914675
vt 0.232355 0.914649
vt 0.045911 0.681014
vt 0.045696 0.681341
vt 0.041879 0.679976
vt 0.044958 0.682463
vt 0.048965 0.683064
vt 0.048461 0.684308
vt 0.049112 0.682701
vt 0.052509 0.684110
vt 0.052258 0.685428
vt 0.052583 0.683725
vt 0.228504 0.914623
vt 0.224653 0.914593
vt 0.056186 0.684060
vt 0.056189 0.684451
vt 0.220794 0.914565
vt 0.344034 0.914641
vt 0.340174 0.914664
vt 0.059784 0.683679
vt 0.059863 0.684062
vt 0.056199 0.685793
vt 0.060135 0.685376
vt 0.063393 0.682970
vt 0.063916 0.684207
vt 0.063240 0.682610
vt 0.066638 0.681206
vt 0.067392 0.682316
vt 0.066418 0.680882
vt 0.336323 0.914689
vt 0.332473 0.914711
vt 0.069203 0.678572
vt 0.069481 0.678847
vt 0.328622 0.914732
vt 0.324771 0.914749
vt 0.071478 0.675760
vt 0.071804 0.675975
vt 0.070437 0.679789
vt 0.072925 0.676713
vt 0.073529 0.672709
vt 0.074772 0.673213
vt 0.073167 0.672561
vt 0.074578 0.669168
vt 0.075899 0.669420
vt 0.074193 0.669094
vt 0.320921 0.914767
vt 0.317070 0.914781
vt 0.074529 0.665552
vt 0.074920 0.665551
vt 0.313281 0.914794
vt 0.309368 0.914804
vt 0.074148 0.661897
vt 0.074532 0.661819
vt 0.076261 0.665545
vt 0.075848 0.661548
vt 0.073440 0.658291
vt 0.074676 0.657770
vt 0.073080 0.658443
vt 0.071677 0.655046
vt 0.072788 0.654293
vt 0.071353 0.655265
vt 0.305518 0.914814
vt 0.301667 0.914821
vt 0.069044 0.652482
vt 0.069319 0.652204
vt 0.297816 0.914828
vt 0.293966 0.914831
vt 0.066232 0.650208
vt 0.066448 0.649881
vt 0.070263 0.651249
vt 0.067187 0.648760
vt 0.063181 0.648157
vt 0.063688 0.646914
vt 0.063033 0.648519
vt 0.290115 0.914834
vt 0.064928 0.643868
vt 0.068998 0.646015
vt 0.066562 0.639848
vt 0.071385 0.642390
vt 0.072575 0.648907
vt 0.075625 0.645817
vt 0.079110 0.650008
vt 0.075513 0.652447
vt 0.077700 0.656491
vt 0.081707 0.654798
vt 0.083314 0.660010
vt 0.079073 0.660883
vt 0.079547 0.665527
vt 0.083898 0.665508
vt 0.083394 0.670859
vt 0.079135 0.670039
vt 0.077817 0.674449
vt 0.081831 0.676079
vt 0.079299 0.680903
vt 0.075672 0.678520
vt 0.072780 0.682098
vt 0.075874 0.685143
vt 0.071682 0.688626
vt 0.069241 0.685036
vt 0.065199 0.687235
vt 0.066894 0.691231
vt 0.061686 0.692846
vt 0.060803 0.688596
vt 0.056227 0.689082
vt 0.056265 0.693422
vt 0.050834 0.692922
vt 0.051643 0.688658
vt 0.047228 0.687357
vt 0.045602 0.691380
vt 0.040773 0.688841
vt 0.043153 0.685212
vt 0.039570 0.682320
vt 0.036526 0.685416
vt 0.033034 0.681221
vt 0.036626 0.678780
vt 0.033360 0.688625
vt 0.029302 0.683750
vt 0.025508 0.686321
vt 0.022046 0.679954
vt 0.030140 0.691893
vt 0.021680 0.688916
vt 0.017798 0.681737
vt 0.015384 0.673942
vt 0.014525 0.665959
vt 0.010774 0.674869
vt 0.009805 0.665983
vt 0.013464 0.683560
vt 0.010616 0.656781
vt 0.015273 0.657712
vt 0.013175 0.648068
vt 0.017585 0.649897
vt 0.017417 0.640040
vt 0.021396 0.642694
vt 0.023143 0.632994
vt 0.026532 0.636370
vt 0.030137 0.627204
vt 0.032804 0.631175
vt 0.038121 0.622880
vt 0.039965 0.627293
vt 0.046798 0.620204
vt 0.047747 0.624893
vt 0.055830 0.619263
vt 0.055847 0.624047
vt 0.063956 0.624804
vt 0.064872 0.620108
vt 0.055813 0.614334
vt 0.065816 0.615271
vt 0.045821 0.615373
vt 0.055796 0.609271
vt 0.066785 0.610303
vt 0.044817 0.610412
vt 0.034270 0.613661
vt 0.036221 0.618332
vt 0.024564 0.618911
vt 0.027388 0.623113
vt 0.016065 0.625942
vt 0.019652 0.629515
vt 0.009107 0.634490
vt 0.013317 0.637303
vt 0.003974 0.644233
vt 0.008634 0.646179
vt 0.000922 0.654817
vt 0.005829 0.655816
vt 0.000000 0.666007
vt 0.004962 0.666001
vt 0.001221 0.676799
vt 0.006053 0.675822
vt 0.004491 0.687373
vt 0.009028 0.685439
vt 0.009652 0.697149
vt 0.013755 0.694322
vt 0.017767 0.691578
vt 0.023539 0.698606
vt 0.020104 0.702113
vt 0.026881 0.695204
vt 0.030596 0.704327
vt 0.033220 0.700330
vt 0.035775 0.696442
vt 0.038296 0.692606
vt 0.042182 0.699809
vt 0.040432 0.704121
vt 0.043908 0.695556
vt 0.049122 0.701856
vt 0.049986 0.697347
vt 0.056326 0.702519
vt 0.056296 0.697928
vt 0.063519 0.701757
vt 0.062595 0.697260
vt 0.070428 0.699615
vt 0.068645 0.695384
vt 0.076783 0.696160
vt 0.074209 0.692357
vt 0.082347 0.691538
vt 0.079082 0.688310
vt 0.086897 0.685916
vt 0.083064 0.683385
vt 0.090278 0.679520
vt 0.086012 0.677783
vt 0.087814 0.671713
vt 0.092308 0.672579
vt 0.092984 0.665478
vt 0.088399 0.665491
vt 0.092236 0.658184
vt 0.087733 0.659103
vt 0.090098 0.651274
vt 0.085853 0.653059
vt 0.082852 0.647481
vt 0.086645 0.644919
vt 0.082024 0.639351
vt 0.078797 0.642614
vt 0.076401 0.634801
vt 0.073870 0.638630
vt 0.070003 0.631426
vt 0.068266 0.635675
vt 0.071765 0.627119
vt 0.078968 0.630920
vt 0.073577 0.622692
vt 0.081608 0.626932
vt 0.088661 0.632650
vt 0.085300 0.636048
vt 0.094450 0.639650
vt 0.090514 0.642311
vt 0.098816 0.647619
vt 0.094378 0.649484
vt 0.101507 0.656301
vt 0.096804 0.657252
vt 0.102404 0.665478
vt 0.097632 0.665474
vt 0.101583 0.674375
vt 0.096883 0.673464
vt 0.099008 0.683086
vt 0.094582 0.681278
vt 0.094770 0.691120
vt 0.090780 0.688482
vt 0.089054 0.698178
vt 0.085655 0.694812
vt 0.082066 0.703980
vt 0.079389 0.700016
vt 0.074086 0.708315
vt 0.072233 0.703905
vt 0.065412 0.711002
vt 0.064453 0.706316
vt 0.056382 0.711956
vt 0.056354 0.707173
vt 0.047340 0.711123
vt 0.048244 0.706425
vt 0.038633 0.708552
vt 0.046407 0.715962
vt 0.036778 0.713118
vt 0.027893 0.708445
vt 0.034871 0.717806
vt 0.025119 0.712675
vt 0.045447 0.720932
vt 0.016585 0.705719
vt 0.056433 0.721947
vt 0.056408 0.716885
vt 0.067409 0.720792
vt 0.066397 0.715832
vt 0.077953 0.717528
vt 0.075994 0.712860
vt 0.087654 0.712262
vt 0.084823 0.708065
vt 0.096149 0.705212
vt 0.092554 0.701648
vt 0.103100 0.696635
vt 0.098880 0.693841
vt 0.108254 0.686872
vt 0.103569 0.684953
vt 0.111398 0.676291
vt 0.106428 0.675316
vt 0.112473 0.665469
vt 0.107368 0.665477
vt 0.106306 0.655322
vt 0.111225 0.654309
vt 0.108011 0.643756
vt 0.103349 0.645713
vt 0.102737 0.634057
vt 0.098540 0.636889
vt 0.095699 0.625561
vt 0.092133 0.629153
vt 0.087127 0.618605
vt 0.084330 0.622824
vt 0.077367 0.613448
vt 0.075447 0.618132
vt 0.251546 0.914756
s 1
f 1/1/1 2/2/2 26/3/3 4/4/4
f 2/2/2 1/1/1 3/5/5 416/6/6
f 1/7/1 5/8/7 6/9/8 3/10/5
f 5/8/7 1/7/1 4/11/4 8/12/9
f 5/8/7 7/13/10 195/14/11 6/9/8
f 7/13/10 5/8/7 8/12/9 9/15/12
f 10/16/13 11/17/14 9/15/12 8/12/9
f 13/18/15 10/16/13 8/12/9 4/11/4
f 11/17/14 10/16/13 12/19/16 85/20/17
f 10/16/13 13/18/15 15/21/18 12/19/16
f 14/22/19 13/23/15 4/4/4 26/3/3
f 13/23/15 14/22/19 17/24/20 15/25/18
f 16/26/21 80/27/22 12/19/16 15/21/18
f 19/28/23 16/29/21 15/25/18 17/24/20
f 19/28/23 17/24/20 18/30/24 21/31/25
f 18/30/24 17/24/20 14/22/19 23/32/26
f 16/29/21 19/28/23 20/33/27 75/34/28
f 22/35/29 20/33/27 19/28/23 21/31/25
f 26/3/3 24/36/30 23/32/26 14/22/19
f 25/37/31 24/36/30 26/3/3 2/2/2
f 2/2/2 416/6/6 27/38/32 25/37/31
f 29/39/33 31/40/34 30/41/35 28/42/36
f 27/38/32 416/6/6 29/39/33 28/42/36
f 30/41/35 31/40/34 33/43/37 32/44/38
f 33/43/37 185/45/39 34/46/40 32/44/38
f 36/47/41 38/48/42 37/49/43 35/50/44
f 34/46/40 185/45/39 36/47/41 35/50/44
f 37/49/43 38/48/42 40/51/45 39/52/46
f 40/51/45 173/53/47 41/54/48 39/52/46
f 43/55/49 45/56/50 44/57/51 42/58/52
f 41/54/48 173/53/47 43/55/49 42/58/52
f 44/57/51 45/56/50 47/59/53 46/60/54
f 47/59/53 161/61/55 48/62/56 46/60/54
f 50/63/57 52/64/58 51/65/59 49/66/60
f 48/62/56 161/61/55 50/63/57 49/66/60
f 51/65/59 52/64/58 54/67/61 53/68/62
f 54/69/61 149/70/63 55/71/64 53/72/62
f 57/73/65 59/74/66 58/75/67 56/76/68
f 55/71/64 149/70/63 57/73/65 56/76/68
f 58/75/67 59/74/66 61/77/69 60/78/70
f 61/77/69 137/79/71 62/80/72 60/78/70
f 64/81/73 66/82/74 65/83/75 63/84/76
f 62/80/72 137/79/71 64/81/73 63/84/76
f 65/83/75 66/82/74 68/85/77 67/86/78
f 68/85/77 72/87/79 69/88/80 67/86/78
f 71/89/81 20/33/27 22/35/29 70/90/82
f 69/88/80 72/87/79 71/89/81 70/90/82
f 73/91/83 71/89/81 72/87/79 74/92/84
f 71/89/81 73/91/83 75/34/28 20/33/27
f 76/93/85 73/94/83 74/95/84 78/96/86
f 73/94/83 76/93/85 79/97/87 75/98/28
f 76/93/85 77/99/88 81/100/89 79/97/87
f 77/99/88 76/93/85 78/96/86 414/101/90
f 80/27/22 16/26/21 75/98/28 79/97/87
f 83/102/91 80/27/22 79/97/87 81/100/89
f 84/103/92 83/102/91 81/100/89 82/104/93
f 77/99/88 111/105/94 82/104/93 81/100/89
f 83/102/91 84/103/92 86/106/95 85/20/17
f 80/27/22 83/102/91 85/20/17 12/19/16
f 88/107/96 11/17/14 85/20/17 86/106/95
f 84/103/92 108/108/97 87/109/98 86/106/95
f 89/110/99 88/107/96 86/106/95 87/109/98
f 89/110/99 91/111/100 90/112/101 88/107/96
f 9/15/12 11/17/14 88/107/96 90/112/101
f 91/111/100 94/113/102 92/114/103 90/112/101
f 7/13/10 9/15/12 90/112/101 92/114/103
f 7/13/10 92/114/103 93/115/104 195/14/11
f 92/114/103 94/113/102 95/116/105 93/115/104
f 95/116/105 94/113/102 96/117/106 97/118/107
f 94/113/102 91/111/100 99/119/108 96/117/106
f 98/120/109 337/121/110 97/118/107 96/117/106
f 100/122/111 98/120/109 96/117/106 99/119/108
f 102/123/112 100/122/111 99/119/108 101/124/113
f 91/111/100 89/110/99 101/124/113 99/119/108
f 104/125/114 102/123/112 101/124/113 103/126/115
f 89/110/99 87/109/98 103/126/115 101/124/113
f 106/127/116 104/125/114 103/126/115 105/128/117
f 87/109/98 108/108/97 105/128/117 103/126/115
f 258/129/118 106/127/116 105/128/117 107/130/119
f 108/108/97 109/131/120 107/130/119 105/128/117
f 108/108/97 84/103/92 82/104/93 109/131/120
f 109/131/120 110/132/121 113/133/122 107/130/119
f 111/105/94 110/132/121 109/131/120 82/104/93
f 110/132/121 111/105/94 415/134/123 112/135/124
f 110/132/121 112/135/124 115/136/125 113/133/122
f 114/137/126 258/129/118 107/130/119 113/133/122
f 116/138/127 114/137/126 113/133/122 115/136/125
f 118/139/128 116/138/127 115/136/125 117/140/129
f 112/135/124 120/141/130 117/140/129 115/136/125
f 246/142/131 118/139/128 117/140/129 119/143/132
f 120/141/130 122/144/133 119/143/132 117/140/129
f 121/145/134 120/141/130 112/135/124 415/134/123
f 120/141/130 121/145/134 124/146/135 122/144/133
f 122/144/133 123/147/136 243/148/137 119/143/132
f 125/149/138 123/147/136 122/144/133 124/146/135
f 127/150/139 125/149/138 124/146/135 126/151/140
f 121/145/134 128/152/141 126/151/140 124/146/135
f 132/153/142 127/150/139 126/151/140 129/154/143
f 128/152/141 130/155/144 129/154/143 126/151/140
f 130/155/144 413/156/145 131/157/146 129/154/143
f 134/158/147 132/153/142 129/154/143 131/157/146
f 127/150/139 132/153/142 133/159/148 238/160/149
f 132/153/142 134/158/147 135/161/150 133/159/148
f 64/81/73 134/162/147 131/163/146 66/82/74
f 134/162/147 64/81/73 137/79/71 135/164/150
f 136/165/151 139/166/152 133/159/148 135/161/150
f 61/77/69 136/167/151 135/164/150 137/79/71
f 136/167/151 61/77/69 59/74/66 138/168/153
f 139/166/152 136/165/151 138/169/153 141/170/154
f 139/166/152 140/171/155 238/160/149 133/159/148
f 140/171/155 139/166/152 141/170/154 142/172/156
f 143/173/157 144/174/158 142/172/156 141/170/154
f 146/175/159 143/173/157 141/170/154 138/169/153
f 144/174/158 143/173/157 145/176/160 229/177/161
f 143/173/157 146/175/159 147/178/162 145/176/160
f 57/73/65 146/179/159 138/168/153 59/74/66
f 146/179/159 57/73/65 149/70/63 147/180/162
f 148/181/163 151/182/164 145/176/160 147/178/162
f 54/69/61 148/183/163 147/180/162 149/70/63
f 148/184/163 54/67/61 52/64/58 150/185/165
f 151/182/164 148/181/163 150/186/165 153/187/166
f 151/182/164 152/188/167 229/177/161 145/176/160
f 152/188/167 151/182/164 153/187/166 154/189/168
f 155/190/169 156/191/170 154/189/168 153/187/166
f 158/192/171 155/190/169 153/187/166 150/186/165
f 156/191/170 155/190/169 157/193/172 220/194/173
f 155/190/169 158/192/171 159/195/174 157/193/172
f 50/63/57 158/196/171 150/185/165 52/64/58
f 158/196/171 50/63/57 161/61/55 159/197/174
f 160/198/175 163/199/176 157/193/172 159/195/174
f 47/59/53 160/200/175 159/197/174 161/61/55
f 160/200/175 47/59/53 45/56/50 162/201/177
f 163/199/176 160/198/175 162/202/177 165/203/178
f 163/199/176 164/204/179 220/194/173 157/193/172
f 164/204/179 163/199/176 165/203/178 166/205/180
f 167/206/181 168/207/182 166/205/180 165/203/178
f 170/208/183 167/206/181 165/203/178 162/202/177
f 168/207/182 167/206/181 169/209/184 211/210/185
f 167/206/181 170/208/183 171/211/186 169/209/184
f 43/55/49 170/212/183 162/201/177 45/56/50
f 170/212/183 43/55/49 173/53/47 171/213/186
f 172/214/187 175/215/188 169/209/184 171/211/186
f 40/51/45 172/216/187 171/213/186 173/53/47
f 172/216/187 40/51/45 38/48/42 174/217/189
f 175/215/188 172/214/187 174/218/189 177/219/190
f 175/215/188 176/220/191 211/210/185 169/209/184
f 176/220/191 175/215/188 177/219/190 178/221/192
f 179/222/193 180/223/194 178/221/192 177/219/190
f 182/224/195 179/222/193 177/219/190 174/218/189
f 180/223/194 179/222/193 181/225/196 202/226/197
f 179/222/193 182/224/195 183/227/198 181/225/196
f 36/47/41 182/228/195 174/217/189 38/48/42
f 182/228/195 36/47/41 185/45/39 183/229/198
f 184/230/199 187/231/200 181/225/196 183/227/198
f 33/43/37 184/232/199 183/229/198 185/45/39
f 184/232/199 33/43/37 31/40/34 186/233/201
f 187/231/200 184/230/199 186/234/201 189/235/202
f 187/231/200 188/236/203 202/226/197 181/225/196
f 188/236/203 187/231/200 189/235/202 190/237/204
f 191/238/205 192/239/206 190/237/204 189/235/202
f 193/240/207 191/238/205 189/235/202 186/234/201
f 192/239/206 191/238/205 6/9/8 195/14/11
f 191/238/205 193/240/207 3/10/5 6/9/8
f 29/39/33 193/241/207 186/233/201 31/40/34
f 193/241/207 29/39/33 416/6/6 3/5/5
f 192/239/206 194/242/208 197/243/209 190/237/204
f 194/242/208 192/239/206 195/14/11 93/115/104
f 194/242/208 196/244/210 198/245/211 197/243/209
f 196/244/210 194/242/208 93/115/104 95/116/105
f 199/246/212 188/236/203 190/237/204 197/243/209
f 200/247/213 199/246/212 197/243/209 198/245/211
f 199/246/212 200/247/213 203/248/214 201/249/215
f 188/236/203 199/246/212 201/249/215 202/226/197
f 204/250/216 180/223/194 202/226/197 201/249/215
f 205/251/217 204/250/216 201/249/215 203/248/214
f 205/251/217 207/252/218 206/253/219 204/250/216
f 180/223/194 204/250/216 206/253/219 178/221/192
f 208/254/220 176/220/191 178/221/192 206/253/219
f 209/255/221 208/254/220 206/253/219 207/252/218
f 209/255/221 212/256/222 210/257/223 208/254/220
f 176/220/191 208/254/220 210/257/223 211/210/185
f 213/258/224 168/207/182 211/210/185 210/257/223
f 214/259/225 213/258/224 210/257/223 212/256/222
f 213/258/224 214/259/225 216/260/226 215/261/227
f 168/207/182 213/258/224 215/261/227 166/205/180
f 217/262/228 164/204/179 166/205/180 215/261/227
f 218/263/229 217/262/228 215/261/227 216/260/226
f 217/262/228 218/263/229 221/264/230 219/265/231
f 164/204/179 217/262/228 219/265/231 220/194/173
f 222/266/232 156/191/170 220/194/173 219/265/231
f 223/267/233 222/266/232 219/265/231 221/264/230
f 222/266/232 223/267/233 225/268/234 224/269/235
f 156/191/170 222/266/232 224/269/235 154/189/168
f 226/270/236 152/188/167 154/189/168 224/269/235
f 227/271/237 226/270/236 224/269/235 225/268/234
f 226/270/236 227/271/237 230/272/238 228/273/239
f 152/188/167 226/270/236 228/273/239 229/177/161
f 231/274/240 144/174/158 229/177/161 228/273/239
f 232/275/241 231/274/240 228/273/239 230/272/238
f 231/274/240 232/275/241 234/276/242 233/277/243
f 144/174/158 231/274/240 233/277/243 142/172/156
f 235/278/244 140/171/155 142/172/156 233/277/243
f 236/279/245 235/278/244 233/277/243 234/276/242
f 235/278/244 236/279/245 239/280/246 237/281/247
f 140/171/155 235/278/244 237/281/247 238/160/149
f 125/149/138 127/150/139 238/160/149 237/281/247
f 123/147/136 125/149/138 237/281/247 239/280/246
f 239/280/246 236/279/245 242/282/248 240/283/249
f 123/147/136 239/280/246 240/283/249 243/148/137
f 241/284/250 244/285/251 243/148/137 240/283/249
f 300/286/252 241/284/250 240/283/249 242/282/248
f 244/285/251 246/142/131 119/143/132 243/148/137
f 244/285/251 241/284/250 297/287/253 245/288/254
f 246/142/131 244/285/251 245/288/254 247/289/255
f 118/139/128 246/142/131 247/289/255 249/290/256
f 248/291/257 250/292/258 249/290/256 247/289/255
f 294/293/259 248/291/257 247/289/255 245/288/254
f 250/292/258 252/294/260 251/295/261 249/290/256
f 116/138/127 118/139/128 249/290/256 251/295/261
f 252/294/260 254/296/262 253/297/263 251/295/261
f 114/137/126 116/138/127 251/295/261 253/297/263
f 254/296/262 256/298/264 255/299/265 253/297/263
f 258/129/118 114/137/126 253/297/263 255/299/265
f 256/298/264 259/300/266 257/301/267 255/299/265
f 106/127/116 258/129/118 255/299/265 257/301/267
f 259/300/266 261/302/268 260/303/269 257/301/267
f 104/125/114 106/127/116 257/301/267 260/303/269
f 261/302/268 263/304/270 262/305/271 260/303/269
f 102/123/112 104/125/114 260/303/269 262/305/271
f 263/304/270 265/306/272 264/307/273 262/305/271
f 100/122/111 102/123/112 262/305/271 264/307/273
f 265/306/272 268/308/274 266/309/275 264/307/273
f 98/120/109 100/122/111 264/307/273 266/309/275
f 337/121/110 98/120/109 266/309/275 267/310/276
f 268/308/274 269/311/277 267/310/276 266/309/275
f 269/311/277 268/308/274 270/312/278 271/313/279
f 268/308/274 265/306/272 273/314/280 270/312/278
f 272/315/281 412/316/282 271/313/279 270/312/278
f 274/317/283 272/315/281 270/312/278 273/314/280
f 276/318/284 274/317/283 273/314/280 275/319/285
f 265/306/272 263/304/270 275/319/285 273/314/280
f 278/320/286 276/318/284 275/319/285 277/321/287
f 263/304/270 261/302/268 277/321/287 275/319/285
f 280/322/288 278/320/286 277/321/287 279/323/289
f 261/302/268 259/300/266 279/323/289 277/321/287
f 282/324/290 280/322/288 279/323/289 281/325/291
f 259/300/266 256/298/264 281/325/291 279/323/289
f 284/326/292 282/324/290 281/325/291 283/327/293
f 256/298/264 254/296/262 283/327/293 281/325/291
f 286/328/294 284/326/292 283/327/293 285/329/295
f 254/296/262 252/294/260 285/329/295 283/327/293
f 288/330/296 286/328/294 285/329/295 287/331/297
f 252/294/260 250/292/258 287/331/297 285/329/295
f 290/332/298 288/330/296 287/331/297 289/333/299
f 250/292/258 248/291/257 289/333/299 287/331/297
f 292/334/300 290/332/298 289/333/299 291/335/301
f 248/291/257 294/293/259 291/335/301 289/333/299
f 380/336/302 292/334/300 291/335/301 293/337/303
f 294/293/259 295/338/304 293/337/303 291/335/301
f 295/338/304 294/293/259 245/288/254 297/287/253
f 295/338/304 296/339/305 378/340/306 293/337/303
f 296/339/305 295/338/304 297/287/253 298/341/307
f 241/284/250 300/286/252 298/341/307 297/287/253
f 372/342/308 296/339/305 298/341/307 299/343/309
f 300/286/252 301/344/310 299/343/309 298/341/307
f 301/344/310 300/286/252 242/282/248 303/345/311
f 301/344/310 302/346/312 370/347/313 299/343/309
f 302/346/312 301/344/310 303/345/311 304/348/314
f 234/276/242 232/275/241 304/348/314 303/345/311
f 236/279/245 234/276/242 303/345/311 242/282/248
f 306/349/315 302/346/312 304/348/314 305/350/316
f 232/275/241 230/272/238 305/350/316 304/348/314
f 308/351/317 306/349/315 305/350/316 307/352/318
f 230/272/238 227/271/237 307/352/318 305/350/316
f 310/353/319 308/351/317 307/352/318 309/354/320
f 227/271/237 225/268/234 309/354/320 307/352/318
f 312/355/321 310/353/319 309/354/320 311/356/322
f 225/268/234 223/267/233 311/356/322 309/354/320
f 314/357/323 312/355/321 311/356/322 313/358/324
f 223/267/233 221/264/230 313/358/324 311/356/322
f 316/359/325 314/357/323 313/358/324 315/360/326
f 221/264/230 218/263/229 315/360/326 313/358/324
f 318/361/327 316/359/325 315/360/326 317/362/328
f 218/263/229 216/260/226 317/362/328 315/360/326
f 320/363/329 318/361/327 317/362/328 319/364/330
f 216/260/226 214/259/225 319/364/330 317/362/328
f 320/363/329 319/364/330 321/365/331 322/366/332
f 212/256/222 321/365/331 319/364/330 214/259/225
f 324/367/333 322/366/332 321/365/331 323/368/334
f 212/256/222 209/255/221 323/368/334 321/365/331
f 326/369/335 324/367/333 323/368/334 325/370/336
f 209/255/221 207/252/218 325/370/336 323/368/334
f 328/371/337 326/369/335 325/370/336 327/372/338
f 207/252/218 205/251/217 327/372/338 325/370/336
f 328/371/337 327/372/338 329/373/339 330/374/340
f 205/251/217 203/248/214 329/373/339 327/372/338
f 332/375/341 330/374/340 329/373/339 331/376/342
f 203/248/214 200/247/213 331/376/342 329/373/339
f 334/377/343 332/375/341 331/376/342 333/378/344
f 200/247/213 198/245/211 333/378/344 331/376/342
f 336/379/345 334/377/343 333/378/344 335/380/346
f 198/245/211 196/244/210 335/380/346 333/378/344
f 337/121/110 336/379/345 335/380/346 97/118/107
f 196/244/210 95/116/105 97/118/107 335/380/346
f 336/379/345 337/121/110 267/310/276 338/381/347
f 334/377/343 336/379/345 338/381/347 340/382/348
f 339/383/349 341/384/350 340/382/348 338/381/347
f 269/311/277 339/383/349 338/381/347 267/310/276
f 341/384/350 343/385/351 342/386/352 340/382/348
f 332/375/341 334/377/343 340/382/348 342/386/352
f 343/385/351 345/387/353 344/388/354 342/386/352
f 330/374/340 332/375/341 342/386/352 344/388/354
f 347/389/355 346/390/356 344/388/354 345/387/353
f 328/371/337 330/374/340 344/388/354 346/390/356
f 347/389/355 349/391/357 348/392/358 346/390/356
f 326/369/335 328/371/337 346/390/356 348/392/358
f 349/391/357 351/393/359 350/394/360 348/392/358
f 324/367/333 326/369/335 348/392/358 350/394/360
f 351/393/359 353/395/361 352/396/362 350/394/360
f 322/366/332 324/367/333 350/394/360 352/396/362
f 353/395/361 355/397/363 354/398/364 352/396/362
f 320/363/329 322/366/332 352/396/362 354/398/364
f 355/397/363 357/399/365 356/400/366 354/398/364
f 318/361/327 320/363/329 354/398/364 356/400/366
f 357/399/365 359/401/367 358/402/368 356/400/366
f 316/359/325 318/361/327 356/400/366 358/402/368
f 359/401/367 361/403/369 360/404/370 358/402/368
f 314/357/323 316/359/325 358/402/368 360/404/370
f 361/403/369 363/405/371 362/406/372 360/404/370
f 312/355/321 314/357/323 360/404/370 362/406/372
f 363/405/371 365/407/373 364/408/374 362/406/372
f 310/353/319 312/355/321 362/406/372 364/408/374
f 365/407/373 367/409/375 366/410/376 364/408/374
f 308/351/317 310/353/319 364/408/374 366/410/376
f 367/409/375 369/411/377 368/412/378 366/410/376
f 306/349/315 308/351/317 366/410/376 368/412/378
f 369/411/377 371/413/379 370/347/313 368/412/378
f 302/346/312 306/349/315 368/412/378 370/347/313
f 371/413/379 372/342/308 299/343/309 370/347/313
f 371/413/379 369/411/377 375/414/380 373/415/381
f 372/342/308 371/413/379 373/415/381 376/416/382
f 374/417/383 377/418/384 376/416/382 373/415/381
f 381/419/385 374/417/383 373/415/381 375/414/380
f 377/418/384 379/420/386 378/340/306 376/416/382
f 296/339/305 372/342/308 376/416/382 378/340/306
f 379/420/386 380/336/302 293/337/303 378/340/306
f 383/421/387 381/419/385 375/414/380 382/422/388
f 369/411/377 367/409/375 382/422/388 375/414/380
f 385/423/389 383/421/387 382/422/388 384/424/390
f 367/409/375 365/407/373 384/424/390 382/422/388
f 387/425/391 385/423/389 384/424/390 386/426/392
f 365/407/373 363/405/371 386/426/392 384/424/390
f 389/427/393 387/425/391 386/426/392 388/428/394
f 363/405/371 361/403/369 388/428/394 386/426/392
f 391/429/395 389/427/393 388/428/394 390/430/396
f 361/403/369 359/401/367 390/430/396 388/428/394
f 393/431/397 391/429/395 390/430/396 392/432/398
f 359/401/367 357/399/365 392/432/398 390/430/396
f 395/433/399 393/431/397 392/432/398 394/434/400
f 357/399/365 355/397/363 394/434/400 392/432/398
f 397/435/401 395/433/399 394/434/400 396/436/402
f 355/397/363 353/395/361 396/436/402 394/434/400
f 399/437/403 397/435/401 396/436/402 398/438/404
f 353/395/361 351/393/359 398/438/404 396/436/402
f 399/437/403 398/438/404 400/439/405 401/440/406
f 349/391/357 400/439/405 398/438/404 351/393/359
f 403/441/407 401/440/406 400/439/405 402/442/408
f 349/391/357 347/389/355 402/442/408 400/439/405
f 405/443/409 403/441/407 402/442/408 404/444/410
f 347/389/355 345/387/353 404/444/410 402/442/408
f 407/445/411 405/443/409 404/444/410 406/446/412
f 345/387/353 343/385/351 406/446/412 404/444/410
f 409/447/413 407/445/411 406/446/412 408/448/414
f 343/385/351 341/384/350 408/448/414 406/446/412
f 411/449/415 409/447/413 408/448/414 410/450/416
f 341/384/350 339/383/349 410/450/416 408/448/414
f 412/316/282 411/449/415 410/450/416 271/313/279
f 339/383/349 269/311/277 271/313/279 410/450/416
f 413/451/145 68/85/77 66/82/74 131/163/146
f 68/85/77 413/451/145 74/92/84 72/87/79
f 413/156/145 130/155/144 78/96/86 74/95/84
f 130/155/144 128/152/141 414/101/90 78/96/86
f 128/152/141 121/145/134 415/134/123 414/101/90
f 111/105/94 77/99/88 414/101/90 415/134/123
