# Blender 4.5.3 LTS
# www.blender.org
o Remix_Special_Edition.048
v -2.087716 -26.705372 42.409733
v -1.062902 -26.705372 42.719608
v -2.099684 -26.591408 42.438625
v -3.031537 -26.705372 41.904049
v -2.051811 -26.743357 42.323032
v -1.044602 -26.743357 42.627590
v -1.977223 -26.743366 42.127308
v -2.979419 -26.743357 41.826046
v -2.870942 -26.743357 41.655323
v -3.793577 -26.743357 41.159168
v -3.653282 -26.743357 41.018848
v -4.460437 -26.743351 40.345005
v -3.859926 -26.705362 41.225521
v -4.538443 -26.705372 40.397121
v -3.882042 -26.591408 41.247631
v -4.564444 -26.591408 40.414501
v -3.882042 -25.914297 41.247631
v -3.048910 -26.591408 41.930050
v -3.048910 -25.914293 41.930050
v -2.099684 -25.914288 42.438625
v -3.048910 -21.934187 41.930065
v -2.099684 -21.934202 42.438633
v -3.882042 -21.934187 41.247631
v -4.564444 -21.934193 40.414501
v -4.564444 -25.914288 40.414501
v -5.073010 -21.934196 39.465206
v -5.073011 -25.914293 39.465199
v -5.384637 -21.934193 38.434345
v -5.384637 -25.914293 38.434345
v -5.491215 -21.934196 37.362705
v -5.491215 -25.914293 37.362698
v -5.384637 -21.934193 36.291065
v -5.384637 -25.914288 36.291058
v -5.073010 -21.934187 35.260189
v -5.073011 -25.914288 35.260181
v -4.564444 -21.934181 34.310909
v -4.564444 -25.914297 34.310902
v -3.882044 -21.934193 33.477764
v -3.882045 -25.914293 33.477764
v -3.048915 -21.934196 32.795361
v -3.048915 -25.914297 32.795345
v -2.099691 -21.934193 32.286762
v -2.099691 -25.914303 32.286762
v -1.069007 -21.934202 31.975109
v -1.069007 -25.914309 31.975109
v 0.002406 -21.934196 31.868542
v 0.002405 -25.914309 31.868542
v 1.073820 -21.934202 31.975109
v 1.073816 -25.914309 31.975109
v 2.104504 -21.934196 32.286762
v 2.104497 -25.914303 32.286762
v 3.053727 -21.934202 32.795361
v 3.053722 -25.914303 32.795345
v 3.886855 -21.934193 33.477764
v 3.886854 -25.914293 33.477764
v 4.569256 -21.934193 34.310909
v 4.569256 -25.914303 34.310902
v 5.077823 -21.934202 35.260189
v 5.077823 -25.914303 35.260181
v 5.389449 -21.934202 36.291065
v 5.389449 -25.914297 36.291058
v 5.496026 -21.934202 37.362705
v 5.496026 -25.914303 37.362698
v 5.389444 -21.934196 38.434345
v 5.389444 -25.914303 38.434345
v 5.077816 -21.934196 39.465206
v 5.077816 -25.914303 39.465199
v 4.569252 -21.934196 40.414501
v 4.569252 -25.914297 40.414501
v 3.886853 -21.934187 41.247631
v 3.886854 -25.914297 41.247631
v 3.053722 -21.934187 41.930065
v 3.053722 -25.914293 41.930050
v 2.104496 -21.934202 42.438633
v 2.104496 -25.914288 42.438625
v 1.073815 -21.934196 42.750278
v 1.073815 -25.914293 42.750278
v 0.002406 -21.934196 42.856876
v 0.002406 -25.914288 42.856869
v -1.069003 -21.934196 42.750278
v -1.069003 -25.914293 42.750278
v -1.069003 -26.591413 42.750278
v 0.002406 -26.591413 42.856876
v 0.002406 -26.705366 42.825603
v 1.073815 -26.591413 42.750278
v 2.104496 -26.591408 42.438625
v 1.067715 -26.705372 42.719616
v 2.092528 -26.705372 42.409740
v 1.049415 -26.743357 42.627590
v 1.011440 -26.743357 42.416203
v 0.002406 -26.743357 42.731739
v 2.056623 -26.743357 42.323032
v 1.982035 -26.743366 42.127316
v 2.984231 -26.743362 41.826046
v 2.875753 -26.743366 41.655323
v 3.798388 -26.743366 41.159168
v 3.036349 -26.705372 41.904049
v 3.053722 -26.591408 41.930050
v 3.864737 -26.705366 41.225521
v 3.886853 -26.591408 41.247631
v 4.543250 -26.705378 40.397121
v 4.569252 -26.591413 40.414501
v 5.048917 -26.705381 39.453236
v 4.465245 -26.743362 40.344997
v 4.294550 -26.743362 40.236485
v 4.962226 -26.743366 39.417316
v 5.266758 -26.743366 38.409931
v 4.766517 -26.743366 39.342716
v 5.055383 -26.743362 38.371960
v 4.410569 -26.743357 39.214657
v 4.666627 -26.743366 38.306797
v 3.924624 -26.743362 39.057957
v 3.990480 -26.743362 40.050007
v 3.414134 -26.743366 40.774868
v 3.587100 -26.743366 39.818401
v 3.118473 -26.743366 39.574574
v 3.102841 -26.743366 40.463535
v 2.760541 -26.743366 40.121197
v 2.457746 -26.743366 40.947826
v 2.213958 -26.743362 40.479153
v 1.697382 -26.743362 41.285358
v 2.689301 -26.743362 41.351231
v 1.854017 -26.743366 41.771343
v 0.946316 -26.743362 42.027416
v 0.002406 -26.743362 42.114437
v 0.867319 -26.743357 41.490253
v 0.787727 -26.743362 40.833767
v 0.002406 -26.743362 41.559544
v 0.002406 -26.743362 40.879261
v -0.862507 -26.743357 41.490253
v -0.782914 -26.743357 40.833767
v -1.692571 -26.743362 41.285351
v -0.941503 -26.743362 42.027409
v -1.849205 -26.743362 41.771328
v -1.006627 -26.743357 42.416203
v 0.002406 -26.743357 42.514851
v -2.684491 -26.743351 41.351223
v -3.409326 -26.743351 40.774868
v -2.452938 -26.743362 40.947826
v -2.209150 -26.743357 40.479153
v -3.098037 -26.743357 40.463535
v -2.755738 -26.743357 40.121197
v -3.582298 -26.743351 39.818401
v -3.113673 -26.743357 39.574574
v -3.919824 -26.743345 39.057964
v -3.985676 -26.743351 40.050007
v -4.405766 -26.743351 39.214657
v -4.289743 -26.743351 40.236485
v -4.761712 -26.743362 39.342716
v -5.050575 -26.743357 38.371960
v -4.957421 -26.743357 39.417316
v -5.261950 -26.743357 38.409931
v -5.044113 -26.705366 39.453236
v -5.353965 -26.705372 38.428257
v -5.073010 -26.591408 39.465206
v -5.384637 -26.591408 38.434345
v -5.491214 -26.591413 37.362705
v -5.384637 -26.591408 36.291058
v -5.459937 -26.705362 37.362705
v -5.353965 -26.705366 36.297153
v -5.366102 -26.743351 37.362705
v -5.149230 -26.743362 37.362720
v -5.261950 -26.743357 36.315456
v -5.050575 -26.743362 36.353451
v -4.957422 -26.743351 35.308071
v -4.761713 -26.743357 35.382679
v -4.460440 -26.743351 34.380413
v -5.044115 -26.705366 35.272160
v -4.538446 -26.705366 34.328281
v -5.073011 -26.591408 35.260181
v -4.564446 -26.591417 34.310902
v -3.882047 -26.591408 33.477764
v -3.048918 -26.591413 32.795361
v -3.859933 -26.705366 33.499889
v -3.031546 -26.705366 32.821354
v -3.793582 -26.743351 33.566250
v -3.653284 -26.743357 33.706554
v -2.979426 -26.743357 32.899364
v -2.870946 -26.743351 33.070072
v -2.051819 -26.743362 32.402355
v -1.977229 -26.743362 32.598103
v -1.044607 -26.743362 32.097820
v -2.087724 -26.705372 32.315678
v -1.062907 -26.705378 32.005802
v -2.099692 -26.591413 32.286762
v -1.069007 -26.591417 31.975109
v 0.002405 -26.591417 31.868542
v 0.002405 -26.705378 31.899815
v 1.073815 -26.591417 31.975109
v 1.067715 -26.705378 32.005802
v 2.104496 -26.591413 32.286762
v 2.092528 -26.705372 32.315678
v 3.053722 -26.591417 32.795361
v 3.036348 -26.705378 32.821354
v 3.886854 -26.591417 33.477764
v 3.864737 -26.705378 33.499889
v 4.569256 -26.591417 34.310902
v 4.543253 -26.705378 34.328281
v 5.077823 -26.591421 35.260181
v 5.048925 -26.705378 35.272160
v 5.389449 -26.591417 36.291058
v 5.358778 -26.705387 36.297153
v 5.496026 -26.591417 37.362705
v 5.464747 -26.705381 37.362705
v 5.389444 -26.591421 38.434345
v 5.358773 -26.705381 38.428257
v 5.077816 -26.591417 39.465206
v 5.370914 -26.743362 37.362705
v 5.266763 -26.743366 36.315456
v 5.154041 -26.743372 37.362705
v 5.055387 -26.743366 36.353451
v 4.753649 -26.743362 37.362705
v 4.666630 -26.743366 36.418606
v 4.198804 -26.743372 37.362705
v 3.518573 -26.743366 37.362705
v 4.129516 -26.743362 38.227772
v 4.129518 -26.743362 36.497639
v 3.473077 -26.743366 36.577259
v 3.924626 -26.743362 35.667439
v 3.338929 -26.743362 35.827930
v 3.587101 -26.743362 34.906994
v 4.410572 -26.743362 35.510754
v 4.766523 -26.743362 35.382679
v 3.990481 -26.743362 34.675404
v 4.294551 -26.743366 34.488903
v 3.414131 -26.743366 33.950542
v 3.658087 -26.743362 33.706554
v 2.689298 -26.743366 33.374172
v 3.102840 -26.743362 34.261875
v 2.760541 -26.743362 34.604221
v 2.457744 -26.743357 33.777592
v 2.213955 -26.743357 34.246265
v 1.697381 -26.743362 33.440060
v 1.536941 -26.743357 34.025799
v 0.867318 -26.743357 33.235157
v 1.854016 -26.743366 32.954067
v 1.982034 -26.743362 32.598103
v 0.946316 -26.743357 32.698002
v 1.011440 -26.743362 32.309208
v 0.002406 -26.743357 32.610973
v 0.002405 -26.743362 32.210545
v -0.941506 -26.743357 32.698002
v 0.002406 -26.743357 33.165867
v 0.002405 -26.743362 33.846157
v -0.862508 -26.743357 33.235157
v -0.782917 -26.743357 33.891659
v -1.692573 -26.743357 33.440060
v -1.532137 -26.743357 34.025799
v -2.452939 -26.743357 33.777592
v -1.849209 -26.743366 32.954067
v -2.684494 -26.743362 33.374172
v -3.409327 -26.743362 33.950542
v -3.098037 -26.743357 34.261883
v -3.985676 -26.743351 34.675404
v -4.289744 -26.743357 34.488903
v -3.582298 -26.743351 34.906994
v -4.405766 -26.743362 35.510754
v -3.919824 -26.743362 35.667439
v -4.661822 -26.743357 36.418606
v -4.124714 -26.743357 36.497639
v -4.748842 -26.743362 37.362720
v -4.194001 -26.743366 37.362705
v -4.661822 -26.743362 38.306805
v -4.124714 -26.743357 38.227772
v -3.468274 -26.743357 38.148151
v -3.513771 -26.743366 37.362705
v -2.757853 -26.743362 38.085537
v -3.334127 -26.743357 38.897488
v -2.691494 -26.743351 38.774876
v -2.034741 -26.743362 38.731823
v -2.584563 -26.743357 39.397221
v -1.999731 -26.743351 39.365078
v -2.462892 -26.743357 39.828304
v -2.031843 -26.743357 39.949978
v -1.409563 -26.743357 40.056911
v -1.366531 -26.743351 39.400097
v -0.720320 -26.743357 40.123280
v -1.532133 -26.743357 40.699604
v 0.002406 -26.743351 40.146320
v -0.692316 -26.743357 39.424160
v -0.684261 -26.743357 38.733082
v 0.002406 -26.743357 39.433453
v 0.002405 -26.743351 38.735332
v 0.697126 -26.743357 39.424160
v 0.689070 -26.743357 38.733082
v 1.371338 -26.743362 39.400097
v 0.725131 -26.743362 40.123280
v 1.414374 -26.743362 40.056911
v 2.036649 -26.743362 39.949978
v 1.536945 -26.743366 40.699604
v 2.467694 -26.743362 39.828304
v 2.004534 -26.743357 39.365093
v 2.039541 -26.743362 38.731823
v 2.589362 -26.743362 39.397221
v 2.696290 -26.743345 38.774876
v 2.762652 -26.743362 38.085537
v 3.338925 -26.743362 38.897488
v 3.473074 -26.743362 38.148151
v 2.785691 -26.743372 37.362705
v 2.063601 -26.743357 38.057522
v 2.072894 -26.743366 37.362705
v 1.372598 -26.743362 38.049442
v 1.374862 -26.743362 37.362705
v 0.686321 -26.743362 38.046711
v 1.370019 -26.743357 38.730495
v 0.686273 -26.743366 37.362705
v 0.002406 -26.743362 38.046650
v 0.002406 -26.743362 37.362720
v -0.681511 -26.743362 38.046711
v -0.681462 -26.743366 37.362705
v -1.367791 -26.743362 38.049442
v -1.370052 -26.743362 37.362705
v -2.058798 -26.743357 38.057522
v -1.365214 -26.743351 38.730495
v -2.068089 -26.743366 37.362705
v -2.058798 -26.743362 36.667896
v -2.780889 -26.743372 37.362705
v -2.757853 -26.743357 36.639874
v -2.691494 -26.743362 35.950535
v -3.468274 -26.743362 36.577259
v -3.334127 -26.743357 35.827930
v -3.113673 -26.743357 35.150845
v -2.755739 -26.743362 34.604221
v -2.584564 -26.743357 35.328190
v -1.999734 -26.743357 35.360317
v -2.462893 -26.743357 34.897106
v -2.031847 -26.743351 34.775425
v -1.409569 -26.743351 34.668499
v -2.209152 -26.743357 34.246265
v -1.366535 -26.743351 35.325329
v -0.720323 -26.743351 34.602146
v -0.692319 -26.743357 35.301266
v 0.002404 -26.743362 34.579098
v 0.002404 -26.743362 35.291973
v 0.725128 -26.743362 34.602146
v 0.697124 -26.743357 35.301266
v 1.414368 -26.743362 34.668491
v 0.787724 -26.743357 33.891659
v 1.371335 -26.743357 35.325329
v 2.036646 -26.743362 34.775425
v 2.004534 -26.743362 35.360317
v 2.467694 -26.743357 34.897106
v 2.589365 -26.743362 35.328190
v 2.696296 -26.743362 35.950535
v 3.118475 -26.743362 35.150845
v 2.039544 -26.743357 35.993587
v 2.762655 -26.743362 36.639874
v 2.063603 -26.743362 36.667896
v 1.372599 -26.743362 36.675945
v 1.370019 -26.743357 35.994915
v 0.686321 -26.743362 36.678707
v 0.689069 -26.743357 35.992336
v 0.002406 -26.743366 36.678745
v 0.002405 -26.743362 35.990078
v -0.681511 -26.743362 36.678707
v -0.684262 -26.743357 35.992336
v -1.367791 -26.743362 36.675945
v -1.365215 -26.743357 35.994915
v -2.034741 -26.743357 35.993587
v -1.006632 -26.743362 32.309208
v 0.002405 -26.743362 31.993664
v 1.049415 -26.743362 32.097820
v 2.056623 -26.743362 32.402355
v 2.984228 -26.743357 32.899364
v 2.875749 -26.743362 33.070072
v 3.798385 -26.743362 33.566250
v 4.465248 -26.743362 34.380413
v 4.962232 -26.743362 35.308071
v 3.658092 -26.743362 41.018848
vn -0.1481 -0.6513 0.7442
vn -0.2905 -0.6511 0.7012
vn -0.0776 -0.9792 0.1873
vn -0.0395 -0.9793 0.1986
vn -0.1934 -0.1324 0.9721
vn -0.3794 -0.1324 0.9157
vn -0.4216 -0.6513 0.6309
vn -0.5507 -0.1324 0.8241
vn -0.1125 -0.9793 0.1684
vn -0.0000 -1.0000 -0.0000
vn -0.1433 -0.9792 0.1433
vn -0.5367 -0.6511 0.5367
vn -0.1684 -0.9793 0.1125
vn -0.6309 -0.6513 0.4216
vn -0.7009 -0.1324 0.7009
vn -0.8241 -0.1324 0.5507
vn -0.7071 -0.0000 0.7071
vn -0.8315 -0.0000 0.5556
vn -0.5556 -0.0000 0.8315
vn -0.3827 -0.0000 0.9239
vn -0.9239 -0.0000 0.3827
vn -0.9808 -0.0000 0.1951
vn -1.0000 -0.0000 -0.0000
vn -0.9808 -0.0000 -0.1951
vn -0.9239 -0.0000 -0.3827
vn -0.8315 -0.0000 -0.5556
vn -0.7071 -0.0000 -0.7071
vn -0.5556 -0.0000 -0.8315
vn -0.3827 -0.0000 -0.9239
vn -0.1951 -0.0000 -0.9808
vn -0.0000 -0.0000 -1.0000
vn 0.1951 -0.0000 -0.9808
vn 0.3827 -0.0000 -0.9239
vn 0.5556 -0.0000 -0.8315
vn 0.7071 -0.0000 -0.7071
vn 0.8315 -0.0000 -0.5556
vn 0.9239 -0.0000 -0.3827
vn 0.9808 -0.0000 -0.1951
vn 1.0000 -0.0000 -0.0000
vn 0.9808 -0.0000 0.1951
vn 0.9239 -0.0000 0.3827
vn 0.8315 -0.0000 0.5556
vn 0.7071 -0.0000 0.7071
vn 0.5556 -0.0000 0.8315
vn 0.3827 -0.0000 0.9239
vn 0.1951 -0.0000 0.9808
vn -0.0000 -0.0000 1.0000
vn -0.1951 -0.0000 0.9808
vn -0.0000 -0.1324 0.9912
vn -0.0000 -0.6511 0.7590
vn 0.1934 -0.1324 0.9721
vn 0.1481 -0.6513 0.7442
vn 0.3794 -0.1324 0.9157
vn 0.2905 -0.6511 0.7012
vn 0.0395 -0.9793 0.1986
vn 0.0776 -0.9792 0.1873
vn -0.0000 -0.9792 0.2027
vn 0.1125 -0.9793 0.1684
vn 0.4216 -0.6513 0.6310
vn 0.1434 -0.9792 0.1434
vn 0.5367 -0.6510 0.5367
vn 0.5507 -0.1324 0.8241
vn 0.7009 -0.1324 0.7009
vn 0.6309 -0.6513 0.4216
vn 0.8241 -0.1324 0.5507
vn 0.1684 -0.9793 0.1125
vn 0.7012 -0.6511 0.2905
vn 0.9157 -0.1324 0.3793
vn 0.1873 -0.9792 0.0776
vn 0.7442 -0.6513 0.1480
vn 0.1986 -0.9793 0.0395
vn -0.1873 -0.9792 0.0776
vn -0.1986 -0.9793 0.0395
vn -0.7012 -0.6511 0.2905
vn -0.7442 -0.6513 0.1480
vn -0.9157 -0.1324 0.3793
vn -0.9721 -0.1324 0.1934
vn -0.9912 -0.1324 -0.0000
vn -0.7590 -0.6511 -0.0000
vn -0.7443 -0.6513 -0.1480
vn -0.9721 -0.1324 -0.1934
vn -0.1987 -0.9793 -0.0395
vn -0.2027 -0.9792 -0.0000
vn -0.1873 -0.9792 -0.0776
vn -0.7012 -0.6511 -0.2905
vn -0.1684 -0.9793 -0.1125
vn -0.6309 -0.6513 -0.4216
vn -0.9157 -0.1324 -0.3793
vn -0.8241 -0.1324 -0.5507
vn -0.7009 -0.1324 -0.7009
vn -0.5367 -0.6511 -0.5367
vn -0.4216 -0.6513 -0.6309
vn -0.5507 -0.1324 -0.8241
vn -0.1125 -0.9793 -0.1684
vn -0.1433 -0.9792 -0.1433
vn -0.0776 -0.9792 -0.1873
vn -0.2905 -0.6511 -0.7012
vn -0.0395 -0.9793 -0.1986
vn -0.1481 -0.6513 -0.7442
vn -0.3794 -0.1325 -0.9157
vn -0.1934 -0.1325 -0.9721
vn -0.0000 -0.1325 -0.9912
vn -0.0000 -0.6511 -0.7590
vn 0.1934 -0.1325 -0.9721
vn 0.1481 -0.6513 -0.7442
vn 0.3794 -0.1325 -0.9157
vn 0.2905 -0.6511 -0.7012
vn 0.5507 -0.1324 -0.8241
vn 0.4216 -0.6513 -0.6309
vn 0.7009 -0.1324 -0.7009
vn 0.5367 -0.6511 -0.5367
vn 0.8241 -0.1325 -0.5507
vn 0.6309 -0.6513 -0.4216
vn 0.9157 -0.1324 -0.3793
vn 0.7012 -0.6511 -0.2905
vn 0.9721 -0.1324 -0.1934
vn 0.7442 -0.6513 -0.1480
vn 0.9912 -0.1324 -0.0000
vn 0.7590 -0.6511 -0.0000
vn 0.9721 -0.1324 0.1934
vn 0.2027 -0.9792 -0.0000
vn 0.1986 -0.9793 -0.0395
vn -0.0000 -0.9792 -0.2027
vn 0.0395 -0.9793 -0.1986
vn 0.0776 -0.9792 -0.1873
vn 0.1125 -0.9793 -0.1684
vn 0.1433 -0.9792 -0.1433
vn 0.1684 -0.9793 -0.1125
vn 0.1873 -0.9792 -0.0776
vt 0.801712 0.045347
vt 0.797467 0.044050
vt 0.797628 0.043663
vt 0.801795 0.044936
vt 0.801615 0.045827
vt 0.797278 0.044501
vt 0.793559 0.041942
vt 0.793285 0.042348
vt 0.793793 0.041594
vt 0.797939 0.042853
vt 0.801955 0.044061
vt 0.794244 0.040888
vt 0.791012 0.038243
vt 0.790429 0.038822
vt 0.790132 0.039118
vt 0.788385 0.034995
vt 0.787677 0.035443
vt 0.787328 0.035675
vt 0.789785 0.039463
vt 0.786920 0.035945
vt 0.872585 0.825470
vt 0.877045 0.825477
vt 0.877041 0.828281
vt 0.872581 0.828275
vt 0.868125 0.825464
vt 0.868121 0.828268
vt 0.863665 0.825458
vt 0.863661 0.828262
vt 0.863688 0.808974
vt 0.868148 0.808980
vt 0.872609 0.808987
vt 0.877069 0.808993
vt 0.881506 0.825483
vt 0.881529 0.808999
vt 0.885989 0.809006
vt 0.885966 0.825489
vt 0.890426 0.825496
vt 0.890449 0.809012
vt 0.894910 0.809018
vt 0.894886 0.825502
vt 0.899346 0.825509
vt 0.899370 0.809025
vt 0.903830 0.809031
vt 0.903807 0.825515
vt 0.908267 0.825521
vt 0.908290 0.809037
vt 0.912750 0.809044
vt 0.912727 0.825527
vt 0.917187 0.825534
vt 0.917210 0.809050
vt 0.921670 0.809056
vt 0.921647 0.825540
vt 0.926129 0.809063
vt 0.926106 0.825547
vt 0.930588 0.809069
vt 0.930565 0.825553
vt 0.935024 0.825559
vt 0.935048 0.809075
vt 0.939508 0.809082
vt 0.939484 0.825566
vt 0.943945 0.825572
vt 0.943968 0.809088
vt 0.948428 0.809094
vt 0.948405 0.825578
vt 0.952865 0.825585
vt 0.952888 0.809101
vt 0.957349 0.809107
vt 0.957325 0.825591
vt 0.961786 0.825597
vt 0.961809 0.809113
vt 0.966269 0.809120
vt 0.966246 0.825604
vt 0.970706 0.825610
vt 0.970729 0.809126
vt 0.975190 0.809132
vt 0.975166 0.825616
vt 0.979626 0.825622
vt 0.979650 0.809139
vt 0.984087 0.825629
vt 0.984110 0.809145
vt 0.988546 0.825635
vt 0.988570 0.809151
vt 0.993029 0.809158
vt 0.993006 0.825641
vt 0.997465 0.825648
vt 0.997489 0.809164
vt 0.854746 0.825445
vt 0.854770 0.808961
vt 0.859229 0.808968
vt 0.859205 0.825451
vt 0.859201 0.828256
vt 0.854742 0.828250
vt 0.806129 0.045799
vt 0.806127 0.046290
vt 0.997461 0.828452
vt 0.993002 0.828446
vt 0.810547 0.045373
vt 0.810642 0.045853
vt 0.988543 0.828439
vt 0.814801 0.044100
vt 0.814987 0.044553
vt 0.810467 0.044961
vt 0.814641 0.043712
vt 0.806130 0.045380
vt 0.810312 0.044086
vt 0.814335 0.042901
vt 0.806132 0.044481
vt 0.818042 0.040957
vt 0.818489 0.041665
vt 0.818721 0.042015
vt 0.821289 0.038330
vt 0.821868 0.038913
vt 0.822164 0.039211
vt 0.818992 0.042422
vt 0.822509 0.039558
vt 0.824988 0.035784
vt 0.825394 0.036057
vt 0.824640 0.035550
vt 0.827095 0.031876
vt 0.827547 0.032064
vt 0.826708 0.031714
vt 0.823934 0.035099
vt 0.825899 0.031403
vt 0.828393 0.027629
vt 0.827982 0.027546
vt 0.827107 0.027386
vt 0.824427 0.030868
vt 0.825498 0.027112
vt 0.822677 0.034323
vt 0.822416 0.030214
vt 0.823275 0.026778
vt 0.821009 0.033359
vt 0.820282 0.037317
vt 0.818996 0.036024
vt 0.819993 0.029542
vt 0.819072 0.032343
vt 0.817583 0.034603
vt 0.816319 0.038022
vt 0.815315 0.036078
vt 0.817273 0.039695
vt 0.813166 0.039411
vt 0.812509 0.036983
vt 0.813809 0.041425
vt 0.810047 0.042475
vt 0.809727 0.040249
vt 0.806137 0.042823
vt 0.806144 0.040526
vt 0.809405 0.037530
vt 0.806152 0.037709
vt 0.802563 0.040228
vt 0.802900 0.037511
vt 0.802229 0.042452
vt 0.799128 0.039370
vt 0.799800 0.036946
vt 0.798474 0.041380
vt 0.795020 0.039631
vt 0.795983 0.037963
vt 0.792025 0.037235
vt 0.793318 0.035950
vt 0.796999 0.036025
vt 0.794739 0.034536
vt 0.791320 0.033272
vt 0.793264 0.032268
vt 0.789647 0.034227
vt 0.789932 0.030119
vt 0.792359 0.029462
vt 0.787918 0.030762
vt 0.786442 0.031288
vt 0.785631 0.031595
vt 0.785257 0.027265
vt 0.786868 0.027000
vt 0.784381 0.027420
vt 0.785243 0.031754
vt 0.783970 0.027500
vt 0.784790 0.031940
vt 0.783489 0.027594
vt 0.885962 0.828294
vt 0.881502 0.828287
vt 0.890422 0.828300
vt 0.783544 0.023081
vt 0.783054 0.023079
vt 0.783995 0.018663
vt 0.783516 0.018566
vt 0.894882 0.828307
vt 0.784407 0.018746
vt 0.783963 0.023082
vt 0.784861 0.023084
vt 0.785281 0.018906
vt 0.786490 0.014890
vt 0.785680 0.014578
vt 0.785293 0.014417
vt 0.788455 0.011194
vt 0.787749 0.010743
vt 0.787401 0.010509
vt 0.784841 0.014228
vt 0.786995 0.010235
vt 0.903803 0.828319
vt 0.899342 0.828313
vt 0.908263 0.828325
vt 0.790225 0.007082
vt 0.789880 0.006735
vt 0.793668 0.004278
vt 0.793397 0.003870
vt 0.912723 0.828332
vt 0.793900 0.004627
vt 0.790520 0.007379
vt 0.791100 0.007962
vt 0.794347 0.005335
vt 0.798054 0.003392
vt 0.797747 0.002581
vt 0.797588 0.002193
vt 0.802076 0.002207
vt 0.801922 0.001331
vt 0.801841 0.000920
vt 0.797402 0.001740
vt 0.801747 0.000439
vt 0.921643 0.828345
vt 0.917183 0.828338
vt 0.926102 0.828351
vt 0.806260 0.000493
vt 0.806261 0.000006
vt 0.930561 0.828357
vt 0.810773 0.000465
vt 0.810676 0.000945
vt 0.815110 0.001791
vt 0.814922 0.002243
vt 0.935021 0.828363
vt 0.939481 0.828370
vt 0.819103 0.003944
vt 0.818830 0.004351
vt 0.822604 0.006830
vt 0.822257 0.007175
vt 0.943941 0.828376
vt 0.948401 0.828383
vt 0.825468 0.010347
vt 0.825061 0.010618
vt 0.827598 0.014352
vt 0.827146 0.014538
vt 0.952861 0.828389
vt 0.957321 0.828395
vt 0.828899 0.018698
vt 0.828419 0.018792
vt 0.829334 0.023213
vt 0.828845 0.023212
vt 0.961782 0.828402
vt 0.966242 0.828408
vt 0.828873 0.027726
vt 0.970702 0.828414
vt 0.975162 0.828420
vt 0.828426 0.023211
vt 0.828007 0.018873
vt 0.827528 0.023208
vt 0.827131 0.019028
vt 0.825870 0.023203
vt 0.825521 0.019293
vt 0.823572 0.023197
vt 0.823295 0.019613
vt 0.820755 0.023188
vt 0.820576 0.019935
vt 0.820557 0.026441
vt 0.820030 0.016831
vt 0.822457 0.016173
vt 0.824471 0.015530
vt 0.819125 0.014024
vt 0.821068 0.013020
vt 0.822742 0.012066
vt 0.825947 0.015004
vt 0.824003 0.011297
vt 0.820364 0.009057
vt 0.821377 0.008050
vt 0.819071 0.010343
vt 0.817369 0.006662
vt 0.818145 0.005404
vt 0.816405 0.008329
vt 0.817649 0.011756
vt 0.815390 0.010267
vt 0.812589 0.009346
vt 0.813260 0.006923
vt 0.813915 0.004912
vt 0.809488 0.008782
vt 0.809826 0.006064
vt 0.810159 0.003841
vt 0.814449 0.003440
vt 0.810434 0.002231
vt 0.806251 0.003469
vt 0.806256 0.001811
vt 0.806245 0.005767
vt 0.802342 0.003818
vt 0.802662 0.006043
vt 0.806237 0.008584
vt 0.802984 0.008763
vt 0.799880 0.009309
vt 0.799222 0.006882
vt 0.798580 0.004868
vt 0.797073 0.010214
vt 0.796069 0.008270
vt 0.795115 0.006597
vt 0.792107 0.008975
vt 0.793392 0.010268
vt 0.791379 0.012934
vt 0.789712 0.011970
vt 0.787962 0.015424
vt 0.789972 0.016079
vt 0.789114 0.019514
vt 0.786890 0.019181
vt 0.786519 0.023089
vt 0.788817 0.023096
vt 0.789093 0.026679
vt 0.791812 0.026357
vt 0.791634 0.023104
vt 0.794668 0.023113
vt 0.794755 0.026106
vt 0.795022 0.028962
vt 0.795457 0.031540
vt 0.797742 0.028791
vt 0.797879 0.031414
vt 0.797650 0.025999
vt 0.797739 0.033836
vt 0.795956 0.033327
vt 0.800315 0.034286
vt 0.800501 0.031567
vt 0.803168 0.034569
vt 0.803293 0.031675
vt 0.806161 0.034673
vt 0.806169 0.031721
vt 0.803334 0.028813
vt 0.806178 0.028830
vt 0.800515 0.028794
vt 0.809021 0.028829
vt 0.809046 0.031691
vt 0.809154 0.034587
vt 0.811841 0.028827
vt 0.811839 0.031600
vt 0.812009 0.034320
vt 0.814587 0.033885
vt 0.814461 0.031462
vt 0.816374 0.033386
vt 0.816883 0.031602
vt 0.814614 0.028840
vt 0.817333 0.029027
vt 0.814721 0.026048
vt 0.817616 0.026173
vt 0.817720 0.023180
vt 0.814768 0.023171
vt 0.811878 0.023163
vt 0.811860 0.026007
vt 0.809026 0.023154
vt 0.809018 0.025987
vt 0.806194 0.023146
vt 0.806186 0.025979
vt 0.803362 0.023138
vt 0.803354 0.025971
vt 0.800511 0.023130
vt 0.800512 0.025974
vt 0.797620 0.023121
vt 0.797667 0.020244
vt 0.800528 0.020286
vt 0.794772 0.020120
vt 0.791831 0.019852
vt 0.795055 0.017266
vt 0.797775 0.017452
vt 0.792396 0.016751
vt 0.793317 0.013949
vt 0.795506 0.014690
vt 0.794806 0.011690
vt 0.796015 0.012906
vt 0.797927 0.014830
vt 0.797801 0.012408
vt 0.800380 0.011972
vt 0.800550 0.014693
vt 0.803235 0.011706
vt 0.803342 0.014601
vt 0.806228 0.011619
vt 0.806219 0.014571
vt 0.809220 0.011723
vt 0.809096 0.014618
vt 0.812074 0.012006
vt 0.811888 0.014726
vt 0.814649 0.012457
vt 0.814509 0.014878
vt 0.816433 0.012966
vt 0.816932 0.014752
vt 0.817367 0.017331
vt 0.814647 0.017501
vt 0.817633 0.020186
vt 0.814738 0.020294
vt 0.811874 0.017499
vt 0.811877 0.020319
vt 0.809054 0.017480
vt 0.809035 0.020322
vt 0.806211 0.017462
vt 0.806202 0.020314
vt 0.803367 0.017463
vt 0.803370 0.020306
vt 0.800547 0.017466
vt 0.806259 0.000913
vt 0.810593 0.001356
vt 0.814760 0.002630
vt 0.818596 0.004699
vt 0.821959 0.007471
vt 0.824711 0.010850
vt 0.826758 0.014697
vt 0.979622 0.828427
vt 0.984083 0.828433
s 1
f 2/1/1 1/2/2 5/3/3 6/4/4
f 1/2/2 2/1/1 82/5/5 3/6/6
f 4/7/7 1/2/2 3/6/6 18/8/8
f 1/2/2 4/7/7 8/9/9 5/3/3
f 7/10/10 135/11/10 6/4/4 5/3/3
f 9/12/10 7/10/10 5/3/3 8/9/9
f 11/13/10 9/12/10 8/9/9 10/14/11
f 4/7/7 13/15/12 10/14/11 8/9/9
f 148/16/10 11/13/10 10/14/11 12/17/13
f 13/15/12 14/18/14 12/17/13 10/14/11
f 14/18/14 13/15/12 15/19/15 16/20/16
f 13/15/12 4/7/7 18/8/8 15/19/15
f 17/21/17 25/22/18 16/23/16 15/24/15
f 19/25/19 17/21/17 15/24/15 18/26/8
f 20/27/20 19/25/19 18/26/8 3/28/6
f 20/27/20 22/29/20 21/30/19 19/25/19
f 17/21/17 19/25/19 21/30/19 23/31/17
f 17/21/17 23/31/17 24/32/18 25/22/18
f 27/33/21 25/22/18 24/32/18 26/34/21
f 27/33/21 26/34/21 28/35/22 29/36/22
f 31/37/23 29/36/22 28/35/22 30/38/23
f 31/37/23 30/38/23 32/39/24 33/40/24
f 35/41/25 33/40/24 32/39/24 34/42/25
f 35/41/25 34/42/25 36/43/26 37/44/26
f 39/45/27 37/44/26 36/43/26 38/46/27
f 39/45/27 38/46/27 40/47/28 41/48/28
f 43/49/29 41/48/28 40/47/28 42/50/29
f 43/49/29 42/50/29 44/51/30 45/52/30
f 46/53/31 47/54/31 45/52/30 44/51/30
f 46/53/31 48/55/32 49/56/32 47/54/31
f 51/57/33 49/56/32 48/55/32 50/58/33
f 51/57/33 50/58/33 52/59/34 53/60/34
f 55/61/35 53/60/34 52/59/34 54/62/35
f 55/61/35 54/62/35 56/63/36 57/64/36
f 59/65/37 57/64/36 56/63/36 58/66/37
f 59/65/37 58/66/37 60/67/38 61/68/38
f 63/69/39 61/68/38 60/67/38 62/70/39
f 63/69/39 62/70/39 64/71/40 65/72/40
f 67/73/41 65/72/40 64/71/40 66/74/41
f 67/73/41 66/74/41 68/75/42 69/76/42
f 71/77/43 69/76/42 68/75/42 70/78/43
f 73/79/44 71/77/43 70/78/43 72/80/44
f 75/81/45 73/79/44 72/80/44 74/82/45
f 75/81/45 74/82/45 76/83/46 77/84/46
f 79/85/47 77/84/46 76/83/46 78/86/47
f 79/87/47 78/88/47 80/89/48 81/90/48
f 22/29/20 20/27/20 81/90/48 80/89/48
f 79/87/47 81/90/48 82/91/5 83/92/49
f 81/90/48 20/27/20 3/28/6 82/91/5
f 2/1/1 84/93/50 83/94/49 82/5/5
f 79/85/47 83/95/49 85/96/51 77/84/46
f 83/94/49 84/93/50 87/97/52 85/98/51
f 86/99/53 75/81/45 77/84/46 85/96/51
f 88/100/54 86/101/53 85/98/51 87/97/52
f 88/100/54 87/97/52 89/102/55 92/103/56
f 87/97/52 84/93/50 91/104/57 89/102/55
f 90/105/10 93/106/10 92/103/56 89/102/55
f 136/107/10 90/105/10 89/102/55 91/104/57
f 93/106/10 95/108/10 94/109/58 92/103/56
f 97/110/59 88/100/54 92/103/56 94/109/58
f 95/108/10 369/111/10 96/112/60 94/109/58
f 99/113/61 97/110/59 94/109/58 96/112/60
f 86/101/53 88/100/54 97/110/59 98/114/62
f 99/113/61 100/115/63 98/114/62 97/110/59
f 100/115/63 99/113/61 101/116/64 102/117/65
f 101/116/64 99/113/61 96/112/60 104/118/66
f 103/119/67 207/120/68 102/117/65 101/116/64
f 103/119/67 101/116/64 104/118/66 106/121/69
f 105/122/10 108/123/10 106/121/69 104/118/66
f 369/111/10 105/122/10 104/118/66 96/112/60
f 206/124/70 103/119/67 106/121/69 107/125/71
f 108/123/10 109/126/10 107/125/71 106/121/69
f 108/123/10 110/127/10 111/128/10 109/126/10
f 110/127/10 108/123/10 105/122/10 113/129/10
f 110/127/10 112/130/10 216/131/10 111/128/10
f 112/130/10 110/127/10 113/129/10 115/132/10
f 114/133/10 117/134/10 115/132/10 113/129/10
f 369/111/10 114/133/10 113/129/10 105/122/10
f 297/135/10 112/130/10 115/132/10 116/136/10
f 117/134/10 118/137/10 116/136/10 115/132/10
f 118/137/10 117/134/10 119/138/10 120/139/10
f 117/134/10 114/133/10 122/140/10 119/138/10
f 121/141/10 290/142/10 120/139/10 119/138/10
f 123/143/10 121/141/10 119/138/10 122/140/10
f 93/106/10 123/143/10 122/140/10 95/108/10
f 114/133/10 369/111/10 95/108/10 122/140/10
f 121/141/10 123/143/10 124/144/10 126/145/10
f 123/143/10 93/106/10 90/105/10 124/144/10
f 125/146/10 128/147/10 126/145/10 124/144/10
f 136/107/10 125/146/10 124/144/10 90/105/10
f 290/142/10 121/141/10 126/145/10 127/148/10
f 128/147/10 129/149/10 127/148/10 126/145/10
f 129/149/10 128/147/10 130/150/10 131/151/10
f 128/147/10 125/146/10 133/152/10 130/150/10
f 132/153/10 278/154/10 131/151/10 130/150/10
f 134/155/10 132/153/10 130/150/10 133/152/10
f 7/10/10 134/155/10 133/152/10 135/11/10
f 125/146/10 136/107/10 135/11/10 133/152/10
f 135/11/10 136/107/10 91/104/57 6/4/4
f 134/155/10 7/10/10 9/12/10 137/156/10
f 132/153/10 134/155/10 137/156/10 139/157/10
f 138/158/10 141/159/10 139/157/10 137/156/10
f 11/13/10 138/158/10 137/156/10 9/12/10
f 278/154/10 132/153/10 139/157/10 140/160/10
f 141/159/10 142/161/10 140/160/10 139/157/10
f 142/161/10 141/159/10 143/162/10 144/163/10
f 141/159/10 138/158/10 146/164/10 143/162/10
f 145/165/10 268/166/10 144/163/10 143/162/10
f 147/167/10 145/165/10 143/162/10 146/164/10
f 149/168/10 147/167/10 146/164/10 148/16/10
f 138/158/10 11/13/10 148/16/10 146/164/10
f 149/168/10 148/16/10 12/17/13 151/169/72
f 147/167/10 149/168/10 150/170/10 263/171/10
f 150/170/10 149/168/10 151/169/72 152/172/73
f 153/173/74 154/174/75 152/172/73 151/169/72
f 14/18/14 153/173/74 151/169/72 12/17/13
f 154/174/75 153/173/74 155/175/76 156/176/77
f 153/173/74 14/18/14 16/20/16 155/175/76
f 27/33/21 29/36/22 156/177/77 155/178/76
f 25/22/18 27/33/21 155/178/76 16/23/16
f 29/36/22 31/37/23 157/179/78 156/177/77
f 159/180/79 154/174/75 156/176/77 157/181/78
f 160/182/80 159/180/79 157/181/78 158/183/81
f 31/37/23 33/40/24 158/184/81 157/179/78
f 159/180/79 160/182/80 163/185/82 161/186/83
f 154/174/75 159/180/79 161/186/83 152/172/73
f 162/187/10 150/170/10 152/172/73 161/186/83
f 164/188/10 162/187/10 161/186/83 163/185/82
f 166/189/10 164/188/10 163/185/82 165/190/84
f 160/182/80 168/191/85 165/190/84 163/185/82
f 255/192/10 166/189/10 165/190/84 167/193/86
f 168/191/85 169/194/87 167/193/86 165/190/84
f 169/194/87 168/191/85 170/195/88 171/196/89
f 168/191/85 160/182/80 158/183/81 170/195/88
f 35/41/25 37/44/26 171/197/89 170/198/88
f 33/40/24 35/41/25 170/198/88 158/184/81
f 37/44/26 39/45/27 172/199/90 171/197/89
f 174/200/91 169/194/87 171/196/89 172/201/90
f 175/202/92 174/200/91 172/201/90 173/203/93
f 39/45/27 41/48/28 173/204/93 172/199/90
f 174/200/91 175/202/92 178/205/94 176/206/95
f 169/194/87 174/200/91 176/206/95 167/193/86
f 177/207/10 255/192/10 167/193/86 176/206/95
f 179/208/10 177/207/10 176/206/95 178/205/94
f 181/209/10 179/208/10 178/205/94 180/210/96
f 175/202/92 183/211/97 180/210/96 178/205/94
f 360/212/10 181/209/10 180/210/96 182/213/98
f 183/211/97 184/214/99 182/213/98 180/210/96
f 184/214/99 183/211/97 185/215/100 186/216/101
f 183/211/97 175/202/92 173/203/93 185/215/100
f 43/49/29 45/52/30 186/217/101 185/218/100
f 41/48/28 43/49/29 185/218/100 173/204/93
f 45/52/30 47/54/31 187/219/102 186/217/101
f 188/220/103 184/214/99 186/216/101 187/221/102
f 187/219/102 47/54/31 49/56/32 189/222/104
f 188/220/103 187/221/102 189/223/104 190/224/105
f 191/225/106 192/226/107 190/224/105 189/223/104
f 51/57/33 191/227/106 189/222/104 49/56/32
f 191/227/106 51/57/33 53/60/34 193/228/108
f 192/226/107 191/225/106 193/229/108 194/230/109
f 195/231/110 196/232/111 194/230/109 193/229/108
f 55/61/35 195/233/110 193/228/108 53/60/34
f 195/233/110 55/61/35 57/64/36 197/234/112
f 196/232/111 195/231/110 197/235/112 198/236/113
f 199/237/114 200/238/115 198/236/113 197/235/112
f 199/239/114 197/234/112 57/64/36 59/65/37
f 199/239/114 59/65/37 61/68/38 201/240/116
f 200/238/115 199/237/114 201/241/116 202/242/117
f 203/243/118 204/244/119 202/242/117 201/241/116
f 63/69/39 203/245/118 201/240/116 61/68/38
f 63/69/39 65/72/40 205/246/120 203/245/118
f 204/244/119 203/243/118 205/247/120 206/124/70
f 207/120/68 103/119/67 206/124/70 205/247/120
f 207/248/68 205/246/120 65/72/40 67/73/41
f 67/73/41 69/76/42 102/249/65 207/248/68
f 204/244/119 206/124/70 107/125/71 208/250/121
f 202/242/117 204/244/119 208/250/121 209/251/122
f 210/252/10 211/253/10 209/251/122 208/250/121
f 109/126/10 210/252/10 208/250/121 107/125/71
f 210/252/10 212/254/10 213/255/10 211/253/10
f 212/254/10 210/252/10 109/126/10 111/128/10
f 212/254/10 214/256/10 217/257/10 213/255/10
f 214/256/10 212/254/10 111/128/10 216/131/10
f 214/256/10 215/258/10 218/259/10 217/257/10
f 215/258/10 214/256/10 216/131/10 298/260/10
f 220/261/10 219/262/10 217/257/10 218/259/10
f 219/262/10 222/263/10 213/255/10 217/257/10
f 219/262/10 220/261/10 345/264/10 221/265/10
f 222/263/10 219/262/10 221/265/10 224/266/10
f 222/263/10 223/267/10 211/253/10 213/255/10
f 223/267/10 222/263/10 224/266/10 225/268/10
f 226/269/10 227/270/10 225/268/10 224/266/10
f 229/271/10 226/269/10 224/266/10 221/265/10
f 227/270/10 226/269/10 228/272/10 365/273/10
f 226/269/10 229/271/10 231/274/10 228/272/10
f 229/271/10 230/275/10 232/276/10 231/274/10
f 230/275/10 229/271/10 221/265/10 345/264/10
f 234/277/10 233/278/10 231/274/10 232/276/10
f 233/278/10 236/279/10 228/272/10 231/274/10
f 233/278/10 234/277/10 338/280/10 235/281/10
f 236/279/10 233/278/10 235/281/10 238/282/10
f 236/279/10 237/283/10 365/273/10 228/272/10
f 237/283/10 236/279/10 238/282/10 239/284/10
f 240/285/10 241/286/10 239/284/10 238/282/10
f 243/287/10 240/285/10 238/282/10 235/281/10
f 241/286/10 240/285/10 242/288/10 360/212/10
f 240/285/10 243/287/10 245/289/10 242/288/10
f 243/287/10 244/290/10 246/291/10 245/289/10
f 244/290/10 243/287/10 235/281/10 338/280/10
f 248/292/10 247/293/10 245/289/10 246/291/10
f 247/293/10 250/294/10 242/288/10 245/289/10
f 247/293/10 248/292/10 329/295/10 249/296/10
f 250/294/10 247/293/10 249/296/10 251/297/10
f 250/294/10 181/209/10 360/212/10 242/288/10
f 181/209/10 250/294/10 251/297/10 179/208/10
f 252/298/10 177/207/10 179/208/10 251/297/10
f 253/299/10 252/298/10 251/297/10 249/296/10
f 252/298/10 253/299/10 256/300/10 254/301/10
f 177/207/10 252/298/10 254/301/10 255/192/10
f 257/302/10 166/189/10 255/192/10 254/301/10
f 258/303/10 257/302/10 254/301/10 256/300/10
f 257/302/10 258/303/10 260/304/10 259/305/10
f 166/189/10 257/302/10 259/305/10 164/188/10
f 261/306/10 162/187/10 164/188/10 259/305/10
f 262/307/10 261/306/10 259/305/10 260/304/10
f 261/306/10 262/307/10 264/308/10 263/171/10
f 162/187/10 261/306/10 263/171/10 150/170/10
f 145/165/10 147/167/10 263/171/10 264/308/10
f 268/166/10 145/165/10 264/308/10 265/309/10
f 262/307/10 266/310/10 265/309/10 264/308/10
f 266/310/10 317/311/10 267/312/10 265/309/10
f 269/313/10 268/166/10 265/309/10 267/312/10
f 268/166/10 269/313/10 271/314/10 144/163/10
f 269/313/10 270/315/10 272/316/10 271/314/10
f 270/315/10 269/313/10 267/312/10 313/317/10
f 274/318/10 273/319/10 271/314/10 272/316/10
f 273/319/10 142/161/10 144/163/10 271/314/10
f 142/161/10 273/319/10 274/318/10 140/160/10
f 275/320/10 278/154/10 140/160/10 274/318/10
f 275/320/10 274/318/10 272/316/10 276/321/10
f 277/322/10 275/320/10 276/321/10 280/323/10
f 278/154/10 275/320/10 277/322/10 131/151/10
f 279/324/10 129/149/10 131/151/10 277/322/10
f 279/324/10 277/322/10 280/323/10 282/325/10
f 281/326/10 283/327/10 282/325/10 280/323/10
f 314/328/10 281/326/10 280/323/10 276/321/10
f 283/327/10 285/329/10 284/330/10 282/325/10
f 287/331/10 279/324/10 282/325/10 284/330/10
f 285/329/10 305/332/10 286/333/10 284/330/10
f 288/334/10 287/331/10 284/330/10 286/333/10
f 288/334/10 290/142/10 127/148/10 287/331/10
f 129/149/10 279/324/10 287/331/10 127/148/10
f 289/335/10 288/334/10 286/333/10 292/336/10
f 290/142/10 288/334/10 289/335/10 120/139/10
f 291/337/10 118/137/10 120/139/10 289/335/10
f 291/337/10 289/335/10 292/336/10 294/338/10
f 293/339/10 295/340/10 294/338/10 292/336/10
f 305/332/10 293/339/10 292/336/10 286/333/10
f 295/340/10 297/135/10 116/136/10 294/338/10
f 118/137/10 291/337/10 294/338/10 116/136/10
f 295/340/10 293/339/10 300/341/10 296/342/10
f 297/135/10 295/340/10 296/342/10 298/260/10
f 112/130/10 297/135/10 298/260/10 216/131/10
f 299/343/10 215/258/10 298/260/10 296/342/10
f 301/344/10 299/343/10 296/342/10 300/341/10
f 303/345/10 301/344/10 300/341/10 302/346/10
f 293/339/10 305/332/10 302/346/10 300/341/10
f 306/347/10 303/345/10 302/346/10 304/348/10
f 305/332/10 285/329/10 304/348/10 302/346/10
f 308/349/10 306/347/10 304/348/10 307/350/10
f 285/329/10 283/327/10 307/350/10 304/348/10
f 310/351/10 308/349/10 307/350/10 309/352/10
f 283/327/10 281/326/10 309/352/10 307/350/10
f 312/353/10 310/351/10 309/352/10 311/354/10
f 281/326/10 314/328/10 311/354/10 309/352/10
f 315/355/10 312/353/10 311/354/10 313/317/10
f 314/328/10 270/315/10 313/317/10 311/354/10
f 270/315/10 314/328/10 276/321/10 272/316/10
f 317/311/10 315/355/10 313/317/10 267/312/10
f 312/353/10 315/355/10 316/356/10 357/357/10
f 315/355/10 317/311/10 318/358/10 316/356/10
f 317/311/10 266/310/10 320/359/10 318/358/10
f 319/360/10 359/361/10 316/356/10 318/358/10
f 321/362/10 319/360/10 318/358/10 320/359/10
f 258/303/10 321/362/10 320/359/10 260/304/10
f 266/310/10 262/307/10 260/304/10 320/359/10
f 319/360/10 321/362/10 322/363/10 324/364/10
f 321/362/10 258/303/10 256/300/10 322/363/10
f 323/365/10 326/366/10 324/364/10 322/363/10
f 253/299/10 323/365/10 322/363/10 256/300/10
f 359/361/10 319/360/10 324/364/10 325/367/10
f 326/366/10 327/368/10 325/367/10 324/364/10
f 326/366/10 323/365/10 329/295/10 327/368/10
f 327/368/10 328/369/10 330/370/10 325/367/10
f 248/292/10 328/369/10 327/368/10 329/295/10
f 323/365/10 253/299/10 249/296/10 329/295/10
f 328/369/10 331/371/10 332/372/10 330/370/10
f 328/369/10 248/292/10 246/291/10 331/371/10
f 331/371/10 333/373/10 334/374/10 332/372/10
f 244/290/10 333/373/10 331/371/10 246/291/10
f 333/373/10 335/375/10 336/376/10 334/374/10
f 333/373/10 244/290/10 338/280/10 335/375/10
f 335/375/10 337/377/10 339/378/10 336/376/10
f 234/277/10 337/377/10 335/375/10 338/280/10
f 337/377/10 340/379/10 341/380/10 339/378/10
f 337/377/10 234/277/10 232/276/10 340/379/10
f 340/379/10 342/381/10 343/382/10 341/380/10
f 230/275/10 342/381/10 340/379/10 232/276/10
f 342/381/10 230/275/10 345/264/10 343/382/10
f 344/383/10 346/384/10 341/380/10 343/382/10
f 220/261/10 344/383/10 343/382/10 345/264/10
f 346/384/10 344/383/10 347/385/10 348/386/10
f 344/383/10 220/261/10 218/259/10 347/385/10
f 299/343/10 301/344/10 348/386/10 347/385/10
f 215/258/10 299/343/10 347/385/10 218/259/10
f 350/387/10 346/384/10 348/386/10 349/388/10
f 301/344/10 303/345/10 349/388/10 348/386/10
f 352/389/10 350/387/10 349/388/10 351/390/10
f 303/345/10 306/347/10 351/390/10 349/388/10
f 354/391/10 352/389/10 351/390/10 353/392/10
f 306/347/10 308/349/10 353/392/10 351/390/10
f 356/393/10 354/391/10 353/392/10 355/394/10
f 308/349/10 310/351/10 355/394/10 353/392/10
f 358/395/10 356/393/10 355/394/10 357/357/10
f 310/351/10 312/353/10 357/357/10 355/394/10
f 359/361/10 358/395/10 357/357/10 316/356/10
f 358/395/10 359/361/10 325/367/10 330/370/10
f 356/393/10 358/395/10 330/370/10 332/372/10
f 354/391/10 356/393/10 332/372/10 334/374/10
f 352/389/10 354/391/10 334/374/10 336/376/10
f 350/387/10 352/389/10 336/376/10 339/378/10
f 346/384/10 350/387/10 339/378/10 341/380/10
f 241/286/10 360/212/10 182/213/98 361/396/123
f 239/284/10 241/286/10 361/396/123 362/397/124
f 184/214/99 188/220/103 361/396/123 182/213/98
f 188/220/103 190/224/105 362/397/124 361/396/123
f 237/283/10 239/284/10 362/397/124 363/398/125
f 190/224/105 192/226/107 363/398/125 362/397/124
f 365/273/10 237/283/10 363/398/125 364/399/126
f 192/226/107 194/230/109 364/399/126 363/398/125
f 227/270/10 365/273/10 364/399/126 366/400/127
f 194/230/109 196/232/111 366/400/127 364/399/126
f 225/268/10 227/270/10 366/400/127 367/401/128
f 196/232/111 198/236/113 367/401/128 366/400/127
f 223/267/10 225/268/10 367/401/128 368/402/129
f 198/236/113 200/238/115 368/402/129 367/401/128
f 211/253/10 223/267/10 368/402/129 209/251/122
f 200/238/115 202/242/117 209/251/122 368/402/129
f 71/77/43 100/403/63 102/249/65 69/76/42
f 100/403/63 71/77/43 73/79/44 98/404/62
f 75/81/45 86/99/53 98/404/62 73/79/44
f 84/93/50 2/1/1 6/4/4 91/104/57
