# Blender 4.5.3 LTS
# www.blender.org
o Remix_Special_Edition.047
v 14.137452 -20.487007 21.575932
v 14.137452 -21.142809 21.575932
v 14.079196 -20.486998 22.161686
v 14.079196 -20.486998 20.990192
v 14.079196 -21.142815 20.990192
v 13.908860 -20.487003 20.426739
v 13.908862 -21.142807 20.426739
v 13.630885 -20.486992 19.907871
v 13.630887 -21.142815 19.907871
v 13.257897 -20.486992 19.452488
v 13.257897 -21.142809 19.452488
v 12.802518 -20.486998 19.079494
v 12.802518 -21.142807 19.079494
v 12.283648 -20.486992 18.801517
v 12.283648 -21.142815 18.801517
v 11.720190 -20.487003 18.631176
v 11.720190 -21.142815 18.631176
v 11.134440 -20.486998 18.572926
v 11.134440 -21.142815 18.572918
v 10.548693 -20.487003 18.631176
v 10.548693 -21.142815 18.631176
v 9.985242 -20.486992 18.801517
v 9.985242 -21.142815 18.801517
v 9.466373 -20.486998 19.079494
v 9.466373 -21.142807 19.079494
v 9.010992 -20.486992 19.452488
v 9.010992 -21.142809 19.452488
v 8.638000 -20.486992 19.907871
v 8.638000 -21.142815 19.907871
v 8.360021 -20.487003 20.426739
v 8.360021 -21.142807 20.426739
v 8.189685 -20.486992 20.990192
v 8.189685 -21.142815 20.990185
v 8.131429 -20.486992 21.575932
v 8.131429 -21.142809 21.575932
v 8.189685 -20.486992 22.161686
v 8.189685 -21.142807 22.161678
v 8.360021 -20.487001 22.725140
v 8.360021 -21.142805 22.725140
v 8.638000 -20.486996 23.244007
v 8.638000 -21.142807 23.243999
v 9.010992 -20.486996 23.699390
v 9.010992 -21.142807 23.699383
v 9.466373 -20.486992 24.072384
v 9.466373 -21.142805 24.072376
v 9.985242 -20.486992 24.350361
v 9.985242 -21.142805 24.350361
v 10.548693 -20.486996 24.520687
v 10.548693 -21.142807 24.520687
v 11.134440 -20.486992 24.578945
v 11.134440 -21.142807 24.578945
v 11.720190 -20.486996 24.520687
v 11.720190 -21.142807 24.520687
v 12.283648 -20.486992 24.350361
v 12.283648 -21.142805 24.350361
v 12.802518 -20.486992 24.072384
v 12.802518 -21.142805 24.072376
v 13.257897 -20.486996 23.699390
v 13.257897 -21.142807 23.699390
v 13.630885 -20.486996 23.244007
v 13.630885 -21.142815 23.243999
v 13.908860 -20.487001 22.725140
v 13.908862 -21.142807 22.725140
v 14.079197 -21.142809 22.161686
v 13.934516 -27.734852 22.738689
v 13.665621 -27.741968 23.270832
v 14.093360 -27.727907 22.167164
v 13.853611 -27.866703 22.712605
v 13.609751 -27.996054 22.633770
v 14.006859 -27.860315 22.154446
v 13.594581 -27.873121 23.230434
v 13.379907 -28.000343 23.108074
v 13.238552 -27.879650 23.687489
v 13.060821 -28.005407 23.520145
v 12.794317 -27.886389 24.063335
v 13.297212 -27.748983 23.742634
v 12.839826 -27.755640 24.133144
v 12.312964 -27.761608 24.427357
v 11.736130 -27.766571 24.610233
v 12.281092 -27.892723 24.345097
v 12.184164 -28.019838 24.094898
v 11.718090 -27.897985 24.519932
v 11.663260 -28.026026 24.245045
v 11.129244 -27.901766 24.583073
v 11.117632 -28.030144 24.297718
v 10.538479 -27.903641 24.529728
v 11.133133 -27.770241 24.676731
v 10.527782 -27.772329 24.621792
v 9.944758 -27.772676 24.448536
v 9.970415 -27.903612 24.363033
v 9.408744 -27.771109 24.160061
v 8.940265 -27.768532 23.771397
v 9.449677 -27.901691 24.086117
v 9.575042 -28.027250 23.860371
v 8.996177 -27.899010 23.711834
v 9.167065 -28.024208 23.529964
v 8.629829 -27.896656 23.253086
v 8.843255 -28.022797 23.117329
v 8.362191 -27.893641 22.730350
v 8.559850 -27.765882 23.297543
v 8.281054 -27.762358 22.759556
v 8.117433 -27.757175 22.178501
v 8.204820 -27.888887 22.164150
v 8.070536 -27.751005 21.578419
v 8.159336 -27.882936 21.578495
v 8.141907 -27.744553 20.983303
v 8.227365 -27.876265 20.997448
v 8.326190 -27.737902 20.415653
v 8.403778 -27.869152 20.443584
v 8.618030 -27.731169 19.897923
v 8.683450 -27.861862 19.939518
v 9.002967 -27.724516 19.448154
v 9.053954 -27.854939 19.502918
v 9.466550 -27.718103 19.084393
v 9.502865 -27.848904 19.151447
v 9.989356 -27.712418 18.816631
v 10.011344 -27.843853 18.893452
v 10.551968 -27.707951 18.654896
v 11.133580 -27.704817 18.602734
v 10.560551 -27.839922 18.737301
v 10.586159 -27.969645 18.983440
v 11.129414 -27.837046 18.686512
v 11.116958 -27.967508 18.936481
v 11.696861 -27.835135 18.744595
v 11.647564 -27.964928 18.985790
v 12.241500 -27.834070 18.907650
v 11.713397 -27.703129 18.663715
v 12.270351 -27.702559 18.833714
v 12.783376 -27.702742 19.108624
v 13.235463 -27.704073 19.476124
v 12.741938 -27.833689 19.171711
v 12.618479 -27.960289 19.359676
v 13.181267 -27.834738 19.526417
v 13.019689 -27.960495 19.676205
v 13.542581 -27.837944 19.961338
v 13.342505 -27.964794 20.072956
v 13.814604 -27.842638 20.460072
v 13.609593 -27.706921 19.923878
v 13.892514 -27.710941 20.435322
v 14.070963 -27.715784 20.993855
v 14.139669 -27.721445 21.578228
v 13.986052 -27.848093 21.006245
v 13.731685 -27.978771 21.043217
v 14.051832 -27.854071 21.578228
v 13.788223 -27.985723 21.578136
v 13.428275 -28.097765 21.578014
v 13.746718 -27.991331 22.116055
v 13.393107 -28.102385 22.067753
v 13.281954 -28.104710 22.534641
v 13.026196 -28.174917 22.025318
v 12.949246 -28.174471 22.447674
v 12.647339 -28.221554 21.995113
v 13.051428 -28.171560 21.577938
v 12.662154 -28.219397 21.577908
v 13.020455 -28.163786 21.131634
v 12.642820 -28.211683 21.161602
v 12.938533 -28.152605 20.712055
v 13.384333 -28.089956 21.089962
v 13.265572 -28.080462 20.627689
v 13.076303 -28.070734 20.215298
v 13.581609 -27.971466 20.533939
v 12.810043 -28.064695 19.870075
v 12.810916 -28.139011 20.344852
v 12.526974 -28.181318 20.429493
v 12.611661 -28.130663 20.052525
v 12.314813 -28.135214 19.857510
v 12.454983 -28.164478 20.199230
v 12.217786 -28.178995 20.126102
v 11.872385 -28.193157 20.059925
v 12.205098 -28.209349 20.437000
v 11.848373 -28.226917 20.409794
v 12.232109 -28.230108 20.787090
v 12.595654 -28.198841 20.770641
v 11.850528 -28.250401 20.782093
v 12.254187 -28.245062 21.173260
v 11.856770 -28.267967 21.174709
v 12.264915 -28.253563 21.577923
v 11.861649 -28.277838 21.577991
v 12.257889 -28.254936 21.983494
v 11.859718 -28.278280 21.982265
v 12.239081 -28.249327 22.371891
v 12.604125 -28.218349 22.388294
v 11.856101 -28.270218 22.377323
v 12.214469 -28.236855 22.724987
v 11.855918 -28.254564 22.752979
v 12.538252 -28.209896 22.732517
v 12.229412 -28.214329 23.040005
v 12.467864 -28.199013 22.966030
v 11.881729 -28.228703 23.107662
v 12.329276 -28.178543 23.314152
v 11.956084 -28.190044 23.439816
v 12.482150 -28.115799 23.575260
v 12.627233 -28.170086 23.115543
v 12.825073 -28.170792 22.818905
v 12.833788 -28.108219 23.307278
v 13.097954 -28.105587 22.954105
v 12.062417 -28.124956 23.764034
v 12.656128 -28.012434 23.851177
v 11.593967 -28.132317 23.879604
v 11.101697 -28.136734 23.918552
v 11.532538 -28.198481 23.517681
v 11.084839 -28.202923 23.543407
v 11.486856 -28.238403 23.151455
v 11.464805 -28.265917 22.773159
v 11.069746 -28.242798 23.166027
v 10.655355 -28.241331 23.145977
v 11.059104 -28.270491 22.780094
v 11.052217 -28.289085 22.385921
v 10.656796 -28.267876 22.768307
v 10.651229 -28.285059 22.380062
v 10.275296 -28.258781 22.743893
v 10.263890 -28.273411 22.370853
v 9.932016 -28.243931 22.712971
v 10.267814 -28.234476 23.097439
v 9.931258 -28.222733 23.026585
v 10.220996 -28.197678 23.430637
v 10.144801 -28.134281 23.760029
v 10.639191 -28.202396 23.512730
v 9.855653 -28.189520 23.302166
v 9.564312 -28.183800 23.102634
v 9.728986 -28.129333 23.569996
v 9.380564 -28.125387 23.301609
v 9.117044 -28.125601 22.949123
v 8.932586 -28.126637 22.531132
v 9.368123 -28.186401 22.807346
v 9.243270 -28.191187 22.439243
v 9.628957 -28.220676 22.719463
v 9.559575 -28.229422 22.378841
v 9.704702 -28.209892 22.952473
v 9.899894 -28.255848 22.363247
v 9.514324 -28.232647 21.990574
v 9.876860 -28.261244 21.979359
v 9.498519 -28.230423 21.578922
v 9.165929 -28.192026 22.021282
v 9.140287 -28.188713 21.578907
v 8.821335 -28.125164 22.066257
v 8.786076 -28.120733 21.578793
v 8.470211 -28.017834 22.120312
v 8.428470 -28.012493 21.578648
v 8.609130 -28.021255 22.641186
v 8.485885 -28.005178 21.040188
v 8.638061 -27.996675 20.527889
v 8.829571 -28.112909 21.093037
v 8.947811 -28.102734 20.632717
v 9.170530 -28.181036 21.137539
v 9.517471 -28.222782 21.168087
v 9.251811 -28.169559 20.722187
v 9.565443 -28.209913 20.781857
v 9.379275 -28.154858 20.357883
v 9.636684 -28.191994 20.444019
v 9.576287 -28.144461 20.066654
v 9.136781 -28.091257 20.221577
v 9.401757 -28.082314 19.876865
v 8.880603 -27.987745 20.064762
v 9.207265 -27.980000 19.667385
v 9.611798 -27.975086 19.352383
v 10.077123 -27.971962 19.123226
v 9.748023 -28.079720 19.615856
v 10.158776 -28.080156 19.431698
v 9.866211 -28.145887 19.870525
v 10.228387 -28.151817 19.744579
v 9.938647 -28.186905 20.140606
v 9.713710 -28.175180 20.214046
v 9.937610 -28.216093 20.450306
v 10.272840 -28.198269 20.070942
v 10.279021 -28.230755 20.419819
v 10.657029 -28.204462 20.023090
v 10.657898 -28.239559 20.395596
v 11.067575 -28.205641 20.003139
v 10.642156 -28.154947 19.663937
v 11.082764 -28.154934 19.633595
v 10.617218 -28.080265 19.317577
v 11.100106 -28.079155 19.277287
v 11.584193 -28.075903 19.314655
v 12.045570 -28.071331 19.426418
v 11.525445 -28.151442 19.658550
v 11.480838 -28.201952 20.017178
v 11.944652 -28.144772 19.734608
v 11.459882 -28.237839 20.390232
v 11.057198 -28.242071 20.383717
v 11.453544 -28.263767 20.776333
v 11.050824 -28.269014 20.774273
v 11.452789 -28.284403 21.174061
v 11.047660 -28.291283 21.173779
v 11.454284 -28.296003 21.578114
v 11.047057 -28.303841 21.578266
v 11.454697 -28.294815 21.983204
v 11.048388 -28.301655 21.983807
v 11.457160 -28.283802 22.383503
v 10.646358 -28.295891 21.981564
v 10.644206 -28.297125 21.578457
v 10.254037 -28.281195 21.979183
v 10.249866 -28.280807 21.578655
v 9.868175 -28.259846 21.578831
v 10.255514 -28.270914 21.179073
v 10.266665 -28.253553 20.789700
v 9.879103 -28.251377 21.179127
v 10.646799 -28.285507 21.176373
v 10.652057 -28.264996 20.780384
v 9.904096 -28.236555 20.797276
v 12.155546 -27.962370 19.127995
v 12.460326 -28.066248 19.609341
v 10.610507 -28.137070 23.877460
v 10.571494 -28.031353 24.249035
v 10.049185 -28.030203 24.102184
vn 1.0000 -0.0000 -0.0000
vn 1.0000 0.0002 -0.0048
vn 0.9800 -0.0006 -0.1992
vn 0.9808 -0.0000 -0.1951
vn 0.9808 -0.0000 0.1951
vn 0.9818 0.0012 0.1898
vn 0.9225 -0.0014 -0.3860
vn 0.9239 -0.0000 -0.3827
vn 0.8299 -0.0020 -0.5580
vn 0.8315 -0.0000 -0.5556
vn 0.7059 -0.0024 -0.7083
vn 0.7071 -0.0000 -0.7071
vn 0.5552 -0.0026 -0.8317
vn 0.5556 -0.0000 -0.8315
vn 0.3830 -0.0026 -0.9237
vn 0.3827 -0.0000 -0.9239
vn 0.1961 -0.0025 -0.9806
vn 0.1951 -0.0000 -0.9808
vn 0.0019 -0.0022 -1.0000
vn -0.0000 -0.0000 -1.0000
vn -0.1922 -0.0018 -0.9813
vn -0.1951 -0.0000 -0.9808
vn -0.3790 -0.0011 -0.9254
vn -0.3827 -0.0000 -0.9239
vn -0.5515 -0.0003 -0.8342
vn -0.5556 -0.0000 -0.8315
vn -0.7033 0.0007 -0.7109
vn -0.7071 -0.0000 -0.7071
vn -0.8285 0.0017 -0.5601
vn -0.8315 -0.0000 -0.5556
vn -0.9219 0.0027 -0.3875
vn -0.9239 -0.0000 -0.3827
vn -0.9798 0.0036 -0.2001
vn -0.9808 -0.0000 -0.1951
vn -1.0000 0.0046 -0.0052
vn -1.0000 -0.0000 -0.0000
vn -0.9817 0.0056 0.1901
vn -0.9808 -0.0000 0.1951
vn -0.9254 0.0064 0.3788
vn -0.9239 -0.0000 0.3827
vn -0.8331 0.0071 0.5531
vn -0.8315 -0.0000 0.5556
vn -0.7085 0.0076 0.7056
vn -0.7071 -0.0000 0.7071
vn -0.5564 0.0079 0.8309
vn -0.5556 -0.0000 0.8315
vn -0.3823 0.0079 0.9240
vn -0.3827 -0.0000 0.9239
vn -0.1934 0.0077 0.9811
vn -0.1951 -0.0000 0.9808
vn 0.0024 0.0074 1.0000
vn -0.0000 -0.0000 1.0000
vn 0.1981 0.0068 0.9802
vn 0.1951 -0.0000 0.9808
vn 0.3863 0.0062 0.9224
vn 0.3827 -0.0000 0.9239
vn 0.5595 0.0054 0.8288
vn 0.5556 -0.0000 0.8315
vn 0.7110 0.0044 0.7032
vn 0.7071 -0.0000 0.7071
vn 0.8348 0.0033 0.5506
vn 0.8315 -0.0000 0.5556
vn 0.9261 0.0022 0.3773
vn 0.9239 -0.0000 0.3827
vn 0.9448 -0.2810 0.1688
vn 0.8959 -0.2752 0.3487
vn 0.8123 -0.2684 0.5179
vn 0.6361 -0.7347 0.2359
vn 0.5835 -0.7283 0.3593
vn 0.6638 -0.7400 0.1083
vn 0.3612 -0.9240 0.1256
vn 0.3348 -0.9213 0.1978
vn 0.3737 -0.9260 0.0543
vn 0.5004 -0.7274 0.4696
vn 0.2863 -0.9212 0.2633
vn 0.6943 -0.2659 0.6687
vn 0.3903 -0.7360 0.5532
vn 0.2188 -0.9256 0.3089
vn 0.5469 -0.2711 0.7921
vn 0.3781 -0.2803 0.8823
vn 0.2660 -0.7490 0.6069
vn 0.1961 -0.2883 0.9372
vn 0.1375 -0.7597 0.6356
vn 0.1458 -0.9317 0.3327
vn 0.0748 -0.9363 0.3432
vn 0.0087 -0.7640 0.6452
vn 0.0059 -0.9382 0.3461
vn 0.0083 -0.2912 0.9566
vn -0.1205 -0.7614 0.6370
vn -0.0633 -0.9372 0.3430
vn -0.1804 -0.2885 0.9403
vn -0.3647 -0.2807 0.8878
vn -0.2507 -0.7521 0.6095
vn -0.5364 -0.2712 0.7992
vn -0.3765 -0.7404 0.5569
vn -0.6860 -0.2658 0.6773
vn -0.4872 -0.7329 0.4749
vn -0.1346 -0.9334 0.3326
vn -0.2079 -0.9280 0.3092
vn -0.2748 -0.9243 0.2647
vn -0.5712 -0.7350 0.3654
vn -0.3228 -0.9251 0.1999
vn -0.8067 -0.2683 0.5266
vn -0.6260 -0.7421 0.2396
vn -0.3498 -0.9282 0.1267
vn -0.8937 -0.2750 0.3545
vn -0.9446 -0.2805 0.1705
vn -0.6554 -0.7474 0.1089
vn -0.6646 -0.7469 -0.0210
vn -0.9594 -0.2815 -0.0168
vn -0.6553 -0.7402 -0.1505
vn -0.9391 -0.2773 -0.2028
vn -0.6259 -0.7278 -0.2804
vn -0.8838 -0.2688 -0.3830
vn -0.5708 -0.7139 -0.4057
vn -0.7937 -0.2595 -0.5502
vn -0.4855 -0.7056 -0.5162
vn -0.6712 -0.2547 -0.6962
vn -0.3740 -0.7078 -0.5992
vn -0.5220 -0.2577 -0.8131
vn -0.2499 -0.7164 -0.6514
vn -0.3548 -0.2654 -0.8965
vn -0.1768 -0.2725 -0.9458
vn -0.1218 -0.7245 -0.6784
vn 0.0068 -0.2752 -0.9614
vn 0.0072 -0.7272 -0.6864
vn -0.0667 -0.9183 -0.3902
vn -0.1393 -0.9148 -0.3791
vn 0.0049 -0.9195 -0.3932
vn 0.1366 -0.7238 -0.6764
vn 0.0768 -0.9178 -0.3895
vn 0.1904 -0.2729 -0.9430
vn 0.2659 -0.7145 -0.6472
vn 0.1507 -0.9135 -0.3779
vn 0.3687 -0.2660 -0.8907
vn 0.5347 -0.2581 -0.8047
vn 0.3904 -0.7039 -0.5934
vn 0.6801 -0.2550 -0.6873
vn 0.4995 -0.6999 -0.5104
vn 0.2261 -0.9082 -0.3522
vn 0.2938 -0.9062 -0.3042
vn 0.5817 -0.7076 -0.4012
vn 0.3404 -0.9102 -0.2358
vn 0.7985 -0.2601 -0.5429
vn 0.6346 -0.7214 -0.2772
vn 0.3647 -0.9171 -0.1608
vn 0.8858 -0.2697 -0.3777
vn 0.6630 -0.7337 -0.1487
vn 0.9395 -0.2783 -0.1997
vn 0.6724 -0.7399 -0.0201
vn 0.9592 -0.2822 -0.0158
vn 0.3753 -0.9228 -0.0876
vn 0.3780 -0.9257 -0.0164
vn 0.2485 -0.9685 -0.0146
vn 0.2482 -0.9668 -0.0606
vn 0.2469 -0.9685 0.0311
vn 0.2423 -0.9671 0.0780
vn 0.1573 -0.9864 0.0469
vn 0.1586 -0.9872 0.0162
vn 0.1594 -0.9871 -0.0134
vn 0.1023 -0.9942 0.0319
vn 0.1038 -0.9946 0.0093
vn 0.1045 -0.9944 -0.0126
vn 0.1044 -0.9939 -0.0349
vn 0.1601 -0.9861 -0.0434
vn 0.1038 -0.9929 -0.0587
vn 0.1598 -0.9843 -0.0755
vn 0.2447 -0.9635 -0.1087
vn 0.1551 -0.9815 -0.1120
vn 0.2326 -0.9591 -0.1615
vn 0.2015 -0.9563 -0.2119
vn 0.1369 -0.9796 -0.1473
vn 0.1023 -0.9911 -0.0857
vn 0.0994 -0.9890 -0.1091
vn 0.1519 -0.9577 -0.2446
vn 0.1025 -0.9806 -0.1669
vn 0.0763 -0.9907 -0.1127
vn 0.0698 -0.9944 -0.0792
vn 0.0487 -0.9922 -0.1150
vn 0.0656 -0.9827 -0.1731
vn 0.0439 -0.9959 -0.0789
vn 0.0694 -0.9961 -0.0540
vn 0.0449 -0.9975 -0.0551
vn 0.0710 -0.9969 -0.0333
vn 0.0486 -0.9982 -0.0357
vn 0.0724 -0.9973 -0.0125
vn 0.0509 -0.9986 -0.0128
vn 0.0716 -0.9974 0.0083
vn 0.0491 -0.9987 0.0106
vn 0.0694 -0.9972 0.0293
vn 0.0452 -0.9985 0.0317
vn 0.0992 -0.9934 0.0578
vn 0.0678 -0.9962 0.0542
vn 0.0432 -0.9975 0.0559
vn 0.0721 -0.9938 0.0847
vn 0.0466 -0.9951 0.0875
vn 0.0948 -0.9922 0.0804
vn 0.1326 -0.9842 0.1170
vn 0.0977 -0.9859 0.1358
vn 0.0626 -0.9881 0.1407
vn 0.0953 -0.9705 0.2213
vn 0.1467 -0.9668 0.2093
vn 0.1966 -0.9641 0.1783
vn 0.2290 -0.9648 0.1293
vn 0.1519 -0.9850 0.0822
vn 0.0488 -0.9732 0.2248
vn 0.0323 -0.9894 0.1414
vn 0.0043 -0.9742 0.2258
vn 0.0035 -0.9899 0.1415
vn 0.0028 -0.9960 0.0888
vn 0.0243 -0.9958 0.0886
vn 0.0226 -0.9981 0.0581
vn 0.0021 -0.9983 0.0588
vn -0.0255 -0.9896 0.1415
vn -0.0186 -0.9960 0.0880
vn -0.0182 -0.9982 0.0572
vn 0.0015 -0.9993 0.0377
vn 0.0245 -0.9991 0.0358
vn -0.0212 -0.9991 0.0355
vn -0.0404 -0.9987 0.0313
vn -0.0381 -0.9978 0.0547
vn -0.0409 -0.9954 0.0865
vn -0.0631 -0.9976 0.0292
vn -0.0618 -0.9966 0.0536
vn -0.0661 -0.9943 0.0839
vn -0.0562 -0.9885 0.1407
vn -0.0915 -0.9865 0.1360
vn -0.0872 -0.9712 0.2216
vn -0.1390 -0.9677 0.2102
vn -0.0403 -0.9735 0.2250
vn -0.0882 -0.9929 0.0801
vn -0.1264 -0.9849 0.1180
vn -0.1890 -0.9653 0.1801
vn -0.2219 -0.9661 0.1317
vn -0.1459 -0.9857 0.0839
vn -0.2359 -0.9685 0.0796
vn -0.1519 -0.9872 0.0480
vn -0.0954 -0.9949 0.0323
vn -0.0924 -0.9940 0.0582
vn -0.0972 -0.9952 0.0092
vn -0.0654 -0.9978 0.0083
vn -0.1536 -0.9880 0.0164
vn -0.0980 -0.9951 -0.0125
vn -0.0664 -0.9977 -0.0125
vn -0.1544 -0.9879 -0.0132
vn -0.2430 -0.9699 -0.0144
vn -0.2411 -0.9700 0.0314
vn -0.3677 -0.9298 -0.0166
vn -0.3629 -0.9302 0.0541
vn -0.3655 -0.9267 -0.0876
vn -0.2428 -0.9682 -0.0606
vn -0.3547 -0.9210 -0.1612
vn -0.2389 -0.9648 -0.1097
vn -0.1542 -0.9851 -0.0762
vn -0.1551 -0.9870 -0.0433
vn -0.0977 -0.9946 -0.0347
vn -0.0967 -0.9936 -0.0590
vn -0.0949 -0.9918 -0.0862
vn -0.1485 -0.9824 -0.1132
vn -0.2255 -0.9605 -0.1631
vn -0.0920 -0.9898 -0.1089
vn -0.1298 -0.9804 -0.1479
vn -0.1930 -0.9577 -0.2133
vn -0.3292 -0.9141 -0.2366
vn -0.2813 -0.9098 -0.3053
vn -0.2134 -0.9107 -0.3536
vn -0.1431 -0.9587 -0.2457
vn -0.0907 -0.9616 -0.2589
vn -0.0594 -0.9831 -0.1730
vn -0.0956 -0.9813 -0.1670
vn -0.0436 -0.9925 -0.1141
vn -0.0701 -0.9912 -0.1120
vn -0.0637 -0.9948 -0.0793
vn -0.0394 -0.9961 -0.0785
vn -0.0198 -0.9931 -0.1154
vn -0.0188 -0.9966 -0.0801
vn -0.0272 -0.9843 -0.1742
vn 0.0022 -0.9932 -0.1162
vn 0.0016 -0.9967 -0.0814
vn 0.0028 -0.9847 -0.1743
vn -0.0426 -0.9639 -0.2629
vn 0.0035 -0.9646 -0.2635
vn 0.0499 -0.9637 -0.2624
vn 0.0329 -0.9841 -0.1743
vn 0.0987 -0.9611 -0.2581
vn 0.0243 -0.9930 -0.1160
vn 0.0224 -0.9965 -0.0805
vn 0.0013 -0.9982 -0.0607
vn 0.0245 -0.9980 -0.0587
vn 0.0283 -0.9988 -0.0397
vn 0.0012 -0.9991 -0.0419
vn 0.0012 -0.9999 -0.0129
vn 0.0304 -0.9995 -0.0129
vn 0.0283 -0.9995 0.0146
vn 0.0013 -0.9999 0.0168
vn -0.0275 -0.9995 -0.0129
vn -0.0254 -0.9996 0.0148
vn -0.0465 -0.9988 -0.0128
vn -0.0446 -0.9989 0.0108
vn -0.0649 -0.9973 -0.0334
vn -0.0442 -0.9984 -0.0360
vn -0.0255 -0.9989 -0.0400
vn -0.0404 -0.9977 -0.0551
vn -0.0215 -0.9980 -0.0587
vn -0.0631 -0.9965 -0.0543
vt 0.300295 0.217514
vt 0.300291 0.220230
vt 0.297853 0.220226
vt 0.297857 0.217509
vt 0.302733 0.217519
vt 0.302729 0.220235
vt 0.295415 0.220221
vt 0.295418 0.217505
vt 0.292977 0.220219
vt 0.292978 0.217503
vt 0.290539 0.220218
vt 0.290538 0.217502
vt 0.288101 0.220221
vt 0.288097 0.217504
vt 0.285663 0.220225
vt 0.285657 0.217509
vt 0.283226 0.220232
vt 0.283216 0.217516
vt 0.280788 0.220242
vt 0.280776 0.217526
vt 0.278350 0.220254
vt 0.278336 0.217538
vt 0.275912 0.220268
vt 0.275897 0.217552
vt 0.273474 0.220283
vt 0.273458 0.217567
vt 0.271036 0.220299
vt 0.271020 0.217583
vt 0.268598 0.220314
vt 0.268583 0.217598
vt 0.266160 0.220327
vt 0.266147 0.217611
vt 0.263721 0.220339
vt 0.263712 0.217623
vt 0.261283 0.220346
vt 0.261277 0.217630
vt 0.258844 0.220350
vt 0.258844 0.217634
vt 0.256406 0.220348
vt 0.256411 0.217632
vt 0.253967 0.220341
vt 0.253979 0.217625
vt 0.251528 0.220327
vt 0.251548 0.217611
vt 0.249089 0.220306
vt 0.249116 0.217590
vt 0.246651 0.220278
vt 0.246684 0.217562
vt 0.244212 0.220243
vt 0.244251 0.217527
vt 0.241775 0.220202
vt 0.241815 0.217487
vt 0.319778 0.217473
vt 0.319798 0.220187
vt 0.317360 0.220209
vt 0.317342 0.217492
vt 0.314921 0.220224
vt 0.314908 0.217508
vt 0.312483 0.220234
vt 0.312474 0.217518
vt 0.310044 0.220239
vt 0.310040 0.217523
vt 0.307606 0.220241
vt 0.307605 0.217524
vt 0.305167 0.220239
vt 0.305169 0.217523
vt 0.302690 0.247508
vt 0.305145 0.247541
vt 0.307612 0.247573
vt 0.305164 0.248189
vt 0.307628 0.248212
vt 0.302699 0.248164
vt 0.022838 0.016675
vt 0.023967 0.017047
vt 0.022863 0.019224
vt 0.021867 0.018649
vt 0.023423 0.014518
vt 0.024626 0.014699
vt 0.021348 0.021142
vt 0.020523 0.020360
vt 0.310089 0.247601
vt 0.310093 0.248236
vt 0.019462 0.022712
vt 0.018823 0.021731
vt 0.312578 0.247624
vt 0.312569 0.248265
vt 0.315076 0.247639
vt 0.315064 0.248287
vt 0.317580 0.247644
vt 0.317576 0.248307
vt 0.016846 0.022734
vt 0.017290 0.023881
vt 0.014915 0.024598
vt 0.014669 0.023346
vt 0.012436 0.024847
vt 0.012392 0.023552
vt 0.320063 0.248315
vt 0.320091 0.247641
vt 0.009952 0.024608
vt 0.010115 0.023334
vt 0.243795 0.248366
vt 0.241304 0.248319
vt 0.241258 0.247650
vt 0.243774 0.247699
vt 0.246290 0.247738
vt 0.246320 0.248392
vt 0.248809 0.247761
vt 0.248834 0.248403
vt 0.251328 0.247772
vt 0.251338 0.248408
vt 0.007939 0.022709
vt 0.007564 0.023895
vt 0.005375 0.022720
vt 0.005966 0.021689
vt 0.003470 0.021133
vt 0.004271 0.020299
vt 0.001937 0.019187
vt 0.002930 0.018567
vt 0.253843 0.247774
vt 0.253837 0.248415
vt 0.000827 0.016975
vt 0.001966 0.016573
vt 0.256350 0.247767
vt 0.256339 0.248411
vt 0.258848 0.247746
vt 0.258845 0.248402
vt 0.261349 0.248374
vt 0.261339 0.247716
vt 0.263842 0.248333
vt 0.263819 0.247681
vt 0.266316 0.248282
vt 0.266289 0.247642
vt 0.268767 0.248229
vt 0.268748 0.247601
vt 0.271198 0.248180
vt 0.271198 0.247558
vt 0.273618 0.248142
vt 0.273637 0.247516
vt 0.276040 0.248116
vt 0.276068 0.247477
vt 0.278490 0.247444
vt 0.278466 0.248089
vt 0.280907 0.247420
vt 0.280895 0.248067
vt 0.007878 0.000843
vt 0.010198 0.000203
vt 0.010316 0.001354
vt 0.008186 0.001923
vt 0.012596 0.000005
vt 0.012532 0.001172
vt 0.014985 0.000265
vt 0.014746 0.001393
vt 0.283320 0.247403
vt 0.283321 0.248047
vt 0.017276 0.000965
vt 0.016863 0.001999
vt 0.285730 0.247394
vt 0.285738 0.248029
vt 0.288139 0.247390
vt 0.288141 0.248015
vt 0.290550 0.247394
vt 0.290536 0.248015
vt 0.019382 0.002088
vt 0.018791 0.002978
vt 0.021229 0.003597
vt 0.020459 0.004311
vt 0.022740 0.005444
vt 0.021796 0.005978
vt 0.292965 0.247406
vt 0.292935 0.248033
vt 0.023869 0.007558
vt 0.022780 0.007910
vt 0.295384 0.247425
vt 0.295348 0.248060
vt 0.297784 0.248100
vt 0.297810 0.247448
vt 0.300236 0.248138
vt 0.300246 0.247476
vt 0.024571 0.009866
vt 0.023390 0.010041
vt 0.024828 0.012275
vt 0.023610 0.012274
vt 0.022052 0.012270
vt 0.021883 0.010243
vt 0.021893 0.014301
vt 0.021419 0.016236
vt 0.020018 0.015860
vt 0.020348 0.014114
vt 0.020465 0.012263
vt 0.018583 0.015603
vt 0.018772 0.013979
vt 0.018845 0.012255
vt 0.018776 0.010533
vt 0.020349 0.010414
vt 0.018591 0.008915
vt 0.020021 0.008675
vt 0.021404 0.008320
vt 0.019504 0.007151
vt 0.020630 0.006603
vt 0.019534 0.005162
vt 0.018687 0.005934
vt 0.018318 0.007501
vt 0.018029 0.006544
vt 0.018089 0.004070
vt 0.017463 0.005119
vt 0.017048 0.006238
vt 0.016984 0.007528
vt 0.015620 0.005957
vt 0.015933 0.004602
vt 0.015509 0.007408
vt 0.017084 0.008977
vt 0.015507 0.008948
vt 0.017165 0.010574
vt 0.015521 0.010571
vt 0.017198 0.012246
vt 0.015530 0.012236
vt 0.017158 0.013921
vt 0.015512 0.013905
vt 0.017071 0.015524
vt 0.015487 0.015537
vt 0.018303 0.017024
vt 0.016961 0.016983
vt 0.015478 0.017089
vt 0.017018 0.018288
vt 0.015577 0.018559
vt 0.018008 0.017990
vt 0.018668 0.018616
vt 0.017429 0.019430
vt 0.015881 0.019941
vt 0.016324 0.021306
vt 0.018071 0.020533
vt 0.019538 0.019430
vt 0.020644 0.017971
vt 0.019495 0.017393
vt 0.014377 0.021773
vt 0.014126 0.020252
vt 0.012333 0.021921
vt 0.012272 0.020347
vt 0.012219 0.018779
vt 0.013944 0.018730
vt 0.013861 0.017163
vt 0.012185 0.017181
vt 0.010429 0.020209
vt 0.010507 0.018685
vt 0.010524 0.017121
vt 0.012167 0.015551
vt 0.013839 0.015552
vt 0.010511 0.015517
vt 0.008912 0.015468
vt 0.008948 0.017010
vt 0.008906 0.018474
vt 0.007407 0.015427
vt 0.007530 0.016874
vt 0.007516 0.018172
vt 0.008700 0.019857
vt 0.007192 0.019315
vt 0.008367 0.021239
vt 0.006646 0.020439
vt 0.010296 0.021739
vt 0.006579 0.017861
vt 0.005991 0.018482
vt 0.005208 0.019316
vt 0.004123 0.017846
vt 0.005187 0.017254
vt 0.003369 0.016106
vt 0.004680 0.015727
vt 0.005997 0.015484
vt 0.006274 0.016894
vt 0.005820 0.013877
vt 0.007322 0.013841
vt 0.004370 0.013995
vt 0.005766 0.012176
vt 0.007297 0.012186
vt 0.004276 0.012164
vt 0.002786 0.012151
vt 0.002919 0.014174
vt 0.001239 0.012135
vt 0.001400 0.014396
vt 0.000000 0.012118
vt 0.000179 0.014587
vt 0.000303 0.009673
vt 0.001492 0.009889
vt 0.002978 0.010136
vt 0.001058 0.007343
vt 0.002141 0.007754
vt 0.003481 0.008228
vt 0.004760 0.008620
vt 0.004412 0.010338
vt 0.005855 0.010478
vt 0.006063 0.008881
vt 0.006365 0.007484
vt 0.005296 0.007114
vt 0.004275 0.006525
vt 0.006688 0.006532
vt 0.006119 0.005912
vt 0.005384 0.005100
vt 0.003164 0.005825
vt 0.004538 0.004173
vt 0.002246 0.005222
vt 0.003820 0.003387
vt 0.005725 0.001915
vt 0.006237 0.002867
vt 0.006828 0.004025
vt 0.008538 0.003271
vt 0.008828 0.004597
vt 0.007325 0.005108
vt 0.009007 0.005960
vt 0.007622 0.006237
vt 0.007612 0.007522
vt 0.009025 0.007407
vt 0.010597 0.005773
vt 0.010591 0.007318
vt 0.010543 0.004274
vt 0.012294 0.005701
vt 0.012241 0.007280
vt 0.012367 0.004161
vt 0.010445 0.002809
vt 0.012451 0.002656
vt 0.014459 0.002823
vt 0.014199 0.004276
vt 0.016371 0.003300
vt 0.014002 0.005770
vt 0.013904 0.007317
vt 0.012204 0.008896
vt 0.013867 0.008915
vt 0.013852 0.010559
vt 0.012180 0.010547
vt 0.012167 0.012217
vt 0.013847 0.012227
vt 0.013839 0.013899
vt 0.012161 0.013891
vt 0.010504 0.012207
vt 0.010502 0.013871
vt 0.008875 0.012197
vt 0.008882 0.013851
vt 0.007353 0.010535
vt 0.008909 0.010546
vt 0.010525 0.010547
vt 0.008965 0.008937
vt 0.010557 0.008910
vt 0.007466 0.008957
s 1
f 1/1/1 2/2/2 5/3/3 4/4/4
f 2/2/2 1/1/1 3/5/5 64/6/6
f 7/7/7 6/8/8 4/4/4 5/3/3
f 6/8/8 7/7/7 9/9/9 8/10/10
f 11/11/11 10/12/12 8/10/10 9/9/9
f 10/12/12 11/11/11 13/13/13 12/14/14
f 15/15/15 14/16/16 12/14/14 13/13/13
f 14/16/16 15/15/15 17/17/17 16/18/18
f 19/19/19 18/20/20 16/18/18 17/17/17
f 18/20/20 19/19/19 21/21/21 20/22/22
f 23/23/23 22/24/24 20/22/22 21/21/21
f 22/24/24 23/23/23 25/25/25 24/26/26
f 27/27/27 26/28/28 24/26/26 25/25/25
f 26/28/28 27/27/27 29/29/29 28/30/30
f 31/31/31 30/32/32 28/30/30 29/29/29
f 30/32/32 31/31/31 33/33/33 32/34/34
f 35/35/35 34/36/36 32/34/34 33/33/33
f 34/36/36 35/35/35 37/37/37 36/38/38
f 39/39/39 38/40/40 36/38/38 37/37/37
f 38/40/40 39/39/39 41/41/41 40/42/42
f 43/43/43 42/44/44 40/42/42 41/41/41
f 42/44/44 43/43/43 45/45/45 44/46/46
f 47/47/47 46/48/48 44/46/46 45/45/45
f 46/48/48 47/47/47 49/49/49 48/50/50
f 51/51/51 50/52/52 48/50/50 49/49/49
f 50/53/52 51/54/51 53/55/53 52/56/54
f 55/57/55 54/58/56 52/56/54 53/55/53
f 54/58/56 55/57/55 57/59/57 56/60/58
f 59/61/59 58/62/60 56/60/58 57/59/57
f 58/62/60 59/61/59 61/63/61 60/64/62
f 63/65/63 62/66/64 60/64/62 61/63/61
f 62/66/64 63/65/63 64/6/6 3/5/5
f 67/67/65 64/6/6 63/65/63 65/68/66
f 63/65/63 61/63/61 66/69/67 65/68/66
f 68/70/68 65/68/66 66/69/67 71/71/69
f 65/68/66 68/70/68 70/72/70 67/67/65
f 69/73/71 68/74/68 71/75/69 72/76/72
f 68/74/68 69/73/71 147/77/73 70/78/70
f 73/79/74 74/80/75 72/76/72 71/75/69
f 76/81/76 73/82/74 71/71/69 66/69/67
f 74/80/75 73/79/74 75/83/77 198/84/78
f 73/82/74 76/81/76 77/85/79 75/86/77
f 57/59/57 77/85/79 76/81/76 59/61/59
f 59/61/59 76/81/76 66/69/67 61/63/61
f 78/87/80 80/88/81 75/86/77 77/85/79
f 55/57/55 78/87/80 77/85/79 57/59/57
f 53/55/53 79/89/82 78/87/80 55/57/55
f 82/90/83 80/88/81 78/87/80 79/89/82
f 81/91/84 80/92/81 82/93/83 83/94/85
f 80/92/81 81/91/84 198/84/78 75/83/77
f 84/95/86 85/96/87 83/94/85 82/93/83
f 84/97/86 82/90/83 79/89/82 87/98/88
f 85/96/87 84/95/86 86/99/89 304/100/90
f 86/101/89 84/102/86 87/103/88 88/104/91
f 49/49/49 88/104/91 87/103/88 51/51/51
f 51/54/51 87/98/88 79/89/82 53/55/53
f 86/101/89 88/104/91 89/105/92 90/106/93
f 47/47/47 89/105/92 88/104/91 49/49/49
f 89/105/92 47/47/47 45/45/45 91/107/94
f 90/106/93 89/105/92 91/107/94 93/108/95
f 91/107/94 45/45/45 43/43/43 92/109/96
f 92/109/96 95/110/97 93/108/95 91/107/94
f 305/111/98 90/112/93 93/113/95 94/114/99
f 95/115/97 96/116/100 94/114/99 93/113/95
f 96/116/100 95/115/97 97/117/101 98/118/102
f 95/110/97 92/109/96 100/119/103 97/120/101
f 99/121/104 240/122/105 98/118/102 97/117/101
f 101/123/106 99/124/104 97/120/101 100/119/103
f 43/43/43 41/41/41 100/119/103 92/109/96
f 100/119/103 41/41/41 39/39/39 101/123/106
f 39/39/39 37/37/37 102/125/107 101/123/106
f 103/126/108 99/124/104 101/123/106 102/125/107
f 105/127/109 103/126/108 102/125/107 104/128/110
f 35/35/35 104/128/110 102/125/107 37/37/37
f 107/129/111 105/127/109 104/128/110 106/130/112
f 35/35/35 33/33/33 106/130/112 104/128/110
f 109/131/113 107/129/111 106/130/112 108/132/114
f 31/31/31 108/132/114 106/130/112 33/33/33
f 111/133/115 109/131/113 108/132/114 110/134/116
f 29/29/29 110/134/116 108/132/114 31/31/31
f 113/135/117 111/133/115 110/134/116 112/136/118
f 27/27/27 112/136/118 110/134/116 29/29/29
f 115/137/119 113/135/117 112/136/118 114/138/120
f 25/25/25 114/138/120 112/136/118 27/27/27
f 117/139/121 115/137/119 114/138/120 116/140/122
f 23/23/23 116/140/122 114/138/120 25/25/25
f 117/139/121 116/140/122 118/141/123 120/142/124
f 116/140/122 23/23/23 21/21/21 118/141/123
f 118/141/123 21/21/21 19/19/19 119/143/125
f 119/143/125 122/144/126 120/142/124 118/141/123
f 117/145/121 120/146/124 121/147/127 257/148/128
f 120/146/124 122/149/126 123/150/129 121/147/127
f 122/149/126 124/151/130 125/152/131 123/150/129
f 122/144/126 119/143/125 127/153/132 124/154/130
f 124/151/130 126/155/133 301/156/134 125/152/131
f 128/157/135 126/158/133 124/154/130 127/153/132
f 19/19/19 17/17/17 127/153/132 119/143/125
f 127/153/132 17/17/17 15/15/15 128/157/135
f 15/15/15 13/13/13 129/159/136 128/157/135
f 126/158/133 128/157/135 129/159/136 131/160/137
f 129/159/136 13/13/13 11/11/11 130/161/138
f 130/161/138 133/162/139 131/160/137 129/159/136
f 126/155/133 131/163/137 132/164/140 301/156/134
f 131/163/137 133/165/139 134/166/141 132/164/140
f 133/165/139 135/167/142 136/168/143 134/166/141
f 133/162/139 130/161/138 138/169/144 135/170/142
f 135/167/142 137/171/145 161/172/146 136/168/143
f 139/173/147 137/174/145 135/170/142 138/169/144
f 11/11/11 9/9/9 138/169/144 130/161/138
f 138/169/144 9/9/9 7/7/7 139/173/147
f 142/175/148 137/174/145 139/173/147 140/176/149
f 7/7/7 5/3/3 140/176/149 139/173/147
f 144/177/150 142/175/148 140/176/149 141/178/151
f 141/178/151 140/176/149 5/3/3 2/2/2
f 137/171/145 142/179/148 143/180/152 161/172/146
f 142/179/148 144/181/150 145/182/153 143/180/152
f 145/182/153 144/181/150 70/78/70 147/77/73
f 144/177/150 141/178/151 67/67/65 70/72/70
f 146/183/154 158/184/155 143/180/152 145/182/153
f 146/183/154 145/182/153 147/77/73 148/185/156
f 69/73/71 149/186/157 148/185/156 147/77/73
f 149/186/157 151/187/158 150/188/159 148/185/156
f 153/189/160 146/183/154 148/185/156 150/188/159
f 151/187/158 182/190/161 152/191/162 150/188/159
f 154/192/163 153/189/160 150/188/159 152/191/162
f 154/192/163 156/193/164 155/194/165 153/189/160
f 158/184/155 146/183/154 153/189/160 155/194/165
f 156/193/164 173/195/166 157/196/167 155/194/165
f 159/197/168 158/184/155 155/194/165 157/196/167
f 158/184/155 159/197/168 161/172/146 143/180/152
f 159/197/168 157/196/167 163/198/169 160/199/170
f 159/197/168 160/199/170 136/168/143 161/172/146
f 160/199/170 162/200/171 134/166/141 136/168/143
f 165/201/172 162/200/171 160/199/170 163/198/169
f 157/196/167 173/195/166 164/202/173 163/198/169
f 167/203/174 165/201/172 163/198/169 164/202/173
f 302/204/175 162/200/171 165/201/172 166/205/176
f 167/203/174 168/206/177 166/205/176 165/201/172
f 168/206/177 167/203/174 164/202/173 170/207/178
f 168/206/177 169/208/179 278/209/180 166/205/176
f 169/208/179 168/206/177 170/207/178 171/210/181
f 172/211/182 174/212/183 171/210/181 170/207/178
f 173/195/166 172/211/182 170/207/178 164/202/173
f 172/211/182 173/195/166 156/193/164 175/213/184
f 174/212/183 172/211/182 175/213/184 176/214/185
f 177/215/186 178/216/187 176/214/185 175/213/184
f 154/192/163 177/215/186 175/213/184 156/193/164
f 177/215/186 154/192/163 152/191/162 179/217/188
f 178/216/187 177/215/186 179/217/188 180/218/189
f 181/219/190 183/220/191 180/218/189 179/217/188
f 182/190/161 181/219/190 179/217/188 152/191/162
f 181/219/190 182/190/161 186/221/192 184/222/193
f 183/220/191 181/219/190 184/222/193 185/223/194
f 187/224/195 189/225/196 185/223/194 184/222/193
f 188/226/197 187/224/195 184/222/193 186/221/192
f 188/226/197 193/227/198 190/228/199 187/224/195
f 191/229/200 189/225/196 187/224/195 190/228/199
f 197/230/201 191/229/200 190/228/199 192/231/202
f 193/227/198 195/232/203 192/231/202 190/228/199
f 196/233/204 195/232/203 193/227/198 194/234/205
f 188/226/197 186/221/192 194/234/205 193/227/198
f 195/232/203 74/80/75 198/84/78 192/231/202
f 74/80/75 195/232/203 196/233/204 72/76/72
f 149/186/157 69/73/71 72/76/72 196/233/204
f 149/186/157 196/233/204 194/234/205 151/187/158
f 186/221/192 182/190/161 151/187/158 194/234/205
f 81/91/84 197/230/201 192/231/202 198/84/78
f 197/230/201 81/91/84 83/94/85 199/235/206
f 191/229/200 197/230/201 199/235/206 201/236/207
f 200/237/208 202/238/209 201/236/207 199/235/206
f 85/96/87 200/237/208 199/235/206 83/94/85
f 202/238/209 205/239/210 203/240/211 201/236/207
f 189/225/196 191/229/200 201/236/207 203/240/211
f 189/225/196 203/240/211 204/241/212 185/223/194
f 203/240/211 205/239/210 207/242/213 204/241/212
f 205/239/210 202/238/209 218/243/214 206/244/215
f 205/239/210 206/244/215 209/245/216 207/242/213
f 208/246/217 289/247/218 204/241/212 207/242/213
f 210/248/219 208/246/217 207/242/213 209/245/216
f 212/249/220 210/248/219 209/245/216 211/250/221
f 206/244/215 214/251/222 211/250/221 209/245/216
f 230/252/223 212/249/220 211/250/221 213/253/224
f 214/251/222 215/254/225 213/253/224 211/250/221
f 215/254/225 214/251/222 216/255/226 219/256/227
f 216/255/226 214/251/222 206/244/215 218/243/214
f 217/257/228 221/258/229 219/256/227 216/255/226
f 217/257/228 216/255/226 218/243/214 303/259/230
f 229/260/231 215/254/225 219/256/227 220/261/232
f 221/258/229 222/262/233 220/261/232 219/256/227
f 96/116/100 222/262/233 221/258/229 94/114/99
f 217/257/228 305/111/98 94/114/99 221/258/229
f 222/262/233 96/116/100 98/118/102 223/263/234
f 220/261/232 222/262/233 223/263/234 225/264/235
f 224/265/236 226/266/237 225/264/235 223/263/234
f 240/122/105 224/265/236 223/263/234 98/118/102
f 226/266/237 228/267/238 227/268/239 225/264/235
f 229/260/231 220/261/232 225/264/235 227/268/239
f 215/254/225 229/260/231 227/268/239 213/253/224
f 228/267/238 230/252/223 213/253/224 227/268/239
f 230/252/223 228/267/238 231/269/240 232/270/241
f 228/267/238 226/266/237 234/271/242 231/269/240
f 233/272/243 294/273/244 232/270/241 231/269/240
f 235/274/245 233/272/243 231/269/240 234/271/242
f 237/275/246 235/274/245 234/271/242 236/276/247
f 226/266/237 224/265/236 236/276/247 234/271/242
f 239/277/248 237/275/246 236/276/247 238/278/249
f 224/265/236 240/122/105 238/278/249 236/276/247
f 105/279/109 239/277/248 238/278/249 103/280/108
f 240/122/105 99/121/104 103/280/108 238/278/249
f 105/279/109 107/281/111 241/282/250 239/277/248
f 243/283/251 237/275/246 239/277/248 241/282/250
f 107/281/111 109/284/113 242/285/252 241/282/250
f 244/286/253 243/283/251 241/282/250 242/285/252
f 243/283/251 244/286/253 247/287/254 245/288/255
f 237/275/246 243/283/251 245/288/255 235/274/245
f 246/289/256 233/272/243 235/274/245 245/288/255
f 248/290/257 246/289/256 245/288/255 247/287/254
f 250/291/258 248/290/257 247/287/254 249/292/259
f 244/286/253 252/293/260 249/292/259 247/287/254
f 263/294/261 250/291/258 249/292/259 251/295/262
f 252/293/260 253/296/263 251/295/262 249/292/259
f 253/296/263 252/293/260 254/297/264 255/298/265
f 252/293/260 244/286/253 242/285/252 254/297/264
f 111/299/115 113/300/117 255/298/265 254/297/264
f 109/284/113 111/299/115 254/297/264 242/285/252
f 113/300/117 115/301/119 256/302/266 255/298/265
f 258/303/267 253/296/263 255/298/265 256/302/266
f 115/301/119 117/145/121 257/148/128 256/302/266
f 259/304/268 258/303/267 256/302/266 257/148/128
f 259/304/268 261/305/269 260/306/270 258/303/267
f 251/295/262 253/296/263 258/303/267 260/306/270
f 261/305/269 265/307/271 262/308/272 260/306/270
f 263/294/261 251/295/262 260/306/270 262/308/272
f 263/294/261 262/308/272 264/309/273 250/291/258
f 262/308/272 265/307/271 266/310/274 264/309/273
f 265/307/271 267/311/275 268/312/276 266/310/274
f 267/311/275 265/307/271 261/305/269 270/313/277
f 267/311/275 269/314/278 280/315/279 268/312/276
f 269/314/278 267/311/275 270/313/277 271/316/280
f 272/317/281 273/318/282 271/316/280 270/313/277
f 259/304/268 272/317/281 270/313/277 261/305/269
f 272/317/281 259/304/268 257/148/128 121/147/127
f 272/317/281 121/147/127 123/150/129 273/318/282
f 274/319/283 273/318/282 123/150/129 125/152/131
f 273/318/282 274/319/283 276/320/284 271/316/280
f 274/319/283 275/321/285 278/209/180 276/320/284
f 275/321/285 274/319/283 125/152/131 301/156/134
f 269/314/278 271/316/280 276/320/284 277/322/286
f 169/208/179 277/322/286 276/320/284 278/209/180
f 275/321/285 302/204/175 166/205/176 278/209/180
f 269/314/278 277/322/286 279/323/287 280/315/279
f 277/322/286 169/208/179 171/210/181 279/323/287
f 282/324/288 280/315/279 279/323/287 281/325/289
f 174/212/183 281/325/289 279/323/287 171/210/181
f 281/325/289 174/212/183 176/214/185 283/326/290
f 281/325/289 283/326/290 284/327/291 282/324/288
f 286/328/292 284/327/291 283/326/290 285/329/293
f 178/216/187 285/329/293 283/326/290 176/214/185
f 285/329/293 178/216/187 180/218/189 287/330/294
f 286/328/292 285/329/293 287/330/294 288/331/295
f 289/247/218 208/246/217 288/331/295 287/330/294
f 183/220/191 289/247/218 287/330/294 180/218/189
f 289/247/218 183/220/191 185/223/194 204/241/212
f 291/332/296 286/328/292 288/331/295 290/333/297
f 208/246/217 210/248/219 290/333/297 288/331/295
f 293/334/298 291/332/296 290/333/297 292/335/299
f 210/248/219 212/249/220 292/335/299 290/333/297
f 294/273/244 293/334/298 292/335/299 232/270/241
f 212/249/220 230/252/223 232/270/241 292/335/299
f 293/334/298 294/273/244 297/336/300 295/337/301
f 291/332/296 293/334/298 295/337/301 298/338/302
f 296/339/303 299/340/304 298/338/302 295/337/301
f 300/341/305 296/339/303 295/337/301 297/336/300
f 299/340/304 282/324/288 284/327/291 298/338/302
f 286/328/292 291/332/296 298/338/302 284/327/291
f 282/324/288 299/340/304 268/312/276 280/315/279
f 299/340/304 296/339/303 266/310/274 268/312/276
f 248/290/257 300/341/305 297/336/300 246/289/256
f 294/273/244 233/272/243 246/289/256 297/336/300
f 296/339/303 300/341/305 264/309/273 266/310/274
f 300/341/305 248/290/257 250/291/258 264/309/273
f 302/204/175 275/321/285 301/156/134 132/164/140
f 162/200/171 302/204/175 132/164/140 134/166/141
f 202/238/209 200/237/208 303/259/230 218/243/214
f 305/111/98 217/257/228 303/259/230 304/100/90
f 85/96/87 304/100/90 303/259/230 200/237/208
f 90/112/93 305/111/98 304/100/90 86/99/89
f 2/2/2 64/6/6 67/67/65 141/178/151
