# Blender 4.5.3 LTS
# www.blender.org
o Dualsense.045
v 36.413296 -23.842569 26.195084
v 35.680580 -23.855783 25.807976
v 36.341415 -23.804415 26.408394
v 37.214218 -23.828487 26.433456
v 36.491714 -23.898222 25.896149
v 37.250595 -23.883848 26.103539
v 36.572147 -23.960020 25.557007
v 35.806622 -23.912031 25.564018
v 35.937717 -23.974098 25.294472
v 35.221886 -23.923187 25.106339
v 35.041428 -23.867155 25.287422
v 35.414581 -23.984644 24.913803
v 34.764091 -23.929655 24.522308
v 34.432186 -23.931316 23.838478
v 35.033356 -23.988630 24.391632
v 34.521164 -23.875671 24.648682
v 34.134678 -23.879803 23.917076
v 34.338512 -23.837645 24.760551
v 34.894260 -23.828484 25.436897
v 34.224136 -23.771326 24.839035
v 33.923492 -23.842524 23.990570
v 33.797466 -23.776075 24.043762
v 33.669128 -23.840822 23.153564
v 33.536015 -23.773909 23.179962
v 33.582169 -23.831009 22.283165
v 33.896873 -23.878040 23.117928
v 33.815178 -23.868818 22.285164
v 34.225128 -23.928083 23.081413
v 34.152721 -23.918594 22.287849
v 34.602673 -23.982283 23.044846
v 34.542252 -23.972214 22.291031
v 34.770546 -23.987396 23.758461
v 34.978287 -24.031952 23.009079
v 35.104309 -24.038414 23.680702
v 34.931248 -24.021477 22.294533
v 35.424442 -24.073277 22.982971
v 36.013607 -24.102423 22.975357
v 35.508942 -24.079718 23.626945
v 35.391121 -24.062279 22.298889
v 35.993298 -24.090506 22.304611
v 35.423656 -24.047646 21.613777
v 36.012196 -24.076075 21.631981
v 35.507870 -24.029724 20.967949
v 34.977478 -24.006222 21.579636
v 34.601810 -23.956076 21.537315
v 35.102985 -23.987989 20.907120
v 34.768848 -23.935553 20.823341
v 35.293751 -23.968588 20.319763
v 35.030849 -23.912302 20.188751
v 35.596867 -23.946911 19.856163
v 35.629574 -24.008821 20.401672
v 36.116810 -24.022604 20.389664
v 35.775307 -23.980431 20.039268
v 36.135502 -23.978527 19.896606
v 36.699333 -23.959816 19.779083
v 36.059414 -23.921909 19.554955
v 35.933643 -23.856188 19.286469
v 36.645504 -23.895382 19.367149
v 36.567757 -23.825232 19.026413
v 37.319199 -23.869156 19.243752
v 37.283451 -23.795414 18.861038
v 38.036800 -23.845963 19.198303
v 37.345432 -23.938160 19.697556
v 37.353405 -24.002083 20.294930
v 38.032669 -23.917179 19.665825
v 38.027336 -23.982681 20.277252
v 38.719936 -23.900520 19.697639
v 38.701778 -23.966618 20.295692
v 39.368690 -23.887466 19.778778
v 38.754597 -23.828518 19.244308
v 38.797550 -23.751240 18.862282
v 39.430492 -23.817755 19.367729
v 40.022392 -23.814625 19.554474
v 39.515289 -23.741171 19.028328
v 40.153267 -23.740698 19.287903
v 39.601330 -23.659367 18.684608
v 40.288418 -23.660692 19.014862
v 39.684483 -23.585331 18.380829
v 38.840603 -23.669361 18.478119
v 38.043404 -23.689142 18.405525
v 38.882523 -23.595791 18.142593
v 38.922066 -23.543455 17.906464
v 38.046543 -23.616890 18.060303
v 38.049812 -23.565660 17.819054
v 37.211189 -23.646872 18.141838
v 37.177902 -23.596800 17.906105
v 36.410519 -23.682220 18.379509
v 37.246902 -23.717186 18.476944
v 36.487923 -23.750177 18.682655
v 35.803280 -23.784817 19.012932
v 35.219315 -23.818935 19.469353
v 35.678608 -23.719452 18.765587
v 35.569942 -23.671753 18.575668
v 35.040394 -23.756861 19.285126
v 34.894001 -23.710772 19.131134
v 34.520874 -23.792709 19.923164
v 34.338642 -23.749128 19.806892
v 34.134823 -23.824720 20.654190
v 34.762413 -23.850388 20.053497
v 34.431309 -23.878208 20.737770
v 34.224766 -23.901463 21.494606
v 33.897041 -23.850559 21.452728
v 33.669342 -23.811516 21.412933
v 33.536079 -23.743013 21.383873
v 33.923794 -23.783754 20.576370
v 33.797573 -23.714241 20.520142
v 34.224232 -23.678421 19.724983
v 33.755501 -23.575056 20.501411
v 33.755508 -22.466301 20.501411
v 33.491653 -23.603807 21.374184
v 34.186092 -23.539356 19.697670
v 34.186092 -22.435345 19.697670
v 34.763882 -23.500233 18.992271
v 34.763874 -22.401411 18.992271
v 34.796402 -23.639090 19.026985
v 35.469284 -23.461252 18.414482
v 35.469284 -22.367615 18.414482
v 36.273029 -23.423180 17.983887
v 35.494442 -23.599688 18.454788
v 36.289791 -23.561127 18.028069
v 36.340046 -23.633339 18.160629
v 37.153847 -23.524343 17.766556
v 38.052315 -23.492779 17.677116
v 37.145832 -23.386814 17.720039
v 37.145832 -22.303059 17.720039
v 38.053150 -23.355547 17.629807
v 38.053150 -22.275953 17.629807
v 38.960423 -23.332792 17.720032
v 38.960423 -22.256207 17.720032
v 39.833168 -23.320335 17.983864
v 38.950836 -23.469921 17.766640
v 39.815006 -23.457594 18.028221
v 39.760578 -23.531996 18.161285
v 40.610439 -23.457626 18.454926
v 40.531288 -23.533157 18.576508
v 41.308510 -23.467123 19.027069
v 40.636822 -23.320011 18.414398
v 40.636822 -22.245131 18.414398
v 41.342171 -23.329079 18.992111
v 41.342178 -22.253002 18.992111
v 41.919922 -23.344885 19.697456
v 41.919922 -22.266716 19.697456
v 42.350517 -23.363997 20.501144
v 41.880627 -23.483156 19.724983
v 41.762749 -23.559578 19.807549
v 42.307186 -23.502394 20.520065
v 42.177258 -23.578382 20.576797
v 42.568607 -23.521467 21.383759
v 42.431355 -23.596909 21.413239
v 42.658009 -23.540310 22.281807
v 42.614353 -23.383013 21.373932
v 42.614353 -22.299755 21.373940
v 42.704597 -23.401781 22.281265
v 42.704594 -22.316061 22.281265
v 42.614353 -23.420277 23.188583
v 42.614353 -22.332083 23.188583
v 42.350502 -23.439232 24.061386
v 42.568554 -23.558813 23.179924
v 42.431160 -23.632914 23.153915
v 42.307068 -23.577805 24.043777
v 42.176781 -23.651194 23.990974
v 41.880421 -23.598082 24.839050
v 41.761990 -23.670837 24.760857
v 41.308262 -23.619442 25.537125
v 41.919907 -23.459438 24.865112
v 41.919907 -22.366043 24.865112
v 41.342140 -23.480818 25.570503
v 41.342140 -22.384569 25.570503
v 40.636730 -23.503265 26.148277
v 40.636730 -22.404053 26.148277
v 39.833012 -23.526094 26.578873
v 40.610207 -23.641731 26.109383
v 40.530613 -23.712120 25.992714
v 39.814884 -23.664326 26.536171
v 39.760483 -23.733101 26.408043
v 38.950859 -23.686659 26.797775
v 38.922768 -23.754148 26.662918
v 38.052475 -23.707163 26.887299
v 38.960213 -23.548546 26.842720
v 38.960217 -22.443319 26.842720
v 38.052891 -23.569069 26.932968
v 38.052891 -22.461119 26.932968
v 37.145576 -23.586138 26.842728
v 37.145576 -22.475912 26.842728
v 36.272804 -23.600485 26.578888
v 37.154057 -23.724255 26.797836
v 37.179482 -23.790157 26.663155
v 36.289959 -23.738726 26.536263
v 35.494514 -23.751389 26.109459
v 35.570778 -23.817293 25.992905
v 34.796371 -23.762241 25.537132
v 35.469097 -23.612886 26.148308
v 35.469097 -22.499113 26.148308
v 34.763744 -23.623487 25.570549
v 34.763741 -22.508312 25.570549
v 34.186008 -23.632414 24.865181
v 34.186008 -22.516052 24.865181
v 33.755455 -23.637068 24.061493
v 33.755451 -22.520065 24.061493
v 33.491634 -23.634790 23.188751
v 33.491634 -22.518105 23.188751
v 33.401413 -23.624166 22.281479
v 33.401413 -22.508892 22.281471
v 33.446598 -23.763395 22.281898
v 33.401413 -20.442873 22.281471
v 33.491653 -22.491232 21.374184
v 33.491653 -20.432468 21.374184
v 33.491653 -17.443954 21.374184
v 33.755497 -20.417805 20.501411
v 33.755497 -17.439529 20.501411
v 34.186089 -20.399586 19.697670
v 34.186089 -17.434053 19.697670
v 34.763878 -20.379614 18.992271
v 34.763870 -17.428040 18.992271
v 35.469280 -20.359716 18.414482
v 35.469280 -17.422050 18.414482
v 36.273026 -20.340279 17.983887
v 36.273026 -17.416197 17.983887
v 36.273029 -22.334600 17.983887
v 37.145828 -20.321718 17.720039
v 37.145828 -17.410616 17.720039
v 38.053146 -20.305759 17.629807
v 38.053146 -17.405807 17.629807
v 38.960419 -20.294147 17.720032
v 38.960419 -17.402313 17.720032
v 39.833164 -20.287800 17.983864
v 39.833153 -17.400406 17.983856
v 39.833157 -22.245428 17.983856
v 40.636818 -20.287621 18.414398
v 40.636818 -17.400351 18.414398
v 41.342167 -20.292255 18.992111
v 41.342155 -17.401754 18.992111
v 41.919918 -20.300325 19.697456
v 41.919918 -17.404169 19.697456
v 42.350510 -20.310078 20.501144
v 42.350510 -17.407108 20.501144
v 42.350517 -22.283278 20.501144
v 42.614353 -20.319771 21.373940
v 42.614353 -17.410025 21.373940
v 42.704594 -20.329367 22.281265
v 42.704594 -17.412920 22.281265
v 42.614353 -20.338795 23.188583
v 42.614353 -17.415758 23.188583
v 42.350502 -20.348475 24.061386
v 42.350502 -17.418659 24.061386
v 42.350502 -22.348518 24.061386
v 41.919907 -20.358793 24.865112
v 41.919907 -17.421770 24.865112
v 41.342140 -20.369705 25.570503
v 41.342140 -17.425064 25.570511
v 40.636730 -20.381155 26.148277
v 40.636730 -17.428495 26.148277
v 39.833012 -20.392809 26.578873
v 39.833012 -17.432011 26.578873
v 39.833012 -22.423841 26.578873
v 38.960217 -20.404272 26.842720
v 38.960217 -17.435472 26.842720
v 38.052891 -20.414755 26.932968
v 38.052891 -17.438616 26.932968
v 37.145580 -20.423464 26.842728
v 37.145576 -17.441238 26.842728
v 36.272804 -20.430784 26.578888
v 36.272804 -22.488367 26.578888
v 35.469097 -20.437117 26.148308
v 36.272804 -17.443438 26.578888
v 35.469097 -17.445345 26.148308
v 36.272804 -16.331318 26.578888
v 35.469097 -16.331579 26.148308
v 36.272804 -16.156796 26.578888
v 37.145580 -16.331017 26.842728
v 38.052891 -16.330662 26.932968
v 37.145576 -16.156796 26.842728
v 38.052891 -16.156796 26.932968
v 38.960217 -16.156796 26.842720
v 38.960217 -16.330231 26.842720
v 39.833012 -16.156796 26.578873
v 40.636730 -16.156796 26.148277
v 39.833012 -16.329765 26.578873
v 40.636730 -16.329288 26.148277
v 41.342140 -16.328819 25.570503
v 41.342140 -16.156796 25.570503
v 41.919907 -16.328382 24.865112
v 42.350502 -16.327955 24.061386
v 41.919907 -16.156796 24.865112
v 42.350502 -16.156796 24.061386
v 42.614353 -16.156799 23.188583
v 42.614353 -16.327566 23.188583
v 42.704597 -16.156799 22.281265
v 42.614353 -16.156799 21.373940
v 42.704594 -16.327179 22.281265
v 42.614353 -16.326784 21.373940
v 42.350510 -16.326393 20.501144
v 42.350510 -16.156799 20.501144
v 41.919918 -16.325987 19.697456
v 41.342167 -16.325670 18.992111
v 41.919918 -16.156799 19.697456
v 41.342167 -16.156799 18.992111
v 40.636818 -16.156799 18.414398
v 40.636818 -16.325478 18.414398
v 39.833164 -16.156799 17.983864
v 38.960419 -16.156799 17.720032
v 39.833164 -16.325485 17.983864
v 38.960419 -16.325748 17.720032
v 38.053146 -16.326221 17.629807
v 38.053146 -16.156799 17.629807
v 37.145828 -16.326862 17.720039
v 36.273026 -16.327623 17.983887
v 37.145828 -16.156799 17.720039
v 36.273026 -16.156799 17.983887
v 35.469280 -16.156799 18.414482
v 35.469280 -16.328417 18.414482
v 34.763878 -16.156799 18.992271
v 34.186089 -16.156799 19.697670
v 34.763878 -16.329229 18.992271
v 34.186089 -16.330036 19.697670
v 33.755497 -16.330790 20.501411
v 33.755497 -16.156799 20.501411
v 33.491653 -16.331388 21.374184
v 33.401413 -16.331814 22.281471
v 33.491653 -16.156799 21.374184
v 33.401413 -16.156799 22.281471
v 33.491634 -16.156799 23.188751
v 33.491634 -16.332041 23.188751
v 33.755455 -16.156796 24.061493
v 34.186008 -16.156796 24.865189
v 33.755455 -16.332087 24.061493
v 34.186008 -16.331985 24.865189
v 33.755451 -17.449062 24.061493
v 34.186008 -17.448355 24.865189
v 33.755455 -20.449451 24.061493
v 33.491634 -17.448719 23.188751
v 33.491634 -20.448290 23.188751
v 33.401413 -17.447084 22.281471
v 34.186008 -20.447098 24.865189
v 34.763744 -20.442526 25.570549
v 34.763737 -17.446980 25.570549
v 34.763744 -16.331802 25.570549
v 34.763741 -16.156796 25.570549
v 35.469097 -16.156796 26.148308
v 38.051205 -23.773691 26.750298
v 38.049156 -23.812721 26.515411
v 38.883915 -23.794479 26.433235
v 38.046391 -23.868347 26.176094
v 38.842258 -23.851168 26.103783
v 38.043056 -23.930002 25.785202
v 38.799297 -23.913719 25.725433
v 37.287300 -23.945375 25.724823
v 38.039280 -23.987200 25.395554
v 38.756615 -23.971691 25.349045
v 38.034687 -24.036259 24.935829
v 37.322998 -24.002216 25.348770
v 37.348972 -24.051132 24.902901
v 36.650040 -24.016573 25.223053
v 36.703716 -24.064161 24.818810
v 36.062668 -24.030100 25.032776
v 35.598450 -24.039515 24.730003
v 36.137699 -24.073563 24.698219
v 36.119038 -24.098068 24.210083
v 35.776413 -24.067286 24.552231
v 35.629948 -24.080727 24.191711
v 35.295013 -24.041611 24.266830
v 36.711479 -24.098995 24.268791
v 36.059929 -24.106659 23.618935
v 36.695293 -24.117306 23.634796
v 36.677158 -24.115316 22.978615
v 37.353096 -24.109732 23.652687
v 38.023502 -24.093672 23.662529
v 37.346451 -24.107843 22.985138
v 37.356468 -24.088900 24.314743
v 38.028908 -24.073570 24.334732
v 38.703709 -24.058840 24.315590
v 39.353241 -24.039999 24.270164
v 38.722095 -24.021301 24.902977
v 38.696690 -24.078890 23.654228
v 39.360611 -24.056114 23.637550
v 38.696281 -24.076084 22.986229
v 39.372337 -24.051916 22.980659
v 38.019993 -24.091095 22.989494
v 38.697540 -24.061399 22.314133
v 39.379101 -24.037123 22.311180
v 38.695518 -24.045799 21.640511
v 38.018559 -24.076658 22.314980
v 38.019424 -24.061266 21.638344
v 37.341999 -24.094019 22.313568
v 37.345207 -24.079039 21.639458
v 36.667141 -24.102337 22.310059
v 36.675323 -24.087782 21.638977
v 36.691990 -24.062595 20.977173
v 36.707413 -24.017744 20.336479
v 36.057613 -24.054876 20.984619
v 37.350777 -24.052031 20.965637
v 38.022408 -24.033653 20.959213
v 38.695259 -24.017967 20.967110
v 39.359211 -23.995268 20.979568
v 39.351585 -23.948612 20.337471
v 40.004097 -23.955847 20.986900
v 39.371559 -24.021513 21.640808
v 40.045567 -23.977209 21.634117
v 40.646038 -23.919888 21.615761
v 40.063461 -23.992739 22.306259
v 40.677094 -23.935381 22.300858
v 40.045193 -24.007626 22.978104
v 40.644459 -23.950487 22.986046
v 40.003212 -24.016085 23.622238
v 40.562157 -23.963566 23.630363
v 39.949921 -24.012390 24.211258
v 40.444225 -23.972931 24.192856
v 39.938061 -23.990597 24.697464
v 40.301289 -23.967669 24.552299
v 39.370216 -24.006144 24.818726
v 40.020329 -23.944801 25.033119
v 40.484837 -23.932669 24.730667
v 40.151680 -23.884144 25.296371
v 39.431473 -23.957088 25.223495
v 39.515644 -23.897949 25.558250
v 39.601398 -23.833788 25.896782
v 40.287075 -23.817732 25.565331
v 39.684437 -23.775297 26.194817
v 40.416668 -23.756693 25.808083
v 41.055195 -23.738108 25.288025
v 41.206642 -23.691311 25.436974
v 41.574684 -23.718964 24.649620
v 40.871929 -23.801516 25.108253
v 41.328602 -23.783669 24.524406
v 40.675552 -23.870167 24.916267
v 41.055389 -23.853893 24.394440
v 41.316162 -23.836773 23.761276
v 40.786655 -23.918535 24.268921
v 40.975170 -23.903284 23.683975
v 41.099758 -23.887783 23.011955
v 41.146507 -23.872166 22.296463
v 41.482857 -23.820251 23.047180
v 41.865513 -23.748554 23.083046
v 41.542988 -23.804060 22.292664
v 41.937874 -23.732046 22.289078
v 41.484131 -23.788031 21.538254
v 41.866367 -23.715466 21.495407
v 41.318584 -23.772724 20.823769
v 41.101471 -23.856495 21.581085
v 40.978497 -23.841560 20.907997
v 40.791424 -23.828077 20.319344
v 40.565380 -23.903378 20.969559
v 40.449162 -23.885216 20.401024
v 39.951633 -23.923441 20.389832
v 40.305664 -23.861906 20.037781
v 39.940350 -23.877277 19.894989
v 40.489597 -23.818348 19.854904
v 40.678635 -23.747358 19.666344
v 40.874153 -23.669834 19.470825
v 41.058575 -23.758568 20.189056
v 41.330807 -23.683271 20.054443
v 41.660751 -23.699116 20.738396
v 41.576180 -23.613247 19.924324
v 41.961494 -23.630964 20.655022
v 41.056881 -23.597855 19.286606
v 41.207542 -23.543495 19.131958
v 40.417797 -23.587278 18.767136
v 42.198620 -23.648516 21.453430
v 42.280010 -23.665815 22.285927
v 42.518284 -23.615118 22.283432
v 42.198128 -23.682774 23.118874
v 41.960506 -23.700195 23.918137
v 41.659126 -23.765572 23.840454
v 35.411304 -23.885962 19.665733
v 38.040218 -23.769743 18.802322
vn -0.0895 -0.9826 0.1629
vn -0.0916 -0.9800 0.1764
vn -0.0460 -0.9840 0.1721
vn -0.0496 -0.9849 0.1659
vn -0.1049 -0.9508 0.2915
vn -0.1624 -0.9502 0.2661
vn -0.0440 -0.9509 0.3064
vn -0.0139 -0.9863 0.1647
vn -0.0110 -0.9864 0.1641
vn -0.0051 -0.9876 0.1571
vn -0.0346 -0.9851 0.1683
vn -0.0802 -0.9810 0.1764
vn -0.1384 -0.9782 0.1550
vn -0.1349 -0.9793 0.1510
vn -0.1272 -0.9814 0.1437
vn -0.1594 -0.9814 0.1066
vn -0.1485 -0.9832 0.1062
vn -0.1590 -0.9828 0.0943
vn -0.1551 -0.9862 0.0578
vn -0.1540 -0.9860 0.0634
vn -0.1501 -0.9876 0.0454
vn -0.2563 -0.9497 0.1800
vn -0.2879 -0.9500 0.1207
vn -0.2140 -0.9496 0.2292
vn -0.5312 -0.6519 0.5411
vn -0.6290 -0.6500 0.4264
vn -0.7043 -0.6466 0.2931
vn -0.3077 -0.9499 0.0546
vn -0.7512 -0.6439 0.1452
vn -0.1546 -0.9877 0.0231
vn -0.3150 -0.9490 -0.0159
vn -0.7666 -0.6420 -0.0106
vn -0.1546 -0.9878 -0.0164
vn -0.1434 -0.9895 -0.0166
vn -0.1470 -0.9890 0.0188
vn -0.1334 -0.9909 -0.0171
vn -0.1383 -0.9903 0.0122
vn -0.1096 -0.9938 -0.0178
vn -0.1139 -0.9935 0.0031
vn -0.1237 -0.9920 0.0264
vn -0.0716 -0.9974 -0.0057
vn -0.0739 -0.9972 0.0098
vn -0.0694 -0.9974 -0.0186
vn -0.0336 -0.9994 -0.0101
vn -0.0330 -0.9993 -0.0195
vn -0.0304 -0.9995 0.0069
vn -0.0693 -0.9971 -0.0316
vn -0.0316 -0.9991 -0.0289
vn -0.1112 -0.9930 -0.0387
vn -0.0694 -0.9965 -0.0472
vn -0.0261 -0.9986 -0.0460
vn -0.1187 -0.9910 -0.0621
vn -0.1355 -0.9897 -0.0464
vn -0.1446 -0.9863 -0.0799
vn -0.1228 -0.9872 -0.1018
vn -0.1509 -0.9801 -0.1289
vn -0.0650 -0.9950 -0.0764
vn -0.0964 -0.9830 -0.1566
vn -0.1245 -0.9748 -0.1853
vn -0.0535 -0.9921 -0.1134
vn -0.0166 -0.9970 -0.0750
vn -0.0176 -0.9920 -0.1248
vn -0.0425 -0.9822 -0.1831
vn 0.0094 -0.9964 -0.0843
vn 0.0085 -0.9916 -0.1293
vn -0.0058 -0.9837 -0.1796
vn -0.0688 -0.9749 -0.2115
vn -0.0226 -0.9783 -0.2059
vn 0.0131 -0.9848 -0.1731
vn 0.0062 -0.9803 -0.1976
vn 0.0198 -0.9914 -0.1297
vn 0.0280 -0.9847 -0.1719
vn 0.0288 -0.9802 -0.1958
vn 0.0272 -0.9911 -0.1300
vn 0.0221 -0.9957 -0.0897
vn 0.0263 -0.9955 -0.0912
vn 0.0302 -0.9953 -0.0916
vn 0.0341 -0.9907 -0.1319
vn 0.0421 -0.9836 -0.1756
vn 0.0416 -0.9953 -0.0877
vn 0.0435 -0.9901 -0.1333
vn 0.0582 -0.9812 -0.1840
vn 0.0503 -0.9785 -0.2000
vn 0.0752 -0.9748 -0.2101
vn 0.0910 -0.9779 -0.1881
vn 0.0668 -0.9893 -0.1295
vn 0.1164 -0.9694 -0.2163
vn 0.1274 -0.9678 -0.2172
vn 0.0860 -0.9730 -0.2140
vn 0.0560 -0.9768 -0.2067
vn 0.1277 -0.9699 -0.2074
vn 0.0904 -0.9735 -0.2099
vn 0.0593 -0.9763 -0.2080
vn 0.0295 -0.9786 -0.2035
vn 0.0298 -0.9778 -0.2073
vn 0.0852 -0.9378 -0.3366
vn 0.1401 -0.9358 -0.3235
vn 0.0283 -0.9390 -0.3428
vn -0.0312 -0.9397 -0.3406
vn -0.0015 -0.9781 -0.2079
vn 0.0014 -0.9788 -0.2049
vn -0.0932 -0.9398 -0.3288
vn -0.0384 -0.9772 -0.2088
vn -0.0335 -0.9770 -0.2107
vn -0.0806 -0.9737 -0.2131
vn -0.0817 -0.9754 -0.2047
vn -0.1293 -0.9731 -0.1906
vn -0.1225 -0.9753 -0.1839
vn -0.1545 -0.9398 -0.3050
vn -0.2099 -0.9403 -0.2679
vn -0.2550 -0.9423 -0.2170
vn -0.1462 -0.9787 -0.1442
vn -0.1526 -0.9781 -0.1416
vn -0.2882 -0.9449 -0.1553
vn -0.1532 -0.9832 -0.0989
vn -0.1505 -0.9843 -0.0920
vn -0.1447 -0.9881 -0.0522
vn -0.1544 -0.9864 -0.0567
vn -0.3083 -0.9473 -0.0870
vn -0.7487 -0.6418 -0.1663
vn -0.6989 -0.6426 -0.3138
vn -0.6208 -0.6445 -0.4463
vn -0.9679 -0.1563 -0.1970
vn -0.9100 -0.1582 -0.3833
vn -0.8169 -0.1604 -0.5541
vn -0.8315 -0.0000 -0.5556
vn -0.9239 -0.0000 -0.3827
vn -0.9808 -0.0000 -0.1951
vn -0.7071 -0.0000 -0.7071
vn -0.6927 -0.1621 -0.7028
vn -0.5205 -0.6455 -0.5589
vn -0.5556 -0.0000 -0.8315
vn -0.5424 -0.1627 -0.8242
vn -0.4020 -0.6453 -0.6496
vn -0.3827 -0.0000 -0.9239
vn -0.3714 -0.1627 -0.9141
vn -0.2688 -0.6441 -0.7161
vn -0.1263 -0.6435 -0.7550
vn -0.1865 -0.1628 -0.9689
vn 0.0187 -0.6430 -0.7656
vn 0.0049 -0.1633 -0.9866
vn -0.1951 -0.0000 -0.9808
vn -0.0000 -0.0000 -1.0000
vn 0.1951 -0.0000 -0.9808
vn 0.1956 -0.1640 -0.9669
vn 0.1613 -0.6432 -0.7485
vn 0.3827 -0.0000 -0.9239
vn 0.3785 -0.1649 -0.9108
vn 0.2972 -0.6429 -0.7059
vn 0.1943 -0.9336 -0.3011
vn 0.4229 -0.6431 -0.6385
vn 0.5472 -0.1657 -0.8204
vn 0.2464 -0.9320 -0.2658
vn 0.5360 -0.6418 -0.5485
vn 0.6956 -0.1656 -0.6991
vn 0.5556 -0.0000 -0.8315
vn 0.7071 -0.0000 -0.7071
vn 0.8315 -0.0000 -0.5556
vn 0.8183 -0.1643 -0.5508
vn 0.6324 -0.6393 -0.4374
vn 0.9239 -0.0000 -0.3827
vn 0.9102 -0.1624 -0.3809
vn 0.7073 -0.6365 -0.3074
vn 0.2908 -0.9321 -0.2162
vn 0.3238 -0.9333 -0.1551
vn 0.3439 -0.9349 -0.0880
vn 0.7550 -0.6350 -0.1634
vn 0.9673 -0.1609 -0.1959
vn 0.3510 -0.9362 -0.0191
vn 0.7726 -0.6348 -0.0126
vn 0.9871 -0.1601 -0.0033
vn 0.9808 -0.0000 -0.1951
vn 1.0000 -0.0000 -0.0000
vn 0.9808 -0.0000 0.1951
vn 0.9688 -0.1601 0.1894
vn 0.7589 -0.6364 0.1381
vn 0.9239 -0.0000 0.3827
vn 0.9131 -0.1608 0.3746
vn 0.7156 -0.6389 0.2823
vn 0.3453 -0.9372 0.0490
vn 0.3279 -0.9378 0.1137
vn 0.2985 -0.9385 0.1735
vn 0.6448 -0.6425 0.4140
vn 0.8225 -0.1619 0.5453
vn 0.2567 -0.9399 0.2252
vn 0.5508 -0.6451 0.5296
vn 0.7005 -0.1623 0.6950
vn 0.8315 -0.0000 0.5556
vn 0.7071 -0.0000 0.7071
vn 0.5556 -0.0000 0.8315
vn 0.5517 -0.1614 0.8183
vn 0.4370 -0.6462 0.6257
vn 0.3827 -0.0000 0.9239
vn 0.3815 -0.1598 0.9104
vn 0.3066 -0.6461 0.6990
vn 0.2040 -0.9425 0.2646
vn 0.1452 -0.9456 0.2912
vn 0.0833 -0.9482 0.3065
vn 0.1634 -0.6466 0.7452
vn 0.1964 -0.1585 0.9676
vn 0.0195 -0.9500 0.3118
vn 0.0130 -0.6473 0.7621
vn 0.0033 -0.1579 0.9875
vn 0.1951 -0.0000 0.9808
vn -0.0000 -0.0000 1.0000
vn -0.1951 -0.0000 0.9808
vn -0.1900 -0.1578 0.9690
vn -0.1379 -0.6487 0.7484
vn -0.3827 -0.0000 0.9239
vn -0.3757 -0.1584 0.9131
vn -0.2823 -0.6502 0.7054
vn -0.4146 -0.6520 0.6348
vn -0.5468 -0.1594 0.8219
vn -0.6968 -0.1596 0.6993
vn -0.5556 -0.0000 0.8315
vn -0.7071 -0.0000 0.7071
vn -0.8315 -0.0000 0.5556
vn -0.8202 -0.1585 0.5497
vn -0.9239 -0.0000 0.3827
vn -0.9123 -0.1569 0.3783
vn -0.9808 -0.0000 0.1951
vn -0.9690 -0.1557 0.1917
vn -1.0000 -0.0000 -0.0000
vn -0.9878 -0.1556 -0.0027
vn 0.0202 -0.9862 0.1641
vn 0.0547 -0.9848 0.1647
vn 0.0202 -0.9868 0.1608
vn 0.0515 -0.9854 0.1625
vn 0.0206 -0.9880 0.1528
vn 0.0461 -0.9868 0.1551
vn 0.0210 -0.9915 0.1282
vn 0.0384 -0.9908 0.1301
vn 0.0036 -0.9913 0.1319
vn 0.0216 -0.9961 0.0858
vn 0.0310 -0.9958 0.0861
vn 0.0122 -0.9961 0.0876
vn -0.0162 -0.9899 0.1412
vn 0.0001 -0.9960 0.0895
vn -0.0528 -0.9877 0.1470
vn -0.0260 -0.9959 0.0867
vn -0.1059 -0.9870 0.1212
vn -0.0615 -0.9952 0.0761
vn -0.0230 -0.9991 0.0360
vn 0.0031 -0.9990 0.0436
vn -0.0716 -0.9967 0.0390
vn -0.1303 -0.9893 0.0660
vn -0.0013 -0.9999 0.0113
vn -0.0033 -0.9999 -0.0114
vn 0.0183 -0.9998 -0.0120
vn 0.0177 -0.9998 0.0135
vn 0.0165 -0.9988 0.0471
vn 0.0222 -0.9987 0.0467
vn 0.0229 -0.9996 0.0133
vn 0.0235 -0.9996 -0.0125
vn 0.0279 -0.9986 0.0457
vn 0.0281 -0.9995 0.0123
vn 0.0413 -0.9983 0.0407
vn 0.0468 -0.9989 0.0087
vn 0.0430 -0.9953 0.0865
vn 0.0287 -0.9995 -0.0131
vn 0.0499 -0.9987 -0.0137
vn 0.0290 -0.9993 -0.0224
vn 0.0504 -0.9985 -0.0226
vn 0.0241 -0.9995 -0.0220
vn 0.0293 -0.9991 -0.0320
vn 0.0499 -0.9982 -0.0318
vn 0.0247 -0.9992 -0.0316
vn 0.0199 -0.9993 -0.0308
vn 0.0190 -0.9996 -0.0214
vn -0.0014 -0.9996 -0.0296
vn -0.0029 -0.9998 -0.0205
vn 0.0028 -0.9986 -0.0523
vn 0.0212 -0.9982 -0.0563
vn 0.0254 -0.9980 -0.0577
vn 0.0294 -0.9979 -0.0579
vn 0.0468 -0.9974 -0.0550
vn 0.0655 -0.9947 -0.0791
vn 0.0742 -0.9960 -0.0494
vn 0.0788 -0.9964 -0.0318
vn 0.0796 -0.9966 -0.0224
vn 0.1152 -0.9927 -0.0345
vn 0.1155 -0.9920 -0.0505
vn 0.1149 -0.9931 -0.0220
vn 0.1165 -0.9931 -0.0099
vn 0.0795 -0.9967 -0.0135
vn 0.1181 -0.9930 0.0046
vn 0.0754 -0.9971 0.0028
vn 0.1150 -0.9928 0.0330
vn 0.0671 -0.9972 0.0316
vn 0.1043 -0.9920 0.0704
vn 0.0690 -0.9942 0.0822
vn 0.0943 -0.9854 0.1415
vn 0.1470 -0.9825 0.1140
vn 0.0581 -0.9888 0.1377
vn 0.1207 -0.9780 0.1703
vn 0.1751 -0.9741 0.1429
vn 0.0754 -0.9835 0.1644
vn 0.0866 -0.9818 0.1689
vn 0.1324 -0.9763 0.1714
vn 0.1330 -0.9778 0.1617
vn 0.0914 -0.9819 0.1657
vn 0.1726 -0.9749 0.1404
vn 0.1798 -0.9725 0.1480
vn 0.1951 -0.9756 0.1009
vn 0.2016 -0.9745 0.0986
vn 0.1998 -0.9761 0.0858
vn 0.1721 -0.9833 0.0586
vn 0.1919 -0.9807 0.0383
vn 0.1978 -0.9789 0.0508
vn 0.1665 -0.9858 0.0202
vn 0.1575 -0.9875 -0.0017
vn 0.1809 -0.9835 0.0069
vn 0.1538 -0.9879 -0.0214
vn 0.1765 -0.9841 -0.0208
vn 0.1902 -0.9817 0.0134
vn 0.1868 -0.9822 -0.0204
vn 0.1881 -0.9806 -0.0548
vn 0.1786 -0.9827 -0.0490
vn 0.1555 -0.9870 -0.0415
vn 0.1936 -0.9765 -0.0946
vn 0.1875 -0.9788 -0.0824
vn 0.1628 -0.9845 -0.0649
vn 0.1672 -0.9803 -0.1049
vn 0.1939 -0.9721 -0.1317
vn 0.1117 -0.9905 -0.0802
vn 0.1007 -0.9879 -0.1178
vn 0.1421 -0.9767 -0.1607
vn 0.1689 -0.9673 -0.1891
vn 0.1730 -0.9656 -0.1943
vn 0.1954 -0.9700 -0.1447
vn 0.1899 -0.9706 -0.1478
vn 0.1978 -0.9749 -0.1022
vn 0.1661 -0.9682 -0.1874
vn 0.1999 -0.9780 -0.0596
vn 0.2007 -0.9795 -0.0201
vn 0.2010 -0.9794 0.0183
vn 0.2008 -0.9779 0.0579
vt 0.144813 0.314932
vt 0.145187 0.314239
vt 0.147103 0.315213
vt 0.146864 0.316063
vt 0.146649 0.316668
vt 0.144490 0.315455
vt 0.149004 0.317430
vt 0.149114 0.316777
vt 0.149233 0.315839
vt 0.149356 0.314762
vt 0.147350 0.314250
vt 0.145578 0.313472
vt 0.143563 0.312914
vt 0.144127 0.312369
vt 0.143034 0.313425
vt 0.142303 0.311239
vt 0.141601 0.311589
vt 0.143081 0.310878
vt 0.141406 0.309291
vt 0.140554 0.309498
vt 0.142373 0.309081
vt 0.141074 0.311898
vt 0.139948 0.309696
vt 0.142606 0.313845
vt 0.142296 0.314152
vt 0.140712 0.312136
vt 0.139550 0.309854
vt 0.139280 0.307315
vt 0.138860 0.307388
vt 0.139931 0.307228
vt 0.139085 0.304851
vt 0.138659 0.304836
vt 0.139749 0.304872
vt 0.140707 0.304901
vt 0.140866 0.307144
vt 0.141812 0.304935
vt 0.141940 0.307062
vt 0.142913 0.304969
vt 0.143006 0.306982
vt 0.143326 0.308877
vt 0.144267 0.306933
vt 0.144471 0.308747
vt 0.144210 0.305009
vt 0.145924 0.306944
vt 0.145903 0.305060
vt 0.146021 0.308753
vt 0.144340 0.303086
vt 0.145994 0.303172
vt 0.143083 0.302961
vt 0.144615 0.301276
vt 0.146159 0.301357
vt 0.143476 0.301076
vt 0.142022 0.302815
vt 0.142533 0.300813
vt 0.144049 0.299436
vt 0.143308 0.299040
vt 0.144991 0.299692
vt 0.144929 0.298150
vt 0.144410 0.297588
vt 0.145421 0.298680
vt 0.146360 0.299688
vt 0.146440 0.298299
vt 0.146243 0.297324
vt 0.148021 0.299569
vt 0.148029 0.297994
vt 0.147901 0.296820
vt 0.145901 0.296543
vt 0.147700 0.295839
vt 0.149803 0.296504
vt 0.149726 0.295407
vt 0.149850 0.297796
vt 0.151826 0.296412
vt 0.151862 0.295279
vt 0.151784 0.297741
vt 0.149837 0.299484
vt 0.151731 0.299469
vt 0.153624 0.299557
vt 0.153714 0.297868
vt 0.153843 0.296581
vt 0.155447 0.299712
vt 0.155532 0.298134
vt 0.155737 0.296968
vt 0.153993 0.295489
vt 0.156006 0.295998
vt 0.157390 0.297532
vt 0.157131 0.298496
vt 0.157786 0.296769
vt 0.158197 0.295985
vt 0.156279 0.295013
vt 0.154144 0.294388
vt 0.158590 0.295274
vt 0.156540 0.294141
vt 0.154288 0.293426
vt 0.151899 0.294142
vt 0.151932 0.293151
vt 0.154418 0.292749
vt 0.156774 0.293513
vt 0.151958 0.292458
vt 0.149489 0.292659
vt 0.149568 0.293338
vt 0.149647 0.294303
vt 0.147107 0.293335
vt 0.147293 0.293969
vt 0.147494 0.294846
vt 0.145544 0.295744
vt 0.145202 0.295021
vt 0.143871 0.297004
vt 0.143369 0.296457
vt 0.144904 0.294466
vt 0.142960 0.296003
vt 0.141353 0.297889
vt 0.141867 0.298236
vt 0.142550 0.298630
vt 0.140142 0.300046
vt 0.140739 0.300283
vt 0.141578 0.300544
vt 0.140954 0.302668
vt 0.140025 0.302527
vt 0.139379 0.302397
vt 0.138962 0.302294
vt 0.139750 0.299856
vt 0.141002 0.297619
vt 0.138562 0.302193
vt 0.139379 0.299675
vt 0.140674 0.297366
vt 0.282410 0.733516
vt 0.282410 0.736616
vt 0.279850 0.736716
vt 0.279850 0.733596
vt 0.277280 0.736806
vt 0.277280 0.733666
vt 0.284980 0.733416
vt 0.284980 0.736506
vt 0.142393 0.295352
vt 0.142665 0.295664
vt 0.287540 0.733326
vt 0.287540 0.736396
vt 0.144475 0.293719
vt 0.144680 0.294077
vt 0.290110 0.733226
vt 0.290110 0.736296
vt 0.146831 0.292521
vt 0.146963 0.292911
vt 0.149428 0.292215
vt 0.149372 0.291809
vt 0.151979 0.292009
vt 0.152000 0.291601
vt 0.292680 0.733146
vt 0.292680 0.736186
vt 0.295240 0.733066
vt 0.295240 0.736106
vt 0.215700 0.733006
vt 0.215700 0.736036
vt 0.213140 0.736106
vt 0.213140 0.733066
vt 0.154615 0.291911
vt 0.154521 0.292309
vt 0.218270 0.732976
vt 0.218270 0.736006
vt 0.157121 0.292721
vt 0.156956 0.293096
vt 0.158929 0.294730
vt 0.159188 0.294349
vt 0.159420 0.294009
vt 0.160809 0.296341
vt 0.161136 0.296014
vt 0.161427 0.295722
vt 0.220840 0.732976
vt 0.220840 0.736006
vt 0.223400 0.732996
vt 0.223400 0.736026
vt 0.225970 0.733036
vt 0.225970 0.736076
vt 0.163059 0.297799
vt 0.162717 0.298030
vt 0.228530 0.733086
vt 0.228530 0.736126
vt 0.164257 0.300153
vt 0.163877 0.300314
vt 0.162337 0.298288
vt 0.163460 0.300489
vt 0.164129 0.302868
vt 0.164568 0.302779
vt 0.164972 0.302696
vt 0.164325 0.305331
vt 0.164771 0.305331
vt 0.165183 0.305329
vt 0.231100 0.733136
vt 0.231100 0.736176
vt 0.233660 0.733176
vt 0.233660 0.736236
vt 0.236230 0.733226
vt 0.236230 0.736286
vt 0.164875 0.307951
vt 0.164470 0.307873
vt 0.238800 0.733266
vt 0.238800 0.736336
vt 0.164067 0.310466
vt 0.163685 0.310311
vt 0.164034 0.307786
vt 0.163273 0.310139
vt 0.162062 0.312297
vt 0.162435 0.312547
vt 0.162780 0.312774
vt 0.160456 0.314182
vt 0.160773 0.314500
vt 0.161068 0.314790
vt 0.241360 0.733316
vt 0.241360 0.736396
vt 0.243930 0.733366
vt 0.243930 0.736456
vt 0.246490 0.733426
vt 0.246490 0.736516
vt 0.158992 0.316428
vt 0.158760 0.316087
vt 0.249060 0.733476
vt 0.249060 0.736586
vt 0.156639 0.317631
vt 0.156478 0.317252
vt 0.158513 0.315718
vt 0.156311 0.316849
vt 0.153929 0.317522
vt 0.154013 0.317945
vt 0.154096 0.318347
vt 0.151462 0.317721
vt 0.151462 0.318149
vt 0.151464 0.318559
vt 0.251620 0.733536
vt 0.251620 0.736646
vt 0.254190 0.733586
vt 0.254190 0.736706
vt 0.256760 0.733626
vt 0.256760 0.736756
vt 0.148841 0.318252
vt 0.148920 0.317850
vt 0.259320 0.733666
vt 0.259320 0.736796
vt 0.146327 0.317444
vt 0.146483 0.317064
vt 0.144248 0.315814
vt 0.144019 0.316156
vt 0.142003 0.314443
vt 0.261890 0.733696
vt 0.261890 0.736826
vt 0.264450 0.733716
vt 0.264450 0.736856
vt 0.267020 0.733736
vt 0.267020 0.736886
vt 0.140367 0.312363
vt 0.269580 0.733756
vt 0.269580 0.736896
vt 0.139167 0.310005
vt 0.272150 0.733746
vt 0.272150 0.736886
vt 0.138454 0.307458
vt 0.274720 0.733716
vt 0.274720 0.736856
vt 0.138247 0.304821
vt 0.277280 0.725256
vt 0.274720 0.725286
vt 0.272150 0.725306
vt 0.279850 0.725216
vt 0.277280 0.716856
vt 0.274720 0.716856
vt 0.279850 0.716836
vt 0.282410 0.716826
vt 0.282410 0.725166
vt 0.284980 0.725116
vt 0.284980 0.716806
vt 0.287540 0.716786
vt 0.287540 0.725056
vt 0.290110 0.725006
vt 0.290110 0.716776
vt 0.292680 0.716756
vt 0.292680 0.724946
vt 0.295240 0.724906
vt 0.295240 0.716746
vt 0.215700 0.716736
vt 0.215700 0.724876
vt 0.213140 0.724906
vt 0.213140 0.716746
vt 0.218270 0.724856
vt 0.218270 0.716726
vt 0.220840 0.716726
vt 0.220840 0.724856
vt 0.223400 0.724866
vt 0.223400 0.716736
vt 0.225970 0.716736
vt 0.225970 0.724886
vt 0.228530 0.724916
vt 0.228530 0.716746
vt 0.231100 0.716756
vt 0.231100 0.724946
vt 0.233660 0.724966
vt 0.233660 0.716766
vt 0.236230 0.716776
vt 0.236230 0.724996
vt 0.238800 0.725026
vt 0.238800 0.716776
vt 0.241360 0.716786
vt 0.241360 0.725056
vt 0.243930 0.725086
vt 0.243930 0.716796
vt 0.246490 0.716806
vt 0.246490 0.725116
vt 0.249060 0.725146
vt 0.249060 0.716816
vt 0.251620 0.716826
vt 0.251620 0.725186
vt 0.254190 0.725216
vt 0.254190 0.716836
vt 0.256760 0.716846
vt 0.256760 0.725236
vt 0.259320 0.725256
vt 0.259320 0.716846
vt 0.261890 0.725276
vt 0.261890 0.716856
vt 0.261890 0.713726
vt 0.259320 0.713716
vt 0.256760 0.713716
vt 0.261890 0.713226
vt 0.259320 0.713226
vt 0.256760 0.713226
vt 0.254190 0.713716
vt 0.254190 0.713226
vt 0.251620 0.713716
vt 0.251620 0.713226
vt 0.249060 0.713716
vt 0.249060 0.713226
vt 0.246490 0.713716
vt 0.246490 0.713226
vt 0.243930 0.713716
vt 0.243930 0.713226
vt 0.241360 0.713716
vt 0.241360 0.713226
vt 0.238800 0.713716
vt 0.238800 0.713226
vt 0.236230 0.713706
vt 0.236230 0.713226
vt 0.233660 0.713706
vt 0.233660 0.713226
vt 0.231100 0.713706
vt 0.231100 0.713226
vt 0.228530 0.713706
vt 0.228530 0.713226
vt 0.225970 0.713706
vt 0.225970 0.713226
vt 0.223400 0.713706
vt 0.223400 0.713226
vt 0.220840 0.713706
vt 0.220840 0.713226
vt 0.218270 0.713706
vt 0.218270 0.713226
vt 0.215700 0.713706
vt 0.215700 0.713226
vt 0.213140 0.713706
vt 0.213140 0.713226
vt 0.292680 0.713706
vt 0.292680 0.713226
vt 0.295240 0.713226
vt 0.295240 0.713706
vt 0.290110 0.713706
vt 0.290110 0.713226
vt 0.287540 0.713716
vt 0.287540 0.713226
vt 0.284980 0.713716
vt 0.284980 0.713226
vt 0.282410 0.713716
vt 0.282410 0.713226
vt 0.279850 0.713716
vt 0.279850 0.713226
vt 0.277280 0.713716
vt 0.277280 0.713226
vt 0.274720 0.713726
vt 0.274720 0.713226
vt 0.272150 0.713726
vt 0.272150 0.713226
vt 0.269580 0.713726
vt 0.269580 0.713226
vt 0.267020 0.713726
vt 0.267020 0.713226
vt 0.267020 0.716866
vt 0.269580 0.716866
vt 0.272150 0.716866
vt 0.267020 0.725306
vt 0.269580 0.725306
vt 0.264450 0.725286
vt 0.264450 0.716856
vt 0.264450 0.713726
vt 0.264450 0.713226
vt 0.151467 0.317051
vt 0.153828 0.316865
vt 0.151474 0.316085
vt 0.153723 0.315924
vt 0.151482 0.314973
vt 0.153616 0.314844
vt 0.151489 0.313866
vt 0.153510 0.313773
vt 0.149476 0.313695
vt 0.151498 0.312567
vt 0.153432 0.312510
vt 0.149572 0.312436
vt 0.147590 0.313303
vt 0.147764 0.312162
vt 0.145950 0.312731
vt 0.146181 0.311789
vt 0.144663 0.311851
vt 0.145175 0.311359
vt 0.146156 0.310416
vt 0.147816 0.310615
vt 0.144783 0.310338
vt 0.143833 0.310535
vt 0.147804 0.308833
vt 0.147788 0.306990
vt 0.149667 0.307045
vt 0.149649 0.308920
vt 0.149624 0.310781
vt 0.151511 0.310874
vt 0.151531 0.308984
vt 0.151558 0.307094
vt 0.153408 0.310855
vt 0.153421 0.308996
vt 0.155234 0.310760
vt 0.155287 0.308984
vt 0.155257 0.312305
vt 0.153457 0.307121
vt 0.155356 0.307140
vt 0.153497 0.305233
vt 0.155413 0.305261
vt 0.151591 0.305199
vt 0.153529 0.303341
vt 0.155428 0.303378
vt 0.151631 0.303299
vt 0.149737 0.303266
vt 0.149691 0.305159
vt 0.147856 0.303229
vt 0.147796 0.305113
vt 0.147941 0.301371
vt 0.149791 0.301373
vt 0.151677 0.301390
vt 0.153566 0.301449
vt 0.155430 0.301520
vt 0.157130 0.299892
vt 0.157244 0.301573
vt 0.157325 0.303394
vt 0.157339 0.305282
vt 0.159021 0.303371
vt 0.158827 0.301550
vt 0.159071 0.305298
vt 0.158941 0.307221
vt 0.157250 0.307168
vt 0.158672 0.309027
vt 0.157095 0.308974
vt 0.158307 0.310599
vt 0.156914 0.310625
vt 0.157887 0.311602
vt 0.156858 0.311990
vt 0.157079 0.312943
vt 0.158399 0.312114
vt 0.155415 0.313452
vt 0.157447 0.313702
vt 0.158941 0.312656
vt 0.155643 0.314410
vt 0.155876 0.315380
vt 0.157828 0.314480
vt 0.158193 0.315183
vt 0.156102 0.316236
vt 0.160026 0.313747
vt 0.159502 0.313220
vt 0.161527 0.311969
vt 0.160823 0.311596
vt 0.160041 0.311208
vt 0.159275 0.310834
vt 0.160813 0.309440
vt 0.161792 0.309684
vt 0.159841 0.309201
vt 0.160231 0.307318
vt 0.161322 0.307437
vt 0.160402 0.305308
vt 0.161532 0.305315
vt 0.162414 0.307558
vt 0.162660 0.305322
vt 0.162503 0.303080
vt 0.161408 0.303186
vt 0.160314 0.303292
vt 0.161966 0.300933
vt 0.160980 0.301165
vt 0.160003 0.301393
vt 0.159507 0.299728
vt 0.160282 0.299363
vt 0.158531 0.299947
vt 0.158150 0.298916
vt 0.158683 0.298406
vt 0.159241 0.297869
vt 0.159822 0.297309
vt 0.161075 0.298984
vt 0.161792 0.298617
vt 0.162834 0.300705
vt 0.160364 0.296781
vt 0.163457 0.302974
vt 0.163640 0.305328
vt 0.163365 0.307676
vt 0.162654 0.309921
s 1
f 2/1/1 8/2/2 5/3/3 1/4/4
f 3/5/5 190/6/6 2/1/1 1/4/4
f 187/7/7 3/5/5 1/4/4 4/8/8
f 6/9/9 4/8/8 1/4/4 5/3/3
f 347/10/10 6/9/9 5/3/3 7/11/11
f 8/2/2 9/12/12 7/11/11 5/3/3
f 9/12/12 8/2/2 10/13/13 12/14/14
f 8/2/2 2/1/1 11/15/15 10/13/13
f 13/16/16 10/13/13 11/15/15 16/17/17
f 10/13/13 13/16/16 15/18/18 12/14/14
f 14/19/19 13/16/16 16/17/17 17/20/20
f 13/16/16 14/19/19 32/21/21 15/18/18
f 18/22/22 21/23/23 17/20/20 16/17/17
f 19/24/24 18/22/22 16/17/17 11/15/15
f 18/22/22 19/24/24 191/25/25 20/26/26
f 21/23/23 18/22/22 20/26/26 22/27/27
f 23/28/28 21/23/23 22/27/27 24/29/29
f 21/23/23 23/28/28 26/30/30 17/20/20
f 25/31/31 23/28/28 24/29/29 204/32/32
f 23/28/28 25/31/31 27/33/33 26/30/30
f 29/34/34 28/35/35 26/30/30 27/33/33
f 28/35/35 14/19/19 17/20/20 26/30/30
f 28/35/35 29/34/34 31/36/36 30/37/37
f 14/19/19 28/35/35 30/37/37 32/21/21
f 35/38/38 33/39/39 30/37/37 31/36/36
f 33/39/39 34/40/40 32/21/21 30/37/37
f 34/40/40 33/39/39 36/41/41 38/42/42
f 33/39/39 35/38/38 39/43/43 36/41/41
f 37/44/44 36/41/41 39/43/43 40/45/45
f 36/41/41 37/44/44 363/46/46 38/42/42
f 41/47/47 42/48/48 40/45/45 39/43/43
f 35/38/38 44/49/49 41/47/47 39/43/43
f 42/48/48 41/47/47 43/50/50 390/51/51
f 44/49/49 46/52/52 43/50/50 41/47/47
f 44/49/49 35/38/38 31/36/36 45/53/53
f 46/52/52 44/49/49 45/53/53 47/54/54
f 48/55/55 46/52/52 47/54/54 49/56/56
f 46/52/52 48/55/55 51/57/57 43/50/50
f 50/58/58 48/55/55 49/56/56 464/59/59
f 48/55/55 50/58/58 53/60/60 51/57/57
f 52/61/61 51/57/57 53/60/60 54/62/62
f 51/57/57 52/61/61 390/51/51 43/50/50
f 56/63/63 54/62/62 53/60/60 50/58/58
f 389/64/64 52/61/61 54/62/62 55/65/65
f 54/62/62 56/63/63 58/66/66 55/65/65
f 57/67/67 56/63/63 50/58/58 464/59/59
f 56/63/63 57/67/67 59/68/68 58/66/66
f 60/69/69 58/66/66 59/68/68 61/70/70
f 58/66/66 60/69/69 63/71/71 55/65/65
f 62/72/72 60/69/69 61/70/70 465/73/73
f 60/69/69 62/72/72 65/74/74 63/71/71
f 64/75/75 389/64/64 55/65/65 63/71/71
f 66/76/76 64/75/75 63/71/71 65/74/74
f 68/77/77 66/76/76 65/74/74 67/78/78
f 62/72/72 70/79/79 67/78/78 65/74/74
f 395/80/80 68/77/77 67/78/78 69/81/81
f 70/79/79 72/82/82 69/81/81 67/78/78
f 70/79/79 62/72/72 465/73/73 71/83/83
f 72/82/82 70/79/79 71/83/83 74/84/84
f 72/82/82 73/85/85 446/86/86 69/81/81
f 73/85/85 72/82/82 74/84/84 75/87/87
f 77/88/88 75/87/87 74/84/84 76/89/89
f 71/83/83 79/90/90 76/89/89 74/84/84
f 457/91/91 77/88/88 76/89/89 78/92/92
f 79/90/90 81/93/93 78/92/92 76/89/89
f 79/90/90 71/83/83 465/73/73 80/94/94
f 81/93/93 79/90/90 80/94/94 83/95/95
f 82/96/96 133/97/97 78/92/92 81/93/93
f 84/98/98 82/96/96 81/93/93 83/95/95
f 86/99/99 84/98/98 83/95/95 85/100/100
f 80/94/94 88/101/101 85/100/100 83/95/95
f 121/102/102 86/99/99 85/100/100 87/103/103
f 88/101/101 89/104/104 87/103/103 85/100/100
f 88/101/101 80/94/94 465/73/73 61/70/70
f 89/104/104 88/101/101 61/70/70 59/68/68
f 89/104/104 90/105/105 92/106/106 87/103/103
f 90/105/105 89/104/104 59/68/68 57/67/67
f 91/107/107 90/105/105 57/67/67 464/59/59
f 90/105/105 91/107/107 94/108/108 92/106/106
f 93/109/109 121/102/102 87/103/103 92/106/106
f 95/110/110 93/109/109 92/106/106 94/108/108
f 97/111/111 95/110/110 94/108/108 96/112/112
f 99/113/113 96/112/112 94/108/108 91/107/107
f 105/114/114 97/111/111 96/112/112 98/115/115
f 96/112/112 99/113/113 100/116/116 98/115/115
f 49/56/56 99/113/113 91/107/107 464/59/59
f 99/113/113 49/56/56 47/54/54 100/116/116
f 101/117/117 102/118/118 98/115/115 100/116/116
f 45/53/53 101/117/117 100/116/116 47/54/54
f 101/117/117 45/53/53 31/36/36 29/34/34
f 102/118/118 101/117/117 29/34/34 27/33/33
f 103/119/119 105/114/114 98/115/115 102/118/118
f 25/31/31 103/119/119 102/118/118 27/33/33
f 103/119/119 25/31/31 204/32/32 104/120/120
f 105/114/114 103/119/119 104/120/120 106/121/121
f 97/111/111 105/114/114 106/121/121 107/122/122
f 104/120/120 110/123/123 108/124/124 106/121/121
f 111/125/125 107/122/122 106/121/121 108/124/124
f 112/126/126 111/127/125 108/128/124 109/129/127
f 110/130/123 206/131/128 109/129/127 108/128/124
f 111/127/125 112/126/126 114/132/129 113/133/130
f 107/122/122 111/125/125 113/134/130 115/135/131
f 117/136/132 116/137/133 113/133/130 114/132/129
f 116/138/133 119/139/134 115/135/131 113/134/130
f 116/137/133 117/136/132 219/140/135 118/141/136
f 119/139/134 116/138/133 118/142/136 120/143/137
f 93/109/109 95/110/110 115/135/131 119/139/134
f 121/102/102 93/109/109 119/139/134 120/143/137
f 86/99/99 121/102/102 120/143/137 122/144/138
f 124/145/139 122/144/138 120/143/137 118/142/136
f 84/98/98 86/99/99 122/144/138 123/146/140
f 122/144/138 124/145/139 126/147/141 123/146/140
f 125/148/142 124/149/139 118/141/136 219/140/135
f 124/149/139 125/148/142 127/150/143 126/151/141
f 129/152/144 128/153/145 126/154/141 127/155/143
f 128/156/145 131/157/146 123/146/140 126/147/141
f 128/153/145 129/152/144 228/158/147 130/159/148
f 131/157/146 128/156/145 130/160/148 132/161/149
f 82/96/96 84/98/98 123/146/140 131/157/146
f 133/97/97 82/96/96 131/157/146 132/161/149
f 135/162/150 133/97/97 132/161/149 134/163/151
f 137/164/152 134/163/151 132/161/149 130/160/148
f 456/165/153 135/162/150 134/163/151 136/166/154
f 134/163/151 137/164/152 139/167/155 136/166/154
f 138/168/156 137/169/152 130/159/148 228/158/147
f 137/169/152 138/168/156 140/170/157 139/171/155
f 142/172/158 141/173/159 139/171/155 140/170/157
f 141/174/159 144/175/160 136/166/154 139/167/155
f 141/173/159 142/172/158 237/176/161 143/177/162
f 144/175/160 141/174/159 143/178/162 146/179/163
f 145/180/164 456/165/153 136/166/154 144/175/160
f 147/181/165 145/180/164 144/175/160 146/179/163
f 149/182/166 147/181/165 146/179/163 148/183/167
f 151/184/168 148/183/167 146/179/163 143/178/162
f 460/185/169 149/182/166 148/183/167 150/186/170
f 148/183/167 151/184/168 153/187/171 150/186/170
f 152/188/172 151/189/168 143/177/162 237/176/161
f 151/189/168 152/188/172 154/190/173 153/191/171
f 156/192/174 155/193/175 153/191/171 154/190/173
f 155/194/175 158/195/176 150/186/170 153/187/171
f 155/193/175 156/192/174 246/196/177 157/197/178
f 158/195/176 155/194/175 157/198/178 160/199/179
f 159/200/180 460/185/169 150/186/170 158/195/176
f 161/201/181 159/200/180 158/195/176 160/199/179
f 163/202/182 161/201/181 160/199/179 162/203/183
f 165/204/184 162/203/183 160/199/179 157/198/178
f 421/205/185 163/202/182 162/203/183 164/206/186
f 162/203/183 165/204/184 167/207/187 164/206/186
f 166/208/188 165/209/184 157/197/178 246/196/177
f 165/209/184 166/208/188 168/210/189 167/211/187
f 170/212/190 169/213/191 167/211/187 168/210/189
f 169/214/191 172/215/192 164/206/186 167/207/187
f 169/213/191 170/212/190 255/216/193 171/217/194
f 172/215/192 169/214/191 171/218/194 174/219/195
f 173/220/196 421/205/185 164/206/186 172/215/192
f 175/221/197 173/220/196 172/215/192 174/219/195
f 177/222/198 175/221/197 174/219/195 176/223/199
f 179/224/200 176/223/199 174/219/195 171/218/194
f 340/225/201 177/222/198 176/223/199 178/226/202
f 176/223/199 179/224/200 181/227/203 178/226/202
f 180/228/204 179/229/200 171/217/194 255/216/193
f 179/229/200 180/228/204 182/230/205 181/231/203
f 184/232/206 183/233/207 181/231/203 182/230/205
f 183/234/207 186/235/208 178/226/202 181/227/203
f 183/233/207 184/232/206 263/236/209 185/237/210
f 186/235/208 183/234/207 185/238/210 188/239/211
f 187/7/7 340/225/201 178/226/202 186/235/208
f 3/5/5 187/7/7 186/235/208 188/239/211
f 190/6/6 3/5/5 188/239/211 189/240/212
f 192/241/213 189/240/212 188/239/211 185/238/210
f 19/24/24 190/6/6 189/240/212 191/25/25
f 189/240/212 192/241/213 194/242/214 191/25/25
f 193/243/215 192/244/213 185/237/210 263/236/209
f 192/244/213 193/243/215 195/245/216 194/246/214
f 197/247/217 196/248/218 194/246/214 195/245/216
f 196/249/218 20/26/26 191/25/25 194/242/214
f 196/248/218 197/247/217 199/250/219 198/251/220
f 20/26/26 196/249/218 198/252/220 22/27/27
f 201/253/221 200/254/222 198/251/220 199/250/219
f 200/255/222 24/29/29 22/27/27 198/252/220
f 200/254/222 201/253/221 203/256/223 202/257/224
f 24/29/29 200/255/222 202/258/224 204/32/32
f 206/131/128 110/130/123 202/257/224 203/256/223
f 110/123/123 104/120/120 204/32/32 202/258/224
f 207/259/128 206/131/128 203/256/223 205/260/223
f 201/253/221 332/261/221 205/260/223 203/256/223
f 206/131/128 207/259/128 209/262/127 109/129/127
f 208/263/128 207/259/128 205/260/223 333/264/223
f 207/259/128 208/263/128 210/265/127 209/262/127
f 212/266/126 211/267/126 209/262/127 210/265/127
f 211/267/126 112/126/126 109/129/127 209/262/127
f 112/126/126 211/267/126 213/268/129 114/132/129
f 211/267/126 212/266/126 214/269/129 213/268/129
f 216/270/132 215/271/132 213/268/129 214/269/129
f 215/271/132 117/136/132 114/132/129 213/268/129
f 117/136/132 215/271/132 217/272/135 219/140/135
f 215/271/132 216/270/132 218/273/135 217/272/135
f 221/274/142 220/275/142 217/272/135 218/273/135
f 220/275/142 125/148/142 219/140/135 217/272/135
f 125/148/142 220/275/142 222/276/143 127/150/143
f 220/275/142 221/274/142 223/277/143 222/276/143
f 225/278/144 224/279/144 222/280/143 223/281/143
f 224/279/144 129/152/144 127/155/143 222/280/143
f 129/152/144 224/279/144 226/282/147 228/158/147
f 224/279/144 225/278/144 227/283/147 226/282/147
f 230/284/156 229/285/156 226/282/147 227/283/147
f 229/285/156 138/168/156 228/158/147 226/282/147
f 138/168/156 229/285/156 231/286/157 140/170/157
f 229/285/156 230/284/156 232/287/157 231/286/157
f 234/288/158 233/289/158 231/286/157 232/287/157
f 233/289/158 142/172/158 140/170/157 231/286/157
f 142/172/158 233/289/158 235/290/161 237/176/161
f 233/289/158 234/288/158 236/291/161 235/290/161
f 239/292/172 238/293/172 235/290/161 236/291/161
f 238/293/172 152/188/172 237/176/161 235/290/161
f 152/188/172 238/293/172 240/294/173 154/190/173
f 238/293/172 239/292/172 241/295/173 240/294/173
f 243/296/174 242/297/174 240/294/173 241/295/173
f 242/297/174 156/192/174 154/190/173 240/294/173
f 156/192/174 242/297/174 244/298/177 246/196/177
f 242/297/174 243/296/174 245/299/177 244/298/177
f 248/300/188 247/301/188 244/298/177 245/299/177
f 247/301/188 166/208/188 246/196/177 244/298/177
f 166/208/188 247/301/188 249/302/189 168/210/189
f 247/301/188 248/300/188 250/303/189 249/302/189
f 252/304/190 251/305/190 249/302/189 250/303/189
f 251/305/190 170/212/190 168/210/189 249/302/189
f 170/212/190 251/305/190 253/306/193 255/216/193
f 251/305/190 252/304/190 254/307/193 253/306/193
f 257/308/204 256/309/204 253/306/193 254/307/193
f 256/309/204 180/228/204 255/216/193 253/306/193
f 180/228/204 256/309/204 258/310/205 182/230/205
f 256/309/204 257/308/204 259/311/205 258/310/205
f 261/312/206 260/313/206 258/310/205 259/311/205
f 260/313/206 184/232/206 182/230/205 258/310/205
f 184/232/206 260/313/206 262/314/209 263/236/209
f 260/313/206 261/312/206 265/315/209 262/314/209
f 264/316/215 193/243/215 263/236/209 262/314/209
f 266/317/215 264/316/215 262/314/209 265/315/209
f 268/318/215 266/317/215 265/315/209 267/319/209
f 261/312/206 270/320/206 267/319/209 265/315/209
f 339/321/215 268/318/215 267/319/209 269/322/209
f 270/320/206 272/323/206 269/322/209 267/319/209
f 270/320/206 261/312/206 259/311/205 271/324/205
f 272/323/206 270/320/206 271/324/205 273/325/205
f 275/326/204 274/327/204 273/325/205 271/324/205
f 274/327/204 275/326/204 278/328/193 276/329/193
f 279/330/190 277/331/190 276/329/193 278/328/193
f 252/304/190 279/330/190 278/328/193 254/307/193
f 275/326/204 257/308/204 254/307/193 278/328/193
f 279/330/190 252/304/190 250/303/189 280/332/189
f 277/331/190 279/330/190 280/332/189 281/333/189
f 282/334/188 284/335/188 281/333/189 280/332/189
f 248/300/188 282/334/188 280/332/189 250/303/189
f 282/334/188 248/300/188 245/299/177 283/336/177
f 284/335/188 282/334/188 283/336/177 285/337/177
f 287/338/174 286/339/174 285/337/177 283/336/177
f 286/339/174 287/338/174 290/340/173 288/341/173
f 291/342/172 289/343/172 288/341/173 290/340/173
f 239/292/172 291/342/172 290/340/173 241/295/173
f 287/338/174 243/296/174 241/295/173 290/340/173
f 291/342/172 239/292/172 236/291/161 292/344/161
f 289/343/172 291/342/172 292/344/161 293/345/161
f 294/346/158 296/347/158 293/345/161 292/344/161
f 234/288/158 294/346/158 292/344/161 236/291/161
f 294/346/158 234/288/158 232/287/157 295/348/157
f 296/347/158 294/346/158 295/348/157 297/349/157
f 299/350/156 298/351/156 297/349/157 295/348/157
f 298/351/156 299/350/156 302/352/147 300/353/147
f 303/354/144 301/355/144 300/353/147 302/352/147
f 225/278/144 303/354/144 302/352/147 227/283/147
f 299/350/156 230/284/156 227/283/147 302/352/147
f 303/354/144 225/278/144 223/281/143 304/356/143
f 301/355/144 303/354/144 304/356/143 305/357/143
f 306/358/142 308/359/142 305/360/143 304/361/143
f 221/274/142 306/358/142 304/361/143 223/277/143
f 306/358/142 221/274/142 218/273/135 307/362/135
f 308/359/142 306/358/142 307/362/135 309/363/135
f 311/364/132 310/365/132 309/363/135 307/362/135
f 310/365/132 311/364/132 314/366/129 312/367/129
f 315/368/126 313/369/126 312/367/129 314/366/129
f 212/266/126 315/368/126 314/366/129 214/269/129
f 311/364/132 216/270/132 214/269/129 314/366/129
f 315/368/126 212/266/126 210/265/127 316/370/127
f 313/369/126 315/368/126 316/370/127 317/371/127
f 318/372/128 320/373/128 317/371/127 316/370/127
f 208/263/128 318/372/128 316/370/127 210/265/127
f 318/372/128 208/263/128 333/264/223 319/374/223
f 320/373/128 318/372/128 319/374/223 321/375/223
f 323/376/221 322/377/221 321/375/223 319/374/223
f 322/377/221 323/376/221 326/378/219 324/379/219
f 327/380/217 325/381/217 324/379/219 326/378/219
f 329/382/217 327/380/217 326/378/219 328/383/219
f 323/376/221 331/384/221 328/383/219 326/378/219
f 334/385/217 329/382/217 328/383/219 330/386/219
f 331/384/221 332/261/221 330/386/219 328/383/219
f 332/261/221 331/384/221 333/264/223 205/260/223
f 331/384/221 323/376/221 319/374/223 333/264/223
f 332/261/221 201/253/221 199/250/219 330/386/219
f 197/247/217 334/385/217 330/386/219 199/250/219
f 334/385/217 197/247/217 195/245/216 335/387/216
f 329/382/217 334/385/217 335/387/216 336/388/216
f 264/316/215 266/317/215 336/388/216 335/387/216
f 193/243/215 264/316/215 335/387/216 195/245/216
f 266/317/215 268/318/215 337/389/216 336/388/216
f 327/380/217 329/382/217 336/388/216 337/389/216
f 325/381/217 327/380/217 337/389/216 338/390/216
f 268/318/215 339/321/215 338/390/216 337/389/216
f 216/270/132 311/364/132 307/362/135 218/273/135
f 230/284/156 299/350/156 295/348/157 232/287/157
f 243/296/174 287/338/174 283/336/177 245/299/177
f 257/308/204 275/326/204 271/324/205 259/311/205
f 190/6/6 19/24/24 11/15/15 2/1/1
f 340/225/201 187/7/7 4/8/8 341/391/225
f 177/222/198 340/225/201 341/391/225 342/392/226
f 343/393/227 344/394/228 342/392/226 341/391/225
f 4/8/8 6/9/9 343/393/227 341/391/225
f 344/394/228 343/393/227 345/395/229 346/396/230
f 6/9/9 347/10/10 345/395/229 343/393/227
f 348/397/231 349/398/232 346/396/230 345/395/229
f 347/10/10 351/399/233 348/397/231 345/395/229
f 349/398/232 348/397/231 350/400/234 373/401/235
f 351/399/233 352/402/236 350/400/234 348/397/231
f 352/402/236 351/399/233 353/403/237 354/404/238
f 351/399/233 347/10/10 7/11/11 353/403/237
f 355/405/239 353/403/237 7/11/11 9/12/12
f 353/403/237 355/405/239 357/406/240 354/404/238
f 356/407/241 355/405/239 9/12/12 12/14/14
f 355/405/239 356/407/241 359/408/242 357/406/240
f 358/409/243 362/410/244 354/404/238 357/406/240
f 360/411/245 358/409/243 357/406/240 359/408/242
f 361/412/246 360/411/245 359/408/242 356/407/241
f 358/409/243 360/411/245 38/42/42 363/46/46
f 360/411/245 361/412/246 34/40/40 38/42/42
f 15/18/18 361/412/246 356/407/241 12/14/14
f 361/412/246 15/18/18 32/21/21 34/40/40
f 362/410/244 358/409/243 363/46/46 364/413/247
f 37/44/44 365/414/248 364/413/247 363/46/46
f 365/414/248 368/415/249 366/416/250 364/413/247
f 369/417/251 362/410/244 364/413/247 366/416/250
f 370/418/252 369/417/251 366/416/250 367/419/253
f 368/415/249 378/420/254 367/419/253 366/416/250
f 369/417/251 370/418/252 350/400/234 352/402/236
f 362/410/244 369/417/251 352/402/236 354/404/238
f 370/418/252 371/421/255 373/401/235 350/400/234
f 371/421/255 370/418/252 367/419/253 374/422/256
f 372/423/257 371/421/255 374/422/256 375/424/258
f 371/421/255 372/423/257 410/425/259 373/401/235
f 376/426/260 377/427/261 375/424/258 374/422/256
f 378/420/254 376/426/260 374/422/256 367/419/253
f 377/427/261 376/426/260 379/428/262 380/429/263
f 376/426/260 378/420/254 382/430/264 379/428/262
f 381/431/265 397/432/266 380/429/263 379/428/262
f 383/433/267 381/431/265 379/428/262 382/430/264
f 385/434/268 383/433/267 382/430/264 384/435/269
f 378/420/254 368/415/249 384/435/269 382/430/264
f 387/436/270 385/434/268 384/435/269 386/437/271
f 368/415/249 365/414/248 386/437/271 384/435/269
f 42/48/48 387/436/270 386/437/271 40/45/45
f 365/414/248 37/44/44 40/45/45 386/437/271
f 387/436/270 42/48/48 390/51/51 388/438/272
f 385/434/268 387/436/270 388/438/272 391/439/273
f 389/64/64 64/75/75 391/439/273 388/438/272
f 52/61/61 389/64/64 388/438/272 390/51/51
f 383/433/267 385/434/268 391/439/273 392/440/274
f 64/75/75 66/76/76 392/440/274 391/439/273
f 66/76/76 68/77/77 393/441/275 392/440/274
f 381/431/265 383/433/267 392/440/274 393/441/275
f 397/432/266 381/431/265 393/441/275 394/442/276
f 68/77/77 395/80/80 394/442/276 393/441/275
f 395/80/80 444/443/277 396/444/278 394/442/276
f 398/445/279 397/432/266 394/442/276 396/444/278
f 397/432/266 398/445/279 400/446/280 380/429/263
f 399/447/281 398/445/279 396/444/278 442/448/282
f 398/445/279 399/447/281 401/449/283 400/446/280
f 403/450/284 402/451/285 400/446/280 401/449/283
f 402/451/285 377/427/261 380/429/263 400/446/280
f 402/451/285 403/450/284 405/452/286 404/453/287
f 377/427/261 402/451/285 404/453/287 375/424/258
f 407/454/288 406/455/289 404/453/287 405/452/286
f 406/455/289 372/423/257 375/424/258 404/453/287
f 406/455/289 407/454/288 409/456/290 408/457/291
f 372/423/257 406/455/289 408/457/291 410/425/259
f 411/458/292 408/457/291 409/456/290 412/459/293
f 408/457/291 411/458/292 414/460/294 410/425/259
f 413/461/295 411/458/292 412/459/293 425/462/296
f 411/458/292 413/461/295 415/463/297 414/460/294
f 349/398/232 414/460/294 415/463/297 346/396/230
f 414/460/294 349/398/232 373/401/235 410/425/259
f 416/464/298 344/394/228 346/396/230 415/463/297
f 417/465/299 416/464/298 415/463/297 413/461/295
f 416/464/298 417/465/299 419/466/300 418/467/301
f 344/394/228 416/464/298 418/467/301 342/392/226
f 175/221/197 177/222/198 342/392/226 418/467/301
f 173/220/196 175/221/197 418/467/301 419/466/300
f 421/205/185 173/220/196 419/466/300 420/468/302
f 417/465/299 423/469/303 420/468/302 419/466/300
f 163/202/182 421/205/185 420/468/302 422/470/304
f 424/471/305 422/470/304 420/468/302 423/469/303
f 426/472/306 424/471/305 423/469/303 425/462/296
f 423/469/303 417/465/299 413/461/295 425/462/296
f 412/459/293 428/473/307 426/472/306 425/462/296
f 424/471/305 426/472/306 427/474/308 463/475/309
f 428/473/307 429/476/310 427/474/308 426/472/306
f 429/476/310 428/473/307 407/454/288 405/452/286
f 428/473/307 412/459/293 409/456/290 407/454/288
f 430/477/311 432/478/312 427/474/308 429/476/310
f 403/450/284 430/477/311 429/476/310 405/452/286
f 430/477/311 403/450/284 401/449/283 431/479/313
f 432/478/312 430/477/311 431/479/313 434/480/314
f 432/478/312 433/481/315 463/475/309 427/474/308
f 433/481/315 432/478/312 434/480/314 435/482/316
f 437/483/317 435/482/316 434/480/314 436/484/318
f 431/479/313 439/485/319 436/484/318 434/480/314
f 452/486/320 437/483/317 436/484/318 438/487/321
f 439/485/319 440/488/322 438/487/321 436/484/318
f 440/488/322 439/485/319 399/447/281 442/448/282
f 439/485/319 431/479/313 401/449/283 399/447/281
f 441/489/323 450/490/324 438/487/321 440/488/322
f 443/491/325 441/489/323 440/488/322 442/448/282
f 444/443/277 443/491/325 442/448/282 396/444/278
f 443/491/325 444/443/277 446/86/86 445/492/326
f 441/489/323 443/491/325 445/492/326 447/493/327
f 73/85/85 447/493/327 445/492/326 446/86/86
f 447/493/327 73/85/85 75/87/87 448/494/328
f 450/490/324 441/489/323 447/493/327 448/494/328
f 449/495/329 451/496/330 450/490/324 448/494/328
f 75/87/87 77/88/88 449/495/329 448/494/328
f 451/496/330 452/486/320 438/487/321 450/490/324
f 452/486/320 451/496/330 453/497/331 454/498/332
f 451/496/330 449/495/329 455/499/333 453/497/331
f 145/180/164 147/181/165 454/498/332 453/497/331
f 456/165/153 145/180/164 453/497/331 455/499/333
f 135/162/150 456/165/153 455/499/333 457/91/91
f 77/88/88 457/91/91 455/499/333 449/495/329
f 133/97/97 135/162/150 457/91/91 78/92/92
f 147/181/165 149/182/166 458/500/334 454/498/332
f 437/483/317 452/486/320 454/498/332 458/500/334
f 435/482/316 437/483/317 458/500/334 459/501/335
f 149/182/166 460/185/169 459/501/335 458/500/334
f 460/185/169 159/200/180 461/502/336 459/501/335
f 461/502/336 433/481/315 435/482/316 459/501/335
f 433/481/315 461/502/336 462/503/337 463/475/309
f 159/200/180 161/201/181 462/503/337 461/502/336
f 161/201/181 163/202/182 422/470/304 462/503/337
f 422/470/304 424/471/305 463/475/309 462/503/337
f 444/443/277 395/80/80 69/81/81 446/86/86
f 95/110/110 97/111/111 107/122/122 115/135/131
