# Blender 4.5.3 LTS
# www.blender.org
o Dualsense.050
v -39.320560 -23.613859 41.790291
v -39.228886 -23.583799 42.082626
v -39.255203 -23.644619 41.775894
v -39.353935 -23.647020 41.478172
v -39.342350 -23.529631 41.795090
v -39.342350 -21.134388 41.795105
v -39.249359 -23.500471 42.091286
v -39.376194 -23.561735 41.479515
v -39.296150 -23.632656 40.786583
v -39.376194 -21.134388 41.479515
v -39.296150 -21.132488 40.786591
v -39.047508 -21.126747 39.358353
v -39.047508 -23.778252 39.358345
v -38.767761 -21.118879 37.936226
v -38.767761 -23.922878 37.936226
v -38.594418 -21.110531 37.261681
v -38.594418 -23.990955 37.261681
v -38.450050 -21.104078 36.980377
v -38.450050 -24.019566 36.980377
v -38.257236 -21.101944 36.737991
v -38.257236 -24.045835 36.737991
v -38.023113 -21.101944 36.540367
v -38.023113 -24.069235 36.540367
v -37.754829 -21.101944 36.393379
v -37.754829 -24.089209 36.393379
v -37.463108 -21.101944 36.300957
v -37.463108 -24.105017 36.300957
v -37.158672 -21.101944 36.267059
v -37.158672 -24.115915 36.267059
v -36.853489 -21.101944 36.292511
v -36.853489 -24.121387 36.292511
v -36.559471 -21.101944 36.378189
v -36.559471 -24.120991 36.378189
v -36.287460 -21.101944 36.518997
v -36.287460 -24.114866 36.518990
v -36.048286 -21.101944 36.709801
v -36.048286 -24.103197 36.709801
v -35.850563 -21.101944 36.943024
v -35.850563 -24.086382 36.943024
v -35.702896 -21.101944 37.211014
v -35.702896 -24.064787 37.211014
v -35.609821 -21.104082 37.506065
v -35.575890 -21.110531 37.820435
v -35.609821 -24.038980 37.506065
v -35.575890 -24.009548 37.820435
v -35.631599 -24.144768 37.510872
v -35.723351 -24.171400 37.219704
v -35.696930 -24.177341 37.525291
v -35.598125 -24.114124 37.821693
v -35.678055 -24.039848 38.510864
v -35.664829 -24.147264 37.825485
v -35.744545 -24.072800 38.505531
v -35.770969 -24.144192 37.831528
v -35.911453 -24.140131 37.839523
v -35.850327 -24.071264 38.497078
v -35.800877 -24.172544 37.548248
v -35.882378 -24.196644 37.287331
v -35.938473 -24.166193 37.578621
v -36.011650 -24.187885 37.342278
v -36.175785 -24.159849 37.581741
v -36.229557 -24.179491 37.368378
v -36.578876 -24.155046 37.522911
v -36.159374 -24.135860 37.822296
v -36.242420 -24.066950 38.451637
v -36.587791 -24.132198 37.752632
v -36.684303 -24.064634 38.374016
v -37.106480 -24.128649 37.656746
v -37.064919 -24.150755 37.433075
v -37.221115 -24.062090 38.274704
v -37.625240 -24.124689 37.560852
v -37.757938 -24.059109 38.175369
v -37.551064 -24.145945 37.343170
v -38.050335 -24.122267 37.472672
v -38.288013 -24.123341 37.399956
v -38.198368 -24.056759 38.089699
v -37.948708 -24.143763 37.253929
v -37.821751 -24.161018 37.073662
v -38.169224 -24.147358 37.166023
v -38.015926 -24.167631 36.971230
v -38.286793 -24.153097 37.088303
v -38.116959 -24.177160 36.873581
v -38.416298 -24.125959 37.342064
v -38.375614 -24.157345 37.029579
v -38.193272 -24.183697 36.799805
v -38.431438 -24.124630 36.992676
v -38.513203 -24.128157 37.298340
v -38.574108 -24.094852 37.270844
v -38.682472 -24.056940 37.961441
v -38.746441 -24.023767 37.942528
v -38.580704 -24.056364 37.991516
v -38.959846 -23.904457 39.374283
v -39.025585 -23.872740 39.362328
v -39.207394 -23.751087 40.793106
v -38.855251 -23.905031 39.393311
v -38.716782 -23.906094 39.418472
v -39.101486 -23.752733 40.800903
v -38.961288 -23.754992 40.811188
v -39.180973 -23.680288 41.467819
v -39.151218 -23.649334 41.752991
v -39.040379 -23.684389 41.459389
v -39.287178 -23.677181 41.474174
v -39.013557 -23.655443 41.722664
v -38.792400 -23.687422 41.476425
v -38.776234 -23.659969 41.719765
v -38.709091 -23.756836 40.844788
v -38.364059 -23.687250 41.546402
v -38.373264 -23.659895 41.779099
v -37.845539 -23.686033 41.642906
v -38.267220 -23.757238 40.922447
v -37.730488 -23.757059 41.022186
v -38.018559 -23.908913 39.547340
v -37.475731 -23.910313 39.647972
v -38.464516 -23.907467 39.464806
v -36.932919 -23.911495 39.748611
v -36.487015 -23.912411 39.831436
v -37.193775 -23.757137 41.121948
v -37.327023 -23.685913 41.739525
v -36.753483 -23.756989 41.208191
v -36.902153 -23.685331 41.828407
v -36.506035 -23.756027 41.267380
v -36.664585 -23.682732 41.901688
v -36.371468 -23.754827 41.308067
v -36.234921 -23.913033 39.878639
v -35.990353 -24.069239 38.485886
v -36.096642 -23.913446 39.904846
v -35.992184 -23.913748 39.924622
v -35.926521 -23.882334 39.937065
v -36.269810 -23.753914 41.338806
v -36.439495 -23.677107 42.004128
v -36.205910 -23.724041 41.358131
v -36.378605 -23.647367 42.031830
v -36.184616 -23.635893 41.364555
v -36.358318 -23.562208 42.041077
v -36.184616 -21.132488 41.364555
v -35.904636 -23.787596 39.941216
v -35.904636 -21.126747 39.941216
v -35.655899 -23.938410 38.512634
v -35.655899 -21.118879 38.512634
v -36.358318 -21.134388 42.041077
v -36.503036 -21.134388 42.324028
v -36.503036 -23.529081 42.324028
v -36.696056 -21.134388 42.566780
v -36.696049 -23.499071 42.566780
v -36.930313 -21.134388 42.764549
v -36.930309 -23.473188 42.764549
v -37.198753 -21.134388 42.912544
v -37.198746 -23.452438 42.912544
v -37.490444 -21.134384 43.005898
v -37.490444 -23.437290 43.005898
v -37.794468 -21.134384 43.039650
v -37.794456 -23.428160 43.039650
v -38.099136 -21.134384 43.013527
v -38.099136 -23.425287 43.013527
v -38.392796 -21.134388 42.927208
v -38.392796 -23.428936 42.927208
v -38.664646 -21.134388 42.785751
v -38.664639 -23.438717 42.785751
v -38.903873 -21.134388 42.594284
v -38.903873 -23.454304 42.594284
v -39.101700 -21.134388 42.360291
v -39.101700 -23.475084 42.360275
v -39.249359 -21.134388 42.091293
v -39.083317 -23.557663 42.347816
v -39.028172 -23.589823 42.310387
v -38.888294 -23.536253 42.578491
v -38.841564 -23.568966 42.531113
v -38.652470 -23.520205 42.767242
v -38.615948 -23.553312 42.711700
v -38.384506 -23.510117 42.906670
v -38.359631 -23.543455 42.845047
v -38.095058 -23.506348 42.991760
v -38.082817 -23.539740 42.926407
v -37.794773 -23.509283 43.017509
v -37.795719 -23.542530 42.951035
v -37.495136 -23.518660 42.984222
v -37.509224 -23.551590 42.919220
v -37.207615 -23.534239 42.892204
v -37.234230 -23.566673 42.831184
v -36.942997 -23.555569 42.746307
v -36.981068 -23.587383 42.691589
v -36.712063 -23.582220 42.551353
v -36.760094 -23.613300 42.505043
v -36.521652 -23.613159 42.311729
v -36.577503 -23.643501 42.274803
v -36.666367 -23.647657 42.216034
v -36.836521 -23.619301 42.431374
v -36.784000 -23.653149 42.138275
v -36.536358 -23.679527 41.960037
v -36.937675 -23.627254 42.333855
v -37.004444 -23.657557 42.050133
v -37.131779 -23.633711 42.231430
v -37.401741 -23.658428 41.960274
v -37.887478 -23.658354 41.869614
v -37.487015 -23.635260 42.143051
v -37.922905 -23.635014 42.061722
v -37.582905 -23.615833 42.296074
v -37.953728 -23.615322 42.229568
v -37.282078 -23.613836 42.376358
v -37.689487 -23.599539 42.427582
v -37.981846 -23.598511 42.383507
v -37.772884 -23.584377 42.557381
v -37.453266 -23.597900 42.488983
v -37.332600 -23.588181 42.605591
v -37.592068 -23.586206 42.573586
v -37.561314 -23.575708 42.678856
v -37.799198 -23.568336 42.705376
v -37.531643 -23.561966 42.815781
v -37.797215 -23.553638 42.845337
v -37.276558 -23.575928 42.734108
v -37.041634 -23.595165 42.604553
v -37.121811 -23.605457 42.489334
v -38.063339 -23.551132 42.822479
v -38.320065 -23.554682 42.747009
v -38.037560 -23.566219 42.684898
v -38.267677 -23.569557 42.617226
v -38.009159 -23.582760 42.532341
v -38.239094 -23.585558 42.469818
v -38.414371 -23.587786 42.419434
v -38.270924 -23.600199 42.318871
v -38.323963 -23.616146 42.157890
v -38.514111 -23.599199 42.290672
v -38.668808 -23.590136 42.355919
v -38.634007 -23.614674 42.124313
v -38.722408 -23.635321 41.934875
v -38.824257 -23.607204 42.172073
v -38.940346 -23.629353 41.960617
v -38.940418 -23.597631 42.250885
v -39.069729 -23.621544 42.015320
v -38.767223 -23.578297 42.455719
v -38.557865 -23.563873 42.623291
v -38.480961 -23.577719 42.506279
v -39.167454 -23.615259 42.056648
v -38.358982 -23.636127 41.980438
v -38.445980 -24.056087 38.031342
v -39.273968 -23.720808 40.788208
v -38.241245 -24.151760 36.753448
v -38.010452 -24.175789 36.558632
v -37.745979 -24.196337 36.413734
v -37.972458 -24.206959 36.613411
v -37.719440 -24.226866 36.474777
v -37.912010 -24.198391 36.700562
v -37.677204 -24.217091 36.571907
v -37.832005 -24.185743 36.815941
v -37.621315 -24.203281 36.700485
v -37.671616 -24.176664 36.929016
v -37.500439 -24.193272 36.817123
v -37.370064 -24.178791 37.009270
v -36.998436 -24.185411 37.075600
v -37.263283 -24.194914 36.878426
v -37.465996 -24.163227 37.161758
v -37.029503 -24.169218 37.242607
v -36.593094 -24.173948 37.323311
v -36.627815 -24.189793 37.146866
v -36.317680 -24.195339 37.179985
v -36.680424 -24.203472 36.986580
v -36.437206 -24.207859 37.014381
v -36.711998 -24.217062 36.835960
v -36.969929 -24.200788 36.922295
v -36.942368 -24.216242 36.773811
v -36.914162 -24.232677 36.621323
v -37.179737 -24.211340 36.749146
v -37.153503 -24.227802 36.601326
v -37.361320 -24.207182 36.732948
v -37.392323 -24.218033 36.627930
v -37.421955 -24.232161 36.491035
v -37.155674 -24.242498 36.461380
v -37.444344 -24.242664 36.387627
v -37.157303 -24.253599 36.355652
v -37.458420 -24.212610 36.322624
v -37.158337 -24.223816 36.289200
v -36.857510 -24.229488 36.314293
v -36.567699 -24.229094 36.398758
v -36.869572 -24.259153 36.379669
v -36.592381 -24.258848 36.460449
v -36.888760 -24.247765 36.483658
v -36.631649 -24.247612 36.558601
v -36.683628 -24.232740 36.688538
v -36.393764 -24.242199 36.681770
v -36.184555 -24.231680 36.848724
v -36.470325 -24.228104 36.799026
v -36.335934 -24.252865 36.593216
v -36.110420 -24.241354 36.773155
v -36.299580 -24.222824 36.537537
v -36.063824 -24.210859 36.725639
v -35.868916 -24.193592 36.955521
v -35.923977 -24.224684 36.993073
v -35.784733 -24.203245 37.245796
v -36.011581 -24.216387 37.052795
v -36.127541 -24.205397 37.131866
v -36.282700 -24.218899 36.948792
v -36.536816 -24.217445 36.885963
vn -0.7464 -0.6287 0.2180
vn -0.6943 -0.6255 0.3560
vn -0.9077 -0.1285 0.3994
vn -0.9683 -0.1278 0.2146
vn -0.2191 -0.9646 0.1468
vn -0.2021 -0.9620 0.1838
vn -0.7745 -0.6297 0.0601
vn -0.2318 -0.9675 0.1013
vn -0.9920 -0.1261 0.0091
vn -1.0000 -0.0000 -0.0042
vn -0.9790 -0.0000 0.2041
vn -0.9198 -0.0000 0.3923
vn -0.7714 -0.6347 -0.0449
vn -0.9840 -0.1219 -0.1296
vn -0.9897 -0.0000 -0.1433
vn -0.9832 -0.0000 -0.1823
vn -0.9788 -0.1154 -0.1694
vn -0.9752 -0.0000 -0.2212
vn -0.9718 -0.1086 -0.2091
vn -0.9345 -0.0000 -0.3560
vn -0.9331 -0.1053 -0.3440
vn -0.8398 -0.0000 -0.5429
vn -0.8406 -0.1040 -0.5315
vn -0.7172 -0.0000 -0.6969
vn -0.7193 -0.1031 -0.6870
vn -0.5656 -0.0000 -0.8247
vn -0.5686 -0.1024 -0.8162
vn -0.3931 -0.0000 -0.9195
vn -0.3966 -0.1018 -0.9123
vn -0.2073 -0.0000 -0.9783
vn -0.2107 -0.1014 -0.9723
vn -0.0138 -0.0000 -0.9999
vn -0.0165 -0.1010 -0.9947
vn 0.1823 -0.0000 -0.9832
vn 0.1806 -0.1009 -0.9784
vn 0.3715 -0.0000 -0.9284
vn 0.3706 -0.1009 -0.9233
vn 0.5443 -0.0000 -0.8389
vn 0.5440 -0.1011 -0.8330
vn 0.6965 -0.0000 -0.7176
vn 0.6963 -0.1014 -0.7105
vn 0.8234 -0.0000 -0.5675
vn 0.8228 -0.1019 -0.5592
vn 0.9192 -0.0000 -0.3938
vn 0.9175 -0.1025 -0.3842
vn 0.9786 -0.0000 -0.2059
vn 0.9753 -0.1034 -0.1950
vn 1.0000 -0.0000 0.0026
vn 0.9944 -0.1046 0.0137
vn 0.8000 -0.5969 0.0608
vn 0.7911 -0.6015 -0.1113
vn 0.7492 -0.6047 -0.2702
vn 0.2311 -0.9719 0.0444
vn 0.2188 -0.9757 -0.0080
vn 0.2329 -0.9671 0.1018
vn 0.7729 -0.6092 0.1775
vn 0.9822 -0.1081 0.1535
vn 0.2107 -0.9679 0.1373
vn -0.0230 -0.9943 0.1041
vn -0.0230 -0.9940 0.1068
vn -0.0238 -0.9946 0.1007
vn -0.0236 -0.9943 0.1040
vn -0.0245 -0.9946 0.1004
vn -0.0232 -0.9940 0.1067
vn -0.0254 -0.9948 0.0989
vn -0.0260 -0.9948 0.0984
vn -0.0256 -0.9947 0.0993
vn -0.0268 -0.9949 0.0973
vn -0.0246 -0.9944 0.1031
vn -0.0261 -0.9950 0.0967
vn -0.0274 -0.9951 0.0950
vn -0.0251 -0.9946 0.1010
vn -0.0236 -0.9941 0.1063
vn -0.0239 -0.9941 0.1053
vn -0.0253 -0.9949 0.0980
vn -0.0242 -0.9943 0.1040
vn -0.0265 -0.9954 0.0919
vn -0.0252 -0.9952 0.0951
vn -0.0255 -0.9959 0.0864
vn -0.0246 -0.9944 0.1026
vn -0.0243 -0.9952 0.0944
vn -0.0253 -0.9945 0.1015
vn -0.0213 -0.9960 0.0869
vn -0.0231 -0.9951 0.0962
vn -0.0166 -0.9955 0.0933
vn -0.0262 -0.9945 0.1010
vn -0.0200 -0.9960 0.0871
vn -0.0277 -0.9961 0.0839
vn -0.0119 -0.9951 0.0984
vn -0.0160 -0.9950 0.0982
vn -0.0123 -0.9945 0.1039
vn -0.0218 -0.9949 0.0983
vn -0.2338 -0.9713 -0.0439
vn -0.2047 -0.9752 -0.0842
vn -0.2567 -0.9665 0.0064
vn -0.6987 -0.6011 -0.3879
vn -0.6044 -0.6043 -0.5192
vn -0.7681 -0.5968 -0.2320
vn -0.2501 -0.9671 0.0471
vn -0.0253 -0.9945 0.1013
vn -0.7850 -0.6088 -0.1141
vn -0.2380 -0.9694 0.0601
vn -0.7772 -0.6244 -0.0779
vn -0.0250 -0.9944 0.1029
vn -0.2300 -0.9706 0.0708
vn -0.0237 -0.9943 0.1043
vn -0.0252 -0.9944 0.1031
vn -0.0229 -0.9942 0.1047
vn -0.0210 -0.9939 0.1084
vn -0.0222 -0.9939 0.1078
vn -0.0195 -0.9937 0.1107
vn -0.0180 -0.9935 0.1124
vn -0.0189 -0.9938 0.1100
vn -0.0172 -0.9932 0.1150
vn -0.0208 -0.9942 0.1058
vn -0.0185 -0.9935 0.1121
vn -0.0182 -0.9930 0.1169
vn -0.0199 -0.9940 0.1072
vn -0.0205 -0.9929 0.1169
vn -0.0201 -0.9934 0.1133
vn -0.0204 -0.9939 0.1083
vn -0.0223 -0.9942 0.1051
vn -0.0221 -0.9941 0.1062
vn -0.0234 -0.9943 0.1040
vn -0.0221 -0.9940 0.1070
vn -0.0211 -0.9938 0.1088
vn -0.0224 -0.9940 0.1075
vn -0.0219 -0.9938 0.1087
vn -0.0217 -0.9934 0.1128
vn -0.0229 -0.9935 0.1115
vn -0.0232 -0.9938 0.1084
vn -0.0244 -0.9936 0.1102
vn -0.0230 -0.9939 0.1076
vn -0.0239 -0.9938 0.1082
vn -0.0252 -0.9937 0.1096
vn -0.0233 -0.9939 0.1076
vn 0.1940 -0.9703 0.1447
vn 0.1824 -0.9715 0.1512
vn 0.7519 -0.6255 0.2085
vn 0.7340 -0.6365 0.2369
vn 0.1733 -0.9685 0.1788
vn 0.6992 -0.6316 0.3350
vn 0.9650 -0.1219 0.2321
vn 0.9228 -0.1261 0.3641
vn 0.9744 -0.1151 0.1931
vn 0.9352 -0.0000 0.3541
vn 0.9753 -0.0000 0.2209
vn 0.9833 -0.0000 0.1822
vn 0.9897 -0.0000 0.1431
vn 0.8407 -0.0000 0.5415
vn 0.8267 -0.1280 0.5478
vn 0.7174 -0.0000 0.6966
vn 0.7033 -0.1288 0.6991
vn 0.5667 -0.0000 0.8239
vn 0.5539 -0.1295 0.8225
vn 0.3957 -0.0000 0.9184
vn 0.3854 -0.1302 0.9135
vn 0.2086 -0.0000 0.9780
vn 0.2018 -0.1306 0.9707
vn 0.0125 -0.0000 0.9999
vn 0.0099 -0.1308 0.9914
vn -0.1846 -0.0000 0.9828
vn -0.1829 -0.1309 0.9744
vn -0.3736 -0.0000 0.9276
vn -0.3677 -0.1308 0.9207
vn -0.5458 -0.0000 0.8379
vn -0.5367 -0.1304 0.8336
vn -0.6975 -0.0000 0.7165
vn -0.6862 -0.1299 0.7158
vn -0.8242 -0.0000 0.5662
vn -0.8118 -0.1292 0.5694
vn -0.6172 -0.6228 0.4809
vn -0.5195 -0.6213 0.5866
vn -0.1792 -0.9598 0.2158
vn -0.1521 -0.9582 0.2424
vn -0.4065 -0.6200 0.6711
vn -0.1218 -0.9568 0.2639
vn -0.0884 -0.9562 0.2792
vn -0.2805 -0.6195 0.7331
vn -0.1442 -0.6191 0.7719
vn -0.0527 -0.9560 0.2886
vn -0.0159 -0.9565 0.2913
vn -0.0023 -0.6199 0.7847
vn 0.1395 -0.6209 0.7714
vn 0.0207 -0.9574 0.2880
vn 0.0556 -0.9588 0.2784
vn 0.2758 -0.6227 0.7322
vn 0.4027 -0.6245 0.6692
vn 0.0880 -0.9605 0.2639
vn 0.1184 -0.9627 0.2432
vn 0.5177 -0.6273 0.5818
vn 0.6161 -0.6306 0.4720
vn 0.1461 -0.9655 0.2155
vn -0.0265 -0.9937 0.1086
vn -0.0264 -0.9936 0.1101
vn -0.0261 -0.9936 0.1099
vn -0.0258 -0.9935 0.1112
vn -0.0246 -0.9934 0.1120
vn -0.0243 -0.9933 0.1134
vn -0.0227 -0.9933 0.1137
vn -0.0227 -0.9931 0.1155
vn -0.0205 -0.9931 0.1152
vn -0.0216 -0.9938 0.1094
vn -0.0197 -0.9938 0.1094
vn -0.0233 -0.9938 0.1090
vn -0.0199 -0.9943 0.1050
vn -0.0181 -0.9944 0.1037
vn -0.0212 -0.9942 0.1057
vn -0.0172 -0.9945 0.1034
vn -0.0188 -0.9944 0.1040
vn -0.0198 -0.9943 0.1043
vn -0.0221 -0.9942 0.1051
vn -0.0200 -0.9943 0.1044
vn -0.0246 -0.9939 0.1074
vn -0.0186 -0.9943 0.1047
vn -0.0203 -0.9943 0.1043
vn -0.0190 -0.9943 0.1048
vn -0.0223 -0.9943 0.1046
vn -0.0248 -0.9940 0.1063
vn -0.0174 -0.9943 0.1052
vn -0.0179 -0.9942 0.1057
vn -0.0174 -0.9942 0.1066
vn -0.0169 -0.9943 0.1055
vn -0.0163 -0.9946 0.1025
vn -0.0166 -0.9946 0.1026
vn -0.0162 -0.9947 0.1017
vn -0.0166 -0.9944 0.1042
vn -0.0156 -0.9946 0.1026
vn -0.0176 -0.9938 0.1097
vn -0.0149 -0.9939 0.1096
vn -0.0146 -0.9945 0.1035
vn -0.0125 -0.9941 0.1075
vn -0.0140 -0.9936 0.1122
vn -0.0154 -0.9932 0.1155
vn -0.0181 -0.9930 0.1166
vn -0.0141 -0.9941 0.1073
vn -0.0158 -0.9938 0.1100
vn -0.0155 -0.9943 0.1058
vn -0.0170 -0.9942 0.1064
vn -0.1688 -0.9786 -0.1180
vn -0.4840 -0.6073 -0.6300
vn -0.3438 -0.6105 -0.7135
vn -0.1274 -0.9813 -0.1445
vn -0.0211 -0.9935 0.1116
vn -0.0146 -0.9938 0.1103
vn -0.0230 -0.9933 0.1134
vn -0.0147 -0.9940 0.1079
vn -0.0295 -0.9939 0.1059
vn -0.0239 -0.9951 0.0959
vn -0.0335 -0.9945 0.0995
vn -0.0314 -0.9954 0.0902
vn -0.0287 -0.9955 0.0901
vn -0.0311 -0.9953 0.0921
vn -0.0320 -0.9948 0.0966
vn -0.0286 -0.9951 0.0945
vn -0.0280 -0.9950 0.0963
vn -0.0295 -0.9950 0.0956
vn -0.0290 -0.9949 0.0965
vn -0.0301 -0.9947 0.0985
vn -0.0298 -0.9948 0.0979
vn -0.0309 -0.9944 0.1006
vn -0.0317 -0.9940 0.1043
vn -0.0296 -0.9943 0.1029
vn -0.0301 -0.9944 0.1011
vn -0.0291 -0.9940 0.1054
vn -0.0280 -0.9935 0.1102
vn -0.0312 -0.9936 0.1089
vn -0.0257 -0.9938 0.1082
vn -0.0277 -0.9941 0.1052
vn -0.0809 -0.9832 -0.1636
vn -0.0303 -0.9846 -0.1723
vn -0.1899 -0.6125 -0.7673
vn -0.0274 -0.6139 -0.7889
vn 0.0225 -0.9852 -0.1701
vn 0.1388 -0.6142 -0.7769
vn 0.2992 -0.6141 -0.7304
vn 0.0738 -0.9850 -0.1558
vn -0.0296 -0.9944 0.1019
vn -0.0289 -0.9942 0.1035
vn -0.0300 -0.9946 0.0994
vn -0.0296 -0.9945 0.1003
vn 0.1208 -0.9839 -0.1318
vn 0.1615 -0.9820 -0.0982
vn -0.0288 -0.9947 0.0989
vn -0.0292 -0.9948 0.0981
vn 0.4449 -0.6127 -0.6532
vn 0.5714 -0.6108 -0.5481
vn 0.1951 -0.9791 -0.0567
vn 0.6747 -0.6078 -0.4189
vn -0.0273 -0.9948 0.0983
vn -0.0277 -0.9948 0.0976
vt 0.489195 0.373185
vt 0.488271 0.373090
vt 0.488282 0.372838
vt 0.489195 0.372933
vt 0.792163 0.017283
vt 0.792573 0.018060
vt 0.792394 0.018187
vt 0.791974 0.017367
vt 0.791701 0.016484
vt 0.791911 0.016421
vt 0.490130 0.373027
vt 0.490130 0.373290
vt 0.490183 0.365854
vt 0.489248 0.365854
vt 0.488324 0.365843
vt 0.492189 0.373531
vt 0.492189 0.373258
vt 0.492241 0.365864
vt 0.496537 0.365885
vt 0.496463 0.373720
vt 0.500822 0.365906
vt 0.500748 0.374193
vt 0.502880 0.365896
vt 0.502796 0.374403
vt 0.503815 0.365885
vt 0.503731 0.374498
vt 0.504729 0.365885
vt 0.504645 0.374582
vt 0.505632 0.365896
vt 0.505548 0.374666
vt 0.506535 0.365906
vt 0.506451 0.374729
vt 0.507439 0.365917
vt 0.507355 0.374792
vt 0.508342 0.365917
vt 0.508258 0.374823
vt 0.509256 0.365927
vt 0.509172 0.374855
vt 0.459242 0.365644
vt 0.459221 0.374561
vt 0.458318 0.374561
vt 0.458339 0.365644
vt 0.460145 0.365644
vt 0.460124 0.374550
vt 0.461048 0.365644
vt 0.461027 0.374519
vt 0.461952 0.365644
vt 0.461931 0.374466
vt 0.462855 0.365644
vt 0.462844 0.374403
vt 0.463769 0.365654
vt 0.463758 0.374330
vt 0.464703 0.365675
vt 0.464682 0.374246
vt 0.464693 0.374561
vt 0.463758 0.374655
vt 0.462834 0.374729
vt 0.800222 0.002941
vt 0.799823 0.002153
vt 0.800001 0.002048
vt 0.800422 0.002857
vt 0.800695 0.003739
vt 0.800474 0.003781
vt 0.466751 0.374351
vt 0.466751 0.374046
vt 0.800831 0.005809
vt 0.800611 0.005820
vt 0.800169 0.003865
vt 0.800296 0.005851
vt 0.799928 0.003056
vt 0.799770 0.003960
vt 0.799539 0.003214
vt 0.799896 0.005893
vt 0.799539 0.002342
vt 0.799203 0.002563
vt 0.798856 0.003351
vt 0.798583 0.002752
vt 0.799035 0.004044
vt 0.797658 0.003403
vt 0.797501 0.002836
vt 0.797742 0.004076
vt 0.799129 0.005935
vt 0.797805 0.005946
vt 0.796187 0.004076
vt 0.796187 0.005946
vt 0.796187 0.003403
vt 0.794632 0.004086
vt 0.794737 0.003403
vt 0.794569 0.005946
vt 0.793350 0.004055
vt 0.793256 0.005935
vt 0.793529 0.003361
vt 0.792625 0.003970
vt 0.792835 0.003224
vt 0.792499 0.005904
vt 0.793802 0.002762
vt 0.794895 0.002836
vt 0.793182 0.002563
vt 0.792457 0.003067
vt 0.792835 0.002342
vt 0.792216 0.003876
vt 0.792163 0.002951
vt 0.792573 0.002163
vt 0.791911 0.003792
vt 0.791963 0.002867
vt 0.792384 0.002058
vt 0.791690 0.003750
vt 0.791774 0.005820
vt 0.792089 0.005851
vt 0.791564 0.005809
vt 0.791732 0.010107
vt 0.791512 0.010117
vt 0.792048 0.010107
vt 0.791774 0.014383
vt 0.791564 0.014425
vt 0.792079 0.014362
vt 0.792468 0.010107
vt 0.792499 0.014309
vt 0.792615 0.016243
vt 0.792216 0.016348
vt 0.792457 0.017167
vt 0.792835 0.016989
vt 0.793350 0.016169
vt 0.793529 0.016863
vt 0.793256 0.014278
vt 0.794632 0.016138
vt 0.794737 0.016810
vt 0.794569 0.014246
vt 0.796187 0.016821
vt 0.796187 0.016138
vt 0.796187 0.014246
vt 0.794559 0.010107
vt 0.796187 0.010107
vt 0.793224 0.010107
vt 0.797826 0.010107
vt 0.797805 0.014257
vt 0.799161 0.010107
vt 0.799129 0.014278
vt 0.797742 0.016148
vt 0.799035 0.016169
vt 0.799886 0.014320
vt 0.799760 0.016253
vt 0.799917 0.010107
vt 0.800296 0.014362
vt 0.800169 0.016358
vt 0.800338 0.010107
vt 0.800653 0.010107
vt 0.800611 0.014394
vt 0.800873 0.010117
vt 0.800821 0.014425
vt 0.800474 0.016432
vt 0.800684 0.016495
vt 0.475321 0.373174
vt 0.477380 0.372964
vt 0.477369 0.373216
vt 0.475311 0.373437
vt 0.471036 0.373899
vt 0.471036 0.373605
vt 0.477411 0.365791
vt 0.475342 0.365770
vt 0.471057 0.365738
vt 0.466772 0.365707
vt 0.478346 0.365791
vt 0.478325 0.372870
vt 0.479270 0.365791
vt 0.479239 0.372786
vt 0.480174 0.365801
vt 0.480142 0.372712
vt 0.481077 0.365801
vt 0.481045 0.372649
vt 0.481991 0.365801
vt 0.481949 0.372618
vt 0.482894 0.365812
vt 0.482852 0.372586
vt 0.483797 0.365812
vt 0.483755 0.372586
vt 0.484700 0.365822
vt 0.484658 0.372607
vt 0.485604 0.365822
vt 0.485562 0.372639
vt 0.486517 0.365833
vt 0.486465 0.372691
vt 0.487421 0.365843
vt 0.487368 0.372754
vt 0.487368 0.373006
vt 0.486465 0.372943
vt 0.792962 0.018880
vt 0.793119 0.018722
vt 0.793771 0.019279
vt 0.793666 0.019458
vt 0.794443 0.019878
vt 0.794517 0.019679
vt 0.485562 0.372891
vt 0.795347 0.019931
vt 0.795294 0.020151
vt 0.484658 0.372849
vt 0.796187 0.020235
vt 0.796187 0.020015
vt 0.483755 0.372838
vt 0.797049 0.019931
vt 0.797091 0.020151
vt 0.482852 0.372838
vt 0.797942 0.019889
vt 0.797858 0.019689
vt 0.481949 0.372859
vt 0.798614 0.019279
vt 0.798719 0.019468
vt 0.481045 0.372901
vt 0.799413 0.018891
vt 0.799266 0.018733
vt 0.480142 0.372964
vt 0.799812 0.018071
vt 0.799991 0.018187
vt 0.479239 0.373038
vt 0.800411 0.017378
vt 0.800222 0.017293
vt 0.478315 0.373122
vt 0.799539 0.017892
vt 0.799928 0.017167
vt 0.799203 0.017672
vt 0.799539 0.016999
vt 0.798583 0.017462
vt 0.798856 0.016873
vt 0.797501 0.017399
vt 0.797648 0.016821
vt 0.796187 0.017399
vt 0.797301 0.017903
vt 0.796187 0.017913
vt 0.798226 0.017976
vt 0.797070 0.018344
vt 0.796187 0.018365
vt 0.797784 0.018397
vt 0.796187 0.018817
vt 0.796891 0.018764
vt 0.797427 0.018722
vt 0.798205 0.018670
vt 0.797574 0.019006
vt 0.798751 0.018218
vt 0.796891 0.019216
vt 0.797732 0.019395
vt 0.796975 0.019626
vt 0.798436 0.019006
vt 0.799045 0.018512
vt 0.796187 0.019290
vt 0.796187 0.019700
vt 0.795410 0.019616
vt 0.795494 0.019216
vt 0.795494 0.018764
vt 0.795315 0.018344
vt 0.794958 0.018712
vt 0.794811 0.018996
vt 0.794590 0.018386
vt 0.795084 0.017903
vt 0.794159 0.017966
vt 0.794180 0.018659
vt 0.793634 0.018208
vt 0.793182 0.017661
vt 0.793802 0.017462
vt 0.794895 0.017388
vt 0.793340 0.018502
vt 0.792835 0.017892
vt 0.793949 0.019006
vt 0.794653 0.019384
vt 0.496463 0.374015
vt 0.500738 0.374498
vt 0.502796 0.374718
vt 0.503731 0.374813
vt 0.504645 0.374907
vt 0.793119 0.001512
vt 0.792951 0.001354
vt 0.505548 0.374981
vt 0.506451 0.375054
vt 0.793655 0.000776
vt 0.793771 0.000955
vt 0.793949 0.001228
vt 0.793340 0.001732
vt 0.794180 0.001564
vt 0.793634 0.002016
vt 0.794590 0.001848
vt 0.794159 0.002268
vt 0.795315 0.001901
vt 0.795084 0.002342
vt 0.796187 0.002836
vt 0.796187 0.002331
vt 0.796187 0.001869
vt 0.797301 0.002331
vt 0.798236 0.002258
vt 0.797070 0.001901
vt 0.797784 0.001838
vt 0.796891 0.001470
vt 0.797438 0.001522
vt 0.796187 0.001417
vt 0.795494 0.001480
vt 0.796187 0.000944
vt 0.796902 0.001018
vt 0.795494 0.001018
vt 0.794811 0.001239
vt 0.794958 0.001533
vt 0.794653 0.000850
vt 0.795410 0.000619
vt 0.794517 0.000556
vt 0.795347 0.000314
vt 0.794443 0.000356
vt 0.795294 0.000104
vt 0.508258 0.375149
vt 0.507355 0.375107
vt 0.796187 0.000219
vt 0.796187 0.000009
vt 0.509151 0.375180
vt 0.459221 0.374886
vt 0.458328 0.374886
vt 0.797091 0.000104
vt 0.797049 0.000314
vt 0.796986 0.000608
vt 0.796187 0.000535
vt 0.797574 0.001239
vt 0.797732 0.000839
vt 0.797858 0.000545
vt 0.798614 0.000955
vt 0.798446 0.001228
vt 0.798215 0.001564
vt 0.797952 0.000356
vt 0.798730 0.000776
vt 0.461027 0.374844
vt 0.460124 0.374876
vt 0.799276 0.001501
vt 0.799423 0.001354
vt 0.461931 0.374792
vt 0.799045 0.001732
vt 0.798751 0.002016
s 1
f 1/1/1 2/2/2 7/3/3 5/4/4
f 3/5/5 232/6/6 2/7/2 1/8/1
f 1/8/1 4/9/7 101/10/8 3/5/5
f 5/4/4 8/11/9 4/12/7 1/1/1
f 10/13/10 8/11/9 5/4/4 6/14/11
f 6/14/11 5/4/4 7/3/3 162/15/12
f 235/16/13 4/12/7 8/11/9 9/17/14
f 11/18/15 9/17/14 8/11/9 10/13/10
f 12/19/16 13/20/17 9/17/14 11/18/15
f 14/21/18 15/22/19 13/20/17 12/19/16
f 16/23/20 17/24/21 15/22/19 14/21/18
f 18/25/22 19/26/23 17/24/21 16/23/20
f 20/27/24 21/28/25 19/26/23 18/25/22
f 22/29/26 23/30/27 21/28/25 20/27/24
f 24/31/28 25/32/29 23/30/27 22/29/26
f 26/33/30 27/34/31 25/32/29 24/31/28
f 28/35/32 29/36/33 27/34/31 26/33/30
f 30/37/34 31/38/35 29/36/33 28/35/32
f 32/39/36 33/40/37 31/41/35 30/42/34
f 34/43/38 35/44/39 33/40/37 32/39/36
f 36/45/40 37/46/41 35/44/39 34/43/38
f 38/47/42 39/48/43 37/46/41 36/45/40
f 40/49/44 41/50/45 39/48/43 38/47/42
f 42/51/46 44/52/47 41/50/45 40/49/44
f 42/51/46 43/53/48 45/54/49 44/52/47
f 44/52/47 45/54/49 49/55/50 46/56/51
f 46/56/51 47/57/52 41/50/45 44/52/47
f 48/58/53 287/59/54 47/60/52 46/61/51
f 49/62/50 51/63/55 48/58/53 46/61/51
f 50/64/56 49/55/50 45/54/49 137/65/57
f 50/66/56 52/67/58 51/63/55 49/62/50
f 53/68/59 51/63/55 52/67/58 55/69/60
f 56/70/61 48/58/53 51/63/55 53/68/59
f 53/68/59 54/71/62 58/72/63 56/70/61
f 55/69/60 124/73/64 54/71/62 53/68/59
f 56/70/61 57/74/65 287/59/54 48/58/53
f 58/72/63 59/75/66 57/74/65 56/70/61
f 60/76/67 61/77/68 59/75/66 58/72/63
f 60/76/67 58/72/63 54/71/62 63/78/69
f 60/76/67 62/79/70 252/80/71 61/77/68
f 63/78/69 65/81/72 62/79/70 60/76/67
f 63/78/69 54/71/62 124/73/64 64/82/73
f 64/82/73 66/83/74 65/81/72 63/78/69
f 67/84/75 65/81/72 66/83/74 69/85/76
f 68/86/77 62/79/70 65/81/72 67/84/75
f 67/84/75 70/87/78 72/88/79 68/86/77
f 69/85/76 71/89/80 70/87/78 67/84/75
f 73/90/81 70/87/78 71/89/80 75/91/82
f 76/92/83 72/88/79 70/87/78 73/90/81
f 76/92/83 73/90/81 74/93/84 78/94/85
f 234/95/86 74/93/84 73/90/81 75/91/82
f 77/96/87 250/97/88 72/88/79 76/92/83
f 78/94/85 79/98/89 77/96/87 76/92/83
f 80/99/90 81/100/91 79/98/89 78/94/85
f 78/94/85 74/93/84 82/101/92 80/99/90
f 83/102/93 84/103/94 81/100/91 80/99/90
f 80/99/90 82/101/92 86/104/95 83/102/93
f 85/105/96 236/106/97 84/103/94 83/102/93
f 83/102/93 86/104/95 87/107/98 85/105/96
f 88/108/99 86/104/95 82/101/92 90/109/100
f 89/110/101 87/107/98 86/104/95 88/108/99
f 89/110/101 88/108/99 91/111/102 92/112/103
f 94/113/104 91/111/102 88/108/99 90/109/100
f 92/112/103 91/111/102 93/114/105 235/115/13
f 96/116/106 93/114/105 91/111/102 94/113/104
f 96/116/106 94/113/104 95/117/107 97/118/108
f 234/95/86 95/117/107 94/113/104 90/109/100
f 97/118/108 100/119/109 98/120/110 96/116/106
f 96/116/106 98/120/110 101/10/8 93/114/105
f 3/5/5 101/10/8 98/120/110 99/121/111
f 99/121/111 98/120/110 100/119/109 102/122/112
f 93/114/105 101/10/8 4/9/7 235/115/13
f 102/122/112 100/119/109 103/123/113 104/124/114
f 105/125/115 103/123/113 100/119/109 97/118/108
f 103/123/113 106/126/116 107/127/117 104/124/114
f 105/125/115 109/128/118 106/126/116 103/123/113
f 193/129/119 107/127/117 106/126/116 108/130/120
f 108/130/120 106/126/116 109/128/118 110/131/121
f 109/128/118 111/132/122 112/133/123 110/131/121
f 105/125/115 113/134/124 111/132/122 109/128/118
f 69/85/76 112/133/123 111/132/122 71/89/80
f 71/89/80 111/132/122 113/134/124 75/91/82
f 75/91/82 113/134/124 95/117/107 234/95/86
f 97/118/108 95/117/107 113/134/124 105/125/115
f 110/131/121 112/133/123 114/135/125 116/136/126
f 66/83/74 114/135/125 112/133/123 69/85/76
f 116/136/126 114/135/125 115/137/127 118/138/128
f 64/82/73 115/137/127 114/135/125 66/83/74
f 116/136/126 117/139/129 108/130/120 110/131/121
f 118/138/128 119/140/130 117/139/129 116/136/126
f 120/141/131 121/142/132 119/140/130 118/138/128
f 115/137/127 123/143/133 120/141/131 118/138/128
f 122/144/134 188/145/135 121/142/132 120/141/131
f 122/144/134 120/141/131 123/143/133 125/146/136
f 125/146/136 123/143/133 124/73/64 55/69/60
f 64/82/73 124/73/64 123/143/133 115/137/127
f 122/144/134 125/146/136 126/147/137 128/148/138
f 52/67/58 126/147/137 125/146/136 55/69/60
f 128/148/138 126/147/137 127/149/139 130/150/140
f 50/66/56 127/149/139 126/147/137 52/67/58
f 128/148/138 129/151/141 188/145/135 122/144/134
f 130/150/140 131/152/142 129/151/141 128/148/138
f 132/153/143 133/154/144 131/155/142 130/156/140
f 127/157/139 135/158/145 132/153/143 130/156/140
f 139/159/146 133/154/144 132/153/143 134/160/147
f 132/153/143 135/158/145 136/161/148 134/160/147
f 138/162/149 136/161/148 135/158/145 137/65/57
f 50/64/56 137/65/57 135/158/145 127/157/139
f 137/65/57 45/54/49 43/53/48 138/162/149
f 140/163/150 141/164/151 133/154/144 139/159/146
f 142/165/152 143/166/153 141/164/151 140/163/150
f 144/167/154 145/168/155 143/166/153 142/165/152
f 146/169/156 147/170/157 145/168/155 144/167/154
f 148/171/158 149/172/159 147/170/157 146/169/156
f 150/173/160 151/174/161 149/172/159 148/171/158
f 152/175/162 153/176/163 151/174/161 150/173/160
f 154/177/164 155/178/165 153/176/163 152/175/162
f 156/179/166 157/180/167 155/178/165 154/177/164
f 158/181/168 159/182/169 157/180/167 156/179/166
f 160/183/170 161/184/171 159/182/169 158/181/168
f 162/15/12 7/3/3 161/184/171 160/183/170
f 161/184/171 7/3/3 2/2/2 163/185/172
f 163/185/172 165/186/173 159/182/169 161/184/171
f 163/187/172 2/7/2 232/6/6 164/188/174
f 164/188/174 166/189/175 165/190/173 163/187/172
f 167/191/176 165/190/173 166/189/175 168/192/177
f 157/180/167 159/182/169 165/186/173 167/193/176
f 168/192/177 170/194/178 169/195/179 167/191/176
f 167/193/176 169/196/179 155/178/165 157/180/167
f 171/197/180 169/195/179 170/194/178 172/198/181
f 153/176/163 155/178/165 169/196/179 171/199/180
f 172/198/181 174/200/182 173/201/183 171/197/180
f 171/199/180 173/202/183 151/174/161 153/176/163
f 175/203/184 173/201/183 174/200/182 176/204/185
f 149/172/159 151/174/161 173/202/183 175/205/184
f 176/204/185 178/206/186 177/207/187 175/203/184
f 175/205/184 177/208/187 147/170/157 149/172/159
f 179/209/188 177/207/187 178/206/186 180/210/189
f 145/168/155 147/170/157 177/208/187 179/211/188
f 180/210/189 182/212/190 181/213/191 179/209/188
f 179/211/188 181/214/191 143/166/153 145/168/155
f 183/215/192 181/213/191 182/212/190 184/216/193
f 141/164/151 143/166/153 181/214/191 183/217/192
f 184/216/193 129/151/141 131/152/142 183/215/192
f 183/217/192 131/155/142 133/154/144 141/164/151
f 184/216/193 182/212/190 186/218/194 185/219/195
f 185/219/195 188/145/135 129/151/141 184/216/193
f 185/219/195 186/218/194 189/220/196 187/221/197
f 187/221/197 121/142/132 188/145/135 185/219/195
f 187/221/197 189/220/196 191/222/198 190/223/199
f 190/223/199 119/140/130 121/142/132 187/221/197
f 191/222/198 194/224/200 192/225/201 190/223/199
f 192/225/201 117/139/129 119/140/130 190/223/199
f 193/129/119 108/130/120 117/139/129 192/225/201
f 193/129/119 192/225/201 194/224/200 195/226/202
f 195/226/202 194/224/200 196/227/203 197/228/204
f 198/229/205 196/227/203 194/224/200 191/222/198
f 196/227/203 199/230/206 200/231/207 197/228/204
f 198/229/205 202/232/208 199/230/206 196/227/203
f 216/233/209 200/231/207 199/230/206 201/234/210
f 201/234/210 199/230/206 202/232/208 204/235/211
f 204/235/211 202/232/208 203/236/212 205/237/213
f 211/238/214 203/236/212 202/232/208 198/229/205
f 205/237/213 206/239/215 201/234/210 204/235/211
f 207/240/216 208/241/217 206/239/215 205/237/213
f 205/237/213 203/236/212 209/242/218 207/240/216
f 176/204/185 174/200/182 208/241/217 207/240/216
f 207/240/216 209/242/218 178/206/186 176/204/185
f 180/210/189 178/206/186 209/242/218 210/243/219
f 210/243/219 209/242/218 203/236/212 211/238/214
f 211/238/214 189/220/196 186/218/194 210/243/219
f 210/243/219 186/218/194 182/212/190 180/210/189
f 198/229/205 191/222/198 189/220/196 211/238/214
f 214/244/220 206/239/215 208/241/217 212/245/221
f 212/245/221 208/241/217 174/200/182 172/198/181
f 172/198/181 170/194/178 213/246/222 212/245/221
f 212/245/221 213/246/222 215/247/223 214/244/220
f 214/244/220 215/247/223 217/248/224 216/233/209
f 216/233/209 201/234/210 206/239/215 214/244/220
f 216/233/209 217/248/224 219/249/225 200/231/207
f 218/250/226 217/248/224 215/247/223 231/251/227
f 221/252/228 219/249/225 217/248/224 218/250/226
f 200/231/207 219/249/225 220/253/229 197/228/204
f 223/254/230 220/253/229 219/249/225 221/252/228
f 223/254/230 221/252/228 222/255/231 225/256/232
f 231/251/227 222/255/231 221/252/228 218/250/226
f 225/256/232 226/257/233 224/258/234 223/254/230
f 223/254/230 224/258/234 233/259/235 220/253/229
f 227/260/236 228/261/237 226/257/233 225/256/232
f 225/256/232 222/255/231 229/262/238 227/260/236
f 164/188/174 232/6/6 228/261/237 227/260/236
f 227/260/236 229/262/238 166/189/175 164/188/174
f 168/192/177 166/189/175 229/262/238 230/263/239
f 230/263/239 229/262/238 222/255/231 231/251/227
f 231/251/227 215/247/223 213/246/222 230/263/239
f 230/263/239 213/246/222 170/194/178 168/192/177
f 102/122/112 226/257/233 228/261/237 99/121/111
f 99/121/111 228/261/237 232/6/6 3/5/5
f 104/124/114 224/258/234 226/257/233 102/122/112
f 107/127/117 233/259/235 224/258/234 104/124/114
f 220/253/229 233/259/235 195/226/202 197/228/204
f 193/129/119 195/226/202 233/259/235 107/127/117
f 90/109/100 82/101/92 74/93/84 234/95/86
f 9/17/14 13/20/17 92/264/103 235/16/13
f 89/265/101 92/264/103 13/20/17 15/22/19
f 89/265/101 15/22/19 17/24/21 87/266/98
f 87/266/98 17/24/21 19/26/23 85/267/96
f 19/26/23 21/28/25 236/268/97 85/267/96
f 239/269/240 84/103/94 236/106/97 237/270/241
f 237/271/241 236/268/97 21/28/25 23/30/27
f 23/30/27 25/32/29 238/272/242 237/271/241
f 237/270/241 238/273/242 240/274/243 239/269/240
f 239/269/240 240/274/243 242/275/244 241/276/245
f 241/276/245 81/100/91 84/103/94 239/269/240
f 241/276/245 242/275/244 244/277/246 243/278/247
f 243/278/247 79/98/89 81/100/91 241/276/245
f 243/278/247 244/277/246 246/279/248 245/280/249
f 245/280/249 77/96/87 79/98/89 243/278/247
f 246/279/248 249/281/250 247/282/251 245/280/249
f 245/280/249 247/282/251 250/97/88 77/96/87
f 251/283/252 250/97/88 247/282/251 248/284/253
f 248/284/253 247/282/251 249/281/250 258/285/254
f 68/86/77 72/88/79 250/97/88 251/283/252
f 251/283/252 252/80/71 62/79/70 68/86/77
f 248/284/253 253/286/255 252/80/71 251/283/252
f 61/77/68 252/80/71 253/286/255 254/287/256
f 254/287/256 253/286/255 255/288/257 256/289/258
f 258/285/254 255/288/257 253/286/255 248/284/253
f 256/289/258 255/288/257 257/290/259 291/291/260
f 259/292/261 257/290/259 255/288/257 258/285/254
f 258/285/254 249/281/250 261/293/262 259/292/261
f 260/294/263 277/295/264 257/290/259 259/292/261
f 259/292/261 261/293/262 262/296/265 260/294/263
f 264/297/266 262/296/265 261/293/262 263/298/267
f 263/298/267 261/293/262 249/281/250 246/279/248
f 263/298/267 246/279/248 244/277/246 264/297/266
f 265/299/268 266/300/269 262/296/265 264/297/266
f 264/297/266 244/277/246 242/275/244 265/299/268
f 267/301/270 268/302/271 266/300/269 265/299/268
f 265/299/268 242/275/244 240/274/243 267/301/270
f 269/303/272 270/304/273 268/302/271 267/301/270
f 267/301/270 240/274/243 238/273/242 269/303/272
f 27/34/31 29/36/33 270/305/273 269/306/272
f 269/306/272 238/272/242 25/32/29 27/34/31
f 273/307/274 268/302/271 270/304/273 271/308/275
f 271/309/275 270/305/273 29/36/33 31/38/35
f 31/41/35 33/40/37 272/310/276 271/311/275
f 271/308/275 272/312/276 274/313/277 273/307/274
f 273/307/274 274/313/277 276/314/278 275/315/279
f 275/315/279 266/300/269 268/302/271 273/307/274
f 275/315/279 276/314/278 277/295/264 260/294/263
f 260/294/263 262/296/265 266/300/269 275/315/279
f 280/316/280 277/295/264 276/314/278 278/317/281
f 278/317/281 276/314/278 274/313/277 281/318/282
f 281/318/282 282/319/283 279/320/284 278/317/281
f 278/317/281 279/320/284 290/321/285 280/316/280
f 283/322/286 284/323/287 282/319/283 281/318/282
f 281/318/282 274/313/277 272/312/276 283/322/286
f 35/44/39 37/46/41 284/324/287 283/325/286
f 283/325/286 272/310/276 33/40/37 35/44/39
f 286/326/288 282/319/283 284/323/287 285/327/289
f 285/328/289 284/324/287 37/46/41 39/48/43
f 39/48/43 41/50/45 47/57/52 285/328/289
f 285/327/289 47/60/52 287/59/54 286/326/288
f 286/326/288 287/59/54 57/74/65 288/329/290
f 288/329/290 279/320/284 282/319/283 286/326/288
f 288/329/290 57/74/65 59/75/66 289/330/291
f 289/330/291 290/321/285 279/320/284 288/329/290
f 289/330/291 59/75/66 61/77/68 254/287/256
f 254/287/256 256/289/258 290/321/285 289/330/291
f 280/316/280 290/321/285 256/289/258 291/291/260
f 291/291/260 257/290/259 277/295/264 280/316/280
