# Blender 4.5.3 LTS
# www.blender.org
o Decal-Joystick-Left-Ring
v -34.366644 -28.775099 -0.100234
v -33.703509 -28.775099 3.233558
v -33.683471 -29.621243 3.225251
v -34.344941 -29.621243 -0.100234
v -31.815070 -28.775099 6.059810
v -31.799729 -29.621243 6.044461
v -28.988825 -28.775099 7.948249
v -28.980515 -29.621243 7.928199
v -25.655034 -28.775099 8.611380
v -25.655034 -29.621243 8.589680
v -22.321244 -28.775099 7.948249
v -22.329550 -29.621243 7.928199
v -19.494993 -28.775099 6.059810
v -19.510338 -29.621243 6.044461
v -17.606552 -28.775099 3.233558
v -17.626598 -29.621243 3.225255
v -16.943411 -28.775103 -0.100234
v -16.965121 -29.621243 -0.100230
v -17.606547 -28.775099 -3.434022
v -17.626594 -29.621243 -3.425718
v -19.494986 -28.775099 -6.260273
v -19.510338 -29.621243 -6.244929
v -22.321244 -28.775099 -8.148712
v -22.329552 -29.621243 -8.128663
v -25.655034 -28.775099 -8.811844
v -25.655029 -29.621243 -8.790144
v -28.988825 -28.775099 -8.148712
v -28.980519 -29.621243 -8.128663
v -31.815078 -28.775099 -6.260269
v -31.799729 -29.621243 -6.244925
v -33.703509 -28.775099 -3.434022
v -33.683463 -29.621243 -3.425715
v -33.132407 -31.997123 -0.100208
v -32.563231 -31.997123 2.761259
v -32.155036 -32.093347 2.592179
v -32.690580 -32.093347 -0.100208
v -30.942339 -31.997130 5.187097
v -30.629921 -32.093347 4.874672
v -28.516506 -31.997123 6.807986
v -28.347428 -32.093347 6.399787
v -25.655040 -31.997123 7.377169
v -25.655046 -32.093347 6.935335
v -22.793578 -31.997123 6.807989
v -22.962659 -32.093347 6.399787
v -20.367739 -31.997130 5.187097
v -20.680166 -32.093347 4.874672
v -18.746843 -31.997123 2.761262
v -19.155047 -32.093347 2.592179
v -18.177667 -31.997123 -0.100208
v -18.619503 -32.093347 -0.100208
v -18.746847 -31.997127 -2.961674
v -19.155047 -32.093351 -2.792590
v -20.367739 -31.997127 -5.387508
v -20.680161 -32.093351 -5.075087
v -22.793578 -31.997127 -7.008401
v -22.962654 -32.093351 -6.600202
v -25.655040 -31.997127 -7.577580
v -25.655046 -32.093351 -7.135750
v -28.516504 -31.997127 -7.008401
v -28.347436 -32.093351 -6.600202
v -30.942339 -31.997127 -5.387508
v -30.629921 -32.093351 -5.075087
v -32.563231 -31.997127 -2.961670
v -32.155036 -32.093351 -2.792590
v -30.763052 -31.529141 -0.100222
v -30.374212 -31.529048 1.854516
v -29.266936 -31.529044 3.511670
v -27.609780 -31.529044 4.618945
v -25.655034 -31.529044 5.007769
v -23.700289 -31.529044 4.618945
v -22.043138 -31.529044 3.511670
v -20.935855 -31.529104 1.854527
v -20.546985 -31.529834 -0.100178
v -20.935647 -31.532099 -2.055009
v -22.042945 -31.532885 -3.712305
v -23.700183 -31.532982 -4.819655
v -25.655034 -31.532989 -5.208497
v -27.609890 -31.532922 -4.819647
v -29.267123 -31.532192 -3.712249
v -30.374288 -31.529927 -2.054949
v -31.853124 -32.061980 -0.100226
v -31.381323 -32.061980 2.271677
v -31.026385 -31.845291 2.124662
v -31.468946 -31.845291 -0.100230
v -30.037740 -32.061980 4.282481
v -29.766084 -31.845291 4.010829
v -28.026936 -32.061980 5.626059
v -27.879923 -31.845291 5.271128
v -25.655034 -32.061980 6.097860
v -25.655034 -31.845291 5.713685
v -23.283131 -32.061980 5.626059
v -23.430150 -31.845291 5.271128
v -21.272327 -32.061980 4.282481
v -21.543977 -31.845291 4.010829
v -19.928749 -32.061980 2.271677
v -20.283676 -31.845291 2.124662
v -19.456947 -32.061980 -0.100226
v -19.841119 -31.845291 -0.100226
v -19.928749 -32.061984 -2.472133
v -20.283676 -31.845295 -2.325115
v -21.272327 -32.061984 -4.482937
v -21.543977 -31.845295 -4.211285
v -23.283131 -32.061984 -5.826515
v -23.430150 -31.845295 -5.471584
v -25.655034 -32.061984 -6.298316
v -25.655029 -31.845295 -5.914145
v -28.026936 -32.061984 -5.826515
v -27.879923 -31.845295 -5.471584
v -30.037753 -32.061984 -4.482937
v -29.766092 -31.845295 -4.211285
v -31.381312 -32.061984 -2.472130
v -31.026385 -31.845295 -2.325115
v -30.708907 -31.616536 1.993156
v -31.125316 -31.616536 -0.100230
v -29.523097 -31.616536 3.767843
v -27.748413 -31.616536 4.953648
v -25.655034 -31.616536 5.370050
v -23.561654 -31.616536 4.953648
v -21.786971 -31.616536 3.767840
v -20.601159 -31.616536 1.993156
v -20.184753 -31.616536 -0.100226
v -20.601159 -31.616540 -2.193612
v -21.786969 -31.616540 -3.968299
v -23.561656 -31.616540 -5.154108
v -25.655034 -31.616540 -5.570506
v -27.748419 -31.616540 -5.154108
v -29.523100 -31.616540 -3.968299
v -30.708914 -31.616540 -2.193612
v -33.405441 -30.508249 3.110095
v -34.044005 -30.508249 -0.100226
v -31.586933 -30.508249 5.831676
v -28.865356 -30.508249 7.650181
v -25.655034 -30.508249 8.288755
v -22.444713 -30.508249 7.650181
v -19.723130 -30.508249 5.831676
v -17.904622 -30.508249 3.110095
v -17.266053 -30.508249 -0.100226
v -17.904622 -30.508257 -3.310551
v -19.723126 -30.508257 -6.032133
v -22.444713 -30.508257 -7.850633
v -25.655034 -30.508257 -8.489204
v -28.865359 -30.508257 -7.850633
v -31.586945 -30.508249 -6.032133
v -33.405438 -30.508249 -3.310547
v -33.021919 -31.333474 2.951241
v -33.628884 -31.333474 -0.100219
v -31.293399 -31.333477 5.538146
v -28.706500 -31.333474 7.266662
v -25.655034 -31.333474 7.873635
v -22.603580 -31.333474 7.266662
v -20.016674 -31.333477 5.538146
v -18.288159 -31.333474 2.951245
v -17.681187 -31.333474 -0.100219
v -18.288159 -31.333477 -3.151679
v -20.016674 -31.333477 -5.738583
v -22.603580 -31.333481 -7.467096
v -25.655040 -31.333477 -8.074069
v -28.706492 -31.333481 -7.467096
v -31.293407 -31.333477 -5.738583
v -33.021919 -31.333477 -3.151679
v -31.788937 -32.093347 2.440522
v -32.294318 -32.093347 -0.100226
v -30.349720 -32.093347 4.594463
v -28.195779 -32.093347 6.033680
v -25.655038 -32.093347 6.539068
v -23.114293 -32.093347 6.033680
v -20.960355 -32.093347 4.594463
v -19.521130 -32.093347 2.440522
v -19.015742 -32.093347 -0.100226
v -19.521134 -32.093351 -2.640971
v -20.960351 -32.093351 -4.794912
v -23.114293 -32.093351 -6.234129
v -25.655038 -32.093351 -6.739513
v -28.195779 -32.093351 -6.234129
v -30.349712 -32.093351 -4.794912
v -31.788934 -32.093351 -2.640967
v -34.286782 -29.142863 1.616730
v -32.972674 -29.142863 4.789262
v -30.544526 -29.142863 7.217414
v -27.371995 -29.142863 8.531521
v -23.938069 -29.142863 8.531517
v -20.765541 -29.142863 7.217414
v -18.337387 -29.142863 4.789262
v -17.023276 -29.142863 1.616730
v -17.023276 -29.142863 -1.817194
v -18.337382 -29.142863 -4.989726
v -20.765535 -29.142863 -7.417877
v -23.938069 -29.142863 -8.731985
v -27.371995 -29.142863 -8.731985
v -30.544526 -29.142863 -7.417877
v -32.972682 -29.142863 -4.989726
v -34.286782 -29.142863 -1.817194
v -32.760854 -32.092915 1.313227
v -31.679060 -32.092915 3.924913
v -29.680158 -32.092915 5.923810
v -27.068475 -32.092915 7.005605
v -24.241613 -32.092915 7.005605
v -21.629925 -32.092915 5.923810
v -19.631028 -32.092915 3.924913
v -18.549233 -32.092915 1.313227
v -18.549233 -32.092919 -1.513639
v -19.631028 -32.092919 -4.125320
v -21.629925 -32.092919 -6.124218
v -24.241609 -32.092919 -7.206013
v -27.068475 -32.092919 -7.206013
v -29.680168 -32.092919 -6.124218
v -31.679060 -32.092919 -4.125320
v -32.760854 -32.092919 -1.513639
v -31.537685 -31.968453 1.069902
v -30.642107 -31.968453 3.232027
v -28.987286 -31.968453 4.886842
v -26.825171 -31.968453 5.782424
v -24.484904 -31.968453 5.782424
v -22.322781 -31.968453 4.886842
v -20.667962 -31.968453 3.232027
v -19.772382 -31.968453 1.069906
v -19.772382 -31.968457 -1.270359
v -20.667962 -31.968457 -3.432480
v -22.322781 -31.968457 -5.087298
v -24.484904 -31.968457 -5.982881
v -26.825171 -31.968457 -5.982881
v -28.987286 -31.968457 -5.087298
v -30.642099 -31.968457 -3.432480
v -31.537685 -31.968457 -1.270359
v -30.913742 -31.544228 0.945794
v -30.113153 -31.544228 2.878590
v -28.633855 -31.544228 4.357888
v -26.701059 -31.544228 5.158479
v -24.609016 -31.544228 5.158479
v -22.676212 -31.544228 4.357888
v -21.196914 -31.544228 2.878590
v -20.396318 -31.544228 0.945794
v -20.396264 -31.544251 -1.146262
v -21.196812 -31.544273 -3.079114
v -22.676136 -31.544277 -4.558456
v -24.608990 -31.544277 -5.359070
v -26.701083 -31.544277 -5.359070
v -28.633922 -31.544273 -4.558449
v -30.113210 -31.544251 -3.079084
v -30.913751 -31.544232 -1.146250
v -34.042187 -30.073530 1.568078
v -32.765325 -30.073530 4.650711
v -30.405974 -30.073530 7.010057
v -27.323344 -30.073530 8.286926
v -23.986723 -30.073530 8.286926
v -20.904086 -30.073530 7.010057
v -18.544744 -30.073530 4.650711
v -17.267879 -30.073530 1.568078
v -17.267873 -30.073530 -1.768538
v -18.544748 -30.073530 -4.851171
v -20.904086 -30.073530 -7.210516
v -23.986723 -30.073530 -8.487386
v -27.323344 -30.073530 -8.487386
v -30.405974 -30.073530 -7.210516
v -32.765314 -30.073530 -4.851171
v -34.042187 -30.073530 -1.768538
v -33.232692 -31.715852 1.407078
v -32.079063 -31.715852 4.192184
v -29.947435 -31.715849 6.323813
v -27.162328 -31.715849 7.477446
v -24.147752 -31.715852 7.477446
v -21.362643 -31.715852 6.323817
v -19.231015 -31.715852 4.192187
v -18.077382 -31.715852 1.407078
v -18.077382 -31.715856 -1.607501
v -19.231012 -31.715856 -4.392606
v -21.362643 -31.715856 -6.524236
v -24.147752 -31.715856 -7.677869
v -27.162328 -31.715856 -7.677869
v -29.947435 -31.715856 -6.524236
v -32.079063 -31.715856 -4.392606
v -33.232692 -31.715856 -1.607501
v -31.175935 -31.722942 0.997945
v -30.335422 -31.722949 3.027110
v -28.782369 -31.722949 4.580165
v -26.753209 -31.722949 5.420669
v -24.556862 -31.722949 5.420669
v -22.527698 -31.722949 4.580165
v -20.974639 -31.722949 3.027110
v -20.134139 -31.722942 0.997948
v -20.134139 -31.722945 -1.198401
v -20.974639 -31.722945 -3.227563
v -22.527698 -31.722945 -4.780618
v -24.556858 -31.722945 -5.621129
v -26.753209 -31.722953 -5.621129
v -28.782373 -31.722953 -4.780618
v -30.335428 -31.722945 -3.227563
v -31.175935 -31.722945 -1.198401
v -31.949766 -32.093302 1.151874
v -30.991461 -32.093302 3.465454
v -29.220722 -32.093302 5.236193
v -26.907136 -32.093302 6.194512
v -24.402936 -32.093302 6.194512
v -22.089351 -32.093302 5.236193
v -20.318616 -32.093302 3.465454
v -19.360296 -32.093302 1.151874
v -19.360296 -32.093306 -1.352330
v -20.318616 -32.093306 -3.665910
v -22.089351 -32.093306 -5.436649
v -24.402936 -32.093306 -6.394968
v -26.907136 -32.093306 -6.394968
v -29.220722 -32.093306 -5.436649
v -30.991461 -32.093306 -3.665910
v -31.949766 -32.093306 -1.352326
v -32.361768 -32.093347 1.233837
v -31.340736 -32.093347 3.698843
v -29.454099 -32.093347 5.585479
v -26.989091 -32.093347 6.606518
v -24.320984 -32.093347 6.606518
v -21.855982 -32.093347 5.585479
v -19.969347 -32.093347 3.698843
v -18.948303 -32.093347 1.233837
v -18.948303 -32.093351 -1.434268
v -19.969344 -32.093351 -3.899277
v -21.855976 -32.093351 -5.785913
v -24.320984 -32.093351 -6.806952
v -26.989094 -32.093351 -6.806952
v -29.454102 -32.093351 -5.785910
v -31.340733 -32.093351 -3.899274
v -32.361768 -32.093351 -1.434268
v -33.691093 -30.929699 1.498247
v -32.467674 -30.929699 4.451840
v -30.207099 -30.929699 6.712421
v -27.253506 -30.929699 7.935840
v -24.056563 -30.929699 7.935840
v -21.102968 -30.929699 6.712421
v -18.842391 -30.929699 4.451840
v -17.618972 -30.929699 1.498247
v -17.618970 -30.929699 -1.698692
v -18.842391 -30.929699 -4.652285
v -21.102968 -30.929699 -6.912866
v -24.056563 -30.929699 -8.136285
v -27.253508 -30.929699 -8.136285
v -30.207099 -30.929699 -6.912866
v -32.467674 -30.929699 -4.652285
v -33.691093 -30.929699 -1.698696
v -34.197647 -28.775103 1.598998
v -33.787492 -29.142863 3.268341
v -34.176372 -29.621239 1.594766
v -34.457542 -29.142863 -0.100234
v -32.897111 -28.775103 4.738773
v -31.879350 -29.142863 6.124082
v -32.879073 -29.621239 4.726718
v -30.494034 -28.775103 7.141850
v -29.023610 -29.142863 8.032228
v -30.481981 -29.621243 7.123808
v -27.354262 -28.775103 8.442386
v -25.655029 -29.142863 8.702281
v -27.350034 -29.621239 8.421107
v -23.955801 -28.775103 8.442386
v -22.286456 -29.142863 8.032228
v -23.960033 -29.621239 8.421107
v -20.816033 -28.775103 7.141850
v -19.430721 -29.142863 6.124082
v -20.828083 -29.621239 7.123808
v -18.412951 -28.775103 4.738773
v -17.522573 -29.142863 3.268341
v -18.430991 -29.621243 4.726718
v -17.112411 -28.775103 1.599002
v -16.852520 -29.142863 -0.100234
v -17.133692 -29.621243 1.594766
v -17.112411 -28.775103 -1.799465
v -17.522569 -29.142863 -3.468809
v -17.133692 -29.621243 -1.795230
v -18.412947 -28.775103 -4.939237
v -19.430713 -29.142863 -6.324549
v -18.430991 -29.621243 -4.927182
v -20.816028 -28.775103 -7.342313
v -22.286456 -29.142863 -8.232691
v -20.828083 -29.621243 -7.324272
v -23.955801 -28.775103 -8.642850
v -25.655029 -29.142863 -8.902741
v -23.960033 -29.621243 -8.621567
v -27.354262 -28.775103 -8.642850
v -29.023610 -29.142863 -8.232691
v -27.350034 -29.621243 -8.621567
v -30.494043 -28.775103 -7.342313
v -31.879350 -29.142863 -6.324546
v -30.481981 -29.621243 -7.324272
v -32.897118 -28.775103 -4.939233
v -33.787492 -29.142863 -3.468805
v -32.879073 -29.621243 -4.927182
v -34.197647 -28.775103 -1.799465
v -34.176372 -29.621243 -1.795230
v -32.987359 -31.997123 1.358281
v -32.349828 -32.092915 2.672869
v -32.554101 -32.093347 1.272100
v -32.901432 -32.092915 -0.100204
v -31.871076 -31.997123 4.053219
v -30.779017 -32.092915 5.023765
v -31.503789 -32.093347 3.807793
v -29.808467 -31.997123 6.115834
v -28.428113 -32.092915 6.594586
v -29.563043 -32.093347 5.748532
v -27.113536 -31.997123 7.232114
v -25.655040 -32.092915 7.146182
v -27.027348 -32.093347 6.798851
v -24.196554 -31.997123 7.232114
v -22.881967 -32.092915 6.594586
v -24.282734 -32.093347 6.798851
v -21.501615 -31.997123 6.115834
v -20.531073 -32.092915 5.023765
v -21.747043 -32.093347 5.748532
v -19.439004 -31.997123 4.053219
v -18.960250 -32.092915 2.672869
v -19.806304 -32.093347 3.807793
v -18.322724 -31.997123 1.358281
v -18.408656 -32.092915 -0.100204
v -18.755985 -32.093347 1.272100
v -18.322724 -31.997127 -1.558696
v -18.960254 -32.092919 -2.873276
v -18.755985 -32.093351 -1.472515
v -19.439000 -31.997127 -4.253631
v -20.531073 -32.092919 -5.224173
v -19.806297 -32.093351 -4.008208
v -21.501613 -31.997127 -6.316246
v -22.881967 -32.092919 -6.794994
v -21.747039 -32.093351 -5.948947
v -24.196554 -31.997127 -7.432525
v -25.655040 -32.092919 -7.346590
v -24.282734 -32.093351 -6.999266
v -27.113536 -31.997127 -7.432525
v -28.428118 -32.092919 -6.794994
v -27.027348 -32.093351 -6.999266
v -29.808467 -31.997127 -6.316246
v -30.779017 -32.092919 -5.224173
v -29.563050 -32.093351 -5.948947
v -31.871076 -31.997127 -4.253631
v -32.349828 -32.092919 -2.873276
v -31.503789 -32.093351 -4.008208
v -32.987359 -31.997127 -1.558696
v -32.554101 -32.093351 -1.472515
v -30.663942 -31.529063 0.896106
v -29.901377 -31.529044 2.737089
v -28.492353 -31.529044 4.146117
v -26.651365 -31.529044 4.908676
v -24.658702 -31.529044 4.908676
v -22.817719 -31.529044 4.146113
v -21.408693 -31.529044 2.737089
v -20.646121 -31.529294 0.896132
v -20.645991 -31.530966 -1.096529
v -21.408464 -31.532669 -2.937661
v -22.817567 -31.532970 -4.346796
v -24.658650 -31.532989 -5.109401
v -26.651423 -31.532989 -5.109401
v -28.492517 -31.532743 -4.346770
v -29.901528 -31.531063 -2.937575
v -30.663967 -31.529357 -1.096540
v -31.732879 -32.061980 1.108731
v -31.197425 -31.968457 2.195503
v -31.356163 -31.845291 1.033797
v -31.654063 -31.968453 -0.100226
v -30.807584 -32.061980 3.342594
v -29.896987 -31.968453 4.141728
v -30.488207 -31.845291 3.129202
v -29.097855 -32.061980 5.052320
v -27.950767 -31.968453 5.442153
v -28.884459 -31.845291 4.732954
v -26.863997 -32.061980 5.977618
v -25.655034 -31.968453 5.898806
v -26.789059 -31.845291 5.600898
v -24.446077 -32.061980 5.977618
v -23.359302 -31.968453 5.442153
v -24.521013 -31.845291 5.600898
v -22.212212 -32.061980 5.052320
v -21.413080 -31.968453 4.141728
v -22.425606 -31.845291 4.732951
v -20.502490 -32.061980 3.342594
v -20.112650 -31.968453 2.195503
v -20.821856 -31.845291 3.129198
v -19.577190 -32.061980 1.108731
v -19.656002 -31.968453 -0.100226
v -19.953906 -31.845291 1.033797
v -19.577190 -32.061984 -1.309184
v -20.112650 -31.968457 -2.395959
v -19.953906 -31.845295 -1.234253
v -20.502490 -32.061984 -3.543050
v -21.413080 -31.968457 -4.342184
v -20.821856 -31.845295 -3.329654
v -22.212212 -32.061984 -5.252776
v -23.359302 -31.968457 -5.642613
v -22.425606 -31.845295 -4.933410
v -24.446077 -32.061984 -6.178075
v -25.655034 -31.968457 -6.099262
v -24.521010 -31.845295 -5.801355
v -26.863997 -32.061984 -6.178075
v -27.950767 -31.968457 -5.642613
v -26.789059 -31.845295 -5.801355
v -29.097855 -32.061984 -5.252776
v -29.896987 -31.968457 -4.342184
v -28.884463 -31.845295 -4.933407
v -30.807584 -32.061984 -3.543046
v -31.197425 -31.968457 -2.395955
v -30.488207 -31.845295 -3.329654
v -31.732879 -32.061984 -1.309184
v -31.356163 -31.845295 -1.234249
v -30.609564 -31.544224 1.952003
v -31.017778 -31.544228 -0.100230
v -31.019192 -31.616536 0.966768
v -29.447065 -31.544224 3.691799
v -30.202543 -31.616536 2.938322
v -27.707267 -31.544224 4.854294
v -28.693582 -31.616536 4.447280
v -25.655034 -31.544224 5.262512
v -26.722030 -31.616536 5.263927
v -23.602804 -31.544224 4.854294
v -24.588039 -31.616536 5.263927
v -21.863009 -31.544224 3.691799
v -22.616487 -31.616536 4.447280
v -20.700505 -31.544224 1.952003
v -21.107524 -31.616536 2.938322
v -20.292272 -31.544236 -0.100226
v -20.290883 -31.616536 0.966768
v -20.700411 -31.544265 -2.152500
v -20.290883 -31.616540 -1.167224
v -21.862916 -31.544273 -3.892348
v -21.107524 -31.616540 -3.138778
v -23.602753 -31.544273 -5.054877
v -22.616479 -31.616540 -4.647740
v -25.655034 -31.544273 -5.463102
v -24.588039 -31.616540 -5.464383
v -27.707317 -31.544273 -5.054873
v -26.722030 -31.616540 -5.464383
v -29.447138 -31.544265 -3.892333
v -28.693582 -31.616540 -4.647740
v -30.609594 -31.544239 -2.152470
v -30.202543 -31.616540 -3.138778
v -31.019192 -31.616540 -1.167224
v -33.557053 -30.073530 3.172888
v -33.881276 -30.508249 1.536074
v -34.208111 -30.073530 -0.100230
v -31.702973 -30.073530 5.947708
v -32.628901 -30.508249 4.559564
v -28.928153 -30.073530 7.801781
v -30.314829 -30.508249 6.873644
v -25.655034 -30.073530 8.452847
v -27.291338 -30.508249 8.126016
v -22.381911 -30.073530 7.801781
v -24.018729 -30.508249 8.126016
v -19.607093 -30.073530 5.947708
v -20.995240 -30.508249 6.873644
v -17.753023 -30.073530 3.172888
v -18.681159 -30.508249 4.559564
v -17.101956 -30.073530 -0.100230
v -17.428791 -30.508249 1.536074
v -17.753023 -30.073530 -3.373348
v -17.428789 -30.508249 -1.736526
v -19.607093 -30.073530 -6.148168
v -18.681161 -30.508249 -4.760020
v -22.381914 -30.073530 -8.002241
v -20.995242 -30.508257 -7.074100
v -25.655034 -30.073530 -8.653306
v -24.018729 -30.508257 -8.326468
v -28.928151 -30.073530 -8.002241
v -27.291338 -30.508257 -8.326468
v -31.702965 -30.073530 -6.148168
v -30.314827 -30.508249 -7.074100
v -33.557046 -30.073530 -3.373348
v -32.628901 -30.508249 -4.760017
v -33.881265 -30.508249 -1.736526
v -32.794375 -31.715852 2.856999
v -33.382598 -31.715852 -0.100211
v -33.474203 -31.333474 1.455112
v -31.119251 -31.715852 5.364000
v -32.283809 -31.333474 4.328984
v -28.612246 -31.715852 7.039125
v -30.084241 -31.333474 6.528552
v -25.655040 -31.715852 7.627352
v -27.210364 -31.333474 7.718953
v -22.697830 -31.715852 7.039125
v -24.099707 -31.333474 7.718953
v -20.190827 -31.715852 5.364000
v -21.225834 -31.333474 6.528555
v -18.515702 -31.715852 2.856999
v -19.026268 -31.333474 4.328987
v -17.927479 -31.715852 -0.100211
v -17.835866 -31.333474 1.455112
v -18.515702 -31.715856 -3.057421
v -17.835866 -31.333477 -1.655546
v -20.190827 -31.715856 -5.564422
v -19.026264 -31.333477 -4.529421
v -22.697830 -31.715856 -7.239548
v -21.225834 -31.333477 -6.728989
v -25.655040 -31.715856 -7.827775
v -24.099707 -31.333481 -7.919387
v -28.612246 -31.715856 -7.239548
v -27.210364 -31.333481 -7.919387
v -31.119257 -31.715856 -5.564422
v -30.084241 -31.333477 -6.728989
v -32.794375 -31.715856 -3.057418
v -32.283809 -31.333477 -4.529421
v -33.474203 -31.333477 -1.655546
v -30.856588 -31.722942 2.054325
v -31.285155 -31.722942 -0.100230
v -29.636126 -31.722949 3.880869
v -27.809590 -31.722949 5.101326
v -25.655034 -31.722949 5.529894
v -23.500483 -31.722949 5.101326
v -21.673940 -31.722949 3.880869
v -20.453475 -31.722942 2.054325
v -20.024916 -31.722942 -0.100226
v -20.453475 -31.722945 -2.254781
v -21.673940 -31.722945 -4.081325
v -23.500483 -31.722945 -5.301782
v -25.655034 -31.722945 -5.730351
v -27.809590 -31.722953 -5.301782
v -29.636135 -31.722945 -4.081325
v -30.856592 -31.722945 -2.254781
v -31.585671 -32.093302 2.356320
v -32.074302 -32.093302 -0.100226
v -32.165519 -32.093347 1.194793
v -30.194142 -32.093302 4.438884
v -31.174371 -32.093347 3.587673
v -28.111584 -32.093302 5.830406
v -29.342932 -32.093347 5.419104
v -25.655034 -32.093302 6.319041
v -26.950053 -32.093347 6.410266
v -23.198483 -32.093302 5.830406
v -24.360016 -32.093347 6.410266
v -21.115925 -32.093302 4.438880
v -21.967137 -32.093347 5.419104
v -19.724402 -32.093302 2.356323
v -20.135706 -32.093347 3.587673
v -19.235763 -32.093302 -0.100226
v -19.144542 -32.093347 1.194793
v -19.724402 -32.093306 -2.556776
v -19.144542 -32.093351 -1.395241
v -21.115925 -32.093306 -4.639336
v -20.135706 -32.093351 -3.788122
v -23.198483 -32.093306 -6.030862
v -21.967137 -32.093351 -5.619553
v -25.655034 -32.093306 -6.519497
v -24.360016 -32.093351 -6.610719
v -28.111584 -32.093306 -6.030862
v -26.950053 -32.093351 -6.610715
v -30.194142 -32.093306 -4.639336
v -29.342938 -32.093351 -5.619553
v -31.585671 -32.093306 -2.556772
v -31.174361 -32.093351 -3.788118
v -32.165519 -32.093351 -1.395241
v -31.973831 -32.093347 2.517114
v -32.494448 -32.093347 -0.100215
v -30.491238 -32.093347 4.735979
v -28.272366 -32.093347 6.218578
v -25.655038 -32.093347 6.739198
v -23.037707 -32.093347 6.218578
v -20.818846 -32.093347 4.735979
v -19.336246 -32.093347 2.517114
v -18.815621 -32.093347 -0.100215
v -19.336242 -32.093351 -2.717544
v -20.818838 -32.093351 -4.936413
v -23.037707 -32.093351 -6.419011
v -25.655040 -32.093351 -6.939632
v -28.272373 -32.093351 -6.419011
v -30.491238 -32.093351 -4.936413
v -31.973831 -32.093351 -2.717544
v -33.226255 -30.929699 3.035880
v -33.850066 -30.929699 -0.100222
v -31.449794 -30.929699 5.694541
v -28.791138 -30.929699 7.471002
v -25.655034 -30.929699 8.094813
v -22.518929 -30.929699 7.471002
v -19.860269 -30.929699 5.694541
v -18.083808 -30.929699 3.035880
v -17.460001 -30.929699 -0.100222
v -18.083805 -30.929699 -3.236325
v -19.860271 -30.929699 -5.894990
v -22.518929 -30.929702 -7.671447
v -25.655034 -30.929699 -8.295258
v -28.791142 -30.929699 -7.671447
v -31.449798 -30.929699 -5.894986
v -33.226255 -30.929699 -3.236325
vn -0.9718 0.2357 -0.0000
vn -1.0000 0.0048 -0.0001
vn -0.9808 0.0047 0.1951
vn -0.9532 0.2353 0.1896
vn -0.9663 -0.2575 -0.0000
vn -0.9477 -0.2576 0.1884
vn -0.8927 -0.2576 0.3698
vn -0.9239 0.0045 0.3827
vn -0.8979 0.2354 0.3720
vn -0.8315 0.0046 0.5555
vn -0.8081 0.2353 0.5401
vn -0.8034 -0.2577 0.5368
vn -0.6832 -0.2577 0.6832
vn -0.7071 0.0045 0.7071
vn -0.6873 0.2354 0.6872
vn -0.5556 0.0046 0.8314
vn -0.5399 0.2353 0.8082
vn -0.5368 -0.2577 0.8034
vn -0.3698 -0.2577 0.8927
vn -0.3826 0.0045 0.9239
vn -0.3719 0.2354 0.8979
vn -0.1951 0.0046 0.9808
vn -0.1895 0.2353 0.9533
vn -0.1885 -0.2577 0.9477
vn -0.0000 -0.2577 0.9662
vn -0.0000 0.0045 1.0000
vn -0.0000 0.2354 0.9719
vn 0.1951 0.0046 0.9808
vn 0.1897 0.2353 0.9532
vn 0.1885 -0.2577 0.9477
vn 0.3698 -0.2577 0.8927
vn 0.3827 0.0045 0.9239
vn 0.3719 0.2354 0.8979
vn 0.5555 0.0046 0.8315
vn 0.5401 0.2353 0.8081
vn 0.5368 -0.2577 0.8034
vn 0.6832 -0.2577 0.6832
vn 0.7071 0.0045 0.7071
vn 0.6872 0.2353 0.6873
vn 0.8314 0.0046 0.5556
vn 0.8082 0.2353 0.5399
vn 0.8034 -0.2577 0.5368
vn 0.8927 -0.2577 0.3698
vn 0.9239 0.0045 0.3826
vn 0.8979 0.2354 0.3720
vn 0.9808 0.0046 0.1951
vn 0.9533 0.2353 0.1895
vn 0.9477 -0.2577 0.1885
vn 0.9662 -0.2577 -0.0000
vn 1.0000 0.0045 -0.0000
vn 0.9719 0.2353 -0.0000
vn 0.9808 0.0046 -0.1951
vn 0.9532 0.2353 -0.1897
vn 0.9477 -0.2577 -0.1885
vn 0.8927 -0.2577 -0.3698
vn 0.9239 0.0045 -0.3827
vn 0.8979 0.2354 -0.3719
vn 0.8315 0.0046 -0.5555
vn 0.8081 0.2353 -0.5401
vn 0.8034 -0.2577 -0.5368
vn 0.6832 -0.2577 -0.6832
vn 0.7071 0.0045 -0.7071
vn 0.6873 0.2354 -0.6872
vn 0.5556 0.0046 -0.8314
vn 0.5399 0.2353 -0.8082
vn 0.5368 -0.2577 -0.8034
vn 0.3698 -0.2577 -0.8927
vn 0.3826 0.0045 -0.9239
vn 0.3719 0.2354 -0.8979
vn 0.1951 0.0046 -0.9808
vn 0.1895 0.2353 -0.9533
vn 0.1885 -0.2577 -0.9477
vn -0.0000 -0.2577 -0.9662
vn -0.0000 0.0045 -1.0000
vn -0.0000 0.2354 -0.9719
vn -0.1951 0.0046 -0.9808
vn -0.1897 0.2353 -0.9532
vn -0.1885 -0.2577 -0.9477
vn -0.3698 -0.2577 -0.8927
vn -0.3827 0.0045 -0.9239
vn -0.3719 0.2354 -0.8979
vn -0.5555 0.0046 -0.8315
vn -0.5401 0.2353 -0.8081
vn -0.5368 -0.2577 -0.8034
vn -0.6832 -0.2577 -0.6832
vn -0.7071 0.0045 -0.7071
vn -0.6872 0.2354 -0.6873
vn -0.8314 0.0046 -0.5556
vn -0.8082 0.2353 -0.5399
vn -0.8034 -0.2577 -0.5368
vn -0.8927 -0.2577 -0.3698
vn -0.9239 0.0045 -0.3826
vn -0.8979 0.2354 -0.3719
vn -0.9808 0.0047 -0.1951
vn -0.9532 0.2356 -0.1896
vn -0.9477 -0.2576 -0.1885
vn -0.5892 -0.8080 -0.0000
vn -0.2125 -0.9772 -0.0002
vn -0.2077 -0.9773 0.0413
vn -0.5773 -0.8084 0.1149
vn -0.0043 -1.0000 -0.0000
vn -0.0041 -1.0000 0.0007
vn -0.0036 -1.0000 0.0015
vn -0.1953 -0.9774 0.0810
vn -0.5440 -0.8083 0.2253
vn -0.1760 -0.9773 0.1176
vn -0.4898 -0.8081 0.3273
vn -0.0032 -1.0000 0.0022
vn -0.0027 -1.0000 0.0027
vn -0.1496 -0.9774 0.1496
vn -0.4165 -0.8082 0.4164
vn -0.1176 -0.9773 0.1760
vn -0.3273 -0.8081 0.4898
vn -0.0022 -1.0000 0.0032
vn -0.0015 -1.0000 0.0036
vn -0.0809 -0.9774 0.1954
vn -0.2254 -0.8082 0.5441
vn -0.0413 -0.9773 0.2076
vn -0.1149 -0.8081 0.5778
vn -0.0008 -1.0000 0.0038
vn -0.0000 -1.0000 0.0039
vn -0.0000 -0.9774 0.2115
vn -0.0000 -0.8082 0.5890
vn 0.0413 -0.9773 0.2076
vn 0.1149 -0.8081 0.5777
vn 0.0008 -1.0000 0.0038
vn 0.0015 -1.0000 0.0036
vn 0.0810 -0.9774 0.1954
vn 0.2254 -0.8082 0.5441
vn 0.1176 -0.9773 0.1760
vn 0.3273 -0.8081 0.4898
vn 0.0022 -1.0000 0.0032
vn 0.0027 -1.0000 0.0028
vn 0.1496 -0.9774 0.1496
vn 0.4164 -0.8082 0.4165
vn 0.1760 -0.9773 0.1176
vn 0.4898 -0.8081 0.3272
vn 0.0032 -1.0000 0.0022
vn 0.0036 -1.0000 0.0015
vn 0.1954 -0.9774 0.0809
vn 0.5441 -0.8082 0.2254
vn 0.2076 -0.9773 0.0413
vn 0.5777 -0.8081 0.1149
vn 0.0038 -1.0000 0.0008
vn 0.0039 -1.0000 -0.0000
vn 0.2115 -0.9774 -0.0000
vn 0.5889 -0.8082 -0.0000
vn 0.2076 -0.9773 -0.0413
vn 0.5777 -0.8081 -0.1149
vn 0.0038 -1.0000 -0.0008
vn 0.0036 -1.0000 -0.0015
vn 0.1954 -0.9774 -0.0810
vn 0.5441 -0.8082 -0.2254
vn 0.1760 -0.9773 -0.1176
vn 0.4898 -0.8081 -0.3273
vn 0.0032 -1.0000 -0.0022
vn 0.0027 -1.0000 -0.0028
vn 0.1496 -0.9774 -0.1496
vn 0.4165 -0.8082 -0.4164
vn 0.1176 -0.9773 -0.1760
vn 0.3272 -0.8081 -0.4898
vn 0.0022 -1.0000 -0.0032
vn 0.0015 -1.0000 -0.0036
vn 0.0809 -0.9774 -0.1954
vn 0.2254 -0.8082 -0.5441
vn 0.0413 -0.9773 -0.2076
vn 0.1149 -0.8081 -0.5777
vn 0.0008 -1.0000 -0.0038
vn -0.0000 -1.0000 -0.0039
vn -0.0000 -0.9774 -0.2115
vn -0.0000 -0.8082 -0.5889
vn -0.0413 -0.9773 -0.2076
vn -0.1149 -0.8081 -0.5777
vn -0.0008 -1.0000 -0.0038
vn -0.0015 -1.0000 -0.0036
vn -0.0810 -0.9774 -0.1954
vn -0.2254 -0.8082 -0.5441
vn -0.1176 -0.9773 -0.1760
vn -0.3273 -0.8081 -0.4898
vn -0.0022 -1.0000 -0.0032
vn -0.0027 -1.0000 -0.0027
vn -0.1496 -0.9774 -0.1496
vn -0.4164 -0.8082 -0.4165
vn -0.1760 -0.9773 -0.1176
vn -0.4898 -0.8081 -0.3272
vn -0.0032 -1.0000 -0.0022
vn -0.0036 -1.0000 -0.0015
vn -0.1957 -0.9773 -0.0809
vn -0.5443 -0.8081 -0.2254
vn -0.2083 -0.9772 -0.0414
vn -0.5784 -0.8076 -0.1151
vn -0.0040 -1.0000 -0.0007
vn 0.2762 -0.9611 -0.0001
vn 0.4856 -0.8742 -0.0000
vn 0.4768 -0.8739 -0.0949
vn 0.2716 -0.9609 -0.0540
vn 0.5537 -0.8327 -0.0001
vn 0.5432 -0.8326 -0.1080
vn 0.5117 -0.8326 -0.2119
vn 0.4491 -0.8739 -0.1861
vn 0.2556 -0.9610 -0.1058
vn 0.4041 -0.8739 -0.2700
vn 0.2298 -0.9611 -0.1535
vn 0.4605 -0.8326 -0.3077
vn 0.3916 -0.8326 -0.3916
vn 0.3436 -0.8739 -0.3437
vn 0.1954 -0.9611 -0.1954
vn 0.2700 -0.8739 -0.4041
vn 0.1535 -0.9611 -0.2298
vn 0.3077 -0.8326 -0.4605
vn 0.2120 -0.8326 -0.5116
vn 0.1859 -0.8739 -0.4491
vn 0.1058 -0.9611 -0.2553
vn 0.0948 -0.8739 -0.4767
vn 0.0539 -0.9611 -0.2710
vn 0.1080 -0.8326 -0.5432
vn -0.0000 -0.8326 -0.5538
vn -0.0001 -0.8739 -0.4860
vn -0.0000 -0.9611 -0.2764
vn -0.0948 -0.8739 -0.4767
vn -0.0539 -0.9611 -0.2710
vn -0.1081 -0.8326 -0.5432
vn -0.2119 -0.8326 -0.5117
vn -0.1861 -0.8739 -0.4490
vn -0.1057 -0.9611 -0.2553
vn -0.2700 -0.8739 -0.4041
vn -0.1535 -0.9611 -0.2297
vn -0.3077 -0.8326 -0.4605
vn -0.3916 -0.8326 -0.3916
vn -0.3437 -0.8739 -0.3436
vn -0.1954 -0.9610 -0.1954
vn -0.4041 -0.8739 -0.2700
vn -0.2298 -0.9611 -0.1535
vn -0.4605 -0.8326 -0.3077
vn -0.5116 -0.8326 -0.2120
vn -0.4491 -0.8739 -0.1859
vn -0.2553 -0.9610 -0.1058
vn -0.4767 -0.8739 -0.0948
vn -0.2710 -0.9611 -0.0539
vn -0.5432 -0.8326 -0.1080
vn -0.5538 -0.8326 -0.0000
vn -0.4860 -0.8739 0.0001
vn -0.2764 -0.9610 -0.0000
vn -0.4767 -0.8739 0.0948
vn -0.2710 -0.9611 0.0539
vn -0.5432 -0.8326 0.1081
vn -0.5117 -0.8326 0.2119
vn -0.4490 -0.8739 0.1861
vn -0.2553 -0.9610 0.1057
vn -0.4041 -0.8739 0.2700
vn -0.2298 -0.9611 0.1535
vn -0.4605 -0.8326 0.3077
vn -0.3916 -0.8326 0.3916
vn -0.3436 -0.8739 0.3437
vn -0.1954 -0.9610 0.1954
vn -0.2700 -0.8739 0.4041
vn -0.1535 -0.9611 0.2298
vn -0.3077 -0.8326 0.4605
vn -0.2120 -0.8326 0.5116
vn -0.1859 -0.8739 0.4491
vn -0.1058 -0.9611 0.2553
vn -0.0948 -0.8739 0.4767
vn -0.0539 -0.9611 0.2710
vn -0.1080 -0.8326 0.5432
vn -0.0000 -0.8326 0.5538
vn 0.0001 -0.8739 0.4860
vn -0.0000 -0.9611 0.2764
vn 0.0948 -0.8739 0.4767
vn 0.0539 -0.9611 0.2710
vn 0.1081 -0.8326 0.5432
vn 0.2119 -0.8326 0.5117
vn 0.1861 -0.8739 0.4490
vn 0.1057 -0.9611 0.2553
vn 0.2700 -0.8739 0.4041
vn 0.1535 -0.9611 0.2297
vn 0.3077 -0.8326 0.4605
vn 0.3916 -0.8326 0.3916
vn 0.3437 -0.8739 0.3436
vn 0.1954 -0.9611 0.1954
vn 0.4041 -0.8739 0.2700
vn 0.2298 -0.9611 0.1535
vn 0.4605 -0.8326 0.3077
vn 0.5116 -0.8326 0.2120
vn 0.4489 -0.8740 0.1859
vn 0.2551 -0.9611 0.1057
vn 0.4762 -0.8742 0.0947
vn 0.2703 -0.9613 0.0538
vn 0.5431 -0.8327 0.1081
vn 0.5195 -0.8269 -0.2152
vn 0.5516 -0.8269 -0.1097
vn 0.3297 -0.9418 -0.0656
vn 0.3130 -0.9409 -0.1296
vn 0.5623 -0.8269 -0.0000
vn 0.3385 -0.9409 -0.0000
vn 0.0487 -0.9988 -0.0000
vn 0.0479 -0.9988 -0.0095
vn 0.0454 -0.9988 -0.0188
vn 0.3976 -0.8269 -0.3976
vn 0.4676 -0.8269 -0.3125
vn 0.2796 -0.9418 -0.1868
vn 0.2395 -0.9409 -0.2395
vn 0.0407 -0.9988 -0.0272
vn 0.0348 -0.9988 -0.0348
vn 0.2152 -0.8269 -0.5195
vn 0.3125 -0.8269 -0.4676
vn 0.1868 -0.9418 -0.2796
vn 0.1296 -0.9409 -0.3130
vn 0.0272 -0.9988 -0.0407
vn 0.0188 -0.9988 -0.0454
vn -0.0000 -0.8269 -0.5623
vn 0.1097 -0.8269 -0.5516
vn 0.0656 -0.9418 -0.3298
vn -0.0000 -0.9409 -0.3388
vn 0.0096 -0.9988 -0.0480
vn -0.0000 -0.9988 -0.0492
vn -0.2152 -0.8269 -0.5195
vn -0.1097 -0.8269 -0.5516
vn -0.0656 -0.9418 -0.3298
vn -0.1296 -0.9409 -0.3130
vn -0.0096 -0.9988 -0.0480
vn -0.0188 -0.9988 -0.0454
vn -0.3976 -0.8269 -0.3976
vn -0.3125 -0.8269 -0.4676
vn -0.1868 -0.9418 -0.2796
vn -0.2395 -0.9409 -0.2395
vn -0.0272 -0.9988 -0.0407
vn -0.0348 -0.9988 -0.0348
vn -0.5195 -0.8269 -0.2152
vn -0.4676 -0.8269 -0.3125
vn -0.2795 -0.9418 -0.1868
vn -0.3129 -0.9409 -0.1296
vn -0.0407 -0.9988 -0.0272
vn -0.0451 -0.9988 -0.0186
vn -0.5625 -0.8268 -0.0000
vn -0.5516 -0.8268 -0.1097
vn -0.3292 -0.9420 -0.0654
vn -0.3373 -0.9414 0.0001
vn -0.0467 -0.9989 -0.0092
vn -0.0454 -0.9990 0.0002
vn -0.5199 -0.8267 0.2153
vn -0.5518 -0.8267 0.1098
vn -0.3267 -0.9429 0.0651
vn -0.3086 -0.9425 0.1280
vn -0.0404 -0.9991 0.0084
vn -0.0345 -0.9993 0.0146
vn -0.3980 -0.8266 0.3980
vn -0.4680 -0.8266 0.3127
vn -0.2747 -0.9438 0.1836
vn -0.2352 -0.9430 0.2352
vn -0.0289 -0.9994 0.0194
vn -0.0239 -0.9994 0.0240
vn -0.2154 -0.8266 0.5200
vn -0.3127 -0.8265 0.4680
vn -0.1833 -0.9440 0.2743
vn -0.1272 -0.9431 0.3071
vn -0.0185 -0.9994 0.0277
vn -0.0128 -0.9994 0.0308
vn -0.0000 -0.8266 0.5628
vn -0.1098 -0.8265 0.5521
vn -0.0643 -0.9440 0.3235
vn -0.0000 -0.9431 0.3324
vn -0.0065 -0.9995 0.0325
vn -0.0000 -0.9994 0.0333
vn 0.2154 -0.8266 0.5200
vn 0.1098 -0.8265 0.5521
vn 0.0643 -0.9440 0.3235
vn 0.1273 -0.9431 0.3073
vn 0.0065 -0.9994 0.0326
vn 0.0129 -0.9994 0.0312
vn 0.3979 -0.8266 0.3979
vn 0.3127 -0.8266 0.4680
vn 0.1835 -0.9439 0.2747
vn 0.2361 -0.9426 0.2362
vn 0.0191 -0.9994 0.0288
vn 0.0261 -0.9993 0.0264
vn 0.5197 -0.8268 0.2153
vn 0.4678 -0.8267 0.3126
vn 0.2767 -0.9429 0.1851
vn 0.3114 -0.9415 0.1291
vn 0.0338 -0.9992 0.0230
vn 0.0416 -0.9990 0.0175
vn 0.5516 -0.8268 0.1097
vn 0.3291 -0.9420 0.0655
vn 0.0465 -0.9989 0.0094
vn -0.9289 -0.3209 0.1848
vn -0.8750 -0.3210 0.3624
vn -0.9471 -0.3210 -0.0000
vn -0.9229 -0.3851 -0.0000
vn -0.9052 -0.3851 0.1800
vn -0.8526 -0.3851 0.3532
vn -0.7875 -0.3210 0.5262
vn -0.6697 -0.3211 0.6697
vn -0.7673 -0.3851 0.5127
vn -0.6526 -0.3851 0.6526
vn -0.5262 -0.3210 0.7875
vn -0.3624 -0.3211 0.8750
vn -0.5127 -0.3851 0.7673
vn -0.3532 -0.3851 0.8526
vn -0.1848 -0.3210 0.9289
vn -0.0000 -0.3211 0.9471
vn -0.1800 -0.3851 0.9051
vn -0.0000 -0.3851 0.9229
vn 0.1848 -0.3210 0.9289
vn 0.3624 -0.3211 0.8750
vn 0.1800 -0.3851 0.9051
vn 0.3532 -0.3851 0.8526
vn 0.5262 -0.3210 0.7875
vn 0.6697 -0.3211 0.6697
vn 0.5127 -0.3851 0.7673
vn 0.6526 -0.3851 0.6526
vn 0.7875 -0.3210 0.5262
vn 0.8750 -0.3211 0.3624
vn 0.7673 -0.3851 0.5127
vn 0.8526 -0.3851 0.3532
vn 0.9289 -0.3210 0.1848
vn 0.9471 -0.3211 -0.0000
vn 0.9051 -0.3851 0.1800
vn 0.9229 -0.3851 -0.0000
vn 0.9289 -0.3210 -0.1848
vn 0.8750 -0.3211 -0.3624
vn 0.9051 -0.3851 -0.1800
vn 0.8526 -0.3851 -0.3532
vn 0.7875 -0.3210 -0.5262
vn 0.6697 -0.3211 -0.6697
vn 0.7673 -0.3851 -0.5127
vn 0.6526 -0.3851 -0.6526
vn 0.5262 -0.3210 -0.7875
vn 0.3624 -0.3211 -0.8750
vn 0.5127 -0.3851 -0.7673
vn 0.3532 -0.3851 -0.8526
vn 0.1848 -0.3210 -0.9289
vn -0.0000 -0.3211 -0.9471
vn 0.1800 -0.3851 -0.9051
vn -0.0000 -0.3851 -0.9229
vn -0.1848 -0.3210 -0.9289
vn -0.3624 -0.3211 -0.8750
vn -0.1800 -0.3851 -0.9051
vn -0.3532 -0.3851 -0.8526
vn -0.5262 -0.3210 -0.7875
vn -0.6697 -0.3211 -0.6697
vn -0.5127 -0.3851 -0.7673
vn -0.6526 -0.3851 -0.6526
vn -0.7875 -0.3210 -0.5262
vn -0.8750 -0.3211 -0.3624
vn -0.7673 -0.3851 -0.5127
vn -0.8526 -0.3851 -0.3532
vn -0.9289 -0.3210 -0.1848
vn -0.9051 -0.3851 -0.1800
vn -0.7945 -0.5103 0.3291
vn -0.8435 -0.5102 0.1678
vn -0.7820 -0.6036 0.1555
vn -0.7367 -0.6034 0.3051
vn -0.8600 -0.5103 -0.0000
vn -0.7975 -0.6034 -0.0000
vn -0.6081 -0.5103 0.6081
vn -0.7151 -0.5102 0.4778
vn -0.6630 -0.6034 0.4430
vn -0.5639 -0.6034 0.5639
vn -0.3291 -0.5103 0.7945
vn -0.4778 -0.5102 0.7151
vn -0.4430 -0.6034 0.6630
vn -0.3052 -0.6034 0.7368
vn -0.0000 -0.5103 0.8600
vn -0.1678 -0.5102 0.8435
vn -0.1556 -0.6034 0.7821
vn -0.0000 -0.6034 0.7975
vn 0.3291 -0.5103 0.7945
vn 0.1678 -0.5102 0.8435
vn 0.1556 -0.6034 0.7821
vn 0.3052 -0.6034 0.7368
vn 0.6081 -0.5103 0.6081
vn 0.4778 -0.5102 0.7151
vn 0.4430 -0.6034 0.6630
vn 0.5639 -0.6034 0.5639
vn 0.7945 -0.5103 0.3291
vn 0.7151 -0.5102 0.4778
vn 0.6630 -0.6034 0.4430
vn 0.7368 -0.6034 0.3052
vn 0.8600 -0.5103 -0.0000
vn 0.8435 -0.5102 0.1678
vn 0.7821 -0.6034 0.1556
vn 0.7975 -0.6034 -0.0000
vn 0.7945 -0.5103 -0.3291
vn 0.8435 -0.5102 -0.1678
vn 0.7821 -0.6034 -0.1556
vn 0.7368 -0.6034 -0.3052
vn 0.6081 -0.5103 -0.6081
vn 0.7151 -0.5102 -0.4778
vn 0.6630 -0.6035 -0.4430
vn 0.5639 -0.6034 -0.5639
vn 0.3291 -0.5103 -0.7945
vn 0.4778 -0.5102 -0.7151
vn 0.4430 -0.6035 -0.6630
vn 0.3052 -0.6034 -0.7368
vn -0.0000 -0.5103 -0.8600
vn 0.1678 -0.5102 -0.8435
vn 0.1556 -0.6035 -0.7821
vn -0.0000 -0.6034 -0.7975
vn -0.3291 -0.5103 -0.7945
vn -0.1678 -0.5102 -0.8435
vn -0.1556 -0.6034 -0.7821
vn -0.3052 -0.6034 -0.7368
vn -0.6081 -0.5103 -0.6081
vn -0.4778 -0.5102 -0.7151
vn -0.4430 -0.6034 -0.6630
vn -0.5639 -0.6034 -0.5639
vn -0.7945 -0.5103 -0.3291
vn -0.7151 -0.5102 -0.4778
vn -0.6630 -0.6034 -0.4430
vn -0.7368 -0.6033 -0.3052
vn -0.8435 -0.5102 -0.1678
vn -0.7822 -0.6033 -0.1556
vn 0.5439 -0.8321 -0.1082
vn 0.5123 -0.8322 -0.2122
vn 0.5544 -0.8322 -0.0000
vn 0.4610 -0.8322 -0.3080
vn 0.3920 -0.8323 -0.3920
vn 0.3080 -0.8322 -0.4610
vn 0.2122 -0.8323 -0.5122
vn 0.1082 -0.8322 -0.5438
vn -0.0000 -0.8323 -0.5544
vn -0.1082 -0.8322 -0.5438
vn -0.2122 -0.8323 -0.5122
vn -0.3080 -0.8322 -0.4610
vn -0.3920 -0.8323 -0.3920
vn -0.4610 -0.8322 -0.3080
vn -0.5122 -0.8323 -0.2122
vn -0.5438 -0.8322 -0.1082
vn -0.5544 -0.8323 -0.0000
vn -0.5438 -0.8322 0.1082
vn -0.5122 -0.8323 0.2122
vn -0.4610 -0.8322 0.3080
vn -0.3920 -0.8323 0.3920
vn -0.3080 -0.8322 0.4610
vn -0.2122 -0.8323 0.5122
vn -0.1082 -0.8322 0.5438
vn -0.0000 -0.8323 0.5544
vn 0.1082 -0.8322 0.5438
vn 0.2122 -0.8323 0.5122
vn 0.3080 -0.8322 0.4610
vn 0.3920 -0.8323 0.3920
vn 0.4610 -0.8322 0.3080
vn 0.5122 -0.8323 0.2122
vn 0.5438 -0.8322 0.1082
vn 0.0003 -1.0000 -0.0001
vn 0.0655 -0.9978 -0.0130
vn 0.0612 -0.9978 -0.0254
vn 0.0003 -1.0000 -0.0000
vn 0.0662 -0.9978 -0.0000
vn 0.0002 -1.0000 -0.0002
vn 0.0553 -0.9978 -0.0370
vn 0.0468 -0.9978 -0.0468
vn 0.0001 -1.0000 -0.0003
vn 0.0370 -0.9978 -0.0553
vn 0.0253 -0.9978 -0.0611
vn -0.0000 -1.0000 -0.0003
vn 0.0130 -0.9978 -0.0653
vn -0.0000 -0.9978 -0.0662
vn -0.0001 -1.0000 -0.0003
vn -0.0130 -0.9978 -0.0653
vn -0.0253 -0.9978 -0.0611
vn -0.0002 -1.0000 -0.0002
vn -0.0370 -0.9978 -0.0553
vn -0.0468 -0.9978 -0.0468
vn -0.0003 -1.0000 -0.0001
vn -0.0553 -0.9978 -0.0370
vn -0.0611 -0.9978 -0.0253
vn -0.0003 -1.0000 -0.0000
vn -0.0653 -0.9978 -0.0130
vn -0.0662 -0.9978 -0.0000
vn -0.0003 -1.0000 0.0001
vn -0.0653 -0.9978 0.0130
vn -0.0611 -0.9978 0.0253
vn -0.0002 -1.0000 0.0002
vn -0.0553 -0.9978 0.0370
vn -0.0468 -0.9978 0.0468
vn -0.0001 -1.0000 0.0003
vn -0.0370 -0.9978 0.0553
vn -0.0253 -0.9978 0.0611
vn -0.0000 -1.0000 0.0003
vn -0.0130 -0.9978 0.0653
vn -0.0000 -0.9978 0.0662
vn 0.0001 -1.0000 0.0003
vn 0.0130 -0.9978 0.0653
vn 0.0253 -0.9978 0.0611
vn 0.0002 -1.0000 0.0002
vn 0.0370 -0.9978 0.0553
vn 0.0468 -0.9978 0.0468
vn 0.0003 -1.0000 0.0001
vn 0.0553 -0.9978 0.0370
vn 0.0610 -0.9978 0.0253
vn 0.0651 -0.9978 0.0129
vn 0.0001 -1.0000 -0.0000
vn -0.0000 -1.0000 -0.0000
vn -0.8766 -0.4486 0.1744
vn -0.8257 -0.4486 0.3420
vn -0.8937 -0.4486 -0.0000
vn -0.7431 -0.4486 0.4965
vn -0.6320 -0.4486 0.6320
vn -0.4965 -0.4486 0.7431
vn -0.3420 -0.4486 0.8257
vn -0.1744 -0.4486 0.8766
vn -0.0000 -0.4486 0.8937
vn 0.1744 -0.4486 0.8766
vn 0.3420 -0.4486 0.8257
vn 0.4965 -0.4486 0.7431
vn 0.6320 -0.4486 0.6320
vn 0.7431 -0.4486 0.4965
vn 0.8257 -0.4486 0.3420
vn 0.8766 -0.4486 0.1744
vn 0.8937 -0.4486 -0.0000
vn 0.8766 -0.4486 -0.1744
vn 0.8257 -0.4486 -0.3420
vn 0.7431 -0.4486 -0.4965
vn 0.6320 -0.4486 -0.6320
vn 0.4965 -0.4486 -0.7431
vn 0.3420 -0.4486 -0.8257
vn 0.1744 -0.4486 -0.8766
vn -0.0000 -0.4486 -0.8937
vn -0.1744 -0.4486 -0.8766
vn -0.3420 -0.4486 -0.8257
vn -0.4965 -0.4486 -0.7431
vn -0.6320 -0.4486 -0.6320
vn -0.7431 -0.4486 -0.4965
vn -0.8257 -0.4486 -0.3420
vn -0.8766 -0.4486 -0.1744
vt 0.000000 0.729424
vt 0.008454 0.729427
vt 0.012950 0.775136
vt 0.004657 0.776783
vt 0.019367 0.729417
vt 0.023654 0.772997
vt 0.036342 0.814908
vt 0.026263 0.819094
vt 0.018451 0.822327
vt 0.047909 0.859603
vt 0.040877 0.864299
vt 0.056980 0.853531
vt 0.084740 0.887397
vt 0.077031 0.895120
vt 0.071051 0.901097
vt 0.112531 0.924262
vt 0.107832 0.931292
vt 0.118588 0.915182
vt 0.157195 0.935845
vt 0.153028 0.945932
vt 0.149790 0.953741
vt 0.196978 0.959270
vt 0.195326 0.967563
vt 0.199099 0.948563
vt 0.242675 0.952879
vt 0.242685 0.963792
vt 0.242682 0.972247
vt 0.288394 0.959296
vt 0.290041 0.967590
vt 0.286256 0.948593
vt 0.328166 0.935905
vt 0.332352 0.945983
vt 0.335585 0.953795
vt 0.372861 0.924338
vt 0.377557 0.931369
vt 0.366790 0.915267
vt 0.400655 0.887506
vt 0.408379 0.895216
vt 0.414355 0.901196
vt 0.437521 0.859716
vt 0.444550 0.864415
vt 0.428440 0.853659
vt 0.449104 0.815052
vt 0.459190 0.819219
vt 0.467000 0.822456
vt 0.472528 0.775269
vt 0.480821 0.776920
vt 0.461821 0.773148
vt 0.466137 0.729572
vt 0.477050 0.729562
vt 0.485504 0.729564
vt 0.472554 0.683853
vt 0.480847 0.682206
vt 0.461850 0.685991
vt 0.449162 0.644081
vt 0.459241 0.639895
vt 0.467052 0.636662
vt 0.437595 0.599386
vt 0.444626 0.594691
vt 0.428524 0.605458
vt 0.400763 0.571593
vt 0.408473 0.563869
vt 0.414453 0.557893
vt 0.372973 0.534727
vt 0.377672 0.527698
vt 0.366916 0.543808
vt 0.328309 0.523144
vt 0.332476 0.513058
vt 0.335714 0.505248
vt 0.288526 0.499720
vt 0.290178 0.491427
vt 0.286406 0.510427
vt 0.242830 0.506111
vt 0.242820 0.495198
vt 0.242822 0.486743
vt 0.197111 0.499693
vt 0.195464 0.491400
vt 0.199249 0.510397
vt 0.157339 0.523085
vt 0.153153 0.513007
vt 0.149920 0.505195
vt 0.112644 0.534652
vt 0.107948 0.527621
vt 0.118716 0.543723
vt 0.084851 0.571483
vt 0.077127 0.563774
vt 0.071151 0.557794
vt 0.047985 0.599274
vt 0.040956 0.594574
vt 0.057066 0.605330
vt 0.036402 0.643937
vt 0.026315 0.639770
vt 0.018506 0.636533
vt 0.012977 0.683720
vt 0.004684 0.682068
vt 0.023684 0.685841
vt 0.078057 0.729496
vt 0.083464 0.729495
vt 0.086547 0.760565
vt 0.081243 0.761621
vt 0.088019 0.729495
vt 0.091015 0.759677
vt 0.099797 0.788708
vt 0.095589 0.790452
vt 0.090594 0.792522
vt 0.110327 0.817977
vt 0.105832 0.820983
vt 0.114115 0.815446
vt 0.133339 0.838907
vt 0.130118 0.842129
vt 0.126296 0.845953
vt 0.154269 0.861919
vt 0.151265 0.866416
vt 0.156800 0.858131
vt 0.183538 0.872449
vt 0.181795 0.876658
vt 0.179727 0.881654
vt 0.211681 0.885700
vt 0.210626 0.891004
vt 0.212569 0.881232
vt 0.242752 0.884228
vt 0.242752 0.888783
vt 0.242753 0.894190
vt 0.273823 0.885700
vt 0.274879 0.891004
vt 0.272934 0.881232
vt 0.301966 0.872450
vt 0.303709 0.876658
vt 0.305779 0.881653
vt 0.331235 0.861920
vt 0.334240 0.866415
vt 0.328704 0.858132
vt 0.352165 0.838908
vt 0.355386 0.842129
vt 0.359210 0.845951
vt 0.375176 0.817979
vt 0.379673 0.820982
vt 0.371389 0.815447
vt 0.385707 0.788709
vt 0.389916 0.790452
vt 0.394911 0.792520
vt 0.398957 0.760567
vt 0.404261 0.761621
vt 0.394489 0.759678
vt 0.397485 0.729495
vt 0.402040 0.729495
vt 0.407447 0.729494
vt 0.398957 0.698425
vt 0.404261 0.697369
vt 0.394489 0.699313
vt 0.385706 0.670282
vt 0.389915 0.668539
vt 0.394910 0.666468
vt 0.375176 0.641013
vt 0.379672 0.638008
vt 0.371388 0.643544
vt 0.352165 0.620083
vt 0.355386 0.616862
vt 0.359208 0.613038
vt 0.331235 0.597072
vt 0.334239 0.592575
vt 0.328704 0.600860
vt 0.301966 0.586541
vt 0.303709 0.582333
vt 0.305777 0.577337
vt 0.273824 0.573291
vt 0.274878 0.567987
vt 0.272935 0.577759
vt 0.242752 0.574763
vt 0.242752 0.570207
vt 0.242751 0.564801
vt 0.211682 0.573291
vt 0.210626 0.567987
vt 0.212571 0.577759
vt 0.183539 0.586541
vt 0.181796 0.582333
vt 0.179725 0.577338
vt 0.154270 0.597071
vt 0.151265 0.592575
vt 0.156801 0.600859
vt 0.133340 0.620083
vt 0.130119 0.616862
vt 0.126295 0.613039
vt 0.110329 0.641012
vt 0.105832 0.638008
vt 0.114116 0.643543
vt 0.099798 0.670281
vt 0.095589 0.668538
vt 0.090593 0.666470
vt 0.086547 0.698423
vt 0.081243 0.697369
vt 0.091015 0.699312
vt 0.106134 0.729494
vt 0.110873 0.729493
vt 0.113428 0.755217
vt 0.108781 0.756142
vt 0.115662 0.729491
vt 0.118124 0.754281
vt 0.125335 0.778127
vt 0.120911 0.779961
vt 0.116533 0.781776
vt 0.133116 0.802749
vt 0.129177 0.805382
vt 0.137097 0.800087
vt 0.152884 0.819358
vt 0.149499 0.822746
vt 0.146149 0.826098
vt 0.169495 0.839129
vt 0.166864 0.843069
vt 0.172154 0.835146
vt 0.194114 0.846909
vt 0.192283 0.851334
vt 0.190471 0.855713
vt 0.217027 0.858818
vt 0.216104 0.863465
vt 0.217960 0.854121
vt 0.242749 0.856584
vt 0.242751 0.861373
vt 0.242752 0.866112
vt 0.268475 0.858818
vt 0.269401 0.863465
vt 0.267539 0.854122
vt 0.291385 0.846911
vt 0.293219 0.851335
vt 0.295034 0.855713
vt 0.316008 0.839130
vt 0.318641 0.843070
vt 0.313346 0.835150
vt 0.332617 0.819363
vt 0.336004 0.822748
vt 0.339356 0.826098
vt 0.352387 0.802751
vt 0.356327 0.805383
vt 0.348405 0.800092
vt 0.360167 0.778132
vt 0.364593 0.779964
vt 0.368971 0.781776
vt 0.372076 0.755220
vt 0.376723 0.756143
vt 0.367379 0.754287
vt 0.369842 0.729498
vt 0.374631 0.729496
vt 0.379370 0.729495
vt 0.372076 0.703772
vt 0.376723 0.702847
vt 0.367379 0.704708
vt 0.360168 0.680863
vt 0.364592 0.679028
vt 0.368970 0.677214
vt 0.352387 0.656240
vt 0.356326 0.653607
vt 0.348407 0.658902
vt 0.332620 0.639631
vt 0.336005 0.636244
vt 0.339355 0.632892
vt 0.316009 0.619861
vt 0.318640 0.615921
vt 0.313350 0.623843
vt 0.291390 0.612081
vt 0.293221 0.607655
vt 0.295034 0.603277
vt 0.268477 0.600172
vt 0.269401 0.595525
vt 0.267545 0.604869
vt 0.242756 0.602405
vt 0.242754 0.597616
vt 0.242753 0.592877
vt 0.217030 0.600172
vt 0.216104 0.595525
vt 0.217966 0.604868
vt 0.194120 0.612079
vt 0.192286 0.607655
vt 0.190472 0.603277
vt 0.169498 0.619860
vt 0.166865 0.615920
vt 0.172160 0.623840
vt 0.152889 0.639627
vt 0.149501 0.636242
vt 0.146150 0.632892
vt 0.133118 0.656238
vt 0.129178 0.653606
vt 0.137101 0.658897
vt 0.125338 0.680857
vt 0.120912 0.679026
vt 0.116534 0.677213
vt 0.113429 0.703769
vt 0.108781 0.702846
vt 0.118126 0.704702
vt 0.133548 0.774729
vt 0.126842 0.752551
vt 0.129578 0.752007
vt 0.136126 0.773661
vt 0.124550 0.729495
vt 0.127340 0.729495
vt 0.132831 0.729496
vt 0.134964 0.750936
vt 0.141199 0.771560
vt 0.159171 0.813076
vt 0.144488 0.795153
vt 0.146809 0.793603
vt 0.161145 0.811103
vt 0.151374 0.790552
vt 0.165028 0.807220
vt 0.197519 0.838699
vt 0.177095 0.827758
vt 0.178645 0.825439
vt 0.198587 0.836121
vt 0.181696 0.820873
vt 0.200689 0.831048
vt 0.242753 0.847696
vt 0.219697 0.845404
vt 0.220242 0.842668
vt 0.242754 0.844906
vt 0.221313 0.837282
vt 0.242754 0.839414
vt 0.287987 0.838698
vt 0.265809 0.845404
vt 0.265265 0.842668
vt 0.286920 0.836120
vt 0.264194 0.837282
vt 0.284818 0.831047
vt 0.326334 0.813075
vt 0.308411 0.827758
vt 0.306861 0.825438
vt 0.324362 0.811102
vt 0.303811 0.820872
vt 0.320479 0.807219
vt 0.351957 0.774728
vt 0.341017 0.795152
vt 0.338698 0.793601
vt 0.349380 0.773659
vt 0.334132 0.790550
vt 0.344307 0.771558
vt 0.360954 0.729494
vt 0.358663 0.752550
vt 0.355927 0.752005
vt 0.358164 0.729493
vt 0.350541 0.750934
vt 0.352675 0.729494
vt 0.351955 0.684261
vt 0.358662 0.706438
vt 0.355927 0.706982
vt 0.349379 0.685327
vt 0.350545 0.708054
vt 0.344312 0.687427
vt 0.326332 0.645914
vt 0.341015 0.663837
vt 0.338697 0.665385
vt 0.324361 0.647884
vt 0.334137 0.668433
vt 0.320483 0.651762
vt 0.287985 0.620291
vt 0.308409 0.631231
vt 0.306860 0.633548
vt 0.286918 0.622866
vt 0.303813 0.638108
vt 0.284819 0.627932
vt 0.242752 0.611294
vt 0.265808 0.613585
vt 0.265263 0.616318
vt 0.242751 0.614081
vt 0.264193 0.621697
vt 0.242751 0.619565
vt 0.197519 0.620292
vt 0.219696 0.613586
vt 0.220239 0.616319
vt 0.198585 0.622867
vt 0.221309 0.621698
vt 0.200683 0.627934
vt 0.159172 0.645915
vt 0.177095 0.631232
vt 0.178643 0.633550
vt 0.161143 0.647886
vt 0.181689 0.638110
vt 0.165020 0.651766
vt 0.133548 0.684261
vt 0.144489 0.663838
vt 0.146807 0.665388
vt 0.136125 0.685329
vt 0.151369 0.668437
vt 0.141196 0.687431
vt 0.126842 0.706439
vt 0.129578 0.706984
vt 0.134963 0.708055
vt 0.033868 0.770981
vt 0.045965 0.810939
vt 0.029777 0.729432
vt 0.039949 0.729447
vt 0.043850 0.769011
vt 0.055369 0.807060
vt 0.065645 0.847760
vt 0.092112 0.880047
vt 0.074113 0.842119
vt 0.099316 0.872864
vt 0.124385 0.906533
vt 0.161193 0.926234
vt 0.130049 0.898082
vt 0.165099 0.916842
vt 0.201145 0.938354
vt 0.242690 0.942470
vt 0.203144 0.928378
vt 0.242705 0.932297
vt 0.284239 0.938378
vt 0.324197 0.926282
vt 0.282269 0.928396
vt 0.320318 0.916878
vt 0.361018 0.906602
vt 0.393305 0.880135
vt 0.355377 0.898134
vt 0.386123 0.872931
vt 0.419791 0.847862
vt 0.439492 0.811054
vt 0.411340 0.842197
vt 0.430100 0.807147
vt 0.451612 0.771102
vt 0.455728 0.729556
vt 0.441636 0.769103
vt 0.445555 0.729542
vt 0.451636 0.688008
vt 0.439539 0.648050
vt 0.441654 0.689979
vt 0.430135 0.651929
vt 0.419859 0.611230
vt 0.393392 0.578943
vt 0.411391 0.616870
vt 0.386188 0.586125
vt 0.361119 0.552457
vt 0.324311 0.532756
vt 0.355454 0.560908
vt 0.320405 0.542148
vt 0.284360 0.520636
vt 0.242814 0.516520
vt 0.282360 0.530612
vt 0.242799 0.526693
vt 0.201266 0.520612
vt 0.161308 0.532708
vt 0.203236 0.530594
vt 0.165187 0.542112
vt 0.124488 0.552388
vt 0.092200 0.578855
vt 0.130128 0.560856
vt 0.099383 0.586059
vt 0.065714 0.611127
vt 0.046013 0.647935
vt 0.074166 0.616792
vt 0.055405 0.651842
vt 0.033893 0.687887
vt 0.043869 0.689886
vt 0.073954 0.799392
vt 0.063579 0.765115
vt 0.073248 0.763204
vt 0.083063 0.795633
vt 0.060055 0.729475
vt 0.069909 0.729488
vt 0.113552 0.858668
vt 0.090849 0.830970
vt 0.099051 0.825504
vt 0.120529 0.851709
vt 0.172819 0.898278
vt 0.141245 0.881376
vt 0.146731 0.873188
vt 0.176602 0.889178
vt 0.242733 0.912192
vt 0.207094 0.908660
vt 0.209029 0.898995
vt 0.242746 0.902338
vt 0.312650 0.898293
vt 0.278372 0.908668
vt 0.276461 0.898998
vt 0.308890 0.889184
vt 0.371925 0.858695
vt 0.344228 0.881398
vt 0.338762 0.873196
vt 0.364966 0.851718
vt 0.411536 0.799428
vt 0.394634 0.831002
vt 0.386445 0.825516
vt 0.402436 0.795645
vt 0.425450 0.729514
vt 0.421918 0.765153
vt 0.412253 0.763218
vt 0.415595 0.729502
vt 0.411550 0.659598
vt 0.421925 0.693875
vt 0.412255 0.695786
vt 0.402440 0.663357
vt 0.371952 0.600322
vt 0.394655 0.628020
vt 0.386452 0.633486
vt 0.364975 0.607282
vt 0.312685 0.560712
vt 0.344259 0.577614
vt 0.338773 0.585803
vt 0.308902 0.569812
vt 0.242771 0.546798
vt 0.278410 0.550330
vt 0.276475 0.559995
vt 0.242759 0.556653
vt 0.172855 0.560698
vt 0.207132 0.550322
vt 0.209043 0.559992
vt 0.176615 0.569807
vt 0.113580 0.600295
vt 0.141277 0.577592
vt 0.146743 0.585795
vt 0.120539 0.607272
vt 0.073969 0.659562
vt 0.090871 0.627988
vt 0.099060 0.633474
vt 0.083069 0.663345
vt 0.063587 0.693837
vt 0.073251 0.695772
vt 0.122787 0.753356
vt 0.129728 0.776309
vt 0.120416 0.729493
vt 0.141050 0.797448
vt 0.156247 0.815998
vt 0.174797 0.831195
vt 0.195935 0.842517
vt 0.218889 0.849459
vt 0.242751 0.851830
vt 0.266614 0.849459
vt 0.289567 0.842518
vt 0.310706 0.831196
vt 0.329256 0.816000
vt 0.344453 0.797450
vt 0.355776 0.776311
vt 0.362717 0.753358
vt 0.365088 0.729496
vt 0.362717 0.705633
vt 0.355775 0.682680
vt 0.344453 0.661542
vt 0.329257 0.642992
vt 0.310707 0.627795
vt 0.289569 0.616472
vt 0.266616 0.609531
vt 0.242754 0.607160
vt 0.218891 0.609531
vt 0.195938 0.616472
vt 0.174799 0.627794
vt 0.156249 0.642990
vt 0.141052 0.661540
vt 0.129729 0.682678
vt 0.122788 0.705631
vt 0.107700 0.785434
vt 0.099405 0.758007
vt 0.104059 0.757082
vt 0.112085 0.783618
vt 0.096574 0.729494
vt 0.101319 0.729494
vt 0.139388 0.832858
vt 0.121228 0.810694
vt 0.125174 0.808057
vt 0.142744 0.829502
vt 0.186812 0.864546
vt 0.161552 0.851018
vt 0.164189 0.847072
vt 0.188628 0.860161
vt 0.242752 0.875673
vt 0.214238 0.872841
vt 0.215164 0.868187
vt 0.242752 0.870927
vt 0.298692 0.864546
vt 0.271266 0.872842
vt 0.270340 0.868187
vt 0.296876 0.860162
vt 0.346116 0.832859
vt 0.323952 0.851019
vt 0.321315 0.847073
vt 0.342761 0.829503
vt 0.377804 0.785435
vt 0.364276 0.810695
vt 0.360330 0.808058
vt 0.373420 0.783619
vt 0.388931 0.729495
vt 0.386099 0.758009
vt 0.381445 0.757083
vt 0.384185 0.729495
vt 0.377803 0.673555
vt 0.386099 0.700982
vt 0.381445 0.701907
vt 0.373419 0.675371
vt 0.346116 0.626132
vt 0.364275 0.648296
vt 0.360330 0.650932
vt 0.342760 0.629487
vt 0.298692 0.594444
vt 0.323952 0.607972
vt 0.321315 0.611917
vt 0.296876 0.598828
vt 0.242753 0.583317
vt 0.271266 0.586148
vt 0.270340 0.590802
vt 0.242753 0.588062
vt 0.186813 0.594444
vt 0.214239 0.586148
vt 0.215165 0.590803
vt 0.188629 0.598828
vt 0.139389 0.626131
vt 0.161554 0.607972
vt 0.164190 0.611917
vt 0.142745 0.629487
vt 0.107701 0.673554
vt 0.121229 0.648295
vt 0.125175 0.650931
vt 0.112085 0.675370
vt 0.099406 0.700981
vt 0.104060 0.701906
vt 0.095169 0.758850
vt 0.103710 0.787087
vt 0.092254 0.729494
vt 0.117637 0.813093
vt 0.136334 0.835912
vt 0.159153 0.854609
vt 0.185159 0.868536
vt 0.213396 0.877078
vt 0.242752 0.879992
vt 0.272108 0.877078
vt 0.300345 0.868537
vt 0.326351 0.854610
vt 0.349170 0.835913
vt 0.367867 0.813094
vt 0.381794 0.787088
vt 0.390335 0.758851
vt 0.393250 0.729495
vt 0.390335 0.700139
vt 0.381794 0.671902
vt 0.367867 0.645897
vt 0.349170 0.623078
vt 0.326351 0.604381
vt 0.300345 0.590454
vt 0.272109 0.581913
vt 0.242753 0.578998
vt 0.213397 0.581913
vt 0.185160 0.590454
vt 0.159154 0.604381
vt 0.136335 0.623077
vt 0.117638 0.645896
vt 0.103711 0.671902
vt 0.095169 0.700138
vt 0.053769 0.767052
vt 0.064713 0.803205
vt 0.050058 0.729462
vt 0.082527 0.836514
vt 0.106473 0.865727
vt 0.135678 0.889683
vt 0.168981 0.907508
vt 0.205130 0.918465
vt 0.242720 0.922189
vt 0.280310 0.918477
vt 0.316463 0.907534
vt 0.349772 0.889719
vt 0.378985 0.865773
vt 0.402941 0.836568
vt 0.420766 0.803266
vt 0.431722 0.767116
vt 0.435446 0.729527
vt 0.431735 0.691937
vt 0.420791 0.655784
vt 0.402976 0.622476
vt 0.379030 0.593263
vt 0.349826 0.569307
vt 0.316523 0.551482
vt 0.280374 0.540525
vt 0.242785 0.536801
vt 0.205195 0.540513
vt 0.169042 0.551457
vt 0.135733 0.569271
vt 0.106520 0.593217
vt 0.082564 0.622421
vt 0.064739 0.655723
vt 0.053782 0.691873
s 1
f 1/1/1 340/2/2 177/3/3 337/4/4
f 340/2/2 4/5/5 339/6/6 177/3/3
f 3/7/7 338/8/8 177/3/3 339/6/6
f 338/8/8 2/9/9 337/4/4 177/3/3
f 2/9/9 338/8/8 178/10/10 341/11/11
f 338/8/8 3/7/7 343/12/12 178/10/10
f 6/13/13 342/14/14 178/10/10 343/12/12
f 342/14/14 5/15/15 341/11/11 178/10/10
f 5/15/15 342/14/14 179/16/16 344/17/17
f 342/14/14 6/13/13 346/18/18 179/16/16
f 8/19/19 345/20/20 179/16/16 346/18/18
f 345/20/20 7/21/21 344/17/17 179/16/16
f 7/21/21 345/20/20 180/22/22 347/23/23
f 345/20/20 8/19/19 349/24/24 180/22/22
f 10/25/25 348/26/26 180/22/22 349/24/24
f 348/26/26 9/27/27 347/23/23 180/22/22
f 9/27/27 348/26/26 181/28/28 350/29/29
f 348/26/26 10/25/25 352/30/30 181/28/28
f 12/31/31 351/32/32 181/28/28 352/30/30
f 351/32/32 11/33/33 350/29/29 181/28/28
f 11/33/33 351/32/32 182/34/34 353/35/35
f 351/32/32 12/31/31 355/36/36 182/34/34
f 14/37/37 354/38/38 182/34/34 355/36/36
f 354/38/38 13/39/39 353/35/35 182/34/34
f 13/39/39 354/38/38 183/40/40 356/41/41
f 354/38/38 14/37/37 358/42/42 183/40/40
f 16/43/43 357/44/44 183/40/40 358/42/42
f 357/44/44 15/45/45 356/41/41 183/40/40
f 15/45/45 357/44/44 184/46/46 359/47/47
f 357/44/44 16/43/43 361/48/48 184/46/46
f 18/49/49 360/50/50 184/46/46 361/48/48
f 360/50/50 17/51/51 359/47/47 184/46/46
f 17/51/51 360/50/50 185/52/52 362/53/53
f 360/50/50 18/49/49 364/54/54 185/52/52
f 20/55/55 363/56/56 185/52/52 364/54/54
f 363/56/56 19/57/57 362/53/53 185/52/52
f 19/57/57 363/56/56 186/58/58 365/59/59
f 363/56/56 20/55/55 367/60/60 186/58/58
f 22/61/61 366/62/62 186/58/58 367/60/60
f 366/62/62 21/63/63 365/59/59 186/58/58
f 21/63/63 366/62/62 187/64/64 368/65/65
f 366/62/62 22/61/61 370/66/66 187/64/64
f 24/67/67 369/68/68 187/64/64 370/66/66
f 369/68/68 23/69/69 368/65/65 187/64/64
f 23/69/69 369/68/68 188/70/70 371/71/71
f 369/68/68 24/67/67 373/72/72 188/70/70
f 26/73/73 372/74/74 188/70/70 373/72/72
f 372/74/74 25/75/75 371/71/71 188/70/70
f 25/75/75 372/74/74 189/76/76 374/77/77
f 372/74/74 26/73/73 376/78/78 189/76/76
f 28/79/79 375/80/80 189/76/76 376/78/78
f 375/80/80 27/81/81 374/77/77 189/76/76
f 27/81/81 375/80/80 190/82/82 377/83/83
f 375/80/80 28/79/79 379/84/84 190/82/82
f 30/85/85 378/86/86 190/82/82 379/84/84
f 378/86/86 29/87/87 377/83/83 190/82/82
f 29/87/87 378/86/86 191/88/88 380/89/89
f 378/86/86 30/85/85 382/90/90 191/88/88
f 32/91/91 381/92/92 191/88/88 382/90/90
f 381/92/92 31/93/93 380/89/89 191/88/88
f 31/93/93 381/92/92 192/94/94 383/95/95
f 381/92/92 32/91/91 384/96/96 192/94/94
f 4/5/5 340/2/2 192/94/94 384/96/96
f 340/2/2 1/1/1 383/95/95 192/94/94
f 33/97/97 388/98/98 193/99/99 385/100/100
f 388/98/98 36/101/101 387/102/102 193/99/99
f 35/103/103 386/104/104 193/99/99 387/102/102
f 386/104/104 34/105/105 385/100/100 193/99/99
f 34/105/105 386/104/104 194/106/106 389/107/107
f 386/104/104 35/103/103 391/108/108 194/106/106
f 38/109/109 390/110/110 194/106/106 391/108/108
f 390/110/110 37/111/111 389/107/107 194/106/106
f 37/111/111 390/110/110 195/112/112 392/113/113
f 390/110/110 38/109/109 394/114/114 195/112/112
f 40/115/115 393/116/116 195/112/112 394/114/114
f 393/116/116 39/117/117 392/113/113 195/112/112
f 39/117/117 393/116/116 196/118/118 395/119/119
f 393/116/116 40/115/115 397/120/120 196/118/118
f 42/121/121 396/122/122 196/118/118 397/120/120
f 396/122/122 41/123/123 395/119/119 196/118/118
f 41/123/123 396/122/122 197/124/124 398/125/125
f 396/122/122 42/121/121 400/126/126 197/124/124
f 44/127/127 399/128/128 197/124/124 400/126/126
f 399/128/128 43/129/129 398/125/125 197/124/124
f 43/129/129 399/128/128 198/130/130 401/131/131
f 399/128/128 44/127/127 403/132/132 198/130/130
f 46/133/133 402/134/134 198/130/130 403/132/132
f 402/134/134 45/135/135 401/131/131 198/130/130
f 45/135/135 402/134/134 199/136/136 404/137/137
f 402/134/134 46/133/133 406/138/138 199/136/136
f 48/139/139 405/140/140 199/136/136 406/138/138
f 405/140/140 47/141/141 404/137/137 199/136/136
f 47/141/141 405/140/140 200/142/142 407/143/143
f 405/140/140 48/139/139 409/144/144 200/142/142
f 50/145/145 408/146/146 200/142/142 409/144/144
f 408/146/146 49/147/147 407/143/143 200/142/142
f 49/147/147 408/146/146 201/148/148 410/149/149
f 408/146/146 50/145/145 412/150/150 201/148/148
f 52/151/151 411/152/152 201/148/148 412/150/150
f 411/152/152 51/153/153 410/149/149 201/148/148
f 51/153/153 411/152/152 202/154/154 413/155/155
f 411/152/152 52/151/151 415/156/156 202/154/154
f 54/157/157 414/158/158 202/154/154 415/156/156
f 414/158/158 53/159/159 413/155/155 202/154/154
f 53/159/159 414/158/158 203/160/160 416/161/161
f 414/158/158 54/157/157 418/162/162 203/160/160
f 56/163/163 417/164/164 203/160/160 418/162/162
f 417/164/164 55/165/165 416/161/161 203/160/160
f 55/165/165 417/164/164 204/166/166 419/167/167
f 417/164/164 56/163/163 421/168/168 204/166/166
f 58/169/169 420/170/170 204/166/166 421/168/168
f 420/170/170 57/171/171 419/167/167 204/166/166
f 57/171/171 420/170/170 205/172/172 422/173/173
f 420/170/170 58/169/169 424/174/174 205/172/172
f 60/175/175 423/176/176 205/172/172 424/174/174
f 423/176/176 59/177/177 422/173/173 205/172/172
f 59/177/177 423/176/176 206/178/178 425/179/179
f 423/176/176 60/175/175 427/180/180 206/178/178
f 62/181/181 426/182/182 206/178/178 427/180/180
f 426/182/182 61/183/183 425/179/179 206/178/178
f 61/183/183 426/182/182 207/184/184 428/185/185
f 426/182/182 62/181/181 430/186/186 207/184/184
f 64/187/187 429/188/188 207/184/184 430/186/186
f 429/188/188 63/189/189 428/185/185 207/184/184
f 63/189/189 429/188/188 208/190/190 431/191/191
f 429/188/188 64/187/187 432/192/192 208/190/190
f 36/101/101 388/98/98 208/190/190 432/192/192
f 388/98/98 33/97/97 431/191/191 208/190/190
f 81/193/193 452/194/194 209/195/195 449/196/196
f 452/194/194 84/197/197 451/198/198 209/195/195
f 83/199/199 450/200/200 209/195/195 451/198/198
f 450/200/200 82/201/201 449/196/196 209/195/195
f 82/201/201 450/200/200 210/202/202 453/203/203
f 450/200/200 83/199/199 455/204/204 210/202/202
f 86/205/205 454/206/206 210/202/202 455/204/204
f 454/206/206 85/207/207 453/203/203 210/202/202
f 85/207/207 454/206/206 211/208/208 456/209/209
f 454/206/206 86/205/205 458/210/210 211/208/208
f 88/211/211 457/212/212 211/208/208 458/210/210
f 457/212/212 87/213/213 456/209/209 211/208/208
f 87/213/213 457/212/212 212/214/214 459/215/215
f 457/212/212 88/211/211 461/216/216 212/214/214
f 90/217/217 460/218/218 212/214/214 461/216/216
f 460/218/218 89/219/219 459/215/215 212/214/214
f 89/219/219 460/218/218 213/220/220 462/221/221
f 460/218/218 90/217/217 464/222/222 213/220/220
f 92/223/223 463/224/224 213/220/220 464/222/222
f 463/224/224 91/225/225 462/221/221 213/220/220
f 91/225/225 463/224/224 214/226/226 465/227/227
f 463/224/224 92/223/223 467/228/228 214/226/226
f 94/229/229 466/230/230 214/226/226 467/228/228
f 466/230/230 93/231/231 465/227/227 214/226/226
f 93/231/231 466/230/230 215/232/232 468/233/233
f 466/230/230 94/229/229 470/234/234 215/232/232
f 96/235/235 469/236/236 215/232/232 470/234/234
f 469/236/236 95/237/237 468/233/233 215/232/232
f 95/237/237 469/236/236 216/238/238 471/239/239
f 469/236/236 96/235/235 473/240/240 216/238/238
f 98/241/241 472/242/242 216/238/238 473/240/240
f 472/242/242 97/243/243 471/239/239 216/238/238
f 97/243/243 472/242/242 217/244/244 474/245/245
f 472/242/242 98/241/241 476/246/246 217/244/244
f 100/247/247 475/248/248 217/244/244 476/246/246
f 475/248/248 99/249/249 474/245/245 217/244/244
f 99/249/249 475/248/248 218/250/250 477/251/251
f 475/248/248 100/247/247 479/252/252 218/250/250
f 102/253/253 478/254/254 218/250/250 479/252/252
f 478/254/254 101/255/255 477/251/251 218/250/250
f 101/255/255 478/254/254 219/256/256 480/257/257
f 478/254/254 102/253/253 482/258/258 219/256/256
f 104/259/259 481/260/260 219/256/256 482/258/258
f 481/260/260 103/261/261 480/257/257 219/256/256
f 103/261/261 481/260/260 220/262/262 483/263/263
f 481/260/260 104/259/259 485/264/264 220/262/262
f 106/265/265 484/266/266 220/262/262 485/264/264
f 484/266/266 105/267/267 483/263/263 220/262/262
f 105/267/267 484/266/266 221/268/268 486/269/269
f 484/266/266 106/265/265 488/270/270 221/268/268
f 108/271/271 487/272/272 221/268/268 488/270/270
f 487/272/272 107/273/273 486/269/269 221/268/268
f 107/273/273 487/272/272 222/274/274 489/275/275
f 487/272/272 108/271/271 491/276/276 222/274/274
f 110/277/277 490/278/278 222/274/274 491/276/276
f 490/278/278 109/279/279 489/275/275 222/274/274
f 109/279/279 490/278/278 223/280/280 492/281/281
f 490/278/278 110/277/277 494/282/282 223/280/280
f 112/283/283 493/284/284 223/280/280 494/282/282
f 493/284/284 111/285/285 492/281/281 223/280/280
f 111/285/285 493/284/284 224/286/286 495/287/287
f 493/284/284 112/283/283 496/288/288 224/286/286
f 84/197/197 452/194/194 224/286/286 496/288/288
f 452/194/194 81/193/193 495/287/287 224/286/286
f 113/289/289 499/290/290 225/291/291 497/292/292
f 499/290/290 114/293/293 498/294/294 225/291/291
f 65/295/295 433/296/296 225/291/291 498/294/294
f 433/296/296 66/297/297 497/292/292 225/291/291
f 115/298/298 501/299/299 226/300/300 500/301/301
f 501/299/299 113/289/289 497/292/292 226/300/300
f 66/297/297 434/302/302 226/300/300 497/292/292
f 434/302/302 67/303/303 500/301/301 226/300/300
f 116/304/304 503/305/305 227/306/306 502/307/307
f 503/305/305 115/298/298 500/301/301 227/306/306
f 67/303/303 435/308/308 227/306/306 500/301/301
f 435/308/308 68/309/309 502/307/307 227/306/306
f 117/310/310 505/311/311 228/312/312 504/313/313
f 505/311/311 116/304/304 502/307/307 228/312/312
f 68/309/309 436/314/314 228/312/312 502/307/307
f 436/314/314 69/315/315 504/313/313 228/312/312
f 118/316/316 507/317/317 229/318/318 506/319/319
f 507/317/317 117/310/310 504/313/313 229/318/318
f 69/315/315 437/320/320 229/318/318 504/313/313
f 437/320/320 70/321/321 506/319/319 229/318/318
f 119/322/322 509/323/323 230/324/324 508/325/325
f 509/323/323 118/316/316 506/319/319 230/324/324
f 70/321/321 438/326/326 230/324/324 506/319/319
f 438/326/326 71/327/327 508/325/325 230/324/324
f 120/328/328 511/329/329 231/330/330 510/331/331
f 511/329/329 119/322/322 508/325/325 231/330/330
f 71/327/327 439/332/332 231/330/330 508/325/325
f 439/332/332 72/333/333 510/331/331 231/330/330
f 121/334/334 513/335/335 232/336/336 512/337/337
f 513/335/335 120/328/328 510/331/331 232/336/336
f 72/333/333 440/338/338 232/336/336 510/331/331
f 440/338/338 73/339/339 512/337/337 232/336/336
f 122/340/340 515/341/341 233/342/342 514/343/343
f 515/341/341 121/334/334 512/337/337 233/342/342
f 73/339/339 441/344/344 233/342/342 512/337/337
f 441/344/344 74/345/345 514/343/343 233/342/342
f 123/346/346 517/347/347 234/348/348 516/349/349
f 517/347/347 122/340/340 514/343/343 234/348/348
f 74/345/345 442/350/350 234/348/348 514/343/343
f 442/350/350 75/351/351 516/349/349 234/348/348
f 124/352/352 519/353/353 235/354/354 518/355/355
f 519/353/353 123/346/346 516/349/349 235/354/354
f 75/351/351 443/356/356 235/354/354 516/349/349
f 443/356/356 76/357/357 518/355/355 235/354/354
f 125/358/358 521/359/359 236/360/360 520/361/361
f 521/359/359 124/352/352 518/355/355 236/360/360
f 76/357/357 444/362/362 236/360/360 518/355/355
f 444/362/362 77/363/363 520/361/361 236/360/360
f 126/364/364 523/365/365 237/366/366 522/367/367
f 523/365/365 125/358/358 520/361/361 237/366/366
f 77/363/363 445/368/368 237/366/366 520/361/361
f 445/368/368 78/369/369 522/367/367 237/366/366
f 127/370/370 525/371/371 238/372/372 524/373/373
f 525/371/371 126/364/364 522/367/367 238/372/372
f 78/369/369 446/374/374 238/372/372 522/367/367
f 446/374/374 79/375/375 524/373/373 238/372/372
f 128/376/376 527/377/377 239/378/378 526/379/379
f 527/377/377 127/370/370 524/373/373 239/378/378
f 79/375/375 447/380/380 239/378/378 524/373/373
f 447/380/380 80/381/381 526/379/379 239/378/378
f 114/293/293 528/382/382 240/383/383 498/294/294
f 528/382/382 128/376/376 526/379/379 240/383/383
f 80/381/381 448/384/384 240/383/383 526/379/379
f 448/384/384 65/295/295 498/294/294 240/383/383
f 3/7/7 339/6/6 241/385/385 529/386/386
f 339/6/6 4/5/5 531/387/387 241/385/385
f 130/388/388 530/389/389 241/385/385 531/387/387
f 530/389/389 129/390/390 529/386/386 241/385/385
f 6/13/13 343/12/12 242/391/391 532/392/392
f 343/12/12 3/7/7 529/386/386 242/391/391
f 129/390/390 533/393/393 242/391/391 529/386/386
f 533/393/393 131/394/394 532/392/392 242/391/391
f 8/19/19 346/18/18 243/395/395 534/396/396
f 346/18/18 6/13/13 532/392/392 243/395/395
f 131/394/394 535/397/397 243/395/395 532/392/392
f 535/397/397 132/398/398 534/396/396 243/395/395
f 10/25/25 349/24/24 244/399/399 536/400/400
f 349/24/24 8/19/19 534/396/396 244/399/399
f 132/398/398 537/401/401 244/399/399 534/396/396
f 537/401/401 133/402/402 536/400/400 244/399/399
f 12/31/31 352/30/30 245/403/403 538/404/404
f 352/30/30 10/25/25 536/400/400 245/403/403
f 133/402/402 539/405/405 245/403/403 536/400/400
f 539/405/405 134/406/406 538/404/404 245/403/403
f 14/37/37 355/36/36 246/407/407 540/408/408
f 355/36/36 12/31/31 538/404/404 246/407/407
f 134/406/406 541/409/409 246/407/407 538/404/404
f 541/409/409 135/410/410 540/408/408 246/407/407
f 16/43/43 358/42/42 247/411/411 542/412/412
f 358/42/42 14/37/37 540/408/408 247/411/411
f 135/410/410 543/413/413 247/411/411 540/408/408
f 543/413/413 136/414/414 542/412/412 247/411/411
f 18/49/49 361/48/48 248/415/415 544/416/416
f 361/48/48 16/43/43 542/412/412 248/415/415
f 136/414/414 545/417/417 248/415/415 542/412/412
f 545/417/417 137/418/418 544/416/416 248/415/415
f 20/55/55 364/54/54 249/419/419 546/420/420
f 364/54/54 18/49/49 544/416/416 249/419/419
f 137/418/418 547/421/421 249/419/419 544/416/416
f 547/421/421 138/422/422 546/420/420 249/419/419
f 22/61/61 367/60/60 250/423/423 548/424/424
f 367/60/60 20/55/55 546/420/420 250/423/423
f 138/422/422 549/425/425 250/423/423 546/420/420
f 549/425/425 139/426/426 548/424/424 250/423/423
f 24/67/67 370/66/66 251/427/427 550/428/428
f 370/66/66 22/61/61 548/424/424 251/427/427
f 139/426/426 551/429/429 251/427/427 548/424/424
f 551/429/429 140/430/430 550/428/428 251/427/427
f 26/73/73 373/72/72 252/431/431 552/432/432
f 373/72/72 24/67/67 550/428/428 252/431/431
f 140/430/430 553/433/433 252/431/431 550/428/428
f 553/433/433 141/434/434 552/432/432 252/431/431
f 28/79/79 376/78/78 253/435/435 554/436/436
f 376/78/78 26/73/73 552/432/432 253/435/435
f 141/434/434 555/437/437 253/435/435 552/432/432
f 555/437/437 142/438/438 554/436/436 253/435/435
f 30/85/85 379/84/84 254/439/439 556/440/440
f 379/84/84 28/79/79 554/436/436 254/439/439
f 142/438/438 557/441/441 254/439/439 554/436/436
f 557/441/441 143/442/442 556/440/440 254/439/439
f 32/91/91 382/90/90 255/443/443 558/444/444
f 382/90/90 30/85/85 556/440/440 255/443/443
f 143/442/442 559/445/445 255/443/443 556/440/440
f 559/445/445 144/446/446 558/444/444 255/443/443
f 4/5/5 384/96/96 256/447/447 531/387/387
f 384/96/96 32/91/91 558/444/444 256/447/447
f 144/446/446 560/448/448 256/447/447 558/444/444
f 560/448/448 130/388/388 531/387/387 256/447/447
f 145/449/449 563/450/450 257/451/451 561/452/452
f 563/450/450 146/453/453 562/454/454 257/451/451
f 33/97/97 385/100/100 257/451/451 562/454/454
f 385/100/100 34/105/105 561/452/452 257/451/451
f 147/455/455 565/456/456 258/457/457 564/458/458
f 565/456/456 145/449/449 561/452/452 258/457/457
f 34/105/105 389/107/107 258/457/457 561/452/452
f 389/107/107 37/111/111 564/458/458 258/457/457
f 148/459/459 567/460/460 259/461/461 566/462/462
f 567/460/460 147/455/455 564/458/458 259/461/461
f 37/111/111 392/113/113 259/461/461 564/458/458
f 392/113/113 39/117/117 566/462/462 259/461/461
f 149/463/463 569/464/464 260/465/465 568/466/466
f 569/464/464 148/459/459 566/462/462 260/465/465
f 39/117/117 395/119/119 260/465/465 566/462/462
f 395/119/119 41/123/123 568/466/466 260/465/465
f 150/467/467 571/468/468 261/469/469 570/470/470
f 571/468/468 149/463/463 568/466/466 261/469/469
f 41/123/123 398/125/125 261/469/469 568/466/466
f 398/125/125 43/129/129 570/470/470 261/469/469
f 151/471/471 573/472/472 262/473/473 572/474/474
f 573/472/472 150/467/467 570/470/470 262/473/473
f 43/129/129 401/131/131 262/473/473 570/470/470
f 401/131/131 45/135/135 572/474/474 262/473/473
f 152/475/475 575/476/476 263/477/477 574/478/478
f 575/476/476 151/471/471 572/474/474 263/477/477
f 45/135/135 404/137/137 263/477/477 572/474/474
f 404/137/137 47/141/141 574/478/478 263/477/477
f 153/479/479 577/480/480 264/481/481 576/482/482
f 577/480/480 152/475/475 574/478/478 264/481/481
f 47/141/141 407/143/143 264/481/481 574/478/478
f 407/143/143 49/147/147 576/482/482 264/481/481
f 154/483/483 579/484/484 265/485/485 578/486/486
f 579/484/484 153/479/479 576/482/482 265/485/485
f 49/147/147 410/149/149 265/485/485 576/482/482
f 410/149/149 51/153/153 578/486/486 265/485/485
f 155/487/487 581/488/488 266/489/489 580/490/490
f 581/488/488 154/483/483 578/486/486 266/489/489
f 51/153/153 413/155/155 266/489/489 578/486/486
f 413/155/155 53/159/159 580/490/490 266/489/489
f 156/491/491 583/492/492 267/493/493 582/494/494
f 583/492/492 155/487/487 580/490/490 267/493/493
f 53/159/159 416/161/161 267/493/493 580/490/490
f 416/161/161 55/165/165 582/494/494 267/493/493
f 157/495/495 585/496/496 268/497/497 584/498/498
f 585/496/496 156/491/491 582/494/494 268/497/497
f 55/165/165 419/167/167 268/497/497 582/494/494
f 419/167/167 57/171/171 584/498/498 268/497/497
f 158/499/499 587/500/500 269/501/501 586/502/502
f 587/500/500 157/495/495 584/498/498 269/501/501
f 57/171/171 422/173/173 269/501/501 584/498/498
f 422/173/173 59/177/177 586/502/502 269/501/501
f 159/503/503 589/504/504 270/505/505 588/506/506
f 589/504/504 158/499/499 586/502/502 270/505/505
f 59/177/177 425/179/179 270/505/505 586/502/502
f 425/179/179 61/183/183 588/506/506 270/505/505
f 160/507/507 591/508/508 271/509/509 590/510/510
f 591/508/508 159/503/503 588/506/506 271/509/509
f 61/183/183 428/185/185 271/509/509 588/506/506
f 428/185/185 63/189/189 590/510/510 271/509/509
f 146/453/453 592/511/511 272/512/512 562/454/454
f 592/511/511 160/507/507 590/510/510 272/512/512
f 63/189/189 431/191/191 272/512/512 590/510/510
f 431/191/191 33/97/97 562/454/454 272/512/512
f 83/199/199 451/198/198 273/513/513 593/514/514
f 451/198/198 84/197/197 594/515/515 273/513/513
f 114/293/293 499/290/290 273/513/513 594/515/515
f 499/290/290 113/289/289 593/514/514 273/513/513
f 86/205/205 455/204/204 274/516/516 595/517/517
f 455/204/204 83/199/199 593/514/514 274/516/516
f 113/289/289 501/299/299 274/516/516 593/514/514
f 501/299/299 115/298/298 595/517/517 274/516/516
f 88/211/211 458/210/210 275/518/518 596/519/519
f 458/210/210 86/205/205 595/517/517 275/518/518
f 115/298/298 503/305/305 275/518/518 595/517/517
f 503/305/305 116/304/304 596/519/519 275/518/518
f 90/217/217 461/216/216 276/520/520 597/521/521
f 461/216/216 88/211/211 596/519/519 276/520/520
f 116/304/304 505/311/311 276/520/520 596/519/519
f 505/311/311 117/310/310 597/521/521 276/520/520
f 92/223/223 464/222/222 277/522/522 598/523/523
f 464/222/222 90/217/217 597/521/521 277/522/522
f 117/310/310 507/317/317 277/522/522 597/521/521
f 507/317/317 118/316/316 598/523/523 277/522/522
f 94/229/229 467/228/228 278/524/524 599/525/525
f 467/228/228 92/223/223 598/523/523 278/524/524
f 118/316/316 509/323/323 278/524/524 598/523/523
f 509/323/323 119/322/322 599/525/525 278/524/524
f 96/235/235 470/234/234 279/526/526 600/527/527
f 470/234/234 94/229/229 599/525/525 279/526/526
f 119/322/322 511/329/329 279/526/526 599/525/525
f 511/329/329 120/328/328 600/527/527 279/526/526
f 98/241/241 473/240/240 280/528/528 601/529/529
f 473/240/240 96/235/235 600/527/527 280/528/528
f 120/328/328 513/335/335 280/528/528 600/527/527
f 513/335/335 121/334/334 601/529/529 280/528/528
f 100/247/247 476/246/246 281/530/530 602/531/531
f 476/246/246 98/241/241 601/529/529 281/530/530
f 121/334/334 515/341/341 281/530/530 601/529/529
f 515/341/341 122/340/340 602/531/531 281/530/530
f 102/253/253 479/252/252 282/532/532 603/533/533
f 479/252/252 100/247/247 602/531/531 282/532/532
f 122/340/340 517/347/347 282/532/532 602/531/531
f 517/347/347 123/346/346 603/533/533 282/532/532
f 104/259/259 482/258/258 283/534/534 604/535/535
f 482/258/258 102/253/253 603/533/533 283/534/534
f 123/346/346 519/353/353 283/534/534 603/533/533
f 519/353/353 124/352/352 604/535/535 283/534/534
f 106/265/265 485/264/264 284/536/536 605/537/537
f 485/264/264 104/259/259 604/535/535 284/536/536
f 124/352/352 521/359/359 284/536/536 604/535/535
f 521/359/359 125/358/358 605/537/537 284/536/536
f 108/271/271 488/270/270 285/538/538 606/539/539
f 488/270/270 106/265/265 605/537/537 285/538/538
f 125/358/358 523/365/365 285/538/538 605/537/537
f 523/365/365 126/364/364 606/539/539 285/538/538
f 110/277/277 491/276/276 286/540/540 607/541/541
f 491/276/276 108/271/271 606/539/539 286/540/540
f 126/364/364 525/371/371 286/540/540 606/539/539
f 525/371/371 127/370/370 607/541/541 286/540/540
f 112/283/283 494/282/282 287/542/542 608/543/543
f 494/282/282 110/277/277 607/541/541 287/542/542
f 127/370/370 527/377/377 287/542/542 607/541/541
f 527/377/377 128/376/376 608/543/543 287/542/542
f 84/197/197 496/288/288 288/544/544 594/515/515
f 496/288/288 112/283/283 608/543/543 288/544/544
f 128/376/376 528/382/382 288/544/544 608/543/543
f 528/382/382 114/293/293 594/515/515 288/544/544
f 161/545/545 611/546/545 289/547/546 609/548/547
f 611/546/545 162/549/548 610/550/549 289/547/546
f 81/193/193 449/196/196 289/547/546 610/550/549
f 449/196/196 82/201/201 609/548/547 289/547/546
f 163/551/550 613/552/550 290/553/551 612/554/552
f 613/552/550 161/545/545 609/548/547 290/553/551
f 82/201/201 453/203/203 290/553/551 609/548/547
f 453/203/203 85/207/207 612/554/552 290/553/551
f 164/555/553 615/556/550 291/557/554 614/558/555
f 615/556/550 163/551/550 612/554/552 291/557/554
f 85/207/207 456/209/209 291/557/554 612/554/552
f 456/209/209 87/213/213 614/558/555 291/557/554
f 165/559/556 617/560/553 292/561/557 616/562/558
f 617/560/553 164/555/553 614/558/555 292/561/557
f 87/213/213 459/215/215 292/561/557 614/558/555
f 459/215/215 89/219/219 616/562/558 292/561/557
f 166/563/559 619/564/559 293/565/560 618/566/561
f 619/564/559 165/559/556 616/562/558 293/565/560
f 89/219/219 462/221/221 293/565/560 616/562/558
f 462/221/221 91/225/225 618/566/561 293/565/560
f 167/567/562 621/568/562 294/569/563 620/570/564
f 621/568/562 166/563/559 618/566/561 294/569/563
f 91/225/225 465/227/227 294/569/563 618/566/561
f 465/227/227 93/231/231 620/570/564 294/569/563
f 168/571/565 623/572/562 295/573/566 622/574/567
f 623/572/562 167/567/562 620/570/564 295/573/566
f 93/231/231 468/233/233 295/573/566 620/570/564
f 468/233/233 95/237/237 622/574/567 295/573/566
f 169/575/568 625/576/565 296/577/569 624/578/570
f 625/576/565 168/571/565 622/574/567 296/577/569
f 95/237/237 471/239/239 296/577/569 622/574/567
f 471/239/239 97/243/243 624/578/570 296/577/569
f 170/579/571 627/580/571 297/581/572 626/582/573
f 627/580/571 169/575/568 624/578/570 297/581/572
f 97/243/243 474/245/245 297/581/572 624/578/570
f 474/245/245 99/249/249 626/582/573 297/581/572
f 171/583/574 629/584/574 298/585/575 628/586/576
f 629/584/574 170/579/571 626/582/573 298/585/575
f 99/249/249 477/251/251 298/585/575 626/582/573
f 477/251/251 101/255/255 628/586/576 298/585/575
f 172/587/577 631/588/574 299/589/578 630/590/579
f 631/588/574 171/583/574 628/586/576 299/589/578
f 101/255/255 480/257/257 299/589/578 628/586/576
f 480/257/257 103/261/261 630/590/579 299/589/578
f 173/591/580 633/592/577 300/593/581 632/594/582
f 633/592/577 172/587/577 630/590/579 300/593/581
f 103/261/261 483/263/263 300/593/581 630/590/579
f 483/263/263 105/267/267 632/594/582 300/593/581
f 174/595/583 635/596/583 301/597/584 634/598/585
f 635/596/583 173/591/580 632/594/582 301/597/584
f 105/267/267 486/269/269 301/597/584 632/594/582
f 486/269/269 107/273/273 634/598/585 301/597/584
f 175/599/586 637/600/586 302/601/587 636/602/588
f 637/600/586 174/595/583 634/598/585 302/601/587
f 107/273/273 489/275/275 302/601/587 634/598/585
f 489/275/275 109/279/279 636/602/588 302/601/587
f 176/603/589 639/604/586 303/605/590 638/606/591
f 639/604/586 175/599/586 636/602/588 303/605/590
f 109/279/279 492/281/281 303/605/590 636/602/588
f 492/281/281 111/285/285 638/606/591 303/605/590
f 162/549/548 640/607/589 304/608/592 610/550/549
f 640/607/589 176/603/589 638/606/591 304/608/592
f 111/285/285 495/287/287 304/608/592 638/606/591
f 495/287/287 81/193/193 610/550/549 304/608/592
f 35/103/103 387/102/102 305/609/593 641/610/594
f 387/102/102 36/101/101 642/611/594 305/609/593
f 162/549/548 611/546/545 305/609/593 642/611/594
f 611/546/545 161/545/545 641/610/594 305/609/593
f 38/109/109 391/108/108 306/612/594 643/613/594
f 391/108/108 35/103/103 641/610/594 306/612/594
f 161/545/545 613/552/550 306/612/594 641/610/594
f 613/552/550 163/551/550 643/613/594 306/612/594
f 40/115/115 394/114/114 307/614/594 644/615/594
f 394/114/114 38/109/109 643/613/594 307/614/594
f 163/551/550 615/556/550 307/614/594 643/613/594
f 615/556/550 164/555/553 644/615/594 307/614/594
f 42/121/121 397/120/120 308/616/594 645/617/594
f 397/120/120 40/115/115 644/615/594 308/616/594
f 164/555/553 617/560/553 308/616/594 644/615/594
f 617/560/553 165/559/556 645/617/594 308/616/594
f 44/127/127 400/126/126 309/618/594 646/619/594
f 400/126/126 42/121/121 645/617/594 309/618/594
f 165/559/556 619/564/559 309/618/594 645/617/594
f 619/564/559 166/563/559 646/619/594 309/618/594
f 46/133/133 403/132/132 310/620/594 647/621/594
f 403/132/132 44/127/127 646/619/594 310/620/594
f 166/563/559 621/568/562 310/620/594 646/619/594
f 621/568/562 167/567/562 647/621/594 310/620/594
f 48/139/139 406/138/138 311/622/594 648/623/594
f 406/138/138 46/133/133 647/621/594 311/622/594
f 167/567/562 623/572/562 311/622/594 647/621/594
f 623/572/562 168/571/565 648/623/594 311/622/594
f 50/145/145 409/144/144 312/624/594 649/625/594
f 409/144/144 48/139/139 648/623/594 312/624/594
f 168/571/565 625/576/565 312/624/594 648/623/594
f 625/576/565 169/575/568 649/625/594 312/624/594
f 52/151/151 412/150/150 313/626/594 650/627/594
f 412/150/150 50/145/145 649/625/594 313/626/594
f 169/575/568 627/580/571 313/626/594 649/625/594
f 627/580/571 170/579/571 650/627/594 313/626/594
f 54/157/157 415/156/156 314/628/594 651/629/594
f 415/156/156 52/151/151 650/627/594 314/628/594
f 170/579/571 629/584/574 314/628/594 650/627/594
f 629/584/574 171/583/574 651/629/594 314/628/594
f 56/163/163 418/162/162 315/630/594 652/631/594
f 418/162/162 54/157/157 651/629/594 315/630/594
f 171/583/574 631/588/574 315/630/594 651/629/594
f 631/588/574 172/587/577 652/631/594 315/630/594
f 58/169/169 421/168/168 316/632/594 653/633/594
f 421/168/168 56/163/163 652/631/594 316/632/594
f 172/587/577 633/592/577 316/632/594 652/631/594
f 633/592/577 173/591/580 653/633/594 316/632/594
f 60/175/175 424/174/174 317/634/594 654/635/594
f 424/174/174 58/169/169 653/633/594 317/634/594
f 173/591/580 635/596/583 317/634/594 653/633/594
f 635/596/583 174/595/583 654/635/594 317/634/594
f 62/181/181 427/180/180 318/636/594 655/637/594
f 427/180/180 60/175/175 654/635/594 318/636/594
f 174/595/583 637/600/586 318/636/594 654/635/594
f 637/600/586 175/599/586 655/637/594 318/636/594
f 64/187/187 430/186/186 319/638/594 656/639/594
f 430/186/186 62/181/181 655/637/594 319/638/594
f 175/599/586 639/604/586 319/638/594 655/637/594
f 639/604/586 176/603/589 656/639/594 319/638/594
f 36/101/101 432/192/192 320/640/594 642/611/594
f 432/192/192 64/187/187 656/639/594 320/640/594
f 176/603/589 640/607/589 320/640/594 656/639/594
f 640/607/589 162/549/548 642/611/594 320/640/594
f 129/390/390 530/389/389 321/641/595 657/642/596
f 530/389/389 130/388/388 658/643/597 321/641/595
f 146/453/453 563/450/450 321/641/595 658/643/597
f 563/450/450 145/449/449 657/642/596 321/641/595
f 131/394/394 533/393/393 322/644/598 659/645/599
f 533/393/393 129/390/390 657/642/596 322/644/598
f 145/449/449 565/456/456 322/644/598 657/642/596
f 565/456/456 147/455/455 659/645/599 322/644/598
f 132/398/398 535/397/397 323/646/600 660/647/601
f 535/397/397 131/394/394 659/645/599 323/646/600
f 147/455/455 567/460/460 323/646/600 659/645/599
f 567/460/460 148/459/459 660/647/601 323/646/600
f 133/402/402 537/401/401 324/648/602 661/649/603
f 537/401/401 132/398/398 660/647/601 324/648/602
f 148/459/459 569/464/464 324/648/602 660/647/601
f 569/464/464 149/463/463 661/649/603 324/648/602
f 134/406/406 539/405/405 325/650/604 662/651/605
f 539/405/405 133/402/402 661/649/603 325/650/604
f 149/463/463 571/468/468 325/650/604 661/649/603
f 571/468/468 150/467/467 662/651/605 325/650/604
f 135/410/410 541/409/409 326/652/606 663/653/607
f 541/409/409 134/406/406 662/651/605 326/652/606
f 150/467/467 573/472/472 326/652/606 662/651/605
f 573/472/472 151/471/471 663/653/607 326/652/606
f 136/414/414 543/413/413 327/654/608 664/655/609
f 543/413/413 135/410/410 663/653/607 327/654/608
f 151/471/471 575/476/476 327/654/608 663/653/607
f 575/476/476 152/475/475 664/655/609 327/654/608
f 137/418/418 545/417/417 328/656/610 665/657/611
f 545/417/417 136/414/414 664/655/609 328/656/610
f 152/475/475 577/480/480 328/656/610 664/655/609
f 577/480/480 153/479/479 665/657/611 328/656/610
f 138/422/422 547/421/421 329/658/612 666/659/613
f 547/421/421 137/418/418 665/657/611 329/658/612
f 153/479/479 579/484/484 329/658/612 665/657/611
f 579/484/484 154/483/483 666/659/613 329/658/612
f 139/426/426 549/425/425 330/660/614 667/661/615
f 549/425/425 138/422/422 666/659/613 330/660/614
f 154/483/483 581/488/488 330/660/614 666/659/613
f 581/488/488 155/487/487 667/661/615 330/660/614
f 140/430/430 551/429/429 331/662/616 668/663/617
f 551/429/429 139/426/426 667/661/615 331/662/616
f 155/487/487 583/492/492 331/662/616 667/661/615
f 583/492/492 156/491/491 668/663/617 331/662/616
f 141/434/434 553/433/433 332/664/618 669/665/619
f 553/433/433 140/430/430 668/663/617 332/664/618
f 156/491/491 585/496/496 332/664/618 668/663/617
f 585/496/496 157/495/495 669/665/619 332/664/618
f 142/438/438 555/437/437 333/666/620 670/667/621
f 555/437/437 141/434/434 669/665/619 333/666/620
f 157/495/495 587/500/500 333/666/620 669/665/619
f 587/500/500 158/499/499 670/667/621 333/666/620
f 143/442/442 557/441/441 334/668/622 671/669/623
f 557/441/441 142/438/438 670/667/621 334/668/622
f 158/499/499 589/504/504 334/668/622 670/667/621
f 589/504/504 159/503/503 671/669/623 334/668/622
f 144/446/446 559/445/445 335/670/624 672/671/625
f 559/445/445 143/442/442 671/669/623 335/670/624
f 159/503/503 591/508/508 335/670/624 671/669/623
f 591/508/508 160/507/507 672/671/625 335/670/624
f 130/388/388 560/448/448 336/672/626 658/643/597
f 560/448/448 144/446/446 672/671/625 336/672/626
f 160/507/507 592/511/511 336/672/626 672/671/625
f 592/511/511 146/453/453 658/643/597 336/672/626
