# PadForge: shell re-filed to the part it belongs to
o Decal-L1
v -43.162051 -7.067765 52.382554
v -43.160315 -5.809731 52.190694
v -44.411093 -5.803755 52.185799
v -44.412817 -7.061931 52.380892
v -40.676508 -7.091256 52.204492
v -40.667887 -5.839123 52.017565
v -41.912909 -5.827791 52.137661
v -41.918139 -7.081750 52.325587
v -43.162282 -9.558405 52.563141
v -43.161515 -8.308347 52.499103
v -44.412203 -8.302643 52.500586
v -44.412948 -9.555279 52.565026
v -40.677193 -9.570624 52.379410
v -40.673747 -8.326515 52.317078
v -41.916456 -8.318245 52.439588
v -41.918553 -9.565774 52.502434
v -39.436206 -7.108423 52.028212
v -39.433609 -8.338715 52.139888
v -41.917420 -4.594112 51.815118
v -43.161727 -4.574815 51.860946
v -39.427541 -5.861780 51.842305
v -39.434470 -4.634104 51.528792
v -40.675267 -4.608354 51.699790
v -39.437096 -9.579375 52.202362
v -44.412549 -4.566907 51.851760
vn 0.0229 0.1223 0.9922
vn 0.0205 0.2043 0.9787
vn -0.0029 0.2062 0.9785
vn -0.0008 0.1236 0.9923
vn 0.1193 0.1183 0.9858
vn 0.1178 0.1977 0.9732
vn 0.0697 0.2006 0.9772
vn 0.0719 0.1199 0.9902
vn 0.0251 0.0510 0.9984
vn 0.0245 0.0724 0.9971
vn 0.0010 0.0731 0.9973
vn 0.0015 0.0513 0.9987
vn 0.1200 0.0495 0.9915
vn 0.1199 0.0700 0.9903
vn 0.0731 0.0710 0.9948
vn 0.0735 0.0502 0.9960
vn 0.1414 0.1177 0.9829
vn 0.1416 0.0697 0.9875
vn 0.0680 0.2531 0.9651
vn 0.0190 0.2573 0.9661
vn 0.1401 0.1967 0.9704
vn 0.1387 0.2470 0.9590
vn 0.1163 0.2489 0.9615
vn 0.1416 0.0493 0.9887
vn -0.0040 0.2593 0.9658
vt 0.782406 0.584303
vt 0.782190 0.555811
vt 0.810202 0.555457
vt 0.810405 0.584030
vt 0.726610 0.584556
vt 0.726261 0.556208
vt 0.754251 0.556209
vt 0.754534 0.584581
vt 0.782500 0.640234
vt 0.782464 0.612204
vt 0.810485 0.611999
vt 0.810533 0.640108
vt 0.726567 0.640240
vt 0.726567 0.612335
vt 0.754542 0.612367
vt 0.754560 0.640339
vt 0.698542 0.584540
vt 0.698509 0.612260
vt 0.753978 0.527644
vt 0.781928 0.527192
vt 0.698211 0.556248
vt 0.697900 0.527847
vt 0.725977 0.527744
vt 0.698482 0.640112
vt 0.809964 0.526741
s 0
f 1/1/1 2/2/2 3/3/3 4/4/4
f 5/5/5 6/6/6 7/7/7 8/8/8
f 9/9/9 10/10/10 11/11/11 12/12/12
f 13/13/13 14/14/14 15/15/15 16/16/16
f 8/8/8 1/1/1 10/10/10 15/15/15
f 17/17/17 5/5/5 14/14/14 18/18/18
f 19/19/19 20/20/20 2/2/2 7/7/7
f 21/21/21 22/22/22 23/23/23 6/6/6
f 8/8/8 7/7/7 2/2/2 1/1/1
f 17/17/17 21/21/21 6/6/6 5/5/5
f 16/16/16 15/15/15 10/10/10 9/9/9
f 24/24/24 18/18/18 14/14/14 13/13/13
f 1/1/1 4/4/4 11/11/11 10/10/10
f 8/8/8 15/15/15 14/14/14 5/5/5
f 20/20/20 25/25/25 3/3/3 2/2/2
f 19/19/19 7/7/7 6/6/6 23/23/23
