# Blender 4.5.3 LTS
# www.blender.org
o Dualsense.049
v -43.930069 -23.401207 21.519447
v -43.612316 -23.444294 21.519440
v -43.928871 -23.401363 20.875183
v -44.352287 -23.343962 21.519447
v -43.928623 -23.401398 22.163712
v -43.612003 -23.444332 22.212013
v -44.347931 -23.344549 22.056763
v -43.934063 -23.400663 22.807869
v -43.946022 -23.399048 23.199165
v -43.613281 -23.444160 22.904587
v -44.363388 -23.342445 22.593010
v -44.834846 -23.278515 22.321327
v -44.396706 -23.337931 22.907204
v -44.459309 -23.329433 23.158226
v -44.891758 -23.270800 22.545654
v -44.994202 -23.256908 22.720055
v -45.354607 -23.208040 22.192482
v -45.281982 -23.217894 22.054153
v -45.499043 -23.188459 22.293350
v -45.723431 -23.158028 21.890251
v -45.866371 -23.133223 21.715637
v -45.902164 -23.133795 21.933510
v -45.579189 -23.177589 21.880684
v -45.644207 -23.163347 21.695015
v -45.289848 -23.216827 21.792000
v -45.671696 -23.154188 21.519440
v -45.331268 -23.211210 21.519447
v -45.639950 -23.162928 21.342934
v -45.923885 -23.119993 21.519440
v -46.123501 -23.092939 21.519447
v -45.862545 -23.132763 21.321922
v -46.055138 -23.106649 21.300278
v -45.723431 -23.158028 21.148643
v -45.354614 -23.208040 20.846413
v -45.579189 -23.177589 21.158203
v -45.902164 -23.133795 21.105392
v -46.143162 -23.101114 21.046432
v -45.499031 -23.188459 20.745544
v -44.994202 -23.256908 20.318840
v -45.696644 -23.161665 20.616364
v -45.949078 -23.127424 20.456970
v -45.139267 -23.237244 20.103012
v -45.329552 -23.211433 19.856216
v -44.558266 -23.316025 19.577911
v -44.694771 -23.297503 19.245911
v -44.047245 -23.385319 19.143211
v -44.459309 -23.329433 19.880661
v -44.396698 -23.337931 20.131699
v -43.979282 -23.394539 19.520538
v -43.638973 -23.440670 19.327942
v -43.946011 -23.399048 19.839722
v -43.934052 -23.400663 20.231018
v -43.616184 -23.443769 19.695282
v -43.264942 -23.491398 19.632294
v -43.613281 -23.444160 20.134285
v -43.260727 -23.491974 20.093620
v -43.612053 -23.444332 20.826866
v -43.258099 -23.492325 20.806534
v -43.257820 -23.492359 21.519447
v -42.903095 -23.540462 20.801117
v -42.903301 -23.540426 21.519447
v -41.306774 -23.756918 20.761482
v -42.903099 -23.540462 20.082771
v -41.305603 -23.757082 20.003517
v -42.903637 -23.540388 19.610970
v -41.304825 -23.757196 19.499329
v -42.922844 -23.537785 19.208145
v -41.315254 -23.755766 19.066353
v -42.978844 -23.530191 18.746056
v -43.288795 -23.488159 19.242264
v -43.350349 -23.479807 18.793396
v -43.437351 -23.468018 18.340332
v -43.699684 -23.432447 18.901062
v -43.789158 -23.420319 18.462288
v -44.147129 -23.371767 18.742462
v -43.805153 -23.329771 18.250793
v -44.142849 -23.286976 18.505379
v -43.498936 -23.369946 18.154716
v -43.805851 -23.165632 18.113541
v -44.118568 -23.123096 18.347801
v -43.546722 -23.200943 18.040710
v -43.803833 -22.202457 18.115402
v -43.801807 -21.239304 18.117264
v -44.116116 -22.170607 18.349670
v -43.545925 -22.228874 18.042534
v -43.191647 -22.264961 18.001350
v -43.545116 -21.256804 18.044373
v -43.543522 -20.355631 18.048019
v -43.190929 -21.280821 18.002968
v -43.189518 -20.355530 18.006210
v -41.451534 -21.398645 17.800453
v -41.447269 -20.355667 17.803505
v -39.684021 -21.518332 17.643570
v -41.453667 -22.441622 17.798935
v -41.455807 -23.484598 17.797417
v -39.687569 -22.621120 17.642143
v -38.863178 -22.704895 17.613052
v -39.691120 -23.723907 17.640709
v -39.700356 -23.882750 17.755470
v -38.867249 -23.835741 17.611855
v -38.889496 -23.992493 17.725082
v -38.520779 -23.882862 17.676109
v -38.543274 -24.038433 17.782249
v -38.169483 -23.930632 17.810600
v -38.516895 -22.740080 17.676941
v -38.513004 -21.597296 17.677773
v -38.165539 -22.775740 17.811096
v -38.161594 -21.620852 17.811584
v -37.858643 -22.806860 18.008095
v -37.854565 -21.641352 18.008293
v -37.621365 -22.830900 18.266937
v -37.862713 -23.972370 18.007904
v -37.894356 -24.117950 18.034523
v -37.625580 -24.004652 18.266983
v -37.706684 -24.148010 18.313377
v -37.441940 -24.029642 18.623146
v -37.540859 -24.172806 18.670090
v -37.313442 -24.047098 19.124733
v -37.437527 -22.849514 18.623032
v -37.433102 -21.669403 18.622932
v -37.308884 -22.862553 19.124649
v -37.304325 -21.678019 19.124573
v -37.234325 -22.870127 19.787704
v -37.238964 -24.057205 19.787743
v -37.229691 -21.683044 19.787666
v -37.206978 -22.872906 20.652618
v -37.211628 -22.872433 21.519440
v -37.202312 -21.684881 20.652603
v -37.211643 -24.060919 20.652641
v -37.330734 -24.202637 20.662903
v -37.216286 -24.060289 21.519447
v -37.335213 -24.201992 21.519440
v -37.210960 -24.061016 22.386238
v -37.330036 -24.202715 22.375984
v -37.238968 -24.057205 23.251106
v -37.206287 -22.872972 22.386253
v -37.234329 -22.870127 23.251152
v -37.201630 -21.684933 22.386276
v -37.229694 -21.683044 23.251198
v -37.192291 -20.351809 22.386322
v -37.206974 -21.684568 21.519440
v -37.197647 -20.351816 21.519440
v -37.172348 -20.276970 21.519440
v -37.192986 -20.351809 20.652557
v -37.220417 -20.351833 19.787575
v -37.167694 -20.276957 20.651672
v -37.092606 -20.252443 20.649010
v -37.195171 -20.276978 19.785812
v -37.270279 -20.277063 19.119858
v -37.120197 -20.252462 19.780487
v -37.070286 -20.252775 19.776939
v -37.196247 -20.252522 19.106239
v -37.146957 -20.252842 19.097145
v -37.329891 -20.252708 18.586784
v -37.282898 -20.253017 18.568764
v -37.525719 -20.253111 18.208855
v -37.400486 -20.277277 18.613731
v -37.587776 -20.277739 18.252289
v -37.424278 -20.352125 18.622711
v -37.608707 -20.352617 18.266762
v -37.295216 -20.351915 19.124390
v -37.617134 -21.657150 18.266876
v -37.846420 -20.353302 18.008682
v -38.153713 -20.354044 17.812569
v -37.829967 -20.278400 17.989357
v -38.142189 -20.279106 17.790138
v -37.781322 -20.253691 17.931381
v -37.749065 -20.253893 17.892647
v -38.108288 -20.254311 17.722748
v -38.085873 -20.254425 17.677773
v -38.478043 -20.254847 17.582741
v -38.464714 -20.254932 17.534325
v -38.843399 -20.255402 17.516403
v -38.498272 -20.279728 17.655296
v -38.848904 -20.280365 17.591614
v -38.505245 -20.354698 17.679428
v -38.850975 -20.355354 17.616615
v -38.859108 -21.574057 17.614243
v -39.676933 -20.355717 17.646431
v -39.678249 -20.280718 17.621574
v -41.449661 -20.280655 17.778740
v -39.682838 -20.255699 17.546722
v -39.685978 -20.255667 17.496803
v -41.457264 -20.255632 17.704163
v -41.462364 -20.255606 17.654411
v -43.201096 -20.255495 17.907059
v -43.206921 -20.255480 17.857399
v -43.563236 -20.255569 17.949852
v -43.192379 -20.280518 17.981499
v -43.548405 -20.280615 18.023575
v -43.808949 -20.280905 18.098389
v -43.797764 -20.355936 18.120995
v -43.842953 -20.255827 18.030182
v -44.124630 -20.281054 18.336235
v -44.745953 -20.280890 18.909897
v -44.108780 -20.356089 18.355309
v -44.172691 -20.255953 18.278633
v -44.204777 -20.255867 18.240204
v -44.797489 -20.255800 18.855499
v -44.831863 -20.255737 18.819191
v -45.561321 -20.255562 19.598206
v -45.596172 -20.255512 19.562363
v -46.323311 -20.255327 20.338959
v -45.509083 -20.280632 19.651939
v -46.270035 -20.280365 20.391670
v -45.491779 -20.355648 19.669693
v -46.252350 -20.355373 20.409088
v -45.494732 -21.124367 19.665741
v -44.728916 -20.355921 18.927887
v -44.733013 -21.176077 18.924011
v -44.113670 -21.218109 18.351547
v -44.735069 -22.107620 18.922073
v -45.496193 -22.030212 19.663765
v -44.737129 -23.039192 18.920128
v -45.497677 -22.936052 19.661797
v -44.729923 -23.203033 19.049156
v -45.433735 -23.103985 19.732910
v -46.134319 -23.013557 20.409126
v -46.685211 -22.945127 20.976662
v -46.256378 -22.833145 20.401283
v -46.839973 -22.753958 21.014511
v -46.255371 -21.952965 20.403236
v -46.254364 -21.072775 20.405190
v -46.839027 -21.893517 21.016380
v -46.838074 -21.033068 21.018242
v -46.986217 -21.873556 21.255692
v -46.988079 -22.727365 21.254608
v -46.984356 -21.019730 21.256752
v -47.046944 -21.863884 21.519066
v -46.987667 -21.874107 21.782768
v -47.049351 -22.714495 21.518951
v -47.044544 -21.013256 21.519188
v -47.039726 -20.354982 21.519424
v -46.985722 -21.020096 21.781746
v -46.981800 -20.355049 21.779762
v -46.837959 -21.033081 22.020973
v -46.254311 -21.072794 22.633781
v -46.836178 -20.355154 22.016937
v -46.838840 -21.893534 22.022995
v -46.255287 -21.952982 22.635765
v -46.839725 -22.753986 22.025009
v -46.256260 -22.833172 22.637756
v -46.685066 -22.945127 22.062561
v -46.989616 -22.728104 21.783813
v -46.852657 -22.914360 21.803688
v -46.920021 -22.897896 21.519188
v -46.634293 -23.029100 21.810982
v -46.446545 -23.059982 22.076622
v -46.314640 -23.072435 21.767349
v -46.712376 -23.013081 21.519440
v -46.386242 -23.057297 21.519440
v -46.631283 -23.028530 21.227028
v -46.311108 -23.071934 21.270393
v -46.850563 -22.914118 21.234604
v -46.446537 -23.059982 20.962265
v -46.058914 -23.107119 21.737328
v -46.143162 -23.101114 21.992462
v -45.696644 -23.161665 22.422523
v -45.139275 -23.237232 22.935875
v -45.949074 -23.127439 22.581924
v -45.329559 -23.211433 23.182663
v -46.134243 -23.013569 22.629845
v -45.433754 -23.103985 23.305954
v -45.497696 -22.936043 23.377060
v -44.729897 -23.203041 23.989754
v -44.737064 -23.039200 24.118797
v -44.142662 -23.287031 24.533600
v -44.694790 -23.297503 23.792984
v -44.147133 -23.371763 24.296432
v -44.558277 -23.316025 23.460983
v -44.047245 -23.385315 23.895676
v -43.699703 -23.432444 24.137817
v -43.979282 -23.394539 23.518356
v -43.638992 -23.440670 23.710938
v -43.616169 -23.443769 23.343597
v -43.288815 -23.488159 23.796623
v -43.350361 -23.479803 24.245499
v -42.922863 -23.537785 23.830742
v -43.264946 -23.491398 23.406609
v -42.903645 -23.540388 23.427925
v -43.260727 -23.491974 22.945267
v -43.258041 -23.492336 22.232361
v -42.903114 -23.540462 22.956116
v -41.305622 -23.757082 23.035378
v -42.903091 -23.540462 22.237778
v -41.306789 -23.756914 22.277420
v -39.699600 -23.974846 22.313194
v -41.307339 -23.756840 21.519447
v -39.700432 -23.974728 21.519440
v -38.958572 -24.075340 21.519440
v -39.699589 -23.974850 20.725693
v -38.958000 -24.075411 20.711472
v -39.697830 -23.975088 19.931946
v -38.956825 -24.075571 19.903481
v -39.696640 -23.975248 19.404930
v -38.956043 -24.075676 19.372330
v -39.697639 -23.975115 18.953590
v -38.951473 -24.076294 18.920876
v -39.702499 -23.974459 18.440216
v -38.938961 -24.077993 18.407364
v -39.708534 -23.973640 17.938377
v -41.347775 -23.751360 18.572777
v -41.394283 -23.745056 18.087036
v -43.058868 -23.519333 18.284218
v -41.428417 -23.648880 17.907829
v -43.131828 -23.419647 18.106186
v -43.192348 -23.249086 17.999733
v -38.914730 -24.081266 17.905846
v -38.569424 -24.128098 17.953705
v -38.597328 -24.124321 18.420013
v -38.229164 -24.174236 18.046158
v -38.217773 -24.175793 18.423973
v -37.952682 -24.211731 18.109413
v -38.200344 -24.082418 17.898270
v -37.843685 -24.226517 18.368149
v -37.699150 -24.246111 18.731033
v -38.151779 -24.184732 18.837204
v -37.596706 -24.259995 19.208900
v -37.424034 -24.189648 19.161736
v -37.536030 -24.268236 19.832329
v -38.099705 -24.191790 19.290985
v -38.066055 -24.196352 19.865822
v -38.588562 -24.125505 19.351143
v -38.596317 -24.124454 18.903618
v -38.580334 -24.126619 19.890617
v -38.577278 -24.127039 20.705009
v -38.578197 -24.126917 21.519440
v -38.053024 -24.198122 20.692383
v -37.513374 -24.271305 20.675186
v -38.055771 -24.197754 21.519440
v -38.052525 -24.198193 22.346504
v -37.517586 -24.270727 21.519440
v -37.512634 -24.271410 22.363708
v -37.536037 -24.268236 23.206566
v -37.596722 -24.259995 23.829987
v -37.355869 -24.199146 23.230835
v -38.066063 -24.196352 23.173065
v -38.580341 -24.126619 23.148254
v -38.099712 -24.191790 23.747910
v -38.151787 -24.184729 24.201683
v -38.588581 -24.125505 23.687729
v -38.956059 -24.075676 23.666550
v -38.596317 -24.124451 24.135262
v -38.951481 -24.076290 24.118004
v -38.597347 -24.124317 24.618858
v -38.938969 -24.077990 24.631516
v -38.569431 -24.128094 25.085175
v -38.217781 -24.175789 24.614922
v -37.843693 -24.226513 24.670738
v -38.229172 -24.174232 24.992729
v -37.952675 -24.211727 24.929474
v -38.200363 -24.082415 25.140617
v -38.543289 -24.038429 25.256622
v -38.169529 -23.930620 25.228294
v -37.894367 -24.117947 25.004372
v -37.862724 -23.972366 25.030983
v -37.706764 -24.147999 24.725594
v -37.625706 -24.004631 24.772079
v -37.540840 -24.172808 24.368774
v -37.699158 -24.246107 24.307861
v -37.441914 -24.029638 24.415695
v -37.424034 -24.189644 23.877098
v -37.313431 -24.047094 23.914047
v -37.308876 -22.862549 23.914154
v -37.437504 -22.849506 24.415810
v -37.304325 -21.678015 23.914268
v -37.433094 -21.669399 24.415932
v -37.295216 -20.351912 23.914490
v -37.424278 -20.352121 24.416168
v -37.220417 -20.351833 23.251297
v -37.270279 -20.277060 23.919037
v -37.400486 -20.277273 24.425148
v -37.195171 -20.276978 23.253075
v -37.196247 -20.252518 23.932640
v -37.146957 -20.252838 23.941742
v -37.329891 -20.252705 24.452103
v -37.120197 -20.252462 23.258385
v -37.070286 -20.252775 23.261940
v -37.091915 -20.252443 22.389877
v -37.041924 -20.252756 22.391647
v -37.097256 -20.252447 21.519440
v -37.167000 -20.276953 22.387207
v -37.047256 -20.252768 21.519440
v -36.972099 -20.228233 21.519440
v -37.042614 -20.252760 20.647232
v -36.967468 -20.228230 20.644569
v -36.941994 -20.153391 20.643684
v -36.995255 -20.228249 19.771622
v -36.969822 -20.153402 19.769852
v -37.072861 -20.228296 19.083534
v -37.047745 -20.153452 19.078995
v -37.212234 -20.228449 18.541824
v -37.188271 -20.153585 18.532852
v -37.422348 -20.228754 18.136368
v -37.401230 -20.153868 18.121918
v -37.700363 -20.229172 17.834656
v -37.484463 -20.253382 18.179810
v -37.683723 -20.154270 17.815331
v -38.051918 -20.229630 17.610382
v -38.040215 -20.154696 17.587921
v -38.444431 -20.230040 17.461754
v -38.437294 -20.155075 17.437569
v -38.834354 -20.230446 17.390991
v -38.832169 -20.155458 17.365906
v -39.690525 -20.230650 17.421921
v -38.839905 -20.255398 17.466232
v -39.691719 -20.155649 17.396957
v -41.469921 -20.230564 17.579796
v -41.472172 -20.155567 17.554924
v -43.215580 -20.230446 17.782906
v -43.218269 -20.155434 17.758080
v -43.587963 -20.230509 17.826920
v -43.592720 -20.155493 17.802330
v -43.899689 -20.230680 17.916473
v -43.573170 -20.255562 17.900688
v -43.865704 -20.255758 17.984718
v -43.910870 -20.155664 17.893723
v -44.252846 -20.230774 18.182564
v -44.268734 -20.155739 18.163345
v -44.883411 -20.230650 18.764755
v -44.900486 -20.155622 18.746605
v -45.648422 -20.230453 19.508583
v -45.665764 -20.155426 19.490662
v -46.412136 -20.230259 20.250984
v -46.429867 -20.155243 20.233414
v -47.009781 -20.230095 20.878334
v -46.358845 -20.255304 20.303757
v -46.951878 -20.255112 20.926270
v -46.913280 -20.255117 20.958252
v -47.123779 -20.255035 21.208717
v -47.194061 -20.254999 21.519440
v -47.075981 -20.255033 21.225471
v -47.195469 -20.230032 21.183601
v -47.219360 -20.155035 21.175224
v -47.271366 -20.230001 21.519440
v -47.297134 -20.155001 21.519440
v -47.197044 -20.230032 21.854912
v -47.220978 -20.155035 21.863266
v -47.009781 -20.230095 22.160553
v -47.125221 -20.255035 21.829826
v -47.077343 -20.255026 21.813087
v -46.951878 -20.255112 22.112610
v -46.358845 -20.255304 22.735123
v -46.913280 -20.255117 22.080635
v -46.323311 -20.255327 22.699936
v -46.855396 -20.280142 22.032745
v -46.270035 -20.280365 22.647209
v -47.005577 -20.280041 21.788033
v -47.065285 -20.279985 21.519440
v -47.142521 -20.254984 21.519440
v -47.004337 -20.280041 21.250557
v -46.980614 -20.355049 21.258835
v -46.855404 -20.280142 21.006149
v -46.836185 -20.355154 21.021965
v -46.252350 -20.355373 22.629791
v -45.509083 -20.280632 23.386948
v -44.745953 -20.280886 24.128983
v -45.491779 -20.355648 23.369179
v -45.561321 -20.255562 23.440666
v -45.596172 -20.255512 23.476532
v -44.797489 -20.255796 24.183380
v -44.831863 -20.255733 24.219688
v -44.172707 -20.255949 24.760246
v -44.204781 -20.255863 24.798676
v -43.842941 -20.255823 25.008698
v -44.124645 -20.281050 24.702660
v -43.808945 -20.280901 24.940483
v -44.108776 -20.356085 24.683586
v -43.797771 -20.355932 24.917877
v -44.113480 -21.218132 24.687416
v -44.728916 -20.355917 24.110992
v -44.732990 -21.176073 24.114891
v -45.494740 -21.124367 23.373123
v -44.735035 -22.107637 24.116844
v -45.496220 -22.030205 23.375092
v -44.115829 -22.170647 24.689331
v -43.804131 -22.202436 24.923264
v -44.118179 -23.123163 24.691254
v -43.806244 -23.165583 24.925049
v -43.805355 -23.329727 24.787918
v -43.546734 -23.200939 24.998161
v -43.498947 -23.369942 24.884178
v -43.192280 -23.249094 25.039154
v -43.545925 -22.228870 24.996338
v -43.191593 -22.264957 25.037537
v -43.545120 -21.256800 24.994507
v -43.190899 -21.280825 25.035912
v -43.543514 -20.355627 24.990852
v -43.802013 -21.239273 24.921463
v -43.189518 -20.355526 25.032677
v -43.548405 -20.280611 25.015305
v -43.192375 -20.280514 25.057388
v -43.563236 -20.255566 25.089020
v -43.573166 -20.255566 25.138191
v -43.201088 -20.255491 25.131821
v -43.206913 -20.255476 25.181488
v -41.457264 -20.255629 25.334717
v -41.462364 -20.255602 25.384460
v -39.682838 -20.255695 25.492149
v -41.449661 -20.280651 25.260139
v -41.447269 -20.355663 25.235374
v -39.678249 -20.280714 25.417305
v -38.848911 -20.280361 25.447266
v -39.676933 -20.355713 25.392448
v -38.850979 -20.355350 25.422264
v -39.683994 -21.518333 25.395309
v -38.859135 -21.574053 25.424629
v -41.451572 -21.398630 25.238411
v -39.687523 -22.621136 25.396736
v -38.863205 -22.704891 25.425827
v -39.691055 -23.723919 25.398170
v -41.453728 -22.441607 25.239929
v -41.455879 -23.484571 25.241455
v -41.428455 -23.648872 25.131058
v -43.131790 -23.419643 24.932701
v -39.700325 -23.882753 25.283417
v -41.394295 -23.745052 24.951851
v -39.708534 -23.973637 25.100510
v -41.347786 -23.751356 24.466110
v -43.058872 -23.519329 24.754669
v -42.978848 -23.530190 24.292839
v -43.437355 -23.468014 24.698547
v -43.789169 -23.420315 24.576591
v -41.315258 -23.755762 23.972542
v -39.702507 -23.974455 24.598671
v -39.697655 -23.975111 24.085304
v -39.696663 -23.975248 23.633957
v -39.697838 -23.975088 23.106949
v -41.304829 -23.757196 23.539566
v -38.956833 -24.075571 23.135406
v -38.958008 -24.075411 22.327423
v -38.577133 -24.127058 22.333862
v -38.914738 -24.081263 25.133026
v -38.889515 -23.992489 25.313782
v -38.867283 -23.835737 25.427002
v -38.520798 -23.882858 25.362762
v -38.516911 -22.740076 25.361931
v -38.165573 -22.775728 25.227806
v -38.513023 -21.597292 25.361107
v -38.161625 -21.620848 25.227303
v -38.505245 -20.354698 25.359451
v -38.153721 -20.354040 25.226311
v -38.498272 -20.279732 25.383591
v -38.142189 -20.279102 25.248741
v -38.478043 -20.254847 25.456139
v -38.464714 -20.254929 25.504555
v -38.843407 -20.255398 25.522491
v -38.108295 -20.254307 25.316132
v -38.085876 -20.254421 25.361107
v -37.781322 -20.253695 25.107491
v -37.749065 -20.253889 25.146233
v -37.525719 -20.253099 24.830017
v -37.829967 -20.278400 25.049515
v -37.587780 -20.277731 24.786591
v -37.846420 -20.353302 25.030205
v -37.608707 -20.352613 24.772118
v -37.854576 -21.641352 25.030594
v -37.617207 -21.657143 24.772095
v -37.858650 -22.806860 25.030785
v -37.621452 -22.830889 24.772087
v -37.484463 -20.253370 24.859070
v -37.282898 -20.253010 24.470116
v -37.422348 -20.228750 24.902496
v -37.401230 -20.153864 24.916954
v -37.212234 -20.228445 24.497055
v -37.700363 -20.229168 25.204216
v -38.051926 -20.229626 25.428497
v -37.683723 -20.154266 25.223549
v -38.040218 -20.154692 25.450974
v -37.682602 -19.970613 25.223541
v -38.039135 -19.971066 25.450974
v -37.400112 -19.970175 24.916931
v -37.698326 -19.895519 25.204208
v -38.049965 -19.895996 25.428497
v -37.420311 -19.895054 24.902451
v -37.746727 -19.870228 25.146217
v -37.843941 -19.869652 25.030312
v -37.482121 -19.869692 24.859016
v -38.083614 -19.870802 25.361107
v -38.151329 -19.870415 25.226349
v -38.462566 -19.871328 25.504532
v -38.502945 -19.871107 25.359428
v -38.837879 -19.871826 25.572670
v -38.442574 -19.896437 25.577103
v -38.436275 -19.971472 25.601303
v -38.832600 -19.896872 25.647911
v -38.831200 -19.971880 25.672981
v -39.688904 -19.897137 25.616951
v -39.690830 -19.972134 25.641907
v -41.468601 -19.897173 25.459076
v -39.684109 -19.872150 25.542076
v -39.674789 -19.872208 25.392311
v -41.460854 -19.872200 25.384460
v -41.445568 -19.872267 25.235222
v -43.205799 -19.872189 25.181480
v -43.188328 -19.872236 25.032509
v -43.572166 -19.872303 25.138176
v -43.214607 -19.897141 25.255974
v -43.217739 -19.972137 25.280807
v -43.587078 -19.897242 25.211945
v -43.592224 -19.972223 25.236534
v -43.898899 -19.897446 25.122421
v -43.910419 -19.972425 25.145172
v -44.252159 -19.897572 24.856285
v -43.864796 -19.872524 25.054169
v -43.796772 -19.872698 24.917603
v -44.203991 -19.872665 24.798630
v -44.107754 -19.872885 24.683327
v -44.831230 -19.872576 24.219635
v -44.728050 -19.872768 24.110741
v -45.595741 -19.872423 23.476486
v -44.882854 -19.897493 24.274094
v -44.900173 -19.972462 24.292252
v -45.648041 -19.897356 23.530266
v -45.665550 -19.972328 23.548195
v -46.411945 -19.897188 22.787857
v -46.429752 -19.972187 22.805466
v -47.009727 -19.897070 22.160507
v -46.358620 -19.872240 22.735069
v -46.252007 -19.872318 22.629517
v -46.951832 -19.872087 22.112549
v -46.836014 -19.872122 22.016655
v -47.125221 -19.872032 21.829803
v -47.194084 -19.872002 21.519440
v -46.981575 -19.872032 21.779625
v -47.197041 -19.897024 21.854897
v -47.220989 -19.972023 21.863258
v -47.271385 -19.897003 21.519440
v -47.195461 -19.897024 21.183617
v -47.297153 -19.972004 21.519440
v -47.219360 -19.972023 21.175240
v -47.029045 -19.972063 20.862381
v -46.429752 -19.972187 20.233429
v -47.029060 -20.155090 20.862358
v -47.009727 -19.897070 20.878380
v -46.411945 -19.897188 20.251022
v -46.951832 -19.872087 20.926331
v -46.358620 -19.872240 20.303810
v -46.836014 -19.872122 21.022232
v -47.123779 -19.872032 21.208733
v -46.980392 -19.872036 21.258980
v -47.039482 -19.871983 21.519440
v -46.252007 -19.872318 20.409363
v -45.491173 -19.872545 19.669960
v -45.595741 -19.872423 19.562401
v -44.728050 -19.872772 18.928146
v -44.831230 -19.872580 18.819244
v -44.107742 -19.872889 18.355553
v -44.203991 -19.872669 18.240250
v -43.796772 -19.872702 18.121277
v -43.864796 -19.872528 17.984718
v -43.542503 -19.872374 18.048241
v -43.572170 -19.872307 17.900703
v -43.188328 -19.872240 18.006378
v -43.205799 -19.872192 17.857407
v -41.445568 -19.872271 17.803650
v -41.460854 -19.872204 17.654419
v -39.674789 -19.872211 17.646568
v -39.684109 -19.872154 17.496803
v -38.848789 -19.871782 17.616707
v -38.837872 -19.871830 17.466209
v -38.502945 -19.871099 17.679451
v -38.462566 -19.871332 17.534348
v -38.151329 -19.870419 17.812531
v -38.083614 -19.870806 17.677773
v -37.843941 -19.869656 18.008560
v -37.746727 -19.870228 17.892662
v -37.606098 -19.868933 18.266632
v -37.482128 -19.869696 18.179855
v -37.421558 -19.868425 18.622643
v -37.280525 -19.869312 18.568802
v -37.292435 -19.868191 19.124367
v -37.144554 -19.869125 19.097160
v -37.217625 -19.868120 19.787575
v -37.067875 -19.869066 19.776947
v -37.190186 -19.868101 20.652557
v -37.040199 -19.869043 20.647240
v -37.194843 -19.868113 21.519440
v -37.044846 -19.869051 21.519440
v -37.189487 -19.868097 22.386322
v -37.039516 -19.869043 22.391647
v -37.217625 -19.868120 23.251297
v -37.067875 -19.869066 23.261940
v -37.292435 -19.868198 23.914513
v -37.144554 -19.869125 23.941727
v -37.421562 -19.868425 24.416245
v -37.280529 -19.869312 24.470078
v -37.606098 -19.868929 24.772247
v -37.210178 -19.894737 24.497025
v -37.187138 -19.969885 24.506012
v -37.070774 -19.894581 23.955338
v -36.993153 -19.894529 23.267250
v -37.046597 -19.969730 23.959885
v -37.047745 -20.153448 23.959892
v -36.968670 -19.969687 23.269020
v -36.940155 -19.969679 22.395195
v -36.969822 -20.153402 23.269020
v -36.941311 -20.153391 22.395195
v -36.995255 -20.228249 23.267258
v -37.072861 -20.228292 23.955353
v -36.966774 -20.228230 22.394310
v -36.946629 -20.153399 21.519440
v -36.945477 -19.969683 21.519440
v -36.940842 -19.969679 20.643684
v -36.970005 -19.894522 21.519440
v -36.964684 -19.894514 22.394310
v -36.965370 -19.894514 20.644577
v -36.993153 -19.894529 19.771629
v -36.968670 -19.969687 19.769852
v -37.070774 -19.894585 19.083542
v -37.210178 -19.894737 18.541855
v -37.046597 -19.969734 19.079002
v -37.187138 -19.969870 18.532867
v -37.400120 -19.970179 18.121941
v -37.682602 -19.970610 17.815338
v -37.420315 -19.895058 18.136429
v -37.698326 -19.895523 17.834671
v -38.049965 -19.896000 17.610374
v -38.442566 -19.896441 17.461777
v -38.039135 -19.971069 17.587914
v -38.436275 -19.971474 17.437576
v -38.831188 -19.971884 17.365891
v -39.690830 -19.972137 17.396965
v -38.832592 -19.896875 17.390968
v -39.688904 -19.897141 17.421928
v -41.468601 -19.897177 17.579803
v -43.214607 -19.897144 17.782906
v -41.471443 -19.972168 17.554932
v -43.217739 -19.972141 17.758072
v -43.592228 -19.972235 17.802345
v -43.910419 -19.972427 17.893715
v -43.587086 -19.897255 17.826935
v -43.898899 -19.897449 17.916458
v -44.252155 -19.897575 18.182602
v -44.268349 -19.972544 18.163376
v -44.882854 -19.897497 18.764786
v -45.648041 -19.897356 19.508621
v -44.900173 -19.972466 18.746635
v -45.665550 -19.972328 19.490685
v -37.188271 -20.153582 24.506027
v -47.029045 -19.972063 22.176506
v -47.029060 -20.155090 22.176529
v -46.429867 -20.155243 22.805481
v -45.665764 -20.155426 23.548218
v -46.412136 -20.230259 22.787903
v -45.648422 -20.230453 23.530296
v -44.883411 -20.230646 24.274139
v -44.900486 -20.155619 24.292274
v -44.252853 -20.230770 24.856316
v -44.268742 -20.155735 24.875534
v -43.899681 -20.230677 25.122406
v -43.910870 -20.155661 25.145164
v -43.587955 -20.230505 25.211960
v -43.865704 -20.255754 25.054153
v -43.592720 -20.155493 25.236549
v -43.215580 -20.230442 25.255974
v -43.218269 -20.155430 25.280807
v -41.469921 -20.230560 25.459076
v -41.472172 -20.155563 25.483948
v -39.690525 -20.230646 25.616959
v -39.691719 -20.155645 25.641914
v -38.834373 -20.230442 25.647888
v -39.685978 -20.255663 25.542076
v -38.839909 -20.255394 25.572647
v -38.832176 -20.155455 25.672974
v -38.444435 -20.230036 25.577126
v -38.437302 -20.155079 25.601318
v -41.471443 -19.972164 25.483948
v -44.268353 -19.972540 24.875511
v -45.491173 -19.872545 23.368927
v -43.542500 -19.872360 24.990639
v -38.848789 -19.871778 25.422173
v -37.355865 -24.199146 19.808029
v -44.363388 -23.342461 20.445885
v -44.834854 -23.278515 20.717575
v -44.348698 -23.344454 20.982132
v -44.820045 -23.280531 21.116371
v -45.291882 -23.216553 21.247162
v -44.834251 -23.278605 21.519447
v -44.818569 -23.280724 21.922569
v -45.281982 -23.217894 20.984726
v -44.891758 -23.270800 20.493233
vn -0.1344 -0.9909 -0.0000
vn -0.1349 -0.9909 -0.0018
vn -0.1359 -0.9906 -0.0145
vn -0.1362 -0.9906 -0.0103
vn -0.1365 -0.9906 -0.0122
vn -0.1427 -0.9896 -0.0196
vn -0.1368 -0.9902 -0.0268
vn -0.1370 -0.9903 -0.0238
vn -0.1393 -0.9902 -0.0050
vn -0.1450 -0.9894 -0.0020
vn -0.1467 -0.9892 -0.0007
vn -0.1355 -0.9908 -0.0025
vn -0.1436 -0.9895 0.0192
vn -0.1399 -0.9901 0.0051
vn -0.1370 -0.9902 0.0268
vn -0.1356 -0.9908 -0.0022
vn -0.1373 -0.9902 0.0238
vn -0.1369 -0.9905 0.0145
vn -0.1362 -0.9905 0.0172
vn -0.1365 -0.9906 0.0123
vn -0.1350 -0.9908 0.0022
vn -0.1367 -0.9905 0.0127
vn -0.1371 -0.9903 0.0206
vn -0.3016 -0.9425 -0.1440
vn -0.2942 -0.9403 -0.1711
vn -0.2951 -0.9396 -0.1736
vn -0.2917 -0.9411 -0.1710
vn -0.2778 -0.9454 -0.1703
vn -0.1779 -0.9602 -0.2156
vn -0.1583 -0.9623 -0.2210
vn -0.2408 -0.9505 -0.1964
vn -0.5103 -0.7059 -0.4912
vn -0.3867 -0.7367 -0.5547
vn -0.2307 -0.7568 -0.6115
vn -0.6323 -0.2666 -0.7275
vn -0.4440 -0.2909 -0.8475
vn -0.2294 -0.3060 -0.9240
vn -0.4433 0.0026 -0.8964
vn -0.6402 0.0030 -0.7682
vn -0.1941 0.0020 -0.9810
vn -0.1954 0.0032 -0.9807
vn -0.4445 0.0042 -0.8958
vn -0.6404 0.0049 -0.7680
vn -0.1154 0.0018 -0.9933
vn -0.1521 -0.2992 -0.9420
vn -0.1158 0.0027 -0.9933
vn -0.4397 -0.1616 -0.8835
vn -0.1941 -0.1589 -0.9680
vn -0.1148 -0.1576 -0.9808
vn -0.1007 -0.1580 -0.9823
vn -0.1019 0.0025 -0.9948
vn -0.1019 0.0017 -0.9948
vn -0.0613 -0.1586 -0.9854
vn -0.0619 0.0021 -0.9981
vn -0.0617 0.0014 -0.9981
vn -0.1372 -0.2966 -0.9451
vn -0.0984 -0.2986 -0.9493
vn 0.0727 0.0011 -0.9974
vn 0.0736 0.0008 -0.9973
vn 0.0322 -0.2985 -0.9539
vn -0.1666 -0.7475 -0.6431
vn -0.1417 -0.7476 -0.6488
vn -0.0566 -0.7478 -0.6615
vn 0.2174 -0.2931 -0.9310
vn 0.0733 -0.7399 -0.6688
vn 0.2702 -0.0002 -0.9628
vn 0.3937 -0.2482 -0.8851
vn 0.2014 -0.6751 -0.7097
vn 0.4507 -0.0012 -0.8927
vn 0.2690 -0.0003 -0.9631
vn 0.4497 -0.0016 -0.8932
vn 0.6431 -0.0030 -0.7658
vn 0.6439 -0.0021 -0.7651
vn 0.6140 -0.2125 -0.7601
vn 0.8195 -0.0041 -0.5731
vn 0.8200 -0.0030 -0.5724
vn 0.7937 -0.2572 -0.5512
vn 0.4537 -0.6207 -0.6395
vn 0.5928 -0.6995 -0.3992
vn 0.8838 -0.3133 -0.3476
vn 0.5833 -0.7755 -0.2417
vn 0.9345 -0.0035 -0.3559
vn 0.9269 -0.3307 -0.1774
vn 0.5884 -0.7997 -0.1197
vn 0.9836 -0.0038 -0.1806
vn 0.9343 -0.0049 -0.3564
vn 0.9835 -0.0053 -0.1808
vn 0.9974 -0.0054 -0.0718
vn 0.9974 -0.0039 -0.0718
vn 0.9382 -0.3388 -0.0705
vn 0.9999 -0.0039 -0.0131
vn 0.9394 -0.3426 -0.0129
vn 0.9999 -0.0055 -0.0131
vn 1.0000 -0.0039 -0.0004
vn 0.9389 -0.3443 -0.0004
vn 1.0000 -0.0055 -0.0004
vn 0.5849 -0.8098 -0.0469
vn 0.5804 -0.8143 -0.0084
vn 0.5775 -0.8164 -0.0003
vn 0.9999 -0.0039 0.0131
vn 0.9394 -0.3426 0.0130
vn 0.5805 -0.8142 0.0084
vn 0.5848 -0.8098 0.0472
vn 0.9382 -0.3388 0.0709
vn 0.9974 -0.0039 0.0722
vn 0.9999 -0.0055 0.0131
vn 0.9974 -0.0054 0.0722
vn 0.9835 -0.1664 0.0713
vn 0.9860 -0.1660 0.0129
vn 0.9862 -0.1656 -0.0004
vn 0.9860 -0.1660 -0.0129
vn 0.7043 -0.7099 -0.0003
vn 0.7005 -0.7136 0.0092
vn 0.7006 -0.7135 -0.0092
vn 0.9835 -0.1664 -0.0709
vn 0.6956 -0.7167 -0.0501
vn 0.1521 -0.9884 -0.0020
vn 0.1546 -0.9880 -0.0001
vn 0.1495 -0.9887 -0.0107
vn 0.1445 -0.9892 -0.0264
vn 0.6813 -0.7212 -0.1252
vn 0.9697 -0.1670 -0.1784
vn 0.1580 -0.9870 -0.0289
vn 0.1574 -0.9875 -0.0113
vn 0.1558 -0.9878 -0.0020
vn 0.1332 -0.9898 -0.0502
vn 0.1540 -0.9863 -0.0583
vn 0.6404 -0.7282 -0.2441
vn 0.1160 -0.9900 -0.0798
vn 0.1373 -0.9859 -0.0951
vn 0.5593 -0.7312 -0.3905
vn 0.9210 -0.1681 -0.3515
vn 0.8077 -0.1680 -0.5652
vn 0.6337 -0.1666 -0.7554
vn 0.4400 -0.7298 -0.5232
vn 0.4431 -0.1643 -0.8813
vn 0.3102 -0.7245 -0.6155
vn 0.0670 -0.9892 -0.1304
vn 0.0925 -0.9898 -0.1082
vn 0.0759 -0.9860 -0.1487
vn 0.1087 -0.9858 -0.1280
vn 0.0412 -0.9888 -0.1433
vn 0.0458 -0.9859 -0.1607
vn 0.1864 -0.7218 -0.6665
vn 0.0115 -0.9889 -0.1478
vn 0.0128 -0.9855 -0.1690
vn 0.0503 -0.7239 -0.6881
vn 0.2648 -0.1626 -0.9505
vn 0.0714 -0.1617 -0.9843
vn -0.0437 -0.7104 -0.7025
vn -0.0720 -0.7084 -0.7021
vn -0.0163 -0.9872 -0.1584
vn -0.0097 -0.9875 -0.1576
vn -0.0166 -0.9868 -0.1611
vn -0.0100 -0.9866 -0.1627
vn -0.0186 -0.9870 -0.1594
vn -0.0187 -0.9870 -0.1596
vn -0.0824 -0.7065 -0.7029
vn -0.0296 -0.9883 -0.1494
vn -0.0328 -0.9857 -0.1651
vn -0.1368 -0.7186 -0.6819
vn -0.3015 -0.7363 -0.6058
vn -0.0624 -0.9900 -0.1262
vn -0.6328 -0.1564 -0.7584
vn -0.4493 -0.7130 -0.5383
vn -0.1002 -0.9877 -0.1202
vn -0.1103 -0.9871 -0.1162
vn -0.4862 -0.7075 -0.5129
vn -0.6795 -0.1557 -0.7170
vn -0.1065 -0.9861 -0.1277
vn -0.0785 -0.9843 -0.1581
vn -0.1120 -0.9867 -0.1179
vn -0.1125 -0.9869 -0.1154
vn -0.1124 -0.9869 -0.1153
vn -0.4939 -0.7058 -0.5078
vn -0.1131 -0.9873 -0.1116
vn -0.1157 -0.9867 -0.1142
vn -0.5014 -0.7088 -0.4961
vn -0.6887 -0.1558 -0.7081
vn -0.7020 -0.1565 -0.6948
vn -0.7108 0.0042 -0.7033
vn -0.6974 0.0045 -0.7167
vn -0.6881 0.0049 -0.7256
vn -0.6883 0.0030 -0.7254
vn -0.6977 0.0027 -0.7164
vn -0.6833 -0.2532 -0.6848
vn -0.6925 -0.2495 -0.6769
vn -0.5469 -0.6890 -0.4756
vn -0.5563 -0.6792 -0.4787
vn -0.5628 -0.6764 -0.4752
vn -0.7065 -0.2356 -0.6674
vn -0.5998 -0.6909 -0.4036
vn -0.7870 -0.2537 -0.5623
vn -0.7110 0.0024 -0.7032
vn -0.7923 0.0023 -0.6102
vn -0.7927 0.0041 -0.6096
vn -0.9252 0.0025 -0.3794
vn -0.9258 0.0044 -0.3780
vn -0.8987 -0.2775 -0.3397
vn -0.9593 -0.2825 -0.0031
vn -1.0000 0.0027 -0.0027
vn -1.0000 0.0048 -0.0025
vn -0.9257 0.0025 0.3783
vn -0.9261 0.0045 0.3771
vn -0.8992 -0.2777 0.3382
vn -0.9144 -0.1606 0.3717
vn -0.9864 -0.1641 -0.0022
vn -0.9142 -0.1603 -0.3722
vn -0.7917 0.0042 0.6109
vn -0.7826 -0.1580 0.6021
vn -0.7912 0.0024 0.6115
vn -0.7109 0.0025 0.7032
vn -0.7108 0.0042 0.7034
vn -0.7020 -0.1564 0.6948
vn -0.7857 -0.2528 0.5646
vn -0.7064 -0.2357 0.6675
vn -0.5994 -0.6898 0.4062
vn -0.5627 -0.6764 0.4752
vn -0.6557 -0.7181 0.2332
vn -0.6849 -0.7287 -0.0029
vn -0.3392 -0.9407 -0.0023
vn -0.3208 -0.9440 0.0774
vn -0.3012 -0.9423 0.1458
vn -0.1369 -0.9904 -0.0207
vn -0.1363 -0.9906 -0.0107
vn -0.1355 -0.9908 -0.0019
vn -0.3195 -0.9445 -0.0764
vn -0.6547 -0.7190 -0.2332
vn -0.2942 -0.9403 0.1711
vn -0.2951 -0.9396 0.1736
vn -0.5563 -0.6792 0.4787
vn -0.6925 -0.2495 0.6769
vn -0.2917 -0.9411 0.1711
vn -0.5469 -0.6889 0.4757
vn -0.6832 -0.2531 0.6849
vn -0.5103 -0.7059 0.4912
vn -0.6323 -0.2665 0.7275
vn -0.2778 -0.9454 0.1704
vn -0.2408 -0.9505 0.1964
vn -0.1453 -0.9617 -0.2326
vn -0.1164 -0.9624 -0.2455
vn -0.1533 -0.9616 -0.2276
vn -0.1800 -0.7519 -0.6342
vn -0.0695 -0.9646 -0.2545
vn -0.0324 -0.9570 -0.2883
vn 0.1592 -0.9762 -0.1473
vn 0.1561 -0.9355 -0.3169
vn 0.1359 -0.9868 -0.0885
vn 0.1261 -0.9911 -0.0419
vn 0.1197 -0.9927 -0.0162
vn 0.1116 -0.9937 -0.0001
vn 0.1152 -0.9933 -0.0027
vn 0.1154 -0.9933 0.0027
vn 0.1197 -0.9927 0.0163
vn 0.1261 -0.9911 0.0419
vn 0.5884 -0.7997 0.1196
vn 0.1359 -0.9868 0.0886
vn -0.0695 -0.9646 0.2545
vn -0.1164 -0.9624 0.2455
vn -0.0324 -0.9570 0.2884
vn 0.1592 -0.9762 0.1473
vn 0.1561 -0.9355 0.3169
vn 0.4537 -0.6206 0.6395
vn 0.2014 -0.6751 0.7098
vn 0.0733 -0.7398 0.6688
vn 0.3937 -0.2482 0.8851
vn 0.2174 -0.2931 0.9310
vn 0.6140 -0.2125 0.7602
vn 0.5928 -0.6994 0.3992
vn 0.7937 -0.2572 0.5513
vn 0.8838 -0.3133 0.3476
vn 0.5833 -0.7754 0.2417
vn 0.9269 -0.3307 0.1774
vn 0.9836 -0.0038 0.1806
vn 0.9345 -0.0035 0.3559
vn 0.9835 -0.0053 0.1808
vn 0.9343 -0.0049 0.3564
vn 0.9697 -0.1670 0.1784
vn 0.9210 -0.1681 0.3515
vn 0.6813 -0.7212 0.1252
vn 0.6405 -0.7282 0.2441
vn 0.6956 -0.7166 0.0504
vn 0.1445 -0.9892 0.0264
vn 0.1333 -0.9898 0.0503
vn 0.1496 -0.9887 0.0108
vn 0.1574 -0.9875 0.0114
vn 0.1580 -0.9870 0.0289
vn 0.1540 -0.9863 0.0583
vn 0.1520 -0.9884 0.0020
vn 0.1558 -0.9878 0.0020
vn 0.1534 -0.9882 -0.0001
vn 0.7019 -0.7123 -0.0003
vn 0.7053 -0.7088 0.0093
vn 0.7052 -0.7090 -0.0093
vn 0.7063 -0.7060 -0.0510
vn 0.9860 -0.1665 -0.0004
vn 0.9860 -0.1661 -0.0131
vn 0.9836 -0.1658 -0.0710
vn 0.9699 -0.1654 -0.1786
vn 0.7003 -0.7021 -0.1288
vn 0.9214 -0.1649 -0.3520
vn 0.6702 -0.6967 -0.2558
vn 0.8078 -0.1641 -0.5661
vn 0.5899 -0.6939 -0.4129
vn 0.6335 -0.1631 -0.7564
vn 0.4628 -0.6936 -0.5520
vn 0.4425 -0.1619 -0.8820
vn 0.3225 -0.6957 -0.6418
vn 0.2641 -0.1608 -0.9510
vn 0.1925 -0.6963 -0.6914
vn 0.0708 -0.1598 -0.9846
vn 0.0519 -0.6938 -0.7183
vn -0.0615 -0.1596 -0.9853
vn -0.0442 -0.7034 -0.7094
vn -0.1007 -0.1596 -0.9820
vn -0.0724 -0.7049 -0.7056
vn -0.1150 -0.1598 -0.9804
vn -0.0824 -0.7066 -0.7028
vn -0.1948 -0.1588 -0.9679
vn -0.1416 -0.6960 -0.7040
vn -0.4407 -0.1588 -0.8835
vn -0.3251 -0.6849 -0.6520
vn -0.4580 -0.6995 -0.5486
vn -0.6328 -0.1583 -0.7580
vn -0.6791 -0.1588 -0.7167
vn -0.4882 -0.7045 -0.5151
vn -0.6882 -0.1593 -0.7078
vn -0.4934 -0.7065 -0.5073
vn -0.7016 -0.1594 -0.6945
vn -0.5048 -0.7040 -0.4995
vn -0.7835 -0.1585 -0.6008
vn -0.5729 -0.6923 -0.4387
vn -0.1360 -0.9853 -0.1034
vn -0.1187 -0.9887 -0.0911
vn -0.1613 -0.9847 -0.0661
vn -0.1324 -0.9898 -0.0528
vn -0.6734 -0.6872 -0.2725
vn -0.1768 -0.9843 -0.0004
vn -0.7298 -0.6837 -0.0016
vn -0.1343 -0.9909 -0.0002
vn -0.9155 -0.1593 -0.3695
vn -0.9869 -0.1612 -0.0021
vn -0.9157 -0.1594 0.3690
vn -0.6737 -0.6870 0.2723
vn -0.1614 -0.9847 0.0661
vn -0.5721 -0.6925 0.4395
vn -0.7826 -0.1585 0.6021
vn -0.1356 -0.9853 0.1035
vn -0.1187 -0.9887 0.0914
vn -0.1319 -0.9899 0.0525
vn -0.1157 -0.9867 0.1142
vn -0.5048 -0.7040 0.4995
vn -0.1131 -0.9873 0.1116
vn -0.5488 -0.7217 0.4218
vn -0.5014 -0.7088 0.4961
vn -0.6302 -0.7333 0.2552
vn -0.6667 -0.7453 -0.0014
vn -0.6310 -0.7324 -0.2558
vn -0.7836 -0.1581 -0.6008
vn -0.5493 -0.7220 -0.4208
vn -0.6887 -0.1558 0.7081
vn -0.4939 -0.7058 0.5078
vn -0.1125 -0.9869 0.1154
vn -0.1103 -0.9871 0.1161
vn -0.4862 -0.7075 0.5129
vn -0.6795 -0.1557 0.7170
vn -0.1120 -0.9867 0.1179
vn -0.1124 -0.9869 0.1153
vn -0.1002 -0.9877 0.1202
vn -0.1065 -0.9861 0.1276
vn -0.4493 -0.7130 0.5383
vn -0.0624 -0.9900 0.1262
vn -0.0785 -0.9843 0.1581
vn -0.3015 -0.7363 0.6058
vn -0.6328 -0.1565 0.7584
vn -0.4397 -0.1617 0.8835
vn -0.6405 0.0049 0.7680
vn -0.4447 0.0042 0.8957
vn -0.6881 0.0049 0.7256
vn -0.6974 0.0045 0.7167
vn -0.6977 0.0027 0.7164
vn -0.6883 0.0030 0.7254
vn -0.6402 0.0030 0.7682
vn -0.4436 0.0026 0.8962
vn -0.4443 -0.2908 0.8473
vn -0.3869 -0.7366 0.5547
vn -0.2308 -0.7568 0.6116
vn -0.2296 -0.3060 0.9239
vn -0.1943 0.0020 0.9809
vn -0.1521 -0.2992 0.9420
vn -0.1800 -0.7519 0.6342
vn -0.1154 0.0018 0.9933
vn -0.1158 0.0027 0.9933
vn -0.1955 0.0032 0.9807
vn -0.1148 -0.1576 0.9808
vn -0.1941 -0.1589 0.9680
vn -0.0824 -0.7065 0.7029
vn -0.1368 -0.7186 0.6818
vn -0.0186 -0.9870 0.1594
vn -0.0295 -0.9883 0.1494
vn -0.0328 -0.9857 0.1651
vn -0.0186 -0.9870 0.1596
vn -0.0163 -0.9872 0.1584
vn -0.0166 -0.9868 0.1611
vn -0.0720 -0.7084 0.7021
vn -0.0097 -0.9875 0.1576
vn -0.0100 -0.9866 0.1627
vn -0.0437 -0.7104 0.7025
vn -0.1007 -0.1580 0.9823
vn -0.0613 -0.1586 0.9854
vn 0.0115 -0.9889 0.1478
vn 0.0503 -0.7239 0.6881
vn 0.0714 -0.1617 0.9842
vn -0.0619 0.0021 0.9981
vn 0.0727 0.0011 0.9974
vn -0.1019 0.0025 0.9948
vn -0.0617 0.0014 0.9981
vn 0.0736 0.0008 0.9973
vn -0.1019 0.0017 0.9948
vn -0.0984 -0.2986 0.9493
vn 0.0322 -0.2985 0.9539
vn -0.1372 -0.2966 0.9451
vn -0.1666 -0.7474 0.6431
vn -0.1417 -0.7476 0.6489
vn -0.1583 -0.9623 0.2211
vn -0.1533 -0.9616 0.2277
vn -0.1453 -0.9617 0.2326
vn -0.1779 -0.9601 0.2156
vn -0.0566 -0.7478 0.6615
vn 0.2701 -0.0002 0.9628
vn 0.4507 -0.0012 0.8927
vn 0.4497 -0.0016 0.8932
vn 0.2690 -0.0003 0.9631
vn 0.4431 -0.1643 0.8813
vn 0.2648 -0.1627 0.9505
vn 0.3102 -0.7245 0.6155
vn 0.1864 -0.7218 0.6665
vn 0.0670 -0.9892 0.1305
vn 0.0412 -0.9888 0.1433
vn 0.0759 -0.9860 0.1488
vn 0.0458 -0.9859 0.1607
vn 0.0128 -0.9855 0.1690
vn 0.0926 -0.9898 0.1082
vn 0.1087 -0.9858 0.1280
vn 0.4400 -0.7298 0.5232
vn 0.1160 -0.9900 0.0799
vn 0.1373 -0.9859 0.0951
vn 0.5593 -0.7312 0.3906
vn 0.6337 -0.1666 0.7554
vn 0.8077 -0.1680 0.5652
vn 0.6430 -0.0030 0.7658
vn 0.8195 -0.0041 0.5731
vn 0.6439 -0.0021 0.7651
vn 0.8199 -0.0030 0.5725
vn 0.5898 -0.6940 0.4129
vn 0.4628 -0.6937 0.5519
vn 0.6702 -0.6967 0.2558
vn 0.8078 -0.1642 0.5661
vn 0.6335 -0.1631 0.7564
vn 0.9214 -0.1649 0.3520
vn 0.3225 -0.6958 0.6418
vn 0.4425 -0.1619 0.8820
vn 0.4426 0.1568 0.8829
vn 0.6341 0.1556 0.7575
vn 0.8090 0.1546 0.5671
vn 0.4653 0.6883 0.5566
vn 0.3231 0.6920 0.6455
vn 0.5947 0.6872 0.4173
vn 0.1115 0.9845 0.1353
vn 0.0760 0.9851 0.1545
vn 0.1441 0.9843 0.1023
vn 0.0012 1.0000 0.0040
vn -0.0002 1.0000 0.0031
vn 0.0033 1.0000 0.0039
vn -0.0011 1.0000 0.0018
vn 0.0442 0.9854 0.1642
vn 0.1919 0.6942 0.6937
vn -0.0009 1.0000 0.0006
vn 0.0114 0.9854 0.1701
vn 0.0514 0.6929 0.7192
vn 0.2639 0.1579 0.9515
vn 0.0707 0.1589 0.9848
vn -0.0615 0.1600 0.9852
vn -0.0443 0.7035 0.7093
vn -0.0103 0.9867 0.1623
vn -0.1006 0.1604 0.9819
vn -0.0723 0.7055 0.7051
vn -0.0164 0.9869 0.1603
vn -0.0000 1.0000 -0.0004
vn -0.0002 1.0000 -0.0002
vn -0.0001 1.0000 -0.0004
vn -0.0188 0.9872 0.1587
vn -0.0824 0.7073 0.7020
vn -0.0005 1.0000 -0.0007
vn -0.0335 0.9860 0.1636
vn -0.1417 0.6970 0.7029
vn -0.1150 0.1606 0.9803
vn -0.1949 0.1599 0.9677
vn -0.4405 0.1607 0.8832
vn -0.3248 0.6863 0.6508
vn -0.0784 0.9846 0.1560
vn -0.6325 0.1609 0.7577
vn -0.4569 0.7012 0.5473
vn -0.1050 0.9865 0.1256
vn -0.0001 1.0000 -0.0012
vn 0.0007 1.0000 -0.0011
vn 0.0009 1.0000 -0.0008
vn -0.1102 0.9871 0.1165
vn -0.4869 0.7061 0.5141
vn 0.0007 1.0000 -0.0005
vn -0.1109 0.9872 0.1144
vn -0.4923 0.7077 0.5067
vn -0.6787 0.1612 0.7165
vn -0.6879 0.1610 0.7077
vn -0.7014 0.1604 0.6945
vn -0.5040 0.7048 0.4992
vn -0.1146 0.9869 0.1138
vn -0.7824 0.1590 0.6021
vn -0.5716 0.6929 0.4395
vn -0.1350 0.9854 0.1035
vn 0.0003 1.0000 -0.0000
vn 0.0005 1.0000 -0.0002
vn -0.1613 0.9847 0.0664
vn 0.0001 1.0000 0.0001
vn -0.6735 0.6872 0.2724
vn -0.1768 0.9842 -0.0004
vn -0.7297 0.6837 -0.0016
vn -0.0000 1.0000 -0.0000
vn -0.9156 0.1595 0.3691
vn -0.9869 0.1612 -0.0021
vn -0.1612 0.9847 -0.0664
vn -0.6732 0.6874 -0.2727
vn -0.9154 0.1594 -0.3696
vn -0.7834 0.1589 -0.6009
vn -0.5725 0.6927 -0.4387
vn -0.7014 0.1604 -0.6945
vn -0.5040 0.7048 -0.4992
vn -0.1354 0.9854 -0.1034
vn -0.1146 0.9869 -0.1138
vn 0.0005 1.0000 0.0002
vn 0.0001 1.0000 -0.0001
vn 0.0007 1.0000 0.0005
vn -0.1109 0.9872 -0.1144
vn 0.0009 1.0000 0.0008
vn -0.1102 0.9871 -0.1165
vn 0.0007 1.0000 0.0011
vn -0.1050 0.9865 -0.1256
vn -0.0001 1.0000 0.0012
vn -0.0784 0.9846 -0.1560
vn -0.0005 1.0000 0.0008
vn -0.0335 0.9860 -0.1636
vn -0.0001 1.0000 0.0004
vn -0.0188 0.9872 -0.1587
vn -0.0000 1.0000 0.0004
vn -0.0164 0.9869 -0.1603
vn -0.0002 1.0000 0.0002
vn -0.0103 0.9867 -0.1623
vn -0.0009 1.0000 -0.0006
vn 0.0114 0.9854 -0.1701
vn -0.0011 1.0000 -0.0018
vn 0.0442 0.9854 -0.1642
vn -0.0002 1.0000 -0.0031
vn 0.0760 0.9851 -0.1545
vn 0.0012 1.0000 -0.0040
vn 0.1116 0.9845 -0.1353
vn 0.0033 1.0000 -0.0039
vn 0.1441 0.9843 -0.1023
vn 0.0051 1.0000 -0.0027
vn 0.1641 0.9844 -0.0633
vn 0.0060 1.0000 -0.0013
vn 0.1698 0.9850 -0.0315
vn 0.0063 1.0000 -0.0005
vn 0.1697 0.9854 -0.0123
vn 0.1682 0.9858 -0.0022
vn 0.0063 1.0000 -0.0001
vn 0.1658 0.9862 -0.0001
vn 0.0063 1.0000 -0.0000
vn 0.0063 1.0000 0.0001
vn 0.1682 0.9857 0.0022
vn 0.0062 1.0000 0.0005
vn 0.1697 0.9854 0.0124
vn 0.0060 1.0000 0.0013
vn 0.1698 0.9850 0.0315
vn 0.0051 1.0000 0.0027
vn 0.1641 0.9844 0.0633
vn 0.6771 0.6888 0.2590
vn 0.7085 0.6936 0.1306
vn 0.9230 0.1538 0.3528
vn 0.9718 0.1534 0.1790
vn 0.7149 0.6973 0.0519
vn 0.9856 0.1535 0.0715
vn 0.9699 -0.1654 0.1786
vn 0.9836 -0.1658 0.0714
vn 0.9880 0.1537 0.0132
vn 0.7141 0.7000 0.0095
vn 0.9860 -0.1661 0.0131
vn 0.7063 -0.7061 0.0512
vn 0.7003 -0.7021 0.1288
vn 0.9881 0.1540 -0.0004
vn 0.9880 0.1537 -0.0132
vn 0.7108 0.7034 -0.0003
vn 0.7140 0.7001 -0.0095
vn 0.7150 0.6972 -0.0517
vn 0.9856 0.1535 -0.0712
vn 0.9718 0.1534 -0.1790
vn 0.7085 0.6935 -0.1306
vn 0.6771 0.6888 -0.2590
vn 0.9230 0.1538 -0.3528
vn 0.8090 0.1546 -0.5671
vn 0.5947 0.6872 -0.4173
vn 0.6340 0.1556 -0.7575
vn 0.4653 0.6883 -0.5566
vn 0.4426 0.1568 -0.8829
vn 0.3231 0.6920 -0.6455
vn 0.1919 0.6942 -0.6937
vn 0.2639 0.1579 -0.9515
vn 0.0707 0.1589 -0.9848
vn 0.0514 0.6929 -0.7192
vn -0.0615 0.1601 -0.9852
vn -0.0443 0.7036 -0.7092
vn -0.1006 0.1604 -0.9819
vn -0.0723 0.7055 -0.7050
vn -0.0824 0.7073 -0.7020
vn -0.1150 0.1606 -0.9803
vn -0.1949 0.1599 -0.9677
vn -0.1418 0.6969 -0.7030
vn -0.4406 0.1607 -0.8832
vn -0.3248 0.6863 -0.6508
vn -0.4569 0.7012 -0.5473
vn -0.6325 0.1609 -0.7577
vn -0.6787 0.1612 -0.7165
vn -0.4869 0.7061 -0.5142
vn -0.4924 0.7077 -0.5067
vn -0.6879 0.1610 -0.7077
vn -0.7016 -0.1594 0.6945
vn -0.6882 -0.1593 0.7078
vn -0.4934 -0.7065 0.5073
vn -0.6791 -0.1588 0.7167
vn -0.4882 -0.7045 0.5151
vn -0.6328 -0.1583 0.7580
vn -0.4580 -0.6995 0.5486
vn -0.4407 -0.1588 0.8835
vn -0.3251 -0.6850 0.6520
vn -0.1948 -0.1589 0.9679
vn -0.1415 -0.6960 0.7040
vn -0.1150 -0.1598 0.9804
vn -0.0824 -0.7066 0.7028
vn -0.1007 -0.1596 0.9820
vn -0.0724 -0.7049 0.7056
vn -0.0615 -0.1596 0.9853
vn -0.0442 -0.7034 0.7095
vn 0.0708 -0.1598 0.9846
vn 0.0518 -0.6938 0.7183
vn 0.1925 -0.6963 0.6914
vn 0.2641 -0.1608 0.9510
vt 0.949560 0.337240
vt 0.947513 0.337241
vt 0.947655 0.336297
vt 0.949560 0.336293
vt 0.951465 0.336296
vt 0.951607 0.337241
vt 0.949559 0.335035
vt 0.951149 0.335044
vt 0.947970 0.335047
vt 0.945467 0.337238
vt 0.945751 0.336281
vt 0.946384 0.335000
vt 0.944595 0.336246
vt 0.945455 0.334900
vt 0.944171 0.337230
vt 0.947186 0.333594
vt 0.948366 0.333645
vt 0.946522 0.333424
vt 0.943653 0.336148
vt 0.944712 0.334714
vt 0.946006 0.333117
vt 0.947268 0.331614
vt 0.947566 0.332046
vt 0.947976 0.332264
vt 0.948462 0.330954
vt 0.948490 0.331383
vt 0.948336 0.330423
vt 0.949039 0.331189
vt 0.948979 0.330529
vt 0.948916 0.329957
vt 0.948752 0.332243
vt 0.949558 0.331105
vt 0.949559 0.332121
vt 0.949558 0.330357
vt 0.950080 0.331201
vt 0.950365 0.332237
vt 0.950141 0.330540
vt 0.949558 0.329765
vt 0.950204 0.329968
vt 0.950780 0.330423
vt 0.950654 0.330954
vt 0.950627 0.331383
vt 0.951552 0.332046
vt 0.951850 0.331614
vt 0.951142 0.332264
vt 0.950950 0.329706
vt 0.952230 0.331022
vt 0.950288 0.329208
vt 0.952597 0.333423
vt 0.953113 0.333116
vt 0.953751 0.332682
vt 0.951187 0.328802
vt 0.952698 0.330264
vt 0.954481 0.332112
vt 0.955303 0.334417
vt 0.956286 0.334012
vt 0.954407 0.334712
vt 0.956582 0.335945
vt 0.957767 0.335653
vt 0.955467 0.336145
vt 0.953664 0.334899
vt 0.954524 0.336244
vt 0.956034 0.337161
vt 0.954949 0.337228
vt 0.957292 0.336983
vt 0.952735 0.334999
vt 0.953368 0.336280
vt 0.953653 0.337237
vt 0.953773 0.338288
vt 0.955135 0.338276
vt 0.956286 0.338206
vt 0.951667 0.338296
vt 0.949560 0.338297
vt 0.949560 0.339355
vt 0.951683 0.339355
vt 0.953805 0.339355
vt 0.949561 0.344114
vt 0.951801 0.344116
vt 0.954042 0.344118
vt 0.955532 0.344120
vt 0.955199 0.339354
vt 0.956813 0.344089
vt 0.956389 0.339296
vt 0.957755 0.339128
vt 0.958273 0.343992
vt 0.957611 0.338023
vt 0.958947 0.337761
vt 0.959120 0.338883
vt 0.958583 0.336720
vt 0.958511 0.335605
vt 0.959252 0.336615
vt 0.959547 0.337523
vt 0.959176 0.335459
vt 0.959863 0.336455
vt 0.960100 0.337252
vt 0.306008 0.094923
vt 0.306185 0.097767
vt 0.305037 0.097717
vt 0.304853 0.094906
vt 0.306803 0.094952
vt 0.306978 0.097820
vt 0.306627 0.092077
vt 0.305829 0.092073
vt 0.304665 0.092091
vt 0.307861 0.094996
vt 0.308028 0.097899
vt 0.307692 0.092091
vt 0.305662 0.089449
vt 0.306481 0.089404
vt 0.307564 0.089356
vt 0.312757 0.089102
vt 0.312901 0.092174
vt 0.313051 0.095246
vt 0.318018 0.088843
vt 0.318180 0.092267
vt 0.318307 0.095519
vt 0.313198 0.098322
vt 0.318428 0.098775
vt 0.320647 0.092318
vt 0.320750 0.095664
vt 0.320845 0.099007
vt 0.960301 0.343708
vt 0.960867 0.343538
vt 0.961328 0.348821
vt 0.960750 0.348872
vt 0.961400 0.351314
vt 0.960827 0.351301
vt 0.961222 0.352396
vt 0.960663 0.352337
vt 0.321792 0.095731
vt 0.321875 0.099110
vt 0.960840 0.353507
vt 0.960330 0.353374
vt 0.322904 0.095804
vt 0.322974 0.099219
vt 0.321701 0.092346
vt 0.322827 0.092380
vt 0.323919 0.092415
vt 0.323981 0.095870
vt 0.324039 0.099318
vt 0.324969 0.092443
vt 0.325018 0.095923
vt 0.325063 0.099395
vt 0.960271 0.354559
vt 0.959912 0.354285
vt 0.959365 0.355287
vt 0.959080 0.354875
vt 0.958243 0.355845
vt 0.958013 0.355363
vt 0.326201 0.095965
vt 0.326232 0.099456
vt 0.956710 0.356241
vt 0.956552 0.355719
vt 0.327729 0.095998
vt 0.327744 0.099500
vt 0.326168 0.092468
vt 0.327714 0.092493
vt 0.329703 0.092518
vt 0.329699 0.096025
vt 0.329696 0.099533
vt 0.332255 0.096051
vt 0.332234 0.099560
vt 0.332276 0.092545
vt 0.334815 0.096072
vt 0.334779 0.099581
vt 0.334850 0.092571
vt 0.954635 0.355929
vt 0.954714 0.356471
vt 0.952136 0.356557
vt 0.952101 0.356010
vt 0.949563 0.356549
vt 0.949563 0.356002
vt 0.337374 0.096104
vt 0.337324 0.099613
vt 0.947025 0.356013
vt 0.946990 0.356560
vt 0.944491 0.355931
vt 0.944412 0.356473
vt 0.339930 0.096129
vt 0.339862 0.099640
vt 0.337425 0.092598
vt 0.339997 0.092624
vt 0.340033 0.088693
vt 0.337458 0.088667
vt 0.334890 0.088643
vt 0.332323 0.088615
vt 0.334893 0.088410
vt 0.337461 0.088434
vt 0.332325 0.088382
vt 0.329749 0.088591
vt 0.329755 0.088357
vt 0.332325 0.088149
vt 0.334895 0.088177
vt 0.329761 0.088124
vt 0.327763 0.088104
vt 0.327756 0.088338
vt 0.327747 0.088572
vt 0.327768 0.087956
vt 0.329765 0.087976
vt 0.332324 0.088001
vt 0.326190 0.088092
vt 0.326193 0.087943
vt 0.326182 0.088327
vt 0.324944 0.088093
vt 0.324944 0.087944
vt 0.324943 0.088329
vt 0.326174 0.088561
vt 0.324940 0.088564
vt 0.323855 0.088580
vt 0.323849 0.088345
vt 0.322730 0.088617
vt 0.322719 0.088382
vt 0.322708 0.088147
vt 0.323842 0.088110
vt 0.322700 0.087998
vt 0.323836 0.087961
vt 0.321552 0.088194
vt 0.321543 0.088046
vt 0.321563 0.088429
vt 0.320463 0.088246
vt 0.320453 0.088098
vt 0.320478 0.088480
vt 0.321575 0.088662
vt 0.320497 0.088713
vt 0.318004 0.088611
vt 0.312746 0.088869
vt 0.312735 0.088636
vt 0.317991 0.088378
vt 0.312727 0.088489
vt 0.317983 0.088230
vt 0.307554 0.088888
vt 0.307551 0.088740
vt 0.307559 0.089122
vt 0.306483 0.088935
vt 0.306483 0.088787
vt 0.306481 0.089170
vt 0.305642 0.089212
vt 0.305625 0.088976
vt 0.304469 0.089548
vt 0.304442 0.089316
vt 0.304416 0.089084
vt 0.301913 0.089285
vt 0.301934 0.089518
vt 0.301955 0.089750
vt 0.304400 0.088937
vt 0.305615 0.088828
vt 0.301900 0.089138
vt 0.298774 0.089533
vt 0.298762 0.089386
vt 0.298793 0.089766
vt 0.295644 0.089780
vt 0.295634 0.089633
vt 0.295661 0.090013
vt 0.298811 0.089998
vt 0.295678 0.090246
vt 0.295853 0.092359
vt 0.298996 0.092260
vt 0.302152 0.092161
vt 0.302356 0.094904
vt 0.299208 0.094924
vt 0.302556 0.097649
vt 0.299418 0.097592
vt 0.955282 0.331293
vt 0.957479 0.333577
vt 0.956915 0.333831
vt 0.954896 0.331716
vt 0.952880 0.329629
vt 0.953081 0.329014
vt 0.951156 0.328018
vt 0.951191 0.327274
vt 0.296068 0.094951
vt 0.296282 0.097543
vt 0.293774 0.097519
vt 0.293561 0.094985
vt 0.293343 0.092450
vt 0.292730 0.094997
vt 0.292515 0.092486
vt 0.292938 0.097511
vt 0.292136 0.097539
vt 0.291932 0.095036
vt 0.291723 0.092545
vt 0.377713 0.095910
vt 0.376916 0.095857
vt 0.377182 0.093350
vt 0.377972 0.093424
vt 0.377459 0.098408
vt 0.376657 0.098366
vt 0.377431 0.091398
vt 0.378226 0.091532
vt 0.291506 0.090648
vt 0.292305 0.090531
vt 0.376351 0.093295
vt 0.376581 0.091299
vt 0.376080 0.095825
vt 0.373576 0.095740
vt 0.373844 0.093153
vt 0.374062 0.091043
vt 0.375815 0.098354
vt 0.373309 0.098327
vt 0.946034 0.329015
vt 0.947924 0.327274
vt 0.947960 0.328018
vt 0.946237 0.329629
vt 0.948716 0.327520
vt 0.948724 0.326834
vt 0.949560 0.327320
vt 0.949561 0.326666
vt 0.949559 0.328016
vt 0.948710 0.328248
vt 0.947931 0.328802
vt 0.948832 0.329198
vt 0.948166 0.329706
vt 0.949559 0.328985
vt 0.950411 0.328256
vt 0.950404 0.327525
vt 0.950396 0.326837
vt 0.946887 0.331022
vt 0.946418 0.330265
vt 0.945367 0.332683
vt 0.944636 0.332114
vt 0.944221 0.331718
vt 0.943836 0.331296
vt 0.942833 0.334014
vt 0.942203 0.333833
vt 0.941640 0.333580
vt 0.940608 0.335608
vt 0.939943 0.335463
vt 0.941352 0.335656
vt 0.943816 0.334419
vt 0.942538 0.335948
vt 0.941828 0.336985
vt 0.940536 0.336723
vt 0.943086 0.337164
vt 0.942834 0.338208
vt 0.941509 0.338025
vt 0.943985 0.338278
vt 0.942731 0.339298
vt 0.941365 0.339130
vt 0.943921 0.339356
vt 0.945347 0.338290
vt 0.945315 0.339357
vt 0.947438 0.339356
vt 0.947453 0.338297
vt 0.943590 0.344122
vt 0.945080 0.344120
vt 0.947321 0.344116
vt 0.947217 0.348909
vt 0.944872 0.348913
vt 0.949562 0.348907
vt 0.951907 0.348909
vt 0.949562 0.351121
vt 0.947176 0.351122
vt 0.951949 0.351121
vt 0.954252 0.348912
vt 0.954335 0.351122
vt 0.955809 0.348915
vt 0.955903 0.351121
vt 0.957236 0.351134
vt 0.957144 0.348912
vt 0.958661 0.348899
vt 0.958752 0.351173
vt 0.960146 0.348886
vt 0.960231 0.351254
vt 0.959709 0.343852
vt 0.959705 0.338618
vt 0.960261 0.338339
vt 0.958712 0.352187
vt 0.960089 0.352278
vt 0.958696 0.353313
vt 0.959810 0.353280
vt 0.958859 0.354422
vt 0.959595 0.354084
vt 0.957801 0.354859
vt 0.957481 0.353513
vt 0.956145 0.353673
vt 0.956397 0.355172
vt 0.954556 0.355359
vt 0.954449 0.353779
vt 0.955965 0.352217
vt 0.957285 0.352191
vt 0.954373 0.352245
vt 0.951968 0.352258
vt 0.952007 0.353823
vt 0.949562 0.352257
vt 0.949562 0.353817
vt 0.949563 0.355425
vt 0.952062 0.355433
vt 0.947156 0.352259
vt 0.947118 0.353825
vt 0.947063 0.355436
vt 0.944570 0.355361
vt 0.944676 0.353781
vt 0.942980 0.353675
vt 0.942728 0.355174
vt 0.942572 0.355722
vt 0.944752 0.352246
vt 0.943160 0.352218
vt 0.941645 0.353515
vt 0.941322 0.354862
vt 0.941841 0.352192
vt 0.943222 0.351123
vt 0.944790 0.351123
vt 0.941889 0.351136
vt 0.940414 0.352189
vt 0.940373 0.351175
vt 0.940434 0.353311
vt 0.939034 0.352283
vt 0.938892 0.351258
vt 0.939312 0.353287
vt 0.940264 0.354426
vt 0.939541 0.354079
vt 0.939221 0.354287
vt 0.938794 0.353379
vt 0.938460 0.352342
vt 0.938285 0.353512
vt 0.937902 0.352400
vt 0.938859 0.354543
vt 0.940045 0.354874
vt 0.939752 0.355291
vt 0.940880 0.355848
vt 0.941111 0.355366
vt 0.942415 0.356244
vt 0.343327 0.099630
vt 0.341814 0.099645
vt 0.341900 0.096143
vt 0.343429 0.096141
vt 0.341986 0.092640
vt 0.343533 0.092646
vt 0.342034 0.088716
vt 0.343606 0.088738
vt 0.342030 0.088482
vt 0.343602 0.088504
vt 0.340031 0.088460
vt 0.342027 0.088249
vt 0.343601 0.088269
vt 0.340030 0.088227
vt 0.340029 0.088079
vt 0.342026 0.088100
vt 0.343600 0.088120
vt 0.337466 0.088201
vt 0.337469 0.088053
vt 0.334897 0.088029
vt 0.334899 0.087795
vt 0.337475 0.087820
vt 0.332324 0.087768
vt 0.329770 0.087742
vt 0.334902 0.087561
vt 0.332326 0.087535
vt 0.329776 0.087508
vt 0.327782 0.087488
vt 0.327775 0.087722
vt 0.326206 0.087475
vt 0.326200 0.087709
vt 0.324946 0.087477
vt 0.324945 0.087710
vt 0.323824 0.087493
vt 0.323830 0.087727
vt 0.322680 0.087529
vt 0.322689 0.087763
vt 0.321521 0.087576
vt 0.321532 0.087810
vt 0.320424 0.087633
vt 0.320439 0.087865
vt 0.317957 0.087763
vt 0.317970 0.087997
vt 0.312706 0.088022
vt 0.312716 0.088255
vt 0.307539 0.088270
vt 0.307546 0.088505
vt 0.306480 0.088319
vt 0.306484 0.088552
vt 0.305583 0.088370
vt 0.305599 0.088597
vt 0.304375 0.088704
vt 0.304350 0.088470
vt 0.301859 0.088672
vt 0.301879 0.088905
vt 0.298725 0.088919
vt 0.298744 0.089152
vt 0.295599 0.089165
vt 0.295616 0.089399
vt 0.293089 0.089374
vt 0.293104 0.089604
vt 0.293118 0.089836
vt 0.293126 0.089983
vt 0.292168 0.089920
vt 0.292203 0.090065
vt 0.292117 0.089695
vt 0.291243 0.090073
vt 0.291137 0.089838
vt 0.291317 0.090215
vt 0.292080 0.089468
vt 0.291075 0.089594
vt 0.377679 0.090339
vt 0.378678 0.090486
vt 0.378611 0.090729
vt 0.377637 0.090565
vt 0.378501 0.090962
vt 0.377581 0.090789
vt 0.376649 0.090454
vt 0.376669 0.090223
vt 0.376630 0.090686
vt 0.376619 0.090832
vt 0.377544 0.090933
vt 0.378424 0.091103
vt 0.374119 0.090432
vt 0.374141 0.090199
vt 0.374106 0.090579
vt 0.376600 0.091066
vt 0.374084 0.090811
vt 0.377482 0.091162
vt 0.378305 0.091319
vt 0.291432 0.090434
vt 0.292259 0.090295
vt 0.293154 0.090450
vt 0.293140 0.090216
vt 0.370934 0.090732
vt 0.370958 0.090500
vt 0.370981 0.090268
vt 0.367848 0.089956
vt 0.367822 0.090188
vt 0.367797 0.090420
vt 0.367864 0.089809
vt 0.370996 0.090120
vt 0.365350 0.089703
vt 0.365369 0.089556
vt 0.365319 0.089935
vt 0.364142 0.089571
vt 0.364155 0.089423
vt 0.364120 0.089807
vt 0.365287 0.090167
vt 0.364096 0.090043
vt 0.365038 0.092705
vt 0.363876 0.092664
vt 0.367550 0.092826
vt 0.370704 0.092989
vt 0.370438 0.095649
vt 0.367290 0.095565
vt 0.364793 0.095516
vt 0.367034 0.098305
vt 0.364551 0.098323
vt 0.370173 0.098311
vt 0.363639 0.095509
vt 0.363405 0.098348
vt 0.939868 0.336618
vt 0.939257 0.336457
vt 0.939573 0.337526
vt 0.939020 0.337255
vt 0.362611 0.098386
vt 0.362844 0.095522
vt 0.938859 0.338343
vt 0.939416 0.338621
vt 0.361559 0.098444
vt 0.361785 0.095544
vt 0.362013 0.092643
vt 0.363078 0.092651
vt 0.362196 0.089912
vt 0.363278 0.089982
vt 0.362207 0.089678
vt 0.363283 0.089747
vt 0.362216 0.089445
vt 0.363287 0.089513
vt 0.363289 0.089365
vt 0.362222 0.089297
vt 0.357041 0.089087
vt 0.357052 0.088939
vt 0.357025 0.089319
vt 0.351791 0.088721
vt 0.351803 0.088574
vt 0.351773 0.088954
vt 0.357010 0.089552
vt 0.351755 0.089187
vt 0.349323 0.088540
vt 0.349303 0.088774
vt 0.349279 0.089007
vt 0.351523 0.092606
vt 0.349056 0.092607
vt 0.356803 0.092620
vt 0.351330 0.095855
vt 0.348885 0.095950
vt 0.356591 0.095688
vt 0.351143 0.099107
vt 0.348722 0.099290
vt 0.356382 0.098761
vt 0.938255 0.343541
vt 0.938821 0.343711
vt 0.937795 0.348825
vt 0.938373 0.348876
vt 0.940001 0.338886
vt 0.939413 0.343856
vt 0.938978 0.348890
vt 0.940849 0.343994
vt 0.940462 0.348902
vt 0.940173 0.337764
vt 0.942309 0.344091
vt 0.941980 0.348914
vt 0.943314 0.348916
vt 0.938296 0.351305
vt 0.937723 0.351318
vt 0.347690 0.099372
vt 0.347842 0.095996
vt 0.346589 0.099459
vt 0.346729 0.096045
vt 0.346876 0.092623
vt 0.348002 0.092613
vt 0.347048 0.088866
vt 0.348202 0.088935
vt 0.347063 0.088632
vt 0.348218 0.088701
vt 0.347080 0.088397
vt 0.348236 0.088467
vt 0.347091 0.088249
vt 0.348247 0.088319
vt 0.349336 0.088392
vt 0.345948 0.088339
vt 0.345956 0.088190
vt 0.345935 0.088574
vt 0.344845 0.088297
vt 0.344848 0.088148
vt 0.344841 0.088533
vt 0.345923 0.088809
vt 0.344838 0.088768
vt 0.345783 0.092635
vt 0.344732 0.092643
vt 0.345650 0.096090
vt 0.344613 0.096123
vt 0.345523 0.099537
vt 0.344498 0.099593
vt 0.344853 0.087914
vt 0.345968 0.087956
vt 0.343599 0.087886
vt 0.344857 0.087681
vt 0.345978 0.087723
vt 0.343598 0.087653
vt 0.347107 0.088014
vt 0.347122 0.087779
vt 0.347151 0.087234
vt 0.345998 0.087182
vt 0.344869 0.087140
vt 0.346006 0.086950
vt 0.347161 0.086999
vt 0.344875 0.086907
vt 0.346015 0.086717
vt 0.347173 0.086764
vt 0.344883 0.086673
vt 0.346031 0.086262
vt 0.347196 0.086329
vt 0.344891 0.086229
vt 0.348379 0.086394
vt 0.348349 0.086837
vt 0.348332 0.087071
vt 0.349499 0.086482
vt 0.349455 0.086928
vt 0.349433 0.087159
vt 0.348316 0.087306
vt 0.349416 0.087391
vt 0.351879 0.087565
vt 0.351895 0.087332
vt 0.351914 0.087099
vt 0.357118 0.087933
vt 0.357134 0.087700
vt 0.357149 0.087466
vt 0.357180 0.087024
vt 0.351949 0.086657
vt 0.362342 0.087371
vt 0.362309 0.087813
vt 0.362292 0.088047
vt 0.363440 0.087455
vt 0.363392 0.087893
vt 0.363364 0.088126
vt 0.362276 0.088282
vt 0.363340 0.088359
vt 0.364241 0.088443
vt 0.364261 0.088217
vt 0.364284 0.087989
vt 0.365486 0.088548
vt 0.365506 0.088315
vt 0.365527 0.088081
vt 0.364329 0.087539
vt 0.365571 0.087641
vt 0.368064 0.087897
vt 0.368019 0.088338
vt 0.367995 0.088570
vt 0.371188 0.088208
vt 0.371143 0.088650
vt 0.371120 0.088882
vt 0.367971 0.088803
vt 0.371097 0.089115
vt 0.374218 0.089426
vt 0.374242 0.089193
vt 0.374266 0.088960
vt 0.376727 0.089693
vt 0.376757 0.089464
vt 0.376788 0.089234
vt 0.376844 0.088791
vt 0.374312 0.088519
vt 0.377765 0.089355
vt 0.377761 0.088918
vt 0.377762 0.089585
vt 0.378705 0.089406
vt 0.378749 0.089660
vt 0.378602 0.088938
vt 0.377747 0.089813
vt 0.378748 0.089912
vt 0.291071 0.088516
vt 0.292014 0.088482
vt 0.292012 0.088711
vt 0.291022 0.088768
vt 0.292022 0.088940
vt 0.291018 0.089020
vt 0.293041 0.088842
vt 0.293017 0.088612
vt 0.295556 0.088625
vt 0.295536 0.088391
vt 0.292991 0.088381
vt 0.295517 0.088158
vt 0.292943 0.087938
vt 0.295480 0.087717
vt 0.292026 0.088045
vt 0.291184 0.088051
vt 0.298610 0.087470
vt 0.298645 0.087912
vt 0.301740 0.087222
vt 0.301775 0.087664
vt 0.304237 0.087017
vt 0.304272 0.087458
vt 0.305482 0.086940
vt 0.305518 0.087391
vt 0.306372 0.086875
vt 0.306410 0.087314
vt 0.307471 0.086813
vt 0.307495 0.087255
vt 0.312639 0.086571
vt 0.312660 0.087014
vt 0.317876 0.086311
vt 0.317902 0.086753
vt 0.320329 0.086184
vt 0.320364 0.086631
vt 0.321450 0.086124
vt 0.321472 0.086560
vt 0.322634 0.086071
vt 0.322650 0.086515
vt 0.323799 0.086040
vt 0.323810 0.086484
vt 0.324940 0.086017
vt 0.324944 0.086471
vt 0.326219 0.086022
vt 0.326214 0.086466
vt 0.327804 0.086033
vt 0.327799 0.086476
vt 0.329798 0.086055
vt 0.329793 0.086498
vt 0.332345 0.086525
vt 0.332359 0.086082
vt 0.334912 0.086548
vt 0.334916 0.086104
vt 0.337473 0.086133
vt 0.337478 0.086576
vt 0.340035 0.086158
vt 0.340032 0.086601
vt 0.342030 0.086177
vt 0.342026 0.086620
vt 0.343616 0.086200
vt 0.343611 0.086644
vt 0.343606 0.086878
vt 0.342024 0.086854
vt 0.343602 0.087111
vt 0.342022 0.087089
vt 0.340030 0.086835
vt 0.340029 0.087069
vt 0.342022 0.087632
vt 0.340028 0.087612
vt 0.337480 0.087044
vt 0.337481 0.086810
vt 0.337477 0.087586
vt 0.340029 0.087846
vt 0.342024 0.087866
vt 0.334907 0.087016
vt 0.332334 0.086992
vt 0.334910 0.086782
vt 0.332338 0.086758
vt 0.329789 0.086731
vt 0.329786 0.086965
vt 0.327793 0.086944
vt 0.327796 0.086710
vt 0.326213 0.086699
vt 0.326213 0.086933
vt 0.324946 0.086937
vt 0.324944 0.086705
vt 0.323815 0.086952
vt 0.323812 0.086719
vt 0.322661 0.086984
vt 0.322655 0.086750
vt 0.321484 0.086795
vt 0.321495 0.087030
vt 0.320393 0.087095
vt 0.320381 0.086863
vt 0.317928 0.087221
vt 0.317915 0.086987
vt 0.312682 0.087481
vt 0.312671 0.087247
vt 0.307507 0.087489
vt 0.307518 0.087724
vt 0.306452 0.087779
vt 0.306433 0.087546
vt 0.305549 0.087846
vt 0.305535 0.087620
vt 0.304288 0.087693
vt 0.304303 0.087928
vt 0.301813 0.088131
vt 0.301795 0.087897
vt 0.298664 0.088145
vt 0.298682 0.088378
vt 0.374163 0.089966
vt 0.371042 0.089655
vt 0.371019 0.089888
vt 0.367915 0.089343
vt 0.367890 0.089576
vt 0.365428 0.089090
vt 0.365399 0.089323
vt 0.364199 0.088966
vt 0.364176 0.089193
vt 0.363302 0.088897
vt 0.363293 0.089131
vt 0.362243 0.088827
vt 0.362232 0.089062
vt 0.357083 0.088474
vt 0.357068 0.088707
vt 0.351838 0.088108
vt 0.351821 0.088341
vt 0.349375 0.087928
vt 0.349354 0.088160
vt 0.348264 0.088084
vt 0.348279 0.087850
vt 0.951933 0.333594
vt 0.950752 0.333640
vt 0.949559 0.333599
s 1
f 2/1/1 6/2/1 5/3/1 1/4/1
f 2/1/1 1/4/1 3/5/1 57/6/1
f 1/4/1 4/7/1 776/8/1 3/5/1
f 1/4/1 5/3/1 7/9/1 4/7/1
f 6/2/1 10/10/1 8/11/1 5/3/1
f 5/3/1 8/11/1 11/12/1 7/9/1
f 9/13/1 13/14/1 11/12/1 8/11/1
f 275/15/1 9/13/1 8/11/1 10/10/1
f 12/16/1 780/17/1 7/9/1 11/12/1
f 13/14/1 15/18/1 12/16/1 11/12/1
f 13/14/1 9/13/1 273/19/1 14/20/1
f 15/18/1 13/14/1 14/20/1 16/21/1
f 19/22/1 17/23/1 15/18/1 16/21/1
f 17/23/1 18/24/2 12/16/1 15/18/1
f 18/24/2 17/23/1 20/25/3 23/26/4
f 17/23/1 19/22/1 22/27/5 20/25/3
f 24/28/6 23/26/4 20/25/3 21/29/7
f 22/27/5 256/30/8 21/29/7 20/25/3
f 23/26/4 24/28/6 25/31/9 18/24/2
f 24/28/6 26/32/10 27/33/11 25/31/9
f 26/32/10 24/28/6 21/29/7 29/34/12
f 27/33/11 26/32/10 28/35/13 778/36/14
f 26/32/10 29/34/12 31/37/15 28/35/13
f 256/30/8 30/38/16 29/34/12 21/29/7
f 29/34/12 30/38/16 32/39/17 31/37/15
f 36/40/18 33/41/19 31/37/15 32/39/17
f 33/41/19 35/42/20 28/35/13 31/37/15
f 34/43/1 33/41/19 36/40/18 38/44/1
f 33/41/19 34/43/1 781/45/21 35/42/20
f 37/46/22 40/47/1 38/44/1 36/40/18
f 37/46/22 36/40/18 32/39/17 253/48/23
f 782/49/1 34/43/1 38/44/1 39/50/1
f 40/47/1 42/51/1 39/50/1 38/44/1
f 40/47/1 37/46/22 255/52/24 41/53/25
f 42/51/1 40/47/1 41/53/25 43/54/26
f 44/55/1 42/51/1 43/54/26 45/56/27
f 42/51/1 44/55/1 47/57/1 39/50/1
f 46/58/1 44/55/1 45/56/27 75/59/28
f 44/55/1 46/58/1 49/60/1 47/57/1
f 47/57/1 48/61/1 782/49/1 39/50/1
f 48/61/1 47/57/1 49/60/1 51/62/1
f 50/63/1 53/64/1 51/62/1 49/60/1
f 46/58/1 73/65/1 50/63/1 49/60/1
f 774/66/1 48/61/1 51/62/1 52/67/1
f 53/64/1 55/68/1 52/67/1 51/62/1
f 56/69/1 55/68/1 53/64/1 54/70/1
f 54/70/1 53/64/1 50/63/1 70/71/1
f 55/68/1 56/69/1 58/72/1 57/6/1
f 52/67/1 55/68/1 57/6/1 3/5/1
f 59/73/1 2/1/1 57/6/1 58/72/1
f 61/74/1 59/73/1 58/72/1 60/75/1
f 56/69/1 63/76/1 60/75/1 58/72/1
f 288/77/1 61/74/1 60/75/1 62/78/1
f 63/76/1 64/79/1 62/78/1 60/75/1
f 66/80/1 64/79/1 63/76/1 65/81/1
f 63/76/1 56/69/1 54/70/1 65/81/1
f 68/82/1 66/80/1 65/81/1 67/83/1
f 65/81/1 54/70/1 70/71/1 67/83/1
f 69/84/1 302/85/1 68/82/1 67/83/1
f 67/83/1 70/71/1 71/86/1 69/84/1
f 70/71/1 50/63/1 73/65/1 71/86/1
f 72/87/29 304/88/30 69/84/1 71/86/1
f 74/89/31 72/87/29 71/86/1 73/65/1
f 73/65/1 46/58/1 75/59/28 74/89/31
f 74/89/31 75/59/28 77/90/32 76/91/33
f 76/91/33 78/92/34 72/87/29 74/89/31
f 80/93/35 79/94/36 76/91/33 77/90/32
f 79/94/36 81/95/37 78/92/34 76/91/33
f 82/96/38 79/97/36 80/98/35 84/99/39
f 85/100/40 81/101/37 79/97/36 82/96/38
f 87/102/41 85/100/40 82/96/38 83/103/42
f 84/99/39 211/104/43 83/103/42 82/96/38
f 86/105/44 307/106/45 81/101/37 85/100/40
f 89/107/46 86/105/44 85/100/40 87/102/41
f 83/103/42 192/108/47 88/109/48 87/102/41
f 87/102/41 88/109/48 90/110/49 89/107/46
f 92/111/50 91/112/51 89/107/46 90/110/49
f 86/105/44 89/107/46 91/112/51 94/113/52
f 91/112/51 92/111/50 179/114/53 93/115/54
f 93/115/54 96/116/55 94/113/52 91/112/51
f 94/113/52 95/117/56 307/106/45 86/105/44
f 96/116/55 98/118/57 95/117/56 94/113/52
f 96/116/55 93/115/54 178/119/58 97/120/59
f 97/120/59 100/121/60 98/118/57 96/116/55
f 305/122/61 95/123/56 98/124/57 99/125/62
f 98/124/57 100/126/60 101/127/63 99/125/62
f 101/127/63 100/126/60 102/128/64 103/129/65
f 105/130/66 102/131/64 100/121/60 97/120/59
f 103/129/65 102/128/64 104/132/67 314/133/68
f 107/134/69 104/135/67 102/131/64 105/130/66
f 106/136/70 105/130/66 97/120/59 178/119/58
f 105/130/66 106/136/70 108/137/71 107/134/69
f 110/138/72 109/139/73 107/134/69 108/137/71
f 109/139/73 112/140/74 104/135/67 107/134/69
f 109/139/73 110/138/72 162/141/75 111/142/76
f 111/142/76 114/143/77 112/140/74 109/139/73
f 314/133/68 104/132/67 112/144/74 113/145/78
f 112/144/74 114/146/77 115/147/79 113/145/78
f 115/147/79 114/146/77 116/148/80 117/149/81
f 119/150/82 116/151/80 114/143/77 111/142/76
f 117/149/81 116/148/80 118/152/83 319/153/84
f 121/154/85 118/155/83 116/151/80 119/150/82
f 120/156/86 119/150/82 111/142/76 162/141/75
f 119/150/82 120/156/86 122/157/87 121/154/85
f 125/158/88 123/159/89 121/154/85 122/157/87
f 123/159/89 124/160/90 118/155/83 121/154/85
f 124/160/90 123/159/89 126/161/91 129/162/92
f 123/159/89 125/158/88 128/163/93 126/161/91
f 129/162/92 126/161/91 127/164/94 131/165/95
f 127/164/94 126/161/91 128/163/93 141/166/96
f 773/167/97 124/168/90 129/169/92 130/170/98
f 131/171/95 132/172/99 130/170/98 129/169/92
f 131/165/95 127/164/94 136/173/100 133/174/101
f 134/175/102 132/172/99 131/171/95 133/176/101
f 336/177/103 134/175/102 133/176/101 135/178/104
f 133/174/101 136/173/100 137/179/105 135/180/104
f 137/179/105 136/173/100 138/181/106 139/182/107
f 127/164/94 141/166/96 138/181/106 136/173/100
f 370/183/108 139/182/107 138/181/106 140/184/109
f 142/185/110 140/184/109 138/181/106 141/166/96
f 142/185/110 141/166/96 128/163/93 144/186/111
f 142/185/110 143/187/112 382/188/113 140/184/109
f 144/186/111 146/189/114 143/187/112 142/185/110
f 145/190/115 148/191/116 146/189/114 144/186/111
f 145/190/115 144/186/111 128/163/93 125/158/88
f 143/187/112 146/189/114 147/192/117 381/193/118
f 148/191/116 150/194/119 147/192/117 146/189/114
f 152/195/120 150/194/119 148/191/116 149/196/121
f 145/190/115 161/197/122 149/196/121 148/191/116
f 152/195/120 153/198/123 151/199/124 150/194/119
f 150/194/119 151/199/124 385/200/125 147/192/117
f 154/201/126 155/202/127 153/198/123 152/195/120
f 154/201/126 152/195/120 149/196/121 157/203/128
f 156/204/129 397/205/130 155/202/127 154/201/126
f 156/204/129 154/201/126 157/203/128 158/206/131
f 159/207/132 160/208/133 158/206/131 157/203/128
f 161/197/122 159/207/132 157/203/128 149/196/121
f 120/156/86 162/141/75 160/208/133 159/207/132
f 159/207/132 161/197/122 122/157/87 120/156/86
f 125/158/88 122/157/87 161/197/122 145/190/115
f 163/209/134 160/208/133 162/141/75 110/138/72
f 160/208/133 163/209/134 165/210/135 158/206/131
f 163/209/134 164/211/136 166/212/137 165/210/135
f 108/137/71 164/211/136 163/209/134 110/138/72
f 169/213/138 167/214/139 165/210/135 166/212/137
f 167/214/139 156/204/129 158/206/131 165/210/135
f 169/213/138 170/215/140 168/216/141 167/214/139
f 167/214/139 168/216/141 397/205/130 156/204/129
f 171/217/142 172/218/143 170/215/140 169/213/138
f 171/217/142 169/213/138 166/212/137 174/219/144
f 173/220/145 406/221/146 172/218/143 171/217/142
f 173/220/145 171/217/142 174/219/144 175/222/147
f 176/223/148 177/224/149 175/222/147 174/219/144
f 164/211/136 176/223/148 174/219/144 166/212/137
f 178/119/58 177/224/149 176/223/148 106/136/70
f 164/211/136 108/137/71 106/136/70 176/223/148
f 177/224/149 178/119/58 93/115/54 179/114/53
f 177/224/149 179/114/53 180/225/150 175/222/147
f 179/114/53 92/111/50 181/226/151 180/225/150
f 184/227/152 182/228/153 180/225/150 181/226/151
f 182/228/153 173/220/145 175/222/147 180/225/150
f 184/227/152 185/229/154 183/230/155 182/228/153
f 182/228/153 183/230/155 406/221/146 173/220/145
f 186/231/156 187/232/157 185/229/154 184/227/152
f 186/231/156 184/227/152 181/226/151 189/233/158
f 188/234/159 415/235/160 187/232/157 186/231/156
f 188/234/159 186/231/156 189/233/158 190/236/161
f 90/110/49 88/109/48 190/236/161 189/233/158
f 92/111/50 90/110/49 189/233/158 181/226/151
f 88/109/48 192/108/47 191/237/162 190/236/161
f 193/238/163 188/234/159 190/236/161 191/237/162
f 192/108/47 196/239/164 194/240/165 191/237/162
f 197/241/166 193/238/163 191/237/162 194/240/165
f 199/242/167 197/241/166 194/240/165 195/243/168
f 196/239/164 209/244/169 195/243/168 194/240/165
f 193/238/163 197/241/166 198/245/170 416/246/171
f 199/242/167 200/247/172 198/245/170 197/241/166
f 201/248/173 202/249/174 200/247/172 199/242/167
f 201/248/173 199/242/167 195/243/168 204/250/175
f 203/251/176 427/252/177 202/249/174 201/248/173
f 203/251/176 201/248/173 204/250/175 205/253/178
f 206/254/179 207/255/180 205/253/178 204/250/175
f 209/244/169 206/254/179 204/250/175 195/243/168
f 223/256/181 207/255/180 206/254/179 208/257/182
f 209/244/169 210/258/183 208/257/182 206/254/179
f 210/258/183 209/244/169 196/239/164 211/104/43
f 211/104/43 84/99/39 212/259/184 210/258/183
f 213/260/185 208/257/182 210/258/183 212/259/184
f 212/259/184 214/261/186 215/262/187 213/260/185
f 84/99/39 80/98/35 214/261/186 212/259/184
f 215/263/187 214/264/186 216/265/188 217/266/189
f 214/264/186 80/93/35 77/90/32 216/265/188
f 45/56/27 43/54/26 217/266/189 216/265/188
f 75/59/28 45/56/27 216/265/188 77/90/32
f 218/267/190 220/268/191 215/263/187 217/266/189
f 41/53/25 218/267/190 217/266/189 43/54/26
f 219/269/192 221/270/193 220/268/191 218/267/190
f 255/52/24 219/269/192 218/267/190 41/53/25
f 222/271/194 220/272/191 221/273/193 224/274/195
f 213/260/185 215/262/187 220/272/191 222/271/194
f 208/257/182 213/260/185 222/271/194 223/256/181
f 224/274/195 225/275/196 223/256/181 222/271/194
f 225/275/196 224/274/195 226/276/197 228/277/198
f 224/274/195 221/273/193 227/278/199 226/276/197
f 231/279/200 229/280/201 226/276/197 227/278/199
f 229/280/201 232/281/202 228/277/198 226/276/197
f 229/282/201 230/283/203 234/284/204 232/285/202
f 231/286/200 244/287/205 230/283/203 229/282/201
f 232/285/202 234/284/204 235/288/206 233/289/207
f 232/281/202 233/290/207 452/291/208 228/277/198
f 234/284/204 236/292/209 238/293/210 235/288/206
f 230/283/203 239/294/211 236/292/209 234/284/204
f 239/294/211 240/295/212 237/296/213 236/292/209
f 236/292/209 237/296/213 455/297/214 238/293/210
f 241/298/215 242/299/216 240/295/212 239/294/211
f 244/287/205 241/298/215 239/294/211 230/283/203
f 242/300/216 241/301/215 243/302/217 262/303/218
f 245/304/219 243/302/217 241/301/215 244/305/205
f 246/306/220 245/304/219 244/305/205 231/307/200
f 245/304/219 246/306/220 250/308/221 247/309/222
f 243/302/217 245/304/219 247/309/222 248/310/223
f 248/310/223 247/309/222 249/311/224 257/312/225
f 247/309/222 250/308/221 251/313/226 249/311/224
f 251/313/226 250/308/221 252/314/227 253/48/23
f 250/308/221 246/306/220 254/315/228 252/314/227
f 255/52/24 37/46/22 253/48/23 252/314/227
f 219/269/192 255/52/24 252/314/227 254/315/228
f 246/306/220 231/307/200 227/316/199 254/315/228
f 221/270/193 219/269/192 254/315/228 227/316/199
f 30/38/16 251/313/226 253/48/23 32/39/17
f 30/38/16 256/30/8 249/311/224 251/313/226
f 256/30/8 22/27/5 257/312/225 249/311/224
f 257/312/225 258/317/1 260/318/229 248/310/223
f 258/317/1 257/312/225 22/27/5 19/22/1
f 259/319/1 258/317/1 19/22/1 16/21/1
f 258/317/1 259/319/1 261/320/230 260/318/229
f 260/318/229 261/320/230 263/321/231 262/303/218
f 248/310/223 260/318/229 262/303/218 243/302/217
f 264/322/232 242/300/216 262/303/218 263/321/231
f 263/321/231 261/320/230 268/323/233 265/324/234
f 264/322/232 263/321/231 265/324/234 266/325/235
f 267/326/236 478/327/237 266/325/235 265/324/234
f 269/328/238 267/326/236 265/324/234 268/323/233
f 270/329/1 271/330/1 269/328/238 268/323/233
f 259/319/1 270/329/1 268/323/233 261/320/230
f 270/329/1 259/319/1 16/21/1 14/20/1
f 271/330/1 270/329/1 14/20/1 273/19/1
f 271/330/1 272/331/1 523/332/239 269/328/238
f 272/331/1 271/330/1 273/19/1 274/333/1
f 9/13/1 275/15/1 274/333/1 273/19/1
f 276/334/1 277/335/1 272/331/1 274/333/1
f 274/333/1 275/15/1 279/336/1 276/334/1
f 278/337/1 521/338/1 277/335/1 276/334/1
f 276/334/1 279/336/1 280/339/1 278/337/1
f 281/340/1 279/336/1 275/15/1 10/10/1
f 283/341/1 280/339/1 279/336/1 281/340/1
f 285/342/1 283/341/1 281/340/1 282/343/1
f 10/10/1 6/2/1 282/343/1 281/340/1
f 529/344/1 280/339/1 283/341/1 284/345/1
f 286/346/1 284/345/1 283/341/1 285/342/1
f 285/342/1 282/343/1 59/73/1 61/74/1
f 288/77/1 286/346/1 285/342/1 61/74/1
f 287/347/1 528/348/1 284/345/1 286/346/1
f 289/349/1 287/347/1 286/346/1 288/77/1
f 289/349/1 288/77/1 62/78/1 291/350/1
f 290/351/1 531/352/1 287/347/1 289/349/1
f 290/351/1 289/349/1 291/350/1 292/353/1
f 293/354/1 294/355/1 292/353/1 291/350/1
f 64/79/1 293/354/1 291/350/1 62/78/1
f 64/79/1 66/80/1 295/356/1 293/354/1
f 296/357/1 294/355/1 293/354/1 295/356/1
f 298/358/1 296/357/1 295/356/1 297/359/1
f 66/80/1 68/82/1 297/359/1 295/356/1
f 299/360/1 300/361/1 298/358/1 297/359/1
f 302/85/1 299/360/1 297/359/1 68/82/1
f 300/361/1 299/360/1 301/362/240 308/363/241
f 299/360/1 302/85/1 303/364/242 301/362/240
f 302/85/1 69/84/1 304/88/30 303/364/242
f 304/88/30 306/365/243 305/122/61 303/364/242
f 303/364/242 305/122/61 99/125/62 301/362/240
f 306/365/243 307/366/45 95/123/56 305/122/61
f 78/92/34 81/95/37 307/366/45 306/365/243
f 72/87/29 78/92/34 306/365/243 304/88/30
f 308/363/241 301/362/240 99/125/62 101/127/63
f 310/367/1 300/361/1 308/363/241 309/368/244
f 308/363/241 101/127/63 103/129/65 309/368/244
f 312/369/1 310/367/1 309/368/244 311/370/245
f 309/368/244 103/129/65 314/133/68 311/370/245
f 315/371/246 312/369/1 311/370/245 313/372/247
f 311/370/245 314/133/68 113/145/78 313/372/247
f 313/372/247 113/145/78 115/147/79 315/371/246
f 312/369/1 315/371/246 316/373/248 317/374/1
f 315/371/246 115/147/79 117/149/81 316/373/248
f 321/375/1 317/374/1 316/373/248 318/376/249
f 316/373/248 117/149/81 319/153/84 318/376/249
f 318/376/249 319/153/84 773/167/97 320/377/250
f 322/378/1 321/375/1 318/376/249 320/377/250
f 317/374/1 321/375/1 323/379/1 324/380/1
f 321/375/1 322/378/1 325/381/1 323/379/1
f 296/357/1 298/358/1 324/380/1 323/379/1
f 294/355/1 296/357/1 323/379/1 325/381/1
f 294/355/1 325/381/1 326/382/1 292/353/1
f 325/381/1 322/378/1 328/383/1 326/382/1
f 327/384/1 290/351/1 292/353/1 326/382/1
f 330/385/1 327/384/1 326/382/1 328/383/1
f 332/386/251 330/385/1 328/383/1 329/387/252
f 322/378/1 320/377/250 329/387/252 328/383/1
f 532/388/1 327/384/1 330/385/1 331/389/1
f 332/386/251 333/390/253 331/389/1 330/385/1
f 132/172/99 134/175/102 333/390/253 332/386/251
f 132/172/99 332/386/251 329/387/252 130/170/98
f 134/175/102 336/177/103 334/391/254 333/390/253
f 333/390/253 334/391/254 337/392/1 331/389/1
f 339/393/1 337/392/1 334/391/254 335/394/255
f 335/394/255 334/391/254 336/177/103 362/395/256
f 338/396/1 532/388/1 331/389/1 337/392/1
f 337/392/1 339/393/1 341/397/1 338/396/1
f 340/398/1 339/393/1 335/394/255 360/399/257
f 339/393/1 340/398/1 343/400/1 341/397/1
f 341/397/1 342/401/1 530/402/1 338/396/1
f 342/401/1 341/397/1 343/400/1 344/403/1
f 345/404/1 346/405/1 344/403/1 343/400/1
f 348/406/1 345/404/1 343/400/1 340/398/1
f 346/405/1 345/404/1 347/407/258 533/408/259
f 345/404/1 348/406/1 350/409/260 347/407/258
f 349/410/261 348/406/1 340/398/1 360/399/257
f 348/406/1 349/410/261 351/411/262 350/409/260
f 350/409/260 351/411/262 355/412/263 352/413/264
f 347/407/258 350/409/260 352/413/264 353/414/265
f 354/415/266 536/416/267 353/414/265 352/413/264
f 356/417/268 354/415/266 352/413/264 355/412/263
f 351/411/262 349/410/261 357/418/269 355/412/263
f 358/419/270 356/417/268 355/412/263 357/418/269
f 361/420/271 358/419/270 357/418/269 359/421/272
f 349/410/261 360/399/257 359/421/272 357/418/269
f 360/399/257 335/394/255 362/395/256 359/421/272
f 363/422/273 361/420/271 359/421/272 362/395/256
f 135/178/104 363/422/273 362/395/256 336/177/103
f 361/423/271 363/424/273 364/425/274 365/426/275
f 363/424/273 135/180/104 137/179/105 364/425/274
f 365/426/275 364/425/274 366/427/276 367/428/277
f 364/425/274 137/179/105 139/182/107 366/427/276
f 367/428/277 366/427/276 368/429/278 369/430/279
f 366/427/276 139/182/107 370/183/108 368/429/278
f 369/430/279 368/429/278 371/431/280 372/432/281
f 368/429/278 370/183/108 373/433/282 371/431/280
f 374/434/283 376/435/284 372/432/281 371/431/280
f 377/436/285 374/434/283 371/431/280 373/433/282
f 377/436/285 378/437/286 375/438/287 374/434/283
f 374/434/283 375/438/287 562/439/288 376/435/284
f 378/437/286 377/436/285 379/440/289 380/441/290
f 373/433/282 382/188/113 379/440/289 377/436/285
f 383/442/291 380/441/290 379/440/289 381/193/118
f 143/187/112 381/193/118 379/440/289 382/188/113
f 140/184/109 382/188/113 373/433/282 370/183/108
f 383/442/291 381/193/118 147/192/117 385/200/125
f 383/442/291 384/443/292 701/444/293 380/441/290
f 385/200/125 386/445/294 384/443/292 383/442/291
f 151/199/124 388/446/295 386/445/294 385/200/125
f 702/447/296 384/443/292 386/445/294 387/448/297
f 387/448/297 386/445/294 388/446/295 389/449/298
f 391/450/299 389/449/298 388/446/295 390/451/300
f 151/199/124 153/198/123 390/451/300 388/446/295
f 393/452/301 391/450/299 390/451/300 392/453/302
f 153/198/123 155/202/127 392/453/302 390/451/300
f 395/454/303 393/452/301 392/453/302 394/455/304
f 155/202/127 397/205/130 394/455/304 392/453/302
f 398/456/305 395/454/303 394/455/304 396/457/306
f 397/205/130 168/216/141 396/457/306 394/455/304
f 400/458/307 398/456/305 396/457/306 399/459/308
f 168/216/141 170/215/140 399/459/308 396/457/306
f 402/460/309 400/458/307 399/459/308 401/461/310
f 170/215/140 172/218/143 401/461/310 399/459/308
f 404/462/311 402/460/309 401/461/310 403/463/312
f 172/218/143 406/221/146 403/463/312 401/461/310
f 407/464/313 404/462/311 403/463/312 405/465/314
f 406/221/146 183/230/155 405/465/314 403/463/312
f 409/466/315 407/464/313 405/465/314 408/467/316
f 183/230/155 185/229/154 408/467/316 405/465/314
f 411/468/317 409/466/315 408/467/316 410/469/318
f 185/229/154 187/232/157 410/469/318 408/467/316
f 413/470/319 411/468/317 410/469/318 412/471/320
f 187/232/157 415/235/160 412/471/320 410/469/318
f 417/472/321 413/470/319 412/471/320 414/473/322
f 415/235/160 416/246/171 414/473/322 412/471/320
f 193/238/163 416/246/171 415/235/160 188/234/159
f 416/246/171 198/245/170 418/474/323 414/473/322
f 419/475/324 417/472/321 414/473/322 418/474/323
f 421/476/325 419/475/324 418/474/323 420/477/326
f 198/245/170 200/247/172 420/477/326 418/474/323
f 423/478/327 421/476/325 420/477/326 422/479/328
f 200/247/172 202/249/174 422/479/328 420/477/326
f 425/480/329 423/478/327 422/479/328 424/481/330
f 202/249/174 427/252/177 424/481/330 422/479/328
f 634/482/331 425/480/329 424/481/330 426/483/332
f 427/252/177 428/484/333 426/483/332 424/481/330
f 429/485/334 428/484/333 427/252/177 203/251/176
f 430/486/335 428/484/333 429/485/334 432/487/336
f 428/484/333 430/486/335 433/488/337 426/483/332
f 431/489/338 435/490/339 433/488/337 430/486/335
f 450/491/340 431/489/338 430/486/335 432/487/336
f 434/492/341 634/482/331 426/483/332 433/488/337
f 434/492/341 433/488/337 435/490/339 436/493/342
f 438/494/343 436/495/342 435/496/339 437/497/344
f 431/498/338 440/499/345 437/497/344 435/496/339
f 438/494/343 437/497/344 439/500/346 742/501/347
f 442/502/348 439/500/346 437/497/344 440/499/345
f 444/503/349 442/502/348 440/499/345 441/504/350
f 450/505/340 441/504/350 440/499/345 431/498/338
f 442/502/348 443/506/351 745/507/352 439/500/346
f 445/508/353 443/506/351 442/502/348 444/503/349
f 445/508/353 444/503/349 446/509/354 447/510/355
f 446/509/354 444/503/349 441/504/350 448/511/356
f 238/293/210 455/297/214 447/510/355 446/509/354
f 238/293/210 446/509/354 448/511/356 235/288/206
f 233/289/207 235/288/206 448/511/356 449/512/357
f 449/512/357 448/511/356 441/504/350 450/505/340
f 233/290/207 449/513/357 451/514/358 452/291/208
f 449/513/357 450/491/340 432/487/336 451/514/358
f 454/515/359 452/291/208 451/514/358 453/516/360
f 453/516/360 451/514/358 432/487/336 429/485/334
f 207/255/180 454/515/359 453/516/360 205/253/178
f 429/485/334 203/251/176 205/253/178 453/516/360
f 454/515/359 225/275/196 228/277/198 452/291/208
f 207/255/180 223/256/181 225/275/196 454/515/359
f 455/297/214 458/517/361 456/518/362 447/510/355
f 459/519/363 445/508/353 447/510/355 456/518/362
f 461/520/364 459/519/363 456/518/362 457/521/365
f 458/517/361 471/522/366 457/521/365 456/518/362
f 461/520/364 462/523/367 460/524/368 459/519/363
f 459/519/363 460/524/368 443/506/351 445/508/353
f 463/525/369 464/526/370 462/523/367 461/520/364
f 463/525/369 461/520/364 457/521/365 466/527/371
f 465/528/372 754/529/373 464/526/370 463/525/369
f 465/528/372 463/525/369 466/527/371 467/530/374
f 468/531/375 469/532/376 467/530/374 466/527/371
f 471/522/366 468/531/375 466/527/371 457/521/365
f 470/533/377 489/534/378 469/532/376 468/531/375
f 472/535/379 470/533/377 468/531/375 471/522/366
f 473/536/380 472/535/379 471/522/366 458/517/361
f 475/537/381 474/538/382 472/535/379 473/536/380
f 474/538/382 476/539/383 470/533/377 472/535/379
f 266/540/235 478/541/237 476/539/383 474/538/382
f 264/542/232 266/540/235 474/538/382 475/537/381
f 476/539/383 477/543/384 489/534/378 470/533/377
f 478/541/237 479/544/385 477/543/384 476/539/383
f 478/327/237 267/326/236 480/545/386 479/546/385
f 479/546/385 480/545/386 482/547/387 481/548/388
f 479/544/385 481/549/388 484/550/389 477/543/384
f 483/551/390 481/548/388 482/547/387 515/552/391
f 481/549/388 483/553/390 485/554/392 484/550/389
f 484/550/389 485/554/392 487/555/393 486/556/394
f 477/543/384 484/550/389 486/556/394 489/534/378
f 486/556/394 487/555/393 490/557/395 488/558/396
f 489/534/378 486/556/394 488/558/396 469/532/376
f 488/558/396 490/557/395 492/559/397 491/560/398
f 469/532/376 488/558/396 491/560/398 467/530/374
f 495/561/399 493/562/400 491/560/398 492/559/397
f 493/562/400 465/528/372 467/530/374 491/560/398
f 465/528/372 493/562/400 494/563/401 754/529/373
f 493/562/400 495/561/399 496/564/402 494/563/401
f 497/565/403 498/566/404 496/564/402 495/561/399
f 497/565/403 495/561/399 492/559/397 500/567/405
f 499/568/406 763/569/407 498/566/404 497/565/403
f 499/568/406 497/565/403 500/567/405 502/570/408
f 501/571/409 504/572/410 502/570/408 500/567/405
f 490/557/395 501/571/409 500/567/405 492/559/397
f 547/573/411 499/568/406 502/570/408 503/574/412
f 504/572/410 505/575/413 503/574/412 502/570/408
f 506/576/414 507/577/415 505/575/413 504/572/410
f 508/578/416 506/576/414 504/572/410 501/571/409
f 509/579/417 510/580/418 507/577/415 506/576/414
f 512/581/419 509/579/417 506/576/414 508/578/416
f 511/582/420 535/583/421 510/580/418 509/579/417
f 513/584/422 511/582/420 509/579/417 512/581/419
f 483/553/390 513/584/422 512/581/419 485/554/392
f 485/554/392 512/581/419 508/578/416 487/555/393
f 513/585/422 483/551/390 515/552/391 514/586/423
f 511/587/420 513/585/422 514/586/423 516/588/424
f 520/589/425 517/590/426 514/586/423 515/552/391
f 517/590/426 518/591/427 516/588/424 514/586/423
f 519/592/1 525/593/1 518/591/427 517/590/426
f 521/338/1 519/592/1 517/590/426 520/589/425
f 522/594/428 277/335/1 521/338/1 520/589/425
f 522/594/428 520/589/425 515/552/391 482/547/387
f 523/332/239 272/331/1 277/335/1 522/594/428
f 480/545/386 523/332/239 522/594/428 482/547/387
f 267/326/236 269/328/238 523/332/239 480/545/386
f 519/592/1 521/338/1 278/337/1 524/595/1
f 525/593/1 519/592/1 524/595/1 526/596/1
f 525/593/1 346/405/1 533/408/259 518/591/427
f 346/405/1 525/593/1 526/596/1 344/403/1
f 527/597/1 342/401/1 344/403/1 526/596/1
f 529/344/1 527/597/1 526/596/1 524/595/1
f 342/401/1 527/597/1 528/348/1 530/402/1
f 527/597/1 529/344/1 284/345/1 528/348/1
f 280/339/1 529/344/1 524/595/1 278/337/1
f 531/352/1 530/402/1 528/348/1 287/347/1
f 532/388/1 338/396/1 530/402/1 531/352/1
f 327/384/1 532/388/1 531/352/1 290/351/1
f 516/588/424 518/591/427 533/408/259 534/598/429
f 533/408/259 347/407/258 353/414/265 534/598/429
f 511/587/420 516/588/424 534/598/429 535/599/421
f 536/416/267 535/599/421 534/598/429 353/414/265
f 535/583/421 536/600/267 537/601/430 510/580/418
f 536/600/267 354/602/266 538/603/431 537/601/430
f 537/601/430 538/603/431 540/604/432 539/605/433
f 510/580/418 537/601/430 539/605/433 507/577/415
f 539/605/433 540/604/432 542/606/434 541/607/435
f 507/577/415 539/605/433 541/607/435 505/575/413
f 541/607/435 542/606/434 544/608/436 543/609/437
f 505/575/413 541/607/435 543/609/437 503/574/412
f 548/610/438 545/611/439 543/609/437 544/608/436
f 545/611/439 547/573/411 503/574/412 543/609/437
f 548/610/438 549/612/440 546/613/441 545/611/439
f 545/611/439 546/613/441 764/614/442 547/573/411
f 550/615/443 551/616/444 549/612/440 548/610/438
f 550/615/443 548/610/438 544/608/436 553/617/445
f 552/618/446 561/619/447 551/616/444 550/615/443
f 552/618/446 550/615/443 553/617/445 554/620/448
f 555/621/449 556/622/450 554/620/448 553/617/445
f 542/606/434 555/621/449 553/617/445 544/608/436
f 557/623/451 558/624/452 556/622/450 555/621/449
f 540/604/432 557/623/451 555/621/449 542/606/434
f 559/625/453 560/626/454 558/624/452 557/623/451
f 538/603/431 559/625/453 557/623/451 540/604/432
f 356/627/268 358/628/270 560/626/454 559/625/453
f 354/602/266 356/627/268 559/625/453 538/603/431
f 358/628/270 361/423/271 365/426/275 560/626/454
f 560/626/454 365/426/275 367/428/277 558/624/452
f 558/624/452 367/428/277 369/430/279 556/622/450
f 556/622/450 369/430/279 372/432/281 554/620/448
f 376/435/284 552/618/446 554/620/448 372/432/281
f 376/435/284 562/439/288 561/619/447 552/618/446
f 551/616/444 561/619/447 563/629/455 566/630/456
f 561/619/447 562/439/288 565/631/457 563/629/455
f 564/632/458 568/633/459 566/630/456 563/629/455
f 740/634/460 564/632/458 563/629/455 565/631/457
f 549/612/440 551/616/444 566/630/456 567/635/461
f 568/633/459 569/636/462 567/635/461 566/630/456
f 571/637/463 569/636/462 568/633/459 570/638/464
f 564/632/458 572/639/465 570/638/464 568/633/459
f 571/637/463 570/638/464 573/640/466 574/641/467
f 570/638/464 572/639/465 575/642/468 573/640/466
f 576/643/469 579/644/470 574/641/467 573/640/466
f 578/645/471 576/643/469 573/640/466 575/642/468
f 577/646/472 580/647/473 579/644/470 576/643/469
f 577/646/472 576/643/469 578/645/471 688/648/474
f 582/649/475 581/650/476 579/644/470 580/647/473
f 579/644/470 581/650/476 584/651/477 574/641/467
f 772/652/478 583/653/479 581/650/476 582/649/475
f 581/650/476 583/653/479 586/654/480 584/651/477
f 585/655/481 571/637/463 574/641/467 584/651/477
f 587/656/482 585/655/481 584/651/477 586/654/480
f 589/657/483 587/656/482 586/654/480 588/658/484
f 583/653/479 591/659/485 588/658/484 586/654/480
f 768/660/486 589/657/483 588/658/484 590/661/487
f 591/659/485 593/662/488 590/661/487 588/658/484
f 594/663/489 593/662/488 591/659/485 592/664/490
f 772/652/478 592/664/490 591/659/485 583/653/479
f 596/665/491 595/666/492 593/662/488 594/663/489
f 593/662/488 595/666/492 598/667/493 590/661/487
f 771/668/494 597/669/495 595/666/492 596/665/491
f 595/666/492 597/669/495 600/670/496 598/667/493
f 599/671/497 768/660/486 590/661/487 598/667/493
f 601/672/498 599/671/497 598/667/493 600/670/496
f 603/673/499 601/672/498 600/670/496 602/674/500
f 597/669/495 605/675/501 602/674/500 600/670/496
f 769/676/502 603/673/499 602/674/500 604/677/503
f 605/675/501 607/678/504 604/677/503 602/674/500
f 606/679/505 608/680/506 607/678/504 605/675/501
f 606/679/505 605/675/501 597/669/495 771/668/494
f 608/680/506 610/681/507 609/682/508 607/678/504
f 607/678/504 609/682/508 612/683/509 604/677/503
f 770/684/510 611/685/511 609/682/508 610/681/507
f 609/682/508 611/685/511 614/686/512 612/683/509
f 613/687/513 769/676/502 604/677/503 612/683/509
f 615/688/514 613/687/513 612/683/509 614/686/512
f 617/689/515 615/688/514 614/686/512 616/690/516
f 611/685/511 619/691/517 616/690/516 614/686/512
f 741/692/518 617/689/515 616/690/516 618/693/519
f 619/691/517 621/694/520 618/693/519 616/690/516
f 622/695/521 621/694/520 619/691/517 620/696/522
f 620/696/522 619/691/517 611/685/511 770/684/510
f 623/697/523 621/694/520 622/695/521 625/698/524
f 621/694/520 623/697/523 626/699/525 618/693/519
f 624/700/526 628/701/527 626/699/525 623/697/523
f 642/702/528 624/700/526 623/697/523 625/698/524
f 618/693/519 626/699/525 627/703/529 741/692/518
f 628/701/527 630/704/530 627/703/529 626/699/525
f 624/705/526 640/706/531 629/707/532 628/708/527
f 628/708/527 629/707/532 631/709/533 630/710/530
f 436/495/342 438/494/343 627/703/529 630/704/530
f 436/493/342 630/710/530 631/709/533 434/492/341
f 634/482/331 434/492/341 631/709/533 632/711/534
f 635/712/535 632/711/534 631/709/533 629/707/532
f 633/713/536 632/711/534 635/712/535 636/714/537
f 632/711/534 633/713/536 425/480/329 634/482/331
f 637/715/538 638/716/539 636/714/537 635/712/535
f 637/715/538 635/712/535 629/707/532 640/706/531
f 639/717/521 643/718/540 638/716/539 637/715/538
f 639/717/521 637/715/538 640/706/531 641/719/541
f 642/720/528 641/719/541 640/706/531 624/705/526
f 644/721/542 645/722/543 638/716/539 643/718/540
f 646/723/544 647/724/545 645/722/543 644/721/542
f 648/725/546 649/726/547 647/724/545 646/723/544
f 650/727/548 651/728/549 649/726/547 648/725/546
f 650/727/548 652/729/550 653/730/551 651/728/549
f 652/729/550 654/731/552 655/732/553 653/730/551
f 656/733/554 657/734/555 655/732/553 654/731/552
f 658/735/556 659/736/557 657/734/555 656/733/554
f 660/737/558 661/738/559 659/736/557 658/735/556
f 660/737/558 662/739/560 663/740/561 661/738/559
f 664/741/562 665/742/563 663/740/561 662/739/560
f 666/743/564 667/744/565 665/742/563 664/741/562
f 668/745/566 669/746/567 667/744/565 666/743/564
f 668/745/566 670/747/568 671/748/569 669/746/567
f 670/747/568 672/749/570 673/750/571 671/748/569
f 672/749/570 674/751/572 675/752/573 673/750/571
f 677/753/574 675/752/573 674/751/572 676/754/575
f 679/755/576 677/753/574 676/754/575 678/756/577
f 679/755/576 678/756/577 680/757/578 681/758/579
f 682/759/580 683/760/581 681/758/579 680/757/578
f 684/761/582 685/762/583 683/760/581 682/759/580
f 686/763/584 687/764/585 685/762/583 684/761/582
f 688/648/474 578/645/471 687/764/585 686/763/584
f 685/762/583 687/764/585 689/765/586 691/766/587
f 687/764/585 578/645/471 575/642/468 689/765/586
f 690/767/588 693/768/589 691/766/587 689/765/586
f 572/639/465 690/767/588 689/765/586 575/642/468
f 683/760/581 685/762/583 691/766/587 692/769/590
f 693/768/589 695/770/591 692/769/590 691/766/587
f 694/771/592 693/768/589 690/767/588 740/634/460
f 693/768/589 694/771/592 697/772/593 695/770/591
f 692/769/590 695/770/591 696/773/594 706/774/595
f 697/772/593 698/775/596 696/773/594 695/770/591
f 697/772/593 699/776/597 701/444/293 698/775/596
f 697/772/593 694/771/592 700/777/598 699/776/597
f 375/438/287 378/437/286 699/776/597 700/777/598
f 380/441/290 701/444/293 699/776/597 378/437/286
f 698/775/596 701/444/293 384/443/292 702/447/296
f 694/771/592 740/634/460 565/631/457 700/777/598
f 562/439/288 375/438/287 700/777/598 565/631/457
f 702/447/296 703/778/599 696/773/594 698/775/596
f 702/447/296 387/448/297 704/779/600 703/778/599
f 705/780/601 703/778/599 704/779/600 707/781/602
f 705/780/601 706/774/595 696/773/594 703/778/599
f 681/758/579 706/774/595 705/780/601 679/755/576
f 679/755/576 705/780/601 707/781/602 677/753/574
f 675/752/573 677/753/574 707/781/602 708/782/603
f 708/782/603 707/781/602 704/779/600 709/783/604
f 709/783/604 712/784/605 710/785/606 708/782/603
f 673/750/571 675/752/573 708/782/603 710/785/606
f 671/748/569 673/750/571 710/785/606 711/786/607
f 712/784/605 713/787/608 711/786/607 710/785/606
f 391/450/299 712/784/605 709/783/604 389/449/298
f 712/784/605 391/450/299 393/452/301 713/787/608
f 395/454/303 714/788/609 713/787/608 393/452/301
f 713/787/608 714/788/609 716/789/610 711/786/607
f 714/788/609 715/790/611 717/791/612 716/789/610
f 715/790/611 714/788/609 395/454/303 398/456/305
f 667/744/565 669/746/567 716/789/610 717/791/612
f 669/746/567 671/748/569 711/786/607 716/789/610
f 715/790/611 720/792/613 718/793/614 717/791/612
f 665/742/563 667/744/565 717/791/612 718/793/614
f 663/740/561 665/742/563 718/793/614 719/794/615
f 720/792/613 721/795/616 719/794/615 718/793/614
f 721/795/616 720/792/613 400/458/307 402/460/309
f 398/456/305 400/458/307 720/792/613 715/790/611
f 402/460/309 404/462/311 722/796/617 721/795/616
f 721/795/616 722/796/617 724/797/618 719/794/615
f 722/796/617 723/798/619 725/799/620 724/797/618
f 723/798/619 722/796/617 404/462/311 407/464/313
f 659/736/557 661/738/559 724/797/618 725/799/620
f 661/738/559 663/740/561 719/794/615 724/797/618
f 723/798/619 728/800/621 726/801/622 725/799/620
f 657/734/555 659/736/557 725/799/620 726/801/622
f 655/732/553 657/734/555 726/801/622 727/802/623
f 728/800/621 729/803/624 727/802/623 726/801/622
f 729/803/624 728/800/621 409/466/315 411/468/317
f 407/464/313 409/466/315 728/800/621 723/798/619
f 411/468/317 413/470/319 730/804/625 729/803/624
f 729/803/624 730/804/625 732/805/626 727/802/623
f 413/470/319 417/472/321 731/806/627 730/804/625
f 730/804/625 731/806/627 733/807/628 732/805/626
f 653/730/551 655/732/553 727/802/623 732/805/626
f 651/728/549 653/730/551 732/805/626 733/807/628
f 649/726/547 651/728/549 733/807/628 734/808/629
f 731/806/627 735/809/630 734/808/629 733/807/628
f 735/809/630 738/810/631 736/811/632 734/808/629
f 647/724/545 649/726/547 734/808/629 736/811/632
f 645/722/543 647/724/545 736/811/632 737/812/633
f 738/810/631 739/813/634 737/812/633 736/811/632
f 739/813/634 738/810/631 421/476/325 423/478/327
f 419/475/324 421/476/325 738/810/631 735/809/630
f 423/478/327 425/480/329 633/713/536 739/813/634
f 739/813/634 633/713/536 636/714/537 737/812/633
f 638/716/539 645/722/543 737/812/633 636/714/537
f 735/809/630 731/806/627 417/472/321 419/475/324
f 389/449/298 709/783/604 704/779/600 387/448/297
f 683/760/581 692/769/590 706/774/595 681/758/579
f 572/639/465 564/632/458 740/634/460 690/767/588
f 742/501/347 741/692/518 627/703/529 438/494/343
f 743/814/635 617/689/515 741/692/518 742/501/347
f 743/814/635 742/501/347 439/500/346 745/507/352
f 617/689/515 743/814/635 744/815/636 615/688/514
f 744/815/636 743/814/635 745/507/352 746/816/637
f 443/506/351 460/524/368 746/816/637 745/507/352
f 748/817/638 744/815/636 746/816/637 747/818/639
f 460/524/368 462/523/367 747/818/639 746/816/637
f 750/819/640 748/817/638 747/818/639 749/820/641
f 462/523/367 464/526/370 749/820/641 747/818/639
f 752/821/642 750/819/640 749/820/641 751/822/643
f 464/526/370 754/529/373 751/822/643 749/820/641
f 755/823/644 752/821/642 751/822/643 753/824/645
f 754/529/373 494/563/401 753/824/645 751/822/643
f 757/825/646 755/823/644 753/824/645 756/826/647
f 494/563/401 496/564/402 756/826/647 753/824/645
f 759/827/648 757/825/646 756/826/647 758/828/649
f 496/564/402 498/566/404 758/828/649 756/826/647
f 761/829/650 759/827/648 758/828/649 760/830/651
f 498/566/404 763/569/407 760/830/651 758/828/649
f 765/831/652 761/829/650 760/830/651 762/832/653
f 763/569/407 764/614/442 762/832/653 760/830/651
f 547/573/411 764/614/442 763/569/407 499/568/406
f 764/614/442 546/613/441 766/833/654 762/832/653
f 767/834/655 765/831/652 762/832/653 766/833/654
f 569/636/462 767/834/655 766/833/654 567/635/461
f 546/613/441 549/612/440 567/635/461 766/833/654
f 587/656/482 765/831/652 767/834/655 585/655/481
f 569/636/462 571/637/463 585/655/481 767/834/655
f 765/831/652 587/656/482 589/657/483 761/829/650
f 768/660/486 759/827/648 761/829/650 589/657/483
f 759/827/648 768/660/486 599/671/497 757/825/646
f 757/825/646 599/671/497 601/672/498 755/823/644
f 603/673/499 752/821/642 755/823/644 601/672/498
f 752/821/642 603/673/499 769/676/502 750/819/640
f 613/687/513 748/817/638 750/819/640 769/676/502
f 748/817/638 613/687/513 615/688/514 744/815/636
f 487/555/393 508/578/416 501/571/409 490/557/395
f 242/299/216 264/542/232 475/537/381 240/295/212
f 240/295/212 475/537/381 473/536/380 237/296/213
f 237/296/213 473/536/380 458/517/361 455/297/214
f 320/377/250 773/167/97 130/170/98 329/387/252
f 310/367/1 312/369/1 317/374/1 324/380/1
f 300/361/1 310/367/1 324/380/1 298/358/1
f 319/153/84 118/152/83 124/168/90 773/167/97
f 6/2/1 2/1/1 59/73/1 282/343/1
f 192/108/47 83/103/42 211/104/43 196/239/164
f 774/66/1 52/67/1 3/5/1 776/8/1
f 48/61/1 774/66/1 775/835/1 782/49/1
f 775/835/1 774/66/1 776/8/1 777/836/1
f 4/7/1 779/837/1 777/836/1 776/8/1
f 781/45/21 775/835/1 777/836/1 778/36/14
f 779/837/1 27/33/11 778/36/14 777/836/1
f 779/837/1 780/17/1 25/31/9 27/33/11
f 780/17/1 779/837/1 4/7/1 7/9/1
f 780/17/1 12/16/1 18/24/2 25/31/9
f 35/42/20 781/45/21 778/36/14 28/35/13
f 34/43/1 782/49/1 775/835/1 781/45/21
