# PadForge: shell re-filed to the part it belongs to
o MuteButton
v -2.099918 -18.504045 -7.941532
v -1.168396 -18.502489 -7.941532
v -1.168396 -18.662876 -7.572094
v -2.099918 -18.664289 -7.572411
v -0.001574 -18.500547 -7.941532
v -0.001579 -18.661104 -7.571712
v -0.001412 -18.754381 -7.356842
v -1.168396 -18.756081 -7.357399
v -2.099918 -18.757444 -7.357845
v 2.777001 -18.252886 -8.501381
v 3.019675 -18.283113 -8.430820
v 3.089098 -18.360651 -8.251942
v 2.804128 -18.342285 -8.295341
v 3.171474 -18.320154 -8.344898
v 3.252879 -18.387056 -8.190479
v 3.295877 -18.495060 -7.941532
v 3.116524 -18.495358 -7.941532
v 2.812611 -18.495865 -7.941532
v -2.784334 -18.748476 -7.381119
v -3.025515 -18.719372 -7.449081
v -3.093317 -18.642853 -7.625603
v -2.809665 -18.659636 -7.585861
v -3.175330 -18.683683 -7.531876
v -3.255622 -18.618126 -7.683193
v -3.297794 -18.506039 -7.941532
v -3.119000 -18.505745 -7.941532
v -2.815600 -18.505238 -7.941532
v -2.099918 -18.249668 -8.527500
v -1.168396 -18.248316 -8.527050
v -1.168396 -18.342066 -8.311089
v -2.099918 -18.343481 -8.311401
v -0.001549 -18.246605 -8.526501
v -0.001567 -18.340286 -8.310711
v 3.253747 -18.607430 -7.682850
v 3.090894 -18.632996 -7.624580
v 3.173317 -18.673449 -7.531082
v 3.023010 -18.709946 -7.447598
v 2.781432 -18.740210 -7.378807
v 2.806693 -18.650974 -7.584251
v -3.254745 -18.397738 -8.190853
v -3.091510 -18.370497 -8.252953
v -3.173346 -18.330347 -8.345772
v -3.021721 -18.292509 -8.432343
v -2.779658 -18.261139 -8.503696
v -2.807083 -18.350929 -8.296947
v -2.801569 -18.610920 -7.156734
v -3.072354 -18.571936 -7.247505
v -3.065382 -18.641878 -7.260777
v -2.800090 -18.679928 -7.172539
v -3.317163 -18.501930 -7.409763
v -3.305490 -18.574751 -7.418224
v -3.478088 -18.396120 -7.654503
v -3.462215 -18.472939 -7.658691
v -3.537512 -18.271814 -7.941532
v -3.519870 -18.351837 -7.941532
v -3.478020 -18.146734 -8.229683
v -3.463310 -18.231440 -8.220451
v -3.316973 -18.038847 -8.477573
v -3.306512 -18.125311 -8.465836
v -3.071959 -17.966509 -8.642899
v -3.064705 -18.055767 -8.628147
v -2.801052 -17.925505 -8.735947
v -2.799180 -18.016382 -8.719509
v -1.168396 -18.000856 -8.749748
v -2.099918 -18.002304 -8.749916
v -2.099918 -17.910849 -8.766907
v -1.168396 -17.909340 -8.766808
v -0.001548 -17.999035 -8.749535
v -0.001428 -17.907455 -8.766693
v 3.069804 -17.956465 -8.642529
v 3.062332 -18.045906 -8.627533
v 2.796283 -18.007568 -8.718616
v 2.798370 -17.916418 -8.735455
v 3.315350 -18.027920 -8.477333
v 3.304647 -18.114481 -8.465519
v 3.476577 -18.135260 -8.229469
v 3.461639 -18.220045 -8.220222
v 3.536035 -18.260050 -7.941532
v 3.518176 -18.340158 -7.941532
v 3.476671 -18.384640 -7.654293
v 3.460599 -18.461548 -7.658466
v 3.315899 -18.491007 -7.409523
v 3.304006 -18.563936 -7.417900
v 3.071511 -18.561884 -7.247131
v 3.064137 -18.631971 -7.260124
v 2.801142 -18.601828 -7.156242
v 2.799091 -18.670982 -7.171616
v 1.167358 -18.686552 -7.142311
v 2.098880 -18.685057 -7.142139
v 2.098880 -18.616129 -7.126011
v 1.167358 -18.617641 -7.126102
v -0.000452 -18.688417 -7.142525
v -0.000144 -18.619522 -7.126213
v 1.167358 -16.137346 -7.025543
v 1.167358 -16.340288 -7.025543
v 2.098880 -16.340288 -7.025547
v 2.098880 -16.137346 -7.025547
v 0.000922 -16.137346 -7.025543
v 0.000922 -16.340288 -7.025543
v -2.814531 -16.137346 -7.057602
v -3.109539 -16.137346 -7.154964
v -3.109539 -16.340288 -7.154964
v -2.814531 -16.340288 -7.057602
v -3.065666 -16.380291 -7.245792
v -3.313451 -16.380291 -7.408550
v -3.317163 -18.396109 -7.409763
v -3.072354 -18.466114 -7.247509
v -3.385662 -16.137346 -7.336338
v -3.570263 -16.137346 -7.617374
v -3.570263 -16.340288 -7.617374
v -3.385662 -16.340288 -7.336338
v -3.476209 -16.380291 -7.656334
v -3.535276 -16.380291 -7.941532
v -3.537512 -18.165995 -7.941532
v -3.478088 -18.290300 -7.654503
v -3.637398 -16.137346 -7.941532
v -3.570263 -16.137346 -8.275883
v -3.570262 -16.340288 -8.275887
v -3.637398 -16.340288 -7.941532
v -3.476209 -16.380291 -8.236927
v -3.313450 -16.380291 -8.484711
v -3.316973 -17.933025 -8.477573
v -3.478020 -18.040915 -8.229683
v -3.385662 -16.137346 -8.556923
v -3.109540 -16.137346 -8.738297
v -3.109540 -16.340288 -8.738297
v -3.385661 -16.340288 -8.556923
v -3.065666 -16.380291 -8.647469
v -2.792446 -16.380291 -8.737656
v -2.801052 -17.819687 -8.735943
v -3.071959 -17.860687 -8.642899
v -1.168396 -16.137346 -8.867714
v -1.168396 -16.340288 -8.867714
v -2.099918 -16.340288 -8.867714
v -2.099918 -16.137346 -8.867714
v -0.000517 -16.137346 -8.867714
v -0.000517 -16.340288 -8.867714
v 3.109151 -16.137346 -8.738327
v 3.109151 -16.340288 -8.738327
v 2.813675 -16.340288 -8.835663
v 2.813675 -16.137346 -8.835663
v 3.069804 -17.850649 -8.642529
v 3.065351 -16.380291 -8.647469
v 3.313675 -16.380291 -8.484711
v 3.315350 -17.922100 -8.477333
v 3.570662 -16.137346 -8.275909
v 3.570662 -16.340288 -8.275909
v 3.385834 -16.340288 -8.556980
v 3.385834 -16.137346 -8.556980
v 3.476577 -18.029440 -8.229469
v 3.476614 -16.380291 -8.236927
v 3.535681 -16.380291 -7.941532
v 3.536035 -18.154226 -7.941532
v 3.570673 -16.137346 -7.617401
v 3.570673 -16.340288 -7.617401
v 3.637802 -16.340288 -7.941532
v 3.637802 -16.137346 -7.941532
v 3.476671 -18.278818 -7.654293
v 3.476614 -16.380291 -7.656334
v 3.314035 -16.380291 -7.408550
v 3.315899 -18.385187 -7.409519
v 3.110736 -16.137346 -7.154999
v 3.110736 -16.340288 -7.154999
v 3.386297 -16.340288 -7.336399
v 3.386297 -16.137346 -7.336399
v 3.071511 -18.456064 -7.247131
v 3.066791 -16.380291 -7.245792
v 2.794082 -16.380291 -7.155609
v 2.801142 -18.496006 -7.156246
v -1.168396 -18.621414 -7.126328
v -1.168396 -18.515598 -7.126328
v -2.099918 -18.517115 -7.126419
v -2.099918 -18.622931 -7.126419
v -0.000144 -18.513702 -7.126217
v -2.801569 -18.505100 -7.156734
v 1.167358 -17.905563 -8.766586
v 1.167358 -17.799746 -8.766586
v 2.098880 -17.798237 -8.766491
v 2.098880 -17.904058 -8.766491
v -0.001428 -17.801638 -8.766693
v 2.798370 -17.810598 -8.735455
v 2.098880 -18.497053 -7.941532
v 2.558638 -18.496290 -7.941532
v 2.558638 -18.657207 -7.570858
v 2.098880 -18.657904 -7.571022
v 2.558638 -18.750648 -7.355621
v 2.098880 -18.751316 -7.355843
v -2.559676 -18.758102 -7.358070
v -2.559676 -18.664993 -7.572563
v -2.559676 -18.504805 -7.941532
v 2.098880 -18.243547 -8.525494
v 2.558638 -18.243071 -8.524818
v 2.558638 -18.336393 -8.309853
v 2.098880 -18.337097 -8.310001
v -2.559676 -18.344175 -8.311558
v -2.559676 -18.250446 -8.527470
v 2.558638 -17.995010 -8.749065
v 2.098880 -17.995737 -8.749153
v 2.558638 -17.903309 -8.766449
v -2.559676 -17.911598 -8.766945
v -2.559676 -18.003023 -8.749992
v -2.559676 -18.692482 -7.142998
v -2.099918 -18.691763 -7.142914
v -2.559676 -18.623672 -7.126461
v 2.558638 -18.615387 -7.125969
v 2.558638 -18.684324 -7.142059
v -2.559676 -16.340288 -7.025566
v -2.099918 -16.340288 -7.025543
v -2.099918 -16.137346 -7.025543
v -2.559676 -16.137346 -7.025566
v 2.558638 -18.509571 -7.125969
v 2.558638 -16.380291 -7.125988
v 2.098880 -16.380291 -7.125546
v 2.098880 -18.510307 -7.126011
v 2.558638 -16.340288 -8.867714
v 2.098880 -16.340288 -8.867714
v 2.098880 -16.137346 -8.867714
v 2.558638 -16.137346 -8.867714
v -2.559676 -17.805777 -8.766945
v -2.559676 -16.380291 -8.766926
v -2.099918 -16.380291 -8.767715
v -2.099918 -17.805029 -8.766903
v -2.559676 -18.517851 -7.126461
v 2.558638 -17.797489 -8.766449
v 1.167358 -18.498610 -7.941532
v 1.167358 -18.659323 -7.571323
v 1.167358 -18.752672 -7.356293
v 1.167358 -18.244900 -8.525951
v 1.167358 -18.338509 -8.310314
v 1.167358 -17.997198 -8.749325
v -1.168396 -18.690281 -7.142742
v -1.168396 -16.340288 -7.025543
v -1.168396 -16.137346 -7.025543
v 1.167358 -16.340288 -8.867714
v 1.167358 -16.137346 -8.867714
v 1.167358 -18.511820 -7.126106
v -1.168396 -17.803520 -8.766808
v 1.167358 -16.380291 -7.125546
v 0.000922 -16.380291 -7.125546
v -2.792418 -16.380291 -7.155605
v -2.814563 -16.137346 -8.835659
v -2.814563 -16.340288 -8.835659
v -1.168396 -16.380291 -8.767715
v -0.000517 -16.380291 -8.767715
v 2.791592 -16.380291 -8.737652
v 2.816230 -16.137346 -7.057606
v 2.816230 -16.340288 -7.057606
v -2.099918 -16.380291 -7.125546
v -2.559676 -16.380291 -7.126350
v 2.558638 -16.137346 -7.025547
v 2.558638 -16.340288 -7.025547
v 2.098880 -16.380291 -8.767715
v 2.558638 -16.380291 -8.766926
v -2.559676 -16.137346 -8.867714
v -2.559676 -16.340288 -8.867714
v -1.168396 -16.380291 -7.125546
v 1.167358 -16.380291 -8.767715
v 2.098880 -16.117350 -7.125546
v 1.167358 -16.117350 -7.125546
v 1.167358 -16.117350 -7.045547
v 2.098880 -16.117350 -7.045547
v 0.000922 -16.117350 -7.125546
v 0.000922 -16.117350 -7.045547
v -1.168396 -16.117350 -7.125546
v -1.168396 -16.117350 -7.045547
v -2.099918 -16.117350 -7.125546
v -2.099918 -16.117350 -7.045547
v -2.559676 -16.117350 -7.126350
v -2.559676 -16.117350 -7.045685
v -2.792418 -16.117350 -7.155605
v -2.810129 -16.117350 -7.077110
v -3.065666 -16.117350 -7.245792
v -3.100840 -16.117350 -7.172974
v -3.313451 -16.117350 -7.408550
v -3.371520 -16.117350 -7.350479
v -3.476209 -16.117350 -7.656334
v -3.551785 -16.117350 -7.625031
v -3.535276 -16.117350 -7.941532
v -3.617397 -16.117350 -7.941532
v -3.476209 -16.117350 -8.236927
v -3.551785 -16.117350 -8.268230
v -3.313451 -16.117350 -8.484711
v -3.371521 -16.117350 -8.542782
v -3.065666 -16.117350 -8.647469
v -3.100841 -16.117350 -8.720287
v -2.792446 -16.117350 -8.737656
v -2.810160 -16.117350 -8.816151
v -2.559676 -16.117350 -8.766926
v -2.559676 -16.117350 -8.847591
v -2.099918 -16.117350 -8.767715
v -2.099918 -16.117350 -8.847713
v -1.168396 -16.117350 -8.767715
v -1.168396 -16.117350 -8.847713
v -0.000517 -16.117350 -8.767715
v -0.000517 -16.117350 -8.847713
v 1.167358 -16.117350 -8.767715
v 1.167358 -16.117350 -8.847713
v 2.098880 -16.117350 -8.767715
v 2.098880 -16.117350 -8.847713
v 2.558638 -16.117350 -8.766926
v 2.558638 -16.117350 -8.847591
v 2.791592 -16.117350 -8.737652
v 2.809279 -16.117350 -8.816151
v 3.065351 -16.117350 -8.647469
v 3.100466 -16.117350 -8.720314
v 3.313675 -16.117350 -8.484711
v 3.371704 -16.117350 -8.542828
v 3.476614 -16.117350 -8.236927
v 3.552186 -16.117350 -8.268253
v 3.535681 -16.117350 -7.941532
v 3.617802 -16.117350 -7.941532
v 3.476614 -16.117350 -7.656334
v 3.552193 -16.117350 -7.625050
v 3.314035 -16.117350 -7.408550
v 3.372144 -16.117350 -7.350529
v 3.066791 -16.117350 -7.245792
v 3.102023 -16.117350 -7.173000
v 2.794082 -16.117350 -7.155609
v 2.811821 -16.117350 -7.077114
v 2.558638 -16.117350 -7.125988
v 2.558638 -16.117350 -7.045509
v 1.167358 -16.360287 -7.105545
v 2.098880 -16.360287 -7.105545
v 2.098880 -16.360287 -7.045547
v 1.167358 -16.360287 -7.045547
v 2.558638 -16.360287 -7.105873
v 2.558638 -16.360287 -7.045509
v 2.798491 -16.360287 -7.136101
v 2.811821 -16.360287 -7.077114
v 3.075504 -16.360287 -7.227791
v 3.102023 -16.360287 -7.173000
v 3.328188 -16.360287 -7.394421
v 3.372144 -16.360287 -7.350529
v 3.495094 -16.360287 -7.648685
v 3.552193 -16.360287 -7.625050
v 3.555682 -16.360287 -7.941532
v 3.617802 -16.360287 -7.941532
v 3.495090 -16.360287 -8.244587
v 3.552186 -16.360287 -8.268253
v 3.327807 -16.360287 -8.498863
v 3.371704 -16.360287 -8.542828
v 3.074036 -16.360287 -8.665485
v 3.100466 -16.360287 -8.720314
v 2.795988 -16.360287 -8.757164
v 2.809279 -16.360287 -8.816154
v 2.558638 -16.360287 -8.787041
v 2.558638 -16.360287 -8.847591
v 2.098880 -16.360287 -8.787716
v 2.098880 -16.360287 -8.847713
v 1.167358 -16.360287 -8.787716
v 1.167358 -16.360287 -8.847713
v -0.000517 -16.360287 -8.787716
v -0.000517 -16.360287 -8.847713
v -1.168396 -16.360287 -8.787716
v -1.168396 -16.360287 -8.847713
v -2.099918 -16.360287 -8.787716
v -2.099918 -16.360287 -8.847713
v -2.559676 -16.360287 -8.787041
v -2.559676 -16.360287 -8.847591
v -2.796849 -16.360287 -8.757164
v -2.810160 -16.360287 -8.816151
v -3.074366 -16.360287 -8.665478
v -3.100841 -16.360287 -8.720287
v -3.327593 -16.360287 -8.498852
v -3.371519 -16.360287 -8.542782
v -3.494686 -16.360287 -8.244579
v -3.551785 -16.360287 -8.268230
v -3.555277 -16.360287 -7.941532
v -3.617397 -16.360287 -7.941532
v -3.494686 -16.360287 -7.648678
v -3.551785 -16.360287 -7.625031
v -3.327593 -16.360287 -7.394409
v -3.371520 -16.360287 -7.350479
v -3.074366 -16.360287 -7.227783
v -3.100840 -16.360287 -7.172974
v -2.796820 -16.360287 -7.136097
v -2.810129 -16.360287 -7.077110
v -2.559676 -16.360287 -7.106236
v -2.559676 -16.360287 -7.045685
v -2.099918 -16.360287 -7.105545
v -2.099918 -16.360287 -7.045547
v -1.168396 -16.360287 -7.105545
v -1.168396 -16.360287 -7.045547
v 0.000922 -16.360287 -7.105545
v 0.000922 -16.360287 -7.045547
v -1.168396 -18.773149 -7.256790
v -0.001115 -18.771406 -7.256336
v -0.000817 -18.745043 -7.183693
v -1.168396 -18.746841 -7.184032
v -2.099918 -18.774542 -7.257153
v -2.099918 -18.748287 -7.184303
v -2.559676 -18.775221 -7.257404
v -2.559676 -18.749043 -7.184513
v -2.793483 -18.737133 -7.212814
v -2.788619 -18.764309 -7.283485
v -3.035461 -18.731255 -7.360699
v -3.047453 -18.700979 -7.296658
v -3.227659 -18.679272 -7.481194
v -3.272385 -18.638327 -7.441891
v -3.345630 -18.595528 -7.674297
v -3.418521 -18.541332 -7.666710
v -3.393381 -18.479532 -7.941532
v -3.472617 -18.422092 -7.941532
v -3.345299 -18.370300 -8.192940
v -3.420982 -18.308922 -8.201519
v -3.226668 -18.284403 -8.390324
v -3.275900 -18.207754 -8.434261
v -3.033053 -18.229931 -8.514973
v -3.047424 -18.141735 -8.586609
v -2.785205 -18.194605 -8.595348
v -2.792090 -18.103580 -8.674156
v -2.559676 -18.182549 -8.622231
v -2.559676 -18.090557 -8.703484
v -2.099918 -18.181789 -8.622173
v -2.099918 -18.089794 -8.703388
v -1.168396 -18.180403 -8.621811
v -1.168396 -18.088364 -8.703125
v -0.001560 -18.178656 -8.621357
v -0.001572 -18.086575 -8.702789
v 1.167358 -18.176901 -8.620895
v 1.167358 -18.084780 -8.702442
v 2.098880 -18.175520 -8.620529
v 2.098880 -18.083353 -8.702171
v 2.558638 -18.174994 -8.619984
v 2.558638 -18.082733 -8.701893
v 2.789203 -18.094919 -8.672749
v 2.782401 -18.186155 -8.593449
v 3.045085 -18.132008 -8.585682
v 3.030818 -18.220371 -8.513725
v 3.274015 -18.197025 -8.433857
v 3.224784 -18.273920 -8.389709
v 3.419272 -18.297623 -8.201309
v 3.343501 -18.359266 -8.192661
v 3.470878 -18.410534 -7.941532
v 3.391541 -18.468224 -7.941532
v 3.416841 -18.530045 -7.666489
v 3.343839 -18.584494 -7.674030
v 3.270738 -18.627625 -7.441452
v 3.225800 -18.668770 -7.480614
v 3.045747 -18.691248 -7.295666
v 3.033358 -18.721682 -7.359470
v 2.786335 -18.755859 -7.281582
v 2.791784 -18.728449 -7.211353
v 2.558638 -18.767572 -7.255405
v 2.558638 -18.741146 -7.183022
v 2.098880 -18.768272 -7.255516
v 2.098880 -18.741800 -7.183083
v 1.167358 -18.769655 -7.255882
v 1.167358 -18.743238 -7.183353
vt 0.026681 0.012399
vt 0.037297 0.012366
vt 0.037306 0.016974
vt 0.026678 0.017007
vt 0.050623 0.012322
vt 0.050635 0.016930
vt 0.050644 0.019607
vt 0.037310 0.019652
vt 0.026660 0.019688
vt 0.082332 0.005285
vt 0.085071 0.006186
vt 0.085831 0.008392
vt 0.082605 0.007833
vt 0.086774 0.007263
vt 0.087679 0.009164
vt 0.088145 0.012212
vt 0.086115 0.012201
vt 0.082680 0.012202
vt 0.018883 0.019330
vt 0.016186 0.018468
vt 0.015444 0.016304
vt 0.018636 0.016804
vt 0.014519 0.017444
vt 0.013620 0.015605
vt 0.013116 0.012459
vt 0.015139 0.012436
vt 0.018568 0.012417
vt 0.026626 0.005088
vt 0.037272 0.005065
vt 0.037282 0.007757
vt 0.026653 0.007784
vt 0.050604 0.005033
vt 0.050611 0.007721
vt 0.087655 0.015365
vt 0.085828 0.016083
vt 0.086763 0.017215
vt 0.085095 0.018256
vt 0.082397 0.019145
vt 0.082632 0.016608
vt 0.013567 0.009404
vt 0.015405 0.008613
vt 0.014463 0.007492
vt 0.016158 0.006395
vt 0.018886 0.005468
vt 0.018622 0.008027
vt 0.018156 0.022828
vt 0.014703 0.021480
vt 0.015243 0.020868
vt 0.018421 0.022066
vt 0.011627 0.018979
vt 0.012415 0.018679
vt 0.009722 0.015406
vt 0.010621 0.015484
vt 0.009145 0.011404
vt 0.010001 0.011800
vt 0.009983 0.007478
vt 0.010682 0.008188
vt 0.012050 0.004147
vt 0.012548 0.005023
vt 0.015059 0.001920
vt 0.015375 0.002908
vt 0.018331 0.000666
vt 0.018479 0.001710
vt 0.037261 0.001196
vt 0.026587 0.001219
vt 0.026581 0.000157
vt 0.037260 0.000132
vt 0.050596 0.001161
vt 0.050595 0.000097
vt 0.086149 0.001694
vt 0.085835 0.002685
vt 0.082719 0.001511
vt 0.082865 0.000463
vt 0.089175 0.003899
vt 0.088679 0.004777
vt 0.091261 0.007216
vt 0.090563 0.007929
vt 0.092117 0.011134
vt 0.091261 0.011534
vt 0.091560 0.015139
vt 0.090660 0.015224
vt 0.089677 0.018722
vt 0.088883 0.018431
vt 0.086625 0.021246
vt 0.086072 0.020643
vt 0.083185 0.022625
vt 0.082903 0.021869
vt 0.064011 0.022421
vt 0.074692 0.022401
vt 0.074702 0.023210
vt 0.064014 0.023230
vt 0.050665 0.022454
vt 0.050673 0.023263
vt 0.475175 0.040257
vt 0.475057 0.042572
vt 0.464493 0.042057
vt 0.464615 0.039738
vt 0.488424 0.040895
vt 0.488306 0.043211
vt 0.336704 0.038835
vt 0.340071 0.038708
vt 0.340162 0.041027
vt 0.336803 0.041151
vt 0.340341 0.042409
vt 0.343855 0.042284
vt 0.344477 0.065232
vt 0.341194 0.066144
vt 0.343608 0.038605
vt 0.347170 0.038491
vt 0.347247 0.040808
vt 0.343691 0.040913
vt 0.347416 0.042174
vt 0.350878 0.042099
vt 0.350984 0.062425
vt 0.347701 0.063918
vt 0.350661 0.038391
vt 0.354272 0.038322
vt 0.354301 0.040639
vt 0.350721 0.040705
vt 0.354391 0.042038
vt 0.357839 0.042000
vt 0.357782 0.059689
vt 0.354359 0.060940
vt 0.357841 0.038317
vt 0.361381 0.038279
vt 0.361381 0.040597
vt 0.357851 0.040624
vt 0.361288 0.041978
vt 0.364640 0.041974
vt 0.364493 0.058363
vt 0.361194 0.058837
vt 0.383363 0.038380
vt 0.383349 0.040695
vt 0.372753 0.040646
vt 0.372768 0.038330
vt 0.396664 0.038427
vt 0.396655 0.040744
vt 0.431958 0.038550
vt 0.431942 0.040868
vt 0.428569 0.040841
vt 0.428575 0.038525
vt 0.431921 0.058981
vt 0.432046 0.042240
vt 0.435536 0.042288
vt 0.435293 0.059844
vt 0.439080 0.038658
vt 0.439028 0.040974
vt 0.435477 0.040912
vt 0.435507 0.038605
vt 0.438643 0.061141
vt 0.439030 0.042365
vt 0.442579 0.042468
vt 0.441960 0.062658
vt 0.446171 0.038890
vt 0.446086 0.041206
vt 0.442612 0.041084
vt 0.442685 0.038771
vt 0.445260 0.064191
vt 0.446013 0.042587
vt 0.449500 0.042722
vt 0.448557 0.065533
vt 0.453260 0.039172
vt 0.453148 0.041490
vt 0.449634 0.041334
vt 0.449731 0.039027
vt 0.451872 0.066485
vt 0.452970 0.042876
vt 0.456317 0.043033
vt 0.455110 0.067092
vt 0.319363 0.068760
vt 0.319315 0.067549
vt 0.329925 0.067154
vt 0.329972 0.068365
vt 0.306074 0.069255
vt 0.306026 0.068046
vt 0.344534 0.066452
vt 0.341237 0.067358
vt 0.338003 0.067918
vt 0.337959 0.066706
vt 0.351061 0.063629
vt 0.347788 0.065133
vt 0.357795 0.060901
vt 0.354393 0.062140
vt 0.364491 0.059570
vt 0.361197 0.060046
vt 0.409929 0.059529
vt 0.409933 0.058319
vt 0.420585 0.058328
vt 0.420582 0.059537
vt 0.396568 0.059508
vt 0.396574 0.058298
vt 0.435271 0.061054
vt 0.431907 0.060190
vt 0.428631 0.059704
vt 0.428640 0.058495
vt 0.441923 0.063869
vt 0.438614 0.062351
vt 0.448508 0.066744
vt 0.445217 0.065402
vt 0.455053 0.068303
vt 0.451819 0.067696
vt 0.074588 0.012237
vt 0.079803 0.012210
vt 0.079834 0.016809
vt 0.074618 0.016864
vt 0.079892 0.019481
vt 0.074651 0.019552
vt 0.021416 0.019646
vt 0.021459 0.016986
vt 0.021466 0.012409
vt 0.074603 0.004952
vt 0.079852 0.004973
vt 0.079820 0.007641
vt 0.074590 0.007640
vt 0.021426 0.007817
vt 0.021380 0.005135
vt 0.079949 0.001104
vt 0.074627 0.001069
vt 0.074630 0.000002
vt 0.079987 0.000043
vt 0.021228 0.000222
vt 0.021269 0.001281
vt 0.021283 0.022484
vt 0.026640 0.022548
vt 0.026638 0.023358
vt 0.021217 0.023291
vt 0.080119 0.023116
vt 0.080045 0.022307
vt 0.333995 0.041268
vt 0.328825 0.041474
vt 0.328727 0.039155
vt 0.333894 0.038951
vt 0.457900 0.067383
vt 0.459078 0.043171
vt 0.464343 0.043431
vt 0.463146 0.067650
vt 0.425747 0.040828
vt 0.420558 0.040822
vt 0.420560 0.038504
vt 0.425747 0.038507
vt 0.367302 0.058212
vt 0.367381 0.041996
vt 0.372671 0.042005
vt 0.372580 0.058226
vt 0.463086 0.068860
vt 0.457841 0.068593
vt 0.335175 0.066959
vt 0.335221 0.068169
vt 0.372573 0.059434
vt 0.367298 0.059418
vt 0.425859 0.058333
vt 0.425854 0.059542
vt 0.063973 0.012278
vt 0.063989 0.016895
vt 0.063999 0.019575
vt 0.063958 0.004989
vt 0.063963 0.007677
vt 0.063953 0.001112
vt 0.063950 0.000046
vt 0.037319 0.022503
vt 0.037324 0.023312
vt 0.318255 0.041879
vt 0.304966 0.042383
vt 0.304872 0.040066
vt 0.318160 0.039563
vt 0.409960 0.040787
vt 0.409965 0.038470
vt 0.486961 0.070066
vt 0.473689 0.069396
vt 0.473749 0.068186
vt 0.487021 0.068858
vt 0.383228 0.059472
vt 0.383234 0.058263
vt 0.474949 0.043949
vt 0.488209 0.044597
vt 0.336971 0.042534
vt 0.364759 0.038286
vt 0.364745 0.040602
vt 0.383317 0.042060
vt 0.396649 0.042114
vt 0.428672 0.042211
vt 0.456617 0.039335
vt 0.456495 0.041651
vt 0.328962 0.042848
vt 0.334234 0.042643
vt 0.459453 0.039482
vt 0.459328 0.041798
vt 0.420628 0.042184
vt 0.425921 0.042199
vt 0.367582 0.038321
vt 0.367564 0.040639
vt 0.305051 0.043775
vt 0.318350 0.043258
vt 0.409981 0.042156
vt 0.464656 0.038493
vt 0.475234 0.039019
vt 0.475191 0.039930
vt 0.464620 0.039407
vt 0.488485 0.039657
vt 0.488441 0.040568
vt 0.304823 0.038827
vt 0.318114 0.038324
vt 0.318147 0.039236
vt 0.304858 0.039739
vt 0.328698 0.037910
vt 0.328724 0.038824
vt 0.333950 0.037703
vt 0.333913 0.038621
vt 0.336688 0.037595
vt 0.336709 0.038508
vt 0.340066 0.037466
vt 0.340079 0.038380
vt 0.343592 0.037376
vt 0.343609 0.038289
vt 0.347142 0.037249
vt 0.347166 0.038164
vt 0.350634 0.037163
vt 0.350656 0.038076
vt 0.354245 0.037093
vt 0.354261 0.038004
vt 0.357804 0.037086
vt 0.357823 0.038000
vt 0.361338 0.037039
vt 0.361360 0.037952
vt 0.364729 0.037048
vt 0.364740 0.037960
vt 0.367481 0.037082
vt 0.367550 0.037997
vt 0.372750 0.037111
vt 0.372758 0.038013
vt 0.383361 0.037145
vt 0.383362 0.038056
vt 0.396666 0.037186
vt 0.396665 0.038099
vt 0.409971 0.037224
vt 0.409969 0.038139
vt 0.420583 0.037250
vt 0.420573 0.038169
vt 0.425858 0.037253
vt 0.425782 0.038172
vt 0.428617 0.037286
vt 0.428594 0.038199
vt 0.432011 0.037311
vt 0.431982 0.038224
vt 0.435551 0.037381
vt 0.435525 0.038293
vt 0.439112 0.037427
vt 0.439088 0.038338
vt 0.442721 0.037534
vt 0.442692 0.038449
vt 0.446211 0.037647
vt 0.446179 0.038562
vt 0.449759 0.037802
vt 0.449733 0.038714
vt 0.453277 0.037931
vt 0.453255 0.038844
vt 0.456645 0.038096
vt 0.456615 0.039008
vt 0.459409 0.038236
vt 0.459436 0.039153
vt 0.474977 0.043606
vt 0.464382 0.043092
vt 0.464451 0.042393
vt 0.475027 0.042906
vt 0.459139 0.042831
vt 0.459265 0.042133
vt 0.456365 0.042688
vt 0.456446 0.041985
vt 0.453016 0.042532
vt 0.453098 0.041826
vt 0.449535 0.042375
vt 0.449597 0.041662
vt 0.446032 0.042245
vt 0.446067 0.041536
vt 0.442588 0.042125
vt 0.442606 0.041414
vt 0.439029 0.042023
vt 0.439031 0.041310
vt 0.435519 0.041946
vt 0.435495 0.041237
vt 0.432017 0.041903
vt 0.431974 0.041201
vt 0.428643 0.041873
vt 0.428600 0.041174
vt 0.425879 0.041862
vt 0.425792 0.041162
vt 0.420609 0.041843
vt 0.420579 0.041149
vt 0.409976 0.041814
vt 0.409967 0.041117
vt 0.396651 0.041773
vt 0.396653 0.041075
vt 0.383327 0.041724
vt 0.383339 0.041028
vt 0.372694 0.041677
vt 0.372727 0.040984
vt 0.367426 0.041675
vt 0.367518 0.040978
vt 0.364669 0.041633
vt 0.364716 0.040933
vt 0.361313 0.041635
vt 0.361352 0.040930
vt 0.357834 0.041654
vt 0.357842 0.040945
vt 0.354341 0.041692
vt 0.354312 0.040977
vt 0.350789 0.041756
vt 0.350739 0.041041
vt 0.347331 0.041843
vt 0.347272 0.041138
vt 0.343800 0.041946
vt 0.343730 0.041237
vt 0.340292 0.042068
vt 0.340212 0.041362
vt 0.336926 0.042190
vt 0.336850 0.041486
vt 0.334175 0.042303
vt 0.334056 0.041603
vt 0.328926 0.042510
vt 0.328864 0.041811
vt 0.318325 0.042915
vt 0.318281 0.042214
vt 0.305028 0.043425
vt 0.304989 0.042720
vt 0.488234 0.044250
vt 0.488280 0.043547
vt 0.037313 0.020818
vt 0.050651 0.020771
vt 0.050658 0.021654
vt 0.037316 0.021703
vt 0.026651 0.020858
vt 0.026644 0.021746
vt 0.021380 0.020807
vt 0.021340 0.021686
vt 0.018662 0.021303
vt 0.018798 0.020449
vt 0.016030 0.019467
vt 0.015751 0.020232
vt 0.013905 0.017963
vt 0.013203 0.018360
vt 0.012571 0.015627
vt 0.011545 0.015552
vt 0.011996 0.012361
vt 0.010912 0.012118
vt 0.012503 0.009261
vt 0.011472 0.008849
vt 0.013820 0.006814
vt 0.013121 0.005915
vt 0.015983 0.005229
vt 0.015717 0.003958
vt 0.018784 0.004183
vt 0.018642 0.002820
vt 0.021349 0.003808
vt 0.021308 0.002410
vt 0.026611 0.003755
vt 0.026597 0.002352
vt 0.037267 0.003732
vt 0.037264 0.002329
vt 0.050601 0.003699
vt 0.050597 0.002295
vt 0.063957 0.003653
vt 0.063954 0.002247
vt 0.074612 0.003614
vt 0.074621 0.002206
vt 0.079878 0.003641
vt 0.079913 0.002237
vt 0.082561 0.002626
vt 0.082426 0.003995
vt 0.085498 0.003739
vt 0.085239 0.005015
vt 0.088109 0.005673
vt 0.087414 0.006579
vt 0.089775 0.008594
vt 0.088744 0.009013
vt 0.090351 0.011857
vt 0.089266 0.012107
vt 0.089734 0.015298
vt 0.088706 0.015380
vt 0.088090 0.018120
vt 0.087382 0.017728
vt 0.085553 0.020015
vt 0.085261 0.019252
vt 0.082498 0.020259
vt 0.082645 0.021104
vt 0.079933 0.020638
vt 0.079981 0.021514
vt 0.074668 0.020718
vt 0.074681 0.021601
vt 0.064004 0.020740
vt 0.064007 0.021622
vn 0.0015 -0.9173 -0.3982
vn 0.0015 -0.9586 -0.2847
vn 0.0015 -0.9586 -0.2848
vn 0.0015 -0.9586 -0.2849
vn 0.0291 -0.8649 -0.5011
vn 0.0669 -0.8592 -0.5073
vn 0.1254 -0.8619 -0.4913
vn 0.1414 -0.8866 -0.4404
vn 0.1413 -0.9085 -0.3934
vn -0.0291 -0.9615 -0.2734
vn -0.0726 -0.9623 -0.2620
vn -0.1336 -0.9516 -0.2766
vn -0.1481 -0.9284 -0.3408
vn -0.1385 -0.9088 -0.3935
vn 0.0015 -0.8699 -0.4932
vn 0.0015 -0.8699 -0.4931
vn 0.0015 -0.8700 -0.4931
vn 0.1510 -0.9280 -0.3407
vn 0.1368 -0.9512 -0.2766
vn 0.0761 -0.9621 -0.2620
vn 0.0327 -0.9615 -0.2730
vn -0.1386 -0.8870 -0.4405
vn -0.1230 -0.8622 -0.4913
vn -0.0648 -0.8592 -0.5075
vn -0.0266 -0.8647 -0.5015
vn -0.2295 -0.1133 0.9667
vn -0.4534 -0.1055 0.8850
vn -0.4631 -0.3878 0.7969
vn -0.2371 -0.4071 0.8821
vn -0.7272 -0.1038 0.6785
vn -0.7278 -0.3796 0.5711
vn -0.9341 -0.1062 0.3408
vn -0.8993 -0.3824 0.2123
vn -0.9938 -0.1035 -0.0412
vn -0.9160 -0.3729 -0.1481
vn -0.9064 -0.0956 -0.4115
vn -0.8131 -0.3464 -0.4678
vn -0.6924 -0.0890 -0.7160
vn -0.6084 -0.3238 -0.7245
vn -0.4300 -0.0865 -0.8987
vn -0.3686 -0.3170 -0.8739
vn -0.2177 -0.0873 -0.9721
vn -0.1851 -0.3198 -0.9292
vn 0.0007 -0.3306 -0.9438
vn 0.0007 -0.3300 -0.9440
vn 0.0003 -0.0917 -0.9958
vn 0.0003 -0.0921 -0.9958
vn 0.0007 -0.3315 -0.9435
vn 0.0003 -0.0925 -0.9957
vn 0.4288 -0.0880 -0.8991
vn 0.3674 -0.3194 -0.8735
vn 0.1852 -0.3233 -0.9280
vn 0.2177 -0.0891 -0.9719
vn 0.6916 -0.0901 -0.7166
vn 0.6075 -0.3252 -0.7247
vn 0.9060 -0.0967 -0.4120
vn 0.8126 -0.3473 -0.4680
vn 0.9936 -0.1046 -0.0418
vn 0.9155 -0.3738 -0.1487
vn 0.9344 -0.1072 0.3398
vn 0.8992 -0.3832 0.2110
vn 0.7282 -0.1044 0.6774
vn 0.7289 -0.3799 0.5696
vn 0.4549 -0.1049 0.8844
vn 0.4653 -0.3862 0.7965
vn 0.2304 -0.1112 0.9667
vn 0.2390 -0.4025 0.8837
vn 0.0005 -0.4159 0.9094
vn 0.0005 -0.4148 0.9099
vn 0.0001 -0.1147 0.9934
vn 0.0001 -0.1153 0.9933
vn 0.0005 -0.4174 0.9087
vn 0.0001 -0.1160 0.9933
vn -0.0000 0.3828 0.9238
vn -0.0000 -0.3827 0.9239
vn -0.0000 -0.3826 0.9239
vn -0.0000 0.3826 0.9239
vn -0.0000 -0.3828 0.9239
vn -0.2041 0.3746 0.9045
vn -0.4038 0.3714 0.8360
vn -0.4038 -0.3714 0.8360
vn -0.2041 -0.3745 0.9045
vn -0.4009 -0.3936 0.8273
vn -0.6478 -0.4017 0.6472
vn -0.7080 0.0005 0.7062
vn -0.4380 0.0003 0.8990
vn -0.6577 0.3671 0.6577
vn -0.8594 0.3671 0.3560
vn -0.8594 -0.3671 0.3560
vn -0.6578 -0.3671 0.6577
vn -0.8472 -0.3988 0.3511
vn -0.9162 -0.4008 0.0025
vn -1.0000 0.0005 0.0010
vn -0.9238 0.0006 0.3829
vn -0.9303 0.3667 0.0027
vn -0.8604 0.3670 -0.3534
vn -0.8604 -0.3670 -0.3535
vn -0.9303 -0.3667 0.0027
vn -0.8479 -0.3999 -0.3482
vn -0.6486 -0.4027 -0.6458
vn -0.7119 -0.0006 -0.7022
vn -0.9253 -0.0000 -0.3793
vn -0.6578 0.3671 -0.6577
vn -0.4039 0.3714 -0.8360
vn -0.4039 -0.3714 -0.8360
vn -0.6578 -0.3671 -0.6577
vn -0.4025 -0.3943 -0.8261
vn -0.2043 -0.3913 -0.8973
vn -0.2256 -0.0002 -0.9742
vn -0.4432 -0.0005 -0.8964
vn -0.0000 0.3827 -0.9239
vn -0.0000 -0.3827 -0.9239
vn -0.0000 -0.3831 -0.9237
vn -0.0000 0.3831 -0.9237
vn 0.4032 0.3714 -0.8364
vn 0.4032 -0.3714 -0.8364
vn 0.2038 -0.3746 -0.9045
vn 0.2038 0.3746 -0.9045
vn 0.4422 -0.0009 -0.8969
vn 0.4017 -0.3946 -0.8264
vn 0.6479 -0.4032 -0.6462
vn 0.7112 -0.0012 -0.7030
vn 0.8604 0.3670 -0.3537
vn 0.8604 -0.3670 -0.3537
vn 0.6573 -0.3671 -0.6582
vn 0.6573 0.3671 -0.6582
vn 0.9251 -0.0005 -0.3797
vn 0.8475 -0.4004 -0.3484
vn 0.9160 -0.4013 0.0024
vn 1.0000 -0.0000 0.0007
vn 0.8595 0.3671 0.3557
vn 0.8595 -0.3671 0.3557
vn 0.9303 -0.3667 0.0027
vn 0.9303 0.3667 0.0027
vn 0.9239 0.0002 0.3825
vn 0.8472 -0.3992 0.3506
vn 0.6483 -0.4019 0.6466
vn 0.7086 0.0002 0.7056
vn 0.4045 0.3714 0.8357
vn 0.4045 -0.3714 0.8357
vn 0.6583 -0.3671 0.6572
vn 0.6582 0.3672 0.6572
vn 0.4389 0.0002 0.8986
vn 0.4016 -0.3937 0.8269
vn 0.2033 -0.3911 0.8976
vn 0.2220 0.0001 0.9750
vn 0.0001 -0.1167 0.9932
vn -0.0001 -0.0002 1.0000
vn -0.0003 -0.0002 1.0000
vn 0.0001 -0.1173 0.9931
vn -0.0001 -0.0001 1.0000
vn -0.2218 0.0001 0.9751
vn 0.0003 -0.0929 -0.9957
vn 0.0001 -0.0004 -1.0000
vn 0.0003 -0.0004 -1.0000
vn 0.0003 -0.0933 -0.9956
vn 0.2254 -0.0005 -0.9743
vn 0.0094 -0.9601 -0.2795
vn 0.0015 -0.9587 -0.2845
vn -0.0061 -0.9600 -0.2801
vn 0.0016 -0.8701 -0.4929
vn 0.0086 -0.8679 -0.4967
vn -0.0057 -0.8677 -0.4971
vn 0.0519 -0.3284 -0.9431
vn 0.0007 -0.3331 -0.9429
vn 0.0614 -0.0911 -0.9939
vn -0.0607 -0.0893 -0.9942
vn -0.0506 -0.3246 -0.9445
vn -0.0655 -0.4180 0.9061
vn 0.0005 -0.4201 0.9075
vn -0.0642 -0.1177 0.9910
vn 0.0643 -0.1148 0.9913
vn 0.0667 -0.4118 0.9088
vn -0.0572 -0.3778 0.9241
vn -0.0000 -0.3831 0.9237
vn -0.0000 0.3831 0.9237
vn -0.0572 0.3779 0.9241
vn 0.0623 -0.0000 0.9981
vn 0.0585 -0.3885 0.9196
vn 0.0003 -0.3831 0.9237
vn -0.0000 -0.0001 1.0000
vn 0.0572 -0.3779 -0.9241
vn 0.0572 0.3779 -0.9241
vn -0.0637 -0.0001 -0.9980
vn -0.0592 -0.3885 -0.9195
vn -0.0005 -0.3832 -0.9236
vn -0.0001 -0.0002 -1.0000
vn -0.0625 -0.0001 0.9980
vn 0.0640 -0.0003 -0.9979
vn 0.0015 -0.9587 -0.2846
vn 0.0015 -0.8700 -0.4930
vn 0.0007 -0.3323 -0.9432
vn 0.0005 -0.4189 0.9080
vn 0.0001 -0.0003 -1.0000
vn -0.0000 -0.3828 0.9238
vn -0.2030 -0.3910 0.8977
vn -0.2041 0.3746 -0.9045
vn -0.2041 -0.3745 -0.9045
vn -0.0000 -0.3829 -0.9238
vn -0.0000 -0.3830 -0.9238
vn 0.2041 -0.3916 -0.8972
vn 0.2038 0.3741 0.9047
vn 0.2038 -0.3740 0.9047
vn -0.0006 -0.3832 0.9237
vn -0.0588 -0.3885 0.9196
vn 0.0567 0.3770 0.9245
vn 0.0567 -0.3770 0.9245
vn 0.0006 -0.3834 -0.9236
vn 0.0593 -0.3887 -0.9194
vn -0.0572 0.3779 -0.9241
vn -0.0572 -0.3779 -0.9241
vn -0.0000 -0.3830 -0.9237
vn -0.0000 1.0000 -0.0000
vn -0.0000 0.9239 0.3826
vn -0.0000 0.9239 0.3827
vn -0.0000 0.9240 0.3823
vn -0.0254 0.9187 0.3942
vn -0.0886 0.9154 0.3926
vn -0.1782 0.9122 0.3689
vn -0.2988 0.9063 0.2988
vn -0.3887 0.9072 0.1610
vn -0.4226 0.9063 0.0014
vn -0.3897 0.9070 -0.1599
vn -0.2988 0.9063 -0.2988
vn -0.1782 0.9122 -0.3689
vn -0.0886 0.9154 -0.3926
vn -0.0254 0.9187 -0.3942
vn -0.0000 0.9240 -0.3823
vn -0.0000 0.9239 -0.3826
vn 0.0254 0.9187 -0.3942
vn 0.0884 0.9155 -0.3926
vn 0.1779 0.9122 -0.3691
vn 0.2986 0.9063 -0.2990
vn 0.3897 0.9069 -0.1600
vn 0.4226 0.9063 0.0014
vn 0.3887 0.9072 0.1609
vn 0.2990 0.9064 0.2985
vn 0.1785 0.9122 0.3688
vn 0.0886 0.9152 0.3932
vn 0.0252 0.9183 0.3951
vn -0.0000 -0.9239 0.3827
vn 0.0002 -0.9240 0.3823
vn -0.0000 -0.9239 0.3828
vn -0.0000 -0.9239 0.3826
vn 0.0226 -0.9293 0.3685
vn 0.0252 -0.9183 0.3951
vn 0.0799 -0.9321 0.3533
vn 0.0886 -0.9152 0.3932
vn 0.1549 -0.9348 0.3196
vn 0.1785 -0.9122 0.3689
vn 0.2394 -0.9411 0.2388
vn 0.2990 -0.9063 0.2985
vn 0.3165 -0.9395 0.1310
vn 0.3888 -0.9072 0.1609
vn 0.3393 -0.9407 0.0010
vn 0.4227 -0.9063 0.0014
vn 0.3159 -0.9399 -0.1298
vn 0.3897 -0.9069 -0.1600
vn 0.2389 -0.9411 -0.2391
vn 0.2986 -0.9063 -0.2990
vn 0.1544 -0.9348 -0.3199
vn 0.1779 -0.9122 -0.3691
vn 0.0797 -0.9320 -0.3535
vn 0.0884 -0.9154 -0.3926
vn 0.0227 -0.9293 -0.3686
vn 0.0254 -0.9187 -0.3942
vn 0.0003 -0.9241 -0.3822
vn -0.0000 -0.9240 -0.3823
vn -0.0000 -0.9239 -0.3827
vn -0.0003 -0.9241 -0.3822
vn -0.0228 -0.9293 -0.3686
vn -0.0254 -0.9187 -0.3942
vn -0.0798 -0.9321 -0.3534
vn -0.0886 -0.9154 -0.3926
vn -0.1547 -0.9348 -0.3198
vn -0.1782 -0.9122 -0.3689
vn -0.2391 -0.9411 -0.2390
vn -0.2988 -0.9063 -0.2988
vn -0.3160 -0.9398 -0.1298
vn -0.3897 -0.9069 -0.1599
vn -0.3394 -0.9407 0.0010
vn -0.4227 -0.9063 0.0014
vn -0.3164 -0.9395 0.1311
vn -0.3888 -0.9072 0.1610
vn -0.2391 -0.9411 0.2390
vn -0.2988 -0.9063 0.2988
vn -0.1547 -0.9348 0.3198
vn -0.1782 -0.9122 0.3690
vn -0.0798 -0.9321 0.3534
vn -0.0886 -0.9154 0.3926
vn -0.0228 -0.9293 0.3686
vn -0.0254 -0.9187 0.3942
vn -0.0003 -0.9241 0.3822
vn -0.0000 -0.9240 0.3823
vn 0.0015 -0.9960 0.0894
vn 0.0015 -0.9959 0.0900
vn 0.0011 -0.7990 0.6013
vn 0.0011 -0.7999 0.6001
vn 0.0015 -0.9961 0.0887
vn 0.0011 -0.8007 0.5991
vn -0.0295 -0.9946 0.0996
vn -0.0555 -0.7948 0.6044
vn -0.2021 -0.7759 0.5976
vn -0.1164 -0.9867 0.1138
vn -0.2511 -0.9603 0.1219
vn -0.3990 -0.7340 0.5496
vn -0.4068 -0.9128 0.0356
vn -0.6279 -0.6914 0.3575
vn -0.4645 -0.8682 -0.1744
vn -0.7371 -0.6754 0.0235
vn -0.4302 -0.8308 -0.3532
vn -0.7117 -0.6497 -0.2673
vn -0.3989 -0.7765 -0.4877
vn -0.6307 -0.5990 -0.4934
vn -0.3180 -0.7229 -0.6135
vn -0.4712 -0.5540 -0.6863
vn -0.1782 -0.7159 -0.6751
vn -0.2735 -0.5474 -0.7909
vn -0.0808 -0.7307 -0.6780
vn -0.1333 -0.5577 -0.8192
vn -0.0203 -0.7380 -0.6744
vn -0.0356 -0.5648 -0.8245
vn 0.0013 -0.7421 -0.6703
vn 0.0011 -0.5697 -0.8219
vn 0.0014 -0.7422 -0.6702
vn 0.0011 -0.5701 -0.8216
vn 0.0014 -0.7424 -0.6700
vn 0.0011 -0.5706 -0.8212
vn 0.0014 -0.7426 -0.6697
vn 0.0011 -0.5712 -0.8208
vn 0.0015 -0.7428 -0.6695
vn 0.0012 -0.5718 -0.8204
vn 0.0228 -0.7391 -0.6732
vn 0.0375 -0.5675 -0.8225
vn 0.1340 -0.5600 -0.8176
vn 0.0822 -0.7315 -0.6769
vn 0.2732 -0.5486 -0.7902
vn 0.1789 -0.7163 -0.6745
vn 0.4713 -0.5542 -0.6861
vn 0.3190 -0.7226 -0.6133
vn 0.6313 -0.5986 -0.4931
vn 0.4006 -0.7759 -0.4874
vn 0.7122 -0.6491 -0.2673
vn 0.4320 -0.8300 -0.3529
vn 0.7377 -0.6748 0.0226
vn 0.4663 -0.8672 -0.1747
vn 0.6296 -0.6905 0.3560
vn 0.4095 -0.9117 0.0350
vn 0.4024 -0.7320 0.5497
vn 0.2550 -0.9592 0.1219
vn 0.1206 -0.9859 0.1157
vn 0.2057 -0.7726 0.6007
vn 0.0330 -0.9942 0.1026
vn 0.0582 -0.7909 0.6092
vn 0.0015 -0.9958 0.0912
vn 0.0011 -0.7974 0.6034
vn 0.0015 -0.9959 0.0907
vn 0.0011 -0.7981 0.6025
f 1/1/1 2/2/1 3/3/1 4/4/1
f 2/2/1 5/5/1 6/6/1 3/3/1
f 7/7/2 8/8/3 3/3/1 6/6/1
f 8/8/3 9/9/4 4/4/1 3/3/1
f 10/10/5 11/11/6 12/12/1 13/13/1
f 11/11/6 14/14/7 15/15/8 12/12/1
f 16/16/9 17/17/1 12/12/1 15/15/8
f 17/17/1 18/18/1 13/13/1 12/12/1
f 19/19/10 20/20/11 21/21/1 22/22/1
f 20/20/11 23/23/12 24/24/13 21/21/1
f 25/25/14 26/26/1 21/21/1 24/24/13
f 26/26/1 27/27/1 22/22/1 21/21/1
f 28/28/15 29/29/16 30/30/1 31/31/1
f 29/29/16 32/32/17 33/33/1 30/30/1
f 5/5/1 2/2/1 30/30/1 33/33/1
f 2/2/1 1/1/1 31/31/1 30/30/1
f 16/16/9 34/34/18 35/35/1 17/17/1
f 34/34/18 36/36/19 37/37/20 35/35/1
f 38/38/21 39/39/1 35/35/1 37/37/20
f 39/39/1 18/18/1 17/17/1 35/35/1
f 25/25/14 40/40/22 41/41/1 26/26/1
f 40/40/22 42/42/23 43/43/24 41/41/1
f 44/44/25 45/45/1 41/41/1 43/43/24
f 45/45/1 27/27/1 26/26/1 41/41/1
f 46/46/26 47/47/27 48/48/28 49/49/29
f 47/47/27 50/50/30 51/51/31 48/48/28
f 50/50/30 52/52/32 53/53/33 51/51/31
f 52/52/32 54/54/34 55/55/35 53/53/33
f 54/54/34 56/56/36 57/57/37 55/55/35
f 56/56/36 58/58/38 59/59/39 57/57/37
f 58/58/38 60/60/40 61/61/41 59/59/39
f 60/60/40 62/62/42 63/63/43 61/61/41
f 64/64/44 65/65/45 66/66/46 67/67/47
f 68/68/48 64/64/44 67/67/47 69/69/49
f 70/70/50 71/71/51 72/72/52 73/73/53
f 74/74/54 75/75/55 71/71/51 70/70/50
f 76/76/56 77/77/57 75/75/55 74/74/54
f 78/78/58 79/79/59 77/77/57 76/76/56
f 80/80/60 81/81/61 79/79/59 78/78/58
f 82/82/62 83/83/63 81/81/61 80/80/60
f 84/84/64 85/85/65 83/83/63 82/82/62
f 86/86/66 87/87/67 85/85/65 84/84/64
f 88/88/68 89/89/69 90/90/70 91/91/71
f 92/92/72 88/88/68 91/91/71 93/93/73
f 94/94/74 95/95/75 96/96/76 97/97/77
f 98/98/74 99/99/78 95/95/75 94/94/74
f 100/100/79 101/101/80 102/102/81 103/103/82
f 104/104/83 105/105/84 106/106/85 107/107/86
f 108/108/87 109/109/88 110/110/89 111/111/90
f 112/112/91 113/113/92 114/114/93 115/115/94
f 116/116/95 117/117/96 118/118/97 119/119/98
f 120/120/99 121/121/100 122/122/101 123/123/102
f 124/124/103 125/125/104 126/126/105 127/127/106
f 128/128/107 129/129/108 130/130/109 131/131/110
f 132/132/111 133/133/112 134/134/113 135/135/114
f 136/136/111 137/137/112 133/133/112 132/132/111
f 138/138/115 139/139/116 140/140/117 141/141/118
f 142/142/119 143/143/120 144/144/121 145/145/122
f 146/146/123 147/147/124 148/148/125 149/149/126
f 150/150/127 151/151/128 152/152/129 153/153/130
f 154/154/131 155/155/132 156/156/133 157/157/134
f 158/158/135 159/159/136 160/160/137 161/161/138
f 162/162/139 163/163/140 164/164/141 165/165/142
f 166/166/143 167/167/144 168/168/145 169/169/146
f 170/170/147 171/171/148 172/172/149 173/173/150
f 170/170/147 93/174/73 174/175/151 171/171/148
f 106/106/85 50/176/30 47/177/27 107/107/86
f 46/178/26 175/179/152 107/107/86 47/177/27
f 114/114/93 54/180/34 52/181/32 115/115/94
f 50/176/30 106/106/85 115/115/94 52/181/32
f 122/122/101 58/182/38 56/183/36 123/123/102
f 54/180/34 114/114/93 123/123/102 56/183/36
f 130/130/109 62/184/42 60/185/40 131/131/110
f 58/182/38 122/122/101 131/131/110 60/185/40
f 176/186/153 177/187/154 178/188/155 179/189/156
f 176/186/153 69/190/49 180/191/154 177/187/154
f 145/145/122 74/192/54 70/193/50 142/142/119
f 73/194/53 181/195/157 142/142/119 70/193/50
f 153/153/130 78/196/58 76/197/56 150/150/127
f 74/192/54 145/145/122 150/150/127 76/197/56
f 161/161/138 82/198/62 80/199/60 158/158/135
f 78/196/58 153/153/130 158/158/135 80/199/60
f 169/169/146 86/200/66 84/201/64 166/166/143
f 82/198/62 161/161/138 166/166/143 84/201/64
f 182/202/1 183/203/1 184/204/1 185/205/1
f 183/203/1 18/18/1 39/39/1 184/204/1
f 38/38/21 186/206/158 184/204/1 39/39/1
f 186/206/158 187/207/159 185/205/1 184/204/1
f 9/9/4 188/208/160 189/209/1 4/4/1
f 188/208/160 19/19/10 22/22/1 189/209/1
f 27/27/1 190/210/1 189/209/1 22/22/1
f 190/210/1 1/1/1 4/4/1 189/209/1
f 191/211/161 192/212/162 193/213/1 194/214/1
f 192/212/162 10/10/5 13/13/1 193/213/1
f 18/18/1 183/203/1 193/213/1 13/13/1
f 183/203/1 182/202/1 194/214/1 193/213/1
f 1/1/1 190/210/1 195/215/1 31/31/1
f 190/210/1 27/27/1 45/45/1 195/215/1
f 44/44/25 196/216/163 195/215/1 45/45/1
f 196/216/163 28/28/15 31/31/1 195/215/1
f 197/217/164 198/218/165 179/219/156 199/220/166
f 73/73/53 72/72/52 197/217/164 199/220/166
f 62/62/42 200/221/167 201/222/168 63/63/43
f 65/65/45 201/222/168 200/221/167 66/66/46
f 202/223/169 203/224/170 173/225/150 204/226/171
f 49/49/29 202/223/169 204/226/171 46/46/26
f 205/227/172 206/228/173 87/87/67 86/86/66
f 89/89/69 206/228/173 205/227/172 90/90/70
f 207/229/174 208/230/175 209/231/176 210/232/177
f 210/232/177 100/100/79 103/103/82 207/229/174
f 211/233/178 212/234/179 213/235/180 214/236/181
f 169/169/146 168/168/145 212/234/179 211/233/178
f 215/237/182 216/238/113 217/239/114 218/240/183
f 141/141/118 140/140/117 215/237/182 218/240/183
f 219/241/184 220/242/185 221/243/186 222/244/187
f 219/241/184 130/130/109 129/129/108 220/242/185
f 90/245/70 205/246/172 211/233/178 214/236/181
f 205/246/172 86/200/66 169/169/146 211/233/178
f 172/172/149 223/247/188 204/248/171 173/173/150
f 223/247/188 175/179/152 46/178/26 204/248/171
f 66/249/46 200/250/167 219/241/184 222/244/187
f 200/250/167 62/184/42 130/130/109 219/241/184
f 178/188/155 224/251/189 199/252/166 179/189/156
f 224/251/189 181/195/157 73/194/53 199/252/166
f 5/5/1 225/253/1 226/254/1 6/6/1
f 225/253/1 182/202/1 185/205/1 226/254/1
f 187/207/159 227/255/190 226/254/1 185/205/1
f 227/255/190 7/7/2 6/6/1 226/254/1
f 32/32/17 228/256/191 229/257/1 33/33/1
f 228/256/191 191/211/161 194/214/1 229/257/1
f 182/202/1 225/253/1 229/257/1 194/214/1
f 225/253/1 5/5/1 33/33/1 229/257/1
f 230/258/192 68/68/48 69/69/49 176/259/153
f 198/218/165 230/258/192 176/259/153 179/219/156
f 231/260/193 92/92/72 93/93/73 170/261/147
f 203/224/170 231/260/193 170/261/147 173/225/150
f 232/262/78 99/263/78 98/264/74 233/265/74
f 209/231/176 208/230/175 232/262/78 233/265/74
f 234/266/112 137/137/112 136/136/111 235/267/111
f 217/239/114 216/238/113 234/266/112 235/267/111
f 93/268/73 91/269/71 236/270/151 174/271/151
f 91/269/71 90/245/70 214/236/181 236/270/151
f 69/190/49 67/272/47 237/273/194 180/191/154
f 67/272/47 66/249/46 222/244/187 237/273/194
f 236/270/151 214/236/181 213/235/180 238/274/195
f 174/271/151 236/270/151 238/274/195 239/275/195
f 107/107/86 175/179/152 240/276/196 104/104/83
f 101/101/80 108/108/87 111/111/90 102/102/81
f 115/115/94 106/106/85 105/105/84 112/112/91
f 109/109/88 116/116/95 119/119/98 110/110/89
f 123/123/102 114/114/93 113/113/92 120/120/99
f 117/117/96 124/124/103 127/127/106 118/118/97
f 131/131/110 122/122/101 121/121/100 128/128/107
f 125/125/104 241/277/197 242/278/198 126/126/105
f 237/273/194 222/244/187 221/243/186 243/279/199
f 180/191/154 237/273/194 243/279/199 244/280/200
f 143/143/120 142/142/119 181/195/157 245/281/201
f 139/139/116 138/138/115 149/149/126 148/148/125
f 151/151/128 150/150/127 145/145/122 144/144/121
f 147/147/124 146/146/123 157/157/134 156/156/133
f 159/159/136 158/158/135 153/153/130 152/152/129
f 155/155/132 154/154/131 165/165/142 164/164/141
f 167/167/144 166/166/143 161/161/138 160/160/137
f 163/163/140 162/162/139 246/282/202 247/283/203
f 223/247/188 172/172/149 248/284/204 249/285/205
f 175/179/152 223/247/188 249/285/205 240/276/196
f 250/286/206 97/97/77 96/96/76 251/287/207
f 247/283/203 246/282/202 250/286/206 251/287/207
f 224/251/189 178/188/155 252/288/208 253/289/209
f 245/281/201 181/195/157 224/251/189 253/289/209
f 254/290/210 135/135/114 134/134/113 255/291/211
f 241/277/197 254/290/210 255/291/211 242/278/198
f 171/171/148 174/175/151 239/292/195 256/293/195
f 172/172/149 171/171/148 256/293/195 248/284/204
f 177/187/154 180/191/154 244/280/200 257/294/212
f 178/188/155 177/187/154 257/294/212 252/288/208
f 258/295/213 259/296/213 260/297/214 261/298/215
f 259/296/213 262/299/213 263/300/214 260/297/214
f 262/301/213 264/302/213 265/303/214 263/304/214
f 264/302/213 266/305/213 267/306/216 265/303/214
f 266/305/213 268/307/213 269/308/217 267/306/216
f 268/307/213 270/309/213 271/310/218 269/308/217
f 270/309/213 272/311/213 273/312/219 271/310/218
f 272/311/213 274/313/213 275/314/220 273/312/219
f 274/313/213 276/315/213 277/316/221 275/314/220
f 276/315/213 278/317/213 279/318/222 277/316/221
f 278/317/213 280/319/213 281/320/223 279/318/222
f 280/319/213 282/321/213 283/322/224 281/320/223
f 282/321/213 284/323/213 285/324/225 283/322/224
f 284/323/213 286/325/213 287/326/226 285/324/225
f 286/325/213 288/327/213 289/328/227 287/326/226
f 288/327/213 290/329/213 291/330/228 289/328/227
f 290/329/213 292/331/213 293/332/229 291/330/228
f 292/331/213 294/333/213 295/334/229 293/332/229
f 294/333/213 296/335/213 297/336/229 295/334/229
f 296/335/213 298/337/213 299/338/228 297/336/229
f 298/337/213 300/339/213 301/340/230 299/338/228
f 300/339/213 302/341/213 303/342/231 301/340/230
f 302/341/213 304/343/213 305/344/232 303/342/231
f 304/343/213 306/345/213 307/346/233 305/344/232
f 306/345/213 308/347/213 309/348/234 307/346/233
f 308/347/213 310/349/213 311/350/235 309/348/234
f 310/349/213 312/351/213 313/352/236 311/350/235
f 312/351/213 314/353/213 315/354/237 313/352/236
f 314/353/213 316/355/213 317/356/238 315/354/237
f 316/355/213 318/357/213 319/358/239 317/356/238
f 318/357/213 320/359/213 321/360/240 319/358/239
f 320/359/213 258/295/213 261/298/215 321/360/240
f 322/361/241 323/362/242 324/363/243 325/364/244
f 323/362/242 326/365/245 327/366/246 324/363/243
f 326/365/245 328/367/247 329/368/248 327/366/246
f 328/367/247 330/369/249 331/370/250 329/368/248
f 330/369/249 332/371/251 333/372/252 331/370/250
f 332/371/251 334/373/253 335/374/254 333/372/252
f 334/373/253 336/375/255 337/376/256 335/374/254
f 336/375/255 338/377/257 339/378/258 337/376/256
f 338/377/257 340/379/259 341/380/260 339/378/258
f 340/379/259 342/381/261 343/382/262 341/380/260
f 342/381/261 344/383/263 345/384/264 343/382/262
f 344/383/263 346/385/265 347/386/266 345/384/264
f 346/385/265 348/387/267 349/388/268 347/386/266
f 348/387/267 350/389/269 351/390/269 349/388/268
f 350/389/269 352/391/269 353/392/269 351/390/269
f 352/391/269 354/393/269 355/394/269 353/392/269
f 354/393/269 356/395/270 357/396/268 355/394/269
f 356/395/270 358/397/271 359/398/272 357/396/268
f 358/397/271 360/399/273 361/400/274 359/398/272
f 360/399/273 362/401/275 363/402/276 361/400/274
f 362/401/275 364/403/277 365/404/278 363/402/276
f 364/403/277 366/405/279 367/406/280 365/404/278
f 366/405/279 368/407/281 369/408/282 367/406/280
f 368/407/281 370/409/283 371/410/284 369/408/282
f 370/409/283 372/411/285 373/412/286 371/410/284
f 372/411/285 374/413/287 375/414/288 373/412/286
f 374/413/287 376/415/289 377/416/290 375/414/288
f 376/415/289 378/417/291 379/418/292 377/416/290
f 378/417/291 380/419/293 381/420/294 379/418/292
f 380/419/293 382/421/241 383/422/244 381/420/294
f 382/421/241 384/423/241 385/424/244 383/422/244
f 384/425/241 322/361/241 325/364/244 385/426/244
f 322/361/241 238/274/195 213/235/180 323/362/242
f 384/425/241 239/275/195 238/274/195 322/361/241
f 374/413/287 104/104/83 240/276/196 376/415/289
f 372/411/285 105/105/84 104/104/83 374/413/287
f 370/409/283 112/112/91 105/105/84 372/411/285
f 368/407/281 113/113/92 112/112/91 370/409/283
f 366/405/279 120/120/99 113/113/92 368/407/281
f 364/403/277 121/121/100 120/120/99 366/405/279
f 362/401/275 128/128/107 121/121/100 364/403/277
f 360/399/273 129/129/108 128/128/107 362/401/275
f 354/393/269 243/279/199 221/243/186 356/395/270
f 352/391/269 244/280/200 243/279/199 354/393/269
f 342/381/261 143/143/120 245/281/201 344/383/263
f 340/379/259 144/144/121 143/143/120 342/381/261
f 338/377/257 151/151/128 144/144/121 340/379/259
f 336/375/255 152/152/129 151/151/128 338/377/257
f 334/373/253 159/159/136 152/152/129 336/375/255
f 332/371/251 160/160/137 159/159/136 334/373/253
f 330/369/249 167/167/144 160/160/137 332/371/251
f 328/367/247 168/168/145 167/167/144 330/369/249
f 378/417/291 249/285/205 248/284/204 380/419/293
f 376/415/289 240/276/196 249/285/205 378/417/291
f 323/362/242 213/235/180 212/234/179 326/365/245
f 326/365/245 212/234/179 168/168/145 328/367/247
f 346/385/265 253/289/209 252/288/208 348/387/267
f 344/383/263 245/281/201 253/289/209 346/385/265
f 356/395/270 221/243/186 220/242/185 358/397/271
f 358/397/271 220/242/185 129/129/108 360/399/273
f 382/421/241 256/293/195 239/292/195 384/423/241
f 380/419/293 248/284/204 256/293/195 382/421/241
f 350/389/269 257/294/212 244/280/200 352/391/269
f 348/387/267 252/288/208 257/294/212 350/389/269
f 97/97/77 261/298/215 260/297/214 94/94/74
f 94/94/74 260/297/214 263/300/214 98/98/74
f 98/264/74 263/304/214 265/303/214 233/265/74
f 233/265/74 265/303/214 267/306/216 209/231/176
f 209/231/176 267/306/216 269/308/217 210/232/177
f 210/232/177 269/308/217 271/310/218 100/100/79
f 100/100/79 271/310/218 273/312/219 101/101/80
f 101/101/80 273/312/219 275/314/220 108/108/87
f 108/108/87 275/314/220 277/316/221 109/109/88
f 109/109/88 277/316/221 279/318/222 116/116/95
f 116/116/95 279/318/222 281/320/223 117/117/96
f 117/117/96 281/320/223 283/322/224 124/124/103
f 124/124/103 283/322/224 285/324/225 125/125/104
f 125/125/104 285/324/225 287/326/226 241/277/197
f 241/277/197 287/326/226 289/328/227 254/290/210
f 254/290/210 289/328/227 291/330/228 135/135/114
f 135/135/114 291/330/228 293/332/229 132/132/111
f 132/132/111 293/332/229 295/334/229 136/136/111
f 136/136/111 295/334/229 297/336/229 235/267/111
f 235/267/111 297/336/229 299/338/228 217/239/114
f 217/239/114 299/338/228 301/340/230 218/240/183
f 218/240/183 301/340/230 303/342/231 141/141/118
f 141/141/118 303/342/231 305/344/232 138/138/115
f 138/138/115 305/344/232 307/346/233 149/149/126
f 149/149/126 307/346/233 309/348/234 146/146/123
f 146/146/123 309/348/234 311/350/235 157/157/134
f 157/157/134 311/350/235 313/352/236 154/154/131
f 154/154/131 313/352/236 315/354/237 165/165/142
f 165/165/142 315/354/237 317/356/238 162/162/139
f 162/162/139 317/356/238 319/358/239 246/282/202
f 246/282/202 319/358/239 321/360/240 250/286/206
f 250/286/206 321/360/240 261/298/215 97/97/77
f 95/95/75 325/364/244 324/363/243 96/96/76
f 96/96/76 324/363/243 327/366/246 251/287/207
f 251/287/207 327/366/246 329/368/248 247/283/203
f 247/283/203 329/368/248 331/370/250 163/163/140
f 163/163/140 331/370/250 333/372/252 164/164/141
f 164/164/141 333/372/252 335/374/254 155/155/132
f 155/155/132 335/374/254 337/376/256 156/156/133
f 156/156/133 337/376/256 339/378/258 147/147/124
f 147/147/124 339/378/258 341/380/260 148/148/125
f 148/148/125 341/380/260 343/382/262 139/139/116
f 139/139/116 343/382/262 345/384/264 140/140/117
f 140/140/117 345/384/264 347/386/266 215/237/182
f 215/237/182 347/386/266 349/388/268 216/238/113
f 216/238/113 349/388/268 351/390/269 234/266/112
f 234/266/112 351/390/269 353/392/269 137/137/112
f 137/137/112 353/392/269 355/394/269 133/133/112
f 133/133/112 355/394/269 357/396/268 134/134/113
f 134/134/113 357/396/268 359/398/272 255/291/211
f 255/291/211 359/398/272 361/400/274 242/278/198
f 242/278/198 361/400/274 363/402/276 126/126/105
f 126/126/105 363/402/276 365/404/278 127/127/106
f 127/127/106 365/404/278 367/406/280 118/118/97
f 118/118/97 367/406/280 369/408/282 119/119/98
f 119/119/98 369/408/282 371/410/284 110/110/89
f 110/110/89 371/410/284 373/412/286 111/111/90
f 111/111/90 373/412/286 375/414/288 102/102/81
f 102/102/81 375/414/288 377/416/290 103/103/82
f 103/103/82 377/416/290 379/418/292 207/229/174
f 207/229/174 379/418/292 381/420/294 208/230/175
f 208/230/175 381/420/294 383/422/244 232/262/78
f 232/262/78 383/422/244 385/424/244 99/263/78
f 99/99/78 385/426/244 325/364/244 95/95/75
f 386/427/295 387/428/296 388/429/297 389/430/298
f 390/431/299 386/427/295 389/430/298 391/432/300
f 392/433/301 390/431/299 391/432/300 393/434/302
f 392/433/301 393/434/302 394/435/303 395/436/304
f 396/437/305 395/436/304 394/435/303 397/438/306
f 398/439/307 396/437/305 397/438/306 399/440/308
f 400/441/309 398/439/307 399/440/308 401/442/310
f 402/443/311 400/441/309 401/442/310 403/444/312
f 404/445/313 402/443/311 403/444/312 405/446/314
f 406/447/315 404/445/313 405/446/314 407/448/316
f 408/449/317 406/447/315 407/448/316 409/450/318
f 410/451/319 408/449/317 409/450/318 411/452/320
f 412/453/321 410/451/319 411/452/320 413/454/322
f 414/455/323 412/453/321 413/454/322 415/456/324
f 416/457/325 414/455/323 415/456/324 417/458/326
f 418/459/327 416/457/325 417/458/326 419/460/328
f 420/461/329 418/459/327 419/460/328 421/462/330
f 422/463/331 420/461/329 421/462/330 423/464/332
f 424/465/333 422/463/331 423/464/332 425/466/334
f 424/465/333 425/466/334 426/467/335 427/468/336
f 427/468/336 426/467/335 428/469/337 429/470/338
f 429/470/338 428/469/337 430/471/339 431/472/340
f 431/472/340 430/471/339 432/473/341 433/474/342
f 433/474/342 432/473/341 434/475/343 435/476/344
f 435/476/344 434/475/343 436/477/345 437/478/346
f 437/478/346 436/477/345 438/479/347 439/480/348
f 439/480/348 438/479/347 440/481/349 441/482/350
f 442/483/351 441/482/350 440/481/349 443/484/352
f 444/485/353 442/483/351 443/484/352 445/486/354
f 446/487/355 444/485/353 445/486/354 447/488/356
f 448/489/357 446/487/355 447/488/356 449/490/358
f 448/489/357 449/490/358 388/429/297 387/428/296
f 397/438/306 394/435/303 49/49/29 48/48/28
f 399/440/308 397/438/306 48/48/28 51/51/31
f 401/442/310 399/440/308 51/51/31 53/53/33
f 403/444/312 401/442/310 53/53/33 55/55/35
f 405/446/314 403/444/312 55/55/35 57/57/37
f 407/448/316 405/446/314 57/57/37 59/59/39
f 409/450/318 407/448/316 59/59/39 61/61/41
f 411/452/320 409/450/318 61/61/41 63/63/43
f 417/458/326 415/456/324 65/65/45 64/64/44
f 419/460/328 417/458/326 64/64/44 68/68/48
f 71/71/51 428/469/337 426/467/335 72/72/52
f 75/75/55 430/471/339 428/469/337 71/71/51
f 77/77/57 432/473/341 430/471/339 75/75/55
f 79/79/59 434/475/343 432/473/341 77/77/57
f 81/81/61 436/477/345 434/475/343 79/79/59
f 83/83/63 438/479/347 436/477/345 81/81/61
f 85/85/65 440/481/349 438/479/347 83/83/63
f 87/87/67 443/484/352 440/481/349 85/85/65
f 449/490/358 447/488/356 89/89/69 88/88/68
f 388/429/297 449/490/358 88/88/68 92/92/72
f 425/466/334 423/464/332 198/218/165 197/217/164
f 72/72/52 426/467/335 425/466/334 197/217/164
f 413/454/322 411/452/320 63/63/43 201/222/168
f 415/456/324 413/454/322 201/222/168 65/65/45
f 393/434/302 391/432/300 203/224/170 202/223/169
f 394/435/303 393/434/302 202/223/169 49/49/29
f 445/486/354 443/484/352 87/87/67 206/228/173
f 447/488/356 445/486/354 206/228/173 89/89/69
f 421/462/330 419/460/328 68/68/48 230/258/192
f 423/464/332 421/462/330 230/258/192 198/218/165
f 389/430/298 388/429/297 92/92/72 231/260/193
f 391/432/300 389/430/298 231/260/193 203/224/170
f 387/428/296 386/427/295 8/8/3 7/7/2
f 386/427/295 390/431/299 9/9/4 8/8/3
f 390/431/299 392/433/301 188/208/160 9/9/4
f 395/436/304 19/19/10 188/208/160 392/433/301
f 396/437/305 20/20/11 19/19/10 395/436/304
f 398/439/307 23/23/12 20/20/11 396/437/305
f 398/439/307 400/441/309 24/24/13 23/23/12
f 400/441/309 402/443/311 25/25/14 24/24/13
f 404/445/313 40/40/22 25/25/14 402/443/311
f 406/447/315 42/42/23 40/40/22 404/445/313
f 406/447/315 408/449/317 43/43/24 42/42/23
f 408/449/317 410/451/319 44/44/25 43/43/24
f 410/451/319 412/453/321 196/216/163 44/44/25
f 412/453/321 414/455/323 28/28/15 196/216/163
f 414/455/323 416/457/325 29/29/16 28/28/15
f 416/457/325 418/459/327 32/32/17 29/29/16
f 418/459/327 420/461/329 228/256/191 32/32/17
f 420/461/329 422/463/331 191/211/161 228/256/191
f 422/463/331 424/465/333 192/212/162 191/211/161
f 427/468/336 10/10/5 192/212/162 424/465/333
f 429/470/338 11/11/6 10/10/5 427/468/336
f 431/472/340 14/14/7 11/11/6 429/470/338
f 431/472/340 433/474/342 15/15/8 14/14/7
f 433/474/342 435/476/344 16/16/9 15/15/8
f 437/478/346 34/34/18 16/16/9 435/476/344
f 439/480/348 36/36/19 34/34/18 437/478/346
f 439/480/348 441/482/350 37/37/20 36/36/19
f 441/482/350 442/483/351 38/38/21 37/37/20
f 442/483/351 444/485/353 186/206/158 38/38/21
f 444/485/353 446/487/355 187/207/159 186/206/158
f 446/487/355 448/489/357 227/255/190 187/207/159
f 448/489/357 387/428/296 7/7/2 227/255/190
