# Blender 4.5.3 LTS
# www.blender.org
o Stellar_Shift.044
v -8.169666 -21.232080 21.575932
v -8.169666 -21.887884 21.575932
v -8.227921 -21.232067 22.161686
v -8.227921 -21.232080 20.990200
v -8.227921 -21.887894 20.990200
v -8.398254 -21.232086 20.426731
v -8.398254 -21.887884 20.426731
v -8.676232 -21.232071 19.907887
v -8.676232 -21.887890 19.907879
v -9.049224 -21.232067 19.452503
v -9.049224 -21.887894 19.452496
v -9.504603 -21.232080 19.079494
v -9.504603 -21.887884 19.079494
v -10.023471 -21.232082 18.801510
v -10.023470 -21.887896 18.801510
v -10.586928 -21.232082 18.631176
v -10.586926 -21.887896 18.631176
v -11.172678 -21.232073 18.572918
v -11.172678 -21.887896 18.572918
v -11.758426 -21.232082 18.631176
v -11.758428 -21.887896 18.631176
v -12.321880 -21.232082 18.801510
v -12.321884 -21.887896 18.801510
v -12.840743 -21.232082 19.079494
v -12.840745 -21.887890 19.079494
v -13.296124 -21.232069 19.452496
v -13.296124 -21.887896 19.452496
v -13.669120 -21.232069 19.907887
v -13.669121 -21.887890 19.907879
v -13.947100 -21.232077 20.426731
v -14.117433 -21.232069 20.990200
v -13.947100 -21.887886 20.426731
v -14.117433 -21.887892 20.990200
v -13.980924 -28.482983 20.415661
v -14.165207 -28.489637 20.983295
v -13.903341 -28.614233 20.443577
v -13.689088 -28.476240 19.897930
v -13.623669 -28.606945 19.939518
v -13.304148 -28.469599 19.448170
v -13.253165 -28.600025 19.502911
v -12.840568 -28.463169 19.084408
v -12.804253 -28.593971 19.151455
v -12.317759 -28.457495 18.816647
v -12.295771 -28.588934 18.893475
v -11.755148 -28.453020 18.654903
v -11.173541 -28.449894 18.602741
v -11.746564 -28.584997 18.737316
v -11.720955 -28.714708 18.983440
v -11.177701 -28.582125 18.686527
v -11.190162 -28.712576 18.936489
v -10.610261 -28.580221 18.744610
v -10.659556 -28.710009 18.985790
v -10.065622 -28.579147 18.907658
v -10.593723 -28.448212 18.663723
v -10.036770 -28.447638 18.833729
v -9.523744 -28.447819 19.108646
v -9.071658 -28.449154 19.476124
v -9.565187 -28.578768 19.171719
v -9.688643 -28.705362 19.359669
v -9.125855 -28.579802 19.526432
v -9.287431 -28.705568 19.676212
v -8.764537 -28.583025 19.961346
v -8.964612 -28.709873 20.072964
v -8.492515 -28.587711 20.460072
v -8.697525 -28.451990 19.923885
v -8.414602 -28.456011 20.435329
v -8.236152 -28.460863 20.993847
v -8.167445 -28.466524 21.578236
v -8.321064 -28.593168 21.006252
v -8.575431 -28.723839 21.043224
v -8.255282 -28.599146 21.578236
v -8.518892 -28.730797 21.578136
v -8.300257 -28.605385 22.154438
v -8.560398 -28.736408 22.116062
v -8.453504 -28.611782 22.712597
v -8.213756 -28.472980 22.167156
v -8.227921 -21.887890 22.161678
v -8.372600 -28.479929 22.738697
v -8.641496 -28.487047 23.270840
v -8.398254 -21.887888 22.725147
v -8.398254 -21.232080 22.725155
v -8.676232 -21.887888 23.243999
v -9.049224 -21.887888 23.699383
v -8.676232 -21.232067 23.243999
v -9.049224 -21.232067 23.699383
v -9.504603 -21.232071 24.072399
v -9.504602 -21.887888 24.072392
v -10.023471 -21.232071 24.350376
v -10.023470 -21.887884 24.350368
v -10.586928 -21.232071 24.520702
v -10.586926 -21.887884 24.520702
v -11.172678 -21.232067 24.578945
v -11.172678 -21.887884 24.578945
v -11.758426 -21.232067 24.520702
v -11.758428 -21.887884 24.520702
v -12.321880 -21.232067 24.350376
v -12.321882 -21.887884 24.350368
v -12.840743 -21.232071 24.072399
v -12.840744 -21.887884 24.072392
v -13.296124 -21.232067 23.699383
v -13.296123 -21.887890 23.699383
v -13.669120 -21.232067 23.243999
v -13.669119 -21.887890 23.243999
v -13.947100 -21.232075 22.725155
v -13.947099 -21.887890 22.725147
v -14.117433 -21.232069 22.161686
v -14.117432 -21.887886 22.161678
v -14.175692 -21.232084 21.575932
v -14.175692 -21.887886 21.575932
v -14.236584 -28.496096 21.578426
v -14.189686 -28.502266 22.178493
v -14.147779 -28.628021 21.578487
v -13.878646 -28.757574 21.578640
v -14.102302 -28.633978 22.164158
v -14.079752 -28.621346 20.997456
v -13.821231 -28.750263 21.040195
v -13.669056 -28.741756 20.527897
v -13.477545 -28.857990 21.093029
v -13.359308 -28.847801 20.632725
v -13.521043 -28.865810 21.578793
v -13.136585 -28.926126 21.137547
v -12.789645 -28.967873 21.168087
v -13.055307 -28.914640 20.722179
v -13.166831 -28.933800 21.578915
v -13.141189 -28.937113 22.021275
v -12.808596 -28.975508 21.578922
v -12.438944 -29.004934 21.578838
v -12.792793 -28.977730 21.990566
v -12.430259 -29.006325 21.979359
v -12.747542 -28.974497 22.378849
v -12.407223 -29.000927 22.363255
v -12.678161 -28.965759 22.719479
v -13.063847 -28.936255 22.439251
v -13.374533 -28.871716 22.531124
v -12.938995 -28.931477 22.807339
v -13.190072 -28.870680 22.949131
v -12.742807 -28.928881 23.102634
v -12.451468 -28.934599 23.302189
v -12.602418 -28.954979 22.952465
v -12.926558 -28.870457 23.301609
v -13.140054 -28.769285 23.529972
v -12.578135 -28.874403 23.569996
v -12.732079 -28.772314 23.860378
v -12.162315 -28.879349 23.760044
v -12.257934 -28.775278 24.102184
v -11.696611 -28.882149 23.877468
v -12.086123 -28.942759 23.430645
v -11.667929 -28.947474 23.512745
v -12.039304 -28.979542 23.097431
v -12.375861 -28.967812 23.026592
v -12.031822 -29.003859 22.743885
v -11.651766 -28.986410 23.145985
v -11.237378 -28.987873 23.166042
v -11.650322 -29.012957 22.768299
v -11.655890 -29.030140 22.380070
v -11.248014 -29.015579 22.780094
v -11.254902 -29.034166 22.385929
v -10.842319 -29.010990 22.773167
v -10.849958 -29.028881 22.383518
v -10.451204 -28.999632 22.752995
v -10.820266 -28.983471 23.151455
v -10.425397 -28.973780 23.107655
v -10.774581 -28.943562 23.517696
v -11.222281 -28.947987 23.543423
v -10.713151 -28.877386 23.879612
v -10.351037 -28.935118 23.439823
v -10.244702 -28.870039 23.764042
v -9.977845 -28.923616 23.314159
v -9.824967 -28.860878 23.575268
v -10.077714 -28.959394 23.039997
v -9.679889 -28.915155 23.115536
v -9.482047 -28.915865 22.818913
v -9.839260 -28.944086 22.966022
v -9.473330 -28.853298 23.307270
v -9.246296 -28.750484 23.520153
v -9.209165 -28.850664 22.954113
v -8.927209 -28.745422 23.108082
v -9.025162 -28.849787 22.534649
v -8.697366 -28.741135 22.633778
v -8.914011 -28.847466 22.067760
v -9.357875 -28.919558 22.447666
v -9.280923 -28.920000 22.025326
v -9.703000 -28.963427 22.388302
v -10.068041 -28.994402 22.371899
v -9.659781 -28.966627 21.995113
v -9.768871 -28.954983 22.732525
v -10.092653 -28.981928 22.724995
v -9.644962 -28.964476 21.577915
v -10.049232 -29.000006 21.983494
v -10.042203 -28.998646 21.577930
v -10.447402 -29.023361 21.982273
v -10.445472 -29.022911 21.577984
v -10.852418 -29.039902 21.983212
v -10.451019 -29.015297 22.377323
v -10.852835 -29.041084 21.578121
v -11.258725 -29.046736 21.983807
v -11.260058 -29.048923 21.578281
v -11.660759 -29.040976 21.981564
v -11.662909 -29.042210 21.578465
v -12.053078 -29.026276 21.979198
v -12.057248 -29.025892 21.578678
v -12.043228 -29.018490 22.370846
v -12.051604 -29.015989 21.179089
v -12.040449 -28.998644 20.789700
v -12.428016 -28.996460 21.179127
v -11.660316 -29.030594 21.176380
v -11.655062 -29.010073 20.780399
v -11.259459 -29.036362 21.173779
v -11.256289 -29.014095 20.774273
v -10.854333 -29.029484 21.174068
v -10.853579 -29.008844 20.776325
v -10.450353 -29.013050 21.174702
v -10.456595 -28.995483 20.782101
v -10.052936 -28.990150 21.173267
v -10.075011 -28.975191 20.787098
v -9.664296 -28.956772 21.161610
v -9.711462 -28.943933 20.770634
v -9.286659 -28.908861 21.131641
v -9.255687 -28.916636 21.577946
v -9.368584 -28.897686 20.712063
v -8.922786 -28.835037 21.089970
v -8.878839 -28.842829 21.578007
v -9.041541 -28.825525 20.627697
v -9.230814 -28.815811 20.215305
v -8.725505 -28.716539 20.533932
v -9.497071 -28.809765 19.870083
v -9.496200 -28.884081 20.344845
v -9.780144 -28.926405 20.429501
v -9.695458 -28.875731 20.052532
v -9.992306 -28.880293 19.857517
v -9.852135 -28.909565 20.199238
v -10.089334 -28.924063 20.126095
v -10.434733 -28.938231 20.059940
v -10.102017 -28.954430 20.437016
v -10.458746 -28.971985 20.409809
v -10.847239 -28.982922 20.390247
v -10.826282 -28.947031 20.017200
v -11.249917 -28.987148 20.383732
v -11.239542 -28.950720 20.003139
v -11.649217 -28.984642 20.395611
v -11.650084 -28.949537 20.023106
v -12.028090 -28.975832 20.419811
v -12.034271 -28.943336 20.070957
v -12.369506 -28.961174 20.450306
v -12.368471 -28.931986 20.140614
v -12.670430 -28.937073 20.444012
v -12.403023 -28.981640 20.797276
v -12.741675 -28.954985 20.781849
v -12.593410 -28.920261 20.214046
v -12.927844 -28.899944 20.357891
v -12.730831 -28.889540 20.066662
v -13.170341 -28.836338 20.221584
v -12.905360 -28.827391 19.876873
v -13.426518 -28.732817 20.064770
v -13.099856 -28.725082 19.667377
v -12.695322 -28.720167 19.352390
v -12.229996 -28.717043 19.123226
v -12.559098 -28.824799 19.615864
v -12.148342 -28.825243 19.431705
v -12.440907 -28.890965 19.870533
v -12.078731 -28.896898 19.744595
v -11.664960 -28.900030 19.663929
v -11.224358 -28.900013 19.633610
v -11.689897 -28.825344 19.317593
v -11.207009 -28.824238 19.277309
v -10.722928 -28.820986 19.314655
v -10.261552 -28.816408 19.426418
v -10.781671 -28.896517 19.658558
v -10.362472 -28.889856 19.734600
v -10.151578 -28.707451 19.128010
v -9.846792 -28.811321 19.609333
v -8.712535 -28.618202 23.230434
v -9.068562 -28.624735 23.687496
v -9.512799 -28.631481 24.063328
v -9.009904 -28.494072 23.742641
v -9.467291 -28.500732 24.133152
v -9.994154 -28.506689 24.427364
v -10.570989 -28.511644 24.610241
v -10.026026 -28.637806 24.345112
v -10.122951 -28.764915 24.094913
v -10.589027 -28.643064 24.519932
v -10.643854 -28.771109 24.245052
v -11.177874 -28.646839 24.583065
v -11.189486 -28.775221 24.297733
v -11.768639 -28.648714 24.529743
v -11.173985 -28.515314 24.676723
v -11.779334 -28.517393 24.621784
v -12.362359 -28.517759 24.448544
v -12.336704 -28.648693 24.363049
v -12.898374 -28.516184 24.160069
v -13.366853 -28.513605 23.771412
v -12.857440 -28.646770 24.086109
v -13.310943 -28.644081 23.711834
v -13.677291 -28.641741 23.253094
v -13.463868 -28.767872 23.117336
v -13.944933 -28.638723 22.730358
v -13.747271 -28.510942 23.297535
v -14.026066 -28.507448 22.759563
v -13.697990 -28.766331 22.641193
v -13.836910 -28.762920 22.120319
v -13.485781 -28.870245 22.066250
v -11.735622 -28.776417 24.249027
v -11.205421 -28.881817 23.918568
v -9.650988 -28.757515 23.851185
v -12.375099 -28.989012 22.712978
vn 1.0000 -0.0000 -0.0000
vn 1.0000 0.0004 -0.0086
vn 0.9793 -0.0012 -0.2025
vn 0.9808 -0.0000 -0.1951
vn 0.9808 -0.0000 0.1951
vn 0.9826 0.0021 0.1856
vn 0.9214 -0.0025 -0.3886
vn 0.9239 -0.0000 -0.3827
vn 0.8285 -0.0036 -0.5599
vn 0.8315 -0.0000 -0.5556
vn 0.7050 -0.0043 -0.7092
vn 0.7071 -0.0000 -0.7071
vn 0.5549 -0.0047 -0.8319
vn 0.5556 -0.0000 -0.8315
vn 0.3833 -0.0048 -0.9236
vn 0.3827 -0.0000 -0.9239
vn 0.1969 -0.0045 -0.9804
vn 0.1951 -0.0000 -0.9808
vn 0.0034 -0.0041 -1.0000
vn -0.0000 -0.0000 -1.0000
vn -0.1900 -0.0032 -0.9818
vn -0.1951 -0.0000 -0.9808
vn -0.3760 -0.0021 -0.9266
vn -0.3827 -0.0000 -0.9239
vn -0.5482 -0.0005 -0.8363
vn -0.5556 -0.0000 -0.8315
vn -0.7003 0.0012 -0.7138
vn -0.7071 -0.0000 -0.7071
vn -0.8260 0.0031 -0.5636
vn -0.8315 -0.0000 -0.5556
vn -0.9202 0.0049 -0.3913
vn -0.9239 -0.0000 -0.3827
vn -0.9789 0.0066 -0.2040
vn -0.9808 -0.0000 -0.1951
vn -0.9197 -0.0069 -0.3925
vn -0.9787 -0.0056 -0.2052
vn -0.8253 -0.0082 -0.5646
vn -0.5686 -0.7823 -0.2542
vn -0.5906 -0.7954 -0.1359
vn -0.5233 -0.7669 -0.3716
vn -0.4465 -0.7577 -0.4759
vn -0.6994 -0.0098 -0.7147
vn -0.3424 -0.7600 -0.5525
vn -0.5471 -0.0118 -0.8370
vn -0.2265 -0.7696 -0.5970
vn -0.3751 -0.0139 -0.9269
vn -0.1892 -0.0157 -0.9818
vn -0.1095 -0.7783 -0.6183
vn 0.0039 -0.0167 -0.9999
vn 0.0069 -0.7813 -0.6241
vn -0.0641 -0.9224 -0.3810
vn -0.1349 -0.9185 -0.3718
vn 0.0049 -0.9237 -0.3832
vn 0.1243 -0.7775 -0.6165
vn 0.0742 -0.9220 -0.3800
vn 0.1979 -0.0171 -0.9801
vn 0.2421 -0.7675 -0.5936
vn 0.1461 -0.9175 -0.3700
vn 0.3832 -0.0168 -0.9235
vn 0.5534 -0.0163 -0.8328
vn 0.3588 -0.7556 -0.5480
vn 0.7046 -0.0157 -0.7094
vn 0.4614 -0.7512 -0.4720
vn 0.2209 -0.9117 -0.3463
vn 0.2889 -0.9095 -0.2989
vn 0.5357 -0.7597 -0.3686
vn 0.3347 -0.9138 -0.2301
vn 0.8268 -0.0152 -0.5622
vn 0.5793 -0.7752 -0.2521
vn 0.3568 -0.9212 -0.1555
vn 0.9197 -0.0147 -0.3922
vn 0.6005 -0.7882 -0.1347
vn 0.9790 -0.0139 -0.2034
vn 0.6064 -0.7949 -0.0192
vn 0.9999 -0.0125 -0.0098
vn 0.3657 -0.9269 -0.0846
vn 0.3678 -0.9298 -0.0160
vn 0.5992 -0.7949 0.0956
vn 0.3643 -0.9298 0.0520
vn 0.9828 -0.0106 0.1842
vn 0.5766 -0.7893 0.2109
vn 0.3536 -0.9275 0.1214
vn 0.9283 -0.0082 0.3717
vn 0.9278 0.0040 0.3730
vn 0.8381 -0.0056 0.5455
vn 0.5315 -0.7824 0.3245
vn 0.8373 0.0060 0.5467
vn 0.9239 -0.0000 0.3827
vn 0.8315 -0.0000 0.5556
vn 0.7140 0.0080 0.7001
vn 0.7149 -0.0035 0.6992
vn 0.7071 -0.0000 0.7071
vn 0.5556 -0.0000 0.8315
vn 0.5627 0.0098 0.8266
vn 0.3827 -0.0000 0.9239
vn 0.3891 0.0112 0.9211
vn 0.1951 -0.0000 0.9808
vn 0.2004 0.0125 0.9796
vn -0.0000 -0.0000 1.0000
vn 0.0044 0.0134 0.9999
vn -0.1951 -0.0000 0.9808
vn -0.1921 0.0141 0.9813
vn -0.3827 -0.0000 0.9239
vn -0.3820 0.0144 0.9240
vn -0.5556 -0.0000 0.8315
vn -0.5571 0.0143 0.8304
vn -0.7071 -0.0000 0.7071
vn -0.7096 0.0138 0.7044
vn -0.8315 -0.0000 0.5556
vn -0.8343 0.0130 0.5511
vn -0.9239 -0.0000 0.3827
vn -0.9266 0.0117 0.3758
vn -0.9808 -0.0000 0.1951
vn -0.9825 0.0101 0.1862
vn -1.0000 -0.0000 -0.0000
vn -0.9999 0.0084 -0.0093
vn -0.9999 -0.0041 -0.0105
vn -0.9827 -0.0022 0.1849
vn -0.5963 -0.8025 -0.0199
vn -0.5882 -0.8030 0.0958
vn -0.3574 -0.9301 -0.0849
vn -0.3591 -0.9332 -0.0162
vn -0.3549 -0.9334 0.0523
vn -0.3480 -0.9243 -0.1566
vn -0.2442 -0.9679 -0.0601
vn -0.2440 -0.9697 -0.0143
vn -0.2412 -0.9643 -0.1091
vn -0.1550 -0.9850 -0.0753
vn -0.1552 -0.9869 -0.0430
vn -0.1545 -0.9879 -0.0132
vn -0.0974 -0.9947 -0.0344
vn -0.0977 -0.9951 -0.0125
vn -0.0961 -0.9937 -0.0580
vn -0.1541 -0.9879 0.0160
vn -0.2426 -0.9696 0.0312
vn -0.0972 -0.9952 0.0093
vn -0.0661 -0.9977 -0.0125
vn -0.0654 -0.9978 0.0083
vn -0.0646 -0.9974 -0.0332
vn -0.0624 -0.9976 0.0285
vn -0.0951 -0.9950 0.0316
vn -0.1529 -0.9871 0.0473
vn -0.0603 -0.9968 0.0523
vn -0.0921 -0.9942 0.0562
vn -0.1487 -0.9853 0.0838
vn -0.2386 -0.9679 0.0795
vn -0.2256 -0.9651 0.1329
vn -0.1294 -0.9841 0.1214
vn -0.1919 -0.9641 0.1833
vn -0.0882 -0.9929 0.0801
vn -0.1398 -0.9668 0.2138
vn -0.0910 -0.9861 0.1388
vn -0.0639 -0.9944 0.0837
vn -0.2706 -0.9266 0.2609
vn -0.3182 -0.9276 0.1959
vn -0.2033 -0.9305 0.3048
vn -0.0868 -0.9707 0.2242
vn -0.1304 -0.9363 0.3262
vn -0.0552 -0.9884 0.1416
vn -0.0399 -0.9732 0.2264
vn -0.0609 -0.9402 0.3351
vn -0.0250 -0.9896 0.1418
vn -0.0399 -0.9955 0.0862
vn -0.0186 -0.9959 0.0880
vn -0.0374 -0.9978 0.0542
vn -0.0179 -0.9982 0.0570
vn 0.0028 -0.9960 0.0888
vn 0.0035 -0.9899 0.1415
vn 0.0021 -0.9983 0.0588
vn -0.0209 -0.9992 0.0353
vn 0.0015 -0.9993 0.0377
vn -0.0400 -0.9987 0.0310
vn 0.0245 -0.9991 0.0358
vn 0.0226 -0.9981 0.0581
vn 0.0243 -0.9958 0.0886
vn 0.0450 -0.9985 0.0315
vn 0.0427 -0.9976 0.0553
vn 0.0459 -0.9951 0.0872
vn 0.0620 -0.9880 0.1414
vn 0.0319 -0.9894 0.1418
vn 0.0044 -0.9740 0.2267
vn 0.0485 -0.9729 0.2260
vn 0.0949 -0.9701 0.2233
vn 0.0974 -0.9856 0.1380
vn 0.1473 -0.9661 0.2121
vn 0.0702 -0.9940 0.0845
vn 0.1354 -0.9836 0.1195
vn 0.1988 -0.9633 0.1804
vn 0.0948 -0.9922 0.0804
vn 0.2317 -0.9641 0.1295
vn 0.1542 -0.9847 0.0814
vn 0.0991 -0.9935 0.0557
vn 0.2814 -0.9240 0.2589
vn 0.2138 -0.9284 0.3039
vn 0.3292 -0.9243 0.1931
vn 0.2436 -0.9668 0.0773
vn 0.1578 -0.9864 0.0459
vn 0.2469 -0.9685 0.0310
vn 0.1585 -0.9872 0.0156
vn 0.1020 -0.9943 0.0310
vn 0.1038 -0.9946 0.0093
vn 0.0690 -0.9972 0.0288
vn 0.0666 -0.9964 0.0528
vn 0.0714 -0.9974 0.0080
vn 0.1045 -0.9944 -0.0126
vn 0.1594 -0.9871 -0.0134
vn 0.0724 -0.9973 -0.0125
vn 0.0509 -0.9986 -0.0128
vn 0.0491 -0.9987 0.0106
vn 0.0304 -0.9995 -0.0129
vn 0.0283 -0.9995 0.0146
vn 0.0016 -0.9999 -0.0128
vn 0.0013 -0.9999 0.0168
vn -0.0272 -0.9995 -0.0128
vn -0.0251 -0.9996 0.0147
vn -0.0465 -0.9988 -0.0128
vn -0.0443 -0.9990 0.0106
vn -0.0442 -0.9984 -0.0360
vn -0.0255 -0.9989 -0.0400
vn -0.0402 -0.9977 -0.0549
vn -0.0215 -0.9980 -0.0587
vn -0.0622 -0.9966 -0.0535
vn 0.0013 -0.9982 -0.0607
vn 0.0012 -0.9991 -0.0419
vn 0.0245 -0.9980 -0.0587
vn 0.0283 -0.9988 -0.0397
vn 0.0449 -0.9975 -0.0551
vn 0.0484 -0.9982 -0.0353
vn 0.0688 -0.9962 -0.0532
vn 0.0710 -0.9969 -0.0333
vn 0.1036 -0.9929 -0.0579
vn 0.1042 -0.9940 -0.0346
vn 0.1601 -0.9843 -0.0743
vn 0.1600 -0.9862 -0.0431
vn 0.2479 -0.9669 -0.0598
vn 0.2482 -0.9686 -0.0145
vn 0.2455 -0.9634 -0.1075
vn 0.1571 -0.9813 -0.1109
vn 0.2347 -0.9587 -0.1609
vn 0.2033 -0.9556 -0.2133
vn 0.1395 -0.9789 -0.1494
vn 0.1020 -0.9913 -0.0834
vn 0.0994 -0.9890 -0.1091
vn 0.1519 -0.9571 -0.2467
vn 0.1019 -0.9804 -0.1688
vn 0.0742 -0.9909 -0.1122
vn 0.0683 -0.9946 -0.0776
vn 0.0479 -0.9923 -0.1145
vn 0.0646 -0.9827 -0.1734
vn 0.0433 -0.9960 -0.0783
vn 0.0243 -0.9930 -0.1160
vn 0.0222 -0.9965 -0.0802
vn 0.0022 -0.9932 -0.1162
vn 0.0016 -0.9967 -0.0814
vn -0.0198 -0.9931 -0.1154
vn -0.0186 -0.9966 -0.0799
vn -0.0425 -0.9926 -0.1137
vn -0.0386 -0.9962 -0.0779
vn -0.0678 -0.9914 -0.1117
vn -0.0621 -0.9950 -0.0778
vn -0.0919 -0.9898 -0.1089
vn -0.0944 -0.9920 -0.0840
vn -0.1510 -0.9821 -0.1129
vn -0.1323 -0.9796 -0.1509
vn -0.2287 -0.9597 -0.1636
vn -0.1954 -0.9567 -0.2158
vn -0.3245 -0.9171 -0.2317
vn -0.2770 -0.9126 -0.3007
vn -0.2087 -0.9138 -0.3484
vn -0.1432 -0.9579 -0.2486
vn -0.0897 -0.9613 -0.2605
vn -0.0581 -0.9831 -0.1735
vn -0.0947 -0.9810 -0.1694
vn -0.0420 -0.9639 -0.2630
vn -0.0265 -0.9844 -0.1741
vn 0.0028 -0.9847 -0.1743
vn 0.0035 -0.9646 -0.2635
vn 0.0492 -0.9638 -0.2622
vn 0.0329 -0.9841 -0.1743
vn 0.0979 -0.9609 -0.2589
vn 0.4548 -0.7818 0.4266
vn 0.3525 -0.7909 0.5003
vn 0.5636 -0.0019 0.8260
vn 0.3899 -0.0010 0.9208
vn 0.2376 -0.8048 0.5439
vn 0.2050 -0.0002 0.9788
vn 0.1221 -0.8157 0.5654
vn 0.1414 -0.9348 0.3259
vn 0.0724 -0.9394 0.3350
vn 0.0083 -0.8202 0.5720
vn 0.0058 -0.9413 0.3375
vn 0.0049 0.0005 1.0000
vn -0.1059 -0.8175 0.5661
vn -0.1883 0.0015 0.9821
vn -0.2225 -0.8083 0.5451
vn -0.3819 0.0024 0.9242
vn -0.5573 0.0029 0.8303
vn -0.3384 -0.7957 0.5024
vn -0.7100 0.0026 0.7042
vn -0.4412 -0.7880 0.4295
vn -0.5175 -0.7900 0.3289
vn -0.8348 0.0016 0.5505
vn -0.5640 -0.7977 0.2135
vn -0.3433 -0.9311 0.1231
vn -0.9271 -0.0001 0.3749
vt 0.612972 0.731354
vt 0.612972 0.734085
vt 0.610519 0.734085
vt 0.610529 0.731354
vt 0.615436 0.731354
vt 0.615426 0.734095
vt 0.608065 0.734085
vt 0.608065 0.731344
vt 0.605612 0.734075
vt 0.605612 0.731344
vt 0.603159 0.734075
vt 0.603159 0.731344
vt 0.600705 0.734075
vt 0.600695 0.731344
vt 0.598252 0.734085
vt 0.598252 0.731344
vt 0.595799 0.734095
vt 0.595788 0.731354
vt 0.593345 0.734105
vt 0.593335 0.731365
vt 0.590882 0.734116
vt 0.590872 0.731375
vt 0.588439 0.734126
vt 0.588418 0.731395
vt 0.585985 0.734146
vt 0.585975 0.731406
vt 0.583532 0.734157
vt 0.583511 0.731426
vt 0.581079 0.734177
vt 0.581068 0.731436
vt 0.578615 0.734187
vt 0.578605 0.731457
vt 0.576172 0.734198
vt 0.576162 0.731467
vt 0.578748 0.761667
vt 0.576264 0.761708
vt 0.581222 0.761626
vt 0.578779 0.762314
vt 0.576295 0.762365
vt 0.581243 0.762262
vt 0.583696 0.762211
vt 0.583696 0.761595
vt 0.586119 0.762170
vt 0.586139 0.761554
vt 0.588572 0.762150
vt 0.588593 0.761513
vt 0.591025 0.761482
vt 0.591005 0.762129
vt 0.593468 0.761451
vt 0.593458 0.762108
vt 0.938968 0.033515
vt 0.941309 0.032910
vt 0.941411 0.034070
vt 0.939255 0.034603
vt 0.943731 0.032756
vt 0.943649 0.033916
vt 0.946123 0.033053
vt 0.945866 0.034183
vt 0.595891 0.761431
vt 0.595891 0.762088
vt 0.948422 0.033793
vt 0.947991 0.034829
vt 0.598324 0.761421
vt 0.598334 0.762067
vt 0.600736 0.761421
vt 0.600747 0.762057
vt 0.603159 0.761421
vt 0.603159 0.762057
vt 0.950517 0.034963
vt 0.949911 0.035846
vt 0.952364 0.036503
vt 0.951564 0.037201
vt 0.953853 0.038381
vt 0.952888 0.038905
vt 0.605602 0.761441
vt 0.605571 0.762067
vt 0.954951 0.040526
vt 0.953853 0.040865
vt 0.608024 0.761462
vt 0.607994 0.762098
vt 0.610447 0.762139
vt 0.610478 0.761482
vt 0.612911 0.762170
vt 0.612921 0.761513
vt 0.955618 0.042867
vt 0.954428 0.043021
vt 0.955834 0.045290
vt 0.954612 0.045269
vt 0.955598 0.047733
vt 0.954386 0.047527
vt 0.615384 0.761544
vt 0.615395 0.762201
vt 0.954900 0.050073
vt 0.953771 0.049683
vt 0.617858 0.761575
vt 0.617869 0.762221
vt 0.617879 0.734095
vt 0.620332 0.761605
vt 0.620353 0.762242
vt 0.620332 0.734095
vt 0.617879 0.731365
vt 0.620332 0.731365
vt 0.622786 0.734095
vt 0.622837 0.761626
vt 0.622786 0.731365
vt 0.625229 0.731354
vt 0.625239 0.734095
vt 0.627682 0.731344
vt 0.627702 0.734085
vt 0.630125 0.731334
vt 0.630146 0.734064
vt 0.632589 0.731313
vt 0.632609 0.734044
vt 0.554081 0.734054
vt 0.554123 0.731324
vt 0.556566 0.731365
vt 0.556535 0.734105
vt 0.559019 0.731406
vt 0.558988 0.734136
vt 0.561462 0.731426
vt 0.561442 0.734167
vt 0.563915 0.731457
vt 0.563895 0.734187
vt 0.566359 0.731467
vt 0.566348 0.734198
vt 0.568812 0.731477
vt 0.568812 0.734208
vt 0.571255 0.731477
vt 0.571255 0.734208
vt 0.573708 0.731477
vt 0.573708 0.734208
vt 0.573770 0.761749
vt 0.571265 0.761780
vt 0.573780 0.762406
vt 0.571255 0.762437
vt 0.930859 0.044735
vt 0.931197 0.042282
vt 0.932398 0.042508
vt 0.932101 0.044766
vt 0.932224 0.047055
vt 0.931002 0.047230
vt 0.931998 0.039941
vt 0.933086 0.040372
vt 0.933887 0.042795
vt 0.933661 0.044817
vt 0.934421 0.040875
vt 0.935704 0.041296
vt 0.935324 0.043011
vt 0.935160 0.044848
vt 0.936782 0.043175
vt 0.936659 0.044889
vt 0.937008 0.041574
vt 0.935232 0.046696
vt 0.933753 0.046850
vt 0.936689 0.046603
vt 0.938198 0.044920
vt 0.938198 0.046593
vt 0.938280 0.043257
vt 0.938260 0.048184
vt 0.936843 0.048225
vt 0.935509 0.048441
vt 0.938363 0.049642
vt 0.937090 0.049642
vt 0.935991 0.049981
vt 0.934185 0.048810
vt 0.934913 0.050566
vt 0.936782 0.051233
vt 0.935981 0.052065
vt 0.937387 0.050617
vt 0.937418 0.053214
vt 0.937972 0.052085
vt 0.938321 0.050956
vt 0.935026 0.053040
vt 0.933702 0.051274
vt 0.936710 0.054456
vt 0.939122 0.054046
vt 0.938670 0.055524
vt 0.939492 0.052660
vt 0.941062 0.054580
vt 0.940857 0.056191
vt 0.941216 0.053050
vt 0.939717 0.051274
vt 0.941319 0.051520
vt 0.939779 0.049806
vt 0.941370 0.049940
vt 0.943043 0.051633
vt 0.943074 0.053214
vt 0.943033 0.050022
vt 0.941381 0.048328
vt 0.943043 0.048379
vt 0.939769 0.048256
vt 0.944727 0.048410
vt 0.944727 0.050032
vt 0.944789 0.051613
vt 0.946390 0.048420
vt 0.946349 0.049981
vt 0.946431 0.051469
vt 0.946708 0.052865
vt 0.944932 0.053153
vt 0.943115 0.054795
vt 0.945168 0.054682
vt 0.947129 0.054241
vt 0.948279 0.052372
vt 0.948905 0.053491
vt 0.947878 0.051213
vt 0.949541 0.051572
vt 0.950393 0.052403
vt 0.948884 0.050935
vt 0.951533 0.050966
vt 0.950383 0.050361
vt 0.949203 0.049960
vt 0.951369 0.053358
vt 0.949644 0.054713
vt 0.952754 0.051654
vt 0.952344 0.049221
vt 0.950937 0.048831
vt 0.952857 0.047281
vt 0.951307 0.047076
vt 0.949500 0.048544
vt 0.949726 0.046911
vt 0.947981 0.048431
vt 0.947848 0.049909
vt 0.948094 0.046819
vt 0.949818 0.045166
vt 0.951440 0.045207
vt 0.948156 0.045136
vt 0.946482 0.045105
vt 0.946441 0.046778
vt 0.944789 0.045074
vt 0.944758 0.046747
vt 0.943095 0.045033
vt 0.943064 0.046716
vt 0.941422 0.044992
vt 0.941401 0.046675
vt 0.939789 0.044961
vt 0.939769 0.046624
vt 0.939851 0.043298
vt 0.941473 0.043329
vt 0.939933 0.041676
vt 0.941535 0.041676
vt 0.938424 0.041676
vt 0.943187 0.041686
vt 0.943136 0.043349
vt 0.944871 0.041738
vt 0.944819 0.043390
vt 0.946513 0.041799
vt 0.946503 0.043432
vt 0.948104 0.041851
vt 0.948145 0.043462
vt 0.949623 0.041810
vt 0.949767 0.043442
vt 0.951061 0.041594
vt 0.951358 0.043349
vt 0.952908 0.043195
vt 0.953042 0.045238
vt 0.952457 0.041255
vt 0.950568 0.040054
vt 0.951707 0.039520
vt 0.950629 0.038053
vt 0.949757 0.038812
vt 0.949367 0.040383
vt 0.949090 0.039418
vt 0.949192 0.036934
vt 0.948546 0.037970
vt 0.948115 0.039100
vt 0.948022 0.040383
vt 0.946667 0.038781
vt 0.947016 0.037426
vt 0.946534 0.040249
vt 0.945045 0.038576
vt 0.944922 0.040126
vt 0.943331 0.038473
vt 0.943259 0.040065
vt 0.941627 0.038525
vt 0.941596 0.040075
vt 0.940025 0.038689
vt 0.940015 0.040147
vt 0.938619 0.038935
vt 0.938588 0.040239
vt 0.937675 0.039223
vt 0.937336 0.040177
vt 0.936268 0.039777
vt 0.937110 0.038597
vt 0.935252 0.039182
vt 0.936381 0.037755
vt 0.934143 0.038453
vt 0.935550 0.036810
vt 0.933220 0.037827
vt 0.934842 0.036020
vt 0.936782 0.034562
vt 0.937285 0.035517
vt 0.937860 0.036698
vt 0.939584 0.035979
vt 0.939861 0.037313
vt 0.938342 0.037796
vt 0.941514 0.035527
vt 0.941596 0.037016
vt 0.943423 0.036934
vt 0.943536 0.035414
vt 0.945548 0.035609
vt 0.945271 0.037077
vt 0.947478 0.036123
vt 0.953750 0.052249
vt 0.952200 0.054159
vt 0.622837 0.762273
vt 0.950270 0.055709
vt 0.625331 0.761657
vt 0.625321 0.762303
vt 0.627846 0.761667
vt 0.627836 0.762324
vt 0.630371 0.761677
vt 0.630371 0.762345
vt 0.947632 0.055688
vt 0.948073 0.056858
vt 0.945661 0.057526
vt 0.945446 0.056273
vt 0.943167 0.057741
vt 0.943146 0.056438
vt 0.632866 0.762355
vt 0.632897 0.761667
vt 0.940662 0.057464
vt 0.556114 0.762396
vt 0.553609 0.762355
vt 0.553558 0.761677
vt 0.556094 0.761729
vt 0.558660 0.762437
vt 0.558629 0.761770
vt 0.561164 0.761790
vt 0.561185 0.762437
vt 0.563690 0.761800
vt 0.563700 0.762447
vt 0.938280 0.056704
vt 0.936094 0.055493
vt 0.934205 0.053861
vt 0.932686 0.051880
vt 0.566225 0.761800
vt 0.566215 0.762447
vt 0.931608 0.049632
vt 0.932758 0.049252
vt 0.568750 0.761800
vt 0.568740 0.762447
s 1
f 1/1/1 2/2/2 5/3/3 4/4/4
f 2/2/2 1/1/1 3/5/5 77/6/6
f 7/7/7 6/8/8 4/4/4 5/3/3
f 6/8/8 7/7/7 9/9/9 8/10/10
f 11/11/11 10/12/12 8/10/10 9/9/9
f 10/12/12 11/11/11 13/13/13 12/14/14
f 15/15/15 14/16/16 12/14/14 13/13/13
f 14/16/16 15/15/15 17/17/17 16/18/18
f 19/19/19 18/20/20 16/18/18 17/17/17
f 18/20/20 19/19/19 21/21/21 20/22/22
f 23/23/23 22/24/24 20/22/22 21/21/21
f 22/24/24 23/23/23 25/25/25 24/26/26
f 27/27/27 26/28/28 24/26/26 25/25/25
f 26/28/28 27/27/27 29/29/29 28/30/30
f 32/31/31 30/32/32 28/30/30 29/29/29
f 32/31/31 33/33/33 31/34/34 30/32/32
f 32/31/31 34/35/35 35/36/36 33/33/33
f 32/31/31 29/29/29 37/37/37 34/35/35
f 36/38/38 115/39/39 35/36/36 34/35/35
f 38/40/40 36/38/38 34/35/35 37/37/37
f 40/41/41 38/40/40 37/37/37 39/42/42
f 27/27/27 39/42/42 37/37/37 29/29/29
f 42/43/43 40/41/41 39/42/42 41/44/44
f 27/27/27 25/25/25 41/44/44 39/42/42
f 44/45/45 42/43/43 41/44/44 43/46/46
f 23/23/23 43/46/46 41/44/44 25/25/25
f 44/45/45 43/46/46 45/47/47 47/48/48
f 23/23/23 21/21/21 45/47/47 43/46/46
f 45/47/47 21/21/21 19/19/19 46/49/49
f 46/49/49 49/50/50 47/48/48 45/47/47
f 44/51/45 47/52/48 48/53/51 257/54/52
f 47/52/48 49/55/50 50/56/53 48/53/51
f 49/55/50 51/57/54 52/58/55 50/56/53
f 49/50/50 46/49/49 54/59/56 51/60/54
f 51/57/54 53/61/57 270/62/58 52/58/55
f 55/63/59 53/64/57 51/60/54 54/59/56
f 19/19/19 17/17/17 54/59/56 46/49/49
f 54/59/56 17/17/17 15/15/15 55/63/59
f 15/15/15 13/13/13 56/65/60 55/63/59
f 53/64/57 55/63/59 56/65/60 58/66/61
f 56/65/60 13/13/13 11/11/11 57/67/62
f 57/67/62 60/68/63 58/66/61 56/65/60
f 53/61/57 58/69/61 59/70/64 270/62/58
f 58/69/61 60/71/63 61/72/65 59/70/64
f 60/71/63 62/73/66 63/74/67 61/72/65
f 60/68/63 57/67/62 65/75/68 62/76/66
f 62/73/66 64/77/69 225/78/70 63/74/67
f 66/79/71 64/80/69 62/76/66 65/75/68
f 11/11/11 9/9/9 65/75/68 57/67/62
f 65/75/68 9/9/9 7/7/7 66/79/71
f 69/81/72 64/80/69 66/79/71 67/82/73
f 7/7/7 5/3/3 67/82/73 66/79/71
f 71/83/74 69/81/72 67/82/73 68/84/75
f 68/84/75 67/82/73 5/3/3 2/2/2
f 64/77/69 69/85/72 70/86/76 225/78/70
f 69/85/72 71/87/74 72/88/77 70/86/76
f 72/88/77 71/87/74 73/89/78 74/90/79
f 71/83/74 68/84/75 76/91/80 73/92/78
f 75/93/81 179/94/82 74/90/79 73/89/78
f 78/95/83 75/96/81 73/92/78 76/91/80
f 2/2/2 77/6/6 76/91/80 68/84/75
f 76/91/80 77/6/6 80/97/84 78/95/83
f 75/96/81 78/95/83 79/98/85 272/99/86
f 80/97/84 82/100/87 79/98/85 78/95/83
f 80/97/84 81/101/88 84/102/89 82/100/87
f 81/101/88 80/97/84 77/6/6 3/5/5
f 83/103/90 275/104/91 79/98/85 82/100/87
f 85/105/92 83/103/90 82/100/87 84/102/89
f 83/103/90 85/105/92 86/106/93 87/107/94
f 88/108/95 89/109/96 87/107/94 86/106/93
f 89/109/96 88/108/95 90/110/97 91/111/98
f 92/112/99 93/113/100 91/111/98 90/110/97
f 93/114/100 92/115/99 94/116/101 95/117/102
f 96/118/103 97/119/104 95/117/102 94/116/101
f 97/119/104 96/118/103 98/120/105 99/121/106
f 100/122/107 101/123/108 99/121/106 98/120/105
f 101/123/108 100/122/107 102/124/109 103/125/110
f 104/126/111 105/127/112 103/125/110 102/124/109
f 105/127/112 104/126/111 106/128/113 107/129/114
f 108/130/115 109/131/116 107/129/114 106/128/113
f 108/130/115 31/34/34 33/33/33 109/131/116
f 109/131/116 110/132/117 111/133/118 107/129/114
f 33/33/33 35/36/36 110/132/117 109/131/116
f 112/134/119 114/135/120 111/133/118 110/132/117
f 115/39/39 112/134/119 110/132/117 35/36/36
f 112/136/119 115/137/39 116/138/121 113/139/122
f 112/136/119 113/139/122 300/140/123 114/141/120
f 115/137/39 36/142/38 117/143/124 116/138/121
f 118/144/125 120/145/126 113/139/122 116/138/121
f 119/146/127 118/144/125 116/138/121 117/143/124
f 118/144/125 119/146/127 123/147/128 121/148/129
f 120/145/126 118/144/125 121/148/129 124/149/130
f 122/150/131 126/151/132 124/149/130 121/148/129
f 248/152/133 122/150/131 121/148/129 123/147/128
f 120/145/126 124/149/130 125/153/134 301/154/135
f 124/149/130 126/151/132 128/155/136 125/153/134
f 126/151/132 127/156/137 129/157/138 128/155/136
f 127/156/137 126/151/132 122/150/131 205/158/139
f 131/159/140 130/160/141 128/155/136 129/157/138
f 130/160/141 133/161/142 125/153/134 128/155/136
f 130/160/141 131/159/140 305/162/143 132/163/144
f 133/161/142 130/160/141 132/163/144 135/164/145
f 133/161/142 134/165/146 301/154/135 125/153/134
f 134/165/146 133/161/142 135/164/145 136/166/147
f 137/167/148 140/168/149 136/166/147 135/164/145
f 139/169/150 137/167/148 135/164/145 132/163/144
f 142/170/151 140/168/149 137/167/148 138/171/152
f 139/169/150 150/172/153 138/171/152 137/167/148
f 140/168/149 141/173/154 295/174/155 136/166/147
f 141/173/154 140/168/149 142/170/151 143/175/156
f 144/176/157 145/177/158 143/175/156 142/170/151
f 144/176/157 142/170/151 138/171/152 147/178/159
f 145/177/158 144/176/157 146/179/160 302/180/161
f 144/176/157 147/178/159 148/181/162 146/179/160
f 147/178/159 149/182/163 152/183/164 148/181/162
f 150/172/153 149/182/163 147/178/159 138/171/152
f 149/182/163 150/172/153 305/162/143 151/184/165
f 152/183/164 149/182/163 151/184/165 154/185/166
f 153/186/167 164/187/168 148/181/162 152/183/164
f 153/186/167 152/183/164 154/185/166 156/188/169
f 155/189/170 157/190/171 156/188/169 154/185/166
f 202/191/172 155/189/170 154/185/166 151/184/165
f 157/190/171 159/192/173 158/193/174 156/188/169
f 161/194/175 153/186/167 156/188/169 158/193/174
f 159/192/173 194/195/176 160/196/177 158/193/174
f 162/197/178 161/194/175 158/193/174 160/196/177
f 162/197/178 166/198/179 163/199/180 161/194/175
f 164/187/168 153/186/167 161/194/175 163/199/180
f 303/200/181 164/187/168 163/199/180 165/201/182
f 166/198/179 167/202/183 165/201/182 163/199/180
f 167/202/183 166/198/179 168/203/184 169/204/185
f 166/198/179 162/197/178 170/205/186 168/203/184
f 171/206/187 174/207/188 169/204/185 168/203/184
f 173/208/189 171/206/187 168/203/184 170/205/186
f 176/209/190 174/207/188 171/206/187 172/210/191
f 173/208/189 186/211/192 172/210/191 171/206/187
f 174/207/188 175/212/193 304/213/194 169/204/185
f 175/212/193 174/207/188 176/209/190 177/214/195
f 178/215/196 179/94/82 177/214/195 176/209/190
f 178/215/196 176/209/190 172/210/191 181/216/197
f 179/94/82 178/215/196 180/217/198 74/90/79
f 178/215/196 181/216/197 182/218/199 180/217/198
f 181/216/197 183/219/200 185/220/201 182/218/199
f 186/211/192 183/219/200 181/216/197 172/210/191
f 184/221/202 183/219/200 186/211/192 187/222/203
f 183/219/200 184/221/202 189/223/204 185/220/201
f 173/208/189 170/205/186 187/222/203 186/211/192
f 194/195/176 184/221/202 187/222/203 160/196/177
f 170/205/186 162/197/178 160/196/177 187/222/203
f 188/224/205 219/225/206 182/218/199 185/220/201
f 190/226/207 188/224/205 185/220/201 189/223/204
f 192/227/208 190/226/207 189/223/204 191/228/209
f 184/221/202 194/195/176 191/228/209 189/223/204
f 195/229/210 192/227/208 191/228/209 193/230/211
f 194/195/176 159/192/173 193/230/211 191/228/209
f 197/231/212 195/229/210 193/230/211 196/232/213
f 159/192/173 157/190/171 196/232/213 193/230/211
f 199/233/214 197/231/212 196/232/213 198/234/215
f 157/190/171 155/189/170 198/234/215 196/232/213
f 201/235/216 199/233/214 198/234/215 200/236/217
f 155/189/170 202/191/172 200/236/217 198/234/215
f 127/156/137 201/235/216 200/236/217 129/157/138
f 202/191/172 131/159/140 129/157/138 200/236/217
f 131/159/140 202/191/172 151/184/165 305/162/143
f 201/235/216 127/156/137 205/158/139 203/237/218
f 199/233/214 201/235/216 203/237/218 206/238/219
f 204/239/220 207/240/221 206/238/219 203/237/218
f 247/241/222 204/239/220 203/237/218 205/158/139
f 207/240/221 209/242/223 208/243/224 206/238/219
f 197/231/212 199/233/214 206/238/219 208/243/224
f 209/242/223 211/244/225 210/245/226 208/243/224
f 195/229/210 197/231/212 208/243/224 210/245/226
f 211/244/225 213/246/227 212/247/228 210/245/226
f 192/227/208 195/229/210 210/245/226 212/247/228
f 213/246/227 215/248/229 214/249/230 212/247/228
f 190/226/207 192/227/208 212/247/228 214/249/230
f 215/248/229 217/250/231 216/251/232 214/249/230
f 188/224/205 190/226/207 214/249/230 216/251/232
f 216/251/232 217/250/231 220/252/233 218/253/234
f 188/224/205 216/251/232 218/253/234 219/225/206
f 221/254/235 222/255/236 219/225/206 218/253/234
f 223/256/237 221/254/235 218/253/234 220/252/233
f 222/255/236 221/254/235 70/86/76 72/88/77
f 221/254/235 223/256/237 225/78/70 70/86/76
f 223/256/237 220/252/233 227/257/238 224/258/239
f 223/256/237 224/258/239 63/74/67 225/78/70
f 224/258/239 226/259/240 61/72/65 63/74/67
f 229/260/241 226/259/240 224/258/239 227/257/238
f 220/252/233 217/250/231 228/261/242 227/257/238
f 231/262/243 229/260/241 227/257/238 228/261/242
f 271/263/244 226/259/240 229/260/241 230/264/245
f 231/262/243 232/265/246 230/264/245 229/260/241
f 232/265/246 231/262/243 228/261/242 234/266/247
f 232/265/246 233/267/248 269/268/249 230/264/245
f 233/267/248 232/265/246 234/266/247 235/269/250
f 215/248/229 213/246/227 235/269/250 234/266/247
f 217/250/231 215/248/229 234/266/247 228/261/242
f 237/270/251 233/267/248 235/269/250 236/271/252
f 213/246/227 211/244/225 236/271/252 235/269/250
f 239/272/253 237/270/251 236/271/252 238/273/254
f 211/244/225 209/242/223 238/273/254 236/271/252
f 241/274/255 239/272/253 238/273/254 240/275/256
f 209/242/223 207/240/221 240/275/256 238/273/254
f 243/276/257 241/274/255 240/275/256 242/277/258
f 207/240/221 204/239/220 242/277/258 240/275/256
f 245/278/259 243/276/257 242/277/258 244/279/260
f 204/239/220 247/241/222 244/279/260 242/277/258
f 249/280/261 245/278/259 244/279/260 246/281/262
f 247/241/222 248/152/133 246/281/262 244/279/260
f 248/152/133 247/241/222 205/158/139 122/150/131
f 246/281/262 248/152/133 123/147/128 250/282/263
f 249/280/261 246/281/262 250/282/263 251/283/264
f 252/284/265 253/285/266 251/283/264 250/282/263
f 119/146/127 252/284/265 250/282/263 123/147/128
f 253/285/266 252/284/265 254/286/267 255/287/268
f 252/284/265 119/146/127 117/143/124 254/286/267
f 38/288/40 40/289/41 255/287/268 254/286/267
f 36/142/38 38/288/40 254/286/267 117/143/124
f 40/289/41 42/290/43 256/291/269 255/287/268
f 258/292/270 253/285/266 255/287/268 256/291/269
f 42/290/43 44/51/45 257/54/52 256/291/269
f 259/293/271 258/292/270 256/291/269 257/54/52
f 259/293/271 261/294/272 260/295/273 258/292/270
f 251/283/264 253/285/266 258/292/270 260/295/273
f 261/294/272 243/276/257 245/278/259 260/295/273
f 249/280/261 251/283/264 260/295/273 245/278/259
f 259/293/271 264/296/274 262/297/275 261/294/272
f 241/274/255 243/276/257 261/294/272 262/297/275
f 239/272/253 241/274/255 262/297/275 263/298/276
f 264/296/274 265/299/277 263/298/276 262/297/275
f 265/299/277 264/296/274 48/53/51 50/56/53
f 264/296/274 259/293/271 257/54/52 48/53/51
f 266/300/278 265/299/277 50/56/53 52/58/55
f 265/299/277 266/300/278 268/301/279 263/298/276
f 266/300/278 267/302/280 269/268/249 268/301/279
f 267/302/280 266/300/278 52/58/55 270/62/58
f 237/270/251 239/272/253 263/298/276 268/301/279
f 233/267/248 237/270/251 268/301/279 269/268/249
f 267/302/280 271/263/244 230/264/245 269/268/249
f 271/263/244 267/302/280 270/62/58 59/70/64
f 226/259/240 271/263/244 59/70/64 61/72/65
f 222/255/236 72/88/77 74/90/79 180/217/198
f 219/225/206 222/255/236 180/217/198 182/218/199
f 179/94/82 75/93/81 272/303/86 177/214/195
f 273/304/281 175/212/193 177/214/195 272/303/86
f 275/104/91 273/305/281 272/99/86 79/98/85
f 175/212/193 273/304/281 274/306/282 304/213/194
f 273/305/281 275/104/91 276/307/283 274/308/282
f 83/103/90 87/107/94 276/307/283 275/104/91
f 277/309/284 279/310/285 274/308/282 276/307/283
f 89/109/96 277/309/284 276/307/283 87/107/94
f 89/109/96 91/111/98 278/311/286 277/309/284
f 281/312/287 279/310/285 277/309/284 278/311/286
f 280/313/288 279/314/285 281/315/287 282/316/289
f 279/314/285 280/313/288 304/213/194 274/306/282
f 283/317/290 284/318/291 282/316/289 281/315/287
f 283/319/290 281/312/287 278/311/286 286/320/292
f 284/318/291 283/317/290 285/321/293 302/180/161
f 285/322/293 283/323/290 286/324/292 287/325/294
f 93/114/100 95/117/102 287/325/294 286/324/292
f 93/113/100 286/320/292 278/311/286 91/111/98
f 289/326/295 285/322/293 287/325/294 288/327/296
f 97/119/104 288/327/296 287/325/294 95/117/102
f 97/119/104 99/121/106 290/328/297 288/327/296
f 289/326/295 288/327/296 290/328/297 292/329/298
f 290/328/297 99/121/106 101/123/108 291/330/299
f 291/330/299 293/331/300 292/329/298 290/328/297
f 145/177/158 289/332/295 292/333/298 143/175/156
f 293/334/300 141/173/154 143/175/156 292/333/298
f 141/173/154 293/334/300 294/335/301 295/174/155
f 293/331/300 291/330/299 297/336/302 294/337/301
f 296/338/303 299/339/304 295/174/155 294/335/301
f 298/340/305 296/341/303 294/337/301 297/336/302
f 101/123/108 103/125/110 297/336/302 291/330/299
f 297/336/302 103/125/110 105/127/112 298/340/305
f 105/127/112 107/129/114 111/133/118 298/340/305
f 114/135/120 296/341/303 298/340/305 111/133/118
f 299/339/304 296/338/303 114/141/120 300/140/123
f 299/339/304 134/165/146 136/166/147 295/174/155
f 134/165/146 299/339/304 300/140/123 301/154/135
f 113/139/122 120/145/126 301/154/135 300/140/123
f 289/332/295 145/177/158 302/180/161 285/321/293
f 303/200/181 284/318/291 302/180/161 146/179/160
f 284/318/291 303/200/181 165/201/182 282/316/289
f 164/187/168 303/200/181 146/179/160 148/181/162
f 167/202/183 280/313/288 282/316/289 165/201/182
f 280/313/288 167/202/183 169/204/185 304/213/194
f 150/172/153 139/169/150 132/163/144 305/162/143
