# Blender 4.5.3 LTS
# www.blender.org
o Decal-Joystick-Right-Ring
v 19.986950 -36.657398 4.928912
v 19.986950 -36.943939 4.880658
v 21.619184 -36.942238 4.718721
v 21.628508 -36.652702 4.765915
v 19.986605 -37.236710 4.786996
v 21.600868 -37.236500 4.626511
v 23.152946 -37.233719 4.158432
v 23.188986 -36.937977 4.244959
v 23.206778 -36.652630 4.288615
v 19.986586 -37.538891 4.635989
v 21.570932 -37.539867 4.477737
v 19.986565 -37.830311 4.433715
v 21.532021 -37.830208 4.280066
v 23.018005 -37.828171 3.832503
v 23.095636 -37.535641 4.019493
v 19.986542 -38.089188 4.186538
v 21.483255 -38.089882 4.036767
v 19.986513 -38.304039 3.904386
v 21.428865 -38.303963 3.761005
v 22.815756 -38.302567 3.344007
v 22.924004 -38.086742 3.604974
v 19.986488 -38.463730 3.596005
v 21.368080 -38.464027 3.457588
v 19.986052 -38.561672 3.235249
v 21.299065 -38.561279 3.107073
v 22.561798 -38.560150 2.730171
v 22.698353 -38.462467 3.059944
v 24.633835 -36.940762 3.469990
v 24.660131 -36.652641 3.509837
v 24.581734 -37.235260 3.391995
v 25.836039 -37.233730 2.365223
v 25.902454 -36.937973 2.431368
v 25.935598 -36.652634 2.464900
v 24.497221 -37.538803 3.266119
v 24.385683 -37.829266 3.098486
v 25.586645 -37.828159 2.115737
v 25.729925 -37.535618 2.258786
v 24.247602 -38.089100 2.892506
v 24.091890 -38.303314 2.658663
v 25.212862 -38.302559 1.741829
v 25.412733 -38.086746 1.941510
v 23.919653 -38.463665 2.401620
v 23.720957 -38.561279 2.103378
v 24.743322 -38.560154 1.271898
v 24.995678 -38.462460 1.524321
v 26.940752 -36.940777 1.162472
v 26.980289 -36.652630 1.189223
v 26.862757 -37.235283 1.110346
v 27.628672 -37.233719 -0.318267
v 27.715340 -36.937969 -0.282571
v 27.758797 -36.652615 -0.264272
v 26.736515 -37.538815 1.026404
v 26.569317 -37.829247 0.914211
v 27.302784 -37.828159 -0.453316
v 27.489901 -37.535618 -0.375986
v 26.362930 -38.089104 0.776752
v 26.129570 -38.303314 0.620295
v 26.814360 -38.302540 -0.655727
v 27.075430 -38.086739 -0.547728
v 25.872084 -38.463665 0.448723
v 25.574381 -38.561279 0.249234
v 26.200729 -38.560139 -0.910196
v 26.530476 -38.462467 -0.773571
v 28.189013 -36.940754 -1.852215
v 28.235786 -36.652622 -1.842628
v 28.097015 -37.235260 -1.870523
v 28.257923 -37.233700 -3.483485
v 28.351646 -36.937958 -3.483674
v 28.398792 -36.652622 -3.483399
v 27.948257 -37.538815 -1.899770
v 27.750853 -37.829254 -1.939432
v 27.905157 -37.828152 -3.483554
v 28.107622 -37.535614 -3.483709
v 27.507568 -38.089111 -1.987448
v 27.232100 -38.303322 -2.042697
v 27.376457 -38.302563 -3.483648
v 27.658983 -38.086735 -3.483780
v 26.928555 -38.463673 -2.102671
v 26.577168 -38.561279 -2.173057
v 26.712147 -38.560150 -3.483917
v 27.069084 -38.462463 -3.483879
v 28.188587 -36.940762 -5.115111
v 28.235468 -36.652618 -5.124151
v 28.096586 -37.235252 -5.096817
v 27.627981 -37.233715 -6.648585
v 27.714506 -36.937958 -6.684627
v 27.758173 -36.652607 -6.702415
v 27.947958 -37.538803 -5.066917
v 27.750402 -37.829243 -5.028014
v 27.302048 -37.828144 -6.513651
v 27.489040 -37.535606 -6.591272
v 27.507259 -38.089100 -4.979276
v 27.231621 -38.303310 -4.924904
v 26.813553 -38.302547 -6.311408
v 27.074522 -38.086720 -6.419649
v 26.928230 -38.463673 -4.864148
v 26.576656 -38.561260 -4.794705
v 26.199724 -38.560154 -6.057442
v 26.529491 -38.462448 -6.193999
v 26.939547 -36.940754 -8.129472
v 26.979385 -36.652626 -8.155766
v 26.861534 -37.235249 -8.077365
v 25.834770 -37.233704 -9.331682
v 25.900915 -36.937958 -9.398090
v 25.934448 -36.652611 -9.431237
v 26.735666 -37.538803 -7.992858
v 26.568031 -37.829231 -7.881316
v 25.585281 -37.828144 -9.082291
v 25.728334 -37.535606 -9.225565
v 26.362059 -38.089085 -7.743245
v 26.128202 -38.303307 -7.587528
v 25.211370 -38.302547 -8.708504
v 25.411055 -38.086716 -8.908375
v 25.871159 -38.463650 -7.415297
v 25.572926 -38.561260 -7.216597
v 24.741451 -38.560135 -8.238964
v 24.993862 -38.462448 -8.491322
v 24.632017 -36.940754 -10.436391
v 24.658773 -36.652618 -10.475930
v 24.579897 -37.235260 -10.358400
v 23.151287 -37.233711 -11.124314
v 23.186977 -36.937954 -11.210979
v 23.205269 -36.652611 -11.254432
v 24.495947 -37.538792 -10.232159
v 24.383760 -37.829227 -10.064960
v 23.016232 -37.828148 -10.798427
v 23.093565 -37.535618 -10.985538
v 24.246298 -38.089096 -9.858574
v 24.089840 -38.303299 -9.625216
v 22.813820 -38.302540 -10.310005
v 22.921814 -38.086731 -10.571079
v 23.918264 -38.463654 -9.367727
v 23.718777 -38.561272 -9.070024
v 22.559351 -38.560135 -9.696372
v 22.695980 -38.462460 -10.026120
v 21.617331 -36.940746 -11.684657
v 21.626919 -36.652622 -11.731420
v 21.599024 -37.235260 -11.592657
v 19.986052 -37.233707 -11.753558
v 19.985861 -36.937946 -11.847287
v 19.986137 -36.652607 -11.894431
v 21.569775 -37.538803 -11.443900
v 21.530111 -37.829243 -11.246491
v 19.985987 -37.828144 -11.400791
v 19.985826 -37.535618 -11.603261
v 21.482096 -38.089081 -11.003213
v 21.426847 -38.303295 -10.727743
v 19.985895 -38.302540 -10.872095
v 19.985764 -38.086720 -11.154622
v 21.366873 -38.463665 -10.424200
v 21.296492 -38.561264 -10.072808
v 19.985626 -38.560146 -10.207796
v 19.985664 -38.462460 -10.564723
v 18.354427 -36.940746 -11.684231
v 18.345383 -36.652622 -11.731102
v 18.372719 -37.235256 -11.592228
v 16.820957 -37.233711 -11.123622
v 16.784914 -36.937958 -11.210147
v 16.767115 -36.652611 -11.253809
v 18.402628 -37.538803 -11.443602
v 18.441521 -37.829243 -11.246041
v 16.955894 -37.828148 -10.797688
v 16.878263 -37.535618 -10.984679
v 18.490263 -38.089081 -11.002906
v 18.544640 -38.303295 -10.727262
v 17.158138 -38.302540 -10.309198
v 17.049896 -38.086712 -10.570170
v 18.605400 -38.463665 -10.423875
v 18.674841 -38.561264 -10.072297
v 17.412106 -38.560131 -9.695360
v 17.275553 -38.462444 -10.025140
v 15.340058 -36.940754 -10.435177
v 15.313772 -36.652618 -10.475024
v 15.392178 -37.235256 -10.357178
v 14.137858 -37.233700 -9.330406
v 14.071437 -36.937943 -9.396551
v 14.038293 -36.652611 -9.430083
v 15.476681 -37.538784 -10.231310
v 15.588220 -37.829227 -10.063677
v 14.387258 -37.828144 -9.080928
v 14.243981 -37.535606 -9.223977
v 15.726295 -38.089085 -9.857701
v 15.882015 -38.303299 -9.623846
v 14.761045 -38.302540 -8.707017
v 14.561170 -38.086712 -8.906696
v 16.054256 -38.463650 -9.366803
v 16.252947 -38.561260 -9.068569
v 15.230586 -38.560135 -8.237092
v 14.978222 -38.462444 -8.489509
v 13.033146 -36.940754 -8.127656
v 12.993605 -36.652626 -8.154407
v 13.111146 -37.235249 -8.075537
v 12.345233 -37.233700 -6.646924
v 12.258562 -36.937958 -6.682612
v 12.215103 -36.652596 -6.700912
v 13.237388 -37.538799 -7.991587
v 13.404593 -37.829231 -7.879398
v 12.671113 -37.828144 -6.511871
v 12.484005 -37.535614 -6.589201
v 13.610971 -38.089081 -7.741939
v 13.844332 -38.303295 -7.585478
v 13.159538 -38.302528 -6.309460
v 12.898473 -38.086712 -6.417455
v 14.101819 -38.463650 -7.413918
v 14.399520 -38.561256 -7.214417
v 13.773172 -38.560135 -6.054995
v 13.443423 -38.462440 -6.191620
v 11.784889 -36.940762 -5.112968
v 11.738112 -36.652615 -5.122548
v 11.876890 -37.235245 -5.094661
v 11.715974 -37.233696 -3.481687
v 11.622252 -36.937943 -3.481498
v 11.575097 -36.652615 -3.481769
v 12.025647 -37.538803 -5.065413
v 12.223054 -37.829243 -5.025755
v 12.068738 -37.828129 -3.481630
v 11.866277 -37.535614 -3.481463
v 12.466334 -38.089085 -4.977739
v 12.741798 -38.303288 -4.922490
v 12.597442 -38.302540 -3.481539
v 12.314917 -38.086720 -3.481407
v 13.045347 -38.463654 -4.862520
v 13.396731 -38.561245 -4.792134
v 13.261756 -38.560135 -3.481270
v 12.904819 -38.462444 -3.481312
v 11.785306 -36.940754 -1.850072
v 11.738430 -36.652618 -1.841029
v 11.877310 -37.235252 -1.868362
v 12.345922 -37.233723 -0.316602
v 12.259395 -36.937962 -0.280560
v 12.215725 -36.652615 -0.262769
v 12.025942 -37.538799 -1.898274
v 12.223509 -37.829247 -1.937173
v 12.671850 -37.828159 -0.451536
v 12.484864 -37.535614 -0.373911
v 12.466645 -38.089096 -1.985911
v 12.742280 -38.303299 -2.040283
v 13.160346 -38.302532 -0.653780
v 12.899382 -38.086735 -0.545535
v 13.045671 -38.463650 -2.101039
v 13.397242 -38.561260 -2.170486
v 13.774185 -38.560131 -0.907754
v 13.444407 -38.462448 -0.771196
v 13.034360 -36.940773 1.164293
v 12.994511 -36.652622 1.190579
v 13.112364 -37.235268 1.112178
v 14.139134 -37.233719 2.366494
v 14.072982 -36.937969 2.432911
v 14.039449 -36.652618 2.466051
v 13.238236 -37.538799 1.027679
v 13.405873 -37.829247 0.916129
v 14.388620 -37.828159 2.117104
v 14.245569 -37.535618 2.260374
v 13.611851 -38.089100 0.778058
v 13.845702 -38.303307 0.622344
v 14.762536 -38.302540 1.743320
v 14.562848 -38.086735 1.943184
v 14.102743 -38.463646 0.450106
v 14.400976 -38.561264 0.251409
v 15.232453 -38.560135 1.273772
v 14.980039 -38.462460 1.526139
v 15.341879 -36.940762 3.471204
v 15.315127 -36.652626 3.510739
v 15.394006 -37.235260 3.393217
v 16.822618 -37.233711 4.159123
v 16.786926 -36.937969 4.245792
v 16.768618 -36.652622 4.289241
v 15.477951 -37.538803 3.266972
v 15.590145 -37.829254 3.099768
v 16.957676 -37.828159 3.833243
v 16.880339 -37.535625 4.020355
v 15.727602 -38.089096 2.893379
v 15.884065 -38.303295 2.660033
v 17.160086 -38.302563 3.344822
v 17.052088 -38.086735 3.605888
v 16.055634 -38.463665 2.402544
v 16.255127 -38.561275 2.104837
v 17.414553 -38.560150 2.731186
v 17.277927 -38.462467 3.060932
v 18.355499 -36.940777 4.719260
v 18.346186 -36.651051 4.766109
v 18.373795 -37.235233 4.627283
v 18.403227 -37.537659 4.479329
v 18.442640 -37.829212 4.281132
v 18.490826 -38.088245 4.038911
v 18.545830 -38.303284 3.762403
v 18.605946 -38.463207 3.460191
v 18.676085 -38.561260 3.107513
v 19.986950 -36.097553 4.928912
v 21.628216 -36.097622 4.765641
v 21.618460 -35.809544 4.717911
v 19.986071 -35.809654 4.880226
v 23.206707 -36.099178 4.288456
v 23.188076 -35.809681 4.243317
v 23.151905 -35.518215 4.157371
v 21.599314 -35.517090 4.626118
v 19.986050 -35.518421 4.787082
v 21.570360 -35.214935 4.477729
v 19.986023 -35.216198 4.636078
v 23.094698 -35.216213 4.017735
v 23.016747 -34.924648 3.830981
v 21.530336 -34.923798 4.279486
v 19.985987 -34.924759 4.433816
v 21.482645 -34.664978 4.036757
v 19.985945 -34.665859 4.186645
v 22.922770 -34.665859 3.602473
v 22.814219 -34.450939 3.341919
v 21.427002 -34.450367 3.760191
v 19.985897 -34.451000 3.904512
v 21.367607 -34.291157 3.458404
v 19.985847 -34.291626 3.597152
v 22.697279 -34.291630 3.057825
v 22.574339 -34.193520 2.761509
v 21.304949 -34.193539 3.145451
v 19.985632 -34.194035 3.279084
v 24.660030 -36.099182 3.509693
v 24.633368 -35.811073 3.469303
v 25.935471 -36.099194 2.464777
v 25.900984 -35.809677 2.430203
v 25.834667 -35.518227 2.364642
v 24.580675 -35.518482 3.392018
v 24.497204 -35.216110 3.266104
v 25.728382 -35.216202 2.257521
v 25.584898 -34.924667 2.114813
v 24.384449 -34.924816 3.098364
v 24.247583 -34.665825 2.892482
v 25.410635 -34.665859 1.939669
v 25.210640 -34.450939 1.740482
v 24.090443 -34.451057 2.658383
v 23.920177 -34.291622 2.402407
v 24.993874 -34.291637 1.522774
v 24.766914 -34.193516 1.296069
v 23.742920 -34.194054 2.138609
v 26.980139 -36.099182 1.189126
v 26.940052 -35.811073 1.162017
v 27.758631 -36.099186 -0.264337
v 27.713535 -35.809677 -0.283081
v 27.627182 -35.518219 -0.318275
v 26.861786 -35.518478 1.110784
v 26.736492 -35.216103 1.026397
v 27.487986 -35.216202 -0.376564
v 27.300817 -34.924644 -0.453502
v 26.568125 -34.924809 0.914577
v 26.362898 -34.665825 0.776737
v 27.072786 -34.665859 -0.548625
v 26.811792 -34.450924 -0.656115
v 26.128128 -34.451057 0.620589
v 25.872869 -34.291618 0.449261
v 26.528210 -34.291641 -0.774305
v 26.231768 -34.193523 -0.896895
v 25.608154 -34.194050 0.273383
v 28.235609 -36.099178 -1.842660
v 28.188206 -35.811085 -1.852373
v 28.398626 -36.099186 -3.483400
v 28.349785 -35.809669 -3.483458
v 28.256540 -35.518211 -3.482929
v 28.096283 -35.518475 -1.869758
v 27.948231 -35.216110 -1.899770
v 28.105633 -35.216190 -3.483515
v 27.903275 -34.924633 -3.482969
v 27.749895 -34.924809 -1.938646
v 27.507534 -34.665821 -1.987446
v 27.656197 -34.665863 -3.483591
v 27.373932 -34.450939 -3.483019
v 27.230883 -34.451061 -2.041871
v 26.929489 -34.291611 -2.102475
v 27.066706 -34.291630 -3.483685
v 26.745911 -34.193523 -3.483505
v 26.617601 -34.194054 -2.163667
v 28.235291 -36.099167 -5.124117
v 28.187777 -35.811066 -5.114945
v 27.758007 -36.099167 -6.702342
v 27.712868 -35.809677 -6.683706
v 27.626915 -35.518219 -6.647535
v 28.096201 -35.518463 -5.095831
v 27.947929 -35.216103 -5.066907
v 27.487274 -35.216202 -6.590332
v 27.300526 -34.924648 -6.512384
v 27.749813 -34.924812 -5.026917
v 27.507229 -34.665817 -4.979269
v 27.072018 -34.665855 -6.418406
v 26.811460 -34.450912 -6.309861
v 27.230810 -34.451054 -4.923670
v 26.929167 -34.291607 -4.864321
v 26.527365 -34.291637 -6.192905
v 26.231070 -34.193516 -6.069978
v 26.617601 -34.194050 -4.801508
v 26.979237 -36.099167 -8.155661
v 26.938845 -35.811073 -8.128999
v 25.934320 -36.099174 -9.431104
v 25.899750 -35.809677 -9.396620
v 25.834183 -35.518211 -9.330307
v 26.861557 -35.518471 -8.076303
v 26.735643 -35.216103 -7.992839
v 25.727066 -35.216187 -9.224018
v 25.584358 -34.924648 -9.080541
v 26.567909 -34.924805 -7.880077
v 26.362024 -34.665821 -7.743226
v 25.409214 -34.665855 -8.906277
v 25.210028 -34.450920 -8.706278
v 26.127914 -34.451054 -7.586081
v 25.871946 -34.291615 -7.415812
v 24.992313 -34.291630 -8.489509
v 24.765604 -34.193523 -8.262543
v 25.608149 -34.194054 -7.238554
v 24.658674 -36.099174 -10.475780
v 24.631557 -35.811069 -10.435696
v 23.205202 -36.099167 -11.254267
v 23.186462 -35.809662 -11.209171
v 23.151270 -35.518204 -11.122820
v 24.580326 -35.518459 -10.357423
v 24.495932 -35.216087 -10.232137
v 23.092983 -35.216202 -10.983624
v 23.016045 -34.924644 -10.796456
v 24.384119 -34.924809 -10.063764
v 24.246279 -34.665817 -9.858541
v 22.920916 -34.665859 -10.568429
v 22.813427 -34.450924 -10.307430
v 24.090130 -34.451038 -9.623768
v 23.918800 -34.291615 -9.368510
v 22.695242 -34.291618 -10.023850
v 22.572643 -34.193516 -9.727405
v 23.742918 -34.194035 -9.103794
v 21.626884 -36.099167 -11.731244
v 21.617170 -35.811066 -11.683835
v 19.986135 -36.099167 -11.894252
v 19.986078 -35.809662 -11.845419
v 19.986607 -35.518211 -11.752167
v 21.599789 -35.518452 -11.591921
v 21.569767 -35.216091 -11.443866
v 19.986021 -35.216190 -11.601269
v 19.986567 -34.924629 -11.398904
v 21.530897 -34.924809 -11.245528
v 21.482090 -34.665817 -11.003179
v 19.985945 -34.665859 -11.151833
v 19.986517 -34.450909 -10.869569
v 21.427671 -34.451038 -10.726525
v 21.367069 -34.291611 -10.425127
v 19.985847 -34.291615 -10.562343
v 19.986031 -34.193501 -10.241549
v 21.305874 -34.194035 -10.113251
v 18.345421 -36.099167 -11.730927
v 18.354593 -35.811066 -11.683411
v 16.767183 -36.099182 -11.253640
v 16.785828 -35.809662 -11.208504
v 16.821999 -35.518204 -11.122557
v 18.373705 -35.518459 -11.591840
v 18.402634 -35.216091 -11.443568
v 16.879204 -35.216202 -10.982913
v 16.957153 -34.924644 -10.796164
v 18.442614 -34.924809 -11.245452
v 18.490271 -34.665813 -11.002872
v 17.051126 -34.665859 -10.567660
v 17.159676 -34.450920 -10.307099
v 18.545866 -34.451038 -10.726443
v 18.605211 -34.291611 -10.424805
v 17.276630 -34.291615 -10.023007
v 17.399561 -34.193501 -9.726703
v 18.668032 -34.194035 -10.113250
v 15.313873 -36.099174 -10.474876
v 15.340525 -35.811069 -10.434486
v 14.038420 -36.099174 -9.429953
v 14.072907 -35.809662 -9.395387
v 14.139227 -35.518208 -9.329822
v 15.393236 -35.518459 -10.357193
v 15.476696 -35.216087 -10.231287
v 14.245524 -35.216183 -9.222701
v 14.389004 -34.924644 -9.079996
v 15.589459 -34.924809 -10.063547
v 15.726315 -34.665813 -9.857670
v 14.563266 -34.665855 -8.904857
v 14.763268 -34.450912 -8.705666
v 15.883458 -34.451031 -9.623559
v 16.053726 -34.291595 -9.367590
v 14.980035 -34.291618 -8.487949
v 15.206998 -34.193501 -8.261244
v 16.230984 -34.194027 -9.103792
v 12.993755 -36.099159 -8.154309
v 13.033841 -35.811069 -8.127196
v 12.215268 -36.099167 -6.700843
v 12.260366 -35.809673 -6.682095
v 12.346724 -35.518204 -6.646901
v 13.112115 -35.518459 -8.075959
v 13.237411 -35.216091 -7.991569
v 12.485916 -35.216183 -6.588616
v 12.673079 -34.924648 -6.511677
v 13.405780 -34.924805 -7.879753
v 13.611004 -34.665806 -7.741917
v 12.901115 -34.665855 -6.416554
v 13.162106 -34.450912 -6.309061
v 13.845777 -34.451031 -7.585768
v 14.101033 -34.291607 -7.414435
v 13.445690 -34.291626 -6.190871
v 13.742126 -34.193501 -6.068281
v 14.365747 -34.194050 -7.238555
v 11.738288 -36.099167 -5.122515
v 11.785698 -35.811066 -5.112810
v 11.575276 -36.099186 -3.481768
v 11.624116 -35.809669 -3.481721
v 11.717357 -35.518211 -3.482250
v 11.877613 -35.518463 -5.095426
v 12.025670 -35.216103 -5.065409
v 11.868265 -35.216187 -3.481665
v 12.070626 -34.924633 -3.482203
v 12.224010 -34.924793 -5.026537
v 12.466366 -34.665813 -4.977729
v 12.317702 -34.665863 -3.481581
v 12.599962 -34.450920 -3.482153
v 12.743013 -34.451038 -4.923305
v 13.044414 -34.291595 -4.862704
v 12.907193 -34.291618 -3.481483
v 13.227990 -34.193523 -3.481667
v 13.356293 -34.194050 -4.801504
v 11.738605 -36.099178 -1.841070
v 11.786122 -35.811077 -1.850238
v 12.215891 -36.099186 -0.262841
v 12.261034 -35.809673 -0.281465
v 12.346982 -35.518219 -0.317640
v 11.877694 -35.518463 -1.869353
v 12.025968 -35.216103 -1.898272
v 12.486627 -35.216190 -0.374847
v 12.673372 -34.924633 -0.452795
v 12.224085 -34.924793 -1.938263
v 12.466672 -34.665813 -1.985911
v 12.901885 -34.665859 -0.546765
v 13.162437 -34.450920 -0.655314
v 12.743088 -34.451042 -2.041506
v 13.044737 -34.291607 -2.100851
v 13.446529 -34.291634 -0.772263
v 13.742827 -34.193516 -0.895198
v 13.356293 -34.194054 -2.163667
v 12.994658 -36.099182 1.190481
v 13.035050 -35.811073 1.163827
v 14.039576 -36.099194 2.465928
v 14.074146 -35.809677 2.431441
v 14.139719 -35.518219 2.365128
v 13.112340 -35.518467 1.111127
v 13.238259 -35.216103 1.027663
v 14.246838 -35.216202 2.258839
v 14.389544 -34.924667 2.115358
v 13.405996 -34.924805 0.914898
v 13.611873 -34.665821 0.778038
v 14.564689 -34.665859 1.941090
v 14.763881 -34.450939 1.741095
v 13.845981 -34.451057 0.620902
v 14.101952 -34.291615 0.450638
v 14.981586 -34.291637 1.524334
v 15.208293 -34.193516 1.297372
v 14.365745 -34.194035 0.273383
v 15.315225 -36.099182 3.510592
v 15.342339 -35.811073 3.470509
v 16.768688 -36.099190 4.289080
v 16.787437 -35.809689 4.243989
v 16.822636 -35.518223 4.157637
v 15.393579 -35.518475 3.392248
v 15.477966 -35.216103 3.266953
v 16.880920 -35.216209 4.018448
v 16.957861 -34.924652 3.831276
v 15.589784 -34.924812 3.098584
v 15.727620 -34.665825 2.893354
v 17.052984 -34.665863 3.603245
v 17.160479 -34.450939 3.342255
v 15.883771 -34.451057 2.658592
v 16.055099 -34.291622 2.403331
v 17.278669 -34.291630 3.058675
v 17.401258 -34.193520 2.762225
v 16.230986 -34.194054 2.138611
v 18.346197 -36.100811 4.766015
v 18.355656 -35.811115 4.718462
v 18.373800 -35.519661 4.627252
v 18.403227 -35.217289 4.479315
v 18.442642 -34.925728 4.281119
v 18.490829 -34.666706 4.038897
v 18.545832 -34.451672 3.762389
v 18.605749 -34.292107 3.461154
v 18.668030 -34.194057 3.148082
v 26.992640 -36.377411 1.198464
v 25.945539 -36.377430 2.476740
v 27.772905 -36.377430 -0.258107
v 28.250824 -36.377422 -1.839327
v 28.414196 -36.377419 -3.483102
v 28.250622 -36.377415 -5.126866
v 27.772511 -36.377422 -6.708035
v 26.992355 -36.377403 -8.164069
v 25.945549 -36.377399 -9.441915
v 24.667572 -36.377411 -10.488555
v 23.211443 -36.377419 -11.268542
v 21.630209 -36.377403 -11.746457
v 19.986433 -36.377415 -11.909828
v 18.342674 -36.377403 -11.746256
v 16.761501 -36.377419 -11.268147
v 15.305468 -36.377415 -10.487980
v 14.027626 -36.377399 -9.441184
v 12.980970 -36.377403 -8.163209
v 12.200992 -36.377419 -6.707068
v 11.723069 -36.377415 -5.125845
v 11.559704 -36.377403 -3.482065
v 11.723277 -36.377415 -1.838320
v 12.201387 -36.377430 -0.257157
v 12.981544 -36.377419 1.198886
v 14.028356 -36.377430 2.476731
v 15.306322 -36.377430 3.523379
v 16.762453 -36.377430 4.303353
v 18.343706 -36.377445 4.781270
v 19.987473 -36.377449 4.944641
v 21.631220 -36.377415 4.781065
v 23.212395 -36.377422 4.302960
v 24.668001 -36.377445 3.523097
vn -0.0000 -0.1103 0.9939
vn -0.0000 -0.2342 0.9722
vn 0.1898 -0.2337 0.9536
vn 0.1940 -0.1098 0.9748
vn -0.0000 -0.3751 0.9270
vn 0.1810 -0.3749 0.9093
vn 0.3550 -0.3741 0.8568
vn 0.3723 -0.2327 0.8985
vn 0.3805 -0.1094 0.9183
vn -0.0000 -0.5079 0.8614
vn 0.1680 -0.5078 0.8449
vn -0.0000 -0.6299 0.7767
vn 0.1516 -0.6297 0.7619
vn 0.2975 -0.6293 0.7180
vn 0.3299 -0.5072 0.7962
vn -0.0000 -0.7429 0.6694
vn 0.1306 -0.7428 0.6566
vn -0.0000 -0.8424 0.5388
vn 0.1052 -0.8424 0.5286
vn 0.2065 -0.8420 0.4984
vn 0.2565 -0.7423 0.6190
vn -0.0000 -0.9294 0.3690
vn 0.0720 -0.9294 0.3619
vn -0.0001 -0.9650 0.2624
vn 0.0513 -0.9648 0.2578
vn 0.1008 -0.9647 0.2433
vn 0.1416 -0.9290 0.3418
vn 0.5404 -0.2327 0.8086
vn 0.5524 -0.1094 0.8264
vn 0.5154 -0.3740 0.7710
vn 0.6559 -0.3740 0.6557
vn 0.6878 -0.2326 0.6876
vn 0.7030 -0.1094 0.7027
vn 0.4788 -0.5073 0.7165
vn 0.4319 -0.6293 0.6461
vn 0.5496 -0.6292 0.5495
vn 0.6095 -0.5071 0.6093
vn 0.3722 -0.7424 0.5570
vn 0.2998 -0.8420 0.4485
vn 0.3816 -0.8419 0.3815
vn 0.4739 -0.7423 0.4738
vn 0.2054 -0.9292 0.3074
vn 0.1464 -0.9647 0.2190
vn 0.1863 -0.9647 0.1862
vn 0.2617 -0.9290 0.2616
vn 0.8087 -0.2327 0.5402
vn 0.8266 -0.1093 0.5521
vn 0.7712 -0.3740 0.5151
vn 0.8569 -0.3739 0.3548
vn 0.8986 -0.2326 0.3720
vn 0.9184 -0.1093 0.3803
vn 0.7166 -0.5073 0.4787
vn 0.6463 -0.6292 0.4317
vn 0.7181 -0.6292 0.2974
vn 0.7963 -0.5071 0.3297
vn 0.5571 -0.7424 0.3722
vn 0.4487 -0.8420 0.2996
vn 0.4986 -0.8419 0.2064
vn 0.6191 -0.7423 0.2563
vn 0.3074 -0.9292 0.2054
vn 0.2191 -0.9647 0.1463
vn 0.2433 -0.9647 0.1007
vn 0.3419 -0.9290 0.1415
vn 0.9539 -0.2327 0.1896
vn 0.9749 -0.1093 0.1938
vn 0.9096 -0.3740 0.1808
vn 0.9275 -0.3739 -0.0001
vn 0.9726 -0.2325 -0.0002
vn 0.9940 -0.1094 -0.0001
vn 0.8452 -0.5073 0.1681
vn 0.7623 -0.6292 0.1515
vn 0.7772 -0.6292 -0.0001
vn 0.8619 -0.5071 -0.0001
vn 0.6571 -0.7424 0.1307
vn 0.5292 -0.8420 0.1051
vn 0.5396 -0.8419 -0.0001
vn 0.6701 -0.7422 -0.0001
vn 0.3626 -0.9292 0.0721
vn 0.2583 -0.9647 0.0513
vn 0.2633 -0.9647 -0.0000
vn 0.3700 -0.9290 -0.0001
vn 0.9538 -0.2327 -0.1899
vn 0.9749 -0.1093 -0.1940
vn 0.9096 -0.3740 -0.1811
vn 0.8568 -0.3740 -0.3550
vn 0.8985 -0.2326 -0.3723
vn 0.9183 -0.1094 -0.3805
vn 0.8452 -0.5073 -0.1682
vn 0.7622 -0.6292 -0.1518
vn 0.7180 -0.6292 -0.2975
vn 0.7962 -0.5071 -0.3300
vn 0.6571 -0.7424 -0.1308
vn 0.5291 -0.8420 -0.1054
vn 0.4985 -0.8419 -0.2066
vn 0.6191 -0.7422 -0.2566
vn 0.3626 -0.9292 -0.0722
vn 0.2583 -0.9647 -0.0515
vn 0.2433 -0.9647 -0.1008
vn 0.3419 -0.9290 -0.1417
vn 0.8086 -0.2327 -0.5404
vn 0.8264 -0.1093 -0.5523
vn 0.7710 -0.3740 -0.5154
vn 0.6557 -0.3740 -0.6559
vn 0.6876 -0.2326 -0.6878
vn 0.7028 -0.1093 -0.7029
vn 0.7165 -0.5073 -0.4788
vn 0.6461 -0.6293 -0.4319
vn 0.5495 -0.6292 -0.5496
vn 0.6093 -0.5071 -0.6095
vn 0.5570 -0.7424 -0.3723
vn 0.4485 -0.8420 -0.2999
vn 0.3815 -0.8419 -0.3816
vn 0.4738 -0.7422 -0.4739
vn 0.3074 -0.9292 -0.2054
vn 0.2190 -0.9647 -0.1464
vn 0.1862 -0.9647 -0.1863
vn 0.2616 -0.9290 -0.2617
vn 0.5402 -0.2327 -0.8087
vn 0.5522 -0.1093 -0.8265
vn 0.5151 -0.3740 -0.7712
vn 0.3549 -0.3739 -0.8569
vn 0.3720 -0.2325 -0.8986
vn 0.3803 -0.1093 -0.9184
vn 0.4787 -0.5073 -0.7166
vn 0.4317 -0.6292 -0.6463
vn 0.2974 -0.6292 -0.7181
vn 0.3297 -0.5071 -0.7963
vn 0.3722 -0.7424 -0.5571
vn 0.2996 -0.8420 -0.4487
vn 0.2064 -0.8419 -0.4986
vn 0.2563 -0.7423 -0.6191
vn 0.2054 -0.9292 -0.3074
vn 0.1463 -0.9647 -0.2191
vn 0.1007 -0.9647 -0.2433
vn 0.1416 -0.9290 -0.3419
vn 0.1896 -0.2327 -0.9539
vn 0.1938 -0.1093 -0.9749
vn 0.1808 -0.3740 -0.9096
vn -0.0001 -0.3739 -0.9275
vn -0.0002 -0.2325 -0.9726
vn -0.0001 -0.1093 -0.9940
vn 0.1681 -0.5073 -0.8452
vn 0.1515 -0.6293 -0.7623
vn -0.0001 -0.6292 -0.7772
vn -0.0001 -0.5071 -0.8619
vn 0.1307 -0.7424 -0.6571
vn 0.1051 -0.8420 -0.5292
vn -0.0001 -0.8419 -0.5396
vn -0.0001 -0.7423 -0.6701
vn 0.0721 -0.9292 -0.3626
vn 0.0513 -0.9647 -0.2583
vn -0.0000 -0.9647 -0.2634
vn -0.0001 -0.9290 -0.3701
vn -0.1899 -0.2327 -0.9538
vn -0.1940 -0.1093 -0.9749
vn -0.1811 -0.3740 -0.9096
vn -0.3723 -0.2325 -0.8985
vn -0.3550 -0.3739 -0.8568
vn -0.3805 -0.1093 -0.9183
vn -0.1682 -0.5073 -0.8452
vn -0.1518 -0.6293 -0.7622
vn -0.3300 -0.5071 -0.7962
vn -0.2975 -0.6292 -0.7180
vn -0.1307 -0.7424 -0.6571
vn -0.1054 -0.8420 -0.5292
vn -0.2066 -0.8419 -0.4985
vn -0.2565 -0.7423 -0.6191
vn -0.0722 -0.9292 -0.3626
vn -0.0515 -0.9647 -0.2583
vn -0.1008 -0.9647 -0.2433
vn -0.1417 -0.9290 -0.3419
vn -0.5404 -0.2327 -0.8086
vn -0.5523 -0.1093 -0.8264
vn -0.5154 -0.3740 -0.7710
vn -0.6559 -0.3740 -0.6557
vn -0.6878 -0.2326 -0.6876
vn -0.7029 -0.1093 -0.7028
vn -0.4788 -0.5073 -0.7165
vn -0.4319 -0.6293 -0.6461
vn -0.5496 -0.6292 -0.5495
vn -0.6095 -0.5071 -0.6093
vn -0.3722 -0.7424 -0.5570
vn -0.2998 -0.8420 -0.4485
vn -0.3816 -0.8419 -0.3815
vn -0.4739 -0.7423 -0.4738
vn -0.2054 -0.9292 -0.3074
vn -0.1464 -0.9647 -0.2190
vn -0.1863 -0.9647 -0.1862
vn -0.2617 -0.9290 -0.2616
vn -0.8087 -0.2327 -0.5402
vn -0.8265 -0.1093 -0.5522
vn -0.7712 -0.3740 -0.5151
vn -0.8569 -0.3740 -0.3548
vn -0.8986 -0.2326 -0.3720
vn -0.9184 -0.1094 -0.3803
vn -0.7166 -0.5073 -0.4787
vn -0.6463 -0.6293 -0.4317
vn -0.7181 -0.6292 -0.2974
vn -0.7963 -0.5071 -0.3297
vn -0.5571 -0.7424 -0.3722
vn -0.4487 -0.8420 -0.2996
vn -0.4986 -0.8419 -0.2064
vn -0.6191 -0.7423 -0.2563
vn -0.3074 -0.9292 -0.2054
vn -0.2191 -0.9647 -0.1463
vn -0.2433 -0.9647 -0.1007
vn -0.3419 -0.9290 -0.1416
vn -0.9539 -0.2327 -0.1896
vn -0.9749 -0.1093 -0.1938
vn -0.9096 -0.3740 -0.1808
vn -0.9275 -0.3739 0.0001
vn -0.9726 -0.2326 0.0002
vn -0.9940 -0.1094 0.0001
vn -0.8452 -0.5073 -0.1681
vn -0.7623 -0.6293 -0.1515
vn -0.7772 -0.6292 0.0001
vn -0.8619 -0.5071 0.0001
vn -0.6571 -0.7424 -0.1307
vn -0.5292 -0.8420 -0.1051
vn -0.5396 -0.8419 0.0001
vn -0.6701 -0.7423 0.0001
vn -0.3626 -0.9292 -0.0721
vn -0.2583 -0.9647 -0.0513
vn -0.2634 -0.9647 -0.0000
vn -0.3700 -0.9290 0.0001
vn -0.9538 -0.2327 0.1899
vn -0.9749 -0.1093 0.1940
vn -0.9096 -0.3740 0.1811
vn -0.8568 -0.3740 0.3550
vn -0.8985 -0.2326 0.3723
vn -0.9183 -0.1093 0.3805
vn -0.8452 -0.5073 0.1682
vn -0.7622 -0.6293 0.1518
vn -0.7180 -0.6292 0.2975
vn -0.7962 -0.5071 0.3300
vn -0.6571 -0.7424 0.1307
vn -0.5291 -0.8420 0.1054
vn -0.4985 -0.8419 0.2066
vn -0.6191 -0.7423 0.2565
vn -0.3626 -0.9292 0.0722
vn -0.2583 -0.9647 0.0515
vn -0.2433 -0.9647 0.1008
vn -0.3419 -0.9290 0.1417
vn -0.8086 -0.2327 0.5404
vn -0.8264 -0.1093 0.5523
vn -0.7710 -0.3740 0.5154
vn -0.6557 -0.3740 0.6559
vn -0.6876 -0.2326 0.6878
vn -0.7028 -0.1093 0.7029
vn -0.7165 -0.5073 0.4788
vn -0.6461 -0.6292 0.4319
vn -0.5495 -0.6292 0.5496
vn -0.6093 -0.5071 0.6095
vn -0.5570 -0.7424 0.3722
vn -0.4485 -0.8420 0.2998
vn -0.3815 -0.8419 0.3816
vn -0.4738 -0.7423 0.4739
vn -0.3074 -0.9292 0.2054
vn -0.2190 -0.9647 0.1464
vn -0.1862 -0.9647 0.1863
vn -0.2616 -0.9290 0.2617
vn -0.5402 -0.2327 0.8087
vn -0.5522 -0.1093 0.8265
vn -0.5151 -0.3740 0.7712
vn -0.3549 -0.3739 0.8569
vn -0.3721 -0.2324 0.8986
vn -0.3803 -0.1092 0.9184
vn -0.4787 -0.5073 0.7166
vn -0.4317 -0.6293 0.6463
vn -0.2974 -0.6292 0.7181
vn -0.3298 -0.5071 0.7963
vn -0.3722 -0.7424 0.5571
vn -0.2997 -0.8420 0.4487
vn -0.2065 -0.8419 0.4986
vn -0.2564 -0.7422 0.6192
vn -0.2054 -0.9292 0.3074
vn -0.1463 -0.9647 0.2190
vn -0.1416 -0.9290 0.3420
vn -0.1008 -0.9647 0.2434
vn -0.1897 -0.2331 0.9538
vn -0.1939 -0.1095 0.9749
vn -0.1809 -0.3743 0.9095
vn -0.1681 -0.5074 0.8452
vn -0.1516 -0.6294 0.7622
vn -0.1307 -0.7425 0.6570
vn -0.1052 -0.8421 0.5290
vn -0.0721 -0.9292 0.3625
vn -0.0513 -0.9648 0.2580
vn -0.0000 0.1110 0.9938
vn 0.1940 0.1112 0.9747
vn 0.1897 0.2354 0.9532
vn -0.0001 0.2351 0.9720
vn 0.3804 0.1109 0.9181
vn 0.3721 0.2352 0.8979
vn 0.3546 0.3754 0.8563
vn 0.1807 0.3756 0.9090
vn -0.0000 0.3752 0.9269
vn 0.1681 0.5082 0.8447
vn -0.0000 0.5079 0.8614
vn 0.3297 0.5080 0.7957
vn 0.2971 0.6300 0.7175
vn 0.1514 0.6301 0.7616
vn -0.0000 0.6299 0.7767
vn 0.1306 0.7431 0.6563
vn -0.0000 0.7429 0.6694
vn 0.2562 0.7430 0.6183
vn 0.2061 0.8424 0.4978
vn 0.1050 0.8426 0.5283
vn -0.0000 0.8423 0.5389
vn 0.0747 0.9239 0.3753
vn -0.0000 0.9237 0.3831
vn 0.1466 0.9238 0.3537
vn 0.1120 0.9562 0.2704
vn 0.0571 0.9562 0.2871
vn -0.0000 0.9561 0.2932
vn 0.5523 0.1108 0.8263
vn 0.5402 0.2348 0.8081
vn 0.7029 0.1107 0.7026
vn 0.6874 0.2349 0.6872
vn 0.6554 0.3753 0.6555
vn 0.5149 0.3752 0.7708
vn 0.4787 0.5079 0.7162
vn 0.6092 0.5079 0.6090
vn 0.5492 0.6299 0.5492
vn 0.4315 0.6299 0.6458
vn 0.3720 0.7429 0.5565
vn 0.4734 0.7429 0.4732
vn 0.3811 0.8424 0.3811
vn 0.2994 0.8424 0.4481
vn 0.2129 0.9237 0.3184
vn 0.2709 0.9237 0.2708
vn 0.2072 0.9561 0.2071
vn 0.1628 0.9561 0.2436
vn 0.8264 0.1107 0.5520
vn 0.8083 0.2348 0.5399
vn 0.9182 0.1107 0.3802
vn 0.8981 0.2349 0.3718
vn 0.8564 0.3753 0.3547
vn 0.7707 0.3752 0.5150
vn 0.7163 0.5079 0.4785
vn 0.7959 0.5079 0.3295
vn 0.7176 0.6299 0.2972
vn 0.6458 0.6299 0.4315
vn 0.5566 0.7429 0.3718
vn 0.6185 0.7429 0.2560
vn 0.4979 0.8424 0.2062
vn 0.4481 0.8424 0.2994
vn 0.3185 0.9237 0.2127
vn 0.3539 0.9237 0.1465
vn 0.2707 0.9561 0.1121
vn 0.2436 0.9561 0.1628
vn 0.9748 0.1107 0.1938
vn 0.9534 0.2348 0.1894
vn 0.9939 0.1107 -0.0001
vn 0.9720 0.2349 -0.0001
vn 0.9269 0.3753 -0.0000
vn 0.9091 0.3752 0.1809
vn 0.8449 0.5079 0.1679
vn 0.8614 0.5079 -0.0001
vn 0.7767 0.6299 -0.0000
vn 0.7618 0.6299 0.1516
vn 0.6565 0.7429 0.1305
vn 0.6694 0.7429 -0.0001
vn 0.5389 0.8424 -0.0000
vn 0.5286 0.8424 0.1052
vn 0.3757 0.9237 0.0746
vn 0.3830 0.9237 -0.0001
vn 0.2929 0.9561 -0.0000
vn 0.2873 0.9561 0.0572
vn 0.9747 0.1107 -0.1940
vn 0.9533 0.2348 -0.1898
vn 0.9182 0.1107 -0.3804
vn 0.8980 0.2349 -0.3721
vn 0.8564 0.3753 -0.3547
vn 0.9091 0.3752 -0.1808
vn 0.8448 0.5079 -0.1682
vn 0.7958 0.5079 -0.3298
vn 0.7176 0.6299 -0.2972
vn 0.7618 0.6299 -0.1515
vn 0.6565 0.7429 -0.1307
vn 0.6184 0.7429 -0.2563
vn 0.4979 0.8424 -0.2062
vn 0.5286 0.8424 -0.1051
vn 0.3756 0.9237 -0.0748
vn 0.3539 0.9237 -0.1466
vn 0.2706 0.9561 -0.1121
vn 0.2873 0.9561 -0.0571
vn 0.8263 0.1107 -0.5522
vn 0.8081 0.2348 -0.5402
vn 0.7027 0.1107 -0.7028
vn 0.6872 0.2349 -0.6874
vn 0.6555 0.3752 -0.6554
vn 0.7708 0.3752 -0.5149
vn 0.7162 0.5079 -0.4787
vn 0.6090 0.5079 -0.6092
vn 0.5492 0.6299 -0.5492
vn 0.6458 0.6298 -0.4315
vn 0.5565 0.7429 -0.3720
vn 0.4732 0.7429 -0.4734
vn 0.3811 0.8424 -0.3811
vn 0.4481 0.8424 -0.2994
vn 0.3184 0.9238 -0.2128
vn 0.2708 0.9237 -0.2709
vn 0.2071 0.9561 -0.2072
vn 0.2436 0.9561 -0.1628
vn 0.5521 0.1107 -0.8264
vn 0.5399 0.2348 -0.8083
vn 0.3802 0.1107 -0.9182
vn 0.3718 0.2349 -0.8981
vn 0.3548 0.3753 -0.8563
vn 0.5150 0.3752 -0.7707
vn 0.4785 0.5079 -0.7163
vn 0.3295 0.5079 -0.7959
vn 0.2972 0.6299 -0.7176
vn 0.4315 0.6299 -0.6458
vn 0.3718 0.7429 -0.5567
vn 0.2560 0.7429 -0.6185
vn 0.2062 0.8424 -0.4979
vn 0.2994 0.8424 -0.4481
vn 0.2127 0.9237 -0.3185
vn 0.1465 0.9237 -0.3539
vn 0.1121 0.9561 -0.2707
vn 0.1628 0.9561 -0.2436
vn 0.1938 0.1107 -0.9748
vn 0.1894 0.2348 -0.9534
vn -0.0001 0.1107 -0.9939
vn -0.0001 0.2349 -0.9720
vn -0.0000 0.3753 -0.9269
vn 0.1809 0.3752 -0.9091
vn 0.1679 0.5079 -0.8449
vn -0.0001 0.5079 -0.8614
vn 0.1516 0.6299 -0.7618
vn -0.0000 0.6299 -0.7767
vn 0.1305 0.7429 -0.6566
vn -0.0001 0.7429 -0.6694
vn -0.0000 0.8424 -0.5389
vn 0.1052 0.8423 -0.5286
vn 0.0746 0.9237 -0.3757
vn -0.0001 0.9237 -0.3830
vn -0.0000 0.9561 -0.2930
vn 0.0572 0.9561 -0.2874
vn -0.1940 0.1107 -0.9747
vn -0.1898 0.2348 -0.9533
vn -0.3804 0.1107 -0.9182
vn -0.3721 0.2349 -0.8980
vn -0.3547 0.3753 -0.8564
vn -0.1808 0.3752 -0.9091
vn -0.1682 0.5079 -0.8448
vn -0.3298 0.5079 -0.7958
vn -0.2972 0.6299 -0.7176
vn -0.1515 0.6298 -0.7618
vn -0.1307 0.7429 -0.6565
vn -0.2563 0.7429 -0.6184
vn -0.2062 0.8424 -0.4979
vn -0.1051 0.8423 -0.5286
vn -0.0748 0.9237 -0.3756
vn -0.1467 0.9237 -0.3539
vn -0.1121 0.9561 -0.2706
vn -0.0571 0.9561 -0.2874
vn -0.5522 0.1107 -0.8263
vn -0.5402 0.2348 -0.8081
vn -0.7028 0.1107 -0.7027
vn -0.6874 0.2349 -0.6872
vn -0.6554 0.3753 -0.6555
vn -0.5149 0.3752 -0.7708
vn -0.4787 0.5079 -0.7162
vn -0.6092 0.5079 -0.6090
vn -0.5492 0.6299 -0.5492
vn -0.4315 0.6299 -0.6458
vn -0.3720 0.7429 -0.5565
vn -0.4734 0.7429 -0.4732
vn -0.3811 0.8424 -0.3811
vn -0.2994 0.8423 -0.4481
vn -0.2129 0.9237 -0.3184
vn -0.2709 0.9237 -0.2708
vn -0.2072 0.9561 -0.2071
vn -0.1628 0.9561 -0.2436
vn -0.8264 0.1107 -0.5521
vn -0.8083 0.2349 -0.5399
vn -0.9182 0.1107 -0.3802
vn -0.8981 0.2349 -0.3718
vn -0.8564 0.3753 -0.3548
vn -0.7707 0.3752 -0.5150
vn -0.7163 0.5079 -0.4785
vn -0.7959 0.5079 -0.3295
vn -0.7176 0.6299 -0.2972
vn -0.6458 0.6299 -0.4315
vn -0.5567 0.7429 -0.3718
vn -0.6185 0.7429 -0.2561
vn -0.4979 0.8424 -0.2062
vn -0.4481 0.8424 -0.2994
vn -0.3185 0.9238 -0.2127
vn -0.3539 0.9237 -0.1465
vn -0.2707 0.9561 -0.1121
vn -0.2436 0.9561 -0.1628
vn -0.9748 0.1107 -0.1938
vn -0.9534 0.2348 -0.1894
vn -0.9938 0.1107 0.0001
vn -0.9720 0.2349 0.0001
vn -0.9269 0.3753 -0.0000
vn -0.9091 0.3752 -0.1809
vn -0.8449 0.5079 -0.1679
vn -0.8614 0.5079 0.0001
vn -0.7767 0.6299 -0.0000
vn -0.7618 0.6299 -0.1516
vn -0.6566 0.7429 -0.1305
vn -0.6694 0.7429 0.0001
vn -0.5389 0.8424 -0.0000
vn -0.5286 0.8423 -0.1052
vn -0.3756 0.9238 -0.0746
vn -0.3830 0.9237 0.0001
vn -0.2929 0.9561 -0.0000
vn -0.2873 0.9561 -0.0572
vn -0.9747 0.1107 0.1940
vn -0.9533 0.2348 0.1898
vn -0.9182 0.1107 0.3804
vn -0.8980 0.2349 0.3721
vn -0.8564 0.3753 0.3547
vn -0.9091 0.3752 0.1808
vn -0.8448 0.5079 0.1682
vn -0.7958 0.5079 0.3298
vn -0.7176 0.6299 0.2972
vn -0.7618 0.6299 0.1515
vn -0.6565 0.7429 0.1307
vn -0.6184 0.7429 0.2563
vn -0.4979 0.8424 0.2062
vn -0.5286 0.8424 0.1051
vn -0.3756 0.9238 0.0748
vn -0.3539 0.9237 0.1467
vn -0.2707 0.9561 0.1121
vn -0.2873 0.9561 0.0571
vn -0.8263 0.1107 0.5522
vn -0.8081 0.2348 0.5402
vn -0.7027 0.1107 0.7028
vn -0.6872 0.2349 0.6874
vn -0.6555 0.3753 0.6554
vn -0.7708 0.3752 0.5149
vn -0.7162 0.5079 0.4787
vn -0.6090 0.5079 0.6092
vn -0.5492 0.6299 0.5492
vn -0.6458 0.6299 0.4315
vn -0.5565 0.7429 0.3720
vn -0.4732 0.7429 0.4734
vn -0.3811 0.8424 0.3811
vn -0.4481 0.8424 0.2994
vn -0.3184 0.9237 0.2129
vn -0.2708 0.9237 0.2709
vn -0.2071 0.9561 0.2072
vn -0.2436 0.9561 0.1628
vn -0.5521 0.1107 0.8264
vn -0.5399 0.2348 0.8083
vn -0.3802 0.1106 0.9183
vn -0.3719 0.2348 0.8981
vn -0.3548 0.3751 0.8564
vn -0.5150 0.3752 0.7707
vn -0.4785 0.5079 0.7163
vn -0.3296 0.5078 0.7959
vn -0.2973 0.6298 0.7176
vn -0.4315 0.6299 0.6458
vn -0.3718 0.7429 0.5566
vn -0.2561 0.7428 0.6186
vn -0.2063 0.8423 0.4980
vn -0.2994 0.8424 0.4481
vn -0.2127 0.9237 0.3185
vn -0.1466 0.9237 0.3540
vn -0.1121 0.9561 0.2707
vn -0.1628 0.9561 0.2436
vn -0.1939 0.1105 0.9748
vn -0.1897 0.2346 0.9534
vn -0.1809 0.3749 0.9093
vn -0.1681 0.5076 0.8450
vn -0.1516 0.6296 0.7620
vn -0.1307 0.7427 0.6568
vn -0.1052 0.8421 0.5289
vn -0.0748 0.9236 0.3760
vn -0.0573 0.9560 0.2876
vn 0.8314 -0.0000 0.5557
vn 0.7069 -0.0000 0.7073
vn 0.9239 -0.0000 0.3827
vn 0.9808 -0.0000 0.1951
vn 1.0000 -0.0000 -0.0000
vn 0.9808 -0.0000 -0.1951
vn 0.9239 -0.0000 -0.3827
vn 0.8315 -0.0000 -0.5556
vn 0.7071 -0.0000 -0.7071
vn 0.5556 -0.0000 -0.8315
vn 0.3827 -0.0000 -0.9239
vn 0.1951 -0.0000 -0.9808
vn -0.0000 -0.0000 -1.0000
vn -0.1951 -0.0000 -0.9808
vn -0.3827 -0.0000 -0.9239
vn -0.5556 -0.0000 -0.8315
vn -0.7071 -0.0000 -0.7071
vn -0.8315 -0.0000 -0.5556
vn -0.9239 -0.0000 -0.3827
vn -0.9808 -0.0000 -0.1951
vn -1.0000 -0.0000 -0.0000
vn -0.9808 -0.0000 0.1951
vn -0.9239 -0.0000 0.3827
vn -0.8315 -0.0000 0.5556
vn -0.7071 -0.0000 0.7071
vn -0.5556 -0.0000 0.8315
vn -0.3827 -0.0000 0.9239
vn -0.1949 -0.0001 0.9808
vn 0.0002 -0.0000 1.0000
vn 0.1951 0.0001 0.9808
vn 0.3827 -0.0000 0.9239
vn 0.5555 -0.0000 0.8315
vt 0.999464 0.068506
vt 0.999464 0.074837
vt 0.971177 0.074837
vt 0.971177 0.068506
vt 0.999464 0.081683
vt 0.971177 0.081683
vt 0.942135 0.081683
vt 0.942135 0.074837
vt 0.942135 0.068506
vt 0.999464 0.089028
vt 0.971177 0.089028
vt 0.999464 0.096525
vt 0.971177 0.096525
vt 0.942135 0.096525
vt 0.942135 0.089028
vt 0.999464 0.103933
vt 0.971177 0.103933
vt 0.999464 0.111116
vt 0.971177 0.111116
vt 0.942135 0.111116
vt 0.942135 0.103933
vt 0.999464 0.118415
vt 0.971177 0.118415
vt 0.999464 0.125943
vt 0.971177 0.125943
vt 0.942135 0.125943
vt 0.942135 0.118415
vt 0.911636 0.074837
vt 0.911636 0.068506
vt 0.911636 0.081683
vt 0.880376 0.081683
vt 0.880376 0.074837
vt 0.880376 0.068506
vt 0.911636 0.089028
vt 0.911636 0.096525
vt 0.880376 0.096525
vt 0.880376 0.089028
vt 0.911636 0.103933
vt 0.911636 0.111116
vt 0.880376 0.111116
vt 0.880376 0.103933
vt 0.911636 0.118415
vt 0.911636 0.125943
vt 0.880376 0.125943
vt 0.880376 0.118415
vt 0.848853 0.074837
vt 0.848853 0.068506
vt 0.848853 0.081683
vt 0.817270 0.081683
vt 0.817270 0.074837
vt 0.817270 0.068506
vt 0.848853 0.089028
vt 0.848853 0.096525
vt 0.817270 0.096525
vt 0.817270 0.089028
vt 0.848853 0.103933
vt 0.848853 0.111116
vt 0.817270 0.111116
vt 0.817270 0.103933
vt 0.848853 0.118415
vt 0.848853 0.125943
vt 0.817270 0.125943
vt 0.817270 0.118415
vt 0.785684 0.074837
vt 0.785684 0.068506
vt 0.785684 0.081683
vt 0.754105 0.081683
vt 0.754105 0.074837
vt 0.754105 0.068506
vt 0.785684 0.089028
vt 0.785684 0.096525
vt 0.754105 0.096525
vt 0.754105 0.089028
vt 0.785684 0.103933
vt 0.785684 0.111116
vt 0.754105 0.111116
vt 0.754105 0.103933
vt 0.785684 0.118415
vt 0.785684 0.125943
vt 0.754105 0.125943
vt 0.754105 0.118415
vt 0.722530 0.074837
vt 0.722530 0.068506
vt 0.722530 0.081683
vt 0.690958 0.081683
vt 0.690958 0.074837
vt 0.690958 0.068506
vt 0.722530 0.089028
vt 0.722530 0.096525
vt 0.690958 0.096525
vt 0.690958 0.089028
vt 0.722530 0.103933
vt 0.722530 0.111116
vt 0.690958 0.111116
vt 0.690958 0.103933
vt 0.722530 0.118415
vt 0.722530 0.125943
vt 0.690958 0.125943
vt 0.690958 0.118415
vt 0.659385 0.074837
vt 0.659385 0.068506
vt 0.659385 0.081683
vt 0.627813 0.081683
vt 0.627813 0.074837
vt 0.627813 0.068506
vt 0.659385 0.089028
vt 0.659385 0.096525
vt 0.627813 0.096525
vt 0.627813 0.089028
vt 0.659385 0.103933
vt 0.659385 0.111116
vt 0.627813 0.111116
vt 0.627813 0.103933
vt 0.659385 0.118415
vt 0.659385 0.125943
vt 0.627813 0.125943
vt 0.627813 0.118415
vt 0.596242 0.074837
vt 0.596242 0.068506
vt 0.596242 0.081683
vt 0.564671 0.081683
vt 0.564671 0.074837
vt 0.564671 0.068506
vt 0.596242 0.089028
vt 0.596242 0.096525
vt 0.564671 0.096525
vt 0.564671 0.089028
vt 0.596242 0.103933
vt 0.596242 0.111116
vt 0.564671 0.111116
vt 0.564671 0.103933
vt 0.596242 0.118415
vt 0.596242 0.125943
vt 0.564671 0.125943
vt 0.564671 0.118415
vt 0.533095 0.074837
vt 0.533095 0.068506
vt 0.533095 0.081683
vt 0.501517 0.081683
vt 0.501517 0.074837
vt 0.501517 0.068506
vt 0.533095 0.089028
vt 0.533095 0.096525
vt 0.501517 0.096525
vt 0.501517 0.089028
vt 0.533095 0.103933
vt 0.533095 0.111116
vt 0.501517 0.111116
vt 0.501517 0.103933
vt 0.533095 0.118415
vt 0.533095 0.125943
vt 0.501517 0.125943
vt 0.501517 0.118415
vt 0.469946 0.074837
vt 0.469946 0.068506
vt 0.469946 0.081683
vt 0.438376 0.074837
vt 0.438376 0.081683
vt 0.438376 0.068506
vt 0.469946 0.089028
vt 0.469946 0.096525
vt 0.438376 0.089028
vt 0.438376 0.096525
vt 0.469946 0.103933
vt 0.469946 0.111116
vt 0.438376 0.111116
vt 0.438376 0.103933
vt 0.469946 0.118415
vt 0.469946 0.125943
vt 0.438376 0.125943
vt 0.438376 0.118415
vt 0.406791 0.074837
vt 0.406791 0.068506
vt 0.406791 0.081683
vt 0.375217 0.081683
vt 0.375217 0.074837
vt 0.375217 0.068506
vt 0.406791 0.089028
vt 0.406791 0.096525
vt 0.375217 0.096525
vt 0.375217 0.089028
vt 0.406791 0.103933
vt 0.406791 0.111116
vt 0.375217 0.111116
vt 0.375217 0.103933
vt 0.406791 0.118415
vt 0.406791 0.125943
vt 0.375217 0.125943
vt 0.375217 0.118415
vt 0.343658 0.074837
vt 0.343658 0.068506
vt 0.343658 0.081683
vt 0.312085 0.081683
vt 0.312085 0.074837
vt 0.312085 0.068506
vt 0.343658 0.089028
vt 0.343658 0.096525
vt 0.312085 0.096525
vt 0.312085 0.089028
vt 0.343658 0.103933
vt 0.343658 0.111116
vt 0.312085 0.111116
vt 0.312085 0.103933
vt 0.343658 0.118415
vt 0.343658 0.125943
vt 0.312085 0.125943
vt 0.312085 0.118415
vt 0.280511 0.074837
vt 0.280511 0.068506
vt 0.280511 0.081683
vt 0.248937 0.081683
vt 0.248937 0.074837
vt 0.248937 0.068506
vt 0.280511 0.089028
vt 0.280511 0.096525
vt 0.248937 0.096525
vt 0.248937 0.089028
vt 0.280511 0.103933
vt 0.280511 0.111116
vt 0.248937 0.111116
vt 0.248937 0.103933
vt 0.280511 0.118415
vt 0.280511 0.125943
vt 0.248937 0.125943
vt 0.248937 0.118415
vt 0.217360 0.074837
vt 0.217360 0.068506
vt 0.217360 0.081683
vt 0.185780 0.081683
vt 0.185780 0.074837
vt 0.185780 0.068506
vt 0.217360 0.089028
vt 0.217360 0.096525
vt 0.185780 0.096525
vt 0.185780 0.089028
vt 0.217360 0.103933
vt 0.217360 0.111116
vt 0.185780 0.111116
vt 0.185780 0.103933
vt 0.217360 0.118415
vt 0.217360 0.125943
vt 0.185780 0.125943
vt 0.185780 0.118415
vt 0.154194 0.074837
vt 0.154194 0.068506
vt 0.154194 0.081683
vt 0.122613 0.081683
vt 0.122613 0.074837
vt 0.122613 0.068506
vt 0.154194 0.089028
vt 0.154194 0.096525
vt 0.122613 0.096525
vt 0.122613 0.089028
vt 0.154194 0.103933
vt 0.154194 0.111116
vt 0.122613 0.111116
vt 0.122613 0.103933
vt 0.154194 0.118415
vt 0.154194 0.125943
vt 0.122613 0.125943
vt 0.122613 0.118415
vt 0.091093 0.074837
vt 0.091093 0.068506
vt 0.091093 0.081683
vt 0.059819 0.081683
vt 0.059819 0.074837
vt 0.059819 0.068506
vt 0.091093 0.089028
vt 0.091093 0.096525
vt 0.059819 0.096525
vt 0.059819 0.089028
vt 0.091093 0.103933
vt 0.091093 0.111116
vt 0.059819 0.111116
vt 0.059819 0.103933
vt 0.091093 0.118415
vt 0.091093 0.125943
vt 0.059819 0.118415
vt 0.059819 0.125943
vt 0.029286 0.074837
vt 0.029286 0.068506
vt 0.029286 0.081683
vt 0.000500 0.074837
vt 0.000500 0.081683
vt 0.000500 0.068506
vt 0.029286 0.089028
vt 0.029286 0.096525
vt 0.000500 0.096525
vt 0.000500 0.089028
vt 0.029286 0.103933
vt 0.029286 0.111116
vt 0.000500 0.111116
vt 0.000500 0.103933
vt 0.029286 0.118415
vt 0.029286 0.125943
vt 0.000500 0.125943
vt 0.000500 0.118415
vt 0.999464 0.056329
vt 0.971177 0.056329
vt 0.971177 0.050246
vt 0.999464 0.050246
vt 0.942135 0.056329
vt 0.942135 0.050246
vt 0.942135 0.043922
vt 0.971177 0.043922
vt 0.999464 0.043922
vt 0.971177 0.037075
vt 0.999464 0.037075
vt 0.942135 0.037075
vt 0.942135 0.029731
vt 0.971177 0.029731
vt 0.999464 0.029731
vt 0.971177 0.022234
vt 0.999464 0.022234
vt 0.942135 0.022234
vt 0.942135 0.014824
vt 0.971177 0.014824
vt 0.999464 0.014824
vt 0.971177 0.007638
vt 0.999464 0.007638
vt 0.942135 0.007638
vt 0.942135 0.000788
vt 0.971177 0.000788
vt 0.999464 0.000788
vt 0.911636 0.056329
vt 0.911636 0.050246
vt 0.880376 0.056329
vt 0.880376 0.050246
vt 0.880376 0.043922
vt 0.911636 0.043922
vt 0.911636 0.037075
vt 0.880376 0.037075
vt 0.880376 0.029731
vt 0.911636 0.029731
vt 0.911636 0.022234
vt 0.880376 0.022234
vt 0.880376 0.014824
vt 0.911636 0.014824
vt 0.911636 0.007638
vt 0.880376 0.007638
vt 0.880376 0.000788
vt 0.911636 0.000788
vt 0.848853 0.056329
vt 0.848853 0.050246
vt 0.817270 0.056329
vt 0.817270 0.050246
vt 0.817270 0.043922
vt 0.848853 0.043922
vt 0.848853 0.037075
vt 0.817270 0.037075
vt 0.817270 0.029731
vt 0.848853 0.029731
vt 0.848853 0.022234
vt 0.817270 0.022234
vt 0.817270 0.014824
vt 0.848853 0.014824
vt 0.848853 0.007638
vt 0.817270 0.007638
vt 0.817270 0.000788
vt 0.848853 0.000788
vt 0.785684 0.056329
vt 0.785684 0.050246
vt 0.754105 0.056329
vt 0.754105 0.050246
vt 0.754105 0.043922
vt 0.785684 0.043922
vt 0.785684 0.037075
vt 0.754105 0.037075
vt 0.754105 0.029731
vt 0.785684 0.029731
vt 0.785684 0.022234
vt 0.754105 0.022234
vt 0.754105 0.014824
vt 0.785684 0.014824
vt 0.785684 0.007638
vt 0.754105 0.007638
vt 0.754105 0.000788
vt 0.785684 0.000788
vt 0.722530 0.056329
vt 0.722530 0.050246
vt 0.690958 0.056329
vt 0.690958 0.050246
vt 0.690958 0.043922
vt 0.722530 0.043922
vt 0.722530 0.037075
vt 0.690958 0.037075
vt 0.690958 0.029731
vt 0.722530 0.029731
vt 0.722530 0.022234
vt 0.690958 0.022234
vt 0.690958 0.014824
vt 0.722530 0.014824
vt 0.722530 0.007638
vt 0.690958 0.007638
vt 0.690958 0.000788
vt 0.722530 0.000788
vt 0.659385 0.056329
vt 0.659385 0.050246
vt 0.627813 0.056329
vt 0.627813 0.050246
vt 0.627813 0.043922
vt 0.659385 0.043922
vt 0.659385 0.037075
vt 0.627813 0.037075
vt 0.627813 0.029731
vt 0.659385 0.029731
vt 0.659385 0.022234
vt 0.627813 0.022234
vt 0.627813 0.014824
vt 0.659385 0.014824
vt 0.659385 0.007638
vt 0.627813 0.007638
vt 0.627813 0.000788
vt 0.659385 0.000788
vt 0.596242 0.056329
vt 0.596242 0.050246
vt 0.564671 0.056329
vt 0.564671 0.050246
vt 0.564671 0.043922
vt 0.596242 0.043922
vt 0.596242 0.037075
vt 0.564671 0.037075
vt 0.564671 0.029731
vt 0.596242 0.029731
vt 0.596242 0.022234
vt 0.564671 0.022234
vt 0.564671 0.014824
vt 0.596242 0.014824
vt 0.596242 0.007638
vt 0.564671 0.007638
vt 0.564671 0.000788
vt 0.596242 0.000788
vt 0.533095 0.056329
vt 0.533095 0.050246
vt 0.501517 0.056329
vt 0.501517 0.050246
vt 0.501517 0.043922
vt 0.533095 0.043922
vt 0.533095 0.037075
vt 0.501517 0.037075
vt 0.533095 0.029731
vt 0.501517 0.029731
vt 0.533095 0.022234
vt 0.501517 0.022234
vt 0.501517 0.014824
vt 0.533095 0.014824
vt 0.533095 0.007638
vt 0.501517 0.007638
vt 0.501517 0.000788
vt 0.533095 0.000788
vt 0.469946 0.056329
vt 0.469946 0.050246
vt 0.438376 0.056329
vt 0.438376 0.050246
vt 0.438376 0.043922
vt 0.469946 0.043922
vt 0.469946 0.037075
vt 0.438376 0.037075
vt 0.438376 0.029731
vt 0.469946 0.029731
vt 0.469946 0.022234
vt 0.438376 0.022234
vt 0.438376 0.014824
vt 0.469946 0.014824
vt 0.469946 0.007638
vt 0.438376 0.007638
vt 0.438376 0.000788
vt 0.469946 0.000788
vt 0.406791 0.056329
vt 0.406791 0.050246
vt 0.375217 0.056329
vt 0.375217 0.050246
vt 0.375217 0.043922
vt 0.406791 0.043922
vt 0.406791 0.037075
vt 0.375217 0.037075
vt 0.375217 0.029731
vt 0.406791 0.029731
vt 0.406791 0.022234
vt 0.375217 0.022234
vt 0.375217 0.014824
vt 0.406791 0.014824
vt 0.406791 0.007638
vt 0.375217 0.007638
vt 0.375217 0.000788
vt 0.406791 0.000788
vt 0.343658 0.056329
vt 0.343658 0.050246
vt 0.312085 0.056329
vt 0.312085 0.050246
vt 0.312085 0.043922
vt 0.343658 0.043922
vt 0.343658 0.037075
vt 0.312085 0.037075
vt 0.312085 0.029731
vt 0.343658 0.029731
vt 0.343658 0.022234
vt 0.312085 0.022234
vt 0.312085 0.014824
vt 0.343658 0.014824
vt 0.343658 0.007638
vt 0.312085 0.007638
vt 0.312085 0.000788
vt 0.343658 0.000788
vt 0.280511 0.056329
vt 0.280511 0.050246
vt 0.248937 0.056329
vt 0.248937 0.050246
vt 0.248937 0.043922
vt 0.280511 0.043922
vt 0.280511 0.037075
vt 0.248937 0.037075
vt 0.248937 0.029731
vt 0.280511 0.029731
vt 0.280511 0.022234
vt 0.248937 0.022234
vt 0.248937 0.014824
vt 0.280511 0.014824
vt 0.280511 0.007638
vt 0.248937 0.007638
vt 0.248937 0.000788
vt 0.280511 0.000788
vt 0.217360 0.056329
vt 0.217360 0.050246
vt 0.185780 0.056329
vt 0.185780 0.050246
vt 0.185780 0.043922
vt 0.217360 0.043922
vt 0.217360 0.037075
vt 0.185780 0.037075
vt 0.185780 0.029731
vt 0.217360 0.029731
vt 0.217360 0.022234
vt 0.185780 0.022234
vt 0.185780 0.014824
vt 0.217360 0.014824
vt 0.217360 0.007638
vt 0.185780 0.007638
vt 0.185780 0.000788
vt 0.217360 0.000788
vt 0.154194 0.056329
vt 0.154194 0.050246
vt 0.122613 0.056329
vt 0.122613 0.050246
vt 0.122613 0.043922
vt 0.154194 0.043922
vt 0.154194 0.037075
vt 0.122613 0.037075
vt 0.122613 0.029731
vt 0.154194 0.029731
vt 0.154194 0.022234
vt 0.122613 0.022234
vt 0.122613 0.014824
vt 0.154194 0.014824
vt 0.154194 0.007638
vt 0.122613 0.007638
vt 0.122613 0.000788
vt 0.154194 0.000788
vt 0.091093 0.056329
vt 0.091093 0.050246
vt 0.059819 0.056329
vt 0.059819 0.050246
vt 0.059819 0.043922
vt 0.091093 0.043922
vt 0.091093 0.037075
vt 0.059819 0.037075
vt 0.059819 0.029731
vt 0.091093 0.029731
vt 0.091093 0.022234
vt 0.059819 0.022234
vt 0.059819 0.014824
vt 0.091093 0.014824
vt 0.091093 0.007638
vt 0.059819 0.007638
vt 0.059819 0.000788
vt 0.091093 0.000788
vt 0.029286 0.056329
vt 0.029286 0.050246
vt 0.000500 0.056329
vt 0.000500 0.050246
vt 0.000500 0.043922
vt 0.029286 0.043922
vt 0.029286 0.037075
vt 0.000500 0.037075
vt 0.000500 0.029731
vt 0.029286 0.029731
vt 0.029286 0.022234
vt 0.000500 0.022234
vt 0.000500 0.014824
vt 0.029286 0.014824
vt 0.029286 0.007638
vt 0.000500 0.007638
vt 0.000500 0.000788
vt 0.029286 0.000788
vt 0.848853 0.062354
vt 0.880376 0.062354
vt 0.817270 0.062354
vt 0.785684 0.062354
vt 0.754105 0.062354
vt 0.722530 0.062354
vt 0.690958 0.062354
vt 0.659385 0.062354
vt 0.627813 0.062354
vt 0.596242 0.062354
vt 0.564671 0.062354
vt 0.533095 0.062354
vt 0.501517 0.062354
vt 0.469946 0.062354
vt 0.438376 0.062354
vt 0.406791 0.062354
vt 0.375217 0.062354
vt 0.343658 0.062354
vt 0.312085 0.062354
vt 0.280511 0.062354
vt 0.248937 0.062354
vt 0.217360 0.062354
vt 0.185780 0.062354
vt 0.154194 0.062354
vt 0.122613 0.062354
vt 0.091093 0.062354
vt 0.059819 0.062354
vt 0.029286 0.062354
vt 0.000500 0.062354
vt 0.971177 0.062354
vt 0.999464 0.062354
vt 0.942135 0.062354
vt 0.911636 0.062354
s 1
f 1/1/1 2/2/2 3/3/3 4/4/4
f 2/2/2 5/5/5 6/6/6 3/3/3
f 7/7/7 8/8/8 3/3/3 6/6/6
f 8/8/8 9/9/9 4/4/4 3/3/3
f 5/5/5 10/10/10 11/11/11 6/6/6
f 10/10/10 12/12/12 13/13/13 11/11/11
f 14/14/14 15/15/15 11/11/11 13/13/13
f 15/15/15 7/7/7 6/6/6 11/11/11
f 12/12/12 16/16/16 17/17/17 13/13/13
f 16/16/16 18/18/18 19/19/19 17/17/17
f 20/20/20 21/21/21 17/17/17 19/19/19
f 21/21/21 14/14/14 13/13/13 17/17/17
f 18/18/18 22/22/22 23/23/23 19/19/19
f 22/22/22 24/24/24 25/25/25 23/23/23
f 26/26/26 27/27/27 23/23/23 25/25/25
f 27/27/27 20/20/20 19/19/19 23/23/23
f 9/9/9 8/8/8 28/28/28 29/29/29
f 8/8/8 7/7/7 30/30/30 28/28/28
f 31/31/31 32/32/32 28/28/28 30/30/30
f 32/32/32 33/33/33 29/29/29 28/28/28
f 7/7/7 15/15/15 34/34/34 30/30/30
f 15/15/15 14/14/14 35/35/35 34/34/34
f 36/36/36 37/37/37 34/34/34 35/35/35
f 37/37/37 31/31/31 30/30/30 34/34/34
f 14/14/14 21/21/21 38/38/38 35/35/35
f 21/21/21 20/20/20 39/39/39 38/38/38
f 40/40/40 41/41/41 38/38/38 39/39/39
f 41/41/41 36/36/36 35/35/35 38/38/38
f 20/20/20 27/27/27 42/42/42 39/39/39
f 27/27/27 26/26/26 43/43/43 42/42/42
f 44/44/44 45/45/45 42/42/42 43/43/43
f 45/45/45 40/40/40 39/39/39 42/42/42
f 33/33/33 32/32/32 46/46/46 47/47/47
f 32/32/32 31/31/31 48/48/48 46/46/46
f 49/49/49 50/50/50 46/46/46 48/48/48
f 50/50/50 51/51/51 47/47/47 46/46/46
f 31/31/31 37/37/37 52/52/52 48/48/48
f 37/37/37 36/36/36 53/53/53 52/52/52
f 54/54/54 55/55/55 52/52/52 53/53/53
f 55/55/55 49/49/49 48/48/48 52/52/52
f 36/36/36 41/41/41 56/56/56 53/53/53
f 41/41/41 40/40/40 57/57/57 56/56/56
f 58/58/58 59/59/59 56/56/56 57/57/57
f 59/59/59 54/54/54 53/53/53 56/56/56
f 40/40/40 45/45/45 60/60/60 57/57/57
f 45/45/45 44/44/44 61/61/61 60/60/60
f 62/62/62 63/63/63 60/60/60 61/61/61
f 63/63/63 58/58/58 57/57/57 60/60/60
f 51/51/51 50/50/50 64/64/64 65/65/65
f 50/50/50 49/49/49 66/66/66 64/64/64
f 67/67/67 68/68/68 64/64/64 66/66/66
f 68/68/68 69/69/69 65/65/65 64/64/64
f 49/49/49 55/55/55 70/70/70 66/66/66
f 55/55/55 54/54/54 71/71/71 70/70/70
f 72/72/72 73/73/73 70/70/70 71/71/71
f 73/73/73 67/67/67 66/66/66 70/70/70
f 54/54/54 59/59/59 74/74/74 71/71/71
f 59/59/59 58/58/58 75/75/75 74/74/74
f 76/76/76 77/77/77 74/74/74 75/75/75
f 77/77/77 72/72/72 71/71/71 74/74/74
f 58/58/58 63/63/63 78/78/78 75/75/75
f 63/63/63 62/62/62 79/79/79 78/78/78
f 80/80/80 81/81/81 78/78/78 79/79/79
f 81/81/81 76/76/76 75/75/75 78/78/78
f 69/69/69 68/68/68 82/82/82 83/83/83
f 68/68/68 67/67/67 84/84/84 82/82/82
f 85/85/85 86/86/86 82/82/82 84/84/84
f 86/86/86 87/87/87 83/83/83 82/82/82
f 67/67/67 73/73/73 88/88/88 84/84/84
f 73/73/73 72/72/72 89/89/89 88/88/88
f 90/90/90 91/91/91 88/88/88 89/89/89
f 91/91/91 85/85/85 84/84/84 88/88/88
f 72/72/72 77/77/77 92/92/92 89/89/89
f 77/77/77 76/76/76 93/93/93 92/92/92
f 94/94/94 95/95/95 92/92/92 93/93/93
f 95/95/95 90/90/90 89/89/89 92/92/92
f 76/76/76 81/81/81 96/96/96 93/93/93
f 81/81/81 80/80/80 97/97/97 96/96/96
f 98/98/98 99/99/99 96/96/96 97/97/97
f 99/99/99 94/94/94 93/93/93 96/96/96
f 87/87/87 86/86/86 100/100/100 101/101/101
f 86/86/86 85/85/85 102/102/102 100/100/100
f 103/103/103 104/104/104 100/100/100 102/102/102
f 104/104/104 105/105/105 101/101/101 100/100/100
f 85/85/85 91/91/91 106/106/106 102/102/102
f 91/91/91 90/90/90 107/107/107 106/106/106
f 108/108/108 109/109/109 106/106/106 107/107/107
f 109/109/109 103/103/103 102/102/102 106/106/106
f 90/90/90 95/95/95 110/110/110 107/107/107
f 95/95/95 94/94/94 111/111/111 110/110/110
f 112/112/112 113/113/113 110/110/110 111/111/111
f 113/113/113 108/108/108 107/107/107 110/110/110
f 94/94/94 99/99/99 114/114/114 111/111/111
f 99/99/99 98/98/98 115/115/115 114/114/114
f 116/116/116 117/117/117 114/114/114 115/115/115
f 117/117/117 112/112/112 111/111/111 114/114/114
f 105/105/105 104/104/104 118/118/118 119/119/119
f 104/104/104 103/103/103 120/120/120 118/118/118
f 121/121/121 122/122/122 118/118/118 120/120/120
f 122/122/122 123/123/123 119/119/119 118/118/118
f 103/103/103 109/109/109 124/124/124 120/120/120
f 109/109/109 108/108/108 125/125/125 124/124/124
f 126/126/126 127/127/127 124/124/124 125/125/125
f 127/127/127 121/121/121 120/120/120 124/124/124
f 108/108/108 113/113/113 128/128/128 125/125/125
f 113/113/113 112/112/112 129/129/129 128/128/128
f 130/130/130 131/131/131 128/128/128 129/129/129
f 131/131/131 126/126/126 125/125/125 128/128/128
f 112/112/112 117/117/117 132/132/132 129/129/129
f 117/117/117 116/116/116 133/133/133 132/132/132
f 134/134/134 135/135/135 132/132/132 133/133/133
f 135/135/135 130/130/130 129/129/129 132/132/132
f 123/123/123 122/122/122 136/136/136 137/137/137
f 122/122/122 121/121/121 138/138/138 136/136/136
f 139/139/139 140/140/140 136/136/136 138/138/138
f 140/140/140 141/141/141 137/137/137 136/136/136
f 121/121/121 127/127/127 142/142/142 138/138/138
f 127/127/127 126/126/126 143/143/143 142/142/142
f 144/144/144 145/145/145 142/142/142 143/143/143
f 145/145/145 139/139/139 138/138/138 142/142/142
f 126/126/126 131/131/131 146/146/146 143/143/143
f 131/131/131 130/130/130 147/147/147 146/146/146
f 148/148/148 149/149/149 146/146/146 147/147/147
f 149/149/149 144/144/144 143/143/143 146/146/146
f 130/130/130 135/135/135 150/150/150 147/147/147
f 135/135/135 134/134/134 151/151/151 150/150/150
f 152/152/152 153/153/153 150/150/150 151/151/151
f 153/153/153 148/148/148 147/147/147 150/150/150
f 141/141/141 140/140/140 154/154/154 155/155/155
f 140/140/140 139/139/139 156/156/156 154/154/154
f 158/157/157 154/154/154 156/156/156 157/158/158
f 158/157/157 159/159/159 155/155/155 154/154/154
f 139/139/139 145/145/145 160/160/160 156/156/156
f 145/145/145 144/144/144 161/161/161 160/160/160
f 163/162/162 160/160/160 161/161/161 162/163/163
f 163/162/162 157/158/158 156/156/156 160/160/160
f 144/144/144 149/149/149 164/164/164 161/161/161
f 149/149/149 148/148/148 165/165/165 164/164/164
f 166/166/166 167/167/167 164/164/164 165/165/165
f 167/167/167 162/163/163 161/161/161 164/164/164
f 148/148/148 153/153/153 168/168/168 165/165/165
f 153/153/153 152/152/152 169/169/169 168/168/168
f 170/170/170 171/171/171 168/168/168 169/169/169
f 171/171/171 166/166/166 165/165/165 168/168/168
f 159/159/159 158/157/157 172/172/172 173/173/173
f 158/157/157 157/158/158 174/174/174 172/172/172
f 175/175/175 176/176/176 172/172/172 174/174/174
f 176/176/176 177/177/177 173/173/173 172/172/172
f 157/158/158 163/162/162 178/178/178 174/174/174
f 163/162/162 162/163/163 179/179/179 178/178/178
f 180/180/180 181/181/181 178/178/178 179/179/179
f 181/181/181 175/175/175 174/174/174 178/178/178
f 162/163/163 167/167/167 182/182/182 179/179/179
f 167/167/167 166/166/166 183/183/183 182/182/182
f 184/184/184 185/185/185 182/182/182 183/183/183
f 185/185/185 180/180/180 179/179/179 182/182/182
f 171/171/171 186/186/186 183/183/183 166/166/166
f 170/170/170 187/187/187 186/186/186 171/171/171
f 188/188/188 189/189/189 186/186/186 187/187/187
f 189/189/189 184/184/184 183/183/183 186/186/186
f 177/177/177 176/176/176 190/190/190 191/191/191
f 176/176/176 175/175/175 192/192/192 190/190/190
f 193/193/193 194/194/194 190/190/190 192/192/192
f 194/194/194 195/195/195 191/191/191 190/190/190
f 175/175/175 181/181/181 196/196/196 192/192/192
f 181/181/181 180/180/180 197/197/197 196/196/196
f 198/198/198 199/199/199 196/196/196 197/197/197
f 199/199/199 193/193/193 192/192/192 196/196/196
f 180/180/180 185/185/185 200/200/200 197/197/197
f 185/185/185 184/184/184 201/201/201 200/200/200
f 202/202/202 203/203/203 200/200/200 201/201/201
f 203/203/203 198/198/198 197/197/197 200/200/200
f 184/184/184 189/189/189 204/204/204 201/201/201
f 189/189/189 188/188/188 205/205/205 204/204/204
f 206/206/206 207/207/207 204/204/204 205/205/205
f 207/207/207 202/202/202 201/201/201 204/204/204
f 195/195/195 194/194/194 208/208/208 209/209/209
f 194/194/194 193/193/193 210/210/210 208/208/208
f 211/211/211 212/212/212 208/208/208 210/210/210
f 212/212/212 213/213/213 209/209/209 208/208/208
f 193/193/193 199/199/199 214/214/214 210/210/210
f 199/199/199 198/198/198 215/215/215 214/214/214
f 216/216/216 217/217/217 214/214/214 215/215/215
f 217/217/217 211/211/211 210/210/210 214/214/214
f 198/198/198 203/203/203 218/218/218 215/215/215
f 203/203/203 202/202/202 219/219/219 218/218/218
f 220/220/220 221/221/221 218/218/218 219/219/219
f 221/221/221 216/216/216 215/215/215 218/218/218
f 202/202/202 207/207/207 222/222/222 219/219/219
f 207/207/207 206/206/206 223/223/223 222/222/222
f 224/224/224 225/225/225 222/222/222 223/223/223
f 225/225/225 220/220/220 219/219/219 222/222/222
f 213/213/213 212/212/212 226/226/226 227/227/227
f 212/212/212 211/211/211 228/228/228 226/226/226
f 229/229/229 230/230/230 226/226/226 228/228/228
f 230/230/230 231/231/231 227/227/227 226/226/226
f 211/211/211 217/217/217 232/232/232 228/228/228
f 217/217/217 216/216/216 233/233/233 232/232/232
f 234/234/234 235/235/235 232/232/232 233/233/233
f 235/235/235 229/229/229 228/228/228 232/232/232
f 216/216/216 221/221/221 236/236/236 233/233/233
f 221/221/221 220/220/220 237/237/237 236/236/236
f 238/238/238 239/239/239 236/236/236 237/237/237
f 239/239/239 234/234/234 233/233/233 236/236/236
f 220/220/220 225/225/225 240/240/240 237/237/237
f 225/225/225 224/224/224 241/241/241 240/240/240
f 242/242/242 243/243/243 240/240/240 241/241/241
f 243/243/243 238/238/238 237/237/237 240/240/240
f 231/231/231 230/230/230 244/244/244 245/245/245
f 230/230/230 229/229/229 246/246/246 244/244/244
f 247/247/247 248/248/248 244/244/244 246/246/246
f 248/248/248 249/249/249 245/245/245 244/244/244
f 229/229/229 235/235/235 250/250/250 246/246/246
f 235/235/235 234/234/234 251/251/251 250/250/250
f 252/252/252 253/253/253 250/250/250 251/251/251
f 253/253/253 247/247/247 246/246/246 250/250/250
f 234/234/234 239/239/239 254/254/254 251/251/251
f 239/239/239 238/238/238 255/255/255 254/254/254
f 256/256/256 257/257/257 254/254/254 255/255/255
f 257/257/257 252/252/252 251/251/251 254/254/254
f 238/238/238 243/243/243 258/258/258 255/255/255
f 243/243/243 242/242/242 259/259/259 258/258/258
f 260/260/260 261/261/261 258/258/258 259/259/259
f 261/261/261 256/256/256 255/255/255 258/258/258
f 249/249/249 248/248/248 262/262/262 263/263/263
f 248/248/248 247/247/247 264/264/264 262/262/262
f 265/265/265 266/266/266 262/262/262 264/264/264
f 266/266/266 267/267/267 263/263/263 262/262/262
f 247/247/247 253/253/253 268/268/268 264/264/264
f 253/253/253 252/252/252 269/269/269 268/268/268
f 270/270/270 271/271/271 268/268/268 269/269/269
f 271/271/271 265/265/265 264/264/264 268/268/268
f 252/252/252 257/257/257 272/272/272 269/269/269
f 257/257/257 256/256/256 273/273/273 272/272/272
f 274/274/274 275/275/275 272/272/272 273/273/273
f 275/275/275 270/270/270 269/269/269 272/272/272
f 256/256/256 261/261/261 276/276/276 273/273/273
f 261/261/261 260/260/260 277/277/277 276/276/276
f 279/278/278 276/276/276 277/277/277 278/279/279
f 279/278/278 274/274/274 273/273/273 276/276/276
f 267/267/267 266/266/266 280/280/280 281/281/281
f 266/266/266 265/265/265 282/282/282 280/280/280
f 2/283/2 280/280/280 282/282/282 5/284/5
f 2/283/2 1/285/1 281/281/281 280/280/280
f 271/271/271 283/286/283 282/282/282 265/265/265
f 271/271/271 270/270/270 284/287/284 283/286/283
f 12/288/12 10/289/10 283/286/283 284/287/284
f 5/284/5 282/282/282 283/286/283 10/289/10
f 270/270/270 275/275/275 285/290/285 284/287/284
f 275/275/275 274/274/274 286/291/286 285/290/285
f 18/292/18 16/293/16 285/290/285 286/291/286
f 16/293/16 12/288/12 284/287/284 285/290/285
f 274/274/274 279/278/278 287/294/287 286/291/286
f 279/278/278 278/279/279 288/295/288 287/294/287
f 24/296/24 22/297/22 287/294/287 288/295/288
f 22/297/22 18/292/18 286/291/286 287/294/287
f 289/298/289 290/299/290 291/300/291 292/301/292
f 290/299/290 293/302/293 294/303/294 291/300/291
f 295/304/295 296/305/296 291/300/291 294/303/294
f 296/305/296 297/306/297 292/301/292 291/300/291
f 296/305/296 298/307/298 299/308/299 297/306/297
f 296/305/296 295/304/295 300/309/300 298/307/298
f 301/310/301 302/311/302 298/307/298 300/309/300
f 303/312/303 299/308/299 298/307/298 302/311/302
f 302/311/302 304/313/304 305/314/305 303/312/303
f 302/311/302 301/310/301 306/315/306 304/313/304
f 307/316/307 308/317/308 304/313/304 306/315/306
f 309/318/309 305/314/305 304/313/304 308/317/308
f 308/317/308 310/319/310 311/320/311 309/318/309
f 308/317/308 307/316/307 312/321/312 310/319/310
f 313/322/313 314/323/314 310/319/310 312/321/312
f 314/323/314 315/324/315 311/320/311 310/319/310
f 293/302/293 316/325/316 317/326/317 294/303/294
f 316/325/316 318/327/318 319/328/319 317/326/317
f 320/329/320 321/330/321 317/326/317 319/328/319
f 321/330/321 295/304/295 294/303/294 317/326/317
f 295/304/295 321/330/321 322/331/322 300/309/300
f 321/330/321 320/329/320 323/332/323 322/331/322
f 324/333/324 325/334/325 322/331/322 323/332/323
f 325/334/325 301/310/301 300/309/300 322/331/322
f 301/310/301 325/334/325 326/335/326 306/315/306
f 325/334/325 324/333/324 327/336/327 326/335/326
f 328/337/328 329/338/329 326/335/326 327/336/327
f 329/338/329 307/316/307 306/315/306 326/335/326
f 307/316/307 329/338/329 330/339/330 312/321/312
f 329/338/329 328/337/328 331/340/331 330/339/330
f 332/341/332 333/342/333 330/339/330 331/340/331
f 333/342/333 313/322/313 312/321/312 330/339/330
f 318/327/318 334/343/334 335/344/335 319/328/319
f 334/343/334 336/345/336 337/346/337 335/344/335
f 338/347/338 339/348/339 335/344/335 337/346/337
f 339/348/339 320/329/320 319/328/319 335/344/335
f 320/329/320 339/348/339 340/349/340 323/332/323
f 339/348/339 338/347/338 341/350/341 340/349/340
f 342/351/342 343/352/343 340/349/340 341/350/341
f 343/352/343 324/333/324 323/332/323 340/349/340
f 324/333/324 343/352/343 344/353/344 327/336/327
f 343/352/343 342/351/342 345/354/345 344/353/344
f 346/355/346 347/356/347 344/353/344 345/354/345
f 347/356/347 328/337/328 327/336/327 344/353/344
f 328/337/328 347/356/347 348/357/348 331/340/331
f 347/356/347 346/355/346 349/358/349 348/357/348
f 350/359/350 351/360/351 348/357/348 349/358/349
f 351/360/351 332/341/332 331/340/331 348/357/348
f 336/345/336 352/361/352 353/362/353 337/346/337
f 352/361/352 354/363/354 355/364/355 353/362/353
f 356/365/356 357/366/357 353/362/353 355/364/355
f 357/366/357 338/347/338 337/346/337 353/362/353
f 338/347/338 357/366/357 358/367/358 341/350/341
f 357/366/357 356/365/356 359/368/359 358/367/358
f 360/369/360 361/370/361 358/367/358 359/368/359
f 361/370/361 342/351/342 341/350/341 358/367/358
f 342/351/342 361/370/361 362/371/362 345/354/345
f 361/370/361 360/369/360 363/372/363 362/371/362
f 364/373/364 365/374/365 362/371/362 363/372/363
f 365/374/365 346/355/346 345/354/345 362/371/362
f 346/355/346 365/374/365 366/375/366 349/358/349
f 365/374/365 364/373/364 367/376/367 366/375/366
f 368/377/368 369/378/369 366/375/366 367/376/367
f 369/378/369 350/359/350 349/358/349 366/375/366
f 354/363/354 370/379/370 371/380/371 355/364/355
f 370/379/370 372/381/372 373/382/373 371/380/371
f 374/383/374 375/384/375 371/380/371 373/382/373
f 375/384/375 356/365/356 355/364/355 371/380/371
f 356/365/356 375/384/375 376/385/376 359/368/359
f 375/384/375 374/383/374 377/386/377 376/385/376
f 378/387/378 379/388/379 376/385/376 377/386/377
f 379/388/379 360/369/360 359/368/359 376/385/376
f 360/369/360 379/388/379 380/389/380 363/372/363
f 379/388/379 378/387/378 381/390/381 380/389/380
f 382/391/382 383/392/383 380/389/380 381/390/381
f 383/392/383 364/373/364 363/372/363 380/389/380
f 364/373/364 383/392/383 384/393/384 367/376/367
f 383/392/383 382/391/382 385/394/385 384/393/384
f 386/395/386 387/396/387 384/393/384 385/394/385
f 387/396/387 368/377/368 367/376/367 384/393/384
f 372/381/372 388/397/388 389/398/389 373/382/373
f 388/397/388 390/399/390 391/400/391 389/398/389
f 392/401/392 393/402/393 389/398/389 391/400/391
f 393/402/393 374/383/374 373/382/373 389/398/389
f 374/383/374 393/402/393 394/403/394 377/386/377
f 393/402/393 392/401/392 395/404/395 394/403/394
f 396/405/396 397/406/397 394/403/394 395/404/395
f 397/406/397 378/387/378 377/386/377 394/403/394
f 378/387/378 397/406/397 398/407/398 381/390/381
f 397/406/397 396/405/396 399/408/399 398/407/398
f 400/409/400 401/410/401 398/407/398 399/408/399
f 401/410/401 382/391/382 381/390/381 398/407/398
f 382/391/382 401/410/401 402/411/402 385/394/385
f 401/410/401 400/409/400 403/412/403 402/411/402
f 404/413/404 405/414/405 402/411/402 403/412/403
f 405/414/405 386/395/386 385/394/385 402/411/402
f 390/399/390 406/415/406 407/416/407 391/400/391
f 406/415/406 408/417/408 409/418/409 407/416/407
f 410/419/410 411/420/411 407/416/407 409/418/409
f 411/420/411 392/401/392 391/400/391 407/416/407
f 392/401/392 411/420/411 412/421/412 395/404/395
f 411/420/411 410/419/410 413/422/413 412/421/412
f 414/423/414 415/424/415 412/421/412 413/422/413
f 415/424/415 396/405/396 395/404/395 412/421/412
f 396/405/396 415/424/415 416/425/416 399/408/399
f 415/424/415 414/423/414 417/426/417 416/425/416
f 418/427/418 419/428/419 416/425/416 417/426/417
f 419/428/419 400/409/400 399/408/399 416/425/416
f 400/409/400 419/428/419 420/429/420 403/412/403
f 419/428/419 418/427/418 421/430/421 420/429/420
f 422/431/422 423/432/423 420/429/420 421/430/421
f 423/432/423 404/413/404 403/412/403 420/429/420
f 408/417/408 424/433/424 425/434/425 409/418/409
f 424/433/424 426/435/426 427/436/427 425/434/425
f 428/437/428 429/438/429 425/434/425 427/436/427
f 429/438/429 410/419/410 409/418/409 425/434/425
f 410/419/410 429/438/429 430/439/430 413/422/413
f 429/438/429 428/437/428 431/440/431 430/439/430
f 433/441/432 430/439/430 431/440/431 432/442/433
f 433/441/432 414/423/414 413/422/413 430/439/430
f 414/423/414 433/441/432 434/443/434 417/426/417
f 433/441/432 432/442/433 435/444/435 434/443/434
f 436/445/436 437/446/437 434/443/434 435/444/435
f 437/446/437 418/427/418 417/426/417 434/443/434
f 418/427/418 437/446/437 438/447/438 421/430/421
f 437/446/437 436/445/436 439/448/439 438/447/438
f 440/449/440 441/450/441 438/447/438 439/448/439
f 441/450/441 422/431/422 421/430/421 438/447/438
f 426/435/426 442/451/442 443/452/443 427/436/427
f 442/451/442 444/453/444 445/454/445 443/452/443
f 446/455/446 447/456/447 443/452/443 445/454/445
f 447/456/447 428/437/428 427/436/427 443/452/443
f 428/437/428 447/456/447 448/457/448 431/440/431
f 447/456/447 446/455/446 449/458/449 448/457/448
f 450/459/450 451/460/451 448/457/448 449/458/449
f 432/442/433 431/440/431 448/457/448 451/460/451
f 432/442/433 451/460/451 452/461/452 435/444/435
f 451/460/451 450/459/450 453/462/453 452/461/452
f 454/463/454 455/464/455 452/461/452 453/462/453
f 455/464/455 436/445/436 435/444/435 452/461/452
f 436/445/436 455/464/455 456/465/456 439/448/439
f 455/464/455 454/463/454 457/466/457 456/465/456
f 458/467/458 459/468/459 456/465/456 457/466/457
f 459/468/459 440/449/440 439/448/439 456/465/456
f 444/453/444 460/469/460 461/470/461 445/454/445
f 460/469/460 462/471/462 463/472/463 461/470/461
f 464/473/464 465/474/465 461/470/461 463/472/463
f 465/474/465 446/455/446 445/454/445 461/470/461
f 446/455/446 465/474/465 466/475/466 449/458/449
f 465/474/465 464/473/464 467/476/467 466/475/466
f 468/477/468 469/478/469 466/475/466 467/476/467
f 469/478/469 450/459/450 449/458/449 466/475/466
f 450/459/450 469/478/469 470/479/470 453/462/453
f 469/478/469 468/477/468 471/480/471 470/479/470
f 472/481/472 473/482/473 470/479/470 471/480/471
f 473/482/473 454/463/454 453/462/453 470/479/470
f 454/463/454 473/482/473 474/483/474 457/466/457
f 473/482/473 472/481/472 475/484/475 474/483/474
f 476/485/476 477/486/477 474/483/474 475/484/475
f 477/486/477 458/467/458 457/466/457 474/483/474
f 462/471/462 478/487/478 479/488/479 463/472/463
f 478/487/478 480/489/480 481/490/481 479/488/479
f 482/491/482 483/492/483 479/488/479 481/490/481
f 483/492/483 464/473/464 463/472/463 479/488/479
f 464/473/464 483/492/483 484/493/484 467/476/467
f 483/492/483 482/491/482 485/494/485 484/493/484
f 486/495/486 487/496/487 484/493/484 485/494/485
f 487/496/487 468/477/468 467/476/467 484/493/484
f 468/477/468 487/496/487 488/497/488 471/480/471
f 487/496/487 486/495/486 489/498/489 488/497/488
f 490/499/490 491/500/491 488/497/488 489/498/489
f 491/500/491 472/481/472 471/480/471 488/497/488
f 472/481/472 491/500/491 492/501/492 475/484/475
f 491/500/491 490/499/490 493/502/493 492/501/492
f 494/503/494 495/504/495 492/501/492 493/502/493
f 495/504/495 476/485/476 475/484/475 492/501/492
f 480/489/480 496/505/496 497/506/497 481/490/481
f 496/505/496 498/507/498 499/508/499 497/506/497
f 500/509/500 501/510/501 497/506/497 499/508/499
f 501/510/501 482/491/482 481/490/481 497/506/497
f 482/491/482 501/510/501 502/511/502 485/494/485
f 501/510/501 500/509/500 503/512/503 502/511/502
f 504/513/504 505/514/505 502/511/502 503/512/503
f 505/514/505 486/495/486 485/494/485 502/511/502
f 486/495/486 505/514/505 506/515/506 489/498/489
f 505/514/505 504/513/504 507/516/507 506/515/506
f 508/517/508 509/518/509 506/515/506 507/516/507
f 509/518/509 490/499/490 489/498/489 506/515/506
f 490/499/490 509/518/509 510/519/510 493/502/493
f 509/518/509 508/517/508 511/520/511 510/519/510
f 512/521/512 513/522/513 510/519/510 511/520/511
f 513/522/513 494/503/494 493/502/493 510/519/510
f 498/507/498 514/523/514 515/524/515 499/508/499
f 514/523/514 516/525/516 517/526/517 515/524/515
f 518/527/518 519/528/519 515/524/515 517/526/517
f 519/528/519 500/509/500 499/508/499 515/524/515
f 500/509/500 519/528/519 520/529/520 503/512/503
f 519/528/519 518/527/518 521/530/521 520/529/520
f 522/531/522 523/532/523 520/529/520 521/530/521
f 523/532/523 504/513/504 503/512/503 520/529/520
f 504/513/504 523/532/523 524/533/524 507/516/507
f 523/532/523 522/531/522 525/534/525 524/533/524
f 526/535/526 527/536/527 524/533/524 525/534/525
f 527/536/527 508/517/508 507/516/507 524/533/524
f 508/517/508 527/536/527 528/537/528 511/520/511
f 527/536/527 526/535/526 529/538/529 528/537/528
f 530/539/530 531/540/531 528/537/528 529/538/529
f 531/540/531 512/521/512 511/520/511 528/537/528
f 516/525/516 532/541/532 533/542/533 517/526/517
f 532/541/532 534/543/534 535/544/535 533/542/533
f 536/545/536 537/546/537 533/542/533 535/544/535
f 537/546/537 518/527/518 517/526/517 533/542/533
f 518/527/518 537/546/537 538/547/538 521/530/521
f 537/546/537 536/545/536 539/548/539 538/547/538
f 540/549/540 541/550/541 538/547/538 539/548/539
f 541/550/541 522/531/522 521/530/521 538/547/538
f 522/531/522 541/550/541 542/551/542 525/534/525
f 541/550/541 540/549/540 543/552/543 542/551/542
f 544/553/544 545/554/545 542/551/542 543/552/543
f 545/554/545 526/535/526 525/534/525 542/551/542
f 526/535/526 545/554/545 546/555/546 529/538/529
f 545/554/545 544/553/544 547/556/547 546/555/546
f 548/557/548 549/558/549 546/555/546 547/556/547
f 549/558/549 530/539/530 529/538/529 546/555/546
f 534/543/534 550/559/550 551/560/551 535/544/535
f 550/559/550 552/561/552 553/562/553 551/560/551
f 554/563/554 555/564/555 551/560/551 553/562/553
f 555/564/555 536/545/536 535/544/535 551/560/551
f 536/545/536 555/564/555 556/565/556 539/548/539
f 555/564/555 554/563/554 557/566/557 556/565/556
f 558/567/558 559/568/559 556/565/556 557/566/557
f 559/568/559 540/549/540 539/548/539 556/565/556
f 540/549/540 559/568/559 560/569/560 543/552/543
f 559/568/559 558/567/558 561/570/561 560/569/560
f 562/571/562 563/572/563 560/569/560 561/570/561
f 563/572/563 544/553/544 543/552/543 560/569/560
f 544/553/544 563/572/563 564/573/564 547/556/547
f 563/572/563 562/571/562 565/574/565 564/573/564
f 566/575/566 567/576/567 564/573/564 565/574/565
f 567/576/567 548/557/548 547/556/547 564/573/564
f 552/561/552 568/577/568 569/578/569 553/562/553
f 568/577/568 289/579/289 292/580/292 569/578/569
f 297/581/297 570/582/570 569/578/569 292/580/292
f 570/582/570 554/563/554 553/562/553 569/578/569
f 554/563/554 570/582/570 571/583/571 557/566/557
f 570/582/570 297/581/297 299/584/299 571/583/571
f 303/585/303 572/586/572 571/583/571 299/584/299
f 572/586/572 558/567/558 557/566/557 571/583/571
f 558/567/558 572/586/572 573/587/573 561/570/561
f 572/586/572 303/585/303 305/588/305 573/587/573
f 309/589/309 574/590/574 573/587/573 305/588/305
f 574/590/574 562/571/562 561/570/561 573/587/573
f 562/571/562 574/590/574 575/591/575 565/574/565
f 574/590/574 309/589/309 311/592/311 575/591/575
f 315/593/315 576/594/576 575/591/575 311/592/311
f 576/594/576 566/575/566 565/574/565 575/591/575
f 33/33/33 47/47/47 577/595/577 578/596/578
f 47/47/47 51/51/51 579/597/579 577/595/577
f 336/345/336 334/343/334 577/595/577 579/597/579
f 334/343/334 318/327/318 578/596/578 577/595/577
f 51/51/51 65/65/65 580/598/580 579/597/579
f 65/65/65 69/69/69 581/599/581 580/598/580
f 354/363/354 352/361/352 580/598/580 581/599/581
f 352/361/352 336/345/336 579/597/579 580/598/580
f 69/69/69 83/83/83 582/600/582 581/599/581
f 83/83/83 87/87/87 583/601/583 582/600/582
f 372/381/372 370/379/370 582/600/582 583/601/583
f 370/379/370 354/363/354 581/599/581 582/600/582
f 87/87/87 101/101/101 584/602/584 583/601/583
f 101/101/101 105/105/105 585/603/585 584/602/584
f 390/399/390 388/397/388 584/602/584 585/603/585
f 388/397/388 372/381/372 583/601/583 584/602/584
f 105/105/105 119/119/119 586/604/586 585/603/585
f 119/119/119 123/123/123 587/605/587 586/604/586
f 408/417/408 406/415/406 586/604/586 587/605/587
f 406/415/406 390/399/390 585/603/585 586/604/586
f 123/123/123 137/137/137 588/606/588 587/605/587
f 137/137/137 141/141/141 589/607/589 588/606/588
f 426/435/426 424/433/424 588/606/588 589/607/589
f 424/433/424 408/417/408 587/605/587 588/606/588
f 141/141/141 155/155/155 590/608/590 589/607/589
f 155/155/155 159/159/159 591/609/591 590/608/590
f 444/453/444 442/451/442 590/608/590 591/609/591
f 426/435/426 589/607/589 590/608/590 442/451/442
f 159/159/159 173/173/173 592/610/592 591/609/591
f 173/173/173 177/177/177 593/611/593 592/610/592
f 462/471/462 460/469/460 592/610/592 593/611/593
f 460/469/460 444/453/444 591/609/591 592/610/592
f 177/177/177 191/191/191 594/612/594 593/611/593
f 191/191/191 195/195/195 595/613/595 594/612/594
f 480/489/480 478/487/478 594/612/594 595/613/595
f 478/487/478 462/471/462 593/611/593 594/612/594
f 195/195/195 209/209/209 596/614/596 595/613/595
f 209/209/209 213/213/213 597/615/597 596/614/596
f 498/507/498 496/505/496 596/614/596 597/615/597
f 496/505/496 480/489/480 595/613/595 596/614/596
f 213/213/213 227/227/227 598/616/598 597/615/597
f 227/227/227 231/231/231 599/617/599 598/616/598
f 516/525/516 514/523/514 598/616/598 599/617/599
f 514/523/514 498/507/498 597/615/597 598/616/598
f 231/231/231 245/245/245 600/618/600 599/617/599
f 245/245/245 249/249/249 601/619/601 600/618/600
f 534/543/534 532/541/532 600/618/600 601/619/601
f 532/541/532 516/525/516 599/617/599 600/618/600
f 249/249/249 263/263/263 602/620/602 601/619/601
f 263/263/263 267/267/267 603/621/603 602/620/602
f 552/561/552 550/559/550 602/620/602 603/621/603
f 550/559/550 534/543/534 601/619/601 602/620/602
f 267/267/267 281/281/281 604/622/604 603/621/603
f 1/285/1 605/623/605 604/622/604 281/281/281
f 568/577/568 604/622/604 605/623/605 289/579/289
f 568/577/568 552/561/552 603/621/603 604/622/604
f 1/1/1 4/4/4 606/624/606 605/625/605
f 4/4/4 9/9/9 607/626/607 606/624/606
f 293/302/293 290/299/290 606/624/606 607/626/607
f 290/299/290 289/298/289 605/625/605 606/624/606
f 9/9/9 29/29/29 608/627/608 607/626/607
f 29/29/29 33/33/33 578/596/578 608/627/608
f 318/327/318 316/325/316 608/627/608 578/596/578
f 316/325/316 293/302/293 607/626/607 608/627/608
