# PadForge: decal shells re-partitioned to their host part
o Decal-Shoulder-Left-Trigger
v -35.725981 -1.009422 47.984263
v -36.319874 -1.110724 48.048852
v -36.055036 -2.390275 47.880536
v -35.449647 -2.285345 47.818682
v -37.630070 1.433034 48.640414
v -36.858920 1.558144 48.616035
v -37.161585 3.111805 49.063994
v -37.922055 2.988140 49.109107
v -37.471064 4.645132 49.563369
v -38.214374 4.515250 49.620165
v -36.908597 4.751106 49.437357
v -36.579151 3.211717 48.954575
v -36.261935 1.660026 48.534153
v -38.768232 6.829917 50.444050
v -38.085591 7.025708 50.444758
v -38.471006 7.854358 50.753249
v -39.062351 7.590227 50.710013
v -38.988464 8.470820 50.997725
v -39.288167 8.105685 50.894833
v -38.667675 8.880406 51.037601
v -38.039398 8.151459 50.740121
v -37.577454 7.214815 50.378135
v -42.223673 -2.050851 47.848618
v -43.090664 -2.180670 47.801389
v -42.845328 -3.510250 47.687037
v -41.985527 -3.372308 47.726086
v -43.893300 -2.300798 47.754927
v -43.642536 -3.638257 47.648324
v -44.465263 0.488135 48.211260
v -43.625198 0.584452 48.273681
v -43.934975 2.181244 48.712133
v -44.789888 2.098870 48.639810
v -44.225089 3.708378 49.208878
v -45.081671 3.631758 49.131176
v -43.301378 3.803369 49.288957
v -43.015521 2.276526 48.786728
v -42.721983 0.689675 48.337600
v -45.280013 4.830683 49.584819
v -45.933969 4.766459 49.499890
v -45.742341 3.568857 49.054934
v -46.405971 4.734932 49.341878
v -46.221271 3.529281 48.907077
v -46.468459 5.764884 49.748546
v -45.996912 5.761352 49.895553
v -45.359861 5.810509 49.969485
v -42.017799 6.427852 50.347833
v -42.219065 7.562782 50.761259
v -43.121774 7.389876 50.661227
v -42.886712 6.275842 50.261056
v -43.961574 7.148850 50.520933
v -43.745171 6.106105 50.156219
v -44.196092 8.080275 50.853519
v -43.355011 8.401854 51.027542
v -42.402409 8.592779 51.137215
v -38.628359 -1.471859 48.026307
v -39.527673 -1.615294 47.987214
v -39.293673 -2.919453 47.838046
v -38.386110 -2.769022 47.869264
v -40.459901 -1.766708 47.942518
v -40.229887 -3.077079 47.802179
v -40.986560 0.925117 48.464081
v -40.076260 1.060949 48.525362
v -40.391695 2.629486 48.997319
v -41.295950 2.506911 48.932849
v -40.693551 4.162219 49.518420
v -41.590154 4.045526 49.451365
v -39.806929 4.276388 49.573517
v -39.502386 2.751605 49.052967
v -39.189082 1.196000 48.580161
v -40.565334 8.452898 51.092511
v -40.552989 9.178027 51.363288
v -41.520689 9.369749 51.449603
v -41.449487 8.586280 51.150238
v -42.540357 9.399036 51.446637
v -42.629775 9.941541 51.550700
v -41.550409 9.911261 51.556109
v -40.498436 9.699210 51.461270
v -44.459820 8.792387 51.119788
v -45.139920 8.248299 50.881764
v -44.809885 7.684450 50.670004
v -45.611382 7.555405 50.604297
v -45.241144 7.324359 50.525001
v -46.051871 7.770344 50.577900
v -45.478419 8.603442 50.909331
v -44.681113 9.265644 51.187544
v -40.293466 6.650710 50.452506
v -41.142184 6.553242 50.417541
v -40.939380 5.433089 49.989036
v -40.072128 5.556560 50.041592
v -41.820046 5.303501 49.916422
v -41.352622 -1.912375 47.896004
v -41.120451 -3.227965 47.764695
v -41.855380 0.802313 48.401310
v -42.153102 2.387200 48.861457
v -42.441134 3.920863 49.372329
v -43.556042 9.190475 51.327413
v -43.701731 9.719681 51.420337
v -37.085846 -1.235104 48.066689
v -37.834827 -1.350282 48.056005
v -37.581891 -2.639866 47.892807
v -36.823962 -2.518278 47.899573
v -38.390175 1.316205 48.623463
v -38.690701 2.869635 49.097849
v -38.986631 4.393213 49.615948
v -44.571802 -2.410224 47.709970
v -44.320129 -3.752912 47.610810
v -45.113150 -2.497610 47.594859
v -44.865377 -3.845676 47.502233
v -45.661628 0.337675 48.024169
v -45.143578 0.401975 48.152207
v -45.460239 2.026635 48.571943
v -45.957443 1.975552 48.434785
v -45.295969 6.700689 50.294018
v -44.669535 6.884349 50.388901
v -44.589531 5.937383 50.055838
v -37.766930 5.957312 50.038060
v -37.221998 6.087559 49.930258
v -38.492318 5.804340 50.074606
v -39.819058 8.252874 50.981945
v -39.696001 8.895613 51.206982
v -39.513048 9.376820 51.284341
v -45.892865 6.706169 50.264826
v -46.365734 6.798069 50.170211
v -42.672694 5.165656 49.832141
v -43.534514 5.033807 49.747354
v -41.317374 7.622572 50.800076
v -40.468138 7.610285 50.791419
v -39.258674 5.675728 50.072691
v -39.503157 6.723838 50.453445
v -44.442192 4.921081 49.666403
v -36.585961 0.185090 48.286317
v -35.988100 0.287093 48.217481
v -37.355598 0.060235 48.303506
v -43.349434 -0.836971 47.983578
v -42.466108 -0.719408 48.038742
v -44.168752 -0.945897 47.929546
v -39.790046 -0.316157 48.202528
v -38.899027 -0.175618 48.250659
v -40.711459 -0.461015 48.148586
v -41.595094 -0.594749 48.093869
v -38.107012 -0.055045 48.287971
v -44.848509 -1.044715 47.877787
v -45.381069 -1.121410 47.756641
v -35.621248 -7.557760 47.597682
v -34.812689 -7.402862 47.600998
v -35.169579 -6.103453 47.657078
v -35.963453 -6.253046 47.659366
v -42.604219 -8.903808 47.523877
v -41.835249 -8.754796 47.535083
v -42.106301 -7.410570 47.563447
v -42.882312 -7.556799 47.545826
v -38.826846 -5.497913 47.676942
v -38.540322 -6.738609 47.629347
v -37.631802 -6.568587 47.642758
v -37.916709 -5.331560 47.694890
v -39.755836 -5.667710 47.656430
v -39.466716 -6.913182 47.614111
v -40.649902 -5.831123 47.634928
v -40.375248 -7.084380 47.598055
v -41.517876 -5.989770 47.612308
v -41.257788 -7.250682 47.581150
v -37.330847 -7.885654 47.585307
v -36.458951 -7.718283 47.592333
v -36.778551 -6.406638 47.653726
v -43.398369 -4.980742 47.591841
v -44.073139 -5.099972 47.561830
v -43.822952 -6.411082 47.541930
v -43.153685 -6.288757 47.564729
v -44.618487 -5.197116 47.459795
v -44.367101 -6.510540 47.446063
v -39.722324 7.555525 50.743511
v -34.403324 -7.314759 47.569303
v -34.683861 -7.952452 47.564602
v -34.237493 -7.859389 47.534725
v -35.501424 -8.109246 47.561376
v -40.898807 -9.148422 47.527572
v -40.988092 -8.590887 47.546355
v -41.744873 -9.311928 47.519615
v -42.510983 -9.460120 47.511531
v -37.229840 -8.441119 47.553575
v -38.241360 -8.060939 47.576873
v -38.142618 -8.616778 47.548263
v -39.168690 -8.239736 47.567359
v -39.071124 -8.795692 47.542041
v -40.091723 -8.417779 47.557151
v -39.998695 -8.974614 47.535105
v -36.349751 -8.272041 47.557799
v -43.266289 -9.032211 47.513178
v -43.171242 -9.587961 47.503708
v -43.811333 -9.138114 47.427556
v -43.715708 -9.693592 47.420418
v -34.608811 -8.265016 47.540216
v -34.095153 -8.164183 47.509028
v -34.609161 -8.431180 47.430506
v -34.018863 -8.319198 47.397925
v -35.407651 -8.582764 47.427586
v -35.432827 -8.422987 47.539508
v -40.819582 -9.618177 47.378941
v -40.846322 -9.464889 47.517462
v -41.692279 -9.628306 47.511136
v -41.665737 -9.781103 47.367899
v -42.457815 -9.776308 47.504595
v -42.421840 -9.926892 47.357580
v -38.086251 -8.932690 47.532728
v -37.171174 -8.756655 47.536059
v -38.057100 -9.087867 47.408877
v -37.140809 -8.912685 47.416753
v -38.987942 -9.266256 47.399743
v -39.016206 -9.111828 47.528392
v -39.945267 -9.290970 47.523259
v -39.917883 -9.444798 47.389647
v -36.286824 -8.586810 47.538234
v -36.254604 -8.743792 47.422989
v -43.117557 -9.903963 47.498120
v -43.053370 -10.048847 47.349064
v -43.661848 -10.009496 47.415851
v -43.567937 -10.148532 47.267324
v -36.555324 -3.806583 47.786778
v -35.778545 -3.674040 47.768964
v -35.499688 -4.889785 47.702005
v -34.903422 -4.780802 47.652928
v -35.165981 -3.566365 47.711408
v -42.369098 -6.144612 47.588548
v -41.748263 -4.698339 47.654165
v -42.604435 -4.844722 47.622985
v -38.152147 -4.073785 47.764613
v -39.064851 -4.230195 47.740689
v -39.999582 -4.392563 47.713129
v -40.887058 -4.548115 47.684258
v -37.331037 -3.936185 47.782658
v -37.079543 -5.178546 47.708800
v -36.284395 -5.033211 47.713062
v -34.671065 -6.009516 47.617553
v -43.547664 -7.682173 47.529003
v -44.092324 -7.784807 47.438218
vn 0.1284 -0.1259 0.9837
vn 0.0880 -0.1362 0.9868
vn 0.0778 -0.0911 0.9928
vn 0.1147 -0.0815 0.9901
vn 0.0478 -0.2529 0.9663
vn 0.1253 -0.2291 0.9653
vn 0.1591 -0.2596 0.9525
vn 0.0668 -0.2892 0.9549
vn 0.1829 -0.2837 0.9413
vn 0.0808 -0.3099 0.9473
vn 0.2460 -0.2641 0.9326
vn 0.2150 -0.2387 0.9470
vn 0.1742 -0.2119 0.9616
vn 0.0751 -0.3172 0.9454
vn 0.1625 -0.2926 0.9423
vn 0.1412 -0.2753 0.9509
vn 0.0684 -0.3119 0.9477
vn 0.1248 -0.2693 0.9549
vn 0.0681 -0.3203 0.9449
vn 0.1686 -0.2221 0.9603
vn 0.1976 -0.2429 0.9497
vn 0.2273 -0.2723 0.9350
vn -0.0351 -0.1231 0.9918
vn -0.0383 -0.1172 0.9924
vn -0.0352 -0.0733 0.9967
vn -0.0320 -0.0790 0.9964
vn -0.0444 -0.1123 0.9927
vn -0.0407 -0.0683 0.9968
vn -0.0511 -0.2348 0.9707
vn -0.0432 -0.2402 0.9698
vn -0.0477 -0.2950 0.9543
vn -0.0581 -0.2910 0.9550
vn -0.0484 -0.3382 0.9398
vn -0.0640 -0.3381 0.9389
vn -0.0431 -0.3377 0.9403
vn -0.0434 -0.2994 0.9531
vn -0.0397 -0.2465 0.9683
vn -0.0654 -0.3649 0.9287
vn -0.1775 -0.3689 0.9124
vn -0.1632 -0.3435 0.9249
vn -0.2667 -0.3682 0.8907
vn -0.2479 -0.3459 0.9049
vn -0.2702 -0.3530 0.8958
vn -0.1775 -0.3569 0.9171
vn -0.0609 -0.3561 0.9324
vn -0.0278 -0.3535 0.9350
vn -0.0277 -0.3454 0.9380
vn -0.0458 -0.3471 0.9367
vn -0.0394 -0.3545 0.9342
vn -0.0523 -0.3436 0.9376
vn -0.0440 -0.3518 0.9350
vn -0.0493 -0.3574 0.9327
vn -0.0453 -0.3574 0.9329
vn -0.0256 -0.3542 0.9348
vn -0.0170 -0.1484 0.9888
vn -0.0225 -0.1427 0.9895
vn -0.0202 -0.0973 0.9951
vn -0.0152 -0.1026 0.9946
vn -0.0276 -0.1362 0.9903
vn -0.0248 -0.0913 0.9955
vn -0.0294 -0.2581 0.9657
vn -0.0219 -0.2621 0.9648
vn -0.0209 -0.3084 0.9510
vn -0.0304 -0.3068 0.9513
vn -0.0192 -0.3372 0.9413
vn -0.0308 -0.3381 0.9406
vn -0.0059 -0.3334 0.9428
vn -0.0115 -0.3085 0.9512
vn -0.0148 -0.2648 0.9642
vn 0.0284 -0.3412 0.9396
vn 0.0573 -0.2695 0.9613
vn 0.0108 -0.2701 0.9628
vn -0.0030 -0.3491 0.9371
vn -0.0340 -0.2722 0.9616
vn -0.0443 -0.1947 0.9799
vn 0.0168 -0.1915 0.9814
vn 0.0771 -0.1935 0.9781
vn -0.1011 -0.2841 0.9535
vn -0.1078 -0.2954 0.9493
vn -0.0370 -0.3524 0.9351
vn -0.1237 -0.3161 0.9406
vn -0.0328 -0.3498 0.9363
vn -0.2044 -0.2802 0.9379
vn -0.1700 -0.2351 0.9570
vn -0.1448 -0.2111 0.9667
vn 0.0138 -0.3391 0.9406
vn -0.0112 -0.3483 0.9373
vn -0.0152 -0.3536 0.9353
vn 0.0041 -0.3457 0.9384
vn -0.0286 -0.3572 0.9336
vn -0.0321 -0.1296 0.9910
vn -0.0290 -0.0852 0.9959
vn -0.0360 -0.2528 0.9668
vn -0.0389 -0.3037 0.9520
vn -0.0392 -0.3379 0.9404
vn -0.0771 -0.2781 0.9575
vn -0.1037 -0.2008 0.9741
vn 0.0281 -0.1481 0.9886
vn -0.0024 -0.1510 0.9885
vn -0.0024 -0.1051 0.9945
vn 0.0240 -0.1025 0.9944
vn 0.0048 -0.2631 0.9648
vn 0.0132 -0.3037 0.9527
vn 0.0228 -0.3246 0.9456
vn -0.1176 -0.1199 0.9858
vn -0.1128 -0.0756 0.9907
vn -0.1867 -0.1292 0.9739
vn -0.1808 -0.0848 0.9799
vn -0.2051 -0.2482 0.9467
vn -0.1316 -0.2411 0.9615
vn -0.1461 -0.2965 0.9438
vn -0.2248 -0.3015 0.9266
vn -0.0477 -0.3445 0.9376
vn -0.0457 -0.3392 0.9396
vn -0.0448 -0.3507 0.9354
vn 0.1813 -0.2996 0.9367
vn 0.2481 -0.2831 0.9264
vn 0.0823 -0.3205 0.9437
vn 0.0574 -0.3302 0.9422
vn 0.1001 -0.2698 0.9577
vn 0.1322 -0.2056 0.9697
vn -0.1556 -0.3353 0.9292
vn -0.2458 -0.3209 0.9147
vn -0.0363 -0.3588 0.9327
vn -0.0396 -0.3597 0.9322
vn -0.0070 -0.3402 0.9403
vn 0.0218 -0.3308 0.9434
vn 0.0335 -0.3330 0.9423
vn 0.0429 -0.3266 0.9442
vn -0.0449 -0.3617 0.9312
vn 0.1010 -0.1855 0.9774
vn 0.1452 -0.1729 0.9742
vn 0.0344 -0.2012 0.9789
vn -0.0403 -0.1748 0.9838
vn -0.0372 -0.1809 0.9828
vn -0.0470 -0.1697 0.9844
vn -0.0232 -0.2002 0.9795
vn -0.0171 -0.2053 0.9786
vn -0.0290 -0.1942 0.9805
vn -0.0341 -0.1877 0.9816
vn -0.0007 -0.2066 0.9784
vn -0.1231 -0.1773 0.9764
vn -0.1936 -0.1862 0.9632
vn 0.0062 -0.0540 0.9985
vn 0.0450 -0.0426 0.9981
vn 0.0470 -0.0284 0.9985
vn 0.0068 -0.0424 0.9991
vn -0.0124 -0.0217 0.9997
vn -0.0099 -0.0263 0.9996
vn -0.0171 -0.0240 0.9996
vn -0.0202 -0.0199 0.9996
vn -0.0129 -0.0467 0.9988
vn -0.0078 -0.0407 0.9991
vn -0.0053 -0.0439 0.9990
vn -0.0095 -0.0504 0.9987
vn -0.0158 -0.0424 0.9990
vn -0.0100 -0.0368 0.9993
vn -0.0187 -0.0376 0.9991
vn -0.0122 -0.0326 0.9994
vn -0.0215 -0.0327 0.9992
vn -0.0146 -0.0283 0.9995
vn 0.0005 -0.0501 0.9987
vn 0.0031 -0.0534 0.9986
vn -0.0009 -0.0452 0.9990
vn -0.0355 -0.0379 0.9986
vn -0.1069 -0.0458 0.9932
vn -0.0988 -0.0328 0.9946
vn -0.0284 -0.0234 0.9993
vn -0.1742 -0.0555 0.9831
vn -0.1656 -0.0440 0.9852
vn 0.0503 -0.3189 0.9465
vn 0.0812 -0.0319 0.9962
vn 0.0438 -0.0603 0.9972
vn 0.0773 -0.0515 0.9957
vn 0.0093 -0.0676 0.9977
vn -0.0021 -0.0374 0.9993
vn -0.0075 -0.0313 0.9995
vn -0.0043 -0.0324 0.9995
vn -0.0065 -0.0281 0.9996
vn 0.0056 -0.0579 0.9983
vn -0.0016 -0.0458 0.9989
vn 0.0035 -0.0527 0.9986
vn -0.0035 -0.0411 0.9991
vn 0.0016 -0.0476 0.9989
vn -0.0054 -0.0362 0.9993
vn -0.0001 -0.0425 0.9991
vn 0.0076 -0.0631 0.9980
vn -0.0808 -0.0299 0.9963
vn -0.0755 -0.0362 0.9965
vn -0.1486 -0.0404 0.9881
vn -0.1432 -0.0464 0.9886
vn 0.0888 -0.3092 0.9468
vn 0.1216 -0.3375 0.9334
vn 0.1238 -0.5355 0.8354
vn 0.1496 -0.5255 0.8375
vn 0.1027 -0.5504 0.8286
vn 0.0588 -0.3219 0.9450
vn 0.1162 -0.6405 0.7591
vn 0.0615 -0.3603 0.9308
vn 0.0615 -0.3655 0.9288
vn 0.1181 -0.6524 0.7486
vn 0.0616 -0.3704 0.9268
vn 0.1198 -0.6624 0.7396
vn 0.0597 -0.3393 0.9388
vn 0.0593 -0.3324 0.9413
vn 0.1090 -0.5944 0.7968
vn 0.1067 -0.5789 0.8084
vn 0.1115 -0.6109 0.7838
vn 0.0603 -0.3468 0.9360
vn 0.0611 -0.3543 0.9331
vn 0.1141 -0.6268 0.7708
vn 0.0592 -0.3272 0.9431
vn 0.1045 -0.5643 0.8189
vn -0.0032 -0.3848 0.9230
vn 0.0767 -0.6849 0.7246
vn -0.0655 -0.3883 0.9192
vn 0.0273 -0.7033 0.7104
vn 0.0191 -0.0684 0.9975
vn 0.0663 -0.0556 0.9962
vn 0.0543 -0.0332 0.9980
vn 0.0881 -0.0220 0.9959
vn 0.1003 -0.0454 0.9939
vn -0.0244 -0.0279 0.9993
vn -0.0275 -0.0482 0.9985
vn -0.0306 -0.0428 0.9986
vn -0.0126 -0.0697 0.9975
vn -0.0169 -0.0650 0.9977
vn -0.0209 -0.0597 0.9980
vn -0.0245 -0.0540 0.9982
vn -0.0022 -0.0717 0.9974
vn -0.0021 -0.0516 0.9987
vn 0.0124 -0.0476 0.9988
vn 0.0826 -0.0170 0.9964
vn -0.0891 -0.0300 0.9956
vn -0.1562 -0.0420 0.9868
vt 0.011464 0.819627
vt 0.023174 0.819127
vt 0.022911 0.844588
vt 0.010973 0.844989
vt 0.038380 0.764682
vt 0.023270 0.765373
vt 0.022960 0.733596
vt 0.037867 0.732762
vt 0.022780 0.701873
vt 0.037395 0.701113
vt 0.011490 0.702811
vt 0.011380 0.734553
vt 0.011475 0.766119
vt 0.038709 0.652442
vt 0.025024 0.651464
vt 0.029016 0.633268
vt 0.041244 0.636065
vt 0.036342 0.618769
vt 0.043460 0.624835
vt 0.028563 0.612334
vt 0.019565 0.629607
vt 0.014523 0.650374
vt 0.138949 0.815508
vt 0.155932 0.814901
vt 0.156119 0.841133
vt 0.139259 0.841579
vt 0.171654 0.814352
vt 0.171752 0.840735
vt 0.172156 0.758579
vt 0.155778 0.759656
vt 0.155478 0.727081
vt 0.172108 0.725739
vt 0.154931 0.695527
vt 0.171581 0.694101
vt 0.136942 0.696849
vt 0.137572 0.728411
vt 0.138162 0.760798
vt 0.170428 0.669045
vt 0.183212 0.668209
vt 0.184474 0.693158
vt 0.192847 0.667956
vt 0.194200 0.692916
vt 0.189770 0.646741
vt 0.180274 0.647698
vt 0.167901 0.648796
vt 0.101857 0.648076
vt 0.101111 0.624404
vt 0.118959 0.624715
vt 0.118977 0.648057
vt 0.135924 0.626726
vt 0.135995 0.648497
vt 0.136631 0.607079
vt 0.119310 0.603422
vt 0.100445 0.602916
vt 0.068380 0.817388
vt 0.086022 0.816866
vt 0.086400 0.842662
vt 0.068592 0.843105
vt 0.104323 0.816395
vt 0.104782 0.842271
vt 0.104186 0.762355
vt 0.086327 0.762964
vt 0.086193 0.730693
vt 0.103889 0.729888
vt 0.085846 0.698839
vt 0.103368 0.697976
vt 0.068541 0.699769
vt 0.068797 0.731488
vt 0.068920 0.763526
vt 0.066216 0.612610
vt 0.063081 0.597973
vt 0.080601 0.590369
vt 0.082412 0.606542
vt 0.099789 0.586025
vt 0.099448 0.575201
vt 0.079064 0.579794
vt 0.059978 0.588149
vt 0.138737 0.591655
vt 0.153875 0.600304
vt 0.149911 0.612983
vt 0.165630 0.612649
vt 0.159546 0.618692
vt 0.173429 0.607235
vt 0.159150 0.592399
vt 0.141305 0.581798
vt 0.068261 0.649905
vt 0.084729 0.648687
vt 0.085406 0.672202
vt 0.068456 0.672910
vt 0.102663 0.671666
vt 0.121855 0.815975
vt 0.122274 0.841935
vt 0.121213 0.761665
vt 0.120693 0.729236
vt 0.120075 0.697488
vt 0.119910 0.586662
vt 0.120770 0.575933
vt 0.038183 0.818555
vt 0.052838 0.817963
vt 0.052832 0.843595
vt 0.037988 0.844101
vt 0.053262 0.764082
vt 0.052906 0.732118
vt 0.052505 0.700466
vt 0.184974 0.814056
vt 0.185062 0.840522
vt 0.195809 0.813975
vt 0.195961 0.840448
vt 0.195814 0.757701
vt 0.185419 0.757901
vt 0.185191 0.724882
vt 0.195213 0.724648
vt 0.163104 0.631085
vt 0.150455 0.629595
vt 0.152732 0.648931
vt 0.023210 0.674316
vt 0.012189 0.674679
vt 0.037557 0.674146
vt 0.052909 0.619674
vt 0.048027 0.607212
vt 0.042600 0.598729
vt 0.174442 0.628889
vt 0.183481 0.625994
vt 0.119439 0.671442
vt 0.136369 0.671063
vt 0.083771 0.626486
vt 0.067739 0.629945
vt 0.052568 0.673616
vt 0.053022 0.651545
vt 0.154096 0.670126
vt 0.023344 0.793158
vt 0.011553 0.793756
vt 0.038425 0.792546
vt 0.155895 0.788210
vt 0.138629 0.789084
vt 0.171908 0.787412
vt 0.086145 0.790884
vt 0.068656 0.791395
vt 0.104236 0.790365
vt 0.121569 0.789784
vt 0.053134 0.791953
vt 0.185229 0.786934
vt 0.195894 0.786788
vt 0.033754 0.944411
vt 0.017842 0.944464
vt 0.019819 0.918467
vt 0.035436 0.918354
vt 0.171071 0.944470
vt 0.155944 0.944429
vt 0.156214 0.917913
vt 0.171483 0.917898
vt 0.086995 0.893458
vt 0.086101 0.918096
vt 0.068245 0.918194
vt 0.069110 0.893630
vt 0.105252 0.893299
vt 0.104313 0.918032
vt 0.122824 0.893163
vt 0.122173 0.917979
vt 0.139884 0.893040
vt 0.139526 0.917941
vt 0.067374 0.944339
vt 0.050230 0.944368
vt 0.051465 0.918256
vt 0.171967 0.867127
vt 0.185230 0.866997
vt 0.185209 0.892784
vt 0.172047 0.892848
vt 0.196120 0.866950
vt 0.196063 0.892758
vt 0.053856 0.634016
vt 0.009720 0.944354
vt 0.017437 0.955381
vt 0.008600 0.955351
vt 0.033517 0.955344
vt 0.139626 0.955312
vt 0.139284 0.944389
vt 0.156259 0.955347
vt 0.171314 0.955370
vt 0.067500 0.955275
vt 0.085277 0.944329
vt 0.085444 0.955261
vt 0.103510 0.944336
vt 0.103696 0.955264
vt 0.121659 0.944357
vt 0.121930 0.955282
vt 0.050197 0.955305
vt 0.184111 0.944521
vt 0.184285 0.955380
vt 0.194992 0.944651
vt 0.195122 0.955606
vt 0.017180 0.961597
vt 0.007066 0.961715
vt 0.017763 0.965397
vt 0.006123 0.965574
vt 0.033480 0.965373
vt 0.033370 0.961568
vt 0.139859 0.965546
vt 0.139788 0.961518
vt 0.156421 0.961552
vt 0.156501 0.965636
vt 0.171467 0.961575
vt 0.171384 0.965711
vt 0.085534 0.961473
vt 0.067547 0.961491
vt 0.085560 0.965354
vt 0.067553 0.965334
vt 0.103854 0.965398
vt 0.103812 0.961473
vt 0.122074 0.961489
vt 0.122132 0.965465
vt 0.050162 0.961525
vt 0.050134 0.965342
vt 0.184375 0.961535
vt 0.183862 0.965688
vt 0.195123 0.961859
vt 0.194127 0.966085
vt 0.037652 0.869654
vt 0.022413 0.870061
vt 0.021608 0.894199
vt 0.009847 0.894397
vt 0.010336 0.870382
vt 0.156615 0.892917
vt 0.139572 0.867663
vt 0.156380 0.867376
vt 0.068958 0.868834
vt 0.086869 0.868472
vt 0.105223 0.868161
vt 0.122656 0.867908
vt 0.052857 0.869236
vt 0.052658 0.893803
vt 0.037032 0.893988
vt 0.009980 0.918570
vt 0.184583 0.917900
vt 0.195442 0.917928
s 0
f 1/1/1 2/2/2 3/3/3 4/4/4
f 5/5/5 6/6/6 7/7/7 8/8/8
f 8/8/8 7/7/7 9/9/9 10/10/10
f 11/11/11 9/9/9 7/7/7 12/12/12
f 12/12/12 7/7/7 6/6/6 13/13/13
f 14/14/14 15/15/15 16/16/16 17/17/17
f 17/17/17 16/16/16 18/18/18 19/19/19
f 20/20/20 18/18/18 16/16/16 21/21/21
f 21/21/21 16/16/16 15/15/15 22/22/22
f 23/23/23 24/24/24 25/25/25 26/26/26
f 24/24/24 27/27/27 28/28/28 25/25/25
f 29/29/29 30/30/30 31/31/31 32/32/32
f 32/32/32 31/31/31 33/33/33 34/34/34
f 35/35/35 33/33/33 31/31/31 36/36/36
f 36/36/36 31/31/31 30/30/30 37/37/37
f 34/34/34 38/38/38 39/39/39 40/40/40
f 40/40/40 39/39/39 41/41/41 42/42/42
f 43/43/43 41/41/41 39/39/39 44/44/44
f 44/44/44 39/39/39 38/38/38 45/45/45
f 46/46/46 47/47/47 48/48/48 49/49/49
f 49/49/49 48/48/48 50/50/50 51/51/51
f 52/52/52 50/50/50 48/48/48 53/53/53
f 53/53/53 48/48/48 47/47/47 54/54/54
f 55/55/55 56/56/56 57/57/57 58/58/58
f 56/56/56 59/59/59 60/60/60 57/57/57
f 61/61/61 62/62/62 63/63/63 64/64/64
f 64/64/64 63/63/63 65/65/65 66/66/66
f 67/67/67 65/65/65 63/63/63 68/68/68
f 68/68/68 63/63/63 62/62/62 69/69/69
f 70/70/70 71/71/71 72/72/72 73/73/73
f 73/73/73 72/72/72 74/74/74 54/54/54
f 75/75/75 74/74/74 72/72/72 76/76/76
f 76/76/76 72/72/72 71/71/71 77/77/77
f 52/52/52 78/78/78 79/79/79 80/80/80
f 80/80/80 79/79/79 81/81/81 82/82/82
f 83/83/83 81/81/81 79/79/79 84/84/84
f 84/84/84 79/79/79 78/78/78 85/85/85
f 86/86/86 87/87/87 88/88/88 89/89/89
f 89/89/89 88/88/88 65/65/65 67/67/67
f 66/66/66 65/65/65 88/88/88 90/90/90
f 90/90/90 88/88/88 87/87/87 46/46/46
f 59/59/59 91/91/91 92/92/92 60/60/60
f 91/91/91 23/23/23 26/26/26 92/92/92
f 37/37/37 93/93/93 94/94/94 36/36/36
f 36/36/36 94/94/94 95/95/95 35/35/35
f 66/66/66 95/95/95 94/94/94 64/64/64
f 64/64/64 94/94/94 93/93/93 61/61/61
f 52/52/52 53/53/53 96/96/96 78/78/78
f 78/78/78 96/96/96 97/97/97 85/85/85
f 75/75/75 97/97/97 96/96/96 74/74/74
f 74/74/74 96/96/96 53/53/53 54/54/54
f 98/98/98 99/99/99 100/100/100 101/101/101
f 69/69/69 102/102/102 103/103/103 68/68/68
f 68/68/68 103/103/103 104/104/104 67/67/67
f 10/10/10 104/104/104 103/103/103 8/8/8
f 8/8/8 103/103/103 102/102/102 5/5/5
f 27/27/27 105/105/105 106/106/106 28/28/28
f 105/105/105 107/107/107 108/108/108 106/106/106
f 109/109/109 110/110/110 111/111/111 112/112/112
f 112/112/112 111/111/111 40/40/40 42/42/42
f 34/34/34 40/40/40 111/111/111 32/32/32
f 32/32/32 111/111/111 110/110/110 29/29/29
f 82/82/82 113/113/113 114/114/114 80/80/80
f 80/80/80 114/114/114 50/50/50 52/52/52
f 51/51/51 50/50/50 114/114/114 115/115/115
f 115/115/115 114/114/114 113/113/113 45/45/45
f 22/22/22 15/15/15 116/116/116 117/117/117
f 117/117/117 116/116/116 9/9/9 11/11/11
f 10/10/10 9/9/9 116/116/116 118/118/118
f 118/118/118 116/116/116 15/15/15 14/14/14
f 70/70/70 119/119/119 120/120/120 71/71/71
f 71/71/71 120/120/120 121/121/121 77/77/77
f 20/20/20 121/121/121 120/120/120 18/18/18
f 18/18/18 120/120/120 119/119/119 19/19/19
f 45/45/45 113/113/113 122/122/122 44/44/44
f 44/44/44 122/122/122 123/123/123 43/43/43
f 83/83/83 123/123/123 122/122/122 81/81/81
f 81/81/81 122/122/122 113/113/113 82/82/82
f 46/46/46 49/49/49 124/124/124 90/90/90
f 90/90/90 124/124/124 95/95/95 66/66/66
f 35/35/35 95/95/95 124/124/124 125/125/125
f 125/125/125 124/124/124 49/49/49 51/51/51
f 46/46/46 87/87/87 126/126/126 47/47/47
f 47/47/47 126/126/126 73/73/73 54/54/54
f 70/70/70 73/73/73 126/126/126 127/127/127
f 127/127/127 126/126/126 87/87/87 86/86/86
f 67/67/67 104/104/104 128/128/128 89/89/89
f 89/89/89 128/128/128 129/129/129 86/86/86
f 14/14/14 129/129/129 128/128/128 118/118/118
f 118/118/118 128/128/128 104/104/104 10/10/10
f 35/35/35 125/125/125 130/130/130 33/33/33
f 33/33/33 130/130/130 38/38/38 34/34/34
f 45/45/45 38/38/38 130/130/130 115/115/115
f 115/115/115 130/130/130 125/125/125 51/51/51
f 13/13/13 6/6/6 131/131/131 132/132/132
f 132/132/132 131/131/131 2/2/2 1/1/1
f 98/98/98 2/2/2 131/131/131 133/133/133
f 133/133/133 131/131/131 6/6/6 5/5/5
f 37/37/37 30/30/30 134/134/134 135/135/135
f 135/135/135 134/134/134 24/24/24 23/23/23
f 27/27/27 24/24/24 134/134/134 136/136/136
f 136/136/136 134/134/134 30/30/30 29/29/29
f 69/69/69 62/62/62 137/137/137 138/138/138
f 138/138/138 137/137/137 56/56/56 55/55/55
f 59/59/59 56/56/56 137/137/137 139/139/139
f 139/139/139 137/137/137 62/62/62 61/61/61
f 61/61/61 93/93/93 140/140/140 139/139/139
f 139/139/139 140/140/140 91/91/91 59/59/59
f 23/23/23 91/91/91 140/140/140 135/135/135
f 135/135/135 140/140/140 93/93/93 37/37/37
f 98/98/98 133/133/133 141/141/141 99/99/99
f 99/99/99 141/141/141 138/138/138 55/55/55
f 69/69/69 138/138/138 141/141/141 102/102/102
f 102/102/102 141/141/141 133/133/133 5/5/5
f 29/29/29 110/110/110 142/142/142 136/136/136
f 136/136/136 142/142/142 105/105/105 27/27/27
f 107/107/107 105/105/105 142/142/142 143/143/143
f 143/143/143 142/142/142 110/110/110 109/109/109
f 144/144/144 145/145/145 146/146/146 147/147/147
f 148/148/148 149/149/149 150/150/150 151/151/151
f 152/152/152 153/153/153 154/154/154 155/155/155
f 156/156/156 157/157/157 153/153/153 152/152/152
f 156/156/156 158/158/158 159/159/159 157/157/157
f 160/160/160 161/161/161 159/159/159 158/158/158
f 162/162/162 163/163/163 164/164/164 154/154/154
f 165/165/165 166/166/166 167/167/167 168/168/168
f 166/166/166 169/169/169 170/170/170 167/167/167
f 86/86/86 129/129/129 171/171/171 127/127/127
f 127/127/127 171/171/171 119/119/119 70/70/70
f 19/19/19 119/119/119 171/171/171 17/17/17
f 17/17/17 171/171/171 129/129/129 14/14/14
f 172/172/172 145/145/145 173/173/173 174/174/174
f 175/175/175 173/173/173 145/145/145 144/144/144
f 176/176/176 177/177/177 149/149/149 178/178/178
f 178/178/178 149/149/149 148/148/148 179/179/179
f 180/180/180 162/162/162 181/181/181 182/182/182
f 182/182/182 181/181/181 183/183/183 184/184/184
f 184/184/184 183/183/183 185/185/185 186/186/186
f 186/186/186 185/185/185 177/177/177 176/176/176
f 144/144/144 163/163/163 187/187/187 175/175/175
f 180/180/180 187/187/187 163/163/163 162/162/162
f 179/179/179 148/148/148 188/188/188 189/189/189
f 189/189/189 188/188/188 190/190/190 191/191/191
f 174/174/174 173/173/173 192/192/192 193/193/193
f 193/193/193 192/192/192 194/194/194 195/195/195
f 196/196/196 194/194/194 192/192/192 197/197/197
f 197/197/197 192/192/192 173/173/173 175/175/175
f 198/198/198 199/199/199 200/200/200 201/201/201
f 201/201/201 200/200/200 202/202/202 203/203/203
f 179/179/179 202/202/202 200/200/200 178/178/178
f 178/178/178 200/200/200 199/199/199 176/176/176
f 180/180/180 182/182/182 204/204/204 205/205/205
f 205/205/205 204/204/204 206/206/206 207/207/207
f 208/208/208 206/206/206 204/204/204 209/209/209
f 209/209/209 204/204/204 182/182/182 184/184/184
f 208/208/208 209/209/209 210/210/210 211/211/211
f 211/211/211 210/210/210 199/199/199 198/198/198
f 176/176/176 199/199/199 210/210/210 186/186/186
f 186/186/186 210/210/210 209/209/209 184/184/184
f 175/175/175 187/187/187 212/212/212 197/197/197
f 197/197/197 212/212/212 213/213/213 196/196/196
f 207/207/207 213/213/213 212/212/212 205/205/205
f 205/205/205 212/212/212 187/187/187 180/180/180
f 203/203/203 202/202/202 214/214/214 215/215/215
f 215/215/215 214/214/214 216/216/216 217/217/217
f 191/191/191 216/216/216 214/214/214 189/189/189
f 189/189/189 214/214/214 202/202/202 179/179/179
f 181/181/181 162/162/162 154/154/154 153/153/153
f 3/3/3 101/101/101 218/218/218 219/219/219
f 220/220/220 221/221/221 222/222/222 219/219/219
f 223/223/223 160/160/160 224/224/224 225/225/225
f 152/152/152 155/155/155 226/226/226 227/227/227
f 156/156/156 152/152/152 227/227/227 228/228/228
f 158/158/158 156/156/156 228/228/228 229/229/229
f 160/160/160 158/158/158 229/229/229 224/224/224
f 100/100/100 58/58/58 226/226/226 230/230/230
f 231/231/231 232/232/232 218/218/218 230/230/230
f 145/145/145 172/172/172 233/233/233 146/146/146
f 223/223/223 168/168/168 151/151/151 150/150/150
f 163/163/163 144/144/144 147/147/147 164/164/164
f 220/220/220 232/232/232 147/147/147 146/146/146
f 149/149/149 177/177/177 161/161/161 150/150/150
f 183/183/183 181/181/181 153/153/153 157/157/157
f 185/185/185 183/183/183 157/157/157 159/159/159
f 177/177/177 185/185/185 159/159/159 161/161/161
f 164/164/164 231/231/231 155/155/155 154/154/154
f 188/188/188 148/148/148 151/151/151 234/234/234
f 190/190/190 188/188/188 234/234/234 235/235/235
f 219/219/219 218/218/218 232/232/232 220/220/220
f 230/230/230 226/226/226 155/155/155 231/231/231
f 234/234/234 151/151/151 168/168/168 167/167/167
f 235/235/235 234/234/234 167/167/167 170/170/170
f 220/220/220 146/146/146 233/233/233 221/221/221
f 223/223/223 150/150/150 161/161/161 160/160/160
f 164/164/164 147/147/147 232/232/232 231/231/231
f 223/223/223 225/225/225 165/165/165 168/168/168
f 219/219/219 222/222/222 4/4/4 3/3/3
f 225/225/225 224/224/224 26/26/26 25/25/25
f 165/165/165 225/225/225 25/25/25 28/28/28
f 227/227/227 226/226/226 58/58/58 57/57/57
f 228/228/228 227/227/227 57/57/57 60/60/60
f 229/229/229 228/228/228 60/60/60 92/92/92
f 224/224/224 229/229/229 92/92/92 26/26/26
f 230/230/230 218/218/218 101/101/101 100/100/100
f 166/166/166 165/165/165 28/28/28 106/106/106
f 169/169/169 166/166/166 106/106/106 108/108/108
f 2/2/2 98/98/98 101/101/101 3/3/3
f 99/99/99 55/55/55 58/58/58 100/100/100
