# Blender 4.5.3 LTS
# www.blender.org
o Decal-Special
v -2.090472 -27.458601 42.410812
v -3.865145 -27.458590 41.224948
v -5.050977 -27.458586 39.450204
v -5.467379 -27.458582 37.356763
v -5.050979 -27.458575 35.263313
v -3.865152 -27.458575 33.488578
v -2.090481 -27.458586 32.302721
v 0.002554 -27.458597 42.827247
v 2.095581 -27.458601 42.410819
v 3.870252 -27.458597 41.224948
v 5.056079 -27.458601 39.450204
v 5.472487 -27.458597 37.356763
v 5.056086 -27.458586 35.263313
v 3.870252 -27.458586 33.488578
v 2.095581 -27.458586 32.302721
v 0.002553 -27.458586 31.886285
v -1.692423 -27.500075 41.279411
v -3.097889 -27.500067 40.457597
v -3.919675 -27.500060 39.052023
v -4.193853 -27.500071 37.356763
v -3.919675 -27.500060 35.661502
v -3.097889 -27.500060 34.255935
v -1.692425 -27.500056 33.434114
v 0.002554 -27.500075 41.553600
v 1.697530 -27.500075 41.279411
v 3.102990 -27.500071 40.457597
v 3.924772 -27.500071 39.052015
v 4.198952 -27.500075 37.356763
v 3.924774 -27.500067 35.661502
v 3.102988 -27.500060 34.255928
v 1.697529 -27.500060 33.434114
v 0.002554 -27.500056 33.159925
v -2.462745 -27.500056 34.891164
v -1.409421 -27.500052 34.662558
v 0.002552 -27.500060 34.573159
v 1.414516 -27.500067 34.662551
v 2.467842 -27.500060 34.891164
v -2.691346 -27.500060 35.944594
v -1.365067 -27.500060 35.988978
v 0.002553 -27.500060 35.984135
v 1.370167 -27.500060 35.988978
v 2.696445 -27.500060 35.944594
v -2.780741 -27.500075 37.356763
v -1.369905 -27.500071 37.356763
v 0.002554 -27.500067 37.356763
v 1.375010 -27.500067 37.356763
v 2.785839 -27.500075 37.356763
v -2.691346 -27.500060 38.768931
v -1.365067 -27.500056 38.724548
v 0.002553 -27.500060 38.729390
v 1.370167 -27.500060 38.724555
v 2.696439 -27.500056 38.768931
v -2.462744 -27.500071 39.822361
v -1.409415 -27.500067 40.050974
v 0.002554 -27.500067 40.140374
v 1.414522 -27.500071 40.050974
v 2.467842 -27.500075 39.822361
v 0.002554 -27.500071 42.508914
v -1.977075 -27.500071 42.121364
v -1.977082 -27.500060 32.592146
v 0.002553 -27.500056 32.204604
v -3.653136 -27.500056 33.700614
v -4.761564 -27.500056 35.376748
v -5.149083 -27.500067 37.356763
v -4.761564 -27.500067 39.336777
v -3.653134 -27.500071 41.012911
v 1.982183 -27.500071 42.121372
v 1.982182 -27.500060 32.592146
v 3.658235 -27.500060 33.700614
v 4.766671 -27.500060 35.376748
v 5.154190 -27.500075 37.356763
v 4.766666 -27.500071 39.336777
v 3.658240 -27.500071 41.012911
v -1.070736 -27.340774 42.753807
v -1.070741 -27.340766 31.959726
v -3.054127 -27.340766 32.781391
v -4.572316 -27.340759 34.299603
v -5.393947 -27.340766 36.283231
v -5.393947 -27.340766 38.430287
v -4.572314 -27.340774 40.413915
v -3.054120 -27.340770 41.932127
v 1.075845 -27.340774 42.753807
v 1.075845 -27.340766 31.959726
v 3.059228 -27.340770 32.781391
v 4.577423 -27.340770 34.299603
v 5.399055 -27.340774 36.283231
v 5.399051 -27.340777 38.430287
v 4.577418 -27.340774 40.413915
v 3.059228 -27.340770 41.932127
v -1.044850 -27.499866 42.623630
v -1.044855 -27.499855 32.089895
v -2.980403 -27.499847 32.891741
v -4.461976 -27.499847 34.373341
v -5.263789 -27.499851 36.309121
v -5.263789 -27.499855 38.404396
v -4.461973 -27.499855 40.340184
v -2.980396 -27.499866 41.821784
v 1.049958 -27.499866 42.623638
v 1.049958 -27.499855 32.089895
v 2.985502 -27.499851 32.891741
v 4.467079 -27.499851 34.373341
v 5.268897 -27.499866 36.309121
v 5.268893 -27.499866 38.404396
v 4.467077 -27.499866 40.340184
v 2.985505 -27.499870 41.821784
v -1.999586 -27.500060 35.354382
v -0.692171 -27.500060 35.295321
v 0.697272 -27.500060 35.295321
v 2.004682 -27.500067 35.354382
v -2.058650 -27.500067 36.661951
v -0.681363 -27.500060 36.672762
v 0.686469 -27.500060 36.672762
v 2.063751 -27.500067 36.661951
v -2.058650 -27.500071 38.051574
v -0.681363 -27.500067 38.040771
v 0.686469 -27.500067 38.040771
v 2.063749 -27.500067 38.051574
v -1.999583 -27.500067 39.359143
v -0.692168 -27.500067 39.418212
v 0.697274 -27.500067 39.418212
v 2.004682 -27.500067 39.359151
v -0.782766 -27.500067 40.827817
v 0.787875 -27.500071 40.827817
v 2.214106 -27.500075 40.473206
v 3.118621 -27.500071 39.568624
v 3.473222 -27.500067 38.142210
v 3.473225 -27.500067 36.571315
v 3.118623 -27.500060 35.144901
v 2.214103 -27.500056 34.240326
v 0.787872 -27.500060 33.885708
v -0.782769 -27.500056 33.885708
v -2.209005 -27.500056 34.240326
v -3.113525 -27.500056 35.144901
v -3.468126 -27.500060 36.571315
v -3.468126 -27.500060 38.142210
v -3.113525 -27.500060 39.568624
v -2.209002 -27.500067 40.473206
v -0.941355 -27.500071 42.021467
v -0.941358 -27.500056 32.692058
v -2.684345 -27.500060 33.368236
v -3.985528 -27.500056 34.669457
v -4.661674 -27.500060 36.412662
v -4.661674 -27.500060 38.300863
v -3.985528 -27.500060 40.044060
v -2.684343 -27.500067 41.345289
v 0.946464 -27.500071 42.021467
v 0.946464 -27.500056 32.692058
v 2.689446 -27.500067 33.368236
v 3.990629 -27.500067 34.669457
v 4.666778 -27.500067 36.412662
v 4.666775 -27.500067 38.300855
v 3.990629 -27.500075 40.044060
v 2.689449 -27.500075 41.345297
v -2.103227 -27.340774 42.441605
v -1.064235 -27.458597 42.721114
v 0.002554 -27.340777 42.860573
v 0.002553 -27.340770 31.852952
v -1.064240 -27.458590 31.992412
v -2.103235 -27.340770 32.271920
v -3.035613 -27.458575 32.809107
v -3.888718 -27.340759 33.465004
v -4.544608 -27.458582 34.318125
v -5.081772 -27.340759 35.250558
v -5.361260 -27.458586 36.289735
v -5.500710 -27.340766 37.356763
v -5.361260 -27.458590 38.423790
v -5.081772 -27.340766 39.462960
v -4.544604 -27.458590 40.395400
v -3.888713 -27.340770 41.248521
v -3.035605 -27.458601 41.904418
v 2.108335 -27.340774 42.441605
v 1.069344 -27.458597 42.721114
v 2.108335 -27.340770 32.271920
v 1.069344 -27.458590 31.992412
v 3.893821 -27.340770 33.465004
v 3.040713 -27.458586 32.809107
v 5.086880 -27.340770 35.250558
v 4.549711 -27.458590 34.318125
v 5.505818 -27.340774 37.356763
v 5.366368 -27.458601 36.289735
v 5.086874 -27.340774 39.462960
v 5.366363 -27.458601 38.423790
v 3.893820 -27.340774 41.248521
v 4.549708 -27.458597 40.395400
v 3.040713 -27.458601 41.904418
v -1.006480 -27.500071 42.410253
v 0.002554 -27.499866 42.727834
v -2.052439 -27.499866 42.318976
v -1.006484 -27.500056 32.303272
v -2.052447 -27.499855 32.394557
v 0.002553 -27.499851 31.985691
v -2.870798 -27.500056 33.064140
v -3.794868 -27.499847 33.558866
v -4.289596 -27.500060 34.482969
v -4.959147 -27.499855 35.301356
v -5.050428 -27.500060 36.347507
v -5.367982 -27.499855 37.356763
v -5.050428 -27.500060 38.366011
v -4.959146 -27.499855 39.412162
v -4.289596 -27.500067 40.230563
v -3.794863 -27.499862 41.154659
v -2.870794 -27.500067 41.649385
v 1.011588 -27.500071 42.410253
v 2.057547 -27.499866 42.318976
v 1.011588 -27.500056 32.303272
v 2.057547 -27.499855 32.394557
v 2.875897 -27.500067 33.064140
v 3.799967 -27.499855 33.558874
v 4.294699 -27.500067 34.482962
v 4.964254 -27.499862 35.301356
v 5.055535 -27.500071 36.347507
v 5.373089 -27.499866 37.356763
v 5.055531 -27.500067 38.366011
v 4.964247 -27.499866 39.412162
v 4.294698 -27.500071 40.230556
v 3.799970 -27.499870 41.154659
v 2.875901 -27.500075 41.649392
v -2.031699 -27.500056 34.769489
v -1.366387 -27.500056 35.319379
v -2.034594 -27.500067 35.987651
v -2.584416 -27.500060 35.322255
v -0.720175 -27.500056 34.596196
v 0.002552 -27.500060 35.286030
v -0.684114 -27.500060 35.986400
v 0.725276 -27.500060 34.596196
v 1.371483 -27.500060 35.319371
v 0.689217 -27.500060 35.986400
v 2.036794 -27.500067 34.769489
v 2.589513 -27.500067 35.322255
v 2.039692 -27.500067 35.987651
v -1.367643 -27.500060 36.670013
v -2.067941 -27.500071 37.356763
v -2.757704 -27.500067 36.633937
v 0.002554 -27.500071 36.672814
v -0.681314 -27.500071 37.356763
v 1.372747 -27.500060 36.670013
v 0.686421 -27.500071 37.356763
v 2.762804 -27.500071 36.633937
v 2.073043 -27.500071 37.356763
v -1.367643 -27.500067 38.043512
v -2.034593 -27.500067 38.725874
v -2.757704 -27.500071 38.079588
v 0.002554 -27.500067 38.040718
v -0.684113 -27.500060 38.727125
v 1.372746 -27.500067 38.043512
v 0.689218 -27.500060 38.727125
v 2.762800 -27.500071 38.079588
v 2.039689 -27.500067 38.725881
v -1.366383 -27.500056 39.394146
v -2.031695 -27.500067 39.944036
v -2.584415 -27.500067 39.391278
v 0.002554 -27.500067 39.427502
v -0.720172 -27.500067 40.117337
v 1.371486 -27.500067 39.394146
v 0.725279 -27.500071 40.117329
v 2.589510 -27.500071 39.391278
v 2.036797 -27.500075 39.944036
v -1.531985 -27.500071 40.693669
v 0.002554 -27.500071 40.873317
v -0.862359 -27.500071 41.484310
v 1.537093 -27.500075 40.693669
v 0.867467 -27.500075 41.484310
v 2.760690 -27.500075 40.115251
v 2.457894 -27.500075 40.941885
v 3.339073 -27.500071 38.891537
v 3.587248 -27.500071 39.812459
v 3.518721 -27.500071 37.356763
v 4.129664 -27.500071 38.221827
v 3.339077 -27.500067 35.821988
v 4.129666 -27.500071 36.491698
v 2.760690 -27.500060 34.598274
v 3.587249 -27.500060 34.901066
v 1.537089 -27.500060 34.019856
v 2.457893 -27.500056 33.771655
v 0.002553 -27.500056 33.840208
v 0.867466 -27.500056 33.229208
v -1.531989 -27.500056 34.019864
v -0.862360 -27.500052 33.229215
v -2.755591 -27.500060 34.598274
v -2.452791 -27.500056 33.771655
v -3.333978 -27.500060 35.821988
v -3.582150 -27.500056 34.901066
v -3.513623 -27.500071 37.356763
v -4.124566 -27.500060 36.491698
v -3.333978 -27.500067 38.891537
v -4.124566 -27.500067 38.221827
v -2.755591 -27.500067 40.115251
v -3.582150 -27.500060 39.812459
v -2.452790 -27.500067 40.941878
v -1.849057 -27.500071 41.765390
v 0.002554 -27.500071 42.108490
v 0.002554 -27.500056 32.605028
v -1.849061 -27.500060 32.948127
v -3.409179 -27.500056 33.944598
v -4.405617 -27.500060 35.504816
v -4.748694 -27.500067 37.356763
v -4.405617 -27.500060 39.208709
v -3.409178 -27.500067 40.768927
v 1.854165 -27.500075 41.765398
v 1.854164 -27.500060 32.948127
v 3.414279 -27.500060 33.944598
v 4.410720 -27.500060 35.504816
v 4.753797 -27.500071 37.356763
v 4.410718 -27.500067 39.208709
v 3.414282 -27.500075 40.768927
vn -0.2889 -0.6558 0.6975
vn -0.1471 -0.6557 0.7406
vn -0.1857 -0.3066 0.9335
vn -0.3642 -0.3096 0.8784
vn -0.0002 -0.6555 0.7552
vn 0.0006 -0.3084 0.9513
vn -0.0001 -0.6559 -0.7548
vn -0.1476 -0.6556 -0.7405
vn -0.1858 -0.3066 -0.9335
vn 0.0003 -0.3097 -0.9508
vn -0.2894 -0.6541 -0.6989
vn -0.3646 -0.3063 -0.8793
vn -0.4199 -0.6553 -0.6280
vn -0.5288 -0.3061 -0.7916
vn -0.5349 -0.6540 -0.5350
vn -0.6734 -0.3062 -0.6729
vn -0.6282 -0.6553 -0.4195
vn -0.7915 -0.3061 -0.5290
vn -0.6988 -0.6540 -0.2896
vn -0.8796 -0.3062 -0.3640
vn -0.7409 -0.6554 -0.1471
vn -0.9337 -0.3061 -0.1859
vn -0.7564 -0.6541 -0.0001
vn -0.9520 -0.3062 0.0003
vn -0.7408 -0.6553 0.1476
vn -0.9338 -0.3061 0.1856
vn -0.6989 -0.6540 0.2894
vn -0.8794 -0.3062 0.3646
vn -0.6280 -0.6553 0.4199
vn -0.7917 -0.3061 0.5288
vn -0.5343 -0.6553 0.5340
vn -0.6723 -0.3083 0.6731
vn -0.4178 -0.6592 0.6252
vn -0.5282 -0.3110 0.7901
vn 0.2885 -0.6572 0.6964
vn 0.3637 -0.3117 0.8778
vn 0.1852 -0.3111 0.9321
vn 0.1467 -0.6593 0.7374
vn 0.1854 -0.3117 -0.9319
vn 0.1467 -0.6596 -0.7372
vn 0.3636 -0.3118 -0.8778
vn 0.2884 -0.6572 -0.6963
vn 0.5279 -0.3117 -0.7900
vn 0.4176 -0.6595 -0.6250
vn 0.6719 -0.3118 -0.6718
vn 0.5330 -0.6572 -0.5330
vn 0.7901 -0.3116 -0.5279
vn 0.6250 -0.6595 -0.4176
vn 0.8778 -0.3118 -0.3636
vn 0.6963 -0.6572 -0.2884
vn 0.9320 -0.3116 -0.1854
vn 0.7372 -0.6596 -0.1466
vn 0.9502 -0.3118 -0.0000
vn 0.7537 -0.6573 -0.0000
vn 0.9320 -0.3116 0.1854
vn 0.7372 -0.6596 0.1466
vn 0.8778 -0.3118 0.3636
vn 0.6964 -0.6572 0.2884
vn 0.7901 -0.3116 0.5279
vn 0.6250 -0.6595 0.4176
vn 0.6719 -0.3117 0.6719
vn 0.5330 -0.6571 0.5330
vn 0.5279 -0.3116 0.7901
vn 0.4177 -0.6595 0.6250
vn -0.0009 -1.0000 0.0020
vn -0.0004 -1.0000 0.0021
vn -0.0436 -0.9748 0.2190
vn -0.0850 -0.9749 0.2056
vn -0.0000 -1.0000 0.0021
vn -0.0002 -0.9750 0.2223
vn -0.0000 -1.0000 -0.0021
vn -0.0004 -1.0000 -0.0021
vn -0.0435 -0.9747 -0.2190
vn -0.0002 -0.9750 -0.2223
vn -0.0009 -1.0000 -0.0021
vn -0.0856 -0.9747 -0.2065
vn -0.0013 -1.0000 -0.0019
vn -0.1242 -0.9747 -0.1860
vn -0.0017 -1.0000 -0.0017
vn -0.1583 -0.9746 -0.1582
vn -0.0019 -1.0000 -0.0013
vn -0.1859 -0.9747 -0.1243
vn -0.0021 -1.0000 -0.0009
vn -0.2066 -0.9747 -0.0855
vn -0.0021 -1.0000 -0.0004
vn -0.2191 -0.9747 -0.0436
vn -0.0021 -1.0000 -0.0000
vn -0.2234 -0.9747 -0.0000
vn -0.0021 -1.0000 0.0004
vn -0.2191 -0.9747 0.0435
vn -0.0021 -1.0000 0.0009
vn -0.2066 -0.9747 0.0856
vn -0.0019 -1.0000 0.0013
vn -0.1860 -0.9747 0.1242
vn -0.0016 -1.0000 0.0017
vn -0.1576 -0.9749 0.1573
vn -0.0012 -1.0000 0.0019
vn -0.1231 -0.9752 0.1841
vn 0.0004 -1.0000 0.0021
vn 0.0432 -0.9752 0.2170
vn 0.0009 -1.0000 0.0020
vn 0.0847 -0.9752 0.2045
vn 0.0009 -1.0000 -0.0020
vn 0.0004 -1.0000 -0.0021
vn 0.0432 -0.9752 -0.2170
vn 0.0848 -0.9752 -0.2046
vn 0.0017 -1.0000 -0.0017
vn 0.0013 -1.0000 -0.0019
vn 0.1231 -0.9752 -0.1842
vn 0.1567 -0.9751 -0.1567
vn 0.0020 -1.0000 -0.0009
vn 0.0019 -1.0000 -0.0013
vn 0.1842 -0.9752 -0.1231
vn 0.2046 -0.9752 -0.0847
vn 0.0021 -1.0000 -0.0000
vn 0.0021 -1.0000 -0.0004
vn 0.2170 -0.9752 -0.0432
vn 0.2212 -0.9752 -0.0000
vn 0.0020 -1.0000 0.0008
vn 0.0021 -1.0000 0.0004
vn 0.2170 -0.9752 0.0432
vn 0.2046 -0.9752 0.0847
vn 0.0016 -1.0000 0.0016
vn 0.0019 -1.0000 0.0013
vn 0.1842 -0.9752 0.1231
vn 0.1566 -0.9752 0.1567
vn 0.0012 -1.0000 0.0018
vn 0.1230 -0.9752 0.1841
vn -0.0000 -1.0000 -0.0000
vn -0.0001 -1.0000 0.0001
vn -0.0000 -1.0000 0.0001
vn 0.0001 -1.0000 0.0001
vt 0.480350 0.798872
vt 0.501467 0.805323
vt 0.500981 0.807713
vt 0.479407 0.801121
vt 0.523431 0.807565
vt 0.523424 0.810014
vt 0.524051 0.582242
vt 0.502075 0.584367
vt 0.501608 0.581973
vt 0.524058 0.579812
vt 0.480923 0.590701
vt 0.479998 0.588444
vt 0.461428 0.601074
vt 0.460081 0.599041
vt 0.444307 0.615023
vt 0.442589 0.613291
vt 0.430265 0.632067
vt 0.428243 0.630703
vt 0.419785 0.651505
vt 0.417535 0.650562
vt 0.413334 0.672625
vt 0.410944 0.672140
vt 0.411091 0.694595
vt 0.408652 0.694585
vt 0.413213 0.716576
vt 0.410819 0.717042
vt 0.419548 0.737732
vt 0.417290 0.738656
vt 0.429921 0.757228
vt 0.427887 0.758575
vt 0.443869 0.774349
vt 0.442137 0.776067
vt 0.460913 0.788391
vt 0.459549 0.790414
vt 0.566559 0.799109
vt 0.567490 0.801364
vt 0.545880 0.807837
vt 0.545407 0.805444
vt 0.546496 0.582096
vt 0.546016 0.584488
vt 0.568069 0.588686
vt 0.567132 0.590939
vt 0.587928 0.599393
vt 0.586570 0.601419
vt 0.605341 0.613739
vt 0.603613 0.615461
vt 0.619592 0.631230
vt 0.617562 0.632582
vt 0.630189 0.651148
vt 0.627935 0.652078
vt 0.636662 0.672761
vt 0.634269 0.673234
vt 0.638831 0.695219
vt 0.636391 0.695215
vt 0.636539 0.717664
vt 0.634148 0.717184
vt 0.629949 0.739242
vt 0.627697 0.738305
vt 0.619243 0.759101
vt 0.617217 0.757743
vt 0.604897 0.776515
vt 0.603175 0.774787
vt 0.587406 0.790766
vt 0.586054 0.788736
vt 0.482700 0.792920
vt 0.502673 0.798927
vt 0.501879 0.803279
vt 0.481153 0.796947
vt 0.523449 0.801013
vt 0.523437 0.805479
vt 0.524033 0.588795
vt 0.503246 0.590769
vt 0.502476 0.586413
vt 0.524045 0.584328
vt 0.483240 0.596665
vt 0.481715 0.592630
vt 0.464806 0.606334
vt 0.462582 0.602812
vt 0.448659 0.619399
vt 0.445778 0.616502
vt 0.435505 0.635475
vt 0.431996 0.633230
vt 0.425736 0.653856
vt 0.421710 0.652309
vt 0.419730 0.673832
vt 0.415379 0.673038
vt 0.417643 0.694613
vt 0.413176 0.694601
vt 0.419616 0.715405
vt 0.415260 0.716175
vt 0.425511 0.735414
vt 0.421477 0.736939
vt 0.435180 0.753849
vt 0.431658 0.756074
vt 0.448245 0.769997
vt 0.445347 0.772878
vt 0.464320 0.783150
vt 0.462076 0.786660
vt 0.544236 0.799041
vt 0.545006 0.803397
vt 0.564242 0.793145
vt 0.565767 0.797180
vt 0.564782 0.596890
vt 0.544809 0.590884
vt 0.545603 0.586532
vt 0.566329 0.592863
vt 0.599238 0.619813
vt 0.583162 0.606660
vt 0.585406 0.603150
vt 0.602135 0.616932
vt 0.621971 0.654396
vt 0.612303 0.635961
vt 0.615824 0.633736
vt 0.626006 0.652871
vt 0.629840 0.695197
vt 0.627867 0.674405
vt 0.632222 0.673635
vt 0.634306 0.695209
vt 0.621746 0.735954
vt 0.627752 0.715977
vt 0.632104 0.716772
vt 0.625772 0.737501
vt 0.598823 0.770411
vt 0.611977 0.754335
vt 0.615486 0.756580
vt 0.601704 0.773309
vt 0.582675 0.783476
vt 0.584900 0.786999
vt 0.473107 0.643986
vt 0.481992 0.641504
vt 0.482620 0.653552
vt 0.470577 0.652857
vt 0.494814 0.639337
vt 0.495663 0.652867
vt 0.495652 0.666658
vt 0.481863 0.666592
vt 0.468340 0.665668
vt 0.509013 0.638009
vt 0.509550 0.652410
vt 0.523899 0.637576
vt 0.523858 0.652258
vt 0.523819 0.666635
vt 0.509677 0.666643
vt 0.538782 0.638091
vt 0.538166 0.652488
vt 0.552974 0.639497
vt 0.552050 0.653022
vt 0.551985 0.666813
vt 0.537961 0.666721
vt 0.565784 0.641735
vt 0.565089 0.653779
vt 0.574654 0.644265
vt 0.577135 0.653150
vt 0.579303 0.665974
vt 0.565774 0.666823
vt 0.481329 0.680478
vt 0.466934 0.679862
vt 0.495560 0.680683
vt 0.495475 0.694827
vt 0.481099 0.694788
vt 0.466418 0.694747
vt 0.509694 0.680779
vt 0.523780 0.680819
vt 0.523741 0.694905
vt 0.509657 0.694866
vt 0.537865 0.680856
vt 0.551999 0.680839
vt 0.552007 0.694983
vt 0.537826 0.694944
vt 0.566231 0.680712
vt 0.580630 0.680175
vt 0.581064 0.695063
vt 0.566383 0.695022
vt 0.481251 0.709098
vt 0.466852 0.709635
vt 0.495483 0.708971
vt 0.495497 0.722997
vt 0.481708 0.722987
vt 0.468179 0.723836
vt 0.509617 0.708953
vt 0.523702 0.708991
vt 0.523663 0.723175
vt 0.509521 0.723089
vt 0.537788 0.709031
vt 0.551922 0.709126
vt 0.551830 0.723152
vt 0.537806 0.723167
vt 0.566153 0.709332
vt 0.580548 0.709948
vt 0.579142 0.724142
vt 0.565619 0.723218
vt 0.482393 0.736031
vt 0.470346 0.736660
vt 0.495432 0.736788
vt 0.494508 0.750313
vt 0.481699 0.748075
vt 0.472828 0.745545
vt 0.509316 0.737322
vt 0.523624 0.737552
vt 0.523583 0.752234
vt 0.508700 0.751719
vt 0.537932 0.737400
vt 0.551819 0.736943
vt 0.552668 0.750473
vt 0.538469 0.751801
vt 0.564862 0.736258
vt 0.576905 0.736953
vt 0.574374 0.745824
vt 0.565490 0.748306
vt 0.488610 0.775597
vt 0.491948 0.763542
vt 0.507370 0.766348
vt 0.505694 0.779864
vt 0.523542 0.767329
vt 0.523503 0.781339
vt 0.539718 0.766437
vt 0.541320 0.779962
vt 0.555156 0.763716
vt 0.558427 0.775789
vt 0.569112 0.759214
vt 0.574106 0.768881
vt 0.580389 0.751873
vt 0.587419 0.758943
vt 0.587792 0.740636
vt 0.597430 0.745684
vt 0.592371 0.726703
vt 0.604424 0.730042
vt 0.595176 0.711278
vt 0.608691 0.712955
vt 0.596157 0.695104
vt 0.610167 0.695143
vt 0.595265 0.678925
vt 0.608789 0.677323
vt 0.592545 0.663485
vt 0.604616 0.660213
vt 0.588043 0.649528
vt 0.597708 0.644532
vt 0.580702 0.638250
vt 0.587771 0.631218
vt 0.569465 0.630846
vt 0.574513 0.621208
vt 0.555534 0.626268
vt 0.558872 0.614213
vt 0.540112 0.623462
vt 0.541788 0.609946
vt 0.523941 0.622480
vt 0.523979 0.608470
vt 0.507764 0.623373
vt 0.506162 0.609848
vt 0.492326 0.626094
vt 0.489055 0.614021
vt 0.478370 0.630596
vt 0.473376 0.620929
vt 0.467093 0.637937
vt 0.460063 0.630867
vt 0.459690 0.649174
vt 0.450052 0.644126
vt 0.455111 0.663107
vt 0.443058 0.659768
vt 0.452306 0.678532
vt 0.438791 0.676855
vt 0.451325 0.694706
vt 0.437315 0.694667
vt 0.452217 0.710885
vt 0.438693 0.712487
vt 0.454937 0.726325
vt 0.442866 0.729597
vt 0.459439 0.740282
vt 0.449774 0.745278
vt 0.466780 0.751560
vt 0.459711 0.758592
vt 0.478017 0.758964
vt 0.472969 0.768602
vt 0.485357 0.785596
vt 0.504037 0.790923
vt 0.523472 0.792767
vt 0.524010 0.597041
vt 0.504565 0.598780
vt 0.485857 0.604004
vt 0.468629 0.612608
vt 0.453669 0.624438
vt 0.441757 0.639333
vt 0.433059 0.656514
vt 0.427733 0.675197
vt 0.425888 0.694636
vt 0.427626 0.714085
vt 0.432849 0.732796
vt 0.441453 0.750025
vt 0.453283 0.764986
vt 0.468177 0.776898
vt 0.542917 0.791030
vt 0.561625 0.785807
vt 0.562125 0.604213
vt 0.543446 0.598887
vt 0.594200 0.624824
vt 0.579305 0.612912
vt 0.614633 0.657014
vt 0.606029 0.639785
vt 0.621594 0.695174
vt 0.619856 0.675725
vt 0.614423 0.733296
vt 0.619749 0.714613
vt 0.593813 0.765372
vt 0.605725 0.750477
vt 0.578853 0.777203
s 1
f 1/1/1 155/2/2 74/3/3 154/4/4
f 155/2/2 8/5/5 156/6/6 74/3/3
f 16/7/7 158/8/8 75/9/9 157/10/10
f 158/8/8 7/11/11 159/12/12 75/9/9
f 7/11/11 160/13/13 76/14/14 159/12/12
f 160/13/13 6/15/15 161/16/16 76/14/14
f 6/15/15 162/17/17 77/18/18 161/16/16
f 162/17/17 5/19/19 163/20/20 77/18/18
f 5/19/19 164/21/21 78/22/22 163/20/20
f 164/21/21 4/23/23 165/24/24 78/22/22
f 4/23/23 166/25/25 79/26/26 165/24/24
f 166/25/25 3/27/27 167/28/28 79/26/26
f 3/27/27 168/29/29 80/30/30 167/28/28
f 168/29/29 2/31/31 169/32/32 80/30/30
f 2/31/31 170/33/33 81/34/34 169/32/32
f 170/33/33 1/1/1 154/4/4 81/34/34
f 9/35/35 171/36/36 82/37/37 172/38/38
f 156/6/6 8/5/5 172/38/38 82/37/37
f 16/7/7 157/10/10 83/39/39 174/40/40
f 173/41/41 15/42/42 174/40/40 83/39/39
f 15/42/42 173/41/41 84/43/43 176/44/44
f 175/45/45 14/46/46 176/44/44 84/43/43
f 14/46/46 175/45/45 85/47/47 178/48/48
f 177/49/49 13/50/50 178/48/48 85/47/47
f 13/50/50 177/49/49 86/51/51 180/52/52
f 179/53/53 12/54/54 180/52/52 86/51/51
f 12/54/54 179/53/53 87/55/55 182/56/56
f 181/57/57 11/58/58 182/56/56 87/55/55
f 11/58/58 181/57/57 88/59/59 184/60/60
f 183/61/61 10/62/62 184/60/60 88/59/59
f 10/62/62 183/61/61 89/63/63 185/64/64
f 171/36/36 9/35/35 185/64/64 89/63/63
f 59/65/65 186/66/66 90/67/67 188/68/68
f 186/66/66 58/69/69 187/70/70 90/67/67
f 8/5/5 155/2/2 90/67/67 187/70/70
f 155/2/2 1/1/1 188/68/68 90/67/67
f 61/71/71 189/72/72 91/73/73 191/74/74
f 189/72/72 60/75/75 190/76/76 91/73/73
f 7/11/11 158/8/8 91/73/73 190/76/76
f 158/8/8 16/7/7 191/74/74 91/73/73
f 60/75/75 192/77/77 92/78/78 190/76/76
f 192/77/77 62/79/79 193/80/80 92/78/78
f 6/15/15 160/13/13 92/78/78 193/80/80
f 160/13/13 7/11/11 190/76/76 92/78/78
f 62/79/79 194/81/81 93/82/82 193/80/80
f 194/81/81 63/83/83 195/84/84 93/82/82
f 5/19/19 162/17/17 93/82/82 195/84/84
f 162/17/17 6/15/15 193/80/80 93/82/82
f 63/83/83 196/85/85 94/86/86 195/84/84
f 196/85/85 64/87/87 197/88/88 94/86/86
f 4/23/23 164/21/21 94/86/86 197/88/88
f 164/21/21 5/19/19 195/84/84 94/86/86
f 64/87/87 198/89/89 95/90/90 197/88/88
f 198/89/89 65/91/91 199/92/92 95/90/90
f 3/27/27 166/25/25 95/90/90 199/92/92
f 166/25/25 4/23/23 197/88/88 95/90/90
f 65/91/91 200/93/93 96/94/94 199/92/92
f 200/93/93 66/95/95 201/96/96 96/94/94
f 2/31/31 168/29/29 96/94/94 201/96/96
f 168/29/29 3/27/27 199/92/92 96/94/94
f 66/95/95 202/97/97 97/98/98 201/96/96
f 202/97/97 59/65/65 188/68/68 97/98/98
f 1/1/1 170/33/33 97/98/98 188/68/68
f 170/33/33 2/31/31 201/96/96 97/98/98
f 58/69/69 203/99/99 98/100/100 187/70/70
f 203/99/99 67/101/101 204/102/102 98/100/100
f 9/35/35 172/38/38 98/100/100 204/102/102
f 172/38/38 8/5/5 187/70/70 98/100/100
f 68/103/103 205/104/104 99/105/105 206/106/106
f 205/104/104 61/71/71 191/74/74 99/105/105
f 16/7/7 174/40/40 99/105/105 191/74/74
f 174/40/40 15/42/42 206/106/106 99/105/105
f 69/107/107 207/108/108 100/109/109 208/110/110
f 207/108/108 68/103/103 206/106/106 100/109/109
f 15/42/42 176/44/44 100/109/109 206/106/106
f 176/44/44 14/46/46 208/110/110 100/109/109
f 70/111/111 209/112/112 101/113/113 210/114/114
f 209/112/112 69/107/107 208/110/110 101/113/113
f 14/46/46 178/48/48 101/113/113 208/110/110
f 178/48/48 13/50/50 210/114/114 101/113/113
f 71/115/115 211/116/116 102/117/117 212/118/118
f 211/116/116 70/111/111 210/114/114 102/117/117
f 13/50/50 180/52/52 102/117/117 210/114/114
f 180/52/52 12/54/54 212/118/118 102/117/117
f 72/119/119 213/120/120 103/121/121 214/122/122
f 213/120/120 71/115/115 212/118/118 103/121/121
f 12/54/54 182/56/56 103/121/121 212/118/118
f 182/56/56 11/58/58 214/122/122 103/121/121
f 73/123/123 215/124/124 104/125/125 216/126/126
f 215/124/124 72/119/119 214/122/122 104/125/125
f 11/58/58 184/60/60 104/125/125 214/122/122
f 184/60/60 10/62/62 216/126/126 104/125/125
f 67/101/101 217/127/127 105/128/128 204/102/102
f 217/127/127 73/123/123 216/126/126 105/128/128
f 10/62/62 185/64/64 105/128/128 216/126/126
f 185/64/64 9/35/35 204/102/102 105/128/128
f 33/129/129 218/130/129 106/131/129 221/132/129
f 218/130/129 34/133/129 219/134/129 106/131/129
f 39/135/129 220/136/129 106/131/129 219/134/129
f 220/136/129 38/137/129 221/132/129 106/131/129
f 34/133/129 222/138/129 107/139/129 219/134/129
f 222/138/129 35/140/129 223/141/129 107/139/129
f 40/142/129 224/143/129 107/139/129 223/141/129
f 224/143/129 39/135/129 219/134/129 107/139/129
f 35/140/129 225/144/129 108/145/129 223/141/129
f 225/144/129 36/146/129 226/147/129 108/145/129
f 41/148/129 227/149/129 108/145/129 226/147/129
f 227/149/129 40/142/129 223/141/129 108/145/129
f 36/146/129 228/150/129 109/151/129 226/147/129
f 228/150/129 37/152/129 229/153/129 109/151/129
f 42/154/129 230/155/129 109/151/129 229/153/129
f 230/155/129 41/148/129 226/147/129 109/151/129
f 38/137/129 220/136/129 110/156/129 233/157/129
f 220/136/129 39/135/129 231/158/129 110/156/129
f 44/159/129 232/160/129 110/156/129 231/158/129
f 232/160/129 43/161/129 233/157/129 110/156/129
f 39/135/129 224/143/129 111/162/129 231/158/129
f 224/143/129 40/142/129 234/163/129 111/162/129
f 45/164/129 235/165/129 111/162/129 234/163/129
f 235/165/129 44/159/129 231/158/129 111/162/129
f 40/142/129 227/149/129 112/166/129 234/163/129
f 227/149/129 41/148/129 236/167/129 112/166/129
f 46/168/129 237/169/129 112/166/129 236/167/129
f 237/169/129 45/164/129 234/163/129 112/166/129
f 41/148/129 230/155/129 113/170/129 236/167/129
f 230/155/129 42/154/129 238/171/129 113/170/129
f 47/172/129 239/173/129 113/170/129 238/171/129
f 239/173/129 46/168/129 236/167/129 113/170/129
f 43/161/129 232/160/129 114/174/129 242/175/129
f 232/160/129 44/159/129 240/176/129 114/174/129
f 49/177/129 241/178/129 114/174/129 240/176/129
f 241/178/129 48/179/129 242/175/129 114/174/129
f 44/159/129 235/165/129 115/180/129 240/176/129
f 235/165/129 45/164/129 243/181/129 115/180/129
f 50/182/129 244/183/129 115/180/129 243/181/129
f 244/183/129 49/177/129 240/176/129 115/180/129
f 45/164/129 237/169/129 116/184/129 243/181/129
f 237/169/129 46/168/129 245/185/129 116/184/129
f 51/186/129 246/187/129 116/184/129 245/185/129
f 246/187/129 50/182/129 243/181/129 116/184/129
f 46/168/129 239/173/129 117/188/129 245/185/129
f 239/173/129 47/172/129 247/189/129 117/188/129
f 52/190/129 248/191/129 117/188/129 247/189/129
f 248/191/129 51/186/129 245/185/129 117/188/129
f 48/179/129 241/178/129 118/192/129 251/193/129
f 241/178/129 49/177/129 249/194/129 118/192/129
f 54/195/129 250/196/129 118/192/129 249/194/129
f 250/196/129 53/197/129 251/193/129 118/192/129
f 49/177/129 244/183/129 119/198/129 249/194/129
f 244/183/129 50/182/129 252/199/129 119/198/129
f 55/200/129 253/201/129 119/198/129 252/199/129
f 253/201/129 54/195/129 249/194/129 119/198/129
f 50/182/129 246/187/129 120/202/129 252/199/129
f 246/187/129 51/186/129 254/203/129 120/202/129
f 56/204/129 255/205/129 120/202/129 254/203/129
f 255/205/129 55/200/129 252/199/129 120/202/129
f 51/186/129 248/191/129 121/206/129 254/203/129
f 248/191/129 52/190/129 256/207/129 121/206/129
f 57/208/129 257/209/129 121/206/129 256/207/129
f 257/209/129 56/204/129 254/203/129 121/206/129
f 17/210/129 258/211/129 122/212/129 260/213/129
f 258/211/129 54/195/129 253/201/129 122/212/129
f 55/200/129 259/214/129 122/212/129 253/201/129
f 259/214/129 24/215/129 260/213/129 122/212/129
f 24/215/129 259/214/129 123/216/129 262/217/129
f 259/214/129 55/200/129 255/205/129 123/216/129
f 56/204/129 261/218/129 123/216/129 255/205/129
f 261/218/129 25/219/129 262/217/129 123/216/129
f 25/219/129 261/218/129 124/220/129 264/221/129
f 261/218/129 56/204/129 257/209/129 124/220/129
f 57/208/129 263/222/129 124/220/129 257/209/129
f 263/222/129 26/223/129 264/221/129 124/220/129
f 26/223/129 263/222/129 125/224/129 266/225/129
f 263/222/129 57/208/129 256/207/129 125/224/129
f 52/190/129 265/226/129 125/224/129 256/207/129
f 265/226/129 27/227/129 266/225/129 125/224/129
f 27/227/129 265/226/129 126/228/129 268/229/129
f 265/226/129 52/190/129 247/189/129 126/228/129
f 47/172/129 267/230/129 126/228/129 247/189/129
f 267/230/129 28/231/129 268/229/129 126/228/129
f 28/231/129 267/230/129 127/232/129 270/233/129
f 267/230/129 47/172/129 238/171/129 127/232/129
f 42/154/129 269/234/129 127/232/129 238/171/129
f 269/234/129 29/235/129 270/233/129 127/232/129
f 29/235/129 269/234/129 128/236/129 272/237/129
f 269/234/129 42/154/129 229/153/129 128/236/129
f 37/152/129 271/238/129 128/236/129 229/153/129
f 271/238/129 30/239/129 272/237/129 128/236/129
f 30/239/129 271/238/129 129/240/129 274/241/129
f 271/238/129 37/152/129 228/150/129 129/240/129
f 36/146/129 273/242/129 129/240/129 228/150/129
f 273/242/129 31/243/129 274/241/129 129/240/129
f 31/243/129 273/242/129 130/244/129 276/245/129
f 273/242/129 36/146/129 225/144/129 130/244/129
f 35/140/129 275/246/129 130/244/129 225/144/129
f 275/246/129 32/247/129 276/245/129 130/244/129
f 32/247/129 275/246/129 131/248/129 278/249/129
f 275/246/129 35/140/129 222/138/129 131/248/129
f 34/133/129 277/250/129 131/248/129 222/138/129
f 277/250/129 23/251/129 278/249/129 131/248/129
f 23/251/129 277/250/129 132/252/129 280/253/129
f 277/250/129 34/133/129 218/130/129 132/252/129
f 33/129/129 279/254/129 132/252/129 218/130/129
f 279/254/129 22/255/129 280/253/129 132/252/129
f 22/255/129 279/254/129 133/256/129 282/257/129
f 279/254/129 33/129/129 221/132/129 133/256/129
f 38/137/129 281/258/129 133/256/129 221/132/129
f 281/258/129 21/259/129 282/257/129 133/256/129
f 21/259/129 281/258/129 134/260/129 284/261/129
f 281/258/129 38/137/129 233/157/129 134/260/129
f 43/161/129 283/262/129 134/260/129 233/157/129
f 283/262/129 20/263/129 284/261/129 134/260/129
f 20/263/129 283/262/129 135/264/129 286/265/129
f 283/262/129 43/161/129 242/175/129 135/264/129
f 48/179/129 285/266/129 135/264/129 242/175/129
f 285/266/129 19/267/129 286/265/129 135/264/129
f 19/267/129 285/266/129 136/268/129 288/269/129
f 285/266/129 48/179/129 251/193/129 136/268/129
f 53/197/129 287/270/129 136/268/129 251/193/129
f 287/270/129 18/271/129 288/269/129 136/268/129
f 18/271/129 287/270/129 137/272/129 289/273/129
f 287/270/129 53/197/129 250/196/129 137/272/129
f 54/195/129 258/211/129 137/272/129 250/196/129
f 258/211/129 17/210/129 289/273/129 137/272/129
f 59/65/65 290/274/129 138/275/129 186/66/66
f 290/274/129 17/210/129 260/213/129 138/275/129
f 24/215/129 291/276/129 138/275/129 260/213/129
f 291/276/129 58/69/69 186/66/66 138/275/129
f 61/71/71 292/277/129 139/278/129 189/72/72
f 292/277/129 32/247/129 278/249/129 139/278/129
f 23/251/129 293/279/129 139/278/129 278/249/129
f 293/279/129 60/75/75 189/72/72 139/278/129
f 60/75/75 293/279/129 140/280/129 192/77/77
f 293/279/129 23/251/129 280/253/129 140/280/129
f 22/255/129 294/281/129 140/280/129 280/253/129
f 294/281/129 62/79/79 192/77/77 140/280/129
f 62/79/79 294/281/129 141/282/129 194/81/81
f 294/281/129 22/255/129 282/257/129 141/282/129
f 21/259/129 295/283/129 141/282/129 282/257/129
f 295/283/129 63/83/83 194/81/81 141/282/129
f 63/83/83 295/283/129 142/284/129 196/85/85
f 295/283/129 21/259/129 284/261/129 142/284/129
f 20/263/129 296/285/129 142/284/129 284/261/129
f 296/285/129 64/87/87 196/85/85 142/284/129
f 64/87/87 296/285/129 143/286/129 198/89/89
f 296/285/129 20/263/129 286/265/129 143/286/129
f 19/267/129 297/287/129 143/286/129 286/265/129
f 297/287/129 65/91/91 198/89/89 143/286/129
f 65/91/91 297/287/129 144/288/129 200/93/93
f 297/287/129 19/267/129 288/269/129 144/288/129
f 18/271/129 298/289/129 144/288/129 288/269/129
f 298/289/129 66/95/95 200/93/93 144/288/129
f 66/95/95 298/289/129 145/290/130 202/97/97
f 298/289/129 18/271/129 289/273/129 145/290/130
f 17/210/129 290/274/129 145/290/130 289/273/129
f 290/274/129 59/65/65 202/97/97 145/290/130
f 58/69/69 291/276/129 146/291/129 203/99/99
f 291/276/129 24/215/129 262/217/129 146/291/129
f 25/219/129 299/292/129 146/291/129 262/217/129
f 299/292/129 67/101/101 203/99/99 146/291/129
f 68/103/103 300/293/129 147/294/129 205/104/104
f 300/293/129 31/243/129 276/245/129 147/294/129
f 32/247/129 292/277/129 147/294/129 276/245/129
f 292/277/129 61/71/71 205/104/104 147/294/129
f 69/107/107 301/295/129 148/296/129 207/108/108
f 301/295/129 30/239/129 274/241/129 148/296/129
f 31/243/129 300/293/129 148/296/129 274/241/129
f 300/293/129 68/103/103 207/108/108 148/296/129
f 70/111/111 302/297/129 149/298/129 209/112/112
f 302/297/129 29/235/129 272/237/129 149/298/129
f 30/239/129 301/295/129 149/298/129 272/237/129
f 301/295/129 69/107/107 209/112/112 149/298/129
f 71/115/115 303/299/129 150/300/129 211/116/116
f 303/299/129 28/231/129 270/233/129 150/300/129
f 29/235/129 302/297/129 150/300/129 270/233/129
f 302/297/129 70/111/111 211/116/116 150/300/129
f 72/119/119 304/301/129 151/302/129 213/120/120
f 304/301/129 27/227/129 268/229/129 151/302/129
f 28/231/129 303/299/129 151/302/129 268/229/129
f 303/299/129 71/115/115 213/120/120 151/302/129
f 73/123/123 305/303/131 152/304/129 215/124/124
f 305/303/131 26/223/129 266/225/129 152/304/129
f 27/227/129 304/301/129 152/304/129 266/225/129
f 304/301/129 72/119/119 215/124/124 152/304/129
f 67/101/101 299/292/129 153/305/132 217/127/127
f 299/292/129 25/219/129 264/221/129 153/305/132
f 26/223/129 305/303/131 153/305/132 264/221/129
f 305/303/131 73/123/123 217/127/127 153/305/132
