# Blender 4.5.3 LTS
# www.blender.org
o DecalStatic
v 9.558825 -29.026154 20.771782
v 9.707403 -28.991146 20.200468
v 10.269939 -29.014421 20.057005
v 10.263995 -29.070074 20.779898
v 11.067872 -29.021845 19.989058
v 11.051060 -29.085573 20.764067
v 11.875937 -29.009295 20.045931
v 11.853812 -29.066916 20.772297
v 12.462099 -28.980396 20.185625
v 12.603067 -29.015028 20.760599
v 9.491807 -29.046762 21.572104
v 10.246738 -29.097414 21.571814
v 11.047290 -29.120520 21.571421
v 11.865373 -29.094435 21.571140
v 12.669613 -29.035702 21.571075
v 9.553042 -29.045757 22.375141
v 10.261214 -29.090010 22.367094
v 11.052465 -29.105722 22.382631
v 11.859407 -29.086800 22.373589
v 12.611431 -29.034630 22.384581
v 9.698671 -29.026077 22.952139
v 10.265104 -29.050846 23.097546
v 11.070094 -29.059214 23.166296
v 11.885125 -29.045052 23.107841
v 12.474650 -29.015154 22.965717
v 13.299059 -28.919088 22.534153
v 13.445813 -28.912252 21.571051
v 12.847716 -28.922396 23.313841
v 12.069224 -28.939585 23.773582
v 11.102142 -28.951620 23.928400
v 10.138851 -28.948961 23.769598
v 9.367455 -28.939644 23.308298
v 8.916222 -28.941128 22.530748
v 8.769220 -28.935320 21.571846
v 8.931232 -28.916964 20.619101
v 9.388373 -28.896030 19.855978
v 10.152578 -28.894152 19.407629
v 11.100498 -28.893373 19.252903
v 12.052619 -28.885286 19.402414
v 12.824319 -28.878313 19.849257
v 13.282852 -28.894590 20.614138
v -9.008211 -28.919077 22.534153
v -8.861456 -28.912233 21.571051
v -9.459557 -28.922377 23.313839
v -10.238048 -28.939573 23.773588
v -11.205131 -28.951609 23.928408
v -12.168422 -28.948942 23.769606
v -12.939822 -28.939617 23.308298
v -13.391048 -28.941109 22.530748
v -13.538051 -28.935305 21.571846
v -13.376041 -28.916945 20.619101
v -12.918902 -28.896008 19.855978
v -12.154693 -28.894146 19.407629
v -11.206773 -28.893358 19.252911
v -10.254657 -28.885271 19.402414
v -9.482952 -28.878290 19.849255
v -9.024417 -28.894577 20.614138
v -12.748446 -29.026138 20.771790
v -12.599870 -28.991131 20.200468
v -12.037331 -29.014404 20.057013
v -12.043278 -29.070066 20.779913
v -11.239396 -29.021837 19.989065
v -11.256211 -29.085566 20.764067
v -10.431336 -29.009287 20.045938
v -10.453465 -29.066904 20.772297
v -9.845170 -28.980381 20.185633
v -9.704204 -29.015024 20.760599
v -12.815466 -29.046759 21.572105
v -12.060532 -29.097403 21.571821
v -11.259980 -29.120508 21.571428
v -10.441899 -29.094423 21.571140
v -9.637660 -29.035683 21.571077
v -12.754228 -29.045731 22.375141
v -12.046057 -29.089991 22.367102
v -11.254806 -29.105719 22.382631
v -10.447865 -29.086781 22.373596
v -9.695848 -29.034616 22.384581
v -12.608601 -29.026070 22.952139
v -12.042169 -29.050825 23.097546
v -11.237185 -29.059200 23.166304
v -10.422154 -29.045029 23.107849
v -9.832629 -29.015135 22.965719
v 3.312609 -28.828377 14.851362
v 3.411297 -28.828447 14.342662
v 3.028604 -28.828337 15.280432
v 2.598733 -28.828461 15.555979
v 1.894734 -28.828573 15.663186
v 2.598732 -28.828451 13.129355
v 1.894735 -28.828577 13.022148
v 3.028602 -28.828337 13.404894
v 3.312609 -28.828388 13.833965
v 2.367914 -28.914753 14.342663
v 1.925591 -28.674063 12.534347
v 2.785766 -28.673990 12.687608
v 3.366894 -28.674025 13.075985
v 3.755171 -28.674040 13.657167
v 3.891508 -28.674049 14.342655
v 3.755170 -28.674046 15.028166
v 3.366895 -28.674025 15.609339
v 2.785765 -28.673998 15.997725
v 1.925591 -28.674063 16.150978
v 0.002664 -28.828625 15.675036
v 0.002663 -28.674173 16.167904
v 0.002663 -28.674164 12.517428
v 2.816236 -28.905035 14.342664
v 2.389070 -28.905024 15.004200
v 2.686711 -28.897429 14.959903
v 2.389071 -28.905024 13.681117
v 2.686711 -28.897425 13.725429
v 2.363720 -28.914753 14.057338
v 2.771322 -28.905018 14.011369
v 2.363719 -28.914757 14.627995
v 0.002663 -28.914753 14.623768
v 2.771323 -28.905012 14.673948
v 1.834857 -28.914753 14.342663
v 1.844146 -28.905054 15.032862
v 1.844146 -28.905054 13.652471
v 1.835065 -28.914764 14.623906
v 1.835065 -28.914753 14.061420
v -3.749842 -28.674046 15.028165
v -3.886181 -28.674049 14.342663
v -3.361567 -28.674025 15.609340
v -2.780438 -28.673998 15.997725
v -1.920269 -28.674072 16.150976
v -2.780438 -28.673986 12.687608
v -1.920269 -28.674057 12.534354
v -3.361568 -28.674025 13.075993
v -3.749845 -28.674036 13.657166
v -2.810910 -28.905035 14.342664
v -3.405975 -28.828447 14.342663
v -3.307282 -28.828392 14.851370
v -2.765995 -28.905014 14.673949
v -2.593405 -28.828451 13.129354
v -3.023275 -28.828337 13.404895
v -2.681383 -28.897425 13.725429
v -2.383744 -28.905014 13.681116
v -1.889408 -28.828573 15.663187
v -2.362587 -28.914753 14.342663
v -2.358394 -28.914753 14.627995
v -1.829745 -28.914764 14.623905
v -1.829536 -28.914753 14.342663
v -1.889408 -28.828577 13.022147
v -1.838824 -28.905054 13.652471
v 0.002663 -28.905054 13.649239
v 0.002664 -28.828632 13.010297
v -3.023276 -28.828337 15.280433
v -2.593406 -28.828461 15.555979
v -3.307282 -28.828388 13.833964
v -2.358393 -28.914753 14.057338
v -2.765994 -28.905018 14.011369
v -2.383745 -28.905024 15.004200
v -2.681381 -28.897429 14.959902
v -1.829744 -28.914753 14.061420
v -1.838824 -28.905054 15.032862
v 0.002663 -28.914753 14.342664
v 0.002663 -28.914749 14.061565
v 0.002663 -28.905054 15.036086
v 13.772984 -28.802853 22.113811
v 13.403997 -28.811304 23.116121
v 12.671597 -28.823681 23.867546
v 11.668431 -28.838217 24.263279
v 10.567257 -28.843590 24.267258
v 9.560470 -28.838625 23.876755
v 8.820058 -28.833933 23.125551
v 8.444741 -28.829559 22.118088
v 8.460217 -28.816656 21.028261
v 8.856894 -28.798084 20.042118
v 9.596756 -28.785189 19.321003
v 10.581671 -28.780560 18.950069
v 11.652873 -28.775826 18.952459
v 12.634505 -28.770260 19.328384
v 13.367049 -28.774963 20.050444
v 13.758076 -28.790075 21.031307
v 9.934001 -29.032507 20.439465
v 10.656909 -29.056023 20.384155
v 11.461497 -29.054295 20.378769
v 12.209571 -29.025736 20.426146
v 9.874842 -29.067886 21.170982
v 10.645245 -29.102114 21.167679
v 11.454907 -29.101009 21.165382
v 12.259234 -29.061541 21.165136
v 9.872562 -29.077793 21.973871
v 10.644812 -29.112551 21.976622
v 11.456817 -29.111473 21.978243
v 12.262976 -29.071451 21.977997
v 9.928535 -29.060448 22.710148
v 10.655851 -29.084454 22.766270
v 11.466433 -29.082472 22.771187
v 12.218800 -29.053349 22.722206
v 13.037461 -28.990715 22.020365
v 12.836378 -28.986372 22.818432
v 12.336045 -28.994181 23.318287
v 11.534833 -29.014429 23.521711
v 10.637710 -29.018349 23.516752
v 9.849651 -29.005198 23.306351
v 9.357429 -29.002010 22.807095
v 9.155245 -29.007866 22.016369
v 9.159758 -28.996801 21.128704
v 9.368440 -28.970242 20.344225
v 9.859964 -28.961197 19.852352
v 10.640570 -28.970537 19.645790
v 11.527775 -28.967022 19.640402
v 12.321891 -28.950481 19.839373
v 12.822412 -28.954359 20.331400
v 13.031815 -28.979507 21.122801
v -8.534287 -28.802837 22.113811
v -8.903273 -28.811293 23.116121
v -9.635672 -28.823666 23.867554
v -10.638839 -28.838202 24.263287
v -11.740014 -28.843575 24.267258
v -12.746803 -28.838608 23.876762
v -13.487217 -28.833920 23.125551
v -13.862533 -28.829554 22.118088
v -13.847054 -28.816645 21.028261
v -13.450379 -28.798069 20.042118
v -12.710518 -28.785177 19.321003
v -11.725598 -28.780546 18.950077
v -10.654403 -28.775810 18.952467
v -9.672772 -28.770245 19.328392
v -8.940222 -28.774948 20.050444
v -8.549194 -28.790060 21.031309
v -12.373270 -29.032492 20.439465
v -11.650362 -29.056007 20.384163
v -10.845778 -29.054283 20.378777
v -10.097704 -29.025721 20.426153
v -12.432428 -29.067881 21.170990
v -11.662026 -29.102106 21.167685
v -10.852366 -29.100990 21.165380
v -10.048040 -29.061541 21.165136
v -12.434711 -29.077774 21.973871
v -11.662459 -29.112543 21.976622
v -10.850454 -29.111465 21.978251
v -10.044297 -29.071436 21.977997
v -12.378737 -29.060432 22.710155
v -11.651423 -29.084438 22.766270
v -10.840842 -29.082458 22.771196
v -10.088479 -29.053329 22.722214
v -9.269813 -28.990704 22.020365
v -9.470899 -28.986357 22.818432
v -9.971231 -28.994164 23.318293
v -10.772443 -29.014416 23.521711
v -11.669563 -29.018330 23.516768
v -12.457623 -29.005178 23.306360
v -12.949843 -29.001993 22.807100
v -13.152023 -29.007853 22.016369
v -13.147513 -28.996798 21.128704
v -12.938832 -28.970226 20.344225
v -12.447309 -28.961182 19.852352
v -11.666700 -28.970528 19.645798
v -10.779498 -28.967018 19.640409
v -9.985380 -28.950466 19.839373
v -9.484860 -28.954351 20.331398
v -9.275455 -28.979496 21.122801
v 3.093719 -28.875935 14.552089
v 2.664581 -28.875759 13.482571
v 1.050439 -28.762987 15.946148
v 2.199363 -28.914679 14.477677
v 1.038632 -28.876080 13.335754
v 3.641934 -28.762720 14.649715
v 3.407099 -28.762638 15.217217
v 2.972707 -28.762650 15.651546
v 2.404044 -28.762789 15.886320
v 2.404045 -28.762794 12.799013
v 2.972706 -28.762650 13.033794
v 3.407099 -28.762646 13.468108
v 3.641933 -28.762720 14.035610
v 1.050438 -28.762987 12.739178
v 2.565848 -28.914715 14.195741
v 2.523914 -28.914671 14.792702
v 2.202563 -28.914614 13.885487
v 2.664582 -28.875771 15.202755
v 2.280284 -28.875950 15.320094
v 2.949548 -28.875757 13.747887
v 2.280286 -28.875942 13.365239
v 2.202563 -28.914618 14.799840
v 2.523913 -28.914671 13.892625
v 2.565849 -28.914715 14.489584
v 2.199363 -28.914679 14.207640
v 2.949550 -28.875757 14.937438
v 3.093720 -28.875935 14.133238
v 1.028250 -28.914745 14.476586
v 1.028258 -28.914703 13.882086
v 1.028258 -28.914700 14.803247
v 1.028250 -28.914749 14.208738
v 1.038631 -28.876080 15.349579
v -3.088393 -28.875935 14.552088
v -2.659253 -28.875759 13.482572
v -1.045113 -28.762987 15.946147
v -2.194040 -28.914679 14.477677
v -1.033306 -28.876080 13.335754
v -3.636609 -28.762712 14.649715
v -3.401772 -28.762642 15.217218
v -2.967379 -28.762642 15.651546
v -2.398719 -28.762791 15.886320
v -2.398720 -28.762785 12.799021
v -2.967378 -28.762650 13.033786
v -3.401772 -28.762642 13.468108
v -3.636608 -28.762720 14.035610
v -1.045113 -28.762987 12.739177
v -2.560519 -28.914715 14.195741
v -2.518587 -28.914656 14.792701
v -2.197240 -28.914614 13.885487
v -2.659254 -28.875763 15.202754
v -2.274959 -28.875950 15.320094
v -2.944221 -28.875757 13.747886
v -2.274960 -28.875942 13.365239
v -2.197239 -28.914618 14.799840
v -2.518585 -28.914671 13.892625
v -2.560520 -28.914715 14.489593
v -2.194040 -28.914679 14.207640
v -2.944221 -28.875757 14.937439
v -3.088395 -28.875935 14.133238
v -1.022927 -28.914745 14.476587
v -1.022935 -28.914700 13.882086
v -1.022935 -28.914700 14.803247
v -1.022927 -28.914749 14.208738
v -1.033306 -28.876080 15.349579
v 13.630786 -28.809162 22.634789
v 13.409519 -28.917147 22.062761
v 13.812365 -28.798103 21.569561
v 13.077646 -28.818323 23.529421
v 13.112061 -28.920427 22.955873
v 12.192595 -28.833324 24.108101
v 12.491285 -28.930752 23.581900
v 11.118171 -28.843966 24.311525
v 11.597160 -28.947617 23.887190
v 10.041800 -28.843771 24.115406
v 10.608315 -28.952387 23.885067
v 9.151241 -28.837257 23.539408
v 9.720781 -28.944345 23.576761
v 8.589013 -28.834543 22.642324
v 9.103756 -28.940519 22.951120
v 8.407494 -28.825882 21.571640
v 8.806895 -28.940275 22.062119
v 8.617672 -28.809607 20.512667
v 8.815038 -28.927925 21.083311
v 9.191074 -28.792316 19.643528
v 9.123330 -28.905863 20.205608
v 10.069470 -28.784584 19.095222
v 9.739626 -28.894230 19.594889
v 11.117452 -28.780384 18.907869
v 10.614910 -28.895044 19.295616
v 12.164268 -28.774931 19.100096
v 11.587447 -28.890665 19.292753
v 13.036963 -28.772650 19.652504
v 12.469757 -28.880684 19.588516
v 13.602835 -28.784231 20.518818
v 13.090589 -28.885260 20.199511
v 13.399550 -28.904896 21.080259
v 9.933880 -29.002972 20.126810
v 10.277995 -29.047302 20.409763
v 9.898724 -29.052965 20.788624
v 9.627486 -29.007736 20.431543
v 10.656775 -29.020523 20.007927
v 11.058648 -29.058598 20.373295
v 10.650885 -29.081644 20.772678
v 11.483787 -29.017967 20.002003
v 11.852645 -29.043354 20.399641
v 11.455335 -29.080404 20.768610
v 12.224835 -28.994720 20.110914
v 12.535460 -28.997339 20.418770
v 12.236948 -29.046614 20.779984
v 10.252687 -29.087534 21.172941
v 9.862504 -29.076284 21.573076
v 9.508347 -29.038795 21.159552
v 11.047924 -29.107962 21.167152
v 10.642456 -29.113766 21.573854
v 11.860261 -29.084564 21.168581
v 11.456563 -29.112642 21.573484
v 12.651424 -29.027834 21.154215
v 12.270108 -29.070044 21.573315
v 10.251074 -29.097746 21.976204
v 9.894354 -29.072222 22.360603
v 9.505238 -29.048708 21.985443
v 11.048624 -29.118258 21.981266
v 10.649861 -29.101562 22.378841
v 11.863297 -29.094818 21.979265
v 11.459026 -29.100304 22.382298
v 12.655864 -29.037724 21.990934
v 12.244058 -29.065710 22.370247
v 10.272602 -29.075132 22.744120
v 9.925073 -29.038748 23.027985
v 9.619942 -29.036604 22.718075
v 11.059361 -29.086882 22.780527
v 10.653999 -29.057482 23.148529
v 11.859191 -29.070896 22.753262
v 11.488792 -29.054535 23.154060
v 12.546704 -29.025858 22.732206
v 12.234971 -29.030275 23.042591
v 12.960558 -28.990192 22.444729
v 13.062706 -28.987347 21.571064
v 12.637156 -28.985546 23.118244
v 11.960372 -29.005880 23.443930
v 11.085252 -29.018898 23.547419
v 10.217500 -29.013536 23.434746
v 9.555070 -28.999281 23.105560
v 9.232553 -29.006956 22.436415
v 9.129589 -29.004551 21.572042
v 9.240959 -28.985188 20.711168
v 9.566862 -28.959625 20.049816
v 10.224694 -28.967321 19.726400
v 11.083133 -28.970551 19.615482
v 11.949134 -28.960247 19.716410
v 12.621858 -28.945793 20.035881
v 12.949995 -28.968201 20.701139
v -8.676484 -28.809147 22.634789
v -8.897754 -28.917135 22.062761
v -8.494906 -28.798088 21.569561
v -9.229626 -28.818312 23.529421
v -9.195212 -28.920412 22.955873
v -10.114675 -28.833321 24.108099
v -9.815986 -28.930737 23.581898
v -11.189100 -28.843950 24.311535
v -10.710114 -28.947605 23.887197
v -12.265471 -28.843750 24.115414
v -11.698958 -28.952372 23.885075
v -13.156034 -28.837240 23.539413
v -12.586493 -28.944334 23.576769
v -13.718262 -28.834530 22.642324
v -13.203519 -28.940500 22.951120
v -13.899776 -28.825871 21.571640
v -13.500376 -28.940268 22.062119
v -13.689600 -28.809591 20.512667
v -13.492233 -28.927912 21.083311
v -13.116199 -28.792301 19.643528
v -13.183946 -28.905851 20.205608
v -12.237800 -28.784569 19.095230
v -12.567649 -28.894213 19.594896
v -11.189821 -28.780373 18.907869
v -11.692360 -28.895029 19.295624
v -10.143008 -28.774912 19.100096
v -10.719827 -28.890657 19.292761
v -9.270311 -28.772631 19.652512
v -9.837519 -28.880665 19.588516
v -8.704434 -28.784224 20.518818
v -9.216682 -28.885246 20.199511
v -8.907720 -28.904882 21.080261
v -12.373392 -29.002956 20.126810
v -12.029277 -29.047287 20.409763
v -12.408546 -29.052961 20.788624
v -12.679785 -29.007723 20.431541
v -11.650496 -29.020510 20.007935
v -11.248623 -29.058582 20.373302
v -11.656385 -29.081629 20.772686
v -10.823484 -29.017956 20.002018
v -10.454631 -29.043341 20.399641
v -10.851940 -29.080387 20.768618
v -10.082436 -28.994705 20.110914
v -9.771812 -28.997332 20.418770
v -10.070327 -29.046606 20.779982
v -12.054583 -29.087524 21.172949
v -12.444765 -29.076281 21.573086
v -12.798923 -29.038792 21.159557
v -11.259346 -29.107950 21.167152
v -11.664815 -29.113758 21.573856
v -10.447015 -29.084553 21.168581
v -10.850709 -29.112631 21.573484
v -9.655845 -29.027830 21.154215
v -10.037165 -29.070032 21.573317
v -12.056196 -29.097727 21.976213
v -12.412916 -29.072206 22.360603
v -12.802033 -29.048695 21.985443
v -11.258646 -29.118248 21.981274
v -11.657411 -29.101553 22.378841
v -10.443974 -29.094803 21.979265
v -10.848246 -29.100288 22.382305
v -9.651411 -29.037708 21.990942
v -10.063217 -29.065695 22.370249
v -12.034669 -29.075117 22.744120
v -12.382199 -29.038734 23.027992
v -12.687327 -29.036592 22.718081
v -11.247913 -29.086878 22.780527
v -11.653275 -29.057467 23.148537
v -10.448085 -29.070879 22.753269
v -10.818485 -29.054516 23.154068
v -9.760575 -29.025843 22.732206
v -10.072309 -29.030256 23.042591
v -9.346719 -28.990185 22.444729
v -9.244566 -28.987331 21.571064
v -9.670119 -28.985527 23.118244
v -10.346904 -29.005867 23.443937
v -11.222025 -29.018879 23.547419
v -12.089773 -29.013525 23.434752
v -12.752205 -28.999277 23.105560
v -13.074716 -29.006937 22.436415
v -13.177683 -29.004539 21.572042
v -13.066315 -28.985180 20.711166
v -12.740412 -28.959610 20.049816
v -12.082576 -28.967306 19.726400
v -11.224138 -28.970535 19.615490
v -10.358141 -28.960236 19.716410
v -9.685412 -28.945778 20.035889
v -9.357274 -28.968182 20.701139
v 3.856755 -28.674049 14.692060
v 3.589366 -28.674026 15.337687
v 3.095267 -28.674015 15.831859
v 2.449584 -28.674013 16.099295
v 2.449584 -28.674013 12.586037
v 3.095267 -28.674007 12.853465
v 3.589366 -28.674038 13.347647
v 3.856755 -28.674053 13.993266
v 3.111401 -28.876009 14.342663
v 3.387471 -28.828060 14.603909
v 3.037043 -28.876085 14.754587
v 2.802408 -28.905167 14.510413
v 2.542737 -28.904974 13.711879
v 2.479938 -28.875677 13.408055
v 2.830049 -28.828030 13.245289
v 2.826289 -28.875683 13.596510
v 1.051684 -28.674158 16.167921
v 0.002233 -28.763388 15.944788
v 1.047413 -28.828903 15.673474
v 1.913142 -28.763393 15.929678
v 2.203142 -28.914753 14.624314
v 1.833677 -28.914669 14.473299
v 2.203543 -28.914648 14.339335
v 2.371884 -28.914524 14.480937
v 1.031081 -28.905054 13.649221
v 0.002228 -28.875912 13.334511
v 1.047406 -28.828342 13.008924
v 1.868850 -28.876078 13.343480
v 1.051684 -28.674166 12.517411
v 3.670770 -28.763227 14.341318
v 3.550719 -28.763168 14.945737
v 3.190020 -28.828201 15.083898
v 3.209450 -28.763117 15.455812
v 2.825508 -28.828655 15.439378
v 2.698753 -28.763199 15.796106
v 2.348567 -28.829077 15.624029
v 2.349334 -28.827854 13.055257
v 1.912346 -28.762907 12.753963
v 2.700598 -28.762714 12.888235
v 3.211275 -28.763155 13.231494
v 3.193634 -28.828279 13.607509
v 3.551671 -28.763195 13.742106
v 3.384336 -28.828718 14.082050
v 0.001800 -28.762917 12.738973
v 2.369192 -28.914610 14.201349
v 2.551532 -28.914536 14.043836
v 2.805524 -28.905018 14.174387
v 2.571089 -28.914715 14.342593
v 2.549198 -28.914433 14.644069
v 2.712476 -28.904539 14.832773
v 2.539878 -28.904737 14.976207
v 2.357874 -28.914513 14.798568
v 2.200417 -28.914614 14.058022
v 1.835064 -28.914724 13.883620
v 2.226493 -28.905098 13.663079
v 2.360716 -28.914707 13.889341
v 2.479190 -28.876066 15.274706
v 2.824011 -28.875662 15.092532
v 1.867219 -28.876348 15.339269
v 2.222736 -28.904964 15.022758
v 3.037405 -28.876053 13.930690
v 2.715036 -28.904827 13.858047
v 1.833311 -28.914667 14.801849
v 1.832464 -28.914705 14.208753
v 0.002663 -28.914749 14.475956
v 1.027812 -28.914654 14.339283
v 1.027817 -28.914648 14.627272
v 0.002228 -28.914747 13.885189
v 1.027820 -28.914717 14.063577
v 0.002223 -28.914631 14.804576
v 1.030413 -28.904833 15.038564
v 0.001788 -28.914745 14.209054
v 0.001793 -28.876085 15.349476
v -3.851428 -28.674049 14.692060
v -3.584038 -28.674026 15.337687
v -3.089938 -28.674015 15.831859
v -2.444260 -28.674013 16.099295
v -2.444260 -28.674009 12.586038
v -3.089938 -28.674007 12.853472
v -3.584040 -28.674023 13.347646
v -3.851429 -28.674053 13.993265
v -2.799914 -28.905029 14.510869
v -3.034717 -28.875635 14.755738
v -3.382681 -28.828085 14.600624
v -3.106257 -28.875832 14.338412
v -2.817665 -28.875874 13.593808
v -2.821998 -28.827959 13.243224
v -2.474079 -28.876091 13.410940
v -2.537279 -28.905134 13.715147
v -1.906785 -28.763288 15.930074
v -1.041961 -28.828947 15.673217
v -1.046252 -28.670944 16.174669
v -2.361279 -28.914757 14.480748
v -2.194428 -28.914614 14.339468
v -1.828356 -28.914658 14.479441
v -2.196304 -28.914431 14.630334
v -1.862447 -28.876080 13.343367
v -1.041988 -28.828388 13.009129
v -1.026080 -28.905109 13.650176
v -1.047215 -28.672642 12.513981
v -3.545386 -28.763172 14.945722
v -3.665458 -28.763224 14.341316
v -3.203843 -28.763628 15.453609
v -3.184343 -28.828621 15.081415
v -2.694043 -28.763685 15.794030
v -2.820848 -28.828972 15.436950
v -2.343235 -28.829077 15.624031
v -2.693420 -28.763187 12.889210
v -1.907817 -28.763393 12.755627
v -2.342830 -28.828560 13.058296
v -3.205932 -28.763159 13.231496
v -3.544325 -28.763668 13.741497
v -3.185975 -28.828657 13.606844
v -3.379020 -28.828716 14.082038
v -2.565274 -28.914434 14.336723
v -2.799812 -28.904760 14.169201
v -2.541646 -28.914669 14.044493
v -2.359357 -28.914631 14.201248
v -2.357925 -28.914539 14.797855
v -2.540596 -28.904585 14.975461
v -2.708159 -28.904991 14.826345
v -2.544676 -28.914715 14.638353
v -2.349710 -28.914484 13.889461
v -2.217412 -28.904963 13.662563
v -1.829755 -28.914692 13.887991
v -2.193539 -28.914558 14.063162
v -2.818741 -28.875660 15.092448
v -2.473891 -28.876070 15.274669
v -2.216274 -28.904745 15.024514
v -1.860812 -28.876186 15.340893
v -2.712242 -28.904573 13.859832
v -3.034244 -28.875887 13.932127
v -1.827979 -28.914665 14.801891
v -1.827117 -28.914700 14.208793
v -1.022919 -28.914743 14.624845
v -1.022936 -28.914753 14.342700
v -1.022923 -28.914742 14.060575
v -1.025534 -28.904976 15.037113
v -8.389619 -17.743750 47.741219
v -8.389095 -21.745739 47.741871
v 2.502566 1.380076 7.974725
v 2.502206 0.208725 3.958439
v -2.498154 0.208844 3.958853
v -2.497794 1.380194 7.975138
v -4.951072 -17.743750 47.741207
v -4.951595 -21.745739 47.741871
v 13.629353 1.477036 39.563919
v 13.628325 -3.398095 42.213455
v 13.629004 -0.043017 40.391205
v 13.627956 -4.977499 43.103287
v 13.627588 -6.485725 43.961494
v 13.627303 -7.846635 44.701229
v 13.628633 -1.598403 41.224968
v -13.623000 -4.977122 43.103096
v -13.622751 -6.485772 43.961533
v -13.622322 -7.846640 44.701229
v -13.623707 -1.598817 41.225208
v -13.624278 1.493714 39.593857
v -13.623270 -3.398292 42.213566
v -13.623940 -0.042958 40.391174
vn 0.2877 -0.9530 0.0949
vn 0.2424 -0.9670 0.0781
vn 0.2469 -0.9685 0.0310
vn 0.2956 -0.9545 0.0392
vn 0.2488 -0.9685 -0.0146
vn 0.2981 -0.9544 -0.0151
vn 0.2297 -0.9506 0.2090
vn 0.1967 -0.9641 0.1784
vn 0.2289 -0.9648 0.1291
vn 0.2690 -0.9508 0.1539
vn 0.1138 -0.9580 0.2634
vn 0.0954 -0.9705 0.2214
vn 0.1467 -0.9668 0.2092
vn 0.1732 -0.9535 0.2465
vn 0.0056 -0.9624 0.2715
vn 0.0043 -0.9741 0.2259
vn 0.0487 -0.9732 0.2247
vn 0.0585 -0.9611 0.2698
vn -0.1031 -0.9591 0.2638
vn -0.0873 -0.9712 0.2218
vn -0.0402 -0.9736 0.2249
vn -0.0475 -0.9617 0.2699
vn -0.2197 -0.9523 0.2118
vn -0.1892 -0.9653 0.1802
vn -0.1389 -0.9678 0.2101
vn -0.1630 -0.9550 0.2478
vn -0.2792 -0.9553 0.0969
vn -0.2361 -0.9685 0.0796
vn -0.2218 -0.9662 0.1316
vn -0.2597 -0.9528 0.1571
vn -0.2907 -0.9567 -0.0149
vn -0.2432 -0.9699 -0.0144
vn -0.2409 -0.9700 0.0314
vn -0.2877 -0.9569 0.0398
vn -0.2391 -0.9648 -0.1098
vn -0.2427 -0.9682 -0.0606
vn -0.2896 -0.9546 -0.0699
vn -0.2829 -0.9506 -0.1278
vn -0.1931 -0.9577 -0.2134
vn -0.2254 -0.9605 -0.1630
vn -0.2645 -0.9456 -0.1896
vn -0.2247 -0.9425 -0.2472
vn -0.0908 -0.9616 -0.2591
vn -0.1429 -0.9588 -0.2456
vn -0.1673 -0.9434 -0.2865
vn -0.1066 -0.9466 -0.3043
vn -0.0425 -0.9639 -0.2627
vn -0.0499 -0.9492 -0.3108
vn 0.0050 -0.9500 -0.3121
vn 0.0035 -0.9646 -0.2637
vn 0.0988 -0.9610 -0.2583
vn 0.0498 -0.9637 -0.2622
vn 0.0601 -0.9488 -0.3100
vn 0.1178 -0.9458 -0.3028
vn 0.2016 -0.9562 -0.2120
vn 0.1518 -0.9577 -0.2445
vn 0.1792 -0.9418 -0.2844
vn 0.2358 -0.9405 -0.2446
vn 0.2449 -0.9634 -0.1088
vn 0.2325 -0.9591 -0.1613
vn 0.2734 -0.9435 -0.1871
vn 0.2903 -0.9486 -0.1262
vn 0.2480 -0.9669 -0.0606
vn 0.2966 -0.9525 -0.0695
vn -0.0921 -0.9898 -0.1090
vn -0.0701 -0.9912 -0.1121
vn -0.0637 -0.9948 -0.0793
vn -0.0951 -0.9917 -0.0863
vn -0.0436 -0.9925 -0.1142
vn -0.0393 -0.9961 -0.0784
vn -0.0404 -0.9977 -0.0551
vn -0.0632 -0.9965 -0.0543
vn -0.0968 -0.9936 -0.0591
vn -0.0198 -0.9931 -0.1155
vn -0.0188 -0.9966 -0.0801
vn 0.0022 -0.9932 -0.1162
vn 0.0017 -0.9967 -0.0814
vn 0.0013 -0.9982 -0.0607
vn -0.0215 -0.9980 -0.0586
vn 0.0244 -0.9929 -0.1161
vn 0.0224 -0.9965 -0.0805
vn 0.0488 -0.9922 -0.1150
vn 0.0440 -0.9959 -0.0789
vn 0.0449 -0.9975 -0.0550
vn 0.0245 -0.9980 -0.0586
vn 0.0765 -0.9907 -0.1129
vn 0.0698 -0.9944 -0.0792
vn 0.0995 -0.9890 -0.1092
vn 0.1024 -0.9911 -0.0857
vn 0.1038 -0.9929 -0.0587
vn 0.0694 -0.9961 -0.0539
vn -0.0649 -0.9973 -0.0334
vn -0.0979 -0.9946 -0.0347
vn -0.0442 -0.9984 -0.0359
vn -0.0465 -0.9988 -0.0128
vn -0.0665 -0.9977 -0.0125
vn -0.0981 -0.9951 -0.0126
vn -0.0255 -0.9989 -0.0399
vn 0.0012 -0.9991 -0.0418
vn 0.0012 -0.9999 -0.0129
vn -0.0275 -0.9995 -0.0128
vn 0.0283 -0.9988 -0.0397
vn 0.0486 -0.9982 -0.0356
vn 0.0509 -0.9986 -0.0128
vn 0.0304 -0.9995 -0.0128
vn 0.0710 -0.9969 -0.0332
vn 0.1045 -0.9939 -0.0348
vn 0.1045 -0.9944 -0.0126
vn 0.0724 -0.9973 -0.0125
vn -0.0655 -0.9978 0.0083
vn -0.0974 -0.9952 0.0093
vn -0.0446 -0.9989 0.0109
vn -0.0404 -0.9987 0.0313
vn -0.0632 -0.9976 0.0293
vn -0.0955 -0.9949 0.0323
vn -0.0254 -0.9996 0.0148
vn 0.0012 -0.9999 0.0169
vn 0.0015 -0.9993 0.0378
vn -0.0211 -0.9991 0.0356
vn 0.0283 -0.9995 0.0146
vn 0.0491 -0.9987 0.0107
vn 0.0452 -0.9985 0.0318
vn 0.0245 -0.9991 0.0359
vn 0.0716 -0.9974 0.0083
vn 0.1039 -0.9945 0.0093
vn 0.1023 -0.9942 0.0320
vn 0.0694 -0.9972 0.0294
vn -0.0618 -0.9966 0.0536
vn -0.0926 -0.9940 0.0583
vn -0.0381 -0.9978 0.0549
vn -0.0409 -0.9954 0.0865
vn -0.0663 -0.9943 0.0840
vn -0.0883 -0.9929 0.0802
vn -0.0182 -0.9982 0.0572
vn 0.0021 -0.9983 0.0589
vn 0.0028 -0.9960 0.0888
vn -0.0186 -0.9959 0.0881
vn 0.0226 -0.9981 0.0581
vn 0.0432 -0.9975 0.0560
vn 0.0466 -0.9951 0.0876
vn 0.0243 -0.9958 0.0888
vn 0.0678 -0.9962 0.0542
vn 0.0994 -0.9934 0.0579
vn 0.0949 -0.9922 0.0805
vn 0.0722 -0.9938 0.0850
vn 0.1575 -0.9864 0.0469
vn 0.1587 -0.9872 0.0162
vn 0.1594 -0.9871 -0.0134
vn 0.1520 -0.9850 0.0822
vn 0.1328 -0.9842 0.1172
vn 0.0627 -0.9881 0.1408
vn 0.0977 -0.9859 0.1359
vn 0.0035 -0.9899 0.1416
vn 0.0323 -0.9894 0.1415
vn -0.0562 -0.9884 0.1408
vn -0.0255 -0.9896 0.1415
vn -0.0916 -0.9865 0.1361
vn -0.1266 -0.9849 0.1182
vn -0.1520 -0.9872 0.0480
vn -0.1460 -0.9857 0.0839
vn -0.1545 -0.9879 -0.0132
vn -0.1537 -0.9880 0.0164
vn -0.1551 -0.9869 -0.0433
vn -0.1543 -0.9851 -0.0763
vn -0.1486 -0.9824 -0.1133
vn -0.1300 -0.9804 -0.1481
vn -0.0594 -0.9831 -0.1731
vn -0.0957 -0.9813 -0.1672
vn -0.0273 -0.9843 -0.1743
vn 0.0028 -0.9847 -0.1744
vn 0.0329 -0.9841 -0.1744
vn 0.0656 -0.9827 -0.1732
vn 0.1025 -0.9806 -0.1671
vn 0.1371 -0.9795 -0.1475
vn 0.1599 -0.9842 -0.0755
vn 0.1552 -0.9815 -0.1120
vn 0.1602 -0.9861 -0.0434
vn 0.2289 -0.9648 0.1292
vn -0.1031 -0.9590 0.2638
vn -0.0403 -0.9736 0.2249
vn -0.2218 -0.9662 0.1317
vn -0.2906 -0.9567 -0.0149
vn -0.1673 -0.9434 -0.2864
vn 0.0498 -0.9637 -0.2623
vn 0.2016 -0.9562 -0.2121
vn -0.0981 -0.9951 -0.0125
vn -0.0212 -0.9991 0.0356
vn 0.0021 -0.9983 0.0590
vn -0.0187 -0.9959 0.0881
vn 0.1574 -0.9864 0.0469
vn 0.1595 -0.9871 -0.0134
vn -0.0916 -0.9864 0.1361
vn -0.1520 -0.9872 0.0481
vn -0.1552 -0.9869 -0.0433
vn 0.0657 -0.9827 -0.1732
vn 0.0705 -0.9975 0.0001
vn 0.1295 -0.9916 0.0002
vn 0.1289 -0.9914 0.0230
vn 0.0703 -0.9975 0.0104
vn 0.2035 -0.9791 -0.0000
vn 0.2010 -0.9788 0.0391
vn 0.1918 -0.9783 0.0779
vn 0.1258 -0.9909 0.0474
vn 0.0720 -0.9972 0.0226
vn 0.0675 -0.9948 -0.0759
vn 0.0351 -0.9966 -0.0751
vn 0.0665 -0.9905 -0.1203
vn 0.0974 -0.9899 -0.1033
vn 0.0143 -0.9972 -0.0740
vn 0.0388 -0.9915 -0.1246
vn 0.0732 -0.9793 -0.1887
vn 0.1118 -0.9781 -0.1753
vn 0.1478 -0.9775 -0.1502
vn 0.0213 -0.9272 0.3740
vn 0.0035 -0.9281 0.3722
vn 0.0027 -0.9523 0.3051
vn 0.0170 -0.9513 0.3079
vn -0.0001 -0.9282 0.3720
vn -0.0001 -0.9526 0.3042
vn -0.0000 -0.9818 0.1898
vn 0.0014 -0.9817 0.1904
vn 0.0091 -0.9811 0.1931
vn 0.0004 -1.0000 0.0001
vn 0.0002 -1.0000 -0.0000
vn 0.0002 -1.0000 -0.0002
vn 0.0001 -1.0000 0.0002
vn -0.0000 -1.0000 -0.0000
vn -0.0000 -1.0000 -0.0001
vn 0.0001 -1.0000 0.0001
vn -0.0001 -1.0000 0.0001
vn 0.0014 -0.9977 -0.0680
vn 0.0002 -0.9978 -0.0670
vn 0.0006 -0.9929 -0.1187
vn 0.0041 -0.9927 -0.1206
vn -0.0000 -0.9978 -0.0667
vn -0.0000 -0.9930 -0.1183
vn -0.0000 -0.9818 -0.1901
vn 0.0014 -0.9816 -0.1909
vn 0.0092 -0.9811 -0.1933
vn 0.3088 -0.9492 0.0612
vn 0.2914 -0.9490 0.1206
vn 0.3139 -0.9495 -0.0002
vn 0.3749 -0.9271 0.0001
vn 0.3677 -0.9271 0.0731
vn 0.3467 -0.9270 0.1435
vn 0.1478 -0.9775 0.1505
vn 0.1751 -0.9777 0.1162
vn 0.2636 -0.9485 0.1759
vn 0.2238 -0.9484 0.2245
vn 0.3122 -0.9268 0.2086
vn 0.2659 -0.9267 0.2656
vn 0.0732 -0.9793 0.1887
vn 0.1111 -0.9783 0.1751
vn 0.1751 -0.9486 0.2638
vn 0.1193 -0.9492 0.2912
vn 0.2091 -0.9265 0.3128
vn 0.1443 -0.9264 0.3479
vn 0.0348 -0.9803 0.1943
vn 0.0596 -0.9497 0.3074
vn 0.0730 -0.9266 0.3689
vn 0.0351 -0.9801 -0.1954
vn 0.0597 -0.9496 -0.3076
vn 0.1198 -0.9490 -0.2916
vn 0.0170 -0.9511 -0.3084
vn 0.0214 -0.9270 -0.3743
vn 0.0731 -0.9265 -0.3692
vn 0.1444 -0.9262 -0.3482
vn 0.1753 -0.9485 -0.2638
vn 0.2241 -0.9484 -0.2241
vn 0.2093 -0.9265 -0.3128
vn 0.2658 -0.9267 -0.2657
vn 0.1919 -0.9783 -0.0778
vn 0.1753 -0.9777 -0.1156
vn 0.2637 -0.9485 -0.1758
vn 0.2915 -0.9490 -0.1201
vn 0.3123 -0.9268 -0.2085
vn 0.3466 -0.9270 -0.1436
vn 0.2004 -0.9789 -0.0390
vn 0.3087 -0.9492 -0.0611
vn 0.3679 -0.9270 -0.0732
vn 0.0027 -0.9522 -0.3054
vn -0.0000 -0.9525 -0.3045
vn -0.0000 -0.9282 -0.3720
vn 0.0035 -0.9280 -0.3725
vn -0.0001 -1.0000 -0.0002
vn 0.0206 -0.9998 -0.0024
vn 0.0202 -0.9998 -0.0000
vn -0.0000 -1.0000 0.0001
vn 0.0223 -0.9997 -0.0050
vn 0.0721 -0.9971 -0.0222
vn 0.0709 -0.9974 -0.0104
vn 0.0221 -0.9997 0.0053
vn 0.0229 -0.9994 0.0275
vn 0.0023 -0.9997 0.0238
vn 0.0688 -0.9966 0.0449
vn 0.0671 -0.9949 0.0756
vn 0.0348 -0.9966 0.0753
vn 0.0141 -0.9972 0.0737
vn -0.0001 -1.0000 -0.0000
vn 0.0008 -0.9998 -0.0218
vn 0.0021 -0.9997 -0.0232
vn 0.0001 -1.0000 -0.0001
vn 0.0003 -0.9998 -0.0210
vn 0.0062 -0.9975 -0.0704
vn 0.0386 -0.9915 0.1240
vn 0.0662 -0.9905 0.1203
vn 0.0971 -0.9899 0.1034
vn 0.0041 -0.9927 0.1203
vn 0.0173 -0.9922 0.1232
vn 0.0014 -0.9977 0.0680
vn 0.0060 -0.9975 0.0703
vn 0.1260 -0.9909 -0.0474
vn 0.1177 -0.9902 -0.0754
vn 0.0692 -0.9966 -0.0444
vn 0.0174 -0.9922 -0.1235
vn 0.0010 -0.9998 0.0221
vn 0.0002 -0.9998 0.0212
vn 0.0228 -0.9994 -0.0275
vn 0.0205 -0.9998 0.0026
vn 0.0001 -1.0000 -0.0000
vn 0.1176 -0.9902 0.0752
vn 0.1289 -0.9914 -0.0230
vn -0.0000 -1.0000 0.0002
vn -0.0000 -0.9998 -0.0206
vn -0.0000 -0.9998 -0.0208
vn -0.0000 -0.9978 0.0668
vn -0.0000 -0.9998 0.0209
vn 0.0002 -0.9977 0.0671
vn 0.0006 -0.9929 0.1186
vn -0.0000 -0.9930 0.1182
vn -0.0703 -0.9975 -0.0004
vn -0.0709 -0.9974 0.0101
vn -0.1290 -0.9914 0.0228
vn -0.1295 -0.9916 -0.0003
vn -0.0723 -0.9971 0.0223
vn -0.1264 -0.9908 0.0475
vn -0.1919 -0.9783 0.0777
vn -0.2010 -0.9788 0.0387
vn -0.2034 -0.9791 -0.0001
vn -0.0672 -0.9949 -0.0753
vn -0.0968 -0.9899 -0.1034
vn -0.0663 -0.9905 -0.1204
vn -0.0348 -0.9966 -0.0742
vn -0.1478 -0.9775 -0.1504
vn -0.1115 -0.9781 -0.1756
vn -0.0732 -0.9793 -0.1886
vn -0.0387 -0.9915 -0.1239
vn -0.0142 -0.9972 -0.0737
vn -0.0212 -0.9270 0.3745
vn -0.0169 -0.9512 0.3082
vn -0.0027 -0.9522 0.3056
vn -0.0034 -0.9278 0.3731
vn -0.0091 -0.9811 0.1931
vn -0.0014 -0.9817 0.1904
vn 0.0005 -1.0000 0.0004
vn 0.0002 -1.0000 -0.0001
vn 0.0003 -1.0000 0.0003
vn -0.0002 -1.0000 -0.0002
vn -0.0002 -1.0000 0.0002
vn -0.0002 -1.0000 0.0001
vn -0.0014 -0.9977 -0.0678
vn -0.0041 -0.9927 -0.1205
vn -0.0006 -0.9929 -0.1187
vn -0.0002 -0.9978 -0.0668
vn -0.0091 -0.9811 -0.1932
vn -0.0014 -0.9816 -0.1908
vn -0.2914 -0.9490 0.1205
vn -0.3088 -0.9492 0.0612
vn -0.3467 -0.9270 0.1435
vn -0.3677 -0.9271 0.0731
vn -0.3749 -0.9271 0.0001
vn -0.3139 -0.9494 -0.0002
vn -0.1478 -0.9775 0.1505
vn -0.2235 -0.9486 0.2240
vn -0.2636 -0.9485 0.1759
vn -0.1749 -0.9777 0.1159
vn -0.2656 -0.9268 0.2654
vn -0.3121 -0.9269 0.2086
vn -0.0732 -0.9793 0.1887
vn -0.1193 -0.9494 0.2906
vn -0.1751 -0.9486 0.2637
vn -0.1111 -0.9783 0.1747
vn -0.1441 -0.9265 0.3476
vn -0.2089 -0.9267 0.3125
vn -0.0596 -0.9497 0.3074
vn -0.0348 -0.9803 0.1943
vn -0.0732 -0.9267 0.3686
vn -0.1194 -0.9492 -0.2913
vn -0.0596 -0.9497 -0.3075
vn -0.0350 -0.9802 -0.1948
vn -0.1443 -0.9263 -0.3479
vn -0.0730 -0.9266 -0.3689
vn -0.0213 -0.9271 -0.3742
vn -0.0170 -0.9512 -0.3081
vn -0.2241 -0.9484 -0.2241
vn -0.1752 -0.9485 -0.2638
vn -0.2658 -0.9267 -0.2657
vn -0.2091 -0.9265 -0.3127
vn -0.1919 -0.9783 -0.0778
vn -0.2910 -0.9491 -0.1201
vn -0.2637 -0.9485 -0.1758
vn -0.1750 -0.9778 -0.1156
vn -0.3464 -0.9271 -0.1434
vn -0.3123 -0.9269 -0.2083
vn -0.3087 -0.9492 -0.0612
vn -0.2004 -0.9789 -0.0389
vn -0.3677 -0.9271 -0.0732
vn -0.0027 -0.9522 -0.3054
vn -0.0035 -0.9280 -0.3726
vn -0.0205 -0.9998 -0.0003
vn -0.0210 -0.9998 -0.0019
vn -0.0709 -0.9974 -0.0103
vn -0.0720 -0.9972 -0.0220
vn -0.0218 -0.9998 -0.0050
vn 0.0002 -1.0000 -0.0003
vn -0.0019 -0.9997 0.0238
vn -0.0226 -0.9994 0.0279
vn -0.0220 -0.9997 0.0051
vn -0.0141 -0.9972 0.0737
vn -0.0354 -0.9965 0.0754
vn -0.0672 -0.9949 0.0757
vn -0.0689 -0.9966 0.0442
vn -0.0018 -0.9997 -0.0233
vn -0.0010 -0.9998 -0.0218
vn -0.0000 -1.0000 -0.0002
vn -0.0060 -0.9975 -0.0701
vn -0.0003 -0.9998 -0.0208
vn -0.0002 -1.0000 -0.0001
vn -0.0662 -0.9905 0.1203
vn -0.0386 -0.9915 0.1239
vn -0.0971 -0.9899 0.1035
vn -0.0173 -0.9922 0.1232
vn -0.0041 -0.9927 0.1203
vn -0.0059 -0.9975 0.0706
vn -0.0015 -0.9977 0.0680
vn -0.1176 -0.9902 -0.0752
vn -0.1260 -0.9909 -0.0472
vn -0.0695 -0.9966 -0.0441
vn -0.0174 -0.9922 -0.1233
vn -0.0008 -0.9998 0.0218
vn -0.0004 -0.9998 0.0211
vn -0.0227 -0.9994 -0.0277
vn -0.0209 -0.9998 0.0017
vn -0.0001 -1.0000 -0.0001
vn -0.1176 -0.9902 0.0752
vn -0.1287 -0.9914 -0.0227
vn -0.0001 -0.9998 -0.0207
vn -0.0002 -0.9978 0.0670
vn -0.0000 -0.9998 0.0210
vn -0.0006 -0.9929 0.1186
vn -0.0000 0.9600 -0.2800
vn -0.0000 0.0002 1.0000
vn 0.0003 0.4709 0.8822
vn -0.0000 0.4769 0.8789
vn -0.0000 0.4861 0.8739
vn -0.0000 0.4927 0.8702
vn -0.0000 0.4776 0.8786
vn 0.0006 0.4693 0.8830
vt 0.759244 0.399400
vt 0.752184 0.397218
vt 0.754539 0.387595
vt 0.762151 0.388672
vt 0.755332 0.377490
vt 0.763080 0.377513
vt 0.747726 0.417734
vt 0.742826 0.413107
vt 0.748328 0.405851
vt 0.754410 0.409219
vt 0.729440 0.429544
vt 0.726841 0.422438
vt 0.735531 0.418595
vt 0.739274 0.424553
vt 0.707282 0.433610
vt 0.706992 0.425499
vt 0.717156 0.424764
vt 0.718609 0.432588
vt 0.685136 0.429419
vt 0.687262 0.422108
vt 0.696859 0.424595
vt 0.695959 0.432525
vt 0.666888 0.417433
vt 0.671547 0.412540
vt 0.678704 0.418128
vt 0.675321 0.424345
vt 0.655423 0.398900
vt 0.662400 0.396576
vt 0.666153 0.405229
vt 0.660217 0.408820
vt 0.651807 0.376822
vt 0.659498 0.376902
vt 0.660161 0.386967
vt 0.652605 0.388069
vt 0.662954 0.357390
vt 0.660454 0.366880
vt 0.653066 0.365652
vt 0.656289 0.355033
vt 0.672422 0.341831
vt 0.666907 0.348920
vt 0.661379 0.345439
vt 0.668215 0.337219
vt 0.688111 0.332731
vt 0.679606 0.336483
vt 0.676662 0.330722
vt 0.686360 0.326025
vt 0.697593 0.330433
vt 0.696953 0.323199
vt 0.707978 0.322293
vt 0.707571 0.329674
vt 0.727073 0.332874
vt 0.717560 0.330505
vt 0.718987 0.323388
vt 0.729518 0.326406
vt 0.742804 0.342135
vt 0.735615 0.336704
vt 0.739108 0.331274
vt 0.747405 0.337903
vt 0.752107 0.357845
vt 0.748256 0.349302
vt 0.754056 0.346194
vt 0.758952 0.355806
vt 0.754492 0.367407
vt 0.761988 0.366403
vt 0.678908 0.348954
vt 0.683555 0.347486
vt 0.683506 0.353879
vt 0.677304 0.353691
vt 0.690443 0.346107
vt 0.690533 0.353306
vt 0.690233 0.360917
vt 0.682776 0.361017
vt 0.675801 0.360640
vt 0.698350 0.345175
vt 0.698323 0.352862
vt 0.706793 0.344819
vt 0.706528 0.352672
vt 0.706344 0.360711
vt 0.698154 0.360781
vt 0.715289 0.345163
vt 0.714801 0.352858
vt 0.723336 0.346091
vt 0.722783 0.353307
vt 0.722773 0.360969
vt 0.714616 0.360804
vt 0.730437 0.347488
vt 0.730119 0.353903
vt 0.735320 0.349009
vt 0.736758 0.353770
vt 0.738117 0.360805
vt 0.730621 0.361113
vt 0.682215 0.368866
vt 0.674765 0.368579
vt 0.689956 0.368921
vt 0.689789 0.377130
vt 0.681940 0.377078
vt 0.674324 0.377025
vt 0.697996 0.368923
vt 0.706226 0.368925
vt 0.706161 0.377231
vt 0.697891 0.377181
vt 0.714545 0.368981
vt 0.722846 0.369041
vt 0.722892 0.377326
vt 0.714521 0.377280
vt 0.731022 0.369055
vt 0.739035 0.368853
vt 0.739380 0.377416
vt 0.731189 0.377372
vt 0.682065 0.385309
vt 0.674594 0.385491
vt 0.689822 0.385356
vt 0.689971 0.393403
vt 0.682487 0.393200
vt 0.675473 0.393479
vt 0.697882 0.385457
vt 0.706135 0.385556
vt 0.706162 0.393816
vt 0.697928 0.393643
vt 0.714477 0.385596
vt 0.722800 0.385628
vt 0.722677 0.393742
vt 0.714479 0.393818
vt 0.730991 0.385703
vt 0.739018 0.385991
vt 0.738078 0.394069
vt 0.730555 0.393680
vt 0.683097 0.400394
vt 0.676851 0.400495
vt 0.690153 0.401073
vt 0.689945 0.408352
vt 0.683029 0.406853
vt 0.678371 0.405305
vt 0.697990 0.401625
vt 0.706253 0.401920
vt 0.706423 0.409870
vt 0.697907 0.409403
vt 0.714589 0.401830
vt 0.722630 0.401465
vt 0.723127 0.408773
vt 0.715001 0.409624
vt 0.730010 0.400937
vt 0.736684 0.401141
vt 0.735217 0.405943
vt 0.730291 0.407427
vt 0.745216 0.395347
vt 0.746858 0.386663
vt 0.747439 0.377456
vt 0.742613 0.402973
vt 0.738502 0.409057
vt 0.724637 0.415647
vt 0.732339 0.413107
vt 0.706687 0.417669
vt 0.715907 0.417198
vt 0.688921 0.415232
vt 0.697517 0.416981
vt 0.681416 0.412539
vt 0.675442 0.408392
vt 0.668922 0.394690
vt 0.671443 0.402285
vt 0.666914 0.376968
vt 0.667382 0.386077
vt 0.667590 0.367885
vt 0.669318 0.359342
vt 0.671986 0.351850
vt 0.676076 0.345870
vt 0.689553 0.339330
vt 0.682076 0.341871
vt 0.698082 0.337722
vt 0.707158 0.337158
vt 0.716270 0.337728
vt 0.724892 0.339350
vt 0.732502 0.341924
vt 0.738594 0.345975
vt 0.745228 0.359611
vt 0.742655 0.352028
vt 0.746860 0.368262
vt 0.894918 0.953179
vt 0.887894 0.950885
vt 0.890402 0.941301
vt 0.897996 0.942499
vt 0.891356 0.931209
vt 0.899103 0.931356
vt 0.883109 0.971327
vt 0.878284 0.966622
vt 0.883900 0.959455
vt 0.889928 0.962920
vt 0.864637 0.982843
vt 0.862152 0.975697
vt 0.870902 0.971993
vt 0.874550 0.978010
vt 0.842418 0.986551
vt 0.842255 0.978444
vt 0.852431 0.977868
vt 0.853759 0.985713
vt 0.820341 0.982012
vt 0.822583 0.974735
vt 0.832139 0.977372
vt 0.831112 0.985294
vt 0.802286 0.969736
vt 0.807023 0.964918
vt 0.814090 0.970619
vt 0.810608 0.976782
vt 0.791119 0.951022
vt 0.798131 0.948810
vt 0.801746 0.957521
vt 0.795754 0.961017
vt 0.787855 0.928889
vt 0.795544 0.929092
vt 0.796046 0.939166
vt 0.788474 0.940148
vt 0.799312 0.909637
vt 0.796660 0.919087
vt 0.789292 0.917741
vt 0.792684 0.907174
vt 0.809027 0.894232
vt 0.803399 0.901232
vt 0.797927 0.897662
vt 0.804894 0.889552
vt 0.824859 0.885383
vt 0.816295 0.888999
vt 0.813443 0.883192
vt 0.823215 0.878650
vt 0.844364 0.882634
vt 0.834377 0.883240
vt 0.833851 0.875989
vt 0.844890 0.875267
vt 0.863813 0.886148
vt 0.854340 0.883628
vt 0.855880 0.876536
vt 0.866361 0.879720
vt 0.879394 0.895659
vt 0.872294 0.890114
vt 0.875872 0.884740
vt 0.884062 0.891502
vt 0.888446 0.911515
vt 0.884731 0.902912
vt 0.890580 0.899897
vt 0.895322 0.909586
vt 0.890678 0.921115
vt 0.898189 0.920230
vt 0.815398 0.901457
vt 0.820068 0.900064
vt 0.819916 0.906455
vt 0.813718 0.906168
vt 0.826977 0.898795
vt 0.826951 0.905995
vt 0.826531 0.913600
vt 0.819073 0.913581
vt 0.812104 0.913092
vt 0.834897 0.897990
vt 0.834748 0.905675
vt 0.843345 0.897768
vt 0.842955 0.905616
vt 0.842643 0.913650
vt 0.834452 0.913590
vt 0.851834 0.898247
vt 0.851223 0.905934
vt 0.859866 0.899304
vt 0.859198 0.906510
vt 0.859065 0.914171
vt 0.850912 0.913876
vt 0.866944 0.900814
vt 0.866523 0.907223
vt 0.871802 0.902412
vt 0.873164 0.907196
vt 0.874411 0.914251
vt 0.866910 0.914440
vt 0.818387 0.921419
vt 0.810942 0.921014
vt 0.826125 0.921598
vt 0.825828 0.929803
vt 0.817980 0.929626
vt 0.810366 0.929452
vt 0.834164 0.921728
vt 0.842394 0.921862
vt 0.842196 0.930166
vt 0.833928 0.929984
vt 0.850710 0.922050
vt 0.859009 0.922243
vt 0.858923 0.930527
vt 0.850554 0.930347
vt 0.867184 0.922388
vt 0.875200 0.922313
vt 0.875408 0.930880
vt 0.867218 0.930706
vt 0.817974 0.937858
vt 0.810501 0.937920
vt 0.825729 0.938029
vt 0.825750 0.946077
vt 0.818270 0.945754
vt 0.811253 0.945922
vt 0.833786 0.938259
vt 0.842037 0.938489
vt 0.841932 0.946748
vt 0.833702 0.946444
vt 0.850378 0.938662
vt 0.858699 0.938827
vt 0.858446 0.946939
vt 0.850248 0.946884
vt 0.866887 0.939032
vt 0.874909 0.939449
vt 0.873839 0.947510
vt 0.866324 0.947002
vt 0.818765 0.952958
vt 0.812519 0.952959
vt 0.825809 0.953749
vt 0.825485 0.961024
vt 0.818595 0.959415
vt 0.813961 0.957792
vt 0.833636 0.954426
vt 0.841894 0.954853
vt 0.841937 0.962805
vt 0.833429 0.962201
vt 0.850230 0.954896
vt 0.858276 0.954659
vt 0.858656 0.961975
vt 0.850517 0.962696
vt 0.865663 0.954250
vt 0.872333 0.954560
vt 0.870790 0.959338
vt 0.865841 0.960743
vt 0.880956 0.948902
vt 0.882737 0.940246
vt 0.883465 0.931050
vt 0.878232 0.956486
vt 0.874025 0.962503
vt 0.860056 0.968872
vt 0.867798 0.966455
vt 0.842076 0.970608
vt 0.851302 0.970283
vt 0.824352 0.967886
vt 0.832919 0.969771
vt 0.816890 0.965074
vt 0.810983 0.960833
vt 0.804683 0.947028
vt 0.807082 0.954662
vt 0.802958 0.929276
vt 0.803281 0.938392
vt 0.803780 0.920205
vt 0.805643 0.911690
vt 0.808430 0.904242
vt 0.812616 0.898328
vt 0.826195 0.892004
vt 0.818679 0.894426
vt 0.834749 0.890533
vt 0.843832 0.890112
vt 0.852934 0.890830
vt 0.861529 0.892588
vt 0.869097 0.895284
vt 0.875124 0.899432
vt 0.881540 0.913172
vt 0.879088 0.905548
vt 0.883033 0.921848
vt 0.751328 0.950239
vt 0.757317 0.950241
vt 0.756948 0.954486
vt 0.751102 0.953660
vt 0.763427 0.950242
vt 0.762920 0.955494
vt 0.761431 0.960544
vt 0.755846 0.958559
vt 0.750409 0.956976
vt 0.748713 0.937727
vt 0.745808 0.937441
vt 0.748306 0.932827
vt 0.751493 0.935072
vt 0.742695 0.936791
vt 0.744611 0.931307
vt 0.747045 0.925598
vt 0.751670 0.927995
vt 0.755711 0.931244
vt 0.733471 0.987465
vt 0.715405 0.987931
vt 0.715351 0.983142
vt 0.733133 0.982728
vt 0.693718 0.987953
vt 0.693720 0.983163
vt 0.693721 0.977570
vt 0.715241 0.977550
vt 0.732683 0.977213
vt 0.742158 0.956079
vt 0.738868 0.956010
vt 0.738847 0.952991
vt 0.742213 0.953063
vt 0.731327 0.956016
vt 0.731318 0.952980
vt 0.731317 0.950232
vt 0.738846 0.950234
vt 0.742238 0.950235
vt 0.731548 0.936130
vt 0.714865 0.936009
vt 0.715051 0.929591
vt 0.732080 0.929823
vt 0.693732 0.935991
vt 0.693734 0.929565
vt 0.693736 0.922874
vt 0.715255 0.922907
vt 0.732701 0.923254
vt 0.768168 0.956468
vt 0.766366 0.962455
vt 0.768785 0.950245
vt 0.773507 0.950249
vt 0.772800 0.957378
vt 0.770735 0.964238
vt 0.755701 0.969237
vt 0.758991 0.965191
vt 0.763426 0.967974
vt 0.759481 0.972824
vt 0.767369 0.970560
vt 0.762851 0.976116
vt 0.747032 0.974878
vt 0.751658 0.972483
vt 0.754663 0.976811
vt 0.749171 0.979801
vt 0.757337 0.980682
vt 0.751054 0.984108
vt 0.741992 0.976370
vt 0.743199 0.981670
vt 0.744230 0.986252
vt 0.742006 0.924101
vt 0.743220 0.918804
vt 0.749191 0.920677
vt 0.733153 0.917740
vt 0.733493 0.913001
vt 0.744259 0.914226
vt 0.751082 0.916374
vt 0.754681 0.923671
vt 0.759496 0.927660
vt 0.757362 0.919803
vt 0.762872 0.924374
vt 0.761436 0.939940
vt 0.758999 0.935291
vt 0.763438 0.932513
vt 0.766374 0.938034
vt 0.767385 0.929933
vt 0.770746 0.936258
vt 0.762922 0.944991
vt 0.768172 0.944023
vt 0.772806 0.943119
vt 0.715368 0.917315
vt 0.693738 0.917278
vt 0.693739 0.912484
vt 0.715425 0.912525
vt 0.742214 0.947408
vt 0.746248 0.947237
vt 0.746353 0.950237
vt 0.742160 0.944392
vt 0.745931 0.944198
vt 0.750413 0.943501
vt 0.751104 0.946817
vt 0.745928 0.956275
vt 0.745397 0.959393
vt 0.742097 0.959470
vt 0.749231 0.960079
vt 0.748706 0.962749
vt 0.745801 0.963033
vt 0.742688 0.963681
vt 0.738871 0.944458
vt 0.738934 0.940916
vt 0.742101 0.941001
vt 0.731329 0.944448
vt 0.731354 0.940832
vt 0.739381 0.936379
vt 0.744601 0.969166
vt 0.748296 0.967648
vt 0.751485 0.965406
vt 0.732069 0.970641
vt 0.740553 0.970110
vt 0.731546 0.964332
vt 0.739374 0.964091
vt 0.755851 0.941921
vt 0.754020 0.938191
vt 0.749236 0.940398
vt 0.740564 0.930361
vt 0.738930 0.959552
vt 0.731350 0.959632
vt 0.745402 0.941081
vt 0.746247 0.953236
vt 0.738848 0.947477
vt 0.731319 0.947485
vt 0.754013 0.962288
vt 0.756951 0.945995
vt 0.693727 0.956033
vt 0.693728 0.952979
vt 0.714784 0.952980
vt 0.714786 0.956031
vt 0.693729 0.950224
vt 0.714783 0.950229
vt 0.693730 0.944416
vt 0.693731 0.940762
vt 0.714797 0.940777
vt 0.714789 0.944427
vt 0.693725 0.964461
vt 0.693726 0.959687
vt 0.714791 0.959681
vt 0.714856 0.964448
vt 0.693729 0.947470
vt 0.714785 0.947478
vt 0.715040 0.970866
vt 0.693723 0.970883
vt 0.636129 0.950207
vt 0.636353 0.953629
vt 0.630506 0.954452
vt 0.630139 0.950206
vt 0.637044 0.956945
vt 0.631607 0.958525
vt 0.626021 0.960507
vt 0.624535 0.955456
vt 0.624030 0.950204
vt 0.638751 0.937697
vt 0.635972 0.935040
vt 0.639161 0.932798
vt 0.641656 0.937412
vt 0.631756 0.931210
vt 0.635799 0.927964
vt 0.640426 0.925569
vt 0.642856 0.931279
vt 0.644769 0.936764
vt 0.653965 0.987444
vt 0.654306 0.982706
vt 0.672088 0.983130
vt 0.672031 0.987919
vt 0.654759 0.977192
vt 0.672201 0.977539
vt 0.645296 0.956052
vt 0.645243 0.953037
vt 0.648609 0.952967
vt 0.648585 0.955986
vt 0.645219 0.950209
vt 0.648611 0.950210
vt 0.656140 0.950212
vt 0.656137 0.952959
vt 0.656127 0.955996
vt 0.655916 0.936109
vt 0.655388 0.929802
vt 0.672417 0.929579
vt 0.672600 0.935997
vt 0.654771 0.923233
vt 0.672216 0.922895
vt 0.621085 0.962415
vt 0.619286 0.956427
vt 0.616714 0.964196
vt 0.614653 0.957335
vt 0.613950 0.950206
vt 0.618672 0.950204
vt 0.631746 0.969203
vt 0.627964 0.972788
vt 0.624021 0.967936
vt 0.628458 0.965156
vt 0.624592 0.976079
vt 0.620077 0.970520
vt 0.640412 0.974849
vt 0.638270 0.979771
vt 0.632779 0.976778
vt 0.635787 0.972452
vt 0.636384 0.984076
vt 0.630103 0.980648
vt 0.644241 0.981643
vt 0.645451 0.976344
vt 0.643208 0.986225
vt 0.638283 0.920647
vt 0.644254 0.918777
vt 0.645465 0.924075
vt 0.636394 0.916342
vt 0.643218 0.914198
vt 0.653984 0.912979
vt 0.654322 0.917718
vt 0.627974 0.927624
vt 0.632791 0.923638
vt 0.624600 0.924336
vt 0.630112 0.919768
vt 0.626027 0.939903
vt 0.621090 0.937994
vt 0.624029 0.932475
vt 0.628466 0.935255
vt 0.616718 0.936216
vt 0.620083 0.929893
vt 0.619289 0.943982
vt 0.624537 0.944953
vt 0.614655 0.943076
vt 0.672107 0.917303
vt 0.672052 0.912513
vt 0.641104 0.950208
vt 0.641211 0.947209
vt 0.645245 0.947381
vt 0.636355 0.946785
vt 0.637048 0.943470
vt 0.641529 0.944170
vt 0.645300 0.944366
vt 0.645355 0.959444
vt 0.642055 0.959364
vt 0.641525 0.956247
vt 0.644762 0.963654
vt 0.641649 0.963005
vt 0.638744 0.962719
vt 0.638221 0.960048
vt 0.645361 0.940974
vt 0.648528 0.940892
vt 0.648589 0.944433
vt 0.648084 0.936354
vt 0.656108 0.940811
vt 0.656131 0.944428
vt 0.639151 0.967619
vt 0.642846 0.969138
vt 0.635964 0.965375
vt 0.646893 0.970084
vt 0.655376 0.970620
vt 0.648075 0.964066
vt 0.655904 0.964311
vt 0.633444 0.938158
vt 0.631611 0.941887
vt 0.638226 0.940367
vt 0.646904 0.930335
vt 0.648522 0.959527
vt 0.656101 0.959611
vt 0.642060 0.941052
vt 0.641209 0.953208
vt 0.648611 0.947452
vt 0.656139 0.947465
vt 0.633438 0.962255
vt 0.630509 0.945960
vt 0.672668 0.956019
vt 0.672672 0.952969
vt 0.672674 0.950217
vt 0.672671 0.944415
vt 0.672665 0.940765
vt 0.672594 0.964437
vt 0.672661 0.959669
vt 0.672673 0.947466
vt 0.672406 0.970855
vt 0.000500 0.478871
vt 0.103574 0.478871
vt 0.103574 0.565106
vt 0.000500 0.565106
vt 0.217680 0.478871
vt 0.217680 0.561362
vt 0.146817 0.561362
vt 0.146817 0.478871
vt 0.602446 0.298407
vt 0.602439 0.333729
vt 0.040640 0.333726
vt 0.040635 0.298405
vt 0.602430 0.374801
vt 0.602423 0.411046
vt 0.040653 0.411041
vt 0.040647 0.374798
vt 0.602413 0.445751
vt 0.602436 0.476745
vt 0.040665 0.476738
vt 0.040659 0.445744
vt 0.040630 0.263825
vt 0.602453 0.263827
s 1
f 318/1/1 26/2/2 319/3/3 158/4/4
f 27/5/5 320/6/6 158/4/4 319/3/3
f 321/7/7 28/8/8 322/9/9 159/10/10
f 26/2/2 318/1/1 159/10/10 322/9/9
f 323/11/11 29/12/12 324/13/13 160/14/14
f 28/8/8 321/7/7 160/14/14 324/13/13
f 325/15/15 30/16/16 326/17/17 161/18/18
f 29/12/12 323/11/11 161/18/18 326/17/17
f 327/19/19 31/20/20 328/21/21 162/22/22
f 325/15/15 162/22/22 328/21/21 30/16/16
f 329/23/23 32/24/24 330/25/25 163/26/26
f 31/20/20 327/19/19 163/26/26 330/25/25
f 331/27/27 33/28/28 332/29/29 164/30/30
f 32/24/24 329/23/23 164/30/30 332/29/29
f 333/31/31 34/32/32 334/33/33 165/34/34
f 33/28/28 331/27/27 165/34/34 334/33/33
f 35/35/35 336/36/36 166/37/37 335/38/38
f 336/36/36 34/32/32 333/31/31 166/37/37
f 36/39/39 338/40/40 167/41/41 337/42/42
f 338/40/40 35/35/35 335/38/38 167/41/41
f 37/43/43 340/44/44 168/45/45 339/46/46
f 340/44/44 36/39/39 337/42/42 168/45/45
f 342/47/47 169/48/48 341/49/49 38/50/50
f 342/47/47 37/43/43 339/46/46 169/48/48
f 39/51/51 344/52/52 170/53/53 343/54/54
f 344/52/52 38/50/50 341/49/49 170/53/53
f 40/55/55 346/56/56 171/57/57 345/58/58
f 346/56/56 39/51/51 343/54/54 171/57/57
f 41/59/59 348/60/60 172/61/61 347/62/62
f 348/60/60 40/55/55 345/58/58 172/61/61
f 27/5/5 349/63/63 173/64/64 320/6/6
f 349/63/63 41/59/59 347/62/62 173/64/64
f 2/65/65 350/66/66 174/67/67 353/68/68
f 350/66/66 3/69/69 351/70/70 174/67/67
f 4/71/71 352/72/72 174/67/67 351/70/70
f 352/72/72 1/73/73 353/68/68 174/67/67
f 3/69/69 354/74/74 175/75/75 351/70/70
f 354/74/74 5/76/76 355/77/77 175/75/75
f 6/78/78 356/79/79 175/75/75 355/77/77
f 356/79/79 4/71/71 351/70/70 175/75/75
f 5/76/76 357/80/80 176/81/81 355/77/77
f 357/80/80 7/82/82 358/83/83 176/81/81
f 8/84/84 359/85/85 176/81/81 358/83/83
f 6/78/78 355/77/77 176/81/81 359/85/85
f 7/82/82 360/86/86 177/87/87 358/83/83
f 360/86/86 9/88/88 361/89/89 177/87/87
f 10/90/90 362/91/91 177/87/87 361/89/89
f 362/91/91 8/84/84 358/83/83 177/87/87
f 1/73/73 352/72/72 178/92/92 365/93/93
f 352/72/72 4/71/71 363/94/94 178/92/92
f 12/95/95 364/96/96 178/92/92 363/94/94
f 364/96/96 11/97/97 365/93/93 178/92/92
f 4/71/71 356/79/79 179/98/98 363/94/94
f 356/79/79 6/78/78 366/99/99 179/98/98
f 13/100/100 367/101/101 179/98/98 366/99/99
f 367/101/101 12/95/95 363/94/94 179/98/98
f 359/85/85 180/102/102 366/99/99 6/78/78
f 359/85/85 8/84/84 368/103/103 180/102/102
f 14/104/104 369/105/105 180/102/102 368/103/103
f 13/100/100 366/99/99 180/102/102 369/105/105
f 8/84/84 362/91/91 181/106/106 368/103/103
f 362/91/91 10/90/90 370/107/107 181/106/106
f 15/108/108 371/109/109 181/106/106 370/107/107
f 371/109/109 14/104/104 368/103/103 181/106/106
f 11/97/97 364/96/96 182/110/110 374/111/111
f 364/96/96 12/95/95 372/112/112 182/110/110
f 17/113/113 373/114/114 182/110/110 372/112/112
f 373/114/114 16/115/115 374/111/111 182/110/110
f 12/95/95 367/101/101 183/116/116 372/112/112
f 367/101/101 13/100/100 375/117/117 183/116/116
f 18/118/118 376/119/119 183/116/116 375/117/117
f 376/119/119 17/113/113 372/112/112 183/116/116
f 13/100/100 369/105/105 184/120/120 375/117/117
f 369/105/105 14/104/104 377/121/121 184/120/120
f 19/122/122 378/123/123 184/120/120 377/121/121
f 378/123/123 18/118/118 375/117/117 184/120/120
f 14/104/104 371/109/109 185/124/124 377/121/121
f 371/109/109 15/108/108 379/125/125 185/124/124
f 20/126/126 380/127/127 185/124/124 379/125/125
f 380/127/127 19/122/122 377/121/121 185/124/124
f 16/115/115 373/114/114 186/128/128 383/129/129
f 373/114/114 17/113/113 381/130/130 186/128/128
f 22/131/131 382/132/132 186/128/128 381/130/130
f 382/132/132 21/133/133 383/129/129 186/128/128
f 17/113/113 376/119/119 187/134/134 381/130/130
f 376/119/119 18/118/118 384/135/135 187/134/134
f 23/136/136 385/137/137 187/134/134 384/135/135
f 385/137/137 22/131/131 381/130/130 187/134/134
f 18/118/118 378/123/123 188/138/138 384/135/135
f 378/123/123 19/122/122 386/139/139 188/138/138
f 24/140/140 387/141/141 188/138/138 386/139/139
f 387/141/141 23/136/136 384/135/135 188/138/138
f 19/122/122 380/127/127 189/142/142 386/139/139
f 380/127/127 20/126/126 388/143/143 189/142/142
f 25/144/144 389/145/145 189/142/142 388/143/143
f 389/145/145 24/140/140 386/139/139 189/142/142
f 26/2/2 390/146/146 190/147/147 319/3/3
f 390/146/146 20/126/126 379/125/125 190/147/147
f 15/108/108 391/148/148 190/147/147 379/125/125
f 391/148/148 27/5/5 319/3/3 190/147/147
f 25/144/144 388/143/143 191/149/149 392/150/150
f 388/143/143 20/126/126 390/146/146 191/149/149
f 26/2/2 322/9/9 191/149/149 390/146/146
f 322/9/9 28/8/8 392/150/150 191/149/149
f 29/12/12 393/151/151 192/152/152 324/13/13
f 393/151/151 24/140/140 389/145/145 192/152/152
f 25/144/144 392/150/150 192/152/152 389/145/145
f 392/150/150 28/8/8 324/13/13 192/152/152
f 30/16/16 394/153/153 193/154/154 326/17/17
f 394/153/153 23/136/136 387/141/141 193/154/154
f 24/140/140 393/151/151 193/154/154 387/141/141
f 393/151/151 29/12/12 326/17/17 193/154/154
f 31/20/20 395/155/155 194/156/156 328/21/21
f 395/155/155 22/131/131 385/137/137 194/156/156
f 23/136/136 394/153/153 194/156/156 385/137/137
f 394/153/153 30/16/16 328/21/21 194/156/156
f 21/133/133 382/132/132 195/157/157 396/158/158
f 382/132/132 22/131/131 395/155/155 195/157/157
f 31/20/20 330/25/25 195/157/157 395/155/155
f 330/25/25 32/24/24 396/158/158 195/157/157
f 33/28/28 397/159/159 196/160/160 332/29/29
f 397/159/159 16/115/115 383/129/129 196/160/160
f 21/133/133 396/158/158 196/160/160 383/129/129
f 396/158/158 32/24/24 332/29/29 196/160/160
f 34/32/32 398/161/161 197/162/162 334/33/33
f 398/161/161 11/97/97 374/111/111 197/162/162
f 16/115/115 397/159/159 197/162/162 374/111/111
f 397/159/159 33/28/28 334/33/33 197/162/162
f 1/73/73 365/93/93 198/163/163 399/164/164
f 365/93/93 11/97/97 398/161/161 198/163/163
f 34/32/32 336/36/36 198/163/163 398/161/161
f 336/36/36 35/35/35 399/164/164 198/163/163
f 2/65/65 353/68/68 199/165/165 400/166/166
f 353/68/68 1/73/73 399/164/164 199/165/165
f 35/35/35 338/40/40 199/165/165 399/164/164
f 338/40/40 36/39/39 400/166/166 199/165/165
f 37/43/43 401/167/167 200/168/168 340/44/44
f 401/167/167 3/69/69 350/66/66 200/168/168
f 2/65/65 400/166/166 200/168/168 350/66/66
f 400/166/166 36/39/39 340/44/44 200/168/168
f 5/76/76 354/74/74 201/169/169 402/170/170
f 354/74/74 3/69/69 401/167/167 201/169/169
f 37/43/43 342/47/47 201/169/169 401/167/167
f 342/47/47 38/50/50 402/170/170 201/169/169
f 7/82/82 357/80/80 202/171/171 403/172/172
f 5/76/76 402/170/170 202/171/171 357/80/80
f 38/50/50 344/52/52 202/171/171 402/170/170
f 344/52/52 39/51/51 403/172/172 202/171/171
f 9/88/88 360/86/86 203/173/173 404/174/174
f 360/86/86 7/82/82 403/172/172 203/173/173
f 39/51/51 346/56/56 203/173/173 403/172/172
f 346/56/56 40/55/55 404/174/174 203/173/173
f 41/59/59 405/175/175 204/176/176 348/60/60
f 405/175/175 10/90/90 361/89/89 204/176/176
f 9/88/88 404/174/174 204/176/176 361/89/89
f 404/174/174 40/55/55 348/60/60 204/176/176
f 15/108/108 370/107/107 205/177/177 391/148/148
f 370/107/107 10/90/90 405/175/175 205/177/177
f 41/59/59 349/63/63 205/177/177 405/175/175
f 349/63/63 27/5/5 391/148/148 205/177/177
f 406/178/1 42/179/2 407/180/3 206/181/4
f 43/182/5 408/183/6 206/181/4 407/180/3
f 409/184/7 44/185/8 410/186/178 207/187/10
f 42/179/2 406/178/1 207/187/10 410/186/178
f 411/188/11 45/189/12 412/190/13 208/191/14
f 44/185/8 409/184/7 208/191/14 412/190/13
f 413/192/15 46/193/16 414/194/17 209/195/18
f 45/189/12 411/188/11 209/195/18 414/194/17
f 415/196/179 47/197/20 416/198/180 210/199/22
f 46/193/16 413/192/15 210/199/22 416/198/180
f 417/200/23 48/201/24 418/202/25 211/203/26
f 47/197/20 415/196/179 211/203/26 418/202/25
f 419/204/27 49/205/28 420/206/181 212/207/30
f 48/201/24 417/200/23 212/207/30 420/206/181
f 421/208/182 50/209/32 422/210/33 213/211/34
f 49/205/28 419/204/27 213/211/34 422/210/33
f 51/212/35 424/213/36 214/214/37 423/215/38
f 424/213/36 50/209/32 421/208/182 214/214/37
f 52/216/39 426/217/40 215/218/41 425/219/42
f 426/217/40 51/212/35 423/215/38 215/218/41
f 53/220/43 428/221/44 216/222/183 427/223/46
f 428/221/44 52/216/39 425/219/42 216/222/183
f 54/224/50 430/225/47 217/226/48 429/227/49
f 430/225/47 53/220/43 427/223/46 217/226/48
f 55/228/51 432/229/184 218/230/53 431/231/54
f 432/229/184 54/224/50 429/227/49 218/230/53
f 56/232/185 434/233/56 219/234/57 433/235/58
f 434/233/56 55/228/51 431/231/54 219/234/57
f 57/236/59 436/237/60 220/238/61 435/239/62
f 436/237/60 56/232/185 433/235/58 220/238/61
f 43/182/5 437/240/63 221/241/64 408/183/6
f 437/240/63 57/236/59 435/239/62 221/241/64
f 59/242/65 438/243/66 222/244/67 441/245/68
f 438/243/66 60/246/69 439/247/70 222/244/67
f 61/248/71 440/249/72 222/244/67 439/247/70
f 440/249/72 58/250/73 441/245/68 222/244/67
f 60/246/69 442/251/74 223/252/75 439/247/70
f 442/251/74 62/253/76 443/254/77 223/252/75
f 63/255/78 444/256/79 223/252/75 443/254/77
f 444/256/79 61/248/71 439/247/70 223/252/75
f 62/253/76 445/257/80 224/258/81 443/254/77
f 445/257/80 64/259/82 446/260/83 224/258/81
f 65/261/84 447/262/85 224/258/81 446/260/83
f 447/262/85 63/255/78 443/254/77 224/258/81
f 64/259/82 448/263/86 225/264/87 446/260/83
f 448/263/86 66/265/88 449/266/89 225/264/87
f 67/267/90 450/268/91 225/264/87 449/266/89
f 450/268/91 65/261/84 446/260/83 225/264/87
f 58/250/73 440/249/72 226/269/92 453/270/93
f 440/249/72 61/248/71 451/271/94 226/269/92
f 69/272/95 452/273/96 226/269/92 451/271/94
f 452/273/96 68/274/186 453/270/93 226/269/92
f 61/248/71 444/256/79 227/275/98 451/271/94
f 444/256/79 63/255/78 454/276/99 227/275/98
f 70/277/100 455/278/101 227/275/98 454/276/99
f 455/278/101 69/272/95 451/271/94 227/275/98
f 63/255/78 447/262/85 228/279/102 454/276/99
f 447/262/85 65/261/84 456/280/103 228/279/102
f 71/281/104 457/282/105 228/279/102 456/280/103
f 457/282/105 70/277/100 454/276/99 228/279/102
f 65/261/84 450/268/91 229/283/106 456/280/103
f 450/268/91 67/267/90 458/284/107 229/283/106
f 72/285/108 459/286/109 229/283/106 458/284/107
f 459/286/109 71/281/104 456/280/103 229/283/106
f 68/274/186 452/273/96 230/287/110 462/288/111
f 452/273/96 69/272/95 460/289/112 230/287/110
f 74/290/113 461/291/114 230/287/110 460/289/112
f 461/291/114 73/292/115 462/288/111 230/287/110
f 69/272/95 455/278/101 231/293/116 460/289/112
f 455/278/101 70/277/100 463/294/117 231/293/116
f 75/295/118 464/296/187 231/293/116 463/294/117
f 464/296/187 74/290/113 460/289/112 231/293/116
f 70/277/100 457/282/105 232/297/120 463/294/117
f 457/282/105 71/281/104 465/298/121 232/297/120
f 76/299/122 466/300/123 232/297/120 465/298/121
f 466/300/123 75/295/118 463/294/117 232/297/120
f 71/281/104 459/286/109 233/301/124 465/298/121
f 459/286/109 72/285/108 467/302/125 233/301/124
f 77/303/126 468/304/127 233/301/124 467/302/125
f 468/304/127 76/299/122 465/298/121 233/301/124
f 73/292/115 461/291/114 234/305/128 471/306/129
f 461/291/114 74/290/113 469/307/130 234/305/128
f 79/308/131 470/309/132 234/305/128 469/307/130
f 470/309/132 78/310/133 471/306/129 234/305/128
f 74/290/113 464/296/187 235/311/134 469/307/130
f 464/296/187 75/295/118 472/312/188 235/311/134
f 80/313/136 473/314/189 235/311/134 472/312/188
f 473/314/189 79/308/131 469/307/130 235/311/134
f 75/295/118 466/300/123 236/315/138 472/312/188
f 466/300/123 76/299/122 474/316/139 236/315/138
f 81/317/140 475/318/141 236/315/138 474/316/139
f 475/318/141 80/313/136 472/312/188 236/315/138
f 76/299/122 468/304/127 237/319/142 474/316/139
f 468/304/127 77/303/126 476/320/143 237/319/142
f 82/321/144 477/322/145 237/319/142 476/320/143
f 477/322/145 81/317/140 474/316/139 237/319/142
f 42/179/2 478/323/190 238/324/147 407/180/3
f 478/323/190 77/303/126 467/302/125 238/324/147
f 72/285/108 479/325/191 238/324/147 467/302/125
f 479/325/191 43/182/5 407/180/3 238/324/147
f 82/321/144 476/320/143 239/326/149 480/327/150
f 476/320/143 77/303/126 478/323/190 239/326/149
f 42/179/2 410/186/178 239/326/149 478/323/190
f 410/186/178 44/185/8 480/327/150 239/326/149
f 45/189/12 481/328/151 240/329/152 412/190/13
f 481/328/151 81/317/140 477/322/145 240/329/152
f 82/321/144 480/327/150 240/329/152 477/322/145
f 480/327/150 44/185/8 412/190/13 240/329/152
f 46/193/16 482/330/153 241/331/154 414/194/17
f 482/330/153 80/313/136 475/318/141 241/331/154
f 81/317/140 481/328/151 241/331/154 475/318/141
f 481/328/151 45/189/12 414/194/17 241/331/154
f 47/197/20 483/332/155 242/333/156 416/198/180
f 483/332/155 79/308/131 473/314/189 242/333/156
f 80/313/136 482/330/153 242/333/156 473/314/189
f 482/330/153 46/193/16 416/198/180 242/333/156
f 78/310/133 470/309/132 243/334/192 484/335/158
f 470/309/132 79/308/131 483/332/155 243/334/192
f 47/197/20 418/202/25 243/334/192 483/332/155
f 418/202/25 48/201/24 484/335/158 243/334/192
f 49/205/28 485/336/193 244/337/160 420/206/181
f 485/336/193 73/292/115 471/306/129 244/337/160
f 78/310/133 484/335/158 244/337/160 471/306/129
f 484/335/158 48/201/24 420/206/181 244/337/160
f 50/209/32 486/338/161 245/339/162 422/210/33
f 486/338/161 68/274/186 462/288/111 245/339/162
f 73/292/115 485/336/193 245/339/162 462/288/111
f 485/336/193 49/205/28 422/210/33 245/339/162
f 58/250/73 453/270/93 246/340/194 487/341/164
f 453/270/93 68/274/186 486/338/161 246/340/194
f 50/209/32 424/213/36 246/340/194 486/338/161
f 424/213/36 51/212/35 487/341/164 246/340/194
f 59/242/65 441/245/68 247/342/165 488/343/166
f 441/245/68 58/250/73 487/341/164 247/342/165
f 51/212/35 426/217/40 247/342/165 487/341/164
f 426/217/40 52/216/39 488/343/166 247/342/165
f 53/220/43 489/344/167 248/345/168 428/221/44
f 489/344/167 60/246/69 438/243/66 248/345/168
f 59/242/65 488/343/166 248/345/168 438/243/66
f 488/343/166 52/216/39 428/221/44 248/345/168
f 62/253/76 442/251/74 249/346/169 490/347/170
f 442/251/74 60/246/69 489/344/167 249/346/169
f 53/220/43 430/225/47 249/346/169 489/344/167
f 430/225/47 54/224/50 490/347/170 249/346/169
f 64/259/82 445/257/80 250/348/171 491/349/195
f 445/257/80 62/253/76 490/347/170 250/348/171
f 54/224/50 432/229/184 250/348/171 490/347/170
f 432/229/184 55/228/51 491/349/195 250/348/171
f 66/265/88 448/263/86 251/350/173 492/351/174
f 448/263/86 64/259/82 491/349/195 251/350/173
f 55/228/51 434/233/56 251/350/173 491/349/195
f 434/233/56 56/232/185 492/351/174 251/350/173
f 57/236/59 493/352/175 252/353/176 436/237/60
f 493/352/175 67/267/90 449/266/89 252/353/176
f 66/265/88 492/351/174 252/353/176 449/266/89
f 492/351/174 56/232/185 436/237/60 252/353/176
f 72/285/108 458/284/107 253/354/177 479/325/191
f 458/284/107 67/267/90 493/352/175 253/354/177
f 57/236/59 437/240/63 253/354/177 493/352/175
f 437/240/63 43/182/5 479/325/191 253/354/177
f 105/355/196 502/356/197 254/357/198 505/358/199
f 502/356/197 84/359/200 503/360/201 254/357/198
f 83/361/202 504/362/203 254/357/198 503/360/201
f 504/362/203 114/363/204 505/358/199 254/357/198
f 109/364/205 506/365/206 255/366/207 509/367/208
f 506/365/206 108/368/209 507/369/210 255/366/207
f 88/370/211 508/371/212 255/366/207 507/369/210
f 508/371/212 90/372/213 509/367/208 255/366/207
f 101/373/214 510/374/215 256/375/216 513/376/217
f 510/374/215 103/377/218 511/378/219 256/375/216
f 102/379/220 512/380/221 256/375/216 511/378/219
f 512/380/221 87/381/222 513/376/217 256/375/216
f 112/382/223 514/383/224 257/384/225 517/385/226
f 514/383/224 118/386/227 515/387/228 257/384/225
f 115/388/229 516/389/229 257/384/225 515/387/228
f 516/389/229 92/390/230 517/385/226 257/384/225
f 117/391/231 518/392/232 258/393/233 521/394/234
f 518/392/232 144/395/235 519/396/236 258/393/233
f 145/397/237 520/398/238 258/393/233 519/396/236
f 520/398/238 89/399/239 521/394/234 258/393/233
f 83/361/202 503/360/201 259/400/240 524/401/241
f 503/360/201 84/359/200 523/402/242 259/400/240
f 97/403/243 494/404/244 259/400/240 523/402/242
f 494/404/244 98/405/245 524/401/241 259/400/240
f 85/406/246 525/407/247 260/408/248 526/409/249
f 525/407/247 83/361/202 524/401/241 260/408/248
f 98/405/245 495/410/250 260/408/248 524/401/241
f 495/410/250 99/411/251 526/409/249 260/408/248
f 86/412/252 527/413/253 261/414/254 528/415/255
f 527/413/253 85/406/246 526/409/249 261/414/254
f 99/411/251 496/416/256 261/414/254 526/409/249
f 496/416/256 100/417/257 528/415/255 261/414/254
f 87/381/222 529/418/258 262/419/259 513/376/217
f 529/418/258 86/412/252 528/415/255 262/419/259
f 100/417/257 497/420/260 262/419/259 528/415/255
f 497/420/260 101/373/214 513/376/217 262/419/259
f 88/370/211 530/421/261 263/422/262 532/423/263
f 530/421/261 89/399/239 531/424/264 263/422/262
f 93/425/265 498/426/266 263/422/262 531/424/264
f 498/426/266 94/427/267 532/423/263 263/422/262
f 90/372/213 508/371/212 264/428/268 533/429/269
f 508/371/212 88/370/211 532/423/263 264/428/268
f 94/427/267 499/430/270 264/428/268 532/423/263
f 499/430/270 95/431/271 533/429/269 264/428/268
f 91/432/272 534/433/273 265/434/274 535/435/275
f 534/433/273 90/372/213 533/429/269 265/434/274
f 95/431/271 500/436/276 265/434/274 533/429/269
f 500/436/276 96/437/277 535/435/275 265/434/274
f 84/359/200 536/438/278 266/439/279 523/402/242
f 536/438/278 91/432/272 535/435/275 266/439/279
f 96/437/277 501/440/280 266/439/279 535/435/275
f 501/440/280 97/403/243 523/402/242 266/439/279
f 89/399/239 520/398/238 267/441/281 531/424/264
f 520/398/238 145/397/237 537/442/282 267/441/281
f 104/443/283 522/444/284 267/441/281 537/442/282
f 522/444/284 93/425/265 531/424/264 267/441/281
f 92/390/230 538/445/285 268/446/286 541/447/287
f 538/445/285 110/448/288 539/449/289 268/446/286
f 111/450/290 540/451/291 268/446/286 539/449/289
f 540/451/291 105/355/196 541/447/287 268/446/286
f 112/382/223 542/452/292 269/453/293 545/454/294
f 542/452/292 114/363/204 543/455/295 269/453/293
f 107/456/296 544/457/297 269/453/293 543/455/295
f 544/457/297 106/458/298 545/454/294 269/453/293
f 110/448/288 546/459/299 270/460/300 549/461/301
f 546/459/299 119/462/302 547/463/303 270/460/300
f 117/391/231 548/464/304 270/460/300 547/463/303
f 548/464/304 108/368/209 549/461/301 270/460/300
f 86/412/252 550/465/305 271/466/306 527/413/253
f 550/465/305 106/458/298 544/457/297 271/466/306
f 107/456/296 551/467/307 271/466/306 544/457/297
f 551/467/307 85/406/246 527/413/253 271/466/306
f 87/381/222 552/468/308 272/469/309 529/418/258
f 552/468/308 116/470/310 553/471/311 272/469/309
f 106/458/298 550/465/305 272/469/309 553/471/311
f 550/465/305 86/412/252 529/418/258 272/469/309
f 91/432/272 554/472/312 273/473/313 534/433/273
f 554/472/312 111/450/290 555/474/314 273/473/313
f 109/364/205 509/367/208 273/473/313 555/474/314
f 509/367/208 90/372/213 534/433/273 273/473/313
f 108/368/209 548/464/304 274/475/315 507/369/210
f 548/464/304 117/391/231 521/394/234 274/475/315
f 89/399/239 530/421/261 274/475/315 521/394/234
f 530/421/261 88/370/211 507/369/210 274/475/315
f 106/458/298 553/471/311 275/476/316 545/454/294
f 553/471/311 116/470/310 556/477/317 275/476/316
f 118/386/227 514/383/224 275/476/316 556/477/317
f 514/383/224 112/382/223 545/454/294 275/476/316
f 110/448/288 549/461/301 276/478/318 539/449/289
f 549/461/301 108/368/209 506/365/206 276/478/318
f 109/364/205 555/474/314 276/478/318 506/365/206
f 555/474/314 111/450/290 539/449/289 276/478/318
f 92/390/230 541/447/287 277/479/319 517/385/226
f 541/447/287 105/355/196 505/358/199 277/479/319
f 114/363/204 542/452/292 277/479/319 505/358/199
f 542/452/292 112/382/223 517/385/226 277/479/319
f 92/390/230 516/389/229 278/480/228 538/445/285
f 516/389/229 115/388/229 557/481/320 278/480/228
f 119/462/302 546/459/299 278/480/228 557/481/320
f 546/459/299 110/448/288 538/445/285 278/480/228
f 83/361/202 525/407/247 279/482/321 504/362/203
f 525/407/247 85/406/246 551/467/307 279/482/321
f 107/456/296 543/455/295 279/482/321 551/467/307
f 543/455/295 114/363/204 504/362/203 279/482/321
f 91/432/272 536/438/278 280/483/322 554/472/312
f 536/438/278 84/359/200 502/356/197 280/483/322
f 105/355/196 540/451/291 280/483/322 502/356/197
f 540/451/291 111/450/290 554/472/312 280/483/322
f 113/484/323 558/485/227 281/486/227 560/487/323
f 558/485/227 155/488/227 559/489/227 281/486/227
f 115/388/229 515/387/228 281/486/227 559/489/227
f 515/387/228 118/386/227 560/487/323 281/486/227
f 156/490/228 561/491/324 282/492/325 562/493/228
f 561/491/324 144/395/235 518/392/232 282/492/325
f 117/391/231 547/463/303 282/492/325 518/392/232
f 547/463/303 119/462/302 562/493/228 282/492/325
f 157/494/326 563/495/327 283/496/327 564/497/328
f 563/495/327 113/484/323 560/487/323 283/496/327
f 118/386/227 556/477/317 283/496/327 560/487/323
f 556/477/317 116/470/310 564/497/328 283/496/327
f 155/488/227 565/498/227 284/499/288 559/489/227
f 565/498/227 156/490/228 562/493/228 284/499/288
f 119/462/302 557/481/320 284/499/288 562/493/228
f 557/481/320 115/388/229 559/489/227 284/499/288
f 87/381/222 512/380/221 285/500/329 552/468/308
f 512/380/221 102/379/220 566/501/330 285/500/329
f 157/494/326 564/497/328 285/500/329 566/501/330
f 564/497/328 116/470/310 552/468/308 285/500/329
f 129/502/331 575/503/332 286/504/333 578/505/334
f 575/503/332 132/506/335 576/507/336 286/504/333
f 131/508/337 577/509/338 286/504/333 576/507/336
f 577/509/338 130/510/339 578/505/334 286/504/333
f 135/511/340 579/512/341 287/513/342 582/514/343
f 579/512/341 134/515/344 580/516/345 287/513/342
f 133/517/346 581/518/347 287/513/342 580/516/345
f 581/518/347 136/519/348 582/514/343 287/513/342
f 124/520/349 583/521/350 288/522/351 585/523/352
f 583/521/350 137/524/353 584/525/354 288/522/351
f 102/379/220 511/378/219 288/522/351 584/525/354
f 511/378/219 103/377/218 585/523/352 288/522/351
f 139/526/355 586/527/356 289/528/357 589/529/357
f 586/527/356 138/530/358 587/531/302 289/528/357
f 141/532/230 588/533/359 289/528/357 587/531/302
f 588/533/359 140/534/360 589/529/357 289/528/357
f 143/535/361 590/536/362 290/537/363 592/538/364
f 590/536/362 142/539/365 591/540/366 290/537/363
f 145/397/237 519/396/236 290/537/363 591/540/366
f 519/396/236 144/395/235 592/538/364 290/537/363
f 131/508/337 594/541/367 291/542/368 577/509/338
f 594/541/367 120/543/369 567/544/370 291/542/368
f 121/545/371 595/546/372 291/542/368 567/544/370
f 595/546/372 130/510/339 577/509/338 291/542/368
f 146/547/373 596/548/374 292/549/375 597/550/376
f 596/548/374 122/551/377 568/552/378 292/549/375
f 120/543/369 594/541/367 292/549/375 568/552/378
f 594/541/367 131/508/337 597/550/376 292/549/375
f 147/553/379 598/554/380 293/555/381 599/556/382
f 598/554/380 123/557/383 569/558/384 293/555/381
f 122/551/377 596/548/374 293/555/381 569/558/384
f 596/548/374 146/547/373 599/556/382 293/555/381
f 137/524/353 583/521/350 294/559/385 600/560/386
f 583/521/350 124/520/349 570/561/387 294/559/385
f 123/557/383 598/554/380 294/559/385 570/561/387
f 598/554/380 147/553/379 600/560/386 294/559/385
f 133/517/346 601/562/388 295/563/389 603/564/390
f 601/562/388 125/565/391 571/566/392 295/563/389
f 126/567/393 602/568/394 295/563/389 571/566/392
f 602/568/394 142/539/365 603/564/390 295/563/389
f 134/515/344 604/569/395 296/570/396 580/516/345
f 604/569/395 127/571/397 572/572/398 296/570/396
f 125/565/391 601/562/388 296/570/396 572/572/398
f 601/562/388 133/517/346 580/516/345 296/570/396
f 148/573/399 605/574/400 297/575/401 606/576/402
f 605/574/400 128/577/403 573/578/404 297/575/401
f 127/571/397 604/569/395 297/575/401 573/578/404
f 604/569/395 134/515/344 606/576/402 297/575/401
f 130/510/339 595/546/372 298/579/405 607/580/406
f 595/546/372 121/545/371 574/581/407 298/579/405
f 128/577/403 605/574/400 298/579/405 574/581/407
f 605/574/400 148/573/399 607/580/406 298/579/405
f 142/539/365 602/568/394 299/582/408 591/540/366
f 602/568/394 126/567/393 593/583/409 299/582/408
f 104/443/283 537/442/282 299/582/408 593/583/409
f 537/442/282 145/397/237 591/540/366 299/582/408
f 138/530/358 608/584/410 300/585/411 611/586/323
f 608/584/410 129/502/331 609/587/412 300/585/411
f 150/588/413 610/589/414 300/585/411 609/587/412
f 610/589/414 149/590/415 611/586/323 300/585/411
f 139/526/355 612/591/416 301/592/417 615/593/418
f 612/591/416 151/594/419 613/595/420 301/592/417
f 152/596/421 614/597/422 301/592/417 613/595/420
f 614/597/422 132/506/335 615/593/418 301/592/417
f 149/590/415 616/598/423 302/599/424 619/600/425
f 616/598/423 136/519/348 617/601/426 302/599/424
f 143/535/361 618/602/427 302/599/424 617/601/426
f 618/602/427 153/603/428 619/600/425 302/599/424
f 147/553/379 599/556/382 303/604/429 621/605/430
f 599/556/382 146/547/373 620/606/431 303/604/429
f 152/596/421 613/595/420 303/604/429 620/606/431
f 613/595/420 151/594/419 621/605/430 303/604/429
f 137/524/353 600/560/386 304/607/432 623/608/433
f 600/560/386 147/553/379 621/605/430 304/607/432
f 151/594/419 622/609/434 304/607/432 621/605/430
f 622/609/434 154/610/435 623/608/433 304/607/432
f 148/573/399 606/576/402 305/611/436 625/612/437
f 606/576/402 134/515/344 579/512/341 305/611/436
f 135/511/340 624/613/438 305/611/436 579/512/341
f 624/613/438 150/588/413 625/612/437 305/611/436
f 136/519/348 581/518/347 306/614/439 617/601/426
f 581/518/347 133/517/346 603/564/390 306/614/439
f 142/539/365 590/536/362 306/614/439 603/564/390
f 590/536/362 143/535/361 617/601/426 306/614/439
f 151/594/419 612/591/416 307/615/440 622/609/434
f 612/591/416 139/526/355 589/529/357 307/615/440
f 140/534/360 626/616/441 307/615/440 589/529/357
f 626/616/441 154/610/435 622/609/434 307/615/440
f 149/590/415 610/589/414 308/617/442 616/598/423
f 610/589/414 150/588/413 624/613/438 308/617/442
f 135/511/340 582/514/343 308/617/442 624/613/438
f 582/514/343 136/519/348 616/598/423 308/617/442
f 138/530/358 586/527/356 309/618/443 608/584/410
f 586/527/356 139/526/355 615/593/418 309/618/443
f 132/506/335 575/503/332 309/618/443 615/593/418
f 575/503/332 129/502/331 608/584/410 309/618/443
f 138/530/358 611/586/323 310/619/302 587/531/302
f 611/586/323 149/590/415 619/600/425 310/619/302
f 153/603/428 627/620/444 310/619/302 619/600/425
f 627/620/444 141/532/230 587/531/302 310/619/302
f 131/508/337 576/507/336 311/621/445 597/550/376
f 576/507/336 132/506/335 614/597/422 311/621/445
f 152/596/421 620/606/431 311/621/445 614/597/422
f 620/606/431 146/547/373 597/550/376 311/621/445
f 148/573/399 625/612/437 312/622/446 607/580/406
f 625/612/437 150/588/413 609/587/412 312/622/446
f 129/502/331 578/505/334 312/622/446 609/587/412
f 578/505/334 130/510/339 607/580/406 312/622/446
f 113/484/323 628/623/288 313/624/227 558/485/227
f 628/623/288 140/534/360 588/533/359 313/624/227
f 141/532/230 629/625/227 313/624/227 588/533/359
f 629/625/227 155/488/227 558/485/227 313/624/227
f 156/490/228 630/626/228 314/627/447 561/491/324
f 630/626/228 153/603/428 618/602/427 314/627/447
f 143/535/361 592/538/364 314/627/447 618/602/427
f 592/538/364 144/395/235 561/491/324 314/627/447
f 157/494/326 631/628/448 315/629/449 563/495/327
f 631/628/448 154/610/435 626/616/441 315/629/449
f 140/534/360 628/623/288 315/629/449 626/616/441
f 628/623/288 113/484/323 563/495/327 315/629/449
f 155/488/227 629/625/227 316/630/227 565/498/227
f 629/625/227 141/532/230 627/620/444 316/630/227
f 153/603/428 630/626/228 316/630/227 627/620/444
f 630/626/228 156/490/228 565/498/227 316/630/227
f 137/524/353 623/608/433 317/631/450 584/525/354
f 623/608/433 154/610/435 631/628/448 317/631/450
f 157/494/326 566/501/330 317/631/450 631/628/448
f 566/501/330 102/379/220 584/525/354 317/631/450
f 635/632/451 636/633/451 637/634/451 634/635/451
f 632/636/452 633/637/452 639/638/452 638/639/452
f 653/640/453 650/641/454 646/642/454 642/643/453
f 652/644/455 647/645/456 643/646/456 641/647/455
f 650/641/454 652/644/455 641/647/455 646/642/454
f 648/648/455 649/649/457 645/650/457 644/651/455
f 642/643/453 640/652/458 651/653/458 653/640/453
f 644/651/455 643/646/456 647/645/456 648/648/455
