# Blender 4.5.3 LTS
# www.blender.org
o Stellar_Shift.045
v 14.137600 -21.232094 21.575932
v 14.137602 -21.887894 21.575932
v 14.079347 -21.232084 22.161678
v 14.079347 -21.232084 20.990200
v 14.079348 -21.887899 20.990200
v 13.909007 -21.232088 20.426731
v 13.909010 -21.887892 20.426731
v 13.631032 -21.232080 19.907879
v 13.631035 -21.887899 19.907879
v 13.258047 -21.232080 19.452496
v 13.258049 -21.887896 19.452496
v 12.802668 -21.232084 19.079487
v 12.802668 -21.887894 19.079487
v 12.283799 -21.232080 18.801510
v 12.283800 -21.887899 18.801510
v 11.720340 -21.232090 18.631176
v 11.720340 -21.887899 18.631176
v 11.134588 -21.232084 18.572918
v 11.134589 -21.887899 18.572918
v 10.548840 -21.232090 18.631176
v 10.548841 -21.887899 18.631176
v 9.985392 -21.232080 18.801510
v 9.985392 -21.887899 18.801510
v 9.466523 -21.232086 19.079487
v 9.466523 -21.887894 19.079487
v 9.011142 -21.232080 19.452496
v 9.011142 -21.887897 19.452496
v 8.638148 -21.232080 19.907879
v 8.638148 -21.887899 19.907879
v 8.360171 -21.232090 20.426731
v 8.360171 -21.887894 20.426731
v 8.189834 -21.232080 20.990200
v 8.189834 -21.887899 20.990192
v 8.131579 -21.232080 21.575932
v 8.131579 -21.887897 21.575932
v 8.189834 -21.232080 22.161678
v 8.189834 -21.887894 22.161671
v 8.360171 -21.232090 22.725147
v 8.360171 -21.887894 22.725147
v 8.638148 -21.232084 23.243999
v 8.638148 -21.887896 23.243992
v 9.011142 -21.232084 23.699383
v 9.011142 -21.887896 23.699375
v 9.466523 -21.232080 24.072392
v 9.466523 -21.887894 24.072384
v 9.985392 -21.232079 24.350368
v 9.985392 -21.887892 24.350368
v 10.548840 -21.232084 24.520695
v 10.548841 -21.887894 24.520695
v 11.134588 -21.232079 24.578945
v 11.134589 -21.887894 24.578945
v 11.720340 -21.232084 24.520695
v 11.720340 -21.887894 24.520695
v 12.283799 -21.232079 24.350368
v 12.283800 -21.887892 24.350368
v 12.802668 -21.232079 24.072392
v 12.802668 -21.887892 24.072384
v 13.258047 -21.232084 23.699383
v 13.258049 -21.887894 23.699383
v 13.631032 -21.232084 23.243999
v 13.631034 -21.887897 23.243992
v 13.909007 -21.232088 22.725147
v 13.909010 -21.887894 22.725147
v 14.079349 -21.887894 22.161678
v 13.934667 -28.479931 22.738697
v 13.665773 -28.487055 23.270840
v 14.093513 -28.472992 22.167156
v 13.853761 -28.611790 22.712597
v 13.609900 -28.741140 22.633778
v 14.007012 -28.605396 22.154438
v 13.594732 -28.618206 23.230434
v 13.380060 -28.745428 23.108082
v 13.238704 -28.624735 23.687496
v 13.060973 -28.750492 23.520153
v 12.794471 -28.631475 24.063328
v 13.297361 -28.494070 23.742641
v 12.839976 -28.500725 24.133152
v 12.313117 -28.506689 24.427364
v 11.736280 -28.511652 24.610241
v 12.281244 -28.637806 24.345104
v 12.184317 -28.764917 24.094906
v 11.718243 -28.643074 24.519924
v 11.663411 -28.771114 24.245052
v 11.129395 -28.646854 24.583065
v 11.117785 -28.775225 24.297726
v 10.538631 -28.648729 24.529720
v 11.133286 -28.515327 24.676723
v 10.527936 -28.517418 24.621784
v 9.944911 -28.517765 24.448544
v 9.970568 -28.648701 24.363026
v 9.408895 -28.516195 24.160069
v 8.940417 -28.513613 23.771404
v 9.449830 -28.646778 24.086109
v 9.575192 -28.772339 23.860378
v 8.996328 -28.644098 23.711834
v 9.167217 -28.769297 23.529972
v 8.629981 -28.641743 23.253094
v 8.843407 -28.767885 23.117336
v 8.362345 -28.638729 22.730358
v 8.560002 -28.510971 23.297535
v 8.281206 -28.507446 22.759563
v 8.117584 -28.502264 22.178493
v 8.204973 -28.633974 22.164158
v 8.070689 -28.496092 21.578426
v 8.159489 -28.628023 21.578487
v 8.142058 -28.489641 20.983295
v 8.227517 -28.621353 20.997456
v 8.326343 -28.482988 20.415661
v 8.403932 -28.614239 20.443577
v 8.618181 -28.476257 19.897930
v 8.683601 -28.606951 19.939518
v 9.003120 -28.469604 19.448147
v 9.054108 -28.600025 19.502911
v 9.466702 -28.463190 19.084400
v 9.503017 -28.593992 19.151455
v 9.989510 -28.457499 18.816631
v 10.011494 -28.588934 18.893444
v 10.552120 -28.453039 18.654903
v 11.133729 -28.449905 18.602741
v 10.560703 -28.585003 18.737293
v 10.586308 -28.714731 18.983440
v 11.129564 -28.582134 18.686520
v 11.117111 -28.712597 18.936489
v 11.697010 -28.580221 18.744602
v 11.647717 -28.710016 18.985790
v 12.241652 -28.579155 18.907658
v 11.713550 -28.448212 18.663723
v 12.270504 -28.447643 18.833721
v 12.783529 -28.447821 19.108616
v 13.235617 -28.449154 19.476116
v 12.742091 -28.578773 19.171711
v 12.618629 -28.705374 19.359669
v 13.181420 -28.579824 19.526424
v 13.019841 -28.705574 19.676205
v 13.542730 -28.583027 19.961346
v 13.342656 -28.709881 20.072964
v 13.814756 -28.587725 20.460072
v 13.609743 -28.452002 19.923885
v 13.892667 -28.456026 20.435329
v 14.071116 -28.460871 20.993847
v 14.139821 -28.466532 21.578236
v 13.986204 -28.593178 21.006252
v 13.731838 -28.723856 21.043224
v 14.051981 -28.599155 21.578236
v 13.788376 -28.730810 21.578136
v 13.428428 -28.842852 21.578007
v 13.746872 -28.736416 22.116062
v 13.393260 -28.847469 22.067760
v 13.282103 -28.849794 22.534649
v 13.026346 -28.920004 22.025326
v 12.949400 -28.919556 22.447666
v 12.647491 -28.966633 21.995106
v 13.051577 -28.916645 21.577946
v 12.662304 -28.964483 21.577915
v 13.020604 -28.908863 21.131641
v 12.642973 -28.956768 21.161610
v 12.938684 -28.897686 20.712063
v 13.384485 -28.835037 21.089970
v 13.265723 -28.825548 20.627697
v 13.076455 -28.815819 20.215305
v 13.581759 -28.716551 20.533932
v 12.810193 -28.809772 19.870083
v 12.811068 -28.884098 20.344845
v 12.527127 -28.926403 20.429501
v 12.611813 -28.875748 20.052532
v 12.314965 -28.880293 19.857517
v 12.455134 -28.909567 20.199238
v 12.217938 -28.924080 20.126095
v 11.872538 -28.938244 20.059933
v 12.205251 -28.954432 20.437008
v 11.848527 -28.972002 20.409801
v 12.232263 -28.975193 20.787098
v 12.595803 -28.943926 20.770634
v 11.850677 -28.995485 20.782101
v 12.254339 -28.990147 21.173267
v 11.856923 -29.013052 21.174702
v 12.265068 -28.998650 21.577930
v 11.861802 -29.022924 21.577984
v 12.258041 -29.000021 21.983486
v 11.859871 -29.023369 21.982273
v 12.239232 -28.994410 22.371899
v 12.604278 -28.963434 22.388302
v 11.856255 -29.015305 22.377316
v 12.214622 -28.981939 22.724995
v 11.856069 -28.999649 22.752987
v 12.538405 -28.954979 22.732525
v 12.229564 -28.959414 23.039997
v 12.468017 -28.944098 22.966022
v 11.881879 -28.973785 23.107655
v 12.329428 -28.923628 23.314159
v 11.956238 -28.935129 23.439808
v 12.482304 -28.860886 23.575268
v 12.627386 -28.915163 23.115536
v 12.825223 -28.915869 22.818913
v 12.833941 -28.853300 23.307270
v 13.098105 -28.850672 22.954113
v 12.062570 -28.870041 23.764042
v 12.656281 -28.757515 23.851185
v 11.594120 -28.877405 23.879597
v 11.101849 -28.881821 23.918560
v 11.532691 -28.943569 23.517689
v 11.084992 -28.948011 23.543400
v 11.487009 -28.983486 23.151455
v 11.464954 -29.011005 22.773167
v 11.069897 -28.987879 23.166035
v 10.655507 -28.986420 23.145985
v 11.059257 -29.015579 22.780094
v 11.052369 -29.034166 22.385929
v 10.656945 -29.012964 22.768299
v 10.651381 -29.030144 22.380070
v 10.275450 -29.003862 22.743885
v 10.264044 -29.018497 22.370846
v 9.932170 -28.989019 22.712978
v 10.267966 -28.979563 23.097431
v 9.931411 -28.967813 23.026592
v 10.221148 -28.942766 23.430645
v 10.144955 -28.879370 23.760036
v 10.639344 -28.947485 23.512737
v 9.855806 -28.934601 23.302174
v 9.564464 -28.928888 23.102627
v 9.729138 -28.874420 23.569988
v 9.380716 -28.870476 23.301609
v 9.117196 -28.870689 22.949131
v 8.932737 -28.871717 22.531124
v 9.368277 -28.931488 22.807339
v 9.243423 -28.936275 22.439251
v 9.629109 -28.965763 22.719471
v 9.559727 -28.974503 22.378849
v 9.704854 -28.954979 22.952465
v 9.900046 -29.000935 22.363255
v 9.514477 -28.977730 21.990566
v 9.877012 -29.006332 21.979359
v 9.498672 -28.975510 21.578922
v 9.166082 -28.937115 22.021275
v 9.140439 -28.933802 21.578915
v 8.821487 -28.870253 22.066250
v 8.786227 -28.865814 21.578793
v 8.470364 -28.762922 22.120319
v 8.428621 -28.757582 21.578640
v 8.609282 -28.766336 22.641193
v 8.486037 -28.750267 21.040195
v 8.638212 -28.741764 20.527897
v 8.829724 -28.857998 21.093029
v 8.947964 -28.847822 20.632725
v 9.170684 -28.926123 21.137547
v 9.517623 -28.967871 21.168087
v 9.251964 -28.914646 20.722179
v 9.565597 -28.954996 20.781849
v 9.379429 -28.899946 20.357891
v 9.636837 -28.937080 20.444012
v 9.576441 -28.889549 20.066662
v 9.136932 -28.836346 20.221584
v 9.401909 -28.827398 19.876873
v 8.880755 -28.732832 20.064770
v 9.207417 -28.725088 19.667377
v 9.611949 -28.720173 19.352390
v 10.077275 -28.717051 19.123219
v 9.748176 -28.824806 19.615864
v 10.158929 -28.825245 19.431705
v 9.866364 -28.890976 19.870533
v 10.228539 -28.896898 19.744587
v 9.938801 -28.931993 20.140614
v 9.713863 -28.920269 20.214046
v 9.937762 -28.961182 20.450306
v 10.272992 -28.943356 20.070950
v 10.279173 -28.975840 20.419811
v 10.657179 -28.949547 20.023098
v 10.658047 -28.984646 20.395603
v 11.067729 -28.950729 20.003132
v 10.642305 -28.900036 19.663929
v 11.082915 -28.900023 19.633602
v 10.617372 -28.825354 19.317585
v 11.100260 -28.824242 19.277294
v 11.584344 -28.820992 19.314655
v 12.045723 -28.816416 19.426418
v 11.525595 -28.896532 19.658558
v 11.480990 -28.947033 20.017170
v 11.944803 -28.889856 19.734600
v 11.460032 -28.982922 20.390224
v 11.057346 -28.987158 20.383724
v 11.453693 -29.008854 20.776325
v 11.050973 -29.014095 20.774265
v 11.452941 -29.029491 21.174068
v 11.047812 -29.036364 21.173771
v 11.454436 -29.041084 21.578121
v 11.047211 -29.048929 21.578274
v 11.454847 -29.039902 21.983212
v 11.048539 -29.046743 21.983799
v 11.457310 -29.028885 22.383511
v 10.646508 -29.040979 21.981564
v 10.644358 -29.042213 21.578449
v 10.254189 -29.026283 21.979191
v 10.250020 -29.025892 21.578648
v 9.868328 -29.004934 21.578838
v 10.255667 -29.016003 21.179081
v 10.266817 -28.998642 20.789692
v 9.879255 -28.996460 21.179119
v 10.646949 -29.030594 21.176380
v 10.652208 -29.010077 20.780392
v 9.904249 -28.981642 20.797268
v 12.155696 -28.707457 19.128002
v 12.460476 -28.811333 19.609333
v 10.610659 -28.882158 23.877468
v 10.571648 -28.776440 24.249027
v 10.049337 -28.775290 24.102177
vn 1.0000 -0.0000 -0.0000
vn 1.0000 0.0004 -0.0086
vn 0.9793 -0.0012 -0.2025
vn 0.9808 -0.0000 -0.1951
vn 0.9808 -0.0000 0.1951
vn 0.9826 0.0021 0.1856
vn 0.9214 -0.0025 -0.3887
vn 0.9239 -0.0000 -0.3827
vn 0.8285 -0.0036 -0.5599
vn 0.8315 -0.0000 -0.5556
vn 0.7050 -0.0044 -0.7092
vn 0.7071 -0.0000 -0.7071
vn 0.5549 -0.0048 -0.8319
vn 0.5556 -0.0000 -0.8315
vn 0.3832 -0.0047 -0.9236
vn 0.3827 -0.0000 -0.9239
vn 0.1969 -0.0045 -0.9804
vn 0.1951 -0.0000 -0.9808
vn 0.0034 -0.0040 -1.0000
vn -0.0000 -0.0000 -1.0000
vn -0.1900 -0.0032 -0.9818
vn -0.1951 -0.0000 -0.9808
vn -0.3760 -0.0021 -0.9266
vn -0.3827 -0.0000 -0.9239
vn -0.5482 -0.0005 -0.8363
vn -0.5556 -0.0000 -0.8315
vn -0.7003 0.0012 -0.7138
vn -0.7071 -0.0000 -0.7071
vn -0.8260 0.0031 -0.5636
vn -0.8315 -0.0000 -0.5556
vn -0.9202 0.0049 -0.3914
vn -0.9239 -0.0000 -0.3827
vn -0.9789 0.0067 -0.2040
vn -0.9808 -0.0000 -0.1951
vn -0.9999 0.0084 -0.0094
vn -1.0000 -0.0000 -0.0000
vn -0.9825 0.0102 0.1861
vn -0.9808 -0.0000 0.1951
vn -0.9266 0.0117 0.3758
vn -0.9239 -0.0000 0.3827
vn -0.8343 0.0130 0.5511
vn -0.8315 -0.0000 0.5556
vn -0.7096 0.0138 0.7045
vn -0.7071 -0.0000 0.7071
vn -0.5571 0.0143 0.8304
vn -0.5556 -0.0000 0.8315
vn -0.3820 0.0144 0.9240
vn -0.3827 -0.0000 0.9239
vn -0.1921 0.0141 0.9813
vn -0.1951 -0.0000 0.9808
vn 0.0044 0.0134 0.9999
vn -0.0000 -0.0000 1.0000
vn 0.2004 0.0125 0.9796
vn 0.1951 -0.0000 0.9808
vn 0.3891 0.0112 0.9211
vn 0.3827 -0.0000 0.9239
vn 0.5627 0.0098 0.8266
vn 0.5556 -0.0000 0.8315
vn 0.7140 0.0080 0.7001
vn 0.7071 -0.0000 0.7071
vn 0.8373 0.0060 0.5467
vn 0.8315 -0.0000 0.5556
vn 0.9278 0.0040 0.3730
vn 0.9239 -0.0000 0.3827
vn 0.9828 -0.0106 0.1842
vn 0.9283 -0.0083 0.3717
vn 0.8381 -0.0057 0.5455
vn 0.5766 -0.7894 0.2109
vn 0.5315 -0.7824 0.3245
vn 0.5992 -0.7949 0.0956
vn 0.3536 -0.9275 0.1214
vn 0.3292 -0.9243 0.1931
vn 0.3643 -0.9298 0.0521
vn 0.4548 -0.7818 0.4266
vn 0.2814 -0.9240 0.2589
vn 0.7149 -0.0035 0.6992
vn 0.3525 -0.7909 0.5002
vn 0.2138 -0.9284 0.3039
vn 0.5636 -0.0019 0.8260
vn 0.3899 -0.0010 0.9208
vn 0.2376 -0.8048 0.5438
vn 0.2050 -0.0002 0.9788
vn 0.1221 -0.8157 0.5654
vn 0.1414 -0.9348 0.3259
vn 0.0724 -0.9394 0.3350
vn 0.0083 -0.8202 0.5720
vn 0.0058 -0.9413 0.3375
vn 0.0049 0.0006 1.0000
vn -0.1059 -0.8175 0.5661
vn -0.0609 -0.9402 0.3351
vn -0.1883 0.0015 0.9821
vn -0.3820 0.0024 0.9242
vn -0.2225 -0.8083 0.5451
vn -0.5573 0.0028 0.8303
vn -0.3384 -0.7957 0.5024
vn -0.7100 0.0026 0.7042
vn -0.4412 -0.7880 0.4295
vn -0.1304 -0.9363 0.3262
vn -0.2033 -0.9305 0.3048
vn -0.2706 -0.9266 0.2609
vn -0.5175 -0.7900 0.3289
vn -0.3182 -0.9276 0.1959
vn -0.8348 0.0016 0.5505
vn -0.5641 -0.7977 0.2135
vn -0.3433 -0.9311 0.1231
vn -0.9271 -0.0002 0.3749
vn -0.9827 -0.0022 0.1850
vn -0.5882 -0.8030 0.0958
vn -0.5963 -0.8025 -0.0199
vn -0.9999 -0.0041 -0.0105
vn -0.5906 -0.7954 -0.1359
vn -0.9787 -0.0056 -0.2052
vn -0.5686 -0.7823 -0.2542
vn -0.9197 -0.0069 -0.3925
vn -0.5233 -0.7669 -0.3716
vn -0.8253 -0.0082 -0.5646
vn -0.4465 -0.7577 -0.4759
vn -0.6994 -0.0098 -0.7147
vn -0.3424 -0.7600 -0.5524
vn -0.5471 -0.0119 -0.8370
vn -0.2266 -0.7696 -0.5970
vn -0.3751 -0.0140 -0.9269
vn -0.1892 -0.0157 -0.9818
vn -0.1095 -0.7783 -0.6183
vn 0.0039 -0.0167 -0.9999
vn 0.0069 -0.7814 -0.6240
vn -0.0641 -0.9224 -0.3810
vn -0.1349 -0.9185 -0.3718
vn 0.0050 -0.9237 -0.3832
vn 0.1243 -0.7775 -0.6165
vn 0.0742 -0.9220 -0.3800
vn 0.1979 -0.0171 -0.9801
vn 0.2421 -0.7675 -0.5936
vn 0.1461 -0.9175 -0.3700
vn 0.3832 -0.0168 -0.9235
vn 0.5534 -0.0163 -0.8328
vn 0.3588 -0.7556 -0.5480
vn 0.7046 -0.0157 -0.7094
vn 0.4613 -0.7512 -0.4720
vn 0.2209 -0.9117 -0.3463
vn 0.2888 -0.9095 -0.2989
vn 0.5357 -0.7597 -0.3686
vn 0.3346 -0.9138 -0.2300
vn 0.8268 -0.0152 -0.5622
vn 0.5793 -0.7752 -0.2521
vn 0.3568 -0.9212 -0.1555
vn 0.9197 -0.0147 -0.3922
vn 0.6005 -0.7882 -0.1347
vn 0.9790 -0.0139 -0.2034
vn 0.6064 -0.7949 -0.0192
vn 0.9999 -0.0125 -0.0098
vn 0.3657 -0.9269 -0.0846
vn 0.3678 -0.9298 -0.0160
vn 0.2480 -0.9687 -0.0145
vn 0.2479 -0.9670 -0.0596
vn 0.2469 -0.9686 0.0306
vn 0.2436 -0.9668 0.0773
vn 0.1578 -0.9864 0.0459
vn 0.1586 -0.9872 0.0162
vn 0.1590 -0.9872 -0.0134
vn 0.1020 -0.9943 0.0310
vn 0.1038 -0.9946 0.0093
vn 0.1045 -0.9944 -0.0126
vn 0.1042 -0.9940 -0.0346
vn 0.1599 -0.9862 -0.0429
vn 0.1035 -0.9930 -0.0577
vn 0.1601 -0.9843 -0.0742
vn 0.2455 -0.9634 -0.1074
vn 0.1570 -0.9813 -0.1109
vn 0.2347 -0.9587 -0.1609
vn 0.2033 -0.9556 -0.2133
vn 0.1395 -0.9789 -0.1494
vn 0.1020 -0.9913 -0.0834
vn 0.0994 -0.9890 -0.1091
vn 0.1519 -0.9571 -0.2467
vn 0.1019 -0.9804 -0.1689
vn 0.0742 -0.9909 -0.1122
vn 0.0683 -0.9946 -0.0776
vn 0.0479 -0.9923 -0.1145
vn 0.0647 -0.9827 -0.1734
vn 0.0433 -0.9960 -0.0782
vn 0.0688 -0.9962 -0.0533
vn 0.0449 -0.9975 -0.0551
vn 0.0710 -0.9969 -0.0333
vn 0.0486 -0.9982 -0.0357
vn 0.0724 -0.9973 -0.0125
vn 0.0509 -0.9986 -0.0128
vn 0.0716 -0.9974 0.0083
vn 0.0491 -0.9987 0.0106
vn 0.0691 -0.9972 0.0288
vn 0.0449 -0.9985 0.0313
vn 0.0991 -0.9935 0.0556
vn 0.0666 -0.9964 0.0527
vn 0.0427 -0.9976 0.0553
vn 0.0701 -0.9940 0.0844
vn 0.0460 -0.9951 0.0872
vn 0.0948 -0.9922 0.0804
vn 0.1354 -0.9836 0.1194
vn 0.0974 -0.9856 0.1381
vn 0.0619 -0.9880 0.1414
vn 0.0950 -0.9701 0.2232
vn 0.1473 -0.9661 0.2122
vn 0.1988 -0.9633 0.1804
vn 0.2316 -0.9642 0.1295
vn 0.1542 -0.9847 0.0814
vn 0.0486 -0.9730 0.2258
vn 0.0321 -0.9894 0.1416
vn 0.0044 -0.9740 0.2267
vn 0.0035 -0.9899 0.1415
vn 0.0028 -0.9960 0.0888
vn 0.0243 -0.9958 0.0886
vn 0.0224 -0.9981 0.0578
vn 0.0023 -0.9983 0.0582
vn -0.0249 -0.9896 0.1418
vn -0.0181 -0.9960 0.0877
vn -0.0178 -0.9982 0.0569
vn 0.0015 -0.9993 0.0377
vn 0.0245 -0.9991 0.0358
vn -0.0212 -0.9991 0.0355
vn -0.0402 -0.9987 0.0311
vn -0.0375 -0.9978 0.0543
vn -0.0399 -0.9955 0.0862
vn -0.0626 -0.9976 0.0287
vn -0.0604 -0.9968 0.0523
vn -0.0639 -0.9944 0.0837
vn -0.0553 -0.9884 0.1416
vn -0.0910 -0.9861 0.1388
vn -0.0868 -0.9707 0.2241
vn -0.1398 -0.9668 0.2138
vn -0.0398 -0.9732 0.2265
vn -0.0882 -0.9929 0.0801
vn -0.1294 -0.9841 0.1214
vn -0.1919 -0.9641 0.1833
vn -0.2256 -0.9651 0.1329
vn -0.1486 -0.9853 0.0838
vn -0.2386 -0.9679 0.0795
vn -0.1529 -0.9871 0.0473
vn -0.0950 -0.9950 0.0315
vn -0.0921 -0.9942 0.0562
vn -0.0972 -0.9952 0.0092
vn -0.0654 -0.9978 0.0083
vn -0.1540 -0.9879 0.0161
vn -0.0980 -0.9951 -0.0125
vn -0.0664 -0.9977 -0.0125
vn -0.1548 -0.9879 -0.0131
vn -0.2440 -0.9697 -0.0143
vn -0.2427 -0.9696 0.0312
vn -0.3591 -0.9332 -0.0161
vn -0.3549 -0.9334 0.0523
vn -0.3574 -0.9301 -0.0849
vn -0.2441 -0.9679 -0.0602
vn -0.3480 -0.9243 -0.1566
vn -0.2411 -0.9643 -0.1091
vn -0.1550 -0.9850 -0.0752
vn -0.1553 -0.9869 -0.0428
vn -0.0974 -0.9947 -0.0343
vn -0.0964 -0.9936 -0.0584
vn -0.0944 -0.9920 -0.0841
vn -0.1509 -0.9821 -0.1129
vn -0.2287 -0.9596 -0.1637
vn -0.0920 -0.9898 -0.1089
vn -0.1324 -0.9796 -0.1509
vn -0.1954 -0.9567 -0.2159
vn -0.3245 -0.9171 -0.2317
vn -0.2770 -0.9126 -0.3007
vn -0.2087 -0.9138 -0.3484
vn -0.1432 -0.9579 -0.2487
vn -0.0897 -0.9613 -0.2603
vn -0.0582 -0.9831 -0.1734
vn -0.0947 -0.9810 -0.1694
vn -0.0426 -0.9926 -0.1138
vn -0.0678 -0.9914 -0.1117
vn -0.0621 -0.9950 -0.0778
vn -0.0386 -0.9962 -0.0779
vn -0.0194 -0.9932 -0.1152
vn -0.0188 -0.9966 -0.0801
vn -0.0265 -0.9844 -0.1741
vn 0.0022 -0.9932 -0.1162
vn 0.0016 -0.9967 -0.0814
vn 0.0028 -0.9847 -0.1743
vn -0.0417 -0.9639 -0.2630
vn 0.0035 -0.9646 -0.2635
vn 0.0494 -0.9637 -0.2622
vn 0.0329 -0.9841 -0.1743
vn 0.0979 -0.9609 -0.2589
vn 0.0241 -0.9930 -0.1157
vn 0.0224 -0.9965 -0.0805
vn 0.0013 -0.9982 -0.0607
vn 0.0245 -0.9980 -0.0587
vn 0.0283 -0.9988 -0.0397
vn 0.0012 -0.9991 -0.0419
vn 0.0016 -0.9999 -0.0128
vn 0.0304 -0.9995 -0.0129
vn 0.0283 -0.9995 0.0146
vn 0.0015 -0.9999 0.0166
vn -0.0275 -0.9995 -0.0129
vn -0.0254 -0.9996 0.0148
vn -0.0466 -0.9988 -0.0128
vn -0.0446 -0.9989 0.0108
vn -0.0645 -0.9974 -0.0331
vn -0.0442 -0.9984 -0.0360
vn -0.0255 -0.9989 -0.0400
vn -0.0404 -0.9977 -0.0552
vn -0.0215 -0.9980 -0.0587
vn -0.0624 -0.9966 -0.0536
vt 0.710729 0.401721
vt 0.710729 0.404452
vt 0.708275 0.404452
vt 0.708286 0.401721
vt 0.713192 0.401721
vt 0.713192 0.404462
vt 0.705822 0.404452
vt 0.705822 0.401711
vt 0.703369 0.404441
vt 0.703369 0.401711
vt 0.700915 0.404441
vt 0.700915 0.401711
vt 0.698462 0.404441
vt 0.698462 0.401711
vt 0.696009 0.404452
vt 0.696009 0.401711
vt 0.693555 0.404462
vt 0.693545 0.401721
vt 0.691102 0.404472
vt 0.691092 0.401731
vt 0.688649 0.404482
vt 0.688628 0.401742
vt 0.686195 0.404493
vt 0.686185 0.401762
vt 0.683742 0.404513
vt 0.683722 0.401772
vt 0.681289 0.404523
vt 0.681268 0.401793
vt 0.678836 0.404544
vt 0.678825 0.401803
vt 0.676382 0.404554
vt 0.676362 0.401824
vt 0.673929 0.404565
vt 0.673919 0.401834
vt 0.671465 0.404575
vt 0.671465 0.401844
vt 0.669022 0.404575
vt 0.669022 0.401844
vt 0.666559 0.404575
vt 0.666569 0.401844
vt 0.664105 0.404565
vt 0.664126 0.401834
vt 0.661662 0.404554
vt 0.661683 0.401824
vt 0.659199 0.404534
vt 0.659230 0.401803
vt 0.656746 0.404503
vt 0.656787 0.401772
vt 0.654292 0.404472
vt 0.654333 0.401731
vt 0.651839 0.404431
vt 0.651880 0.401690
vt 0.730345 0.401680
vt 0.730365 0.404411
vt 0.727912 0.404431
vt 0.727892 0.401701
vt 0.725459 0.404452
vt 0.725448 0.401711
vt 0.722995 0.404462
vt 0.722985 0.401721
vt 0.720552 0.404462
vt 0.720542 0.401731
vt 0.718089 0.404462
vt 0.718089 0.401731
vt 0.715635 0.404462
vt 0.715635 0.401731
vt 0.713151 0.431910
vt 0.715615 0.431941
vt 0.718099 0.431972
vt 0.715635 0.432598
vt 0.718109 0.432618
vt 0.713161 0.432567
vt 0.022984 0.018183
vt 0.024113 0.018563
vt 0.023004 0.020749
vt 0.021999 0.020174
vt 0.023569 0.016017
vt 0.024770 0.016202
vt 0.021475 0.022689
vt 0.020643 0.021899
vt 0.720593 0.432003
vt 0.720593 0.432649
vt 0.019576 0.024270
vt 0.018929 0.023285
vt 0.723098 0.432033
vt 0.723088 0.432680
vt 0.725602 0.432044
vt 0.725592 0.432690
vt 0.728138 0.432054
vt 0.728128 0.432711
vt 0.016948 0.024291
vt 0.017389 0.025451
vt 0.015008 0.026159
vt 0.014751 0.024907
vt 0.012503 0.026416
vt 0.012462 0.025112
vt 0.730632 0.432721
vt 0.730653 0.432044
vt 0.010009 0.026169
vt 0.010173 0.024897
vt 0.653871 0.432772
vt 0.651367 0.432721
vt 0.651326 0.432054
vt 0.653851 0.432105
vt 0.656376 0.432146
vt 0.656407 0.432793
vt 0.658922 0.432157
vt 0.658952 0.432803
vt 0.661457 0.432167
vt 0.661467 0.432814
vt 0.007986 0.024260
vt 0.007596 0.025451
vt 0.005400 0.024281
vt 0.005995 0.023244
vt 0.003480 0.022679
vt 0.004291 0.021837
vt 0.001940 0.020719
vt 0.002936 0.020092
vt 0.663982 0.432177
vt 0.663972 0.432824
vt 0.000821 0.018491
vt 0.001971 0.018080
vt 0.666518 0.432167
vt 0.666497 0.432814
vt 0.669022 0.432146
vt 0.669022 0.432803
vt 0.671537 0.432772
vt 0.671527 0.432126
vt 0.674042 0.432731
vt 0.674032 0.432085
vt 0.676536 0.432680
vt 0.676516 0.432044
vt 0.679000 0.432639
vt 0.678979 0.432003
vt 0.681453 0.432588
vt 0.681453 0.431962
vt 0.683886 0.432547
vt 0.683906 0.431920
vt 0.686329 0.432526
vt 0.686360 0.431879
vt 0.688793 0.431849
vt 0.688762 0.432495
vt 0.691215 0.431818
vt 0.691205 0.432475
vt 0.007925 0.002262
vt 0.010255 0.001615
vt 0.010368 0.002775
vt 0.008233 0.003339
vt 0.012667 0.001410
vt 0.012606 0.002590
vt 0.015069 0.001676
vt 0.014833 0.002816
vt 0.693648 0.431797
vt 0.693648 0.432454
vt 0.017379 0.002385
vt 0.016958 0.003422
vt 0.696070 0.431797
vt 0.696081 0.432434
vt 0.698503 0.431787
vt 0.698503 0.432424
vt 0.700926 0.431797
vt 0.700905 0.432424
vt 0.019494 0.003504
vt 0.018898 0.004407
vt 0.021362 0.005033
vt 0.020582 0.005742
vt 0.022881 0.006881
vt 0.021927 0.007425
vt 0.703358 0.431808
vt 0.703328 0.432434
vt 0.024010 0.009016
vt 0.022922 0.009365
vt 0.705791 0.431828
vt 0.705750 0.432465
vt 0.708214 0.432506
vt 0.708234 0.431849
vt 0.710677 0.432547
vt 0.710688 0.431879
vt 0.024719 0.011336
vt 0.023538 0.011511
vt 0.024975 0.013759
vt 0.023754 0.013759
vt 0.022183 0.013748
vt 0.022009 0.011716
vt 0.022019 0.015791
vt 0.021547 0.017752
vt 0.020140 0.017372
vt 0.020469 0.015617
vt 0.020582 0.013748
vt 0.018693 0.017105
vt 0.018878 0.015473
vt 0.018960 0.013738
vt 0.018888 0.012014
vt 0.020469 0.011890
vt 0.018703 0.010381
vt 0.020140 0.010135
vt 0.021526 0.009786
vt 0.019617 0.008606
vt 0.020756 0.008051
vt 0.019648 0.006604
vt 0.018796 0.007374
vt 0.018426 0.008955
vt 0.018139 0.007990
vt 0.018200 0.005505
vt 0.017564 0.006563
vt 0.017153 0.007692
vt 0.017092 0.008985
vt 0.015706 0.007404
vt 0.016034 0.006039
vt 0.015593 0.008862
vt 0.017184 0.010433
vt 0.015593 0.010412
vt 0.017266 0.012044
vt 0.015603 0.012044
vt 0.017297 0.013728
vt 0.015613 0.013718
vt 0.017256 0.015411
vt 0.015593 0.015401
vt 0.017174 0.017033
vt 0.015572 0.017044
vt 0.018406 0.018532
vt 0.017061 0.018491
vt 0.015572 0.018604
vt 0.017122 0.019815
vt 0.015665 0.020082
vt 0.018118 0.019518
vt 0.018785 0.020133
vt 0.017533 0.020965
vt 0.015973 0.021478
vt 0.016424 0.022843
vt 0.018180 0.022074
vt 0.019658 0.020965
vt 0.020767 0.019497
vt 0.019607 0.018912
vt 0.014464 0.023316
vt 0.014207 0.021786
vt 0.012400 0.023470
vt 0.012349 0.021879
vt 0.012288 0.020308
vt 0.014022 0.020257
vt 0.013951 0.018676
vt 0.012257 0.018696
vt 0.010491 0.021745
vt 0.010563 0.020205
vt 0.010584 0.018635
vt 0.012236 0.017054
vt 0.013920 0.017054
vt 0.010573 0.017023
vt 0.008962 0.016972
vt 0.009003 0.018522
vt 0.008951 0.020000
vt 0.007453 0.016931
vt 0.007566 0.018388
vt 0.007555 0.019692
vt 0.008746 0.021386
vt 0.007227 0.020842
vt 0.008418 0.022782
vt 0.006683 0.021981
vt 0.010347 0.023295
vt 0.006611 0.019384
vt 0.006015 0.020010
vt 0.005235 0.020842
vt 0.004147 0.019364
vt 0.005215 0.018768
vt 0.003377 0.017618
vt 0.004701 0.017239
vt 0.006026 0.016982
vt 0.006303 0.018409
vt 0.005851 0.015370
vt 0.007360 0.015329
vt 0.004383 0.015494
vt 0.005800 0.013656
vt 0.007340 0.013666
vt 0.004301 0.013646
vt 0.002792 0.013636
vt 0.002926 0.015678
vt 0.001232 0.013625
vt 0.001396 0.015894
vt 0.000000 0.013605
vt 0.000164 0.016089
vt 0.000298 0.011141
vt 0.001499 0.011357
vt 0.002987 0.011603
vt 0.001057 0.008801
vt 0.002145 0.009211
vt 0.003490 0.009694
vt 0.004784 0.010084
vt 0.004424 0.011808
vt 0.005892 0.011952
vt 0.006087 0.010351
vt 0.006406 0.008934
vt 0.005328 0.008564
vt 0.004301 0.007969
vt 0.006724 0.007979
vt 0.006149 0.007353
vt 0.005410 0.006542
vt 0.003182 0.007261
vt 0.004558 0.005608
vt 0.002248 0.006665
vt 0.003829 0.004818
vt 0.005759 0.003339
vt 0.006272 0.004294
vt 0.006867 0.005464
vt 0.008592 0.004694
vt 0.008879 0.006039
vt 0.007360 0.006552
vt 0.009064 0.007404
vt 0.007658 0.007692
vt 0.007648 0.008975
vt 0.009075 0.008862
vt 0.010655 0.007209
vt 0.010655 0.008780
vt 0.010604 0.005700
vt 0.012359 0.007148
vt 0.012318 0.008739
vt 0.012431 0.005598
vt 0.010501 0.004233
vt 0.012524 0.004079
vt 0.014536 0.004253
vt 0.014279 0.005711
vt 0.016466 0.004725
vt 0.014084 0.007209
vt 0.013981 0.008780
vt 0.012277 0.010361
vt 0.013951 0.010381
vt 0.013940 0.012034
vt 0.012257 0.012024
vt 0.012236 0.013697
vt 0.013930 0.013707
vt 0.013920 0.015391
vt 0.012236 0.015381
vt 0.010563 0.013687
vt 0.010563 0.015360
vt 0.008921 0.013677
vt 0.008931 0.015340
vt 0.007391 0.012014
vt 0.008962 0.012024
vt 0.010584 0.012024
vt 0.009013 0.010402
vt 0.010614 0.010381
vt 0.007514 0.010422
s 1
f 1/1/1 2/2/2 5/3/3 4/4/4
f 2/2/2 1/1/1 3/5/5 64/6/6
f 7/7/7 6/8/8 4/4/4 5/3/3
f 6/8/8 7/7/7 9/9/9 8/10/10
f 11/11/11 10/12/12 8/10/10 9/9/9
f 10/12/12 11/11/11 13/13/13 12/14/14
f 15/15/15 14/16/16 12/14/14 13/13/13
f 14/16/16 15/15/15 17/17/17 16/18/18
f 19/19/19 18/20/20 16/18/18 17/17/17
f 18/20/20 19/19/19 21/21/21 20/22/22
f 23/23/23 22/24/24 20/22/22 21/21/21
f 22/24/24 23/23/23 25/25/25 24/26/26
f 27/27/27 26/28/28 24/26/26 25/25/25
f 26/28/28 27/27/27 29/29/29 28/30/30
f 31/31/31 30/32/32 28/30/30 29/29/29
f 30/32/32 31/31/31 33/33/33 32/34/34
f 35/35/35 34/36/36 32/34/34 33/33/33
f 34/36/36 35/35/35 37/37/37 36/38/38
f 39/39/39 38/40/40 36/38/38 37/37/37
f 38/40/40 39/39/39 41/41/41 40/42/42
f 43/43/43 42/44/44 40/42/42 41/41/41
f 42/44/44 43/43/43 45/45/45 44/46/46
f 47/47/47 46/48/48 44/46/46 45/45/45
f 46/48/48 47/47/47 49/49/49 48/50/50
f 51/51/51 50/52/52 48/50/50 49/49/49
f 50/53/52 51/54/51 53/55/53 52/56/54
f 55/57/55 54/58/56 52/56/54 53/55/53
f 54/58/56 55/57/55 57/59/57 56/60/58
f 59/61/59 58/62/60 56/60/58 57/59/57
f 58/62/60 59/61/59 61/63/61 60/64/62
f 63/65/63 62/66/64 60/64/62 61/63/61
f 62/66/64 63/65/63 64/6/6 3/5/5
f 67/67/65 64/6/6 63/65/63 65/68/66
f 63/65/63 61/63/61 66/69/67 65/68/66
f 68/70/68 65/68/66 66/69/67 71/71/69
f 65/68/66 68/70/68 70/72/70 67/67/65
f 69/73/71 68/74/68 71/75/69 72/76/72
f 68/74/68 69/73/71 147/77/73 70/78/70
f 73/79/74 74/80/75 72/76/72 71/75/69
f 76/81/76 73/82/74 71/71/69 66/69/67
f 74/80/75 73/79/74 75/83/77 198/84/78
f 73/82/74 76/81/76 77/85/79 75/86/77
f 57/59/57 77/85/79 76/81/76 59/61/59
f 59/61/59 76/81/76 66/69/67 61/63/61
f 78/87/80 80/88/81 75/86/77 77/85/79
f 55/57/55 78/87/80 77/85/79 57/59/57
f 53/55/53 79/89/82 78/87/80 55/57/55
f 82/90/83 80/88/81 78/87/80 79/89/82
f 81/91/84 80/92/81 82/93/83 83/94/85
f 80/92/81 81/91/84 198/84/78 75/83/77
f 84/95/86 85/96/87 83/94/85 82/93/83
f 84/97/86 82/90/83 79/89/82 87/98/88
f 85/96/87 84/95/86 86/99/89 304/100/90
f 86/101/89 84/102/86 87/103/88 88/104/91
f 49/49/49 88/104/91 87/103/88 51/51/51
f 51/54/51 87/98/88 79/89/82 53/55/53
f 86/101/89 88/104/91 89/105/92 90/106/93
f 47/47/47 89/105/92 88/104/91 49/49/49
f 89/105/92 47/47/47 45/45/45 91/107/94
f 90/106/93 89/105/92 91/107/94 93/108/95
f 91/107/94 45/45/45 43/43/43 92/109/96
f 92/109/96 95/110/97 93/108/95 91/107/94
f 305/111/98 90/112/93 93/113/95 94/114/99
f 95/115/97 96/116/100 94/114/99 93/113/95
f 96/116/100 95/115/97 97/117/101 98/118/102
f 95/110/97 92/109/96 100/119/103 97/120/101
f 99/121/104 240/122/105 98/118/102 97/117/101
f 101/123/106 99/124/104 97/120/101 100/119/103
f 43/43/43 41/41/41 100/119/103 92/109/96
f 100/119/103 41/41/41 39/39/39 101/123/106
f 39/39/39 37/37/37 102/125/107 101/123/106
f 103/126/108 99/124/104 101/123/106 102/125/107
f 105/127/109 103/126/108 102/125/107 104/128/110
f 35/35/35 104/128/110 102/125/107 37/37/37
f 107/129/111 105/127/109 104/128/110 106/130/112
f 35/35/35 33/33/33 106/130/112 104/128/110
f 109/131/113 107/129/111 106/130/112 108/132/114
f 31/31/31 108/132/114 106/130/112 33/33/33
f 111/133/115 109/131/113 108/132/114 110/134/116
f 29/29/29 110/134/116 108/132/114 31/31/31
f 113/135/117 111/133/115 110/134/116 112/136/118
f 27/27/27 112/136/118 110/134/116 29/29/29
f 115/137/119 113/135/117 112/136/118 114/138/120
f 25/25/25 114/138/120 112/136/118 27/27/27
f 117/139/121 115/137/119 114/138/120 116/140/122
f 23/23/23 116/140/122 114/138/120 25/25/25
f 117/139/121 116/140/122 118/141/123 120/142/124
f 116/140/122 23/23/23 21/21/21 118/141/123
f 118/141/123 21/21/21 19/19/19 119/143/125
f 119/143/125 122/144/126 120/142/124 118/141/123
f 117/145/121 120/146/124 121/147/127 257/148/128
f 120/146/124 122/149/126 123/150/129 121/147/127
f 122/149/126 124/151/130 125/152/131 123/150/129
f 122/144/126 119/143/125 127/153/132 124/154/130
f 124/151/130 126/155/133 301/156/134 125/152/131
f 128/157/135 126/158/133 124/154/130 127/153/132
f 19/19/19 17/17/17 127/153/132 119/143/125
f 127/153/132 17/17/17 15/15/15 128/157/135
f 15/15/15 13/13/13 129/159/136 128/157/135
f 126/158/133 128/157/135 129/159/136 131/160/137
f 129/159/136 13/13/13 11/11/11 130/161/138
f 130/161/138 133/162/139 131/160/137 129/159/136
f 126/155/133 131/163/137 132/164/140 301/156/134
f 131/163/137 133/165/139 134/166/141 132/164/140
f 133/165/139 135/167/142 136/168/143 134/166/141
f 133/162/139 130/161/138 138/169/144 135/170/142
f 135/167/142 137/171/145 161/172/146 136/168/143
f 139/173/147 137/174/145 135/170/142 138/169/144
f 11/11/11 9/9/9 138/169/144 130/161/138
f 138/169/144 9/9/9 7/7/7 139/173/147
f 142/175/148 137/174/145 139/173/147 140/176/149
f 7/7/7 5/3/3 140/176/149 139/173/147
f 144/177/150 142/175/148 140/176/149 141/178/151
f 141/178/151 140/176/149 5/3/3 2/2/2
f 137/171/145 142/179/148 143/180/152 161/172/146
f 142/179/148 144/181/150 145/182/153 143/180/152
f 145/182/153 144/181/150 70/78/70 147/77/73
f 144/177/150 141/178/151 67/67/65 70/72/70
f 146/183/154 158/184/155 143/180/152 145/182/153
f 146/183/154 145/182/153 147/77/73 148/185/156
f 69/73/71 149/186/157 148/185/156 147/77/73
f 149/186/157 151/187/158 150/188/159 148/185/156
f 153/189/160 146/183/154 148/185/156 150/188/159
f 151/187/158 182/190/161 152/191/162 150/188/159
f 154/192/163 153/189/160 150/188/159 152/191/162
f 154/192/163 156/193/164 155/194/165 153/189/160
f 158/184/155 146/183/154 153/189/160 155/194/165
f 156/193/164 173/195/166 157/196/167 155/194/165
f 159/197/168 158/184/155 155/194/165 157/196/167
f 158/184/155 159/197/168 161/172/146 143/180/152
f 159/197/168 157/196/167 163/198/169 160/199/170
f 159/197/168 160/199/170 136/168/143 161/172/146
f 160/199/170 162/200/171 134/166/141 136/168/143
f 165/201/172 162/200/171 160/199/170 163/198/169
f 157/196/167 173/195/166 164/202/173 163/198/169
f 167/203/174 165/201/172 163/198/169 164/202/173
f 302/204/175 162/200/171 165/201/172 166/205/176
f 167/203/174 168/206/177 166/205/176 165/201/172
f 168/206/177 167/203/174 164/202/173 170/207/178
f 168/206/177 169/208/179 278/209/180 166/205/176
f 169/208/179 168/206/177 170/207/178 171/210/181
f 172/211/182 174/212/183 171/210/181 170/207/178
f 173/195/166 172/211/182 170/207/178 164/202/173
f 172/211/182 173/195/166 156/193/164 175/213/184
f 174/212/183 172/211/182 175/213/184 176/214/185
f 177/215/186 178/216/187 176/214/185 175/213/184
f 154/192/163 177/215/186 175/213/184 156/193/164
f 177/215/186 154/192/163 152/191/162 179/217/188
f 178/216/187 177/215/186 179/217/188 180/218/189
f 181/219/190 183/220/191 180/218/189 179/217/188
f 182/190/161 181/219/190 179/217/188 152/191/162
f 181/219/190 182/190/161 186/221/192 184/222/193
f 183/220/191 181/219/190 184/222/193 185/223/194
f 187/224/195 189/225/196 185/223/194 184/222/193
f 188/226/197 187/224/195 184/222/193 186/221/192
f 188/226/197 193/227/198 190/228/199 187/224/195
f 191/229/200 189/225/196 187/224/195 190/228/199
f 197/230/201 191/229/200 190/228/199 192/231/202
f 193/227/198 195/232/203 192/231/202 190/228/199
f 196/233/204 195/232/203 193/227/198 194/234/205
f 188/226/197 186/221/192 194/234/205 193/227/198
f 195/232/203 74/80/75 198/84/78 192/231/202
f 74/80/75 195/232/203 196/233/204 72/76/72
f 149/186/157 69/73/71 72/76/72 196/233/204
f 149/186/157 196/233/204 194/234/205 151/187/158
f 186/221/192 182/190/161 151/187/158 194/234/205
f 81/91/84 197/230/201 192/231/202 198/84/78
f 197/230/201 81/91/84 83/94/85 199/235/206
f 191/229/200 197/230/201 199/235/206 201/236/207
f 200/237/208 202/238/209 201/236/207 199/235/206
f 85/96/87 200/237/208 199/235/206 83/94/85
f 202/238/209 205/239/210 203/240/211 201/236/207
f 189/225/196 191/229/200 201/236/207 203/240/211
f 189/225/196 203/240/211 204/241/212 185/223/194
f 203/240/211 205/239/210 207/242/213 204/241/212
f 205/239/210 202/238/209 218/243/214 206/244/215
f 205/239/210 206/244/215 209/245/216 207/242/213
f 208/246/217 289/247/218 204/241/212 207/242/213
f 210/248/219 208/246/217 207/242/213 209/245/216
f 212/249/220 210/248/219 209/245/216 211/250/221
f 206/244/215 214/251/222 211/250/221 209/245/216
f 230/252/223 212/249/220 211/250/221 213/253/224
f 214/251/222 215/254/225 213/253/224 211/250/221
f 215/254/225 214/251/222 216/255/226 219/256/227
f 216/255/226 214/251/222 206/244/215 218/243/214
f 217/257/228 221/258/229 219/256/227 216/255/226
f 217/257/228 216/255/226 218/243/214 303/259/230
f 229/260/231 215/254/225 219/256/227 220/261/232
f 221/258/229 222/262/233 220/261/232 219/256/227
f 96/116/100 222/262/233 221/258/229 94/114/99
f 217/257/228 305/111/98 94/114/99 221/258/229
f 222/262/233 96/116/100 98/118/102 223/263/234
f 220/261/232 222/262/233 223/263/234 225/264/235
f 224/265/236 226/266/237 225/264/235 223/263/234
f 240/122/105 224/265/236 223/263/234 98/118/102
f 226/266/237 228/267/238 227/268/239 225/264/235
f 229/260/231 220/261/232 225/264/235 227/268/239
f 215/254/225 229/260/231 227/268/239 213/253/224
f 228/267/238 230/252/223 213/253/224 227/268/239
f 230/252/223 228/267/238 231/269/240 232/270/241
f 228/267/238 226/266/237 234/271/242 231/269/240
f 233/272/243 294/273/244 232/270/241 231/269/240
f 235/274/245 233/272/243 231/269/240 234/271/242
f 237/275/246 235/274/245 234/271/242 236/276/247
f 226/266/237 224/265/236 236/276/247 234/271/242
f 239/277/248 237/275/246 236/276/247 238/278/249
f 224/265/236 240/122/105 238/278/249 236/276/247
f 105/279/109 239/277/248 238/278/249 103/280/108
f 240/122/105 99/121/104 103/280/108 238/278/249
f 105/279/109 107/281/111 241/282/250 239/277/248
f 243/283/251 237/275/246 239/277/248 241/282/250
f 107/281/111 109/284/113 242/285/252 241/282/250
f 244/286/253 243/283/251 241/282/250 242/285/252
f 243/283/251 244/286/253 247/287/254 245/288/255
f 237/275/246 243/283/251 245/288/255 235/274/245
f 246/289/256 233/272/243 235/274/245 245/288/255
f 248/290/257 246/289/256 245/288/255 247/287/254
f 250/291/258 248/290/257 247/287/254 249/292/259
f 244/286/253 252/293/260 249/292/259 247/287/254
f 263/294/261 250/291/258 249/292/259 251/295/262
f 252/293/260 253/296/263 251/295/262 249/292/259
f 253/296/263 252/293/260 254/297/264 255/298/265
f 252/293/260 244/286/253 242/285/252 254/297/264
f 111/299/115 113/300/117 255/298/265 254/297/264
f 109/284/113 111/299/115 254/297/264 242/285/252
f 113/300/117 115/301/119 256/302/266 255/298/265
f 258/303/267 253/296/263 255/298/265 256/302/266
f 115/301/119 117/145/121 257/148/128 256/302/266
f 259/304/268 258/303/267 256/302/266 257/148/128
f 259/304/268 261/305/269 260/306/270 258/303/267
f 251/295/262 253/296/263 258/303/267 260/306/270
f 261/305/269 265/307/271 262/308/272 260/306/270
f 263/294/261 251/295/262 260/306/270 262/308/272
f 263/294/261 262/308/272 264/309/273 250/291/258
f 262/308/272 265/307/271 266/310/274 264/309/273
f 265/307/271 267/311/275 268/312/276 266/310/274
f 267/311/275 265/307/271 261/305/269 270/313/277
f 267/311/275 269/314/278 280/315/279 268/312/276
f 269/314/278 267/311/275 270/313/277 271/316/280
f 272/317/281 273/318/282 271/316/280 270/313/277
f 259/304/268 272/317/281 270/313/277 261/305/269
f 272/317/281 259/304/268 257/148/128 121/147/127
f 272/317/281 121/147/127 123/150/129 273/318/282
f 274/319/283 273/318/282 123/150/129 125/152/131
f 273/318/282 274/319/283 276/320/284 271/316/280
f 274/319/283 275/321/285 278/209/180 276/320/284
f 275/321/285 274/319/283 125/152/131 301/156/134
f 269/314/278 271/316/280 276/320/284 277/322/286
f 169/208/179 277/322/286 276/320/284 278/209/180
f 275/321/285 302/204/175 166/205/176 278/209/180
f 269/314/278 277/322/286 279/323/287 280/315/279
f 277/322/286 169/208/179 171/210/181 279/323/287
f 282/324/288 280/315/279 279/323/287 281/325/289
f 174/212/183 281/325/289 279/323/287 171/210/181
f 281/325/289 174/212/183 176/214/185 283/326/290
f 281/325/289 283/326/290 284/327/291 282/324/288
f 286/328/292 284/327/291 283/326/290 285/329/293
f 178/216/187 285/329/293 283/326/290 176/214/185
f 285/329/293 178/216/187 180/218/189 287/330/294
f 286/328/292 285/329/293 287/330/294 288/331/295
f 289/247/218 208/246/217 288/331/295 287/330/294
f 183/220/191 289/247/218 287/330/294 180/218/189
f 289/247/218 183/220/191 185/223/194 204/241/212
f 291/332/296 286/328/292 288/331/295 290/333/297
f 208/246/217 210/248/219 290/333/297 288/331/295
f 293/334/298 291/332/296 290/333/297 292/335/299
f 210/248/219 212/249/220 292/335/299 290/333/297
f 294/273/244 293/334/298 292/335/299 232/270/241
f 212/249/220 230/252/223 232/270/241 292/335/299
f 293/334/298 294/273/244 297/336/300 295/337/301
f 291/332/296 293/334/298 295/337/301 298/338/302
f 296/339/303 299/340/304 298/338/302 295/337/301
f 300/341/305 296/339/303 295/337/301 297/336/300
f 299/340/304 282/324/288 284/327/291 298/338/302
f 286/328/292 291/332/296 298/338/302 284/327/291
f 282/324/288 299/340/304 268/312/276 280/315/279
f 299/340/304 296/339/303 266/310/274 268/312/276
f 248/290/257 300/341/305 297/336/300 246/289/256
f 294/273/244 233/272/243 246/289/256 297/336/300
f 296/339/303 300/341/305 264/309/273 266/310/274
f 300/341/305 248/290/257 250/291/258 264/309/273
f 302/204/175 275/321/285 301/156/134 132/164/140
f 162/200/171 302/204/175 132/164/140 134/166/141
f 202/238/209 200/237/208 303/259/230 218/243/214
f 305/111/98 217/257/228 303/259/230 304/100/90
f 85/96/87 304/100/90 303/259/230 200/237/208
f 90/112/93 305/111/98 304/100/90 86/99/89
f 2/2/2 64/6/6 67/67/65 141/178/151
