# Blender 4.5.3 LTS
# www.blender.org
o Dualsense.036
v 54.122318 -16.156797 12.469482
v 54.122318 -16.300817 12.469482
v 53.691162 -16.156797 13.274307
v 54.386440 -16.156797 11.595695
v 54.386440 -16.297382 11.595695
v 54.476711 -16.156797 10.687717
v 54.386440 -16.156794 9.780296
v 54.476711 -16.294256 10.687717
v 54.386440 -16.291637 9.780296
v 54.476711 -17.170166 10.687717
v 54.386440 -17.150881 9.780296
v 54.476711 -19.522982 10.687717
v 54.386440 -17.193226 11.595695
v 54.386440 -19.599573 11.595695
v 54.122334 -17.218573 12.469482
v 54.122318 -19.683805 12.469482
v 53.691162 -17.244753 13.274307
v 53.691162 -19.770784 13.274300
v 53.112610 -17.270525 13.980713
v 53.691162 -16.304371 13.274307
v 53.112610 -16.307861 13.980713
v 53.112598 -16.156797 13.980713
v 52.406311 -16.311121 14.559227
v 52.406311 -17.294598 14.559227
v 52.406311 -16.156797 14.559227
v 51.602165 -16.314056 14.990311
v 51.602154 -16.156797 14.990311
v 51.602165 -17.316175 14.990311
v 50.729977 -16.316523 15.254387
v 50.729977 -17.334389 15.254387
v 50.729977 -16.156797 15.254387
v 49.823208 -16.318495 15.344749
v 49.823208 -16.156797 15.344749
v 49.823208 -17.348883 15.344749
v 48.915260 -16.319906 15.254662
v 48.915260 -17.359287 15.254662
v 48.915260 -16.156797 15.254662
v 48.041664 -16.320755 14.991066
v 48.041664 -16.156797 14.991066
v 48.041664 -17.365524 14.991058
v 47.237938 -16.321032 14.560852
v 47.237938 -17.367525 14.560852
v 47.237938 -16.156797 14.560852
v 46.532883 -16.320755 13.983475
v 46.532883 -16.156797 13.983475
v 46.532879 -17.365536 13.983475
v 45.955288 -16.319973 13.278389
v 45.955288 -17.359802 13.278389
v 45.955288 -16.156797 13.278389
v 45.524765 -16.318750 12.474777
v 45.524765 -16.156797 12.474777
v 45.524765 -17.350813 12.474777
v 45.260937 -16.317156 11.601837
v 45.260937 -17.339006 11.601830
v 45.260937 -16.156797 11.601830
v 45.170765 -16.315237 10.694111
v 45.170765 -16.156797 10.694111
v 45.170765 -17.324888 10.694111
v 45.261169 -16.313063 9.786167
v 45.261169 -17.308910 9.786167
v 45.261169 -16.156794 9.786167
v 45.525360 -16.310678 8.912598
v 45.525360 -16.156794 8.912598
v 45.525372 -17.291279 8.912598
v 45.956478 -16.308084 8.108013
v 45.956478 -17.272169 8.108013
v 45.956478 -16.156794 8.108013
v 46.534958 -16.305351 7.401783
v 46.534969 -16.156794 7.401783
v 46.534969 -17.251987 7.401783
v 47.241226 -16.302517 6.823280
v 47.241226 -17.231161 6.823280
v 47.241226 -16.156794 6.823280
v 48.045883 -16.299669 6.392159
v 48.045883 -16.156794 6.392159
v 48.045883 -17.210123 6.392159
v 48.919502 -16.296858 6.128067
v 48.919502 -17.189348 6.128067
v 48.919502 -16.156794 6.128067
v 49.827408 -16.294231 6.037796
v 49.827408 -16.156794 6.037796
v 49.827408 -17.170010 6.037796
v 50.734898 -16.291950 6.128132
v 50.734898 -17.153223 6.128132
v 50.734898 -16.156794 6.128132
v 51.607479 -16.290148 6.392040
v 51.607479 -16.156794 6.392040
v 51.607479 -17.139938 6.392040
v 52.410641 -16.288952 6.822475
v 52.410641 -17.131121 6.822475
v 52.410637 -16.156794 6.822475
v 53.115356 -16.288431 7.399879
v 53.115356 -16.156794 7.399879
v 53.115356 -17.127291 7.399879
v 53.692505 -16.288666 8.104671
v 53.692505 -17.129009 8.104671
v 53.692505 -16.156794 8.104671
v 54.122665 -16.289713 8.907822
v 54.122665 -16.156794 8.907822
v 54.122677 -17.136713 8.907822
v 54.122665 -19.411896 8.907822
v 53.692505 -19.386293 8.104671
v 54.122677 -21.150162 8.907822
v 54.386440 -19.458946 9.780296
v 54.386440 -21.230095 9.780296
v 54.476711 -21.338900 10.687717
v 54.386440 -22.089340 9.780296
v 54.476711 -22.214809 10.687717
v 54.355350 -22.200142 9.784107
v 54.122665 -21.997169 8.907822
v 53.692505 -21.947004 8.104671
v 54.094212 -22.106916 8.915897
v 53.668671 -22.056067 8.117363
v 54.008835 -22.170321 8.940125
v 53.597206 -22.119501 8.155437
v 53.822559 -22.236135 8.992992
v 54.262135 -22.262854 9.795544
v 54.058739 -22.326132 9.820484
v 54.349300 -22.388414 10.686596
v 54.444862 -22.326944 10.687435
v 54.140835 -22.447569 10.684746
v 54.262562 -22.538294 11.578194
v 54.059872 -22.592070 11.549553
v 54.355469 -22.478508 11.591316
v 54.009224 -22.702684 12.434998
v 53.824146 -22.749779 12.378593
v 53.596661 -22.871763 13.221680
v 54.094055 -22.645098 12.460854
v 53.667538 -22.816946 13.261139
v 54.122318 -22.529886 12.469482
v 53.691158 -22.700289 13.274300
v 54.122334 -21.612120 12.469482
v 54.386440 -22.364857 11.595688
v 54.386440 -21.469025 11.595695
v 53.691162 -21.759892 13.274300
v 53.112610 -21.905281 13.980713
v 53.112610 -19.856350 13.980713
v 52.406311 -22.041210 14.559227
v 53.112598 -22.867931 13.980713
v 53.094398 -22.985851 13.962616
v 52.406311 -23.024668 14.559227
v 51.602165 -23.165045 14.990303
v 52.393124 -23.143658 14.535690
v 51.593639 -23.284985 14.962059
v 52.353569 -23.191900 14.465065
v 52.267258 -23.213001 14.310997
v 53.039791 -23.037510 13.908325
v 51.568050 -23.330227 14.877319
v 51.512218 -23.343166 14.692444
v 50.713268 -23.447765 15.130470
v 50.685917 -23.455029 14.927696
v 50.725800 -23.404507 15.223404
v 49.823311 -23.541872 15.217255
v 49.823238 -23.499750 15.312874
v 49.823471 -23.545572 15.008636
v 48.932247 -23.609882 15.130432
v 48.960030 -23.611767 14.927147
v 48.919506 -23.568247 15.223602
v 48.076115 -23.651302 14.877556
v 48.050278 -23.609476 14.962685
v 48.132473 -23.653103 14.691818
v 47.290966 -23.665586 14.466171
v 47.377747 -23.669024 14.311241
v 47.251205 -23.622961 14.537178
v 46.605953 -23.653522 13.910637
v 46.551144 -23.610083 13.965263
v 46.725498 -23.658854 13.791458
v 46.050201 -23.615871 13.225342
v 46.205505 -23.621922 13.138535
v 45.979015 -23.572315 13.265129
v 45.638401 -23.556446 12.439865
v 45.553181 -23.512909 12.466049
v 45.824329 -23.563087 12.382744
v 45.385208 -23.479031 11.583832
v 45.588558 -23.487249 11.554359
v 45.292023 -23.435177 11.597328
v 45.298256 -23.386822 10.692429
v 45.202633 -23.342241 10.693695
v 45.506893 -23.397644 10.689671
v 45.385143 -23.282984 9.800884
v 45.587978 -23.297523 9.824974
v 45.292175 -23.237251 9.789841
v 45.638462 -23.169001 8.944435
v 45.553646 -23.121481 8.920555
v 45.823536 -23.188726 8.996540
v 46.050846 -23.046301 8.158321
v 46.205269 -23.073082 8.240654
v 45.980072 -22.996201 8.120583
v 46.607540 -22.916977 7.472023
v 46.553108 -22.863989 7.419338
v 46.726299 -22.951544 7.586967
v 47.293758 -22.783113 6.915016
v 47.379692 -22.825075 7.065136
v 47.254364 -22.727446 6.846214
v 48.079811 -22.647512 6.502293
v 48.054363 -22.589506 6.419693
v 48.135349 -22.696150 6.682518
v 48.936062 -22.513006 6.248837
v 48.963142 -22.567278 6.446465
v 48.923645 -22.453108 6.158257
v 49.827152 -22.387230 6.162022
v 49.827347 -22.325905 6.068851
v 49.826736 -22.446091 6.365299
v 50.717751 -22.277870 6.249210
v 50.689724 -22.340261 6.447346
v 50.730606 -22.215479 6.158401
v 51.572826 -22.191086 6.502693
v 51.598816 -22.128057 6.419704
v 51.516121 -22.255842 6.683773
v 52.357269 -22.133110 6.914761
v 52.269947 -22.198883 7.065773
v 52.397305 -22.069921 6.845547
v 53.041817 -22.107916 7.470608
v 53.096970 -22.044685 7.417561
v 52.921516 -22.174036 7.586349
v 52.707672 -22.291601 7.792110
v 53.441284 -22.185957 8.238518
v 53.164070 -22.304104 8.386211
v 53.491402 -22.353170 9.086971
v 52.848110 -22.436043 8.548996
v 53.107983 -22.485270 9.189384
v 52.468891 -22.421785 8.022182
v 52.575897 -22.543859 8.677330
v 52.246452 -22.636269 8.742813
v 52.273842 -22.525810 8.210842
v 52.764927 -22.596338 9.267529
v 52.366917 -22.698370 9.311165
v 52.890759 -22.675087 9.943363
v 53.275204 -22.566290 9.911480
v 52.938774 -22.774057 10.662647
v 52.451630 -22.778114 9.958946
v 51.865570 -22.888494 9.956715
v 52.485836 -22.871906 10.647537
v 51.886578 -22.979036 10.631886
v 52.454842 -22.976191 11.338310
v 51.868721 -23.076849 11.310463
v 52.372124 -23.081301 11.991524
v 52.894268 -22.887249 11.383194
v 53.278625 -22.795801 11.438751
v 52.770569 -23.004910 12.062370
v 53.113461 -22.927401 12.163200
v 52.580910 -23.117380 12.657570
v 52.852993 -23.057077 12.807915
v 52.277260 -23.221199 13.127235
v 52.251106 -23.177599 12.567444
v 51.763889 -23.253931 12.573578
v 52.102810 -23.237446 12.937111
v 51.742065 -23.306498 13.079063
v 51.175049 -23.382982 13.194847
v 51.811581 -23.312904 13.429840
v 51.944752 -23.288948 13.718369
v 51.222622 -23.397007 13.616577
v 51.304909 -23.387896 13.976692
v 50.549065 -23.478046 13.738617
v 50.585606 -23.478312 14.140396
v 49.833157 -23.550669 13.783165
v 50.528442 -23.458374 13.274948
v 50.524475 -23.410522 12.662415
v 49.842106 -23.528126 13.305946
v 49.850918 -23.479425 12.679451
v 49.155910 -23.587694 13.274445
v 49.177261 -23.541719 12.661438
v 48.507790 -23.635094 13.194366
v 49.117123 -23.609493 13.737381
v 49.066448 -23.615765 14.138428
v 48.442661 -23.653561 13.614861
v 48.346233 -23.657598 13.973709
v 47.851425 -23.681910 13.429176
v 47.705837 -23.680569 13.716309
v 47.384464 -23.684610 13.127747
v 47.935684 -23.668390 13.079620
v 47.925491 -23.629219 12.572861
v 47.569328 -23.671724 12.937775
v 47.425766 -23.649097 12.567619
v 47.308743 -23.591877 11.990257
v 47.082748 -23.651735 12.657982
v 46.800148 -23.643980 12.808624
v 46.895462 -23.595043 12.062355
v 46.541439 -23.587132 12.164597
v 46.771774 -23.526316 11.383297
v 47.227081 -23.523012 11.337223
v 46.375790 -23.516872 11.440384
v 46.725460 -23.449228 10.662773
v 46.315731 -23.436720 10.676281
v 47.194881 -23.446867 10.646709
v 46.770332 -23.367447 9.942741
v 47.226242 -23.367712 9.956928
v 46.373756 -23.350143 9.912628
v 46.893307 -23.285345 9.266071
v 46.538246 -23.260561 9.189842
v 47.307617 -23.289328 9.308044
v 47.081352 -23.207342 8.675636
v 46.797482 -23.171362 8.548367
v 47.383892 -23.128922 8.208866
v 47.425423 -23.215445 8.740253
v 47.923733 -23.182501 8.713619
v 47.568905 -23.152370 8.379898
v 47.934578 -23.107300 8.228760
v 48.505299 -23.031914 8.104820
v 47.850391 -23.045578 7.903187
v 47.705051 -22.981604 7.637428
v 48.441139 -22.956429 7.711296
v 48.345993 -22.878759 7.375248
v 49.116455 -22.860611 7.585888
v 49.066940 -22.771759 7.208912
v 49.833233 -22.765585 7.540333
v 49.154324 -22.946459 8.019852
v 49.174965 -23.045464 8.601948
v 49.841385 -22.858639 7.987549
v 49.849487 -22.963089 8.582775
v 50.526253 -22.776087 8.021626
v 50.521427 -22.883112 8.604092
v 51.171131 -22.701906 8.107651
v 50.548370 -22.678808 7.588024
v 50.586636 -22.575708 7.211330
v 51.220699 -22.605350 7.714706
v 51.305260 -22.499701 7.379108
v 51.808987 -22.550335 7.906143
v 51.943642 -22.445705 7.640808
v 51.738213 -22.639227 8.231224
v 51.758808 -22.721962 8.717049
v 52.098923 -22.598789 8.382111
v 51.818665 -22.803411 9.310059
v 51.166088 -22.803411 8.653111
v 51.183826 -22.902737 9.287121
v 50.526134 -22.987576 9.265285
v 51.202576 -22.992712 9.945724
v 50.532631 -23.077202 9.935059
v 51.212902 -23.080793 10.618801
v 50.536781 -23.162489 10.611397
v 51.205399 -23.174387 11.296253
v 50.534435 -23.253998 11.292290
v 51.188602 -23.262781 11.967735
v 50.529152 -23.340420 11.976410
v 51.823860 -23.171839 11.966377
v 51.171089 -23.335276 12.622925
v 49.857422 -23.409849 11.982178
v 49.859497 -23.324718 11.292580
v 49.185310 -23.476166 11.974838
v 49.184204 -23.395599 11.291142
v 48.521130 -23.532206 11.965218
v 48.508144 -23.457119 11.294376
v 47.873116 -23.570852 11.964119
v 48.527470 -23.593088 12.621513
v 47.830822 -23.499762 11.308659
v 47.811832 -23.421940 10.630573
v 48.499496 -23.375877 10.617496
v 47.829453 -23.343390 9.953979
v 48.506203 -23.296547 9.943100
v 47.870975 -23.263695 9.305965
v 48.517895 -23.213593 9.283142
v 48.524242 -23.121508 8.649574
v 49.182938 -23.144209 9.262924
v 49.855770 -23.065527 9.254047
v 49.182766 -23.229277 9.933510
v 49.858448 -23.152531 9.929417
v 49.181004 -23.309980 10.610615
v 49.859161 -23.235207 10.608913
v 52.114681 -22.315817 7.334236
v 51.415340 -22.370955 7.005688
v 50.639874 -22.451197 6.799576
v 49.825974 -22.550726 6.726681
v 49.011303 -22.663744 6.797802
v 49.827324 -22.668211 7.150314
v 48.234074 -22.782614 7.002911
v 47.532471 -22.899666 7.332008
v 46.937420 -23.012993 7.791306
v 46.479794 -23.120687 8.387016
v 47.177700 -23.079433 8.020222
v 46.152554 -23.223789 9.089172
v 45.948574 -23.323366 9.867798
v 45.877785 -23.416897 10.684769
v 45.950069 -23.501848 11.501968
v 46.154869 -23.574898 12.281189
v 46.481606 -23.632654 12.984222
v 46.938057 -23.668346 13.579582
v 47.531982 -23.675148 14.035805
v 47.179184 -23.678200 13.337509
v 48.232670 -23.656321 14.361618
v 49.009430 -23.615124 14.565750
v 49.823776 -23.552135 14.637756
v 50.637291 -23.467926 14.567207
v 49.826298 -23.555769 14.198105
v 51.412975 -23.366158 14.363777
v 52.113819 -23.250500 14.037094
v 52.708836 -23.121687 13.579277
v 52.920654 -23.067822 13.789864
v 53.167080 -22.980450 12.982430
v 52.471878 -23.179390 13.337944
v 53.442013 -22.910898 13.135551
v 53.495110 -22.833538 12.278297
v 53.699512 -22.687664 11.498642
v 53.770214 -22.552715 10.681477
v 53.697140 -22.438635 9.864826
v 53.336494 -22.672129 10.674778
v 53.115356 -21.935867 7.399876
v 53.115356 -21.096998 7.399876
v 52.410637 -21.960754 6.822475
v 52.410641 -21.118572 6.822475
v 51.607479 -22.018166 6.392040
v 51.607479 -21.168364 6.392036
v 50.734898 -22.104574 6.128132
v 50.734898 -21.243294 6.128132
v 49.827408 -22.213837 6.037796
v 49.827408 -21.338051 6.037796
v 48.919502 -22.339781 6.128067
v 48.919502 -21.447273 6.128067
v 48.045883 -22.474913 6.392159
v 48.045883 -21.564459 6.392159
v 47.241226 -22.611734 6.823277
v 47.241226 -21.683113 6.823280
v 46.534958 -22.747297 7.401779
v 46.534969 -21.800665 7.401779
v 45.956474 -22.878637 8.108009
v 45.956478 -21.914566 8.108009
v 45.525360 -23.003065 8.912598
v 45.525372 -22.022465 8.912598
v 45.261169 -23.117819 9.786167
v 45.261169 -22.121979 9.786167
v 45.170765 -23.221750 10.694111
v 45.170765 -22.212109 10.694111
v 45.260937 -23.313646 11.601830
v 45.260937 -22.291796 11.601830
v 45.524765 -23.390429 12.474777
v 45.524765 -22.358377 12.474777
v 45.955288 -23.449013 13.278389
v 45.955288 -22.409176 13.278389
v 46.532883 -23.486311 13.983475
v 46.532879 -22.441526 13.983475
v 47.237938 -23.499256 14.560844
v 47.237938 -22.452759 14.560844
v 48.041664 -23.486235 14.991058
v 48.041660 -22.441467 14.991058
v 48.915260 -23.445629 15.254662
v 48.915260 -22.406244 15.254662
v 49.823208 -23.377918 15.344749
v 49.823208 -22.347530 15.344749
v 50.729977 -23.283606 15.254379
v 50.729977 -22.265734 15.254379
v 50.729977 -20.068531 15.254387
v 51.602165 -22.162941 14.990303
v 51.602165 -20.008015 14.990311
v 52.406311 -19.936361 14.559227
v 49.823208 -20.116661 15.344749
v 48.915260 -20.151222 15.254662
v 48.041664 -20.171949 14.991066
v 47.237938 -20.178587 14.560844
v 46.532883 -20.171989 13.983475
v 45.955288 -20.152943 13.278389
v 45.524765 -20.123047 12.474777
v 45.260937 -20.083857 11.601830
v 45.170765 -20.036955 10.694111
v 45.261169 -19.983900 9.786167
v 45.525360 -19.925327 8.912598
v 45.956478 -19.861830 8.108013
v 46.534958 -19.794783 7.401779
v 47.241226 -19.725588 6.823280
v 48.045883 -19.655750 6.392159
v 48.919502 -19.586773 6.128067
v 49.827408 -19.522482 6.037796
v 50.734898 -19.466722 6.128132
v 51.607479 -19.422623 6.392040
v 52.410641 -19.393314 6.822475
v 53.115356 -19.380608 7.399879
v 53.692505 -21.106665 8.104671
vn 0.9805 -0.0000 0.1963
vn 0.9234 -0.0000 0.3838
vn 0.8308 -0.0000 0.5566
vn 0.8308 -0.0000 0.5565
vn 1.0000 -0.0000 0.0012
vn 0.9867 -0.0000 -0.1623
vn 0.9947 -0.0000 -0.1032
vn 0.9812 -0.0000 -0.1931
vn 0.9806 -0.0000 0.1961
vn 0.9806 -0.0000 0.1962
vn 0.9234 -0.0000 0.3839
vn 0.7064 -0.0000 0.7079
vn 0.7063 -0.0000 0.7079
vn 0.6303 -0.0000 0.7763
vn 0.6219 0.0003 0.7831
vn 0.5824 -0.0000 0.8129
vn 0.3040 -0.0000 0.9527
vn 0.3506 -0.0000 0.9365
vn 0.2939 -0.0000 0.9558
vn 0.1949 -0.0000 0.9808
vn 0.1948 -0.0000 0.9808
vn 0.1947 -0.0000 0.9809
vn 0.0710 0.0002 0.9975
vn 0.0564 -0.0000 0.9984
vn 0.0710 -0.0000 0.9975
vn -0.1947 -0.0000 0.9809
vn -0.1951 -0.0000 0.9808
vn -0.2229 -0.0000 0.9749
vn -0.4471 -0.0000 0.8945
vn -0.4128 -0.0000 0.9108
vn -0.4757 -0.0000 0.8796
vn -0.5280 -0.0000 0.8492
vn -0.5546 -0.0000 0.8321
vn -0.7300 -0.0000 0.6835
vn -0.7078 -0.0000 0.7064
vn -0.7708 -0.0000 0.6370
vn -0.8315 -0.0000 0.5556
vn -0.9239 -0.0000 0.3827
vn -0.9238 -0.0000 0.3830
vn -0.9237 -0.0000 0.3832
vn -0.9648 -0.0000 0.2632
vn -0.9648 -0.0001 0.2632
vn -0.9684 -0.0007 0.2494
vn -0.9975 -0.0000 -0.0709
vn -0.9984 -0.0000 -0.0562
vn -0.9975 -0.0000 -0.0708
vn -0.9860 -0.0000 -0.1667
vn -0.9860 -0.0001 -0.1667
vn -0.9128 -0.0000 -0.4085
vn -0.9127 -0.0000 -0.4085
vn -0.8320 -0.0000 -0.5548
vn -0.8319 -0.0000 -0.5549
vn -0.7076 -0.0000 -0.7066
vn -0.7078 -0.0000 -0.7064
vn -0.6304 -0.0000 -0.7762
vn -0.5831 -0.0001 -0.8124
vn -0.5573 -0.0000 -0.8303
vn -0.3528 -0.0000 -0.9357
vn -0.3827 -0.0000 -0.9239
vn -0.2936 -0.0000 -0.9559
vn -0.2233 -0.0000 -0.9748
vn -0.2233 -0.0001 -0.9748
vn 0.0276 -0.0000 -0.9996
vn 0.1263 -0.0000 -0.9920
vn 0.1263 -0.0002 -0.9920
vn 0.1404 -0.0000 -0.9901
vn 0.4276 -0.0000 -0.9040
vn 0.4329 -0.0000 -0.9015
vn 0.3118 -0.0000 -0.9502
vn 0.6304 -0.0000 -0.7763
vn 0.5822 -0.0000 -0.8131
vn 0.5562 -0.0000 -0.8311
vn 0.6554 -0.0000 -0.7552
vn 0.6665 -0.0002 -0.7455
vn 0.6555 -0.0000 -0.7552
vn 0.8661 -0.0000 -0.4998
vn 0.8581 -0.0000 -0.5135
vn 0.9139 -0.0000 -0.4060
vn 0.9267 -0.0000 -0.3759
vn 0.8839 -0.0000 -0.4676
vn 0.8499 -0.0000 -0.5270
vn 0.8350 -0.0000 -0.5502
vn 0.9359 -0.0000 -0.3523
vn 0.9810 -0.0052 -0.1938
vn 0.9486 -0.0086 -0.3163
vn 1.0000 -0.0052 0.0003
vn 0.7855 -0.5760 -0.2265
vn 0.8062 -0.5848 -0.0895
vn 0.7515 -0.5548 -0.3571
vn 0.8047 -0.0150 -0.5935
vn 0.6968 -0.5282 -0.4854
vn 0.3620 -0.8905 -0.2758
vn 0.3680 -0.9015 -0.2278
vn 0.3340 -0.9259 -0.1762
vn 0.2794 -0.9348 -0.2192
vn 0.2791 -0.9410 -0.1915
vn 0.2743 -0.9472 -0.1660
vn 0.3186 -0.9368 -0.1446
vn 0.2724 -0.9510 -0.1464
vn 0.8128 -0.5797 0.0574
vn 0.3360 -0.9356 -0.1083
vn 0.2718 -0.9543 -0.1247
vn 0.3748 -0.9264 -0.0361
vn 0.2721 -0.9583 -0.0876
vn 0.7993 -0.5606 0.2164
vn 0.3695 -0.9287 0.0321
vn 0.2675 -0.9624 -0.0468
vn 0.7544 -0.5340 0.3817
vn 0.8312 -0.0041 0.5559
vn 0.9237 -0.0045 0.3831
vn 0.9807 -0.0049 0.1954
vn 0.9233 -0.0000 0.3840
vn 0.7062 -0.0000 0.7080
vn 0.7068 -0.0039 0.7074
vn 0.5621 -0.0000 0.8271
vn 0.5626 -0.0043 0.8267
vn 0.6661 -0.5212 0.5336
vn 0.5384 -0.5370 0.6495
vn 0.3739 -0.0000 0.9275
vn 0.3746 -0.0045 0.9272
vn 0.3872 -0.5696 0.7250
vn 0.2789 -0.9504 0.1375
vn 0.2108 -0.9660 0.1496
vn 0.3385 -0.9359 0.0979
vn 0.2019 -0.9792 0.0186
vn 0.1585 -0.9871 0.0225
vn 0.2442 -0.9697 -0.0050
vn 0.2244 -0.5969 0.7703
vn 0.1329 -0.9857 0.1032
vn 0.1168 -0.9929 0.0202
vn 0.0893 -0.9927 0.0815
vn 0.0904 -0.9957 0.0190
vn 0.0548 -0.6085 0.7917
vn -0.1189 -0.6020 0.7896
vn 0.0477 -0.9934 0.1042
vn 0.0652 -0.9977 0.0188
vn -0.0291 -0.9875 0.1551
vn 0.0294 -0.9994 0.0198
vn -0.2942 -0.5781 0.7611
vn -0.4637 -0.5464 0.6975
vn -0.0957 -0.9843 0.1480
vn -0.0055 -0.9998 0.0170
vn -0.1541 -0.9813 0.1157
vn -0.0390 -0.9992 -0.0011
vn -0.6095 -0.5311 0.5886
vn -0.7129 -0.5466 0.4393
vn -0.1843 -0.9812 0.0565
vn -0.0556 -0.9979 -0.0333
vn -0.1883 -0.9821 -0.0055
vn -0.0564 -0.9964 -0.0637
vn -0.7704 -0.5775 0.2701
vn -0.7939 -0.5998 0.0996
vn -0.1370 -0.9878 -0.0735
vn -0.0540 -0.9944 -0.0910
vn -0.1149 -0.9874 -0.1088
vn -0.0542 -0.9926 -0.1089
vn -0.7935 -0.6051 -0.0658
vn -0.7729 -0.5929 -0.2260
vn -0.1367 -0.9802 -0.1435
vn -0.0561 -0.9902 -0.1281
vn -0.1841 -0.9597 -0.2124
vn -0.0608 -0.9849 -0.1621
vn -0.7310 -0.5654 -0.3821
vn -0.6604 -0.5320 -0.5300
vn -0.1755 -0.9448 -0.2766
vn -0.0599 -0.9777 -0.2015
vn -0.1396 -0.9313 -0.3364
vn -0.0390 -0.9691 -0.2434
vn -0.5501 -0.5146 -0.6576
vn -0.4032 -0.5257 -0.7490
vn -0.0745 -0.9258 -0.3705
vn 0.0033 -0.9632 -0.2687
vn -0.0016 -0.9252 -0.3795
vn 0.0497 -0.9599 -0.2758
vn -0.2392 -0.5514 -0.7992
vn -0.0773 -0.5709 -0.8174
vn 0.0799 -0.9363 -0.3420
vn 0.0962 -0.9562 -0.2766
vn 0.1237 -0.9379 -0.3241
vn 0.1254 -0.9527 -0.2768
vn 0.0754 -0.5768 -0.8134
vn 0.2199 -0.5690 -0.7924
vn 0.1636 -0.9266 -0.3385
vn 0.1532 -0.9485 -0.2772
vn 0.2287 -0.9011 -0.3684
vn 0.1917 -0.9414 -0.2776
vn 0.3586 -0.5492 -0.7549
vn 0.4916 -0.5248 -0.6949
vn 0.2849 -0.8898 -0.3565
vn 0.2284 -0.9346 -0.2726
vn 0.3347 -0.8846 -0.3248
vn 0.2625 -0.9314 -0.2520
vn 0.6093 -0.5142 -0.6036
vn 0.2227 -0.9360 -0.2727
vn 0.2611 -0.9323 -0.2501
vn 0.2802 -0.9358 -0.2138
vn 0.2784 -0.9423 -0.1859
vn 0.2783 -0.9385 -0.2044
vn 0.2734 -0.9455 -0.1769
vn 0.2567 -0.9347 -0.2459
vn 0.2544 -0.9495 -0.1834
vn 0.2483 -0.9550 -0.1620
vn 0.2341 -0.9459 -0.2246
vn 0.2027 -0.9657 -0.1622
vn 0.2033 -0.9677 -0.1490
vn 0.1985 -0.9614 -0.1906
vn 0.2389 -0.9590 -0.1522
vn 0.2645 -0.9509 -0.1607
vn 0.1995 -0.9693 -0.1438
vn 0.2323 -0.9622 -0.1423
vn 0.2593 -0.9550 -0.1442
vn 0.1943 -0.9710 -0.1396
vn 0.1681 -0.9760 -0.1383
vn 0.1687 -0.9748 -0.1456
vn 0.1641 -0.9770 -0.1363
vn 0.1897 -0.9726 -0.1347
vn 0.1592 -0.9782 -0.1337
vn 0.2291 -0.9645 -0.1311
vn 0.1844 -0.9746 -0.1267
vn 0.1511 -0.9807 -0.1244
vn 0.2298 -0.9662 -0.1167
vn 0.2574 -0.9582 -0.1252
vn 0.2600 -0.9602 -0.1020
vn 0.2291 -0.9693 -0.0892
vn 0.2591 -0.9637 -0.0648
vn 0.1770 -0.9780 -0.1101
vn 0.2042 -0.9779 -0.0444
vn 0.2320 -0.9726 -0.0166
vn 0.1682 -0.9825 -0.0807
vn 0.1401 -0.9843 -0.1070
vn 0.1356 -0.9880 -0.0738
vn 0.1556 -0.9875 -0.0233
vn 0.1184 -0.9882 -0.0973
vn 0.1155 -0.9910 -0.0680
vn 0.1249 -0.9918 -0.0252
vn 0.1811 -0.9834 0.0088
vn 0.1409 -0.9900 0.0071
vn 0.1071 -0.9939 -0.0282
vn 0.1138 -0.9935 0.0020
vn 0.1035 -0.9925 -0.0645
vn 0.0916 -0.9954 -0.0274
vn 0.0903 -0.9959 0.0010
vn 0.0939 -0.9937 -0.0616
vn 0.1045 -0.9904 -0.0904
vn 0.0968 -0.9915 -0.0869
vn 0.0891 -0.9925 -0.0841
vn 0.0844 -0.9947 -0.0581
vn 0.0765 -0.9968 -0.0231
vn 0.0753 -0.9936 -0.0845
vn 0.0729 -0.9958 -0.0557
vn 0.0600 -0.9981 -0.0156
vn 0.0681 -0.9977 0.0039
vn 0.0444 -0.9990 0.0103
vn 0.0321 -0.9994 -0.0100
vn 0.0100 -0.9999 0.0137
vn 0.0538 -0.9969 -0.0567
vn -0.0121 -0.9996 -0.0274
vn -0.0332 -0.9994 -0.0069
vn 0.0222 -0.9979 -0.0605
vn 0.0542 -0.9945 -0.0892
vn 0.0174 -0.9959 -0.0883
vn -0.0320 -0.9972 -0.0675
vn 0.0155 -0.9946 -0.1026
vn 0.0490 -0.9932 -0.1053
vn -0.0275 -0.9955 -0.0902
vn -0.0547 -0.9974 -0.0472
vn -0.0511 -0.9958 -0.0764
vn -0.0448 -0.9946 -0.0938
vn -0.0207 -0.9947 -0.1009
vn 0.0174 -0.9939 -0.1085
vn -0.0166 -0.9938 -0.1098
vn 0.0207 -0.9935 -0.1120
vn -0.0421 -0.9932 -0.1086
vn -0.0436 -0.9912 -0.1248
vn -0.0160 -0.9928 -0.1190
vn 0.0236 -0.9930 -0.1156
vn -0.0186 -0.9912 -0.1312
vn 0.0274 -0.9921 -0.1220
vn -0.0494 -0.9881 -0.1458
vn -0.0204 -0.9873 -0.1573
vn -0.0521 -0.9820 -0.1815
vn 0.0335 -0.9899 -0.1375
vn 0.0022 -0.9792 -0.2027
vn -0.0274 -0.9727 -0.2305
vn 0.0405 -0.9851 -0.1670
vn 0.0710 -0.9874 -0.1411
vn 0.0739 -0.9819 -0.1743
vn 0.0610 -0.9904 -0.1244
vn 0.0510 -0.9729 -0.2254
vn 0.0938 -0.9841 -0.1510
vn 0.0958 -0.9789 -0.1803
vn 0.0845 -0.9708 -0.2244
vn 0.0235 -0.9659 -0.2577
vn 0.0670 -0.9636 -0.2586
vn 0.1052 -0.9693 -0.2222
vn 0.0977 -0.9618 -0.2557
vn 0.1097 -0.9767 -0.1843
vn 0.1230 -0.9668 -0.2239
vn 0.1241 -0.9586 -0.2562
vn 0.1210 -0.9747 -0.1877
vn 0.1092 -0.9814 -0.1579
vn 0.1183 -0.9797 -0.1621
vn 0.1274 -0.9779 -0.1655
vn 0.1322 -0.9725 -0.1919
vn 0.1403 -0.9632 -0.2292
vn 0.1422 -0.9759 -0.1654
vn 0.1451 -0.9700 -0.1949
vn 0.1587 -0.9583 -0.2377
vn 0.1494 -0.9541 -0.2597
vn 0.1753 -0.9477 -0.2667
vn 0.1885 -0.9514 -0.2435
vn 0.2119 -0.9395 -0.2690
vn 0.1656 -0.9669 -0.1942
vn 0.1645 -0.9731 -0.1612
vn 0.1426 -0.9790 -0.1457
vn 0.1235 -0.9819 -0.1438
vn 0.1406 -0.9810 -0.1339
vn 0.1186 -0.9845 -0.1289
vn 0.1362 -0.9818 -0.1325
vn 0.1140 -0.9851 -0.1286
vn 0.1319 -0.9826 -0.1307
vn 0.1105 -0.9856 -0.1280
vn 0.1259 -0.9850 -0.1176
vn 0.1075 -0.9878 -0.1126
vn 0.1036 -0.9868 -0.1248
vn 0.1000 -0.9890 -0.1091
vn 0.0967 -0.9880 -0.1207
vn 0.0925 -0.9901 -0.1057
vn 0.0755 -0.9903 -0.1167
vn 0.0738 -0.9918 -0.1041
vn 0.0481 -0.9924 -0.1131
vn 0.0508 -0.9921 -0.1147
vn 0.0786 -0.9899 -0.1178
vn 0.0545 -0.9917 -0.1163
vn 0.0821 -0.9895 -0.1188
vn 0.0869 -0.9875 -0.1313
vn 0.1065 -0.9849 -0.1363
vn 0.1039 -0.9872 -0.1213
vn 0.1113 -0.9860 -0.1244
vn 0.1149 -0.9835 -0.1396
vn 0.1074 -0.9864 -0.1247
vn 0.1008 -0.9875 -0.1211
vn 0.1859 -0.9431 -0.2756
vn 0.1534 -0.9495 -0.2737
vn 0.1248 -0.9540 -0.2726
vn 0.0946 -0.9576 -0.2721
vn 0.0557 -0.9607 -0.2720
vn 0.0098 -0.9637 -0.2668
vn -0.0366 -0.9701 -0.2399
vn -0.0592 -0.9791 -0.1944
vn -0.0586 -0.9861 -0.1557
vn -0.0538 -0.9903 -0.1278
vn -0.0518 -0.9927 -0.1085
vn -0.0522 -0.9945 -0.0907
vn -0.0556 -0.9961 -0.0682
vn -0.0562 -0.9977 -0.0383
vn -0.0377 -0.9993 -0.0026
vn -0.0002 -0.9999 0.0170
vn 0.0348 -0.9992 0.0180
vn 0.0645 -0.9978 0.0156
vn 0.0902 -0.9958 0.0152
vn 0.1172 -0.9930 0.0165
vn 0.1520 -0.9882 0.0194
vn 0.1949 -0.9807 0.0173
vn 0.2410 -0.9705 -0.0081
vn 0.2662 -0.9625 -0.0530
vn 0.2696 -0.9585 -0.0928
vn 0.2688 -0.9553 -0.1235
vn 0.2697 -0.9519 -0.1455
vn 0.2726 -0.9479 -0.1650
vn 0.6802 -0.0061 -0.7330
vn 0.5565 -0.0046 -0.8309
vn 0.6795 -0.0000 -0.7337
vn 0.5564 -0.0000 -0.8309
vn 0.4162 -0.0067 -0.9093
vn 0.4166 -0.0000 -0.9091
vn 0.1592 -0.0069 -0.9872
vn 0.1575 -0.0000 -0.9875
vn 0.0374 -0.0069 -0.9993
vn 0.0374 -0.0000 -0.9993
vn -0.2307 -0.0066 -0.9730
vn -0.2325 -0.0000 -0.9726
vn -0.3820 -0.0045 -0.9241
vn -0.5568 -0.0041 -0.8306
vn -0.5574 -0.0000 -0.8302
vn -0.7074 -0.0039 -0.7068
vn -0.8316 -0.0039 -0.5553
vn -0.8936 -0.0072 -0.4489
vn -0.8982 -0.0000 -0.4395
vn -0.9920 -0.0075 -0.1258
vn -0.9910 -0.0000 -0.1340
vn -0.9993 -0.0061 -0.0369
vn -0.9993 -0.0000 -0.0371
vn -0.9731 -0.0059 0.2301
vn -0.9728 -0.0000 0.2315
vn -0.9238 -0.0040 0.3828
vn -0.9239 -0.0000 0.3826
vn -0.8314 -0.0037 0.5557
vn -0.7078 -0.0036 0.7064
vn -0.7076 -0.0000 0.7066
vn -0.5546 -0.0038 0.8321
vn -0.5545 -0.0000 0.8322
vn -0.3904 -0.0043 0.9206
vn -0.3907 -0.0001 0.9205
vn -0.2592 -0.0084 0.9658
vn -0.2494 -0.0000 0.9684
vn 0.0728 -0.0075 0.9973
vn 0.0625 -0.0000 0.9980
vn 0.1952 -0.0043 0.9808
vn 0.1946 -0.0000 0.9809
vn 0.1954 -0.0000 0.9807
vn 0.0480 -0.0000 0.9988
vn -0.2343 -0.0000 0.9722
vn -0.3907 -0.0000 0.9205
vn -0.7077 -0.0000 0.7065
vn -0.9237 -0.0000 0.3831
vn -0.9721 -0.0000 0.2346
vn -0.9992 -0.0000 -0.0404
vn -0.9877 -0.0000 -0.1562
vn -0.9082 -0.0000 -0.4186
vn -0.8318 -0.0000 -0.5550
vn -0.2277 -0.0000 -0.9737
vn 0.0323 -0.0000 -0.9995
vn 0.1550 -0.0000 -0.9879
vn 0.4190 -0.0000 -0.9080
vn 0.5563 -0.0000 -0.8310
vn 0.6776 -0.0006 -0.7354
vt 0.163367 0.812574
vt 0.163366 0.812167
vt 0.166009 0.812165
vt 0.166010 0.812581
vt 0.168653 0.812162
vt 0.168653 0.812589
vt 0.160725 0.812568
vt 0.160725 0.812170
vt 0.158085 0.812563
vt 0.158085 0.812172
vt 0.158088 0.815050
vt 0.160728 0.815103
vt 0.163369 0.815167
vt 0.158094 0.821732
vt 0.160734 0.821914
vt 0.163375 0.822134
vt 0.166012 0.815238
vt 0.166018 0.822375
vt 0.168656 0.815312
vt 0.168661 0.822624
vt 0.171300 0.815384
vt 0.171305 0.822870
vt 0.171297 0.812597
vt 0.171297 0.812160
vt 0.173941 0.812158
vt 0.173941 0.812604
vt 0.173943 0.815451
vt 0.176583 0.812611
vt 0.176585 0.815512
vt 0.176583 0.812156
vt 0.179222 0.812154
vt 0.179223 0.812617
vt 0.179224 0.815563
vt 0.181862 0.812621
vt 0.181863 0.815604
vt 0.181862 0.812153
vt 0.184504 0.812152
vt 0.184504 0.812624
vt 0.184505 0.815633
vt 0.187147 0.812626
vt 0.187148 0.815651
vt 0.187147 0.812152
vt 0.189788 0.812151
vt 0.189788 0.812627
vt 0.189788 0.815656
vt 0.192427 0.812626
vt 0.192427 0.815651
vt 0.192428 0.812152
vt 0.195068 0.812153
vt 0.195068 0.812625
vt 0.195066 0.815635
vt 0.197708 0.812623
vt 0.197707 0.815610
vt 0.197708 0.812154
vt 0.200350 0.812155
vt 0.200350 0.812620
vt 0.200348 0.815578
vt 0.202992 0.812616
vt 0.202989 0.815539
vt 0.202992 0.812157
vt 0.205635 0.812160
vt 0.205634 0.812612
vt 0.205632 0.815495
vt 0.208278 0.812608
vt 0.208274 0.815447
vt 0.208278 0.812162
vt 0.210922 0.812166
vt 0.210921 0.812604
vt 0.210918 0.815395
vt 0.213565 0.812599
vt 0.213561 0.815340
vt 0.213566 0.812169
vt 0.216209 0.812173
vt 0.216209 0.812595
vt 0.216205 0.815283
vt 0.218852 0.812590
vt 0.218848 0.815226
vt 0.218853 0.812177
vt 0.221495 0.812181
vt 0.221494 0.812587
vt 0.221490 0.815170
vt 0.224136 0.812583
vt 0.224132 0.815118
vt 0.224137 0.812185
vt 0.142259 0.812185
vt 0.142259 0.812576
vt 0.139619 0.812584
vt 0.139619 0.812187
vt 0.142261 0.815069
vt 0.139621 0.815120
vt 0.144898 0.812569
vt 0.144900 0.815029
vt 0.144898 0.812183
vt 0.147535 0.812181
vt 0.147536 0.812564
vt 0.147537 0.815002
vt 0.150173 0.812560
vt 0.150175 0.814989
vt 0.150173 0.812179
vt 0.152809 0.812177
vt 0.152810 0.812559
vt 0.152812 0.814992
vt 0.155447 0.812560
vt 0.155449 0.815012
vt 0.155447 0.812175
vt 0.152817 0.821526
vt 0.155455 0.821598
vt 0.152821 0.826507
vt 0.155459 0.826630
vt 0.158098 0.826859
vt 0.160738 0.827171
vt 0.158101 0.829346
vt 0.155461 0.829082
vt 0.160741 0.829707
vt 0.926152 0.251664
vt 0.926471 0.251565
vt 0.926765 0.254265
vt 0.926431 0.254316
vt 0.925369 0.249131
vt 0.925666 0.248987
vt 0.152823 0.828939
vt 0.924097 0.246819
vt 0.924363 0.246631
vt 0.923843 0.246974
vt 0.925073 0.249241
vt 0.925833 0.251732
vt 0.923370 0.247248
vt 0.924511 0.249427
vt 0.925220 0.251836
vt 0.926103 0.254343
vt 0.925476 0.254367
vt 0.926187 0.256984
vt 0.925865 0.256969
vt 0.925255 0.256913
vt 0.925139 0.259505
vt 0.924581 0.259365
vt 0.925440 0.259566
vt 0.923949 0.261848
vt 0.923478 0.261616
vt 0.924210 0.261959
vt 0.924534 0.262084
vt 0.925780 0.259626
vt 0.926529 0.256985
vt 0.168666 0.828382
vt 0.168668 0.831105
vt 0.166025 0.830614
vt 0.166023 0.827957
vt 0.163382 0.830139
vt 0.163380 0.827545
vt 0.171309 0.828801
vt 0.171311 0.831588
vt 0.173948 0.823099
vt 0.173952 0.829192
vt 0.173954 0.832039
vt 0.922838 0.264265
vt 0.922547 0.264070
vt 0.920746 0.266067
vt 0.920504 0.265809
vt 0.176593 0.829543
vt 0.176594 0.832444
vt 0.918352 0.267425
vt 0.918171 0.267116
vt 0.920344 0.265588
vt 0.918061 0.266850
vt 0.922336 0.263905
vt 0.920074 0.265150
vt 0.917881 0.266320
vt 0.921969 0.263574
vt 0.915638 0.267942
vt 0.915575 0.267650
vt 0.915480 0.267065
vt 0.912984 0.267964
vt 0.912970 0.267360
vt 0.913002 0.268266
vt 0.910358 0.268068
vt 0.910386 0.267771
vt 0.910453 0.267181
vt 0.907883 0.267090
vt 0.908035 0.266549
vt 0.907807 0.267364
vt 0.905453 0.266174
vt 0.905581 0.265940
vt 0.905823 0.265487
vt 0.903565 0.264360
vt 0.903905 0.264010
vt 0.903383 0.264542
vt 0.901686 0.262523
vt 0.901920 0.262393
vt 0.902366 0.262136
vt 0.900693 0.260123
vt 0.901229 0.259952
vt 0.900417 0.260204
vt 0.899626 0.257675
vt 0.899925 0.257639
vt 0.900513 0.257549
vt 0.899639 0.255042
vt 0.900244 0.255030
vt 0.899334 0.255035
vt 0.899562 0.252384
vt 0.899860 0.252434
vt 0.900449 0.252502
vt 0.900567 0.249917
vt 0.901105 0.250069
vt 0.900293 0.249822
vt 0.901509 0.247447
vt 0.901740 0.247593
vt 0.902190 0.247838
vt 0.903342 0.245550
vt 0.903688 0.245894
vt 0.903163 0.245350
vt 0.905202 0.243622
vt 0.905328 0.243873
vt 0.905578 0.244323
vt 0.907612 0.242610
vt 0.907772 0.243150
vt 0.907536 0.242318
vt 0.910078 0.241486
vt 0.910108 0.241801
vt 0.910184 0.242394
vt 0.912713 0.241472
vt 0.912708 0.242085
vt 0.912727 0.241150
vt 0.915383 0.241333
vt 0.915326 0.241649
vt 0.915238 0.242249
vt 0.917842 0.242314
vt 0.917668 0.242867
vt 0.917945 0.242020
vt 0.920312 0.243196
vt 0.920160 0.243449
vt 0.919893 0.243918
vt 0.922189 0.245016
vt 0.921822 0.245384
vt 0.922392 0.244812
vt 0.919418 0.244750
vt 0.921171 0.246038
vt 0.922530 0.247735
vt 0.923512 0.249758
vt 0.921574 0.248272
vt 0.922357 0.250121
vt 0.920444 0.246768
vt 0.920754 0.248697
vt 0.921328 0.250403
vt 0.919853 0.247364
vt 0.919775 0.248935
vt 0.920146 0.250583
vt 0.919336 0.247891
vt 0.921715 0.252369
vt 0.922866 0.252221
vt 0.920413 0.252468
vt 0.921873 0.254469
vt 0.923061 0.254452
vt 0.920532 0.254478
vt 0.918689 0.252523
vt 0.918533 0.250639
vt 0.918770 0.254492
vt 0.920458 0.256499
vt 0.918736 0.256475
vt 0.921758 0.256582
vt 0.920231 0.258414
vt 0.918622 0.258392
vt 0.921410 0.258578
vt 0.922907 0.256695
vt 0.922438 0.258830
vt 0.920867 0.260332
vt 0.921688 0.260737
vt 0.919890 0.260104
vt 0.919993 0.261725
vt 0.920588 0.262314
vt 0.919472 0.261191
vt 0.918466 0.260165
vt 0.918424 0.261634
vt 0.918649 0.262643
vt 0.916742 0.260356
vt 0.916780 0.262015
vt 0.916944 0.263232
vt 0.919065 0.263465
vt 0.917212 0.264266
vt 0.914991 0.263636
vt 0.915126 0.264795
vt 0.914904 0.262295
vt 0.912913 0.263815
vt 0.912920 0.265016
vt 0.912912 0.262433
vt 0.914864 0.260519
vt 0.912908 0.260616
vt 0.910952 0.260609
vt 0.910919 0.262387
vt 0.910832 0.263730
vt 0.909066 0.260534
vt 0.909035 0.262196
vt 0.908869 0.263416
vt 0.910709 0.264893
vt 0.908611 0.264459
vt 0.907147 0.262912
vt 0.906741 0.263749
vt 0.907372 0.261896
vt 0.905781 0.262063
vt 0.905197 0.262678
vt 0.906306 0.261504
vt 0.907320 0.260428
vt 0.905874 0.260439
vt 0.904887 0.260714
vt 0.905511 0.258766
vt 0.907143 0.258662
vt 0.904319 0.258991
vt 0.904075 0.261160
vt 0.903298 0.259299
vt 0.902789 0.257198
vt 0.903933 0.257021
vt 0.905249 0.256870
vt 0.903772 0.254925
vt 0.905130 0.254862
vt 0.902587 0.254975
vt 0.902728 0.252747
vt 0.903877 0.252827
vt 0.905196 0.252853
vt 0.904212 0.250850
vt 0.905412 0.250960
vt 0.903182 0.250632
vt 0.904740 0.249123
vt 0.903915 0.248749
vt 0.905736 0.249302
vt 0.905604 0.247747
vt 0.905005 0.247188
vt 0.906143 0.248241
vt 0.907178 0.249198
vt 0.907197 0.247780
vt 0.907042 0.250927
vt 0.906948 0.246824
vt 0.908918 0.248972
vt 0.908851 0.247376
vt 0.908659 0.246219
vt 0.906525 0.246035
vt 0.908382 0.245222
vt 0.910621 0.245799
vt 0.910478 0.244679
vt 0.910736 0.247078
vt 0.912709 0.245608
vt 0.912695 0.244445
vt 0.912736 0.246929
vt 0.910807 0.248785
vt 0.912769 0.248677
vt 0.914727 0.248686
vt 0.914733 0.246973
vt 0.914797 0.245688
vt 0.916608 0.248777
vt 0.916616 0.247172
vt 0.916763 0.246002
vt 0.914915 0.244559
vt 0.917021 0.244988
vt 0.918486 0.246513
vt 0.918895 0.245699
vt 0.918274 0.247486
vt 0.918342 0.248910
vt 0.916674 0.250632
vt 0.914755 0.250622
vt 0.916748 0.252553
vt 0.914795 0.252575
vt 0.916799 0.254515
vt 0.914829 0.254545
vt 0.916796 0.256492
vt 0.914843 0.256531
vt 0.916768 0.258450
vt 0.914850 0.258525
vt 0.912881 0.256580
vt 0.912899 0.258589
vt 0.910919 0.256624
vt 0.910946 0.258614
vt 0.908956 0.256678
vt 0.909019 0.258629
vt 0.906995 0.256758
vt 0.906915 0.254785
vt 0.908908 0.254708
vt 0.906943 0.252816
vt 0.908904 0.252745
vt 0.908916 0.250823
vt 0.910847 0.250717
vt 0.910868 0.252671
vt 0.912834 0.252609
vt 0.912804 0.250640
vt 0.912859 0.254587
vt 0.910887 0.254642
vt 0.917358 0.243851
vt 0.915081 0.243316
vt 0.912698 0.243173
vt 0.910320 0.243449
vt 0.908058 0.244110
vt 0.906023 0.245123
vt 0.904304 0.246505
vt 0.902991 0.248272
vt 0.902062 0.250340
vt 0.901495 0.252622
vt 0.901318 0.255009
vt 0.901558 0.257388
vt 0.902183 0.259648
vt 0.903160 0.261680
vt 0.904511 0.263388
vt 0.906255 0.264682
vt 0.908305 0.265588
vt 0.910572 0.266132
vt 0.912944 0.266287
vt 0.915309 0.266026
vt 0.917561 0.265377
vt 0.919593 0.264371
vt 0.921316 0.262987
vt 0.922642 0.261205
vt 0.923587 0.259116
vt 0.924171 0.256814
vt 0.924362 0.254411
vt 0.924133 0.252021
vt 0.922619 0.244581
vt 0.920493 0.242925
vt 0.150186 0.828909
vt 0.150184 0.826481
vt 0.147548 0.828983
vt 0.147546 0.826545
vt 0.144910 0.829151
vt 0.144908 0.826691
vt 0.918079 0.241719
vt 0.142271 0.829403
vt 0.142269 0.826910
vt 0.915467 0.241010
vt 0.139631 0.829721
vt 0.139630 0.827186
vt 0.912760 0.240814
vt 0.221469 0.830080
vt 0.221473 0.827497
vt 0.224115 0.827185
vt 0.224111 0.829720
vt 0.910055 0.241146
vt 0.218827 0.830467
vt 0.218831 0.827832
vt 0.907453 0.241985
vt 0.216184 0.830859
vt 0.216188 0.828171
vt 0.905053 0.243312
vt 0.213542 0.831248
vt 0.213545 0.828508
vt 0.902950 0.245078
vt 0.210900 0.831625
vt 0.210903 0.828834
vt 0.901238 0.247226
vt 0.208258 0.831982
vt 0.208261 0.829143
vt 0.899978 0.249660
vt 0.205617 0.832311
vt 0.205619 0.829428
vt 0.899218 0.252286
vt 0.202976 0.832610
vt 0.202979 0.829687
vt 0.898974 0.255004
vt 0.200337 0.832874
vt 0.200339 0.829916
vt 0.899264 0.257713
vt 0.197698 0.833095
vt 0.197700 0.830107
vt 0.900069 0.260315
vt 0.195060 0.833263
vt 0.195061 0.830253
vt 0.901370 0.262709
vt 0.192423 0.833370
vt 0.192424 0.830346
vt 0.903121 0.264799
vt 0.189786 0.833407
vt 0.189787 0.830378
vt 0.905261 0.266487
vt 0.187149 0.833370
vt 0.187148 0.830345
vt 0.907694 0.267714
vt 0.184508 0.833253
vt 0.184508 0.830244
vt 0.910323 0.268433
vt 0.181868 0.833058
vt 0.181867 0.830075
vt 0.913044 0.268629
vt 0.179231 0.832786
vt 0.179230 0.829839
vt 0.915753 0.268286
vt 0.179227 0.823478
vt 0.181865 0.823617
vt 0.176589 0.823305
vt 0.184507 0.823716
vt 0.187148 0.823775
vt 0.189787 0.823794
vt 0.192425 0.823776
vt 0.195064 0.823721
vt 0.197703 0.823636
vt 0.200343 0.823524
vt 0.202983 0.823390
vt 0.205625 0.823239
vt 0.208267 0.823072
vt 0.210909 0.822892
vt 0.213552 0.822701
vt 0.216195 0.822504
vt 0.218838 0.822306
vt 0.221481 0.822111
vt 0.224122 0.821929
vt 0.142266 0.821767
vt 0.139626 0.821930
vt 0.144905 0.821638
vt 0.147543 0.821551
vt 0.150180 0.821512
s 1
f 5/1/1 4/2/1 1/3/2 2/4/2
f 3/5/3 20/6/4 2/4/2 1/3/2
f 4/2/1 5/1/1 8/7/5 6/8/5
f 9/9/6 7/10/7 6/8/5 8/7/5
f 11/11/8 9/9/6 8/7/5 10/12/5
f 5/1/1 13/13/9 10/12/5 8/7/5
f 104/14/8 11/11/8 10/12/5 12/15/5
f 13/13/9 14/16/10 12/15/5 10/12/5
f 14/16/10 13/13/9 15/17/2 16/18/11
f 13/13/9 5/1/1 2/4/2 15/17/2
f 17/19/3 18/20/3 16/18/11 15/17/2
f 20/6/4 17/19/3 15/17/2 2/4/2
f 18/20/3 17/19/3 19/21/12 137/22/12
f 17/19/3 20/6/4 21/23/13 19/21/12
f 20/6/4 3/5/3 22/24/13 21/23/13
f 25/25/14 23/26/15 21/23/13 22/24/13
f 23/26/15 24/27/16 19/21/12 21/23/13
f 24/27/16 23/26/15 26/28/17 28/29/18
f 23/26/15 25/25/14 27/30/19 26/28/17
f 31/31/20 29/32/21 26/28/17 27/30/19
f 29/32/21 30/33/22 28/29/18 26/28/17
f 30/33/22 29/32/21 32/34/23 34/35/24
f 29/32/21 31/31/20 33/36/25 32/34/23
f 37/37/26 35/38/27 32/34/23 33/36/25
f 35/38/27 36/39/28 34/35/24 32/34/23
f 36/39/28 35/38/27 38/40/29 40/41/30
f 35/38/27 37/37/26 39/42/29 38/40/29
f 43/43/31 41/44/32 38/40/29 39/42/29
f 41/44/32 42/45/33 40/41/30 38/40/29
f 42/45/33 41/44/32 44/46/34 46/47/35
f 41/44/32 43/43/31 45/48/36 44/46/34
f 49/49/37 47/50/37 44/46/34 45/48/36
f 47/50/37 48/51/37 46/47/35 44/46/34
f 48/51/37 47/50/37 50/52/38 52/53/39
f 47/50/37 49/49/37 51/54/40 50/52/38
f 55/55/41 53/56/42 50/52/38 51/54/40
f 53/56/42 54/57/43 52/53/39 50/52/38
f 54/57/43 53/56/42 56/58/44 58/59/45
f 53/56/42 55/55/41 57/60/46 56/58/44
f 61/61/47 59/62/48 56/58/44 57/60/46
f 59/62/48 60/63/47 58/59/45 56/58/44
f 60/63/47 59/62/48 62/64/49 64/65/49
f 59/62/48 61/61/47 63/66/50 62/64/49
f 67/67/51 65/68/52 62/64/49 63/66/50
f 65/68/52 66/69/52 64/65/49 62/64/49
f 66/69/52 65/68/52 68/70/53 70/71/54
f 65/68/52 67/67/51 69/72/54 68/70/53
f 73/73/55 71/74/56 68/70/53 69/72/54
f 71/74/56 72/75/57 70/71/54 68/70/53
f 72/75/57 71/74/56 74/76/58 76/77/59
f 71/74/56 73/73/55 75/78/60 74/76/58
f 79/79/61 77/80/62 74/76/58 75/78/60
f 77/80/62 78/81/61 76/77/59 74/76/58
f 78/81/61 77/80/62 80/82/63 82/83/63
f 77/80/62 79/79/61 81/84/63 80/82/63
f 85/85/64 83/86/65 80/87/63 81/88/63
f 83/86/65 84/89/66 82/90/63 80/87/63
f 84/89/66 83/86/65 86/91/67 88/92/68
f 83/86/65 85/85/64 87/93/69 86/91/67
f 91/94/70 89/95/71 86/91/67 87/93/69
f 89/95/71 90/96/72 88/92/68 86/91/67
f 90/96/72 89/95/71 92/97/73 94/98/74
f 89/95/71 91/94/70 93/99/75 92/97/73
f 97/100/76 95/101/76 92/97/73 93/99/75
f 95/101/76 96/102/77 94/98/74 92/97/73
f 96/102/77 95/101/76 98/103/78 100/104/79
f 95/101/76 97/100/76 99/105/80 98/103/78
f 7/10/7 9/9/6 98/103/78 99/105/80
f 9/9/6 11/11/8 100/104/79 98/103/78
f 102/106/81 96/102/77 100/104/79 101/107/79
f 11/11/8 104/14/8 101/107/79 100/104/79
f 465/108/82 102/106/81 101/107/79 103/109/83
f 104/14/8 105/110/8 103/109/83 101/107/79
f 105/110/8 104/14/8 12/15/5 106/111/5
f 105/110/8 107/112/84 110/113/85 103/109/83
f 107/112/84 105/110/8 106/111/5 108/114/86
f 109/115/87 107/116/84 108/117/86 120/118/88
f 107/116/84 109/115/87 112/119/89 110/120/85
f 111/121/90 465/108/82 103/109/83 110/113/85
f 113/122/91 111/123/90 110/120/85 112/119/89
f 115/124/92 113/122/91 112/119/89 114/125/93
f 109/115/87 117/126/94 114/125/93 112/119/89
f 217/127/95 115/124/92 114/125/93 116/128/96
f 117/126/94 118/129/97 116/128/96 114/125/93
f 118/129/97 117/126/94 119/130/98 121/131/99
f 117/126/94 109/115/87 120/118/88 119/130/98
f 124/132/100 122/133/101 119/130/98 120/118/88
f 122/133/101 123/134/102 121/131/99 119/130/98
f 123/134/102 122/133/101 125/135/103 126/136/104
f 122/133/101 124/132/100 128/137/105 125/135/103
f 127/138/106 390/139/107 126/136/104 125/135/103
f 129/140/108 127/138/106 125/135/103 128/137/105
f 131/141/109 129/140/108 128/137/105 130/142/110
f 124/132/100 133/143/111 130/142/110 128/137/105
f 135/144/3 131/145/109 130/146/110 132/147/112
f 133/148/111 134/149/10 132/147/112 130/146/110
f 134/149/10 133/148/111 108/114/86 106/111/5
f 133/143/111 124/132/100 120/118/88 108/117/86
f 134/149/10 14/16/10 16/18/11 132/147/112
f 14/16/10 134/149/10 106/111/5 12/15/5
f 18/20/3 135/144/3 132/147/112 16/18/11
f 135/144/3 18/20/3 137/22/12 136/150/113
f 131/145/109 135/144/3 136/150/113 139/151/114
f 443/152/115 138/153/115 136/150/113 137/22/12
f 138/153/115 141/154/116 139/151/114 136/150/113
f 129/140/108 131/141/109 139/155/114 140/156/117
f 141/157/116 143/158/118 140/156/117 139/155/114
f 141/154/116 138/153/115 441/159/119 142/160/120
f 143/158/118 141/157/116 142/161/120 144/162/121
f 145/163/122 143/158/118 144/162/121 148/164/123
f 143/158/118 145/163/122 147/165/124 140/156/117
f 146/166/125 145/163/122 148/164/123 149/167/126
f 145/163/122 146/166/125 387/168/127 147/165/124
f 152/169/128 150/170/129 148/164/123 144/162/121
f 150/170/129 151/171/130 149/167/126 148/164/123
f 151/171/130 150/170/129 153/172/131 155/173/132
f 150/170/129 152/169/128 154/174/133 153/172/131
f 158/175/134 156/176/135 153/172/131 154/174/133
f 156/176/135 157/177/136 155/173/132 153/172/131
f 157/177/136 156/176/135 159/178/137 161/179/138
f 156/176/135 158/175/134 160/180/139 159/178/137
f 164/181/140 162/182/141 159/178/137 160/180/139
f 162/182/141 163/183/142 161/179/138 159/178/137
f 163/183/142 162/182/141 165/184/143 167/185/144
f 162/182/141 164/181/140 166/186/145 165/184/143
f 170/187/146 168/188/147 165/184/143 166/186/145
f 168/188/147 169/189/148 167/185/144 165/184/143
f 169/189/148 168/188/147 171/190/149 173/191/150
f 168/188/147 170/187/146 172/192/151 171/190/149
f 176/193/152 174/194/153 171/190/149 172/192/151
f 174/194/153 175/195/154 173/191/150 171/190/149
f 175/195/154 174/194/153 177/196/155 179/197/156
f 174/194/153 176/193/152 178/198/157 177/196/155
f 182/199/158 180/200/159 177/196/155 178/198/157
f 180/200/159 181/201/160 179/197/156 177/196/155
f 181/201/160 180/200/159 183/202/161 185/203/162
f 180/200/159 182/199/158 184/204/163 183/202/161
f 188/205/164 186/206/165 183/202/161 184/204/163
f 186/206/165 187/207/166 185/203/162 183/202/161
f 187/207/166 186/206/165 189/208/167 191/209/168
f 186/206/165 188/205/164 190/210/169 189/208/167
f 194/211/170 192/212/171 189/208/167 190/210/169
f 192/212/171 193/213/172 191/209/168 189/208/167
f 193/213/172 192/212/171 195/214/173 197/215/174
f 192/212/171 194/211/170 196/216/175 195/214/173
f 200/217/176 198/218/177 195/214/173 196/216/175
f 198/218/177 199/219/178 197/215/174 195/214/173
f 199/219/178 198/218/177 201/220/179 203/221/180
f 198/218/177 200/217/176 202/222/181 201/220/179
f 206/223/182 204/224/183 201/220/179 202/222/181
f 204/224/183 205/225/184 203/221/180 201/220/179
f 205/225/184 204/224/183 207/226/185 209/227/186
f 204/224/183 206/223/182 208/228/187 207/226/185
f 212/229/188 210/230/189 207/226/185 208/228/187
f 210/230/189 211/231/190 209/227/186 207/226/185
f 211/231/190 210/230/189 213/232/191 215/233/192
f 210/230/189 212/229/188 214/234/193 213/232/191
f 113/122/91 115/124/92 213/232/191 214/234/193
f 115/124/92 217/127/95 215/233/192 213/232/191
f 359/235/194 211/231/190 215/233/192 216/236/195
f 217/127/95 218/237/196 216/236/195 215/233/192
f 218/237/196 217/127/95 116/128/96 219/238/197
f 220/239/198 218/237/196 219/238/197 221/240/199
f 218/237/196 220/239/198 222/241/200 216/236/195
f 223/242/201 220/239/198 221/240/199 226/243/202
f 220/239/198 223/242/201 225/244/203 222/241/200
f 224/245/204 223/242/201 226/243/202 227/246/205
f 223/242/201 224/245/204 322/247/206 225/244/203
f 228/248/207 226/243/202 221/240/199 229/249/208
f 226/243/202 228/248/207 231/250/209 227/246/205
f 230/251/210 228/248/207 229/249/208 395/252/211
f 228/248/207 230/251/210 233/253/212 231/250/209
f 231/250/209 232/254/213 323/255/214 227/246/205
f 232/254/213 231/250/209 233/253/212 234/256/215
f 235/257/216 236/258/217 234/256/215 233/253/212
f 238/259/218 235/257/216 233/253/212 230/251/210
f 236/258/217 235/257/216 237/260/219 335/261/220
f 235/257/216 238/259/218 240/262/221 237/260/219
f 239/263/222 238/259/218 230/251/210 395/252/211
f 238/259/218 239/263/222 241/264/223 240/262/221
f 242/265/224 240/262/221 241/264/223 243/266/225
f 240/262/221 242/265/224 245/267/226 237/260/219
f 244/268/227 242/265/224 243/266/225 389/269/228
f 242/265/224 244/268/227 247/270/229 245/267/226
f 245/267/226 246/271/230 335/261/220 237/260/219
f 246/271/230 245/267/226 247/270/229 248/272/231
f 250/273/232 248/272/231 247/270/229 244/268/227
f 336/274/233 246/271/230 248/272/231 249/275/234
f 248/272/231 250/273/232 252/276/235 249/275/234
f 251/277/236 250/273/232 244/268/227 389/269/228
f 250/273/232 251/277/236 253/278/237 252/276/235
f 254/279/238 252/276/235 253/278/237 255/280/239
f 252/276/235 254/279/238 257/281/240 249/275/234
f 256/282/241 254/279/238 255/280/239 383/283/242
f 254/279/238 256/282/241 259/284/243 257/281/240
f 258/285/244 336/274/233 249/275/234 257/281/240
f 260/286/245 258/285/244 257/281/240 259/284/243
f 262/287/246 260/286/245 259/284/243 261/288/247
f 256/282/241 264/289/248 261/288/247 259/284/243
f 344/290/249 262/287/246 261/288/247 263/291/250
f 264/289/248 266/292/251 263/291/250 261/288/247
f 264/289/248 256/282/241 383/283/242 265/293/252
f 266/292/251 264/289/248 265/293/252 267/294/253
f 268/295/254 266/292/251 267/294/253 269/296/255
f 266/292/251 268/295/254 271/297/256 263/291/250
f 270/298/257 268/295/254 269/296/255 378/299/258
f 268/295/254 270/298/257 273/300/259 271/297/256
f 272/301/260 344/290/249 263/291/250 271/297/256
f 274/302/261 272/301/260 271/297/256 273/300/259
f 276/303/262 274/302/261 273/300/259 270/298/257
f 272/301/260 274/302/261 275/304/263 343/305/264
f 274/302/261 276/303/262 278/306/265 275/304/263
f 277/307/266 276/303/262 270/298/257 378/299/258
f 276/303/262 277/307/266 279/308/267 278/306/265
f 282/309/268 280/310/269 278/306/265 279/308/267
f 280/310/269 281/311/270 275/304/263 278/306/265
f 281/311/270 280/310/269 283/312/271 285/313/272
f 280/310/269 282/309/268 284/314/273 283/312/271
f 288/315/274 286/316/275 283/312/271 284/314/273
f 286/316/275 287/317/276 285/313/272 283/312/271
f 287/317/276 286/316/275 289/318/277 291/319/278
f 286/316/275 288/315/274 290/320/279 289/318/277
f 292/321/280 289/318/277 290/320/279 293/322/281
f 289/318/277 292/321/280 295/323/282 291/319/278
f 294/324/283 292/321/280 293/322/281 369/325/284
f 292/321/280 294/324/283 297/326/285 295/323/282
f 296/327/286 295/323/282 297/326/285 298/328/287
f 295/323/282 296/327/286 350/329/288 291/319/278
f 300/330/289 298/328/287 297/326/285 294/324/283
f 352/331/290 296/327/286 298/328/287 299/332/291
f 298/328/287 300/330/289 302/333/292 299/332/291
f 301/334/293 300/330/289 294/324/283 369/325/284
f 300/330/289 301/334/293 303/335/294 302/333/292
f 304/336/295 302/333/292 303/335/294 305/337/296
f 302/333/292 304/336/295 307/338/297 299/332/291
f 306/339/298 304/336/295 305/337/296 364/340/299
f 304/336/295 306/339/298 309/341/300 307/338/297
f 308/342/301 352/331/290 299/332/291 307/338/297
f 310/343/302 308/342/301 307/338/297 309/341/300
f 312/344/303 310/343/302 309/341/300 311/345/304
f 306/339/298 314/346/305 311/345/304 309/341/300
f 324/347/306 312/344/303 311/345/304 313/348/307
f 314/346/305 316/349/308 313/348/307 311/345/304
f 314/346/305 306/339/298 364/340/299 315/350/309
f 316/349/308 314/346/305 315/350/309 317/351/310
f 318/352/311 316/349/308 317/351/310 319/353/312
f 316/349/308 318/352/311 320/354/313 313/348/307
f 225/244/203 318/352/311 319/353/312 222/241/200
f 318/352/311 225/244/203 322/247/206 320/354/313
f 321/355/314 324/347/306 313/348/307 320/354/313
f 224/245/204 321/355/314 320/354/313 322/247/206
f 321/355/314 224/245/204 227/246/205 323/255/214
f 324/347/306 321/355/314 323/255/214 325/356/315
f 312/344/303 324/347/306 325/356/315 326/357/316
f 327/358/317 328/359/318 326/357/316 325/356/315
f 232/254/213 327/358/317 325/356/315 323/255/214
f 328/359/318 327/358/317 329/360/319 330/361/320
f 327/358/317 232/254/213 234/256/215 329/360/319
f 331/362/321 332/363/322 330/361/320 329/360/319
f 236/258/217 331/362/321 329/360/319 234/256/215
f 332/363/322 331/362/321 333/364/323 334/365/324
f 331/362/321 236/258/217 335/261/220 333/364/323
f 336/274/233 258/285/244 334/365/324 333/364/323
f 246/271/230 336/274/233 333/364/323 335/261/220
f 338/366/325 332/363/322 334/365/324 337/367/326
f 258/285/244 260/286/245 337/367/326 334/365/324
f 340/368/327 338/366/325 337/367/326 339/369/328
f 260/286/245 262/287/246 339/369/328 337/367/326
f 342/370/329 340/368/327 339/369/328 341/371/330
f 262/287/246 344/290/249 341/371/330 339/369/328
f 345/372/331 342/370/329 341/371/330 343/305/264
f 344/290/249 272/301/260 343/305/264 341/371/330
f 281/311/270 345/372/331 343/305/264 275/304/263
f 342/370/329 345/372/331 346/373/332 347/374/333
f 345/372/331 281/311/270 285/313/272 346/373/332
f 348/375/334 349/376/335 347/374/333 346/373/332
f 287/317/276 348/375/334 346/373/332 285/313/272
f 349/376/335 348/375/334 350/329/288 351/377/336
f 348/375/334 287/317/276 291/319/278 350/329/288
f 296/327/286 352/331/290 351/377/336 350/329/288
f 352/331/290 308/342/301 353/378/337 351/377/336
f 355/379/338 349/376/335 351/377/336 353/378/337
f 356/380/339 355/379/338 353/378/337 354/381/340
f 308/342/301 310/343/302 354/381/340 353/378/337
f 355/379/338 356/380/339 358/382/341 357/383/342
f 349/376/335 355/379/338 357/383/342 347/374/333
f 338/366/325 340/368/327 357/383/342 358/382/341
f 340/368/327 342/370/329 347/374/333 357/383/342
f 356/380/339 328/359/318 330/361/320 358/382/341
f 332/363/322 338/366/325 358/382/341 330/361/320
f 328/359/318 356/380/339 354/381/340 326/357/316
f 310/343/302 312/344/303 326/357/316 354/381/340
f 359/235/194 319/353/312 317/351/310 360/384/343
f 319/353/312 359/235/194 216/236/195 222/241/200
f 211/231/190 359/235/194 360/384/343 209/227/186
f 361/385/344 205/225/184 209/227/186 360/384/343
f 315/350/309 361/385/344 360/384/343 317/351/310
f 205/225/184 361/385/344 362/386/345 203/221/180
f 361/385/344 315/350/309 364/340/299 362/386/345
f 363/387/346 199/219/178 203/221/180 362/386/345
f 305/337/296 363/387/346 362/386/345 364/340/299
f 199/219/178 363/387/346 365/388/347 197/215/174
f 363/387/346 305/337/296 303/335/294 365/388/347
f 366/389/348 193/213/172 197/215/174 365/388/347
f 301/334/293 366/389/348 365/388/347 303/335/294
f 193/213/172 366/389/348 367/390/349 191/209/168
f 366/389/348 301/334/293 369/325/284 367/390/349
f 368/391/350 187/207/166 191/209/168 367/390/349
f 293/322/281 368/391/350 367/390/349 369/325/284
f 187/207/166 368/391/350 370/392/351 185/203/162
f 368/391/350 293/322/281 290/320/279 370/392/351
f 371/393/352 181/201/160 185/203/162 370/392/351
f 288/315/274 371/393/352 370/392/351 290/320/279
f 181/201/160 371/393/352 372/394/353 179/197/156
f 371/393/352 288/315/274 284/314/273 372/394/353
f 373/395/354 175/195/154 179/197/156 372/394/353
f 282/309/268 373/395/354 372/394/353 284/314/273
f 175/195/154 373/395/354 374/396/355 173/191/150
f 373/395/354 282/309/268 279/308/267 374/396/355
f 375/397/356 169/189/148 173/191/150 374/396/355
f 277/307/266 375/397/356 374/396/355 279/308/267
f 169/189/148 375/397/356 376/398/357 167/185/144
f 375/397/356 277/307/266 378/299/258 376/398/357
f 377/399/358 163/183/142 167/185/144 376/398/357
f 269/296/255 377/399/358 376/398/357 378/299/258
f 163/183/142 377/399/358 379/400/359 161/179/138
f 377/399/358 269/296/255 267/294/253 379/400/359
f 380/401/360 157/177/136 161/179/138 379/400/359
f 265/293/252 380/401/360 379/400/359 267/294/253
f 157/177/136 380/401/360 381/402/361 155/173/132
f 380/401/360 265/293/252 383/283/242 381/402/361
f 382/403/362 151/171/130 155/173/132 381/402/361
f 255/280/239 382/403/362 381/402/361 383/283/242
f 151/171/130 382/403/362 384/404/363 149/167/126
f 382/403/362 255/280/239 253/278/237 384/404/363
f 385/405/364 146/166/125 149/167/126 384/404/363
f 251/277/236 385/405/364 384/404/363 253/278/237
f 146/166/125 385/405/364 386/406/365 387/168/127
f 385/405/364 251/277/236 389/269/228 386/406/365
f 388/407/366 390/139/107 387/168/127 386/406/365
f 243/266/225 388/407/366 386/406/365 389/269/228
f 390/139/107 388/407/366 391/408/367 126/136/104
f 388/407/366 243/266/225 241/264/223 391/408/367
f 239/263/222 392/409/368 391/408/367 241/264/223
f 392/409/368 123/134/102 126/136/104 391/408/367
f 123/134/102 392/409/368 393/410/369 121/131/99
f 392/409/368 239/263/222 395/252/211 393/410/369
f 394/411/370 118/129/97 121/131/99 393/410/369
f 229/249/208 394/411/370 393/410/369 395/252/211
f 118/129/97 394/411/370 219/238/197 116/128/96
f 394/411/370 229/249/208 221/240/199 219/238/197
f 390/139/107 127/138/106 147/165/124 387/168/127
f 111/123/90 113/122/91 214/234/193 396/412/371
f 212/229/188 398/413/372 396/412/371 214/234/193
f 465/108/82 111/121/90 396/414/371 397/415/373
f 398/416/372 399/417/374 397/415/373 396/414/371
f 399/417/374 398/416/372 400/418/375 401/419/376
f 398/413/372 212/229/188 208/228/187 400/420/375
f 402/421/377 403/422/378 401/419/376 400/418/375
f 206/223/182 402/423/377 400/420/375 208/228/187
f 403/422/378 402/421/377 404/424/379 405/425/380
f 402/423/377 206/223/182 202/222/181 404/426/379
f 406/427/381 407/428/382 405/429/380 404/430/379
f 200/217/176 406/431/381 404/426/379 202/222/181
f 407/428/382 406/427/381 408/432/383 409/433/59
f 406/431/381 200/217/176 196/216/175 408/434/383
f 410/435/384 411/436/385 409/433/59 408/432/383
f 194/211/170 410/437/384 408/434/383 196/216/175
f 411/436/385 410/435/384 412/438/386 413/439/54
f 410/437/384 194/211/170 190/210/169 412/440/386
f 414/441/387 415/442/52 413/439/54 412/438/386
f 188/205/164 414/443/387 412/440/386 190/210/169
f 415/442/52 414/441/387 416/444/388 417/445/389
f 414/443/387 188/205/164 184/204/163 416/446/388
f 418/447/390 419/448/391 417/445/389 416/444/388
f 182/199/158 418/449/390 416/446/388 184/204/163
f 419/448/391 418/447/390 420/450/392 421/451/393
f 418/449/390 182/199/158 178/198/157 420/452/392
f 422/453/394 423/454/395 421/451/393 420/450/392
f 176/193/152 422/455/394 420/452/392 178/198/157
f 423/454/395 422/453/394 424/456/396 425/457/397
f 422/455/394 176/193/152 172/192/151 424/458/396
f 426/459/398 427/460/37 425/457/397 424/456/396
f 170/187/146 426/461/398 424/458/396 172/192/151
f 427/460/37 426/459/398 428/462/399 429/463/400
f 426/461/398 170/187/146 166/186/145 428/464/399
f 430/465/401 431/466/402 429/463/400 428/462/399
f 164/181/140 430/467/401 428/464/399 166/186/145
f 431/466/402 430/465/401 432/468/403 433/469/404
f 430/467/401 164/181/140 160/180/139 432/470/403
f 434/471/405 435/472/406 433/469/404 432/468/403
f 158/175/134 434/473/405 432/470/403 160/180/139
f 435/472/406 434/471/405 436/474/407 437/475/408
f 434/473/405 158/175/134 154/174/133 436/476/407
f 438/477/409 439/478/410 437/475/408 436/474/407
f 152/169/128 438/479/409 436/476/407 154/174/133
f 439/478/410 438/477/409 142/160/120 441/159/119
f 438/479/409 152/169/128 144/162/121 142/161/120
f 439/478/410 440/480/411 444/481/412 437/475/408
f 440/480/411 439/478/410 441/159/119 442/482/119
f 138/153/115 443/152/115 442/482/119 441/159/119
f 30/33/22 440/480/411 442/482/119 28/29/18
f 443/152/115 24/27/16 28/29/18 442/482/119
f 24/27/16 443/152/115 137/22/12 19/21/12
f 440/480/411 30/33/22 34/35/24 444/481/412
f 36/39/28 445/483/413 444/481/412 34/35/24
f 445/483/413 435/472/406 437/475/408 444/481/412
f 435/472/406 445/483/413 446/484/414 433/469/404
f 445/483/413 36/39/28 40/41/30 446/484/414
f 42/45/33 447/485/33 446/484/414 40/41/30
f 447/485/33 431/466/402 433/469/404 446/484/414
f 431/466/402 447/485/33 448/486/415 429/463/400
f 447/485/33 42/45/33 46/47/35 448/486/415
f 48/51/37 449/487/37 448/486/415 46/47/35
f 449/487/37 427/460/37 429/463/400 448/486/415
f 427/460/37 449/487/37 450/488/416 425/457/397
f 449/487/37 48/51/37 52/53/39 450/488/416
f 54/57/43 451/489/417 450/488/416 52/53/39
f 451/489/417 423/454/395 425/457/397 450/488/416
f 423/454/395 451/489/417 452/490/418 421/451/393
f 451/489/417 54/57/43 58/59/45 452/490/418
f 60/63/47 453/491/419 452/490/418 58/59/45
f 453/491/419 419/448/391 421/451/393 452/490/418
f 419/448/391 453/491/419 454/492/420 417/445/389
f 453/491/419 60/63/47 64/65/49 454/492/420
f 66/69/52 455/493/421 454/492/420 64/65/49
f 455/493/421 415/442/52 417/445/389 454/492/420
f 415/442/52 455/493/421 456/494/54 413/439/54
f 455/493/421 66/69/52 70/71/54 456/494/54
f 72/75/57 457/495/57 456/494/54 70/71/54
f 457/495/57 411/436/385 413/439/54 456/494/54
f 411/436/385 457/495/57 458/496/59 409/433/59
f 457/495/57 72/75/57 76/77/59 458/496/59
f 78/81/61 459/497/422 458/496/59 76/77/59
f 459/497/422 407/428/382 409/433/59 458/496/59
f 407/428/382 459/497/422 460/498/423 405/429/380
f 459/497/422 78/81/61 82/83/63 460/498/423
f 84/89/66 461/499/424 460/500/423 82/90/63
f 461/499/424 403/422/378 405/425/380 460/500/423
f 403/422/378 461/499/424 462/501/425 401/419/376
f 461/499/424 84/89/66 88/92/68 462/501/425
f 90/96/72 463/502/426 462/501/425 88/92/68
f 463/502/426 399/417/374 401/419/376 462/501/425
f 399/417/374 463/502/426 464/503/427 397/415/373
f 463/502/426 90/96/72 94/98/74 464/503/427
f 96/102/77 102/106/81 464/503/427 94/98/74
f 102/106/81 465/108/82 397/415/373 464/503/427
f 127/138/106 129/140/108 140/156/117 147/165/124
