# Blender 4.5.3 LTS
# www.blender.org
o Dualsense.037
v 59.976166 -16.158974 26.577560
v 59.974518 -16.290562 26.577591
v 59.170437 -16.159330 26.146393
v 60.852367 -16.158012 26.842278
v 60.850647 -16.282948 26.842278
v 61.764153 -16.156895 26.932983
v 62.676510 -16.156071 26.842140
v 61.762554 -16.274830 26.932976
v 62.675297 -16.266932 26.842125
v 61.752380 -17.026415 26.932922
v 62.667660 -16.973404 26.842003
v 61.725090 -19.045288 26.932770
v 60.839638 -17.079098 26.842300
v 60.810066 -19.217690 26.842369
v 59.964077 -17.129120 26.577744
v 59.936062 -19.381607 26.578163
v 59.160393 -17.174160 26.146851
v 59.137020 -19.530394 26.147896
v 58.456799 -17.212706 25.569237
v 59.169079 -16.296984 26.146454
v 58.462978 -16.301987 25.568604
v 58.463955 -16.159077 25.568497
v 57.884880 -16.305363 24.863716
v 57.881618 -17.243263 24.864525
v 57.885406 -16.158188 24.863594
v 57.454155 -16.307451 24.060822
v 57.454254 -16.157118 24.060692
v 57.453514 -17.265463 24.061638
v 57.190178 -16.308584 23.188881
v 57.191231 -17.278967 23.189514
v 57.189995 -16.156305 23.188789
v 57.099800 -16.308779 22.282417
v 57.099495 -16.155836 22.282356
v 57.101753 -17.283411 22.282722
v 57.189922 -16.308064 21.375923
v 57.192112 -17.278471 21.375923
v 57.189575 -16.155781 21.375923
v 57.453777 -16.306410 20.503754
v 57.453495 -16.156075 20.503792
v 57.455502 -17.264435 20.503487
v 57.884590 -16.303831 19.700256
v 57.885162 -17.241598 19.699852
v 57.884514 -16.156675 19.700317
v 58.463020 -16.300220 18.994690
v 58.463196 -16.157333 18.994759
v 58.461849 -17.210737 18.994278
v 59.169651 -16.295456 18.416359
v 59.166382 -17.172594 18.416016
v 59.170174 -16.157810 18.416405
v 59.975410 -16.289581 17.985001
v 59.976269 -16.157930 17.985039
v 59.969921 -17.128494 17.984779
v 60.851185 -16.282600 17.720413
v 60.843742 -17.079762 17.720284
v 60.852356 -16.157505 17.720428
v 61.762283 -16.274866 17.629814
v 61.763683 -16.156637 17.629822
v 61.753365 -17.028318 17.629745
v 62.674007 -16.266720 17.720428
v 62.664433 -16.976124 17.720413
v 62.675510 -16.155397 17.720428
v 63.551208 -16.258804 17.985420
v 63.552677 -16.154171 17.985413
v 63.541866 -16.925497 17.985466
v 64.358711 -16.251747 18.417953
v 64.350517 -16.878788 18.418129
v 64.359985 -16.153358 18.417923
v 65.066750 -16.246056 18.997726
v 65.067741 -16.153166 18.997665
v 65.060356 -16.837982 18.998093
v 65.645561 -16.242186 19.704475
v 65.641319 -16.805107 19.705025
v 65.646233 -16.153851 19.704384
v 66.076057 -16.240013 20.508293
v 66.076385 -16.155109 20.508186
v 66.073997 -16.781094 20.508957
v 66.339203 -16.239403 21.379288
v 66.339005 -16.766844 21.379890
v 66.339241 -16.156633 21.379181
v 66.428848 -16.239916 22.283592
v 66.428650 -16.157942 22.283531
v 66.430061 -16.762306 22.284027
v 66.338860 -16.241138 23.187386
v 66.340828 -16.767433 23.187576
v 66.338539 -16.158556 23.187347
v 66.075676 -16.243031 24.057213
v 66.075340 -16.158478 24.057220
v 66.077698 -16.781876 24.057159
v 65.645721 -16.245594 24.859634
v 65.647079 -16.805355 24.859406
v 65.645515 -16.157747 24.859665
v 65.067741 -16.249081 25.565186
v 65.067741 -16.156794 25.565239
v 65.067734 -16.837208 25.564888
v 64.360435 -16.253807 26.144424
v 64.358452 -16.876778 26.144150
v 64.360741 -16.156038 26.144463
v 63.553169 -16.259758 26.576889
v 63.553890 -16.155725 26.576920
v 63.548630 -16.922653 26.576691
v 63.536419 -18.703291 26.576180
v 64.353096 -18.550177 26.143425
v 63.524223 -20.179298 26.575668
v 62.647141 -18.871071 26.841667
v 62.626621 -20.464117 26.841339
v 61.697765 -20.759527 26.932640
v 62.598244 -21.333294 26.841209
v 61.666721 -21.614601 26.932579
v 62.588699 -21.427856 26.814552
v 63.500359 -21.062178 26.575462
v 64.328873 -20.814432 26.142410
v 63.487572 -21.153542 26.550903
v 64.312401 -20.903046 26.121643
v 63.461884 -21.220034 26.477303
v 64.274643 -20.973818 26.059372
v 63.412956 -21.311188 26.312401
v 62.573944 -21.490389 26.734589
v 62.550259 -21.570221 26.552521
v 61.655968 -21.771336 26.823357
v 61.660347 -21.712584 26.905273
v 61.657875 -21.839478 26.635536
v 60.752831 -22.049253 26.735771
v 60.780037 -22.105688 26.552910
v 60.746777 -21.994287 26.815781
v 59.897964 -22.313425 26.480476
v 59.949936 -22.358538 26.314171
v 59.124596 -22.553125 26.066154
v 59.880962 -22.262232 26.554192
v 59.095684 -22.505743 26.128578
v 59.880241 -22.157671 26.578743
v 59.090797 -22.398432 26.149345
v 59.908035 -21.329456 26.578590
v 60.749767 -21.892902 26.842445
v 60.780499 -21.051628 26.842422
v 59.113647 -21.581989 26.148956
v 58.423550 -21.800770 25.572655
v 58.440182 -19.659056 25.570953
v 57.864010 -21.977314 24.868835
v 58.406857 -22.607023 25.573303
v 58.416248 -22.716520 25.557106
v 57.853737 -22.775364 24.869629
v 57.445408 -22.899580 24.066864
v 57.867855 -22.886240 24.857910
v 57.463497 -23.011312 24.059410
v 57.922577 -22.925158 24.822510
v 58.056946 -22.936934 24.745544
v 58.457802 -22.759846 25.508316
v 57.529263 -23.046488 24.036812
v 57.692253 -23.047869 23.985489
v 57.288307 -23.121220 23.179344
v 57.467892 -23.116524 23.154610
v 57.216251 -23.088219 23.189995
v 57.207848 -23.146988 22.285927
v 57.133862 -23.114656 22.285065
v 57.392727 -23.140343 22.288177
v 57.296230 -23.121429 21.392349
v 57.475609 -23.116768 21.421425
v 57.224224 -23.088411 21.380020
v 57.546047 -23.046574 20.534004
v 57.480419 -23.011387 20.509850
v 57.708611 -23.048016 20.589363
v 57.950115 -22.924488 19.746277
v 58.083801 -22.936371 19.826958
v 57.895657 -22.885521 19.709534
v 58.494255 -22.758947 19.058151
v 58.453087 -22.715630 19.008209
v 58.595676 -22.782793 19.166374
v 59.164337 -22.553795 18.498611
v 59.238792 -22.588322 18.639793
v 59.135902 -22.506498 18.435020
v 59.934475 -22.317284 18.083313
v 59.917942 -22.266270 18.008347
v 59.984615 -22.362207 18.253845
v 60.778664 -22.057707 17.827957
v 60.804501 -22.113689 18.015205
v 60.772930 -22.003008 17.746574
v 61.663971 -21.785439 17.740471
v 61.668507 -21.727001 17.657127
v 61.665352 -21.852901 17.932693
v 62.557270 -21.510838 17.828827
v 62.533905 -21.589926 18.015144
v 62.572121 -21.448502 17.747414
v 63.423172 -21.245026 18.085846
v 63.448853 -21.178581 18.010765
v 63.375263 -21.335480 18.254723
v 64.226006 -20.999153 18.504364
v 64.154411 -21.100374 18.643623
v 64.263603 -20.928303 18.440567
v 64.933380 -20.782719 19.067398
v 64.983948 -20.707470 19.017174
v 64.835007 -20.894897 19.173836
v 65.512764 -20.605282 19.757996
v 65.380608 -20.729338 19.837341
v 65.577370 -20.525934 19.720955
v 65.946304 -20.472475 20.545830
v 66.022903 -20.389908 20.521400
v 65.783249 -20.606779 20.600418
v 66.216080 -20.389942 21.400581
v 66.034874 -20.530243 21.429352
v 66.299583 -20.305578 21.388016
v 66.314026 -20.359715 22.288200
v 66.399704 -20.274845 22.287186
v 66.126778 -20.501961 22.290581
v 66.231987 -20.383865 23.174667
v 66.050140 -20.524164 23.150581
v 66.315567 -20.299641 23.185272
v 65.976707 -20.460421 24.026649
v 66.053482 -20.378080 24.049278
v 65.812401 -20.594751 23.976448
v 65.554916 -20.587431 24.810829
v 65.421082 -20.711679 24.735313
v 65.619789 -20.508324 24.846191
v 64.982315 -20.760136 25.498100
v 65.033157 -20.685085 25.546722
v 64.882095 -20.872732 25.395081
v 64.692345 -21.021059 25.194473
v 64.201469 -21.075619 25.923683
v 64.065598 -21.204372 25.653389
v 63.324131 -21.421452 25.977966
v 63.929714 -21.332251 25.383095
v 64.502586 -21.168509 24.993866
v 63.777309 -21.452364 25.072006
v 63.235302 -21.530842 25.643532
v 62.474739 -21.749140 25.807251
v 63.148163 -21.628124 25.262726
v 63.090176 -21.720675 24.820679
v 62.442013 -21.826145 25.387192
v 61.702816 -22.033920 25.432793
v 62.421604 -21.906403 24.907219
v 62.419300 -21.963869 24.315147
v 61.717300 -22.101068 24.941696
v 61.731514 -22.152895 24.336319
v 61.021992 -22.293539 24.909729
v 61.051544 -22.340038 24.317116
v 60.372036 -22.472349 24.826309
v 60.974281 -22.238840 25.386894
v 60.912441 -22.198771 25.804306
v 60.292271 -22.431196 25.263435
v 59.692467 -22.601244 25.076378
v 60.181000 -22.410000 25.639565
v 60.065464 -22.384705 25.976868
v 59.524010 -22.600748 25.381874
v 59.362328 -22.594627 25.655357
v 58.988579 -22.756678 24.996162
v 58.774437 -22.770559 25.199928
v 58.621815 -22.863441 24.447357
v 59.223152 -22.734673 24.771385
v 59.433372 -22.713875 24.569466
v 58.932568 -22.817148 24.294136
v 58.761219 -22.865896 23.693336
v 59.306801 -22.764776 24.198990
v 59.809147 -22.658875 24.211456
v 59.200279 -22.798826 23.634766
v 59.765266 -22.688911 23.626480
v 59.126484 -22.821375 22.992439
v 59.728603 -22.705519 22.986412
v 59.099400 -22.829847 22.309937
v 58.649727 -22.898109 23.017677
v 58.232986 -22.977289 23.057892
v 58.610741 -22.910141 22.303772
v 58.181633 -22.993181 22.298210
v 58.656857 -22.898348 21.588211
v 58.240131 -22.977573 21.537392
v 58.776031 -22.866236 20.909363
v 59.133060 -22.821737 21.625175
v 59.733425 -22.706285 21.645210
v 59.213833 -22.799440 20.978508
v 59.775360 -22.690327 20.998726
v 59.328106 -22.765411 20.410271
v 59.825459 -22.660715 20.406456
v 59.458317 -22.714798 20.036110
v 58.956215 -22.817305 20.305588
v 58.646538 -22.863422 20.142464
v 59.252380 -22.735064 19.826736
v 59.020161 -22.756742 19.591614
v 59.719685 -22.603073 19.522690
v 59.555298 -22.602213 19.206146
v 60.313290 -22.435179 19.337334
v 59.826115 -22.628096 19.902931
v 60.387966 -22.476234 19.786293
v 60.413670 -22.516188 20.353897
v 61.032246 -22.299231 19.704613
v 61.058022 -22.344732 20.312332
v 61.719746 -22.109205 19.672394
v 60.988358 -22.245274 19.214607
v 60.930317 -22.205782 18.785385
v 61.706619 -22.043583 19.168045
v 61.692493 -21.986706 18.725136
v 62.429665 -21.840353 19.211166
v 62.460686 -21.765501 18.780312
v 63.121212 -21.645901 19.331970
v 62.411171 -21.918201 19.704170
v 62.410866 -21.973116 20.313942
v 63.067963 -21.735479 19.786140
v 63.065243 -21.787756 20.357376
v 63.651508 -21.570307 19.904503
v 63.667595 -21.605072 20.412338
v 64.035904 -21.441885 20.038795
v 63.744865 -21.470560 19.518440
v 63.891537 -21.353123 19.199074
v 64.243607 -21.329725 19.825859
v 64.465134 -21.187254 19.588371
v 64.560379 -21.238810 20.309502
v 64.866600 -21.069979 20.144516
v 64.753731 -21.182262 20.916512
v 64.178947 -21.422842 20.416992
v 64.302895 -21.390812 20.987259
v 63.730976 -21.603548 21.006210
v 64.390152 -21.366449 21.631523
v 63.779613 -21.594473 21.650421
v 64.426773 -21.354937 22.312141
v 64.882347 -21.144596 21.594009
v 65.305931 -20.940565 21.542664
v 64.932999 -21.129177 22.306152
v 65.370872 -20.920959 22.300613
v 64.892517 -21.139351 23.017105
v 65.317772 -20.935015 23.057289
v 64.773132 -21.172253 23.689949
v 64.398857 -21.361490 22.991493
v 63.787228 -21.589779 22.985901
v 64.319504 -21.381462 23.630363
v 63.745682 -21.594616 23.623375
v 64.201843 -21.410217 24.189545
v 63.688419 -21.592722 24.203583
v 64.062965 -21.427071 24.559647
v 64.587250 -21.225048 24.287819
v 64.898415 -21.054720 24.443810
v 64.275139 -21.313236 24.764038
v 65.159744 -20.883636 24.589561
v 65.156845 -20.980389 23.781944
v 65.484619 -20.788008 23.879196
v 65.683952 -20.730024 23.103935
v 65.748825 -20.711897 22.295601
v 65.670410 -20.735838 21.486008
v 65.458679 -20.799404 20.707123
v 65.123611 -20.900095 19.990921
v 65.134117 -20.991152 20.813835
v 64.650063 -21.041510 19.381104
v 64.022972 -21.227182 18.921349
v 63.289650 -21.443823 18.598091
v 62.497299 -21.678150 18.397720
v 63.204033 -21.551294 18.941460
v 61.678917 -21.920242 18.328918
v 60.867409 -22.160173 18.400291
v 60.095814 -22.388489 18.601707
v 59.397049 -22.595701 18.922966
v 60.207024 -22.413900 18.949562
v 58.807919 -22.770201 19.378998
v 58.365170 -22.900333 19.984711
v 58.053528 -22.991108 20.698662
v 57.857868 -23.047606 21.479408
v 58.398445 -22.933325 20.807961
v 57.787182 -23.067200 22.293190
v 57.850441 -23.047344 23.106247
v 58.037785 -22.990877 23.885147
v 58.339378 -22.900627 24.596451
v 58.383320 -22.933004 23.784813
v 63.678040 -21.555000 24.696480
v 63.082432 -21.776100 24.266563
v 63.098652 -21.803139 23.642662
v 63.112549 -21.810526 22.991264
v 62.425224 -21.998444 23.661942
v 62.429554 -22.009977 22.998566
v 61.742050 -22.186247 23.671654
v 61.745544 -22.197989 23.002663
v 61.065872 -22.372334 23.662270
v 61.067902 -22.384432 22.998421
v 60.404411 -22.544081 23.643852
v 60.395878 -22.557531 22.991203
v 60.402935 -22.512848 24.270996
v 60.389805 -22.560135 22.324028
v 60.398628 -22.558844 21.653313
v 59.713295 -22.710655 22.317307
v 61.066181 -22.385874 22.328255
v 61.745457 -22.199085 22.329857
v 61.069275 -22.386225 21.654480
v 61.745255 -22.200399 21.653748
v 61.069202 -22.375746 20.981171
v 61.741932 -22.190863 20.975105
v 60.410545 -22.546556 20.992226
v 61.732479 -22.159388 20.294708
v 62.419151 -22.004892 20.983559
v 63.086845 -21.811308 20.997070
v 62.426388 -22.013308 21.656105
v 63.106537 -21.814735 21.656631
v 62.430538 -22.010841 22.328720
v 63.117413 -21.810366 22.325035
v 63.802166 -21.586870 22.318970
v 59.803703 -22.626102 24.706398
v 58.560291 -22.783567 25.403687
v 59.200642 -22.587629 25.928833
v 60.846237 -22.152668 26.178612
v 61.672630 -21.907990 26.249863
v 62.512493 -21.660116 26.179893
v 61.687382 -21.975626 25.864189
v 65.053711 -20.598660 25.562965
v 65.067673 -19.692142 25.563271
v 65.644753 -20.423510 24.857994
v 65.654350 -19.507954 24.858208
v 66.082298 -20.294369 24.056824
v 66.088684 -19.372074 24.056877
v 66.346634 -20.216604 23.188782
v 66.351418 -19.290173 23.188591
v 66.431534 -20.192017 22.286789
v 66.436546 -19.264126 22.286362
v 66.330864 -20.222401 21.383766
v 66.337982 -19.295797 21.383163
v 66.052101 -20.305910 20.513191
v 66.062927 -19.383289 20.512535
v 65.602867 -20.440744 19.708557
v 65.618584 -19.524668 19.707993
v 65.005074 -20.620623 19.000389
v 65.026062 -19.713366 19.000031
v 64.280670 -20.839268 18.419289
v 64.306519 -19.942766 18.419106
v 63.462151 -21.086891 17.985741
v 63.491611 -20.202608 17.985703
v 62.581875 -21.353731 17.720276
v 62.613018 -20.482624 17.720299
v 61.674793 -21.628910 17.629356
v 61.705452 -20.771439 17.629425
v 60.775677 -21.901587 17.719475
v 60.803688 -21.057667 17.719589
v 59.916882 -22.161709 17.983383
v 59.940506 -21.330769 17.983604
v 59.130630 -22.399181 18.413849
v 59.148773 -21.580229 18.414192
v 58.443298 -22.606113 18.991600
v 58.455612 -21.797718 18.992027
v 57.881248 -22.774612 19.697327
v 57.888165 -21.974941 19.697723
v 57.462143 -22.899626 20.501823
v 57.464794 -22.106541 20.502083
v 57.203747 -22.976068 21.375908
v 57.203865 -22.187153 21.375908
v 57.112720 -23.002115 22.284744
v 57.112293 -22.214817 22.284424
v 57.195862 -22.975889 23.193474
v 57.196953 -22.187506 23.192848
v 57.194092 -19.885563 23.191177
v 57.450104 -22.107576 24.066040
v 57.451813 -19.838840 24.063843
v 57.872807 -19.762608 24.866684
v 57.107021 -19.901430 22.283577
v 57.197998 -19.885132 21.375916
v 57.460144 -19.837805 20.502785
v 57.886654 -19.760580 19.698776
v 58.458729 -19.656548 18.993149
v 59.157578 -19.528725 18.415100
v 59.955212 -19.381948 17.984192
v 60.823708 -19.221031 17.719940
v 61.729408 -19.052191 17.629593
v 62.638729 -18.881702 17.720352
v 63.516735 -18.716377 17.985588
v 64.328529 -18.563097 18.418617
v 65.043221 -18.427992 18.999069
v 65.629951 -18.317213 19.706512
v 66.068466 -18.234501 20.510742
v 66.338493 -18.183643 21.381523
v 66.433296 -18.165533 22.285194
v 66.346115 -18.181120 23.188080
v 66.083176 -18.229296 24.057022
v 65.650711 -18.308975 24.858810
v 65.067688 -18.416986 25.564079
v 64.347755 -19.918941 26.142700
vn -0.2290 0.0031 0.9734
vn -0.2848 0.0025 0.9586
vn -0.3631 0.0046 0.9317
vn -0.3633 0.0046 0.9317
vn -0.5122 0.0056 0.8588
vn -0.5125 0.0061 0.8587
vn 0.0306 -0.0004 0.9995
vn 0.0938 -0.0012 0.9956
vn 0.1703 -0.0019 0.9854
vn 0.1704 -0.0021 0.9854
vn 0.1698 -0.0019 0.9855
vn -0.0015 -0.0000 1.0000
vn -0.1988 0.0027 0.9800
vn 0.1593 -0.0019 0.9872
vn -0.0016 -0.0000 1.0000
vn -0.1991 0.0029 0.9800
vn -0.3638 0.0046 0.9314
vn -0.3552 0.0048 0.9348
vn -0.5310 0.0056 0.8473
vn -0.5523 0.0060 0.8336
vn -0.7105 0.0051 0.7037
vn -0.7135 0.0055 0.7007
vn -0.7081 0.0051 0.7061
vn -0.7078 0.0052 0.7064
vn -0.8317 0.0034 0.5552
vn -0.8320 0.0034 0.5547
vn -0.8344 0.0033 0.5512
vn -0.9241 0.0011 0.3821
vn -0.9256 0.0011 0.3786
vn -0.9239 0.0011 0.3825
vn -0.9808 -0.0008 0.1948
vn -0.9809 -0.0008 0.1946
vn -0.9813 -0.0008 0.1923
vn -0.9977 -0.0020 -0.0681
vn -0.9986 -0.0020 -0.0530
vn -0.9977 -0.0018 -0.0680
vn -0.9808 -0.0021 -0.1951
vn -0.9809 -0.0020 -0.1947
vn -0.9809 -0.0020 -0.1945
vn -0.9479 -0.0016 -0.3186
vn -0.9432 -0.0022 -0.3323
vn -0.9478 -0.0018 -0.3187
vn -0.8318 -0.0002 -0.5551
vn -0.8321 -0.0002 -0.5547
vn -0.8332 -0.0002 -0.5529
vn -0.7082 0.0012 -0.7060
vn -0.7098 0.0012 -0.7044
vn -0.7079 0.0012 -0.7063
vn -0.5568 0.0023 -0.8307
vn -0.5571 0.0023 -0.8305
vn -0.5588 0.0023 -0.8293
vn -0.3345 0.0026 -0.9424
vn -0.3548 0.0026 -0.9349
vn -0.3343 0.0026 -0.9425
vn -0.2822 0.0024 -0.9593
vn -0.2084 0.0019 -0.9780
vn -0.1772 0.0017 -0.9842
vn 0.0305 -0.0004 -0.9995
vn -0.0016 -0.0000 -1.0000
vn 0.0937 0.0001 -0.9956
vn 0.1920 -0.0026 -0.9814
vn 0.1923 -0.0026 -0.9813
vn 0.3797 -0.0053 -0.9251
vn 0.5349 -0.0071 -0.8449
vn 0.5348 -0.0071 -0.8449
vn 0.5344 -0.0071 -0.8452
vn 0.6667 -0.0082 -0.7453
vn 0.6803 -0.0079 -0.7329
vn 0.6669 -0.0079 -0.7451
vn 0.8303 -0.0067 -0.5573
vn 0.8301 -0.0067 -0.5576
vn 0.8286 -0.0066 -0.5598
vn 0.9231 -0.0041 -0.3846
vn 0.9219 -0.0040 -0.3874
vn 0.9233 -0.0041 -0.3840
vn 0.9807 -0.0008 -0.1956
vn 0.9806 -0.0008 -0.1962
vn 0.9800 -0.0008 -0.1988
vn 0.9986 0.0026 0.0532
vn 0.9995 0.0024 0.0315
vn 0.9986 0.0020 0.0535
vn 0.9943 0.0032 0.1068
vn 0.9830 0.0035 0.1838
vn 0.9766 0.0034 0.2150
vn 0.9182 0.0031 0.3960
vn 0.9306 0.0034 0.3661
vn 0.8850 0.0033 0.4656
vn 0.8586 0.0022 0.5127
vn 0.8584 0.0018 0.5129
vn 0.8472 0.0019 0.5313
vn 0.7049 -0.0004 0.7093
vn 0.7035 -0.0004 0.7107
vn 0.7052 -0.0004 0.7090
vn 0.5531 -0.0020 0.8331
vn 0.5528 -0.0021 0.8333
vn 0.5512 -0.0021 0.8344
vn 0.3304 -0.0028 0.9438
vn 0.3478 -0.0028 0.9376
vn 0.3306 -0.0028 0.9438
vn 0.5492 -0.0023 0.8357
vn 0.3668 -0.0030 0.9303
vn 0.5486 -0.0061 0.8360
vn 0.3762 -0.0058 0.9265
vn 0.1578 -0.0030 0.9875
vn -0.0010 -0.0000 1.0000
vn 0.2020 -0.0347 0.9788
vn 0.3851 -0.0376 0.9221
vn 0.0099 -0.0288 0.9995
vn 0.3185 -0.5621 0.7633
vn 0.1737 -0.5679 0.8046
vn 0.4489 -0.5453 0.7079
vn 0.5551 -0.0378 0.8309
vn 0.5688 -0.5247 0.6334
vn 0.4892 -0.7761 0.3981
vn 0.4095 -0.8132 0.4135
vn 0.3365 -0.8456 0.4144
vn 0.4243 -0.8643 0.2701
vn 0.3657 -0.8927 0.2634
vn 0.3197 -0.9144 0.2482
vn 0.2671 -0.8713 0.4116
vn 0.2810 -0.9309 0.2335
vn 0.0081 -0.5599 0.8285
vn 0.1954 -0.8919 0.4079
vn 0.2453 -0.9440 0.2205
vn 0.1156 -0.9077 0.4034
vn 0.2091 -0.9551 0.2098
vn -0.1789 -0.5362 0.8249
vn 0.0237 -0.9209 0.3890
vn 0.1680 -0.9661 0.1961
vn -0.3755 -0.5026 0.7787
vn -0.5605 -0.0079 0.8281
vn -0.3810 -0.0133 0.9245
vn -0.1875 -0.0210 0.9820
vn -0.5635 0.0092 0.8261
vn -0.3525 0.0066 0.9358
vn -0.1987 0.0037 0.9801
vn -0.7167 0.0084 0.6973
vn -0.7163 -0.0068 0.6977
vn -0.8370 0.0036 0.5471
vn -0.8400 0.0058 0.5426
vn -0.8407 -0.0102 0.5415
vn -0.5550 -0.4807 0.6788
vn -0.6908 -0.4872 0.5343
vn -0.9288 0.0025 0.3705
vn -0.9293 -0.0159 0.3689
vn -0.7771 -0.5128 0.3650
vn -0.1066 -0.9615 0.2531
vn -0.1121 -0.9809 0.1591
vn -0.0620 -0.9383 0.3403
vn 0.1171 -0.9869 0.1110
vn 0.1233 -0.9902 0.0652
vn 0.1303 -0.9780 0.1628
vn -0.8242 -0.5356 0.1840
vn -0.1072 -0.9913 0.0760
vn 0.1303 -0.9910 0.0306
vn -0.1045 -0.9945 0.0006
vn 0.1329 -0.9911 0.0010
vn -0.8387 -0.5446 -0.0036
vn -0.8213 -0.5375 -0.1913
vn -0.1055 -0.9915 -0.0767
vn 0.1309 -0.9910 -0.0291
vn -0.1087 -0.9812 -0.1594
vn 0.1244 -0.9902 -0.0636
vn -0.7714 -0.5163 -0.3720
vn -0.6839 -0.4919 -0.5388
vn -0.1019 -0.9623 -0.2522
vn 0.1187 -0.9870 -0.1087
vn -0.0582 -0.9402 -0.3355
vn 0.1320 -0.9785 -0.1583
vn -0.5505 -0.4861 -0.6788
vn -0.3746 -0.5084 -0.7754
vn 0.0261 -0.9241 -0.3813
vn 0.1693 -0.9672 -0.1895
vn 0.1171 -0.9116 -0.3940
vn 0.2100 -0.9566 -0.2018
vn -0.1795 -0.5427 -0.8206
vn 0.0080 -0.5668 -0.8238
vn 0.1967 -0.8962 -0.3976
vn 0.2460 -0.9459 -0.2117
vn 0.2688 -0.8756 -0.4013
vn 0.2818 -0.9329 -0.2244
vn 0.1760 -0.5746 -0.7993
vn 0.3237 -0.5682 -0.7566
vn 0.3392 -0.8493 -0.4045
vn 0.3210 -0.9163 -0.2394
vn 0.4123 -0.8162 -0.4047
vn 0.3672 -0.8944 -0.2555
vn 0.4545 -0.5507 -0.7001
vn 0.5716 -0.5298 -0.6265
vn 0.4907 -0.7784 -0.3914
vn 0.4252 -0.8657 -0.2641
vn 0.5644 -0.7505 -0.3438
vn 0.4869 -0.8401 -0.2391
vn 0.6717 -0.5204 -0.5272
vn 0.7455 -0.5305 -0.4035
vn 0.6122 -0.7463 -0.2614
vn 0.5231 -0.8336 -0.1772
vn 0.6322 -0.7559 -0.1703
vn 0.5313 -0.8398 -0.1115
vn 0.7900 -0.5506 -0.2697
vn 0.8130 -0.5659 -0.1367
vn 0.6394 -0.7641 -0.0849
vn 0.5316 -0.8452 -0.0548
vn 0.6418 -0.7669 -0.0030
vn 0.5317 -0.8470 -0.0016
vn 0.8210 -0.5709 -0.0053
vn 0.8153 -0.5649 0.1272
vn 0.6401 -0.7641 0.0794
vn 0.5317 -0.8453 0.0519
vn 0.6332 -0.7558 0.1667
vn 0.5315 -0.8399 0.1098
vn 0.7935 -0.5484 0.2638
vn 0.7484 -0.5271 0.4025
vn 0.6131 -0.7456 0.2610
vn 0.5232 -0.8335 0.1776
vn 0.5643 -0.7490 0.3472
vn 0.4866 -0.8393 0.2424
vn 0.6723 -0.5159 0.5309
vn 0.4498 -0.8708 0.1986
vn 0.3901 -0.8933 0.2231
vn 0.4845 -0.8638 0.1384
vn 0.3412 -0.9158 0.2119
vn 0.3224 -0.9271 0.1912
vn 0.3655 -0.9083 0.2035
vn 0.4265 -0.8871 0.1762
vn 0.3372 -0.9258 0.1711
vn 0.3941 -0.9081 0.1418
vn 0.3029 -0.9389 0.1637
vn 0.3070 -0.9317 0.1943
vn 0.2955 -0.9396 0.1729
vn 0.2843 -0.9469 0.1499
vn 0.3170 -0.9409 0.1193
vn 0.2896 -0.9495 0.1209
vn 0.2761 -0.9540 0.1170
vn 0.2736 -0.9487 0.1586
vn 0.2688 -0.9530 0.1399
vn 0.2657 -0.9575 0.1126
vn 0.2721 -0.9597 0.0706
vn 0.2865 -0.9558 0.0663
vn 0.2650 -0.9617 0.0707
vn 0.2578 -0.9637 0.0688
vn 0.2556 -0.9605 0.1096
vn 0.2543 -0.9579 0.1336
vn 0.2428 -0.9680 0.0629
vn 0.2433 -0.9642 0.1056
vn 0.2400 -0.9620 0.1306
vn 0.2545 -0.9557 0.1478
vn 0.2366 -0.9614 0.1406
vn 0.2183 -0.9680 0.1237
vn 0.2224 -0.9701 0.0971
vn 0.2120 -0.9684 0.1313
vn 0.2320 -0.9603 0.1552
vn 0.2553 -0.9525 0.1657
vn 0.2045 -0.9684 0.1428
vn 0.1815 -0.9781 0.1018
vn 0.1763 -0.9778 0.1133
vn 0.1835 -0.9785 0.0943
vn 0.1670 -0.9833 0.0717
vn 0.1698 -0.9837 0.0593
vn 0.1649 -0.9850 0.0508
vn 0.1883 -0.9784 0.0852
vn 0.1805 -0.9825 0.0459
vn 0.1766 -0.9838 0.0317
vn 0.1670 -0.9856 0.0264
vn 0.1761 -0.9841 0.0228
vn 0.2190 -0.9744 0.0510
vn 0.2092 -0.9776 0.0242
vn 0.1759 -0.9843 0.0104
vn 0.2072 -0.9783 0.0071
vn 0.1723 -0.9850 0.0128
vn 0.1767 -0.9843 0.0011
vn 0.2083 -0.9781 0.0013
vn 0.1743 -0.9847 0.0010
vn 0.1836 -0.9829 0.0149
vn 0.1856 -0.9826 0.0011
vn 0.1835 -0.9829 -0.0132
vn 0.1724 -0.9850 -0.0106
vn 0.1760 -0.9844 -0.0081
vn 0.1769 -0.9838 -0.0294
vn 0.1671 -0.9856 -0.0241
vn 0.1763 -0.9841 -0.0203
vn 0.2071 -0.9783 -0.0045
vn 0.2093 -0.9776 -0.0211
vn 0.1808 -0.9826 -0.0430
vn 0.2196 -0.9744 -0.0472
vn 0.1653 -0.9851 -0.0482
vn 0.1891 -0.9786 -0.0812
vn 0.2235 -0.9703 -0.0924
vn 0.1843 -0.9787 -0.0901
vn 0.1702 -0.9838 -0.0569
vn 0.1822 -0.9784 -0.0981
vn 0.2130 -0.9689 -0.1258
vn 0.2195 -0.9684 -0.1183
vn 0.2373 -0.9622 -0.1340
vn 0.2409 -0.9626 -0.1243
vn 0.2442 -0.9645 -0.1001
vn 0.2435 -0.9681 -0.0584
vn 0.2592 -0.9639 -0.0609
vn 0.2559 -0.9611 -0.1037
vn 0.2546 -0.9587 -0.1267
vn 0.2647 -0.9625 -0.0597
vn 0.2654 -0.9583 -0.1062
vn 0.2687 -0.9540 -0.1327
vn 0.2549 -0.9567 -0.1404
vn 0.2737 -0.9499 -0.1509
vn 0.2956 -0.9409 -0.1655
vn 0.2842 -0.9481 -0.1429
vn 0.2755 -0.9549 -0.1106
vn 0.3225 -0.9285 -0.1842
vn 0.3024 -0.9402 -0.1568
vn 0.2889 -0.9505 -0.1147
vn 0.2703 -0.9608 -0.0621
vn 0.2860 -0.9562 -0.0617
vn 0.3151 -0.9476 -0.0528
vn 0.3164 -0.9418 -0.1139
vn 0.3366 -0.9270 -0.1652
vn 0.3741 -0.9257 -0.0555
vn 0.3644 -0.9251 -0.1069
vn 0.3941 -0.9087 -0.1381
vn 0.3656 -0.9095 -0.1978
vn 0.4268 -0.8877 -0.1727
vn 0.4630 -0.8793 -0.1118
vn 0.4268 -0.9009 -0.0788
vn 0.4643 -0.8833 -0.0641
vn 0.4269 -0.9033 -0.0415
vn 0.3781 -0.9254 -0.0260
vn 0.3242 -0.9457 -0.0220
vn 0.3776 -0.9259 -0.0111
vn 0.3249 -0.9458 -0.0048
vn 0.4215 -0.9066 -0.0199
vn 0.3768 -0.9263 0.0009
vn 0.3229 -0.9464 0.0015
vn 0.4194 -0.9078 0.0003
vn 0.4595 -0.8877 -0.0311
vn 0.4577 -0.8891 -0.0003
vn 0.4592 -0.8878 0.0306
vn 0.4211 -0.9068 0.0205
vn 0.3775 -0.9259 0.0130
vn 0.4639 -0.8836 0.0639
vn 0.4264 -0.9036 0.0422
vn 0.3778 -0.9255 0.0278
vn 0.3248 -0.9457 0.0076
vn 0.3242 -0.9457 0.0248
vn 0.3741 -0.9256 0.0579
vn 0.3154 -0.9473 0.0564
vn 0.4263 -0.9010 0.0805
vn 0.3647 -0.9245 0.1108
vn 0.4626 -0.8794 0.1130
vn 0.4890 -0.8684 0.0826
vn 0.4869 -0.8726 0.0394
vn 0.4863 -0.8738 -0.0009
vn 0.4870 -0.8724 -0.0410
vn 0.4892 -0.8682 -0.0834
vn 0.4848 -0.8637 -0.1375
vn 0.4501 -0.8714 -0.1953
vn 0.3906 -0.8945 -0.2174
vn 0.3420 -0.9171 -0.2048
vn 0.3079 -0.9330 -0.1865
vn 0.2798 -0.9448 -0.1707
vn 0.2551 -0.9540 -0.1577
vn 0.2326 -0.9612 -0.1482
vn 0.2054 -0.9690 -0.1371
vn 0.1772 -0.9781 -0.1095
vn 0.1677 -0.9834 -0.0693
vn 0.1738 -0.9840 -0.0382
vn 0.1799 -0.9835 -0.0168
vn 0.1818 -0.9833 0.0010
vn 0.1796 -0.9836 0.0193
vn 0.1734 -0.9840 0.0402
vn 0.2916 -0.9560 0.0310
vn 0.2706 -0.9622 0.0315
vn 0.2981 -0.9545 0.0077
vn 0.2688 -0.9632 0.0078
vn 0.2651 -0.9642 0.0070
vn 0.2651 -0.9638 0.0298
vn 0.2601 -0.9656 0.0070
vn 0.2594 -0.9653 0.0314
vn 0.2337 -0.9723 0.0065
vn 0.2372 -0.9710 0.0308
vn 0.2334 -0.9724 0.0014
vn 0.2600 -0.9656 0.0016
vn 0.2337 -0.9723 -0.0037
vn 0.2600 -0.9656 -0.0037
vn 0.2651 -0.9642 0.0017
vn 0.2650 -0.9642 -0.0038
vn 0.2602 -0.9651 -0.0313
vn 0.2648 -0.9638 -0.0319
vn 0.2374 -0.9710 -0.0275
vn 0.2696 -0.9625 -0.0312
vn 0.2687 -0.9632 -0.0043
vn 0.2979 -0.9546 -0.0045
vn 0.2913 -0.9562 -0.0274
vn 0.3005 -0.9538 0.0016
vn 0.2680 -0.9634 0.0017
vn 0.2793 -0.9434 0.1788
vn 0.7051 -0.0366 0.7082
vn 0.8298 -0.0357 0.5570
vn 0.7009 -0.0049 0.7133
vn 0.8273 -0.0028 0.5617
vn 0.9234 -0.0354 0.3823
vn 0.9346 0.0009 0.3556
vn 0.9809 -0.0358 0.1909
vn 0.9743 0.0014 0.2253
vn 0.9993 -0.0368 -0.0078
vn 1.0000 -0.0013 -0.0069
vn 0.9780 -0.0384 -0.2051
vn 0.9786 -0.0042 -0.2057
vn 0.9192 -0.0401 -0.3917
vn 0.9191 -0.0078 -0.3940
vn 0.8270 -0.0414 -0.5607
vn 0.8253 -0.0109 -0.5646
vn 0.7056 -0.0422 -0.7074
vn 0.7016 -0.0124 -0.7125
vn 0.5592 -0.0422 -0.8280
vn 0.5243 -0.0103 -0.8515
vn 0.3916 -0.0403 -0.9193
vn 0.3809 -0.0075 -0.9246
vn 0.2064 -0.0358 -0.9778
vn 0.1939 -0.0037 -0.9810
vn 0.0098 -0.0293 -0.9995
vn -0.0011 -0.0000 -1.0000
vn -0.1902 -0.0218 -0.9815
vn -0.1646 0.0028 -0.9864
vn -0.3837 -0.0153 -0.9233
vn -0.3895 0.0054 -0.9210
vn -0.5608 -0.0112 -0.8279
vn -0.5635 0.0055 -0.8261
vn -0.7134 -0.0109 -0.7007
vn -0.7143 0.0040 -0.6998
vn -0.8361 -0.0140 -0.5484
vn -0.8364 0.0019 -0.5482
vn -0.9258 -0.0187 -0.3776
vn -0.9391 -0.0010 -0.3435
vn -0.9807 -0.0222 -0.1943
vn -0.9810 -0.0018 -0.1939
vn -0.9997 -0.0232 -0.0043
vn -0.9992 -0.0019 -0.0398
vn -0.9824 -0.0209 0.1858
vn -0.9823 -0.0001 0.1871
vn -0.9818 -0.0008 0.1899
vn -0.9991 -0.0021 -0.0435
vn -0.9270 0.0012 0.3751
vn -0.9809 -0.0022 -0.1946
vn -0.9402 -0.0017 -0.3406
vn -0.8347 -0.0002 -0.5507
vn -0.7119 0.0013 -0.7023
vn -0.5610 0.0025 -0.8278
vn -0.3781 0.0028 -0.9258
vn -0.1677 0.0018 -0.9858
vn 0.1927 -0.0028 -0.9812
vn 0.3798 -0.0058 -0.9251
vn 0.5249 -0.0077 -0.8511
vn 0.6949 -0.0085 -0.7190
vn 0.8269 -0.0074 -0.5624
vn 0.9205 -0.0045 -0.3906
vn 0.9794 -0.0009 -0.2017
vn 1.0000 0.0023 0.0069
vn 0.9741 0.0039 0.2260
vn 0.9346 0.0037 0.3557
vn 0.8339 0.0019 0.5520
vn 0.7016 -0.0005 0.7126
vt 0.720438 0.407927
vt 0.720436 0.407566
vt 0.723086 0.407587
vt 0.723088 0.407968
vt 0.725731 0.407603
vt 0.725732 0.408002
vt 0.717785 0.407884
vt 0.717783 0.407543
vt 0.715129 0.407842
vt 0.715128 0.407521
vt 0.715137 0.409888
vt 0.717799 0.410060
vt 0.720453 0.410233
vt 0.715158 0.415381
vt 0.717836 0.415905
vt 0.720494 0.416424
vt 0.723100 0.410395
vt 0.723135 0.416917
vt 0.725739 0.410541
vt 0.725760 0.417363
vt 0.728374 0.410665
vt 0.728377 0.417747
vt 0.728373 0.408028
vt 0.728373 0.407614
vt 0.731012 0.407621
vt 0.731012 0.408047
vt 0.731007 0.410762
vt 0.733649 0.408059
vt 0.733641 0.410833
vt 0.733650 0.407624
vt 0.736287 0.407628
vt 0.736286 0.408069
vt 0.736277 0.410878
vt 0.738923 0.408076
vt 0.738914 0.410897
vt 0.738924 0.407633
vt 0.741561 0.407640
vt 0.741560 0.408081
vt 0.741553 0.410890
vt 0.744197 0.408084
vt 0.744191 0.410858
vt 0.744198 0.407649
vt 0.746837 0.407660
vt 0.746836 0.408086
vt 0.746829 0.410801
vt 0.749477 0.408084
vt 0.749467 0.410720
vt 0.749479 0.407671
vt 0.752122 0.407680
vt 0.752120 0.408079
vt 0.752106 0.410618
vt 0.754766 0.408068
vt 0.754746 0.410497
vt 0.754769 0.407687
vt 0.757418 0.407691
vt 0.757414 0.408053
vt 0.757389 0.410360
vt 0.760064 0.408034
vt 0.760035 0.410215
vt 0.760069 0.407692
vt 0.678107 0.407439
vt 0.678105 0.407761
vt 0.675452 0.407801
vt 0.675454 0.407459
vt 0.678090 0.409815
vt 0.675440 0.409982
vt 0.680758 0.407723
vt 0.680743 0.409653
vt 0.680761 0.407420
vt 0.683414 0.407407
vt 0.683412 0.407691
vt 0.683398 0.409507
vt 0.686063 0.407669
vt 0.686053 0.409382
vt 0.686064 0.407400
vt 0.688711 0.407401
vt 0.688710 0.407657
vt 0.688703 0.409287
vt 0.691353 0.407655
vt 0.691348 0.409222
vt 0.691353 0.407410
vt 0.693991 0.407423
vt 0.693990 0.407662
vt 0.693986 0.409189
vt 0.696624 0.407674
vt 0.696619 0.409186
vt 0.696625 0.407437
vt 0.699258 0.407450
vt 0.699256 0.407689
vt 0.699250 0.409212
vt 0.701890 0.407705
vt 0.701882 0.409265
vt 0.701892 0.407460
vt 0.704530 0.407469
vt 0.704529 0.407723
vt 0.704519 0.409344
vt 0.707172 0.407745
vt 0.707163 0.409447
vt 0.707173 0.407478
vt 0.709821 0.407488
vt 0.709820 0.407771
vt 0.709815 0.409575
vt 0.712473 0.407804
vt 0.712473 0.409723
vt 0.712473 0.407503
vt 0.709802 0.414419
vt 0.712475 0.414878
vt 0.709793 0.418382
vt 0.712480 0.419151
vt 0.715183 0.419993
vt 0.717878 0.420868
vt 0.715245 0.422510
vt 0.712527 0.421707
vt 0.717948 0.423344
vt 0.865715 0.086694
vt 0.865847 0.086949
vt 0.862965 0.087149
vt 0.862872 0.086868
vt 0.868488 0.086013
vt 0.868651 0.086238
vt 0.709824 0.420974
vt 0.871054 0.084839
vt 0.871246 0.085028
vt 0.870870 0.084610
vt 0.868351 0.085750
vt 0.865622 0.086412
vt 0.870570 0.084167
vt 0.868141 0.085227
vt 0.865500 0.085846
vt 0.862819 0.086581
vt 0.862784 0.086003
vt 0.860090 0.086520
vt 0.860078 0.086239
vt 0.860128 0.085681
vt 0.857499 0.085414
vt 0.857631 0.084910
vt 0.857468 0.085677
vt 0.855182 0.084137
vt 0.855392 0.083722
vt 0.855103 0.084366
vt 0.855013 0.084671
vt 0.857452 0.085989
vt 0.860135 0.086821
vt 0.725784 0.423303
vt 0.725824 0.425667
vt 0.723230 0.424955
vt 0.723173 0.422557
vt 0.720608 0.424170
vt 0.720540 0.421734
vt 0.728384 0.423948
vt 0.728407 0.426283
vt 0.730995 0.418055
vt 0.730986 0.424467
vt 0.730994 0.426778
vt 0.852905 0.082911
vt 0.853074 0.082636
vt 0.851219 0.080764
vt 0.851459 0.080544
vt 0.733600 0.424850
vt 0.733598 0.427143
vt 0.850004 0.078325
vt 0.850297 0.078175
vt 0.851635 0.080411
vt 0.850507 0.078093
vt 0.853203 0.082453
vt 0.852024 0.080186
vt 0.850981 0.077950
vt 0.853496 0.082139
vt 0.849618 0.075617
vt 0.849847 0.075582
vt 0.850368 0.075522
vt 0.849676 0.072981
vt 0.850211 0.073003
vt 0.849442 0.072972
vt 0.849788 0.070342
vt 0.850014 0.070395
vt 0.850531 0.070497
vt 0.850840 0.067923
vt 0.851303 0.068103
vt 0.850635 0.067825
vt 0.851960 0.065521
vt 0.852126 0.065667
vt 0.852500 0.065924
vt 0.853833 0.063710
vt 0.854104 0.064050
vt 0.853716 0.063517
vt 0.855848 0.061901
vt 0.855912 0.062137
vt 0.856093 0.062573
vt 0.858286 0.060990
vt 0.858383 0.061512
vt 0.858271 0.060724
vt 0.860901 0.060029
vt 0.860873 0.060312
vt 0.860888 0.060883
vt 0.863573 0.060124
vt 0.863506 0.060710
vt 0.863643 0.059837
vt 0.866397 0.060166
vt 0.866288 0.060446
vt 0.866136 0.061016
vt 0.868910 0.061256
vt 0.868674 0.061777
vt 0.869062 0.060997
vt 0.871530 0.062313
vt 0.871334 0.062535
vt 0.871014 0.062970
vt 0.873455 0.064237
vt 0.873043 0.064571
vt 0.873698 0.064061
vt 0.875457 0.066182
vt 0.875168 0.066308
vt 0.874650 0.066551
vt 0.876422 0.068650
vt 0.875810 0.068808
vt 0.876746 0.068571
vt 0.877514 0.071134
vt 0.877170 0.071169
vt 0.876505 0.071242
vt 0.877393 0.073766
vt 0.876713 0.073754
vt 0.877742 0.073773
vt 0.877414 0.076393
vt 0.877073 0.076345
vt 0.876411 0.076249
vt 0.876229 0.078811
vt 0.875624 0.078632
vt 0.876549 0.078902
vt 0.875166 0.081207
vt 0.874884 0.081070
vt 0.874375 0.080809
vt 0.873081 0.083033
vt 0.872683 0.082685
vt 0.873315 0.083217
vt 0.872027 0.082061
vt 0.870093 0.083344
vt 0.873492 0.080343
vt 0.867823 0.084225
vt 0.867506 0.083225
vt 0.869618 0.082522
vt 0.871372 0.081437
vt 0.869112 0.081592
vt 0.870628 0.080736
vt 0.867209 0.082099
vt 0.865350 0.084742
vt 0.865199 0.083638
vt 0.865077 0.082405
vt 0.868775 0.080482
vt 0.867003 0.080799
vt 0.864992 0.080999
vt 0.862820 0.083736
vt 0.862851 0.082476
vt 0.862877 0.081042
vt 0.864984 0.079279
vt 0.866978 0.079190
vt 0.862923 0.079285
vt 0.860887 0.079173
vt 0.860793 0.080892
vt 0.860664 0.082282
vt 0.858951 0.078985
vt 0.858851 0.080594
vt 0.858623 0.081864
vt 0.860488 0.083495
vt 0.858296 0.082952
vt 0.856834 0.081268
vt 0.857159 0.080197
vt 0.856337 0.082146
vt 0.857963 0.083931
vt 0.860308 0.084588
vt 0.855864 0.082934
vt 0.854754 0.080980
vt 0.854125 0.081559
vt 0.855447 0.080343
vt 0.852857 0.079773
vt 0.853690 0.079360
vt 0.854609 0.078938
vt 0.856069 0.079772
vt 0.855707 0.078688
vt 0.853021 0.077421
vt 0.854138 0.077185
vt 0.855426 0.077048
vt 0.857189 0.078763
vt 0.857090 0.077068
vt 0.855252 0.075183
vt 0.857025 0.075214
vt 0.853854 0.075219
vt 0.855224 0.073206
vt 0.857031 0.073278
vt 0.853793 0.073148
vt 0.852625 0.075302
vt 0.852530 0.073097
vt 0.852768 0.070897
vt 0.853990 0.071080
vt 0.855381 0.071228
vt 0.853305 0.068798
vt 0.854405 0.069125
vt 0.855679 0.069364
vt 0.857146 0.071336
vt 0.857330 0.069471
vt 0.856073 0.067731
vt 0.857542 0.067763
vt 0.854999 0.067393
vt 0.856506 0.066659
vt 0.857610 0.066306
vt 0.855931 0.066032
vt 0.854109 0.066892
vt 0.855282 0.065329
vt 0.856926 0.064255
vt 0.857361 0.065190
vt 0.858911 0.063563
vt 0.859161 0.064700
vt 0.859302 0.066014
vt 0.859297 0.067661
vt 0.861227 0.067595
vt 0.861241 0.065831
vt 0.861201 0.064400
vt 0.863249 0.067601
vt 0.863306 0.065796
vt 0.863364 0.064326
vt 0.861105 0.063146
vt 0.863408 0.063034
vt 0.865720 0.063259
vt 0.865534 0.064513
vt 0.865376 0.065949
vt 0.867948 0.063791
vt 0.867603 0.064926
vt 0.867339 0.066247
vt 0.865279 0.067716
vt 0.867238 0.067901
vt 0.869050 0.068114
vt 0.869079 0.066645
vt 0.869459 0.065526
vt 0.870616 0.068171
vt 0.870238 0.067066
vt 0.870929 0.066463
vt 0.869998 0.064601
vt 0.871693 0.065783
vt 0.872861 0.067426
vt 0.871844 0.067886
vt 0.873618 0.069386
vt 0.872382 0.069656
vt 0.870942 0.069826
vt 0.869178 0.069833
vt 0.871154 0.071693
vt 0.869269 0.071696
vt 0.872717 0.071626
vt 0.871210 0.073661
vt 0.869284 0.073627
vt 0.872812 0.073689
vt 0.874079 0.071512
vt 0.874214 0.073713
vt 0.873993 0.075900
vt 0.872633 0.075742
vt 0.871071 0.075621
vt 0.873448 0.077985
vt 0.872218 0.077677
vt 0.870781 0.077458
vt 0.869186 0.075550
vt 0.869014 0.077386
vt 0.870383 0.079060
vt 0.868810 0.079056
vt 0.871606 0.079388
vt 0.869957 0.080120
vt 0.872611 0.079878
vt 0.874535 0.078309
vt 0.875201 0.076075
vt 0.875462 0.073734
vt 0.875291 0.071376
vt 0.874713 0.069097
vt 0.873755 0.066989
vt 0.872367 0.065177
vt 0.870506 0.063786
vt 0.868311 0.062784
vt 0.865928 0.062137
vt 0.863456 0.061872
vt 0.860996 0.062014
vt 0.858647 0.062538
vt 0.856510 0.063414
vt 0.854693 0.064690
vt 0.853304 0.066408
vt 0.852304 0.068451
vt 0.851649 0.070697
vt 0.851370 0.073050
vt 0.851496 0.075412
vt 0.852001 0.077685
vt 0.867050 0.077387
vt 0.865024 0.077389
vt 0.867135 0.075508
vt 0.865080 0.075472
vt 0.863032 0.075428
vt 0.862978 0.077361
vt 0.861003 0.075359
vt 0.860954 0.077278
vt 0.858999 0.075282
vt 0.858982 0.077169
vt 0.859033 0.073353
vt 0.861050 0.073422
vt 0.859114 0.071416
vt 0.861114 0.071476
vt 0.863085 0.073484
vt 0.863138 0.071531
vt 0.861178 0.069530
vt 0.863193 0.069570
vt 0.859212 0.069507
vt 0.865220 0.069653
vt 0.865178 0.071596
vt 0.867223 0.071656
vt 0.867225 0.069751
vt 0.867203 0.073586
vt 0.865136 0.073538
vt 0.862802 0.084869
vt 0.873531 0.083366
vt 0.875401 0.081315
vt 0.707139 0.420336
vt 0.707123 0.417712
vt 0.704477 0.419818
vt 0.704473 0.417167
vt 0.701835 0.419433
vt 0.701839 0.416763
vt 0.876797 0.078973
vt 0.699208 0.419197
vt 0.699216 0.416515
vt 0.877669 0.076430
vt 0.696586 0.419115
vt 0.696596 0.416429
vt 0.877999 0.073778
vt 0.693956 0.419193
vt 0.693968 0.416510
vt 0.877770 0.071107
vt 0.691309 0.419426
vt 0.691326 0.416755
vt 0.876998 0.068511
vt 0.688640 0.419812
vt 0.688667 0.417160
vt 0.875699 0.066084
vt 0.685957 0.420333
vt 0.685996 0.417706
vt 0.873923 0.063924
vt 0.683269 0.420972
vt 0.683322 0.418377
vt 0.871733 0.062135
vt 0.680590 0.421701
vt 0.680655 0.419141
vt 0.869239 0.060783
vt 0.677933 0.422489
vt 0.678003 0.419967
vt 0.866543 0.059919
vt 0.675299 0.423305
vt 0.675369 0.420821
vt 0.863750 0.059561
vt 0.757177 0.424319
vt 0.757257 0.421876
vt 0.759882 0.421050
vt 0.759793 0.423531
vt 0.860960 0.059730
vt 0.754576 0.425068
vt 0.754642 0.422662
vt 0.858268 0.060412
vt 0.751982 0.425749
vt 0.752031 0.423378
vt 0.855772 0.061593
vt 0.749384 0.426340
vt 0.749416 0.424000
vt 0.853561 0.063234
vt 0.746773 0.426819
vt 0.746792 0.424504
vt 0.851733 0.065287
vt 0.744148 0.427171
vt 0.744158 0.424875
vt 0.850352 0.067656
vt 0.741510 0.427384
vt 0.741517 0.425100
vt 0.849470 0.070249
vt 0.738866 0.427452
vt 0.738873 0.425173
vt 0.849110 0.072962
vt 0.736226 0.427370
vt 0.736232 0.425087
vt 0.849294 0.075689
vt 0.736253 0.418424
vt 0.738893 0.418476
vt 0.733619 0.418283
vt 0.741534 0.418436
vt 0.744173 0.418307
vt 0.746809 0.418093
vt 0.749440 0.417801
vt 0.752067 0.417439
vt 0.754693 0.417020
vt 0.757322 0.416559
vt 0.759957 0.416074
vt 0.678048 0.415332
vt 0.675405 0.415842
vt 0.680700 0.414838
vt 0.683361 0.414383
vt 0.686025 0.413985
vt 0.688685 0.413664
vt 0.691336 0.413429
vt 0.693976 0.413291
vt 0.696606 0.413249
vt 0.699231 0.413305
vt 0.701858 0.413455
vt 0.704494 0.413697
vt 0.707142 0.414021
s 1
f 5/1/1 4/2/2 1/3/3 2/4/4
f 3/5/5 20/6/6 2/4/4 1/3/3
f 4/2/2 5/1/1 8/7/7 6/8/8
f 9/9/9 7/10/10 6/8/8 8/7/7
f 11/11/11 9/9/9 8/7/7 10/12/12
f 5/1/1 13/13/13 10/12/12 8/7/7
f 104/14/14 11/11/11 10/12/12 12/15/15
f 13/13/13 14/16/16 12/15/15 10/12/12
f 14/16/16 13/13/13 15/17/17 16/18/18
f 13/13/13 5/1/1 2/4/4 15/17/17
f 17/19/19 18/20/20 16/18/18 15/17/17
f 20/6/6 17/19/19 15/17/17 2/4/4
f 18/20/20 17/19/19 19/21/21 137/22/22
f 17/19/19 20/6/6 21/23/23 19/21/21
f 20/6/6 3/5/5 22/24/24 21/23/23
f 25/25/25 23/26/26 21/23/23 22/24/24
f 23/26/26 24/27/27 19/21/21 21/23/23
f 24/27/27 23/26/26 26/28/28 28/29/29
f 23/26/26 25/25/25 27/30/30 26/28/28
f 31/31/31 29/32/32 26/28/28 27/30/30
f 29/32/32 30/33/33 28/29/29 26/28/28
f 30/33/33 29/32/32 32/34/34 34/35/35
f 29/32/32 31/31/31 33/36/36 32/34/34
f 37/37/37 35/38/38 32/34/34 33/36/36
f 35/38/38 36/39/39 34/35/35 32/34/34
f 36/39/39 35/38/38 38/40/40 40/41/41
f 35/38/38 37/37/37 39/42/42 38/40/40
f 43/43/43 41/44/44 38/40/40 39/42/42
f 41/44/44 42/45/45 40/41/41 38/40/40
f 42/45/45 41/44/44 44/46/46 46/47/47
f 41/44/44 43/43/43 45/48/48 44/46/46
f 49/49/49 47/50/50 44/46/46 45/48/48
f 47/50/50 48/51/51 46/47/47 44/46/46
f 48/51/51 47/50/50 50/52/52 52/53/53
f 47/50/50 49/49/49 51/54/54 50/52/52
f 55/55/55 53/56/56 50/52/52 51/54/54
f 53/56/56 54/57/57 52/53/53 50/52/52
f 54/57/57 53/56/56 56/58/58 58/59/59
f 53/56/56 55/55/55 57/60/60 56/58/58
f 61/61/61 59/62/61 56/63/58 57/64/60
f 59/62/61 60/65/62 58/66/59 56/63/58
f 60/65/62 59/62/61 62/67/63 64/68/63
f 59/62/61 61/61/61 63/69/63 62/67/63
f 67/70/64 65/71/65 62/67/63 63/69/63
f 65/71/65 66/72/66 64/68/63 62/67/63
f 66/72/66 65/71/65 68/73/67 70/74/68
f 65/71/65 67/70/64 69/75/69 68/73/67
f 73/76/70 71/77/71 68/73/67 69/75/69
f 71/77/71 72/78/72 70/74/68 68/73/67
f 72/78/72 71/77/71 74/79/73 76/80/74
f 71/77/71 73/76/70 75/81/75 74/79/73
f 79/82/76 77/83/77 74/79/73 75/81/75
f 77/83/77 78/84/78 76/80/74 74/79/73
f 78/84/78 77/83/77 80/85/79 82/86/80
f 77/83/77 79/82/76 81/87/81 80/85/79
f 85/88/82 83/89/83 80/85/79 81/87/81
f 83/89/83 84/90/84 82/86/80 80/85/79
f 84/90/84 83/89/83 86/91/85 88/92/86
f 83/89/83 85/88/82 87/93/87 86/91/85
f 91/94/88 89/95/89 86/91/85 87/93/87
f 89/95/89 90/96/90 88/92/86 86/91/85
f 90/96/90 89/95/89 92/97/91 94/98/92
f 89/95/89 91/94/88 93/99/93 92/97/91
f 97/100/94 95/101/95 92/97/91 93/99/93
f 95/101/95 96/102/96 94/98/92 92/97/91
f 96/102/96 95/101/95 98/103/97 100/104/98
f 95/101/95 97/100/94 99/105/99 98/103/97
f 7/10/10 9/9/9 98/103/97 99/105/99
f 9/9/9 11/11/11 100/104/98 98/103/97
f 102/106/100 96/102/96 100/104/98 101/107/101
f 11/11/11 104/14/14 101/107/101 100/104/98
f 465/108/102 102/106/100 101/107/101 103/109/103
f 104/14/14 105/110/104 103/109/103 101/107/101
f 105/110/104 104/14/14 12/15/15 106/111/105
f 105/110/104 107/112/106 110/113/107 103/109/103
f 107/112/106 105/110/104 106/111/105 108/114/108
f 109/115/109 107/116/106 108/117/108 120/118/110
f 107/116/106 109/115/109 112/119/111 110/120/107
f 111/121/112 465/108/102 103/109/103 110/113/107
f 113/122/113 111/123/112 110/120/107 112/119/111
f 115/124/114 113/122/113 112/119/111 114/125/115
f 109/115/109 117/126/116 114/125/115 112/119/111
f 217/127/117 115/124/114 114/125/115 116/128/118
f 117/126/116 118/129/119 116/128/118 114/125/115
f 118/129/119 117/126/116 119/130/120 121/131/121
f 117/126/116 109/115/109 120/118/110 119/130/120
f 124/132/122 122/133/123 119/130/120 120/118/110
f 122/133/123 123/134/124 121/131/121 119/130/120
f 123/134/124 122/133/123 125/135/125 126/136/126
f 122/133/123 124/132/122 128/137/127 125/135/125
f 127/138/128 391/139/129 126/136/126 125/135/125
f 129/140/130 127/138/128 125/135/125 128/137/127
f 131/141/131 129/140/130 128/137/127 130/142/132
f 124/132/122 133/143/133 130/142/132 128/137/127
f 135/144/134 131/145/131 130/146/132 132/147/135
f 133/148/133 134/149/136 132/147/135 130/146/132
f 134/149/136 133/148/133 108/114/108 106/111/105
f 133/143/133 124/132/122 120/118/110 108/117/108
f 134/149/136 14/16/16 16/18/18 132/147/135
f 14/16/16 134/149/136 106/111/105 12/15/15
f 18/20/20 135/144/134 132/147/135 16/18/18
f 135/144/134 18/20/20 137/22/22 136/150/137
f 131/145/131 135/144/134 136/150/137 139/151/138
f 443/152/139 138/153/140 136/150/137 137/22/22
f 138/153/140 141/154/141 139/151/138 136/150/137
f 129/140/130 131/141/131 139/155/138 140/156/142
f 141/157/141 143/158/143 140/156/142 139/155/138
f 141/154/141 138/153/140 441/159/144 142/160/145
f 143/158/143 141/157/141 142/161/145 144/162/146
f 145/163/147 143/158/143 144/162/146 148/164/148
f 143/158/143 145/163/147 147/165/149 140/156/142
f 146/166/150 145/163/147 148/164/148 149/167/151
f 145/163/147 146/166/150 390/168/152 147/165/149
f 152/169/153 150/170/154 148/164/148 144/162/146
f 150/170/154 151/171/155 149/167/151 148/164/148
f 151/171/155 150/170/154 153/172/156 155/173/157
f 150/170/154 152/169/153 154/174/158 153/172/156
f 158/175/159 156/176/160 153/172/156 154/174/158
f 156/176/160 157/177/161 155/173/157 153/172/156
f 157/177/161 156/176/160 159/178/162 161/179/163
f 156/176/160 158/175/159 160/180/164 159/178/162
f 164/181/165 162/182/166 159/178/162 160/180/164
f 162/182/166 163/183/167 161/179/163 159/178/162
f 163/183/167 162/182/166 165/184/168 167/185/169
f 162/182/166 164/181/165 166/186/170 165/184/168
f 170/187/171 168/188/172 165/184/168 166/186/170
f 168/188/172 169/189/173 167/185/169 165/184/168
f 169/189/173 168/188/172 171/190/174 173/191/175
f 168/188/172 170/187/171 172/192/176 171/190/174
f 176/193/177 174/194/178 171/190/174 172/192/176
f 174/194/178 175/195/179 173/191/175 171/190/174
f 175/195/179 174/194/178 177/196/180 179/197/181
f 174/194/178 176/193/177 178/198/182 177/196/180
f 182/199/183 180/200/184 177/196/180 178/198/182
f 180/200/184 181/201/185 179/197/181 177/196/180
f 181/201/185 180/200/184 183/202/186 185/203/187
f 180/200/184 182/199/183 184/204/188 183/202/186
f 188/205/189 186/206/190 183/202/186 184/204/188
f 186/206/190 187/207/191 185/203/187 183/202/186
f 187/207/191 186/206/190 189/208/192 191/209/193
f 186/206/190 188/205/189 190/210/194 189/208/192
f 194/211/195 192/212/196 189/208/192 190/210/194
f 192/212/196 193/213/197 191/209/193 189/208/192
f 193/213/197 192/212/196 195/214/198 197/215/199
f 192/212/196 194/211/195 196/216/200 195/214/198
f 200/217/201 198/218/202 195/214/198 196/216/200
f 198/218/202 199/219/203 197/215/199 195/214/198
f 199/219/203 198/218/202 201/220/204 203/221/205
f 198/218/202 200/217/201 202/222/206 201/220/204
f 206/223/207 204/224/208 201/220/204 202/222/206
f 204/224/208 205/225/209 203/221/205 201/220/204
f 205/225/209 204/224/208 207/226/210 209/227/211
f 204/224/208 206/223/207 208/228/212 207/226/210
f 212/229/213 210/230/214 207/226/210 208/228/212
f 210/230/214 211/231/215 209/227/211 207/226/210
f 211/231/215 210/230/214 213/232/216 215/233/217
f 210/230/214 212/229/213 214/234/218 213/232/216
f 113/122/113 115/124/114 213/232/216 214/234/218
f 115/124/114 217/127/117 215/233/217 213/232/216
f 216/235/219 215/233/217 217/127/117 218/236/220
f 215/233/217 216/235/219 329/237/221 211/231/215
f 116/128/118 219/238/222 218/236/220 217/127/117
f 219/238/222 223/239/223 220/240/224 218/236/220
f 221/241/225 216/235/219 218/236/220 220/240/224
f 220/240/224 222/242/226 328/243/227 221/241/225
f 222/242/226 220/240/224 223/239/223 225/244/228
f 223/239/223 219/238/222 394/245/229 224/246/230
f 224/246/230 227/247/231 225/244/228 223/239/223
f 358/248/232 222/242/226 225/244/228 226/249/233
f 227/247/231 229/250/234 226/249/233 225/244/228
f 227/247/231 224/246/230 395/251/235 228/252/236
f 229/250/234 227/247/231 228/252/236 231/253/237
f 230/254/238 359/255/239 226/249/233 229/250/234
f 232/256/240 230/254/238 229/250/234 231/253/237
f 234/257/241 232/256/240 231/253/237 233/258/242
f 236/259/243 233/258/242 231/253/237 228/252/236
f 370/260/244 234/257/241 233/258/242 235/261/245
f 233/258/242 236/259/243 238/262/246 235/261/245
f 237/263/247 236/259/243 228/252/236 395/251/235
f 236/259/243 237/263/247 240/264/248 238/262/246
f 239/265/249 389/266/250 235/261/245 238/262/246
f 242/267/251 239/265/249 238/262/246 240/264/248
f 241/268/252 240/264/248 237/263/247 392/269/253
f 240/264/248 241/268/252 243/270/254 242/267/251
f 244/271/255 242/267/251 243/270/254 245/272/256
f 239/265/249 242/267/251 244/271/255 247/273/257
f 244/271/255 245/272/256 356/274/258 246/275/259
f 246/275/259 249/276/260 247/273/257 244/271/255
f 389/266/250 239/265/249 247/273/257 248/277/261
f 249/276/260 251/278/262 248/277/261 247/273/257
f 249/276/260 246/275/259 357/279/263 250/280/264
f 251/278/262 249/276/260 250/280/264 253/281/265
f 252/282/266 251/278/262 253/281/265 254/283/267
f 251/278/262 252/282/266 389/266/250 248/277/261
f 255/284/268 256/285/269 254/283/267 253/281/265
f 258/286/270 255/284/268 253/281/265 250/280/264
f 256/285/269 255/284/268 257/287/271 373/288/272
f 255/284/268 258/286/270 260/289/273 257/287/271
f 259/290/274 258/286/270 250/280/264 357/279/263
f 258/286/270 259/290/274 261/291/275 260/289/273
f 263/292/276 262/293/277 260/289/273 261/291/275
f 262/293/277 265/294/278 257/287/271 260/289/273
f 262/293/277 263/292/276 352/295/279 264/296/280
f 265/294/278 262/293/277 264/296/280 267/297/281
f 266/298/282 265/294/278 267/297/281 268/299/283
f 265/294/278 266/298/282 373/288/272 257/287/271
f 269/300/284 270/301/285 268/299/283 267/297/281
f 272/302/286 269/300/284 267/297/281 264/296/280
f 270/301/285 269/300/284 271/303/287 279/304/288
f 269/300/284 272/302/286 274/305/289 271/303/287
f 273/306/290 272/302/286 264/296/280 352/295/279
f 272/302/286 273/306/290 275/307/291 274/305/289
f 277/308/292 276/309/293 274/305/289 275/307/291
f 276/309/293 279/304/288 271/303/287 274/305/289
f 276/309/293 277/308/292 347/310/294 278/311/295
f 279/304/288 276/309/293 278/311/295 280/312/296
f 281/313/297 270/301/285 279/304/288 280/312/296
f 283/314/298 281/313/297 280/312/296 282/315/299
f 285/316/300 282/315/299 280/312/296 278/311/295
f 381/317/301 283/314/298 282/315/299 284/318/302
f 282/315/299 285/316/300 287/319/303 284/318/302
f 286/320/304 285/316/300 278/311/295 347/310/294
f 285/316/300 286/320/304 288/321/305 287/319/303
f 290/322/306 289/323/307 287/319/303 288/321/305
f 289/323/307 292/324/308 284/318/302 287/319/303
f 289/323/307 290/322/306 342/325/309 291/326/310
f 292/324/308 289/323/307 291/326/310 294/327/311
f 293/328/312 381/317/301 284/318/302 292/324/308
f 295/329/313 293/328/312 292/324/308 294/327/311
f 297/330/314 295/329/313 294/327/311 296/331/315
f 299/332/316 296/331/315 294/327/311 291/326/310
f 306/333/317 297/330/314 296/331/315 298/334/318
f 296/331/315 299/332/316 301/335/319 298/334/318
f 300/336/320 299/332/316 291/326/310 342/325/309
f 299/332/316 300/336/320 302/337/321 301/335/319
f 304/338/322 303/339/323 301/335/319 302/337/321
f 303/339/323 306/333/317 298/334/318 301/335/319
f 303/339/323 304/338/322 337/340/324 305/341/325
f 306/333/317 303/339/323 305/341/325 307/342/326
f 297/330/314 306/333/317 307/342/326 308/343/327
f 309/344/328 310/345/329 308/343/327 307/342/326
f 312/346/330 309/344/328 307/342/326 305/341/325
f 310/345/329 309/344/328 311/347/331 388/348/332
f 309/344/328 312/346/330 314/349/333 311/347/331
f 313/350/334 312/346/330 305/341/325 337/340/324
f 312/346/330 313/350/334 315/351/335 314/349/333
f 317/352/336 316/353/337 314/349/333 315/351/335
f 316/353/337 319/354/338 311/347/331 314/349/333
f 316/353/337 317/352/336 330/355/339 318/356/340
f 319/354/338 316/353/337 318/356/340 321/357/341
f 319/354/338 320/358/342 388/348/332 311/347/331
f 320/358/342 319/354/338 321/357/341 322/359/343
f 323/360/344 324/361/345 322/359/343 321/357/341
f 326/362/346 323/360/344 321/357/341 318/356/340
f 324/361/345 323/360/344 325/363/347 358/248/232
f 323/360/344 326/362/346 328/243/227 325/363/347
f 327/364/348 326/362/346 318/356/340 330/355/339
f 326/362/346 327/364/348 221/241/225 328/243/227
f 222/242/226 358/248/232 325/363/347 328/243/227
f 216/235/219 221/241/225 327/364/348 329/237/221
f 330/355/339 331/365/349 329/237/221 327/364/348
f 331/365/349 330/355/339 317/352/336 332/366/350
f 331/365/349 209/227/211 211/231/215 329/237/221
f 209/227/211 331/365/349 332/366/350 205/225/209
f 333/367/351 203/221/205 205/225/209 332/366/350
f 315/351/335 333/367/351 332/366/350 317/352/336
f 199/219/203 203/221/205 333/367/351 334/368/352
f 315/351/335 313/350/334 334/368/352 333/367/351
f 197/215/199 199/219/203 334/368/352 335/369/353
f 313/350/334 337/340/324 335/369/353 334/368/352
f 193/213/197 197/215/199 335/369/353 336/370/354
f 337/340/324 304/338/322 336/370/354 335/369/353
f 191/209/193 193/213/197 336/370/354 338/371/355
f 304/338/322 302/337/321 338/371/355 336/370/354
f 187/207/191 191/209/193 338/371/355 339/372/356
f 302/337/321 300/336/320 339/372/356 338/371/355
f 185/203/187 187/207/191 339/372/356 340/373/357
f 300/336/320 342/325/309 340/373/357 339/372/356
f 185/203/187 340/373/357 341/374/358 181/201/185
f 342/325/309 290/322/306 341/374/358 340/373/357
f 179/197/181 181/201/185 341/374/358 343/375/359
f 290/322/306 288/321/305 343/375/359 341/374/358
f 175/195/179 179/197/181 343/375/359 344/376/360
f 288/321/305 286/320/304 344/376/360 343/375/359
f 173/191/175 175/195/179 344/376/360 345/377/361
f 286/320/304 347/310/294 345/377/361 344/376/360
f 169/189/173 173/191/175 345/377/361 346/378/362
f 347/310/294 277/308/292 346/378/362 345/377/361
f 167/185/169 169/189/173 346/378/362 348/379/363
f 275/307/291 348/379/363 346/378/362 277/308/292
f 167/185/169 348/379/363 349/380/364 163/183/167
f 275/307/291 273/306/290 349/380/364 348/379/363
f 350/381/365 161/179/163 163/183/167 349/380/364
f 352/295/279 350/381/365 349/380/364 273/306/290
f 161/179/163 350/381/365 351/382/366 157/177/161
f 350/381/365 352/295/279 263/292/276 351/382/366
f 353/383/367 155/173/157 157/177/161 351/382/366
f 261/291/275 353/383/367 351/382/366 263/292/276
f 151/171/155 155/173/157 353/383/367 354/384/368
f 261/291/275 259/290/274 354/384/368 353/383/367
f 149/167/151 151/171/155 354/384/368 355/385/369
f 259/290/274 357/279/263 355/385/369 354/384/368
f 146/166/150 149/167/151 355/385/369 356/274/258
f 357/279/263 246/275/259 356/274/258 355/385/369
f 390/168/152 146/166/150 356/274/258 245/272/256
f 359/255/239 324/361/345 358/248/232 226/249/233
f 324/361/345 359/255/239 360/386/370 322/359/343
f 359/255/239 230/254/238 362/387/371 360/386/370
f 361/388/372 320/358/342 322/359/343 360/386/370
f 363/389/373 361/388/372 360/386/370 362/387/371
f 365/390/374 363/389/373 362/387/371 364/391/375
f 230/254/238 232/256/240 364/391/375 362/387/371
f 367/392/376 365/390/374 364/391/375 366/393/377
f 232/256/240 234/257/241 366/393/377 364/391/375
f 369/394/378 367/392/376 366/393/377 368/395/379
f 234/257/241 370/260/244 368/395/379 366/393/377
f 256/285/269 369/394/378 368/395/379 254/283/267
f 370/260/244 252/282/266 254/283/267 368/395/379
f 252/282/266 370/260/244 235/261/245 389/266/250
f 369/394/378 256/285/269 373/288/272 371/396/380
f 367/392/376 369/394/378 371/396/380 374/397/381
f 372/398/382 376/399/383 374/397/381 371/396/380
f 266/298/282 372/398/382 371/396/380 373/288/272
f 365/390/374 367/392/376 374/397/381 375/400/384
f 376/399/383 377/401/385 375/400/384 374/397/381
f 377/401/385 376/399/383 378/402/386 379/403/387
f 376/399/383 372/398/382 380/404/388 378/402/386
f 283/314/298 381/317/301 379/403/387 378/402/386
f 281/313/297 283/314/298 378/402/386 380/404/388
f 270/301/285 281/313/297 380/404/388 268/299/283
f 372/398/382 266/298/282 268/299/283 380/404/388
f 381/317/301 293/328/312 382/405/389 379/403/387
f 384/406/390 377/401/385 379/403/387 382/405/389
f 385/407/391 384/406/390 382/405/389 383/408/392
f 293/328/312 295/329/313 383/408/392 382/405/389
f 384/406/390 385/407/391 387/409/393 386/410/394
f 377/401/385 384/406/390 386/410/394 375/400/384
f 361/388/372 363/389/373 386/410/394 387/409/393
f 363/389/373 365/390/374 375/400/384 386/410/394
f 385/407/391 310/345/329 388/348/332 387/409/393
f 320/358/342 361/388/372 387/409/393 388/348/332
f 310/345/329 385/407/391 383/408/392 308/343/327
f 295/329/313 297/330/314 308/343/327 383/408/392
f 390/168/152 245/272/256 243/270/254 391/139/129
f 391/139/129 127/138/128 147/165/149 390/168/152
f 241/268/252 126/136/126 391/139/129 243/270/254
f 126/136/126 241/268/252 392/269/253 123/134/124
f 393/411/395 121/131/121 123/134/124 392/269/253
f 395/251/235 393/411/395 392/269/253 237/263/247
f 121/131/121 393/411/395 394/245/229 118/129/119
f 393/411/395 395/251/235 224/246/230 394/245/229
f 116/128/118 118/129/119 394/245/229 219/238/222
f 111/123/112 113/122/113 214/234/218 396/412/396
f 212/229/213 398/413/397 396/412/396 214/234/218
f 465/108/102 111/121/112 396/414/396 397/415/398
f 398/416/397 399/417/399 397/415/398 396/414/396
f 399/417/399 398/416/397 400/418/400 401/419/401
f 398/413/397 212/229/213 208/228/212 400/420/400
f 402/421/402 403/422/403 401/419/401 400/418/400
f 206/223/207 402/423/402 400/420/400 208/228/212
f 403/422/403 402/421/402 404/424/404 405/425/405
f 402/423/402 206/223/207 202/222/206 404/426/404
f 406/427/406 407/428/407 405/425/405 404/424/404
f 200/217/201 406/429/406 404/426/404 202/222/206
f 407/428/407 406/427/406 408/430/408 409/431/409
f 406/429/406 200/217/201 196/216/200 408/432/408
f 410/433/410 411/434/411 409/431/409 408/430/408
f 194/211/195 410/435/410 408/432/408 196/216/200
f 411/434/411 410/433/410 412/436/412 413/437/413
f 410/435/410 194/211/195 190/210/194 412/438/412
f 414/439/414 415/440/415 413/437/413 412/436/412
f 188/205/189 414/441/414 412/438/412 190/210/194
f 415/440/415 414/439/414 416/442/416 417/443/417
f 414/441/414 188/205/189 184/204/188 416/444/416
f 418/445/418 419/446/419 417/443/417 416/442/416
f 182/199/183 418/447/418 416/444/416 184/204/188
f 419/446/419 418/445/418 420/448/420 421/449/421
f 418/447/418 182/199/183 178/198/182 420/450/420
f 422/451/422 423/452/423 421/453/421 420/454/420
f 176/193/177 422/455/422 420/450/420 178/198/182
f 423/452/423 422/451/422 424/456/424 425/457/425
f 422/455/422 176/193/177 172/192/176 424/458/424
f 426/459/426 427/460/427 425/457/425 424/456/424
f 170/187/171 426/461/426 424/458/424 172/192/176
f 427/460/427 426/459/426 428/462/428 429/463/429
f 426/461/426 170/187/171 166/186/170 428/464/428
f 430/465/430 431/466/431 429/463/429 428/462/428
f 164/181/165 430/467/430 428/464/428 166/186/170
f 431/466/431 430/465/430 432/468/432 433/469/433
f 430/467/430 164/181/165 160/180/164 432/470/432
f 434/471/434 435/472/435 433/469/433 432/468/432
f 158/175/159 434/473/434 432/470/432 160/180/164
f 435/472/435 434/471/434 436/474/436 437/475/437
f 434/473/434 158/175/159 154/174/158 436/476/436
f 438/477/438 439/478/439 437/475/437 436/474/436
f 152/169/153 438/479/438 436/476/436 154/174/158
f 439/478/439 438/477/438 142/160/145 441/159/144
f 438/479/438 152/169/153 144/162/146 142/161/145
f 439/478/439 440/480/440 444/481/441 437/475/437
f 440/480/440 439/478/439 441/159/144 442/482/442
f 138/153/140 443/152/139 442/482/442 441/159/144
f 30/33/33 440/480/440 442/482/442 28/29/29
f 443/152/139 24/27/27 28/29/29 442/482/442
f 24/27/27 443/152/139 137/22/22 19/21/21
f 440/480/440 30/33/33 34/35/35 444/481/441
f 36/39/39 445/483/443 444/481/441 34/35/35
f 445/483/443 435/472/435 437/475/437 444/481/441
f 435/472/435 445/483/443 446/484/444 433/469/433
f 445/483/443 36/39/39 40/41/41 446/484/444
f 42/45/45 447/485/445 446/484/444 40/41/41
f 447/485/445 431/466/431 433/469/433 446/484/444
f 431/466/431 447/485/445 448/486/446 429/463/429
f 447/485/445 42/45/45 46/47/47 448/486/446
f 48/51/51 449/487/447 448/486/446 46/47/47
f 449/487/447 427/460/427 429/463/429 448/486/446
f 427/460/427 449/487/447 450/488/448 425/457/425
f 449/487/447 48/51/51 52/53/53 450/488/448
f 54/57/57 451/489/449 450/488/448 52/53/53
f 451/489/449 423/452/423 425/457/425 450/488/448
f 423/452/423 451/489/449 452/490/59 421/453/421
f 451/489/449 54/57/57 58/59/59 452/490/59
f 60/65/62 453/491/450 452/492/59 58/66/59
f 453/491/450 419/446/419 421/449/421 452/492/59
f 419/446/419 453/491/450 454/493/451 417/443/417
f 453/491/450 60/65/62 64/68/63 454/493/451
f 66/72/66 455/494/452 454/493/451 64/68/63
f 455/494/452 415/440/415 417/443/417 454/493/451
f 415/440/415 455/494/452 456/495/453 413/437/413
f 455/494/452 66/72/66 70/74/68 456/495/453
f 72/78/72 457/496/454 456/495/453 70/74/68
f 457/496/454 411/434/411 413/437/413 456/495/453
f 411/434/411 457/496/454 458/497/455 409/431/409
f 457/496/454 72/78/72 76/80/74 458/497/455
f 78/84/78 459/498/456 458/497/455 76/80/74
f 459/498/456 407/428/407 409/431/409 458/497/455
f 407/428/407 459/498/456 460/499/457 405/425/405
f 459/498/456 78/84/78 82/86/80 460/499/457
f 84/90/84 461/500/458 460/499/457 82/86/80
f 461/500/458 403/422/403 405/425/405 460/499/457
f 403/422/403 461/500/458 462/501/459 401/419/401
f 461/500/458 84/90/84 88/92/86 462/501/459
f 90/96/90 463/502/460 462/501/459 88/92/86
f 463/502/460 399/417/399 401/419/401 462/501/459
f 399/417/399 463/502/460 464/503/461 397/415/398
f 463/502/460 90/96/90 94/98/92 464/503/461
f 96/102/96 102/106/100 464/503/461 94/98/92
f 102/106/100 465/108/102 397/415/398 464/503/461
f 127/138/128 129/140/130 140/156/142 147/165/149
