# Blender 4.5.3 LTS
# www.blender.org
o Dualsense.039
v 54.099636 -16.156801 35.676323
v 54.099636 -16.305593 35.676323
v 53.669258 -16.156801 36.479843
v 54.363338 -16.156801 34.803879
v 54.363338 -16.305519 34.803871
v 54.453503 -16.156801 33.896881
v 54.363304 -16.156797 32.989754
v 54.453503 -16.306007 33.896881
v 54.363304 -16.307060 32.989754
v 54.453503 -17.256805 33.896873
v 54.363304 -17.264618 32.989754
v 54.453503 -19.810789 33.896881
v 54.363338 -17.253252 34.803879
v 54.363338 -19.798973 34.803871
v 54.099636 -17.253777 35.676323
v 54.099636 -19.800732 35.676323
v 53.669258 -17.258232 36.479843
v 53.669258 -19.815510 36.479843
v 53.091671 -17.265646 37.185143
v 53.669258 -16.306200 36.479843
v 53.091667 -16.307207 37.185143
v 53.091667 -16.156801 37.185143
v 52.386303 -16.308495 37.762962
v 52.386303 -17.275085 37.762962
v 52.386303 -16.156801 37.762962
v 51.582489 -16.309914 38.193657
v 51.582489 -16.156801 38.193657
v 51.582489 -17.285639 38.193657
v 50.709469 -16.311375 38.457581
v 50.709469 -17.296379 38.457581
v 50.709469 -16.156801 38.457581
v 49.801846 -16.312817 38.547836
v 49.801846 -16.156801 38.547836
v 49.801853 -17.307014 38.547836
v 48.894211 -16.314213 38.457558
v 48.894211 -17.317289 38.457558
v 48.894211 -16.156801 38.457558
v 48.021118 -16.315573 38.193611
v 48.021118 -16.156801 38.193611
v 48.021126 -17.327377 38.193611
v 47.217117 -16.316944 37.762894
v 47.217117 -17.337442 37.762894
v 47.217117 -16.156801 37.762894
v 46.511517 -16.318289 37.184967
v 46.511517 -16.156801 37.184967
v 46.511517 -17.347322 37.184967
v 45.933590 -16.319574 36.479431
v 45.933590 -17.356844 36.479424
v 45.933586 -16.156801 36.479424
v 45.502907 -16.320770 35.675583
v 45.502907 -16.156801 35.675583
v 45.502907 -17.365635 35.675583
v 45.239017 -16.321814 34.802727
v 45.239017 -17.373377 34.802727
v 45.239017 -16.156801 34.802727
v 45.148769 -16.322662 33.895439
v 45.148769 -16.156801 33.895439
v 45.148769 -17.379557 33.895439
v 45.238991 -16.323198 32.988213
v 45.238991 -17.383696 32.988213
v 45.238991 -16.156797 32.988213
v 45.502815 -16.323502 32.115562
v 45.502815 -16.156797 32.115562
v 45.502815 -17.385809 32.115562
v 45.933350 -16.323515 31.311981
v 45.933350 -17.385891 31.311981
v 45.933350 -16.156797 31.311981
v 46.511074 -16.323259 30.606728
v 46.511074 -16.156797 30.606720
v 46.511086 -17.383980 30.606728
v 47.216434 -16.322729 30.029045
v 47.216434 -17.380096 30.029045
v 47.216434 -16.156797 30.029045
v 48.020172 -16.321936 29.598511
v 48.020184 -16.156797 29.598511
v 48.020184 -17.374311 29.598518
v 48.893063 -16.320908 29.334679
v 48.893063 -17.366671 29.334679
v 48.893063 -16.156797 29.334679
v 49.800545 -16.319630 29.244461
v 49.800545 -16.156797 29.244461
v 49.800552 -17.357286 29.244461
v 50.708134 -16.318140 29.334755
v 50.708134 -17.346310 29.334755
v 50.708134 -16.156797 29.334755
v 51.581230 -16.316433 29.598709
v 51.581230 -16.156797 29.598717
v 51.581230 -17.333702 29.598709
v 52.385292 -16.314497 30.029495
v 52.385292 -17.319454 30.029495
v 52.385292 -16.156797 30.029495
v 53.090946 -16.312458 30.607506
v 53.090946 -16.156797 30.607506
v 53.090946 -17.304411 30.607506
v 53.668877 -16.310444 31.313133
v 53.668877 -17.289473 31.313133
v 53.668877 -16.156797 31.313133
v 54.099514 -16.308577 32.117004
v 54.099514 -16.156797 32.117004
v 54.099499 -17.275801 32.117004
v 54.099514 -19.873903 32.117004
v 53.668877 -19.919304 31.313133
v 54.099499 -21.775936 32.117004
v 54.363304 -19.836758 32.989754
v 54.363304 -21.712807 32.989754
v 54.453503 -21.668707 33.896881
v 54.363304 -22.670374 32.989761
v 54.453503 -22.619501 33.896881
v 54.336750 -22.790512 32.993057
v 54.099514 -22.743160 32.117004
v 53.668869 -22.832092 31.313133
v 54.075291 -22.863981 32.123978
v 53.648651 -22.953701 31.323997
v 54.002697 -22.922894 32.144897
v 53.587990 -23.011227 31.356613
v 53.844292 -22.968622 32.190536
v 54.257114 -22.850399 33.002983
v 54.083351 -22.899096 33.024620
v 54.344177 -22.799576 33.895882
v 54.426174 -22.739132 33.896637
v 54.165276 -22.850082 33.894249
v 54.256802 -22.776274 34.788628
v 54.082489 -22.827328 34.763687
v 54.336700 -22.715689 34.800072
v 54.002285 -22.779358 35.646408
v 53.842995 -22.829720 35.597443
v 53.587887 -22.807699 36.434387
v 54.075294 -22.719076 35.668846
v 53.648918 -22.748173 36.468475
v 54.099636 -22.599791 35.676323
v 53.669258 -22.628733 36.479843
v 54.099640 -21.651619 35.676323
v 54.363338 -22.596346 34.803879
v 54.363338 -21.648621 34.803879
v 53.669258 -21.676714 36.479843
v 53.091671 -21.718586 37.185143
v 53.091667 -19.840153 37.185143
v 52.386303 -21.771894 37.762962
v 53.091667 -22.677017 37.185143
v 53.076019 -22.796782 37.169693
v 52.386303 -22.738495 37.762962
v 51.582489 -22.807171 38.193657
v 52.375080 -22.858759 37.743217
v 51.575371 -22.928068 38.170280
v 52.341381 -22.916199 37.683990
v 52.267883 -22.958754 37.554771
v 53.029079 -22.855301 37.123344
v 51.553993 -22.984528 38.100166
v 51.507351 -23.024176 37.947174
v 50.696102 -23.054411 38.355629
v 50.674210 -23.091761 38.188812
v 50.706127 -22.998655 38.432083
v 49.802933 -23.123959 38.442970
v 49.802124 -23.068689 38.521629
v 49.804714 -23.159439 38.271362
v 48.909729 -23.191229 38.354736
v 48.935108 -23.225084 38.186470
v 48.898094 -23.136360 38.431847
v 48.051537 -23.257204 38.098679
v 48.028736 -23.202759 38.169868
v 48.101318 -23.289377 37.943329
v 47.263428 -23.322840 37.682571
v 47.339184 -23.352966 37.551163
v 47.228695 -23.269011 37.742813
v 46.574829 -23.386868 37.122200
v 46.527344 -23.333908 37.169273
v 46.678432 -23.414368 37.019470
v 46.015163 -23.448000 36.433304
v 46.148659 -23.472012 36.357849
v 45.953987 -23.396288 36.467903
v 45.600018 -23.504396 35.645195
v 45.527187 -23.453957 35.667984
v 45.758942 -23.525015 35.595490
v 45.344975 -23.554274 34.787155
v 45.518356 -23.572432 34.761665
v 45.265514 -23.504702 34.798843
v 45.257431 -23.594421 33.894218
v 45.175930 -23.545319 33.895134
v 45.435257 -23.611078 33.892212
v 45.344833 -23.621620 33.001389
v 45.518028 -23.637762 33.022942
v 45.265472 -23.572620 32.991508
v 45.599728 -23.635899 32.143646
v 45.527046 -23.586613 32.122581
v 45.758327 -23.652491 32.189629
v 46.014679 -23.637278 31.355988
v 46.147739 -23.655214 31.428009
v 45.953690 -23.587366 31.322983
v 46.574089 -23.625423 30.667587
v 46.526829 -23.574938 30.621933
v 46.677227 -23.644773 30.767181
v 47.262428 -23.600029 30.107597
v 47.337696 -23.619967 30.236168
v 47.227932 -23.549419 30.048683
v 48.050285 -23.561844 29.691872
v 48.027695 -23.511232 29.621849
v 48.099552 -23.582176 29.844658
v 48.908298 -23.511593 29.436195
v 48.933239 -23.532831 29.602318
v 48.896862 -23.460829 29.360069
v 49.801437 -23.450159 29.348167
v 49.800766 -23.399071 29.270393
v 49.802872 -23.472847 29.517860
v 50.694637 -23.378441 29.435356
v 50.672546 -23.403181 29.599983
v 50.704773 -23.326778 29.359901
v 51.552731 -23.296532 29.690590
v 51.574104 -23.243887 29.621681
v 51.506050 -23.324297 29.840950
v 52.340515 -23.204521 30.106689
v 52.267223 -23.236668 30.233009
v 52.374088 -23.150364 30.048790
v 53.028694 -23.107668 30.667435
v 53.075386 -23.051777 30.622490
v 52.926819 -23.144724 30.765511
v 52.745712 -23.210587 30.939857
v 53.455639 -23.052944 31.427750
v 53.220367 -23.127102 31.554237
v 53.562675 -23.049929 32.271667
v 52.928749 -23.214506 31.709007
v 53.207577 -23.147297 32.370811
v 52.526531 -23.286764 31.156433
v 52.627426 -23.295956 31.865044
v 52.256832 -23.372759 31.966949
v 52.310482 -23.354748 31.381142
v 52.828732 -23.241209 32.470497
v 52.380886 -23.332485 32.542709
v 52.958858 -23.192753 33.158440
v 53.382290 -23.090193 33.110359
v 53.005558 -23.155691 33.887665
v 52.465992 -23.293098 33.195549
v 51.865551 -23.390945 33.209976
v 52.498474 -23.260189 33.887215
v 51.885201 -23.360888 33.886208
v 52.464638 -23.239365 34.579437
v 51.865356 -23.339430 34.563461
v 52.378231 -23.228668 35.232704
v 52.956600 -23.135094 34.616974
v 53.379757 -23.027664 34.666740
v 52.824795 -23.129986 35.304840
v 53.203476 -23.026457 35.405945
v 52.622921 -23.139370 35.909691
v 52.924984 -23.043812 36.067680
v 52.306805 -23.163748 36.393127
v 52.252953 -23.226120 35.807503
v 51.756218 -23.301483 35.814758
v 52.109924 -23.220163 36.185486
v 51.740448 -23.266630 36.327003
v 51.174652 -23.319099 36.450455
v 51.832275 -23.203672 36.716682
v 51.981319 -23.122860 37.032974
v 51.235397 -23.253960 36.923775
v 51.326653 -23.177465 37.321609
v 50.552273 -23.309448 37.057838
v 50.590836 -23.236454 37.502930
v 49.825783 -23.366896 37.105515
v 50.527687 -23.374123 36.535179
v 50.525097 -23.427454 35.913200
v 49.839668 -23.429693 36.567398
v 49.853157 -23.482979 35.931023
v 49.150700 -23.483799 36.533363
v 49.179276 -23.536900 35.911613
v 48.498543 -23.533539 36.447449
v 49.098793 -23.423107 37.053474
v 49.037369 -23.356394 37.496590
v 48.412357 -23.476627 36.916687
v 48.299347 -23.413950 37.311249
v 47.807465 -23.526062 36.710014
v 47.639370 -23.469044 37.023270
v 47.325470 -23.569611 36.387901
v 47.920891 -23.575958 36.323997
v 47.922375 -23.617142 35.811485
v 47.539856 -23.593855 36.181816
v 47.402687 -23.627800 35.803764
v 47.283905 -23.656675 35.227936
v 47.007748 -23.605516 35.904778
v 46.686031 -23.563446 36.062195
v 46.806919 -23.637672 35.299965
v 46.405003 -23.603016 35.401474
v 46.675564 -23.669992 34.612816
v 46.226665 -23.640705 34.662865
v 46.627174 -23.699575 33.884575
v 47.201416 -23.685240 34.575470
v 47.832279 -23.679131 34.560051
v 47.169228 -23.712070 33.884651
v 47.814301 -23.703993 33.884377
v 47.201263 -23.735756 33.193810
v 47.831509 -23.728252 33.208702
v 47.283783 -23.754702 32.542595
v 46.675179 -23.723537 33.156494
v 46.225872 -23.698246 33.108429
v 46.806309 -23.741478 32.470612
v 46.403564 -23.714838 32.370964
v 47.007290 -23.752958 31.868973
v 46.684212 -23.723015 31.712303
v 47.324688 -23.751278 31.388832
v 47.403042 -23.767330 31.970741
v 47.920963 -23.756514 31.962318
v 47.539421 -23.760349 31.594734
v 47.919308 -23.751949 31.453247
v 48.494869 -23.717434 31.328453
v 47.805077 -23.729679 31.067444
v 47.636425 -23.695545 30.754669
v 48.408581 -23.693659 30.860672
v 48.295876 -23.659204 30.467888
v 49.095306 -23.648666 30.724388
v 49.147465 -23.673151 31.241783
v 49.034042 -23.613111 30.284294
v 49.823135 -23.596277 30.672554
v 49.811417 -23.558510 30.216637
v 49.837555 -23.621746 31.207321
v 50.549965 -23.538036 30.719124
v 50.525600 -23.565928 31.239105
v 50.588528 -23.496689 30.277618
v 51.233974 -23.476814 30.851685
v 51.325283 -23.429548 30.456985
v 51.173222 -23.507708 31.323418
v 51.833412 -23.415369 31.057869
v 51.981674 -23.359005 30.744507
v 51.742031 -23.449080 31.446526
v 51.757397 -23.446316 31.959358
v 52.113228 -23.394314 31.588470
v 51.818825 -23.421959 32.559464
v 51.167004 -23.514441 31.903221
v 50.523434 -23.575003 31.859474
v 51.187630 -23.502602 32.547005
v 50.532429 -23.567347 32.531563
v 51.207443 -23.477768 33.210686
v 50.541542 -23.545021 33.206673
v 51.217297 -23.449505 33.884979
v 50.546280 -23.517748 33.883926
v 51.208084 -23.427364 34.560616
v 50.542126 -23.495255 34.562431
v 51.188786 -23.402945 35.226204
v 50.533577 -23.468246 35.239693
v 51.818272 -23.321369 35.215179
v 51.168377 -23.367805 35.870369
v 49.863987 -23.524576 35.246552
v 49.869877 -23.552307 34.564178
v 49.191341 -23.579252 35.237694
v 49.193741 -23.607710 34.561111
v 48.524578 -23.624126 35.222603
v 48.514339 -23.652885 34.558098
v 47.872612 -23.651047 35.210754
v 48.527622 -23.583513 35.867569
v 48.507076 -23.676497 33.883919
v 48.512997 -23.701687 33.209961
v 49.192287 -23.630735 33.883446
v 49.871490 -23.575043 33.883324
v 49.192787 -23.656698 33.206352
v 49.869461 -23.601675 33.203407
v 49.189503 -23.676859 32.531441
v 49.863098 -23.623133 32.523079
v 49.176632 -23.682447 31.860359
v 48.522083 -23.720829 32.546799
v 48.524380 -23.726282 31.905067
v 47.871277 -23.747297 32.559258
v 49.851662 -23.630251 31.840927
v 52.136948 -23.293783 30.457581
v 51.423103 -23.373669 30.108238
v 50.633278 -23.447168 29.892639
v 49.805435 -23.513170 29.819542
v 48.977592 -23.570580 29.897659
v 48.187138 -23.618338 30.116272
v 47.471497 -23.655378 30.464722
v 46.860577 -23.679150 30.944221
v 46.384315 -23.687119 31.556053
v 47.088326 -23.718132 31.163277
v 46.040245 -23.681988 32.271347
v 45.825935 -23.666479 33.061272
v 45.751381 -23.640697 33.888649
v 45.826584 -23.604712 34.716347
v 46.162956 -23.673470 33.885460
v 46.041489 -23.561676 35.507111
v 46.385967 -23.514715 36.223679
v 46.862610 -23.463209 36.836861
v 47.473888 -23.406525 37.317520
v 47.090538 -23.519581 36.613342
v 48.189789 -23.346579 37.667168
v 48.980232 -23.285263 37.887337
v 49.807861 -23.222496 37.966293
v 50.635300 -23.158171 37.892258
v 49.814266 -23.297028 37.565186
v 51.424446 -23.094696 37.675194
v 52.137180 -23.034439 37.325050
v 52.744656 -22.982021 36.842384
v 52.926693 -22.900925 37.022202
v 53.218010 -22.942085 36.227776
v 52.524269 -23.076885 36.620506
v 53.454723 -22.856070 36.360008
v 53.559803 -22.919220 35.510376
v 53.772591 -22.918106 34.719345
v 53.847214 -22.939861 33.891357
v 53.774426 -22.985661 33.063087
v 53.442989 -23.048540 33.888672
v 53.090946 -22.929367 30.607506
v 53.090946 -21.937405 30.607506
v 52.385292 -23.027176 30.029488
v 52.385292 -22.022230 30.029488
v 51.581238 -23.119928 29.598709
v 51.581230 -22.102663 29.598709
v 50.708134 -23.201977 29.334747
v 50.708134 -22.173822 29.334747
v 49.800545 -23.273462 29.244461
v 49.800552 -22.235815 29.244461
v 48.893063 -23.334513 29.334679
v 48.893063 -22.288752 29.334679
v 48.020172 -23.384270 29.598511
v 48.020184 -22.331905 29.598511
v 47.216434 -23.421915 30.029037
v 47.216434 -22.364557 30.029037
v 46.511074 -23.447145 30.606712
v 46.511074 -22.386421 30.606720
v 45.933350 -23.459600 31.311981
v 45.933350 -22.397217 31.311981
v 45.502815 -23.459070 32.115562
v 45.502815 -22.396759 32.115562
v 45.238998 -23.445339 32.988213
v 45.238991 -22.384857 32.988213
v 45.148769 -23.418379 33.895439
v 45.148769 -22.361477 33.895439
v 45.239025 -23.378157 34.802727
v 45.239025 -22.326609 34.802727
v 45.502907 -23.327826 35.675583
v 45.502907 -22.282951 35.675583
v 45.933586 -23.270544 36.479424
v 45.933590 -22.233274 36.479424
v 46.511517 -23.208605 37.184967
v 46.511517 -22.179560 37.184967
v 47.217129 -23.144295 37.762909
v 47.217129 -22.123793 37.762894
v 48.021126 -23.078760 38.193611
v 48.021118 -22.066963 38.193611
v 48.894211 -23.013142 38.457558
v 48.894211 -22.010056 38.457558
v 49.801846 -22.946270 38.547836
v 49.801846 -21.952057 38.547844
v 50.709469 -22.877020 38.457581
v 50.709469 -21.892019 38.457581
v 50.709469 -19.942228 38.457581
v 51.582489 -21.831450 38.193657
v 51.582489 -19.906586 38.193657
v 52.386303 -19.871531 37.762962
v 49.801846 -19.977592 38.547836
v 48.894215 -20.011717 38.457558
v 48.021126 -20.045204 38.193611
v 47.217117 -20.078653 37.762894
v 46.511517 -20.111481 37.184967
v 45.933590 -20.143089 36.479431
v 45.502907 -20.172340 35.675583
v 45.239017 -20.198030 34.802727
v 45.148769 -20.218559 33.895439
v 45.238991 -20.232317 32.988213
v 45.502815 -20.239317 32.115562
v 45.933350 -20.239594 31.311981
v 46.511074 -20.233234 30.606728
v 47.216434 -20.220367 30.029045
v 48.020172 -20.201141 29.598511
v 48.893063 -20.175745 29.334679
v 49.800545 -20.144587 29.244461
v 50.708134 -20.108101 29.334755
v 51.581230 -20.066214 29.598709
v 52.385292 -20.018877 30.029495
v 53.090946 -19.968954 30.607506
v 53.668877 -21.853054 31.313133
vn 0.9823 -0.0000 0.1874
vn 0.9208 -0.0000 0.3900
vn 0.8315 -0.0000 0.5555
vn 0.9975 -0.0000 0.0702
vn 0.9649 -0.0000 -0.2625
vn 0.9686 -0.0000 -0.2485
vn 0.9985 -0.0000 0.0553
vn 0.9720 -0.0000 -0.2348
vn 0.9992 -0.0000 0.0408
vn 0.9823 -0.0001 0.1874
vn 0.8312 -0.0000 0.5559
vn 0.7076 -0.0000 0.7066
vn 0.7300 -0.0000 0.6835
vn 0.7708 -0.0000 0.6370
vn 0.4761 -0.0000 0.8794
vn 0.5280 -0.0000 0.8493
vn 0.5543 -0.0000 0.8323
vn 0.3823 -0.0000 0.9241
vn 0.3824 -0.0000 0.9240
vn 0.3822 -0.0000 0.9241
vn 0.1951 -0.0000 0.9808
vn 0.1945 -0.0000 0.9809
vn 0.0274 -0.0000 0.9996
vn 0.0274 0.0003 0.9996
vn -0.1066 -0.0000 0.9943
vn -0.1243 0.0001 0.9922
vn -0.1888 0.0001 0.9820
vn -0.4587 -0.0000 0.8886
vn -0.4144 -0.0000 0.9101
vn -0.4684 -0.0000 0.8835
vn -0.5561 -0.0000 0.8311
vn -0.5560 -0.0000 0.8312
vn -0.7074 -0.0000 0.7068
vn -0.8315 -0.0000 0.5556
vn -0.8316 -0.0000 0.5553
vn -0.9239 -0.0000 0.3827
vn -0.9585 -0.0000 0.2852
vn -0.9615 0.0001 0.2749
vn -0.9738 0.0003 0.2276
vn -0.9965 -0.0000 -0.0838
vn -0.9994 -0.0000 -0.0343
vn -0.9955 -0.0000 -0.0946
vn -0.9808 -0.0000 -0.1951
vn -0.9807 -0.0000 -0.1954
vn -0.9807 -0.0000 -0.1956
vn -0.9486 -0.0000 -0.3165
vn -0.9360 0.0001 -0.3519
vn -0.8703 -0.0000 -0.4925
vn -0.8072 -0.0000 -0.5903
vn -0.8177 -0.0000 -0.5756
vn -0.7370 -0.0000 -0.6759
vn -0.7244 -0.0001 -0.6893
vn -0.6517 -0.0000 -0.7585
vn -0.5002 -0.0000 -0.8659
vn -0.5001 -0.0000 -0.8659
vn -0.5343 -0.0000 -0.8453
vn -0.3757 -0.0000 -0.9267
vn -0.3757 -0.0000 -0.9268
vn -0.2852 -0.0000 -0.9585
vn -0.2271 -0.0000 -0.9739
vn -0.1965 -0.0000 -0.9805
vn 0.0328 -0.0000 -0.9995
vn 0.0007 -0.0000 -1.0000
vn 0.0946 -0.0000 -0.9955
vn 0.1951 -0.0000 -0.9808
vn 0.1948 -0.0000 -0.9808
vn 0.3821 -0.0000 -0.9241
vn 0.3820 -0.0000 -0.9242
vn 0.3822 -0.0000 -0.9241
vn 0.5551 -0.0000 -0.8318
vn 0.5550 -0.0000 -0.8318
vn 0.7010 -0.0000 -0.7131
vn 0.8354 -0.0000 -0.5497
vn 0.9236 -0.0000 -0.3833
vn 0.9236 -0.0000 -0.3834
vn 0.9239 -0.0000 -0.3826
vn 0.8488 -0.0000 -0.5288
vn 0.9237 -0.0000 -0.3832
vn 0.9725 -0.0000 -0.2330
vn 0.9992 -0.0000 0.0389
vn 0.9728 -0.0055 -0.2316
vn 0.9238 -0.0037 -0.3829
vn 0.9993 -0.0057 0.0381
vn 0.8518 -0.5066 -0.1332
vn 0.8570 -0.5149 0.0212
vn 0.8242 -0.4847 -0.2927
vn 0.8685 -0.0059 -0.4956
vn 0.7657 -0.4565 -0.4532
vn 0.3906 -0.9092 -0.1438
vn 0.3980 -0.9145 -0.0725
vn 0.3520 -0.9360 0.0022
vn 0.2712 -0.9609 -0.0549
vn 0.2748 -0.9614 -0.0144
vn 0.2727 -0.9619 0.0202
vn 0.3307 -0.9429 0.0391
vn 0.2723 -0.9614 0.0398
vn 0.8437 -0.5084 0.1725
vn 0.3506 -0.9336 0.0745
vn 0.2732 -0.9602 0.0589
vn 0.3934 -0.9083 0.1425
vn 0.2760 -0.9569 0.0905
vn 0.8101 -0.4883 0.3245
vn 0.3846 -0.8995 0.2071
vn 0.2733 -0.9535 0.1270
vn 0.7491 -0.4618 0.4750
vn 0.8315 -0.0035 0.5556
vn 0.8942 -0.0066 0.4475
vn 0.9920 -0.0070 0.1259
vn 0.9107 -0.0000 0.4131
vn 0.9866 -0.0000 0.1630
vn 0.7075 -0.0000 0.7067
vn 0.7078 -0.0034 0.7064
vn 0.5545 -0.0035 0.8322
vn 0.6519 -0.4464 0.6130
vn 0.5211 -0.4540 0.7227
vn 0.3825 -0.0036 0.9240
vn 0.3689 -0.4762 0.7982
vn 0.2880 -0.9040 0.3159
vn 0.2134 -0.9178 0.3348
vn 0.3506 -0.8961 0.2720
vn 0.2090 -0.9584 0.1943
vn 0.1604 -0.9660 0.2028
vn 0.2514 -0.9532 0.1679
vn 0.2061 -0.4957 0.8437
vn 0.1246 -0.9481 0.2926
vn 0.1087 -0.9729 0.2041
vn 0.0717 -0.9599 0.2709
vn 0.0746 -0.9761 0.2039
vn 0.0380 -0.5045 0.8626
vn -0.1322 -0.5004 0.8556
vn 0.0218 -0.9554 0.2943
vn 0.0419 -0.9781 0.2037
vn -0.0649 -0.9373 0.3424
vn -0.0017 -0.9791 0.2034
vn -0.3010 -0.4837 0.8218
vn -0.4640 -0.4614 0.7562
vn -0.1367 -0.9338 0.3307
vn -0.0417 -0.9793 0.1981
vn -0.2006 -0.9345 0.2939
vn -0.0784 -0.9812 0.1762
vn -0.6082 -0.4516 0.6528
vn -0.7191 -0.4656 0.5158
vn -0.2369 -0.9436 0.2312
vn -0.0970 -0.9856 0.1382
vn -0.2472 -0.9553 0.1621
vn -0.0984 -0.9901 0.1002
vn -0.7928 -0.4928 0.3586
vn -0.8360 -0.5142 0.1919
vn -0.1928 -0.9778 0.0820
vn -0.0952 -0.9935 0.0629
vn -0.1675 -0.9852 0.0371
vn -0.0943 -0.9948 0.0374
vn -0.8531 -0.5214 0.0195
vn -0.8443 -0.5128 -0.1553
vn -0.1943 -0.9809 -0.0088
vn -0.0949 -0.9954 0.0117
vn -0.2523 -0.9631 -0.0935
vn -0.0977 -0.9949 -0.0268
vn -0.8075 -0.4899 -0.3287
vn -0.7369 -0.4609 -0.4944
vn -0.2439 -0.9552 -0.1677
vn -0.0959 -0.9932 -0.0663
vn -0.2075 -0.9494 -0.2357
vn -0.0767 -0.9915 -0.1054
vn -0.6264 -0.4458 -0.6395
vn -0.4802 -0.4557 -0.7495
vn -0.1412 -0.9508 -0.2757
vn -0.0389 -0.9909 -0.1285
vn -0.0662 -0.9553 -0.2880
vn 0.0018 -0.9910 -0.1338
vn -0.3130 -0.4793 -0.8199
vn -0.1385 -0.4975 -0.8563
vn 0.0228 -0.9720 -0.2338
vn 0.0440 -0.9900 -0.1338
vn 0.0714 -0.9756 -0.2078
vn 0.0735 -0.9882 -0.1341
vn 0.0368 -0.5021 -0.8640
vn 0.2099 -0.4927 -0.8445
vn 0.1224 -0.9649 -0.2326
vn 0.1045 -0.9854 -0.1346
vn 0.2133 -0.9355 -0.2816
vn 0.1545 -0.9788 -0.1342
vn 0.3780 -0.4717 -0.7967
vn 0.5344 -0.4483 -0.7166
vn 0.2909 -0.9201 -0.2624
vn 0.2039 -0.9708 -0.1262
vn 0.3562 -0.9093 -0.2150
vn 0.2481 -0.9637 -0.0987
vn 0.6678 -0.4404 -0.6001
vn 0.1954 -0.9732 -0.1214
vn 0.2432 -0.9655 -0.0935
vn 0.2677 -0.9623 -0.0473
vn 0.2697 -0.9629 -0.0082
vn 0.2561 -0.9661 -0.0323
vn 0.2552 -0.9669 0.0033
vn 0.2298 -0.9699 -0.0804
vn 0.2255 -0.9742 -0.0073
vn 0.2241 -0.9744 0.0191
vn 0.2008 -0.9782 -0.0523
vn 0.1732 -0.9848 0.0146
vn 0.1782 -0.9835 0.0310
vn 0.1653 -0.9861 -0.0176
vn 0.2204 -0.9749 0.0310
vn 0.2505 -0.9678 0.0241
vn 0.1801 -0.9830 0.0365
vn 0.2198 -0.9748 0.0389
vn 0.2498 -0.9675 0.0393
vn 0.1773 -0.9834 0.0380
vn 0.1446 -0.9888 0.0380
vn 0.1393 -0.9898 0.0312
vn 0.1492 -0.9881 0.0375
vn 0.1753 -0.9837 0.0391
vn 0.1517 -0.9877 0.0372
vn 0.2223 -0.9739 0.0464
vn 0.1773 -0.9832 0.0429
vn 0.1470 -0.9882 0.0420
vn 0.2278 -0.9721 0.0568
vn 0.2521 -0.9662 0.0540
vn 0.2579 -0.9634 0.0727
vn 0.2301 -0.9698 0.0811
vn 0.2597 -0.9599 0.1053
vn 0.1782 -0.9822 0.0594
vn 0.2060 -0.9707 0.1237
vn 0.2343 -0.9604 0.1509
vn 0.1709 -0.9811 0.0904
vn 0.1339 -0.9892 0.0596
vn 0.1327 -0.9865 0.0964
vn 0.1555 -0.9773 0.1440
vn 0.1073 -0.9919 0.0673
vn 0.1073 -0.9892 0.0996
vn 0.1197 -0.9828 0.1407
vn 0.1832 -0.9674 0.1751
vn 0.1381 -0.9750 0.1744
vn 0.0969 -0.9859 0.1361
vn 0.1047 -0.9799 0.1698
vn 0.0916 -0.9907 0.1005
vn 0.0769 -0.9878 0.1354
vn 0.0754 -0.9828 0.1688
vn 0.0789 -0.9917 0.1013
vn 0.0906 -0.9933 0.0722
vn 0.0807 -0.9940 0.0738
vn 0.0715 -0.9946 0.0749
vn 0.0669 -0.9923 0.1038
vn 0.0580 -0.9885 0.1394
vn 0.0573 -0.9957 0.0727
vn 0.0539 -0.9929 0.1061
vn 0.0388 -0.9884 0.1469
vn 0.0476 -0.9840 0.1718
vn 0.0196 -0.9838 0.1782
vn 0.0088 -0.9883 0.1521
vn -0.0179 -0.9833 0.1811
vn 0.0328 -0.9940 0.1048
vn -0.0356 -0.9905 0.1330
vn -0.0628 -0.9852 0.1592
vn -0.0014 -0.9950 0.1001
vn 0.0344 -0.9972 0.0668
vn -0.0059 -0.9977 0.0678
vn -0.0546 -0.9944 0.0901
vn -0.0076 -0.9987 0.0503
vn 0.0283 -0.9985 0.0479
vn -0.0496 -0.9967 0.0635
vn -0.0831 -0.9899 0.1151
vn -0.0788 -0.9936 0.0807
vn -0.0428 -0.9979 0.0494
vn -0.0717 -0.9958 0.0577
vn -0.0064 -0.9991 0.0424
vn -0.0404 -0.9985 0.0367
vn -0.0691 -0.9969 0.0370
vn -0.0051 -0.9993 0.0365
vn 0.0256 -0.9989 0.0390
vn 0.0258 -0.9990 0.0363
vn -0.0058 -0.9995 0.0306
vn 0.0262 -0.9991 0.0335
vn -0.0422 -0.9988 0.0240
vn -0.0066 -0.9997 0.0223
vn 0.0294 -0.9993 0.0243
vn -0.0485 -0.9988 0.0093
vn -0.0710 -0.9973 0.0161
vn -0.0774 -0.9970 -0.0075
vn -0.0530 -0.9984 -0.0182
vn -0.0813 -0.9958 -0.0432
vn -0.0046 -1.0000 0.0041
vn -0.0335 -0.9975 -0.0624
vn -0.0600 -0.9943 -0.0885
vn 0.0006 -0.9996 -0.0286
vn 0.0358 -0.9993 0.0047
vn 0.0346 -0.9988 -0.0344
vn 0.0110 -0.9965 -0.0826
vn 0.0582 -0.9983 -0.0019
vn 0.0554 -0.9978 -0.0364
vn 0.0409 -0.9961 -0.0781
vn -0.0152 -0.9936 -0.1117
vn 0.0224 -0.9938 -0.1092
vn 0.0492 -0.9935 -0.1031
vn 0.0589 -0.9957 -0.0711
vn 0.0673 -0.9971 -0.0346
vn 0.0755 -0.9949 -0.0674
vn 0.0775 -0.9965 -0.0320
vn 0.0741 -0.9922 -0.1002
vn 0.1004 -0.9898 -0.1013
vn 0.0930 -0.9934 -0.0674
vn 0.0884 -0.9956 -0.0306
vn 0.1146 -0.9908 -0.0713
vn 0.1030 -0.9943 -0.0288
vn 0.1324 -0.9856 -0.1056
vn 0.1499 -0.9860 -0.0737
vn 0.1777 -0.9783 -0.1063
vn 0.1275 -0.9915 -0.0243
vn 0.1296 -0.9915 0.0135
vn 0.1038 -0.9946 0.0047
vn 0.1106 -0.9935 0.0256
vn 0.0881 -0.9961 -0.0014
vn 0.0900 -0.9957 0.0216
vn 0.1148 -0.9927 0.0371
vn 0.0917 -0.9951 0.0358
vn 0.1164 -0.9925 0.0371
vn 0.0927 -0.9950 0.0365
vn 0.1162 -0.9925 0.0368
vn 0.0927 -0.9950 0.0371
vn 0.1132 -0.9924 0.0475
vn 0.0918 -0.9945 0.0505
vn 0.0829 -0.9959 0.0374
vn 0.0821 -0.9953 0.0518
vn 0.0738 -0.9966 0.0378
vn 0.0731 -0.9959 0.0525
vn 0.0528 -0.9979 0.0382
vn 0.0543 -0.9972 0.0511
vn 0.0527 -0.9980 0.0361
vn 0.0739 -0.9966 0.0360
vn 0.0530 -0.9980 0.0339
vn 0.0737 -0.9967 0.0340
vn 0.0829 -0.9959 0.0362
vn 0.0823 -0.9960 0.0347
vn 0.0730 -0.9972 0.0188
vn 0.0811 -0.9965 0.0196
vn 0.0550 -0.9983 0.0207
vn 0.0717 -0.9974 -0.0042
vn 0.0795 -0.9968 -0.0030
vn 0.1468 -0.9810 -0.1265
vn 0.1051 -0.9864 -0.1260
vn 0.0734 -0.9894 -0.1254
vn 0.0436 -0.9911 -0.1258
vn 0.0088 -0.9919 -0.1271
vn -0.0312 -0.9918 -0.1243
vn -0.0721 -0.9923 -0.1008
vn -0.0924 -0.9940 -0.0586
vn -0.0923 -0.9955 -0.0199
vn -0.0890 -0.9960 0.0113
vn -0.0883 -0.9954 0.0372
vn -0.0894 -0.9940 0.0628
vn -0.0933 -0.9913 0.0932
vn -0.0939 -0.9870 0.1304
vn -0.0742 -0.9824 0.1711
vn -0.0342 -0.9804 0.1938
vn 0.0054 -0.9805 0.1965
vn 0.0415 -0.9798 0.1954
vn 0.0746 -0.9779 0.1956
vn 0.1096 -0.9746 0.1953
vn 0.1526 -0.9688 0.1951
vn 0.2007 -0.9611 0.1896
vn 0.2469 -0.9553 0.1628
vn 0.2703 -0.9553 0.1197
vn 0.2714 -0.9588 0.0840
vn 0.2682 -0.9616 0.0585
vn 0.2667 -0.9630 0.0396
vn 0.2674 -0.9634 0.0200
vn 0.6549 -0.0055 -0.7557
vn 0.5553 -0.0032 -0.8317
vn 0.6828 -0.0000 -0.7306
vn 0.3824 -0.0034 -0.9240
vn 0.1949 -0.0035 -0.9808
vn 0.0010 -0.0036 -1.0000
vn -0.1963 -0.0035 -0.9805
vn -0.3152 -0.0057 -0.9490
vn -0.3520 -0.0000 -0.9360
vn -0.6090 -0.0062 -0.7931
vn -0.5757 -0.0000 -0.8177
vn -0.6579 -0.0061 -0.7531
vn -0.6887 -0.0000 -0.7251
vn -0.8663 -0.0063 -0.4996
vn -0.8453 -0.0000 -0.5343
vn -0.9273 -0.0037 -0.3744
vn -0.9273 0.0001 -0.3743
vn -0.9808 -0.0036 -0.1951
vn -1.0000 -0.0040 -0.0090
vn -1.0000 -0.0000 -0.0093
vn -0.9790 -0.0040 0.2036
vn -0.9791 -0.0000 0.2036
vn -0.9239 -0.0034 0.3825
vn -0.8316 -0.0033 0.5554
vn -0.8317 -0.0000 0.5552
vn -0.7072 -0.0032 0.7070
vn -0.5557 -0.0033 0.8314
vn -0.3912 -0.0038 0.9203
vn -0.3916 -0.0000 0.9201
vn -0.2238 -0.0058 0.9746
vn -0.2251 -0.0000 0.9743
vn 0.0379 -0.0053 0.9993
vn 0.0384 -0.0000 0.9993
vn 0.1949 -0.0038 0.9808
vn 0.1946 -0.0000 0.9809
vn 0.0327 -0.0000 0.9995
vn 0.3827 -0.0000 0.9239
vn -0.2192 -0.0000 0.9757
vn -0.7071 -0.0000 0.7071
vn -0.8314 -0.0000 -0.5556
vn -0.7071 -0.0000 -0.7071
vn -0.5546 -0.0000 -0.8321
vn -0.1966 -0.0000 -0.9805
vn 0.1946 -0.0000 -0.9809
vn 0.7011 -0.0000 -0.7131
vt 0.161953 0.835406
vt 0.161951 0.834976
vt 0.164590 0.834967
vt 0.164591 0.835398
vt 0.167228 0.834958
vt 0.167229 0.835391
vt 0.159315 0.835417
vt 0.159313 0.834985
vt 0.156676 0.835428
vt 0.156675 0.834993
vt 0.156685 0.838200
vt 0.159324 0.838169
vt 0.161962 0.838150
vt 0.156709 0.845646
vt 0.159348 0.845563
vt 0.161987 0.845520
vt 0.164600 0.838143
vt 0.164625 0.845516
vt 0.167239 0.838147
vt 0.167264 0.845550
vt 0.169878 0.838159
vt 0.169904 0.845612
vt 0.169868 0.835384
vt 0.169866 0.834949
vt 0.172506 0.834940
vt 0.172507 0.835379
vt 0.172517 0.838177
vt 0.175147 0.835373
vt 0.175157 0.838198
vt 0.175145 0.834930
vt 0.177785 0.834921
vt 0.177787 0.835368
vt 0.177797 0.838220
vt 0.180427 0.835363
vt 0.180437 0.838241
vt 0.180425 0.834911
vt 0.183065 0.834901
vt 0.183067 0.835357
vt 0.183078 0.838261
vt 0.185707 0.835351
vt 0.185718 0.838280
vt 0.185705 0.834891
vt 0.188346 0.834881
vt 0.188347 0.835345
vt 0.188358 0.838299
vt 0.190987 0.835339
vt 0.190999 0.838318
vt 0.190986 0.834871
vt 0.193626 0.834861
vt 0.193627 0.835333
vt 0.193639 0.838335
vt 0.196267 0.835326
vt 0.196279 0.838351
vt 0.196265 0.834851
vt 0.198905 0.834841
vt 0.198907 0.835319
vt 0.198919 0.838363
vt 0.201546 0.835311
vt 0.201558 0.838371
vt 0.201544 0.834831
vt 0.204184 0.834820
vt 0.204185 0.835302
vt 0.204197 0.838372
vt 0.206824 0.835293
vt 0.206836 0.838368
vt 0.206823 0.834810
vt 0.209462 0.834800
vt 0.209464 0.835283
vt 0.209476 0.838358
vt 0.212103 0.835271
vt 0.212115 0.838342
vt 0.212101 0.834790
vt 0.214740 0.834779
vt 0.214742 0.835259
vt 0.214754 0.838320
vt 0.217381 0.835247
vt 0.217393 0.838293
vt 0.217380 0.834769
vt 0.220019 0.834758
vt 0.220021 0.835234
vt 0.220033 0.838261
vt 0.222661 0.835219
vt 0.222673 0.838223
vt 0.222659 0.834748
vt 0.140834 0.835043
vt 0.140836 0.835510
vt 0.138195 0.835522
vt 0.138194 0.835051
vt 0.140845 0.838486
vt 0.138205 0.838526
vt 0.143476 0.835497
vt 0.143485 0.838442
vt 0.143475 0.835035
vt 0.146115 0.835027
vt 0.146117 0.835483
vt 0.146126 0.838392
vt 0.148757 0.835469
vt 0.148766 0.838341
vt 0.148756 0.835018
vt 0.151396 0.835010
vt 0.151397 0.835455
vt 0.151406 0.838289
vt 0.154037 0.835441
vt 0.154046 0.838241
vt 0.154036 0.835002
vt 0.151431 0.845902
vt 0.154070 0.845762
vt 0.151449 0.851500
vt 0.154088 0.851269
vt 0.156727 0.851077
vt 0.159366 0.850941
vt 0.156736 0.853850
vt 0.154097 0.854069
vt 0.159375 0.853694
vt 0.601394 0.267987
vt 0.601749 0.267951
vt 0.601976 0.270644
vt 0.601620 0.270625
vt 0.600661 0.265438
vt 0.601006 0.265342
vt 0.151457 0.854335
vt 0.599441 0.263077
vt 0.599763 0.262919
vt 0.599205 0.263187
vt 0.600391 0.265503
vt 0.601105 0.268012
vt 0.598800 0.263387
vt 0.599911 0.265625
vt 0.600581 0.268062
vt 0.601326 0.270612
vt 0.600788 0.270594
vt 0.601321 0.273252
vt 0.601033 0.273201
vt 0.600509 0.273115
vt 0.600249 0.275679
vt 0.599770 0.275523
vt 0.600516 0.275769
vt 0.598997 0.277946
vt 0.598596 0.277715
vt 0.599228 0.278078
vt 0.599529 0.278262
vt 0.600846 0.275898
vt 0.601668 0.273326
vt 0.167283 0.850938
vt 0.167292 0.853694
vt 0.164653 0.853619
vt 0.164644 0.850874
vt 0.162014 0.853618
vt 0.162005 0.850874
vt 0.169923 0.851050
vt 0.169932 0.853824
vt 0.172544 0.845693
vt 0.172563 0.851195
vt 0.172573 0.853993
vt 0.597769 0.280331
vt 0.597510 0.280091
vt 0.595628 0.282011
vt 0.595420 0.281723
vt 0.175204 0.851358
vt 0.175214 0.854182
vt 0.593199 0.283244
vt 0.593050 0.282918
vt 0.595283 0.281504
vt 0.592961 0.282666
vt 0.597325 0.279915
vt 0.595062 0.281115
vt 0.592821 0.282210
vt 0.597016 0.279607
vt 0.590492 0.283632
vt 0.590446 0.283361
vt 0.590381 0.282866
vt 0.587839 0.283568
vt 0.587845 0.283061
vt 0.587844 0.283846
vt 0.585205 0.283543
vt 0.585241 0.283270
vt 0.585317 0.282773
vt 0.582752 0.282486
vt 0.582900 0.282029
vt 0.582674 0.282743
vt 0.580350 0.281464
vt 0.580473 0.281241
vt 0.580697 0.280854
vt 0.578490 0.279579
vt 0.578796 0.279277
vt 0.578320 0.279758
vt 0.576674 0.277680
vt 0.576890 0.277547
vt 0.577281 0.277328
vt 0.575717 0.275234
vt 0.576181 0.275093
vt 0.575467 0.275321
vt 0.574744 0.272773
vt 0.575013 0.272728
vt 0.575518 0.272658
vt 0.574799 0.270130
vt 0.575315 0.270130
vt 0.574523 0.270133
vt 0.574821 0.267504
vt 0.575090 0.267541
vt 0.575593 0.267610
vt 0.575867 0.265061
vt 0.576327 0.265202
vt 0.575618 0.264981
vt 0.576895 0.262666
vt 0.577108 0.262792
vt 0.577492 0.263008
vt 0.578767 0.260818
vt 0.579062 0.261115
vt 0.578600 0.260645
vt 0.580679 0.259009
vt 0.580797 0.259225
vt 0.581008 0.259605
vt 0.583111 0.258059
vt 0.583243 0.258508
vt 0.583039 0.257810
vt 0.585593 0.257096
vt 0.585620 0.257362
vt 0.585680 0.257848
vt 0.588225 0.257154
vt 0.588215 0.257649
vt 0.588239 0.256885
vt 0.590878 0.257192
vt 0.590823 0.257453
vt 0.590743 0.257933
vt 0.593314 0.258239
vt 0.593162 0.258675
vt 0.593412 0.257999
vt 0.595744 0.259284
vt 0.595599 0.259487
vt 0.595368 0.259853
vt 0.597592 0.261153
vt 0.597276 0.261434
vt 0.597783 0.260996
vt 0.594957 0.260503
vt 0.596715 0.261934
vt 0.598081 0.263742
vt 0.599059 0.265843
vt 0.597194 0.264176
vt 0.597988 0.266109
vt 0.596039 0.262554
vt 0.596285 0.264611
vt 0.596854 0.266375
vt 0.595377 0.263195
vt 0.595186 0.264885
vt 0.595528 0.266557
vt 0.594786 0.263784
vt 0.597211 0.268375
vt 0.598474 0.268263
vt 0.595754 0.268452
vt 0.597319 0.270490
vt 0.598622 0.270524
vt 0.595821 0.270456
vt 0.593993 0.268458
vt 0.593882 0.266574
vt 0.594024 0.270416
vt 0.595692 0.272458
vt 0.593936 0.272374
vt 0.597144 0.272600
vt 0.595409 0.274343
vt 0.593769 0.274256
vt 0.596726 0.274584
vt 0.598403 0.272777
vt 0.597852 0.274909
vt 0.596103 0.276322
vt 0.597003 0.276809
vt 0.595013 0.275997
vt 0.595156 0.277700
vt 0.595803 0.278385
vt 0.594582 0.277083
vt 0.593561 0.275987
vt 0.593498 0.277470
vt 0.593761 0.278611
vt 0.591849 0.276115
vt 0.591849 0.277798
vt 0.592018 0.279180
vt 0.594202 0.279550
vt 0.592284 0.280351
vt 0.590029 0.279534
vt 0.590136 0.280839
vt 0.589968 0.278010
vt 0.587918 0.279635
vt 0.587877 0.280980
vt 0.587971 0.278069
vt 0.589980 0.276205
vt 0.588030 0.276223
vt 0.586078 0.276132
vt 0.585975 0.277935
vt 0.585811 0.279448
vt 0.584192 0.275971
vt 0.584088 0.277653
vt 0.583825 0.279017
vt 0.585623 0.280743
vt 0.583488 0.280170
vt 0.582081 0.278387
vt 0.581584 0.279301
vt 0.582421 0.277265
vt 0.580698 0.277429
vt 0.580009 0.278085
vt 0.581324 0.276837
vt 0.582443 0.275780
vt 0.580941 0.275735
vt 0.579795 0.276017
vt 0.580619 0.274064
vt 0.582321 0.274039
vt 0.579236 0.274257
vt 0.578856 0.276469
vt 0.578067 0.274541
vt 0.578882 0.272261
vt 0.577580 0.272392
vt 0.580405 0.272172
vt 0.578773 0.270149
vt 0.577428 0.270135
vt 0.580341 0.270172
vt 0.582230 0.272155
vt 0.582207 0.270199
vt 0.580464 0.268174
vt 0.582286 0.268246
vt 0.578944 0.268043
vt 0.580733 0.266294
vt 0.582431 0.266370
vt 0.579356 0.266064
vt 0.577644 0.267885
vt 0.578193 0.265757
vt 0.579967 0.264333
vt 0.579038 0.263863
vt 0.581107 0.264647
vt 0.580910 0.262961
vt 0.580237 0.262293
vt 0.581520 0.263567
vt 0.582604 0.264647
vt 0.582625 0.263176
vt 0.582316 0.262053
vt 0.584352 0.264511
vt 0.584297 0.262842
vt 0.584075 0.261483
vt 0.581846 0.261135
vt 0.583772 0.260336
vt 0.585924 0.259841
vt 0.586073 0.261122
vt 0.586192 0.262623
vt 0.588187 0.261009
vt 0.588195 0.262558
vt 0.588185 0.259686
vt 0.590439 0.259903
vt 0.590294 0.261182
vt 0.590189 0.262686
vt 0.592273 0.261604
vt 0.592064 0.262966
vt 0.592573 0.260462
vt 0.594004 0.262234
vt 0.594469 0.261331
vt 0.593709 0.263353
vt 0.593728 0.264836
vt 0.592014 0.264641
vt 0.592044 0.266503
vt 0.590148 0.264480
vt 0.590142 0.266423
vt 0.592074 0.268423
vt 0.590139 0.268376
vt 0.592075 0.270374
vt 0.590125 0.270335
vt 0.592019 0.272327
vt 0.590083 0.272297
vt 0.591933 0.274251
vt 0.590029 0.274255
vt 0.588133 0.272267
vt 0.588087 0.274241
vt 0.586172 0.272223
vt 0.586137 0.274180
vt 0.584204 0.272180
vt 0.584207 0.274103
vt 0.584212 0.270231
vt 0.586197 0.270264
vt 0.584258 0.268282
vt 0.586227 0.268305
vt 0.588167 0.270298
vt 0.588190 0.268332
vt 0.586248 0.266354
vt 0.588201 0.266364
vt 0.584314 0.266365
vt 0.586244 0.264413
vt 0.588201 0.264391
vt 0.592892 0.259452
vt 0.590602 0.258785
vt 0.588198 0.258529
vt 0.585788 0.258713
vt 0.583480 0.259306
vt 0.581384 0.260281
vt 0.579587 0.261642
vt 0.578174 0.263393
vt 0.577143 0.265451
vt 0.576486 0.267733
vt 0.576234 0.270130
vt 0.576416 0.272535
vt 0.577007 0.274841
vt 0.577978 0.276937
vt 0.579338 0.278740
vt 0.581095 0.280165
vt 0.583162 0.281215
vt 0.585452 0.281891
vt 0.587855 0.282160
vt 0.590266 0.281987
vt 0.592574 0.281399
vt 0.594668 0.280424
vt 0.596466 0.279059
vt 0.597882 0.277305
vt 0.598919 0.275244
vt 0.599579 0.272961
vt 0.599832 0.270561
vt 0.599651 0.268153
vt 0.598067 0.260774
vt 0.595976 0.259004
vt 0.148818 0.854624
vt 0.148809 0.851753
vt 0.146178 0.854916
vt 0.146169 0.852006
vt 0.143538 0.855192
vt 0.143529 0.852247
vt 0.593582 0.257675
vt 0.140898 0.855438
vt 0.140889 0.852462
vt 0.590981 0.256838
vt 0.138258 0.855653
vt 0.138249 0.852649
vt 0.588271 0.256514
vt 0.220101 0.855537
vt 0.220089 0.852510
vt 0.222728 0.852346
vt 0.222740 0.855350
vt 0.585552 0.256725
vt 0.217461 0.855692
vt 0.217450 0.852645
vt 0.582925 0.257453
vt 0.214822 0.855811
vt 0.214810 0.852750
vt 0.580490 0.258684
vt 0.212183 0.855894
vt 0.212171 0.852824
vt 0.578343 0.260371
vt 0.209544 0.855941
vt 0.209532 0.852865
vt 0.576582 0.262456
vt 0.206905 0.855950
vt 0.206893 0.852874
vt 0.575267 0.264844
vt 0.204265 0.855920
vt 0.204253 0.852850
vt 0.574449 0.267440
vt 0.201626 0.855852
vt 0.201614 0.852793
vt 0.574147 0.270144
vt 0.198986 0.855746
vt 0.198974 0.852702
vt 0.574377 0.272855
vt 0.196345 0.855611
vt 0.196333 0.852586
vt 0.575126 0.275473
vt 0.193704 0.855455
vt 0.193693 0.852452
vt 0.576374 0.277897
vt 0.191063 0.855286
vt 0.191052 0.852307
vt 0.578074 0.280033
vt 0.188422 0.855110
vt 0.188411 0.852155
vt 0.580168 0.281784
vt 0.185780 0.854930
vt 0.185769 0.852001
vt 0.582561 0.283092
vt 0.183139 0.854750
vt 0.183128 0.851846
vt 0.585159 0.283906
vt 0.180497 0.854566
vt 0.180487 0.851688
vt 0.587865 0.284209
vt 0.177856 0.854375
vt 0.177845 0.851524
vt 0.590578 0.283982
vt 0.177825 0.845879
vt 0.180466 0.845972
vt 0.175184 0.845785
vt 0.183106 0.846061
vt 0.185747 0.846148
vt 0.188388 0.846235
vt 0.191029 0.846320
vt 0.193670 0.846401
vt 0.196310 0.846476
vt 0.198950 0.846540
vt 0.201590 0.846589
vt 0.204229 0.846619
vt 0.206869 0.846629
vt 0.209508 0.846619
vt 0.212147 0.846590
vt 0.214786 0.846543
vt 0.217425 0.846477
vt 0.220065 0.846393
vt 0.222705 0.846292
vt 0.140870 0.846482
vt 0.138230 0.846595
vt 0.143510 0.846352
vt 0.146150 0.846207
vt 0.148791 0.846054
s 1
f 5/1/1 4/2/1 1/3/2 2/4/2
f 3/5/3 20/6/3 2/4/2 1/3/2
f 4/2/1 5/1/1 8/7/4 6/8/4
f 9/9/5 7/10/5 6/8/4 8/7/4
f 11/11/6 9/9/5 8/7/4 10/12/7
f 5/1/1 13/13/1 10/12/7 8/7/4
f 104/14/8 11/11/6 10/12/7 12/15/9
f 13/13/1 14/16/10 12/15/9 10/12/7
f 14/16/10 13/13/1 15/17/2 16/18/2
f 13/13/1 5/1/1 2/4/2 15/17/2
f 17/19/3 18/20/11 16/18/2 15/17/2
f 20/6/3 17/19/3 15/17/2 2/4/2
f 18/20/11 17/19/3 19/21/12 137/22/12
f 17/19/3 20/6/3 21/23/13 19/21/12
f 20/6/3 3/5/3 22/24/14 21/23/13
f 25/25/15 23/26/16 21/23/13 22/24/14
f 23/26/16 24/27/17 19/21/12 21/23/13
f 24/27/17 23/26/16 26/28/18 28/29/19
f 23/26/16 25/25/15 27/30/20 26/28/18
f 31/31/21 29/32/21 26/28/18 27/30/20
f 29/32/21 30/33/22 28/29/19 26/28/18
f 30/33/22 29/32/21 32/34/23 34/35/24
f 29/32/21 31/31/21 33/36/23 32/34/23
f 37/37/25 35/38/26 32/34/23 33/36/23
f 35/38/26 36/39/27 34/35/24 32/34/23
f 36/39/27 35/38/26 38/40/28 40/41/29
f 35/38/26 37/37/25 39/42/30 38/40/28
f 43/43/31 41/44/32 38/40/28 39/42/30
f 41/44/32 42/45/32 40/41/29 38/40/28
f 42/45/32 41/44/32 44/46/33 46/47/33
f 41/44/32 43/43/31 45/48/33 44/46/33
f 49/49/34 47/50/35 44/46/33 45/48/33
f 47/50/35 48/51/34 46/47/33 44/46/33
f 48/51/34 47/50/35 50/52/36 52/53/36
f 47/50/35 49/49/34 51/54/36 50/52/36
f 55/55/37 53/56/38 50/52/36 51/54/36
f 53/56/38 54/57/39 52/53/36 50/52/36
f 54/57/39 53/56/38 56/58/40 58/59/41
f 53/56/38 55/55/37 57/60/42 56/58/40
f 61/61/43 59/62/44 56/58/40 57/60/42
f 59/62/44 60/63/45 58/59/41 56/58/40
f 60/63/45 59/62/44 62/64/46 64/65/47
f 59/62/44 61/61/43 63/66/46 62/64/46
f 67/67/48 65/68/49 62/64/46 63/66/46
f 65/68/49 66/69/50 64/65/47 62/64/46
f 66/69/50 65/68/49 68/70/51 70/71/52
f 65/68/49 67/67/48 69/72/53 68/70/51
f 73/73/54 71/74/55 68/70/51 69/72/53
f 71/74/55 72/75/56 70/71/52 68/70/51
f 72/75/56 71/74/55 74/76/57 76/77/58
f 71/74/55 73/73/54 75/78/57 74/76/57
f 79/79/59 77/80/60 74/76/57 75/78/57
f 77/80/60 78/81/61 76/77/58 74/76/57
f 78/81/61 77/80/60 80/82/62 82/83/63
f 77/80/60 79/79/59 81/84/64 80/82/62
f 85/85/65 83/86/66 80/87/62 81/88/64
f 83/86/66 84/89/65 82/90/63 80/87/62
f 84/89/65 83/86/66 86/91/67 88/92/68
f 83/86/66 85/85/65 87/93/69 86/91/67
f 91/94/70 89/95/71 86/91/67 87/93/69
f 89/95/71 90/96/71 88/92/68 86/91/67
f 90/96/71 89/95/71 92/97/72 94/98/72
f 89/95/71 91/94/70 93/99/72 92/97/72
f 97/100/73 95/101/73 92/97/72 93/99/72
f 95/101/73 96/102/73 94/98/72 92/97/72
f 96/102/73 95/101/73 98/103/74 100/104/74
f 95/101/73 97/100/73 99/105/75 98/103/74
f 7/10/5 9/9/5 98/103/74 99/105/75
f 9/9/5 11/11/6 100/104/74 98/103/74
f 102/106/73 96/102/73 100/104/74 101/107/76
f 11/11/6 104/14/8 101/107/76 100/104/74
f 465/108/77 102/106/73 101/107/76 103/109/78
f 104/14/8 105/110/79 103/109/78 101/107/76
f 105/110/79 104/14/8 12/15/9 106/111/80
f 105/110/79 107/112/81 110/113/82 103/109/78
f 107/112/81 105/110/79 106/111/80 108/114/83
f 109/115/84 107/116/81 108/117/83 120/118/85
f 107/116/81 109/115/84 112/119/86 110/120/82
f 111/121/87 465/108/77 103/109/78 110/113/82
f 113/122/88 111/123/87 110/120/82 112/119/86
f 115/124/89 113/122/88 112/119/86 114/125/90
f 109/115/84 117/126/91 114/125/90 112/119/86
f 217/127/92 115/124/89 114/125/90 116/128/93
f 117/126/91 118/129/94 116/128/93 114/125/90
f 118/129/94 117/126/91 119/130/95 121/131/96
f 117/126/91 109/115/84 120/118/85 119/130/95
f 124/132/97 122/133/98 119/130/95 120/118/85
f 122/133/98 123/134/99 121/131/96 119/130/95
f 123/134/99 122/133/98 125/135/100 126/136/101
f 122/133/98 124/132/97 128/137/102 125/135/100
f 127/138/103 390/139/104 126/136/101 125/135/100
f 129/140/105 127/138/103 125/135/100 128/137/102
f 131/141/106 129/140/105 128/137/102 130/142/107
f 124/132/97 133/143/108 130/142/107 128/137/102
f 135/144/3 131/145/106 130/146/107 132/147/109
f 133/148/108 134/149/110 132/147/109 130/146/107
f 134/149/110 133/148/108 108/114/83 106/111/80
f 133/143/108 124/132/97 120/118/85 108/117/83
f 134/149/110 14/16/10 16/18/2 132/147/109
f 14/16/10 134/149/110 106/111/80 12/15/9
f 18/20/11 135/144/3 132/147/109 16/18/2
f 135/144/3 18/20/11 137/22/12 136/150/111
f 131/145/106 135/144/3 136/150/111 139/151/112
f 443/152/17 138/153/17 136/150/111 137/22/12
f 138/153/17 141/154/113 139/151/112 136/150/111
f 129/140/105 131/141/106 139/155/112 140/156/114
f 141/157/113 143/158/115 140/156/114 139/155/112
f 141/154/113 138/153/17 441/159/19 142/160/116
f 143/158/115 141/157/113 142/161/116 144/162/117
f 145/163/118 143/158/115 144/162/117 148/164/119
f 143/158/115 145/163/118 147/165/120 140/156/114
f 146/166/121 145/163/118 148/164/119 149/167/122
f 145/163/118 146/166/121 387/168/123 147/165/120
f 152/169/124 150/170/125 148/164/119 144/162/117
f 150/170/125 151/171/126 149/167/122 148/164/119
f 151/171/126 150/170/125 153/172/127 155/173/128
f 150/170/125 152/169/124 154/174/129 153/172/127
f 158/175/130 156/176/131 153/172/127 154/174/129
f 156/176/131 157/177/132 155/173/128 153/172/127
f 157/177/132 156/176/131 159/178/133 161/179/134
f 156/176/131 158/175/130 160/180/135 159/178/133
f 164/181/136 162/182/137 159/178/133 160/180/135
f 162/182/137 163/183/138 161/179/134 159/178/133
f 163/183/138 162/182/137 165/184/139 167/185/140
f 162/182/137 164/181/136 166/186/141 165/184/139
f 170/187/142 168/188/143 165/184/139 166/186/141
f 168/188/143 169/189/144 167/185/140 165/184/139
f 169/189/144 168/188/143 171/190/145 173/191/146
f 168/188/143 170/187/142 172/192/147 171/190/145
f 176/193/148 174/194/149 171/190/145 172/192/147
f 174/194/149 175/195/150 173/191/146 171/190/145
f 175/195/150 174/194/149 177/196/151 179/197/152
f 174/194/149 176/193/148 178/198/153 177/196/151
f 182/199/154 180/200/155 177/196/151 178/198/153
f 180/200/155 181/201/156 179/197/152 177/196/151
f 181/201/156 180/200/155 183/202/157 185/203/158
f 180/200/155 182/199/154 184/204/159 183/202/157
f 188/205/160 186/206/161 183/202/157 184/204/159
f 186/206/161 187/207/162 185/203/158 183/202/157
f 187/207/162 186/206/161 189/208/163 191/209/164
f 186/206/161 188/205/160 190/210/165 189/208/163
f 194/211/166 192/212/167 189/208/163 190/210/165
f 192/212/167 193/213/168 191/209/164 189/208/163
f 193/213/168 192/212/167 195/214/169 197/215/170
f 192/212/167 194/211/166 196/216/171 195/214/169
f 200/217/172 198/218/173 195/214/169 196/216/171
f 198/218/173 199/219/174 197/215/170 195/214/169
f 199/219/174 198/218/173 201/220/175 203/221/176
f 198/218/173 200/217/172 202/222/177 201/220/175
f 206/223/178 204/224/179 201/220/175 202/222/177
f 204/224/179 205/225/180 203/221/176 201/220/175
f 205/225/180 204/224/179 207/226/181 209/227/182
f 204/224/179 206/223/178 208/228/183 207/226/181
f 212/229/184 210/230/185 207/226/181 208/228/183
f 210/230/185 211/231/186 209/227/182 207/226/181
f 211/231/186 210/230/185 213/232/187 215/233/188
f 210/230/185 212/229/184 214/234/189 213/232/187
f 113/122/88 115/124/89 213/232/187 214/234/189
f 115/124/89 217/127/92 215/233/188 213/232/187
f 359/235/190 211/231/186 215/233/188 216/236/191
f 217/127/92 218/237/192 216/236/191 215/233/188
f 218/237/192 217/127/92 116/128/93 219/238/193
f 220/239/194 218/237/192 219/238/193 221/240/195
f 218/237/192 220/239/194 222/241/196 216/236/191
f 223/242/197 220/239/194 221/240/195 226/243/198
f 220/239/194 223/242/197 225/244/199 222/241/196
f 224/245/200 223/242/197 226/243/198 227/246/201
f 223/242/197 224/245/200 322/247/202 225/244/199
f 228/248/203 226/243/198 221/240/195 229/249/204
f 226/243/198 228/248/203 231/250/205 227/246/201
f 230/251/206 228/248/203 229/249/204 395/252/207
f 228/248/203 230/251/206 233/253/208 231/250/205
f 231/250/205 232/254/209 323/255/210 227/246/201
f 232/254/209 231/250/205 233/253/208 234/256/211
f 235/257/212 236/258/213 234/256/211 233/253/208
f 230/251/206 238/259/214 235/257/212 233/253/208
f 236/258/213 235/257/212 237/260/215 336/261/216
f 238/259/214 240/262/217 237/260/215 235/257/212
f 238/259/214 230/251/206 395/252/207 239/263/218
f 240/262/217 238/259/214 239/263/218 241/264/219
f 242/265/220 240/262/217 241/264/219 243/266/221
f 240/262/217 242/265/220 245/267/222 237/260/215
f 244/268/223 242/265/220 243/266/221 389/269/224
f 242/265/220 244/268/223 247/270/225 245/267/222
f 245/267/222 246/271/226 336/261/216 237/260/215
f 246/271/226 245/267/222 247/270/225 248/272/227
f 250/273/228 248/272/227 247/270/225 244/268/223
f 337/274/229 246/271/226 248/272/227 249/275/230
f 248/272/227 250/273/228 252/276/231 249/275/230
f 251/277/232 250/273/228 244/268/223 389/269/224
f 250/273/228 251/277/232 253/278/233 252/276/231
f 254/279/234 252/276/231 253/278/233 255/280/235
f 252/276/231 254/279/234 257/281/236 249/275/230
f 256/282/237 254/279/234 255/280/235 383/283/238
f 254/279/234 256/282/237 259/284/239 257/281/236
f 258/285/240 337/274/229 249/275/230 257/281/236
f 260/286/241 258/285/240 257/281/236 259/284/239
f 262/287/242 260/286/241 259/284/239 261/288/243
f 256/282/237 264/289/244 261/288/243 259/284/239
f 345/290/245 262/287/242 261/288/243 263/291/246
f 264/289/244 266/292/247 263/291/246 261/288/243
f 264/289/244 256/282/237 383/283/238 265/293/248
f 266/292/247 264/289/244 265/293/248 267/294/249
f 268/295/250 266/292/247 267/294/249 269/296/251
f 266/292/247 268/295/250 271/297/252 263/291/246
f 270/298/253 268/295/250 269/296/251 378/299/254
f 268/295/250 270/298/253 273/300/255 271/297/252
f 272/301/256 345/290/245 263/291/246 271/297/252
f 274/302/257 272/301/256 271/297/252 273/300/255
f 276/303/258 274/302/257 273/300/255 270/298/253
f 272/301/256 274/302/257 275/304/259 344/305/260
f 274/302/257 276/303/258 278/306/261 275/304/259
f 277/307/262 276/303/258 270/298/253 378/299/254
f 276/303/258 277/307/262 279/308/263 278/306/261
f 280/309/264 278/306/261 279/308/263 281/310/265
f 278/306/261 280/309/264 283/311/266 275/304/259
f 282/312/267 280/309/264 281/310/265 373/313/268
f 280/309/264 282/312/267 285/314/269 283/311/266
f 284/315/270 283/311/266 285/314/269 286/316/271
f 283/311/266 284/315/270 344/305/260 275/304/259
f 287/317/272 288/318/273 286/316/271 285/314/269
f 290/319/274 287/317/272 285/314/269 282/312/267
f 288/318/273 287/317/272 289/320/275 357/321/276
f 287/317/272 290/319/274 292/322/277 289/320/275
f 291/323/278 290/319/274 282/312/267 373/313/268
f 290/319/274 291/323/278 293/324/279 292/322/277
f 294/325/280 292/322/277 293/324/279 295/326/281
f 292/322/277 294/325/280 297/327/282 289/320/275
f 296/328/283 294/325/280 295/326/281 368/329/284
f 294/325/280 296/328/283 299/330/285 297/327/282
f 298/331/286 297/327/282 299/330/285 300/332/287
f 297/327/282 298/331/286 357/321/276 289/320/275
f 302/333/288 300/332/287 299/330/285 296/328/283
f 356/334/289 298/331/286 300/332/287 301/335/290
f 300/332/287 302/333/288 304/336/291 301/335/290
f 303/337/292 302/333/288 296/328/283 368/329/284
f 302/333/288 303/337/292 305/338/293 304/336/291
f 308/339/294 306/340/295 304/336/291 305/338/293
f 306/340/295 307/341/296 301/335/290 304/336/291
f 307/341/296 306/340/295 309/342/297 311/343/298
f 306/340/295 308/339/294 310/344/299 309/342/297
f 314/345/300 312/346/301 309/342/297 310/344/299
f 312/346/301 313/347/302 311/343/298 309/342/297
f 313/347/302 312/346/301 315/348/303 317/349/304
f 312/346/301 314/345/300 316/350/305 315/348/303
f 318/351/306 315/348/303 316/350/305 319/352/307
f 315/348/303 318/351/306 320/353/308 317/349/304
f 225/244/199 318/351/306 319/352/307 222/241/196
f 318/351/306 225/244/199 322/247/202 320/353/308
f 321/354/309 324/355/310 317/349/304 320/353/308
f 224/245/200 321/354/309 320/353/308 322/247/202
f 321/354/309 224/245/200 227/246/201 323/255/210
f 324/355/310 321/354/309 323/255/210 326/356/311
f 324/355/310 325/357/312 313/347/302 317/349/304
f 325/357/312 324/355/310 326/356/311 327/358/313
f 328/359/314 329/360/315 327/358/313 326/356/311
f 232/254/209 328/359/314 326/356/311 323/255/210
f 329/360/315 328/359/314 330/361/316 331/362/317
f 328/359/314 232/254/209 234/256/211 330/361/316
f 332/363/318 333/364/319 331/362/317 330/361/316
f 236/258/213 332/363/318 330/361/316 234/256/211
f 333/364/319 332/363/318 334/365/320 335/366/321
f 332/363/318 236/258/213 336/261/216 334/365/320
f 337/274/229 258/285/240 335/366/321 334/365/320
f 246/271/226 337/274/229 334/365/320 336/261/216
f 339/367/322 333/364/319 335/366/321 338/368/323
f 258/285/240 260/286/241 338/368/323 335/366/321
f 341/369/324 339/367/322 338/368/323 340/370/325
f 260/286/241 262/287/242 340/370/325 338/368/323
f 343/371/326 341/369/324 340/370/325 342/372/327
f 262/287/242 345/290/245 342/372/327 340/370/325
f 284/315/270 343/371/326 342/372/327 344/305/260
f 345/290/245 272/301/256 344/305/260 342/372/327
f 343/371/326 284/315/270 286/316/271 346/373/328
f 341/369/324 343/371/326 346/373/328 348/374/329
f 347/375/330 350/376/331 348/374/329 346/373/328
f 288/318/273 347/375/330 346/373/328 286/316/271
f 339/367/322 341/369/324 348/374/329 349/377/332
f 350/376/331 351/378/333 349/377/332 348/374/329
f 351/378/333 350/376/331 352/379/334 353/380/335
f 350/376/331 347/375/330 355/381/336 352/379/334
f 354/382/337 358/383/338 353/380/335 352/379/334
f 356/334/289 354/382/337 352/379/334 355/381/336
f 298/331/286 356/334/289 355/381/336 357/321/276
f 347/375/330 288/318/273 357/321/276 355/381/336
f 354/382/337 356/334/289 301/335/290 307/341/296
f 358/383/338 354/382/337 307/341/296 311/343/298
f 358/383/338 325/357/312 327/358/313 353/380/335
f 325/357/312 358/383/338 311/343/298 313/347/302
f 329/360/315 351/378/333 353/380/335 327/358/313
f 351/378/333 329/360/315 331/362/317 349/377/332
f 333/364/319 339/367/322 349/377/332 331/362/317
f 359/235/190 319/352/307 316/350/305 360/384/339
f 319/352/307 359/235/190 216/236/191 222/241/196
f 211/231/186 359/235/190 360/384/339 209/227/182
f 361/385/340 205/225/180 209/227/182 360/384/339
f 314/345/300 361/385/340 360/384/339 316/350/305
f 205/225/180 361/385/340 362/386/341 203/221/176
f 361/385/340 314/345/300 310/344/299 362/386/341
f 363/387/342 199/219/174 203/221/176 362/386/341
f 308/339/294 363/387/342 362/386/341 310/344/299
f 199/219/174 363/387/342 364/388/343 197/215/170
f 363/387/342 308/339/294 305/338/293 364/388/343
f 365/389/344 193/213/168 197/215/170 364/388/343
f 303/337/292 365/389/344 364/388/343 305/338/293
f 193/213/168 365/389/344 366/390/345 191/209/164
f 365/389/344 303/337/292 368/329/284 366/390/345
f 367/391/346 187/207/162 191/209/164 366/390/345
f 295/326/281 367/391/346 366/390/345 368/329/284
f 187/207/162 367/391/346 369/392/347 185/203/158
f 367/391/346 295/326/281 293/324/279 369/392/347
f 370/393/348 181/201/156 185/203/158 369/392/347
f 291/323/278 370/393/348 369/392/347 293/324/279
f 181/201/156 370/393/348 371/394/349 179/197/152
f 370/393/348 291/323/278 373/313/268 371/394/349
f 372/395/350 175/195/150 179/197/152 371/394/349
f 281/310/265 372/395/350 371/394/349 373/313/268
f 175/195/150 372/395/350 374/396/351 173/191/146
f 372/395/350 281/310/265 279/308/263 374/396/351
f 375/397/352 169/189/144 173/191/146 374/396/351
f 277/307/262 375/397/352 374/396/351 279/308/263
f 169/189/144 375/397/352 376/398/353 167/185/140
f 375/397/352 277/307/262 378/299/254 376/398/353
f 377/399/354 163/183/138 167/185/140 376/398/353
f 269/296/251 377/399/354 376/398/353 378/299/254
f 163/183/138 377/399/354 379/400/355 161/179/134
f 377/399/354 269/296/251 267/294/249 379/400/355
f 380/401/356 157/177/132 161/179/134 379/400/355
f 265/293/248 380/401/356 379/400/355 267/294/249
f 157/177/132 380/401/356 381/402/357 155/173/128
f 380/401/356 265/293/248 383/283/238 381/402/357
f 382/403/358 151/171/126 155/173/128 381/402/357
f 255/280/235 382/403/358 381/402/357 383/283/238
f 151/171/126 382/403/358 384/404/359 149/167/122
f 382/403/358 255/280/235 253/278/233 384/404/359
f 385/405/360 146/166/121 149/167/122 384/404/359
f 251/277/232 385/405/360 384/404/359 253/278/233
f 146/166/121 385/405/360 386/406/361 387/168/123
f 385/405/360 251/277/232 389/269/224 386/406/361
f 388/407/362 390/139/104 387/168/123 386/406/361
f 243/266/221 388/407/362 386/406/361 389/269/224
f 390/139/104 388/407/362 391/408/363 126/136/101
f 388/407/362 243/266/221 241/264/219 391/408/363
f 239/263/218 392/409/364 391/408/363 241/264/219
f 392/409/364 123/134/99 126/136/101 391/408/363
f 123/134/99 392/409/364 393/410/365 121/131/96
f 392/409/364 239/263/218 395/252/207 393/410/365
f 394/411/366 118/129/94 121/131/96 393/410/365
f 229/249/204 394/411/366 393/410/365 395/252/207
f 118/129/94 394/411/366 219/238/193 116/128/93
f 394/411/366 229/249/204 221/240/195 219/238/193
f 390/139/104 127/138/103 147/165/120 387/168/123
f 111/123/87 113/122/88 214/234/189 396/412/367
f 212/229/184 398/413/368 396/412/367 214/234/189
f 465/108/77 111/121/87 396/414/367 397/415/369
f 398/416/368 399/417/71 397/415/369 396/414/367
f 399/417/71 398/416/368 400/418/370 401/419/69
f 398/413/368 212/229/184 208/228/183 400/420/370
f 402/421/371 403/422/65 401/419/69 400/418/370
f 206/223/178 402/423/371 400/420/370 208/228/183
f 403/422/65 402/421/371 404/424/372 405/425/63
f 402/423/371 206/223/178 202/222/177 404/426/372
f 406/427/373 407/428/61 405/429/63 404/430/372
f 200/217/172 406/431/373 404/426/372 202/222/177
f 407/428/61 406/427/373 408/432/374 409/433/375
f 406/431/373 200/217/172 196/216/171 408/434/374
f 410/435/376 411/436/377 409/433/375 408/432/374
f 194/211/166 410/437/376 408/434/374 196/216/171
f 411/436/377 410/435/376 412/438/378 413/439/379
f 410/437/376 194/211/166 190/210/165 412/440/378
f 414/441/380 415/442/381 413/439/379 412/438/378
f 188/205/160 414/443/380 412/440/378 190/210/165
f 415/442/381 414/441/380 416/444/382 417/445/383
f 414/443/380 188/205/160 184/204/159 416/446/382
f 418/447/384 419/448/43 417/445/383 416/444/382
f 182/199/154 418/449/384 416/446/382 184/204/159
f 419/448/43 418/447/384 420/450/385 421/451/386
f 418/449/384 182/199/154 178/198/153 420/452/385
f 422/453/387 423/454/388 421/451/386 420/450/385
f 176/193/148 422/455/387 420/452/385 178/198/153
f 423/454/388 422/453/387 424/456/389 425/457/36
f 422/455/387 176/193/148 172/192/147 424/458/389
f 426/459/390 427/460/391 425/457/36 424/456/389
f 170/187/142 426/461/390 424/458/389 172/192/147
f 427/460/391 426/459/390 428/462/392 429/463/33
f 426/461/390 170/187/142 166/186/141 428/464/392
f 430/465/393 431/466/32 429/463/33 428/462/392
f 164/181/136 430/467/393 428/464/392 166/186/141
f 431/466/32 430/465/393 432/468/394 433/469/395
f 430/467/393 164/181/136 160/180/135 432/470/394
f 434/471/396 435/472/397 433/469/395 432/468/394
f 158/175/130 434/473/396 432/470/394 160/180/135
f 435/472/397 434/471/396 436/474/398 437/475/399
f 434/473/396 158/175/130 154/174/129 436/476/398
f 438/477/400 439/478/401 437/475/399 436/474/398
f 152/169/124 438/479/400 436/476/398 154/174/129
f 439/478/401 438/477/400 142/160/116 441/159/19
f 438/479/400 152/169/124 144/162/117 142/161/116
f 439/478/401 440/480/21 444/481/402 437/475/399
f 440/480/21 439/478/401 441/159/19 442/482/403
f 138/153/17 443/152/17 442/482/403 441/159/19
f 30/33/22 440/480/21 442/482/403 28/29/19
f 443/152/17 24/27/17 28/29/19 442/482/403
f 24/27/17 443/152/17 137/22/12 19/21/12
f 440/480/21 30/33/22 34/35/24 444/481/402
f 36/39/27 445/483/404 444/481/402 34/35/24
f 445/483/404 435/472/397 437/475/399 444/481/402
f 435/472/397 445/483/404 446/484/395 433/469/395
f 445/483/404 36/39/27 40/41/29 446/484/395
f 42/45/32 447/485/32 446/484/395 40/41/29
f 447/485/32 431/466/32 433/469/395 446/484/395
f 431/466/32 447/485/32 448/486/405 429/463/33
f 447/485/32 42/45/32 46/47/33 448/486/405
f 48/51/34 449/487/34 448/486/405 46/47/33
f 449/487/34 427/460/391 429/463/33 448/486/405
f 427/460/391 449/487/34 450/488/36 425/457/36
f 449/487/34 48/51/34 52/53/36 450/488/36
f 54/57/39 451/489/388 450/488/36 52/53/36
f 451/489/388 423/454/388 425/457/36 450/488/36
f 423/454/388 451/489/388 452/490/386 421/451/386
f 451/489/388 54/57/39 58/59/41 452/490/386
f 60/63/45 453/491/43 452/490/386 58/59/41
f 453/491/43 419/448/43 421/451/386 452/490/386
f 419/448/43 453/491/43 454/492/383 417/445/383
f 453/491/43 60/63/45 64/65/47 454/492/383
f 66/69/50 455/493/406 454/492/383 64/65/47
f 455/493/406 415/442/381 417/445/383 454/492/383
f 415/442/381 455/493/406 456/494/407 413/439/379
f 455/493/406 66/69/50 70/71/52 456/494/407
f 72/75/56 457/495/408 456/494/407 70/71/52
f 457/495/408 411/436/377 413/439/379 456/494/407
f 411/436/377 457/495/408 458/496/58 409/433/375
f 457/495/408 72/75/56 76/77/58 458/496/58
f 78/81/61 459/497/409 458/496/58 76/77/58
f 459/497/409 407/428/61 409/433/375 458/496/58
f 407/428/61 459/497/409 460/498/63 405/429/63
f 459/497/409 78/81/61 82/83/63 460/498/63
f 84/89/65 461/499/410 460/500/63 82/90/63
f 461/499/410 403/422/65 405/425/63 460/500/63
f 403/422/65 461/499/410 462/501/69 401/419/69
f 461/499/410 84/89/65 88/92/68 462/501/69
f 90/96/71 463/502/71 462/501/69 88/92/68
f 463/502/71 399/417/71 401/419/69 462/501/69
f 399/417/71 463/502/71 464/503/411 397/415/369
f 463/502/71 90/96/71 94/98/72 464/503/411
f 96/102/73 102/106/73 464/503/411 94/98/72
f 102/106/73 465/108/77 397/415/369 464/503/411
f 127/138/103 129/140/105 140/156/114 147/165/120
