# Blender 4.5.3 LTS
# www.blender.org
o Dualsense.046
v -55.586403 -22.892286 21.484192
v -55.906708 -22.907515 21.484192
v -55.588226 -22.892376 22.128456
v -55.160816 -22.872051 21.484192
v -55.587551 -22.892342 20.839935
v -55.906948 -22.907526 20.791626
v -55.164261 -22.872215 20.946884
v -55.582382 -22.892092 20.195770
v -55.570324 -22.891520 19.804474
v -55.905731 -22.907471 20.099045
v -55.149605 -22.871517 20.410637
v -54.674370 -22.848921 20.682312
v -55.116009 -22.869919 20.096436
v -55.052902 -22.866920 19.845413
v -54.617001 -22.846186 20.457985
v -54.513733 -22.841280 20.283592
v -54.150455 -22.824013 20.811157
v -54.223660 -22.827496 20.949486
v -54.004883 -22.817095 20.710281
v -53.778694 -22.806341 21.113396
v -53.638599 -22.797489 21.286530
v -53.598507 -22.797768 21.070129
v -53.924088 -22.813257 21.122963
v -53.862305 -22.808125 21.307709
v -54.213554 -22.827015 21.211929
v -53.830177 -22.804977 21.484200
v -54.173973 -22.825130 21.484200
v -53.859451 -22.807945 21.660072
v -53.575977 -22.792896 21.484200
v -53.374763 -22.783321 21.484200
v -53.630913 -22.797075 21.678726
v -53.436234 -22.787815 21.700172
v -53.778694 -22.806341 21.855003
v -54.150467 -22.824013 22.157234
v -53.924088 -22.813257 21.845444
v -53.598507 -22.797768 21.898262
v -53.355587 -22.786221 21.957214
v -54.004883 -22.817095 22.258102
v -54.513741 -22.841280 22.684807
v -53.805679 -22.807621 22.387276
v -53.551212 -22.795519 22.546669
v -54.367527 -22.834339 22.900635
v -54.175674 -22.825209 23.147423
v -54.953163 -22.862171 23.425720
v -54.815586 -22.855637 23.757729
v -55.468300 -22.886677 23.860428
v -55.052914 -22.866920 23.122978
v -55.116013 -22.869919 22.871948
v -55.536812 -22.889929 23.483109
v -55.879818 -22.906235 23.675697
v -55.570332 -22.891520 23.163918
v -55.582394 -22.892092 22.772621
v -55.902817 -22.907337 23.308357
v -56.256863 -22.924160 23.371353
v -55.905739 -22.907471 22.869347
v -56.261116 -22.924364 22.910011
v -55.907108 -22.907534 22.176765
v -56.263996 -22.924503 22.197105
v -56.264061 -22.924503 21.484192
v -56.621635 -22.941509 22.202530
v -56.621403 -22.941498 21.484192
v -58.230667 -23.018003 22.242165
v -56.621601 -22.941505 22.920868
v -58.231895 -23.018066 23.000130
v -56.621052 -22.941479 23.392670
v -58.232681 -23.018105 23.504311
v -56.601707 -22.940552 23.795502
v -58.222187 -23.017605 23.937286
v -56.545261 -22.937868 24.257584
v -56.232822 -22.923016 23.761375
v -56.170776 -22.920069 24.210251
v -56.083061 -22.915897 24.663300
v -55.818611 -22.903320 24.102570
v -55.728439 -22.899040 24.541344
v -55.367611 -22.881886 24.261177
v -55.702816 -22.810404 24.752472
v -55.362213 -22.797195 24.497299
v -56.010853 -22.823700 24.848648
v -55.692127 -22.647009 24.889481
v -55.376518 -22.631929 24.654182
v -55.952068 -22.659500 24.962486
v -55.689621 -21.812958 24.887733
v -55.687107 -20.978880 24.885994
v -55.374954 -21.801588 24.652657
v -55.948322 -21.822401 24.960770
v -56.304077 -21.835182 25.002014
v -55.944580 -20.985306 24.959038
v -55.937077 -20.354082 24.955605
v -56.299984 -20.993864 25.000481
v -56.291805 -20.354202 24.997437
v -58.047852 -21.035419 25.203049
v -58.036961 -20.354048 25.200157
v -59.823902 -21.077698 25.360016
v -58.053291 -21.897589 25.204506
v -58.058727 -22.759768 25.205956
v -59.830788 -21.961039 25.361404
v -60.661167 -21.990860 25.390686
v -59.837677 -22.844376 25.362801
v -59.839619 -23.003494 25.248108
v -60.669056 -22.883980 25.391899
v -60.657475 -23.042170 25.278641
v -61.018215 -22.900679 25.327850
v -61.006428 -23.057749 25.221581
v -61.372524 -22.917629 25.193359
v -61.009663 -22.003586 25.326935
v -61.001102 -21.106495 25.326027
v -61.363449 -22.016497 25.192764
v -61.354366 -21.115376 25.192169
v -61.672474 -22.027847 24.995590
v -61.663006 -21.123247 24.995316
v -61.911179 -22.036661 24.736626
v -61.681946 -22.932438 24.995850
v -61.642353 -23.080746 24.955971
v -61.920853 -22.943901 24.736618
v -61.849895 -23.093988 24.690254
v -62.105751 -22.952755 24.380486
v -62.016994 -23.104244 24.333557
v -62.235191 -22.958939 23.878960
v -62.096024 -22.043453 24.380539
v -62.086288 -21.134153 24.380600
v -62.225407 -22.048172 23.879005
v -62.300415 -22.050880 23.215942
v -62.215622 -21.137411 23.879044
v -62.290596 -21.139246 23.215965
v -62.196053 -20.358839 23.879135
v -62.270924 -20.358944 23.216011
v -62.219879 -20.283648 23.883682
v -62.066826 -20.358534 24.380714
v -61.882175 -20.357924 24.736641
v -62.089527 -20.283358 24.389717
v -61.902023 -20.282772 24.751122
v -62.159752 -20.257816 24.416679
v -62.206787 -20.257433 24.434586
v -62.293556 -20.258070 23.897316
v -61.963699 -20.257307 24.794586
v -62.005070 -20.256964 24.823425
v -61.707737 -20.256561 25.072098
v -61.740234 -20.256311 25.110672
v -61.380241 -20.255772 25.280792
v -61.659470 -20.281908 25.014099
v -61.346718 -20.281021 25.213394
v -61.644081 -20.357029 24.994781
v -61.336216 -20.356094 25.190971
v -60.983986 -20.355270 25.324203
v -60.637501 -20.354454 25.387054
v -60.989979 -20.280220 25.348320
v -60.638630 -20.279438 25.412033
v -61.009861 -20.255075 25.420868
v -61.023399 -20.254997 25.469200
v -60.643814 -20.254393 25.487236
v -60.647556 -20.254396 25.537415
v -59.803108 -20.254025 25.456917
v -59.800026 -20.254076 25.506836
v -58.026146 -20.254103 25.299469
v -59.807968 -20.279011 25.382072
v -58.033939 -20.279066 25.224899
v -59.810116 -20.354000 25.357224
v -56.288528 -20.279207 25.022133
v -55.931801 -20.279106 24.980034
v -56.279675 -20.254240 25.096573
v -56.273872 -20.254255 25.146240
v -55.916855 -20.254158 25.053757
v -55.907009 -20.254158 25.102936
v -55.636452 -20.253853 24.973328
v -55.613834 -20.253931 25.018898
v -55.306015 -20.253708 24.724785
v -55.670532 -20.278761 24.905113
v -55.682083 -20.353731 24.882515
v -55.354130 -20.278608 24.667137
v -54.731716 -20.278797 24.093430
v -55.370304 -20.353569 24.648048
v -54.748997 -20.353758 24.075401
v -55.373409 -20.971266 24.651115
v -54.751011 -20.956530 24.078438
v -53.985546 -20.938457 23.336647
v -54.752014 -21.779408 24.079964
v -53.985970 -21.752132 23.338173
v -54.753006 -22.602268 24.081497
v -53.986389 -22.565809 23.339699
v -54.770420 -22.764673 23.953300
v -54.060963 -22.727308 23.269478
v -53.354919 -22.698322 22.593376
v -52.800072 -22.678186 22.026047
v -53.221878 -22.529455 22.600296
v -52.634468 -22.501484 21.987411
v -53.222076 -21.724941 22.598770
v -53.222275 -20.920420 22.597237
v -52.635277 -21.704027 21.985886
v -52.636082 -20.906565 21.984367
v -52.480125 -21.696747 21.744804
v -52.478374 -22.491732 21.745651
v -52.481873 -20.901749 21.743950
v -52.427055 -21.693619 21.484581
v -52.488823 -21.697090 21.221031
v -52.429260 -20.899677 21.484451
v -52.424847 -22.487556 21.484695
v -52.487110 -22.492193 21.220184
v -52.563950 -22.658464 21.484459
v -52.781189 -22.755110 21.484200
v -52.625206 -22.665293 21.765678
v -52.634857 -22.665770 21.199661
v -52.800232 -22.678164 20.942024
v -52.864162 -22.760668 21.191521
v -53.049774 -22.771677 20.927025
v -53.186649 -22.775997 21.234932
v -53.444530 -22.788254 21.264839
v -53.109909 -22.770735 21.484200
v -53.355583 -22.786221 21.011185
v -53.805676 -22.807621 20.581123
v -54.367512 -22.834339 20.067757
v -53.551205 -22.795519 20.421722
v -54.175667 -22.825209 19.820976
v -53.354980 -22.698322 20.374947
v -53.221996 -22.529457 20.367935
v -54.060932 -22.727308 19.698936
v -53.986366 -22.565809 19.628731
v -54.770454 -22.764673 19.015068
v -54.753082 -22.602268 18.886848
v -55.362400 -22.797220 18.470985
v -54.815582 -22.855637 19.210655
v -55.367607 -22.881886 18.707207
v -54.953156 -22.862171 19.542664
v -55.468288 -22.886677 19.107964
v -55.818604 -22.903320 18.865822
v -55.536800 -22.889929 19.485283
v -55.879810 -22.906235 19.292694
v -55.902809 -22.907337 19.660034
v -56.232819 -22.923019 19.207016
v -56.170761 -22.920069 18.758141
v -56.601696 -22.940552 19.172890
v -56.256855 -22.924160 19.597031
v -56.621044 -22.941479 19.575722
v -56.261108 -22.924364 20.058372
v -56.263748 -22.924492 20.771286
v -56.621597 -22.941505 20.047531
v -58.231888 -23.018066 19.968269
v -56.621609 -22.941505 20.765869
v -58.230724 -23.018011 20.726227
v -59.850803 -23.095036 20.690445
v -58.230160 -23.017981 21.484192
v -59.849953 -23.095001 21.484192
v -60.597748 -23.130552 21.484192
v -59.850708 -23.095032 22.277946
v -60.598251 -23.130583 22.292175
v -59.852554 -23.095114 23.071701
v -60.599472 -23.130642 23.100151
v -59.853745 -23.095173 23.598709
v -60.600273 -23.130674 23.631310
v -59.852741 -23.095133 24.050049
v -60.604900 -23.130892 24.082764
v -59.847855 -23.094894 24.563431
v -60.617512 -23.131495 24.596268
v -59.841763 -23.094614 25.065262
v -58.189396 -23.016048 24.430870
v -58.142513 -23.013824 24.916603
v -56.464588 -22.934040 24.719414
v -58.097546 -22.921108 25.095657
v -56.380344 -22.841209 24.897247
v -56.308163 -22.676498 25.003540
v -60.641926 -23.132660 25.097786
v -60.990009 -23.149204 25.049934
v -60.961868 -23.147871 24.583611
v -61.332996 -23.165514 24.957489
v -61.344475 -23.166054 24.579666
v -61.584454 -23.177458 24.873558
v -61.352188 -23.071655 25.105576
v -61.721535 -23.183977 24.635490
v -61.867229 -23.190912 24.272614
v -61.410995 -23.169210 24.166435
v -61.970528 -23.195831 23.794739
v -62.134739 -23.110815 23.841942
v -62.031685 -23.198729 23.171318
v -61.463497 -23.171721 23.712654
v -61.497387 -23.173323 23.137817
v -60.970718 -23.148289 23.652489
v -60.962894 -23.147919 24.100014
v -60.978992 -23.148676 23.113014
v -60.982445 -23.148844 22.298622
v -60.981148 -23.148788 21.484192
v -61.512024 -23.174019 22.311256
v -62.057022 -23.199940 22.328453
v -61.507797 -23.173824 21.484192
v -61.510365 -23.173941 20.657135
v -62.050282 -23.199619 21.484192
v -62.054214 -23.199802 20.639938
v -62.224289 -23.115376 21.484192
v -62.228436 -23.115599 20.627640
v -62.231522 -23.115767 22.340744
v -62.333130 -22.963604 21.484192
v -62.323277 -22.051693 21.484192
v -62.340740 -22.963968 22.351006
v -62.337399 -22.963808 20.617378
v -62.310249 -22.962515 19.752480
v -62.327545 -22.051853 20.617371
v -62.300411 -22.050880 19.752464
v -62.317692 -21.139906 20.617363
v -62.290585 -21.139246 19.752441
v -62.297997 -20.358974 20.617348
v -62.313423 -21.139801 21.484192
v -62.321033 -21.139988 22.351028
v -62.293724 -20.358967 21.484200
v -62.317917 -20.283768 21.484200
v -62.301319 -20.358980 22.351051
v -62.325516 -20.283779 22.351936
v -62.400242 -20.258198 22.354599
v -62.295071 -20.283749 23.217789
v -62.369675 -20.258163 23.223114
v -62.419590 -20.257753 23.226654
v -62.450237 -20.257792 22.356369
v -62.342846 -20.257668 23.906364
v -62.494263 -20.232164 23.231972
v -62.525043 -20.232199 22.359039
v -62.518635 -20.156965 23.233749
v -62.416569 -20.232094 23.919998
v -62.440639 -20.156906 23.924545
v -62.277084 -20.231882 24.461548
v -62.300003 -20.156702 24.470551
v -62.066814 -20.231504 24.866882
v -62.086895 -20.156355 24.881386
v -61.788578 -20.230953 25.168686
v -61.804188 -20.155838 25.188019
v -61.436504 -20.230373 25.393082
v -61.447220 -20.155293 25.415550
v -61.043354 -20.229858 25.541779
v -61.402905 -20.255630 25.325676
v -61.049561 -20.154806 25.565971
v -60.652786 -20.229345 25.612648
v -60.654114 -20.154331 25.637726
v -59.795212 -20.229084 25.581718
v -59.793221 -20.154087 25.606674
v -58.013294 -20.229151 25.423836
v -58.010418 -20.154175 25.448708
v -56.265060 -20.229292 25.220734
v -58.021061 -20.254126 25.349220
v -56.261894 -20.154310 25.245567
v -55.892105 -20.229221 25.176712
v -55.886944 -20.154240 25.201302
v -55.579781 -20.229017 25.087173
v -55.568230 -20.154034 25.109924
v -55.225826 -20.228916 24.820930
v -55.209625 -20.153952 24.840164
v -54.594189 -20.229057 24.238686
v -55.273960 -20.253813 24.763237
v -54.645779 -20.253954 24.184189
v -54.680153 -20.253891 24.147881
v -53.880173 -20.254204 23.441025
v -53.116142 -20.254446 22.699608
v -53.914993 -20.254158 23.405144
v -53.827896 -20.229275 23.494843
v -53.810383 -20.154299 23.512802
v -53.062870 -20.229486 22.752434
v -53.045067 -20.154507 22.770058
v -52.464176 -20.229670 22.125107
v -52.444885 -20.154678 22.141113
v -52.522045 -20.254654 22.077103
v -52.268326 -20.229729 21.816887
v -52.244186 -20.154730 21.825203
v -52.202019 -20.229752 21.484192
v -52.340755 -20.254725 21.791977
v -52.279335 -20.254747 21.484192
v -52.389034 -20.254721 21.775368
v -52.330872 -20.254755 21.484192
v -52.461395 -20.279715 21.750473
v -52.560638 -20.254639 22.045113
v -53.151676 -20.254423 22.664406
v -52.618484 -20.279621 21.997169
v -52.637695 -20.354610 21.981308
v -53.204929 -20.279375 22.611641
v -53.222660 -20.354368 22.594170
v -53.967243 -20.279078 23.351379
v -53.984695 -20.354063 23.333580
v -52.485378 -20.354708 21.742249
v -52.433681 -20.354753 21.484207
v -52.493992 -20.354700 21.223557
v -52.408112 -20.279755 21.484192
v -52.470280 -20.279699 21.215240
v -52.398743 -20.254709 21.190102
v -52.618473 -20.279610 20.971237
v -53.204929 -20.279375 20.356766
v -52.637699 -20.354603 20.987076
v -52.560627 -20.254627 20.923294
v -52.522038 -20.254639 20.891304
v -53.151676 -20.254423 20.303993
v -53.116142 -20.254446 20.268784
v -53.914993 -20.254158 19.563255
v -53.880173 -20.254204 19.527374
v -54.680153 -20.253891 18.820518
v -53.967243 -20.279078 19.617020
v -54.731716 -20.278797 18.874969
v -53.984695 -20.354063 19.634819
v -54.749004 -20.353758 18.892982
v -53.985531 -20.938457 19.631767
v -53.222668 -20.354368 20.374222
v -53.222324 -20.920420 20.371086
v -52.636211 -20.906553 20.983711
v -53.222164 -21.724941 20.369507
v -52.635475 -21.704027 20.982033
v -53.985943 -21.752132 19.630249
v -54.752064 -21.779408 18.888390
v -54.751041 -20.956532 18.889923
v -55.375248 -21.801607 18.315598
v -55.689320 -21.812943 18.080872
v -55.376904 -22.631952 18.314018
v -55.373604 -20.971281 18.317177
v -55.686901 -20.978880 18.082542
v -55.370308 -20.353569 18.320343
v -55.682076 -20.353731 18.085892
v -55.354130 -20.278608 18.301262
v -55.670521 -20.278761 18.063286
v -55.306015 -20.253708 18.243614
v -55.273960 -20.253813 18.205162
v -55.636452 -20.253853 17.995071
v -55.613834 -20.253931 17.949501
v -55.916855 -20.254158 17.914650
v -55.907017 -20.254158 17.865463
v -56.279671 -20.254240 17.871826
v -55.931801 -20.279106 17.988365
v -56.288528 -20.279207 17.946266
v -55.937077 -20.354082 18.012802
v -56.291805 -20.354202 17.970963
v -55.944569 -20.985306 18.009346
v -56.300014 -20.993864 17.967903
v -55.948318 -21.822401 18.007622
v -56.304123 -21.835182 17.966370
v -55.952061 -22.659500 18.005905
v -56.010845 -22.823700 18.119743
v -55.691738 -22.647001 18.079201
v -56.308239 -22.676502 17.964844
v -58.058655 -22.759768 17.762459
v -56.380379 -22.841209 18.071136
v -58.097507 -22.921108 17.872734
v -56.464584 -22.934040 18.248970
v -58.142502 -23.013824 18.051788
v -56.545254 -22.937868 18.710800
v -56.083054 -22.915897 18.305092
v -55.728436 -22.899040 18.427040
v -55.702618 -22.810383 18.216087
v -58.189384 -23.016048 18.537521
v -58.222176 -23.017605 19.031105
v -59.847843 -23.094894 18.404968
v -60.617500 -23.131495 18.372124
v -59.852737 -23.095133 18.918343
v -59.841755 -23.094614 17.903130
v -60.641918 -23.132660 17.870605
v -59.839638 -23.003494 17.720291
v -59.837738 -22.844376 17.605614
v -60.657452 -23.042170 17.689758
v -60.669014 -22.883972 17.576508
v -61.006420 -23.057749 17.746819
v -60.989998 -23.149204 17.918457
v -61.018196 -22.900679 17.640556
v -61.352165 -23.071655 17.862823
v -61.372478 -22.917629 17.775024
v -61.642330 -23.080746 18.012421
v -61.332985 -23.165514 18.010910
v -61.584393 -23.177099 18.094040
v -61.344471 -23.166054 18.388718
v -60.961864 -23.147871 18.384773
v -61.410988 -23.169210 18.801964
v -61.721527 -23.183977 18.332909
v -61.867222 -23.190912 18.695786
v -61.849823 -23.093981 18.278053
v -61.920715 -22.943897 18.231598
v -62.017010 -23.104244 18.634857
v -62.105782 -22.952755 18.587959
v -62.134731 -23.110815 19.126503
v -62.235207 -22.958939 19.089531
v -62.203445 -23.114340 19.772774
v -61.970516 -23.195831 19.173653
v -62.031677 -23.198729 19.797081
v -61.463493 -23.171721 19.255737
v -60.970715 -23.148289 19.315910
v -61.497379 -23.173323 19.830574
v -60.978989 -23.148676 19.855377
v -60.982025 -23.148821 20.669769
v -60.599468 -23.130642 19.868240
v -59.852551 -23.095114 19.896690
v -60.600266 -23.130674 19.337082
v -60.598309 -23.130587 20.676224
v -60.604893 -23.130892 18.885635
v -59.853733 -23.095173 19.369682
v -58.232677 -23.018105 19.464073
v -60.962891 -23.147919 18.868378
v -62.225414 -22.048172 19.089462
v -62.096039 -22.043453 18.587883
v -62.215626 -21.137413 19.089394
v -62.086304 -21.134165 18.587814
v -62.196053 -20.358843 19.089272
v -62.066826 -20.358538 18.587677
v -62.270924 -20.358944 19.752396
v -62.219879 -20.283655 19.084724
v -62.089527 -20.283361 18.578682
v -62.295071 -20.283756 19.750618
v -62.293556 -20.258074 19.071091
v -62.342846 -20.257675 19.062035
v -62.159744 -20.257816 18.551712
v -62.369675 -20.258163 19.745300
v -62.419590 -20.257765 19.741753
v -62.396904 -20.258190 20.613792
v -62.446896 -20.257795 20.612022
v -62.392643 -20.258183 21.484200
v -62.322189 -20.283783 20.616455
v -62.442642 -20.257784 21.484200
v -62.517437 -20.232191 21.484200
v -62.521683 -20.232191 20.609360
v -62.541843 -20.156996 21.484200
v -62.549442 -20.156996 22.359924
v -62.540398 -19.974993 21.484200
v -62.546082 -20.156996 20.608467
v -62.518635 -20.156969 19.734657
v -62.544632 -19.974989 20.608467
v -62.517181 -19.974970 19.734657
v -62.519047 -19.900196 20.609352
v -62.514797 -19.900192 21.484200
v -62.443844 -19.875784 20.612015
v -62.491623 -19.900171 19.736420
v -62.413963 -19.900103 19.048393
v -62.416542 -19.875763 19.741737
v -62.266804 -19.876959 19.752396
v -62.339828 -19.875685 19.062012
v -62.191956 -19.876858 19.089287
v -62.203804 -19.875435 18.533760
v -62.062813 -19.876545 18.587746
v -62.002132 -19.874939 18.144890
v -62.274490 -19.899887 18.506805
v -62.298580 -19.974714 18.497826
v -62.064274 -19.899477 18.101448
v -62.085495 -19.974323 18.086983
v -61.786026 -19.898905 17.799706
v -61.802784 -19.973782 17.780380
v -61.434086 -19.898289 17.575317
v -61.737312 -19.874262 17.857712
v -61.640385 -19.874985 17.973808
v -61.400097 -19.873539 17.642723
v -61.332680 -19.874023 17.777588
v -61.020763 -19.872883 17.499176
v -60.980618 -19.873158 17.644363
v -60.645065 -19.872257 17.431023
v -61.041065 -19.897738 17.426605
v -61.048294 -19.972694 17.402412
v -60.650642 -19.897198 17.355774
v -60.652931 -19.972187 17.330688
v -59.793259 -19.896885 17.386681
v -59.792145 -19.971889 17.361717
v -58.011776 -19.896839 17.544563
v -59.797775 -19.871870 17.461563
v -59.807121 -19.871809 17.611320
v -58.019302 -19.871809 17.619179
v -58.034588 -19.871735 17.768417
v -56.272591 -19.871843 17.822159
v -56.290043 -19.871780 17.971146
v -55.905869 -19.871717 17.865456
v -56.263947 -19.896873 17.747673
v -56.261299 -19.971889 17.722847
v -55.891109 -19.896776 17.791687
v -55.886391 -19.971792 17.767090
v -55.578873 -19.896534 17.881241
v -55.567749 -19.971565 17.858475
v -55.225052 -19.896412 18.147430
v -55.612827 -19.871452 17.949509
v -55.680893 -19.871248 18.086006
v -55.273079 -19.871304 18.205101
v -55.369247 -19.871058 18.320465
v -54.645073 -19.871393 18.784149
v -54.748161 -19.871180 18.893120
v -53.879696 -19.871590 19.527328
v -54.593567 -19.896490 18.729668
v -54.576527 -19.971525 18.711517
v -53.827488 -19.896662 19.473511
v -53.810165 -19.971682 19.455582
v -53.062656 -19.896833 20.215919
v -53.044937 -19.971849 20.198326
v -52.464130 -19.896967 20.843262
v -53.115910 -19.871792 20.268730
v -53.222439 -19.871702 20.374359
v -52.521996 -19.871952 20.891251
v -52.637730 -19.871925 20.987236
v -52.351013 -19.872015 21.173302
v -52.279358 -19.872044 21.484192
v -52.494194 -19.872011 21.223640
v -52.279419 -19.897022 21.148140
v -52.255554 -19.972031 21.139748
v -52.202038 -19.897049 21.484192
v -52.268330 -19.897015 21.816917
v -52.176262 -19.972046 21.484192
v -52.176250 -20.154749 21.484192
v -52.244186 -19.972010 21.825218
v -52.444870 -19.971952 22.141144
v -53.044937 -19.971849 22.770073
v -52.464149 -19.896948 22.125153
v -53.062656 -19.896833 22.752480
v -52.522007 -19.871933 22.077179
v -53.115910 -19.871792 22.699669
v -52.637741 -19.871895 21.981178
v -52.340755 -19.872004 21.792007
v -52.485592 -19.871996 21.742157
v -52.433979 -19.872059 21.484192
v -53.222439 -19.871702 22.594040
v -53.984169 -19.871449 23.333443
v -53.879696 -19.871590 23.441071
v -54.748169 -19.871183 24.075272
v -54.645084 -19.871393 24.184250
v -55.369247 -19.871058 24.647934
v -55.273083 -19.871304 24.763298
v -55.680893 -19.871248 24.882401
v -55.612827 -19.871452 25.018890
v -55.935558 -19.871632 24.955414
v -55.905869 -19.871706 25.102951
v -56.290043 -19.871780 24.997261
v -56.272591 -19.871843 25.146240
v -58.034588 -19.871735 25.199989
v -58.019302 -19.871809 25.349220
v -59.807121 -19.871809 25.357079
v -59.797771 -19.871870 25.506836
v -60.634384 -19.872313 25.386894
v -60.645065 -19.872257 25.537384
v -60.980618 -19.873158 25.324043
v -61.020763 -19.872883 25.469231
v -61.332680 -19.874023 25.190811
v -61.400097 -19.873539 25.325684
v -61.640385 -19.874985 24.994591
v -61.737316 -19.874262 25.110695
v -61.878288 -19.875900 24.736488
v -62.002132 -19.874939 24.823509
v -62.062824 -19.876560 24.380646
v -62.203804 -19.875443 24.434631
v -62.191948 -19.876865 23.879120
v -62.339817 -19.875685 23.906395
v -62.266804 -19.876970 23.216011
v -62.416542 -19.875778 23.226669
v -62.297195 -19.876999 22.351051
v -62.447193 -19.875803 22.356384
v -62.289608 -19.876980 21.484200
v -62.439594 -19.875784 21.484200
v -62.293877 -19.876991 20.617348
v -62.522396 -19.900200 22.359047
v -62.491623 -19.900177 23.231987
v -62.547997 -19.975000 22.359932
v -62.517181 -19.974977 23.233757
v -62.439194 -19.974922 23.924553
v -62.298592 -19.974731 24.470566
v -62.413956 -19.900114 23.920021
v -62.274490 -19.899895 24.461586
v -62.064274 -19.899477 24.866951
v -61.786034 -19.898905 25.168701
v -62.085495 -19.974323 24.881416
v -61.802784 -19.973782 25.188026
v -61.445896 -19.973206 25.415550
v -61.048294 -19.972694 25.565994
v -61.434086 -19.898289 25.393082
v -61.041065 -19.897738 25.541809
v -60.650642 -19.897198 25.612625
v -59.793259 -19.896885 25.581718
v -60.652931 -19.972187 25.637711
v -59.792130 -19.971889 25.606689
v -58.009579 -19.971849 25.448708
v -56.261299 -19.971889 25.245560
v -58.011776 -19.896839 25.423836
v -56.263947 -19.896877 25.220734
v -55.891109 -19.896776 25.176720
v -55.886391 -19.971792 25.201309
v -55.578873 -19.896534 25.087158
v -55.225052 -19.896412 24.820969
v -55.567749 -19.971565 25.109917
v -55.209190 -19.971439 24.840195
v -54.576527 -19.971525 24.256882
v -53.810165 -19.971682 23.512810
v -54.576866 -20.154087 24.256851
v -54.593578 -19.896490 24.238731
v -53.827488 -19.896662 23.494881
v -52.255558 -20.154728 21.139763
v -52.279427 -20.229725 21.148163
v -52.444874 -20.154671 20.827293
v -52.444847 -19.971983 20.827271
v -53.045067 -20.154507 20.198349
v -52.464172 -20.229670 20.843307
v -53.062870 -20.229486 20.215965
v -53.827896 -20.229275 19.473557
v -53.810383 -20.154299 19.455597
v -54.594189 -20.229057 18.729713
v -54.576866 -20.154097 18.711540
v -55.225826 -20.228916 18.147469
v -54.645779 -20.253965 18.784203
v -55.209625 -20.153952 18.128242
v -55.579781 -20.229017 17.881226
v -55.568230 -20.154034 17.858475
v -55.892105 -20.229218 17.791695
v -55.886948 -20.154240 17.767097
v -56.265060 -20.229292 17.747673
v -56.261894 -20.154310 17.722839
v -58.013294 -20.229151 17.544563
v -56.273869 -20.254255 17.822166
v -58.021061 -20.254126 17.619179
v -58.026146 -20.254103 17.668930
v -59.800022 -20.254076 17.461563
v -59.803108 -20.254025 17.511482
v -60.647556 -20.254396 17.430992
v -59.795212 -20.229084 17.386688
v -59.793217 -20.154087 17.361725
v -60.652794 -20.229345 17.355751
v -60.654118 -20.154331 17.330673
v -61.043354 -20.229847 17.426628
v -61.049561 -20.154806 17.402435
v -61.436504 -20.230373 17.575317
v -61.023399 -20.254993 17.499207
v -61.009861 -20.255075 17.547539
v -61.402905 -20.255630 17.642723
v -61.380241 -20.255772 17.687607
v -61.740234 -20.256311 17.857735
v -61.707722 -20.256561 17.896301
v -62.005070 -20.256964 18.144974
v -61.788578 -20.230953 17.799728
v -61.804176 -20.155838 17.780388
v -62.066814 -20.231504 18.101517
v -62.086895 -20.156355 18.087021
v -62.277084 -20.231886 18.506844
v -62.299995 -20.156713 18.497841
v -62.416580 -20.232105 19.048409
v -62.206776 -20.257437 18.533813
v -62.440639 -20.156910 19.043861
v -62.494263 -20.232164 19.736427
v -62.439205 -19.974922 19.043854
v -61.447220 -20.155293 17.552849
v -61.445896 -19.973206 17.552849
v -61.963699 -20.257307 18.173820
v -61.902023 -20.282772 18.217278
v -61.882164 -20.357924 18.231758
v -61.659470 -20.281908 17.954308
v -61.644077 -20.357029 17.973625
v -61.346718 -20.281021 17.754997
v -61.336216 -20.356094 17.777412
v -60.989979 -20.280216 17.620079
v -60.983986 -20.355270 17.644203
v -60.638630 -20.279438 17.556374
v -60.637501 -20.354454 17.581352
v -59.807968 -20.279011 17.586327
v -60.643814 -20.254393 17.481155
v -59.810104 -20.354000 17.611168
v -58.033939 -20.279066 17.743500
v -58.036961 -20.354048 17.768242
v -58.047802 -21.035419 17.765350
v -59.823921 -21.077698 17.608383
v -58.053234 -21.897585 17.763901
v -59.830822 -21.961039 17.607002
v -60.661133 -21.990845 17.577721
v -60.653255 -21.097736 17.578926
v -61.009644 -22.003586 17.641464
v -61.363403 -22.016497 17.775620
v -61.001087 -21.106495 17.642372
v -61.354336 -21.115376 17.776215
v -61.662987 -21.123247 17.973083
v -61.901436 -21.129419 18.231674
v -61.672451 -22.027847 17.972816
v -61.911076 -22.036654 18.231636
v -61.681911 -22.932438 17.972549
v -58.010418 -20.154175 17.519691
v -58.009579 -19.971849 17.519691
v -55.209190 -19.971439 18.128212
v -52.351013 -20.254709 21.173332
v -53.984169 -19.871449 19.634956
v -55.935562 -19.871639 18.012978
v -60.634384 -19.872313 17.581505
v -61.878288 -19.875900 18.231918
v -52.634739 -22.501484 20.980354
v -52.490540 -20.901968 21.221870
v -62.330875 -22.051973 22.351013
v -62.310257 -22.962515 23.215927
v -62.203445 -23.114347 23.195633
v -53.177536 -22.775517 21.729881
v -52.853870 -22.760132 21.773132
v -53.049782 -22.771677 22.041374
v -60.653278 -21.097736 25.389473
v -61.901505 -21.129423 24.736626
v -55.149612 -22.871517 22.557755
v -54.674377 -22.848921 22.286072
v -55.166183 -22.872307 22.021507
v -54.692120 -22.849766 21.887329
v -54.216450 -22.827150 21.756821
v -54.674995 -22.848949 21.484192
v -54.689083 -22.849621 21.081131
v -54.223667 -22.827496 22.018913
v -54.617004 -22.846186 22.510399
vn 0.0475 -0.9989 -0.0000
vn 0.0476 -0.9989 0.0002
vn 0.0492 -0.9988 0.0085
vn 0.0482 -0.9988 0.0096
vn 0.0485 -0.9988 0.0084
vn 0.0497 -0.9988 0.0001
vn 0.0476 -0.9989 -0.0000
vn 0.0479 -0.9989 -0.0000
vn 0.0491 -0.9988 -0.0085
vn 0.0484 -0.9988 -0.0094
vn 0.0485 -0.9988 -0.0084
vn 0.0475 -0.9989 -0.0001
vn 0.0476 -0.9989 -0.0002
vn 0.0485 -0.9988 -0.0073
vn 0.0489 -0.9988 0.0012
vn 0.0486 -0.9988 0.0011
vn 0.0487 -0.9988 0.0012
vn 0.0482 -0.9988 0.0008
vn 0.0477 -0.9989 0.0006
vn 0.0477 -0.9989 0.0019
vn 0.0478 -0.9989 0.0006
vn 0.4557 -0.7438 0.4890
vn 0.3200 -0.7891 0.5243
vn 0.1610 -0.7919 0.5891
vn 0.6528 -0.0446 0.7562
vn 0.4958 -0.0595 0.8664
vn 0.1349 -0.0183 0.9907
vn 0.4968 0.0004 0.8679
vn 0.6525 0.0003 0.7578
vn 0.1327 0.0013 0.9912
vn 0.1332 0.0019 0.9911
vn 0.5226 0.0005 0.8526
vn 0.6531 0.0007 0.7572
vn 0.1150 0.0012 0.9934
vn 0.1163 -0.0309 0.9927
vn 0.1155 0.0022 0.9933
vn 0.5504 -0.0144 0.8348
vn 0.1351 -0.0064 0.9908
vn 0.1158 -0.0150 0.9932
vn 0.0973 -0.0174 0.9951
vn 0.1009 0.0017 0.9949
vn 0.1048 0.0011 0.9945
vn 0.0660 -0.0103 0.9978
vn 0.0657 0.0019 0.9978
vn 0.0621 0.0011 0.9981
vn 0.1091 -0.0688 0.9916
vn 0.0623 -0.0717 0.9955
vn -0.0026 0.0024 1.0000
vn -0.0151 0.0016 0.9999
vn -0.0138 -0.0445 0.9989
vn 0.1011 -0.7613 0.6405
vn 0.0822 -0.7603 0.6443
vn 0.0207 -0.7605 0.6490
vn -0.2680 -0.0495 0.9621
vn -0.1328 -0.7381 0.6615
vn -0.2716 0.0036 0.9624
vn -0.4436 -0.0371 0.8955
vn -0.2651 -0.6689 0.6944
vn -0.4476 0.0051 0.8942
vn -0.2713 0.0050 0.9625
vn -0.4473 0.0072 0.8943
vn -0.6402 0.0097 0.7682
vn -0.6403 0.0069 0.7681
vn -0.6391 -0.0285 0.7686
vn -0.8238 0.0123 0.5668
vn -0.8238 0.0088 0.5669
vn -0.8240 -0.0334 0.5657
vn -0.4920 -0.6069 0.6242
vn -0.6278 -0.6670 0.4011
vn -0.9383 -0.0402 0.3434
vn -0.6403 -0.7330 0.2296
vn -0.9390 0.0100 0.3438
vn -0.9841 -0.0426 0.1727
vn -0.6479 -0.7533 0.1132
vn -0.9849 0.0106 0.1727
vn -0.9390 0.0141 0.3436
vn -0.9849 0.0148 0.1726
vn -0.9966 0.0108 0.0821
vn -0.9947 -0.0633 0.0806
vn -0.9969 0.0161 0.0770
vn -0.9850 -0.0060 0.1726
vn -0.9976 -0.0055 0.0687
vn -0.9391 -0.0074 0.3435
vn -0.6998 -0.7037 0.1229
vn -0.7108 -0.7017 0.0491
vn -0.6635 -0.7073 0.2438
vn -0.8239 -0.0104 0.5667
vn -0.5786 -0.7109 0.3999
vn -0.1619 -0.9803 0.1134
vn -0.0638 -0.9977 0.0234
vn -0.0509 -0.9987 0.0096
vn -0.1667 -0.9791 0.1166
vn -0.0664 -0.9975 0.0245
vn -0.0520 -0.9986 0.0099
vn -0.1246 -0.9806 0.1516
vn -0.1284 -0.9793 0.1562
vn -0.4481 -0.7119 0.5407
vn -0.0862 -0.9807 0.1758
vn -0.0885 -0.9796 0.1802
vn -0.3128 -0.7110 0.6298
vn -0.6401 -0.0147 0.7682
vn -0.4464 -0.0189 0.8947
vn -0.2709 -0.0225 0.9623
vn -0.1885 -0.7113 0.6772
vn 0.0101 -0.0090 0.9999
vn -0.0194 -0.7105 0.7034
vn -0.0003 -0.9996 0.0267
vn -0.0505 -0.9809 0.1881
vn -0.0004 -0.9996 0.0275
vn -0.0525 -0.9799 0.1924
vn 0.0023 -0.9996 0.0293
vn 0.0023 -0.9996 0.0295
vn 0.0507 -0.7075 0.7049
vn 0.0043 -0.9991 0.0420
vn 0.0043 -0.9991 0.0421
vn 0.0704 -0.7241 0.6861
vn 0.0667 -0.8140 0.5771
vn 0.0054 -0.9990 0.0453
vn 0.0042 -0.9996 0.0268
vn 0.0759 -0.8780 0.4726
vn 0.0043 -0.9996 0.0273
vn 0.0054 -0.9989 0.0455
vn 0.0039 -1.0000 0.0059
vn 0.0042 -1.0000 0.0067
vn 0.3312 -0.7195 0.6105
vn 0.0088 -0.9999 0.0100
vn 0.0090 -0.9999 0.0104
vn 0.4606 -0.7100 0.5327
vn 0.6535 -0.0101 0.7569
vn 0.0221 -0.9995 0.0235
vn 0.4882 -0.7076 0.5108
vn 0.6908 -0.0093 0.7230
vn 0.6906 0.0011 0.7232
vn 0.6902 0.0007 0.7236
vn 0.6959 0.0019 0.7181
vn 0.6961 -0.0083 0.7179
vn 0.6956 0.0010 0.7185
vn 0.6904 -0.0274 0.7229
vn 0.6957 -0.0204 0.7180
vn 0.4933 -0.7225 0.4844
vn 0.5034 -0.7131 0.4879
vn 0.5123 -0.7078 0.4863
vn 0.7020 -0.0271 0.7117
vn 0.5313 -0.7256 0.4373
vn 0.7543 -0.0550 0.6542
vn 0.7015 0.0014 0.7126
vn 0.7547 0.0019 0.6560
vn 0.7003 0.0024 0.7139
vn 0.7550 0.0030 0.6557
vn 0.9234 0.0024 0.3838
vn 0.9238 0.0036 0.3828
vn 0.9211 -0.0732 0.3823
vn 0.9967 -0.0805 -0.0138
vn 0.9999 0.0026 -0.0165
vn 0.9999 0.0038 -0.0167
vn 0.9214 -0.0736 -0.3817
vn 0.9236 0.0024 -0.3833
vn 0.9240 0.0035 -0.3824
vn 0.5886 -0.8084 -0.0093
vn 0.5701 -0.7905 -0.2239
vn 0.5707 -0.7900 0.2243
vn 0.1278 -0.9918 -0.0013
vn 0.1261 -0.9916 -0.0280
vn 0.1258 -0.9917 0.0279
vn 0.5319 -0.7273 -0.4337
vn 0.7572 -0.0553 -0.6509
vn 0.0488 -0.9988 -0.0011
vn 0.0485 -0.9988 0.0073
vn 0.0485 -0.9988 -0.0011
vn 0.0487 -0.9988 -0.0012
vn 0.5033 -0.7132 -0.4879
vn 0.5122 -0.7079 -0.4863
vn 0.7019 -0.0271 -0.7118
vn 0.6957 -0.0204 -0.7180
vn 0.4933 -0.7225 -0.4844
vn 0.6904 -0.0274 -0.7229
vn 0.4558 -0.7437 -0.4891
vn 0.6529 -0.0446 -0.7562
vn 0.0482 -0.9988 -0.0008
vn 0.0479 -0.9989 -0.0006
vn 0.0477 -0.9989 0.0023
vn 0.0452 -0.9990 0.0009
vn 0.0485 -0.9988 0.0030
vn 0.1112 -0.7649 0.6345
vn 0.0473 -0.9989 0.0007
vn 0.0473 -0.9989 0.0006
vn 0.0469 -0.9989 0.0003
vn 0.0467 -0.9989 0.0008
vn 0.0467 -0.9989 0.0003
vn 0.0465 -0.9989 0.0003
vn -0.6452 -0.7627 0.0444
vn 0.0461 -0.9989 0.0001
vn 0.0459 -0.9989 -0.0004
vn 0.0459 -0.9989 -0.0000
vn -0.6416 -0.7670 -0.0012
vn -0.6425 -0.7662 -0.0084
vn -0.6421 -0.7666 0.0084
vn -0.9990 -0.0448 -0.0019
vn -0.9989 -0.0447 -0.0132
vn -0.9981 -0.0614 0.0066
vn -0.9999 0.0108 -0.0019
vn -0.9999 0.0108 -0.0132
vn -0.9999 0.0108 0.0058
vn -0.6456 -0.7625 -0.0430
vn -0.9968 -0.0440 -0.0666
vn -0.9977 0.0107 -0.0666
vn -0.9998 0.0152 -0.0132
vn -0.9977 0.0151 -0.0666
vn -0.9999 0.0151 -0.0019
vn -0.9978 -0.0055 -0.0666
vn -0.9999 -0.0053 -0.0132
vn -1.0000 -0.0053 -0.0019
vn -0.9998 0.0161 0.0086
vn -0.9999 -0.0053 0.0132
vn -0.7134 -0.7008 -0.0014
vn -0.7131 -0.7010 -0.0094
vn -0.7131 -0.7010 0.0094
vn -0.0680 -0.9977 0.0009
vn -0.0680 -0.9977 -0.0003
vn -0.0622 -0.9981 0.0044
vn -0.0628 -0.9980 0.0045
vn -0.0683 -0.9977 0.0009
vn -0.7114 -0.7010 0.0495
vn -0.7129 -0.7012 0.0095
vn -0.7028 -0.7004 0.1243
vn -0.9960 -0.0889 0.0133
vn -0.9936 -0.0890 0.0691
vn -0.9808 -0.0892 0.1734
vn -0.9342 -0.0899 0.3453
vn -0.6693 -0.7005 0.2477
vn -0.8192 -0.0910 0.5662
vn -0.5866 -0.7007 0.4061
vn -0.6386 -0.0923 0.7640
vn -0.4561 -0.7014 0.5478
vn -0.4458 -0.0936 0.8902
vn -0.3180 -0.7021 0.6372
vn -0.2684 -0.0950 0.9586
vn -0.1910 -0.7029 0.6851
vn -0.0321 -0.0968 0.9948
vn -0.0222 -0.7062 0.7077
vn 0.0710 -0.0971 0.9927
vn 0.0505 -0.7068 0.7056
vn 0.1012 -0.0972 0.9901
vn 0.0703 -0.7247 0.6855
vn 0.1160 -0.0971 0.9885
vn 0.0675 -0.8137 0.5773
vn 0.1910 -0.0971 0.9768
vn 0.0803 -0.8708 0.4851
vn 0.4683 -0.0989 0.8780
vn 0.3329 -0.7079 0.6229
vn 0.6492 -0.0981 0.7543
vn 0.4617 -0.7065 0.5364
vn 0.6879 -0.0979 0.7192
vn 0.4882 -0.7078 0.5106
vn 0.0223 -0.9995 0.0235
vn 0.0313 -0.9990 0.0326
vn 0.0314 -0.9990 0.0327
vn 0.4919 -0.7078 0.5070
vn 0.0233 -0.9994 0.0238
vn 0.4978 -0.7073 0.5019
vn 0.0232 -0.9995 0.0237
vn 0.6932 -0.0975 0.7141
vn 0.7010 -0.0972 0.7065
vn 0.7592 -0.0967 0.6437
vn 0.5406 -0.7048 0.4593
vn 0.0107 -0.9999 0.0095
vn 0.9212 -0.0976 0.3767
vn 0.6563 -0.7051 0.2685
vn 0.0074 -1.0000 0.0032
vn 0.7050 -0.7091 -0.0117
vn 0.9950 -0.0987 -0.0165
vn 0.0080 -1.0000 -0.0002
vn 0.0069 -1.0000 -0.0001
vn 0.0065 -1.0000 0.0028
vn 0.0102 -0.9999 0.0091
vn 0.6858 -0.7277 -0.0114
vn 0.6383 -0.7238 0.2620
vn 0.5323 -0.7107 0.4599
vn 0.4977 -0.7072 0.5021
vn 0.7550 -0.0349 0.6548
vn 0.9239 -0.0350 0.3811
vn 0.6988 -0.0102 0.7153
vn 0.4923 -0.7071 0.5076
vn 0.9992 -0.0351 -0.0166
vn 0.9240 -0.0347 -0.3809
vn 0.6413 -0.7208 -0.2632
vn 0.0065 -1.0000 -0.0029
vn 0.7578 -0.0347 -0.6516
vn 0.5344 -0.7107 -0.4575
vn 0.0102 -0.9999 -0.0090
vn 0.0232 -0.9995 -0.0237
vn 0.4977 -0.7072 -0.5021
vn 0.6987 -0.0102 -0.7153
vn 0.0108 -0.9999 -0.0094
vn 0.0075 -1.0000 -0.0033
vn 0.0233 -0.9994 -0.0238
vn 0.0313 -0.9990 -0.0326
vn 0.4921 -0.7074 -0.5073
vn 0.0221 -0.9995 -0.0234
vn 0.0222 -0.9995 -0.0235
vn 0.4883 -0.7076 -0.5108
vn 0.6961 -0.0082 -0.7179
vn 0.6908 -0.0093 -0.7230
vn 0.6959 0.0019 -0.7181
vn 0.6905 0.0011 -0.7233
vn 0.7003 0.0025 -0.7139
vn 0.7579 0.0030 -0.6524
vn 0.7576 0.0019 -0.6528
vn 0.7015 0.0014 -0.7126
vn 0.6955 0.0010 -0.7185
vn 0.6902 0.0007 -0.7236
vn 0.6526 0.0002 -0.7577
vn 0.6532 0.0007 -0.7572
vn 0.4969 0.0004 -0.8678
vn 0.5226 0.0005 -0.8526
vn 0.4959 -0.0595 -0.8664
vn 0.5504 -0.0144 -0.8348
vn 0.6535 -0.0101 -0.7569
vn 0.3312 -0.7195 -0.6104
vn 0.4606 -0.7100 -0.5328
vn 0.0038 -1.0000 -0.0060
vn 0.0085 -0.9999 -0.0102
vn 0.0042 -1.0000 -0.0067
vn 0.0088 -0.9999 -0.0105
vn 0.0042 -0.9996 -0.0268
vn 0.0043 -0.9996 -0.0273
vn 0.0759 -0.8780 -0.4726
vn 0.0054 -0.9990 -0.0453
vn 0.0054 -0.9989 -0.0455
vn 0.0667 -0.8140 -0.5771
vn 0.1351 -0.0064 -0.9908
vn 0.1168 -0.0150 -0.9930
vn 0.1332 0.0020 -0.9911
vn 0.1154 0.0018 -0.9933
vn 0.1327 0.0013 -0.9912
vn 0.1150 0.0012 -0.9934
vn 0.1349 -0.0184 -0.9907
vn 0.1163 -0.0309 -0.9927
vn 0.1611 -0.7918 -0.5891
vn 0.1111 -0.7649 -0.6345
vn 0.3200 -0.7891 -0.5243
vn 0.1022 -0.0460 -0.9937
vn 0.1000 0.0010 -0.9950
vn 0.1011 -0.7613 -0.6405
vn 0.0477 -0.9989 -0.0019
vn 0.0485 -0.9988 -0.0030
vn 0.0476 -0.9989 -0.0007
vn 0.0476 -0.9989 -0.0023
vn 0.0453 -0.9990 -0.0010
vn 0.0822 -0.7603 -0.6443
vn 0.0207 -0.7605 -0.6491
vn 0.0819 -0.0525 -0.9953
vn -0.0559 -0.0838 -0.9949
vn -0.2680 -0.0495 -0.9622
vn -0.1328 -0.7380 -0.6616
vn 0.0473 -0.9989 -0.0007
vn 0.0469 -0.9989 -0.0010
vn -0.2651 -0.6688 -0.6946
vn -0.4436 -0.0370 -0.8955
vn -0.6390 -0.0285 -0.7687
vn -0.4921 -0.6066 -0.6244
vn 0.0461 -0.9989 -0.0016
vn 0.0473 -0.9989 -0.0002
vn 0.0466 -0.9989 -0.0007
vn 0.0467 -0.9989 -0.0003
vn -0.6404 -0.7329 -0.2297
vn -0.6278 -0.6670 -0.4012
vn -0.8240 -0.0334 -0.5657
vn -0.9383 -0.0401 -0.3434
vn 0.0464 -0.9989 -0.0001
vn -0.6479 -0.7533 -0.1132
vn -0.9841 -0.0426 -0.1727
vn 0.0461 -0.9989 -0.0001
vn -0.9849 0.0106 -0.1727
vn -0.9390 0.0100 -0.3439
vn -0.9849 0.0148 -0.1726
vn -0.9390 0.0141 -0.3437
vn -0.9850 -0.0060 -0.1725
vn -0.9391 -0.0074 -0.3435
vn -0.6998 -0.7037 -0.1230
vn -0.6635 -0.7074 -0.2438
vn -0.7109 -0.7017 -0.0475
vn -0.0509 -0.9987 -0.0093
vn -0.0638 -0.9977 -0.0234
vn -0.0621 -0.9981 -0.0043
vn -0.0627 -0.9980 -0.0043
vn -0.0520 -0.9986 -0.0099
vn -0.0663 -0.9975 -0.0244
vn -0.0679 -0.9977 -0.0009
vn -0.0681 -0.9977 -0.0009
vn -0.0682 -0.9977 -0.0001
vn -0.7131 -0.7011 -0.0014
vn -0.7129 -0.7012 -0.0095
vn -0.9960 -0.0889 -0.0133
vn -0.9960 -0.0888 -0.0019
vn -0.9944 0.1048 0.0132
vn -0.9945 0.1047 -0.0019
vn -0.9944 0.1047 -0.0132
vn -0.9938 -0.0890 -0.0670
vn -0.7115 -0.7010 -0.0479
vn -0.9923 0.1047 -0.0669
vn -0.7004 0.7122 -0.0471
vn -0.7017 0.7124 -0.0093
vn -0.7018 0.7123 -0.0013
vn -0.0150 0.9999 -0.0002
vn -0.0151 0.9999 -0.0000
vn -0.0128 0.9999 -0.0008
vn -0.9793 0.1046 -0.1731
vn -0.6922 0.7113 -0.1221
vn -0.0089 1.0000 -0.0012
vn 0.0075 1.0000 0.0017
vn 0.0079 1.0000 0.0007
vn 0.0080 1.0000 0.0001
vn 0.0071 1.0000 0.0025
vn -0.0158 0.9999 -0.0059
vn -0.6602 0.7106 -0.2433
vn 0.0041 1.0000 0.0049
vn -0.0901 0.9941 -0.0605
vn -0.5804 0.7093 -0.4000
vn -0.9329 0.1043 -0.3448
vn -0.8183 0.1034 -0.5654
vn -0.6377 0.1019 -0.7635
vn -0.4533 0.7081 -0.5414
vn -0.0719 0.9939 -0.0833
vn -0.4464 0.1001 -0.8892
vn -0.3177 0.7068 -0.6321
vn -0.0513 0.9938 -0.0985
vn 0.0015 1.0000 0.0050
vn -0.0003 1.0000 0.0038
vn -0.0013 1.0000 0.0022
vn -0.0319 0.9937 -0.1076
vn -0.1921 0.7056 -0.6820
vn -0.0006 1.0000 0.0001
vn -0.0009 0.9999 -0.0100
vn -0.0231 0.7068 -0.7070
vn -0.2686 0.0986 -0.9582
vn -0.0322 0.0973 -0.9947
vn 0.0710 0.0964 -0.9928
vn 0.0504 0.7065 -0.7059
vn 0.0005 0.9999 -0.0111
vn 0.1011 0.1032 -0.9895
vn 0.0729 0.7065 -0.7039
vn 0.0017 0.9999 -0.0162
vn -0.0000 1.0000 -0.0004
vn -0.0003 1.0000 -0.0002
vn -0.0001 1.0000 -0.0005
vn 0.0019 0.9998 -0.0175
vn 0.0822 0.7066 -0.7028
vn -0.0006 1.0000 -0.0009
vn 0.0008 0.9999 -0.0109
vn 0.0977 0.7060 -0.7015
vn 0.1147 0.1483 -0.9823
vn 0.1575 0.1924 -0.9686
vn 0.4684 0.0964 -0.8782
vn 0.3332 0.7063 -0.6246
vn 0.0013 1.0000 -0.0041
vn 0.6494 0.0950 -0.7545
vn 0.4631 0.7045 -0.5378
vn 0.0044 1.0000 -0.0053
vn -0.0001 1.0000 -0.0014
vn 0.0008 1.0000 -0.0012
vn 0.0011 1.0000 -0.0009
vn 0.0095 0.9999 -0.0097
vn 0.4896 0.7060 -0.5117
vn 0.0008 1.0000 -0.0005
vn 0.0128 0.9998 -0.0128
vn 0.4931 0.7065 -0.5077
vn 0.6881 0.0953 -0.7193
vn 0.6933 0.0956 -0.7143
vn 0.7012 0.0959 -0.7065
vn 0.4987 0.7063 -0.5023
vn 0.0093 0.9999 -0.0089
vn 0.7626 0.0962 -0.6397
vn 0.5435 0.7045 -0.4565
vn 0.0042 1.0000 -0.0032
vn 0.0003 1.0000 -0.0000
vn 0.0006 1.0000 -0.0003
vn 0.0027 1.0000 -0.0009
vn 0.0001 1.0000 0.0002
vn 0.6593 0.7019 -0.2695
vn 0.0028 1.0000 -0.0001
vn 0.7050 0.7091 -0.0117
vn -0.0000 1.0000 -0.0000
vn 0.9213 0.0967 -0.3767
vn 0.9950 0.0987 -0.0165
vn 0.0028 1.0000 0.0009
vn 0.6565 0.7050 0.2683
vn 0.9212 0.0975 0.3767
vn 0.9212 -0.0968 -0.3767
vn 0.7593 0.0962 0.6436
vn 0.5411 0.7044 0.4593
vn 0.7012 0.0960 0.7065
vn 0.4987 0.7064 0.5023
vn 0.0042 1.0000 0.0033
vn 0.0092 0.9999 0.0090
vn 0.0004 1.0000 -0.0000
vn 0.0006 1.0000 0.0003
vn 0.0001 1.0000 -0.0002
vn 0.0008 1.0000 0.0005
vn 0.0128 0.9998 0.0128
vn 0.0010 1.0000 0.0009
vn 0.0095 0.9999 0.0097
vn 0.0008 1.0000 0.0012
vn 0.0044 1.0000 0.0053
vn -0.0001 1.0000 0.0013
vn 0.0014 1.0000 0.0041
vn -0.0006 1.0000 0.0009
vn 0.0008 0.9999 0.0109
vn -0.0001 1.0000 0.0005
vn 0.0019 0.9998 0.0175
vn -0.0000 1.0000 0.0004
vn 0.0017 0.9999 0.0162
vn -0.0003 1.0000 0.0002
vn 0.0005 0.9999 0.0111
vn -0.0006 1.0000 -0.0000
vn -0.0009 0.9999 0.0100
vn -0.0013 1.0000 -0.0022
vn -0.0320 0.9937 0.1076
vn -0.0003 1.0000 -0.0038
vn -0.0513 0.9938 0.0984
vn 0.0015 1.0000 -0.0050
vn -0.0719 0.9939 0.0833
vn 0.0041 1.0000 -0.0049
vn -0.0901 0.9941 0.0604
vn 0.0071 1.0000 -0.0025
vn -0.0158 0.9999 0.0059
vn 0.0076 1.0000 -0.0017
vn -0.0089 1.0000 0.0012
vn 0.0079 1.0000 -0.0007
vn -0.0128 0.9999 0.0008
vn -0.0151 0.9999 0.0002
vn 0.0080 1.0000 -0.0001
vn 0.0080 1.0000 -0.0000
vn -0.7016 0.7125 0.0093
vn -0.7003 0.7122 0.0486
vn -0.9921 0.1047 0.0690
vn -0.9793 0.1046 0.1731
vn -0.6922 0.7113 0.1221
vn -0.9329 0.1043 0.3447
vn -0.6602 0.7106 0.2433
vn -0.8183 0.1034 0.5654
vn -0.5804 0.7093 0.4000
vn -0.4533 0.7081 0.5414
vn -0.6377 0.1019 0.7635
vn -0.4464 0.1001 0.8892
vn -0.3177 0.7068 0.6321
vn -0.2686 0.0986 0.9582
vn -0.1921 0.7057 0.6820
vn -0.0322 0.0972 0.9947
vn -0.0231 0.7068 0.7070
vn 0.0504 0.7065 0.7059
vn 0.0710 0.0963 0.9928
vn 0.1011 0.1032 0.9895
vn 0.0729 0.7065 0.7040
vn 0.1147 0.1483 0.9823
vn 0.0822 0.7064 0.7031
vn 0.1575 0.1924 0.9686
vn 0.0978 0.7059 0.7015
vn 0.4684 0.0964 0.8782
vn 0.3332 0.7063 0.6246
vn 0.4631 0.7045 0.5378
vn 0.6494 0.0950 0.7545
vn 0.6881 0.0953 0.7193
vn 0.4896 0.7060 0.5117
vn 0.6933 0.0957 0.7142
vn 0.4931 0.7065 0.5077
vn 0.6591 -0.7020 -0.2697
vn 0.7625 -0.0968 -0.6397
vn 0.5429 -0.7049 -0.4564
vn 0.7010 -0.0972 -0.7065
vn 0.4978 -0.7073 -0.5019
vn 0.6932 -0.0976 -0.7141
vn 0.4921 -0.7076 -0.5072
vn 0.6879 -0.0979 -0.7192
vn 0.4882 -0.7077 -0.5106
vn 0.6492 -0.0981 -0.7543
vn 0.4617 -0.7065 -0.5364
vn 0.4683 -0.0989 -0.8780
vn 0.3330 -0.7079 -0.6229
vn 0.1910 -0.0972 -0.9768
vn 0.0803 -0.8708 -0.4850
vn 0.1152 -0.0971 -0.9886
vn 0.0675 -0.8137 -0.5773
vn 0.1013 -0.0972 -0.9901
vn 0.0703 -0.7247 -0.6854
vn 0.0043 -0.9991 -0.0421
vn 0.0042 -0.9991 -0.0420
vn 0.0023 -0.9996 -0.0293
vn 0.0023 -0.9996 -0.0295
vn 0.0505 -0.7068 -0.7056
vn -0.0003 -0.9996 -0.0267
vn -0.0005 -0.9996 -0.0275
vn -0.0222 -0.7062 -0.7077
vn 0.0710 -0.0971 -0.9927
vn -0.0321 -0.0968 -0.9948
vn -0.2684 -0.0949 -0.9586
vn -0.1910 -0.7030 -0.6851
vn -0.0525 -0.9799 -0.1924
vn -0.4458 -0.0936 -0.8902
vn -0.3179 -0.7021 -0.6371
vn -0.0886 -0.9796 -0.1802
vn -0.0862 -0.9807 -0.1758
vn -0.0505 -0.9809 -0.1881
vn -0.1246 -0.9806 -0.1516
vn -0.1283 -0.9794 -0.1562
vn -0.4561 -0.7014 -0.5478
vn -0.1619 -0.9803 -0.1134
vn -0.1667 -0.9791 -0.1166
vn -0.5866 -0.7006 -0.4062
vn -0.6386 -0.0923 -0.7640
vn -0.8192 -0.0909 -0.5662
vn -0.9342 -0.0898 -0.3454
vn -0.6693 -0.7005 -0.2477
vn -0.9808 -0.0892 -0.1734
vn -0.7028 -0.7004 -0.1243
vn -0.4481 -0.7119 -0.5407
vn -0.5785 -0.7109 -0.3999
vn -0.8239 -0.0105 -0.5667
vn -0.6401 -0.0147 -0.7682
vn -0.4471 -0.0189 -0.8943
vn -0.3128 -0.7110 -0.6298
vn -0.2709 -0.0225 -0.9623
vn -0.1885 -0.7113 -0.6771
vn -0.0010 -0.0142 -0.9999
vn -0.0195 -0.7105 -0.7034
vn 0.0756 -0.0086 -0.9971
vn 0.0507 -0.7075 -0.7049
vn 0.0950 -0.0122 -0.9954
vn 0.0701 -0.7241 -0.6862
vn 0.0980 0.0017 -0.9952
vn 0.0757 0.0018 -0.9971
vn 0.0778 0.0010 -0.9970
vn -0.0465 0.0018 -0.9989
vn -0.0184 0.0025 -0.9998
vn -0.2716 0.0036 -0.9624
vn -0.2712 0.0051 -0.9625
vn -0.4475 0.0051 -0.8943
vn -0.4474 0.0072 -0.8943
vn -0.6401 0.0097 -0.7682
vn -0.6402 0.0069 -0.7682
vn -0.8238 0.0088 -0.5669
vn -0.8238 0.0123 -0.5668
vt 0.806618 0.281853
vt 0.804613 0.281846
vt 0.804756 0.280920
vt 0.806621 0.280925
vt 0.808487 0.280937
vt 0.808623 0.281861
vt 0.806626 0.279692
vt 0.808183 0.279713
vt 0.805069 0.279696
vt 0.802609 0.281835
vt 0.802891 0.280898
vt 0.803516 0.279646
vt 0.801759 0.280859
vt 0.802606 0.279545
vt 0.801339 0.281822
vt 0.804307 0.278272
vt 0.805463 0.278322
vt 0.803657 0.278103
vt 0.800836 0.280760
vt 0.801880 0.279359
vt 0.803153 0.277800
vt 0.804395 0.276333
vt 0.804685 0.276757
vt 0.805086 0.276973
vt 0.805568 0.275692
vt 0.805593 0.276112
vt 0.805446 0.275170
vt 0.806129 0.275936
vt 0.806071 0.275291
vt 0.806012 0.274731
vt 0.805847 0.276949
vt 0.806640 0.275846
vt 0.806637 0.276839
vt 0.806643 0.275113
vt 0.807149 0.275932
vt 0.807427 0.276963
vt 0.807205 0.275273
vt 0.806645 0.274534
vt 0.807268 0.274712
vt 0.807840 0.275180
vt 0.807714 0.275700
vt 0.807686 0.276120
vt 0.808589 0.276772
vt 0.808883 0.276350
vt 0.808187 0.276984
vt 0.808008 0.274478
vt 0.809258 0.275772
vt 0.807353 0.273966
vt 0.809607 0.278125
vt 0.810114 0.277827
vt 0.810741 0.277404
vt 0.808245 0.273593
vt 0.809718 0.275031
vt 0.811458 0.276849
vt 0.812254 0.279110
vt 0.813219 0.278716
vt 0.811375 0.279395
vt 0.813501 0.280611
vt 0.814663 0.280331
vt 0.812408 0.280803
vt 0.810647 0.279575
vt 0.811484 0.280896
vt 0.812959 0.281800
vt 0.811897 0.281862
vt 0.814192 0.281631
vt 0.809737 0.279670
vt 0.810352 0.280926
vt 0.810627 0.281865
vt 0.810740 0.282896
vt 0.812075 0.282889
vt 0.813203 0.282824
vt 0.808677 0.282896
vt 0.806614 0.282888
vt 0.808689 0.283932
vt 0.806610 0.283924
vt 0.810768 0.283940
vt 0.808787 0.288595
vt 0.806592 0.288585
vt 0.810981 0.288607
vt 0.812441 0.288614
vt 0.812133 0.283944
vt 0.813695 0.288589
vt 0.813299 0.283893
vt 0.814637 0.283733
vt 0.815126 0.288499
vt 0.814500 0.282650
vt 0.815810 0.282399
vt 0.815975 0.283499
vt 0.815458 0.281379
vt 0.815389 0.280280
vt 0.816112 0.281274
vt 0.816397 0.282161
vt 0.816041 0.280150
vt 0.816712 0.281130
vt 0.816941 0.281908
vt 0.802624 0.950597
vt 0.802845 0.953004
vt 0.801720 0.953065
vt 0.801489 0.950670
vt 0.803401 0.950558
vt 0.803618 0.952973
vt 0.803186 0.948137
vt 0.802402 0.948183
vt 0.801257 0.948272
vt 0.804438 0.950512
vt 0.804644 0.952939
vt 0.804233 0.948084
vt 0.802218 0.946367
vt 0.803024 0.946306
vt 0.804087 0.946236
vt 0.809172 0.945878
vt 0.809343 0.947839
vt 0.809536 0.950323
vt 0.814325 0.945520
vt 0.814520 0.947601
vt 0.814702 0.950147
vt 0.809729 0.952809
vt 0.814880 0.952696
vt 0.816949 0.947498
vt 0.817108 0.950082
vt 0.817261 0.952665
vt 0.817113 0.288222
vt 0.817669 0.288065
vt 0.818100 0.293244
vt 0.817533 0.293283
vt 0.818158 0.295692
vt 0.817597 0.295666
vt 0.817976 0.296751
vt 0.817430 0.296681
vt 0.818133 0.950065
vt 0.818272 0.952660
vt 0.817589 0.297839
vt 0.817094 0.297692
vt 0.819228 0.950053
vt 0.819351 0.952661
vt 0.817989 0.947465
vt 0.819102 0.947437
vt 0.820181 0.947419
vt 0.820289 0.950047
vt 0.820395 0.952667
vt 0.821218 0.947409
vt 0.821308 0.950043
vt 0.821398 0.952671
vt 0.817004 0.298835
vt 0.816652 0.298537
vt 0.816151 0.299555
vt 0.815872 0.299143
vt 0.815053 0.300098
vt 0.814829 0.299627
vt 0.822469 0.950038
vt 0.822540 0.952671
vt 0.813551 0.300490
vt 0.813398 0.299973
vt 0.823968 0.950029
vt 0.824019 0.952665
vt 0.822398 0.947401
vt 0.823918 0.947389
vt 0.825899 0.950017
vt 0.825930 0.952656
vt 0.825869 0.947383
vt 0.823902 0.945135
vt 0.825865 0.945128
vt 0.822354 0.945143
vt 0.823905 0.944906
vt 0.825867 0.944899
vt 0.822357 0.944913
vt 0.821138 0.945162
vt 0.821134 0.944932
vt 0.821132 0.944702
vt 0.822360 0.944684
vt 0.823909 0.944677
vt 0.821130 0.944556
vt 0.822362 0.944538
vt 0.823911 0.944532
vt 0.820043 0.944731
vt 0.820038 0.944585
vt 0.820053 0.944961
vt 0.818925 0.944776
vt 0.818916 0.944630
vt 0.818939 0.945006
vt 0.820065 0.945191
vt 0.818954 0.945235
vt 0.817816 0.945290
vt 0.817799 0.945062
vt 0.816754 0.945352
vt 0.816730 0.945124
vt 0.816712 0.944896
vt 0.817785 0.944833
vt 0.816702 0.944751
vt 0.817776 0.944687
vt 0.814288 0.945065
vt 0.814278 0.944921
vt 0.814306 0.945293
vt 0.809139 0.945423
vt 0.809129 0.945279
vt 0.809155 0.945651
vt 0.804075 0.946008
vt 0.804064 0.945779
vt 0.803013 0.945847
vt 0.803017 0.946077
vt 0.803010 0.945702
vt 0.804058 0.945634
vt 0.802170 0.945906
vt 0.802157 0.945761
vt 0.802192 0.946136
vt 0.800985 0.946042
vt 0.800965 0.945899
vt 0.801016 0.946269
vt 0.801048 0.946495
vt 0.798538 0.946308
vt 0.798565 0.946535
vt 0.798592 0.946761
vt 0.798796 0.948491
vt 0.799046 0.950856
vt 0.795711 0.948772
vt 0.795520 0.947093
vt 0.795968 0.951110
vt 0.799293 0.953224
vt 0.796224 0.953449
vt 0.812242 0.276053
vt 0.814386 0.278299
vt 0.813832 0.278536
vt 0.811862 0.276458
vt 0.809895 0.274405
vt 0.810096 0.273813
vt 0.808215 0.272818
vt 0.808255 0.272099
vt 0.792900 0.951368
vt 0.793160 0.953682
vt 0.790714 0.953877
vt 0.790453 0.951584
vt 0.792639 0.949053
vt 0.790187 0.949290
vt 0.789627 0.951658
vt 0.789363 0.949375
vt 0.789884 0.953944
vt 0.789117 0.954018
vt 0.788863 0.951737
vt 0.788604 0.949469
vt 0.872718 0.953872
vt 0.871935 0.953800
vt 0.872184 0.951514
vt 0.872963 0.951591
vt 0.872440 0.949228
vt 0.873218 0.949323
vt 0.806656 0.272143
vt 0.805829 0.272338
vt 0.805835 0.271675
vt 0.806658 0.271516
vt 0.807467 0.271659
vt 0.807469 0.272320
vt 0.806652 0.272823
vt 0.805818 0.273056
vt 0.807474 0.273034
vt 0.805090 0.272808
vt 0.805056 0.272090
vt 0.805055 0.273581
vt 0.805932 0.273987
vt 0.805282 0.274468
vt 0.806648 0.273771
vt 0.804024 0.275752
vt 0.803568 0.275008
vt 0.802529 0.277373
vt 0.801816 0.276813
vt 0.801414 0.276418
vt 0.803397 0.274380
vt 0.803200 0.273786
vt 0.801038 0.276011
vt 0.800041 0.278667
vt 0.799429 0.278482
vt 0.798877 0.278240
vt 0.797859 0.280214
vt 0.797207 0.280080
vt 0.798585 0.280269
vt 0.801003 0.279067
vt 0.799745 0.280559
vt 0.799046 0.281573
vt 0.797782 0.281311
vt 0.800278 0.281753
vt 0.800026 0.282774
vt 0.798730 0.282590
vt 0.801153 0.282848
vt 0.799921 0.283842
vt 0.798584 0.283672
vt 0.801087 0.283902
vt 0.802488 0.282864
vt 0.802452 0.283909
vt 0.804531 0.283916
vt 0.804551 0.282879
vt 0.800744 0.288570
vt 0.802204 0.288573
vt 0.804398 0.288579
vt 0.804278 0.293273
vt 0.801981 0.293268
vt 0.806575 0.293280
vt 0.808871 0.293290
vt 0.806566 0.295449
vt 0.804229 0.295440
vt 0.808904 0.295458
vt 0.811168 0.293303
vt 0.811240 0.295467
vt 0.812693 0.293311
vt 0.812776 0.295472
vt 0.814081 0.295489
vt 0.814000 0.293313
vt 0.815487 0.293308
vt 0.815565 0.295534
vt 0.816941 0.293301
vt 0.817014 0.295622
vt 0.816533 0.288369
vt 0.816548 0.283233
vt 0.817095 0.282970
vt 0.815521 0.296527
vt 0.816868 0.296624
vt 0.815501 0.297627
vt 0.816589 0.297605
vt 0.815660 0.298710
vt 0.816332 0.298316
vt 0.814623 0.299137
vt 0.814312 0.297819
vt 0.813004 0.297972
vt 0.813246 0.299441
vt 0.811518 0.300173
vt 0.811442 0.299619
vt 0.811343 0.298070
vt 0.812832 0.296545
vt 0.814125 0.296524
vt 0.811274 0.296567
vt 0.808919 0.296572
vt 0.808951 0.298108
vt 0.806562 0.296561
vt 0.806556 0.298089
vt 0.806550 0.299664
vt 0.808999 0.299689
vt 0.804206 0.296553
vt 0.804162 0.298086
vt 0.804102 0.299662
vt 0.806548 0.300225
vt 0.804062 0.300223
vt 0.809035 0.300250
vt 0.806546 0.300766
vt 0.804025 0.300763
vt 0.809067 0.300791
vt 0.830916 0.952642
vt 0.830912 0.950004
vt 0.833421 0.950003
vt 0.833414 0.952641
vt 0.828419 0.952650
vt 0.828403 0.950011
vt 0.801579 0.300135
vt 0.801499 0.300670
vt 0.835925 0.950002
vt 0.835902 0.952644
vt 0.833427 0.947366
vt 0.835946 0.947367
vt 0.830908 0.947370
vt 0.835943 0.945109
vt 0.833420 0.945110
vt 0.830905 0.945115
vt 0.828390 0.947375
vt 0.828389 0.945118
vt 0.830904 0.944886
vt 0.833420 0.944882
vt 0.828388 0.944890
vt 0.828384 0.944662
vt 0.830904 0.944658
vt 0.825870 0.944670
vt 0.825871 0.944526
vt 0.828382 0.944517
vt 0.825873 0.944296
vt 0.828378 0.944289
vt 0.823914 0.944302
vt 0.828377 0.944060
vt 0.825875 0.944067
vt 0.823916 0.944073
vt 0.822365 0.944080
vt 0.822364 0.944309
vt 0.821124 0.944099
vt 0.821128 0.944327
vt 0.820018 0.944127
vt 0.820028 0.944355
vt 0.818889 0.944171
vt 0.818903 0.944400
vt 0.817746 0.944228
vt 0.817761 0.944457
vt 0.816666 0.944296
vt 0.816686 0.944523
vt 0.814242 0.944464
vt 0.814260 0.944693
vt 0.809096 0.944822
vt 0.809112 0.945050
vt 0.804034 0.945173
vt 0.804047 0.945403
vt 0.802994 0.945244
vt 0.803005 0.945472
vt 0.802113 0.945314
vt 0.802136 0.945536
vt 0.800905 0.945443
vt 0.800935 0.945671
vt 0.798468 0.945708
vt 0.798495 0.945936
vt 0.798521 0.946164
vt 0.795470 0.946639
vt 0.795455 0.946495
vt 0.795430 0.946267
vt 0.792396 0.946827
vt 0.792372 0.946599
vt 0.792411 0.946971
vt 0.795405 0.946039
vt 0.792349 0.946370
vt 0.789893 0.946644
vt 0.789915 0.946869
vt 0.789935 0.947096
vt 0.788886 0.946766
vt 0.788928 0.946986
vt 0.788985 0.947205
vt 0.787990 0.947156
vt 0.787922 0.946917
vt 0.788099 0.947386
vt 0.788174 0.947525
vt 0.789024 0.947346
vt 0.789948 0.947240
vt 0.788291 0.947737
vt 0.789087 0.947571
vt 0.789969 0.947468
vt 0.792434 0.947199
vt 0.789990 0.947695
vt 0.789139 0.947801
vt 0.792458 0.947426
vt 0.795495 0.946866
vt 0.788371 0.947945
vt 0.873433 0.947791
vt 0.872657 0.947656
vt 0.872706 0.947426
vt 0.873512 0.947582
vt 0.872767 0.947202
vt 0.873631 0.947371
vt 0.871826 0.947555
vt 0.871846 0.947327
vt 0.871866 0.947098
vt 0.869403 0.946838
vt 0.869381 0.947065
vt 0.869358 0.947292
vt 0.871878 0.946955
vt 0.872804 0.947062
vt 0.869417 0.946693
vt 0.866342 0.946517
vt 0.866357 0.946373
vt 0.866318 0.946744
vt 0.863273 0.946196
vt 0.863290 0.946052
vt 0.863247 0.946423
vt 0.866294 0.946971
vt 0.863221 0.946650
vt 0.866109 0.948651
vt 0.863023 0.948381
vt 0.869181 0.948922
vt 0.871635 0.949147
vt 0.871376 0.951443
vt 0.868929 0.951237
vt 0.865861 0.950989
vt 0.868678 0.953552
vt 0.865613 0.953330
vt 0.871123 0.953738
vt 0.862781 0.950747
vt 0.862543 0.953116
vt 0.860114 0.952965
vt 0.860336 0.950569
vt 0.860561 0.948171
vt 0.859204 0.950501
vt 0.859417 0.948086
vt 0.858991 0.952909
vt 0.859593 0.946269
vt 0.860764 0.946393
vt 0.859618 0.946038
vt 0.860795 0.946167
vt 0.859639 0.945808
vt 0.860826 0.945939
vt 0.859652 0.945663
vt 0.860845 0.945796
vt 0.858797 0.945752
vt 0.858799 0.945607
vt 0.858793 0.945982
vt 0.857745 0.945688
vt 0.857751 0.945543
vt 0.857736 0.945917
vt 0.858787 0.946211
vt 0.857724 0.946145
vt 0.858632 0.948043
vt 0.857584 0.947993
vt 0.858425 0.950464
vt 0.857388 0.950422
vt 0.858218 0.952880
vt 0.857191 0.952849
vt 0.796134 0.282890
vt 0.796295 0.281830
vt 0.796837 0.282086
vt 0.796678 0.283157
vt 0.796531 0.281052
vt 0.797129 0.281200
vt 0.852106 0.952738
vt 0.852290 0.950251
vt 0.795521 0.287981
vt 0.796075 0.288142
vt 0.797249 0.283428
vt 0.796654 0.288293
vt 0.797422 0.282329
vt 0.798060 0.288434
vt 0.799489 0.288535
vt 0.797662 0.293240
vt 0.799149 0.293257
vt 0.796208 0.293223
vt 0.797567 0.295465
vt 0.796117 0.295543
vt 0.799053 0.295432
vt 0.795617 0.293200
vt 0.795533 0.295582
vt 0.795050 0.293157
vt 0.794972 0.295603
vt 0.795146 0.296665
vt 0.795692 0.296599
vt 0.796254 0.296546
vt 0.796526 0.297529
vt 0.796021 0.297612
vt 0.795526 0.297756
vt 0.796110 0.298748
vt 0.796465 0.298453
vt 0.796787 0.298233
vt 0.797619 0.297557
vt 0.797446 0.298643
vt 0.797604 0.296458
vt 0.799001 0.296466
vt 0.798804 0.297760
vt 0.798480 0.299076
vt 0.798270 0.299564
vt 0.797231 0.299074
vt 0.796948 0.299476
vt 0.798041 0.300039
vt 0.799855 0.299390
vt 0.799700 0.299921
vt 0.799544 0.300437
vt 0.801659 0.299582
vt 0.800110 0.297924
vt 0.801770 0.298034
vt 0.800293 0.296498
vt 0.801851 0.296531
vt 0.801893 0.295432
vt 0.800357 0.295425
vt 0.800456 0.293264
vt 0.839293 0.952643
vt 0.837814 0.952643
vt 0.837856 0.950006
vt 0.839355 0.950010
vt 0.837897 0.947368
vt 0.839417 0.947372
vt 0.837906 0.945112
vt 0.839453 0.945118
vt 0.837902 0.944884
vt 0.839449 0.944888
vt 0.835940 0.944881
vt 0.837899 0.944655
vt 0.839447 0.944659
vt 0.835937 0.944653
vt 0.835936 0.944508
vt 0.837896 0.944510
vt 0.839444 0.944513
vt 0.833423 0.944654
vt 0.833425 0.944509
vt 0.830903 0.944513
vt 0.830903 0.944284
vt 0.833428 0.944280
vt 0.833428 0.944052
vt 0.830902 0.944054
vt 0.828378 0.943534
vt 0.830901 0.943526
vt 0.833426 0.943525
vt 0.835931 0.944051
vt 0.835933 0.944280
vt 0.835928 0.943524
vt 0.835927 0.943295
vt 0.833424 0.943296
vt 0.830901 0.943296
vt 0.833419 0.943067
vt 0.830901 0.943067
vt 0.835927 0.943065
vt 0.837887 0.943524
vt 0.837887 0.943295
vt 0.837888 0.943065
vt 0.837887 0.942631
vt 0.835925 0.942631
vt 0.833410 0.942634
vt 0.839448 0.942638
vt 0.839447 0.943072
vt 0.839445 0.943301
vt 0.840703 0.942650
vt 0.840701 0.943085
vt 0.840696 0.943314
vt 0.839442 0.943530
vt 0.840691 0.943543
vt 0.841805 0.943567
vt 0.841812 0.943340
vt 0.841818 0.943111
vt 0.842943 0.943602
vt 0.842953 0.943372
vt 0.842962 0.943142
vt 0.841827 0.942666
vt 0.842977 0.942715
vt 0.844147 0.942762
vt 0.844124 0.943197
vt 0.844109 0.943427
vt 0.845255 0.942836
vt 0.845217 0.943273
vt 0.845197 0.943500
vt 0.844093 0.943656
vt 0.845180 0.943727
vt 0.847605 0.943881
vt 0.847622 0.943653
vt 0.847640 0.943424
vt 0.852748 0.944222
vt 0.852764 0.943994
vt 0.852779 0.943766
vt 0.852808 0.943332
vt 0.847672 0.942992
vt 0.857872 0.943659
vt 0.857841 0.944092
vt 0.857824 0.944322
vt 0.858951 0.943739
vt 0.858906 0.944169
vt 0.858878 0.944397
vt 0.857808 0.944552
vt 0.858854 0.944625
vt 0.859739 0.944706
vt 0.859760 0.944485
vt 0.859782 0.944262
vt 0.860962 0.944811
vt 0.860983 0.944582
vt 0.861004 0.944354
vt 0.859826 0.943821
vt 0.861048 0.943923
vt 0.863494 0.944182
vt 0.863448 0.944614
vt 0.863424 0.944842
vt 0.866555 0.944502
vt 0.866510 0.944934
vt 0.866486 0.945162
vt 0.863399 0.945070
vt 0.866462 0.945390
vt 0.869519 0.945710
vt 0.869544 0.945482
vt 0.869569 0.945253
vt 0.871977 0.945985
vt 0.872007 0.945761
vt 0.872038 0.945536
vt 0.872096 0.945103
vt 0.869616 0.944822
vt 0.872990 0.945657
vt 0.872990 0.945230
vt 0.872986 0.945882
vt 0.873914 0.945716
vt 0.873956 0.945964
vt 0.873814 0.945257
vt 0.872970 0.946106
vt 0.873954 0.946210
vt 0.787888 0.945853
vt 0.788797 0.945807
vt 0.788800 0.946032
vt 0.787849 0.946104
vt 0.788816 0.946254
vt 0.787851 0.946353
vt 0.873884 0.946770
vt 0.872901 0.946621
vt 0.789832 0.946125
vt 0.789802 0.945900
vt 0.792291 0.945843
vt 0.792265 0.945616
vt 0.789771 0.945674
vt 0.792240 0.945388
vt 0.789713 0.945240
vt 0.792192 0.944957
vt 0.788800 0.945378
vt 0.787984 0.945392
vt 0.795250 0.944625
vt 0.795297 0.945057
vt 0.798310 0.944295
vt 0.798358 0.944726
vt 0.800756 0.944026
vt 0.800801 0.944457
vt 0.801978 0.943919
vt 0.802024 0.944360
vt 0.802853 0.943835
vt 0.802899 0.944265
vt 0.803930 0.943751
vt 0.803963 0.944184
vt 0.808994 0.943406
vt 0.809024 0.943839
vt 0.814129 0.943048
vt 0.814163 0.943480
vt 0.816545 0.942884
vt 0.816585 0.943321
vt 0.817653 0.942812
vt 0.817679 0.943239
vt 0.818822 0.942749
vt 0.818840 0.943183
vt 0.819970 0.942708
vt 0.819985 0.943143
vt 0.821095 0.942673
vt 0.821102 0.943118
vt 0.822354 0.942663
vt 0.822355 0.943098
vt 0.823915 0.942653
vt 0.823915 0.943087
vt 0.825875 0.942648
vt 0.825876 0.943082
vt 0.828383 0.943076
vt 0.828391 0.942642
vt 0.830901 0.942632
vt 0.828379 0.943305
vt 0.825876 0.943310
vt 0.825877 0.943539
vt 0.823917 0.943545
vt 0.823916 0.943316
vt 0.822361 0.943555
vt 0.822357 0.943327
vt 0.821112 0.943574
vt 0.821107 0.943347
vt 0.819990 0.943372
vt 0.819998 0.943601
vt 0.818860 0.943642
vt 0.818849 0.943413
vt 0.817710 0.943699
vt 0.817693 0.943469
vt 0.816623 0.943775
vt 0.816605 0.943548
vt 0.814181 0.943709
vt 0.814199 0.943938
vt 0.809057 0.944296
vt 0.809040 0.944068
vt 0.803998 0.944643
vt 0.803981 0.944413
vt 0.802952 0.944719
vt 0.802927 0.944492
vt 0.802066 0.944805
vt 0.802046 0.944584
vt 0.800823 0.944686
vt 0.800845 0.944915
vt 0.798408 0.945182
vt 0.798383 0.944954
vt 0.795347 0.945513
vt 0.795322 0.945285
vt 0.873817 0.947007
vt 0.872859 0.946842
vt 0.871918 0.946503
vt 0.871897 0.946728
vt 0.869463 0.946237
vt 0.869440 0.946465
vt 0.866406 0.945917
vt 0.866382 0.946145
vt 0.863341 0.945596
vt 0.863315 0.945824
vt 0.860904 0.945339
vt 0.860875 0.945567
vt 0.859695 0.945216
vt 0.859673 0.945438
vt 0.858813 0.945150
vt 0.858804 0.945379
vt 0.857774 0.945083
vt 0.857762 0.945313
vt 0.852711 0.944749
vt 0.852695 0.944977
vt 0.852679 0.945205
vt 0.852670 0.945350
vt 0.847519 0.945009
vt 0.847529 0.944865
vt 0.847546 0.944636
vt 0.845094 0.944848
vt 0.845104 0.944704
vt 0.845120 0.944475
vt 0.847564 0.944408
vt 0.845139 0.944249
vt 0.844059 0.944185
vt 0.844044 0.944414
vt 0.844030 0.944644
vt 0.842916 0.944131
vt 0.842903 0.944360
vt 0.842890 0.944591
vt 0.842882 0.944736
vt 0.844022 0.944790
vt 0.841763 0.944696
vt 0.841768 0.944551
vt 0.841777 0.944321
vt 0.840675 0.944671
vt 0.840675 0.944525
vt 0.840678 0.944296
vt 0.841787 0.944093
vt 0.840681 0.944067
vt 0.839440 0.944055
vt 0.839442 0.944284
vt 0.837889 0.944052
vt 0.837892 0.944281
vt 0.841753 0.944927
vt 0.840672 0.944901
vt 0.840669 0.945132
vt 0.841742 0.945156
vt 0.842853 0.945196
vt 0.842868 0.944966
vt 0.843992 0.945248
vt 0.844008 0.945019
vt 0.845055 0.945305
vt 0.845078 0.945077
vt 0.847484 0.945465
vt 0.847503 0.945238
vt 0.852638 0.945805
vt 0.852654 0.945578
vt 0.852474 0.947767
vt 0.847296 0.947546
vt 0.847123 0.950093
vt 0.846954 0.952643
vt 0.844717 0.950036
vt 0.844867 0.947452
vt 0.844572 0.952619
vt 0.843561 0.952618
vt 0.843691 0.950022
vt 0.843827 0.947422
vt 0.842596 0.950014
vt 0.842714 0.947399
vt 0.842483 0.952623
vt 0.841634 0.947384
vt 0.841535 0.950012
vt 0.840517 0.950011
vt 0.840598 0.947377
vt 0.841439 0.952632
vt 0.840436 0.952639
vt 0.873707 0.947234
vt 0.811594 0.300709
vt 0.808956 0.278290
vt 0.807800 0.278339
vt 0.806632 0.278287
s 1
f 2/1/1 6/2/1 5/3/1 1/4/1
f 2/1/1 1/4/1 3/5/1 57/6/1
f 1/4/1 4/7/1 776/8/1 3/5/1
f 1/4/1 5/3/1 7/9/1 4/7/1
f 6/2/1 10/10/1 8/11/1 5/3/1
f 5/3/1 8/11/1 11/12/1 7/9/1
f 9/13/1 13/14/1 11/12/1 8/11/1
f 227/15/1 9/13/1 8/11/1 10/10/1
f 12/16/1 780/17/1 7/9/1 11/12/1
f 13/14/1 15/18/1 12/16/1 11/12/1
f 13/14/1 9/13/1 225/19/1 14/20/1
f 15/18/1 13/14/1 14/20/1 16/21/1
f 19/22/1 17/23/1 15/18/1 16/21/1
f 17/23/1 18/24/2 12/16/1 15/18/1
f 18/24/2 17/23/1 20/25/1 23/26/1
f 17/23/1 19/22/1 22/27/1 20/25/1
f 24/28/3 23/26/1 20/25/1 21/29/4
f 22/27/1 206/30/5 21/29/4 20/25/1
f 23/26/1 24/28/3 25/31/1 18/24/2
f 24/28/3 26/32/6 27/33/7 25/31/1
f 26/32/6 24/28/3 21/29/4 29/34/8
f 27/33/7 26/32/6 28/35/9 778/36/1
f 26/32/6 29/34/8 31/37/10 28/35/9
f 206/30/5 30/38/8 29/34/8 21/29/4
f 29/34/8 30/38/8 32/39/11 31/37/10
f 36/40/12 33/41/1 31/37/10 32/39/11
f 33/41/1 35/42/12 28/35/9 31/37/10
f 34/43/1 33/41/1 36/40/12 38/44/1
f 33/41/1 34/43/1 781/45/13 35/42/12
f 37/46/1 40/47/1 38/44/1 36/40/12
f 37/46/1 36/40/12 32/39/11 769/48/14
f 782/49/1 34/43/1 38/44/1 39/50/1
f 40/47/1 42/51/1 39/50/1 38/44/1
f 40/47/1 37/46/1 771/52/15 41/53/16
f 42/51/1 40/47/1 41/53/16 43/54/17
f 44/55/1 42/51/1 43/54/17 45/56/16
f 42/51/1 44/55/1 47/57/1 39/50/1
f 46/58/1 44/55/1 45/56/16 75/59/18
f 44/55/1 46/58/1 49/60/1 47/57/1
f 47/57/1 48/61/1 782/49/1 39/50/1
f 48/61/1 47/57/1 49/60/1 51/62/1
f 50/63/1 53/64/1 51/62/1 49/60/1
f 46/58/1 73/65/1 50/63/1 49/60/1
f 774/66/1 48/61/1 51/62/1 52/67/1
f 53/64/1 55/68/1 52/67/1 51/62/1
f 56/69/1 55/68/1 53/64/1 54/70/1
f 54/70/1 53/64/1 50/63/1 70/71/1
f 55/68/1 56/69/1 58/72/1 57/6/1
f 52/67/1 55/68/1 57/6/1 3/5/1
f 59/73/1 2/1/1 57/6/1 58/72/1
f 59/73/1 58/72/1 60/74/1 61/75/1
f 56/69/1 63/76/1 60/74/1 58/72/1
f 61/75/1 60/74/1 62/77/1 240/78/1
f 63/76/1 64/79/1 62/77/1 60/74/1
f 66/80/1 64/79/1 63/76/1 65/81/1
f 63/76/1 56/69/1 54/70/1 65/81/1
f 68/82/1 66/80/1 65/81/1 67/83/1
f 65/81/1 54/70/1 70/71/1 67/83/1
f 69/84/1 254/85/1 68/82/1 67/83/1
f 67/83/1 70/71/1 71/86/1 69/84/1
f 70/71/1 50/63/1 73/65/1 71/86/1
f 72/87/19 256/88/20 69/84/1 71/86/1
f 74/89/21 72/87/19 71/86/1 73/65/1
f 73/65/1 46/58/1 75/59/18 74/89/21
f 74/89/21 75/59/18 77/90/22 76/91/23
f 76/91/23 78/92/24 72/87/19 74/89/21
f 80/93/25 79/94/26 76/91/23 77/90/22
f 79/94/26 81/95/27 78/92/24 76/91/23
f 82/96/28 79/97/26 80/98/25 84/99/29
f 85/100/30 81/101/27 79/97/26 82/96/28
f 87/102/31 85/100/30 82/96/28 83/103/32
f 84/99/29 173/104/33 83/103/32 82/96/28
f 86/105/34 259/106/35 81/101/27 85/100/30
f 89/107/36 86/105/34 85/100/30 87/102/31
f 83/103/32 168/108/37 88/109/38 87/102/31
f 87/102/31 88/109/38 90/110/39 89/107/36
f 92/111/40 91/112/41 89/107/36 90/110/39
f 86/105/34 89/107/36 91/112/41 94/113/42
f 91/112/41 92/111/40 157/114/43 93/115/44
f 93/115/44 96/116/45 94/113/42 91/112/41
f 94/113/42 95/117/46 259/106/35 86/105/34
f 96/116/45 98/118/47 95/117/46 94/113/42
f 96/116/45 93/115/44 772/119/48 97/120/49
f 97/120/49 100/121/50 98/118/47 96/116/45
f 257/122/51 95/123/46 98/124/47 99/125/52
f 98/124/47 100/126/50 101/127/53 99/125/52
f 101/127/53 100/126/50 102/128/54 103/129/55
f 105/130/56 102/131/54 100/121/50 97/120/49
f 103/129/55 102/128/54 104/132/57 266/133/58
f 107/134/59 104/135/57 102/131/54 105/130/56
f 106/136/60 105/130/56 97/120/49 772/119/48
f 105/130/56 106/136/60 108/137/61 107/134/59
f 110/138/62 109/139/63 107/134/59 108/137/61
f 109/139/63 112/140/64 104/135/57 107/134/59
f 109/139/63 110/138/62 773/141/65 111/142/66
f 111/142/66 114/143/67 112/140/64 109/139/63
f 266/133/58 104/132/57 112/144/64 113/145/68
f 112/144/64 114/146/67 115/147/69 113/145/68
f 114/146/67 116/148/70 117/149/71 115/147/69
f 119/150/72 116/151/70 114/143/67 111/142/66
f 117/149/71 116/148/70 118/152/73 271/153/74
f 121/154/75 118/155/73 116/151/70 119/150/72
f 120/156/76 119/150/72 111/142/66 773/141/65
f 119/150/72 120/156/76 123/157/77 121/154/75
f 122/158/78 767/159/79 118/155/73 121/154/75
f 123/157/77 124/160/80 122/158/78 121/154/75
f 125/161/81 126/162/82 124/160/80 123/157/77
f 128/163/83 125/161/81 123/157/77 120/156/76
f 126/162/82 125/161/81 127/164/84 306/165/85
f 125/161/81 128/163/83 130/166/86 127/164/84
f 128/163/83 129/167/87 131/168/88 130/166/86
f 773/141/65 129/167/87 128/163/83 120/156/76
f 135/169/89 132/170/90 130/166/86 131/168/88
f 132/170/90 134/171/91 127/164/84 130/166/86
f 135/169/89 136/172/92 133/173/93 132/170/90
f 132/170/90 133/173/93 310/174/94 134/171/91
f 137/175/95 138/176/96 136/172/92 135/169/89
f 137/175/95 135/169/89 131/168/88 140/177/97
f 139/178/98 325/179/99 138/176/96 137/175/95
f 139/178/98 137/175/95 140/177/97 141/180/100
f 142/181/101 143/182/102 141/180/100 140/177/97
f 129/167/87 142/181/101 140/177/97 131/168/88
f 108/137/61 143/182/102 142/181/101 110/138/62
f 129/167/87 773/141/65 110/138/62 142/181/101
f 143/182/102 108/137/61 106/136/60 144/183/103
f 143/182/102 144/183/103 146/184/104 141/180/100
f 144/183/103 145/185/105 147/186/106 146/184/104
f 772/119/48 145/185/105 144/183/103 106/136/60
f 150/187/107 148/188/108 146/184/104 147/186/106
f 148/188/108 139/178/98 141/180/100 146/184/104
f 150/187/107 151/189/109 149/190/110 148/188/108
f 148/188/108 149/190/110 325/179/99 139/178/98
f 152/191/111 153/192/112 151/189/109 150/187/107
f 152/191/111 150/187/107 147/186/106 155/193/113
f 154/194/114 334/195/115 153/192/112 152/191/111
f 154/194/114 152/191/111 155/193/113 156/196/116
f 157/114/43 92/111/40 156/196/116 155/193/113
f 145/185/105 157/114/43 155/193/113 147/186/106
f 145/185/105 772/119/48 93/115/44 157/114/43
f 92/111/40 90/110/39 158/197/117 156/196/116
f 160/198/118 154/194/114 156/196/116 158/197/117
f 162/199/119 160/198/118 158/197/117 159/200/120
f 90/110/39 88/109/38 159/200/120 158/197/117
f 162/199/119 163/201/121 161/202/122 160/198/118
f 160/198/118 161/202/122 334/195/115 154/194/114
f 164/203/123 165/204/124 163/201/121 162/199/119
f 164/203/123 162/199/119 159/200/120 167/205/125
f 164/203/123 166/206/126 343/207/127 165/204/124
f 166/206/126 164/203/123 167/205/125 169/208/128
f 168/108/37 171/209/129 169/208/128 167/205/125
f 88/109/38 168/108/37 167/205/125 159/200/120
f 345/210/130 166/206/126 169/208/128 170/211/131
f 171/209/129 172/212/132 170/211/131 169/208/128
f 174/213/133 172/212/132 171/209/129 173/104/33
f 168/108/37 83/103/32 173/104/33 171/209/129
f 173/104/33 84/99/29 176/214/134 174/213/133
f 172/212/132 174/213/133 175/215/135 371/216/136
f 177/217/137 175/215/135 174/213/133 176/214/134
f 176/214/134 178/218/138 179/219/139 177/217/137
f 84/99/29 80/98/25 178/218/138 176/214/134
f 179/220/139 178/221/138 180/222/140 181/223/141
f 178/221/138 80/93/25 77/90/22 180/222/140
f 45/56/16 43/54/17 181/223/141 180/222/140
f 75/59/18 45/56/16 180/222/140 77/90/22
f 182/224/142 184/225/143 179/220/139 181/223/141
f 41/53/16 182/224/142 181/223/141 43/54/17
f 183/226/144 185/227/145 184/225/143 182/224/142
f 771/52/15 183/226/144 182/224/142 41/53/16
f 186/228/146 184/229/143 185/230/145 188/231/147
f 177/217/137 179/219/139 184/229/143 186/228/146
f 175/215/135 177/217/137 186/228/146 187/232/148
f 188/231/147 189/233/149 187/232/148 186/228/146
f 189/233/149 188/231/147 190/234/150 192/235/151
f 188/231/147 185/230/145 191/236/152 190/234/150
f 196/237/153 193/238/154 190/234/150 191/236/152
f 193/238/154 195/239/155 192/235/151 190/234/150
f 196/240/153 197/241/156 194/242/157 193/243/154
f 193/243/154 194/242/157 765/244/158 195/245/155
f 198/246/159 201/247/160 197/248/156 196/249/153
f 198/246/159 196/249/153 191/250/152 200/251/161
f 201/247/160 198/246/159 199/252/162 203/253/163
f 199/252/162 198/246/159 200/251/161 770/254/164
f 201/247/160 202/255/165 764/256/166 197/248/156
f 202/255/165 201/247/160 203/253/163 204/257/167
f 204/257/167 203/253/163 205/258/168 208/259/1
f 203/253/163 199/252/162 207/260/8 205/258/168
f 206/30/5 22/27/1 208/259/1 205/258/168
f 30/38/8 206/30/5 205/258/168 207/260/8
f 208/259/1 209/261/1 211/262/169 204/257/167
f 209/261/1 208/259/1 22/27/1 19/22/1
f 210/263/1 209/261/1 19/22/1 16/21/1
f 209/261/1 210/263/1 212/264/170 211/262/169
f 211/262/169 212/264/170 215/265/171 213/266/172
f 204/257/167 211/262/169 213/266/172 202/255/165
f 214/267/173 764/256/166 202/255/165 213/266/172
f 216/268/174 214/267/173 213/266/172 215/265/171
f 215/265/171 212/264/170 220/269/169 217/270/175
f 216/268/174 215/265/171 217/270/175 218/271/176
f 219/272/177 403/273/178 218/271/176 217/270/175
f 221/274/179 219/272/177 217/270/175 220/269/169
f 222/275/1 223/276/1 221/274/179 220/269/169
f 210/263/1 222/275/1 220/269/169 212/264/170
f 222/275/1 210/263/1 16/21/1 14/20/1
f 223/276/1 222/275/1 14/20/1 225/19/1
f 223/276/1 224/277/1 436/278/180 221/274/179
f 224/277/1 223/276/1 225/19/1 226/279/1
f 9/13/1 227/15/1 226/279/1 225/19/1
f 228/280/1 229/281/1 224/277/1 226/279/1
f 226/279/1 227/15/1 231/282/1 228/280/1
f 230/283/1 434/284/1 229/281/1 228/280/1
f 228/280/1 231/282/1 232/285/1 230/283/1
f 233/286/1 231/282/1 227/15/1 10/10/1
f 235/287/1 232/285/1 231/282/1 233/286/1
f 237/288/1 235/287/1 233/286/1 234/289/1
f 10/10/1 6/2/1 234/289/1 233/286/1
f 482/290/1 232/285/1 235/287/1 236/291/1
f 238/292/1 236/291/1 235/287/1 237/288/1
f 240/78/1 238/292/1 237/288/1 61/75/1
f 61/75/1 237/288/1 234/289/1 59/73/1
f 239/293/1 477/294/1 236/291/1 238/292/1
f 241/295/1 239/293/1 238/292/1 240/78/1
f 241/295/1 240/78/1 62/77/1 243/296/1
f 242/297/1 479/298/1 239/293/1 241/295/1
f 242/297/1 241/295/1 243/296/1 244/299/1
f 245/300/1 246/301/1 244/299/1 243/296/1
f 64/79/1 245/300/1 243/296/1 62/77/1
f 64/79/1 66/80/1 247/302/1 245/300/1
f 248/303/1 246/301/1 245/300/1 247/302/1
f 250/304/1 248/303/1 247/302/1 249/305/1
f 66/80/1 68/82/1 249/305/1 247/302/1
f 251/306/1 252/307/1 250/304/1 249/305/1
f 254/85/1 251/306/1 249/305/1 68/82/1
f 252/307/1 251/306/1 253/308/181 260/309/182
f 251/306/1 254/85/1 255/310/183 253/308/181
f 254/85/1 69/84/1 256/88/20 255/310/183
f 256/88/20 258/311/184 257/122/51 255/310/183
f 255/310/183 257/122/51 99/125/52 253/308/181
f 258/311/184 259/312/35 95/123/46 257/122/51
f 78/92/24 81/95/27 259/312/35 258/311/184
f 72/87/19 78/92/24 258/311/184 256/88/20
f 260/309/182 253/308/181 99/125/52 101/127/53
f 262/313/1 252/307/1 260/309/182 261/314/185
f 260/309/182 101/127/53 103/129/55 261/314/185
f 264/315/1 262/313/1 261/314/185 263/316/186
f 261/314/185 103/129/55 266/133/58 263/316/186
f 267/317/187 264/315/1 263/316/186 265/318/188
f 263/316/186 266/133/58 113/145/68 265/318/188
f 265/318/188 113/145/68 115/147/69 267/317/187
f 264/315/1 267/317/187 268/319/189 269/320/1
f 267/317/187 115/147/69 117/149/71 268/319/189
f 273/321/1 269/320/1 268/319/189 270/322/190
f 268/319/189 117/149/71 271/153/74 270/322/190
f 270/322/190 271/153/74 768/323/191 272/324/192
f 274/325/1 273/321/1 270/322/190 272/324/192
f 269/320/1 273/321/1 275/326/1 276/327/1
f 273/321/1 274/325/1 277/328/1 275/326/1
f 248/303/1 250/304/1 276/327/1 275/326/1
f 246/301/1 248/303/1 275/326/1 277/328/1
f 246/301/1 277/328/1 278/329/1 244/299/1
f 277/328/1 274/325/1 280/330/1 278/329/1
f 279/331/1 242/297/1 244/299/1 278/329/1
f 279/331/1 278/329/1 280/330/1 282/332/1
f 284/333/193 282/332/1 280/330/1 281/334/194
f 274/325/1 272/324/192 281/334/194 280/330/1
f 475/335/1 279/331/1 282/332/1 283/336/1
f 284/333/193 285/337/194 283/336/1 282/332/1
f 286/338/195 287/339/196 285/337/194 284/333/193
f 286/338/195 284/333/193 281/334/194 288/340/197
f 287/339/196 286/338/195 289/341/198 292/342/199
f 289/341/198 286/338/195 288/340/197 291/343/200
f 289/344/198 290/345/201 294/346/202 292/347/199
f 291/348/200 766/349/203 290/345/201 289/344/198
f 468/350/204 287/339/196 292/342/199 293/351/205
f 292/347/199 294/346/202 295/352/206 293/353/205
f 295/352/206 294/346/202 296/354/207 297/355/208
f 290/345/201 299/356/209 296/354/207 294/346/202
f 490/357/210 297/355/208 296/354/207 298/358/211
f 301/359/212 298/358/211 296/354/207 299/356/209
f 301/359/212 299/356/209 300/360/213 303/361/214
f 290/345/201 766/349/203 300/360/213 299/356/209
f 301/359/212 302/362/215 502/363/216 298/358/211
f 303/361/214 304/364/217 302/362/215 301/359/212
f 126/162/82 306/165/85 304/364/217 303/361/214
f 126/162/82 303/361/214 300/360/213 124/160/80
f 302/362/215 304/364/217 305/365/218 501/366/219
f 306/165/85 307/367/220 305/365/218 304/364/217
f 134/171/91 307/367/220 306/165/85 127/164/84
f 308/368/221 309/369/222 305/365/218 307/367/220
f 134/171/91 310/174/94 308/368/221 307/367/220
f 308/368/221 311/370/223 312/371/224 309/369/222
f 308/368/221 310/174/94 314/372/225 311/370/223
f 507/373/226 312/371/224 311/370/223 313/374/227
f 315/375/228 313/374/227 311/370/223 314/372/225
f 317/376/229 315/375/228 314/372/225 316/377/230
f 310/174/94 133/173/93 316/377/230 314/372/225
f 319/378/231 317/376/229 316/377/230 318/379/232
f 133/173/93 136/172/92 318/379/232 316/377/230
f 321/380/233 319/378/231 318/379/232 320/381/234
f 136/172/92 138/176/96 320/381/234 318/379/232
f 323/382/235 321/380/233 320/381/234 322/383/236
f 138/176/96 325/179/99 322/383/236 320/381/234
f 326/384/237 323/382/235 322/383/236 324/385/238
f 325/179/99 149/190/110 324/385/238 322/383/236
f 328/386/239 326/384/237 324/385/238 327/387/240
f 149/190/110 151/189/109 327/387/240 324/385/238
f 330/388/241 328/386/239 327/387/240 329/389/242
f 151/189/109 153/192/112 329/389/242 327/387/240
f 332/390/243 330/388/241 329/389/242 331/391/244
f 153/192/112 334/195/115 331/391/244 329/389/242
f 335/392/245 332/390/243 331/391/244 333/393/246
f 334/195/115 161/202/122 333/393/246 331/391/244
f 337/394/247 335/392/245 333/393/246 336/395/248
f 161/202/122 163/201/121 336/395/248 333/393/246
f 339/396/249 337/394/247 336/395/248 338/397/250
f 163/201/121 165/204/124 338/397/250 336/395/248
f 341/398/251 339/396/249 338/397/250 340/399/252
f 165/204/124 343/207/127 340/399/252 338/397/250
f 668/400/253 341/398/251 340/399/252 342/401/254
f 343/207/127 344/402/255 342/401/254 340/399/252
f 345/210/130 344/402/255 343/207/127 166/206/126
f 348/403/256 346/404/257 344/402/255 345/210/130
f 344/402/255 346/404/257 349/405/258 342/401/254
f 346/404/257 347/406/259 351/407/260 349/405/258
f 365/408/261 347/406/259 346/404/257 348/403/256
f 350/409/262 668/400/253 342/401/254 349/405/258
f 352/410/263 350/409/262 349/405/258 351/407/260
f 354/411/264 352/410/263 351/407/260 353/412/265
f 347/406/259 355/413/266 353/412/265 351/407/260
f 357/414/267 354/411/264 353/412/265 356/415/268
f 355/413/266 359/416/269 356/415/268 353/412/265
f 357/414/267 356/415/268 358/417/270 586/418/271
f 360/419/272 358/417/270 356/415/268 359/416/269
f 362/420/273 360/419/272 359/416/269 361/421/274
f 359/416/269 355/413/266 364/422/275 361/421/274
f 375/423/276 362/420/273 361/421/274 363/424/277
f 366/425/278 363/424/277 361/421/274 364/422/275
f 364/422/275 355/413/266 347/406/259 365/408/261
f 364/422/275 365/408/261 368/426/279 366/425/278
f 367/427/280 372/428/281 363/424/277 366/425/278
f 369/429/282 367/427/280 366/425/278 368/426/279
f 371/216/136 369/429/282 368/426/279 370/430/283
f 365/408/261 348/403/256 370/430/283 368/426/279
f 172/212/132 371/216/136 370/430/283 170/211/131
f 348/403/256 345/210/130 170/211/131 370/430/283
f 187/232/148 369/429/282 371/216/136 175/215/135
f 367/427/280 369/429/282 187/232/148 189/233/149
f 192/235/151 372/428/281 367/427/280 189/233/149
f 195/239/155 373/431/284 372/428/281 192/235/151
f 373/431/284 375/423/276 363/424/277 372/428/281
f 373/432/284 195/245/155 765/244/158 374/433/285
f 373/432/284 374/433/285 376/434/286 375/435/276
f 375/435/276 376/434/286 377/436/287 362/437/273
f 380/438/288 378/439/289 376/434/286 374/433/285
f 378/439/289 381/440/290 377/436/287 376/434/286
f 383/441/291 381/440/290 378/439/289 379/442/292
f 380/438/288 393/443/293 379/442/292 378/439/289
f 381/440/290 382/444/294 759/445/295 377/436/287
f 383/441/291 384/446/296 382/444/294 381/440/290
f 385/447/297 386/448/297 384/446/296 383/441/291
f 385/447/297 383/441/291 379/442/292 388/449/298
f 387/450/299 683/451/300 386/448/297 385/447/297
f 387/450/299 385/447/297 388/449/298 389/452/301
f 390/453/302 391/454/303 389/452/301 388/449/298
f 393/443/293 390/453/302 388/449/298 379/442/292
f 392/455/304 400/456/305 391/454/303 390/453/302
f 394/457/306 392/455/304 390/453/302 393/443/293
f 395/458/307 394/457/306 393/443/293 380/438/288
f 397/459/308 396/460/309 394/457/306 395/458/307
f 396/460/309 398/461/310 392/455/304 394/457/306
f 214/462/173 216/463/174 398/461/310 396/460/309
f 764/464/166 214/462/173 396/460/309 397/459/308
f 398/461/310 399/465/311 400/456/305 392/455/304
f 216/463/174 218/466/176 399/465/311 398/461/310
f 218/466/176 403/467/178 401/468/312 399/465/311
f 399/465/311 401/468/312 404/469/313 400/456/305
f 401/468/312 402/470/314 405/471/315 404/469/313
f 403/467/178 427/472/316 402/470/314 401/468/312
f 404/469/313 405/471/315 407/473/317 406/474/318
f 400/456/305 404/469/313 406/474/318 391/454/303
f 406/474/318 407/473/317 409/475/319 408/476/320
f 391/454/303 406/474/318 408/476/320 389/452/301
f 412/477/321 410/478/322 408/476/320 409/475/319
f 410/478/322 387/450/299 389/452/301 408/476/320
f 412/477/321 413/479/323 411/480/324 410/478/322
f 410/478/322 411/480/324 683/451/300 387/450/299
f 412/477/321 414/481/325 415/482/326 413/479/323
f 414/481/325 412/477/321 409/475/319 417/483/327
f 414/481/325 416/484/328 692/485/329 415/482/326
f 416/484/328 414/481/325 417/483/327 418/486/330
f 419/487/331 420/488/332 418/486/330 417/483/327
f 407/473/317 419/487/331 417/483/327 409/475/319
f 421/489/333 422/490/334 420/488/332 419/487/331
f 405/471/315 421/489/333 419/487/331 407/473/317
f 423/491/335 424/492/336 422/490/334 421/489/333
f 402/470/314 423/491/335 421/489/333 405/471/315
f 425/493/337 428/494/338 424/492/336 423/491/335
f 427/472/316 425/493/337 423/491/335 402/470/314
f 428/495/338 425/496/337 426/497/339 430/498/340
f 427/499/316 437/500/341 426/497/339 425/496/337
f 428/494/338 429/501/342 743/502/343 424/492/336
f 429/503/342 428/495/338 430/498/340 431/504/344
f 432/505/345 433/506/346 431/504/344 430/498/340
f 435/507/347 432/505/345 430/498/340 426/497/339
f 434/284/1 438/508/1 433/506/346 432/505/345
f 435/507/347 229/281/1 434/284/1 432/505/345
f 436/278/180 224/277/1 229/281/1 435/507/347
f 437/500/341 436/278/180 435/507/347 426/497/339
f 219/272/177 221/274/179 436/278/180 437/500/341
f 403/273/178 219/272/177 437/500/341 427/499/316
f 438/508/1 434/284/1 230/283/1 439/509/1
f 440/510/1 438/508/1 439/509/1 442/511/1
f 438/508/1 440/510/1 443/512/348 433/506/346
f 440/510/1 441/513/1 444/514/349 443/512/348
f 441/513/1 440/510/1 442/511/1 480/515/1
f 445/516/350 443/512/348 444/514/349 447/517/351
f 433/506/346 443/512/348 445/516/350 431/504/344
f 446/518/352 429/503/342 431/504/344 445/516/350
f 446/518/352 445/516/350 447/517/351 448/519/353
f 451/520/354 448/519/353 447/517/351 449/521/355
f 444/514/349 450/522/356 449/521/355 447/517/351
f 450/522/356 455/523/357 452/524/358 449/521/355
f 453/525/359 451/520/354 449/521/355 452/524/358
f 755/526/360 453/525/359 452/524/358 454/527/361
f 455/523/357 456/528/362 454/527/361 452/524/358
f 457/529/363 460/530/364 456/528/362 455/523/357
f 458/531/1 457/529/363 455/523/357 450/522/356
f 457/529/363 458/531/1 483/532/1 459/533/1
f 460/530/364 457/529/363 459/533/1 461/534/365
f 460/530/364 461/534/365 464/535/366 462/536/367
f 456/528/362 460/530/364 462/536/367 454/527/361
f 755/526/360 454/527/361 462/536/367 463/537/368
f 465/538/369 463/537/368 462/536/367 464/535/366
f 461/534/365 469/539/370 466/540/371 464/535/366
f 467/541/372 465/538/369 464/535/366 466/540/371
f 293/351/205 467/541/372 466/540/371 468/350/204
f 469/539/370 470/542/373 468/350/204 466/540/371
f 471/543/1 473/544/1 470/542/373 469/539/370
f 459/533/1 471/543/1 469/539/370 461/534/365
f 471/543/1 459/533/1 483/532/1 472/545/1
f 473/544/1 471/543/1 472/545/1 474/546/1
f 285/337/194 470/542/373 473/544/1 283/336/1
f 474/546/1 475/335/1 283/336/1 473/544/1
f 475/335/1 474/546/1 476/547/1 479/298/1
f 472/545/1 478/548/1 476/547/1 474/546/1
f 479/298/1 476/547/1 477/294/1 239/293/1
f 478/548/1 481/549/1 477/294/1 476/547/1
f 279/331/1 475/335/1 479/298/1 242/297/1
f 478/548/1 472/545/1 483/532/1 480/515/1
f 481/549/1 478/548/1 480/515/1 442/511/1
f 482/290/1 481/549/1 442/511/1 439/509/1
f 481/549/1 482/290/1 236/291/1 477/294/1
f 232/285/1 482/290/1 439/509/1 230/283/1
f 458/531/1 441/513/1 480/515/1 483/532/1
f 287/339/196 468/350/204 470/542/373 285/337/194
f 465/550/369 467/551/372 484/552/374 485/553/375
f 467/551/372 293/353/205 295/352/206 484/552/374
f 485/553/375 484/552/374 486/554/376 487/555/377
f 484/552/374 295/352/206 297/355/208 486/554/376
f 487/555/377 486/554/376 488/556/378 489/557/379
f 486/554/376 297/355/208 490/357/210 488/556/378
f 489/557/379 488/556/378 491/558/380 492/559/381
f 488/556/378 490/357/210 493/560/382 491/558/380
f 494/561/383 496/562/384 492/559/381 491/558/380
f 497/563/385 494/561/383 491/558/380 493/560/382
f 497/563/385 498/564/386 495/565/387 494/561/383
f 494/561/383 495/565/387 719/566/388 496/562/384
f 498/564/386 497/563/385 499/567/389 500/568/390
f 493/560/382 502/363/216 499/567/389 497/563/385
f 503/569/391 500/568/390 499/567/389 501/366/219
f 302/362/215 501/366/219 499/567/389 502/363/216
f 298/358/211 502/363/216 493/560/382 490/357/210
f 503/569/391 501/366/219 305/365/218 309/369/222
f 503/569/391 504/570/392 505/571/393 500/568/390
f 309/369/222 312/371/224 504/570/392 503/569/391
f 509/572/394 505/571/393 504/570/392 506/573/395
f 506/573/395 504/570/392 312/371/224 507/373/226
f 506/573/395 507/373/226 638/574/396 508/575/397
f 506/573/395 508/575/397 511/576/398 509/572/394
f 510/577/399 721/578/400 505/571/393 509/572/394
f 510/577/399 509/572/394 511/576/398 512/579/401
f 516/580/402 512/579/401 511/576/398 513/581/403
f 514/582/404 513/581/403 511/576/398 508/575/397
f 515/583/405 513/581/403 514/582/404 634/584/406
f 518/585/407 516/580/402 513/581/403 515/583/405
f 722/586/408 512/579/401 516/580/402 517/587/409
f 518/585/407 520/588/410 517/587/409 516/580/402
f 521/589/411 520/588/410 518/585/407 519/590/412
f 519/590/412 518/585/407 515/583/405 635/591/413
f 523/592/414 522/593/415 520/588/410 521/589/411
f 520/588/410 522/593/415 525/594/416 517/587/409
f 763/595/417 524/596/418 522/593/415 523/592/414
f 522/593/415 524/596/418 527/597/419 525/594/416
f 526/598/420 722/586/408 517/587/409 525/594/416
f 528/599/421 526/598/420 525/594/416 527/597/419
f 530/600/422 528/599/421 527/597/419 529/601/423
f 524/596/418 532/602/424 529/601/423 527/597/419
f 724/603/425 530/600/422 529/601/423 531/604/426
f 532/602/424 534/605/427 531/604/426 529/601/423
f 533/606/428 535/607/429 534/605/427 532/602/424
f 533/606/428 532/602/424 524/596/418 763/595/417
f 537/608/430 536/609/431 534/605/427 535/607/429
f 534/605/427 536/609/431 539/610/432 531/604/426
f 762/611/433 538/612/434 536/609/431 537/608/430
f 536/609/431 538/612/434 541/613/435 539/610/432
f 540/614/436 724/603/425 531/604/426 539/610/432
f 542/615/437 540/614/436 539/610/432 541/613/435
f 544/616/438 542/615/437 541/613/435 543/617/439
f 538/612/434 546/618/440 543/617/439 541/613/435
f 757/619/441 544/616/438 543/617/439 545/620/442
f 546/618/440 548/621/443 545/620/442 543/617/439
f 549/622/444 548/621/443 546/618/440 547/623/445
f 762/611/433 547/623/445 546/618/440 538/612/434
f 551/624/446 550/625/447 548/621/443 549/622/444
f 548/621/443 550/625/447 553/626/448 545/620/442
f 761/627/449 552/628/450 550/625/447 551/624/446
f 550/625/447 552/628/450 555/629/451 553/626/448
f 554/630/452 757/619/441 545/620/442 553/626/448
f 556/631/453 554/630/452 553/626/448 555/629/451
f 558/632/454 556/631/453 555/629/451 557/633/455
f 552/628/450 560/634/456 557/633/455 555/629/451
f 758/635/457 558/632/454 557/633/455 559/636/458
f 560/634/456 562/637/459 559/636/458 557/633/455
f 561/638/460 563/639/461 562/637/459 560/634/456
f 561/638/460 560/634/456 552/628/450 761/627/449
f 563/639/461 565/640/462 564/641/463 562/637/459
f 562/637/459 564/641/463 567/642/464 559/636/458
f 760/643/465 566/644/466 564/641/463 565/640/462
f 564/641/463 566/644/466 569/645/467 567/642/464
f 568/646/468 758/635/457 559/636/458 567/642/464
f 570/647/469 568/646/468 567/642/464 569/645/467
f 572/648/470 570/647/469 569/645/467 571/649/471
f 566/644/466 574/650/472 571/649/471 569/645/467
f 674/651/473 572/648/470 571/649/471 573/652/474
f 574/650/472 576/653/475 573/652/474 571/649/471
f 577/654/476 576/653/475 574/650/472 575/655/477
f 575/655/477 574/650/472 566/644/466 760/643/465
f 578/656/478 576/653/475 577/654/476 580/657/479
f 576/653/475 578/656/478 581/658/480 573/652/474
f 579/659/481 583/660/482 581/658/480 578/656/478
f 597/661/483 579/659/481 578/656/478 580/657/479
f 573/652/474 581/658/480 582/662/484 674/651/473
f 583/660/482 585/663/485 582/662/484 581/658/480
f 579/664/481 595/665/486 584/666/487 583/667/482
f 583/667/482 584/666/487 587/668/488 585/669/485
f 586/670/271 671/671/489 582/662/484 585/663/485
f 586/418/271 585/669/485 587/668/488 357/414/267
f 354/411/264 357/414/267 587/668/488 588/672/490
f 590/673/491 588/672/490 587/668/488 584/666/487
f 589/674/492 588/672/490 590/673/491 591/675/493
f 588/672/490 589/674/492 352/410/263 354/411/264
f 592/676/494 593/677/495 591/675/493 590/673/491
f 592/676/494 590/673/491 584/666/487 595/665/486
f 594/678/496 598/679/497 593/677/495 592/676/494
f 594/678/496 592/676/494 595/665/486 596/680/498
f 597/681/483 596/680/498 595/665/486 579/664/481
f 599/682/499 600/683/500 593/677/495 598/679/497
f 601/684/501 602/685/502 600/683/500 599/682/499
f 603/686/503 604/687/504 602/685/502 601/684/501
f 605/688/505 606/689/506 604/687/504 603/686/503
f 605/688/505 607/690/507 608/691/508 606/689/506
f 607/690/507 609/692/509 610/693/510 608/691/508
f 611/694/511 612/695/512 610/693/510 609/692/509
f 613/696/513 614/697/514 612/695/512 611/694/511
f 615/698/515 616/699/516 614/697/514 613/696/513
f 615/698/515 617/700/517 618/701/518 616/699/516
f 619/702/519 620/703/520 618/701/518 617/700/517
f 621/704/521 622/705/522 620/703/520 619/702/519
f 623/706/523 624/707/524 622/705/522 621/704/521
f 623/706/523 625/708/525 626/709/526 624/707/524
f 625/708/525 627/710/527 628/711/528 626/709/526
f 627/710/527 629/712/529 630/713/530 628/711/528
f 632/714/531 630/713/530 629/712/529 631/715/532
f 634/584/406 632/714/531 631/715/532 633/716/533
f 634/584/406 633/716/533 635/591/413 515/583/405
f 634/584/406 514/582/404 636/717/534 632/714/531
f 632/714/531 636/717/534 637/718/535 630/713/530
f 637/718/535 636/717/534 638/574/396 639/719/536
f 514/582/404 508/575/397 638/574/396 636/717/534
f 313/374/227 639/719/536 638/574/396 507/373/226
f 639/719/536 640/720/537 642/721/538 637/718/535
f 315/375/228 640/720/537 639/719/536 313/374/227
f 640/720/537 315/375/228 317/376/229 641/722/539
f 640/720/537 641/722/539 643/723/540 642/721/538
f 626/709/526 628/711/528 642/721/538 643/723/540
f 628/711/528 630/713/530 637/718/535 642/721/538
f 641/722/539 646/724/541 644/725/542 643/723/540
f 624/707/524 626/709/526 643/723/540 644/725/542
f 622/705/522 624/707/524 644/725/542 645/726/543
f 646/724/541 647/727/544 645/726/543 644/725/542
f 647/727/544 646/724/541 319/378/231 321/380/233
f 317/376/229 319/378/231 646/724/541 641/722/539
f 647/727/544 321/380/233 323/382/235 648/728/545
f 647/727/544 648/728/545 650/729/546 645/726/543
f 648/728/545 649/730/547 651/731/548 650/729/546
f 326/384/237 649/730/547 648/728/545 323/382/235
f 618/701/518 620/703/520 650/729/546 651/731/548
f 620/703/520 622/705/522 645/726/543 650/729/546
f 649/730/547 654/732/549 652/733/550 651/731/548
f 616/699/516 618/701/518 651/731/548 652/733/550
f 614/697/514 616/699/516 652/733/550 653/734/551
f 654/732/549 655/735/552 653/734/551 652/733/550
f 655/735/552 654/732/549 328/386/239 330/388/241
f 649/730/547 326/384/237 328/386/239 654/732/549
f 330/388/241 332/390/243 656/736/553 655/735/552
f 655/735/552 656/736/553 658/737/554 653/734/551
f 656/736/553 657/738/555 659/739/556 658/737/554
f 657/738/555 656/736/553 332/390/243 335/392/245
f 610/693/510 612/695/512 658/737/554 659/739/556
f 612/695/512 614/697/514 653/734/551 658/737/554
f 657/738/555 661/740/557 660/741/558 659/739/556
f 608/691/508 610/693/510 659/739/556 660/741/558
f 661/740/557 664/742/559 662/743/560 660/741/558
f 606/689/506 608/691/508 660/741/558 662/743/560
f 604/687/504 606/689/506 662/743/560 663/744/561
f 664/742/559 665/745/562 663/744/561 662/743/560
f 665/745/562 664/742/559 339/396/249 341/398/251
f 337/394/247 339/396/249 664/742/559 661/740/557
f 341/398/251 668/400/253 666/746/563 665/745/562
f 665/745/562 666/746/563 669/747/564 663/744/561
f 666/746/563 667/748/565 670/749/566 669/747/564
f 667/748/565 666/746/563 668/400/253 350/409/262
f 600/683/500 602/685/502 669/747/564 670/749/566
f 602/685/502 604/687/504 663/744/561 669/747/564
f 667/748/565 589/674/492 591/675/493 670/749/566
f 593/677/495 600/683/500 670/749/566 591/675/493
f 350/409/262 352/410/263 589/674/492 667/748/565
f 335/392/245 337/394/247 661/740/557 657/738/555
f 671/671/489 586/670/271 358/750/270 672/751/567
f 673/752/568 674/651/473 582/662/484 671/671/489
f 671/671/489 672/751/567 676/753/569 673/752/568
f 675/754/570 572/648/470 674/651/473 673/752/568
f 675/754/570 673/752/568 676/753/569 677/755/571
f 382/444/294 676/753/569 672/751/567 759/445/295
f 382/444/294 384/446/296 677/755/571 676/753/569
f 679/756/572 675/754/570 677/755/571 678/757/573
f 384/446/296 386/448/297 678/757/573 677/755/571
f 681/758/574 679/756/572 678/757/573 680/759/575
f 386/448/297 683/451/300 680/759/575 678/757/573
f 684/760/576 681/758/574 680/759/575 682/761/577
f 683/451/300 411/480/324 682/761/577 680/759/575
f 686/762/578 684/760/576 682/761/577 685/763/579
f 411/480/324 413/479/323 685/763/579 682/761/577
f 688/764/580 686/762/578 685/763/579 687/765/581
f 413/479/323 415/482/326 687/765/581 685/763/579
f 690/766/582 688/764/580 687/765/581 689/767/583
f 415/482/326 692/485/329 689/767/583 687/765/581
f 756/768/584 690/766/582 689/767/583 691/769/585
f 692/485/329 693/770/586 691/769/585 689/767/583
f 694/771/587 693/770/586 692/485/329 416/484/328
f 696/772/588 695/773/589 693/770/586 694/771/587
f 693/770/586 695/773/589 698/774/590 691/769/585
f 737/775/591 697/776/592 695/773/589 696/772/588
f 695/773/589 697/776/592 700/777/593 698/774/590
f 699/778/594 756/768/584 691/769/585 698/774/590
f 701/779/595 699/778/594 698/774/590 700/777/593
f 703/780/596 701/779/595 700/777/593 702/781/597
f 697/776/592 705/782/598 702/781/597 700/777/593
f 723/783/599 703/780/596 702/781/597 704/784/600
f 705/782/598 707/785/601 704/784/600 702/781/597
f 708/786/602 707/785/601 705/782/598 706/787/603
f 706/787/603 705/782/598 697/776/592 737/775/591
f 710/788/604 709/789/605 707/785/601 708/786/602
f 707/785/601 709/789/605 712/790/606 704/784/600
f 725/791/607 711/792/608 709/789/605 710/788/604
f 709/789/605 711/792/608 714/793/609 712/790/606
f 713/794/610 723/783/599 704/784/600 712/790/606
f 715/795/611 713/794/610 712/790/606 714/793/609
f 717/796/612 715/795/611 714/793/609 716/797/613
f 711/792/608 719/566/388 716/797/613 714/793/609
f 720/798/614 717/796/612 716/797/613 718/799/615
f 719/566/388 495/565/387 718/799/615 716/797/613
f 496/562/384 719/566/388 711/792/608 725/791/607
f 510/577/399 720/798/614 718/799/615 721/578/400
f 495/565/387 498/564/386 721/578/400 718/799/615
f 498/564/386 500/568/390 505/571/393 721/578/400
f 720/798/614 722/586/408 526/598/420 717/796/612
f 722/586/408 720/798/614 510/577/399 512/579/401
f 528/599/421 715/795/611 717/796/612 526/598/420
f 715/795/611 528/599/421 530/600/422 713/794/610
f 530/600/422 724/603/425 723/783/599 713/794/610
f 703/780/596 723/783/599 724/603/425 540/614/436
f 725/791/607 710/788/604 728/800/616 726/801/617
f 496/562/384 725/791/607 726/801/617 492/559/381
f 727/802/618 489/557/379 492/559/381 726/801/617
f 729/803/619 727/802/618 726/801/617 728/800/616
f 731/804/620 729/803/619 728/800/616 730/805/621
f 710/788/604 708/786/602 730/805/621 728/800/616
f 733/806/622 731/804/620 730/805/621 732/807/623
f 708/786/602 706/787/603 732/807/623 730/805/621
f 735/808/624 733/806/622 732/807/623 734/809/625
f 706/787/603 737/775/591 734/809/625 732/807/623
f 738/810/626 735/808/624 734/809/625 736/811/627
f 737/775/591 696/772/588 736/811/627 734/809/625
f 740/812/628 738/810/626 736/811/627 739/813/629
f 696/772/588 694/771/587 739/813/629 736/811/627
f 420/488/332 740/812/628 739/813/629 418/486/330
f 694/771/587 416/484/328 418/486/330 739/813/629
f 741/814/630 742/815/631 738/810/626 740/812/628
f 422/490/334 741/814/630 740/812/628 420/488/332
f 424/492/336 743/502/343 741/814/630 422/490/334
f 743/502/343 744/816/632 742/815/631 741/814/630
f 429/501/342 446/817/352 744/816/632 743/502/343
f 744/816/632 745/818/633 746/819/634 742/815/631
f 446/817/352 448/820/353 745/818/633 744/816/632
f 448/820/353 451/821/354 747/822/635 745/818/633
f 745/818/633 747/822/635 749/823/636 746/819/634
f 747/822/635 748/824/637 750/825/638 749/823/636
f 451/821/354 453/826/359 748/824/637 747/822/635
f 749/823/636 750/825/638 731/804/620 733/806/622
f 746/819/634 749/823/636 733/806/622 735/808/624
f 750/825/638 751/827/639 729/803/619 731/804/620
f 748/824/637 753/828/640 751/827/639 750/825/638
f 753/828/640 754/829/641 752/830/642 751/827/639
f 751/827/639 752/830/642 727/802/618 729/803/619
f 755/831/360 463/832/368 754/829/641 753/828/640
f 453/826/359 755/831/360 753/828/640 748/824/637
f 463/832/368 465/550/369 485/553/375 754/829/641
f 754/829/641 485/553/375 487/555/377 752/830/642
f 752/830/642 487/555/377 489/557/379 727/802/618
f 742/815/631 746/819/634 735/808/624 738/810/626
f 540/614/436 542/615/437 701/779/595 703/780/596
f 701/779/595 542/615/437 544/616/438 699/778/594
f 757/619/441 756/768/584 699/778/594 544/616/438
f 756/768/584 757/619/441 554/630/452 690/766/582
f 690/766/582 554/630/452 556/631/453 688/764/580
f 558/632/454 686/762/578 688/764/580 556/631/453
f 686/762/578 558/632/454 758/635/457 684/760/576
f 568/646/468 681/758/574 684/760/576 758/635/457
f 681/758/574 568/646/468 570/647/469 679/756/572
f 572/648/470 675/754/570 679/756/572 570/647/469
f 360/833/272 759/445/295 672/751/567 358/750/270
f 362/437/273 377/436/287 759/445/295 360/833/272
f 441/513/1 458/531/1 450/522/356 444/514/349
f 197/241/156 764/464/166 397/459/308 194/242/157
f 194/242/157 397/459/308 395/458/307 765/244/158
f 380/438/288 374/433/285 765/244/158 395/458/307
f 122/158/78 124/160/80 300/360/213 766/349/203
f 767/159/79 122/158/78 766/349/203 291/348/200
f 768/323/191 767/834/79 291/343/200 288/340/197
f 271/153/74 118/152/73 767/834/79 768/323/191
f 272/324/192 768/323/191 288/340/197 281/334/194
f 262/313/1 264/315/1 269/320/1 276/327/1
f 252/307/1 262/313/1 276/327/1 250/304/1
f 6/2/1 2/1/1 59/73/1 234/289/1
f 207/260/8 199/252/162 770/254/164 769/48/14
f 30/38/8 207/260/8 769/48/14 32/39/11
f 771/52/15 37/46/1 769/48/14 770/254/164
f 183/226/144 771/52/15 770/254/164 200/251/161
f 185/227/145 183/226/144 200/251/161 191/250/152
f 774/66/1 52/67/1 3/5/1 776/8/1
f 48/61/1 774/66/1 775/835/1 782/49/1
f 775/835/1 774/66/1 776/8/1 777/836/1
f 4/7/1 779/837/1 777/836/1 776/8/1
f 781/45/13 775/835/1 777/836/1 778/36/1
f 779/837/1 27/33/7 778/36/1 777/836/1
f 779/837/1 780/17/1 25/31/1 27/33/7
f 780/17/1 779/837/1 4/7/1 7/9/1
f 780/17/1 12/16/1 18/24/2 25/31/1
f 35/42/12 781/45/13 778/36/1 28/35/9
f 34/43/1 782/49/1 775/835/1 781/45/13
