# PadForge: shell re-filed to the part it belongs to
o MuteButton
v -2.105935 -18.504251 -7.941132
v -1.172238 -18.502769 -7.940960
v -1.172548 -18.662909 -7.572094
v -2.106490 -18.664320 -7.572407
v -0.001633 -18.500914 -7.940742
v -0.001638 -18.661123 -7.571709
v -0.001466 -18.766352 -7.329319
v -1.172300 -18.768055 -7.329880
v -2.106179 -18.769419 -7.330326
v 2.783257 -18.241169 -8.528404
v 3.032200 -18.272175 -8.456020
v 3.089039 -18.360676 -8.251938
v 2.804070 -18.342306 -8.295334
v 3.194610 -18.311804 -8.364094
v 3.281757 -18.383427 -8.198780
v 3.327221 -18.497618 -7.935562
v 3.116811 -18.497082 -7.937618
v 2.812600 -18.496738 -7.939575
v -2.790514 -18.760258 -7.354057
v -3.037887 -18.730404 -7.423763
v -3.093376 -18.642878 -7.625599
v -2.809724 -18.659657 -7.585857
v -3.198472 -18.692144 -7.512512
v -3.284622 -18.621807 -7.674870
v -3.329213 -18.508589 -7.935837
v -3.119349 -18.507195 -7.938248
v -2.815684 -18.505713 -7.940495
v -2.102895 -18.237745 -8.555019
v -1.170538 -18.236397 -8.554565
v -1.171315 -18.342094 -8.311089
v -2.104280 -18.343513 -8.311398
v -0.001612 -18.234682 -8.554016
v -0.001625 -18.340313 -8.310707
v 3.282633 -18.611027 -7.674503
v 3.090836 -18.633020 -7.624577
v 3.196375 -18.681829 -7.511734
v 3.035365 -18.720922 -7.422306
v 2.787585 -18.751968 -7.351753
v 2.806634 -18.650999 -7.584248
v -3.283745 -18.394199 -8.199169
v -3.091569 -18.370525 -8.252953
v -3.196655 -18.322092 -8.364918
v -3.034501 -18.281633 -8.457500
v -2.786139 -18.249443 -8.530712
v -2.807142 -18.350952 -8.296944
v -2.801627 -18.791491 -7.156742
v -3.072413 -18.752510 -7.247513
v -3.068105 -18.780401 -7.256485
v -2.802126 -18.818596 -7.167301
v -3.317223 -18.682503 -7.409767
v -3.307797 -18.712042 -7.415791
v -3.478147 -18.576694 -7.654503
v -3.466014 -18.608541 -7.656086
v -3.537622 -18.452497 -7.941292
v -3.524895 -18.486866 -7.937958
v -3.478079 -18.327309 -8.229687
v -3.466779 -18.363958 -8.222000
v -3.317031 -18.219416 -8.477577
v -3.308717 -18.257765 -8.466797
v -3.072018 -18.147083 -8.642902
v -3.068274 -18.186365 -8.630585
v -2.801111 -18.106077 -8.735947
v -2.801353 -18.145916 -8.722931
v -1.170579 -18.089918 -8.766811
v -1.170786 -18.130047 -8.753437
v -2.103364 -18.131500 -8.753624
v -2.103069 -18.091427 -8.766907
v -0.001487 -18.088030 -8.766697
v -0.001584 -18.128225 -8.753208
v 3.069745 -18.137039 -8.642529
v 3.065812 -18.176493 -8.629929
v 2.798367 -18.137106 -8.721951
v 2.798312 -18.096989 -8.735455
v 3.315292 -18.208490 -8.477337
v 3.306788 -18.246908 -8.466488
v 3.476519 -18.315834 -8.229469
v 3.465039 -18.352535 -8.221775
v 3.536072 -18.440821 -7.941074
v 3.523177 -18.475262 -7.937710
v 3.476612 -18.565212 -7.654293
v 3.464317 -18.597124 -7.655853
v 3.315841 -18.671577 -7.409527
v 3.306190 -18.701200 -7.415455
v 3.071452 -18.742458 -7.247135
v 3.066702 -18.770514 -7.255783
v 2.801084 -18.782400 -7.156250
v 2.800910 -18.809708 -7.166264
v 1.169683 -18.798210 -7.126106
v 1.169748 -18.825272 -7.136707
v 2.103222 -18.823803 -7.136513
v 2.102807 -18.796696 -7.126015
v -0.000202 -18.800097 -7.126217
v -0.000577 -18.827120 -7.136955
v 1.166906 -16.137356 -7.025543
v 1.166906 -16.340298 -7.025543
v 2.096963 -16.340298 -7.025543
v 2.096963 -16.137356 -7.025543
v 0.000863 -16.137356 -7.025543
v 0.000863 -16.340298 -7.025543
v -2.814590 -16.137356 -7.057598
v -3.109597 -16.137356 -7.154961
v -3.109597 -16.340298 -7.154961
v -2.814590 -16.340298 -7.057598
v -3.065725 -16.380297 -7.245789
v -3.313509 -16.380297 -7.408546
v -3.313509 -18.464373 -7.408546
v -3.065725 -18.534679 -7.245789
v -3.385721 -16.137356 -7.336334
v -3.570321 -16.137356 -7.617371
v -3.570321 -16.340298 -7.617371
v -3.385721 -16.340298 -7.336334
v -3.476268 -16.380297 -7.656330
v -3.536390 -16.380297 -7.946625
v -3.536390 -18.245564 -7.946629
v -3.476268 -18.363749 -7.656330
v -3.638512 -16.137356 -7.946625
v -3.570322 -16.137356 -8.275883
v -3.570321 -16.340298 -8.275883
v -3.638513 -16.340298 -7.946629
v -3.476268 -16.380297 -8.236923
v -3.313509 -16.380297 -8.484707
v -3.313509 -18.012320 -8.484707
v -3.476268 -18.122574 -8.236923
v -3.385721 -16.137356 -8.556919
v -3.109599 -16.137356 -8.738293
v -3.109599 -16.340298 -8.738293
v -3.385720 -16.340298 -8.556923
v -3.065725 -16.380297 -8.647469
v -2.792505 -16.380297 -8.737652
v -2.792505 -17.883772 -8.737652
v -3.065725 -17.932413 -8.647469
v -1.166013 -16.137356 -8.867710
v -1.166013 -16.340298 -8.867710
v -2.095589 -16.340298 -8.867710
v -2.095589 -16.137356 -8.867710
v -0.000576 -16.137356 -8.867710
v -0.000576 -16.340298 -8.867710
v 3.109093 -16.137356 -8.738323
v 3.109093 -16.340298 -8.738323
v 2.813617 -16.340298 -8.835663
v 2.813617 -16.137356 -8.835659
v 3.065293 -17.922764 -8.647465
v 3.065293 -16.380297 -8.647469
v 3.313617 -16.380297 -8.484707
v 3.313617 -18.001879 -8.484707
v 3.570604 -16.137356 -8.275909
v 3.570604 -16.340298 -8.275909
v 3.385776 -16.340298 -8.556976
v 3.385776 -16.137356 -8.556976
v 3.476555 -18.111614 -8.236923
v 3.476555 -16.380297 -8.236923
v 3.536678 -16.380297 -7.946629
v 3.536678 -18.234426 -7.946629
v 3.570614 -16.137356 -7.617397
v 3.570614 -16.340298 -7.617397
v 3.638799 -16.340298 -7.946625
v 3.638799 -16.137356 -7.946625
v 3.476555 -18.352797 -7.656330
v 3.476555 -16.380297 -7.656330
v 3.313977 -16.380297 -7.408546
v 3.313977 -18.453930 -7.408546
v 3.110678 -16.137356 -7.154995
v 3.110678 -16.340298 -7.154995
v 3.386239 -16.340298 -7.336395
v 3.386239 -16.137356 -7.336395
v 3.066732 -18.525017 -7.245789
v 3.066732 -16.380297 -7.245789
v 2.794024 -16.380297 -7.155602
v 2.794024 -18.567162 -7.155602
v -1.170087 -18.801992 -7.126331
v -1.165179 -18.587292 -7.125542
v -2.095237 -18.588757 -7.125542
v -2.103211 -18.803509 -7.126423
v 0.000863 -18.585459 -7.125542
v -2.792476 -18.575941 -7.155602
v 1.167605 -18.086136 -8.766586
v 1.164862 -17.861479 -8.767712
v 2.094438 -17.860020 -8.767712
v 2.100096 -18.084627 -8.766491
v -0.000576 -17.863304 -8.767712
v 2.791533 -17.874990 -8.737652
v 2.102670 -18.497580 -7.940350
v 2.562551 -18.496861 -7.940254
v 2.563213 -18.657223 -7.570854
v 2.103212 -18.657921 -7.571014
v 2.560380 -18.762615 -7.328098
v 2.103248 -18.763279 -7.328316
v -2.563353 -18.770077 -7.330547
v -2.566489 -18.665028 -7.572559
v -2.565817 -18.504978 -7.941219
v 2.099669 -18.231621 -8.553009
v 2.555989 -18.230953 -8.552799
v 2.560549 -18.336409 -8.309849
v 2.101028 -18.337116 -8.309998
v -2.563801 -18.344202 -8.311558
v -2.559168 -18.238411 -8.555237
v 2.559380 -18.083879 -8.766449
v 2.560023 -18.124228 -8.752674
v 2.100198 -18.124950 -8.752781
v -2.562356 -18.092175 -8.766949
v -2.563188 -18.132225 -8.753704
v -2.562809 -18.804249 -7.126465
v -2.564447 -18.831165 -7.137497
v -2.104376 -18.830442 -7.137398
v 2.562404 -18.795954 -7.125969
v 2.563291 -18.823074 -7.136425
v -2.559585 -16.340298 -7.025543
v -2.095237 -16.340298 -7.025543
v -2.095237 -16.137356 -7.025543
v -2.559585 -16.137356 -7.025543
v 2.555051 -18.581436 -7.125542
v 2.555051 -16.380297 -7.125542
v 2.096963 -16.380297 -7.125542
v 2.096963 -18.582167 -7.125542
v 2.558546 -16.340298 -8.867710
v 2.094438 -16.340298 -8.867710
v 2.094438 -16.137356 -8.867710
v 2.558546 -16.137356 -8.867710
v -2.553440 -17.867321 -8.767712
v -2.553440 -16.380297 -8.767712
v -2.095589 -16.380297 -8.767712
v -2.095589 -17.866598 -8.767712
v -2.553324 -18.589468 -7.125542
v 2.552288 -17.859297 -8.767712
v 1.168972 -18.499063 -7.940529
v 1.169271 -18.659344 -7.571320
v 1.169368 -18.764635 -7.328773
v 1.167313 -18.232973 -8.553463
v 1.168064 -18.338533 -8.310310
v 1.167619 -18.126404 -8.752968
v -1.170901 -18.828966 -7.137199
v -1.165179 -16.340298 -7.025543
v -1.165179 -16.137356 -7.025543
v 1.164862 -16.340298 -8.867710
v 1.164862 -16.137356 -8.867710
v 1.166906 -18.583620 -7.125542
v -1.166013 -17.865145 -8.767712
v 1.166906 -16.380297 -7.125542
v 0.000863 -16.380297 -7.125542
v -2.792476 -16.380297 -7.155602
v -2.814622 -16.137356 -8.835655
v -2.814622 -16.340298 -8.835655
v -1.166013 -16.380297 -8.767712
v -0.000576 -16.380297 -8.767712
v 2.791533 -16.380297 -8.737652
v 2.816171 -16.137356 -7.057602
v 2.816171 -16.340298 -7.057602
v -2.095237 -16.380297 -7.125542
v -2.553324 -16.380297 -7.125542
v 2.561316 -16.137356 -7.025543
v 2.561316 -16.340298 -7.025543
v 2.094438 -16.380297 -8.767712
v 2.552288 -16.380297 -8.767712
v -2.559702 -16.137356 -8.867710
v -2.559702 -16.340298 -8.867710
v -1.165179 -16.380297 -7.125542
v 1.164862 -16.380297 -8.767712
v 2.096963 -16.117353 -7.125542
v 1.166906 -16.117353 -7.125542
v 1.166906 -16.117353 -7.045540
v 2.096963 -16.117353 -7.045540
v 0.000863 -16.117353 -7.125542
v 0.000863 -16.117353 -7.045540
v -1.165179 -16.117353 -7.125542
v -1.165179 -16.117353 -7.045540
v -2.095237 -16.117353 -7.125542
v -2.095237 -16.117353 -7.045540
v -2.553324 -16.117353 -7.125542
v -2.558335 -16.117353 -7.045506
v -2.792476 -16.117353 -7.155602
v -2.810188 -16.117353 -7.077106
v -3.065725 -16.117353 -7.245789
v -3.100899 -16.117353 -7.172970
v -3.313509 -16.117353 -7.408546
v -3.371579 -16.117353 -7.350475
v -3.476268 -16.117353 -7.656330
v -3.551844 -16.117353 -7.625027
v -3.536390 -16.117353 -7.946625
v -3.618512 -16.117353 -7.946625
v -3.476268 -16.117353 -8.236923
v -3.551844 -16.117353 -8.268227
v -3.313509 -16.117353 -8.484707
v -3.371579 -16.117353 -8.542778
v -3.065725 -16.117353 -8.647469
v -3.100899 -16.117353 -8.720284
v -2.792505 -16.117353 -8.737652
v -2.810219 -16.117353 -8.816151
v -2.553440 -16.117353 -8.767712
v -2.558452 -16.117353 -8.847748
v -2.095589 -16.117353 -8.767712
v -2.095589 -16.117353 -8.847710
v -1.166013 -16.117353 -8.767712
v -1.166013 -16.117353 -8.847710
v -0.000576 -16.117353 -8.767712
v -0.000576 -16.117353 -8.847710
v 1.164862 -16.117353 -8.767712
v 1.164862 -16.117353 -8.847710
v 2.094438 -16.117353 -8.767712
v 2.094438 -16.117353 -8.847710
v 2.552288 -16.117353 -8.767712
v 2.557297 -16.117353 -8.847748
v 2.791533 -16.117353 -8.737652
v 2.809221 -16.117353 -8.816151
v 3.065293 -16.117353 -8.647469
v 3.100408 -16.117353 -8.720310
v 3.313617 -16.117353 -8.484707
v 3.371645 -16.117353 -8.542824
v 3.476555 -16.117353 -8.236923
v 3.552128 -16.117353 -8.268250
v 3.536678 -16.117353 -7.946629
v 3.618799 -16.117353 -7.946625
v 3.476555 -16.117353 -7.656330
v 3.552135 -16.117353 -7.625046
v 3.313977 -16.117353 -7.408546
v 3.372086 -16.117353 -7.350525
v 3.066732 -16.117353 -7.245789
v 3.101964 -16.117353 -7.172997
v 2.794024 -16.117353 -7.155602
v 2.811763 -16.117353 -7.077110
v 2.555051 -16.117353 -7.125542
v 2.560065 -16.117353 -7.045506
v 1.166906 -16.360298 -7.105541
v 2.096963 -16.360298 -7.105545
v 2.096963 -16.360298 -7.045540
v 1.166906 -16.360298 -7.045540
v 2.556302 -16.360298 -7.105583
v 2.560065 -16.360298 -7.045506
v 2.798432 -16.360298 -7.136097
v 2.811763 -16.360298 -7.077110
v 3.075446 -16.360298 -7.227787
v 3.101964 -16.360298 -7.172997
v 3.328129 -16.360298 -7.394417
v 3.372086 -16.360298 -7.350525
v 3.495035 -16.360298 -7.648682
v 3.552135 -16.360298 -7.625046
v 3.556678 -16.360298 -7.946629
v 3.618799 -16.360298 -7.946625
v 3.495031 -16.360298 -8.244583
v 3.552128 -16.360298 -8.268250
v 3.327748 -16.360298 -8.498859
v 3.371645 -16.360298 -8.542824
v 3.073978 -16.360298 -8.665485
v 3.100408 -16.360298 -8.720310
v 2.795929 -16.360298 -8.757160
v 2.809221 -16.360298 -8.816151
v 2.553537 -16.360298 -8.787674
v 2.557297 -16.360298 -8.847748
v 2.094438 -16.360298 -8.787712
v 2.094438 -16.360298 -8.847710
v 1.164862 -16.360298 -8.787712
v 1.164862 -16.360298 -8.847710
v -0.000576 -16.360298 -8.787712
v -0.000576 -16.360298 -8.847710
v -1.166013 -16.360298 -8.787712
v -1.166013 -16.360298 -8.847710
v -2.095589 -16.360298 -8.787712
v -2.095589 -16.360298 -8.847710
v -2.554689 -16.360298 -8.787674
v -2.558452 -16.360298 -8.847748
v -2.796907 -16.360298 -8.757160
v -2.810219 -16.360298 -8.816151
v -3.074425 -16.360298 -8.665478
v -3.100899 -16.360298 -8.720284
v -3.327651 -16.360298 -8.498852
v -3.371578 -16.360298 -8.542778
v -3.494745 -16.360298 -8.244579
v -3.551843 -16.360298 -8.268227
v -3.556390 -16.360298 -7.946625
v -3.618513 -16.360298 -7.946629
v -3.494745 -16.360298 -7.648674
v -3.551844 -16.360298 -7.625027
v -3.327652 -16.360298 -7.394405
v -3.371579 -16.360298 -7.350475
v -3.074425 -16.360298 -7.227779
v -3.100899 -16.360298 -7.172970
v -2.796878 -16.360298 -7.136093
v -2.810188 -16.360298 -7.077106
v -2.554574 -16.360298 -7.105583
v -2.558335 -16.360298 -7.045506
v -2.095237 -16.360298 -7.105541
v -2.095237 -16.360298 -7.045540
v -1.165179 -16.360298 -7.105541
v -1.165179 -16.360298 -7.045540
v 0.000863 -16.360298 -7.105541
v 0.000863 -16.360298 -7.045540
v -2.800113 -18.833336 -7.185760
v -3.059235 -18.796001 -7.272747
v -3.035463 -18.778229 -7.313595
v -2.788069 -18.813871 -7.230549
v -3.290914 -18.729040 -7.427876
v -3.253262 -18.715282 -7.459431
v -3.443616 -18.627954 -7.661304
v -3.396152 -18.620689 -7.677860
v -3.500138 -18.509270 -7.934925
v -3.449250 -18.509195 -7.934902
v -3.443281 -18.389505 -8.210587
v -3.395783 -18.396572 -8.194126
v -3.290048 -18.286125 -8.448135
v -3.252107 -18.299637 -8.416862
v -3.057439 -18.216604 -8.607388
v -3.033157 -18.234198 -8.566765
v -2.797545 -18.177071 -8.697449
v -2.785084 -18.196465 -8.652725
v -2.562461 -18.163671 -8.727421
v -2.558979 -18.183578 -8.681557
v -2.103179 -18.162971 -8.727268
v -2.103163 -18.182878 -8.681404
v -1.170699 -18.161545 -8.726971
v -1.170683 -18.181456 -8.681107
v -0.001619 -18.159767 -8.726589
v -0.001604 -18.179678 -8.680729
v 1.167461 -18.157990 -8.726196
v 1.167476 -18.177898 -8.680328
v 2.099941 -18.156574 -8.725887
v 2.099957 -18.176483 -8.680019
v 2.559221 -18.155867 -8.725739
v 2.555800 -18.175785 -8.679874
v 2.794481 -18.168447 -8.695862
v 2.782162 -18.187889 -8.651127
v 3.054902 -18.206858 -8.606377
v 3.030790 -18.224558 -8.565697
v 3.288036 -18.275341 -8.447735
v 3.250170 -18.289001 -8.416412
v 3.441448 -18.378132 -8.210365
v 3.393956 -18.385342 -8.193935
v 3.498316 -18.497719 -7.934685
v 3.447428 -18.497786 -7.934719
v 3.441808 -18.616585 -7.661087
v 3.394340 -18.609459 -7.677681
v 3.289119 -18.718256 -7.427483
v 3.251416 -18.704628 -7.459015
v 3.057431 -18.786249 -7.271744
v 3.033525 -18.768572 -7.312557
v 2.798295 -18.824705 -7.184155
v 2.786128 -18.805288 -7.228935
v 2.563271 -18.837748 -7.155014
v 2.559883 -18.817842 -7.200878
v 2.103393 -18.838448 -7.155170
v 2.103378 -18.818537 -7.201031
v 1.169695 -18.839870 -7.155468
v 1.169680 -18.819960 -7.201332
v -0.000910 -18.841652 -7.155857
v -0.000925 -18.821739 -7.201721
v -1.171514 -18.843435 -7.156242
v -1.171529 -18.823524 -7.202106
v -2.105211 -18.844856 -7.156551
v -2.105227 -18.824944 -7.202415
v -2.565092 -18.845556 -7.156696
v -2.561761 -18.825640 -7.202560
vt 0.025876 0.011382
vt 0.036572 0.011196
vt 0.036638 0.015805
vt 0.025950 0.015990
vt 0.049985 0.011008
vt 0.050038 0.015618
vt 0.050075 0.018646
vt 0.036687 0.018831
vt 0.026006 0.019016
vt 0.081869 0.003422
vt 0.084725 0.004319
vt 0.085381 0.006865
vt 0.082114 0.006331
vt 0.086588 0.005464
vt 0.087591 0.007524
vt 0.088117 0.010805
vt 0.085708 0.010786
vt 0.082226 0.010773
vt 0.018173 0.018866
vt 0.015328 0.018051
vt 0.014647 0.015545
vt 0.017901 0.015976
vt 0.013472 0.016978
vt 0.012448 0.014974
vt 0.011874 0.011732
vt 0.014275 0.011650
vt 0.017750 0.011550
vt 0.025773 0.003710
vt 0.036476 0.003530
vt 0.036513 0.006572
vt 0.025812 0.006754
vt 0.049896 0.003347
vt 0.049931 0.006386
vt 0.087617 0.014062
vt 0.085425 0.014693
vt 0.086637 0.016094
vt 0.084801 0.017220
vt 0.081972 0.018114
vt 0.082176 0.015209
vt 0.012325 0.008437
vt 0.014512 0.007717
vt 0.013279 0.006348
vt 0.015113 0.005150
vt 0.017940 0.004174
vt 0.017760 0.007097
vt 0.017974 0.021566
vt 0.014747 0.020441
vt 0.014952 0.020168
vt 0.018048 0.021238
vt 0.011826 0.018336
vt 0.012158 0.018186
vt 0.009892 0.015173
vt 0.010286 0.015193
vt 0.009170 0.011482
vt 0.009554 0.011663
vt 0.009832 0.007773
vt 0.010158 0.008085
vt 0.011685 0.004575
vt 0.011924 0.004978
vt 0.014513 0.002404
vt 0.014647 0.002860
vt 0.017650 0.001158
vt 0.017698 0.001636
vt 0.036429 0.000420
vt 0.036433 0.000905
vt 0.025719 0.001087
vt 0.025714 0.000603
vt 0.049862 0.000232
vt 0.049866 0.000718
vt 0.085260 0.001548
vt 0.085135 0.002009
vt 0.082051 0.000864
vt 0.082091 0.000380
vt 0.088145 0.003646
vt 0.087913 0.004056
vt 0.090073 0.006799
vt 0.089752 0.007118
vt 0.090818 0.010490
vt 0.090437 0.010680
vt 0.090181 0.014196
vt 0.089786 0.014227
vt 0.088322 0.017404
vt 0.087983 0.017265
vt 0.085458 0.019582
vt 0.085239 0.019318
vt 0.082264 0.020790
vt 0.082172 0.020469
vt 0.063490 0.021285
vt 0.063487 0.020952
vt 0.074160 0.020885
vt 0.074158 0.021219
vt 0.050123 0.021419
vt 0.050114 0.021086
vt 0.482426 0.040340
vt 0.482295 0.042661
vt 0.471654 0.042074
vt 0.471802 0.039749
vt 0.495768 0.041073
vt 0.495639 0.043394
vt 0.343807 0.038776
vt 0.347164 0.038673
vt 0.347256 0.041003
vt 0.343908 0.041103
vt 0.347337 0.042345
vt 0.350805 0.042253
vt 0.351335 0.066158
vt 0.347956 0.067046
vt 0.350677 0.038591
vt 0.354213 0.038502
vt 0.354263 0.040830
vt 0.350747 0.040904
vt 0.354289 0.042181
vt 0.357781 0.042125
vt 0.358086 0.063520
vt 0.354710 0.064933
vt 0.357744 0.038450
vt 0.361277 0.038411
vt 0.361283 0.040741
vt 0.357770 0.040773
vt 0.361277 0.042091
vt 0.364774 0.042075
vt 0.364857 0.060783
vt 0.361467 0.062069
vt 0.364825 0.038413
vt 0.368345 0.038411
vt 0.368311 0.040740
vt 0.364805 0.040725
vt 0.368258 0.042084
vt 0.371619 0.042103
vt 0.371563 0.059320
vt 0.368258 0.059865
vt 0.390328 0.038538
vt 0.390324 0.040863
vt 0.379708 0.040834
vt 0.379734 0.038504
vt 0.403652 0.038532
vt 0.403656 0.040857
vt 0.439111 0.038485
vt 0.439121 0.040814
vt 0.435739 0.040802
vt 0.435716 0.038473
vt 0.438937 0.059817
vt 0.439155 0.042156
vt 0.442660 0.042191
vt 0.442310 0.060770
vt 0.446233 0.038578
vt 0.446193 0.040908
vt 0.442652 0.040842
vt 0.442660 0.038529
vt 0.445661 0.062101
vt 0.446172 0.042258
vt 0.449682 0.042352
vt 0.448998 0.063609
vt 0.453335 0.038794
vt 0.453242 0.041123
vt 0.449722 0.041000
vt 0.449786 0.038677
vt 0.452330 0.065088
vt 0.453185 0.042473
vt 0.456677 0.042615
vt 0.455662 0.066389
vt 0.460405 0.039113
vt 0.460261 0.041441
vt 0.456767 0.041267
vt 0.456884 0.038955
vt 0.459004 0.067360
vt 0.460147 0.042783
vt 0.463495 0.042957
vt 0.462260 0.068006
vt 0.326117 0.070725
vt 0.325994 0.068267
vt 0.336657 0.067983
vt 0.336816 0.070440
vt 0.312711 0.071071
vt 0.312633 0.068613
vt 0.351428 0.068657
vt 0.348091 0.069540
vt 0.344836 0.070072
vt 0.344669 0.067607
vt 0.358065 0.065892
vt 0.354746 0.067373
vt 0.364783 0.063156
vt 0.361410 0.064415
vt 0.371454 0.061867
vt 0.368168 0.062325
vt 0.417059 0.061712
vt 0.417019 0.059138
vt 0.427661 0.059087
vt 0.427734 0.061661
vt 0.403652 0.061762
vt 0.403658 0.059187
vt 0.442334 0.063137
vt 0.438978 0.062274
vt 0.435720 0.061790
vt 0.435651 0.059248
vt 0.448972 0.065972
vt 0.445669 0.064440
vt 0.455523 0.068879
vt 0.452246 0.067520
vt 0.462054 0.070466
vt 0.458826 0.069846
vt 0.074095 0.010800
vt 0.079362 0.010775
vt 0.079391 0.015389
vt 0.074127 0.015416
vt 0.079375 0.018421
vt 0.074146 0.018449
vt 0.020776 0.019109
vt 0.020687 0.016088
vt 0.020610 0.011483
vt 0.074022 0.003145
vt 0.079261 0.003125
vt 0.079322 0.006159
vt 0.074052 0.006181
vt 0.020545 0.006857
vt 0.020537 0.003812
vt 0.079305 0.000001
vt 0.079306 0.000489
vt 0.074017 0.000508
vt 0.074014 0.000020
vt 0.020424 0.000710
vt 0.020432 0.001194
vt 0.020807 0.021888
vt 0.020798 0.021555
vt 0.026069 0.021462
vt 0.026089 0.021795
vt 0.079440 0.021187
vt 0.079431 0.020853
vt 0.341112 0.041196
vt 0.335872 0.041360
vt 0.335786 0.039034
vt 0.341002 0.038873
vt 0.465003 0.068312
vt 0.466291 0.043110
vt 0.471563 0.043406
vt 0.470236 0.068603
vt 0.432921 0.040807
vt 0.427656 0.040816
vt 0.427637 0.038489
vt 0.432884 0.038484
vt 0.374333 0.059148
vt 0.374421 0.042126
vt 0.379687 0.042168
vt 0.379596 0.059175
vt 0.470036 0.071054
vt 0.464789 0.070763
vt 0.341909 0.067839
vt 0.342085 0.070296
vt 0.379499 0.061751
vt 0.374217 0.061724
vt 0.432897 0.059063
vt 0.432978 0.061637
vt 0.063398 0.010872
vt 0.063438 0.015485
vt 0.063464 0.018515
vt 0.063318 0.003215
vt 0.063350 0.006252
vt 0.063297 0.000095
vt 0.063301 0.000582
vt 0.036756 0.021606
vt 0.036741 0.021273
vt 0.325238 0.041662
vt 0.311886 0.042025
vt 0.311824 0.039701
vt 0.325172 0.039338
vt 0.417003 0.040833
vt 0.416997 0.038508
vt 0.494078 0.072405
vt 0.480699 0.071650
vt 0.480866 0.069196
vt 0.494201 0.069948
vt 0.390222 0.061780
vt 0.390279 0.059204
vt 0.482220 0.043994
vt 0.495565 0.044727
vt 0.343989 0.042442
vt 0.371711 0.038436
vt 0.371667 0.040763
vt 0.390322 0.042198
vt 0.403658 0.042193
vt 0.435774 0.042142
vt 0.463766 0.039295
vt 0.463609 0.041619
vt 0.335928 0.042693
vt 0.341195 0.042529
vt 0.466576 0.039460
vt 0.466408 0.041777
vt 0.427673 0.042150
vt 0.432958 0.042143
vt 0.374522 0.038469
vt 0.374468 0.040790
vt 0.311922 0.043361
vt 0.325276 0.042997
vt 0.417007 0.042168
vt 0.471872 0.038510
vt 0.482496 0.039101
vt 0.482444 0.040016
vt 0.471821 0.039425
vt 0.495837 0.039834
vt 0.495786 0.040750
vt 0.311791 0.038460
vt 0.325138 0.038097
vt 0.325163 0.039014
vt 0.311815 0.039377
vt 0.335750 0.037792
vt 0.335776 0.038710
vt 0.340949 0.037630
vt 0.340988 0.038550
vt 0.343778 0.037530
vt 0.343798 0.038452
vt 0.347143 0.037423
vt 0.347156 0.038350
vt 0.350658 0.037340
vt 0.350669 0.038271
vt 0.354198 0.037249
vt 0.354206 0.038178
vt 0.357738 0.037198
vt 0.357740 0.038128
vt 0.361281 0.037159
vt 0.361275 0.038088
vt 0.364829 0.037165
vt 0.364824 0.038092
vt 0.368347 0.037166
vt 0.368345 0.038087
vt 0.371717 0.037193
vt 0.371713 0.038112
vt 0.374546 0.037231
vt 0.374527 0.038145
vt 0.379739 0.037262
vt 0.379736 0.038179
vt 0.390329 0.037297
vt 0.390328 0.038214
vt 0.403650 0.037291
vt 0.403652 0.038208
vt 0.416993 0.037267
vt 0.416996 0.038184
vt 0.427633 0.037246
vt 0.427636 0.038164
vt 0.432868 0.037239
vt 0.432880 0.038160
vt 0.435726 0.037227
vt 0.435716 0.038149
vt 0.439133 0.037234
vt 0.439114 0.038161
vt 0.442687 0.037279
vt 0.442664 0.038209
vt 0.446266 0.037326
vt 0.446238 0.038255
vt 0.449832 0.037425
vt 0.449795 0.038355
vt 0.453393 0.037544
vt 0.453347 0.038472
vt 0.456944 0.037708
vt 0.456897 0.038634
vt 0.460464 0.037870
vt 0.460420 0.038789
vt 0.463830 0.038053
vt 0.463783 0.038971
vt 0.466662 0.038224
vt 0.466598 0.039136
vt 0.482238 0.043670
vt 0.471585 0.043083
vt 0.471633 0.042397
vt 0.482277 0.042984
vt 0.466320 0.042788
vt 0.466380 0.042100
vt 0.463522 0.042634
vt 0.463583 0.041942
vt 0.460174 0.042460
vt 0.460236 0.041764
vt 0.456698 0.042292
vt 0.456748 0.041587
vt 0.453197 0.042149
vt 0.453230 0.041446
vt 0.449689 0.042028
vt 0.449713 0.041322
vt 0.446175 0.041934
vt 0.446189 0.041231
vt 0.442657 0.041867
vt 0.442654 0.041163
vt 0.439146 0.041832
vt 0.439129 0.041139
vt 0.435766 0.041817
vt 0.435747 0.041127
vt 0.432948 0.041819
vt 0.432929 0.041131
vt 0.427668 0.041827
vt 0.427660 0.041140
vt 0.417006 0.041844
vt 0.417004 0.041157
vt 0.403657 0.041869
vt 0.403656 0.041181
vt 0.390323 0.041874
vt 0.390324 0.041187
vt 0.379692 0.041845
vt 0.379703 0.041158
vt 0.374434 0.041803
vt 0.374458 0.041113
vt 0.371630 0.041780
vt 0.371657 0.041087
vt 0.368270 0.041761
vt 0.368300 0.041064
vt 0.364780 0.041752
vt 0.364799 0.041047
vt 0.361278 0.041768
vt 0.361283 0.041064
vt 0.357777 0.041802
vt 0.357775 0.041096
vt 0.354281 0.041857
vt 0.354270 0.041154
vt 0.350790 0.041929
vt 0.350762 0.041225
vt 0.347316 0.042021
vt 0.347275 0.041328
vt 0.343969 0.042118
vt 0.343927 0.041428
vt 0.341173 0.042205
vt 0.341131 0.041519
vt 0.335914 0.042369
vt 0.335885 0.041684
vt 0.325267 0.042673
vt 0.325247 0.041986
vt 0.311914 0.043037
vt 0.311895 0.042349
vt 0.495583 0.044404
vt 0.495621 0.043718
vt 0.018101 0.020970
vt 0.015115 0.019942
vt 0.015379 0.019427
vt 0.018228 0.020408
vt 0.012435 0.018050
vt 0.012858 0.017650
vt 0.010632 0.015184
vt 0.011171 0.014965
vt 0.009918 0.011787
vt 0.010500 0.011774
vt 0.010494 0.008336
vt 0.011042 0.008529
vt 0.012188 0.005335
vt 0.012631 0.005715
vt 0.014807 0.003285
vt 0.015097 0.003786
vt 0.017764 0.002095
vt 0.017919 0.002650
vt 0.020453 0.001663
vt 0.020505 0.002235
vt 0.025730 0.001558
vt 0.025741 0.002131
vt 0.036441 0.001376
vt 0.036450 0.001949
vt 0.049871 0.001191
vt 0.049878 0.001764
vt 0.063302 0.001057
vt 0.063307 0.001630
vt 0.074016 0.000984
vt 0.074018 0.001558
vt 0.079294 0.000965
vt 0.079256 0.001538
vt 0.081994 0.001330
vt 0.081854 0.001889
vt 0.084984 0.002442
vt 0.084708 0.002950
vt 0.087656 0.004420
vt 0.087223 0.004811
vt 0.089421 0.007377
vt 0.088877 0.007582
vt 0.090075 0.010813
vt 0.089493 0.010814
vt 0.089439 0.014226
vt 0.088895 0.014019
vt 0.087701 0.017137
vt 0.087269 0.016747
vt 0.085066 0.019099
vt 0.084788 0.018591
vt 0.082104 0.020207
vt 0.081962 0.019648
vt 0.079422 0.020582
vt 0.079379 0.020009
vt 0.074160 0.020613
vt 0.074157 0.020040
vt 0.063484 0.020680
vt 0.063480 0.020107
vt 0.050107 0.020813
vt 0.050100 0.020240
vt 0.036729 0.021000
vt 0.036720 0.020427
vt 0.026054 0.021187
vt 0.026044 0.020614
vt 0.020792 0.021280
vt 0.020821 0.020707
vn 0.0015 -0.9173 -0.3982
vn -0.2328 -0.1797 0.9558
vn -0.4610 -0.1712 0.8708
vn -0.4515 -0.5690 0.6873
vn -0.2332 -0.5829 0.7784
vn -0.7361 -0.1759 0.6537
vn -0.6828 -0.5719 0.4547
vn -0.9342 -0.1754 0.3107
vn -0.8175 -0.5641 0.1160
vn -0.9820 -0.1744 -0.0720
vn -0.8105 -0.5456 -0.2131
vn -0.8848 -0.1718 -0.4333
vn -0.6957 -0.5223 -0.4932
vn -0.6697 -0.1638 -0.7243
vn -0.5140 -0.4954 -0.7002
vn -0.4121 -0.1550 -0.8978
vn -0.3129 -0.4770 -0.8213
vn -0.2086 -0.1514 -0.9662
vn -0.1576 -0.4730 -0.8669
vn 0.0004 -0.1622 -0.9868
vn 0.0009 -0.4885 -0.8726
vn 0.0009 -0.4871 -0.8733
vn 0.0004 -0.1613 -0.9869
vn 0.0004 -0.1634 -0.9866
vn 0.0009 -0.4903 -0.8716
vn 0.4099 -0.1609 -0.8978
vn 0.3111 -0.4819 -0.8192
vn 0.1568 -0.4803 -0.8630
vn 0.2076 -0.1577 -0.9654
vn 0.6671 -0.1696 -0.7254
vn 0.5125 -0.4979 -0.6996
vn 0.8827 -0.1778 -0.4350
vn 0.6944 -0.5241 -0.4931
vn 0.9808 -0.1804 -0.0744
vn 0.8091 -0.5473 -0.2140
vn 0.9340 -0.1807 0.3082
vn 0.8165 -0.5660 0.1139
vn 0.7371 -0.1793 0.6516
vn 0.6836 -0.5728 0.4524
vn 0.4627 -0.1703 0.8700
vn 0.4545 -0.5652 0.6885
vn 0.2342 -0.1732 0.9566
vn 0.2363 -0.5713 0.7860
vn 0.0002 -0.1870 0.9824
vn 0.0008 -0.5986 0.8011
vn 0.0008 -0.5955 0.8033
vn 0.0002 -0.1851 0.9827
vn 0.0002 -0.1895 0.9819
vn 0.0008 -0.6026 0.7980
vn -0.0000 0.3826 0.9239
vn -0.0000 -0.3826 0.9239
vn -0.0000 -0.3825 0.9239
vn -0.0000 0.3825 0.9239
vn -0.2041 0.3745 0.9045
vn -0.4039 0.3713 0.8361
vn -0.4038 -0.3714 0.8361
vn -0.2041 -0.3745 0.9045
vn -0.4000 -0.3939 0.8276
vn -0.6475 -0.4023 0.6473
vn -0.7055 0.0052 0.7087
vn -0.4342 0.0034 0.9008
vn -0.6578 0.3671 0.6577
vn -0.8594 0.3671 0.3560
vn -0.8594 -0.3671 0.3560
vn -0.6578 -0.3671 0.6577
vn -0.8470 -0.3995 0.3508
vn -0.9158 -0.4017 -0.0000
vn -1.0000 0.0024 -0.0006
vn -0.9231 0.0057 0.3845
vn -0.9304 0.3666 -0.0000
vn -0.8594 0.3671 -0.3560
vn -0.8594 -0.3671 -0.3560
vn -0.9304 -0.3666 -0.0000
vn -0.8470 -0.3995 -0.3508
vn -0.6475 -0.4023 -0.6472
vn -0.7061 -0.0047 -0.7081
vn -0.9230 -0.0025 -0.3847
vn -0.6578 0.3671 -0.6577
vn -0.4039 0.3713 -0.8361
vn -0.4039 -0.3714 -0.8361
vn -0.6578 -0.3671 -0.6577
vn -0.4000 -0.3940 -0.8275
vn -0.2027 -0.3912 -0.8977
vn -0.2206 -0.0007 -0.9754
vn -0.4357 -0.0029 -0.9001
vn -0.0000 0.3827 -0.9239
vn -0.0000 -0.3827 -0.9239
vn -0.0000 -0.3826 -0.9239
vn -0.0000 0.3826 -0.9239
vn 0.4032 0.3714 -0.8364
vn 0.4032 -0.3714 -0.8364
vn 0.2038 -0.3746 -0.9045
vn 0.2038 0.3745 -0.9045
vn 0.4347 -0.0055 -0.9006
vn 0.3993 -0.3939 -0.8279
vn 0.6470 -0.4023 -0.6477
vn 0.7050 -0.0082 -0.7091
vn 0.8593 0.3670 -0.3562
vn 0.8593 -0.3671 -0.3562
vn 0.6573 -0.3671 -0.6582
vn 0.6573 0.3671 -0.6582
vn 0.9223 -0.0068 -0.3863
vn 0.8469 -0.3995 -0.3510
vn 0.9158 -0.4017 -0.0000
vn 1.0000 -0.0021 -0.0025
vn 0.8595 0.3671 0.3558
vn 0.8595 -0.3671 0.3557
vn 0.9304 -0.3666 -0.0000
vn 0.9304 0.3666 -0.0000
vn 0.9239 0.0018 0.3827
vn 0.8471 -0.3994 0.3506
vn 0.6480 -0.4023 0.6468
vn 0.7070 0.0024 0.7072
vn 0.4045 0.3713 0.8357
vn 0.4045 -0.3714 0.8357
vn 0.6583 -0.3671 0.6572
vn 0.6583 0.3671 0.6572
vn 0.4355 0.0021 0.9002
vn 0.4006 -0.3940 0.8272
vn 0.2029 -0.3912 0.8976
vn 0.2200 0.0016 0.9755
vn 0.0002 -0.1920 0.9814
vn -0.0000 -0.0018 1.0000
vn -0.0000 -0.0020 1.0000
vn 0.0002 -0.1940 0.9810
vn -0.0000 -0.0016 1.0000
vn -0.2194 0.0016 0.9756
vn 0.0004 -0.1647 -0.9863
vn -0.0000 -0.0025 -1.0000
vn -0.0000 -0.0027 -1.0000
vn 0.0004 -0.1657 -0.9862
vn -0.0000 -0.0023 -1.0000
vn 0.2203 -0.0026 -0.9754
vn 0.0591 -0.1611 -0.9852
vn 0.0440 -0.4870 -0.8723
vn 0.0010 -0.4934 -0.8698
vn -0.0589 -0.1554 -0.9861
vn -0.0430 -0.4792 -0.8766
vn -0.0656 -0.1919 0.9792
vn -0.0653 -0.6029 0.7951
vn 0.0008 -0.6097 0.7926
vn 0.0664 -0.1821 0.9810
vn 0.0673 -0.5870 0.8068
vn -0.0578 -0.3774 0.9243
vn -0.0578 0.3773 0.9243
vn 0.0619 -0.0001 0.9981
vn 0.0577 -0.3881 0.9198
vn -0.0000 -0.0011 1.0000
vn 0.0578 -0.3774 -0.9243
vn -0.0000 0.3825 -0.9239
vn 0.0578 0.3773 -0.9243
vn -0.0622 -0.0010 -0.9981
vn -0.0576 -0.3881 -0.9198
vn -0.0000 -0.0018 -1.0000
vn -0.0617 -0.0009 0.9981
vn 0.0623 -0.0023 -0.9981
vn 0.0009 -0.4921 -0.8706
vn 0.0008 -0.6066 0.7950
vn -0.0000 -0.0013 1.0000
vn -0.0000 -0.0020 -1.0000
vn -0.0000 -0.3827 0.9239
vn -0.2026 -0.3912 0.8977
vn -0.2041 0.3745 -0.9045
vn -0.2041 -0.3745 -0.9045
vn 0.2024 -0.3912 -0.8978
vn 0.2044 0.3745 0.9044
vn 0.2044 -0.3745 0.9044
vn -0.0576 -0.3881 0.9198
vn 0.0579 0.3773 0.9243
vn 0.0579 -0.3774 0.9243
vn 0.0576 -0.3881 -0.9198
vn -0.0579 0.3773 -0.9243
vn -0.0579 -0.3773 -0.9243
vn -0.0000 1.0000 -0.0000
vn -0.0000 0.9239 0.3827
vn -0.0000 0.9238 0.3828
vn -0.0247 0.9184 0.3948
vn -0.0886 0.9154 0.3927
vn -0.1782 0.9122 0.3690
vn -0.2989 0.9063 0.2988
vn -0.3888 0.9071 0.1611
vn -0.4231 0.9061 -0.0000
vn -0.3888 0.9071 -0.1611
vn -0.2989 0.9063 -0.2988
vn -0.1782 0.9122 -0.3690
vn -0.0886 0.9154 -0.3927
vn -0.0247 0.9184 -0.3948
vn -0.0000 0.9238 -0.3828
vn -0.0000 0.9239 -0.3827
vn 0.0247 0.9184 -0.3948
vn 0.0885 0.9154 -0.3927
vn 0.1779 0.9122 -0.3691
vn 0.2987 0.9063 -0.2991
vn 0.3888 0.9071 -0.1612
vn 0.4232 0.9061 -0.0000
vn 0.3888 0.9071 0.1609
vn 0.2991 0.9063 0.2986
vn 0.1785 0.9122 0.3689
vn 0.0887 0.9154 0.3927
vn 0.0247 0.9184 0.3948
vn -0.0000 -0.9239 0.3827
vn -0.0000 -0.9238 0.3828
vn 0.0231 -0.9292 0.3689
vn 0.0247 -0.9184 0.3948
vn 0.0799 -0.9321 0.3533
vn 0.0887 -0.9154 0.3927
vn 0.1549 -0.9348 0.3196
vn 0.1785 -0.9122 0.3689
vn 0.2393 -0.9411 0.2388
vn 0.2990 -0.9063 0.2986
vn 0.3165 -0.9395 0.1310
vn 0.3888 -0.9072 0.1609
vn 0.3384 -0.9410 -0.0000
vn 0.4231 -0.9061 -0.0000
vn 0.3163 -0.9396 -0.1311
vn 0.3888 -0.9071 -0.1612
vn 0.2389 -0.9412 -0.2391
vn 0.2986 -0.9063 -0.2991
vn 0.1544 -0.9348 -0.3199
vn 0.1779 -0.9122 -0.3691
vn 0.0797 -0.9321 -0.3534
vn 0.0884 -0.9154 -0.3926
vn 0.0231 -0.9292 -0.3688
vn 0.0247 -0.9185 -0.3948
vn -0.0000 -0.9238 -0.3828
vn -0.0000 -0.9239 -0.3827
vn -0.0231 -0.9292 -0.3688
vn -0.0247 -0.9184 -0.3948
vn -0.0798 -0.9321 -0.3533
vn -0.0886 -0.9154 -0.3927
vn -0.1546 -0.9348 -0.3197
vn -0.1782 -0.9122 -0.3690
vn -0.2391 -0.9411 -0.2389
vn -0.2988 -0.9063 -0.2988
vn -0.3164 -0.9395 -0.1310
vn -0.3888 -0.9071 -0.1610
vn -0.3384 -0.9410 -0.0000
vn -0.4231 -0.9061 -0.0000
vn -0.3164 -0.9395 0.1311
vn -0.3888 -0.9071 0.1610
vn -0.2391 -0.9411 0.2389
vn -0.2988 -0.9063 0.2988
vn -0.1546 -0.9348 0.3197
vn -0.1782 -0.9122 0.3690
vn -0.0798 -0.9321 0.3534
vn -0.0886 -0.9154 0.3927
vn -0.0231 -0.9292 0.3688
vn -0.0247 -0.9184 0.3948
vn -0.1284 -0.9817 0.1404
vn -0.2408 -0.9658 0.0962
vn -0.3495 -0.9367 -0.0205
vn -0.3911 -0.8980 -0.2014
vn -0.3671 -0.8609 -0.3522
vn -0.3003 -0.8305 -0.4691
vn -0.2191 -0.8050 -0.5514
vn -0.1292 -0.7934 -0.5948
vn -0.0636 -0.7909 -0.6087
vn -0.0160 -0.7946 -0.6069
vn 0.0014 -0.8012 -0.5984
vn 0.0014 -0.8017 -0.5978
vn 0.0014 -0.8023 -0.5970
vn 0.0014 -0.8029 -0.5961
vn 0.0014 -0.8033 -0.5955
vn 0.0183 -0.7974 -0.6032
vn 0.0647 -0.7934 -0.6053
vn 0.1299 -0.7948 -0.5929
vn 0.2202 -0.8052 -0.5506
vn 0.3015 -0.8303 -0.4687
vn 0.3679 -0.8605 -0.3522
vn 0.3917 -0.8975 -0.2024
vn 0.3512 -0.9360 -0.0219
vn 0.2445 -0.9647 0.0984
vn 0.1324 -0.9801 0.1482
vn 0.0382 -0.9882 0.1483
vn 0.0015 -0.9919 0.1274
vn 0.0015 -0.9921 0.1253
vn 0.0015 -0.9925 0.1226
vn 0.0015 -0.9928 0.1199
vn 0.0015 -0.9930 0.1178
vn -0.0351 -0.9899 0.1373
f 1/1/1 2/2/1 3/3/1 4/4/1
f 2/2/1 5/5/1 6/6/1 3/3/1
f 7/7/1 8/8/1 3/3/1 6/6/1
f 8/8/1 9/9/1 4/4/1 3/3/1
f 10/10/1 11/11/1 12/12/1 13/13/1
f 11/11/1 14/14/1 15/15/1 12/12/1
f 16/16/1 17/17/1 12/12/1 15/15/1
f 17/17/1 18/18/1 13/13/1 12/12/1
f 19/19/1 20/20/1 21/21/1 22/22/1
f 20/20/1 23/23/1 24/24/1 21/21/1
f 25/25/1 26/26/1 21/21/1 24/24/1
f 26/26/1 27/27/1 22/22/1 21/21/1
f 28/28/1 29/29/1 30/30/1 31/31/1
f 29/29/1 32/32/1 33/33/1 30/30/1
f 5/5/1 2/2/1 30/30/1 33/33/1
f 2/2/1 1/1/1 31/31/1 30/30/1
f 16/16/1 34/34/1 35/35/1 17/17/1
f 34/34/1 36/36/1 37/37/1 35/35/1
f 38/38/1 39/39/1 35/35/1 37/37/1
f 39/39/1 18/18/1 17/17/1 35/35/1
f 25/25/1 40/40/1 41/41/1 26/26/1
f 40/40/1 42/42/1 43/43/1 41/41/1
f 44/44/1 45/45/1 41/41/1 43/43/1
f 45/45/1 27/27/1 26/26/1 41/41/1
f 46/46/2 47/47/3 48/48/4 49/49/5
f 47/47/3 50/50/6 51/51/7 48/48/4
f 50/50/6 52/52/8 53/53/9 51/51/7
f 52/52/8 54/54/10 55/55/11 53/53/9
f 54/54/10 56/56/12 57/57/13 55/55/11
f 56/56/12 58/58/14 59/59/15 57/57/13
f 58/58/14 60/60/16 61/61/17 59/59/15
f 60/60/16 62/62/18 63/63/19 61/61/17
f 64/64/20 65/65/21 66/66/22 67/67/23
f 68/68/24 69/69/25 65/65/21 64/64/20
f 70/70/26 71/71/27 72/72/28 73/73/29
f 74/74/30 75/75/31 71/71/27 70/70/26
f 76/76/32 77/77/33 75/75/31 74/74/30
f 78/78/34 79/79/35 77/77/33 76/76/32
f 80/80/36 81/81/37 79/79/35 78/78/34
f 82/82/38 83/83/39 81/81/37 80/80/36
f 84/84/40 85/85/41 83/83/39 82/82/38
f 86/86/42 87/87/43 85/85/41 84/84/40
f 88/88/44 89/89/45 90/90/46 91/91/47
f 92/92/48 93/93/49 89/89/45 88/88/44
f 94/94/50 95/95/51 96/96/52 97/97/53
f 98/98/50 99/99/51 95/95/51 94/94/50
f 100/100/54 101/101/55 102/102/56 103/103/57
f 104/104/58 105/105/59 106/106/60 107/107/61
f 108/108/62 109/109/63 110/110/64 111/111/65
f 112/112/66 113/113/67 114/114/68 115/115/69
f 116/116/70 117/117/71 118/118/72 119/119/73
f 120/120/74 121/121/75 122/122/76 123/123/77
f 124/124/78 125/125/79 126/126/80 127/127/81
f 128/128/82 129/129/83 130/130/84 131/131/85
f 132/132/86 133/133/87 134/134/88 135/135/89
f 136/136/86 137/137/87 133/133/87 132/132/86
f 138/138/90 139/139/91 140/140/92 141/141/93
f 142/142/94 143/143/95 144/144/96 145/145/97
f 146/146/98 147/147/99 148/148/100 149/149/101
f 150/150/102 151/151/103 152/152/104 153/153/105
f 154/154/106 155/155/107 156/156/108 157/157/109
f 158/158/110 159/159/111 160/160/112 161/161/113
f 162/162/114 163/163/115 164/164/116 165/165/117
f 166/166/118 167/167/119 168/168/120 169/169/121
f 170/170/122 171/171/123 172/172/124 173/173/125
f 170/170/122 92/174/48 174/175/126 171/171/123
f 106/106/60 50/176/6 47/177/3 107/107/61
f 46/178/2 175/179/127 107/107/61 47/177/3
f 114/114/68 54/180/10 52/181/8 115/115/69
f 50/176/6 106/106/60 115/115/69 52/181/8
f 122/122/76 58/182/14 56/183/12 123/123/77
f 54/180/10 114/114/68 123/123/77 56/183/12
f 130/130/84 62/184/18 60/185/16 131/131/85
f 58/182/14 122/122/76 131/131/85 60/185/16
f 176/186/128 177/187/129 178/188/130 179/189/131
f 176/186/128 68/190/24 180/191/132 177/187/129
f 145/145/97 74/192/30 70/193/26 142/142/94
f 73/194/29 181/195/133 142/142/94 70/193/26
f 153/153/105 78/196/34 76/197/32 150/150/102
f 74/192/30 145/145/97 150/150/102 76/197/32
f 161/161/113 82/198/38 80/199/36 158/158/110
f 78/196/34 153/153/105 158/158/110 80/199/36
f 169/169/121 86/200/42 84/201/40 166/166/118
f 82/198/38 161/161/113 166/166/118 84/201/40
f 182/202/1 183/203/1 184/204/1 185/205/1
f 183/203/1 18/18/1 39/39/1 184/204/1
f 38/38/1 186/206/1 184/204/1 39/39/1
f 186/206/1 187/207/1 185/205/1 184/204/1
f 9/9/1 188/208/1 189/209/1 4/4/1
f 188/208/1 19/19/1 22/22/1 189/209/1
f 27/27/1 190/210/1 189/209/1 22/22/1
f 190/210/1 1/1/1 4/4/1 189/209/1
f 191/211/1 192/212/1 193/213/1 194/214/1
f 192/212/1 10/10/1 13/13/1 193/213/1
f 18/18/1 183/203/1 193/213/1 13/13/1
f 183/203/1 182/202/1 194/214/1 193/213/1
f 1/1/1 190/210/1 195/215/1 31/31/1
f 190/210/1 27/27/1 45/45/1 195/215/1
f 44/44/1 196/216/1 195/215/1 45/45/1
f 196/216/1 28/28/1 31/31/1 195/215/1
f 197/217/134 198/218/135 199/219/136 179/220/131
f 73/73/29 72/72/28 198/218/135 197/217/134
f 62/62/18 200/221/137 201/222/138 63/63/19
f 67/67/23 66/66/22 201/222/138 200/221/137
f 202/223/139 203/224/140 204/225/141 173/226/125
f 46/46/2 49/49/5 203/224/140 202/223/139
f 205/227/142 206/228/143 87/87/43 86/86/42
f 91/91/47 90/90/46 206/228/143 205/227/142
f 207/229/144 208/230/52 209/231/53 210/232/145
f 210/232/145 100/100/54 103/103/57 207/229/144
f 211/233/146 212/234/147 213/235/51 214/236/148
f 169/169/121 168/168/120 212/234/147 211/233/146
f 215/237/149 216/238/88 217/239/150 218/240/151
f 141/141/93 140/140/92 215/237/149 218/240/151
f 219/241/152 220/242/153 221/243/88 222/244/154
f 219/241/152 130/130/84 129/129/83 220/242/153
f 91/245/47 205/246/142 211/233/146 214/236/148
f 205/246/142 86/200/42 169/169/121 211/233/146
f 172/172/124 223/247/155 202/248/139 173/173/125
f 223/247/155 175/179/127 46/178/2 202/248/139
f 67/249/23 200/250/137 219/241/152 222/244/154
f 200/250/137 62/184/18 130/130/84 219/241/152
f 178/188/130 224/251/156 197/252/134 179/189/131
f 224/251/156 181/195/133 73/194/29 197/252/134
f 5/5/1 225/253/1 226/254/1 6/6/1
f 225/253/1 182/202/1 185/205/1 226/254/1
f 187/207/1 227/255/1 226/254/1 185/205/1
f 227/255/1 7/7/1 6/6/1 226/254/1
f 32/32/1 228/256/1 229/257/1 33/33/1
f 228/256/1 191/211/1 194/214/1 229/257/1
f 182/202/1 225/253/1 229/257/1 194/214/1
f 225/253/1 5/5/1 33/33/1 229/257/1
f 176/258/128 230/259/157 69/69/25 68/68/24
f 179/220/131 199/219/136 230/259/157 176/258/128
f 170/260/122 231/261/158 93/93/49 92/92/48
f 173/226/125 204/225/141 231/261/158 170/260/122
f 232/262/51 99/263/51 98/264/50 233/265/50
f 209/231/53 208/230/52 232/262/51 233/265/50
f 234/266/87 137/137/87 136/136/86 235/267/86
f 217/239/150 216/238/88 234/266/87 235/267/86
f 92/268/48 88/269/44 236/270/159 174/271/126
f 88/269/44 91/245/47 214/236/148 236/270/159
f 68/190/24 64/272/20 237/273/160 180/191/132
f 64/272/20 67/249/23 222/244/154 237/273/160
f 236/270/159 214/236/148 213/235/51 238/274/161
f 174/271/126 236/270/159 238/274/161 239/275/161
f 107/107/61 175/179/127 240/276/162 104/104/58
f 101/101/55 108/108/62 111/111/65 102/102/56
f 115/115/69 106/106/60 105/105/59 112/112/66
f 109/109/63 116/116/70 119/119/73 110/110/64
f 123/123/77 114/114/68 113/113/67 120/120/74
f 117/117/71 124/124/78 127/127/81 118/118/72
f 131/131/85 122/122/76 121/121/75 128/128/82
f 125/125/79 241/277/163 242/278/164 126/126/80
f 237/273/160 222/244/154 221/243/88 243/279/87
f 180/191/132 237/273/160 243/279/87 244/280/87
f 143/143/95 142/142/94 181/195/133 245/281/165
f 139/139/91 138/138/90 149/149/101 148/148/100
f 151/151/103 150/150/102 145/145/97 144/144/96
f 147/147/99 146/146/98 157/157/109 156/156/108
f 159/159/111 158/158/110 153/153/105 152/152/104
f 155/155/107 154/154/106 165/165/117 164/164/116
f 167/167/119 166/166/118 161/161/113 160/160/112
f 163/163/115 162/162/114 246/282/166 247/283/167
f 223/247/155 172/172/124 248/284/51 249/285/168
f 175/179/127 223/247/155 249/285/168 240/276/162
f 250/286/169 97/97/53 96/96/52 251/287/170
f 247/283/167 246/282/166 250/286/169 251/287/170
f 224/251/156 178/188/130 252/288/88 253/289/171
f 245/281/165 181/195/133 224/251/156 253/289/171
f 254/290/172 135/135/89 134/134/88 255/291/173
f 241/277/163 254/290/172 255/291/173 242/278/164
f 171/171/123 174/175/126 239/292/161 256/293/161
f 172/172/124 171/171/123 256/293/161 248/284/51
f 177/187/129 180/191/132 244/280/87 257/294/87
f 178/188/130 177/187/129 257/294/87 252/288/88
f 258/295/174 259/296/174 260/297/175 261/298/176
f 259/296/174 262/299/174 263/300/175 260/297/175
f 262/301/174 264/302/174 265/303/175 263/304/175
f 264/302/174 266/305/174 267/306/176 265/303/175
f 266/305/174 268/307/174 269/308/177 267/306/176
f 268/307/174 270/309/174 271/310/178 269/308/177
f 270/309/174 272/311/174 273/312/179 271/310/178
f 272/311/174 274/313/174 275/314/180 273/312/179
f 274/313/174 276/315/174 277/316/181 275/314/180
f 276/315/174 278/317/174 279/318/182 277/316/181
f 278/317/174 280/319/174 281/320/183 279/318/182
f 280/319/174 282/321/174 283/322/184 281/320/183
f 282/321/174 284/323/174 285/324/185 283/322/184
f 284/323/174 286/325/174 287/326/186 285/324/185
f 286/325/174 288/327/174 289/328/187 287/326/186
f 288/327/174 290/329/174 291/330/188 289/328/187
f 290/329/174 292/331/174 293/332/189 291/330/188
f 292/331/174 294/333/174 295/334/189 293/332/189
f 294/333/174 296/335/174 297/336/189 295/334/189
f 296/335/174 298/337/174 299/338/188 297/336/189
f 298/337/174 300/339/174 301/340/190 299/338/188
f 300/339/174 302/341/174 303/342/191 301/340/190
f 302/341/174 304/343/174 305/344/192 303/342/191
f 304/343/174 306/345/174 307/346/193 305/344/192
f 306/345/174 308/347/174 309/348/194 307/346/193
f 308/347/174 310/349/174 311/350/195 309/348/194
f 310/349/174 312/351/174 313/352/196 311/350/195
f 312/351/174 314/353/174 315/354/197 313/352/196
f 314/353/174 316/355/174 317/356/198 315/354/197
f 316/355/174 318/357/174 319/358/199 317/356/198
f 318/357/174 320/359/174 321/360/200 319/358/199
f 320/359/174 258/295/174 261/298/176 321/360/200
f 322/361/201 323/362/202 324/363/202 325/364/201
f 323/362/202 326/365/203 327/366/204 324/363/202
f 326/365/203 328/367/205 329/368/206 327/366/204
f 328/367/205 330/369/207 331/370/208 329/368/206
f 330/369/207 332/371/209 333/372/210 331/370/208
f 332/371/209 334/373/211 335/374/212 333/372/210
f 334/373/211 336/375/213 337/376/214 335/374/212
f 336/375/213 338/377/215 339/378/216 337/376/214
f 338/377/215 340/379/217 341/380/218 339/378/216
f 340/379/217 342/381/219 343/382/220 341/380/218
f 342/381/219 344/383/221 345/384/222 343/382/220
f 344/383/221 346/385/223 347/386/224 345/384/222
f 346/385/223 348/387/225 349/388/225 347/386/224
f 348/387/225 350/389/226 351/390/226 349/388/225
f 350/389/226 352/391/226 353/392/226 351/390/226
f 352/391/226 354/393/226 355/394/226 353/392/226
f 354/393/226 356/395/225 357/396/225 355/394/226
f 356/395/225 358/397/227 359/398/228 357/396/225
f 358/397/227 360/399/229 361/400/230 359/398/228
f 360/399/229 362/401/231 363/402/232 361/400/230
f 362/401/231 364/403/233 365/404/234 363/402/232
f 364/403/233 366/405/235 367/406/236 365/404/234
f 366/405/235 368/407/237 369/408/238 367/406/236
f 368/407/237 370/409/239 371/410/240 369/408/238
f 370/409/239 372/411/241 373/412/242 371/410/240
f 372/411/241 374/413/243 375/414/244 373/412/242
f 374/413/243 376/415/245 377/416/246 375/414/244
f 376/415/245 378/417/247 379/418/248 377/416/246
f 378/417/247 380/419/202 381/420/202 379/418/248
f 380/419/202 382/421/201 383/422/201 381/420/202
f 382/421/201 384/423/201 385/424/201 383/422/201
f 384/425/201 322/361/201 325/364/201 385/426/201
f 322/361/201 238/274/161 213/235/51 323/362/202
f 384/425/201 239/275/161 238/274/161 322/361/201
f 374/413/243 104/104/58 240/276/162 376/415/245
f 372/411/241 105/105/59 104/104/58 374/413/243
f 370/409/239 112/112/66 105/105/59 372/411/241
f 368/407/237 113/113/67 112/112/66 370/409/239
f 366/405/235 120/120/74 113/113/67 368/407/237
f 364/403/233 121/121/75 120/120/74 366/405/235
f 362/401/231 128/128/82 121/121/75 364/403/233
f 360/399/229 129/129/83 128/128/82 362/401/231
f 354/393/226 243/279/87 221/243/88 356/395/225
f 352/391/226 244/280/87 243/279/87 354/393/226
f 342/381/219 143/143/95 245/281/165 344/383/221
f 340/379/217 144/144/96 143/143/95 342/381/219
f 338/377/215 151/151/103 144/144/96 340/379/217
f 336/375/213 152/152/104 151/151/103 338/377/215
f 334/373/211 159/159/111 152/152/104 336/375/213
f 332/371/209 160/160/112 159/159/111 334/373/211
f 330/369/207 167/167/119 160/160/112 332/371/209
f 328/367/205 168/168/120 167/167/119 330/369/207
f 378/417/247 249/285/168 248/284/51 380/419/202
f 376/415/245 240/276/162 249/285/168 378/417/247
f 323/362/202 213/235/51 212/234/147 326/365/203
f 326/365/203 212/234/147 168/168/120 328/367/205
f 346/385/223 253/289/171 252/288/88 348/387/225
f 344/383/221 245/281/165 253/289/171 346/385/223
f 356/395/225 221/243/88 220/242/153 358/397/227
f 358/397/227 220/242/153 129/129/83 360/399/229
f 382/421/201 256/293/161 239/292/161 384/423/201
f 380/419/202 248/284/51 256/293/161 382/421/201
f 350/389/226 257/294/87 244/280/87 352/391/226
f 348/387/225 252/288/88 257/294/87 350/389/226
f 97/97/53 261/298/176 260/297/175 94/94/50
f 94/94/50 260/297/175 263/300/175 98/98/50
f 98/264/50 263/304/175 265/303/175 233/265/50
f 233/265/50 265/303/175 267/306/176 209/231/53
f 209/231/53 267/306/176 269/308/177 210/232/145
f 210/232/145 269/308/177 271/310/178 100/100/54
f 100/100/54 271/310/178 273/312/179 101/101/55
f 101/101/55 273/312/179 275/314/180 108/108/62
f 108/108/62 275/314/180 277/316/181 109/109/63
f 109/109/63 277/316/181 279/318/182 116/116/70
f 116/116/70 279/318/182 281/320/183 117/117/71
f 117/117/71 281/320/183 283/322/184 124/124/78
f 124/124/78 283/322/184 285/324/185 125/125/79
f 125/125/79 285/324/185 287/326/186 241/277/163
f 241/277/163 287/326/186 289/328/187 254/290/172
f 254/290/172 289/328/187 291/330/188 135/135/89
f 135/135/89 291/330/188 293/332/189 132/132/86
f 132/132/86 293/332/189 295/334/189 136/136/86
f 136/136/86 295/334/189 297/336/189 235/267/86
f 235/267/86 297/336/189 299/338/188 217/239/150
f 217/239/150 299/338/188 301/340/190 218/240/151
f 218/240/151 301/340/190 303/342/191 141/141/93
f 141/141/93 303/342/191 305/344/192 138/138/90
f 138/138/90 305/344/192 307/346/193 149/149/101
f 149/149/101 307/346/193 309/348/194 146/146/98
f 146/146/98 309/348/194 311/350/195 157/157/109
f 157/157/109 311/350/195 313/352/196 154/154/106
f 154/154/106 313/352/196 315/354/197 165/165/117
f 165/165/117 315/354/197 317/356/198 162/162/114
f 162/162/114 317/356/198 319/358/199 246/282/166
f 246/282/166 319/358/199 321/360/200 250/286/169
f 250/286/169 321/360/200 261/298/176 97/97/53
f 95/95/51 325/364/201 324/363/202 96/96/52
f 96/96/52 324/363/202 327/366/204 251/287/170
f 251/287/170 327/366/204 329/368/206 247/283/167
f 247/283/167 329/368/206 331/370/208 163/163/115
f 163/163/115 331/370/208 333/372/210 164/164/116
f 164/164/116 333/372/210 335/374/212 155/155/107
f 155/155/107 335/374/212 337/376/214 156/156/108
f 156/156/108 337/376/214 339/378/216 147/147/99
f 147/147/99 339/378/216 341/380/218 148/148/100
f 148/148/100 341/380/218 343/382/220 139/139/91
f 139/139/91 343/382/220 345/384/222 140/140/92
f 140/140/92 345/384/222 347/386/224 215/237/149
f 215/237/149 347/386/224 349/388/225 216/238/88
f 216/238/88 349/388/225 351/390/226 234/266/87
f 234/266/87 351/390/226 353/392/226 137/137/87
f 137/137/87 353/392/226 355/394/226 133/133/87
f 133/133/87 355/394/226 357/396/225 134/134/88
f 134/134/88 357/396/225 359/398/228 255/291/173
f 255/291/173 359/398/228 361/400/230 242/278/164
f 242/278/164 361/400/230 363/402/232 126/126/80
f 126/126/80 363/402/232 365/404/234 127/127/81
f 127/127/81 365/404/234 367/406/236 118/118/72
f 118/118/72 367/406/236 369/408/238 119/119/73
f 119/119/73 369/408/238 371/410/240 110/110/64
f 110/110/64 371/410/240 373/412/242 111/111/65
f 111/111/65 373/412/242 375/414/244 102/102/56
f 102/102/56 375/414/244 377/416/246 103/103/57
f 103/103/57 377/416/246 379/418/248 207/229/144
f 207/229/144 379/418/248 381/420/202 208/230/52
f 208/230/52 381/420/202 383/422/201 232/262/51
f 232/262/51 383/422/201 385/424/201 99/263/51
f 99/99/51 385/426/201 325/364/201 95/95/51
f 386/427/249 387/428/250 388/429/1 389/430/1
f 387/428/250 390/431/251 391/432/1 388/429/1
f 390/431/251 392/433/252 393/434/1 391/432/1
f 392/433/252 394/435/253 395/436/1 393/434/1
f 394/435/253 396/437/254 397/438/1 395/436/1
f 396/437/254 398/439/255 399/440/1 397/438/1
f 398/439/255 400/441/256 401/442/1 399/440/1
f 400/441/256 402/443/257 403/444/1 401/442/1
f 402/443/257 404/445/258 405/446/1 403/444/1
f 404/445/258 406/447/259 407/448/1 405/446/1
f 406/447/259 408/449/260 409/450/1 407/448/1
f 408/449/260 410/451/261 411/452/1 409/450/1
f 410/451/261 412/453/262 413/454/1 411/452/1
f 412/453/262 414/455/263 415/456/1 413/454/1
f 414/455/263 416/457/264 417/458/1 415/456/1
f 416/457/264 418/459/265 419/460/1 417/458/1
f 418/459/265 420/461/266 421/462/1 419/460/1
f 420/461/266 422/463/267 423/464/1 421/462/1
f 422/463/267 424/465/268 425/466/1 423/464/1
f 424/465/268 426/467/269 427/468/1 425/466/1
f 426/467/269 428/469/270 429/470/1 427/468/1
f 428/469/270 430/471/271 431/472/1 429/470/1
f 430/471/271 432/473/272 433/474/1 431/472/1
f 432/473/272 434/475/273 435/476/1 433/474/1
f 434/475/273 436/477/274 437/478/1 435/476/1
f 436/477/274 438/479/275 439/480/1 437/478/1
f 438/479/275 440/481/276 441/482/1 439/480/1
f 440/481/276 442/483/277 443/484/1 441/482/1
f 442/483/277 444/485/278 445/486/1 443/484/1
f 444/485/278 446/487/279 447/488/1 445/486/1
f 446/487/279 448/489/280 449/490/1 447/488/1
f 448/489/280 386/427/249 389/430/1 449/490/1
f 443/484/1 445/486/1 8/8/1 7/7/1
f 445/486/1 447/488/1 9/9/1 8/8/1
f 447/488/1 449/490/1 188/208/1 9/9/1
f 449/490/1 389/430/1 19/19/1 188/208/1
f 389/430/1 388/429/1 20/20/1 19/19/1
f 388/429/1 391/432/1 23/23/1 20/20/1
f 391/432/1 393/434/1 24/24/1 23/23/1
f 393/434/1 395/436/1 25/25/1 24/24/1
f 395/436/1 397/438/1 40/40/1 25/25/1
f 397/438/1 399/440/1 42/42/1 40/40/1
f 399/440/1 401/442/1 43/43/1 42/42/1
f 401/442/1 403/444/1 44/44/1 43/43/1
f 403/444/1 405/446/1 196/216/1 44/44/1
f 405/446/1 407/448/1 28/28/1 196/216/1
f 407/448/1 409/450/1 29/29/1 28/28/1
f 409/450/1 411/452/1 32/32/1 29/29/1
f 411/452/1 413/454/1 228/256/1 32/32/1
f 413/454/1 415/456/1 191/211/1 228/256/1
f 415/456/1 417/458/1 192/212/1 191/211/1
f 417/458/1 419/460/1 10/10/1 192/212/1
f 419/460/1 421/462/1 11/11/1 10/10/1
f 421/462/1 423/464/1 14/14/1 11/11/1
f 423/464/1 425/466/1 15/15/1 14/14/1
f 425/466/1 427/468/1 16/16/1 15/15/1
f 427/468/1 429/470/1 34/34/1 16/16/1
f 429/470/1 431/472/1 36/36/1 34/34/1
f 431/472/1 433/474/1 37/37/1 36/36/1
f 433/474/1 435/476/1 38/38/1 37/37/1
f 435/476/1 437/478/1 186/206/1 38/38/1
f 437/478/1 439/480/1 187/207/1 186/206/1
f 439/480/1 441/482/1 227/255/1 187/207/1
f 441/482/1 443/484/1 7/7/1 227/255/1
f 387/428/250 386/427/249 49/49/5 48/48/4
f 390/431/251 387/428/250 48/48/4 51/51/7
f 392/433/252 390/431/251 51/51/7 53/53/9
f 394/435/253 392/433/252 53/53/9 55/55/11
f 396/437/254 394/435/253 55/55/11 57/57/13
f 398/439/255 396/437/254 57/57/13 59/59/15
f 400/441/256 398/439/255 59/59/15 61/61/17
f 402/443/257 400/441/256 61/61/17 63/63/19
f 408/449/260 406/447/259 66/66/22 65/65/21
f 410/451/261 408/449/260 65/65/21 69/69/25
f 71/71/27 420/461/266 418/459/265 72/72/28
f 75/75/31 422/463/267 420/461/266 71/71/27
f 77/77/33 424/465/268 422/463/267 75/75/31
f 79/79/35 426/467/269 424/465/268 77/77/33
f 81/81/37 428/469/270 426/467/269 79/79/35
f 83/83/39 430/471/271 428/469/270 81/81/37
f 85/85/41 432/473/272 430/471/271 83/83/39
f 87/87/43 434/475/273 432/473/272 85/85/41
f 440/481/276 438/479/275 90/90/46 89/89/45
f 442/483/277 440/481/276 89/89/45 93/93/49
f 416/457/264 414/455/263 199/219/136 198/218/135
f 72/72/28 418/459/265 416/457/264 198/218/135
f 404/445/258 402/443/257 63/63/19 201/222/138
f 406/447/259 404/445/258 201/222/138 66/66/22
f 448/489/280 446/487/279 204/225/141 203/224/140
f 49/49/5 386/427/249 448/489/280 203/224/140
f 436/477/274 434/475/273 87/87/43 206/228/143
f 438/479/275 436/477/274 206/228/143 90/90/46
f 412/453/262 410/451/261 69/69/25 230/259/157
f 414/455/263 412/453/262 230/259/157 199/219/136
f 444/485/278 442/483/277 93/93/49 231/261/158
f 446/487/279 444/485/278 231/261/158 204/225/141
