# Blender 4.5.3 LTS
# www.blender.org
o B3
v 36.534595 -23.821367 26.950962
v 35.159225 -23.846016 26.040989
v 34.250164 -23.858696 24.667149
v 33.929852 -23.847681 23.031063
v 34.250313 -23.803471 21.395931
v 35.158195 -23.735435 20.023380
v 36.531818 -23.660606 19.115459
v 38.172020 -23.595110 18.795437
v 39.814140 -23.563469 19.116756
v 41.190033 -23.576029 20.024853
v 42.096970 -23.609219 21.396748
v 42.416294 -23.644159 23.031834
v 42.095966 -23.678631 24.668217
v 41.188347 -23.716639 26.041584
v 39.814095 -23.753925 26.950695
v 38.174633 -23.791441 27.272114
v 36.393757 -16.115976 27.335743
v 34.880833 -16.115976 26.324848
v 33.869984 -16.115976 24.811947
v 33.515030 -16.115976 23.027378
v 33.870022 -16.115976 21.242764
v 34.880970 -16.115976 19.729763
v 36.393974 -16.115976 18.718807
v 38.178635 -16.115976 18.363827
v 39.963192 -16.115976 18.718792
v 41.476063 -16.115976 19.729610
v 42.486977 -16.115976 21.242496
v 42.841965 -16.115976 23.027172
v 42.486961 -16.115976 24.811825
v 41.476032 -16.115976 26.324780
v 39.963039 -16.115976 27.335743
v 38.178383 -16.115976 27.690739
v 35.894985 -23.959578 20.779430
v 36.821373 -23.938908 20.518597
v 38.158108 -23.896164 20.405025
v 39.497543 -23.866377 20.518284
v 40.436905 -23.840750 20.777935
v 35.626869 -24.008993 21.710491
v 36.814007 -24.041956 21.719753
v 38.147823 -24.012932 21.701733
v 39.488033 -23.974453 21.722141
v 40.697281 -23.882324 21.712086
v 35.509811 -24.041639 23.044842
v 36.789093 -24.081793 23.056019
v 38.143963 -24.056049 23.060978
v 39.507980 -24.016415 23.057156
v 40.809284 -23.914410 23.046818
v 35.627941 -24.059113 24.376278
v 36.817318 -24.096806 24.384144
v 38.148922 -24.073105 24.411945
v 39.489433 -24.035454 24.386906
v 40.694061 -23.942673 24.379673
v 35.896088 -24.046659 25.303936
v 36.825764 -24.043526 25.571178
v 38.160126 -24.015549 25.688496
v 39.499073 -23.985361 25.571102
v 40.432526 -23.946787 25.303967
v 39.644512 -23.719704 19.765903
v 40.810837 -23.725910 20.405575
v 41.452412 -23.751335 21.565952
v 41.677387 -23.782757 23.038586
v 41.449986 -23.815556 24.510929
v 40.807743 -23.849033 25.668888
v 39.644871 -23.876888 26.312489
v 38.168522 -23.909021 26.540043
v 36.693859 -23.939117 26.311268
v 35.533340 -23.963804 25.666416
v 34.887657 -23.966564 24.508106
v 34.658783 -23.951338 23.036953
v 34.885952 -23.914581 21.565502
v 35.530052 -23.864862 20.404949
v 36.689453 -23.803980 19.764011
v 38.165676 -23.748354 19.539341
v 36.410942 -23.717258 27.293018
v 34.913555 -23.740829 26.291340
v 33.912098 -23.754704 24.794147
v 33.560333 -23.741987 23.027782
v 33.912205 -23.692701 21.261524
v 34.913586 -23.617365 19.764568
v 36.410778 -23.539207 18.763088
v 38.177807 -23.470682 18.411243
v 39.944992 -23.435410 18.763256
v 41.442307 -23.444962 19.764652
v 42.443539 -23.480320 21.261448
v 42.795261 -23.518335 23.027706
v 42.443420 -23.555929 24.794147
v 41.442062 -23.597670 26.291325
v 39.944874 -23.642664 27.292927
v 38.177963 -23.685616 27.644917
v 34.880829 -17.409454 26.324848
v 34.880833 -22.483700 26.324848
v 36.393757 -22.463707 27.335743
v 36.393757 -17.405897 27.335743
v 33.869976 -17.411539 24.811947
v 33.869976 -22.495487 24.811947
v 33.515030 -17.409548 23.027378
v 33.515030 -22.484282 23.027378
v 33.870022 -17.401978 21.242764
v 33.870033 -22.441582 21.242764
v 34.880962 -17.390465 19.729763
v 34.880966 -22.376530 19.729763
v 36.393974 -17.378588 18.718807
v 36.393978 -22.309546 18.718807
v 38.178635 -17.368172 18.363827
v 38.178635 -22.250751 18.363827
v 39.963184 -17.362759 18.718792
v 39.963192 -22.220146 18.718792
v 41.476051 -17.364109 19.729610
v 41.476070 -22.227741 19.729610
v 42.486977 -17.369476 21.242496
v 42.486977 -22.258093 21.242496
v 42.841961 -17.375301 23.027172
v 42.841961 -22.290956 23.027172
v 42.486961 -17.381058 24.811825
v 42.486961 -22.323503 24.811825
v 41.476032 -17.387484 26.324810
v 41.476032 -22.359644 26.324780
v 39.963039 -17.394444 27.335743
v 39.963039 -22.399021 27.335743
v 38.178383 -17.401066 27.690739
v 38.178383 -22.436386 27.690739
v 35.689934 -23.796024 26.748272
v 34.454529 -23.816431 25.512783
v 33.783432 -23.819607 23.901684
v 33.783646 -23.790230 22.156620
v 34.454655 -23.727682 20.546482
v 35.689091 -23.650112 19.312115
v 37.301163 -23.574965 18.640812
v 39.049774 -23.521486 18.641186
v 40.663105 -23.511164 19.312962
v 41.897705 -23.537647 20.547108
v 42.568035 -23.575071 22.156918
v 42.567822 -23.611170 23.902050
v 41.896954 -23.649191 25.513096
v 40.662430 -23.690588 26.748089
v 39.050480 -23.732718 27.419994
v 37.302746 -23.768820 27.420231
v 35.587994 -20.407223 26.904072
v 34.301624 -20.417231 25.617687
v 33.605484 -20.418419 23.936970
v 33.605503 -20.402561 22.117764
v 34.301712 -20.369583 20.436985
v 35.588177 -20.329617 19.150501
v 37.269001 -20.291523 18.454296
v 39.088226 -20.263885 18.454296
v 40.768902 -20.257341 19.150402
v 42.055279 -20.270073 20.436749
v 42.751488 -20.289576 22.117504
v 42.751488 -20.308645 23.936787
v 42.055267 -20.328697 25.617619
v 40.768818 -20.351114 26.904057
v 39.088020 -20.374287 27.600254
v 37.268753 -20.393536 27.600254
v 36.237358 -24.001858 21.130726
v 37.477108 -23.981281 21.035725
v 38.828922 -23.945726 21.036495
v 40.081974 -23.902441 21.130894
v 36.132481 -24.055464 22.376225
v 37.468887 -24.058435 22.383724
v 38.822655 -24.025110 22.384754
v 40.176144 -23.956347 22.378376
v 36.133896 -24.081879 23.723019
v 37.470131 -24.087315 23.732838
v 38.823421 -24.055477 23.733929
v 40.175766 -23.986839 23.725758
v 36.239590 -24.077517 24.960896
v 37.480179 -24.068325 25.065815
v 38.830856 -24.038191 25.066685
v 40.080261 -23.991619 24.962063
v 40.419617 -23.639021 19.752407
v 41.464661 -23.661663 20.794659
v 42.001598 -23.693941 22.239277
v 42.000736 -23.727108 23.830975
v 41.462467 -23.762318 25.276028
v 40.418266 -23.796463 26.319622
v 38.969761 -23.829988 26.859463
v 37.374035 -23.862749 26.859180
v 35.926376 -23.891005 26.318287
v 34.881184 -23.908674 25.273937
v 34.340858 -23.907093 23.829350
v 34.340481 -23.880407 22.238468
v 34.879509 -23.829205 20.793705
v 35.923027 -23.763462 19.750500
v 37.370338 -23.695660 19.213131
v 38.968105 -23.647713 19.214298
v 40.152912 -23.793350 20.293400
v 40.923908 -23.806839 21.060246
v 41.234745 -23.835323 22.325191
v 41.233025 -23.866693 23.759701
v 40.919125 -23.897528 25.019863
v 40.150845 -23.923862 25.786037
v 38.883900 -23.950819 26.102772
v 37.446632 -23.981419 26.102489
v 36.183071 -24.009377 25.785694
v 35.413467 -24.020920 25.017773
v 35.095928 -24.011232 23.756832
v 35.095119 -23.985430 22.323727
v 35.412201 -23.947706 21.060619
v 36.179817 -23.900904 20.293865
v 37.442818 -23.848021 19.981892
v 38.881882 -23.807276 19.982456
v 35.587994 -16.291203 26.904072
v 35.587994 -23.591097 26.904072
v 34.301624 -16.291609 25.617687
v 34.301632 -23.610676 25.617687
v 33.605484 -16.291664 23.936970
v 33.605484 -23.613052 23.936970
v 33.605503 -16.291006 22.117764
v 33.605503 -23.581993 22.117764
v 34.301712 -16.289660 20.436985
v 34.301716 -23.517382 20.436985
v 35.588177 -16.288029 19.150501
v 35.588177 -23.439072 19.150501
v 37.269001 -16.286474 18.454296
v 37.269005 -23.364445 18.454296
v 39.088226 -16.285358 18.454296
v 39.088226 -23.310286 18.454296
v 40.768902 -16.285086 19.150402
v 40.768909 -23.297476 19.150402
v 42.055279 -16.285591 20.436749
v 42.055283 -23.322412 20.436749
v 42.751488 -16.286390 22.117504
v 42.751488 -23.360634 22.117504
v 42.751488 -16.287174 23.936787
v 42.751488 -23.397989 23.936787
v 42.055267 -16.287996 25.617619
v 42.055267 -23.437254 25.617619
v 40.768818 -16.288908 26.904057
v 40.768818 -23.481203 26.904057
v 39.088020 -16.289850 27.600254
v 39.088017 -23.526596 27.600254
v 37.268753 -16.290642 27.600254
v 37.268753 -23.564278 27.600254
v 36.462540 -23.783112 27.164806
v 35.800018 -23.834616 26.562878
v 35.011688 -23.807247 26.190845
v 34.637642 -23.854555 25.400616
v 34.038445 -23.821321 24.740818
v 34.011749 -23.856928 23.865948
v 33.696251 -23.809776 23.029072
v 34.011921 -23.829376 22.196507
v 34.038746 -23.762394 21.317905
v 34.637344 -23.771379 20.663044
v 35.011433 -23.689230 19.868961
v 35.798035 -23.697935 19.502491
v 36.461166 -23.611599 18.896015
v 37.334526 -23.625168 18.877163
v 38.175289 -23.543751 18.553555
v 39.010124 -23.573957 18.877926
v 39.890430 -23.509996 18.896664
v 40.549320 -23.565420 19.504055
v 41.341095 -23.521530 19.869816
v 41.710663 -23.591457 20.664211
v 42.313274 -23.556503 21.318333
v 42.334686 -23.626816 22.197208
v 42.655170 -23.593328 23.029339
v 42.334198 -23.661154 23.866901
v 42.312794 -23.629498 24.741215
v 41.709164 -23.697447 25.401539
v 41.340187 -23.669724 26.190937
v 40.548195 -23.735271 26.562992
v 39.890331 -23.711624 27.164463
v 39.011524 -23.773155 27.189724
v 38.176689 -23.752314 27.507610
v 37.337566 -23.807251 27.189945
v 34.880833 -16.291430 26.324848
v 36.393757 -23.578663 27.335743
v 35.613476 -23.729958 26.865124
v 33.869984 -16.291712 24.811947
v 34.339848 -23.749943 25.591457
v 33.515030 -16.291437 23.027378
v 33.649975 -23.752529 23.928158
v 33.870022 -16.290405 21.242764
v 33.650036 -23.721552 22.127476
v 34.880970 -16.288843 19.729763
v 34.339951 -23.656797 20.464336
v 36.393974 -16.287231 18.718807
v 35.613396 -23.577860 19.190907
v 38.178635 -16.285831 18.363827
v 37.277046 -23.502321 18.500942
v 39.963192 -16.285089 18.718792
v 39.078617 -23.447763 18.501026
v 41.476063 -16.285280 19.729610
v 40.742455 -23.435442 19.191051
v 42.015900 -23.461031 20.464336
v 42.486977 -16.286007 21.242496
v 42.705624 -23.499441 22.127354
v 42.841961 -16.286793 23.027172
v 42.705582 -23.536882 23.928097
v 42.486961 -16.287573 24.811825
v 42.015686 -23.576260 25.591473
v 41.476032 -16.288437 26.324780
v 40.742226 -23.620012 26.865047
v 39.963039 -16.289389 27.335743
v 39.078640 -23.665058 27.555210
v 38.178383 -16.290285 27.690739
v 37.277260 -23.702749 27.555256
v 36.829472 -23.996988 21.077404
v 36.256104 -23.957672 20.636417
v 35.748882 -23.988039 21.142750
v 36.178013 -24.034212 21.727207
v 38.152760 -23.961836 21.018047
v 37.469120 -23.917200 20.436848
v 37.474468 -24.031359 21.708172
v 39.480392 -23.927675 21.078411
v 38.847130 -23.879463 20.436924
v 38.822388 -23.997211 21.709652
v 40.580780 -23.864120 21.142124
v 40.070663 -23.856165 20.634792
v 40.134571 -23.934931 21.729504
v 36.797298 -24.067202 22.383228
v 35.542439 -24.026966 22.357967
v 36.113533 -24.069935 23.050579
v 38.144829 -24.040617 22.382572
v 37.465672 -24.073458 23.059544
v 39.500412 -24.000763 22.385067
v 38.824680 -24.040752 23.060093
v 40.778149 -23.898880 22.359951
v 40.194080 -23.971918 23.052219
v 36.799133 -24.094803 23.726276
v 35.543221 -24.052660 23.730656
v 36.180336 -24.086128 24.368252
v 38.145401 -24.070522 23.737217
v 37.476799 -24.089209 24.402096
v 39.501194 -24.031240 23.728344
v 38.823822 -24.058287 24.403606
v 40.776569 -23.929558 23.733723
v 40.133686 -23.995319 24.371548
v 36.833542 -24.078449 25.019772
v 35.749256 -24.060135 24.942478
v 36.258301 -24.052952 25.450283
v 38.154339 -24.052958 25.085865
v 37.472668 -24.030464 25.655468
v 39.482052 -24.019302 25.021130
v 38.849293 -24.000553 25.655567
v 40.575829 -23.952065 24.943630
v 40.068359 -23.969778 25.449528
v 40.284119 -23.719231 20.026157
v 41.006847 -23.648191 20.209538
v 39.730774 -23.637695 19.421299
v 41.795456 -23.677544 21.480350
v 41.191750 -23.737148 20.929615
v 42.073284 -23.710552 23.034985
v 41.618378 -23.766685 22.282238
v 41.617104 -23.798986 23.795010
v 41.793827 -23.744167 24.590336
v 41.188545 -23.832720 25.145725
v 41.004616 -23.780209 25.861378
v 39.730843 -23.812563 26.651913
v 40.282528 -23.863047 26.049969
v 38.171867 -23.847214 26.931934
v 38.926701 -23.892694 26.480106
v 37.410835 -23.924440 26.479496
v 36.613220 -23.877163 26.651279
v 36.057804 -23.953234 26.048054
v 35.340153 -23.902193 25.859447
v 34.548431 -23.910343 24.588360
v 35.151142 -23.967800 25.142918
v 34.268253 -23.897587 23.033772
v 34.719360 -23.961433 23.792690
v 34.718487 -23.935158 22.281284
v 34.547558 -23.857094 21.479725
v 35.148628 -23.891275 20.929317
v 35.337574 -23.797674 20.208080
v 36.609425 -23.728733 19.419353
v 36.053726 -23.835016 20.024708
v 38.168869 -23.667545 19.141529
v 37.406979 -23.774088 19.598209
v 38.924942 -23.729803 19.599430
v 39.559502 -23.796484 20.106167
v 40.621315 -23.797075 20.594601
v 41.111462 -23.820351 21.650394
v 41.279892 -23.851036 23.042393
v 41.108116 -23.882231 24.433422
v 40.616535 -23.911699 25.482845
v 39.560486 -23.936174 25.976894
v 38.164738 -23.966368 26.149403
v 36.771954 -23.995811 25.976452
v 35.717678 -24.018812 25.482143
v 35.222275 -24.017710 24.430180
v 35.048767 -24.000723 23.040432
v 35.220947 -23.967157 21.649487
v 35.716091 -23.925970 20.595860
v 36.767399 -23.874317 20.105602
v 38.162251 -23.824770 19.936344
v 35.587994 -16.115976 26.904072
v 34.301624 -16.115976 25.617687
v 33.605484 -16.115976 23.936970
v 33.605503 -16.115976 22.117764
v 34.301712 -16.115976 20.436985
v 35.588177 -16.115976 19.150501
v 37.269001 -16.115976 18.454296
v 39.088226 -16.115976 18.454296
v 40.768902 -16.115976 19.150402
v 42.055279 -16.115976 20.436749
v 42.751488 -16.115976 22.117504
v 42.751488 -16.115976 23.936787
v 42.055267 -16.115976 25.617619
v 40.768818 -16.115976 26.904057
v 39.088020 -16.115976 27.600254
v 37.268753 -16.115976 27.600254
v 34.880833 -20.412645 26.324848
v 34.880833 -23.601727 26.324848
v 36.393757 -20.400869 27.335743
v 36.393757 -16.290939 27.335743
v 33.869984 -20.419588 24.811947
v 33.869984 -23.615339 24.811947
v 33.515030 -20.412989 23.027378
v 33.515030 -23.602400 23.027378
v 33.870022 -20.387856 21.242764
v 33.870033 -23.553167 21.242764
v 34.880970 -20.349567 19.729763
v 34.880974 -23.478153 19.729763
v 36.393974 -20.310135 18.718807
v 36.393978 -23.400904 18.718807
v 38.178635 -20.275526 18.363827
v 38.178635 -23.333096 18.363827
v 39.963192 -20.257523 18.718792
v 39.963200 -23.297798 18.718792
v 41.476063 -20.261988 19.729610
v 41.476067 -23.306562 19.729610
v 42.486977 -20.279852 21.242496
v 42.486977 -23.341568 21.242496
v 42.841961 -20.299194 23.027172
v 42.841965 -23.379450 23.027172
v 42.486961 -20.318352 24.811825
v 42.486961 -23.417000 24.811825
v 41.476032 -20.339638 26.324780
v 41.476032 -23.458691 26.324780
v 39.963039 -20.362801 27.335743
v 39.963039 -23.504086 27.335743
v 38.178383 -20.384804 27.690739
v 38.178383 -23.547171 27.690739
v 35.587994 -17.407808 26.904072
v 35.587994 -22.474478 26.904072
v 34.301624 -17.410830 25.617687
v 34.301624 -22.491461 25.617687
v 33.605484 -17.411196 23.936970
v 33.605484 -22.493521 23.936970
v 33.605503 -17.406416 22.117764
v 33.605503 -22.466576 22.117764
v 34.301712 -17.396490 20.436985
v 34.301716 -22.410549 20.436985
v 35.588177 -17.384457 19.150501
v 35.588177 -22.342648 19.150501
v 37.269001 -17.372990 18.454296
v 37.269005 -22.277924 18.454296
v 39.088226 -17.364672 18.454296
v 39.088226 -22.230953 18.454296
v 40.768902 -17.362701 19.150402
v 40.768909 -22.219847 19.150402
v 42.055279 -17.366526 20.436749
v 42.055283 -22.241486 20.436749
v 42.751488 -17.372396 22.117504
v 42.751488 -22.274614 22.117504
v 42.751488 -17.378147 23.936787
v 42.751488 -22.307022 23.936787
v 42.055267 -17.384176 25.617619
v 42.055267 -22.341074 25.617619
v 40.768818 -17.390923 26.904057
v 40.768818 -22.379173 26.904057
v 39.088020 -17.397915 27.600254
v 39.088020 -22.418547 27.600254
v 37.268753 -17.403700 27.600254
v 37.268753 -22.451221 27.600254
vn -0.1472 -0.9586 0.2438
vn -0.0927 -0.9604 0.2627
vn -0.2764 -0.6665 0.6923
vn -0.4061 -0.6688 0.6227
vn -0.1959 -0.9575 0.2116
vn -0.5202 -0.6691 0.5307
vn -0.1284 -0.9811 0.1451
vn -0.0899 -0.9823 0.1646
vn -0.0493 -0.9847 0.1671
vn -0.2334 -0.9583 0.1651
vn -0.6172 -0.6659 0.4191
vn -0.2582 -0.9599 0.1087
vn -0.6928 -0.6611 0.2882
vn -0.1543 -0.9860 0.0631
vn -0.1498 -0.9830 0.1065
vn -0.2727 -0.9609 0.0476
vn -0.7401 -0.6571 0.1429
vn -0.2779 -0.9605 -0.0162
vn -0.7551 -0.6555 -0.0112
vn -0.1532 -0.9881 -0.0165
vn -0.1538 -0.9878 0.0226
vn -0.2737 -0.9584 -0.0810
vn -0.7365 -0.6561 -0.1650
vn -0.2591 -0.9550 -0.1443
vn -0.6853 -0.6591 -0.3099
vn -0.1531 -0.9833 -0.0982
vn -0.1533 -0.9866 -0.0561
vn -0.2328 -0.9510 -0.2035
vn -0.6062 -0.6632 -0.4388
vn -0.1924 -0.9484 -0.2519
vn -0.5063 -0.6664 -0.5474
vn -0.1233 -0.9750 -0.1848
vn -0.1471 -0.9786 -0.1441
vn -0.1399 -0.9483 -0.2848
vn -0.3902 -0.6668 -0.6350
vn -0.0814 -0.9496 -0.3028
vn -0.2599 -0.6660 -0.6992
vn -0.0377 -0.9771 -0.2094
vn -0.0816 -0.9752 -0.2058
vn -0.0242 -0.9504 -0.3102
vn -0.1209 -0.6658 -0.7363
vn 0.0290 -0.9500 -0.3108
vn 0.0201 -0.6665 -0.7452
vn 0.0299 -0.9779 -0.2069
vn -0.0012 -0.9782 -0.2079
vn 0.0797 -0.9484 -0.3068
vn 0.1582 -0.6674 -0.7277
vn 0.1298 -0.9456 -0.2984
vn 0.2889 -0.6683 -0.6855
vn 0.0900 -0.9734 -0.2106
vn 0.0589 -0.9763 -0.2081
vn 0.1811 -0.9422 -0.2819
vn 0.4108 -0.6686 -0.6198
vn 0.2308 -0.9401 -0.2508
vn 0.5199 -0.6672 -0.5334
vn 0.1668 -0.9678 -0.1883
vn 0.1277 -0.9696 -0.2086
vn 0.2708 -0.9409 -0.2036
vn 0.6147 -0.6632 -0.4269
vn 0.2976 -0.9436 -0.1451
vn 0.6894 -0.6589 -0.3011
vn 0.1976 -0.9750 -0.1014
vn 0.1907 -0.9705 -0.1477
vn 0.3127 -0.9463 -0.0825
vn 0.7375 -0.6559 -0.1609
vn 0.3177 -0.9480 -0.0196
vn 0.7553 -0.6553 -0.0135
vn 0.1989 -0.9798 -0.0202
vn 0.1985 -0.9783 -0.0590
vn 0.3139 -0.9485 0.0424
vn 0.7423 -0.6566 0.1340
vn 0.3013 -0.9480 0.1024
vn 0.6996 -0.6596 0.2747
vn 0.2007 -0.9780 0.0570
vn 0.1998 -0.9797 0.0177
vn 0.2780 -0.9473 0.1595
vn 0.6302 -0.6635 0.4032
vn 0.2404 -0.9480 0.2085
vn 0.5386 -0.6663 0.5158
vn 0.1735 -0.9746 0.1414
vn 0.1960 -0.9754 0.1009
vn 0.1902 -0.9511 0.2432
vn 0.4284 -0.6662 0.6105
vn 0.1341 -0.9554 0.2632
vn 0.3016 -0.6646 0.6836
vn 0.0909 -0.9819 0.1664
vn 0.1330 -0.9776 0.1629
vn 0.0772 -0.9589 0.2732
vn 0.1616 -0.6633 0.7307
vn 0.0148 -0.9698 0.2436
vn 0.0138 -0.6633 0.7482
vn 0.0144 -0.9863 0.1641
vn 0.0547 -0.9848 0.1647
vn -0.0254 -0.9702 0.2410
vn -0.1346 -0.6643 0.7352
vn -0.0080 -0.9863 0.1647
vn -0.5556 -0.0000 0.8315
vn -0.4205 -0.0000 0.9073
vn -0.4003 -0.0001 0.9164
vn -0.4195 -0.0001 0.9078
vn -0.7071 -0.0000 0.7071
vn -0.8315 -0.0000 0.5556
vn -0.9239 -0.0000 0.3827
vn -0.9739 -0.0000 0.2269
vn -0.9724 -0.0001 0.2334
vn -0.9753 -0.0000 0.2209
vn -0.9996 -0.0000 -0.0268
vn -0.9995 -0.0000 -0.0330
vn -0.9992 -0.0000 -0.0399
vn -0.9823 -0.0000 -0.1872
vn -0.9866 -0.0000 -0.1630
vn -0.9312 -0.0000 -0.3646
vn -0.9335 -0.0000 -0.3585
vn -0.9270 -0.0000 -0.3750
vn -0.8180 -0.0000 -0.5752
vn -0.8138 -0.0000 -0.5811
vn -0.8354 -0.0000 -0.5497
vn -0.6835 -0.0000 -0.7300
vn -0.7006 -0.0000 -0.7135
vn -0.5560 -0.0000 -0.8312
vn -0.5556 -0.0000 -0.8315
vn -0.3830 -0.0000 -0.9238
vn -0.3831 -0.0000 -0.9237
vn -0.3827 -0.0000 -0.9239
vn -0.1951 -0.0000 -0.9808
vn -0.1954 -0.0000 -0.9807
vn -0.0000 -0.0000 -1.0000
vn 0.1872 -0.0000 -0.9823
vn 0.1630 -0.0000 -0.9866
vn 0.3587 -0.0000 -0.9335
vn 0.3813 -0.0000 -0.9244
vn 0.4051 -0.0000 -0.9143
vn 0.5632 -0.0000 -0.8263
vn 0.5823 -0.0000 -0.8130
vn 0.6673 -0.0000 -0.7448
vn 0.6774 0.0002 -0.7356
vn 0.6781 0.0003 -0.7350
vn 0.8498 -0.0000 -0.5272
vn 0.8360 -0.0000 -0.5487
vn 0.8573 -0.0000 -0.5149
vn 0.9234 -0.0000 -0.3839
vn 0.9235 -0.0000 -0.3837
vn 0.9759 -0.0000 -0.2184
vn 0.9795 -0.0000 -0.2017
vn 0.9773 -0.0000 -0.2120
vn 0.9996 -0.0000 0.0269
vn 0.9994 -0.0000 0.0332
vn 0.9992 -0.0000 0.0403
vn 0.9879 -0.0000 0.1554
vn 0.9877 -0.0000 0.1564
vn 0.9899 -0.0000 0.1421
vn 0.9107 -0.0000 0.4132
vn 0.9202 -0.0000 0.3915
vn 0.9237 -0.0000 0.3830
vn 0.8129 -0.0000 0.5824
vn 0.8089 -0.0000 0.5880
vn 0.8165 -0.0000 0.5773
vn 0.7071 -0.0000 0.7071
vn 0.7069 -0.0000 0.7074
vn 0.5553 -0.0000 0.8317
vn 0.5556 -0.0000 0.8315
vn 0.3899 -0.0000 0.9208
vn 0.3899 0.0001 0.9208
vn 0.4129 -0.0000 0.9108
vn 0.1951 -0.0000 0.9808
vn 0.0491 -0.0000 0.9988
vn 0.0343 0.0004 0.9994
vn 0.0079 -0.0000 1.0000
vn -0.2183 -0.0000 0.9759
vn -0.1938 -0.0000 0.9810
vn -0.2137 -0.0000 0.9769
vn -0.0145 -0.9972 -0.0728
vn 0.0095 -0.9965 -0.0830
vn 0.0031 -0.9986 -0.0520
vn -0.0248 -0.9986 -0.0457
vn -0.0603 -0.9956 -0.0713
vn -0.0650 -0.9968 -0.0459
vn -0.0527 -0.9922 -0.1128
vn -0.0126 -0.9927 -0.1202
vn 0.0097 -0.9921 -0.1249
vn 0.0222 -0.9958 -0.0885
vn 0.0263 -0.9956 -0.0901
vn 0.0254 -0.9980 -0.0577
vn 0.0213 -0.9982 -0.0560
vn 0.0203 -0.9918 -0.1262
vn 0.0271 -0.9916 -0.1268
vn 0.0300 -0.9955 -0.0903
vn 0.0415 -0.9954 -0.0863
vn 0.0466 -0.9974 -0.0546
vn 0.0294 -0.9979 -0.0579
vn 0.0335 -0.9912 -0.1284
vn 0.0424 -0.9908 -0.1288
vn 0.0636 -0.9950 -0.0768
vn 0.1071 -0.9914 -0.0751
vn 0.1113 -0.9926 -0.0492
vn 0.0730 -0.9961 -0.0491
vn 0.0623 -0.9902 -0.1247
vn 0.1000 -0.9881 -0.1169
vn -0.0306 -0.9991 -0.0288
vn -0.0010 -0.9996 -0.0294
vn -0.0026 -0.9998 -0.0205
vn -0.0320 -0.9993 -0.0196
vn -0.0660 -0.9973 -0.0309
vn -0.0663 -0.9976 -0.0187
vn 0.0212 -0.9994 -0.0291
vn 0.0246 -0.9993 -0.0286
vn 0.0241 -0.9995 -0.0220
vn 0.0212 -0.9995 -0.0215
vn 0.0279 -0.9992 -0.0302
vn 0.0499 -0.9982 -0.0318
vn 0.0504 -0.9985 -0.0226
vn 0.0268 -0.9994 -0.0224
vn 0.0779 -0.9965 -0.0316
vn 0.1120 -0.9931 -0.0339
vn 0.1119 -0.9935 -0.0220
vn 0.0787 -0.9966 -0.0225
vn -0.0325 -0.9994 -0.0104
vn -0.0029 -0.9999 -0.0116
vn -0.0009 -0.9999 0.0109
vn -0.0291 -0.9996 0.0066
vn -0.0682 -0.9976 -0.0064
vn -0.0693 -0.9976 0.0084
vn 0.0198 -0.9997 -0.0139
vn 0.0236 -0.9996 -0.0155
vn 0.0228 -0.9996 0.0188
vn 0.0188 -0.9997 0.0168
vn 0.0274 -0.9995 -0.0149
vn 0.0499 -0.9987 -0.0137
vn 0.0466 -0.9989 0.0084
vn 0.0269 -0.9995 0.0156
vn 0.0785 -0.9968 -0.0137
vn 0.1133 -0.9935 -0.0106
vn 0.1138 -0.9935 0.0033
vn 0.0742 -0.9972 0.0025
vn -0.0208 -0.9992 0.0336
vn 0.0033 -0.9991 0.0422
vn 0.0014 -0.9964 0.0848
vn -0.0210 -0.9964 0.0817
vn -0.0666 -0.9972 0.0336
vn -0.0607 -0.9953 0.0753
vn 0.0180 -0.9989 0.0426
vn 0.0224 -0.9989 0.0403
vn 0.0217 -0.9964 0.0825
vn 0.0129 -0.9964 0.0841
vn 0.0267 -0.9988 0.0414
vn 0.0411 -0.9984 0.0393
vn 0.0418 -0.9958 0.0820
vn 0.0304 -0.9961 0.0826
vn 0.0651 -0.9974 0.0293
vn 0.1104 -0.9935 0.0279
vn 0.1037 -0.9922 0.0696
vn 0.0642 -0.9949 0.0774
vn 0.1257 -0.9680 -0.2174
vn 0.1138 -0.9697 -0.2164
vn 0.0739 -0.9750 -0.2095
vn 0.0846 -0.9732 -0.2138
vn 0.1730 -0.9656 -0.1943
vn 0.1689 -0.9673 -0.1891
vn 0.1956 -0.9702 -0.1429
vn 0.1932 -0.9768 -0.0928
vn 0.1870 -0.9791 -0.0806
vn 0.1939 -0.9725 -0.1290
vn 0.1876 -0.9808 -0.0540
vn 0.1863 -0.9823 -0.0204
vn 0.1765 -0.9841 -0.0208
vn 0.1784 -0.9828 -0.0483
vn 0.1897 -0.9818 0.0125
vn 0.1807 -0.9835 0.0062
vn 0.1975 -0.9791 0.0489
vn 0.1912 -0.9809 0.0366
vn 0.2018 -0.9746 0.0968
vn 0.1997 -0.9763 0.0830
vn 0.1798 -0.9725 0.1480
vn 0.1751 -0.9741 0.1429
vn 0.1306 -0.9765 0.1717
vn 0.0849 -0.9820 0.1686
vn 0.0738 -0.9837 0.1638
vn 0.1181 -0.9783 0.1704
vn 0.0507 -0.9855 0.1622
vn 0.0177 -0.9868 0.1610
vn 0.0206 -0.9880 0.1528
vn 0.0456 -0.9869 0.1550
vn -0.0082 -0.9864 0.1639
vn -0.0043 -0.9876 0.1569
vn -0.0444 -0.9841 0.1719
vn -0.0329 -0.9853 0.1676
vn -0.0898 -0.9802 0.1767
vn -0.0776 -0.9813 0.1763
vn -0.1384 -0.9782 0.1550
vn -0.1348 -0.9793 0.1510
vn -0.1597 -0.9816 0.1050
vn -0.1548 -0.9864 0.0561
vn -0.1494 -0.9878 0.0436
vn -0.1589 -0.9830 0.0915
vn -0.1466 -0.9890 0.0179
vn -0.1428 -0.9896 -0.0166
vn -0.1330 -0.9910 -0.0172
vn -0.1380 -0.9904 0.0114
vn -0.1443 -0.9882 -0.0515
vn -0.1353 -0.9897 -0.0457
vn -0.1502 -0.9845 -0.0902
vn -0.1440 -0.9865 -0.0781
vn -0.1528 -0.9783 -0.1398
vn -0.1509 -0.9805 -0.1261
vn -0.1293 -0.9731 -0.1906
vn -0.1245 -0.9748 -0.1853
vn -0.0788 -0.9738 -0.2133
vn -0.0317 -0.9771 -0.2105
vn -0.0209 -0.9785 -0.2053
vn -0.0661 -0.9751 -0.2116
vn 0.0023 -0.9788 -0.2046
vn 0.0295 -0.9787 -0.2032
vn 0.0288 -0.9802 -0.1958
vn 0.0069 -0.9803 -0.1974
vn 0.0554 -0.9769 -0.2064
vn 0.0499 -0.9786 -0.1998
vn 0.0874 -0.9785 -0.1867
vn 0.0566 -0.9817 -0.1816
vn 0.1413 -0.9770 -0.1600
vn 0.1657 -0.9810 -0.1009
vn 0.1605 -0.9850 -0.0629
vn 0.1537 -0.9873 -0.0407
vn 0.1520 -0.9882 -0.0214
vn 0.1556 -0.9878 -0.0026
vn 0.1641 -0.9863 0.0181
vn 0.1706 -0.9838 0.0545
vn 0.1464 -0.9827 0.1133
vn 0.0905 -0.9860 0.1401
vn 0.0562 -0.9892 0.1353
vn 0.0377 -0.9910 0.1282
vn 0.0211 -0.9918 0.1263
vn 0.0045 -0.9915 0.1298
vn -0.0142 -0.9903 0.1386
vn -0.0488 -0.9882 0.1453
vn -0.1051 -0.9871 0.1205
vn -0.1286 -0.9898 0.0619
vn -0.1211 -0.9923 0.0242
vn -0.1119 -0.9937 0.0022
vn -0.1078 -0.9940 -0.0178
vn -0.1094 -0.9933 -0.0379
vn -0.1163 -0.9914 -0.0601
vn -0.1214 -0.9878 -0.0980
vn -0.0957 -0.9831 -0.1561
vn -0.0385 -0.9826 -0.1817
vn -0.0039 -0.9842 -0.1772
vn 0.0138 -0.9851 -0.1712
vn 0.0280 -0.9850 -0.1700
vn 0.0414 -0.9839 -0.1737
vn -0.4464 -0.0000 0.8948
vn -0.5539 -0.0061 0.8326
vn -0.7071 -0.0061 0.7071
vn -0.4473 -0.0104 0.8943
vn -0.8307 -0.0061 0.5567
vn -0.9239 -0.0060 0.3827
vn -0.9753 -0.0000 0.2210
vn -0.9726 -0.0082 0.2324
vn -0.9992 -0.0083 -0.0391
vn -0.9919 -0.0102 -0.1264
vn -0.9054 -0.0202 -0.4241
vn -0.8595 -0.0000 -0.5112
vn -0.6560 -0.0000 -0.7548
vn -0.6560 -0.0000 -0.7547
vn -0.8141 -0.0098 -0.5807
vn -0.7005 -0.0069 -0.7136
vn -0.5555 -0.0064 -0.8315
vn -0.3827 -0.0064 -0.9239
vn -0.1951 -0.0064 -0.9808
vn -0.0000 -0.0064 -1.0000
vn 0.3212 -0.0000 -0.9470
vn 0.3213 -0.0000 -0.9470
vn 0.1265 -0.0111 -0.9919
vn 0.4430 -0.0131 -0.8964
vn 0.6112 -0.0000 -0.7914
vn 0.6112 -0.0000 -0.7915
vn 0.6560 -0.0000 -0.7548
vn 0.5631 -0.0072 -0.8264
vn 0.6788 -0.0092 -0.7343
vn 0.8655 -0.0000 -0.5009
vn 0.8840 -0.0000 -0.4676
vn 0.9107 -0.0000 -0.4130
vn 0.8061 -0.0217 -0.5914
vn 0.9229 -0.0386 -0.3831
vn 0.9836 -0.0000 -0.1805
vn 0.9943 -0.0000 -0.1065
vn 0.9881 -0.0210 -0.1524
vn 0.9992 -0.0088 0.0391
vn 0.9918 -0.0000 0.1275
vn 0.9021 -0.0000 0.4315
vn 0.9875 -0.0087 0.1572
vn 0.9238 -0.0145 0.3825
vn 0.8096 -0.0088 0.5870
vn 0.7071 -0.0063 0.7071
vn 0.5552 -0.0000 0.8317
vn 0.3900 -0.0000 0.9208
vn 0.5556 -0.0062 0.8314
vn 0.4475 -0.0106 0.8942
vn 0.1948 -0.0000 0.9809
vn 0.0656 -0.0000 0.9978
vn 0.1957 -0.0368 0.9800
vn -0.0445 -0.0200 0.9988
vn -0.1951 -0.0000 0.9808
vn -0.1515 -0.0201 0.9883
vt 0.971602 0.162100
vt 0.973670 0.163258
vt 0.973511 0.163644
vt 0.971364 0.162446
vt 0.969791 0.160557
vt 0.969504 0.160863
vt 0.970207 0.160161
vt 0.971908 0.161605
vt 0.973867 0.162684
vt 0.968327 0.158696
vt 0.967980 0.158924
vt 0.967248 0.156579
vt 0.966862 0.156727
vt 0.967822 0.156401
vt 0.968831 0.158400
vt 0.966605 0.154303
vt 0.966209 0.154373
vt 0.966427 0.151939
vt 0.966011 0.151929
vt 0.967060 0.151958
vt 0.967228 0.154224
vt 0.966704 0.149584
vt 0.966298 0.149495
vt 0.967436 0.147338
vt 0.967060 0.147160
vt 0.968010 0.147565
vt 0.967317 0.149722
vt 0.968594 0.145270
vt 0.968257 0.145012
vt 0.970137 0.143459
vt 0.969850 0.143142
vt 0.970533 0.143894
vt 0.969088 0.145606
vt 0.971997 0.141985
vt 0.971780 0.141619
vt 0.974115 0.140906
vt 0.973966 0.140501
vt 0.974283 0.141510
vt 0.972284 0.142519
vt 0.976390 0.140263
vt 0.976331 0.139838
vt 0.978755 0.140075
vt 0.978775 0.139640
vt 0.978736 0.140728
vt 0.976460 0.140906
vt 0.981120 0.140342
vt 0.981209 0.139927
vt 0.983366 0.141084
vt 0.983544 0.140679
vt 0.983149 0.141688
vt 0.980982 0.140995
vt 0.985434 0.142242
vt 0.985691 0.141876
vt 0.987245 0.143786
vt 0.987552 0.143469
vt 0.986809 0.144211
vt 0.985108 0.142766
vt 0.988709 0.145656
vt 0.989065 0.145408
vt 0.989778 0.147763
vt 0.990173 0.147595
vt 0.989174 0.147971
vt 0.988175 0.145962
vt 0.990421 0.150039
vt 0.990846 0.149960
vt 0.990599 0.152404
vt 0.991034 0.152404
vt 0.989946 0.152404
vt 0.989778 0.150138
vt 0.990332 0.154758
vt 0.990747 0.154838
vt 0.989600 0.157014
vt 0.989995 0.157173
vt 0.989006 0.156807
vt 0.989679 0.154650
vt 0.988442 0.159072
vt 0.988798 0.159320
vt 0.986898 0.160883
vt 0.987205 0.161190
vt 0.986483 0.160468
vt 0.987927 0.158756
vt 0.985038 0.162357
vt 0.985276 0.162704
vt 0.982931 0.163446
vt 0.983079 0.163822
vt 0.982733 0.162852
vt 0.984731 0.161843
vt 0.980645 0.164089
vt 0.980724 0.164495
vt 0.978280 0.164267
vt 0.978280 0.164683
vt 0.978290 0.163634
vt 0.980546 0.163456
vt 0.975926 0.164000
vt 0.975846 0.164406
vt 0.976034 0.163377
vt 0.577838 0.116827
vt 0.577857 0.122387
vt 0.575399 0.122366
vt 0.575380 0.116819
vt 0.577810 0.108761
vt 0.575352 0.108764
vt 0.580269 0.108757
vt 0.580297 0.116833
vt 0.580316 0.122403
vt 0.582755 0.116837
vt 0.582774 0.122416
vt 0.582727 0.108752
vt 0.585186 0.108745
vt 0.585213 0.116835
vt 0.585232 0.122418
vt 0.587672 0.116824
vt 0.587691 0.122404
vt 0.587644 0.108736
vt 0.590102 0.108723
vt 0.590130 0.116801
vt 0.590149 0.122371
vt 0.592588 0.116764
vt 0.592607 0.122315
vt 0.592561 0.108706
vt 0.595019 0.108686
vt 0.595046 0.116716
vt 0.595065 0.122240
vt 0.597505 0.116659
vt 0.597523 0.122148
vt 0.597477 0.108663
vt 0.599936 0.108638
vt 0.599963 0.116597
vt 0.599982 0.122048
vt 0.602421 0.116535
vt 0.602440 0.121948
vt 0.602395 0.108614
vt 0.604853 0.108590
vt 0.604880 0.116474
vt 0.604898 0.121851
vt 0.607338 0.116416
vt 0.607356 0.121758
vt 0.607311 0.108566
vt 0.609770 0.108545
vt 0.609796 0.116364
vt 0.609814 0.121676
vt 0.533586 0.116595
vt 0.533604 0.121885
vt 0.531146 0.121947
vt 0.531127 0.116635
vt 0.533559 0.108798
vt 0.531100 0.108816
vt 0.536017 0.108784
vt 0.536044 0.116569
vt 0.536062 0.121847
vt 0.538502 0.116560
vt 0.538520 0.121838
vt 0.538475 0.108775
vt 0.540933 0.108771
vt 0.540960 0.116564
vt 0.540979 0.121851
vt 0.543419 0.116577
vt 0.543437 0.121879
vt 0.543392 0.108768
vt 0.545850 0.108768
vt 0.545877 0.116595
vt 0.545896 0.121915
vt 0.548336 0.116613
vt 0.548354 0.121951
vt 0.548309 0.108767
vt 0.550767 0.108766
vt 0.550794 0.116630
vt 0.550813 0.121987
vt 0.553253 0.116647
vt 0.553272 0.122021
vt 0.553226 0.108766
vt 0.555684 0.108765
vt 0.555711 0.116664
vt 0.555730 0.122057
vt 0.558170 0.116684
vt 0.558189 0.122096
vt 0.558143 0.108765
vt 0.560601 0.108765
vt 0.560629 0.116705
vt 0.560647 0.122137
vt 0.563087 0.116727
vt 0.563106 0.122181
vt 0.563060 0.108766
vt 0.565518 0.108767
vt 0.565546 0.116750
vt 0.565565 0.122226
vt 0.568004 0.116772
vt 0.568023 0.122270
vt 0.567977 0.108768
vt 0.570435 0.108768
vt 0.570463 0.116792
vt 0.570482 0.122310
vt 0.572921 0.116807
vt 0.572940 0.122341
vt 0.572894 0.108766
vt 0.973393 0.146991
vt 0.974976 0.146883
vt 0.974906 0.148604
vt 0.973205 0.148594
vt 0.972087 0.147001
vt 0.971720 0.148515
vt 0.972492 0.146022
vt 0.973462 0.145666
vt 0.974985 0.145369
vt 0.976727 0.146803
vt 0.978538 0.146784
vt 0.978478 0.148624
vt 0.976678 0.148604
vt 0.976737 0.145181
vt 0.978597 0.145131
vt 0.980348 0.146873
vt 0.982090 0.147011
vt 0.982080 0.148753
vt 0.980299 0.148683
vt 0.980437 0.145250
vt 0.982189 0.145507
vt 0.983712 0.147199
vt 0.985048 0.147249
vt 0.985335 0.148782
vt 0.983821 0.148802
vt 0.983712 0.145854
vt 0.984692 0.146259
vt 0.973046 0.150336
vt 0.974827 0.150385
vt 0.974768 0.152196
vt 0.972947 0.152136
vt 0.971463 0.150256
vt 0.971325 0.152087
vt 0.976628 0.150425
vt 0.978439 0.150454
vt 0.978399 0.152275
vt 0.976589 0.152245
vt 0.980259 0.150494
vt 0.982080 0.150534
vt 0.982060 0.152334
vt 0.980230 0.152315
vt 0.983900 0.150543
vt 0.985523 0.150524
vt 0.985573 0.152374
vt 0.983910 0.152354
vt 0.972977 0.153947
vt 0.974758 0.153997
vt 0.974778 0.155768
vt 0.973066 0.155679
vt 0.971384 0.153937
vt 0.971582 0.155669
vt 0.976569 0.154046
vt 0.978370 0.154086
vt 0.978350 0.155906
vt 0.976549 0.155847
vt 0.980190 0.154115
vt 0.982011 0.154135
vt 0.981941 0.155906
vt 0.980160 0.155916
vt 0.983831 0.154155
vt 0.985444 0.154204
vt 0.985197 0.155946
vt 0.983683 0.155896
vt 0.973195 0.157282
vt 0.974788 0.157470
vt 0.974738 0.158954
vt 0.973224 0.158588
vt 0.971879 0.157193
vt 0.972255 0.158172
vt 0.976529 0.157618
vt 0.978330 0.157707
vt 0.978310 0.159340
vt 0.976470 0.159211
vt 0.980150 0.157697
vt 0.981892 0.157598
vt 0.981912 0.159082
vt 0.980170 0.159280
vt 0.983505 0.157479
vt 0.984840 0.157450
vt 0.984435 0.158410
vt 0.983445 0.158776
vt 0.984741 0.143449
vt 0.984346 0.144201
vt 0.982634 0.143459
vt 0.982891 0.142509
vt 0.986295 0.144716
vt 0.985741 0.145250
vt 0.987492 0.146319
vt 0.988343 0.148189
vt 0.987403 0.148406
vt 0.986740 0.146685
vt 0.988858 0.150247
vt 0.989006 0.152394
vt 0.987927 0.152384
vt 0.987809 0.150346
vt 0.988778 0.154531
vt 0.987729 0.154422
vt 0.988175 0.156569
vt 0.987245 0.156342
vt 0.987255 0.158410
vt 0.986503 0.158034
vt 0.985988 0.159963
vt 0.985444 0.159429
vt 0.984385 0.161170
vt 0.982505 0.162031
vt 0.982288 0.161101
vt 0.984009 0.160428
vt 0.980447 0.162555
vt 0.978290 0.162704
vt 0.978300 0.161635
vt 0.980348 0.161516
vt 0.976143 0.162476
vt 0.976262 0.161437
vt 0.974105 0.161873
vt 0.974342 0.160952
vt 0.972265 0.160943
vt 0.972641 0.160200
vt 0.970711 0.159666
vt 0.971255 0.159142
vt 0.969504 0.158063
vt 0.968643 0.156193
vt 0.969573 0.155995
vt 0.970246 0.157717
vt 0.968129 0.154135
vt 0.967980 0.151988
vt 0.969039 0.152018
vt 0.969158 0.154056
vt 0.968208 0.149851
vt 0.969237 0.149989
vt 0.968811 0.147813
vt 0.969722 0.148070
vt 0.969741 0.145982
vt 0.970474 0.146378
vt 0.971008 0.144419
vt 0.971523 0.144983
vt 0.972611 0.143222
vt 0.974471 0.142351
vt 0.974679 0.143311
vt 0.972947 0.143983
vt 0.976549 0.141836
vt 0.978706 0.141688
vt 0.978666 0.142776
vt 0.976618 0.142895
vt 0.980853 0.141916
vt 0.980704 0.142964
vt 0.983960 0.144923
vt 0.982377 0.144389
vt 0.985206 0.145764
vt 0.985988 0.147031
vt 0.986463 0.148624
vt 0.986770 0.150445
vt 0.986849 0.152384
vt 0.986691 0.154313
vt 0.986315 0.156104
vt 0.985771 0.157677
vt 0.984929 0.158904
vt 0.983663 0.159696
vt 0.982060 0.160181
vt 0.980249 0.160497
vt 0.978310 0.160576
vt 0.976371 0.160418
vt 0.974570 0.160042
vt 0.973007 0.159498
vt 0.971770 0.158647
vt 0.970978 0.157390
vt 0.970493 0.155807
vt 0.970177 0.153987
vt 0.970088 0.152057
vt 0.970256 0.150128
vt 0.970632 0.148327
vt 0.971176 0.146754
vt 0.972027 0.145517
vt 0.973284 0.144735
vt 0.974867 0.144251
vt 0.976697 0.143944
vt 0.978637 0.143855
vt 0.980556 0.144013
vt 0.577800 0.105758
vt 0.575342 0.105765
vt 0.577799 0.105286
vt 0.575340 0.105295
vt 0.580257 0.105278
vt 0.580259 0.105750
vt 0.577868 0.125390
vt 0.580326 0.125410
vt 0.971147 0.162773
vt 0.969217 0.161130
vt 0.973353 0.164010
vt 0.575409 0.125365
vt 0.582717 0.105742
vt 0.582715 0.105269
vt 0.585174 0.105261
vt 0.585175 0.105734
vt 0.582784 0.125426
vt 0.585243 0.125430
vt 0.967654 0.159142
vt 0.966506 0.156886
vt 0.587634 0.105725
vt 0.587632 0.105253
vt 0.590091 0.105244
vt 0.590092 0.105716
vt 0.587701 0.125415
vt 0.590159 0.125378
vt 0.965814 0.154442
vt 0.965616 0.151919
vt 0.592550 0.105707
vt 0.592549 0.105236
vt 0.595007 0.105228
vt 0.595009 0.105697
vt 0.592617 0.125315
vt 0.595075 0.125229
vt 0.965922 0.149396
vt 0.966704 0.146981
vt 0.597467 0.105686
vt 0.597466 0.105219
vt 0.599924 0.105211
vt 0.599926 0.105676
vt 0.597534 0.125125
vt 0.599992 0.125011
vt 0.967951 0.144775
vt 0.969593 0.142836
vt 0.602385 0.105665
vt 0.602383 0.105203
vt 0.604841 0.105194
vt 0.604843 0.105655
vt 0.602450 0.124897
vt 0.604908 0.124786
vt 0.971592 0.141272
vt 0.973838 0.140135
vt 0.607301 0.105644
vt 0.607300 0.105186
vt 0.609758 0.105177
vt 0.609760 0.105634
vt 0.607366 0.124680
vt 0.609824 0.124587
vt 0.976282 0.139442
vt 0.978795 0.139244
vt 0.533548 0.105895
vt 0.531090 0.105905
vt 0.533547 0.105440
vt 0.531089 0.105448
vt 0.536005 0.105431
vt 0.536007 0.105886
vt 0.533614 0.124788
vt 0.536072 0.124746
vt 0.981298 0.139551
vt 0.983703 0.140323
vt 0.531156 0.124858
vt 0.538465 0.105877
vt 0.538463 0.105422
vt 0.540922 0.105414
vt 0.540923 0.105869
vt 0.538530 0.124736
vt 0.540989 0.124752
vt 0.985909 0.141559
vt 0.987829 0.143202
vt 0.543382 0.105861
vt 0.543380 0.105405
vt 0.545838 0.105397
vt 0.545840 0.105854
vt 0.543447 0.124786
vt 0.545906 0.124829
vt 0.989392 0.145191
vt 0.990540 0.147437
vt 0.548299 0.105846
vt 0.548297 0.105388
vt 0.550755 0.105380
vt 0.550757 0.105839
vt 0.548365 0.124872
vt 0.550823 0.124914
vt 0.991222 0.149881
vt 0.991430 0.152404
vt 0.553215 0.105832
vt 0.553214 0.105371
vt 0.555672 0.105363
vt 0.555674 0.105824
vt 0.553282 0.124955
vt 0.555740 0.124998
vt 0.991133 0.154917
vt 0.990361 0.157331
vt 0.558132 0.105817
vt 0.558131 0.105354
vt 0.560589 0.105346
vt 0.560591 0.105809
vt 0.558199 0.125044
vt 0.560658 0.125093
vt 0.989125 0.159537
vt 0.987482 0.161467
vt 0.563049 0.105802
vt 0.563048 0.105337
vt 0.565506 0.105329
vt 0.565508 0.105795
vt 0.563116 0.125145
vt 0.565575 0.125198
vt 0.985493 0.163040
vt 0.983247 0.164188
vt 0.567966 0.105788
vt 0.567965 0.105320
vt 0.570423 0.105312
vt 0.570425 0.105780
vt 0.568033 0.125250
vt 0.570492 0.125297
vt 0.980804 0.164880
vt 0.978280 0.165078
vt 0.572883 0.105773
vt 0.572882 0.105303
vt 0.572951 0.125335
vt 0.975767 0.164782
s 1
f 122/1/1 234/2/2 74/3/3 268/4/4
f 236/5/5 122/1/1 268/4/4 75/6/6
f 122/1/1 236/5/5 2/7/7 235/8/8
f 234/2/2 122/1/1 235/8/8 1/9/9
f 123/10/10 236/5/5 75/6/6 270/11/11
f 238/12/12 123/10/10 270/11/11 76/13/13
f 123/10/10 238/12/12 3/14/14 237/15/15
f 236/5/5 123/10/10 237/15/15 2/7/7
f 124/16/16 238/12/12 76/13/13 272/17/17
f 240/18/18 124/16/16 272/17/17 77/19/19
f 124/16/16 240/18/18 4/20/20 239/21/21
f 238/12/12 124/16/16 239/21/21 3/14/14
f 125/22/22 240/18/18 77/19/19 274/23/23
f 242/24/24 125/22/22 274/23/23 78/25/25
f 125/22/22 242/24/24 5/26/26 241/27/27
f 240/18/18 125/22/22 241/27/27 4/20/20
f 126/28/28 242/24/24 78/25/25 276/29/29
f 244/30/30 126/28/28 276/29/29 79/31/31
f 126/28/28 244/30/30 6/32/32 243/33/33
f 242/24/24 126/28/28 243/33/33 5/26/26
f 127/34/34 244/30/30 79/31/31 278/35/35
f 246/36/36 127/34/34 278/35/35 80/37/37
f 127/34/34 246/36/36 7/38/38 245/39/39
f 244/30/30 127/34/34 245/39/39 6/32/32
f 128/40/40 246/36/36 80/37/37 280/41/41
f 248/42/42 128/40/40 280/41/41 81/43/43
f 128/40/40 248/42/42 8/44/44 247/45/45
f 246/36/36 128/40/40 247/45/45 7/38/38
f 129/46/46 248/42/42 81/43/43 282/47/47
f 250/48/48 129/46/46 282/47/47 82/49/49
f 129/46/46 250/48/48 9/50/50 249/51/51
f 248/42/42 129/46/46 249/51/51 8/44/44
f 130/52/52 250/48/48 82/49/49 284/53/53
f 252/54/54 130/52/52 284/53/53 83/55/55
f 130/52/52 252/54/54 10/56/56 251/57/57
f 250/48/48 130/52/52 251/57/57 9/50/50
f 131/58/58 252/54/54 83/55/55 285/59/59
f 254/60/60 131/58/58 285/59/59 84/61/61
f 131/58/58 254/60/60 11/62/62 253/63/63
f 252/54/54 131/58/58 253/63/63 10/56/56
f 132/64/64 254/60/60 84/61/61 287/65/65
f 256/66/66 132/64/64 287/65/65 85/67/67
f 132/64/64 256/66/66 12/68/68 255/69/69
f 254/60/60 132/64/64 255/69/69 11/62/62
f 133/70/70 256/66/66 85/67/67 289/71/71
f 258/72/72 133/70/70 289/71/71 86/73/73
f 133/70/70 258/72/72 13/74/74 257/75/75
f 256/66/66 133/70/70 257/75/75 12/68/68
f 134/76/76 258/72/72 86/73/73 291/77/77
f 260/78/78 134/76/76 291/77/77 87/79/79
f 134/76/76 260/78/78 14/80/80 259/81/81
f 258/72/72 134/76/76 259/81/81 13/74/74
f 135/82/82 260/78/78 87/79/79 293/83/83
f 262/84/84 135/82/82 293/83/83 88/85/85
f 135/82/82 262/84/84 15/86/86 261/87/87
f 260/78/78 135/82/82 261/87/87 14/80/80
f 136/88/88 262/84/84 88/85/85 295/89/89
f 264/90/90 136/88/88 295/89/89 89/91/91
f 136/88/88 264/90/90 16/92/92 263/93/93
f 262/84/84 136/88/88 263/93/93 15/86/86
f 137/94/94 264/90/90 89/91/91 297/95/95
f 234/2/2 137/94/94 297/95/95 74/3/3
f 137/94/94 234/2/2 1/9/9 265/96/96
f 264/90/90 137/94/94 265/96/96 16/92/92
f 138/97/97 435/98/97 92/99/98 404/100/99
f 434/101/97 138/97/97 404/100/99 93/102/100
f 138/97/97 434/101/97 90/103/101 402/104/101
f 435/98/97 138/97/97 402/104/101 91/105/101
f 139/106/102 437/107/102 91/105/101 402/104/101
f 436/108/102 139/106/102 402/104/101 90/103/101
f 139/106/102 436/108/102 94/109/103 406/110/103
f 437/107/102 139/106/102 406/110/103 95/111/103
f 140/112/104 439/113/105 95/111/103 406/110/103
f 438/114/106 140/112/104 406/110/103 94/109/103
f 140/112/104 438/114/106 96/115/107 408/116/108
f 439/113/105 140/112/104 408/116/108 97/117/109
f 141/118/110 441/119/111 97/117/109 408/116/108
f 440/120/110 141/118/110 408/116/108 96/115/107
f 141/118/110 440/120/110 98/121/112 410/122/113
f 441/119/111 141/118/110 410/122/113 99/123/114
f 142/124/115 443/125/116 99/123/114 410/122/113
f 442/126/117 142/124/115 410/122/113 98/121/112
f 142/124/115 442/126/117 100/127/118 412/128/119
f 443/125/116 142/124/115 412/128/119 101/129/119
f 143/130/120 445/131/121 101/129/119 412/128/119
f 444/132/121 143/130/120 412/128/119 100/127/118
f 143/130/120 444/132/121 102/133/122 414/134/123
f 445/131/121 143/130/120 414/134/123 103/135/124
f 144/136/125 447/137/125 103/135/124 414/134/123
f 446/138/126 144/136/125 414/134/123 102/133/122
f 144/136/125 446/138/126 104/139/127 416/140/127
f 447/137/125 144/136/125 416/140/127 105/141/127
f 145/142/128 449/143/129 105/144/127 416/145/127
f 448/146/128 145/142/128 416/145/127 104/147/127
f 145/142/128 448/146/128 106/148/130 418/149/131
f 449/143/129 145/142/128 418/149/131 107/150/132
f 146/151/133 451/152/133 107/150/132 418/149/131
f 450/153/134 146/151/133 418/149/131 106/148/130
f 146/151/133 450/153/134 108/154/135 420/155/136
f 451/152/133 146/151/133 420/155/136 109/156/137
f 147/157/138 453/158/139 109/156/137 420/155/136
f 452/159/140 147/157/138 420/155/136 108/154/135
f 147/157/138 452/159/140 110/160/141 422/161/141
f 453/158/139 147/157/138 422/161/141 111/162/142
f 148/163/143 455/164/144 111/162/142 422/161/141
f 454/165/145 148/163/143 422/161/141 110/160/141
f 148/163/143 454/165/145 112/166/146 424/167/147
f 455/164/144 148/163/143 424/167/147 113/168/148
f 149/169/149 457/170/150 113/168/148 424/167/147
f 456/171/151 149/169/149 424/167/147 112/166/146
f 149/169/149 456/171/151 114/172/152 426/173/153
f 457/170/150 149/169/149 426/173/153 115/174/154
f 150/175/155 459/176/156 115/174/154 426/173/153
f 458/177/157 150/175/155 426/173/153 114/172/152
f 150/175/155 458/177/157 116/178/158 428/179/158
f 459/176/156 150/175/155 428/179/158 117/180/159
f 151/181/160 461/182/161 117/180/159 428/179/158
f 460/183/161 151/181/160 428/179/158 116/178/158
f 151/181/160 460/183/161 118/184/162 430/185/163
f 461/182/161 151/181/160 430/185/163 119/186/164
f 152/187/165 463/188/165 119/186/164 430/185/163
f 462/189/165 152/187/165 430/185/163 118/184/162
f 152/187/165 462/189/165 120/190/166 432/191/167
f 463/188/165 152/187/165 432/191/167 121/192/168
f 153/193/169 465/194/170 121/192/168 432/191/167
f 464/195/171 153/193/169 432/191/167 120/190/166
f 153/193/169 464/195/171 93/102/100 404/100/99
f 465/194/170 153/193/169 404/100/99 92/99/98
f 154/196/172 298/197/173 39/198/174 301/199/175
f 300/200/176 154/196/172 301/199/175 38/201/177
f 154/196/172 300/200/176 33/202/178 299/203/179
f 298/197/173 154/196/172 299/203/179 34/204/180
f 155/205/181 302/206/182 40/207/183 304/208/184
f 298/197/173 155/205/181 304/208/184 39/198/174
f 155/205/181 298/197/173 34/204/180 303/209/185
f 302/206/182 155/205/181 303/209/185 35/210/186
f 156/211/187 305/212/188 41/213/189 307/214/190
f 302/206/182 156/211/187 307/214/190 40/207/183
f 156/211/187 302/206/182 35/210/186 306/215/191
f 305/212/188 156/211/187 306/215/191 36/216/192
f 157/217/193 308/218/194 42/219/195 310/220/196
f 305/212/188 157/217/193 310/220/196 41/213/189
f 157/217/193 305/212/188 36/216/192 309/221/197
f 308/218/194 157/217/193 309/221/197 37/222/198
f 158/223/199 311/224/200 44/225/201 313/226/202
f 312/227/203 158/223/199 313/226/202 43/228/204
f 158/223/199 312/227/203 38/201/177 301/199/175
f 311/224/200 158/223/199 301/199/175 39/198/174
f 159/229/205 314/230/206 45/231/207 315/232/208
f 311/224/200 159/229/205 315/232/208 44/225/201
f 159/229/205 311/224/200 39/198/174 304/208/184
f 314/230/206 159/229/205 304/208/184 40/207/183
f 160/233/209 316/234/210 46/235/211 317/236/212
f 314/230/206 160/233/209 317/236/212 45/231/207
f 160/233/209 314/230/206 40/207/183 307/214/190
f 316/234/210 160/233/209 307/214/190 41/213/189
f 161/237/213 318/238/214 47/239/215 319/240/216
f 316/234/210 161/237/213 319/240/216 46/235/211
f 161/237/213 316/234/210 41/213/189 310/220/196
f 318/238/214 161/237/213 310/220/196 42/219/195
f 162/241/217 320/242/218 49/243/219 322/244/220
f 321/245/221 162/241/217 322/244/220 48/246/222
f 162/241/217 321/245/221 43/228/204 313/226/202
f 320/242/218 162/241/217 313/226/202 44/225/201
f 163/247/223 323/248/224 50/249/225 324/250/226
f 320/242/218 163/247/223 324/250/226 49/243/219
f 163/247/223 320/242/218 44/225/201 315/232/208
f 323/248/224 163/247/223 315/232/208 45/231/207
f 164/251/227 325/252/228 51/253/229 326/254/230
f 323/248/224 164/251/227 326/254/230 50/249/225
f 164/251/227 323/248/224 45/231/207 317/236/212
f 325/252/228 164/251/227 317/236/212 46/235/211
f 165/255/231 327/256/232 52/257/233 328/258/234
f 325/252/228 165/255/231 328/258/234 51/253/229
f 165/255/231 325/252/228 46/235/211 319/240/216
f 327/256/232 165/255/231 319/240/216 47/239/215
f 166/259/235 329/260/236 54/261/237 331/262/238
f 330/263/239 166/259/235 331/262/238 53/264/240
f 166/259/235 330/263/239 48/246/222 322/244/220
f 329/260/236 166/259/235 322/244/220 49/243/219
f 167/265/241 332/266/242 55/267/243 333/268/244
f 329/260/236 167/265/241 333/268/244 54/261/237
f 167/265/241 329/260/236 49/243/219 324/250/226
f 332/266/242 167/265/241 324/250/226 50/249/225
f 168/269/245 334/270/246 56/271/247 335/272/248
f 332/266/242 168/269/245 335/272/248 55/267/243
f 168/269/245 332/266/242 50/249/225 326/254/230
f 334/270/246 168/269/245 326/254/230 51/253/229
f 169/273/249 336/274/250 57/275/251 337/276/252
f 334/270/246 169/273/249 337/276/252 56/271/247
f 169/273/249 334/270/246 51/253/229 328/258/234
f 336/274/250 169/273/249 328/258/234 52/257/233
f 170/277/253 338/278/254 58/279/255 340/280/256
f 251/57/57 170/277/253 340/280/256 9/50/50
f 170/277/253 251/57/57 10/56/56 339/281/257
f 338/278/254 170/277/253 339/281/257 59/282/258
f 171/283/259 341/284/260 60/285/261 342/286/262
f 339/281/257 171/283/259 342/286/262 59/282/258
f 171/283/259 339/281/257 10/56/56 253/63/63
f 341/284/260 171/283/259 253/63/63 11/62/62
f 172/287/263 343/288/264 61/289/265 344/290/266
f 341/284/260 172/287/263 344/290/266 60/285/261
f 172/287/263 341/284/260 11/62/62 255/69/69
f 343/288/264 172/287/263 255/69/69 12/68/68
f 173/291/267 345/292/268 61/289/265 343/288/264
f 257/75/75 173/291/267 343/288/264 12/68/68
f 173/291/267 257/75/75 13/74/74 346/293/269
f 345/292/268 173/291/267 346/293/269 62/294/270
f 174/295/271 347/296/272 62/294/270 346/293/269
f 259/81/81 174/295/271 346/293/269 13/74/74
f 174/295/271 259/81/81 14/80/80 348/297/273
f 347/296/272 174/295/271 348/297/273 63/298/274
f 175/299/275 349/300/276 64/301/277 350/302/278
f 348/297/273 175/299/275 350/302/278 63/298/274
f 175/299/275 348/297/273 14/80/80 261/87/87
f 349/300/276 175/299/275 261/87/87 15/86/86
f 176/303/279 351/304/280 65/305/281 352/306/282
f 349/300/276 176/303/279 352/306/282 64/301/277
f 176/303/279 349/300/276 15/86/86 263/93/93
f 351/304/280 176/303/279 263/93/93 16/92/92
f 177/307/283 353/308/284 65/305/281 351/304/280
f 265/96/96 177/307/283 351/304/280 16/92/92
f 177/307/283 265/96/96 1/9/9 354/309/285
f 353/308/284 177/307/283 354/309/285 66/310/286
f 178/311/287 355/312/288 66/310/286 354/309/285
f 235/8/8 178/311/287 354/309/285 1/9/9
f 178/311/287 235/8/8 2/7/7 356/313/289
f 355/312/288 178/311/287 356/313/289 67/314/290
f 179/315/291 357/316/292 68/317/293 358/318/294
f 356/313/289 179/315/291 358/318/294 67/314/290
f 179/315/291 356/313/289 2/7/7 237/15/15
f 357/316/292 179/315/291 237/15/15 3/14/14
f 180/319/295 359/320/296 69/321/297 360/322/298
f 357/316/292 180/319/295 360/322/298 68/317/293
f 180/319/295 357/316/292 3/14/14 239/21/21
f 359/320/296 180/319/295 239/21/21 4/20/20
f 181/323/299 361/324/300 69/321/297 359/320/296
f 241/27/27 181/323/299 359/320/296 4/20/20
f 181/323/299 241/27/27 5/26/26 362/325/301
f 361/324/300 181/323/299 362/325/301 70/326/302
f 182/327/303 363/328/304 70/326/302 362/325/301
f 243/33/33 182/327/303 362/325/301 5/26/26
f 182/327/303 243/33/33 6/32/32 364/329/305
f 363/328/304 182/327/303 364/329/305 71/330/306
f 183/331/307 365/332/308 72/333/309 366/334/310
f 364/329/305 183/331/307 366/334/310 71/330/306
f 183/331/307 364/329/305 6/32/32 245/39/39
f 365/332/308 183/331/307 245/39/39 7/38/38
f 184/335/311 367/336/312 73/337/313 368/338/314
f 365/332/308 184/335/311 368/338/314 72/333/309
f 184/335/311 365/332/308 7/38/38 247/45/45
f 367/336/312 184/335/311 247/45/45 8/44/44
f 185/339/315 369/340/316 73/337/313 367/336/312
f 249/51/51 185/339/315 367/336/312 8/44/44
f 185/339/315 249/51/51 9/50/50 340/280/256
f 369/340/316 185/339/315 340/280/256 58/279/255
f 186/341/317 370/342/318 58/279/255 338/278/254
f 371/343/319 186/341/317 338/278/254 59/282/258
f 186/341/317 371/343/319 37/222/198 309/221/197
f 370/342/318 186/341/317 309/221/197 36/216/192
f 187/344/320 308/218/194 37/222/198 371/343/319
f 342/286/262 187/344/320 371/343/319 59/282/258
f 187/344/320 342/286/262 60/285/261 372/345/321
f 308/218/194 187/344/320 372/345/321 42/219/195
f 188/346/322 372/345/321 60/285/261 344/290/266
f 373/347/323 188/346/322 344/290/266 61/289/265
f 188/346/322 373/347/323 47/239/215 318/238/214
f 372/345/321 188/346/322 318/238/214 42/219/195
f 189/348/324 327/256/232 47/239/215 373/347/323
f 345/292/268 189/348/324 373/347/323 61/289/265
f 189/348/324 345/292/268 62/294/270 374/349/325
f 327/256/232 189/348/324 374/349/325 52/257/233
f 190/350/326 374/349/325 62/294/270 347/296/272
f 375/351/327 190/350/326 347/296/272 63/298/274
f 190/350/326 375/351/327 57/275/251 336/274/250
f 374/349/325 190/350/326 336/274/250 52/257/233
f 191/352/328 337/276/252 57/275/251 375/351/327
f 350/302/278 191/352/328 375/351/327 63/298/274
f 191/352/328 350/302/278 64/301/277 376/353/329
f 337/276/252 191/352/328 376/353/329 56/271/247
f 192/354/330 376/353/329 64/301/277 352/306/282
f 377/355/331 192/354/330 352/306/282 65/305/281
f 192/354/330 377/355/331 55/267/243 335/272/248
f 376/353/329 192/354/330 335/272/248 56/271/247
f 193/356/332 333/268/244 55/267/243 377/355/331
f 353/308/284 193/356/332 377/355/331 65/305/281
f 193/356/332 353/308/284 66/310/286 378/357/333
f 333/268/244 193/356/332 378/357/333 54/261/237
f 194/358/334 378/357/333 66/310/286 355/312/288
f 379/359/335 194/358/334 355/312/288 67/314/290
f 194/358/334 379/359/335 53/264/240 331/262/238
f 378/357/333 194/358/334 331/262/238 54/261/237
f 195/360/336 330/263/239 53/264/240 379/359/335
f 358/318/294 195/360/336 379/359/335 67/314/290
f 195/360/336 358/318/294 68/317/293 380/361/337
f 330/263/239 195/360/336 380/361/337 48/246/222
f 196/362/338 380/361/337 68/317/293 360/322/298
f 381/363/339 196/362/338 360/322/298 69/321/297
f 196/362/338 381/363/339 43/228/204 321/245/221
f 380/361/337 196/362/338 321/245/221 48/246/222
f 197/364/340 381/363/339 69/321/297 361/324/300
f 382/365/341 197/364/340 361/324/300 70/326/302
f 197/364/340 382/365/341 38/201/177 312/227/203
f 381/363/339 197/364/340 312/227/203 43/228/204
f 198/366/342 382/365/341 70/326/302 363/328/304
f 383/367/343 198/366/342 363/328/304 71/330/306
f 198/366/342 383/367/343 33/202/178 300/200/176
f 382/365/341 198/366/342 300/200/176 38/201/177
f 199/368/344 299/203/179 33/202/178 383/367/343
f 366/334/310 199/368/344 383/367/343 71/330/306
f 199/368/344 366/334/310 72/333/309 384/369/345
f 299/203/179 199/368/344 384/369/345 34/204/180
f 200/370/346 384/369/345 72/333/309 368/338/314
f 385/371/347 200/370/346 368/338/314 73/337/313
f 200/370/346 385/371/347 35/210/186 303/209/185
f 384/369/345 200/370/346 303/209/185 34/204/180
f 201/372/348 385/371/347 73/337/313 369/340/316
f 370/342/318 201/372/348 369/340/316 58/279/255
f 201/372/348 370/342/318 36/216/192 306/215/191
f 385/371/347 201/372/348 306/215/191 35/210/186
f 202/373/97 434/101/97 93/102/100 405/374/349
f 386/375/97 202/373/97 405/374/349 17/376/349
f 202/373/97 386/375/97 18/377/101 266/378/101
f 434/101/97 202/373/97 266/378/101 90/103/101
f 203/379/350 435/98/97 91/105/101 403/380/351
f 268/4/4 203/381/350 403/382/351 75/6/6
f 203/381/350 268/4/4 74/3/3 267/383/352
f 435/98/97 203/379/350 267/384/352 92/99/98
f 204/385/102 436/108/102 90/103/101 266/378/101
f 387/386/102 204/385/102 266/378/101 18/377/101
f 204/385/102 387/386/102 19/387/103 269/388/103
f 436/108/102 204/385/102 269/388/103 94/109/103
f 205/389/353 437/107/102 95/111/103 407/390/354
f 270/11/11 205/391/353 407/392/354 76/13/13
f 205/391/353 270/11/11 75/6/6 403/382/351
f 437/107/102 205/389/353 403/380/351 91/105/101
f 206/393/106 438/114/106 94/109/103 269/388/103
f 388/394/355 206/393/106 269/388/103 19/387/103
f 206/393/106 388/394/355 20/395/107 271/396/107
f 438/114/106 206/393/106 271/396/107 96/115/107
f 207/397/356 439/113/105 97/117/109 409/398/357
f 272/17/17 207/399/356 409/400/357 77/19/19
f 207/399/356 272/17/17 76/13/13 407/392/354
f 439/113/105 207/397/356 407/390/354 95/111/103
f 208/401/110 440/120/110 96/115/107 271/396/107
f 389/402/110 208/401/110 271/396/107 20/395/107
f 208/401/110 389/402/110 21/403/112 273/404/112
f 440/120/110 208/401/110 273/404/112 98/121/112
f 209/405/358 441/119/111 99/123/114 411/406/359
f 274/23/23 209/407/358 411/408/359 78/25/25
f 209/407/358 274/23/23 77/19/19 409/400/357
f 441/119/111 209/405/358 409/398/357 97/117/109
f 210/409/360 442/126/117 98/121/112 273/404/112
f 390/410/360 210/409/360 273/404/112 21/403/112
f 210/409/360 390/410/360 22/411/361 275/412/362
f 442/126/117 210/409/360 275/412/362 100/127/118
f 211/413/363 443/125/116 101/129/119 413/414/364
f 276/29/29 211/415/363 413/416/364 79/31/31
f 211/415/363 276/29/29 78/25/25 411/408/359
f 443/125/116 211/413/363 411/406/359 99/123/114
f 212/417/121 444/132/121 100/127/118 275/412/362
f 391/418/120 212/417/121 275/412/362 22/411/361
f 212/417/121 391/418/120 23/419/124 277/420/122
f 444/132/121 212/417/121 277/420/122 102/133/122
f 213/421/365 445/131/121 103/135/124 415/422/366
f 278/35/35 213/423/365 415/424/366 80/37/37
f 213/423/365 278/35/35 79/31/31 413/416/364
f 445/131/121 213/421/365 413/414/364 101/129/119
f 214/425/126 446/138/126 102/133/122 277/420/122
f 392/426/125 214/425/126 277/420/122 23/419/124
f 214/425/126 392/426/125 24/427/127 279/428/127
f 446/138/126 214/425/126 279/428/127 104/139/127
f 215/429/367 447/137/125 105/141/127 417/430/368
f 280/41/41 215/431/367 417/432/368 81/43/43
f 215/431/367 280/41/41 80/37/37 415/424/366
f 447/137/125 215/429/367 415/422/366 103/135/124
f 216/433/128 448/146/128 104/147/127 279/434/127
f 393/435/128 216/433/128 279/434/127 24/436/127
f 216/433/128 393/435/128 25/437/369 281/438/370
f 448/146/128 216/433/128 281/438/370 106/148/130
f 217/439/371 449/143/129 107/150/132 419/440/372
f 282/47/47 217/441/371 419/442/372 82/49/49
f 217/441/371 282/47/47 81/43/43 417/432/368
f 449/143/129 217/439/371 417/443/368 105/144/127
f 218/444/373 450/153/134 106/148/130 281/438/370
f 394/445/374 218/444/373 281/438/370 25/437/369
f 218/444/373 394/445/374 26/446/375 283/447/375
f 450/153/134 218/444/373 283/447/375 108/154/135
f 219/448/376 451/152/133 109/156/137 421/449/377
f 284/53/53 219/450/376 421/451/377 83/55/55
f 219/450/376 284/53/53 82/49/49 419/442/372
f 451/152/133 219/448/376 419/440/372 107/150/132
f 220/452/378 452/159/140 108/154/135 283/447/375
f 395/453/378 220/452/378 283/447/375 26/446/375
f 220/452/378 395/453/378 27/454/379 286/455/380
f 452/159/140 220/452/378 286/455/380 110/160/141
f 221/456/381 453/158/139 111/162/142 423/457/382
f 285/59/59 221/458/381 423/459/382 84/61/61
f 221/458/381 285/59/59 83/55/55 421/451/377
f 453/158/139 221/456/381 421/449/377 109/156/137
f 222/460/383 454/165/145 110/160/141 286/455/380
f 396/461/384 222/460/383 286/455/380 27/454/379
f 222/460/383 396/461/384 28/462/146 288/463/146
f 454/165/145 222/460/383 288/463/146 112/166/146
f 223/464/385 455/164/144 113/168/148 425/465/386
f 287/65/65 223/466/385 425/467/386 85/67/67
f 223/466/385 287/65/65 84/61/61 423/459/382
f 455/164/144 223/464/385 423/457/382 111/162/142
f 224/468/387 456/171/151 112/166/146 288/463/146
f 397/469/387 224/468/387 288/463/146 28/462/146
f 224/468/387 397/469/387 29/470/388 290/471/388
f 456/171/151 224/468/387 290/471/388 114/172/152
f 225/472/389 457/170/150 115/174/154 427/473/390
f 289/71/71 225/474/389 427/475/390 86/73/73
f 225/474/389 289/71/71 85/67/67 425/467/386
f 457/170/150 225/472/389 425/465/386 113/168/148
f 226/476/157 458/177/157 114/172/152 290/471/388
f 398/477/157 226/476/157 290/471/388 29/470/388
f 226/476/157 398/477/157 30/478/158 292/479/158
f 458/177/157 226/476/157 292/479/158 116/178/158
f 227/480/391 459/176/156 117/180/159 429/481/392
f 291/77/77 227/482/391 429/483/392 87/79/79
f 227/482/391 291/77/77 86/73/73 427/475/390
f 459/176/156 227/480/391 427/473/390 115/174/154
f 228/484/393 460/183/161 116/178/158 292/479/158
f 399/485/161 228/484/393 292/479/158 30/478/158
f 228/484/393 399/485/161 31/486/394 294/487/394
f 460/183/161 228/484/393 294/487/394 118/184/162
f 229/488/395 461/182/161 119/186/164 431/489/396
f 293/83/83 229/490/395 431/491/396 88/85/85
f 229/490/395 293/83/83 87/79/79 429/483/392
f 461/182/161 229/488/395 429/481/392 117/180/159
f 230/492/397 462/189/165 118/184/162 294/487/394
f 400/493/165 230/492/397 294/487/394 31/486/394
f 230/492/397 400/493/165 32/494/398 296/495/398
f 462/189/165 230/492/397 296/495/398 120/190/166
f 231/496/399 463/188/165 121/192/168 433/497/400
f 295/89/89 231/498/399 433/499/400 89/91/91
f 231/498/399 295/89/89 88/85/85 431/491/396
f 463/188/165 231/496/399 431/489/396 119/186/164
f 232/500/401 464/195/171 120/190/166 296/495/398
f 401/501/401 232/500/401 296/495/398 32/494/398
f 232/500/401 401/501/401 17/376/349 405/374/349
f 464/195/171 232/500/401 405/374/349 93/102/100
f 233/502/402 465/194/170 92/99/98 267/384/352
f 297/95/95 233/503/402 267/383/352 74/3/3
f 233/503/402 297/95/95 89/91/91 433/499/400
f 465/194/170 233/502/402 433/497/400 121/192/168
