# Blender 4.5.3 LTS
# www.blender.org
o B4
v 54.182339 -16.115976 36.476437
v 53.171799 -16.115976 37.989117
v 51.658772 -16.115976 39.000202
v 49.873581 -16.115976 39.355312
v 48.088306 -16.115976 39.000141
v 46.574852 -16.115976 37.988956
v 45.563679 -16.115976 36.475719
v 45.208630 -16.115976 34.691021
v 45.563587 -16.115976 32.906597
v 46.574413 -16.115976 31.393894
v 48.087372 -16.115976 30.383129
v 49.872280 -16.115976 30.028179
v 51.657509 -16.115976 30.383335
v 53.171085 -16.115976 31.394703
v 54.182217 -16.115976 32.908054
v 54.537117 -16.115976 34.692455
v 47.605396 -23.738932 32.384426
v 48.563271 -23.695910 32.117496
v 49.909389 -23.599977 31.996037
v 51.248455 -23.485653 32.112446
v 52.190872 -23.371964 32.378170
v 47.349094 -23.733269 33.334721
v 48.590549 -23.699310 33.338932
v 49.934990 -23.601366 33.315151
v 51.262913 -23.480528 33.339130
v 52.459206 -23.309978 33.334843
v 47.234253 -23.690527 34.680210
v 48.575508 -23.654865 34.679432
v 49.943405 -23.553152 34.678860
v 51.292648 -23.427290 34.680523
v 52.577095 -23.237492 34.682766
v 47.349213 -23.634993 36.026913
v 48.593063 -23.602358 36.021580
v 49.935879 -23.502558 36.045582
v 51.264072 -23.380613 36.025158
v 52.456547 -23.205893 36.031696
v 47.605827 -23.572014 36.983227
v 48.566956 -23.511536 37.249538
v 49.911499 -23.407427 37.369808
v 51.249897 -23.296553 37.252552
v 52.187553 -23.197365 36.986912
v 53.524021 -23.025305 34.684238
v 53.283897 -23.003166 36.205364
v 52.602962 -23.053722 37.423038
v 51.402283 -23.154556 38.125919
v 49.886032 -23.274424 38.370129
v 48.367249 -23.391649 38.115559
v 47.155350 -23.497547 37.415859
v 46.468067 -23.581196 36.200863
v 46.225414 -23.651827 34.681042
v 46.466625 -23.693308 33.162647
v 47.153145 -23.696609 31.951885
v 48.363770 -23.637533 31.254742
v 49.883179 -23.536581 31.002834
v 51.400909 -23.407290 31.243771
v 52.605221 -23.264143 31.945004
v 53.288017 -23.124317 33.162487
v 54.157940 -22.694992 36.468967
v 53.156113 -22.772903 37.973629
v 51.651634 -22.904522 38.976780
v 49.873871 -23.045500 39.329029
v 48.095947 -23.179914 38.976360
v 46.590721 -23.311398 37.973194
v 45.588013 -23.431753 36.468082
v 45.235859 -23.523346 34.690723
v 45.587879 -23.564753 32.913616
v 46.590206 -23.553051 31.409145
v 48.094910 -23.489183 30.406506
v 49.872501 -23.376740 30.054180
v 51.650368 -23.221157 30.406361
v 53.155479 -23.028557 31.409702
v 54.157940 -22.840282 32.915051
v 54.509716 -22.715109 34.692234
v 53.171803 -17.227652 37.989117
v 53.171803 -21.691956 37.989117
v 54.182339 -21.624821 36.476437
v 54.182339 -17.215748 36.476437
v 51.658772 -17.247696 39.000202
v 51.658772 -21.805101 39.000202
v 49.873600 -17.269123 39.355312
v 49.873581 -21.926022 39.355312
v 48.088318 -17.289539 39.000141
v 48.088306 -22.041227 39.000141
v 46.574852 -17.309538 37.988956
v 46.574852 -22.154108 37.988956
v 45.563679 -17.327890 36.475719
v 45.563679 -22.257761 36.475719
v 45.208630 -17.341854 34.691021
v 45.208630 -22.336489 34.691021
v 45.563587 -17.348122 32.906597
v 45.563587 -22.371866 32.906597
v 46.574432 -17.346289 31.393894
v 46.574413 -22.361500 31.393894
v 48.087372 -17.336599 30.383129
v 48.087372 -22.306847 30.383129
v 49.872284 -17.319529 30.028179
v 49.872284 -22.210510 30.028179
v 51.657509 -17.295885 30.383320
v 51.657509 -22.077021 30.383320
v 53.171085 -17.266518 31.394703
v 53.171085 -21.911335 31.394703
v 54.182201 -17.237833 32.908054
v 54.182201 -21.749458 32.908054
v 54.537117 -17.218786 34.692455
v 54.537117 -21.641951 34.692455
v 53.006409 -22.877310 37.825764
v 51.583443 -23.000879 38.753063
v 49.876461 -23.136488 39.078106
v 48.168716 -23.266750 38.749241
v 46.742195 -23.392061 37.823025
v 45.820358 -23.502996 36.395405
v 45.495857 -23.589275 34.687778
v 45.819744 -23.630800 32.980877
v 46.740990 -23.623064 31.554775
v 48.166946 -23.560308 30.629917
v 49.874615 -23.450697 30.302273
v 51.582134 -23.301771 30.626186
v 53.006542 -23.121738 31.553089
v 53.926357 -22.945185 32.981754
v 53.925056 -22.805923 36.397381
v 54.248146 -22.826338 34.689838
v 53.298466 -22.918573 37.029324
v 52.214882 -23.011166 38.129368
v 50.709164 -23.135216 38.698048
v 49.049877 -23.262630 38.693127
v 47.539684 -23.384199 38.121822
v 46.448990 -23.492670 37.025227
v 45.888176 -23.582893 35.514019
v 45.887527 -23.644827 33.854710
v 46.447330 -23.665512 32.345692
v 47.537292 -23.633698 31.251545
v 49.047226 -23.548685 30.683033
v 50.707138 -23.424957 30.678005
v 52.214649 -23.271181 31.244381
v 53.300827 -23.104071 32.343853
v 53.856300 -22.962263 33.856533
v 53.854462 -22.894535 35.517025
v 53.750870 -19.784021 37.282017
v 52.464634 -19.840189 38.568432
v 50.783527 -19.911066 39.264805
v 48.963634 -19.980732 39.264805
v 47.282257 -20.047836 38.568356
v 45.995449 -20.112436 37.281597
v 45.299110 -20.167526 35.600628
v 45.299080 -20.201900 33.781467
v 45.995209 -20.209190 32.100971
v 47.281570 -20.189917 30.814762
v 48.962479 -20.145184 30.118649
v 50.782181 -20.077364 30.118717
v 52.463623 -19.987911 30.815212
v 53.750484 -19.888084 32.102131
v 54.446686 -19.805328 33.782986
v 54.446724 -19.767445 35.601727
v 47.987896 -23.735088 32.752964
v 49.246777 -23.660828 32.650738
v 50.597015 -23.553112 32.649860
v 51.834133 -23.424099 32.749989
v 47.898212 -23.706757 34.002537
v 49.262970 -23.635015 34.000172
v 50.615166 -23.523054 34.000484
v 51.942566 -23.368587 34.003819
v 47.898991 -23.657503 35.357342
v 49.263927 -23.585901 35.358356
v 50.615761 -23.473156 35.359737
v 51.942364 -23.316936 35.360760
v 47.989311 -23.595358 36.611958
v 49.249432 -23.514912 36.712337
v 50.598682 -23.405188 36.713932
v 51.832939 -23.278889 36.615208
v 53.036388 -23.112076 35.414394
v 52.701855 -23.116367 36.710423
v 51.909191 -23.180828 37.519459
v 50.625923 -23.286879 37.861477
v 49.168739 -23.400826 37.857113
v 47.874107 -23.504045 37.512768
v 47.072353 -23.583693 36.705471
v 46.739323 -23.648344 35.410221
v 46.738934 -23.702023 33.950184
v 47.071896 -23.731525 32.659367
v 47.871716 -23.708185 31.855801
v 49.165241 -23.626968 31.511890
v 50.623611 -23.516050 31.506618
v 51.910343 -23.393076 31.846195
v 52.706375 -23.273355 32.655453
v 53.038662 -23.169889 33.952145
v 53.750870 -16.265759 37.282017
v 53.750870 -22.604427 37.282017
v 52.464634 -16.268053 38.568432
v 52.464634 -22.714466 38.568432
v 50.783527 -16.270941 39.264805
v 50.783527 -22.853344 39.264805
v 48.963634 -16.273788 39.264805
v 48.963634 -22.989815 39.264805
v 47.282257 -16.276524 38.568356
v 47.282269 -23.121305 38.568371
v 45.995449 -16.279163 37.281597
v 45.995449 -23.247875 37.281597
v 45.299110 -16.281408 35.600628
v 45.299118 -23.355759 35.600628
v 45.299080 -16.282801 33.781467
v 45.299091 -23.423122 33.781467
v 45.995209 -16.283119 32.100971
v 45.995209 -23.437412 32.100971
v 47.281570 -16.282331 30.814762
v 47.281570 -23.399639 30.814762
v 48.962479 -16.280500 30.118649
v 48.962479 -23.312006 30.118649
v 50.782181 -16.277731 30.118717
v 50.782181 -23.179136 30.118717
v 52.463623 -16.274075 30.815212
v 52.463623 -23.003891 30.815212
v 53.750484 -16.270010 32.102131
v 53.750477 -22.808306 32.102131
v 54.446686 -16.266619 33.782986
v 54.446686 -22.646179 33.783031
v 54.446724 -16.265068 35.601727
v 54.446724 -22.571955 35.601772
v 53.669285 -22.783854 37.236439
v 52.419601 -22.892624 38.489239
v 50.770123 -23.031189 39.162609
v 48.979191 -23.168362 39.161709
v 47.328682 -23.300308 38.487827
v 46.077236 -23.425779 37.235371
v 45.405342 -23.532330 35.585033
v 45.405197 -23.599852 33.794682
v 46.076759 -23.615547 32.145054
v 47.327686 -23.578207 30.893505
v 48.977764 -23.489542 30.220394
v 50.768650 -23.356047 30.219555
v 52.418728 -23.181688 30.892597
v 53.669388 -22.987902 32.145710
v 54.340225 -22.826662 33.796284
v 54.339909 -22.752344 35.586521
v 53.109051 -22.831570 37.927151
v 51.630203 -22.961128 38.906475
v 49.874672 -23.100918 39.250149
v 48.118809 -23.234503 38.904987
v 46.638336 -23.364492 37.926014
v 45.661030 -23.482327 36.445240
v 45.317570 -23.572580 34.689800
v 45.660740 -23.614164 32.934750
v 46.637596 -23.603664 31.454906
v 48.117554 -23.539928 30.476734
v 49.873180 -23.427954 30.132145
v 51.628933 -23.273933 30.475452
v 53.108665 -23.084591 31.454739
v 54.085155 -22.899340 32.936008
v 53.730480 -22.724171 37.270649
v 53.171799 -16.266768 37.989117
v 54.182339 -22.575413 36.476437
v 52.453392 -22.835041 38.548641
v 51.658772 -16.269484 39.000202
v 50.780182 -22.975290 39.239246
v 49.873581 -16.272390 39.355312
v 48.967525 -23.113346 39.239017
v 48.088306 -16.275152 39.000141
v 47.293865 -23.246338 38.548222
v 46.574852 -16.277878 37.988956
v 46.015903 -23.373941 37.270046
v 45.563679 -16.280361 36.475719
v 45.325680 -23.482632 35.596729
v 45.208630 -16.282261 34.691021
v 45.325626 -23.550726 33.784779
v 45.563587 -16.283100 32.906597
v 46.574413 -16.282862 31.393894
v 46.015602 -23.565512 32.111996
v 48.087364 -16.281534 30.383129
v 47.293110 -23.527466 30.834438
v 49.872280 -16.279221 30.028179
v 48.966290 -23.438652 30.144039
v 51.657509 -16.276016 30.383320
v 50.778824 -23.304258 30.143887
v 53.171085 -16.272030 31.394703
v 52.452393 -23.127392 30.834553
v 54.182217 -16.268147 32.908054
v 53.730217 -22.930227 32.113026
v 54.537117 -16.265560 34.692455
v 54.420067 -22.766621 33.786350
v 54.420013 -22.691607 35.597965
v 48.592857 -23.704781 32.695553
v 47.986240 -23.730515 32.242573
v 47.468658 -23.745928 32.761425
v 47.938084 -23.725847 33.351437
v 49.923527 -23.608503 32.631283
v 49.217537 -23.651512 32.030590
v 49.259674 -23.655230 33.323544
v 51.242233 -23.492393 32.693729
v 50.599194 -23.544024 32.027905
v 50.606030 -23.545437 33.323666
v 52.334831 -23.350353 32.757572
v 51.818718 -23.426876 32.235867
v 51.895706 -23.399683 33.351627
v 48.581444 -23.680122 34.003788
v 47.266373 -23.714275 33.987614
v 47.880962 -23.682430 34.679943
v 49.941368 -23.579851 33.997219
v 49.262474 -23.608988 34.678982
v 51.282768 -23.455631 34.004520
v 50.619926 -23.495712 34.679478
v 52.544525 -23.270491 33.989353
v 51.962257 -23.338451 34.681744
v 48.582787 -23.631191 35.355381
v 47.266525 -23.663630 35.372791
v 47.939426 -23.629343 36.009686
v 49.941788 -23.530357 35.361462
v 49.261517 -23.557373 36.036709
v 51.283413 -23.405100 35.357891
v 50.607185 -23.446077 36.038715
v 52.543171 -23.216614 35.376743
v 51.895157 -23.298830 36.014126
v 48.596104 -23.561646 36.668179
v 47.468300 -23.606041 36.604214
v 47.987827 -23.554068 37.125797
v 49.925022 -23.460852 36.731800
v 49.220776 -23.461674 37.335682
v 51.243599 -23.345385 36.670971
v 50.601276 -23.351717 37.337521
v 52.330948 -23.203335 36.607944
v 51.817142 -23.243952 37.128773
v 53.460632 -23.004370 35.464298
v 54.084743 -22.755436 36.446453
v 53.929291 -22.916348 34.686916
v 53.004692 -23.020563 36.868809
v 52.058617 -23.099806 37.836559
v 50.664589 -23.213699 38.307713
v 49.107155 -23.333944 38.301357
v 47.705589 -23.446877 37.826832
v 46.749821 -23.541523 36.863300
v 46.289280 -23.618975 35.460407
v 46.288483 -23.676668 33.902004
v 46.747990 -23.701502 32.502323
v 47.702641 -23.673962 31.542233
v 49.103817 -23.591324 31.070652
v 50.662273 -23.474600 31.063946
v 52.058975 -23.336565 31.532040
v 53.008472 -23.191694 32.499012
v 53.463173 -23.067068 33.903934
v 53.085472 -23.132730 34.683224
v 52.904243 -23.106956 36.104015
v 52.384937 -23.140812 37.195072
v 51.310795 -23.231241 37.727085
v 49.897583 -23.344477 37.909283
v 48.480549 -23.454483 37.719975
v 47.390884 -23.547705 37.189854
v 46.871010 -23.615936 36.099125
v 46.690815 -23.678003 34.680134
v 46.870396 -23.720011 33.262569
v 47.390106 -23.729841 32.178028
v 48.476761 -23.672077 31.648518
v 49.894924 -23.574444 31.459911
v 51.309368 -23.454678 31.639515
v 52.388618 -23.332300 32.170300
v 52.908195 -23.218466 33.262432
v 53.750870 -16.115976 37.282017
v 52.464634 -16.115976 38.568432
v 50.783527 -16.115976 39.264805
v 48.963634 -16.115976 39.264805
v 47.282257 -16.115976 38.568356
v 45.995449 -16.115976 37.281597
v 45.299110 -16.115976 35.600628
v 45.299080 -16.115976 33.781467
v 45.995209 -16.115976 32.100971
v 47.281570 -16.115976 30.814762
v 48.962479 -16.115976 30.118649
v 50.782181 -16.115976 30.118717
v 52.463623 -16.115976 30.815212
v 53.750484 -16.115976 32.102131
v 54.446686 -16.115976 33.782986
v 54.446724 -16.115976 35.601772
v 53.171799 -19.808727 37.989117
v 53.171799 -22.652832 37.989117
v 54.182339 -19.769205 36.476437
v 54.182339 -16.265144 36.476437
v 51.658772 -19.875330 39.000202
v 51.658772 -22.783321 39.000202
v 49.873581 -19.946520 39.355312
v 49.873581 -22.922771 39.355312
v 48.088318 -20.014299 39.000141
v 48.088318 -23.055601 39.000141
v 46.574852 -20.080748 37.988956
v 46.574852 -23.185778 37.988956
v 45.563679 -20.141766 36.475719
v 45.563679 -23.305300 36.475719
v 45.208630 -20.188097 34.691021
v 45.208630 -23.396091 34.691021
v 45.563587 -20.208916 32.906597
v 45.563587 -23.436890 32.906597
v 46.574413 -20.202814 31.393894
v 46.574413 -23.424932 31.393894
v 48.087364 -20.170635 30.383129
v 48.087364 -23.361897 30.383129
v 49.872280 -20.113943 30.028179
v 49.872280 -23.250805 30.028179
v 51.657509 -20.035364 30.383320
v 51.657520 -23.096880 30.383320
v 53.171085 -19.937864 31.394703
v 53.171085 -22.905834 31.394703
v 54.182217 -19.842569 32.908054
v 54.182217 -22.719143 32.908054
v 54.537117 -19.779291 34.692455
v 54.537117 -22.595171 34.692455
v 53.750870 -17.220217 37.282017
v 53.750870 -21.649973 37.282017
v 52.464634 -17.237112 38.568432
v 52.464634 -21.745403 38.568432
v 50.783527 -17.258461 39.264805
v 50.783527 -21.865833 39.264805
v 48.963634 -17.279425 39.264805
v 48.963634 -21.984165 39.264805
v 47.282257 -17.299633 38.568356
v 47.282269 -22.098198 38.568356
v 45.995449 -17.319084 37.281597
v 45.995449 -22.207958 37.281597
v 45.299110 -17.335659 35.600628
v 45.299118 -22.301533 35.600628
v 45.299080 -17.346008 33.781467
v 45.299080 -22.359930 33.781467
v 45.995209 -17.348206 32.100971
v 45.995209 -22.372324 32.100971
v 47.281570 -17.342394 30.814762
v 47.281570 -22.339584 30.814762
v 48.962479 -17.328938 30.118649
v 48.962479 -22.263582 30.118649
v 50.782181 -17.308523 30.118717
v 50.782181 -22.148359 30.118717
v 52.463623 -17.281599 30.815212
v 52.463623 -21.996382 30.815212
v 53.750484 -17.251545 32.102131
v 53.750484 -21.826773 32.102131
v 54.446686 -17.226624 33.782986
v 54.446686 -21.686167 33.782986
v 54.446724 -17.215227 35.601772
v 54.446724 -21.621811 35.601772
v 52.823906 -22.958614 37.645496
v 51.500324 -23.071577 38.480427
v 49.879612 -23.199705 38.772274
v 48.257416 -23.324100 38.472355
v 46.926849 -23.441032 37.639927
v 46.103630 -23.539753 36.306820
v 45.812786 -23.618973 34.684208
v 46.102394 -23.660372 33.062786
v 46.924809 -23.657534 31.732265
v 48.254753 -23.596563 30.902203
v 49.877178 -23.491121 30.604733
v 51.498985 -23.351267 30.894161
v 52.824974 -23.187767 31.727894
v 53.644024 -23.026701 33.063099
v 53.641129 -22.895651 36.310108
v 54.427509 -22.775703 34.691471
v 53.535786 -22.832342 37.161892
v 52.345921 -22.935287 38.359715
v 50.748169 -23.068638 38.995350
v 49.004631 -23.202301 38.993000
v 47.404636 -23.330505 38.356098
v 46.211082 -23.449856 37.159695
v 45.579166 -23.550533 35.559452
v 45.578838 -23.616030 33.816303
v 46.210152 -23.633528 32.217274
v 47.403149 -23.598194 31.022404
v 49.002754 -23.510839 30.386951
v 50.746502 -23.380852 30.384617
v 52.345257 -23.213917 31.019222
v 53.536705 -23.029720 32.217030
v 54.166016 -22.875484 33.817974
v 54.165150 -22.803526 35.561481
vn 0.2703 -0.9553 0.1197
vn 0.2733 -0.9535 0.1270
vn 0.2514 -0.9532 0.1679
vn 0.2469 -0.9553 0.1627
vn 0.2597 -0.9599 0.1053
vn 0.2342 -0.9605 0.1505
vn 0.2579 -0.9634 0.0727
vn 0.2714 -0.9588 0.0840
vn 0.2760 -0.9569 0.0904
vn 0.2008 -0.9611 0.1896
vn 0.2089 -0.9584 0.1943
vn 0.1604 -0.9660 0.2028
vn 0.1527 -0.9688 0.1951
vn 0.1831 -0.9674 0.1751
vn 0.1381 -0.9750 0.1744
vn 0.1096 -0.9746 0.1953
vn 0.1087 -0.9729 0.2041
vn 0.0746 -0.9761 0.2039
vn 0.0746 -0.9778 0.1957
vn 0.1047 -0.9799 0.1698
vn 0.0754 -0.9828 0.1688
vn 0.0414 -0.9798 0.1954
vn 0.0419 -0.9781 0.2037
vn -0.0017 -0.9791 0.2034
vn 0.0054 -0.9805 0.1965
vn 0.0476 -0.9840 0.1717
vn 0.0196 -0.9838 0.1782
vn -0.0341 -0.9804 0.1938
vn -0.0417 -0.9793 0.1981
vn -0.0784 -0.9812 0.1762
vn -0.0741 -0.9825 0.1710
vn -0.0179 -0.9833 0.1812
vn -0.0625 -0.9853 0.1591
vn -0.0939 -0.9870 0.1304
vn -0.0970 -0.9856 0.1382
vn -0.0984 -0.9901 0.1003
vn -0.0933 -0.9913 0.0932
vn -0.0831 -0.9899 0.1150
vn -0.0788 -0.9936 0.0806
vn -0.0894 -0.9940 0.0627
vn -0.0952 -0.9935 0.0630
vn -0.0943 -0.9948 0.0374
vn -0.0885 -0.9954 0.0372
vn -0.0717 -0.9958 0.0577
vn -0.0690 -0.9969 0.0370
vn -0.0889 -0.9960 0.0115
vn -0.0949 -0.9954 0.0117
vn -0.0977 -0.9949 -0.0268
vn -0.0923 -0.9955 -0.0199
vn -0.0709 -0.9973 0.0161
vn -0.0774 -0.9970 -0.0075
vn -0.0924 -0.9940 -0.0585
vn -0.0959 -0.9932 -0.0663
vn -0.0766 -0.9915 -0.1055
vn -0.0720 -0.9923 -0.1007
vn -0.0813 -0.9958 -0.0431
vn -0.0605 -0.9942 -0.0888
vn -0.0312 -0.9918 -0.1243
vn -0.0388 -0.9909 -0.1285
vn 0.0017 -0.9910 -0.1338
vn 0.0088 -0.9919 -0.1270
vn -0.0152 -0.9936 -0.1117
vn 0.0224 -0.9938 -0.1092
vn 0.0436 -0.9911 -0.1258
vn 0.0440 -0.9900 -0.1338
vn 0.0735 -0.9882 -0.1341
vn 0.0734 -0.9893 -0.1260
vn 0.0493 -0.9935 -0.1031
vn 0.0741 -0.9922 -0.1002
vn 0.1051 -0.9864 -0.1260
vn 0.1044 -0.9854 -0.1346
vn 0.1545 -0.9788 -0.1342
vn 0.1467 -0.9811 -0.1265
vn 0.1003 -0.9898 -0.1012
vn 0.1324 -0.9856 -0.1056
vn 0.1954 -0.9732 -0.1214
vn 0.2038 -0.9708 -0.1262
vn 0.2482 -0.9637 -0.0984
vn 0.2432 -0.9655 -0.0935
vn 0.1776 -0.9783 -0.1063
vn 0.2298 -0.9699 -0.0804
vn 0.2677 -0.9623 -0.0473
vn 0.2712 -0.9609 -0.0549
vn 0.2748 -0.9614 -0.0145
vn 0.2697 -0.9629 -0.0082
vn 0.2561 -0.9661 -0.0324
vn 0.2552 -0.9669 0.0032
vn 0.2674 -0.9634 0.0200
vn 0.2727 -0.9619 0.0201
vn 0.2723 -0.9614 0.0398
vn 0.2673 -0.9628 0.0396
vn 0.2506 -0.9678 0.0241
vn 0.2497 -0.9675 0.0393
vn 0.2682 -0.9616 0.0585
vn 0.2732 -0.9602 0.0589
vn 0.2520 -0.9662 0.0539
vn 0.8307 -0.0000 0.5567
vn 0.8308 -0.0000 0.5566
vn 0.9243 -0.0000 0.3817
vn 0.9243 -0.0000 0.3816
vn 0.7077 -0.0000 0.7066
vn 0.5543 -0.0000 0.8323
vn 0.3824 -0.0000 0.9240
vn 0.3822 -0.0000 0.9241
vn 0.3823 -0.0000 0.9241
vn 0.2035 -0.0000 0.9791
vn 0.2274 -0.0000 0.9738
vn -0.0346 -0.0000 0.9994
vn -0.0097 -0.0000 1.0000
vn -0.1880 -0.0000 0.9822
vn -0.1636 -0.0000 0.9865
vn -0.3903 -0.0000 0.9207
vn -0.4134 -0.0000 0.9105
vn -0.5555 -0.0000 0.8315
vn -0.5560 -0.0000 0.8312
vn -0.6836 -0.0000 0.7299
vn -0.7009 -0.0000 0.7132
vn -0.8366 -0.0000 0.5478
vn -0.8493 -0.0000 0.5280
vn -0.9241 -0.0000 0.3823
vn -0.9240 -0.0000 0.3824
vn -0.9722 -0.0000 0.2342
vn -0.9728 -0.0000 0.2319
vn -0.9683 -0.0000 0.2497
vn -0.9987 -0.0000 -0.0510
vn -0.9994 -0.0000 -0.0333
vn -1.0000 -0.0000 -0.0054
vn -0.9790 -0.0000 -0.2040
vn -0.9737 -0.0000 -0.2279
vn -0.9268 -0.0000 -0.3755
vn -0.9268 0.0001 -0.3755
vn -0.9360 0.0004 -0.3519
vn -0.8272 -0.0000 -0.5619
vn -0.8130 -0.0000 -0.5823
vn -0.7071 -0.0000 -0.7071
vn -0.5555 -0.0000 -0.8315
vn -0.5559 -0.0000 -0.8312
vn -0.3826 -0.0000 -0.9239
vn -0.3831 -0.0000 -0.9237
vn -0.1954 -0.0000 -0.9807
vn -0.1956 -0.0000 -0.9807
vn -0.0016 -0.0000 -1.0000
vn 0.1956 -0.0000 -0.9807
vn 0.1958 -0.0000 -0.9806
vn 0.1957 -0.0000 -0.9807
vn 0.3749 -0.0000 -0.9271
vn 0.3514 -0.0000 -0.9362
vn 0.5614 -0.0000 -0.8275
vn 0.5818 -0.0000 -0.8133
vn 0.6828 -0.0000 -0.7306
vn 0.7001 -0.0000 -0.7141
vn 0.8319 -0.0000 -0.5550
vn 0.8174 -0.0000 -0.5760
vn 0.8450 -0.0000 -0.5347
vn 0.9266 -0.0000 -0.3759
vn 0.9359 -0.0000 -0.3524
vn 0.9789 -0.0000 -0.2044
vn 0.9738 -0.0000 -0.2272
vn 1.0000 -0.0000 -0.0015
vn 1.0000 -0.0000 -0.0004
vn 0.9790 -0.0000 0.2039
vn 0.9737 -0.0000 0.2278
vn 0.0358 -0.9993 0.0047
vn 0.0582 -0.9983 -0.0019
vn 0.0550 -0.9983 0.0207
vn 0.0292 -0.9993 0.0243
vn -0.0046 -1.0000 0.0041
vn -0.0066 -0.9997 0.0224
vn 0.0004 -0.9996 -0.0291
vn 0.0346 -0.9988 -0.0344
vn 0.0554 -0.9978 -0.0363
vn 0.0717 -0.9974 -0.0043
vn 0.0795 -0.9968 -0.0031
vn 0.0811 -0.9965 0.0196
vn 0.0732 -0.9971 0.0191
vn 0.0673 -0.9971 -0.0346
vn 0.0775 -0.9965 -0.0321
vn 0.0880 -0.9961 -0.0009
vn 0.1038 -0.9946 0.0048
vn 0.1106 -0.9935 0.0256
vn 0.0900 -0.9957 0.0216
vn 0.0884 -0.9956 -0.0306
vn 0.1030 -0.9943 -0.0287
vn 0.1296 -0.9915 0.0135
vn 0.1732 -0.9848 0.0146
vn 0.1783 -0.9835 0.0310
vn 0.1391 -0.9898 0.0312
vn 0.1275 -0.9915 -0.0243
vn 0.1653 -0.9861 -0.0176
vn 0.0262 -0.9991 0.0335
vn 0.0530 -0.9980 0.0339
vn 0.0527 -0.9980 0.0361
vn 0.0260 -0.9990 0.0363
vn -0.0058 -0.9995 0.0306
vn -0.0050 -0.9993 0.0365
vn 0.0737 -0.9967 0.0340
vn 0.0823 -0.9960 0.0347
vn 0.0829 -0.9959 0.0362
vn 0.0739 -0.9966 0.0360
vn 0.0917 -0.9951 0.0358
vn 0.1148 -0.9927 0.0371
vn 0.1160 -0.9926 0.0370
vn 0.0927 -0.9950 0.0365
vn 0.1446 -0.9888 0.0380
vn 0.1801 -0.9830 0.0364
vn 0.1773 -0.9834 0.0380
vn 0.1493 -0.9881 0.0375
vn 0.0257 -0.9989 0.0390
vn 0.0528 -0.9979 0.0382
vn 0.0545 -0.9972 0.0509
vn 0.0284 -0.9984 0.0479
vn -0.0063 -0.9991 0.0423
vn -0.0076 -0.9987 0.0503
vn 0.0738 -0.9966 0.0378
vn 0.0829 -0.9959 0.0374
vn 0.0821 -0.9953 0.0518
vn 0.0731 -0.9959 0.0525
vn 0.0927 -0.9950 0.0371
vn 0.1162 -0.9925 0.0368
vn 0.1127 -0.9925 0.0473
vn 0.0915 -0.9945 0.0504
vn 0.1517 -0.9877 0.0372
vn 0.1753 -0.9837 0.0391
vn 0.1773 -0.9832 0.0429
vn 0.1469 -0.9883 0.0420
vn 0.0345 -0.9972 0.0668
vn 0.0573 -0.9957 0.0727
vn 0.0540 -0.9929 0.1060
vn 0.0329 -0.9940 0.1048
vn -0.0059 -0.9977 0.0678
vn -0.0014 -0.9950 0.1001
vn 0.0715 -0.9946 0.0749
vn 0.0807 -0.9940 0.0737
vn 0.0789 -0.9917 0.1013
vn 0.0669 -0.9923 0.1038
vn 0.0905 -0.9933 0.0718
vn 0.1073 -0.9919 0.0674
vn 0.1074 -0.9892 0.0997
vn 0.0916 -0.9907 0.1005
vn 0.1339 -0.9892 0.0596
vn 0.1782 -0.9822 0.0594
vn 0.1704 -0.9812 0.0904
vn 0.1327 -0.9865 0.0964
vn 0.2223 -0.9739 0.0464
vn 0.2199 -0.9747 0.0389
vn 0.2277 -0.9721 0.0568
vn 0.2301 -0.9698 0.0811
vn 0.2062 -0.9706 0.1240
vn 0.1555 -0.9773 0.1440
vn 0.1197 -0.9828 0.1407
vn 0.0968 -0.9860 0.1360
vn 0.0769 -0.9878 0.1354
vn 0.0580 -0.9885 0.1393
vn 0.0388 -0.9884 0.1469
vn 0.0088 -0.9883 0.1521
vn -0.0356 -0.9905 0.1330
vn -0.0546 -0.9944 0.0901
vn -0.0496 -0.9967 0.0636
vn -0.0428 -0.9979 0.0494
vn -0.0403 -0.9985 0.0367
vn -0.0423 -0.9988 0.0240
vn -0.0484 -0.9988 0.0093
vn -0.0530 -0.9984 -0.0181
vn -0.0335 -0.9975 -0.0624
vn 0.0110 -0.9965 -0.0826
vn 0.0409 -0.9961 -0.0781
vn 0.0589 -0.9957 -0.0711
vn 0.0755 -0.9949 -0.0674
vn 0.0930 -0.9934 -0.0674
vn 0.1146 -0.9909 -0.0713
vn 0.1499 -0.9860 -0.0737
vn 0.2013 -0.9781 -0.0525
vn 0.2255 -0.9742 -0.0073
vn 0.2240 -0.9744 0.0192
vn 0.2204 -0.9749 0.0310
vn 0.8129 -0.0000 0.5824
vn 0.9360 -0.0000 0.3519
vn 0.7764 -0.0000 0.6302
vn 0.9559 -0.0001 0.2936
vn 0.7708 -0.0000 0.6370
vn 0.7299 -0.0000 0.6835
vn 0.8308 -0.0035 0.5565
vn 0.7078 -0.0034 0.7064
vn 0.7491 -0.4618 0.4750
vn 0.6519 -0.4465 0.6130
vn 0.8101 -0.4883 0.3245
vn 0.9243 -0.0039 0.3816
vn 0.5280 -0.0000 0.8493
vn 0.4761 -0.0000 0.8794
vn 0.5545 -0.0034 0.8322
vn 0.3825 -0.0036 0.9240
vn 0.5211 -0.4541 0.7227
vn 0.3689 -0.4762 0.7983
vn 0.2747 -0.0000 0.9615
vn 0.2852 -0.0000 0.9585
vn -0.0946 -0.0000 0.9955
vn -0.0838 -0.0000 0.9965
vn 0.2036 -0.0041 0.9791
vn -0.0092 -0.0041 0.9999
vn 0.2060 -0.4957 0.8437
vn 0.0380 -0.5046 0.8625
vn -0.1255 -0.0064 0.9921
vn -0.4477 -0.0060 0.8942
vn -0.1322 -0.5004 0.8556
vn -0.3010 -0.4837 0.8218
vn -0.6556 -0.0000 0.7551
vn -0.6556 0.0001 0.7551
vn -0.5557 -0.0033 0.8314
vn -0.7008 -0.0034 0.7133
vn -0.4640 -0.4614 0.7562
vn -0.6082 -0.4516 0.6527
vn -0.8680 -0.0000 0.4966
vn -0.9241 -0.0000 0.3822
vn -0.8364 -0.0036 0.5481
vn -0.9239 -0.0035 0.3825
vn -0.7191 -0.4656 0.5158
vn -0.7928 -0.4928 0.3586
vn -0.9615 -0.0000 0.2749
vn -0.9585 -0.0000 0.2852
vn -1.0000 -0.0000 -0.0000
vn -0.9978 -0.0000 -0.0666
vn -0.9729 -0.0050 0.2312
vn -0.9988 -0.0119 0.0475
vn -0.8360 -0.5142 0.1919
vn -0.8531 -0.5214 0.0195
vn -0.9724 -0.0000 -0.2334
vn -0.9584 -0.0000 -0.2853
vn -0.9646 -0.0061 -0.2636
vn -0.9490 -0.0058 -0.3153
vn -0.8443 -0.5129 -0.1553
vn -0.8075 -0.4898 -0.3287
vn -0.7902 -0.0054 -0.6128
vn -0.7071 -0.0030 -0.7071
vn -0.7370 -0.4609 -0.4944
vn -0.6264 -0.4457 -0.6395
vn -0.3829 -0.0000 -0.9238
vn -0.5556 -0.0031 -0.8314
vn -0.3827 -0.0033 -0.9239
vn -0.4802 -0.4556 -0.7495
vn -0.3130 -0.4793 -0.8199
vn -0.1950 -0.0000 -0.9808
vn -0.0946 -0.0000 -0.9955
vn -0.0335 -0.0000 -0.9994
vn -0.1952 -0.0035 -0.9808
vn -0.0013 -0.0036 -1.0000
vn -0.1385 -0.4974 -0.8564
vn 0.0368 -0.5020 -0.8641
vn 0.2264 -0.0000 -0.9740
vn 0.2851 -0.0000 -0.9585
vn 0.3748 0.0001 -0.9271
vn 0.1960 -0.0035 -0.9806
vn 0.3157 -0.0058 -0.9488
vn 0.2099 -0.4926 -0.8445
vn 0.3780 -0.4717 -0.7967
vn 0.5614 -0.0000 -0.8276
vn 0.6553 -0.0000 -0.7554
vn 0.6553 -0.0002 -0.7554
vn 0.6128 -0.0055 -0.7902
vn 0.7005 -0.0035 -0.7137
vn 0.5344 -0.4482 -0.7166
vn 0.6678 -0.4403 -0.6002
vn 0.8657 -0.0000 -0.5006
vn 0.9266 -0.0000 -0.3760
vn 0.7934 -0.0067 -0.6086
vn 0.9490 -0.0064 -0.3153
vn 0.7657 -0.4565 -0.4532
vn 0.8242 -0.4847 -0.2927
vn 0.9649 -0.0000 -0.2625
vn 0.9971 0.0001 -0.0756
vn 0.9994 -0.0000 -0.0334
vn 0.9790 -0.0044 -0.2039
vn 1.0000 -0.0049 -0.0001
vn 0.8518 -0.5066 -0.1332
vn 0.8570 -0.5149 0.0212
vn 0.9615 -0.0000 0.2748
vn 0.9585 -0.0000 0.2852
vn 0.9790 -0.0044 0.2037
vn 0.8437 -0.5083 0.1725
vn 0.3846 -0.8995 0.2071
vn 0.3934 -0.9083 0.1425
vn 0.3506 -0.8961 0.2720
vn 0.2880 -0.9040 0.3159
vn 0.2134 -0.9178 0.3348
vn 0.1246 -0.9481 0.2926
vn 0.0733 -0.9598 0.2708
vn 0.0219 -0.9555 0.2943
vn -0.0649 -0.9373 0.3424
vn -0.1367 -0.9338 0.3307
vn -0.2007 -0.9345 0.2939
vn -0.2369 -0.9436 0.2312
vn -0.2472 -0.9553 0.1621
vn -0.1927 -0.9778 0.0820
vn -0.1675 -0.9852 0.0371
vn -0.1942 -0.9809 -0.0088
vn -0.2523 -0.9631 -0.0935
vn -0.2439 -0.9552 -0.1676
vn -0.2075 -0.9494 -0.2357
vn -0.1412 -0.9508 -0.2756
vn -0.0661 -0.9553 -0.2880
vn 0.0228 -0.9720 -0.2337
vn 0.0725 -0.9755 -0.2077
vn 0.1224 -0.9649 -0.2325
vn 0.2133 -0.9355 -0.2816
vn 0.2909 -0.9201 -0.2624
vn 0.3562 -0.9093 -0.2151
vn 0.3907 -0.9092 -0.1438
vn 0.3980 -0.9145 -0.0725
vn 0.3519 -0.9360 0.0022
vn 0.3306 -0.9430 0.0391
vn 0.3505 -0.9336 0.0745
vt 0.774715 0.157592
vt 0.775378 0.157978
vt 0.773914 0.159749
vt 0.773399 0.159225
vt 0.773904 0.157127
vt 0.772776 0.158601
vt 0.774686 0.155366
vt 0.775685 0.155673
vt 0.776477 0.155940
vt 0.771727 0.160501
vt 0.772093 0.161144
vt 0.770006 0.162163
vt 0.769768 0.161411
vt 0.771282 0.159680
vt 0.769501 0.160432
vt 0.767621 0.161956
vt 0.767730 0.162767
vt 0.765375 0.162955
vt 0.765385 0.162114
vt 0.767503 0.160887
vt 0.765405 0.161016
vt 0.763139 0.161866
vt 0.763011 0.162688
vt 0.760765 0.161995
vt 0.761012 0.161233
vt 0.763308 0.160808
vt 0.761319 0.160274
vt 0.759083 0.160264
vt 0.758717 0.160907
vt 0.756946 0.159433
vt 0.757450 0.158938
vt 0.759538 0.159452
vt 0.758074 0.158324
vt 0.756184 0.157256
vt 0.755531 0.157612
vt 0.754502 0.155534
vt 0.755273 0.155307
vt 0.756995 0.156821
vt 0.756263 0.155020
vt 0.754729 0.153160
vt 0.753888 0.153269
vt 0.753700 0.150914
vt 0.754551 0.150914
vt 0.755808 0.153021
vt 0.755669 0.150914
vt 0.754789 0.148688
vt 0.753958 0.148559
vt 0.754650 0.146323
vt 0.755402 0.146560
vt 0.755867 0.148826
vt 0.756382 0.146837
vt 0.756362 0.144641
vt 0.755729 0.144285
vt 0.757193 0.142524
vt 0.757688 0.143018
vt 0.757173 0.145076
vt 0.758291 0.143622
vt 0.759350 0.141742
vt 0.759004 0.141119
vt 0.761081 0.140090
vt 0.761309 0.140832
vt 0.759785 0.142543
vt 0.761576 0.141791
vt 0.763456 0.140278
vt 0.763357 0.139476
vt 0.765712 0.139288
vt 0.765692 0.140109
vt 0.763575 0.141326
vt 0.765682 0.141188
vt 0.767938 0.140347
vt 0.768067 0.139555
vt 0.770322 0.140248
vt 0.770075 0.140960
vt 0.767780 0.141386
vt 0.769768 0.141910
vt 0.771994 0.141940
vt 0.772380 0.141336
vt 0.774151 0.142810
vt 0.773627 0.143285
vt 0.771539 0.142721
vt 0.773004 0.143859
vt 0.774913 0.144957
vt 0.775576 0.144641
vt 0.776605 0.146719
vt 0.775814 0.146917
vt 0.774082 0.145363
vt 0.774814 0.147174
vt 0.776358 0.149064
vt 0.777228 0.148984
vt 0.777416 0.151349
vt 0.776536 0.151319
vt 0.775269 0.149182
vt 0.775398 0.151280
vt 0.776298 0.153546
vt 0.777169 0.153694
vt 0.775200 0.153377
vt 0.044121 0.434224
vt 0.044141 0.439251
vt 0.041677 0.439191
vt 0.041658 0.434195
vt 0.044101 0.427338
vt 0.041638 0.427338
vt 0.046555 0.427348
vt 0.046585 0.434284
vt 0.046595 0.439350
vt 0.049039 0.434373
vt 0.049059 0.439488
vt 0.049009 0.427368
vt 0.051463 0.427387
vt 0.051493 0.434452
vt 0.051512 0.439637
vt 0.053956 0.434541
vt 0.053976 0.439795
vt 0.053927 0.427407
vt 0.056390 0.427427
vt 0.056410 0.434620
vt 0.056430 0.439953
vt 0.058874 0.434699
vt 0.058894 0.440092
vt 0.058844 0.427447
vt 0.061308 0.427457
vt 0.061338 0.434779
vt 0.061357 0.440240
vt 0.063801 0.434878
vt 0.063821 0.440379
vt 0.063772 0.427476
vt 0.066225 0.427496
vt 0.066255 0.434947
vt 0.066275 0.440527
vt 0.068709 0.435026
vt 0.068729 0.440656
vt 0.068679 0.427506
vt 0.071143 0.427526
vt 0.071172 0.435095
vt 0.071192 0.440784
vt 0.073626 0.435155
vt 0.073656 0.440883
vt 0.073607 0.427536
vt 0.076060 0.427546
vt 0.076090 0.435194
vt 0.076110 0.440982
vt 0.078554 0.435224
vt 0.078574 0.441032
vt 0.078524 0.427546
vt 0.080978 0.427536
vt 0.081008 0.435234
vt 0.081037 0.441052
vt 0.083471 0.435224
vt 0.083491 0.441042
vt 0.083432 0.427526
vt 0.085895 0.427516
vt 0.085915 0.435194
vt 0.085945 0.441012
vt 0.088379 0.435155
vt 0.088399 0.440933
vt 0.088349 0.427496
vt 0.090813 0.427476
vt 0.090843 0.435095
vt 0.090862 0.440834
vt 0.093296 0.435016
vt 0.093326 0.440715
vt 0.093267 0.427447
vt 0.095730 0.427407
vt 0.095760 0.434927
vt 0.095780 0.440567
vt 0.019534 0.435095
vt 0.019553 0.440666
vt 0.017090 0.440844
vt 0.017070 0.435204
vt 0.019504 0.427645
vt 0.017050 0.427684
vt 0.021968 0.427605
vt 0.021987 0.434976
vt 0.022007 0.440468
vt 0.024451 0.434838
vt 0.024471 0.440240
vt 0.024431 0.427566
vt 0.026895 0.427516
vt 0.026915 0.434699
vt 0.026935 0.440013
vt 0.029379 0.434561
vt 0.029388 0.439765
vt 0.029349 0.427467
vt 0.031813 0.427427
vt 0.031832 0.434432
vt 0.031852 0.439558
vt 0.034286 0.434314
vt 0.034296 0.439370
vt 0.034257 0.427387
vt 0.036720 0.427358
vt 0.036740 0.434234
vt 0.036760 0.439251
vt 0.039204 0.434205
vt 0.039214 0.439191
vt 0.039184 0.427338
vt 0.760488 0.145808
vt 0.762110 0.145680
vt 0.762081 0.147401
vt 0.760329 0.147411
vt 0.759093 0.145808
vt 0.758746 0.147342
vt 0.759479 0.144799
vt 0.760507 0.144433
vt 0.762061 0.144126
vt 0.763881 0.145591
vt 0.765702 0.145571
vt 0.765702 0.147401
vt 0.763881 0.147391
vt 0.763832 0.143919
vt 0.765692 0.143859
vt 0.767512 0.145650
vt 0.769254 0.145799
vt 0.769274 0.147530
vt 0.767512 0.147461
vt 0.767552 0.143978
vt 0.769293 0.144245
vt 0.770857 0.145977
vt 0.772202 0.146026
vt 0.772529 0.147589
vt 0.770995 0.147609
vt 0.770827 0.144601
vt 0.771826 0.144997
vt 0.760201 0.149162
vt 0.762031 0.149192
vt 0.761982 0.151003
vt 0.760112 0.150973
vt 0.758499 0.149083
vt 0.758380 0.150953
vt 0.763861 0.149222
vt 0.765692 0.149242
vt 0.765662 0.151062
vt 0.763842 0.151032
vt 0.767512 0.149281
vt 0.769303 0.149321
vt 0.769303 0.151141
vt 0.767493 0.151102
vt 0.771094 0.149360
vt 0.772736 0.149350
vt 0.772796 0.151220
vt 0.771124 0.151181
vt 0.760141 0.152804
vt 0.761982 0.152823
vt 0.761982 0.154614
vt 0.760230 0.154555
vt 0.758440 0.152813
vt 0.758638 0.154575
vt 0.763812 0.152863
vt 0.765633 0.152902
vt 0.765593 0.154743
vt 0.763782 0.154693
vt 0.767453 0.152932
vt 0.769254 0.152962
vt 0.769175 0.154753
vt 0.767404 0.154763
vt 0.771045 0.153001
vt 0.772677 0.153081
vt 0.772420 0.154842
vt 0.770886 0.154763
vt 0.760339 0.156167
vt 0.761972 0.156355
vt 0.761873 0.157919
vt 0.760319 0.157563
vt 0.758944 0.156128
vt 0.759300 0.157157
vt 0.763723 0.156504
vt 0.765544 0.156583
vt 0.765484 0.158314
vt 0.763624 0.158176
vt 0.767364 0.156573
vt 0.769095 0.156484
vt 0.769095 0.158057
vt 0.767354 0.158255
vt 0.770688 0.156375
vt 0.772044 0.156375
vt 0.771648 0.157394
vt 0.770639 0.157751
vt 0.774033 0.153219
vt 0.774191 0.151250
vt 0.773637 0.155059
vt 0.773063 0.156672
vt 0.772182 0.157968
vt 0.770886 0.158819
vt 0.769254 0.159343
vt 0.767404 0.159670
vt 0.765435 0.159769
vt 0.763476 0.159591
vt 0.761625 0.159185
vt 0.760003 0.158601
vt 0.758717 0.157721
vt 0.757876 0.156395
vt 0.757351 0.154763
vt 0.757025 0.152902
vt 0.756916 0.150934
vt 0.757074 0.148965
vt 0.757460 0.147134
vt 0.758034 0.145512
vt 0.758915 0.144235
vt 0.760221 0.143394
vt 0.761863 0.142860
vt 0.763713 0.142533
vt 0.765682 0.142415
vt 0.767651 0.142583
vt 0.769491 0.142969
vt 0.771104 0.143562
vt 0.772390 0.144453
vt 0.773231 0.145779
vt 0.773756 0.147411
vt 0.774092 0.149281
vt 0.044092 0.424775
vt 0.041628 0.424775
vt 0.044092 0.424370
vt 0.041628 0.424380
vt 0.046545 0.424360
vt 0.046545 0.424765
vt 0.044151 0.441813
vt 0.046605 0.441932
vt 0.775972 0.158324
vt 0.776249 0.158493
vt 0.774616 0.160412
vt 0.774369 0.160184
vt 0.777169 0.156158
vt 0.777486 0.156286
vt 0.041687 0.441744
vt 0.048999 0.424765
vt 0.048999 0.424350
vt 0.051453 0.424340
vt 0.051453 0.424756
vt 0.049068 0.442100
vt 0.051522 0.442269
vt 0.772430 0.161708
vt 0.772618 0.161985
vt 0.770362 0.163123
vt 0.770213 0.162826
vt 0.053917 0.424756
vt 0.053917 0.424330
vt 0.056380 0.424320
vt 0.056380 0.424746
vt 0.053976 0.442447
vt 0.056440 0.442625
vt 0.767839 0.163489
vt 0.767918 0.163825
vt 0.765395 0.164023
vt 0.765375 0.163687
vt 0.058834 0.424746
vt 0.058834 0.424310
vt 0.061298 0.424310
vt 0.061298 0.424736
vt 0.058903 0.442793
vt 0.061367 0.442971
vt 0.762912 0.163410
vt 0.762872 0.163736
vt 0.760448 0.162984
vt 0.760557 0.162658
vt 0.063762 0.424716
vt 0.063762 0.424300
vt 0.066206 0.424291
vt 0.066215 0.424716
vt 0.063831 0.443139
vt 0.066295 0.443298
vt 0.758390 0.161471
vt 0.758222 0.161777
vt 0.756273 0.160135
vt 0.756500 0.159888
vt 0.068669 0.424706
vt 0.068669 0.424281
vt 0.071133 0.424271
vt 0.071133 0.424706
vt 0.068738 0.443446
vt 0.071202 0.443604
vt 0.754967 0.157948
vt 0.754690 0.158146
vt 0.753522 0.155890
vt 0.753839 0.155752
vt 0.073587 0.424696
vt 0.073587 0.424261
vt 0.076050 0.424251
vt 0.076050 0.424686
vt 0.073666 0.443723
vt 0.076120 0.443822
vt 0.753176 0.153377
vt 0.752830 0.153447
vt 0.752612 0.150924
vt 0.752958 0.150914
vt 0.078514 0.424676
vt 0.078514 0.424241
vt 0.080968 0.424231
vt 0.080968 0.424676
vt 0.078583 0.443881
vt 0.081047 0.443911
vt 0.753245 0.148470
vt 0.752889 0.148411
vt 0.753661 0.145987
vt 0.753977 0.146125
vt 0.083422 0.424667
vt 0.083422 0.424211
vt 0.085876 0.424201
vt 0.085876 0.424657
vt 0.083501 0.443901
vt 0.085955 0.443862
vt 0.755175 0.143958
vt 0.754878 0.143770
vt 0.756520 0.141821
vt 0.756758 0.142088
vt 0.088339 0.424647
vt 0.088339 0.424192
vt 0.090793 0.424182
vt 0.090803 0.424627
vt 0.088409 0.443782
vt 0.090872 0.443674
vt 0.758697 0.140565
vt 0.758519 0.140258
vt 0.760794 0.139110
vt 0.760893 0.139437
vt 0.093257 0.424617
vt 0.093257 0.424172
vt 0.095721 0.424162
vt 0.095721 0.424607
vt 0.093336 0.443535
vt 0.095790 0.443357
vt 0.763278 0.138774
vt 0.763238 0.138427
vt 0.765771 0.138230
vt 0.765732 0.138576
vt 0.019504 0.424884
vt 0.017040 0.424894
vt 0.019504 0.424449
vt 0.017040 0.424449
vt 0.021958 0.424439
vt 0.021958 0.424864
vt 0.019553 0.443436
vt 0.022017 0.443209
vt 0.768195 0.138863
vt 0.768284 0.138536
vt 0.770708 0.139308
vt 0.770560 0.139615
vt 0.017109 0.443644
vt 0.024421 0.424854
vt 0.024421 0.424429
vt 0.026885 0.424419
vt 0.026885 0.424845
vt 0.024481 0.442951
vt 0.026935 0.442684
vt 0.772727 0.140812
vt 0.772944 0.140555
vt 0.774884 0.142197
vt 0.774626 0.142405
vt 0.029339 0.424835
vt 0.029339 0.424409
vt 0.031803 0.424409
vt 0.031803 0.424815
vt 0.029398 0.442407
vt 0.031862 0.442170
vt 0.776170 0.144344
vt 0.776477 0.144196
vt 0.777624 0.146452
vt 0.777308 0.146541
vt 0.034257 0.424805
vt 0.034257 0.424399
vt 0.036710 0.424389
vt 0.036710 0.424795
vt 0.034306 0.441962
vt 0.036770 0.441813
vt 0.777990 0.148915
vt 0.778317 0.148885
vt 0.778534 0.151389
vt 0.778198 0.151379
vt 0.039174 0.424785
vt 0.039174 0.424380
vt 0.039224 0.441744
vt 0.777921 0.153823
vt 0.778248 0.153892
vt 0.775754 0.158186
vt 0.776932 0.156078
vt 0.774201 0.160026
vt 0.772291 0.161510
vt 0.770134 0.162589
vt 0.767789 0.163232
vt 0.765366 0.163430
vt 0.762941 0.163153
vt 0.760626 0.162421
vt 0.758499 0.161273
vt 0.756659 0.159710
vt 0.755175 0.157830
vt 0.754067 0.155663
vt 0.753414 0.153338
vt 0.753226 0.150914
vt 0.753493 0.148500
vt 0.754215 0.146194
vt 0.755373 0.144087
vt 0.756916 0.142237
vt 0.758806 0.140753
vt 0.760963 0.139674
vt 0.763298 0.139031
vt 0.765722 0.138823
vt 0.768146 0.139110
vt 0.770471 0.139832
vt 0.772588 0.141010
vt 0.774448 0.142553
vt 0.775952 0.144443
vt 0.777060 0.146610
vt 0.777723 0.148935
vt 0.777921 0.151359
vt 0.777654 0.153773
s 1
f 122/1/1 450/2/2 106/3/3 434/4/4
f 323/5/5 122/1/1 434/4/4 44/6/6
f 122/1/1 323/5/5 43/7/7 448/8/8
f 450/2/2 122/1/1 448/8/8 120/9/9
f 123/10/10 451/11/11 107/12/12 435/13/13
f 324/14/14 123/10/10 435/13/13 45/15/15
f 123/10/10 324/14/14 44/6/6 434/4/4
f 451/11/11 123/10/10 434/4/4 106/3/3
f 124/16/16 452/17/17 108/18/18 436/19/19
f 325/20/20 124/16/16 436/19/19 46/21/21
f 124/16/16 325/20/20 45/15/15 435/13/13
f 452/17/17 124/16/16 435/13/13 107/12/12
f 125/22/22 453/23/23 109/24/24 437/25/25
f 326/26/26 125/22/22 437/25/25 47/27/27
f 125/22/22 326/26/26 46/21/21 436/19/19
f 453/23/23 125/22/22 436/19/19 108/18/18
f 126/28/28 454/29/29 110/30/30 438/31/31
f 327/32/32 126/28/28 438/31/31 48/33/33
f 126/28/28 327/32/32 47/27/27 437/25/25
f 454/29/29 126/28/28 437/25/25 109/24/24
f 127/34/34 455/35/35 111/36/36 439/37/37
f 328/38/38 127/34/34 439/37/37 49/39/39
f 127/34/34 328/38/38 48/33/33 438/31/31
f 455/35/35 127/34/34 438/31/31 110/30/30
f 128/40/40 456/41/41 112/42/42 440/43/43
f 329/44/44 128/40/40 440/43/43 50/45/45
f 128/40/40 329/44/44 49/39/39 439/37/37
f 456/41/41 128/40/40 439/37/37 111/36/36
f 129/46/46 457/47/47 113/48/48 441/49/49
f 330/50/50 129/46/46 441/49/49 51/51/51
f 129/46/46 330/50/50 50/45/45 440/43/43
f 457/47/47 129/46/46 440/43/43 112/42/42
f 130/52/52 458/53/53 114/54/54 442/55/55
f 331/56/56 130/52/52 442/55/55 52/57/57
f 130/52/52 331/56/56 51/51/51 441/49/49
f 458/53/53 130/52/52 441/49/49 113/48/48
f 131/58/58 459/59/59 115/60/60 443/61/61
f 332/62/62 131/58/58 443/61/61 53/63/63
f 131/58/58 332/62/62 52/57/57 442/55/55
f 459/59/59 131/58/58 442/55/55 114/54/54
f 132/64/64 460/65/65 116/66/66 444/67/67
f 333/68/68 132/64/64 444/67/67 54/69/69
f 132/64/64 333/68/68 53/63/63 443/61/61
f 460/65/65 132/64/64 443/61/61 115/60/60
f 133/70/70 461/71/71 117/72/72 445/73/73
f 334/74/74 133/70/70 445/73/73 55/75/75
f 133/70/70 334/74/74 54/69/69 444/67/67
f 461/71/71 133/70/70 444/67/67 116/66/66
f 134/76/76 462/77/77 118/78/78 446/79/79
f 335/80/80 134/76/76 446/79/79 56/81/81
f 134/76/76 335/80/80 55/75/75 445/73/73
f 462/77/77 134/76/76 445/73/73 117/72/72
f 135/82/82 463/83/83 119/84/84 447/85/85
f 336/86/86 135/82/82 447/85/85 57/87/87
f 135/82/82 336/86/86 56/81/81 446/79/79
f 463/83/83 135/82/82 446/79/79 118/78/78
f 136/88/88 464/89/89 121/90/90 322/91/91
f 337/92/92 136/88/88 322/91/91 42/93/93
f 136/88/88 337/92/92 57/87/87 447/85/85
f 464/89/89 136/88/88 447/85/85 119/84/84
f 137/94/94 465/95/95 120/9/9 448/8/8
f 320/96/96 137/94/94 448/8/8 43/7/7
f 137/94/94 320/96/96 42/93/93 322/91/91
f 465/95/95 137/94/94 322/91/91 121/90/90
f 138/97/97 403/98/98 76/99/99 372/100/100
f 402/101/98 138/97/97 372/100/100 77/102/99
f 138/97/97 402/101/98 74/103/101 370/104/101
f 403/98/98 138/97/97 370/104/101 75/105/101
f 139/106/102 405/107/102 75/105/101 370/104/101
f 404/108/102 139/106/102 370/104/101 74/103/101
f 139/106/102 404/108/102 78/109/103 374/110/104
f 405/107/102 139/106/102 374/110/104 79/111/105
f 140/112/106 407/113/106 79/111/105 374/110/104
f 406/114/107 140/112/106 374/110/104 78/109/103
f 140/112/106 406/114/107 80/115/108 376/116/109
f 407/113/106 140/112/106 376/116/109 81/117/109
f 141/118/110 409/119/111 81/117/109 376/116/109
f 408/120/110 141/118/110 376/116/109 80/115/108
f 141/118/110 408/120/110 82/121/112 378/122/112
f 409/119/111 141/118/110 378/122/112 83/123/113
f 142/124/114 411/125/115 83/123/113 378/122/112
f 410/126/115 142/124/114 378/122/112 82/121/112
f 142/124/114 410/126/115 84/127/116 380/128/117
f 411/125/115 142/124/114 380/128/117 85/129/117
f 143/130/118 413/131/118 85/129/117 380/128/117
f 412/132/119 143/130/118 380/128/117 84/127/116
f 143/130/118 412/132/119 86/133/120 382/134/120
f 413/131/118 143/130/118 382/134/120 87/135/121
f 144/136/122 415/137/123 87/135/121 382/134/120
f 414/138/124 144/136/122 382/134/120 86/133/120
f 144/136/122 414/138/124 88/139/125 384/140/126
f 415/137/123 144/136/122 384/140/126 89/141/127
f 145/142/128 417/143/129 89/141/127 384/140/126
f 416/144/128 145/142/128 384/140/126 88/139/125
f 145/142/128 416/144/128 90/145/130 386/146/131
f 417/143/129 145/142/128 386/146/131 91/147/132
f 146/148/133 419/149/134 91/147/132 386/146/131
f 418/150/133 146/148/133 386/146/131 90/145/130
f 146/148/133 418/150/133 92/151/135 388/152/135
f 419/149/134 146/148/133 388/152/135 93/153/135
f 147/154/136 421/155/136 93/153/135 388/152/135
f 420/156/137 147/154/136 388/152/135 92/151/135
f 147/154/136 420/156/137 94/157/138 390/158/139
f 421/155/136 147/154/136 390/158/139 95/159/138
f 148/160/140 423/161/141 95/159/138 390/158/139
f 422/162/140 148/160/140 390/158/139 94/157/138
f 148/160/140 422/162/140 96/163/142 392/164/142
f 423/161/141 148/160/140 392/164/142 97/165/142
f 149/166/143 425/167/144 97/168/142 392/169/142
f 424/170/145 149/166/143 392/169/142 96/171/142
f 149/166/143 424/170/145 98/172/146 394/173/146
f 425/167/144 149/166/143 394/173/146 99/174/147
f 150/175/148 427/176/149 99/174/147 394/173/146
f 426/177/148 150/175/148 394/173/146 98/172/146
f 150/175/148 426/177/148 100/178/150 396/179/151
f 427/176/149 150/175/148 396/179/151 101/180/151
f 151/181/152 429/182/153 101/180/151 396/179/151
f 428/183/154 151/181/152 396/179/151 100/178/150
f 151/181/152 428/183/154 102/184/155 398/185/155
f 429/182/153 151/181/152 398/185/155 103/186/156
f 152/187/157 431/188/157 103/186/156 398/185/155
f 430/189/158 152/187/157 398/185/155 102/184/155
f 152/187/157 430/189/158 104/190/159 400/191/160
f 431/188/157 152/187/157 400/191/160 105/192/160
f 153/193/161 433/194/161 105/192/160 400/191/160
f 432/195/162 153/193/161 400/191/160 104/190/159
f 153/193/161 432/195/162 77/102/99 372/100/100
f 433/194/161 153/193/161 372/100/100 76/99/99
f 154/196/163 280/197/164 23/198/165 283/199/166
f 282/200/167 154/196/163 283/199/166 22/201/168
f 154/196/163 282/200/167 17/202/169 281/203/170
f 280/197/164 154/196/163 281/203/170 18/204/171
f 155/205/172 284/206/173 24/207/174 286/208/175
f 280/197/164 155/205/172 286/208/175 23/198/165
f 155/205/172 280/197/164 18/204/171 285/209/176
f 284/206/173 155/205/172 285/209/176 19/210/177
f 156/211/178 287/212/179 25/213/180 289/214/181
f 284/206/173 156/211/178 289/214/181 24/207/174
f 156/211/178 284/206/173 19/210/177 288/215/182
f 287/212/179 156/211/178 288/215/182 20/216/183
f 157/217/184 290/218/185 26/219/186 292/220/187
f 287/212/179 157/217/184 292/220/187 25/213/180
f 157/217/184 287/212/179 20/216/183 291/221/188
f 290/218/185 157/217/184 291/221/188 21/222/189
f 158/223/190 293/224/191 28/225/192 295/226/193
f 294/227/194 158/223/190 295/226/193 27/228/195
f 158/223/190 294/227/194 22/201/168 283/199/166
f 293/224/191 158/223/190 283/199/166 23/198/165
f 159/229/196 296/230/197 29/231/198 297/232/199
f 293/224/191 159/229/196 297/232/199 28/225/192
f 159/229/196 293/224/191 23/198/165 286/208/175
f 296/230/197 159/229/196 286/208/175 24/207/174
f 160/233/200 298/234/201 30/235/202 299/236/203
f 296/230/197 160/233/200 299/236/203 29/231/198
f 160/233/200 296/230/197 24/207/174 289/214/181
f 298/234/201 160/233/200 289/214/181 25/213/180
f 161/237/204 300/238/205 31/239/206 301/240/207
f 298/234/201 161/237/204 301/240/207 30/235/202
f 161/237/204 298/234/201 25/213/180 292/220/187
f 300/238/205 161/237/204 292/220/187 26/219/186
f 162/241/208 302/242/209 33/243/210 304/244/211
f 303/245/212 162/241/208 304/244/211 32/246/213
f 162/241/208 303/245/212 27/228/195 295/226/193
f 302/242/209 162/241/208 295/226/193 28/225/192
f 163/247/214 305/248/215 34/249/216 306/250/217
f 302/242/209 163/247/214 306/250/217 33/243/210
f 163/247/214 302/242/209 28/225/192 297/232/199
f 305/248/215 163/247/214 297/232/199 29/231/198
f 164/251/218 307/252/219 35/253/220 308/254/221
f 305/248/215 164/251/218 308/254/221 34/249/216
f 164/251/218 305/248/215 29/231/198 299/236/203
f 307/252/219 164/251/218 299/236/203 30/235/202
f 165/255/222 309/256/223 36/257/224 310/258/225
f 307/252/219 165/255/222 310/258/225 35/253/220
f 165/255/222 307/252/219 30/235/202 301/240/207
f 309/256/223 165/255/222 301/240/207 31/239/206
f 166/259/226 311/260/227 38/261/228 313/262/229
f 312/263/230 166/259/226 313/262/229 37/264/231
f 166/259/226 312/263/230 32/246/213 304/244/211
f 311/260/227 166/259/226 304/244/211 33/243/210
f 167/265/232 314/266/233 39/267/234 315/268/235
f 311/260/227 167/265/232 315/268/235 38/261/228
f 167/265/232 311/260/227 33/243/210 306/250/217
f 314/266/233 167/265/232 306/250/217 34/249/216
f 168/269/236 316/270/237 40/271/238 317/272/239
f 314/266/233 168/269/236 317/272/239 39/267/234
f 168/269/236 314/266/233 34/249/216 308/254/221
f 316/270/237 168/269/236 308/254/221 35/253/220
f 169/273/240 318/274/241 41/275/242 319/276/243
f 316/270/237 169/273/240 319/276/243 40/271/238
f 169/273/240 316/270/237 35/253/220 310/258/225
f 318/274/241 169/273/240 310/258/225 36/257/224
f 170/277/244 338/278/245 42/93/93 320/96/96
f 339/279/246 170/277/244 320/96/96 43/7/7
f 170/277/244 339/279/246 36/257/224 309/256/223
f 338/278/245 170/277/244 309/256/223 31/239/206
f 171/280/247 339/279/246 43/7/7 323/5/5
f 340/281/248 171/280/247 323/5/5 44/6/6
f 171/280/247 340/281/248 41/275/242 318/274/241
f 339/279/246 171/280/247 318/274/241 36/257/224
f 172/282/249 319/276/243 41/275/242 340/281/248
f 324/14/14 172/282/249 340/281/248 44/6/6
f 172/282/249 324/14/14 45/15/15 341/283/250
f 319/276/243 172/282/249 341/283/250 40/271/238
f 173/284/251 341/283/250 45/15/15 325/20/20
f 342/285/252 173/284/251 325/20/20 46/21/21
f 173/284/251 342/285/252 39/267/234 317/272/239
f 341/283/250 173/284/251 317/272/239 40/271/238
f 174/286/253 342/285/252 46/21/21 326/26/26
f 343/287/254 174/286/253 326/26/26 47/27/27
f 174/286/253 343/287/254 38/261/228 315/268/235
f 342/285/252 174/286/253 315/268/235 39/267/234
f 175/288/255 343/287/254 47/27/27 327/32/32
f 344/289/256 175/288/255 327/32/32 48/33/33
f 175/288/255 344/289/256 37/264/231 313/262/229
f 343/287/254 175/288/255 313/262/229 38/261/228
f 176/290/257 312/263/230 37/264/231 344/289/256
f 328/38/38 176/290/257 344/289/256 48/33/33
f 176/290/257 328/38/38 49/39/39 345/291/258
f 312/263/230 176/290/257 345/291/258 32/246/213
f 177/292/259 345/291/258 49/39/39 329/44/44
f 346/293/260 177/292/259 329/44/44 50/45/45
f 177/292/259 346/293/260 27/228/195 303/245/212
f 345/291/258 177/292/259 303/245/212 32/246/213
f 178/294/261 294/227/194 27/228/195 346/293/260
f 330/50/50 178/294/261 346/293/260 50/45/45
f 178/294/261 330/50/50 51/51/51 347/295/262
f 294/227/194 178/294/261 347/295/262 22/201/168
f 179/296/263 347/295/262 51/51/51 331/56/56
f 348/297/264 179/296/263 331/56/56 52/57/57
f 179/296/263 348/297/264 17/202/169 282/200/167
f 347/295/262 179/296/263 282/200/167 22/201/168
f 180/298/265 281/203/170 17/202/169 348/297/264
f 332/62/62 180/298/265 348/297/264 52/57/57
f 180/298/265 332/62/62 53/63/63 349/299/266
f 281/203/170 180/298/265 349/299/266 18/204/171
f 181/300/267 285/209/176 18/204/171 349/299/266
f 333/68/68 181/300/267 349/299/266 53/63/63
f 181/300/267 333/68/68 54/69/69 350/301/268
f 285/209/176 181/300/267 350/301/268 19/210/177
f 182/302/269 288/215/182 19/210/177 350/301/268
f 334/74/74 182/302/269 350/301/268 54/69/69
f 182/302/269 334/74/74 55/75/75 351/303/270
f 288/215/182 182/302/269 351/303/270 20/216/183
f 183/304/271 351/303/270 55/75/75 335/80/80
f 352/305/272 183/304/271 335/80/80 56/81/81
f 183/304/271 352/305/272 21/222/189 291/221/188
f 351/303/270 183/304/271 291/221/188 20/216/183
f 184/306/273 290/218/185 21/222/189 352/305/272
f 336/86/86 184/306/273 352/305/272 56/81/81
f 184/306/273 336/86/86 57/87/87 353/307/274
f 290/218/185 184/306/273 353/307/274 26/219/186
f 185/308/275 353/307/274 57/87/87 337/92/92
f 338/278/245 185/308/275 337/92/92 42/93/93
f 185/308/275 338/278/245 31/239/206 300/238/205
f 353/307/274 185/308/275 300/238/205 26/219/186
f 186/309/276 402/101/98 77/102/99 373/310/277
f 354/311/278 186/309/276 373/310/277 1/312/279
f 186/309/276 354/311/278 2/313/280 249/314/281
f 402/101/98 186/309/276 249/314/281 74/103/101
f 187/315/282 403/98/98 75/105/101 371/316/283
f 248/317/284 187/318/282 371/319/283 59/320/285
f 187/318/282 248/317/284 58/321/286 250/322/287
f 403/98/98 187/315/282 250/323/287 76/99/99
f 188/324/288 404/108/102 74/103/101 249/314/281
f 355/325/289 188/324/288 249/314/281 2/313/280
f 188/324/288 355/325/289 3/326/104 252/327/103
f 404/108/102 188/324/288 252/327/103 78/109/103
f 189/328/290 405/107/102 79/111/105 375/329/291
f 251/330/292 189/331/290 375/332/291 60/333/293
f 189/331/290 251/330/292 59/320/285 371/319/283
f 405/107/102 189/328/290 371/316/283 75/105/101
f 190/334/294 406/114/107 78/109/103 252/327/103
f 356/335/295 190/334/294 252/327/103 3/326/104
f 190/334/294 356/335/295 4/336/296 254/337/297
f 406/114/107 190/334/294 254/337/297 80/115/108
f 191/338/298 407/113/106 81/117/109 377/339/299
f 253/340/300 191/341/298 377/342/299 61/343/301
f 191/341/298 253/340/300 60/333/293 375/332/291
f 407/113/106 191/338/298 375/329/291 79/111/105
f 192/344/110 408/120/110 80/115/108 254/337/297
f 357/345/110 192/344/110 254/337/297 4/336/296
f 192/344/110 357/345/110 5/346/112 256/347/112
f 408/120/110 192/344/110 256/347/112 82/121/112
f 193/348/302 409/119/111 83/123/113 379/349/303
f 255/350/304 193/351/302 379/352/303 62/353/305
f 193/351/302 255/350/304 61/343/301 377/342/299
f 409/119/111 193/348/302 377/339/299 81/117/109
f 194/354/115 410/126/115 82/121/112 256/347/112
f 358/355/115 194/354/115 256/347/112 5/346/112
f 194/354/115 358/355/115 6/356/306 258/357/307
f 410/126/115 194/354/115 258/357/307 84/127/116
f 195/358/308 411/125/115 85/129/117 381/359/309
f 257/360/310 195/361/308 381/362/309 63/363/311
f 195/361/308 257/360/310 62/353/305 379/352/303
f 411/125/115 195/358/308 379/349/303 83/123/113
f 196/364/312 412/132/119 84/127/116 258/357/307
f 359/365/312 196/364/312 258/357/307 6/356/306
f 196/364/312 359/365/312 7/366/313 260/367/121
f 412/132/119 196/364/312 260/367/121 86/133/120
f 197/368/314 413/131/118 87/135/121 383/369/315
f 259/370/316 197/371/314 383/372/315 64/373/317
f 197/371/314 259/370/316 63/363/311 381/362/309
f 413/131/118 197/368/314 381/359/309 85/129/117
f 198/374/318 414/138/124 86/133/120 260/367/121
f 360/375/319 198/374/318 260/367/121 7/366/313
f 198/374/318 360/375/319 8/376/320 262/377/321
f 414/138/124 198/374/318 262/377/321 88/139/125
f 199/378/322 415/137/123 89/141/127 385/379/323
f 261/380/324 199/381/322 385/382/323 65/383/325
f 199/381/322 261/380/324 64/373/317 383/372/315
f 415/137/123 199/378/322 383/369/315 87/135/121
f 200/384/326 416/144/128 88/139/125 262/377/321
f 361/385/327 200/384/326 262/377/321 8/376/320
f 200/384/326 361/385/327 9/386/130 264/387/130
f 416/144/128 200/384/326 264/387/130 90/145/130
f 201/388/328 417/143/129 91/147/132 387/389/329
f 263/390/330 201/391/328 387/392/329 66/393/331
f 201/391/328 263/390/330 65/383/325 385/382/323
f 417/143/129 201/388/328 385/379/323 89/141/127
f 202/394/133 418/150/133 90/145/130 264/387/130
f 362/395/133 202/394/133 264/387/130 9/386/130
f 202/394/133 362/395/133 10/396/135 265/397/135
f 418/150/133 202/394/133 265/397/135 92/151/135
f 203/398/332 419/149/134 93/153/135 389/399/333
f 266/400/334 203/401/332 389/402/333 67/403/335
f 203/401/332 266/400/334 66/393/331 387/392/329
f 419/149/134 203/398/332 387/389/329 91/147/132
f 204/404/136 420/156/137 92/151/135 265/397/135
f 363/405/136 204/404/136 265/397/135 10/396/135
f 204/404/136 363/405/136 11/406/336 267/407/138
f 420/156/137 204/404/136 267/407/138 94/157/138
f 205/408/337 421/155/136 95/159/138 391/409/338
f 268/410/339 205/411/337 391/412/338 68/413/340
f 205/411/337 268/410/339 67/403/335 389/402/333
f 421/155/136 205/408/337 389/399/333 93/153/135
f 206/414/341 422/162/140 94/157/138 267/407/138
f 364/415/140 206/414/341 267/407/138 11/406/336
f 206/414/341 364/415/140 12/416/342 269/417/343
f 422/162/140 206/414/341 269/417/343 96/163/142
f 207/418/344 423/161/141 97/165/142 393/419/345
f 270/420/346 207/421/344 393/422/345 69/423/347
f 207/421/344 270/420/346 68/413/340 391/412/338
f 423/161/141 207/418/344 391/409/338 95/159/138
f 208/424/348 424/170/145 96/171/142 269/425/343
f 365/426/349 208/424/348 269/425/343 12/427/342
f 208/424/348 365/426/349 13/428/350 271/429/146
f 424/170/145 208/424/348 271/429/146 98/172/146
f 209/430/351 425/167/144 99/174/147 395/431/352
f 272/432/353 209/433/351 395/434/352 70/435/354
f 209/433/351 272/432/353 69/423/347 393/422/345
f 425/167/144 209/430/351 393/436/345 97/168/142
f 210/437/148 426/177/148 98/172/146 271/429/146
f 366/438/355 210/437/148 271/429/146 13/428/350
f 210/437/148 366/438/355 14/439/356 273/440/357
f 426/177/148 210/437/148 273/440/357 100/178/150
f 211/441/358 427/176/149 101/180/151 397/442/359
f 274/443/360 211/444/358 397/445/359 71/446/361
f 211/444/358 274/443/360 70/435/354 395/434/352
f 427/176/149 211/441/358 395/431/352 99/174/147
f 212/447/362 428/183/154 100/178/150 273/440/357
f 367/448/362 212/447/362 273/440/357 14/439/356
f 212/447/362 367/448/362 15/449/363 275/450/155
f 428/183/154 212/447/362 275/450/155 102/184/155
f 213/451/364 429/182/153 103/186/156 399/452/365
f 276/453/366 213/454/364 399/455/365 72/456/367
f 213/454/364 276/453/366 71/446/361 397/445/359
f 429/182/153 213/451/364 397/442/359 101/180/151
f 214/457/368 430/189/158 102/184/155 275/450/155
f 368/458/368 214/457/368 275/450/155 15/449/363
f 214/457/368 368/458/368 16/459/369 277/460/370
f 430/189/158 214/457/368 277/460/370 104/190/159
f 215/461/371 431/188/157 105/192/160 401/462/372
f 278/463/373 215/464/371 401/465/372 73/466/374
f 215/464/371 278/463/373 72/456/367 399/455/365
f 431/188/157 215/461/371 399/452/365 103/186/156
f 216/467/375 432/195/162 104/190/159 277/460/370
f 369/468/376 216/467/375 277/460/370 16/459/369
f 216/467/375 369/468/376 1/312/279 373/310/277
f 432/195/162 216/467/375 373/310/277 77/102/99
f 217/469/377 433/194/161 76/99/99 250/323/287
f 279/470/378 217/471/377 250/322/287 58/321/286
f 217/471/377 279/470/378 73/466/374 401/465/372
f 433/194/161 217/469/377 401/462/372 105/192/160
f 218/472/379 450/2/2 120/9/9 321/473/380
f 248/317/284 218/472/379 321/473/380 58/321/286
f 218/472/379 248/317/284 59/320/285 234/474/381
f 450/2/2 218/472/379 234/474/381 106/3/3
f 219/475/382 451/11/11 106/3/3 234/474/381
f 251/330/292 219/475/382 234/474/381 59/320/285
f 219/475/382 251/330/292 60/333/293 235/476/383
f 451/11/11 219/475/382 235/476/383 107/12/12
f 220/477/384 452/17/17 107/12/12 235/476/383
f 253/340/300 220/477/384 235/476/383 60/333/293
f 220/477/384 253/340/300 61/343/301 236/478/385
f 452/17/17 220/477/384 236/478/385 108/18/18
f 221/479/386 453/23/23 108/18/18 236/478/385
f 255/350/304 221/479/386 236/478/385 61/343/301
f 221/479/386 255/350/304 62/353/305 237/480/387
f 453/23/23 221/479/386 237/480/387 109/24/24
f 222/481/388 454/29/29 109/24/24 237/480/387
f 257/360/310 222/481/388 237/480/387 62/353/305
f 222/481/388 257/360/310 63/363/311 238/482/389
f 454/29/29 222/481/388 238/482/389 110/30/30
f 223/483/390 455/35/35 110/30/30 238/482/389
f 259/370/316 223/483/390 238/482/389 63/363/311
f 223/483/390 259/370/316 64/373/317 239/484/391
f 455/35/35 223/483/390 239/484/391 111/36/36
f 224/485/392 456/41/41 111/36/36 239/484/391
f 261/380/324 224/485/392 239/484/391 64/373/317
f 224/485/392 261/380/324 65/383/325 240/486/393
f 456/41/41 224/485/392 240/486/393 112/42/42
f 225/487/394 457/47/47 112/42/42 240/486/393
f 263/390/330 225/487/394 240/486/393 65/383/325
f 225/487/394 263/390/330 66/393/331 241/488/395
f 457/47/47 225/487/394 241/488/395 113/48/48
f 226/489/396 458/53/53 113/48/48 241/488/395
f 266/400/334 226/489/396 241/488/395 66/393/331
f 226/489/396 266/400/334 67/403/335 242/490/397
f 458/53/53 226/489/396 242/490/397 114/54/54
f 227/491/398 459/59/59 114/54/54 242/490/397
f 268/410/339 227/491/398 242/490/397 67/403/335
f 227/491/398 268/410/339 68/413/340 243/492/399
f 459/59/59 227/491/398 243/492/399 115/60/60
f 228/493/400 460/65/65 115/60/60 243/492/399
f 270/420/346 228/493/400 243/492/399 68/413/340
f 228/493/400 270/420/346 69/423/347 244/494/401
f 460/65/65 228/493/400 244/494/401 116/66/66
f 229/495/402 461/71/71 116/66/66 244/494/401
f 272/432/353 229/495/402 244/494/401 69/423/347
f 229/495/402 272/432/353 70/435/354 245/496/403
f 461/71/71 229/495/402 245/496/403 117/72/72
f 230/497/404 462/77/77 117/72/72 245/496/403
f 274/443/360 230/497/404 245/496/403 70/435/354
f 230/497/404 274/443/360 71/446/361 246/498/405
f 462/77/77 230/497/404 246/498/405 118/78/78
f 231/499/406 463/83/83 118/78/78 246/498/405
f 276/453/366 231/499/406 246/498/405 71/446/361
f 231/499/406 276/453/366 72/456/367 247/500/407
f 463/83/83 231/499/406 247/500/407 119/84/84
f 232/501/408 464/89/89 119/84/84 247/500/407
f 278/463/373 232/501/408 247/500/407 72/456/367
f 232/501/408 278/463/373 73/466/374 449/502/409
f 464/89/89 232/501/408 449/502/409 121/90/90
f 233/503/410 465/95/95 121/90/90 449/502/409
f 279/470/378 233/503/410 449/502/409 73/466/374
f 233/503/410 279/470/378 58/321/286 321/473/380
f 465/95/95 233/503/410 321/473/380 120/9/9
