# PadForge: shell re-filed to the part it belongs to
o Decal-Fn-Left
v -25.587500 -4.575400 -19.071500
v -25.587500 -3.710600 -18.918200
v -23.330300 -3.715900 -18.881900
v -23.330300 -4.581800 -19.034700
v -27.844600 -4.581800 -19.034700
v -27.844600 -3.718000 -18.882200
v -25.587500 -5.439100 -19.224600
v -23.330300 -5.445700 -19.187200
v -27.844600 -5.445700 -19.187200
v -25.587500 -6.302000 -19.377600
v -23.330300 -6.308700 -19.339500
v -27.844600 -6.308700 -19.339500
v -25.587500 -7.161400 -19.556200
v -23.330300 -7.169200 -19.518100
v -27.844600 -7.167100 -19.517800
vt 0.102136 0.936971
vt 0.102136 0.923242
vt 0.137440 0.923239
vt 0.137441 0.936967
vt 0.066830 0.936967
vt 0.066831 0.923239
vt 0.102136 0.950699
vt 0.137442 0.950695
vt 0.066829 0.950695
vt 0.102136 0.964428
vt 0.137444 0.964422
vt 0.066828 0.964423
vt 0.102136 0.978163
vt 0.137440 0.978157
vt 0.066832 0.978157
vn -0.0000 0.1742 -0.9847
vn -0.0000 0.1741 -0.9847
vn 0.0164 0.1741 -0.9846
vn 0.0165 0.1741 -0.9846
vn -0.0166 0.1741 -0.9846
vn -0.0164 0.1741 -0.9846
vn 0.0168 0.1741 -0.9846
vn -0.0168 0.1741 -0.9846
vn -0.0000 0.1888 -0.9820
vn 0.0171 0.1888 -0.9819
vn -0.0171 0.1888 -0.9819
vn -0.0000 0.2034 -0.9791
vn 0.0172 0.2034 -0.9789
vn -0.0172 0.2034 -0.9789
f 1/1/1 2/2/2 3/3/3 4/4/4
f 5/5/5 6/6/6 2/2/2 1/1/1
f 7/7/1 1/1/1 4/4/4 8/8/7
f 9/9/8 5/5/5 1/1/1 7/7/1
f 10/10/9 7/7/1 8/8/7 11/11/10
f 12/12/11 9/9/8 7/7/1 10/10/9
f 13/13/12 10/10/9 11/11/10 14/14/13
f 15/15/14 12/12/11 10/10/9 13/13/12
