# Blender 4.5.3 LTS
# www.blender.org
o Starfield.044
v 41.000641 -25.305443 8.244301
v 42.123096 -25.207256 8.244289
v 41.088081 -26.304924 8.244301
v 40.504185 -25.348877 9.770576
v 38.196751 -25.550755 9.770573
v 40.591618 -26.348370 9.770576
v 38.284199 -26.550243 9.770573
v 40.296486 -26.374191 10.681759
v 41.686306 -26.252594 9.770573
v 41.598850 -25.253113 9.770573
v 42.210545 -26.206722 8.244289
v 41.373344 -26.279980 10.681767
v 39.965637 -26.403141 14.780197
v 41.285892 -25.280487 10.681759
v 39.878193 -25.403648 14.780197
v 38.845249 -25.494015 14.780197
v 38.932690 -26.493511 14.780197
v 37.420746 -25.618645 10.681759
v 37.508190 -26.618126 10.681759
v 37.104050 -25.646355 9.770573
v 37.191490 -26.645855 9.770573
v 36.573536 -25.692776 8.244293
v 37.695995 -25.594563 8.244293
v 36.660984 -26.692249 8.244293
v 37.783432 -26.594055 8.244293
v 38.583775 -26.524036 10.681759
v 38.496334 -25.524548 10.681759
v 39.433453 -26.449692 13.258385
v 39.460403 -26.447327 13.258392
v 39.346004 -25.450207 13.258385
v 39.372967 -25.447853 13.258385
v 40.209042 -25.374702 10.681759
v 44.416225 -20.066172 11.249077
v 44.318180 -20.066166 10.263306
v 44.417248 -24.716904 11.248882
v 44.318180 -20.066172 12.234833
v 44.318989 -24.736618 12.234680
v 44.031517 -20.066166 13.183098
v 44.031326 -24.768745 13.183136
v 43.563705 -20.066166 14.056305
v 43.561817 -24.812244 14.056664
v 42.935986 -20.066166 14.822678
v 42.932102 -24.865189 14.823433
v 42.169613 -20.066172 15.450401
v 42.163815 -24.925674 15.451523
v 41.296406 -20.066174 15.918205
v 41.289093 -24.991226 15.919640
v 40.348156 -20.066166 16.204872
v 40.340019 -25.059349 16.206459
v 39.362385 -20.066172 16.302910
v 39.354012 -25.127422 16.304558
v 38.376617 -20.066166 16.204872
v 38.368523 -25.192822 16.206459
v 37.428368 -20.066174 15.918205
v 37.421204 -25.253082 15.919617
v 36.555157 -20.066174 15.450401
v 36.549599 -25.305759 15.451485
v 35.788788 -20.066166 14.822678
v 35.785130 -25.349041 14.823387
v 35.161076 -20.066166 14.056305
v 35.159092 -25.381123 14.056702
v 34.693264 -20.066166 13.183098
v 34.692497 -25.401043 13.183250
v 34.406597 -20.066174 12.234833
v 34.406277 -25.407841 12.234917
v 34.308567 -20.066174 11.249077
v 34.308342 -25.401421 11.249107
v 34.406597 -20.066166 10.263306
v 34.406586 -25.381702 10.263313
v 34.693264 -20.066174 9.315048
v 34.693050 -25.349773 9.315098
v 35.161076 -20.066174 8.441849
v 35.159771 -25.306709 8.442089
v 35.788788 -20.066174 7.675476
v 35.785851 -25.254322 7.676056
v 36.555157 -20.066174 7.047752
v 36.550388 -25.194408 7.048691
v 37.428368 -20.066174 6.579941
v 37.421963 -25.129368 6.581192
v 38.376617 -20.066174 6.293282
v 38.369148 -25.061565 6.294724
v 39.362385 -20.066166 6.195236
v 39.354393 -24.993633 6.196796
v 40.348156 -20.066174 6.293282
v 40.340195 -24.928173 6.294838
v 41.296406 -20.066174 6.579941
v 41.289070 -24.867634 6.581360
v 42.169613 -20.066172 7.047752
v 42.163620 -24.814484 7.048935
v 42.935982 -20.066172 7.675476
v 42.931717 -24.770649 7.676304
v 43.563705 -20.066172 8.441849
v 43.561237 -24.738018 8.442333
v 44.031521 -20.066172 9.315048
v 44.030697 -24.717640 9.315212
v 44.030628 -25.112038 9.315220
v 44.318611 -24.710598 10.263229
v 44.318649 -25.105083 10.263222
v 44.417370 -25.111454 11.248852
v 43.827888 -25.139614 10.361286
v 43.916744 -25.145340 11.248554
v 42.771683 -25.213673 10.553959
v 43.568512 -25.145874 9.507843
v 42.584007 -25.217552 9.887489
v 43.145618 -25.164101 8.721794
v 43.561024 -25.132278 8.442379
v 42.275875 -25.230331 9.276573
v 42.578388 -25.193371 8.031837
v 41.853230 -25.251942 8.747364
v 42.931320 -25.164776 7.676392
v 41.886127 -25.232761 7.466583
v 42.163097 -25.208488 7.049023
v 41.321903 -25.282337 8.326031
v 41.097836 -25.280556 7.045235
v 40.708542 -25.319798 8.018749
v 41.288433 -25.261517 6.581505
v 40.242619 -25.335041 6.787006
v 40.339504 -25.321968 6.294975
v 40.039749 -25.362606 7.831676
v 39.354229 -25.394020 6.698624
v 39.343594 -25.408897 7.768200
v 39.353718 -25.387413 6.196934
v 38.466503 -25.455280 6.786858
v 38.368519 -25.455402 6.294861
v 38.648064 -25.456818 7.831619
v 37.613251 -25.516453 7.044895
v 37.981133 -25.504440 8.018559
v 37.421440 -25.523304 6.581303
v 36.828262 -25.575169 7.465973
v 36.549999 -25.588482 7.048775
v 37.370758 -25.549820 8.325588
v 36.139721 -25.629257 8.031048
v 36.842541 -25.591156 8.746807
v 35.785618 -25.648529 7.676102
v 35.575863 -25.676563 8.721111
v 35.159664 -25.701046 8.442127
v 36.422176 -25.626621 9.276283
v 35.155506 -25.715431 9.507519
v 36.115578 -25.655476 9.887833
v 34.693043 -25.744194 9.315109
v 34.897461 -25.744213 10.361645
v 34.406593 -25.776134 10.263313
v 35.928833 -25.676956 10.555332
v 34.808956 -25.761967 11.249615
v 35.865414 -25.690453 11.250744
v 34.308331 -25.795849 11.249107
v 34.897144 -25.767750 12.137512
v 34.406261 -25.802273 12.234917
v 35.928841 -25.695370 11.946083
v 35.154911 -25.761616 12.991692
v 36.115597 -25.691566 12.613503
v 34.692432 -25.795460 13.183258
v 35.575115 -25.743591 13.778435
v 35.158951 -25.775448 14.056732
v 36.422127 -25.678921 13.225143
v 36.138821 -25.714584 14.469009
v 36.842392 -25.657486 13.754715
v 35.784836 -25.743237 14.823456
v 36.827129 -25.675484 15.034676
v 36.549168 -25.699825 15.451561
v 37.370342 -25.627335 14.176086
v 37.611942 -25.627937 15.456276
v 37.980450 -25.590103 14.483223
v 37.420620 -25.647030 15.919708
v 38.465187 -25.573605 15.714638
v 38.367882 -25.586704 16.206581
v 38.647202 -25.547443 14.670143
v 39.353027 -25.514671 15.802986
v 39.342663 -25.501205 14.733421
v 39.353321 -25.521290 16.304680
v 40.241615 -25.453335 15.714561
v 40.339348 -25.453239 16.206596
v 40.038948 -25.453209 14.669647
v 41.097115 -25.391987 15.455986
v 40.707962 -25.405434 14.482101
v 41.288479 -25.385178 15.919739
v 41.885731 -25.333000 15.033997
v 42.163326 -25.319740 15.451607
v 41.321690 -25.359795 14.174072
v 42.578362 -25.278610 14.467888
v 41.853451 -25.318195 13.751839
v 42.931782 -25.259396 14.823494
v 43.145969 -25.231022 13.776939
v 43.561661 -25.206589 14.056709
v 42.276436 -25.282532 13.221649
v 43.569084 -25.191948 12.990036
v 44.031326 -25.163212 13.183136
v 43.828224 -25.163086 12.136040
v 42.584660 -25.253555 12.609863
v 42.772110 -25.232033 11.942825
v 42.086651 -25.285091 12.445251
v 42.229023 -25.267708 11.860176
v 41.851425 -25.308060 12.976608
v 41.637032 -25.313942 12.325615
v 41.201050 -25.342518 12.254395
v 41.484119 -25.330479 12.792580
v 41.730316 -25.300682 11.801384
v 41.250324 -25.332710 11.765602
v 41.761829 -25.291233 11.248497
v 42.276814 -25.256371 11.248352
v 41.729313 -25.286114 10.695789
v 41.267410 -25.324707 11.248787
v 40.770432 -25.358364 11.249241
v 41.248886 -25.319118 10.732037
v 40.761585 -25.352299 10.746395
v 41.198441 -25.316063 10.243500
v 40.740997 -25.347309 10.263775
v 41.119785 -25.315670 9.811214
v 41.635178 -25.285549 10.171848
v 42.085552 -25.253475 10.052105
v 41.481850 -25.289757 9.705425
v 41.850204 -25.262390 9.521435
v 41.234406 -25.301563 9.331177
v 41.033066 -25.317665 9.518105
v 41.512421 -25.279327 9.073353
v 40.858028 -25.323772 9.083675
v 41.062309 -25.305340 8.736389
v 40.733425 -25.336727 9.426018
v 40.388851 -25.353489 8.929649
v 40.297462 -25.365173 9.345108
v 40.529255 -25.338322 8.501362
v 39.863113 -25.387844 8.835674
v 39.942612 -25.376160 8.359001
v 39.807079 -25.397701 9.294281
v 39.309441 -25.424900 8.803787
v 39.289894 -25.432480 9.276596
v 39.329479 -25.417027 8.311035
v 38.756397 -25.462769 8.836082
v 38.716938 -25.459133 8.359108
v 38.773540 -25.467682 9.295040
v 38.233036 -25.499451 8.930431
v 38.286583 -25.501328 9.346497
v 38.132160 -25.500603 8.501545
v 37.768311 -25.532951 9.084686
v 37.602264 -25.539585 8.736572
v 37.857559 -25.531448 9.427784
v 37.395481 -25.561470 9.332363
v 37.570015 -25.552139 9.519913
v 37.155144 -25.574322 9.073593
v 37.147717 -25.583199 9.707024
v 36.818604 -25.603031 9.522041
v 37.473171 -25.562576 9.813507
v 36.992828 -25.599869 10.173988
v 37.389973 -25.573940 10.246212
v 36.583702 -25.625973 10.053314
v 36.898624 -25.613190 10.698589
v 36.441513 -25.643349 10.638805
v 37.338280 -25.583904 10.735249
v 36.866917 -25.622665 11.251984
v 37.320641 -25.591953 11.252415
v 36.393692 -25.654701 11.251377
v 36.899502 -25.627789 11.805367
v 36.441898 -25.659538 11.863892
v 37.339611 -25.597515 11.769569
v 36.994438 -25.628311 12.329865
v 37.392445 -25.600422 12.258514
v 36.584389 -25.657650 12.449287
v 37.149811 -25.623974 12.796715
v 36.819473 -25.648777 12.980522
v 37.476387 -25.600468 12.691025
v 37.397846 -25.612148 13.171196
v 37.573223 -25.597797 12.984207
v 37.156075 -25.631935 13.428925
v 37.770779 -25.590183 13.418648
v 37.603096 -25.606133 13.765892
v 37.861290 -25.579517 13.076286
v 38.235493 -25.560757 13.572563
v 38.290470 -25.551529 13.157104
v 38.132793 -25.573387 14.000763
v 38.758808 -25.526573 13.666367
v 38.717434 -25.535698 14.142914
v 38.777466 -25.519234 13.207809
v 39.311794 -25.489559 13.697990
v 39.293812 -25.484509 13.225349
v 39.329914 -25.494862 14.190613
v 39.865509 -25.451637 13.665398
v 39.943123 -25.452705 14.142143
v 39.811005 -25.449245 13.206711
v 40.391289 -25.414787 13.570625
v 40.301353 -25.415359 13.154938
v 40.529915 -25.411079 13.999161
v 40.860516 -25.380962 13.415756
v 41.063210 -25.371857 13.763344
v 40.737194 -25.384773 13.073143
v 41.236881 -25.352192 13.167503
v 41.036346 -25.363293 12.980553
v 41.513546 -25.336884 13.425545
v 41.123096 -25.353531 12.687004
v 40.716869 -25.380898 12.677391
v 40.269356 -25.411644 12.710571
v 40.744049 -25.373203 12.234901
v 40.763241 -25.365501 11.752129
v 40.267960 -25.405510 12.241264
v 39.774780 -25.438995 12.247673
v 40.269833 -25.398895 11.750832
v 39.770718 -25.432697 11.751625
v 40.271099 -25.392174 11.249805
v 39.769619 -25.426132 11.250431
v 40.267986 -25.385750 10.748821
v 39.768829 -25.419544 10.749249
v 40.264675 -25.379482 10.258434
v 39.771366 -25.412807 10.253208
v 40.265289 -25.373226 9.789299
v 39.780304 -25.405773 9.767536
v 40.713020 -25.343342 9.821533
v 39.277290 -25.439720 9.759506
v 38.775414 -25.473824 9.768490
v 39.270309 -25.446697 10.250923
v 38.770702 -25.480564 10.254318
v 39.267654 -25.453476 10.749268
v 38.768066 -25.487316 10.750423
v 39.267879 -25.460110 11.251064
v 38.767723 -25.493977 11.251656
v 39.269554 -25.466640 11.752846
v 38.769955 -25.500465 11.752892
v 39.273735 -25.472961 12.251160
v 38.774094 -25.506748 12.248924
v 39.281475 -25.478943 12.742554
v 38.779587 -25.512817 12.734604
v 39.784485 -25.444771 12.733421
v 38.299652 -25.545021 12.712914
v 37.862453 -25.574188 12.680725
v 38.287399 -25.539635 12.243713
v 37.825150 -25.570862 12.238342
v 38.278099 -25.533768 11.753250
v 37.800247 -25.566147 11.755493
v 38.273739 -25.527424 11.252140
v 37.790462 -25.560146 11.252430
v 38.276291 -25.520615 10.751034
v 37.798603 -25.552937 10.749336
v 38.284130 -25.513592 10.260468
v 37.822140 -25.544945 10.266403
v 38.295574 -25.506603 9.791054
v 37.858646 -25.536613 9.823792
v 42.228390 -25.251549 10.636707
v 42.835545 -25.218536 11.248287
v 44.319069 -25.131165 12.234657
vn -0.0000 -0.0000 -1.0000
vn -0.9470 -0.0828 -0.3104
vn 0.0872 -0.9962 -0.0000
vn 0.9418 0.0824 0.3260
vn -0.0000 -0.0000 1.0000
vn -0.9406 -0.0823 0.3294
vn 0.9462 0.0828 -0.3128
vn 0.9457 0.0827 -0.3143
vn 0.0001 -0.0000 -1.0000
vn -0.9472 -0.0829 -0.3097
vn 1.0000 0.0002 -0.0002
vn 0.9806 0.0001 -0.1958
vn 0.9807 0.0001 -0.1956
vn 1.0000 0.0002 -0.0001
vn 0.9807 0.0001 0.1954
vn 0.9807 0.0002 0.1955
vn 0.9235 -0.0000 0.3835
vn 0.9237 -0.0001 0.3832
vn 0.8311 -0.0003 0.5561
vn 0.8309 -0.0003 0.5564
vn 0.7065 -0.0004 0.7077
vn 0.7068 -0.0004 0.7075
vn 0.5553 -0.0004 0.8316
vn 0.5551 -0.0005 0.8318
vn 0.3825 -0.0003 0.9240
vn 0.3827 -0.0003 0.9239
vn 0.1952 -0.0000 0.9808
vn 0.1951 -0.0000 0.9808
vn -0.0000 0.0003 1.0000
vn 0.0001 0.0003 1.0000
vn -0.1951 0.0006 0.9808
vn -0.1953 0.0006 0.9807
vn -0.3832 0.0008 0.9236
vn -0.3830 0.0008 0.9238
vn -0.5561 0.0007 0.8311
vn -0.5564 0.0008 0.8309
vn -0.7079 0.0006 0.7063
vn -0.7076 0.0006 0.7066
vn -0.8318 0.0004 0.5550
vn -0.8321 0.0004 0.5547
vn -0.9241 0.0002 0.3821
vn -0.9240 0.0002 0.3823
vn -0.9808 0.0001 0.1950
vn -0.9808 0.0001 0.1949
vn -1.0000 -0.0000 -0.0001
vn -0.9808 -0.0000 -0.1951
vn -0.9240 0.0001 -0.3823
vn -0.9240 0.0001 -0.3824
vn -0.8317 0.0002 -0.5552
vn -0.8319 0.0002 -0.5549
vn -0.7077 0.0003 -0.7066
vn -0.7074 0.0003 -0.7068
vn -0.5558 0.0003 -0.8313
vn -0.5560 0.0004 -0.8312
vn -0.3829 0.0002 -0.9238
vn -0.3828 0.0002 -0.9238
vn -0.1950 -0.0000 -0.9808
vn -0.1951 -0.0000 -0.9808
vn -0.0000 -0.0003 -1.0000
vn 0.0001 -0.0003 -1.0000
vn 0.1951 -0.0006 -0.9808
vn 0.1950 -0.0006 -0.9808
vn 0.3823 -0.0009 -0.9240
vn 0.3825 -0.0008 -0.9240
vn 0.5552 -0.0009 -0.8317
vn 0.5549 -0.0009 -0.8319
vn 0.7063 -0.0008 -0.7079
vn 0.7066 -0.0008 -0.7076
vn 0.8310 -0.0005 -0.5562
vn 0.8308 -0.0005 -0.5566
vn 0.9235 -0.0002 -0.3837
vn 0.9236 -0.0002 -0.3834
vn 0.9230 -0.0002 -0.3849
vn 0.8296 -0.0005 -0.5583
vn 0.9806 0.0001 -0.1961
vn 1.0000 0.0002 0.0006
vn 0.0675 -0.9976 -0.0132
vn 0.9225 -0.0000 0.3860
vn 0.9804 0.0002 0.1973
vn 0.8290 -0.0003 0.5592
vn 0.7037 -0.0004 0.7105
vn 0.5517 -0.0005 0.8341
vn 0.3784 -0.0003 0.9256
vn 0.1908 -0.0000 0.9816
vn -0.0044 0.0003 1.0000
vn -0.1994 0.0006 0.9799
vn -0.3869 0.0008 0.9221
vn -0.5593 0.0008 0.8290
vn -0.7100 0.0006 0.7042
vn -0.8332 0.0004 0.5530
vn -0.9245 0.0002 0.3811
vn -0.9808 0.0001 0.1948
vn -1.0000 -0.0000 0.0007
vn -0.9811 -0.0000 -0.1935
vn -0.9250 -0.0000 -0.3800
vn -0.8337 0.0002 -0.5522
vn -0.7104 0.0003 -0.7038
vn -0.5595 0.0004 -0.8288
vn -0.3870 0.0002 -0.9221
vn -0.1994 -0.0000 -0.9799
vn -0.0043 -0.0003 -1.0000
vn 0.1910 -0.0007 -0.9816
vn 0.3788 -0.0009 -0.9255
vn 0.5521 -0.0009 -0.8338
vn 0.7043 -0.0008 -0.7099
vt 0.697173 0.084079
vt 0.701445 0.084079
vt 0.701455 0.087887
vt 0.697183 0.087887
vt 0.994996 0.000009
vt 0.998802 0.000009
vt 0.998802 0.006097
vt 0.994996 0.006097
vt 0.994996 0.014891
vt 0.998802 0.014891
vt 0.687639 0.097148
vt 0.686498 0.093694
vt 0.695295 0.093684
vt 0.694174 0.097138
vt 0.699455 0.093684
vt 0.698264 0.097138
vt 0.703061 0.094906
vt 0.701869 0.098380
vt 0.705061 0.089119
vt 0.690982 0.106924
vt 0.692911 0.112701
vt 0.696527 0.113943
vt 0.692911 0.116498
vt 0.688982 0.116508
vt 0.688982 0.112701
vt 0.685387 0.113963
vt 0.679954 0.098400
vt 0.683539 0.097148
vt 0.678732 0.094946
vt 0.682337 0.093694
vt 0.676712 0.089159
vt 0.680307 0.087907
vt 0.680297 0.084100
vt 0.684569 0.084089
vt 0.684579 0.087897
vt 0.994996 0.020999
vt 0.998802 0.020999
vt 0.690881 0.106924
vt 0.332128 0.041443
vt 0.328320 0.041443
vt 0.328320 0.031138
vt 0.332128 0.031138
vt 0.455920 0.007060
vt 0.455920 0.000535
vt 0.459728 0.000535
vt 0.459728 0.007060
vt 0.332128 0.041534
vt 0.328320 0.041534
vt 0.332139 0.051808
vt 0.328320 0.051808
vt 0.870187 0.913689
vt 0.866430 0.913659
vt 0.866410 0.896036
vt 0.870167 0.896025
vt 0.873923 0.896025
vt 0.873944 0.913750
vt 0.877701 0.913871
vt 0.877680 0.896025
vt 0.881448 0.896025
vt 0.881468 0.914033
vt 0.885235 0.914225
vt 0.885204 0.896015
vt 0.888961 0.896015
vt 0.889002 0.914457
vt 0.892769 0.914699
vt 0.892718 0.896015
vt 0.896475 0.896005
vt 0.896526 0.914962
vt 0.900293 0.915214
vt 0.900242 0.896005
vt 0.779979 0.915366
vt 0.779939 0.896157
vt 0.783696 0.896157
vt 0.783746 0.915608
vt 0.787503 0.915840
vt 0.787463 0.896157
vt 0.791220 0.896157
vt 0.791260 0.916032
vt 0.795017 0.916194
vt 0.794977 0.896147
vt 0.798734 0.896147
vt 0.798774 0.916315
vt 0.802531 0.916376
vt 0.802491 0.896137
vt 0.806258 0.896137
vt 0.806288 0.916396
vt 0.810045 0.916366
vt 0.810015 0.896126
vt 0.813772 0.896116
vt 0.813812 0.916295
vt 0.817569 0.916164
vt 0.817529 0.896116
vt 0.821296 0.896106
vt 0.821326 0.915992
vt 0.825073 0.915790
vt 0.825053 0.896096
vt 0.828810 0.896096
vt 0.828830 0.915558
vt 0.832587 0.915305
vt 0.832567 0.896086
vt 0.836334 0.896076
vt 0.836334 0.915032
vt 0.840091 0.914770
vt 0.840091 0.896066
vt 0.843848 0.896066
vt 0.843848 0.914517
vt 0.847615 0.914285
vt 0.847605 0.896056
vt 0.851372 0.896046
vt 0.851382 0.914073
vt 0.855139 0.913901
vt 0.855129 0.896046
vt 0.858886 0.896036
vt 0.858906 0.913770
vt 0.862663 0.913699
vt 0.862642 0.896036
vt 0.862663 0.915194
vt 0.858906 0.915265
vt 0.866430 0.915164
vt 0.870187 0.915184
vt 0.074299 0.373645
vt 0.072401 0.373645
vt 0.072047 0.370282
vt 0.073925 0.369908
vt 0.071067 0.367040
vt 0.072825 0.366313
vt 0.068280 0.373645
vt 0.068038 0.371009
vt 0.067321 0.368494
vt 0.066149 0.366161
vt 0.069462 0.364061
vt 0.071047 0.363000
vt 0.067301 0.361445
vt 0.068654 0.360092
vt 0.064544 0.364152
vt 0.062524 0.362566
vt 0.064665 0.359294
vt 0.065725 0.357709
vt 0.061676 0.357709
vt 0.062393 0.355941
vt 0.060201 0.361395
vt 0.057646 0.360698
vt 0.058424 0.356719
vt 0.058797 0.354851
vt 0.055041 0.356386
vt 0.055041 0.354477
vt 0.054990 0.360455
vt 0.052364 0.360698
vt 0.051668 0.356729
vt 0.051294 0.354851
vt 0.048426 0.357709
vt 0.047689 0.355951
vt 0.049820 0.361395
vt 0.047497 0.362576
vt 0.045437 0.359304
vt 0.044376 0.357719
vt 0.042821 0.361455
vt 0.041468 0.360102
vt 0.045487 0.364162
vt 0.043892 0.366171
vt 0.040680 0.364081
vt 0.039085 0.363010
vt 0.039064 0.367050
vt 0.037307 0.366333
vt 0.042720 0.368494
vt 0.042013 0.371029
vt 0.038085 0.370302
vt 0.036216 0.369928
vt 0.037751 0.373665
vt 0.035843 0.373665
vt 0.041761 0.373665
vt 0.042003 0.376300
vt 0.038075 0.377038
vt 0.036216 0.377401
vt 0.039064 0.380279
vt 0.037307 0.381007
vt 0.042720 0.378835
vt 0.043881 0.381158
vt 0.040660 0.383269
vt 0.039074 0.384319
vt 0.042801 0.385884
vt 0.041448 0.387227
vt 0.045477 0.383168
vt 0.047487 0.384773
vt 0.045416 0.388025
vt 0.044356 0.389611
vt 0.048406 0.389631
vt 0.047669 0.391388
vt 0.049809 0.385935
vt 0.052344 0.386642
vt 0.051647 0.390600
vt 0.051274 0.392469
vt 0.055020 0.390944
vt 0.055020 0.392842
vt 0.054990 0.386884
vt 0.057636 0.386642
vt 0.058404 0.390600
vt 0.058777 0.392469
vt 0.061655 0.389621
vt 0.062393 0.391388
vt 0.060181 0.385925
vt 0.062514 0.384753
vt 0.064655 0.388015
vt 0.065715 0.389601
vt 0.067291 0.385874
vt 0.068634 0.387217
vt 0.064534 0.383147
vt 0.066149 0.381148
vt 0.069462 0.383248
vt 0.071037 0.384299
vt 0.071057 0.380259
vt 0.072825 0.380996
vt 0.067321 0.378815
vt 0.072047 0.377017
vt 0.073925 0.377391
vt 0.068038 0.376290
vt 0.065422 0.378199
vt 0.065978 0.375967
vt 0.064534 0.380209
vt 0.063716 0.377745
vt 0.064079 0.375755
vt 0.063140 0.379512
vt 0.062059 0.377472
vt 0.062251 0.375624
vt 0.061766 0.379118
vt 0.064190 0.373645
vt 0.066149 0.373645
vt 0.062312 0.373655
vt 0.064069 0.371554
vt 0.065968 0.371332
vt 0.062241 0.371695
vt 0.060423 0.373655
vt 0.060393 0.375563
vt 0.060383 0.371756
vt 0.060312 0.369918
vt 0.062049 0.369847
vt 0.063716 0.369565
vt 0.060211 0.368242
vt 0.061756 0.368201
vt 0.063140 0.367797
vt 0.065422 0.369110
vt 0.064534 0.367100
vt 0.062191 0.366373
vt 0.063251 0.365394
vt 0.061423 0.367080
vt 0.060282 0.366737
vt 0.060767 0.365444
vt 0.061534 0.364111
vt 0.058979 0.364859
vt 0.059504 0.363233
vt 0.058626 0.366434
vt 0.056757 0.366242
vt 0.056980 0.364495
vt 0.057283 0.362687
vt 0.054869 0.364374
vt 0.054950 0.362505
vt 0.054798 0.366171
vt 0.052839 0.366242
vt 0.052768 0.364505
vt 0.052607 0.362687
vt 0.050779 0.364859
vt 0.050395 0.363233
vt 0.050981 0.366444
vt 0.049345 0.366747
vt 0.049012 0.365454
vt 0.048375 0.364121
vt 0.047598 0.366383
vt 0.046679 0.365404
vt 0.048254 0.367100
vt 0.047881 0.368211
vt 0.046638 0.367807
vt 0.045396 0.367111
vt 0.046063 0.369585
vt 0.044497 0.369120
vt 0.047578 0.369857
vt 0.047366 0.371716
vt 0.045699 0.371574
vt 0.043952 0.371352
vt 0.045588 0.373675
vt 0.043770 0.373675
vt 0.047305 0.373675
vt 0.047376 0.375644
vt 0.045699 0.375775
vt 0.043952 0.375998
vt 0.046063 0.377765
vt 0.044497 0.378219
vt 0.047578 0.377492
vt 0.047891 0.379138
vt 0.046649 0.379532
vt 0.045396 0.380229
vt 0.047598 0.380956
vt 0.046669 0.381936
vt 0.048254 0.380249
vt 0.049355 0.380603
vt 0.049012 0.381895
vt 0.048375 0.383208
vt 0.050779 0.382481
vt 0.050385 0.384097
vt 0.050991 0.380906
vt 0.052849 0.381097
vt 0.052768 0.382834
vt 0.052607 0.384642
vt 0.054869 0.382956
vt 0.054940 0.384824
vt 0.054808 0.381158
vt 0.056768 0.381087
vt 0.056980 0.382824
vt 0.057272 0.384632
vt 0.058979 0.382471
vt 0.059504 0.384097
vt 0.058636 0.380895
vt 0.060292 0.380582
vt 0.060767 0.381885
vt 0.061534 0.383188
vt 0.062201 0.380936
vt 0.063251 0.381915
vt 0.061433 0.380219
vt 0.060221 0.379078
vt 0.060322 0.377401
vt 0.058515 0.379209
vt 0.058505 0.377421
vt 0.058515 0.375563
vt 0.056636 0.377442
vt 0.056667 0.379280
vt 0.056626 0.375563
vt 0.056626 0.373665
vt 0.058525 0.373655
vt 0.056616 0.371756
vt 0.058505 0.371756
vt 0.056626 0.369878
vt 0.058505 0.369898
vt 0.056656 0.368030
vt 0.058505 0.368120
vt 0.054728 0.369878
vt 0.054748 0.368009
vt 0.052839 0.368030
vt 0.052819 0.369888
vt 0.054707 0.371756
vt 0.052809 0.371766
vt 0.054707 0.373665
vt 0.052809 0.373665
vt 0.054717 0.375573
vt 0.052819 0.375573
vt 0.054738 0.377462
vt 0.052829 0.377452
vt 0.054758 0.379320
vt 0.052859 0.379290
vt 0.051021 0.379219
vt 0.050981 0.377432
vt 0.049224 0.377411
vt 0.049355 0.379098
vt 0.049123 0.375583
vt 0.050951 0.375573
vt 0.049092 0.373675
vt 0.050930 0.373675
vt 0.049113 0.371766
vt 0.050941 0.371766
vt 0.049214 0.369938
vt 0.050981 0.369908
vt 0.049345 0.368252
vt 0.051011 0.368120
vt 0.877711 0.915366
vt 0.873944 0.915245
vt 0.881468 0.915527
vt 0.885235 0.915719
vt 0.889002 0.915951
vt 0.892769 0.916194
vt 0.896536 0.916456
vt 0.900293 0.916709
vt 0.779989 0.916860
vt 0.783746 0.917103
vt 0.787503 0.917335
vt 0.791260 0.917527
vt 0.795017 0.917699
vt 0.798774 0.917810
vt 0.802531 0.917880
vt 0.806288 0.917901
vt 0.810055 0.917860
vt 0.813812 0.917790
vt 0.817569 0.917658
vt 0.821326 0.917487
vt 0.825083 0.917285
vt 0.828830 0.917052
vt 0.832587 0.916800
vt 0.836334 0.916527
vt 0.840091 0.916265
vt 0.843848 0.916012
vt 0.847615 0.915780
vt 0.851382 0.915568
vt 0.855139 0.915396
s 1
f 1/1/1 2/2/1 11/3/1 3/4/1
f 1/5/2 3/6/2 6/7/2 4/8/2
f 5/9/1 4/8/1 6/7/1 7/10/1
f 26/11/3 7/12/3 6/13/3 8/14/3
f 6/13/3 3/4/3 11/3/3 9/15/3
f 8/14/3 6/13/3 9/15/3 12/16/3
f 9/15/4 10/17/4 14/18/4 12/16/4
f 11/3/4 2/19/4 10/17/4 9/15/4
f 29/20/3 8/14/3 12/16/3 13/21/3
f 12/16/4 14/18/4 15/22/4 13/21/4
f 15/23/5 16/24/5 17/25/5 13/21/5
f 17/25/6 16/26/6 18/27/6 19/28/6
f 19/28/6 18/27/6 20/29/6 21/30/6
f 20/29/6 22/31/6 24/32/6 21/30/6
f 22/33/1 23/34/1 25/35/1 24/32/1
f 21/30/3 24/32/3 25/35/3 7/12/3
f 23/36/7 5/9/7 7/10/7 25/37/7
f 26/11/3 19/28/3 21/30/3 7/12/3
f 28/38/3 17/25/3 19/28/3 26/11/3
f 30/39/8 28/40/8 26/41/8 27/42/8
f 32/43/5 27/44/5 26/45/5 8/46/5
f 17/25/3 28/38/3 29/20/3 13/21/3
f 30/39/9 31/47/9 29/48/9 28/40/9
f 31/47/10 32/49/10 8/50/10 29/48/10
f 35/51/11 97/52/12 34/53/13 33/54/14
f 35/51/11 33/54/14 36/55/15 37/56/16
f 39/57/17 37/56/16 36/55/15 38/58/18
f 39/57/17 38/58/18 40/59/19 41/60/20
f 43/61/21 41/60/20 40/59/19 42/62/22
f 43/61/21 42/62/22 44/63/23 45/64/24
f 47/65/25 45/64/24 44/63/23 46/66/26
f 47/65/25 46/66/26 48/67/27 49/68/28
f 51/69/29 49/68/28 48/67/27 50/70/30
f 51/71/29 50/72/30 52/73/31 53/74/32
f 55/75/33 53/74/32 52/73/31 54/76/34
f 56/77/35 57/78/36 55/75/33 54/76/34
f 59/79/37 57/78/36 56/77/35 58/80/38
f 60/81/39 61/82/40 59/79/37 58/80/38
f 63/83/41 61/82/40 60/81/39 62/84/42
f 64/85/43 65/86/44 63/83/41 62/84/42
f 67/87/45 65/86/44 64/85/43 66/88/45
f 68/89/46 69/90/46 67/87/45 66/88/45
f 71/91/47 69/90/46 68/89/46 70/92/48
f 72/93/49 73/94/50 71/91/47 70/92/48
f 75/95/51 73/94/50 72/93/49 74/96/52
f 76/97/53 77/98/54 75/95/51 74/96/52
f 79/99/55 77/98/54 76/97/53 78/100/56
f 80/101/57 81/102/58 79/99/55 78/100/56
f 83/103/59 81/102/58 80/101/57 82/104/60
f 84/105/61 85/106/62 83/103/59 82/104/60
f 87/107/63 85/106/62 84/105/61 86/108/64
f 88/109/65 89/110/66 87/107/63 86/108/64
f 91/111/67 89/110/66 88/109/65 90/112/68
f 92/113/69 93/114/70 91/111/67 90/112/68
f 95/115/71 93/114/70 92/113/69 94/116/72
f 34/53/13 97/52/12 95/115/71 94/116/72
f 96/117/73 106/118/74 93/114/70 95/115/71
f 98/119/75 96/117/73 95/115/71 97/52/12
f 99/120/76 98/119/75 97/52/12 35/51/11
f 99/121/77 101/122/77 100/123/77 98/124/77
f 103/125/77 96/126/77 98/124/77 100/123/77
f 101/122/77 336/127/77 102/128/77 100/123/77
f 100/123/77 102/128/77 104/129/77 103/125/77
f 103/125/77 104/129/77 107/130/77 105/131/77
f 96/126/77 103/125/77 105/131/77 106/132/77
f 108/133/77 110/134/77 106/132/77 105/131/77
f 105/131/77 107/130/77 109/135/77 108/133/77
f 108/133/77 109/135/77 113/136/77 111/137/77
f 110/134/77 108/133/77 111/137/77 112/138/77
f 114/139/77 116/140/77 112/138/77 111/137/77
f 111/137/77 113/136/77 115/141/77 114/139/77
f 114/139/77 115/141/77 119/142/77 117/143/77
f 116/140/77 114/139/77 117/143/77 118/144/77
f 120/145/77 122/146/77 118/144/77 117/143/77
f 117/143/77 119/142/77 121/147/77 120/145/77
f 120/145/77 121/147/77 125/148/77 123/149/77
f 122/146/77 120/145/77 123/149/77 124/150/77
f 126/151/77 128/152/77 124/150/77 123/149/77
f 123/149/77 125/148/77 127/153/77 126/151/77
f 126/151/77 127/153/77 131/154/77 129/155/77
f 128/152/77 126/151/77 129/155/77 130/156/77
f 132/157/77 134/158/77 130/156/77 129/155/77
f 129/155/77 131/154/77 133/159/77 132/157/77
f 132/157/77 133/159/77 137/160/77 135/161/77
f 134/158/77 132/157/77 135/161/77 136/162/77
f 138/163/77 140/164/77 136/162/77 135/161/77
f 135/161/77 137/160/77 139/165/77 138/163/77
f 138/163/77 139/165/77 143/166/77 141/167/77
f 140/164/77 138/163/77 141/167/77 142/168/77
f 144/169/77 146/170/77 142/168/77 141/167/77
f 141/167/77 143/166/77 145/171/77 144/169/77
f 144/169/77 145/171/77 149/172/77 147/173/77
f 146/170/77 144/169/77 147/173/77 148/174/77
f 150/175/77 152/176/77 148/174/77 147/173/77
f 147/173/77 149/172/77 151/177/77 150/175/77
f 150/175/77 151/177/77 155/178/77 153/179/77
f 152/176/77 150/175/77 153/179/77 154/180/77
f 156/181/77 158/182/77 154/180/77 153/179/77
f 153/179/77 155/178/77 157/183/77 156/181/77
f 156/181/77 157/183/77 161/184/77 159/185/77
f 158/182/77 156/181/77 159/185/77 160/186/77
f 162/187/77 164/188/77 160/186/77 159/185/77
f 159/185/77 161/184/77 163/189/77 162/187/77
f 162/187/77 163/189/77 167/190/77 165/191/77
f 164/188/77 162/187/77 165/191/77 166/192/77
f 168/193/77 170/194/77 166/192/77 165/191/77
f 165/191/77 167/190/77 169/195/77 168/193/77
f 168/193/77 169/195/77 173/196/77 171/197/77
f 170/194/77 168/193/77 171/197/77 172/198/77
f 174/199/77 176/200/77 172/198/77 171/197/77
f 171/197/77 173/196/77 175/201/77 174/199/77
f 174/199/77 175/201/77 179/202/77 177/203/77
f 176/200/77 174/199/77 177/203/77 178/204/77
f 180/205/77 182/206/77 178/204/77 177/203/77
f 177/203/77 179/202/77 181/207/77 180/205/77
f 180/205/77 181/207/77 185/208/77 183/209/77
f 182/206/77 180/205/77 183/209/77 184/210/77
f 186/211/77 187/212/77 184/210/77 183/209/77
f 183/209/77 185/208/77 189/213/77 186/211/77
f 187/212/77 186/211/77 188/214/77 337/215/77
f 189/213/77 190/216/77 188/214/77 186/211/77
f 189/213/77 191/217/77 192/218/77 190/216/77
f 191/217/77 189/213/77 185/208/77 193/219/77
f 191/217/77 194/220/77 197/221/77 192/218/77
f 194/220/77 191/217/77 193/219/77 196/222/77
f 194/220/77 195/223/77 198/224/77 197/221/77
f 195/223/77 194/220/77 196/222/77 288/225/77
f 199/226/77 200/227/77 192/218/77 197/221/77
f 202/228/77 199/226/77 197/221/77 198/224/77
f 200/227/77 199/226/77 201/229/77 335/230/77
f 199/226/77 202/228/77 204/231/77 201/229/77
f 203/232/77 202/228/77 198/224/77 292/233/77
f 202/228/77 203/232/77 205/234/77 204/231/77
f 207/235/77 206/236/77 204/231/77 205/234/77
f 206/236/77 209/237/77 201/229/77 204/231/77
f 206/236/77 207/235/77 305/238/77 208/239/77
f 209/237/77 206/236/77 208/239/77 211/240/77
f 209/237/77 210/241/77 335/230/77 201/229/77
f 210/241/77 209/237/77 211/240/77 212/242/77
f 213/243/77 215/244/77 212/242/77 211/240/77
f 214/245/77 213/243/77 211/240/77 208/239/77
f 213/243/77 214/245/77 218/246/77 216/247/77
f 215/244/77 213/243/77 216/247/77 217/248/77
f 219/249/77 221/250/77 217/248/77 216/247/77
f 220/251/77 219/249/77 216/247/77 218/246/77
f 219/249/77 220/251/77 224/252/77 222/253/77
f 221/250/77 219/249/77 222/253/77 223/254/77
f 225/255/77 227/256/77 223/254/77 222/253/77
f 226/257/77 225/255/77 222/253/77 224/252/77
f 225/255/77 226/257/77 230/258/77 228/259/77
f 227/256/77 225/255/77 228/259/77 229/260/77
f 231/261/77 233/262/77 229/260/77 228/259/77
f 232/263/77 231/261/77 228/259/77 230/258/77
f 231/261/77 232/263/77 236/264/77 234/265/77
f 233/262/77 231/261/77 234/265/77 235/266/77
f 237/267/77 239/268/77 235/266/77 234/265/77
f 238/269/77 237/267/77 234/265/77 236/264/77
f 237/267/77 238/269/77 242/270/77 240/271/77
f 239/268/77 237/267/77 240/271/77 241/272/77
f 243/273/77 245/274/77 241/272/77 240/271/77
f 244/275/77 243/273/77 240/271/77 242/270/77
f 243/273/77 244/275/77 248/276/77 246/277/77
f 245/274/77 243/273/77 246/277/77 247/278/77
f 249/279/77 251/280/77 247/278/77 246/277/77
f 250/281/77 249/279/77 246/277/77 248/276/77
f 249/279/77 250/281/77 254/282/77 252/283/77
f 251/280/77 249/279/77 252/283/77 253/284/77
f 255/285/77 257/286/77 253/284/77 252/283/77
f 256/287/77 255/285/77 252/283/77 254/282/77
f 255/285/77 256/287/77 260/288/77 258/289/77
f 257/286/77 255/285/77 258/289/77 259/290/77
f 261/291/77 263/292/77 259/290/77 258/289/77
f 262/293/77 261/291/77 258/289/77 260/288/77
f 261/291/77 262/293/77 266/294/77 264/295/77
f 263/292/77 261/291/77 264/295/77 265/296/77
f 267/297/77 269/298/77 265/296/77 264/295/77
f 268/299/77 267/297/77 264/295/77 266/294/77
f 267/297/77 268/299/77 272/300/77 270/301/77
f 269/298/77 267/297/77 270/301/77 271/302/77
f 273/303/77 275/304/77 271/302/77 270/301/77
f 274/305/77 273/303/77 270/301/77 272/300/77
f 273/303/77 274/305/77 278/306/77 276/307/77
f 275/304/77 273/303/77 276/307/77 277/308/77
f 279/309/77 281/310/77 277/308/77 276/307/77
f 280/311/77 279/309/77 276/307/77 278/306/77
f 279/309/77 280/311/77 284/312/77 282/313/77
f 281/310/77 279/309/77 282/313/77 283/314/77
f 285/315/77 287/316/77 283/314/77 282/313/77
f 286/317/77 285/315/77 282/313/77 284/312/77
f 285/315/77 286/317/77 288/225/77 196/222/77
f 287/316/77 285/315/77 196/222/77 193/219/77
f 181/207/77 287/316/77 193/219/77 185/208/77
f 287/316/77 181/207/77 179/202/77 283/314/77
f 286/317/77 284/312/77 289/318/77 288/225/77
f 291/319/77 195/223/77 288/225/77 289/318/77
f 284/312/77 280/311/77 290/320/77 289/318/77
f 293/321/77 291/319/77 289/318/77 290/320/77
f 195/223/77 291/319/77 292/233/77 198/224/77
f 291/319/77 293/321/77 295/322/77 292/233/77
f 294/323/77 293/321/77 290/320/77 320/324/77
f 293/321/77 294/323/77 296/325/77 295/322/77
f 298/326/77 297/327/77 295/322/77 296/325/77
f 297/327/77 203/232/77 292/233/77 295/322/77
f 297/327/77 298/326/77 300/328/77 299/329/77
f 203/232/77 297/327/77 299/329/77 205/234/77
f 302/330/77 301/331/77 299/329/77 300/328/77
f 301/331/77 207/235/77 205/234/77 299/329/77
f 301/331/77 302/330/77 304/332/77 303/333/77
f 207/235/77 301/331/77 303/333/77 305/238/77
f 224/252/77 220/251/77 303/333/77 304/332/77
f 220/251/77 218/246/77 305/238/77 303/333/77
f 218/246/77 214/245/77 208/239/77 305/238/77
f 302/330/77 308/334/77 306/335/77 304/332/77
f 226/257/77 224/252/77 304/332/77 306/335/77
f 230/258/77 226/257/77 306/335/77 307/336/77
f 308/334/77 309/337/77 307/336/77 306/335/77
f 309/337/77 308/334/77 310/338/77 311/339/77
f 308/334/77 302/330/77 300/328/77 310/338/77
f 312/340/77 313/341/77 311/339/77 310/338/77
f 298/326/77 312/340/77 310/338/77 300/328/77
f 313/341/77 312/340/77 314/342/77 315/343/77
f 312/340/77 298/326/77 296/325/77 314/342/77
f 316/344/77 317/345/77 315/343/77 314/342/77
f 294/323/77 316/344/77 314/342/77 296/325/77
f 317/345/77 316/344/77 318/346/77 319/347/77
f 316/344/77 294/323/77 320/324/77 318/346/77
f 274/305/77 272/300/77 319/347/77 318/346/77
f 278/306/77 274/305/77 318/346/77 320/324/77
f 280/311/77 278/306/77 320/324/77 290/320/77
f 272/300/77 268/299/77 321/348/77 319/347/77
f 323/349/77 317/345/77 319/347/77 321/348/77
f 324/350/77 323/349/77 321/348/77 322/351/77
f 268/299/77 266/294/77 322/351/77 321/348/77
f 323/349/77 324/350/77 326/352/77 325/353/77
f 317/345/77 323/349/77 325/353/77 315/343/77
f 328/354/77 327/355/77 325/353/77 326/352/77
f 327/355/77 313/341/77 315/343/77 325/353/77
f 327/355/77 328/354/77 330/356/77 329/357/77
f 313/341/77 327/355/77 329/357/77 311/339/77
f 332/358/77 331/359/77 329/357/77 330/356/77
f 331/359/77 309/337/77 311/339/77 329/357/77
f 331/359/77 332/358/77 334/360/77 333/361/77
f 309/337/77 331/359/77 333/361/77 307/336/77
f 236/264/77 232/263/77 333/361/77 334/360/77
f 232/263/77 230/258/77 307/336/77 333/361/77
f 332/358/77 244/275/77 242/270/77 334/360/77
f 238/269/77 236/264/77 334/360/77 242/270/77
f 244/275/77 332/358/77 330/356/77 248/276/77
f 328/354/77 250/281/77 248/276/77 330/356/77
f 250/281/77 328/354/77 326/352/77 254/282/77
f 324/350/77 256/287/77 254/282/77 326/352/77
f 256/287/77 324/350/77 322/351/77 260/288/77
f 266/294/77 262/293/77 260/288/77 322/351/77
f 175/201/77 281/310/77 283/314/77 179/202/77
f 281/310/77 175/201/77 173/196/77 277/308/77
f 169/195/77 275/304/77 277/308/77 173/196/77
f 275/304/77 169/195/77 167/190/77 271/302/77
f 163/189/77 269/298/77 271/302/77 167/190/77
f 269/298/77 163/189/77 161/184/77 265/296/77
f 157/183/77 263/292/77 265/296/77 161/184/77
f 263/292/77 157/183/77 155/178/77 259/290/77
f 151/177/77 257/286/77 259/290/77 155/178/77
f 257/286/77 151/177/77 149/172/77 253/284/77
f 145/171/77 251/280/77 253/284/77 149/172/77
f 251/280/77 145/171/77 143/166/77 247/278/77
f 139/165/77 245/274/77 247/278/77 143/166/77
f 245/274/77 139/165/77 137/160/77 241/272/77
f 133/159/77 239/268/77 241/272/77 137/160/77
f 239/268/77 133/159/77 131/154/77 235/266/77
f 127/153/77 233/262/77 235/266/77 131/154/77
f 233/262/77 127/153/77 125/148/77 229/260/77
f 121/147/77 227/256/77 229/260/77 125/148/77
f 227/256/77 121/147/77 119/142/77 223/254/77
f 115/141/77 221/250/77 223/254/77 119/142/77
f 221/250/77 115/141/77 113/136/77 217/248/77
f 109/135/77 215/244/77 217/248/77 113/136/77
f 215/244/77 109/135/77 107/130/77 212/242/77
f 104/129/77 210/241/77 212/242/77 107/130/77
f 210/241/77 104/129/77 102/128/77 335/230/77
f 336/127/77 200/227/77 335/230/77 102/128/77
f 200/227/77 336/127/77 190/216/77 192/218/77
f 188/214/77 190/216/77 336/127/77 101/122/77
f 101/122/77 99/121/77 337/215/77 188/214/77
f 39/57/17 187/362/78 337/363/79 37/56/16
f 99/120/76 35/51/11 37/56/16 337/363/79
f 187/362/78 39/57/17 41/60/20 184/364/80
f 43/61/21 182/365/81 184/364/80 41/60/20
f 182/365/81 43/61/21 45/64/24 178/366/82
f 47/65/25 176/367/83 178/366/82 45/64/24
f 176/367/83 47/65/25 49/68/28 172/368/84
f 51/69/29 170/369/85 172/368/84 49/68/28
f 170/370/85 51/71/29 53/74/32 166/371/86
f 55/75/33 164/372/87 166/371/86 53/74/32
f 164/372/87 55/75/33 57/78/36 160/373/88
f 59/79/37 158/374/89 160/373/88 57/78/36
f 158/374/89 59/79/37 61/82/40 154/375/90
f 63/83/41 152/376/91 154/375/90 61/82/40
f 152/376/91 63/83/41 65/86/44 148/377/92
f 67/87/45 146/378/93 148/377/92 65/86/44
f 142/379/94 146/378/93 67/87/45 69/90/46
f 140/380/95 142/379/94 69/90/46 71/91/47
f 136/381/96 140/380/95 71/91/47 73/94/50
f 134/382/97 136/381/96 73/94/50 75/95/51
f 130/383/98 134/382/97 75/95/51 77/98/54
f 128/384/99 130/383/98 77/98/54 79/99/55
f 124/385/100 128/384/99 79/99/55 81/102/58
f 122/386/101 124/385/100 81/102/58 83/103/59
f 118/387/102 122/386/101 83/103/59 85/106/62
f 116/388/103 118/387/102 85/106/62 87/107/63
f 112/389/104 116/388/103 87/107/63 89/110/66
f 110/390/105 112/389/104 89/110/66 91/111/67
f 106/118/74 110/390/105 91/111/67 93/114/70
