# Blender 4.5.3 LTS
# www.blender.org
o Starfield.045
v 50.492268 -23.487141 18.039871
v 50.752197 -24.451946 18.015915
v 50.924599 -23.375877 18.070381
v 48.016663 -24.134289 18.017052
v 48.276348 -25.103397 18.017052
v 48.016663 -24.137436 20.988441
v 48.276348 -25.105438 20.988541
v 48.016663 -24.137962 21.468620
v 48.016663 -24.138077 21.800743
v 48.276348 -25.105854 21.468742
v 48.276348 -25.105949 21.800858
v 49.329884 -24.840862 21.467140
v 49.329884 -24.843632 21.799011
v 49.893608 -24.705418 21.465691
v 49.329884 -24.838207 20.987106
v 49.070187 -23.872204 20.986832
v 49.329884 -24.825878 18.887413
v 49.893608 -24.700363 20.985901
v 49.633949 -23.735733 20.985474
v 50.457375 -24.562515 20.984650
v 50.619942 -24.523102 20.984261
v 50.187141 -23.602184 20.984154
v 50.457375 -24.569962 21.464249
v 50.457375 -24.575676 21.795906
v 50.651115 -24.524292 21.463829
v 50.676548 -24.526512 21.825554
v 50.844856 -24.478638 21.463387
v 50.895763 -24.477356 21.855179
v 50.782482 -24.483662 20.983887
v 51.260223 -24.384995 21.463295
v 51.675606 -24.291367 21.463188
v 51.015583 -24.426788 20.940323
v 51.063499 -24.443474 21.945198
v 50.803829 -23.492149 21.945419
v 51.231228 -24.409603 22.035248
v 50.946754 -23.465660 22.028435
v 51.305973 -24.395370 22.089951
v 51.029896 -23.450996 22.089790
v 51.368206 -24.384499 22.157860
v 51.869804 -24.241776 21.568298
v 51.534416 -23.322929 21.566360
v 52.050171 -24.218262 21.684853
v 52.204544 -24.190769 21.823921
v 51.778843 -23.277611 21.696068
v 51.932163 -23.252632 21.837898
v 52.059479 -23.234512 22.004936
v 52.332516 -24.170563 21.989899
v 52.166729 -23.222019 22.201508
v 52.443638 -24.155453 22.188087
v 52.232895 -23.218708 22.417969
v 52.512356 -24.150246 22.406990
v 52.269287 -23.222347 22.666992
v 52.547394 -24.152821 22.651321
v 52.262035 -23.234100 22.922325
v 52.542248 -24.163319 22.902527
v 52.227718 -23.252254 23.242035
v 52.519760 -24.178940 23.237251
v 52.118130 -23.282043 23.536629
v 51.933914 -23.324562 23.837212
v 52.419479 -24.207386 23.546394
v 52.234890 -24.251057 23.857391
v 51.440380 -24.399437 23.138298
v 51.486580 -24.386009 22.978745
v 51.159485 -23.461468 23.134834
v 51.348240 -24.421745 23.304596
v 51.066673 -23.483349 23.294510
v 51.216026 -24.450951 23.435875
v 50.937984 -23.510849 23.421364
v 51.977348 -24.306313 24.102325
v 51.042183 -24.487625 23.545166
v 50.764259 -23.546146 23.528221
v 50.848637 -24.527752 23.612183
v 51.643944 -24.374199 24.308014
v 51.351639 -23.442020 24.276184
v 51.274929 -24.448200 24.435539
v 50.809776 -24.542812 24.491043
v 50.985607 -23.512341 24.408417
v 50.549355 -23.596077 24.491425
v 50.128979 -23.682930 24.520493
v 50.344616 -24.637440 24.546516
v 48.016663 -24.153450 24.551262
v 48.276348 -25.119778 24.551529
v 49.329884 -24.861485 23.673859
v 50.344616 -24.632622 23.671158
v 49.070187 -23.898621 23.673309
v 50.077930 -23.683300 23.660149
v 49.070187 -23.879093 21.798599
v 49.633949 -23.747784 21.797066
v 50.201294 -23.617832 21.809837
v 49.893608 -24.709667 21.797478
v 50.416897 -23.570080 21.825386
v 50.623230 -23.527386 21.870308
v 50.336838 -23.630516 23.641899
v 50.596626 -24.580185 23.641685
v 50.571648 -23.584301 23.597946
v 51.683464 -23.376686 24.075531
v 51.213055 -23.446716 22.980309
v 51.232624 -23.437527 22.813332
v 51.499100 -24.378490 22.806953
v 51.244461 -23.430332 22.672424
v 51.512108 -24.371349 22.662750
v 51.237785 -23.426548 22.532829
v 51.506290 -24.367943 22.520752
v 51.217537 -23.426628 22.429352
v 51.481918 -24.369671 22.421555
v 51.182747 -23.429657 22.329659
v 51.444210 -24.374256 22.325592
v 51.148571 -23.432991 22.242180
v 51.412243 -24.377911 22.237389
v 51.100903 -23.439491 22.164024
v 51.415970 -23.342724 21.463661
v 51.598598 -23.297596 21.356178
v 51.935623 -23.219147 21.256004
v 51.953384 -24.210949 21.383492
v 52.212811 -24.162743 21.276344
v 51.435768 -24.323044 20.806961
v 51.159515 -23.369553 20.787468
v 51.248657 -24.369907 20.896751
v 51.597672 -24.280914 20.673347
v 51.321598 -23.327713 20.658485
v 51.723270 -24.246387 20.516563
v 51.441841 -23.294487 20.512398
v 52.430832 -24.105465 21.123489
v 51.815533 -24.218983 20.331100
v 51.536865 -23.266239 20.346138
v 51.857292 -24.206120 20.223602
v 52.610088 -24.053616 20.920952
v 52.332096 -23.110748 20.898277
v 52.765121 -24.004322 20.666893
v 52.482536 -23.062660 20.649986
v 52.860947 -23.967567 20.378052
v 52.576443 -23.025745 20.368370
v 51.881321 -24.197685 20.109520
v 52.914173 -23.941914 20.071007
v 52.632553 -22.997437 20.062965
v 52.913239 -23.931046 19.753151
v 51.891834 -24.193031 19.999611
v 51.888161 -24.192120 19.888054
v 51.625683 -23.233768 19.986519
v 51.618439 -23.232471 19.861603
v 51.614285 -23.239990 20.109383
v 51.585827 -23.250721 20.231766
v 51.594162 -23.234245 19.662315
v 51.870018 -24.193302 19.668236
v 51.536373 -23.245182 19.471336
v 51.446491 -23.264790 19.300461
v 51.814442 -24.204208 19.457321
v 51.725277 -24.224072 19.285683
v 52.792133 -23.945385 19.078819
v 52.493130 -22.994720 19.089348
v 52.886448 -23.928333 19.408569
v 52.615067 -23.984779 18.757477
v 52.316788 -23.031731 18.778046
v 52.356377 -24.047131 18.491653
v 52.064751 -23.091347 18.519974
v 51.593361 -24.255165 19.142189
v 52.035652 -24.125980 18.271774
v 51.745739 -23.168816 18.300606
v 51.664848 -24.219055 18.134346
v 51.428291 -24.295109 19.023895
v 51.152298 -23.334660 19.038834
v 51.235638 -24.342709 18.949371
v 50.998692 -24.401821 18.897034
v 50.960255 -23.381920 18.965111
v 50.692101 -23.448635 18.909149
v 50.455742 -23.508095 18.896675
v 49.070187 -23.858391 18.887253
v 50.752197 -24.464073 18.885612
v 51.216774 -24.332287 18.037865
v 51.316605 -23.295189 19.157059
v 51.377537 -23.261066 18.163857
v 52.596569 -22.979076 19.410652
v 52.631870 -22.983490 19.747108
v 52.151859 -23.162483 21.098053
v 50.974339 -23.415173 20.879562
v 50.755890 -23.467247 20.940002
v 50.540466 -23.518021 20.972656
v 50.360264 -23.560650 20.983757
v 55.010235 -20.067724 21.532936
v 54.924946 -20.067680 20.546730
v 55.030876 -22.095673 21.540665
v 54.903133 -20.067757 22.521271
v 54.920780 -22.146610 22.529984
v 54.612396 -20.067757 23.473000
v 54.628513 -22.238859 23.481750
v 54.146748 -20.067738 24.349442
v 54.163544 -22.369213 24.357040
v 53.526363 -20.067696 25.118141
v 53.544895 -22.532459 25.123566
v 52.771297 -20.067644 25.746666
v 52.791595 -22.723381 25.749008
v 51.910351 -20.067596 26.214172
v 51.932571 -22.934753 26.213417
v 50.972298 -20.067556 26.499809
v 50.996746 -23.159328 26.496979
v 49.994801 -20.067520 26.597221
v 50.019520 -23.388802 26.593369
v 49.015427 -20.067509 26.500000
v 49.036285 -23.614807 26.496201
v 48.071507 -20.067501 26.214584
v 48.086395 -23.828285 26.211571
v 47.200287 -20.067497 25.747383
v 47.209412 -24.020195 25.745583
v 46.434544 -20.067497 25.119911
v 46.437263 -24.183674 25.119392
v 45.807007 -20.067497 24.353645
v 45.802006 -24.311829 24.354164
v 45.339195 -20.067497 23.480408
v 45.325451 -24.400391 23.481926
v 45.052532 -20.067497 22.532166
v 45.029476 -24.445107 22.534691
v 44.954521 -20.067493 21.546402
v 44.924107 -24.444557 21.549736
v 45.052532 -20.067493 20.560631
v 45.019337 -24.397350 20.564270
v 45.339195 -20.067499 19.612389
v 45.305592 -24.306694 19.616051
v 45.807007 -20.067499 18.739166
v 45.773254 -24.175812 18.742882
v 46.434734 -20.067503 17.972801
v 46.401516 -24.010342 17.976440
v 47.201118 -20.067499 17.345093
v 47.169651 -23.815910 17.348534
v 48.074333 -20.067493 16.877266
v 48.046333 -23.600323 16.880318
v 49.022579 -20.067499 16.590614
v 49.000271 -23.371349 16.593048
v 50.008335 -20.067493 16.492577
v 49.993378 -23.138027 16.494141
v 50.994110 -20.067497 16.590599
v 50.987522 -22.909435 16.591095
v 51.942181 -20.067501 16.876854
v 51.943848 -22.694405 16.876297
v 52.814877 -20.067520 17.343597
v 52.823559 -22.501770 17.342163
v 53.577831 -20.067543 17.968941
v 53.593056 -22.338795 17.967667
v 54.196651 -20.067577 18.731094
v 54.218731 -22.212719 18.731613
v 54.652134 -20.067625 19.600258
v 54.678272 -22.128033 19.603424
v 54.683716 -22.520828 19.604088
v 54.949486 -22.089241 20.552460
v 54.954956 -22.482048 20.553734
v 55.035679 -22.488537 21.542473
v 54.486595 -22.593468 20.656769
v 54.560089 -22.599030 21.544106
v 53.475105 -22.834053 20.877998
v 54.241467 -22.628632 19.803474
v 53.295872 -22.858723 20.213219
v 53.825916 -22.705116 19.017822
v 54.222942 -22.605591 18.731743
v 52.991596 -22.913815 19.602135
v 53.259575 -22.819061 18.328156
v 52.567753 -22.998718 19.071709
v 53.595745 -22.731777 17.967445
v 52.562115 -22.966637 17.762871
v 52.824974 -22.894844 17.341957
v 52.029697 -23.112904 18.648895
v 51.764133 -23.141224 17.341377
v 51.405415 -23.250031 18.340248
v 51.944118 -23.087555 16.876213
v 50.896255 -23.336231 17.083282
v 50.986622 -23.302681 16.591164
v 50.722885 -23.403770 18.152313
v 49.994011 -23.543556 16.995605
v 50.011639 -23.567356 18.089043
v 49.991474 -23.531357 16.494354
v 49.092930 -23.755138 17.085419
v 48.997623 -23.764713 16.593346
v 49.301235 -23.734035 18.154358
v 48.228065 -23.962650 17.345619
v 48.620956 -23.896881 18.344177
v 48.043240 -23.993729 16.880653
v 47.434570 -24.157776 17.769127
v 47.166355 -24.209347 17.348892
v 48.000191 -24.048977 18.654366
v 46.740398 -24.333477 18.336220
v 47.465034 -24.184093 19.078194
v 46.398232 -24.403782 17.976799
v 46.173592 -24.482758 19.027359
v 45.770016 -24.569244 18.743225
v 47.041618 -24.295986 19.608971
v 45.752422 -24.600639 19.813370
v 46.734753 -24.382835 20.219521
v 45.302486 -24.700130 19.616402
v 45.495148 -24.682121 20.665131
v 45.016346 -24.790768 20.564583
v 46.549316 -24.442841 20.882706
v 45.409954 -24.724487 21.549492
v 46.488846 -24.474476 21.572075
v 44.921413 -24.837963 21.550034
v 45.505077 -24.724937 22.433357
v 45.027416 -24.838474 22.534927
v 46.557026 -24.476212 22.260979
v 45.771873 -24.684673 23.284111
v 46.749763 -24.448338 22.923164
v 45.324215 -24.793701 23.482056
v 46.201721 -24.604866 24.069138
v 45.801552 -24.705086 24.354195
v 47.062840 -24.391155 23.532166
v 46.775276 -24.489254 24.759048
v 47.490685 -24.305279 24.061310
v 46.437557 -24.576874 25.119324
v 47.473160 -24.341572 25.324440
v 47.210316 -24.413372 25.745392
v 48.027790 -24.191307 24.483894
v 48.266785 -24.167988 25.745773
v 48.647499 -24.055248 24.792877
v 48.087971 -24.221401 26.211250
v 49.127415 -23.974670 26.003540
v 49.038601 -24.007851 26.495766
v 49.323223 -23.903103 24.981140
v 50.018837 -23.769875 26.091812
v 50.025387 -23.741657 25.045372
v 50.022488 -23.781815 26.592903
v 50.904953 -23.561825 26.004570
v 50.999935 -23.552319 26.496605
v 50.724335 -23.577694 24.982254
v 51.753609 -23.358158 25.747955
v 51.393032 -23.417599 24.794907
v 51.935768 -23.327724 26.213318
v 52.532608 -23.166512 25.328011
v 52.794853 -23.116344 25.749382
v 52.004375 -23.267727 24.486488
v 53.215538 -22.993481 24.763489
v 52.533489 -23.134052 24.064064
v 53.548222 -22.925430 25.124550
v 53.775906 -22.845711 24.073135
v 54.166889 -22.762188 24.358574
v 52.955482 -23.022530 23.534744
v 54.196678 -22.727894 23.286163
v 54.632038 -22.631813 23.483681
v 54.460751 -22.644760 22.431862
v 53.265335 -22.935005 22.924904
v 53.457909 -22.873333 22.260826
v 52.792938 -23.041260 22.789261
v 52.940578 -22.992130 22.207458
v 52.554611 -23.110104 23.317680
v 52.367649 -23.138023 22.709816
v 52.466164 -23.101852 22.189018
v 51.954273 -23.233200 22.677017
v 52.210712 -23.186268 23.172295
v 51.962502 -23.253418 23.544472
v 51.870899 -23.263428 23.102768
v 51.482189 -23.353981 23.113411
v 51.778496 -23.292080 23.384666
v 51.489025 -23.361961 23.488235
v 51.064369 -23.462826 23.575600
v 51.590126 -23.346287 23.794418
v 51.127289 -23.457817 23.952141
v 51.767834 -23.312897 24.103386
v 51.237427 -23.442146 24.340393
v 52.216061 -23.200146 23.764992
v 50.652313 -23.581692 24.483490
v 50.038750 -23.725433 24.531326
v 50.607647 -23.580952 24.047737
v 50.058556 -23.709309 24.079796
v 50.585419 -23.575439 23.629341
v 50.580902 -23.565094 23.182602
v 50.078362 -23.693687 23.647636
v 49.569324 -23.811420 23.628517
v 50.091679 -23.678963 23.191742
v 49.600258 -23.792843 23.182045
v 50.099754 -23.664955 22.716331
v 49.611988 -23.778130 22.712250
v 50.103813 -23.651489 22.225517
v 50.585060 -23.552135 22.712402
v 51.060146 -23.441483 22.700706
v 50.588757 -23.538799 22.223526
v 51.069107 -23.427052 22.216728
v 50.591045 -23.525524 21.723938
v 51.074459 -23.413059 21.717148
v 50.590862 -23.512741 21.221474
v 50.104767 -23.638512 21.725601
v 49.615993 -23.752026 21.724907
v 50.103722 -23.625923 21.222740
v 49.614426 -23.739578 21.222946
v 50.099262 -23.614082 20.717903
v 49.608181 -23.728218 20.720695
v 50.089855 -23.603359 20.211845
v 50.588638 -23.500439 20.718842
v 51.068020 -23.389080 20.718575
v 50.584759 -23.488579 20.218742
v 51.059982 -23.378639 20.236534
v 50.588696 -23.474957 19.720741
v 50.074566 -23.593948 19.703888
v 51.075024 -23.363239 19.769363
v 50.609962 -23.457352 19.224548
v 51.138676 -23.336929 19.317764
v 50.653152 -23.434162 18.708832
v 50.052376 -23.586067 19.193237
v 50.029366 -23.577839 18.661179
v 49.494999 -23.716385 19.226608
v 49.406178 -23.723854 18.710838
v 49.560162 -23.713913 19.722847
v 48.966156 -23.841637 19.321663
v 49.071686 -23.828648 19.773293
v 48.811283 -23.865700 18.855316
v 48.494102 -23.955204 19.475395
v 48.272392 -23.996925 19.092125
v 48.635502 -23.931946 19.850868
v 48.116467 -24.049232 19.723000
v 48.331642 -24.004639 19.933975
v 47.819126 -24.110840 19.430656
v 47.870823 -24.115906 20.099632
v 47.481155 -24.200821 19.880363
v 48.252136 -24.030857 20.237656
v 47.720745 -24.162708 20.568047
v 48.178692 -24.059074 20.674812
v 47.247478 -24.268642 20.411255
v 47.630016 -24.197132 21.090927
v 47.107162 -24.316078 20.993309
v 48.132603 -24.082264 21.164322
v 47.600895 -24.217918 21.640625
v 48.117573 -24.098892 21.679359
v 47.062038 -24.342064 21.600746
v 47.635811 -24.223812 22.189575
v 47.113918 -24.345501 22.207726
v 48.137543 -24.107361 22.193062
v 47.731846 -24.214764 22.709206
v 48.188160 -24.107948 22.676720
v 47.260387 -24.326294 22.788139
v 47.886101 -24.190720 23.170967
v 47.499115 -24.284298 23.315887
v 48.265228 -24.100887 23.101715
v 48.134361 -24.142548 23.542824
v 48.347004 -24.089077 23.383202
v 47.840477 -24.216419 23.762924
v 48.512459 -24.061096 23.792572
v 48.294800 -24.119526 24.101295
v 48.650314 -24.021271 23.486671
v 48.982674 -23.955894 23.950508
v 49.084545 -23.922630 23.574173
v 48.832207 -24.000751 24.338593
v 49.507473 -23.836456 24.046783
v 49.422779 -23.867249 24.482475
v 49.123421 -23.902912 23.155052
v 48.678062 -24.005268 23.112358
v 49.127815 -23.890297 22.700439
v 48.653328 -24.000019 22.681229
v 49.126171 -23.878357 22.217445
v 48.633770 -23.992401 22.204742
v 49.123035 -23.866367 21.718880
v 49.616184 -23.764709 22.223930
v 48.624260 -23.981846 21.704567
v 49.123001 -23.853577 21.217613
v 48.629658 -23.967781 21.202332
v 49.121502 -23.841278 20.721970
v 48.645290 -23.951748 20.716400
v 49.113922 -23.830750 20.240295
v 48.666569 -23.935299 20.265205
v 49.593964 -23.718769 20.220779
v 51.249359 -23.299320 18.851456
v 51.789864 -23.179783 19.086769
v 52.244644 -23.082764 19.424438
v 51.609451 -23.231472 19.470116
v 51.986629 -23.150158 19.716957
v 51.506008 -23.265079 19.845711
v 51.497021 -23.277744 20.260399
v 51.799000 -23.199127 19.928345
v 51.890404 -23.185658 20.232178
v 51.969631 -23.178421 20.670135
v 52.234631 -23.102169 20.093796
v 52.386883 -23.078781 20.563118
v 52.583748 -23.015476 19.874168
v 52.816925 -22.974892 20.405869
v 52.953911 -22.957954 20.989441
v 52.995041 -22.963955 21.598740
v 52.476746 -23.071285 21.087326
v 52.503422 -23.079144 21.638588
v 52.017254 -23.179886 21.160812
v 51.549194 -23.289577 21.199051
v 52.031021 -23.189861 21.677177
v 51.554569 -23.301170 21.702484
v 52.008820 -23.208153 22.192200
v 51.542820 -23.316692 22.203865
v 51.517506 -23.334763 22.681442
v 51.073456 -23.400486 21.214973
v 51.529198 -23.281799 20.712158
v 53.529186 -22.839146 21.569557
v 51.050293 -23.455387 23.156052
v 54.924866 -22.539520 22.532028
vn 0.0241 0.0277 -0.9993
vn 0.0243 0.0279 -0.9993
vn 0.0011 0.0127 -0.9999
vn 0.1143 0.0648 -0.9913
vn 0.1179 0.0660 -0.9908
vn -0.9659 -0.2590 -0.0002
vn -0.9658 -0.2591 -0.0002
vn -0.9658 -0.2592 -0.0007
vn 0.2375 -0.9714 -0.0070
vn 0.2400 -0.9708 -0.0054
vn 0.2438 -0.9698 -0.0036
vn 0.2389 -0.9710 -0.0063
vn 0.2481 -0.9687 -0.0029
vn 0.2439 -0.9698 -0.0046
vn 0.2340 -0.9722 -0.0113
vn 0.2324 -0.9725 -0.0124
vn 0.2355 -0.9718 -0.0102
vn -0.0020 -0.0010 -1.0000
vn -0.0020 -0.0009 -1.0000
vn 0.9658 0.2594 0.0016
vn 0.2515 -0.9679 -0.0038
vn 0.2515 -0.9679 -0.0036
vn -0.0021 -0.0011 -1.0000
vn 0.2313 -0.9728 -0.0157
vn 0.2339 -0.9722 -0.0145
vn 0.2322 -0.9725 -0.0175
vn 0.2287 -0.9733 -0.0196
vn -0.0158 -0.0074 -0.9998
vn -0.0163 -0.0076 -0.9998
vn 0.2286 -0.9734 -0.0171
vn 0.2252 -0.9741 -0.0220
vn 0.2249 -0.9741 -0.0234
vn 0.2205 -0.9750 -0.0262
vn 0.2285 -0.9733 -0.0210
vn 0.2211 -0.9748 -0.0288
vn 0.2179 -0.9755 -0.0293
vn 0.2243 -0.9742 -0.0263
vn 0.2374 -0.9709 -0.0316
vn 0.2289 -0.9731 -0.0252
vn 0.2339 -0.9716 -0.0360
vn -0.4333 -0.1252 0.8925
vn -0.2802 -0.0860 0.9561
vn -0.2906 -0.0889 0.9527
vn -0.4357 -0.1256 0.8913
vn -0.5116 -0.1465 0.8466
vn -0.5177 -0.1485 0.8426
vn -0.6374 -0.1855 0.7479
vn -0.6303 -0.1835 0.7543
vn 0.2193 -0.9747 -0.0436
vn 0.2127 -0.9758 -0.0509
vn -0.7724 -0.2218 0.5951
vn -0.7668 -0.2204 0.6029
vn 0.2020 -0.9778 -0.0559
vn 0.2040 -0.9776 -0.0519
vn 0.5580 0.1778 -0.8106
vn 0.5675 0.1799 -0.8035
vn 0.4962 0.1621 -0.8529
vn 0.5002 0.1626 -0.8505
vn 0.5203 0.1651 -0.8379
vn 0.2099 -0.9769 -0.0396
vn 0.2100 -0.9769 -0.0395
vn 0.7010 0.2132 -0.6806
vn 0.7064 0.2148 -0.6745
vn 0.7995 0.2424 -0.5496
vn 0.8029 0.2434 -0.5442
vn 0.8807 0.2666 -0.3915
vn 0.8837 0.2675 -0.3841
vn 0.9350 0.2823 -0.2148
vn 0.9360 0.2826 -0.2099
vn 0.9565 0.2874 -0.0506
vn 0.9566 0.2874 -0.0476
vn 0.9548 0.2895 0.0667
vn 0.9548 0.2895 0.0671
vn 0.9307 0.2922 0.2202
vn 0.9306 0.2922 0.2203
vn 0.8552 0.2808 0.4356
vn 0.8564 0.2810 0.4332
vn 0.7305 0.2497 0.6356
vn 0.7352 0.2511 0.6297
vn 0.2013 -0.9793 -0.0217
vn 0.2013 -0.9793 -0.0218
vn 0.1994 -0.9798 -0.0171
vn 0.1993 -0.9798 -0.0168
vn 0.2032 -0.9787 -0.0275
vn 0.2032 -0.9788 -0.0273
vn -0.8730 -0.2617 -0.4115
vn -0.9388 -0.2733 -0.2096
vn -0.9386 -0.2733 -0.2106
vn -0.8738 -0.2619 -0.4099
vn -0.7545 -0.2321 -0.6139
vn -0.7509 -0.2311 -0.6186
vn -0.5872 -0.1862 -0.7878
vn -0.5815 -0.1846 -0.7924
vn 0.1970 -0.9803 -0.0119
vn 0.1973 -0.9803 -0.0126
vn -0.4109 -0.1362 -0.9015
vn -0.4027 -0.1339 -0.9055
vn 0.1961 -0.9805 -0.0090
vn 0.1961 -0.9805 -0.0087
vn -0.2312 -0.0791 -0.9697
vn -0.2225 -0.0760 -0.9720
vn 0.1977 -0.9802 -0.0079
vn 0.1984 -0.9801 -0.0079
vn 0.3946 0.1522 0.9062
vn 0.2204 0.0887 0.9714
vn 0.2306 0.0930 0.9686
vn 0.4041 0.1551 0.9015
vn 0.5658 0.2029 0.7992
vn 0.5725 0.2048 0.7939
vn 0.2001 -0.9798 -0.0070
vn 0.2000 -0.9798 -0.0072
vn 0.1132 0.0449 0.9926
vn 0.1156 0.0457 0.9922
vn 0.0463 0.0251 0.9986
vn 0.0467 0.0252 0.9986
vn 0.0051 0.0150 0.9999
vn -0.9658 -0.2593 -0.0014
vn 0.2120 -0.9772 -0.0086
vn 0.2130 -0.9770 -0.0088
vn 0.2318 -0.9727 -0.0086
vn 0.2307 -0.9730 -0.0090
vn -0.0061 -0.0077 -1.0000
vn -0.0448 -0.0183 -0.9988
vn -0.0481 -0.0192 -0.9987
vn 0.9656 0.2602 0.0026
vn -0.0025 -0.0039 1.0000
vn 0.0025 0.0011 1.0000
vn -0.0028 -0.0041 1.0000
vn -0.0509 -0.0208 0.9985
vn -0.0529 -0.0214 0.9984
vn -0.1276 -0.0426 0.9909
vn -0.1296 -0.0432 0.9906
vn -0.1122 -0.0380 -0.9930
vn -0.1144 -0.0387 -0.9927
vn -0.9569 -0.2725 -0.1005
vn -0.9569 -0.2726 -0.1006
vn -0.9615 -0.2732 -0.0298
vn -0.9615 -0.2731 -0.0316
vn -0.9541 -0.2721 0.1248
vn -0.9545 -0.2722 0.1214
vn -0.9238 -0.2614 0.2799
vn -0.9248 -0.2619 0.2758
vn -0.9030 -0.2532 0.3472
vn -0.9029 -0.2531 0.3473
vn -0.8684 -0.2450 0.4310
vn -0.8711 -0.2456 0.4254
vn 0.2088 -0.9771 -0.0400
vn 0.2089 -0.9771 -0.0400
vn 0.2080 -0.9773 -0.0397
vn 0.2071 -0.9776 -0.0382
vn 0.2071 -0.9776 -0.0381
vn 0.2061 -0.9779 -0.0355
vn 0.2061 -0.9779 -0.0356
vn 0.2048 -0.9783 -0.0324
vn 0.2048 -0.9783 -0.0323
vn 0.3242 0.1269 0.9374
vn 0.3437 0.1268 0.9305
vn 0.3211 0.1269 0.9385
vn 0.4230 0.1541 0.8929
vn 0.4292 0.1555 0.8897
vn 0.2216 -0.9749 -0.0204
vn 0.2298 -0.9728 -0.0276
vn 0.2157 -0.9762 -0.0222
vn 0.2179 -0.9756 -0.0259
vn -0.6642 -0.2039 -0.7192
vn -0.6647 -0.2040 -0.7187
vn -0.5026 -0.1612 -0.8493
vn -0.5005 -0.1606 -0.8507
vn -0.3120 -0.1023 -0.9446
vn -0.3079 -0.1010 -0.9460
vn -0.7896 -0.2335 -0.5675
vn -0.7897 -0.2335 -0.5673
vn 0.2274 -0.9730 -0.0383
vn 0.2275 -0.9730 -0.0383
vn -0.8630 -0.2475 -0.4404
vn -0.8633 -0.2475 -0.4399
vn 0.2316 -0.9720 -0.0392
vn 0.2314 -0.9721 -0.0391
vn -0.9144 -0.2575 -0.3122
vn -0.9142 -0.2575 -0.3128
vn 0.2352 -0.9712 -0.0391
vn 0.2353 -0.9711 -0.0391
vn 0.6230 0.2026 0.7556
vn 0.6228 0.2026 0.7557
vn 0.7535 0.2378 0.6129
vn 0.7550 0.2382 0.6109
vn 0.8573 0.2648 0.4415
vn 0.8593 0.2653 0.4372
vn 0.9222 0.2805 0.2663
vn 0.9231 0.2807 0.2629
vn 0.2379 -0.9706 -0.0361
vn 0.2379 -0.9706 -0.0362
vn 0.9527 0.2857 0.1035
vn 0.9532 0.2857 0.0984
vn 0.2404 -0.9702 -0.0316
vn 0.2404 -0.9702 -0.0315
vn 0.9574 0.2865 -0.0366
vn 0.9573 0.2866 -0.0391
vn 0.2435 -0.9696 -0.0258
vn 0.2437 -0.9695 -0.0255
vn -0.9605 -0.2694 0.0696
vn -0.9628 -0.2683 -0.0318
vn -0.9629 -0.2683 -0.0287
vn -0.9604 -0.2694 0.0713
vn -0.9495 -0.2656 -0.1669
vn -0.9498 -0.2656 -0.1654
vn -0.9440 -0.2703 0.1895
vn -0.9446 -0.2703 0.1862
vn -0.8889 -0.2615 0.3762
vn -0.8896 -0.2617 0.3743
vn -0.7776 -0.2343 0.5835
vn -0.7796 -0.2349 0.5806
vn 0.2495 -0.9682 -0.0178
vn 0.2489 -0.9684 -0.0185
vn 0.2496 -0.9682 -0.0177
vn 0.2470 -0.9688 -0.0204
vn 0.2469 -0.9688 -0.0205
vn 0.8744 0.2777 -0.3979
vn 0.8762 0.2781 -0.3935
vn 0.7571 0.2491 -0.6039
vn 0.7541 0.2483 -0.6081
vn 0.9384 0.2877 -0.1917
vn 0.9393 0.2877 -0.1869
vn 0.6022 0.2063 -0.7713
vn 0.5996 0.2056 -0.7734
vn 0.2493 -0.9683 -0.0173
vn 0.2492 -0.9683 -0.0173
vn 0.4267 0.1562 -0.8908
vn 0.4223 0.1549 -0.8931
vn 0.2485 -0.9685 -0.0171
vn 0.2484 -0.9685 -0.0170
vn 0.2530 0.1066 -0.9616
vn 0.2501 0.1058 -0.9624
vn 0.2478 -0.9687 -0.0166
vn 0.2476 -0.9687 -0.0165
vn -0.4419 -0.1410 0.8859
vn -0.2620 -0.0915 0.9607
vn -0.2648 -0.0922 0.9599
vn -0.4459 -0.1421 0.8838
vn -0.6251 -0.1922 0.7565
vn -0.6276 -0.1929 0.7543
vn 0.2478 -0.9687 -0.0154
vn 0.2479 -0.9687 -0.0152
vn -0.1147 -0.0483 0.9922
vn -0.1207 -0.0502 0.9914
vn -0.0214 -0.0155 0.9997
vn -0.0228 -0.0162 0.9996
vn -0.0012 -0.0060 1.0000
vn 0.2500 -0.9682 -0.0095
vn 0.2500 -0.9682 -0.0096
vn -0.1821 -0.0567 -0.9816
vn -0.1830 -0.0571 -0.9815
vn -0.0930 -0.0302 -0.9952
vn -0.0937 -0.0304 -0.9951
vn 0.9998 0.0113 0.0138
vn 0.9836 0.0119 -0.1801
vn 0.9834 0.0111 -0.1812
vn 0.9999 0.0103 0.0125
vn 0.9793 0.0093 0.2021
vn 0.9791 0.0103 0.2031
vn 0.9234 0.0094 0.3837
vn 0.9237 0.0085 0.3831
vn 0.8340 0.0079 0.5516
vn 0.8338 0.0086 0.5520
vn 0.7113 0.0072 0.7028
vn 0.7116 0.0068 0.7025
vn 0.5598 0.0050 0.8286
vn 0.5594 0.0052 0.8289
vn 0.3845 0.0029 0.9231
vn 0.3848 0.0028 0.9230
vn 0.1950 0.0007 0.9808
vn 0.1951 0.0007 0.9808
vn 0.0001 -0.0010 1.0000
vn -0.0003 -0.0010 1.0000
vn -0.1944 -0.0020 0.9809
vn -0.1936 -0.0021 0.9811
vn -0.3803 -0.0022 0.9249
vn -0.3814 -0.0022 0.9244
vn -0.5539 -0.0016 0.8326
vn -0.5528 -0.0016 0.8333
vn -0.7039 -0.0005 0.7103
vn -0.7051 -0.0005 0.7091
vn -0.8294 0.0011 0.5586
vn -0.8283 0.0011 0.5603
vn -0.9213 0.0031 0.3888
vn -0.9222 0.0031 0.3867
vn -0.9800 0.0052 0.1992
vn -0.9795 0.0052 0.2014
vn -1.0000 0.0067 0.0041
vn -1.0000 0.0067 0.0026
vn -0.9809 0.0072 -0.1942
vn -0.9811 0.0072 -0.1935
vn -0.9242 0.0070 -0.3819
vn -0.9240 0.0070 -0.3824
vn -0.8315 0.0063 -0.5555
vn -0.8318 0.0063 -0.5550
vn -0.7072 0.0053 -0.7070
vn -0.7069 0.0053 -0.7073
vn -0.5550 0.0039 -0.8318
vn -0.5553 0.0038 -0.8316
vn -0.3822 0.0022 -0.9241
vn -0.3819 0.0022 -0.9242
vn -0.1945 0.0007 -0.9809
vn -0.1949 0.0006 -0.9808
vn -0.0008 -0.0004 -1.0000
vn -0.0002 -0.0004 -1.0000
vn 0.1938 -0.0005 -0.9810
vn 0.1929 -0.0005 -0.9812
vn 0.3794 0.0005 -0.9252
vn 0.3804 0.0005 -0.9248
vn 0.5534 0.0025 -0.8329
vn 0.5524 0.0025 -0.8335
vn 0.7060 0.0052 -0.7082
vn 0.7068 0.0052 -0.7074
vn 0.8338 0.0082 -0.5520
vn 0.8333 0.0085 -0.5528
vn 0.9278 0.0111 -0.3730
vn 0.9277 0.0106 -0.3731
vn 0.9263 0.0116 -0.3767
vn 0.8290 0.0086 -0.5591
vn 0.9836 0.0127 -0.1799
vn 0.9998 0.0123 0.0170
vn 0.2262 -0.9738 -0.0248
vn 0.2262 -0.9738 -0.0249
vn 0.9205 0.0103 0.3906
vn 0.9780 0.0113 0.2084
vn 0.8287 0.0092 0.5597
vn 0.7031 0.0076 0.7110
vn 0.5485 0.0053 0.8361
vn 0.3714 0.0028 0.9285
vn 0.1813 0.0006 0.9834
vn -0.0137 -0.0012 0.9999
vn -0.2059 -0.0021 0.9786
vn -0.3910 -0.0022 0.9204
vn -0.5607 -0.0016 0.8280
vn -0.7093 -0.0005 0.7049
vn -0.8310 0.0011 0.5563
vn -0.9221 0.0031 0.3869
vn -0.9793 0.0052 0.2021
vn -1.0000 0.0066 0.0072
vn -0.9821 0.0072 -0.1885
vn -0.9271 0.0070 -0.3748
vn -0.8372 0.0063 -0.5468
vn -0.7157 0.0053 -0.6984
vn -0.5662 0.0039 -0.8243
vn -0.3953 0.0023 -0.9185
vn -0.2090 0.0007 -0.9779
vn -0.0155 -0.0003 -0.9999
vn 0.1790 -0.0005 -0.9839
vn 0.3667 0.0005 -0.9303
vn 0.5423 0.0024 -0.8402
vn 0.6986 0.0052 -0.7155
vt 0.131792 0.420237
vt 0.131569 0.424024
vt 0.121865 0.423398
vt 0.122108 0.419601
vt 0.133488 0.420338
vt 0.133377 0.424145
vt 0.521050 0.076366
vt 0.521050 0.072558
vt 0.532323 0.072578
vt 0.532313 0.076386
vt 0.519221 0.076366
vt 0.519231 0.072558
vt 0.517969 0.076366
vt 0.517979 0.072558
vt 0.325323 0.072271
vt 0.321192 0.072271
vt 0.321202 0.070998
vt 0.325323 0.071008
vt 0.321202 0.069190
vt 0.325333 0.069190
vt 0.327514 0.071008
vt 0.327514 0.072271
vt 0.327524 0.069190
vt 0.357129 0.133932
vt 0.357139 0.137720
vt 0.354937 0.137669
vt 0.354927 0.133872
vt 0.346968 0.137629
vt 0.346958 0.133831
vt 0.325363 0.061211
vt 0.321232 0.057909
vt 0.359300 0.133993
vt 0.359341 0.137760
vt 0.329726 0.071008
vt 0.329736 0.069190
vt 0.330373 0.069190
vt 0.330484 0.071008
vt 0.359967 0.134003
vt 0.359967 0.137780
vt 0.329716 0.072271
vt 0.330565 0.072382
vt 0.331241 0.071008
vt 0.331413 0.072493
vt 0.331009 0.069190
vt 0.332847 0.071008
vt 0.332069 0.072847
vt 0.331908 0.069019
vt 0.334463 0.071019
vt 0.332716 0.073190
vt 0.332827 0.068867
vt 0.718045 0.145901
vt 0.718803 0.145830
vt 0.718823 0.149577
vt 0.718096 0.149638
vt 0.717409 0.145951
vt 0.717359 0.149698
vt 0.717015 0.149719
vt 0.717015 0.145981
vt 0.333009 0.073392
vt 0.335221 0.071413
vt 0.716662 0.149739
vt 0.716621 0.146022
vt 0.333241 0.073655
vt 0.335908 0.071867
vt 0.154219 0.421156
vt 0.154259 0.424872
vt 0.153451 0.424781
vt 0.153148 0.421085
vt 0.152583 0.424771
vt 0.152552 0.421035
vt 0.336513 0.072392
vt 0.333403 0.073958
vt 0.155026 0.421216
vt 0.155036 0.424922
vt 0.155824 0.421277
vt 0.155844 0.424973
vt 0.156672 0.421317
vt 0.156703 0.425023
vt 0.157531 0.421368
vt 0.157571 0.425054
vt 0.158490 0.421398
vt 0.158500 0.425084
vt 0.159459 0.421408
vt 0.159449 0.425104
vt 0.160691 0.421418
vt 0.160732 0.425114
vt 0.161893 0.421388
vt 0.161963 0.425084
vt 0.163246 0.421307
vt 0.163337 0.425013
vt 0.333494 0.077372
vt 0.337271 0.078937
vt 0.336544 0.080119
vt 0.333130 0.078008
vt 0.333675 0.076766
vt 0.337655 0.077755
vt 0.712803 0.146173
vt 0.713419 0.146173
vt 0.713440 0.149890
vt 0.712813 0.149890
vt 0.712076 0.149880
vt 0.712086 0.146153
vt 0.711369 0.149840
vt 0.711399 0.146113
vt 0.332615 0.078503
vt 0.335544 0.081048
vt 0.710571 0.149789
vt 0.710611 0.146072
vt 0.334251 0.081816
vt 0.331928 0.078917
vt 0.709793 0.149719
vt 0.709824 0.145992
vt 0.332817 0.082300
vt 0.331181 0.079169
vt 0.166043 0.421014
vt 0.167537 0.420802
vt 0.167679 0.424529
vt 0.166184 0.424710
vt 0.164559 0.421186
vt 0.164700 0.424892
vt 0.330211 0.079270
vt 0.331019 0.082502
vt 0.169234 0.420560
vt 0.169476 0.424276
vt 0.170849 0.420348
vt 0.171274 0.424044
vt 0.179008 0.419409
vt 0.179291 0.423206
vt 0.507534 0.076386
vt 0.507544 0.072588
vt 0.329231 0.079381
vt 0.329221 0.082704
vt 0.321151 0.082704
vt 0.325282 0.079381
vt 0.704006 0.145486
vt 0.707905 0.145810
vt 0.707824 0.149547
vt 0.703895 0.149274
vt 0.696784 0.148981
vt 0.696895 0.145194
vt 0.722662 0.145567
vt 0.724843 0.145446
vt 0.724944 0.149224
vt 0.722742 0.149345
vt 0.720449 0.145699
vt 0.720550 0.149466
vt 0.719611 0.145759
vt 0.719702 0.149517
vt 0.708914 0.145901
vt 0.708803 0.149638
vt 0.714056 0.146153
vt 0.714086 0.149870
vt 0.714591 0.146143
vt 0.714642 0.149850
vt 0.715126 0.146113
vt 0.715187 0.149830
vt 0.715520 0.146093
vt 0.715571 0.149820
vt 0.715955 0.149789
vt 0.715924 0.146072
vt 0.716278 0.146052
vt 0.716318 0.149769
vt 0.336998 0.073029
vt 0.333524 0.074301
vt 0.333675 0.074655
vt 0.337412 0.073786
vt 0.333766 0.075028
vt 0.337665 0.074614
vt 0.337796 0.075543
vt 0.333776 0.075574
vt 0.333726 0.076119
vt 0.337766 0.076493
vt 0.151734 0.421065
vt 0.151452 0.424771
vt 0.150371 0.421146
vt 0.150381 0.424872
vt 0.335564 0.070726
vt 0.333554 0.068524
vt 0.334190 0.068009
vt 0.336564 0.070322
vt 0.364007 0.134074
vt 0.364087 0.137841
vt 0.363269 0.137851
vt 0.363219 0.134074
vt 0.362461 0.137841
vt 0.362401 0.134064
vt 0.364734 0.134054
vt 0.364855 0.137821
vt 0.334685 0.067433
vt 0.337423 0.069736
vt 0.365481 0.134033
vt 0.365643 0.137790
vt 0.335059 0.066716
vt 0.338130 0.068968
vt 0.365946 0.134013
vt 0.366087 0.137780
vt 0.338746 0.067999
vt 0.335221 0.066322
vt 0.149321 0.421156
vt 0.149351 0.424892
vt 0.148301 0.424882
vt 0.148281 0.421146
vt 0.147170 0.424852
vt 0.147160 0.421126
vt 0.146009 0.424801
vt 0.146019 0.421075
vt 0.335322 0.065878
vt 0.339140 0.066908
vt 0.144828 0.424751
vt 0.144838 0.421025
vt 0.339362 0.065736
vt 0.335362 0.065464
vt 0.143626 0.424700
vt 0.143636 0.420954
vt 0.335352 0.065049
vt 0.339372 0.064544
vt 0.367370 0.137730
vt 0.366946 0.137750
vt 0.366895 0.133973
vt 0.367370 0.133942
vt 0.366532 0.137760
vt 0.366421 0.133993
vt 0.368127 0.133902
vt 0.368218 0.137690
vt 0.368885 0.133862
vt 0.369036 0.137639
vt 0.369632 0.133821
vt 0.369764 0.137609
vt 0.338231 0.060747
vt 0.338907 0.061979
vt 0.335079 0.063403
vt 0.334726 0.062747
vt 0.339281 0.063221
vt 0.335281 0.064211
vt 0.141071 0.420813
vt 0.141011 0.424599
vt 0.139627 0.424529
vt 0.139708 0.420752
vt 0.142354 0.420883
vt 0.142313 0.424650
vt 0.138204 0.424458
vt 0.138325 0.420661
vt 0.337221 0.059737
vt 0.334211 0.062211
vt 0.136699 0.424367
vt 0.136820 0.420570
vt 0.335968 0.058909
vt 0.333574 0.061757
vt 0.135164 0.424266
vt 0.135295 0.420469
vt 0.334524 0.058383
vt 0.332817 0.061474
vt 0.371147 0.133720
vt 0.371945 0.133650
vt 0.372117 0.137457
vt 0.371299 0.137508
vt 0.370370 0.133761
vt 0.370521 0.137558
vt 0.332766 0.058010
vt 0.331898 0.061272
vt 0.373026 0.133579
vt 0.373056 0.137376
vt 0.373935 0.133508
vt 0.374026 0.137306
vt 0.379348 0.133114
vt 0.379581 0.136902
vt 0.330948 0.057929
vt 0.330928 0.061222
vt 0.361522 0.134043
vt 0.361532 0.137821
vt 0.360674 0.134023
vt 0.360603 0.137801
vt 0.327002 0.935444
vt 0.323235 0.935434
vt 0.323175 0.927759
vt 0.326931 0.927738
vt 0.330698 0.927718
vt 0.330779 0.935606
vt 0.334566 0.935929
vt 0.334476 0.927688
vt 0.338242 0.927658
vt 0.338333 0.936383
vt 0.342080 0.936969
vt 0.341989 0.927607
vt 0.345726 0.927557
vt 0.345797 0.937635
vt 0.349523 0.938383
vt 0.349432 0.927506
vt 0.353159 0.927445
vt 0.353240 0.939191
vt 0.356976 0.939999
vt 0.356885 0.927395
vt 0.360622 0.927334
vt 0.360743 0.940807
vt 0.364520 0.941564
vt 0.364359 0.927294
vt 0.368116 0.927233
vt 0.368297 0.942231
vt 0.372084 0.942806
vt 0.371872 0.927183
vt 0.375629 0.927132
vt 0.375862 0.943241
vt 0.379628 0.943523
vt 0.379386 0.927082
vt 0.383143 0.927031
vt 0.383395 0.943634
vt 0.387162 0.943584
vt 0.386910 0.926971
vt 0.270659 0.927506
vt 0.270447 0.943937
vt 0.266690 0.944069
vt 0.266903 0.927456
vt 0.274214 0.943624
vt 0.274416 0.927547
vt 0.278173 0.927567
vt 0.277981 0.943160
vt 0.281738 0.942564
vt 0.281940 0.927597
vt 0.285697 0.927627
vt 0.285515 0.941847
vt 0.289292 0.941049
vt 0.289454 0.927647
vt 0.293211 0.927668
vt 0.293069 0.940201
vt 0.296856 0.939332
vt 0.296968 0.927678
vt 0.300734 0.927698
vt 0.300664 0.938474
vt 0.304451 0.937686
vt 0.304491 0.927708
vt 0.308248 0.927728
vt 0.308238 0.936969
vt 0.312005 0.936363
vt 0.311995 0.927748
vt 0.315721 0.927759
vt 0.315752 0.935898
vt 0.319488 0.935585
vt 0.319438 0.927769
vt 0.319499 0.937080
vt 0.315762 0.937393
vt 0.323245 0.936918
vt 0.327012 0.936929
vt 0.754832 0.309172
vt 0.752974 0.309182
vt 0.752711 0.305809
vt 0.754529 0.305425
vt 0.751751 0.302567
vt 0.753479 0.301809
vt 0.748954 0.309293
vt 0.748762 0.306667
vt 0.748065 0.304142
vt 0.746883 0.301819
vt 0.750146 0.299597
vt 0.751701 0.298506
vt 0.747944 0.296981
vt 0.749267 0.295618
vt 0.745247 0.299809
vt 0.743156 0.298203
vt 0.745237 0.294840
vt 0.746267 0.293254
vt 0.742136 0.293254
vt 0.742843 0.291487
vt 0.740722 0.297042
vt 0.738056 0.296335
vt 0.738753 0.292285
vt 0.739106 0.290406
vt 0.735238 0.291952
vt 0.735238 0.290053
vt 0.735289 0.296113
vt 0.732521 0.296365
vt 0.731723 0.292295
vt 0.731360 0.290437
vt 0.728350 0.293295
vt 0.727633 0.291537
vt 0.729875 0.297092
vt 0.727451 0.298274
vt 0.725259 0.294911
vt 0.724219 0.293325
vt 0.722542 0.297082
vt 0.721219 0.295719
vt 0.725360 0.299890
vt 0.723704 0.301910
vt 0.720330 0.299698
vt 0.718755 0.298638
vt 0.718674 0.302688
vt 0.716927 0.301951
vt 0.722492 0.304223
vt 0.721765 0.306748
vt 0.717664 0.305930
vt 0.715806 0.305556
vt 0.717321 0.309293
vt 0.715422 0.309303
vt 0.721522 0.309374
vt 0.721785 0.311980
vt 0.717684 0.312646
vt 0.715826 0.313040
vt 0.718715 0.315868
vt 0.716967 0.316626
vt 0.722522 0.314495
vt 0.723734 0.316797
vt 0.720381 0.318848
vt 0.718816 0.319939
vt 0.722603 0.321474
vt 0.721280 0.322837
vt 0.725391 0.318807
vt 0.727491 0.320403
vt 0.725320 0.323605
vt 0.724290 0.325201
vt 0.728400 0.325191
vt 0.727703 0.326968
vt 0.729895 0.321575
vt 0.732521 0.322282
vt 0.731754 0.326160
vt 0.731390 0.328029
vt 0.735218 0.326504
vt 0.735228 0.328392
vt 0.735268 0.322514
vt 0.737995 0.322272
vt 0.738672 0.326150
vt 0.739036 0.328008
vt 0.741985 0.325160
vt 0.742692 0.326938
vt 0.740591 0.321555
vt 0.742975 0.320373
vt 0.745025 0.323575
vt 0.746045 0.325160
vt 0.747691 0.321413
vt 0.748984 0.322777
vt 0.745045 0.318767
vt 0.746691 0.316747
vt 0.749883 0.318787
vt 0.751408 0.319868
vt 0.751539 0.315798
vt 0.753226 0.316545
vt 0.747913 0.314434
vt 0.752580 0.312555
vt 0.754377 0.312929
vt 0.748681 0.311909
vt 0.746065 0.313929
vt 0.746661 0.311717
vt 0.745136 0.315939
vt 0.744419 0.313626
vt 0.744803 0.311646
vt 0.743803 0.315383
vt 0.742803 0.313505
vt 0.743025 0.311667
vt 0.742470 0.315121
vt 0.742833 0.316797
vt 0.742116 0.316202
vt 0.743813 0.317636
vt 0.741106 0.313525
vt 0.740965 0.315171
vt 0.740985 0.316585
vt 0.741379 0.317747
vt 0.739329 0.316929
vt 0.739288 0.315333
vt 0.739561 0.318353
vt 0.740005 0.319827
vt 0.742055 0.318929
vt 0.737713 0.320373
vt 0.737541 0.318727
vt 0.735319 0.320575
vt 0.735400 0.318848
vt 0.735491 0.317222
vt 0.737460 0.317141
vt 0.737450 0.315444
vt 0.735541 0.315474
vt 0.733258 0.318727
vt 0.733511 0.317141
vt 0.733642 0.315454
vt 0.733672 0.313666
vt 0.735581 0.313677
vt 0.737480 0.313656
vt 0.733703 0.311818
vt 0.735602 0.311818
vt 0.737500 0.311808
vt 0.739318 0.313606
vt 0.739369 0.311768
vt 0.737511 0.309899
vt 0.739399 0.309879
vt 0.735612 0.309909
vt 0.737521 0.307990
vt 0.739399 0.307960
vt 0.735612 0.308000
vt 0.733703 0.309909
vt 0.733703 0.308010
vt 0.733683 0.306102
vt 0.735602 0.306081
vt 0.737521 0.306081
vt 0.733642 0.304203
vt 0.735571 0.304173
vt 0.737511 0.304183
vt 0.739379 0.306071
vt 0.739359 0.304253
vt 0.737531 0.302294
vt 0.739419 0.302476
vt 0.735531 0.302233
vt 0.735440 0.300294
vt 0.737612 0.300405
vt 0.739672 0.300759
vt 0.740106 0.298991
vt 0.737783 0.298456
vt 0.735359 0.298274
vt 0.733521 0.302314
vt 0.733269 0.300425
vt 0.732925 0.298476
vt 0.731208 0.300789
vt 0.730612 0.299032
vt 0.731612 0.302516
vt 0.729905 0.302809
vt 0.729370 0.301385
vt 0.728501 0.299931
vt 0.727885 0.302324
vt 0.726744 0.301223
vt 0.728734 0.303122
vt 0.728410 0.304284
vt 0.726926 0.303769
vt 0.725411 0.302930
vt 0.726340 0.305546
vt 0.724492 0.304950
vt 0.728128 0.305940
vt 0.727936 0.307808
vt 0.725976 0.307526
vt 0.723936 0.307162
vt 0.725855 0.309616
vt 0.723754 0.309465
vt 0.727875 0.309758
vt 0.727936 0.311707
vt 0.725986 0.311697
vt 0.723956 0.311778
vt 0.726350 0.313677
vt 0.724512 0.313969
vt 0.728128 0.313545
vt 0.728421 0.315161
vt 0.726946 0.315424
vt 0.725441 0.315969
vt 0.727906 0.316838
vt 0.726764 0.317676
vt 0.728754 0.316222
vt 0.729926 0.316616
vt 0.729380 0.317777
vt 0.728532 0.318959
vt 0.731208 0.318363
vt 0.730632 0.319848
vt 0.731622 0.316939
vt 0.732915 0.320383
vt 0.730037 0.315202
vt 0.731764 0.315343
vt 0.729946 0.313555
vt 0.731784 0.313626
vt 0.729875 0.311747
vt 0.731784 0.311798
vt 0.729845 0.309849
vt 0.731784 0.309899
vt 0.729875 0.307930
vt 0.731784 0.307990
vt 0.729936 0.306091
vt 0.731784 0.306112
vt 0.730027 0.304385
vt 0.731764 0.304284
vt 0.742207 0.299880
vt 0.741500 0.301334
vt 0.743975 0.301153
vt 0.742965 0.302274
vt 0.742237 0.303062
vt 0.741096 0.302759
vt 0.741046 0.304334
vt 0.742581 0.304223
vt 0.743934 0.303688
vt 0.742894 0.305889
vt 0.741177 0.306051
vt 0.744520 0.305475
vt 0.746196 0.304880
vt 0.745298 0.302860
vt 0.746722 0.307081
vt 0.744863 0.307455
vt 0.746873 0.309404
vt 0.744954 0.309566
vt 0.743116 0.309707
vt 0.743065 0.307748
vt 0.741247 0.307909
vt 0.741268 0.309818
vt 0.741207 0.311717
vt 0.334577 0.937423
vt 0.330799 0.937100
vt 0.338343 0.937878
vt 0.342090 0.938454
vt 0.345807 0.939130
vt 0.349523 0.939877
vt 0.353250 0.940675
vt 0.356996 0.941483
vt 0.360753 0.942291
vt 0.364530 0.943049
vt 0.368318 0.943735
vt 0.372105 0.944291
vt 0.375872 0.944735
vt 0.379649 0.945008
vt 0.383426 0.945129
vt 0.387183 0.945068
vt 0.270427 0.945422
vt 0.266670 0.945563
vt 0.274194 0.945119
vt 0.277951 0.944654
vt 0.281718 0.944058
vt 0.285495 0.943341
vt 0.289272 0.942544
vt 0.293059 0.941695
vt 0.296846 0.940827
vt 0.300644 0.939978
vt 0.304451 0.939181
vt 0.308238 0.938464
vt 0.312005 0.937858
s 1
f 1/1/1 2/2/2 5/3/3 4/4/3
f 3/5/4 169/6/5 2/2/2 1/1/1
f 7/7/6 6/8/6 4/9/6 5/10/6
f 10/11/7 8/12/7 6/8/6 7/7/6
f 11/13/8 9/14/8 8/12/7 10/11/7
f 13/15/9 11/16/10 10/17/11 12/18/12
f 12/18/12 10/17/11 7/19/13 15/20/14
f 13/15/9 12/18/12 14/21/15 90/22/16
f 14/21/15 12/18/12 15/20/14 18/23/17
f 19/24/18 18/25/18 15/26/19 16/27/19
f 17/28/20 167/29/20 16/27/20 15/26/20
f 17/30/21 15/20/14 7/19/13 5/31/22
f 19/24/18 22/32/23 20/33/23 18/25/18
f 23/34/24 14/21/15 18/23/17 20/35/25
f 23/34/24 20/35/25 21/36/26 25/37/27
f 22/32/23 178/38/28 21/39/29 20/33/23
f 24/40/30 23/34/24 25/37/27 26/41/31
f 23/34/24 24/40/30 90/22/16 14/21/15
f 27/42/32 28/43/33 26/41/31 25/37/27
f 29/44/34 27/42/32 25/37/27 21/36/26
f 27/42/32 30/45/35 33/46/36 28/43/33
f 27/42/32 29/44/34 32/47/37 30/45/35
f 30/45/35 31/48/38 35/49/39 33/46/36
f 118/50/40 31/48/38 30/45/35 32/47/37
f 34/51/41 92/52/42 28/53/43 33/54/44
f 36/55/45 34/51/41 33/54/44 35/56/46
f 35/56/46 37/57/47 38/58/48 36/55/45
f 37/59/49 35/49/39 31/48/38 40/60/50
f 39/61/51 110/62/52 38/58/48 37/57/47
f 39/63/53 37/59/49 40/60/50 42/64/54
f 44/65/55 42/66/56 40/67/57 41/68/58
f 41/68/58 40/67/57 31/69/59 111/70/59
f 42/64/54 43/71/60 109/72/61 39/63/53
f 45/73/62 43/74/63 42/66/56 44/65/55
f 46/75/64 47/76/65 43/74/63 45/73/62
f 48/77/66 49/78/67 47/76/65 46/75/64
f 50/79/68 51/80/69 49/78/67 48/77/66
f 52/81/70 53/82/71 51/80/69 50/79/68
f 54/83/72 55/84/73 53/82/71 52/81/70
f 56/85/74 57/86/75 55/84/73 54/83/72
f 58/87/76 60/88/77 57/86/75 56/85/74
f 58/87/76 59/89/78 61/90/79 60/88/77
f 62/91/80 60/92/81 61/93/82 65/94/83
f 62/91/80 63/95/84 57/96/85 60/92/81
f 64/97/86 97/98/87 63/99/88 62/100/89
f 64/97/86 62/100/89 65/101/90 66/102/91
f 66/102/91 65/101/90 67/103/92 68/104/93
f 67/105/94 65/94/83 61/93/82 69/106/95
f 68/104/93 67/103/92 70/107/96 71/108/97
f 67/105/94 69/106/95 73/109/98 70/110/99
f 71/108/97 70/107/96 72/111/100 95/112/101
f 75/113/102 72/114/103 70/110/99 73/109/98
f 74/115/104 77/116/105 75/117/106 73/118/107
f 96/119/108 74/115/104 73/118/107 69/120/109
f 94/121/110 72/114/103 75/113/102 76/122/111
f 77/116/105 78/123/112 76/124/113 75/117/106
f 78/123/112 79/125/114 80/126/115 76/124/113
f 79/125/114 81/127/116 82/128/116 80/126/115
f 82/129/117 81/130/117 9/14/8 11/13/8
f 84/131/118 80/132/119 82/133/120 83/134/121
f 83/134/121 82/133/120 11/16/10 13/15/9
f 85/135/122 86/136/123 84/137/124 83/138/122
f 85/135/125 83/138/125 13/139/125 87/140/125
f 88/141/126 87/142/127 13/143/127 90/144/128
f 89/145/129 88/141/126 90/144/128 24/146/130
f 91/147/131 89/145/129 24/146/130 26/148/132
f 92/52/42 91/147/131 26/148/132 28/53/43
f 86/136/123 93/149/133 94/150/134 84/137/124
f 93/149/133 95/112/101 72/111/100 94/150/134
f 84/131/118 94/121/110 76/122/111 80/132/119
f 59/89/78 96/119/108 69/120/109 61/90/79
f 98/151/135 99/152/136 63/99/88 97/98/87
f 99/152/136 98/151/135 100/153/137 101/154/138
f 100/153/137 102/155/139 103/156/140 101/154/138
f 103/156/140 102/155/139 104/157/141 105/158/142
f 107/159/143 105/158/142 104/157/141 106/160/144
f 107/159/143 106/160/144 108/161/145 109/162/146
f 108/161/145 110/62/52 39/61/51 109/162/146
f 43/71/60 47/163/147 107/164/148 109/72/61
f 105/165/149 107/164/148 47/163/147 49/166/149
f 103/167/150 105/165/149 49/166/149 51/168/151
f 103/167/150 51/168/151 53/169/152 101/170/153
f 99/171/154 101/170/153 53/169/152 55/172/155
f 99/171/154 55/172/155 57/96/85 63/95/84
f 112/173/156 111/70/157 31/69/157 114/174/158
f 113/175/159 112/173/156 114/174/158 115/176/160
f 114/177/161 116/178/162 119/179/163 115/180/164
f 114/177/161 31/48/38 118/50/40 116/178/162
f 120/181/165 119/182/166 116/183/167 117/184/168
f 117/184/168 116/183/167 118/185/169 175/186/170
f 119/182/166 120/181/165 122/187/171 121/188/172
f 115/180/164 119/179/163 121/189/173 123/190/174
f 122/187/171 125/191/175 124/192/176 121/188/172
f 123/190/174 121/189/173 124/193/177 127/194/178
f 124/192/176 125/191/175 142/195/179 126/196/180
f 129/197/181 127/194/178 124/193/177 126/198/182
f 174/199/183 123/200/184 127/201/185 128/202/186
f 128/202/186 127/201/185 129/203/187 130/204/188
f 131/205/189 132/206/190 130/204/188 129/203/187
f 129/197/181 126/198/182 133/207/191 131/208/192
f 132/206/190 131/205/189 134/209/193 135/210/194
f 134/211/195 131/208/192 133/207/191 137/212/196
f 135/210/194 134/209/193 136/213/197 173/214/198
f 134/211/195 137/212/196 138/215/199 136/216/200
f 138/217/201 137/218/202 139/219/203 140/220/204
f 133/221/205 141/222/206 139/219/203 137/218/202
f 142/195/179 141/222/206 133/221/205 126/196/180
f 138/217/201 140/220/204 143/223/207 144/224/208
f 143/223/207 145/225/209 147/226/210 144/224/208
f 145/225/209 146/227/211 148/228/212 147/226/210
f 152/229/213 149/230/214 147/231/214 148/232/215
f 151/233/216 144/234/217 147/231/214 149/230/214
f 150/235/218 149/236/219 152/237/220 153/238/221
f 149/236/219 150/235/218 172/239/222 151/240/223
f 153/238/221 152/237/220 154/241/224 155/242/225
f 154/243/226 152/229/213 148/232/215 156/244/227
f 155/242/225 154/241/224 157/245/228 158/246/229
f 157/247/230 154/243/226 156/244/227 160/248/231
f 158/246/229 157/245/228 159/249/232 171/250/233
f 159/251/234 157/247/230 160/248/231 162/252/235
f 161/253/236 164/254/237 162/255/238 160/256/239
f 170/257/240 161/253/236 160/256/239 156/258/241
f 169/259/242 159/251/234 162/252/235 163/260/243
f 164/254/237 165/261/244 163/262/245 162/255/238
f 165/261/244 166/263/246 168/264/247 163/262/245
f 166/263/246 167/265/248 17/266/248 168/264/247
f 5/31/22 2/267/249 168/268/250 17/30/21
f 169/259/242 163/260/243 168/268/250 2/267/249
f 171/250/233 159/249/232 169/6/5 3/5/4
f 146/227/211 170/257/240 156/258/241 148/228/212
f 173/214/198 136/213/197 151/240/223 172/239/222
f 151/233/216 136/216/200 138/215/199 144/234/217
f 113/175/159 115/176/160 123/200/184 174/199/183
f 176/269/251 175/186/170 118/185/169 32/270/252
f 177/271/253 176/269/251 32/270/252 29/272/254
f 178/38/28 177/271/253 29/272/254 21/39/29
f 181/273/255 243/274/256 180/275/257 179/276/258
f 181/273/255 179/276/258 182/277/259 183/278/260
f 185/279/261 183/278/260 182/277/259 184/280/262
f 186/281/263 187/282/264 185/279/261 184/280/262
f 189/283/265 187/282/264 186/281/263 188/284/266
f 190/285/267 191/286/268 189/283/265 188/284/266
f 193/287/269 191/286/268 190/285/267 192/288/270
f 194/289/271 195/290/272 193/287/269 192/288/270
f 197/291/273 195/290/272 194/289/271 196/292/274
f 198/293/275 199/294/276 197/291/273 196/292/274
f 201/295/277 199/294/276 198/293/275 200/296/278
f 202/297/279 203/298/280 201/295/277 200/296/278
f 205/299/281 203/298/280 202/297/279 204/300/282
f 206/301/283 207/302/284 205/299/281 204/300/282
f 209/303/285 207/302/284 206/301/283 208/304/286
f 210/305/287 211/306/288 209/303/285 208/304/286
f 213/307/289 211/306/288 210/305/287 212/308/290
f 214/309/291 215/310/292 213/311/289 212/312/290
f 217/313/293 215/310/292 214/309/291 216/314/294
f 218/315/295 219/316/296 217/313/293 216/314/294
f 221/317/297 219/316/296 218/315/295 220/318/298
f 222/319/299 223/320/300 221/317/297 220/318/298
f 225/321/301 223/320/300 222/319/299 224/322/302
f 226/323/303 227/324/304 225/321/301 224/322/302
f 229/325/305 227/324/304 226/323/303 228/326/306
f 230/327/307 231/328/308 229/325/305 228/326/306
f 233/329/309 231/328/308 230/327/307 232/330/310
f 234/331/311 235/332/312 233/329/309 232/330/310
f 237/333/313 235/332/312 234/331/311 236/334/314
f 238/335/315 239/336/316 237/333/313 236/334/314
f 241/337/317 239/336/316 238/335/315 240/338/318
f 180/275/257 243/274/256 241/337/317 240/338/318
f 242/339/319 252/340/320 239/336/316 241/337/317
f 244/341/321 242/339/319 241/337/317 243/274/256
f 245/342/322 244/341/321 243/274/256 181/273/255
f 245/343/323 247/344/323 246/345/323 244/346/323
f 249/347/323 242/348/323 244/346/323 246/345/323
f 247/344/323 481/349/323 248/350/323 246/345/323
f 246/345/323 248/350/323 250/351/323 249/347/323
f 249/347/323 250/351/323 253/352/323 251/353/323
f 242/348/323 249/347/323 251/353/323 252/354/323
f 254/355/323 256/356/323 252/354/323 251/353/323
f 251/353/323 253/352/323 255/357/323 254/355/323
f 254/355/323 255/357/323 259/358/323 257/359/323
f 256/356/323 254/355/323 257/359/323 258/360/323
f 260/361/323 262/362/323 258/360/323 257/359/323
f 257/359/323 259/358/323 261/363/323 260/361/323
f 260/361/323 261/363/323 265/364/323 263/365/323
f 262/362/323 260/361/323 263/365/323 264/366/323
f 266/367/323 268/368/324 264/366/323 263/365/323
f 263/365/323 265/364/323 267/369/323 266/367/323
f 266/367/323 267/369/323 271/370/323 269/371/323
f 268/368/324 266/367/323 269/371/323 270/372/323
f 272/373/323 274/374/323 270/372/323 269/371/323
f 269/371/323 271/370/323 273/375/323 272/373/323
f 272/373/323 273/375/323 277/376/323 275/377/323
f 274/374/323 272/373/323 275/377/323 276/378/323
f 278/379/323 280/380/323 276/378/323 275/377/323
f 275/377/323 277/376/323 279/381/323 278/379/323
f 278/379/323 279/381/323 283/382/323 281/383/323
f 280/380/323 278/379/323 281/383/323 282/384/323
f 284/385/323 286/386/323 282/384/323 281/383/323
f 281/383/323 283/382/323 285/387/323 284/385/323
f 284/385/323 285/387/323 289/388/324 287/389/323
f 286/386/323 284/385/323 287/389/323 288/390/323
f 290/391/323 292/392/323 288/390/323 287/389/323
f 287/389/323 289/388/324 291/393/323 290/391/323
f 290/391/323 291/393/323 295/394/323 293/395/323
f 292/392/323 290/391/323 293/395/323 294/396/323
f 296/397/323 298/398/323 294/396/323 293/395/323
f 293/395/323 295/394/323 297/399/323 296/397/323
f 296/397/323 297/399/323 301/400/323 299/401/323
f 298/398/323 296/397/323 299/401/323 300/402/323
f 302/403/323 304/404/323 300/402/323 299/401/323
f 299/401/323 301/400/323 303/405/323 302/403/323
f 302/403/323 303/405/323 307/406/323 305/407/323
f 304/404/323 302/403/323 305/407/323 306/408/323
f 308/409/323 310/410/323 306/408/323 305/407/323
f 305/407/323 307/406/323 309/411/323 308/409/323
f 308/409/323 309/411/323 313/412/324 311/413/323
f 310/410/323 308/409/323 311/413/323 312/414/323
f 314/415/323 316/416/323 312/414/323 311/413/323
f 311/413/323 313/412/324 315/417/324 314/415/323
f 314/415/323 315/417/324 319/418/323 317/419/323
f 316/416/323 314/415/323 317/419/323 318/420/324
f 320/421/323 322/422/323 318/420/324 317/419/323
f 317/419/323 319/418/323 321/423/323 320/421/323
f 320/421/323 321/423/323 325/424/323 323/425/323
f 322/422/323 320/421/323 323/425/323 324/426/323
f 326/427/323 328/428/324 324/426/323 323/425/323
f 323/425/323 325/424/323 327/429/323 326/427/323
f 326/427/323 327/429/323 331/430/323 329/431/324
f 328/428/324 326/427/323 329/431/324 330/432/324
f 332/433/323 333/434/323 330/432/324 329/431/324
f 329/431/324 331/430/323 335/435/323 332/433/323
f 333/434/323 332/433/323 334/436/323 483/437/323
f 335/435/323 336/438/323 334/436/323 332/433/323
f 335/435/323 337/439/323 338/440/323 336/438/323
f 337/439/323 335/435/323 331/430/323 339/441/323
f 337/439/323 340/442/323 341/443/323 338/440/323
f 340/442/323 337/439/323 339/441/323 343/444/323
f 340/442/323 342/445/323 476/446/324 341/443/323
f 342/445/323 340/442/323 343/444/323 345/447/323
f 344/448/323 347/449/323 345/447/323 343/444/323
f 354/450/323 344/448/323 343/444/323 339/441/323
f 478/451/323 342/445/323 345/447/323 346/452/323
f 347/449/323 348/453/323 346/452/323 345/447/323
f 347/449/323 344/448/323 350/454/323 348/453/323
f 348/453/323 349/455/323 482/456/323 346/452/323
f 351/457/323 349/455/323 348/453/323 350/454/323
f 353/458/323 351/457/323 350/454/323 352/459/323
f 344/448/323 354/450/323 352/459/323 350/454/323
f 321/423/323 353/458/323 352/459/323 325/424/323
f 354/450/323 327/429/323 325/424/323 352/459/323
f 327/429/323 354/450/323 339/441/323 331/430/323
f 353/458/323 321/423/323 319/418/323 355/460/323
f 351/457/323 353/458/323 355/460/323 357/461/323
f 356/462/324 358/463/323 357/461/323 355/460/323
f 315/417/324 356/462/324 355/460/323 319/418/323
f 358/463/323 361/464/323 359/465/323 357/461/323
f 349/455/323 351/457/323 357/461/323 359/465/323
f 349/455/323 359/465/323 360/466/323 482/456/323
f 359/465/323 361/464/323 363/467/323 360/466/323
f 361/464/323 358/463/323 436/468/323 362/469/323
f 361/464/323 362/469/323 364/470/323 363/467/323
f 366/471/323 365/472/323 363/467/323 364/470/323
f 365/472/323 368/473/323 360/466/323 363/467/323
f 365/472/323 366/471/323 445/474/323 367/475/323
f 368/473/323 365/472/323 367/475/323 370/476/323
f 368/473/323 369/477/323 482/456/323 360/466/323
f 369/477/323 368/473/323 370/476/323 371/478/323
f 372/479/323 373/480/323 371/478/323 370/476/323
f 375/481/323 372/479/323 370/476/323 367/475/323
f 373/480/323 372/479/323 374/482/323 479/483/323
f 372/479/323 375/481/323 377/484/323 374/482/323
f 376/485/323 375/481/323 367/475/323 445/474/323
f 375/481/323 376/485/323 378/486/323 377/484/323
f 380/487/323 379/488/323 377/484/323 378/486/323
f 379/488/323 382/489/323 374/482/323 377/484/323
f 379/488/323 380/487/323 453/490/323 381/491/323
f 382/489/323 379/488/323 381/491/323 384/492/323
f 382/489/323 383/493/323 479/483/323 374/482/323
f 383/493/323 382/489/323 384/492/323 385/494/323
f 386/495/323 388/496/323 385/494/323 384/492/323
f 387/497/324 386/495/323 384/492/323 381/491/323
f 387/497/324 392/498/323 389/499/323 386/495/323
f 390/500/324 388/496/323 386/495/323 389/499/323
f 454/501/323 390/500/324 389/499/323 391/502/323
f 392/498/323 393/503/323 391/502/323 389/499/323
f 392/498/323 387/497/324 396/504/323 394/505/323
f 393/503/323 392/498/323 394/505/323 395/506/323
f 397/507/323 399/508/323 395/506/323 394/505/323
f 398/509/323 397/507/323 394/505/323 396/504/323
f 397/507/323 398/509/323 402/510/323 400/511/323
f 399/508/323 397/507/323 400/511/323 401/512/323
f 403/513/323 405/514/323 401/512/323 400/511/323
f 404/515/324 403/513/323 400/511/323 402/510/323
f 403/513/323 404/515/324 408/516/323 406/517/323
f 405/514/323 403/513/323 406/517/323 407/518/323
f 409/519/323 411/520/323 407/518/323 406/517/323
f 410/521/323 409/519/323 406/517/323 408/516/323
f 409/519/323 410/521/323 414/522/323 412/523/323
f 411/520/323 409/519/323 412/523/323 413/524/323
f 415/525/323 417/526/323 413/524/323 412/523/323
f 416/527/323 415/525/323 412/523/323 414/522/323
f 415/525/323 416/527/323 420/528/323 418/529/323
f 417/526/323 415/525/323 418/529/323 419/530/323
f 421/531/323 423/532/323 419/530/323 418/529/323
f 422/533/323 421/531/323 418/529/323 420/528/323
f 421/531/323 422/533/323 426/534/323 424/535/323
f 423/532/323 421/531/323 424/535/323 425/536/323
f 427/537/323 429/538/323 425/536/323 424/535/323
f 428/539/324 427/537/323 424/535/323 426/534/323
f 427/537/323 428/539/324 432/540/323 430/541/323
f 429/538/323 427/537/323 430/541/323 431/542/323
f 433/543/323 435/544/323 431/542/323 430/541/323
f 434/545/323 433/543/323 430/541/323 432/540/323
f 433/543/323 434/545/323 362/469/323 436/468/323
f 435/544/323 433/543/323 436/468/323 437/546/324
f 358/463/323 356/462/324 437/546/324 436/468/323
f 309/411/323 435/544/323 437/546/324 313/412/324
f 356/462/324 315/417/324 313/412/324 437/546/324
f 435/544/323 309/411/323 307/406/323 431/542/323
f 434/545/323 432/540/323 439/547/323 438/548/323
f 362/469/323 434/545/323 438/548/323 364/470/323
f 441/549/323 440/550/323 438/548/323 439/547/323
f 440/550/323 366/471/323 364/470/323 438/548/323
f 440/550/323 441/549/323 443/551/323 442/552/323
f 366/471/323 440/550/323 442/552/323 445/474/323
f 446/553/323 444/554/323 442/552/323 443/551/323
f 444/554/323 376/485/323 445/474/323 442/552/323
f 444/554/323 446/553/323 448/555/323 447/556/324
f 376/485/323 444/554/323 447/556/324 378/486/323
f 450/557/323 449/558/323 447/556/324 448/555/323
f 449/558/323 380/487/323 378/486/323 447/556/324
f 449/558/323 450/557/323 452/559/323 451/560/323
f 380/487/323 449/558/323 451/560/323 453/490/323
f 402/510/323 398/509/323 451/560/323 452/559/323
f 398/509/323 396/504/323 453/490/323 451/560/323
f 396/504/323 387/497/324 381/491/323 453/490/323
f 450/557/323 410/521/323 408/516/323 452/559/323
f 404/515/324 402/510/323 452/559/323 408/516/323
f 410/521/323 450/557/323 448/555/323 414/522/323
f 446/553/323 416/527/323 414/522/323 448/555/323
f 416/527/323 446/553/323 443/551/323 420/528/323
f 441/549/323 422/533/323 420/528/323 443/551/323
f 422/533/323 441/549/323 439/547/323 426/534/323
f 432/540/323 428/539/324 426/534/323 439/547/323
f 303/405/323 429/538/323 431/542/323 307/406/323
f 429/538/323 303/405/323 301/400/323 425/536/323
f 297/399/323 423/532/323 425/536/323 301/400/323
f 423/532/323 297/399/323 295/394/323 419/530/323
f 291/393/323 417/526/323 419/530/323 295/394/323
f 417/526/323 291/393/323 289/388/324 413/524/323
f 285/387/323 411/520/323 413/524/323 289/388/324
f 411/520/323 285/387/323 283/382/323 407/518/323
f 279/381/323 405/514/323 407/518/323 283/382/323
f 405/514/323 279/381/323 277/376/323 401/512/323
f 273/375/323 399/508/323 401/512/323 277/376/323
f 399/508/323 273/375/323 271/370/323 395/506/323
f 267/369/323 393/503/323 395/506/323 271/370/323
f 393/503/323 267/369/323 265/364/323 391/502/323
f 261/363/323 454/501/323 391/502/323 265/364/323
f 454/501/323 261/363/323 259/358/323 455/561/323
f 390/500/324 454/501/323 455/561/323 457/562/323
f 456/563/323 458/564/323 457/562/323 455/561/323
f 255/357/323 456/563/323 455/561/323 259/358/323
f 458/564/323 461/565/323 459/566/323 457/562/323
f 388/496/323 390/500/324 457/562/323 459/566/323
f 388/496/323 459/566/323 460/567/323 385/494/323
f 459/566/323 461/565/323 462/568/323 460/567/323
f 461/565/323 458/564/323 464/569/323 462/568/323
f 463/570/323 480/571/323 460/567/323 462/568/323
f 465/572/323 463/570/323 462/568/323 464/569/323
f 467/573/323 465/572/323 464/569/323 466/574/323
f 458/564/323 456/563/323 466/574/323 464/569/323
f 250/351/323 467/573/323 466/574/323 253/352/323
f 456/563/323 255/357/323 253/352/323 466/574/323
f 467/573/323 250/351/323 248/350/323 468/575/323
f 465/572/323 467/573/323 468/575/323 470/576/323
f 469/577/323 471/578/323 470/576/323 468/575/323
f 481/349/323 469/577/323 468/575/323 248/350/323
f 471/578/323 474/579/323 472/580/323 470/576/323
f 463/570/323 465/572/323 470/576/323 472/580/323
f 480/571/323 463/570/323 472/580/323 473/581/323
f 474/579/323 475/582/323 473/581/323 472/580/323
f 475/582/323 474/579/323 476/446/324 477/583/324
f 474/579/323 471/578/323 341/443/323 476/446/324
f 342/445/323 478/451/323 477/583/324 476/446/324
f 478/451/323 369/477/323 371/478/323 477/583/324
f 373/480/323 475/582/323 477/583/324 371/478/323
f 369/477/323 478/451/323 346/452/323 482/456/323
f 475/582/323 373/480/323 479/483/323 473/581/323
f 383/493/323 480/571/323 473/581/323 479/483/323
f 480/571/323 383/493/323 385/494/323 460/567/323
f 471/578/323 469/577/323 338/440/323 341/443/323
f 469/577/323 481/349/323 336/438/323 338/440/323
f 334/436/323 336/438/323 481/349/323 247/344/323
f 247/344/323 245/343/323 483/437/323 334/436/323
f 185/279/261 333/584/325 483/585/326 183/278/260
f 245/342/322 181/273/255 183/278/260 483/585/326
f 333/584/325 185/279/261 187/282/264 330/586/327
f 189/283/265 328/587/328 330/586/327 187/282/264
f 328/587/328 189/283/265 191/286/268 324/588/329
f 193/287/269 322/589/330 324/588/329 191/286/268
f 322/589/330 193/287/269 195/290/272 318/590/331
f 197/291/273 316/591/332 318/590/331 195/290/272
f 316/591/332 197/291/273 199/294/276 312/592/333
f 201/295/277 310/593/334 312/592/333 199/294/276
f 310/593/334 201/295/277 203/298/280 306/594/335
f 205/299/281 304/595/336 306/594/335 203/298/280
f 304/595/336 205/299/281 207/302/284 300/596/337
f 209/303/285 298/597/338 300/596/337 207/302/284
f 298/597/338 209/303/285 211/306/288 294/598/339
f 213/307/289 292/599/340 294/598/339 211/306/288
f 288/600/341 292/601/340 213/311/289 215/310/292
f 286/602/342 288/600/341 215/310/292 217/313/293
f 282/603/343 286/602/342 217/313/293 219/316/296
f 280/604/344 282/603/343 219/316/296 221/317/297
f 276/605/345 280/604/344 221/317/297 223/320/300
f 274/606/346 276/605/345 223/320/300 225/321/301
f 270/607/347 274/606/346 225/321/301 227/324/304
f 268/608/348 270/607/347 227/324/304 229/325/305
f 264/609/349 268/608/348 229/325/305 231/328/308
f 262/610/350 264/609/349 231/328/308 233/329/309
f 258/611/351 262/610/350 233/329/309 235/332/312
f 256/612/352 258/611/351 235/332/312 237/333/313
f 252/340/320 256/612/352 237/333/313 239/336/316
