v -42.3705 -5.1302 47.6485
v -42.1065 -6.3953 47.6235
v -41.2570 -6.2347 47.6411
v -41.5174 -4.9737 47.6723
v -35.7156 -0.0005 48.0429
v -36.3136 -0.1028 48.1080
v -36.0494 -1.3796 47.9400
v -35.4401 -1.2737 47.8777
v -37.6274 2.4338 48.6984
v -36.8496 2.5599 48.6736
v -37.1505 4.1128 49.1210
v -37.9183 3.9872 49.1666
v -37.4586 5.6459 49.6201
v -38.2105 5.5139 49.6775
v -36.8898 5.7536 49.4927
v -36.5620 4.2139 49.0104
v -36.2486 2.6627 48.5911
v -38.7639 7.8268 50.4669
v -38.0736 8.0237 50.4668
v -38.4612 8.8550 50.7765
v -39.0588 8.5885 50.7333
v -38.9807 9.4732 51.0218
v -39.2862 9.1043 50.9184
v -38.6551 9.8871 51.0616
v -38.0228 9.1548 50.7625
v -37.5605 8.2143 50.3994
v -42.2249 -1.0422 47.9082
v -43.0920 -1.1716 47.8610
v -42.8465 -2.4986 47.7469
v -41.9866 -2.3610 47.7859
v -43.8961 -1.2916 47.8145
v -43.6439 -2.6262 47.7082
v -44.4685 1.4899 48.2695
v -43.6263 1.5854 48.3318
v -43.9364 3.1800 48.7696
v -44.7938 3.0978 48.6972
v -44.2268 4.7057 49.2659
v -45.0865 4.6287 49.1879
v -43.3028 4.8002 49.3458
v -43.0162 3.2743 48.8439
v -42.7229 1.6902 48.3956
v -45.2830 5.8269 49.6075
v -45.9441 5.7618 49.5215
v -45.7518 4.5656 49.1110
v -46.4242 5.7300 49.3613
v -46.2348 4.5257 48.9622
v -46.4849 6.7596 49.7684
v -46.0050 6.7567 49.9175
v -45.3617 6.8063 49.9921
v -42.0196 7.4225 50.3700
v -42.2197 8.5592 50.7841
v -43.1254 8.3859 50.6838
v -42.8902 7.2703 50.2831
v -43.9667 8.1450 50.5435
v -43.7494 7.1003 50.1781
v -44.2002 9.0758 50.8759
v -43.3575 9.3981 51.0503
v -42.4030 9.5888 51.1600
v -38.6286 -0.4647 48.0857
v -39.5282 -0.6078 48.0466
v -39.2941 -1.9092 47.8978
v -38.3862 -1.7591 47.9290
v -40.4617 -0.7590 48.0019
v -40.2305 -2.0665 47.8619
v -40.9885 1.9255 48.5220
v -40.0761 2.0606 48.5831
v -40.3917 3.6274 49.0546
v -41.2981 3.5049 48.9901
v -40.6936 5.1596 49.5755
v -41.5929 5.0425 49.5082
v -39.8061 5.2735 49.6305
v -39.5011 3.7488 49.1100
v -39.1884 2.1955 48.6379
v -40.5638 9.4483 51.1150
v -40.5489 10.1763 51.3866
v -41.5205 10.3681 51.4731
v -41.4492 9.5821 51.1729
v -42.5433 10.3974 51.4701
v -42.6326 10.9458 51.5756
v -41.5497 10.9126 51.5804
v -40.4953 10.7023 51.4859
v -44.4646 9.7909 51.1431
v -45.1452 9.2452 50.9045
v -44.8147 8.6792 50.6921
v -45.6185 8.5507 50.6263
v -45.2451 8.3175 50.5465
v -46.0623 8.7696 50.6007
v -45.4864 9.6030 50.9326
v -44.6900 10.2689 51.2117
v -40.2928 7.6463 50.4751
v -41.1431 7.5490 50.4401
v -40.9417 6.4288 50.0116
v -40.0716 6.5527 50.0643
v -41.8234 6.2980 49.9385
v -41.3547 -0.9043 47.9555
v -41.1213 -2.2170 47.8245
v -41.8575 1.8019 48.4590
v -42.1556 3.3849 48.9186
v -42.4444 4.9179 49.4292
v -43.5605 10.1891 51.3508
v -43.7071 10.7206 51.4443
v -37.0843 -0.2281 48.1260
v -37.8352 -0.3435 48.1153
v -37.5811 -1.6301 47.9525
v -36.8215 -1.5083 47.9592
v -38.3899 2.3152 48.6810
v -38.6902 3.8673 49.1550
v -38.9852 5.3912 49.6732
v -44.5787 -1.4015 47.7692
v -44.3255 -2.7413 47.6704
v -45.1245 -1.4895 47.6533
v -44.8764 -2.8349 47.5610
v -45.6741 1.3387 48.0810
v -45.1511 1.4024 48.2097
v -45.4684 3.0243 48.6285
v -45.9696 2.9741 48.4909
v -45.2997 7.6952 50.3161
v -44.6729 7.8785 50.4108
v -44.5913 6.9310 50.0776
v -37.7577 6.9553 50.0607
v -37.2072 7.0871 49.9521
v -38.4894 6.8014 50.0976
v -39.8170 9.2471 51.0039
v -39.6907 9.8941 51.2303
v -39.5068 10.3812 51.3090
v -45.9022 7.7018 50.2866
v -46.3788 7.7952 50.1918
v -42.6761 6.1604 49.8543
v -43.5381 6.0285 49.7695
v -41.3171 8.6179 50.8225
v -40.4657 8.6058 50.8139
v -39.2572 6.6728 50.0958
v -39.5011 7.7207 50.4764
v -44.4450 5.9158 49.6886
v -36.5815 1.1896 48.3450
v -35.9796 1.2928 48.2760
v -37.3548 1.0639 48.3622
v -43.3530 0.1683 48.0425
v -42.4685 0.2857 48.0977
v -44.1728 0.0597 47.9885
v -39.7926 0.6876 48.2612
v -38.9002 0.8280 48.3094
v -40.7143 0.5431 48.2074
v -41.5973 0.4099 48.1528
v -38.1073 0.9485 48.3467
v -44.8573 -0.0396 47.9362
v -45.3959 -0.1172 47.8136
v -38.8287 -4.4850 47.7368
v -38.5411 -5.7252 47.6893
v -37.6328 -5.5540 47.7027
v -37.9185 -4.3189 47.7548
v -39.7569 -4.6543 47.7164
v -39.4679 -5.8981 47.6741
v -40.6502 -4.8173 47.6949
v -40.3755 -6.0696 47.6580
v -41.5186 -4.9763 47.6723
v -41.2589 -6.2366 47.6411
v -43.4023 -3.9671 47.6517
v -44.0810 -4.0871 47.6213
v -43.8274 -5.3990 47.6017
v -43.1554 -5.2758 47.6246
v -44.6322 -4.1851 47.5181
v -44.3770 -5.5000 47.5050
v -39.7198 8.5519 50.7663
v -36.5554 -2.7950 47.8466
v -35.7761 -2.6618 47.8288
v -35.4981 -3.8762 47.7619
v -34.8983 -3.7662 47.7127
v -35.1601 -2.5532 47.7710
v -42.3709 -5.1306 47.6485
v -41.7506 -3.6851 47.7141
v -42.6076 -3.8309 47.6829
v -38.1541 -3.0623 47.8244
v -39.0670 -3.2184 47.8005
v -40.0019 -3.3804 47.7730
v -40.8896 -3.5356 47.7441
v -37.3324 -2.9248 47.8425
v -37.0798 -4.1657 47.7687
v -36.2838 -4.0202 47.7730
v -35.9643 -5.2391 47.7193
v -35.1667 -5.0890 47.7170
v -36.7801 -5.3930 47.7137
v -34.6634 -4.9923 47.6770
vt 0.156615 0.892917
vt 0.156214 0.917913
vt 0.139526 0.917941
vt 0.139884 0.893040
vt 0.011464 0.819627
vt 0.023174 0.819127
vt 0.022911 0.844588
vt 0.010973 0.844989
vt 0.038380 0.764682
vt 0.023270 0.765373
vt 0.022960 0.733596
vt 0.037867 0.732762
vt 0.022780 0.701873
vt 0.037395 0.701113
vt 0.011490 0.702811
vt 0.011380 0.734553
vt 0.011475 0.766119
vt 0.038709 0.652442
vt 0.025024 0.651464
vt 0.029016 0.633268
vt 0.041244 0.636065
vt 0.036342 0.618769
vt 0.043460 0.624835
vt 0.028563 0.612334
vt 0.019565 0.629607
vt 0.014523 0.650374
vt 0.138949 0.815508
vt 0.155932 0.814901
vt 0.156119 0.841133
vt 0.139259 0.841579
vt 0.171654 0.814352
vt 0.171752 0.840735
vt 0.172156 0.758579
vt 0.155778 0.759656
vt 0.155478 0.727081
vt 0.172108 0.725739
vt 0.154931 0.695527
vt 0.171581 0.694101
vt 0.136942 0.696849
vt 0.137572 0.728411
vt 0.138162 0.760798
vt 0.170428 0.669045
vt 0.183212 0.668209
vt 0.184474 0.693158
vt 0.192847 0.667956
vt 0.194200 0.692916
vt 0.189770 0.646741
vt 0.180274 0.647698
vt 0.167901 0.648796
vt 0.101857 0.648076
vt 0.101111 0.624404
vt 0.118959 0.624715
vt 0.118977 0.648057
vt 0.135924 0.626726
vt 0.135995 0.648497
vt 0.136631 0.607079
vt 0.119310 0.603422
vt 0.100445 0.602916
vt 0.068380 0.817388
vt 0.086022 0.816866
vt 0.086400 0.842662
vt 0.068592 0.843105
vt 0.104323 0.816395
vt 0.104782 0.842271
vt 0.104186 0.762355
vt 0.086327 0.762964
vt 0.086193 0.730693
vt 0.103889 0.729888
vt 0.085846 0.698839
vt 0.103368 0.697976
vt 0.068541 0.699769
vt 0.068797 0.731488
vt 0.068920 0.763526
vt 0.066216 0.612610
vt 0.063081 0.597973
vt 0.080601 0.590369
vt 0.082412 0.606542
vt 0.099789 0.586025
vt 0.099448 0.575201
vt 0.079064 0.579794
vt 0.059978 0.588149
vt 0.138737 0.591655
vt 0.153875 0.600304
vt 0.149911 0.612983
vt 0.165630 0.612649
vt 0.159546 0.618692
vt 0.173429 0.607235
vt 0.159150 0.592399
vt 0.141305 0.581798
vt 0.068261 0.649905
vt 0.084729 0.648687
vt 0.085406 0.672202
vt 0.068456 0.672910
vt 0.102663 0.671666
vt 0.121855 0.815975
vt 0.122274 0.841935
vt 0.121213 0.761665
vt 0.120693 0.729236
vt 0.120075 0.697488
vt 0.119910 0.586662
vt 0.120770 0.575933
vt 0.038183 0.818555
vt 0.052838 0.817963
vt 0.052832 0.843595
vt 0.037988 0.844101
vt 0.053262 0.764082
vt 0.052906 0.732118
vt 0.052505 0.700466
vt 0.184974 0.814056
vt 0.185062 0.840522
vt 0.195809 0.813975
vt 0.195961 0.840448
vt 0.195814 0.757701
vt 0.185419 0.757901
vt 0.185191 0.724882
vt 0.195213 0.724648
vt 0.163104 0.631085
vt 0.150455 0.629595
vt 0.152732 0.648931
vt 0.023210 0.674316
vt 0.012189 0.674679
vt 0.037557 0.674146
vt 0.052909 0.619674
vt 0.048027 0.607212
vt 0.042600 0.598729
vt 0.174442 0.628889
vt 0.183481 0.625994
vt 0.119439 0.671442
vt 0.136369 0.671063
vt 0.083771 0.626486
vt 0.067739 0.629945
vt 0.052568 0.673616
vt 0.053022 0.651545
vt 0.154096 0.670126
vt 0.023344 0.793158
vt 0.011553 0.793756
vt 0.038425 0.792546
vt 0.155895 0.788210
vt 0.138629 0.789084
vt 0.171908 0.787412
vt 0.086145 0.790884
vt 0.068656 0.791395
vt 0.104236 0.790365
vt 0.121569 0.789784
vt 0.053134 0.791953
vt 0.185229 0.786934
vt 0.195894 0.786788
vt 0.086995 0.893458
vt 0.086101 0.918096
vt 0.068245 0.918194
vt 0.069110 0.893630
vt 0.105252 0.893299
vt 0.104313 0.918032
vt 0.122824 0.893163
vt 0.122173 0.917979
vt 0.139884 0.893040
vt 0.139526 0.917941
vt 0.171967 0.867127
vt 0.185230 0.866997
vt 0.185209 0.892784
vt 0.172047 0.892848
vt 0.196120 0.866950
vt 0.196063 0.892758
vt 0.053856 0.634016
vt 0.037652 0.869654
vt 0.022413 0.870061
vt 0.021608 0.894199
vt 0.009847 0.894397
vt 0.010336 0.870382
vt 0.156615 0.892917
vt 0.139572 0.867663
vt 0.156380 0.867376
vt 0.068958 0.868834
vt 0.086869 0.868472
vt 0.105223 0.868161
vt 0.122656 0.867908
vt 0.052857 0.869236
vt 0.052658 0.893803
vt 0.037032 0.893988
vt 0.035436 0.918354
vt 0.019819 0.918467
vt 0.051465 0.918256
vt 0.009980 0.918570
vn -0.0210 -0.0242 0.9995
vn -0.0171 -0.0240 0.9996
vn -0.0138 -0.0275 0.9995
vn -0.0194 -0.0263 0.9995
vn 0.1284 -0.1259 0.9837
vn 0.0880 -0.1362 0.9868
vn 0.0778 -0.0911 0.9928
vn 0.1147 -0.0815 0.9901
vn 0.0478 -0.2529 0.9663
vn 0.1253 -0.2291 0.9653
vn 0.1591 -0.2596 0.9525
vn 0.0668 -0.2892 0.9549
vn 0.1811 -0.2730 0.9448
vn 0.0790 -0.2991 0.9510
vn 0.2446 -0.2543 0.9357
vn 0.2150 -0.2387 0.9470
vn 0.1742 -0.2119 0.9616
vn 0.0751 -0.3172 0.9454
vn 0.1625 -0.2926 0.9423
vn 0.1412 -0.2753 0.9509
vn 0.0684 -0.3119 0.9477
vn 0.1248 -0.2693 0.9549
vn 0.0681 -0.3203 0.9449
vn 0.1686 -0.2221 0.9603
vn 0.1976 -0.2429 0.9497
vn 0.2273 -0.2723 0.9350
vn -0.0351 -0.1231 0.9918
vn -0.0383 -0.1172 0.9924
vn -0.0352 -0.0733 0.9967
vn -0.0320 -0.0790 0.9964
vn -0.0444 -0.1123 0.9927
vn -0.0407 -0.0683 0.9968
vn -0.0511 -0.2348 0.9707
vn -0.0432 -0.2402 0.9698
vn -0.0477 -0.2950 0.9543
vn -0.0581 -0.2910 0.9550
vn -0.0500 -0.3269 0.9438
vn -0.0656 -0.3265 0.9429
vn -0.0449 -0.3266 0.9441
vn -0.0434 -0.2994 0.9531
vn -0.0397 -0.2465 0.9683
vn -0.0670 -0.3536 0.9330
vn -0.1795 -0.3578 0.9164
vn -0.1649 -0.3320 0.9288
vn -0.2689 -0.3567 0.8947
vn -0.2499 -0.3350 0.9085
vn -0.2702 -0.3530 0.8958
vn -0.1775 -0.3569 0.9171
vn -0.0609 -0.3561 0.9324
vn -0.0278 -0.3535 0.9350
vn -0.0277 -0.3454 0.9380
vn -0.0458 -0.3471 0.9367
vn -0.0394 -0.3545 0.9342
vn -0.0523 -0.3436 0.9376
vn -0.0440 -0.3519 0.9350
vn -0.0493 -0.3574 0.9327
vn -0.0453 -0.3574 0.9329
vn -0.0256 -0.3542 0.9348
vn -0.0170 -0.1484 0.9888
vn -0.0225 -0.1427 0.9895
vn -0.0202 -0.0973 0.9951
vn -0.0152 -0.1026 0.9946
vn -0.0276 -0.1362 0.9903
vn -0.0248 -0.0913 0.9955
vn -0.0294 -0.2581 0.9657
vn -0.0220 -0.2621 0.9648
vn -0.0209 -0.3084 0.9510
vn -0.0304 -0.3068 0.9513
vn -0.0210 -0.3263 0.9450
vn -0.0327 -0.3271 0.9444
vn -0.0076 -0.3226 0.9465
vn -0.0114 -0.3085 0.9512
vn -0.0148 -0.2648 0.9642
vn 0.0284 -0.3412 0.9396
vn 0.0573 -0.2695 0.9613
vn 0.0108 -0.2701 0.9628
vn -0.0030 -0.3492 0.9371
vn -0.0340 -0.2722 0.9616
vn -0.0443 -0.1947 0.9799
vn 0.0168 -0.1915 0.9814
vn 0.0771 -0.1935 0.9781
vn -0.1011 -0.2841 0.9535
vn -0.1078 -0.2954 0.9493
vn -0.0370 -0.3524 0.9351
vn -0.1237 -0.3161 0.9406
vn -0.0328 -0.3498 0.9363
vn -0.2044 -0.2802 0.9379
vn -0.1700 -0.2351 0.9570
vn -0.1448 -0.2111 0.9667
vn 0.0138 -0.3392 0.9406
vn -0.0111 -0.3483 0.9373
vn -0.0169 -0.3429 0.9392
vn 0.0024 -0.3349 0.9423
vn -0.0306 -0.3464 0.9376
vn -0.0321 -0.1296 0.9910
vn -0.0290 -0.0852 0.9959
vn -0.0360 -0.2528 0.9668
vn -0.0389 -0.3037 0.9520
vn -0.0412 -0.3268 0.9442
vn -0.0771 -0.2781 0.9575
vn -0.1037 -0.2008 0.9741
vn 0.0281 -0.1481 0.9886
vn -0.0024 -0.1510 0.9885
vn -0.0024 -0.1051 0.9945
vn 0.0240 -0.1025 0.9944
vn 0.0048 -0.2631 0.9648
vn 0.0132 -0.3037 0.9527
vn 0.0211 -0.3138 0.9493
vn -0.1176 -0.1199 0.9858
vn -0.1128 -0.0756 0.9907
vn -0.1867 -0.1292 0.9739
vn -0.1808 -0.0848 0.9799
vn -0.2051 -0.2482 0.9467
vn -0.1316 -0.2411 0.9615
vn -0.1461 -0.2965 0.9438
vn -0.2248 -0.3015 0.9266
vn -0.0477 -0.3445 0.9376
vn -0.0457 -0.3392 0.9396
vn -0.0448 -0.3507 0.9354
vn 0.1798 -0.2892 0.9402
vn 0.2466 -0.2721 0.9301
vn 0.0805 -0.3097 0.9474
vn 0.0574 -0.3302 0.9422
vn 0.1001 -0.2698 0.9577
vn 0.1322 -0.2056 0.9697
vn -0.1556 -0.3353 0.9292
vn -0.2458 -0.3209 0.9146
vn -0.0383 -0.3478 0.9368
vn -0.0414 -0.3484 0.9364
vn -0.0070 -0.3402 0.9403
vn 0.0218 -0.3308 0.9434
vn 0.0317 -0.3222 0.9461
vn 0.0429 -0.3266 0.9442
vn -0.0465 -0.3503 0.9355
vn 0.1010 -0.1855 0.9774
vn 0.1452 -0.1729 0.9742
vn 0.0344 -0.2012 0.9789
vn -0.0403 -0.1748 0.9838
vn -0.0372 -0.1809 0.9828
vn -0.0470 -0.1697 0.9844
vn -0.0232 -0.2002 0.9795
vn -0.0171 -0.2053 0.9786
vn -0.0290 -0.1942 0.9805
vn -0.0341 -0.1877 0.9816
vn -0.0007 -0.2066 0.9784
vn -0.1231 -0.1773 0.9764
vn -0.1936 -0.1862 0.9632
vn -0.0129 -0.0467 0.9988
vn -0.0107 -0.0407 0.9991
vn -0.0078 -0.0437 0.9990
vn -0.0095 -0.0504 0.9987
vn -0.0158 -0.0423 0.9990
vn -0.0132 -0.0370 0.9992
vn -0.0187 -0.0376 0.9991
vn -0.0156 -0.0328 0.9993
vn -0.0221 -0.0348 0.9991
vn -0.0169 -0.0306 0.9994
vn -0.0355 -0.0379 0.9986
vn -0.1069 -0.0458 0.9932
vn -0.1027 -0.0349 0.9941
vn -0.0324 -0.0268 0.9991
vn -0.1742 -0.0556 0.9831
vn -0.1705 -0.0453 0.9843
vn 0.0503 -0.3189 0.9465
vn 0.0191 -0.0684 0.9975
vn 0.0664 -0.0556 0.9962
vn 0.0543 -0.0332 0.9980
vn 0.0881 -0.0220 0.9959
vn 0.1003 -0.0454 0.9939
vn -0.0279 -0.0316 0.9991
vn -0.0275 -0.0482 0.9985
vn -0.0306 -0.0428 0.9986
vn -0.0126 -0.0697 0.9975
vn -0.0169 -0.0650 0.9977
vn -0.0209 -0.0597 0.9980
vn -0.0245 -0.0540 0.9982
vn -0.0022 -0.0717 0.9974
vn -0.0021 -0.0516 0.9987
vn 0.0124 -0.0476 0.9988
vn 0.0089 -0.0400 0.9992
vn 0.0509 -0.0245 0.9984
vn -0.0020 -0.0444 0.9990
vn 0.0831 -0.0136 0.9964
f 1/1/1 2/2/2 3/3/3 4/4/4
f 5/5/5 6/6/6 7/7/7 8/8/8
f 9/9/9 10/10/10 11/11/11 12/12/12
f 12/12/12 11/11/11 13/13/13 14/14/14
f 15/15/15 13/13/13 11/11/11 16/16/16
f 16/16/16 11/11/11 10/10/10 17/17/17
f 18/18/18 19/19/19 20/20/20 21/21/21
f 21/21/21 20/20/20 22/22/22 23/23/23
f 24/24/24 22/22/22 20/20/20 25/25/25
f 25/25/25 20/20/20 19/19/19 26/26/26
f 27/27/27 28/28/28 29/29/29 30/30/30
f 28/28/28 31/31/31 32/32/32 29/29/29
f 33/33/33 34/34/34 35/35/35 36/36/36
f 36/36/36 35/35/35 37/37/37 38/38/38
f 39/39/39 37/37/37 35/35/35 40/40/40
f 40/40/40 35/35/35 34/34/34 41/41/41
f 38/38/38 42/42/42 43/43/43 44/44/44
f 44/44/44 43/43/43 45/45/45 46/46/46
f 47/47/47 45/45/45 43/43/43 48/48/48
f 48/48/48 43/43/43 42/42/42 49/49/49
f 50/50/50 51/51/51 52/52/52 53/53/53
f 53/53/53 52/52/52 54/54/54 55/55/55
f 56/56/56 54/54/54 52/52/52 57/57/57
f 57/57/57 52/52/52 51/51/51 58/58/58
f 59/59/59 60/60/60 61/61/61 62/62/62
f 60/60/60 63/63/63 64/64/64 61/61/61
f 65/65/65 66/66/66 67/67/67 68/68/68
f 68/68/68 67/67/67 69/69/69 70/70/70
f 71/71/71 69/69/69 67/67/67 72/72/72
f 72/72/72 67/67/67 66/66/66 73/73/73
f 74/74/74 75/75/75 76/76/76 77/77/77
f 77/77/77 76/76/76 78/78/78 58/58/58
f 79/79/79 78/78/78 76/76/76 80/80/80
f 80/80/80 76/76/76 75/75/75 81/81/81
f 56/56/56 82/82/82 83/83/83 84/84/84
f 84/84/84 83/83/83 85/85/85 86/86/86
f 87/87/87 85/85/85 83/83/83 88/88/88
f 88/88/88 83/83/83 82/82/82 89/89/89
f 90/90/90 91/91/91 92/92/92 93/93/93
f 93/93/93 92/92/92 69/69/69 71/71/71
f 70/70/70 69/69/69 92/92/92 94/94/94
f 94/94/94 92/92/92 91/91/91 50/50/50
f 63/63/63 95/95/95 96/96/96 64/64/64
f 95/95/95 27/27/27 30/30/30 96/96/96
f 41/41/41 97/97/97 98/98/98 40/40/40
f 40/40/40 98/98/98 99/99/99 39/39/39
f 70/70/70 99/99/99 98/98/98 68/68/68
f 68/68/68 98/98/98 97/97/97 65/65/65
f 56/56/56 57/57/57 100/100/100 82/82/82
f 82/82/82 100/100/100 101/101/101 89/89/89
f 79/79/79 101/101/101 100/100/100 78/78/78
f 78/78/78 100/100/100 57/57/57 58/58/58
f 102/102/102 103/103/103 104/104/104 105/105/105
f 73/73/73 106/106/106 107/107/107 72/72/72
f 72/72/72 107/107/107 108/108/108 71/71/71
f 14/14/14 108/108/108 107/107/107 12/12/12
f 12/12/12 107/107/107 106/106/106 9/9/9
f 31/31/31 109/109/109 110/110/110 32/32/32
f 109/109/109 111/111/111 112/112/112 110/110/110
f 113/113/113 114/114/114 115/115/115 116/116/116
f 116/116/116 115/115/115 44/44/44 46/46/46
f 38/38/38 44/44/44 115/115/115 36/36/36
f 36/36/36 115/115/115 114/114/114 33/33/33
f 86/86/86 117/117/117 118/118/118 84/84/84
f 84/84/84 118/118/118 54/54/54 56/56/56
f 55/55/55 54/54/54 118/118/118 119/119/119
f 119/119/119 118/118/118 117/117/117 49/49/49
f 26/26/26 19/19/19 120/120/120 121/121/121
f 121/121/121 120/120/120 13/13/13 15/15/15
f 14/14/14 13/13/13 120/120/120 122/122/122
f 122/122/122 120/120/120 19/19/19 18/18/18
f 74/74/74 123/123/123 124/124/124 75/75/75
f 75/75/75 124/124/124 125/125/125 81/81/81
f 24/24/24 125/125/125 124/124/124 22/22/22
f 22/22/22 124/124/124 123/123/123 23/23/23
f 49/49/49 117/117/117 126/126/126 48/48/48
f 48/48/48 126/126/126 127/127/127 47/47/47
f 87/87/87 127/127/127 126/126/126 85/85/85
f 85/85/85 126/126/126 117/117/117 86/86/86
f 50/50/50 53/53/53 128/128/128 94/94/94
f 94/94/94 128/128/128 99/99/99 70/70/70
f 39/39/39 99/99/99 128/128/128 129/129/129
f 129/129/129 128/128/128 53/53/53 55/55/55
f 50/50/50 91/91/91 130/130/130 51/51/51
f 51/51/51 130/130/130 77/77/77 58/58/58
f 74/74/74 77/77/77 130/130/130 131/131/131
f 131/131/131 130/130/130 91/91/91 90/90/90
f 71/71/71 108/108/108 132/132/132 93/93/93
f 93/93/93 132/132/132 133/133/133 90/90/90
f 18/18/18 133/133/133 132/132/132 122/122/122
f 122/122/122 132/132/132 108/108/108 14/14/14
f 39/39/39 129/129/129 134/134/134 37/37/37
f 37/37/37 134/134/134 42/42/42 38/38/38
f 49/49/49 42/42/42 134/134/134 119/119/119
f 119/119/119 134/134/134 129/129/129 55/55/55
f 17/17/17 10/10/10 135/135/135 136/136/136
f 136/136/136 135/135/135 6/6/6 5/5/5
f 102/102/102 6/6/6 135/135/135 137/137/137
f 137/137/137 135/135/135 10/10/10 9/9/9
f 41/41/41 34/34/34 138/138/138 139/139/139
f 139/139/139 138/138/138 28/28/28 27/27/27
f 31/31/31 28/28/28 138/138/138 140/140/140
f 140/140/140 138/138/138 34/34/34 33/33/33
f 73/73/73 66/66/66 141/141/141 142/142/142
f 142/142/142 141/141/141 60/60/60 59/59/59
f 63/63/63 60/60/60 141/141/141 143/143/143
f 143/143/143 141/141/141 66/66/66 65/65/65
f 65/65/65 97/97/97 144/144/144 143/143/143
f 143/143/143 144/144/144 95/95/95 63/63/63
f 27/27/27 95/95/95 144/144/144 139/139/139
f 139/139/139 144/144/144 97/97/97 41/41/41
f 102/102/102 137/137/137 145/145/145 103/103/103
f 103/103/103 145/145/145 142/142/142 59/59/59
f 73/73/73 142/142/142 145/145/145 106/106/106
f 106/106/106 145/145/145 137/137/137 9/9/9
f 33/33/33 114/114/114 146/146/146 140/140/140
f 140/140/140 146/146/146 109/109/109 31/31/31
f 111/111/111 109/109/109 146/146/146 147/147/147
f 147/147/147 146/146/146 114/114/114 113/113/113
f 148/148/148 149/149/149 150/150/150 151/151/151
f 152/152/152 153/153/153 149/149/149 148/148/148
f 152/152/152 154/154/154 155/155/155 153/153/153
f 156/156/156 157/157/157 155/155/155 154/154/154
f 158/158/158 159/159/159 160/160/160 161/161/161
f 159/159/159 162/162/162 163/163/163 160/160/160
f 90/90/90 133/133/133 164/164/164 131/131/131
f 131/131/131 164/164/164 123/123/123 74/74/74
f 23/23/23 123/123/123 164/164/164 21/21/21
f 21/21/21 164/164/164 133/133/133 18/18/18
f 7/7/7 105/105/105 165/165/165 166/166/166
f 167/167/167 168/168/168 169/169/169 166/166/166
f 170/170/170 156/156/156 171/171/171 172/172/172
f 148/148/148 151/151/151 173/173/173 174/174/174
f 152/152/152 148/148/148 174/174/174 175/175/175
f 154/154/154 152/152/152 175/175/175 176/176/176
f 156/156/156 154/154/154 176/176/176 171/171/171
f 104/104/104 62/62/62 173/173/173 177/177/177
f 178/178/178 179/179/179 165/165/165 177/177/177
f 167/167/167 179/179/179 180/180/180 181/181/181
f 182/182/182 178/178/178 151/151/151 150/150/150
f 166/166/166 165/165/165 179/179/179 167/167/167
f 177/177/177 173/173/173 151/151/151 178/178/178
f 167/167/167 181/181/181 183/183/183 168/168/168
f 182/182/182 180/180/180 179/179/179 178/178/178
f 170/170/170 172/172/172 158/158/158 161/161/161
f 166/166/166 169/169/169 8/8/8 7/7/7
f 172/172/172 171/171/171 30/30/30 29/29/29
f 158/158/158 172/172/172 29/29/29 32/32/32
f 174/174/174 173/173/173 62/62/62 61/61/61
f 175/175/175 174/174/174 61/61/61 64/64/64
f 176/176/176 175/175/175 64/64/64 96/96/96
f 171/171/171 176/176/176 96/96/96 30/30/30
f 177/177/177 165/165/165 105/105/105 104/104/104
f 159/159/159 158/158/158 32/32/32 110/110/110
f 162/162/162 159/159/159 110/110/110 112/112/112
f 6/6/6 102/102/102 105/105/105 7/7/7
f 103/103/103 59/59/59 62/62/62 104/104/104
