# Blender 4.5.3 LTS
# www.blender.org
o DPadRight
v -11.940827 -21.561367 -11.413429
v -11.948470 -25.444210 -11.677757
v -11.178918 -21.620121 -10.574646
v -11.187456 -25.502922 -10.839855
v -10.502881 -21.683802 -9.665577
v -10.512286 -25.566551 -9.931786
v -9.919657 -21.751823 -8.694622
v -9.929861 -25.634491 -8.962158
v -9.476695 -21.813969 -7.807442
v -9.488301 -25.696381 -8.078777
v -9.221450 -21.860050 -7.149624
v -9.235729 -25.741890 -7.429352
v -9.079283 -21.894447 -6.658543
v -9.080604 -25.902153 -6.920513
v -8.975551 -21.921558 -6.271591
v -8.879926 -21.950832 -5.853588
v -8.972911 -25.847717 -6.536106
v -8.879266 -25.876442 -6.125980
v -8.964989 -26.293629 -6.535786
v -8.957067 -26.573223 -6.523819
v -8.877288 -26.320709 -6.149193
v -9.040991 -26.285366 -6.785076
v -9.121105 -26.301647 -6.946861
v -9.029539 -26.558338 -6.756824
v -9.040001 -27.211533 -6.783092
v -9.114915 -26.550365 -6.932537
v -9.127858 -27.188496 -6.963699
v -9.208891 -26.547085 -7.052475
v -9.224210 -27.168930 -7.091358
v -9.307171 -26.546280 -7.118046
v -9.208065 -26.327538 -7.045258
v -9.242265 -26.189232 -7.159630
v -9.304606 -26.348103 -7.104362
v -9.333694 -26.232620 -7.204231
v -9.415552 -26.360527 -7.133896
v -9.442019 -26.260563 -7.228230
v -9.416558 -26.548458 -7.147015
v -9.545729 -26.362000 -7.143555
v -9.569840 -26.269402 -7.233494
v -9.543859 -26.554123 -7.157005
v -9.669694 -26.358437 -7.143295
v -9.691856 -26.268764 -7.229790
v -9.762003 -26.355789 -7.143131
v -9.666272 -26.561676 -7.157257
v -9.760993 -26.569515 -7.156956
v -9.640400 -27.337406 -7.206215
v -9.529860 -27.248783 -7.203423
v -9.620946 -27.541100 -7.209156
v -9.749195 -27.418236 -7.206219
v -9.863171 -27.485039 -7.204678
v -9.730982 -27.630611 -7.209766
v -9.852885 -27.704720 -7.210819
v -9.696752 -27.731964 -7.197060
v -9.639923 -27.823059 -7.171227
v -9.588058 -27.641384 -7.195099
v -9.822480 -27.807655 -7.201416
v -9.967932 -27.863445 -7.204376
v -9.769942 -27.911385 -7.177776
v -9.930777 -27.970886 -7.181549
v -9.703939 -28.008114 -7.116936
v -9.633136 -28.090019 -6.995972
v -9.566630 -27.903397 -7.109066
v -9.883166 -28.071774 -7.120785
v -9.829973 -28.156586 -7.000210
v -10.098497 -28.070675 -7.120327
v -10.136402 -27.971043 -7.181396
v -10.315944 -28.025612 -7.117172
v -10.053767 -28.154263 -6.999779
v -10.003350 -28.215309 -6.824890
v -10.279307 -28.107121 -6.996449
v -14.503821 -26.947468 -6.919693
v -10.234940 -28.166828 -6.821487
v -10.183213 -28.198334 -6.597416
v -14.492417 -26.990753 -6.740227
v -14.478383 -27.016560 -6.514629
v -15.355054 -26.769432 -6.724960
v -15.348449 -26.794109 -6.499046
v -15.982997 -26.619530 -6.719658
v -15.360424 -26.729427 -6.905376
v -15.364572 -26.681675 -7.031700
v -15.984340 -26.584526 -6.904209
v -15.984368 -26.544369 -7.034203
v -16.329679 -26.517113 -6.924721
v -16.533171 -26.495625 -6.948273
v -16.329676 -26.542976 -6.729439
v -16.325626 -26.487362 -7.065094
v -16.536938 -26.474709 -7.149910
v -16.313463 -26.455559 -7.132046
v -16.300175 -26.424034 -7.156525
v -16.468451 -26.445652 -7.216343
v -15.982068 -26.505867 -7.097973
v -15.979322 -26.469822 -7.122585
v -15.367536 -26.633675 -7.095310
v -14.518931 -26.834560 -7.109833
v -15.369843 -26.587589 -7.120644
v -15.372052 -26.545559 -7.132107
v -14.523701 -26.775917 -7.135689
v -10.365216 -27.824833 -7.201569
v -14.527966 -26.721745 -7.145779
v -10.378409 -27.722366 -7.207085
v -14.532696 -26.644295 -7.146873
v -10.369955 -27.499275 -7.197906
v -14.544059 -26.386044 -7.143097
v -15.375455 -26.494831 -7.136143
v -15.977737 -26.403084 -7.141354
v -15.386711 -26.348949 -7.140511
v -15.388497 -26.293629 -7.138763
v -15.978576 -26.322956 -7.151249
v -16.280336 -26.310654 -7.188324
v -15.978741 -26.284248 -7.150757
v -15.980861 -26.252567 -7.198082
v -16.279207 -26.278130 -7.188305
v -16.285515 -26.249382 -7.231049
v -16.288225 -26.367508 -7.176506
v -18.773853 -26.631168 -4.918816
v -18.102415 -26.584251 -5.588593
v -17.535883 -26.584251 -5.588593
v -18.102415 -26.631168 -4.918816
v -18.102415 -26.678089 -4.248997
v -17.535883 -26.631184 -4.918816
v -17.179182 -26.631172 -4.918816
v -17.535883 -26.678089 -4.248997
v -17.535883 -26.725010 -3.579193
v -17.179182 -26.678097 -4.249001
v -16.941381 -26.678097 -4.249001
v -17.179182 -26.725014 -3.579193
v -16.941381 -26.725018 -3.579193
v -17.179184 -26.771923 -2.909397
v -17.535883 -26.771923 -2.909397
v -17.179182 -26.818859 -2.239605
v -16.941381 -26.771923 -2.909397
v -16.941381 -26.818859 -2.239605
v -16.731558 -26.771923 -2.909397
v -16.731558 -26.725014 -3.579193
v -16.533171 -26.782150 -2.910954
v -16.731558 -26.818859 -2.239605
v -16.731558 -26.865772 -1.569820
v -16.533171 -26.829060 -2.241997
v -16.533171 -26.876019 -1.573055
v -16.329676 -26.859711 -2.249207
v -16.329676 -26.906738 -1.582817
v -15.972969 -26.937328 -2.259586
v -16.329676 -26.812820 -2.915615
v -16.329676 -26.766056 -3.582077
v -15.971166 -26.890450 -2.923515
v -15.970566 -26.843826 -3.587521
v -15.307739 -27.041626 -2.934719
v -15.305330 -26.995029 -3.598114
v -14.391889 -27.264446 -2.950024
v -15.314940 -27.088451 -2.271549
v -14.407189 -27.311234 -2.286674
v -15.326895 -27.135509 -1.608719
v -15.975956 -26.984428 -1.595806
v -14.432587 -27.358177 -1.624008
v -15.339448 -27.175343 -1.049606
v -14.459258 -27.397884 -1.065117
v -15.979094 -27.024307 -1.035809
v -15.348449 -27.200504 -0.697495
v -15.355054 -27.207569 -0.470348
v -14.478384 -27.422955 -0.713078
v -15.981343 -27.049484 -0.683189
v -16.329676 -26.971588 -0.666607
v -15.982997 -27.058392 -0.454700
v -16.329676 -26.983952 -0.434330
v -15.984340 -27.049461 -0.267071
v -16.329679 -26.985565 -0.237362
v -15.984368 -27.027821 -0.132763
v -15.360424 -27.193127 -0.286118
v -15.364572 -27.163441 -0.154377
v -14.503821 -27.411022 -0.302338
v -14.512649 -27.374859 -0.170273
v -10.279305 -28.570053 -0.388023
v -14.492417 -27.428852 -0.486084
v -10.234940 -28.604790 -0.569584
v -10.183213 -28.604740 -0.795868
v -10.003350 -28.653259 -0.572975
v -9.773225 -28.656502 -0.573132
v -9.948388 -28.653687 -0.799305
v -10.053769 -28.617195 -0.391281
v -10.098495 -28.551239 -0.260254
v -9.829973 -28.619556 -0.391193
v -9.633136 -28.553051 -0.386135
v -9.883165 -28.552383 -0.259975
v -9.703939 -28.488827 -0.254890
v -9.930777 -28.460953 -0.185749
v -9.967932 -28.357742 -0.148140
v -9.769942 -28.401516 -0.181171
v -10.136401 -28.461090 -0.185913
v -10.165185 -28.358898 -0.148552
v -10.344485 -28.418777 -0.182796
v -14.518931 -27.325737 -0.098312
v -10.365215 -28.319115 -0.145538
v -10.315942 -28.506172 -0.257099
v -10.378407 -28.218414 -0.125782
v -14.523701 -27.271263 -0.064552
v -14.527966 -27.219017 -0.046989
v -15.369843 -27.082672 -0.053169
v -15.979322 -26.966309 -0.034836
v -15.372052 -27.042648 -0.035984
v -15.367536 -27.124771 -0.084698
v -15.982068 -26.998581 -0.064240
v -16.313463 -26.953514 -0.023472
v -16.468451 -26.955448 0.061375
v -16.300175 -26.925701 0.005142
v -16.325626 -26.975677 -0.094208
v -16.536938 -26.974972 -0.008492
v -16.739883 -26.982044 -0.005383
v -16.533171 -26.967564 -0.211075
v -16.622746 -26.996498 0.200043
v -16.553757 -26.970310 0.214066
v -16.527178 -26.941525 0.229431
v -16.445194 -26.928303 0.086617
v -16.512306 -26.914158 0.238789
v -16.432177 -26.901974 0.101505
v -16.503283 -26.887463 0.245193
v -16.424290 -26.876049 0.111225
v -16.487505 -26.832214 0.256958
v -16.485254 -26.799923 0.260338
v -16.410484 -26.822266 0.128815
v -16.408512 -26.790512 0.132996
v -16.280338 -26.817875 0.052418
v -16.279209 -26.785664 0.056957
v -15.978576 -26.824883 0.014008
v -16.288225 -26.872536 0.032810
v -15.977737 -26.902859 -0.006939
v -16.292740 -26.898872 0.021931
v -15.978013 -26.935543 -0.017899
v -15.375455 -26.992989 -0.024899
v -14.532697 -27.142487 -0.035118
v -15.386711 -26.849129 -0.000229
v -15.388497 -26.794109 0.005756
v -14.544059 -26.886223 -0.002850
v -14.545785 -26.805134 0.004986
v -10.279221 -27.068314 -0.016941
v -10.263703 -26.847443 0.002018
v -10.369955 -27.996220 -0.103798
v -10.102655 -27.076389 -0.017616
v -10.089326 -26.849094 0.001881
v -10.178141 -28.030285 -0.106163
v -9.926086 -27.079456 -0.017265
v -9.842703 -27.076153 -0.016201
v -9.914971 -26.851875 0.001705
v -9.989245 -28.028877 -0.103428
v -9.863171 -27.983059 -0.095097
v -9.989749 -28.255188 -0.126812
v -9.852885 -28.201473 -0.119637
v -10.182519 -28.256786 -0.128544
v -9.822480 -28.302074 -0.143291
v -9.730982 -28.127934 -0.110359
v -9.696752 -28.226524 -0.137047
v -9.620946 -28.039227 -0.098465
v -9.749194 -27.917130 -0.084244
v -9.760993 -27.069839 -0.014702
v -9.640400 -27.837090 -0.072975
v -9.666271 -27.062099 -0.013306
v -9.529860 -27.748943 -0.063423
v -9.543859 -27.054604 -0.012497
v -9.421987 -27.679333 -0.066685
v -9.519673 -27.939968 -0.083591
v -9.493712 -28.037628 -0.108173
v -9.424998 -27.866177 -0.082432
v -9.428506 -27.963615 -0.103668
v -9.334753 -27.853783 -0.111771
v -9.368536 -27.988884 -0.128475
v -9.247121 -27.869858 -0.185608
v -9.321177 -27.654926 -0.093994
v -9.307171 -27.041405 -0.049984
v -9.224210 -27.654255 -0.163246
v -9.208891 -27.033066 -0.115070
v -9.127858 -27.655827 -0.292389
v -9.114915 -27.019592 -0.234253
v -9.040001 -27.653465 -0.474434
v -9.160284 -27.881401 -0.318073
v -9.079694 -27.883999 -0.501873
v -9.211143 -28.045818 -0.340649
v -9.135524 -28.053356 -0.525345
v -9.279341 -28.177326 -0.356483
v -9.290450 -28.023655 -0.205948
v -9.363049 -28.148384 -0.223831
v -9.457561 -28.262390 -0.238194
v -9.438004 -28.104446 -0.147980
v -9.532139 -28.209515 -0.165283
v -9.588058 -28.136555 -0.126358
v -9.639923 -28.313129 -0.175354
v -9.566630 -28.384010 -0.248093
v -9.482996 -28.435474 -0.378258
v -9.368688 -28.299393 -0.368187
v -9.401130 -28.462498 -0.559532
v -9.563194 -28.588215 -0.568253
v -9.281234 -28.316925 -0.549213
v -9.333131 -28.460022 -0.785728
v -9.210904 -28.311359 -0.775311
v -9.256526 -28.435669 -1.137379
v -9.499771 -28.588360 -0.794735
v -9.714948 -28.657181 -0.799538
v -9.424434 -28.563805 -1.146366
v -9.641194 -28.632549 -1.151192
v -9.318759 -28.524845 -1.704033
v -9.216896 -28.478607 -2.365883
v -9.538027 -28.593491 -1.708900
v -9.148845 -28.397053 -1.695034
v -9.044596 -28.351223 -2.356895
v -9.024058 -28.248764 -1.684612
v -9.133309 -28.287159 -1.126968
v -8.940176 -28.118595 -1.675468
v -8.917946 -28.203201 -2.346481
v -8.832649 -28.072773 -2.337307
v -8.849763 -28.157452 -3.010792
v -8.763041 -28.026764 -3.001610
v -8.825151 -28.111240 -3.676304
v -8.978291 -28.305218 -3.021175
v -8.954620 -28.258865 -3.686649
v -9.152992 -28.432213 -3.030117
v -9.130534 -28.385666 -3.695526
v -9.378244 -28.500595 -3.034985
v -9.357289 -28.453979 -3.700329
v -9.439143 -28.547131 -2.370766
v -9.623507 -28.497055 -3.034813
v -9.603645 -28.450432 -3.700066
v -9.870080 -28.448013 -3.031433
v -9.681794 -28.543606 -2.370636
v -9.925804 -28.494560 -2.367313
v -9.777193 -28.590000 -1.708729
v -10.017747 -28.540947 -1.705364
v -9.876973 -28.629059 -1.150974
v -10.114141 -28.580078 -1.147560
v -9.851275 -28.401402 -3.696632
v -9.870080 -28.354805 -4.361835
v -14.386758 -27.217850 -3.613743
v -14.391889 -27.171471 -4.277431
v -15.307739 -26.948681 -4.261520
v -14.407189 -27.125301 -4.940819
v -15.314940 -26.902588 -4.924763
v -14.432587 -27.079407 -5.603554
v -9.925805 -28.308311 -5.025948
v -9.681794 -28.357353 -5.029495
v -10.017747 -28.261982 -5.687920
v -9.777193 -28.310997 -5.691414
v -10.114142 -28.222931 -6.245716
v -14.459258 -27.040813 -6.162529
v -9.876973 -28.271919 -6.249165
v -9.948388 -28.247276 -6.600838
v -9.641194 -28.275425 -6.249428
v -9.424434 -28.206661 -6.244625
v -9.714948 -28.250793 -6.601082
v -9.538027 -28.314480 -5.691730
v -9.318759 -28.245834 -5.686974
v -9.439143 -28.360855 -5.029846
v -9.378242 -28.407375 -4.365677
v -9.216896 -28.292320 -5.025131
v -9.152992 -28.338989 -4.360920
v -9.044596 -28.164925 -5.016277
v -9.148845 -28.118042 -5.678074
v -8.917946 -28.016895 -5.005959
v -8.978291 -28.211990 -4.352074
v -8.849763 -28.064217 -4.341774
v -8.763041 -27.933525 -4.332645
v -8.699116 -27.794586 -4.323757
v -8.832649 -27.886459 -4.996857
v -8.737716 -27.980404 -3.667133
v -8.673308 -27.841339 -3.657394
v -8.612914 -27.668945 -3.645321
v -8.699116 -27.887943 -2.991035
v -8.769716 -27.934418 -2.325893
v -8.638974 -27.715809 -2.976421
v -8.595284 -27.482983 -2.957535
v -8.710144 -27.762585 -2.308735
v -8.819411 -27.809181 -1.643574
v -8.666726 -27.529938 -2.287327
v -8.652255 -26.873333 -2.239624
v -8.776411 -27.576710 -1.619629
v -8.888840 -27.616100 -1.057079
v -8.762077 -26.920162 -1.571098
v -8.875309 -26.959808 -1.005222
v -8.762075 -26.642765 -1.551651
v -8.762074 -26.199051 -1.520569
v -8.652255 -26.595936 -2.220196
v -8.877288 -26.682968 -0.977928
v -8.879266 -26.239792 -0.938995
v -8.964989 -26.710045 -0.591331
v -8.957067 -26.985237 -0.642162
v -8.972911 -26.268528 -0.528847
v -9.040991 -26.736626 -0.343327
v -9.029539 -27.002991 -0.409367
v -9.121105 -26.775295 -0.185390
v -9.080604 -26.376034 -0.155788
v -9.079283 -22.370943 0.143539
v -9.235729 -26.288277 0.370422
v -9.165125 -26.629688 -0.017712
v -9.242265 -26.693657 0.040970
v -9.278570 -26.604504 0.371674
v -9.523128 -26.648209 0.995853
v -9.343358 -26.674847 0.392403
v -9.576817 -26.716339 0.985367
v -9.423484 -26.729374 0.403202
v -9.645019 -26.769039 0.969769
v -9.522054 -26.764046 0.403484
v -9.333694 -26.742832 0.079082
v -9.304606 -26.843258 -0.035904
v -9.442019 -26.773838 0.098953
v -9.569840 -26.783321 0.102913
v -9.415552 -26.859669 -0.008396
v -9.416558 -27.047607 -0.021603
v -9.545729 -26.862473 0.000938
v -9.669694 -26.858921 0.001205
v -9.762003 -26.856262 0.001396
v -9.691859 -26.782173 0.099331
v -9.782780 -26.781326 0.096638
v -9.758354 -26.773842 0.378227
v -9.950892 -26.809692 0.890068
v -9.642173 -26.774853 0.392712
v -9.845103 -26.773075 0.367279
v -9.917140 -26.772430 0.358089
v -10.032093 -26.808170 0.868176
v -10.099684 -26.806889 0.849823
v -10.426850 -26.863235 1.654251
v -10.970477 -26.926640 2.559349
v -10.351184 -26.865536 1.687077
v -10.490015 -26.861309 1.626743
v -11.028955 -26.924133 2.523602
v -10.553182 -26.859383 1.599239
v -11.087429 -26.921623 2.487827
v -10.706268 -26.856266 1.554859
v -10.167280 -26.805592 0.831501
v -9.989175 -26.771793 0.348942
v -10.331706 -26.803909 0.807396
v -10.160009 -26.771057 0.338631
v -10.497931 -26.802917 0.793251
v -10.331302 -26.770741 0.334106
v -14.596992 -26.779015 0.452160
v -10.862633 -26.853848 1.520447
v -14.657981 -26.798126 0.724857
v -11.368546 -26.912785 2.361588
v -14.559651 -26.818985 1.022728
v -11.226153 -26.916950 2.421165
v -11.958822 -26.968899 3.162636
v -11.833443 -26.974735 3.246117
v -12.628884 -27.020992 3.906124
v -14.927281 -26.826378 1.128139
v -15.181257 -26.842438 1.357674
v -15.251461 -26.799435 0.743576
v -15.608560 -26.812531 0.930668
v -15.365138 -26.778660 0.446869
v -15.397216 -26.762230 0.212395
v -15.986753 -26.786079 0.552956
v -16.323435 -26.786049 0.552509
v -15.987224 -26.762669 0.218681
v -12.523252 -27.028370 4.011589
v -12.417607 -27.035740 4.117039
v -12.369850 -27.039097 4.164658
v -11.710565 -26.980831 3.332989
v -11.657313 -26.983784 3.375126
v -11.604064 -26.986736 3.417286
v -12.322097 -27.042419 4.212311
v -11.540486 -26.990250 3.467632
v -11.456255 -26.994930 3.534317
v -10.900596 -26.929630 2.602032
v -12.265080 -27.046413 4.269176
v -12.189539 -27.051701 4.344543
v -12.113099 -27.045479 4.421612
v -12.053371 -27.014942 4.483631
v -11.971410 -26.898598 4.573921
v -11.948470 -26.585812 4.618843
v -11.213067 -26.840134 3.738640
v -12.007192 -26.964500 4.533447
v -11.252996 -26.906342 3.702229
v -10.584430 -26.843410 2.801987
v -11.304461 -26.957108 3.657738
v -11.371025 -26.988106 3.602585
v -10.640976 -26.894581 2.763699
v -10.714137 -26.926064 2.716614
v -10.069339 -26.827999 1.812164
v -10.008107 -26.776310 1.842445
v -10.148654 -26.860142 1.775394
v -10.250526 -26.868576 1.730598
v -9.732115 -26.802193 0.948029
v -9.842485 -26.811726 0.919071
v -10.807914 -26.933578 2.658588
v -9.960480 -26.709251 1.867920
v -10.540501 -26.776821 2.833603
v -9.929861 -26.395630 1.903214
v -9.919657 -22.513569 2.179615
v -10.512286 -26.463531 2.872845
v -9.488302 -26.333755 1.019821
v -9.476695 -22.451424 1.292446
v -9.221450 -22.405348 0.634621
v -10.502881 -22.581585 3.150566
v -11.187456 -26.527115 3.780910
v -11.178918 -22.645275 4.059647
v -11.940827 -22.704029 4.898422
v -17.179182 -26.946907 -0.411617
v -16.941383 -26.961559 -0.202293
v -16.941381 -26.946911 -0.411617
v -16.731560 -26.961559 -0.202293
v -16.731558 -26.946907 -0.411617
v -16.533171 -26.956154 -0.417301
v -16.731558 -26.930275 -0.648846
v -16.533171 -26.940617 -0.653267
v -16.731558 -26.905354 -1.004646
v -16.941381 -26.930267 -0.648846
v -16.941381 -26.905365 -1.004646
v -17.179182 -26.930267 -0.648846
v -17.179182 -26.905350 -1.004646
v -17.535883 -26.930267 -0.648846
v -17.535891 -26.905365 -1.004646
v -19.445297 -26.818848 -2.239605
v -18.773853 -26.865768 -1.569820
v -18.773853 -26.818848 -2.239605
v -18.102415 -26.865768 -1.569820
v -18.102415 -26.905350 -1.004646
v -17.535883 -26.865772 -1.569820
v -18.102415 -26.818851 -2.239605
v -17.535883 -26.818859 -2.239605
v -18.102415 -26.771915 -2.909397
v -18.102415 -26.725010 -3.579193
v -18.773853 -26.771915 -2.909397
v -18.773853 -26.725010 -3.579193
v -19.445297 -26.771915 -2.909397
v -19.445297 -26.725010 -3.579193
v -20.116739 -26.771923 -2.909397
v -20.116739 -26.725006 -3.579193
v -11.971408 -25.760212 -11.676895
v -12.007191 -25.831116 -11.645992
v -12.053370 -25.888000 -11.603687
v -12.113099 -25.926876 -11.546539
v -11.304461 -25.945900 -10.777832
v -11.371025 -25.984264 -10.727528
v -11.252996 -25.889420 -10.814823
v -10.640976 -26.008610 -9.883781
v -10.584430 -25.952610 -9.914566
v -10.714137 -26.046349 -9.841560
v -10.069339 -26.075333 -8.932255
v -10.008107 -26.019924 -8.955063
v -9.645019 -26.134392 -8.089882
v -10.148654 -26.112293 -8.900345
v -10.250526 -26.126900 -8.857155
v -9.732115 -26.170269 -8.072964
v -9.522054 -26.208420 -7.528427
v -9.842485 -26.183739 -8.045624
v -9.642173 -26.220608 -7.519279
v -9.950891 -26.185772 -8.016621
v -9.758354 -26.221626 -7.504784
v -10.351184 -26.129940 -8.813641
v -10.032085 -26.187305 -7.994728
v -10.426847 -26.132240 -8.780811
v -10.099680 -26.188591 -7.976387
v -9.845101 -26.222397 -7.493847
v -9.917135 -26.223034 -7.484665
v -9.782780 -26.268291 -7.227024
v -9.858148 -26.267906 -7.224686
v -9.838488 -26.353596 -7.142982
v -9.933521 -26.267517 -7.222343
v -9.989170 -26.223682 -7.475487
v -9.914971 -26.351398 -7.142834
v -10.107045 -26.266998 -7.219742
v -10.160007 -26.224407 -7.465206
v -10.280603 -26.266674 -7.218563
v -10.089326 -26.348610 -7.142616
v -10.263703 -26.346962 -7.142517
v -10.102655 -26.576412 -7.155003
v -10.279221 -26.568344 -7.154533
v -10.178142 -27.533329 -7.200294
v -9.926086 -26.579399 -7.155762
v -9.842703 -26.575985 -7.156364
v -9.989245 -27.531559 -7.202812
v -9.989749 -27.758926 -7.211193
v -10.182519 -27.760746 -7.209713
v -10.165187 -27.864639 -7.204124
v -14.545785 -26.304668 -7.139538
v -14.550411 -26.258091 -7.189377
v -14.564309 -26.232685 -7.346893
v -15.390678 -26.255466 -7.187210
v -15.397216 -26.233250 -7.338955
v -15.987224 -26.232803 -7.345253
v -15.365138 -26.216824 -7.573441
v -15.986753 -26.209393 -7.679512
v -14.596991 -26.216446 -7.578705
v -15.251461 -26.196033 -7.870136
v -14.657981 -26.197346 -7.851421
v -14.927281 -26.169102 -8.254700
v -15.608560 -26.182934 -8.057220
v -15.181259 -26.153023 -8.484245
v -12.628883 -25.974499 -11.032673
v -16.304438 -26.231487 -7.364136
v -12.322094 -25.953045 -11.338856
v -12.265079 -25.949062 -11.395733
v -11.540486 -26.005211 -10.594185
v -12.189539 -25.943779 -11.471088
v -11.456255 -26.000538 -10.660881
v -10.807914 -26.061886 -9.785141
v -10.900597 -26.065842 -9.728592
v -10.970476 -26.068832 -9.685902
v -11.028953 -26.071342 -9.650166
v -11.604060 -26.008739 -10.543850
v -11.657309 -26.011692 -10.501698
v -11.710561 -26.014641 -10.459549
v -12.369844 -25.956387 -11.291225
v -12.417603 -25.959721 -11.243603
v -12.523249 -25.967106 -11.138138
v -11.833443 -26.020729 -10.372665
v -11.226153 -26.078514 -9.547718
v -11.958822 -26.026577 -10.289230
v -11.368546 -26.082691 -9.488182
v -14.559651 -26.176487 -8.149292
v -10.862631 -26.141609 -8.647018
v -10.497926 -26.192554 -7.919807
v -10.706261 -26.139202 -8.681408
v -10.331700 -26.191563 -7.933964
v -10.553177 -26.136093 -8.725784
v -10.490011 -26.134167 -8.753292
v -11.087428 -26.073833 -9.614414
v -10.167273 -26.189869 -7.958054
v -10.331299 -26.224720 -7.460663
v -9.423484 -26.174099 -7.523304
v -9.343358 -26.121609 -7.505028
v -9.278570 -26.054855 -7.474678
v -9.576817 -26.080036 -8.097980
v -9.523128 -26.011116 -8.098843
v -9.960480 -25.949970 -8.970913
v -10.540501 -25.882256 -9.936588
v -11.213067 -25.818779 -10.841610
v -9.165125 -26.134079 -7.092621
v -19.445297 -26.678082 -4.248997
v -18.773853 -26.678082 -4.248997
v -17.179182 -26.865772 -1.569820
v -16.941381 -26.865772 -1.569820
v -16.533171 -26.915638 -1.008656
v -16.329676 -26.946514 -1.020592
v -16.440056 -26.773849 0.255852
v -16.385265 -26.773399 0.157082
v -16.304438 -26.763992 0.237564
v -16.285515 -26.763165 0.103302
v -15.980861 -26.761723 0.070190
v -15.978741 -26.786484 0.018948
v -15.390678 -26.763077 0.059010
v -14.550411 -26.765980 0.060829
v -14.564308 -26.762787 0.220348
v -10.280605 -26.778526 0.088531
v -10.107045 -26.779015 0.089645
v -9.933522 -26.779900 0.092152
v -9.858149 -26.780613 0.094406
v -9.838488 -26.854076 0.001549
v -9.208065 -26.814651 -0.091568
v -8.975551 -22.343836 -0.243412
v -8.879926 -22.314552 -0.661423
v -8.762070 -22.273636 -1.245586
v -8.652247 -22.226803 -1.914127
v -8.580718 -22.179792 -2.585186
v -8.652253 -26.152222 -2.189110
v -8.580722 -26.105217 -2.860168
v -8.554528 -26.058113 -3.532478
v -8.580722 -26.548935 -2.891270
v -8.554528 -26.501835 -3.563564
v -8.580722 -26.826324 -2.910686
v -8.554528 -26.779224 -3.582996
v -8.580722 -26.732132 -4.255302
v -8.569124 -27.435936 -3.629009
v -8.595284 -27.388908 -4.300461
v -8.666726 -27.341961 -4.970669
v -8.638974 -27.622101 -4.314240
v -8.710144 -27.575317 -4.981903
v -8.819412 -27.528732 -5.647064
v -8.769716 -27.747864 -4.988876
v -8.878271 -27.701313 -5.651497
v -8.989595 -27.662090 -6.209770
v -8.940176 -27.839577 -5.658642
v -9.050611 -27.800072 -6.216175
v -9.024058 -27.969746 -5.667713
v -9.133309 -27.930012 -6.225288
v -9.256526 -28.078533 -6.235683
v -9.210904 -27.904957 -6.576859
v -9.333131 -28.053612 -6.587269
v -9.281234 -27.878952 -6.801567
v -9.128959 -27.775154 -6.567768
v -9.197701 -27.751019 -6.793388
v -9.068512 -27.637344 -6.561844
v -9.010788 -27.464722 -6.560902
v -9.135524 -27.614624 -6.788422
v -9.079694 -27.443649 -6.788036
v -9.211143 -27.581383 -6.970295
v -9.290450 -27.540680 -7.100563
v -9.279341 -27.713837 -6.972923
v -9.160284 -27.415447 -6.969692
v -9.247121 -27.385551 -7.099258
v -9.334753 -27.359337 -7.170155
v -9.424998 -27.367523 -7.200920
v -9.368536 -27.495438 -7.172432
v -9.321177 -27.159931 -7.160007
v -9.421987 -27.180309 -7.190453
v -9.428506 -27.466957 -7.193466
v -9.438004 -27.612602 -7.169228
v -9.493712 -27.540871 -7.199341
v -9.363049 -27.666683 -7.100262
v -9.532139 -27.719063 -7.166759
v -9.457561 -27.781578 -7.101913
v -9.368688 -27.836342 -6.978367
v -9.482996 -27.972504 -6.987366
v -9.401130 -28.024532 -6.811626
v -9.563194 -28.150246 -6.820499
v -9.499771 -28.181953 -6.596268
v -9.773225 -28.218533 -6.825184
v -9.519673 -27.440762 -7.210056
v -8.931415 -27.489479 -6.207500
v -8.968516 -27.230915 -6.555660
v -8.888840 -27.255775 -6.200909
v -8.776411 -27.295193 -5.638363
v -8.875309 -26.598656 -6.160774
v -8.762077 -26.638290 -5.594898
v -8.652255 -26.685131 -4.926376
v -8.762076 -26.360905 -5.575470
v -8.652255 -26.407738 -4.906929
v -8.762074 -25.917183 -5.544388
v -8.652253 -25.964020 -4.875862
v -8.762070 -21.991758 -5.269409
v -8.652247 -22.038588 -4.600868
v -8.580718 -22.085609 -3.929836
v -8.580722 -26.011017 -4.204803
v -8.554527 -22.132706 -3.257500
v -8.580722 -26.454739 -4.235878
v -8.968516 -27.640957 -0.702347
v -9.010787 -27.873196 -0.729755
v -8.931415 -27.848423 -1.083157
v -9.068511 -28.044281 -0.752892
v -8.989595 -28.019680 -1.104954
v -9.128959 -28.181561 -0.766212
v -9.050611 -28.157211 -1.117859
v -9.197701 -28.189110 -0.539455
v -8.878271 -27.980694 -1.663246
v -9.623507 -28.403835 -4.365364
v -15.339448 -26.818272 -6.146862
v -15.979094 -26.666794 -6.139458
v -15.326895 -26.856773 -5.587658
v -15.975956 -26.705379 -5.579388
v -16.329676 -26.626640 -5.581413
v -15.972969 -26.751274 -4.915543
v -16.329676 -26.672970 -4.915001
v -15.971166 -26.797421 -4.251572
v -16.329676 -26.719448 -4.248543
v -16.533171 -26.688419 -4.248894
v -16.533171 -26.735287 -3.579926
v -16.533171 -26.641640 -4.917866
v -16.731558 -26.678097 -4.249001
v -16.731558 -26.631172 -4.918816
v -16.731558 -26.584251 -5.588600
v -16.941381 -26.631184 -4.918816
v -16.941381 -26.584251 -5.588600
v -16.941381 -26.544666 -6.153728
v -17.179184 -26.584251 -5.588600
v -17.179182 -26.544666 -6.153728
v -17.535883 -26.544666 -6.153728
v -17.179184 -26.519745 -6.509579
v -16.941381 -26.519745 -6.509583
v -16.731558 -26.519745 -6.509583
v -16.941381 -26.503128 -6.746796
v -16.731558 -26.503124 -6.746796
v -16.533171 -26.513096 -6.742447
v -16.731560 -26.488464 -6.956093
v -16.533171 -26.530586 -6.506603
v -16.533171 -26.555408 -6.151226
v -16.329676 -26.563118 -6.497734
v -16.329676 -26.587639 -6.143692
v -15.981343 -26.642555 -6.492142
v -16.533171 -26.594860 -5.586800
v -16.731558 -26.544666 -6.153728
v -16.292740 -26.395115 -7.169388
v -15.978013 -26.436981 -7.135059
v -10.344489 -27.928707 -7.178566
v -14.512649 -26.893234 -7.045425
vn 0.7401 -0.0057 -0.6725
vn 0.7410 0.0441 -0.6700
vn 0.7730 0.0415 -0.6330
vn 0.7720 -0.0086 -0.6356
vn 0.8315 0.0360 -0.5544
vn 0.8304 -0.0145 -0.5570
vn 0.8771 0.0308 -0.4794
vn 0.8758 -0.0197 -0.4823
vn 0.9134 -0.0244 -0.4063
vn 0.9147 0.0255 -0.4033
vn 0.9467 0.0200 -0.3214
vn 0.9439 -0.0296 -0.3289
vn 0.9617 0.0176 -0.2734
vn 0.9526 -0.0196 -0.3035
vn 0.9698 0.0167 -0.2434
vn 0.9689 0.0150 -0.2469
vn 0.9778 0.0147 -0.2092
vn 0.9778 0.0150 -0.2090
vn 0.9780 0.0156 -0.2080
vn 0.9671 0.0138 -0.2540
vn 0.9368 -0.0096 -0.3498
vn 0.9664 0.0051 -0.2569
vn 0.9311 0.0022 -0.3648
vn 0.9782 0.0042 -0.2078
vn 0.8779 -0.2200 -0.4252
vn 0.8600 -0.0793 -0.5041
vn 0.8476 0.0031 -0.5307
vn 0.9610 -0.0845 -0.2633
vn 0.9265 -0.0729 -0.3693
vn 0.8535 -0.0484 -0.5188
vn 0.6764 0.0235 -0.7362
vn 0.7016 -0.0106 -0.7125
vn 0.6903 -0.1827 -0.7001
vn 0.4401 0.0318 -0.8974
vn 0.4111 0.0519 -0.9101
vn 0.4518 -0.2464 -0.8574
vn 0.6789 -0.5377 -0.5000
vn 0.4581 -0.7167 -0.5258
vn 0.2063 -0.8388 -0.5039
vn 0.1981 -0.3026 -0.9323
vn 0.1677 0.0663 -0.9836
vn 0.0357 -0.3369 -0.9409
vn 0.0314 -0.8811 -0.4719
vn 0.0338 0.0679 -0.9971
vn -0.0143 -0.3447 -0.9386
vn -0.0182 -0.8854 -0.4645
vn -0.0115 0.0649 -0.9978
vn -0.0157 -0.3448 -0.9385
vn -0.0183 -0.8845 -0.4661
vn -0.0174 0.0610 -0.9980
vn -0.0170 0.0406 -0.9990
vn -0.0203 0.0363 -0.9991
vn 0.0311 0.0528 -0.9981
vn 0.0701 -0.0236 -0.9973
vn 0.0383 -0.0434 -0.9983
vn 0.0385 -0.0398 -0.9985
vn -0.0211 0.0387 -0.9990
vn -0.0171 0.0571 -0.9982
vn 0.0223 -0.0274 -0.9994
vn 0.0876 -0.1264 -0.9881
vn 0.1283 -0.1344 -0.9826
vn 0.1465 -0.1535 -0.9772
vn 0.1854 -0.2998 -0.9358
vn 0.2686 -0.2706 -0.9245
vn 0.3153 -0.2836 -0.9056
vn 0.0304 -0.1371 -0.9901
vn 0.0034 -0.0199 -0.9998
vn 0.0648 -0.3590 -0.9311
vn 0.3171 -0.5498 -0.7728
vn 0.1092 -0.6578 -0.7452
vn 0.4552 -0.4503 -0.7681
vn 0.4077 -0.7316 -0.5464
vn 0.1376 -0.8603 -0.4908
vn 0.5878 -0.5780 -0.5661
vn -0.0842 -0.7077 -0.7015
vn -0.0530 -0.3945 -0.9174
vn -0.1013 -0.8998 -0.4244
vn -0.1884 -0.7421 -0.6433
vn -0.1200 -0.4447 -0.8876
vn -0.2237 -0.9029 -0.3671
vn -0.2341 -0.9571 -0.1707
vn -0.1078 -0.9720 -0.2086
vn 0.1464 -0.9500 -0.2759
vn -0.2563 -0.9540 -0.1555
vn -0.2475 -0.9181 -0.3096
vn -0.2172 -0.8056 -0.5512
vn -0.2345 -0.9703 -0.0590
vn -0.1086 -0.9907 -0.0816
vn -0.2567 -0.9641 -0.0676
vn -0.2400 -0.9676 -0.0784
vn -0.2385 -0.9597 -0.1487
vn -0.2295 -0.9357 -0.2681
vn -0.2251 -0.9711 -0.0793
vn -0.2178 -0.9668 -0.1337
vn -0.1973 -0.9535 -0.2277
vn -0.2052 -0.8604 -0.4664
vn -0.1600 -0.9019 -0.4012
vn -0.1278 -0.9780 -0.1650
vn -0.0495 -0.9519 -0.3023
vn -0.1688 -0.9797 -0.1081
vn -0.0642 -0.9917 -0.1111
vn 0.0335 -0.9662 -0.2554
vn -0.0882 -0.9925 -0.0841
vn 0.1081 -0.9275 -0.3578
vn 0.0114 -0.8372 -0.5467
vn -0.0955 -0.7182 -0.6892
vn 0.0205 -0.4960 -0.8681
vn -0.0282 -0.4522 -0.8915
vn -0.0842 -0.3736 -0.9238
vn -0.1500 -0.6482 -0.7465
vn -0.1501 -0.5483 -0.8227
vn -0.0793 -0.2696 -0.9597
vn -0.0342 -0.0872 -0.9956
vn -0.0383 -0.1726 -0.9842
vn 0.0150 -0.2579 -0.9661
vn -0.0559 -0.1762 -0.9828
vn -0.0205 -0.0261 -0.9994
vn -0.0045 0.0385 -0.9992
vn -0.0105 0.0048 -0.9999
vn -0.0094 -0.0574 -0.9983
vn -0.0030 0.0316 -0.9995
vn -0.0013 0.0482 -0.9988
vn 0.0046 -0.0014 -1.0000
vn 0.0444 -0.1408 -0.9890
vn 0.0638 -0.0495 -0.9967
vn 0.0042 -0.4186 -0.9082
vn -0.0042 -0.3770 -0.9262
vn 0.0560 -0.4469 -0.8928
vn 0.1134 -0.0796 -0.9904
vn 0.0921 -0.1899 -0.9775
vn 0.0968 -0.4960 -0.8629
vn 0.0161 -0.9283 -0.3714
vn -0.0018 -0.9173 -0.3981
vn 0.0253 -0.9458 -0.3239
vn -0.0000 -0.9976 -0.0699
vn -0.0259 -0.9972 -0.0699
vn -0.0260 -0.9972 -0.0699
vn -0.0261 -0.9972 -0.0699
vn -0.1011 -0.9924 -0.0695
vn -0.1013 -0.9924 -0.0696
vn -0.1018 -0.9924 -0.0697
vn -0.0263 -0.9972 -0.0699
vn -0.1025 -0.9923 -0.0697
vn -0.1828 -0.9807 -0.0693
vn -0.1845 -0.9804 -0.0695
vn -0.1817 -0.9809 -0.0690
vn -0.2195 -0.9731 -0.0700
vn -0.2220 -0.9725 -0.0707
vn -0.2179 -0.9735 -0.0691
vn -0.1813 -0.9810 -0.0687
vn -0.2174 -0.9737 -0.0682
vn -0.2296 -0.9709 -0.0680
vn -0.2302 -0.9706 -0.0702
vn -0.2320 -0.9700 -0.0724
vn -0.2451 -0.9671 -0.0677
vn -0.2457 -0.9665 -0.0739
vn -0.2477 -0.9655 -0.0800
vn -0.2508 -0.9643 -0.0850
vn -0.2349 -0.9692 -0.0742
vn -0.2380 -0.9683 -0.0754
vn -0.2246 -0.9718 -0.0712
vn -0.2541 -0.9631 -0.0884
vn -0.2567 -0.9641 -0.0674
vn -0.2400 -0.9691 -0.0573
vn -0.2251 -0.9727 -0.0568
vn -0.2385 -0.9710 0.0135
vn -0.2178 -0.9760 -0.0024
vn -0.2563 -0.9664 0.0210
vn -0.1863 -0.9800 -0.0697
vn -0.1845 -0.9809 -0.0610
vn -0.1688 -0.9852 -0.0295
vn -0.1973 -0.9760 0.0926
vn -0.1279 -0.9914 0.0270
vn -0.2295 -0.9639 0.1350
vn -0.1600 -0.9490 0.2715
vn -0.0495 -0.9848 0.1666
vn -0.2052 -0.9171 0.3419
vn -0.2172 -0.8746 0.4335
vn -0.2475 -0.9523 0.1786
vn -0.1884 -0.8245 0.5336
vn -0.2237 -0.9453 0.2376
vn -0.2341 -0.9716 0.0356
vn -0.2345 -0.9691 -0.0768
vn -0.1078 -0.9916 0.0711
vn -0.1086 -0.9924 -0.0573
vn -0.1013 -0.9502 0.2948
vn 0.1464 -0.9791 0.1408
vn 0.1376 -0.9203 0.3661
vn 0.1485 -0.9889 0.0024
vn -0.0841 -0.7986 0.5960
vn 0.1092 -0.7553 0.6463
vn 0.4077 -0.8006 0.4391
vn 0.3171 -0.6521 0.6886
vn 0.4474 -0.8654 0.2255
vn 0.1854 -0.4274 0.8849
vn 0.0648 -0.4853 0.8720
vn -0.0530 -0.5185 0.8534
vn 0.0304 -0.2739 0.9613
vn -0.0246 -0.2809 0.9594
vn 0.0876 -0.2630 0.9608
vn -0.0559 -0.3115 0.9486
vn -0.1200 -0.5641 0.8170
vn -0.1501 -0.6576 0.7383
vn -0.0792 -0.4007 0.9128
vn -0.0122 -0.1516 0.9884
vn -0.0205 -0.1652 0.9861
vn -0.0342 -0.2251 0.9737
vn -0.0842 -0.4987 0.8627
vn -0.0383 -0.3082 0.9506
vn -0.1500 -0.7460 0.6489
vn -0.0282 -0.5721 0.8197
vn -0.0954 -0.8073 0.5824
vn 0.0150 -0.3902 0.9206
vn 0.0884 -0.8816 0.4636
vn 0.1957 -0.6574 0.7277
vn 0.3265 -0.9072 0.2653
vn 0.0842 -0.9956 0.0422
vn 0.5322 -0.6913 0.4888
vn -0.0486 -0.9981 -0.0383
vn 0.0006 -0.9976 -0.0696
vn -0.0129 -0.9976 -0.0674
vn 0.2920 -0.9555 0.0421
vn 0.4452 -0.8828 0.1497
vn 0.6787 -0.6574 0.3275
vn 0.6232 -0.5088 0.5939
vn 0.7764 -0.4789 0.4097
vn 0.6599 -0.3949 0.6392
vn 0.8130 -0.3705 0.4491
vn 0.6888 -0.2557 0.6784
vn 0.8424 -0.2340 0.4854
vn 0.6161 -0.5268 0.5856
vn 0.7803 -0.4407 0.4438
vn 0.3077 -0.2424 0.9201
vn 0.2640 -0.5578 0.7868
vn 0.2854 -0.3668 0.8854
vn 0.0638 -0.1881 0.9801
vn 0.0560 -0.5672 0.8216
vn 0.0444 -0.2772 0.9598
vn 0.2535 -0.4779 0.8410
vn -0.0094 -0.1961 0.9805
vn 0.0046 -0.1409 0.9900
vn -0.0105 -0.1347 0.9908
vn -0.0030 -0.1081 0.9941
vn 0.0042 -0.5412 0.8409
vn -0.0042 -0.5025 0.8646
vn -0.0013 -0.0915 0.9958
vn -0.0038 -0.4777 0.8785
vn -0.0045 -0.1011 0.9949
vn -0.0034 -0.0883 0.9961
vn -0.0059 -0.4731 0.8810
vn -0.0068 -0.0957 0.9954
vn -0.0103 -0.0860 0.9962
vn -0.0121 -0.4740 0.8804
vn -0.0149 -0.0977 0.9951
vn -0.0211 -0.1010 0.9947
vn -0.0171 -0.0826 0.9964
vn -0.0160 -0.4727 0.8811
vn 0.0034 -0.1591 0.9873
vn 0.0223 -0.1664 0.9858
vn 0.1283 -0.2701 0.9542
vn 0.0384 -0.1785 0.9832
vn -0.0203 -0.1034 0.9944
vn 0.1466 -0.2882 0.9463
vn 0.0384 -0.1821 0.9825
vn -0.0169 -0.0991 0.9949
vn -0.0175 -0.0787 0.9967
vn -0.0115 -0.0748 0.9971
vn 0.0338 -0.0718 0.9968
vn 0.0311 -0.0868 0.9957
vn 0.0701 -0.1624 0.9842
vn 0.1676 -0.0715 0.9833
vn 0.1816 -0.0825 0.9799
vn 0.2054 -0.1400 0.9686
vn 0.1723 -0.2783 0.9449
vn 0.2414 -0.2360 0.9413
vn 0.4475 -0.3041 0.8410
vn 0.4697 -0.1692 0.8665
vn 0.4402 -0.0936 0.8930
vn 0.6729 -0.3707 0.6402
vn 0.7133 -0.2175 0.6662
vn 0.7016 -0.1098 0.7040
vn 0.4112 -0.0755 0.9084
vn 0.6764 -0.0794 0.7322
vn 0.8475 -0.0710 0.5260
vn 0.8535 -0.1202 0.5070
vn 0.8448 -0.2489 0.4738
vn 0.9311 -0.0487 0.3616
vn 0.9265 -0.1236 0.3555
vn 0.9054 -0.2655 0.3312
vn 0.8036 -0.3878 0.4515
vn 0.8695 -0.3827 0.3124
vn 0.8158 -0.4884 0.3097
vn 0.7316 -0.5035 0.4597
vn 0.5859 -0.4885 0.6467
vn 0.3678 -0.4024 0.8383
vn 0.5213 -0.5193 0.6772
vn 0.6673 -0.5690 0.4806
vn 0.3153 -0.4071 0.8572
vn 0.2686 -0.3968 0.8777
vn 0.4553 -0.5530 0.6978
vn 0.5878 -0.6512 0.4800
vn 0.6555 -0.6987 0.2867
vn 0.7513 -0.5831 0.3089
vn 0.4606 -0.8837 0.0826
vn 0.6824 -0.7161 0.1467
vn 0.7894 -0.5869 0.1801
vn 0.7974 -0.5903 0.1252
vn 0.6862 -0.7217 0.0910
vn 0.4603 -0.8872 0.0314
vn 0.1469 -0.9884 -0.0396
vn 0.1458 -0.9883 -0.0441
vn 0.4569 -0.8893 0.0168
vn 0.6836 -0.7265 0.0695
vn 0.4533 -0.8913 -0.0050
vn 0.6807 -0.7316 0.0369
vn 0.1449 -0.9881 -0.0510
vn 0.7967 -0.6011 0.0631
vn 0.7970 -0.5955 0.1007
vn 0.8661 -0.4772 0.1489
vn 0.8681 -0.4810 0.1228
vn 0.8707 -0.4849 0.0824
vn 0.7960 -0.6051 0.0136
vn 0.8728 -0.4872 0.0283
vn 0.6777 -0.7354 -0.0052
vn 0.7957 -0.6042 -0.0423
vn 0.8736 -0.4854 -0.0340
vn 0.6763 -0.7348 -0.0515
vn 0.4477 -0.8920 -0.0625
vn 0.4493 -0.8928 -0.0328
vn 0.1425 -0.9874 -0.0692
vn 0.1432 -0.9879 -0.0599
vn -0.1035 -0.9922 -0.0695
vn -0.1039 -0.9917 -0.0754
vn -0.1049 -0.9912 -0.0813
vn -0.2239 -0.9722 -0.0681
vn -0.2245 -0.9713 -0.0784
vn -0.2265 -0.9700 -0.0886
vn -0.1068 -0.9905 -0.0862
vn -0.2295 -0.9685 -0.0969
vn -0.1084 -0.9901 -0.0896
vn -0.2324 -0.9672 -0.1026
vn -0.2457 -0.9674 -0.0616
vn -0.2245 -0.9727 -0.0578
vn -0.1039 -0.9926 -0.0636
vn -0.2302 -0.9709 -0.0658
vn -0.2320 -0.9706 -0.0636
vn -0.2477 -0.9672 -0.0554
vn -0.2265 -0.9729 -0.0475
vn -0.2508 -0.9667 -0.0502
vn -0.2349 -0.9701 -0.0617
vn -0.2295 -0.9725 -0.0390
vn -0.1049 -0.9928 -0.0577
vn -0.1068 -0.9929 -0.0527
vn -0.2324 -0.9720 -0.0332
vn -0.1084 -0.9929 -0.0493
vn -0.2541 -0.9660 -0.0467
vn 0.1485 -0.9789 -0.1403
vn 0.1469 -0.9842 -0.0986
vn 0.1458 -0.9848 -0.0941
vn 0.4603 -0.8742 -0.1548
vn 0.4569 -0.8783 -0.1407
vn 0.4607 -0.8636 -0.2050
vn 0.4533 -0.8833 -0.1193
vn 0.1449 -0.9856 -0.0873
vn 0.1432 -0.9866 -0.0784
vn 0.4493 -0.8886 -0.0920
vn 0.6807 -0.7193 -0.1386
vn 0.6777 -0.7289 -0.0974
vn 0.6836 -0.7098 -0.1701
vn 0.7970 -0.5757 -0.1828
vn 0.7967 -0.5865 -0.1463
vn 0.7960 -0.5973 -0.0978
vn 0.8728 -0.4785 -0.0959
vn 0.8707 -0.4687 -0.1492
vn 0.9256 -0.3670 -0.0925
vn 0.9274 -0.3731 -0.0261
vn 0.9211 -0.3596 -0.1491
vn 0.9256 -0.3763 0.0404
vn 0.9639 -0.2513 -0.0875
vn 0.9664 -0.2566 -0.0180
vn 0.9639 -0.2610 0.0516
vn 0.9211 -0.3769 0.0975
vn 0.9581 -0.2642 0.1109
vn 0.9946 -0.1031 -0.0072
vn 0.9920 -0.1081 0.0645
vn 0.9857 -0.1123 0.1255
vn 0.9160 -0.3762 0.1397
vn 0.9514 -0.2664 0.1543
vn 0.9787 -0.1153 0.1701
vn 0.9910 -0.0204 0.1327
vn 0.9838 -0.0233 0.1776
vn 0.9973 -0.0161 0.0714
vn 0.9731 -0.1173 0.1984
vn 0.9462 -0.2676 0.1819
vn 0.9782 -0.0248 0.2063
vn 0.9838 -0.0122 0.1787
vn 0.9780 -0.0136 0.2082
vn 0.9910 -0.0094 0.1335
vn 0.9838 -0.0124 0.1789
vn 0.9778 -0.0143 0.2090
vn 0.9689 -0.0196 0.2466
vn 0.9671 -0.0218 0.2534
vn 0.9664 -0.0307 0.2551
vn 0.9368 -0.0583 0.3451
vn 0.9526 -0.0617 0.2978
vn 0.8600 -0.1489 0.4881
vn 0.8779 -0.2771 0.3904
vn 0.9698 -0.0174 0.2434
vn 0.9617 -0.0207 0.2732
vn 0.9467 -0.0250 0.3211
vn 0.9439 -0.0752 0.3215
vn 0.8742 -0.3818 0.3001
vn 0.6789 -0.6021 0.4202
vn 0.6903 -0.2786 0.6677
vn 0.6598 -0.7183 0.2206
vn 0.8527 -0.3870 0.3507
vn 0.6562 -0.7141 0.2437
vn 0.9134 -0.0807 0.3990
vn 0.4588 -0.8768 0.1444
vn 0.4525 -0.8805 0.1412
vn 0.4580 -0.7830 0.4208
vn 0.2191 -0.9752 0.0301
vn 0.2125 -0.9757 0.0528
vn 0.2062 -0.9009 0.3820
vn 0.4518 -0.3636 0.8147
vn 0.1980 -0.4296 0.8810
vn 0.0314 -0.9383 0.3444
vn 0.0357 -0.4647 0.8847
vn 0.0427 -0.9991 -0.0060
vn -0.0182 -0.9415 0.3365
vn -0.0144 -0.4721 0.8814
vn -0.0158 -0.4723 0.8813
vn -0.0183 -0.9408 0.3383
vn -0.0056 -0.9998 -0.0214
vn -0.0056 -0.9998 -0.0210
vn 0.0480 -0.9977 -0.0483
vn -0.0184 -0.9403 0.3400
vn -0.0057 -0.9998 -0.0207
vn -0.0000 -0.9976 -0.0698
vn -0.0043 -0.9998 -0.0191
vn -0.0021 -0.9998 -0.0190
vn -0.0014 -0.9998 -0.0206
vn -0.0012 -0.9997 -0.0250
vn 0.0009 -0.9993 -0.0361
vn -0.0007 -0.9995 -0.0317
vn 0.0358 -0.9992 -0.0168
vn -0.0001 -0.9976 -0.0699
vn 0.0001 -0.9976 -0.0698
vn 0.0408 -0.9986 -0.0330
vn 0.0422 -0.9985 -0.0353
vn 0.0450 -0.9982 -0.0398
vn 0.7401 -0.0994 0.6651
vn 0.6919 -0.4014 0.6001
vn 0.7214 -0.4005 0.5650
vn 0.7720 -0.0971 0.6281
vn 0.5389 -0.7191 0.4387
vn 0.5608 -0.7190 0.4106
vn 0.3833 -0.8782 0.2861
vn 0.3983 -0.8779 0.2657
vn 0.6011 -0.7174 0.3522
vn 0.7753 -0.3973 0.4910
vn 0.4258 -0.8767 0.2238
vn 0.1924 -0.9772 0.0896
vn 0.2051 -0.9763 0.0691
vn 0.1855 -0.9776 0.0997
vn 0.2136 -0.9757 0.0497
vn 0.4460 -0.8758 0.1847
vn 0.6324 -0.7149 0.2983
vn 0.0466 -0.9979 -0.0441
vn 0.8173 -0.3928 0.4215
vn 0.8304 -0.0921 0.5496
vn 0.8758 -0.0867 0.4749
vn 0.9147 -0.0310 0.4029
vn 0.8771 -0.0364 0.4790
vn 0.8315 -0.0416 0.5540
vn 0.7730 -0.0471 0.6326
vn 0.7411 -0.0497 0.6696
vn -0.0228 -0.9975 -0.0675
vn -0.0882 -0.9946 -0.0551
vn -0.0260 -0.9973 -0.0694
vn -0.1014 -0.9926 -0.0665
vn -0.1034 -0.9922 -0.0698
vn -0.0265 -0.9972 -0.0699
vn -0.0000 -0.9975 -0.0700
vn 0.1854 -0.9542 -0.2349
vn 0.3832 -0.8298 -0.4057
vn 0.3982 -0.8324 -0.3855
vn 0.1923 -0.9552 -0.2249
vn 0.5389 -0.6509 -0.5347
vn 0.5608 -0.6547 -0.5068
vn 0.4258 -0.8370 -0.3438
vn 0.2051 -0.9571 -0.2045
vn 0.6011 -0.6613 -0.4488
vn 0.6324 -0.6663 -0.3950
vn 0.4460 -0.8415 -0.3050
vn 0.2136 -0.9592 -0.1853
vn 0.6562 -0.6732 -0.3409
vn 0.4588 -0.8480 -0.2652
vn 0.2192 -0.9615 -0.1658
vn 0.0466 -0.9943 -0.0955
vn 0.0449 -0.9940 -0.0998
vn 0.0480 -0.9947 -0.0912
vn 0.2126 -0.9588 -0.1883
vn 0.4525 -0.8522 -0.2626
vn 0.0427 -0.9902 -0.1333
vn -0.0056 -0.9930 -0.1182
vn -0.0057 -0.9929 -0.1185
vn -0.0057 -0.9929 -0.1189
vn -0.0184 -0.8837 -0.4678
vn -0.0160 -0.3453 -0.9384
vn -0.0121 -0.3466 -0.9379
vn -0.0139 -0.8820 -0.4711
vn -0.0043 -0.9927 -0.1205
vn -0.0072 -0.8815 -0.4722
vn -0.0021 -0.9927 -0.1206
vn -0.0059 -0.3457 -0.9383
vn -0.0050 -0.8851 -0.4654
vn -0.0014 -0.9929 -0.1190
vn -0.0038 -0.3505 -0.9365
vn -0.0033 0.0514 -0.9987
vn -0.0103 0.0538 -0.9985
vn -0.0068 0.0440 -0.9990
vn -0.0149 0.0420 -0.9990
vn -0.0122 -0.0123 -0.9998
vn -0.0246 -0.1443 -0.9892
vn -0.0050 -0.8985 -0.4389
vn -0.0012 -0.9934 -0.1146
vn -0.0007 -0.9942 -0.1079
vn 0.0011 -0.9935 -0.1143
vn 0.0040 -0.9910 -0.1335
vn 0.0408 -0.9935 -0.1066
vn 0.0422 -0.9936 -0.1043
vn 0.6598 -0.6806 -0.3186
vn 0.8742 -0.3362 -0.3504
vn 0.8528 -0.3344 -0.4013
vn 0.8173 -0.3302 -0.4722
vn 0.7753 -0.3249 -0.5416
vn 0.7214 -0.3177 -0.6153
vn 0.6919 -0.3138 -0.6502
vn 0.2696 -0.9403 0.2078
vn 0.3611 -0.9161 0.1744
vn 0.1288 -0.9609 0.2450
vn 0.0161 -0.9710 0.2384
vn -0.0018 -0.9639 0.2664
vn -0.0050 -0.9510 0.3093
vn -0.0050 -0.9413 0.3375
vn -0.0072 -0.9387 0.3447
vn -0.0139 -0.9391 0.3434
vn 0.9778 -0.0146 0.2092
vn 0.9838 -0.0125 0.1790
vn 0.9910 -0.0093 0.1335
vn 0.9974 -0.0051 0.0721
vn 0.9974 -0.0051 0.0722
vn 1.0000 -0.0000 -0.0000
vn 0.9999 -0.0111 -0.0008
vn 0.9973 -0.0060 -0.0729
vn 0.9974 0.0051 -0.0722
vn 0.9920 -0.0980 -0.0790
vn 0.9857 -0.0937 -0.1399
vn 0.9910 -0.0017 -0.1342
vn 0.9581 -0.2462 -0.1467
vn 0.9514 -0.2422 -0.1900
vn 0.9787 -0.0905 -0.1845
vn 0.9160 -0.3530 -0.1908
vn 0.8681 -0.4592 -0.1887
vn 0.9119 -0.3482 -0.2172
vn 0.9462 -0.2397 -0.2174
vn 0.8661 -0.4518 -0.2140
vn 0.7974 -0.5671 -0.2063
vn 0.6862 -0.7020 -0.1907
vn 0.7894 -0.5560 -0.2601
vn 0.8557 -0.4451 -0.2638
vn 0.6824 -0.6886 -0.2451
vn 0.6555 -0.6519 -0.3812
vn 0.7514 -0.5344 -0.3872
vn 0.8159 -0.4404 -0.3747
vn 0.9014 -0.3430 -0.2643
vn 0.8695 -0.3354 -0.3627
vn 0.9352 -0.2341 -0.2657
vn 0.9054 -0.2167 -0.3650
vn 0.8036 -0.3210 -0.5011
vn 0.8448 -0.1804 -0.5038
vn 0.7316 -0.4345 -0.5254
vn 0.6729 -0.2778 -0.6856
vn 0.7133 -0.1225 -0.6900
vn 0.5859 -0.3935 -0.7085
vn 0.4696 -0.0467 -0.8816
vn 0.4475 -0.1839 -0.8752
vn 0.2054 -0.0036 -0.9787
vn 0.1816 0.0550 -0.9818
vn 0.2414 -0.1024 -0.9650
vn 0.3677 -0.2816 -0.8863
vn 0.1723 -0.1438 -0.9745
vn 0.5213 -0.4198 -0.7429
vn 0.6673 -0.4964 -0.5553
vn 0.4474 -0.8256 -0.3440
vn 0.9731 -0.0885 -0.2128
vn 0.9838 0.0017 -0.1791
vn 0.9838 0.0128 -0.1786
vn 0.9910 0.0093 -0.1335
vn 0.9838 0.0126 -0.1789
vn 0.9838 0.0125 -0.1790
vn 0.9974 0.0051 -0.0721
vn 0.9610 -0.1204 0.2490
vn 0.9352 -0.2689 0.2305
vn 0.9014 -0.3764 0.2138
vn 0.9119 -0.3751 0.1666
vn 0.8557 -0.4775 0.1992
vn -0.2380 -0.9694 -0.0604
vn -0.2246 -0.9723 -0.0650
vn -0.2220 -0.9728 -0.0655
vn -0.2195 -0.9733 -0.0663
vn -0.1862 -0.9802 -0.0676
vn -0.1844 -0.9805 -0.0678
vn -0.1827 -0.9808 -0.0681
vn -0.2179 -0.9736 -0.0673
vn -0.1817 -0.9810 -0.0684
vn -0.1012 -0.9924 -0.0694
vn -0.1018 -0.9924 -0.0694
vn -0.0260 -0.9972 -0.0698
vn -0.0261 -0.9972 -0.0698
vn -0.0263 -0.9972 -0.0698
vn -0.1026 -0.9923 -0.0693
vn -0.0265 -0.9972 -0.0698
vn -0.0260 -0.9972 -0.0703
vn -0.0305 -0.9969 -0.0730
vn -0.1014 -0.9922 -0.0725
vn -0.0406 -0.9962 -0.0771
vn -0.1845 -0.9799 -0.0763
vn -0.1034 -0.9922 -0.0692
vn 0.0634 -0.3045 -0.9504
vt 0.896258 0.883606
vt 0.896339 0.868831
vt 0.900651 0.868851
vt 0.900560 0.883637
vt 0.904974 0.868892
vt 0.904852 0.883657
vt 0.909276 0.868932
vt 0.909144 0.883697
vt 0.912891 0.883728
vt 0.913053 0.868962
vt 0.915749 0.868993
vt 0.915537 0.883758
vt 0.917688 0.869013
vt 0.917598 0.884263
vt 0.919203 0.869033
vt 0.919092 0.883970
vt 0.920839 0.869053
vt 0.920688 0.883980
vt 0.920698 0.885657
vt 0.919193 0.885646
vt 0.918224 0.885667
vt 0.711654 0.315070
vt 0.711452 0.314151
vt 0.712412 0.313768
vt 0.712664 0.314737
vt 0.711957 0.316494
vt 0.712987 0.316272
vt 0.916911 0.885192
vt 0.917547 0.885778
vt 0.711270 0.313424
vt 0.712159 0.313111
vt 0.709210 0.315555
vt 0.709018 0.314676
vt 0.708857 0.313929
vt 0.711119 0.312859
vt 0.708745 0.313323
vt 0.711927 0.312657
vt 0.708645 0.312889
vt 0.711008 0.312424
vt 0.711745 0.312263
vt 0.916578 0.885495
vt 0.917093 0.885970
vt 0.916285 0.885798
vt 0.916729 0.886172
vt 0.794547 0.288127
vt 0.794971 0.288127
vt 0.795082 0.288652
vt 0.794648 0.288642
vt 0.795052 0.289359
vt 0.794617 0.289359
vt 0.794143 0.288631
vt 0.794052 0.288127
vt 0.794143 0.289379
vt 0.793668 0.288631
vt 0.793577 0.288147
vt 0.793678 0.289399
vt 0.793305 0.288621
vt 0.793234 0.288157
vt 0.793305 0.289439
vt 0.793779 0.292358
vt 0.793365 0.292661
vt 0.794193 0.292015
vt 0.794234 0.292752
vt 0.793850 0.293126
vt 0.793436 0.293479
vt 0.792931 0.292924
vt 0.793002 0.289460
vt 0.792981 0.293752
vt 0.793103 0.294146
vt 0.793577 0.293863
vt 0.793981 0.293519
vt 0.793305 0.294550
vt 0.793799 0.294206
vt 0.794213 0.293812
vt 0.792547 0.294358
vt 0.792456 0.293964
vt 0.792689 0.294772
vt 0.704463 0.313343
vt 0.704554 0.313838
vt 0.703756 0.313838
vt 0.703625 0.313384
vt 0.705231 0.313303
vt 0.705291 0.313778
vt 0.704696 0.314424
vt 0.703877 0.314414
vt 0.705443 0.314384
vt 0.702827 0.313808
vt 0.702635 0.313394
vt 0.702999 0.314363
vt 0.701868 0.313798
vt 0.701686 0.313394
vt 0.702080 0.314323
vt 0.702262 0.315020
vt 0.703170 0.315060
vt 0.704029 0.315121
vt 0.685405 0.315050
vt 0.685325 0.314353
vt 0.685254 0.313838
vt 0.702443 0.315878
vt 0.703332 0.315919
vt 0.685466 0.315909
vt 0.682052 0.315929
vt 0.682012 0.315070
vt 0.681962 0.314384
vt 0.679568 0.315939
vt 0.679558 0.315080
vt 0.679538 0.314373
vt 0.681911 0.313869
vt 0.679507 0.313858
vt 0.678195 0.314293
vt 0.678195 0.313747
vt 0.678205 0.315040
vt 0.677417 0.314202
vt 0.677397 0.313424
vt 0.677427 0.314979
vt 0.677659 0.313172
vt 0.678235 0.313454
vt 0.679487 0.313566
vt 0.768350 0.288732
vt 0.769632 0.289126
vt 0.769612 0.289288
vt 0.768279 0.288884
vt 0.771996 0.289631
vt 0.771996 0.289833
vt 0.681850 0.313566
vt 0.685183 0.313515
vt 0.775227 0.290328
vt 0.775248 0.290581
vt 0.775217 0.290126
vt 0.771996 0.289470
vt 0.769643 0.289005
vt 0.791042 0.294216
vt 0.791123 0.294620
vt 0.790982 0.293833
vt 0.791012 0.292984
vt 0.775187 0.289823
vt 0.771975 0.289268
vt 0.775147 0.288844
vt 0.791335 0.289439
vt 0.771935 0.288722
vt 0.769663 0.288874
vt 0.769683 0.288571
vt 0.771935 0.288510
vt 0.775136 0.288541
vt 0.769703 0.288419
vt 0.768532 0.288329
vt 0.768451 0.288530
vt 0.768582 0.288228
vt 0.769703 0.288207
vt 0.771925 0.288268
vt 0.768582 0.288036
vt 0.673650 0.319403
vt 0.673660 0.321948
vt 0.671519 0.321968
vt 0.671499 0.319423
vt 0.668964 0.321989
vt 0.671529 0.324523
vt 0.668984 0.324544
vt 0.673670 0.324503
vt 0.674993 0.319393
vt 0.675013 0.321948
vt 0.675033 0.324493
vt 0.673690 0.327069
vt 0.671539 0.327079
vt 0.675043 0.327058
vt 0.675922 0.321938
vt 0.675922 0.324483
vt 0.675942 0.327048
vt 0.675963 0.329593
vt 0.675064 0.329593
vt 0.673710 0.329604
vt 0.673730 0.332159
vt 0.675084 0.332149
vt 0.675983 0.332139
vt 0.676750 0.327038
vt 0.676770 0.329593
vt 0.676791 0.332139
vt 0.677498 0.327038
vt 0.677518 0.329583
vt 0.677538 0.332128
vt 0.676013 0.334704
vt 0.676811 0.334694
vt 0.677558 0.334684
vt 0.678326 0.332108
vt 0.678346 0.334643
vt 0.678295 0.329563
vt 0.679709 0.332078
vt 0.679719 0.334613
vt 0.679689 0.329543
vt 0.678285 0.327028
vt 0.679679 0.327018
vt 0.682265 0.326998
vt 0.682275 0.329533
vt 0.682275 0.332058
vt 0.685830 0.326968
vt 0.685830 0.329503
vt 0.685809 0.332027
vt 0.685749 0.334562
vt 0.682254 0.334583
vt 0.682234 0.336724
vt 0.679730 0.336744
vt 0.685688 0.336693
vt 0.685638 0.338037
vt 0.682214 0.338057
vt 0.679740 0.338087
vt 0.682184 0.338915
vt 0.679730 0.338946
vt 0.685577 0.338895
vt 0.678366 0.336784
vt 0.678376 0.338128
vt 0.678376 0.339016
vt 0.679709 0.339663
vt 0.678376 0.339764
vt 0.682153 0.339622
vt 0.679689 0.340178
vt 0.678386 0.340299
vt 0.682103 0.340127
vt 0.685446 0.340117
vt 0.685517 0.339602
vt 0.702060 0.339915
vt 0.702251 0.339380
vt 0.702423 0.338693
vt 0.702605 0.337835
vt 0.703332 0.338633
vt 0.703494 0.337774
vt 0.703181 0.339339
vt 0.704201 0.338562
vt 0.704059 0.339269
vt 0.704362 0.337713
vt 0.703009 0.339885
vt 0.703928 0.339844
vt 0.704877 0.339249
vt 0.704746 0.339834
vt 0.705029 0.338531
vt 0.704655 0.340329
vt 0.703807 0.340309
vt 0.702827 0.340309
vt 0.567456 0.030305
vt 0.566709 0.030295
vt 0.566810 0.029871
vt 0.567608 0.029881
vt 0.568012 0.030507
vt 0.568214 0.030113
vt 0.565941 0.030436
vt 0.566032 0.030032
vt 0.701868 0.340319
vt 0.685365 0.340440
vt 0.550135 0.034325
vt 0.550145 0.034082
vt 0.566648 0.030689
vt 0.565901 0.030820
vt 0.550125 0.034537
vt 0.546893 0.035022
vt 0.546893 0.035193
vt 0.546904 0.034820
vt 0.544540 0.035516
vt 0.544510 0.035355
vt 0.544550 0.035658
vt 0.682052 0.340420
vt 0.679679 0.340460
vt 0.678427 0.340592
vt 0.543257 0.035910
vt 0.543187 0.035769
vt 0.677861 0.340885
vt 0.677589 0.340632
vt 0.542641 0.036314
vt 0.542520 0.036203
vt 0.677599 0.339865
vt 0.676821 0.340652
vt 0.676851 0.339895
vt 0.677285 0.341420
vt 0.677558 0.341460
vt 0.542237 0.036920
vt 0.542096 0.036850
vt 0.542732 0.036405
vt 0.542349 0.036981
vt 0.542813 0.036486
vt 0.542450 0.037021
vt 0.542955 0.036627
vt 0.542641 0.037122
vt 0.543035 0.036708
vt 0.542753 0.037163
vt 0.543439 0.036314
vt 0.543480 0.036425
vt 0.543358 0.036122
vt 0.544591 0.036092
vt 0.544611 0.036233
vt 0.544570 0.035779
vt 0.543318 0.036021
vt 0.546873 0.035375
vt 0.546843 0.035931
vt 0.550115 0.034830
vt 0.550055 0.035809
vt 0.546843 0.036143
vt 0.550045 0.036122
vt 0.566254 0.035213
vt 0.566295 0.036062
vt 0.565921 0.031679
vt 0.566921 0.035193
vt 0.566961 0.036052
vt 0.566658 0.031547
vt 0.567598 0.035183
vt 0.567638 0.036052
vt 0.567365 0.031557
vt 0.567840 0.031739
vt 0.567911 0.035203
vt 0.567921 0.036042
vt 0.567365 0.030699
vt 0.567891 0.030901
vt 0.568487 0.030810
vt 0.568345 0.031194
vt 0.568274 0.031992
vt 0.568901 0.031143
vt 0.568759 0.031527
vt 0.568689 0.032295
vt 0.568214 0.035224
vt 0.568577 0.035244
vt 0.569052 0.035274
vt 0.569103 0.032638
vt 0.569153 0.031911
vt 0.569527 0.035294
vt 0.569517 0.032891
vt 0.569507 0.032194
vt 0.569244 0.031527
vt 0.569497 0.031810
vt 0.569729 0.031709
vt 0.569860 0.032234
vt 0.569911 0.032992
vt 0.707392 0.340471
vt 0.707412 0.340026
vt 0.708069 0.340137
vt 0.708018 0.340572
vt 0.708927 0.340289
vt 0.708846 0.340743
vt 0.569951 0.035304
vt 0.711311 0.340733
vt 0.711210 0.341157
vt 0.711462 0.340158
vt 0.709038 0.339693
vt 0.708160 0.339531
vt 0.711624 0.339420
vt 0.709180 0.338935
vt 0.708301 0.338784
vt 0.707503 0.339430
vt 0.707645 0.338683
vt 0.707079 0.338622
vt 0.706907 0.339370
vt 0.706806 0.339976
vt 0.706776 0.340410
vt 0.706180 0.339945
vt 0.706311 0.339339
vt 0.706130 0.340380
vt 0.569123 0.030840
vt 0.569476 0.031244
vt 0.568699 0.030446
vt 0.705483 0.339885
vt 0.705413 0.340359
vt 0.705625 0.339289
vt 0.705786 0.338542
vt 0.706503 0.338582
vt 0.705200 0.337673
vt 0.705978 0.337683
vt 0.706695 0.337713
vt 0.706948 0.336370
vt 0.706221 0.336360
vt 0.705433 0.336360
vt 0.704584 0.336390
vt 0.704887 0.334290
vt 0.705756 0.334259
vt 0.706564 0.334249
vt 0.706069 0.331775
vt 0.706877 0.331775
vt 0.705200 0.331805
vt 0.707614 0.331775
vt 0.707291 0.334269
vt 0.707523 0.336390
vt 0.707877 0.334290
vt 0.708190 0.331795
vt 0.707796 0.329290
vt 0.708392 0.329301
vt 0.707069 0.329290
vt 0.707857 0.326816
vt 0.708453 0.326816
vt 0.707130 0.326826
vt 0.706301 0.326826
vt 0.706251 0.329301
vt 0.705423 0.326836
vt 0.705372 0.329321
vt 0.704504 0.326836
vt 0.704453 0.329341
vt 0.704281 0.331836
vt 0.703554 0.326836
vt 0.703504 0.329351
vt 0.703352 0.331856
vt 0.703999 0.334330
vt 0.703080 0.334360
vt 0.703706 0.336431
vt 0.702787 0.336491
vt 0.685809 0.324443
vt 0.703473 0.324332
vt 0.704413 0.324342
vt 0.682234 0.324463
vt 0.682194 0.321938
vt 0.685739 0.321908
vt 0.703272 0.321827
vt 0.685648 0.319383
vt 0.682143 0.319413
vt 0.702969 0.319322
vt 0.704221 0.321847
vt 0.703888 0.319353
vt 0.702655 0.317222
vt 0.703564 0.317262
vt 0.685547 0.317252
vt 0.704211 0.315959
vt 0.704443 0.317302
vt 0.704786 0.319383
vt 0.705291 0.317312
vt 0.705655 0.319403
vt 0.705049 0.315989
vt 0.705998 0.321877
vt 0.705130 0.321857
vt 0.705332 0.324342
vt 0.706210 0.324342
vt 0.706796 0.321867
vt 0.707029 0.324342
vt 0.706453 0.319393
vt 0.707180 0.319373
vt 0.707534 0.321847
vt 0.707766 0.324332
vt 0.708352 0.324322
vt 0.708129 0.321827
vt 0.708927 0.324301
vt 0.709028 0.326806
vt 0.708695 0.321797
vt 0.708978 0.329311
vt 0.709624 0.324271
vt 0.709715 0.326806
vt 0.709654 0.329341
vt 0.708766 0.331825
vt 0.709452 0.331866
vt 0.710604 0.326796
vt 0.710553 0.329371
vt 0.710341 0.331947
vt 0.708442 0.334330
vt 0.709139 0.334411
vt 0.710018 0.334512
vt 0.712836 0.332169
vt 0.712482 0.334845
vt 0.713028 0.329472
vt 0.709644 0.336683
vt 0.708766 0.336542
vt 0.712098 0.337077
vt 0.713533 0.334987
vt 0.713139 0.337289
vt 0.713886 0.332270
vt 0.938342 0.884182
vt 0.940604 0.884202
vt 0.940553 0.885899
vt 0.938331 0.885869
vt 0.935776 0.884152
vt 0.935756 0.885838
vt 0.942200 0.884222
vt 0.942058 0.885909
vt 0.712836 0.338824
vt 0.711826 0.338501
vt 0.712593 0.339804
vt 0.943694 0.884556
vt 0.943048 0.885960
vt 0.712361 0.340450
vt 0.944351 0.885515
vt 0.943704 0.886091
vt 0.942432 0.869296
vt 0.943957 0.869316
vt 0.945896 0.869336
vt 0.945754 0.884111
vt 0.945886 0.885303
vt 0.944684 0.885808
vt 0.944159 0.886273
vt 0.946078 0.885646
vt 0.948441 0.885333
vt 0.948501 0.885657
vt 0.948411 0.884142
vt 0.948562 0.885990
vt 0.946229 0.885970
vt 0.944967 0.886131
vt 0.568668 0.039829
vt 0.568315 0.039738
vt 0.569113 0.037678
vt 0.569507 0.037678
vt 0.569446 0.036536
vt 0.569880 0.036536
vt 0.944532 0.886495
vt 0.569547 0.036011
vt 0.569991 0.036001
vt 0.568951 0.036526
vt 0.569052 0.036021
vt 0.568668 0.037637
vt 0.568487 0.036506
vt 0.568567 0.036032
vt 0.568214 0.036042
vt 0.568143 0.036506
vt 0.568214 0.037577
vt 0.567891 0.037536
vt 0.567487 0.039526
vt 0.567174 0.039445
vt 0.567901 0.039637
vt 0.567840 0.036496
vt 0.567618 0.037506
vt 0.566921 0.039374
vt 0.565679 0.042435
vt 0.565436 0.042324
vt 0.565972 0.042546
vt 0.563628 0.045879
vt 0.563396 0.045747
vt 0.563891 0.046030
vt 0.563174 0.045606
vt 0.565204 0.042223
vt 0.566669 0.039294
vt 0.562659 0.045354
vt 0.564628 0.042051
vt 0.566042 0.039203
vt 0.567335 0.037466
vt 0.566699 0.037425
vt 0.565416 0.039152
vt 0.566042 0.037405
vt 0.564033 0.041920
vt 0.549863 0.037870
vt 0.549984 0.036991
vt 0.549630 0.038900
vt 0.562114 0.045131
vt 0.549994 0.040041
vt 0.559882 0.048171
vt 0.548621 0.040445
vt 0.560356 0.048494
vt 0.557730 0.051403
vt 0.557326 0.051009
vt 0.547651 0.041314
vt 0.546035 0.039698
vt 0.547378 0.038981
vt 0.546954 0.037849
vt 0.544611 0.038274
vt 0.544611 0.037011
vt 0.546823 0.036961
vt 0.543338 0.038264
vt 0.543439 0.037112
vt 0.560811 0.048828
vt 0.558134 0.051807
vt 0.561013 0.048979
vt 0.558316 0.051989
vt 0.561215 0.049151
vt 0.558488 0.052171
vt 0.561457 0.049333
vt 0.558710 0.052383
vt 0.558993 0.052676
vt 0.561780 0.049585
vt 0.564245 0.046262
vt 0.965044 0.884374
vt 0.965034 0.885576
vt 0.960742 0.885515
vt 0.960742 0.884303
vt 0.965024 0.885899
vt 0.960732 0.885828
vt 0.965024 0.886212
vt 0.960732 0.886151
vt 0.956439 0.885768
vt 0.956439 0.885445
vt 0.956450 0.886101
vt 0.562103 0.049848
vt 0.564598 0.046464
vt 0.564901 0.046656
vt 0.562376 0.050060
vt 0.559286 0.052959
vt 0.559528 0.053211
vt 0.566749 0.042889
vt 0.567062 0.043020
vt 0.952188 0.886040
vt 0.952168 0.885707
vt 0.566345 0.042717
vt 0.952147 0.885394
vt 0.956450 0.884243
vt 0.952157 0.884192
vt 0.948582 0.869366
vt 0.952359 0.869417
vt 0.956662 0.869477
vt 0.960974 0.869538
vt 0.965276 0.869599
vt 0.676043 0.339117
vt 0.676841 0.339107
vt 0.676043 0.339905
vt 0.677599 0.339077
vt 0.676043 0.338208
vt 0.676841 0.338208
vt 0.677589 0.338178
vt 0.677578 0.336835
vt 0.676831 0.336855
vt 0.676033 0.336855
vt 0.675144 0.339117
vt 0.675134 0.338218
vt 0.675124 0.336865
vt 0.673771 0.336875
vt 0.673781 0.338229
vt 0.669034 0.332199
vt 0.671579 0.332179
vt 0.671600 0.334734
vt 0.669055 0.334744
vt 0.671620 0.336875
vt 0.673761 0.334714
vt 0.671559 0.329614
vt 0.669024 0.329634
vt 0.668994 0.327089
vt 0.666479 0.332209
vt 0.666459 0.329654
vt 0.666439 0.327099
vt 0.663884 0.327119
vt 0.663904 0.329674
vt 0.784387 0.271695
vt 0.784630 0.271453
vt 0.787467 0.274584
vt 0.787195 0.274816
vt 0.896248 0.885445
vt 0.896248 0.885131
vt 0.900540 0.885152
vt 0.900540 0.885475
vt 0.789992 0.277997
vt 0.789689 0.278189
vt 0.904832 0.885182
vt 0.904812 0.885515
vt 0.909104 0.885222
vt 0.909074 0.885545
vt 0.791830 0.281764
vt 0.792163 0.281623
vt 0.912760 0.885253
vt 0.912699 0.885586
vt 0.793406 0.284915
vt 0.793759 0.284834
vt 0.791436 0.281936
vt 0.789336 0.278411
vt 0.792991 0.285026
vt 0.794203 0.286985
vt 0.794597 0.286975
vt 0.793749 0.287026
vt 0.793305 0.287086
vt 0.792577 0.285137
vt 0.791063 0.282108
vt 0.792981 0.287127
vt 0.792274 0.285228
vt 0.790780 0.282229
vt 0.792012 0.285289
vt 0.790537 0.282340
vt 0.792709 0.287157
vt 0.792931 0.288167
vt 0.793022 0.288621
vt 0.792729 0.288611
vt 0.792658 0.288177
vt 0.792436 0.287197
vt 0.791992 0.288177
vt 0.791790 0.287238
vt 0.792052 0.288611
vt 0.791325 0.288187
vt 0.791143 0.287248
vt 0.791396 0.288611
vt 0.792012 0.289470
vt 0.792678 0.289480
vt 0.791749 0.293115
vt 0.792456 0.293105
vt 0.791739 0.293974
vt 0.791800 0.294368
vt 0.791911 0.294772
vt 0.775126 0.288278
vt 0.775076 0.287672
vt 0.771915 0.287702
vt 0.769703 0.287642
vt 0.769713 0.286369
vt 0.772046 0.286793
vt 0.774955 0.286783
vt 0.771127 0.284956
vt 0.772480 0.285683
vt 0.774722 0.285753
vt 0.773712 0.284218
vt 0.775096 0.284612
vt 0.772743 0.283350
vt 0.782418 0.273645
vt 0.784963 0.276482
vt 0.768532 0.287551
vt 0.783579 0.272483
vt 0.783801 0.272271
vt 0.786548 0.275331
vt 0.786316 0.275523
vt 0.784084 0.271988
vt 0.786882 0.275069
vt 0.788982 0.278613
vt 0.788720 0.278785
vt 0.788487 0.278926
vt 0.786114 0.275674
vt 0.783407 0.272665
vt 0.783226 0.272847
vt 0.785912 0.275836
vt 0.788275 0.279048
vt 0.785437 0.276169
vt 0.782822 0.273251
vt 0.787205 0.279532
vt 0.787750 0.279310
vt 0.789124 0.282734
vt 0.789719 0.282613
vt 0.790507 0.285501
vt 0.791133 0.285450
vt 0.790295 0.282431
vt 0.791759 0.285359
vt 0.915204 0.885283
vt 0.915032 0.885626
vt 0.915386 0.884960
vt 0.912841 0.884929
vt 0.909114 0.884899
vt 0.904842 0.884859
vt 0.900550 0.884829
vt 0.896248 0.884798
vt 0.666418 0.324564
vt 0.675104 0.334704
vt 0.543136 0.036809
vt 0.542944 0.037163
vt 0.543480 0.036627
vt 0.544611 0.036456
vt 0.546833 0.036375
vt 0.550034 0.036375
vt 0.566244 0.036476
vt 0.566901 0.036486
vt 0.567557 0.036496
vt 0.712129 0.340905
vt 0.711947 0.341309
vt 0.940796 0.869276
vt 0.938523 0.869245
vt 0.935948 0.869215
vt 0.933373 0.869185
vt 0.933201 0.884132
vt 0.933191 0.885808
vt 0.930818 0.869154
vt 0.930646 0.884091
vt 0.930626 0.885768
vt 0.713088 0.326776
vt 0.714149 0.326776
vt 0.714078 0.329533
vt 0.713018 0.324079
vt 0.714048 0.324019
vt 0.710513 0.324210
vt 0.710281 0.321655
vt 0.712745 0.321393
vt 0.709392 0.321736
vt 0.709018 0.319211
vt 0.709897 0.319080
vt 0.708331 0.319292
vt 0.707766 0.319342
vt 0.707958 0.317181
vt 0.708634 0.317070
vt 0.707392 0.317242
vt 0.706806 0.317282
vt 0.706089 0.317312
vt 0.706544 0.315929
vt 0.707119 0.315899
vt 0.705827 0.315979
vt 0.705635 0.315111
vt 0.706332 0.315060
vt 0.706907 0.315020
vt 0.707675 0.315838
vt 0.707473 0.314949
vt 0.708341 0.315727
vt 0.708139 0.314838
vt 0.707311 0.314202
vt 0.707988 0.314081
vt 0.706736 0.314283
vt 0.707231 0.313606
vt 0.707877 0.313485
vt 0.706635 0.313677
vt 0.707816 0.313050
vt 0.707200 0.313172
vt 0.794597 0.292469
vt 0.794607 0.291762
vt 0.795001 0.291671
vt 0.794951 0.292439
vt 0.794587 0.292853
vt 0.794819 0.292964
vt 0.794567 0.293408
vt 0.794335 0.293126
vt 0.706594 0.313232
vt 0.705998 0.313707
vt 0.705928 0.313273
vt 0.706140 0.314313
vt 0.704867 0.315141
vt 0.709523 0.316919
vt 0.712381 0.318726
vt 0.713411 0.318565
vt 0.713785 0.321271
vt 0.925536 0.884031
vt 0.925515 0.885717
vt 0.922930 0.885687
vt 0.922950 0.884010
vt 0.923112 0.869073
vt 0.925687 0.869094
vt 0.928081 0.884061
vt 0.928262 0.869124
vt 0.928060 0.885747
vt 0.709372 0.338047
vt 0.708503 0.337895
vt 0.707826 0.337794
vt 0.708089 0.336451
vt 0.707261 0.337744
vt 0.682093 0.317282
vt 0.679588 0.317302
vt 0.679608 0.319423
vt 0.679639 0.321948
vt 0.678225 0.317272
vt 0.678235 0.319403
vt 0.678255 0.321948
vt 0.679659 0.324483
vt 0.678265 0.324483
vt 0.677477 0.324483
vt 0.677467 0.321938
vt 0.676730 0.324483
vt 0.676710 0.321938
vt 0.676700 0.319373
vt 0.677447 0.319383
vt 0.675912 0.319383
vt 0.675892 0.317232
vt 0.676680 0.317232
vt 0.674983 0.317242
vt 0.673630 0.317252
vt 0.675882 0.315878
vt 0.674973 0.315878
vt 0.676669 0.315878
vt 0.675882 0.314969
vt 0.676669 0.314959
vt 0.677427 0.315878
vt 0.676669 0.314172
vt 0.678215 0.315919
vt 0.677437 0.317232
vt 0.768400 0.288631
s 1
f 2/1/1 1/2/2 3/3/3 4/4/4
f 5/5/5 6/6/6 4/4/4 3/3/3
f 7/7/7 8/8/8 6/6/6 5/5/5
f 10/9/9 8/8/8 7/7/7 9/10/10
f 9/10/10 11/11/11 12/12/12 10/9/9
f 12/12/12 11/11/11 13/13/13 14/14/14
f 13/13/13 15/15/15 17/16/16 14/14/14
f 15/15/15 16/17/17 18/18/18 17/16/16
f 17/16/16 18/18/18 21/19/19 19/20/20
f 14/14/14 17/16/16 19/20/20 22/21/21
f 20/22/22 24/23/23 22/24/21 19/25/20
f 707/26/24 20/22/22 19/25/20 21/27/19
f 622/28/25 14/14/14 22/21/21 23/29/26
f 24/23/23 26/30/27 23/31/26 22/24/21
f 704/32/28 25/33/29 24/23/23 20/22/22
f 24/23/23 25/33/29 27/34/30 26/30/27
f 28/35/31 26/30/27 27/34/30 29/36/32
f 26/30/27 28/35/31 31/37/33 23/31/26
f 28/35/31 29/36/32 688/38/34 30/39/35
f 28/35/31 30/39/35 33/40/36 31/37/33
f 32/41/37 622/28/25 23/29/26 31/42/33
f 34/43/38 32/41/37 31/42/33 33/44/36
f 36/45/39 34/46/38 33/47/36 35/48/40
f 30/49/35 37/50/41 35/48/40 33/47/36
f 36/45/39 35/48/40 38/51/42 39/52/43
f 35/48/40 37/50/41 40/53/44 38/51/42
f 41/54/45 42/55/46 39/52/43 38/51/42
f 44/56/47 41/54/45 38/51/42 40/53/44
f 42/55/46 41/54/45 43/57/48 549/58/49
f 41/54/45 44/56/47 45/59/50 43/57/48
f 46/60/51 49/61/52 45/59/50 44/56/47
f 46/60/51 44/56/47 40/53/44 47/62/53
f 46/60/51 47/62/53 702/63/54 48/64/55
f 46/60/51 48/64/55 51/65/56 49/61/52
f 49/61/52 50/66/57 564/67/58 45/59/50
f 52/68/59 50/66/57 49/61/52 51/65/56
f 56/69/60 52/68/59 51/65/56 53/70/61
f 48/64/55 55/71/62 53/70/61 51/65/56
f 58/72/63 56/69/60 53/70/61 54/73/64
f 55/71/62 694/74/65 54/73/64 53/70/61
f 52/68/59 56/69/60 57/75/66 566/76/67
f 56/69/60 58/72/63 59/77/68 57/75/66
f 58/78/63 60/79/69 63/80/70 59/81/68
f 60/79/69 58/78/63 54/82/64 62/83/71
f 63/80/70 60/79/69 61/84/72 64/85/73
f 61/84/72 60/79/69 62/83/71 697/86/74
f 59/81/68 63/80/70 65/87/75 66/88/76
f 63/80/70 64/85/73 68/89/77 65/87/75
f 67/90/78 767/91/79 66/88/76 65/87/75
f 65/87/75 68/89/77 70/92/80 67/90/78
f 72/93/81 70/92/80 68/89/77 69/94/82
f 69/94/82 68/89/77 64/85/73 701/95/83
f 72/93/81 74/96/84 71/97/85 70/92/80
f 70/92/80 71/97/85 768/98/86 67/90/78
f 73/99/87 72/93/81 69/94/82 342/100/88
f 72/93/81 73/99/87 75/101/89 74/96/84
f 75/101/89 77/102/90 76/103/91 74/96/84
f 71/97/85 74/96/84 76/103/91 79/104/92
f 762/105/93 78/106/94 76/103/91 77/102/90
f 78/106/94 81/107/95 79/104/92 76/103/91
f 768/98/86 71/97/85 79/104/92 80/108/96
f 81/107/95 82/109/97 80/108/96 79/104/92
f 82/109/97 81/107/95 83/110/98 86/111/99
f 81/107/95 78/106/94 85/112/100 83/110/98
f 84/113/101 87/114/102 86/111/99 83/110/98
f 756/115/103 84/113/101 83/110/98 85/112/100
f 86/111/99 87/114/102 90/116/104 88/117/105
f 82/109/97 86/111/99 88/117/105 91/118/106
f 89/119/107 92/120/108 91/121/106 88/122/105
f 91/121/106 92/120/108 95/123/109 93/124/110
f 82/109/97 91/118/106 93/125/110 80/108/96
f 94/126/111 768/98/86 80/108/96 93/125/110
f 97/127/112 94/128/111 93/124/110 95/123/109
f 99/129/113 97/127/112 95/123/109 96/130/114
f 92/120/108 766/131/115 96/130/114 95/123/109
f 98/132/116 767/133/79 94/128/111 97/127/112
f 100/134/117 98/132/116 97/127/112 99/129/113
f 102/135/118 100/134/117 99/129/113 101/136/119
f 99/129/113 96/130/114 104/137/120 101/136/119
f 102/135/118 101/136/119 103/138/121 561/139/122
f 103/138/121 101/136/119 104/137/120 106/140/123
f 105/141/124 108/142/125 106/140/123 104/137/120
f 766/131/115 105/141/124 104/137/120 96/130/114
f 103/138/121 106/140/123 107/143/126 569/144/127
f 106/140/123 108/142/125 110/145/128 107/143/126
f 109/146/129 108/142/125 105/141/124 114/147/130
f 108/142/125 109/146/129 112/148/131 110/145/128
f 111/149/132 572/150/133 107/143/126 110/145/128
f 113/151/134 111/149/132 110/145/128 112/148/131
f 117/152/135 120/153/135 118/154/135 116/155/135
f 115/156/135 118/154/135 119/157/135 624/158/135
f 118/154/135 120/153/135 122/159/135 119/157/135
f 120/153/135 117/152/135 748/160/135 121/161/135
f 120/153/135 121/161/135 124/162/135 122/159/135
f 123/163/135 515/164/135 119/157/135 122/159/135
f 126/165/135 123/163/135 122/159/135 124/162/135
f 121/161/135 745/166/135 125/167/135 124/162/135
f 127/168/135 126/165/135 124/162/135 125/167/135
f 127/168/135 131/169/135 128/170/135 126/165/135
f 129/171/135 123/163/135 126/165/135 128/170/135
f 513/172/135 129/171/135 128/170/135 130/173/135
f 131/169/135 132/174/135 130/173/135 128/170/135
f 127/168/135 134/175/136 133/176/137 131/169/135
f 136/177/138 132/174/135 131/169/135 133/176/137
f 134/175/136 740/178/139 135/179/140 133/176/137
f 138/180/141 136/177/138 133/176/137 135/179/140
f 626/181/135 132/174/135 136/177/138 137/182/142
f 138/180/141 139/183/143 137/182/142 136/177/138
f 139/183/143 138/180/141 140/184/144 141/185/145
f 140/184/144 138/180/141 135/179/140 143/186/146
f 142/187/147 153/188/148 141/185/145 140/184/144
f 142/187/147 140/184/144 143/186/146 145/189/149
f 144/190/150 146/191/151 145/189/149 143/186/146
f 740/178/139 144/190/150 143/186/146 135/179/140
f 146/191/151 148/192/152 147/193/153 145/189/149
f 150/194/154 142/187/147 145/189/149 147/193/153
f 329/195/155 149/196/156 147/193/153 148/192/152
f 150/194/154 147/193/153 149/196/156 151/197/157
f 151/197/157 154/198/158 152/199/159 150/194/154
f 142/187/147 150/194/154 152/199/159 153/188/148
f 155/200/160 157/201/161 153/188/148 152/199/159
f 155/200/160 152/199/159 154/198/158 156/202/162
f 156/202/162 160/203/163 158/204/164 155/200/160
f 157/201/161 155/200/160 158/204/164 161/205/165
f 159/206/166 163/207/167 161/205/165 158/204/164
f 173/208/168 159/206/166 158/204/164 160/203/163
f 628/209/169 157/201/161 161/205/165 162/210/170
f 163/207/167 164/211/171 162/210/170 161/205/165
f 164/211/171 163/207/167 165/212/172 166/213/173
f 163/207/167 159/206/166 168/214/174 165/212/172
f 167/215/175 205/216/176 166/213/173 165/212/172
f 169/217/177 167/215/175 165/212/172 168/214/174
f 171/218/178 169/217/177 168/214/174 170/219/179
f 173/208/168 170/219/179 168/214/174 159/206/166
f 193/220/180 171/218/178 170/219/179 172/221/181
f 172/221/181 170/219/179 173/208/168 174/222/182
f 173/208/168 160/203/163 175/223/183 174/222/182
f 176/224/184 174/222/182 175/223/183 178/225/185
f 174/222/182 176/224/184 179/226/186 172/221/181
f 176/224/184 177/227/187 181/228/188 179/226/186
f 177/227/187 176/224/184 178/225/185 295/229/189
f 172/221/181 179/226/186 180/230/190 193/220/180
f 179/226/186 181/228/188 183/231/191 180/230/190
f 182/232/192 184/233/193 183/231/191 181/228/188
f 289/234/194 182/232/192 181/228/188 177/227/187
f 183/231/191 184/233/193 187/235/195 185/236/196
f 180/230/190 183/231/191 185/236/196 188/237/197
f 186/238/198 189/239/199 188/240/197 185/241/196
f 248/242/200 186/238/198 185/241/196 187/243/195
f 189/239/199 192/244/201 190/245/202 188/240/197
f 193/220/180 180/230/190 188/237/197 190/246/202
f 193/220/180 190/246/202 191/247/203 171/218/178
f 192/244/201 195/248/204 191/249/203 190/245/202
f 192/244/201 189/239/199 247/250/205 194/251/206
f 192/244/201 194/251/206 196/252/207 195/248/204
f 197/253/208 195/248/204 196/252/207 199/254/209
f 195/248/204 197/253/208 200/255/210 191/249/203
f 197/253/208 198/256/211 201/257/212 200/255/210
f 198/256/211 197/253/208 199/254/209 227/258/213
f 169/217/177 171/218/178 191/247/203 200/259/210
f 167/215/175 169/217/177 200/259/210 201/260/212
f 167/215/175 201/260/212 202/261/214 205/216/176
f 201/257/212 198/256/211 204/262/215 202/263/214
f 203/264/216 206/265/217 205/216/176 202/261/214
f 212/266/218 203/267/216 202/263/214 204/262/215
f 205/216/176 206/265/217 208/268/219 166/213/173
f 206/265/217 207/269/220 494/270/221 208/268/219
f 209/271/222 206/265/217 203/264/216 210/272/223
f 212/266/218 211/273/224 210/274/223 203/267/216
f 211/273/224 212/266/218 214/275/225 213/276/226
f 216/277/227 215/278/228 213/276/226 214/275/225
f 215/278/228 216/277/227 219/279/229 217/280/230
f 219/279/229 220/281/231 218/282/232 217/280/230
f 220/281/231 219/279/229 221/283/233 222/284/234
f 219/279/229 216/277/227 224/285/235 221/283/233
f 223/286/236 634/287/237 222/284/234 221/283/233
f 225/288/238 223/286/236 221/283/233 224/285/235
f 227/258/213 225/288/238 224/285/235 226/289/239
f 216/277/227 214/275/225 226/289/239 224/285/235
f 214/275/225 212/266/218 204/262/215 226/289/239
f 198/256/211 227/258/213 226/289/239 204/262/215
f 228/290/240 225/288/238 227/258/213 199/254/209
f 230/291/241 223/286/236 225/288/238 228/290/240
f 230/291/241 228/290/240 229/292/242 232/293/243
f 229/292/242 228/290/240 199/254/209 196/252/207
f 634/287/237 223/286/236 230/291/241 231/294/244
f 233/295/245 231/294/244 230/291/241 232/293/243
f 234/296/246 235/297/247 233/295/245 232/293/243
f 229/292/242 236/298/248 234/296/246 232/293/243
f 237/299/249 238/300/250 235/297/247 234/296/246
f 234/296/246 236/298/248 239/301/251 237/299/249
f 240/302/252 242/303/253 238/300/250 237/299/249
f 243/304/254 240/302/252 237/299/249 239/301/251
f 244/305/255 241/306/256 240/302/252 243/304/254
f 240/302/252 241/306/256 642/307/257 242/303/253
f 244/305/255 243/304/254 245/308/258 246/309/259
f 243/304/254 239/301/251 247/250/205 245/308/258
f 186/238/198 248/242/200 246/309/259 245/308/258
f 189/239/199 186/238/198 245/308/258 247/250/205
f 239/301/251 236/298/248 194/251/206 247/250/205
f 248/242/200 250/310/260 249/311/261 246/309/259
f 252/312/262 244/305/255 246/309/259 249/311/261
f 250/310/260 283/313/263 251/314/264 249/311/261
f 254/315/265 252/312/262 249/311/261 251/314/264
f 241/306/256 244/305/255 252/312/262 253/316/266
f 254/315/265 255/317/267 253/316/266 252/312/262
f 257/318/268 255/317/267 254/315/265 256/319/269
f 254/315/265 251/314/264 259/320/270 256/319/269
f 403/321/271 257/318/268 256/319/269 258/322/272
f 261/323/273 258/322/272 256/319/269 259/320/270
f 251/314/264 283/313/263 260/324/274 259/320/270
f 262/325/275 261/323/273 259/320/270 260/324/274
f 262/325/275 264/326/276 263/327/277 261/323/273
f 266/328/278 258/322/272 261/323/273 263/327/277
f 264/329/276 278/330/279 265/331/280 263/332/277
f 268/333/281 266/334/278 263/332/277 265/331/280
f 258/322/272 266/328/278 267/335/282 403/321/271
f 268/333/281 269/336/283 267/337/282 266/334/278
f 271/338/284 269/336/283 268/333/281 270/339/285
f 270/339/285 268/333/281 265/331/280 273/340/286
f 384/341/287 271/338/284 270/339/285 272/342/288
f 272/342/288 270/339/285 273/340/286 274/343/289
f 275/344/290 276/345/291 274/343/289 273/340/286
f 278/330/279 275/344/290 273/340/286 265/331/280
f 727/346/292 276/345/291 275/344/290 277/347/293
f 278/330/279 279/348/294 277/347/293 275/344/290
f 279/348/294 278/330/279 264/329/276 281/349/295
f 279/348/294 280/350/296 287/351/297 277/347/293
f 280/350/296 279/348/294 281/349/295 282/352/298
f 260/324/274 283/313/263 282/353/298 281/354/295
f 262/325/275 260/324/274 281/354/295 264/326/276
f 283/313/263 250/310/260 284/355/299 282/353/298
f 285/356/300 280/350/296 282/352/298 284/357/299
f 250/310/260 248/242/200 187/243/195 284/355/299
f 184/233/193 285/356/300 284/357/299 187/235/195
f 280/350/296 285/356/300 286/358/301 287/351/297
f 285/356/300 184/233/193 182/232/192 286/358/301
f 288/359/302 290/360/303 287/351/297 286/358/301
f 289/234/194 288/359/302 286/358/301 182/232/192
f 289/234/194 294/361/304 291/362/305 288/359/302
f 292/363/306 290/360/303 288/359/302 291/362/305
f 304/364/307 292/363/306 291/362/305 293/365/308
f 294/361/304 296/366/309 293/365/308 291/362/305
f 297/367/310 296/366/309 294/361/304 295/229/189
f 289/234/194 177/227/187 295/229/189 294/361/304
f 296/366/309 297/367/310 300/368/311 298/369/312
f 293/365/308 296/366/309 298/369/312 301/370/313
f 299/371/314 302/372/315 301/370/313 298/369/312
f 317/373/316 299/371/314 298/369/312 300/368/311
f 302/372/315 306/374/317 303/375/318 301/370/313
f 304/364/307 293/365/308 301/370/313 303/375/318
f 726/376/319 304/364/307 303/375/318 305/377/320
f 306/374/317 307/378/321 305/377/320 303/375/318
f 307/378/321 306/374/317 308/379/322 309/380/323
f 306/374/317 302/372/315 311/381/324 308/379/322
f 310/382/325 360/383/326 309/380/323 308/379/322
f 312/384/327 310/382/325 308/379/322 311/381/324
f 314/385/328 312/384/327 311/381/324 313/386/329
f 302/372/315 299/371/314 313/386/329 311/381/324
f 316/387/330 314/385/328 313/386/329 315/388/331
f 299/371/314 317/373/316 315/388/331 313/386/329
f 319/389/332 316/387/330 315/388/331 318/390/333
f 317/373/316 321/391/334 318/390/333 315/388/331
f 327/392/335 319/389/332 318/390/333 320/393/336
f 321/391/334 322/394/337 320/393/336 318/390/333
f 321/391/334 317/373/316 300/368/311 323/395/338
f 322/394/337 321/391/334 323/395/338 324/396/339
f 325/397/340 326/398/341 324/396/339 323/395/338
f 297/367/310 325/397/340 323/395/338 300/368/311
f 326/398/341 325/397/340 178/225/185 175/223/183
f 325/397/340 297/367/310 295/229/189 178/225/185
f 326/398/341 175/223/183 160/203/163 156/202/162
f 326/398/341 156/202/162 154/198/158 324/396/339
f 324/396/339 154/198/158 151/197/157 322/394/337
f 322/394/337 151/197/157 149/196/156 320/393/336
f 320/393/336 149/196/156 329/195/155 327/392/335
f 329/195/155 330/399/342 328/400/343 327/392/335
f 327/392/335 328/400/343 729/401/344 319/389/332
f 330/399/342 329/195/155 148/192/152 331/402/345
f 330/399/342 331/402/345 333/403/346 332/404/347
f 330/399/342 332/404/347 335/405/348 328/400/343
f 334/406/349 332/404/347 333/403/346 732/407/350
f 334/406/349 337/408/351 335/405/348 332/404/347
f 328/400/343 335/405/348 336/409/352 729/401/344
f 335/405/348 337/408/351 338/410/353 336/409/352
f 337/408/351 339/411/354 341/412/355 338/410/353
f 334/406/349 340/413/356 339/411/354 337/408/351
f 339/411/354 73/99/87 342/100/88 341/412/355
f 73/99/87 339/411/354 340/413/356 75/101/89
f 345/414/357 343/415/358 341/412/355 342/100/88
f 343/415/358 346/416/359 338/410/353 341/412/355
f 344/417/360 347/418/361 346/416/359 343/415/358
f 700/419/362 344/417/360 343/415/358 345/414/357
f 347/418/361 350/420/363 348/421/364 346/416/359
f 346/416/359 348/421/364 336/409/352 338/410/353
f 348/421/364 349/422/365 729/401/344 336/409/352
f 350/420/363 351/423/366 349/422/365 348/421/364
f 351/423/366 350/420/363 352/424/367 355/425/368
f 350/420/363 347/418/361 353/426/369 352/424/367
f 668/427/370 354/428/371 352/424/367 353/426/369
f 354/428/371 356/429/372 355/425/368 352/424/367
f 314/385/328 351/423/366 355/425/368 312/384/327
f 356/429/372 310/382/325 312/384/327 355/425/368
f 310/382/325 356/429/372 357/430/373 360/383/326
f 356/429/372 354/428/371 359/431/374 357/430/373
f 358/432/375 361/433/376 360/383/326 357/430/373
f 663/434/377 358/432/375 357/430/373 359/431/374
f 360/383/326 361/433/376 363/435/378 309/380/323
f 361/433/376 358/432/375 660/436/379 362/437/380
f 361/433/376 362/437/380 365/438/381 363/435/378
f 364/439/382 307/378/321 309/380/323 363/435/378
f 367/440/383 364/439/382 363/435/378 365/438/381
f 362/437/380 657/441/384 366/442/385 365/438/381
f 369/443/386 367/440/383 365/438/381 366/442/385
f 728/444/387 364/439/382 367/440/383 368/445/388
f 369/443/386 371/446/389 368/445/388 367/440/383
f 370/447/390 373/448/391 371/446/389 369/443/386
f 370/447/390 369/443/386 366/442/385 654/449/392
f 371/446/389 372/450/393 722/451/394 368/445/388
f 374/452/395 372/450/393 371/446/389 373/448/391
f 374/452/395 373/448/391 375/453/396 378/454/397
f 373/448/391 370/447/390 377/455/398 375/453/396
f 376/456/399 379/457/400 378/458/397 375/459/396
f 649/460/398 376/456/399 375/459/396 377/461/398
f 378/458/397 379/457/400 382/462/401 380/463/402
f 374/452/395 378/454/397 380/464/402 381/465/403
f 383/466/404 384/341/287 381/465/403 380/464/402
f 386/467/405 383/468/404 380/463/402 382/462/401
f 384/341/287 383/466/404 385/469/406 271/338/284
f 383/468/404 386/467/405 389/470/407 385/471/406
f 386/467/405 382/462/401 644/472/408 387/473/409
f 386/467/405 387/473/409 486/474/410 388/475/411
f 389/470/407 386/467/405 388/475/411 391/476/412
f 390/477/413 643/478/414 385/471/406 389/470/407
f 390/477/413 389/470/407 391/476/412 393/479/415
f 392/480/416 394/481/417 393/479/415 391/476/412
f 484/482/418 392/480/416 391/476/412 388/475/411
f 394/481/417 396/483/419 395/484/420 393/479/415
f 398/485/421 390/477/413 393/479/415 395/484/420
f 396/486/419 476/487/422 397/488/423 395/489/420
f 400/490/424 398/491/421 395/489/420 397/488/423
f 643/478/414 390/477/413 398/485/421 399/492/425
f 400/490/424 402/493/426 399/494/425 398/491/421
f 400/490/424 401/495/427 404/496/428 402/493/426
f 401/495/427 400/490/424 397/488/423 411/497/429
f 402/493/426 403/321/271 267/335/282 399/494/425
f 257/318/268 403/321/271 402/493/426 404/496/428
f 401/495/427 407/498/430 405/499/431 404/496/428
f 255/317/267 257/318/268 404/496/428 405/499/431
f 253/316/266 255/317/267 405/499/431 406/500/432
f 407/498/430 408/501/433 406/500/432 405/499/431
f 408/501/433 407/498/430 409/502/434 412/503/435
f 407/498/430 401/495/427 411/497/429 409/502/434
f 410/504/135 414/505/135 412/503/435 409/502/434
f 477/506/436 410/504/135 409/502/434 411/497/429
f 641/507/437 408/501/433 412/503/435 413/508/438
f 414/505/135 415/509/135 413/508/438 412/503/435
f 415/509/135 414/505/135 416/510/135 419/511/135
f 414/505/135 410/504/135 418/512/135 416/510/135
f 417/513/135 420/514/135 419/511/135 416/510/135
f 457/515/439 417/513/135 416/510/135 418/512/135
f 420/514/135 422/516/135 421/517/135 419/511/135
f 424/518/135 415/509/135 419/511/135 421/517/135
f 422/516/135 435/519/135 423/520/135 421/517/135
f 426/521/135 424/518/135 421/517/135 423/520/135
f 415/509/135 424/518/135 425/522/440 413/508/438
f 424/518/135 426/521/135 427/523/441 425/522/440
f 426/521/135 428/524/135 429/525/442 427/523/441
f 428/524/135 426/521/135 423/520/135 431/526/135
f 430/527/135 637/528/443 429/525/442 428/524/135
f 430/527/135 428/524/135 431/526/135 432/529/135
f 432/529/135 431/526/135 433/530/135 434/531/135
f 435/519/135 433/530/135 431/526/135 423/520/135
f 436/532/135 439/533/135 434/531/135 433/530/135
f 433/530/135 435/519/135 437/534/135 436/532/135
f 436/532/135 437/534/135 448/535/135 438/536/135
f 438/536/135 440/537/135 439/533/135 436/532/135
f 439/533/135 440/537/135 442/538/439 441/539/135
f 434/531/135 439/533/135 441/539/135 432/529/135
f 430/527/135 432/529/135 441/539/135 443/540/135
f 445/541/135 443/540/135 441/539/135 442/538/439
f 443/540/135 445/541/135 447/542/444 444/543/445
f 443/540/135 444/543/445 637/528/443 430/527/135
f 445/541/135 446/544/135 631/545/446 447/542/444
f 437/534/135 451/546/135 449/547/447 448/535/135
f 452/548/135 450/549/135 449/547/447 451/546/135
f 420/514/135 452/548/135 451/546/135 422/516/135
f 435/519/135 422/516/135 451/546/135 437/534/135
f 452/548/135 420/514/135 417/513/135 453/550/439
f 450/549/135 452/548/135 453/550/439 454/551/448
f 455/552/135 458/553/135 454/551/448 453/550/439
f 457/515/439 455/552/135 453/550/439 417/513/135
f 459/554/449 458/553/135 455/552/135 456/555/450
f 457/515/439 478/556/451 456/555/450 455/552/135
f 463/557/452 462/558/453 464/559/454 488/560/455
f 462/558/453 465/561/456 466/562/457 464/559/454
f 466/562/457 465/561/456 461/563/458 468/564/459
f 467/565/460 480/566/461 464/559/454 466/562/457
f 467/565/460 466/562/457 468/564/459 470/567/462
f 469/568/463 471/569/464 470/570/462 468/571/459
f 460/572/465 469/568/463 468/571/459 461/573/458
f 470/570/462 471/569/464 474/574/466 472/575/467
f 467/565/460 470/567/462 472/576/467 473/577/468
f 396/483/419 394/481/417 473/577/468 472/576/467
f 476/487/422 396/486/419 472/575/467 474/574/466
f 477/506/436 476/487/422 474/574/466 475/578/469
f 471/569/464 478/556/451 475/578/469 474/574/466
f 476/487/422 477/506/436 411/497/429 397/488/423
f 410/504/135 477/506/436 475/578/469 418/512/135
f 478/556/451 457/515/439 418/512/135 475/578/469
f 478/556/451 471/569/464 469/568/463 456/555/450
f 480/566/461 467/565/460 473/577/468 479/579/470
f 394/481/417 392/480/416 479/579/470 473/577/468
f 483/580/471 480/566/461 479/579/470 481/581/472
f 392/480/416 484/482/418 481/581/472 479/579/470
f 485/582/473 482/583/474 481/581/472 484/482/418
f 481/581/472 482/583/474 487/584/475 483/580/471
f 485/582/473 484/482/418 388/475/411 486/474/410
f 487/584/475 489/585/476 488/560/455 483/580/471
f 480/566/461 483/580/471 488/560/455 464/559/454
f 489/585/476 490/586/477 463/557/452 488/560/455
f 460/572/465 459/554/449 456/555/450 469/568/463
f 493/587/135 495/588/478 494/270/221 492/589/439
f 495/588/478 496/590/479 208/268/219 494/270/221
f 493/587/135 500/591/135 497/592/480 495/588/478
f 498/593/481 496/590/479 495/588/478 497/592/480
f 627/594/482 498/593/481 497/592/480 499/595/483
f 500/591/135 501/596/135 499/595/483 497/592/480
f 493/587/135 491/597/484 502/598/135 500/591/135
f 503/599/135 501/596/135 500/591/135 502/598/135
f 505/600/135 503/599/135 502/598/135 504/601/439
f 508/602/135 512/603/135 509/604/135 507/605/135
f 505/600/135 510/606/135 509/604/135 511/607/135
f 512/603/135 513/172/135 511/607/135 509/604/135
f 129/171/135 513/172/135 512/603/135 514/608/135
f 508/602/135 516/609/135 514/608/135 512/603/135
f 123/163/135 129/171/135 514/608/135 515/164/135
f 516/609/135 517/610/135 515/164/135 514/608/135
f 508/602/135 506/611/135 518/612/135 516/609/135
f 519/613/135 517/610/135 516/609/135 518/612/135
f 521/614/135 519/613/135 518/612/135 520/615/135
f 525/616/485 524/617/486 526/618/487 527/619/488
f 524/620/486 523/621/489 528/622/490 526/623/487
f 529/624/491 531/625/492 527/619/488 526/618/487
f 530/626/493 529/627/491 526/623/487 528/622/490
f 530/626/493 533/628/494 532/629/495 529/627/491
f 535/630/496 531/625/492 529/624/491 532/631/495
f 533/628/494 617/632/497 534/633/498 532/629/495
f 537/634/499 535/630/496 532/631/495 534/635/498
f 531/625/492 535/630/496 536/636/500 590/637/501
f 535/630/496 537/634/499 539/638/502 536/636/500
f 538/639/503 537/634/499 534/635/498 614/640/504
f 537/634/499 538/639/503 540/641/505 539/638/502
f 542/642/506 541/643/135 539/638/502 540/641/505
f 541/643/135 543/644/135 536/636/500 539/638/502
f 541/643/135 542/642/506 547/645/507 544/646/135
f 543/644/135 541/643/135 544/646/135 545/647/135
f 546/648/135 610/649/135 545/647/135 544/646/135
f 548/650/508 546/648/135 544/646/135 547/645/507
f 550/651/509 548/650/508 547/645/507 549/58/49
f 542/642/506 42/55/46 549/58/49 547/645/507
f 551/652/510 550/651/509 549/58/49 43/57/48
f 550/651/509 551/652/510 554/653/511 552/654/512
f 548/650/508 550/651/509 552/654/512 553/655/513
f 553/655/513 552/654/512 555/656/514 556/657/515
f 552/654/512 554/653/511 558/658/516 555/656/514
f 557/659/517 613/660/518 556/657/515 555/656/514
f 559/661/519 557/659/517 555/656/514 558/658/516
f 559/661/519 558/658/516 560/662/520 561/139/122
f 558/658/516 554/653/511 563/663/521 560/662/520
f 562/664/522 102/135/118 561/139/122 560/662/520
f 562/664/522 560/662/520 563/663/521 565/665/523
f 50/66/57 565/665/523 563/663/521 564/67/58
f 551/652/510 564/67/58 563/663/521 554/653/511
f 565/665/523 566/76/67 567/666/524 562/664/522
f 50/66/57 52/68/59 566/76/67 565/665/523
f 566/76/67 57/75/66 568/667/525 567/666/524
f 100/134/117 102/135/118 562/664/522 567/666/524
f 98/132/116 100/134/117 567/666/524 568/667/525
f 767/133/79 98/132/116 568/667/525 66/668/76
f 57/75/66 59/77/68 66/668/76 568/667/525
f 564/67/58 551/652/510 43/57/48 45/59/50
f 103/138/121 569/144/127 559/661/519 561/139/122
f 569/144/127 570/669/526 557/659/517 559/661/519
f 570/669/526 569/144/127 107/143/126 572/150/133
f 613/660/518 557/659/517 570/669/526 571/670/527
f 571/670/527 570/669/526 572/150/133 573/671/528
f 111/149/132 574/672/529 573/671/528 572/150/133
f 574/672/529 576/673/135 575/674/135 573/671/528
f 571/670/527 573/671/528 575/674/135 577/675/135
f 576/673/135 581/676/135 578/677/135 575/674/135
f 579/678/135 577/675/135 575/674/135 578/677/135
f 579/678/135 578/677/135 580/679/135 604/680/135
f 582/681/135 580/679/135 578/677/135 581/676/135
f 580/679/135 582/681/135 583/682/135 602/683/135
f 574/672/529 111/149/132 113/151/134 584/684/530
f 585/685/135 586/686/135 587/687/135 594/688/135
f 587/687/135 586/686/135 588/689/531 589/690/532
f 525/616/485 527/619/488 589/690/532 588/689/531
f 591/691/135 587/687/135 589/690/532 590/637/501
f 527/619/488 531/625/492 590/637/501 589/690/532
f 543/644/135 591/691/135 590/637/501 536/636/500
f 591/691/135 592/692/135 594/688/135 587/687/135
f 591/691/135 543/644/135 545/647/135 592/692/135
f 610/649/135 593/693/135 592/692/135 545/647/135
f 592/692/135 593/693/135 595/694/135 594/688/135
f 597/695/135 585/685/135 594/688/135 595/694/135
f 598/696/135 597/695/135 595/694/135 596/697/135
f 593/693/135 611/698/135 596/697/135 595/694/135
f 598/696/135 596/697/135 600/699/135 599/700/135
f 599/700/135 600/699/135 602/683/135 583/682/135
f 603/701/135 602/683/135 600/699/135 601/702/135
f 601/702/135 600/699/135 596/697/135 611/698/135
f 604/680/135 580/679/135 602/683/135 603/701/135
f 604/680/135 603/701/135 605/703/135 579/678/135
f 605/703/135 603/701/135 601/702/135 607/704/135
f 579/678/135 605/703/135 606/705/135 577/675/135
f 606/705/135 605/703/135 607/704/135 608/706/135
f 609/707/135 612/708/135 608/706/135 607/704/135
f 611/698/135 609/707/135 607/704/135 601/702/135
f 610/649/135 546/648/135 612/708/135 609/707/135
f 593/693/135 610/649/135 609/707/135 611/698/135
f 612/708/135 553/655/513 556/657/515 608/706/135
f 546/648/135 548/650/508 553/655/513 612/708/135
f 613/660/518 606/705/135 608/706/135 556/657/515
f 606/705/135 613/660/518 571/670/527 577/675/135
f 42/55/46 542/642/506 540/641/505 39/52/43
f 538/639/503 36/45/39 39/52/43 540/641/505
f 36/45/39 538/639/503 614/640/504 34/46/38
f 615/709/533 32/41/37 34/43/38 614/710/504
f 617/632/497 615/709/533 614/710/504 534/633/498
f 32/41/37 615/709/533 616/711/534 622/28/25
f 615/709/533 617/632/497 618/712/535 616/711/534
f 617/632/497 533/628/494 619/713/536 618/712/535
f 10/9/9 12/12/12 616/711/534 618/712/535
f 8/8/8 10/9/9 618/712/535 619/713/536
f 6/6/6 8/8/8 619/713/536 620/714/537
f 533/628/494 530/626/493 620/714/537 619/713/536
f 4/4/4 6/6/6 620/714/537 621/715/538
f 530/626/493 528/622/490 621/715/538 620/714/537
f 2/1/1 4/4/4 621/715/538 522/716/539
f 528/622/490 523/621/489 522/716/539 621/715/538
f 12/12/12 14/14/14 622/28/25 616/711/534
f 624/158/135 517/610/135 519/613/135 623/717/135
f 515/164/135 517/610/135 624/158/135 119/157/135
f 513/172/135 130/173/135 625/718/135 511/607/135
f 503/599/135 505/600/135 511/607/135 625/718/135
f 130/173/135 132/174/135 626/181/135 625/718/135
f 501/596/135 503/599/135 625/718/135 626/181/135
f 501/596/135 626/181/135 137/182/142 499/595/483
f 139/183/143 627/594/482 499/595/483 137/182/142
f 627/594/482 139/183/143 141/185/145 628/209/169
f 627/594/482 628/209/169 162/210/170 498/593/481
f 153/188/148 157/201/161 628/209/169 141/185/145
f 164/211/171 496/590/479 498/593/481 162/210/170
f 496/590/479 164/211/171 166/213/173 208/268/219
f 220/281/231 630/719/540 629/720/541 218/282/232
f 630/719/540 632/721/542 631/545/446 629/720/541
f 632/721/542 633/722/543 447/542/444 631/545/446
f 630/719/540 220/281/231 222/284/234 632/721/542
f 634/287/237 633/722/543 632/721/542 222/284/234
f 633/722/543 635/723/544 444/543/445 447/542/444
f 633/722/543 634/287/237 231/294/244 635/723/544
f 636/724/545 635/723/544 231/294/244 233/295/245
f 635/723/544 636/724/545 637/528/443 444/543/445
f 638/725/546 429/525/442 637/528/443 636/724/545
f 636/724/545 233/295/245 235/297/247 638/725/546
f 638/725/546 639/726/547 427/523/441 429/525/442
f 639/726/547 638/725/546 235/297/247 238/300/250
f 639/726/547 640/727/548 425/522/440 427/523/441
f 640/727/548 639/726/547 238/300/250 242/303/253
f 641/507/437 640/727/548 242/303/253 642/307/257
f 640/727/548 641/507/437 413/508/438 425/522/440
f 408/501/433 641/507/437 642/307/257 406/500/432
f 241/306/256 253/316/266 406/500/432 642/307/257
f 269/336/283 643/728/414 399/729/425 267/337/282
f 643/728/414 269/336/283 271/338/284 385/469/406
f 644/472/408 382/462/401 379/457/400 645/730/549
f 646/731/550 645/730/549 379/457/400 376/456/399
f 649/460/398 647/732/551 646/731/550 376/456/399
f 648/733/552 647/732/551 649/460/398 650/734/553
f 650/734/553 649/460/398 377/461/398 652/735/553
f 718/736/554 648/733/552 650/734/553 651/737/554
f 651/737/554 650/734/553 652/735/553 653/738/554
f 654/449/392 655/739/555 653/740/554 652/741/553
f 370/447/390 654/449/392 652/741/553 377/455/398
f 655/739/555 654/449/392 366/442/385 657/441/384
f 653/740/554 655/739/555 656/742/556 719/743/557
f 657/441/384 658/744/558 656/742/556 655/739/555
f 658/744/558 657/441/384 362/437/380 660/436/379
f 659/745/559 709/746/560 656/742/556 658/744/558
f 659/745/559 658/744/558 660/436/379 661/747/561
f 358/432/375 663/434/377 661/747/561 660/436/379
f 659/745/559 661/747/561 662/748/562 706/749/563
f 661/747/561 663/434/377 664/750/564 662/748/562
f 664/750/564 663/434/377 359/431/374 666/751/565
f 665/752/566 703/753/567 662/748/562 664/750/564
f 665/752/566 664/750/564 666/751/565 667/754/568
f 668/427/370 669/755/569 667/754/568 666/751/565
f 354/428/371 668/427/370 666/751/565 359/431/374
f 669/755/569 668/427/370 353/426/369 670/756/570
f 669/755/569 671/757/571 674/758/572 667/754/568
f 669/755/569 670/756/570 672/759/573 671/757/571
f 698/760/574 673/761/575 671/757/571 672/759/573
f 671/757/571 673/761/575 675/762/576 674/758/572
f 676/763/577 665/752/566 667/754/568 674/758/572
f 678/764/578 676/763/577 674/758/572 675/762/576
f 703/753/567 665/752/566 676/763/577 677/765/579
f 678/764/578 679/766/580 677/765/579 676/763/577
f 679/766/580 678/764/578 680/767/581 683/768/582
f 680/767/581 678/764/578 675/762/576 682/769/583
f 681/770/584 684/771/585 683/768/582 680/767/581
f 681/770/584 680/767/581 682/769/583 693/772/586
f 25/33/29 679/766/580 683/768/582 27/34/30
f 684/771/585 29/36/32 27/34/30 683/768/582
f 29/36/32 684/771/585 685/773/587 688/38/34
f 684/771/585 681/770/584 687/774/588 685/773/587
f 686/775/589 689/776/590 688/777/34 685/778/587
f 690/779/591 686/775/589 685/778/587 687/780/588
f 37/50/41 30/49/35 688/777/34 689/776/590
f 37/50/41 689/776/590 47/62/53 40/53/44
f 47/62/53 689/776/590 686/775/589 702/63/54
f 690/779/591 687/780/588 691/781/592 692/782/593
f 687/774/588 681/770/584 693/772/586 691/783/592
f 694/74/65 55/71/62 692/782/593 691/781/592
f 695/784/594 694/785/65 691/783/592 693/772/586
f 694/785/65 695/784/594 62/83/71 54/82/64
f 696/786/595 695/784/594 693/772/586 682/769/583
f 695/784/594 696/786/595 697/86/74 62/83/71
f 696/786/595 673/761/575 698/760/574 697/86/74
f 673/761/575 696/786/595 682/769/583 675/762/576
f 699/787/596 61/84/72 697/86/74 698/760/574
f 699/787/596 698/760/574 672/759/573 700/419/362
f 699/787/596 700/419/362 345/414/357 701/95/83
f 699/787/596 701/95/83 64/85/73 61/84/72
f 701/95/83 345/414/357 342/100/88 69/94/82
f 670/756/570 344/417/360 700/419/362 672/759/573
f 690/779/591 692/782/593 702/63/54 686/775/589
f 692/782/593 55/71/62 48/64/55 702/63/54
f 679/766/580 25/33/29 704/32/28 677/765/579
f 705/788/597 703/753/567 677/765/579 704/32/28
f 705/788/597 704/32/28 20/22/22 707/26/24
f 703/753/567 705/788/597 706/749/563 662/748/562
f 708/789/598 706/749/563 705/788/597 707/26/24
f 707/26/24 21/27/19 710/790/599 708/789/598
f 708/789/598 709/746/560 659/745/559 706/749/563
f 711/791/600 709/746/560 708/789/598 710/790/599
f 713/792/600 711/793/600 710/794/599 712/795/601
f 21/19/19 18/18/18 712/795/601 710/794/599
f 712/795/601 714/796/602 715/797/600 713/792/600
f 18/18/18 16/17/17 714/796/602 712/795/601
f 717/798/557 713/792/600 715/797/600 716/799/603
f 717/798/557 716/799/603 718/736/554 651/737/554
f 711/793/600 713/792/600 717/798/557 719/800/557
f 651/737/554 653/738/554 719/800/557 717/798/557
f 709/746/560 711/791/600 719/743/557 656/742/556
f 347/418/361 344/417/360 670/756/570 353/426/369
f 384/341/287 272/342/288 720/801/604 381/465/403
f 372/450/393 374/452/395 381/465/403 720/801/604
f 372/450/393 720/801/604 721/802/605 722/451/394
f 720/801/604 272/342/288 274/343/289 721/802/605
f 723/803/606 724/804/607 722/451/394 721/802/605
f 276/345/291 723/803/606 721/802/605 274/343/289
f 276/345/291 727/346/292 725/805/608 723/803/606
f 726/376/319 724/804/607 723/803/606 725/805/608
f 304/364/307 726/376/319 725/805/608 292/363/306
f 727/346/292 290/360/303 292/363/306 725/805/608
f 290/360/303 727/346/292 277/347/293 287/351/297
f 724/804/607 726/376/319 305/377/320 728/444/387
f 724/804/607 728/444/387 368/445/388 722/451/394
f 307/378/321 364/439/382 728/444/387 305/377/320
f 351/423/366 314/385/328 316/387/330 349/422/365
f 349/422/365 316/387/330 319/389/332 729/401/344
f 75/101/89 340/413/356 730/806/609 77/102/90
f 334/406/349 732/407/350 730/806/609 340/413/356
f 731/807/610 762/105/93 77/102/90 730/806/609
f 733/808/611 731/807/610 730/806/609 732/407/350
f 735/809/612 733/808/611 732/407/350 333/403/346
f 761/810/613 731/807/610 733/808/611 734/811/614
f 735/809/612 736/812/615 734/811/614 733/808/611
f 735/809/612 737/813/616 738/814/617 736/812/615
f 737/813/616 735/809/612 333/403/346 331/402/345
f 737/813/616 146/191/151 144/190/150 738/814/617
f 146/191/151 737/813/616 331/402/345 148/192/152
f 739/815/618 741/816/619 736/812/615 738/814/617
f 740/178/139 739/815/618 738/814/617 144/190/150
f 739/815/618 740/178/139 134/175/136 742/817/620
f 741/816/619 739/815/618 742/817/620 743/818/621
f 125/167/135 745/166/135 743/818/621 742/817/620
f 127/168/135 125/167/135 742/817/620 134/175/136
f 741/816/619 743/818/621 744/819/622 763/820/623
f 743/818/621 745/166/135 746/821/135 744/819/622
f 746/821/135 745/166/135 121/161/135 748/160/135
f 747/822/135 764/823/624 744/819/622 746/821/135
f 747/822/135 746/821/135 748/160/135 749/824/135
f 117/152/135 750/825/135 749/824/135 748/160/135
f 752/826/135 747/822/135 749/824/135 751/827/135
f 764/823/624 747/822/135 752/826/135 753/828/625
f 754/829/135 755/830/626 753/828/625 752/826/135
f 755/830/626 756/115/103 758/831/627 753/828/625
f 84/113/101 756/115/103 755/830/626 757/832/628
f 758/831/627 756/115/103 85/112/100 760/833/629
f 759/834/630 764/823/624 753/828/625 758/831/627
f 759/834/630 758/831/627 760/833/629 761/810/613
f 762/105/93 731/807/610 761/810/613 760/833/629
f 78/106/94 762/105/93 760/833/629 85/112/100
f 759/834/630 761/810/613 734/811/614 763/820/623
f 764/823/624 759/834/630 763/820/623 744/819/622
f 736/812/615 741/816/619 763/820/623 734/811/614
f 229/292/242 196/252/207 194/251/206 236/298/248
f 114/147/130 105/141/124 766/131/115 765/835/631
f 92/120/108 89/119/107 765/835/631 766/131/115
f 767/91/79 67/90/78 768/98/86 94/126/111
