# Blender 4.5.3 LTS
# www.blender.org
o Daystrike_Camo.041
v 37.927032 -26.198807 35.080769
v 38.014481 -27.197987 35.056194
v 36.715252 -26.304806 35.078205
v 39.496643 -25.983261 31.906864
v 41.066254 -25.924255 35.087589
v 39.584095 -26.982449 31.882236
v 41.153683 -26.923420 35.062977
v 39.025097 -27.006569 30.875858
v 39.566219 -26.901325 28.525623
v 40.107346 -26.910259 30.810925
v 40.019894 -25.911083 30.835552
v 40.107346 -26.854000 28.526791
v 42.365639 -26.817417 35.065578
v 42.278202 -25.818237 35.090191
v 40.019894 -25.854805 28.551403
v 39.478771 -25.902142 28.550236
v 38.937656 -25.949474 28.549076
v 38.937656 -26.007381 30.900471
v 39.025097 -26.948650 28.524426
v 36.802696 -27.303959 35.053585
v 44.440964 -20.268135 31.794849
v 44.342907 -20.268135 30.809048
v 44.445786 -25.005833 31.794712
v 44.342907 -20.268135 32.780628
v 44.347149 -25.020065 32.780491
v 44.056271 -20.268135 33.728863
v 44.058605 -25.055523 33.728794
v 43.588444 -20.268135 34.602077
v 43.587833 -25.111214 34.602108
v 42.960720 -20.268135 35.368435
v 42.956520 -25.184597 35.368526
v 42.194355 -20.268135 35.996151
v 42.186337 -25.273125 35.996395
v 41.321152 -20.268135 36.463978
v 41.308895 -25.373188 36.464329
v 40.372906 -20.268135 36.750622
v 40.355965 -25.481155 36.751110
v 39.387138 -20.268135 36.848675
v 39.367420 -25.592457 36.849224
v 38.401360 -20.268135 36.750622
v 38.383121 -25.702530 36.751148
v 37.453102 -20.268135 36.463978
v 37.438751 -25.807457 36.464352
v 36.579887 -20.268135 35.996151
v 36.569996 -25.903294 35.996441
v 35.813526 -20.268135 35.368435
v 35.808170 -25.986633 35.368595
v 35.185799 -20.268135 34.602077
v 35.184635 -26.054020 34.602116
v 34.717991 -20.268135 33.728863
v 34.720245 -26.103237 33.728794
v 34.431339 -20.268135 32.780628
v 34.435829 -26.132065 32.780476
v 34.333294 -20.268135 31.794849
v 34.337933 -26.139896 31.794712
v 34.431339 -20.268135 30.809048
v 34.433147 -26.126148 30.809040
v 34.717991 -20.268135 29.860821
v 34.716930 -26.091358 29.860821
v 35.185799 -20.268135 28.987606
v 35.184772 -26.036072 28.987652
v 35.813534 -20.268135 28.221249
v 35.812138 -25.963261 28.221256
v 36.579887 -20.268135 27.593525
v 36.574516 -25.875828 27.593678
v 37.453102 -20.268135 27.125706
v 37.442005 -25.777164 27.126019
v 38.401360 -20.268135 26.839046
v 38.384708 -25.670647 26.839535
v 39.387131 -20.268143 26.741009
v 39.367332 -25.560188 26.741581
v 40.372906 -20.268135 26.839046
v 40.354530 -25.449718 26.839581
v 41.321152 -20.268135 27.125706
v 41.306625 -25.343689 27.126125
v 42.194363 -20.268135 27.593525
v 42.183975 -25.246628 27.593822
v 42.960720 -20.268135 28.221249
v 42.954594 -25.162052 28.221424
v 43.588432 -20.268135 28.987606
v 43.586636 -25.093460 28.987667
v 44.056259 -20.268135 29.860821
v 44.058025 -25.043255 29.860783
v 44.058167 -25.417599 29.860783
v 44.346920 -25.013798 30.808979
v 44.347244 -25.388153 30.808956
v 44.446171 -25.380180 31.794697
v 43.858524 -25.443298 30.907887
v 43.947502 -25.436119 31.794613
v 42.824875 -25.559914 31.107655
v 43.598343 -25.469826 30.054699
v 42.636459 -25.578987 30.441875
v 43.173500 -25.515068 29.268551
v 43.586491 -25.467827 28.987675
v 42.326599 -25.611877 29.830914
v 42.603653 -25.576893 28.578159
v 41.901604 -25.657959 29.301220
v 42.954128 -25.536442 28.221432
v 41.908375 -25.653206 28.012295
v 42.183186 -25.621037 27.593853
v 41.367741 -25.716599 28.879124
v 41.116608 -25.740799 27.590389
v 40.751503 -25.784840 28.571026
v 41.305550 -25.718121 27.126163
v 40.257248 -25.836491 27.331844
v 40.353191 -25.824158 26.839619
v 40.079353 -25.859722 28.383419
v 39.366680 -25.936157 27.243351
v 39.381088 -25.937881 28.319607
v 39.365921 -25.934658 26.741619
v 38.481236 -26.035717 27.331524
v 38.383568 -26.045090 26.839573
v 38.686535 -26.015942 28.382870
v 37.632202 -26.131657 27.589672
v 38.021866 -26.091019 28.569851
v 37.441261 -26.151577 27.126041
v 36.850845 -26.220509 28.011097
v 36.574162 -26.250221 27.593693
v 37.413185 -26.160183 28.877132
v 36.164093 -26.299259 28.576572
v 36.885853 -26.220600 29.298588
v 35.812050 -26.337612 28.221256
v 35.598969 -26.364849 29.266888
v 35.184704 -26.410431 28.987652
v 36.465202 -26.269466 29.828197
v 35.177612 -26.414631 30.053249
v 36.158703 -26.305790 30.439564
v 34.716862 -26.465714 29.860821
v 34.922237 -26.445938 30.906864
v 34.433266 -26.500488 30.809025
v 35.973770 -26.328609 31.106388
v 34.836746 -26.458282 31.794399
v 35.912151 -26.337692 31.801289
v 34.338234 -26.514221 31.794704
v 34.925022 -26.451221 32.682529
v 34.436127 -26.506386 32.780430
v 35.975651 -26.332794 32.496922
v 35.181133 -26.425270 33.537067
v 36.161247 -26.314156 33.164761
v 34.720394 -26.477577 33.728794
v 35.599186 -26.380966 34.323711
v 35.184570 -26.428375 34.602108
v 36.465958 -26.282001 33.776295
v 36.160458 -26.320320 35.013996
v 36.884243 -26.236851 34.305660
v 35.807808 -26.361004 35.368603
v 36.846249 -26.245319 35.579403
v 36.569324 -26.277714 35.996456
v 37.410629 -26.179241 34.726917
v 37.628498 -26.159016 36.000881
v 38.019447 -26.111996 35.034130
v 37.437778 -26.181881 36.464375
v 38.479141 -26.064487 36.259228
v 38.381855 -26.076984 36.751148
v 38.685108 -26.037987 35.221081
v 39.366405 -25.965267 36.347546
v 39.380939 -25.960140 35.284283
v 39.366024 -25.966908 36.849277
v 40.258434 -25.864841 36.258923
v 40.354763 -25.855591 36.751148
v 40.080315 -25.881420 35.220196
v 41.118687 -25.767365 36.000134
v 40.753159 -25.805241 35.032192
v 41.308018 -25.747612 36.464344
v 41.910553 -25.677063 35.578007
v 42.185722 -25.647530 35.996418
v 41.369503 -25.735008 34.723675
v 42.605389 -25.597206 35.011929
v 41.903118 -25.673714 34.301220
v 42.956177 -25.558975 35.368572
v 43.174618 -25.531036 34.321262
v 43.587803 -25.485592 34.602108
v 42.327717 -25.624298 33.771343
v 43.598846 -25.480854 33.534855
v 44.058788 -25.429878 33.728786
v 43.858715 -25.448936 32.681454
v 42.637089 -25.587570 33.160305
v 42.825191 -25.564308 32.494328
v 42.163723 -25.640198 33.003704
v 42.307018 -25.622223 32.419636
v 41.926712 -25.668541 33.534100
v 41.747234 -25.686592 32.895100
v 41.343067 -25.731754 32.834423
v 41.591202 -25.705620 33.360744
v 41.842144 -25.674255 32.371891
v 41.395050 -25.724346 32.346851
v 41.874149 -25.668892 31.819866
v 42.355152 -25.614872 31.808880
v 41.841446 -25.670807 31.267712
v 41.412949 -25.720688 31.830616
v 40.938690 -25.773933 31.838032
v 41.394146 -25.721153 31.314190
v 40.929230 -25.773392 31.335125
v 41.341316 -25.725536 30.825207
v 40.904709 -25.774616 30.851452
v 41.257263 -25.733608 30.391476
v 41.745861 -25.679886 30.743870
v 42.162800 -25.632679 30.613964
v 41.589317 -25.695999 30.276821
v 41.925293 -25.657700 30.083096
v 41.339272 -25.722904 29.901836
v 41.160725 -25.743538 30.095432
v 41.585262 -25.694492 29.634487
v 40.963371 -25.764339 29.654377
v 41.133717 -25.744144 29.297131
v 40.870197 -25.775852 30.005878
v 40.495644 -25.816364 29.500515
v 40.439125 -25.823997 29.925999
v 40.599457 -25.803391 29.061665
v 39.970150 -25.875050 29.406422
v 40.011063 -25.869003 28.918873
v 39.951202 -25.878586 29.875546
v 39.416382 -25.937088 29.374279
v 39.435024 -25.936455 29.857677
v 39.396729 -25.937775 28.870548
v 38.863789 -25.999157 29.406315
v 38.784668 -26.006577 28.918423
v 38.919220 -25.994358 29.875820
v 38.340302 -26.058159 29.500233
v 38.430916 -26.049282 29.926464
v 38.200829 -26.072456 29.060719
v 37.873802 -26.110928 29.653774
v 37.671177 -26.132561 29.295605
v 37.997314 -26.098164 30.006214
v 37.499912 -26.153622 29.901043
v 37.699741 -26.131813 30.095455
v 37.224216 -26.183716 29.632580
v 37.254246 -26.182358 30.276081
v 36.888466 -26.222778 30.081188
v 37.613686 -26.142391 30.391895
v 37.102402 -26.200871 30.743694
v 37.536247 -26.152451 30.826031
v 36.654793 -26.250687 30.612553
v 37.010048 -26.212883 31.268345
v 36.514091 -26.268295 31.197712
v 37.487385 -26.159492 31.315647
v 36.978996 -26.218124 31.821644
v 37.470402 -26.163036 31.832821
v 36.467319 -26.275463 31.809963
v 37.011166 -26.216290 32.375011
v 36.515404 -26.272045 32.422588
v 37.488548 -26.162659 32.349911
v 37.104218 -26.207542 32.899296
v 37.538227 -26.158669 32.838200
v 36.656685 -26.258083 33.008106
v 37.255840 -26.192059 33.365337
v 36.889496 -26.233719 33.539066
v 37.615791 -26.151360 33.269192
v 37.500954 -26.165794 33.739323
v 37.701469 -26.142696 33.559452
v 37.223991 -26.197689 33.987209
v 37.874542 -26.124722 33.987347
v 37.670330 -26.148758 34.324329
v 37.999210 -26.109619 33.654507
v 38.341034 -26.072922 34.142071
v 38.432877 -26.061249 33.736973
v 38.199986 -26.090160 34.559513
v 38.864906 -26.014469 34.236279
v 38.784397 -26.025101 34.701786
v 38.921406 -26.006622 33.788464
v 39.418007 -25.952526 34.267918
v 39.437527 -25.948776 33.806248
v 39.397289 -25.956490 34.749424
v 39.972267 -25.890221 34.235119
v 40.012348 -25.887306 34.700680
v 39.953976 -25.890759 33.787380
v 40.498085 -25.830879 34.139729
v 40.442066 -25.835804 33.734737
v 40.601288 -25.820702 34.557217
v 40.965870 -25.777866 33.983799
v 41.135715 -25.759926 34.320751
v 40.873108 -25.787163 33.651173
v 41.341576 -25.734863 33.734921
v 41.163288 -25.754280 33.555462
v 41.587025 -25.708145 33.982609
v 41.259628 -25.742512 33.265110
v 40.870510 -25.786171 33.261143
v 40.431812 -25.835518 33.297192
v 40.906712 -25.780678 32.821644
v 40.930317 -25.776482 32.340397
v 40.442837 -25.832767 32.831722
v 39.956146 -25.887402 32.839840
v 40.450703 -25.830307 32.343128
v 39.958961 -25.885487 32.345768
v 40.453533 -25.828384 31.842564
v 39.959641 -25.883812 31.845005
v 40.449543 -25.827236 31.341343
v 39.957775 -25.882427 31.343441
v 40.440720 -25.826679 30.849331
v 39.953979 -25.881275 30.845516
v 40.429043 -25.826515 30.376621
v 39.948799 -25.880329 30.355701
v 40.867832 -25.777355 30.406635
v 39.447697 -25.936531 30.347713
v 38.946243 -25.992809 30.356266
v 39.455475 -25.937202 30.843349
v 38.956135 -25.993240 30.846180
v 39.459461 -25.938328 31.343609
v 38.960079 -25.994381 31.344219
v 39.460808 -25.939777 31.845867
v 38.960861 -25.995872 31.845890
v 39.460640 -25.941410 32.347233
v 38.961235 -25.997433 32.346737
v 39.457592 -25.943352 32.843616
v 38.958199 -25.999371 32.840847
v 39.450310 -25.945755 33.330692
v 38.948708 -26.002007 33.322414
v 39.951550 -25.889492 33.321339
v 38.465714 -26.056114 33.299343
v 38.020237 -26.105972 33.264385
v 38.467014 -26.054455 32.833820
v 37.993088 -26.107590 32.824642
v 38.464256 -26.053185 32.345013
v 37.973141 -26.108280 32.342999
v 38.461567 -26.051880 31.844234
v 37.964657 -26.107609 31.840145
v 38.463093 -26.050125 31.342770
v 37.971973 -26.105194 31.336834
v 38.464985 -26.048344 30.850536
v 37.991070 -26.101521 30.852749
v 38.463383 -26.047043 30.377453
v 38.017948 -26.097092 30.407543
v 42.306541 -25.618389 31.198116
v 42.888828 -25.554939 31.800938
v 44.347473 -25.394409 32.780476
vn 0.8925 0.0671 0.4459
vn -0.0000 -0.0246 0.9997
vn -0.8925 -0.0890 0.4421
vn 0.0872 -0.9959 -0.0245
vn 0.0871 -0.9959 -0.0245
vn 0.9665 0.0905 -0.2403
vn 0.9665 0.0905 -0.2404
vn 0.8790 0.0885 -0.4685
vn 0.9962 0.0871 0.0021
vn -0.0000 0.0246 -0.9997
vn -0.9665 -0.0786 -0.2445
vn -0.9962 -0.0871 -0.0021
vn -0.8790 -0.0653 -0.4723
vn 1.0000 0.0009 -0.0001
vn 0.9806 0.0008 -0.1962
vn 0.9806 0.0008 -0.1958
vn 0.9807 0.0008 0.1957
vn 0.9806 0.0008 0.1960
vn 0.9232 0.0004 0.3842
vn 0.9235 0.0004 0.3837
vn 0.8307 -0.0001 0.5567
vn 0.8303 -0.0001 0.5573
vn 0.7057 -0.0006 0.7085
vn 0.7062 -0.0006 0.7080
vn 0.5548 -0.0008 0.8320
vn 0.5543 -0.0008 0.8323
vn 0.3816 -0.0008 0.9243
vn 0.3821 -0.0008 0.9241
vn 0.1950 -0.0005 0.9808
vn 0.1946 -0.0005 0.9809
vn -0.0002 0.0001 1.0000
vn 0.0001 0.0001 1.0000
vn -0.1953 0.0007 0.9807
vn -0.1957 0.0007 0.9807
vn -0.3840 0.0010 0.9233
vn -0.3834 0.0010 0.9236
vn -0.5566 0.0010 0.8308
vn -0.5573 0.0010 0.8303
vn -0.7089 0.0007 0.7053
vn -0.7082 0.0007 0.7060
vn -0.8324 0.0002 0.5542
vn -0.8328 0.0002 0.5535
vn -0.9247 -0.0003 0.3808
vn -0.9244 -0.0003 0.3815
vn -0.9809 -0.0007 0.1945
vn -0.9810 -0.0007 0.1942
vn -1.0000 -0.0007 0.0010
vn -1.0000 -0.0007 0.0007
vn -0.9811 -0.0003 -0.1937
vn -0.9812 -0.0003 -0.1930
vn -0.9243 -0.0000 -0.3817
vn -0.9241 -0.0000 -0.3821
vn -0.8315 0.0002 -0.5555
vn -0.7079 0.0003 -0.7063
vn -0.7076 0.0003 -0.7066
vn -0.5566 0.0005 -0.8308
vn -0.5572 0.0005 -0.8304
vn -0.3842 0.0007 -0.9233
vn -0.3835 0.0007 -0.9235
vn -0.1953 0.0005 -0.9807
vn -0.1957 0.0005 -0.9807
vn -0.0001 -0.0001 -1.0000
vn 0.0001 -0.0001 -1.0000
vn 0.1950 -0.0007 -0.9808
vn 0.1946 -0.0007 -0.9809
vn 0.3816 -0.0011 -0.9243
vn 0.3821 -0.0011 -0.9241
vn 0.5547 -0.0012 -0.8321
vn 0.5541 -0.0012 -0.8325
vn 0.7054 -0.0009 -0.7088
vn 0.7061 -0.0009 -0.7081
vn 0.8306 -0.0003 -0.5569
vn 0.8301 -0.0003 -0.5577
vn 0.9231 0.0003 -0.3846
vn 0.9234 0.0003 -0.3839
vn 0.9218 0.0003 -0.3876
vn 0.8275 -0.0003 -0.5615
vn 0.9802 0.0008 -0.1978
vn 1.0000 0.0009 0.0001
vn 0.1115 -0.9938 -0.0032
vn 0.1115 -0.9938 -0.0031
vn 0.1116 -0.9938 -0.0031
vn 0.1116 -0.9937 -0.0031
vn 0.1116 -0.9938 -0.0030
vn 0.1115 -0.9938 -0.0030
vn 0.1114 -0.9938 -0.0030
vn 0.1114 -0.9938 -0.0031
vn 0.1114 -0.9938 -0.0032
vn 0.1113 -0.9938 -0.0031
vn 0.1114 -0.9938 -0.0033
vn 0.1115 -0.9938 -0.0033
vn 0.1116 -0.9938 -0.0033
vn 0.1116 -0.9937 -0.0032
vn 0.1116 -0.9937 -0.0033
vn 0.1116 -0.9938 -0.0032
vn 0.1115 -0.9938 -0.0034
vn 0.1114 -0.9938 -0.0034
vn 0.9219 0.0004 0.3875
vn 0.9802 0.0008 0.1978
vn 0.8277 -0.0001 0.5612
vn 0.7016 -0.0006 0.7126
vn 0.5489 -0.0008 0.8359
vn 0.3751 -0.0008 0.9270
vn 0.1876 -0.0005 0.9823
vn -0.0075 0.0001 1.0000
vn -0.2027 0.0007 0.9792
vn -0.3905 0.0010 0.9206
vn -0.5627 0.0010 0.8267
vn -0.7129 0.0007 0.7013
vn -0.8354 0.0002 0.5497
vn -0.9259 -0.0004 0.3779
vn -0.9812 -0.0007 0.1928
vn -1.0000 -0.0007 0.0016
vn -0.9816 -0.0003 -0.1908
vn -0.9255 -0.0000 -0.3787
vn -0.8338 0.0002 -0.5521
vn -0.7117 0.0003 -0.7025
vn -0.5627 0.0005 -0.8267
vn -0.3909 0.0007 -0.9204
vn -0.2029 0.0005 -0.9792
vn -0.0075 -0.0001 -1.0000
vn 0.1877 -0.0007 -0.9822
vn 0.3751 -0.0011 -0.9270
vn 0.5488 -0.0012 -0.8360
vn 0.7014 -0.0009 -0.7128
vt 0.985016 0.092809
vt 0.980951 0.092809
vt 0.980951 0.078453
vt 0.985016 0.078453
vt 0.929958 0.150571
vt 0.929958 0.146503
vt 0.934874 0.146503
vt 0.934874 0.150571
vt 0.985016 0.064097
vt 0.980951 0.064097
vt 0.941266 0.133630
vt 0.943390 0.129292
vt 0.952564 0.146503
vt 0.947638 0.146503
vt 0.938982 0.129561
vt 0.938992 0.120038
vt 0.941186 0.120038
vt 0.943390 0.120038
vt 0.982293 0.043202
vt 0.986353 0.043202
vt 0.986353 0.062723
vt 0.982293 0.062723
vt 0.982293 0.033945
vt 0.986353 0.033945
vt 0.952564 0.150571
vt 0.947638 0.150571
vt 0.941186 0.115980
vt 0.943390 0.115980
vt 0.938992 0.115980
vt 0.991721 0.073624
vt 0.987661 0.073624
vt 0.987661 0.064097
vt 0.991721 0.064097
vt 0.991721 0.092837
vt 0.987661 0.092837
vt 0.316659 0.709097
vt 0.312650 0.709117
vt 0.312700 0.689901
vt 0.316709 0.689911
vt 0.320718 0.689921
vt 0.320678 0.709157
vt 0.324686 0.709317
vt 0.324726 0.689931
vt 0.328745 0.689931
vt 0.328705 0.709546
vt 0.332724 0.709855
vt 0.332754 0.689941
vt 0.336763 0.689951
vt 0.336743 0.710214
vt 0.340771 0.710633
vt 0.340771 0.689961
vt 0.344790 0.689971
vt 0.344800 0.711082
vt 0.348819 0.711541
vt 0.348799 0.689981
vt 0.352807 0.689991
vt 0.352827 0.711999
vt 0.356816 0.712428
vt 0.356816 0.690001
vt 0.360835 0.690011
vt 0.360815 0.712827
vt 0.364814 0.713176
vt 0.364844 0.690021
vt 0.368852 0.690021
vt 0.368813 0.713455
vt 0.372821 0.713655
vt 0.372861 0.690031
vt 0.376870 0.690041
vt 0.376830 0.713784
vt 0.380839 0.713824
vt 0.380889 0.690051
vt 0.384897 0.690061
vt 0.384847 0.713774
vt 0.388856 0.713645
vt 0.388906 0.690061
vt 0.392915 0.690071
vt 0.392865 0.713425
vt 0.396874 0.713146
vt 0.396933 0.690081
vt 0.400942 0.690091
vt 0.400872 0.712797
vt 0.404871 0.712408
vt 0.404951 0.690101
vt 0.408960 0.690111
vt 0.408860 0.711979
vt 0.412859 0.711541
vt 0.412978 0.690111
vt 0.288628 0.689841
vt 0.288518 0.710823
vt 0.284499 0.711261
vt 0.284619 0.689831
vt 0.292547 0.710404
vt 0.292646 0.689851
vt 0.296655 0.689861
vt 0.296575 0.710015
vt 0.300594 0.709686
vt 0.300664 0.689871
vt 0.304673 0.689881
vt 0.304623 0.709417
vt 0.308642 0.709227
vt 0.308681 0.689891
vt 0.308632 0.710743
vt 0.304613 0.710932
vt 0.312650 0.710633
vt 0.316659 0.710613
vt 0.218321 0.327563
vt 0.216286 0.327563
vt 0.215927 0.323973
vt 0.217912 0.323574
vt 0.214870 0.320522
vt 0.216745 0.319734
vt 0.211978 0.327583
vt 0.211709 0.324770
vt 0.210951 0.322088
vt 0.209685 0.319605
vt 0.213135 0.317331
vt 0.214820 0.316194
vt 0.210822 0.314539
vt 0.212248 0.313093
vt 0.207950 0.317471
vt 0.205785 0.315755
vt 0.207989 0.312245
vt 0.209106 0.310550
vt 0.204768 0.310540
vt 0.205536 0.308655
vt 0.203272 0.314499
vt 0.200540 0.313751
vt 0.201258 0.309483
vt 0.201657 0.307498
vt 0.197628 0.309124
vt 0.197628 0.307089
vt 0.197688 0.313482
vt 0.194866 0.313741
vt 0.194028 0.309483
vt 0.193629 0.307488
vt 0.190568 0.310530
vt 0.189790 0.308645
vt 0.192153 0.314489
vt 0.189660 0.315735
vt 0.187386 0.312235
vt 0.186260 0.310540
vt 0.184574 0.314519
vt 0.183148 0.313083
vt 0.187526 0.317451
vt 0.185801 0.319585
vt 0.182281 0.317311
vt 0.180585 0.316184
vt 0.180555 0.320502
vt 0.178681 0.319714
vt 0.184554 0.322068
vt 0.183796 0.324770
vt 0.179518 0.323953
vt 0.177524 0.323554
vt 0.179169 0.327543
vt 0.177135 0.327543
vt 0.183537 0.327573
vt 0.183806 0.330395
vt 0.179518 0.331143
vt 0.177524 0.331542
vt 0.180555 0.334603
vt 0.178691 0.335381
vt 0.184554 0.333107
vt 0.185791 0.335580
vt 0.182261 0.337794
vt 0.180575 0.338911
vt 0.184544 0.340586
vt 0.183108 0.342013
vt 0.187496 0.337724
vt 0.189640 0.339420
vt 0.187337 0.342880
vt 0.186210 0.344565
vt 0.190528 0.344585
vt 0.189740 0.346460
vt 0.192123 0.340666
vt 0.194836 0.341434
vt 0.193988 0.345633
vt 0.193589 0.347627
vt 0.197598 0.345991
vt 0.197598 0.348026
vt 0.197668 0.341683
vt 0.200520 0.341434
vt 0.201238 0.345633
vt 0.201637 0.347627
vt 0.204748 0.344585
vt 0.205516 0.346470
vt 0.203253 0.340666
vt 0.205776 0.339420
vt 0.207969 0.342880
vt 0.209086 0.344575
vt 0.210812 0.340586
vt 0.212238 0.342032
vt 0.207940 0.337714
vt 0.209675 0.335570
vt 0.213125 0.337794
vt 0.214810 0.338931
vt 0.214860 0.334613
vt 0.216735 0.335391
vt 0.210941 0.333097
vt 0.215917 0.331153
vt 0.217912 0.331551
vt 0.211709 0.330395
vt 0.209007 0.332459
vt 0.209595 0.330086
vt 0.208039 0.334603
vt 0.207321 0.332020
vt 0.207710 0.329896
vt 0.206683 0.333905
vt 0.205676 0.331771
vt 0.205875 0.329796
vt 0.205327 0.333516
vt 0.207840 0.327662
vt 0.209794 0.327622
vt 0.205955 0.327702
vt 0.207710 0.325428
vt 0.209595 0.325149
vt 0.205875 0.325618
vt 0.204030 0.327732
vt 0.203990 0.329766
vt 0.203990 0.325698
vt 0.203891 0.323733
vt 0.205676 0.323633
vt 0.207321 0.323304
vt 0.203741 0.321938
vt 0.205327 0.321878
vt 0.206683 0.321410
vt 0.209017 0.322776
vt 0.208049 0.320622
vt 0.205666 0.319894
vt 0.206673 0.318817
vt 0.204938 0.320672
vt 0.203751 0.320313
vt 0.204140 0.318897
vt 0.204828 0.317451
vt 0.202225 0.318268
vt 0.202654 0.316483
vt 0.201996 0.319994
vt 0.200011 0.319784
vt 0.200091 0.317889
vt 0.200251 0.315905
vt 0.197828 0.317760
vt 0.197748 0.315715
vt 0.197907 0.319714
vt 0.195803 0.319784
vt 0.195574 0.317889
vt 0.195265 0.315905
vt 0.193440 0.318258
vt 0.192871 0.316483
vt 0.193819 0.319994
vt 0.192044 0.320313
vt 0.191545 0.318887
vt 0.190717 0.317441
vt 0.190019 0.319884
vt 0.188902 0.318797
vt 0.190827 0.320672
vt 0.190478 0.321868
vt 0.189022 0.321400
vt 0.187536 0.320612
vt 0.188394 0.323294
vt 0.186569 0.322756
vt 0.190169 0.323633
vt 0.189969 0.325618
vt 0.188025 0.325419
vt 0.186000 0.325139
vt 0.187895 0.327662
vt 0.185811 0.327612
vt 0.189890 0.327712
vt 0.189969 0.329806
vt 0.188025 0.329906
vt 0.186000 0.330086
vt 0.188394 0.332030
vt 0.186569 0.332469
vt 0.190169 0.331781
vt 0.190478 0.333526
vt 0.189012 0.333915
vt 0.187526 0.334623
vt 0.190009 0.335431
vt 0.188882 0.336428
vt 0.190827 0.334693
vt 0.192044 0.335092
vt 0.191535 0.336428
vt 0.190707 0.337804
vt 0.193430 0.337056
vt 0.192851 0.338752
vt 0.193809 0.335421
vt 0.195803 0.335630
vt 0.195564 0.337435
vt 0.195245 0.339330
vt 0.197828 0.337575
vt 0.197738 0.339519
vt 0.197907 0.335710
vt 0.200011 0.335630
vt 0.200081 0.337435
vt 0.200241 0.339330
vt 0.202215 0.337056
vt 0.202644 0.338752
vt 0.201996 0.335411
vt 0.203751 0.335082
vt 0.204130 0.336418
vt 0.204818 0.337794
vt 0.205666 0.335411
vt 0.206663 0.336418
vt 0.204938 0.334683
vt 0.203741 0.333496
vt 0.203891 0.331711
vt 0.201956 0.333636
vt 0.202006 0.331761
vt 0.202036 0.329776
vt 0.200021 0.331791
vt 0.200002 0.333735
vt 0.200031 0.329786
vt 0.200041 0.327762
vt 0.202056 0.327752
vt 0.200031 0.325738
vt 0.202036 0.325728
vt 0.200021 0.323713
vt 0.202006 0.323733
vt 0.200002 0.321729
vt 0.201956 0.321818
vt 0.197987 0.323703
vt 0.197957 0.321689
vt 0.195913 0.321729
vt 0.195943 0.323723
vt 0.198007 0.325738
vt 0.195963 0.325738
vt 0.198007 0.327762
vt 0.195963 0.327762
vt 0.198007 0.329796
vt 0.195963 0.329796
vt 0.197987 0.331801
vt 0.195953 0.331791
vt 0.197957 0.333775
vt 0.195913 0.333735
vt 0.193938 0.333646
vt 0.193948 0.331761
vt 0.192024 0.331721
vt 0.192133 0.333506
vt 0.191944 0.329776
vt 0.193938 0.329786
vt 0.191904 0.327742
vt 0.193928 0.327752
vt 0.191934 0.325698
vt 0.193938 0.325728
vt 0.192014 0.323733
vt 0.193948 0.323733
vt 0.192133 0.321938
vt 0.193938 0.321818
vt 0.324686 0.710833
vt 0.320668 0.710673
vt 0.328705 0.711062
vt 0.332724 0.711371
vt 0.336743 0.711730
vt 0.340771 0.712149
vt 0.344800 0.712598
vt 0.348819 0.713056
vt 0.352827 0.713515
vt 0.356816 0.713944
vt 0.360815 0.714343
vt 0.364814 0.714692
vt 0.368813 0.714971
vt 0.372811 0.715170
vt 0.376820 0.715300
vt 0.380829 0.715340
vt 0.384847 0.715290
vt 0.388846 0.715160
vt 0.392865 0.714941
vt 0.396874 0.714662
vt 0.400872 0.714313
vt 0.404861 0.713924
vt 0.408850 0.713495
vt 0.412849 0.713056
vt 0.288508 0.712338
vt 0.284489 0.712777
vt 0.292537 0.711919
vt 0.296566 0.711531
vt 0.300594 0.711201
s 1
f 1/1/1 2/2/1 6/3/1 4/4/1
f 3/5/2 20/6/2 2/7/2 1/8/2
f 5/9/3 4/4/3 6/3/3 7/10/3
f 6/11/4 10/12/4 13/13/4 7/14/4
f 6/11/4 2/7/5 20/6/5 8/15/5
f 8/15/5 19/16/5 9/17/4 6/11/4
f 9/17/4 12/18/4 10/12/4 6/11/4
f 10/19/6 11/20/7 14/21/8 13/22/8
f 12/23/9 15/24/9 11/20/7 10/19/6
f 14/25/2 5/26/2 7/14/2 13/13/2
f 12/18/10 9/17/10 16/27/10 15/28/10
f 19/16/10 17/29/10 16/27/10 9/17/10
f 8/30/11 18/31/11 17/32/12 19/33/12
f 20/34/13 3/35/13 18/31/11 8/30/11
f 23/36/14 85/37/15 22/38/16 21/39/14
f 24/40/17 25/41/18 23/36/14 21/39/14
f 27/42/19 25/41/18 24/40/17 26/43/20
f 28/44/21 29/45/22 27/42/19 26/43/20
f 31/46/23 29/45/22 28/44/21 30/47/24
f 32/48/25 33/49/26 31/46/23 30/47/24
f 35/50/27 33/49/26 32/48/25 34/51/28
f 36/52/29 37/53/30 35/50/27 34/51/28
f 39/54/31 37/53/30 36/52/29 38/55/32
f 40/56/33 41/57/34 39/54/31 38/55/32
f 43/58/35 41/57/34 40/56/33 42/59/36
f 44/60/37 45/61/38 43/58/35 42/59/36
f 47/62/39 45/61/38 44/60/37 46/63/40
f 48/64/41 49/65/42 47/62/39 46/63/40
f 51/66/43 49/65/42 48/64/41 50/67/44
f 52/68/45 53/69/46 51/66/43 50/67/44
f 55/70/47 53/69/46 52/68/45 54/71/48
f 55/70/47 54/71/48 56/72/49 57/73/50
f 59/74/51 57/73/50 56/72/49 58/75/52
f 60/76/53 61/77/53 59/74/51 58/75/52
f 63/78/54 61/77/53 60/76/53 62/79/55
f 64/80/56 65/81/57 63/78/54 62/79/55
f 67/82/58 65/81/57 64/80/56 66/83/59
f 68/84/60 69/85/61 67/82/58 66/83/59
f 71/86/62 69/85/61 68/84/60 70/87/63
f 72/88/64 73/89/65 71/90/62 70/91/63
f 75/92/66 73/89/65 72/88/64 74/93/67
f 76/94/68 77/95/69 75/92/66 74/93/67
f 79/96/70 77/95/69 76/94/68 78/97/71
f 80/98/72 81/99/73 79/96/70 78/97/71
f 83/100/74 81/99/73 80/98/72 82/101/75
f 22/38/16 85/37/15 83/100/74 82/101/75
f 84/102/76 94/103/77 81/99/73 83/100/74
f 86/104/78 84/102/76 83/100/74 85/37/15
f 87/105/79 86/104/78 85/37/15 23/36/14
f 87/106/80 89/107/80 88/108/81 86/109/81
f 91/110/81 84/111/81 86/109/81 88/108/81
f 89/107/80 324/112/80 90/113/81 88/108/81
f 88/108/81 90/113/81 92/114/81 91/110/81
f 91/110/81 92/114/81 95/115/81 93/116/82
f 84/111/81 91/110/81 93/116/82 94/117/82
f 96/118/82 98/119/82 94/117/82 93/116/82
f 93/116/82 95/115/81 97/120/82 96/118/82
f 96/118/82 97/120/82 101/121/82 99/122/82
f 98/119/82 96/118/82 99/122/82 100/123/82
f 102/124/83 104/125/83 100/123/82 99/122/82
f 99/122/82 101/121/82 103/126/84 102/124/83
f 102/124/83 103/126/84 107/127/85 105/128/82
f 104/125/83 102/124/83 105/128/82 106/129/82
f 108/130/81 110/131/80 106/129/82 105/128/82
f 105/128/82 107/127/85 109/132/85 108/130/81
f 108/130/81 109/132/85 113/133/86 111/134/87
f 110/131/80 108/130/81 111/134/87 112/135/88
f 114/136/87 116/137/89 112/135/88 111/134/87
f 111/134/87 113/133/86 115/138/87 114/136/87
f 114/136/87 115/138/87 119/139/87 117/140/87
f 116/137/89 114/136/87 117/140/87 118/141/87
f 120/142/87 122/143/87 118/141/87 117/140/87
f 117/140/87 119/139/87 121/144/87 120/142/87
f 120/142/87 121/144/87 125/145/80 123/146/80
f 122/143/87 120/142/87 123/146/80 124/147/80
f 126/148/81 128/149/81 124/147/80 123/146/80
f 123/146/80 125/145/80 127/150/81 126/148/81
f 126/148/81 127/150/81 131/151/81 129/152/81
f 128/149/81 126/148/81 129/152/81 130/153/81
f 132/154/81 134/155/81 130/153/81 129/152/81
f 129/152/81 131/151/81 133/156/87 132/154/81
f 132/154/81 133/156/87 137/157/88 135/158/80
f 134/155/81 132/154/81 135/158/80 136/159/80
f 138/160/80 140/161/80 136/159/80 135/158/80
f 135/158/80 137/157/88 139/162/88 138/160/80
f 138/160/80 139/162/88 143/163/90 141/164/90
f 140/161/80 138/160/80 141/164/90 142/165/90
f 144/166/90 146/167/90 142/165/90 141/164/90
f 141/164/90 143/163/90 145/168/90 144/166/90
f 144/166/90 145/168/90 149/169/90 147/170/90
f 146/167/90 144/166/90 147/170/90 148/171/88
f 150/172/88 152/173/88 148/171/88 147/170/90
f 147/170/90 149/169/90 151/174/90 150/172/88
f 150/172/88 151/174/90 155/175/91 153/176/88
f 152/173/88 150/172/88 153/176/88 154/177/88
f 156/178/80 158/179/80 154/177/88 153/176/88
f 153/176/88 155/175/91 157/180/91 156/178/80
f 156/178/80 157/180/91 161/181/92 159/182/93
f 158/179/80 156/178/80 159/182/93 160/183/93
f 162/184/93 164/185/93 160/183/93 159/182/93
f 159/182/93 161/181/92 163/186/94 162/184/93
f 162/184/93 163/186/94 167/187/92 165/188/93
f 164/185/93 162/184/93 165/188/93 166/189/93
f 168/190/95 170/191/95 166/189/93 165/188/93
f 165/188/93 167/187/92 169/192/92 168/190/95
f 168/190/95 169/192/92 173/193/92 171/194/91
f 170/191/95 168/190/95 171/194/91 172/195/80
f 174/196/80 175/197/80 172/195/80 171/194/91
f 171/194/91 173/193/92 177/198/80 174/196/80
f 175/197/80 174/196/80 176/199/80 325/200/80
f 177/198/80 178/201/80 176/199/80 174/196/80
f 177/198/80 179/202/80 180/203/80 178/201/80
f 179/202/80 177/198/80 173/193/92 181/204/91
f 179/202/80 182/205/80 185/206/80 180/203/80
f 182/205/80 179/202/80 181/204/91 184/207/91
f 182/205/80 183/208/80 186/209/80 185/206/80
f 183/208/80 182/205/80 184/207/91 276/210/80
f 187/211/80 188/212/80 180/203/80 185/206/80
f 190/213/80 187/211/80 185/206/80 186/209/80
f 188/212/80 187/211/80 189/214/81 323/215/81
f 187/211/80 190/213/80 192/216/81 189/214/81
f 191/217/80 190/213/80 186/209/80 280/218/80
f 190/213/80 191/217/80 193/219/80 192/216/81
f 195/220/81 194/221/81 192/216/81 193/219/80
f 194/221/81 197/222/81 189/214/81 192/216/81
f 194/221/81 195/220/81 293/223/81 196/224/81
f 197/222/81 194/221/81 196/224/81 199/225/81
f 197/222/81 198/226/81 323/215/81 189/214/81
f 198/226/81 197/222/81 199/225/81 200/227/81
f 201/228/85 203/229/85 200/227/81 199/225/81
f 202/230/85 201/228/85 199/225/81 196/224/81
f 201/228/85 202/230/85 206/231/85 204/232/85
f 203/229/85 201/228/85 204/232/85 205/233/85
f 207/234/85 209/235/85 205/233/85 204/232/85
f 208/236/85 207/234/85 204/232/85 206/231/85
f 207/234/85 208/236/85 212/237/85 210/238/85
f 209/235/85 207/234/85 210/238/85 211/239/85
f 213/240/85 215/241/85 211/239/85 210/238/85
f 214/242/85 213/240/85 210/238/85 212/237/85
f 213/240/85 214/242/85 218/243/85 216/244/85
f 215/241/85 213/240/85 216/244/85 217/245/86
f 219/246/86 221/247/86 217/245/86 216/244/85
f 220/248/85 219/246/86 216/244/85 218/243/85
f 219/246/86 220/248/85 224/249/81 222/250/86
f 221/247/86 219/246/86 222/250/86 223/251/87
f 225/252/81 227/253/87 223/251/87 222/250/86
f 226/254/81 225/252/81 222/250/86 224/249/81
f 225/252/81 226/254/81 230/255/81 228/256/81
f 227/253/87 225/252/81 228/256/81 229/257/81
f 231/258/81 233/259/81 229/257/81 228/256/81
f 232/260/81 231/258/81 228/256/81 230/255/81
f 231/258/81 232/260/81 236/261/80 234/262/81
f 233/259/81 231/258/81 234/262/81 235/263/81
f 237/264/80 239/265/88 235/263/81 234/262/81
f 238/266/80 237/264/80 234/262/81 236/261/80
f 237/264/80 238/266/80 242/267/80 240/268/80
f 239/265/88 237/264/80 240/268/80 241/269/88
f 243/270/80 245/271/88 241/269/88 240/268/80
f 244/272/80 243/270/80 240/268/80 242/267/80
f 243/270/80 244/272/80 248/273/80 246/274/91
f 245/271/88 243/270/80 246/274/91 247/275/91
f 249/276/91 251/277/91 247/275/91 246/274/91
f 250/278/91 249/276/91 246/274/91 248/273/80
f 249/276/91 250/278/91 254/279/91 252/280/91
f 251/277/91 249/276/91 252/280/91 253/281/90
f 255/282/96 257/283/97 253/281/90 252/280/91
f 256/284/91 255/282/96 252/280/91 254/279/91
f 255/282/96 256/284/91 260/285/91 258/286/96
f 257/283/97 255/282/96 258/286/96 259/287/96
f 261/288/96 263/289/96 259/287/96 258/286/96
f 262/290/91 261/288/96 258/286/96 260/285/91
f 261/288/96 262/290/91 266/291/91 264/292/96
f 263/289/96 261/288/96 264/292/96 265/293/96
f 267/294/91 269/295/92 265/293/96 264/292/96
f 268/296/91 267/294/91 264/292/96 266/291/91
f 267/294/91 268/296/91 272/297/91 270/298/91
f 269/295/92 267/294/91 270/298/91 271/299/91
f 273/300/91 275/301/91 271/299/91 270/298/91
f 274/302/91 273/300/91 270/298/91 272/297/91
f 273/300/91 274/302/91 276/210/80 184/207/91
f 275/301/91 273/300/91 184/207/91 181/204/91
f 169/192/92 275/301/91 181/204/91 173/193/92
f 275/301/91 169/192/92 167/187/92 271/299/91
f 274/302/91 272/297/91 277/303/80 276/210/80
f 279/304/80 183/208/80 276/210/80 277/303/80
f 272/297/91 268/296/91 278/305/91 277/303/80
f 281/306/80 279/304/80 277/303/80 278/305/91
f 183/208/80 279/304/80 280/218/80 186/209/80
f 279/304/80 281/306/80 283/307/80 280/218/80
f 282/308/80 281/306/80 278/305/91 308/309/91
f 281/306/80 282/308/80 284/310/80 283/307/80
f 286/311/80 285/312/80 283/307/80 284/310/80
f 285/312/80 191/217/80 280/218/80 283/307/80
f 285/312/80 286/311/80 288/313/80 287/314/81
f 191/217/80 285/312/80 287/314/81 193/219/80
f 290/315/81 289/316/81 287/314/81 288/313/80
f 289/316/81 195/220/81 193/219/80 287/314/81
f 289/316/81 290/315/81 292/317/81 291/318/81
f 195/220/81 289/316/81 291/318/81 293/223/81
f 212/237/85 208/236/85 291/318/81 292/317/81
f 208/236/85 206/231/85 293/223/81 291/318/81
f 206/231/85 202/230/85 196/224/81 293/223/81
f 290/315/81 296/319/81 294/320/81 292/317/81
f 214/242/85 212/237/85 292/317/81 294/320/81
f 218/243/85 214/242/85 294/320/81 295/321/81
f 296/319/81 297/322/81 295/321/81 294/320/81
f 297/322/81 296/319/81 298/323/81 299/324/81
f 296/319/81 290/315/81 288/313/80 298/323/81
f 300/325/80 301/326/80 299/324/81 298/323/81
f 286/311/80 300/325/80 298/323/81 288/313/80
f 301/326/80 300/325/80 302/327/80 303/328/80
f 300/325/80 286/311/80 284/310/80 302/327/80
f 304/329/80 305/330/80 303/328/80 302/327/80
f 282/308/80 304/329/80 302/327/80 284/310/80
f 305/330/80 304/329/80 306/331/91 307/332/91
f 304/329/80 282/308/80 308/309/91 306/331/91
f 262/290/91 260/285/91 307/332/91 306/331/91
f 266/291/91 262/290/91 306/331/91 308/309/91
f 268/296/91 266/291/91 308/309/91 278/305/91
f 260/285/91 256/284/91 309/333/91 307/332/91
f 311/334/80 305/330/80 307/332/91 309/333/91
f 312/335/80 311/334/80 309/333/91 310/336/80
f 256/284/91 254/279/91 310/336/80 309/333/91
f 311/334/80 312/335/80 314/337/80 313/338/80
f 305/330/80 311/334/80 313/338/80 303/328/80
f 316/339/80 315/340/80 313/338/80 314/337/80
f 315/340/80 301/326/80 303/328/80 313/338/80
f 315/340/80 316/339/80 318/341/80 317/342/81
f 301/326/80 315/340/80 317/342/81 299/324/81
f 320/343/80 319/344/81 317/342/81 318/341/80
f 319/344/81 297/322/81 299/324/81 317/342/81
f 319/344/81 320/343/80 322/345/81 321/346/81
f 297/322/81 319/344/81 321/346/81 295/321/81
f 224/249/81 220/248/85 321/346/81 322/345/81
f 220/248/85 218/243/85 295/321/81 321/346/81
f 320/343/80 232/260/81 230/255/81 322/345/81
f 226/254/81 224/249/81 322/345/81 230/255/81
f 232/260/81 320/343/80 318/341/80 236/261/80
f 316/339/80 238/266/80 236/261/80 318/341/80
f 238/266/80 316/339/80 314/337/80 242/267/80
f 312/335/80 244/272/80 242/267/80 314/337/80
f 244/272/80 312/335/80 310/336/80 248/273/80
f 254/279/91 250/278/91 248/273/80 310/336/80
f 163/186/94 269/295/92 271/299/91 167/187/92
f 269/295/92 163/186/94 161/181/92 265/293/96
f 157/180/91 263/289/96 265/293/96 161/181/92
f 263/289/96 157/180/91 155/175/91 259/287/96
f 151/174/90 257/283/97 259/287/96 155/175/91
f 257/283/97 151/174/90 149/169/90 253/281/90
f 145/168/90 251/277/91 253/281/90 149/169/90
f 251/277/91 145/168/90 143/163/90 247/275/91
f 139/162/88 245/271/88 247/275/91 143/163/90
f 245/271/88 139/162/88 137/157/88 241/269/88
f 133/156/87 239/265/88 241/269/88 137/157/88
f 239/265/88 133/156/87 131/151/81 235/263/81
f 127/150/81 233/259/81 235/263/81 131/151/81
f 233/259/81 127/150/81 125/145/80 229/257/81
f 121/144/87 227/253/87 229/257/81 125/145/80
f 227/253/87 121/144/87 119/139/87 223/251/87
f 115/138/87 221/247/86 223/251/87 119/139/87
f 221/247/86 115/138/87 113/133/86 217/245/86
f 109/132/85 215/241/85 217/245/86 113/133/86
f 215/241/85 109/132/85 107/127/85 211/239/85
f 103/126/84 209/235/85 211/239/85 107/127/85
f 209/235/85 103/126/84 101/121/82 205/233/85
f 97/120/82 203/229/85 205/233/85 101/121/82
f 203/229/85 97/120/82 95/115/81 200/227/81
f 92/114/81 198/226/81 200/227/81 95/115/81
f 198/226/81 92/114/81 90/113/81 323/215/81
f 324/112/80 188/212/80 323/215/81 90/113/81
f 188/212/80 324/112/80 178/201/80 180/203/80
f 176/199/80 178/201/80 324/112/80 89/107/80
f 89/107/80 87/106/80 325/200/80 176/199/80
f 27/42/19 175/347/98 325/348/99 25/41/18
f 87/105/79 23/36/14 25/41/18 325/348/99
f 175/347/98 27/42/19 29/45/22 172/349/100
f 31/46/23 170/350/101 172/349/100 29/45/22
f 170/350/101 31/46/23 33/49/26 166/351/102
f 35/50/27 164/352/103 166/351/102 33/49/26
f 164/352/103 35/50/27 37/53/30 160/353/104
f 39/54/31 158/354/105 160/353/104 37/53/30
f 158/354/105 39/54/31 41/57/34 154/355/106
f 43/58/35 152/356/107 154/355/106 41/57/34
f 152/356/107 43/58/35 45/61/38 148/357/108
f 47/62/39 146/358/109 148/357/108 45/61/38
f 146/358/109 47/62/39 49/65/42 142/359/110
f 51/66/43 140/360/111 142/359/110 49/65/42
f 140/360/111 51/66/43 53/69/46 136/361/112
f 55/70/47 134/362/113 136/361/112 53/69/46
f 134/362/113 55/70/47 57/73/50 130/363/114
f 59/74/51 128/364/115 130/363/114 57/73/50
f 124/365/116 128/364/115 59/74/51 61/77/53
f 122/366/117 124/365/116 61/77/53 63/78/54
f 118/367/118 122/366/117 63/78/54 65/81/57
f 116/368/119 118/367/118 65/81/57 67/82/58
f 112/369/120 116/368/119 67/82/58 69/85/61
f 110/370/121 112/369/120 69/85/61 71/86/62
f 106/371/122 110/372/121 71/90/62 73/89/65
f 104/373/123 106/371/122 73/89/65 75/92/66
f 100/374/124 104/373/123 75/92/66 77/95/69
f 98/375/125 100/374/124 77/95/69 79/96/70
f 94/103/77 98/375/125 79/96/70 81/99/73
