# PadForge: decal shells re-partitioned to their host part
o Decal-R1
v 38.083320 -13.084229 50.001933
v 36.611223 -13.448935 50.270132
v 36.724922 -13.554160 50.312794
v 38.218488 -13.185803 50.032019
v 28.470081 -15.658818 50.868480
v 28.470081 -14.695827 50.758115
v 28.011636 -14.723103 50.695657
v 28.011636 -15.680805 50.811290
v 32.934086 -14.332954 50.803370
v 31.546631 -14.473315 50.890266
v 31.841745 -15.450399 50.983592
v 33.359339 -15.301116 50.871163
v 30.245749 -14.579508 50.887807
v 30.393693 -15.555013 50.994447
v 27.651961 -14.738589 50.552904
v 27.651961 -15.693635 50.670369
v 38.401992 -13.318315 49.972228
v 36.884696 -13.696388 50.277068
v 37.898564 -14.614356 50.241119
v 39.592487 -14.183983 49.818224
v 35.398712 -13.975147 50.519160
v 36.215437 -14.919825 50.545013
v 39.759667 -12.818385 49.632302
v 41.082849 -13.596777 49.330338
v 34.155608 -14.177118 50.678185
v 34.765375 -15.136938 50.712212
v 28.011638 -22.507731 50.754673
v 28.011638 -22.354994 50.759821
v 27.651965 -22.354677 50.655833
v 27.651965 -22.507436 50.651624
v 28.945054 -15.635162 50.916678
v 28.945054 -14.667168 50.808674
v 28.470081 -14.546718 50.726338
v 28.011636 -14.575597 50.663045
v 27.651961 -14.591653 50.520456
v 32.854115 -14.180459 50.775020
v 31.491601 -14.321011 50.858564
v 30.218228 -14.427773 50.854943
v 38.218484 -13.185814 49.971840
v 36.724919 -13.554171 50.252600
v 35.264415 -13.827481 50.484254
v 34.048514 -14.026117 50.653166
v 28.945054 -14.516741 50.776875
v 48.114152 -13.067391 45.930623
v 47.308100 -14.041991 46.405389
v 48.687970 -14.627636 45.351281
v 49.488404 -13.566111 44.836006
v 46.348256 -14.933475 46.952679
v 47.648014 -15.629359 46.020462
v 28.011638 -18.584393 50.866469
v 28.011638 -19.557752 50.849660
v 28.470083 -19.555036 50.878412
v 28.470083 -18.576994 50.902015
v 34.426172 -18.311936 50.734958
v 32.567014 -18.454462 50.925589
v 32.790759 -19.467093 50.866692
v 34.758435 -19.331027 50.649694
v 30.757790 -18.529482 50.984203
v 30.870178 -19.529491 50.941429
v 27.651965 -19.559886 50.729676
v 27.651965 -18.589247 50.741873
v 27.247337 -18.594887 50.449877
v 27.247100 -19.563492 50.442836
v 43.059190 -16.723164 48.555544
v 40.878476 -17.362584 49.385673
v 41.869511 -18.282753 48.977977
v 44.206278 -17.567956 47.960616
v 38.589646 -17.818936 50.052657
v 39.375984 -18.797667 49.797675
v 44.905332 -15.889303 47.690308
v 46.149311 -16.651143 46.938470
v 36.439401 -18.118694 50.429395
v 36.980854 -19.127376 50.289853
v 28.011636 -17.614648 50.882525
v 27.651961 -17.622169 50.751983
v 28.945056 -19.551188 50.904988
v 28.945056 -18.568113 50.934761
v 28.011636 -16.646124 50.862609
v 28.470081 -17.602559 50.925112
v 28.470081 -16.629159 50.912722
v 33.738655 -16.294386 50.863399
v 32.101569 -16.445011 51.001771
v 32.344257 -17.447259 50.983741
v 34.095564 -17.298877 50.819247
v 30.524061 -16.542200 51.027878
v 30.645899 -17.534543 51.025755
v 27.651961 -16.656339 50.726137
v 27.248536 -16.665313 50.427011
v 27.247763 -17.629612 50.455040
v 40.762809 -15.039322 49.512743
v 38.901583 -15.533709 50.052455
v 39.898240 -16.452708 49.768059
v 41.923006 -15.889414 49.075424
v 37.017302 -15.881441 50.441048
v 37.810792 -16.849730 50.283960
v 43.692363 -13.589781 48.364996
v 42.376698 -14.363300 48.927500
v 43.644902 -15.131754 48.308066
v 45.038154 -14.279716 47.686471
v 35.341379 -16.120858 50.660542
v 35.900672 -17.115574 50.567678
v 28.945054 -17.588876 50.963907
v 28.945054 -16.610507 50.956673
v 28.011638 -20.531051 50.821020
v 27.651965 -20.530477 50.706311
v 50.782313 -14.042706 43.649963
v 49.993099 -15.181777 44.289536
v 51.269003 -15.752689 43.203785
v 52.054317 -14.509701 42.417659
v 48.927319 -16.296112 45.088074
v 50.140468 -16.914514 44.168657
v 28.470083 -20.532902 50.842753
v 28.011638 -21.443043 50.791113
v 28.470083 -21.444294 50.806454
v 35.081384 -20.352028 50.550720
v 33.007485 -20.480491 50.794131
v 33.205607 -21.415856 50.723514
v 35.376908 -21.294717 50.455815
v 30.979037 -20.529873 50.884849
v 31.078537 -21.451760 50.828411
v 27.651965 -21.442599 50.681620
v 27.247402 -20.531989 50.424999
v 27.247773 -21.443307 50.405568
v 45.343464 -18.403713 47.358877
v 42.852805 -19.197815 48.538043
v 43.761281 -20.040341 48.145554
v 46.392531 -19.173302 46.801559
v 40.155740 -19.774836 49.514516
v 40.873607 -20.676170 49.257747
v 47.378429 -17.393396 46.176708
v 48.508116 -18.084553 45.404739
v 37.514766 -20.137996 50.134948
v 38.005428 -21.071092 49.987851
v 28.945056 -20.533979 50.862818
v 28.945056 -21.445125 50.820379
v 53.228644 -14.944491 41.050031
v 52.460415 -16.248402 41.957206
v 52.653083 -16.335782 41.759721
v 53.417084 -15.038737 40.814637
v 51.304576 -17.503784 43.146736
v 51.494730 -17.616578 42.969598
v 28.470083 -22.355631 50.768799
v 28.470083 -22.508267 50.762570
v 35.671369 -22.237584 50.359300
v 33.402925 -22.351272 50.651385
v 33.436039 -22.507932 50.639427
v 35.720763 -22.395473 50.343259
v 31.177602 -22.373587 50.770110
v 31.194232 -22.527966 50.760395
v 47.437762 -19.944911 46.204670
v 44.666023 -20.884582 47.739199
v 44.816886 -21.026176 47.668583
v 47.614073 -20.074666 46.109161
v 41.591321 -21.578108 49.002698
v 41.711533 -21.729120 48.959835
v 49.646844 -18.779897 44.626421
v 49.837207 -18.895839 44.497757
v 38.495240 -22.004382 49.839086
v 38.577345 -22.160672 49.814298
v 28.945056 -22.356201 50.776570
v 28.945056 -22.508800 50.769328
v 46.788772 -12.577479 46.827174
v 45.967289 -13.489433 47.253012
v 42.329849 -12.908653 48.891715
v 27.249375 -15.703779 50.371437
v 27.250354 -14.766842 50.258233
v 27.250570 -14.602558 50.227224
v 27.248069 -22.354658 50.385295
v 27.248106 -22.507302 50.381972
v 53.775487 -13.643612 40.305800
v 53.969273 -13.711200 40.057546
v 52.603466 -13.302159 41.783742
v 51.331152 -12.933072 43.124488
v 50.070250 -12.557287 44.372252
v 44.555296 -12.876492 47.999746
v 32.311262 -9.636246 47.800838
v 32.965963 -9.388697 47.914288
v 32.445868 -9.058573 47.605528
v 31.863821 -9.287794 47.495431
v 31.850913 -8.678508 47.206892
v 32.268857 -8.493457 47.299831
v 32.219944 -8.473695 47.213479
v 31.805468 -8.657195 47.115817
v 32.587067 -8.346174 47.433092
v 32.536351 -8.329869 47.346904
v 33.492775 -9.140350 48.002227
v 32.910423 -8.830507 47.702855
v 33.915398 -8.943547 48.091120
v 33.275766 -8.663524 47.797738
v 40.545614 -12.057565 49.420251
v 41.363524 -11.573840 49.200459
v 40.338998 -11.156194 49.236893
v 39.593515 -11.588723 49.404180
v 31.332263 -8.885343 47.101333
v 31.291836 -8.862973 47.007165
v 31.416380 -8.939341 47.190009
v 31.942927 -8.728449 47.296761
v 32.367018 -8.539137 47.388985
v 36.611223 -13.448935 50.270132
v 38.083320 -13.084229 50.001933
v 37.336943 -12.523372 49.835822
v 35.983426 -12.867902 50.034492
v 39.402452 -12.607850 49.707739
v 38.544734 -12.088299 49.617856
v 35.137878 -10.910381 48.994764
v 34.136453 -11.204213 49.026235
v 34.746443 -11.742931 49.400157
v 35.864500 -11.433587 49.320883
v 36.027608 -10.563873 48.959999
v 36.858601 -11.062373 49.233540
v 36.723213 -10.224886 48.931903
v 35.801307 -9.777979 48.687919
v 35.184083 -10.074344 48.670753
v 38.653423 -11.116218 49.301720
v 39.231912 -10.706660 49.187696
v 38.234347 -10.326747 49.092858
v 37.646418 -10.674369 49.158729
v 36.598341 -11.972342 49.598037
v 35.362923 -12.298800 49.733593
v 37.698512 -11.571147 49.449063
v 33.687708 -9.882514 48.296979
v 32.916808 -10.144476 48.242829
v 33.524667 -10.668002 48.645614
v 34.411722 -10.391146 48.655673
v 34.309899 -9.608910 48.352077
v 34.825389 -9.368409 48.408060
v 42.715376 -10.483664 48.743739
v 42.125904 -11.014555 48.964589
v 42.322730 -11.078701 48.948719
v 42.920896 -10.534983 48.719204
v 38.218488 -13.185803 50.032019
v 39.557786 -12.701944 49.724026
v 40.718042 -12.142476 49.423172
v 35.217249 -8.098774 48.368542
v 35.352619 -7.935118 48.375024
v 34.549711 -7.786746 48.203534
v 34.417753 -7.951316 48.187374
v 33.520171 -7.785595 47.914608
v 33.636515 -7.674616 47.939366
v 33.610040 -7.613909 47.903015
v 33.453551 -7.775026 47.851517
v 33.618265 -7.803858 47.977059
v 33.746810 -7.638378 48.002920
v 33.367765 -7.896185 47.850489
v 33.476093 -7.924676 47.917864
v 43.494967 -9.461526 48.378042
v 43.548697 -9.373662 48.210441
v 42.379768 -9.152763 48.417671
v 42.330654 -9.241697 48.582165
v 33.749008 -7.541156 47.934121
v 34.557001 -7.690575 48.109217
v 42.040264 -9.604175 48.733949
v 43.193509 -9.848517 48.561743
v 43.367298 -9.625294 48.456221
v 42.199464 -9.405371 48.650636
v 41.580529 -10.200300 48.879183
v 38.699945 -8.747977 48.724203
v 38.532731 -8.904122 48.751994
v 39.705088 -9.122651 48.815212
v 39.867942 -8.966502 48.775553
v 38.838384 -8.585331 48.687449
v 40.004806 -8.803688 48.726632
v 38.873703 -8.494240 48.532284
v 40.045132 -8.713402 48.565513
v 41.034267 -9.185661 48.745758
v 40.860069 -9.341810 48.795036
v 41.168821 -9.022519 48.686518
v 41.213916 -8.932986 48.522352
v 36.369843 -8.313038 48.535182
v 36.191863 -8.469180 48.529035
v 37.360487 -8.686066 48.662855
v 37.533079 -8.529921 48.649995
v 36.508982 -8.150239 48.526547
v 37.672152 -8.367263 48.626697
v 37.700889 -8.275066 48.478692
v 36.530477 -8.056783 48.389672
v 35.033324 -8.254920 48.337682
v 35.364990 -7.839997 48.255152
v 33.588768 -8.519270 47.897919
v 32.942512 -8.275752 47.649978
v 32.696434 -8.391694 47.519683
v 43.705833 -9.501342 48.341065
v 43.760390 -9.413664 48.172920
v 43.402364 -9.892766 48.530570
v 43.578793 -9.665121 48.421009
v 34.824551 -8.432161 48.302642
v 34.250506 -8.091998 48.132679
v 34.076714 -8.238186 48.075846
v 33.215360 -8.006774 47.786361
v 33.306130 -7.886123 47.779172
v 33.158709 -7.997223 47.706834
v 33.057363 -8.102764 47.707139
v 33.179791 -8.146678 47.783970
v 33.333921 -8.045495 47.858669
v 38.078659 -9.328146 48.827438
v 37.742024 -9.589505 48.865444
v 38.793379 -9.936426 49.013710
v 39.171645 -9.634123 48.945143
v 35.901320 -8.724083 48.518984
v 35.647844 -8.905989 48.499531
v 36.692062 -9.244252 48.698961
v 36.987418 -9.023577 48.690646
v 39.781665 -10.252327 49.067012
v 40.239425 -9.898138 48.970579
v 34.611338 -8.576822 48.257707
v 41.039174 -10.660380 49.052424
v 32.825490 -8.228884 47.568104
v 32.774084 -8.215797 47.481759
v 34.268667 -8.769926 48.175498
v 37.244355 -9.925403 48.904202
v 36.255748 -9.526060 48.697776
v 35.244164 -9.150569 48.456757
v 41.549062 -11.649467 49.193873
v 33.890874 -8.360077 48.006593
v 33.003879 -8.092460 47.622903
v 43.136184 -10.588303 48.561937
v 42.536077 -11.147622 48.794067
v 43.973883 -11.627134 48.243209
v 44.581794 -10.967452 47.966241
v 40.928123 -12.241498 49.297406
v 39.759667 -12.818385 49.632302
v 41.082849 -13.596777 49.330338
v 42.329849 -12.908653 48.891715
v 42.920896 -10.534991 48.659011
v 42.322730 -11.078712 48.888518
v 40.718042 -12.142483 49.362994
v 39.557786 -12.701951 49.663848
v 38.218484 -13.185814 49.971840
v 38.401992 -13.318315 49.972228
v 45.345557 -12.073484 47.634600
v 44.555296 -12.876492 47.999746
v 45.967289 -13.489433 47.253012
v 46.788772 -12.577479 46.827174
v 45.994924 -11.362527 47.280072
v 43.922049 -9.541821 48.184796
v 43.796801 -9.705391 48.262759
v 45.259797 -9.989374 47.642051
v 45.375363 -9.823896 47.583065
v 43.617905 -9.939183 48.372700
v 45.061157 -10.277808 47.749161
v 43.705833 -9.501350 48.280879
v 43.578793 -9.665128 48.360838
v 43.402364 -9.892777 48.470392
v 49.435676 -10.615003 45.080787
v 49.355434 -10.788475 45.127547
v 50.724761 -11.060209 43.942853
v 50.796588 -10.885195 43.892591
v 49.130620 -11.281279 45.271843
v 50.494329 -11.622787 44.101543
v 48.700945 -12.161099 45.541345
v 50.070250 -12.557287 44.372252
v 46.797537 -10.098838 46.926117
v 46.694544 -10.268339 46.971238
v 48.068756 -10.535517 46.118705
v 48.161955 -10.364432 46.076326
v 46.477654 -10.626280 47.072409
v 47.843059 -10.960475 46.231537
v 47.386353 -11.770059 46.465224
v 52.011905 -11.129015 42.552962
v 51.949025 -11.305679 42.605690
v 53.213340 -11.554495 41.080459
v 53.268017 -11.377417 41.007570
v 51.726164 -11.931781 42.792558
v 52.994644 -12.219542 41.334464
v 51.331152 -12.933072 43.124488
v 52.603466 -13.302159 41.783742
v 54.448211 -11.601066 39.388484
v 54.389437 -11.768558 39.468086
v 54.583871 -11.821890 39.196818
v 54.639080 -11.655362 39.104908
v 54.156841 -12.496216 39.792507
v 54.352426 -12.544417 39.540252
v 53.775487 -13.643612 40.305800
v 53.969273 -13.711200 40.057546
v 48.114152 -13.067391 45.930623
v 49.488404 -13.566111 44.836006
v 41.761023 -11.734508 49.049853
v 43.188018 -12.313910 48.567592
v 41.549062 -11.649478 49.133695
v 43.692363 -13.589781 48.364996
vn 0.0628 0.4186 0.9060
vn -0.1157 0.0799 0.9901
vn -0.1271 0.1625 0.9785
vn -0.2566 0.1618 0.9529
vn -0.2487 0.0825 0.9651
vn 0.0662 0.1581 0.9852
vn 0.0185 0.1544 0.9878
vn 0.0353 0.0654 0.9972
vn 0.0865 0.0656 0.9941
vn -0.0402 0.1545 0.9872
vn -0.0269 0.0668 0.9974
vn -0.4836 0.1469 0.8629
vn -0.4842 0.0776 0.8715
vn 0.1879 0.1474 0.9711
vn 0.1385 0.1948 0.9710
vn 0.1911 0.0794 0.9783
vn 0.2484 0.0750 0.9658
vn 0.1060 0.1983 0.9744
vn 0.1371 0.0695 0.9881
vn 0.2416 0.1018 0.9650
vn 0.3031 0.0584 0.9512
vn 0.0895 0.1738 0.9807
vn 0.1094 0.0623 0.9920
vn -0.1513 -0.0321 0.9880
vn -0.1556 -0.0333 0.9873
vn -0.4258 -0.0252 0.9045
vn -0.4243 -0.0242 0.9052
vn -0.0801 0.0733 0.9941
vn -0.0902 0.1578 0.9833
vn -0.1313 0.2108 0.9687
vn -0.2636 0.2102 0.9415
vn -0.4872 0.1866 0.8531
vn 0.0522 0.2117 0.9759
vn 0.0055 0.2068 0.9784
vn -0.0484 0.2063 0.9773
vn 0.1268 0.2426 0.9618
vn 0.1080 0.2742 0.9556
vn 0.0902 0.2696 0.9587
vn 0.0773 0.2324 0.9695
vn -0.0936 0.2077 0.9737
vn 0.5723 -0.0707 0.8170
vn 0.5503 -0.0658 0.8324
vn 0.6002 -0.0619 0.7975
vn 0.6409 -0.0552 0.7656
vn 0.5117 -0.0585 0.8572
vn 0.5631 -0.0459 0.8251
vn -0.2065 -0.0170 0.9783
vn -0.1934 -0.0234 0.9808
vn -0.0599 -0.0300 0.9978
vn -0.0736 -0.0236 0.9970
vn 0.1293 -0.0423 0.9907
vn 0.0695 -0.0430 0.9967
vn 0.0766 -0.0488 0.9959
vn 0.1382 -0.0467 0.9893
vn 0.0038 -0.0410 0.9992
vn 0.0111 -0.0474 0.9988
vn -0.4531 -0.0164 0.8913
vn -0.4627 -0.0103 0.8864
vn -0.5852 -0.0071 0.8109
vn -0.5781 -0.0128 0.8159
vn 0.4077 -0.0379 0.9123
vn 0.3305 -0.0514 0.9424
vn 0.3637 -0.0448 0.9304
vn 0.4430 -0.0373 0.8958
vn 0.2353 -0.0606 0.9700
vn 0.2655 -0.0561 0.9625
vn 0.4632 -0.0431 0.8852
vn 0.5088 -0.0380 0.8600
vn 0.1674 -0.0552 0.9843
vn 0.1859 -0.0562 0.9810
vn -0.2207 0.0015 0.9753
vn -0.4717 0.0065 0.8818
vn -0.0369 -0.0388 0.9986
vn -0.0474 -0.0323 0.9984
vn -0.2356 0.0350 0.9712
vn -0.0876 -0.0050 0.9961
vn -0.1020 0.0297 0.9943
vn 0.1038 0.0112 0.9945
vn 0.0495 0.0117 0.9987
vn 0.0608 -0.0245 0.9978
vn 0.1181 -0.0248 0.9927
vn -0.0149 0.0139 0.9998
vn -0.0047 -0.0222 0.9997
vn -0.4800 0.0361 0.8765
vn -0.5951 0.0347 0.8029
vn -0.5914 0.0082 0.8063
vn 0.3116 0.0137 0.9501
vn 0.2412 0.0095 0.9704
vn 0.2895 -0.0371 0.9565
vn 0.3685 -0.0326 0.9290
vn 0.1676 -0.0022 0.9858
vn 0.2010 -0.0435 0.9786
vn 0.4113 -0.0292 0.9110
vn 0.3675 0.0026 0.9300
vn 0.4215 -0.0299 0.9063
vn 0.4506 -0.0437 0.8916
vn 0.1283 -0.0005 0.9917
vn 0.1480 -0.0376 0.9883
vn -0.0581 -0.0136 0.9982
vn -0.0692 0.0218 0.9974
vn -0.1796 -0.0310 0.9833
vn -0.4437 -0.0231 0.8959
vn 0.6790 -0.0163 0.7340
vn 0.6353 -0.0260 0.7718
vn 0.6849 -0.0051 0.7286
vn 0.7273 0.0040 0.6863
vn 0.5934 -0.0130 0.8048
vn 0.6316 0.0081 0.7753
vn -0.0460 -0.0379 0.9982
vn -0.1661 -0.0336 0.9855
vn -0.0323 -0.0408 0.9986
vn 0.1460 -0.0533 0.9879
vn 0.0827 -0.0564 0.9950
vn 0.0877 -0.0585 0.9944
vn 0.1523 -0.0543 0.9868
vn 0.0176 -0.0556 0.9983
vn 0.0231 -0.0583 0.9980
vn -0.4338 -0.0253 0.9006
vn -0.5709 -0.0188 0.8208
vn -0.5638 -0.0207 0.8256
vn 0.4687 -0.0063 0.8833
vn 0.3883 -0.0223 0.9212
vn 0.4079 -0.0012 0.9130
vn 0.4968 0.0146 0.8677
vn 0.2903 -0.0470 0.9558
vn 0.3077 -0.0301 0.9510
vn 0.5407 -0.0023 0.8412
vn 0.5722 0.0216 0.8198
vn 0.2027 -0.0568 0.9776
vn 0.2153 -0.0507 0.9752
vn -0.0266 -0.0469 0.9985
vn -0.0167 -0.0498 0.9986
vn 0.7649 0.0140 0.6440
vn 0.7241 0.0100 0.6896
vn 0.7393 0.0234 0.6730
vn 0.7755 0.0223 0.6310
vn 0.6693 0.0249 0.7426
vn 0.6875 0.0361 0.7253
vn -0.0218 -0.0399 0.9990
vn -0.0180 -0.0380 0.9991
vn 0.1566 -0.0518 0.9863
vn 0.0912 -0.0575 0.9942
vn 0.0970 -0.0554 0.9937
vn 0.1621 -0.0487 0.9856
vn 0.0272 -0.0576 0.9980
vn 0.0302 -0.0564 0.9980
vn 0.5141 0.0410 0.8567
vn 0.4250 0.0084 0.9052
vn 0.4487 0.0252 0.8933
vn 0.5330 0.0646 0.8436
vn 0.3204 -0.0210 0.9471
vn 0.3449 -0.0126 0.9386
vn 0.5939 0.0510 0.8029
vn 0.6208 0.0629 0.7814
vn 0.2233 -0.0439 0.9738
vn 0.2360 -0.0383 0.9710
vn -0.0092 -0.0487 0.9988
vn -0.0064 -0.0466 0.9989
vn 0.5315 -0.0550 0.8453
vn 0.4917 -0.0509 0.8693
vn 0.3467 0.0342 0.9373
vn -0.5953 0.0727 0.8002
vn -0.5913 0.1333 0.7954
vn -0.5877 0.1676 0.7915
vn -0.5582 -0.0203 0.8295
vn -0.5561 -0.0193 0.8309
vn 0.7823 0.0182 0.6227
vn 0.7875 0.0225 0.6159
vn 0.7517 0.0115 0.6594
vn 0.7029 -0.0015 0.7113
vn 0.6850 -0.0256 0.7281
vn 0.4404 -0.0486 0.8965
vn -0.2831 0.3783 0.8813
vn -0.2795 0.3479 0.8949
vn -0.3180 0.3399 0.8851
vn -0.3096 0.3603 0.8799
vn -0.4179 0.6975 0.5821
vn -0.4741 0.6481 0.5960
vn -0.4699 0.7722 0.4276
vn -0.4245 0.8091 0.4063
vn -0.5558 0.5470 0.6260
vn -0.5386 0.7188 0.4397
vn -0.2873 0.2695 0.9191
vn -0.3449 0.2587 0.9023
vn -0.2904 0.1939 0.9371
vn -0.3608 0.1405 0.9220
vn 0.1064 0.2550 0.9611
vn 0.1254 0.2226 0.9668
vn 0.0890 0.2246 0.9704
vn 0.0680 0.2622 0.9626
vn -0.4083 0.7470 0.5247
vn -0.4136 0.8200 0.3957
vn -0.3589 0.5088 0.7825
vn -0.3617 0.4536 0.8145
vn -0.4143 0.3723 0.8305
vn 0.0543 0.3889 0.9197
vn 0.0716 0.3480 0.9347
vn 0.0357 0.3812 0.9238
vn 0.0207 0.4203 0.9071
vn 0.0886 0.3088 0.9470
vn 0.0506 0.3187 0.9465
vn -0.1098 0.4192 0.9012
vn -0.1121 0.4542 0.8838
vn -0.0712 0.4624 0.8838
vn -0.0639 0.4235 0.9036
vn -0.1123 0.3442 0.9321
vn -0.0622 0.3521 0.9339
vn -0.1066 0.2842 0.9528
vn -0.1522 0.2471 0.9570
vn -0.1594 0.3121 0.9366
vn 0.0085 0.2788 0.9603
vn 0.0261 0.2385 0.9708
vn -0.0385 0.2517 0.9671
vn -0.0538 0.2917 0.9550
vn -0.0148 0.4093 0.9123
vn -0.0250 0.4446 0.8954
vn -0.0058 0.3410 0.9400
vn -0.2137 0.3666 0.9055
vn -0.2222 0.4102 0.8845
vn -0.1573 0.4355 0.8863
vn -0.1554 0.3933 0.9062
vn -0.2185 0.2794 0.9350
vn -0.2124 0.2065 0.9551
vn 0.1621 0.1817 0.9699
vn 0.1475 0.2139 0.9656
vn 0.1541 0.2236 0.9624
vn 0.1648 0.1798 0.9698
vn 0.0863 0.3472 0.9338
vn 0.0984 0.3065 0.9468
vn 0.1144 0.2565 0.9598
vn -0.1670 0.0793 0.9828
vn -0.0556 0.4756 0.8779
vn -0.1234 0.4233 0.8976
vn -0.2330 0.0347 0.9718
vn -0.5361 0.2833 0.7952
vn -0.5036 0.3517 0.7892
vn -0.5068 0.4028 0.7622
vn -0.6096 0.4071 0.6802
vn -0.3735 0.0932 0.9229
vn -0.2816 0.3765 0.8826
vn -0.5734 0.3173 0.7553
vn -0.3916 0.0411 0.9192
vn 0.2449 0.5876 0.7712
vn 0.2451 0.8175 0.5211
vn 0.2278 0.8150 0.5328
vn 0.2156 0.5747 0.7894
vn -0.2661 0.5559 0.7875
vn -0.0333 0.6840 0.7287
vn 0.1431 0.2020 0.9689
vn 0.1844 0.2109 0.9600
vn 0.2095 0.2816 0.9364
vn 0.1668 0.2658 0.9495
vn 0.1304 0.1847 0.9741
vn -0.0113 0.2166 0.9762
vn -0.0301 0.2042 0.9785
vn 0.0198 0.2235 0.9745
vn 0.0386 0.2406 0.9698
vn 0.0715 0.5732 0.8163
vn 0.1125 0.5877 0.8012
vn 0.1318 0.8258 0.5483
vn 0.1582 0.8315 0.5326
vn 0.0988 0.2560 0.9616
vn 0.0806 0.2083 0.9747
vn 0.1607 0.5837 0.7959
vn 0.1908 0.8243 0.5330
vn -0.0979 0.1190 0.9881
vn -0.1225 0.0973 0.9877
vn -0.0690 0.1549 0.9855
vn -0.0480 0.1672 0.9848
vn 0.0034 0.5083 0.8612
vn 0.0432 0.5405 0.8402
vn 0.1135 0.8110 0.5739
vn 0.0854 0.7928 0.6035
vn -0.2004 0.0427 0.9788
vn 0.0341 0.7591 0.6501
vn -0.3519 0.0352 0.9354
vn -0.4620 0.0471 0.8856
vn -0.4668 0.2041 0.8605
vn 0.2480 0.6664 0.7031
vn 0.2446 0.8214 0.5152
vn 0.1918 0.2414 0.9513
vn 0.2140 0.2996 0.9298
vn -0.2268 0.0582 0.9722
vn -0.2686 -0.0289 0.9628
vn -0.2947 -0.0235 0.9553
vn -0.5902 0.3536 0.7257
vn -0.6393 0.5030 0.5816
vn -0.6340 0.5758 0.5163
vn -0.6044 0.3580 0.7117
vn -0.4311 -0.0045 0.9023
vn -0.4053 0.0162 0.9140
vn -0.0500 0.2175 0.9748
vn -0.0726 0.2263 0.9713
vn -0.0201 0.2331 0.9722
vn 0.0011 0.2289 0.9734
vn -0.1440 0.1136 0.9830
vn -0.1710 0.1214 0.9778
vn -0.1140 0.1798 0.9771
vn -0.0896 0.1700 0.9814
vn 0.0466 0.2182 0.9748
vn 0.0691 0.2106 0.9751
vn -0.2575 0.0720 0.9636
vn 0.1139 0.2078 0.9715
vn -0.6049 0.4049 0.6856
vn -0.5972 0.6498 0.4703
vn -0.2810 0.1232 0.9518
vn -0.0917 0.2474 0.9646
vn -0.1357 0.2045 0.9694
vn -0.1957 0.1521 0.9688
vn 0.1332 0.2274 0.9647
vn -0.3253 -0.0158 0.9455
vn -0.6266 0.6009 0.4962
vn 0.3895 -0.0118 0.9209
vn 0.3680 -0.0211 0.9296
vn 0.3859 0.0130 0.9224
vn 0.4071 0.0072 0.9133
vn 0.2893 0.0069 0.9572
vn 0.2386 0.0679 0.9687
vn 0.2782 0.0552 0.9589
vn 0.3175 0.0236 0.9480
vn 0.3980 -0.0415 0.9164
vn 0.3709 -0.0684 0.9262
vn 0.2642 0.0090 0.9644
vn 0.2000 0.1163 0.9729
vn 0.1792 0.1510 0.9722
vn 0.4481 -0.0017 0.8940
vn 0.4100 -0.0061 0.9120
vn 0.4680 -0.0325 0.8831
vn 0.5078 -0.0147 0.8613
vn 0.4664 -0.0134 0.8845
vn 0.4074 0.0948 0.9083
vn 0.4144 0.0945 0.9052
vn 0.4152 0.0495 0.9084
vn 0.4148 0.0362 0.9092
vn 0.4079 0.0409 0.9121
vn 0.4155 0.0230 0.9093
vn 0.4232 0.1073 0.8996
vn 0.4256 0.1010 0.8993
vn 0.4127 0.0107 0.9108
vn 0.6277 -0.0803 0.7743
vn 0.6212 -0.0732 0.7802
vn 0.6865 -0.0722 0.7235
vn 0.6971 -0.0773 0.7128
vn 0.6136 -0.0648 0.7870
vn 0.6774 -0.0705 0.7322
vn 0.6028 -0.0485 0.7964
vn 0.6557 -0.0643 0.7523
vn 0.4823 -0.0451 0.8748
vn 0.4717 -0.0271 0.8814
vn 0.5564 -0.0730 0.8277
vn 0.5675 -0.0870 0.8188
vn 0.4696 -0.0288 0.8824
vn 0.5471 -0.0599 0.8349
vn 0.5356 -0.0375 0.8436
vn 0.7543 -0.0497 0.6546
vn 0.7455 -0.0562 0.6642
vn 0.7856 -0.0202 0.6184
vn 0.7937 -0.0128 0.6082
vn 0.7310 -0.0529 0.6803
vn 0.7735 -0.0213 0.6335
vn 0.7178 -0.0560 0.6940
vn 0.7590 -0.0188 0.6508
vn 0.8175 0.0081 0.5759
vn 0.8084 0.0050 0.5887
vn 0.8156 0.0157 0.5783
vn 0.8231 0.0147 0.5677
vn 0.7967 0.0013 0.6044
vn 0.7983 0.0151 0.6021
vn 0.7904 -0.0010 0.6125
vn 0.7906 0.0114 0.6123
vn 0.5876 -0.0302 0.8086
vn 0.6287 -0.0376 0.7768
vn 0.3317 -0.0267 0.9430
vn 0.3566 0.0069 0.9342
vn 0.3246 -0.0669 0.9435
vn 0.3720 -0.0003 0.9282
vt 0.819226 0.368900
vt 0.845552 0.382629
vt 0.842988 0.384375
vt 0.816274 0.370415
vt 0.740626 0.800668
vt 0.753638 0.801032
vt 0.753141 0.807290
vt 0.740261 0.806826
vt 0.758869 0.740673
vt 0.756916 0.759413
vt 0.743738 0.755374
vt 0.745791 0.734978
vt 0.755426 0.776961
vt 0.742248 0.774809
vt 0.752942 0.812554
vt 0.740096 0.811992
vt 0.772543 0.666142
vt 0.767478 0.686969
vt 0.755028 0.673460
vt 0.760823 0.650051
vt 0.763736 0.707232
vt 0.750923 0.696372
vt 0.779232 0.647303
vt 0.768769 0.629026
vt 0.760988 0.724118
vt 0.748009 0.715973
vt 0.648977 0.807058
vt 0.651030 0.807058
vt 0.651063 0.812124
vt 0.649010 0.812157
vt 0.741023 0.794278
vt 0.754101 0.794576
vt 0.755691 0.801131
vt 0.755161 0.807422
vt 0.754962 0.812720
vt 0.760955 0.741732
vt 0.759035 0.760141
vt 0.757512 0.777392
vt 0.774398 0.668559
vt 0.769497 0.689054
vt 0.765822 0.708986
vt 0.763074 0.725509
vt 0.756154 0.794642
vt 0.775821 0.523770
vt 0.762743 0.536318
vt 0.754697 0.513042
vt 0.768968 0.500195
vt 0.750757 0.551185
vt 0.741255 0.529729
vt 0.701556 0.806661
vt 0.688544 0.806727
vt 0.688544 0.800568
vt 0.701655 0.800502
vt 0.705297 0.720409
vt 0.703344 0.745507
vt 0.689735 0.742461
vt 0.691590 0.715840
vt 0.702317 0.769776
vt 0.688875 0.768286
vt 0.688544 0.811826
vt 0.701523 0.811760
vt 0.701456 0.818481
vt 0.688477 0.818481
vt 0.726719 0.600353
vt 0.718111 0.631708
vt 0.705728 0.617338
vt 0.715296 0.583036
vt 0.711985 0.663758
vt 0.698808 0.652666
vt 0.737910 0.572971
vt 0.727580 0.553436
vt 0.707913 0.693061
vt 0.694338 0.685578
vt 0.714502 0.806595
vt 0.714402 0.811694
vt 0.688577 0.794145
vt 0.701754 0.794112
vt 0.727382 0.806661
vt 0.714667 0.800436
vt 0.727646 0.800469
vt 0.732447 0.729846
vt 0.730361 0.751864
vt 0.716919 0.748553
vt 0.718939 0.724979
vt 0.729004 0.772988
vt 0.715661 0.771299
vt 0.727249 0.811793
vt 0.727216 0.818514
vt 0.714336 0.818415
vt 0.749366 0.633794
vt 0.742678 0.659752
vt 0.730361 0.645813
vt 0.737944 0.617107
vt 0.738010 0.685512
vt 0.724998 0.674651
vt 0.768868 0.591645
vt 0.758472 0.610782
vt 0.748108 0.591811
vt 0.759564 0.571348
vt 0.734765 0.708192
vt 0.721389 0.700543
vt 0.714866 0.794046
vt 0.727944 0.794112
vt 0.675531 0.806826
vt 0.675564 0.811925
vt 0.762379 0.476654
vt 0.747115 0.490461
vt 0.739301 0.467979
vt 0.755922 0.452914
vt 0.732216 0.508473
vt 0.723773 0.488011
vt 0.675465 0.800635
vt 0.663314 0.806926
vt 0.663215 0.800734
vt 0.677849 0.711370
vt 0.676094 0.739481
vt 0.663513 0.736766
vt 0.665168 0.707265
vt 0.675432 0.766829
vt 0.663016 0.765505
vt 0.663314 0.812025
vt 0.675531 0.818580
vt 0.663314 0.818647
vt 0.704006 0.565753
vt 0.693378 0.602902
vt 0.682021 0.589658
vt 0.693576 0.549827
vt 0.685663 0.641575
vt 0.673512 0.631377
vt 0.717515 0.534033
vt 0.708145 0.515658
vt 0.680730 0.678128
vt 0.668181 0.671274
vt 0.675399 0.794245
vt 0.663181 0.794311
vt 0.749863 0.428711
vt 0.732481 0.444835
vt 0.731289 0.441127
vt 0.748572 0.424672
vt 0.715793 0.467218
vt 0.714237 0.463741
vt 0.650964 0.800833
vt 0.648911 0.800867
vt 0.652454 0.703159
vt 0.650931 0.734051
vt 0.648812 0.733587
vt 0.650335 0.702497
vt 0.650600 0.764181
vt 0.648514 0.763949
vt 0.683147 0.533703
vt 0.670631 0.576381
vt 0.668711 0.574163
vt 0.681392 0.531021
vt 0.661360 0.621179
vt 0.659341 0.619490
vt 0.698708 0.497149
vt 0.697152 0.494070
vt 0.655632 0.664420
vt 0.653513 0.663295
vt 0.650898 0.794410
vt 0.648845 0.794410
vt 0.782510 0.545225
vt 0.770226 0.557608
vt 0.778007 0.611312
vt 0.740063 0.818713
vt 0.752711 0.819276
vt 0.754929 0.819474
vt 0.651063 0.818713
vt 0.649010 0.818713
vt 0.767213 0.416162
vt 0.766253 0.411924
vt 0.772047 0.441491
vt 0.777212 0.466291
vt 0.782477 0.490097
vt 0.778470 0.579096
vt 0.945320 0.315995
vt 0.933472 0.309239
vt 0.945662 0.303935
vt 0.956113 0.310328
vt 0.960219 0.297969
vt 0.952626 0.292983
vt 0.954448 0.292213
vt 0.962009 0.297032
vt 0.946195 0.289451
vt 0.948079 0.288846
vt 0.923944 0.303011
vt 0.937223 0.298225
vt 0.916111 0.298177
vt 0.930331 0.294136
vt 0.776494 0.338126
vt 0.762741 0.325232
vt 0.783863 0.321482
vt 0.796395 0.332930
vt 0.969516 0.303879
vt 0.971255 0.302829
vt 0.967153 0.304921
vt 0.957709 0.298904
vt 0.950001 0.293795
vt 0.845552 0.382629
vt 0.819226 0.368900
vt 0.835546 0.360549
vt 0.859713 0.373062
vt 0.796119 0.353777
vt 0.814388 0.346972
vt 0.884198 0.334369
vt 0.902009 0.343739
vt 0.887893 0.353458
vt 0.867988 0.343128
vt 0.868522 0.324626
vt 0.850522 0.332251
vt 0.856417 0.315809
vt 0.875922 0.309625
vt 0.886815 0.317175
vt 0.816068 0.327163
vt 0.806603 0.317011
vt 0.827010 0.313138
vt 0.836943 0.321944
vt 0.851776 0.351853
vt 0.873801 0.363232
vt 0.832485 0.339689
vt 0.916901 0.317304
vt 0.930630 0.324931
vt 0.916262 0.334201
vt 0.900497 0.325722
vt 0.905788 0.310221
vt 0.896505 0.304189
vt 0.741046 0.298053
vt 0.750304 0.311050
vt 0.746299 0.311425
vt 0.736917 0.298104
vt 0.816274 0.370415
vt 0.792815 0.355011
vt 0.772893 0.339068
vt 0.892480 0.278761
vt 0.890317 0.275267
vt 0.906340 0.274387
vt 0.908509 0.277875
vt 0.926891 0.276576
vt 0.924856 0.274120
vt 0.925710 0.272931
vt 0.928667 0.276403
vt 0.924642 0.276765
vt 0.922447 0.273354
vt 0.929867 0.279051
vt 0.927362 0.279390
vt 0.730151 0.274496
vt 0.729129 0.270833
vt 0.752458 0.272263
vt 0.753308 0.275897
vt 0.923032 0.271123
vt 0.906785 0.271811
vt 0.757466 0.284360
vt 0.734486 0.283665
vt 0.731983 0.278381
vt 0.755185 0.279719
vt 0.763844 0.297719
vt 0.823830 0.280655
vt 0.826466 0.284257
vt 0.803445 0.284429
vt 0.800928 0.280786
vt 0.821771 0.276996
vt 0.798928 0.277070
vt 0.821506 0.273456
vt 0.798492 0.273441
vt 0.778080 0.280436
vt 0.780792 0.284177
vt 0.776138 0.276660
vt 0.775495 0.272995
vt 0.869665 0.279711
vt 0.872621 0.283216
vt 0.849533 0.283888
vt 0.846752 0.280334
vt 0.867502 0.276170
vt 0.844646 0.276738
vt 0.844543 0.273321
vt 0.867588 0.272939
vt 0.895669 0.282226
vt 0.890646 0.272321
vt 0.924259 0.290685
vt 0.938183 0.287390
vt 0.943409 0.290161
vt 0.725948 0.274239
vt 0.724909 0.270567
vt 0.730314 0.283537
vt 0.727774 0.278131
vt 0.899305 0.286151
vt 0.911581 0.280981
vt 0.914793 0.284191
vt 0.932818 0.281551
vt 0.931688 0.278832
vt 0.934692 0.281264
vt 0.936020 0.283789
vt 0.933160 0.284333
vt 0.930078 0.282022
vt 0.833629 0.294030
vt 0.839142 0.300213
vt 0.817791 0.303587
vt 0.811705 0.296352
vt 0.877465 0.288926
vt 0.881842 0.293113
vt 0.860508 0.296709
vt 0.855560 0.291559
vt 0.797848 0.306107
vt 0.790479 0.297484
vt 0.903156 0.289455
vt 0.772414 0.308960
vt 0.941034 0.286727
vt 0.942944 0.286274
vt 0.909505 0.293992
vt 0.847488 0.308335
vt 0.867988 0.303435
vt 0.888985 0.298890
vt 0.758917 0.325911
vt 0.918366 0.286961
vt 0.937920 0.283451
vt 0.809196 0.599690
vt 0.801680 0.608332
vt 0.795257 0.587606
vt 0.804130 0.578666
vt 0.786979 0.630946
vt 0.779232 0.647303
vt 0.768769 0.629026
vt 0.778007 0.611312
vt 0.809925 0.602869
vt 0.802607 0.611478
vt 0.788304 0.633926
vt 0.780821 0.650051
vt 0.774398 0.668559
vt 0.772543 0.666142
vt 0.789264 0.567441
vt 0.778470 0.579096
vt 0.770226 0.557608
vt 0.782510 0.545225
vt 0.798833 0.557509
vt 0.823334 0.588003
vt 0.821116 0.589956
vt 0.817308 0.568600
vt 0.819526 0.566879
vt 0.817937 0.592771
vt 0.813401 0.571613
vt 0.823864 0.591181
vt 0.821645 0.593168
vt 0.818566 0.595949
vt 0.808766 0.502579
vt 0.806415 0.503837
vt 0.802607 0.479568
vt 0.804958 0.478376
vt 0.799826 0.507446
vt 0.795058 0.483342
vt 0.788006 0.514267
vt 0.782477 0.490097
vt 0.815884 0.545821
vt 0.813600 0.547311
vt 0.809958 0.525591
vt 0.812275 0.524233
vt 0.808766 0.550522
vt 0.804230 0.528968
vt 0.793336 0.535855
vt 0.801415 0.454173
vt 0.799031 0.455298
vt 0.795422 0.428711
vt 0.797773 0.427486
vt 0.790655 0.459271
vt 0.786516 0.433313
vt 0.777212 0.466291
vt 0.772047 0.441491
vt 0.794495 0.400568
vt 0.792244 0.401925
vt 0.791482 0.397455
vt 0.793701 0.395998
vt 0.782543 0.407421
vt 0.781847 0.403117
vt 0.767213 0.416162
vt 0.766253 0.411924
vt 0.775821 0.523770
vt 0.768968 0.500195
vt 0.793800 0.619292
vt 0.786019 0.598995
vt 0.794926 0.622338
vt 0.768868 0.591645
s 0
f 1/1/1 2/2/1 3/3/1 4/4/1
f 5/5/2 6/6/3 7/7/4 8/8/5
f 9/9/6 10/10/7 11/11/8 12/12/9
f 10/10/7 13/13/10 14/14/11 11/11/8
f 7/7/4 15/15/12 16/16/13 8/8/5
f 17/17/14 18/18/15 19/19/16 20/20/17
f 18/18/15 21/21/18 22/22/19 19/19/16
f 23/23/20 17/17/14 20/20/17 24/24/21
f 21/21/18 25/25/22 26/26/23 22/22/19
f 25/25/22 9/9/6 12/12/9 26/26/23
f 27/27/24 28/28/25 29/29/26 30/30/27
f 31/31/28 32/32/29 6/6/3 5/5/2
f 6/6/3 33/33/30 34/34/31 7/7/4
f 34/34/31 35/35/32 15/15/12 7/7/4
f 36/36/33 37/37/34 10/10/7 9/9/6
f 37/37/34 38/38/35 13/13/10 10/10/7
f 39/39/36 40/40/37 18/18/15 17/17/14
f 40/40/37 41/41/38 21/21/18 18/18/15
f 41/41/38 42/42/39 25/25/22 21/21/18
f 42/42/39 36/36/33 9/9/6 25/25/22
f 43/43/40 33/33/30 6/6/3 32/32/29
f 44/44/41 45/45/42 46/46/43 47/47/44
f 45/45/42 48/48/45 49/49/46 46/46/43
f 50/50/47 51/51/48 52/52/49 53/53/50
f 54/54/51 55/55/52 56/56/53 57/57/54
f 55/55/52 58/58/55 59/59/56 56/56/53
f 60/60/57 61/61/58 62/62/59 63/63/60
f 64/64/61 65/65/62 66/66/63 67/67/64
f 65/65/62 68/68/65 69/69/66 66/66/63
f 48/48/45 70/70/67 71/71/68 49/49/46
f 70/70/67 64/64/61 67/67/64 71/71/68
f 68/68/65 72/72/69 73/73/70 69/69/66
f 72/72/69 54/54/51 57/57/54 73/73/70
f 50/50/47 74/74/71 75/75/72 61/61/58
f 53/53/50 52/52/49 76/76/73 77/77/74
f 78/78/75 74/74/71 79/79/76 80/80/77
f 81/81/78 82/82/79 83/83/80 84/84/81
f 82/82/79 85/85/82 86/86/83 83/83/80
f 75/75/72 87/87/84 88/88/85 89/89/86
f 90/90/87 91/91/88 92/92/89 93/93/90
f 91/91/88 94/94/91 95/95/92 92/92/89
f 96/96/93 97/97/94 98/98/95 99/99/96
f 97/97/94 90/90/87 93/93/90 98/98/95
f 94/94/91 100/100/97 101/101/98 95/95/92
f 100/100/97 81/81/78 84/84/81 101/101/98
f 80/80/77 79/79/76 102/102/99 103/103/100
f 87/87/84 78/78/75 8/8/5 16/16/13
f 104/104/101 51/51/48 60/60/57 105/105/102
f 106/106/103 107/107/104 108/108/105 109/109/106
f 107/107/104 110/110/107 111/111/108 108/108/105
f 112/112/109 104/104/101 113/113/110 114/114/111
f 115/115/112 116/116/113 117/117/114 118/118/115
f 116/116/113 119/119/116 120/120/117 117/117/114
f 121/121/118 105/105/102 122/122/119 123/123/120
f 124/124/121 125/125/122 126/126/123 127/127/124
f 125/125/122 128/128/125 129/129/126 126/126/123
f 110/110/107 130/130/127 131/131/128 111/111/108
f 130/130/127 124/124/121 127/127/124 131/131/128
f 128/128/125 132/132/129 133/133/130 129/129/126
f 132/132/129 115/115/112 118/118/115 133/133/130
f 134/134/131 112/112/109 114/114/111 135/135/132
f 28/28/25 113/113/110 121/121/118 29/29/26
f 136/136/133 137/137/134 138/138/135 139/139/136
f 137/137/134 140/140/137 141/141/138 138/138/135
f 142/142/139 28/28/25 27/27/24 143/143/140
f 144/144/141 145/145/142 146/146/143 147/147/144
f 145/145/142 148/148/145 149/149/146 146/146/143
f 150/150/147 151/151/148 152/152/149 153/153/150
f 151/151/148 154/154/151 155/155/152 152/152/149
f 140/140/137 156/156/153 157/157/154 141/141/138
f 156/156/153 150/150/147 153/153/150 157/157/154
f 154/154/151 158/158/155 159/159/156 155/155/152
f 158/158/155 144/144/141 147/147/144 159/159/156
f 160/160/157 142/142/139 143/143/140 161/161/158
f 47/47/44 46/46/43 107/107/104 106/106/103
f 46/46/43 49/49/46 110/110/107 107/107/104
f 112/112/109 52/52/49 51/51/48 104/104/101
f 57/57/54 56/56/53 116/116/113 115/115/112
f 56/56/53 59/59/56 119/119/116 116/116/113
f 67/67/64 66/66/63 125/125/122 124/124/121
f 66/66/63 69/69/66 128/128/125 125/125/122
f 49/49/46 71/71/68 130/130/127 110/110/107
f 71/71/68 67/67/64 124/124/121 130/130/127
f 69/69/66 73/73/70 132/132/129 128/128/125
f 73/73/70 57/57/54 115/115/112 132/132/129
f 134/134/131 76/76/73 52/52/49 112/112/109
f 109/109/106 108/108/105 137/137/134 136/136/133
f 108/108/105 111/111/108 140/140/137 137/137/134
f 142/142/139 114/114/111 113/113/110 28/28/25
f 118/118/115 117/117/114 145/145/142 144/144/141
f 117/117/114 120/120/117 148/148/145 145/145/142
f 127/127/124 126/126/123 151/151/148 150/150/147
f 126/126/123 129/129/126 154/154/151 151/151/148
f 111/111/108 131/131/128 156/156/153 140/140/137
f 131/131/128 127/127/124 150/150/147 156/156/153
f 129/129/126 133/133/130 158/158/155 154/154/151
f 133/133/130 118/118/115 144/144/141 158/158/155
f 160/160/157 135/135/132 114/114/111 142/142/139
f 162/162/159 163/163/160 45/45/42 44/44/41
f 53/53/50 79/79/76 74/74/71 50/50/47
f 84/84/81 83/83/80 55/55/52 54/54/51
f 83/83/80 86/86/83 58/58/55 55/55/52
f 93/93/90 92/92/89 65/65/62 64/64/61
f 92/92/89 95/95/92 68/68/65 65/65/62
f 99/99/96 98/98/95 70/70/67 48/48/45
f 98/98/95 93/93/90 64/64/61 70/70/67
f 95/95/92 101/101/98 72/72/69 68/68/65
f 101/101/98 84/84/81 54/54/51 72/72/69
f 77/77/74 102/102/99 79/79/76 53/53/50
f 80/80/77 5/5/2 8/8/5 78/78/75
f 12/12/9 11/11/8 82/82/79 81/81/78
f 11/11/8 14/14/11 85/85/82 82/82/79
f 20/20/17 19/19/16 91/91/88 90/90/87
f 19/19/16 22/22/19 94/94/91 91/91/88
f 164/164/161 24/24/21 97/97/94 96/96/93
f 24/24/21 20/20/17 90/90/87 97/97/94
f 22/22/19 26/26/23 100/100/97 94/94/91
f 26/26/23 12/12/9 81/81/78 100/100/97
f 103/103/100 31/31/28 5/5/2 80/80/77
f 165/165/162 16/16/13 15/15/12 166/166/163
f 166/166/163 15/15/12 35/35/32 167/167/164
f 61/61/58 60/60/57 51/51/48 50/50/47
f 87/87/84 75/75/72 74/74/71 78/78/75
f 105/105/102 121/121/118 113/113/110 104/104/101
f 31/31/28 14/14/11 13/13/10 32/32/29
f 32/32/29 13/13/10 38/38/35 43/43/40
f 76/76/73 59/59/56 58/58/55 77/77/74
f 102/102/99 86/86/83 85/85/82 103/103/100
f 135/135/132 120/120/117 119/119/116 134/134/131
f 161/161/158 149/149/146 148/148/145 160/160/157
f 134/134/131 119/119/116 59/59/56 76/76/73
f 160/160/157 148/148/145 120/120/117 135/135/132
f 77/77/74 58/58/55 86/86/83 102/102/99
f 103/103/100 85/85/82 14/14/11 31/31/28
f 168/168/165 169/169/166 30/30/27 29/29/26
f 89/89/86 62/62/59 61/61/58 75/75/72
f 16/16/13 165/165/162 88/88/85 87/87/84
f 63/63/60 122/122/119 105/105/102 60/60/57
f 123/123/120 168/168/165 29/29/26 121/121/118
f 170/170/167 136/136/133 139/139/136 171/171/168
f 172/172/169 109/109/106 136/136/133 170/170/167
f 173/173/170 106/106/103 109/109/106 172/172/169
f 174/174/171 47/47/44 106/106/103 173/173/170
f 175/175/172 96/96/93 99/99/96 163/163/160
f 163/163/160 99/99/96 48/48/45 45/45/42
f 176/176/173 177/177/174 178/178/175 179/179/176
f 180/180/177 181/181/178 182/182/179 183/183/180
f 181/181/178 184/184/181 185/185/182 182/182/179
f 177/177/174 186/186/183 187/187/184 178/178/175
f 186/186/183 188/188/185 189/189/186 187/187/184
f 190/190/187 191/191/188 192/192/189 193/193/190
f 194/194/191 180/180/177 183/183/180 195/195/192
f 180/180/177 194/194/191 196/196/193 197/197/194
f 181/181/178 180/180/177 197/197/194 198/198/195
f 199/199/196 200/200/197 201/201/198 202/202/199
f 200/200/197 203/203/200 204/204/201 201/201/198
f 203/203/200 190/190/187 193/193/190 204/204/201
f 205/205/202 206/206/203 207/207/204 208/208/205
f 209/209/206 205/205/202 208/208/205 210/210/207
f 209/209/206 211/211/208 212/212/209 213/213/210
f 214/214/211 215/215/212 216/216/213 217/217/214
f 218/218/215 219/219/216 202/202/199 201/201/198
f 220/220/217 218/218/215 201/201/198 204/204/201
f 214/214/211 220/220/217 204/204/201 193/193/190
f 221/221/218 222/222/219 223/223/220 224/224/221
f 225/225/222 221/221/218 224/224/221 213/213/210
f 225/225/222 226/226/223 188/188/185 186/186/183
f 208/208/205 207/207/204 219/219/216 218/218/215
f 210/210/207 208/208/205 218/218/215 220/220/217
f 177/177/174 176/176/173 222/222/219 221/221/218
f 186/186/183 177/177/174 221/221/218 225/225/222
f 224/224/221 223/223/220 206/206/203 205/205/202
f 213/213/210 224/224/221 205/205/202 209/209/206
f 179/179/176 178/178/175 197/197/194 196/196/193
f 178/178/175 187/187/184 198/198/195 197/197/194
f 227/227/224 228/228/225 229/229/226 230/230/227
f 203/203/200 200/200/197 231/231/228 232/232/229
f 190/190/187 203/203/200 232/232/229 233/233/230
f 234/234/231 235/235/232 236/236/233 237/237/234
f 238/238/235 239/239/236 240/240/237 241/241/238
f 239/239/236 238/238/235 242/242/239 243/243/240
f 238/238/235 244/244/241 245/245/242 242/242/239
f 246/246/243 247/247/244 248/248/245 249/249/246
f 239/239/236 243/243/240 250/250/247 240/240/237
f 243/243/240 236/236/233 251/251/248 250/250/247
f 252/252/249 253/253/250 254/254/251 255/255/252
f 254/254/251 246/246/243 249/249/246 255/255/252
f 227/227/224 253/253/250 252/252/249 256/256/253
f 257/257/254 258/258/255 259/259/256 260/260/257
f 261/261/258 257/257/254 260/260/257 262/262/259
f 263/263/260 261/261/258 262/262/259 264/264/261
f 265/265/262 266/266/263 252/252/249 255/255/252
f 267/267/264 265/265/262 255/255/252 249/249/246
f 268/268/265 267/267/264 249/249/246 248/248/245
f 269/269/266 270/270/267 271/271/268 272/272/269
f 273/273/270 269/269/266 272/272/269 274/274/271
f 273/273/270 274/274/271 275/275/272 276/276/273
f 260/260/257 259/259/256 266/266/263 265/265/262
f 262/262/259 260/260/257 265/265/262 267/267/264
f 264/264/261 262/262/259 267/267/264 268/268/265
f 234/234/231 277/277/274 270/270/267 269/269/266
f 235/235/232 234/234/231 269/269/266 273/273/270
f 276/276/273 278/278/275 235/235/232 273/273/270
f 272/272/269 271/271/268 258/258/255 257/257/254
f 274/274/271 272/272/269 257/257/254 261/261/258
f 263/263/260 275/275/272 274/274/271 261/261/258
f 189/189/186 279/279/276 280/280/277 281/281/278
f 237/237/234 236/236/233 243/243/240 242/242/239
f 278/278/275 251/251/248 236/236/233 235/235/232
f 247/247/244 246/246/243 282/282/279 283/283/280
f 254/254/251 253/253/250 284/284/281 285/285/282
f 246/246/243 254/254/251 285/285/282 282/282/279
f 253/253/250 227/227/224 230/230/227 284/284/281
f 286/286/283 277/277/274 287/287/284 288/288/285
f 289/289/286 244/244/241 290/290/287 291/291/288
f 289/289/286 292/292/289 293/293/290 294/294/291
f 295/295/292 296/296/293 297/297/294 298/298/295
f 299/299/296 300/300/297 301/301/298 302/302/299
f 298/298/295 297/297/294 303/303/300 304/304/301
f 286/286/283 305/305/302 300/300/297 299/299/296
f 302/302/299 301/301/298 296/296/293 295/295/292
f 288/288/285 287/287/284 245/245/242 294/294/291
f 304/304/301 303/303/300 306/306/303 256/256/253
f 184/184/181 307/307/304 308/308/305 185/185/182
f 188/188/185 309/309/306 279/279/276 189/189/186
f 211/211/208 310/310/307 311/311/308 212/212/209
f 226/226/223 312/312/309 309/309/306 188/188/185
f 184/184/181 181/181/178 198/198/195 281/281/278
f 281/281/278 198/198/195 187/187/184 189/189/186
f 211/211/208 209/209/206 210/210/207 217/217/214
f 226/226/223 225/225/222 213/213/210 212/212/209
f 217/217/214 210/210/207 220/220/217 214/214/211
f 244/244/241 289/289/286 294/294/291 245/245/242
f 258/258/255 295/295/292 298/298/295 259/259/256
f 270/270/267 299/299/296 302/302/299 271/271/268
f 259/259/256 298/298/295 304/304/301 266/266/263
f 277/277/274 286/286/283 299/299/296 270/270/267
f 271/271/268 302/302/299 295/295/292 258/258/255
f 277/277/274 234/234/231 237/237/234 287/287/284
f 244/244/241 238/238/235 241/241/238 290/290/287
f 287/287/284 237/237/234 242/242/239 245/245/242
f 266/266/263 304/304/301 256/256/253 252/252/249
f 228/228/225 227/227/224 256/256/253 306/306/303
f 228/228/225 191/191/188 313/313/310 229/229/226
f 305/305/302 286/286/283 288/288/285 314/314/311
f 292/292/289 289/289/286 291/291/288 315/315/312
f 314/314/311 288/288/285 294/294/291 293/293/290
f 292/292/289 307/307/304 280/280/277 293/293/290
f 296/296/293 310/310/307 216/216/213 297/297/294
f 300/300/297 312/312/309 311/311/308 301/301/298
f 303/303/300 215/215/212 192/192/189 306/306/303
f 191/191/188 228/228/225 306/306/303 192/192/189
f 215/215/212 303/303/300 297/297/294 216/216/213
f 279/279/276 314/314/311 293/293/290 280/280/277
f 307/307/304 292/292/289 315/315/312 308/308/305
f 309/309/306 305/305/302 314/314/311 279/279/276
f 310/310/307 296/296/293 301/301/298 311/311/308
f 312/312/309 300/300/297 305/305/302 309/309/306
f 191/191/188 190/190/187 233/233/230 313/313/310
f 307/307/304 184/184/181 281/281/278 280/280/277
f 310/310/307 211/211/208 217/217/214 216/216/213
f 312/312/309 226/226/223 212/212/209 311/311/308
f 215/215/212 214/214/211 193/193/190 192/192/189
f 316/316/313 317/317/314 318/318/315 319/319/316
f 320/320/317 321/321/318 322/322/319 323/323/320
f 324/324/321 325/325/322 317/317/314 316/316/313
f 326/326/323 327/327/324 321/321/318 320/320/317
f 327/327/324 328/328/325 329/329/325 321/321/318
f 330/330/326 331/331/327 332/332/328 333/333/329
f 319/319/316 318/318/315 330/330/326 334/334/330
f 335/335/331 336/336/332 337/337/333 338/338/334
f 336/336/332 339/339/335 340/340/336 337/337/333
f 339/339/335 316/316/313 319/319/316 340/340/336
f 341/341/337 342/342/338 336/336/332 335/335/331
f 342/342/338 343/343/339 339/339/335 336/336/332
f 343/343/339 324/324/321 316/316/313 339/339/335
f 344/344/340 345/345/341 346/346/342 347/347/343
f 345/345/341 348/348/344 349/349/345 346/346/342
f 348/348/344 350/350/346 351/351/347 349/349/345
f 352/352/348 353/353/349 354/354/350 355/355/351
f 353/353/349 356/356/352 357/357/353 354/354/350
f 356/356/352 334/334/330 358/358/354 357/357/353
f 359/359/355 360/360/356 361/361/357 362/362/358
f 360/360/356 363/363/359 364/364/360 361/361/357
f 363/363/359 365/365/361 366/366/362 364/364/360
f 367/367/363 368/368/364 369/369/365 370/370/366
f 368/368/364 371/371/367 372/372/368 369/369/365
f 371/371/367 373/373/369 374/374/370 372/372/368
f 347/347/343 346/346/342 360/360/356 359/359/355
f 346/346/342 349/349/345 363/363/359 360/360/356
f 349/349/345 351/351/347 365/365/361 363/363/359
f 362/362/358 361/361/357 368/368/364 367/367/363
f 361/361/357 364/364/360 371/371/367 368/368/364
f 364/364/360 366/366/362 373/373/369 371/371/367
f 355/355/351 354/354/350 345/345/341 344/344/340
f 354/354/350 357/357/353 348/348/344 345/345/341
f 357/357/353 358/358/354 350/350/346 348/348/344
f 338/338/334 337/337/333 353/353/349 352/352/348
f 337/337/333 340/340/336 356/356/352 353/353/349
f 340/340/336 319/319/316 334/334/330 356/356/352
f 350/350/346 375/375/371 376/376/372 351/351/347
f 358/358/354 333/333/329 375/375/371 350/350/346
f 334/334/330 330/330/326 333/333/329 358/358/354
f 317/317/314 377/377/373 378/378/374 318/318/315
f 325/325/322 379/379/375 377/377/373 317/317/314
f 318/318/315 378/378/374 331/331/327 330/330/326
f 377/377/373 320/320/317 323/323/320 378/378/374
f 379/379/375 326/326/323 320/320/317 377/377/373
f 378/378/374 323/323/320 380/380/376 331/331/327
