# Blender 4.5.12 LTS
# www.blender.org
o B3_x
v 34.059875 -20.303360 21.991814
v 33.961845 -20.303360 21.006035
v 34.040169 -25.717396 21.998215
v 33.961845 -20.303360 22.977570
v 33.942039 -25.738049 22.984001
v 33.675175 -20.303368 23.925819
v 33.655018 -25.767445 23.932358
v 33.207359 -20.303370 24.799042
v 33.186642 -25.804609 24.805771
v 32.579647 -20.303362 25.565407
v 32.558327 -25.847956 25.572334
v 31.813267 -20.303370 26.193115
v 31.791555 -25.895893 26.200188
v 30.940058 -20.303362 26.660934
v 30.918114 -25.946510 26.668068
v 29.991817 -20.303370 26.947601
v 29.969801 -25.997919 26.954750
v 29.006048 -20.303366 27.045631
v 28.984102 -26.048124 27.052773
v 28.020281 -20.303371 26.947601
v 27.998489 -26.095184 26.954674
v 27.072023 -20.303366 26.660942
v 27.050510 -26.137363 26.667931
v 26.198809 -20.303371 26.193115
v 26.177732 -26.172905 26.199966
v 25.432453 -20.303368 25.565407
v 25.411789 -26.200602 25.572105
v 24.804726 -20.303371 24.799042
v 24.784332 -26.219261 24.805656
v 24.336910 -20.303371 23.925819
v 24.316593 -26.228340 23.932434
v 24.050259 -20.303368 22.977570
v 24.029757 -26.227310 22.984238
v 23.952209 -20.303368 21.991814
v 23.931587 -26.216362 21.998497
v 24.050259 -20.303368 21.006035
v 24.029879 -26.195677 21.012657
v 24.336912 -20.303371 20.057785
v 24.316788 -26.166294 20.064331
v 24.804726 -20.303371 19.184586
v 24.784504 -26.129219 19.191139
v 25.432449 -20.303371 18.418213
v 25.411900 -26.085999 18.424881
v 26.198809 -20.303371 17.790497
v 26.177780 -26.038168 17.797333
v 27.072021 -20.303366 17.322685
v 27.050522 -25.987629 17.329674
v 28.020281 -20.303371 17.036018
v 27.998432 -25.936279 17.043121
v 29.006050 -20.303366 16.937981
v 28.984016 -25.886089 16.945137
v 29.991817 -20.303370 17.036018
v 29.969723 -25.839005 17.043190
v 30.940056 -20.303362 17.322685
v 30.918091 -25.796801 17.329803
v 31.813267 -20.303370 17.790497
v 31.791616 -25.761160 17.797531
v 32.579647 -20.303370 18.418213
v 32.558418 -25.733341 18.425102
v 33.207359 -20.303370 19.184586
v 33.186630 -25.714594 19.191307
v 33.675175 -20.303368 20.057785
v 33.654919 -25.705435 20.064384
v 33.654907 -26.042530 20.064384
v 33.941956 -25.706453 21.012505
v 33.941959 -26.043566 21.012497
v 34.040184 -26.054520 21.998207
v 33.450592 -26.069378 21.110222
v 33.539047 -26.079239 21.997864
v 32.382805 -26.125074 21.297218
v 33.192074 -26.068453 20.256416
v 32.195740 -26.123623 20.630280
v 32.770302 -26.076675 19.470146
v 33.186577 -26.051659 19.191322
v 31.888599 -26.128990 20.019180
v 32.204437 -26.093544 18.780045
v 31.467117 -26.141310 19.489967
v 32.558346 -26.070389 18.425133
v 31.513680 -26.118574 18.214737
v 31.791519 -26.098179 17.797562
v 30.936951 -26.160728 19.068710
v 30.726738 -26.150663 17.793419
v 30.324638 -26.186022 18.761536
v 30.917980 -26.133801 17.329857
v 29.872328 -26.188692 17.535187
v 29.969610 -26.176003 17.043236
v 29.656681 -26.215996 18.574608
v 28.984266 -26.231104 17.446861
v 28.960979 -26.249315 18.511238
v 28.983891 -26.223078 16.945175
v 28.096344 -26.276337 17.535126
v 27.998333 -26.273289 17.043144
v 28.265465 -26.284655 18.574768
v 27.242390 -26.322613 17.793266
v 27.598141 -26.320578 18.761856
v 27.050442 -26.324650 17.329697
v 26.456171 -26.368155 18.214546
v 26.177734 -26.375217 17.797348
v 26.987061 -26.355654 19.069199
v 25.766241 -26.411266 18.779907
v 26.457926 -26.388531 19.490715
v 25.411877 -26.423059 18.424889
v 25.201067 -26.450222 19.470200
v 24.784494 -26.466311 19.191139
v 26.036478 -26.417812 20.020325
v 24.779701 -26.483629 20.256783
v 25.729010 -26.442791 20.631920
v 24.316790 -26.503386 20.064339
v 24.521242 -26.510075 21.111000
v 24.029861 -26.532753 21.012657
v 25.541861 -26.462723 21.299339
v 24.432711 -26.528679 21.998909
v 25.478415 -26.477001 21.994621
v 23.931568 -26.553404 21.998512
v 24.521116 -26.538546 22.886650
v 24.029728 -26.564369 22.984245
v 25.542007 -26.485016 22.689751
v 24.779455 -26.539490 23.740593
v 25.729263 -26.486465 23.356964
v 24.316582 -26.565413 23.932434
v 25.200764 -26.531303 24.527084
v 24.784321 -26.556318 24.805656
v 26.036793 -26.481089 23.968445
v 25.765903 -26.514488 25.217453
v 26.458225 -26.468788 24.497978
v 25.411758 -26.537645 25.572121
v 26.455761 -26.489510 25.782982
v 26.177675 -26.509920 26.199989
v 26.987244 -26.449432 24.919258
v 27.241890 -26.457472 26.204468
v 27.598158 -26.424204 25.226318
v 27.050434 -26.474354 26.667961
v 28.095785 -26.419479 26.462776
v 27.998390 -26.432177 26.954704
v 28.265312 -26.394276 25.413193
v 28.983656 -26.377083 26.551140
v 28.960735 -26.360979 25.476517
v 28.983997 -26.385109 27.052811
v 29.871716 -26.331837 26.462814
v 29.969696 -26.334888 26.954788
v 29.656404 -26.325624 25.412926
v 30.726133 -26.285540 26.204491
v 30.324429 -26.289663 25.225723
v 30.918013 -26.283499 26.668106
v 31.513124 -26.239929 25.782921
v 31.791464 -26.232883 26.200211
v 30.936903 -26.254501 24.918243
v 32.204029 -26.196758 25.217224
v 31.467247 -26.221567 24.496513
v 32.558250 -26.184971 25.572357
v 32.770130 -26.157745 24.526588
v 33.186600 -26.141668 24.805786
v 31.888916 -26.192249 23.966545
v 33.192112 -26.124294 23.739815
v 33.655010 -26.104534 23.932358
v 33.450657 -26.097843 22.885643
v 32.196133 -26.167273 23.354691
v 32.383049 -26.147346 22.687271
v 31.684761 -26.189766 23.183434
v 31.826502 -26.173388 22.597939
v 31.450808 -26.209843 23.715096
v 31.216911 -26.210793 23.054749
v 30.763435 -26.231888 22.974815
v 31.065918 -26.225746 23.522408
v 31.309269 -26.197819 22.529945
v 30.811184 -26.221689 22.485268
v 31.340553 -26.187407 21.976662
v 31.874166 -26.161217 21.985626
v 31.308266 -26.180138 21.423615
v 30.827908 -26.212574 21.968086
v 30.318661 -26.237617 21.962708
v 30.809700 -26.205177 21.451263
v 30.310244 -26.229973 21.459969
v 30.760683 -26.199774 20.963112
v 30.291935 -26.223148 20.978241
v 30.685036 -26.196606 20.532013
v 31.215040 -26.176338 20.899689
v 31.683800 -26.151428 20.788567
v 31.063526 -26.176352 20.433754
v 31.449619 -26.154484 20.257942
v 30.817497 -26.182499 20.059860
v 30.603706 -26.195965 20.241241
v 31.112997 -26.163916 19.809944
v 30.440735 -26.197128 19.812080
v 30.663458 -26.180702 19.472939
v 30.299105 -26.209482 20.146881
v 29.970652 -26.217842 19.657547
v 29.860535 -26.229807 20.064865
v 30.130714 -26.203228 19.237831
v 29.444599 -26.242304 19.563454
v 29.544472 -26.229879 19.095543
v 29.368885 -26.253254 20.013588
v 28.890898 -26.269121 19.531685
v 28.851301 -26.278509 19.995918
v 28.931637 -26.259357 19.047707
v 28.337872 -26.296938 19.564178
v 28.319118 -26.290359 19.095947
v 28.334965 -26.304289 20.014641
v 27.814854 -26.324259 19.658966
v 27.848982 -26.329102 20.066826
v 27.734224 -26.321499 19.238640
v 27.351128 -26.349621 19.814056
v 27.204281 -26.351429 19.474121
v 27.422482 -26.351479 20.149559
v 26.978697 -26.371988 20.062317
v 27.140097 -26.366932 20.244148
v 26.756765 -26.378922 19.811516
v 26.729492 -26.390278 20.436653
v 26.419149 -26.402769 20.259933
v 27.037508 -26.376659 20.535400
v 26.572739 -26.405493 20.902977
v 26.951130 -26.387844 20.966835
v 26.183130 -26.422930 20.791008
v 26.477676 -26.418585 21.427231
v 26.040426 -26.439356 21.376335
v 26.897978 -26.398296 21.455246
v 26.445805 -26.429029 21.980476
v 26.880060 -26.407471 21.972206
v 25.992516 -26.451542 21.988731
v 26.478664 -26.436287 22.533775
v 26.040928 -26.458963 22.601105
v 26.899466 -26.414799 22.489403
v 26.574604 -26.439953 23.058434
v 26.953884 -26.419956 22.978813
v 26.184074 -26.461283 23.186424
v 26.731937 -26.439686 23.525803
v 26.420378 -26.458136 23.717758
v 27.041115 -26.422609 23.412544
v 26.981503 -26.433372 23.900612
v 27.143764 -26.422285 23.708038
v 26.758139 -26.448664 24.166237
v 27.354134 -26.418953 24.147636
v 27.205650 -26.431980 24.502983
v 27.426725 -26.409756 23.797737
v 27.817900 -26.398525 24.300858
v 27.853439 -26.389973 23.877228
v 27.735516 -26.409594 24.737610
v 28.340906 -26.374210 24.394348
v 28.320288 -26.383009 24.879654
v 28.339449 -26.366791 23.927292
v 28.893856 -26.347431 24.425949
v 28.855757 -26.341591 23.944679
v 28.932718 -26.353550 24.927406
v 29.447533 -26.319584 24.393509
v 29.545538 -26.322542 24.879112
v 29.373302 -26.315758 23.926178
v 29.973570 -26.292109 24.299217
v 29.864878 -26.290670 23.875084
v 30.131809 -26.291317 24.736511
v 30.443586 -26.266445 24.145264
v 30.664623 -26.261253 24.501312
v 30.303251 -26.267757 23.794785
v 30.820185 -26.243896 23.897667
v 30.607273 -26.251303 23.704750
v 31.114208 -26.233654 24.164009
v 30.688576 -26.242546 23.408791
v 30.273039 -26.262823 23.394516
v 29.820889 -26.285629 23.425385
v 30.295223 -26.254591 22.949806
v 30.312038 -26.246008 22.465927
v 29.812698 -26.278469 22.953117
v 29.316294 -26.303043 22.958115
v 29.811337 -26.270647 22.461235
v 29.308601 -26.295448 22.460495
v 29.811878 -26.262577 21.959869
v 29.306660 -26.287498 21.958969
v 29.809376 -26.254679 21.459122
v 29.306557 -26.279480 21.458107
v 29.809135 -26.246853 20.970078
v 29.312588 -26.271252 20.963623
v 29.816442 -26.239019 20.503853
v 29.329109 -26.262709 20.481216
v 30.268866 -26.217243 20.538071
v 28.825356 -26.287437 20.473129
v 28.323616 -26.312346 20.482475
v 28.810509 -26.295998 20.961159
v 28.311161 -26.320686 20.964996
v 28.804251 -26.304264 21.457924
v 28.304960 -26.328932 21.459564
v 28.803787 -26.312319 21.959381
v 28.303934 -26.337006 21.960442
v 28.806318 -26.320244 22.461502
v 28.307007 -26.344891 22.461960
v 28.814255 -26.327866 22.961388
v 28.314880 -26.352482 22.959518
v 28.829987 -26.335028 23.456139
v 28.328239 -26.359665 23.448494
v 29.333712 -26.310030 23.447189
v 27.850176 -26.382923 23.427864
v 27.417501 -26.403799 23.397881
v 27.830868 -26.376305 22.955757
v 27.374928 -26.398767 22.953392
v 27.818207 -26.369053 22.463982
v 27.347509 -26.392365 22.469620
v 27.813068 -26.361261 21.962616
v 27.337128 -26.384811 21.966415
v 27.816233 -26.353085 21.461830
v 27.345707 -26.376333 21.463585
v 27.827267 -26.344690 20.972649
v 27.371622 -26.367332 20.981659
v 27.845663 -26.336313 20.506187
v 27.413265 -26.358213 20.541206
v 31.825949 -26.153780 21.373482
v 32.446377 -26.133080 21.992165
v 33.942039 -26.075157 22.984001
v 27.546829 -26.490219 25.263870
v 27.590557 -27.492460 25.248611
v 26.264231 -26.546200 25.263870
v 28.908463 -26.394022 22.849098
v 30.286907 -26.370651 25.263863
v 28.952200 -27.396259 22.833839
v 30.330647 -27.372875 25.248611
v 28.314903 -27.411505 22.007942
v 29.610966 -27.354958 22.007935
v 29.567225 -26.352703 22.023193
v 31.694027 -27.213875 18.713486
v 31.622213 -27.316519 25.248604
v 28.969006 -27.370186 21.168594
v 28.925278 -26.367945 21.183868
v 27.550377 -27.394690 18.713486
v 30.384541 -27.271009 18.713486
v 30.340799 -26.268793 18.728745
v 31.650288 -26.211664 18.728737
v 27.506659 -26.392467 18.728737
v 26.258825 -27.451056 18.713486
v 26.215090 -26.448820 18.728745
v 28.271185 -26.409258 22.023193
v 31.578480 -26.314299 25.263863
v 26.307951 -27.548431 25.248604
vn 1.0000 -0.0018 -0.0000
vn 0.9807 -0.0019 -0.1953
vn 0.9807 -0.0039 -0.1953
vn 1.0000 -0.0037 -0.0001
vn 0.9808 -0.0034 0.1950
vn 0.9807 -0.0017 0.1953
vn 0.9238 -0.0015 0.3830
vn 0.9239 -0.0030 0.3827
vn 0.8315 -0.0024 0.5555
vn 0.8313 -0.0013 0.5559
vn 0.7069 -0.0010 0.7073
vn 0.7072 -0.0018 0.7070
vn 0.5557 -0.0011 0.8313
vn 0.5554 -0.0006 0.8316
vn 0.3826 -0.0002 0.9239
vn 0.3829 -0.0003 0.9238
vn 0.1953 0.0005 0.9807
vn 0.1950 0.0003 0.9808
vn -0.0002 0.0007 1.0000
vn 0.0002 0.0012 1.0000
vn -0.1950 0.0019 0.9808
vn -0.1953 0.0010 0.9807
vn -0.3830 0.0013 0.9238
vn -0.3827 0.0025 0.9239
vn -0.5556 0.0030 0.8314
vn -0.5559 0.0016 0.8313
vn -0.7073 0.0017 0.7069
vn -0.7072 0.0033 0.7070
vn -0.8315 0.0035 0.5555
vn -0.8316 0.0018 0.5554
vn -0.9239 0.0018 0.3827
vn -0.9239 0.0036 0.3827
vn -0.9808 0.0036 0.1952
vn -0.9808 0.0018 0.1952
vn -1.0000 0.0018 -0.0000
vn -1.0000 0.0035 -0.0001
vn -0.9807 0.0032 -0.1953
vn -0.9808 0.0016 -0.1952
vn -0.9239 0.0014 -0.3826
vn -0.9238 0.0028 -0.3828
vn -0.8314 0.0023 -0.5556
vn -0.8316 0.0011 -0.5554
vn -0.7073 0.0009 -0.7069
vn -0.7070 0.0017 -0.7072
vn -0.5555 0.0010 -0.8315
vn -0.5558 0.0005 -0.8313
vn -0.3828 0.0002 -0.9238
vn -0.3825 0.0003 -0.9240
vn -0.1948 -0.0005 -0.9808
vn -0.1952 -0.0002 -0.9808
vn -0.0001 -0.0007 -1.0000
vn 0.0003 -0.0013 -1.0000
vn 0.1953 -0.0020 -0.9807
vn 0.1950 -0.0011 -0.9808
vn 0.3825 -0.0015 -0.9239
vn 0.3828 -0.0027 -0.9238
vn 0.5556 -0.0033 -0.8314
vn 0.5553 -0.0018 -0.8316
vn 0.7068 -0.0019 -0.7074
vn 0.7071 -0.0037 -0.7071
vn 0.8314 -0.0039 -0.5557
vn 0.8312 -0.0020 -0.5559
vn 0.9237 -0.0020 -0.3830
vn 0.9238 -0.0039 -0.3829
vn 0.9236 -0.0001 -0.3833
vn 0.8307 -0.0001 -0.5567
vn 0.9808 -0.0000 -0.1950
vn 1.0000 -0.0000 0.0010
vn 0.0493 -0.9987 -0.0160
vn 0.9229 -0.0000 0.3850
vn 0.9804 -0.0000 0.1968
vn 0.8299 -0.0001 0.5580
vn 0.7049 -0.0001 0.7093
vn 0.5529 -0.0001 0.8332
vn 0.3796 -0.0000 0.9251
vn 0.1919 0.0001 0.9814
vn -0.0032 0.0001 1.0000
vn -0.1980 0.0001 0.9802
vn -0.3852 0.0002 0.9228
vn -0.5575 0.0001 0.8302
vn -0.7084 0.0001 0.7058
vn -0.8320 -0.0000 0.5547
vn -0.9240 -0.0000 0.3825
vn -0.9807 0.0001 0.1956
vn -1.0000 0.0001 0.0010
vn -0.9810 -0.0000 -0.1938
vn -0.9247 -0.0000 -0.3808
vn -0.8329 -0.0000 -0.5534
vn -0.7093 -0.0000 -0.7049
vn -0.5583 -0.0000 -0.8297
vn -0.3857 -0.0000 -0.9226
vn -0.1982 -0.0000 -0.9802
vn -0.0031 -0.0001 -1.0000
vn 0.1923 -0.0002 -0.9813
vn 0.3802 -0.0002 -0.9249
vn 0.5537 -0.0002 -0.8327
vn 0.7057 -0.0002 -0.7085
vn 0.8701 0.0305 0.4919
vn 0.0007 -0.0152 0.9999
vn -0.8674 -0.0454 0.4956
vn 0.0436 -0.9989 -0.0152
vn 0.8486 0.0451 -0.5272
vn 0.8443 0.0287 0.5351
vn -0.8654 -0.0301 -0.5002
vn 0.8648 0.0453 -0.5001
vn -0.0007 0.0152 -0.9999
vn -0.8472 -0.0450 0.5293
vn -0.8493 -0.0290 -0.5272
vt 0.404786 0.685199
vt 0.400767 0.685130
vt 0.400837 0.663261
vt 0.404855 0.663271
vt 0.280506 0.662912
vt 0.280446 0.684920
vt 0.276438 0.684821
vt 0.276498 0.662902
vt 0.284465 0.685060
vt 0.284525 0.662932
vt 0.288534 0.662962
vt 0.288474 0.685229
vt 0.292483 0.685429
vt 0.292542 0.662982
vt 0.296551 0.663012
vt 0.296501 0.685648
vt 0.300510 0.685888
vt 0.300570 0.663032
vt 0.304578 0.663062
vt 0.304519 0.686117
vt 0.308527 0.686346
vt 0.308587 0.663082
vt 0.312596 0.663112
vt 0.312536 0.686566
vt 0.316545 0.686755
vt 0.316604 0.663132
vt 0.320623 0.663152
vt 0.320553 0.686925
vt 0.324562 0.687054
vt 0.324632 0.663172
vt 0.328641 0.663192
vt 0.328571 0.687144
vt 0.332589 0.687194
vt 0.332649 0.663202
vt 0.336668 0.663222
vt 0.336598 0.687204
vt 0.340607 0.687164
vt 0.340677 0.663222
vt 0.344685 0.663231
vt 0.344615 0.687084
vt 0.348634 0.686974
vt 0.348694 0.663231
vt 0.352713 0.663231
vt 0.352643 0.686825
vt 0.356652 0.686645
vt 0.356721 0.663231
vt 0.360730 0.663231
vt 0.360660 0.686456
vt 0.364669 0.686247
vt 0.364739 0.663231
vt 0.368757 0.663222
vt 0.368678 0.686037
vt 0.372686 0.685828
vt 0.372766 0.663222
vt 0.376775 0.663222
vt 0.376695 0.685638
vt 0.380714 0.685459
vt 0.380783 0.663222
vt 0.384802 0.663222
vt 0.384722 0.685319
vt 0.388731 0.685209
vt 0.388811 0.663222
vt 0.392819 0.663231
vt 0.392750 0.685140
vt 0.396758 0.685120
vt 0.396828 0.663241
vt 0.396758 0.686486
vt 0.392740 0.686506
vt 0.400767 0.686496
vt 0.404776 0.686556
vt 0.991063 0.355906
vt 0.989029 0.355906
vt 0.988680 0.352316
vt 0.990664 0.351917
vt 0.987623 0.348866
vt 0.989497 0.348078
vt 0.984611 0.355896
vt 0.984342 0.353074
vt 0.983594 0.350382
vt 0.982337 0.347898
vt 0.985907 0.345685
vt 0.987603 0.344548
vt 0.983624 0.342882
vt 0.985050 0.341446
vt 0.980632 0.345764
vt 0.978478 0.344059
vt 0.980822 0.340599
vt 0.981948 0.338913
vt 0.977620 0.338904
vt 0.978408 0.337019
vt 0.975995 0.342823
vt 0.973283 0.342075
vt 0.974160 0.337857
vt 0.974559 0.335862
vt 0.970560 0.337497
vt 0.970560 0.335473
vt 0.970470 0.341815
vt 0.967648 0.342075
vt 0.966960 0.337866
vt 0.966561 0.335872
vt 0.963500 0.338913
vt 0.962722 0.337039
vt 0.964936 0.342833
vt 0.962463 0.344089
vt 0.960309 0.340619
vt 0.959182 0.338943
vt 0.957516 0.342912
vt 0.956080 0.341486
vt 0.960319 0.345784
vt 0.958623 0.347938
vt 0.955223 0.345715
vt 0.953537 0.344588
vt 0.953518 0.348896
vt 0.951643 0.348128
vt 0.957367 0.350421
vt 0.956609 0.353114
vt 0.952470 0.352366
vt 0.950476 0.351967
vt 0.952111 0.355956
vt 0.950087 0.355956
vt 0.956360 0.355936
vt 0.956609 0.358758
vt 0.952470 0.359556
vt 0.950486 0.359945
vt 0.953518 0.363006
vt 0.951653 0.363794
vt 0.957377 0.361451
vt 0.958623 0.363934
vt 0.955233 0.366188
vt 0.953547 0.367324
vt 0.957526 0.368990
vt 0.956090 0.370426
vt 0.960329 0.366078
vt 0.962473 0.367773
vt 0.960319 0.371273
vt 0.959192 0.372959
vt 0.963510 0.372979
vt 0.962742 0.374853
vt 0.964946 0.369020
vt 0.967658 0.369768
vt 0.966970 0.374016
vt 0.966581 0.376010
vt 0.970580 0.374375
vt 0.970580 0.376409
vt 0.970480 0.370017
vt 0.973292 0.369758
vt 0.974180 0.374006
vt 0.974569 0.376000
vt 0.977640 0.372959
vt 0.978418 0.374843
vt 0.976005 0.369000
vt 0.978488 0.367743
vt 0.980832 0.371253
vt 0.981958 0.372939
vt 0.983634 0.368950
vt 0.985070 0.370386
vt 0.980632 0.366048
vt 0.982347 0.363894
vt 0.985917 0.366148
vt 0.987613 0.367284
vt 0.987632 0.362967
vt 0.989507 0.363744
vt 0.983594 0.361411
vt 0.988680 0.359506
vt 0.990674 0.359895
vt 0.984352 0.358708
vt 0.981519 0.360723
vt 0.982088 0.358349
vt 0.980562 0.362877
vt 0.979615 0.360204
vt 0.980004 0.358080
vt 0.979006 0.362099
vt 0.977790 0.359875
vt 0.977969 0.357901
vt 0.977481 0.361640
vt 0.980114 0.355836
vt 0.982287 0.355866
vt 0.978039 0.355796
vt 0.979994 0.353593
vt 0.982088 0.353393
vt 0.977959 0.353712
vt 0.975975 0.355777
vt 0.975945 0.357821
vt 0.975945 0.353742
vt 0.975865 0.351798
vt 0.977770 0.351738
vt 0.979605 0.351478
vt 0.975776 0.350013
vt 0.977461 0.349983
vt 0.978987 0.349584
vt 0.981519 0.351020
vt 0.980552 0.348866
vt 0.977989 0.348078
vt 0.979196 0.347061
vt 0.977132 0.348816
vt 0.975895 0.348427
vt 0.976464 0.347071
vt 0.977381 0.345705
vt 0.974569 0.346453
vt 0.975217 0.344747
vt 0.974120 0.348098
vt 0.972126 0.347888
vt 0.972435 0.346074
vt 0.972834 0.344179
vt 0.970181 0.345944
vt 0.970351 0.343989
vt 0.970032 0.347829
vt 0.967937 0.347898
vt 0.967947 0.346084
vt 0.967868 0.344179
vt 0.965823 0.346462
vt 0.965494 0.344757
vt 0.965963 0.348118
vt 0.964238 0.348447
vt 0.963938 0.347101
vt 0.963340 0.345725
vt 0.962433 0.348108
vt 0.961535 0.347091
vt 0.963091 0.348846
vt 0.962672 0.350013
vt 0.961426 0.349624
vt 0.960169 0.348906
vt 0.960787 0.351508
vt 0.959202 0.351060
vt 0.962323 0.351768
vt 0.962114 0.353742
vt 0.960408 0.353633
vt 0.958623 0.353433
vt 0.960269 0.355876
vt 0.958444 0.355906
vt 0.962034 0.355836
vt 0.962124 0.357931
vt 0.960408 0.358120
vt 0.958633 0.358389
vt 0.960797 0.360244
vt 0.959212 0.360763
vt 0.962333 0.359915
vt 0.962692 0.361670
vt 0.961435 0.362129
vt 0.960179 0.362917
vt 0.962453 0.363645
vt 0.961545 0.364722
vt 0.963111 0.362867
vt 0.964258 0.363226
vt 0.963958 0.364642
vt 0.963360 0.366088
vt 0.965843 0.365260
vt 0.965504 0.367035
vt 0.965983 0.363545
vt 0.967957 0.363754
vt 0.967967 0.365639
vt 0.967888 0.367614
vt 0.970201 0.365769
vt 0.970361 0.367793
vt 0.970052 0.363814
vt 0.972156 0.363744
vt 0.972455 0.365629
vt 0.972844 0.367604
vt 0.974589 0.365250
vt 0.975227 0.367025
vt 0.974140 0.363525
vt 0.975915 0.363206
vt 0.976484 0.364622
vt 0.977391 0.366068
vt 0.978009 0.363615
vt 0.979206 0.364692
vt 0.977152 0.362837
vt 0.975796 0.361580
vt 0.975885 0.359785
vt 0.973961 0.361710
vt 0.973931 0.359805
vt 0.973921 0.357801
vt 0.971916 0.359825
vt 0.971986 0.361800
vt 0.971886 0.357801
vt 0.971876 0.355767
vt 0.973921 0.355777
vt 0.971876 0.353742
vt 0.973911 0.353742
vt 0.971896 0.351738
vt 0.973911 0.351768
vt 0.971966 0.349793
vt 0.973941 0.349883
vt 0.969862 0.351738
vt 0.969922 0.349763
vt 0.967888 0.349803
vt 0.967838 0.351758
vt 0.969842 0.353742
vt 0.967818 0.353752
vt 0.969832 0.355777
vt 0.967808 0.355787
vt 0.969852 0.357811
vt 0.967828 0.357811
vt 0.969882 0.359835
vt 0.967858 0.359825
vt 0.969952 0.361840
vt 0.967917 0.361810
vt 0.965973 0.361730
vt 0.965903 0.359825
vt 0.964048 0.359815
vt 0.964218 0.361610
vt 0.963929 0.357851
vt 0.965843 0.357821
vt 0.963889 0.355806
vt 0.965823 0.355796
vt 0.963919 0.353772
vt 0.965833 0.353762
vt 0.964028 0.351828
vt 0.965883 0.351788
vt 0.964198 0.350043
vt 0.965943 0.349903
vt 0.284455 0.686426
vt 0.280446 0.686286
vt 0.276438 0.686187
vt 0.288464 0.686596
vt 0.292483 0.686795
vt 0.296491 0.687014
vt 0.300500 0.687244
vt 0.304509 0.687483
vt 0.308517 0.687712
vt 0.312526 0.687932
vt 0.316535 0.688121
vt 0.320543 0.688291
vt 0.324562 0.688420
vt 0.328571 0.688510
vt 0.332579 0.688560
vt 0.336588 0.688570
vt 0.340607 0.688530
vt 0.344615 0.688450
vt 0.348634 0.688341
vt 0.352643 0.688191
vt 0.356652 0.688012
vt 0.360660 0.687812
vt 0.364669 0.687613
vt 0.368678 0.687393
vt 0.372686 0.687194
vt 0.376695 0.686994
vt 0.380714 0.686825
vt 0.384722 0.686685
vt 0.388731 0.686576
vt 0.888358 0.005440
vt 0.888358 0.001374
vt 0.899589 0.001374
vt 0.899589 0.005440
vt 0.655042 0.371098
vt 0.655042 0.367029
vt 0.660238 0.367029
vt 0.660238 0.371098
vt 0.910830 0.005440
vt 0.910830 0.001374
vt 0.676575 0.367039
vt 0.671339 0.367039
vt 0.665763 0.357255
vt 0.668436 0.353904
vt 0.663180 0.353904
vt 0.665833 0.350513
vt 0.989045 0.017147
vt 0.989045 0.032571
vt 0.984977 0.032571
vt 0.984977 0.017147
vt 0.984977 0.001374
vt 0.989045 0.001374
vt 0.671588 0.340569
vt 0.676894 0.340569
vt 0.964250 0.005439
vt 0.964250 0.001374
vt 0.975719 0.001374
vt 0.975719 0.005439
vt 0.952771 0.005439
vt 0.952771 0.001374
vt 0.654862 0.340569
vt 0.660098 0.340569
vt 0.671588 0.336510
vt 0.676894 0.336510
vt 0.654862 0.336510
vt 0.660098 0.336510
vt 0.004065 0.041472
vt 0.000000 0.041472
vt 0.000000 0.025751
vt 0.004065 0.025751
vt 0.000000 0.056904
vt 0.004065 0.056904
vt 0.676575 0.371098
vt 0.671339 0.371098
s 1
f 3/1/1 65/2/2 2/3/3 1/4/4
f 4/5/5 5/6/6 3/7/1 1/8/4
f 7/9/7 5/6/6 4/5/5 6/10/8
f 8/11/9 9/12/10 7/9/7 6/10/8
f 11/13/11 9/12/10 8/11/9 10/14/12
f 12/15/13 13/16/14 11/13/11 10/14/12
f 15/17/15 13/16/14 12/15/13 14/18/16
f 16/19/17 17/20/18 15/17/15 14/18/16
f 19/21/19 17/20/18 16/19/17 18/22/20
f 20/23/21 21/24/22 19/21/19 18/22/20
f 23/25/23 21/24/22 20/23/21 22/26/24
f 23/25/23 22/26/24 24/27/25 25/28/26
f 27/29/27 25/28/26 24/27/25 26/30/28
f 27/29/27 26/30/28 28/31/29 29/32/30
f 31/33/31 29/32/30 28/31/29 30/34/32
f 31/33/31 30/34/32 32/35/33 33/36/34
f 35/37/35 33/36/34 32/35/33 34/38/36
f 36/39/37 37/40/38 35/37/35 34/38/36
f 39/41/39 37/40/38 36/39/37 38/42/40
f 40/43/41 41/44/42 39/41/39 38/42/40
f 43/45/43 41/44/42 40/43/41 42/46/44
f 44/47/45 45/48/46 43/45/43 42/46/44
f 47/49/47 45/48/46 44/47/45 46/50/48
f 48/51/49 49/52/50 47/49/47 46/50/48
f 51/53/51 49/52/50 48/51/49 50/54/52
f 52/55/53 53/56/54 51/53/51 50/54/52
f 55/57/55 53/56/54 52/55/53 54/58/56
f 56/59/57 57/60/58 55/57/55 54/58/56
f 59/61/59 57/60/58 56/59/57 58/62/60
f 60/63/61 61/64/62 59/61/59 58/62/60
f 63/65/63 61/64/62 60/63/61 62/66/64
f 63/65/63 62/66/64 2/3/3 65/2/2
f 64/67/65 74/68/66 61/64/62 63/65/63
f 64/67/65 63/65/63 65/2/2 66/69/67
f 3/1/1 67/70/68 66/69/67 65/2/2
f 67/71/69 69/72/69 68/73/69 66/74/69
f 71/75/69 64/76/69 66/74/69 68/73/69
f 69/72/69 304/77/69 70/78/69 68/73/69
f 68/73/69 70/78/69 72/79/69 71/75/69
f 71/75/69 72/79/69 75/80/69 73/81/69
f 64/76/69 71/75/69 73/81/69 74/82/69
f 76/83/69 78/84/69 74/82/69 73/81/69
f 73/81/69 75/80/69 77/85/69 76/83/69
f 76/83/69 77/85/69 81/86/69 79/87/69
f 78/84/69 76/83/69 79/87/69 80/88/69
f 82/89/69 84/90/69 80/88/69 79/87/69
f 79/87/69 81/86/69 83/91/69 82/89/69
f 82/89/69 83/91/69 87/92/69 85/93/69
f 84/90/69 82/89/69 85/93/69 86/94/69
f 88/95/69 90/96/69 86/94/69 85/93/69
f 85/93/69 87/92/69 89/97/69 88/95/69
f 88/95/69 89/97/69 93/98/69 91/99/69
f 90/96/69 88/95/69 91/99/69 92/100/69
f 94/101/69 96/102/69 92/100/69 91/99/69
f 91/99/69 93/98/69 95/103/69 94/101/69
f 94/101/69 95/103/69 99/104/69 97/105/69
f 96/102/69 94/101/69 97/105/69 98/106/69
f 100/107/69 102/108/69 98/106/69 97/105/69
f 97/105/69 99/104/69 101/109/69 100/107/69
f 100/107/69 101/109/69 105/110/69 103/111/69
f 102/108/69 100/107/69 103/111/69 104/112/69
f 106/113/69 108/114/69 104/112/69 103/111/69
f 103/111/69 105/110/69 107/115/69 106/113/69
f 106/113/69 107/115/69 111/116/69 109/117/69
f 108/114/69 106/113/69 109/117/69 110/118/69
f 112/119/69 114/120/69 110/118/69 109/117/69
f 109/117/69 111/116/69 113/121/69 112/119/69
f 112/119/69 113/121/69 117/122/69 115/123/69
f 114/120/69 112/119/69 115/123/69 116/124/69
f 118/125/69 120/126/69 116/124/69 115/123/69
f 115/123/69 117/122/69 119/127/69 118/125/69
f 118/125/69 119/127/69 123/128/69 121/129/69
f 120/126/69 118/125/69 121/129/69 122/130/69
f 124/131/69 126/132/69 122/130/69 121/129/69
f 121/129/69 123/128/69 125/133/69 124/131/69
f 124/131/69 125/133/69 129/134/69 127/135/69
f 126/132/69 124/131/69 127/135/69 128/136/69
f 130/137/69 132/138/69 128/136/69 127/135/69
f 127/135/69 129/134/69 131/139/69 130/137/69
f 130/137/69 131/139/69 135/140/69 133/141/69
f 132/138/69 130/137/69 133/141/69 134/142/69
f 136/143/69 138/144/69 134/142/69 133/141/69
f 133/141/69 135/140/69 137/145/69 136/143/69
f 136/143/69 137/145/69 141/146/69 139/147/69
f 138/144/69 136/143/69 139/147/69 140/148/69
f 142/149/69 144/150/69 140/148/69 139/147/69
f 139/147/69 141/146/69 143/151/69 142/149/69
f 142/149/69 143/151/69 147/152/69 145/153/69
f 144/150/69 142/149/69 145/153/69 146/154/69
f 148/155/69 150/156/69 146/154/69 145/153/69
f 145/153/69 147/152/69 149/157/69 148/155/69
f 148/155/69 149/157/69 153/158/69 151/159/69
f 150/156/69 148/155/69 151/159/69 152/160/69
f 154/161/69 155/162/69 152/160/69 151/159/69
f 151/159/69 153/158/69 157/163/69 154/161/69
f 155/162/69 154/161/69 156/164/69 305/165/69
f 157/163/69 158/166/69 156/164/69 154/161/69
f 157/163/69 159/167/69 160/168/69 158/166/69
f 159/167/69 157/163/69 153/158/69 161/169/69
f 159/167/69 162/170/69 165/171/69 160/168/69
f 162/170/69 159/167/69 161/169/69 164/172/69
f 162/170/69 163/173/69 166/174/69 165/171/69
f 163/173/69 162/170/69 164/172/69 256/175/69
f 167/176/69 168/177/69 160/168/69 165/171/69
f 170/178/69 167/176/69 165/171/69 166/174/69
f 168/177/69 167/176/69 169/179/69 303/180/69
f 167/176/69 170/178/69 172/181/69 169/179/69
f 171/182/69 170/178/69 166/174/69 260/183/69
f 170/178/69 171/182/69 173/184/69 172/181/69
f 175/185/69 174/186/69 172/181/69 173/184/69
f 174/186/69 177/187/69 169/179/69 172/181/69
f 174/186/69 175/185/69 273/188/69 176/189/69
f 177/187/69 174/186/69 176/189/69 179/190/69
f 177/187/69 178/191/69 303/180/69 169/179/69
f 178/191/69 177/187/69 179/190/69 180/192/69
f 181/193/69 183/194/69 180/192/69 179/190/69
f 182/195/69 181/193/69 179/190/69 176/189/69
f 181/193/69 182/195/69 186/196/69 184/197/69
f 183/194/69 181/193/69 184/197/69 185/198/69
f 187/199/69 189/200/69 185/198/69 184/197/69
f 188/201/69 187/199/69 184/197/69 186/196/69
f 187/199/69 188/201/69 192/202/69 190/203/69
f 189/200/69 187/199/69 190/203/69 191/204/69
f 193/205/69 195/206/69 191/204/69 190/203/69
f 194/207/69 193/205/69 190/203/69 192/202/69
f 193/205/69 194/207/69 198/208/69 196/209/69
f 195/206/69 193/205/69 196/209/69 197/210/69
f 199/211/69 201/212/69 197/210/69 196/209/69
f 200/213/69 199/211/69 196/209/69 198/208/69
f 199/211/69 200/213/69 204/214/69 202/215/69
f 201/212/69 199/211/69 202/215/69 203/216/69
f 205/217/69 207/218/69 203/216/69 202/215/69
f 206/219/69 205/217/69 202/215/69 204/214/69
f 205/217/69 206/219/69 210/220/69 208/221/69
f 207/218/69 205/217/69 208/221/69 209/222/69
f 211/223/69 213/224/69 209/222/69 208/221/69
f 212/225/69 211/223/69 208/221/69 210/220/69
f 211/223/69 212/225/69 216/226/69 214/227/69
f 213/224/69 211/223/69 214/227/69 215/228/69
f 217/229/69 219/230/69 215/228/69 214/227/69
f 218/231/69 217/229/69 214/227/69 216/226/69
f 217/229/69 218/231/69 222/232/69 220/233/69
f 219/230/69 217/229/69 220/233/69 221/234/69
f 223/235/69 225/236/69 221/234/69 220/233/69
f 224/237/69 223/235/69 220/233/69 222/232/69
f 223/235/69 224/237/69 228/238/69 226/239/69
f 225/236/69 223/235/69 226/239/69 227/240/69
f 229/241/69 231/242/69 227/240/69 226/239/69
f 230/243/69 229/241/69 226/239/69 228/238/69
f 229/241/69 230/243/69 234/244/69 232/245/69
f 231/242/69 229/241/69 232/245/69 233/246/69
f 235/247/69 237/248/69 233/246/69 232/245/69
f 236/249/69 235/247/69 232/245/69 234/244/69
f 235/247/69 236/249/69 240/250/69 238/251/69
f 237/248/69 235/247/69 238/251/69 239/252/69
f 241/253/69 243/254/69 239/252/69 238/251/69
f 242/255/69 241/253/69 238/251/69 240/250/69
f 241/253/69 242/255/69 246/256/69 244/257/69
f 243/254/69 241/253/69 244/257/69 245/258/69
f 247/259/69 249/260/69 245/258/69 244/257/69
f 248/261/69 247/259/69 244/257/69 246/256/69
f 247/259/69 248/261/69 252/262/69 250/263/69
f 249/260/69 247/259/69 250/263/69 251/264/69
f 253/265/69 255/266/69 251/264/69 250/263/69
f 254/267/69 253/265/69 250/263/69 252/262/69
f 253/265/69 254/267/69 256/175/69 164/172/69
f 255/266/69 253/265/69 164/172/69 161/169/69
f 149/157/69 255/266/69 161/169/69 153/158/69
f 255/266/69 149/157/69 147/152/69 251/264/69
f 254/267/69 252/262/69 257/268/69 256/175/69
f 259/269/69 163/173/69 256/175/69 257/268/69
f 252/262/69 248/261/69 258/270/69 257/268/69
f 261/271/69 259/269/69 257/268/69 258/270/69
f 163/173/69 259/269/69 260/183/69 166/174/69
f 259/269/69 261/271/69 263/272/69 260/183/69
f 262/273/69 261/271/69 258/270/69 288/274/69
f 261/271/69 262/273/69 264/275/69 263/272/69
f 266/276/69 265/277/69 263/272/69 264/275/69
f 265/277/69 171/182/69 260/183/69 263/272/69
f 265/277/69 266/276/69 268/278/69 267/279/69
f 171/182/69 265/277/69 267/279/69 173/184/69
f 270/280/69 269/281/69 267/279/69 268/278/69
f 269/281/69 175/185/69 173/184/69 267/279/69
f 269/281/69 270/280/69 272/282/69 271/283/69
f 175/185/69 269/281/69 271/283/69 273/188/69
f 192/202/69 188/201/69 271/283/69 272/282/69
f 188/201/69 186/196/69 273/188/69 271/283/69
f 186/196/69 182/195/69 176/189/69 273/188/69
f 270/280/69 276/284/69 274/285/69 272/282/69
f 194/207/69 192/202/69 272/282/69 274/285/69
f 198/208/69 194/207/69 274/285/69 275/286/69
f 276/284/69 277/287/69 275/286/69 274/285/69
f 277/287/69 276/284/69 278/288/69 279/289/69
f 276/284/69 270/280/69 268/278/69 278/288/69
f 280/290/69 281/291/69 279/289/69 278/288/69
f 266/276/69 280/290/69 278/288/69 268/278/69
f 281/291/69 280/290/69 282/292/69 283/293/69
f 280/290/69 266/276/69 264/275/69 282/292/69
f 284/294/69 285/295/69 283/293/69 282/292/69
f 262/273/69 284/294/69 282/292/69 264/275/69
f 285/295/69 284/294/69 286/296/69 287/297/69
f 284/294/69 262/273/69 288/274/69 286/296/69
f 242/255/69 240/250/69 287/297/69 286/296/69
f 246/256/69 242/255/69 286/296/69 288/274/69
f 248/261/69 246/256/69 288/274/69 258/270/69
f 240/250/69 236/249/69 289/298/69 287/297/69
f 291/299/69 285/295/69 287/297/69 289/298/69
f 292/300/69 291/299/69 289/298/69 290/301/69
f 236/249/69 234/244/69 290/301/69 289/298/69
f 291/299/69 292/300/69 294/302/69 293/303/69
f 285/295/69 291/299/69 293/303/69 283/293/69
f 296/304/69 295/305/69 293/303/69 294/302/69
f 295/305/69 281/291/69 283/293/69 293/303/69
f 295/305/69 296/304/69 298/306/69 297/307/69
f 281/291/69 295/305/69 297/307/69 279/289/69
f 300/308/69 299/309/69 297/307/69 298/306/69
f 299/309/69 277/287/69 279/289/69 297/307/69
f 299/309/69 300/308/69 302/310/69 301/311/69
f 277/287/69 299/309/69 301/311/69 275/286/69
f 204/214/69 200/213/69 301/311/69 302/310/69
f 200/213/69 198/208/69 275/286/69 301/311/69
f 300/308/69 212/225/69 210/220/69 302/310/69
f 206/219/69 204/214/69 302/310/69 210/220/69
f 212/225/69 300/308/69 298/306/69 216/226/69
f 296/304/69 218/231/69 216/226/69 298/306/69
f 218/231/69 296/304/69 294/302/69 222/232/69
f 292/300/69 224/237/69 222/232/69 294/302/69
f 224/237/69 292/300/69 290/301/69 228/238/69
f 234/244/69 230/243/69 228/238/69 290/301/69
f 143/151/69 249/260/69 251/264/69 147/152/69
f 249/260/69 143/151/69 141/146/69 245/258/69
f 137/145/69 243/254/69 245/258/69 141/146/69
f 243/254/69 137/145/69 135/140/69 239/252/69
f 131/139/69 237/248/69 239/252/69 135/140/69
f 237/248/69 131/139/69 129/134/69 233/246/69
f 125/133/69 231/242/69 233/246/69 129/134/69
f 231/242/69 125/133/69 123/128/69 227/240/69
f 119/127/69 225/236/69 227/240/69 123/128/69
f 225/236/69 119/127/69 117/122/69 221/234/69
f 113/121/69 219/230/69 221/234/69 117/122/69
f 219/230/69 113/121/69 111/116/69 215/228/69
f 107/115/69 213/224/69 215/228/69 111/116/69
f 213/224/69 107/115/69 105/110/69 209/222/69
f 101/109/69 207/218/69 209/222/69 105/110/69
f 207/218/69 101/109/69 99/104/69 203/216/69
f 95/103/69 201/212/69 203/216/69 99/104/69
f 201/212/69 95/103/69 93/98/69 197/210/69
f 89/97/69 195/206/69 197/210/69 93/98/69
f 195/206/69 89/97/69 87/92/69 191/204/69
f 83/91/69 189/200/69 191/204/69 87/92/69
f 189/200/69 83/91/69 81/86/69 185/198/69
f 77/85/69 183/194/69 185/198/69 81/86/69
f 183/194/69 77/85/69 75/80/69 180/192/69
f 72/79/69 178/191/69 180/192/69 75/80/69
f 178/191/69 72/79/69 70/78/69 303/180/69
f 304/77/69 168/177/69 303/180/69 70/78/69
f 168/177/69 304/77/69 158/166/69 160/168/69
f 156/164/69 158/166/69 304/77/69 69/72/69
f 69/72/69 67/71/69 305/165/69 156/164/69
f 7/9/7 155/312/70 305/313/71 5/6/6
f 67/314/68 3/7/1 5/6/6 305/313/71
f 155/312/70 7/9/7 9/12/10 152/315/72
f 11/13/11 150/316/73 152/315/72 9/12/10
f 150/316/73 11/13/11 13/16/14 146/317/74
f 15/17/15 144/318/75 146/317/74 13/16/14
f 144/318/75 15/17/15 17/20/18 140/319/76
f 19/21/19 138/320/77 140/319/76 17/20/18
f 138/320/77 19/21/19 21/24/22 134/321/78
f 23/25/23 132/322/79 134/321/78 21/24/22
f 132/322/79 23/25/23 25/28/26 128/323/80
f 27/29/27 126/324/81 128/323/80 25/28/26
f 126/324/81 27/29/27 29/32/30 122/325/82
f 31/33/31 120/326/83 122/325/82 29/32/30
f 120/326/83 31/33/31 33/36/34 116/327/84
f 35/37/35 114/328/85 116/327/84 33/36/34
f 110/329/86 114/328/85 35/37/35 37/40/38
f 108/330/87 110/329/86 37/40/38 39/41/39
f 104/331/88 108/330/87 39/41/39 41/44/42
f 102/332/89 104/331/88 41/44/42 43/45/43
f 98/333/90 102/332/89 43/45/43 45/48/46
f 96/334/91 98/333/90 45/48/46 47/49/47
f 92/335/92 96/334/91 47/49/47 49/52/50
f 90/336/93 92/335/92 49/52/50 51/53/51
f 86/337/94 90/336/93 51/53/51 53/56/54
f 84/338/95 86/337/94 53/56/54 55/57/55
f 80/339/96 84/338/95 55/57/55 57/60/58
f 78/340/97 80/339/96 57/60/58 59/61/59
f 74/68/66 78/340/97 59/61/59 61/64/62
f 306/341/98 307/342/98 311/343/98 309/344/98
f 308/345/99 329/346/99 307/347/99 306/348/99
f 310/349/100 309/344/100 311/343/100 312/350/100
f 317/351/101 312/352/101 311/353/101 314/354/101
f 329/346/101 313/355/101 311/353/101 307/347/101
f 318/356/101 314/354/101 311/353/101 313/355/101
f 315/357/102 328/358/102 317/359/102 314/360/102
f 316/361/103 323/362/103 315/357/103 314/360/103
f 314/354/101 318/356/101 321/363/101 316/364/101
f 318/365/104 319/366/104 322/367/104 321/368/104
f 320/369/105 324/370/105 319/366/105 318/365/105
f 318/356/101 313/355/101 325/371/101 320/372/101
f 322/373/106 323/374/106 316/364/106 321/363/106
f 326/375/106 324/376/106 320/372/106 325/371/106
f 313/377/107 327/378/107 326/379/107 325/380/107
f 308/381/108 327/378/108 313/377/108 329/382/108
f 328/383/99 310/384/99 312/352/99 317/351/99
