# Blender 4.5.12 LTS
# www.blender.org
o Back_x
v -8.172210 -20.453381 22.016785
v -8.172210 -21.109184 22.016785
v -8.230465 -20.453365 22.602539
v -8.230465 -20.453381 21.431061
v -8.230465 -21.109194 21.431061
v -8.400798 -20.453384 20.867584
v -8.400798 -21.109184 20.867577
v -8.678777 -20.453371 20.348740
v -8.678777 -21.109188 20.348732
v -9.051767 -20.453365 19.893356
v -9.051767 -21.109194 19.893356
v -9.507147 -20.453381 19.520348
v -9.507147 -21.109184 19.520348
v -10.026014 -20.453381 19.242363
v -10.026013 -21.109196 19.242363
v -10.589472 -20.453381 19.072029
v -10.589471 -21.109196 19.072029
v -11.175222 -20.453373 19.013771
v -11.175222 -21.109196 19.013771
v -11.760970 -20.453381 19.072029
v -11.760971 -21.109196 19.072029
v -12.324424 -20.453381 19.242363
v -12.324427 -21.109196 19.242363
v -12.843287 -20.453381 19.520348
v -12.843289 -21.109190 19.520348
v -13.298668 -20.453367 19.893356
v -13.298669 -21.109196 19.893356
v -13.671663 -20.453367 20.348740
v -13.671665 -21.109190 20.348732
v -13.949643 -20.453375 20.867584
v -14.119976 -20.453369 21.431061
v -13.949643 -21.109186 20.867577
v -14.119976 -21.109192 21.431061
v -13.983467 -27.704283 20.856514
v -14.167751 -27.710939 21.424149
v -13.905885 -27.835533 20.884430
v -13.691631 -27.697540 20.338783
v -13.626213 -27.828247 20.380379
v -13.306691 -27.690899 19.889023
v -13.255709 -27.821327 19.943764
v -12.843111 -27.684471 19.525261
v -12.806797 -27.815271 19.592308
v -12.320303 -27.678795 19.257507
v -12.298314 -27.810234 19.334328
v -11.757692 -27.674320 19.095764
v -11.176085 -27.671192 19.043602
v -11.749107 -27.806297 19.178169
v -11.723499 -27.936008 19.424294
v -11.180244 -27.803425 19.127380
v -11.192705 -27.933878 19.377350
v -10.612804 -27.801521 19.185463
v -10.662100 -27.931307 19.426651
v -10.068166 -27.800449 19.348511
v -10.596267 -27.669512 19.104576
v -10.039314 -27.668938 19.274582
v -9.526287 -27.669119 19.549500
v -9.074202 -27.670454 19.916977
v -9.567730 -27.800068 19.612572
v -9.691187 -27.926662 19.800529
v -9.128399 -27.801102 19.967285
v -9.289974 -27.926870 20.117065
v -8.767080 -27.804325 20.402199
v -8.967155 -27.931173 20.513824
v -8.495058 -27.809013 20.900925
v -8.700068 -27.673290 20.364746
v -8.417146 -27.677311 20.876183
v -8.238695 -27.682165 21.434700
v -8.169989 -27.687824 22.019089
v -8.323607 -27.814468 21.447105
v -8.577974 -27.945141 21.484085
v -8.257826 -27.820448 22.019096
v -8.521437 -27.952097 22.018990
v -8.302800 -27.826685 22.595291
v -8.562943 -27.957710 22.556923
v -8.456047 -27.833084 23.153450
v -8.216299 -27.694281 22.608009
v -8.230465 -21.109188 22.602531
v -8.375143 -27.701229 23.179550
v -8.644039 -27.708347 23.711693
v -8.400798 -21.109188 23.166008
v -8.400798 -20.453381 23.166008
v -8.678777 -21.109188 23.684860
v -9.051767 -21.109188 24.140236
v -8.678777 -20.453365 23.684860
v -9.051767 -20.453365 24.140236
v -9.507147 -20.453371 24.513252
v -9.507146 -21.109188 24.513252
v -10.026014 -20.453373 24.791229
v -10.026013 -21.109184 24.791222
v -10.589472 -20.453373 24.961555
v -10.589471 -21.109184 24.961555
v -11.175222 -20.453367 25.019798
v -11.175222 -21.109184 25.019798
v -11.760970 -20.453367 24.961555
v -11.760971 -21.109184 24.961555
v -12.324424 -20.453367 24.791229
v -12.324426 -21.109184 24.791222
v -12.843287 -20.453373 24.513252
v -12.843288 -21.109184 24.513252
v -13.298668 -20.453367 24.140236
v -13.298666 -21.109190 24.140236
v -13.671663 -20.453367 23.684860
v -13.671662 -21.109190 23.684853
v -13.949643 -20.453375 23.166008
v -13.949642 -21.109192 23.166008
v -14.119976 -20.453369 22.602539
v -14.119975 -21.109186 22.602531
v -14.178235 -20.453382 22.016785
v -14.178235 -21.109186 22.016785
v -14.239127 -27.717396 22.019279
v -14.192229 -27.723566 22.619354
v -14.150324 -27.849323 22.019348
v -13.881189 -27.978874 22.019493
v -14.104845 -27.855278 22.605011
v -14.082295 -27.842648 21.438309
v -13.823774 -27.971565 21.481049
v -13.671599 -27.963058 20.968758
v -13.480088 -28.079292 21.533882
v -13.361852 -28.069101 21.073578
v -13.523586 -28.087112 22.019646
v -13.139129 -28.147427 21.578400
v -12.792189 -28.189175 21.608940
v -13.057852 -28.135941 21.163033
v -13.169374 -28.155098 22.019768
v -13.143732 -28.158413 22.462128
v -12.811140 -28.196808 22.019775
v -12.441487 -28.226234 22.019691
v -12.795338 -28.199030 22.431427
v -12.432802 -28.227627 22.420219
v -12.750086 -28.195797 22.819702
v -12.409767 -28.222229 22.804115
v -12.680704 -28.187061 23.160332
v -13.066391 -28.157555 22.880104
v -13.377076 -28.093014 22.971977
v -12.941539 -28.152777 23.248192
v -13.192616 -28.091980 23.389984
v -12.745350 -28.150183 23.543488
v -12.454011 -28.155897 23.743042
v -12.604961 -28.176281 23.393326
v -12.929102 -28.091755 23.742462
v -13.142597 -27.990585 23.970825
v -12.580679 -28.095703 24.010849
v -12.734621 -27.993614 24.301231
v -12.164860 -28.100649 24.200897
v -12.260477 -27.996578 24.543037
v -11.699156 -28.103451 24.318321
v -12.088667 -28.164059 23.871498
v -11.670472 -28.168772 23.953598
v -12.041847 -28.200842 23.538292
v -12.378405 -28.189112 23.467445
v -12.034366 -28.225159 23.184746
v -11.654308 -28.207710 23.586838
v -11.239922 -28.209175 23.606903
v -11.652865 -28.234257 23.209152
v -11.658434 -28.251442 22.820923
v -11.250559 -28.236879 23.220947
v -11.257445 -28.255466 22.826790
v -10.844862 -28.232292 23.214027
v -10.852503 -28.250183 22.824379
v -10.453747 -28.220934 23.193848
v -10.822809 -28.204771 23.592316
v -10.427940 -28.195080 23.548515
v -10.777124 -28.164862 23.958549
v -11.224824 -28.169287 23.984283
v -10.715694 -28.098686 24.320465
v -10.353580 -28.156418 23.880676
v -10.247246 -28.091339 24.204895
v -9.980389 -28.144917 23.755020
v -9.827511 -28.082178 24.016129
v -10.080257 -28.180693 23.480850
v -9.682432 -28.136457 23.556396
v -9.484591 -28.137165 23.259773
v -9.841804 -28.165386 23.406868
v -9.475874 -28.074596 23.748123
v -9.248840 -27.971786 23.961014
v -9.211708 -28.071964 23.394966
v -8.929752 -27.966722 23.548935
v -9.027705 -28.071087 22.975502
v -8.699908 -27.962435 23.074631
v -8.916554 -28.068766 22.508621
v -9.360418 -28.140858 22.888527
v -9.283466 -28.141302 22.466179
v -9.705544 -28.184727 22.829163
v -10.070585 -28.215702 22.812752
v -9.662325 -28.187929 22.435966
v -9.771416 -28.176283 23.173386
v -10.095197 -28.203228 23.165848
v -9.647507 -28.185776 22.018768
v -10.051776 -28.221306 22.424347
v -10.044746 -28.219946 22.018791
v -10.449945 -28.244661 22.423134
v -10.448015 -28.244213 22.018837
v -10.854961 -28.261202 22.424072
v -10.453564 -28.236597 22.818176
v -10.855379 -28.262384 22.018974
v -11.261269 -28.268036 22.424660
v -11.262603 -28.270224 22.019135
v -11.663303 -28.262276 22.422424
v -11.665453 -28.263510 22.019310
v -12.055622 -28.247578 22.420052
v -12.059792 -28.247192 22.019531
v -12.045772 -28.239790 22.811699
v -12.054149 -28.237291 21.619942
v -12.042994 -28.219944 21.230553
v -12.430559 -28.217760 21.619980
v -11.662860 -28.251894 21.617241
v -11.657605 -28.231373 21.221252
v -11.262003 -28.257662 21.614624
v -11.258833 -28.235395 21.215126
v -10.856876 -28.250784 21.614922
v -10.856121 -28.230146 21.217178
v -10.452896 -28.234352 21.615555
v -10.459139 -28.216785 21.222954
v -10.055479 -28.211449 21.614128
v -10.077555 -28.196491 21.227959
v -9.666840 -28.178070 21.602463
v -9.714005 -28.165234 21.211487
v -9.289204 -28.130163 21.572495
v -9.258230 -28.137936 22.018806
v -9.371127 -28.118986 21.152916
v -8.925328 -28.056339 21.530830
v -8.881382 -28.064131 22.018860
v -9.044085 -28.046825 21.068558
v -9.233357 -28.037113 20.656158
v -8.728048 -27.937840 20.974792
v -9.499615 -28.031067 20.310936
v -9.498744 -28.105381 20.785706
v -9.782687 -28.147705 20.870354
v -9.698002 -28.097033 20.493385
v -9.994849 -28.101593 20.298370
v -9.854678 -28.130863 20.640099
v -10.091877 -28.145365 20.566956
v -10.437277 -28.159531 20.500801
v -10.104562 -28.175730 20.877869
v -10.461289 -28.193287 20.850662
v -10.849782 -28.204224 20.831108
v -10.828825 -28.168331 20.458054
v -11.252461 -28.208450 20.824585
v -11.242085 -28.172020 20.443993
v -11.651760 -28.205942 20.836472
v -11.652628 -28.170837 20.463959
v -12.030635 -28.197132 20.860672
v -12.036815 -28.164635 20.511810
v -12.372050 -28.182474 20.891167
v -12.371016 -28.153286 20.581467
v -12.672974 -28.158375 20.884872
v -12.405565 -28.202940 21.238129
v -12.744219 -28.176285 21.222710
v -12.595954 -28.141562 20.654900
v -12.930388 -28.121243 20.798752
v -12.733375 -28.110840 20.507523
v -13.172885 -28.057638 20.662437
v -12.907904 -28.048693 20.317726
v -13.429062 -27.954117 20.505630
v -13.102400 -27.946383 20.108238
v -12.697865 -27.941467 19.793251
v -12.232539 -27.938343 19.564079
v -12.561642 -28.046099 20.056717
v -12.150886 -28.046543 19.872559
v -12.443452 -28.112265 20.311386
v -12.081274 -28.118198 20.185448
v -11.667503 -28.121332 20.104782
v -11.226900 -28.121313 20.074463
v -11.692440 -28.046644 19.758446
v -11.209553 -28.045538 19.718163
v -10.725471 -28.042286 19.755508
v -10.264095 -28.037708 19.867279
v -10.784214 -28.117817 20.099411
v -10.365015 -28.111156 20.175453
v -10.154121 -27.928751 19.568863
v -9.849337 -28.032621 20.050186
v -8.715078 -27.839502 23.671288
v -9.071106 -27.846035 24.128357
v -9.515343 -27.852781 24.504181
v -9.012447 -27.715372 24.183495
v -9.469834 -27.722033 24.574013
v -9.996697 -27.727989 24.868217
v -10.573532 -27.732943 25.051102
v -10.028569 -27.859108 24.785973
v -10.125495 -27.986216 24.535767
v -10.591571 -27.864365 24.960793
v -10.646398 -27.992409 24.685913
v -11.180417 -27.868141 25.023918
v -11.192030 -27.996521 24.738594
v -11.771183 -27.870014 24.970596
v -11.176529 -27.736614 25.117584
v -11.781878 -27.738693 25.062645
v -12.364902 -27.739059 24.889397
v -12.339247 -27.869993 24.803902
v -12.900917 -27.737484 24.600929
v -13.369396 -27.734905 24.212265
v -12.859983 -27.868073 24.526962
v -13.313486 -27.865383 24.152687
v -13.679834 -27.863041 23.693947
v -13.466412 -27.989174 23.558189
v -13.947477 -27.860023 23.171211
v -13.749815 -27.732244 23.738388
v -14.028610 -27.728748 23.200417
v -13.700534 -27.987631 23.082054
v -13.839453 -27.984219 22.561172
v -13.488325 -28.091545 22.507111
v -11.738167 -27.997717 24.689880
v -11.207966 -28.103117 24.359421
v -9.653531 -27.978815 24.292046
v -12.377644 -28.210312 23.153831
vn 1.0000 -0.0000 -0.0000
vn 1.0000 0.0002 -0.0048
vn 0.9800 -0.0006 -0.1992
vn 0.9808 -0.0000 -0.1951
vn 0.9808 -0.0000 0.1951
vn 0.9818 0.0012 0.1898
vn 0.9225 -0.0014 -0.3861
vn 0.9239 -0.0000 -0.3827
vn 0.8298 -0.0020 -0.5580
vn 0.8315 -0.0000 -0.5556
vn 0.7059 -0.0024 -0.7083
vn 0.7071 -0.0000 -0.7071
vn 0.5552 -0.0026 -0.8317
vn 0.5556 -0.0000 -0.8315
vn 0.3830 -0.0026 -0.9237
vn 0.3827 -0.0000 -0.9239
vn 0.1961 -0.0025 -0.9806
vn 0.1951 -0.0000 -0.9808
vn 0.0019 -0.0022 -1.0000
vn -0.0000 -0.0000 -1.0000
vn -0.1922 -0.0018 -0.9813
vn -0.1951 -0.0000 -0.9808
vn -0.3790 -0.0011 -0.9254
vn -0.3827 -0.0000 -0.9239
vn -0.5515 -0.0003 -0.8342
vn -0.5556 -0.0000 -0.8315
vn -0.7033 0.0007 -0.7109
vn -0.7071 -0.0000 -0.7071
vn -0.8284 0.0017 -0.5601
vn -0.8315 -0.0000 -0.5556
vn -0.9219 0.0027 -0.3875
vn -0.9239 -0.0000 -0.3827
vn -0.9798 0.0036 -0.2001
vn -0.9808 -0.0000 -0.1951
vn -0.8838 -0.2688 -0.3830
vn -0.9391 -0.2773 -0.2028
vn -0.7937 -0.2594 -0.5502
vn -0.6259 -0.7278 -0.2804
vn -0.6553 -0.7402 -0.1505
vn -0.5708 -0.7139 -0.4057
vn -0.4855 -0.7055 -0.5162
vn -0.6712 -0.2547 -0.6962
vn -0.3741 -0.7078 -0.5993
vn -0.5220 -0.2577 -0.8131
vn -0.2499 -0.7164 -0.6514
vn -0.3548 -0.2654 -0.8965
vn -0.1768 -0.2725 -0.9458
vn -0.1218 -0.7245 -0.6785
vn 0.0068 -0.2752 -0.9614
vn 0.0072 -0.7272 -0.6864
vn -0.0666 -0.9183 -0.3902
vn -0.1393 -0.9148 -0.3792
vn 0.0049 -0.9195 -0.3932
vn 0.1366 -0.7238 -0.6764
vn 0.0767 -0.9178 -0.3895
vn 0.1904 -0.2729 -0.9430
vn 0.2659 -0.7145 -0.6472
vn 0.1507 -0.9135 -0.3779
vn 0.3688 -0.2660 -0.8907
vn 0.5347 -0.2581 -0.8047
vn 0.3904 -0.7039 -0.5934
vn 0.6801 -0.2550 -0.6873
vn 0.4995 -0.6999 -0.5105
vn 0.2261 -0.9082 -0.3522
vn 0.2938 -0.9062 -0.3042
vn 0.5817 -0.7076 -0.4012
vn 0.3404 -0.9102 -0.2358
vn 0.7985 -0.2600 -0.5429
vn 0.6346 -0.7214 -0.2772
vn 0.3647 -0.9171 -0.1608
vn 0.8858 -0.2697 -0.3777
vn 0.6630 -0.7337 -0.1487
vn 0.9395 -0.2783 -0.1997
vn 0.6724 -0.7399 -0.0201
vn 0.9592 -0.2823 -0.0158
vn 0.3753 -0.9228 -0.0876
vn 0.3780 -0.9257 -0.0164
vn 0.6638 -0.7400 0.1083
vn 0.3737 -0.9260 0.0543
vn 0.9448 -0.2810 0.1688
vn 0.6361 -0.7347 0.2359
vn 0.3613 -0.9240 0.1256
vn 0.8959 -0.2752 0.3487
vn 0.9261 0.0022 0.3773
vn 0.8123 -0.2684 0.5179
vn 0.5835 -0.7283 0.3593
vn 0.8348 0.0033 0.5506
vn 0.9239 -0.0000 0.3827
vn 0.8315 -0.0000 0.5556
vn 0.7110 0.0044 0.7032
vn 0.6944 -0.2659 0.6687
vn 0.7071 -0.0000 0.7071
vn 0.5556 -0.0000 0.8315
vn 0.5595 0.0054 0.8288
vn 0.3827 -0.0000 0.9239
vn 0.3863 0.0062 0.9224
vn 0.1951 -0.0000 0.9808
vn 0.1981 0.0068 0.9802
vn -0.0000 -0.0000 1.0000
vn 0.0024 0.0074 1.0000
vn -0.1951 -0.0000 0.9808
vn -0.1934 0.0077 0.9811
vn -0.3827 -0.0000 0.9239
vn -0.3823 0.0079 0.9240
vn -0.5556 -0.0000 0.8315
vn -0.5564 0.0079 0.8309
vn -0.7071 -0.0000 0.7071
vn -0.7085 0.0076 0.7056
vn -0.8315 -0.0000 0.5556
vn -0.8331 0.0071 0.5531
vn -0.9239 -0.0000 0.3827
vn -0.9254 0.0064 0.3788
vn -0.9808 -0.0000 0.1951
vn -0.9817 0.0056 0.1901
vn -1.0000 -0.0000 -0.0000
vn -1.0000 0.0046 -0.0052
vn -0.9594 -0.2815 -0.0168
vn -0.9446 -0.2805 0.1705
vn -0.6646 -0.7469 -0.0210
vn -0.6554 -0.7474 0.1089
vn -0.3655 -0.9267 -0.0876
vn -0.3677 -0.9298 -0.0166
vn -0.3629 -0.9303 0.0541
vn -0.3547 -0.9210 -0.1612
vn -0.2428 -0.9682 -0.0606
vn -0.2430 -0.9699 -0.0144
vn -0.2390 -0.9648 -0.1097
vn -0.1542 -0.9851 -0.0763
vn -0.1551 -0.9870 -0.0433
vn -0.1545 -0.9879 -0.0132
vn -0.0977 -0.9946 -0.0347
vn -0.0980 -0.9951 -0.0125
vn -0.0967 -0.9936 -0.0591
vn -0.1536 -0.9880 0.0164
vn -0.2411 -0.9700 0.0314
vn -0.0972 -0.9952 0.0092
vn -0.0664 -0.9977 -0.0125
vn -0.0654 -0.9978 0.0083
vn -0.0649 -0.9973 -0.0334
vn -0.0631 -0.9976 0.0292
vn -0.0955 -0.9949 0.0323
vn -0.1519 -0.9872 0.0480
vn -0.0618 -0.9966 0.0536
vn -0.0924 -0.9940 0.0581
vn -0.1459 -0.9857 0.0839
vn -0.2359 -0.9685 0.0796
vn -0.2219 -0.9661 0.1317
vn -0.1265 -0.9849 0.1180
vn -0.1890 -0.9653 0.1801
vn -0.0882 -0.9929 0.0801
vn -0.1390 -0.9677 0.2102
vn -0.0915 -0.9865 0.1360
vn -0.0661 -0.9943 0.0839
vn -0.2748 -0.9243 0.2647
vn -0.3228 -0.9251 0.1999
vn -0.2079 -0.9280 0.3092
vn -0.0873 -0.9712 0.2217
vn -0.1346 -0.9334 0.3326
vn -0.0562 -0.9885 0.1407
vn -0.0403 -0.9735 0.2250
vn -0.0633 -0.9372 0.3430
vn -0.0255 -0.9896 0.1415
vn -0.0409 -0.9954 0.0865
vn -0.0186 -0.9959 0.0880
vn -0.0381 -0.9978 0.0547
vn -0.0182 -0.9982 0.0572
vn 0.0028 -0.9960 0.0888
vn 0.0035 -0.9899 0.1415
vn 0.0021 -0.9983 0.0588
vn -0.0212 -0.9991 0.0355
vn 0.0015 -0.9993 0.0377
vn -0.0404 -0.9987 0.0313
vn 0.0245 -0.9991 0.0358
vn 0.0226 -0.9981 0.0581
vn 0.0243 -0.9958 0.0886
vn 0.0452 -0.9985 0.0317
vn 0.0432 -0.9975 0.0559
vn 0.0466 -0.9951 0.0875
vn 0.0626 -0.9881 0.1407
vn 0.0323 -0.9894 0.1414
vn 0.0043 -0.9742 0.2258
vn 0.0488 -0.9732 0.2248
vn 0.0953 -0.9705 0.2213
vn 0.0977 -0.9859 0.1357
vn 0.1467 -0.9668 0.2093
vn 0.0721 -0.9938 0.0847
vn 0.1326 -0.9842 0.1170
vn 0.1966 -0.9642 0.1782
vn 0.0948 -0.9922 0.0804
vn 0.2290 -0.9648 0.1293
vn 0.1519 -0.9850 0.0822
vn 0.0992 -0.9934 0.0578
vn 0.2863 -0.9212 0.2633
vn 0.2188 -0.9256 0.3089
vn 0.3348 -0.9213 0.1978
vn 0.2423 -0.9671 0.0781
vn 0.1573 -0.9864 0.0469
vn 0.2469 -0.9685 0.0311
vn 0.1586 -0.9872 0.0162
vn 0.1023 -0.9942 0.0319
vn 0.1038 -0.9946 0.0093
vn 0.0694 -0.9972 0.0293
vn 0.0678 -0.9962 0.0542
vn 0.0716 -0.9974 0.0083
vn 0.1045 -0.9944 -0.0126
vn 0.1594 -0.9871 -0.0134
vn 0.0724 -0.9973 -0.0125
vn 0.0509 -0.9986 -0.0128
vn 0.0491 -0.9987 0.0106
vn 0.0304 -0.9995 -0.0129
vn 0.0283 -0.9995 0.0146
vn 0.0012 -0.9999 -0.0129
vn 0.0013 -0.9999 0.0168
vn -0.0275 -0.9995 -0.0129
vn -0.0254 -0.9996 0.0148
vn -0.0465 -0.9988 -0.0128
vn -0.0446 -0.9989 0.0108
vn -0.0442 -0.9984 -0.0360
vn -0.0255 -0.9989 -0.0400
vn -0.0404 -0.9977 -0.0552
vn -0.0215 -0.9980 -0.0587
vn -0.0631 -0.9965 -0.0543
vn 0.0013 -0.9982 -0.0607
vn 0.0012 -0.9991 -0.0419
vn 0.0245 -0.9980 -0.0587
vn 0.0283 -0.9988 -0.0397
vn 0.0449 -0.9975 -0.0551
vn 0.0486 -0.9982 -0.0357
vn 0.0694 -0.9961 -0.0540
vn 0.0710 -0.9969 -0.0333
vn 0.1038 -0.9929 -0.0587
vn 0.1044 -0.9939 -0.0349
vn 0.1599 -0.9843 -0.0755
vn 0.1601 -0.9861 -0.0434
vn 0.2482 -0.9668 -0.0606
vn 0.2486 -0.9685 -0.0146
vn 0.2447 -0.9635 -0.1087
vn 0.1551 -0.9815 -0.1120
vn 0.2326 -0.9591 -0.1615
vn 0.2015 -0.9563 -0.2119
vn 0.1369 -0.9796 -0.1473
vn 0.1023 -0.9911 -0.0857
vn 0.0994 -0.9890 -0.1091
vn 0.1519 -0.9576 -0.2446
vn 0.1025 -0.9806 -0.1669
vn 0.0763 -0.9907 -0.1127
vn 0.0698 -0.9944 -0.0793
vn 0.0487 -0.9922 -0.1150
vn 0.0656 -0.9827 -0.1731
vn 0.0440 -0.9959 -0.0789
vn 0.0243 -0.9930 -0.1160
vn 0.0224 -0.9965 -0.0805
vn 0.0022 -0.9932 -0.1162
vn 0.0016 -0.9967 -0.0814
vn -0.0198 -0.9931 -0.1154
vn -0.0188 -0.9966 -0.0801
vn -0.0436 -0.9925 -0.1141
vn -0.0394 -0.9961 -0.0785
vn -0.0700 -0.9912 -0.1120
vn -0.0637 -0.9948 -0.0793
vn -0.0920 -0.9898 -0.1089
vn -0.0949 -0.9918 -0.0862
vn -0.1485 -0.9824 -0.1132
vn -0.1298 -0.9804 -0.1479
vn -0.2255 -0.9605 -0.1631
vn -0.1930 -0.9577 -0.2133
vn -0.3292 -0.9141 -0.2366
vn -0.2813 -0.9098 -0.3053
vn -0.2134 -0.9107 -0.3537
vn -0.1431 -0.9587 -0.2457
vn -0.0907 -0.9616 -0.2589
vn -0.0594 -0.9831 -0.1730
vn -0.0956 -0.9813 -0.1670
vn -0.0426 -0.9639 -0.2629
vn -0.0272 -0.9843 -0.1742
vn 0.0028 -0.9847 -0.1743
vn 0.0035 -0.9646 -0.2635
vn 0.0499 -0.9637 -0.2624
vn 0.0329 -0.9841 -0.1743
vn 0.0987 -0.9611 -0.2581
vn 0.5004 -0.7274 0.4696
vn 0.3903 -0.7360 0.5532
vn 0.5469 -0.2711 0.7921
vn 0.3781 -0.2803 0.8823
vn 0.2660 -0.7490 0.6069
vn 0.1961 -0.2883 0.9372
vn 0.1374 -0.7597 0.6356
vn 0.1458 -0.9317 0.3327
vn 0.0748 -0.9363 0.3432
vn 0.0087 -0.7640 0.6452
vn 0.0058 -0.9382 0.3462
vn 0.0083 -0.2912 0.9566
vn -0.1205 -0.7614 0.6370
vn -0.1804 -0.2885 0.9403
vn -0.2507 -0.7521 0.6095
vn -0.3647 -0.2807 0.8878
vn -0.5364 -0.2712 0.7992
vn -0.3765 -0.7404 0.5569
vn -0.6860 -0.2658 0.6773
vn -0.4872 -0.7329 0.4749
vn -0.5712 -0.7350 0.3654
vn -0.8067 -0.2682 0.5266
vn -0.6260 -0.7421 0.2397
vn -0.3498 -0.9282 0.1267
vn -0.8937 -0.2750 0.3545
vt 0.570336 0.700234
vt 0.570336 0.702886
vt 0.567953 0.702886
vt 0.567963 0.700234
vt 0.572730 0.700234
vt 0.572720 0.702896
vt 0.565570 0.702886
vt 0.565570 0.700223
vt 0.563186 0.702876
vt 0.563186 0.700223
vt 0.560803 0.702876
vt 0.560803 0.700223
vt 0.558420 0.702876
vt 0.558410 0.700223
vt 0.556036 0.702886
vt 0.556036 0.700223
vt 0.553653 0.702896
vt 0.553643 0.700234
vt 0.551270 0.702906
vt 0.551260 0.700243
vt 0.548876 0.702916
vt 0.548866 0.700253
vt 0.546503 0.702926
vt 0.546483 0.700273
vt 0.544120 0.702946
vt 0.544110 0.700283
vt 0.541736 0.702956
vt 0.541716 0.700303
vt 0.539353 0.702976
vt 0.539343 0.700313
vt 0.536960 0.702986
vt 0.536950 0.700333
vt 0.534586 0.702996
vt 0.534576 0.700343
vt 0.537089 0.729681
vt 0.534676 0.729721
vt 0.539492 0.729641
vt 0.537119 0.730309
vt 0.534706 0.730359
vt 0.539512 0.730260
vt 0.541896 0.730210
vt 0.541896 0.729611
vt 0.544249 0.730170
vt 0.544269 0.729571
vt 0.546633 0.730150
vt 0.546652 0.729532
vt 0.549016 0.729502
vt 0.548996 0.730130
vt 0.551389 0.729472
vt 0.551379 0.730110
vt 0.795591 0.018110
vt 0.797865 0.017522
vt 0.797965 0.018649
vt 0.795871 0.019167
vt 0.800219 0.017372
vt 0.800139 0.018499
vt 0.802542 0.017661
vt 0.802293 0.018758
vt 0.553743 0.729452
vt 0.553743 0.730090
vt 0.804776 0.018379
vt 0.804357 0.019387
vt 0.556106 0.729442
vt 0.556116 0.730070
vt 0.558450 0.729442
vt 0.558460 0.730060
vt 0.560803 0.729442
vt 0.560803 0.730060
vt 0.806810 0.019516
vt 0.806222 0.020374
vt 0.808605 0.021012
vt 0.807827 0.021690
vt 0.810051 0.022837
vt 0.809114 0.023346
vt 0.563176 0.729462
vt 0.563146 0.730070
vt 0.811118 0.024921
vt 0.810051 0.025250
vt 0.565530 0.729482
vt 0.565500 0.730100
vt 0.567883 0.730140
vt 0.567913 0.729502
vt 0.570276 0.730170
vt 0.570286 0.729532
vt 0.811767 0.027195
vt 0.810610 0.027344
vt 0.811976 0.029548
vt 0.810789 0.029528
vt 0.811746 0.031922
vt 0.810570 0.031722
vt 0.572680 0.729561
vt 0.572690 0.730200
vt 0.811068 0.034195
vt 0.809971 0.033816
vt 0.575083 0.729591
vt 0.575093 0.730220
vt 0.575103 0.702896
vt 0.577486 0.729621
vt 0.577506 0.730240
vt 0.577486 0.702896
vt 0.575103 0.700243
vt 0.577486 0.700243
vt 0.579870 0.702896
vt 0.579919 0.729641
vt 0.579870 0.700243
vt 0.582243 0.700234
vt 0.582253 0.702896
vt 0.584626 0.700223
vt 0.584646 0.702886
vt 0.587000 0.700213
vt 0.587020 0.702866
vt 0.589393 0.700194
vt 0.589413 0.702846
vt 0.513126 0.702856
vt 0.513166 0.700204
vt 0.515539 0.700243
vt 0.515510 0.702906
vt 0.517923 0.700283
vt 0.517893 0.702936
vt 0.520296 0.700303
vt 0.520276 0.702966
vt 0.522680 0.700333
vt 0.522660 0.702986
vt 0.525053 0.700343
vt 0.525043 0.702996
vt 0.527436 0.700353
vt 0.527436 0.703006
vt 0.529810 0.700353
vt 0.529810 0.703006
vt 0.532193 0.700353
vt 0.532193 0.703006
vt 0.532253 0.729761
vt 0.529820 0.729791
vt 0.532263 0.730399
vt 0.529810 0.730429
vt 0.787713 0.029010
vt 0.788042 0.026626
vt 0.789209 0.026846
vt 0.788920 0.029040
vt 0.789040 0.031264
vt 0.787853 0.031433
vt 0.788820 0.024353
vt 0.789877 0.024772
vt 0.790655 0.027125
vt 0.790436 0.029090
vt 0.791174 0.025260
vt 0.792420 0.025669
vt 0.792051 0.027335
vt 0.791892 0.029120
vt 0.793467 0.027494
vt 0.793348 0.029159
vt 0.793687 0.025938
vt 0.791962 0.030915
vt 0.790526 0.031064
vt 0.793378 0.030825
vt 0.794844 0.029189
vt 0.794844 0.030815
vt 0.794923 0.027574
vt 0.794903 0.032361
vt 0.793527 0.032400
vt 0.792231 0.032610
vt 0.795003 0.033777
vt 0.793767 0.033777
vt 0.792700 0.034106
vt 0.790944 0.032969
vt 0.791652 0.034674
vt 0.793467 0.035322
vt 0.792690 0.036130
vt 0.794056 0.034724
vt 0.794086 0.037247
vt 0.794624 0.036150
vt 0.794963 0.035053
vt 0.791762 0.037077
vt 0.790476 0.035362
vt 0.793398 0.038454
vt 0.795741 0.038055
vt 0.795302 0.039491
vt 0.796100 0.036708
vt 0.797626 0.038573
vt 0.797426 0.040139
vt 0.797775 0.037087
vt 0.796319 0.035362
vt 0.797875 0.035602
vt 0.796379 0.033936
vt 0.797925 0.034066
vt 0.799550 0.035711
vt 0.799580 0.037247
vt 0.799540 0.034146
vt 0.797935 0.032500
vt 0.799550 0.032550
vt 0.796369 0.032430
vt 0.801186 0.032580
vt 0.801186 0.034156
vt 0.801246 0.035691
vt 0.802801 0.032590
vt 0.802761 0.034106
vt 0.802841 0.035552
vt 0.803111 0.036908
vt 0.801385 0.037187
vt 0.799620 0.038783
vt 0.801615 0.038673
vt 0.803519 0.038244
vt 0.804636 0.036429
vt 0.805245 0.037516
vt 0.804247 0.035302
vt 0.805863 0.035651
vt 0.806691 0.036459
vt 0.805225 0.035033
vt 0.807797 0.035063
vt 0.806681 0.034475
vt 0.805534 0.034086
vt 0.807638 0.037387
vt 0.805963 0.038703
vt 0.808984 0.035731
vt 0.808585 0.033368
vt 0.807219 0.032989
vt 0.809084 0.031483
vt 0.807578 0.031284
vt 0.805823 0.032710
vt 0.806042 0.031124
vt 0.804347 0.032600
vt 0.804217 0.034036
vt 0.804457 0.031034
vt 0.806132 0.029429
vt 0.807708 0.029469
vt 0.804517 0.029399
vt 0.802891 0.029369
vt 0.802851 0.030994
vt 0.801246 0.029339
vt 0.801216 0.030964
vt 0.799600 0.029299
vt 0.799570 0.030934
vt 0.797975 0.029259
vt 0.797955 0.030895
vt 0.796389 0.029229
vt 0.796369 0.030845
vt 0.796449 0.027614
vt 0.798025 0.027644
vt 0.796529 0.026038
vt 0.798085 0.026038
vt 0.795063 0.026038
vt 0.799690 0.026048
vt 0.799640 0.027664
vt 0.801326 0.026098
vt 0.801276 0.027703
vt 0.802921 0.026158
vt 0.802911 0.027743
vt 0.804467 0.026208
vt 0.804507 0.027773
vt 0.805943 0.026168
vt 0.806082 0.027753
vt 0.807339 0.025958
vt 0.807628 0.027664
vt 0.809134 0.027514
vt 0.809263 0.029498
vt 0.808695 0.025629
vt 0.806860 0.024463
vt 0.807967 0.023944
vt 0.806920 0.022518
vt 0.806072 0.023256
vt 0.805693 0.024782
vt 0.805424 0.023844
vt 0.805524 0.021431
vt 0.804896 0.022438
vt 0.804477 0.023535
vt 0.804387 0.024782
vt 0.803071 0.023226
vt 0.803410 0.021910
vt 0.802941 0.024652
vt 0.801495 0.023027
vt 0.801375 0.024532
vt 0.799830 0.022927
vt 0.799760 0.024472
vt 0.798174 0.022977
vt 0.798144 0.024482
vt 0.796619 0.023136
vt 0.796609 0.024552
vt 0.795252 0.023376
vt 0.795223 0.024642
vt 0.794335 0.023655
vt 0.794006 0.024582
vt 0.792969 0.024193
vt 0.793787 0.023046
vt 0.791982 0.023615
vt 0.793078 0.022229
vt 0.790905 0.022907
vt 0.792271 0.021311
vt 0.790007 0.022299
vt 0.791583 0.020543
vt 0.793467 0.019127
vt 0.793956 0.020055
vt 0.794515 0.021202
vt 0.796190 0.020504
vt 0.796459 0.021800
vt 0.794983 0.022269
vt 0.798065 0.020065
vt 0.798144 0.021511
vt 0.799919 0.021431
vt 0.800029 0.019955
vt 0.801984 0.020145
vt 0.801715 0.021571
vt 0.803859 0.020643
vt 0.809951 0.036310
vt 0.808446 0.038164
vt 0.579919 0.730269
vt 0.806571 0.039670
vt 0.582343 0.729671
vt 0.582333 0.730299
vt 0.584786 0.729681
vt 0.584776 0.730319
vt 0.587239 0.729691
vt 0.587239 0.730339
vt 0.804008 0.039650
vt 0.804437 0.040787
vt 0.802093 0.041435
vt 0.801884 0.040219
vt 0.799670 0.041645
vt 0.799650 0.040378
vt 0.589662 0.730349
vt 0.589692 0.729681
vt 0.797237 0.041375
vt 0.515101 0.730389
vt 0.512668 0.730349
vt 0.512618 0.729691
vt 0.515081 0.729741
vt 0.517574 0.730429
vt 0.517544 0.729781
vt 0.520007 0.729801
vt 0.520027 0.730429
vt 0.522460 0.729811
vt 0.522470 0.730439
vt 0.794923 0.040637
vt 0.792799 0.039461
vt 0.790964 0.037875
vt 0.789488 0.035951
vt 0.524923 0.729811
vt 0.524913 0.730439
vt 0.788441 0.033767
vt 0.789558 0.033398
vt 0.527376 0.729811
vt 0.527366 0.730439
s 1
f 1/1/1 2/2/2 5/3/3 4/4/4
f 2/2/2 1/1/1 3/5/5 77/6/6
f 7/7/7 6/8/8 4/4/4 5/3/3
f 6/8/8 7/7/7 9/9/9 8/10/10
f 11/11/11 10/12/12 8/10/10 9/9/9
f 10/12/12 11/11/11 13/13/13 12/14/14
f 15/15/15 14/16/16 12/14/14 13/13/13
f 14/16/16 15/15/15 17/17/17 16/18/18
f 19/19/19 18/20/20 16/18/18 17/17/17
f 18/20/20 19/19/19 21/21/21 20/22/22
f 23/23/23 22/24/24 20/22/22 21/21/21
f 22/24/24 23/23/23 25/25/25 24/26/26
f 27/27/27 26/28/28 24/26/26 25/25/25
f 26/28/28 27/27/27 29/29/29 28/30/30
f 32/31/31 30/32/32 28/30/30 29/29/29
f 32/31/31 33/33/33 31/34/34 30/32/32
f 32/31/31 34/35/35 35/36/36 33/33/33
f 32/31/31 29/29/29 37/37/37 34/35/35
f 36/38/38 115/39/39 35/36/36 34/35/35
f 38/40/40 36/38/38 34/35/35 37/37/37
f 40/41/41 38/40/40 37/37/37 39/42/42
f 27/27/27 39/42/42 37/37/37 29/29/29
f 42/43/43 40/41/41 39/42/42 41/44/44
f 27/27/27 25/25/25 41/44/44 39/42/42
f 44/45/45 42/43/43 41/44/44 43/46/46
f 23/23/23 43/46/46 41/44/44 25/25/25
f 44/45/45 43/46/46 45/47/47 47/48/48
f 23/23/23 21/21/21 45/47/47 43/46/46
f 45/47/47 21/21/21 19/19/19 46/49/49
f 46/49/49 49/50/50 47/48/48 45/47/47
f 44/51/45 47/52/48 48/53/51 257/54/52
f 47/52/48 49/55/50 50/56/53 48/53/51
f 49/55/50 51/57/54 52/58/55 50/56/53
f 49/50/50 46/49/49 54/59/56 51/60/54
f 51/57/54 53/61/57 270/62/58 52/58/55
f 55/63/59 53/64/57 51/60/54 54/59/56
f 19/19/19 17/17/17 54/59/56 46/49/49
f 54/59/56 17/17/17 15/15/15 55/63/59
f 15/15/15 13/13/13 56/65/60 55/63/59
f 53/64/57 55/63/59 56/65/60 58/66/61
f 56/65/60 13/13/13 11/11/11 57/67/62
f 57/67/62 60/68/63 58/66/61 56/65/60
f 53/61/57 58/69/61 59/70/64 270/62/58
f 58/69/61 60/71/63 61/72/65 59/70/64
f 60/71/63 62/73/66 63/74/67 61/72/65
f 60/68/63 57/67/62 65/75/68 62/76/66
f 62/73/66 64/77/69 225/78/70 63/74/67
f 66/79/71 64/80/69 62/76/66 65/75/68
f 11/11/11 9/9/9 65/75/68 57/67/62
f 65/75/68 9/9/9 7/7/7 66/79/71
f 69/81/72 64/80/69 66/79/71 67/82/73
f 7/7/7 5/3/3 67/82/73 66/79/71
f 71/83/74 69/81/72 67/82/73 68/84/75
f 68/84/75 67/82/73 5/3/3 2/2/2
f 64/77/69 69/85/72 70/86/76 225/78/70
f 69/85/72 71/87/74 72/88/77 70/86/76
f 72/88/77 71/87/74 73/89/78 74/90/79
f 71/83/74 68/84/75 76/91/80 73/92/78
f 75/93/81 179/94/82 74/90/79 73/89/78
f 78/95/83 75/96/81 73/92/78 76/91/80
f 2/2/2 77/6/6 76/91/80 68/84/75
f 76/91/80 77/6/6 80/97/84 78/95/83
f 75/96/81 78/95/83 79/98/85 272/99/86
f 80/97/84 82/100/87 79/98/85 78/95/83
f 80/97/84 81/101/88 84/102/89 82/100/87
f 81/101/88 80/97/84 77/6/6 3/5/5
f 83/103/90 275/104/91 79/98/85 82/100/87
f 85/105/92 83/103/90 82/100/87 84/102/89
f 83/103/90 85/105/92 86/106/93 87/107/94
f 88/108/95 89/109/96 87/107/94 86/106/93
f 89/109/96 88/108/95 90/110/97 91/111/98
f 92/112/99 93/113/100 91/111/98 90/110/97
f 93/114/100 92/115/99 94/116/101 95/117/102
f 96/118/103 97/119/104 95/117/102 94/116/101
f 97/119/104 96/118/103 98/120/105 99/121/106
f 100/122/107 101/123/108 99/121/106 98/120/105
f 101/123/108 100/122/107 102/124/109 103/125/110
f 104/126/111 105/127/112 103/125/110 102/124/109
f 105/127/112 104/126/111 106/128/113 107/129/114
f 108/130/115 109/131/116 107/129/114 106/128/113
f 108/130/115 31/34/34 33/33/33 109/131/116
f 109/131/116 110/132/117 111/133/118 107/129/114
f 33/33/33 35/36/36 110/132/117 109/131/116
f 112/134/119 114/135/120 111/133/118 110/132/117
f 115/39/39 112/134/119 110/132/117 35/36/36
f 112/136/119 115/137/39 116/138/121 113/139/122
f 112/136/119 113/139/122 300/140/123 114/141/120
f 115/137/39 36/142/38 117/143/124 116/138/121
f 118/144/125 120/145/126 113/139/122 116/138/121
f 119/146/127 118/144/125 116/138/121 117/143/124
f 118/144/125 119/146/127 123/147/128 121/148/129
f 120/145/126 118/144/125 121/148/129 124/149/130
f 122/150/131 126/151/132 124/149/130 121/148/129
f 248/152/133 122/150/131 121/148/129 123/147/128
f 120/145/126 124/149/130 125/153/134 301/154/135
f 124/149/130 126/151/132 128/155/136 125/153/134
f 126/151/132 127/156/137 129/157/138 128/155/136
f 127/156/137 126/151/132 122/150/131 205/158/139
f 131/159/140 130/160/141 128/155/136 129/157/138
f 130/160/141 133/161/142 125/153/134 128/155/136
f 130/160/141 131/159/140 305/162/143 132/163/144
f 133/161/142 130/160/141 132/163/144 135/164/145
f 133/161/142 134/165/146 301/154/135 125/153/134
f 134/165/146 133/161/142 135/164/145 136/166/147
f 137/167/148 140/168/149 136/166/147 135/164/145
f 139/169/150 137/167/148 135/164/145 132/163/144
f 142/170/151 140/168/149 137/167/148 138/171/152
f 139/169/150 150/172/153 138/171/152 137/167/148
f 140/168/149 141/173/154 295/174/155 136/166/147
f 141/173/154 140/168/149 142/170/151 143/175/156
f 144/176/157 145/177/158 143/175/156 142/170/151
f 144/176/157 142/170/151 138/171/152 147/178/159
f 145/177/158 144/176/157 146/179/160 302/180/161
f 144/176/157 147/178/159 148/181/162 146/179/160
f 147/178/159 149/182/163 152/183/164 148/181/162
f 150/172/153 149/182/163 147/178/159 138/171/152
f 149/182/163 150/172/153 305/162/143 151/184/165
f 152/183/164 149/182/163 151/184/165 154/185/166
f 153/186/167 164/187/168 148/181/162 152/183/164
f 153/186/167 152/183/164 154/185/166 156/188/169
f 155/189/170 157/190/171 156/188/169 154/185/166
f 202/191/172 155/189/170 154/185/166 151/184/165
f 157/190/171 159/192/173 158/193/174 156/188/169
f 161/194/175 153/186/167 156/188/169 158/193/174
f 159/192/173 194/195/176 160/196/177 158/193/174
f 162/197/178 161/194/175 158/193/174 160/196/177
f 162/197/178 166/198/179 163/199/180 161/194/175
f 164/187/168 153/186/167 161/194/175 163/199/180
f 303/200/181 164/187/168 163/199/180 165/201/182
f 166/198/179 167/202/183 165/201/182 163/199/180
f 167/202/183 166/198/179 168/203/184 169/204/185
f 166/198/179 162/197/178 170/205/186 168/203/184
f 171/206/187 174/207/188 169/204/185 168/203/184
f 173/208/189 171/206/187 168/203/184 170/205/186
f 176/209/190 174/207/188 171/206/187 172/210/191
f 173/208/189 186/211/192 172/210/191 171/206/187
f 174/207/188 175/212/193 304/213/194 169/204/185
f 175/212/193 174/207/188 176/209/190 177/214/195
f 178/215/196 179/94/82 177/214/195 176/209/190
f 178/215/196 176/209/190 172/210/191 181/216/197
f 179/94/82 178/215/196 180/217/198 74/90/79
f 178/215/196 181/216/197 182/218/199 180/217/198
f 181/216/197 183/219/200 185/220/201 182/218/199
f 186/211/192 183/219/200 181/216/197 172/210/191
f 184/221/202 183/219/200 186/211/192 187/222/203
f 183/219/200 184/221/202 189/223/204 185/220/201
f 173/208/189 170/205/186 187/222/203 186/211/192
f 194/195/176 184/221/202 187/222/203 160/196/177
f 170/205/186 162/197/178 160/196/177 187/222/203
f 188/224/205 219/225/206 182/218/199 185/220/201
f 190/226/207 188/224/205 185/220/201 189/223/204
f 192/227/208 190/226/207 189/223/204 191/228/209
f 184/221/202 194/195/176 191/228/209 189/223/204
f 195/229/210 192/227/208 191/228/209 193/230/211
f 194/195/176 159/192/173 193/230/211 191/228/209
f 197/231/212 195/229/210 193/230/211 196/232/213
f 159/192/173 157/190/171 196/232/213 193/230/211
f 199/233/214 197/231/212 196/232/213 198/234/215
f 157/190/171 155/189/170 198/234/215 196/232/213
f 201/235/216 199/233/214 198/234/215 200/236/217
f 155/189/170 202/191/172 200/236/217 198/234/215
f 127/156/137 201/235/216 200/236/217 129/157/138
f 202/191/172 131/159/140 129/157/138 200/236/217
f 131/159/140 202/191/172 151/184/165 305/162/143
f 201/235/216 127/156/137 205/158/139 203/237/218
f 199/233/214 201/235/216 203/237/218 206/238/219
f 204/239/220 207/240/221 206/238/219 203/237/218
f 247/241/222 204/239/220 203/237/218 205/158/139
f 207/240/221 209/242/223 208/243/224 206/238/219
f 197/231/212 199/233/214 206/238/219 208/243/224
f 209/242/223 211/244/225 210/245/226 208/243/224
f 195/229/210 197/231/212 208/243/224 210/245/226
f 211/244/225 213/246/227 212/247/228 210/245/226
f 192/227/208 195/229/210 210/245/226 212/247/228
f 213/246/227 215/248/229 214/249/230 212/247/228
f 190/226/207 192/227/208 212/247/228 214/249/230
f 215/248/229 217/250/231 216/251/232 214/249/230
f 188/224/205 190/226/207 214/249/230 216/251/232
f 216/251/232 217/250/231 220/252/233 218/253/234
f 188/224/205 216/251/232 218/253/234 219/225/206
f 221/254/235 222/255/236 219/225/206 218/253/234
f 223/256/237 221/254/235 218/253/234 220/252/233
f 222/255/236 221/254/235 70/86/76 72/88/77
f 221/254/235 223/256/237 225/78/70 70/86/76
f 223/256/237 220/252/233 227/257/238 224/258/239
f 223/256/237 224/258/239 63/74/67 225/78/70
f 224/258/239 226/259/240 61/72/65 63/74/67
f 229/260/241 226/259/240 224/258/239 227/257/238
f 220/252/233 217/250/231 228/261/242 227/257/238
f 231/262/243 229/260/241 227/257/238 228/261/242
f 271/263/244 226/259/240 229/260/241 230/264/245
f 231/262/243 232/265/246 230/264/245 229/260/241
f 232/265/246 231/262/243 228/261/242 234/266/247
f 232/265/246 233/267/248 269/268/249 230/264/245
f 233/267/248 232/265/246 234/266/247 235/269/250
f 215/248/229 213/246/227 235/269/250 234/266/247
f 217/250/231 215/248/229 234/266/247 228/261/242
f 237/270/251 233/267/248 235/269/250 236/271/252
f 213/246/227 211/244/225 236/271/252 235/269/250
f 239/272/253 237/270/251 236/271/252 238/273/254
f 211/244/225 209/242/223 238/273/254 236/271/252
f 241/274/255 239/272/253 238/273/254 240/275/256
f 209/242/223 207/240/221 240/275/256 238/273/254
f 243/276/257 241/274/255 240/275/256 242/277/258
f 207/240/221 204/239/220 242/277/258 240/275/256
f 245/278/259 243/276/257 242/277/258 244/279/260
f 204/239/220 247/241/222 244/279/260 242/277/258
f 249/280/261 245/278/259 244/279/260 246/281/262
f 247/241/222 248/152/133 246/281/262 244/279/260
f 248/152/133 247/241/222 205/158/139 122/150/131
f 246/281/262 248/152/133 123/147/128 250/282/263
f 249/280/261 246/281/262 250/282/263 251/283/264
f 252/284/265 253/285/266 251/283/264 250/282/263
f 119/146/127 252/284/265 250/282/263 123/147/128
f 253/285/266 252/284/265 254/286/267 255/287/268
f 252/284/265 119/146/127 117/143/124 254/286/267
f 38/288/40 40/289/41 255/287/268 254/286/267
f 36/142/38 38/288/40 254/286/267 117/143/124
f 40/289/41 42/290/43 256/291/269 255/287/268
f 258/292/270 253/285/266 255/287/268 256/291/269
f 42/290/43 44/51/45 257/54/52 256/291/269
f 259/293/271 258/292/270 256/291/269 257/54/52
f 259/293/271 261/294/272 260/295/273 258/292/270
f 251/283/264 253/285/266 258/292/270 260/295/273
f 261/294/272 243/276/257 245/278/259 260/295/273
f 249/280/261 251/283/264 260/295/273 245/278/259
f 259/293/271 264/296/274 262/297/275 261/294/272
f 241/274/255 243/276/257 261/294/272 262/297/275
f 239/272/253 241/274/255 262/297/275 263/298/276
f 264/296/274 265/299/277 263/298/276 262/297/275
f 265/299/277 264/296/274 48/53/51 50/56/53
f 264/296/274 259/293/271 257/54/52 48/53/51
f 266/300/278 265/299/277 50/56/53 52/58/55
f 265/299/277 266/300/278 268/301/279 263/298/276
f 266/300/278 267/302/280 269/268/249 268/301/279
f 267/302/280 266/300/278 52/58/55 270/62/58
f 237/270/251 239/272/253 263/298/276 268/301/279
f 233/267/248 237/270/251 268/301/279 269/268/249
f 267/302/280 271/263/244 230/264/245 269/268/249
f 271/263/244 267/302/280 270/62/58 59/70/64
f 226/259/240 271/263/244 59/70/64 61/72/65
f 222/255/236 72/88/77 74/90/79 180/217/198
f 219/225/206 222/255/236 180/217/198 182/218/199
f 179/94/82 75/93/81 272/303/86 177/214/195
f 273/304/281 175/212/193 177/214/195 272/303/86
f 275/104/91 273/305/281 272/99/86 79/98/85
f 175/212/193 273/304/281 274/306/282 304/213/194
f 273/305/281 275/104/91 276/307/283 274/308/282
f 83/103/90 87/107/94 276/307/283 275/104/91
f 277/309/284 279/310/285 274/308/282 276/307/283
f 89/109/96 277/309/284 276/307/283 87/107/94
f 89/109/96 91/111/98 278/311/286 277/309/284
f 281/312/287 279/310/285 277/309/284 278/311/286
f 280/313/288 279/314/285 281/315/287 282/316/289
f 279/314/285 280/313/288 304/213/194 274/306/282
f 283/317/290 284/318/291 282/316/289 281/315/287
f 283/319/290 281/312/287 278/311/286 286/320/292
f 284/318/291 283/317/290 285/321/293 302/180/161
f 285/322/293 283/323/290 286/324/292 287/325/294
f 93/114/100 95/117/102 287/325/294 286/324/292
f 93/113/100 286/320/292 278/311/286 91/111/98
f 289/326/295 285/322/293 287/325/294 288/327/296
f 97/119/104 288/327/296 287/325/294 95/117/102
f 97/119/104 99/121/106 290/328/297 288/327/296
f 289/326/295 288/327/296 290/328/297 292/329/298
f 290/328/297 99/121/106 101/123/108 291/330/299
f 291/330/299 293/331/300 292/329/298 290/328/297
f 145/177/158 289/332/295 292/333/298 143/175/156
f 293/334/300 141/173/154 143/175/156 292/333/298
f 141/173/154 293/334/300 294/335/301 295/174/155
f 293/331/300 291/330/299 297/336/302 294/337/301
f 296/338/303 299/339/304 295/174/155 294/335/301
f 298/340/305 296/341/303 294/337/301 297/336/302
f 101/123/108 103/125/110 297/336/302 291/330/299
f 297/336/302 103/125/110 105/127/112 298/340/305
f 105/127/112 107/129/114 111/133/118 298/340/305
f 114/135/120 296/341/303 298/340/305 111/133/118
f 299/339/304 296/338/303 114/141/120 300/140/123
f 299/339/304 134/165/146 136/166/147 295/174/155
f 134/165/146 299/339/304 300/140/123 301/154/135
f 113/139/122 120/145/126 301/154/135 300/140/123
f 289/332/295 145/177/158 302/180/161 285/321/293
f 303/200/181 284/318/291 302/180/161 146/179/160
f 284/318/291 303/200/181 165/201/182 282/316/289
f 164/187/168 303/200/181 146/179/160 148/181/162
f 167/202/183 280/313/288 282/316/289 165/201/182
f 280/313/288 167/202/183 169/204/185 304/213/194
f 150/172/153 139/169/150 132/163/144 305/162/143
