# Blender 4.5.12 LTS
# www.blender.org
o Decal-L1
v -32.311249 -9.672825 48.241693
v -31.863809 -9.324373 47.936287
v -32.445855 -9.095152 48.046384
v -32.965947 -9.425276 48.355143
v -33.687696 -9.919093 48.737835
v -32.916795 -10.181052 48.683684
v -34.411710 -10.427726 49.096528
v -33.524651 -10.704582 49.086470
v -35.137862 -10.946964 49.435619
v -34.136433 -11.240796 49.467090
v -35.864483 -11.470170 49.761738
v -34.746427 -11.779514 49.841013
v -36.598321 -12.008921 50.038893
v -35.362903 -12.335380 50.174448
v -37.336927 -12.559955 50.276678
v -35.983406 -12.904481 50.475348
v -36.611203 -13.485515 50.710987
v -38.083304 -13.120812 50.442789
v -38.218472 -13.222386 50.472874
v -36.724903 -13.590743 50.753649
v -39.402436 -12.644433 50.148595
v -39.557770 -12.738527 50.164882
v -38.544718 -12.124882 50.058711
v -39.593499 -11.625306 49.845036
v -40.545601 -12.094148 49.861107
v -40.718030 -12.179059 49.864027
v -41.363511 -11.610423 49.641315
v -41.549049 -11.686050 49.634728
v -42.125892 -11.051142 49.405444
v -42.322718 -11.115284 49.389574
v -42.715363 -10.520251 49.184594
v -42.920884 -10.571570 49.160059
v -41.580513 -10.236883 49.320038
v -41.039161 -10.696963 49.493279
v -39.781652 -10.288910 49.507867
v -40.239409 -9.934721 49.411434
v -40.860057 -9.378393 49.235891
v -42.040251 -9.640758 49.174804
v -43.193497 -9.885104 49.002599
v -43.402351 -9.929353 48.971426
v -43.367285 -9.661877 48.897076
v -43.578781 -9.701708 48.861865
v -42.199448 -9.441954 49.091492
v -42.330641 -9.278280 49.023021
v -43.494955 -9.498113 48.818897
v -43.705821 -9.537925 48.781920
v -43.548684 -9.410245 48.651296
v -43.760374 -9.450251 48.613775
v -42.379755 -9.189346 48.858527
v -41.213903 -8.969569 48.963208
v -41.168809 -9.059103 49.127374
v -40.045120 -8.749985 49.006369
v -40.004793 -8.840271 49.167488
v -38.873687 -8.530826 48.973139
v -38.838372 -8.621914 49.128305
v -37.672140 -8.403846 49.067553
v -37.700876 -8.311645 48.919547
v -36.508970 -8.186822 48.967402
v -36.530465 -8.093366 48.830528
v -37.533067 -8.566504 49.090851
v -36.369830 -8.349617 48.976037
v -35.352606 -7.971698 48.815880
v -35.217237 -8.135357 48.809398
v -34.417741 -7.987895 48.628229
v -34.549698 -7.823327 48.644390
v -35.364974 -7.876578 48.696007
v -34.556989 -7.727157 48.550073
v -33.746797 -7.674960 48.443775
v -33.748995 -7.577735 48.374977
v -33.618253 -7.840439 48.417914
v -33.636499 -7.711197 48.380222
v -33.520158 -7.822176 48.355464
v -33.453539 -7.811607 48.292372
v -33.610027 -7.650488 48.343871
v -33.367753 -7.932765 48.291344
v -33.306118 -7.922706 48.220027
v -33.215348 -8.043354 48.227217
v -33.158697 -8.033802 48.147689
v -33.057351 -8.139343 48.147995
v -33.003867 -8.129039 48.063759
v -32.825477 -8.265463 48.008960
v -32.774072 -8.252376 47.922615
v -32.587055 -8.382754 47.873948
v -32.536339 -8.366448 47.787759
v -32.268844 -8.530037 47.740686
v -32.219931 -8.510274 47.654334
v -32.367006 -8.575720 47.829840
v -32.696422 -8.428273 47.960538
v -32.910410 -8.867090 48.143711
v -33.275753 -8.700104 48.238594
v -33.492763 -9.176930 48.443083
v -33.915386 -8.980126 48.531975
v -34.309886 -9.645493 48.792932
v -34.825373 -9.404992 48.848916
v -35.184070 -10.110923 49.111608
v -35.801295 -9.814558 49.128774
v -36.027588 -10.600452 49.400855
v -36.723200 -10.261466 49.372759
v -36.858581 -11.098952 49.674395
v -37.646402 -10.710952 49.599584
v -37.698492 -11.607726 49.889918
v -38.653407 -11.152801 49.742576
v -31.942915 -8.765028 47.737617
v -31.850897 -8.715083 47.647748
v -31.805456 -8.693774 47.556672
v -31.332251 -8.921922 47.542188
v -31.291824 -8.899552 47.448020
v -31.416368 -8.975924 47.630865
v -39.231893 -10.743243 49.628552
v -40.338982 -11.192777 49.677748
v -38.793366 -9.973005 49.454566
v -38.234334 -10.363330 49.533713
v -37.244342 -9.961986 49.345057
v -37.742007 -9.626088 49.306299
v -38.078647 -9.364729 49.268294
v -39.171632 -9.670706 49.385998
v -39.705075 -9.159234 49.256068
v -39.867930 -9.003085 49.216408
v -41.034255 -9.222248 49.186613
v -38.699932 -8.784556 49.165059
v -38.532719 -8.940705 49.192849
v -37.360474 -8.722649 49.103711
v -36.191851 -8.505763 48.969891
v -35.033312 -8.291499 48.778537
v -34.250494 -8.128581 48.573535
v -33.476081 -7.961256 48.358720
v -33.333909 -8.082074 48.299525
v -34.076702 -8.274769 48.516702
v -33.890862 -8.396660 48.447449
v -33.179779 -8.183257 48.224825
v -32.942500 -8.312335 48.090834
v -33.588756 -8.555853 48.338774
v -34.268655 -8.806505 48.616353
v -35.244152 -9.187148 48.897613
v -36.255736 -9.562643 49.138631
v -36.692049 -9.280832 49.139816
v -35.647832 -8.942572 48.940386
v -35.901308 -8.760662 48.959840
v -36.987405 -9.060157 49.131501
v -34.824539 -8.468741 48.743497
v -34.611326 -8.613405 48.698563
vn 0.3007 0.3677 0.8800
vn 0.2465 0.4002 0.8827
vn 0.1737 0.4301 0.8859
vn 0.1247 0.4466 0.8860
vn 0.0874 0.4694 0.8787
vn 0.0397 0.4490 0.8927
vn -0.0033 0.4364 0.8998
vn -0.0543 0.3890 0.9196
vn -0.0691 0.4040 0.9122
vn -0.0857 0.3484 0.9334
vn -0.0717 0.3297 0.9414
vn -0.0904 0.2686 0.9590
vn -0.1030 0.2907 0.9513
vn -0.1186 0.2425 0.9629
vn -0.1382 0.2230 0.9650
vn -0.1611 0.2251 0.9609
vn -0.1561 0.2060 0.9660
vn -0.0957 0.2051 0.9741
vn -0.0994 0.1794 0.9788
vn -0.1628 0.1362 0.9772
vn -0.1682 0.1569 0.9732
vn -0.2039 0.2861 0.9363
vn -0.2011 0.2614 0.9441
vn -0.2165 0.3073 0.9266
vn -0.2374 0.3334 0.9124
vn -0.2333 0.8063 0.5436
vn -0.2475 0.7920 0.5580
vn -0.2018 0.8036 0.5599
vn -0.1718 0.8093 0.5617
vn -0.1335 0.8105 0.5703
vn -0.1196 0.7996 0.5885
vn -0.0947 0.7823 0.6156
vn 0.0489 0.2155 0.9753
vn 0.1019 0.1701 0.9801
vn 0.1842 0.1468 0.9719
vn 0.0144 0.6972 0.7168
vn 0.0770 0.6100 0.7886
vn 0.2274 0.1095 0.9676
vn 0.4823 0.2783 0.8306
vn 0.5564 0.3420 0.7573
vn 0.4552 0.4425 0.7726
vn 0.6110 0.4105 0.6769
vn 0.6323 0.4773 0.6102
vn 0.6227 0.5441 0.5623
vn 0.6256 0.5710 0.5315
vn 0.5862 0.6291 0.5106
vn 0.5213 0.7012 0.4864
vn 0.4980 0.4046 0.7670
vn 0.3843 0.1898 0.9035
vn 0.3247 0.2461 0.9132
vn 0.2494 0.2216 0.9427
vn 0.1841 0.2592 0.9481
vn 0.1325 0.2898 0.9479
vn 0.0933 0.3240 0.9414
vn 0.0270 0.3064 0.9515
vn -0.0255 0.3066 0.9515
vn -0.0129 0.3722 0.9281
vn 0.0361 0.3805 0.9241
vn 0.0916 0.3964 0.9135
vn 0.1346 0.3645 0.9214
vn 0.1880 0.3339 0.9237
vn 0.2511 0.2991 0.9206
vn 0.3157 0.3085 0.8973
vn 0.3401 0.3191 0.8846
vn 0.4050 0.5567 0.7253
vn 0.4441 0.7747 0.4501
vn 0.4081 0.8152 0.4110
vn 0.3845 0.6011 0.7006
vn 0.3165 0.3597 0.8777
vn -0.0433 0.2548 0.9660
vn -0.1094 0.2221 0.9689
vn -0.1316 0.2039 0.9701
vn -0.0671 0.2241 0.9723
vn -0.0055 0.2233 0.9747
vn 0.0663 0.2534 0.9651
vn 0.0463 0.2423 0.9691
vn -0.0234 0.2156 0.9762
vn -0.0471 0.2273 0.9727
vn -0.0611 0.2124 0.9753
vn 0.0069 0.2183 0.9759
vn 0.0372 0.1687 0.9850
vn 0.0839 0.1154 0.9898
vn 0.1437 0.0495 0.9884
vn 0.2363 0.0011 0.9717
vn 0.2783 -0.0770 0.9574
vn 0.4977 0.1687 0.8508
vn 0.4929 0.1611 0.8550
vn 0.2909 -0.0683 0.9543
vn 0.3199 -0.1192 0.9399
vn 0.5111 0.1363 0.8487
vn 0.5521 0.1259 0.8242
vn 0.3611 -0.1152 0.9254
vn 0.3931 0.0088 0.9195
vn 0.3342 0.1690 0.9272
vn 0.2411 0.1481 0.9591
vn 0.1731 0.2016 0.9641
vn 0.1195 0.2425 0.9627
vn 0.0828 0.2806 0.9563
vn 0.0128 0.2493 0.9683
vn 0.1007 0.2113 0.9722
vn 0.1526 0.1621 0.9749
vn 0.1272 0.1461 0.9811
vn 0.0787 0.1969 0.9773
vn 0.0538 0.1913 0.9801
vn 0.0226 0.2373 0.9712
vn 0.1009 0.1426 0.9846
vn 0.1609 0.0829 0.9835
vn 0.2632 0.0383 0.9640
vn 0.2990 0.0403 0.9534
vn 0.3259 0.0898 0.9411
vn 0.2189 0.0951 0.9711
vn 0.1896 0.0772 0.9788
vn 0.5541 0.2264 0.8011
vn 0.0066 0.2591 0.9658
vn -0.0198 0.3011 0.9534
vn -0.0865 0.3082 0.9474
vn -0.1399 0.3153 0.9386
vn -0.1155 0.2497 0.9614
vn -0.0575 0.7519 0.6567
vt 0.452119 0.878982
vt 0.441298 0.873367
vt 0.451720 0.866924
vt 0.463934 0.872169
vt 0.480544 0.880154
vt 0.466852 0.887848
vt 0.496988 0.888493
vt 0.481265 0.897048
vt 0.513329 0.897061
vt 0.495564 0.906516
vt 0.529582 0.905741
vt 0.509727 0.916167
vt 0.545835 0.914388
vt 0.523866 0.925874
vt 0.562107 0.923006
vt 0.538001 0.935636
vt 0.552208 0.945134
vt 0.578467 0.931278
vt 0.581426 0.932779
vt 0.554780 0.946867
vt 0.601501 0.916043
vt 0.604811 0.917262
vt 0.583199 0.909327
vt 0.601124 0.895198
vt 0.621050 0.900298
vt 0.624656 0.901223
vt 0.634740 0.887338
vt 0.638568 0.887998
vt 0.647109 0.873096
vt 0.651116 0.873452
vt 0.656305 0.860055
vt 0.660433 0.860086
vt 0.633505 0.859831
vt 0.624989 0.871113
vt 0.599542 0.868383
vt 0.606869 0.859724
vt 0.616492 0.846371
vt 0.639818 0.846441
vt 0.662794 0.845635
vt 0.666966 0.845487
vt 0.665273 0.840339
vt 0.669480 0.840069
vt 0.642076 0.841789
vt 0.643935 0.837959
vt 0.667086 0.836446
vt 0.671287 0.836168
vt 0.668090 0.832778
vt 0.672308 0.832491
vt 0.644768 0.834320
vt 0.621735 0.835164
vt 0.621109 0.838831
vt 0.598740 0.835720
vt 0.598321 0.839351
vt 0.575726 0.835846
vt 0.575478 0.839388
vt 0.552603 0.839240
vt 0.552689 0.835823
vt 0.529744 0.838782
vt 0.529642 0.835552
vt 0.550514 0.842846
vt 0.527598 0.842334
vt 0.506925 0.837989
vt 0.504778 0.841493
vt 0.488746 0.840685
vt 0.490898 0.837187
vt 0.506582 0.835044
vt 0.490441 0.834613
vt 0.474786 0.836232
vt 0.474190 0.834003
vt 0.472607 0.839652
vt 0.472380 0.837009
vt 0.470357 0.839475
vt 0.468580 0.839310
vt 0.471521 0.835824
vt 0.467393 0.841964
vt 0.465571 0.841753
vt 0.464454 0.844478
vt 0.462579 0.844201
vt 0.461264 0.846731
vt 0.459362 0.846403
vt 0.456264 0.849694
vt 0.454351 0.849251
vt 0.451116 0.852442
vt 0.449229 0.851847
vt 0.444702 0.856006
vt 0.442877 0.855244
vt 0.447331 0.856806
vt 0.453905 0.853139
vt 0.460130 0.861173
vt 0.467002 0.857051
vt 0.473432 0.865895
vt 0.481242 0.861023
vt 0.491623 0.873018
vt 0.500877 0.866941
vt 0.510629 0.879880
vt 0.521486 0.872278
vt 0.528958 0.887242
vt 0.541021 0.878367
vt 0.546994 0.894780
vt 0.560523 0.884408
vt 0.565068 0.902132
vt 0.581424 0.889527
vt 0.439648 0.861951
vt 0.437134 0.861029
vt 0.435339 0.860100
vt 0.427865 0.866983
vt 0.426121 0.865941
vt 0.430233 0.868013
vt 0.590840 0.879329
vt 0.613601 0.883690
vt 0.579586 0.865959
vt 0.570414 0.875554
vt 0.549913 0.870850
vt 0.558220 0.862688
vt 0.563703 0.856479
vt 0.585638 0.858695
vt 0.593840 0.846732
vt 0.596340 0.843077
vt 0.619185 0.842616
vt 0.573437 0.843056
vt 0.570819 0.846671
vt 0.547750 0.846413
vt 0.524659 0.845853
vt 0.501606 0.844974
vt 0.485689 0.843805
vt 0.469901 0.842291
vt 0.467197 0.844936
vt 0.482493 0.847031
vt 0.478933 0.849819
vt 0.464126 0.847262
vt 0.459118 0.850343
vt 0.473058 0.853571
vt 0.487828 0.856806
vt 0.508371 0.861605
vt 0.529390 0.866049
vt 0.536837 0.859287
vt 0.515486 0.855794
vt 0.519843 0.851586
vt 0.541760 0.854113
vt 0.497990 0.848917
vt 0.494155 0.852239
s 0
f 1/1/1 2/2/1 3/3/1 4/4/1
f 4/4/2 5/5/2 6/6/2 1/1/2
f 5/5/3 7/7/3 8/8/3 6/6/3
f 7/7/4 9/9/4 10/10/4 8/8/4
f 9/9/5 11/11/5 12/12/5 10/10/5
f 11/11/6 13/13/6 14/14/6 12/12/6
f 13/13/7 15/15/7 16/16/7 14/14/7
f 17/17/8 16/16/8 15/15/8 18/18/8
f 18/18/9 19/19/9 20/20/9 17/17/9
f 21/21/10 22/22/10 19/19/10 18/18/10
f 18/18/11 15/15/11 23/23/11 21/21/11
f 21/21/12 23/23/12 24/24/12 25/25/12
f 25/25/13 26/26/13 22/22/13 21/21/13
f 26/26/14 25/25/14 27/27/14 28/28/14
f 28/28/15 27/27/15 29/29/15 30/30/15
f 31/31/16 32/32/16 30/30/16 29/29/16
f 33/33/17 31/31/17 29/29/17 34/34/17
f 34/34/18 35/35/18 36/36/18 33/33/18
f 33/33/19 36/36/19 37/37/19 38/38/19
f 31/31/20 33/33/20 38/38/20 39/39/20
f 39/39/21 40/40/21 32/32/21 31/31/21
f 41/41/22 42/42/22 40/40/22 39/39/22
f 38/38/23 43/43/23 41/41/23 39/39/23
f 41/41/24 43/43/24 44/44/24 45/45/24
f 45/45/25 46/46/25 42/42/25 41/41/25
f 47/47/26 48/48/26 46/46/26 45/45/26
f 45/45/27 44/44/27 49/49/27 47/47/27
f 50/50/28 49/49/28 44/44/28 51/51/28
f 52/52/29 50/50/29 51/51/29 53/53/29
f 54/54/30 52/52/30 53/53/30 55/55/30
f 54/54/31 55/55/31 56/56/31 57/57/31
f 58/58/32 59/59/32 57/57/32 56/56/32
f 58/58/33 56/56/33 60/60/33 61/61/33
f 62/62/34 58/58/34 61/61/34 63/63/34
f 63/63/35 64/64/35 65/65/35 62/62/35
f 66/66/36 62/62/36 65/65/36 67/67/36
f 68/68/37 69/69/37 67/67/37 65/65/37
f 64/64/38 70/70/38 68/68/38 65/65/38
f 71/71/39 68/68/39 70/70/39 72/72/39
f 72/72/40 73/73/40 74/74/40 71/71/40
f 71/71/41 74/74/41 69/69/41 68/68/41
f 73/73/42 72/72/42 75/75/42 76/76/42
f 76/76/43 75/75/43 77/77/43 78/78/43
f 78/78/44 77/77/44 79/79/44 80/80/44
f 80/80/45 79/79/45 81/81/45 82/82/45
f 82/82/46 81/81/46 83/83/46 84/84/46
f 85/85/47 86/86/47 84/84/47 83/83/47
f 87/87/48 85/85/48 83/83/48 88/88/48
f 89/89/49 87/87/49 88/88/49 90/90/49
f 91/91/50 89/89/50 90/90/50 92/92/50
f 93/93/51 91/91/51 92/92/51 94/94/51
f 95/95/52 93/93/52 94/94/52 96/96/52
f 97/97/53 95/95/53 96/96/53 98/98/53
f 99/99/54 97/97/54 98/98/54 100/100/54
f 101/101/55 99/99/55 100/100/55 102/102/55
f 102/102/56 24/24/56 23/23/56 101/101/56
f 101/101/57 23/23/57 15/15/57 13/13/57
f 99/99/58 101/101/58 13/13/58 11/11/58
f 97/97/59 99/99/59 11/11/59 9/9/59
f 95/95/60 97/97/60 9/9/60 7/7/60
f 93/93/61 95/95/61 7/7/61 5/5/61
f 91/91/62 93/93/62 5/5/62 4/4/62
f 4/4/63 3/3/63 89/89/63 91/91/63
f 3/3/64 103/103/64 87/87/64 89/89/64
f 85/85/65 87/87/65 103/103/65 104/104/65
f 104/104/66 105/105/66 86/86/66 85/85/66
f 106/106/67 107/107/67 105/105/67 104/104/67
f 104/104/68 103/103/68 108/108/68 106/106/68
f 2/2/69 108/108/69 103/103/69 3/3/69
f 24/24/70 102/102/70 109/109/70 110/110/70
f 25/25/71 24/24/71 110/110/71 27/27/71
f 34/34/72 29/29/72 27/27/72 110/110/72
f 110/110/73 109/109/73 35/35/73 34/34/73
f 111/111/74 35/35/74 109/109/74 112/112/74
f 112/112/75 113/113/75 114/114/75 111/111/75
f 111/111/76 114/114/76 115/115/76 116/116/76
f 35/35/77 111/111/77 116/116/77 36/36/77
f 36/36/78 116/116/78 117/117/78 37/37/78
f 118/118/79 119/119/79 37/37/79 117/117/79
f 120/120/80 118/118/80 117/117/80 121/121/80
f 60/60/81 120/120/81 121/121/81 122/122/81
f 61/61/82 60/60/82 122/122/82 123/123/82
f 63/63/83 61/61/83 123/123/83 124/124/83
f 64/64/84 63/63/84 124/124/84 125/125/84
f 70/70/85 64/64/85 125/125/85 126/126/85
f 72/72/86 70/70/86 126/126/86 75/75/86
f 127/127/87 77/77/87 75/75/87 126/126/87
f 126/126/88 125/125/88 128/128/88 127/127/88
f 127/127/89 128/128/89 129/129/89 130/130/89
f 130/130/90 79/79/90 77/77/90 127/127/90
f 131/131/91 81/81/91 79/79/91 130/130/91
f 130/130/92 129/129/92 132/132/92 131/131/92
f 90/90/93 88/88/93 131/131/93 132/132/93
f 132/132/94 133/133/94 92/92/94 90/90/94
f 133/133/95 134/134/95 94/94/95 92/92/95
f 96/96/96 94/94/96 134/134/96 135/135/96
f 135/135/97 113/113/97 98/98/97 96/96/97
f 100/100/98 98/98/98 113/113/98 112/112/98
f 102/102/99 100/100/99 112/112/99 109/109/99
f 136/136/100 114/114/100 113/113/100 135/135/100
f 135/135/101 134/134/101 137/137/101 136/136/101
f 136/136/102 137/137/102 138/138/102 139/139/102
f 114/114/103 136/136/103 139/139/103 115/115/103
f 115/115/104 139/139/104 122/122/104 121/121/104
f 116/116/105 115/115/105 121/121/105 117/117/105
f 139/139/106 138/138/106 123/123/106 122/122/106
f 138/138/107 140/140/107 124/124/107 123/123/107
f 125/125/108 124/124/108 140/140/108 128/128/108
f 128/128/109 140/140/109 141/141/109 129/129/109
f 129/129/110 141/141/110 133/133/110 132/132/110
f 141/141/111 137/137/111 134/134/111 133/133/111
f 137/137/112 141/141/112 140/140/112 138/138/112
f 88/88/113 83/83/113 81/81/113 131/131/113
f 56/56/114 55/55/114 120/120/114 60/60/114
f 55/55/115 53/53/115 118/118/115 120/120/115
f 53/53/116 51/51/116 119/119/116 118/118/116
f 51/51/117 44/44/117 43/43/117 119/119/117
f 119/119/118 43/43/118 38/38/118 37/37/118
f 59/59/119 58/58/119 62/62/119 66/66/119
