# Blender 4.5.3 LTS
# www.blender.org
o Dualsense.046
v 54.078281 -16.156796 35.676331
v 54.078281 -16.305588 35.676331
v 53.647903 -16.156796 36.479851
v 54.341984 -16.156796 34.803879
v 54.341984 -16.305513 34.803871
v 54.432148 -16.156796 33.896881
v 54.341949 -16.156796 32.989761
v 54.432148 -16.306002 33.896881
v 54.341949 -16.307058 32.989761
v 54.432148 -17.256800 33.896881
v 54.341949 -17.264616 32.989761
v 54.432148 -19.810783 33.896881
v 54.341984 -17.253246 34.803879
v 54.341984 -19.798967 34.803871
v 54.078281 -17.253771 35.676331
v 54.078281 -19.800726 35.676331
v 53.647903 -17.258226 36.479851
v 53.647903 -19.815504 36.479851
v 53.070316 -17.265640 37.185150
v 53.647903 -16.306194 36.479851
v 53.070312 -16.307201 37.185150
v 53.070312 -16.156796 37.185150
v 52.364948 -16.308489 37.762962
v 52.364948 -17.275080 37.762962
v 52.364948 -16.156796 37.762962
v 51.561134 -16.309910 38.193657
v 51.561134 -16.156796 38.193657
v 51.561134 -17.285633 38.193657
v 50.688114 -16.311369 38.457581
v 50.688114 -17.296373 38.457581
v 50.688114 -16.156796 38.457581
v 49.780491 -16.312811 38.547844
v 49.780491 -16.156796 38.547844
v 49.780499 -17.307009 38.547844
v 48.872856 -16.314209 38.457558
v 48.872856 -17.317284 38.457558
v 48.872856 -16.156796 38.457558
v 47.999763 -16.315567 38.193619
v 47.999763 -16.156796 38.193619
v 47.999771 -17.327372 38.193619
v 47.195763 -16.316938 37.762901
v 47.195763 -17.337437 37.762901
v 47.195763 -16.156796 37.762901
v 46.490162 -16.318283 37.184975
v 46.490162 -16.156796 37.184975
v 46.490162 -17.347317 37.184975
v 45.912235 -16.319569 36.479431
v 45.912235 -17.356838 36.479431
v 45.912231 -16.156796 36.479431
v 45.481552 -16.320765 35.675583
v 45.481552 -16.156796 35.675583
v 45.481552 -17.365631 35.675583
v 45.217663 -16.321808 34.802734
v 45.217663 -17.373371 34.802734
v 45.217663 -16.156796 34.802734
v 45.127415 -16.322657 33.895439
v 45.127415 -16.156796 33.895439
v 45.127415 -17.379551 33.895439
v 45.217636 -16.323196 32.988213
v 45.217636 -17.383694 32.988213
v 45.217636 -16.156796 32.988213
v 45.481461 -16.323500 32.115570
v 45.481461 -16.156796 32.115570
v 45.481461 -17.385807 32.115570
v 45.911995 -16.323513 31.311989
v 45.911995 -17.385889 31.311981
v 45.911995 -16.156796 31.311981
v 46.489719 -16.323257 30.606728
v 46.489719 -16.156796 30.606720
v 46.489731 -17.383978 30.606728
v 47.195080 -16.322727 30.029045
v 47.195080 -17.380096 30.029045
v 47.195080 -16.156796 30.029045
v 47.998817 -16.321934 29.598511
v 47.998829 -16.156796 29.598511
v 47.998829 -17.374310 29.598511
v 48.871708 -16.320906 29.334686
v 48.871708 -17.366669 29.334686
v 48.871708 -16.156796 29.334686
v 49.779190 -16.319628 29.244469
v 49.779190 -16.156796 29.244469
v 49.779198 -17.357286 29.244469
v 50.686779 -16.318138 29.334755
v 50.686779 -17.346308 29.334755
v 50.686779 -16.156796 29.334755
v 51.559875 -16.316433 29.598717
v 51.559875 -16.156796 29.598717
v 51.559875 -17.333700 29.598717
v 52.363937 -16.314495 30.029495
v 52.363937 -17.319452 30.029495
v 52.363937 -16.156796 30.029495
v 53.069592 -16.312458 30.607506
v 53.069592 -16.156796 30.607506
v 53.069592 -17.304409 30.607506
v 53.647522 -16.310442 31.313141
v 53.647522 -17.289471 31.313141
v 53.647522 -16.156796 31.313141
v 54.078159 -16.308575 32.117012
v 54.078159 -16.156796 32.117012
v 54.078144 -17.275799 32.117012
v 54.078159 -19.873901 32.117012
v 53.647522 -19.919302 31.313141
v 54.078144 -21.775934 32.117012
v 54.341949 -19.836758 32.989761
v 54.341949 -21.712805 32.989761
v 54.432148 -21.668701 33.896881
v 54.341949 -22.670372 32.989761
v 54.432148 -22.619497 33.896881
v 54.315395 -22.790510 32.993065
v 54.078159 -22.743158 32.117012
v 53.647514 -22.832092 31.313141
v 54.053936 -22.863979 32.123985
v 53.627296 -22.953699 31.324005
v 53.981342 -22.922892 32.144905
v 53.566635 -23.011227 31.356621
v 53.822937 -22.968620 32.190536
v 54.235760 -22.850397 33.002991
v 54.061996 -22.899094 33.024628
v 54.322823 -22.799570 33.895882
v 54.404819 -22.739126 33.896637
v 54.143921 -22.850077 33.894257
v 54.235447 -22.776268 34.788628
v 54.061134 -22.827324 34.763687
v 54.315346 -22.715683 34.800072
v 53.980930 -22.779352 35.646408
v 53.821640 -22.829714 35.597443
v 53.566532 -22.807695 36.434387
v 54.053940 -22.719070 35.668854
v 53.627563 -22.748169 36.468475
v 54.078281 -22.599787 35.676331
v 53.647903 -22.628727 36.479851
v 54.078285 -21.651613 35.676331
v 54.341984 -22.596340 34.803879
v 54.341984 -21.648615 34.803879
v 53.647903 -21.676708 36.479851
v 53.070316 -21.718580 37.185150
v 53.070312 -19.840147 37.185150
v 52.364948 -21.771889 37.762962
v 53.070312 -22.677011 37.185150
v 53.054665 -22.796776 37.169693
v 52.364948 -22.738489 37.762962
v 51.561134 -22.807165 38.193657
v 52.353725 -22.858753 37.743217
v 51.554016 -22.928062 38.170280
v 52.320026 -22.916193 37.683998
v 52.246529 -22.958748 37.554771
v 53.007725 -22.855297 37.123344
v 51.532639 -22.984524 38.100166
v 51.485996 -23.024172 37.947182
v 50.674747 -23.054405 38.355637
v 50.652855 -23.091755 38.188820
v 50.684772 -22.998650 38.432091
v 49.781578 -23.123953 38.442970
v 49.780769 -23.068686 38.521637
v 49.783360 -23.159433 38.271370
v 48.888374 -23.191225 38.354736
v 48.913754 -23.225080 38.186478
v 48.876740 -23.136354 38.431854
v 48.030182 -23.257198 38.098679
v 48.007381 -23.202755 38.169876
v 48.079964 -23.289371 37.943336
v 47.242073 -23.322836 37.682579
v 47.317829 -23.352961 37.551163
v 47.207340 -23.269005 37.742813
v 46.553474 -23.386862 37.122200
v 46.505989 -23.333902 37.169281
v 46.657078 -23.414362 37.019478
v 45.993809 -23.447994 36.433311
v 46.127304 -23.472008 36.357841
v 45.932632 -23.396282 36.467903
v 45.578663 -23.504391 35.645203
v 45.505833 -23.453951 35.667992
v 45.737587 -23.525011 35.595497
v 45.323620 -23.554268 34.787163
v 45.497002 -23.572426 34.761673
v 45.244160 -23.504696 34.798851
v 45.236076 -23.594416 33.894218
v 45.154575 -23.545313 33.895134
v 45.413902 -23.611073 33.892220
v 45.323479 -23.621618 33.001389
v 45.496674 -23.637760 33.022942
v 45.244118 -23.572620 32.991508
v 45.578373 -23.635897 32.143654
v 45.505692 -23.586611 32.122581
v 45.736973 -23.652491 32.189629
v 45.993324 -23.637276 31.355995
v 46.126385 -23.655212 31.428009
v 45.932335 -23.587364 31.322983
v 46.552734 -23.625422 30.667580
v 46.505474 -23.574936 30.621933
v 46.655872 -23.644772 30.767181
v 47.241074 -23.600027 30.107605
v 47.316341 -23.619965 30.236176
v 47.206577 -23.549417 30.048691
v 48.028931 -23.561842 29.691879
v 48.006340 -23.511230 29.621857
v 48.078197 -23.582174 29.844658
v 48.886944 -23.511591 29.436203
v 48.911884 -23.532829 29.602325
v 48.875507 -23.460827 29.360069
v 49.780083 -23.450157 29.348167
v 49.779411 -23.399069 29.270401
v 49.781517 -23.472845 29.517868
v 50.673283 -23.378439 29.435364
v 50.651192 -23.403179 29.599991
v 50.683418 -23.326777 29.359909
v 51.531376 -23.296532 29.690598
v 51.552750 -23.243885 29.621689
v 51.484695 -23.324295 29.840958
v 52.319160 -23.204519 30.106689
v 52.245869 -23.236666 30.233017
v 52.352734 -23.150362 30.048798
v 53.007339 -23.107666 30.667442
v 53.054031 -23.051775 30.622490
v 52.905464 -23.144722 30.765511
v 52.724358 -23.210585 30.939865
v 53.434284 -23.052942 31.427757
v 53.199013 -23.127100 31.554237
v 53.541321 -23.049929 32.271667
v 52.907394 -23.214504 31.709015
v 53.186222 -23.147295 32.370811
v 52.505177 -23.286762 31.156441
v 52.606071 -23.295954 31.865051
v 52.235477 -23.372757 31.966949
v 52.289127 -23.354746 31.381149
v 52.807377 -23.241207 32.470497
v 52.359531 -23.332483 32.542709
v 52.937504 -23.192751 33.158440
v 53.360935 -23.090191 33.110367
v 52.984203 -23.155685 33.887672
v 52.444637 -23.293097 33.195557
v 51.844196 -23.390945 33.209976
v 52.477119 -23.260183 33.887215
v 51.863846 -23.360882 33.886208
v 52.443283 -23.239359 34.579437
v 51.844002 -23.339424 34.563469
v 52.356876 -23.228664 35.232704
v 52.935246 -23.135088 34.616982
v 53.358402 -23.027658 34.666740
v 52.803440 -23.129980 35.304840
v 53.182121 -23.026451 35.405952
v 52.601566 -23.139364 35.909698
v 52.903629 -23.043808 36.067680
v 52.285450 -23.163742 36.393120
v 52.231598 -23.226116 35.807503
v 51.734863 -23.301477 35.814766
v 52.088570 -23.220160 36.185486
v 51.719093 -23.266624 36.327003
v 51.153297 -23.319096 36.450455
v 51.810921 -23.203667 36.716682
v 51.959965 -23.122854 37.032974
v 51.214043 -23.253954 36.923782
v 51.305298 -23.177460 37.321609
v 50.530918 -23.309443 37.057838
v 50.569481 -23.236450 37.502930
v 49.804428 -23.366890 37.105522
v 50.506332 -23.374117 36.535179
v 50.503742 -23.427448 35.913200
v 49.818314 -23.429688 36.567406
v 49.831802 -23.482975 35.931023
v 49.129345 -23.483793 36.533371
v 49.157921 -23.536894 35.911613
v 48.477188 -23.533533 36.447449
v 49.077438 -23.423101 37.053482
v 49.016014 -23.356388 37.496597
v 48.391003 -23.476622 36.916687
v 48.277992 -23.413944 37.311256
v 47.786110 -23.526056 36.710014
v 47.618015 -23.469038 37.023270
v 47.304115 -23.569605 36.387909
v 47.899536 -23.575954 36.323997
v 47.901020 -23.617136 35.811485
v 47.518501 -23.593849 36.181824
v 47.381332 -23.627794 35.803764
v 47.262550 -23.656670 35.227943
v 46.986393 -23.605511 35.904785
v 46.664677 -23.563440 36.062202
v 46.785564 -23.637667 35.299973
v 46.383648 -23.603010 35.401482
v 46.654209 -23.669987 34.612816
v 46.205311 -23.640699 34.662865
v 46.605820 -23.699570 33.884575
v 47.180061 -23.685236 34.575470
v 47.810925 -23.679125 34.560059
v 47.147873 -23.712065 33.884651
v 47.792946 -23.703989 33.884377
v 47.179909 -23.735754 33.193817
v 47.810154 -23.728251 33.208702
v 47.262428 -23.754700 32.542603
v 46.653824 -23.723536 33.156494
v 46.204517 -23.698244 33.108429
v 46.784954 -23.741476 32.470619
v 46.382210 -23.714836 32.370972
v 46.985935 -23.752956 31.868980
v 46.662857 -23.723013 31.712311
v 47.303333 -23.751278 31.388840
v 47.381687 -23.767330 31.970741
v 47.899609 -23.756512 31.962318
v 47.518066 -23.760347 31.594734
v 47.897953 -23.751947 31.453255
v 48.473515 -23.717432 31.328461
v 47.783722 -23.729677 31.067451
v 47.615070 -23.695543 30.754677
v 48.387226 -23.693659 30.860672
v 48.274521 -23.659203 30.467888
v 49.073952 -23.648664 30.724396
v 49.126110 -23.673151 31.241791
v 49.012688 -23.613110 30.284302
v 49.801781 -23.596275 30.672554
v 49.790062 -23.558508 30.216644
v 49.816200 -23.621744 31.207321
v 50.528610 -23.538034 30.719124
v 50.504246 -23.565926 31.239113
v 50.567173 -23.496687 30.277618
v 51.212620 -23.476812 30.851692
v 51.303928 -23.429546 30.456993
v 51.151867 -23.507706 31.323418
v 51.812057 -23.415367 31.057869
v 51.960320 -23.359003 30.744514
v 51.720676 -23.449078 31.446533
v 51.736042 -23.446314 31.959358
v 52.091873 -23.394312 31.588470
v 51.797470 -23.421957 32.559464
v 51.145649 -23.514439 31.903221
v 50.502079 -23.575001 31.859474
v 51.166275 -23.502600 32.547005
v 50.511074 -23.567345 32.531563
v 51.186089 -23.477766 33.210686
v 50.520187 -23.545019 33.206673
v 51.195942 -23.449499 33.884987
v 50.524925 -23.517742 33.883934
v 51.186729 -23.427359 34.560623
v 50.520771 -23.495249 34.562439
v 51.167431 -23.402941 35.226204
v 50.512222 -23.468241 35.239700
v 51.796917 -23.321363 35.215187
v 51.147022 -23.367800 35.870377
v 49.842632 -23.524570 35.246552
v 49.848522 -23.552301 34.564186
v 49.169987 -23.579247 35.237701
v 49.172386 -23.607704 34.561111
v 48.503223 -23.624123 35.222603
v 48.492985 -23.652882 34.558105
v 47.851257 -23.651041 35.210754
v 48.506268 -23.583509 35.867569
v 48.485722 -23.676493 33.883919
v 48.491642 -23.701687 33.209961
v 49.170933 -23.630730 33.883446
v 49.850136 -23.575037 33.883324
v 49.171432 -23.656696 33.206352
v 49.848106 -23.601673 33.203407
v 49.168148 -23.676857 32.531441
v 49.841743 -23.623131 32.523079
v 49.155277 -23.682446 31.860367
v 48.500729 -23.720827 32.546799
v 48.503025 -23.726280 31.905075
v 47.849922 -23.747295 32.559265
v 49.830307 -23.630249 31.840935
v 52.115593 -23.293781 30.457581
v 51.401749 -23.373667 30.108246
v 50.611923 -23.447166 29.892647
v 49.784081 -23.513168 29.819550
v 48.956238 -23.570578 29.897659
v 48.165783 -23.618336 30.116280
v 47.450142 -23.655376 30.464722
v 46.839222 -23.679148 30.944229
v 46.362961 -23.687117 31.556061
v 47.066971 -23.718130 31.163277
v 46.018890 -23.681986 32.271355
v 45.804581 -23.666479 33.061272
v 45.730026 -23.640692 33.888657
v 45.805229 -23.604706 34.716354
v 46.141602 -23.673464 33.885468
v 46.020134 -23.561670 35.507118
v 46.364613 -23.514709 36.223686
v 46.841255 -23.463203 36.836868
v 47.452534 -23.406521 37.317520
v 47.069183 -23.519575 36.613350
v 48.168434 -23.346573 37.667175
v 48.958878 -23.285257 37.887337
v 49.786507 -23.222490 37.966301
v 50.613945 -23.158167 37.892258
v 49.792912 -23.297022 37.565193
v 51.403091 -23.094690 37.675194
v 52.115826 -23.034433 37.325058
v 52.723301 -22.982016 36.842392
v 52.905338 -22.900919 37.022202
v 53.196655 -22.942081 36.227783
v 52.502914 -23.076880 36.620514
v 53.433369 -22.856064 36.360016
v 53.538448 -22.919214 35.510376
v 53.751236 -22.918100 34.719353
v 53.825859 -22.939857 33.891357
v 53.753071 -22.985659 33.063087
v 53.421635 -23.048534 33.888672
v 53.069592 -22.929367 30.607506
v 53.069592 -21.937403 30.607506
v 52.363937 -23.027174 30.029495
v 52.363937 -22.022228 30.029495
v 51.559883 -23.119926 29.598717
v 51.559875 -22.102661 29.598717
v 50.686779 -23.201975 29.334755
v 50.686779 -22.173822 29.334755
v 49.779190 -23.273460 29.244469
v 49.779198 -22.235813 29.244469
v 48.871708 -23.334511 29.334679
v 48.871708 -22.288750 29.334679
v 47.998817 -23.384270 29.598511
v 47.998829 -22.331903 29.598511
v 47.195080 -23.421913 30.029045
v 47.195080 -22.364557 30.029045
v 46.489719 -23.447144 30.606720
v 46.489719 -22.386419 30.606720
v 45.911995 -23.459599 31.311981
v 45.911995 -22.397217 31.311981
v 45.481461 -23.459068 32.115570
v 45.481461 -22.396757 32.115570
v 45.217644 -23.445337 32.988213
v 45.217636 -22.384855 32.988213
v 45.127415 -23.418373 33.895439
v 45.127415 -22.361471 33.895439
v 45.217670 -23.378153 34.802734
v 45.217670 -22.326603 34.802734
v 45.481552 -23.327820 35.675583
v 45.481552 -22.282946 35.675583
v 45.912231 -23.270540 36.479431
v 45.912235 -22.233269 36.479431
v 46.490162 -23.208599 37.184975
v 46.490162 -22.179554 37.184975
v 47.195774 -23.144289 37.762909
v 47.195774 -22.123787 37.762901
v 47.999771 -23.078754 38.193619
v 47.999763 -22.066957 38.193619
v 48.872856 -23.013136 38.457558
v 48.872856 -22.010050 38.457558
v 49.780491 -22.946264 38.547844
v 49.780491 -21.952051 38.547844
v 50.688114 -22.877014 38.457581
v 50.688114 -21.892014 38.457581
v 50.688114 -19.942225 38.457581
v 51.561134 -21.831446 38.193657
v 51.561134 -19.906580 38.193657
v 52.364948 -19.871525 37.762962
v 49.780491 -19.977589 38.547844
v 48.872860 -20.011711 38.457558
v 47.999771 -20.045198 38.193619
v 47.195763 -20.078648 37.762901
v 46.490162 -20.111475 37.184975
v 45.912235 -20.143084 36.479431
v 45.481552 -20.172335 35.675583
v 45.217663 -20.198025 34.802734
v 45.127415 -20.218554 33.895439
v 45.217636 -20.232315 32.988213
v 45.481461 -20.239315 32.115570
v 45.911995 -20.239592 31.311989
v 46.489719 -20.233232 30.606728
v 47.195080 -20.220366 30.029045
v 47.998817 -20.201139 29.598511
v 48.871708 -20.175743 29.334686
v 49.779190 -20.144585 29.244469
v 50.686779 -20.108099 29.334755
v 51.559875 -20.066212 29.598717
v 52.363937 -20.018875 30.029495
v 53.069592 -19.968952 30.607506
v 53.647522 -21.853052 31.313141
vn 0.9808 -0.0000 0.1950
vn 0.9239 -0.0000 0.3826
vn 0.8315 -0.0000 0.5555
vn 1.0000 -0.0000 -0.0000
vn 0.9808 -0.0000 -0.1951
vn 0.7072 -0.0000 0.7071
vn 0.5556 -0.0000 0.8314
vn 0.3827 -0.0000 0.9239
vn 0.1951 -0.0000 0.9808
vn -0.0000 -0.0000 1.0000
vn -0.1951 -0.0000 0.9808
vn -0.3827 -0.0000 0.9239
vn -0.5556 -0.0000 0.8315
vn -0.7071 -0.0000 0.7071
vn -0.8315 -0.0000 0.5556
vn -0.9239 -0.0000 0.3827
vn -0.9808 -0.0000 0.1951
vn -1.0000 -0.0000 -0.0000
vn -0.9808 -0.0000 -0.1951
vn -0.9239 -0.0000 -0.3827
vn -0.8314 -0.0000 -0.5556
vn -0.7071 -0.0000 -0.7071
vn -0.5555 -0.0000 -0.8315
vn -0.3826 -0.0000 -0.9239
vn -0.1950 -0.0000 -0.9808
vn -0.0000 -0.0000 -1.0000
vn 0.1951 -0.0000 -0.9808
vn 0.3827 -0.0000 -0.9239
vn 0.5556 -0.0000 -0.8315
vn 0.7071 -0.0000 -0.7071
vn 0.8315 -0.0000 -0.5555
vn 0.9239 -0.0000 -0.3826
vn 0.9239 -0.0000 -0.3827
vn 0.9766 -0.1070 -0.1864
vn 0.9229 -0.1008 -0.3717
vn 0.9940 -0.1094 0.0044
vn 0.8379 -0.5300 -0.1301
vn 0.8454 -0.5338 0.0211
vn 0.8076 -0.5166 -0.2845
vn 0.8335 -0.0931 -0.5446
vn 0.7478 -0.4990 -0.4379
vn 0.4388 -0.8797 -0.1836
vn 0.4518 -0.8864 -0.1008
vn 0.4524 -0.8914 -0.0276
vn 0.2708 -0.9610 -0.0562
vn 0.2747 -0.9614 -0.0158
vn 0.2730 -0.9619 0.0153
vn 0.4507 -0.8919 0.0365
vn 0.2723 -0.9614 0.0398
vn 0.8315 -0.5288 0.1703
vn 0.4485 -0.8883 0.0988
vn 0.2735 -0.9598 0.0634
vn 0.4448 -0.8801 0.1664
vn 0.2758 -0.9568 0.0917
vn 0.7962 -0.5143 0.3187
vn 0.4300 -0.8699 0.2416
vn 0.2728 -0.9535 0.1284
vn 0.7339 -0.4961 0.4640
vn 0.8303 -0.0955 0.5490
vn 0.9200 -0.1024 0.3782
vn 0.9749 -0.1079 0.1946
vn 0.7081 -0.0913 0.7002
vn 0.5582 -0.0927 0.8245
vn 0.6380 -0.4860 0.5973
vn 0.5102 -0.4945 0.7037
vn 0.3869 -0.0979 0.9169
vn 0.3617 -0.5139 0.7778
vn 0.3193 -0.8743 0.3656
vn 0.2356 -0.8894 0.3918
vn 0.3891 -0.8659 0.3145
vn 0.2101 -0.9583 0.1938
vn 0.1617 -0.9658 0.2026
vn 0.2514 -0.9532 0.1679
vn 0.2029 -0.5309 0.8228
vn 0.1511 -0.9024 0.4036
vn 0.1163 -0.9720 0.2040
vn 0.0687 -0.9100 0.4089
vn 0.0746 -0.9761 0.2039
vn 0.0391 -0.5394 0.8412
vn -0.1261 -0.5386 0.8331
vn -0.0129 -0.9125 0.4089
vn 0.0352 -0.9784 0.2037
vn -0.0954 -0.9098 0.4040
vn -0.0029 -0.9791 0.2033
vn -0.2891 -0.5282 0.7984
vn -0.4455 -0.5138 0.7332
vn -0.1792 -0.9049 0.3861
vn -0.0429 -0.9793 0.1977
vn -0.2528 -0.9051 0.3419
vn -0.0784 -0.9812 0.1762
vn -0.5843 -0.5082 0.6327
vn -0.6913 -0.5216 0.5000
vn -0.2980 -0.9154 0.2708
vn -0.0966 -0.9855 0.1395
vn -0.3165 -0.9293 0.1905
vn -0.0983 -0.9900 0.1015
vn -0.7634 -0.5441 0.3482
vn -0.8058 -0.5619 0.1871
vn -0.3229 -0.9398 0.1121
vn -0.0956 -0.9931 0.0685
vn -0.3263 -0.9446 0.0350
vn -0.0943 -0.9948 0.0374
vn -0.8224 -0.5686 0.0205
vn -0.8125 -0.5639 -0.1480
vn -0.3272 -0.9439 -0.0435
vn -0.0952 -0.9954 0.0059
vn -0.3246 -0.9374 -0.1263
vn -0.0976 -0.9948 -0.0282
vn -0.7753 -0.5477 -0.3145
vn -0.7063 -0.5260 -0.4737
vn -0.3083 -0.9272 -0.2129
vn -0.0955 -0.9931 -0.0677
vn -0.2629 -0.9201 -0.2902
vn -0.0766 -0.9914 -0.1058
vn -0.5996 -0.5133 -0.6140
vn -0.4586 -0.5203 -0.7204
vn -0.1868 -0.9223 -0.3384
vn -0.0400 -0.9910 -0.1281
vn -0.0992 -0.9285 -0.3578
vn 0.0005 -0.9910 -0.1337
vn -0.2981 -0.5367 -0.7893
vn -0.1304 -0.5484 -0.8260
vn -0.0138 -0.9317 -0.3630
vn 0.0377 -0.9903 -0.1338
vn 0.0683 -0.9293 -0.3630
vn 0.0735 -0.9882 -0.1341
vn 0.0387 -0.5493 -0.8347
vn 0.2064 -0.5402 -0.8159
vn 0.1510 -0.9214 -0.3581
vn 0.1117 -0.9846 -0.1347
vn 0.2379 -0.9075 -0.3463
vn 0.1559 -0.9786 -0.1340
vn 0.3694 -0.5215 -0.7691
vn 0.5216 -0.4999 -0.6914
vn 0.3249 -0.8904 -0.3187
vn 0.2050 -0.9706 -0.1257
vn 0.3973 -0.8791 -0.2635
vn 0.2481 -0.9637 -0.0987
vn 0.6517 -0.4899 -0.5790
vn 0.1971 -0.9728 -0.1218
vn 0.2435 -0.9653 -0.0942
vn 0.2679 -0.9622 -0.0493
vn 0.2704 -0.9627 -0.0098
vn 0.2561 -0.9661 -0.0344
vn 0.2557 -0.9668 0.0020
vn 0.2298 -0.9699 -0.0809
vn 0.2259 -0.9741 -0.0098
vn 0.2257 -0.9740 0.0179
vn 0.2008 -0.9782 -0.0523
vn 0.1759 -0.9843 0.0113
vn 0.1810 -0.9830 0.0303
vn 0.1653 -0.9861 -0.0176
vn 0.2219 -0.9746 0.0305
vn 0.2512 -0.9677 0.0236
vn 0.1823 -0.9826 0.0362
vn 0.2214 -0.9744 0.0389
vn 0.2501 -0.9674 0.0393
vn 0.1830 -0.9824 0.0383
vn 0.1455 -0.9886 0.0380
vn 0.1403 -0.9896 0.0312
vn 0.1472 -0.9884 0.0377
vn 0.1843 -0.9821 0.0402
vn 0.1473 -0.9884 0.0371
vn 0.2238 -0.9735 0.0469
vn 0.1848 -0.9817 0.0450
vn 0.1436 -0.9887 0.0430
vn 0.2293 -0.9716 0.0579
vn 0.2526 -0.9661 0.0543
vn 0.2584 -0.9632 0.0737
vn 0.2305 -0.9695 0.0833
vn 0.2596 -0.9598 0.1070
vn 0.1809 -0.9815 0.0626
vn 0.2060 -0.9707 0.1237
vn 0.2343 -0.9604 0.1509
vn 0.1709 -0.9811 0.0904
vn 0.1360 -0.9888 0.0610
vn 0.1367 -0.9857 0.0987
vn 0.1584 -0.9767 0.1446
vn 0.1077 -0.9919 0.0681
vn 0.1084 -0.9889 0.1020
vn 0.1215 -0.9823 0.1424
vn 0.1851 -0.9670 0.1753
vn 0.1398 -0.9745 0.1753
vn 0.0976 -0.9857 0.1376
vn 0.1055 -0.9796 0.1710
vn 0.0920 -0.9905 0.1021
vn 0.0768 -0.9876 0.1370
vn 0.0753 -0.9825 0.1701
vn 0.0788 -0.9916 0.1028
vn 0.0907 -0.9932 0.0725
vn 0.0806 -0.9940 0.0741
vn 0.0713 -0.9946 0.0754
vn 0.0664 -0.9922 0.1055
vn 0.0572 -0.9884 0.1408
vn 0.0570 -0.9957 0.0736
vn 0.0529 -0.9927 0.1085
vn 0.0373 -0.9882 0.1486
vn 0.0468 -0.9839 0.1728
vn 0.0180 -0.9837 0.1791
vn 0.0062 -0.9883 0.1527
vn -0.0199 -0.9832 0.1813
vn 0.0292 -0.9938 0.1074
vn -0.0356 -0.9905 0.1330
vn -0.0628 -0.9852 0.1592
vn -0.0014 -0.9950 0.1001
vn 0.0326 -0.9971 0.0684
vn -0.0087 -0.9974 0.0713
vn -0.0553 -0.9942 0.0926
vn -0.0101 -0.9986 0.0511
vn 0.0274 -0.9985 0.0481
vn -0.0513 -0.9966 0.0649
vn -0.0833 -0.9897 0.1168
vn -0.0795 -0.9935 0.0819
vn -0.0443 -0.9978 0.0500
vn -0.0724 -0.9957 0.0582
vn -0.0082 -0.9991 0.0428
vn -0.0418 -0.9985 0.0367
vn -0.0698 -0.9969 0.0369
vn -0.0069 -0.9993 0.0365
vn 0.0251 -0.9989 0.0391
vn 0.0252 -0.9990 0.0363
vn -0.0077 -0.9995 0.0302
vn 0.0255 -0.9991 0.0334
vn -0.0437 -0.9988 0.0234
vn -0.0092 -0.9997 0.0215
vn 0.0283 -0.9993 0.0241
vn -0.0501 -0.9987 0.0079
vn -0.0718 -0.9973 0.0154
vn -0.0782 -0.9969 -0.0089
vn -0.0537 -0.9983 -0.0208
vn -0.0815 -0.9957 -0.0451
vn -0.0072 -1.0000 0.0006
vn -0.0335 -0.9975 -0.0624
vn -0.0605 -0.9942 -0.0888
vn 0.0004 -0.9996 -0.0291
vn 0.0340 -0.9994 0.0030
vn 0.0310 -0.9988 -0.0370
vn 0.0084 -0.9965 -0.0832
vn 0.0580 -0.9983 -0.0028
vn 0.0544 -0.9978 -0.0388
vn 0.0394 -0.9960 -0.0798
vn -0.0172 -0.9936 -0.1119
vn 0.0208 -0.9937 -0.1101
vn 0.0485 -0.9934 -0.1041
vn 0.0582 -0.9957 -0.0726
vn 0.0668 -0.9971 -0.0364
vn 0.0755 -0.9948 -0.0690
vn 0.0774 -0.9964 -0.0337
vn 0.0740 -0.9921 -0.1015
vn 0.1011 -0.9896 -0.1024
vn 0.0937 -0.9932 -0.0690
vn 0.0888 -0.9955 -0.0324
vn 0.1163 -0.9905 -0.0730
vn 0.1040 -0.9941 -0.0311
vn 0.1342 -0.9852 -0.1066
vn 0.1528 -0.9854 -0.0744
vn 0.1796 -0.9780 -0.1065
vn 0.1315 -0.9910 -0.0268
vn 0.1315 -0.9912 0.0121
vn 0.1041 -0.9946 0.0040
vn 0.1106 -0.9935 0.0256
vn 0.0881 -0.9961 -0.0014
vn 0.0900 -0.9957 0.0216
vn 0.1148 -0.9927 0.0371
vn 0.0917 -0.9951 0.0358
vn 0.1164 -0.9925 0.0371
vn 0.0927 -0.9950 0.0365
vn 0.1162 -0.9925 0.0368
vn 0.0927 -0.9950 0.0371
vn 0.1132 -0.9924 0.0475
vn 0.0918 -0.9945 0.0505
vn 0.0829 -0.9959 0.0374
vn 0.0821 -0.9953 0.0518
vn 0.0738 -0.9966 0.0378
vn 0.0731 -0.9959 0.0525
vn 0.0528 -0.9979 0.0382
vn 0.0543 -0.9972 0.0511
vn 0.0527 -0.9980 0.0361
vn 0.0739 -0.9966 0.0360
vn 0.0530 -0.9980 0.0339
vn 0.0737 -0.9967 0.0340
vn 0.0829 -0.9959 0.0362
vn 0.0823 -0.9960 0.0347
vn 0.0730 -0.9972 0.0188
vn 0.0811 -0.9965 0.0196
vn 0.0548 -0.9983 0.0205
vn 0.0715 -0.9974 -0.0050
vn 0.0794 -0.9968 -0.0037
vn 0.1486 -0.9806 -0.1276
vn 0.1079 -0.9861 -0.1263
vn 0.0734 -0.9894 -0.1254
vn 0.0411 -0.9912 -0.1261
vn 0.0071 -0.9917 -0.1280
vn -0.0330 -0.9917 -0.1247
vn -0.0726 -0.9922 -0.1013
vn -0.0928 -0.9939 -0.0604
vn -0.0931 -0.9954 -0.0216
vn -0.0892 -0.9960 0.0092
vn -0.0879 -0.9954 0.0372
vn -0.0897 -0.9939 0.0649
vn -0.0941 -0.9910 0.0947
vn -0.0943 -0.9867 0.1321
vn -0.0747 -0.9823 0.1716
vn -0.0359 -0.9803 0.1942
vn 0.0038 -0.9803 0.1975
vn 0.0388 -0.9799 0.1956
vn 0.0746 -0.9780 0.1950
vn 0.1125 -0.9742 0.1955
vn 0.1545 -0.9683 0.1962
vn 0.2024 -0.9607 0.1901
vn 0.2473 -0.9550 0.1636
vn 0.2705 -0.9550 0.1215
vn 0.2721 -0.9585 0.0854
vn 0.2684 -0.9614 0.0602
vn 0.2667 -0.9630 0.0396
vn 0.2676 -0.9634 0.0181
vn 0.7111 -0.0884 -0.6976
vn 0.5606 -0.0895 -0.8232
vn 0.3885 -0.0945 -0.9166
vn 0.2017 -0.0990 -0.9744
vn 0.0072 -0.1008 -0.9949
vn -0.1878 -0.0992 -0.9772
vn -0.3760 -0.0945 -0.9218
vn -0.5503 -0.0888 -0.8302
vn -0.7033 -0.0863 -0.7057
vn -0.8282 -0.0896 -0.5532
vn -0.8315 -0.0000 -0.5556
vn -0.9202 -0.0964 -0.3793
vn -0.9762 -0.1021 -0.1912
vn -0.9945 -0.1044 0.0039
vn -0.9747 -0.1029 0.1986
vn -0.9176 -0.0979 0.3854
vn -0.8250 -0.0918 0.5576
vn -0.7000 -0.0891 0.7086
vn -0.5473 -0.0920 0.8319
vn -0.3737 -0.0979 0.9224
vn -0.1864 -0.1026 0.9771
vn 0.0076 -0.1041 0.9945
vn 0.2011 -0.1024 0.9742
vt 0.608351 0.792402
vt 0.608349 0.791963
vt 0.611039 0.791954
vt 0.611041 0.792393
vt 0.613730 0.791944
vt 0.613731 0.792385
vt 0.605660 0.792412
vt 0.605659 0.791971
vt 0.602970 0.792424
vt 0.602968 0.791980
vt 0.602979 0.795251
vt 0.605670 0.795219
vt 0.608360 0.795199
vt 0.603004 0.802844
vt 0.605695 0.802758
vt 0.608385 0.802714
vt 0.611050 0.795192
vt 0.611076 0.802710
vt 0.613741 0.795196
vt 0.613767 0.802745
vt 0.616432 0.795208
vt 0.616458 0.802808
vt 0.616422 0.792379
vt 0.616420 0.791935
vt 0.619112 0.791926
vt 0.619113 0.792373
vt 0.619123 0.795227
vt 0.621805 0.792368
vt 0.621815 0.795248
vt 0.621803 0.791916
vt 0.624495 0.791906
vt 0.624497 0.792363
vt 0.624507 0.795270
vt 0.627189 0.792357
vt 0.627200 0.795292
vt 0.627187 0.791896
vt 0.629879 0.791886
vt 0.629881 0.792351
vt 0.629892 0.795312
vt 0.632573 0.792345
vt 0.632585 0.795332
vt 0.632572 0.791876
vt 0.635264 0.791866
vt 0.635266 0.792339
vt 0.635277 0.795351
vt 0.637958 0.792333
vt 0.637969 0.795370
vt 0.637956 0.791856
vt 0.640648 0.791846
vt 0.640650 0.792326
vt 0.640662 0.795388
vt 0.643342 0.792319
vt 0.643354 0.795404
vt 0.643340 0.791835
vt 0.646032 0.791825
vt 0.646033 0.792312
vt 0.646045 0.795416
vt 0.648725 0.792304
vt 0.648737 0.795424
vt 0.648723 0.791814
vt 0.651414 0.791804
vt 0.651416 0.792295
vt 0.651428 0.795426
vt 0.654107 0.792286
vt 0.654119 0.795422
vt 0.654105 0.791793
vt 0.656796 0.791783
vt 0.656798 0.792275
vt 0.656811 0.795411
vt 0.659490 0.792264
vt 0.659502 0.795395
vt 0.659488 0.791772
vt 0.662179 0.791762
vt 0.662181 0.792252
vt 0.662193 0.795373
vt 0.664872 0.792239
vt 0.664885 0.795345
vt 0.664871 0.791751
vt 0.667562 0.791741
vt 0.667564 0.792225
vt 0.667576 0.795312
vt 0.670256 0.792211
vt 0.670268 0.795274
vt 0.670254 0.791730
vt 0.586816 0.792031
vt 0.586817 0.792507
vt 0.584125 0.792520
vt 0.584123 0.792039
vt 0.586826 0.795542
vt 0.584134 0.795583
vt 0.589510 0.792494
vt 0.589519 0.795497
vt 0.589508 0.792023
vt 0.592201 0.792014
vt 0.592202 0.792480
vt 0.592211 0.795446
vt 0.594895 0.792465
vt 0.594904 0.795394
vt 0.594893 0.792006
vt 0.597585 0.791997
vt 0.597587 0.792451
vt 0.597596 0.795341
vt 0.600279 0.792437
vt 0.600288 0.795292
vt 0.600277 0.791989
vt 0.597621 0.803104
vt 0.600313 0.802962
vt 0.597639 0.808813
vt 0.600331 0.808577
vt 0.603022 0.808382
vt 0.605713 0.808243
vt 0.603031 0.811208
vt 0.600340 0.811432
vt 0.605722 0.811049
vt 0.997140 0.287332
vt 0.997485 0.287297
vt 0.997706 0.289915
vt 0.997360 0.289896
vt 0.996427 0.284854
vt 0.996763 0.284761
vt 0.597648 0.811703
vt 0.995241 0.282560
vt 0.995554 0.282406
vt 0.995012 0.282667
vt 0.996165 0.284917
vt 0.996859 0.287356
vt 0.994619 0.282861
vt 0.995699 0.285036
vt 0.996350 0.287405
vt 0.997074 0.289883
vt 0.996551 0.289866
vt 0.997069 0.292450
vt 0.996789 0.292400
vt 0.996280 0.292316
vt 0.996027 0.294809
vt 0.995562 0.294657
vt 0.996287 0.294897
vt 0.994810 0.297012
vt 0.994420 0.296788
vt 0.995034 0.297141
vt 0.995327 0.297320
vt 0.996607 0.295022
vt 0.997406 0.292522
vt 0.613786 0.808239
vt 0.613795 0.811050
vt 0.611104 0.810973
vt 0.611094 0.808174
vt 0.608413 0.810972
vt 0.608403 0.808174
vt 0.616478 0.808353
vt 0.616488 0.811183
vt 0.619150 0.802891
vt 0.619170 0.808501
vt 0.619180 0.811355
vt 0.993617 0.299331
vt 0.993364 0.299098
vt 0.991535 0.300964
vt 0.991333 0.300684
vt 0.621863 0.808668
vt 0.621874 0.811548
vt 0.989174 0.302162
vt 0.989030 0.301846
vt 0.991200 0.300471
vt 0.988942 0.301601
vt 0.993185 0.298927
vt 0.990985 0.300093
vt 0.988807 0.301157
vt 0.992884 0.298627
vt 0.986543 0.302540
vt 0.986498 0.302276
vt 0.986435 0.301795
vt 0.983964 0.302477
vt 0.983969 0.301985
vt 0.983969 0.302748
vt 0.981404 0.302454
vt 0.981439 0.302188
vt 0.981512 0.301705
vt 0.979019 0.301426
vt 0.979163 0.300981
vt 0.978943 0.301675
vt 0.976684 0.300433
vt 0.976804 0.300216
vt 0.977022 0.299839
vt 0.974876 0.298600
vt 0.975173 0.298306
vt 0.974711 0.298774
vt 0.973111 0.296754
vt 0.973320 0.296625
vt 0.973701 0.296412
vt 0.972180 0.294377
vt 0.972632 0.294239
vt 0.971937 0.294461
vt 0.971234 0.291984
vt 0.971496 0.291940
vt 0.971987 0.291873
vt 0.971288 0.289415
vt 0.971790 0.289415
vt 0.971020 0.289419
vt 0.971310 0.286862
vt 0.971571 0.286898
vt 0.972060 0.286965
vt 0.972327 0.284488
vt 0.972773 0.284624
vt 0.972085 0.284410
vt 0.973325 0.282160
vt 0.973533 0.282282
vt 0.973906 0.282492
vt 0.975145 0.280363
vt 0.975432 0.280652
vt 0.974983 0.280196
vt 0.977004 0.278605
vt 0.977119 0.278815
vt 0.977324 0.279184
vt 0.979368 0.277681
vt 0.979497 0.278118
vt 0.979299 0.277440
vt 0.981780 0.276746
vt 0.981807 0.277004
vt 0.981866 0.277476
vt 0.984339 0.276801
vt 0.984330 0.277283
vt 0.984352 0.276540
vt 0.986918 0.276839
vt 0.986864 0.277092
vt 0.986787 0.277558
vt 0.989286 0.277856
vt 0.989138 0.278281
vt 0.989382 0.277623
vt 0.991648 0.278872
vt 0.991507 0.279069
vt 0.991283 0.279425
vt 0.993444 0.280689
vt 0.993137 0.280963
vt 0.993630 0.280536
vt 0.990883 0.280057
vt 0.992592 0.281448
vt 0.993920 0.283206
vt 0.994870 0.285248
vt 0.993058 0.283627
vt 0.993830 0.285506
vt 0.991934 0.282051
vt 0.992173 0.284051
vt 0.992727 0.285765
vt 0.991291 0.282674
vt 0.991105 0.284317
vt 0.991438 0.285942
vt 0.990717 0.283246
vt 0.993074 0.287709
vt 0.994302 0.287601
vt 0.991657 0.287784
vt 0.993179 0.289766
vt 0.994445 0.289798
vt 0.991723 0.289732
vt 0.989946 0.287790
vt 0.989838 0.285959
vt 0.989976 0.289693
vt 0.991598 0.291678
vt 0.989891 0.291596
vt 0.993009 0.291817
vt 0.991322 0.293510
vt 0.989728 0.293426
vt 0.992602 0.293745
vt 0.994233 0.291988
vt 0.993697 0.294061
vt 0.991997 0.295434
vt 0.992872 0.295908
vt 0.990938 0.295118
vt 0.991076 0.296774
vt 0.991706 0.297440
vt 0.990519 0.296174
vt 0.989526 0.295108
vt 0.989465 0.296550
vt 0.989721 0.297659
vt 0.987862 0.295233
vt 0.987862 0.296868
vt 0.988026 0.298212
vt 0.990149 0.298572
vt 0.988285 0.299351
vt 0.986093 0.298556
vt 0.986197 0.299824
vt 0.986034 0.297075
vt 0.984041 0.298655
vt 0.984001 0.299962
vt 0.984092 0.297132
vt 0.986045 0.295321
vt 0.984150 0.295337
vt 0.982252 0.295249
vt 0.982152 0.297002
vt 0.981992 0.298473
vt 0.980419 0.295093
vt 0.980318 0.296728
vt 0.980062 0.298054
vt 0.981810 0.299732
vt 0.979735 0.299174
vt 0.978366 0.297441
vt 0.977884 0.298330
vt 0.978697 0.296351
vt 0.977022 0.296510
vt 0.976353 0.297148
vt 0.977631 0.295935
vt 0.978718 0.294907
vt 0.977259 0.294864
vt 0.976145 0.295137
vt 0.976945 0.293239
vt 0.978600 0.293215
vt 0.975601 0.293427
vt 0.975232 0.295577
vt 0.974464 0.293703
vt 0.975258 0.291487
vt 0.973991 0.291614
vt 0.976738 0.291400
vt 0.975151 0.289434
vt 0.973844 0.289420
vt 0.976675 0.289456
vt 0.978512 0.291383
vt 0.978489 0.289483
vt 0.976795 0.287514
vt 0.978566 0.287584
vt 0.975317 0.287387
vt 0.977057 0.285687
vt 0.978707 0.285760
vt 0.975718 0.285463
vt 0.974054 0.287233
vt 0.974587 0.285164
vt 0.976312 0.283780
vt 0.975409 0.283323
vt 0.977420 0.284085
vt 0.977229 0.282446
vt 0.976574 0.281797
vt 0.977822 0.283035
vt 0.978875 0.284086
vt 0.978896 0.282656
vt 0.978595 0.281564
vt 0.980575 0.283953
vt 0.980521 0.282331
vt 0.980305 0.281010
vt 0.978138 0.280672
vt 0.980011 0.279895
vt 0.982102 0.279414
vt 0.982247 0.280659
vt 0.982363 0.282118
vt 0.984302 0.280549
vt 0.984310 0.282055
vt 0.984300 0.279263
vt 0.986492 0.279474
vt 0.986350 0.280717
vt 0.986248 0.282179
vt 0.988274 0.281127
vt 0.988071 0.282451
vt 0.988565 0.280018
vt 0.989957 0.281740
vt 0.990409 0.280862
vt 0.989670 0.282828
vt 0.989688 0.284269
vt 0.988022 0.284080
vt 0.988051 0.285890
vt 0.986208 0.283923
vt 0.986202 0.285812
vt 0.988080 0.287756
vt 0.986200 0.287710
vt 0.988082 0.289652
vt 0.986186 0.289614
vt 0.988027 0.291551
vt 0.986145 0.291521
vt 0.987944 0.293421
vt 0.986093 0.293425
vt 0.984249 0.291492
vt 0.984205 0.293411
vt 0.982343 0.291450
vt 0.982310 0.293352
vt 0.980430 0.291408
vt 0.980433 0.293277
vt 0.980438 0.289513
vt 0.982368 0.289545
vt 0.980483 0.287619
vt 0.982397 0.287642
vt 0.984283 0.289579
vt 0.984305 0.287667
vt 0.982417 0.285744
vt 0.984316 0.285754
vt 0.980538 0.285756
vt 0.982413 0.283858
vt 0.984316 0.283837
vt 0.988876 0.279035
vt 0.986650 0.278387
vt 0.984313 0.278139
vt 0.981970 0.278317
vt 0.979726 0.278894
vt 0.977689 0.279841
vt 0.975942 0.281164
vt 0.974569 0.282866
vt 0.973566 0.284867
vt 0.972928 0.287085
vt 0.972683 0.289415
vt 0.972860 0.291753
vt 0.973434 0.293994
vt 0.974378 0.296032
vt 0.975701 0.297785
vt 0.977409 0.299170
vt 0.979418 0.300190
vt 0.981643 0.300847
vt 0.983979 0.301109
vt 0.986323 0.300941
vt 0.988566 0.300370
vt 0.990602 0.299421
vt 0.992350 0.298094
vt 0.993727 0.296389
vt 0.994734 0.294386
vt 0.995376 0.292167
vt 0.995622 0.289834
vt 0.995446 0.287493
vt 0.993906 0.280320
vt 0.991874 0.278600
vt 0.594956 0.811999
vt 0.594947 0.809070
vt 0.592264 0.812296
vt 0.592255 0.809329
vt 0.589572 0.812578
vt 0.589563 0.809575
vt 0.989547 0.277308
vt 0.586880 0.812828
vt 0.586871 0.809793
vt 0.987018 0.276494
vt 0.584188 0.813047
vt 0.584179 0.809984
vt 0.984384 0.276180
vt 0.667645 0.812929
vt 0.667633 0.809842
vt 0.670325 0.809676
vt 0.670337 0.812739
vt 0.981741 0.276384
vt 0.664954 0.813087
vt 0.664942 0.809980
vt 0.979187 0.277093
vt 0.662263 0.813209
vt 0.662251 0.810087
vt 0.976821 0.278289
vt 0.659572 0.813294
vt 0.659559 0.810162
vt 0.974733 0.279929
vt 0.656880 0.813341
vt 0.656868 0.810205
vt 0.973021 0.281956
vt 0.654189 0.813350
vt 0.654177 0.810214
vt 0.971743 0.284277
vt 0.651498 0.813320
vt 0.651486 0.810189
vt 0.970948 0.286800
vt 0.648806 0.813251
vt 0.648794 0.810131
vt 0.970654 0.289428
vt 0.646114 0.813142
vt 0.646102 0.810038
vt 0.970879 0.292064
vt 0.643421 0.813004
vt 0.643409 0.809920
vt 0.971606 0.294609
vt 0.640728 0.812845
vt 0.640716 0.809783
vt 0.972819 0.296965
vt 0.638035 0.812673
vt 0.638023 0.809635
vt 0.974472 0.299041
vt 0.635342 0.812493
vt 0.635330 0.809481
vt 0.976507 0.300744
vt 0.632648 0.812310
vt 0.632637 0.809323
vt 0.978833 0.302015
vt 0.629954 0.812126
vt 0.629943 0.809165
vt 0.981359 0.302806
vt 0.627261 0.811939
vt 0.627250 0.809004
vt 0.983989 0.303100
vt 0.624567 0.811744
vt 0.624556 0.808837
vt 0.986626 0.302881
vt 0.624536 0.803081
vt 0.627228 0.803175
vt 0.621843 0.802985
vt 0.629921 0.803266
vt 0.632614 0.803355
vt 0.635307 0.803443
vt 0.638000 0.803530
vt 0.640693 0.803613
vt 0.643385 0.803689
vt 0.646078 0.803755
vt 0.648769 0.803805
vt 0.651461 0.803835
vt 0.654152 0.803845
vt 0.656843 0.803835
vt 0.659535 0.803806
vt 0.662226 0.803758
vt 0.664917 0.803690
vt 0.667609 0.803605
vt 0.670301 0.803502
vt 0.586852 0.803695
vt 0.584160 0.803811
vt 0.589544 0.803563
vt 0.592237 0.803415
vt 0.594929 0.803259
s 1
f 5/1/1 4/2/1 1/3/2 2/4/2
f 3/5/3 20/6/3 2/4/2 1/3/2
f 4/2/1 5/1/1 8/7/4 6/8/4
f 9/9/5 7/10/5 6/8/4 8/7/4
f 11/11/5 9/9/5 8/7/4 10/12/4
f 5/1/1 13/13/1 10/12/4 8/7/4
f 104/14/5 11/11/5 10/12/4 12/15/4
f 13/13/1 14/16/1 12/15/4 10/12/4
f 14/16/1 13/13/1 15/17/2 16/18/2
f 13/13/1 5/1/1 2/4/2 15/17/2
f 17/19/3 18/20/3 16/18/2 15/17/2
f 20/6/3 17/19/3 15/17/2 2/4/2
f 18/20/3 17/19/3 19/21/6 137/22/6
f 17/19/3 20/6/3 21/23/6 19/21/6
f 20/6/3 3/5/3 22/24/6 21/23/6
f 25/25/7 23/26/7 21/23/6 22/24/6
f 23/26/7 24/27/7 19/21/6 21/23/6
f 24/27/7 23/26/7 26/28/8 28/29/8
f 23/26/7 25/25/7 27/30/8 26/28/8
f 31/31/9 29/32/9 26/28/8 27/30/8
f 29/32/9 30/33/9 28/29/8 26/28/8
f 30/33/9 29/32/9 32/34/10 34/35/10
f 29/32/9 31/31/9 33/36/10 32/34/10
f 37/37/11 35/38/11 32/34/10 33/36/10
f 35/38/11 36/39/11 34/35/10 32/34/10
f 36/39/11 35/38/11 38/40/12 40/41/12
f 35/38/11 37/37/11 39/42/12 38/40/12
f 43/43/13 41/44/13 38/40/12 39/42/12
f 41/44/13 42/45/13 40/41/12 38/40/12
f 42/45/13 41/44/13 44/46/14 46/47/14
f 41/44/13 43/43/13 45/48/14 44/46/14
f 49/49/15 47/50/15 44/46/14 45/48/14
f 47/50/15 48/51/15 46/47/14 44/46/14
f 48/51/15 47/50/15 50/52/16 52/53/16
f 47/50/15 49/49/15 51/54/16 50/52/16
f 55/55/17 53/56/17 50/52/16 51/54/16
f 53/56/17 54/57/17 52/53/16 50/52/16
f 54/57/17 53/56/17 56/58/18 58/59/18
f 53/56/17 55/55/17 57/60/18 56/58/18
f 61/61/19 59/62/19 56/58/18 57/60/18
f 59/62/19 60/63/19 58/59/18 56/58/18
f 60/63/19 59/62/19 62/64/20 64/65/20
f 59/62/19 61/61/19 63/66/20 62/64/20
f 67/67/21 65/68/21 62/64/20 63/66/20
f 65/68/21 66/69/21 64/65/20 62/64/20
f 66/69/21 65/68/21 68/70/22 70/71/22
f 65/68/21 67/67/21 69/72/22 68/70/22
f 73/73/23 71/74/23 68/70/22 69/72/22
f 71/74/23 72/75/23 70/71/22 68/70/22
f 72/75/23 71/74/23 74/76/24 76/77/24
f 71/74/23 73/73/23 75/78/24 74/76/24
f 79/79/25 77/80/25 74/76/24 75/78/24
f 77/80/25 78/81/25 76/77/24 74/76/24
f 78/81/25 77/80/25 80/82/26 82/83/26
f 77/80/25 79/79/25 81/84/26 80/82/26
f 85/85/27 83/86/27 80/87/26 81/88/26
f 83/86/27 84/89/27 82/90/26 80/87/26
f 84/89/27 83/86/27 86/91/28 88/92/28
f 83/86/27 85/85/27 87/93/28 86/91/28
f 91/94/29 89/95/29 86/91/28 87/93/28
f 89/95/29 90/96/29 88/92/28 86/91/28
f 90/96/29 89/95/29 92/97/30 94/98/30
f 89/95/29 91/94/29 93/99/30 92/97/30
f 97/100/31 95/101/31 92/97/30 93/99/30
f 95/101/31 96/102/31 94/98/30 92/97/30
f 96/102/31 95/101/31 98/103/32 100/104/32
f 95/101/31 97/100/31 99/105/32 98/103/32
f 7/10/5 9/9/5 98/103/32 99/105/32
f 9/9/5 11/11/5 100/104/32 98/103/32
f 102/106/31 96/102/31 100/104/32 101/107/32
f 11/11/5 104/14/5 101/107/32 100/104/32
f 465/108/31 102/106/31 101/107/32 103/109/33
f 104/14/5 105/110/5 103/109/33 101/107/32
f 105/110/5 104/14/5 12/15/4 106/111/4
f 105/110/5 107/112/34 110/113/35 103/109/33
f 107/112/34 105/110/5 106/111/4 108/114/36
f 109/115/37 107/116/34 108/117/36 120/118/38
f 107/116/34 109/115/37 112/119/39 110/120/35
f 111/121/40 465/108/31 103/109/33 110/113/35
f 113/122/41 111/123/40 110/120/35 112/119/39
f 115/124/42 113/122/41 112/119/39 114/125/43
f 109/115/37 117/126/44 114/125/43 112/119/39
f 217/127/45 115/124/42 114/125/43 116/128/46
f 117/126/44 118/129/47 116/128/46 114/125/43
f 118/129/47 117/126/44 119/130/48 121/131/49
f 117/126/44 109/115/37 120/118/38 119/130/48
f 124/132/50 122/133/51 119/130/48 120/118/38
f 122/133/51 123/134/52 121/131/49 119/130/48
f 123/134/52 122/133/51 125/135/53 126/136/54
f 122/133/51 124/132/50 128/137/55 125/135/53
f 127/138/56 390/139/57 126/136/54 125/135/53
f 129/140/58 127/138/56 125/135/53 128/137/55
f 131/141/59 129/140/58 128/137/55 130/142/60
f 124/132/50 133/143/61 130/142/60 128/137/55
f 135/144/3 131/145/59 130/146/60 132/147/2
f 133/148/61 134/149/1 132/147/2 130/146/60
f 134/149/1 133/148/61 108/114/36 106/111/4
f 133/143/61 124/132/50 120/118/38 108/117/36
f 134/149/1 14/16/1 16/18/2 132/147/2
f 14/16/1 134/149/1 106/111/4 12/15/4
f 18/20/3 135/144/3 132/147/2 16/18/2
f 135/144/3 18/20/3 137/22/6 136/150/6
f 131/145/59 135/144/3 136/150/6 139/151/62
f 443/152/7 138/153/7 136/150/6 137/22/6
f 138/153/7 141/154/63 139/151/62 136/150/6
f 129/140/58 131/141/59 139/155/62 140/156/64
f 141/157/63 143/158/65 140/156/64 139/155/62
f 141/154/63 138/153/7 441/159/8 142/160/66
f 143/158/65 141/157/63 142/161/66 144/162/67
f 145/163/68 143/158/65 144/162/67 148/164/69
f 143/158/65 145/163/68 147/165/70 140/156/64
f 146/166/71 145/163/68 148/164/69 149/167/72
f 145/163/68 146/166/71 387/168/73 147/165/70
f 152/169/74 150/170/75 148/164/69 144/162/67
f 150/170/75 151/171/76 149/167/72 148/164/69
f 151/171/76 150/170/75 153/172/77 155/173/78
f 150/170/75 152/169/74 154/174/79 153/172/77
f 158/175/80 156/176/81 153/172/77 154/174/79
f 156/176/81 157/177/82 155/173/78 153/172/77
f 157/177/82 156/176/81 159/178/83 161/179/84
f 156/176/81 158/175/80 160/180/85 159/178/83
f 164/181/86 162/182/87 159/178/83 160/180/85
f 162/182/87 163/183/88 161/179/84 159/178/83
f 163/183/88 162/182/87 165/184/89 167/185/90
f 162/182/87 164/181/86 166/186/91 165/184/89
f 170/187/92 168/188/93 165/184/89 166/186/91
f 168/188/93 169/189/94 167/185/90 165/184/89
f 169/189/94 168/188/93 171/190/95 173/191/96
f 168/188/93 170/187/92 172/192/97 171/190/95
f 176/193/98 174/194/99 171/190/95 172/192/97
f 174/194/99 175/195/100 173/191/96 171/190/95
f 175/195/100 174/194/99 177/196/101 179/197/102
f 174/194/99 176/193/98 178/198/103 177/196/101
f 182/199/104 180/200/105 177/196/101 178/198/103
f 180/200/105 181/201/106 179/197/102 177/196/101
f 181/201/106 180/200/105 183/202/107 185/203/108
f 180/200/105 182/199/104 184/204/109 183/202/107
f 188/205/110 186/206/111 183/202/107 184/204/109
f 186/206/111 187/207/112 185/203/108 183/202/107
f 187/207/112 186/206/111 189/208/113 191/209/114
f 186/206/111 188/205/110 190/210/115 189/208/113
f 194/211/116 192/212/117 189/208/113 190/210/115
f 192/212/117 193/213/118 191/209/114 189/208/113
f 193/213/118 192/212/117 195/214/119 197/215/120
f 192/212/117 194/211/116 196/216/121 195/214/119
f 200/217/122 198/218/123 195/214/119 196/216/121
f 198/218/123 199/219/124 197/215/120 195/214/119
f 199/219/124 198/218/123 201/220/125 203/221/126
f 198/218/123 200/217/122 202/222/127 201/220/125
f 206/223/128 204/224/129 201/220/125 202/222/127
f 204/224/129 205/225/130 203/221/126 201/220/125
f 205/225/130 204/224/129 207/226/131 209/227/132
f 204/224/129 206/223/128 208/228/133 207/226/131
f 212/229/134 210/230/135 207/226/131 208/228/133
f 210/230/135 211/231/136 209/227/132 207/226/131
f 211/231/136 210/230/135 213/232/137 215/233/138
f 210/230/135 212/229/134 214/234/139 213/232/137
f 113/122/41 115/124/42 213/232/137 214/234/139
f 115/124/42 217/127/45 215/233/138 213/232/137
f 359/235/140 211/231/136 215/233/138 216/236/141
f 217/127/45 218/237/142 216/236/141 215/233/138
f 218/237/142 217/127/45 116/128/46 219/238/143
f 220/239/144 218/237/142 219/238/143 221/240/145
f 218/237/142 220/239/144 222/241/146 216/236/141
f 223/242/147 220/239/144 221/240/145 226/243/148
f 220/239/144 223/242/147 225/244/149 222/241/146
f 224/245/150 223/242/147 226/243/148 227/246/151
f 223/242/147 224/245/150 322/247/152 225/244/149
f 228/248/153 226/243/148 221/240/145 229/249/154
f 226/243/148 228/248/153 231/250/155 227/246/151
f 230/251/156 228/248/153 229/249/154 395/252/157
f 228/248/153 230/251/156 233/253/158 231/250/155
f 231/250/155 232/254/159 323/255/160 227/246/151
f 232/254/159 231/250/155 233/253/158 234/256/161
f 235/257/162 236/258/163 234/256/161 233/253/158
f 230/251/156 238/259/164 235/257/162 233/253/158
f 236/258/163 235/257/162 237/260/165 336/261/166
f 238/259/164 240/262/167 237/260/165 235/257/162
f 238/259/164 230/251/156 395/252/157 239/263/168
f 240/262/167 238/259/164 239/263/168 241/264/169
f 242/265/170 240/262/167 241/264/169 243/266/171
f 240/262/167 242/265/170 245/267/172 237/260/165
f 244/268/173 242/265/170 243/266/171 389/269/174
f 242/265/170 244/268/173 247/270/175 245/267/172
f 245/267/172 246/271/176 336/261/166 237/260/165
f 246/271/176 245/267/172 247/270/175 248/272/177
f 250/273/178 248/272/177 247/270/175 244/268/173
f 337/274/179 246/271/176 248/272/177 249/275/180
f 248/272/177 250/273/178 252/276/181 249/275/180
f 251/277/182 250/273/178 244/268/173 389/269/174
f 250/273/178 251/277/182 253/278/183 252/276/181
f 254/279/184 252/276/181 253/278/183 255/280/185
f 252/276/181 254/279/184 257/281/186 249/275/180
f 256/282/187 254/279/184 255/280/185 383/283/188
f 254/279/184 256/282/187 259/284/189 257/281/186
f 258/285/190 337/274/179 249/275/180 257/281/186
f 260/286/191 258/285/190 257/281/186 259/284/189
f 262/287/192 260/286/191 259/284/189 261/288/193
f 256/282/187 264/289/194 261/288/193 259/284/189
f 345/290/195 262/287/192 261/288/193 263/291/196
f 264/289/194 266/292/197 263/291/196 261/288/193
f 264/289/194 256/282/187 383/283/188 265/293/198
f 266/292/197 264/289/194 265/293/198 267/294/199
f 268/295/200 266/292/197 267/294/199 269/296/201
f 266/292/197 268/295/200 271/297/202 263/291/196
f 270/298/203 268/295/200 269/296/201 378/299/204
f 268/295/200 270/298/203 273/300/205 271/297/202
f 272/301/206 345/290/195 263/291/196 271/297/202
f 274/302/207 272/301/206 271/297/202 273/300/205
f 276/303/208 274/302/207 273/300/205 270/298/203
f 272/301/206 274/302/207 275/304/209 344/305/210
f 274/302/207 276/303/208 278/306/211 275/304/209
f 277/307/212 276/303/208 270/298/203 378/299/204
f 276/303/208 277/307/212 279/308/213 278/306/211
f 280/309/214 278/306/211 279/308/213 281/310/215
f 278/306/211 280/309/214 283/311/216 275/304/209
f 282/312/217 280/309/214 281/310/215 373/313/218
f 280/309/214 282/312/217 285/314/219 283/311/216
f 284/315/220 283/311/216 285/314/219 286/316/221
f 283/311/216 284/315/220 344/305/210 275/304/209
f 287/317/222 288/318/223 286/316/221 285/314/219
f 290/319/224 287/317/222 285/314/219 282/312/217
f 288/318/223 287/317/222 289/320/225 357/321/226
f 287/317/222 290/319/224 292/322/227 289/320/225
f 291/323/228 290/319/224 282/312/217 373/313/218
f 290/319/224 291/323/228 293/324/229 292/322/227
f 294/325/230 292/322/227 293/324/229 295/326/231
f 292/322/227 294/325/230 297/327/232 289/320/225
f 296/328/233 294/325/230 295/326/231 368/329/234
f 294/325/230 296/328/233 299/330/235 297/327/232
f 298/331/236 297/327/232 299/330/235 300/332/237
f 297/327/232 298/331/236 357/321/226 289/320/225
f 302/333/238 300/332/237 299/330/235 296/328/233
f 356/334/239 298/331/236 300/332/237 301/335/240
f 300/332/237 302/333/238 304/336/241 301/335/240
f 303/337/242 302/333/238 296/328/233 368/329/234
f 302/333/238 303/337/242 305/338/243 304/336/241
f 308/339/244 306/340/245 304/336/241 305/338/243
f 306/340/245 307/341/246 301/335/240 304/336/241
f 307/341/246 306/340/245 309/342/247 311/343/248
f 306/340/245 308/339/244 310/344/249 309/342/247
f 314/345/250 312/346/251 309/342/247 310/344/249
f 312/346/251 313/347/252 311/343/248 309/342/247
f 313/347/252 312/346/251 315/348/253 317/349/254
f 312/346/251 314/345/250 316/350/255 315/348/253
f 318/351/256 315/348/253 316/350/255 319/352/257
f 315/348/253 318/351/256 320/353/258 317/349/254
f 225/244/149 318/351/256 319/352/257 222/241/146
f 318/351/256 225/244/149 322/247/152 320/353/258
f 321/354/259 324/355/260 317/349/254 320/353/258
f 224/245/150 321/354/259 320/353/258 322/247/152
f 321/354/259 224/245/150 227/246/151 323/255/160
f 324/355/260 321/354/259 323/255/160 326/356/261
f 324/355/260 325/357/262 313/347/252 317/349/254
f 325/357/262 324/355/260 326/356/261 327/358/263
f 328/359/264 329/360/265 327/358/263 326/356/261
f 232/254/159 328/359/264 326/356/261 323/255/160
f 329/360/265 328/359/264 330/361/266 331/362/267
f 328/359/264 232/254/159 234/256/161 330/361/266
f 332/363/268 333/364/269 331/362/267 330/361/266
f 236/258/163 332/363/268 330/361/266 234/256/161
f 333/364/269 332/363/268 334/365/270 335/366/271
f 332/363/268 236/258/163 336/261/166 334/365/270
f 337/274/179 258/285/190 335/366/271 334/365/270
f 246/271/176 337/274/179 334/365/270 336/261/166
f 339/367/272 333/364/269 335/366/271 338/368/273
f 258/285/190 260/286/191 338/368/273 335/366/271
f 341/369/274 339/367/272 338/368/273 340/370/275
f 260/286/191 262/287/192 340/370/275 338/368/273
f 343/371/276 341/369/274 340/370/275 342/372/277
f 262/287/192 345/290/195 342/372/277 340/370/275
f 284/315/220 343/371/276 342/372/277 344/305/210
f 345/290/195 272/301/206 344/305/210 342/372/277
f 343/371/276 284/315/220 286/316/221 346/373/278
f 341/369/274 343/371/276 346/373/278 348/374/279
f 347/375/280 350/376/281 348/374/279 346/373/278
f 288/318/223 347/375/280 346/373/278 286/316/221
f 339/367/272 341/369/274 348/374/279 349/377/282
f 350/376/281 351/378/283 349/377/282 348/374/279
f 351/378/283 350/376/281 352/379/284 353/380/285
f 350/376/281 347/375/280 355/381/286 352/379/284
f 354/382/287 358/383/288 353/380/285 352/379/284
f 356/334/239 354/382/287 352/379/284 355/381/286
f 298/331/236 356/334/239 355/381/286 357/321/226
f 347/375/280 288/318/223 357/321/226 355/381/286
f 354/382/287 356/334/239 301/335/240 307/341/246
f 358/383/288 354/382/287 307/341/246 311/343/248
f 358/383/288 325/357/262 327/358/263 353/380/285
f 325/357/262 358/383/288 311/343/248 313/347/252
f 329/360/265 351/378/283 353/380/285 327/358/263
f 351/378/283 329/360/265 331/362/267 349/377/282
f 333/364/269 339/367/272 349/377/282 331/362/267
f 359/235/140 319/352/257 316/350/255 360/384/289
f 319/352/257 359/235/140 216/236/141 222/241/146
f 211/231/136 359/235/140 360/384/289 209/227/132
f 361/385/290 205/225/130 209/227/132 360/384/289
f 314/345/250 361/385/290 360/384/289 316/350/255
f 205/225/130 361/385/290 362/386/291 203/221/126
f 361/385/290 314/345/250 310/344/249 362/386/291
f 363/387/292 199/219/124 203/221/126 362/386/291
f 308/339/244 363/387/292 362/386/291 310/344/249
f 199/219/124 363/387/292 364/388/293 197/215/120
f 363/387/292 308/339/244 305/338/243 364/388/293
f 365/389/294 193/213/118 197/215/120 364/388/293
f 303/337/242 365/389/294 364/388/293 305/338/243
f 193/213/118 365/389/294 366/390/295 191/209/114
f 365/389/294 303/337/242 368/329/234 366/390/295
f 367/391/296 187/207/112 191/209/114 366/390/295
f 295/326/231 367/391/296 366/390/295 368/329/234
f 187/207/112 367/391/296 369/392/297 185/203/108
f 367/391/296 295/326/231 293/324/229 369/392/297
f 370/393/298 181/201/106 185/203/108 369/392/297
f 291/323/228 370/393/298 369/392/297 293/324/229
f 181/201/106 370/393/298 371/394/299 179/197/102
f 370/393/298 291/323/228 373/313/218 371/394/299
f 372/395/300 175/195/100 179/197/102 371/394/299
f 281/310/215 372/395/300 371/394/299 373/313/218
f 175/195/100 372/395/300 374/396/301 173/191/96
f 372/395/300 281/310/215 279/308/213 374/396/301
f 375/397/302 169/189/94 173/191/96 374/396/301
f 277/307/212 375/397/302 374/396/301 279/308/213
f 169/189/94 375/397/302 376/398/303 167/185/90
f 375/397/302 277/307/212 378/299/204 376/398/303
f 377/399/304 163/183/88 167/185/90 376/398/303
f 269/296/201 377/399/304 376/398/303 378/299/204
f 163/183/88 377/399/304 379/400/305 161/179/84
f 377/399/304 269/296/201 267/294/199 379/400/305
f 380/401/306 157/177/82 161/179/84 379/400/305
f 265/293/198 380/401/306 379/400/305 267/294/199
f 157/177/82 380/401/306 381/402/307 155/173/78
f 380/401/306 265/293/198 383/283/188 381/402/307
f 382/403/308 151/171/76 155/173/78 381/402/307
f 255/280/185 382/403/308 381/402/307 383/283/188
f 151/171/76 382/403/308 384/404/309 149/167/72
f 382/403/308 255/280/185 253/278/183 384/404/309
f 385/405/310 146/166/71 149/167/72 384/404/309
f 251/277/182 385/405/310 384/404/309 253/278/183
f 146/166/71 385/405/310 386/406/311 387/168/73
f 385/405/310 251/277/182 389/269/174 386/406/311
f 388/407/312 390/139/57 387/168/73 386/406/311
f 243/266/171 388/407/312 386/406/311 389/269/174
f 390/139/57 388/407/312 391/408/313 126/136/54
f 388/407/312 243/266/171 241/264/169 391/408/313
f 239/263/168 392/409/314 391/408/313 241/264/169
f 392/409/314 123/134/52 126/136/54 391/408/313
f 123/134/52 392/409/314 393/410/315 121/131/49
f 392/409/314 239/263/168 395/252/157 393/410/315
f 394/411/316 118/129/47 121/131/49 393/410/315
f 229/249/154 394/411/316 393/410/315 395/252/157
f 118/129/47 394/411/316 219/238/143 116/128/46
f 394/411/316 229/249/154 221/240/145 219/238/143
f 390/139/57 127/138/56 147/165/70 387/168/73
f 111/123/40 113/122/41 214/234/139 396/412/317
f 212/229/134 398/413/318 396/412/317 214/234/139
f 465/108/31 111/121/40 396/414/317 397/415/30
f 398/416/318 399/417/29 397/415/30 396/414/317
f 399/417/29 398/416/318 400/418/319 401/419/28
f 398/413/318 212/229/134 208/228/133 400/420/319
f 402/421/320 403/422/27 401/419/28 400/418/319
f 206/223/128 402/423/320 400/420/319 208/228/133
f 403/422/27 402/421/320 404/424/321 405/425/26
f 402/423/320 206/223/128 202/222/127 404/426/321
f 406/427/322 407/428/25 405/429/26 404/430/321
f 200/217/122 406/431/322 404/426/321 202/222/127
f 407/428/25 406/427/322 408/432/323 409/433/24
f 406/431/322 200/217/122 196/216/121 408/434/323
f 410/435/324 411/436/23 409/433/24 408/432/323
f 194/211/116 410/437/324 408/434/323 196/216/121
f 411/436/23 410/435/324 412/438/325 413/439/22
f 410/437/324 194/211/116 190/210/115 412/440/325
f 414/441/326 415/442/327 413/439/22 412/438/325
f 188/205/110 414/443/326 412/440/325 190/210/115
f 415/442/327 414/441/326 416/444/328 417/445/20
f 414/443/326 188/205/110 184/204/109 416/446/328
f 418/447/329 419/448/19 417/445/20 416/444/328
f 182/199/104 418/449/329 416/446/328 184/204/109
f 419/448/19 418/447/329 420/450/330 421/451/18
f 418/449/329 182/199/104 178/198/103 420/452/330
f 422/453/331 423/454/17 421/451/18 420/450/330
f 176/193/98 422/455/331 420/452/330 178/198/103
f 423/454/17 422/453/331 424/456/332 425/457/16
f 422/455/331 176/193/98 172/192/97 424/458/332
f 426/459/333 427/460/15 425/457/16 424/456/332
f 170/187/92 426/461/333 424/458/332 172/192/97
f 427/460/15 426/459/333 428/462/334 429/463/14
f 426/461/333 170/187/92 166/186/91 428/464/334
f 430/465/335 431/466/13 429/463/14 428/462/334
f 164/181/86 430/467/335 428/464/334 166/186/91
f 431/466/13 430/465/335 432/468/336 433/469/12
f 430/467/335 164/181/86 160/180/85 432/470/336
f 434/471/337 435/472/11 433/469/12 432/468/336
f 158/175/80 434/473/337 432/470/336 160/180/85
f 435/472/11 434/471/337 436/474/338 437/475/10
f 434/473/337 158/175/80 154/174/79 436/476/338
f 438/477/339 439/478/9 437/475/10 436/474/338
f 152/169/74 438/479/339 436/476/338 154/174/79
f 439/478/9 438/477/339 142/160/66 441/159/8
f 438/479/339 152/169/74 144/162/67 142/161/66
f 439/478/9 440/480/9 444/481/10 437/475/10
f 440/480/9 439/478/9 441/159/8 442/482/8
f 138/153/7 443/152/7 442/482/8 441/159/8
f 30/33/9 440/480/9 442/482/8 28/29/8
f 443/152/7 24/27/7 28/29/8 442/482/8
f 24/27/7 443/152/7 137/22/6 19/21/6
f 440/480/9 30/33/9 34/35/10 444/481/10
f 36/39/11 445/483/11 444/481/10 34/35/10
f 445/483/11 435/472/11 437/475/10 444/481/10
f 435/472/11 445/483/11 446/484/12 433/469/12
f 445/483/11 36/39/11 40/41/12 446/484/12
f 42/45/13 447/485/13 446/484/12 40/41/12
f 447/485/13 431/466/13 433/469/12 446/484/12
f 431/466/13 447/485/13 448/486/14 429/463/14
f 447/485/13 42/45/13 46/47/14 448/486/14
f 48/51/15 449/487/15 448/486/14 46/47/14
f 449/487/15 427/460/15 429/463/14 448/486/14
f 427/460/15 449/487/15 450/488/16 425/457/16
f 449/487/15 48/51/15 52/53/16 450/488/16
f 54/57/17 451/489/17 450/488/16 52/53/16
f 451/489/17 423/454/17 425/457/16 450/488/16
f 423/454/17 451/489/17 452/490/18 421/451/18
f 451/489/17 54/57/17 58/59/18 452/490/18
f 60/63/19 453/491/19 452/490/18 58/59/18
f 453/491/19 419/448/19 421/451/18 452/490/18
f 419/448/19 453/491/19 454/492/20 417/445/20
f 453/491/19 60/63/19 64/65/20 454/492/20
f 66/69/21 455/493/21 454/492/20 64/65/20
f 455/493/21 415/442/327 417/445/20 454/492/20
f 415/442/327 455/493/21 456/494/22 413/439/22
f 455/493/21 66/69/21 70/71/22 456/494/22
f 72/75/23 457/495/23 456/494/22 70/71/22
f 457/495/23 411/436/23 413/439/22 456/494/22
f 411/436/23 457/495/23 458/496/24 409/433/24
f 457/495/23 72/75/23 76/77/24 458/496/24
f 78/81/25 459/497/25 458/496/24 76/77/24
f 459/497/25 407/428/25 409/433/24 458/496/24
f 407/428/25 459/497/25 460/498/26 405/429/26
f 459/497/25 78/81/25 82/83/26 460/498/26
f 84/89/27 461/499/27 460/500/26 82/90/26
f 461/499/27 403/422/27 405/425/26 460/500/26
f 403/422/27 461/499/27 462/501/28 401/419/28
f 461/499/27 84/89/27 88/92/28 462/501/28
f 90/96/29 463/502/29 462/501/28 88/92/28
f 463/502/29 399/417/29 401/419/28 462/501/28
f 399/417/29 463/502/29 464/503/30 397/415/30
f 463/502/29 90/96/29 94/98/30 464/503/30
f 96/102/31 102/106/31 464/503/30 94/98/30
f 102/106/31 465/108/31 397/415/30 464/503/30
f 127/138/56 129/140/58 140/156/64 147/165/70
