# PadForge: shell re-filed to the part it belongs to
o Decal-L1
v -43.182095 -7.060430 52.442093
v -43.180504 -5.797470 52.249416
v -44.431244 -5.791387 52.244503
v -44.434280 -7.054518 52.440430
v -40.690750 -7.084158 52.263645
v -40.682236 -5.827253 52.075958
v -41.930145 -5.815746 52.196285
v -41.935246 -7.074557 52.385002
v -43.182198 -9.555347 52.623051
v -43.181461 -8.304008 52.558926
v -44.432129 -8.298264 52.560417
v -44.434273 -9.552200 52.624954
v -40.691399 -9.567651 52.438908
v -40.687969 -8.322316 52.376503
v -41.933487 -8.313983 52.499279
v -41.935555 -9.562759 52.562202
v -39.449139 -7.101362 52.087196
v -39.447948 -8.334528 52.199326
v -41.934753 -4.578925 51.873028
v -43.181988 -4.559375 51.918922
v -39.441975 -5.849945 51.900723
v -39.447567 -4.619280 51.586342
v -40.689709 -4.593420 51.757492
v -39.450008 -9.576421 52.261684
v -44.434204 -4.551347 51.909714
vn 0.0229 0.1223 0.9922
vn 0.0205 0.2043 0.9787
vn -0.0029 0.2062 0.9785
vn -0.0008 0.1235 0.9923
vn 0.1193 0.1183 0.9858
vn 0.1178 0.1977 0.9732
vn 0.0697 0.2006 0.9772
vn 0.0719 0.1199 0.9902
vn 0.0251 0.0510 0.9984
vn 0.0245 0.0724 0.9971
vn 0.0010 0.0731 0.9973
vn 0.0015 0.0513 0.9987
vn 0.1200 0.0495 0.9915
vn 0.1199 0.0700 0.9903
vn 0.0731 0.0710 0.9948
vn 0.0735 0.0502 0.9960
vn 0.1414 0.1177 0.9829
vn 0.1416 0.0697 0.9875
vn 0.0680 0.2531 0.9651
vn 0.0190 0.2573 0.9661
vn 0.1401 0.1967 0.9704
vn 0.1387 0.2470 0.9590
vn 0.1163 0.2489 0.9615
vn 0.1416 0.0493 0.9887
vn -0.0040 0.2593 0.9658
vt 0.782406 0.584303
vt 0.782190 0.555811
vt 0.810202 0.555457
vt 0.810405 0.584030
vt 0.726610 0.584556
vt 0.726261 0.556208
vt 0.754251 0.556209
vt 0.754534 0.584581
vt 0.782500 0.640234
vt 0.782464 0.612204
vt 0.810485 0.611999
vt 0.810533 0.640108
vt 0.726567 0.640240
vt 0.726567 0.612335
vt 0.754542 0.612367
vt 0.754560 0.640339
vt 0.698542 0.584540
vt 0.698509 0.612260
vt 0.753978 0.527644
vt 0.781928 0.527192
vt 0.698211 0.556248
vt 0.697900 0.527847
vt 0.725977 0.527744
vt 0.698482 0.640112
vt 0.809964 0.526741
s 0
f 1/1/1 2/2/2 3/3/3 4/4/4
f 5/5/5 6/6/6 7/7/7 8/8/8
f 9/9/9 10/10/10 11/11/11 12/12/12
f 13/13/13 14/14/14 15/15/15 16/16/16
f 8/8/8 1/1/1 10/10/10 15/15/15
f 17/17/17 5/5/5 14/14/14 18/18/18
f 19/19/19 20/20/20 2/2/2 7/7/7
f 21/21/21 22/22/22 23/23/23 6/6/6
f 8/8/8 7/7/7 2/2/2 1/1/1
f 17/17/17 21/21/21 6/6/6 5/5/5
f 16/16/16 15/15/15 10/10/10 9/9/9
f 24/24/24 18/18/18 14/14/14 13/13/13
f 1/1/1 4/4/4 11/11/11 10/10/10
f 8/8/8 15/15/15 14/14/14 5/5/5
f 20/20/20 25/25/25 3/3/3 2/2/2
f 19/19/19 7/7/7 6/6/6 23/23/23
