# Blender 4.5.3 LTS
# www.blender.org
o Dualsense.054
v -43.951485 -23.401203 21.519455
v -43.633728 -23.444294 21.519440
v -43.950283 -23.401363 20.875183
v -44.373703 -23.343962 21.519455
v -43.950039 -23.401398 22.163712
v -43.633419 -23.444332 22.212013
v -44.369347 -23.344549 22.056763
v -43.955479 -23.400663 22.807869
v -43.967438 -23.399048 23.199165
v -43.634701 -23.444157 22.904594
v -44.384804 -23.342445 22.593010
v -44.856262 -23.278515 22.321335
v -44.418121 -23.337931 22.907204
v -44.480724 -23.329437 23.158226
v -44.913174 -23.270803 22.545654
v -45.015621 -23.256905 22.720055
v -45.376022 -23.208040 22.192482
v -45.303398 -23.217894 22.054153
v -45.520458 -23.188459 22.293358
v -45.744843 -23.158028 21.890251
v -45.887787 -23.133219 21.715645
v -45.923580 -23.133795 21.933510
v -45.600605 -23.177589 21.880684
v -45.665619 -23.163347 21.695015
v -45.311264 -23.216827 21.792000
v -45.693111 -23.154188 21.519447
v -45.352684 -23.211210 21.519455
v -45.661362 -23.162928 21.342934
v -45.945301 -23.119993 21.519440
v -46.144917 -23.092939 21.519455
v -45.883957 -23.132759 21.321922
v -46.076550 -23.106649 21.300278
v -45.744843 -23.158028 21.148643
v -45.376026 -23.208040 20.846413
v -45.600605 -23.177589 21.158203
v -45.923580 -23.133795 21.105400
v -46.164574 -23.101112 21.046432
v -45.520447 -23.188459 20.745544
v -45.015617 -23.256905 20.318840
v -45.718056 -23.161665 20.616371
v -45.970493 -23.127428 20.456970
v -45.160679 -23.237244 20.103012
v -45.350964 -23.211433 19.856216
v -44.579681 -23.316021 19.577911
v -44.716187 -23.297506 19.245911
v -44.068657 -23.385319 19.143211
v -44.480724 -23.329437 19.880669
v -44.418110 -23.337931 20.131699
v -44.000698 -23.394539 19.520538
v -43.660389 -23.440670 19.327942
v -43.967426 -23.399048 19.839722
v -43.955467 -23.400663 20.231018
v -43.637596 -23.443769 19.695282
v -43.286354 -23.491398 19.632294
v -43.634697 -23.444157 20.134293
v -43.282139 -23.491970 20.093620
v -43.633469 -23.444328 20.826866
v -43.279510 -23.492325 20.806534
v -43.279232 -23.492361 21.519455
v -42.924507 -23.540459 20.801117
v -42.924717 -23.540426 21.519455
v -41.328186 -23.756918 20.761482
v -42.924515 -23.540462 20.082771
v -41.327019 -23.757080 20.003517
v -42.925053 -23.540388 19.610970
v -41.326241 -23.757193 19.499329
v -42.944260 -23.537781 19.208145
v -41.336670 -23.755766 19.066353
v -43.000259 -23.530191 18.746056
v -43.310207 -23.488155 19.242264
v -43.371761 -23.479811 18.793396
v -43.458763 -23.468014 18.340340
v -43.721096 -23.432447 18.901062
v -43.810574 -23.420319 18.462296
v -44.168545 -23.371767 18.742462
v -43.826569 -23.329771 18.250793
v -44.164261 -23.286976 18.505379
v -43.520351 -23.369946 18.154716
v -43.827267 -23.165632 18.113541
v -44.139984 -23.123096 18.347801
v -43.568138 -23.200943 18.040710
v -43.825245 -22.202457 18.115402
v -43.823223 -21.239302 18.117264
v -44.137531 -22.170607 18.349678
v -43.567341 -22.228874 18.042534
v -43.213062 -22.264957 18.001350
v -43.566532 -21.256804 18.044373
v -43.564938 -20.355631 18.048019
v -43.212341 -21.280821 18.002975
v -43.210930 -20.355526 18.006210
v -41.472950 -21.398642 17.800461
v -41.468681 -20.355667 17.803505
v -39.705437 -21.518330 17.643570
v -41.475079 -22.441622 17.798935
v -41.477222 -23.484594 17.797417
v -39.708984 -22.621120 17.642143
v -38.884590 -22.704895 17.613052
v -39.712532 -23.723904 17.640709
v -39.721767 -23.882750 17.755470
v -38.888660 -23.835737 17.611862
v -38.910908 -23.992493 17.725082
v -38.542191 -23.882858 17.676109
v -38.564690 -24.038433 17.782249
v -38.190895 -23.930632 17.810600
v -38.538311 -22.740084 17.676949
v -38.534420 -21.597296 17.677773
v -38.186951 -22.775740 17.811096
v -38.183006 -21.620850 17.811584
v -37.880054 -22.806860 18.008102
v -37.875980 -21.641348 18.008293
v -37.642780 -22.830900 18.266937
v -37.884129 -23.972370 18.007904
v -37.915771 -24.117954 18.034523
v -37.646992 -24.004656 18.266983
v -37.728096 -24.148012 18.313377
v -37.463356 -24.029642 18.623146
v -37.562271 -24.172804 18.670090
v -37.334854 -24.047098 19.124741
v -37.458939 -22.849514 18.623032
v -37.454517 -21.669403 18.622932
v -37.330299 -22.862553 19.124649
v -37.325737 -21.678019 19.124573
v -37.255741 -22.870123 19.787704
v -37.260380 -24.057205 19.787743
v -37.251102 -21.683041 19.787666
v -37.228390 -22.872902 20.652618
v -37.233044 -22.872433 21.519447
v -37.223728 -21.684881 20.652603
v -37.233059 -24.060919 20.652641
v -37.352150 -24.202633 20.662903
v -37.237701 -24.060293 21.519447
v -37.356625 -24.201992 21.519440
v -37.232376 -24.061012 22.386238
v -37.351452 -24.202715 22.375984
v -37.260384 -24.057205 23.251106
v -37.227699 -22.872972 22.386253
v -37.255745 -22.870123 23.251160
v -37.223045 -21.684929 22.386276
v -37.251106 -21.683041 23.251198
v -37.213703 -20.351809 22.386330
v -37.228386 -21.684568 21.519440
v -37.219063 -20.351816 21.519440
v -37.193764 -20.276966 21.519440
v -37.214397 -20.351809 20.652557
v -37.241833 -20.351833 19.787582
v -37.189106 -20.276957 20.651672
v -37.114021 -20.252439 20.649010
v -37.216583 -20.276978 19.785812
v -37.291695 -20.277067 19.119858
v -37.141613 -20.252462 19.780487
v -37.091698 -20.252775 19.776939
v -37.217659 -20.252522 19.106239
v -37.168369 -20.252842 19.097145
v -37.351307 -20.252708 18.586784
v -37.304314 -20.253017 18.568764
v -37.547134 -20.253111 18.208855
v -37.421902 -20.277277 18.613731
v -37.609188 -20.277739 18.252289
v -37.445694 -20.352125 18.622711
v -37.630119 -20.352617 18.266762
v -37.316631 -20.351915 19.124397
v -37.638550 -21.657150 18.266876
v -37.867836 -20.353302 18.008682
v -38.175129 -20.354040 17.812569
v -37.851383 -20.278400 17.989365
v -38.163601 -20.279110 17.790138
v -37.802734 -20.253691 17.931381
v -37.770481 -20.253893 17.892647
v -38.129704 -20.254314 17.722748
v -38.107285 -20.254425 17.677780
v -38.499454 -20.254847 17.582741
v -38.486126 -20.254929 17.534325
v -38.864815 -20.255402 17.516403
v -38.519688 -20.279724 17.655296
v -38.870319 -20.280365 17.591614
v -38.526657 -20.354698 17.679428
v -38.872391 -20.355350 17.616615
v -38.880524 -21.574057 17.614243
v -39.698345 -20.355717 17.646431
v -39.699661 -20.280718 17.621574
v -41.471077 -20.280655 17.778740
v -39.704254 -20.255695 17.546722
v -39.707390 -20.255665 17.496803
v -41.478676 -20.255632 17.704163
v -41.483780 -20.255610 17.654411
v -43.222507 -20.255495 17.907059
v -43.228333 -20.255480 17.857399
v -43.584652 -20.255569 17.949860
v -43.213791 -20.280518 17.981499
v -43.569817 -20.280615 18.023575
v -43.830364 -20.280905 18.098389
v -43.819180 -20.355936 18.120995
v -43.864368 -20.255825 18.030182
v -44.146046 -20.281050 18.336235
v -44.767368 -20.280890 18.909897
v -44.130196 -20.356089 18.355309
v -44.194107 -20.255953 18.278641
v -44.226192 -20.255863 18.240204
v -44.818905 -20.255800 18.855499
v -44.853275 -20.255733 18.819191
v -45.582737 -20.255558 19.598213
v -45.617588 -20.255512 19.562363
v -46.344727 -20.255327 20.338959
v -45.530499 -20.280628 19.651939
v -46.291447 -20.280365 20.391670
v -45.513195 -20.355648 19.669693
v -46.273766 -20.355370 20.409088
v -45.516144 -21.124367 19.665749
v -44.750332 -20.355921 18.927887
v -44.754429 -21.176077 18.924011
v -44.135086 -21.218105 18.351547
v -44.756485 -22.107620 18.922073
v -45.517609 -22.030212 19.663765
v -44.758541 -23.039192 18.920135
v -45.519089 -22.936052 19.661797
v -44.751339 -23.203033 19.049156
v -45.455151 -23.103985 19.732910
v -46.155739 -23.013554 20.409126
v -46.706623 -22.945127 20.976662
v -46.277794 -22.833145 20.401283
v -46.861385 -22.753958 21.014511
v -46.276783 -21.952965 20.403236
v -46.275780 -21.072775 20.405190
v -46.860439 -21.893517 21.016380
v -46.859489 -21.033068 21.018242
v -47.007629 -21.873556 21.255692
v -47.009495 -22.727365 21.254608
v -47.005772 -21.019730 21.256752
v -47.068356 -21.863880 21.519066
v -47.009083 -21.874104 21.782776
v -47.070763 -22.714495 21.518951
v -47.065956 -21.013252 21.519188
v -47.061142 -20.354982 21.519424
v -47.007137 -21.020096 21.781746
v -47.003212 -20.355045 21.779762
v -46.859375 -21.033081 22.020973
v -46.275726 -21.072790 22.633781
v -46.857590 -20.355154 22.016945
v -46.860256 -21.893534 22.022995
v -46.276703 -21.952982 22.635765
v -46.861141 -22.753986 22.025017
v -46.277676 -22.833168 22.637756
v -46.706486 -22.945127 22.062561
v -47.011028 -22.728100 21.783813
v -46.874073 -22.914360 21.803688
v -46.941437 -22.897896 21.519188
v -46.655704 -23.029097 21.810989
v -46.467960 -23.059978 22.076622
v -46.336056 -23.072435 21.767349
v -46.733788 -23.013081 21.519440
v -46.407661 -23.057297 21.519447
v -46.652699 -23.028530 21.227028
v -46.332523 -23.071934 21.270393
v -46.871979 -22.914118 21.234604
v -46.467953 -23.059978 20.962273
v -46.080326 -23.107119 21.737328
v -46.164574 -23.101112 21.992462
v -45.718060 -23.161665 22.422531
v -45.160690 -23.237236 22.935875
v -45.970486 -23.127439 22.581924
v -45.350971 -23.211433 23.182663
v -46.155659 -23.013565 22.629852
v -45.455170 -23.103985 23.305954
v -45.519108 -22.936043 23.377060
v -44.751312 -23.203037 23.989754
v -44.758480 -23.039200 24.118797
v -44.164074 -23.287027 24.533607
v -44.716206 -23.297506 23.792984
v -44.168549 -23.371763 24.296432
v -44.579689 -23.316021 23.460983
v -44.068661 -23.385315 23.895676
v -43.721119 -23.432444 24.137817
v -44.000698 -23.394539 23.518356
v -43.660408 -23.440670 23.710945
v -43.637585 -23.443769 23.343597
v -43.310226 -23.488155 23.796623
v -43.371773 -23.479807 24.245499
v -42.944279 -23.537781 23.830750
v -43.286362 -23.491398 23.406616
v -42.925060 -23.540388 23.427925
v -43.282143 -23.491970 22.945274
v -43.279457 -23.492332 22.232361
v -42.924530 -23.540462 22.956116
v -41.327038 -23.757080 23.035378
v -42.924503 -23.540459 22.237778
v -41.328201 -23.756914 22.277420
v -39.721016 -23.974846 22.313194
v -41.328754 -23.756840 21.519455
v -39.721844 -23.974728 21.519447
v -38.979988 -24.075336 21.519440
v -39.721004 -23.974850 20.725693
v -38.979416 -24.075411 20.711472
v -39.719246 -23.975092 19.931946
v -38.978241 -24.075567 19.903481
v -39.718056 -23.975248 19.404930
v -38.977459 -24.075676 19.372330
v -39.719051 -23.975115 18.953590
v -38.972889 -24.076294 18.920876
v -39.723911 -23.974463 18.440216
v -38.960373 -24.077991 18.407364
v -39.729950 -23.973640 17.938377
v -41.369190 -23.751358 18.572777
v -41.415699 -23.745052 18.087044
v -43.080280 -23.519333 18.284218
v -41.449833 -23.648880 17.907829
v -43.153248 -23.419643 18.106186
v -43.213764 -23.249086 17.999733
v -38.936146 -24.081266 17.905853
v -38.590836 -24.128098 17.953705
v -38.618744 -24.124321 18.420021
v -38.250580 -24.174238 18.046158
v -38.239189 -24.175789 18.423973
v -37.974094 -24.211731 18.109413
v -38.221756 -24.082418 17.898270
v -37.865097 -24.226517 18.368149
v -37.720566 -24.246111 18.731033
v -38.173195 -24.184732 18.837204
v -37.618118 -24.259995 19.208900
v -37.445450 -24.189651 19.161736
v -37.557446 -24.268236 19.832329
v -38.121120 -24.191790 19.290985
v -38.087467 -24.196352 19.865829
v -38.609978 -24.125502 19.351151
v -38.617729 -24.124454 18.903618
v -38.601749 -24.126619 19.890625
v -38.598694 -24.127039 20.705017
v -38.599609 -24.126913 21.519440
v -38.074436 -24.198122 20.692383
v -37.534786 -24.271305 20.675186
v -38.077187 -24.197758 21.519440
v -38.073936 -24.198193 22.346512
v -37.539001 -24.270731 21.519440
v -37.534050 -24.271410 22.363708
v -37.557453 -24.268236 23.206566
v -37.618137 -24.259995 23.829987
v -37.377281 -24.199146 23.230835
v -38.087475 -24.196352 23.173073
v -38.601753 -24.126619 23.148254
v -38.121128 -24.191790 23.747910
v -38.173203 -24.184729 24.201683
v -38.609997 -24.125502 23.687729
v -38.977474 -24.075676 23.666550
v -38.617729 -24.124451 24.135262
v -38.972893 -24.076290 24.118004
v -38.618759 -24.124317 24.618858
v -38.960381 -24.077990 24.631516
v -38.590843 -24.128094 25.085175
v -38.239197 -24.175785 24.614922
v -37.865105 -24.226513 24.670738
v -38.250587 -24.174234 24.992729
v -37.974091 -24.211727 24.929474
v -38.221775 -24.082415 25.140617
v -38.564705 -24.038429 25.256622
v -38.190941 -23.930620 25.228294
v -37.915779 -24.117950 25.004372
v -37.884140 -23.972366 25.030983
v -37.728176 -24.147999 24.725594
v -37.647121 -24.004635 24.772079
v -37.562252 -24.172808 24.368774
v -37.720573 -24.246107 24.307861
v -37.463329 -24.029638 24.415703
v -37.445446 -24.189648 23.877098
v -37.334843 -24.047094 23.914047
v -37.330292 -22.862549 23.914162
v -37.458920 -22.849506 24.415817
v -37.325737 -21.678015 23.914268
v -37.454510 -21.669399 24.415932
v -37.316631 -20.351912 23.914490
v -37.445694 -20.352121 24.416168
v -37.241833 -20.351833 23.251297
v -37.291695 -20.277063 23.919037
v -37.421902 -20.277273 24.425148
v -37.216583 -20.276978 23.253075
v -37.217659 -20.252518 23.932640
v -37.168369 -20.252838 23.941742
v -37.351307 -20.252705 24.452103
v -37.141613 -20.252462 23.258392
v -37.091698 -20.252775 23.261940
v -37.113331 -20.252443 22.389877
v -37.063335 -20.252756 22.391647
v -37.118668 -20.252447 21.519440
v -37.188412 -20.276953 22.387207
v -37.068672 -20.252768 21.519440
v -36.993515 -20.228230 21.519440
v -37.064026 -20.252760 20.647232
v -36.988884 -20.228226 20.644569
v -36.963406 -20.153391 20.643684
v -37.016666 -20.228247 19.771622
v -36.991234 -20.153402 19.769852
v -37.094276 -20.228296 19.083534
v -37.069160 -20.153452 19.079002
v -37.233650 -20.228449 18.541824
v -37.209686 -20.153585 18.532852
v -37.443760 -20.228754 18.136375
v -37.422646 -20.153872 18.121918
v -37.721779 -20.229168 17.834656
v -37.505875 -20.253382 18.179810
v -37.705139 -20.154270 17.815331
v -38.073330 -20.229630 17.610382
v -38.061630 -20.154696 17.587921
v -38.465847 -20.230040 17.461754
v -38.458710 -20.155075 17.437576
v -38.855770 -20.230442 17.390991
v -38.853580 -20.155458 17.365906
v -39.711941 -20.230650 17.421928
v -38.861320 -20.255398 17.466232
v -39.713131 -20.155649 17.396957
v -41.491337 -20.230564 17.579796
v -41.493587 -20.155567 17.554924
v -43.236996 -20.230442 17.782906
v -43.239685 -20.155430 17.758080
v -43.609375 -20.230505 17.826920
v -43.614132 -20.155493 17.802330
v -43.921104 -20.230680 17.916473
v -43.594585 -20.255558 17.900688
v -43.887119 -20.255758 17.984718
v -43.932281 -20.155661 17.893723
v -44.274258 -20.230774 18.182564
v -44.290146 -20.155739 18.163345
v -44.904827 -20.230650 18.764755
v -44.921902 -20.155626 18.746613
v -45.669842 -20.230453 19.508583
v -45.687180 -20.155422 19.490662
v -46.433548 -20.230259 20.250984
v -46.451283 -20.155243 20.233414
v -47.031197 -20.230095 20.878334
v -46.380257 -20.255304 20.303757
v -46.973289 -20.255110 20.926270
v -46.934696 -20.255117 20.958260
v -47.145191 -20.255035 21.208717
v -47.215473 -20.254999 21.519440
v -47.097397 -20.255030 21.225471
v -47.216885 -20.230032 21.183601
v -47.240772 -20.155031 21.175232
v -47.292778 -20.230001 21.519440
v -47.318550 -20.155001 21.519440
v -47.218460 -20.230032 21.854912
v -47.242393 -20.155031 21.863266
v -47.031197 -20.230095 22.160561
v -47.146637 -20.255035 21.829826
v -47.098759 -20.255026 21.813095
v -46.973289 -20.255110 22.112610
v -46.380257 -20.255304 22.735123
v -46.934696 -20.255117 22.080635
v -46.344727 -20.255327 22.699944
v -46.876812 -20.280142 22.032745
v -46.291447 -20.280365 22.647217
v -47.026989 -20.280041 21.788033
v -47.086700 -20.279984 21.519440
v -47.163937 -20.254984 21.519440
v -47.025753 -20.280041 21.250565
v -47.002026 -20.355045 21.258835
v -46.876816 -20.280142 21.006149
v -46.857601 -20.355154 21.021965
v -46.273766 -20.355370 22.629799
v -45.530499 -20.280628 23.386948
v -44.767368 -20.280886 24.128990
v -45.513195 -20.355648 23.369186
v -45.582737 -20.255558 23.440674
v -45.617588 -20.255512 23.476532
v -44.818905 -20.255796 24.183380
v -44.853275 -20.255730 24.219696
v -44.194118 -20.255949 24.760246
v -44.226196 -20.255859 24.798676
v -43.864353 -20.255823 25.008698
v -44.146057 -20.281046 24.702660
v -43.830360 -20.280901 24.940483
v -44.130192 -20.356085 24.683586
v -43.819183 -20.355932 24.917877
v -44.134895 -21.218132 24.687416
v -44.750332 -20.355917 24.110992
v -44.754406 -21.176073 24.114891
v -45.516155 -21.124363 23.373123
v -44.756447 -22.107637 24.116844
v -45.517632 -22.030209 23.375092
v -44.137245 -22.170647 24.689331
v -43.825542 -22.202433 24.923264
v -44.139595 -23.123163 24.691254
v -43.827660 -23.165583 24.925056
v -43.826771 -23.329723 24.787918
v -43.568146 -23.200939 24.998169
v -43.520359 -23.369942 24.884178
v -43.213696 -23.249092 25.039154
v -43.567341 -22.228870 24.996346
v -43.213009 -22.264954 25.037537
v -43.566536 -21.256800 24.994507
v -43.212315 -21.280825 25.035919
v -43.564930 -20.355627 24.990860
v -43.823425 -21.239269 24.921463
v -43.210930 -20.355522 25.032677
v -43.569817 -20.280611 25.015305
v -43.213787 -20.280514 25.057388
v -43.584652 -20.255566 25.089020
v -43.594578 -20.255566 25.138191
v -43.222504 -20.255491 25.131821
v -43.228329 -20.255476 25.181488
v -41.478676 -20.255629 25.334717
v -41.483780 -20.255606 25.384468
v -39.704254 -20.255692 25.492149
v -41.471077 -20.280651 25.260147
v -41.468681 -20.355663 25.235382
v -39.699661 -20.280714 25.417305
v -38.870327 -20.280361 25.447266
v -39.698345 -20.355713 25.392448
v -38.872395 -20.355347 25.422272
v -39.705410 -21.518333 25.395309
v -38.880547 -21.574053 25.424629
v -41.472988 -21.398630 25.238411
v -39.708939 -22.621132 25.396736
v -38.884621 -22.704891 25.425827
v -39.712467 -23.723915 25.398170
v -41.475143 -22.441607 25.239929
v -41.477295 -23.484575 25.241455
v -41.449871 -23.648872 25.131058
v -43.153206 -23.419640 24.932709
v -39.721737 -23.882753 25.283424
v -41.415710 -23.745049 24.951851
v -39.729950 -23.973637 25.100510
v -41.369198 -23.751356 24.466118
v -43.080292 -23.519329 24.754669
v -43.000259 -23.530188 24.292839
v -43.458771 -23.468010 24.698547
v -43.810581 -23.420315 24.576591
v -41.336674 -23.755762 23.972542
v -39.723923 -23.974459 24.598679
v -39.719070 -23.975111 24.085304
v -39.718075 -23.975248 23.633957
v -39.719254 -23.975092 23.106949
v -41.326241 -23.757193 23.539566
v -38.978249 -24.075567 23.135406
v -38.979424 -24.075411 22.327423
v -38.598549 -24.127058 22.333862
v -38.936153 -24.081263 25.133034
v -38.910927 -23.992489 25.313782
v -38.888695 -23.835733 25.427002
v -38.542210 -23.882854 25.362762
v -38.538326 -22.740080 25.361931
v -38.186985 -22.775728 25.227806
v -38.534435 -21.597292 25.361107
v -38.183041 -21.620848 25.227303
v -38.526657 -20.354698 25.359451
v -38.175137 -20.354036 25.226311
v -38.519688 -20.279736 25.383591
v -38.163601 -20.279106 25.248749
v -38.499454 -20.254847 25.456139
v -38.486126 -20.254925 25.504562
v -38.864822 -20.255398 25.522491
v -38.129707 -20.254311 25.316132
v -38.107292 -20.254421 25.361107
v -37.802734 -20.253695 25.107498
v -37.770481 -20.253889 25.146233
v -37.547134 -20.253099 24.830017
v -37.851383 -20.278400 25.049522
v -37.609192 -20.277731 24.786591
v -37.867836 -20.353302 25.030205
v -37.630119 -20.352613 24.772118
v -37.875992 -21.641352 25.030594
v -37.638618 -21.657143 24.772102
v -37.880062 -22.806860 25.030785
v -37.642868 -22.830889 24.772087
v -37.505875 -20.253374 24.859070
v -37.304314 -20.253010 24.470123
v -37.443760 -20.228746 24.902496
v -37.422646 -20.153868 24.916954
v -37.233650 -20.228441 24.497055
v -37.721779 -20.229164 25.204224
v -38.073338 -20.229626 25.428505
v -37.705139 -20.154266 25.223549
v -38.061634 -20.154692 25.450974
v -37.704018 -19.970613 25.223541
v -38.060551 -19.971069 25.450974
v -37.421528 -19.970175 24.916931
v -37.719742 -19.895519 25.204216
v -38.071377 -19.895996 25.428505
v -37.441727 -19.895050 24.902451
v -37.768139 -19.870228 25.146225
v -37.865356 -19.869652 25.030319
v -37.503536 -19.869692 24.859016
v -38.105030 -19.870802 25.361107
v -38.172745 -19.870415 25.226349
v -38.483982 -19.871325 25.504532
v -38.524361 -19.871107 25.359428
v -38.859291 -19.871826 25.572670
v -38.463985 -19.896437 25.577103
v -38.457691 -19.971470 25.601303
v -38.854015 -19.896872 25.647911
v -38.852612 -19.971880 25.672989
v -39.710316 -19.897133 25.616951
v -39.712246 -19.972134 25.641907
v -41.490017 -19.897173 25.459076
v -39.705521 -19.872150 25.542076
v -39.696205 -19.872210 25.392311
v -41.482269 -19.872200 25.384460
v -41.466980 -19.872267 25.235222
v -43.227215 -19.872189 25.181488
v -43.209743 -19.872236 25.032509
v -43.593582 -19.872299 25.138176
v -43.236019 -19.897141 25.255981
v -43.239155 -19.972137 25.280807
v -43.608494 -19.897242 25.211945
v -43.613640 -19.972223 25.236534
v -43.920315 -19.897446 25.122421
v -43.931835 -19.972424 25.145172
v -44.273575 -19.897568 24.856285
v -43.886211 -19.872524 25.054169
v -43.818188 -19.872698 24.917610
v -44.225407 -19.872665 24.798637
v -44.129169 -19.872885 24.683327
v -44.852642 -19.872576 24.219635
v -44.749466 -19.872768 24.110741
v -45.617153 -19.872423 23.476486
v -44.904270 -19.897493 24.274094
v -44.921589 -19.972462 24.292252
v -45.669456 -19.897356 23.530266
v -45.686966 -19.972324 23.548203
v -46.433357 -19.897188 22.787857
v -46.451168 -19.972185 22.805466
v -47.031139 -19.897070 22.160507
v -46.380035 -19.872240 22.735077
v -46.273422 -19.872314 22.629517
v -46.973248 -19.872087 22.112549
v -46.857430 -19.872122 22.016663
v -47.146637 -19.872028 21.829803
v -47.215500 -19.872002 21.519440
v -47.002991 -19.872028 21.779625
v -47.218456 -19.897028 21.854897
v -47.242401 -19.972027 21.863258
v -47.292801 -19.897003 21.519440
v -47.216877 -19.897024 21.183617
v -47.318569 -19.972004 21.519440
v -47.240776 -19.972023 21.175240
v -47.050461 -19.972063 20.862381
v -46.451168 -19.972185 20.233429
v -47.050476 -20.155090 20.862358
v -47.031139 -19.897070 20.878380
v -46.433357 -19.897188 20.251022
v -46.973248 -19.872087 20.926331
v -46.380035 -19.872240 20.303810
v -46.857430 -19.872122 21.022232
v -47.145191 -19.872028 21.208733
v -47.001808 -19.872032 21.258980
v -47.060894 -19.871983 21.519440
v -46.273422 -19.872314 20.409363
v -45.512585 -19.872545 19.669960
v -45.617153 -19.872423 19.562401
v -44.749466 -19.872772 18.928146
v -44.852642 -19.872580 18.819244
v -44.129158 -19.872889 18.355560
v -44.225403 -19.872669 18.240250
v -43.818188 -19.872702 18.121277
v -43.886211 -19.872526 17.984718
v -43.563919 -19.872374 18.048241
v -43.593586 -19.872307 17.900703
v -43.209743 -19.872240 18.006378
v -43.227215 -19.872192 17.857407
v -41.466980 -19.872271 17.803658
v -41.482269 -19.872204 17.654419
v -39.696205 -19.872213 17.646568
v -39.705521 -19.872154 17.496803
v -38.870205 -19.871782 17.616707
v -38.859283 -19.871830 17.466209
v -38.524357 -19.871099 17.679451
v -38.483978 -19.871328 17.534348
v -38.172745 -19.870419 17.812531
v -38.105030 -19.870806 17.677773
v -37.865356 -19.869656 18.008560
v -37.768139 -19.870228 17.892662
v -37.627514 -19.868933 18.266632
v -37.503544 -19.869696 18.179855
v -37.442974 -19.868425 18.622643
v -37.301937 -19.869312 18.568802
v -37.313847 -19.868191 19.124367
v -37.165970 -19.869125 19.097160
v -37.239037 -19.868120 19.787575
v -37.089287 -19.869066 19.776947
v -37.211601 -19.868101 20.652557
v -37.061611 -19.869047 20.647240
v -37.216255 -19.868113 21.519440
v -37.066257 -19.869051 21.519440
v -37.210899 -19.868097 22.386330
v -37.060928 -19.869043 22.391647
v -37.239037 -19.868120 23.251297
v -37.089287 -19.869066 23.261940
v -37.313847 -19.868195 23.914520
v -37.165970 -19.869125 23.941727
v -37.442978 -19.868425 24.416245
v -37.301941 -19.869312 24.470078
v -37.627514 -19.868929 24.772247
v -37.231594 -19.894737 24.497025
v -37.208553 -19.969883 24.506012
v -37.092190 -19.894581 23.955338
v -37.014568 -19.894529 23.267250
v -37.068008 -19.969730 23.959885
v -37.069160 -20.153448 23.959892
v -36.990082 -19.969687 23.269020
v -36.961571 -19.969675 22.395195
v -36.991234 -20.153402 23.269020
v -36.962723 -20.153391 22.395195
v -37.016666 -20.228247 23.267258
v -37.094276 -20.228292 23.955353
v -36.988190 -20.228226 22.394310
v -36.968044 -20.153399 21.519440
v -36.966888 -19.969683 21.519440
v -36.962254 -19.969675 20.643684
v -36.991421 -19.894522 21.519440
v -36.986095 -19.894514 22.394310
v -36.986782 -19.894514 20.644577
v -37.014568 -19.894529 19.771629
v -36.990082 -19.969687 19.769852
v -37.092190 -19.894585 19.083549
v -37.231594 -19.894733 18.541862
v -37.068008 -19.969734 19.079002
v -37.208553 -19.969870 18.532867
v -37.421535 -19.970179 18.121941
v -37.704018 -19.970613 17.815338
v -37.441730 -19.895054 18.136429
v -37.719742 -19.895523 17.834671
v -38.071377 -19.896000 17.610374
v -38.463982 -19.896441 17.461777
v -38.060551 -19.971073 17.587914
v -38.457691 -19.971474 17.437576
v -38.852604 -19.971884 17.365891
v -39.712246 -19.972137 17.396965
v -38.854008 -19.896875 17.390968
v -39.710316 -19.897137 17.421928
v -41.490017 -19.897177 17.579803
v -43.236023 -19.897144 17.782913
v -41.492855 -19.972164 17.554932
v -43.239155 -19.972141 17.758072
v -43.613644 -19.972235 17.802345
v -43.931835 -19.972427 17.893715
v -43.608501 -19.897255 17.826935
v -43.920315 -19.897449 17.916466
v -44.273571 -19.897572 18.182602
v -44.289764 -19.972544 18.163376
v -44.904270 -19.897497 18.764786
v -45.669456 -19.897356 19.508621
v -44.921589 -19.972466 18.746635
v -45.686966 -19.972324 19.490692
v -37.209686 -20.153582 24.506035
v -47.050461 -19.972063 22.176506
v -47.050476 -20.155090 22.176529
v -46.451283 -20.155243 22.805481
v -45.687180 -20.155422 23.548218
v -46.433548 -20.230259 22.787903
v -45.669842 -20.230453 23.530296
v -44.904827 -20.230646 24.274139
v -44.921902 -20.155622 24.292274
v -44.274269 -20.230770 24.856316
v -44.290157 -20.155735 24.875534
v -43.921093 -20.230677 25.122406
v -43.932281 -20.155661 25.145172
v -43.609371 -20.230501 25.211960
v -43.887119 -20.255758 25.054161
v -43.614132 -20.155493 25.236549
v -43.236996 -20.230438 25.255981
v -43.239685 -20.155426 25.280807
v -41.491337 -20.230560 25.459084
v -41.493587 -20.155563 25.483948
v -39.711941 -20.230646 25.616959
v -39.713131 -20.155645 25.641922
v -38.855785 -20.230438 25.647888
v -39.707390 -20.255663 25.542076
v -38.861324 -20.255394 25.572647
v -38.853588 -20.155455 25.672974
v -38.465851 -20.230036 25.577126
v -38.458714 -20.155075 25.601318
v -41.492855 -19.972160 25.483948
v -44.289768 -19.972540 24.875511
v -45.512585 -19.872545 23.368927
v -43.563915 -19.872364 24.990646
v -38.870205 -19.871778 25.422173
v -37.377277 -24.199146 19.808037
v -44.384804 -23.342461 20.445885
v -44.856270 -23.278515 20.717575
v -44.370110 -23.344454 20.982140
v -44.841461 -23.280527 21.116379
v -45.313297 -23.216549 21.247162
v -44.855667 -23.278601 21.519455
v -44.839985 -23.280724 21.922569
v -45.303398 -23.217894 20.984726
v -44.913170 -23.270803 20.493233
vn -0.1344 -0.9909 -0.0000
vn -0.1349 -0.9909 -0.0018
vn -0.1359 -0.9906 -0.0145
vn -0.1362 -0.9906 -0.0103
vn -0.1365 -0.9906 -0.0122
vn -0.1427 -0.9896 -0.0196
vn -0.1368 -0.9902 -0.0268
vn -0.1370 -0.9903 -0.0238
vn -0.1393 -0.9902 -0.0050
vn -0.1450 -0.9894 -0.0020
vn -0.1467 -0.9892 -0.0007
vn -0.1355 -0.9908 -0.0025
vn -0.1436 -0.9895 0.0193
vn -0.1399 -0.9901 0.0051
vn -0.1370 -0.9902 0.0268
vn -0.1356 -0.9908 -0.0022
vn -0.1373 -0.9902 0.0238
vn -0.1369 -0.9905 0.0145
vn -0.1362 -0.9905 0.0172
vn -0.1365 -0.9906 0.0123
vn -0.1350 -0.9908 0.0022
vn -0.1367 -0.9905 0.0127
vn -0.1371 -0.9903 0.0206
vn -0.3016 -0.9425 -0.1440
vn -0.2942 -0.9403 -0.1711
vn -0.2951 -0.9396 -0.1736
vn -0.2917 -0.9411 -0.1710
vn -0.2778 -0.9454 -0.1703
vn -0.1779 -0.9602 -0.2156
vn -0.1583 -0.9623 -0.2210
vn -0.2408 -0.9505 -0.1964
vn -0.5103 -0.7059 -0.4912
vn -0.3867 -0.7367 -0.5547
vn -0.2307 -0.7568 -0.6115
vn -0.6323 -0.2665 -0.7275
vn -0.4440 -0.2909 -0.8475
vn -0.2294 -0.3060 -0.9240
vn -0.4433 0.0026 -0.8964
vn -0.6402 0.0030 -0.7682
vn -0.1941 0.0020 -0.9810
vn -0.1954 0.0032 -0.9807
vn -0.4445 0.0042 -0.8957
vn -0.6404 0.0049 -0.7680
vn -0.1154 0.0018 -0.9933
vn -0.1521 -0.2992 -0.9420
vn -0.1158 0.0027 -0.9933
vn -0.4397 -0.1616 -0.8835
vn -0.1941 -0.1589 -0.9680
vn -0.1148 -0.1576 -0.9808
vn -0.1007 -0.1580 -0.9823
vn -0.1019 0.0025 -0.9948
vn -0.1019 0.0017 -0.9948
vn -0.0613 -0.1586 -0.9854
vn -0.0619 0.0021 -0.9981
vn -0.0617 0.0014 -0.9981
vn -0.1372 -0.2966 -0.9451
vn -0.0984 -0.2986 -0.9493
vn 0.0727 0.0011 -0.9974
vn 0.0736 0.0008 -0.9973
vn 0.0322 -0.2985 -0.9539
vn -0.1666 -0.7475 -0.6431
vn -0.1417 -0.7476 -0.6488
vn -0.0566 -0.7478 -0.6615
vn 0.2174 -0.2931 -0.9310
vn 0.0733 -0.7399 -0.6688
vn 0.2702 -0.0002 -0.9628
vn 0.3937 -0.2482 -0.8851
vn 0.2014 -0.6751 -0.7097
vn 0.4507 -0.0012 -0.8927
vn 0.2690 -0.0003 -0.9631
vn 0.4497 -0.0016 -0.8932
vn 0.6431 -0.0030 -0.7658
vn 0.6439 -0.0021 -0.7651
vn 0.6140 -0.2124 -0.7601
vn 0.8195 -0.0041 -0.5731
vn 0.8200 -0.0030 -0.5724
vn 0.7937 -0.2572 -0.5512
vn 0.4537 -0.6207 -0.6395
vn 0.5928 -0.6995 -0.3992
vn 0.8838 -0.3133 -0.3476
vn 0.5833 -0.7755 -0.2417
vn 0.9345 -0.0035 -0.3559
vn 0.9269 -0.3307 -0.1774
vn 0.5884 -0.7997 -0.1197
vn 0.9836 -0.0038 -0.1806
vn 0.9343 -0.0049 -0.3564
vn 0.9835 -0.0053 -0.1808
vn 0.9974 -0.0054 -0.0718
vn 0.9974 -0.0039 -0.0718
vn 0.9382 -0.3388 -0.0705
vn 0.9999 -0.0039 -0.0131
vn 0.9394 -0.3426 -0.0129
vn 0.9999 -0.0055 -0.0131
vn 1.0000 -0.0039 -0.0004
vn 0.9389 -0.3443 -0.0004
vn 1.0000 -0.0055 -0.0004
vn 0.5849 -0.8098 -0.0469
vn 0.5804 -0.8143 -0.0084
vn 0.5775 -0.8164 -0.0003
vn 0.9999 -0.0039 0.0131
vn 0.9394 -0.3426 0.0130
vn 0.5805 -0.8142 0.0084
vn 0.5848 -0.8098 0.0472
vn 0.9382 -0.3388 0.0709
vn 0.9974 -0.0039 0.0722
vn 0.9999 -0.0055 0.0131
vn 0.9974 -0.0054 0.0722
vn 0.9835 -0.1664 0.0713
vn 0.9860 -0.1660 0.0129
vn 0.9862 -0.1656 -0.0004
vn 0.9860 -0.1660 -0.0129
vn 0.7043 -0.7099 -0.0003
vn 0.7005 -0.7136 0.0092
vn 0.7006 -0.7134 -0.0092
vn 0.9835 -0.1664 -0.0709
vn 0.6956 -0.7167 -0.0501
vn 0.1521 -0.9884 -0.0020
vn 0.1546 -0.9880 -0.0001
vn 0.1495 -0.9887 -0.0107
vn 0.1445 -0.9892 -0.0264
vn 0.6813 -0.7212 -0.1252
vn 0.9697 -0.1670 -0.1784
vn 0.1580 -0.9870 -0.0289
vn 0.1574 -0.9875 -0.0113
vn 0.1558 -0.9878 -0.0020
vn 0.1332 -0.9898 -0.0502
vn 0.1540 -0.9863 -0.0583
vn 0.6405 -0.7282 -0.2441
vn 0.1160 -0.9900 -0.0798
vn 0.1373 -0.9859 -0.0951
vn 0.5593 -0.7312 -0.3906
vn 0.9210 -0.1681 -0.3515
vn 0.8077 -0.1680 -0.5652
vn 0.6337 -0.1666 -0.7554
vn 0.4400 -0.7298 -0.5232
vn 0.4431 -0.1643 -0.8813
vn 0.3102 -0.7245 -0.6155
vn 0.0670 -0.9892 -0.1304
vn 0.0925 -0.9898 -0.1082
vn 0.0759 -0.9860 -0.1487
vn 0.1087 -0.9858 -0.1280
vn 0.0412 -0.9888 -0.1433
vn 0.0458 -0.9859 -0.1607
vn 0.1864 -0.7218 -0.6665
vn 0.0115 -0.9890 -0.1478
vn 0.0128 -0.9855 -0.1690
vn 0.0503 -0.7239 -0.6881
vn 0.2648 -0.1626 -0.9505
vn 0.0714 -0.1617 -0.9843
vn -0.0437 -0.7103 -0.7025
vn -0.0720 -0.7084 -0.7021
vn -0.0163 -0.9872 -0.1584
vn -0.0097 -0.9875 -0.1575
vn -0.0166 -0.9868 -0.1611
vn -0.0100 -0.9866 -0.1627
vn -0.0186 -0.9870 -0.1594
vn -0.0187 -0.9870 -0.1596
vn -0.0824 -0.7065 -0.7029
vn -0.0296 -0.9883 -0.1494
vn -0.0328 -0.9857 -0.1651
vn -0.1367 -0.7186 -0.6819
vn -0.3015 -0.7363 -0.6058
vn -0.0624 -0.9900 -0.1262
vn -0.6328 -0.1564 -0.7584
vn -0.4493 -0.7130 -0.5383
vn -0.1002 -0.9877 -0.1202
vn -0.1103 -0.9871 -0.1162
vn -0.4862 -0.7075 -0.5129
vn -0.6795 -0.1557 -0.7170
vn -0.1065 -0.9861 -0.1277
vn -0.0785 -0.9843 -0.1581
vn -0.1120 -0.9867 -0.1179
vn -0.1125 -0.9869 -0.1154
vn -0.1124 -0.9869 -0.1153
vn -0.4939 -0.7058 -0.5078
vn -0.1131 -0.9873 -0.1116
vn -0.1157 -0.9867 -0.1142
vn -0.5014 -0.7088 -0.4961
vn -0.6887 -0.1558 -0.7081
vn -0.7020 -0.1564 -0.6948
vn -0.7108 0.0042 -0.7033
vn -0.6974 0.0045 -0.7167
vn -0.6881 0.0049 -0.7256
vn -0.6883 0.0030 -0.7254
vn -0.6977 0.0027 -0.7164
vn -0.6833 -0.2532 -0.6848
vn -0.6925 -0.2495 -0.6769
vn -0.5469 -0.6890 -0.4756
vn -0.5563 -0.6792 -0.4787
vn -0.5628 -0.6764 -0.4752
vn -0.7065 -0.2356 -0.6674
vn -0.5998 -0.6909 -0.4036
vn -0.7870 -0.2538 -0.5623
vn -0.7110 0.0024 -0.7032
vn -0.7923 0.0023 -0.6102
vn -0.7927 0.0041 -0.6096
vn -0.9252 0.0025 -0.3794
vn -0.9258 0.0044 -0.3780
vn -0.8987 -0.2775 -0.3397
vn -0.9593 -0.2825 -0.0031
vn -1.0000 0.0027 -0.0027
vn -1.0000 0.0048 -0.0025
vn -0.9257 0.0025 0.3783
vn -0.9261 0.0045 0.3771
vn -0.8992 -0.2777 0.3382
vn -0.9144 -0.1606 0.3717
vn -0.9864 -0.1641 -0.0022
vn -0.9142 -0.1603 -0.3722
vn -0.7917 0.0042 0.6109
vn -0.7826 -0.1581 0.6021
vn -0.7912 0.0024 0.6115
vn -0.7109 0.0025 0.7032
vn -0.7108 0.0042 0.7034
vn -0.7020 -0.1564 0.6948
vn -0.7857 -0.2528 0.5646
vn -0.7064 -0.2357 0.6675
vn -0.5994 -0.6898 0.4062
vn -0.5627 -0.6764 0.4752
vn -0.6557 -0.7181 0.2332
vn -0.6849 -0.7287 -0.0029
vn -0.3392 -0.9407 -0.0023
vn -0.3208 -0.9440 0.0774
vn -0.3012 -0.9424 0.1458
vn -0.1369 -0.9904 -0.0207
vn -0.1363 -0.9906 -0.0107
vn -0.1355 -0.9908 -0.0019
vn -0.3195 -0.9445 -0.0764
vn -0.6547 -0.7190 -0.2332
vn -0.2942 -0.9403 0.1711
vn -0.2951 -0.9396 0.1736
vn -0.5563 -0.6792 0.4787
vn -0.6925 -0.2495 0.6769
vn -0.2917 -0.9411 0.1711
vn -0.5469 -0.6889 0.4757
vn -0.6832 -0.2531 0.6849
vn -0.5103 -0.7059 0.4912
vn -0.6323 -0.2665 0.7275
vn -0.2778 -0.9454 0.1704
vn -0.2408 -0.9505 0.1964
vn -0.1453 -0.9617 -0.2326
vn -0.1164 -0.9624 -0.2455
vn -0.1533 -0.9616 -0.2276
vn -0.1800 -0.7519 -0.6342
vn -0.0695 -0.9646 -0.2545
vn -0.0324 -0.9570 -0.2883
vn 0.1592 -0.9762 -0.1473
vn 0.1560 -0.9355 -0.3169
vn 0.1359 -0.9868 -0.0885
vn 0.1261 -0.9911 -0.0419
vn 0.1197 -0.9927 -0.0162
vn 0.1116 -0.9937 -0.0001
vn 0.1152 -0.9933 -0.0027
vn 0.1154 -0.9933 0.0027
vn 0.1197 -0.9927 0.0163
vn 0.1261 -0.9911 0.0419
vn 0.5884 -0.7997 0.1196
vn 0.1359 -0.9868 0.0886
vn -0.0695 -0.9646 0.2545
vn -0.1164 -0.9624 0.2455
vn -0.0324 -0.9570 0.2884
vn 0.1592 -0.9762 0.1473
vn 0.1561 -0.9355 0.3169
vn 0.4537 -0.6206 0.6395
vn 0.2014 -0.6751 0.7098
vn 0.0733 -0.7398 0.6688
vn 0.3937 -0.2482 0.8851
vn 0.2174 -0.2931 0.9310
vn 0.6140 -0.2124 0.7602
vn 0.5928 -0.6994 0.3992
vn 0.7937 -0.2572 0.5513
vn 0.8838 -0.3133 0.3476
vn 0.5833 -0.7754 0.2417
vn 0.9269 -0.3307 0.1774
vn 0.9836 -0.0038 0.1806
vn 0.9345 -0.0035 0.3559
vn 0.9835 -0.0053 0.1808
vn 0.9343 -0.0049 0.3564
vn 0.9697 -0.1671 0.1784
vn 0.9210 -0.1680 0.3515
vn 0.6813 -0.7212 0.1252
vn 0.6405 -0.7282 0.2441
vn 0.6956 -0.7166 0.0504
vn 0.1445 -0.9892 0.0264
vn 0.1333 -0.9898 0.0503
vn 0.1496 -0.9887 0.0108
vn 0.1574 -0.9875 0.0114
vn 0.1581 -0.9870 0.0289
vn 0.1541 -0.9863 0.0583
vn 0.1520 -0.9884 0.0020
vn 0.1559 -0.9878 0.0020
vn 0.1534 -0.9882 -0.0001
vn 0.7019 -0.7123 -0.0003
vn 0.7053 -0.7088 0.0093
vn 0.7052 -0.7090 -0.0093
vn 0.7063 -0.7061 -0.0510
vn 0.9860 -0.1665 -0.0004
vn 0.9860 -0.1662 -0.0131
vn 0.9836 -0.1659 -0.0710
vn 0.9699 -0.1654 -0.1786
vn 0.7003 -0.7021 -0.1288
vn 0.9214 -0.1649 -0.3520
vn 0.6702 -0.6967 -0.2558
vn 0.8078 -0.1642 -0.5661
vn 0.5899 -0.6939 -0.4129
vn 0.6335 -0.1631 -0.7564
vn 0.4628 -0.6936 -0.5520
vn 0.4425 -0.1619 -0.8820
vn 0.3225 -0.6957 -0.6418
vn 0.2641 -0.1608 -0.9510
vn 0.1925 -0.6963 -0.6915
vn 0.0708 -0.1598 -0.9846
vn 0.0519 -0.6938 -0.7183
vn -0.0615 -0.1596 -0.9853
vn -0.0442 -0.7034 -0.7094
vn -0.1007 -0.1596 -0.9820
vn -0.0724 -0.7049 -0.7056
vn -0.1150 -0.1598 -0.9804
vn -0.0824 -0.7066 -0.7028
vn -0.1948 -0.1588 -0.9679
vn -0.1415 -0.6960 -0.7040
vn -0.4407 -0.1588 -0.8835
vn -0.3251 -0.6850 -0.6520
vn -0.4580 -0.6995 -0.5486
vn -0.6328 -0.1583 -0.7580
vn -0.6791 -0.1588 -0.7167
vn -0.4882 -0.7045 -0.5151
vn -0.6882 -0.1593 -0.7078
vn -0.4934 -0.7065 -0.5073
vn -0.7016 -0.1594 -0.6945
vn -0.5048 -0.7040 -0.4995
vn -0.7835 -0.1584 -0.6008
vn -0.5729 -0.6923 -0.4388
vn -0.1360 -0.9853 -0.1034
vn -0.1187 -0.9887 -0.0911
vn -0.1613 -0.9847 -0.0661
vn -0.1324 -0.9898 -0.0528
vn -0.6734 -0.6872 -0.2725
vn -0.1768 -0.9843 -0.0004
vn -0.7298 -0.6837 -0.0016
vn -0.1342 -0.9909 -0.0002
vn -0.9155 -0.1593 -0.3695
vn -0.9869 -0.1612 -0.0021
vn -0.9157 -0.1594 0.3690
vn -0.6737 -0.6870 0.2723
vn -0.1614 -0.9847 0.0661
vn -0.5720 -0.6925 0.4395
vn -0.7826 -0.1585 0.6021
vn -0.1356 -0.9853 0.1035
vn -0.1187 -0.9887 0.0914
vn -0.1319 -0.9899 0.0525
vn -0.1157 -0.9867 0.1142
vn -0.5048 -0.7040 0.4995
vn -0.1131 -0.9873 0.1116
vn -0.5488 -0.7218 0.4218
vn -0.5014 -0.7088 0.4961
vn -0.6302 -0.7333 0.2552
vn -0.6667 -0.7453 -0.0014
vn -0.6310 -0.7324 -0.2558
vn -0.7836 -0.1581 -0.6008
vn -0.5493 -0.7220 -0.4208
vn -0.6887 -0.1558 0.7081
vn -0.4939 -0.7058 0.5078
vn -0.1125 -0.9869 0.1154
vn -0.1103 -0.9871 0.1162
vn -0.4862 -0.7075 0.5129
vn -0.6795 -0.1557 0.7170
vn -0.1120 -0.9867 0.1179
vn -0.1124 -0.9869 0.1153
vn -0.1002 -0.9877 0.1202
vn -0.1065 -0.9861 0.1277
vn -0.4493 -0.7130 0.5383
vn -0.0624 -0.9900 0.1262
vn -0.0785 -0.9843 0.1581
vn -0.3015 -0.7363 0.6058
vn -0.6328 -0.1565 0.7584
vn -0.4397 -0.1617 0.8835
vn -0.6404 0.0049 0.7680
vn -0.4447 0.0042 0.8957
vn -0.6881 0.0049 0.7256
vn -0.6974 0.0045 0.7167
vn -0.6977 0.0027 0.7164
vn -0.6883 0.0030 0.7254
vn -0.6402 0.0030 0.7682
vn -0.4436 0.0026 0.8962
vn -0.4444 -0.2908 0.8473
vn -0.3869 -0.7366 0.5547
vn -0.2308 -0.7568 0.6116
vn -0.2296 -0.3060 0.9239
vn -0.1943 0.0020 0.9809
vn -0.1521 -0.2992 0.9420
vn -0.1800 -0.7519 0.6342
vn -0.1154 0.0018 0.9933
vn -0.1158 0.0027 0.9933
vn -0.1955 0.0032 0.9807
vn -0.1148 -0.1576 0.9808
vn -0.1941 -0.1589 0.9680
vn -0.0824 -0.7065 0.7029
vn -0.1368 -0.7186 0.6819
vn -0.0186 -0.9870 0.1594
vn -0.0295 -0.9883 0.1494
vn -0.0328 -0.9857 0.1651
vn -0.0187 -0.9870 0.1596
vn -0.0163 -0.9872 0.1584
vn -0.0166 -0.9868 0.1611
vn -0.0720 -0.7084 0.7021
vn -0.0097 -0.9875 0.1576
vn -0.0100 -0.9866 0.1627
vn -0.0437 -0.7103 0.7025
vn -0.1007 -0.1580 0.9823
vn -0.0613 -0.1586 0.9854
vn 0.0115 -0.9889 0.1478
vn 0.0503 -0.7239 0.6881
vn 0.0714 -0.1617 0.9843
vn -0.0619 0.0021 0.9981
vn 0.0727 0.0011 0.9974
vn -0.1019 0.0025 0.9948
vn -0.0617 0.0014 0.9981
vn 0.0736 0.0008 0.9973
vn -0.1019 0.0017 0.9948
vn -0.0984 -0.2986 0.9493
vn 0.0322 -0.2985 0.9539
vn -0.1372 -0.2966 0.9451
vn -0.1666 -0.7474 0.6431
vn -0.1417 -0.7476 0.6489
vn -0.1583 -0.9623 0.2211
vn -0.1533 -0.9616 0.2276
vn -0.1453 -0.9617 0.2326
vn -0.1779 -0.9601 0.2156
vn -0.0566 -0.7478 0.6615
vn 0.2701 -0.0002 0.9628
vn 0.4507 -0.0012 0.8927
vn 0.4497 -0.0016 0.8932
vn 0.2690 -0.0003 0.9631
vn 0.4431 -0.1644 0.8813
vn 0.2648 -0.1627 0.9505
vn 0.3102 -0.7246 0.6154
vn 0.1864 -0.7218 0.6665
vn 0.0670 -0.9892 0.1305
vn 0.0412 -0.9888 0.1434
vn 0.0759 -0.9860 0.1488
vn 0.0458 -0.9859 0.1608
vn 0.0128 -0.9855 0.1690
vn 0.0926 -0.9898 0.1082
vn 0.1087 -0.9858 0.1280
vn 0.4400 -0.7298 0.5232
vn 0.1160 -0.9900 0.0798
vn 0.1374 -0.9859 0.0951
vn 0.5593 -0.7312 0.3906
vn 0.6337 -0.1666 0.7554
vn 0.8077 -0.1680 0.5652
vn 0.6430 -0.0030 0.7658
vn 0.8195 -0.0041 0.5731
vn 0.6439 -0.0021 0.7651
vn 0.8199 -0.0030 0.5725
vn 0.5899 -0.6939 0.4129
vn 0.4628 -0.6936 0.5519
vn 0.6702 -0.6967 0.2558
vn 0.8078 -0.1642 0.5661
vn 0.6335 -0.1631 0.7564
vn 0.9214 -0.1649 0.3520
vn 0.3225 -0.6958 0.6418
vn 0.4425 -0.1619 0.8820
vn 0.4426 0.1568 0.8829
vn 0.6341 0.1556 0.7575
vn 0.8090 0.1546 0.5671
vn 0.4653 0.6883 0.5566
vn 0.3231 0.6920 0.6456
vn 0.5947 0.6872 0.4173
vn 0.1115 0.9845 0.1353
vn 0.0760 0.9851 0.1545
vn 0.1440 0.9843 0.1023
vn 0.0012 1.0000 0.0040
vn -0.0002 1.0000 0.0031
vn 0.0033 1.0000 0.0039
vn -0.0011 1.0000 0.0018
vn 0.0442 0.9854 0.1642
vn 0.1919 0.6942 0.6937
vn -0.0009 1.0000 0.0006
vn 0.0114 0.9854 0.1701
vn 0.0514 0.6929 0.7192
vn 0.2639 0.1579 0.9515
vn 0.0707 0.1589 0.9848
vn -0.0615 0.1601 0.9852
vn -0.0443 0.7036 0.7093
vn -0.0103 0.9867 0.1623
vn -0.1006 0.1604 0.9819
vn -0.0723 0.7055 0.7051
vn -0.0164 0.9869 0.1603
vn -0.0000 1.0000 -0.0004
vn -0.0002 1.0000 -0.0002
vn -0.0001 1.0000 -0.0004
vn -0.0188 0.9872 0.1587
vn -0.0824 0.7073 0.7021
vn -0.0005 1.0000 -0.0008
vn -0.0335 0.9860 0.1636
vn -0.1417 0.6970 0.7030
vn -0.1150 0.1605 0.9803
vn -0.1949 0.1599 0.9677
vn -0.4405 0.1608 0.8832
vn -0.3248 0.6863 0.6508
vn -0.0784 0.9846 0.1560
vn -0.6325 0.1609 0.7577
vn -0.4569 0.7012 0.5473
vn -0.1050 0.9865 0.1256
vn -0.0001 1.0000 -0.0012
vn 0.0007 1.0000 -0.0011
vn 0.0009 1.0000 -0.0008
vn -0.1101 0.9871 0.1165
vn -0.4869 0.7061 0.5141
vn 0.0007 1.0000 -0.0005
vn -0.1109 0.9872 0.1144
vn -0.4923 0.7077 0.5067
vn -0.6787 0.1612 0.7165
vn -0.6879 0.1610 0.7077
vn -0.7014 0.1604 0.6945
vn -0.5040 0.7048 0.4992
vn -0.1146 0.9869 0.1138
vn -0.7824 0.1590 0.6021
vn -0.5716 0.6929 0.4395
vn -0.1351 0.9854 0.1035
vn 0.0003 1.0000 -0.0000
vn 0.0005 1.0000 -0.0002
vn -0.1613 0.9847 0.0664
vn 0.0001 1.0000 0.0002
vn -0.6735 0.6872 0.2724
vn -0.1769 0.9842 -0.0004
vn -0.7297 0.6837 -0.0016
vn -0.0000 1.0000 -0.0000
vn -0.9156 0.1595 0.3691
vn -0.9869 0.1612 -0.0021
vn -0.1612 0.9847 -0.0664
vn -0.6732 0.6873 -0.2727
vn -0.9154 0.1594 -0.3696
vn -0.7834 0.1589 -0.6009
vn -0.5725 0.6927 -0.4388
vn -0.7014 0.1604 -0.6945
vn -0.5040 0.7048 -0.4992
vn -0.1354 0.9854 -0.1034
vn -0.1146 0.9869 -0.1138
vn 0.0005 1.0000 0.0002
vn 0.0001 1.0000 -0.0001
vn 0.0007 1.0000 0.0005
vn -0.1109 0.9872 -0.1144
vn 0.0009 1.0000 0.0008
vn -0.1101 0.9871 -0.1165
vn 0.0007 1.0000 0.0011
vn -0.1050 0.9865 -0.1256
vn -0.0001 1.0000 0.0012
vn -0.0784 0.9846 -0.1560
vn -0.0005 1.0000 0.0008
vn -0.0335 0.9860 -0.1636
vn -0.0001 1.0000 0.0004
vn -0.0188 0.9872 -0.1587
vn -0.0000 1.0000 0.0004
vn -0.0164 0.9869 -0.1603
vn -0.0002 1.0000 0.0002
vn -0.0103 0.9867 -0.1623
vn -0.0009 1.0000 -0.0006
vn 0.0114 0.9854 -0.1701
vn -0.0011 1.0000 -0.0018
vn 0.0442 0.9854 -0.1642
vn -0.0002 1.0000 -0.0031
vn 0.0760 0.9851 -0.1545
vn 0.0012 1.0000 -0.0040
vn 0.1115 0.9845 -0.1353
vn 0.0033 1.0000 -0.0039
vn 0.1440 0.9843 -0.1023
vn 0.0051 1.0000 -0.0027
vn 0.1641 0.9844 -0.0633
vn 0.0060 1.0000 -0.0013
vn 0.1698 0.9850 -0.0315
vn 0.0063 1.0000 -0.0005
vn 0.1697 0.9854 -0.0123
vn 0.1682 0.9858 -0.0022
vn 0.0063 1.0000 -0.0001
vn 0.1658 0.9862 -0.0001
vn 0.0063 1.0000 -0.0000
vn 0.0063 1.0000 0.0001
vn 0.1682 0.9857 0.0022
vn 0.0063 1.0000 0.0005
vn 0.1697 0.9854 0.0124
vn 0.0060 1.0000 0.0013
vn 0.1698 0.9850 0.0315
vn 0.0051 1.0000 0.0027
vn 0.1641 0.9844 0.0633
vn 0.6771 0.6888 0.2590
vn 0.7085 0.6936 0.1306
vn 0.9230 0.1538 0.3528
vn 0.9718 0.1534 0.1790
vn 0.7149 0.6973 0.0519
vn 0.9855 0.1535 0.0715
vn 0.9699 -0.1654 0.1786
vn 0.9836 -0.1658 0.0714
vn 0.9880 0.1537 0.0132
vn 0.7141 0.7000 0.0095
vn 0.9860 -0.1661 0.0131
vn 0.7063 -0.7061 0.0512
vn 0.7003 -0.7021 0.1288
vn 0.9881 0.1541 -0.0004
vn 0.9880 0.1538 -0.0132
vn 0.7108 0.7034 -0.0003
vn 0.7140 0.7001 -0.0095
vn 0.7150 0.6972 -0.0517
vn 0.9856 0.1536 -0.0712
vn 0.9718 0.1534 -0.1790
vn 0.7085 0.6936 -0.1306
vn 0.6771 0.6888 -0.2590
vn 0.9230 0.1538 -0.3528
vn 0.8090 0.1546 -0.5671
vn 0.5947 0.6872 -0.4173
vn 0.6340 0.1556 -0.7575
vn 0.4653 0.6883 -0.5566
vn 0.4426 0.1567 -0.8829
vn 0.3231 0.6920 -0.6456
vn 0.1919 0.6942 -0.6937
vn 0.2639 0.1579 -0.9515
vn 0.0707 0.1589 -0.9848
vn 0.0514 0.6929 -0.7192
vn -0.0615 0.1601 -0.9852
vn -0.0443 0.7036 -0.7092
vn -0.1006 0.1604 -0.9819
vn -0.0723 0.7055 -0.7050
vn -0.0824 0.7074 -0.7020
vn -0.1150 0.1606 -0.9803
vn -0.1949 0.1599 -0.9677
vn -0.1418 0.6970 -0.7030
vn -0.4406 0.1607 -0.8832
vn -0.3248 0.6863 -0.6508
vn -0.4569 0.7012 -0.5473
vn -0.6325 0.1609 -0.7577
vn -0.6787 0.1612 -0.7165
vn -0.4869 0.7061 -0.5141
vn -0.4923 0.7077 -0.5067
vn -0.6879 0.1610 -0.7077
vn -0.7016 -0.1594 0.6945
vn -0.6882 -0.1593 0.7078
vn -0.4934 -0.7065 0.5073
vn -0.6791 -0.1588 0.7167
vn -0.4882 -0.7045 0.5151
vn -0.6328 -0.1583 0.7580
vn -0.4580 -0.6995 0.5486
vn -0.4407 -0.1588 0.8835
vn -0.3251 -0.6850 0.6520
vn -0.1948 -0.1589 0.9679
vn -0.1415 -0.6960 0.7040
vn -0.1150 -0.1598 0.9804
vn -0.0824 -0.7066 0.7028
vn -0.1007 -0.1596 0.9820
vn -0.0724 -0.7049 0.7056
vn -0.0615 -0.1596 0.9853
vn -0.0442 -0.7034 0.7094
vn 0.0708 -0.1598 0.9846
vn 0.0518 -0.6938 0.7183
vn 0.1925 -0.6963 0.6914
vn 0.2641 -0.1608 0.9510
vn -0.1344 -0.9909 -0.0000
vn -0.1344 -0.9909 -0.0000
vn -0.1344 -0.9909 -0.0000
vn -0.1344 -0.9909 -0.0000
vn -0.1344 -0.9909 -0.0000
vn -0.1344 -0.9909 -0.0000
vn -0.1344 -0.9909 0.0000
vn -0.1344 -0.9909 0.0000
vn -0.1344 -0.9909 0.0000
vn -0.1344 -0.9909 0.0000
vn -0.1344 -0.9909 -0.0000
vn -0.1344 -0.9909 0.0000
vn -0.1344 -0.9909 -0.0000
vn -0.1344 -0.9909 -0.0000
vn -0.1344 -0.9909 0.0000
vn -0.1344 -0.9909 0.0000
vn -0.1344 -0.9909 0.0000
vn -0.1344 -0.9909 -0.0000
vn -0.1344 -0.9909 -0.0000
vn -0.1344 -0.9909 0.0000
vn -0.1344 -0.9909 0.0000
vn -0.1344 -0.9909 0.0000
vt 0.554203 0.283257
vt 0.552255 0.283258
vt 0.552390 0.282359
vt 0.554203 0.282355
vt 0.556017 0.282358
vt 0.556152 0.283258
vt 0.554203 0.281158
vt 0.555716 0.281167
vt 0.552690 0.281169
vt 0.550307 0.283255
vt 0.550578 0.282344
vt 0.551180 0.281125
vt 0.549477 0.282311
vt 0.550296 0.281030
vt 0.549073 0.283248
vt 0.551943 0.279787
vt 0.553067 0.279835
vt 0.551311 0.279624
vt 0.548580 0.282217
vt 0.549589 0.280852
vt 0.550820 0.279332
vt 0.552022 0.277901
vt 0.552305 0.278313
vt 0.552695 0.278520
vt 0.553158 0.277273
vt 0.553185 0.277681
vt 0.553038 0.276767
vt 0.553708 0.277497
vt 0.553650 0.276868
vt 0.553591 0.276324
vt 0.553434 0.278500
vt 0.554202 0.277417
vt 0.554202 0.278384
vt 0.554202 0.276705
vt 0.554699 0.277508
vt 0.554970 0.278494
vt 0.554757 0.276879
vt 0.554202 0.276141
vt 0.554816 0.276335
vt 0.555365 0.276767
vt 0.555245 0.277273
vt 0.555219 0.277681
vt 0.556100 0.278312
vt 0.556383 0.277901
vt 0.555710 0.278520
vt 0.555526 0.276085
vt 0.556746 0.277338
vt 0.554897 0.275611
vt 0.557094 0.279623
vt 0.557585 0.279331
vt 0.558193 0.278918
vt 0.555752 0.275225
vt 0.557190 0.276616
vt 0.558888 0.278376
vt 0.559670 0.280570
vt 0.560607 0.280184
vt 0.558817 0.280850
vt 0.560888 0.282024
vt 0.562016 0.281747
vt 0.559827 0.282215
vt 0.558110 0.281028
vt 0.558929 0.282309
vt 0.560366 0.283182
vt 0.559334 0.283246
vt 0.561564 0.283012
vt 0.557226 0.281124
vt 0.557829 0.282343
vt 0.558100 0.283254
vt 0.558214 0.284255
vt 0.559511 0.284243
vt 0.560607 0.284176
vt 0.556209 0.284263
vt 0.554203 0.284264
vt 0.554204 0.285270
vt 0.556224 0.285271
vt 0.558245 0.285271
vt 0.554204 0.289801
vt 0.556337 0.289802
vt 0.558470 0.289805
vt 0.559889 0.289807
vt 0.559572 0.285269
vt 0.561108 0.289777
vt 0.560705 0.285214
vt 0.562005 0.285054
vt 0.562497 0.289684
vt 0.561867 0.284002
vt 0.563140 0.283753
vt 0.563304 0.284821
vt 0.562793 0.282763
vt 0.562725 0.281701
vt 0.563430 0.282662
vt 0.563710 0.283526
vt 0.563357 0.281562
vt 0.564011 0.282510
vt 0.564237 0.283268
vt 0.267186 0.985719
vt 0.267376 0.988760
vt 0.266147 0.988708
vt 0.265950 0.985700
vt 0.268036 0.985749
vt 0.268223 0.988818
vt 0.267847 0.982674
vt 0.266994 0.982670
vt 0.265749 0.982689
vt 0.269168 0.985796
vt 0.269347 0.988902
vt 0.268987 0.982689
vt 0.266816 0.979862
vt 0.267692 0.979815
vt 0.268850 0.979763
vt 0.274406 0.979491
vt 0.274560 0.982777
vt 0.274720 0.986063
vt 0.280034 0.979214
vt 0.280207 0.982877
vt 0.280343 0.986356
vt 0.274877 0.989354
vt 0.280472 0.989839
vt 0.282846 0.982931
vt 0.282956 0.986511
vt 0.283058 0.990087
vt 0.564429 0.289414
vt 0.564967 0.289252
vt 0.565407 0.294282
vt 0.564856 0.294330
vt 0.565475 0.296655
vt 0.564930 0.296643
vt 0.565305 0.297685
vt 0.564773 0.297629
vt 0.284071 0.986583
vt 0.284160 0.990197
vt 0.564941 0.298743
vt 0.564457 0.298617
vt 0.285260 0.986660
vt 0.285335 0.990314
vt 0.283973 0.982961
vt 0.285178 0.982998
vt 0.286346 0.983035
vt 0.286413 0.986732
vt 0.286474 0.990420
vt 0.287470 0.983065
vt 0.287522 0.986788
vt 0.287570 0.990503
vt 0.564400 0.299744
vt 0.564058 0.299484
vt 0.563538 0.300437
vt 0.563266 0.300045
vt 0.562469 0.300969
vt 0.562250 0.300510
vt 0.288787 0.986833
vt 0.288821 0.990567
vt 0.561009 0.301346
vt 0.560860 0.300848
vt 0.290422 0.986868
vt 0.290438 0.990614
vt 0.288752 0.983092
vt 0.290406 0.983118
vt 0.292533 0.983145
vt 0.292530 0.986897
vt 0.292526 0.990649
vt 0.295263 0.986925
vt 0.295241 0.990679
vt 0.295286 0.983174
vt 0.298002 0.986948
vt 0.297963 0.990701
vt 0.298040 0.983202
vt 0.559034 0.301048
vt 0.559110 0.301564
vt 0.556656 0.301646
vt 0.556622 0.301125
vt 0.554206 0.301639
vt 0.554206 0.301118
vt 0.300740 0.986982
vt 0.300686 0.990735
vt 0.551790 0.301128
vt 0.551757 0.301649
vt 0.549378 0.301050
vt 0.549303 0.301566
vt 0.303474 0.987008
vt 0.303401 0.990764
vt 0.300794 0.983231
vt 0.303546 0.983259
vt 0.303584 0.979054
vt 0.300830 0.979026
vt 0.298083 0.979000
vt 0.295336 0.978970
vt 0.298086 0.978751
vt 0.300832 0.978776
vt 0.295339 0.978721
vt 0.292583 0.978944
vt 0.292589 0.978695
vt 0.295338 0.978472
vt 0.298088 0.978501
vt 0.292596 0.978445
vt 0.290459 0.978424
vt 0.290450 0.978674
vt 0.290441 0.978924
vt 0.290464 0.978266
vt 0.292599 0.978287
vt 0.295338 0.978314
vt 0.288775 0.978410
vt 0.288779 0.978252
vt 0.288767 0.978662
vt 0.287443 0.978412
vt 0.287443 0.978253
vt 0.287441 0.978664
vt 0.288758 0.978912
vt 0.287439 0.978915
vt 0.286278 0.978933
vt 0.286271 0.978681
vt 0.285074 0.978972
vt 0.285063 0.978721
vt 0.285051 0.978470
vt 0.286263 0.978430
vt 0.285042 0.978311
vt 0.286258 0.978271
vt 0.283813 0.978520
vt 0.283805 0.978361
vt 0.283826 0.978771
vt 0.282649 0.978575
vt 0.282638 0.978417
vt 0.282665 0.978825
vt 0.283838 0.979021
vt 0.282685 0.979075
vt 0.280019 0.978966
vt 0.274394 0.979242
vt 0.274382 0.978993
vt 0.280005 0.978717
vt 0.274374 0.978835
vt 0.279996 0.978559
vt 0.268840 0.979263
vt 0.268836 0.979104
vt 0.268845 0.979513
vt 0.267694 0.979312
vt 0.267694 0.979154
vt 0.267692 0.979564
vt 0.266794 0.979609
vt 0.266777 0.979356
vt 0.265540 0.979968
vt 0.265511 0.979720
vt 0.265483 0.979472
vt 0.262805 0.979687
vt 0.262827 0.979936
vt 0.262850 0.980184
vt 0.265465 0.979314
vt 0.266765 0.979198
vt 0.262791 0.979530
vt 0.259447 0.979952
vt 0.259435 0.979794
vt 0.259467 0.980201
vt 0.256099 0.980217
vt 0.256088 0.980059
vt 0.256117 0.980466
vt 0.259487 0.980450
vt 0.256136 0.980715
vt 0.256322 0.982976
vt 0.259685 0.982869
vt 0.263061 0.982764
vt 0.263279 0.985698
vt 0.259911 0.985720
vt 0.263493 0.988635
vt 0.260136 0.988573
vt 0.559650 0.277596
vt 0.561742 0.279770
vt 0.561206 0.280011
vt 0.559283 0.277998
vt 0.557364 0.276011
vt 0.557556 0.275426
vt 0.555723 0.274478
vt 0.555756 0.273769
vt 0.256552 0.985749
vt 0.256781 0.988521
vt 0.254098 0.988495
vt 0.253870 0.985785
vt 0.253637 0.983073
vt 0.252981 0.985798
vt 0.252752 0.983111
vt 0.253203 0.988486
vt 0.252346 0.988517
vt 0.252128 0.985840
vt 0.251904 0.983175
vt 0.343892 0.986774
vt 0.343040 0.986717
vt 0.343324 0.984035
vt 0.344170 0.984114
vt 0.343621 0.989447
vt 0.342763 0.989401
vt 0.343591 0.981947
vt 0.344442 0.982091
vt 0.251672 0.981146
vt 0.252527 0.981019
vt 0.342436 0.983977
vt 0.342681 0.981842
vt 0.342146 0.986683
vt 0.339467 0.986593
vt 0.339754 0.983825
vt 0.339987 0.981568
vt 0.341863 0.989389
vt 0.339181 0.989360
vt 0.550847 0.275427
vt 0.552646 0.273770
vt 0.552680 0.274478
vt 0.551040 0.276012
vt 0.553400 0.274004
vt 0.553408 0.273351
vt 0.554203 0.273814
vt 0.554204 0.273191
vt 0.554202 0.274476
vt 0.553394 0.274697
vt 0.552652 0.275224
vt 0.553510 0.275602
vt 0.552877 0.276085
vt 0.554202 0.275398
vt 0.555013 0.274705
vt 0.555007 0.274009
vt 0.555000 0.273354
vt 0.551659 0.277338
vt 0.551213 0.276617
vt 0.550212 0.278919
vt 0.549516 0.278378
vt 0.549121 0.278000
vt 0.548754 0.277598
vt 0.547799 0.280186
vt 0.547200 0.280014
vt 0.546664 0.279773
vt 0.545681 0.281704
vt 0.545048 0.281566
vt 0.546390 0.281749
vt 0.548736 0.280572
vt 0.547518 0.282027
vt 0.546843 0.283015
vt 0.545613 0.282765
vt 0.548041 0.283184
vt 0.547800 0.284179
vt 0.546539 0.284005
vt 0.548896 0.284245
vt 0.547702 0.285217
vt 0.546402 0.285056
vt 0.548836 0.285271
vt 0.550193 0.284257
vt 0.550163 0.285272
vt 0.552183 0.285271
vt 0.552198 0.284263
vt 0.548520 0.289809
vt 0.549939 0.289806
vt 0.552072 0.289803
vt 0.551973 0.294366
vt 0.549741 0.294370
vt 0.554205 0.294364
vt 0.556437 0.294365
vt 0.554205 0.296472
vt 0.551934 0.296472
vt 0.556477 0.296472
vt 0.558670 0.294369
vt 0.558749 0.296472
vt 0.560153 0.294371
vt 0.560242 0.296472
vt 0.561510 0.296483
vt 0.561423 0.294368
vt 0.562868 0.294356
vt 0.562954 0.296520
vt 0.564281 0.294344
vt 0.564362 0.296598
vt 0.563865 0.289552
vt 0.563861 0.284569
vt 0.564390 0.284303
vt 0.562915 0.297486
vt 0.564227 0.297573
vt 0.562901 0.298558
vt 0.563961 0.298527
vt 0.563056 0.299614
vt 0.563756 0.299292
vt 0.562049 0.300029
vt 0.561744 0.298748
vt 0.560472 0.298901
vt 0.560712 0.300328
vt 0.558959 0.300506
vt 0.558858 0.299002
vt 0.560301 0.297514
vt 0.561557 0.297490
vt 0.558785 0.297541
vt 0.556496 0.297554
vt 0.556533 0.299043
vt 0.554206 0.297553
vt 0.554206 0.299038
vt 0.554206 0.300568
vt 0.556585 0.300576
vt 0.551915 0.297555
vt 0.551878 0.299045
vt 0.551827 0.300579
vt 0.549453 0.300508
vt 0.549554 0.299003
vt 0.547940 0.298903
vt 0.547700 0.300330
vt 0.547551 0.300851
vt 0.549626 0.297543
vt 0.548111 0.297516
vt 0.546669 0.298750
vt 0.546361 0.300032
vt 0.546855 0.297491
vt 0.548170 0.296473
vt 0.549662 0.296473
vt 0.546901 0.296485
vt 0.545497 0.297488
vt 0.545458 0.296523
vt 0.545515 0.298556
vt 0.544183 0.297578
vt 0.544048 0.296602
vt 0.544448 0.298533
vt 0.545354 0.299618
vt 0.544666 0.299287
vt 0.544361 0.299485
vt 0.543955 0.298620
vt 0.543637 0.297634
vt 0.543470 0.298747
vt 0.543105 0.297689
vt 0.544016 0.299729
vt 0.545145 0.300044
vt 0.544866 0.300441
vt 0.545940 0.300971
vt 0.546160 0.300513
vt 0.547402 0.301348
vt 0.307108 0.990754
vt 0.305489 0.990769
vt 0.305581 0.987023
vt 0.307217 0.987021
vt 0.305673 0.983276
vt 0.307328 0.983282
vt 0.305724 0.979078
vt 0.307406 0.979102
vt 0.305720 0.978828
vt 0.307402 0.978851
vt 0.303582 0.978804
vt 0.305718 0.978578
vt 0.307401 0.978600
vt 0.303581 0.978555
vt 0.303580 0.978397
vt 0.305716 0.978420
vt 0.307400 0.978441
vt 0.300838 0.978527
vt 0.300842 0.978369
vt 0.298090 0.978343
vt 0.298092 0.978093
vt 0.300847 0.978119
vt 0.295337 0.978064
vt 0.292605 0.978036
vt 0.298095 0.977843
vt 0.295340 0.977814
vt 0.292611 0.977786
vt 0.290479 0.977764
vt 0.290471 0.978015
vt 0.288792 0.977751
vt 0.288786 0.978001
vt 0.287445 0.977753
vt 0.287444 0.978002
vt 0.286245 0.977770
vt 0.286251 0.978020
vt 0.285020 0.977808
vt 0.285030 0.978059
vt 0.283780 0.977858
vt 0.283792 0.978109
vt 0.282607 0.977920
vt 0.282624 0.978168
vt 0.279968 0.978059
vt 0.279982 0.978309
vt 0.274351 0.978336
vt 0.274362 0.978586
vt 0.268824 0.978601
vt 0.268831 0.978852
vt 0.267691 0.978653
vt 0.267695 0.978903
vt 0.266731 0.978708
vt 0.266749 0.978951
vt 0.265438 0.979065
vt 0.265412 0.978815
vt 0.262747 0.979031
vt 0.262769 0.979280
vt 0.259395 0.979295
vt 0.259415 0.979545
vt 0.256050 0.979559
vt 0.256069 0.979809
vt 0.253365 0.979782
vt 0.253382 0.980028
vt 0.253396 0.980276
vt 0.253405 0.980434
vt 0.252380 0.980367
vt 0.252417 0.980521
vt 0.252326 0.980125
vt 0.251391 0.980530
vt 0.251277 0.980279
vt 0.251469 0.980682
vt 0.252286 0.979883
vt 0.251211 0.980018
vt 0.343856 0.980815
vt 0.344925 0.980972
vt 0.344854 0.981231
vt 0.343811 0.981056
vt 0.344735 0.981480
vt 0.343752 0.981296
vt 0.342754 0.980937
vt 0.342776 0.980691
vt 0.342734 0.981185
vt 0.342722 0.981342
vt 0.343711 0.981450
vt 0.344654 0.981632
vt 0.340048 0.980914
vt 0.340072 0.980664
vt 0.340033 0.981071
vt 0.342702 0.981592
vt 0.340010 0.981320
vt 0.343646 0.981695
vt 0.344526 0.981862
vt 0.251593 0.980916
vt 0.252478 0.980767
vt 0.253436 0.980933
vt 0.253420 0.980683
vt 0.336641 0.981235
vt 0.336666 0.980986
vt 0.336691 0.980738
vt 0.333339 0.980404
vt 0.333312 0.980653
vt 0.333285 0.980901
vt 0.333357 0.980247
vt 0.336707 0.980581
vt 0.330667 0.980134
vt 0.330688 0.979977
vt 0.330634 0.980382
vt 0.329375 0.979993
vt 0.329389 0.979834
vt 0.329352 0.980245
vt 0.330599 0.980630
vt 0.329325 0.980498
vt 0.330334 0.983346
vt 0.329091 0.983301
vt 0.333020 0.983475
vt 0.336394 0.983649
vt 0.336110 0.986495
vt 0.332743 0.986405
vt 0.330072 0.986353
vt 0.332469 0.989336
vt 0.329813 0.989355
vt 0.335826 0.989343
vt 0.328837 0.986346
vt 0.328586 0.989383
vt 0.544977 0.282665
vt 0.544396 0.282511
vt 0.544697 0.283529
vt 0.544170 0.283271
vt 0.327737 0.989423
vt 0.327986 0.986359
vt 0.544017 0.284307
vt 0.544547 0.284572
vt 0.326611 0.989485
vt 0.326854 0.986383
vt 0.327097 0.983280
vt 0.328237 0.983288
vt 0.327294 0.980357
vt 0.328451 0.980433
vt 0.327304 0.980108
vt 0.328456 0.980181
vt 0.327315 0.979858
vt 0.328460 0.979931
vt 0.328462 0.979772
vt 0.327321 0.979699
vt 0.321779 0.979475
vt 0.321790 0.979317
vt 0.321762 0.979724
vt 0.316163 0.979084
vt 0.316175 0.978926
vt 0.316144 0.979333
vt 0.321745 0.979973
vt 0.316124 0.979582
vt 0.313522 0.978890
vt 0.313501 0.979140
vt 0.313475 0.979389
vt 0.315876 0.983240
vt 0.313237 0.983240
vt 0.321524 0.983255
vt 0.315669 0.986715
vt 0.313054 0.986817
vt 0.321297 0.986537
vt 0.315469 0.990194
vt 0.312879 0.990390
vt 0.321073 0.989824
vt 0.543441 0.289255
vt 0.543980 0.289417
vt 0.543003 0.294286
vt 0.543554 0.294334
vt 0.545103 0.284824
vt 0.544544 0.289555
vt 0.544129 0.294347
vt 0.545911 0.289687
vt 0.545542 0.294359
vt 0.545267 0.283756
vt 0.547301 0.289779
vt 0.546988 0.294370
vt 0.548258 0.294373
vt 0.543480 0.296646
vt 0.542935 0.296659
vt 0.311775 0.990478
vt 0.311938 0.986866
vt 0.310598 0.990571
vt 0.310747 0.986919
vt 0.310904 0.983258
vt 0.312109 0.983247
vt 0.311088 0.979239
vt 0.312323 0.979312
vt 0.311105 0.978988
vt 0.312341 0.979062
vt 0.311123 0.978737
vt 0.312359 0.978812
vt 0.311135 0.978578
vt 0.312371 0.978653
vt 0.313536 0.978732
vt 0.309911 0.978675
vt 0.309920 0.978516
vt 0.309898 0.978927
vt 0.308732 0.978630
vt 0.308735 0.978471
vt 0.308727 0.978882
vt 0.309885 0.979178
vt 0.308725 0.979134
vt 0.309735 0.983270
vt 0.308611 0.983279
vt 0.309593 0.986967
vt 0.308484 0.987002
vt 0.309457 0.990654
vt 0.308360 0.990714
vt 0.308741 0.978220
vt 0.309933 0.978265
vt 0.307399 0.978191
vt 0.308745 0.977971
vt 0.309944 0.978016
vt 0.307398 0.977941
vt 0.311152 0.978327
vt 0.311167 0.978076
vt 0.311198 0.977493
vt 0.309965 0.977437
vt 0.308757 0.977392
vt 0.309974 0.977189
vt 0.311210 0.977242
vt 0.308764 0.977143
vt 0.309983 0.976939
vt 0.311222 0.976990
vt 0.308772 0.976893
vt 0.310001 0.976453
vt 0.311247 0.976524
vt 0.308781 0.976417
vt 0.312512 0.976594
vt 0.312480 0.977068
vt 0.312462 0.977319
vt 0.313710 0.976688
vt 0.313663 0.977165
vt 0.313640 0.977413
vt 0.312445 0.977569
vt 0.313622 0.977660
vt 0.316256 0.977848
vt 0.316274 0.977598
vt 0.316293 0.977348
vt 0.321861 0.978240
vt 0.321878 0.977991
vt 0.321895 0.977741
vt 0.321927 0.977268
vt 0.316331 0.976876
vt 0.327449 0.977639
vt 0.327414 0.978112
vt 0.327396 0.978363
vt 0.328623 0.977729
vt 0.328573 0.978198
vt 0.328543 0.978447
vt 0.327378 0.978614
vt 0.328517 0.978696
vt 0.329481 0.978786
vt 0.329502 0.978545
vt 0.329527 0.978301
vt 0.330813 0.978899
vt 0.330834 0.978649
vt 0.330857 0.978399
vt 0.329575 0.977819
vt 0.330903 0.977928
vt 0.333570 0.978202
vt 0.333522 0.978673
vt 0.333497 0.978922
vt 0.336912 0.978535
vt 0.336865 0.979007
vt 0.336840 0.979256
vt 0.333471 0.979171
vt 0.336815 0.979505
vt 0.340153 0.979837
vt 0.340179 0.979588
vt 0.340205 0.979339
vt 0.342838 0.980123
vt 0.342870 0.979878
vt 0.342903 0.979632
vt 0.342963 0.979159
vt 0.340254 0.978867
vt 0.343948 0.979762
vt 0.343944 0.979295
vt 0.343945 0.980008
vt 0.344954 0.979817
vt 0.345000 0.980089
vt 0.344844 0.979316
vt 0.343929 0.980252
vt 0.344999 0.980358
vt 0.251206 0.978864
vt 0.252216 0.978828
vt 0.252214 0.979073
vt 0.251154 0.979134
vt 0.252225 0.979318
vt 0.251150 0.979403
vt 0.253314 0.979213
vt 0.253288 0.978967
vt 0.256004 0.978980
vt 0.255983 0.978731
vt 0.253260 0.978720
vt 0.255963 0.978481
vt 0.253209 0.978246
vt 0.255923 0.978010
vt 0.252228 0.978361
vt 0.251327 0.978366
vt 0.259272 0.977745
vt 0.259309 0.978218
vt 0.262620 0.977480
vt 0.262658 0.977953
vt 0.265291 0.977261
vt 0.265328 0.977733
vt 0.266623 0.977178
vt 0.266662 0.977661
vt 0.267575 0.977108
vt 0.267616 0.977579
vt 0.268750 0.977042
vt 0.268776 0.977515
vt 0.274279 0.976784
vt 0.274302 0.977257
vt 0.279881 0.976505
vt 0.279909 0.976978
vt 0.282506 0.976370
vt 0.282543 0.976847
vt 0.283705 0.976306
vt 0.283729 0.976772
vt 0.284972 0.976249
vt 0.284988 0.976723
vt 0.286217 0.976216
vt 0.286230 0.976691
vt 0.287438 0.976191
vt 0.287442 0.976677
vt 0.288806 0.976197
vt 0.288801 0.976671
vt 0.290502 0.976208
vt 0.290496 0.976682
vt 0.292636 0.976231
vt 0.292629 0.976705
vt 0.295360 0.976734
vt 0.295375 0.976261
vt 0.298106 0.976759
vt 0.298110 0.976284
vt 0.300846 0.976316
vt 0.300851 0.976789
vt 0.303587 0.976341
vt 0.303583 0.976815
vt 0.305721 0.976362
vt 0.305717 0.976836
vt 0.307417 0.976387
vt 0.307412 0.976861
vt 0.307407 0.977112
vt 0.305714 0.977087
vt 0.307402 0.977361
vt 0.305712 0.977337
vt 0.303581 0.977066
vt 0.303580 0.977316
vt 0.305711 0.977919
vt 0.303579 0.977898
vt 0.300853 0.977289
vt 0.300854 0.977039
vt 0.300850 0.977870
vt 0.303579 0.978147
vt 0.305714 0.978169
vt 0.298101 0.977260
vt 0.295348 0.977234
vt 0.298103 0.977009
vt 0.295353 0.976984
vt 0.292626 0.976955
vt 0.292622 0.977205
vt 0.290490 0.977182
vt 0.290493 0.976932
vt 0.288801 0.976921
vt 0.288800 0.977171
vt 0.287444 0.977175
vt 0.287443 0.976927
vt 0.286235 0.977191
vt 0.286232 0.976942
vt 0.285001 0.977225
vt 0.284994 0.976975
vt 0.283741 0.977023
vt 0.283753 0.977275
vt 0.282574 0.977344
vt 0.282561 0.977096
vt 0.279937 0.977479
vt 0.279924 0.977229
vt 0.274325 0.977757
vt 0.274314 0.977507
vt 0.268789 0.977766
vt 0.268801 0.978017
vt 0.267661 0.978076
vt 0.267640 0.977827
vt 0.266695 0.978148
vt 0.266680 0.977906
vt 0.265345 0.977984
vt 0.265362 0.978235
vt 0.262699 0.978452
vt 0.262678 0.978203
vt 0.259329 0.978468
vt 0.259349 0.978717
vt 0.340095 0.980415
vt 0.336757 0.980083
vt 0.336732 0.980332
vt 0.333411 0.979749
vt 0.333384 0.979998
vt 0.330751 0.979478
vt 0.330720 0.979728
vt 0.329435 0.979346
vt 0.329412 0.979588
vt 0.328476 0.979272
vt 0.328467 0.979522
vt 0.327344 0.979197
vt 0.327332 0.979448
vt 0.321824 0.978819
vt 0.321807 0.979068
vt 0.316213 0.978427
vt 0.316194 0.978677
vt 0.313578 0.978236
vt 0.313556 0.978483
vt 0.312389 0.978402
vt 0.312406 0.978152
vt 0.556462 0.279786
vt 0.555339 0.279830
vt 0.554203 0.279791
s 1
f 2/1/1 6/2/1 5/3/1 1/4/1
f 2/1/1 1/4/1 3/5/1 57/6/1
f 1/4/1 4/7/1 776/8/1 3/5/1
f 1/4/1 5/3/1 7/9/1 4/7/1
f 6/2/1 10/10/1 8/11/1 5/3/1
f 5/3/1 8/11/1 11/12/1 7/9/1
f 9/13/1 13/14/1 11/12/1 8/11/1
f 275/15/1 9/13/1 8/11/1 10/10/1
f 12/16/1 780/17/1 7/9/1 11/12/1
f 13/14/1 15/18/1 12/16/1 11/12/1
f 13/14/1 9/13/1 273/19/1 14/20/1
f 15/18/1 13/14/1 14/20/1 16/21/1
f 19/22/1 17/23/1 15/18/1 16/21/1
f 17/23/1 18/24/2 12/16/1 15/18/1
f 18/24/2 17/23/1 20/25/3 23/26/4
f 17/23/1 19/22/1 22/27/5 20/25/3
f 24/28/6 23/26/4 20/25/3 21/29/7
f 22/27/5 256/30/8 21/29/7 20/25/3
f 23/26/4 24/28/6 25/31/9 18/24/2
f 24/28/6 26/32/10 27/33/11 25/31/9
f 26/32/10 24/28/6 21/29/7 29/34/12
f 27/33/11 26/32/10 28/35/13 778/36/14
f 26/32/10 29/34/12 31/37/15 28/35/13
f 256/30/8 30/38/16 29/34/12 21/29/7
f 29/34/12 30/38/16 32/39/17 31/37/15
f 36/40/18 33/41/19 31/37/15 32/39/17
f 33/41/19 35/42/20 28/35/13 31/37/15
f 34/43/1 33/41/19 36/40/18 38/44/1
f 33/41/19 34/43/1 781/45/21 35/42/20
f 37/46/22 40/47/1 38/44/1 36/40/18
f 37/46/22 36/40/18 32/39/17 253/48/23
f 782/49/1 34/43/1 38/44/1 39/50/1
f 40/47/1 42/51/1 39/50/1 38/44/1
f 40/47/1 37/46/22 255/52/24 41/53/25
f 42/51/1 40/47/1 41/53/25 43/54/26
f 44/55/1 42/51/1 43/54/26 45/56/27
f 42/51/1 44/55/1 47/57/1 39/50/1
f 46/58/1 44/55/1 45/56/27 75/59/28
f 44/55/1 46/58/1 49/60/1 47/57/1
f 47/57/1 48/61/1 782/49/1 39/50/1
f 48/61/1 47/57/1 49/60/1 51/62/1
f 50/63/1 53/64/1 51/62/1 49/60/1
f 46/58/1 73/65/1 50/63/1 49/60/1
f 774/66/1 48/61/1 51/62/1 52/67/1
f 53/64/1 55/68/1 52/67/1 51/62/1
f 56/69/1 55/68/1 53/64/1 54/70/1
f 54/70/1 53/64/1 50/63/1 70/71/1
f 55/68/1 56/69/1 58/72/1 57/6/1
f 52/67/1 55/68/1 57/6/1 3/5/1
f 59/73/1 2/1/1 57/6/1 58/72/1
f 61/74/1 59/73/1 58/72/1 60/75/1
f 56/69/1 63/76/1 60/75/1 58/72/1
f 288/77/1 61/74/1 60/75/1 62/78/1
f 63/76/1 64/79/1 62/78/1 60/75/1
f 66/80/1 64/79/1 63/76/1 65/81/1
f 63/76/1 56/69/1 54/70/1 65/81/1
f 68/82/1 66/80/1 65/81/1 67/83/1
f 65/81/1 54/70/1 70/71/1 67/83/1
f 69/84/1 302/85/1 68/82/1 67/83/1
f 67/83/1 70/71/1 71/86/1 69/84/1
f 70/71/1 50/63/1 73/65/1 71/86/1
f 72/87/29 304/88/30 69/84/1 71/86/1
f 74/89/31 72/87/29 71/86/1 73/65/1
f 73/65/1 46/58/1 75/59/28 74/89/31
f 74/89/31 75/59/28 77/90/32 76/91/33
f 76/91/33 78/92/34 72/87/29 74/89/31
f 80/93/35 79/94/36 76/91/33 77/90/32
f 79/94/36 81/95/37 78/92/34 76/91/33
f 82/96/38 79/97/36 80/98/35 84/99/39
f 85/100/40 81/101/37 79/97/36 82/96/38
f 87/102/41 85/100/40 82/96/38 83/103/42
f 84/99/39 211/104/43 83/103/42 82/96/38
f 86/105/44 307/106/45 81/101/37 85/100/40
f 89/107/46 86/105/44 85/100/40 87/102/41
f 83/103/42 192/108/47 88/109/48 87/102/41
f 87/102/41 88/109/48 90/110/49 89/107/46
f 92/111/50 91/112/51 89/107/46 90/110/49
f 86/105/44 89/107/46 91/112/51 94/113/52
f 91/112/51 92/111/50 179/114/53 93/115/54
f 93/115/54 96/116/55 94/113/52 91/112/51
f 94/113/52 95/117/56 307/106/45 86/105/44
f 96/116/55 98/118/57 95/117/56 94/113/52
f 96/116/55 93/115/54 178/119/58 97/120/59
f 97/120/59 100/121/60 98/118/57 96/116/55
f 305/122/61 95/123/56 98/124/57 99/125/62
f 98/124/57 100/126/60 101/127/63 99/125/62
f 101/127/63 100/126/60 102/128/64 103/129/65
f 105/130/66 102/131/64 100/121/60 97/120/59
f 103/129/65 102/128/64 104/132/67 314/133/68
f 107/134/69 104/135/67 102/131/64 105/130/66
f 106/136/70 105/130/66 97/120/59 178/119/58
f 105/130/66 106/136/70 108/137/71 107/134/69
f 110/138/72 109/139/73 107/134/69 108/137/71
f 109/139/73 112/140/74 104/135/67 107/134/69
f 109/139/73 110/138/72 162/141/75 111/142/76
f 111/142/76 114/143/77 112/140/74 109/139/73
f 314/133/68 104/132/67 112/144/74 113/145/78
f 112/144/74 114/146/77 115/147/79 113/145/78
f 115/147/79 114/146/77 116/148/80 117/149/81
f 119/150/82 116/151/80 114/143/77 111/142/76
f 117/149/81 116/148/80 118/152/83 319/153/84
f 121/154/85 118/155/83 116/151/80 119/150/82
f 120/156/86 119/150/82 111/142/76 162/141/75
f 119/150/82 120/156/86 122/157/87 121/154/85
f 125/158/88 123/159/89 121/154/85 122/157/87
f 123/159/89 124/160/90 118/155/83 121/154/85
f 124/160/90 123/159/89 126/161/91 129/162/92
f 123/159/89 125/158/88 128/163/93 126/161/91
f 129/162/92 126/161/91 127/164/94 131/165/95
f 127/164/94 126/161/91 128/163/93 141/166/96
f 773/167/97 124/168/90 129/169/92 130/170/98
f 131/171/95 132/172/99 130/170/98 129/169/92
f 131/165/95 127/164/94 136/173/100 133/174/101
f 134/175/102 132/172/99 131/171/95 133/176/101
f 336/177/103 134/175/102 133/176/101 135/178/104
f 133/174/101 136/173/100 137/179/105 135/180/104
f 137/179/105 136/173/100 138/181/106 139/182/107
f 127/164/94 141/166/96 138/181/106 136/173/100
f 370/183/108 139/182/107 138/181/106 140/184/109
f 142/185/110 140/184/109 138/181/106 141/166/96
f 142/185/110 141/166/96 128/163/93 144/186/111
f 142/185/110 143/187/112 382/188/113 140/184/109
f 144/186/111 146/189/114 143/187/112 142/185/110
f 145/190/115 148/191/116 146/189/114 144/186/111
f 145/190/115 144/186/111 128/163/93 125/158/88
f 143/187/112 146/189/114 147/192/117 381/193/118
f 148/191/116 150/194/119 147/192/117 146/189/114
f 152/195/120 150/194/119 148/191/116 149/196/121
f 145/190/115 161/197/122 149/196/121 148/191/116
f 152/195/120 153/198/123 151/199/124 150/194/119
f 150/194/119 151/199/124 385/200/125 147/192/117
f 154/201/126 155/202/127 153/198/123 152/195/120
f 154/201/126 152/195/120 149/196/121 157/203/128
f 156/204/129 397/205/130 155/202/127 154/201/126
f 156/204/129 154/201/126 157/203/128 158/206/131
f 159/207/132 160/208/133 158/206/131 157/203/128
f 161/197/122 159/207/132 157/203/128 149/196/121
f 120/156/86 162/141/75 160/208/133 159/207/132
f 159/207/132 161/197/122 122/157/87 120/156/86
f 125/158/88 122/157/87 161/197/122 145/190/115
f 163/209/134 160/208/133 162/141/75 110/138/72
f 160/208/133 163/209/134 165/210/135 158/206/131
f 163/209/134 164/211/136 166/212/137 165/210/135
f 108/137/71 164/211/136 163/209/134 110/138/72
f 169/213/138 167/214/139 165/210/135 166/212/137
f 167/214/139 156/204/129 158/206/131 165/210/135
f 169/213/138 170/215/140 168/216/141 167/214/139
f 167/214/139 168/216/141 397/205/130 156/204/129
f 171/217/142 172/218/143 170/215/140 169/213/138
f 171/217/142 169/213/138 166/212/137 174/219/144
f 173/220/145 406/221/146 172/218/143 171/217/142
f 173/220/145 171/217/142 174/219/144 175/222/147
f 176/223/148 177/224/149 175/222/147 174/219/144
f 164/211/136 176/223/148 174/219/144 166/212/137
f 178/119/58 177/224/149 176/223/148 106/136/70
f 164/211/136 108/137/71 106/136/70 176/223/148
f 177/224/149 178/119/58 93/115/54 179/114/53
f 177/224/149 179/114/53 180/225/150 175/222/147
f 179/114/53 92/111/50 181/226/151 180/225/150
f 184/227/152 182/228/153 180/225/150 181/226/151
f 182/228/153 173/220/145 175/222/147 180/225/150
f 184/227/152 185/229/154 183/230/155 182/228/153
f 182/228/153 183/230/155 406/221/146 173/220/145
f 186/231/156 187/232/157 185/229/154 184/227/152
f 186/231/156 184/227/152 181/226/151 189/233/158
f 188/234/159 415/235/160 187/232/157 186/231/156
f 188/234/159 186/231/156 189/233/158 190/236/161
f 90/110/49 88/109/48 190/236/161 189/233/158
f 92/111/50 90/110/49 189/233/158 181/226/151
f 88/109/48 192/108/47 191/237/162 190/236/161
f 193/238/163 188/234/159 190/236/161 191/237/162
f 192/108/47 196/239/164 194/240/165 191/237/162
f 197/241/166 193/238/163 191/237/162 194/240/165
f 199/242/167 197/241/166 194/240/165 195/243/168
f 196/239/164 209/244/169 195/243/168 194/240/165
f 193/238/163 197/241/166 198/245/170 416/246/171
f 199/242/167 200/247/172 198/245/170 197/241/166
f 201/248/173 202/249/174 200/247/172 199/242/167
f 201/248/173 199/242/167 195/243/168 204/250/175
f 203/251/176 427/252/177 202/249/174 201/248/173
f 203/251/176 201/248/173 204/250/175 205/253/178
f 206/254/179 207/255/180 205/253/178 204/250/175
f 209/244/169 206/254/179 204/250/175 195/243/168
f 223/256/181 207/255/180 206/254/179 208/257/182
f 209/244/169 210/258/183 208/257/182 206/254/179
f 210/258/183 209/244/169 196/239/164 211/104/43
f 211/104/43 84/99/39 212/259/184 210/258/183
f 213/260/185 208/257/182 210/258/183 212/259/184
f 212/259/184 214/261/186 215/262/187 213/260/185
f 84/99/39 80/98/35 214/261/186 212/259/184
f 215/263/187 214/264/186 216/265/188 217/266/189
f 214/264/186 80/93/35 77/90/32 216/265/188
f 45/56/27 43/54/26 217/266/189 216/265/188
f 75/59/28 45/56/27 216/265/188 77/90/32
f 218/267/190 220/268/191 215/263/187 217/266/189
f 41/53/25 218/267/190 217/266/189 43/54/26
f 219/269/192 221/270/193 220/268/191 218/267/190
f 255/52/24 219/269/192 218/267/190 41/53/25
f 222/271/194 220/272/191 221/273/193 224/274/195
f 213/260/185 215/262/187 220/272/191 222/271/194
f 208/257/182 213/260/185 222/271/194 223/256/181
f 224/274/195 225/275/196 223/256/181 222/271/194
f 225/275/196 224/274/195 226/276/197 228/277/198
f 224/274/195 221/273/193 227/278/199 226/276/197
f 231/279/200 229/280/201 226/276/197 227/278/199
f 229/280/201 232/281/202 228/277/198 226/276/197
f 229/282/201 230/283/203 234/284/204 232/285/202
f 231/286/200 244/287/205 230/283/203 229/282/201
f 232/285/202 234/284/204 235/288/206 233/289/207
f 232/281/202 233/290/207 452/291/208 228/277/198
f 234/284/204 236/292/209 238/293/210 235/288/206
f 230/283/203 239/294/211 236/292/209 234/284/204
f 239/294/211 240/295/212 237/296/213 236/292/209
f 236/292/209 237/296/213 455/297/214 238/293/210
f 241/298/215 242/299/216 240/295/212 239/294/211
f 244/287/205 241/298/215 239/294/211 230/283/203
f 242/300/216 241/301/215 243/302/217 262/303/218
f 245/304/219 243/302/217 241/301/215 244/305/205
f 246/306/220 245/304/219 244/305/205 231/307/200
f 245/304/219 246/306/220 250/308/221 247/309/222
f 243/302/217 245/304/219 247/309/222 248/310/223
f 248/310/223 247/309/222 249/311/224 257/312/225
f 247/309/222 250/308/221 251/313/226 249/311/224
f 251/313/226 250/308/221 252/314/227 253/48/23
f 250/308/221 246/306/220 254/315/228 252/314/227
f 255/52/24 37/46/22 253/48/23 252/314/227
f 219/269/192 255/52/24 252/314/227 254/315/228
f 246/306/220 231/307/200 227/316/199 254/315/228
f 221/270/193 219/269/192 254/315/228 227/316/199
f 30/38/16 251/313/226 253/48/23 32/39/17
f 30/38/16 256/30/8 249/311/224 251/313/226
f 256/30/8 22/27/5 257/312/225 249/311/224
f 257/312/225 258/317/1 260/318/229 248/310/223
f 258/317/1 257/312/225 22/27/5 19/22/1
f 259/319/1 258/317/1 19/22/1 16/21/1
f 258/317/1 259/319/1 261/320/230 260/318/229
f 260/318/229 261/320/230 263/321/231 262/303/218
f 248/310/223 260/318/229 262/303/218 243/302/217
f 264/322/232 242/300/216 262/303/218 263/321/231
f 263/321/231 261/320/230 268/323/233 265/324/234
f 264/322/232 263/321/231 265/324/234 266/325/235
f 267/326/236 478/327/237 266/325/235 265/324/234
f 269/328/238 267/326/236 265/324/234 268/323/233
f 270/329/1 271/330/1 269/328/238 268/323/233
f 259/319/1 270/329/1 268/323/233 261/320/230
f 270/329/1 259/319/1 16/21/1 14/20/1
f 271/330/1 270/329/1 14/20/1 273/19/1
f 271/330/1 272/331/1 523/332/239 269/328/238
f 272/331/1 271/330/1 273/19/1 274/333/1
f 9/13/1 275/15/1 274/333/1 273/19/1
f 276/334/1 277/335/1 272/331/1 274/333/1
f 274/333/1 275/15/1 279/336/1 276/334/1
f 278/337/1 521/338/1 277/335/1 276/334/1
f 276/334/1 279/336/1 280/339/1 278/337/1
f 281/340/1 279/336/1 275/15/1 10/10/1
f 283/341/1 280/339/1 279/336/1 281/340/1
f 285/342/1 283/341/1 281/340/1 282/343/1
f 10/10/1 6/2/1 282/343/1 281/340/1
f 529/344/1 280/339/1 283/341/1 284/345/1
f 286/346/1 284/345/1 283/341/1 285/342/1
f 285/342/1 282/343/1 59/73/1 61/74/1
f 288/77/1 286/346/1 285/342/1 61/74/1
f 287/347/1 528/348/1 284/345/1 286/346/1
f 289/349/1 287/347/1 286/346/1 288/77/1
f 289/349/1 288/77/1 62/78/1 291/350/1
f 290/351/1 531/352/1 287/347/1 289/349/1
f 290/351/1 289/349/1 291/350/1 292/353/1
f 293/354/1 294/355/1 292/353/1 291/350/1
f 64/79/1 293/354/1 291/350/1 62/78/1
f 64/79/1 66/80/1 295/356/1 293/354/1
f 296/357/1 294/355/1 293/354/1 295/356/1
f 298/358/1 296/357/1 295/356/1 297/359/1
f 66/80/1 68/82/1 297/359/1 295/356/1
f 299/360/1 300/361/1 298/358/1 297/359/1
f 302/85/1 299/360/1 297/359/1 68/82/1
f 300/361/1 299/360/1 301/362/240 308/363/241
f 299/360/1 302/85/1 303/364/242 301/362/240
f 302/85/1 69/84/1 304/88/30 303/364/242
f 304/88/30 306/365/243 305/122/61 303/364/242
f 303/364/242 305/122/61 99/125/62 301/362/240
f 306/365/243 307/366/45 95/123/56 305/122/61
f 78/92/34 81/95/37 307/366/45 306/365/243
f 72/87/29 78/92/34 306/365/243 304/88/30
f 308/363/241 301/362/240 99/125/62 101/127/63
f 310/367/1 300/361/1 308/363/241 309/368/656
f 308/363/241 101/127/63 103/129/65 309/368/244
f 312/369/1 310/367/1 309/368/657 311/370/658
f 309/368/244 103/129/65 314/133/68 311/370/245
f 315/371/659 312/369/1 311/370/660 313/372/661
f 311/370/245 314/133/68 113/145/78 313/372/247
f 313/372/247 113/145/78 115/147/79 315/371/246
f 312/369/1 315/371/662 316/373/663 317/374/1
f 315/371/246 115/147/79 117/149/81 316/373/248
f 321/375/1 317/374/1 316/373/664 318/376/665
f 316/373/248 117/149/81 319/153/84 318/376/249
f 318/376/249 319/153/84 773/167/97 320/377/250
f 322/378/1 321/375/1 318/376/666 320/377/250
f 317/374/1 321/375/1 323/379/1 324/380/1
f 321/375/1 322/378/1 325/381/1 323/379/1
f 296/357/1 298/358/1 324/380/1 323/379/1
f 294/355/1 296/357/1 323/379/1 325/381/1
f 294/355/1 325/381/1 326/382/1 292/353/1
f 325/381/1 322/378/1 328/383/1 326/382/1
f 327/384/1 290/351/1 292/353/1 326/382/1
f 330/385/1 327/384/1 326/382/1 328/383/1
f 332/386/251 330/385/1 328/383/1 329/387/252
f 322/378/1 320/377/250 329/387/252 328/383/1
f 532/388/1 327/384/1 330/385/1 331/389/1
f 332/386/251 333/390/253 331/389/1 330/385/1
f 132/172/99 134/175/102 333/390/253 332/386/251
f 132/172/99 332/386/251 329/387/252 130/170/98
f 134/175/102 336/177/103 334/391/254 333/390/253
f 333/390/253 334/391/254 337/392/1 331/389/1
f 339/393/1 337/392/1 334/391/254 335/394/667
f 335/394/255 334/391/254 336/177/103 362/395/256
f 338/396/1 532/388/1 331/389/1 337/392/1
f 337/392/1 339/393/1 341/397/1 338/396/1
f 340/398/1 339/393/1 335/394/668 360/399/669
f 339/393/1 340/398/1 343/400/1 341/397/1
f 341/397/1 342/401/1 530/402/1 338/396/1
f 342/401/1 341/397/1 343/400/1 344/403/1
f 345/404/1 346/405/1 344/403/1 343/400/1
f 348/406/1 345/404/1 343/400/1 340/398/1
f 346/405/1 345/404/1 347/407/670 533/408/259
f 345/404/1 348/406/1 350/409/671 347/407/672
f 349/410/673 348/406/1 340/398/1 360/399/674
f 348/406/1 349/410/675 351/411/676 350/409/677
f 350/409/260 351/411/262 355/412/263 352/413/264
f 347/407/258 350/409/260 352/413/264 353/414/265
f 354/415/266 536/416/267 353/414/265 352/413/264
f 356/417/268 354/415/266 352/413/264 355/412/263
f 351/411/262 349/410/261 357/418/269 355/412/263
f 358/419/270 356/417/268 355/412/263 357/418/269
f 361/420/271 358/419/270 357/418/269 359/421/272
f 349/410/261 360/399/257 359/421/272 357/418/269
f 360/399/257 335/394/255 362/395/256 359/421/272
f 363/422/273 361/420/271 359/421/272 362/395/256
f 135/178/104 363/422/273 362/395/256 336/177/103
f 361/423/271 363/424/273 364/425/274 365/426/275
f 363/424/273 135/180/104 137/179/105 364/425/274
f 365/426/275 364/425/274 366/427/276 367/428/277
f 364/425/274 137/179/105 139/182/107 366/427/276
f 367/428/277 366/427/276 368/429/278 369/430/279
f 366/427/276 139/182/107 370/183/108 368/429/278
f 369/430/279 368/429/278 371/431/280 372/432/281
f 368/429/278 370/183/108 373/433/282 371/431/280
f 374/434/283 376/435/284 372/432/281 371/431/280
f 377/436/285 374/434/283 371/431/280 373/433/282
f 377/436/285 378/437/286 375/438/287 374/434/283
f 374/434/283 375/438/287 562/439/288 376/435/284
f 378/437/286 377/436/285 379/440/289 380/441/290
f 373/433/282 382/188/113 379/440/289 377/436/285
f 383/442/291 380/441/290 379/440/289 381/193/118
f 143/187/112 381/193/118 379/440/289 382/188/113
f 140/184/109 382/188/113 373/433/282 370/183/108
f 383/442/291 381/193/118 147/192/117 385/200/125
f 383/442/291 384/443/292 701/444/293 380/441/290
f 385/200/125 386/445/294 384/443/292 383/442/291
f 151/199/124 388/446/295 386/445/294 385/200/125
f 702/447/296 384/443/292 386/445/294 387/448/297
f 387/448/297 386/445/294 388/446/295 389/449/298
f 391/450/299 389/449/298 388/446/295 390/451/300
f 151/199/124 153/198/123 390/451/300 388/446/295
f 393/452/301 391/450/299 390/451/300 392/453/302
f 153/198/123 155/202/127 392/453/302 390/451/300
f 395/454/303 393/452/301 392/453/302 394/455/304
f 155/202/127 397/205/130 394/455/304 392/453/302
f 398/456/305 395/454/303 394/455/304 396/457/306
f 397/205/130 168/216/141 396/457/306 394/455/304
f 400/458/307 398/456/305 396/457/306 399/459/308
f 168/216/141 170/215/140 399/459/308 396/457/306
f 402/460/309 400/458/307 399/459/308 401/461/310
f 170/215/140 172/218/143 401/461/310 399/459/308
f 404/462/311 402/460/309 401/461/310 403/463/312
f 172/218/143 406/221/146 403/463/312 401/461/310
f 407/464/313 404/462/311 403/463/312 405/465/314
f 406/221/146 183/230/155 405/465/314 403/463/312
f 409/466/315 407/464/313 405/465/314 408/467/316
f 183/230/155 185/229/154 408/467/316 405/465/314
f 411/468/317 409/466/315 408/467/316 410/469/318
f 185/229/154 187/232/157 410/469/318 408/467/316
f 413/470/319 411/468/317 410/469/318 412/471/320
f 187/232/157 415/235/160 412/471/320 410/469/318
f 417/472/321 413/470/319 412/471/320 414/473/322
f 415/235/160 416/246/171 414/473/322 412/471/320
f 193/238/163 416/246/171 415/235/160 188/234/159
f 416/246/171 198/245/170 418/474/323 414/473/322
f 419/475/324 417/472/321 414/473/322 418/474/323
f 421/476/325 419/475/324 418/474/323 420/477/326
f 198/245/170 200/247/172 420/477/326 418/474/323
f 423/478/327 421/476/325 420/477/326 422/479/328
f 200/247/172 202/249/174 422/479/328 420/477/326
f 425/480/329 423/478/327 422/479/328 424/481/330
f 202/249/174 427/252/177 424/481/330 422/479/328
f 634/482/331 425/480/329 424/481/330 426/483/332
f 427/252/177 428/484/333 426/483/332 424/481/330
f 429/485/334 428/484/333 427/252/177 203/251/176
f 430/486/335 428/484/333 429/485/334 432/487/336
f 428/484/333 430/486/335 433/488/337 426/483/332
f 431/489/338 435/490/339 433/488/337 430/486/335
f 450/491/340 431/489/338 430/486/335 432/487/336
f 434/492/341 634/482/331 426/483/332 433/488/337
f 434/492/341 433/488/337 435/490/339 436/493/342
f 438/494/343 436/495/342 435/496/339 437/497/344
f 431/498/338 440/499/345 437/497/344 435/496/339
f 438/494/343 437/497/344 439/500/346 742/501/347
f 442/502/348 439/500/346 437/497/344 440/499/345
f 444/503/349 442/502/348 440/499/345 441/504/350
f 450/505/340 441/504/350 440/499/345 431/498/338
f 442/502/348 443/506/351 745/507/352 439/500/346
f 445/508/353 443/506/351 442/502/348 444/503/349
f 445/508/353 444/503/349 446/509/354 447/510/355
f 446/509/354 444/503/349 441/504/350 448/511/356
f 238/293/210 455/297/214 447/510/355 446/509/354
f 238/293/210 446/509/354 448/511/356 235/288/206
f 233/289/207 235/288/206 448/511/356 449/512/357
f 449/512/357 448/511/356 441/504/350 450/505/340
f 233/290/207 449/513/357 451/514/358 452/291/208
f 449/513/357 450/491/340 432/487/336 451/514/358
f 454/515/359 452/291/208 451/514/358 453/516/360
f 453/516/360 451/514/358 432/487/336 429/485/334
f 207/255/180 454/515/359 453/516/360 205/253/178
f 429/485/334 203/251/176 205/253/178 453/516/360
f 454/515/359 225/275/196 228/277/198 452/291/208
f 207/255/180 223/256/181 225/275/196 454/515/359
f 455/297/214 458/517/361 456/518/362 447/510/355
f 459/519/363 445/508/353 447/510/355 456/518/362
f 461/520/364 459/519/363 456/518/362 457/521/365
f 458/517/361 471/522/366 457/521/365 456/518/362
f 461/520/364 462/523/367 460/524/368 459/519/363
f 459/519/363 460/524/368 443/506/351 445/508/353
f 463/525/369 464/526/370 462/523/367 461/520/364
f 463/525/369 461/520/364 457/521/365 466/527/371
f 465/528/372 754/529/373 464/526/370 463/525/369
f 465/528/372 463/525/369 466/527/371 467/530/374
f 468/531/375 469/532/376 467/530/374 466/527/371
f 471/522/366 468/531/375 466/527/371 457/521/365
f 470/533/377 489/534/378 469/532/376 468/531/375
f 472/535/379 470/533/377 468/531/375 471/522/366
f 473/536/380 472/535/379 471/522/366 458/517/361
f 475/537/381 474/538/382 472/535/379 473/536/380
f 474/538/382 476/539/383 470/533/377 472/535/379
f 266/540/235 478/541/237 476/539/383 474/538/382
f 264/542/232 266/540/235 474/538/382 475/537/381
f 476/539/383 477/543/384 489/534/378 470/533/377
f 478/541/237 479/544/385 477/543/384 476/539/383
f 478/327/237 267/326/236 480/545/386 479/546/385
f 479/546/385 480/545/386 482/547/387 481/548/388
f 479/544/385 481/549/388 484/550/389 477/543/384
f 483/551/390 481/548/388 482/547/387 515/552/391
f 481/549/388 483/553/390 485/554/392 484/550/389
f 484/550/389 485/554/392 487/555/393 486/556/394
f 477/543/384 484/550/389 486/556/394 489/534/378
f 486/556/394 487/555/393 490/557/395 488/558/396
f 489/534/378 486/556/394 488/558/396 469/532/376
f 488/558/396 490/557/395 492/559/397 491/560/398
f 469/532/376 488/558/396 491/560/398 467/530/374
f 495/561/399 493/562/400 491/560/398 492/559/397
f 493/562/400 465/528/372 467/530/374 491/560/398
f 465/528/372 493/562/400 494/563/401 754/529/373
f 493/562/400 495/561/399 496/564/402 494/563/401
f 497/565/403 498/566/404 496/564/402 495/561/399
f 497/565/403 495/561/399 492/559/397 500/567/405
f 499/568/406 763/569/407 498/566/404 497/565/403
f 499/568/406 497/565/403 500/567/405 502/570/408
f 501/571/409 504/572/410 502/570/408 500/567/405
f 490/557/395 501/571/409 500/567/405 492/559/397
f 547/573/411 499/568/406 502/570/408 503/574/412
f 504/572/410 505/575/413 503/574/412 502/570/408
f 506/576/414 507/577/415 505/575/413 504/572/410
f 508/578/416 506/576/414 504/572/410 501/571/409
f 509/579/417 510/580/418 507/577/415 506/576/414
f 512/581/419 509/579/417 506/576/414 508/578/416
f 511/582/420 535/583/421 510/580/418 509/579/417
f 513/584/422 511/582/420 509/579/417 512/581/419
f 483/553/390 513/584/422 512/581/419 485/554/392
f 485/554/392 512/581/419 508/578/416 487/555/393
f 513/585/422 483/551/390 515/552/391 514/586/423
f 511/587/420 513/585/422 514/586/423 516/588/424
f 520/589/425 517/590/426 514/586/423 515/552/391
f 517/590/426 518/591/427 516/588/424 514/586/423
f 519/592/1 525/593/1 518/591/427 517/590/426
f 521/338/1 519/592/1 517/590/426 520/589/425
f 522/594/428 277/335/1 521/338/1 520/589/425
f 522/594/428 520/589/425 515/552/391 482/547/387
f 523/332/239 272/331/1 277/335/1 522/594/428
f 480/545/386 523/332/239 522/594/428 482/547/387
f 267/326/236 269/328/238 523/332/239 480/545/386
f 519/592/1 521/338/1 278/337/1 524/595/1
f 525/593/1 519/592/1 524/595/1 526/596/1
f 525/593/1 346/405/1 533/408/259 518/591/427
f 346/405/1 525/593/1 526/596/1 344/403/1
f 527/597/1 342/401/1 344/403/1 526/596/1
f 529/344/1 527/597/1 526/596/1 524/595/1
f 342/401/1 527/597/1 528/348/1 530/402/1
f 527/597/1 529/344/1 284/345/1 528/348/1
f 280/339/1 529/344/1 524/595/1 278/337/1
f 531/352/1 530/402/1 528/348/1 287/347/1
f 532/388/1 338/396/1 530/402/1 531/352/1
f 327/384/1 532/388/1 531/352/1 290/351/1
f 516/588/424 518/591/427 533/408/259 534/598/429
f 533/408/259 347/407/258 353/414/265 534/598/429
f 511/587/420 516/588/424 534/598/429 535/599/421
f 536/416/267 535/599/421 534/598/429 353/414/265
f 535/583/421 536/600/267 537/601/430 510/580/418
f 536/600/267 354/602/266 538/603/431 537/601/430
f 537/601/430 538/603/431 540/604/432 539/605/433
f 510/580/418 537/601/430 539/605/433 507/577/415
f 539/605/433 540/604/432 542/606/434 541/607/435
f 507/577/415 539/605/433 541/607/435 505/575/413
f 541/607/435 542/606/434 544/608/436 543/609/437
f 505/575/413 541/607/435 543/609/437 503/574/412
f 548/610/438 545/611/439 543/609/437 544/608/436
f 545/611/439 547/573/411 503/574/412 543/609/437
f 548/610/438 549/612/440 546/613/441 545/611/439
f 545/611/439 546/613/441 764/614/442 547/573/411
f 550/615/443 551/616/444 549/612/440 548/610/438
f 550/615/443 548/610/438 544/608/436 553/617/445
f 552/618/446 561/619/447 551/616/444 550/615/443
f 552/618/446 550/615/443 553/617/445 554/620/448
f 555/621/449 556/622/450 554/620/448 553/617/445
f 542/606/434 555/621/449 553/617/445 544/608/436
f 557/623/451 558/624/452 556/622/450 555/621/449
f 540/604/432 557/623/451 555/621/449 542/606/434
f 559/625/453 560/626/454 558/624/452 557/623/451
f 538/603/431 559/625/453 557/623/451 540/604/432
f 356/627/268 358/628/270 560/626/454 559/625/453
f 354/602/266 356/627/268 559/625/453 538/603/431
f 358/628/270 361/423/271 365/426/275 560/626/454
f 560/626/454 365/426/275 367/428/277 558/624/452
f 558/624/452 367/428/277 369/430/279 556/622/450
f 556/622/450 369/430/279 372/432/281 554/620/448
f 376/435/284 552/618/446 554/620/448 372/432/281
f 376/435/284 562/439/288 561/619/447 552/618/446
f 551/616/444 561/619/447 563/629/455 566/630/456
f 561/619/447 562/439/288 565/631/457 563/629/455
f 564/632/458 568/633/459 566/630/456 563/629/455
f 740/634/460 564/632/458 563/629/455 565/631/457
f 549/612/440 551/616/444 566/630/456 567/635/461
f 568/633/459 569/636/462 567/635/461 566/630/456
f 571/637/463 569/636/462 568/633/459 570/638/464
f 564/632/458 572/639/465 570/638/464 568/633/459
f 571/637/463 570/638/464 573/640/466 574/641/467
f 570/638/464 572/639/465 575/642/468 573/640/466
f 576/643/469 579/644/470 574/641/467 573/640/466
f 578/645/471 576/643/469 573/640/466 575/642/468
f 577/646/472 580/647/473 579/644/470 576/643/469
f 577/646/472 576/643/469 578/645/471 688/648/474
f 582/649/475 581/650/476 579/644/470 580/647/473
f 579/644/470 581/650/476 584/651/477 574/641/467
f 772/652/478 583/653/479 581/650/476 582/649/475
f 581/650/476 583/653/479 586/654/480 584/651/477
f 585/655/481 571/637/463 574/641/467 584/651/477
f 587/656/482 585/655/481 584/651/477 586/654/480
f 589/657/483 587/656/482 586/654/480 588/658/484
f 583/653/479 591/659/485 588/658/484 586/654/480
f 768/660/486 589/657/483 588/658/484 590/661/487
f 591/659/485 593/662/488 590/661/487 588/658/484
f 594/663/489 593/662/488 591/659/485 592/664/490
f 772/652/478 592/664/490 591/659/485 583/653/479
f 596/665/491 595/666/492 593/662/488 594/663/489
f 593/662/488 595/666/492 598/667/493 590/661/487
f 771/668/494 597/669/495 595/666/492 596/665/491
f 595/666/492 597/669/495 600/670/496 598/667/493
f 599/671/497 768/660/486 590/661/487 598/667/493
f 601/672/498 599/671/497 598/667/493 600/670/496
f 603/673/499 601/672/498 600/670/496 602/674/500
f 597/669/495 605/675/501 602/674/500 600/670/496
f 769/676/502 603/673/499 602/674/500 604/677/503
f 605/675/501 607/678/504 604/677/503 602/674/500
f 606/679/505 608/680/506 607/678/504 605/675/501
f 606/679/505 605/675/501 597/669/495 771/668/494
f 608/680/506 610/681/507 609/682/508 607/678/504
f 607/678/504 609/682/508 612/683/509 604/677/503
f 770/684/510 611/685/511 609/682/508 610/681/507
f 609/682/508 611/685/511 614/686/512 612/683/509
f 613/687/513 769/676/502 604/677/503 612/683/509
f 615/688/514 613/687/513 612/683/509 614/686/512
f 617/689/515 615/688/514 614/686/512 616/690/516
f 611/685/511 619/691/517 616/690/516 614/686/512
f 741/692/518 617/689/515 616/690/516 618/693/519
f 619/691/517 621/694/520 618/693/519 616/690/516
f 622/695/521 621/694/520 619/691/517 620/696/522
f 620/696/522 619/691/517 611/685/511 770/684/510
f 623/697/523 621/694/520 622/695/521 625/698/524
f 621/694/520 623/697/523 626/699/525 618/693/519
f 624/700/526 628/701/527 626/699/525 623/697/523
f 642/702/528 624/700/526 623/697/523 625/698/524
f 618/693/519 626/699/525 627/703/529 741/692/518
f 628/701/527 630/704/530 627/703/529 626/699/525
f 624/705/526 640/706/531 629/707/532 628/708/527
f 628/708/527 629/707/532 631/709/533 630/710/530
f 436/495/342 438/494/343 627/703/529 630/704/530
f 436/493/342 630/710/530 631/709/533 434/492/341
f 634/482/331 434/492/341 631/709/533 632/711/534
f 635/712/535 632/711/534 631/709/533 629/707/532
f 633/713/536 632/711/534 635/712/535 636/714/537
f 632/711/534 633/713/536 425/480/329 634/482/331
f 637/715/538 638/716/539 636/714/537 635/712/535
f 637/715/538 635/712/535 629/707/532 640/706/531
f 639/717/521 643/718/540 638/716/539 637/715/538
f 639/717/521 637/715/538 640/706/531 641/719/541
f 642/720/528 641/719/541 640/706/531 624/705/526
f 644/721/542 645/722/543 638/716/539 643/718/540
f 646/723/544 647/724/545 645/722/543 644/721/542
f 648/725/546 649/726/547 647/724/545 646/723/544
f 650/727/548 651/728/549 649/726/547 648/725/546
f 650/727/548 652/729/550 653/730/551 651/728/549
f 652/729/550 654/731/552 655/732/553 653/730/551
f 656/733/554 657/734/555 655/732/553 654/731/552
f 658/735/556 659/736/557 657/734/555 656/733/554
f 660/737/558 661/738/559 659/736/557 658/735/556
f 660/737/558 662/739/560 663/740/561 661/738/559
f 664/741/562 665/742/563 663/740/561 662/739/560
f 666/743/564 667/744/565 665/742/563 664/741/562
f 668/745/566 669/746/567 667/744/565 666/743/564
f 668/745/566 670/747/568 671/748/569 669/746/567
f 670/747/568 672/749/570 673/750/571 671/748/569
f 672/749/570 674/751/572 675/752/573 673/750/571
f 677/753/574 675/752/573 674/751/572 676/754/575
f 679/755/576 677/753/574 676/754/575 678/756/577
f 679/755/576 678/756/577 680/757/578 681/758/579
f 682/759/580 683/760/581 681/758/579 680/757/578
f 684/761/582 685/762/583 683/760/581 682/759/580
f 686/763/584 687/764/585 685/762/583 684/761/582
f 688/648/474 578/645/471 687/764/585 686/763/584
f 685/762/583 687/764/585 689/765/586 691/766/587
f 687/764/585 578/645/471 575/642/468 689/765/586
f 690/767/588 693/768/589 691/766/587 689/765/586
f 572/639/465 690/767/588 689/765/586 575/642/468
f 683/760/581 685/762/583 691/766/587 692/769/590
f 693/768/589 695/770/591 692/769/590 691/766/587
f 694/771/592 693/768/589 690/767/588 740/634/460
f 693/768/589 694/771/592 697/772/593 695/770/591
f 692/769/590 695/770/591 696/773/594 706/774/595
f 697/772/593 698/775/596 696/773/594 695/770/591
f 697/772/593 699/776/597 701/444/293 698/775/596
f 697/772/593 694/771/592 700/777/598 699/776/597
f 375/438/287 378/437/286 699/776/597 700/777/598
f 380/441/290 701/444/293 699/776/597 378/437/286
f 698/775/596 701/444/293 384/443/292 702/447/296
f 694/771/592 740/634/460 565/631/457 700/777/598
f 562/439/288 375/438/287 700/777/598 565/631/457
f 702/447/296 703/778/599 696/773/594 698/775/596
f 702/447/296 387/448/297 704/779/600 703/778/599
f 705/780/601 703/778/599 704/779/600 707/781/602
f 705/780/601 706/774/595 696/773/594 703/778/599
f 681/758/579 706/774/595 705/780/601 679/755/576
f 679/755/576 705/780/601 707/781/602 677/753/574
f 675/752/573 677/753/574 707/781/602 708/782/603
f 708/782/603 707/781/602 704/779/600 709/783/604
f 709/783/604 712/784/605 710/785/606 708/782/603
f 673/750/571 675/752/573 708/782/603 710/785/606
f 671/748/569 673/750/571 710/785/606 711/786/607
f 712/784/605 713/787/608 711/786/607 710/785/606
f 391/450/299 712/784/605 709/783/604 389/449/298
f 712/784/605 391/450/299 393/452/301 713/787/608
f 395/454/303 714/788/609 713/787/608 393/452/301
f 713/787/608 714/788/609 716/789/610 711/786/607
f 714/788/609 715/790/611 717/791/612 716/789/610
f 715/790/611 714/788/609 395/454/303 398/456/305
f 667/744/565 669/746/567 716/789/610 717/791/612
f 669/746/567 671/748/569 711/786/607 716/789/610
f 715/790/611 720/792/613 718/793/614 717/791/612
f 665/742/563 667/744/565 717/791/612 718/793/614
f 663/740/561 665/742/563 718/793/614 719/794/615
f 720/792/613 721/795/616 719/794/615 718/793/614
f 721/795/616 720/792/613 400/458/307 402/460/309
f 398/456/305 400/458/307 720/792/613 715/790/611
f 402/460/309 404/462/311 722/796/617 721/795/616
f 721/795/616 722/796/617 724/797/618 719/794/615
f 722/796/617 723/798/619 725/799/620 724/797/618
f 723/798/619 722/796/617 404/462/311 407/464/313
f 659/736/557 661/738/559 724/797/618 725/799/620
f 661/738/559 663/740/561 719/794/615 724/797/618
f 723/798/619 728/800/621 726/801/622 725/799/620
f 657/734/555 659/736/557 725/799/620 726/801/622
f 655/732/553 657/734/555 726/801/622 727/802/623
f 728/800/621 729/803/624 727/802/623 726/801/622
f 729/803/624 728/800/621 409/466/315 411/468/317
f 407/464/313 409/466/315 728/800/621 723/798/619
f 411/468/317 413/470/319 730/804/625 729/803/624
f 729/803/624 730/804/625 732/805/626 727/802/623
f 413/470/319 417/472/321 731/806/627 730/804/625
f 730/804/625 731/806/627 733/807/628 732/805/626
f 653/730/551 655/732/553 727/802/623 732/805/626
f 651/728/549 653/730/551 732/805/626 733/807/628
f 649/726/547 651/728/549 733/807/628 734/808/629
f 731/806/627 735/809/630 734/808/629 733/807/628
f 735/809/630 738/810/631 736/811/632 734/808/629
f 647/724/545 649/726/547 734/808/629 736/811/632
f 645/722/543 647/724/545 736/811/632 737/812/633
f 738/810/631 739/813/634 737/812/633 736/811/632
f 739/813/634 738/810/631 421/476/325 423/478/327
f 419/475/324 421/476/325 738/810/631 735/809/630
f 423/478/327 425/480/329 633/713/536 739/813/634
f 739/813/634 633/713/536 636/714/537 737/812/633
f 638/716/539 645/722/543 737/812/633 636/714/537
f 735/809/630 731/806/627 417/472/321 419/475/324
f 389/449/298 709/783/604 704/779/600 387/448/297
f 683/760/581 692/769/590 706/774/595 681/758/579
f 572/639/465 564/632/458 740/634/460 690/767/588
f 742/501/347 741/692/518 627/703/529 438/494/343
f 743/814/635 617/689/515 741/692/518 742/501/347
f 743/814/635 742/501/347 439/500/346 745/507/352
f 617/689/515 743/814/635 744/815/636 615/688/514
f 744/815/636 743/814/635 745/507/352 746/816/637
f 443/506/351 460/524/368 746/816/637 745/507/352
f 748/817/638 744/815/636 746/816/637 747/818/639
f 460/524/368 462/523/367 747/818/639 746/816/637
f 750/819/640 748/817/638 747/818/639 749/820/641
f 462/523/367 464/526/370 749/820/641 747/818/639
f 752/821/642 750/819/640 749/820/641 751/822/643
f 464/526/370 754/529/373 751/822/643 749/820/641
f 755/823/644 752/821/642 751/822/643 753/824/645
f 754/529/373 494/563/401 753/824/645 751/822/643
f 757/825/646 755/823/644 753/824/645 756/826/647
f 494/563/401 496/564/402 756/826/647 753/824/645
f 759/827/648 757/825/646 756/826/647 758/828/649
f 496/564/402 498/566/404 758/828/649 756/826/647
f 761/829/650 759/827/648 758/828/649 760/830/651
f 498/566/404 763/569/407 760/830/651 758/828/649
f 765/831/652 761/829/650 760/830/651 762/832/653
f 763/569/407 764/614/442 762/832/653 760/830/651
f 547/573/411 764/614/442 763/569/407 499/568/406
f 764/614/442 546/613/441 766/833/654 762/832/653
f 767/834/655 765/831/652 762/832/653 766/833/654
f 569/636/462 767/834/655 766/833/654 567/635/461
f 546/613/441 549/612/440 567/635/461 766/833/654
f 587/656/482 765/831/652 767/834/655 585/655/481
f 569/636/462 571/637/463 585/655/481 767/834/655
f 765/831/652 587/656/482 589/657/483 761/829/650
f 768/660/486 759/827/648 761/829/650 589/657/483
f 759/827/648 768/660/486 599/671/497 757/825/646
f 757/825/646 599/671/497 601/672/498 755/823/644
f 603/673/499 752/821/642 755/823/644 601/672/498
f 752/821/642 603/673/499 769/676/502 750/819/640
f 613/687/513 748/817/638 750/819/640 769/676/502
f 748/817/638 613/687/513 615/688/514 744/815/636
f 487/555/393 508/578/416 501/571/409 490/557/395
f 242/299/216 264/542/232 475/537/381 240/295/212
f 240/295/212 475/537/381 473/536/380 237/296/213
f 237/296/213 473/536/380 458/517/361 455/297/214
f 320/377/250 773/167/97 130/170/98 329/387/252
f 310/367/1 312/369/1 317/374/1 324/380/1
f 300/361/1 310/367/1 324/380/1 298/358/1
f 319/153/84 118/152/83 124/168/90 773/167/97
f 6/2/1 2/1/1 59/73/1 282/343/1
f 192/108/47 83/103/42 211/104/43 196/239/164
f 774/66/1 52/67/1 3/5/1 776/8/1
f 48/61/1 774/66/1 775/835/1 782/49/1
f 775/835/1 774/66/1 776/8/1 777/836/1
f 4/7/1 779/837/1 777/836/1 776/8/1
f 781/45/21 775/835/1 777/836/1 778/36/14
f 779/837/1 27/33/11 778/36/14 777/836/1
f 779/837/1 780/17/1 25/31/9 27/33/11
f 780/17/1 779/837/1 4/7/1 7/9/1
f 780/17/1 12/16/1 18/24/2 25/31/9
f 35/42/20 781/45/21 778/36/14 28/35/13
f 34/43/1 782/49/1 775/835/1 781/45/21
