# Blender 4.5.3 LTS
# www.blender.org
o DecalStatic
v 9.556286 -28.210890 20.771782
v 9.704864 -28.175880 20.200468
v 10.267400 -28.199158 20.057005
v 10.261456 -28.254810 20.779898
v 11.065332 -28.206581 19.989058
v 11.048520 -28.270308 20.764067
v 11.873397 -28.194029 20.045931
v 11.851274 -28.251652 20.772297
v 12.459559 -28.165133 20.185625
v 12.600527 -28.199762 20.760599
v 9.489267 -28.231497 21.572104
v 10.244199 -28.282148 21.571814
v 11.044750 -28.305254 21.571421
v 11.862833 -28.279171 21.571140
v 12.667073 -28.220438 21.571075
v 9.550503 -28.230494 22.375141
v 10.258675 -28.274746 22.367094
v 11.049926 -28.290457 22.382631
v 11.856868 -28.271536 22.373589
v 12.608892 -28.219364 22.384581
v 9.696132 -28.210814 22.952139
v 10.262565 -28.235582 23.097546
v 11.067554 -28.243948 23.166296
v 11.882586 -28.229786 23.107841
v 12.472111 -28.199888 22.965717
v 13.296519 -28.103823 22.534153
v 13.443274 -28.096989 21.571051
v 12.845177 -28.107130 23.313841
v 12.066685 -28.124321 23.773582
v 11.099603 -28.136354 23.928400
v 10.136312 -28.133698 23.769598
v 9.364916 -28.124378 23.308298
v 8.913682 -28.125862 22.530748
v 8.766681 -28.120054 21.571846
v 8.928693 -28.101700 20.619101
v 9.385834 -28.080767 19.855978
v 10.150039 -28.078888 19.407629
v 11.097959 -28.078108 19.252903
v 12.050079 -28.070023 19.402414
v 12.821779 -28.063049 19.849257
v 13.280313 -28.079327 20.614136
v -9.010751 -28.103811 22.534153
v -8.863996 -28.096970 21.571051
v -9.462096 -28.107111 23.313839
v -10.240587 -28.124310 23.773590
v -11.207670 -28.136343 23.928408
v -12.170961 -28.133678 23.769606
v -12.942362 -28.124352 23.308298
v -13.393588 -28.125843 22.530748
v -13.540590 -28.120039 21.571846
v -13.378581 -28.101681 20.619101
v -12.921442 -28.080744 19.855978
v -12.157232 -28.078880 19.407629
v -11.209312 -28.078093 19.252911
v -10.257196 -28.070007 19.402414
v -9.485492 -28.063026 19.849255
v -9.026957 -28.079311 20.614138
v -12.750986 -28.210875 20.771790
v -12.602409 -28.175865 20.200468
v -12.039870 -28.199139 20.057013
v -12.045817 -28.254803 20.779913
v -11.241936 -28.206573 19.989065
v -11.258751 -28.270300 20.764067
v -10.433875 -28.194021 20.045938
v -10.456004 -28.251640 20.772297
v -9.847710 -28.165117 20.185631
v -9.706743 -28.199759 20.760599
v -12.818005 -28.231493 21.572105
v -12.063071 -28.282137 21.571821
v -11.262520 -28.305243 21.571428
v -10.444439 -28.279160 21.571140
v -9.640200 -28.220419 21.571077
v -12.756767 -28.230467 22.375141
v -12.048596 -28.274727 22.367102
v -11.257345 -28.290453 22.382631
v -10.450405 -28.271517 22.373596
v -9.698388 -28.219353 22.384581
v -12.611140 -28.210806 22.952139
v -12.044708 -28.235559 23.097546
v -11.239724 -28.243937 23.166304
v -10.424694 -28.229763 23.107849
v -9.835168 -28.199869 22.965719
v 3.310069 -28.013111 14.851362
v 3.408757 -28.013184 14.342662
v 3.026064 -28.013071 15.280432
v 2.596193 -28.013197 15.555978
v 1.892194 -28.013309 15.663186
v 2.596193 -28.013186 13.129355
v 1.892195 -28.013313 13.022148
v 3.026062 -28.013071 13.404894
v 3.310070 -28.013123 13.833965
v 2.365374 -28.099489 14.342662
v 1.923051 -27.858797 12.534347
v 2.783226 -27.858727 12.687608
v 3.364354 -27.858761 13.075985
v 3.752631 -27.858776 13.657167
v 3.888968 -27.858786 14.342655
v 3.752630 -27.858782 15.028166
v 3.364355 -27.858761 15.609340
v 2.783225 -27.858734 15.997725
v 1.923051 -27.858797 16.150978
v 0.000124 -28.013361 15.675036
v 0.000123 -27.858908 16.167904
v 0.000123 -27.858898 12.517427
v 2.813697 -28.089769 14.342664
v 2.386530 -28.089760 15.004200
v 2.684171 -28.082165 14.959903
v 2.386531 -28.089760 13.681117
v 2.684171 -28.082161 13.725430
v 2.361180 -28.099489 14.057338
v 2.768782 -28.089752 14.011369
v 2.361179 -28.099493 14.627995
v 0.000123 -28.099489 14.623768
v 2.768783 -28.089746 14.673948
v 1.832317 -28.099489 14.342663
v 1.841606 -28.089790 15.032862
v 1.841606 -28.089790 13.652470
v 1.832525 -28.099501 14.623906
v 1.832526 -28.099489 14.061419
v -3.752382 -27.858782 15.028165
v -3.888721 -27.858786 14.342663
v -3.364106 -27.858763 15.609340
v -2.782978 -27.858734 15.997725
v -1.922809 -27.858805 16.150978
v -2.782978 -27.858723 12.687608
v -1.922809 -27.858793 12.534353
v -3.364108 -27.858761 13.075993
v -3.752384 -27.858772 13.657166
v -2.813450 -28.089769 14.342664
v -3.408515 -28.013184 14.342663
v -3.309822 -28.013126 14.851370
v -2.768534 -28.089748 14.673949
v -2.595945 -28.013186 13.129355
v -3.025815 -28.013071 13.404894
v -2.683923 -28.082161 13.725430
v -2.386283 -28.089748 13.681117
v -1.891948 -28.013309 15.663186
v -2.365127 -28.099489 14.342663
v -2.360934 -28.099489 14.627996
v -1.832285 -28.099501 14.623905
v -1.832076 -28.099489 14.342663
v -1.891948 -28.013313 13.022148
v -1.841364 -28.089790 13.652471
v 0.000123 -28.089788 13.649239
v 0.000124 -28.013369 13.010298
v -3.025816 -28.013071 15.280433
v -2.595946 -28.013197 15.555978
v -3.309822 -28.013123 13.833964
v -2.360933 -28.099489 14.057338
v -2.768534 -28.089752 14.011369
v -2.386285 -28.089760 15.004199
v -2.683921 -28.082165 14.959902
v -1.832284 -28.099489 14.061420
v -1.841364 -28.089790 15.032862
v 0.000123 -28.099489 14.342664
v 0.000123 -28.099485 14.061565
v 0.000123 -28.089788 15.036087
v 13.770444 -27.987587 22.113811
v 13.401458 -27.996040 23.116121
v 12.669058 -28.008415 23.867546
v 11.665892 -28.022951 24.263279
v 10.564717 -28.028326 24.267258
v 9.557930 -28.023361 23.876755
v 8.817518 -28.018667 23.125551
v 8.442202 -28.014296 22.118088
v 8.457678 -28.001392 21.028261
v 8.854355 -27.982819 20.042118
v 9.594216 -27.969923 19.321003
v 10.579132 -27.965296 18.950069
v 11.650333 -27.960562 18.952459
v 12.631966 -27.954996 19.328384
v 13.364510 -27.959698 20.050444
v 13.755536 -27.974810 21.031309
v 9.931461 -28.217243 20.439465
v 10.654369 -28.240759 20.384155
v 11.458958 -28.239031 20.378769
v 12.207030 -28.210470 20.426146
v 9.872302 -28.252621 21.170982
v 10.642705 -28.286850 21.167679
v 11.452368 -28.285746 21.165380
v 12.256695 -28.246275 21.165136
v 9.870022 -28.262527 21.973871
v 10.642272 -28.297285 21.976622
v 11.454277 -28.296207 21.978243
v 12.260436 -28.256186 21.977997
v 9.925995 -28.245182 22.710148
v 10.653312 -28.269190 22.766270
v 11.463893 -28.267208 22.771187
v 12.216260 -28.238085 22.722206
v 13.034921 -28.175449 22.020365
v 12.833838 -28.171106 22.818432
v 12.333506 -28.178915 23.318287
v 11.532293 -28.199165 23.521711
v 10.635170 -28.203083 23.516752
v 9.847111 -28.189932 23.306353
v 9.354889 -28.186747 22.807093
v 9.152705 -28.192600 22.016369
v 9.157218 -28.181538 21.128704
v 9.365900 -28.154980 20.344227
v 9.857425 -28.145931 19.852352
v 10.638030 -28.155273 19.645790
v 11.525235 -28.151756 19.640402
v 12.319351 -28.135216 19.839373
v 12.819873 -28.139093 20.331398
v 13.029275 -28.164242 21.122801
v -8.536827 -27.987572 22.113811
v -8.905812 -27.996029 23.116121
v -9.638211 -28.008400 23.867554
v -10.641378 -28.022936 24.263287
v -11.742554 -28.028311 24.267258
v -12.749343 -28.023342 23.876762
v -13.489757 -28.018654 23.125551
v -13.865072 -28.014288 22.118088
v -13.849593 -28.001381 21.028261
v -13.452919 -27.982803 20.042118
v -12.713058 -27.969912 19.321003
v -11.728137 -27.965281 18.950077
v -10.656942 -27.960546 18.952467
v -9.675312 -27.954981 19.328392
v -8.942761 -27.959682 20.050444
v -8.551734 -27.974794 21.031309
v -12.375810 -28.217228 20.439463
v -11.652902 -28.240744 20.384163
v -10.848317 -28.239019 20.378777
v -10.100244 -28.210455 20.426153
v -12.434968 -28.252617 21.170990
v -11.664566 -28.286842 21.167686
v -10.854906 -28.285727 21.165380
v -10.050580 -28.246275 21.165136
v -12.437250 -28.262508 21.973871
v -11.664999 -28.297277 21.976622
v -10.852994 -28.296200 21.978251
v -10.046837 -28.256170 21.977997
v -12.381277 -28.245167 22.710155
v -11.653963 -28.269175 22.766270
v -10.843382 -28.267193 22.771196
v -10.091019 -28.238066 22.722214
v -9.272352 -28.175438 22.020365
v -9.473438 -28.171091 22.818432
v -9.973771 -28.178900 23.318293
v -10.774982 -28.199150 23.521711
v -11.672103 -28.203064 23.516768
v -12.460162 -28.189913 23.306360
v -12.952383 -28.186728 22.807100
v -13.154563 -28.192589 22.016369
v -13.150053 -28.181534 21.128704
v -12.941372 -28.154963 20.344225
v -12.449848 -28.145916 19.852352
v -11.669240 -28.155262 19.645798
v -10.782038 -28.151752 19.640409
v -9.987920 -28.135201 19.839373
v -9.487400 -28.139086 20.331398
v -9.277995 -28.164230 21.122801
v 3.091179 -28.060669 14.552089
v 2.662041 -28.060495 13.482571
v 1.047899 -27.947723 15.946148
v 2.196823 -28.099415 14.477677
v 1.036092 -28.060814 13.335754
v 3.639394 -27.947456 14.649715
v 3.404559 -27.947374 15.217217
v 2.970167 -27.947386 15.651546
v 2.401504 -27.947525 15.886320
v 2.401505 -27.947531 12.799013
v 2.970166 -27.947386 13.033794
v 3.404559 -27.947382 13.468108
v 3.639393 -27.947456 14.035610
v 1.047899 -27.947723 12.739178
v 2.563308 -28.099451 14.195741
v 2.521374 -28.099407 14.792702
v 2.200023 -28.099350 13.885487
v 2.662042 -28.060507 15.202755
v 2.277745 -28.060684 15.320094
v 2.947009 -28.060493 13.747887
v 2.277746 -28.060677 13.365238
v 2.200023 -28.099354 14.799840
v 2.521374 -28.099407 13.892625
v 2.563309 -28.099451 14.489584
v 2.196823 -28.099415 14.207640
v 2.947010 -28.060493 14.937439
v 3.091180 -28.060669 14.133238
v 1.025710 -28.099482 14.476586
v 1.025718 -28.099440 13.882086
v 1.025718 -28.099436 14.803248
v 1.025710 -28.099485 14.208738
v 1.036091 -28.060814 15.349579
v -3.090933 -28.060669 14.552088
v -2.661793 -28.060495 13.482571
v -1.047653 -27.947723 15.946148
v -2.196580 -28.099415 14.477677
v -1.035846 -28.060814 13.335754
v -3.639148 -27.947449 14.649715
v -3.404311 -27.947378 15.217217
v -2.969918 -27.947378 15.651546
v -2.401259 -27.947525 15.886320
v -2.401260 -27.947521 12.799021
v -2.969918 -27.947386 13.033786
v -3.404312 -27.947378 13.468108
v -3.639148 -27.947456 14.035610
v -1.047653 -27.947723 12.739177
v -2.563060 -28.099451 14.195741
v -2.521127 -28.099392 14.792702
v -2.199780 -28.099350 13.885487
v -2.661794 -28.060499 15.202754
v -2.277499 -28.060684 15.320094
v -2.946761 -28.060493 13.747886
v -2.277500 -28.060677 13.365239
v -2.199779 -28.099354 14.799839
v -2.521125 -28.099407 13.892625
v -2.563061 -28.099451 14.489592
v -2.196580 -28.099415 14.207641
v -2.946761 -28.060493 14.937439
v -3.090935 -28.060669 14.133238
v -1.025467 -28.099482 14.476586
v -1.025475 -28.099436 13.882086
v -1.025475 -28.099436 14.803248
v -1.025467 -28.099485 14.208738
v -1.035846 -28.060814 15.349579
v 13.628246 -27.993896 22.634787
v 13.406980 -28.101883 22.062761
v 13.809825 -27.982838 21.569561
v 13.075107 -28.003059 23.529421
v 13.109521 -28.105164 22.955873
v 12.190056 -28.018059 24.108101
v 12.488746 -28.115486 23.581900
v 11.115631 -28.028700 24.311525
v 11.594621 -28.132351 23.887190
v 10.039260 -28.028507 24.115406
v 10.605776 -28.137121 23.885067
v 9.148702 -28.021992 23.539406
v 9.718242 -28.129080 23.576761
v 8.586473 -28.019279 22.642324
v 9.101216 -28.125256 22.951120
v 8.404954 -28.010618 21.571640
v 8.804356 -28.125010 22.062119
v 8.615132 -27.994343 20.512667
v 8.812498 -28.112659 21.083311
v 9.188535 -27.977051 19.643528
v 9.120790 -28.090597 20.205608
v 10.066931 -27.969320 19.095222
v 9.737086 -28.078966 19.594889
v 11.114912 -27.965118 18.907869
v 10.612370 -28.079779 19.295616
v 12.161729 -27.959665 19.100096
v 11.584908 -28.075401 19.292753
v 13.034423 -27.957384 19.652504
v 12.467217 -28.065420 19.588518
v 13.600296 -27.968967 20.518818
v 13.088049 -28.069994 20.199511
v 13.397011 -28.089632 21.080259
v 9.931339 -28.187708 20.126810
v 10.275455 -28.232037 20.409763
v 9.896184 -28.237701 20.788624
v 9.624947 -28.192471 20.431543
v 10.654236 -28.205259 20.007927
v 11.056108 -28.243332 20.373295
v 10.648346 -28.266380 20.772678
v 11.481247 -28.202703 20.002003
v 11.850106 -28.228088 20.399641
v 11.452795 -28.265139 20.768610
v 12.222295 -28.179455 20.110914
v 12.532920 -28.182076 20.418770
v 12.234408 -28.231348 20.779984
v 10.250148 -28.272268 21.172941
v 9.859964 -28.261019 21.573076
v 9.505807 -28.223532 21.159552
v 11.045384 -28.292696 21.167152
v 10.639916 -28.298502 21.573854
v 11.857721 -28.269299 21.168579
v 11.454023 -28.297379 21.573484
v 12.648885 -28.212568 21.154215
v 12.267569 -28.254780 21.573315
v 10.248534 -28.282482 21.976204
v 9.891814 -28.256956 22.360605
v 9.502698 -28.233442 21.985441
v 11.046084 -28.302994 21.981266
v 10.647323 -28.286297 22.378841
v 11.860758 -28.279552 21.979265
v 11.456487 -28.285038 22.382298
v 12.653324 -28.222458 21.990936
v 12.241518 -28.250444 22.370247
v 10.270062 -28.259869 22.744120
v 9.922533 -28.223486 23.027985
v 9.617402 -28.221340 22.718075
v 11.056822 -28.271616 22.780527
v 10.651460 -28.242218 23.148529
v 11.856651 -28.255630 22.753262
v 11.486253 -28.239269 23.154060
v 12.544165 -28.210594 22.732206
v 12.232431 -28.215012 23.042591
v 12.958018 -28.174927 22.444729
v 13.060166 -28.172081 21.571064
v 12.634617 -28.170282 23.118244
v 11.957832 -28.190617 23.443930
v 11.082712 -28.203634 23.547419
v 10.214960 -28.198273 23.434746
v 9.552529 -28.184015 23.105560
v 9.230014 -28.191692 22.436415
v 9.127049 -28.189285 21.572042
v 9.238420 -28.169922 20.711168
v 9.564322 -28.144360 20.049816
v 10.222155 -28.152058 19.726400
v 11.080593 -28.155285 19.615482
v 11.946594 -28.144981 19.716410
v 12.619318 -28.130527 20.035881
v 12.947455 -28.152937 20.701139
v -8.679024 -27.993881 22.634789
v -8.900293 -28.101871 22.062761
v -8.497446 -27.982822 21.569561
v -9.232165 -28.003048 23.529421
v -9.197752 -28.105148 22.955873
v -10.117214 -28.018055 24.108099
v -9.818525 -28.115471 23.581898
v -11.191639 -28.028685 24.311535
v -10.712653 -28.132339 23.887197
v -12.268011 -28.028484 24.115414
v -11.701498 -28.137106 23.885075
v -13.158574 -28.021973 23.539413
v -12.589033 -28.129068 23.576769
v -13.720801 -28.019266 22.642324
v -13.206059 -28.125237 22.951120
v -13.902315 -28.010607 21.571640
v -13.502915 -28.125002 22.062119
v -13.692140 -27.994328 20.512667
v -13.494773 -28.112648 21.083311
v -13.118738 -27.977036 19.643528
v -13.186485 -28.090586 20.205608
v -12.240339 -27.969305 19.095230
v -12.570189 -28.078947 19.594896
v -11.192362 -27.965107 18.907869
v -11.694900 -28.079763 19.295624
v -10.145548 -27.959646 19.100094
v -10.722366 -28.075394 19.292761
v -9.272851 -27.957363 19.652512
v -9.840058 -28.065401 19.588516
v -8.706974 -27.968960 20.518818
v -9.219222 -28.069983 20.199511
v -8.910259 -28.089617 21.080261
v -12.375932 -28.187693 20.126808
v -12.031816 -28.232021 20.409763
v -12.411086 -28.237698 20.788624
v -12.682325 -28.192459 20.431541
v -11.653035 -28.205244 20.007935
v -11.251163 -28.243317 20.373302
v -11.658924 -28.266365 20.772686
v -10.826024 -28.202692 20.002018
v -10.457170 -28.228077 20.399641
v -10.854480 -28.265123 20.768618
v -10.084975 -28.179440 20.110914
v -9.774352 -28.182068 20.418770
v -10.072866 -28.231340 20.779982
v -12.057122 -28.272261 21.172949
v -12.447305 -28.261015 21.573086
v -12.801462 -28.223528 21.159557
v -11.261886 -28.292685 21.167150
v -11.667355 -28.298494 21.573856
v -10.449553 -28.269287 21.168579
v -10.853249 -28.297367 21.573484
v -9.658384 -28.212564 21.154215
v -10.039704 -28.254768 21.573317
v -12.058736 -28.282463 21.976213
v -12.415456 -28.256941 22.360603
v -12.804573 -28.233431 21.985443
v -11.261186 -28.302982 21.981274
v -11.659949 -28.286289 22.378841
v -10.446514 -28.279537 21.979265
v -10.850785 -28.285023 22.382305
v -9.653951 -28.222443 21.990942
v -10.065757 -28.250429 22.370247
v -12.037209 -28.259853 22.744120
v -12.384739 -28.223471 23.027992
v -12.689867 -28.221329 22.718082
v -11.250453 -28.271612 22.780527
v -11.655815 -28.242203 23.148537
v -10.450624 -28.255615 22.753269
v -10.821025 -28.239248 23.154068
v -9.763115 -28.210579 22.732206
v -10.074848 -28.214993 23.042591
v -9.349258 -28.174919 22.444731
v -9.247106 -28.172066 21.571064
v -9.672659 -28.170263 23.118244
v -10.349443 -28.190601 23.443935
v -11.224565 -28.203615 23.547419
v -12.092313 -28.198261 23.434752
v -12.754745 -28.184011 23.105560
v -13.077255 -28.191673 22.436415
v -13.180223 -28.189274 21.572042
v -13.068854 -28.169914 20.711168
v -12.742951 -28.144344 20.049816
v -12.085115 -28.152042 19.726400
v -11.226679 -28.155270 19.615490
v -10.360681 -28.144970 19.716410
v -9.687952 -28.130512 20.035889
v -9.359814 -28.152918 20.701139
v 3.854216 -27.858786 14.692060
v 3.586826 -27.858765 15.337686
v 3.092727 -27.858751 15.831860
v 2.447044 -27.858749 16.099295
v 2.447045 -27.858749 12.586037
v 3.092726 -27.858744 12.853465
v 3.586826 -27.858774 13.347647
v 3.854216 -27.858789 13.993266
v 3.108861 -28.060743 14.342663
v 3.384931 -28.012796 14.603909
v 3.034503 -28.060822 14.754587
v 2.799869 -28.089901 14.510413
v 2.540197 -28.089708 13.711879
v 2.477399 -28.060413 13.408054
v 2.827509 -28.012764 13.245290
v 2.823749 -28.060419 13.596510
v 1.049144 -27.858892 16.167921
v -0.000307 -27.948124 15.944789
v 1.044873 -28.013639 15.673474
v 1.910602 -27.948130 15.929678
v 2.200603 -28.099489 14.624314
v 1.831137 -28.099405 14.473299
v 2.201003 -28.099384 14.339335
v 2.369344 -28.099260 14.480938
v 1.028541 -28.089788 13.649220
v -0.000312 -28.060646 13.334511
v 1.044866 -28.013079 13.008924
v 1.866310 -28.060814 13.343480
v 1.049144 -27.858898 12.517411
v 3.668230 -27.947966 14.341318
v 3.548179 -27.947905 14.945737
v 3.187480 -28.012936 15.083898
v 3.206909 -27.947853 15.455812
v 2.822968 -28.013390 15.439378
v 2.696213 -27.947935 15.796107
v 2.346027 -28.013815 15.624028
v 2.346795 -28.012590 13.055257
v 1.909806 -27.947643 12.753963
v 2.698059 -27.947449 12.888235
v 3.208735 -27.947891 13.231494
v 3.191094 -28.013014 13.607508
v 3.549131 -27.947931 13.742106
v 3.381796 -28.013453 14.082050
v -0.000739 -27.947653 12.738973
v 2.366652 -28.099346 14.201348
v 2.548992 -28.099272 14.043836
v 2.802984 -28.089754 14.174388
v 2.568550 -28.099451 14.342594
v 2.546658 -28.099169 14.644069
v 2.709936 -28.089273 14.832773
v 2.537338 -28.089472 14.976206
v 2.355335 -28.099249 14.798569
v 2.197877 -28.099350 14.058022
v 1.832524 -28.099461 13.883621
v 2.223953 -28.089834 13.663079
v 2.358176 -28.099443 13.889341
v 2.476650 -28.060801 15.274705
v 2.821471 -28.060398 15.092532
v 1.864679 -28.061083 15.339269
v 2.220196 -28.089701 15.022758
v 3.034866 -28.060787 13.930690
v 2.712497 -28.089561 13.858047
v 1.830771 -28.099403 14.801849
v 1.829924 -28.099442 14.208753
v 0.000123 -28.099485 14.475956
v 1.025272 -28.099390 14.339284
v 1.025277 -28.099384 14.627272
v -0.000312 -28.099483 13.885189
v 1.025280 -28.099453 14.063576
v -0.000317 -28.099367 14.804576
v 1.027873 -28.089567 15.038564
v -0.000752 -28.099482 14.209054
v -0.000747 -28.060820 15.349476
v -3.853967 -27.858786 14.692060
v -3.586578 -27.858763 15.337687
v -3.092478 -27.858753 15.831858
v -2.446800 -27.858749 16.099295
v -2.446800 -27.858746 12.586038
v -3.092478 -27.858744 12.853473
v -3.586580 -27.858759 13.347647
v -3.853968 -27.858789 13.993265
v -2.802454 -28.089764 14.510869
v -3.037257 -28.060371 14.755737
v -3.385221 -28.012821 14.600624
v -3.108797 -28.060566 14.338412
v -2.820205 -28.060610 13.593808
v -2.824538 -28.012693 13.243224
v -2.476619 -28.060827 13.410939
v -2.539819 -28.089869 13.715147
v -1.909325 -27.948025 15.930075
v -1.044501 -28.013683 15.673217
v -1.048792 -27.855679 16.174669
v -2.363818 -28.099493 14.480748
v -2.196968 -28.099350 14.339468
v -1.830895 -28.099394 14.479440
v -2.198844 -28.099167 14.630334
v -1.864987 -28.060814 13.343367
v -1.044527 -28.013124 13.009129
v -1.028620 -28.089844 13.650175
v -1.049755 -27.857376 12.513980
v -3.547925 -27.947908 14.945722
v -3.667998 -27.947962 14.341316
v -3.206383 -27.948364 15.453608
v -3.186882 -28.013355 15.081415
v -2.696583 -27.948421 15.794030
v -2.823388 -28.013706 15.436950
v -2.345775 -28.013813 15.624031
v -2.695960 -27.947924 12.889210
v -1.910357 -27.948130 12.755627
v -2.345370 -28.013296 13.058297
v -3.208471 -27.947895 13.231496
v -3.546865 -27.948404 13.741498
v -3.188515 -28.013391 13.606844
v -3.381559 -28.013451 14.082037
v -2.567814 -28.099171 14.336723
v -2.802352 -28.089497 14.169201
v -2.544186 -28.099405 14.044493
v -2.361897 -28.099367 14.201248
v -2.360465 -28.099276 14.797855
v -2.543136 -28.089319 14.975461
v -2.710699 -28.089725 14.826344
v -2.547216 -28.099451 14.638353
v -2.352251 -28.099220 13.889461
v -2.219952 -28.089699 13.662563
v -1.832295 -28.099428 13.887991
v -2.196079 -28.099295 14.063161
v -2.821280 -28.060396 15.092448
v -2.476431 -28.060804 15.274669
v -2.218814 -28.089481 15.024514
v -1.863352 -28.060921 15.340893
v -2.714782 -28.089308 13.859833
v -3.036783 -28.060621 13.932127
v -1.830519 -28.099401 14.801891
v -1.829657 -28.099436 14.208793
v -1.025459 -28.099480 14.624844
v -1.025476 -28.099489 14.342700
v -1.025463 -28.099478 14.060575
v -1.028074 -28.089710 15.037113
v -8.392159 -16.928484 47.741219
v -8.391635 -20.930475 47.741871
v 2.500026 2.195341 7.974725
v 2.499666 1.023990 3.958439
v -2.500694 1.024109 3.958853
v -2.500334 2.195459 7.975138
v -4.953611 -16.928484 47.741207
v -4.954135 -20.930475 47.741871
v 13.626813 2.292301 39.563919
v 13.625786 -2.582830 42.213455
v 13.626465 0.772248 40.391205
v 13.625417 -4.162234 43.103287
v 13.625049 -5.670460 43.961494
v 13.624763 -7.031370 44.701229
v 13.626094 -0.783137 41.224968
v -13.625540 -4.161857 43.103096
v -13.625291 -5.670507 43.961533
v -13.624862 -7.031375 44.701229
v -13.626245 -0.783551 41.225208
v -13.626818 2.308979 39.593857
v -13.625810 -2.583027 42.213566
v -13.626479 0.772308 40.391174
v 36.648350 -26.378242 18.868780
v 39.649708 -26.081066 18.869091
v 42.649284 -25.671988 18.869324
v 36.647896 -26.425114 21.869656
v 39.650028 -26.131947 21.869740
v 42.648994 -25.679750 21.869574
v 36.648411 -26.384605 24.869320
v 39.649616 -26.146391 24.869026
v 42.649490 -25.663231 24.868849
v 36.649807 -26.409380 23.369463
v 39.648861 -26.131550 23.369356
v 42.647263 -25.666435 23.369093
v 36.650497 -26.414137 20.369091
v 39.650986 -26.115543 20.369318
v 42.648907 -25.682684 20.369516
v 38.153923 -26.324442 21.869448
v 38.151447 -26.249723 18.868477
v 41.148632 -25.903740 21.869637
v 41.150433 -25.886345 18.869240
v 38.152359 -26.297174 24.869404
v 41.152172 -25.925636 24.868864
v 38.152283 -26.301731 23.369600
v 41.149162 -25.907129 23.369139
v 38.153973 -26.299866 20.368546
v 41.150272 -25.899820 20.369501
vn 0.2877 -0.9530 0.0949
vn 0.2424 -0.9670 0.0781
vn 0.2469 -0.9685 0.0310
vn 0.2956 -0.9545 0.0392
vn 0.2488 -0.9685 -0.0146
vn 0.2981 -0.9544 -0.0151
vn 0.2297 -0.9506 0.2090
vn 0.1967 -0.9641 0.1784
vn 0.2289 -0.9648 0.1291
vn 0.2690 -0.9508 0.1539
vn 0.1138 -0.9580 0.2634
vn 0.0954 -0.9705 0.2214
vn 0.1467 -0.9668 0.2092
vn 0.1732 -0.9535 0.2465
vn 0.0056 -0.9624 0.2715
vn 0.0043 -0.9741 0.2259
vn 0.0487 -0.9732 0.2247
vn 0.0585 -0.9611 0.2698
vn -0.1031 -0.9591 0.2638
vn -0.0873 -0.9712 0.2218
vn -0.0402 -0.9736 0.2249
vn -0.0475 -0.9617 0.2699
vn -0.2197 -0.9523 0.2118
vn -0.1892 -0.9653 0.1802
vn -0.1389 -0.9678 0.2101
vn -0.1630 -0.9550 0.2478
vn -0.2792 -0.9553 0.0969
vn -0.2361 -0.9685 0.0796
vn -0.2218 -0.9662 0.1317
vn -0.2597 -0.9528 0.1572
vn -0.2906 -0.9567 -0.0149
vn -0.2432 -0.9699 -0.0144
vn -0.2409 -0.9700 0.0314
vn -0.2877 -0.9569 0.0398
vn -0.2391 -0.9648 -0.1098
vn -0.2427 -0.9682 -0.0606
vn -0.2896 -0.9546 -0.0699
vn -0.2829 -0.9506 -0.1278
vn -0.1931 -0.9577 -0.2134
vn -0.2254 -0.9605 -0.1630
vn -0.2645 -0.9456 -0.1896
vn -0.2247 -0.9425 -0.2472
vn -0.0908 -0.9616 -0.2591
vn -0.1429 -0.9588 -0.2456
vn -0.1673 -0.9434 -0.2864
vn -0.1066 -0.9466 -0.3043
vn -0.0425 -0.9639 -0.2627
vn -0.0499 -0.9492 -0.3108
vn 0.0050 -0.9500 -0.3121
vn 0.0035 -0.9646 -0.2637
vn 0.0988 -0.9610 -0.2583
vn 0.0498 -0.9637 -0.2622
vn 0.0601 -0.9488 -0.3100
vn 0.1178 -0.9458 -0.3028
vn 0.2016 -0.9562 -0.2120
vn 0.1518 -0.9577 -0.2445
vn 0.1792 -0.9418 -0.2844
vn 0.2358 -0.9405 -0.2446
vn 0.2449 -0.9634 -0.1089
vn 0.2325 -0.9591 -0.1613
vn 0.2734 -0.9435 -0.1871
vn 0.2903 -0.9486 -0.1262
vn 0.2480 -0.9669 -0.0606
vn 0.2966 -0.9525 -0.0695
vn -0.0921 -0.9898 -0.1090
vn -0.0701 -0.9912 -0.1121
vn -0.0637 -0.9948 -0.0793
vn -0.0951 -0.9917 -0.0863
vn -0.0436 -0.9925 -0.1142
vn -0.0393 -0.9961 -0.0784
vn -0.0404 -0.9977 -0.0551
vn -0.0632 -0.9965 -0.0543
vn -0.0968 -0.9936 -0.0591
vn -0.0198 -0.9931 -0.1155
vn -0.0188 -0.9966 -0.0801
vn 0.0022 -0.9932 -0.1162
vn 0.0017 -0.9967 -0.0814
vn 0.0013 -0.9982 -0.0607
vn -0.0215 -0.9980 -0.0586
vn 0.0244 -0.9929 -0.1161
vn 0.0224 -0.9965 -0.0805
vn 0.0488 -0.9922 -0.1150
vn 0.0440 -0.9959 -0.0789
vn 0.0449 -0.9975 -0.0550
vn 0.0245 -0.9980 -0.0586
vn 0.0765 -0.9907 -0.1129
vn 0.0698 -0.9944 -0.0792
vn 0.0995 -0.9890 -0.1092
vn 0.1024 -0.9911 -0.0856
vn 0.1038 -0.9929 -0.0587
vn 0.0694 -0.9961 -0.0539
vn -0.0649 -0.9973 -0.0334
vn -0.0979 -0.9946 -0.0347
vn -0.0442 -0.9984 -0.0359
vn -0.0465 -0.9988 -0.0128
vn -0.0665 -0.9977 -0.0125
vn -0.0981 -0.9951 -0.0126
vn -0.0255 -0.9989 -0.0399
vn 0.0012 -0.9991 -0.0418
vn 0.0012 -0.9999 -0.0129
vn -0.0275 -0.9995 -0.0128
vn 0.0283 -0.9988 -0.0397
vn 0.0486 -0.9982 -0.0356
vn 0.0509 -0.9986 -0.0128
vn 0.0304 -0.9995 -0.0128
vn 0.0710 -0.9969 -0.0332
vn 0.1045 -0.9939 -0.0348
vn 0.1045 -0.9944 -0.0126
vn 0.0724 -0.9973 -0.0125
vn -0.0655 -0.9978 0.0083
vn -0.0974 -0.9952 0.0093
vn -0.0446 -0.9989 0.0109
vn -0.0404 -0.9987 0.0313
vn -0.0632 -0.9976 0.0293
vn -0.0955 -0.9949 0.0323
vn -0.0254 -0.9996 0.0148
vn 0.0012 -0.9999 0.0169
vn 0.0015 -0.9993 0.0378
vn -0.0211 -0.9991 0.0356
vn 0.0283 -0.9995 0.0146
vn 0.0491 -0.9987 0.0107
vn 0.0452 -0.9985 0.0318
vn 0.0245 -0.9991 0.0359
vn 0.0716 -0.9974 0.0083
vn 0.1039 -0.9945 0.0093
vn 0.1023 -0.9942 0.0320
vn 0.0694 -0.9972 0.0294
vn -0.0618 -0.9966 0.0536
vn -0.0926 -0.9940 0.0583
vn -0.0381 -0.9978 0.0549
vn -0.0409 -0.9954 0.0865
vn -0.0663 -0.9943 0.0840
vn -0.0883 -0.9929 0.0802
vn -0.0182 -0.9982 0.0572
vn 0.0021 -0.9983 0.0589
vn 0.0028 -0.9960 0.0888
vn -0.0186 -0.9959 0.0881
vn 0.0226 -0.9981 0.0581
vn 0.0432 -0.9975 0.0560
vn 0.0466 -0.9951 0.0876
vn 0.0243 -0.9958 0.0888
vn 0.0678 -0.9962 0.0542
vn 0.0994 -0.9934 0.0579
vn 0.0949 -0.9922 0.0805
vn 0.0722 -0.9938 0.0850
vn 0.1575 -0.9864 0.0469
vn 0.1587 -0.9872 0.0162
vn 0.1594 -0.9871 -0.0134
vn 0.1520 -0.9850 0.0822
vn 0.1328 -0.9842 0.1172
vn 0.0627 -0.9881 0.1408
vn 0.0977 -0.9859 0.1359
vn 0.0035 -0.9899 0.1416
vn 0.0323 -0.9894 0.1415
vn -0.0562 -0.9884 0.1408
vn -0.0255 -0.9896 0.1415
vn -0.0916 -0.9864 0.1361
vn -0.1266 -0.9849 0.1182
vn -0.1520 -0.9872 0.0480
vn -0.1460 -0.9857 0.0839
vn -0.1545 -0.9879 -0.0132
vn -0.1537 -0.9880 0.0164
vn -0.1551 -0.9869 -0.0433
vn -0.1543 -0.9851 -0.0763
vn -0.1486 -0.9824 -0.1133
vn -0.1300 -0.9804 -0.1481
vn -0.0594 -0.9831 -0.1731
vn -0.0957 -0.9813 -0.1672
vn -0.0273 -0.9843 -0.1743
vn 0.0028 -0.9847 -0.1744
vn 0.0329 -0.9841 -0.1744
vn 0.0656 -0.9827 -0.1732
vn 0.1025 -0.9806 -0.1671
vn 0.1371 -0.9795 -0.1475
vn 0.1599 -0.9842 -0.0755
vn 0.1552 -0.9815 -0.1120
vn 0.1602 -0.9861 -0.0434
vn 0.2981 -0.9544 -0.0152
vn -0.1031 -0.9590 0.2638
vn -0.0403 -0.9736 0.2249
vn -0.2597 -0.9528 0.1571
vn 0.0498 -0.9637 -0.2623
vn 0.2016 -0.9562 -0.2121
vn 0.2449 -0.9634 -0.1088
vn 0.1024 -0.9911 -0.0857
vn -0.0981 -0.9951 -0.0125
vn -0.0212 -0.9991 0.0356
vn 0.0021 -0.9983 0.0590
vn -0.0187 -0.9959 0.0881
vn 0.0432 -0.9975 0.0561
vn 0.1574 -0.9864 0.0469
vn -0.1552 -0.9869 -0.0433
vn 0.0657 -0.9827 -0.1732
vn 0.0705 -0.9975 0.0001
vn 0.1295 -0.9916 0.0002
vn 0.1289 -0.9914 0.0230
vn 0.0703 -0.9975 0.0104
vn 0.2035 -0.9791 -0.0000
vn 0.2010 -0.9788 0.0391
vn 0.1918 -0.9783 0.0779
vn 0.1258 -0.9909 0.0474
vn 0.0720 -0.9972 0.0226
vn 0.0675 -0.9948 -0.0759
vn 0.0351 -0.9966 -0.0751
vn 0.0665 -0.9905 -0.1203
vn 0.0974 -0.9899 -0.1033
vn 0.0143 -0.9972 -0.0740
vn 0.0388 -0.9915 -0.1246
vn 0.0732 -0.9793 -0.1887
vn 0.1118 -0.9781 -0.1753
vn 0.1478 -0.9775 -0.1502
vn 0.0213 -0.9272 0.3740
vn 0.0035 -0.9281 0.3722
vn 0.0027 -0.9523 0.3051
vn 0.0170 -0.9513 0.3079
vn -0.0001 -0.9282 0.3720
vn -0.0001 -0.9526 0.3042
vn -0.0000 -0.9818 0.1898
vn 0.0014 -0.9817 0.1904
vn 0.0091 -0.9811 0.1931
vn 0.0004 -1.0000 0.0001
vn 0.0002 -1.0000 -0.0000
vn 0.0002 -1.0000 -0.0002
vn 0.0001 -1.0000 0.0002
vn -0.0000 -1.0000 0.0001
vn -0.0000 -1.0000 -0.0001
vn 0.0001 -1.0000 0.0001
vn -0.0001 -1.0000 0.0002
vn 0.0014 -0.9977 -0.0680
vn 0.0002 -0.9978 -0.0670
vn 0.0006 -0.9929 -0.1187
vn 0.0041 -0.9927 -0.1206
vn -0.0000 -0.9978 -0.0667
vn -0.0000 -0.9930 -0.1183
vn -0.0000 -0.9818 -0.1901
vn 0.0014 -0.9816 -0.1909
vn 0.0092 -0.9811 -0.1933
vn 0.3088 -0.9492 0.0612
vn 0.2914 -0.9490 0.1206
vn 0.3139 -0.9495 -0.0002
vn 0.3749 -0.9271 0.0001
vn 0.3677 -0.9271 0.0731
vn 0.3467 -0.9270 0.1435
vn 0.1478 -0.9775 0.1505
vn 0.1751 -0.9777 0.1162
vn 0.2636 -0.9485 0.1759
vn 0.2238 -0.9484 0.2245
vn 0.3122 -0.9268 0.2086
vn 0.2659 -0.9267 0.2656
vn 0.0732 -0.9793 0.1887
vn 0.1111 -0.9783 0.1751
vn 0.1751 -0.9486 0.2638
vn 0.1193 -0.9492 0.2912
vn 0.2091 -0.9265 0.3128
vn 0.1443 -0.9264 0.3479
vn 0.0348 -0.9803 0.1943
vn 0.0596 -0.9497 0.3074
vn 0.0730 -0.9266 0.3689
vn 0.0351 -0.9801 -0.1954
vn 0.0597 -0.9496 -0.3076
vn 0.1198 -0.9490 -0.2916
vn 0.0170 -0.9511 -0.3084
vn 0.0214 -0.9270 -0.3744
vn 0.0731 -0.9265 -0.3692
vn 0.1444 -0.9262 -0.3482
vn 0.1753 -0.9485 -0.2638
vn 0.2241 -0.9484 -0.2241
vn 0.2093 -0.9265 -0.3128
vn 0.2658 -0.9267 -0.2657
vn 0.1919 -0.9783 -0.0778
vn 0.1753 -0.9777 -0.1156
vn 0.2637 -0.9485 -0.1758
vn 0.2915 -0.9490 -0.1201
vn 0.3123 -0.9268 -0.2085
vn 0.3466 -0.9270 -0.1436
vn 0.2004 -0.9789 -0.0390
vn 0.3087 -0.9492 -0.0611
vn 0.3679 -0.9270 -0.0731
vn 0.0027 -0.9522 -0.3054
vn -0.0000 -0.9525 -0.3045
vn -0.0000 -0.9282 -0.3720
vn 0.0035 -0.9280 -0.3725
vn -0.0001 -1.0000 -0.0002
vn 0.0206 -0.9998 -0.0024
vn 0.0202 -0.9998 0.0001
vn 0.0223 -0.9997 -0.0050
vn 0.0721 -0.9971 -0.0222
vn 0.0709 -0.9974 -0.0104
vn 0.0221 -0.9997 0.0053
vn 0.0229 -0.9994 0.0275
vn 0.0023 -0.9997 0.0238
vn 0.0688 -0.9966 0.0449
vn 0.0671 -0.9949 0.0756
vn 0.0348 -0.9966 0.0753
vn 0.0141 -0.9972 0.0737
vn -0.0001 -1.0000 -0.0000
vn 0.0008 -0.9998 -0.0218
vn 0.0021 -0.9997 -0.0232
vn 0.0001 -1.0000 -0.0001
vn 0.0003 -0.9998 -0.0210
vn 0.0062 -0.9975 -0.0704
vn 0.0386 -0.9915 0.1240
vn 0.0662 -0.9905 0.1203
vn 0.0971 -0.9899 0.1034
vn 0.0041 -0.9927 0.1203
vn 0.0173 -0.9922 0.1232
vn 0.0014 -0.9977 0.0680
vn 0.0060 -0.9975 0.0703
vn 0.1260 -0.9909 -0.0474
vn 0.1177 -0.9902 -0.0754
vn 0.0692 -0.9966 -0.0444
vn 0.0174 -0.9922 -0.1235
vn 0.0010 -0.9998 0.0221
vn 0.0002 -0.9998 0.0212
vn 0.0228 -0.9994 -0.0275
vn 0.0205 -0.9998 0.0027
vn 0.0001 -1.0000 -0.0000
vn 0.1176 -0.9902 0.0752
vn 0.1289 -0.9914 -0.0230
vn -0.0000 -1.0000 0.0002
vn -0.0000 -1.0000 -0.0000
vn -0.0000 -0.9998 -0.0206
vn -0.0000 -0.9998 -0.0208
vn -0.0000 -0.9978 0.0668
vn -0.0000 -0.9998 0.0210
vn -0.0000 -0.9998 0.0209
vn 0.0002 -0.9977 0.0671
vn 0.0006 -0.9929 0.1186
vn -0.0000 -0.9930 0.1182
vn -0.0703 -0.9975 -0.0004
vn -0.0709 -0.9974 0.0101
vn -0.1290 -0.9914 0.0228
vn -0.1295 -0.9916 -0.0003
vn -0.0723 -0.9971 0.0223
vn -0.1264 -0.9908 0.0475
vn -0.1919 -0.9783 0.0777
vn -0.2010 -0.9788 0.0387
vn -0.2034 -0.9791 -0.0001
vn -0.0672 -0.9949 -0.0753
vn -0.0968 -0.9899 -0.1034
vn -0.0663 -0.9905 -0.1204
vn -0.0348 -0.9966 -0.0742
vn -0.1478 -0.9775 -0.1504
vn -0.1115 -0.9781 -0.1756
vn -0.0732 -0.9793 -0.1886
vn -0.0387 -0.9915 -0.1239
vn -0.0142 -0.9972 -0.0737
vn -0.0212 -0.9270 0.3745
vn -0.0169 -0.9512 0.3082
vn -0.0027 -0.9522 0.3056
vn -0.0034 -0.9278 0.3732
vn -0.0092 -0.9811 0.1931
vn -0.0014 -0.9817 0.1904
vn 0.0005 -1.0000 0.0004
vn 0.0002 -1.0000 -0.0001
vn 0.0003 -1.0000 0.0003
vn -0.0002 -1.0000 -0.0002
vn -0.0001 -1.0000 0.0001
vn -0.0002 -1.0000 0.0002
vn -0.0002 -1.0000 0.0001
vn -0.0014 -0.9977 -0.0678
vn -0.0041 -0.9927 -0.1205
vn -0.0006 -0.9929 -0.1187
vn -0.0002 -0.9978 -0.0668
vn -0.0091 -0.9811 -0.1932
vn -0.0014 -0.9816 -0.1908
vn -0.2914 -0.9490 0.1205
vn -0.3088 -0.9492 0.0612
vn -0.3467 -0.9270 0.1435
vn -0.3677 -0.9271 0.0731
vn -0.3749 -0.9271 0.0001
vn -0.3139 -0.9494 -0.0003
vn -0.1478 -0.9775 0.1505
vn -0.2235 -0.9486 0.2240
vn -0.2636 -0.9485 0.1759
vn -0.1749 -0.9777 0.1159
vn -0.2656 -0.9268 0.2654
vn -0.3121 -0.9269 0.2086
vn -0.0732 -0.9793 0.1887
vn -0.1193 -0.9494 0.2906
vn -0.1751 -0.9486 0.2636
vn -0.1111 -0.9783 0.1747
vn -0.1441 -0.9265 0.3476
vn -0.2089 -0.9267 0.3124
vn -0.0596 -0.9497 0.3074
vn -0.0348 -0.9803 0.1943
vn -0.0732 -0.9267 0.3687
vn -0.1194 -0.9492 -0.2913
vn -0.0596 -0.9497 -0.3075
vn -0.0350 -0.9802 -0.1948
vn -0.1443 -0.9263 -0.3479
vn -0.0730 -0.9266 -0.3689
vn -0.0213 -0.9271 -0.3742
vn -0.0170 -0.9512 -0.3081
vn -0.2241 -0.9484 -0.2241
vn -0.1752 -0.9485 -0.2638
vn -0.2658 -0.9267 -0.2657
vn -0.2091 -0.9265 -0.3127
vn -0.1919 -0.9783 -0.0778
vn -0.2910 -0.9491 -0.1201
vn -0.2637 -0.9485 -0.1758
vn -0.1750 -0.9778 -0.1156
vn -0.3464 -0.9271 -0.1434
vn -0.3123 -0.9269 -0.2083
vn -0.3087 -0.9492 -0.0612
vn -0.2004 -0.9789 -0.0389
vn -0.3677 -0.9271 -0.0732
vn -0.0027 -0.9522 -0.3054
vn -0.0035 -0.9280 -0.3726
vn -0.0205 -0.9998 -0.0003
vn -0.0210 -0.9998 -0.0019
vn -0.0709 -0.9974 -0.0103
vn -0.0720 -0.9972 -0.0220
vn -0.0218 -0.9998 -0.0050
vn 0.0002 -1.0000 -0.0003
vn -0.0019 -0.9997 0.0238
vn -0.0226 -0.9994 0.0279
vn -0.0220 -0.9997 0.0051
vn -0.0141 -0.9972 0.0737
vn -0.0354 -0.9965 0.0754
vn -0.0672 -0.9949 0.0757
vn -0.0689 -0.9966 0.0442
vn -0.0018 -0.9997 -0.0233
vn -0.0010 -0.9998 -0.0218
vn -0.0000 -1.0000 -0.0002
vn -0.0061 -0.9975 -0.0701
vn -0.0003 -0.9998 -0.0208
vn -0.0002 -1.0000 -0.0001
vn -0.0662 -0.9905 0.1203
vn -0.0386 -0.9915 0.1239
vn -0.0971 -0.9899 0.1035
vn -0.0173 -0.9922 0.1232
vn -0.0041 -0.9927 0.1203
vn -0.0059 -0.9975 0.0706
vn -0.0015 -0.9977 0.0680
vn -0.1176 -0.9902 -0.0752
vn -0.1260 -0.9909 -0.0472
vn -0.0695 -0.9966 -0.0441
vn -0.0174 -0.9922 -0.1233
vn -0.0008 -0.9998 0.0218
vn -0.0004 -0.9998 0.0211
vn -0.0227 -0.9994 -0.0277
vn -0.0209 -0.9998 0.0017
vn -0.0001 -1.0000 -0.0001
vn -0.1176 -0.9902 0.0752
vn -0.1287 -0.9914 -0.0227
vn -0.0001 -0.9998 -0.0207
vn -0.0002 -0.9978 0.0670
vn -0.0006 -0.9929 0.1186
vn -0.0000 0.9600 -0.2800
vn -0.0000 0.0002 1.0000
vn 0.0003 0.4709 0.8822
vn -0.0000 0.4769 0.8789
vn -0.0000 0.4861 0.8739
vn -0.0000 0.4927 0.8702
vn -0.0000 0.4776 0.8786
vn 0.0006 0.4693 0.8830
vn 0.0758 -0.9969 -0.0202
vn 0.0984 -0.9949 -0.0205
vn 0.0964 -0.9953 -0.0012
vn 0.0702 -0.9975 0.0005
vn 0.1310 -0.9913 -0.0160
vn 0.1425 -0.9898 -0.0077
vn 0.1486 -0.9889 -0.0011
vn 0.1352 -0.9908 -0.0033
vn 0.0669 -0.9977 0.0113
vn 0.0902 -0.9959 0.0067
vn 0.0857 -0.9963 0.0032
vn 0.0647 -0.9979 0.0098
vn 0.1307 -0.9914 -0.0020
vn 0.1537 -0.9881 -0.0035
vn 0.1561 -0.9877 -0.0083
vn 0.1266 -0.9919 -0.0073
vn 0.0804 -0.9963 -0.0287
vn 0.0988 -0.9947 -0.0284
vn 0.1263 -0.9917 -0.0220
vn 0.1390 -0.9902 -0.0119
vn 0.1440 -0.9896 -0.0041
vn 0.1493 -0.9888 0.0015
vn 0.1594 -0.9872 -0.0010
vn 0.1656 -0.9862 -0.0053
vn 0.1425 -0.9898 -0.0079
vt 0.759244 0.399400
vt 0.752184 0.397218
vt 0.754539 0.387595
vt 0.762151 0.388672
vt 0.755332 0.377490
vt 0.763080 0.377513
vt 0.747726 0.417734
vt 0.742826 0.413107
vt 0.748328 0.405851
vt 0.754410 0.409219
vt 0.729440 0.429544
vt 0.726841 0.422438
vt 0.735531 0.418595
vt 0.739274 0.424553
vt 0.707282 0.433610
vt 0.706992 0.425499
vt 0.717156 0.424764
vt 0.718609 0.432588
vt 0.685136 0.429419
vt 0.687262 0.422108
vt 0.696859 0.424595
vt 0.695959 0.432525
vt 0.666888 0.417433
vt 0.671547 0.412540
vt 0.678704 0.418128
vt 0.675321 0.424345
vt 0.655423 0.398900
vt 0.662400 0.396576
vt 0.666153 0.405229
vt 0.660217 0.408820
vt 0.651807 0.376822
vt 0.659498 0.376902
vt 0.660161 0.386967
vt 0.652605 0.388069
vt 0.662954 0.357390
vt 0.660454 0.366880
vt 0.653066 0.365652
vt 0.656289 0.355033
vt 0.672422 0.341831
vt 0.666907 0.348920
vt 0.661379 0.345439
vt 0.668215 0.337219
vt 0.688111 0.332731
vt 0.679606 0.336483
vt 0.676662 0.330722
vt 0.686360 0.326025
vt 0.697593 0.330433
vt 0.696953 0.323199
vt 0.707978 0.322293
vt 0.707571 0.329674
vt 0.727073 0.332874
vt 0.717560 0.330505
vt 0.718987 0.323388
vt 0.729518 0.326406
vt 0.742804 0.342135
vt 0.735615 0.336704
vt 0.739108 0.331274
vt 0.747405 0.337903
vt 0.752107 0.357845
vt 0.748256 0.349302
vt 0.754056 0.346194
vt 0.758952 0.355806
vt 0.754492 0.367407
vt 0.761988 0.366403
vt 0.678908 0.348954
vt 0.683555 0.347486
vt 0.683506 0.353879
vt 0.677304 0.353691
vt 0.690443 0.346107
vt 0.690533 0.353306
vt 0.690233 0.360917
vt 0.682776 0.361017
vt 0.675801 0.360640
vt 0.698350 0.345175
vt 0.698323 0.352862
vt 0.706793 0.344819
vt 0.706528 0.352672
vt 0.706344 0.360711
vt 0.698154 0.360781
vt 0.715289 0.345163
vt 0.714801 0.352858
vt 0.723336 0.346091
vt 0.722783 0.353307
vt 0.722773 0.360969
vt 0.714616 0.360804
vt 0.730437 0.347488
vt 0.730119 0.353903
vt 0.735320 0.349009
vt 0.736758 0.353770
vt 0.738117 0.360805
vt 0.730621 0.361113
vt 0.682215 0.368866
vt 0.674765 0.368579
vt 0.689956 0.368921
vt 0.689789 0.377130
vt 0.681940 0.377078
vt 0.674324 0.377025
vt 0.697996 0.368923
vt 0.706226 0.368925
vt 0.706161 0.377231
vt 0.697891 0.377181
vt 0.714545 0.368981
vt 0.722846 0.369041
vt 0.722892 0.377326
vt 0.714521 0.377280
vt 0.731022 0.369055
vt 0.739035 0.368853
vt 0.739380 0.377416
vt 0.731189 0.377372
vt 0.682065 0.385309
vt 0.674594 0.385491
vt 0.689822 0.385356
vt 0.689971 0.393403
vt 0.682487 0.393200
vt 0.675473 0.393479
vt 0.697882 0.385457
vt 0.706135 0.385556
vt 0.706162 0.393816
vt 0.697928 0.393643
vt 0.714477 0.385596
vt 0.722800 0.385628
vt 0.722677 0.393742
vt 0.714479 0.393818
vt 0.730991 0.385703
vt 0.739018 0.385991
vt 0.738078 0.394069
vt 0.730555 0.393680
vt 0.683097 0.400394
vt 0.676851 0.400495
vt 0.690153 0.401073
vt 0.689945 0.408352
vt 0.683029 0.406853
vt 0.678371 0.405305
vt 0.697990 0.401625
vt 0.706253 0.401920
vt 0.706423 0.409870
vt 0.697907 0.409403
vt 0.714589 0.401830
vt 0.722630 0.401465
vt 0.723127 0.408773
vt 0.715001 0.409624
vt 0.730010 0.400937
vt 0.736684 0.401141
vt 0.735217 0.405943
vt 0.730291 0.407427
vt 0.745216 0.395347
vt 0.746858 0.386663
vt 0.747439 0.377456
vt 0.742613 0.402973
vt 0.738502 0.409057
vt 0.724637 0.415647
vt 0.732339 0.413107
vt 0.706687 0.417669
vt 0.715907 0.417198
vt 0.688921 0.415232
vt 0.697517 0.416981
vt 0.681416 0.412539
vt 0.675442 0.408392
vt 0.668922 0.394690
vt 0.671443 0.402285
vt 0.666914 0.376968
vt 0.667382 0.386077
vt 0.667590 0.367885
vt 0.669318 0.359342
vt 0.671986 0.351850
vt 0.676076 0.345870
vt 0.689553 0.339330
vt 0.682076 0.341871
vt 0.698082 0.337722
vt 0.707158 0.337158
vt 0.716270 0.337728
vt 0.724892 0.339350
vt 0.732502 0.341924
vt 0.738594 0.345975
vt 0.745228 0.359611
vt 0.742655 0.352028
vt 0.746860 0.368262
vt 0.894918 0.953179
vt 0.887894 0.950885
vt 0.890402 0.941301
vt 0.897996 0.942499
vt 0.891356 0.931209
vt 0.899103 0.931356
vt 0.883109 0.971327
vt 0.878284 0.966622
vt 0.883900 0.959455
vt 0.889928 0.962920
vt 0.864637 0.982843
vt 0.862152 0.975697
vt 0.870902 0.971993
vt 0.874550 0.978010
vt 0.842418 0.986551
vt 0.842255 0.978444
vt 0.852431 0.977868
vt 0.853759 0.985713
vt 0.820341 0.982012
vt 0.822583 0.974735
vt 0.832139 0.977372
vt 0.831112 0.985294
vt 0.802286 0.969736
vt 0.807023 0.964918
vt 0.814090 0.970619
vt 0.810608 0.976782
vt 0.791119 0.951022
vt 0.798131 0.948810
vt 0.801746 0.957521
vt 0.795754 0.961017
vt 0.787855 0.928889
vt 0.795544 0.929092
vt 0.796046 0.939166
vt 0.788474 0.940148
vt 0.799312 0.909637
vt 0.796660 0.919087
vt 0.789292 0.917741
vt 0.792684 0.907174
vt 0.809027 0.894232
vt 0.803399 0.901232
vt 0.797927 0.897662
vt 0.804894 0.889552
vt 0.824859 0.885383
vt 0.816295 0.888999
vt 0.813443 0.883192
vt 0.823215 0.878650
vt 0.844364 0.882634
vt 0.834377 0.883240
vt 0.833851 0.875989
vt 0.844890 0.875267
vt 0.863813 0.886148
vt 0.854340 0.883628
vt 0.855880 0.876536
vt 0.866361 0.879720
vt 0.879394 0.895659
vt 0.872294 0.890114
vt 0.875872 0.884740
vt 0.884062 0.891502
vt 0.888446 0.911515
vt 0.884731 0.902912
vt 0.890580 0.899897
vt 0.895322 0.909586
vt 0.890678 0.921115
vt 0.898189 0.920230
vt 0.815398 0.901457
vt 0.820068 0.900064
vt 0.819916 0.906455
vt 0.813718 0.906168
vt 0.826977 0.898795
vt 0.826951 0.905995
vt 0.826531 0.913600
vt 0.819073 0.913581
vt 0.812104 0.913092
vt 0.834897 0.897990
vt 0.834748 0.905675
vt 0.843345 0.897768
vt 0.842955 0.905616
vt 0.842643 0.913650
vt 0.834452 0.913590
vt 0.851834 0.898247
vt 0.851223 0.905934
vt 0.859866 0.899304
vt 0.859198 0.906510
vt 0.859065 0.914171
vt 0.850912 0.913876
vt 0.866944 0.900814
vt 0.866523 0.907223
vt 0.871802 0.902412
vt 0.873164 0.907196
vt 0.874411 0.914251
vt 0.866910 0.914440
vt 0.818387 0.921419
vt 0.810942 0.921014
vt 0.826125 0.921598
vt 0.825828 0.929803
vt 0.817980 0.929626
vt 0.810366 0.929452
vt 0.834164 0.921728
vt 0.842394 0.921862
vt 0.842196 0.930166
vt 0.833928 0.929984
vt 0.850710 0.922050
vt 0.859009 0.922243
vt 0.858923 0.930527
vt 0.850554 0.930347
vt 0.867184 0.922388
vt 0.875200 0.922313
vt 0.875408 0.930880
vt 0.867218 0.930706
vt 0.817974 0.937858
vt 0.810501 0.937920
vt 0.825729 0.938029
vt 0.825750 0.946077
vt 0.818270 0.945754
vt 0.811253 0.945922
vt 0.833786 0.938259
vt 0.842037 0.938489
vt 0.841932 0.946748
vt 0.833702 0.946444
vt 0.850378 0.938662
vt 0.858699 0.938827
vt 0.858446 0.946939
vt 0.850248 0.946884
vt 0.866887 0.939032
vt 0.874909 0.939449
vt 0.873839 0.947510
vt 0.866324 0.947002
vt 0.818765 0.952958
vt 0.812519 0.952959
vt 0.825809 0.953749
vt 0.825485 0.961024
vt 0.818595 0.959415
vt 0.813961 0.957792
vt 0.833636 0.954426
vt 0.841894 0.954853
vt 0.841937 0.962805
vt 0.833429 0.962201
vt 0.850230 0.954896
vt 0.858276 0.954659
vt 0.858656 0.961975
vt 0.850517 0.962696
vt 0.865663 0.954250
vt 0.872333 0.954560
vt 0.870790 0.959338
vt 0.865841 0.960743
vt 0.880956 0.948902
vt 0.882737 0.940246
vt 0.883465 0.931050
vt 0.878232 0.956486
vt 0.874025 0.962503
vt 0.860056 0.968872
vt 0.867798 0.966455
vt 0.842076 0.970608
vt 0.851302 0.970283
vt 0.824352 0.967886
vt 0.832919 0.969771
vt 0.816890 0.965074
vt 0.810983 0.960833
vt 0.804683 0.947028
vt 0.807082 0.954662
vt 0.802958 0.929276
vt 0.803281 0.938392
vt 0.803780 0.920205
vt 0.805643 0.911690
vt 0.808430 0.904242
vt 0.812616 0.898328
vt 0.826195 0.892004
vt 0.818679 0.894426
vt 0.834749 0.890533
vt 0.843832 0.890112
vt 0.852934 0.890830
vt 0.861529 0.892588
vt 0.869097 0.895284
vt 0.875124 0.899432
vt 0.881540 0.913172
vt 0.879088 0.905548
vt 0.883033 0.921848
vt 0.751328 0.950239
vt 0.757317 0.950241
vt 0.756948 0.954486
vt 0.751102 0.953660
vt 0.763427 0.950242
vt 0.762920 0.955494
vt 0.761431 0.960544
vt 0.755846 0.958559
vt 0.750409 0.956976
vt 0.748713 0.937727
vt 0.745808 0.937441
vt 0.748306 0.932827
vt 0.751493 0.935072
vt 0.742695 0.936791
vt 0.744611 0.931307
vt 0.747045 0.925598
vt 0.751670 0.927995
vt 0.755711 0.931244
vt 0.733471 0.987465
vt 0.715405 0.987931
vt 0.715351 0.983142
vt 0.733133 0.982728
vt 0.693718 0.987953
vt 0.693720 0.983163
vt 0.693721 0.977570
vt 0.715241 0.977550
vt 0.732683 0.977213
vt 0.742158 0.956079
vt 0.738868 0.956010
vt 0.738847 0.952991
vt 0.742213 0.953063
vt 0.731327 0.956016
vt 0.731318 0.952980
vt 0.731317 0.950232
vt 0.738846 0.950234
vt 0.742238 0.950235
vt 0.731548 0.936130
vt 0.714865 0.936009
vt 0.715051 0.929591
vt 0.732080 0.929823
vt 0.693732 0.935991
vt 0.693734 0.929565
vt 0.693736 0.922874
vt 0.715255 0.922907
vt 0.732701 0.923254
vt 0.768168 0.956468
vt 0.766366 0.962455
vt 0.768785 0.950245
vt 0.773507 0.950249
vt 0.772800 0.957378
vt 0.770735 0.964238
vt 0.755701 0.969237
vt 0.758991 0.965191
vt 0.763426 0.967974
vt 0.759481 0.972824
vt 0.767369 0.970560
vt 0.762851 0.976116
vt 0.747032 0.974878
vt 0.751658 0.972483
vt 0.754663 0.976811
vt 0.749171 0.979801
vt 0.757337 0.980682
vt 0.751054 0.984108
vt 0.741992 0.976370
vt 0.743199 0.981670
vt 0.744230 0.986252
vt 0.742006 0.924101
vt 0.743220 0.918804
vt 0.749191 0.920677
vt 0.733153 0.917740
vt 0.733493 0.913001
vt 0.744259 0.914226
vt 0.751082 0.916374
vt 0.754681 0.923671
vt 0.759496 0.927660
vt 0.757362 0.919803
vt 0.762872 0.924374
vt 0.761436 0.939940
vt 0.758999 0.935291
vt 0.763438 0.932513
vt 0.766374 0.938034
vt 0.767385 0.929933
vt 0.770746 0.936258
vt 0.762922 0.944991
vt 0.768172 0.944023
vt 0.772806 0.943119
vt 0.715368 0.917315
vt 0.693738 0.917278
vt 0.693739 0.912484
vt 0.715425 0.912525
vt 0.742214 0.947408
vt 0.746248 0.947237
vt 0.746353 0.950237
vt 0.742160 0.944392
vt 0.745931 0.944198
vt 0.750413 0.943501
vt 0.751104 0.946817
vt 0.745928 0.956275
vt 0.745397 0.959393
vt 0.742097 0.959470
vt 0.749231 0.960079
vt 0.748706 0.962749
vt 0.745801 0.963033
vt 0.742688 0.963681
vt 0.738871 0.944458
vt 0.738934 0.940916
vt 0.742101 0.941001
vt 0.731329 0.944448
vt 0.731354 0.940832
vt 0.739381 0.936379
vt 0.744601 0.969166
vt 0.748296 0.967648
vt 0.751485 0.965406
vt 0.732069 0.970641
vt 0.740553 0.970110
vt 0.731546 0.964332
vt 0.739374 0.964091
vt 0.755851 0.941921
vt 0.754020 0.938191
vt 0.749236 0.940398
vt 0.740564 0.930361
vt 0.738930 0.959552
vt 0.731350 0.959632
vt 0.745402 0.941081
vt 0.746247 0.953236
vt 0.738848 0.947477
vt 0.731319 0.947485
vt 0.754013 0.962288
vt 0.756951 0.945995
vt 0.693727 0.956033
vt 0.693728 0.952979
vt 0.714784 0.952980
vt 0.714786 0.956031
vt 0.693729 0.950224
vt 0.714783 0.950229
vt 0.693730 0.944416
vt 0.693731 0.940762
vt 0.714797 0.940777
vt 0.714789 0.944427
vt 0.693725 0.964461
vt 0.693726 0.959687
vt 0.714791 0.959681
vt 0.714856 0.964448
vt 0.693729 0.947470
vt 0.714785 0.947478
vt 0.715040 0.970866
vt 0.693723 0.970883
vt 0.636129 0.950207
vt 0.636353 0.953629
vt 0.630506 0.954452
vt 0.630139 0.950206
vt 0.637044 0.956945
vt 0.631607 0.958525
vt 0.626021 0.960507
vt 0.624535 0.955456
vt 0.624030 0.950204
vt 0.638751 0.937697
vt 0.635972 0.935040
vt 0.639161 0.932798
vt 0.641656 0.937412
vt 0.631756 0.931210
vt 0.635799 0.927964
vt 0.640426 0.925569
vt 0.642856 0.931279
vt 0.644769 0.936764
vt 0.653965 0.987444
vt 0.654306 0.982706
vt 0.672088 0.983130
vt 0.672031 0.987919
vt 0.654759 0.977192
vt 0.672201 0.977539
vt 0.645296 0.956052
vt 0.645243 0.953037
vt 0.648609 0.952967
vt 0.648585 0.955986
vt 0.645219 0.950209
vt 0.648611 0.950210
vt 0.656140 0.950212
vt 0.656137 0.952959
vt 0.656127 0.955996
vt 0.655916 0.936109
vt 0.655388 0.929802
vt 0.672417 0.929579
vt 0.672600 0.935997
vt 0.654771 0.923233
vt 0.672216 0.922895
vt 0.621085 0.962415
vt 0.619286 0.956427
vt 0.616714 0.964196
vt 0.614653 0.957335
vt 0.613950 0.950206
vt 0.618672 0.950204
vt 0.631746 0.969203
vt 0.627964 0.972788
vt 0.624021 0.967936
vt 0.628458 0.965156
vt 0.624592 0.976079
vt 0.620077 0.970520
vt 0.640412 0.974849
vt 0.638270 0.979771
vt 0.632779 0.976778
vt 0.635787 0.972452
vt 0.636384 0.984076
vt 0.630103 0.980648
vt 0.644241 0.981643
vt 0.645451 0.976344
vt 0.643208 0.986225
vt 0.638283 0.920647
vt 0.644254 0.918777
vt 0.645465 0.924075
vt 0.636394 0.916342
vt 0.643218 0.914198
vt 0.653984 0.912979
vt 0.654322 0.917718
vt 0.627974 0.927624
vt 0.632791 0.923638
vt 0.624600 0.924336
vt 0.630112 0.919768
vt 0.626027 0.939903
vt 0.621090 0.937994
vt 0.624029 0.932475
vt 0.628466 0.935255
vt 0.616718 0.936216
vt 0.620083 0.929893
vt 0.619289 0.943982
vt 0.624537 0.944953
vt 0.614655 0.943076
vt 0.672107 0.917303
vt 0.672052 0.912513
vt 0.641104 0.950208
vt 0.641211 0.947209
vt 0.645245 0.947381
vt 0.636355 0.946785
vt 0.637048 0.943470
vt 0.641529 0.944170
vt 0.645300 0.944366
vt 0.645355 0.959444
vt 0.642055 0.959364
vt 0.641525 0.956247
vt 0.644762 0.963654
vt 0.641649 0.963005
vt 0.638744 0.962719
vt 0.638221 0.960048
vt 0.645361 0.940974
vt 0.648528 0.940892
vt 0.648589 0.944433
vt 0.648084 0.936354
vt 0.656108 0.940811
vt 0.656131 0.944428
vt 0.639151 0.967619
vt 0.642846 0.969138
vt 0.635964 0.965375
vt 0.646893 0.970084
vt 0.655376 0.970620
vt 0.648075 0.964066
vt 0.655904 0.964311
vt 0.633444 0.938158
vt 0.631611 0.941887
vt 0.638226 0.940367
vt 0.646904 0.930335
vt 0.648522 0.959527
vt 0.656101 0.959611
vt 0.642060 0.941052
vt 0.641209 0.953208
vt 0.648611 0.947452
vt 0.656139 0.947465
vt 0.633438 0.962255
vt 0.630509 0.945960
vt 0.672668 0.956019
vt 0.672672 0.952969
vt 0.672674 0.950217
vt 0.672671 0.944415
vt 0.672665 0.940765
vt 0.672594 0.964437
vt 0.672661 0.959669
vt 0.672673 0.947466
vt 0.672406 0.970855
vt 0.000500 0.478871
vt 0.103574 0.478871
vt 0.103574 0.565106
vt 0.000500 0.565106
vt 0.217680 0.478871
vt 0.217680 0.561362
vt 0.146817 0.561362
vt 0.146817 0.478871
vt 0.602446 0.298407
vt 0.602439 0.333729
vt 0.040640 0.333726
vt 0.040635 0.298405
vt 0.602430 0.374801
vt 0.602423 0.411046
vt 0.040653 0.411041
vt 0.040647 0.374798
vt 0.602413 0.445751
vt 0.602436 0.476745
vt 0.040665 0.476738
vt 0.040659 0.445744
vt 0.040630 0.263825
vt 0.602453 0.263827
vt 0.702301 0.650677
vt 0.751878 0.650691
vt 0.751789 0.700002
vt 0.702216 0.699994
vt 0.801409 0.650706
vt 0.851192 0.650682
vt 0.851120 0.700003
vt 0.801304 0.700023
vt 0.702287 0.749298
vt 0.751816 0.749316
vt 0.751836 0.798640
vt 0.702337 0.798628
vt 0.801273 0.749331
vt 0.851116 0.749319
vt 0.851122 0.798649
vt 0.801240 0.798660
vt 0.702396 0.601339
vt 0.751976 0.601359
vt 0.801511 0.601372
vt 0.851252 0.601353
vt 0.901022 0.650664
vt 0.901001 0.699984
vt 0.901039 0.749303
vt 0.901091 0.798629
vt 0.901035 0.601337
s 1
f 318/1/1 26/2/2 319/3/3 158/4/4
f 27/5/5 320/6/6 158/4/4 319/3/3
f 321/7/7 28/8/8 322/9/9 159/10/10
f 26/2/2 318/1/1 159/10/10 322/9/9
f 323/11/11 29/12/12 324/13/13 160/14/14
f 28/8/8 321/7/7 160/14/14 324/13/13
f 325/15/15 30/16/16 326/17/17 161/18/18
f 29/12/12 323/11/11 161/18/18 326/17/17
f 327/19/19 31/20/20 328/21/21 162/22/22
f 325/15/15 162/22/22 328/21/21 30/16/16
f 329/23/23 32/24/24 330/25/25 163/26/26
f 31/20/20 327/19/19 163/26/26 330/25/25
f 331/27/27 33/28/28 332/29/29 164/30/30
f 32/24/24 329/23/23 164/30/30 332/29/29
f 333/31/31 34/32/32 334/33/33 165/34/34
f 33/28/28 331/27/27 165/34/34 334/33/33
f 35/35/35 336/36/36 166/37/37 335/38/38
f 336/36/36 34/32/32 333/31/31 166/37/37
f 36/39/39 338/40/40 167/41/41 337/42/42
f 338/40/40 35/35/35 335/38/38 167/41/41
f 37/43/43 340/44/44 168/45/45 339/46/46
f 340/44/44 36/39/39 337/42/42 168/45/45
f 342/47/47 169/48/48 341/49/49 38/50/50
f 342/47/47 37/43/43 339/46/46 169/48/48
f 39/51/51 344/52/52 170/53/53 343/54/54
f 344/52/52 38/50/50 341/49/49 170/53/53
f 40/55/55 346/56/56 171/57/57 345/58/58
f 346/56/56 39/51/51 343/54/54 171/57/57
f 41/59/59 348/60/60 172/61/61 347/62/62
f 348/60/60 40/55/55 345/58/58 172/61/61
f 27/5/5 349/63/63 173/64/64 320/6/6
f 349/63/63 41/59/59 347/62/62 173/64/64
f 2/65/65 350/66/66 174/67/67 353/68/68
f 350/66/66 3/69/69 351/70/70 174/67/67
f 4/71/71 352/72/72 174/67/67 351/70/70
f 352/72/72 1/73/73 353/68/68 174/67/67
f 3/69/69 354/74/74 175/75/75 351/70/70
f 354/74/74 5/76/76 355/77/77 175/75/75
f 6/78/78 356/79/79 175/75/75 355/77/77
f 356/79/79 4/71/71 351/70/70 175/75/75
f 5/76/76 357/80/80 176/81/81 355/77/77
f 357/80/80 7/82/82 358/83/83 176/81/81
f 8/84/84 359/85/85 176/81/81 358/83/83
f 6/78/78 355/77/77 176/81/81 359/85/85
f 7/82/82 360/86/86 177/87/87 358/83/83
f 360/86/86 9/88/88 361/89/89 177/87/87
f 10/90/90 362/91/91 177/87/87 361/89/89
f 362/91/91 8/84/84 358/83/83 177/87/87
f 1/73/73 352/72/72 178/92/92 365/93/93
f 352/72/72 4/71/71 363/94/94 178/92/92
f 12/95/95 364/96/96 178/92/92 363/94/94
f 364/96/96 11/97/97 365/93/93 178/92/92
f 4/71/71 356/79/79 179/98/98 363/94/94
f 356/79/79 6/78/78 366/99/99 179/98/98
f 13/100/100 367/101/101 179/98/98 366/99/99
f 367/101/101 12/95/95 363/94/94 179/98/98
f 359/85/85 180/102/102 366/99/99 6/78/78
f 359/85/85 8/84/84 368/103/103 180/102/102
f 14/104/104 369/105/105 180/102/102 368/103/103
f 13/100/100 366/99/99 180/102/102 369/105/105
f 8/84/84 362/91/91 181/106/106 368/103/103
f 362/91/91 10/90/90 370/107/107 181/106/106
f 15/108/108 371/109/109 181/106/106 370/107/107
f 371/109/109 14/104/104 368/103/103 181/106/106
f 11/97/97 364/96/96 182/110/110 374/111/111
f 364/96/96 12/95/95 372/112/112 182/110/110
f 17/113/113 373/114/114 182/110/110 372/112/112
f 373/114/114 16/115/115 374/111/111 182/110/110
f 12/95/95 367/101/101 183/116/116 372/112/112
f 367/101/101 13/100/100 375/117/117 183/116/116
f 18/118/118 376/119/119 183/116/116 375/117/117
f 376/119/119 17/113/113 372/112/112 183/116/116
f 13/100/100 369/105/105 184/120/120 375/117/117
f 369/105/105 14/104/104 377/121/121 184/120/120
f 19/122/122 378/123/123 184/120/120 377/121/121
f 378/123/123 18/118/118 375/117/117 184/120/120
f 14/104/104 371/109/109 185/124/124 377/121/121
f 371/109/109 15/108/108 379/125/125 185/124/124
f 20/126/126 380/127/127 185/124/124 379/125/125
f 380/127/127 19/122/122 377/121/121 185/124/124
f 16/115/115 373/114/114 186/128/128 383/129/129
f 373/114/114 17/113/113 381/130/130 186/128/128
f 22/131/131 382/132/132 186/128/128 381/130/130
f 382/132/132 21/133/133 383/129/129 186/128/128
f 17/113/113 376/119/119 187/134/134 381/130/130
f 376/119/119 18/118/118 384/135/135 187/134/134
f 23/136/136 385/137/137 187/134/134 384/135/135
f 385/137/137 22/131/131 381/130/130 187/134/134
f 18/118/118 378/123/123 188/138/138 384/135/135
f 378/123/123 19/122/122 386/139/139 188/138/138
f 24/140/140 387/141/141 188/138/138 386/139/139
f 387/141/141 23/136/136 384/135/135 188/138/138
f 19/122/122 380/127/127 189/142/142 386/139/139
f 380/127/127 20/126/126 388/143/143 189/142/142
f 25/144/144 389/145/145 189/142/142 388/143/143
f 389/145/145 24/140/140 386/139/139 189/142/142
f 26/2/2 390/146/146 190/147/147 319/3/3
f 390/146/146 20/126/126 379/125/125 190/147/147
f 15/108/108 391/148/148 190/147/147 379/125/125
f 391/148/148 27/5/5 319/3/3 190/147/147
f 25/144/144 388/143/143 191/149/149 392/150/150
f 388/143/143 20/126/126 390/146/146 191/149/149
f 26/2/2 322/9/9 191/149/149 390/146/146
f 322/9/9 28/8/8 392/150/150 191/149/149
f 29/12/12 393/151/151 192/152/152 324/13/13
f 393/151/151 24/140/140 389/145/145 192/152/152
f 25/144/144 392/150/150 192/152/152 389/145/145
f 392/150/150 28/8/8 324/13/13 192/152/152
f 30/16/16 394/153/153 193/154/154 326/17/17
f 394/153/153 23/136/136 387/141/141 193/154/154
f 24/140/140 393/151/151 193/154/154 387/141/141
f 393/151/151 29/12/12 326/17/17 193/154/154
f 31/20/20 395/155/155 194/156/156 328/21/21
f 395/155/155 22/131/131 385/137/137 194/156/156
f 23/136/136 394/153/153 194/156/156 385/137/137
f 394/153/153 30/16/16 328/21/21 194/156/156
f 21/133/133 382/132/132 195/157/157 396/158/158
f 382/132/132 22/131/131 395/155/155 195/157/157
f 31/20/20 330/25/25 195/157/157 395/155/155
f 330/25/25 32/24/24 396/158/158 195/157/157
f 33/28/28 397/159/159 196/160/160 332/29/29
f 397/159/159 16/115/115 383/129/129 196/160/160
f 21/133/133 396/158/158 196/160/160 383/129/129
f 396/158/158 32/24/24 332/29/29 196/160/160
f 34/32/32 398/161/161 197/162/162 334/33/33
f 398/161/161 11/97/97 374/111/111 197/162/162
f 16/115/115 397/159/159 197/162/162 374/111/111
f 397/159/159 33/28/28 334/33/33 197/162/162
f 1/73/73 365/93/93 198/163/163 399/164/164
f 365/93/93 11/97/97 398/161/161 198/163/163
f 34/32/32 336/36/36 198/163/163 398/161/161
f 336/36/36 35/35/35 399/164/164 198/163/163
f 2/65/65 353/68/68 199/165/165 400/166/166
f 353/68/68 1/73/73 399/164/164 199/165/165
f 35/35/35 338/40/40 199/165/165 399/164/164
f 338/40/40 36/39/39 400/166/166 199/165/165
f 37/43/43 401/167/167 200/168/168 340/44/44
f 401/167/167 3/69/69 350/66/66 200/168/168
f 2/65/65 400/166/166 200/168/168 350/66/66
f 400/166/166 36/39/39 340/44/44 200/168/168
f 5/76/76 354/74/74 201/169/169 402/170/170
f 354/74/74 3/69/69 401/167/167 201/169/169
f 37/43/43 342/47/47 201/169/169 401/167/167
f 342/47/47 38/50/50 402/170/170 201/169/169
f 7/82/82 357/80/80 202/171/171 403/172/172
f 5/76/76 402/170/170 202/171/171 357/80/80
f 38/50/50 344/52/52 202/171/171 402/170/170
f 344/52/52 39/51/51 403/172/172 202/171/171
f 9/88/88 360/86/86 203/173/173 404/174/174
f 360/86/86 7/82/82 403/172/172 203/173/173
f 39/51/51 346/56/56 203/173/173 403/172/172
f 346/56/56 40/55/55 404/174/174 203/173/173
f 41/59/59 405/175/175 204/176/176 348/60/60
f 405/175/175 10/90/90 361/89/89 204/176/176
f 9/88/88 404/174/174 204/176/176 361/89/89
f 404/174/174 40/55/55 348/60/60 204/176/176
f 15/108/108 370/107/107 205/177/177 391/148/148
f 370/107/107 10/90/90 405/175/175 205/177/177
f 41/59/59 349/63/63 205/177/177 405/175/175
f 349/63/63 27/5/5 391/148/148 205/177/177
f 406/178/1 42/179/2 407/180/3 206/181/4
f 43/182/5 408/183/178 206/181/4 407/180/3
f 409/184/7 44/185/8 410/186/9 207/187/10
f 42/179/2 406/178/1 207/187/10 410/186/9
f 411/188/11 45/189/12 412/190/13 208/191/14
f 44/185/8 409/184/7 208/191/14 412/190/13
f 413/192/15 46/193/16 414/194/17 209/195/18
f 45/189/12 411/188/11 209/195/18 414/194/17
f 415/196/179 47/197/20 416/198/180 210/199/22
f 46/193/16 413/192/15 210/199/22 416/198/180
f 417/200/23 48/201/24 418/202/25 211/203/26
f 47/197/20 415/196/179 211/203/26 418/202/25
f 419/204/27 49/205/28 420/206/29 212/207/181
f 48/201/24 417/200/23 212/207/181 420/206/29
f 421/208/31 50/209/32 422/210/33 213/211/34
f 49/205/28 419/204/27 213/211/34 422/210/33
f 51/212/35 424/213/36 214/214/37 423/215/38
f 424/213/36 50/209/32 421/208/31 214/214/37
f 52/216/39 426/217/40 215/218/41 425/219/42
f 426/217/40 51/212/35 423/215/38 215/218/41
f 53/220/43 428/221/44 216/222/45 427/223/46
f 428/221/44 52/216/39 425/219/42 216/222/45
f 54/224/50 430/225/47 217/226/48 429/227/49
f 430/225/47 53/220/43 427/223/46 217/226/48
f 55/228/51 432/229/182 218/230/53 431/231/54
f 432/229/182 54/224/50 429/227/49 218/230/53
f 56/232/183 434/233/56 219/234/57 433/235/58
f 434/233/56 55/228/51 431/231/54 219/234/57
f 57/236/184 436/237/60 220/238/61 435/239/62
f 436/237/60 56/232/183 433/235/58 220/238/61
f 43/182/5 437/240/63 221/241/64 408/183/178
f 437/240/63 57/236/184 435/239/62 221/241/64
f 59/242/65 438/243/66 222/244/67 441/245/68
f 438/243/66 60/246/69 439/247/70 222/244/67
f 61/248/71 440/249/72 222/244/67 439/247/70
f 440/249/72 58/250/73 441/245/68 222/244/67
f 60/246/69 442/251/74 223/252/75 439/247/70
f 442/251/74 62/253/76 443/254/77 223/252/75
f 63/255/78 444/256/79 223/252/75 443/254/77
f 444/256/79 61/248/71 439/247/70 223/252/75
f 62/253/76 445/257/80 224/258/81 443/254/77
f 445/257/80 64/259/82 446/260/83 224/258/81
f 65/261/84 447/262/85 224/258/81 446/260/83
f 447/262/85 63/255/78 443/254/77 224/258/81
f 64/259/82 448/263/86 225/264/87 446/260/83
f 448/263/86 66/265/88 449/266/185 225/264/87
f 67/267/90 450/268/91 225/264/87 449/266/185
f 450/268/91 65/261/84 446/260/83 225/264/87
f 58/250/73 440/249/72 226/269/92 453/270/93
f 440/249/72 61/248/71 451/271/94 226/269/92
f 69/272/95 452/273/96 226/269/92 451/271/94
f 452/273/96 68/274/186 453/270/93 226/269/92
f 61/248/71 444/256/79 227/275/98 451/271/94
f 444/256/79 63/255/78 454/276/99 227/275/98
f 70/277/100 455/278/101 227/275/98 454/276/99
f 455/278/101 69/272/95 451/271/94 227/275/98
f 63/255/78 447/262/85 228/279/102 454/276/99
f 447/262/85 65/261/84 456/280/103 228/279/102
f 71/281/104 457/282/105 228/279/102 456/280/103
f 457/282/105 70/277/100 454/276/99 228/279/102
f 65/261/84 450/268/91 229/283/106 456/280/103
f 450/268/91 67/267/90 458/284/107 229/283/106
f 72/285/108 459/286/109 229/283/106 458/284/107
f 459/286/109 71/281/104 456/280/103 229/283/106
f 68/274/186 452/273/96 230/287/110 462/288/111
f 452/273/96 69/272/95 460/289/112 230/287/110
f 74/290/113 461/291/114 230/287/110 460/289/112
f 461/291/114 73/292/115 462/288/111 230/287/110
f 69/272/95 455/278/101 231/293/116 460/289/112
f 455/278/101 70/277/100 463/294/117 231/293/116
f 75/295/118 464/296/187 231/293/116 463/294/117
f 464/296/187 74/290/113 460/289/112 231/293/116
f 70/277/100 457/282/105 232/297/120 463/294/117
f 457/282/105 71/281/104 465/298/121 232/297/120
f 76/299/122 466/300/123 232/297/120 465/298/121
f 466/300/123 75/295/118 463/294/117 232/297/120
f 71/281/104 459/286/109 233/301/124 465/298/121
f 459/286/109 72/285/108 467/302/125 233/301/124
f 77/303/126 468/304/127 233/301/124 467/302/125
f 468/304/127 76/299/122 465/298/121 233/301/124
f 73/292/115 461/291/114 234/305/128 471/306/129
f 461/291/114 74/290/113 469/307/130 234/305/128
f 79/308/131 470/309/132 234/305/128 469/307/130
f 470/309/132 78/310/133 471/306/129 234/305/128
f 74/290/113 464/296/187 235/311/134 469/307/130
f 464/296/187 75/295/118 472/312/188 235/311/134
f 80/313/136 473/314/189 235/311/134 472/312/188
f 473/314/189 79/308/131 469/307/130 235/311/134
f 75/295/118 466/300/123 236/315/138 472/312/188
f 466/300/123 76/299/122 474/316/190 236/315/138
f 81/317/140 475/318/141 236/315/138 474/316/190
f 475/318/141 80/313/136 472/312/188 236/315/138
f 76/299/122 468/304/127 237/319/142 474/316/190
f 468/304/127 77/303/126 476/320/143 237/319/142
f 82/321/144 477/322/145 237/319/142 476/320/143
f 477/322/145 81/317/140 474/316/190 237/319/142
f 42/179/2 478/323/191 238/324/147 407/180/3
f 478/323/191 77/303/126 467/302/125 238/324/147
f 72/285/108 479/325/148 238/324/147 467/302/125
f 479/325/148 43/182/5 407/180/3 238/324/147
f 82/321/144 476/320/143 239/326/149 480/327/150
f 476/320/143 77/303/126 478/323/191 239/326/149
f 42/179/2 410/186/9 239/326/149 478/323/191
f 410/186/9 44/185/8 480/327/150 239/326/149
f 45/189/12 481/328/151 240/329/152 412/190/13
f 481/328/151 81/317/140 477/322/145 240/329/152
f 82/321/144 480/327/150 240/329/152 477/322/145
f 480/327/150 44/185/8 412/190/13 240/329/152
f 46/193/16 482/330/153 241/331/154 414/194/17
f 482/330/153 80/313/136 475/318/141 241/331/154
f 81/317/140 481/328/151 241/331/154 475/318/141
f 481/328/151 45/189/12 414/194/17 241/331/154
f 47/197/20 483/332/155 242/333/156 416/198/180
f 483/332/155 79/308/131 473/314/189 242/333/156
f 80/313/136 482/330/153 242/333/156 473/314/189
f 482/330/153 46/193/16 416/198/180 242/333/156
f 78/310/133 470/309/132 243/334/157 484/335/158
f 470/309/132 79/308/131 483/332/155 243/334/157
f 47/197/20 418/202/25 243/334/157 483/332/155
f 418/202/25 48/201/24 484/335/158 243/334/157
f 49/205/28 485/336/159 244/337/160 420/206/29
f 485/336/159 73/292/115 471/306/129 244/337/160
f 78/310/133 484/335/158 244/337/160 471/306/129
f 484/335/158 48/201/24 420/206/29 244/337/160
f 50/209/32 486/338/161 245/339/162 422/210/33
f 486/338/161 68/274/186 462/288/111 245/339/162
f 73/292/115 485/336/159 245/339/162 462/288/111
f 485/336/159 49/205/28 422/210/33 245/339/162
f 58/250/73 453/270/93 246/340/192 487/341/164
f 453/270/93 68/274/186 486/338/161 246/340/192
f 50/209/32 424/213/36 246/340/192 486/338/161
f 424/213/36 51/212/35 487/341/164 246/340/192
f 59/242/65 441/245/68 247/342/165 488/343/166
f 441/245/68 58/250/73 487/341/164 247/342/165
f 51/212/35 426/217/40 247/342/165 487/341/164
f 426/217/40 52/216/39 488/343/166 247/342/165
f 53/220/43 489/344/167 248/345/168 428/221/44
f 489/344/167 60/246/69 438/243/66 248/345/168
f 59/242/65 488/343/166 248/345/168 438/243/66
f 488/343/166 52/216/39 428/221/44 248/345/168
f 62/253/76 442/251/74 249/346/169 490/347/170
f 442/251/74 60/246/69 489/344/167 249/346/169
f 53/220/43 430/225/47 249/346/169 489/344/167
f 430/225/47 54/224/50 490/347/170 249/346/169
f 64/259/82 445/257/80 250/348/171 491/349/193
f 445/257/80 62/253/76 490/347/170 250/348/171
f 54/224/50 432/229/182 250/348/171 490/347/170
f 432/229/182 55/228/51 491/349/193 250/348/171
f 66/265/88 448/263/86 251/350/173 492/351/174
f 448/263/86 64/259/82 491/349/193 251/350/173
f 55/228/51 434/233/56 251/350/173 491/349/193
f 434/233/56 56/232/183 492/351/174 251/350/173
f 57/236/184 493/352/175 252/353/176 436/237/60
f 493/352/175 67/267/90 449/266/185 252/353/176
f 66/265/88 492/351/174 252/353/176 449/266/185
f 492/351/174 56/232/183 436/237/60 252/353/176
f 72/285/108 458/284/107 253/354/177 479/325/148
f 458/284/107 67/267/90 493/352/175 253/354/177
f 57/236/184 437/240/63 253/354/177 493/352/175
f 437/240/63 43/182/5 479/325/148 253/354/177
f 105/355/194 502/356/195 254/357/196 505/358/197
f 502/356/195 84/359/198 503/360/199 254/357/196
f 83/361/200 504/362/201 254/357/196 503/360/199
f 504/362/201 114/363/202 505/358/197 254/357/196
f 109/364/203 506/365/204 255/366/205 509/367/206
f 506/365/204 108/368/207 507/369/208 255/366/205
f 88/370/209 508/371/210 255/366/205 507/369/208
f 508/371/210 90/372/211 509/367/206 255/366/205
f 101/373/212 510/374/213 256/375/214 513/376/215
f 510/374/213 103/377/216 511/378/217 256/375/214
f 102/379/218 512/380/219 256/375/214 511/378/217
f 512/380/219 87/381/220 513/376/215 256/375/214
f 112/382/221 514/383/222 257/384/223 517/385/224
f 514/383/222 118/386/225 515/387/226 257/384/223
f 115/388/227 516/389/227 257/384/223 515/387/226
f 516/389/227 92/390/228 517/385/224 257/384/223
f 117/391/229 518/392/230 258/393/231 521/394/232
f 518/392/230 144/395/233 519/396/234 258/393/231
f 145/397/235 520/398/236 258/393/231 519/396/234
f 520/398/236 89/399/237 521/394/232 258/393/231
f 83/361/200 503/360/199 259/400/238 524/401/239
f 503/360/199 84/359/198 523/402/240 259/400/238
f 97/403/241 494/404/242 259/400/238 523/402/240
f 494/404/242 98/405/243 524/401/239 259/400/238
f 85/406/244 525/407/245 260/408/246 526/409/247
f 525/407/245 83/361/200 524/401/239 260/408/246
f 98/405/243 495/410/248 260/408/246 524/401/239
f 495/410/248 99/411/249 526/409/247 260/408/246
f 86/412/250 527/413/251 261/414/252 528/415/253
f 527/413/251 85/406/244 526/409/247 261/414/252
f 99/411/249 496/416/254 261/414/252 526/409/247
f 496/416/254 100/417/255 528/415/253 261/414/252
f 87/381/220 529/418/256 262/419/257 513/376/215
f 529/418/256 86/412/250 528/415/253 262/419/257
f 100/417/255 497/420/258 262/419/257 528/415/253
f 497/420/258 101/373/212 513/376/215 262/419/257
f 88/370/209 530/421/259 263/422/260 532/423/261
f 530/421/259 89/399/237 531/424/262 263/422/260
f 93/425/263 498/426/264 263/422/260 531/424/262
f 498/426/264 94/427/265 532/423/261 263/422/260
f 90/372/211 508/371/210 264/428/266 533/429/267
f 508/371/210 88/370/209 532/423/261 264/428/266
f 94/427/265 499/430/268 264/428/266 532/423/261
f 499/430/268 95/431/269 533/429/267 264/428/266
f 91/432/270 534/433/271 265/434/272 535/435/273
f 534/433/271 90/372/211 533/429/267 265/434/272
f 95/431/269 500/436/274 265/434/272 533/429/267
f 500/436/274 96/437/275 535/435/273 265/434/272
f 84/359/198 536/438/276 266/439/277 523/402/240
f 536/438/276 91/432/270 535/435/273 266/439/277
f 96/437/275 501/440/278 266/439/277 535/435/273
f 501/440/278 97/403/241 523/402/240 266/439/277
f 89/399/237 520/398/236 267/441/279 531/424/262
f 520/398/236 145/397/235 537/442/280 267/441/279
f 104/443/281 522/444/282 267/441/279 537/442/280
f 522/444/282 93/425/263 531/424/262 267/441/279
f 92/390/228 538/445/283 268/446/284 541/447/285
f 538/445/283 110/448/225 539/449/286 268/446/284
f 111/450/287 540/451/288 268/446/284 539/449/286
f 540/451/288 105/355/194 541/447/285 268/446/284
f 112/382/221 542/452/289 269/453/290 545/454/291
f 542/452/289 114/363/202 543/455/292 269/453/290
f 107/456/293 544/457/294 269/453/290 543/455/292
f 544/457/294 106/458/295 545/454/291 269/453/290
f 110/448/225 546/459/296 270/460/297 549/461/298
f 546/459/296 119/462/299 547/463/300 270/460/297
f 117/391/229 548/464/301 270/460/297 547/463/300
f 548/464/301 108/368/207 549/461/298 270/460/297
f 86/412/250 550/465/302 271/466/303 527/413/251
f 550/465/302 106/458/295 544/457/294 271/466/303
f 107/456/293 551/467/304 271/466/303 544/457/294
f 551/467/304 85/406/244 527/413/251 271/466/303
f 87/381/220 552/468/305 272/469/306 529/418/256
f 552/468/305 116/470/307 553/471/308 272/469/306
f 106/458/295 550/465/302 272/469/306 553/471/308
f 550/465/302 86/412/250 529/418/256 272/469/306
f 91/432/270 554/472/309 273/473/310 534/433/271
f 554/472/309 111/450/287 555/474/311 273/473/310
f 109/364/203 509/367/206 273/473/310 555/474/311
f 509/367/206 90/372/211 534/433/271 273/473/310
f 108/368/207 548/464/301 274/475/312 507/369/208
f 548/464/301 117/391/229 521/394/232 274/475/312
f 89/399/237 530/421/259 274/475/312 521/394/232
f 530/421/259 88/370/209 507/369/208 274/475/312
f 106/458/295 553/471/308 275/476/313 545/454/291
f 553/471/308 116/470/307 556/477/314 275/476/313
f 118/386/225 514/383/222 275/476/313 556/477/314
f 514/383/222 112/382/221 545/454/291 275/476/313
f 110/448/225 549/461/298 276/478/315 539/449/286
f 549/461/298 108/368/207 506/365/204 276/478/315
f 109/364/203 555/474/311 276/478/315 506/365/204
f 555/474/311 111/450/287 539/449/286 276/478/315
f 92/390/228 541/447/285 277/479/316 517/385/224
f 541/447/285 105/355/194 505/358/197 277/479/316
f 114/363/202 542/452/289 277/479/316 505/358/197
f 542/452/289 112/382/221 517/385/224 277/479/316
f 92/390/228 516/389/227 278/480/226 538/445/283
f 516/389/227 115/388/227 557/481/317 278/480/226
f 119/462/299 546/459/296 278/480/226 557/481/317
f 546/459/296 110/448/225 538/445/283 278/480/226
f 83/361/200 525/407/245 279/482/318 504/362/201
f 525/407/245 85/406/244 551/467/304 279/482/318
f 107/456/293 543/455/292 279/482/318 551/467/304
f 543/455/292 114/363/202 504/362/201 279/482/318
f 91/432/270 536/438/276 280/483/319 554/472/309
f 536/438/276 84/359/198 502/356/195 280/483/319
f 105/355/194 540/451/288 280/483/319 502/356/195
f 540/451/288 111/450/287 554/472/309 280/483/319
f 113/484/320 558/485/321 281/486/321 560/487/320
f 558/485/321 155/488/321 559/489/321 281/486/321
f 115/388/227 515/387/226 281/486/321 559/489/321
f 515/387/226 118/386/225 560/487/320 281/486/321
f 156/490/226 561/491/322 282/492/323 562/493/226
f 561/491/322 144/395/233 518/392/230 282/492/323
f 117/391/229 547/463/300 282/492/323 518/392/230
f 547/463/300 119/462/299 562/493/226 282/492/323
f 157/494/324 563/495/325 283/496/326 564/497/327
f 563/495/325 113/484/320 560/487/320 283/496/326
f 118/386/225 556/477/314 283/496/326 560/487/320
f 556/477/314 116/470/307 564/497/327 283/496/326
f 155/488/321 565/498/321 284/499/225 559/489/321
f 565/498/321 156/490/226 562/493/226 284/499/225
f 119/462/299 557/481/317 284/499/225 562/493/226
f 557/481/317 115/388/227 559/489/321 284/499/225
f 87/381/220 512/380/219 285/500/328 552/468/305
f 512/380/219 102/379/218 566/501/329 285/500/328
f 157/494/324 564/497/327 285/500/328 566/501/329
f 564/497/327 116/470/307 552/468/305 285/500/328
f 129/502/330 575/503/331 286/504/332 578/505/333
f 575/503/331 132/506/334 576/507/335 286/504/332
f 131/508/336 577/509/337 286/504/332 576/507/335
f 577/509/337 130/510/338 578/505/333 286/504/332
f 135/511/339 579/512/340 287/513/341 582/514/342
f 579/512/340 134/515/343 580/516/344 287/513/341
f 133/517/345 581/518/346 287/513/341 580/516/344
f 581/518/346 136/519/347 582/514/342 287/513/341
f 124/520/348 583/521/349 288/522/350 585/523/351
f 583/521/349 137/524/352 584/525/353 288/522/350
f 102/379/218 511/378/217 288/522/350 584/525/353
f 511/378/217 103/377/216 585/523/351 288/522/350
f 139/526/354 586/527/355 289/528/356 589/529/356
f 586/527/355 138/530/357 587/531/299 289/528/356
f 141/532/358 588/533/359 289/528/356 587/531/299
f 588/533/359 140/534/360 589/529/356 289/528/356
f 143/535/361 590/536/362 290/537/363 592/538/364
f 590/536/362 142/539/365 591/540/366 290/537/363
f 145/397/235 519/396/234 290/537/363 591/540/366
f 519/396/234 144/395/233 592/538/364 290/537/363
f 131/508/336 594/541/367 291/542/368 577/509/337
f 594/541/367 120/543/369 567/544/370 291/542/368
f 121/545/371 595/546/372 291/542/368 567/544/370
f 595/546/372 130/510/338 577/509/337 291/542/368
f 146/547/373 596/548/374 292/549/375 597/550/376
f 596/548/374 122/551/377 568/552/378 292/549/375
f 120/543/369 594/541/367 292/549/375 568/552/378
f 594/541/367 131/508/336 597/550/376 292/549/375
f 147/553/379 598/554/380 293/555/381 599/556/382
f 598/554/380 123/557/383 569/558/384 293/555/381
f 122/551/377 596/548/374 293/555/381 569/558/384
f 596/548/374 146/547/373 599/556/382 293/555/381
f 137/524/352 583/521/349 294/559/385 600/560/386
f 583/521/349 124/520/348 570/561/387 294/559/385
f 123/557/383 598/554/380 294/559/385 570/561/387
f 598/554/380 147/553/379 600/560/386 294/559/385
f 133/517/345 601/562/388 295/563/389 603/564/390
f 601/562/388 125/565/391 571/566/392 295/563/389
f 126/567/393 602/568/394 295/563/389 571/566/392
f 602/568/394 142/539/365 603/564/390 295/563/389
f 134/515/343 604/569/395 296/570/396 580/516/344
f 604/569/395 127/571/397 572/572/398 296/570/396
f 125/565/391 601/562/388 296/570/396 572/572/398
f 601/562/388 133/517/345 580/516/344 296/570/396
f 148/573/399 605/574/400 297/575/401 606/576/402
f 605/574/400 128/577/403 573/578/404 297/575/401
f 127/571/397 604/569/395 297/575/401 573/578/404
f 604/569/395 134/515/343 606/576/402 297/575/401
f 130/510/338 595/546/372 298/579/405 607/580/406
f 595/546/372 121/545/371 574/581/407 298/579/405
f 128/577/403 605/574/400 298/579/405 574/581/407
f 605/574/400 148/573/399 607/580/406 298/579/405
f 142/539/365 602/568/394 299/582/408 591/540/366
f 602/568/394 126/567/393 593/583/409 299/582/408
f 104/443/281 537/442/280 299/582/408 593/583/409
f 537/442/280 145/397/235 591/540/366 299/582/408
f 138/530/357 608/584/410 300/585/411 611/586/225
f 608/584/410 129/502/330 609/587/412 300/585/411
f 150/588/413 610/589/414 300/585/411 609/587/412
f 610/589/414 149/590/415 611/586/225 300/585/411
f 139/526/354 612/591/416 301/592/417 615/593/418
f 612/591/416 151/594/419 613/595/420 301/592/417
f 152/596/421 614/597/422 301/592/417 613/595/420
f 614/597/422 132/506/334 615/593/418 301/592/417
f 149/590/415 616/598/423 302/599/424 619/600/425
f 616/598/423 136/519/347 617/601/426 302/599/424
f 143/535/361 618/602/427 302/599/424 617/601/426
f 618/602/427 153/603/428 619/600/425 302/599/424
f 147/553/379 599/556/382 303/604/429 621/605/430
f 599/556/382 146/547/373 620/606/431 303/604/429
f 152/596/421 613/595/420 303/604/429 620/606/431
f 613/595/420 151/594/419 621/605/430 303/604/429
f 137/524/352 600/560/386 304/607/432 623/608/433
f 600/560/386 147/553/379 621/605/430 304/607/432
f 151/594/419 622/609/434 304/607/432 621/605/430
f 622/609/434 154/610/435 623/608/433 304/607/432
f 148/573/399 606/576/402 305/611/436 625/612/437
f 606/576/402 134/515/343 579/512/340 305/611/436
f 135/511/339 624/613/438 305/611/436 579/512/340
f 624/613/438 150/588/413 625/612/437 305/611/436
f 136/519/347 581/518/346 306/614/439 617/601/426
f 581/518/346 133/517/345 603/564/390 306/614/439
f 142/539/365 590/536/362 306/614/439 603/564/390
f 590/536/362 143/535/361 617/601/426 306/614/439
f 151/594/419 612/591/416 307/615/440 622/609/434
f 612/591/416 139/526/354 589/529/356 307/615/440
f 140/534/360 626/616/441 307/615/440 589/529/356
f 626/616/441 154/610/435 622/609/434 307/615/440
f 149/590/415 610/589/414 308/617/442 616/598/423
f 610/589/414 150/588/413 624/613/438 308/617/442
f 135/511/339 582/514/342 308/617/442 624/613/438
f 582/514/342 136/519/347 616/598/423 308/617/442
f 138/530/357 586/527/355 309/618/443 608/584/410
f 586/527/355 139/526/354 615/593/418 309/618/443
f 132/506/334 575/503/331 309/618/443 615/593/418
f 575/503/331 129/502/330 608/584/410 309/618/443
f 138/530/357 611/586/225 310/619/299 587/531/299
f 611/586/225 149/590/415 619/600/425 310/619/299
f 153/603/428 627/620/444 310/619/299 619/600/425
f 627/620/444 141/532/358 587/531/299 310/619/299
f 131/508/336 576/507/335 311/621/445 597/550/376
f 576/507/335 132/506/334 614/597/422 311/621/445
f 152/596/421 620/606/431 311/621/445 614/597/422
f 620/606/431 146/547/373 597/550/376 311/621/445
f 148/573/399 625/612/437 312/622/446 607/580/406
f 625/612/437 150/588/413 609/587/412 312/622/446
f 129/502/330 578/505/333 312/622/446 609/587/412
f 578/505/333 130/510/338 607/580/406 312/622/446
f 113/484/320 628/623/225 313/624/321 558/485/321
f 628/623/225 140/534/360 588/533/359 313/624/321
f 141/532/358 629/625/321 313/624/321 588/533/359
f 629/625/321 155/488/321 558/485/321 313/624/321
f 156/490/226 630/626/226 314/627/447 561/491/322
f 630/626/226 153/603/428 618/602/427 314/627/447
f 143/535/361 592/538/364 314/627/447 618/602/427
f 592/538/364 144/395/233 561/491/322 314/627/447
f 157/494/324 631/628/448 315/629/325 563/495/325
f 631/628/448 154/610/435 626/616/441 315/629/325
f 140/534/360 628/623/225 315/629/325 626/616/441
f 628/623/225 113/484/320 563/495/325 315/629/325
f 155/488/321 629/625/321 316/630/321 565/498/321
f 629/625/321 141/532/358 627/620/444 316/630/321
f 153/603/428 630/626/226 316/630/321 627/620/444
f 630/626/226 156/490/226 565/498/321 316/630/321
f 137/524/352 623/608/433 317/631/449 584/525/353
f 623/608/433 154/610/435 631/628/448 317/631/449
f 157/494/324 566/501/329 317/631/449 631/628/448
f 566/501/329 102/379/218 584/525/353 317/631/449
f 635/632/450 636/633/450 637/634/450 634/635/450
f 632/636/451 633/637/451 639/638/451 638/639/451
f 653/640/452 650/641/453 646/642/453 642/643/452
f 652/644/454 647/645/455 643/646/455 641/647/454
f 650/641/453 652/644/454 641/647/454 646/642/453
f 648/648/454 649/649/456 645/650/456 644/651/454
f 642/643/452 640/652/457 651/653/457 653/640/452
f 644/651/454 643/646/455 647/645/455 648/648/454
f 666/654/458 677/655/459 669/656/460 657/657/461
f 667/658/462 678/659/463 671/660/464 658/661/465
f 663/662/466 675/663/467 673/664/468 660/665/469
f 664/666/470 676/667/471 674/668/472 661/669/473
f 657/657/461 669/656/460 675/663/467 663/662/466
f 658/661/465 671/660/464 676/667/471 664/666/470
f 654/670/474 670/671/475 677/655/459 666/654/458
f 655/672/476 672/673/477 678/659/463 667/658/462
f 667/658/462 658/661/465 669/656/460 677/655/459
f 668/674/478 659/675/479 671/660/464 678/659/463
f 664/666/470 661/669/473 673/664/468 675/663/467
f 665/676/480 662/677/481 674/668/472 676/667/471
f 658/661/465 664/666/470 675/663/467 669/656/460
f 659/675/479 665/676/480 676/667/471 671/660/464
f 655/672/476 667/658/462 677/655/459 670/671/475
f 656/678/482 668/674/478 678/659/463 672/673/477
