# PadForge: decal shells re-partitioned to their host part
o Decal-Shoulder-Right-Trigger
v 35.728530 -0.194142 47.984264
v 35.452199 -1.470069 47.818682
v 36.057589 -1.574995 47.880537
v 36.322427 -0.295444 48.048853
v 37.632619 2.248318 48.640414
v 37.924604 3.803422 49.109108
v 37.164134 3.927085 49.063994
v 36.861469 2.373425 48.616036
v 38.216924 5.330534 49.620165
v 37.473613 5.460412 49.563370
v 36.911146 5.566386 49.437358
v 36.581704 4.026997 48.954575
v 36.264488 2.475306 48.534154
v 38.770777 7.645199 50.444051
v 39.064900 8.405509 50.710014
v 38.473551 8.669641 50.753250
v 38.088140 7.840991 50.444758
v 39.290712 8.920968 50.894833
v 38.991009 9.286102 50.997726
v 38.670224 9.695688 51.037601
v 38.041947 8.966741 50.740122
v 37.580000 8.030097 50.378135
v 42.226230 -1.235569 47.848618
v 41.988083 -2.557025 47.726086
v 42.847884 -2.694967 47.687038
v 43.093221 -1.365388 47.801389
v 43.645092 -2.822973 47.648324
v 43.895857 -1.485512 47.754927
v 44.467808 1.303417 48.211261
v 44.792437 2.914156 48.639810
v 43.937524 2.996528 48.712133
v 43.627748 1.399738 48.273681
v 45.084217 4.447044 49.131176
v 44.227635 4.523664 49.208878
v 43.303927 4.618653 49.288957
v 43.018067 3.091810 48.786728
v 42.724532 1.504957 48.337600
v 45.744890 4.384144 49.054934
v 45.936515 5.581747 49.499891
v 45.282562 5.645967 49.584820
v 46.223820 4.344569 48.907078
v 46.408517 5.550220 49.341879
v 46.471008 6.580171 49.748546
v 45.999457 6.576640 49.895554
v 45.362410 6.625795 49.969486
v 42.020348 7.243138 50.347834
v 42.889261 7.091126 50.261057
v 43.124323 8.205161 50.661227
v 42.221611 8.378067 50.761259
v 43.747721 6.921391 50.156220
v 43.964123 7.964134 50.520933
v 44.198641 8.895559 50.853520
v 43.357556 9.217138 51.027543
v 42.404955 9.408063 51.137215
v 38.630911 -0.656577 48.026307
v 38.388663 -1.953740 47.869264
v 39.296226 -2.104171 47.838046
v 39.530226 -0.800012 47.987214
v 40.232443 -2.261795 47.802179
v 40.462458 -0.951426 47.942518
v 40.989106 1.740403 48.464081
v 41.298499 3.322193 48.932849
v 40.394244 3.444768 48.997319
v 40.078805 1.876232 48.525362
v 41.592700 4.860812 49.451365
v 40.696101 4.977501 49.518420
v 39.809481 5.091670 49.573517
v 39.504939 3.566887 49.052968
v 39.191635 2.011282 48.580161
v 40.567883 9.268182 51.092512
v 41.452033 9.401564 51.150239
v 41.523234 10.185033 51.449603
v 40.555538 9.993309 51.363288
v 42.542906 10.214320 51.446638
v 42.632320 10.756826 51.550700
v 41.552958 10.726545 51.556109
v 40.500981 10.514492 51.461271
v 44.812435 8.499734 50.670004
v 45.142469 9.063585 50.881765
v 44.462369 9.607673 51.119788
v 45.243689 8.139644 50.525001
v 45.613931 8.370693 50.604298
v 46.054420 8.585632 50.577900
v 45.480964 9.418730 50.909332
v 44.683659 10.080928 51.187544
v 40.296016 7.465992 50.452507
v 40.074677 6.371842 50.041593
v 40.941929 6.248371 49.989036
v 41.144734 7.368524 50.417541
v 41.822595 6.118785 49.916423
v 41.123008 -2.412683 47.764695
v 41.355179 -1.097091 47.896004
v 42.155651 3.202482 48.861458
v 41.857929 1.617599 48.401310
v 42.443679 4.736147 49.372329
v 43.558591 10.005759 51.327414
v 43.704280 10.534965 51.420337
v 37.088399 -0.419824 48.066689
v 36.826515 -1.702998 47.899573
v 37.584440 -1.824584 47.892808
v 37.837376 -0.535000 48.056005
v 38.693254 3.684919 49.097850
v 38.392727 2.131486 48.623464
v 38.989184 5.208495 49.615948
v 44.322686 -2.937627 47.610811
v 44.574359 -1.594942 47.709971
v 44.867934 -3.030392 47.502233
v 45.115707 -1.682325 47.594859
v 45.664185 1.152957 48.024169
v 45.959992 2.790834 48.434785
v 45.462788 2.841921 48.571943
v 45.146135 1.217262 48.152207
v 44.672081 7.699635 50.388901
v 45.298518 7.515975 50.294018
v 44.592080 6.752669 50.055838
v 37.224543 6.902839 49.930258
v 37.769475 6.772594 50.038061
v 38.494864 6.619622 50.074606
v 39.698546 9.710895 51.206983
v 39.821604 9.068158 50.981945
v 39.515593 10.192102 51.284342
v 45.895414 7.521454 50.264827
v 46.368283 7.613355 50.170212
v 42.675239 5.980942 49.832142
v 43.537063 5.849091 49.747354
v 41.319923 8.437855 50.800077
v 40.470683 8.425568 50.791419
v 39.261219 6.491012 50.072691
v 39.505703 7.539120 50.453446
v 44.444741 5.736367 49.666404
v 35.990653 1.102373 48.217482
v 36.588513 1.000372 48.286318
v 37.358151 0.875516 48.303506
v 42.468664 0.095878 48.038742
v 43.351990 -0.021689 47.983578
v 44.171308 -0.130611 47.929547
v 38.901576 0.639666 48.250659
v 39.792598 0.499127 48.202528
v 40.714015 0.354267 48.148586
v 41.597651 0.220535 48.093869
v 38.109564 0.760235 48.287972
v 44.851066 -0.229428 47.877787
v 45.383630 -0.306122 47.756641
v 35.623805 -6.742480 47.597683
v 35.966010 -5.437766 47.659366
v 35.172136 -5.288173 47.657079
v 34.815246 -6.587582 47.600998
v 42.606776 -8.088526 47.523877
v 42.884869 -6.741515 47.545827
v 42.108857 -6.595288 47.563447
v 41.837805 -7.939514 47.535083
v 37.634359 -5.753305 47.642759
v 38.542879 -5.923326 47.629348
v 38.829402 -4.682629 47.676942
v 37.919265 -4.516278 47.694891
v 39.469273 -6.097898 47.614111
v 39.758393 -4.852426 47.656431
v 40.377804 -6.269098 47.598055
v 40.652459 -5.015839 47.634928
v 41.260344 -6.435400 47.581150
v 41.520433 -5.174485 47.612308
v 37.333404 -7.070374 47.585307
v 36.781107 -5.591358 47.653726
v 36.461511 -6.903003 47.592333
v 43.400926 -4.165456 47.591842
v 43.156241 -5.473473 47.564729
v 43.825508 -5.595796 47.541930
v 44.075699 -4.284688 47.561831
v 44.369658 -5.695256 47.446064
v 44.621048 -4.381830 47.459795
v 39.724869 8.370807 50.743512
v 34.405881 -6.499481 47.569304
v 34.240050 -7.044109 47.534725
v 34.686418 -7.137174 47.564602
v 35.503981 -7.293966 47.561376
v 40.901364 -8.333136 47.527573
v 41.747430 -8.496646 47.519616
v 40.990648 -7.775605 47.546356
v 42.513539 -8.644838 47.511532
v 37.232396 -7.625839 47.553575
v 38.145174 -7.801494 47.548263
v 38.243917 -7.245655 47.576873
v 39.073681 -7.980411 47.542042
v 39.171250 -7.424452 47.567359
v 40.001252 -8.159332 47.535105
v 40.094280 -7.602497 47.557152
v 36.352308 -7.456758 47.557800
v 43.173799 -8.772675 47.503709
v 43.268846 -8.216929 47.513178
v 43.718265 -8.878306 47.420419
v 43.813889 -8.322832 47.427556
v 34.097710 -7.348903 47.509028
v 34.611368 -7.449735 47.540217
v 34.021420 -7.503918 47.397925
v 34.611718 -7.615900 47.430507
v 35.410208 -7.767484 47.427586
v 35.435383 -7.607706 47.539509
v 40.822138 -8.802895 47.378941
v 41.668293 -8.965817 47.367900
v 41.694836 -8.813020 47.511137
v 40.848878 -8.649603 47.517462
v 42.424397 -9.111606 47.357580
v 42.460372 -8.961026 47.504595
v 37.173731 -7.941377 47.536059
v 38.088807 -8.117412 47.532729
v 37.143366 -8.097403 47.416753
v 38.059657 -8.272585 47.408878
v 38.990502 -8.450974 47.399743
v 39.018762 -8.296546 47.528392
v 39.920439 -8.629516 47.389648
v 39.947824 -8.475688 47.523259
v 36.289380 -7.771530 47.538235
v 36.257160 -7.928510 47.422989
v 43.055927 -9.233561 47.349064
v 43.120117 -9.088677 47.498121
v 43.570494 -9.333246 47.267324
v 43.664404 -9.194211 47.415851
v 36.557880 -2.991302 47.786779
v 35.781102 -2.858760 47.768964
v 35.168537 -2.751085 47.711409
v 34.905979 -3.965522 47.652929
v 35.502245 -4.074505 47.702006
v 41.750820 -3.883057 47.654166
v 42.371654 -5.329330 47.588548
v 42.606992 -4.029438 47.622985
v 38.154704 -3.258503 47.764613
v 39.067407 -3.414913 47.740689
v 40.002139 -3.577281 47.713130
v 40.889614 -3.732833 47.684259
v 37.333594 -3.120902 47.782658
v 36.286955 -4.217931 47.713063
v 37.082100 -4.363265 47.708801
v 34.673621 -5.194236 47.617554
v 43.550224 -6.866891 47.529003
v 44.094880 -6.969523 47.438218
vn -0.1284 -0.1259 0.9837
vn -0.1147 -0.0815 0.9901
vn -0.0778 -0.0911 0.9928
vn -0.0880 -0.1362 0.9868
vn -0.0478 -0.2529 0.9663
vn -0.0668 -0.2892 0.9549
vn -0.1591 -0.2596 0.9525
vn -0.1253 -0.2291 0.9653
vn -0.0808 -0.3099 0.9473
vn -0.1829 -0.2837 0.9413
vn -0.2460 -0.2641 0.9326
vn -0.2150 -0.2387 0.9470
vn -0.1742 -0.2119 0.9616
vn -0.0751 -0.3172 0.9454
vn -0.0684 -0.3119 0.9477
vn -0.1412 -0.2753 0.9509
vn -0.1625 -0.2926 0.9423
vn -0.0681 -0.3203 0.9449
vn -0.1248 -0.2693 0.9549
vn -0.1686 -0.2221 0.9603
vn -0.1976 -0.2429 0.9497
vn -0.2273 -0.2723 0.9350
vn 0.0351 -0.1231 0.9918
vn 0.0320 -0.0790 0.9964
vn 0.0352 -0.0733 0.9967
vn 0.0383 -0.1172 0.9924
vn 0.0407 -0.0683 0.9968
vn 0.0444 -0.1123 0.9927
vn 0.0511 -0.2348 0.9707
vn 0.0581 -0.2910 0.9550
vn 0.0477 -0.2950 0.9543
vn 0.0432 -0.2402 0.9698
vn 0.0640 -0.3381 0.9389
vn 0.0484 -0.3382 0.9398
vn 0.0431 -0.3377 0.9403
vn 0.0434 -0.2994 0.9531
vn 0.0397 -0.2465 0.9683
vn 0.1632 -0.3435 0.9249
vn 0.1775 -0.3689 0.9124
vn 0.0654 -0.3649 0.9287
vn 0.2479 -0.3459 0.9049
vn 0.2667 -0.3682 0.8907
vn 0.2702 -0.3530 0.8958
vn 0.1775 -0.3569 0.9171
vn 0.0609 -0.3561 0.9324
vn 0.0278 -0.3535 0.9350
vn 0.0394 -0.3545 0.9342
vn 0.0458 -0.3471 0.9367
vn 0.0277 -0.3454 0.9380
vn 0.0440 -0.3518 0.9350
vn 0.0523 -0.3436 0.9376
vn 0.0493 -0.3574 0.9327
vn 0.0453 -0.3574 0.9329
vn 0.0256 -0.3542 0.9348
vn 0.0170 -0.1484 0.9888
vn 0.0152 -0.1026 0.9946
vn 0.0202 -0.0973 0.9951
vn 0.0225 -0.1427 0.9895
vn 0.0248 -0.0913 0.9955
vn 0.0276 -0.1362 0.9903
vn 0.0293 -0.2581 0.9657
vn 0.0304 -0.3068 0.9513
vn 0.0209 -0.3084 0.9510
vn 0.0219 -0.2621 0.9648
vn 0.0308 -0.3381 0.9406
vn 0.0192 -0.3372 0.9413
vn 0.0059 -0.3334 0.9428
vn 0.0115 -0.3085 0.9512
vn 0.0148 -0.2648 0.9642
vn -0.0284 -0.3412 0.9396
vn 0.0031 -0.3491 0.9371
vn -0.0108 -0.2701 0.9628
vn -0.0573 -0.2695 0.9613
vn 0.0340 -0.2722 0.9616
vn 0.0443 -0.1947 0.9799
vn -0.0168 -0.1915 0.9814
vn -0.0771 -0.1935 0.9781
vn 0.0370 -0.3524 0.9351
vn 0.1078 -0.2954 0.9493
vn 0.1011 -0.2841 0.9535
vn 0.0328 -0.3498 0.9363
vn 0.1237 -0.3161 0.9406
vn 0.2044 -0.2802 0.9379
vn 0.1700 -0.2351 0.9570
vn 0.1448 -0.2111 0.9667
vn -0.0138 -0.3391 0.9406
vn -0.0041 -0.3457 0.9384
vn 0.0152 -0.3536 0.9353
vn 0.0112 -0.3483 0.9373
vn 0.0287 -0.3572 0.9336
vn 0.0290 -0.0852 0.9959
vn 0.0321 -0.1296 0.9910
vn 0.0389 -0.3037 0.9520
vn 0.0360 -0.2528 0.9668
vn 0.0392 -0.3379 0.9404
vn 0.0771 -0.2781 0.9575
vn 0.1037 -0.2008 0.9741
vn -0.0281 -0.1481 0.9886
vn -0.0240 -0.1025 0.9944
vn 0.0024 -0.1051 0.9945
vn 0.0024 -0.1510 0.9885
vn -0.0132 -0.3037 0.9527
vn -0.0048 -0.2631 0.9648
vn -0.0228 -0.3246 0.9456
vn 0.1128 -0.0756 0.9907
vn 0.1176 -0.1199 0.9858
vn 0.1808 -0.0848 0.9799
vn 0.1867 -0.1292 0.9739
vn 0.2051 -0.2482 0.9468
vn 0.2248 -0.3015 0.9266
vn 0.1461 -0.2965 0.9438
vn 0.1316 -0.2411 0.9615
vn 0.0457 -0.3392 0.9396
vn 0.0477 -0.3445 0.9376
vn 0.0448 -0.3507 0.9354
vn -0.2481 -0.2831 0.9264
vn -0.1813 -0.2996 0.9367
vn -0.0823 -0.3205 0.9437
vn -0.1001 -0.2698 0.9577
vn -0.0574 -0.3302 0.9422
vn -0.1322 -0.2056 0.9697
vn 0.1556 -0.3353 0.9292
vn 0.2458 -0.3209 0.9147
vn 0.0363 -0.3588 0.9327
vn 0.0396 -0.3597 0.9322
vn 0.0070 -0.3402 0.9403
vn -0.0218 -0.3308 0.9434
vn -0.0335 -0.3330 0.9423
vn -0.0429 -0.3266 0.9442
vn 0.0449 -0.3617 0.9312
vn -0.1452 -0.1729 0.9742
vn -0.1010 -0.1855 0.9774
vn -0.0344 -0.2012 0.9789
vn 0.0372 -0.1809 0.9828
vn 0.0403 -0.1748 0.9838
vn 0.0470 -0.1697 0.9844
vn 0.0171 -0.2053 0.9786
vn 0.0232 -0.2002 0.9795
vn 0.0290 -0.1942 0.9805
vn 0.0341 -0.1877 0.9816
vn 0.0007 -0.2066 0.9784
vn 0.1231 -0.1773 0.9764
vn 0.1936 -0.1862 0.9632
vn -0.0062 -0.0540 0.9985
vn -0.0068 -0.0424 0.9991
vn -0.0470 -0.0284 0.9985
vn -0.0450 -0.0426 0.9981
vn 0.0124 -0.0217 0.9997
vn 0.0202 -0.0199 0.9996
vn 0.0171 -0.0240 0.9996
vn 0.0099 -0.0263 0.9996
vn 0.0053 -0.0439 0.9990
vn 0.0078 -0.0407 0.9991
vn 0.0129 -0.0467 0.9988
vn 0.0095 -0.0504 0.9987
vn 0.0100 -0.0368 0.9993
vn 0.0158 -0.0424 0.9990
vn 0.0122 -0.0326 0.9994
vn 0.0187 -0.0376 0.9991
vn 0.0146 -0.0283 0.9995
vn 0.0215 -0.0327 0.9992
vn -0.0005 -0.0501 0.9987
vn 0.0009 -0.0452 0.9990
vn -0.0031 -0.0534 0.9986
vn 0.0355 -0.0379 0.9986
vn 0.0284 -0.0234 0.9993
vn 0.0988 -0.0328 0.9946
vn 0.1069 -0.0458 0.9932
vn 0.1656 -0.0440 0.9852
vn 0.1742 -0.0555 0.9831
vn -0.0503 -0.3189 0.9465
vn -0.0812 -0.0319 0.9962
vn -0.0773 -0.0515 0.9957
vn -0.0438 -0.0603 0.9972
vn -0.0093 -0.0676 0.9977
vn 0.0021 -0.0374 0.9993
vn 0.0043 -0.0324 0.9995
vn 0.0075 -0.0313 0.9995
vn 0.0065 -0.0281 0.9996
vn -0.0056 -0.0579 0.9983
vn -0.0035 -0.0527 0.9986
vn 0.0016 -0.0458 0.9989
vn -0.0016 -0.0476 0.9989
vn 0.0035 -0.0411 0.9991
vn 0.0001 -0.0425 0.9991
vn 0.0054 -0.0362 0.9993
vn -0.0076 -0.0631 0.9980
vn 0.0755 -0.0362 0.9965
vn 0.0808 -0.0299 0.9963
vn 0.1432 -0.0464 0.9886
vn 0.1486 -0.0404 0.9881
vn -0.1216 -0.3376 0.9334
vn -0.0888 -0.3092 0.9468
vn -0.1496 -0.5255 0.8375
vn -0.1238 -0.5355 0.8354
vn -0.1027 -0.5504 0.8286
vn -0.0589 -0.3219 0.9450
vn -0.1162 -0.6405 0.7591
vn -0.1181 -0.6524 0.7487
vn -0.0615 -0.3655 0.9288
vn -0.0614 -0.3603 0.9308
vn -0.1198 -0.6624 0.7395
vn -0.0616 -0.3704 0.9268
vn -0.0593 -0.3324 0.9413
vn -0.0597 -0.3393 0.9388
vn -0.1067 -0.5789 0.8084
vn -0.1090 -0.5944 0.7967
vn -0.1115 -0.6109 0.7838
vn -0.0603 -0.3468 0.9360
vn -0.1141 -0.6268 0.7708
vn -0.0611 -0.3543 0.9331
vn -0.0592 -0.3272 0.9431
vn -0.1045 -0.5643 0.8189
vn -0.0767 -0.6849 0.7246
vn 0.0032 -0.3848 0.9230
vn -0.0273 -0.7033 0.7104
vn 0.0655 -0.3883 0.9192
vn -0.0191 -0.0684 0.9975
vn -0.0663 -0.0556 0.9962
vn -0.1003 -0.0454 0.9939
vn -0.0881 -0.0220 0.9959
vn -0.0543 -0.0332 0.9980
vn 0.0275 -0.0482 0.9985
vn 0.0244 -0.0279 0.9993
vn 0.0306 -0.0428 0.9986
vn 0.0126 -0.0697 0.9975
vn 0.0169 -0.0650 0.9977
vn 0.0209 -0.0597 0.9980
vn 0.0245 -0.0540 0.9982
vn 0.0022 -0.0717 0.9974
vn -0.0124 -0.0476 0.9988
vn 0.0021 -0.0516 0.9987
vn -0.0826 -0.0170 0.9964
vn 0.0891 -0.0300 0.9956
vn 0.1562 -0.0420 0.9868
vt 0.398083 0.821000
vt 0.398574 0.846362
vt 0.386637 0.845961
vt 0.386373 0.820499
vt 0.371168 0.766055
vt 0.371681 0.734134
vt 0.386587 0.734969
vt 0.386277 0.766745
vt 0.372153 0.702486
vt 0.386767 0.703246
vt 0.398058 0.704184
vt 0.398168 0.735926
vt 0.398072 0.767491
vt 0.370839 0.653814
vt 0.368304 0.637438
vt 0.380532 0.634641
vt 0.384524 0.652837
vt 0.366088 0.626207
vt 0.373206 0.620141
vt 0.380985 0.613707
vt 0.389983 0.630980
vt 0.395025 0.651747
vt 0.270598 0.816881
vt 0.270289 0.842952
vt 0.253429 0.842505
vt 0.253615 0.816274
vt 0.237796 0.842107
vt 0.237894 0.815725
vt 0.237391 0.759951
vt 0.237440 0.727111
vt 0.254069 0.728453
vt 0.253769 0.761029
vt 0.237967 0.695473
vt 0.254617 0.696899
vt 0.272606 0.698222
vt 0.271975 0.729783
vt 0.271385 0.762170
vt 0.225074 0.694531
vt 0.226336 0.669582
vt 0.239119 0.670417
vt 0.215348 0.694288
vt 0.216701 0.669328
vt 0.219778 0.648113
vt 0.229274 0.649071
vt 0.241647 0.650169
vt 0.307691 0.649449
vt 0.290571 0.649430
vt 0.290589 0.626088
vt 0.308437 0.625776
vt 0.273553 0.649869
vt 0.273624 0.628099
vt 0.272917 0.608452
vt 0.290238 0.604794
vt 0.309103 0.604289
vt 0.341167 0.818761
vt 0.340955 0.844478
vt 0.323147 0.844035
vt 0.323526 0.818238
vt 0.304765 0.843644
vt 0.305224 0.817768
vt 0.305362 0.763728
vt 0.305658 0.731260
vt 0.323355 0.732065
vt 0.323221 0.764336
vt 0.306179 0.699349
vt 0.323702 0.700212
vt 0.341007 0.701141
vt 0.340751 0.732861
vt 0.340627 0.764899
vt 0.343332 0.613983
vt 0.327136 0.607915
vt 0.328947 0.591742
vt 0.346467 0.599345
vt 0.309759 0.587398
vt 0.310101 0.576574
vt 0.330484 0.581167
vt 0.349570 0.589522
vt 0.259637 0.614356
vt 0.255673 0.601677
vt 0.270811 0.593028
vt 0.250002 0.620064
vt 0.243918 0.614022
vt 0.236119 0.608607
vt 0.250398 0.593772
vt 0.268243 0.583171
vt 0.341287 0.651278
vt 0.341092 0.674283
vt 0.324142 0.673575
vt 0.324819 0.650060
vt 0.306884 0.673039
vt 0.287273 0.843307
vt 0.287692 0.817348
vt 0.288854 0.730609
vt 0.288335 0.763038
vt 0.289473 0.698860
vt 0.289638 0.588034
vt 0.288778 0.577305
vt 0.371365 0.819927
vt 0.371560 0.845474
vt 0.356716 0.844968
vt 0.356709 0.819335
vt 0.356641 0.733490
vt 0.356286 0.765455
vt 0.357043 0.701839
vt 0.224485 0.841895
vt 0.224573 0.815429
vt 0.213587 0.841820
vt 0.213738 0.815348
vt 0.213734 0.759073
vt 0.214335 0.726021
vt 0.224357 0.726254
vt 0.224128 0.759273
vt 0.259093 0.630967
vt 0.246444 0.632458
vt 0.256816 0.650303
vt 0.397359 0.676052
vt 0.386338 0.675689
vt 0.371991 0.675519
vt 0.361521 0.608585
vt 0.356639 0.621047
vt 0.366948 0.600102
vt 0.235106 0.630262
vt 0.226067 0.627366
vt 0.290109 0.672815
vt 0.273179 0.672435
vt 0.325777 0.627858
vt 0.341809 0.631318
vt 0.356980 0.674988
vt 0.356526 0.652918
vt 0.255452 0.671499
vt 0.397995 0.795129
vt 0.386203 0.794531
vt 0.371122 0.793919
vt 0.270918 0.790456
vt 0.253653 0.789583
vt 0.237639 0.788784
vt 0.340891 0.792768
vt 0.323402 0.792257
vt 0.305312 0.791738
vt 0.287978 0.791156
vt 0.356413 0.793326
vt 0.224319 0.788306
vt 0.213653 0.788161
vt 0.375793 0.945784
vt 0.374111 0.919727
vt 0.389728 0.919840
vt 0.391705 0.945837
vt 0.238476 0.945842
vt 0.238064 0.919270
vt 0.253333 0.919286
vt 0.253603 0.945802
vt 0.341302 0.919567
vt 0.323446 0.919469
vt 0.322552 0.894831
vt 0.340437 0.895002
vt 0.305234 0.919405
vt 0.304295 0.894672
vt 0.287374 0.919352
vt 0.286723 0.894535
vt 0.270021 0.919313
vt 0.269663 0.894412
vt 0.342173 0.945711
vt 0.358082 0.919629
vt 0.359317 0.945741
vt 0.237581 0.868499
vt 0.237500 0.894220
vt 0.224338 0.894157
vt 0.224317 0.868369
vt 0.213484 0.894131
vt 0.213427 0.868322
vt 0.355692 0.635388
vt 0.399827 0.945727
vt 0.400947 0.956723
vt 0.392110 0.956754
vt 0.376030 0.956716
vt 0.269921 0.956685
vt 0.253288 0.956719
vt 0.270262 0.945761
vt 0.238233 0.956743
vt 0.342047 0.956648
vt 0.324103 0.956633
vt 0.324270 0.945701
vt 0.305851 0.956636
vt 0.306036 0.945709
vt 0.287617 0.956654
vt 0.287888 0.945729
vt 0.359349 0.956678
vt 0.225262 0.956752
vt 0.225436 0.945893
vt 0.214425 0.956978
vt 0.214555 0.946024
vt 0.402481 0.963088
vt 0.392367 0.962970
vt 0.403424 0.966947
vt 0.391784 0.966770
vt 0.376067 0.966745
vt 0.376176 0.962941
vt 0.269688 0.966919
vt 0.253046 0.967008
vt 0.253126 0.962925
vt 0.269759 0.962891
vt 0.238162 0.967083
vt 0.238080 0.962947
vt 0.341999 0.962863
vt 0.324013 0.962846
vt 0.341994 0.966707
vt 0.323987 0.966726
vt 0.305693 0.966771
vt 0.305735 0.962846
vt 0.287415 0.966837
vt 0.287473 0.962862
vt 0.359385 0.962898
vt 0.359413 0.966715
vt 0.225684 0.967060
vt 0.225172 0.962907
vt 0.215420 0.967457
vt 0.214423 0.963231
vt 0.371895 0.871027
vt 0.387134 0.871434
vt 0.399211 0.871755
vt 0.399700 0.895770
vt 0.387940 0.895571
vt 0.269975 0.869035
vt 0.252932 0.894290
vt 0.253167 0.868749
vt 0.340589 0.870206
vt 0.322678 0.869844
vt 0.304324 0.869534
vt 0.286891 0.869281
vt 0.356690 0.870609
vt 0.372515 0.895361
vt 0.356889 0.895176
vt 0.399567 0.919943
vt 0.224964 0.919272
vt 0.214105 0.919300
s 0
f 1/1/1 2/2/2 3/3/3 4/4/4
f 5/5/5 6/6/6 7/7/7 8/8/8
f 6/6/6 9/9/9 10/10/10 7/7/7
f 11/11/11 12/12/12 7/7/7 10/10/10
f 12/12/12 13/13/13 8/8/8 7/7/7
f 14/14/14 15/15/15 16/16/16 17/17/17
f 15/15/15 18/18/18 19/19/19 16/16/16
f 20/20/20 21/21/21 16/16/16 19/19/19
f 21/21/21 22/22/22 17/17/17 16/16/16
f 23/23/23 24/24/24 25/25/25 26/26/26
f 26/26/26 25/25/25 27/27/27 28/28/28
f 29/29/29 30/30/30 31/31/31 32/32/32
f 30/30/30 33/33/33 34/34/34 31/31/31
f 35/35/35 36/36/36 31/31/31 34/34/34
f 36/36/36 37/37/37 32/32/32 31/31/31
f 33/33/33 38/38/38 39/39/39 40/40/40
f 38/38/38 41/41/41 42/42/42 39/39/39
f 43/43/43 44/44/44 39/39/39 42/42/42
f 44/44/44 45/45/45 40/40/40 39/39/39
f 46/46/46 47/47/47 48/48/48 49/49/49
f 47/47/47 50/50/50 51/51/51 48/48/48
f 52/52/52 53/53/53 48/48/48 51/51/51
f 53/53/53 54/54/54 49/49/49 48/48/48
f 55/55/55 56/56/56 57/57/57 58/58/58
f 58/58/58 57/57/57 59/59/59 60/60/60
f 61/61/61 62/62/62 63/63/63 64/64/64
f 62/62/62 65/65/65 66/66/66 63/63/63
f 67/67/67 68/68/68 63/63/63 66/66/66
f 68/68/68 69/69/69 64/64/64 63/63/63
f 70/70/70 71/71/71 72/72/72 73/73/73
f 71/71/71 54/54/54 74/74/74 72/72/72
f 75/75/75 76/76/76 72/72/72 74/74/74
f 76/76/76 77/77/77 73/73/73 72/72/72
f 52/52/52 78/78/78 79/79/79 80/80/80
f 78/78/78 81/81/81 82/82/82 79/79/79
f 83/83/83 84/84/84 79/79/79 82/82/82
f 84/84/84 85/85/85 80/80/80 79/79/79
f 86/86/86 87/87/87 88/88/88 89/89/89
f 87/87/87 67/67/67 66/66/66 88/88/88
f 65/65/65 90/90/90 88/88/88 66/66/66
f 90/90/90 46/46/46 89/89/89 88/88/88
f 60/60/60 59/59/59 91/91/91 92/92/92
f 92/92/92 91/91/91 24/24/24 23/23/23
f 37/37/37 36/36/36 93/93/93 94/94/94
f 36/36/36 35/35/35 95/95/95 93/93/93
f 65/65/65 62/62/62 93/93/93 95/95/95
f 62/62/62 61/61/61 94/94/94 93/93/93
f 52/52/52 80/80/80 96/96/96 53/53/53
f 80/80/80 85/85/85 97/97/97 96/96/96
f 75/75/75 74/74/74 96/96/96 97/97/97
f 74/74/74 54/54/54 53/53/53 96/96/96
f 98/98/98 99/99/99 100/100/100 101/101/101
f 69/69/69 68/68/68 102/102/102 103/103/103
f 68/68/68 67/67/67 104/104/104 102/102/102
f 9/9/9 6/6/6 102/102/102 104/104/104
f 6/6/6 5/5/5 103/103/103 102/102/102
f 28/28/28 27/27/27 105/105/105 106/106/106
f 106/106/106 105/105/105 107/107/107 108/108/108
f 109/109/109 110/110/110 111/111/111 112/112/112
f 110/110/110 41/41/41 38/38/38 111/111/111
f 33/33/33 30/30/30 111/111/111 38/38/38
f 30/30/30 29/29/29 112/112/112 111/111/111
f 81/81/81 78/78/78 113/113/113 114/114/114
f 78/78/78 52/52/52 51/51/51 113/113/113
f 50/50/50 115/115/115 113/113/113 51/51/51
f 115/115/115 45/45/45 114/114/114 113/113/113
f 22/22/22 116/116/116 117/117/117 17/17/17
f 116/116/116 11/11/11 10/10/10 117/117/117
f 9/9/9 118/118/118 117/117/117 10/10/10
f 118/118/118 14/14/14 17/17/17 117/117/117
f 70/70/70 73/73/73 119/119/119 120/120/120
f 73/73/73 77/77/77 121/121/121 119/119/119
f 20/20/20 19/19/19 119/119/119 121/121/121
f 19/19/19 18/18/18 120/120/120 119/119/119
f 45/45/45 44/44/44 122/122/122 114/114/114
f 44/44/44 43/43/43 123/123/123 122/122/122
f 83/83/83 82/82/82 122/122/122 123/123/123
f 82/82/82 81/81/81 114/114/114 122/122/122
f 46/46/46 90/90/90 124/124/124 47/47/47
f 90/90/90 65/65/65 95/95/95 124/124/124
f 35/35/35 125/125/125 124/124/124 95/95/95
f 125/125/125 50/50/50 47/47/47 124/124/124
f 46/46/46 49/49/49 126/126/126 89/89/89
f 49/49/49 54/54/54 71/71/71 126/126/126
f 70/70/70 127/127/127 126/126/126 71/71/71
f 127/127/127 86/86/86 89/89/89 126/126/126
f 67/67/67 87/87/87 128/128/128 104/104/104
f 87/87/87 86/86/86 129/129/129 128/128/128
f 14/14/14 118/118/118 128/128/128 129/129/129
f 118/118/118 9/9/9 104/104/104 128/128/128
f 35/35/35 34/34/34 130/130/130 125/125/125
f 34/34/34 33/33/33 40/40/40 130/130/130
f 45/45/45 115/115/115 130/130/130 40/40/40
f 115/115/115 50/50/50 125/125/125 130/130/130
f 13/13/13 131/131/131 132/132/132 8/8/8
f 131/131/131 1/1/1 4/4/4 132/132/132
f 98/98/98 133/133/133 132/132/132 4/4/4
f 133/133/133 5/5/5 8/8/8 132/132/132
f 37/37/37 134/134/134 135/135/135 32/32/32
f 134/134/134 23/23/23 26/26/26 135/135/135
f 28/28/28 136/136/136 135/135/135 26/26/26
f 136/136/136 29/29/29 32/32/32 135/135/135
f 69/69/69 137/137/137 138/138/138 64/64/64
f 137/137/137 55/55/55 58/58/58 138/138/138
f 60/60/60 139/139/139 138/138/138 58/58/58
f 139/139/139 61/61/61 64/64/64 138/138/138
f 61/61/61 139/139/139 140/140/140 94/94/94
f 139/139/139 60/60/60 92/92/92 140/140/140
f 23/23/23 134/134/134 140/140/140 92/92/92
f 134/134/134 37/37/37 94/94/94 140/140/140
f 98/98/98 101/101/101 141/141/141 133/133/133
f 101/101/101 55/55/55 137/137/137 141/141/141
f 69/69/69 103/103/103 141/141/141 137/137/137
f 103/103/103 5/5/5 133/133/133 141/141/141
f 29/29/29 136/136/136 142/142/142 112/112/112
f 136/136/136 28/28/28 106/106/106 142/142/142
f 108/108/108 143/143/143 142/142/142 106/106/106
f 143/143/143 109/109/109 112/112/112 142/142/142
f 144/144/144 145/145/145 146/146/146 147/147/147
f 148/148/148 149/149/149 150/150/150 151/151/151
f 152/152/152 153/153/153 154/154/154 155/155/155
f 153/153/153 156/156/156 157/157/157 154/154/154
f 157/157/157 156/156/156 158/158/158 159/159/159
f 158/158/158 160/160/160 161/161/161 159/159/159
f 162/162/162 152/152/152 163/163/163 164/164/164
f 165/165/165 166/166/166 167/167/167 168/168/168
f 168/168/168 167/167/167 169/169/169 170/170/170
f 86/86/86 127/127/127 171/171/171 129/129/129
f 127/127/127 70/70/70 120/120/120 171/171/171
f 18/18/18 15/15/15 171/171/171 120/120/120
f 15/15/15 14/14/14 129/129/129 171/171/171
f 172/172/172 173/173/173 174/174/174 147/147/147
f 175/175/175 144/144/144 147/147/147 174/174/174
f 176/176/176 177/177/177 151/151/151 178/178/178
f 177/177/177 179/179/179 148/148/148 151/151/151
f 180/180/180 181/181/181 182/182/182 162/162/162
f 181/181/181 183/183/183 184/184/184 182/182/182
f 183/183/183 185/185/185 186/186/186 184/184/184
f 185/185/185 176/176/176 178/178/178 186/186/186
f 144/144/144 175/175/175 187/187/187 164/164/164
f 180/180/180 162/162/162 164/164/164 187/187/187
f 179/179/179 188/188/188 189/189/189 148/148/148
f 188/188/188 190/190/190 191/191/191 189/189/189
f 173/173/173 192/192/192 193/193/193 174/174/174
f 192/192/192 194/194/194 195/195/195 193/193/193
f 196/196/196 197/197/197 193/193/193 195/195/195
f 197/197/197 175/175/175 174/174/174 193/193/193
f 198/198/198 199/199/199 200/200/200 201/201/201
f 199/199/199 202/202/202 203/203/203 200/200/200
f 179/179/179 177/177/177 200/200/200 203/203/203
f 177/177/177 176/176/176 201/201/201 200/200/200
f 180/180/180 204/204/204 205/205/205 181/181/181
f 204/204/204 206/206/206 207/207/207 205/205/205
f 208/208/208 209/209/209 205/205/205 207/207/207
f 209/209/209 183/183/183 181/181/181 205/205/205
f 208/208/208 210/210/210 211/211/211 209/209/209
f 210/210/210 198/198/198 201/201/201 211/211/211
f 176/176/176 185/185/185 211/211/211 201/201/201
f 185/185/185 183/183/183 209/209/209 211/211/211
f 175/175/175 197/197/197 212/212/212 187/187/187
f 197/197/197 196/196/196 213/213/213 212/212/212
f 206/206/206 204/204/204 212/212/212 213/213/213
f 204/204/204 180/180/180 187/187/187 212/212/212
f 202/202/202 214/214/214 215/215/215 203/203/203
f 214/214/214 216/216/216 217/217/217 215/215/215
f 190/190/190 188/188/188 215/215/215 217/217/217
f 188/188/188 179/179/179 203/203/203 215/215/215
f 152/152/152 162/162/162 182/182/182 153/153/153
f 218/218/218 99/99/99 3/3/3 219/219/219
f 220/220/220 221/221/221 222/222/222 219/219/219
f 223/223/223 161/161/161 224/224/224 225/225/225
f 226/226/226 155/155/155 154/154/154 227/227/227
f 227/227/227 154/154/154 157/157/157 228/228/228
f 228/228/228 157/157/157 159/159/159 229/229/229
f 229/229/229 159/159/159 161/161/161 223/223/223
f 226/226/226 56/56/56 100/100/100 230/230/230
f 218/218/218 231/231/231 232/232/232 230/230/230
f 233/233/233 172/172/172 147/147/147 146/146/146
f 149/149/149 166/166/166 224/224/224 150/150/150
f 145/145/145 144/144/144 164/164/164 163/163/163
f 145/145/145 231/231/231 222/222/222 146/146/146
f 160/160/160 178/178/178 151/151/151 150/150/150
f 153/153/153 182/182/182 184/184/184 156/156/156
f 156/156/156 184/184/184 186/186/186 158/158/158
f 158/158/158 186/186/186 178/178/178 160/160/160
f 163/163/163 152/152/152 155/155/155 232/232/232
f 149/149/149 148/148/148 189/189/189 234/234/234
f 234/234/234 189/189/189 191/191/191 235/235/235
f 231/231/231 218/218/218 219/219/219 222/222/222
f 155/155/155 226/226/226 230/230/230 232/232/232
f 166/166/166 149/149/149 234/234/234 167/167/167
f 167/167/167 234/234/234 235/235/235 169/169/169
f 222/222/222 221/221/221 233/233/233 146/146/146
f 224/224/224 161/161/161 160/160/160 150/150/150
f 231/231/231 145/145/145 163/163/163 232/232/232
f 224/224/224 166/166/166 165/165/165 225/225/225
f 2/2/2 220/220/220 219/219/219 3/3/3
f 24/24/24 223/223/223 225/225/225 25/25/25
f 25/25/25 225/225/225 165/165/165 27/27/27
f 56/56/56 226/226/226 227/227/227 57/57/57
f 57/57/57 227/227/227 228/228/228 59/59/59
f 59/59/59 228/228/228 229/229/229 91/91/91
f 91/91/91 229/229/229 223/223/223 24/24/24
f 99/99/99 218/218/218 230/230/230 100/100/100
f 27/27/27 165/165/165 168/168/168 105/105/105
f 105/105/105 168/168/168 170/170/170 107/107/107
f 99/99/99 98/98/98 4/4/4 3/3/3
f 56/56/56 55/55/55 101/101/101 100/100/100
