# Blender 4.5.3 LTS
# www.blender.org
o LeftStickClick
v -39.615837 -29.277863 16.204884
v -39.615829 -29.423733 16.225948
v -38.686272 -29.277870 16.297329
v -40.545387 -29.277870 16.297329
v -39.615829 -29.199043 16.141712
v -38.673946 -29.199051 16.235386
v -39.615826 -29.034821 15.836338
v -40.557716 -29.199043 16.235386
v -40.617275 -29.034821 15.935909
v -41.463745 -29.199043 16.509289
v -41.580601 -29.034828 16.227154
v -42.298084 -29.199051 16.956280
v -41.439564 -29.277870 16.567661
v -41.431492 -29.423733 16.587093
v -42.262989 -29.277855 17.008778
v -42.985664 -29.277855 17.600712
v -42.251270 -29.423729 17.026295
v -42.251270 -33.549637 17.026302
v -42.970768 -29.423729 17.615589
v -43.560078 -29.423725 18.335072
v -42.970760 -33.549629 17.615589
v -43.560074 -33.549637 18.335072
v -41.431492 -33.549637 16.587101
v -40.541275 -33.549641 16.317997
v -39.615841 -33.549641 16.225956
v -40.541283 -29.423733 16.317997
v -38.690380 -33.549641 16.317997
v -37.800152 -33.549641 16.587101
v -37.800148 -29.423733 16.587093
v -36.980377 -33.549637 17.026302
v -36.980373 -29.423729 17.026295
v -36.260906 -33.549629 17.615597
v -36.260895 -29.423729 17.615589
v -35.671600 -33.549641 18.335072
v -35.232414 -33.549633 19.154850
v -35.232407 -29.423725 19.154850
v -34.963284 -33.549633 20.045094
v -34.963284 -29.423725 20.045094
v -34.871250 -33.549633 20.970539
v -34.871243 -29.423767 20.985050
v -34.963287 -33.549629 21.895977
v -35.232414 -33.549629 22.786221
v -35.232407 -29.423737 22.786213
v -35.671600 -33.549625 23.605999
v -35.671600 -29.423740 23.605999
v -36.260906 -33.549629 24.325474
v -36.260895 -29.423733 24.325466
v -36.980377 -33.549625 24.914783
v -37.800152 -33.549637 25.353977
v -37.800148 -29.423729 25.353970
v -38.690380 -33.549629 25.623081
v -38.690369 -29.423729 25.623081
v -39.615841 -33.549629 25.715130
v -39.615829 -29.423733 25.715130
v -40.541283 -33.549629 25.623081
v -41.431492 -33.549637 25.353977
v -41.431492 -29.423729 25.353977
v -42.251274 -33.549629 24.914783
v -42.251274 -29.423721 24.914783
v -42.970760 -33.549629 24.325481
v -42.970768 -29.423725 24.325481
v -43.560078 -33.549633 23.605999
v -43.999264 -33.549633 22.786221
v -43.999268 -29.423733 22.786221
v -44.268379 -33.549633 21.895977
v -44.268375 -29.423725 21.895977
v -44.360416 -33.549637 20.970539
v -44.360416 -29.423775 20.985050
v -44.268379 -33.549637 20.045094
v -43.999264 -33.549633 19.154850
v -43.999268 -29.423725 19.154850
v -44.268379 -29.423725 20.045094
v -44.018723 -29.277855 19.146809
v -44.289032 -29.277863 20.040981
v -43.577579 -29.277859 18.323383
v -44.077087 -29.199043 19.122608
v -44.359215 -29.034832 19.005772
v -44.350983 -29.199047 20.028645
v -43.630100 -29.199047 18.288296
v -43.030334 -29.199043 17.556042
v -43.883965 -29.034824 18.118649
v -44.505489 -28.632793 17.703381
v -43.246246 -29.034836 17.340107
v -43.774925 -28.632793 16.811443
v -42.467697 -29.034821 16.702412
v -42.882996 -28.632790 16.080860
v -43.419640 -28.072964 15.277744
v -41.866718 -28.632790 15.536404
v -42.236431 -28.072975 14.643856
v -40.763107 -28.632786 15.202801
v -40.951553 -28.072964 14.255413
v -39.615829 -28.632786 15.088696
v -38.468555 -28.632786 15.202801
v -39.615826 -28.072971 14.122570
v -38.280109 -28.072964 14.255413
v -39.615829 -27.435406 13.161800
v -38.092697 -27.435398 13.313290
v -39.615826 -26.694824 12.260212
v -41.138954 -27.435406 13.313290
v -41.314808 -26.694836 12.429173
v -42.604107 -27.435406 13.756199
v -42.949123 -26.694824 12.923244
v -43.953312 -27.435406 14.479031
v -44.454117 -26.694828 13.729511
v -45.137440 -27.435402 15.448925
v -45.774963 -26.694828 14.811390
v -46.107338 -27.435402 16.633038
v -44.458073 -28.072971 16.128307
v -45.308617 -28.072968 17.166737
v -45.942520 -28.072987 18.349941
v -45.049950 -28.632793 18.719639
v -46.330940 -28.073051 19.634792
v -46.830162 -27.435482 17.982258
v -47.663113 -26.695595 17.637150
v -47.273087 -27.435722 19.447384
v -48.157177 -26.697926 19.271259
v -47.424572 -27.436237 20.992069
v -48.326160 -26.700882 20.994648
v -47.273087 -27.436829 22.493534
v -46.463791 -28.073219 20.989834
v -45.497673 -28.632851 20.987858
v -46.330940 -28.073315 22.306225
v -45.942524 -28.073391 23.591084
v -45.383572 -28.632782 22.117817
v -45.049950 -28.632782 23.221424
v -44.650436 -29.034824 21.971973
v -44.359222 -29.034821 22.935299
v -44.750034 -29.034885 20.986446
v -44.350990 -29.199047 21.912426
v -44.444660 -29.199104 20.985851
v -44.289032 -29.277863 21.900105
v -44.077091 -29.199043 22.818455
v -43.630108 -29.199047 23.652767
v -44.018723 -29.277863 22.794262
v -43.577579 -29.277859 23.617687
v -42.985661 -29.277855 24.340343
v -43.560078 -29.423737 23.605999
v -42.262989 -29.277855 24.932293
v -43.030334 -29.199039 24.385021
v -43.246246 -29.034828 24.600971
v -42.298084 -29.199039 24.984814
v -42.467697 -29.034821 25.238659
v -41.463745 -29.199039 25.431797
v -41.580605 -29.034817 25.713924
v -40.557716 -29.199043 25.705692
v -41.439564 -29.277855 25.373432
v -40.545387 -29.277855 25.643734
v -39.615837 -29.277870 25.736187
v -40.541283 -29.423729 25.623081
v -38.686268 -29.277855 25.643734
v -39.615829 -29.199043 25.799374
v -39.615826 -29.034817 26.104748
v -38.673946 -29.199043 25.705692
v -38.614388 -29.034821 26.005146
v -37.767914 -29.199043 25.431797
v -37.651054 -29.034828 25.713924
v -36.933582 -29.199051 24.984806
v -37.792095 -29.277863 25.373425
v -36.968674 -29.277863 24.932278
v -36.246002 -29.277870 24.340336
v -36.980373 -29.423729 24.914776
v -35.654079 -29.277870 23.617680
v -36.201336 -29.199043 24.385021
v -35.985397 -29.034836 24.600971
v -35.601562 -29.199051 23.652767
v -35.347694 -29.034824 23.822422
v -35.154572 -29.199047 22.818455
v -34.872444 -29.034817 22.935299
v -34.880680 -29.199051 21.912426
v -35.212940 -29.277863 22.794262
v -34.942631 -29.277859 21.900105
v -34.850182 -29.277920 20.985592
v -34.963280 -29.423725 21.895977
v -34.942635 -29.277859 20.040981
v -34.786991 -29.199104 20.985851
v -34.481617 -29.034889 20.986446
v -34.880680 -29.199047 20.028645
v -34.581226 -29.034821 19.969097
v -35.154572 -29.199043 19.122608
v -34.872444 -29.034824 19.005772
v -35.601562 -29.199043 18.288296
v -35.212940 -29.277851 19.146809
v -35.654079 -29.277855 18.323383
v -36.246002 -29.277855 17.600712
v -35.671600 -29.423725 18.335072
v -36.968662 -29.277855 17.008778
v -36.201332 -29.199043 17.556042
v -35.985397 -29.034836 17.340107
v -36.933575 -29.199051 16.956272
v -36.763947 -29.034821 16.702412
v -37.767914 -29.199043 16.509289
v -37.651054 -29.034828 16.227154
v -37.792095 -29.277870 16.567661
v -37.364944 -28.632790 15.536404
v -38.614388 -29.034828 15.935909
v -36.995232 -28.072975 14.643856
v -36.348667 -28.632790 16.080860
v -35.812019 -28.072964 15.277744
v -35.456734 -28.632790 16.811451
v -34.773594 -28.072971 16.128307
v -34.726170 -28.632790 17.703381
v -35.347694 -29.034821 18.118649
v -33.923038 -28.072964 17.166744
v -34.181713 -28.632790 18.719639
v -33.289143 -28.072968 18.349949
v -33.848087 -28.632782 19.823269
v -32.900711 -28.072968 19.634808
v -33.733986 -28.632851 20.987858
v -32.767872 -28.073029 20.989834
v -33.848087 -28.632790 22.117817
v -34.581226 -29.034824 21.971973
v -32.900711 -28.072964 22.306263
v -34.181713 -28.632790 23.221424
v -33.289143 -28.072956 23.591137
v -34.726170 -28.632782 24.237682
v -33.923031 -28.072956 24.774326
v -35.456734 -28.632782 25.129635
v -34.773594 -28.072964 25.812778
v -36.348667 -28.632786 25.860195
v -36.763947 -29.034828 25.238651
v -35.812019 -28.072960 26.663334
v -37.364944 -28.632786 26.404667
v -36.995235 -28.072960 27.297230
v -38.468555 -28.632786 26.738285
v -38.280109 -28.072964 27.685658
v -39.615829 -28.632786 26.852383
v -39.615826 -28.072956 27.818501
v -40.763107 -28.632782 26.738285
v -40.617275 -29.034821 26.005146
v -40.951553 -28.072960 27.685658
v -41.866718 -28.632786 26.404667
v -42.236439 -28.072960 27.297230
v -42.882999 -28.632786 25.860195
v -43.419643 -28.072956 26.663334
v -43.774929 -28.632790 25.129635
v -44.458080 -28.073029 25.812778
v -44.505493 -28.632790 24.237682
v -43.883968 -29.034821 23.822422
v -45.308636 -28.073235 24.774296
v -46.107342 -27.436508 25.307926
v -46.856838 -26.700218 25.808353
v -45.137451 -27.435673 26.492130
v -46.830162 -27.437141 23.958637
v -47.663113 -26.703564 24.303051
v -48.391628 -25.852161 24.603275
v -48.157177 -26.703217 22.668766
v -48.930412 -25.852360 22.820942
v -49.618389 -24.913685 22.956280
v -49.114685 -25.846165 20.997662
v -49.816540 -24.901764 21.000996
v -48.930412 -25.836754 19.116734
v -49.618729 -24.882786 18.979076
v -48.391628 -25.828648 17.335224
v -49.040142 -24.866074 17.066402
v -47.512356 -25.825939 15.694256
v -48.095894 -24.860497 15.304340
v -46.332523 -25.825943 14.253826
v -46.856838 -26.694820 16.132252
v -46.828884 -24.860497 13.757481
v -44.892097 -25.825943 13.074017
v -45.282024 -24.860485 12.490475
v -43.250881 -25.825947 12.194736
v -43.519493 -24.860493 11.546223
v -41.468616 -25.825943 11.655956
v -41.605537 -24.860493 10.967621
v -39.615837 -25.825943 11.471668
v -37.763046 -25.825939 11.655956
v -39.615829 -24.860485 10.769741
v -37.626133 -24.860489 10.967628
v -39.615837 -23.830215 10.127872
v -37.500931 -23.830219 10.338230
v -39.615837 -22.767513 9.516090
v -41.730721 -23.830215 10.338226
v -41.850037 -22.767509 9.738293
v -43.765129 -23.830215 10.953232
v -43.999249 -22.767509 10.388008
v -45.638527 -23.830215 11.956890
v -45.978355 -22.767513 11.448303
v -47.282745 -23.830219 13.303623
v -47.715336 -22.767525 12.871006
v -48.629471 -23.830235 14.947811
v -49.138065 -22.767570 14.607983
v -49.633137 -23.839336 16.820728
v -50.198368 -22.780533 16.586590
v -50.248142 -23.866600 18.853611
v -50.848057 -22.819294 18.734264
v -50.458122 -23.897400 21.004536
v -51.069534 -22.863037 21.008167
v -50.246700 -23.916626 23.081059
v -50.845192 -22.890350 23.200535
v -49.630959 -23.914818 25.115734
v -50.194000 -22.887772 25.350109
v -48.627934 -23.881973 26.990734
v -49.039597 -24.912666 24.870457
v -48.095493 -24.892342 26.634441
v -46.828773 -24.869640 28.182880
v -47.512356 -25.841961 26.245426
v -46.332523 -25.830467 27.686848
v -44.892117 -25.826344 28.867031
v -45.774963 -26.696301 27.129536
v -44.454124 -26.694927 28.211506
v -42.949131 -26.694843 29.017834
v -43.953312 -27.435398 27.462048
v -42.604107 -27.435398 28.184887
v -41.138962 -27.435398 28.627796
v -41.314819 -26.694805 29.511890
v -39.615829 -27.435398 28.779285
v -39.615829 -26.694805 29.680866
v -38.092701 -27.435398 28.627796
v -37.916855 -26.694809 29.511890
v -36.627548 -27.435398 28.184887
v -36.282528 -26.694809 29.017818
v -35.278339 -27.435398 27.462048
v -34.777542 -26.694813 28.211514
v -34.094223 -27.435398 26.492146
v -33.456699 -26.694809 27.129665
v -33.124317 -27.435398 25.308025
v -32.374805 -26.694809 25.808819
v -32.401482 -27.435398 23.958797
v -31.568535 -26.694813 24.303814
v -31.958576 -27.435398 22.493649
v -31.074469 -26.694813 22.669514
v -31.807091 -27.435474 20.992077
v -30.905497 -26.694889 20.994671
v -31.958580 -27.435398 19.447414
v -31.074471 -26.694809 19.271557
v -32.401489 -27.435398 17.982265
v -31.568542 -26.694813 17.637249
v -33.124321 -27.435402 16.633038
v -32.374813 -26.694820 16.132252
v -34.094223 -27.435402 15.448925
v -33.456703 -26.694832 14.811390
v -35.278339 -27.435406 14.479031
v -34.777542 -26.694820 13.729511
v -36.627548 -27.435406 13.756214
v -36.282528 -26.694824 12.923252
v -37.916855 -26.694836 12.429180
v -35.980774 -25.825943 12.194744
v -35.712151 -24.860497 11.546230
v -34.339546 -25.825939 13.074017
v -33.949638 -24.860489 12.490475
v -32.899128 -25.825939 14.253826
v -32.402779 -24.860485 13.757481
v -31.719316 -25.825939 15.694256
v -31.135773 -24.860493 15.304340
v -30.840040 -25.825935 17.335491
v -30.191525 -24.860481 17.066845
v -30.301252 -25.825935 19.117725
v -29.612919 -24.860481 18.980839
v -30.116970 -25.826038 20.997746
v -29.415022 -24.860600 21.001148
v -30.301249 -25.825932 22.823322
v -29.612913 -24.860485 22.960239
v -30.840027 -25.825943 24.605572
v -30.191509 -24.860485 24.874210
v -31.719294 -25.825939 26.246822
v -31.135765 -24.860485 26.636730
v -32.899124 -25.825935 27.687237
v -32.402763 -24.860485 28.183598
v -34.339546 -25.825932 28.867069
v -33.949638 -24.860485 29.450603
v -35.980774 -25.825939 29.746342
v -35.712151 -24.860481 30.394855
v -37.763046 -25.825935 30.285130
v -37.626133 -24.860481 30.973446
v -39.615837 -25.825932 30.469357
v -39.615829 -24.860477 31.171345
v -41.468616 -25.825935 30.285130
v -41.605537 -24.860477 30.973446
v -43.250893 -25.826035 29.746326
v -43.519497 -24.860718 30.394840
v -45.281990 -24.861431 29.450512
v -43.765114 -23.830624 30.987797
v -43.999210 -22.768143 31.552967
v -41.730724 -23.830196 31.602856
v -45.638458 -23.831913 29.984013
v -45.978184 -22.770081 30.492519
v -47.282238 -23.845287 28.636616
v -47.714329 -22.789165 29.069134
v -49.134987 -22.841217 27.330647
v -41.850048 -22.767490 32.202740
v -39.615837 -23.830196 31.813198
v -39.615837 -22.767490 32.424969
v -37.500931 -23.830200 31.602856
v -37.381603 -22.767494 32.202740
v -35.466518 -23.830204 30.987835
v -35.232407 -22.767502 31.553074
v -33.593105 -23.830204 29.984173
v -33.253273 -22.767494 30.492779
v -31.948917 -23.830204 28.637440
v -31.516306 -22.767494 29.070019
v -30.602186 -23.830204 26.993252
v -30.093582 -22.767487 27.333088
v -29.598522 -23.830208 25.119808
v -29.033287 -22.767483 25.353970
v -28.983519 -23.830208 23.085430
v -28.383585 -22.767498 23.204769
v -28.773174 -23.830330 21.004772
v -28.161385 -22.767635 21.008495
v -28.983522 -23.830208 18.855625
v -28.383591 -22.767506 18.736301
v -29.598530 -23.830208 16.821232
v -29.033293 -22.767509 16.587086
v -30.602200 -23.830212 14.947819
v -30.093590 -22.767509 14.607983
v -31.948923 -23.830208 13.303623
v -31.516310 -22.767509 12.871006
v -33.593117 -23.830215 11.956898
v -33.253284 -22.767513 11.448303
v -35.466526 -23.830219 10.953239
v -35.232410 -22.767513 10.388008
v -37.381603 -22.767517 9.738293
v -44.381462 -29.277920 20.985592
v -44.650436 -29.034824 19.969097
v -45.383568 -28.632782 19.823238
v -38.690372 -29.423733 16.317997
vn -0.0000 -0.4044 -0.9146
vn -0.0000 -0.0720 -0.9974
vn -0.1946 -0.0720 -0.9782
vn -0.1784 -0.4042 -0.8971
vn 0.1784 -0.4042 -0.8971
vn 0.1946 -0.0719 -0.9782
vn -0.0000 -0.7747 -0.6323
vn 0.1234 -0.7746 -0.6203
vn -0.1234 -0.7746 -0.6203
vn -0.0000 -0.8807 -0.4736
vn 0.0924 -0.8807 -0.4646
vn -0.0924 -0.8807 -0.4646
vn -0.2420 -0.7747 -0.5841
vn -0.1812 -0.8807 -0.4376
vn -0.3500 -0.4043 -0.8450
vn -0.3514 -0.7746 -0.5259
vn -0.2632 -0.8807 -0.3939
vn -0.5082 -0.4042 -0.7605
vn -0.3817 -0.0720 -0.9215
vn -0.5541 -0.0720 -0.8293
vn -0.6467 -0.4044 -0.6467
vn -0.4471 -0.7747 -0.4471
vn -0.7053 -0.0720 -0.7053
vn -0.5556 -0.0000 -0.8315
vn -0.7071 -0.0000 -0.7071
vn -0.3827 -0.0000 -0.9239
vn -0.8293 -0.0719 -0.5541
vn -0.7605 -0.4042 -0.5082
vn -0.8315 -0.0000 -0.5556
vn -0.1951 -0.0000 -0.9808
vn -0.0000 -0.0000 -1.0000
vn 0.1951 -0.0000 -0.9808
vn 0.3817 -0.0719 -0.9215
vn 0.5541 -0.0719 -0.8293
vn 0.5556 -0.0000 -0.8315
vn 0.3827 -0.0000 -0.9239
vn 0.7053 -0.0720 -0.7053
vn 0.7071 -0.0000 -0.7071
vn 0.8293 -0.0719 -0.5541
vn 0.8315 -0.0000 -0.5556
vn 0.9215 -0.0720 -0.3817
vn 0.9784 -0.0719 -0.1940
vn 0.9809 0.0001 -0.1947
vn 0.9239 -0.0000 -0.3827
vn 0.9974 -0.0720 0.0012
vn 1.0000 -0.0000 0.0006
vn 0.9781 -0.0720 0.1952
vn 0.9807 -0.0001 0.1955
vn 0.9215 -0.0720 0.3817
vn 0.8293 -0.0719 0.5541
vn 0.8315 -0.0000 0.5556
vn 0.9239 -0.0000 0.3827
vn 0.7053 -0.0719 0.7053
vn 0.7071 -0.0000 0.7071
vn 0.5541 -0.0719 0.8293
vn 0.5556 -0.0000 0.8315
vn 0.3817 -0.0719 0.9215
vn 0.1946 -0.0719 0.9782
vn 0.1951 -0.0000 0.9808
vn 0.3827 -0.0000 0.9239
vn -0.0000 -0.0720 0.9974
vn -0.0000 -0.0000 1.0000
vn -0.1946 -0.0719 0.9782
vn -0.1951 -0.0000 0.9808
vn -0.3817 -0.0720 0.9215
vn -0.5541 -0.0719 0.8293
vn -0.5556 -0.0000 0.8315
vn -0.3827 -0.0000 0.9239
vn -0.7053 -0.0719 0.7053
vn -0.7071 -0.0000 0.7071
vn -0.8293 -0.0719 0.5541
vn -0.8315 -0.0000 0.5556
vn -0.9215 -0.0719 0.3817
vn -0.9781 -0.0720 0.1952
vn -0.9807 -0.0001 0.1955
vn -0.9239 -0.0000 0.3827
vn -0.9974 -0.0719 0.0012
vn -1.0000 -0.0000 0.0006
vn -0.9784 -0.0718 -0.1940
vn -0.9809 0.0001 -0.1947
vn -0.9215 -0.0719 -0.3817
vn -0.9239 -0.0000 -0.3827
vn -0.8450 -0.4044 -0.3500
vn -0.8972 -0.4042 -0.1777
vn -0.5841 -0.7748 -0.2420
vn -0.6203 -0.7746 -0.1229
vn -0.5259 -0.7746 -0.3514
vn -0.4376 -0.8807 -0.1812
vn -0.3938 -0.8807 -0.2632
vn -0.4646 -0.8807 -0.0921
vn -0.3349 -0.8807 -0.3349
vn -0.3453 -0.8727 -0.3453
vn -0.4061 -0.8726 -0.2713
vn -0.4511 -0.8727 -0.1869
vn -0.2713 -0.8726 -0.4061
vn -0.1869 -0.8727 -0.4511
vn -0.3739 -0.8488 -0.3739
vn -0.2938 -0.8487 -0.4397
vn -0.2024 -0.8488 -0.4885
vn -0.1032 -0.8487 -0.5187
vn -0.0953 -0.8726 -0.4790
vn -0.0000 -0.8488 -0.5288
vn -0.0000 -0.8727 -0.4883
vn 0.0953 -0.8726 -0.4790
vn 0.1032 -0.8487 -0.5187
vn -0.0000 -0.8025 -0.5967
vn 0.1164 -0.8025 -0.5852
vn -0.1164 -0.8025 -0.5852
vn -0.0000 -0.7220 -0.6919
vn 0.1350 -0.7220 -0.6786
vn -0.1350 -0.7220 -0.6786
vn -0.2648 -0.7220 -0.6392
vn -0.2283 -0.8025 -0.5512
vn -0.3844 -0.7220 -0.5753
vn -0.3315 -0.8025 -0.4961
vn -0.4892 -0.7220 -0.4892
vn -0.4219 -0.8025 -0.4219
vn -0.5750 -0.7221 -0.3845
vn -0.4961 -0.8025 -0.3315
vn -0.4397 -0.8487 -0.2938
vn -0.4885 -0.8488 -0.2024
vn -0.5509 -0.8027 -0.2285
vn -0.4790 -0.8727 -0.0950
vn -0.5186 -0.8488 -0.1029
vn -0.5844 -0.8031 -0.1163
vn -0.6380 -0.7228 -0.2653
vn -0.6761 -0.7243 -0.1356
vn -0.6878 -0.7259 -0.0005
vn -0.5951 -0.8037 0.0003
vn -0.5285 -0.8489 0.0006
vn -0.6735 -0.7269 0.1339
vn -0.5831 -0.8040 0.1161
vn -0.5182 -0.8490 0.1034
vn -0.4882 -0.8727 0.0007
vn -0.4788 -0.8727 0.0956
vn -0.4881 -0.8491 0.2022
vn -0.5493 -0.8040 0.2278
vn -0.4510 -0.8727 0.1868
vn -0.4376 -0.8807 0.1812
vn -0.4645 -0.8807 0.0928
vn -0.4736 -0.8807 0.0007
vn -0.5841 -0.7748 0.2420
vn -0.6203 -0.7745 0.1239
vn -0.6322 -0.7748 0.0010
vn -0.9146 -0.4044 0.0015
vn -0.8969 -0.4042 0.1792
vn -0.8450 -0.4044 0.3500
vn -0.5259 -0.7746 0.3514
vn -0.3939 -0.8807 0.2632
vn -0.7605 -0.4042 0.5082
vn -0.6467 -0.4043 0.6467
vn -0.4471 -0.7748 0.4471
vn -0.5082 -0.4042 0.7605
vn -0.3514 -0.7746 0.5259
vn -0.3349 -0.8807 0.3349
vn -0.2632 -0.8807 0.3939
vn -0.2420 -0.7748 0.5841
vn -0.1812 -0.8807 0.4376
vn -0.3500 -0.4044 0.8450
vn -0.1234 -0.7746 0.6203
vn -0.0924 -0.8807 0.4646
vn -0.1784 -0.4042 0.8971
vn -0.0000 -0.4044 0.9146
vn -0.0000 -0.7748 0.6323
vn 0.1784 -0.4042 0.8971
vn 0.1234 -0.7746 0.6203
vn -0.0000 -0.8807 0.4736
vn 0.0924 -0.8807 0.4646
vn 0.2419 -0.7748 0.5841
vn 0.1812 -0.8807 0.4376
vn 0.3500 -0.4044 0.8450
vn 0.3514 -0.7746 0.5259
vn 0.2632 -0.8807 0.3939
vn 0.5082 -0.4042 0.7605
vn 0.6467 -0.4043 0.6467
vn 0.4471 -0.7748 0.4471
vn 0.7605 -0.4042 0.5082
vn 0.5259 -0.7746 0.3514
vn 0.3349 -0.8807 0.3349
vn 0.3939 -0.8807 0.2632
vn 0.5841 -0.7748 0.2420
vn 0.4376 -0.8807 0.1812
vn 0.8450 -0.4044 0.3500
vn 0.6203 -0.7745 0.1239
vn 0.4645 -0.8807 0.0928
vn 0.8969 -0.4042 0.1792
vn 0.9146 -0.4044 0.0015
vn 0.6322 -0.7748 0.0010
vn 0.8972 -0.4043 -0.1777
vn 0.6203 -0.7747 -0.1229
vn 0.4736 -0.8807 0.0007
vn 0.4646 -0.8807 -0.0921
vn 0.5841 -0.7748 -0.2420
vn 0.4376 -0.8807 -0.1812
vn 0.8450 -0.4044 -0.3500
vn 0.5259 -0.7746 -0.3514
vn 0.3939 -0.8807 -0.2632
vn 0.7605 -0.4042 -0.5082
vn 0.6467 -0.4044 -0.6467
vn 0.4471 -0.7748 -0.4471
vn 0.5082 -0.4042 -0.7605
vn 0.3514 -0.7746 -0.5259
vn 0.3349 -0.8807 -0.3349
vn 0.2632 -0.8807 -0.3939
vn 0.2420 -0.7747 -0.5841
vn 0.1812 -0.8807 -0.4376
vn 0.3500 -0.4043 -0.8450
vn 0.1869 -0.8727 -0.4511
vn 0.2713 -0.8726 -0.4061
vn 0.2024 -0.8488 -0.4885
vn 0.2938 -0.8487 -0.4397
vn 0.3453 -0.8727 -0.3453
vn 0.3739 -0.8488 -0.3739
vn 0.4397 -0.8487 -0.2938
vn 0.4061 -0.8726 -0.2713
vn 0.4511 -0.8727 -0.1869
vn 0.4885 -0.8488 -0.2024
vn 0.5187 -0.8487 -0.1028
vn 0.4790 -0.8726 -0.0949
vn 0.4883 -0.8727 0.0007
vn 0.5288 -0.8488 0.0007
vn 0.5186 -0.8487 0.1036
vn 0.4789 -0.8726 0.0957
vn 0.4511 -0.8727 0.1869
vn 0.4885 -0.8488 0.2024
vn 0.4397 -0.8487 0.2938
vn 0.4061 -0.8726 0.2713
vn 0.3453 -0.8727 0.3453
vn 0.3739 -0.8488 0.3739
vn 0.2938 -0.8487 0.4397
vn 0.2713 -0.8726 0.4061
vn 0.1869 -0.8727 0.4511
vn 0.2024 -0.8488 0.4885
vn 0.1032 -0.8487 0.5187
vn 0.0953 -0.8726 0.4790
vn -0.0000 -0.8727 0.4883
vn -0.0000 -0.8488 0.5288
vn -0.1032 -0.8487 0.5187
vn -0.0953 -0.8726 0.4790
vn -0.1869 -0.8727 0.4511
vn -0.2024 -0.8488 0.4885
vn -0.2938 -0.8488 0.4397
vn -0.2713 -0.8726 0.4061
vn -0.3452 -0.8727 0.3453
vn -0.3737 -0.8488 0.3739
vn -0.4393 -0.8489 0.2938
vn -0.4060 -0.8727 0.2713
vn -0.4212 -0.8029 0.4219
vn -0.4946 -0.8035 0.3313
vn -0.5716 -0.7250 0.3843
vn -0.6344 -0.7266 0.2637
vn -0.4874 -0.7232 0.4894
vn -0.6407 -0.6343 0.4326
vn -0.7113 -0.6372 0.2966
vn -0.7555 -0.6378 0.1498
vn -0.7715 -0.6362 -0.0017
vn -0.8072 -0.5683 0.1597
vn -0.8242 -0.5663 -0.0031
vn -0.7595 -0.5676 0.3178
vn -0.8099 -0.5627 -0.1657
vn -0.7585 -0.6333 -0.1536
vn -0.7645 -0.5595 -0.3203
vn -0.7161 -0.6308 -0.2989
vn -0.6895 -0.5579 -0.4618
vn -0.6458 -0.6295 -0.4321
vn -0.5869 -0.5577 -0.5869
vn -0.5495 -0.6293 -0.5495
vn -0.4612 -0.5577 -0.6902
vn -0.4318 -0.6293 -0.6462
vn -0.3176 -0.5577 -0.7668
vn -0.2974 -0.6293 -0.7180
vn -0.1619 -0.5577 -0.8141
vn -0.1516 -0.6293 -0.7623
vn -0.0000 -0.5577 -0.8300
vn -0.0000 -0.6293 -0.7772
vn 0.1516 -0.6293 -0.7623
vn 0.1619 -0.5577 -0.8141
vn -0.0000 -0.5134 -0.8581
vn 0.1674 -0.5134 -0.8417
vn -0.1674 -0.5134 -0.8417
vn -0.0000 -0.4989 -0.8666
vn 0.1691 -0.4989 -0.8500
vn -0.1691 -0.4989 -0.8500
vn -0.3317 -0.4989 -0.8007
vn -0.3284 -0.5134 -0.7928
vn -0.4815 -0.4989 -0.7206
vn -0.4768 -0.5134 -0.7135
vn -0.6128 -0.4989 -0.6128
vn -0.6068 -0.5134 -0.6068
vn -0.7197 -0.4992 -0.4826
vn -0.7127 -0.5137 -0.4776
vn -0.7974 -0.5009 -0.3366
vn -0.7900 -0.5153 -0.3322
vn -0.8453 -0.5043 -0.1766
vn -0.8372 -0.5188 -0.1731
vn -0.8611 -0.5084 -0.0058
vn -0.8525 -0.5227 -0.0044
vn -0.8436 -0.5105 0.1663
vn -0.8350 -0.5249 0.1650
vn -0.7928 -0.5097 0.3342
vn -0.7852 -0.5241 0.3298
vn -0.7116 -0.5058 0.4877
vn -0.7056 -0.5202 0.4811
vn -0.6834 -0.5640 0.4636
vn -0.5829 -0.5601 0.5887
vn -0.6017 -0.5161 0.6096
vn -0.5465 -0.6312 0.5503
vn -0.4600 -0.5582 0.6905
vn -0.4310 -0.6297 0.6464
vn -0.3839 -0.7222 0.5753
vn -0.3313 -0.8025 0.4961
vn -0.2647 -0.7221 0.6392
vn -0.2973 -0.6294 0.7180
vn -0.2283 -0.8025 0.5512
vn -0.1350 -0.7220 0.6786
vn -0.1164 -0.8025 0.5852
vn -0.0000 -0.7220 0.6919
vn -0.0000 -0.8025 0.5967
vn 0.1350 -0.7220 0.6786
vn 0.1164 -0.8025 0.5852
vn 0.2648 -0.7220 0.6392
vn 0.2283 -0.8025 0.5513
vn 0.3844 -0.7220 0.5753
vn 0.3315 -0.8025 0.4961
vn 0.4892 -0.7220 0.4892
vn 0.4219 -0.8025 0.4219
vn 0.5753 -0.7220 0.3844
vn 0.4961 -0.8025 0.3315
vn 0.6392 -0.7220 0.2648
vn 0.5512 -0.8025 0.2283
vn 0.5851 -0.8025 0.1168
vn 0.6785 -0.7220 0.1355
vn 0.6919 -0.7220 0.0010
vn 0.5967 -0.8025 0.0008
vn 0.6787 -0.7220 -0.1345
vn 0.5853 -0.8025 -0.1160
vn 0.6392 -0.7220 -0.2648
vn 0.5512 -0.8025 -0.2283
vn 0.4961 -0.8025 -0.3315
vn 0.5753 -0.7220 -0.3844
vn 0.4892 -0.7220 -0.4892
vn 0.4219 -0.8025 -0.4219
vn 0.3844 -0.7220 -0.5753
vn 0.3315 -0.8025 -0.4961
vn 0.2648 -0.7220 -0.6392
vn 0.2283 -0.8025 -0.5512
vn 0.2974 -0.6293 -0.7180
vn 0.4318 -0.6293 -0.6462
vn 0.3176 -0.5577 -0.7668
vn 0.4612 -0.5577 -0.6902
vn 0.5869 -0.5577 -0.5869
vn 0.5495 -0.6293 -0.5495
vn 0.6902 -0.5577 -0.4612
vn 0.6462 -0.6293 -0.4318
vn 0.7668 -0.5577 -0.3176
vn 0.7180 -0.6293 -0.2974
vn 0.8142 -0.5577 -0.1613
vn 0.7624 -0.6292 -0.1511
vn 0.8300 -0.5577 0.0012
vn 0.7771 -0.6293 0.0011
vn 0.8140 -0.5577 0.1626
vn 0.7621 -0.6293 0.1522
vn 0.7668 -0.5577 0.3176
vn 0.7180 -0.6293 0.2974
vn 0.6902 -0.5577 0.4612
vn 0.6462 -0.6293 0.4318
vn 0.5869 -0.5577 0.5869
vn 0.5495 -0.6293 0.5495
vn 0.4612 -0.5577 0.6902
vn 0.4318 -0.6293 0.6462
vn 0.3176 -0.5577 0.7668
vn 0.2974 -0.6293 0.7180
vn 0.1619 -0.5577 0.8141
vn 0.1516 -0.6293 0.7623
vn -0.0000 -0.5577 0.8300
vn -0.0000 -0.6293 0.7772
vn -0.1619 -0.5577 0.8141
vn -0.1516 -0.6293 0.7623
vn -0.3175 -0.5578 0.7668
vn -0.1674 -0.5134 0.8417
vn -0.3282 -0.5135 0.7928
vn -0.4752 -0.5139 0.7142
vn -0.3314 -0.4990 0.8007
vn -0.4796 -0.4994 0.7215
vn -0.1690 -0.4988 0.8500
vn -0.6066 -0.5016 0.6168
vn -0.0000 -0.4989 0.8667
vn -0.0000 -0.5134 0.8581
vn 0.1691 -0.4988 0.8500
vn 0.1674 -0.5134 0.8417
vn 0.3316 -0.4989 0.8007
vn 0.3284 -0.5134 0.7928
vn 0.4815 -0.4989 0.7206
vn 0.4768 -0.5134 0.7135
vn 0.6128 -0.4989 0.6128
vn 0.6068 -0.5134 0.6068
vn 0.7206 -0.4989 0.4815
vn 0.7135 -0.5134 0.4768
vn 0.8007 -0.4989 0.3317
vn 0.7928 -0.5134 0.3284
vn 0.8499 -0.4989 0.1698
vn 0.8415 -0.5134 0.1681
vn 0.8666 -0.4989 0.0015
vn 0.8581 -0.5134 0.0014
vn 0.8418 -0.5134 -0.1668
vn 0.8502 -0.4988 -0.1684
vn 0.8007 -0.4989 -0.3316
vn 0.7928 -0.5134 -0.3284
vn 0.7206 -0.4989 -0.4815
vn 0.7135 -0.5134 -0.4768
vn 0.6128 -0.4989 -0.6128
vn 0.6068 -0.5134 -0.6068
vn 0.4815 -0.4989 -0.7206
vn 0.4768 -0.5134 -0.7135
vn 0.3317 -0.4989 -0.8007
vn 0.3284 -0.5134 -0.7928
vt 0.060460 0.826222
vt 0.060460 0.826810
vt 0.056690 0.826810
vt 0.056690 0.826212
vt 0.064219 0.826222
vt 0.064219 0.826820
vt 0.920252 0.410556
vt 0.920252 0.410177
vt 0.923842 0.410506
vt 0.923772 0.410895
vt 0.916732 0.410935
vt 0.916652 0.410556
vt 0.920242 0.408861
vt 0.924091 0.409229
vt 0.916393 0.409279
vt 0.913202 0.411633
vt 0.912693 0.410416
vt 0.913351 0.411982
vt 0.910031 0.413358
vt 0.909303 0.412271
vt 0.910250 0.413667
vt 0.052921 0.826810
vt 0.052921 0.826212
vt 0.049161 0.826800
vt 0.049161 0.826202
vt 0.907518 0.415931
vt 0.907239 0.415651
vt 0.045392 0.826790
vt 0.045402 0.826192
vt 0.049132 0.843513
vt 0.045352 0.843503
vt 0.052891 0.843513
vt 0.041633 0.826780
vt 0.041633 0.826182
vt 0.041583 0.843493
vt 0.056670 0.843523
vt 0.060440 0.843523
vt 0.064219 0.843523
vt 0.067978 0.826820
vt 0.071748 0.826810
vt 0.071758 0.843523
vt 0.067988 0.843523
vt 0.075517 0.826810
vt 0.075537 0.843523
vt 0.079277 0.826800
vt 0.079307 0.843513
vt 0.083046 0.826800
vt 0.086805 0.826790
vt 0.086845 0.843493
vt 0.083076 0.843503
vt 0.090635 0.826780
vt 0.090625 0.843483
vt 0.094344 0.826760
vt 0.094404 0.843473
vt 0.098104 0.826750
vt 0.101863 0.826730
vt 0.101943 0.843443
vt 0.098173 0.843453
vt 0.105632 0.826710
vt 0.105712 0.843423
vt 0.109402 0.826691
vt 0.109491 0.843403
vt 0.113161 0.826671
vt 0.116931 0.826651
vt 0.117030 0.843364
vt 0.113261 0.843383
vt 0.120690 0.826631
vt 0.120800 0.843314
vt 0.000209 0.826561
vt 0.003979 0.826591
vt 0.003849 0.843294
vt 0.000090 0.843254
vt 0.007748 0.826621
vt 0.011508 0.826631
vt 0.011398 0.843343
vt 0.007619 0.843314
vt 0.015277 0.826661
vt 0.015177 0.843364
vt 0.019036 0.826681
vt 0.018937 0.843393
vt 0.022806 0.826700
vt 0.026565 0.826720
vt 0.026485 0.843433
vt 0.022716 0.843413
vt 0.030275 0.826740
vt 0.030265 0.843443
vt 0.034094 0.826750
vt 0.034034 0.843463
vt 0.037863 0.826770
vt 0.037804 0.843473
vt 0.037863 0.826172
vt 0.034094 0.826152
vt 0.903290 0.421655
vt 0.903639 0.421804
vt 0.902631 0.425195
vt 0.902263 0.425115
vt 0.904975 0.418464
vt 0.905294 0.418683
vt 0.902063 0.421166
vt 0.903878 0.417736
vt 0.900976 0.424876
vt 0.906311 0.414734
vt 0.904028 0.412480
vt 0.901195 0.415971
vt 0.899091 0.419949
vt 0.907498 0.409598
vt 0.911447 0.407454
vt 0.901006 0.409489
vt 0.905114 0.406088
vt 0.909801 0.403535
vt 0.914897 0.401970
vt 0.915745 0.406128
vt 0.920202 0.401421
vt 0.920222 0.405649
vt 0.924700 0.406068
vt 0.925497 0.401910
vt 0.920172 0.397004
vt 0.926345 0.397582
vt 0.914010 0.397652
vt 0.920152 0.392516
vt 0.927193 0.393174
vt 0.913122 0.393244
vt 0.906361 0.395328
vt 0.908096 0.399467
vt 0.900148 0.398709
vt 0.902651 0.402438
vt 0.894704 0.403216
vt 0.897875 0.406387
vt 0.890236 0.408721
vt 0.893986 0.411204
vt 0.897655 0.413627
vt 0.895162 0.418344
vt 0.891084 0.416679
vt 0.897815 0.424267
vt 0.893647 0.423460
vt 0.889319 0.422622
vt 0.886925 0.414973
vt 0.884911 0.421764
vt 0.884253 0.428914
vt 0.888730 0.428884
vt 0.893148 0.428854
vt 0.884991 0.435865
vt 0.889379 0.434957
vt 0.893696 0.434080
vt 0.897386 0.428815
vt 0.897855 0.433232
vt 0.895272 0.439176
vt 0.891213 0.440891
vt 0.899191 0.437520
vt 0.902153 0.436274
vt 0.901006 0.432574
vt 0.900607 0.428785
vt 0.903369 0.435765
vt 0.902302 0.432305
vt 0.901923 0.428775
vt 0.902302 0.428775
vt 0.902671 0.432235
vt 0.903718 0.435605
vt 0.905095 0.438936
vt 0.904008 0.439664
vt 0.905414 0.438717
vt 0.022806 0.826112
vt 0.026575 0.826122
vt 0.019036 0.826092
vt 0.907677 0.441439
vt 0.907398 0.441708
vt 0.015287 0.826072
vt 0.011518 0.826042
vt 0.910420 0.443663
vt 0.910210 0.443982
vt 0.906481 0.442646
vt 0.909492 0.445079
vt 0.913411 0.445667
vt 0.912923 0.446874
vt 0.913551 0.445308
vt 0.916871 0.446694
vt 0.916622 0.447971
vt 0.916951 0.446315
vt 0.007748 0.826022
vt 0.003979 0.825992
vt 0.920471 0.446645
vt 0.920471 0.447024
vt 0.000209 0.825963
vt 0.120700 0.826032
vt 0.116931 0.826062
vt 0.923982 0.446266
vt 0.924061 0.446645
vt 0.920481 0.448340
vt 0.924331 0.447921
vt 0.927522 0.445578
vt 0.928030 0.446784
vt 0.927362 0.445229
vt 0.930683 0.443842
vt 0.931421 0.444929
vt 0.930473 0.443533
vt 0.113161 0.826082
vt 0.109392 0.826102
vt 0.933196 0.441270
vt 0.933465 0.441549
vt 0.105632 0.826112
vt 0.101863 0.826132
vt 0.935410 0.438527
vt 0.935739 0.438737
vt 0.934402 0.442466
vt 0.936836 0.439455
vt 0.937424 0.435536
vt 0.938641 0.436034
vt 0.937065 0.435406
vt 0.938451 0.432085
vt 0.939738 0.432325
vt 0.938072 0.432006
vt 0.098104 0.826152
vt 0.094334 0.826162
vt 0.938401 0.428545
vt 0.938780 0.428545
vt 0.090635 0.826182
vt 0.086805 0.826192
vt 0.938022 0.424975
vt 0.938411 0.424896
vt 0.940087 0.428545
vt 0.939688 0.424626
vt 0.937344 0.421445
vt 0.938541 0.420937
vt 0.936985 0.421595
vt 0.935609 0.418264
vt 0.936696 0.417536
vt 0.935300 0.418484
vt 0.083046 0.826202
vt 0.079277 0.826202
vt 0.933036 0.415761
vt 0.933306 0.415492
vt 0.075517 0.826212
vt 0.071748 0.826212
vt 0.930284 0.413537
vt 0.930503 0.413218
vt 0.934233 0.414564
vt 0.931221 0.412121
vt 0.927302 0.411533
vt 0.927801 0.410326
vt 0.927163 0.411892
vt 0.067978 0.826222
vt 0.929018 0.407345
vt 0.932996 0.409439
vt 0.930613 0.403416
vt 0.935330 0.405899
vt 0.936487 0.412271
vt 0.939478 0.409249
vt 0.942879 0.413348
vt 0.939368 0.415731
vt 0.941502 0.419690
vt 0.945422 0.418035
vt 0.946987 0.423121
vt 0.942839 0.423978
vt 0.943307 0.428525
vt 0.947556 0.428505
vt 0.947067 0.433741
vt 0.942909 0.432933
vt 0.941612 0.437241
vt 0.945541 0.438836
vt 0.943068 0.443553
vt 0.939518 0.441220
vt 0.936696 0.444720
vt 0.939717 0.447702
vt 0.935619 0.451102
vt 0.933236 0.447592
vt 0.929277 0.449746
vt 0.930932 0.453645
vt 0.925846 0.455221
vt 0.924979 0.451072
vt 0.920511 0.451551
vt 0.920541 0.455789
vt 0.915236 0.455300
vt 0.916034 0.451132
vt 0.911706 0.449866
vt 0.910120 0.453795
vt 0.905404 0.451312
vt 0.907727 0.447771
vt 0.904217 0.444939
vt 0.901245 0.447961
vt 0.897835 0.443862
vt 0.901345 0.441479
vt 0.898154 0.451102
vt 0.894185 0.446345
vt 0.890476 0.448848
vt 0.887085 0.442626
vt 0.895003 0.454293
vt 0.886736 0.451391
vt 0.882937 0.444361
vt 0.880583 0.436752
vt 0.879736 0.428944
vt 0.876066 0.437650
vt 0.875119 0.428964
vt 0.878699 0.446156
vt 0.875916 0.419969
vt 0.880474 0.420877
vt 0.878419 0.411453
vt 0.882737 0.413238
vt 0.882568 0.403605
vt 0.886447 0.406198
vt 0.888162 0.396715
vt 0.891483 0.400005
vt 0.895003 0.391060
vt 0.897606 0.394929
vt 0.902811 0.386832
vt 0.904616 0.391140
vt 0.911297 0.384210
vt 0.912215 0.388797
vt 0.920122 0.383292
vt 0.920142 0.387969
vt 0.928060 0.388707
vt 0.928958 0.384120
vt 0.920103 0.378476
vt 0.929885 0.379383
vt 0.910340 0.379483
vt 0.920093 0.373520
vt 0.930832 0.374527
vt 0.909353 0.374636
vt 0.899042 0.377807
vt 0.900956 0.382375
vt 0.889548 0.382943
vt 0.892310 0.387052
vt 0.881241 0.389814
vt 0.884752 0.393304
vt 0.874440 0.398180
vt 0.878559 0.400933
vt 0.869424 0.407704
vt 0.873972 0.409608
vt 0.866443 0.418055
vt 0.871239 0.419022
vt 0.865545 0.428994
vt 0.870382 0.428984
vt 0.866732 0.439544
vt 0.871449 0.438577
vt 0.869923 0.449886
vt 0.874371 0.447981
vt 0.874969 0.459429
vt 0.878988 0.456676
vt 0.882907 0.453994
vt 0.888551 0.460865
vt 0.885190 0.464285
vt 0.891812 0.457534
vt 0.895452 0.466459
vt 0.898014 0.462540
vt 0.900507 0.458751
vt 0.902981 0.454991
vt 0.906770 0.462031
vt 0.905065 0.466250
vt 0.908465 0.457873
vt 0.913561 0.464046
vt 0.914408 0.459628
vt 0.920611 0.464684
vt 0.920581 0.460197
vt 0.927631 0.463946
vt 0.926734 0.459538
vt 0.934392 0.461852
vt 0.932647 0.457714
vt 0.940605 0.458471
vt 0.938082 0.454752
vt 0.946050 0.453954
vt 0.942849 0.450793
vt 0.950487 0.448450
vt 0.946748 0.445976
vt 0.953798 0.442197
vt 0.949630 0.440502
vt 0.951395 0.434568
vt 0.955783 0.435406
vt 0.956441 0.428475
vt 0.951963 0.428486
vt 0.955713 0.421345
vt 0.951315 0.422243
vt 0.953619 0.414584
vt 0.949470 0.416330
vt 0.946538 0.410885
vt 0.950248 0.408372
vt 0.945731 0.402927
vt 0.942580 0.406118
vt 0.940226 0.398480
vt 0.937753 0.402219
vt 0.933974 0.395179
vt 0.932278 0.399337
vt 0.935699 0.390971
vt 0.942739 0.394690
vt 0.937464 0.386643
vt 0.945322 0.390781
vt 0.952213 0.396375
vt 0.948932 0.399696
vt 0.957877 0.403216
vt 0.954037 0.405819
vt 0.962145 0.411004
vt 0.957807 0.412839
vt 0.964777 0.419501
vt 0.960180 0.420428
vt 0.965655 0.428475
vt 0.960988 0.428466
vt 0.964857 0.437171
vt 0.960260 0.436284
vt 0.962334 0.445687
vt 0.958006 0.443922
vt 0.958196 0.453545
vt 0.954287 0.450962
vt 0.952601 0.460436
vt 0.949281 0.457155
vt 0.945761 0.466120
vt 0.943158 0.462241
vt 0.937962 0.470348
vt 0.936158 0.466040
vt 0.929486 0.472981
vt 0.928559 0.468394
vt 0.920661 0.473918
vt 0.920631 0.469241
vt 0.911826 0.473100
vt 0.912703 0.468503
vt 0.903310 0.470587
vt 0.910898 0.477827
vt 0.901495 0.475045
vt 0.892809 0.470478
vt 0.899630 0.479632
vt 0.890087 0.474616
vt 0.909971 0.482694
vt 0.881750 0.467815
vt 0.920711 0.483681
vt 0.920691 0.478725
vt 0.931441 0.482554
vt 0.930453 0.477698
vt 0.941742 0.479363
vt 0.939837 0.474796
vt 0.951235 0.474207
vt 0.948463 0.470109
vt 0.959542 0.467317
vt 0.956022 0.463836
vt 0.966333 0.458930
vt 0.962205 0.456208
vt 0.971369 0.449397
vt 0.966792 0.447512
vt 0.974440 0.439046
vt 0.969594 0.438089
vt 0.975497 0.428466
vt 0.970511 0.428475
vt 0.969464 0.418543
vt 0.974281 0.417556
vt 0.971139 0.407235
vt 0.966582 0.409150
vt 0.965984 0.397752
vt 0.961885 0.400514
vt 0.959103 0.389445
vt 0.955613 0.392955
vt 0.950717 0.382644
vt 0.947984 0.386772
vt 0.941173 0.377598
vt 0.939299 0.382185
vt 0.030275 0.826142
s 1
f 1/1/1 2/2/2 26/3/3 4/4/4
f 2/2/2 1/1/1 3/5/5 416/6/6
f 1/7/1 5/8/7 6/9/8 3/10/5
f 5/8/7 1/7/1 4/11/4 8/12/9
f 5/8/7 7/13/10 195/14/11 6/9/8
f 7/13/10 5/8/7 8/12/9 9/15/12
f 10/16/13 11/17/14 9/15/12 8/12/9
f 13/18/15 10/16/13 8/12/9 4/11/4
f 11/17/14 10/16/13 12/19/16 85/20/17
f 10/16/13 13/18/15 15/21/18 12/19/16
f 14/22/19 13/23/15 4/4/4 26/3/3
f 13/23/15 14/22/19 17/24/20 15/25/18
f 16/26/21 80/27/22 12/19/16 15/21/18
f 19/28/23 16/29/21 15/25/18 17/24/20
f 19/28/23 17/24/20 18/30/24 21/31/25
f 18/30/24 17/24/20 14/22/19 23/32/26
f 16/29/21 19/28/23 20/33/27 75/34/28
f 22/35/29 20/33/27 19/28/23 21/31/25
f 26/3/3 24/36/30 23/32/26 14/22/19
f 25/37/31 24/36/30 26/3/3 2/2/2
f 2/2/2 416/6/6 27/38/32 25/37/31
f 29/39/33 31/40/34 30/41/35 28/42/36
f 27/38/32 416/6/6 29/39/33 28/42/36
f 30/41/35 31/40/34 33/43/37 32/44/38
f 33/43/37 185/45/39 34/46/40 32/44/38
f 36/47/41 38/48/42 37/49/43 35/50/44
f 34/46/40 185/45/39 36/47/41 35/50/44
f 37/49/43 38/48/42 40/51/45 39/52/46
f 40/51/45 173/53/47 41/54/48 39/52/46
f 43/55/49 45/56/50 44/57/51 42/58/52
f 41/54/48 173/53/47 43/55/49 42/58/52
f 44/57/51 45/56/50 47/59/53 46/60/54
f 47/59/53 161/61/55 48/62/56 46/60/54
f 50/63/57 52/64/58 51/65/59 49/66/60
f 48/62/56 161/61/55 50/63/57 49/66/60
f 51/65/59 52/64/58 54/67/61 53/68/62
f 54/69/61 149/70/63 55/71/64 53/72/62
f 57/73/65 59/74/66 58/75/67 56/76/68
f 55/71/64 149/70/63 57/73/65 56/76/68
f 58/75/67 59/74/66 61/77/69 60/78/70
f 61/77/69 137/79/71 62/80/72 60/78/70
f 64/81/73 66/82/74 65/83/75 63/84/76
f 62/80/72 137/79/71 64/81/73 63/84/76
f 65/83/75 66/82/74 68/85/77 67/86/78
f 68/85/77 72/87/79 69/88/80 67/86/78
f 71/89/81 20/33/27 22/35/29 70/90/82
f 69/88/80 72/87/79 71/89/81 70/90/82
f 73/91/83 71/89/81 72/87/79 74/92/84
f 71/89/81 73/91/83 75/34/28 20/33/27
f 76/93/85 73/94/83 74/95/84 78/96/86
f 73/94/83 76/93/85 79/97/87 75/98/28
f 76/93/85 77/99/88 81/100/89 79/97/87
f 77/99/88 76/93/85 78/96/86 414/101/90
f 80/27/22 16/26/21 75/98/28 79/97/87
f 83/102/91 80/27/22 79/97/87 81/100/89
f 84/103/92 83/102/91 81/100/89 82/104/93
f 77/99/88 111/105/94 82/104/93 81/100/89
f 83/102/91 84/103/92 86/106/95 85/20/17
f 80/27/22 83/102/91 85/20/17 12/19/16
f 88/107/96 11/17/14 85/20/17 86/106/95
f 84/103/92 108/108/97 87/109/98 86/106/95
f 89/110/99 88/107/96 86/106/95 87/109/98
f 89/110/99 91/111/100 90/112/101 88/107/96
f 9/15/12 11/17/14 88/107/96 90/112/101
f 91/111/100 94/113/102 92/114/103 90/112/101
f 7/13/10 9/15/12 90/112/101 92/114/103
f 7/13/10 92/114/103 93/115/104 195/14/11
f 92/114/103 94/113/102 95/116/105 93/115/104
f 95/116/105 94/113/102 96/117/106 97/118/107
f 94/113/102 91/111/100 99/119/108 96/117/106
f 98/120/109 337/121/110 97/118/107 96/117/106
f 100/122/111 98/120/109 96/117/106 99/119/108
f 102/123/112 100/122/111 99/119/108 101/124/113
f 91/111/100 89/110/99 101/124/113 99/119/108
f 104/125/114 102/123/112 101/124/113 103/126/115
f 89/110/99 87/109/98 103/126/115 101/124/113
f 106/127/116 104/125/114 103/126/115 105/128/117
f 87/109/98 108/108/97 105/128/117 103/126/115
f 258/129/118 106/127/116 105/128/117 107/130/119
f 108/108/97 109/131/120 107/130/119 105/128/117
f 108/108/97 84/103/92 82/104/93 109/131/120
f 109/131/120 110/132/121 113/133/122 107/130/119
f 111/105/94 110/132/121 109/131/120 82/104/93
f 110/132/121 111/105/94 415/134/123 112/135/124
f 110/132/121 112/135/124 115/136/125 113/133/122
f 114/137/126 258/129/118 107/130/119 113/133/122
f 116/138/127 114/137/126 113/133/122 115/136/125
f 118/139/128 116/138/127 115/136/125 117/140/129
f 112/135/124 120/141/130 117/140/129 115/136/125
f 246/142/131 118/139/128 117/140/129 119/143/132
f 120/141/130 122/144/133 119/143/132 117/140/129
f 121/145/134 120/141/130 112/135/124 415/134/123
f 120/141/130 121/145/134 124/146/135 122/144/133
f 122/144/133 123/147/136 243/148/137 119/143/132
f 125/149/138 123/147/136 122/144/133 124/146/135
f 127/150/139 125/149/138 124/146/135 126/151/140
f 121/145/134 128/152/141 126/151/140 124/146/135
f 132/153/142 127/150/139 126/151/140 129/154/143
f 128/152/141 130/155/144 129/154/143 126/151/140
f 130/155/144 413/156/145 131/157/146 129/154/143
f 134/158/147 132/153/142 129/154/143 131/157/146
f 127/150/139 132/153/142 133/159/148 238/160/149
f 132/153/142 134/158/147 135/161/150 133/159/148
f 64/81/73 134/162/147 131/163/146 66/82/74
f 134/162/147 64/81/73 137/79/71 135/164/150
f 136/165/151 139/166/152 133/159/148 135/161/150
f 61/77/69 136/167/151 135/164/150 137/79/71
f 136/167/151 61/77/69 59/74/66 138/168/153
f 139/166/152 136/165/151 138/169/153 141/170/154
f 139/166/152 140/171/155 238/160/149 133/159/148
f 140/171/155 139/166/152 141/170/154 142/172/156
f 143/173/157 144/174/158 142/172/156 141/170/154
f 146/175/159 143/173/157 141/170/154 138/169/153
f 144/174/158 143/173/157 145/176/160 229/177/161
f 143/173/157 146/175/159 147/178/162 145/176/160
f 57/73/65 146/179/159 138/168/153 59/74/66
f 146/179/159 57/73/65 149/70/63 147/180/162
f 148/181/163 151/182/164 145/176/160 147/178/162
f 54/69/61 148/183/163 147/180/162 149/70/63
f 148/184/163 54/67/61 52/64/58 150/185/165
f 151/182/164 148/181/163 150/186/165 153/187/166
f 151/182/164 152/188/167 229/177/161 145/176/160
f 152/188/167 151/182/164 153/187/166 154/189/168
f 155/190/169 156/191/170 154/189/168 153/187/166
f 158/192/171 155/190/169 153/187/166 150/186/165
f 156/191/170 155/190/169 157/193/172 220/194/173
f 155/190/169 158/192/171 159/195/174 157/193/172
f 50/63/57 158/196/171 150/185/165 52/64/58
f 158/196/171 50/63/57 161/61/55 159/197/174
f 160/198/175 163/199/176 157/193/172 159/195/174
f 47/59/53 160/200/175 159/197/174 161/61/55
f 160/200/175 47/59/53 45/56/50 162/201/177
f 163/199/176 160/198/175 162/202/177 165/203/178
f 163/199/176 164/204/179 220/194/173 157/193/172
f 164/204/179 163/199/176 165/203/178 166/205/180
f 167/206/181 168/207/182 166/205/180 165/203/178
f 170/208/183 167/206/181 165/203/178 162/202/177
f 168/207/182 167/206/181 169/209/184 211/210/185
f 167/206/181 170/208/183 171/211/186 169/209/184
f 43/55/49 170/212/183 162/201/177 45/56/50
f 170/212/183 43/55/49 173/53/47 171/213/186
f 172/214/187 175/215/188 169/209/184 171/211/186
f 40/51/45 172/216/187 171/213/186 173/53/47
f 172/216/187 40/51/45 38/48/42 174/217/189
f 175/215/188 172/214/187 174/218/189 177/219/190
f 175/215/188 176/220/191 211/210/185 169/209/184
f 176/220/191 175/215/188 177/219/190 178/221/192
f 179/222/193 180/223/194 178/221/192 177/219/190
f 182/224/195 179/222/193 177/219/190 174/218/189
f 180/223/194 179/222/193 181/225/196 202/226/197
f 179/222/193 182/224/195 183/227/198 181/225/196
f 36/47/41 182/228/195 174/217/189 38/48/42
f 182/228/195 36/47/41 185/45/39 183/229/198
f 184/230/199 187/231/200 181/225/196 183/227/198
f 33/43/37 184/232/199 183/229/198 185/45/39
f 184/232/199 33/43/37 31/40/34 186/233/201
f 187/231/200 184/230/199 186/234/201 189/235/202
f 187/231/200 188/236/203 202/226/197 181/225/196
f 188/236/203 187/231/200 189/235/202 190/237/204
f 191/238/205 192/239/206 190/237/204 189/235/202
f 193/240/207 191/238/205 189/235/202 186/234/201
f 192/239/206 191/238/205 6/9/8 195/14/11
f 191/238/205 193/240/207 3/10/5 6/9/8
f 29/39/33 193/241/207 186/233/201 31/40/34
f 193/241/207 29/39/33 416/6/6 3/5/5
f 192/239/206 194/242/208 197/243/209 190/237/204
f 194/242/208 192/239/206 195/14/11 93/115/104
f 194/242/208 196/244/210 198/245/211 197/243/209
f 196/244/210 194/242/208 93/115/104 95/116/105
f 199/246/212 188/236/203 190/237/204 197/243/209
f 200/247/213 199/246/212 197/243/209 198/245/211
f 199/246/212 200/247/213 203/248/214 201/249/215
f 188/236/203 199/246/212 201/249/215 202/226/197
f 204/250/216 180/223/194 202/226/197 201/249/215
f 205/251/217 204/250/216 201/249/215 203/248/214
f 205/251/217 207/252/218 206/253/219 204/250/216
f 180/223/194 204/250/216 206/253/219 178/221/192
f 208/254/220 176/220/191 178/221/192 206/253/219
f 209/255/221 208/254/220 206/253/219 207/252/218
f 209/255/221 212/256/222 210/257/223 208/254/220
f 176/220/191 208/254/220 210/257/223 211/210/185
f 213/258/224 168/207/182 211/210/185 210/257/223
f 214/259/225 213/258/224 210/257/223 212/256/222
f 213/258/224 214/259/225 216/260/226 215/261/227
f 168/207/182 213/258/224 215/261/227 166/205/180
f 217/262/228 164/204/179 166/205/180 215/261/227
f 218/263/229 217/262/228 215/261/227 216/260/226
f 217/262/228 218/263/229 221/264/230 219/265/231
f 164/204/179 217/262/228 219/265/231 220/194/173
f 222/266/232 156/191/170 220/194/173 219/265/231
f 223/267/233 222/266/232 219/265/231 221/264/230
f 222/266/232 223/267/233 225/268/234 224/269/235
f 156/191/170 222/266/232 224/269/235 154/189/168
f 226/270/236 152/188/167 154/189/168 224/269/235
f 227/271/237 226/270/236 224/269/235 225/268/234
f 226/270/236 227/271/237 230/272/238 228/273/239
f 152/188/167 226/270/236 228/273/239 229/177/161
f 231/274/240 144/174/158 229/177/161 228/273/239
f 232/275/241 231/274/240 228/273/239 230/272/238
f 231/274/240 232/275/241 234/276/242 233/277/243
f 144/174/158 231/274/240 233/277/243 142/172/156
f 235/278/244 140/171/155 142/172/156 233/277/243
f 236/279/245 235/278/244 233/277/243 234/276/242
f 235/278/244 236/279/245 239/280/246 237/281/247
f 140/171/155 235/278/244 237/281/247 238/160/149
f 125/149/138 127/150/139 238/160/149 237/281/247
f 123/147/136 125/149/138 237/281/247 239/280/246
f 239/280/246 236/279/245 242/282/248 240/283/249
f 123/147/136 239/280/246 240/283/249 243/148/137
f 241/284/250 244/285/251 243/148/137 240/283/249
f 300/286/252 241/284/250 240/283/249 242/282/248
f 244/285/251 246/142/131 119/143/132 243/148/137
f 244/285/251 241/284/250 297/287/253 245/288/254
f 246/142/131 244/285/251 245/288/254 247/289/255
f 118/139/128 246/142/131 247/289/255 249/290/256
f 248/291/257 250/292/258 249/290/256 247/289/255
f 294/293/259 248/291/257 247/289/255 245/288/254
f 250/292/258 252/294/260 251/295/261 249/290/256
f 116/138/127 118/139/128 249/290/256 251/295/261
f 252/294/260 254/296/262 253/297/263 251/295/261
f 114/137/126 116/138/127 251/295/261 253/297/263
f 254/296/262 256/298/264 255/299/265 253/297/263
f 258/129/118 114/137/126 253/297/263 255/299/265
f 256/298/264 259/300/266 257/301/267 255/299/265
f 106/127/116 258/129/118 255/299/265 257/301/267
f 259/300/266 261/302/268 260/303/269 257/301/267
f 104/125/114 106/127/116 257/301/267 260/303/269
f 261/302/268 263/304/270 262/305/271 260/303/269
f 102/123/112 104/125/114 260/303/269 262/305/271
f 263/304/270 265/306/272 264/307/273 262/305/271
f 100/122/111 102/123/112 262/305/271 264/307/273
f 265/306/272 268/308/274 266/309/275 264/307/273
f 98/120/109 100/122/111 264/307/273 266/309/275
f 337/121/110 98/120/109 266/309/275 267/310/276
f 268/308/274 269/311/277 267/310/276 266/309/275
f 269/311/277 268/308/274 270/312/278 271/313/279
f 268/308/274 265/306/272 273/314/280 270/312/278
f 272/315/281 412/316/282 271/313/279 270/312/278
f 274/317/283 272/315/281 270/312/278 273/314/280
f 276/318/284 274/317/283 273/314/280 275/319/285
f 265/306/272 263/304/270 275/319/285 273/314/280
f 278/320/286 276/318/284 275/319/285 277/321/287
f 263/304/270 261/302/268 277/321/287 275/319/285
f 280/322/288 278/320/286 277/321/287 279/323/289
f 261/302/268 259/300/266 279/323/289 277/321/287
f 282/324/290 280/322/288 279/323/289 281/325/291
f 259/300/266 256/298/264 281/325/291 279/323/289
f 284/326/292 282/324/290 281/325/291 283/327/293
f 256/298/264 254/296/262 283/327/293 281/325/291
f 286/328/294 284/326/292 283/327/293 285/329/295
f 254/296/262 252/294/260 285/329/295 283/327/293
f 288/330/296 286/328/294 285/329/295 287/331/297
f 252/294/260 250/292/258 287/331/297 285/329/295
f 290/332/298 288/330/296 287/331/297 289/333/299
f 250/292/258 248/291/257 289/333/299 287/331/297
f 292/334/300 290/332/298 289/333/299 291/335/301
f 248/291/257 294/293/259 291/335/301 289/333/299
f 380/336/302 292/334/300 291/335/301 293/337/303
f 294/293/259 295/338/304 293/337/303 291/335/301
f 295/338/304 294/293/259 245/288/254 297/287/253
f 295/338/304 296/339/305 378/340/306 293/337/303
f 296/339/305 295/338/304 297/287/253 298/341/307
f 241/284/250 300/286/252 298/341/307 297/287/253
f 372/342/308 296/339/305 298/341/307 299/343/309
f 300/286/252 301/344/310 299/343/309 298/341/307
f 301/344/310 300/286/252 242/282/248 303/345/311
f 301/344/310 302/346/312 370/347/313 299/343/309
f 302/346/312 301/344/310 303/345/311 304/348/314
f 234/276/242 232/275/241 304/348/314 303/345/311
f 236/279/245 234/276/242 303/345/311 242/282/248
f 306/349/315 302/346/312 304/348/314 305/350/316
f 232/275/241 230/272/238 305/350/316 304/348/314
f 308/351/317 306/349/315 305/350/316 307/352/318
f 230/272/238 227/271/237 307/352/318 305/350/316
f 310/353/319 308/351/317 307/352/318 309/354/320
f 227/271/237 225/268/234 309/354/320 307/352/318
f 312/355/321 310/353/319 309/354/320 311/356/322
f 225/268/234 223/267/233 311/356/322 309/354/320
f 314/357/323 312/355/321 311/356/322 313/358/324
f 223/267/233 221/264/230 313/358/324 311/356/322
f 316/359/325 314/357/323 313/358/324 315/360/326
f 221/264/230 218/263/229 315/360/326 313/358/324
f 318/361/327 316/359/325 315/360/326 317/362/328
f 218/263/229 216/260/226 317/362/328 315/360/326
f 320/363/329 318/361/327 317/362/328 319/364/330
f 216/260/226 214/259/225 319/364/330 317/362/328
f 320/363/329 319/364/330 321/365/331 322/366/332
f 212/256/222 321/365/331 319/364/330 214/259/225
f 324/367/333 322/366/332 321/365/331 323/368/334
f 212/256/222 209/255/221 323/368/334 321/365/331
f 326/369/335 324/367/333 323/368/334 325/370/336
f 209/255/221 207/252/218 325/370/336 323/368/334
f 328/371/337 326/369/335 325/370/336 327/372/338
f 207/252/218 205/251/217 327/372/338 325/370/336
f 328/371/337 327/372/338 329/373/339 330/374/340
f 205/251/217 203/248/214 329/373/339 327/372/338
f 332/375/341 330/374/340 329/373/339 331/376/342
f 203/248/214 200/247/213 331/376/342 329/373/339
f 334/377/343 332/375/341 331/376/342 333/378/344
f 200/247/213 198/245/211 333/378/344 331/376/342
f 336/379/345 334/377/343 333/378/344 335/380/346
f 198/245/211 196/244/210 335/380/346 333/378/344
f 337/121/110 336/379/345 335/380/346 97/118/107
f 196/244/210 95/116/105 97/118/107 335/380/346
f 336/379/345 337/121/110 267/310/276 338/381/347
f 334/377/343 336/379/345 338/381/347 340/382/348
f 339/383/349 341/384/350 340/382/348 338/381/347
f 269/311/277 339/383/349 338/381/347 267/310/276
f 341/384/350 343/385/351 342/386/352 340/382/348
f 332/375/341 334/377/343 340/382/348 342/386/352
f 343/385/351 345/387/353 344/388/354 342/386/352
f 330/374/340 332/375/341 342/386/352 344/388/354
f 347/389/355 346/390/356 344/388/354 345/387/353
f 328/371/337 330/374/340 344/388/354 346/390/356
f 347/389/355 349/391/357 348/392/358 346/390/356
f 326/369/335 328/371/337 346/390/356 348/392/358
f 349/391/357 351/393/359 350/394/360 348/392/358
f 324/367/333 326/369/335 348/392/358 350/394/360
f 351/393/359 353/395/361 352/396/362 350/394/360
f 322/366/332 324/367/333 350/394/360 352/396/362
f 353/395/361 355/397/363 354/398/364 352/396/362
f 320/363/329 322/366/332 352/396/362 354/398/364
f 355/397/363 357/399/365 356/400/366 354/398/364
f 318/361/327 320/363/329 354/398/364 356/400/366
f 357/399/365 359/401/367 358/402/368 356/400/366
f 316/359/325 318/361/327 356/400/366 358/402/368
f 359/401/367 361/403/369 360/404/370 358/402/368
f 314/357/323 316/359/325 358/402/368 360/404/370
f 361/403/369 363/405/371 362/406/372 360/404/370
f 312/355/321 314/357/323 360/404/370 362/406/372
f 363/405/371 365/407/373 364/408/374 362/406/372
f 310/353/319 312/355/321 362/406/372 364/408/374
f 365/407/373 367/409/375 366/410/376 364/408/374
f 308/351/317 310/353/319 364/408/374 366/410/376
f 367/409/375 369/411/377 368/412/378 366/410/376
f 306/349/315 308/351/317 366/410/376 368/412/378
f 369/411/377 371/413/379 370/347/313 368/412/378
f 302/346/312 306/349/315 368/412/378 370/347/313
f 371/413/379 372/342/308 299/343/309 370/347/313
f 371/413/379 369/411/377 375/414/380 373/415/381
f 372/342/308 371/413/379 373/415/381 376/416/382
f 374/417/383 377/418/384 376/416/382 373/415/381
f 381/419/385 374/417/383 373/415/381 375/414/380
f 377/418/384 379/420/386 378/340/306 376/416/382
f 296/339/305 372/342/308 376/416/382 378/340/306
f 379/420/386 380/336/302 293/337/303 378/340/306
f 383/421/387 381/419/385 375/414/380 382/422/388
f 369/411/377 367/409/375 382/422/388 375/414/380
f 385/423/389 383/421/387 382/422/388 384/424/390
f 367/409/375 365/407/373 384/424/390 382/422/388
f 387/425/391 385/423/389 384/424/390 386/426/392
f 365/407/373 363/405/371 386/426/392 384/424/390
f 389/427/393 387/425/391 386/426/392 388/428/394
f 363/405/371 361/403/369 388/428/394 386/426/392
f 391/429/395 389/427/393 388/428/394 390/430/396
f 361/403/369 359/401/367 390/430/396 388/428/394
f 393/431/397 391/429/395 390/430/396 392/432/398
f 359/401/367 357/399/365 392/432/398 390/430/396
f 395/433/399 393/431/397 392/432/398 394/434/400
f 357/399/365 355/397/363 394/434/400 392/432/398
f 397/435/401 395/433/399 394/434/400 396/436/402
f 355/397/363 353/395/361 396/436/402 394/434/400
f 399/437/403 397/435/401 396/436/402 398/438/404
f 353/395/361 351/393/359 398/438/404 396/436/402
f 399/437/403 398/438/404 400/439/405 401/440/406
f 349/391/357 400/439/405 398/438/404 351/393/359
f 403/441/407 401/440/406 400/439/405 402/442/408
f 349/391/357 347/389/355 402/442/408 400/439/405
f 405/443/409 403/441/407 402/442/408 404/444/410
f 347/389/355 345/387/353 404/444/410 402/442/408
f 407/445/411 405/443/409 404/444/410 406/446/412
f 345/387/353 343/385/351 406/446/412 404/444/410
f 409/447/413 407/445/411 406/446/412 408/448/414
f 343/385/351 341/384/350 408/448/414 406/446/412
f 411/449/415 409/447/413 408/448/414 410/450/416
f 341/384/350 339/383/349 410/450/416 408/448/414
f 412/316/282 411/449/415 410/450/416 271/313/279
f 339/383/349 269/311/277 271/313/279 410/450/416
f 413/451/145 68/85/77 66/82/74 131/163/146
f 68/85/77 413/451/145 74/92/84 72/87/79
f 413/156/145 130/155/144 78/96/86 74/95/84
f 130/155/144 128/152/141 414/101/90 78/96/86
f 128/152/141 121/145/134 415/134/123 414/101/90
f 111/105/94 77/99/88 414/101/90 415/134/123
