# Blender 4.5.3 LTS
# www.blender.org
o Decal-Joystick-Right-Ring
v 34.250262 -28.776374 -0.252106
v 33.587131 -28.776374 3.081683
v 31.701985 -28.775174 5.911219
v 28.874179 -28.775160 7.800564
v 25.538652 -28.775141 8.464120
v 22.203005 -28.775089 7.800839
v 19.378611 -28.776374 5.907930
v 17.490168 -28.776374 3.081683
v 16.820989 -28.774865 -0.252106
v 17.484252 -28.774701 -3.588353
v 19.373913 -28.774634 -6.416847
v 22.202269 -28.774616 -8.306828
v 25.538652 -28.774664 -8.970365
v 28.872443 -28.776374 -8.300588
v 31.698696 -28.776374 -6.412145
v 33.587131 -28.776374 -3.585894
v 33.016033 -31.998402 -0.252080
v 32.446849 -31.998402 2.609387
v 30.825962 -31.998406 5.035221
v 28.402121 -32.005685 6.660971
v 25.538660 -32.005729 7.230583
v 22.675137 -32.005893 6.661076
v 20.251357 -31.998406 5.035221
v 18.630468 -31.998402 2.609387
v 18.055384 -32.006683 -0.252080
v 18.624892 -32.006799 -3.115852
v 20.247045 -32.006881 -5.543698
v 22.674848 -32.006918 -7.165920
v 25.538660 -32.006895 -7.735529
v 28.402421 -32.006821 -7.165805
v 30.825966 -31.998406 -5.539380
v 32.446853 -31.998406 -3.113546
v 31.736742 -32.063255 -0.252102
v 31.264938 -32.063255 2.119805
v 29.921367 -32.063255 4.130609
v 27.909448 -32.072963 5.471501
v 25.538652 -32.072941 5.943056
v 23.167853 -32.072919 5.471505
v 21.155943 -32.063255 4.130605
v 19.812369 -32.063255 2.119805
v 19.343379 -32.072680 -0.252098
v 19.814941 -32.072513 -2.622948
v 21.157894 -32.072401 -4.632876
v 23.167792 -32.072393 -5.975862
v 25.538652 -32.072461 -6.447431
v 27.909494 -32.072587 -5.975809
v 29.921367 -32.063259 -4.634809
v 31.264941 -32.063259 -2.624006
v 30.646662 -31.530420 -0.252095
v 30.257828 -31.530323 1.702643
v 29.150550 -31.530319 3.359794
v 27.493167 -31.540497 4.466503
v 25.538652 -31.540497 4.855290
v 23.584142 -31.540526 4.466503
v 21.926754 -31.530319 3.359794
v 20.819481 -31.530379 1.702651
v 20.431192 -31.541491 -0.252046
v 20.819730 -31.543820 -2.206687
v 21.926894 -31.544643 -3.863845
v 23.583981 -31.544747 -4.971099
v 25.538652 -31.544736 -5.359907
v 27.493329 -31.544620 -4.971091
v 29.150748 -31.533467 -3.864125
v 30.257904 -31.531202 -2.206825
v 31.008932 -31.617811 -0.252102
v 30.592532 -31.617811 1.841280
v 29.406722 -31.617811 3.615967
v 27.629753 -31.626629 4.796266
v 25.538652 -31.626595 5.212239
v 23.447507 -31.626506 4.796382
v 21.670585 -31.617811 3.615967
v 20.484776 -31.617811 1.841280
v 20.073819 -31.625929 -0.252098
v 20.489729 -31.625727 -2.343450
v 21.674306 -31.625590 -4.116439
v 23.447278 -31.625560 -5.301137
v 25.538652 -31.625642 -5.717103
v 27.629991 -31.625809 -5.301036
v 29.406724 -31.617815 -4.120172
v 30.592532 -31.617815 -2.345484
v 33.512510 -31.334749 -0.252095
v 33.567081 -29.622518 3.073379
v 31.689356 -29.624749 5.898587
v 28.867387 -29.624712 7.784165
v 25.538652 -29.624746 8.446436
v 22.209752 -29.624827 7.784571
v 19.393956 -29.622518 5.892586
v 17.510218 -29.622518 3.073379
v 16.838637 -29.625219 -0.252106
v 17.500560 -29.625237 -3.581584
v 19.386440 -29.625275 -6.404315
v 22.209096 -29.625282 -8.290373
v 25.538652 -29.625263 -8.952510
v 28.864143 -29.622518 -8.280535
v 31.683351 -29.622518 -6.396801
v 33.567081 -29.622518 -3.577587
v 34.228563 -29.622518 -0.252106
v 32.905541 -31.334749 2.799369
v 31.179709 -31.337003 5.388956
v 28.593083 -31.339245 7.121942
v 25.538656 -31.339282 7.729567
v 22.484153 -31.339417 7.122140
v 19.900291 -31.334752 5.386274
v 18.171777 -31.334749 2.799369
v 17.555918 -31.340016 -0.252091
v 18.163270 -31.340124 -3.307071
v 19.893636 -31.340236 -5.897113
v 22.483568 -31.340288 -7.627711
v 25.538656 -31.340251 -8.235280
v 28.593597 -31.340154 -7.627365
v 31.177023 -31.334752 -5.890456
v 32.905541 -31.334752 -3.303551
v 31.352568 -31.846566 -0.252102
v 30.910011 -31.846566 1.972787
v 29.649711 -31.846566 3.858957
v 27.761261 -31.855418 5.113750
v 25.538652 -31.855392 5.555883
v 23.315999 -31.855287 5.113855
v 21.427593 -31.846566 3.858953
v 20.167294 -31.846566 1.972787
v 19.730176 -31.854714 -0.252098
v 20.172238 -31.854520 -2.474957
v 21.431320 -31.854393 -4.359417
v 23.315768 -31.854341 -5.618621
v 25.538652 -31.854386 -6.060768
v 27.761513 -31.854539 -5.618554
v 29.649711 -31.846570 -4.363157
v 30.910012 -31.846570 -2.476987
v 32.177943 -32.094622 -0.252098
v 31.672555 -32.094622 2.288647
v 30.233338 -32.094622 4.442587
v 28.079397 -32.104614 5.881805
v 25.538654 -32.104614 6.387189
v 22.997906 -32.104614 5.881805
v 20.843967 -32.094622 4.442587
v 19.404751 -32.094622 2.288647
v 18.899365 -32.104599 -0.252098
v 19.404753 -32.104617 -2.792847
v 20.843967 -32.104617 -4.946787
v 22.997906 -32.104617 -6.386001
v 25.538654 -32.104617 -6.891385
v 28.079401 -32.104617 -6.386001
v 30.233343 -32.094626 -4.946784
v 31.672555 -32.094626 -2.792843
v 32.038654 -32.094622 2.440303
v 30.513541 -32.094622 4.722796
v 28.231050 -32.104606 6.247919
v 25.538660 -32.104606 6.783470
v 22.846271 -32.104606 6.247919
v 20.563780 -32.094622 4.722800
v 19.038667 -32.094622 2.440303
v 18.503110 -32.104614 -0.252080
v 19.038658 -32.104617 -2.944470
v 20.563769 -32.104617 -5.226970
v 22.846268 -32.104617 -6.752082
v 25.538660 -32.104617 -7.287626
v 28.231050 -32.104617 -6.752082
v 30.513545 -32.094626 -5.226959
v 32.038654 -32.094626 -2.944466
v 32.574202 -32.094622 -0.252083
v 33.289059 -30.509524 -3.462423
v 31.470562 -30.509524 -6.184005
v 28.750488 -30.511171 -8.006160
v 25.538652 -30.513671 -8.651149
v 22.324420 -30.513708 -8.011941
v 19.599571 -30.513659 -6.191187
v 17.779076 -30.513574 -3.466208
v 17.140106 -30.513507 -0.252098
v 17.788245 -30.509524 2.958223
v 19.606750 -30.509524 5.679801
v 22.325075 -30.513011 7.506154
v 25.538652 -30.512907 8.145179
v 28.752136 -30.512877 7.505919
v 31.476396 -30.512955 5.685634
v 33.289059 -30.509524 2.958223
v 33.927630 -30.509524 -0.252102
v 34.170403 -29.144142 1.464854
v 32.856296 -29.144142 4.637386
v 30.433045 -29.144004 7.072866
v 27.257337 -29.144004 8.388295
v 23.819934 -29.144004 8.388452
v 20.643977 -29.144079 7.073286
v 18.221005 -29.144142 4.637386
v 16.896910 -29.144075 1.466844
v 16.896502 -29.144027 -1.971137
v 18.211925 -29.143982 -5.147681
v 20.642982 -29.143982 -7.578988
v 23.819522 -29.144004 -8.894720
v 27.257734 -29.144068 -8.894496
v 30.428144 -29.144142 -7.569753
v 32.856296 -29.144142 -5.141598
v 34.170403 -29.144142 -1.969070
v 32.644476 -32.094190 1.161351
v 31.562678 -32.094190 3.773037
v 29.564821 -32.103481 5.773488
v 26.952458 -32.103503 6.855562
v 24.124864 -32.103563 6.855573
v 21.512487 -32.103682 5.773518
v 19.514647 -32.094190 3.773037
v 18.432602 -32.095457 1.161407
v 18.430901 -32.104036 -1.665898
v 19.512995 -32.104044 -4.278295
v 21.512446 -32.104044 -6.277729
v 24.124847 -32.104044 -7.359822
v 26.952478 -32.104044 -7.359826
v 29.563780 -32.094194 -6.276090
v 31.562678 -32.094194 -4.277193
v 32.644476 -32.094194 -1.665511
v 31.421303 -31.969728 0.918030
v 30.525723 -31.969728 3.080152
v 28.868032 -31.978855 4.730667
v 26.707783 -31.978837 5.625467
v 24.369517 -31.978777 5.625505
v 22.209206 -31.978680 4.730772
v 20.551578 -31.969728 3.080152
v 19.656000 -31.969728 0.918030
v 19.660686 -31.978118 -1.421310
v 20.555481 -31.977954 -3.581744
v 22.208975 -31.977868 -5.235315
v 24.369418 -31.977887 -6.130189
v 26.707874 -31.978021 -6.130152
v 28.870910 -31.969732 -5.239171
v 30.525725 -31.969732 -3.584352
v 31.421303 -31.969732 -1.422231
v 30.797365 -31.545503 0.793919
v 29.996772 -31.545503 2.726715
v 28.515577 -31.555539 4.203185
v 26.584015 -31.555509 5.003280
v 24.493284 -31.555424 5.003307
v 22.561663 -31.555252 4.203274
v 21.080532 -31.545503 2.726715
v 20.279949 -31.545537 0.793919
v 20.283017 -31.555051 -1.297519
v 21.083071 -31.555077 -3.229239
v 22.561521 -31.555077 -4.707687
v 24.493217 -31.555085 -5.507842
v 26.584086 -31.555092 -5.507842
v 28.517540 -31.545548 -4.710325
v 29.996832 -31.545529 -3.230960
v 30.797375 -31.545507 -1.298126
v 33.925804 -30.074809 1.416202
v 32.648943 -30.074809 4.498835
v 30.294276 -30.077573 6.865192
v 27.208605 -30.077584 8.143331
v 23.868670 -30.077629 8.143477
v 20.783541 -30.077335 6.864417
v 18.428364 -30.074809 4.498835
v 17.142055 -30.078069 1.418083
v 17.141656 -30.078128 -1.922366
v 18.419770 -30.078214 -5.008784
v 20.781872 -30.078270 -7.371128
v 23.868305 -30.078277 -8.649517
v 27.208961 -30.078259 -8.649298
v 30.289597 -30.074809 -7.362392
v 32.648943 -30.074809 -5.003043
v 33.925804 -30.074809 -1.920414
v 33.116314 -31.717127 1.255203
v 31.962688 -31.717127 4.040308
v 29.835058 -31.722518 6.177924
v 27.047348 -31.722518 7.332652
v 24.029949 -31.722592 7.332753
v 21.242104 -31.722801 6.178163
v 19.114633 -31.717127 4.040312
v 17.953088 -31.723252 1.256775
v 17.952803 -31.723401 -1.760997
v 19.107505 -31.723542 -4.549247
v 21.241437 -31.723628 -6.683331
v 24.029686 -31.723621 -7.838216
v 27.047598 -31.723546 -7.838048
v 29.831057 -31.717131 -6.676108
v 31.962688 -31.717131 -4.544482
v 33.116314 -31.717131 -1.759373
v 31.059551 -31.724220 0.846073
v 30.219044 -31.724224 2.875234
v 28.662701 -31.733061 4.423365
v 26.635676 -31.733053 5.262974
v 24.441621 -31.732982 5.263026
v 22.414512 -31.732856 4.423506
v 20.858261 -31.724224 2.875234
v 20.017767 -31.724224 0.846069
v 20.023045 -31.732234 -1.349230
v 20.862666 -31.732077 -3.376488
v 22.414222 -31.731999 -4.928135
v 24.441493 -31.732017 -5.767856
v 26.635797 -31.732144 -5.767812
v 28.665993 -31.724228 -4.932493
v 30.219044 -31.724224 -3.379439
v 31.059551 -31.724224 -1.350277
v 31.833391 -32.094578 0.999998
v 30.875075 -32.094578 3.313582
v 29.103943 -32.104539 5.083732
v 26.790616 -32.104539 6.041947
v 24.286687 -32.104539 6.041947
v 21.973360 -32.104539 5.083732
v 20.202232 -32.094578 3.313582
v 19.243914 -32.094578 0.999998
v 19.244607 -32.104468 -1.504064
v 20.202809 -32.104416 -3.817399
v 21.973354 -32.104394 -5.587947
v 24.286685 -32.104394 -6.546155
v 26.790622 -32.104431 -6.546155
v 29.104338 -32.094581 -5.588524
v 30.875075 -32.094581 -3.817782
v 31.833395 -32.094581 -1.504202
v 32.245393 -32.094622 1.081962
v 31.224351 -32.094622 3.546968
v 29.337716 -32.104614 5.433607
v 26.872709 -32.104614 6.454642
v 24.204605 -32.104614 6.454642
v 21.739598 -32.104614 5.433607
v 19.852965 -32.094622 3.546968
v 18.831923 -32.095144 1.081962
v 18.831923 -32.104617 -1.586143
v 19.852963 -32.104617 -4.051146
v 21.739596 -32.104617 -5.937785
v 24.204602 -32.104617 -6.958820
v 26.872710 -32.104617 -6.958820
v 29.337718 -32.094626 -5.937785
v 31.224354 -32.094626 -4.051149
v 32.245393 -32.094626 -1.586140
v 33.574714 -30.930974 1.346372
v 32.351299 -30.930974 4.299964
v 30.095169 -30.934915 6.567206
v 27.138687 -30.934915 7.791843
v 23.938599 -30.934975 7.791969
v 20.981941 -30.935176 6.567500
v 18.726009 -30.930974 4.299964
v 17.493691 -30.935534 1.348141
v 17.493324 -30.935630 -1.852405
v 18.717935 -30.935746 -4.809566
v 20.981110 -30.935824 -7.072952
v 23.938275 -30.935824 -8.297798
v 27.139004 -30.935779 -8.297589
v 30.090721 -30.930974 -7.064738
v 32.351299 -30.930974 -4.804161
v 33.574714 -30.930974 -1.850568
v 34.081268 -28.776381 1.447126
v 32.780732 -28.776381 4.586894
v 30.380204 -28.775156 6.993785
v 27.238776 -28.775160 8.294977
v 23.838497 -28.775126 8.295130
v 20.696848 -28.775126 6.994154
v 18.296569 -28.776381 4.586894
v 16.990294 -28.774921 1.448262
v 16.989918 -28.774780 -1.952559
v 18.291134 -28.774664 -5.094752
v 20.695905 -28.774616 -7.499777
v 23.838100 -28.774634 -8.801338
v 27.239160 -28.774750 -8.801152
v 30.377659 -28.776381 -7.494186
v 32.780732 -28.776381 -5.091109
v 34.081268 -28.776381 -1.951337
v 32.870977 -31.998402 1.206409
v 33.266219 -31.717127 -0.252087
v 33.671110 -29.144142 3.116466
v 31.754698 -31.998402 3.901343
v 31.769226 -29.144042 5.978465
v 29.695013 -32.005722 5.968336
v 28.910597 -29.144004 7.888481
v 26.998173 -32.005692 7.085397
v 25.538652 -29.144004 8.559286
v 24.079141 -32.005789 7.085464
v 22.166588 -29.144004 7.888767
v 21.382217 -32.006035 5.968481
v 19.314335 -29.144142 5.972206
v 19.322624 -31.998402 3.901343
v 17.406191 -29.144142 3.116469
v 18.204278 -32.001348 1.206819
v 16.725737 -29.144064 -0.252106
v 18.200471 -32.006746 -1.711727
v 17.396243 -29.143993 -3.624808
v 19.317572 -32.006836 -4.408885
v 19.306529 -29.143982 -6.484233
v 21.381834 -32.006903 -6.473203
v 22.165817 -29.143993 -8.394849
v 24.078985 -32.006918 -7.590384
v 25.538652 -29.144012 -9.065580
v 26.998331 -32.006866 -7.590324
v 28.907229 -29.144142 -8.384563
v 29.692090 -31.998406 -6.468118
v 31.762968 -29.144142 -6.476421
v 31.754702 -31.998406 -4.405503
v 33.671110 -29.144142 -3.620677
v 32.870977 -31.998406 -1.710568
v 31.616497 -32.063255 0.956855
v 31.957920 -32.094578 -0.252102
v 32.233454 -32.094190 2.520993
v 30.691202 -32.063255 3.190718
v 30.662633 -32.094190 4.871889
v 28.979854 -32.072963 4.898019
v 28.312444 -32.103488 6.444428
v 26.747045 -32.072956 5.822870
v 25.538662 -32.103518 6.996177
v 24.330261 -32.072934 5.822893
v 22.764866 -32.103623 6.444454
v 22.097430 -32.072896 4.898052
v 20.414694 -32.094190 4.871889
v 20.386106 -32.063255 3.190718
v 18.843874 -32.094190 2.520993
v 19.460808 -32.063255 0.956855
v 18.290303 -32.104032 -0.252080
v 19.463559 -32.072587 -1.460515
v 18.842041 -32.104044 -3.025905
v 20.388412 -32.072453 -3.693395
v 20.413275 -32.104044 -5.377442
v 22.097352 -32.072393 -5.402379
v 22.764833 -32.104044 -6.948688
v 24.330230 -32.072416 -6.327257
v 25.538662 -32.104044 -7.500433
v 26.747073 -32.072513 -6.327231
v 28.312492 -32.104036 -6.948688
v 28.981473 -32.063259 -5.404648
v 30.662633 -32.094194 -5.376049
v 30.691202 -32.063259 -3.694922
v 32.233454 -32.094194 -3.025149
v 31.616497 -32.063259 -1.461059
v 30.547558 -31.530338 0.744231
v 29.784997 -31.530319 2.585213
v 28.375630 -31.540497 3.993734
v 26.534866 -31.540497 4.756208
v 24.542439 -31.540519 4.756208
v 22.701633 -31.539230 3.993801
v 21.292308 -31.530319 2.585213
v 20.529737 -31.530572 0.744260
v 20.530143 -31.542646 -1.248293
v 21.292492 -31.544412 -3.089268
v 22.701445 -31.544736 -4.498281
v 24.542355 -31.544751 -5.260818
v 26.534951 -31.544717 -5.260818
v 28.376135 -31.534018 -4.498646
v 29.785152 -31.532338 -3.089447
v 30.547588 -31.530632 -1.248412
v 31.537688 -31.969728 -0.252102
v 31.081037 -31.969728 2.043627
v 29.780609 -31.969728 3.989853
v 27.832401 -31.978837 5.285486
v 25.538652 -31.978818 5.741756
v 23.244872 -31.978732 5.285568
v 21.296700 -31.969728 3.989853
v 19.996272 -31.969728 2.043627
v 19.544422 -31.978241 -0.252098
v 20.000643 -31.978028 -2.546035
v 21.299987 -31.977905 -4.490756
v 23.244691 -31.977861 -5.790204
v 25.538652 -31.977946 -6.246463
v 27.832578 -31.978106 -5.790119
v 29.780612 -31.969732 -4.494057
v 31.081037 -31.969732 -2.547831
v 33.440667 -30.074809 -3.525224
v 30.901398 -31.545500 -0.252102
v 30.493179 -31.545500 1.800127
v 29.330683 -31.545500 3.539923
v 27.589583 -31.555513 4.699263
v 25.538652 -31.555472 5.107268
v 23.487699 -31.555334 4.699338
v 21.746625 -31.545500 3.539923
v 20.584122 -31.545500 1.800127
v 20.179090 -31.555040 -0.252098
v 20.586983 -31.555066 -2.303161
v 21.748780 -31.555085 -4.042000
v 23.487573 -31.555085 -5.203844
v 25.538652 -31.555089 -5.611800
v 27.589728 -31.555103 -5.203840
v 29.330759 -31.545541 -4.044205
v 30.493206 -31.545515 -2.304342
v 30.902808 -31.617811 0.814892
v 30.086163 -31.617811 2.786446
v 28.573892 -31.626633 4.290457
v 26.604493 -31.626633 5.106207
v 24.472802 -31.626562 5.106262
v 22.503314 -31.626435 4.290603
v 20.991142 -31.617811 2.786446
v 20.174519 -31.617841 0.814888
v 20.179804 -31.625809 -1.318049
v 20.995560 -31.625657 -3.287692
v 22.503016 -31.625564 -4.795246
v 24.472674 -31.625590 -5.611100
v 26.604616 -31.625713 -5.611051
v 28.577204 -31.617815 -4.799612
v 30.086163 -31.617815 -3.290650
v 30.902808 -31.617815 -1.319096
v 33.733691 -30.930974 -0.252098
v 33.440667 -30.074809 3.021016
v 31.592573 -30.077629 5.801815
v 28.815000 -30.077584 7.657691
v 25.538652 -30.077592 8.309450
v 22.262202 -30.077696 7.657945
v 19.490712 -30.074809 5.795832
v 17.636639 -30.074809 3.021016
v 16.975749 -30.078128 -0.252106
v 17.627212 -30.078173 -3.529110
v 19.483331 -30.078251 -6.307424
v 22.261507 -30.078288 -8.163829
v 25.538652 -30.078259 -8.815565
v 28.811925 -30.074932 -8.154478
v 31.586590 -30.074809 -6.300040
v 34.341159 -29.144142 -0.252106
v 32.677992 -31.717127 2.705123
v 31.002869 -31.717120 5.212124
v 28.498630 -31.722507 6.893906
v 25.538656 -31.722540 7.482729
v 22.578621 -31.722697 6.894081
v 20.074447 -31.717127 5.212128
v 18.399323 -31.717127 2.705123
v 17.802891 -31.723341 -0.252087
v 18.391489 -31.723475 -3.212531
v 20.068343 -31.723587 -5.722415
v 22.578118 -31.723647 -7.399451
v 25.538656 -31.723595 -7.988226
v 28.499075 -31.723483 -7.399153
v 31.002873 -31.717131 -5.716295
v 32.677992 -31.717131 -3.209293
v 34.059989 -29.622518 1.442894
v 32.762691 -29.622518 4.574839
v 30.370315 -29.624701 6.978977
v 27.235312 -29.624716 8.277602
v 23.841950 -29.624779 8.277818
v 20.706653 -29.624939 6.979484
v 18.314610 -29.622518 4.574842
v 17.007602 -29.625170 1.444824
v 17.007197 -29.625219 -1.949110
v 18.305819 -29.625256 -5.084925
v 20.705783 -29.625278 -7.485003
v 23.841593 -29.625278 -8.783825
v 27.235673 -29.625289 -8.783591
v 30.365602 -29.622518 -7.476144
v 32.762698 -29.622518 -5.079054
v 34.059989 -29.622518 -1.947105
v 33.357824 -31.334749 1.303236
v 32.167426 -31.334749 4.177112
v 29.972165 -31.339264 6.383124
v 27.095492 -31.339264 7.574684
v 23.981800 -31.339331 7.574800
v 21.104965 -31.339539 6.383393
v 18.909886 -31.334752 4.177112
v 17.710929 -31.339931 1.304939
v 17.710594 -31.340057 -1.809184
v 18.902132 -31.340184 -4.686479
v 21.104197 -31.340270 -6.888729
v 23.981494 -31.340277 -8.080498
v 27.095785 -31.340210 -8.080308
v 29.967860 -31.334752 -6.880858
v 32.167426 -31.334752 -4.681293
v 33.357824 -31.334752 -1.807422
v 32.378069 -32.094622 -0.252091
v 31.168775 -31.724220 -0.252102
v 30.740208 -31.724220 1.902449
v 29.519749 -31.724224 3.728993
v 27.690937 -31.733046 4.943966
v 25.538652 -31.733020 5.372103
v 23.386330 -31.732915 4.944071
v 21.557558 -31.724224 3.728993
v 20.337098 -31.724220 1.902449
v 19.913956 -31.732349 -0.252098
v 20.342033 -31.732152 -2.404627
v 21.561268 -31.732017 -4.229472
v 23.386101 -31.731991 -5.448822
v 25.538652 -31.732066 -5.876966
v 27.691168 -31.732230 -5.448733
v 29.519751 -31.724224 -4.233197
v 30.740208 -31.724224 -2.406653
v 31.239777 -31.846566 0.881921
v 30.371835 -31.846566 2.977326
v 28.764791 -31.855410 4.576154
v 26.671524 -31.855407 5.443189
v 24.405771 -31.855339 5.443248
v 22.312426 -31.855220 4.576288
v 20.705472 -31.846566 2.977326
v 19.837528 -31.846566 0.881921
v 19.842827 -31.854598 -1.385075
v 20.709885 -31.854445 -3.478576
v 22.312137 -31.854356 -5.080916
v 24.405644 -31.854356 -5.948086
v 26.671647 -31.854460 -5.948056
v 28.768082 -31.846570 -5.085282
v 30.371835 -31.846570 -3.481526
v 31.239777 -31.846570 -1.386125
v 31.469285 -32.094578 2.204448
v 30.077762 -32.094578 4.287008
v 27.994934 -32.104539 5.677882
v 25.538652 -32.104539 6.166465
v 23.082373 -32.104539 5.677882
v 20.999541 -32.094578 4.287008
v 19.608020 -32.094578 2.204448
v 19.120083 -32.104494 -0.252098
v 19.608663 -32.104446 -2.708383
v 21.000032 -32.104401 -4.790716
v 23.082365 -32.104386 -6.182094
v 25.538652 -32.104409 -6.670673
v 27.994936 -32.104453 -6.182090
v 30.077762 -32.094581 -4.791208
v 31.469285 -32.094581 -2.708648
v 32.049145 -32.094622 1.042917
v 31.057979 -32.094622 3.435798
v 29.226554 -32.104614 5.267228
v 26.833669 -32.104614 6.258390
v 24.243639 -32.104614 6.258390
v 21.850755 -32.104614 5.267228
v 20.019324 -32.094622 3.435798
v 19.028164 -32.094779 1.042917
v 19.028166 -32.104617 -1.547114
v 20.019324 -32.104617 -3.939998
v 21.850755 -32.104617 -5.771429
v 24.243633 -32.104617 -6.762587
v 26.833669 -32.104617 -6.762587
v 29.226556 -32.094626 -5.771425
v 31.057985 -32.094626 -3.939994
v 32.049145 -32.094626 -1.547114
v 31.857453 -32.094622 2.365239
v 30.374854 -32.094622 4.584107
v 28.155987 -32.104614 6.066702
v 25.538656 -32.104614 6.587322
v 22.921327 -32.104614 6.066702
v 20.702462 -32.094622 4.584107
v 19.219862 -32.094622 2.365239
v 18.699245 -32.104614 -0.252091
v 19.219862 -32.104617 -2.869420
v 20.702462 -32.104617 -5.088289
v 22.921327 -32.104617 -6.570884
v 25.538656 -32.104617 -7.091500
v 28.155987 -32.104617 -6.570884
v 30.374854 -32.094626 -5.088285
v 31.857453 -32.094626 -2.869420
v 32.785046 -32.094190 -0.252080
v 32.437719 -32.094622 1.120224
v 31.387403 -32.094622 3.655917
v 29.446666 -32.104606 5.596660
v 26.910973 -32.104606 6.646987
v 24.166350 -32.104606 6.646987
v 21.630655 -32.104606 5.596667
v 19.689922 -32.094622 3.655921
v 18.639605 -32.095554 1.120224
v 18.639595 -32.104617 -1.624391
v 19.689913 -32.104617 -4.160084
v 21.630655 -32.104617 -6.100826
v 24.166350 -32.104617 -7.151146
v 26.910973 -32.104617 -7.151146
v 29.446664 -32.094626 -6.100819
v 31.387403 -32.094626 -4.160081
v 32.437719 -32.094626 -1.624387
v 33.109880 -30.930974 -3.388200
v 31.333420 -30.930974 -6.046858
v 28.678187 -30.935470 -7.831593
v 25.538654 -30.935806 -8.456871
v 22.398767 -30.935850 -7.832442
v 19.736962 -30.935794 -6.053798
v 17.958555 -30.935690 -3.391859
v 17.334365 -30.935612 -0.252095
v 17.967430 -30.930974 2.884008
v 19.743887 -30.930974 5.542669
v 22.399393 -30.935061 7.326748
v 25.538654 -30.934938 7.951021
v 28.677820 -30.934897 7.326535
v 31.339082 -30.934982 5.548328
v 33.109880 -30.930974 2.884004
v 34.091729 -30.074809 -0.252106
v 33.764898 -30.509524 1.384198
v 32.512522 -30.509524 4.407689
v 30.203032 -30.512877 6.728630
v 27.176562 -30.512888 7.982242
v 23.900719 -30.512944 7.982377
v 20.874881 -30.512497 6.727717
v 18.564780 -30.509524 4.407689
v 17.303215 -30.513436 1.386031
v 17.302831 -30.513525 -1.890298
v 18.556419 -30.513622 -4.917477
v 20.873184 -30.513689 -7.234466
v 23.900372 -30.513697 -8.488324
v 27.176897 -30.513671 -8.488104
v 30.198445 -30.509524 -7.225972
v 32.512522 -30.509524 -4.911893
v 33.764898 -30.509524 -1.888402
vn 0.9720 0.2349 -0.0000
vn 0.9533 0.2349 0.1896
vn 0.9808 0.0044 0.1951
vn 1.0000 0.0041 -0.0000
vn 0.8980 0.2349 0.3720
vn 0.9239 0.0041 0.3827
vn 0.8927 -0.2577 0.3698
vn 0.9477 -0.2577 0.1885
vn 0.9662 -0.2578 -0.0000
vn 0.8088 0.2373 0.5380
vn 0.8327 0.0057 0.5537
vn 0.6875 0.2422 0.6847
vn 0.7087 0.0079 0.7055
vn 0.6851 -0.2575 0.6815
vn 0.8048 -0.2575 0.5347
vn 0.5387 0.2445 0.8062
vn 0.5555 0.0095 0.8314
vn 0.3711 0.2446 0.8958
vn 0.3827 0.0093 0.9238
vn 0.3698 -0.2573 0.8928
vn 0.5369 -0.2573 0.8035
vn 0.1892 0.2446 0.9510
vn 0.1951 0.0096 0.9807
vn -0.0000 0.2447 0.9696
vn 0.0001 0.0094 1.0000
vn 0.0001 -0.2573 0.9663
vn 0.1886 -0.2573 0.9478
vn -0.1891 0.2446 0.9510
vn -0.1950 0.0097 0.9808
vn -0.3710 0.2446 0.8958
vn -0.3826 0.0094 0.9239
vn -0.3698 -0.2577 0.8927
vn -0.1884 -0.2573 0.9478
vn -0.5407 0.2422 0.8056
vn -0.5575 0.0084 0.8301
vn -0.6884 0.2373 0.6854
vn -0.7088 0.0055 0.7054
vn -0.6850 -0.2579 0.6813
vn -0.5389 -0.2582 0.8018
vn -0.8082 0.2349 0.5400
vn -0.8315 0.0044 0.5556
vn -0.8966 0.2373 0.3739
vn -0.9228 0.0055 0.3851
vn -0.8916 -0.2575 0.3725
vn -0.8034 -0.2576 0.5368
vn -0.9511 0.2422 0.1917
vn -0.9802 0.0084 0.1978
vn -0.9696 0.2446 0.0001
vn -1.0000 0.0094 0.0001
vn -0.9663 -0.2574 0.0001
vn -0.9471 -0.2575 0.1915
vn -0.9510 0.2446 -0.1891
vn -0.9808 0.0097 -0.1950
vn -0.8958 0.2446 -0.3710
vn -0.9239 0.0094 -0.3826
vn -0.8928 -0.2574 -0.3697
vn -0.9478 -0.2573 -0.1884
vn -0.8062 0.2446 -0.5386
vn -0.8315 0.0097 -0.5555
vn -0.6857 0.2447 -0.6856
vn -0.7071 0.0094 -0.7070
vn -0.6833 -0.2574 -0.6833
vn -0.8035 -0.2573 -0.5368
vn -0.5387 0.2446 -0.8062
vn -0.5556 0.0096 -0.8314
vn -0.3711 0.2446 -0.8958
vn -0.3827 0.0092 -0.9238
vn -0.3698 -0.2574 -0.8928
vn -0.5369 -0.2573 -0.8035
vn -0.1891 0.2445 -0.9510
vn -0.1950 0.0095 -0.9807
vn 0.0001 0.2445 -0.9697
vn 0.0001 0.0092 -1.0000
vn 0.0001 -0.2574 -0.9663
vn -0.1885 -0.2573 -0.9478
vn 0.1918 0.2421 -0.9511
vn 0.1979 0.0082 -0.9802
vn 0.3741 0.2373 -0.8965
vn 0.3853 0.0054 -0.9228
vn 0.3727 -0.2573 -0.8916
vn 0.1916 -0.2574 -0.9471
vn 0.5400 0.2349 -0.8082
vn 0.5556 0.0044 -0.8315
vn 0.6873 0.2349 -0.6873
vn 0.7071 0.0041 -0.7071
vn 0.6832 -0.2577 -0.6832
vn 0.5369 -0.2575 -0.8034
vn 0.8082 0.2349 -0.5400
vn 0.8315 0.0044 -0.5556
vn 0.8980 0.2349 -0.3720
vn 0.9239 0.0041 -0.3827
vn 0.8927 -0.2577 -0.3698
vn 0.8034 -0.2577 -0.5368
vn 0.9533 0.2349 -0.1896
vn 0.9808 0.0044 -0.1951
vn 0.9477 -0.2577 -0.1885
vn 0.5882 -0.8087 -0.0000
vn 0.5769 -0.8087 0.1148
vn 0.2069 -0.9775 0.0412
vn 0.2104 -0.9776 -0.0000
vn 0.5436 -0.8086 0.2252
vn 0.1945 -0.9776 0.0806
vn 0.0031 -1.0000 0.0013
vn 0.0034 -1.0000 0.0007
vn 0.0036 -1.0000 -0.0000
vn 0.4891 -0.8087 0.3268
vn 0.1754 -0.9775 0.1172
vn 0.4185 -0.8083 0.4141
vn 0.1519 -0.9774 0.1473
vn 0.0054 -1.0000 0.0005
vn 0.0028 -1.0000 0.0019
vn 0.3295 -0.8085 0.4876
vn 0.1208 -0.9771 0.1749
vn 0.2254 -0.8081 0.5442
vn 0.0816 -0.9770 0.1969
vn 0.0020 -1.0000 0.0047
vn 0.0053 -1.0000 0.0017
vn 0.1149 -0.8082 0.5776
vn 0.0417 -0.9769 0.2094
vn -0.0000 -0.8082 0.5890
vn -0.0000 -0.9770 0.2130
vn -0.0000 -1.0000 0.0050
vn 0.0010 -1.0000 0.0050
vn -0.1148 -0.8083 0.5775
vn -0.0416 -0.9770 0.2092
vn -0.2253 -0.8083 0.5440
vn -0.0813 -0.9771 0.1965
vn -0.0018 -1.0000 0.0044
vn -0.0009 -1.0000 0.0048
vn -0.3294 -0.8086 0.4874
vn -0.1206 -0.9772 0.1745
vn -0.4185 -0.8084 0.4140
vn -0.1518 -0.9774 0.1471
vn -0.0054 -1.0000 0.0004
vn -0.0052 -1.0000 0.0014
vn -0.4891 -0.8087 0.3268
vn -0.1754 -0.9775 0.1172
vn -0.5405 -0.8105 0.2259
vn -0.1930 -0.9779 0.0808
vn -0.0026 -1.0000 0.0015
vn -0.0028 -1.0000 0.0019
vn -0.5710 -0.8125 0.1171
vn -0.2039 -0.9780 0.0441
vn -0.5852 -0.8109 0.0016
vn -0.2090 -0.9779 0.0028
vn -0.0029 -1.0000 0.0032
vn -0.0021 -1.0000 0.0041
vn -0.5763 -0.8092 -0.1146
vn -0.2069 -0.9775 -0.0411
vn -0.5429 -0.8092 -0.2248
vn -0.1944 -0.9776 -0.0805
vn -0.0034 -1.0000 -0.0014
vn -0.0037 -1.0000 -0.0007
vn -0.4884 -0.8094 -0.3263
vn -0.1753 -0.9775 -0.1171
vn -0.4153 -0.8093 -0.4153
vn -0.1487 -0.9776 -0.1487
vn -0.0026 -1.0000 -0.0026
vn -0.0031 -1.0000 -0.0021
vn -0.3262 -0.8095 -0.4882
vn -0.1170 -0.9776 -0.1751
vn -0.2247 -0.8094 -0.5425
vn -0.0804 -0.9777 -0.1942
vn -0.0014 -1.0000 -0.0034
vn -0.0021 -1.0000 -0.0031
vn -0.1145 -0.8095 -0.5759
vn -0.0411 -0.9776 -0.2065
vn -0.0000 -0.8093 -0.5874
vn -0.0000 -0.9777 -0.2102
vn -0.0000 -1.0000 -0.0037
vn -0.0007 -1.0000 -0.0037
vn 0.1146 -0.8093 -0.5760
vn 0.0411 -0.9775 -0.2067
vn 0.2281 -0.8092 -0.5415
vn 0.0837 -0.9777 -0.1927
vn 0.0046 -1.0000 -0.0017
vn 0.0007 -1.0000 -0.0037
vn 0.3297 -0.8087 -0.4872
vn 0.1203 -0.9774 -0.1737
vn 0.4160 -0.8086 -0.4160
vn 0.1489 -0.9776 -0.1489
vn 0.0024 -1.0000 -0.0024
vn 0.0051 -1.0000 -0.0012
vn 0.4891 -0.8087 -0.3268
vn 0.1754 -0.9775 -0.1172
vn 0.5435 -0.8087 -0.2251
vn 0.1944 -0.9776 -0.0806
vn 0.0031 -1.0000 -0.0013
vn 0.0028 -1.0000 -0.0019
vn 0.5765 -0.8090 -0.1147
vn 0.2067 -0.9775 -0.0411
vn 0.0034 -1.0000 -0.0007
vn -0.2775 -0.9607 -0.0000
vn -0.2721 -0.9608 -0.0541
vn -0.4771 -0.8737 -0.0949
vn -0.4867 -0.8736 -0.0000
vn -0.2559 -0.9609 -0.1060
vn -0.4495 -0.8736 -0.1862
vn -0.5118 -0.8325 -0.2120
vn -0.5434 -0.8325 -0.1081
vn -0.5540 -0.8325 -0.0000
vn -0.2305 -0.9608 -0.1540
vn -0.4045 -0.8737 -0.2703
vn -0.1925 -0.9610 -0.1984
vn -0.3405 -0.8740 -0.3467
vn -0.3882 -0.8328 -0.3947
vn -0.4607 -0.8325 -0.3078
vn -0.1504 -0.9609 -0.2326
vn -0.2663 -0.8740 -0.4064
vn -0.1056 -0.9611 -0.2550
vn -0.1857 -0.8743 -0.4484
vn -0.2119 -0.8327 -0.5115
vn -0.3040 -0.8324 -0.4633
vn -0.0539 -0.9611 -0.2710
vn -0.0947 -0.8744 -0.4759
vn -0.0000 -0.9611 -0.2761
vn -0.0000 -0.8743 -0.4854
vn -0.0000 -0.8327 -0.5537
vn -0.1080 -0.8327 -0.5431
vn 0.0539 -0.9610 -0.2711
vn 0.0947 -0.8743 -0.4760
vn 0.1057 -0.9611 -0.2553
vn 0.1858 -0.8742 -0.4486
vn 0.2118 -0.8327 -0.5116
vn 0.1080 -0.8327 -0.5431
vn 0.1505 -0.9608 -0.2328
vn 0.2664 -0.8739 -0.4066
vn 0.1926 -0.9610 -0.1984
vn 0.3406 -0.8739 -0.3467
vn 0.3883 -0.8328 -0.3947
vn 0.3041 -0.8324 -0.4633
vn 0.2305 -0.9608 -0.1540
vn 0.4045 -0.8737 -0.2703
vn 0.2559 -0.9609 -0.1060
vn 0.4495 -0.8736 -0.1862
vn 0.5118 -0.8325 -0.2120
vn 0.4607 -0.8325 -0.3078
vn 0.2725 -0.9609 -0.0500
vn 0.4776 -0.8739 -0.0908
vn 0.2777 -0.9606 0.0040
vn 0.4868 -0.8735 0.0041
vn 0.5543 -0.8323 0.0042
vn 0.5440 -0.8327 -0.1038
vn 0.2725 -0.9606 0.0542
vn 0.4771 -0.8737 0.0948
vn 0.2567 -0.9606 0.1063
vn 0.4496 -0.8736 0.1861
vn 0.5118 -0.8326 0.2119
vn 0.5434 -0.8325 0.1080
vn 0.2313 -0.9605 0.1545
vn 0.4045 -0.8737 0.2702
vn 0.1966 -0.9606 0.1966
vn 0.3441 -0.8736 0.3441
vn 0.3917 -0.8325 0.3917
vn 0.4607 -0.8325 0.3077
vn 0.1546 -0.9605 0.2314
vn 0.2703 -0.8736 0.4046
vn 0.1064 -0.9606 0.2569
vn 0.1863 -0.8736 0.4497
vn 0.2120 -0.8326 0.5118
vn 0.3078 -0.8325 0.4606
vn 0.0543 -0.9605 0.2729
vn 0.0949 -0.8736 0.4773
vn -0.0000 -0.9606 0.2779
vn -0.0000 -0.8735 0.4867
vn -0.0001 -0.8325 0.5540
vn 0.1081 -0.8325 0.5434
vn -0.0543 -0.9606 0.2727
vn -0.0950 -0.8736 0.4772
vn -0.1026 -0.9606 0.2583
vn -0.1826 -0.8734 0.4515
vn -0.2083 -0.8323 0.5137
vn -0.1082 -0.8325 0.5434
vn -0.1506 -0.9608 0.2326
vn -0.2667 -0.8739 0.4065
vn -0.1959 -0.9609 0.1959
vn -0.3441 -0.8736 0.3441
vn -0.3917 -0.8325 0.3917
vn -0.3042 -0.8327 0.4628
vn -0.2305 -0.9608 0.1540
vn -0.4045 -0.8737 0.2703
vn -0.2561 -0.9608 0.1061
vn -0.4497 -0.8736 0.1862
vn -0.5118 -0.8325 0.2120
vn -0.4607 -0.8325 0.3078
vn -0.2728 -0.9605 0.0543
vn -0.4774 -0.8736 0.0949
vn -0.5434 -0.8325 0.1081
vn -0.5194 -0.8270 -0.2151
vn -0.3130 -0.9409 -0.1296
vn -0.3297 -0.9418 -0.0656
vn -0.5514 -0.8270 -0.1097
vn -0.0454 -0.9988 -0.0188
vn -0.0479 -0.9988 -0.0095
vn -0.0487 -0.9988 -0.0000
vn -0.3386 -0.9409 -0.0000
vn -0.5622 -0.8270 -0.0000
vn -0.3940 -0.8270 -0.4010
vn -0.2359 -0.9409 -0.2432
vn -0.2796 -0.9418 -0.1868
vn -0.4675 -0.8270 -0.3123
vn -0.0309 -0.9988 -0.0379
vn -0.0407 -0.9988 -0.0272
vn -0.2157 -0.8260 -0.5207
vn -0.1303 -0.9402 -0.3146
vn -0.1835 -0.9412 -0.2838
vn -0.3090 -0.8260 -0.4713
vn -0.0187 -0.9988 -0.0452
vn -0.0233 -0.9988 -0.0437
vn -0.0000 -0.8260 -0.5637
vn -0.0000 -0.9402 -0.3405
vn -0.0659 -0.9412 -0.3315
vn -0.1100 -0.8260 -0.5529
vn -0.0000 -0.9988 -0.0487
vn -0.0095 -0.9988 -0.0477
vn 0.2156 -0.8260 -0.5208
vn 0.1303 -0.9401 -0.3149
vn 0.0658 -0.9412 -0.3313
vn 0.1099 -0.8260 -0.5529
vn 0.0187 -0.9988 -0.0457
vn 0.0094 -0.9988 -0.0472
vn 0.3941 -0.8270 -0.4009
vn 0.2364 -0.9407 -0.2433
vn 0.1840 -0.9409 -0.2844
vn 0.3091 -0.8260 -0.4713
vn 0.0318 -0.9988 -0.0384
vn 0.0243 -0.9987 -0.0451
vn 0.5194 -0.8270 -0.2151
vn 0.3129 -0.9409 -0.1296
vn 0.2795 -0.9418 -0.1868
vn 0.4675 -0.8270 -0.3123
vn 0.0451 -0.9988 -0.0186
vn 0.0407 -0.9988 -0.0272
vn 0.5628 -0.8266 0.0045
vn 0.3370 -0.9415 0.0049
vn 0.3296 -0.9422 -0.0606
vn 0.5521 -0.8271 -0.1052
vn 0.0436 -0.9990 0.0050
vn 0.0465 -0.9989 -0.0042
vn 0.5195 -0.8269 0.2151
vn 0.3070 -0.9432 0.1273
vn 0.3253 -0.9434 0.0648
vn 0.5517 -0.8268 0.1096
vn 0.0314 -0.9994 0.0133
vn 0.0372 -0.9993 0.0078
vn 0.3974 -0.8271 0.3974
vn 0.2335 -0.9439 0.2335
vn 0.2729 -0.9446 0.1824
vn 0.4675 -0.8270 0.3123
vn 0.0214 -0.9995 0.0215
vn 0.0260 -0.9995 0.0175
vn 0.2150 -0.8272 0.5191
vn 0.1262 -0.9440 0.3048
vn 0.1818 -0.9449 0.2721
vn 0.3122 -0.8272 0.4672
vn 0.0114 -0.9996 0.0276
vn 0.0165 -0.9996 0.0247
vn -0.0001 -0.8271 0.5621
vn -0.0000 -0.9439 0.3302
vn 0.0638 -0.9449 0.3210
vn 0.1096 -0.8271 0.5512
vn -0.0000 -0.9996 0.0299
vn 0.0058 -0.9996 0.0291
vn -0.2113 -0.8265 0.5217
vn -0.1225 -0.9433 0.3084
vn -0.0640 -0.9447 0.3215
vn -0.1098 -0.8269 0.5516
vn -0.0077 -0.9995 0.0312
vn -0.0058 -0.9996 0.0292
vn -0.3978 -0.8268 0.3978
vn -0.2361 -0.9426 0.2362
vn -0.1791 -0.9441 0.2767
vn -0.3087 -0.8269 0.4701
vn -0.0261 -0.9993 0.0264
vn -0.0144 -0.9994 0.0304
vn -0.5195 -0.8269 0.2152
vn -0.3114 -0.9415 0.1291
vn -0.2767 -0.9429 0.1851
vn -0.4677 -0.8268 0.3125
vn -0.0416 -0.9990 0.0175
vn -0.0338 -0.9992 0.0230
vn -0.3291 -0.9420 0.0655
vn -0.5515 -0.8270 0.1097
vn -0.0465 -0.9989 0.0094
vn 0.8750 -0.3209 0.3624
vn 0.9289 -0.3209 0.1848
vn 0.8527 -0.3850 0.3532
vn 0.9052 -0.3850 0.1801
vn 0.9229 -0.3851 -0.0000
vn 0.9471 -0.3210 -0.0000
vn 0.6716 -0.3209 0.6679
vn 0.7890 -0.3207 0.5240
vn 0.6545 -0.3851 0.6507
vn 0.7689 -0.3849 0.5105
vn 0.3625 -0.3208 0.8751
vn 0.5262 -0.3207 0.7876
vn 0.3532 -0.3850 0.8527
vn 0.5128 -0.3849 0.7674
vn 0.0001 -0.3208 0.9471
vn 0.1848 -0.3207 0.9290
vn -0.0000 -0.3849 0.9229
vn 0.1801 -0.3849 0.9052
vn -0.3626 -0.3213 0.8748
vn -0.1847 -0.3208 0.9290
vn -0.3535 -0.3847 0.8527
vn -0.1800 -0.3849 0.9052
vn -0.6714 -0.3212 0.6679
vn -0.5283 -0.3218 0.7857
vn -0.6545 -0.3846 0.6510
vn -0.5152 -0.3844 0.7661
vn -0.8739 -0.3208 0.3652
vn -0.7875 -0.3209 0.5262
vn -0.8515 -0.3849 0.3560
vn -0.7674 -0.3850 0.5127
vn -0.9471 -0.3210 0.0001
vn -0.9283 -0.3210 0.1878
vn -0.9229 -0.3851 0.0001
vn -0.9045 -0.3851 0.1831
vn -0.8750 -0.3210 -0.3623
vn -0.9289 -0.3210 -0.1847
vn -0.8527 -0.3851 -0.3531
vn -0.9052 -0.3850 -0.1799
vn -0.6697 -0.3209 -0.6697
vn -0.7875 -0.3209 -0.5261
vn -0.6526 -0.3851 -0.6525
vn -0.7674 -0.3850 -0.5127
vn -0.3624 -0.3209 -0.8750
vn -0.5262 -0.3208 -0.7875
vn -0.3532 -0.3851 -0.8526
vn -0.5128 -0.3850 -0.7673
vn 0.0001 -0.3208 -0.9471
vn -0.1847 -0.3208 -0.9290
vn 0.0001 -0.3851 -0.9229
vn -0.1800 -0.3850 -0.9052
vn 0.3657 -0.3187 -0.8745
vn 0.1877 -0.3198 -0.9287
vn 0.3569 -0.3803 -0.8532
vn 0.1822 -0.3827 -0.9057
vn 0.6697 -0.3209 -0.6697
vn 0.5267 -0.3198 -0.7876
vn 0.6526 -0.3850 -0.6526
vn 0.5144 -0.3826 -0.7675
vn 0.8750 -0.3209 -0.3624
vn 0.7875 -0.3209 -0.5262
vn 0.8526 -0.3850 -0.3532
vn 0.7674 -0.3850 -0.5127
vn 0.9289 -0.3209 -0.1848
vn 0.9052 -0.3850 -0.1801
vn 0.7945 -0.5103 0.3291
vn 0.7366 -0.6035 0.3051
vn 0.7819 -0.6036 0.1555
vn 0.8435 -0.5102 0.1678
vn 0.7972 -0.6037 -0.0000
vn 0.8600 -0.5104 -0.0000
vn 0.6084 -0.5144 0.6044
vn 0.5649 -0.6054 0.5607
vn 0.6626 -0.6046 0.4422
vn 0.7150 -0.5122 0.4759
vn 0.3291 -0.5102 0.7946
vn 0.3051 -0.6037 0.7366
vn 0.4445 -0.6048 0.6608
vn 0.4782 -0.5123 0.7134
vn -0.0000 -0.5102 0.8600
vn -0.0000 -0.6037 0.7972
vn 0.1555 -0.6037 0.7819
vn 0.1678 -0.5101 0.8436
vn -0.3290 -0.5102 0.7946
vn -0.3050 -0.6037 0.7365
vn -0.1555 -0.6038 0.7819
vn -0.1677 -0.5101 0.8436
vn -0.6103 -0.5101 0.6061
vn -0.5660 -0.6034 0.5617
vn -0.4453 -0.6039 0.6611
vn -0.4802 -0.5103 0.7134
vn -0.7934 -0.5101 0.3321
vn -0.7345 -0.6050 0.3074
vn -0.6629 -0.6036 0.4429
vn -0.7151 -0.5102 0.4778
vn -0.8600 -0.5104 0.0001
vn -0.7958 -0.6055 0.0005
vn -0.7787 -0.6070 0.1583
vn -0.8428 -0.5104 0.1710
vn -0.7945 -0.5104 -0.3290
vn -0.7363 -0.6041 -0.3049
vn -0.7816 -0.6041 -0.1554
vn -0.8435 -0.5103 -0.1677
vn -0.6081 -0.5104 -0.6080
vn -0.5635 -0.6042 -0.5634
vn -0.6626 -0.6042 -0.4426
vn -0.7151 -0.5103 -0.4777
vn -0.3291 -0.5104 -0.7945
vn -0.3049 -0.6042 -0.7362
vn -0.4427 -0.6043 -0.6625
vn -0.4778 -0.5103 -0.7150
vn 0.0001 -0.5104 -0.8599
vn 0.0001 -0.6041 -0.7969
vn -0.1554 -0.6043 -0.7815
vn -0.1677 -0.5103 -0.8435
vn 0.3323 -0.5102 -0.7933
vn 0.3082 -0.6041 -0.7349
vn 0.1555 -0.6042 -0.7815
vn 0.1679 -0.5102 -0.8435
vn 0.6081 -0.5103 -0.6081
vn 0.5638 -0.6035 -0.5638
vn 0.4458 -0.6035 -0.6611
vn 0.4807 -0.5099 -0.7134
vn 0.7945 -0.5103 -0.3291
vn 0.7366 -0.6036 -0.3051
vn 0.6629 -0.6036 -0.4430
vn 0.7151 -0.5102 -0.4778
vn 0.7818 -0.6038 -0.1555
vn 0.8435 -0.5102 -0.1678
vn -0.5123 -0.8322 -0.2122
vn -0.5439 -0.8321 -0.1082
vn -0.5545 -0.8322 -0.0000
vn -0.3885 -0.8324 -0.3953
vn -0.4611 -0.8321 -0.3081
vn -0.2122 -0.8321 -0.5123
vn -0.3043 -0.8319 -0.4641
vn -0.0000 -0.8321 -0.5546
vn -0.1082 -0.8321 -0.5440
vn 0.2122 -0.8321 -0.5124
vn 0.1081 -0.8321 -0.5440
vn 0.3886 -0.8324 -0.3952
vn 0.3044 -0.8319 -0.4640
vn 0.5123 -0.8322 -0.2122
vn 0.4611 -0.8321 -0.3081
vn 0.5548 -0.8319 0.0044
vn 0.5445 -0.8323 -0.1038
vn 0.5124 -0.8321 0.2122
vn 0.5440 -0.8321 0.1081
vn 0.3922 -0.8321 0.3921
vn 0.4612 -0.8321 0.3081
vn 0.2122 -0.8321 0.5124
vn 0.3082 -0.8321 0.4612
vn -0.0001 -0.8322 0.5545
vn 0.1082 -0.8321 0.5440
vn -0.2083 -0.8320 0.5142
vn -0.1083 -0.8322 0.5439
vn -0.3921 -0.8322 0.3921
vn -0.3043 -0.8323 0.4633
vn -0.5123 -0.8322 0.2122
vn -0.4611 -0.8321 0.3081
vn -0.5439 -0.8321 0.1082
vn -0.0001 -1.0000 -0.0000
vn -0.0614 -0.9978 -0.0254
vn -0.0657 -0.9978 -0.0130
vn -0.0002 -1.0000 -0.0000
vn -0.0670 -0.9978 -0.0000
vn -0.0003 -1.0000 -0.0000
vn 0.0029 -1.0000 -0.0025
vn -0.0439 -0.9978 -0.0495
vn -0.0555 -0.9978 -0.0371
vn -0.0001 -1.0000 -0.0001
vn -0.0001 -1.0000 -0.0002
vn -0.0254 -0.9978 -0.0613
vn -0.0340 -0.9977 -0.0580
vn -0.0000 -1.0000 -0.0002
vn -0.0000 -0.9978 -0.0664
vn -0.0130 -0.9978 -0.0654
vn -0.0000 -1.0000 -0.0001
vn 0.0001 -1.0000 -0.0002
vn 0.0254 -0.9978 -0.0614
vn 0.0130 -0.9978 -0.0655
vn -0.0029 -1.0000 -0.0025
vn 0.0439 -0.9978 -0.0495
vn 0.0341 -0.9977 -0.0581
vn -0.0029 -1.0000 -0.0026
vn 0.0004 -1.0000 -0.0001
vn 0.0614 -0.9978 -0.0254
vn 0.0555 -0.9978 -0.0371
vn 0.0001 -1.0000 -0.0001
vn 0.0009 -1.0000 0.0037
vn 0.0673 -0.9977 0.0039
vn 0.0662 -0.9978 -0.0092
vn 0.0012 -1.0000 0.0037
vn 0.0003 -1.0000 0.0001
vn 0.0622 -0.9977 0.0257
vn 0.0662 -0.9977 0.0132
vn 0.0003 -1.0000 0.0003
vn 0.0478 -0.9977 0.0478
vn 0.0564 -0.9977 0.0377
vn 0.0003 -1.0000 0.0002
vn 0.0002 -1.0000 0.0004
vn 0.0259 -0.9977 0.0624
vn 0.0378 -0.9977 0.0565
vn 0.0003 -1.0000 0.0004
vn -0.0000 -1.0000 0.0004
vn -0.0000 -0.9977 0.0674
vn 0.0132 -0.9977 0.0666
vn 0.0001 -1.0000 0.0005
vn 0.0033 -1.0000 0.0021
vn -0.0222 -0.9977 0.0638
vn -0.0132 -0.9977 0.0664
vn -0.0001 -1.0000 0.0004
vn -0.0001 -1.0000 0.0001
vn -0.0469 -0.9978 0.0469
vn -0.0337 -0.9978 0.0575
vn 0.0033 -1.0000 0.0019
vn -0.0615 -0.9978 0.0255
vn -0.0555 -0.9978 0.0371
vn -0.0660 -0.9977 0.0131
vn -0.0000 -1.0000 -0.0000
vn 0.0028 -1.0000 -0.0025
vn -0.0028 -1.0000 -0.0025
vn 0.0007 -1.0000 -0.0000
vn 0.0010 -1.0000 0.0035
vn 0.0015 -1.0000 0.0035
vn 0.0002 -1.0000 0.0001
vn 0.0002 -1.0000 -0.0000
vn 0.0001 -1.0000 0.0001
vn -0.0000 -1.0000 0.0002
vn 0.0032 -1.0000 0.0019
vn 0.8257 -0.4485 0.3420
vn 0.8766 -0.4485 0.1744
vn 0.8937 -0.4486 -0.0000
vn 0.6332 -0.4507 0.6293
vn 0.7441 -0.4495 0.4942
vn 0.3420 -0.4484 0.8258
vn 0.4965 -0.4495 0.7426
vn -0.0000 -0.4484 0.8938
vn 0.1744 -0.4484 0.8766
vn -0.3422 -0.4481 0.8259
vn -0.1743 -0.4485 0.8766
vn -0.6341 -0.4480 0.6302
vn -0.4991 -0.4478 0.7419
vn -0.8246 -0.4484 0.3450
vn -0.7431 -0.4485 0.4966
vn -0.8938 -0.4485 0.0001
vn -0.8759 -0.4487 0.1775
vn -0.8258 -0.4486 -0.3419
vn -0.8766 -0.4486 -0.1743
vn -0.6320 -0.4486 -0.6319
vn -0.7432 -0.4486 -0.4965
vn -0.3420 -0.4486 -0.8257
vn -0.4966 -0.4486 -0.7431
vn 0.0001 -0.4486 -0.8937
vn -0.1743 -0.4486 -0.8766
vn 0.3457 -0.4455 -0.8258
vn 0.1752 -0.4470 -0.8772
vn 0.6320 -0.4485 -0.6320
vn 0.4992 -0.4469 -0.7424
vn 0.8257 -0.4485 -0.3420
vn 0.7431 -0.4485 -0.4966
vn 0.8766 -0.4485 -0.1744
vt 0.485505 0.242623
vt 0.480860 0.289983
vt 0.472566 0.288337
vt 0.477051 0.242627
vt 0.467076 0.335530
vt 0.459263 0.332298
vt 0.449184 0.328115
vt 0.461861 0.286202
vt 0.466137 0.242620
vt 0.444660 0.377507
vt 0.437627 0.372813
vt 0.414495 0.414312
vt 0.408514 0.408337
vt 0.400803 0.400615
vt 0.428555 0.366743
vt 0.377722 0.444516
vt 0.373021 0.437488
vt 0.335769 0.466976
vt 0.332529 0.459167
vt 0.328360 0.449081
vt 0.366962 0.428408
vt 0.290236 0.480808
vt 0.288583 0.472516
vt 0.242881 0.485503
vt 0.242877 0.477049
vt 0.242884 0.466136
vt 0.286459 0.461809
vt 0.195522 0.480858
vt 0.197167 0.472564
vt 0.149974 0.467075
vt 0.153206 0.459262
vt 0.157389 0.449183
vt 0.199303 0.461860
vt 0.107997 0.444659
vt 0.112691 0.437626
vt 0.071192 0.414495
vt 0.077167 0.408513
vt 0.084889 0.400802
vt 0.118761 0.428554
vt 0.040988 0.377721
vt 0.048016 0.373020
vt 0.018527 0.335768
vt 0.026337 0.332529
vt 0.036422 0.328359
vt 0.057095 0.366961
vt 0.004695 0.290235
vt 0.012988 0.288582
vt 0.000000 0.242880
vt 0.008454 0.242876
vt 0.019367 0.242883
vt 0.023694 0.286458
vt 0.004646 0.195520
vt 0.012939 0.197166
vt 0.018430 0.149973
vt 0.026242 0.153204
vt 0.036322 0.157388
vt 0.023644 0.199301
vt 0.040846 0.107996
vt 0.047879 0.112690
vt 0.071011 0.071191
vt 0.076992 0.077166
vt 0.084703 0.084888
vt 0.056951 0.118760
vt 0.107784 0.040988
vt 0.112485 0.048016
vt 0.149737 0.018528
vt 0.152976 0.026337
vt 0.157146 0.036422
vt 0.118544 0.057095
vt 0.195269 0.004696
vt 0.196923 0.012988
vt 0.242624 0.000000
vt 0.242628 0.008455
vt 0.242621 0.019368
vt 0.199046 0.023695
vt 0.289984 0.004646
vt 0.288338 0.012940
vt 0.335531 0.018429
vt 0.332299 0.026242
vt 0.328116 0.036322
vt 0.286202 0.023644
vt 0.377507 0.040845
vt 0.372813 0.047878
vt 0.414313 0.071009
vt 0.408338 0.076990
vt 0.400616 0.084702
vt 0.366744 0.056950
vt 0.444516 0.107782
vt 0.437488 0.112483
vt 0.466977 0.149735
vt 0.459168 0.152975
vt 0.449082 0.157144
vt 0.428409 0.118542
vt 0.480809 0.195268
vt 0.472517 0.196921
vt 0.461810 0.199045
vt 0.407448 0.242713
vt 0.404269 0.274839
vt 0.398965 0.273785
vt 0.402041 0.242713
vt 0.394926 0.305742
vt 0.389931 0.303673
vt 0.385722 0.301931
vt 0.394497 0.272897
vt 0.397486 0.242714
vt 0.379695 0.334206
vt 0.375199 0.331202
vt 0.359237 0.359181
vt 0.355414 0.355358
vt 0.352192 0.352138
vt 0.371410 0.328672
vt 0.334273 0.379650
vt 0.331268 0.375154
vt 0.305815 0.394895
vt 0.303745 0.389900
vt 0.302001 0.385692
vt 0.328736 0.371367
vt 0.274918 0.404253
vt 0.273862 0.398949
vt 0.242791 0.407447
vt 0.242791 0.402040
vt 0.242790 0.397485
vt 0.272972 0.394481
vt 0.210665 0.404268
vt 0.211720 0.398964
vt 0.179762 0.394925
vt 0.181831 0.389930
vt 0.183574 0.385721
vt 0.212607 0.394496
vt 0.151298 0.379695
vt 0.154302 0.375198
vt 0.126323 0.359237
vt 0.130146 0.355413
vt 0.133366 0.352192
vt 0.156832 0.371409
vt 0.105854 0.334273
vt 0.110350 0.331268
vt 0.090608 0.305814
vt 0.095604 0.303745
vt 0.099812 0.302001
vt 0.114137 0.328736
vt 0.081251 0.274917
vt 0.086555 0.273862
vt 0.078057 0.242791
vt 0.083464 0.242791
vt 0.088019 0.242790
vt 0.091022 0.272972
vt 0.081236 0.210665
vt 0.086540 0.211719
vt 0.090579 0.179762
vt 0.095575 0.181831
vt 0.099784 0.183573
vt 0.091008 0.212607
vt 0.105811 0.151298
vt 0.110307 0.154302
vt 0.126269 0.126323
vt 0.130092 0.130146
vt 0.133314 0.133367
vt 0.114096 0.156832
vt 0.151233 0.105854
vt 0.154238 0.110350
vt 0.179691 0.090609
vt 0.181760 0.095605
vt 0.183504 0.099813
vt 0.156770 0.114138
vt 0.210588 0.081252
vt 0.211643 0.086556
vt 0.242714 0.078058
vt 0.242714 0.083465
vt 0.242715 0.088020
vt 0.212533 0.091023
vt 0.274840 0.081236
vt 0.273785 0.086540
vt 0.305743 0.090579
vt 0.303673 0.095575
vt 0.301931 0.099784
vt 0.272897 0.091009
vt 0.334207 0.105810
vt 0.331203 0.110307
vt 0.359182 0.126268
vt 0.355359 0.130091
vt 0.352138 0.133313
vt 0.328673 0.114095
vt 0.379651 0.151232
vt 0.375155 0.154237
vt 0.394896 0.179690
vt 0.389901 0.181759
vt 0.385693 0.183503
vt 0.371368 0.156769
vt 0.404254 0.210587
vt 0.398950 0.211643
vt 0.394482 0.212532
vt 0.379371 0.242718
vt 0.376730 0.269367
vt 0.372083 0.268443
vt 0.374632 0.242718
vt 0.368984 0.295002
vt 0.364606 0.293189
vt 0.360181 0.291355
vt 0.367386 0.267508
vt 0.369843 0.242718
vt 0.356346 0.318612
vt 0.352406 0.315980
vt 0.339380 0.339331
vt 0.336029 0.335980
vt 0.332642 0.332593
vt 0.348425 0.313319
vt 0.318668 0.356308
vt 0.316036 0.352368
vt 0.295065 0.368957
vt 0.293251 0.364579
vt 0.291419 0.360154
vt 0.313376 0.348386
vt 0.269434 0.376715
vt 0.268509 0.372068
vt 0.242786 0.379369
vt 0.242786 0.374630
vt 0.242786 0.369841
vt 0.267575 0.367372
vt 0.216137 0.376728
vt 0.217061 0.372081
vt 0.190502 0.368982
vt 0.192315 0.364604
vt 0.194148 0.360180
vt 0.217995 0.367385
vt 0.166892 0.356345
vt 0.169524 0.352405
vt 0.146172 0.339378
vt 0.149523 0.336027
vt 0.152910 0.332641
vt 0.172185 0.348424
vt 0.129196 0.318668
vt 0.133135 0.316035
vt 0.116546 0.295064
vt 0.120924 0.293250
vt 0.125349 0.291418
vt 0.137117 0.313375
vt 0.108787 0.269433
vt 0.113434 0.268508
vt 0.106134 0.242785
vt 0.110873 0.242785
vt 0.115662 0.242785
vt 0.118131 0.267575
vt 0.108775 0.216136
vt 0.113422 0.217060
vt 0.116522 0.190501
vt 0.120900 0.192315
vt 0.125324 0.194148
vt 0.118119 0.217995
vt 0.129160 0.166892
vt 0.133099 0.169524
vt 0.146126 0.146173
vt 0.149477 0.149523
vt 0.152863 0.152910
vt 0.137081 0.172185
vt 0.166837 0.129196
vt 0.169470 0.133136
vt 0.190441 0.116547
vt 0.192254 0.120925
vt 0.194086 0.125350
vt 0.172130 0.137118
vt 0.216071 0.108788
vt 0.216996 0.113435
vt 0.242719 0.106135
vt 0.242719 0.110874
vt 0.242719 0.115663
vt 0.217930 0.118132
vt 0.269368 0.108775
vt 0.268444 0.113422
vt 0.295003 0.116521
vt 0.293189 0.120899
vt 0.291356 0.125324
vt 0.267509 0.118119
vt 0.318612 0.129159
vt 0.315980 0.133099
vt 0.339332 0.146125
vt 0.335981 0.149476
vt 0.332594 0.152862
vt 0.313319 0.137080
vt 0.356308 0.166836
vt 0.352369 0.169468
vt 0.368958 0.190439
vt 0.364580 0.192253
vt 0.360155 0.194085
vt 0.348387 0.172128
vt 0.376717 0.216070
vt 0.372070 0.216995
vt 0.367373 0.217929
vt 0.351968 0.287959
vt 0.349389 0.286892
vt 0.355932 0.265237
vt 0.358668 0.265780
vt 0.344315 0.284792
vt 0.350546 0.264167
vt 0.352674 0.242726
vt 0.358165 0.242724
vt 0.360955 0.242723
vt 0.326354 0.326313
vt 0.324380 0.324340
vt 0.338711 0.306837
vt 0.341032 0.308386
vt 0.320496 0.320459
vt 0.334145 0.303787
vt 0.288012 0.351945
vt 0.286943 0.349367
vt 0.306882 0.338680
vt 0.308434 0.340999
vt 0.284841 0.344295
vt 0.303831 0.334115
vt 0.242781 0.360953
vt 0.242779 0.358163
vt 0.265290 0.355920
vt 0.265836 0.358656
vt 0.242778 0.352671
vt 0.264218 0.350534
vt 0.197544 0.351966
vt 0.198611 0.349387
vt 0.220267 0.355930
vt 0.219724 0.358667
vt 0.200711 0.344314
vt 0.221337 0.350544
vt 0.159191 0.326352
vt 0.161163 0.324378
vt 0.178666 0.338710
vt 0.177118 0.341031
vt 0.165044 0.320494
vt 0.181716 0.334143
vt 0.133558 0.288011
vt 0.136135 0.286942
vt 0.146822 0.306881
vt 0.144503 0.308433
vt 0.141208 0.284840
vt 0.151387 0.303829
vt 0.124550 0.242780
vt 0.127340 0.242778
vt 0.129583 0.265289
vt 0.126847 0.265835
vt 0.132830 0.242778
vt 0.134968 0.264218
vt 0.133538 0.197544
vt 0.136114 0.198610
vt 0.129572 0.220266
vt 0.126837 0.219723
vt 0.141183 0.200709
vt 0.134954 0.221337
vt 0.159152 0.159191
vt 0.161124 0.161161
vt 0.146792 0.178665
vt 0.144474 0.177118
vt 0.165003 0.165038
vt 0.151353 0.181712
vt 0.197493 0.133559
vt 0.198561 0.136134
vt 0.178622 0.146821
vt 0.177072 0.144505
vt 0.200661 0.141200
vt 0.181669 0.151380
vt 0.242724 0.124551
vt 0.242725 0.127338
vt 0.220214 0.129581
vt 0.219669 0.126848
vt 0.242727 0.132822
vt 0.221285 0.134960
vt 0.287959 0.133537
vt 0.286894 0.136113
vt 0.265238 0.129571
vt 0.265780 0.126837
vt 0.284797 0.141180
vt 0.264169 0.134950
vt 0.326313 0.159151
vt 0.324342 0.161124
vt 0.306838 0.146791
vt 0.308386 0.144473
vt 0.320466 0.165004
vt 0.303793 0.151352
vt 0.351946 0.197492
vt 0.349369 0.198561
vt 0.338682 0.178621
vt 0.341000 0.177071
vt 0.344299 0.200664
vt 0.334121 0.181672
vt 0.355922 0.220213
vt 0.358657 0.219668
vt 0.350537 0.221286
vt 0.439560 0.324149
vt 0.451647 0.284188
vt 0.430155 0.320272
vt 0.441664 0.282220
vt 0.445555 0.242655
vt 0.455728 0.242638
vt 0.393429 0.393267
vt 0.419888 0.360974
vt 0.386224 0.386087
vt 0.411419 0.355335
vt 0.324360 0.439471
vt 0.361163 0.419761
vt 0.320451 0.430080
vt 0.355496 0.411311
vt 0.242866 0.455727
vt 0.284411 0.451601
vt 0.242849 0.445554
vt 0.282409 0.441625
vt 0.161355 0.439559
vt 0.201316 0.451645
vt 0.165232 0.430154
vt 0.203285 0.441663
vt 0.092236 0.393428
vt 0.124530 0.419887
vt 0.099417 0.386223
vt 0.130169 0.411418
vt 0.046032 0.324359
vt 0.065742 0.361162
vt 0.055423 0.320450
vt 0.074192 0.355495
vt 0.029777 0.242865
vt 0.033902 0.284410
vt 0.039949 0.242848
vt 0.043878 0.282408
vt 0.045946 0.161354
vt 0.033859 0.201315
vt 0.055351 0.165231
vt 0.043841 0.203284
vt 0.092077 0.092236
vt 0.065617 0.124530
vt 0.099282 0.099417
vt 0.074087 0.130168
vt 0.161146 0.046032
vt 0.124343 0.065742
vt 0.165055 0.055424
vt 0.130010 0.074193
vt 0.242639 0.029777
vt 0.201095 0.033903
vt 0.242656 0.039950
vt 0.203096 0.043879
vt 0.324149 0.045945
vt 0.284189 0.033859
vt 0.320272 0.055350
vt 0.282220 0.043841
vt 0.393268 0.092075
vt 0.360974 0.065617
vt 0.386087 0.099281
vt 0.355336 0.074086
vt 0.439472 0.161145
vt 0.419762 0.124341
vt 0.430081 0.165053
vt 0.411312 0.130008
vt 0.451602 0.201093
vt 0.441627 0.203095
vt 0.411568 0.312608
vt 0.402457 0.308851
vt 0.412264 0.276420
vt 0.421935 0.278328
vt 0.415596 0.242703
vt 0.425450 0.242688
vt 0.371984 0.371893
vt 0.365005 0.364936
vt 0.386477 0.338726
vt 0.394681 0.344190
vt 0.312727 0.411518
vt 0.308942 0.402419
vt 0.338809 0.386421
vt 0.344297 0.394609
vt 0.242816 0.425449
vt 0.242801 0.415595
vt 0.276517 0.412244
vt 0.278454 0.421909
vt 0.172896 0.411566
vt 0.176653 0.402456
vt 0.209085 0.412263
vt 0.207176 0.421933
vt 0.113611 0.371983
vt 0.120568 0.365005
vt 0.146778 0.386476
vt 0.141314 0.394680
vt 0.073986 0.312726
vt 0.083084 0.308941
vt 0.099082 0.338808
vt 0.090895 0.344296
vt 0.060055 0.242815
vt 0.069909 0.242801
vt 0.073259 0.276516
vt 0.063595 0.278453
vt 0.073938 0.172895
vt 0.083048 0.176653
vt 0.073241 0.209084
vt 0.063571 0.207175
vt 0.113522 0.113611
vt 0.120500 0.120568
vt 0.099029 0.146778
vt 0.090825 0.141314
vt 0.172779 0.073987
vt 0.176564 0.083085
vt 0.146697 0.099083
vt 0.141209 0.090895
vt 0.242689 0.060055
vt 0.242704 0.069910
vt 0.208989 0.073260
vt 0.207051 0.063596
vt 0.312609 0.073938
vt 0.308852 0.083048
vt 0.276420 0.073241
vt 0.278329 0.063571
vt 0.371894 0.113521
vt 0.364936 0.120500
vt 0.338727 0.099029
vt 0.344191 0.090825
vt 0.411519 0.172778
vt 0.402420 0.176563
vt 0.386422 0.146696
vt 0.394609 0.141208
vt 0.412245 0.208988
vt 0.421910 0.207050
vt 0.355788 0.289539
vt 0.362723 0.266584
vt 0.365089 0.242721
vt 0.329279 0.329234
vt 0.344471 0.310680
vt 0.289597 0.355763
vt 0.310732 0.344435
vt 0.242783 0.365087
vt 0.266645 0.362710
vt 0.195965 0.355786
vt 0.218920 0.362722
vt 0.156269 0.329278
vt 0.174823 0.344469
vt 0.129740 0.289596
vt 0.141068 0.310731
vt 0.120416 0.242782
vt 0.122793 0.266644
vt 0.129718 0.195964
vt 0.122782 0.218919
vt 0.156227 0.156270
vt 0.141035 0.174823
vt 0.195909 0.129741
vt 0.174773 0.141069
vt 0.242722 0.120417
vt 0.218860 0.122794
vt 0.289539 0.129717
vt 0.266584 0.122782
vt 0.329234 0.156226
vt 0.310681 0.141034
vt 0.355764 0.195907
vt 0.344436 0.174772
vt 0.362712 0.218859
vt 0.377818 0.298659
vt 0.373433 0.296843
vt 0.381452 0.270305
vt 0.386107 0.271230
vt 0.384186 0.242717
vt 0.388931 0.242716
vt 0.346142 0.346090
vt 0.342785 0.342735
vt 0.360350 0.321286
vt 0.364296 0.323921
vt 0.298726 0.377789
vt 0.296908 0.373405
vt 0.321344 0.360310
vt 0.323982 0.364255
vt 0.242788 0.388930
vt 0.242787 0.384184
vt 0.270374 0.381437
vt 0.271301 0.386091
vt 0.186845 0.377816
vt 0.188660 0.373431
vt 0.215199 0.381451
vt 0.214274 0.386105
vt 0.139413 0.346141
vt 0.142768 0.342784
vt 0.164218 0.360349
vt 0.161583 0.364295
vt 0.107714 0.298725
vt 0.112098 0.296908
vt 0.125193 0.321344
vt 0.121248 0.323981
vt 0.096573 0.242787
vt 0.101319 0.242786
vt 0.104066 0.270373
vt 0.099412 0.271300
vt 0.107688 0.186845
vt 0.112073 0.188660
vt 0.104053 0.215198
vt 0.099399 0.214273
vt 0.139364 0.139414
vt 0.142720 0.142769
vt 0.125156 0.164218
vt 0.121210 0.161582
vt 0.186780 0.107715
vt 0.188597 0.112099
vt 0.164161 0.125194
vt 0.161524 0.121249
vt 0.242717 0.096574
vt 0.242718 0.101320
vt 0.215131 0.104067
vt 0.214204 0.099413
vt 0.298659 0.107687
vt 0.296844 0.112072
vt 0.270306 0.104053
vt 0.271230 0.099399
vt 0.346091 0.139363
vt 0.342736 0.142720
vt 0.321286 0.125155
vt 0.323922 0.121209
vt 0.377790 0.186779
vt 0.373406 0.188596
vt 0.360311 0.164160
vt 0.364256 0.161523
vt 0.381439 0.215130
vt 0.386093 0.214203
vt 0.381809 0.300311
vt 0.390343 0.272072
vt 0.393251 0.242715
vt 0.349197 0.349144
vt 0.367888 0.326320
vt 0.300380 0.381779
vt 0.326382 0.367846
vt 0.242789 0.393249
vt 0.272145 0.390327
vt 0.185193 0.381807
vt 0.213433 0.390342
vt 0.136360 0.349196
vt 0.159184 0.367887
vt 0.103724 0.300379
vt 0.117658 0.326382
vt 0.092254 0.242789
vt 0.095176 0.272144
vt 0.103697 0.185193
vt 0.095162 0.213432
vt 0.136309 0.136360
vt 0.117618 0.159184
vt 0.185126 0.103725
vt 0.159123 0.117658
vt 0.242716 0.092255
vt 0.213360 0.095177
vt 0.300311 0.103697
vt 0.272072 0.095162
vt 0.349144 0.136308
vt 0.326320 0.117617
vt 0.381780 0.185125
vt 0.367847 0.159122
vt 0.390329 0.213359
vt 0.420809 0.316419
vt 0.431745 0.280264
vt 0.435447 0.242672
vt 0.379064 0.378951
vt 0.403003 0.349732
vt 0.316567 0.420747
vt 0.349865 0.402914
vt 0.242832 0.435446
vt 0.280420 0.431712
vt 0.169085 0.420808
vt 0.205241 0.431743
vt 0.106553 0.379064
vt 0.135772 0.403002
vt 0.064756 0.316566
vt 0.082590 0.349864
vt 0.050058 0.242831
vt 0.053791 0.280419
vt 0.064696 0.169084
vt 0.053761 0.205240
vt 0.106442 0.106553
vt 0.082502 0.135772
vt 0.168939 0.064757
vt 0.135641 0.082590
vt 0.242673 0.050058
vt 0.205085 0.053792
vt 0.316420 0.064696
vt 0.280264 0.053761
vt 0.378951 0.106441
vt 0.349733 0.082502
vt 0.420748 0.168937
vt 0.402915 0.135639
vt 0.431713 0.205084
s 1
f 1/1/1 337/2/2 177/3/3 497/4/4
f 337/2/2 2/5/5 355/6/6 177/3/3
f 82/7/7 513/8/8 177/3/3 355/6/6
f 513/8/8 97/9/9 497/4/4 177/3/3
f 2/5/5 338/10/10 178/11/11 355/6/6
f 338/10/10 3/12/12 357/13/13 178/11/11
f 83/14/14 514/15/15 178/11/11 357/13/13
f 514/15/15 82/7/7 355/6/6 178/11/11
f 3/12/12 339/16/16 179/17/17 357/13/13
f 339/16/16 4/18/18 359/19/19 179/17/17
f 84/20/20 515/21/21 179/17/17 359/19/19
f 515/21/21 83/14/14 357/13/13 179/17/17
f 4/18/18 340/22/22 180/23/23 359/19/19
f 340/22/22 5/24/24 361/25/25 180/23/23
f 85/26/26 516/27/27 180/23/23 361/25/25
f 516/27/27 84/20/20 359/19/19 180/23/23
f 5/24/24 341/28/28 181/29/29 361/25/25
f 341/28/28 6/30/30 363/31/31 181/29/29
f 86/32/32 517/33/33 181/29/29 363/31/31
f 517/33/33 85/26/26 361/25/25 181/29/29
f 6/30/30 342/34/34 182/35/35 363/31/31
f 342/34/34 7/36/36 365/37/37 182/35/35
f 87/38/38 518/39/39 182/35/35 365/37/37
f 518/39/39 86/32/32 363/31/31 182/35/35
f 7/36/36 343/40/40 183/41/41 365/37/37
f 343/40/40 8/42/42 367/43/43 183/41/41
f 88/44/44 519/45/45 183/41/41 367/43/43
f 519/45/45 87/38/38 365/37/37 183/41/41
f 8/42/42 344/46/46 184/47/47 367/43/43
f 344/46/46 9/48/48 369/49/49 184/47/47
f 89/50/50 520/51/51 184/47/47 369/49/49
f 520/51/51 88/44/44 367/43/43 184/47/47
f 9/48/48 345/52/52 185/53/53 369/49/49
f 345/52/52 10/54/54 371/55/55 185/53/53
f 90/56/56 521/57/57 185/53/53 371/55/55
f 521/57/57 89/50/50 369/49/49 185/53/53
f 10/54/54 346/58/58 186/59/59 371/55/55
f 346/58/58 11/60/60 373/61/61 186/59/59
f 91/62/62 522/63/63 186/59/59 373/61/61
f 522/63/63 90/56/56 371/55/55 186/59/59
f 11/60/60 347/64/64 187/65/65 373/61/61
f 347/64/64 12/66/66 375/67/67 187/65/65
f 92/68/68 523/69/69 187/65/65 375/67/67
f 523/69/69 91/62/62 373/61/61 187/65/65
f 12/66/66 348/70/70 188/71/71 375/67/67
f 348/70/70 13/72/72 377/73/73 188/71/71
f 93/74/74 524/75/75 188/71/71 377/73/73
f 524/75/75 92/68/68 375/67/67 188/71/71
f 13/72/72 349/76/76 189/77/77 377/73/73
f 349/76/76 14/78/78 379/79/79 189/77/77
f 94/80/80 525/81/81 189/77/77 379/79/79
f 525/81/81 93/74/74 377/73/73 189/77/77
f 14/78/78 350/82/82 190/83/83 379/79/79
f 350/82/82 15/84/84 381/85/85 190/83/83
f 95/86/86 526/87/87 190/83/83 381/85/85
f 526/87/87 94/80/80 379/79/79 190/83/83
f 15/84/84 351/88/88 191/89/89 381/85/85
f 351/88/88 16/90/90 383/91/91 191/89/89
f 96/92/92 527/93/93 191/89/89 383/91/91
f 527/93/93 95/86/86 381/85/85 191/89/89
f 16/90/90 352/94/94 192/95/95 383/91/91
f 352/94/94 1/1/1 497/4/4 192/95/95
f 97/9/9 528/96/96 192/95/95 497/4/4
f 528/96/96 96/92/92 383/91/91 192/95/95
f 17/97/97 353/98/98 193/99/99 624/100/100
f 353/98/98 18/101/101 387/102/102 193/99/99
f 145/103/103 625/104/104 193/99/99 387/102/102
f 625/104/104 160/105/105 624/100/100 193/99/99
f 18/101/101 356/106/106 194/107/107 387/102/102
f 356/106/106 19/108/108 389/109/109 194/107/107
f 146/110/110 626/111/111 194/107/107 389/109/109
f 626/111/111 145/103/103 387/102/102 194/107/107
f 19/108/108 358/112/112 195/113/113 389/109/109
f 358/112/112 20/114/114 391/115/115 195/113/113
f 147/116/116 627/117/117 195/113/113 391/115/115
f 627/117/117 146/110/110 389/109/109 195/113/113
f 20/114/114 360/118/118 196/119/119 391/115/115
f 360/118/118 21/120/120 393/121/121 196/119/119
f 148/122/122 628/123/123 196/119/119 393/121/121
f 628/123/123 147/116/116 391/115/115 196/119/119
f 21/120/120 362/124/124 197/125/125 393/121/121
f 362/124/124 22/126/126 395/127/127 197/125/125
f 149/128/128 629/129/129 197/125/125 395/127/127
f 629/129/129 148/122/122 393/121/121 197/125/125
f 22/126/126 364/130/130 198/131/131 395/127/127
f 364/130/130 23/132/132 397/133/133 198/131/131
f 150/134/134 630/135/135 198/131/131 397/133/133
f 630/135/135 149/128/128 395/127/127 198/131/131
f 23/132/132 366/136/136 199/137/137 397/133/133
f 366/136/136 24/138/138 399/139/139 199/137/137
f 151/140/140 631/141/141 199/137/137 399/139/139
f 631/141/141 150/134/134 397/133/133 199/137/137
f 24/138/138 368/142/142 200/143/143 399/139/139
f 368/142/142 25/144/144 401/145/145 200/143/143
f 152/146/146 632/147/147 200/143/143 401/145/145
f 632/147/147 151/140/140 399/139/139 200/143/143
f 25/144/144 370/148/148 201/149/149 401/145/145
f 370/148/148 26/150/150 403/151/151 201/149/149
f 153/152/152 633/153/153 201/149/149 403/151/151
f 633/153/153 152/146/146 401/145/145 201/149/149
f 26/150/150 372/154/154 202/155/155 403/151/151
f 372/154/154 27/156/156 405/157/157 202/155/155
f 154/158/158 634/159/159 202/155/155 405/157/157
f 634/159/159 153/152/152 403/151/151 202/155/155
f 27/156/156 374/160/160 203/161/161 405/157/157
f 374/160/160 28/162/162 407/163/163 203/161/161
f 155/164/164 635/165/165 203/161/161 407/163/163
f 635/165/165 154/158/158 405/157/157 203/161/161
f 28/162/162 376/166/166 204/167/167 407/163/163
f 376/166/166 29/168/168 409/169/169 204/167/167
f 156/170/170 636/171/171 204/167/167 409/169/169
f 636/171/171 155/164/164 407/163/163 204/167/167
f 29/168/168 378/172/172 205/173/173 409/169/169
f 378/172/172 30/174/174 411/175/175 205/173/173
f 157/176/176 637/177/177 205/173/173 411/175/175
f 637/177/177 156/170/170 409/169/169 205/173/173
f 30/174/174 380/178/178 206/179/179 411/175/175
f 380/178/178 31/180/180 413/181/181 206/179/179
f 158/182/182 638/183/183 206/179/179 413/181/181
f 638/183/183 157/176/176 411/175/175 206/179/179
f 31/180/180 382/184/184 207/185/185 413/181/181
f 382/184/184 32/186/186 415/187/187 207/185/185
f 159/188/188 639/189/189 207/185/185 415/187/187
f 639/189/189 158/182/182 413/181/181 207/185/185
f 32/186/186 384/190/190 208/191/191 415/187/187
f 384/190/190 17/97/97 624/100/100 208/191/191
f 160/105/105 640/192/192 208/191/191 624/100/100
f 640/192/192 159/188/188 415/187/187 208/191/191
f 33/193/193 385/194/194 209/195/195 433/196/196
f 385/194/194 34/197/197 434/198/198 209/195/195
f 114/199/199 562/200/200 209/195/195 434/198/198
f 562/200/200 113/201/201 433/196/196 209/195/195
f 34/197/197 388/202/202 210/203/203 434/198/198
f 388/202/202 35/204/204 435/205/205 210/203/203
f 115/206/206 563/207/207 210/203/203 435/205/205
f 563/207/207 114/199/199 434/198/198 210/203/203
f 35/204/204 390/208/208 211/209/209 435/205/205
f 390/208/208 36/210/210 436/211/211 211/209/209
f 116/212/212 564/213/213 211/209/209 436/211/211
f 564/213/213 115/206/206 435/205/205 211/209/209
f 36/210/210 392/214/214 212/215/215 436/211/211
f 392/214/214 37/216/216 437/217/217 212/215/215
f 117/218/218 565/219/219 212/215/215 437/217/217
f 565/219/219 116/212/212 436/211/211 212/215/215
f 37/216/216 394/220/220 213/221/221 437/217/217
f 394/220/220 38/222/222 438/223/223 213/221/221
f 118/224/224 566/225/225 213/221/221 438/223/223
f 566/225/225 117/218/218 437/217/217 213/221/221
f 38/222/222 396/226/226 214/227/227 438/223/223
f 396/226/226 39/228/228 439/229/229 214/227/227
f 119/230/230 567/231/231 214/227/227 439/229/229
f 567/231/231 118/224/224 438/223/223 214/227/227
f 39/228/228 398/232/232 215/233/233 439/229/229
f 398/232/232 40/234/234 440/235/235 215/233/233
f 120/236/236 568/237/237 215/233/233 440/235/235
f 568/237/237 119/230/230 439/229/229 215/233/233
f 40/234/234 400/238/238 216/239/239 440/235/235
f 400/238/238 41/240/240 441/241/241 216/239/239
f 121/242/242 569/243/243 216/239/239 441/241/241
f 569/243/243 120/236/236 440/235/235 216/239/239
f 41/240/240 402/244/244 217/245/245 441/241/241
f 402/244/244 42/246/246 442/247/247 217/245/245
f 122/248/248 570/249/249 217/245/245 442/247/247
f 570/249/249 121/242/242 441/241/241 217/245/245
f 42/246/246 404/250/250 218/251/251 442/247/247
f 404/250/250 43/252/252 443/253/253 218/251/251
f 123/254/254 571/255/255 218/251/251 443/253/253
f 571/255/255 122/248/248 442/247/247 218/251/251
f 43/252/252 406/256/256 219/257/257 443/253/253
f 406/256/256 44/258/258 444/259/259 219/257/257
f 124/260/260 572/261/261 219/257/257 444/259/259
f 572/261/261 123/254/254 443/253/253 219/257/257
f 44/258/258 408/262/262 220/263/263 444/259/259
f 408/262/262 45/264/264 445/265/265 220/263/263
f 125/266/266 573/267/267 220/263/263 445/265/265
f 573/267/267 124/260/260 444/259/259 220/263/263
f 45/264/264 410/268/268 221/269/269 445/265/265
f 410/268/268 46/270/270 446/271/271 221/269/269
f 126/272/272 574/273/273 221/269/269 446/271/271
f 574/273/273 125/266/266 445/265/265 221/269/269
f 46/270/270 412/274/274 222/275/275 446/271/271
f 412/274/274 47/276/276 447/277/277 222/275/275
f 127/278/278 575/279/279 222/275/275 447/277/277
f 575/279/279 126/272/272 446/271/271 222/275/275
f 47/276/276 414/280/280 223/281/281 447/277/277
f 414/280/280 48/282/282 448/283/283 223/281/281
f 128/284/284 576/285/285 223/281/281 448/283/283
f 576/285/285 127/278/278 447/277/277 223/281/281
f 48/282/282 416/286/286 224/287/287 448/283/283
f 416/286/286 33/193/193 433/196/196 224/287/287
f 113/201/201 577/288/288 224/287/287 433/196/196
f 577/288/288 128/284/284 448/283/283 224/287/287
f 66/289/289 451/290/290 225/291/291 466/292/292
f 451/290/290 50/293/293 417/294/294 225/291/291
f 49/295/295 450/296/296 225/291/291 417/294/294
f 450/296/296 65/297/297 466/292/292 225/291/291
f 67/298/298 452/299/299 226/300/300 467/301/301
f 452/299/299 51/302/302 418/303/303 226/300/300
f 50/293/293 451/290/290 226/300/300 418/303/303
f 451/290/290 66/289/289 467/301/301 226/300/300
f 68/304/304 453/305/305 227/306/306 468/307/307
f 453/305/305 52/308/308 419/309/309 227/306/306
f 51/302/302 452/299/299 227/306/306 419/309/309
f 452/299/299 67/298/298 468/307/307 227/306/306
f 69/310/310 454/311/311 228/312/312 469/313/313
f 454/311/311 53/314/314 420/315/315 228/312/312
f 52/308/308 453/305/305 228/312/312 420/315/315
f 453/305/305 68/304/304 469/313/313 228/312/312
f 70/316/316 455/317/317 229/318/318 470/319/319
f 455/317/317 54/320/320 421/321/321 229/318/318
f 53/314/314 454/311/311 229/318/318 421/321/321
f 454/311/311 69/310/310 470/319/319 229/318/318
f 71/322/322 456/323/323 230/324/324 471/325/325
f 456/323/323 55/326/326 422/327/327 230/324/324
f 54/320/320 455/317/317 230/324/324 422/327/327
f 455/317/317 70/316/316 471/325/325 230/324/324
f 72/328/328 457/329/329 231/330/330 472/331/331
f 457/329/329 56/332/332 423/333/333 231/330/330
f 55/326/326 456/323/323 231/330/330 423/333/333
f 456/323/323 71/322/322 472/331/331 231/330/330
f 73/334/334 458/335/335 232/336/336 473/337/337
f 458/335/335 57/338/338 424/339/339 232/336/336
f 56/332/332 457/329/329 232/336/336 424/339/339
f 457/329/329 72/328/328 473/337/337 232/336/336
f 74/340/340 459/341/341 233/342/342 474/343/343
f 459/341/341 58/344/344 425/345/345 233/342/342
f 57/338/338 458/335/335 233/342/342 425/345/345
f 458/335/335 73/334/334 474/343/343 233/342/342
f 75/346/346 460/347/347 234/348/348 475/349/349
f 460/347/347 59/350/350 426/351/351 234/348/348
f 58/344/344 459/341/341 234/348/348 426/351/351
f 459/341/341 74/340/340 475/349/349 234/348/348
f 76/352/352 461/353/353 235/354/354 476/355/355
f 461/353/353 60/356/356 427/357/357 235/354/354
f 59/350/350 460/347/347 235/354/354 427/357/357
f 460/347/347 75/346/346 476/355/355 235/354/354
f 77/358/358 462/359/359 236/360/360 477/361/361
f 462/359/359 61/362/362 428/363/363 236/360/360
f 60/356/356 461/353/353 236/360/360 428/363/363
f 461/353/353 76/352/352 477/361/361 236/360/360
f 78/364/364 463/365/365 237/366/366 478/367/367
f 463/365/365 62/368/368 429/369/369 237/366/366
f 61/362/362 462/359/359 237/366/366 429/369/369
f 462/359/359 77/358/358 478/367/367 237/366/366
f 79/370/370 464/371/371 238/372/372 479/373/373
f 464/371/371 63/374/374 430/375/375 238/372/372
f 62/368/368 463/365/365 238/372/372 430/375/375
f 463/365/365 78/364/364 479/373/373 238/372/372
f 80/376/376 465/377/377 239/378/378 480/379/379
f 465/377/377 64/380/380 431/381/381 239/378/378
f 63/374/374 464/371/371 239/378/378 431/381/381
f 464/371/371 79/370/370 480/379/379 239/378/378
f 65/297/297 450/296/296 240/382/382 481/383/383
f 450/296/296 49/295/295 432/384/384 240/382/382
f 64/380/380 465/377/377 240/382/382 432/384/384
f 465/377/377 80/376/376 481/383/383 240/382/382
f 82/7/7 483/385/385 241/386/386 513/8/8
f 483/385/385 175/387/387 657/388/388 241/386/386
f 176/389/389 656/390/390 241/386/386 657/388/388
f 656/390/390 97/9/9 513/8/8 241/386/386
f 83/14/14 484/391/391 242/392/392 514/15/15
f 484/391/391 174/393/393 658/394/394 242/392/392
f 175/387/387 483/385/385 242/392/392 658/394/394
f 483/385/385 82/7/7 514/15/15 242/392/392
f 84/20/20 485/395/395 243/396/396 515/21/21
f 485/395/395 173/397/397 659/398/398 243/396/396
f 174/393/393 484/391/391 243/396/396 659/398/398
f 484/391/391 83/14/14 515/21/21 243/396/396
f 85/26/26 486/399/399 244/400/400 516/27/27
f 486/399/399 172/401/401 660/402/402 244/400/400
f 173/397/397 485/395/395 244/400/400 660/402/402
f 485/395/395 84/20/20 516/27/27 244/400/400
f 86/32/32 487/403/403 245/404/404 517/33/33
f 487/403/403 171/405/405 661/406/406 245/404/404
f 172/401/401 486/399/399 245/404/404 661/406/406
f 486/399/399 85/26/26 517/33/33 245/404/404
f 87/38/38 488/407/407 246/408/408 518/39/39
f 488/407/407 170/409/409 662/410/410 246/408/408
f 171/405/405 487/403/403 246/408/408 662/410/410
f 487/403/403 86/32/32 518/39/39 246/408/408
f 88/44/44 489/411/411 247/412/412 519/45/45
f 489/411/411 169/413/413 663/414/414 247/412/412
f 170/409/409 488/407/407 247/412/412 663/414/414
f 488/407/407 87/38/38 519/45/45 247/412/412
f 89/50/50 490/415/415 248/416/416 520/51/51
f 490/415/415 168/417/417 664/418/418 248/416/416
f 169/413/413 489/411/411 248/416/416 664/418/418
f 489/411/411 88/44/44 520/51/51 248/416/416
f 90/56/56 491/419/419 249/420/420 521/57/57
f 491/419/419 167/421/421 665/422/422 249/420/420
f 168/417/417 490/415/415 249/420/420 665/422/422
f 490/415/415 89/50/50 521/57/57 249/420/420
f 91/62/62 492/423/423 250/424/424 522/63/63
f 492/423/423 166/425/425 666/426/426 250/424/424
f 167/421/421 491/419/419 250/424/424 666/426/426
f 491/419/419 90/56/56 522/63/63 250/424/424
f 92/68/68 493/427/427 251/428/428 523/69/69
f 493/427/427 165/429/429 667/430/430 251/428/428
f 166/425/425 492/423/423 251/428/428 667/430/430
f 492/423/423 91/62/62 523/69/69 251/428/428
f 93/74/74 494/431/431 252/432/432 524/75/75
f 494/431/431 164/433/433 668/434/434 252/432/432
f 165/429/429 493/427/427 252/432/432 668/434/434
f 493/427/427 92/68/68 524/75/75 252/432/432
f 94/80/80 495/435/435 253/436/436 525/81/81
f 495/435/435 163/437/437 669/438/438 253/436/436
f 164/433/433 494/431/431 253/436/436 669/438/438
f 494/431/431 93/74/74 525/81/81 253/436/436
f 95/86/86 496/439/439 254/440/440 526/87/87
f 496/439/439 162/441/441 670/442/442 254/440/440
f 163/437/437 495/435/435 254/440/440 670/442/442
f 495/435/435 94/80/80 526/87/87 254/440/440
f 96/92/92 449/443/443 255/444/444 527/93/93
f 449/443/443 161/445/445 671/446/446 255/444/444
f 162/441/441 496/439/439 255/444/444 671/446/446
f 496/439/439 95/86/86 527/93/93 255/444/444
f 97/9/9 656/390/390 256/447/447 528/96/96
f 656/390/390 176/389/389 672/448/448 256/447/447
f 161/445/445 449/443/443 256/447/447 672/448/448
f 449/443/443 96/92/92 528/96/96 256/447/447
f 98/449/449 498/450/450 257/451/451 529/452/452
f 498/450/450 18/101/101 353/98/98 257/451/451
f 17/97/97 354/453/453 257/451/451 353/98/98
f 354/453/453 81/454/454 529/452/452 257/451/451
f 99/455/455 499/456/456 258/457/457 530/458/458
f 499/456/456 19/108/108 356/106/106 258/457/457
f 18/101/101 498/450/450 258/457/457 356/106/106
f 498/450/450 98/449/449 530/458/458 258/457/457
f 100/459/459 500/460/460 259/461/461 531/462/462
f 500/460/460 20/114/114 358/112/112 259/461/461
f 19/108/108 499/456/456 259/461/461 358/112/112
f 499/456/456 99/455/455 531/462/462 259/461/461
f 101/463/463 501/464/464 260/465/465 532/466/466
f 501/464/464 21/120/120 360/118/118 260/465/465
f 20/114/114 500/460/460 260/465/465 360/118/118
f 500/460/460 100/459/459 532/466/466 260/465/465
f 102/467/467 502/468/468 261/469/469 533/470/470
f 502/468/468 22/126/126 362/124/124 261/469/469
f 21/120/120 501/464/464 261/469/469 362/124/124
f 501/464/464 101/463/463 533/470/470 261/469/469
f 103/471/471 503/472/472 262/473/473 534/474/474
f 503/472/472 23/132/132 364/130/130 262/473/473
f 22/126/126 502/468/468 262/473/473 364/130/130
f 502/468/468 102/467/467 534/474/474 262/473/473
f 104/475/475 504/476/476 263/477/477 535/478/478
f 504/476/476 24/138/138 366/136/136 263/477/477
f 23/132/132 503/472/472 263/477/477 366/136/136
f 503/472/472 103/471/471 535/478/478 263/477/477
f 105/479/479 505/480/480 264/481/481 536/482/482
f 505/480/480 25/144/144 368/142/142 264/481/481
f 24/138/138 504/476/476 264/481/481 368/142/142
f 504/476/476 104/475/475 536/482/482 264/481/481
f 106/483/483 506/484/484 265/485/485 537/486/486
f 506/484/484 26/150/150 370/148/148 265/485/485
f 25/144/144 505/480/480 265/485/485 370/148/148
f 505/480/480 105/479/479 537/486/486 265/485/485
f 107/487/487 507/488/488 266/489/489 538/490/490
f 507/488/488 27/156/156 372/154/154 266/489/489
f 26/150/150 506/484/484 266/489/489 372/154/154
f 506/484/484 106/483/483 538/490/490 266/489/489
f 108/491/491 508/492/492 267/493/493 539/494/494
f 508/492/492 28/162/162 374/160/160 267/493/493
f 27/156/156 507/488/488 267/493/493 374/160/160
f 507/488/488 107/487/487 539/494/494 267/493/493
f 109/495/495 509/496/496 268/497/497 540/498/498
f 509/496/496 29/168/168 376/166/166 268/497/497
f 28/162/162 508/492/492 268/497/497 376/166/166
f 508/492/492 108/491/491 540/498/498 268/497/497
f 110/499/499 510/500/500 269/501/501 541/502/502
f 510/500/500 30/174/174 378/172/172 269/501/501
f 29/168/168 509/496/496 269/501/501 378/172/172
f 509/496/496 109/495/495 541/502/502 269/501/501
f 111/503/503 511/504/504 270/505/505 542/506/506
f 511/504/504 31/180/180 380/178/178 270/505/505
f 30/174/174 510/500/500 270/505/505 380/178/178
f 510/500/500 110/499/499 542/506/506 270/505/505
f 112/507/507 512/508/508 271/509/509 543/510/510
f 512/508/508 32/186/186 382/184/184 271/509/509
f 31/180/180 511/504/504 271/509/509 382/184/184
f 511/504/504 111/503/503 543/510/510 271/509/509
f 81/454/454 354/453/453 272/511/511 544/512/512
f 354/453/453 17/97/97 384/190/190 272/511/511
f 32/186/186 512/508/508 272/511/511 384/190/190
f 512/508/508 112/507/507 544/512/512 272/511/511
f 114/199/199 547/513/513 273/514/514 562/200/200
f 547/513/513 66/289/289 466/292/292 273/514/514
f 65/297/297 546/515/515 273/514/514 466/292/292
f 546/515/515 113/201/201 562/200/200 273/514/514
f 115/206/206 548/516/516 274/517/517 563/207/207
f 548/516/516 67/298/298 467/301/301 274/517/517
f 66/289/289 547/513/513 274/517/517 467/301/301
f 547/513/513 114/199/199 563/207/207 274/517/517
f 116/212/212 549/518/518 275/519/519 564/213/213
f 549/518/518 68/304/304 468/307/307 275/519/519
f 67/298/298 548/516/516 275/519/519 468/307/307
f 548/516/516 115/206/206 564/213/213 275/519/519
f 117/218/218 550/520/520 276/521/521 565/219/219
f 550/520/520 69/310/310 469/313/313 276/521/521
f 68/304/304 549/518/518 276/521/521 469/313/313
f 549/518/518 116/212/212 565/219/219 276/521/521
f 118/224/224 551/522/522 277/523/523 566/225/225
f 551/522/522 70/316/316 470/319/319 277/523/523
f 69/310/310 550/520/520 277/523/523 470/319/319
f 550/520/520 117/218/218 566/225/225 277/523/523
f 119/230/230 552/524/524 278/525/525 567/231/231
f 552/524/524 71/322/322 471/325/325 278/525/525
f 70/316/316 551/522/522 278/525/525 471/325/325
f 551/522/522 118/224/224 567/231/231 278/525/525
f 120/236/236 553/526/526 279/527/527 568/237/237
f 553/526/526 72/328/328 472/331/331 279/527/527
f 71/322/322 552/524/524 279/527/527 472/331/331
f 552/524/524 119/230/230 568/237/237 279/527/527
f 121/242/242 554/528/528 280/529/529 569/243/243
f 554/528/528 73/334/334 473/337/337 280/529/529
f 72/328/328 553/526/526 280/529/529 473/337/337
f 553/526/526 120/236/236 569/243/243 280/529/529
f 122/248/248 555/530/530 281/531/531 570/249/249
f 555/530/530 74/340/340 474/343/343 281/531/531
f 73/334/334 554/528/528 281/531/531 474/343/343
f 554/528/528 121/242/242 570/249/249 281/531/531
f 123/254/254 556/532/532 282/533/533 571/255/255
f 556/532/532 75/346/346 475/349/349 282/533/533
f 74/340/340 555/530/530 282/533/533 475/349/349
f 555/530/530 122/248/248 571/255/255 282/533/533
f 124/260/260 557/534/534 283/535/535 572/261/261
f 557/534/534 76/352/352 476/355/355 283/535/535
f 75/346/346 556/532/532 283/535/535 476/355/355
f 556/532/532 123/254/254 572/261/261 283/535/535
f 125/266/266 558/536/536 284/537/537 573/267/267
f 558/536/536 77/358/358 477/361/361 284/537/537
f 76/352/352 557/534/534 284/537/537 477/361/361
f 557/534/534 124/260/260 573/267/267 284/537/537
f 126/272/272 559/538/538 285/539/539 574/273/273
f 559/538/538 78/364/364 478/367/367 285/539/539
f 77/358/358 558/536/536 285/539/539 478/367/367
f 558/536/536 125/266/266 574/273/273 285/539/539
f 127/278/278 560/540/540 286/541/541 575/279/279
f 560/540/540 79/370/370 479/373/373 286/541/541
f 78/364/364 559/538/538 286/541/541 479/373/373
f 559/538/538 126/272/272 575/279/279 286/541/541
f 128/284/284 561/542/542 287/543/543 576/285/285
f 561/542/542 80/376/376 480/379/379 287/543/543
f 79/370/370 560/540/540 287/543/543 480/379/379
f 560/540/540 127/278/278 576/285/285 287/543/543
f 113/201/201 546/515/515 288/544/544 577/288/288
f 546/515/515 65/297/297 481/383/383 288/544/544
f 80/376/376 561/542/542 288/544/544 481/383/383
f 561/542/542 128/284/284 577/288/288 288/544/544
f 130/545/545 578/546/546 289/547/547 593/548/548
f 578/546/546 34/197/197 385/194/194 289/547/547
f 33/193/193 386/549/549 289/547/547 385/194/194
f 386/549/549 129/550/550 593/548/548 289/547/547
f 131/551/551 579/552/552 290/553/553 594/554/554
f 579/552/552 35/204/204 388/202/202 290/553/553
f 34/197/197 578/546/546 290/553/553 388/202/202
f 578/546/546 130/545/545 594/554/554 290/553/553
f 132/555/555 580/556/556 291/557/557 595/558/551
f 580/556/556 36/210/210 390/208/208 291/557/557
f 35/204/204 579/552/552 291/557/557 390/208/208
f 579/552/552 131/551/551 595/558/551 291/557/557
f 133/559/558 581/560/559 292/561/560 596/562/561
f 581/560/559 37/216/216 392/214/214 292/561/560
f 36/210/210 580/556/556 292/561/560 392/214/214
f 580/556/556 132/555/555 596/562/561 292/561/560
f 134/563/562 582/564/563 293/565/564 597/566/561
f 582/564/563 38/222/222 394/220/220 293/565/564
f 37/216/216 581/560/559 293/565/564 394/220/220
f 581/560/559 133/559/558 597/566/561 293/565/564
f 135/567/565 583/568/566 294/569/567 598/570/568
f 583/568/566 39/228/228 396/226/226 294/569/567
f 38/222/222 582/564/563 294/569/567 396/226/226
f 582/564/563 134/563/562 598/570/568 294/569/567
f 136/571/569 584/572/570 295/573/571 599/574/572
f 584/572/570 40/234/234 398/232/232 295/573/571
f 39/228/228 583/568/566 295/573/571 398/232/232
f 583/568/566 135/567/565 599/574/572 295/573/571
f 137/575/573 585/576/574 296/577/575 600/578/576
f 585/576/574 41/240/240 400/238/238 296/577/575
f 40/234/234 584/572/570 296/577/575 400/238/238
f 584/572/570 136/571/569 600/578/576 296/577/575
f 138/579/577 586/580/578 297/581/579 601/582/577
f 586/580/578 42/246/246 402/244/244 297/581/579
f 41/240/240 585/576/574 297/581/579 402/244/244
f 585/576/574 137/575/573 601/582/577 297/581/579
f 139/583/580 587/584/581 298/585/582 602/586/583
f 587/584/581 43/252/252 404/250/250 298/585/582
f 42/246/246 586/580/578 298/585/582 404/250/250
f 586/580/578 138/579/577 602/586/583 298/585/582
f 140/587/584 588/588/585 299/589/586 603/590/587
f 588/588/585 44/258/258 406/256/256 299/589/586
f 43/252/252 587/584/581 299/589/586 406/256/256
f 587/584/581 139/583/580 603/590/587 299/589/586
f 141/591/588 589/592/589 300/593/590 604/594/591
f 589/592/589 45/264/264 408/262/262 300/593/590
f 44/258/258 588/588/585 300/593/590 408/262/262
f 588/588/585 140/587/584 604/594/591 300/593/590
f 142/595/592 590/596/593 301/597/594 605/598/595
f 590/596/593 46/270/270 410/268/268 301/597/594
f 45/264/264 589/592/589 301/597/594 410/268/268
f 589/592/589 141/591/588 605/598/595 301/597/594
f 143/599/596 591/600/597 302/601/598 606/602/599
f 591/600/597 47/276/276 412/274/274 302/601/598
f 46/270/270 590/596/593 302/601/598 412/274/274
f 590/596/593 142/595/592 606/602/599 302/601/598
f 144/603/545 592/604/600 303/605/601 607/606/545
f 592/604/600 48/282/282 414/280/280 303/605/601
f 47/276/276 591/600/597 303/605/601 414/280/280
f 591/600/597 143/599/596 607/606/545 303/605/601
f 129/550/550 386/549/549 304/607/602 608/608/548
f 386/549/549 33/193/193 416/286/286 304/607/602
f 48/282/282 592/604/600 304/607/602 416/286/286
f 592/604/600 144/603/545 608/608/548 304/607/602
f 145/103/103 609/609/545 305/610/603 625/104/104
f 609/609/545 130/545/545 593/548/548 305/610/603
f 129/550/550 545/611/603 305/610/603 593/548/548
f 545/611/603 160/105/105 625/104/104 305/610/603
f 146/110/110 610/612/604 306/613/554 626/111/111
f 610/612/604 131/551/551 594/554/554 306/613/554
f 130/545/545 609/609/545 306/613/554 594/554/554
f 609/609/545 145/103/103 626/111/111 306/613/554
f 147/116/116 611/614/554 307/615/604 627/117/117
f 611/614/554 132/555/555 595/558/551 307/615/604
f 131/551/551 610/612/604 307/615/604 595/558/551
f 610/612/604 146/110/110 627/117/117 307/615/604
f 148/122/122 612/616/561 308/617/561 628/123/123
f 612/616/561 133/559/558 596/562/561 308/617/561
f 132/555/555 611/614/554 308/617/561 596/562/561
f 611/614/554 147/116/116 628/123/123 308/617/561
f 149/128/128 613/618/572 309/619/561 629/129/129
f 613/618/572 134/563/562 597/566/561 309/619/561
f 133/559/558 612/616/561 309/619/561 597/566/561
f 612/616/561 148/122/122 629/129/129 309/619/561
f 150/134/134 614/620/605 310/621/605 630/135/135
f 614/620/605 135/567/565 598/570/568 310/621/605
f 134/563/562 613/618/572 310/621/605 598/570/568
f 613/618/572 149/128/128 630/135/135 310/621/605
f 151/140/140 615/622/606 311/623/572 631/141/141
f 615/622/606 136/571/569 599/574/572 311/623/572
f 135/567/565 614/620/605 311/623/572 599/574/572
f 614/620/605 150/134/134 631/141/141 311/623/572
f 152/146/146 616/624/607 312/625/608 632/147/147
f 616/624/607 137/575/573 600/578/576 312/625/608
f 136/571/569 615/622/606 312/625/608 600/578/576
f 615/622/606 151/140/140 632/147/147 312/625/608
f 153/152/152 617/626/609 313/627/610 633/153/153
f 617/626/609 138/579/577 601/582/577 313/627/610
f 137/575/573 616/624/607 313/627/610 601/582/577
f 616/624/607 152/146/146 633/153/153 313/627/610
f 154/158/158 618/628/611 314/629/611 634/159/159
f 618/628/611 139/583/580 602/586/583 314/629/611
f 138/579/577 617/626/609 314/629/611 602/586/583
f 617/626/609 153/152/152 634/159/159 314/629/611
f 155/164/164 619/630/611 315/631/611 635/165/165
f 619/630/611 140/587/584 603/590/587 315/631/611
f 139/583/580 618/628/611 315/631/611 603/590/587
f 618/628/611 154/158/158 635/165/165 315/631/611
f 156/170/170 620/632/612 316/633/612 636/171/171
f 620/632/612 141/591/588 604/594/591 316/633/612
f 140/587/584 619/630/611 316/633/612 604/594/591
f 619/630/611 155/164/164 636/171/171 316/633/612
f 157/176/176 621/634/613 317/635/612 637/177/177
f 621/634/613 142/595/592 605/598/595 317/635/612
f 141/591/588 620/632/612 317/635/612 605/598/595
f 620/632/612 156/170/170 637/177/177 317/635/612
f 158/182/182 622/636/596 318/637/613 638/183/183
f 622/636/596 143/599/596 606/602/599 318/637/613
f 142/595/592 621/634/613 318/637/613 606/602/599
f 621/634/613 157/176/176 638/183/183 318/637/613
f 159/188/188 623/638/545 319/639/596 639/189/189
f 623/638/545 144/603/545 607/606/545 319/639/596
f 143/599/596 622/636/596 319/639/596 607/606/545
f 622/636/596 158/182/182 639/189/189 319/639/596
f 160/105/105 545/611/603 320/640/603 640/192/192
f 545/611/603 129/550/550 608/608/548 320/640/603
f 144/603/545 623/638/545 320/640/603 608/608/548
f 623/638/545 159/188/188 640/192/192 320/640/603
f 175/387/387 655/641/614 321/642/615 657/388/388
f 655/641/614 98/449/449 529/452/452 321/642/615
f 81/454/454 482/643/616 321/642/615 529/452/452
f 482/643/616 176/389/389 657/388/388 321/642/615
f 174/393/393 654/644/617 322/645/618 658/394/394
f 654/644/617 99/455/455 530/458/458 322/645/618
f 98/449/449 655/641/614 322/645/618 530/458/458
f 655/641/614 175/387/387 658/394/394 322/645/618
f 173/397/397 653/646/619 323/647/620 659/398/398
f 653/646/619 100/459/459 531/462/462 323/647/620
f 99/455/455 654/644/617 323/647/620 531/462/462
f 654/644/617 174/393/393 659/398/398 323/647/620
f 172/401/401 652/648/621 324/649/622 660/402/402
f 652/648/621 101/463/463 532/466/466 324/649/622
f 100/459/459 653/646/619 324/649/622 532/466/466
f 653/646/619 173/397/397 660/402/402 324/649/622
f 171/405/405 651/650/623 325/651/624 661/406/406
f 651/650/623 102/467/467 533/470/470 325/651/624
f 101/463/463 652/648/621 325/651/624 533/470/470
f 652/648/621 172/401/401 661/406/406 325/651/624
f 170/409/409 650/652/625 326/653/626 662/410/410
f 650/652/625 103/471/471 534/474/474 326/653/626
f 102/467/467 651/650/623 326/653/626 534/474/474
f 651/650/623 171/405/405 662/410/410 326/653/626
f 169/413/413 649/654/627 327/655/628 663/414/414
f 649/654/627 104/475/475 535/478/478 327/655/628
f 103/471/471 650/652/625 327/655/628 535/478/478
f 650/652/625 170/409/409 663/414/414 327/655/628
f 168/417/417 648/656/629 328/657/630 664/418/418
f 648/656/629 105/479/479 536/482/482 328/657/630
f 104/475/475 649/654/627 328/657/630 536/482/482
f 649/654/627 169/413/413 664/418/418 328/657/630
f 167/421/421 647/658/631 329/659/632 665/422/422
f 647/658/631 106/483/483 537/486/486 329/659/632
f 105/479/479 648/656/629 329/659/632 537/486/486
f 648/656/629 168/417/417 665/422/422 329/659/632
f 166/425/425 646/660/633 330/661/634 666/426/426
f 646/660/633 107/487/487 538/490/490 330/661/634
f 106/483/483 647/658/631 330/661/634 538/490/490
f 647/658/631 167/421/421 666/426/426 330/661/634
f 165/429/429 645/662/635 331/663/636 667/430/430
f 645/662/635 108/491/491 539/494/494 331/663/636
f 107/487/487 646/660/633 331/663/636 539/494/494
f 646/660/633 166/425/425 667/430/430 331/663/636
f 164/433/433 644/664/637 332/665/638 668/434/434
f 644/664/637 109/495/495 540/498/498 332/665/638
f 108/491/491 645/662/635 332/665/638 540/498/498
f 645/662/635 165/429/429 668/434/434 332/665/638
f 163/437/437 643/666/639 333/667/640 669/438/438
f 643/666/639 110/499/499 541/502/502 333/667/640
f 109/495/495 644/664/637 333/667/640 541/502/502
f 644/664/637 164/433/433 669/438/438 333/667/640
f 162/441/441 642/668/641 334/669/642 670/442/442
f 642/668/641 111/503/503 542/506/506 334/669/642
f 110/499/499 643/666/639 334/669/642 542/506/506
f 643/666/639 163/437/437 670/442/442 334/669/642
f 161/445/445 641/670/643 335/671/644 671/446/446
f 641/670/643 112/507/507 543/510/510 335/671/644
f 111/503/503 642/668/641 335/671/644 543/510/510
f 642/668/641 162/441/441 671/446/446 335/671/644
f 176/389/389 482/643/616 336/672/645 672/448/448
f 482/643/616 81/454/454 544/512/512 336/672/645
f 112/507/507 641/670/643 336/672/645 544/512/512
f 641/670/643 161/445/445 672/448/448 336/672/645
