# Blender 4.5.3 LTS
# www.blender.org
o Dualsense.069
v -39.320560 -23.615139 41.790291
v -39.228886 -23.585081 42.082634
v -39.255203 -23.645903 41.775894
v -39.353931 -23.648304 41.478180
v -39.342354 -23.530914 41.795097
v -39.342354 -21.135670 41.795097
v -39.249359 -23.501755 42.091278
v -39.376194 -23.563015 41.479523
v -39.376194 -21.135670 41.479523
v -39.296154 -23.633938 40.786591
v -39.296154 -21.133772 40.786591
v -39.047508 -23.779533 39.358345
v -39.273972 -23.722092 40.788216
v -39.207390 -23.752371 40.793114
v -39.025585 -23.874022 39.362335
v -38.746441 -24.025047 37.942543
v -38.959846 -23.905735 39.374275
v -38.682472 -24.058224 37.961449
v -38.855255 -23.906313 39.393318
v -38.580704 -24.057648 37.991516
v -38.716785 -23.907375 39.418472
v -39.101490 -23.754015 40.800896
v -38.961292 -23.756277 40.811195
v -39.180973 -23.681564 41.467827
v -39.151222 -23.650618 41.752991
v -39.040382 -23.685671 41.459389
v -39.287178 -23.678463 41.474174
v -39.013557 -23.656725 41.722664
v -38.792397 -23.688704 41.476425
v -38.776237 -23.661253 41.719772
v -38.709095 -23.758112 40.844780
v -38.364056 -23.688526 41.546402
v -37.845543 -23.687315 41.642914
v -38.373268 -23.661179 41.779099
v -38.267220 -23.758518 40.922447
v -37.730492 -23.758341 41.022194
v -38.018555 -23.910194 39.547348
v -37.757938 -24.060392 38.175369
v -37.475735 -23.911592 39.647980
v -38.464516 -23.908749 39.464813
v -38.198372 -24.058043 38.089691
v -38.050335 -24.123550 37.472664
v -38.445980 -24.057365 38.031349
v -38.288017 -24.124620 37.399956
v -38.416298 -24.127241 37.342064
v -38.169224 -24.148638 37.166023
v -38.015926 -24.168907 36.971252
v -38.286789 -24.154383 37.088303
v -37.948708 -24.145046 37.253929
v -37.821751 -24.162298 37.073669
v -37.551060 -24.147230 37.343185
v -37.064922 -24.152037 37.433083
v -37.465996 -24.164511 37.161751
v -37.625237 -24.125973 37.560844
v -37.106476 -24.129930 37.656761
v -36.587795 -24.133482 37.752655
v -37.221111 -24.063374 38.274704
v -36.684303 -24.065910 38.374016
v -36.932922 -23.912775 39.748604
v -36.242420 -24.068228 38.451637
v -36.487019 -23.913694 39.831444
v -35.990353 -24.070518 38.485893
v -36.159370 -24.137144 37.822289
v -35.911453 -24.141413 37.839531
v -36.175789 -24.161125 37.581749
v -35.938473 -24.167477 37.578621
v -36.229557 -24.180775 37.368370
v -36.578880 -24.156328 37.522926
v -36.593090 -24.175230 37.323318
v -36.627815 -24.191071 37.146873
v -37.029499 -24.170498 37.242599
v -36.998432 -24.186693 37.075623
v -36.969929 -24.202070 36.922302
v -37.370064 -24.180075 37.009277
v -37.263287 -24.196196 36.878433
v -37.671619 -24.177948 36.929024
v -37.500439 -24.194551 36.817131
v -37.832001 -24.187027 36.815948
v -37.621315 -24.204565 36.700500
v -37.912010 -24.199671 36.700569
v -37.677208 -24.218374 36.571899
v -38.116955 -24.178444 36.873573
v -37.972458 -24.208242 36.613403
v -37.719440 -24.228149 36.474777
v -38.010448 -24.177065 36.558624
v -38.193272 -24.184982 36.799812
v -38.241241 -24.153040 36.753456
v -38.375614 -24.158627 37.029587
v -38.431442 -24.125912 36.992683
v -38.513203 -24.129438 37.298332
v -38.574112 -24.096136 37.270851
v -38.594418 -23.992239 37.261688
v -38.594418 -21.111809 37.261688
v -38.767765 -23.924160 37.936234
v -38.450050 -24.020845 36.980385
v -38.450050 -21.105362 36.980385
v -38.257233 -24.047117 36.737991
v -38.257233 -21.103226 36.737991
v -38.023117 -24.070515 36.540367
v -38.023117 -21.103226 36.540367
v -37.754829 -24.090490 36.393372
v -37.754829 -21.103226 36.393372
v -37.463108 -24.106295 36.300964
v -37.745979 -24.197618 36.413727
v -37.458420 -24.213892 36.322632
v -37.444347 -24.243946 36.387634
v -37.158337 -24.225098 36.289207
v -36.857513 -24.230768 36.314293
v -37.157299 -24.254881 36.355667
v -37.158672 -24.117193 36.267067
v -37.158672 -21.103226 36.267067
v -36.853489 -24.122669 36.292519
v -36.853489 -21.103226 36.292519
v -36.559475 -24.122269 36.378189
v -36.559475 -21.103226 36.378189
v -36.287460 -24.116150 36.518990
v -36.567699 -24.230373 36.398781
v -36.299576 -24.224100 36.537552
v -36.592384 -24.260130 36.460457
v -36.335934 -24.254147 36.593224
v -36.631649 -24.248896 36.558609
v -36.869572 -24.260435 36.379662
v -36.888756 -24.249046 36.483658
v -36.914162 -24.233961 36.621330
v -37.155674 -24.243780 36.461395
v -37.421959 -24.233440 36.491035
v -37.153500 -24.229082 36.601334
v -37.392323 -24.219316 36.627945
v -37.179737 -24.212624 36.749153
v -37.361320 -24.208466 36.732956
v -36.942368 -24.217524 36.773811
v -36.711994 -24.218346 36.835976
v -36.683624 -24.234022 36.688560
v -36.536816 -24.218725 36.885971
v -36.680428 -24.204756 36.986588
v -36.437202 -24.209143 37.014389
v -36.282700 -24.220177 36.948799
v -36.317680 -24.196621 37.179985
v -36.127541 -24.206680 37.131859
v -36.011646 -24.189165 37.342278
v -36.011581 -24.217669 37.052803
v -35.882381 -24.197927 37.287338
v -36.184551 -24.232962 36.848732
v -35.923977 -24.225965 36.993080
v -35.784729 -24.204527 37.245804
v -35.868919 -24.194876 36.955528
v -36.110420 -24.242636 36.773170
v -36.063824 -24.212143 36.725655
v -36.048286 -24.104481 36.709808
v -36.048286 -21.103226 36.709808
v -35.850563 -24.087658 36.943016
v -35.850563 -21.103226 36.943016
v -35.702896 -24.066069 37.211014
v -35.702896 -21.103226 37.211014
v -35.609818 -24.040262 37.506073
v -35.723351 -24.172684 37.219711
v -35.631596 -24.146051 37.510864
v -35.696934 -24.178621 37.525291
v -35.598122 -24.115406 37.821693
v -35.575893 -24.010832 37.820442
v -35.678055 -24.041134 38.510857
v -35.664833 -24.148546 37.825493
v -35.744549 -24.074078 38.505531
v -35.770973 -24.145475 37.831512
v -35.850323 -24.072544 38.497086
v -35.800877 -24.173828 37.548241
v -36.096645 -23.914724 39.904846
v -36.234921 -23.914309 39.878632
v -36.371464 -23.756107 41.308083
v -35.992184 -23.915030 39.924614
v -35.926521 -23.883612 39.937073
v -36.269814 -23.755198 41.338814
v -36.439495 -23.678385 42.004135
v -36.205906 -23.725325 41.358124
v -36.378609 -23.648649 42.031822
v -36.184612 -23.637177 41.364563
v -36.184612 -21.133772 41.364563
v -36.358315 -23.563492 42.041077
v -35.904640 -23.788876 39.941216
v -35.655899 -23.939692 38.512627
v -35.904640 -21.128031 39.941216
v -35.655899 -21.120163 38.512627
v -35.575893 -21.111809 37.820442
v -35.609818 -21.105366 37.506073
v -36.503040 -23.530361 42.324036
v -36.358315 -21.135670 42.041077
v -36.503040 -21.135670 42.324036
v -36.696053 -21.135670 42.566772
v -36.696049 -23.500353 42.566772
v -36.930317 -21.135670 42.764557
v -36.930313 -23.474468 42.764557
v -37.198757 -21.135670 42.912552
v -37.198750 -23.453724 42.912537
v -37.490444 -21.135666 43.005913
v -37.490444 -23.438574 43.005913
v -37.794472 -21.135666 43.039642
v -37.794460 -23.429441 43.039642
v -38.099140 -21.135666 43.013542
v -38.099140 -23.426567 43.013542
v -38.392796 -21.135670 42.927200
v -38.392792 -23.430220 42.927200
v -38.664650 -21.135670 42.785759
v -38.664642 -23.440001 42.785759
v -38.903870 -21.135670 42.594276
v -38.903870 -23.455585 42.594276
v -39.101696 -21.135670 42.360283
v -39.101696 -23.476362 42.360283
v -39.249359 -21.135670 42.091293
v -39.083321 -23.558947 42.347816
v -39.028175 -23.591105 42.310379
v -38.888298 -23.537537 42.578484
v -38.841568 -23.570248 42.531113
v -38.652470 -23.521482 42.767235
v -38.615948 -23.554594 42.711700
v -38.384510 -23.511400 42.906670
v -38.359634 -23.544733 42.845039
v -38.095062 -23.507629 42.991753
v -38.082821 -23.541021 42.926414
v -37.794777 -23.510565 43.017502
v -37.795723 -23.543812 42.951042
v -37.495140 -23.519939 42.984215
v -37.509228 -23.552866 42.919212
v -37.207619 -23.535521 42.892212
v -37.234230 -23.567957 42.831192
v -36.943001 -23.556850 42.746315
v -36.981071 -23.588663 42.691597
v -36.712067 -23.583504 42.551346
v -36.760098 -23.614584 42.505051
v -36.521656 -23.614441 42.311722
v -36.577499 -23.644783 42.274796
v -36.666370 -23.648939 42.216026
v -36.784004 -23.654432 42.138275
v -36.836525 -23.620579 42.431381
v -36.536354 -23.680809 41.960045
v -36.664585 -23.684015 41.901688
v -36.506035 -23.757305 41.267372
v -36.902157 -23.686609 41.828407
v -36.753487 -23.758270 41.208191
v -37.004448 -23.658838 42.050133
v -37.327026 -23.687197 41.739517
v -37.193779 -23.758423 41.121941
v -37.401745 -23.659712 41.960281
v -37.887482 -23.659636 41.869621
v -37.487019 -23.636541 42.143059
v -37.922909 -23.636299 42.061729
v -37.582905 -23.617115 42.296074
v -37.131783 -23.634991 42.231422
v -36.937679 -23.628536 42.333855
v -37.282074 -23.615112 42.376366
v -37.453270 -23.599178 42.488976
v -37.121815 -23.606739 42.489334
v -37.332600 -23.589462 42.605591
v -37.041634 -23.596445 42.604561
v -37.276562 -23.577209 42.734116
v -37.531639 -23.563248 42.815788
v -37.561317 -23.576986 42.678856
v -37.797215 -23.554920 42.845352
v -37.799202 -23.569614 42.705383
v -38.063343 -23.552414 42.822495
v -38.037563 -23.567501 42.684891
v -38.320068 -23.555960 42.747002
v -38.267677 -23.570835 42.617226
v -38.557869 -23.565155 42.623291
v -38.480965 -23.579000 42.506271
v -38.767227 -23.579578 42.455727
v -38.668808 -23.591415 42.355919
v -38.940414 -23.598915 42.250885
v -38.824257 -23.608486 42.172089
v -39.069733 -23.622824 42.015327
v -38.940350 -23.630630 41.960625
v -39.167454 -23.616543 42.056633
v -38.722408 -23.636604 41.934875
v -38.358978 -23.637411 41.980438
v -38.634010 -23.615957 42.124313
v -38.323963 -23.617426 42.157898
v -38.514107 -23.600483 42.290665
v -38.414375 -23.589066 42.419456
v -38.270927 -23.601477 42.318878
v -38.239098 -23.586842 42.469826
v -37.981850 -23.599792 42.383514
v -38.009163 -23.584040 42.532349
v -37.953728 -23.616600 42.229576
v -37.689491 -23.600822 42.427582
v -37.772888 -23.585659 42.557381
v -37.592072 -23.587486 42.573586
v -36.287460 -21.103226 36.518990
v -36.393764 -24.243479 36.681786
v -36.470325 -24.229385 36.799026
v -37.463108 -21.103226 36.300964
v -38.767765 -21.120163 37.936234
v -39.047508 -21.128031 39.358345
vn -0.9077 -0.1286 0.3994
vn -0.9683 -0.1278 0.2146
vn -0.7464 -0.6287 0.2180
vn -0.6943 -0.6255 0.3560
vn -0.2191 -0.9646 0.1469
vn -0.2021 -0.9620 0.1838
vn -0.2318 -0.9675 0.1013
vn -0.7745 -0.6297 0.0601
vn -0.9920 -0.1261 0.0091
vn -0.9790 -0.0000 0.2041
vn -1.0000 -0.0000 -0.0042
vn -0.9198 -0.0000 0.3923
vn -0.9897 -0.0000 -0.1432
vn -0.9840 -0.1219 -0.1296
vn -0.7714 -0.6347 -0.0449
vn -0.9832 -0.0000 -0.1823
vn -0.9788 -0.1154 -0.1694
vn -0.7772 -0.6244 -0.0779
vn -0.2300 -0.9706 0.0708
vn -0.2380 -0.9694 0.0601
vn -0.9718 -0.1087 -0.2091
vn -0.7850 -0.6089 -0.1141
vn -0.2501 -0.9671 0.0471
vn -0.0253 -0.9945 0.1013
vn -0.0251 -0.9944 0.1029
vn -0.0237 -0.9943 0.1043
vn -0.0262 -0.9945 0.1010
vn -0.0251 -0.9944 0.1031
vn -0.0229 -0.9942 0.1047
vn -0.0222 -0.9939 0.1078
vn -0.0210 -0.9939 0.1084
vn -0.0195 -0.9937 0.1107
vn -0.0180 -0.9935 0.1124
vn -0.0189 -0.9938 0.1100
vn -0.0172 -0.9932 0.1150
vn -0.0207 -0.9942 0.1058
vn -0.0182 -0.9930 0.1169
vn -0.0185 -0.9935 0.1120
vn -0.0199 -0.9940 0.1072
vn -0.0204 -0.9939 0.1083
vn -0.0201 -0.9934 0.1132
vn -0.0205 -0.9929 0.1169
vn -0.0223 -0.9942 0.1051
vn -0.0221 -0.9941 0.1062
vn -0.0234 -0.9943 0.1040
vn -0.0253 -0.9945 0.1015
vn -0.0246 -0.9944 0.1026
vn -0.0242 -0.9943 0.1040
vn -0.0243 -0.9952 0.0944
vn -0.0252 -0.9952 0.0951
vn -0.0231 -0.9951 0.0962
vn -0.0218 -0.9949 0.0983
vn -0.0160 -0.9950 0.0982
vn -0.0166 -0.9955 0.0933
vn -0.0213 -0.9960 0.0869
vn -0.0200 -0.9960 0.0871
vn -0.0119 -0.9951 0.0984
vn -0.0123 -0.9945 0.1039
vn -0.0255 -0.9959 0.0864
vn -0.0277 -0.9961 0.0839
vn -0.0265 -0.9954 0.0919
vn -0.0253 -0.9949 0.0980
vn -0.0287 -0.9955 0.0901
vn -0.0239 -0.9941 0.1053
vn -0.0251 -0.9946 0.1010
vn -0.0261 -0.9950 0.0967
vn -0.0221 -0.9940 0.1070
vn -0.0236 -0.9941 0.1063
vn -0.0224 -0.9940 0.1075
vn -0.0246 -0.9944 0.1031
vn -0.0230 -0.9939 0.1076
vn -0.0232 -0.9940 0.1067
vn -0.0236 -0.9943 0.1040
vn -0.0256 -0.9947 0.0993
vn -0.0245 -0.9946 0.1004
vn -0.0260 -0.9948 0.0984
vn -0.0268 -0.9949 0.0973
vn -0.0274 -0.9951 0.0950
vn -0.0286 -0.9951 0.0945
vn -0.0280 -0.9950 0.0963
vn -0.0311 -0.9953 0.0921
vn -0.0314 -0.9954 0.0902
vn -0.0320 -0.9948 0.0966
vn -0.0295 -0.9950 0.0956
vn -0.0335 -0.9945 0.0995
vn -0.0239 -0.9951 0.0959
vn -0.0295 -0.9939 0.1059
vn -0.0147 -0.9940 0.1079
vn -0.0230 -0.9933 0.1134
vn -0.0146 -0.9938 0.1104
vn -0.0211 -0.9935 0.1116
vn -0.1688 -0.9786 -0.1180
vn -0.1274 -0.9813 -0.1445
vn -0.2047 -0.9752 -0.0842
vn -0.4840 -0.6073 -0.6300
vn -0.3438 -0.6104 -0.7135
vn -0.6044 -0.6043 -0.5192
vn -0.2338 -0.9713 -0.0439
vn -0.6987 -0.6011 -0.3879
vn -0.7682 -0.5967 -0.2320
vn -0.2567 -0.9665 0.0064
vn -0.8406 -0.1040 -0.5315
vn -0.9331 -0.1053 -0.3440
vn -0.9345 -0.0000 -0.3560
vn -0.8398 -0.0000 -0.5429
vn -0.9752 -0.0000 -0.2212
vn -0.7172 -0.0000 -0.6969
vn -0.7193 -0.1031 -0.6870
vn -0.5656 -0.0000 -0.8247
vn -0.5687 -0.1024 -0.8162
vn -0.3931 -0.0000 -0.9195
vn -0.3966 -0.1018 -0.9123
vn -0.2073 -0.0000 -0.9783
vn -0.2106 -0.1014 -0.9723
vn -0.1899 -0.6125 -0.7673
vn -0.0809 -0.9832 -0.1636
vn -0.0303 -0.9846 -0.1722
vn -0.0274 -0.6139 -0.7889
vn -0.0165 -0.1010 -0.9947
vn 0.1806 -0.1009 -0.9784
vn 0.1388 -0.6142 -0.7769
vn 0.0225 -0.9852 -0.1701
vn -0.0138 -0.0000 -0.9999
vn 0.1823 -0.0000 -0.9832
vn 0.3715 -0.0000 -0.9284
vn 0.3706 -0.1009 -0.9233
vn 0.2992 -0.6141 -0.7303
vn 0.5443 -0.0000 -0.8389
vn 0.5440 -0.1011 -0.8330
vn 0.4449 -0.6127 -0.6532
vn 0.1208 -0.9839 -0.1319
vn 0.0739 -0.9850 -0.1559
vn -0.0296 -0.9945 0.1003
vn -0.0296 -0.9943 0.1019
vn -0.0289 -0.9942 0.1035
vn -0.0277 -0.9941 0.1052
vn -0.0296 -0.9943 0.1028
vn -0.0291 -0.9940 0.1054
vn -0.0301 -0.9944 0.1011
vn -0.0257 -0.9938 0.1082
vn -0.0280 -0.9935 0.1102
vn -0.0317 -0.9940 0.1043
vn -0.0312 -0.9936 0.1089
vn -0.0309 -0.9944 0.1006
vn -0.0301 -0.9947 0.0985
vn -0.0300 -0.9946 0.0994
vn -0.0297 -0.9948 0.0979
vn -0.0290 -0.9949 0.0965
vn -0.0292 -0.9948 0.0981
vn -0.0277 -0.9948 0.0976
vn -0.0273 -0.9948 0.0983
vn -0.0254 -0.9948 0.0989
vn -0.0288 -0.9947 0.0989
vn 0.1951 -0.9791 -0.0566
vn 0.2188 -0.9757 -0.0080
vn 0.1616 -0.9820 -0.0983
vn 0.6746 -0.6078 -0.4189
vn 0.7492 -0.6047 -0.2702
vn 0.5714 -0.6108 -0.5481
vn 0.6963 -0.1014 -0.7105
vn 0.8228 -0.1019 -0.5592
vn 0.6965 -0.0000 -0.7176
vn 0.8234 -0.0000 -0.5675
vn 0.9192 -0.0000 -0.3938
vn 0.9175 -0.1025 -0.3842
vn 0.9786 -0.0000 -0.2059
vn 0.9753 -0.1034 -0.1950
vn 0.7911 -0.6015 -0.1113
vn 0.2310 -0.9719 0.0444
vn 0.8000 -0.5969 0.0608
vn 0.2329 -0.9672 0.1018
vn 0.9944 -0.1046 0.0137
vn 0.9822 -0.1081 0.1535
vn 0.7729 -0.6092 0.1775
vn 0.2107 -0.9679 0.1373
vn -0.0230 -0.9940 0.1068
vn -0.0230 -0.9943 0.1041
vn -0.0238 -0.9946 0.1007
vn -0.0233 -0.9939 0.1076
vn 0.1940 -0.9703 0.1446
vn -0.0239 -0.9938 0.1082
vn -0.0232 -0.9938 0.1084
vn 0.1824 -0.9715 0.1512
vn 0.7519 -0.6255 0.2084
vn 0.7340 -0.6365 0.2369
vn -0.0251 -0.9937 0.1096
vn 0.1733 -0.9685 0.1788
vn 0.6992 -0.6316 0.3350
vn 0.9650 -0.1219 0.2321
vn 0.9228 -0.1262 0.3641
vn 0.9744 -0.1151 0.1931
vn 0.9833 -0.0000 0.1822
vn 0.9753 -0.0000 0.2209
vn 0.9352 -0.0000 0.3541
vn 0.9897 -0.0000 0.1431
vn 1.0000 -0.0000 0.0026
vn 0.8267 -0.1281 0.5479
vn 0.6161 -0.6306 0.4720
vn 0.8407 -0.0000 0.5415
vn 0.7174 -0.0000 0.6966
vn 0.7033 -0.1288 0.6991
vn 0.5667 -0.0000 0.8239
vn 0.5539 -0.1295 0.8225
vn 0.3957 -0.0000 0.9184
vn 0.3854 -0.1302 0.9135
vn 0.2086 -0.0000 0.9780
vn 0.2018 -0.1307 0.9707
vn 0.0125 -0.0000 0.9999
vn 0.0099 -0.1309 0.9913
vn -0.1847 -0.0000 0.9828
vn -0.1829 -0.1309 0.9744
vn -0.3736 -0.0000 0.9276
vn -0.3677 -0.1308 0.9207
vn -0.5458 -0.0000 0.8379
vn -0.5367 -0.1304 0.8336
vn -0.6976 -0.0000 0.7165
vn -0.6862 -0.1299 0.7158
vn -0.8242 -0.0000 0.5662
vn -0.8118 -0.1292 0.5694
vn -0.6172 -0.6228 0.4809
vn -0.5195 -0.6213 0.5866
vn -0.1792 -0.9598 0.2158
vn -0.1521 -0.9582 0.2424
vn -0.1219 -0.9568 0.2639
vn -0.4065 -0.6200 0.6711
vn -0.2805 -0.6195 0.7331
vn -0.0884 -0.9562 0.2792
vn -0.0527 -0.9560 0.2887
vn -0.1442 -0.6191 0.7719
vn -0.0023 -0.6199 0.7847
vn -0.0159 -0.9565 0.2914
vn 0.0207 -0.9574 0.2880
vn 0.1394 -0.6209 0.7714
vn 0.2758 -0.6227 0.7322
vn 0.0556 -0.9588 0.2784
vn 0.0880 -0.9605 0.2639
vn 0.4027 -0.6245 0.6692
vn 0.5177 -0.6273 0.5818
vn 0.1184 -0.9627 0.2432
vn 0.1461 -0.9655 0.2155
vn -0.0265 -0.9937 0.1086
vn -0.0264 -0.9936 0.1101
vn -0.0258 -0.9935 0.1113
vn -0.0244 -0.9936 0.1102
vn -0.0261 -0.9936 0.1099
vn -0.0229 -0.9935 0.1115
vn -0.0219 -0.9938 0.1087
vn -0.0243 -0.9933 0.1134
vn -0.0217 -0.9934 0.1128
vn -0.0211 -0.9938 0.1088
vn -0.0227 -0.9931 0.1155
vn -0.0227 -0.9933 0.1137
vn -0.0205 -0.9931 0.1152
vn -0.0246 -0.9934 0.1120
vn -0.0216 -0.9938 0.1095
vn -0.0197 -0.9938 0.1094
vn -0.0233 -0.9938 0.1090
vn -0.0246 -0.9939 0.1074
vn -0.0199 -0.9943 0.1050
vn -0.0212 -0.9942 0.1057
vn -0.0221 -0.9942 0.1051
vn -0.0248 -0.9940 0.1063
vn -0.0223 -0.9943 0.1046
vn -0.0203 -0.9943 0.1043
vn -0.0200 -0.9943 0.1044
vn -0.0186 -0.9943 0.1046
vn -0.0190 -0.9943 0.1048
vn -0.0179 -0.9942 0.1057
vn -0.0174 -0.9943 0.1052
vn -0.0169 -0.9943 0.1055
vn -0.0174 -0.9942 0.1066
vn -0.0170 -0.9942 0.1064
vn -0.0166 -0.9944 0.1042
vn -0.0146 -0.9945 0.1035
vn -0.0155 -0.9943 0.1058
vn -0.0141 -0.9941 0.1073
vn -0.0125 -0.9941 0.1075
vn -0.0140 -0.9936 0.1122
vn -0.0158 -0.9938 0.1100
vn -0.0154 -0.9932 0.1155
vn -0.0149 -0.9939 0.1096
vn -0.0181 -0.9930 0.1166
vn -0.0176 -0.9938 0.1097
vn -0.0166 -0.9946 0.1026
vn -0.0156 -0.9946 0.1026
vn -0.0163 -0.9946 0.1026
vn -0.0162 -0.9947 0.1017
vn -0.0181 -0.9944 0.1037
vn -0.0172 -0.9945 0.1034
vn -0.0188 -0.9944 0.1040
vn -0.0198 -0.9943 0.1043
vt 0.154630 0.439625
vt 0.155560 0.439715
vt 0.155560 0.439975
vt 0.154620 0.439875
vt 0.771599 0.032521
vt 0.771179 0.031691
vt 0.771369 0.031611
vt 0.771779 0.032391
vt 0.771109 0.030741
vt 0.770899 0.030811
vt 0.156501 0.440075
vt 0.156501 0.439815
vt 0.155610 0.432584
vt 0.156551 0.432584
vt 0.154670 0.432574
vt 0.158631 0.432594
vt 0.158571 0.440045
vt 0.158571 0.440325
vt 0.162952 0.432624
vt 0.162882 0.440515
vt 0.162882 0.440806
vt 0.770759 0.028731
vt 0.770968 0.028691
vt 0.770709 0.024390
vt 0.770929 0.024380
vt 0.167193 0.440986
vt 0.167183 0.441296
vt 0.770759 0.020049
vt 0.770968 0.020059
vt 0.771289 0.020099
vt 0.771249 0.024380
vt 0.771279 0.028671
vt 0.771699 0.020149
vt 0.771669 0.024380
vt 0.771699 0.028621
vt 0.771419 0.030671
vt 0.771819 0.030561
vt 0.771659 0.031491
vt 0.772039 0.031311
vt 0.772559 0.030491
vt 0.772739 0.031191
vt 0.772469 0.028581
vt 0.773959 0.031131
vt 0.773849 0.030461
vt 0.773789 0.028551
vt 0.775419 0.028551
vt 0.775419 0.030461
vt 0.775419 0.031141
vt 0.773779 0.024380
vt 0.775419 0.024380
vt 0.772429 0.024380
vt 0.772469 0.020179
vt 0.773789 0.020189
vt 0.775419 0.020189
vt 0.772559 0.018289
vt 0.773849 0.018319
vt 0.771829 0.018199
vt 0.771419 0.018109
vt 0.771659 0.017289
vt 0.772039 0.017449
vt 0.772739 0.017589
vt 0.773019 0.016989
vt 0.772389 0.016779
vt 0.772039 0.016559
vt 0.773959 0.017629
vt 0.774119 0.017059
vt 0.775419 0.017629
vt 0.775419 0.018309
vt 0.775419 0.017059
vt 0.777049 0.020189
vt 0.776989 0.018309
vt 0.776899 0.017629
vt 0.777069 0.024380
vt 0.778380 0.020179
vt 0.778410 0.024380
vt 0.778290 0.018279
vt 0.779180 0.024380
vt 0.779150 0.020139
vt 0.779030 0.018189
vt 0.778110 0.017579
vt 0.778790 0.017439
vt 0.778460 0.016779
vt 0.777830 0.016969
vt 0.776739 0.017059
vt 0.776539 0.016549
vt 0.777480 0.016479
vt 0.775419 0.016549
vt 0.774309 0.016559
vt 0.775419 0.016089
vt 0.776309 0.016119
vt 0.774539 0.016119
vt 0.773379 0.016489
vt 0.773809 0.016059
vt 0.772849 0.016229
vt 0.773399 0.015779
vt 0.772549 0.015949
vt 0.773169 0.015439
vt 0.772329 0.015729
vt 0.772989 0.015169
vt 0.771779 0.016379
vt 0.772159 0.015569
vt 0.772869 0.014989
vt 0.771589 0.016279
vt 0.771369 0.017179
vt 0.771159 0.017089
vt 0.770889 0.017979
vt 0.771109 0.018019
vt 0.170203 0.441296
vt 0.170203 0.441616
vt 0.169263 0.441516
vt 0.169263 0.441196
vt 0.169343 0.432634
vt 0.170283 0.432624
vt 0.167273 0.432644
vt 0.171203 0.432624
vt 0.171123 0.441376
vt 0.171123 0.441706
vt 0.172114 0.432634
vt 0.172033 0.441466
vt 0.172033 0.441786
vt 0.173024 0.432644
vt 0.172944 0.441526
vt 0.172944 0.441856
vt 0.173934 0.432654
vt 0.173854 0.441596
vt 0.173854 0.441906
vt 0.773659 0.014559
vt 0.773739 0.014759
vt 0.774569 0.014519
vt 0.774519 0.014309
vt 0.174764 0.441946
vt 0.174764 0.441626
vt 0.175684 0.441656
vt 0.175654 0.441986
vt 0.775419 0.014209
vt 0.775419 0.014419
vt 0.174844 0.432654
vt 0.175764 0.432664
vt 0.124445 0.441356
vt 0.124465 0.432374
vt 0.125375 0.432374
vt 0.125355 0.441356
vt 0.125355 0.441686
vt 0.124455 0.441686
vt 0.126285 0.432374
vt 0.126265 0.441346
vt 0.126265 0.441676
vt 0.776329 0.014309
vt 0.777199 0.014559
vt 0.777099 0.014749
vt 0.776289 0.014519
vt 0.776969 0.015049
vt 0.776219 0.014819
vt 0.775419 0.014739
vt 0.774639 0.014829
vt 0.775419 0.015149
vt 0.774719 0.015229
vt 0.776139 0.015229
vt 0.773869 0.015059
vt 0.774029 0.015449
vt 0.774719 0.015689
vt 0.774179 0.015749
vt 0.775419 0.015629
vt 0.776129 0.015679
vt 0.776819 0.015449
vt 0.776679 0.015739
vt 0.777029 0.016049
vt 0.777460 0.015779
vt 0.778000 0.016229
vt 0.778300 0.015949
vt 0.778790 0.016559
vt 0.777690 0.015439
vt 0.778530 0.015719
vt 0.779080 0.016369
vt 0.777860 0.015169
vt 0.778680 0.015569
vt 0.779260 0.016269
vt 0.777980 0.014989
vt 0.127175 0.441316
vt 0.128085 0.441266
vt 0.128085 0.441596
vt 0.127175 0.441646
vt 0.127195 0.432374
vt 0.128105 0.432374
vt 0.129016 0.432374
vt 0.129006 0.441196
vt 0.128996 0.441526
vt 0.129936 0.432384
vt 0.129926 0.441126
vt 0.129926 0.441456
vt 0.779680 0.017079
vt 0.779480 0.017169
vt 0.779960 0.017969
vt 0.779740 0.018009
vt 0.130866 0.441356
vt 0.130856 0.441046
vt 0.132936 0.440836
vt 0.132936 0.441146
vt 0.780100 0.020049
vt 0.779870 0.020059
vt 0.779560 0.020099
vt 0.779430 0.018099
vt 0.779190 0.017279
vt 0.779600 0.024380
vt 0.779920 0.024380
vt 0.779560 0.028671
vt 0.779140 0.028631
vt 0.779870 0.028701
vt 0.780140 0.024390
vt 0.780090 0.028731
vt 0.779430 0.030681
vt 0.779740 0.030751
vt 0.779950 0.030821
vt 0.143638 0.440005
vt 0.141558 0.440225
vt 0.141568 0.439965
vt 0.143648 0.439745
vt 0.137257 0.440695
vt 0.137257 0.440395
vt 0.137277 0.432474
vt 0.141598 0.432504
vt 0.143678 0.432524
vt 0.132956 0.432444
vt 0.130876 0.432404
vt 0.144598 0.439655
vt 0.144588 0.439905
vt 0.144618 0.432524
vt 0.145549 0.432524
vt 0.145519 0.439565
vt 0.146459 0.432534
vt 0.146429 0.439495
vt 0.147369 0.432534
vt 0.147339 0.439435
vt 0.148289 0.432534
vt 0.148249 0.439405
vt 0.149199 0.432544
vt 0.149159 0.439365
vt 0.150109 0.432544
vt 0.150069 0.439365
vt 0.151020 0.432554
vt 0.150980 0.439395
vt 0.151930 0.432554
vt 0.151890 0.439425
vt 0.152850 0.432564
vt 0.152800 0.439475
vt 0.153760 0.432574
vt 0.153710 0.439535
vt 0.153710 0.439795
vt 0.152800 0.439725
vt 0.772879 0.033802
vt 0.772169 0.033221
vt 0.772329 0.033061
vt 0.772989 0.033621
vt 0.773739 0.034022
vt 0.773659 0.034222
vt 0.151890 0.439675
vt 0.774519 0.034502
vt 0.774569 0.034282
vt 0.150980 0.439635
vt 0.775419 0.034362
vt 0.775419 0.034582
vt 0.150069 0.439625
vt 0.776329 0.034502
vt 0.776289 0.034282
vt 0.149159 0.439625
vt 0.777099 0.034032
vt 0.777189 0.034232
vt 0.148249 0.439645
vt 0.777970 0.033812
vt 0.777860 0.033621
vt 0.147339 0.439685
vt 0.778520 0.033071
vt 0.778670 0.033231
vt 0.146429 0.439745
vt 0.779250 0.032521
vt 0.779070 0.032401
vt 0.145519 0.439825
vt 0.779480 0.031621
vt 0.779670 0.031711
vt 0.778790 0.032221
vt 0.779190 0.031491
vt 0.778790 0.031321
vt 0.779020 0.030571
vt 0.778460 0.032001
vt 0.778290 0.030491
vt 0.778380 0.028581
vt 0.778110 0.031201
vt 0.776989 0.030471
vt 0.777049 0.028561
vt 0.776889 0.031141
vt 0.776739 0.031731
vt 0.775419 0.031731
vt 0.777830 0.031791
vt 0.776539 0.032231
vt 0.775419 0.032241
vt 0.777470 0.032311
vt 0.778000 0.032551
vt 0.776309 0.032681
vt 0.777029 0.032731
vt 0.777450 0.033011
vt 0.778300 0.032851
vt 0.777680 0.033351
vt 0.776969 0.033742
vt 0.776819 0.033351
vt 0.776129 0.033561
vt 0.776209 0.033972
vt 0.775419 0.034042
vt 0.775419 0.033631
vt 0.774719 0.033561
vt 0.774639 0.033962
vt 0.773869 0.033732
vt 0.774029 0.033331
vt 0.773399 0.033001
vt 0.773169 0.033351
vt 0.772549 0.032841
vt 0.772849 0.032541
vt 0.772389 0.031991
vt 0.772039 0.032221
vt 0.773019 0.031791
vt 0.773379 0.032301
vt 0.774119 0.031721
vt 0.774309 0.032231
vt 0.774539 0.032681
vt 0.773809 0.032721
vt 0.774719 0.033101
vt 0.774179 0.033051
vt 0.775419 0.032701
vt 0.775419 0.033151
vt 0.776129 0.033101
vt 0.776669 0.033061
s 1
f 7/1/1 5/2/2 1/3/3 2/4/4
f 2/5/4 1/6/3 3/7/5 271/8/6
f 27/9/7 3/7/5 1/6/3 4/10/8
f 4/11/8 1/3/3 5/2/2 8/12/9
f 5/2/2 6/13/10 9/14/11 8/12/9
f 7/1/1 208/15/12 6/13/10 5/2/2
f 8/12/9 9/14/11 11/16/13 10/17/14
f 8/12/9 10/17/14 13/18/15 4/11/8
f 10/17/14 11/16/13 291/19/16 12/20/17
f 15/21/18 13/18/15 10/17/14 12/20/17
f 4/10/8 13/22/15 14/23/19 27/9/7
f 14/23/19 13/22/15 15/24/18 17/25/20
f 94/26/21 16/27/22 15/21/18 12/20/17
f 15/24/18 16/28/22 18/29/23 17/25/20
f 18/29/23 20/30/24 19/31/25 17/25/20
f 17/25/20 19/31/25 22/32/26 14/23/19
f 19/31/25 20/30/24 43/33/27 21/34/28
f 21/34/28 23/35/29 22/32/26 19/31/25
f 24/36/30 22/32/26 23/35/29 26/37/31
f 27/9/7 14/23/19 22/32/26 24/36/30
f 24/36/30 25/38/32 3/7/5 27/9/7
f 26/37/31 28/39/33 25/38/32 24/36/30
f 29/40/34 30/41/35 28/39/33 26/37/31
f 26/37/31 23/35/29 31/42/36 29/40/34
f 34/43/37 30/41/35 29/40/34 32/44/38
f 32/44/38 29/40/34 31/42/36 35/45/39
f 35/45/39 36/46/40 33/47/41 32/44/38
f 32/44/38 33/47/41 243/48/42 34/43/37
f 36/46/40 35/45/39 37/49/43 39/50/44
f 37/49/43 35/45/39 31/42/36 40/51/45
f 40/51/45 41/52/46 38/53/47 37/49/43
f 37/49/43 38/53/47 57/54/48 39/50/44
f 21/34/28 43/33/27 41/52/46 40/51/45
f 40/51/45 31/42/36 23/35/29 21/34/28
f 38/53/47 41/52/46 42/55/49 54/56/50
f 42/55/49 41/52/46 43/33/27 44/57/51
f 44/57/51 43/33/27 20/30/24 45/58/52
f 45/58/52 48/59/53 46/60/54 44/57/51
f 44/57/51 46/60/54 49/61/55 42/55/49
f 50/62/56 49/61/55 46/60/54 47/63/57
f 47/63/57 46/60/54 48/59/53 82/64/58
f 51/65/59 49/61/55 50/62/56 53/66/60
f 54/56/50 42/55/49 49/61/55 51/65/59
f 51/65/59 52/67/61 55/68/62 54/56/50
f 53/66/60 71/69/63 52/67/61 51/65/59
f 54/56/50 55/68/62 57/54/48 38/53/47
f 58/70/64 57/54/48 55/68/62 56/71/65
f 56/71/65 55/68/62 52/67/61 68/72/66
f 39/50/44 57/54/48 58/70/64 59/73/67
f 59/73/67 58/70/64 60/74/68 61/75/69
f 56/71/65 63/76/70 60/74/68 58/70/64
f 168/77/71 61/75/69 60/74/68 62/78/72
f 62/78/72 60/74/68 63/76/70 64/79/73
f 64/79/73 63/76/70 65/80/74 66/81/75
f 68/72/66 65/80/74 63/76/70 56/71/65
f 140/82/76 66/81/75 65/80/74 67/83/77
f 69/84/78 67/83/77 65/80/74 68/72/66
f 68/72/66 52/67/61 71/69/63 69/84/78
f 70/85/79 138/86/80 67/83/77 69/84/78
f 69/84/78 71/69/63 72/87/81 70/85/79
f 74/88/82 72/87/81 71/69/63 53/66/60
f 70/85/79 72/87/81 73/89/83 135/90/84
f 75/91/85 73/89/83 72/87/81 74/88/82
f 74/88/82 76/92/86 77/93/87 75/91/85
f 53/66/60 50/62/56 76/92/86 74/88/82
f 77/93/87 76/92/86 78/94/88 79/95/89
f 47/63/57 78/94/88 76/92/86 50/62/56
f 79/95/89 78/94/88 80/96/90 81/97/91
f 82/64/58 80/96/90 78/94/88 47/63/57
f 81/97/91 80/96/90 83/98/92 84/99/93
f 86/100/94 83/98/92 80/96/90 82/64/58
f 84/99/93 83/98/92 85/101/95 104/102/96
f 87/103/97 85/101/95 83/98/92 86/100/94
f 82/64/58 48/59/53 88/104/98 86/100/94
f 86/100/94 88/104/98 89/105/99 87/103/97
f 91/106/100 89/105/99 88/104/98 90/107/101
f 90/107/101 88/104/98 48/59/53 45/58/52
f 45/58/52 20/30/24 18/29/23 90/107/101
f 90/107/101 18/29/23 16/28/22 91/106/100
f 95/108/102 89/109/99 91/110/100 92/111/103
f 92/111/103 91/110/100 16/27/22 94/26/21
f 92/111/103 93/112/104 96/113/105 95/108/102
f 94/26/21 290/114/106 93/112/104 92/111/103
f 95/108/102 96/113/105 98/115/107 97/116/108
f 87/117/97 89/109/99 95/108/102 97/116/108
f 97/116/108 98/115/107 100/118/109 99/119/110
f 97/116/108 99/119/110 85/120/95 87/117/97
f 99/119/110 100/118/109 102/121/111 101/122/112
f 104/123/96 85/120/95 99/119/110 101/122/112
f 101/122/112 102/121/111 289/124/113 103/125/114
f 101/122/112 103/125/114 105/126/115 104/123/96
f 104/102/96 105/127/115 106/128/116 84/99/93
f 109/129/117 106/128/116 105/127/115 107/130/118
f 107/131/118 105/126/115 103/125/114 110/132/119
f 110/132/119 112/133/120 108/134/121 107/131/118
f 107/130/118 108/135/121 122/136/122 109/129/117
f 103/125/114 289/124/113 111/137/123 110/132/119
f 110/132/119 111/137/123 113/138/124 112/133/120
f 112/139/120 113/140/124 115/141/125 114/142/126
f 117/143/127 108/144/121 112/139/120 114/142/126
f 114/142/126 115/141/125 286/145/128 116/146/129
f 114/142/126 116/146/129 118/147/130 117/143/127
f 117/148/127 118/149/130 120/150/131 119/151/132
f 119/151/132 122/136/122 108/135/121 117/148/127
f 119/151/132 120/150/131 287/152/133 121/153/134
f 121/153/134 123/154/135 122/136/122 119/151/132
f 109/129/117 122/136/122 123/154/135 125/155/136
f 125/155/136 123/154/135 124/156/137 127/157/138
f 133/158/139 124/156/137 123/154/135 121/153/134
f 125/155/136 126/159/140 106/128/116 109/129/117
f 127/157/138 128/160/141 126/159/140 125/155/136
f 129/161/142 130/162/143 128/160/141 127/157/138
f 127/157/138 124/156/137 131/163/144 129/161/142
f 75/91/85 77/93/87 130/162/143 129/161/142
f 129/161/142 131/163/144 73/89/83 75/91/85
f 135/90/84 73/89/83 131/163/144 132/164/145
f 132/164/145 131/163/144 124/156/137 133/158/139
f 133/158/139 288/165/146 134/166/147 132/164/145
f 132/164/145 134/166/147 136/167/148 135/90/84
f 135/90/84 136/167/148 138/86/80 70/85/79
f 136/167/148 134/166/147 288/165/146 137/168/149
f 137/168/149 139/169/150 138/86/80 136/167/148
f 67/83/77 138/86/80 139/169/150 140/82/76
f 140/82/76 139/169/150 141/170/151 142/171/152
f 143/172/153 141/170/151 139/169/150 137/168/149
f 142/171/152 141/170/151 144/173/154 145/174/155
f 147/175/156 144/173/154 141/170/151 143/172/153
f 145/174/155 144/173/154 146/176/157 156/177/158
f 148/178/159 146/176/157 144/173/154 147/175/156
f 143/172/153 287/152/133 120/150/131 147/175/156
f 147/175/156 120/150/131 118/149/130 148/178/159
f 149/179/160 151/180/161 146/181/157 148/182/159
f 148/182/159 118/147/130 116/146/129 149/179/160
f 116/146/129 286/145/128 150/183/162 149/179/160
f 149/179/160 150/183/162 152/184/163 151/180/161
f 151/180/161 152/184/163 154/185/164 153/186/165
f 156/187/158 146/181/157 151/180/161 153/186/165
f 153/186/165 154/185/164 184/188/166 155/189/167
f 153/186/165 155/189/167 157/190/168 156/187/158
f 156/177/158 157/191/168 158/192/169 145/174/155
f 158/192/169 157/191/168 159/193/170 162/194/171
f 159/195/170 157/190/168 155/189/167 160/196/172
f 160/196/172 180/197/173 161/198/174 159/195/170
f 162/194/171 159/193/170 161/199/174 163/200/175
f 163/200/175 165/201/176 164/202/177 162/194/171
f 162/194/171 164/202/177 166/203/178 158/192/169
f 66/81/75 166/203/178 164/202/177 64/79/73
f 64/79/73 164/202/177 165/201/176 62/78/72
f 145/174/155 158/192/169 166/203/178 142/171/152
f 142/171/152 166/203/178 66/81/75 140/82/76
f 62/78/72 165/201/176 167/204/179 168/77/71
f 167/204/179 165/201/176 163/200/175 170/205/180
f 168/77/71 167/204/179 169/206/181 236/207/182
f 170/205/180 172/208/183 169/206/181 167/204/179
f 170/205/180 163/200/175 161/199/174 171/209/184
f 171/209/184 174/210/185 172/208/183 170/205/180
f 234/211/186 169/206/181 172/208/183 173/212/187
f 173/212/187 172/208/183 174/210/185 175/213/188
f 175/214/188 174/215/185 176/216/189 178/217/190
f 176/216/189 174/215/185 171/218/184 179/219/191
f 181/220/192 177/221/193 176/216/189 179/219/191
f 176/216/189 177/221/193 186/222/194 178/217/190
f 179/219/191 171/218/184 161/198/174 180/197/173
f 179/219/191 180/197/173 182/223/195 181/220/192
f 183/224/196 182/223/195 180/197/173 160/196/172
f 160/196/172 155/189/167 184/188/166 183/224/196
f 185/225/197 229/226/198 175/214/188 178/217/190
f 186/222/194 187/227/199 185/225/197 178/217/190
f 185/225/197 187/227/199 188/228/200 189/229/201
f 189/229/201 188/228/200 190/230/202 191/231/203
f 191/231/203 190/230/202 192/232/204 193/233/205
f 193/233/205 192/232/204 194/234/206 195/235/207
f 195/235/207 194/234/206 196/236/208 197/237/209
f 197/237/209 196/236/208 198/238/210 199/239/211
f 199/239/211 198/238/210 200/240/212 201/241/213
f 201/241/213 200/240/212 202/242/214 203/243/215
f 203/243/215 202/242/214 204/244/216 205/245/217
f 205/245/217 204/244/216 206/246/218 207/247/219
f 207/247/219 206/246/218 208/15/12 7/1/1
f 2/4/4 209/248/220 207/247/219 7/1/1
f 205/245/217 207/247/219 209/248/220 211/249/221
f 211/250/221 209/251/220 210/252/222 212/253/223
f 271/8/6 210/252/222 209/251/220 2/5/4
f 212/253/223 214/254/224 213/255/225 211/250/221
f 211/249/221 213/256/225 203/243/215 205/245/217
f 215/257/226 213/255/225 214/254/224 216/258/227
f 201/241/213 203/243/215 213/256/225 215/259/226
f 216/258/227 218/260/228 217/261/229 215/257/226
f 215/259/226 217/262/229 199/239/211 201/241/213
f 219/263/230 217/261/229 218/260/228 220/264/231
f 197/237/209 199/239/211 217/262/229 219/265/230
f 220/264/231 222/266/232 221/267/233 219/263/230
f 219/265/230 221/268/233 195/235/207 197/237/209
f 223/269/234 221/267/233 222/266/232 224/270/235
f 193/233/205 195/235/207 221/268/233 223/271/234
f 224/270/235 226/272/236 225/273/237 223/269/234
f 223/271/234 225/274/237 191/231/203 193/233/205
f 227/275/238 225/273/237 226/272/236 228/276/239
f 189/229/201 191/231/203 225/274/237 227/277/238
f 228/276/239 230/278/240 229/279/198 227/275/238
f 227/277/238 229/226/198 185/225/197 189/229/201
f 175/213/188 229/279/198 230/278/240 173/212/187
f 233/280/241 231/281/242 230/278/240 228/276/239
f 173/212/187 230/278/240 231/281/242 234/211/186
f 234/211/186 231/281/242 232/282/243 235/283/244
f 248/284/245 232/282/243 231/281/242 233/280/241
f 235/283/244 236/207/182 169/206/181 234/211/186
f 237/285/246 238/286/247 236/207/182 235/283/244
f 235/283/244 232/282/243 239/287/248 237/285/246
f 240/288/249 241/289/250 238/286/247 237/285/246
f 237/285/246 239/287/248 242/290/251 240/288/249
f 36/46/40 241/289/250 240/288/249 33/47/41
f 240/288/249 242/290/251 243/48/42 33/47/41
f 244/291/252 245/292/253 243/48/42 242/290/251
f 242/290/251 239/287/248 247/293/254 244/291/252
f 246/294/255 282/295/256 245/292/253 244/291/252
f 244/291/252 247/293/254 249/296/257 246/294/255
f 247/293/254 239/287/248 232/282/243 248/284/245
f 248/284/245 251/297/258 249/296/257 247/293/254
f 283/298/259 246/294/255 249/296/257 250/299/260
f 250/299/260 249/296/257 251/297/258 252/300/261
f 252/300/261 251/297/258 253/301/262 254/302/263
f 233/280/241 253/301/262 251/297/258 248/284/245
f 254/302/263 253/301/262 226/272/236 224/270/235
f 228/276/239 226/272/236 253/301/262 233/280/241
f 254/302/263 255/303/264 256/304/265 252/300/261
f 224/270/235 222/266/232 255/303/264 254/302/263
f 258/305/266 256/304/265 255/303/264 257/306/267
f 257/306/267 255/303/264 222/266/232 220/264/231
f 257/306/267 259/307/268 260/308/269 258/305/266
f 220/264/231 218/260/228 259/307/268 257/306/267
f 262/309/270 260/308/269 259/307/268 261/310/271
f 261/310/271 259/307/268 218/260/228 216/258/227
f 261/310/271 263/311/272 264/312/273 262/309/270
f 216/258/227 214/254/224 263/311/272 261/310/271
f 266/313/274 264/312/273 263/311/272 265/314/275
f 265/314/275 263/311/272 214/254/224 212/253/223
f 265/314/275 267/315/276 268/316/277 266/313/274
f 212/253/223 210/252/222 267/315/276 265/314/275
f 270/317/278 268/316/277 267/315/276 269/318/279
f 269/318/279 267/315/276 210/252/222 271/8/6
f 269/318/279 25/38/32 28/39/33 270/317/278
f 271/8/6 3/7/5 25/38/32 269/318/279
f 272/319/280 274/320/281 268/316/277 270/317/278
f 270/317/278 28/39/33 30/41/35 272/319/280
f 272/319/280 30/41/35 34/43/37 273/321/282
f 273/321/282 275/322/283 274/320/281 272/319/280
f 278/323/284 276/324/285 274/320/281 275/322/283
f 266/313/274 268/316/277 274/320/281 276/324/285
f 279/325/286 277/326/287 276/324/285 278/323/284
f 276/324/285 277/326/287 264/312/273 266/313/274
f 275/322/283 282/295/256 280/327/288 278/323/284
f 278/323/284 280/327/288 281/328/289 279/325/286
f 283/298/259 284/329/290 281/328/289 280/327/288
f 280/327/288 282/295/256 246/294/255 283/298/259
f 250/299/260 285/330/291 284/329/290 283/298/259
f 284/329/290 285/330/291 256/304/265 258/305/266
f 258/305/266 260/308/269 281/328/289 284/329/290
f 252/300/261 256/304/265 285/330/291 250/299/260
f 245/292/253 282/295/256 275/322/283 273/321/282
f 279/325/286 281/328/289 260/308/269 262/309/270
f 262/309/270 264/312/273 277/326/287 279/325/286
f 273/321/282 34/43/37 243/48/42 245/292/253
f 61/75/69 238/286/247 241/289/250 59/73/67
f 59/73/67 241/289/250 36/46/40 39/50/44
f 236/207/182 238/286/247 61/75/69 168/77/71
f 137/168/149 288/165/146 287/152/133 143/172/153
f 121/153/134 287/152/133 288/165/146 133/158/139
f 79/95/89 128/160/141 130/162/143 77/93/87
f 81/97/91 126/159/140 128/160/141 79/95/89
f 84/99/93 106/128/116 126/159/140 81/97/91
f 12/20/17 291/19/16 290/114/106 94/26/21
