# Blender 4.5.3 LTS
# www.blender.org
o Decal-Shoulder-Right-Trigger
v 44.317116 5.049501 51.002708
v 44.315197 7.551417 50.532604
v 41.833763 7.520954 50.337467
v 41.838985 5.017261 50.793953
v 39.371304 7.482132 49.885979
v 39.381271 4.981438 50.322308
v 44.319447 2.550218 51.405800
v 41.844227 2.517543 51.185371
v 39.390564 2.484141 50.694229
v 44.315586 3.802521 51.216644
v 41.839893 3.770182 51.001991
v 39.385498 3.735578 50.520859
v 44.314236 6.300863 50.773430
v 41.835442 6.269446 50.571762
v 39.376503 6.231751 50.109138
v 40.597225 7.510260 50.157055
v 40.604469 5.007853 50.605679
v 40.612003 2.508644 50.986870
v 40.605946 3.760598 50.808563
v 40.599617 6.259545 50.386959
v 43.069626 7.540823 50.458576
v 43.072361 5.038155 50.925282
v 43.075474 2.538692 51.324806
v 43.072887 3.791054 51.137680
v 43.070419 6.290058 50.697609
vn -0.0613 0.1836 0.9811
vn -0.0821 0.1819 0.9799
vn -0.0848 0.1721 0.9814
vn -0.0627 0.1736 0.9828
vn -0.1249 0.1779 0.9761
vn -0.1843 0.1725 0.9676
vn -0.1882 0.1628 0.9685
vn -0.1286 0.1681 0.9773
vn -0.0641 0.1581 0.9853
vn -0.0874 0.1567 0.9838
vn -0.0885 0.1466 0.9852
vn -0.0648 0.1481 0.9868
vn -0.1325 0.1528 0.9793
vn -0.1922 0.1475 0.9702
vn -0.1937 0.1376 0.9714
vn -0.1342 0.1429 0.9806
vn -0.0606 0.1881 0.9803
vn -0.0807 0.1865 0.9791
vn -0.1232 0.1826 0.9754
vn -0.1828 0.1768 0.9671
vn -0.2216 0.1692 0.9604
vn -0.2259 0.1597 0.9610
vn -0.2298 0.1444 0.9625
vn -0.2317 0.1343 0.9635
vn -0.2192 0.1733 0.9602
vt 0.584360 0.555780
vt 0.612350 0.555833
vt 0.612181 0.584392
vt 0.584202 0.584345
vt 0.640173 0.555899
vt 0.668150 0.555502
vt 0.667932 0.584020
vt 0.639976 0.584441
vt 0.584118 0.612748
vt 0.612083 0.612779
vt 0.612001 0.641202
vt 0.584030 0.641183
vt 0.639878 0.612808
vt 0.667837 0.612371
vt 0.667741 0.640755
vt 0.639783 0.641225
vt 0.584520 0.527182
vt 0.612520 0.527242
vt 0.640362 0.527312
vt 0.668353 0.526951
vt 0.696304 0.555144
vt 0.696080 0.583626
vt 0.695978 0.611951
vt 0.695906 0.640319
vt 0.696508 0.526621
s 1
f 13/1/1 25/2/2 22/3/3 1/4/4
f 14/5/5 20/6/6 17/7/7 4/8/8
f 10/9/9 24/10/10 23/11/11 7/12/12
f 11/13/13 19/14/14 18/15/15 8/16/16
f 1/4/4 22/3/3 24/10/10 10/9/9
f 4/8/8 17/7/7 19/14/14 11/13/13
f 2/17/17 21/18/18 25/2/2 13/1/1
f 3/19/19 16/20/20 20/6/6 14/5/5
f 20/6/6 15/21/21 6/22/22 17/7/7
f 19/14/14 12/23/23 9/24/24 18/15/15
f 17/7/7 6/22/22 12/23/23 19/14/14
f 16/20/20 5/25/25 15/21/21 20/6/6
f 14/5/5 4/8/8 22/3/3 25/2/2
f 11/13/13 8/16/16 23/11/11 24/10/10
f 4/8/8 11/13/13 24/10/10 22/3/3
f 3/19/19 14/5/5 25/2/2 21/18/18
