# Blender 4.5.12 LTS
# www.blender.org
o Decal-Joystick-Left-Ring
v -39.615864 -35.869448 29.816951
v -39.615864 -36.150974 29.769561
v -37.984409 -36.150982 29.607315
v -37.975161 -35.869459 29.653787
v -37.972097 -35.591381 29.669191
v -39.615864 -35.591389 29.832674
v -41.259631 -35.591381 29.669191
v -41.256566 -35.869459 29.653787
v -41.247319 -36.150982 29.607315
v -41.229249 -36.440858 29.516509
v -39.615864 -36.440856 29.676951
v -38.002474 -36.440861 29.516508
v -36.450485 -36.440844 29.047321
v -36.415051 -36.150975 29.132885
v -36.508118 -36.741741 28.908201
v -38.031848 -36.741743 29.368834
v -36.585338 -37.031694 28.721775
v -38.071200 -37.031703 29.170959
v -36.679724 -37.289345 28.493895
v -38.119310 -37.289348 28.929084
v -36.787449 -37.503257 28.233836
v -38.174216 -37.503268 28.653064
v -36.905250 -37.662700 27.949420
v -38.234266 -37.662691 28.351177
v -37.042528 -37.760374 27.617993
v -38.304230 -37.760371 27.999411
v -39.615864 -37.662697 28.488596
v -39.615864 -37.760355 28.129861
v -39.615864 -37.503256 28.796447
v -39.615864 -37.289349 29.077936
v -39.615864 -37.031691 29.324583
v -39.615864 -36.741719 29.526356
v -41.199876 -36.741736 29.368836
v -41.160533 -37.031697 29.170958
v -41.112418 -37.289350 28.929084
v -41.057508 -37.503268 28.653064
v -40.997458 -37.662691 28.351177
v -40.927493 -37.760371 27.999411
v -42.326474 -37.662699 27.949431
v -42.189196 -37.760372 27.617999
v -42.444282 -37.503257 28.233844
v -42.552007 -37.289347 28.493895
v -42.646387 -37.031685 28.721773
v -42.723611 -36.741730 28.908200
v -42.781239 -36.440840 29.047320
v -44.210416 -36.440845 28.281666
v -44.126767 -36.741722 28.156478
v -44.014676 -37.031696 27.988728
v -43.877671 -37.289338 27.783678
v -43.721309 -37.503240 27.549685
v -43.550305 -37.662691 27.293749
v -43.351059 -37.760371 26.995549
v -44.624418 -37.662681 26.413987
v -44.370755 -37.760358 26.160323
v -44.842088 -37.503239 26.631675
v -45.041136 -37.289342 26.830702
v -45.215546 -37.031681 27.005114
v -45.358220 -36.741722 27.147790
v -45.464710 -36.440854 27.254276
v -45.530199 -36.150981 27.319769
v -44.261863 -36.150969 28.358651
v -45.563706 -35.869449 27.353268
v -44.288177 -35.869452 28.398048
v -44.296922 -35.591389 28.411125
v -45.574825 -35.591385 27.364394
v -46.608485 -35.869440 26.077742
v -46.621555 -35.591369 26.086478
v -47.387101 -35.869441 24.624379
v -47.401625 -35.591389 24.630392
v -47.864220 -35.869436 23.046136
v -47.879642 -35.591374 23.049207
v -48.027388 -35.869436 21.405441
v -48.043110 -35.591366 21.405441
v -47.864220 -35.869429 19.764731
v -47.879646 -35.591374 19.761670
v -47.387101 -35.869430 18.186489
v -47.401625 -35.591377 18.180468
v -46.608485 -35.869448 16.733116
v -46.621555 -35.591366 16.724389
v -45.563710 -35.869441 15.457590
v -45.574825 -35.591362 15.446473
v -44.288177 -35.869437 14.412820
v -44.296918 -35.591370 14.399749
v -42.834822 -35.869441 13.634199
v -42.840833 -35.591373 13.619677
v -41.256566 -35.869443 13.157081
v -41.259631 -35.591366 13.141661
v -39.615868 -35.869444 12.993909
v -39.615868 -35.591370 12.978192
v -37.975165 -35.869447 13.157081
v -37.972097 -35.591366 13.141661
v -36.396913 -35.869445 13.634200
v -36.390894 -35.591373 13.619677
v -34.943543 -35.869437 14.412820
v -34.934810 -35.591370 14.399749
v -33.668022 -35.869441 15.457590
v -33.656899 -35.591362 15.446473
v -32.623246 -35.869448 16.733109
v -32.610173 -35.591366 16.724389
v -31.844630 -35.869438 18.186482
v -31.830106 -35.591381 18.180468
v -31.367506 -35.869443 19.764733
v -31.352086 -35.591366 19.761670
v -31.204346 -35.869452 21.405441
v -31.188616 -35.591369 21.405441
v -31.367506 -35.869444 23.046127
v -31.352086 -35.591377 23.049207
v -31.844630 -35.869445 24.624380
v -31.830106 -35.591389 24.630392
v -32.623247 -35.869464 26.077743
v -32.610173 -35.591385 26.086471
v -33.668022 -35.869464 27.353268
v -33.656899 -35.591389 27.364394
v -34.943542 -35.869455 28.398049
v -34.934810 -35.591389 28.411127
v -36.396909 -35.869452 29.176661
v -36.390894 -35.591389 29.191191
v -36.396909 -35.313313 29.176660
v -37.975161 -35.313323 29.653787
v -34.943542 -35.313314 28.398048
v -33.668022 -35.313317 27.353276
v -32.623247 -35.313306 26.077743
v -31.844630 -35.313305 24.624380
v -31.367506 -35.313307 23.046136
v -31.204336 -35.313306 21.405441
v -31.367506 -35.313295 19.764731
v -31.844630 -35.313290 18.186489
v -32.623246 -35.313291 16.733116
v -33.668022 -35.313294 15.457590
v -34.943543 -35.313303 14.412820
v -36.396913 -35.313286 13.634200
v -37.975165 -35.313292 13.157081
v -39.615868 -35.313287 12.993917
v -41.256566 -35.313292 13.157081
v -41.247318 -35.031771 13.203546
v -39.615868 -35.031769 13.041307
v -37.984410 -35.031771 13.203546
v -36.415053 -35.031769 13.677982
v -34.969864 -35.031781 14.452216
v -33.701527 -35.031789 15.491105
v -32.662642 -35.031782 16.759443
v -31.888414 -35.031783 18.204619
v -31.413975 -35.031773 19.773983
v -31.251728 -35.031773 21.405441
v -31.413972 -35.031793 23.036885
v -31.888414 -35.031791 24.606249
v -32.662642 -35.031782 26.051425
v -33.701528 -35.031789 27.319760
v -34.969864 -35.031790 28.358651
v -36.415052 -35.031795 29.132885
v -37.984409 -35.031793 29.607316
v -39.615864 -35.313310 29.816950
v -39.615864 -35.031792 29.769561
v -41.256566 -35.313322 29.653787
v -41.247318 -35.031774 29.607320
v -42.834822 -35.313313 29.176660
v -42.816671 -35.031796 29.132885
v -44.288177 -35.313310 28.398048
v -44.261864 -35.031786 28.358651
v -45.563706 -35.313313 27.353276
v -45.530199 -35.031781 27.319769
v -46.608485 -35.313310 26.077751
v -46.569085 -35.031782 26.051424
v -47.387101 -35.313309 24.624379
v -47.343310 -35.031776 24.606249
v -47.864219 -35.313306 23.046127
v -47.817753 -35.031785 23.036885
v -48.027387 -35.313307 21.405441
v -47.979993 -35.031773 21.405434
v -47.864220 -35.313299 19.764741
v -47.817754 -35.031775 19.773984
v -47.387101 -35.313294 18.186489
v -47.343312 -35.031781 18.204620
v -46.608485 -35.313291 16.733116
v -46.569086 -35.031778 16.759443
v -45.563710 -35.313294 15.457590
v -45.530204 -35.031770 15.491106
v -44.288177 -35.313302 14.412819
v -44.261864 -35.031778 14.452217
v -42.834822 -35.313302 13.634200
v -42.816671 -35.031769 13.677982
v -42.781238 -34.741893 13.763546
v -41.229253 -34.741895 13.294366
v -44.210416 -34.741895 14.529203
v -45.464714 -34.741897 15.556591
v -46.492088 -34.741895 16.810884
v -47.257749 -34.741893 18.240065
v -47.726940 -34.741898 19.792044
v -47.887391 -34.741899 21.405434
v -47.726939 -34.741896 23.018823
v -47.257756 -34.741907 24.570803
v -46.492092 -34.741906 25.999993
v -45.464710 -34.741908 27.254284
v -44.210416 -34.741914 28.281673
v -42.781238 -34.741916 29.047321
v -41.229249 -34.741914 29.516502
v -39.615864 -34.741910 29.676959
v -38.002474 -34.741915 29.516509
v -36.450485 -34.741915 29.047320
v -35.021304 -34.741925 28.281673
v -33.767014 -34.741917 27.254283
v -32.739633 -34.741914 25.999992
v -31.973970 -34.741907 24.570803
v -31.504788 -34.741912 23.018823
v -31.344337 -34.741895 21.405441
v -31.504788 -34.741896 19.792044
v -31.973974 -34.741907 18.240064
v -32.739632 -34.741910 16.810882
v -33.767013 -34.741901 15.556591
v -35.021308 -34.741895 14.529202
v -36.450486 -34.741893 13.763546
v -38.002474 -34.741891 13.294366
v -39.615868 -34.741899 13.133909
v -41.199876 -34.441018 13.442034
v -39.615868 -34.441021 13.284504
v -38.031848 -34.441018 13.442034
v -36.508117 -34.441028 13.902676
v -35.104957 -34.441014 14.654390
v -33.873496 -34.441021 15.663070
v -32.864820 -34.441033 16.894537
v -32.113101 -34.441036 18.297691
v -31.652464 -34.441026 19.821419
v -31.494930 -34.441021 21.405441
v -31.652464 -34.441041 22.989455
v -32.113101 -34.441040 24.513177
v -32.864822 -34.441033 25.916337
v -33.873498 -34.441029 27.147796
v -35.104957 -34.441036 28.156476
v -36.508117 -34.441055 28.908200
v -38.031848 -34.441038 29.368834
v -39.615864 -34.441029 29.526355
v -41.199876 -34.441037 29.368836
v -42.723611 -34.441044 28.908200
v -44.126767 -34.441029 28.156476
v -45.358220 -34.441028 27.147798
v -46.366904 -34.441033 25.916331
v -47.118617 -34.441025 24.513179
v -47.579266 -34.441037 22.989455
v -47.736796 -34.441021 21.405434
v -47.579266 -34.441026 19.821419
v -47.118617 -34.441013 18.297691
v -46.366904 -34.441017 16.894537
v -45.358220 -34.441013 15.663070
v -44.126767 -34.441014 14.654391
v -42.723611 -34.441028 13.902676
v -42.646386 -34.151068 14.089104
v -41.160532 -34.151067 13.639910
v -44.014674 -34.151065 14.822136
v -45.215540 -34.151071 15.805756
v -46.199154 -34.151066 17.006615
v -46.932199 -34.151073 18.374909
v -47.381389 -34.151058 19.860767
v -47.535017 -34.151060 21.405441
v -47.381389 -34.151058 22.950099
v -46.932199 -34.151066 24.435958
v -46.199154 -34.151066 25.804246
v -45.215546 -34.151092 27.005122
v -44.014676 -34.151078 27.988735
v -42.646387 -34.151077 28.721773
v -41.160533 -34.151069 29.170958
v -39.615864 -34.151069 29.324586
v -38.071200 -34.151063 29.170956
v -38.119310 -33.893422 28.929084
v -39.615864 -33.893421 29.077934
v -41.112418 -33.893420 28.929082
v -42.552007 -33.893419 28.493893
v -43.877671 -33.893416 27.783680
v -45.041136 -33.893416 26.830709
v -45.994114 -33.893409 25.667239
v -46.704316 -33.893413 24.341573
v -47.139516 -33.893395 22.901988
v -47.288360 -33.893421 21.405441
v -47.139518 -33.893397 19.908887
v -46.704317 -33.893407 18.469294
v -45.994106 -33.893397 17.143621
v -45.041135 -33.893410 15.980158
v -43.877673 -33.893397 15.027183
v -42.552005 -33.893409 14.316967
v -41.112418 -33.893398 13.881775
v -39.615868 -34.151052 13.486294
v -39.615868 -33.893413 13.732938
v -38.071200 -34.151067 13.639910
v -38.119310 -33.893402 13.881775
v -36.585338 -34.151071 14.089102
v -36.679725 -33.893411 14.316966
v -35.217048 -34.151068 14.822134
v -35.354054 -33.893403 15.027182
v -34.016184 -34.151075 15.805756
v -34.190585 -33.893410 15.980159
v -33.032566 -34.151066 17.006615
v -33.237613 -33.893409 17.143621
v -32.299521 -34.151077 18.374909
v -32.527404 -33.893409 18.469294
v -31.850333 -34.151073 19.860774
v -32.092202 -33.893403 19.908887
v -31.696713 -34.151060 21.405441
v -31.943365 -33.893417 21.405441
v -31.850333 -34.151069 22.950101
v -32.092204 -33.893411 22.901988
v -32.299525 -34.151073 24.435958
v -32.527408 -33.893413 24.341571
v -33.032568 -34.151068 25.804251
v -33.237615 -33.893414 25.667245
v -34.016185 -34.151088 27.005111
v -34.190587 -33.893412 26.830706
v -35.217045 -34.151076 27.988726
v -35.354054 -33.893414 27.783678
v -36.585337 -34.151081 28.721775
v -36.679724 -33.893421 28.493895
v -36.787472 -33.679494 28.233794
v -38.174228 -33.679472 28.653013
v -35.510441 -33.679480 27.549639
v -34.389666 -33.679489 26.631635
v -33.471671 -33.679481 25.510862
v -32.787515 -33.679480 24.233836
v -32.368292 -33.679487 22.847073
v -32.224905 -33.679487 21.405441
v -32.368292 -33.679476 19.963804
v -32.787515 -33.679465 18.577031
v -33.471671 -33.679477 17.300013
v -34.389666 -33.679477 16.179242
v -35.510441 -33.679468 15.261244
v -36.787464 -33.679479 14.577074
v -38.174228 -33.679468 14.157857
v -39.615868 -33.679460 14.014475
v -41.057496 -33.679461 14.157857
v -42.444259 -33.679475 14.577073
v -43.721279 -33.679457 15.261242
v -44.842050 -33.679466 16.179240
v -45.760053 -33.679458 17.300013
v -46.444213 -33.679463 18.577030
v -46.863440 -33.679459 19.963801
v -47.006826 -33.679479 21.405441
v -46.863443 -33.679472 22.847073
v -46.444216 -33.679469 24.233836
v -45.760057 -33.679481 25.510864
v -44.842050 -33.679489 26.631635
v -43.721279 -33.679480 27.549639
v -42.444252 -33.679485 28.233791
v -41.057497 -33.679470 28.653010
v -39.615864 -33.679479 28.796393
v -38.234106 -33.520416 28.351987
v -39.615864 -33.520410 28.489418
v -40.997622 -33.520416 28.351987
v -42.326782 -33.520414 27.950194
v -43.550763 -33.520420 27.294440
v -44.624999 -33.520424 26.414577
v -45.504862 -33.520409 25.340346
v -46.160617 -33.520417 24.116365
v -46.562413 -33.520401 22.787188
v -46.699853 -33.520402 21.405441
v -46.562409 -33.520390 20.023679
v -46.160609 -33.520406 18.694510
v -45.504862 -33.520402 17.470534
v -44.624988 -33.520405 16.396302
v -43.550759 -33.520390 15.516421
v -42.326782 -33.520399 14.860671
v -40.997622 -33.520405 14.458880
v -39.615868 -33.520399 14.321450
v -38.234106 -33.520405 14.458880
v -36.904938 -33.520406 14.860672
v -35.680961 -33.520409 15.516429
v -34.606728 -33.520413 16.396302
v -33.726861 -33.520410 17.470534
v -33.071111 -33.520421 18.694510
v -32.669315 -33.520401 20.023687
v -32.531874 -33.520414 21.405441
v -32.669315 -33.520405 22.787188
v -33.071114 -33.520428 24.116358
v -33.726862 -33.520416 25.340351
v -34.606725 -33.520424 26.414577
v -35.680961 -33.520420 27.294438
v -36.904938 -33.520414 27.950194
v -37.026463 -33.423027 27.656812
v -38.296039 -33.423036 28.040621
v -35.857327 -33.423036 27.030474
v -34.831263 -33.423026 26.190044
v -33.990824 -33.423030 25.163969
v -33.364490 -33.423029 23.994840
v -32.980682 -33.423036 22.725258
v -32.849422 -33.423032 21.405441
v -32.980682 -33.423028 20.085617
v -33.364479 -33.423023 18.816035
v -33.990824 -33.423036 17.646910
v -34.831267 -33.423030 16.620844
v -35.857327 -33.423017 15.780394
v -37.026463 -33.423023 15.154054
v -38.296039 -33.423017 14.770244
v -39.615868 -33.423013 14.638987
v -40.935681 -33.423017 14.770243
v -42.205264 -33.423012 15.154045
v -43.374393 -33.423009 15.780395
v -44.400453 -33.423011 16.620844
v -45.240900 -33.423028 17.646910
v -45.867252 -33.423012 18.816037
v -46.251042 -33.423028 20.085618
v -46.382298 -33.423028 21.405441
v -46.251046 -33.423032 22.725256
v -45.867245 -33.423021 23.994840
v -45.240904 -33.423018 25.163971
v -44.400461 -33.423026 26.190044
v -43.374393 -33.423032 27.030476
v -42.205264 -33.423027 27.656812
v -40.935681 -33.423036 28.040621
v -39.615864 -33.423028 28.171877
v -42.840833 -35.591389 29.191184
v -42.834822 -35.869460 29.176660
v -42.816673 -36.150979 29.132884
v -34.969864 -36.150962 28.358652
v -33.701528 -36.150980 27.319762
v -33.767013 -36.440861 27.254276
v -35.021304 -36.440845 28.281666
v -33.873498 -36.741725 27.147788
v -35.104958 -36.741729 28.156468
v -34.016181 -37.031693 27.005103
v -35.217045 -37.031706 27.988726
v -34.190587 -37.289355 26.830701
v -35.354055 -37.289353 27.783678
v -34.389631 -37.503257 26.631670
v -35.510414 -37.503262 27.549682
v -34.607309 -37.662683 26.413984
v -35.681421 -37.662693 27.293741
v -34.860968 -37.760376 26.160314
v -35.880665 -37.760378 26.995538
v -34.025742 -37.760376 25.140628
v -33.727545 -37.662692 25.339878
v -33.471621 -37.503260 25.510882
v -33.237613 -37.289357 25.667237
v -33.032570 -37.031689 25.804242
v -32.864820 -36.741741 25.916331
v -32.739632 -36.440864 25.999976
v -32.662642 -36.150984 26.051425
v -31.888414 -36.150975 24.606241
v -31.973970 -36.440855 24.570795
v -32.113101 -36.741726 24.513177
v -32.299536 -37.031694 24.435957
v -32.527408 -37.289353 24.341571
v -32.787461 -37.503242 24.233846
v -33.071870 -37.662696 24.116040
v -33.403299 -37.760360 23.978764
v -33.021880 -37.760375 22.717061
v -32.670122 -37.662705 22.787035
v -32.368239 -37.503268 22.847076
v -32.092204 -37.289362 22.901987
v -31.850341 -37.031694 22.950098
v -31.652464 -36.741740 22.989455
v -31.504788 -36.440847 23.018823
v -31.413976 -36.150962 23.036885
v -31.251733 -36.150966 21.405441
v -31.344335 -36.440833 21.405441
v -31.494930 -36.741715 21.405441
v -31.696717 -37.031681 21.405434
v -31.943362 -37.289340 21.405434
v -32.224849 -37.503256 21.405434
v -32.532692 -37.662693 21.405434
v -32.891440 -37.760374 21.405434
v -33.021880 -37.760356 20.093796
v -32.670119 -37.662703 20.023832
v -32.368235 -37.503257 19.963782
v -32.092207 -37.289350 19.908885
v -31.850339 -37.031682 19.860767
v -31.652464 -36.741729 19.821419
v -31.504788 -36.440843 19.792044
v -31.413977 -36.150970 19.773983
v -31.888414 -36.150971 18.204620
v -31.973974 -36.440840 18.240057
v -32.113101 -36.741715 18.297683
v -32.299532 -37.031673 18.374901
v -32.527406 -37.289328 18.469287
v -32.787461 -37.503242 18.577011
v -33.071870 -37.662681 18.694812
v -33.403298 -37.760378 18.832094
v -34.025742 -37.760357 17.670231
v -33.727545 -37.662689 17.470982
v -33.471624 -37.503250 17.299986
v -33.237612 -37.289337 17.143613
v -33.032566 -37.031669 17.006615
v -32.864820 -36.741726 16.894529
v -32.739632 -36.440837 16.810874
v -32.662638 -36.150965 16.759435
v -33.701527 -36.150961 15.491105
v -33.767013 -36.440831 15.556582
v -33.873496 -36.741703 15.663062
v -34.016184 -37.031672 15.805755
v -34.190586 -37.289326 15.980157
v -34.389631 -37.503243 16.179195
v -34.607306 -37.662685 16.396872
v -34.860965 -37.760358 16.650544
v -35.880665 -37.760367 15.815311
v -35.681422 -37.662691 15.517110
v -35.510414 -37.503245 15.261188
v -35.354053 -37.289341 15.027180
v -35.217048 -37.031667 14.822133
v -35.104957 -36.741710 14.654383
v -35.021308 -36.440849 14.529203
v -34.969864 -36.150958 14.452216
v -36.415047 -36.150963 13.677983
v -36.450485 -36.440840 13.763539
v -36.508117 -36.741722 13.902676
v -36.585333 -37.031673 14.089094
v -36.679724 -37.289336 14.316965
v -36.787441 -37.503238 14.577024
v -36.905246 -37.662680 14.861427
v -37.042532 -37.760357 15.192871
v -38.304230 -37.760360 14.811440
v -38.234266 -37.662691 14.459686
v -38.174216 -37.503241 14.157801
v -38.119310 -37.289335 13.881776
v -38.071199 -37.031678 13.639901
v -38.031848 -36.741725 13.442026
v -38.002474 -36.440851 13.294358
v -37.984409 -36.150962 13.203546
v -39.615868 -36.150963 13.041299
v -39.615868 -36.440840 13.133909
v -39.615868 -36.741722 13.284505
v -39.615868 -37.031675 13.486286
v -39.615868 -37.289330 13.732931
v -39.615868 -37.503233 14.014409
v -39.615868 -37.662682 14.322256
v -39.615868 -37.760370 14.680994
v -40.927493 -37.760360 14.811439
v -40.997458 -37.662691 14.459686
v -41.057508 -37.503241 14.157801
v -41.112418 -37.289333 13.881774
v -41.160532 -37.031676 13.639900
v -41.199876 -36.741728 13.442027
v -41.229253 -36.440846 13.294359
v -41.247319 -36.150954 13.203545
v -42.816673 -36.150959 13.677982
v -42.781239 -36.440840 13.763539
v -44.210416 -36.440841 14.529203
v -44.261864 -36.150962 14.452216
v -45.530205 -36.150950 15.491105
v -45.464714 -36.440823 15.556591
v -45.358220 -36.741703 15.663061
v -44.126767 -36.741703 14.654383
v -45.215540 -37.031672 15.805756
v -44.014680 -37.031665 14.822132
v -45.041132 -37.289319 15.980148
v -43.877672 -37.289335 15.027179
v -44.842088 -37.503233 16.179192
v -43.721306 -37.503241 15.261188
v -44.624418 -37.662677 16.396863
v -43.550298 -37.662689 15.517114
v -44.370747 -37.760358 16.650544
v -43.351055 -37.760357 15.815319
v -42.189196 -37.760355 15.192868
v -42.326474 -37.662673 14.861431
v -42.444282 -37.503238 14.577024
v -42.552007 -37.289319 14.316964
v -42.646386 -37.031675 14.089093
v -42.723611 -36.741719 13.902675
v -45.205978 -37.760353 17.670233
v -45.504179 -37.662681 17.470982
v -45.760103 -37.503244 17.299985
v -45.994112 -37.289333 17.143614
v -46.199152 -37.031667 17.006616
v -46.366904 -36.741718 16.894529
v -46.492088 -36.440837 16.810874
v -46.569086 -36.150962 16.759443
v -47.343311 -36.150963 18.204619
v -47.257748 -36.440836 18.240057
v -47.118621 -36.741711 18.297683
v -46.932199 -37.031673 18.374901
v -46.704319 -37.289319 18.469287
v -46.444266 -37.503223 18.577013
v -46.159854 -37.662666 18.694814
v -45.828418 -37.760359 18.832096
v -46.209847 -37.760340 20.093798
v -46.561602 -37.662693 20.023832
v -46.863496 -37.503238 19.963782
v -47.139520 -37.289336 19.908879
v -47.381385 -37.031678 19.860769
v -47.579258 -36.741721 19.821419
v -47.726931 -36.440839 19.792044
v -47.817747 -36.150966 19.773983
v -47.979990 -36.150955 21.405441
v -47.887391 -36.440825 21.405441
v -47.736796 -36.741715 21.405441
v -47.535017 -37.031664 21.405434
v -47.288364 -37.289330 21.405434
v -47.006883 -37.503233 21.405434
v -46.699028 -37.662674 21.405434
v -46.340284 -37.760359 21.405434
v -46.209847 -37.760356 22.717061
v -46.561602 -37.662690 22.787026
v -46.863492 -37.503249 22.847076
v -47.139516 -37.289340 22.901988
v -47.381381 -37.031685 22.950091
v -47.579266 -36.741721 22.989455
v -47.726939 -36.440843 23.018823
v -47.817755 -36.150959 23.036885
v -47.343311 -36.150971 24.606241
v -47.257745 -36.440855 24.570803
v -47.118617 -36.741715 24.513177
v -46.932199 -37.031681 24.435958
v -46.704316 -37.289342 24.341571
v -46.444266 -37.503234 24.233846
v -46.159858 -37.662685 24.116038
v -45.828421 -37.760353 23.978756
v -45.205981 -37.760360 25.140619
v -45.504183 -37.662680 25.339877
v -45.760103 -37.503252 25.510882
v -45.994106 -37.289350 25.667239
v -46.199154 -37.031684 25.804246
v -46.366904 -36.741722 25.916331
v -46.492092 -36.440860 25.999984
v -46.569085 -36.150980 26.051424
vn 0.0976 -0.1658 0.9813
vn 0.0988 -0.0561 0.9935
vn -0.0988 -0.0561 0.9935
vn -0.0976 -0.1658 0.9813
vn -0.0943 -0.3032 0.9483
vn 0.0943 -0.3032 0.9483
vn 0.2758 -0.3032 0.9122
vn 0.2591 -0.4456 0.8569
vn 0.2379 -0.5695 0.7868
vn 0.2095 -0.6898 0.6930
vn 0.1756 -0.7949 0.5808
vn 0.1334 -0.8874 0.4412
vn 0.0770 -0.9639 0.2548
vn 0.0263 -0.9639 0.2649
vn 0.0456 -0.8874 0.4587
vn 0.0600 -0.7949 0.6037
vn 0.0716 -0.6898 0.7205
vn 0.0813 -0.5695 0.8180
vn 0.0886 -0.4457 0.8908
vn -0.0886 -0.4457 0.8908
vn -0.0813 -0.5695 0.8180
vn -0.0716 -0.6898 0.7205
vn -0.0600 -0.7949 0.6037
vn -0.0456 -0.8874 0.4587
vn -0.0263 -0.9639 0.2649
vn -0.0770 -0.9639 0.2548
vn -0.1334 -0.8874 0.4412
vn -0.1756 -0.7949 0.5808
vn -0.2095 -0.6898 0.6931
vn -0.2379 -0.5695 0.7868
vn -0.2591 -0.4457 0.8569
vn -0.4227 -0.4457 0.7891
vn -0.3882 -0.5695 0.7246
vn -0.3419 -0.6898 0.6382
vn -0.2865 -0.7949 0.5348
vn -0.2177 -0.8874 0.4063
vn -0.1257 -0.9639 0.2346
vn -0.1687 -0.9639 0.2059
vn -0.2921 -0.8874 0.3566
vn -0.3844 -0.7949 0.4693
vn -0.4588 -0.6898 0.5601
vn -0.5209 -0.5695 0.6359
vn -0.5673 -0.4457 0.6925
vn -0.6038 -0.3032 0.7372
vn -0.6249 -0.1657 0.7629
vn -0.6327 -0.0562 0.7724
vn -0.7724 -0.0562 0.6327
vn -0.8801 -0.0561 0.4715
vn -0.9557 -0.0561 0.2889
vn -0.9935 -0.0562 0.0988
vn -0.9935 -0.0562 -0.0988
vn -0.9557 -0.0561 -0.2889
vn -0.8801 -0.0561 -0.4715
vn -0.7724 -0.0561 -0.6327
vn -0.6327 -0.0561 -0.7724
vn -0.4715 -0.0561 -0.8801
vn -0.2889 -0.0561 -0.9557
vn -0.0988 -0.0561 -0.9935
vn 0.0988 -0.0561 -0.9935
vn 0.2889 -0.0561 -0.9557
vn 0.4715 -0.0561 -0.8801
vn 0.6327 -0.0561 -0.7724
vn 0.7724 -0.0561 -0.6327
vn 0.8801 -0.0561 -0.4715
vn 0.9557 -0.0561 -0.2889
vn 0.9935 -0.0562 -0.0988
vn 0.9935 -0.0562 0.0988
vn 0.9557 -0.0561 0.2889
vn 0.8801 -0.0561 0.4715
vn 0.7724 -0.0561 0.6327
vn 0.6327 -0.0562 0.7724
vn 0.4715 -0.0562 0.8801
vn 0.2889 -0.0561 0.9557
vn 0.2889 0.0561 0.9557
vn 0.4715 0.0562 0.8801
vn 0.6327 0.0562 0.7724
vn 0.7724 0.0561 0.6327
vn 0.8801 0.0561 0.4715
vn 0.9557 0.0561 0.2889
vn 0.9935 0.0561 0.0988
vn 0.9935 0.0561 -0.0988
vn 0.9557 0.0561 -0.2889
vn 0.8801 0.0561 -0.4715
vn 0.7724 0.0561 -0.6327
vn 0.6327 0.0561 -0.7724
vn 0.4715 0.0561 -0.8801
vn 0.2889 0.0561 -0.9557
vn 0.0988 0.0561 -0.9935
vn -0.0988 0.0561 -0.9935
vn -0.0976 0.1657 -0.9813
vn 0.0976 0.1657 -0.9813
vn 0.2854 0.1657 -0.9440
vn 0.4657 0.1658 -0.8693
vn 0.6249 0.1658 -0.7629
vn 0.7629 0.1658 -0.6249
vn 0.8693 0.1657 -0.4657
vn 0.9440 0.1658 -0.2854
vn 0.9813 0.1658 -0.0976
vn 0.9813 0.1657 0.0976
vn 0.9440 0.1658 0.2854
vn 0.8693 0.1657 0.4657
vn 0.7629 0.1657 0.6249
vn 0.6249 0.1658 0.7629
vn 0.4657 0.1657 0.8693
vn 0.2854 0.1657 0.9440
vn 0.0976 0.1658 0.9813
vn -0.0976 0.1657 0.9813
vn -0.2854 0.1657 0.9440
vn -0.4657 0.1658 0.8693
vn -0.6249 0.1657 0.7629
vn -0.7629 0.1657 0.6249
vn -0.8693 0.1658 0.4657
vn -0.9440 0.1657 0.2854
vn -0.9813 0.1657 0.0976
vn -0.9813 0.1657 -0.0976
vn -0.9440 0.1658 -0.2854
vn -0.8693 0.1658 -0.4657
vn -0.7629 0.1658 -0.6249
vn -0.6249 0.1657 -0.7629
vn -0.4657 0.1658 -0.8693
vn -0.2854 0.1657 -0.9440
vn -0.2758 0.3032 -0.9121
vn -0.4500 0.3032 -0.8400
vn -0.6038 0.3032 -0.7372
vn -0.7372 0.3032 -0.6038
vn -0.8400 0.3032 -0.4500
vn -0.9121 0.3032 -0.2758
vn -0.9483 0.3032 -0.0943
vn -0.9483 0.3032 0.0943
vn -0.9122 0.3032 0.2758
vn -0.8400 0.3032 0.4500
vn -0.7372 0.3032 0.6038
vn -0.6038 0.3032 0.7372
vn -0.4500 0.3032 0.8400
vn -0.2758 0.3032 0.9121
vn -0.0943 0.3032 0.9483
vn 0.0943 0.3032 0.9483
vn 0.2758 0.3032 0.9122
vn 0.4500 0.3032 0.8400
vn 0.6038 0.3032 0.7372
vn 0.7372 0.3032 0.6038
vn 0.8400 0.3032 0.4500
vn 0.9122 0.3032 0.2758
vn 0.9483 0.3032 0.0943
vn 0.9483 0.3032 -0.0943
vn 0.9122 0.3032 -0.2758
vn 0.8400 0.3032 -0.4500
vn 0.7372 0.3032 -0.6038
vn 0.6038 0.3032 -0.7372
vn 0.4500 0.3032 -0.8400
vn 0.2758 0.3032 -0.9121
vn 0.0943 0.3032 -0.9483
vn -0.0943 0.3032 -0.9483
vn -0.0886 0.4457 -0.8908
vn 0.0886 0.4457 -0.8908
vn 0.2591 0.4457 -0.8569
vn 0.4227 0.4457 -0.7891
vn 0.5673 0.4457 -0.6925
vn 0.6925 0.4457 -0.5673
vn 0.7891 0.4457 -0.4227
vn 0.8569 0.4457 -0.2591
vn 0.8908 0.4457 -0.0886
vn 0.8908 0.4457 0.0886
vn 0.8569 0.4457 0.2591
vn 0.7891 0.4457 0.4227
vn 0.6925 0.4456 0.5673
vn 0.5673 0.4457 0.6925
vn 0.4227 0.4457 0.7891
vn 0.2591 0.4457 0.8569
vn 0.0886 0.4457 0.8908
vn -0.0886 0.4457 0.8908
vn -0.2591 0.4457 0.8569
vn -0.4227 0.4457 0.7891
vn -0.5673 0.4457 0.6925
vn -0.6925 0.4457 0.5673
vn -0.7891 0.4457 0.4227
vn -0.8569 0.4457 0.2591
vn -0.8908 0.4457 0.0886
vn -0.8908 0.4457 -0.0886
vn -0.8569 0.4457 -0.2591
vn -0.7891 0.4457 -0.4227
vn -0.6925 0.4457 -0.5673
vn -0.5673 0.4457 -0.6925
vn -0.4227 0.4457 -0.7891
vn -0.2591 0.4457 -0.8569
vn -0.2379 0.5695 -0.7868
vn -0.3882 0.5695 -0.7246
vn -0.5209 0.5695 -0.6359
vn -0.6359 0.5695 -0.5209
vn -0.7246 0.5695 -0.3882
vn -0.7868 0.5695 -0.2379
vn -0.8180 0.5695 -0.0813
vn -0.8180 0.5695 0.0813
vn -0.7868 0.5695 0.2379
vn -0.7246 0.5695 0.3882
vn -0.6359 0.5695 0.5209
vn -0.5209 0.5695 0.6359
vn -0.3882 0.5695 0.7246
vn -0.2379 0.5695 0.7868
vn -0.0813 0.5695 0.8180
vn 0.0813 0.5694 0.8180
vn 0.0716 0.6898 0.7205
vn -0.0716 0.6898 0.7205
vn -0.2095 0.6898 0.6931
vn -0.3419 0.6898 0.6382
vn -0.4588 0.6898 0.5601
vn -0.5601 0.6898 0.4588
vn -0.6382 0.6898 0.3419
vn -0.6931 0.6898 0.2095
vn -0.7205 0.6898 0.0716
vn -0.7205 0.6898 -0.0716
vn -0.6931 0.6898 -0.2095
vn -0.6382 0.6898 -0.3419
vn -0.5601 0.6898 -0.4588
vn -0.4588 0.6897 -0.5601
vn -0.3419 0.6897 -0.6382
vn -0.2095 0.6897 -0.6931
vn -0.0716 0.6898 -0.7205
vn 0.0716 0.6898 -0.7205
vn 0.2095 0.6897 -0.6931
vn 0.3419 0.6898 -0.6382
vn 0.4588 0.6897 -0.5601
vn 0.5601 0.6898 -0.4588
vn 0.6382 0.6898 -0.3419
vn 0.6931 0.6898 -0.2095
vn 0.7205 0.6898 -0.0716
vn 0.7205 0.6898 0.0716
vn 0.6931 0.6898 0.2095
vn 0.6382 0.6898 0.3419
vn 0.5601 0.6897 0.4588
vn 0.4588 0.6897 0.5601
vn 0.3419 0.6898 0.6382
vn 0.2095 0.6898 0.6931
vn 0.1756 0.7949 0.5807
vn 0.2865 0.7949 0.5348
vn 0.3844 0.7949 0.4693
vn 0.4693 0.7949 0.3844
vn 0.5348 0.7949 0.2865
vn 0.5807 0.7949 0.1756
vn 0.6037 0.7949 0.0600
vn 0.6037 0.7949 -0.0600
vn 0.5807 0.7949 -0.1756
vn 0.5348 0.7949 -0.2865
vn 0.4693 0.7949 -0.3844
vn 0.3844 0.7949 -0.4693
vn 0.2865 0.7949 -0.5348
vn 0.1756 0.7949 -0.5807
vn 0.0600 0.7949 -0.6037
vn -0.0600 0.7949 -0.6037
vn -0.1756 0.7949 -0.5807
vn -0.2865 0.7949 -0.5348
vn -0.3844 0.7949 -0.4693
vn -0.4693 0.7949 -0.3844
vn -0.5348 0.7949 -0.2865
vn -0.5808 0.7949 -0.1756
vn -0.6037 0.7949 -0.0600
vn -0.6037 0.7949 0.0600
vn -0.5807 0.7949 0.1756
vn -0.5348 0.7949 0.2865
vn -0.4693 0.7949 0.3844
vn -0.3844 0.7949 0.4693
vn -0.2865 0.7949 0.5348
vn -0.1756 0.7949 0.5808
vn -0.0600 0.7949 0.6037
vn 0.0600 0.7949 0.6037
vn 0.0457 0.8870 0.4595
vn -0.0457 0.8870 0.4595
vn -0.1336 0.8870 0.4420
vn -0.2181 0.8870 0.4070
vn -0.2926 0.8870 0.3572
vn -0.3572 0.8870 0.2926
vn -0.4070 0.8870 0.2180
vn -0.4420 0.8870 0.1336
vn -0.4595 0.8870 0.0457
vn -0.4595 0.8870 -0.0457
vn -0.4420 0.8870 -0.1336
vn -0.4070 0.8870 -0.2180
vn -0.3572 0.8870 -0.2926
vn -0.2926 0.8870 -0.3572
vn -0.2181 0.8870 -0.4070
vn -0.1336 0.8870 -0.4420
vn -0.0457 0.8870 -0.4595
vn 0.0457 0.8870 -0.4595
vn 0.1336 0.8870 -0.4420
vn 0.2181 0.8870 -0.4070
vn 0.2926 0.8870 -0.3572
vn 0.3572 0.8870 -0.2926
vn 0.4070 0.8870 -0.2180
vn 0.4420 0.8870 -0.1336
vn 0.4595 0.8870 -0.0457
vn 0.4595 0.8870 0.0457
vn 0.4420 0.8870 0.1336
vn 0.4070 0.8870 0.2180
vn 0.3572 0.8870 0.2926
vn 0.2926 0.8870 0.3572
vn 0.2181 0.8870 0.4070
vn 0.1336 0.8870 0.4420
vn 0.0858 0.9551 0.2837
vn 0.1400 0.9551 0.2612
vn 0.1878 0.9551 0.2293
vn 0.2293 0.9551 0.1878
vn 0.2613 0.9551 0.1400
vn 0.2837 0.9551 0.0858
vn 0.2949 0.9551 0.0293
vn 0.2949 0.9551 -0.0293
vn 0.2837 0.9551 -0.0858
vn 0.2612 0.9551 -0.1400
vn 0.2293 0.9551 -0.1878
vn 0.1878 0.9551 -0.2293
vn 0.1400 0.9551 -0.2612
vn 0.0858 0.9551 -0.2837
vn 0.0293 0.9551 -0.2949
vn -0.0293 0.9551 -0.2949
vn -0.0858 0.9551 -0.2837
vn -0.1400 0.9551 -0.2612
vn -0.1878 0.9551 -0.2293
vn -0.2293 0.9551 -0.1878
vn -0.2612 0.9551 -0.1400
vn -0.2837 0.9551 -0.0858
vn -0.2949 0.9551 -0.0293
vn -0.2949 0.9551 0.0293
vn -0.2837 0.9551 0.0858
vn -0.2613 0.9551 0.1400
vn -0.2293 0.9551 0.1878
vn -0.1878 0.9551 0.2293
vn -0.1400 0.9551 0.2612
vn -0.0858 0.9551 0.2837
vn -0.0293 0.9551 0.2949
vn 0.0293 0.9551 0.2949
vn 0.2379 0.5695 0.7868
vn 0.3882 0.5695 0.7246
vn 0.5209 0.5695 0.6359
vn 0.6359 0.5695 0.5209
vn 0.7246 0.5695 0.3882
vn 0.7868 0.5695 0.2379
vn 0.8180 0.5695 0.0813
vn 0.8180 0.5695 -0.0813
vn 0.7868 0.5695 -0.2379
vn 0.7246 0.5695 -0.3882
vn 0.6359 0.5695 -0.5209
vn 0.5209 0.5695 -0.6359
vn 0.3882 0.5695 -0.7246
vn 0.2379 0.5695 -0.7868
vn 0.0813 0.5695 -0.8180
vn -0.0813 0.5695 -0.8180
vn -0.2889 0.0561 -0.9557
vn -0.4715 0.0561 -0.8801
vn -0.6327 0.0561 -0.7724
vn -0.7724 0.0561 -0.6327
vn -0.8801 0.0561 -0.4715
vn -0.9557 0.0562 -0.2889
vn -0.9935 0.0562 -0.0988
vn -0.9935 0.0562 0.0988
vn -0.9557 0.0562 0.2889
vn -0.8801 0.0561 0.4715
vn -0.7724 0.0561 0.6327
vn -0.6327 0.0562 0.7724
vn -0.4715 0.0561 0.8801
vn -0.2889 0.0561 0.9557
vn -0.0988 0.0561 0.9935
vn 0.0988 0.0561 0.9935
vn -0.2889 -0.0561 0.9557
vn -0.4715 -0.0561 0.8801
vn -0.4657 -0.1657 0.8693
vn -0.4500 -0.3032 0.8400
vn -0.2758 -0.3032 0.9122
vn -0.2854 -0.1658 0.9440
vn 0.2854 -0.1658 0.9440
vn 0.4657 -0.1658 0.8693
vn 0.6249 -0.1658 0.7629
vn 0.6038 -0.3032 0.7372
vn 0.5673 -0.4457 0.6925
vn 0.5209 -0.5694 0.6359
vn 0.4588 -0.6898 0.5601
vn 0.3845 -0.7949 0.4694
vn 0.2921 -0.8874 0.3566
vn 0.1687 -0.9639 0.2060
vn 0.1257 -0.9639 0.2347
vn 0.2177 -0.8874 0.4063
vn 0.2865 -0.7949 0.5348
vn 0.3419 -0.6898 0.6382
vn 0.3882 -0.5695 0.7246
vn 0.4227 -0.4457 0.7891
vn 0.4500 -0.3032 0.8400
vn 0.2060 -0.9639 0.1687
vn 0.3566 -0.8874 0.2921
vn 0.4693 -0.7949 0.3844
vn 0.5601 -0.6897 0.4588
vn 0.6359 -0.5695 0.5209
vn 0.6925 -0.4457 0.5673
vn 0.7372 -0.3032 0.6038
vn 0.7629 -0.1657 0.6249
vn 0.8693 -0.1657 0.4657
vn 0.8400 -0.3032 0.4500
vn 0.7891 -0.4457 0.4227
vn 0.7246 -0.5695 0.3882
vn 0.6382 -0.6897 0.3419
vn 0.5348 -0.7949 0.2865
vn 0.4063 -0.8874 0.2177
vn 0.2346 -0.9639 0.1257
vn 0.2548 -0.9639 0.0770
vn 0.4413 -0.8874 0.1334
vn 0.5807 -0.7949 0.1756
vn 0.6931 -0.6897 0.2095
vn 0.7868 -0.5695 0.2379
vn 0.8569 -0.4457 0.2591
vn 0.9122 -0.3032 0.2758
vn 0.9440 -0.1658 0.2854
vn 0.9813 -0.1657 0.0976
vn 0.9483 -0.3032 0.0943
vn 0.8908 -0.4457 0.0886
vn 0.8180 -0.5695 0.0813
vn 0.7205 -0.6897 0.0716
vn 0.6037 -0.7949 0.0600
vn 0.4587 -0.8874 0.0456
vn 0.2649 -0.9639 0.0263
vn 0.2649 -0.9639 -0.0263
vn 0.4587 -0.8874 -0.0456
vn 0.6037 -0.7949 -0.0600
vn 0.7205 -0.6898 -0.0716
vn 0.8180 -0.5695 -0.0813
vn 0.8908 -0.4457 -0.0886
vn 0.9483 -0.3032 -0.0943
vn 0.9813 -0.1657 -0.0976
vn 0.9440 -0.1657 -0.2854
vn 0.9122 -0.3032 -0.2758
vn 0.8569 -0.4457 -0.2591
vn 0.7868 -0.5695 -0.2379
vn 0.6931 -0.6898 -0.2095
vn 0.5808 -0.7949 -0.1756
vn 0.4412 -0.8874 -0.1334
vn 0.2548 -0.9639 -0.0770
vn 0.2347 -0.9639 -0.1257
vn 0.4063 -0.8874 -0.2177
vn 0.5348 -0.7949 -0.2865
vn 0.6382 -0.6898 -0.3419
vn 0.7246 -0.5695 -0.3882
vn 0.7891 -0.4457 -0.4227
vn 0.8400 -0.3032 -0.4500
vn 0.8693 -0.1657 -0.4657
vn 0.7629 -0.1658 -0.6249
vn 0.7372 -0.3032 -0.6038
vn 0.6925 -0.4457 -0.5673
vn 0.6359 -0.5695 -0.5209
vn 0.5601 -0.6898 -0.4588
vn 0.4694 -0.7949 -0.3845
vn 0.3566 -0.8874 -0.2921
vn 0.2059 -0.9639 -0.1687
vn 0.1687 -0.9639 -0.2059
vn 0.2921 -0.8874 -0.3566
vn 0.3845 -0.7949 -0.4693
vn 0.4588 -0.6897 -0.5601
vn 0.5209 -0.5695 -0.6359
vn 0.5673 -0.4457 -0.6925
vn 0.6038 -0.3032 -0.7372
vn 0.6249 -0.1658 -0.7629
vn 0.4657 -0.1658 -0.8693
vn 0.4500 -0.3032 -0.8400
vn 0.4227 -0.4457 -0.7891
vn 0.3882 -0.5695 -0.7246
vn 0.3419 -0.6898 -0.6382
vn 0.2865 -0.7949 -0.5348
vn 0.2177 -0.8874 -0.4063
vn 0.1257 -0.9639 -0.2346
vn 0.0770 -0.9639 -0.2548
vn 0.1334 -0.8874 -0.4412
vn 0.1756 -0.7949 -0.5808
vn 0.2095 -0.6898 -0.6931
vn 0.2379 -0.5695 -0.7868
vn 0.2591 -0.4457 -0.8569
vn 0.2758 -0.3032 -0.9122
vn 0.2854 -0.1657 -0.9440
vn 0.0976 -0.1657 -0.9813
vn 0.0943 -0.3032 -0.9483
vn 0.0886 -0.4457 -0.8908
vn 0.0813 -0.5695 -0.8180
vn 0.0716 -0.6898 -0.7205
vn 0.0600 -0.7949 -0.6037
vn 0.0456 -0.8874 -0.4587
vn 0.0263 -0.9639 -0.2649
vn -0.0263 -0.9639 -0.2649
vn -0.0456 -0.8874 -0.4587
vn -0.0600 -0.7949 -0.6037
vn -0.0716 -0.6898 -0.7205
vn -0.0813 -0.5695 -0.8180
vn -0.0886 -0.4456 -0.8908
vn -0.0943 -0.3032 -0.9483
vn -0.0976 -0.1657 -0.9813
vn -0.2854 -0.1658 -0.9440
vn -0.2758 -0.3032 -0.9122
vn -0.4500 -0.3032 -0.8400
vn -0.4657 -0.1658 -0.8693
vn -0.6249 -0.1658 -0.7629
vn -0.6038 -0.3032 -0.7372
vn -0.5673 -0.4457 -0.6925
vn -0.5209 -0.5695 -0.6359
vn -0.4588 -0.6898 -0.5601
vn -0.3845 -0.7949 -0.4693
vn -0.2921 -0.8874 -0.3566
vn -0.1687 -0.9639 -0.2059
vn -0.1257 -0.9639 -0.2347
vn -0.0770 -0.9639 -0.2548
vn -0.1334 -0.8874 -0.4412
vn -0.1756 -0.7949 -0.5808
vn -0.2095 -0.6898 -0.6930
vn -0.2379 -0.5695 -0.7868
vn -0.3882 -0.5695 -0.7246
vn -0.4227 -0.4457 -0.7891
vn -0.2591 -0.4457 -0.8569
vn -0.3419 -0.6898 -0.6382
vn -0.2865 -0.7949 -0.5348
vn -0.2177 -0.8874 -0.4063
vn -0.2059 -0.9639 -0.1687
vn -0.3566 -0.8874 -0.2921
vn -0.4693 -0.7949 -0.3844
vn -0.5601 -0.6897 -0.4588
vn -0.6359 -0.5695 -0.5209
vn -0.6925 -0.4457 -0.5673
vn -0.7372 -0.3032 -0.6038
vn -0.7629 -0.1658 -0.6249
vn -0.8693 -0.1658 -0.4657
vn -0.8400 -0.3032 -0.4500
vn -0.7891 -0.4457 -0.4227
vn -0.7246 -0.5695 -0.3882
vn -0.6382 -0.6898 -0.3419
vn -0.5348 -0.7949 -0.2865
vn -0.4063 -0.8874 -0.2177
vn -0.2347 -0.9639 -0.1257
vn -0.2548 -0.9639 -0.0770
vn -0.4413 -0.8874 -0.1334
vn -0.5807 -0.7949 -0.1756
vn -0.6931 -0.6898 -0.2095
vn -0.7868 -0.5695 -0.2379
vn -0.8569 -0.4457 -0.2591
vn -0.9122 -0.3032 -0.2758
vn -0.9440 -0.1658 -0.2854
vn -0.9813 -0.1658 -0.0976
vn -0.9483 -0.3032 -0.0943
vn -0.8908 -0.4457 -0.0886
vn -0.8180 -0.5695 -0.0813
vn -0.7205 -0.6898 -0.0716
vn -0.6037 -0.7949 -0.0600
vn -0.4587 -0.8874 -0.0456
vn -0.2649 -0.9639 -0.0263
vn -0.2649 -0.9639 0.0263
vn -0.4587 -0.8874 0.0456
vn -0.6037 -0.7949 0.0600
vn -0.7205 -0.6898 0.0716
vn -0.8180 -0.5695 0.0813
vn -0.8908 -0.4457 0.0886
vn -0.9483 -0.3032 0.0943
vn -0.9813 -0.1658 0.0976
vn -0.9440 -0.1658 0.2854
vn -0.9122 -0.3032 0.2758
vn -0.8569 -0.4457 0.2591
vn -0.7868 -0.5695 0.2379
vn -0.6931 -0.6898 0.2095
vn -0.5807 -0.7949 0.1756
vn -0.4413 -0.8874 0.1334
vn -0.2548 -0.9639 0.0770
vn -0.2346 -0.9639 0.1257
vn -0.4063 -0.8874 0.2177
vn -0.5348 -0.7949 0.2865
vn -0.6382 -0.6898 0.3419
vn -0.7246 -0.5695 0.3882
vn -0.7891 -0.4457 0.4227
vn -0.8400 -0.3032 0.4500
vn -0.8693 -0.1658 0.4657
vn -0.7629 -0.1657 0.6249
vn -0.7372 -0.3032 0.6038
vn -0.6925 -0.4457 0.5673
vn -0.6359 -0.5695 0.5209
vn -0.5601 -0.6898 0.4588
vn -0.4693 -0.7949 0.3844
vn -0.3566 -0.8874 0.2921
vn -0.2059 -0.9639 0.1687
vt 0.999464 0.204268
vt 0.999464 0.210600
vt 0.971177 0.210600
vt 0.971177 0.204268
vt 0.971177 0.198116
vt 0.999464 0.198116
vt 0.000500 0.204268
vt 0.000500 0.198116
vt 0.029286 0.198116
vt 0.029286 0.204268
vt 0.000500 0.210600
vt 0.029286 0.210600
vt 0.029286 0.217445
vt 0.000500 0.217445
vt 0.999464 0.217445
vt 0.971177 0.217445
vt 0.942135 0.217445
vt 0.942135 0.210600
vt 0.942135 0.224791
vt 0.971177 0.224791
vt 0.942135 0.232288
vt 0.971177 0.232288
vt 0.942135 0.239696
vt 0.971177 0.239696
vt 0.942135 0.246878
vt 0.971177 0.246878
vt 0.942135 0.254178
vt 0.971177 0.254178
vt 0.942135 0.261705
vt 0.971177 0.261705
vt 0.999464 0.254178
vt 0.999464 0.261705
vt 0.999464 0.246878
vt 0.999464 0.239696
vt 0.999464 0.232288
vt 0.999464 0.224791
vt 0.029286 0.224791
vt 0.000500 0.224791
vt 0.000500 0.232288
vt 0.029286 0.232288
vt 0.000500 0.239696
vt 0.029286 0.239696
vt 0.000500 0.246878
vt 0.029286 0.246878
vt 0.000500 0.254178
vt 0.029286 0.254178
vt 0.000500 0.261705
vt 0.029286 0.261705
vt 0.059819 0.254178
vt 0.059819 0.261705
vt 0.059819 0.246878
vt 0.059819 0.239696
vt 0.059819 0.232288
vt 0.059819 0.224791
vt 0.059819 0.217445
vt 0.091093 0.217445
vt 0.091093 0.224791
vt 0.091093 0.232288
vt 0.091093 0.239696
vt 0.091093 0.246878
vt 0.091093 0.254178
vt 0.091093 0.261705
vt 0.122613 0.254178
vt 0.122613 0.261705
vt 0.122613 0.246878
vt 0.122613 0.239696
vt 0.122613 0.232288
vt 0.122613 0.224791
vt 0.122613 0.217445
vt 0.122613 0.210600
vt 0.091093 0.210600
vt 0.122613 0.204268
vt 0.091093 0.204268
vt 0.091093 0.198116
vt 0.122613 0.198116
vt 0.154194 0.204268
vt 0.154194 0.198116
vt 0.185780 0.204268
vt 0.185780 0.198116
vt 0.217360 0.204268
vt 0.217360 0.198116
vt 0.248937 0.204268
vt 0.248937 0.198116
vt 0.280511 0.204268
vt 0.280511 0.198116
vt 0.312085 0.204268
vt 0.312085 0.198116
vt 0.343658 0.204268
vt 0.343658 0.198116
vt 0.375217 0.204268
vt 0.375217 0.198116
vt 0.406791 0.204268
vt 0.406791 0.198116
vt 0.438376 0.204268
vt 0.438376 0.198116
vt 0.469946 0.204268
vt 0.469946 0.198116
vt 0.501517 0.204268
vt 0.501517 0.198116
vt 0.533095 0.204268
vt 0.533095 0.198116
vt 0.564671 0.204268
vt 0.564671 0.198116
vt 0.596242 0.204268
vt 0.596242 0.198116
vt 0.627813 0.204268
vt 0.627813 0.198116
vt 0.659385 0.204268
vt 0.659385 0.198116
vt 0.690958 0.204268
vt 0.690958 0.198116
vt 0.722530 0.204268
vt 0.722530 0.198116
vt 0.754105 0.204268
vt 0.754105 0.198116
vt 0.785684 0.204268
vt 0.785684 0.198116
vt 0.817270 0.204268
vt 0.817270 0.198116
vt 0.848853 0.204268
vt 0.848853 0.198116
vt 0.880376 0.204268
vt 0.880376 0.198116
vt 0.911636 0.204268
vt 0.911636 0.198116
vt 0.942135 0.204268
vt 0.942135 0.198116
vt 0.942135 0.192092
vt 0.971177 0.192092
vt 0.911636 0.192092
vt 0.880376 0.192092
vt 0.848853 0.192092
vt 0.817270 0.192092
vt 0.785684 0.192092
vt 0.754105 0.192092
vt 0.722530 0.192092
vt 0.690958 0.192092
vt 0.659385 0.192092
vt 0.627813 0.192092
vt 0.596242 0.192092
vt 0.564671 0.192092
vt 0.533095 0.192092
vt 0.501517 0.192092
vt 0.469946 0.192092
vt 0.469946 0.186009
vt 0.501517 0.186009
vt 0.533095 0.186009
vt 0.564671 0.186009
vt 0.596242 0.186009
vt 0.627813 0.186009
vt 0.659385 0.186009
vt 0.690958 0.186009
vt 0.722530 0.186009
vt 0.754105 0.186009
vt 0.785684 0.186009
vt 0.817270 0.186009
vt 0.848853 0.186009
vt 0.880376 0.186009
vt 0.911636 0.186009
vt 0.942135 0.186009
vt 0.971177 0.186009
vt 0.999464 0.192092
vt 0.999464 0.186009
vt 0.029286 0.192092
vt 0.000500 0.192092
vt 0.000500 0.186009
vt 0.029286 0.186009
vt 0.059819 0.192092
vt 0.059819 0.186009
vt 0.091093 0.192092
vt 0.091093 0.186009
vt 0.122613 0.192092
vt 0.122613 0.186009
vt 0.154194 0.192092
vt 0.154194 0.186009
vt 0.185780 0.192092
vt 0.185780 0.186009
vt 0.217360 0.192092
vt 0.217360 0.186009
vt 0.248937 0.192092
vt 0.248937 0.186009
vt 0.280511 0.192092
vt 0.280511 0.186009
vt 0.312085 0.192092
vt 0.312085 0.186009
vt 0.343658 0.192092
vt 0.343658 0.186009
vt 0.375217 0.192092
vt 0.375217 0.186009
vt 0.406791 0.192092
vt 0.406791 0.186009
vt 0.438376 0.192092
vt 0.438376 0.186009
vt 0.438376 0.179685
vt 0.469946 0.179685
vt 0.406791 0.179685
vt 0.375217 0.179685
vt 0.343658 0.179685
vt 0.312085 0.179685
vt 0.280511 0.179685
vt 0.248937 0.179685
vt 0.217360 0.179685
vt 0.185780 0.179685
vt 0.154194 0.179685
vt 0.122613 0.179685
vt 0.091093 0.179685
vt 0.059819 0.179685
vt 0.029286 0.179685
vt 0.000500 0.179685
vt 0.971177 0.179685
vt 0.999464 0.179685
vt 0.942135 0.179685
vt 0.911636 0.179685
vt 0.880376 0.179685
vt 0.848853 0.179685
vt 0.817270 0.179685
vt 0.785684 0.179685
vt 0.754105 0.179685
vt 0.722530 0.179685
vt 0.690958 0.179685
vt 0.659385 0.179685
vt 0.627813 0.179685
vt 0.596242 0.179685
vt 0.564671 0.179685
vt 0.533095 0.179685
vt 0.501517 0.179685
vt 0.469946 0.172837
vt 0.501517 0.172837
vt 0.533095 0.172837
vt 0.564671 0.172837
vt 0.596242 0.172837
vt 0.627813 0.172837
vt 0.659385 0.172837
vt 0.690958 0.172837
vt 0.722530 0.172837
vt 0.754105 0.172837
vt 0.785684 0.172837
vt 0.817270 0.172837
vt 0.848853 0.172837
vt 0.880376 0.172837
vt 0.911636 0.172837
vt 0.942135 0.172837
vt 0.971177 0.172837
vt 0.999464 0.172837
vt 0.000500 0.172837
vt 0.029286 0.172837
vt 0.059819 0.172837
vt 0.091093 0.172837
vt 0.122613 0.172837
vt 0.154194 0.172837
vt 0.185780 0.172837
vt 0.217360 0.172837
vt 0.248937 0.172837
vt 0.280511 0.172837
vt 0.312085 0.172837
vt 0.343658 0.172837
vt 0.375217 0.172837
vt 0.406791 0.172837
vt 0.438376 0.172837
vt 0.438376 0.165494
vt 0.469946 0.165494
vt 0.406791 0.165494
vt 0.375217 0.165494
vt 0.343658 0.165494
vt 0.312085 0.165494
vt 0.280511 0.165494
vt 0.248937 0.165494
vt 0.217360 0.165494
vt 0.185780 0.165494
vt 0.154194 0.165494
vt 0.122613 0.165494
vt 0.091093 0.165494
vt 0.059819 0.165494
vt 0.029286 0.165494
vt 0.000500 0.165494
vt 0.999464 0.165494
vt 0.971177 0.165494
vt 0.971177 0.157997
vt 0.999464 0.157997
vt 0.000500 0.157997
vt 0.029286 0.157997
vt 0.059819 0.157997
vt 0.091093 0.157997
vt 0.122613 0.157997
vt 0.154194 0.157997
vt 0.185780 0.157997
vt 0.217360 0.157997
vt 0.248937 0.157997
vt 0.280511 0.157997
vt 0.312085 0.157997
vt 0.343658 0.157997
vt 0.375217 0.157997
vt 0.406791 0.157997
vt 0.438376 0.157997
vt 0.469946 0.157997
vt 0.501517 0.165494
vt 0.501517 0.157997
vt 0.533095 0.165494
vt 0.533095 0.157997
vt 0.564671 0.165494
vt 0.564671 0.157997
vt 0.596242 0.165494
vt 0.596242 0.157997
vt 0.627813 0.165494
vt 0.627813 0.157997
vt 0.659385 0.165494
vt 0.659385 0.157997
vt 0.690958 0.165494
vt 0.690958 0.157997
vt 0.722530 0.165494
vt 0.722530 0.157997
vt 0.754105 0.165494
vt 0.754105 0.157997
vt 0.785684 0.165494
vt 0.785684 0.157997
vt 0.817270 0.165494
vt 0.817270 0.157997
vt 0.848853 0.165494
vt 0.848853 0.157997
vt 0.880376 0.165494
vt 0.880376 0.157997
vt 0.911636 0.165494
vt 0.911636 0.157997
vt 0.942135 0.165494
vt 0.942135 0.157997
vt 0.942135 0.150587
vt 0.971177 0.150587
vt 0.911636 0.150587
vt 0.880376 0.150587
vt 0.848853 0.150587
vt 0.817270 0.150587
vt 0.785684 0.150587
vt 0.754105 0.150587
vt 0.722530 0.150587
vt 0.690958 0.150587
vt 0.659385 0.150587
vt 0.627813 0.150587
vt 0.596242 0.150587
vt 0.564671 0.150587
vt 0.533095 0.150587
vt 0.501517 0.150587
vt 0.469946 0.150587
vt 0.438376 0.150587
vt 0.406791 0.150587
vt 0.375217 0.150587
vt 0.343658 0.150587
vt 0.312085 0.150587
vt 0.280511 0.150587
vt 0.248937 0.150587
vt 0.217360 0.150587
vt 0.185780 0.150587
vt 0.154194 0.150587
vt 0.122613 0.150587
vt 0.091093 0.150587
vt 0.059819 0.150587
vt 0.029286 0.150587
vt 0.000500 0.150587
vt 0.999464 0.150587
vt 0.971177 0.143401
vt 0.999464 0.143401
vt 0.000500 0.143401
vt 0.029286 0.143401
vt 0.059819 0.143401
vt 0.091093 0.143401
vt 0.122613 0.143401
vt 0.154194 0.143401
vt 0.185780 0.143401
vt 0.217360 0.143401
vt 0.248937 0.143401
vt 0.280511 0.143401
vt 0.312085 0.143401
vt 0.343658 0.143401
vt 0.375217 0.143401
vt 0.406791 0.143401
vt 0.438376 0.143401
vt 0.469946 0.143401
vt 0.501517 0.143401
vt 0.533095 0.143401
vt 0.564671 0.143401
vt 0.596242 0.143401
vt 0.627813 0.143401
vt 0.659385 0.143401
vt 0.690958 0.143401
vt 0.722530 0.143401
vt 0.754105 0.143401
vt 0.785684 0.143401
vt 0.817270 0.143401
vt 0.848853 0.143401
vt 0.880376 0.143401
vt 0.911636 0.143401
vt 0.942135 0.143401
vt 0.942135 0.136551
vt 0.971177 0.136551
vt 0.911636 0.136551
vt 0.880376 0.136551
vt 0.848853 0.136551
vt 0.817270 0.136551
vt 0.785684 0.136551
vt 0.754105 0.136551
vt 0.722530 0.136551
vt 0.690958 0.136551
vt 0.659385 0.136551
vt 0.627813 0.136551
vt 0.596242 0.136551
vt 0.564671 0.136551
vt 0.533095 0.136551
vt 0.501517 0.136551
vt 0.469946 0.136551
vt 0.438376 0.136551
vt 0.406791 0.136551
vt 0.375217 0.136551
vt 0.343658 0.136551
vt 0.312085 0.136551
vt 0.280511 0.136551
vt 0.248937 0.136551
vt 0.217360 0.136551
vt 0.185780 0.136551
vt 0.154194 0.136551
vt 0.122613 0.136551
vt 0.091093 0.136551
vt 0.059819 0.136551
vt 0.029286 0.136551
vt 0.000500 0.136551
vt 0.999464 0.136551
vt 0.059819 0.198116
vt 0.059819 0.204268
vt 0.059819 0.210600
vt 0.911636 0.210600
vt 0.880376 0.210600
vt 0.880376 0.217445
vt 0.911636 0.217445
vt 0.880376 0.224791
vt 0.911636 0.224791
vt 0.880376 0.232288
vt 0.911636 0.232288
vt 0.880376 0.239696
vt 0.911636 0.239696
vt 0.880376 0.246878
vt 0.911636 0.246878
vt 0.880376 0.254178
vt 0.911636 0.254178
vt 0.880376 0.261705
vt 0.911636 0.261705
vt 0.848853 0.261705
vt 0.848853 0.254178
vt 0.848853 0.246878
vt 0.848853 0.239696
vt 0.848853 0.232288
vt 0.848853 0.224791
vt 0.848853 0.217445
vt 0.848853 0.210600
vt 0.817270 0.210600
vt 0.817270 0.217445
vt 0.817270 0.224791
vt 0.817270 0.232288
vt 0.817270 0.239696
vt 0.817270 0.246878
vt 0.817270 0.254178
vt 0.817270 0.261705
vt 0.785684 0.261705
vt 0.785684 0.254178
vt 0.785684 0.246878
vt 0.785684 0.239696
vt 0.785684 0.232288
vt 0.785684 0.224791
vt 0.785684 0.217445
vt 0.785684 0.210600
vt 0.754105 0.210600
vt 0.754105 0.217445
vt 0.754105 0.224791
vt 0.754105 0.232288
vt 0.754105 0.239696
vt 0.754105 0.246878
vt 0.754105 0.254178
vt 0.754105 0.261705
vt 0.722530 0.261705
vt 0.722530 0.254178
vt 0.722530 0.246878
vt 0.722530 0.239696
vt 0.722530 0.232288
vt 0.722530 0.224791
vt 0.722530 0.217445
vt 0.722530 0.210600
vt 0.690958 0.210600
vt 0.690958 0.217445
vt 0.690958 0.224791
vt 0.690958 0.232288
vt 0.690958 0.239696
vt 0.690958 0.246878
vt 0.690958 0.254178
vt 0.690958 0.261705
vt 0.659385 0.261705
vt 0.659385 0.254178
vt 0.659385 0.246878
vt 0.659385 0.239696
vt 0.659385 0.232288
vt 0.659385 0.224791
vt 0.659385 0.217445
vt 0.659385 0.210600
vt 0.627813 0.210600
vt 0.627813 0.217445
vt 0.627813 0.224791
vt 0.627813 0.232288
vt 0.627813 0.239696
vt 0.627813 0.246878
vt 0.627813 0.254178
vt 0.627813 0.261705
vt 0.596242 0.261705
vt 0.596242 0.254178
vt 0.596242 0.246878
vt 0.596242 0.239696
vt 0.596242 0.232288
vt 0.596242 0.224791
vt 0.596242 0.217445
vt 0.596242 0.210600
vt 0.564671 0.210600
vt 0.564671 0.217445
vt 0.564671 0.224791
vt 0.564671 0.232288
vt 0.564671 0.239696
vt 0.564671 0.246878
vt 0.564671 0.254178
vt 0.564671 0.261705
vt 0.533095 0.261705
vt 0.533095 0.254178
vt 0.533095 0.246878
vt 0.533095 0.239696
vt 0.533095 0.232288
vt 0.533095 0.224791
vt 0.533095 0.217445
vt 0.533095 0.210600
vt 0.501517 0.210600
vt 0.501517 0.217445
vt 0.501517 0.224791
vt 0.501517 0.232288
vt 0.501517 0.239696
vt 0.501517 0.246878
vt 0.501517 0.254178
vt 0.501517 0.261705
vt 0.469946 0.261705
vt 0.469946 0.254178
vt 0.469946 0.246878
vt 0.469946 0.239696
vt 0.469946 0.232288
vt 0.469946 0.224791
vt 0.469946 0.217445
vt 0.469946 0.210600
vt 0.438376 0.210600
vt 0.438376 0.217445
vt 0.406791 0.217445
vt 0.406791 0.210600
vt 0.375217 0.210600
vt 0.375217 0.217445
vt 0.375217 0.224791
vt 0.406791 0.224791
vt 0.375217 0.232288
vt 0.406791 0.232288
vt 0.375217 0.239696
vt 0.406791 0.239696
vt 0.375217 0.246878
vt 0.406791 0.246878
vt 0.375217 0.254178
vt 0.406791 0.254178
vt 0.375217 0.261705
vt 0.406791 0.261705
vt 0.438376 0.261705
vt 0.438376 0.254178
vt 0.438376 0.246878
vt 0.438376 0.239696
vt 0.438376 0.232288
vt 0.438376 0.224791
vt 0.343658 0.261705
vt 0.343658 0.254178
vt 0.343658 0.246878
vt 0.343658 0.239696
vt 0.343658 0.232288
vt 0.343658 0.224791
vt 0.343658 0.217445
vt 0.343658 0.210600
vt 0.312085 0.210600
vt 0.312085 0.217445
vt 0.312085 0.224791
vt 0.312085 0.232288
vt 0.312085 0.239696
vt 0.312085 0.246878
vt 0.312085 0.254178
vt 0.312085 0.261705
vt 0.280511 0.261705
vt 0.280511 0.254178
vt 0.280511 0.246878
vt 0.280511 0.239696
vt 0.280511 0.232288
vt 0.280511 0.224791
vt 0.280511 0.217445
vt 0.280511 0.210600
vt 0.248937 0.210600
vt 0.248937 0.217445
vt 0.248937 0.224791
vt 0.248937 0.232288
vt 0.248937 0.239696
vt 0.248937 0.246878
vt 0.248937 0.254178
vt 0.248937 0.261705
vt 0.217360 0.261705
vt 0.217360 0.254178
vt 0.217360 0.246878
vt 0.217360 0.239696
vt 0.217360 0.232288
vt 0.217360 0.224791
vt 0.217360 0.217445
vt 0.217360 0.210600
vt 0.185780 0.210600
vt 0.185780 0.217445
vt 0.185780 0.224791
vt 0.185780 0.232288
vt 0.185780 0.239696
vt 0.185780 0.246878
vt 0.185780 0.254178
vt 0.185780 0.261705
vt 0.154194 0.261705
vt 0.154194 0.254178
vt 0.154194 0.246878
vt 0.154194 0.239696
vt 0.154194 0.232288
vt 0.154194 0.224791
vt 0.154194 0.217445
vt 0.154194 0.210600
s 0
f 1/1/1 2/2/1 3/3/1 4/4/1
f 1/1/2 4/4/2 5/5/2 6/6/2
f 1/7/3 6/8/3 7/9/3 8/10/3
f 2/11/4 1/7/4 8/10/4 9/12/4
f 2/11/5 9/12/5 10/13/5 11/14/5
f 2/2/6 11/15/6 12/16/6 3/3/6
f 13/17/7 14/18/7 3/3/7 12/16/7
f 15/19/8 13/17/8 12/16/8 16/20/8
f 17/21/9 15/19/9 16/20/9 18/22/9
f 19/23/10 17/21/10 18/22/10 20/24/10
f 21/25/11 19/23/11 20/24/11 22/26/11
f 23/27/12 21/25/12 22/26/12 24/28/12
f 25/29/13 23/27/13 24/28/13 26/30/13
f 27/31/14 28/32/14 26/30/14 24/28/14
f 29/33/15 27/31/15 24/28/15 22/26/15
f 30/34/16 29/33/16 22/26/16 20/24/16
f 31/35/17 30/34/17 20/24/17 18/22/17
f 32/36/18 31/35/18 18/22/18 16/20/18
f 11/15/19 32/36/19 16/20/19 12/16/19
f 11/14/20 10/13/20 33/37/20 32/38/20
f 31/39/21 32/38/21 33/37/21 34/40/21
f 30/41/22 31/39/22 34/40/22 35/42/22
f 29/43/23 30/41/23 35/42/23 36/44/23
f 27/45/24 29/43/24 36/44/24 37/46/24
f 28/47/25 27/45/25 37/46/25 38/48/25
f 39/49/26 40/50/26 38/48/26 37/46/26
f 41/51/27 39/49/27 37/46/27 36/44/27
f 42/52/28 41/51/28 36/44/28 35/42/28
f 43/53/29 42/52/29 35/42/29 34/40/29
f 44/54/30 43/53/30 34/40/30 33/37/30
f 44/54/31 33/37/31 10/13/31 45/55/31
f 44/54/32 45/55/32 46/56/32 47/57/32
f 43/53/33 44/54/33 47/57/33 48/58/33
f 42/52/34 43/53/34 48/58/34 49/59/34
f 41/51/35 42/52/35 49/59/35 50/60/35
f 39/49/36 41/51/36 50/60/36 51/61/36
f 39/49/37 51/61/37 52/62/37 40/50/37
f 53/63/38 54/64/38 52/62/38 51/61/38
f 55/65/39 53/63/39 51/61/39 50/60/39
f 56/66/40 55/65/40 50/60/40 49/59/40
f 57/67/41 56/66/41 49/59/41 48/58/41
f 58/68/42 57/67/42 48/58/42 47/57/42
f 59/69/43 58/68/43 47/57/43 46/56/43
f 60/70/44 59/69/44 46/56/44 61/71/44
f 62/72/45 60/70/45 61/71/45 63/73/45
f 62/72/46 63/73/46 64/74/46 65/75/46
f 66/76/47 62/72/47 65/75/47 67/77/47
f 68/78/48 66/76/48 67/77/48 69/79/48
f 70/80/49 68/78/49 69/79/49 71/81/49
f 72/82/50 70/80/50 71/81/50 73/83/50
f 74/84/51 72/82/51 73/83/51 75/85/51
f 76/86/52 74/84/52 75/85/52 77/87/52
f 78/88/53 76/86/53 77/87/53 79/89/53
f 80/90/54 78/88/54 79/89/54 81/91/54
f 82/92/55 80/90/55 81/91/55 83/93/55
f 84/94/56 82/92/56 83/93/56 85/95/56
f 86/96/57 84/94/57 85/95/57 87/97/57
f 88/98/58 86/96/58 87/97/58 89/99/58
f 90/100/59 88/98/59 89/99/59 91/101/59
f 92/102/60 90/100/60 91/101/60 93/103/60
f 94/104/61 92/102/61 93/103/61 95/105/61
f 96/106/62 94/104/62 95/105/62 97/107/62
f 98/108/63 96/106/63 97/107/63 99/109/63
f 100/110/64 98/108/64 99/109/64 101/111/64
f 102/112/65 100/110/65 101/111/65 103/113/65
f 104/114/66 102/112/66 103/113/66 105/115/66
f 106/116/67 104/114/67 105/115/67 107/117/67
f 108/118/68 106/116/68 107/117/68 109/119/68
f 110/120/69 108/118/69 109/119/69 111/121/69
f 112/122/70 110/120/70 111/121/70 113/123/70
f 114/124/71 112/122/71 113/123/71 115/125/71
f 116/126/72 114/124/72 115/125/72 117/127/72
f 4/4/73 116/126/73 117/127/73 5/5/73
f 118/128/74 119/129/74 5/5/74 117/127/74
f 120/130/75 118/128/75 117/127/75 115/125/75
f 121/131/76 120/130/76 115/125/76 113/123/76
f 122/132/77 121/131/77 113/123/77 111/121/77
f 123/133/78 122/132/78 111/121/78 109/119/78
f 124/134/79 123/133/79 109/119/79 107/117/79
f 125/135/80 124/134/80 107/117/80 105/115/80
f 126/136/81 125/135/81 105/115/81 103/113/81
f 127/137/82 126/136/82 103/113/82 101/111/82
f 128/138/83 127/137/83 101/111/83 99/109/83
f 129/139/84 128/138/84 99/109/84 97/107/84
f 130/140/85 129/139/85 97/107/85 95/105/85
f 131/141/86 130/140/86 95/105/86 93/103/86
f 132/142/87 131/141/87 93/103/87 91/101/87
f 133/143/88 132/142/88 91/101/88 89/99/88
f 133/143/89 89/99/89 87/97/89 134/144/89
f 133/143/90 134/144/90 135/145/90 136/146/90
f 132/142/91 133/143/91 136/146/91 137/147/91
f 131/141/92 132/142/92 137/147/92 138/148/92
f 130/140/93 131/141/93 138/148/93 139/149/93
f 129/139/94 130/140/94 139/149/94 140/150/94
f 128/138/95 129/139/95 140/150/95 141/151/95
f 127/137/96 128/138/96 141/151/96 142/152/96
f 126/136/97 127/137/97 142/152/97 143/153/97
f 125/135/98 126/136/98 143/153/98 144/154/98
f 124/134/99 125/135/99 144/154/99 145/155/99
f 123/133/100 124/134/100 145/155/100 146/156/100
f 122/132/101 123/133/101 146/156/101 147/157/101
f 121/131/102 122/132/102 147/157/102 148/158/102
f 120/130/103 121/131/103 148/158/103 149/159/103
f 118/128/104 120/130/104 149/159/104 150/160/104
f 119/129/105 118/128/105 150/160/105 151/161/105
f 152/162/106 119/129/106 151/161/106 153/163/106
f 154/164/107 152/165/107 153/166/107 155/167/107
f 156/168/108 154/164/108 155/167/108 157/169/108
f 158/170/109 156/168/109 157/169/109 159/171/109
f 160/172/110 158/170/110 159/171/110 161/173/110
f 162/174/111 160/172/111 161/173/111 163/175/111
f 164/176/112 162/174/112 163/175/112 165/177/112
f 166/178/113 164/176/113 165/177/113 167/179/113
f 168/180/114 166/178/114 167/179/114 169/181/114
f 170/182/115 168/180/115 169/181/115 171/183/115
f 172/184/116 170/182/116 171/183/116 173/185/116
f 174/186/117 172/184/117 173/185/117 175/187/117
f 176/188/118 174/186/118 175/187/118 177/189/118
f 178/190/119 176/188/119 177/189/119 179/191/119
f 180/192/120 178/190/120 179/191/120 181/193/120
f 134/144/121 180/192/121 181/193/121 135/145/121
f 182/194/122 183/195/122 135/145/122 181/193/122
f 184/196/123 182/194/123 181/193/123 179/191/123
f 185/197/124 184/196/124 179/191/124 177/189/124
f 186/198/125 185/197/125 177/189/125 175/187/125
f 187/199/126 186/198/126 175/187/126 173/185/126
f 188/200/127 187/199/127 173/185/127 171/183/127
f 189/201/128 188/200/128 171/183/128 169/181/128
f 190/202/129 189/201/129 169/181/129 167/179/129
f 191/203/130 190/202/130 167/179/130 165/177/130
f 192/204/131 191/203/131 165/177/131 163/175/131
f 193/205/132 192/204/132 163/175/132 161/173/132
f 194/206/133 193/205/133 161/173/133 159/171/133
f 195/207/134 194/206/134 159/171/134 157/169/134
f 196/208/135 195/207/135 157/169/135 155/167/135
f 197/209/136 196/208/136 155/167/136 153/166/136
f 198/210/137 197/211/137 153/163/137 151/161/137
f 199/212/138 198/210/138 151/161/138 150/160/138
f 200/213/139 199/212/139 150/160/139 149/159/139
f 201/214/140 200/213/140 149/159/140 148/158/140
f 202/215/141 201/214/141 148/158/141 147/157/141
f 203/216/142 202/215/142 147/157/142 146/156/142
f 204/217/143 203/216/143 146/156/143 145/155/143
f 205/218/144 204/217/144 145/155/144 144/154/144
f 206/219/145 205/218/145 144/154/145 143/153/145
f 207/220/146 206/219/146 143/153/146 142/152/146
f 208/221/147 207/220/147 142/152/147 141/151/147
f 209/222/148 208/221/148 141/151/148 140/150/148
f 210/223/149 209/222/149 140/150/149 139/149/149
f 211/224/150 210/223/150 139/149/150 138/148/150
f 212/225/151 211/224/151 138/148/151 137/147/151
f 213/226/152 212/225/152 137/147/152 136/146/152
f 183/195/153 213/226/153 136/146/153 135/145/153
f 213/226/154 183/195/154 214/227/154 215/228/154
f 212/225/155 213/226/155 215/228/155 216/229/155
f 211/224/156 212/225/156 216/229/156 217/230/156
f 210/223/157 211/224/157 217/230/157 218/231/157
f 209/222/158 210/223/158 218/231/158 219/232/158
f 208/221/159 209/222/159 219/232/159 220/233/159
f 207/220/160 208/221/160 220/233/160 221/234/160
f 206/219/161 207/220/161 221/234/161 222/235/161
f 205/218/162 206/219/162 222/235/162 223/236/162
f 204/217/163 205/218/163 223/236/163 224/237/163
f 203/216/164 204/217/164 224/237/164 225/238/164
f 202/215/165 203/216/165 225/238/165 226/239/165
f 201/214/166 202/215/166 226/239/166 227/240/166
f 200/213/167 201/214/167 227/240/167 228/241/167
f 199/212/168 200/213/168 228/241/168 229/242/168
f 198/210/169 199/212/169 229/242/169 230/243/169
f 198/210/170 230/243/170 231/244/170 197/211/170
f 196/208/171 197/209/171 231/245/171 232/246/171
f 195/207/172 196/208/172 232/246/172 233/247/172
f 194/206/173 195/207/173 233/247/173 234/248/173
f 193/205/174 194/206/174 234/248/174 235/249/174
f 192/204/175 193/205/175 235/249/175 236/250/175
f 191/203/176 192/204/176 236/250/176 237/251/176
f 190/202/177 191/203/177 237/251/177 238/252/177
f 189/201/178 190/202/178 238/252/178 239/253/178
f 188/200/179 189/201/179 239/253/179 240/254/179
f 187/199/180 188/200/180 240/254/180 241/255/180
f 186/198/181 187/199/181 241/255/181 242/256/181
f 185/197/182 186/198/182 242/256/182 243/257/182
f 184/196/183 185/197/183 243/257/183 244/258/183
f 182/194/184 184/196/184 244/258/184 245/259/184
f 183/195/185 182/194/185 245/259/185 214/227/185
f 246/260/186 247/261/186 214/227/186 245/259/186
f 248/262/187 246/260/187 245/259/187 244/258/187
f 249/263/188 248/262/188 244/258/188 243/257/188
f 250/264/189 249/263/189 243/257/189 242/256/189
f 251/265/190 250/264/190 242/256/190 241/255/190
f 252/266/191 251/265/191 241/255/191 240/254/191
f 253/267/192 252/266/192 240/254/192 239/253/192
f 254/268/193 253/267/193 239/253/193 238/252/193
f 255/269/194 254/268/194 238/252/194 237/251/194
f 256/270/195 255/269/195 237/251/195 236/250/195
f 257/271/196 256/270/196 236/250/196 235/249/196
f 258/272/197 257/271/197 235/249/197 234/248/197
f 259/273/198 258/272/198 234/248/198 233/247/198
f 260/274/199 259/273/199 233/247/199 232/246/199
f 261/275/200 260/274/200 232/246/200 231/245/200
f 261/276/201 231/244/201 230/243/201 262/277/201
f 262/277/202 263/278/202 264/279/202 261/276/202
f 260/274/203 261/275/203 264/280/203 265/281/203
f 259/273/204 260/274/204 265/281/204 266/282/204
f 258/272/205 259/273/205 266/282/205 267/283/205
f 257/271/206 258/272/206 267/283/206 268/284/206
f 256/270/207 257/271/207 268/284/207 269/285/207
f 255/269/208 256/270/208 269/285/208 270/286/208
f 254/268/209 255/269/209 270/286/209 271/287/209
f 253/267/210 254/268/210 271/287/210 272/288/210
f 252/266/211 253/267/211 272/288/211 273/289/211
f 251/265/212 252/266/212 273/289/212 274/290/212
f 250/264/213 251/265/213 274/290/213 275/291/213
f 249/263/214 250/264/214 275/291/214 276/292/214
f 248/262/215 249/263/215 276/292/215 277/293/215
f 246/260/216 248/262/216 277/293/216 278/294/216
f 247/261/217 246/260/217 278/294/217 279/295/217
f 280/296/218 247/261/218 279/295/218 281/297/218
f 282/298/219 280/296/219 281/297/219 283/299/219
f 284/300/220 282/298/220 283/299/220 285/301/220
f 286/302/221 284/300/221 285/301/221 287/303/221
f 288/304/222 286/302/222 287/303/222 289/305/222
f 290/306/223 288/304/223 289/305/223 291/307/223
f 292/308/224 290/306/224 291/307/224 293/309/224
f 294/310/225 292/308/225 293/309/225 295/311/225
f 296/312/226 294/310/226 295/311/226 297/313/226
f 298/314/227 296/312/227 297/313/227 299/315/227
f 300/316/228 298/314/228 299/315/228 301/317/228
f 302/318/229 300/316/229 301/317/229 303/319/229
f 304/320/230 302/318/230 303/319/230 305/321/230
f 306/322/231 304/320/231 305/321/231 307/323/231
f 308/324/232 306/322/232 307/323/232 309/325/232
f 262/277/233 308/324/233 309/325/233 263/278/233
f 310/326/234 311/327/234 263/278/234 309/325/234
f 312/328/235 310/326/235 309/325/235 307/323/235
f 313/329/236 312/328/236 307/323/236 305/321/236
f 314/330/237 313/329/237 305/321/237 303/319/237
f 315/331/238 314/330/238 303/319/238 301/317/238
f 316/332/239 315/331/239 301/317/239 299/315/239
f 317/333/240 316/332/240 299/315/240 297/313/240
f 318/334/241 317/333/241 297/313/241 295/311/241
f 319/335/242 318/334/242 295/311/242 293/309/242
f 320/336/243 319/335/243 293/309/243 291/307/243
f 321/337/244 320/336/244 291/307/244 289/305/244
f 322/338/245 321/337/245 289/305/245 287/303/245
f 323/339/246 322/338/246 287/303/246 285/301/246
f 324/340/247 323/339/247 285/301/247 283/299/247
f 325/341/248 324/340/248 283/299/248 281/297/248
f 326/342/249 325/341/249 281/297/249 279/295/249
f 327/343/250 326/342/250 279/295/250 278/294/250
f 328/344/251 327/343/251 278/294/251 277/293/251
f 329/345/252 328/344/252 277/293/252 276/292/252
f 330/346/253 329/345/253 276/292/253 275/291/253
f 331/347/254 330/346/254 275/291/254 274/290/254
f 332/348/255 331/347/255 274/290/255 273/289/255
f 333/349/256 332/348/256 273/289/256 272/288/256
f 334/350/257 333/349/257 272/288/257 271/287/257
f 335/351/258 334/350/258 271/287/258 270/286/258
f 336/352/259 335/351/259 270/286/259 269/285/259
f 337/353/260 336/352/260 269/285/260 268/284/260
f 338/354/261 337/353/261 268/284/261 267/283/261
f 339/355/262 338/354/262 267/283/262 266/282/262
f 340/356/263 339/355/263 266/282/263 265/281/263
f 341/357/264 340/356/264 265/281/264 264/280/264
f 341/358/265 264/279/265 263/278/265 311/327/265
f 311/327/266 342/359/266 343/360/266 341/358/266
f 340/356/267 341/357/267 343/361/267 344/362/267
f 339/355/268 340/356/268 344/362/268 345/363/268
f 338/354/269 339/355/269 345/363/269 346/364/269
f 337/353/270 338/354/270 346/364/270 347/365/270
f 336/352/271 337/353/271 347/365/271 348/366/271
f 335/351/272 336/352/272 348/366/272 349/367/272
f 334/350/273 335/351/273 349/367/273 350/368/273
f 333/349/274 334/350/274 350/368/274 351/369/274
f 332/348/275 333/349/275 351/369/275 352/370/275
f 331/347/276 332/348/276 352/370/276 353/371/276
f 330/346/277 331/347/277 353/371/277 354/372/277
f 329/345/278 330/346/278 354/372/278 355/373/278
f 328/344/279 329/345/279 355/373/279 356/374/279
f 327/343/280 328/344/280 356/374/280 357/375/280
f 326/342/281 327/343/281 357/375/281 358/376/281
f 325/341/282 326/342/282 358/376/282 359/377/282
f 324/340/283 325/341/283 359/377/283 360/378/283
f 323/339/284 324/340/284 360/378/284 361/379/284
f 322/338/285 323/339/285 361/379/285 362/380/285
f 321/337/286 322/338/286 362/380/286 363/381/286
f 320/336/287 321/337/287 363/381/287 364/382/287
f 319/335/288 320/336/288 364/382/288 365/383/288
f 318/334/289 319/335/289 365/383/289 366/384/289
f 317/333/290 318/334/290 366/384/290 367/385/290
f 316/332/291 317/333/291 367/385/291 368/386/291
f 315/331/292 316/332/292 368/386/292 369/387/292
f 314/330/293 315/331/293 369/387/293 370/388/293
f 313/329/294 314/330/294 370/388/294 371/389/294
f 312/328/295 313/329/295 371/389/295 372/390/295
f 310/326/296 312/328/296 372/390/296 373/391/296
f 311/327/297 310/326/297 373/391/297 342/359/297
f 374/392/298 375/393/298 342/359/298 373/391/298
f 376/394/299 374/392/299 373/391/299 372/390/299
f 377/395/300 376/394/300 372/390/300 371/389/300
f 378/396/301 377/395/301 371/389/301 370/388/301
f 379/397/302 378/396/302 370/388/302 369/387/302
f 380/398/303 379/397/303 369/387/303 368/386/303
f 381/399/304 380/398/304 368/386/304 367/385/304
f 382/400/305 381/399/305 367/385/305 366/384/305
f 383/401/306 382/400/306 366/384/306 365/383/306
f 384/402/307 383/401/307 365/383/307 364/382/307
f 385/403/308 384/402/308 364/382/308 363/381/308
f 386/404/309 385/403/309 363/381/309 362/380/309
f 387/405/310 386/404/310 362/380/310 361/379/310
f 388/406/311 387/405/311 361/379/311 360/378/311
f 389/407/312 388/406/312 360/378/312 359/377/312
f 390/408/313 389/407/313 359/377/313 358/376/313
f 391/409/314 390/408/314 358/376/314 357/375/314
f 392/410/315 391/409/315 357/375/315 356/374/315
f 393/411/316 392/410/316 356/374/316 355/373/316
f 394/412/317 393/411/317 355/373/317 354/372/317
f 395/413/318 394/412/318 354/372/318 353/371/318
f 396/414/319 395/413/319 353/371/319 352/370/319
f 397/415/320 396/414/320 352/370/320 351/369/320
f 398/416/321 397/415/321 351/369/321 350/368/321
f 399/417/322 398/416/322 350/368/322 349/367/322
f 400/418/323 399/417/323 349/367/323 348/366/323
f 401/419/324 400/418/324 348/366/324 347/365/324
f 402/420/325 401/419/325 347/365/325 346/364/325
f 403/421/326 402/420/326 346/364/326 345/363/326
f 404/422/327 403/421/327 345/363/327 344/362/327
f 405/423/328 404/422/328 344/362/328 343/361/328
f 375/393/329 405/424/329 343/360/329 342/359/329
f 308/324/330 262/277/330 230/243/330 229/242/330
f 306/322/331 308/324/331 229/242/331 228/241/331
f 304/320/332 306/322/332 228/241/332 227/240/332
f 302/318/333 304/320/333 227/240/333 226/239/333
f 300/316/334 302/318/334 226/239/334 225/238/334
f 298/314/335 300/316/335 225/238/335 224/237/335
f 296/312/336 298/314/336 224/237/336 223/236/336
f 294/310/337 296/312/337 223/236/337 222/235/337
f 292/308/338 294/310/338 222/235/338 221/234/338
f 290/306/339 292/308/339 221/234/339 220/233/339
f 288/304/340 290/306/340 220/233/340 219/232/340
f 286/302/341 288/304/341 219/232/341 218/231/341
f 284/300/342 286/302/342 218/231/342 217/230/342
f 282/298/343 284/300/343 217/230/343 216/229/343
f 282/298/344 216/229/344 215/228/344 280/296/344
f 280/296/345 215/228/345 214/227/345 247/261/345
f 180/192/346 134/144/346 87/97/346 85/95/346
f 178/190/347 180/192/347 85/95/347 83/93/347
f 176/188/348 178/190/348 83/93/348 81/91/348
f 174/186/349 176/188/349 81/91/349 79/89/349
f 172/184/350 174/186/350 79/89/350 77/87/350
f 170/182/351 172/184/351 77/87/351 75/85/351
f 168/180/352 170/182/352 75/85/352 73/83/352
f 166/178/353 168/180/353 73/83/353 71/81/353
f 164/176/354 166/178/354 71/81/354 69/79/354
f 162/174/355 164/176/355 69/79/355 67/77/355
f 160/172/356 162/174/356 67/77/356 65/75/356
f 158/170/357 160/172/357 65/75/357 64/74/357
f 156/168/358 158/170/358 64/74/358 406/425/358
f 154/164/359 156/168/359 406/425/359 7/9/359
f 154/164/360 7/9/360 6/8/360 152/165/360
f 119/129/361 152/162/361 6/6/361 5/5/361
f 407/426/362 8/10/362 7/9/362 406/425/362
f 63/73/363 407/426/363 406/425/363 64/74/363
f 408/427/364 407/426/364 63/73/364 61/71/364
f 45/55/365 408/427/365 61/71/365 46/56/365
f 408/427/366 45/55/366 10/13/366 9/12/366
f 407/426/367 408/427/367 9/12/367 8/10/367
f 14/18/368 116/126/368 4/4/368 3/3/368
f 116/126/369 14/18/369 409/428/369 114/124/369
f 410/429/370 112/122/370 114/124/370 409/428/370
f 411/430/371 410/429/371 409/428/371 412/431/371
f 413/432/372 411/430/372 412/431/372 414/433/372
f 415/434/373 413/432/373 414/433/373 416/435/373
f 417/436/374 415/434/374 416/435/374 418/437/374
f 419/438/375 417/436/375 418/437/375 420/439/375
f 421/440/376 419/438/376 420/439/376 422/441/376
f 423/442/377 421/440/377 422/441/377 424/443/377
f 23/27/378 25/29/378 424/443/378 422/441/378
f 21/25/379 23/27/379 422/441/379 420/439/379
f 19/23/380 21/25/380 420/439/380 418/437/380
f 17/21/381 19/23/381 418/437/381 416/435/381
f 15/19/382 17/21/382 416/435/382 414/433/382
f 13/17/383 15/19/383 414/433/383 412/431/383
f 14/18/384 13/17/384 412/431/384 409/428/384
f 421/440/385 423/442/385 425/444/385 426/445/385
f 419/438/386 421/440/386 426/445/386 427/446/386
f 417/436/387 419/438/387 427/446/387 428/447/387
f 415/434/388 417/436/388 428/447/388 429/448/388
f 413/432/389 415/434/389 429/448/389 430/449/389
f 411/430/390 413/432/390 430/449/390 431/450/390
f 410/429/391 411/430/391 431/450/391 432/451/391
f 112/122/392 410/429/392 432/451/392 110/120/392
f 433/452/393 108/118/393 110/120/393 432/451/393
f 434/453/394 433/452/394 432/451/394 431/450/394
f 435/454/395 434/453/395 431/450/395 430/449/395
f 436/455/396 435/454/396 430/449/396 429/448/396
f 437/456/397 436/455/397 429/448/397 428/447/397
f 438/457/398 437/456/398 428/447/398 427/446/398
f 439/458/399 438/457/399 427/446/399 426/445/399
f 440/459/400 439/458/400 426/445/400 425/444/400
f 439/458/401 440/459/401 441/460/401 442/461/401
f 438/457/402 439/458/402 442/461/402 443/462/402
f 437/456/403 438/457/403 443/462/403 444/463/403
f 436/455/404 437/456/404 444/463/404 445/464/404
f 435/454/405 436/455/405 445/464/405 446/465/405
f 434/453/406 435/454/406 446/465/406 447/466/406
f 433/452/407 434/453/407 447/466/407 448/467/407
f 108/118/408 433/452/408 448/467/408 106/116/408
f 449/468/409 104/114/409 106/116/409 448/467/409
f 450/469/410 449/468/410 448/467/410 447/466/410
f 451/470/411 450/469/411 447/466/411 446/465/411
f 452/471/412 451/470/412 446/465/412 445/464/412
f 453/472/413 452/471/413 445/464/413 444/463/413
f 454/473/414 453/472/414 444/463/414 443/462/414
f 455/474/415 454/473/415 443/462/415 442/461/415
f 456/475/416 455/474/416 442/461/416 441/460/416
f 455/474/417 456/475/417 457/476/417 458/477/417
f 454/473/418 455/474/418 458/477/418 459/478/418
f 453/472/419 454/473/419 459/478/419 460/479/419
f 452/471/420 453/472/420 460/479/420 461/480/420
f 451/470/421 452/471/421 461/480/421 462/481/421
f 450/469/422 451/470/422 462/481/422 463/482/422
f 449/468/423 450/469/423 463/482/423 464/483/423
f 104/114/424 449/468/424 464/483/424 102/112/424
f 465/484/425 100/110/425 102/112/425 464/483/425
f 466/485/426 465/484/426 464/483/426 463/482/426
f 467/486/427 466/485/427 463/482/427 462/481/427
f 468/487/428 467/486/428 462/481/428 461/480/428
f 469/488/429 468/487/429 461/480/429 460/479/429
f 470/489/430 469/488/430 460/479/430 459/478/430
f 471/490/431 470/489/431 459/478/431 458/477/431
f 472/491/432 471/490/432 458/477/432 457/476/432
f 471/490/433 472/491/433 473/492/433 474/493/433
f 470/489/434 471/490/434 474/493/434 475/494/434
f 469/488/435 470/489/435 475/494/435 476/495/435
f 468/487/436 469/488/436 476/495/436 477/496/436
f 467/486/437 468/487/437 477/496/437 478/497/437
f 466/485/438 467/486/438 478/497/438 479/498/438
f 465/484/439 466/485/439 479/498/439 480/499/439
f 100/110/440 465/484/440 480/499/440 98/108/440
f 481/500/441 96/106/441 98/108/441 480/499/441
f 482/501/442 481/500/442 480/499/442 479/498/442
f 483/502/443 482/501/443 479/498/443 478/497/443
f 484/503/444 483/502/444 478/497/444 477/496/444
f 485/504/445 484/503/445 477/496/445 476/495/445
f 486/505/446 485/504/446 476/495/446 475/494/446
f 487/506/447 486/505/447 475/494/447 474/493/447
f 488/507/448 487/506/448 474/493/448 473/492/448
f 487/506/449 488/507/449 489/508/449 490/509/449
f 486/505/450 487/506/450 490/509/450 491/510/450
f 485/504/451 486/505/451 491/510/451 492/511/451
f 484/503/452 485/504/452 492/511/452 493/512/452
f 483/502/453 484/503/453 493/512/453 494/513/453
f 482/501/454 483/502/454 494/513/454 495/514/454
f 481/500/455 482/501/455 495/514/455 496/515/455
f 96/106/456 481/500/456 496/515/456 94/104/456
f 497/516/457 92/102/457 94/104/457 496/515/457
f 498/517/458 497/516/458 496/515/458 495/514/458
f 499/518/459 498/517/459 495/514/459 494/513/459
f 500/519/460 499/518/460 494/513/460 493/512/460
f 501/520/461 500/519/461 493/512/461 492/511/461
f 502/521/462 501/520/462 492/511/462 491/510/462
f 503/522/463 502/521/463 491/510/463 490/509/463
f 504/523/464 503/522/464 490/509/464 489/508/464
f 503/522/465 504/523/465 505/524/465 506/525/465
f 502/521/466 503/522/466 506/525/466 507/526/466
f 501/520/467 502/521/467 507/526/467 508/527/467
f 500/519/468 501/520/468 508/527/468 509/528/468
f 499/518/469 500/519/469 509/528/469 510/529/469
f 498/517/470 499/518/470 510/529/470 511/530/470
f 497/516/471 498/517/471 511/530/471 512/531/471
f 92/102/472 497/516/472 512/531/472 90/100/472
f 513/532/473 88/98/473 90/100/473 512/531/473
f 514/533/474 513/532/474 512/531/474 511/530/474
f 515/534/475 514/533/475 511/530/475 510/529/475
f 516/535/476 515/534/476 510/529/476 509/528/476
f 517/536/477 516/535/477 509/528/477 508/527/477
f 518/537/478 517/536/478 508/527/478 507/526/478
f 519/538/479 518/537/479 507/526/479 506/525/479
f 520/539/480 519/538/480 506/525/480 505/524/480
f 519/538/481 520/539/481 521/540/481 522/541/481
f 518/537/482 519/538/482 522/541/482 523/542/482
f 517/536/483 518/537/483 523/542/483 524/543/483
f 516/535/484 517/536/484 524/543/484 525/544/484
f 515/534/485 516/535/485 525/544/485 526/545/485
f 514/533/486 515/534/486 526/545/486 527/546/486
f 513/532/487 514/533/487 527/546/487 528/547/487
f 88/98/488 513/532/488 528/547/488 86/96/488
f 529/548/489 84/94/489 86/96/489 528/547/489
f 529/548/490 528/547/490 527/546/490 530/549/490
f 529/548/491 530/549/491 531/550/491 532/551/491
f 84/94/492 529/548/492 532/551/492 82/92/492
f 533/552/493 80/90/493 82/92/493 532/551/493
f 534/553/494 533/552/494 532/551/494 531/550/494
f 535/554/495 534/553/495 531/550/495 536/555/495
f 537/556/496 535/554/496 536/555/496 538/557/496
f 539/558/497 537/556/497 538/557/497 540/559/497
f 541/560/498 539/558/498 540/559/498 542/561/498
f 543/562/499 541/560/499 542/561/499 544/563/499
f 545/564/500 543/562/500 544/563/500 546/565/500
f 547/566/501 546/565/501 544/563/501 548/567/501
f 547/566/502 548/567/502 522/541/502 521/540/502
f 548/567/503 549/568/503 523/542/503 522/541/503
f 549/568/504 550/569/504 524/543/504 523/542/504
f 550/569/505 551/570/505 525/544/505 524/543/505
f 552/571/506 526/545/506 525/544/506 551/570/506
f 552/571/507 551/570/507 538/557/507 536/555/507
f 530/549/508 552/571/508 536/555/508 531/550/508
f 552/571/509 530/549/509 527/546/509 526/545/509
f 551/570/510 550/569/510 540/559/510 538/557/510
f 550/569/511 549/568/511 542/561/511 540/559/511
f 548/567/512 544/563/512 542/561/512 549/568/512
f 543/562/513 545/564/513 553/572/513 554/573/513
f 541/560/514 543/562/514 554/573/514 555/574/514
f 539/558/515 541/560/515 555/574/515 556/575/515
f 537/556/516 539/558/516 556/575/516 557/576/516
f 535/554/517 537/556/517 557/576/517 558/577/517
f 534/553/518 535/554/518 558/577/518 559/578/518
f 533/552/519 534/553/519 559/578/519 560/579/519
f 80/90/520 533/552/520 560/579/520 78/88/520
f 561/580/521 76/86/521 78/88/521 560/579/521
f 562/581/522 561/580/522 560/579/522 559/578/522
f 563/582/523 562/581/523 559/578/523 558/577/523
f 564/583/524 563/582/524 558/577/524 557/576/524
f 565/584/525 564/583/525 557/576/525 556/575/525
f 566/585/526 565/584/526 556/575/526 555/574/526
f 567/586/527 566/585/527 555/574/527 554/573/527
f 568/587/528 567/586/528 554/573/528 553/572/528
f 567/586/529 568/587/529 569/588/529 570/589/529
f 566/585/530 567/586/530 570/589/530 571/590/530
f 565/584/531 566/585/531 571/590/531 572/591/531
f 564/583/532 565/584/532 572/591/532 573/592/532
f 563/582/533 564/583/533 573/592/533 574/593/533
f 562/581/534 563/582/534 574/593/534 575/594/534
f 561/580/535 562/581/535 575/594/535 576/595/535
f 76/86/536 561/580/536 576/595/536 74/84/536
f 577/596/537 72/82/537 74/84/537 576/595/537
f 578/597/538 577/596/538 576/595/538 575/594/538
f 579/598/539 578/597/539 575/594/539 574/593/539
f 580/599/540 579/598/540 574/593/540 573/592/540
f 581/600/541 580/599/541 573/592/541 572/591/541
f 582/601/542 581/600/542 572/591/542 571/590/542
f 583/602/543 582/601/543 571/590/543 570/589/543
f 584/603/544 583/602/544 570/589/544 569/588/544
f 583/602/545 584/603/545 585/604/545 586/605/545
f 582/601/546 583/602/546 586/605/546 587/606/546
f 581/600/547 582/601/547 587/606/547 588/607/547
f 580/599/548 581/600/548 588/607/548 589/608/548
f 579/598/549 580/599/549 589/608/549 590/609/549
f 578/597/550 579/598/550 590/609/550 591/610/550
f 577/596/551 578/597/551 591/610/551 592/611/551
f 72/82/552 577/596/552 592/611/552 70/80/552
f 593/612/553 68/78/553 70/80/553 592/611/553
f 594/613/554 593/612/554 592/611/554 591/610/554
f 595/614/555 594/613/555 591/610/555 590/609/555
f 596/615/556 595/614/556 590/609/556 589/608/556
f 597/616/557 596/615/557 589/608/557 588/607/557
f 598/617/558 597/616/558 588/607/558 587/606/558
f 599/618/559 598/617/559 587/606/559 586/605/559
f 600/619/560 599/618/560 586/605/560 585/604/560
f 599/618/561 600/619/561 601/620/561 602/621/561
f 598/617/562 599/618/562 602/621/562 603/622/562
f 597/616/563 598/617/563 603/622/563 604/623/563
f 596/615/564 597/616/564 604/623/564 605/624/564
f 595/614/565 596/615/565 605/624/565 606/625/565
f 594/613/566 595/614/566 606/625/566 607/626/566
f 593/612/567 594/613/567 607/626/567 608/627/567
f 68/78/568 593/612/568 608/627/568 66/76/568
f 60/70/569 62/72/569 66/76/569 608/627/569
f 59/69/570 60/70/570 608/627/570 607/626/570
f 58/68/571 59/69/571 607/626/571 606/625/571
f 57/67/572 58/68/572 606/625/572 605/624/572
f 56/66/573 57/67/573 605/624/573 604/623/573
f 55/65/574 56/66/574 604/623/574 603/622/574
f 53/63/575 55/65/575 603/622/575 602/621/575
f 54/64/576 53/63/576 602/621/576 601/620/576
