# Blender 4.5.3 LTS
# www.blender.org
o Electric_Volt.048
v -2.090102 -26.635197 42.409740
v -1.065289 -26.635197 42.719616
v -2.102070 -26.521233 42.438602
v -3.033923 -26.635197 41.904026
v -2.054197 -26.673183 42.323040
v -1.046989 -26.673183 42.627598
v -1.979609 -26.673191 42.127316
v -2.981805 -26.673183 41.826054
v -2.873328 -26.673183 41.655323
v -3.795963 -26.673183 41.159176
v -3.655668 -26.673183 41.018856
v -4.462822 -26.673180 40.345013
v -3.862312 -26.635189 41.225529
v -4.540828 -26.635201 40.397129
v -3.884428 -26.521233 41.247639
v -4.566830 -26.521233 40.414509
v -3.884429 -25.844120 41.247639
v -3.051295 -26.521233 41.930058
v -3.051295 -25.844116 41.930058
v -2.102070 -25.844112 42.438602
v -3.051297 -21.864014 41.930073
v -2.102072 -21.864029 42.438618
v -3.884430 -21.864014 41.247639
v -4.566831 -21.864019 40.414509
v -4.566830 -25.844112 40.414509
v -5.075397 -21.864025 39.465183
v -5.075397 -25.844116 39.465176
v -5.387023 -21.864019 38.434353
v -5.387022 -25.844116 38.434353
v -5.493602 -21.864025 37.362713
v -5.493601 -25.844116 37.362705
v -5.387023 -21.864019 36.291073
v -5.387022 -25.844112 36.291065
v -5.075397 -21.864014 35.260189
v -5.075397 -25.844112 35.260189
v -4.566831 -21.864006 34.310917
v -4.566831 -25.844120 34.310909
v -3.884431 -21.864019 33.477741
v -3.884431 -25.844116 33.477741
v -3.051302 -21.864025 32.795368
v -3.051301 -25.844120 32.795353
v -2.102078 -21.864019 32.286770
v -2.102077 -25.844128 32.286770
v -1.071395 -21.864029 31.975101
v -1.071394 -25.844135 31.975101
v 0.000018 -21.864023 31.868549
v 0.000019 -25.844135 31.868549
v 1.071432 -21.864029 31.975101
v 1.071429 -25.844135 31.975101
v 2.102116 -21.864021 32.286770
v 2.102110 -25.844124 32.286770
v 3.051339 -21.864025 32.795368
v 3.051335 -25.844124 32.795353
v 3.884467 -21.864017 33.477741
v 3.884467 -25.844112 33.477741
v 4.566868 -21.864017 34.310917
v 4.566869 -25.844124 34.310909
v 5.075433 -21.864025 35.260189
v 5.075435 -25.844124 35.260189
v 5.387059 -21.864025 36.291073
v 5.387061 -25.844120 36.291065
v 5.493639 -21.864025 37.362713
v 5.493639 -25.844124 37.362705
v 5.387056 -21.864021 38.434353
v 5.387057 -25.844124 38.434353
v 5.075428 -21.864021 39.465183
v 5.075429 -25.844124 39.465176
v 4.566864 -21.864021 40.414509
v 4.566864 -25.844120 40.414509
v 3.884465 -21.864012 41.247639
v 3.884467 -25.844120 41.247639
v 3.051333 -21.864012 41.930073
v 3.051335 -25.844112 41.930058
v 2.102108 -21.864025 42.438618
v 2.102109 -25.844109 42.438602
v 1.071427 -21.864023 42.750256
v 1.071428 -25.844116 42.750256
v 0.000018 -21.864023 42.856884
v 0.000020 -25.844109 42.856876
v -1.071390 -21.864023 42.750256
v -1.071389 -25.844116 42.750256
v -1.071389 -26.521240 42.750256
v 0.000020 -26.521240 42.856884
v 0.000020 -26.635193 42.825611
v 1.071428 -26.521240 42.750256
v 2.102109 -26.521233 42.438602
v 1.065328 -26.635197 42.719624
v 2.090142 -26.635197 42.409748
v 1.047028 -26.673183 42.627598
v 1.009053 -26.673183 42.416210
v 0.000020 -26.673183 42.731716
v 2.054237 -26.673183 42.323040
v 1.979649 -26.673191 42.127323
v 2.981844 -26.673187 41.826054
v 2.873366 -26.673191 41.655323
v 3.796001 -26.673191 41.159176
v 3.033962 -26.635197 41.904026
v 3.051335 -26.521233 41.930058
v 3.862350 -26.635193 41.225529
v 3.884466 -26.521233 41.247639
v 4.540863 -26.635201 40.397129
v 4.566865 -26.521240 40.414509
v 5.046531 -26.635204 39.453213
v 4.462858 -26.673183 40.345005
v 4.292164 -26.673183 40.236469
v 4.959839 -26.673191 39.417309
v 5.264372 -26.673191 38.409908
v 4.764131 -26.673191 39.342693
v 5.052997 -26.673183 38.371967
v 4.408182 -26.673180 39.214664
v 4.664240 -26.673191 38.306805
v 3.922238 -26.673187 39.057964
v 3.988093 -26.673183 40.050014
v 3.411747 -26.673191 40.774876
v 3.584713 -26.673191 39.818386
v 3.116086 -26.673191 39.574581
v 3.100454 -26.673191 40.463543
v 2.758155 -26.673191 40.121204
v 2.455360 -26.673191 40.947834
v 2.211571 -26.673187 40.479160
v 1.694996 -26.673187 41.285366
v 2.686915 -26.673187 41.351208
v 1.851630 -26.673191 41.771351
v 0.943929 -26.673187 42.027424
v 0.000020 -26.673187 42.114445
v 0.864933 -26.673183 41.490261
v 0.785340 -26.673187 40.833775
v 0.000020 -26.673187 41.559551
v 0.000020 -26.673187 40.879269
v -0.864893 -26.673183 41.490261
v -0.785301 -26.673183 40.833775
v -1.694957 -26.673187 41.285358
v -0.943890 -26.673187 42.027416
v -1.851591 -26.673187 41.771336
v -1.009014 -26.673183 42.416210
v 0.000020 -26.673183 42.514858
v -2.686877 -26.673176 41.351208
v -3.411712 -26.673176 40.774876
v -2.455324 -26.673187 40.947834
v -2.211536 -26.673183 40.479160
v -3.100423 -26.673183 40.463543
v -2.758124 -26.673183 40.121204
v -3.584683 -26.673176 39.818386
v -3.116059 -26.673183 39.574581
v -3.922209 -26.673164 39.057972
v -3.988061 -26.673180 40.050014
v -4.408152 -26.673180 39.214664
v -4.292130 -26.673180 40.236469
v -4.764098 -26.673191 39.342693
v -5.052961 -26.673183 38.371967
v -4.959807 -26.673183 39.417309
v -5.264337 -26.673183 38.409908
v -5.046499 -26.635197 39.453213
v -5.356351 -26.635201 38.428265
v -5.075396 -26.521233 39.465183
v -5.387022 -26.521233 38.434353
v -5.493600 -26.521240 37.362713
v -5.387022 -26.521233 36.291065
v -5.462322 -26.635189 37.362713
v -5.356351 -26.635197 36.297161
v -5.368487 -26.673180 37.362713
v -5.151616 -26.673191 37.362728
v -5.264337 -26.673183 36.315441
v -5.052961 -26.673191 36.353458
v -4.959808 -26.673180 35.308048
v -4.764098 -26.673183 35.382656
v -4.462826 -26.673180 34.380421
v -5.046501 -26.635197 35.272152
v -4.540833 -26.635197 34.328289
v -5.075397 -26.521233 35.260189
v -4.566832 -26.521244 34.310909
v -3.884433 -26.521233 33.477741
v -3.051303 -26.521240 32.795368
v -3.862319 -26.635193 33.499897
v -3.033931 -26.635193 32.821339
v -3.795968 -26.673176 33.566257
v -3.655669 -26.673183 33.706562
v -2.981812 -26.673183 32.899372
v -2.873333 -26.673176 33.070049
v -2.054205 -26.673187 32.402340
v -1.979615 -26.673187 32.598110
v -1.046993 -26.673187 32.097828
v -2.090110 -26.635197 32.315685
v -1.065294 -26.635204 32.005810
v -2.102078 -26.521240 32.286770
v -1.071394 -26.521244 31.975101
v 0.000019 -26.521244 31.868549
v 0.000019 -26.635204 31.899822
v 1.071428 -26.521244 31.975101
v 1.065328 -26.635204 32.005810
v 2.102109 -26.521240 32.286770
v 2.090141 -26.635197 32.315685
v 3.051335 -26.521240 32.795368
v 3.033962 -26.635204 32.821339
v 3.884467 -26.521240 33.477741
v 3.862350 -26.635204 33.499897
v 4.566869 -26.521240 34.310909
v 4.540867 -26.635201 34.328289
v 5.075435 -26.521244 35.260189
v 5.046539 -26.635201 35.272152
v 5.387061 -26.521240 36.291065
v 5.356390 -26.635208 36.297161
v 5.493639 -26.521240 37.362713
v 5.462360 -26.635204 37.362713
v 5.387057 -26.521244 38.434353
v 5.356386 -26.635204 38.428265
v 5.075429 -26.521240 39.465183
v 5.368526 -26.673183 37.362713
v 5.264377 -26.673191 36.315441
v 5.151654 -26.673195 37.362713
v 5.053000 -26.673191 36.353458
v 4.751262 -26.673183 37.362713
v 4.664243 -26.673191 36.418613
v 4.196417 -26.673195 37.362713
v 3.516186 -26.673191 37.362713
v 4.127130 -26.673183 38.227779
v 4.127131 -26.673183 36.497646
v 3.470690 -26.673191 36.577267
v 3.922239 -26.673187 35.667446
v 3.336542 -26.673187 35.827938
v 3.584714 -26.673187 34.906979
v 4.408185 -26.673183 35.510761
v 4.764136 -26.673183 35.382656
v 3.988094 -26.673183 34.675411
v 4.292164 -26.673191 34.488895
v 3.411744 -26.673191 33.950550
v 3.655700 -26.673187 33.706562
v 2.686911 -26.673191 33.374157
v 3.100454 -26.673187 34.261883
v 2.758155 -26.673187 34.604229
v 2.455357 -26.673183 33.777599
v 2.211569 -26.673183 34.246273
v 1.694994 -26.673187 33.440067
v 1.534555 -26.673183 34.025806
v 0.864932 -26.673183 33.235165
v 1.851629 -26.673191 32.954075
v 1.979648 -26.673187 32.598110
v 0.943929 -26.673183 32.698009
v 1.009053 -26.673187 32.309216
v 0.000019 -26.673183 32.610981
v 0.000019 -26.673187 32.210552
v -0.943892 -26.673183 32.698009
v 0.000019 -26.673183 33.165874
v 0.000019 -26.673187 33.846165
v -0.864894 -26.673183 33.235165
v -0.785303 -26.673183 33.891666
v -1.694959 -26.673183 33.440067
v -1.534523 -26.673183 34.025806
v -2.455324 -26.673183 33.777599
v -1.851595 -26.673191 32.954075
v -2.686880 -26.673187 33.374157
v -3.411714 -26.673187 33.950550
v -3.100423 -26.673183 34.261890
v -3.988061 -26.673180 34.675411
v -4.292130 -26.673183 34.488895
v -3.584683 -26.673176 34.906979
v -4.408152 -26.673191 35.510761
v -3.922209 -26.673187 35.667446
v -4.664207 -26.673183 36.418613
v -4.127100 -26.673183 36.497646
v -4.751228 -26.673191 37.362728
v -4.196387 -26.673195 37.362713
v -4.664207 -26.673191 38.306812
v -4.127100 -26.673183 38.227779
v -3.470660 -26.673183 38.148159
v -3.516157 -26.673191 37.362713
v -2.760238 -26.673187 38.085545
v -3.336513 -26.673183 38.897495
v -2.693880 -26.673176 38.774883
v -2.037127 -26.673187 38.731831
v -2.586949 -26.673183 39.397198
v -2.002117 -26.673176 39.365055
v -2.465277 -26.673183 39.828312
v -2.034229 -26.673183 39.949978
v -1.411949 -26.673183 40.056919
v -1.368917 -26.673176 39.400105
v -0.722706 -26.673183 40.123287
v -1.534520 -26.673183 40.699581
v 0.000020 -26.673176 40.146328
v -0.694702 -26.673183 39.424168
v -0.686647 -26.673183 38.733089
v 0.000019 -26.673183 39.433460
v 0.000019 -26.673176 38.735340
v 0.694740 -26.673183 39.424168
v 0.686683 -26.673183 38.733089
v 1.368952 -26.673187 39.400105
v 0.722745 -26.673187 40.123287
v 1.411987 -26.673187 40.056919
v 2.034263 -26.673187 39.949978
v 1.534558 -26.673191 40.699581
v 2.465308 -26.673187 39.828312
v 2.002147 -26.673183 39.365070
v 2.037154 -26.673187 38.731831
v 2.586975 -26.673187 39.397198
v 2.693904 -26.673164 38.774883
v 2.760265 -26.673187 38.085545
v 3.336538 -26.673187 38.897495
v 3.470687 -26.673187 38.148159
v 2.783304 -26.673199 37.362713
v 2.061214 -26.673183 38.057529
v 2.070508 -26.673191 37.362713
v 1.370212 -26.673187 38.049442
v 1.372475 -26.673187 37.362713
v 0.683934 -26.673187 38.046719
v 1.367633 -26.673183 38.730503
v 0.683886 -26.673191 37.362713
v 0.000019 -26.673187 38.046627
v 0.000020 -26.673187 37.362728
v -0.683897 -26.673187 38.046719
v -0.683848 -26.673191 37.362713
v -1.370177 -26.673187 38.049442
v -1.372439 -26.673187 37.362713
v -2.061184 -26.673183 38.057529
v -1.367601 -26.673176 38.730503
v -2.070475 -26.673191 37.362713
v -2.061184 -26.673187 36.667904
v -2.783275 -26.673199 37.362713
v -2.760238 -26.673183 36.639881
v -2.693880 -26.673187 35.950542
v -3.470660 -26.673187 36.577267
v -3.336513 -26.673183 35.827938
v -3.116059 -26.673183 35.150852
v -2.758124 -26.673187 34.604229
v -2.586950 -26.673183 35.328197
v -2.002120 -26.673183 35.360302
v -2.465279 -26.673183 34.897114
v -2.034233 -26.673176 34.775410
v -1.411955 -26.673176 34.668507
v -2.211538 -26.673183 34.246273
v -1.368921 -26.673176 35.325336
v -0.722710 -26.673176 34.602154
v -0.694705 -26.673183 35.301273
v 0.000018 -26.673187 34.579105
v 0.000018 -26.673187 35.291981
v 0.722741 -26.673187 34.602154
v 0.694737 -26.673183 35.301273
v 1.411981 -26.673187 34.668499
v 0.785338 -26.673183 33.891666
v 1.368949 -26.673183 35.325336
v 2.034260 -26.673187 34.775410
v 2.002147 -26.673187 35.360302
v 2.465308 -26.673183 34.897114
v 2.586978 -26.673187 35.328197
v 2.693910 -26.673187 35.950542
v 3.116088 -26.673187 35.150852
v 2.037158 -26.673183 35.993595
v 2.760269 -26.673187 36.639881
v 2.061217 -26.673187 36.667904
v 1.370212 -26.673187 36.675922
v 1.367633 -26.673183 35.994923
v 0.683934 -26.673187 36.678715
v 0.686683 -26.673183 35.992344
v 0.000019 -26.673191 36.678738
v 0.000019 -26.673187 35.990086
v -0.683897 -26.673187 36.678715
v -0.686648 -26.673183 35.992344
v -1.370177 -26.673187 36.675922
v -1.367602 -26.673183 35.994923
v -2.037127 -26.673183 35.993595
v -1.009018 -26.673187 32.309216
v 0.000019 -26.673187 31.993671
v 1.047028 -26.673187 32.097828
v 2.054236 -26.673187 32.402340
v 2.981842 -26.673183 32.899372
v 2.873363 -26.673187 33.070049
v 3.795999 -26.673187 33.566257
v 4.462861 -26.673183 34.380421
v 4.959846 -26.673183 35.308048
v 3.655705 -26.673187 41.018856
vn -0.1481 -0.6512 0.7443
vn -0.2905 -0.6510 0.7013
vn -0.0776 -0.9792 0.1873
vn -0.0395 -0.9793 0.1986
vn -0.1934 -0.1323 0.9721
vn -0.3794 -0.1324 0.9157
vn -0.4216 -0.6513 0.6309
vn -0.5507 -0.1324 0.8241
vn -0.1125 -0.9793 0.1684
vn -0.0000 -1.0000 -0.0000
vn -0.1434 -0.9792 0.1434
vn -0.5367 -0.6511 0.5367
vn -0.1684 -0.9793 0.1125
vn -0.6309 -0.6513 0.4216
vn -0.7009 -0.1325 0.7009
vn -0.8242 -0.1324 0.5507
vn -0.7071 -0.0000 0.7071
vn -0.8315 -0.0000 0.5556
vn -0.5556 -0.0000 0.8315
vn -0.3827 -0.0000 0.9239
vn -0.9239 -0.0000 0.3827
vn -0.9808 -0.0000 0.1951
vn -1.0000 -0.0000 -0.0000
vn -0.9808 -0.0000 -0.1951
vn -0.9239 -0.0000 -0.3827
vn -0.8315 -0.0000 -0.5556
vn -0.7071 -0.0000 -0.7071
vn -0.5556 -0.0000 -0.8315
vn -0.3827 -0.0000 -0.9239
vn -0.1951 -0.0000 -0.9808
vn -0.0000 -0.0000 -1.0000
vn 0.1951 -0.0000 -0.9808
vn 0.3827 -0.0000 -0.9239
vn 0.5556 -0.0000 -0.8315
vn 0.7071 -0.0000 -0.7071
vn 0.8315 -0.0000 -0.5556
vn 0.9239 -0.0000 -0.3827
vn 0.9808 -0.0000 -0.1951
vn 1.0000 -0.0000 -0.0000
vn 0.9808 -0.0000 0.1951
vn 0.9239 -0.0000 0.3827
vn 0.8315 -0.0000 0.5556
vn 0.7071 -0.0000 0.7071
vn 0.5556 -0.0000 0.8315
vn 0.3827 -0.0000 0.9239
vn 0.1951 -0.0000 0.9808
vn 0.1952 -0.0000 0.9808
vn -0.0000 -0.0000 1.0000
vn -0.1951 -0.0000 0.9808
vn -0.1952 -0.0000 0.9808
vn -0.0000 -0.1324 0.9912
vn -0.0000 -0.6510 0.7590
vn 0.1934 -0.1323 0.9721
vn 0.1481 -0.6512 0.7443
vn 0.3794 -0.1323 0.9157
vn 0.2905 -0.6510 0.7013
vn 0.0395 -0.9793 0.1986
vn 0.0776 -0.9792 0.1873
vn -0.0000 -0.9793 0.2027
vn 0.1125 -0.9793 0.1684
vn 0.4216 -0.6513 0.6310
vn 0.1434 -0.9792 0.1434
vn 0.5367 -0.6511 0.5367
vn 0.5507 -0.1324 0.8241
vn 0.7009 -0.1324 0.7009
vn 0.6310 -0.6513 0.4216
vn 0.8242 -0.1324 0.5507
vn 0.1684 -0.9793 0.1125
vn 0.7012 -0.6511 0.2905
vn 0.9157 -0.1324 0.3793
vn 0.1873 -0.9792 0.0776
vn 0.7442 -0.6513 0.1481
vn 0.1986 -0.9793 0.0395
vn -0.1873 -0.9792 0.0776
vn -0.1986 -0.9793 0.0395
vn -0.7012 -0.6511 0.2905
vn -0.7442 -0.6513 0.1480
vn -0.9157 -0.1324 0.3793
vn -0.9721 -0.1324 0.1934
vn -0.9912 -0.1324 -0.0000
vn -0.7590 -0.6511 -0.0000
vn -0.7443 -0.6513 -0.1480
vn -0.9721 -0.1324 -0.1934
vn -0.1987 -0.9793 -0.0395
vn -0.2027 -0.9792 -0.0000
vn -0.1873 -0.9792 -0.0776
vn -0.7012 -0.6511 -0.2905
vn -0.1684 -0.9793 -0.1125
vn -0.6309 -0.6513 -0.4216
vn -0.9157 -0.1324 -0.3793
vn -0.8241 -0.1325 -0.5507
vn -0.7009 -0.1325 -0.7009
vn -0.5367 -0.6511 -0.5367
vn -0.4216 -0.6513 -0.6309
vn -0.5507 -0.1324 -0.8241
vn -0.1125 -0.9793 -0.1684
vn -0.1433 -0.9792 -0.1433
vn -0.0776 -0.9792 -0.1873
vn -0.2905 -0.6511 -0.7012
vn -0.0395 -0.9793 -0.1986
vn -0.1481 -0.6514 -0.7442
vn -0.3794 -0.1325 -0.9157
vn -0.1934 -0.1325 -0.9721
vn -0.0000 -0.1325 -0.9912
vn -0.0000 -0.6511 -0.7590
vn 0.1934 -0.1325 -0.9721
vn 0.1481 -0.6514 -0.7442
vn 0.3794 -0.1325 -0.9157
vn 0.2905 -0.6511 -0.7012
vn 0.5507 -0.1324 -0.8241
vn 0.4216 -0.6513 -0.6309
vn 0.7009 -0.1325 -0.7009
vn 0.5367 -0.6511 -0.5367
vn 0.8241 -0.1325 -0.5507
vn 0.6309 -0.6513 -0.4216
vn 0.9157 -0.1324 -0.3793
vn 0.7012 -0.6511 -0.2905
vn 0.9721 -0.1324 -0.1934
vn 0.7442 -0.6513 -0.1480
vn 0.9912 -0.1324 -0.0000
vn 0.7590 -0.6511 -0.0000
vn 0.9721 -0.1324 0.1934
vn 0.2027 -0.9792 -0.0000
vn 0.1986 -0.9793 -0.0395
vn -0.0000 -0.9792 -0.2027
vn 0.0395 -0.9793 -0.1986
vn 0.0776 -0.9792 -0.1873
vn 0.1125 -0.9793 -0.1684
vn 0.1433 -0.9792 -0.1433
vn 0.1684 -0.9793 -0.1125
vn 0.1873 -0.9792 -0.0776
vt 0.737515 0.139039
vt 0.733356 0.137773
vt 0.733526 0.137394
vt 0.737595 0.138640
vt 0.737425 0.139508
vt 0.733177 0.138211
vt 0.729547 0.135708
vt 0.729277 0.136107
vt 0.729766 0.135369
vt 0.733835 0.136606
vt 0.737754 0.137783
vt 0.730215 0.134681
vt 0.727054 0.132098
vt 0.726485 0.132657
vt 0.726186 0.132956
vt 0.724491 0.128917
vt 0.723792 0.129356
vt 0.723453 0.129585
vt 0.725857 0.133285
vt 0.723055 0.129844
vt 0.146278 0.838772
vt 0.150645 0.838772
vt 0.150645 0.841514
vt 0.146278 0.841504
vt 0.141919 0.838762
vt 0.141909 0.841494
vt 0.137561 0.838762
vt 0.137561 0.841494
vt 0.137581 0.822646
vt 0.141939 0.822646
vt 0.146307 0.822656
vt 0.150665 0.822656
vt 0.155004 0.838782
vt 0.155024 0.822666
vt 0.159392 0.822676
vt 0.159362 0.838792
vt 0.163720 0.838792
vt 0.163740 0.822676
vt 0.168108 0.822686
vt 0.168088 0.838802
vt 0.172446 0.838811
vt 0.172476 0.822696
vt 0.176824 0.822696
vt 0.176804 0.838811
vt 0.181172 0.838822
vt 0.181192 0.822706
vt 0.185560 0.822716
vt 0.185530 0.838831
vt 0.189888 0.838831
vt 0.189908 0.822716
vt 0.194276 0.822716
vt 0.194246 0.838841
vt 0.198634 0.822716
vt 0.198614 0.838841
vt 0.202992 0.822726
vt 0.202972 0.838851
vt 0.207330 0.838861
vt 0.207360 0.822736
vt 0.211708 0.822736
vt 0.211688 0.838861
vt 0.216046 0.838871
vt 0.216076 0.822746
vt 0.220434 0.822756
vt 0.220414 0.838871
vt 0.224772 0.838871
vt 0.224792 0.822756
vt 0.229160 0.822766
vt 0.229130 0.838881
vt 0.233498 0.838881
vt 0.233518 0.822766
vt 0.237876 0.822775
vt 0.237856 0.838891
vt 0.242215 0.838901
vt 0.242244 0.822785
vt 0.246592 0.822785
vt 0.246582 0.838901
vt 0.250941 0.838911
vt 0.250960 0.822795
vt 0.255299 0.838921
vt 0.255328 0.822805
vt 0.259657 0.838921
vt 0.259677 0.822805
vt 0.264045 0.822815
vt 0.264025 0.838931
vt 0.268383 0.838941
vt 0.268403 0.822825
vt 0.128835 0.838742
vt 0.128855 0.822626
vt 0.133223 0.822636
vt 0.133193 0.838752
vt 0.133193 0.841484
vt 0.128825 0.841484
vt 0.741833 0.139488
vt 0.741833 0.139967
vt 0.268383 0.841684
vt 0.264015 0.841674
vt 0.746151 0.139069
vt 0.746251 0.139538
vt 0.259657 0.841664
vt 0.750309 0.137822
vt 0.750499 0.138261
vt 0.746071 0.138670
vt 0.750150 0.137443
vt 0.741833 0.139079
vt 0.745922 0.137802
vt 0.749861 0.136646
vt 0.741833 0.138191
vt 0.753481 0.134751
vt 0.753920 0.135449
vt 0.754149 0.135778
vt 0.756662 0.132178
vt 0.757230 0.132756
vt 0.757510 0.133036
vt 0.754408 0.136177
vt 0.757849 0.133385
vt 0.760272 0.129695
vt 0.760671 0.129954
vt 0.759923 0.129465
vt 0.762336 0.125865
vt 0.762775 0.126055
vt 0.761957 0.125706
vt 0.759245 0.129017
vt 0.761160 0.125407
vt 0.763593 0.121717
vt 0.763194 0.121637
vt 0.762346 0.121487
vt 0.759724 0.124888
vt 0.760771 0.121208
vt 0.758008 0.128269
vt 0.757759 0.124240
vt 0.758597 0.120889
vt 0.756383 0.127321
vt 0.755675 0.131191
vt 0.754418 0.129924
vt 0.755386 0.123582
vt 0.754488 0.126324
vt 0.753032 0.128538
vt 0.751796 0.131889
vt 0.750818 0.129974
vt 0.752723 0.133514
vt 0.748714 0.133235
vt 0.748066 0.130872
vt 0.749342 0.135210
vt 0.745662 0.136227
vt 0.745343 0.134053
vt 0.741843 0.136576
vt 0.741843 0.134332
vt 0.745034 0.131390
vt 0.741853 0.131570
vt 0.738352 0.134033
vt 0.738672 0.131380
vt 0.738023 0.136207
vt 0.734982 0.133195
vt 0.735640 0.130832
vt 0.734353 0.135160
vt 0.730973 0.133454
vt 0.731910 0.131829
vt 0.728051 0.131111
vt 0.729307 0.129854
vt 0.732907 0.129924
vt 0.730703 0.128468
vt 0.727353 0.127232
vt 0.729248 0.126254
vt 0.725717 0.128169
vt 0.725996 0.124150
vt 0.728370 0.123512
vt 0.724022 0.124778
vt 0.722586 0.125297
vt 0.721798 0.125596
vt 0.721419 0.121368
vt 0.722995 0.121098
vt 0.720571 0.121507
vt 0.721409 0.125746
vt 0.720172 0.121587
vt 0.720970 0.125935
vt 0.719704 0.121687
vt 0.159362 0.841524
vt 0.154994 0.841514
vt 0.163720 0.841534
vt 0.719754 0.117279
vt 0.719275 0.117269
vt 0.720192 0.112951
vt 0.719724 0.112861
vt 0.168078 0.841534
vt 0.720591 0.113041
vt 0.720163 0.117279
vt 0.721040 0.117279
vt 0.721449 0.113190
vt 0.722636 0.109261
vt 0.721848 0.108962
vt 0.721459 0.108802
vt 0.724550 0.105651
vt 0.723862 0.105212
vt 0.723523 0.104973
vt 0.721020 0.108613
vt 0.723124 0.104714
vt 0.176804 0.841544
vt 0.172446 0.841544
vt 0.181162 0.841554
vt 0.726286 0.101632
vt 0.725947 0.101283
vt 0.729656 0.098890
vt 0.729387 0.098491
vt 0.185530 0.841564
vt 0.729876 0.099229
vt 0.726575 0.101921
vt 0.727133 0.102490
vt 0.730315 0.099927
vt 0.733935 0.098022
vt 0.733635 0.097224
vt 0.733476 0.096855
vt 0.737874 0.096865
vt 0.737724 0.095998
vt 0.737634 0.095599
vt 0.733306 0.096406
vt 0.737545 0.095130
vt 0.194246 0.841574
vt 0.189878 0.841564
vt 0.198614 0.841584
vt 0.741962 0.095190
vt 0.741962 0.094711
vt 0.202962 0.841584
vt 0.746370 0.095160
vt 0.746281 0.095629
vt 0.750609 0.096456
vt 0.750429 0.096905
vt 0.207330 0.841594
vt 0.211678 0.841604
vt 0.754518 0.098570
vt 0.754249 0.098959
vt 0.757939 0.101383
vt 0.757599 0.101712
vt 0.216046 0.841604
vt 0.220414 0.841614
vt 0.760741 0.104823
vt 0.760352 0.105083
vt 0.762825 0.108733
vt 0.762386 0.108922
vt 0.224762 0.841614
vt 0.229130 0.841624
vt 0.764092 0.112991
vt 0.763623 0.113081
vt 0.764530 0.117399
vt 0.764052 0.117399
vt 0.233498 0.841634
vt 0.237846 0.841634
vt 0.764072 0.121817
vt 0.242215 0.841644
vt 0.246582 0.841654
vt 0.763633 0.117399
vt 0.763224 0.113160
vt 0.762755 0.117389
vt 0.762366 0.113310
vt 0.761130 0.117389
vt 0.760791 0.113569
vt 0.758886 0.117379
vt 0.758617 0.113878
vt 0.756133 0.117369
vt 0.755954 0.114197
vt 0.755944 0.120550
vt 0.755425 0.111156
vt 0.757799 0.110518
vt 0.759773 0.109889
vt 0.754538 0.108423
vt 0.756443 0.107436
vt 0.758078 0.106499
vt 0.761209 0.109381
vt 0.759315 0.105751
vt 0.755745 0.103557
vt 0.756742 0.102579
vt 0.754488 0.104823
vt 0.752823 0.101213
vt 0.753581 0.099987
vt 0.751885 0.102849
vt 0.753102 0.106199
vt 0.750888 0.104743
vt 0.748146 0.103836
vt 0.748804 0.101472
vt 0.749452 0.099508
vt 0.745124 0.103287
vt 0.745443 0.100635
vt 0.745782 0.098461
vt 0.749970 0.098072
vt 0.746041 0.096885
vt 0.741952 0.098092
vt 0.741962 0.096476
vt 0.741943 0.100346
vt 0.738123 0.098441
vt 0.738452 0.100615
vt 0.741943 0.103098
vt 0.738761 0.103278
vt 0.735720 0.103806
vt 0.735081 0.101433
vt 0.734453 0.099468
vt 0.732977 0.104694
vt 0.732000 0.102789
vt 0.731062 0.101163
vt 0.728131 0.103477
vt 0.729377 0.104743
vt 0.727413 0.107356
vt 0.725777 0.106399
vt 0.724072 0.109790
vt 0.726046 0.110428
vt 0.725199 0.113779
vt 0.723025 0.113459
vt 0.722666 0.117279
vt 0.724909 0.117289
vt 0.725179 0.120789
vt 0.727831 0.120470
vt 0.727662 0.117299
vt 0.730634 0.117309
vt 0.730713 0.120231
vt 0.730973 0.123023
vt 0.731402 0.125546
vt 0.733635 0.122854
vt 0.733775 0.125417
vt 0.733546 0.120121
vt 0.733635 0.127780
vt 0.731880 0.127281
vt 0.736148 0.128229
vt 0.736338 0.125576
vt 0.738941 0.128508
vt 0.739060 0.125666
vt 0.741863 0.128608
vt 0.741873 0.125716
vt 0.739100 0.122874
vt 0.741883 0.122894
vt 0.736348 0.122864
vt 0.744665 0.122894
vt 0.744685 0.125686
vt 0.744795 0.128518
vt 0.747418 0.122894
vt 0.747408 0.125606
vt 0.747577 0.128269
vt 0.750100 0.127830
vt 0.749980 0.125466
vt 0.751855 0.127341
vt 0.752344 0.125606
vt 0.750130 0.122904
vt 0.752783 0.123083
vt 0.750230 0.120171
vt 0.753072 0.120301
vt 0.753162 0.117369
vt 0.750280 0.117359
vt 0.747447 0.117349
vt 0.747437 0.120131
vt 0.744665 0.117339
vt 0.744665 0.120111
vt 0.741893 0.117339
vt 0.741893 0.120101
vt 0.739120 0.117329
vt 0.739120 0.120091
vt 0.736348 0.117329
vt 0.736348 0.120101
vt 0.733516 0.117319
vt 0.733556 0.114497
vt 0.736358 0.114537
vt 0.730733 0.114377
vt 0.727851 0.114118
vt 0.731003 0.111595
vt 0.733665 0.111764
vt 0.728410 0.111086
vt 0.729307 0.108344
vt 0.731441 0.109062
vt 0.730753 0.106140
vt 0.731940 0.107326
vt 0.733815 0.109201
vt 0.733695 0.106838
vt 0.736208 0.106409
vt 0.736378 0.109072
vt 0.739011 0.106150
vt 0.739100 0.108982
vt 0.741933 0.106060
vt 0.741923 0.108952
vt 0.744855 0.106170
vt 0.744735 0.109002
vt 0.747647 0.106439
vt 0.747457 0.109101
vt 0.750160 0.106888
vt 0.750020 0.109251
vt 0.751905 0.107386
vt 0.752394 0.109121
vt 0.752823 0.111644
vt 0.750160 0.111814
vt 0.753082 0.114437
vt 0.750250 0.114547
vt 0.747447 0.111814
vt 0.747447 0.114576
vt 0.744695 0.111794
vt 0.744675 0.114576
vt 0.741913 0.111774
vt 0.741903 0.114566
vt 0.739130 0.111774
vt 0.739130 0.114556
vt 0.736378 0.111784
vt 0.741962 0.095599
vt 0.746201 0.096027
vt 0.750270 0.097274
vt 0.754029 0.099298
vt 0.757310 0.102011
vt 0.760003 0.105322
vt 0.761997 0.109072
vt 0.250931 0.841654
vt 0.255299 0.841664
s 1
f 2/1/1 1/2/2 5/3/3 6/4/4
f 1/2/2 2/1/1 82/5/5 3/6/6
f 4/7/7 1/2/2 3/6/6 18/8/8
f 1/2/2 4/7/7 8/9/9 5/3/3
f 7/10/10 135/11/10 6/4/4 5/3/3
f 9/12/10 7/10/10 5/3/3 8/9/9
f 11/13/10 9/12/10 8/9/9 10/14/11
f 4/7/7 13/15/12 10/14/11 8/9/9
f 148/16/10 11/13/10 10/14/11 12/17/13
f 13/15/12 14/18/14 12/17/13 10/14/11
f 14/18/14 13/15/12 15/19/15 16/20/16
f 13/15/12 4/7/7 18/8/8 15/19/15
f 17/21/17 25/22/18 16/23/16 15/24/15
f 19/25/19 17/21/17 15/24/15 18/26/8
f 20/27/20 19/25/19 18/26/8 3/28/6
f 20/27/20 22/29/20 21/30/19 19/25/19
f 17/21/17 19/25/19 21/30/19 23/31/17
f 17/21/17 23/31/17 24/32/18 25/22/18
f 27/33/21 25/22/18 24/32/18 26/34/21
f 27/33/21 26/34/21 28/35/22 29/36/22
f 31/37/23 29/36/22 28/35/22 30/38/23
f 31/37/23 30/38/23 32/39/24 33/40/24
f 35/41/25 33/40/24 32/39/24 34/42/25
f 35/41/25 34/42/25 36/43/26 37/44/26
f 39/45/27 37/44/26 36/43/26 38/46/27
f 39/45/27 38/46/27 40/47/28 41/48/28
f 43/49/29 41/48/28 40/47/28 42/50/29
f 43/49/29 42/50/29 44/51/30 45/52/30
f 46/53/31 47/54/31 45/52/30 44/51/30
f 46/53/31 48/55/32 49/56/32 47/54/31
f 51/57/33 49/56/32 48/55/32 50/58/33
f 51/57/33 50/58/33 52/59/34 53/60/34
f 55/61/35 53/60/34 52/59/34 54/62/35
f 55/61/35 54/62/35 56/63/36 57/64/36
f 59/65/37 57/64/36 56/63/36 58/66/37
f 59/65/37 58/66/37 60/67/38 61/68/38
f 63/69/39 61/68/38 60/67/38 62/70/39
f 63/69/39 62/70/39 64/71/40 65/72/40
f 67/73/41 65/72/40 64/71/40 66/74/41
f 67/73/41 66/74/41 68/75/42 69/76/42
f 71/77/43 69/76/42 68/75/42 70/78/43
f 73/79/44 71/77/43 70/78/43 72/80/44
f 75/81/45 73/79/44 72/80/44 74/82/45
f 75/81/45 74/82/45 76/83/46 77/84/47
f 79/85/48 77/84/47 76/83/46 78/86/48
f 79/87/48 78/88/48 80/89/49 81/90/50
f 22/29/20 20/27/20 81/90/50 80/89/49
f 79/87/48 81/90/50 82/91/5 83/92/51
f 81/90/50 20/27/20 3/28/6 82/91/5
f 2/1/1 84/93/52 83/94/51 82/5/5
f 79/85/48 83/95/51 85/96/53 77/84/47
f 83/94/51 84/93/52 87/97/54 85/98/53
f 86/99/55 75/81/45 77/84/47 85/96/53
f 88/100/56 86/101/55 85/98/53 87/97/54
f 88/100/56 87/97/54 89/102/57 92/103/58
f 87/97/54 84/93/52 91/104/59 89/102/57
f 90/105/10 93/106/10 92/103/58 89/102/57
f 136/107/10 90/105/10 89/102/57 91/104/59
f 93/106/10 95/108/10 94/109/60 92/103/58
f 97/110/61 88/100/56 92/103/58 94/109/60
f 95/108/10 369/111/10 96/112/62 94/109/60
f 99/113/63 97/110/61 94/109/60 96/112/62
f 86/101/55 88/100/56 97/110/61 98/114/64
f 99/113/63 100/115/65 98/114/64 97/110/61
f 100/115/65 99/113/63 101/116/66 102/117/67
f 101/116/66 99/113/63 96/112/62 104/118/68
f 103/119/69 207/120/70 102/117/67 101/116/66
f 103/119/69 101/116/66 104/118/68 106/121/71
f 105/122/10 108/123/10 106/121/71 104/118/68
f 369/111/10 105/122/10 104/118/68 96/112/62
f 206/124/72 103/119/69 106/121/71 107/125/73
f 108/123/10 109/126/10 107/125/73 106/121/71
f 108/123/10 110/127/10 111/128/10 109/126/10
f 110/127/10 108/123/10 105/122/10 113/129/10
f 110/127/10 112/130/10 216/131/10 111/128/10
f 112/130/10 110/127/10 113/129/10 115/132/10
f 114/133/10 117/134/10 115/132/10 113/129/10
f 369/111/10 114/133/10 113/129/10 105/122/10
f 297/135/10 112/130/10 115/132/10 116/136/10
f 117/134/10 118/137/10 116/136/10 115/132/10
f 118/137/10 117/134/10 119/138/10 120/139/10
f 117/134/10 114/133/10 122/140/10 119/138/10
f 121/141/10 290/142/10 120/139/10 119/138/10
f 123/143/10 121/141/10 119/138/10 122/140/10
f 93/106/10 123/143/10 122/140/10 95/108/10
f 114/133/10 369/111/10 95/108/10 122/140/10
f 121/141/10 123/143/10 124/144/10 126/145/10
f 123/143/10 93/106/10 90/105/10 124/144/10
f 125/146/10 128/147/10 126/145/10 124/144/10
f 136/107/10 125/146/10 124/144/10 90/105/10
f 290/142/10 121/141/10 126/145/10 127/148/10
f 128/147/10 129/149/10 127/148/10 126/145/10
f 129/149/10 128/147/10 130/150/10 131/151/10
f 128/147/10 125/146/10 133/152/10 130/150/10
f 132/153/10 278/154/10 131/151/10 130/150/10
f 134/155/10 132/153/10 130/150/10 133/152/10
f 7/10/10 134/155/10 133/152/10 135/11/10
f 125/146/10 136/107/10 135/11/10 133/152/10
f 135/11/10 136/107/10 91/104/59 6/4/4
f 134/155/10 7/10/10 9/12/10 137/156/10
f 132/153/10 134/155/10 137/156/10 139/157/10
f 138/158/10 141/159/10 139/157/10 137/156/10
f 11/13/10 138/158/10 137/156/10 9/12/10
f 278/154/10 132/153/10 139/157/10 140/160/10
f 141/159/10 142/161/10 140/160/10 139/157/10
f 142/161/10 141/159/10 143/162/10 144/163/10
f 141/159/10 138/158/10 146/164/10 143/162/10
f 145/165/10 268/166/10 144/163/10 143/162/10
f 147/167/10 145/165/10 143/162/10 146/164/10
f 149/168/10 147/167/10 146/164/10 148/16/10
f 138/158/10 11/13/10 148/16/10 146/164/10
f 149/168/10 148/16/10 12/17/13 151/169/74
f 147/167/10 149/168/10 150/170/10 263/171/10
f 150/170/10 149/168/10 151/169/74 152/172/75
f 153/173/76 154/174/77 152/172/75 151/169/74
f 14/18/14 153/173/76 151/169/74 12/17/13
f 154/174/77 153/173/76 155/175/78 156/176/79
f 153/173/76 14/18/14 16/20/16 155/175/78
f 27/33/21 29/36/22 156/177/79 155/178/78
f 25/22/18 27/33/21 155/178/78 16/23/16
f 29/36/22 31/37/23 157/179/80 156/177/79
f 159/180/81 154/174/77 156/176/79 157/181/80
f 160/182/82 159/180/81 157/181/80 158/183/83
f 31/37/23 33/40/24 158/184/83 157/179/80
f 159/180/81 160/182/82 163/185/84 161/186/85
f 154/174/77 159/180/81 161/186/85 152/172/75
f 162/187/10 150/170/10 152/172/75 161/186/85
f 164/188/10 162/187/10 161/186/85 163/185/84
f 166/189/10 164/188/10 163/185/84 165/190/86
f 160/182/82 168/191/87 165/190/86 163/185/84
f 255/192/10 166/189/10 165/190/86 167/193/88
f 168/191/87 169/194/89 167/193/88 165/190/86
f 169/194/89 168/191/87 170/195/90 171/196/91
f 168/191/87 160/182/82 158/183/83 170/195/90
f 35/41/25 37/44/26 171/197/91 170/198/90
f 33/40/24 35/41/25 170/198/90 158/184/83
f 37/44/26 39/45/27 172/199/92 171/197/91
f 174/200/93 169/194/89 171/196/91 172/201/92
f 175/202/94 174/200/93 172/201/92 173/203/95
f 39/45/27 41/48/28 173/204/95 172/199/92
f 174/200/93 175/202/94 178/205/96 176/206/97
f 169/194/89 174/200/93 176/206/97 167/193/88
f 177/207/10 255/192/10 167/193/88 176/206/97
f 179/208/10 177/207/10 176/206/97 178/205/96
f 181/209/10 179/208/10 178/205/96 180/210/98
f 175/202/94 183/211/99 180/210/98 178/205/96
f 360/212/10 181/209/10 180/210/98 182/213/100
f 183/211/99 184/214/101 182/213/100 180/210/98
f 184/214/101 183/211/99 185/215/102 186/216/103
f 183/211/99 175/202/94 173/203/95 185/215/102
f 43/49/29 45/52/30 186/217/103 185/218/102
f 41/48/28 43/49/29 185/218/102 173/204/95
f 45/52/30 47/54/31 187/219/104 186/217/103
f 188/220/105 184/214/101 186/216/103 187/221/104
f 187/219/104 47/54/31 49/56/32 189/222/106
f 188/220/105 187/221/104 189/223/106 190/224/107
f 191/225/108 192/226/109 190/224/107 189/223/106
f 51/57/33 191/227/108 189/222/106 49/56/32
f 191/227/108 51/57/33 53/60/34 193/228/110
f 192/226/109 191/225/108 193/229/110 194/230/111
f 195/231/112 196/232/113 194/230/111 193/229/110
f 55/61/35 195/233/112 193/228/110 53/60/34
f 195/233/112 55/61/35 57/64/36 197/234/114
f 196/232/113 195/231/112 197/235/114 198/236/115
f 199/237/116 200/238/117 198/236/115 197/235/114
f 199/239/116 197/234/114 57/64/36 59/65/37
f 199/239/116 59/65/37 61/68/38 201/240/118
f 200/238/117 199/237/116 201/241/118 202/242/119
f 203/243/120 204/244/121 202/242/119 201/241/118
f 63/69/39 203/245/120 201/240/118 61/68/38
f 63/69/39 65/72/40 205/246/122 203/245/120
f 204/244/121 203/243/120 205/247/122 206/124/72
f 207/120/70 103/119/69 206/124/72 205/247/122
f 207/248/70 205/246/122 65/72/40 67/73/41
f 67/73/41 69/76/42 102/249/67 207/248/70
f 204/244/121 206/124/72 107/125/73 208/250/123
f 202/242/119 204/244/121 208/250/123 209/251/124
f 210/252/10 211/253/10 209/251/124 208/250/123
f 109/126/10 210/252/10 208/250/123 107/125/73
f 210/252/10 212/254/10 213/255/10 211/253/10
f 212/254/10 210/252/10 109/126/10 111/128/10
f 212/254/10 214/256/10 217/257/10 213/255/10
f 214/256/10 212/254/10 111/128/10 216/131/10
f 214/256/10 215/258/10 218/259/10 217/257/10
f 215/258/10 214/256/10 216/131/10 298/260/10
f 220/261/10 219/262/10 217/257/10 218/259/10
f 219/262/10 222/263/10 213/255/10 217/257/10
f 219/262/10 220/261/10 345/264/10 221/265/10
f 222/263/10 219/262/10 221/265/10 224/266/10
f 222/263/10 223/267/10 211/253/10 213/255/10
f 223/267/10 222/263/10 224/266/10 225/268/10
f 226/269/10 227/270/10 225/268/10 224/266/10
f 229/271/10 226/269/10 224/266/10 221/265/10
f 227/270/10 226/269/10 228/272/10 365/273/10
f 226/269/10 229/271/10 231/274/10 228/272/10
f 229/271/10 230/275/10 232/276/10 231/274/10
f 230/275/10 229/271/10 221/265/10 345/264/10
f 234/277/10 233/278/10 231/274/10 232/276/10
f 233/278/10 236/279/10 228/272/10 231/274/10
f 233/278/10 234/277/10 338/280/10 235/281/10
f 236/279/10 233/278/10 235/281/10 238/282/10
f 236/279/10 237/283/10 365/273/10 228/272/10
f 237/283/10 236/279/10 238/282/10 239/284/10
f 240/285/10 241/286/10 239/284/10 238/282/10
f 243/287/10 240/285/10 238/282/10 235/281/10
f 241/286/10 240/285/10 242/288/10 360/212/10
f 240/285/10 243/287/10 245/289/10 242/288/10
f 243/287/10 244/290/10 246/291/10 245/289/10
f 244/290/10 243/287/10 235/281/10 338/280/10
f 248/292/10 247/293/10 245/289/10 246/291/10
f 247/293/10 250/294/10 242/288/10 245/289/10
f 247/293/10 248/292/10 329/295/10 249/296/10
f 250/294/10 247/293/10 249/296/10 251/297/10
f 250/294/10 181/209/10 360/212/10 242/288/10
f 181/209/10 250/294/10 251/297/10 179/208/10
f 252/298/10 177/207/10 179/208/10 251/297/10
f 253/299/10 252/298/10 251/297/10 249/296/10
f 252/298/10 253/299/10 256/300/10 254/301/10
f 177/207/10 252/298/10 254/301/10 255/192/10
f 257/302/10 166/189/10 255/192/10 254/301/10
f 258/303/10 257/302/10 254/301/10 256/300/10
f 257/302/10 258/303/10 260/304/10 259/305/10
f 166/189/10 257/302/10 259/305/10 164/188/10
f 261/306/10 162/187/10 164/188/10 259/305/10
f 262/307/10 261/306/10 259/305/10 260/304/10
f 261/306/10 262/307/10 264/308/10 263/171/10
f 162/187/10 261/306/10 263/171/10 150/170/10
f 145/165/10 147/167/10 263/171/10 264/308/10
f 268/166/10 145/165/10 264/308/10 265/309/10
f 262/307/10 266/310/10 265/309/10 264/308/10
f 266/310/10 317/311/10 267/312/10 265/309/10
f 269/313/10 268/166/10 265/309/10 267/312/10
f 268/166/10 269/313/10 271/314/10 144/163/10
f 269/313/10 270/315/10 272/316/10 271/314/10
f 270/315/10 269/313/10 267/312/10 313/317/10
f 274/318/10 273/319/10 271/314/10 272/316/10
f 273/319/10 142/161/10 144/163/10 271/314/10
f 142/161/10 273/319/10 274/318/10 140/160/10
f 275/320/10 278/154/10 140/160/10 274/318/10
f 275/320/10 274/318/10 272/316/10 276/321/10
f 277/322/10 275/320/10 276/321/10 280/323/10
f 278/154/10 275/320/10 277/322/10 131/151/10
f 279/324/10 129/149/10 131/151/10 277/322/10
f 279/324/10 277/322/10 280/323/10 282/325/10
f 281/326/10 283/327/10 282/325/10 280/323/10
f 314/328/10 281/326/10 280/323/10 276/321/10
f 283/327/10 285/329/10 284/330/10 282/325/10
f 287/331/10 279/324/10 282/325/10 284/330/10
f 285/329/10 305/332/10 286/333/10 284/330/10
f 288/334/10 287/331/10 284/330/10 286/333/10
f 288/334/10 290/142/10 127/148/10 287/331/10
f 129/149/10 279/324/10 287/331/10 127/148/10
f 289/335/10 288/334/10 286/333/10 292/336/10
f 290/142/10 288/334/10 289/335/10 120/139/10
f 291/337/10 118/137/10 120/139/10 289/335/10
f 291/337/10 289/335/10 292/336/10 294/338/10
f 293/339/10 295/340/10 294/338/10 292/336/10
f 305/332/10 293/339/10 292/336/10 286/333/10
f 295/340/10 297/135/10 116/136/10 294/338/10
f 118/137/10 291/337/10 294/338/10 116/136/10
f 295/340/10 293/339/10 300/341/10 296/342/10
f 297/135/10 295/340/10 296/342/10 298/260/10
f 112/130/10 297/135/10 298/260/10 216/131/10
f 299/343/10 215/258/10 298/260/10 296/342/10
f 301/344/10 299/343/10 296/342/10 300/341/10
f 303/345/10 301/344/10 300/341/10 302/346/10
f 293/339/10 305/332/10 302/346/10 300/341/10
f 306/347/10 303/345/10 302/346/10 304/348/10
f 305/332/10 285/329/10 304/348/10 302/346/10
f 308/349/10 306/347/10 304/348/10 307/350/10
f 285/329/10 283/327/10 307/350/10 304/348/10
f 310/351/10 308/349/10 307/350/10 309/352/10
f 283/327/10 281/326/10 309/352/10 307/350/10
f 312/353/10 310/351/10 309/352/10 311/354/10
f 281/326/10 314/328/10 311/354/10 309/352/10
f 315/355/10 312/353/10 311/354/10 313/317/10
f 314/328/10 270/315/10 313/317/10 311/354/10
f 270/315/10 314/328/10 276/321/10 272/316/10
f 317/311/10 315/355/10 313/317/10 267/312/10
f 312/353/10 315/355/10 316/356/10 357/357/10
f 315/355/10 317/311/10 318/358/10 316/356/10
f 317/311/10 266/310/10 320/359/10 318/358/10
f 319/360/10 359/361/10 316/356/10 318/358/10
f 321/362/10 319/360/10 318/358/10 320/359/10
f 258/303/10 321/362/10 320/359/10 260/304/10
f 266/310/10 262/307/10 260/304/10 320/359/10
f 319/360/10 321/362/10 322/363/10 324/364/10
f 321/362/10 258/303/10 256/300/10 322/363/10
f 323/365/10 326/366/10 324/364/10 322/363/10
f 253/299/10 323/365/10 322/363/10 256/300/10
f 359/361/10 319/360/10 324/364/10 325/367/10
f 326/366/10 327/368/10 325/367/10 324/364/10
f 326/366/10 323/365/10 329/295/10 327/368/10
f 327/368/10 328/369/10 330/370/10 325/367/10
f 248/292/10 328/369/10 327/368/10 329/295/10
f 323/365/10 253/299/10 249/296/10 329/295/10
f 328/369/10 331/371/10 332/372/10 330/370/10
f 328/369/10 248/292/10 246/291/10 331/371/10
f 331/371/10 333/373/10 334/374/10 332/372/10
f 244/290/10 333/373/10 331/371/10 246/291/10
f 333/373/10 335/375/10 336/376/10 334/374/10
f 333/373/10 244/290/10 338/280/10 335/375/10
f 335/375/10 337/377/10 339/378/10 336/376/10
f 234/277/10 337/377/10 335/375/10 338/280/10
f 337/377/10 340/379/10 341/380/10 339/378/10
f 337/377/10 234/277/10 232/276/10 340/379/10
f 340/379/10 342/381/10 343/382/10 341/380/10
f 230/275/10 342/381/10 340/379/10 232/276/10
f 342/381/10 230/275/10 345/264/10 343/382/10
f 344/383/10 346/384/10 341/380/10 343/382/10
f 220/261/10 344/383/10 343/382/10 345/264/10
f 346/384/10 344/383/10 347/385/10 348/386/10
f 344/383/10 220/261/10 218/259/10 347/385/10
f 299/343/10 301/344/10 348/386/10 347/385/10
f 215/258/10 299/343/10 347/385/10 218/259/10
f 350/387/10 346/384/10 348/386/10 349/388/10
f 301/344/10 303/345/10 349/388/10 348/386/10
f 352/389/10 350/387/10 349/388/10 351/390/10
f 303/345/10 306/347/10 351/390/10 349/388/10
f 354/391/10 352/389/10 351/390/10 353/392/10
f 306/347/10 308/349/10 353/392/10 351/390/10
f 356/393/10 354/391/10 353/392/10 355/394/10
f 308/349/10 310/351/10 355/394/10 353/392/10
f 358/395/10 356/393/10 355/394/10 357/357/10
f 310/351/10 312/353/10 357/357/10 355/394/10
f 359/361/10 358/395/10 357/357/10 316/356/10
f 358/395/10 359/361/10 325/367/10 330/370/10
f 356/393/10 358/395/10 330/370/10 332/372/10
f 354/391/10 356/393/10 332/372/10 334/374/10
f 352/389/10 354/391/10 334/374/10 336/376/10
f 350/387/10 352/389/10 336/376/10 339/378/10
f 346/384/10 350/387/10 339/378/10 341/380/10
f 241/286/10 360/212/10 182/213/100 361/396/125
f 239/284/10 241/286/10 361/396/125 362/397/126
f 184/214/101 188/220/105 361/396/125 182/213/100
f 188/220/105 190/224/107 362/397/126 361/396/125
f 237/283/10 239/284/10 362/397/126 363/398/127
f 190/224/107 192/226/109 363/398/127 362/397/126
f 365/273/10 237/283/10 363/398/127 364/399/128
f 192/226/109 194/230/111 364/399/128 363/398/127
f 227/270/10 365/273/10 364/399/128 366/400/129
f 194/230/111 196/232/113 366/400/129 364/399/128
f 225/268/10 227/270/10 366/400/129 367/401/130
f 196/232/113 198/236/115 367/401/130 366/400/129
f 223/267/10 225/268/10 367/401/130 368/402/131
f 198/236/115 200/238/117 368/402/131 367/401/130
f 211/253/10 223/267/10 368/402/131 209/251/124
f 200/238/117 202/242/119 209/251/124 368/402/131
f 71/77/43 100/403/65 102/249/67 69/76/42
f 100/403/65 71/77/43 73/79/44 98/404/64
f 75/81/45 86/99/55 98/404/64 73/79/44
f 84/93/52 2/1/1 6/4/4 91/104/59
