# B2.obj
# Valve Steam Controller (2026) CAD, CC BY-NC-SA 4.0
v 53.7118 -26.1247 -18.8973
v 53.6119 -26.1415 -19.4784
v 53.5825 -26.1421 -20.1277
v 53.6391 -26.1626 -20.7250
v 53.7369 -26.1248 -21.2024
v 53.7215 -26.6923 -18.9020
v 53.6179 -26.6683 -19.5016
v 53.5913 -26.7352 -20.0737
v 53.6480 -26.7075 -20.7135
v 53.7432 -26.6723 -21.1954
v 53.7623 -27.1238 -18.8940
v 53.6941 -27.2452 -19.5231
v 53.6735 -27.2733 -20.0731
v 53.7063 -27.2179 -20.6908
v 53.7840 -27.1855 -21.1485
v 54.2420 -26.0645 -17.6069
v 53.9278 -26.0902 -18.2349
v 53.8080 -26.1775 -18.5560
v 53.8290 -26.1465 -21.5080
v 54.0052 -26.1376 -21.9426
v 54.2760 -26.1136 -22.4541
v 54.2279 -26.7057 -17.6541
v 53.9631 -26.7162 -18.1816
v 53.8045 -26.5525 -18.5865
v 53.8208 -26.7390 -21.4508
v 53.9966 -26.6676 -21.9003
v 54.2744 -26.6879 -22.4310
v 54.3175 -27.2603 -17.7500
v 54.0828 -27.3202 -18.2925
v 53.9220 -27.4249 -18.8466
v 53.8698 -27.5360 -19.4310
v 53.8607 -27.5882 -20.0840
v 53.8906 -27.5287 -20.8026
v 53.9560 -27.3728 -21.3937
v 54.1644 -27.3033 -21.9596
v 54.3228 -27.1039 -22.4327
v 54.2380 -27.7092 -18.8143
v 54.1897 -27.7850 -19.5248
v 54.1558 -27.7961 -20.0605
v 54.1966 -27.7872 -20.6703
v 54.2743 -27.7417 -21.2897
v 54.3210 -27.6775 -21.6520
v 54.9980 -25.7623 -16.6374
v 54.6859 -26.0068 -16.9864
v 54.4844 -26.0549 -22.7673
v 54.8214 -26.0218 -23.1704
v 55.0082 -26.6808 -16.6494
v 54.7215 -26.6840 -16.9696
v 54.4252 -26.8078 -17.3480
v 54.4860 -26.7901 -22.7382
v 54.7920 -26.7048 -23.1173
v 54.8110 -27.2498 -17.1180
v 54.6078 -27.4207 -17.5618
v 54.4110 -27.6065 -18.1180
v 54.6571 -27.4200 -22.5925
v 54.9115 -27.2373 -23.0663
v 54.8485 -27.6940 -17.8055
v 54.7583 -27.7688 -18.2407
v 54.6611 -27.8542 -18.9106
v 54.6692 -27.9032 -19.5439
v 54.6250 -27.9144 -20.0909
v 54.6458 -27.9051 -20.7326
v 54.6808 -27.8634 -21.3584
v 54.7445 -27.7728 -21.9403
v 54.9120 -27.7075 -22.4170
v 55.4150 -25.6813 -16.2826
v 55.4954 -25.7564 -23.7801
v 55.3095 -26.0298 -16.3760
v 55.3283 -26.0324 -23.6424
v 55.3242 -26.6763 -16.3908
v 55.1113 -26.6948 -23.4435
v 55.4396 -26.6835 -23.7088
v 55.4233 -27.1940 -16.5388
v 55.3052 -27.4677 -16.9734
v 55.0390 -27.6055 -17.3820
v 55.2979 -27.4186 -23.2069
v 55.4610 -27.1335 -23.6027
v 55.4406 -27.6517 -17.2750
v 55.3442 -27.7186 -17.6102
v 55.3005 -27.8141 -18.1937
v 55.3237 -27.8912 -18.8398
v 55.3616 -27.9418 -19.5512
v 55.3300 -27.9564 -20.1012
v 55.3740 -27.9508 -20.6567
v 55.3107 -27.9175 -21.2607
v 55.2906 -27.8539 -21.9154
v 55.3257 -27.7547 -22.5306
v 55.9893 -25.6173 -15.9059
v 55.8430 -25.6871 -24.0124
v 56.1307 -25.6740 -24.1710
v 56.0248 -26.0275 -15.8936
v 55.7090 -26.1775 -16.0810
v 55.8466 -26.0625 -24.0056
v 56.1715 -26.0675 -24.1850
v 56.0367 -26.6352 -15.9251
v 55.7323 -26.7249 -16.1187
v 55.8599 -26.7020 -23.9850
v 56.1643 -26.6677 -24.1556
v 55.9826 -27.3048 -16.3594
v 55.9581 -27.5594 -16.8598
v 55.9374 -27.5832 -23.3426
v 55.9761 -27.2840 -23.7646
v 55.8985 -27.6555 -17.2363
v 55.9563 -27.7360 -17.6520
v 55.9850 -27.8285 -18.2438
v 55.9457 -27.8974 -18.8347
v 55.9900 -27.9408 -19.4153
v 55.9846 -27.9621 -20.0526
v 55.9409 -27.9548 -20.7027
v 55.9511 -27.9185 -21.3471
v 55.9972 -27.8599 -21.9304
v 55.9223 -27.7663 -22.5884
v 55.9228 -27.6805 -23.0379
v 56.6138 -25.5395 -15.6164
v 56.5636 -25.6365 -24.3642
v 56.6089 -26.1239 -15.6292
v 56.6205 -26.0675 -24.3752
v 56.5519 -26.6052 -15.6977
v 56.5592 -26.6567 -24.3175
v 56.6114 -27.1261 -15.9500
v 56.5701 -27.3953 -16.3803
v 56.5339 -27.5731 -16.9657
v 56.5671 -27.5918 -23.3635
v 56.5418 -27.3868 -23.8219
v 56.7560 -27.1175 -24.2020
v 56.5453 -27.7085 -17.6284
v 56.5618 -27.8087 -18.2630
v 56.5849 -27.8787 -18.8876
v 56.6155 -27.9194 -19.4898
v 56.5876 -27.9383 -20.0873
v 56.5747 -27.9309 -20.7200
v 56.5979 -27.8951 -21.3261
v 56.5181 -27.8386 -21.9454
v 56.6155 -27.7493 -22.5278
v 56.4567 -27.6701 -23.0237
v 57.2977 -25.3943 -15.4147
v 56.9962 -25.4560 -15.4884
v 57.1940 -25.5281 -24.5571
v 57.2976 -26.1331 -15.4272
v 57.0266 -26.2365 -15.4940
v 57.2098 -26.0725 -24.5538
v 57.3710 -26.5055 -15.4410
v 57.1667 -26.7789 -15.5948
v 57.1858 -26.6283 -24.4969
v 57.2156 -27.1334 -15.8796
v 57.2007 -27.3447 -16.3191
v 57.1398 -27.5322 -17.0148
v 57.3717 -27.6148 -17.5377
v 57.3510 -27.6305 -22.8100
v 57.2205 -27.5640 -23.2155
v 57.1721 -27.4136 -23.7974
v 57.1310 -27.1153 -24.2620
v 57.0818 -27.6680 -17.6458
v 57.2193 -27.7430 -18.2070
v 57.2211 -27.8196 -18.8542
v 57.1964 -27.8685 -19.4833
v 57.2128 -27.8847 -20.1062
v 57.1990 -27.8780 -20.6984
v 57.2085 -27.8431 -21.3057
v 57.1647 -27.7889 -21.9076
v 57.1657 -27.7035 -22.5105
v 57.0270 -27.6415 -22.9480
v 57.8393 -25.0700 -15.3304
v 57.8254 -25.4519 -15.3390
v 57.8341 -25.4450 -24.6627
v 57.8127 -26.1839 -15.3564
v 57.8063 -26.1934 -24.6460
v 57.8010 -26.5455 -15.4190
v 57.8454 -26.8627 -15.6068
v 57.8039 -26.7788 -24.5170
v 57.7942 -27.1109 -15.9050
v 57.8224 -27.2525 -16.2985
v 57.8323 -27.4328 -17.0107
v 57.8618 -27.5525 -17.6047
v 57.9570 -27.6145 -18.0510
v 58.1140 -27.6065 -22.2200
v 57.9162 -27.5827 -22.5900
v 57.8308 -27.4901 -23.1446
v 57.8267 -27.3121 -23.8809
v 57.7190 -27.1393 -24.2444
v 57.5680 -27.6535 -17.8990
v 57.8044 -27.6764 -18.3081
v 57.8261 -27.7380 -18.8789
v 57.8175 -27.7841 -19.5001
v 57.8601 -27.7938 -20.0599
v 57.8420 -27.7896 -20.6747
v 57.7964 -27.7620 -21.3106
v 57.7838 -27.7009 -21.9346
v 57.5990 -27.6705 -22.3705
v 58.4573 -24.9263 -15.3146
v 58.4723 -25.0942 -24.6839
v 58.4311 -25.3813 -15.3213
v 58.4090 -25.4504 -24.6773
v 58.4494 -26.0720 -15.3380
v 58.4547 -26.1648 -24.6616
v 58.4735 -26.4385 -15.3995
v 58.4659 -26.8182 -15.6894
v 58.4066 -26.7297 -24.4945
v 58.3643 -27.0610 -16.0155
v 58.4462 -27.1637 -16.4226
v 58.4170 -27.3260 -17.0427
v 58.4787 -27.4423 -17.6675
v 58.3934 -27.5572 -18.2635
v 58.5604 -27.5933 -18.8694
v 58.6550 -27.6209 -19.5414
v 58.7000 -27.6261 -20.1608
v 58.6685 -27.6223 -20.7605
v 58.5686 -27.6087 -21.3494
v 58.4495 -27.5717 -21.9424
v 58.4722 -27.4755 -22.5642
v 58.4513 -27.3537 -23.2140
v 58.4532 -27.1767 -23.9205
v 58.3545 -27.0490 -24.2480
v 58.1510 -27.6435 -18.5230
v 58.2767 -27.6617 -18.9335
v 58.3205 -27.6946 -19.5597
v 58.3597 -27.7013 -20.0737
v 58.3596 -27.6936 -20.6602
v 58.2918 -27.6717 -21.3142
v 58.1440 -27.6635 -21.7260
v 59.0236 -24.8183 -15.3727
v 59.1160 -24.9468 -24.6081
v 59.0445 -25.4626 -15.3880
v 59.0594 -25.4368 -24.6098
v 59.0022 -26.0875 -15.4046
v 59.3320 -26.1465 -15.4830
v 59.0993 -26.1477 -24.5793
v 59.0429 -26.7078 -15.7726
v 59.1170 -26.9180 -16.1654
v 59.1147 -26.9930 -23.9644
v 59.0151 -26.6893 -24.3881
v 58.9763 -27.0612 -16.5317
v 59.0505 -27.1613 -17.0173
v 58.9954 -27.3021 -17.6110
v 59.0471 -27.3903 -18.2178
v 59.0272 -27.4738 -18.8545
v 59.0207 -27.5249 -19.4853
v 58.9980 -27.5493 -20.0652
v 59.0058 -27.5393 -20.6776
v 59.0043 -27.5020 -21.3071
v 59.0161 -27.4324 -21.9479
v 59.0747 -27.3289 -22.5290
v 58.9777 -27.2380 -23.1465
v 58.9738 -27.0919 -23.7723
v 59.7832 -24.5049 -15.5578
v 59.3550 -24.9265 -15.4390
v 59.6749 -24.7356 -15.5285
v 59.6794 -24.8445 -24.4680
v 59.4020 -25.1765 -15.4550
v 59.7132 -25.4326 -15.5534
v 59.6557 -25.4418 -24.4651
v 59.6354 -26.0478 -15.5725
v 59.6706 -26.0695 -24.4357
v 59.5771 -26.5835 -15.8492
v 59.6779 -26.7794 -16.3001
v 59.6912 -26.9503 -16.9576
v 59.9150 -27.0005 -17.5250
v 59.8330 -26.9622 -23.2033
v 59.6349 -26.8618 -23.8257
v 59.5664 -26.5922 -24.2593
v 59.4830 -27.0965 -17.2900
v 59.6458 -27.1158 -17.6592
v 59.6861 -27.2015 -18.2489
v 59.6437 -27.2917 -18.8590
v 59.6443 -27.3393 -19.4588
v 59.6420 -27.3613 -20.1024
v 59.6373 -27.3520 -20.7149
v 59.6925 -27.2950 -21.3295
v 59.5599 -27.2764 -21.9151
v 59.6906 -27.1394 -22.5407
v 59.4730 -27.1065 -23.0867
v 60.2804 -24.3917 -15.7629
v 60.5680 -24.4975 -24.0890
v 60.4370 -24.5385 -24.1600
v 60.2810 -24.8217 -15.7707
v 60.2321 -24.7935 -24.2531
v 60.3041 -25.5305 -15.7967
v 60.5550 -25.4415 -24.0780
v 60.2261 -25.4470 -24.2425
v 60.1903 -26.0716 -15.8297
v 60.4580 -26.2735 -16.0890
v 60.4337 -26.1373 -24.0590
v 60.1776 -26.0438 -24.2260
v 60.0120 -26.5125 -16.0200
v 60.2858 -26.5685 -16.3927
v 60.3126 -26.7401 -17.0272
v 60.2424 -26.8895 -17.5868
v 60.3872 -26.9409 -18.2068
v 60.4727 -26.9888 -18.8323
v 60.5890 -26.9915 -20.9880
v 60.4970 -27.0165 -21.1710
v 60.4333 -26.9585 -21.9487
v 60.2924 -26.9249 -22.5286
v 60.3476 -26.7544 -23.2720
v 60.2221 -26.6288 -23.7582
v 60.1815 -27.0520 -18.4110
v 60.1708 -27.1135 -18.9102
v 60.2390 -27.1323 -19.4920
v 60.2800 -27.1349 -20.0764
v 60.2347 -27.1445 -20.6773
v 60.2378 -27.1063 -21.2976
v 60.1176 -27.0877 -21.8914
v 60.7070 -24.2964 -15.9896
v 61.0359 -24.2591 -16.2113
v 60.9478 -24.4134 -23.8459
v 60.7137 -24.7598 -16.0040
v 61.0750 -24.8015 -16.2523
v 60.8187 -24.8099 -23.9245
v 60.6811 -25.5309 -15.9991
v 61.0163 -25.4677 -16.2244
v 60.9199 -25.5198 -23.8411
v 60.6810 -25.8995 -16.0370
v 60.8795 -26.1011 -16.3214
v 61.0986 -26.3234 -16.8192
v 61.1085 -26.3455 -23.3235
v 60.8552 -26.0441 -23.7856
v 60.7050 -26.4642 -16.6120
v 60.8968 -26.4898 -17.0118
v 60.8384 -26.6593 -17.6704
v 60.9287 -26.7175 -18.2428
v 60.9033 -26.8093 -18.8670
v 60.8937 -26.8606 -19.4471
v 60.9038 -26.8791 -20.0467
v 60.9222 -26.8610 -20.6834
v 60.8684 -26.8404 -21.3693
v 60.8574 -26.7783 -21.9648
v 60.9408 -26.6331 -22.6387
v 60.8718 -26.5583 -23.1366
v 60.7365 -26.4505 -23.5865
v 61.5002 -23.9183 -16.5904
v 61.7359 -23.8959 -16.8329
v 61.4016 -24.2341 -16.5093
v 61.7107 -24.3428 -16.8170
v 61.6468 -24.2687 -23.2487
v 61.3144 -24.3641 -23.5672
v 61.4545 -24.8015 -16.5710
v 61.7175 -24.8015 -16.8345
v 61.5845 -24.8165 -23.2990
v 61.2260 -24.8165 -23.6305
v 61.4170 -25.4735 -16.5570
v 61.7242 -25.5075 -16.8803
v 61.6171 -25.4853 -23.2443
v 61.2875 -25.4890 -23.5635
v 61.3237 -25.9495 -16.6083
v 61.4942 -26.1276 -17.0486
v 61.5991 -26.2790 -17.5988
v 61.7284 -26.3338 -18.2790
v 61.8060 -26.3625 -18.8020
v 61.7528 -26.3319 -22.0624
v 61.6165 -26.2703 -22.6420
v 61.4656 -26.0800 -23.1635
v 61.2920 -25.8585 -23.5200
v 61.2210 -26.4985 -17.7340
v 61.4333 -26.4732 -18.1967
v 61.4596 -26.5465 -18.8664
v 61.4928 -26.5837 -19.5634
v 61.5382 -26.5770 -20.1007
v 61.5254 -26.5763 -20.6398
v 61.4922 -26.5565 -21.2606
v 61.4028 -26.5423 -21.8260
v 61.3417 -26.4662 -22.5264
v 62.0190 -23.8365 -17.1754
v 62.3073 -23.7362 -17.6054
v 62.4300 -23.7785 -22.1770
v 62.2917 -23.8433 -22.4186
v 61.9885 -24.3010 -17.1483
v 62.2986 -24.2759 -17.6110
v 62.2149 -24.1751 -22.5262
v 61.9338 -24.2256 -22.9261
v 61.9555 -24.8015 -17.1193
v 62.3000 -24.8015 -17.6337
v 62.4405 -24.8165 -22.1165
v 62.1945 -24.8165 -22.5383
v 61.9125 -24.8165 -22.9370
v 61.9569 -25.4125 -17.1543
v 62.2576 -25.4181 -17.6116
v 62.4030 -25.7665 -18.1120
v 62.3828 -25.4535 -22.1695
v 62.1516 -25.4469 -22.5691
v 61.8889 -25.4079 -22.9498
v 61.9020 -25.8975 -17.2960
v 62.0328 -25.9702 -17.6635
v 62.1339 -26.0820 -18.2412
v 62.1829 -26.1548 -18.8630
v 62.2327 -26.1785 -19.4722
v 62.1845 -26.2278 -20.1610
v 62.2083 -26.2020 -20.7503
v 62.2024 -26.1549 -21.3406
v 62.1367 -26.0860 -21.9363
v 61.9788 -25.9901 -22.5080
v 62.4740 -23.9255 -17.9150
v 62.6084 -23.7025 -18.2118
v 62.8139 -23.7167 -18.8344
v 62.9344 -23.7175 -19.5077
v 62.9632 -23.5646 -20.1100
v 62.9086 -23.6207 -20.7067
v 62.7624 -23.6570 -21.3542
v 62.5755 -23.7058 -21.8700
v 62.4570 -24.4265 -17.9000
v 62.6216 -24.2759 -18.2722
v 62.8042 -24.3261 -18.8386
v 62.9246 -24.2908 -19.5147
v 62.9527 -24.1988 -20.1091
v 62.8963 -24.1908 -20.7190
v 62.7530 -24.2266 -21.3550
v 62.5472 -24.1466 -21.9109
v 62.6228 -24.8015 -18.3020
v 62.8108 -24.8015 -18.8920
v 62.9148 -24.8049 -19.5084
v 62.9422 -24.8061 -20.1186
v 62.8842 -24.8165 -20.7262
v 62.7533 -24.8165 -21.3220
v 62.5915 -24.8165 -21.7825
v 62.4490 -25.3125 -17.9190
v 62.5842 -25.3883 -18.2872
v 62.7504 -25.4139 -18.8441
v 62.8714 -25.3882 -19.4848
v 62.8946 -25.4194 -20.0785
v 62.8383 -25.4120 -20.7503
v 62.7041 -25.4365 -21.3421
v 62.5421 -25.4084 -21.8386
v 62.5217 -25.9119 -18.8932
v 62.6077 -25.9203 -19.5604
v 62.5883 -25.9590 -20.0557
v 62.5962 -25.9298 -20.6902
v 62.5270 -25.9095 -21.2670
v 62.4990 -25.7995 -21.6520
g B2
f 193 191 222
f 193 222 224
f 18 17 1
f 68 66 43
f 44 68 43
f 246 247 221
f 192 190 163
f 164 192 163
f 164 163 136
f 93 67 89
f 69 67 93
f 90 93 89
f 276 274 273
f 308 273 305
f 276 273 308
f 368 365 364
f 406 364 398
f 368 364 406
f 397 406 398
f 332 331 330
f 247 272 245
f 247 275 272
f 7 2 3
f 7 3 8
f 9 3 4
f 9 8 3
f 10 4 5
f 10 9 4
f 25 5 19
f 25 10 5
f 26 19 20
f 26 25 19
f 27 20 21
f 27 26 20
f 50 21 45
f 50 27 21
f 51 45 46
f 51 50 45
f 71 46 69
f 71 51 46
f 72 71 69
f 72 69 93
f 97 72 93
f 97 93 94
f 98 94 117
f 98 97 94
f 119 98 117
f 144 117 141
f 144 119 117
f 144 141 167
f 251 279 253
f 224 253 227
f 224 251 253
f 224 227 195
f 193 224 195
f 193 195 167
f 165 193 167
f 138 167 141
f 138 165 167
f 138 141 117
f 115 138 117
f 90 117 94
f 90 115 117
f 90 94 93
f 279 283 253
f 279 316 283
f 282 283 316
f 279 311 316
f 278 311 279
f 379 342 380
f 411 418 419
f 411 410 418
f 412 419 420
f 412 411 419
f 413 420 421
f 413 412 420
f 372 421 378
f 372 413 421
f 373 378 379
f 373 372 378
f 374 379 380
f 374 373 379
f 338 380 342
f 338 374 380
f 339 342 343
f 339 338 342
f 308 343 311
f 308 339 343
f 276 311 279
f 276 308 311
f 248 279 251
f 248 276 279
f 222 251 224
f 222 248 251
f 409 418 410
f 417 418 409
f 404 410 411
f 404 403 410
f 405 411 412
f 405 404 411
f 405 412 413
f 406 405 413
f 406 413 372
f 368 372 373
f 368 406 372
f 369 373 374
f 369 368 373
f 334 374 338
f 334 369 374
f 335 338 339
f 335 334 338
f 305 339 308
f 305 335 339
f 402 410 403
f 409 410 402
f 402 403 394
f 396 403 404
f 396 395 403
f 397 404 405
f 397 396 404
f 397 405 406
f 394 403 395
f 13 12 8
f 13 8 9
f 13 9 14
f 14 9 10
f 15 10 25
f 14 10 15
f 15 25 34
f 35 25 26
f 34 25 35
f 35 26 27
f 35 27 36
f 36 27 50
f 391 392 363
f 402 394 393
f 401 402 393
f 400 393 392
f 400 401 393
f 400 392 391
f 367 391 363
f 367 400 391
f 367 363 362
f 366 367 362
f 366 362 331
f 333 366 331
f 332 333 331
f 399 400 367
f 409 402 401
f 408 409 401
f 407 401 400
f 407 408 401
f 407 400 399
f 371 399 367
f 371 407 399
f 371 367 366
f 370 371 366
f 370 366 333
f 337 370 333
f 336 333 332
f 336 337 333
f 307 332 304
f 307 336 332
f 306 304 303
f 306 307 304
f 306 303 272
f 275 306 272
f 416 409 408
f 416 417 409
f 415 408 407
f 415 416 408
f 376 407 371
f 376 415 407
f 375 371 370
f 375 376 371
f 341 370 337
f 341 375 370
f 340 337 336
f 340 341 337
f 310 336 307
f 310 340 336
f 309 307 306
f 309 310 307
f 277 306 275
f 277 309 306
f 250 275 247
f 250 277 275
f 249 247 246
f 249 250 247
f 223 246 221
f 223 249 246
f 192 221 190
f 192 223 221
f 414 415 376
f 223 250 249
f 280 277 250
f 252 280 250
f 252 250 223
f 225 252 223
f 194 223 192
f 194 225 223
f 194 192 164
f 166 194 164
f 139 164 136
f 139 166 164
f 139 136 137
f 140 137 114
f 140 139 137
f 116 140 114
f 91 114 88
f 91 116 114
f 68 88 66
f 68 91 88
f 226 252 225
f 92 91 68
f 118 116 91
f 118 91 95
f 95 91 92
f 96 92 68
f 95 92 96
f 96 68 70
f 70 68 44
f 70 44 48
f 48 44 16
f 48 16 22
f 22 16 17
f 22 17 23
f 23 17 18
f 24 18 1
f 23 18 24
f 24 1 6
f 6 1 2
f 6 2 7
f 6 23 24
f 22 48 49
f 70 48 47
f 29 23 6
f 11 29 6
f 12 6 7
f 12 11 6
f 12 7 8
f 70 95 96
f 118 140 116
f 85 62 63
f 64 86 63
f 85 63 86
f 112 86 87
f 112 113 135
f 113 123 135
f 150 123 151
f 124 151 123
f 150 135 123
f 150 151 179
f 178 150 179
f 178 179 212
f 211 178 212
f 211 212 244
f 243 211 244
f 243 244 259
f 230 259 244
f 271 259 258
f 271 243 259
f 295 294 258
f 259 295 258
f 293 328 327
f 293 294 328
f 326 361 360
f 326 327 361
f 361 349 360
f 349 359 360
f 349 388 359
f 359 388 387
f 358 359 387
f 358 387 386
f 357 358 386
f 423 385 386
f 424 423 386
f 389 388 349
f 350 349 361
f 230 244 212
f 101 123 113
f 124 123 101
f 113 112 87
f 87 86 64
f 40 62 61
f 40 61 39
f 83 61 62
f 84 83 62
f 84 62 85
f 111 86 112
f 134 112 135
f 134 135 150
f 162 134 150
f 270 258 294
f 270 271 258
f 293 270 294
f 326 293 327
f 325 360 359
f 325 326 360
f 385 357 386
f 82 61 83
f 60 61 82
f 110 85 86
f 110 86 111
f 133 112 134
f 133 111 112
f 161 134 162
f 161 162 150
f 149 150 178
f 149 161 150
f 242 243 271
f 270 242 271
f 292 293 326
f 324 359 358
f 324 325 359
f 385 356 357
f 109 84 85
f 110 109 85
f 161 149 178
f 177 161 178
f 177 178 211
f 210 177 211
f 210 211 243
f 242 210 243
f 302 293 292
f 302 270 293
f 302 292 326
f 292 326 325
f 324 358 357
f 323 324 357
f 108 83 84
f 109 108 84
f 132 111 133
f 132 110 111
f 160 134 161
f 160 133 134
f 189 161 177
f 269 242 270
f 269 270 302
f 301 292 325
f 301 302 292
f 291 301 325
f 290 325 324
f 290 291 325
f 356 323 357
f 82 83 108
f 131 109 110
f 132 131 110
f 160 132 133
f 160 161 189
f 188 160 189
f 188 189 177
f 176 177 210
f 176 188 177
f 209 176 210
f 209 210 242
f 241 209 242
f 241 242 269
f 268 269 302
f 268 302 301
f 301 291 290
f 300 290 324
f 300 301 290
f 299 324 323
f 299 300 324
f 356 322 323
f 130 108 109
f 131 130 109
f 159 132 160
f 209 188 176
f 300 268 301
f 159 131 132
f 159 160 188
f 187 159 188
f 220 188 209
f 240 209 241
f 240 241 269
f 240 269 268
f 267 268 300
f 158 130 131
f 158 131 159
f 187 188 220
f 219 220 209
f 219 187 220
f 208 219 209
f 208 209 240
f 267 240 268
f 266 300 299
f 266 267 300
f 157 130 158
f 186 158 159
f 187 186 159
f 239 240 267
f 186 187 219
f 218 186 219
f 218 219 208
f 207 208 240
f 207 218 208
f 239 207 240
f 238 267 266
f 238 239 267
f 185 157 158
f 186 185 158
f 218 207 239
f 217 207 239
f 217 218 207
f 206 217 239
f 206 239 238
f 217 185 186
f 217 186 218
f 217 206 238
f 425 386 387
f 424 386 425
f 425 387 388
f 389 349 390
f 390 349 350
f 350 361 327
f 351 327 328
f 350 327 351
f 328 294 295
f 184 185 217
f 184 217 216
f 205 216 217
f 206 205 217
f 237 216 205
f 237 205 206
f 237 206 238
f 156 185 184
f 156 157 185
f 183 184 216
f 215 183 216
f 204 215 216
f 204 216 205
f 236 204 205
f 237 236 205
f 155 156 184
f 183 155 184
f 265 237 238
f 266 265 238
f 129 157 156
f 129 130 157
f 182 183 215
f 214 182 215
f 203 215 204
f 203 214 215
f 264 236 237
f 265 264 237
f 128 156 155
f 128 129 156
f 154 155 183
f 182 154 183
f 203 182 214
f 203 204 236
f 235 203 236
f 298 265 266
f 299 298 266
f 175 182 203
f 263 235 236
f 263 236 264
f 297 264 265
f 298 297 265
f 108 130 129
f 107 108 129
f 128 107 129
f 127 128 155
f 127 155 154
f 181 154 182
f 174 182 175
f 174 181 182
f 174 175 203
f 202 174 203
f 202 203 235
f 234 202 235
f 297 263 264
f 106 107 128
f 127 106 128
f 153 154 181
f 148 181 174
f 148 153 181
f 262 235 263
f 262 234 235
f 296 263 297
f 289 296 297
f 289 297 298
f 322 289 298
f 322 298 299
f 323 322 299
f 82 108 107
f 105 106 127
f 126 127 154
f 126 154 153
f 173 174 202
f 201 173 202
f 234 201 202
f 288 263 296
f 288 262 263
f 288 296 289
f 321 288 289
f 321 289 322
f 82 107 106
f 81 82 106
f 126 105 127
f 147 153 148
f 147 148 174
f 173 147 174
f 233 201 234
f 233 234 262
f 261 233 262
f 287 262 288
f 287 257 262
f 320 288 321
f 80 106 105
f 80 81 106
f 104 105 126
f 122 153 147
f 122 126 153
f 256 261 262
f 256 233 261
f 256 262 257
f 287 256 257
f 319 288 320
f 319 287 288
f 355 320 321
f 355 321 322
f 356 355 322
f 59 82 81
f 59 60 82
f 79 105 104
f 79 80 105
f 103 104 126
f 122 103 126
f 146 147 173
f 172 146 173
f 172 173 201
f 200 172 201
f 200 201 233
f 232 200 233
f 256 232 233
f 286 256 287
f 319 286 287
f 354 320 355
f 58 81 80
f 58 59 81
f 103 79 104
f 100 103 122
f 121 122 147
f 146 121 147
f 229 232 256
f 255 229 256
f 286 255 256
f 318 286 319
f 353 319 320
f 354 353 320
f 347 354 355
f 348 347 355
f 384 355 356
f 384 348 355
f 385 384 356
f 78 79 103
f 121 100 122
f 171 172 200
f 199 171 200
f 229 200 232
f 229 199 200
f 285 255 286
f 318 285 286
f 346 319 353
f 346 318 319
f 346 353 354
f 347 346 354
f 383 354 347
f 384 347 348
f 384 383 347
f 38 61 60
f 39 61 38
f 38 60 59
f 57 80 79
f 58 80 57
f 74 79 78
f 74 78 103
f 74 103 100
f 99 100 121
f 145 146 172
f 145 172 171
f 197 199 229
f 228 197 229
f 317 285 318
f 345 318 346
f 345 314 318
f 383 346 347
f 228 229 255
f 228 255 254
f 317 318 314
f 382 346 383
f 422 384 385
f 422 385 423
f 142 166 139
f 142 168 166
f 143 139 140
f 143 142 139
f 143 140 118
f 53 48 49
f 53 52 48
f 28 49 22
f 28 53 49
f 29 22 23
f 29 28 22
f 30 29 11
f 313 340 310
f 313 310 309
f 312 309 277
f 312 313 309
f 280 312 277
f 196 225 194
f 196 194 166
f 168 196 166
f 143 168 142
f 73 96 70
f 73 70 48
f 74 48 52
f 74 73 48
f 30 11 12
f 31 30 12
f 345 341 340
f 344 345 340
f 344 340 313
f 313 312 280
f 228 226 225
f 228 252 226
f 228 225 196
f 197 228 196
f 197 196 168
f 169 197 168
f 169 168 143
f 120 118 95
f 99 95 96
f 99 120 95
f 99 96 73
f 31 12 13
f 32 31 13
f 377 415 376
f 382 377 376
f 382 376 375
f 381 375 341
f 381 382 375
f 345 381 341
f 281 313 280
f 254 280 252
f 254 252 228
f 145 143 118
f 120 145 118
f 121 120 99
f 53 28 29
f 54 53 29
f 37 29 30
f 37 30 31
f 38 37 31
f 38 31 32
f 39 38 32
f 424 418 417
f 423 424 417
f 423 417 416
f 422 423 416
f 422 416 415
f 383 415 377
f 383 422 415
f 383 377 382
f 382 381 345
f 314 344 313
f 314 345 344
f 285 281 280
f 285 313 281
f 284 280 254
f 284 285 280
f 171 169 143
f 171 143 145
f 100 73 74
f 100 99 73
f 75 52 53
f 75 74 52
f 58 53 54
f 58 57 53
f 58 54 29
f 58 29 37
f 384 422 383
f 346 382 345
f 317 314 313
f 285 317 313
f 285 284 254
f 255 285 254
f 199 197 169
f 171 199 169
f 146 145 120
f 146 120 121
f 78 74 75
f 79 75 53
f 79 78 75
f 79 53 57
f 59 58 37
f 59 37 38
f 351 343 342
f 352 311 343
f 351 352 343
f 352 316 311
f 231 195 227
f 231 198 195
f 167 198 170
f 167 195 198
f 144 167 170
f 102 97 98
f 119 102 98
f 102 72 97
f 102 77 72
f 72 77 76
f 71 76 56
f 71 72 76
f 51 71 56
f 51 56 55
f 50 51 55
f 50 55 36
f 55 35 36
f 33 14 15
f 34 33 15
f 32 13 14
f 33 32 14
f 102 76 77
f 124 102 119
f 125 119 144
f 125 124 119
f 152 125 144
f 260 227 253
f 260 231 227
f 260 253 283
f 351 316 352
f 351 342 379
f 390 351 379
f 39 32 33
f 40 39 33
f 40 33 34
f 41 40 34
f 41 34 35
f 42 41 35
f 64 42 35
f 64 35 55
f 76 55 56
f 124 125 152
f 180 144 170
f 180 152 144
f 295 283 282
f 295 260 283
f 295 282 316
f 350 351 390
f 390 379 378
f 389 378 421
f 389 390 378
f 427 421 420
f 427 389 421
f 63 42 64
f 63 41 42
f 65 64 55
f 87 55 76
f 87 65 55
f 101 76 102
f 151 124 152
f 151 152 180
f 180 170 198
f 213 180 198
f 259 260 295
f 329 295 316
f 315 316 351
f 315 329 316
f 388 427 420
f 388 389 427
f 426 388 420
f 426 420 419
f 425 426 419
f 425 419 418
f 424 425 418
f 62 40 41
f 63 62 41
f 87 64 65
f 113 76 101
f 113 87 76
f 101 102 124
f 179 151 180
f 179 180 213
f 212 179 213
f 212 213 198
f 212 198 231
f 230 212 231
f 230 231 260
f 259 230 260
f 328 329 315
f 328 295 329
f 328 315 351
f 388 426 425
