# DPadLeft.obj
# Valve Steam Controller (2026) CAD, CC BY-NC-SA 4.0
v -60.6523 -24.4358 -20.3643
v -60.6566 -24.4188 -19.8271
v -60.6502 -24.8742 -20.0064
v -60.6512 -24.6282 -20.3399
v -60.6497 -24.8346 -19.7406
v -60.6135 -24.4638 -20.9988
v -60.6140 -24.8674 -19.0771
v -60.6391 -24.4085 -19.3423
v -60.6337 -25.0293 -20.5549
v -60.6218 -25.3841 -20.0239
v -60.6177 -25.2929 -19.5543
v -60.6044 -24.6045 -21.1245
v -60.6098 -25.3697 -19.4301
v -60.6180 -24.8691 -20.8951
v -60.6043 -24.4031 -18.8800
v -60.5380 -24.8458 -18.3691
v -60.5145 -24.9263 -21.7876
v -60.5699 -25.1645 -21.2789
v -60.5675 -24.5215 -21.4569
v -60.5159 -24.5099 -21.8081
v -60.5468 -25.5351 -18.8083
v -60.5298 -26.1826 -19.7466
v -60.5351 -26.0046 -19.2886
v -60.5820 -25.8129 -20.1988
v -60.5475 -24.4024 -18.3956
v -60.5147 -26.0547 -20.9804
v -60.5542 -25.6717 -21.0325
v -60.5021 -25.4112 -18.3636
v -60.4564 -26.5464 -20.7336
v -60.4916 -24.6463 -21.9585
v -60.4804 -25.7061 -21.6725
v -60.4130 -24.5492 -22.3714
v -60.4594 -26.5307 -19.4009
v -60.4714 -26.5681 -20.0774
v -60.4697 -26.1526 -18.7793
v -60.4182 -26.7101 -20.6309
v -60.4236 -25.5403 -17.9369
v -60.4012 -26.0734 -18.1586
v -60.3934 -26.7418 -19.2826
v -60.4728 -24.4068 -17.9284
v -60.4078 -26.5632 -21.2835
v -60.4237 -26.7319 -20.0123
v -60.4068 -25.0160 -17.6478
v -60.4183 -24.6840 -22.3504
v -60.4070 -25.6452 -22.1526
v -60.2962 -24.6301 -17.1218
v -60.3695 -25.1281 -22.5246
v -60.3548 -26.7382 -21.3821
v -60.3588 -26.5754 -21.6756
v -60.3908 -26.0900 -21.9557
v -60.3546 -26.8593 -20.6335
v -60.3028 -26.0322 -22.4628
v -60.3030 -24.5871 -22.8563
v -60.3843 -26.5284 -18.5403
v -60.2503 -25.7366 -17.2036
v -60.3125 -26.9325 -19.8796
v -60.2967 -24.9682 -22.8519
v -60.3091 -26.7373 -18.4632
v -60.2774 -26.9346 -19.1884
v -60.2832 -24.4283 -17.0724
v -60.2511 -25.7747 -22.8275
v -60.2169 -26.7425 -17.8862
v -60.2583 -26.1583 -17.4840
v -60.2735 -25.3507 -17.1620
v -60.2211 -26.5190 -17.5763
v -60.2607 -26.6058 -22.2415
v -60.2312 -27.0090 -21.1149
v -60.2194 -24.6139 -23.0860
v -60.2771 -26.9891 -20.1019
v -60.1563 -26.9353 -18.1502
v -60.1885 -24.5345 -16.8494
v -60.2363 -26.7720 -22.1375
v -60.2298 -24.9606 -23.0533
v -60.2564 -26.8958 -21.6339
v -60.1958 -24.4469 -16.8638
v -60.1303 -26.6681 -22.8064
v -60.2006 -25.2326 -16.9301
v -60.1598 -27.1115 -20.6276
v -60.1610 -27.1094 -19.9635
v -60.0885 -24.6546 -23.2986
v -60.0629 -26.7737 -17.2162
v -60.1276 -26.0053 -16.9505
v -60.0870 -27.0570 -22.1083
v -60.1535 -25.9540 -23.0498
v -60.1181 -26.5827 -17.1785
v -60.0968 -26.8051 -22.7840
v -60.0938 -24.9578 -16.7254
v -60.0568 -26.5252 -16.9735
v -60.0635 -27.1503 -21.5900
v -60.0429 -25.7414 -16.7427
v -59.9930 -24.6350 -16.5821
v -60.0730 -26.7308 -22.9447
v -60.0986 -25.0245 -23.2745
v -60.0438 -26.6629 -17.0281
v -60.1011 -27.0988 -18.8609
v -60.0402 -26.9514 -22.7601
v -60.0408 -24.4872 -16.6379
v -60.0378 -25.9412 -23.2525
v -59.9663 -26.9449 -22.9923
v -59.9622 -26.8264 -16.9964
v -60.0327 -26.7134 -23.0559
v -60.0382 -27.2058 -19.9798
v -59.9692 -27.2388 -19.7555
v -60.0275 -26.9744 -22.7602
v -59.9143 -26.6942 -16.8012
v -59.9693 -26.9691 -17.3114
v -59.9341 -26.5231 -16.7602
v -59.9996 -27.2280 -21.0773
v -59.9500 -24.6967 -23.4560
v -59.9428 -26.6262 -23.2348
v -59.9399 -24.9474 -16.5492
v -59.8600 -27.0999 -22.9942
v -59.8891 -25.7258 -16.5647
v -59.9274 -25.1088 -23.4641
v -59.9172 -27.2288 -18.8872
v -59.7753 -27.3244 -19.9374
v -59.8680 -26.0506 -23.4293
v -59.8245 -26.8374 -23.3031
v -59.9168 -27.1013 -17.6442
v -59.9226 -27.1286 -22.7177
v -59.8891 -26.9679 -17.0473
v -59.7857 -24.7456 -23.5839
v -59.8350 -26.9781 -23.1818
v -59.7808 -26.8666 -16.7489
v -59.7981 -27.2134 -22.8673
v -59.8519 -27.0806 -17.2363
v -59.8271 -27.2320 -22.6964
v -59.8165 -27.3229 -21.4148
v -59.8280 -24.5477 -16.4437
v -59.8585 -27.2760 -22.0408
v -59.7530 -27.3398 -20.4205
v -59.7511 -27.3411 -20.4632
v -59.7532 -24.7183 -16.3935
v -59.6817 -26.7475 -16.5706
v -59.8750 -27.2993 -20.5687
v -59.7396 -27.3478 -20.6621
v -59.6650 -27.3730 -22.2008
v -59.7051 -25.7054 -16.4189
v -59.7513 -25.2096 -23.5930
v -59.7646 -26.5627 -16.5757
v -59.7808 -26.6650 -23.4149
v -59.7001 -27.3658 -21.0532
v -59.6866 -27.3136 -18.6199
v -59.6838 -26.0277 -23.5765
v -59.6694 -27.3205 -22.8303
v -59.7366 -27.1057 -17.0128
v -59.7839 -27.2324 -17.9309
v -59.7691 -27.1660 -17.2966
v -59.6329 -27.1576 -23.2353
v -59.7310 -27.0033 -16.8319
v -59.6673 -24.5950 -16.3431
v -59.6257 -26.8888 -23.4601
v -59.5919 -27.4023 -21.8326
v -59.6615 -27.2508 -23.0489
v -59.5735 -26.5532 -16.4275
v -59.1614 -27.5020 -20.3152
v -59.6720 -27.0228 -23.3350
v -59.6629 -27.2049 -17.1427
v -59.5430 -24.8162 -23.7096
v -59.5470 -26.9249 -16.5758
v -59.6408 -27.3661 -22.6349
v -59.5867 -26.6690 -23.5660
v -59.3979 -27.3964 -23.0639
v -59.5508 -24.8516 -16.2959
v -59.5993 -27.2702 -17.3124
v -59.4291 -27.4326 -22.8682
v -59.4854 -27.2973 -23.1780
v -59.5301 -27.4199 -22.1539
v -59.4974 -25.6798 -16.3103
v -59.5285 -25.5112 -23.6937
v -59.4958 -27.4296 -22.3075
v -59.4085 -26.8181 -16.4266
v -59.2820 -27.4875 -22.7685
v -59.4090 -27.2165 -23.3545
v -59.5253 -27.0546 -16.6795
v -59.4936 -24.6469 -16.2714
v -59.3509 -26.6765 -16.3460
v -59.3705 -27.3257 -17.0564
v -59.3964 -26.5935 -23.6729
v -59.3708 -27.4634 -22.6892
v -59.2712 -24.8930 -23.7792
v -59.4186 -27.0894 -23.4703
v -59.2847 -26.9924 -16.4791
v -59.4276 -26.9421 -23.5606
v -59.4971 -27.1666 -16.7991
v -59.2392 -27.3643 -23.2549
v -59.4461 -27.3331 -17.3895
v -59.3271 -25.0027 -16.2319
v -59.4490 -27.2550 -16.9314
v -59.3431 -25.1183 -23.7673
v -59.3011 -27.4323 -18.9794
v -59.3591 -26.7457 -23.6645
v -59.2284 -27.1319 -16.5793
v -59.1526 -27.2815 -23.4078
v -59.3281 -26.4928 -16.3027
v -59.1377 -27.0161 -23.6262
v -59.2224 -24.7287 -16.2118
v -59.0675 -27.5399 -21.5440
v -59.1463 -27.4703 -23.0852
v -59.2192 -26.8337 -23.6855
v -59.1766 -27.4979 -22.9465
v -59.1467 -26.6231 -23.7457
v -59.1372 -26.5267 -16.2551
v -59.1623 -27.3355 -16.8680
v -59.1208 -27.1891 -23.5110
v -59.0952 -24.8296 -16.2055
v -59.2660 -27.3754 -17.1883
v -58.9351 -26.4423 -16.2329
v -59.0656 -27.1245 -16.5218
v -59.0796 -27.4051 -17.0221
v -59.0072 -26.8637 -23.7140
v -59.1218 -27.2526 -16.6905
v -59.1049 -27.4406 -17.6924
v -59.0325 -26.7444 -16.2865
v -57.8281 -25.2593 -23.7948
v -58.9791 -27.0157 -16.4142
v -58.9164 -26.6427 -16.2519
v -59.0916 -26.8533 -16.3376
v -58.4487 -27.6723 -22.9603
v -58.2953 -27.5575 -23.3171
v -58.4250 -25.2819 -16.2103
v -58.4948 -27.5786 -17.1969
v -58.3929 -27.4105 -23.4681
v -58.1287 -27.3172 -23.5925
v -58.6442 -27.4533 -16.8285
v -58.8267 -27.5422 -18.5386
v -58.3612 -27.4297 -16.6652
v -58.2173 -27.1239 -23.6859
v -58.3354 -27.3105 -16.5200
v -58.9474 -26.5545 -23.7677
v -58.7792 -27.5895 -20.1270
v -58.4866 -27.6843 -22.7655
v -58.5855 -27.6086 -18.9941
v -58.8267 -26.4823 -16.2331
v -58.9385 -26.7663 -23.7471
v -58.4386 -27.6179 -23.1458
v -58.2415 -27.7061 -20.5338
v -58.3381 -27.6497 -18.4469
v -59.0798 -25.2009 -23.7908
v -58.2489 -26.7279 -23.7676
v -57.7520 -27.7373 -17.2107
v -58.2796 -27.6056 -17.0108
v -58.0900 -26.6664 -16.2330
v -57.4000 -27.8014 -23.1342
v -57.9152 -27.6231 -16.8365
v -57.4164 -27.6226 -16.6741
v -59.0926 -24.7681 -16.2045
v -58.0458 -26.7697 -23.7677
v -56.9367 -27.1397 -23.7461
v -57.3987 -27.5019 -16.5259
v -58.0608 -27.2260 -16.4013
v -58.0671 -27.7667 -22.7624
v -57.2610 -27.8176 -17.2200
v -57.6009 -27.7867 -18.9982
v -57.6319 -27.8349 -22.7527
v -57.6504 -27.8176 -22.9484
v -57.5387 -27.8390 -22.1939
v -57.3771 -27.5915 -23.4628
v -56.9914 -27.3152 -23.6855
v -57.7657 -27.7786 -20.2615
v -57.4900 -27.8545 -22.7508
v -57.5286 -26.6965 -23.7712
v -57.4593 -27.8585 -22.7505
v -57.3717 -27.8697 -22.7494
v -57.3547 -27.8384 -20.8049
v -57.3713 -27.7118 -23.3088
v -56.9782 -27.4856 -23.5895
v -57.4424 -26.7922 -16.2325
v -57.0783 -27.8260 -17.0317
v -56.9264 -27.7882 -16.8494
v -57.1916 -26.9132 -23.7685
v -56.5456 -27.4762 -16.4063
v -57.2361 -27.0334 -16.2543
v -57.3951 -25.4841 -16.2094
v -57.2915 -27.8328 -19.6876
v -57.0188 -27.8810 -21.3812
v -57.8030 -27.1139 -16.3115
v -56.9656 -27.9130 -22.7456
v -56.8667 -27.8748 -19.5228
v -56.3241 -27.8125 -23.3040
v -56.7150 -25.7534 -23.7904
v -56.1871 -27.7818 -16.6859
v -56.4127 -27.6348 -16.5318
v -56.7843 -27.8914 -20.8858
v -56.6584 -27.9294 -22.9405
v -56.2801 -27.9010 -23.1273
v -56.8722 -26.4472 -16.2243
v -56.4745 -27.9141 -17.2350
v -56.7666 -27.8828 -18.6410
v -56.1588 -27.3410 -16.3127
v -56.7139 -26.9032 -16.2316
v -56.5508 -27.9484 -22.7411
v -56.3565 -27.9116 -19.5606
v -56.3513 -25.5896 -23.7945
v -56.2726 -27.6910 -23.4603
v -56.9954 -25.3234 -16.2052
v -56.3146 -25.5970 -23.7945
v -55.9226 -27.8899 -16.8623
v -56.3606 -27.9372 -21.9450
v -56.1737 -25.6253 -23.7947
v -55.9877 -26.9954 -23.7712
v -56.1292 -25.6342 -23.7945
v -56.1618 -26.1619 -16.2167
v -55.8955 -27.9586 -17.2458
v -55.8593 -26.3586 -23.7827
v -54.7377 -25.8917 -23.7959
v -56.1720 -27.9312 -21.1446
v -56.2428 -27.9164 -19.5103
v -55.9355 -27.5580 -23.5894
v -54.8958 -27.4156 -23.6880
v -55.8464 -27.9342 -19.3170
v -56.0539 -27.9332 -17.0487
v -55.6696 -27.9371 -20.0794
v -55.5730 -27.9438 -19.0090
v -54.9234 -27.9422 -23.1205
v -54.7872 -26.0172 -16.2096
v -55.5696 -27.9484 -21.1232
v -55.3034 -27.9736 -22.0591
v -55.1573 -27.9684 -18.0377
v -55.0196 -27.5792 -16.4131
v -55.4900 -27.9813 -17.2538
v -55.6299 -27.9533 -21.4656
v -55.1349 -27.9634 -21.6956
v -54.8537 -27.7347 -23.4583
v -55.6458 -27.9898 -22.7361
v -54.7873 -26.1450 -23.7897
v -55.0054 -27.8490 -16.7018
v -54.9090 -28.0001 -17.2656
v -55.1785 -27.9461 -19.0959
v -55.2684 -27.9463 -20.8514
v -55.5397 -27.9808 -22.9332
v -55.7486 -26.9853 -16.2296
v -54.7898 -27.0264 -23.7743
v -55.2161 -27.9392 -20.1067
v -54.9352 -27.9652 -18.2208
v -54.9296 -27.9655 -21.7765
v -54.7562 -28.0029 -22.7295
v -54.4951 -27.9527 -21.5539
v -54.5480 -27.9362 -16.8494
v -54.9570 -27.9895 -17.0691
v -55.2209 -27.7176 -16.5392
v -54.6067 -27.8026 -23.3823
v -54.8669 -27.8570 -23.2968
v -54.8246 -27.9937 -22.9258
v -54.8517 -27.5826 -23.5901
v -54.8056 -27.2236 -23.7514
v -54.7054 -27.0624 -16.2272
v -54.6952 -27.9764 -17.8741
v -54.3812 -27.9319 -19.2361
v -54.1996 -28.0030 -22.7571
v -54.7921 -25.7829 -16.2056
v -54.6171 -27.2434 -16.2504
v -54.6108 -27.4366 -16.3203
v -54.5354 -27.4657 -23.6751
v -54.5739 -27.6532 -23.5455
v -54.5468 -26.4812 -16.2028
v -54.5605 -27.8079 -16.6218
v -54.5267 -26.9976 -23.7913
v -54.4628 -27.9904 -22.9646
v -54.3517 -25.9563 -23.8466
v -54.4201 -27.1963 -16.2124
v -54.5195 -27.2612 -23.7566
v -54.4214 -27.9615 -18.1338
v -54.3692 -27.3820 -16.2581
v -54.3771 -27.5738 -23.6366
v -54.3965 -25.8527 -16.1663
v -54.3692 -27.5903 -16.3745
v -54.5770 -27.6727 -16.4751
v -54.2447 -27.7456 -23.5082
v -54.3179 -26.0631 -16.1533
v -54.1915 -27.8563 -16.6286
v -54.3301 -27.8659 -23.3268
v -54.3212 -27.8932 -16.7236
v -54.5048 -28.0035 -17.2635
v -54.2702 -27.0308 -16.1654
v -54.3100 -26.5762 -23.8405
v -54.4840 -27.9263 -23.1782
v -54.2973 -27.9949 -17.0310
v -54.1241 -27.0284 -23.8822
v -54.1203 -27.2402 -16.1487
v -54.1917 -27.4224 -23.7692
v -54.1910 -27.4223 -16.2328
v -54.1638 -27.5973 -16.3312
v -54.1644 -27.5975 -23.6709
v -54.1271 -27.7483 -16.4613
v -54.0572 -26.0033 -23.9350
v -54.1586 -25.8916 -16.1011
v -54.0965 -26.1811 -23.9141
v -54.0814 -26.2636 -16.0840
v -53.9145 -27.9531 -23.2463
v -54.0312 -27.9540 -16.7946
v -54.1237 -27.2284 -23.8561
v -53.9900 -27.4273 -23.8390
v -53.9891 -27.4271 -16.1631
v -54.1486 -27.9992 -22.9641
v -53.9538 -27.6022 -23.7434
v -53.9529 -27.6021 -16.2587
v -53.8355 -26.0989 -15.9683
v -53.9558 -27.0371 -16.0535
v -53.9047 -27.7530 -23.6172
v -53.7966 -27.7549 -16.3414
v -53.6932 -28.0076 -17.1266
v -53.7957 -26.0429 -24.0604
v -53.8321 -27.0300 -24.0111
v -53.9655 -27.8684 -23.4205
v -53.8438 -27.8732 -16.5366
v -53.8233 -27.2428 -23.9885
v -53.7219 -27.2468 -15.9592
v -53.7971 -27.4346 -23.9287
v -53.7959 -27.4345 -16.0734
v -53.8530 -25.9383 -15.9707
v -53.6543 -27.9604 -16.6584
v -53.7527 -27.6094 -23.8363
v -53.7516 -27.6093 -16.1658
v -53.8438 -26.1282 -24.0286
v -53.4000 -28.0107 -23.2460
v -53.7021 -27.0313 -15.9142
v -54.0310 -27.9096 -19.9339
v -53.6402 -25.9683 -15.8419
v -53.6448 -27.2537 -24.0956
v -53.6004 -27.0584 -24.1573
v -53.6235 -26.2307 -24.1662
v -53.6146 -27.4455 -24.0374
v -53.6133 -27.4453 -15.9647
v -54.4460 -27.9290 -20.4338
v -53.6002 -27.0581 -15.8456
v -53.5628 -27.6201 -23.9487
v -53.5615 -27.6200 -16.0535
v -53.5385 -27.9646 -17.7398
v -53.5840 -27.7638 -23.7730
v -53.4903 -27.7704 -16.1691
v -53.4444 -27.4605 -24.1637
v -53.4767 -27.2687 -15.7816
v -53.4428 -27.4603 -15.8383
v -53.7707 -27.9517 -21.9286
v -52.3060 -27.8330 -20.3649
v -53.5001 -27.8842 -23.6330
v -53.5100 -27.8837 -16.3760
v -53.3045 -27.7853 -23.9700
v -53.3841 -27.6348 -15.9229
v -53.2688 -27.9683 -22.4358
v -53.3030 -27.7851 -16.0321
v -53.4022 -27.9694 -23.4769
v -53.3020 -27.9751 -16.4610
v -53.9625 -27.9250 -21.1223
v -53.2044 -27.9052 -23.8410
v -53.2028 -27.9050 -16.1612
v -53.4437 -28.0094 -16.7822
v -52.2550 -27.8511 -21.0475
v -53.0892 -27.9897 -23.6972
v -53.0877 -27.9895 -16.3049
v -53.1897 -28.0202 -23.1275
v -52.8022 -27.8716 -20.9921
v -52.9639 -28.0355 -23.5448
v -52.9624 -28.0353 -16.4575
v -52.7765 -28.0452 -23.4419
v -53.1817 -28.0193 -16.8959
v -51.9678 -27.8764 -21.6726
v -52.4976 -27.8396 -19.7018
v -53.8361 -27.9299 -18.5904
v -52.7785 -28.0447 -16.5630
v -51.7289 -27.9167 -22.2143
v -51.7781 -27.8628 -18.4546
v -51.3824 -27.8115 -20.6454
v -51.6523 -27.8072 -20.0311
v -51.9445 -27.8315 -19.1538
v -51.7783 -27.9210 -17.7478
v -51.2913 -27.8055 -19.6226
v -50.7878 -27.8500 -21.3834
v -51.2717 -27.8343 -21.2046
v -51.0865 -27.8234 -19.0308
v -50.9130 -27.8021 -20.3384
v -51.0126 -27.8342 -18.7828
v -50.9862 -27.8662 -18.3567
v -50.8796 -27.8030 -19.5717
v -50.5319 -27.8090 -20.5374
v -50.1453 -27.8302 -20.7707
v -50.0584 -27.8180 -20.2895
v -50.1982 -27.8122 -19.6467
v -49.7493 -27.8336 -20.2913
v -50.3797 -27.8332 -19.0126
v -49.7580 -27.8297 -20.0821
v -49.7414 -27.8344 -19.6883
vn -0.9997 -0.0139 -0.0197
vn -0.9998 -0.0138 0.0133
vn -0.9990 -0.0428 -0.0094
vn -0.9991 -0.0125 -0.0396
vn -0.9991 -0.0321 0.0279
vn -0.9971 0.0194 -0.0741
vn -0.9957 -0.0418 0.0823
vn -0.9984 -0.0160 0.0547
vn -0.9968 -0.0656 -0.0466
vn -0.9974 -0.0722 -0.0001
vn -0.9979 -0.0618 0.0217
vn -0.9951 -0.0193 -0.0971
vn -0.9951 -0.0857 0.0501
vn -0.9971 -0.0266 -0.0711
vn -0.9947 -0.0179 0.1009
vn -0.9894 -0.0421 0.1386
vn -0.9869 -0.0461 -0.1545
vn -0.9927 -0.0589 -0.1056
vn -0.9914 0.0031 -0.1309
vn -0.9853 0.0573 -0.1612
vn -0.9906 -0.0893 0.1035
vn -0.9894 -0.1437 0.0228
vn -0.9900 -0.1277 0.0607
vn -0.9932 -0.1150 -0.0171
vn -0.9905 -0.0130 0.1368
vn -0.9879 -0.1329 -0.0796
vn -0.9933 -0.0900 -0.0730
vn -0.9865 -0.0861 0.1390
vn -0.9841 -0.1708 -0.0486
vn -0.9861 -0.0076 -0.1657
vn -0.9860 -0.1052 -0.1290
vn -0.9804 0.0133 -0.1963
vn -0.9799 -0.1898 0.0612
vn -0.9815 -0.1913 -0.0027
vn -0.9853 -0.1319 0.1087
vn -0.9477 -0.3162 -0.0432
vn -0.9796 -0.0872 0.1810
vn -0.9784 -0.1302 0.1606
vn -0.9168 -0.3932 0.0695
vn -0.9816 -0.0146 0.1902
vn -0.9821 -0.1554 -0.1068
vn -0.9184 -0.3955 0.0086
vn -0.9786 -0.0441 0.2008
vn -0.9788 -0.0224 -0.2034
vn -0.9797 -0.0810 -0.1835
vn -0.9567 -0.0344 0.2890
vn -0.9775 -0.0555 -0.2035
vn -0.9390 -0.3310 -0.0936
vn -0.9759 -0.1715 -0.1352
vn -0.9773 -0.1346 -0.1635
vn -0.8761 -0.4807 -0.0384
vn -0.9700 -0.1316 -0.2046
vn -0.9641 -0.0124 -0.2652
vn -0.9719 -0.2014 0.1216
vn -0.9675 -0.1103 0.2276
vn -0.8421 -0.5387 0.0262
vn -0.9655 -0.0403 -0.2574
vn -0.9095 -0.3996 0.1148
vn -0.7964 -0.6012 0.0660
vn -0.9729 -0.0057 0.2312
vn -0.9616 -0.0935 -0.2579
vn -0.9101 -0.3787 0.1685
vn -0.9684 -0.1358 0.2092
vn -0.9584 -0.0670 0.2776
vn -0.9618 -0.2036 0.1829
vn -0.9672 -0.1755 -0.1839
vn -0.7902 -0.6105 -0.0545
vn -0.8871 -0.0124 -0.4613
vn -0.7824 -0.6226 -0.0100
vn -0.8079 -0.5776 0.1168
vn -0.8825 -0.0246 0.4696
vn -0.9273 -0.3411 -0.1543
vn -0.9073 -0.0568 -0.4167
vn -0.8708 -0.4795 -0.1083
vn -0.8454 -0.0184 0.5337
vn -0.9544 -0.1579 -0.2533
vn -0.1352 -0.1920 -0.9720
vn -0.9032 -0.0638 0.4244
vn -0.6772 -0.7356 -0.0185
vn -0.6818 -0.7308 0.0340
vn -0.7876 -0.0206 -0.6158
vn -0.8923 -0.3976 0.2140
vn -0.9074 -0.1195 0.4029
vn -0.7812 -0.6143 -0.1110
vn -0.9055 -0.1114 -0.4095
vn -0.9469 -0.1779 0.2679
vn -0.9346 -0.3022 -0.1873
vn -0.1352 -0.1920 -0.9720
vn -0.7984 -0.0528 0.5998
vn -0.8902 -0.1695 0.4229
vn -0.6799 -0.7303 -0.0657
vn -0.8039 -0.0998 0.5863
vn -0.7360 -0.0191 0.6767
vn -0.8964 -0.3401 -0.2844
vn -0.8182 -0.0494 -0.5728
vn -0.8730 -0.3032 0.3820
vn -0.6521 -0.7547 0.0715
vn -0.8648 -0.4790 -0.1503
vn -0.6635 -0.3635 -0.6539
vn -0.7517 0.0059 0.6595
vn -0.8048 -0.0881 -0.5870
vn -0.8188 -0.4143 -0.3974
vn -0.8052 -0.4459 0.3910
vn -0.8792 -0.1990 -0.4330
vn -0.5212 -0.8534 0.0087
vn -0.4782 -0.8775 0.0359
vn -0.8485 -0.4635 -0.2552
vn -0.1352 -0.1920 -0.9720
vn -0.7755 -0.3131 0.5482
vn -0.8006 -0.5741 0.1714
vn -0.8124 -0.1428 0.5654
vn -0.5546 -0.8319 -0.0199
vn -0.6893 -0.0236 -0.7241
vn -0.8174 -0.1497 -0.5563
vn -0.6598 -0.0521 0.7496
vn -0.7019 -0.6085 -0.3703
vn -0.6821 -0.0855 0.7262
vn -0.6879 -0.0554 -0.7237
vn -0.4832 -0.8740 0.0521
vn -0.2999 -0.9537 0.0238
vn -0.6719 -0.0906 -0.7351
vn -0.7391 -0.3382 -0.5825
vn -0.6515 -0.7504 0.1117
vn -0.7642 -0.6235 -0.1649
vn -0.7516 -0.5846 0.3054
vn -0.5520 -0.0213 -0.8336
vn -0.7126 -0.4921 -0.5001
vn -0.6638 -0.4888 0.5660
vn -0.6444 -0.7228 -0.2497
vn -0.6732 -0.7055 0.2216
vn -0.6493 -0.7538 -0.1006
vn -0.4195 -0.9076 -0.0142
vn -0.6159 0.0096 0.7878
vn -0.5514 -0.8325 -0.0542
vn -0.2762 -0.9609 0.0175
vn -0.3292 -0.9442 0.0130
vn -0.5297 -0.0423 0.8471
vn -0.6018 -0.3482 0.7187
vn -0.4193 -0.9078 0.0078
vn -0.2779 -0.9605 0.0162
vn -0.3866 -0.9219 -0.0252
vn -0.5294 -0.0689 0.8456
vn -0.5170 -0.0429 -0.8549
vn -0.6982 -0.1439 0.7012
vn -0.6980 -0.1531 -0.6995
vn -0.2747 -0.9615 0.0093
vn -0.3089 -0.9504 0.0371
vn -0.5350 -0.0741 -0.8416
vn -0.5008 -0.8397 -0.2102
vn -0.5841 -0.7385 0.3367
vn -0.4820 -0.8731 0.0737
vn -0.6164 -0.7767 0.1300
vn -0.5548 -0.6442 -0.5265
vn -0.6348 -0.6176 0.4643
vn -0.4478 -0.0129 0.8940
vn -0.5751 -0.3440 -0.7422
vn -0.2747 -0.9615 0.0034
vn -0.5465 -0.7613 -0.3489
vn -0.5361 -0.1349 0.8333
vn -0.2446 -0.9695 0.0159
vn -0.5894 -0.5235 -0.6152
vn -0.5017 -0.8346 0.2275
vn -0.3760 -0.0257 -0.9262
vn -0.4850 -0.5400 0.6879
vn -0.4617 -0.8844 -0.0688
vn -0.5483 -0.1508 -0.8226
vn -0.3854 -0.8706 -0.3059
vn -0.3756 -0.0368 0.9261
vn -0.4518 -0.8864 0.1007
vn -0.3655 -0.9194 -0.1450
vn -0.4361 -0.7732 -0.4604
vn -0.2920 -0.9564 -0.0041
vn -0.3537 -0.0503 0.9340
vn -0.3791 -0.0461 -0.9242
vn -0.3205 -0.9469 -0.0252
vn -0.4157 -0.3939 0.8198
vn -0.2498 -0.9683 -0.0085
vn -0.3787 -0.6977 -0.6082
vn -0.4906 -0.6340 0.5978
vn -0.2772 -0.0065 0.9608
vn -0.3166 -0.2657 0.9106
vn -0.3485 -0.9160 0.1986
vn -0.3474 -0.0662 -0.9354
vn -0.3313 -0.9430 -0.0329
vn -0.1060 0.0156 -0.9942
vn -0.3976 -0.5701 -0.7190
vn -0.2985 -0.5568 0.7752
vn -0.4213 -0.4027 -0.8126
vn -0.4196 -0.7747 0.4731
vn -0.2437 -0.8383 -0.4877
vn -0.3366 -0.9401 0.0537
vn -0.1783 -0.0320 0.9835
vn -0.4260 -0.8425 0.3298
vn -0.1913 -0.0357 -0.9809
vn -0.2547 -0.9666 0.0278
vn -0.3703 -0.2267 -0.9008
vn -0.3412 -0.6982 0.6294
vn -0.2073 -0.7596 -0.6165
vn -0.3897 -0.0844 0.9170
vn -0.1636 -0.4875 -0.8577
vn -0.1608 -0.0088 0.9869
vn -0.2446 -0.9696 0.0067
vn -0.2359 -0.9152 -0.3268
vn -0.2375 -0.3016 -0.9234
vn -0.2499 -0.9568 -0.1484
vn -0.2005 -0.0650 -0.9775
vn -0.1948 -0.0653 0.9787
vn -0.2616 -0.8741 0.4093
vn -0.1873 -0.6161 -0.7651
vn -0.0311 -0.0205 0.9993
vn -0.2661 -0.9618 0.0641
vn -0.0404 -0.0236 0.9989
vn -0.1771 -0.6639 0.7266
vn -0.2472 -0.9424 0.2255
vn -0.1057 -0.3636 -0.9255
vn -0.2299 -0.7929 0.5644
vn -0.2574 -0.9657 0.0357
vn -0.1844 -0.2648 0.9465
vn -0.0037 -0.0130 -0.9999
vn -0.1412 -0.5253 0.8391
vn -0.0548 -0.2184 0.9743
vn -0.1394 -0.3995 0.9061
vn -0.1942 -0.9565 -0.2175
vn -0.1616 -0.8219 -0.5462
vn -0.0044 -0.0174 0.9998
vn -0.2321 -0.9718 0.0404
vn -0.1448 -0.7030 -0.6963
vn -0.1029 -0.5527 -0.8270
vn -0.2202 -0.8989 0.3787
vn -0.2361 -0.9714 0.0269
vn -0.1812 -0.8074 0.5616
vn -0.0696 -0.3576 -0.9313
vn -0.1631 -0.7024 0.6929
vn -0.0429 -0.0297 -0.9986
vn -0.2203 -0.9753 0.0165
vn -0.2161 -0.9764 0.0022
vn -0.2076 -0.9780 0.0195
vn -0.0057 -0.0225 0.9997
vn -0.0442 -0.1860 -0.9815
vn -0.1886 -0.9033 -0.3853
vn -0.1782 -0.9839 0.0146
vn -0.2014 -0.9792 0.0230
vn -0.0145 -0.0127 -0.9998
vn -0.0052 -0.0221 -0.9997
vn -0.1755 -0.9841 0.0282
vn -0.2081 -0.9556 0.2087
vn -0.0091 -0.0392 0.9992
vn -0.1198 -0.9211 -0.3705
vn -0.1708 -0.9064 0.3863
vn -0.1247 -0.8192 0.5598
vn -0.0045 -0.0164 0.9999
vn -0.0050 -0.0237 -0.9997
vn -0.0239 -0.2288 -0.9732
vn -0.1153 -0.6882 0.7163
vn -0.1139 -0.5665 0.8161
vn -0.1685 -0.9857 0.0002
vn -0.1287 -0.9916 0.0123
vn -0.1445 -0.9894 0.0113
vn -0.1491 -0.9888 -0.0093
vn -0.0088 -0.1593 -0.9872
vn -0.1387 -0.9755 -0.1708
vn -0.1396 -0.9901 0.0158
vn -0.0931 -0.7210 -0.6866
vn -0.0392 -0.4165 -0.9083
vn -0.1406 -0.9900 0.0138
vn -0.1357 -0.9906 0.0157
vn -0.0088 -0.1593 -0.9872
vn 0.1039 0.7482 -0.6553
vn -0.0038 -0.0173 -0.9998
vn -0.1276 -0.9917 0.0165
vn 0.1039 0.7482 -0.6553
vn -0.0088 -0.1593 -0.9872
vn -0.1115 -0.9929 -0.0412
vn 0.1039 0.7482 -0.6553
vn -0.1283 -0.9917 0.0123
vn -0.1044 -0.8348 -0.5405
vn -0.0601 -0.5832 -0.8101
vn -0.0060 -0.0291 0.9996
vn -0.1340 -0.9673 0.2153
vn -0.1158 -0.9084 0.4018
vn -0.0074 -0.0447 -0.9990
vn -0.0614 -0.5632 0.8240
vn -0.0285 -0.2036 0.9786
vn -0.0039 -0.0173 0.9998
vn -0.1095 -0.9939 0.0098
vn -0.0714 -0.9973 0.0185
vn -0.0760 -0.3894 0.9179
vn -0.1029 -0.9946 0.0140
vn -0.1040 -0.9946 0.0046
vn -0.0461 -0.8444 -0.5337
vn -0.0036 -0.0173 -0.9998
vn -0.0697 -0.8314 0.5513
vn -0.0724 -0.7267 0.6831
vn -0.0717 -0.9973 0.0125
vn -0.0748 -0.9841 -0.1612
vn -0.0494 -0.9374 -0.3447
vn -0.0038 -0.0174 0.9998
vn -0.1025 -0.9946 0.0178
vn -0.0908 -0.9959 0.0007
vn -0.0327 -0.3812 0.9239
vn -0.0057 -0.0351 0.9994
vn -0.0604 -0.9981 0.0131
vn -0.0569 -0.9984 0.0043
vn -0.0036 -0.0170 -0.9998
vn -0.1739 -0.8622 -0.4758
vn -0.0408 -0.7136 -0.6994
vn -0.0037 -0.0169 0.9999
vn -0.1968 -0.9800 0.0285
vn -0.0034 -0.0175 -0.9998
vn -0.0588 -0.9350 0.3496
vn -0.0497 -0.9985 0.0225
vn -0.1968 -0.9800 0.0285
vn -0.0043 -0.0413 -0.9991
vn -0.1948 -0.9708 0.1398
vn -0.0042 -0.0179 -0.9998
vn -0.0035 -0.0173 0.9998
vn -0.0591 -0.9982 -0.0073
vn -0.0033 -0.0180 -0.9998
vn -0.0386 -0.0215 -0.9990
vn -0.0403 -0.9990 0.0166
vn -0.0454 -0.9990 -0.0011
vn -0.0242 -0.5594 -0.8285
vn -0.0178 -0.3864 -0.9222
vn -0.0388 -0.9992 -0.0028
vn -0.0710 -0.9828 0.1707
vn -0.0225 -0.9997 -0.0033
vn -0.0252 -0.9996 -0.0137
vn -0.0223 -0.9318 -0.3624
vn -0.0096 -0.0176 0.9998
vn -0.0193 -0.9997 0.0134
vn -0.0119 -0.9994 0.0321
vn -0.0065 -0.9996 -0.0258
vn -0.0285 -0.5594 0.8284
vn -0.0361 -0.9993 -0.0034
vn -0.0197 -0.9996 0.0213
vn -0.0010 -0.9996 0.0268
vn -0.0207 -0.7348 -0.6779
vn -0.0318 -0.9994 0.0099
vn -0.0152 -0.0183 -0.9997
vn -0.0342 -0.8578 0.5128
vn -0.0175 -0.9997 -0.0152
vn 0.0073 -0.9999 -0.0143
vn 0.0016 -0.9999 0.0148
vn -0.0318 -0.9813 -0.1897
vn -0.0053 -0.0409 0.9991
vn -0.0115 -0.0334 -0.9994
vn 0.0078 -1.0000 -0.0017
vn -0.0053 -0.9994 -0.0339
vn 0.0071 -0.9990 0.0435
vn -0.0091 -0.9999 0.0112
vn 0.0182 -0.9993 0.0321
vn -0.0421 -0.9299 0.3653
vn -0.0353 -0.9801 0.1952
vn -0.0377 -0.7154 0.6977
vn -0.0556 -0.8033 -0.5929
vn -0.0213 -0.8522 -0.5229
vn -0.0135 -0.9926 -0.1206
vn -0.0194 -0.5822 -0.8128
vn -0.0137 -0.2099 -0.9776
vn -0.0370 -0.0354 0.9987
vn 0.0043 -0.9994 -0.0357
vn 0.0283 -0.9994 -0.0180
vn 0.0080 -0.9991 0.0420
vn -0.0149 -0.0187 0.9997
vn -0.0310 -0.2278 0.9732
vn -0.0427 -0.4449 0.8945
vn -0.1071 -0.4295 -0.8967
vn -0.0700 -0.6539 -0.7533
vn -0.1264 -0.0191 0.9918
vn -0.0440 -0.8086 0.5867
vn -0.1361 -0.0357 -0.9900
vn -0.0296 -0.9786 -0.2035
vn -0.1844 -0.0293 -0.9824
vn -0.1978 -0.2241 0.9543
vn -0.1527 -0.2029 -0.9672
vn 0.0195 -0.9988 -0.0441
vn -0.1665 -0.4040 0.8995
vn -0.1575 -0.5846 -0.7959
vn -0.1439 -0.0293 0.9892
vn -0.1550 -0.5626 0.8121
vn -0.0698 -0.6740 0.7354
vn -0.1637 -0.7351 -0.6579
vn -0.2403 -0.0228 0.9704
vn -0.1344 -0.8482 0.5123
vn -0.1177 -0.8326 -0.5412
vn -0.0782 -0.8904 0.4485
vn -0.0005 -0.9996 -0.0299
vn -0.2342 -0.0426 0.9713
vn -0.2410 -0.0189 -0.9703
vn -0.0577 -0.9172 -0.3942
vn -0.0323 -0.9919 0.1231
vn -0.3285 -0.0434 -0.9435
vn -0.3489 -0.2263 0.9094
vn -0.2311 -0.4302 -0.8726
vn -0.2657 -0.4034 0.8756
vn -0.2411 -0.5894 0.7711
vn -0.2465 -0.5715 -0.7827
vn -0.1890 -0.7401 0.6454
vn -0.3671 -0.0440 -0.9292
vn -0.3517 -0.0331 0.9355
vn -0.3359 -0.0262 -0.9415
vn -0.3511 -0.0261 0.9360
vn -0.1172 -0.9490 -0.2926
vn -0.0953 -0.9453 0.3119
vn -0.3041 -0.2409 -0.9217
vn -0.3533 -0.4070 -0.8423
vn -0.3568 -0.4363 0.8260
vn -0.0429 -0.9923 -0.1161
vn -0.3083 -0.5940 -0.7431
vn -0.3114 -0.5733 0.7579
vn -0.4765 -0.0273 0.8787
vn -0.4115 -0.0442 0.9103
vn -0.2778 -0.7273 -0.6276
vn -0.2962 -0.7385 0.6057
vn 0.0044 -0.9992 -0.0389
vn -0.4896 -0.0485 -0.8706
vn -0.4805 -0.0469 -0.8757
vn -0.1923 -0.8487 -0.4926
vn -0.2112 -0.8473 0.4873
vn -0.4399 -0.2375 -0.8661
vn -0.5039 -0.2185 0.8357
vn -0.4405 -0.4162 -0.7954
vn -0.4343 -0.4121 0.8010
vn -0.4512 -0.0358 0.8917
vn -0.1632 -0.9350 0.3149
vn -0.3942 -0.5975 -0.6983
vn -0.3931 -0.5971 0.6992
vn -0.4486 -0.0239 -0.8934
vn -0.0838 -0.9907 -0.1069
vn -0.5061 -0.0433 0.8614
vn 0.0466 -0.9989 -0.0019
vn -0.5312 -0.0253 0.8469
vn -0.5318 -0.2366 -0.8132
vn -0.5372 -0.0469 -0.8422
vn -0.5364 -0.0231 -0.8437
vn -0.5125 -0.4340 -0.7409
vn -0.5285 -0.4335 0.7299
vn 0.0325 -0.9994 0.0131
vn -0.5509 -0.0413 0.8335
vn -0.4697 -0.6002 -0.6474
vn -0.4725 -0.5916 0.6533
vn 0.0272 -0.9977 -0.0626
vn -0.3533 -0.7439 -0.5673
vn -0.3893 -0.7463 0.5400
vn -0.5660 -0.4128 -0.7137
vn -0.5854 -0.2149 0.7817
vn -0.5684 -0.3829 0.7282
vn 0.0304 -0.9983 0.0497
vn 0.0409 -0.9991 0.0147
vn -0.2753 -0.8640 -0.4215
vn -0.2844 -0.8673 0.4086
vn -0.4116 -0.7595 -0.5037
vn -0.5209 -0.5636 0.6411
vn 0.0230 -0.9973 0.0697
vn -0.4477 -0.7184 0.5324
vn -0.2006 -0.9419 -0.2695
vn -0.1948 -0.9539 0.2285
vn 0.0380 -0.9987 0.0337
vn -0.3145 -0.8778 -0.3612
vn -0.3475 -0.8454 0.4057
vn -0.0735 -0.9920 0.1023
vn 0.0341 -0.9983 0.0482
vn -0.2044 -0.9564 -0.2085
vn -0.2499 -0.9324 0.2611
vn -0.0079 -0.9988 0.0493
vn 0.0431 -0.9987 0.0271
vn -0.0898 -0.9949 -0.0470
vn -0.1001 -0.9930 0.0621
vn 0.0162 -0.9965 0.0817
vn 0.0152 -0.9972 -0.0737
vn 0.0238 -0.9970 0.0743
vn 0.0422 -0.9990 -0.0166
vn 0.0366 -0.9985 -0.0413
vn 0.0058 -0.9965 -0.0830
vn 0.0119 -0.9966 0.0821
vn 0.0261 -0.9975 -0.0649
vn 0.0185 -0.9994 0.0306
vn 0.0235 -0.9997 -0.0017
vn 0.0312 -0.9989 -0.0364
vn 0.0145 -0.9962 -0.0856
vn 0.0183 -0.9996 -0.0216
vn -0.0109 -0.9978 0.0651
vn 0.0075 -0.9982 0.0587
vn 0.0139 -0.9990 -0.0423
vn 0.0016 -1.0000 0.0072
vn -0.0090 -0.9986 -0.0527
vn -0.0017 -0.9969 -0.0780
vn -0.0035 -0.9998 -0.0172
vn -0.0146 -0.9995 0.0267
vn -0.0312 -0.9985 0.0444
vn -0.0347 -0.9993 0.0146
vn -0.0244 -0.9995 -0.0191
vn -0.0600 -0.9978 0.0282
vn -0.0284 -0.9983 -0.0512
vn -0.0494 -0.9988 -0.0012
vn -0.0561 -0.9979 -0.0327
g DPadLeft
f 73//73 53//53 68//68
f 73//73 57//57 53//53
f 44//44 32//32 53//53
f 57//57 44//44 53//53
f 44//44 30//30 32//32
f 30//30 20//20 32//32
f 30//30 19//19 20//20
f 19//19 6//6 20//20
f 19//19 12//12 6//6
f 4//4 1//1 6//6
f 12//12 4//4 6//6
f 5//5 2//2 1//1
f 4//4 5//5 1//1
f 139//143 122//126 159//163
f 170//174 139//143 159//163
f 170//174 159//163 181//185
f 190//194 170//174 181//185
f 114//118 109//113 122//126
f 139//143 114//118 122//126
f 114//118 80//81 109//113
f 114//118 93//95 80//81
f 93//95 68//68 80//81
f 93//95 73//73 68//68
f 239//243 181//185 215//219
f 190//194 181//185 239//243
f 239//243 215//219 240//244
f 240//244 215//219 248//252
f 248//252 215//219 281//291
f 281//291 215//219 294//304
f 297//308 294//305 300//312
f 281//291 294//304 297//309
f 302//314 297//308 300//312
f 358//371 306//319 360//373
f 358//371 326//339 306//319
f 358//371 360//373 376//389
f 388//401 360//373 386//399
f 376//389 360//373 388//401
f 415//428 386//399 403//416
f 388//401 386//399 415//428
f 305//318 297//309 302//315
f 281//291 297//309 305//318
f 305//318 302//315 306//319
f 326//339 305//318 306//319
f 415//428 403//416 422//435
f 356//369 351//364 316//329
f 303//316 316//329 351//364
f 274//284 303//316 351//364
f 274//284 351//364 296//307
f 274//284 296//307 247//251
f 221//225 274//284 247//251
f 206//210 221//225 247//251
f 206//210 247//251 197//201
f 188//192 197//201 176//180
f 188//192 206//210 197//201
f 164//168 188//192 176//180
f 164//168 176//180 151//155
f 164//168 151//155 133//137
f 133//137 151//155 129//133
f 370//383 387//400 366//379
f 356//369 366//379 351//364
f 356//369 370//383 366//379
f 370//383 389//402 387//400
f 398//411 411//424 387//400
f 389//402 398//411 387//400
f 398//411 419//432 411//424
f 71//71 75//75 60//60
f 71//71 60//60 46//46
f 91//93 97//100 75//75
f 91//93 75//75 71//71
f 91//93 129//133 97//100
f 133//137 129//133 91//93
f 5//5 8//8 2//2
f 7//7 8//8 5//5
f 7//7 15//15 8//8
f 16//16 15//15 7//7
f 16//16 25//25 15//15
f 16//16 40//40 25//25
f 43//43 40//40 16//16
f 43//43 60//60 40//40
f 46//46 60//60 43//43
f 9//9 3//3 4//4
f 18//18 14//14 12//12
f 12//12 17//17 18//18
f 47//47 17//17 44//44
f 10//10 3//3 9//9
f 18//18 9//9 14//14
f 31//31 18//18 17//17
f 45//45 31//31 17//17
f 47//47 45//45 17//17
f 61//61 47//47 57//57
f 73//73 61//61 57//57
f 10//10 5//5 3//3
f 24//24 10//10 9//9
f 27//27 24//24 9//9
f 27//27 9//9 18//18
f 31//31 27//27 18//18
f 61//61 45//45 47//47
f 73//73 84//85 61//61
f 26//26 24//24 27//27
f 50//50 31//31 45//45
f 52//52 45//45 61//61
f 24//24 13//13 10//10
f 26//26 27//27 31//31
f 52//52 50//50 45//45
f 34//34 22//22 24//24
f 29//29 24//24 26//26
f 29//29 34//34 24//24
f 41//41 26//26 31//31
f 49//49 31//31 50//50
f 49//49 41//41 31//31
f 66//66 50//50 52//52
f 76//76 52//52 61//61
f 76//76 66//66 52//52
f 84//85 76//76 61//61
f 29//29 26//26 41//41
f 66//66 49//49 50//50
f 84//85 101//104 76//76
f 36//36 34//34 29//29
f 36//36 42//42 34//34
f 48//48 36//36 29//29
f 48//48 29//29 41//41
f 48//48 41//41 49//49
f 72//72 48//48 49//49
f 72//72 49//49 66//66
f 86//87 66//66 76//76
f 86//87 72//72 66//66
f 101//104 92//94 76//76
f 44//44 57//57 47//47
f 30//30 44//44 17//17
f 19//19 17//17 12//12
f 19//19 30//30 17//17
f 4//4 14//14 9//9
f 4//4 12//12 14//14
f 4//4 3//3 5//5
f 43//43 64//64 46//46
f 13//13 7//7 5//5
f 77//78 46//46 64//64
f 37//37 43//43 16//16
f 28//28 37//37 16//16
f 21//21 16//16 7//7
f 21//21 28//28 16//16
f 13//13 21//21 7//7
f 11//11 13//13 5//5
f 10//10 11//11 5//5
f 55//55 64//64 43//43
f 37//37 55//55 43//43
f 13//13 11//11 10//10
f 38//38 37//37 28//28
f 21//21 38//38 28//28
f 23//23 21//21 13//13
f 24//24 23//23 13//13
f 82//83 64//64 55//55
f 77//78 64//64 82//83
f 38//38 55//55 37//37
f 38//38 63//63 55//55
f 35//35 38//38 21//21
f 23//23 35//35 21//21
f 22//22 23//23 24//24
f 63//63 85//86 55//55
f 82//83 55//55 85//86
f 82//83 85//86 88//90
f 65//65 85//86 63//63
f 65//65 63//63 38//38
f 54//54 65//65 38//38
f 54//54 38//38 35//35
f 54//54 35//35 23//23
f 33//33 54//54 23//23
f 33//33 23//23 22//22
f 34//34 33//33 22//22
f 94//96 88//90 85//86
f 85//86 65//65 81//82
f 81//82 65//65 62//62
f 62//62 65//65 54//54
f 62//62 54//54 58//58
f 58//58 54//54 39//39
f 39//39 54//54 33//33
f 39//39 33//33 34//34
f 240//244 230//234 239//243
f 190//194 239//243 230//234
f 190//194 230//234 202//206
f 262//269 271//281 248//252
f 281//291 262//269 248//252
f 202//206 230//234 235//239
f 235//239 230//234 240//244
f 235//239 240//244 248//252
f 271//281 262//269 281//291
f 271//281 281//291 301//313
f 305//318 301//313 281//291
f 235//239 248//252 271//281
f 249//253 235//239 271//281
f 333//346 301//313 305//318
f 333//346 305//318 326//339
f 358//371 333//346 326//339
f 249//253 271//281 301//313
f 346//359 301//313 333//346
f 346//359 249//253 301//313
f 362//375 333//346 358//371
f 362//375 346//359 333//346
f 206//210 208//212 221//225
f 188//192 208//212 206//210
f 287//297 303//316 274//284
f 243//247 268//278 274//284
f 287//297 274//284 268//278
f 234//238 274//284 221//225
f 234//238 221//225 208//212
f 188//192 203//207 208//212
f 352//365 347//360 332//345
f 273//283 332//345 291//301
f 273//283 352//365 332//345
f 332//345 303//316 291//301
f 287//297 268//278 291//301
f 273//283 291//301 268//278
f 273//283 268//278 243//247
f 217//221 273//283 243//247
f 274//284 234//238 243//247
f 217//221 243//247 234//238
f 287//297 291//301 303//316
f 316//329 303//316 332//345
f 347//360 316//329 332//345
f 217//221 234//238 208//212
f 217//221 208//212 203//207
f 356//369 316//329 347//360
f 376//389 379//392 358//371
f 362//375 358//371 379//392
f 362//375 379//392 392//405
f 392//405 379//392 404//417
f 392//405 404//417 407//420
f 420//433 404//417 421//434
f 407//420 404//417 420//433
f 422//435 421//434 404//417
f 415//428 404//417 379//392
f 415//428 422//435 404//417
f 388//401 379//392 376//389
f 388//401 415//428 379//392
f 408//421 426//439 417//430
f 433//446 426//439 408//421
f 408//421 417//430 399//412
f 408//421 399//412 380//393
f 380//393 399//412 375//388
f 389//402 375//388 399//412
f 398//411 399//412 417//430
f 398//411 389//402 399//412
f 426//439 398//411 417//430
f 356//369 347//360 375//388
f 352//365 375//388 347//360
f 361//374 375//388 352//365
f 380//393 375//388 361//374
f 370//383 375//388 389//402
f 370//383 356//369 375//388
f 419//432 398//411 426//439
f 101//104 110//114 118//122
f 141//145 118//122 110//114
f 162//166 179//183 192//196
f 192//196 179//183 202//206
f 179//183 190//194 202//206
f 144//148 179//183 162//166
f 117//121 162//166 141//145
f 117//121 144//148 162//166
f 98//101 141//145 110//114
f 98//101 117//121 141//145
f 84//85 110//114 101//104
f 84//85 98//101 110//114
f 170//174 190//194 179//183
f 144//148 170//174 179//183
f 139//143 170//174 144//148
f 114//118 144//148 117//121
f 114//118 139//143 144//148
f 98//101 114//118 117//121
f 93//95 114//118 98//101
f 73//73 98//101 84//85
f 73//73 93//95 98//101
f 91//93 111//115 133//137
f 91//93 87//89 111//115
f 71//71 77//78 87//89
f 91//93 71//71 87//89
f 71//71 46//46 77//78
f 177//181 195//199 155//159
f 140//144 107//111 105//109
f 105//109 107//111 88//90
f 105//109 88//90 94//96
f 82//83 88//90 107//111
f 90//92 107//111 140//144
f 90//92 82//83 107//111
f 113//117 140//144 155//159
f 113//117 90//92 140//144
f 138//142 155//159 195//199
f 138//142 113//117 155//159
f 169//173 195//199 203//207
f 169//173 138//142 195//199
f 188//192 169//173 203//207
f 77//78 82//83 90//92
f 87//89 90//92 113//117
f 87//89 77//78 90//92
f 111//115 113//117 138//142
f 111//115 87//89 113//117
f 133//137 138//142 169//173
f 133//137 111//115 138//142
f 164//168 169//173 188//192
f 164//168 133//137 169//173
f 210//214 178//182 207//211
f 131//135 156//160 116//120
f 103//106 102//105 116//120
f 103//106 116//120 143//147
f 116//120 156//160 191//195
f 191//195 143//147 116//120
f 115//119 103//106 143//147
f 147//151 115//119 143//147
f 191//195 213//217 143//147
f 147//151 143//147 187//191
f 207//211 143//147 213//217
f 187//191 143//147 207//211
f 165//169 147//151 187//191
f 165//169 187//191 207//211
f 178//182 165//169 207//211
f 136//140 156//160 131//135
f 135//139 131//135 116//120
f 132//136 136//140 131//135
f 135//139 132//136 131//135
f 142//146 156//160 136//140
f 132//136 135//139 136//140
f 135//139 142//146 136//140
f 153//157 198//202 142//146
f 128//132 142//146 135//139
f 128//132 153//157 142//146
f 173//177 198//202 153//157
f 168//172 173//177 153//157
f 137//141 153//157 128//132
f 137//141 168//172 153//157
f 171//175 173//177 168//172
f 137//141 171//175 168//172
f 137//141 173//177 171//175
f 137//141 180//184 173//177
f 161//165 166//170 180//184
f 161//165 180//184 137//141
f 201//205 232//236 173//177
f 166//170 201//205 173//177
f 166//170 173//177 180//184
f 402//415 429//442 457//470
f 448//461 402//415 457//470
f 455//468 457//470 461//474
f 455//468 448//461 457//470
f 459//472 349//362 418//431
f 459//472 460//473 349//362
f 436//449 459//472 418//431
f 467//480 461//474 457//470
f 463//476 457//470 429//442
f 463//476 467//480 457//470
f 463//476 429//442 460//473
f 466//479 463//476 460//473
f 466//479 460//473 459//472
f 465//478 466//479 459//472
f 436//449 465//478 459//472
f 474//487 467//480 463//476
f 473//486 474//487 463//476
f 471//484 463//476 466//479
f 471//484 473//486 463//476
f 475//488 471//484 466//479
f 468//481 475//488 466//479
f 468//481 466//479 465//478
f 436//449 464//477 465//478
f 481//494 474//487 473//486
f 473//486 471//484 475//488
f 475//488 468//481 465//478
f 479//492 481//494 473//486
f 479//492 473//486 475//488
f 465//478 472//485 475//488
f 476//489 479//492 475//488
f 472//485 476//489 475//488
f 483//496 481//494 479//492
f 476//489 478//491 479//492
f 482//495 483//496 479//492
f 478//491 482//495 479//492
f 480//493 483//496 482//495
f 425//438 418//431 349//362
f 363//376 349//362 460//473
f 363//376 460//473 429//442
f 402//415 363//376 429//442
f 334//347 425//438 349//362
f 448//461 378//391 402//415
f 329//342 334//347 349//362
f 349//362 363//376 348//361
f 374//387 363//376 402//415
f 374//387 348//361 363//376
f 378//391 374//387 402//415
f 445//458 425//438 338//351
f 435//448 338//351 350//363
f 395//408 416//429 350//363
f 416//429 452//465 350//363
f 441//454 350//363 452//465
f 441//454 435//448 350//363
f 435//448 445//458 338//351
f 416//429 454//467 452//465
f 454//467 456//469 452//465
f 441//454 452//465 456//469
f 478//491 477//490 480//493
f 478//491 480//493 482//495
f 476//489 477//490 478//491
f 469//482 477//490 476//489
f 470//483 469//482 476//489
f 464//477 476//489 472//485
f 464//477 470//483 476//489
f 465//478 464//477 472//485
f 462//475 469//482 470//483
f 458//471 462//475 470//483
f 449//462 470//483 464//477
f 449//462 458//471 470//483
f 436//449 449//462 464//477
f 453//466 449//462 436//449
f 425//438 453//466 436//449
f 456//469 462//475 458//471
f 441//454 456//469 458//471
f 441//454 458//471 449//462
f 445//458 453//466 425//438
f 445//458 449//462 453//466
f 435//448 441//454 449//462
f 435//448 449//462 445//458
f 418//431 425//438 436//449
f 330//343 317//330 323//336
f 334//347 313//326 330//343
f 330//343 425//438 334//347
f 338//351 425//438 330//343
f 338//351 330//343 323//336
f 338//351 323//336 336//349
f 350//363 336//349 323//336
f 350//363 338//351 336//349
f 350//363 323//336 318//331
f 350//363 318//331 337//350
f 359//372 337//350 344//357
f 359//372 395//408 337//350
f 395//408 350//363 337//350
f 231//235 191//195 156//160
f 156//160 142//146 198//202
f 232//236 198//202 173//177
f 201//205 219//223 232//236
f 232//236 156//160 198//202
f 219//223 252//256 232//236
f 232//236 231//235 156//160
f 237//241 231//235 232//236
f 252//256 237//241 232//236
f 256//261 252//256 219//223
f 257//262 260//265 237//241
f 257//262 237//241 252//256
f 257//262 252//256 255//259
f 256//261 255//259 252//256
f 261//266 257//262 255//259
f 264//272 261//267 255//260
f 256//261 264//273 255//259
f 261//266 263//270 257//262
f 264//274 263//271 261//268
f 257//262 263//270 264//273
f 278//288 257//262 264//273
f 285//295 278//288 264//273
f 285//295 264//273 256//261
f 265//275 275//285 260//265
f 278//288 265//275 260//265
f 278//288 260//265 257//262
f 275//285 265//275 278//288
f 276//286 275//285 278//288
f 285//295 292//302 278//288
f 284//294 275//285 276//286
f 284//294 276//286 278//288
f 284//294 278//288 292//302
f 299//311 284//294 292//302
f 285//295 325//338 292//302
f 307//320 308//321 284//294
f 307//320 284//294 299//311
f 325//338 307//320 299//311
f 292//302 325//338 299//311
f 331//344 325//338 285//295
f 317//330 308//321 307//320
f 322//335 317//330 307//320
f 318//331 322//335 307//320
f 318//331 307//320 325//338
f 330//343 313//326 308//321
f 330//343 308//321 317//330
f 323//336 317//330 322//335
f 323//336 322//335 318//331
f 337//350 318//331 325//338
f 344//357 337//350 325//338
f 344//357 325//338 331//344
f 314//327 334//347 329//342
f 319//332 329//342 349//362
f 335//348 319//332 349//362
f 335//348 349//362 348//361
f 314//327 313//326 334//347
f 319//332 335//348 348//361
f 328//341 348//361 374//387
f 328//341 319//332 348//361
f 378//391 328//341 374//387
f 378//391 340//353 328//341
f 314//327 329//342 319//332
f 210//214 207//211 242//246
f 222//226 207//211 213//217
f 242//246 207//211 222//226
f 222//226 213//217 191//195
f 226//230 222//226 191//195
f 231//235 226//230 191//195
f 238//242 222//226 226//230
f 233//237 238//242 226//230
f 231//235 233//237 226//230
f 242//246 222//226 241//245
f 238//242 241//245 222//226
f 237//241 233//237 231//235
f 237//241 238//242 233//237
f 241//245 238//242 237//241
f 242//246 241//245 269//279
f 269//279 241//245 253//257
f 260//265 241//245 237//241
f 254//258 253//257 241//245
f 260//265 254//258 241//245
f 275//285 253//257 254//258
f 275//285 254//258 260//265
f 269//279 253//257 288//298
f 289//299 253//257 275//285
f 289//299 288//298 253//257
f 279//289 289//299 275//285
f 284//294 279//289 275//285
f 269//279 288//298 312//325
f 284//294 289//299 279//289
f 312//325 288//298 304//317
f 304//317 288//298 289//299
f 308//321 304//317 289//299
f 293//303 289//299 284//294
f 293//303 308//321 289//299
f 308//321 293//303 284//294
f 312//325 304//317 321//334
f 312//325 321//334 340//353
f 314//327 321//334 304//317
f 314//327 304//317 308//321
f 311//324 314//327 308//321
f 313//326 311//324 308//321
f 319//332 328//341 321//334
f 340//353 321//334 328//341
f 319//332 321//334 314//327
f 313//326 314//327 311//324
f 199//203 236//240 219//223
f 201//205 199//203 219//223
f 186//190 220//224 236//240
f 199//203 186//190 236//240
f 194//198 223//227 220//224
f 186//190 194//198 220//224
f 205//209 224//228 223//227
f 194//198 205//209 223//227
f 196//200 228//232 224//228
f 205//209 196//200 224//228
f 211//215 235//239 228//232
f 196//200 211//215 228//232
f 244//248 219//223 236//240
f 244//248 256//261 219//223
f 220//224 244//248 236//240
f 258//263 220//224 223//227
f 224//228 258//263 223//227
f 249//253 228//232 235//239
f 266//276 244//248 220//224
f 258//263 266//276 220//224
f 259//264 224//228 228//232
f 249//253 259//264 228//232
f 267//277 258//263 224//228
f 259//264 267//277 224//228
f 244//248 285//295 256//261
f 280//290 244//248 266//276
f 258//263 280//290 266//276
f 286//296 285//295 244//248
f 280//290 286//296 244//248
f 295//306 280//290 258//263
f 267//277 295//306 258//263
f 309//322 295//306 267//277
f 259//264 309//322 267//277
f 310//323 309//322 259//264
f 249//253 310//323 259//264
f 286//296 331//344 285//295
f 315//328 331//344 286//296
f 280//290 315//328 286//296
f 324//337 280//290 295//306
f 309//322 324//337 295//306
f 346//359 310//323 249//253
f 343//356 315//328 280//290
f 324//337 343//356 280//290
f 345//358 324//337 309//322
f 310//323 345//358 309//322
f 315//328 344//357 331//344
f 342//355 343//356 324//337
f 359//372 344//357 315//328
f 377//390 315//328 343//356
f 377//390 359//372 315//328
f 377//390 343//356 342//355
f 355//368 324//337 345//358
f 355//368 342//355 324//337
f 354//367 345//358 310//323
f 354//367 355//368 345//358
f 354//367 310//323 346//359
f 362//375 354//367 346//359
f 200//204 235//239 211//215
f 202//206 235//239 200//204
f 200//204 211//215 196//200
f 163//167 186//190 199//203
f 163//167 199//203 201//205
f 163//167 201//205 166//170
f 145//149 163//167 166//170
f 145//149 166//170 161//165
f 167//171 186//190 163//167
f 154//158 163//167 145//149
f 154//158 167//171 163//167
f 125//129 154//158 145//149
f 161//165 127//131 145//149
f 125//129 145//149 127//131
f 174//178 186//190 167//171
f 174//178 194//198 186//190
f 149//153 167//171 154//158
f 149//153 174//178 167//171
f 112//116 154//158 125//129
f 112//116 149//153 154//158
f 127//131 120//124 125//129
f 112//116 125//129 120//124
f 104//107 112//116 120//124
f 205//209 194//198 174//178
f 182//186 205//209 174//178
f 182//186 174//178 149//153
f 157//161 182//186 149//153
f 157//161 149//153 112//116
f 123//127 157//161 112//116
f 99//102 123//127 112//116
f 99//102 112//116 104//107
f 96//98 104//107 120//124
f 196//200 205//209 182//186
f 184//188 196//200 182//186
f 184//188 182//186 157//161
f 152//156 184//188 157//161
f 118//122 157//161 123//127
f 118//122 152//156 157//161
f 118//122 123//127 99//102
f 101//104 118//122 99//102
f 92//94 99//102 104//107
f 92//94 101//104 99//102
f 86//87 104//107 96//99
f 200//204 196//200 184//188
f 192//196 200//204 184//188
f 162//166 184//188 152//156
f 162//166 192//196 184//188
f 141//145 152//156 118//122
f 141//145 162//166 152//156
f 104//107 76//76 92//94
f 86//88 76//77 104//108
f 192//196 202//206 200//204
f 116//120 102//105 135//139
f 79//80 78//79 102//105
f 79//80 69//69 78//79
f 56//56 51//51 69//69
f 56//56 42//42 51//51
f 36//36 51//51 42//42
f 39//39 34//34 42//42
f 39//39 42//42 56//56
f 79//80 56//56 69//69
f 103//106 79//80 102//105
f 108//112 102//105 78//79
f 108//112 135//139 102//105
f 67//67 69//69 51//51
f 67//67 78//79 69//69
f 48//48 51//51 36//36
f 128//132 135//139 108//112
f 89//91 78//79 67//67
f 89//91 108//112 78//79
f 74//74 51//51 48//48
f 74//74 67//67 51//51
f 130//134 108//112 89//91
f 130//134 128//132 108//112
f 83//84 67//67 74//74
f 83//84 89//91 67//67
f 137//141 128//132 130//134
f 72//72 74//74 48//48
f 127//131 89//91 83//84
f 127//131 130//134 89//91
f 96//98 74//74 72//72
f 96//98 83//84 74//74
f 86//87 96//98 72//72
f 161//165 137//141 130//134
f 161//165 130//134 127//131
f 120//124 83//84 96//98
f 120//124 127//131 83//84
f 95//97 103//106 115//119
f 95//97 79//80 103//106
f 95//97 115//119 147//151
f 119//123 95//97 147//151
f 119//123 147//151 165//169
f 148//152 119//123 165//169
f 59//59 79//80 95//97
f 59//59 56//56 79//80
f 70//70 59//59 95//97
f 70//70 95//97 119//123
f 106//110 119//123 148//152
f 106//110 70//70 119//123
f 126//130 106//110 148//152
f 158//162 126//130 148//152
f 158//162 148//152 165//169
f 39//39 56//56 59//59
f 39//39 59//59 70//70
f 58//58 39//39 70//70
f 62//62 58//58 70//70
f 62//62 70//70 106//110
f 81//82 62//62 106//110
f 121//125 81//82 106//110
f 121//125 106//110 126//130
f 100//103 85//86 81//82
f 100//103 81//82 121//125
f 94//96 85//86 100//103
f 158//162 165//169 178//182
f 189//193 158//162 178//182
f 204//208 189//193 178//182
f 210//214 204//208 178//182
f 146//150 126//130 158//162
f 146//150 158//162 189//193
f 185//189 146//150 189//193
f 185//189 189//193 204//208
f 212//216 185//189 204//208
f 121//125 126//130 146//150
f 150//154 146//150 185//189
f 150//154 121//125 146//150
f 175//179 150//154 185//189
f 193//197 185//189 212//216
f 193//197 175//179 185//189
f 100//103 121//125 150//154
f 124//128 100//103 150//154
f 124//128 150//154 175//179
f 160//164 124//128 175//179
f 160//164 175//179 193//197
f 183//187 160//164 193//197
f 209//213 183//187 193//197
f 105//109 100//103 124//128
f 105//109 94//96 100//103
f 134//138 124//128 160//164
f 134//138 105//109 124//128
f 172//176 160//164 183//187
f 172//176 134//138 160//164
f 209//213 216//220 183//187
f 218//222 183//187 216//220
f 218//222 172//176 183//187
f 140//144 105//109 134//138
f 155//159 134//138 172//176
f 155//159 140//144 134//138
f 177//181 155//159 172//176
f 177//181 172//176 218//222
f 214//218 177//181 218//222
f 203//207 177//181 214//218
f 195//199 177//181 203//207
f 214//218 217//221 203//207
f 217//221 214//218 218//222
f 209//213 193//197 212//216
f 368//381 320//333 341//354
f 353//366 320//333 368//381
f 357//370 341//354 327//340
f 368//381 341//354 357//370
f 357//370 327//340 339//352
f 339//352 340//353 378//391
f 298//310 339//352 327//340
f 298//310 340//353 339//352
f 282//292 327//340 341//354
f 282//292 298//310 327//340
f 290//300 353//366 352//365
f 290//300 320//333 353//366
f 312//325 340//353 298//310
f 272//282 320//333 290//300
f 272//282 341//354 320//333
f 283//293 341//354 272//282
f 283//293 282//292 341//354
f 273//283 290//300 352//365
f 269//279 312//325 298//310
f 270//280 298//310 282//292
f 270//280 269//279 298//310
f 246//250 282//292 283//293
f 246//250 270//280 282//292
f 250//254 283//293 272//282
f 250//254 246//250 283//293
f 277//287 290//300 273//283
f 277//287 272//282 290//300
f 245//249 270//280 246//250
f 245//249 269//279 270//280
f 251//255 272//282 277//287
f 251//255 250//254 272//282
f 242//246 269//279 245//249
f 227//231 246//250 250//254
f 227//231 245//249 246//250
f 229//233 250//254 251//255
f 229//233 227//231 250//254
f 225//229 245//249 227//231
f 225//229 242//246 245//249
f 217//221 277//287 273//283
f 210//214 242//246 225//229
f 204//208 225//229 227//231
f 204//208 210//214 225//229
f 212//216 227//231 229//233
f 212//216 204//208 227//231
f 209//213 229//233 251//255
f 209//213 212//216 229//233
f 216//220 251//255 277//287
f 216//220 209//213 251//255
f 218//222 277//287 217//221
f 218//222 216//220 277//287
f 371//384 357//370 339//352
f 373//386 371//384 339//352
f 371//384 368//381 357//370
f 367//380 353//366 368//381
f 364//377 352//365 353//366
f 367//380 364//377 353//366
f 364//377 361//374 352//365
f 382//395 361//374 364//377
f 380//393 361//374 382//395
f 383//396 364//377 367//380
f 382//395 364//377 383//396
f 383//396 367//380 385//398
f 385//398 367//380 368//381
f 385//398 368//381 371//384
f 391//404 371//384 373//386
f 391//404 373//386 339//352
f 391//404 339//352 378//391
f 391//404 378//391 448//461
f 412//425 391//404 448//461
f 444//457 448//461 455//468
f 444//457 412//425 448//461
f 451//464 444//457 455//468
f 371//384 391//404 412//425
f 406//419 371//384 412//425
f 438//451 412//425 444//457
f 438//451 406//419 412//425
f 438//451 444//457 451//464
f 447//460 438//451 451//464
f 385//398 371//384 406//419
f 401//414 406//419 438//451
f 401//414 385//398 406//419
f 431//444 438//451 447//460
f 431//444 401//414 438//451
f 442//455 431//444 447//460
f 383//396 385//398 401//414
f 397//410 383//396 401//414
f 414//427 401//414 431//444
f 414//427 397//410 401//414
f 428//441 431//444 442//455
f 428//441 414//427 431//444
f 440//453 428//441 442//455
f 382//395 383//396 397//410
f 394//407 397//410 414//427
f 394//407 382//395 397//410
f 410//423 414//427 428//441
f 410//423 394//407 414//427
f 424//437 428//441 440//453
f 424//437 410//423 428//441
f 434//447 424//437 440//453
f 380//393 382//395 394//407
f 380//393 394//407 410//423
f 408//421 410//423 424//437
f 408//421 380//393 410//423
f 408//421 424//437 434//447
f 433//446 408//421 434//447
f 450//463 454//467 416//429
f 443//456 450//463 416//429
f 390//403 416//429 395//408
f 390//403 443//456 416//429
f 359//372 390//403 395//408
f 446//459 450//463 443//456
f 437//450 446//459 443//456
f 437//450 443//456 390//403
f 405//418 437//450 390//403
f 359//372 377//390 390//403
f 405//418 390//403 377//390
f 439//452 446//459 437//450
f 430//443 439//452 437//450
f 430//443 437//450 405//418
f 400//413 430//443 405//418
f 377//390 372//385 405//418
f 369//382 405//418 372//385
f 369//382 400//413 405//418
f 342//355 372//385 377//390
f 342//355 369//382 372//385
f 427//440 439//452 430//443
f 413//426 430//443 400//413
f 413//426 427//440 430//443
f 396//409 400//413 369//382
f 396//409 413//426 400//413
f 384//397 396//409 369//382
f 355//368 369//382 342//355
f 423//436 427//440 413//426
f 423//436 432//445 427//440
f 409//422 413//426 396//409
f 409//422 423//436 413//426
f 393//406 396//409 384//397
f 393//406 409//422 396//409
f 369//382 365//378 384//397
f 381//394 384//397 365//378
f 381//394 393//406 384//397
f 355//368 365//378 369//382
f 354//367 365//378 355//368
f 420//433 423//436 409//422
f 420//433 432//445 423//436
f 407//420 409//422 393//406
f 407//420 420//433 409//422
f 392//405 393//406 381//394
f 392//405 407//420 393//406
f 365//378 354//367 381//394
f 392//405 381//394 354//367
f 362//375 392//405 354//367
