# DPadUp.obj
# Valve Steam Controller (2026) CAD, CC BY-NC-SA 4.0
v -53.3668 -26.0153 -15.6098
v -53.5250 -25.9984 -15.7538
v -53.5004 -26.3766 -15.7435
v -53.4883 -26.9415 -15.7526
v -53.4347 -27.4548 -15.8477
v -52.9024 -26.0407 -14.8348
v -53.1984 -26.0210 -15.4099
v -52.8835 -26.3947 -14.8155
v -53.1488 -26.3918 -15.3461
v -52.8732 -26.9097 -14.8203
v -53.1576 -26.9827 -15.3829
v -52.8729 -27.3331 -14.9158
v -53.0383 -27.5015 -15.3831
v -53.2795 -27.4647 -15.7000
v -52.8320 -27.7970 -15.3815
v -53.0197 -27.8932 -15.9366
v -53.0250 -28.0125 -16.3810
v -52.4263 -25.8033 -9.0327
v -52.7038 -25.8198 -9.4693
v -52.7908 -25.8466 -9.9548
v -52.7923 -25.9080 -10.5231
v -52.7933 -25.9075 -11.0471
v -52.7928 -25.9308 -11.5527
v -52.7933 -25.9491 -12.1255
v -52.7940 -25.9594 -12.7039
v -52.7940 -25.9701 -13.1419
v -52.7940 -25.9972 -13.6967
v -52.7971 -26.0277 -14.2624
v -52.4460 -26.3812 -9.0760
v -52.6768 -26.3176 -9.4551
v -52.7798 -26.3865 -9.9750
v -52.7843 -26.3495 -10.5482
v -52.7850 -26.3495 -11.0372
v -52.7858 -26.3495 -11.5228
v -52.7865 -26.3531 -12.1303
v -52.7870 -26.3495 -12.7165
v -52.7878 -26.3445 -13.1893
v -52.7882 -26.3495 -13.7736
v -52.7943 -26.3929 -14.3213
v -52.4385 -27.0085 -9.1320
v -52.6333 -26.9795 -9.4192
v -52.7683 -26.8722 -9.9702
v -52.7757 -26.8495 -10.5835
v -52.7762 -26.8495 -11.0690
v -52.7770 -26.8495 -11.5507
v -52.7778 -26.8495 -12.1470
v -52.7785 -26.8495 -12.7357
v -52.7790 -26.8495 -13.2005
v -52.7796 -26.8429 -13.7853
v -52.7854 -26.8704 -14.3205
v -52.3490 -27.5475 -9.1270
v -52.5504 -27.5156 -9.3878
v -52.7471 -27.4458 -9.9222
v -52.7599 -27.4721 -10.5195
v -52.7628 -27.4531 -11.0758
v -52.7624 -27.4783 -11.6107
v -52.7631 -27.4690 -12.1122
v -52.7633 -27.4343 -12.6201
v -52.7630 -27.4317 -13.1824
v -52.7606 -27.3821 -13.8079
v -52.7586 -27.4223 -14.3216
v -52.7642 -27.5749 -14.7071
v -52.4160 -27.9776 -9.5020
v -52.5247 -28.0181 -9.9264
v -52.5692 -28.0169 -10.5146
v -52.6072 -27.9970 -11.1245
v -52.6047 -28.0008 -11.6232
v -52.6030 -27.9895 -12.1203
v -52.5415 -28.0345 -12.6205
v -52.5567 -27.9748 -13.1547
v -52.5061 -28.0009 -13.7368
v -52.4884 -27.9766 -14.2725
v -52.5412 -27.9244 -14.7672
v -52.5406 -28.0068 -15.3350
v -52.5148 -28.0739 -15.9199
v -52.5553 -28.0607 -16.3592
v -52.4244 -28.0149 -16.8554
v -52.3785 -28.2670 -11.1200
v -52.3725 -28.2715 -11.6280
v -52.3665 -28.2610 -12.1325
v -51.9832 -25.8603 -8.7498
v -52.0320 -26.2857 -8.7930
v -52.0256 -26.8879 -8.8404
v -52.0262 -27.5234 -8.9279
v -51.9649 -27.9146 -9.0393
v -52.0574 -28.1642 -9.3368
v -52.1910 -28.2440 -13.8835
v -52.1480 -28.2228 -14.2976
v -52.0385 -28.2116 -14.8296
v -52.0517 -28.1748 -15.3489
v -52.0727 -28.1225 -15.8560
v -51.9787 -28.0552 -16.4610
v -51.9945 -28.0013 -16.9535
v -51.9413 -27.9594 -17.3606
v -51.8968 -28.3390 -9.5556
v -52.0133 -28.3687 -9.9307
v -52.0394 -28.4089 -10.5857
v -52.0153 -28.4334 -11.0680
v -51.9882 -28.4408 -11.6010
v -51.9911 -28.4236 -12.1422
v -51.9838 -28.3982 -12.6485
v -51.9598 -28.3657 -13.1783
v -51.9335 -28.3327 -13.6755
v -51.8912 -28.2925 -14.2472
v -51.8380 -28.2585 -14.6760
v -51.3594 -25.9438 -8.5874
v -51.6368 -25.9366 -8.6483
v -51.3730 -26.4520 -8.6105
v -51.6125 -26.4225 -8.6630
v -51.5047 -26.9290 -8.6804
v -51.4980 -27.4872 -8.7509
v -51.4984 -27.9990 -8.9471
v -51.4105 -28.2493 -14.9377
v -51.4618 -28.1933 -15.3828
v -51.5925 -28.1255 -15.9035
v -51.4565 -28.0655 -16.4157
v -51.4180 -27.9945 -17.0158
v -51.4321 -27.9383 -17.5411
v -51.4150 -27.8930 -18.0267
v -51.4445 -28.4069 -9.4933
v -51.5377 -28.4565 -9.9301
v -51.5319 -28.4955 -10.5280
v -51.5182 -28.5143 -11.0800
v -51.5234 -28.5096 -11.5863
v -51.5293 -28.4898 -12.1059
v -51.4182 -28.4665 -12.6454
v -51.4698 -28.4183 -13.2063
v -51.4937 -28.3711 -13.7228
v -51.4899 -28.3162 -14.2868
v -51.6095 -28.2766 -14.6131
v -50.9142 -25.9398 -8.5042
v -51.0100 -26.3715 -8.5358
v -51.0107 -26.9940 -8.5830
v -50.8910 -27.3805 -8.6060
v -51.0083 -27.6048 -8.6623
v -51.0122 -27.9833 -8.7918
v -50.8787 -28.2162 -15.3803
v -50.9867 -28.1448 -15.8883
v -50.8883 -28.0675 -16.4917
v -50.8850 -27.9943 -17.0765
v -50.9300 -27.9367 -17.5817
v -50.9168 -27.8885 -18.0871
v -50.7880 -27.8560 -18.5095
v -51.0075 -28.2880 -9.0295
v -50.9257 -28.4855 -9.4750
v -50.9598 -28.5367 -9.9446
v -50.9433 -28.5693 -10.4615
v -50.9546 -28.5797 -11.0160
v -50.9177 -28.5727 -11.6000
v -50.9498 -28.5437 -12.1173
v -50.9143 -28.5045 -12.7018
v -50.9242 -28.4575 -13.2298
v -50.9161 -28.4091 -13.7380
v -50.9359 -28.3483 -14.2979
v -51.0141 -28.2911 -14.7520
v -50.4064 -26.0194 -8.4317
v -50.3906 -26.3171 -8.4391
v -50.4351 -26.8678 -8.4804
v -50.3741 -27.4778 -8.5405
v -50.3293 -27.8166 -8.5882
v -50.4440 -28.1029 -8.7337
v -50.5130 -28.2360 -15.3700
v -50.4300 -28.1645 -15.9130
v -50.3178 -28.1075 -16.3568
v -50.3890 -28.0270 -16.9307
v -50.3768 -27.9597 -17.4908
v -50.3959 -27.9025 -18.0466
v -50.3252 -27.8626 -18.5569
v -50.3087 -27.8362 -18.9848
v -50.4103 -28.4142 -9.0253
v -50.4050 -28.5653 -9.4496
v -50.2830 -28.6254 -9.9543
v -50.4546 -28.6319 -10.5364
v -50.4485 -28.6373 -11.0897
v -50.3212 -28.6365 -11.5663
v -50.3775 -28.6013 -12.0795
v -50.3977 -28.5523 -12.6672
v -50.3818 -28.5015 -13.2223
v -50.4262 -28.4403 -13.7857
v -50.3400 -28.4021 -14.1839
v -50.4705 -28.3110 -14.8385
v -50.1720 -28.2895 -15.1380
v -49.8950 -26.0535 -8.3798
v -49.7782 -26.3391 -8.3792
v -49.7865 -26.8915 -8.4115
v -49.7918 -27.3888 -8.4630
v -49.8017 -27.8422 -8.5318
v -49.7990 -28.1375 -8.6350
v -50.0190 -28.2315 -15.6080
v -49.8190 -28.2018 -15.9023
v -49.8773 -28.1098 -16.5130
v -49.8554 -28.0435 -17.0120
v -49.9004 -27.9737 -17.5590
v -49.8242 -27.9268 -18.0467
v -49.8154 -27.8804 -18.6056
v -49.8428 -27.8472 -19.1398
v -49.7160 -27.8384 -19.5690
v -49.8148 -28.4227 -8.8952
v -49.8499 -28.6329 -9.4023
v -49.8637 -28.6778 -9.9630
v -49.9150 -28.6965 -10.5370
v -49.9123 -28.6980 -11.0165
v -49.8295 -28.6910 -11.5020
v -49.8257 -28.6511 -12.1264
v -49.8430 -28.6004 -12.6933
v -49.8400 -28.5485 -13.2197
v -49.8394 -28.4910 -13.7561
v -49.8265 -28.4408 -14.1941
v -49.8917 -28.3530 -14.8257
v -49.8123 -28.2775 -15.3960
v -49.4005 -26.0780 -8.3510
v -49.3016 -26.3189 -8.3546
v -49.2980 -26.9495 -8.3883
v -49.3042 -27.4465 -8.4392
v -49.3210 -27.9719 -8.5343
v -49.4015 -28.2200 -15.9965
v -49.3505 -28.1698 -16.3642
v -49.2655 -28.0907 -16.9785
v -49.3210 -28.0128 -17.5650
v -49.3046 -27.9562 -18.1079
v -49.3013 -27.9105 -18.6578
v -49.3176 -27.8801 -19.1548
v -49.2639 -27.8680 -19.6707
v -49.1925 -27.8704 -20.0671
v -49.3357 -28.4797 -8.8738
v -49.3204 -28.6974 -9.3907
v -49.4006 -28.7318 -9.9393
v -49.3715 -28.7587 -10.5075
v -49.3505 -28.7608 -10.9835
v -49.3227 -28.7387 -11.6037
v -49.2901 -28.6977 -12.2207
v -49.2609 -28.6552 -12.7085
v -49.3279 -28.6008 -13.1787
v -49.2819 -28.5404 -13.7681
v -49.3660 -28.4789 -14.2126
v -49.3140 -28.3950 -14.8705
v -49.2970 -28.3240 -15.3620
v -49.2610 -28.2715 -15.7300
v -48.7684 -26.3162 -8.3510
v -48.7890 -26.9339 -8.3814
v -48.8220 -27.5030 -8.4363
v -48.8329 -27.9851 -8.5164
v -48.8253 -28.2053 -16.4597
v -48.7398 -28.1379 -17.0082
v -48.7830 -28.0613 -17.5770
v -48.7629 -28.0084 -18.0984
v -48.7853 -27.9633 -18.5931
v -48.7777 -27.9330 -19.0946
v -48.7848 -27.9136 -19.6293
v -48.9210 -27.8954 -20.0485
v -48.6960 -28.2685 -8.6140
v -48.8076 -28.5582 -8.8969
v -48.7731 -28.7541 -9.3490
v -48.9570 -28.7765 -9.8215
v -48.9578 -28.7817 -11.5432
v -48.8420 -28.7519 -12.1316
v -48.8032 -28.6997 -12.7384
v -48.7825 -28.6550 -13.1895
v -48.7701 -28.5894 -13.7938
v -48.8554 -28.5129 -14.3422
v -48.7823 -28.4435 -14.9010
v -48.7237 -28.3828 -15.3540
v -48.7362 -28.3065 -15.8458
v -48.5900 -28.2655 -16.2220
v -48.5240 -28.8035 -9.5110
v -48.7225 -28.8122 -9.9827
v -48.8416 -28.8186 -10.4985
v -48.8493 -28.8157 -11.0146
v -48.6995 -28.8135 -11.4940
v -48.2067 -26.3659 -8.3746
v -48.2499 -26.8745 -8.3957
v -48.2267 -27.4472 -8.4479
v -48.2326 -27.9737 -8.5213
v -48.2822 -28.1981 -16.9666
v -48.2569 -28.1304 -17.5331
v -48.2527 -28.0710 -18.0917
v -48.2510 -28.0273 -18.6098
v -48.2551 -27.9940 -19.1513
v -48.3737 -27.9638 -19.5391
v -48.2453 -28.5383 -8.8342
v -48.3030 -28.7875 -9.2390
v -48.4815 -28.7810 -12.2595
v -48.2728 -28.7545 -12.7710
v -48.2100 -28.7112 -13.2537
v -48.2377 -28.6502 -13.7775
v -48.2381 -28.6030 -14.1747
v -48.2057 -28.5145 -14.8673
v -48.1530 -28.4410 -15.4095
v -48.2260 -28.3590 -15.8955
v -48.1520 -28.2925 -16.4140
v -48.1861 -28.8308 -9.4363
v -48.1786 -28.8709 -9.9609
v -48.2385 -28.8868 -10.5373
v -48.2395 -28.8843 -11.0232
v -48.3105 -28.8558 -11.5175
v -48.2180 -28.8308 -12.0302
v -48.0847 -28.8032 -12.5030
v -47.8233 9.7142 -13.8097
v -47.6812 -26.3907 -8.4218
v -47.6302 -26.8918 -8.4477
v -47.6410 -27.3900 -8.4870
v -47.7114 -28.0014 -8.5627
v -47.4430 -28.2335 -8.6390
v -47.7895 -28.2415 -17.1630
v -47.7180 -28.2003 -17.5985
v -47.7167 -28.1528 -18.0654
v -47.7257 -28.1049 -18.6194
v -47.8123 -28.0643 -19.0455
v -47.6925 -28.5490 -8.8379
v -47.8056 -28.7605 -13.2376
v -47.6587 -28.7234 -13.7477
v -47.6824 -28.6719 -14.1715
v -47.6623 -28.6045 -14.7230
v -47.7617 -28.4998 -15.3663
v -47.6890 -28.4328 -15.8990
v -47.6770 -28.3598 -16.4150
v -47.6297 -28.3038 -16.8733
v -47.4480 -28.2765 -17.3200
v -47.5760 -28.7995 -9.1330
v -47.6706 -28.8878 -9.4840
v -47.6984 -28.9251 -10.0063
v -47.6262 -28.9535 -10.5376
v -47.6583 -28.9480 -11.0932
v -47.7887 -28.9128 -11.5755
v -47.7208 -28.8838 -12.0928
v -47.6495 -28.8450 -12.6077
v -47.6440 -28.8075 -12.9780
v -47.1177 9.6963 -13.8017
v -47.1378 -26.4564 -8.4967
v -47.1713 -26.9438 -8.5112
v -47.1840 -27.4420 -8.5505
v -47.2462 -27.9380 -8.6032
v -47.0795 -28.0850 -8.6485
v -47.3640 -28.2525 -17.6560
v -47.2733 -28.2208 -18.1387
v -47.2855 -28.1870 -18.5245
v -47.1306 -28.5185 -8.8459
v -47.2665 -28.7710 -13.7738
v -47.1216 -28.7359 -14.2644
v -47.1465 -28.6515 -14.9155
v -47.1576 -28.5809 -15.4306
v -47.1495 -28.5070 -15.9635
v -47.1950 -28.4275 -16.4865
v -47.1563 -28.3585 -17.0653
v -47.1305 -28.3090 -17.5220
v -47.0746 -28.2757 -17.9468
v -47.1503 -28.9223 -9.4624
v -47.1486 -28.9812 -9.9898
v -47.0670 -29.0125 -10.4703
v -47.1020 -29.0123 -11.0220
v -47.1978 -28.9803 -11.6064
v -47.2227 -28.9373 -12.1883
v -47.1767 -28.8948 -12.7067
v -47.2095 -28.8402 -13.1968
v -47.0083 -28.8145 -13.6930
v -46.5490 9.6640 -13.7865
v -46.6603 -26.5118 -8.5835
v -46.7195 -26.9945 -8.5925
v -46.3820 -26.9185 -8.6589
v -46.8450 -27.4800 -8.6085
v -46.5025 -27.5185 -8.6791
v -46.6522 -28.0231 -8.7143
v -46.6494 -28.5380 -8.9097
v -46.7592 -28.7720 -14.4046
v -46.6950 -28.7318 -14.8243
v -46.6224 -28.6769 -15.3618
v -46.7115 -28.5890 -15.9070
v -46.6538 -28.5388 -16.3680
v -46.6488 -28.4650 -16.9635
v -46.6987 -28.3879 -17.5576
v -46.7490 -28.3320 -18.0200
v -46.5980 -28.8065 -9.1430
v -46.5209 -28.9518 -9.4457
v -46.5199 -29.0324 -9.8389
v -46.6255 -29.0610 -10.5710
v -46.6335 -29.0660 -11.0585
v -46.5285 -29.0612 -11.6277
v -46.5378 -29.0305 -12.1111
v -46.5700 -28.9786 -12.6750
v -46.5418 -28.9296 -13.2072
v -46.5439 -28.8710 -13.7701
v -46.4844 -28.8231 -14.3066
v -46.3646 -28.8126 -14.5756
v -46.2257 9.6358 -13.7750
v -46.1505 -26.5030 -8.7036
v -46.0638 -26.8344 -8.7397
v -46.0994 -27.3945 -8.7667
v -46.0484 -28.0273 -8.8625
v -46.1383 -28.5186 -8.9968
v -45.9297 -28.6965 -9.2063
v -45.8612 -28.7847 -14.2975
v -46.1496 -28.7751 -14.8788
v -46.0660 -28.7557 -15.3283
v -46.0280 -28.7134 -15.8894
v -46.0735 -28.6358 -16.4850
v -46.1850 -28.5495 -17.0293
v -46.1273 -28.5185 -17.4327
v -46.1049 -28.9310 -9.4894
v -46.1432 -29.0421 -9.9090
v -46.1964 -29.0804 -10.4668
v -46.2174 -29.0933 -11.0025
v -46.1115 -29.0779 -11.5608
v -46.0088 -29.0169 -12.2279
v -46.0081 -28.9743 -12.7308
v -46.0053 -28.9255 -13.2214
v -46.0011 -28.8745 -13.7138
v -46.1171 -28.8500 -14.2150
v -46.1689 -28.8134 -14.6590
v -45.5230 9.5497 -13.7435
v -45.6515 -26.5399 -8.9629
v -45.3593 -26.5831 -9.3176
v -45.6425 -26.8400 -8.9812
v -45.3528 -26.8208 -9.3499
v -45.6545 -27.3470 -9.0103
v -45.3652 -27.4433 -9.3900
v -45.6763 -27.9496 -9.0662
v -45.4168 -28.0828 -9.4063
v -45.2810 -28.1225 -9.7020
v -45.2874 -28.2064 -14.3523
v -45.7415 -28.3998 -9.1192
v -45.5361 -28.4912 -9.4438
v -45.3816 -28.5528 -9.9607
v -45.3975 -28.6233 -10.4555
v -45.3990 -28.6388 -10.9532
v -45.4007 -28.6294 -11.5753
v -45.4012 -28.5960 -12.1945
v -45.4013 -28.5552 -12.6872
v -45.4367 -28.5455 -13.1990
v -45.4629 -28.5275 -13.6735
v -45.5117 -28.5241 -14.2998
v -45.5264 -28.5526 -14.8580
v -45.4439 -28.6004 -15.3503
v -45.5392 -28.7401 -15.9010
v -45.5502 -28.7464 -16.3991
v -45.5970 -28.6845 -16.9313
v -45.7110 -28.8072 -9.5617
v -45.6879 -28.8870 -9.9239
v -45.7155 -28.9433 -10.4413
v -45.7203 -28.9595 -10.9518
v -45.7265 -28.9500 -11.5893
v -45.6495 -28.8695 -12.2160
v -45.6510 -28.8290 -12.7135
v -45.6520 -28.7945 -13.0830
v -45.2516 -26.6127 -9.5826
v -45.2170 -26.6275 -9.7440
v -45.2336 -26.9158 -9.6876
v -45.2110 -26.9275 -10.0089
v -45.2108 -26.9367 -10.5365
v -45.2096 -26.9205 -11.0413
v -45.2097 -26.9474 -11.5398
v -45.2092 -26.9595 -12.1211
v -45.2091 -26.9777 -12.7044
v -45.2084 -26.9679 -13.1926
v -45.2084 -26.9858 -13.7407
v -45.2036 -27.0320 -14.2909
v -45.1069 -27.0272 -14.8163
v -44.8963 -27.0551 -15.2704
v -45.2293 -27.5181 -9.9270
v -45.2213 -27.5441 -10.5302
v -45.2200 -27.5160 -11.1005
v -45.2198 -27.5160 -11.5938
v -45.2186 -27.4911 -12.1394
v -45.2185 -27.5160 -12.6825
v -45.2180 -27.5158 -13.1595
v -45.2177 -27.5189 -13.7549
v -45.2100 -27.5218 -14.3309
v -45.1212 -27.5067 -14.8134
v -44.9221 -27.5025 -15.2517
v -45.2379 -28.0247 -9.9795
v -45.2293 -28.0097 -10.5468
v -45.2293 -28.0334 -11.0465
v -45.2285 -28.0367 -11.5703
v -45.2312 -28.0426 -12.1380
v -45.2317 -28.0285 -12.6467
v -45.2313 -28.0064 -13.1812
v -45.2323 -27.9839 -13.7388
v -45.2312 -27.9556 -14.2651
v -45.1564 -27.9844 -14.8124
v -44.8933 -27.9385 -15.3535
v -45.2510 -28.2715 -10.1060
v -45.2510 -28.2919 -10.4786
v -45.2510 -28.3054 -10.9469
v -45.2503 -28.2938 -11.5610
v -45.2500 -28.2685 -12.0470
v -45.2620 -28.2985 -14.8930
v -45.0973 -28.3700 -15.4008
v -44.9994 -28.5530 -15.8493
v -45.0571 -28.7516 -16.2631
v -44.6750 -27.0755 -15.5650
v -44.5072 -27.0894 -15.7261
v -44.7130 -27.4960 -15.5410
v -44.5128 -27.5057 -15.7345
v -44.7110 -27.9645 -15.5830
v -44.5712 -27.9243 -15.7201
v -44.6327 -28.3700 -15.8908
g DPadUp
f 446 445 444
f 446 447 445
f 413 411 410
f 412 413 410
f 413 444 411
f 413 446 444
f 212 211 183
f 212 183 184
f 39 28 6
f 38 27 28
f 37 26 27
f 38 37 27
f 9 7 1
f 9 6 7
f 9 8 6
f 8 39 6
f 385 359 386
f 385 357 359
f 358 359 357
f 358 357 329
f 330 358 329
f 330 329 299
f 300 330 299
f 300 299 270
f 271 300 270
f 271 270 239
f 240 271 239
f 183 157 184
f 183 156 157
f 131 132 157
f 156 131 157
f 131 106 132
f 108 106 107
f 108 132 106
f 109 107 81
f 109 108 107
f 82 109 81
f 387 386 359
f 240 239 212
f 213 240 212
f 213 212 184
f 185 213 184
f 185 184 157
f 158 185 157
f 158 157 132
f 361 359 358
f 361 387 359
f 360 358 330
f 360 361 358
f 331 360 330
f 331 330 300
f 301 331 300
f 301 300 271
f 272 301 271
f 133 158 132
f 133 132 108
f 110 108 109
f 110 133 108
f 110 109 82
f 83 110 82
f 272 271 240
f 241 272 240
f 241 240 213
f 214 241 213
f 214 213 185
f 186 214 185
f 186 185 158
f 159 186 158
f 388 387 361
f 362 388 361
f 362 361 360
f 362 360 331
f 332 362 331
f 332 331 301
f 302 332 301
f 302 301 272
f 273 302 272
f 159 158 133
f 134 159 133
f 135 133 110
f 135 134 133
f 111 135 110
f 111 110 83
f 333 362 332
f 273 272 241
f 242 273 241
f 242 241 214
f 215 242 214
f 215 214 186
f 187 215 186
f 187 186 159
f 135 159 134
f 83 84 111
f 160 187 159
f 135 160 159
f 389 388 362
f 389 362 363
f 337 362 333
f 363 362 337
f 337 333 332
f 303 332 302
f 337 332 303
f 161 160 135
f 161 135 136
f 112 135 111
f 136 135 112
f 112 111 84
f 466 465 477
f 465 476 477
f 465 475 476
f 465 464 475
f 464 474 475
f 464 463 474
f 462 473 474
f 463 462 474
f 461 472 473
f 462 461 473
f 460 471 472
f 461 460 472
f 459 470 471
f 460 459 471
f 459 469 470
f 459 458 469
f 446 458 447
f 448 458 459
f 448 447 458
f 449 459 460
f 449 448 459
f 450 460 461
f 450 449 460
f 451 461 462
f 451 450 461
f 452 462 463
f 452 451 462
f 453 463 464
f 453 452 463
f 454 464 465
f 454 453 464
f 455 454 465
f 466 455 465
f 483 484 473
f 483 473 472
f 482 472 471
f 482 483 472
f 481 471 470
f 481 482 471
f 480 470 469
f 480 481 470
f 37 25 26
f 37 36 25
f 36 24 25
f 36 35 24
f 34 23 24
f 35 34 24
f 33 22 23
f 34 33 23
f 32 21 22
f 33 32 22
f 31 20 21
f 32 31 21
f 30 20 31
f 28 39 38
f 50 61 60
f 49 50 60
f 48 60 59
f 48 49 60
f 47 59 58
f 47 48 59
f 46 58 57
f 46 47 58
f 46 57 56
f 45 46 56
f 45 56 55
f 44 45 55
f 43 55 54
f 43 44 55
f 42 54 53
f 42 43 54
f 39 50 49
f 38 39 49
f 38 49 48
f 37 38 48
f 37 48 47
f 36 37 47
f 36 47 46
f 35 36 46
f 35 46 45
f 34 35 45
f 34 45 44
f 33 34 44
f 33 44 43
f 32 33 43
f 32 43 42
f 31 32 42
f 492 490 489
f 491 489 457
f 492 489 491
f 491 457 468
f 468 457 456
f 468 456 467
f 467 456 455
f 467 455 466
f 491 479 494
f 493 494 479
f 492 491 494
f 491 468 479
f 467 478 479
f 468 467 479
f 466 477 478
f 467 466 478
f 3 1 2
f 3 9 1
f 50 10 61
f 10 12 61
f 61 12 62
f 13 12 11
f 10 11 12
f 13 11 14
f 14 11 4
f 14 4 5
f 3 4 11
f 9 3 11
f 9 11 10
f 8 9 10
f 8 10 50
f 39 8 50
f 410 386 412
f 410 385 386
f 422 469 418
f 421 418 417
f 469 417 418
f 421 422 418
f 421 417 416
f 420 421 416
f 420 416 388
f 389 420 388
f 415 416 417
f 415 417 469
f 458 415 469
f 387 388 416
f 414 387 416
f 414 416 415
f 446 415 458
f 386 387 414
f 412 386 414
f 412 414 415
f 413 412 415
f 413 415 446
f 82 81 18
f 82 18 29
f 30 18 19
f 29 18 30
f 30 19 20
f 42 53 52
f 41 42 52
f 51 84 52
f 40 52 84
f 40 41 52
f 83 40 84
f 31 42 41
f 30 31 41
f 30 41 40
f 29 40 83
f 29 30 40
f 82 29 83
f 399 398 374
f 348 374 347
f 373 347 374
f 348 347 320
f 373 374 398
f 348 320 321
f 292 320 291
f 321 320 292
f 292 291 265
f 266 265 253
f 291 253 265
f 292 265 266
f 254 253 226
f 254 266 253
f 227 254 226
f 227 226 199
f 200 227 199
f 172 199 171
f 172 200 199
f 172 171 145
f 146 145 120
f 146 120 121
f 281 253 291
f 95 96 121
f 95 121 120
f 146 172 145
f 394 395 434
f 395 435 434
f 368 394 367
f 368 395 394
f 366 341 367
f 394 366 367
f 342 367 341
f 315 341 314
f 315 342 341
f 287 262 288
f 314 287 288
f 287 261 262
f 261 237 262
f 236 210 237
f 261 236 237
f 236 209 210
f 182 162 210
f 189 210 162
f 209 182 210
f 163 162 137
f 163 189 162
f 138 163 137
f 114 115 138
f 137 114 138
f 116 115 92
f 116 138 115
f 115 91 92
f 76 77 92
f 91 76 92
f 93 92 77
f 75 76 91
f 114 91 115
f 181 162 182
f 181 137 162
f 209 181 182
f 313 314 341
f 313 287 314
f 340 313 341
f 366 340 341
f 393 366 394
f 433 394 434
f 90 91 114
f 113 114 137
f 155 137 181
f 155 113 137
f 208 209 236
f 235 236 261
f 235 208 236
f 260 261 287
f 260 235 261
f 286 260 287
f 313 286 287
f 365 340 366
f 393 365 366
f 90 75 91
f 113 90 114
f 154 155 181
f 180 181 209
f 180 154 181
f 208 180 209
f 312 286 313
f 339 313 340
f 339 312 313
f 365 339 340
f 392 365 393
f 408 392 393
f 89 90 113
f 130 113 155
f 130 89 113
f 129 130 155
f 154 129 155
f 259 260 286
f 234 235 260
f 259 234 260
f 382 365 392
f 364 339 365
f 382 364 365
f 383 382 392
f 408 383 392
f 105 89 130
f 207 208 235
f 234 207 235
f 285 259 286
f 396 435 395
f 368 367 342
f 315 314 288
f 289 288 262
f 289 315 288
f 263 289 262
f 263 262 237
f 238 237 210
f 238 263 237
f 190 210 189
f 190 238 210
f 190 189 163
f 139 138 116
f 139 163 138
f 93 116 92
f 397 435 396
f 369 395 368
f 369 396 395
f 343 368 342
f 343 342 315
f 316 343 315
f 216 238 190
f 216 263 238
f 164 190 163
f 164 163 139
f 117 116 93
f 117 139 116
f 94 117 93
f 369 368 343
f 290 315 289
f 290 316 315
f 290 289 263
f 264 290 263
f 243 263 216
f 243 264 263
f 217 243 216
f 217 216 190
f 191 190 164
f 191 217 190
f 140 139 117
f 118 117 94
f 370 396 369
f 370 397 396
f 344 369 343
f 317 343 316
f 317 344 343
f 243 290 264
f 165 164 139
f 165 191 164
f 165 139 140
f 118 140 117
f 370 369 344
f 317 316 290
f 274 317 290
f 274 290 243
f 244 274 243
f 218 243 217
f 218 217 191
f 192 218 191
f 192 191 165
f 141 140 118
f 345 370 344
f 318 344 317
f 318 345 344
f 304 318 317
f 304 317 274
f 244 243 218
f 166 165 140
f 166 192 165
f 166 140 141
f 142 118 119
f 142 141 118
f 346 370 345
f 346 371 370
f 334 345 318
f 334 346 345
f 305 318 304
f 305 334 318
f 275 304 274
f 275 305 304
f 219 218 192
f 193 219 192
f 193 192 166
f 167 166 141
f 142 167 141
f 335 346 334
f 306 334 305
f 306 335 334
f 275 274 244
f 245 275 244
f 245 244 218
f 219 245 218
f 167 193 166
f 336 346 335
f 306 305 275
f 276 306 275
f 194 219 193
f 194 193 167
f 168 142 143
f 168 167 142
f 307 335 306
f 307 336 335
f 246 275 245
f 246 276 275
f 246 245 219
f 220 246 219
f 220 219 194
f 168 194 167
f 277 306 276
f 277 307 306
f 195 220 194
f 195 194 168
f 277 276 246
f 247 277 246
f 247 246 220
f 221 247 220
f 221 220 195
f 196 168 169
f 196 195 168
f 278 308 307
f 278 307 277
f 222 221 195
f 196 222 195
f 248 277 247
f 248 278 277
f 248 247 221
f 222 248 221
f 223 222 196
f 223 196 197
f 249 279 278
f 249 278 248
f 249 248 222
f 223 249 222
f 250 249 223
f 250 223 224
f 285 286 312
f 311 285 312
f 311 312 339
f 338 311 339
f 382 339 364
f 408 382 383
f 355 338 339
f 381 339 382
f 381 355 339
f 408 407 382
f 284 259 285
f 284 258 259
f 310 285 311
f 310 284 285
f 233 259 258
f 233 234 259
f 354 311 338
f 354 310 311
f 354 338 355
f 380 355 381
f 380 354 355
f 407 381 382
f 283 258 284
f 283 257 258
f 310 283 284
f 354 327 310
f 406 380 381
f 406 381 407
f 232 258 257
f 232 233 258
f 297 283 310
f 326 310 327
f 326 297 310
f 326 327 354
f 353 326 354
f 379 354 380
f 379 353 354
f 405 380 406
f 282 257 283
f 282 256 257
f 297 282 283
f 405 379 380
f 231 257 256
f 231 232 257
f 296 282 297
f 325 297 326
f 325 296 297
f 352 326 353
f 352 325 326
f 379 352 353
f 404 379 405
f 296 256 282
f 378 352 379
f 404 378 379
f 230 231 256
f 230 256 255
f 295 256 296
f 269 255 256
f 295 269 256
f 324 296 325
f 324 295 296
f 351 325 352
f 351 324 325
f 378 351 352
f 403 378 404
f 377 351 378
f 268 269 295
f 268 255 269
f 294 268 295
f 294 295 324
f 323 294 324
f 323 324 351
f 350 323 351
f 403 377 378
f 402 377 403
f 229 255 268
f 229 230 255
f 376 351 377
f 376 350 351
f 401 376 377
f 402 401 377
f 293 268 294
f 293 267 268
f 322 294 323
f 322 293 294
f 350 322 323
f 228 268 267
f 228 229 268
f 349 322 350
f 375 350 376
f 375 349 350
f 400 375 376
f 401 400 376
f 292 267 293
f 292 266 267
f 321 293 322
f 321 292 293
f 227 228 267
f 227 267 266
f 348 322 349
f 348 321 322
f 374 349 375
f 374 348 349
f 400 374 375
f 227 266 254
f 400 399 374
f 122 121 96
f 104 105 130
f 89 105 104
f 129 104 130
f 179 154 180
f 179 153 154
f 207 180 208
f 207 179 180
f 128 129 154
f 153 128 154
f 103 104 129
f 128 103 129
f 178 153 179
f 178 179 207
f 206 178 207
f 233 207 234
f 233 206 207
f 127 128 153
f 152 127 153
f 152 153 178
f 102 103 128
f 127 102 128
f 205 178 206
f 205 177 178
f 205 206 233
f 232 205 233
f 126 127 152
f 151 126 152
f 151 152 178
f 177 151 178
f 101 102 127
f 126 101 127
f 231 205 232
f 231 204 205
f 150 126 151
f 150 151 177
f 176 150 177
f 176 177 205
f 204 176 205
f 100 101 126
f 125 100 126
f 150 125 126
f 230 204 231
f 149 150 176
f 175 149 176
f 175 176 204
f 203 175 204
f 203 204 230
f 99 100 125
f 124 99 125
f 124 125 150
f 149 124 150
f 174 149 175
f 174 148 149
f 202 175 203
f 202 174 175
f 229 203 230
f 229 202 203
f 123 99 124
f 123 124 149
f 148 123 149
f 98 99 123
f 173 148 174
f 173 174 202
f 201 173 202
f 201 202 229
f 228 201 229
f 122 98 123
f 122 123 148
f 147 122 148
f 147 148 173
f 97 98 122
f 172 173 201
f 200 172 201
f 227 201 228
f 227 200 201
f 121 122 147
f 146 121 147
f 146 147 173
f 172 146 173
f 96 97 122
f 16 76 75
f 16 17 76
f 74 75 90
f 74 90 89
f 74 16 75
f 73 74 89
f 88 73 89
f 104 88 89
f 15 16 74
f 88 72 73
f 14 5 16
f 13 16 15
f 13 14 16
f 13 15 74
f 73 15 74
f 13 15 73
f 12 13 73
f 62 12 73
f 72 62 73
f 72 61 62
f 65 96 64
f 65 97 96
f 53 54 65
f 64 53 65
f 78 97 65
f 78 98 97
f 66 78 65
f 55 65 54
f 55 66 65
f 79 98 78
f 79 99 98
f 67 78 66
f 67 79 78
f 56 66 55
f 56 67 66
f 80 99 79
f 80 100 99
f 68 79 67
f 68 80 79
f 57 67 56
f 57 68 67
f 69 100 80
f 69 101 100
f 69 80 68
f 58 68 57
f 58 69 68
f 70 101 69
f 70 102 101
f 59 69 58
f 59 70 69
f 71 102 70
f 71 103 102
f 71 87 103
f 60 70 59
f 60 71 70
f 87 104 103
f 88 104 87
f 72 87 71
f 72 88 87
f 61 71 60
f 61 72 71
f 52 53 64
f 52 64 63
f 63 64 96
f 112 84 85
f 112 85 86
f 112 86 120
f 120 86 95
f 63 86 85
f 63 85 84
f 52 63 84
f 96 95 86
f 63 96 86
f 170 145 171
f 170 171 199
f 198 170 199
f 198 199 226
f 225 198 226
f 225 226 253
f 252 225 253
f 252 253 281
f 280 281 291
f 280 252 281
f 280 291 320
f 309 280 320
f 319 320 347
f 319 309 320
f 112 120 145
f 144 112 145
f 144 145 170
f 309 319 347
f 337 309 347
f 337 347 373
f 363 337 373
f 372 363 373
f 136 112 144
f 136 144 170
f 161 136 170
f 161 170 198
f 389 363 373
f 398 389 373
f 188 161 198
f 188 198 225
f 215 188 225
f 215 225 252
f 242 215 252
f 251 252 280
f 251 242 252
f 160 161 188
f 187 160 188
f 187 188 215
f 242 251 280
f 273 242 280
f 273 280 309
f 302 273 309
f 303 309 337
f 303 302 309
f 436 421 398
f 390 398 421
f 420 390 421
f 389 390 420
f 389 398 390
f 480 469 422
f 398 399 437
f 436 398 437
f 421 437 422
f 421 436 437
f 406 407 391
f 406 391 430
f 429 406 430
f 477 476 430
f 429 430 476
f 419 477 430
f 408 391 407
f 405 406 429
f 428 405 429
f 428 429 476
f 475 428 476
f 443 405 428
f 404 405 443
f 442 443 428
f 442 404 443
f 427 442 428
f 427 428 475
f 474 427 475
f 403 404 442
f 441 442 427
f 441 403 442
f 426 441 427
f 426 427 474
f 473 426 474
f 484 426 473
f 440 403 441
f 440 402 403
f 440 441 426
f 425 440 426
f 425 426 484
f 483 425 484
f 401 402 440
f 439 401 440
f 439 440 425
f 424 439 425
f 424 425 483
f 482 424 483
f 400 401 439
f 438 400 439
f 438 439 424
f 423 438 424
f 423 424 482
f 481 423 482
f 399 400 438
f 437 399 438
f 437 438 423
f 422 437 423
f 422 423 481
f 480 422 481
f 478 477 419
f 431 419 430
f 478 419 431
f 392 430 391
f 431 430 392
f 392 391 408
f 433 393 394
f 488 433 434
f 431 392 393
f 432 393 433
f 432 431 393
f 487 433 488
f 487 432 433
f 486 432 487
f 485 431 432
f 486 485 432
f 478 431 485
f 478 485 486
f 479 478 486
f 479 486 487
f 479 487 495
f 494 479 495
