# DPadDown.obj
# Valve Steam Controller (2026) CAD, CC BY-NC-SA 4.0
v -53.6290 -26.0675 -24.1660
v -53.5901 -26.2577 -24.1896
v -53.6184 -26.9775 -24.1467
v -53.6040 -27.4370 -24.0225
v -53.4905 -26.0865 -24.2750
v -53.4598 -26.5049 -24.2878
v -53.1953 -26.3465 -24.5992
v -53.4566 -26.9427 -24.2765
v -53.1503 -27.0313 -24.6279
v -53.3510 -27.5017 -24.2108
v -53.1387 -27.4397 -24.5097
v -53.0890 -27.9895 -23.6970
v -53.1355 -27.8582 -24.0118
v -52.7940 -26.0895 -27.5670
v -52.7940 -26.0731 -27.9431
v -52.7940 -26.0495 -28.4540
v -52.7940 -26.0244 -28.9737
v -52.7940 -25.9975 -29.4881
v -52.7936 -25.9928 -30.0266
v -52.6925 -25.9497 -30.5638
v -52.5240 -25.9545 -30.8680
v -52.8859 -26.3781 -25.1881
v -52.7960 -26.4098 -25.6837
v -52.7912 -26.3138 -26.2331
v -52.7912 -26.2821 -26.8038
v -52.7908 -26.2917 -27.2795
v -52.7898 -26.3335 -27.7817
v -52.7892 -26.3385 -28.3747
v -52.7888 -26.3335 -28.9734
v -52.7882 -26.3439 -29.4594
v -52.7873 -26.2940 -30.0393
v -52.6909 -26.2807 -30.5349
v -52.4855 -26.1957 -30.9038
v -52.8823 -27.0271 -25.1586
v -52.7857 -26.9309 -25.6847
v -52.7819 -26.8448 -26.2143
v -52.7818 -26.8385 -26.8183
v -52.7812 -26.8385 -27.2870
v -52.7806 -26.8635 -27.8296
v -52.7810 -26.8135 -28.4036
v -52.7800 -26.8385 -28.9552
v -52.7797 -26.8385 -29.4398
v -52.7749 -26.8741 -30.0011
v -52.6653 -26.8450 -30.5440
v -52.9413 -27.5475 -24.7513
v -52.8471 -27.4030 -25.1319
v -52.7589 -27.4375 -25.6448
v -52.7571 -27.4453 -26.1794
v -52.7689 -27.4035 -26.7957
v -52.7675 -27.4671 -27.3608
v -52.7701 -27.4607 -27.8594
v -52.7694 -27.4837 -28.3556
v -52.7684 -27.5005 -28.8924
v -52.7680 -27.4972 -29.4769
v -52.7622 -27.4112 -30.0293
v -52.6343 -27.4965 -30.5329
v -52.5685 -27.9890 -22.8585
v -52.6698 -28.0546 -23.6085
v -52.7580 -27.9928 -24.1085
v -52.6893 -27.9173 -24.6233
v -52.6066 -27.8752 -25.2005
v -52.5601 -27.9165 -25.7697
v -52.6219 -27.8758 -26.2781
v -52.6318 -27.9157 -26.8190
v -52.6312 -27.9770 -27.3090
v -52.6613 -27.9586 -27.8099
v -52.6617 -28.0063 -28.3029
v -52.6873 -27.9920 -28.9026
v -52.6843 -28.0008 -29.5577
v -52.6733 -28.0017 -29.9951
v -52.5540 -27.9549 -30.4942
v -52.5540 -28.2585 -29.0400
v -52.4867 -28.3325 -29.5063
v -52.4818 -28.3140 -30.0379
v -52.2316 -25.9781 -31.1218
v -52.2049 -26.2646 -31.1265
v -52.2575 -26.9068 -31.0473
v -52.2480 -27.4239 -30.9934
v -52.1740 -27.9545 -22.5560
v -52.2290 -28.0048 -23.0687
v -52.1483 -28.0518 -23.5195
v -52.1768 -28.1157 -24.1253
v -52.1754 -28.1470 -24.6027
v -52.1141 -28.1806 -25.1318
v -52.2610 -28.1701 -25.7892
v -52.3635 -28.1660 -26.2938
v -52.4295 -28.1755 -26.7855
v -52.4305 -28.2365 -27.2755
v -52.3182 -28.0891 -30.7291
v -52.1299 -27.9182 -30.9694
v -51.9680 -28.2900 -25.7875
v -52.0591 -28.3187 -26.2891
v -52.1346 -28.3429 -26.7636
v -52.1408 -28.4030 -27.2566
v -52.2077 -28.4231 -27.7529
v -52.2181 -28.4797 -28.3847
v -52.2369 -28.5062 -29.0249
v -52.1848 -28.5412 -29.5538
v -52.1721 -28.5144 -30.0852
v -52.1146 -28.4266 -30.5019
v -51.7198 -26.0508 -31.3339
v -51.4716 -26.0599 -31.3902
v -51.7585 -26.3305 -31.3162
v -51.4047 -26.2707 -31.4000
v -51.7141 -26.9181 -31.2911
v -51.3870 -26.7955 -31.3790
v -51.6667 -27.4139 -31.2493
v -51.4810 -27.8975 -22.0240
v -51.6115 -27.9350 -22.4225
v -51.6140 -27.9929 -22.9746
v -51.6810 -28.0612 -23.5757
v -51.5210 -28.1145 -23.9953
v -51.6364 -28.1926 -24.6616
v -51.6353 -28.2508 -25.1650
v -51.6519 -27.9432 -31.1490
v -51.7040 -28.2680 -25.3529
v -51.6858 -28.3047 -25.6909
v -51.6771 -28.3632 -26.2197
v -51.6580 -28.4300 -26.7641
v -51.6316 -28.5049 -27.3335
v -51.7099 -28.5589 -27.8183
v -51.7556 -28.6111 -28.3754
v -51.7700 -28.6442 -28.9366
v -51.7312 -28.6537 -29.5347
v -51.7661 -28.6264 -30.1099
v -51.7198 -28.5574 -30.5195
v -51.6914 -28.3406 -30.9050
v -51.2080 -26.0895 -31.4440
v -51.0398 -26.2864 -31.4707
v -51.0363 -26.9567 -31.4360
v -51.1540 -27.5655 -31.3480
v -50.9980 -27.4168 -31.3967
v -50.8870 -27.8605 -21.5670
v -51.0803 -27.8877 -21.9187
v -51.1116 -27.9357 -22.4214
v -51.0177 -27.9988 -22.9815
v -51.0933 -28.0712 -23.5783
v -51.1180 -28.1375 -24.0930
v -51.0833 -28.1953 -24.5242
v -51.0735 -28.2495 -24.9360
v -51.0646 -27.9795 -31.2843
v -51.0156 -28.2905 -25.2476
v -51.1149 -28.3368 -25.6946
v -51.0923 -28.4005 -26.2483
v -51.0552 -28.4603 -26.7256
v -51.0493 -28.5305 -27.2563
v -51.0818 -28.6041 -27.8362
v -51.1844 -28.6615 -28.4240
v -51.1567 -28.7070 -29.0073
v -51.1625 -28.7185 -29.4882
v -51.0815 -28.7163 -29.9678
v -51.0766 -28.6610 -30.5264
v -51.1180 -28.4178 -31.0093
v -50.5748 -26.2933 -31.5450
v -50.5404 -26.9341 -31.5182
v -50.5660 -27.5033 -31.4585
v -50.3800 -27.8325 -20.9870
v -50.4777 -27.8508 -21.3279
v -50.5488 -27.8903 -21.8648
v -50.5290 -27.9473 -22.4378
v -50.5080 -28.0148 -23.0045
v -50.6120 -28.0773 -23.5135
v -50.5035 -28.1633 -24.1025
v -50.5125 -28.2360 -24.6305
v -50.6405 -28.1500 -31.3145
v -50.5158 -27.9325 -31.4032
v -50.4745 -28.3105 -25.1600
v -50.5462 -28.3805 -25.7569
v -50.5851 -28.4311 -26.2183
v -50.5293 -28.5022 -26.7723
v -50.4943 -28.5768 -27.3105
v -50.5380 -28.6517 -27.8880
v -50.5532 -28.7107 -28.3877
v -50.5624 -28.7535 -28.8602
v -50.6502 -28.7700 -29.4140
v -50.5458 -28.7761 -29.9616
v -50.5707 -28.7423 -30.4877
v -50.5011 -28.4998 -31.0656
v -50.4290 -28.7965 -29.5120
v -50.0496 -26.2982 -31.6063
v -50.1104 -26.8781 -31.5746
v -50.0656 -27.4805 -31.5242
v -49.8055 -27.8345 -20.4835
v -49.9293 -27.8417 -20.8366
v -50.0340 -27.8682 -21.3740
v -50.0045 -27.9177 -21.9542
v -50.0014 -27.9695 -22.4508
v -50.0385 -28.0280 -22.9523
v -49.9395 -28.1095 -23.5115
v -50.0187 -28.1692 -23.9620
v -50.0190 -28.2315 -24.3920
v -50.0323 -28.0063 -31.4515
v -50.1270 -28.2760 -24.7470
v -49.9667 -28.3452 -25.1613
v -50.0432 -28.4226 -25.7959
v -50.0085 -28.4705 -26.1803
v -50.0124 -28.5427 -26.7766
v -49.9670 -28.6080 -27.2390
v -50.0518 -28.6850 -27.8445
v -49.9340 -28.7705 -28.4413
v -50.0644 -28.7781 -30.6744
v -50.0399 -28.5171 -31.1444
v -49.7580 -28.8065 -28.6260
v -49.9400 -28.8193 -28.9750
v -49.9895 -28.8385 -29.4503
v -50.0649 -28.8258 -30.0188
v -49.9693 -28.8130 -30.4993
v -49.4965 -26.3622 -31.6423
v -49.4838 -26.8665 -31.6223
v -49.5229 -27.4142 -31.5740
v -49.4082 -27.8561 -20.3122
v -49.4456 -27.8680 -20.7833
v -49.4952 -27.8957 -21.3343
v -49.4586 -27.9405 -21.8501
v -49.4740 -27.9907 -22.3473
v -49.5282 -28.0573 -22.9260
v -49.4118 -28.1547 -23.5657
v -49.4713 -28.2252 -24.0777
v -49.4753 -27.9844 -31.5004
v -49.2610 -28.2715 -24.2700
v -49.4870 -28.3045 -24.6142
v -49.4397 -28.3878 -25.1570
v -49.5246 -28.4554 -25.7115
v -49.4780 -28.5178 -26.1890
v -49.5108 -28.5877 -26.7868
v -49.5143 -28.6540 -27.2845
v -49.5640 -28.7178 -27.7708
v -49.5655 -28.7675 -28.1435
v -49.4740 -28.6618 -31.0935
v -49.5455 -28.3535 -31.3765
v -49.3867 -28.8244 -28.4772
v -49.3431 -28.8718 -28.9362
v -49.4007 -28.8977 -29.5027
v -49.4699 -28.8876 -30.0250
v -49.4369 -28.8576 -30.5817
v -48.9285 -26.4123 -31.6533
v -48.8800 -26.9258 -31.6330
v -48.8860 -27.4240 -31.5925
v -48.8995 -27.8978 -20.0000
v -48.9335 -27.8973 -20.2871
v -48.9115 -27.9149 -20.8069
v -48.9604 -27.9455 -21.4069
v -48.9194 -27.9924 -21.9046
v -48.8828 -28.0510 -22.4217
v -49.0090 -28.1000 -22.9187
v -49.0365 -28.1655 -23.4135
v -48.9020 -28.2335 -23.7910
v -48.9446 -28.0361 -31.5104
v -48.9070 -28.2890 -24.1615
v -48.9150 -28.3630 -24.6540
v -48.9080 -28.4365 -25.1445
v -48.9484 -28.4961 -25.5994
v -48.9431 -28.5710 -26.1978
v -48.9414 -28.6430 -26.7870
v -48.9537 -28.7086 -27.2875
v -49.0065 -28.7691 -27.7567
v -48.9076 -28.6323 -31.2134
v -48.8665 -28.3768 -31.4060
v -48.7380 -28.8135 -27.8830
v -48.8948 -28.8551 -28.3343
v -48.8759 -28.9192 -28.9494
v -48.8539 -28.9521 -29.5148
v -48.8254 -28.9545 -29.9606
v -48.8664 -28.9190 -30.5349
v -48.8580 -28.8220 -30.9590
v -48.3804 -26.4641 -31.6371
v -48.3975 -26.9728 -31.6178
v -48.4050 -27.4710 -31.5777
v -48.5277 -27.9418 -20.3130
v -48.4058 -27.9715 -20.7927
v -48.3907 -28.0039 -21.3221
v -48.3711 -28.0485 -21.8359
v -48.3378 -28.1043 -22.3342
v -48.4113 -28.1613 -22.8770
v -48.5287 -28.2118 -23.3553
v -48.3997 -28.0286 -31.5077
v -48.3963 -28.2735 -23.6707
v -48.3957 -28.3415 -24.1257
v -48.3427 -28.4218 -24.6143
v -48.3753 -28.4852 -25.0713
v -48.4020 -28.5586 -25.6266
v -48.4065 -28.6238 -26.1567
v -48.3552 -28.7032 -26.7660
v -48.3638 -28.7615 -27.2192
v -48.3228 -28.6579 -31.2144
v -48.3496 -28.3493 -31.4237
v -48.3724 -28.8429 -27.8138
v -48.3860 -28.9173 -28.4176
v -48.3048 -28.9805 -28.9845
v -48.3045 -29.0055 -29.4692
v -48.3404 -28.9995 -30.0017
v -48.4159 -28.9586 -30.5928
v -48.3850 -28.8690 -30.9395
v -47.9188 -26.4890 -31.6040
v -47.8920 -26.9461 -31.5842
v -47.9265 -27.5173 -31.5435
v -47.9497 -28.0400 -20.8870
v -47.8434 -28.0870 -21.3936
v -47.8508 -28.1292 -21.9117
v -47.8706 -28.1815 -22.4410
v -47.8893 -28.2428 -22.9563
v -47.8607 -28.0789 -31.4669
v -47.8300 -28.2715 -23.1170
v -47.8597 -28.3225 -23.5115
v -47.7943 -28.3972 -23.9620
v -47.7780 -28.4800 -24.5115
v -47.8272 -28.5648 -25.1480
v -47.8708 -28.6519 -25.8605
v -47.8757 -28.6916 -26.2046
v -47.8202 -28.7543 -26.6768
v -47.9350 -28.7905 -27.0760
v -47.8448 -28.6020 -31.2670
v -47.8050 -28.3455 -31.4050
v -47.7985 -28.8432 -27.3408
v -47.9018 -28.9007 -27.8550
v -47.8810 -28.9745 -28.4410
v -47.7735 -29.0310 -28.9260
v -47.7710 -29.0563 -29.4127
v -47.8745 -29.0432 -30.0027
v -47.8505 -29.0113 -30.5534
v -47.9005 -28.8643 -30.9830
v -47.3319 -26.5175 -31.5342
v -47.3242 -26.8215 -31.5239
v -47.3599 -27.4150 -31.4898
v -47.4026 -28.1602 -21.3863
v -47.3580 -28.2103 -21.9074
v -47.4630 -28.2420 -22.4030
v -47.1130 -28.2165 -31.3600
v -47.3166 -28.0398 -31.4122
v -47.2857 -28.2822 -22.4800
v -47.3428 -28.3357 -23.0072
v -47.2620 -28.4145 -23.5010
v -47.3182 -28.4895 -24.1025
v -47.3514 -28.5616 -24.6494
v -47.2536 -28.6479 -25.1705
v -47.3356 -28.7032 -25.7050
v -47.3110 -28.7547 -26.1287
v -47.4430 -28.7805 -26.5090
v -47.3227 -28.5938 -31.2319
v -47.4370 -28.3805 -31.3610
v -47.1680 -28.8085 -26.4390
v -47.3340 -28.8350 -26.8412
v -47.3135 -28.9015 -27.3322
v -47.2986 -28.9725 -27.8592
v -47.2845 -29.0307 -28.3388
v -47.2192 -29.0871 -28.9052
v -47.2654 -29.1061 -29.4978
v -47.3463 -29.0900 -30.0497
v -47.2603 -29.0619 -30.4834
v -47.3532 -28.9063 -30.9274
v -46.7427 -26.5787 -31.4337
v -46.7305 -26.8805 -31.4225
v -46.7481 -27.3738 -31.3959
v -46.7988 -28.0493 -31.3294
v -46.8680 -27.7425 -31.3830
v -46.9034 -28.2999 -21.9616
v -46.7864 -28.3721 -22.4560
v -46.7817 -28.4330 -22.9815
v -46.7903 -28.5060 -23.5715
v -46.7115 -28.5890 -24.0930
v -46.7720 -28.6453 -24.5915
v -46.6830 -28.7325 -25.1615
v -46.8623 -28.7685 -25.6985
v -46.7638 -28.5080 -31.1937
v -46.5646 -28.8059 -25.6450
v -46.6815 -28.8512 -26.2278
v -46.7362 -28.9062 -26.7732
v -46.7749 -28.9647 -27.2835
v -46.7526 -29.0364 -27.8333
v -46.6979 -29.1094 -28.4497
v -46.7100 -29.1454 -28.9624
v -46.7074 -29.1598 -29.4537
v -46.6820 -29.1474 -30.0250
v -46.8153 -29.0860 -30.4835
v -46.6354 -28.8820 -30.9183
v -46.2865 -26.5920 -31.3349
v -46.4120 -26.5765 -31.3640
v -46.2542 -26.8239 -31.3207
v -46.2385 -27.4416 -31.2814
v -46.1929 -28.0090 -31.2024
v -46.3047 -28.4638 -22.3997
v -46.2482 -28.5430 -23.0245
v -46.1447 -28.6285 -23.5757
v -46.2159 -28.6765 -24.0761
v -46.1292 -28.7554 -24.6407
v -46.1998 -28.7838 -25.0727
v -46.2082 -28.4839 -31.1026
v -46.2197 -28.8329 -25.6089
v -46.1993 -28.8944 -26.2282
v -46.2227 -28.9589 -26.7961
v -46.1948 -29.0171 -27.2766
v -46.2042 -29.0817 -27.8132
v -46.2070 -29.1354 -28.3295
v -46.1862 -29.1718 -28.8325
v -46.1988 -29.1878 -29.4081
v -46.2536 -29.1705 -30.0888
v -46.2448 -29.0732 -30.5202
v -46.2665 -28.8631 -30.8888
v -45.9210 -26.6245 -31.2200
v -45.7354 -26.7790 -31.0873
v -45.4210 -27.6625 -30.7080
v -45.7554 -27.4406 -31.0588
v -45.4287 -28.0414 -30.6638
v -45.6712 -28.0779 -30.9285
v -45.6853 -28.6568 -22.9852
v -45.6604 -28.7183 -23.5427
v -45.7450 -28.7413 -24.0247
v -45.7012 -28.7190 -24.6003
v -45.6183 -28.6264 -25.1285
v -45.6587 -28.6534 -25.6221
v -45.6121 -28.6831 -26.2037
v -45.5557 -28.7075 -26.8113
v -45.5080 -28.7310 -27.3460
v -45.5070 -28.7745 -27.7160
v -45.4490 -28.7795 -30.1580
v -45.5860 -28.6035 -30.6321
v -45.7935 -28.4471 -30.9279
v -45.8140 -28.8305 -26.3460
v -45.7597 -28.8598 -26.8747
v -45.7315 -28.8983 -27.3250
v -45.6848 -28.9247 -27.8496
v -45.6518 -28.9485 -28.3293
v -45.6473 -28.9825 -28.8387
v -45.6180 -28.9738 -29.4173
v -45.7573 -29.0411 -30.0039
v -45.7964 -28.9542 -30.4704
v -44.9370 -26.9893 -24.7926
v -45.0779 -26.9706 -25.1064
v -45.1993 -26.9593 -25.7002
v -45.2072 -26.9808 -26.2327
v -45.2072 -26.9634 -26.8058
v -45.2073 -26.9618 -27.2725
v -45.2073 -26.9332 -27.8066
v -45.2083 -26.9584 -28.3878
v -45.2082 -26.9258 -28.9789
v -45.2084 -26.9143 -29.4650
v -45.2098 -26.9344 -30.0031
v -45.3088 -26.9680 -30.5294
v -44.9848 -27.4157 -24.8579
v -45.1184 -27.4321 -25.1869
v -45.2080 -27.4237 -25.6755
v -45.2140 -27.3735 -26.2367
v -45.2145 -27.3735 -26.8290
v -45.2150 -27.3735 -27.2973
v -45.2150 -27.3735 -27.7685
v -45.2157 -27.3732 -28.3623
v -45.2160 -27.3730 -28.9613
v -45.2165 -27.3730 -29.4440
v -45.2221 -27.4406 -30.0062
v -45.3156 -27.4574 -30.5016
v -44.9460 -27.9541 -24.7108
v -45.1401 -27.9800 -25.1401
v -45.2410 -27.9989 -25.7094
v -45.2288 -27.9131 -26.1642
v -45.2288 -27.9362 -26.7409
v -45.2298 -28.0167 -27.2900
v -45.2260 -27.9934 -27.8636
v -45.2268 -28.0186 -28.4071
v -45.2276 -28.0376 -28.9104
v -45.2281 -28.0447 -29.4252
v -45.2370 -28.0209 -30.0151
v -45.3117 -28.1155 -30.4160
v -45.2628 -28.7793 -23.5403
v -45.1513 -28.6495 -24.0818
v -45.1940 -28.4537 -24.6023
v -45.2798 -28.3362 -25.0983
v -45.3677 -28.3692 -25.6705
v -45.3442 -28.3625 -26.1498
v -45.3457 -28.4303 -26.7622
v -45.3246 -28.4482 -27.4100
v -45.3095 -28.4602 -27.8751
v -45.3113 -28.5139 -28.3698
v -45.3098 -28.5440 -28.8605
v -45.3094 -28.5552 -29.4847
v -45.3070 -28.5209 -30.0452
v -45.3742 -28.4185 -30.4429
v -45.0153 -28.8158 -23.3900
v -44.5410 -27.0293 -24.3053
v -44.7522 -27.0091 -24.5258
v -44.5157 -27.3954 -24.2723
v -44.7874 -27.4334 -24.5583
v -44.5373 -27.9933 -24.2382
v -44.7758 -27.9338 -24.4908
v -44.8450 -28.7725 -23.6250
v -44.6977 -28.4651 -24.0619
v -44.8170 -28.2925 -24.3420
g DPadDown
f 2 5 7
f 2 1 5
f 31 19 20
f 31 18 19
f 31 30 18
f 29 17 18
f 30 29 18
f 28 16 17
f 29 28 17
f 28 15 16
f 28 27 15
f 27 14 15
f 27 26 14
f 76 75 101
f 76 21 75
f 33 21 76
f 33 20 21
f 32 20 33
f 31 20 32
f 400 376 399
f 376 351 377
f 104 102 128
f 104 101 102
f 129 104 128
f 481 479 478
f 480 481 478
f 481 427 479
f 481 439 427
f 439 428 427
f 439 440 428
f 441 429 428
f 440 441 428
f 76 101 103
f 181 154 180
f 181 155 154
f 209 180 208
f 209 181 180
f 237 208 236
f 237 209 208
f 267 236 266
f 267 237 236
f 295 266 294
f 295 267 266
f 294 323 295
f 294 322 323
f 351 352 323
f 322 351 323
f 351 378 352
f 376 378 351
f 101 104 103
f 106 103 104
f 106 105 103
f 130 104 129
f 130 106 104
f 155 129 154
f 155 130 129
f 324 295 323
f 353 323 352
f 353 324 323
f 379 352 378
f 379 353 352
f 402 379 378
f 402 378 400
f 76 103 105
f 130 105 106
f 210 181 209
f 210 182 181
f 238 209 237
f 238 210 209
f 268 237 267
f 268 238 237
f 296 267 295
f 296 268 267
f 324 296 295
f 77 76 105
f 132 105 130
f 132 107 105
f 156 130 155
f 156 132 130
f 182 155 181
f 182 156 155
f 355 324 353
f 355 329 324
f 354 355 353
f 354 353 379
f 380 354 379
f 77 105 107
f 131 107 132
f 248 210 238
f 248 219 210
f 276 238 268
f 276 248 238
f 302 268 296
f 302 276 268
f 329 296 324
f 329 302 296
f 354 329 355
f 402 380 379
f 78 77 107
f 141 107 131
f 141 115 107
f 141 131 132
f 166 132 156
f 166 141 132
f 192 156 182
f 192 166 156
f 219 182 210
f 219 192 182
f 354 328 329
f 364 354 380
f 387 364 380
f 90 107 115
f 90 78 107
f 141 166 165
f 258 248 276
f 258 276 286
f 286 276 302
f 286 302 313
f 313 302 329
f 313 329 340
f 340 329 339
f 339 329 354
f 339 354 364
f 400 378 376
f 42 55 54
f 42 43 55
f 41 54 53
f 41 42 54
f 40 53 52
f 40 41 53
f 39 52 51
f 39 40 52
f 39 51 50
f 38 39 50
f 38 50 49
f 37 38 49
f 36 49 48
f 36 37 49
f 36 48 47
f 36 47 35
f 44 43 32
f 32 43 31
f 30 43 42
f 30 31 43
f 29 42 41
f 29 30 42
f 28 41 40
f 28 29 41
f 27 40 39
f 27 28 40
f 26 39 38
f 26 27 39
f 25 38 37
f 25 26 38
f 24 37 36
f 24 25 37
f 36 35 23
f 23 24 36
f 66 50 51
f 66 51 52
f 67 66 52
f 67 52 53
f 68 67 53
f 68 53 54
f 69 68 54
f 69 54 55
f 70 69 55
f 449 437 436
f 448 449 436
f 448 436 435
f 447 448 435
f 447 435 434
f 446 447 434
f 446 434 433
f 445 446 433
f 445 433 432
f 444 445 432
f 444 432 431
f 443 444 431
f 443 431 430
f 442 443 430
f 442 430 429
f 441 442 429
f 450 437 449
f 438 437 450
f 461 449 448
f 460 461 448
f 460 448 447
f 459 460 447
f 459 447 446
f 458 459 446
f 457 446 445
f 457 458 446
f 456 445 444
f 456 457 445
f 455 444 443
f 455 456 444
f 455 443 442
f 454 455 442
f 454 442 441
f 441 453 454
f 475 461 474
f 474 461 460
f 473 460 459
f 473 474 460
f 472 459 458
f 472 473 459
f 471 472 458
f 471 458 457
f 470 471 457
f 470 457 456
f 6 2 7
f 10 3 8
f 4 3 10
f 10 8 9
f 10 9 11
f 46 9 34
f 47 34 35
f 47 46 34
f 23 35 34
f 22 23 34
f 22 34 9
f 7 22 9
f 7 9 8
f 6 8 3
f 6 7 8
f 2 6 3
f 45 9 46
f 11 9 45
f 440 452 453
f 441 440 453
f 439 451 452
f 440 439 452
f 439 481 451
f 481 483 451
f 481 482 483
f 481 480 482
f 76 32 33
f 77 32 76
f 77 44 32
f 56 43 44
f 56 55 43
f 78 44 77
f 78 56 44
f 71 56 78
f 89 71 78
f 90 89 78
f 71 55 56
f 70 55 71
f 71 89 90
f 402 400 438
f 380 417 387
f 380 404 417
f 404 416 417
f 404 403 416
f 403 476 416
f 403 462 476
f 475 462 461
f 475 476 462
f 450 461 462
f 450 449 461
f 401 462 403
f 401 450 462
f 402 403 404
f 402 401 403
f 402 404 380
f 402 450 401
f 402 438 450
f 151 125 152
f 126 152 125
f 151 152 177
f 151 177 176
f 126 125 100
f 100 125 99
f 206 177 207
f 176 177 206
f 177 201 207
f 206 207 235
f 206 235 234
f 291 264 292
f 291 292 320
f 319 291 320
f 348 320 349
f 348 319 320
f 201 235 207
f 397 396 373
f 397 373 374
f 348 349 374
f 373 348 374
f 211 240 239
f 80 58 81
f 57 58 80
f 58 82 81
f 111 82 112
f 81 82 111
f 113 139 112
f 82 113 112
f 112 139 138
f 140 164 139
f 167 193 164
f 140 167 164
f 167 194 193
f 221 194 222
f 193 194 221
f 221 222 251
f 250 251 280
f 221 251 250
f 250 280 279
f 279 280 307
f 306 307 334
f 279 307 306
f 335 361 334
f 307 335 334
f 385 384 361
f 360 361 384
f 384 407 383
f 385 407 384
f 362 385 361
f 335 362 361
f 281 307 280
f 252 280 251
f 252 281 280
f 252 251 222
f 223 252 222
f 194 223 222
f 142 167 140
f 113 140 139
f 83 113 82
f 59 82 58
f 386 385 362
f 336 362 335
f 336 335 307
f 308 307 281
f 308 336 307
f 195 223 194
f 195 194 167
f 168 167 142
f 168 195 167
f 114 140 113
f 114 142 140
f 84 113 83
f 84 114 113
f 388 386 362
f 363 362 336
f 365 388 362
f 363 365 362
f 282 281 252
f 282 308 281
f 253 252 223
f 253 282 252
f 224 223 195
f 224 253 223
f 143 168 142
f 143 142 114
f 116 114 84
f 117 143 114
f 116 117 114
f 282 309 308
f 196 223 195
f 196 224 223
f 269 239 240
f 270 269 240
f 241 270 240
f 212 241 240
f 212 240 211
f 297 269 270
f 184 212 211
f 183 184 211
f 271 297 270
f 271 270 241
f 242 271 241
f 242 241 212
f 213 242 212
f 298 297 271
f 185 212 184
f 185 213 212
f 325 297 298
f 272 298 271
f 272 271 242
f 243 272 242
f 243 242 213
f 214 243 213
f 158 185 184
f 157 158 184
f 299 298 272
f 186 213 185
f 186 214 213
f 326 325 298
f 326 298 299
f 273 299 272
f 273 272 243
f 244 273 243
f 244 243 214
f 215 244 214
f 186 215 214
f 159 186 185
f 159 185 158
f 356 325 326
f 300 326 299
f 300 299 273
f 187 215 186
f 133 159 158
f 330 356 326
f 327 326 300
f 327 330 326
f 274 300 273
f 274 273 244
f 245 274 244
f 245 244 215
f 216 245 215
f 187 216 215
f 160 186 159
f 160 187 186
f 134 159 133
f 357 356 330
f 357 330 327
f 330 327 300
f 301 330 300
f 301 300 274
f 188 216 187
f 160 188 187
f 135 159 134
f 135 160 159
f 381 356 357
f 331 357 330
f 331 330 301
f 303 301 274
f 303 331 301
f 275 301 274
f 275 274 245
f 246 275 245
f 246 245 216
f 217 246 216
f 161 188 160
f 135 161 160
f 108 135 134
f 358 357 331
f 304 303 301
f 304 331 303
f 304 301 275
f 277 304 275
f 189 216 188
f 189 217 216
f 161 189 188
f 136 161 135
f 109 135 108
f 382 357 358
f 382 381 357
f 332 358 331
f 332 331 304
f 277 275 246
f 247 277 246
f 217 247 246
f 162 189 161
f 162 161 136
f 110 135 109
f 110 136 135
f 405 381 382
f 359 358 332
f 359 382 358
f 305 332 304
f 305 304 277
f 278 305 277
f 278 277 247
f 249 247 217
f 249 278 247
f 218 249 217
f 218 217 189
f 190 218 189
f 190 189 162
f 137 162 136
f 110 137 136
f 383 382 359
f 333 332 305
f 333 359 332
f 220 249 218
f 163 190 162
f 137 163 162
f 111 137 110
f 80 110 79
f 406 382 383
f 406 405 382
f 384 383 359
f 360 359 333
f 360 384 359
f 306 305 278
f 306 333 305
f 279 306 278
f 279 278 249
f 250 249 220
f 250 279 249
f 221 220 218
f 221 250 220
f 221 218 190
f 191 190 163
f 191 221 190
f 138 163 137
f 112 137 111
f 112 138 137
f 81 110 80
f 81 111 110
f 361 360 333
f 334 333 306
f 334 361 333
f 193 191 163
f 193 221 191
f 164 193 163
f 139 163 138
f 139 164 163
f 463 405 406
f 407 406 383
f 196 195 168
f 169 196 168
f 169 168 143
f 84 117 116
f 144 169 143
f 118 143 117
f 118 144 143
f 84 91 117
f 225 253 224
f 225 254 253
f 197 224 196
f 197 225 224
f 170 196 169
f 170 197 196
f 145 169 144
f 145 170 169
f 119 144 118
f 119 145 144
f 91 118 117
f 255 254 225
f 226 255 225
f 226 225 197
f 198 226 197
f 171 197 170
f 171 198 197
f 92 118 91
f 146 170 145
f 146 171 170
f 119 146 145
f 92 119 118
f 256 255 226
f 227 256 226
f 227 226 198
f 199 227 198
f 199 198 171
f 120 146 119
f 93 119 92
f 172 199 171
f 147 171 146
f 147 172 171
f 120 147 146
f 93 120 119
f 94 120 93
f 260 259 256
f 228 256 227
f 228 260 256
f 199 228 227
f 121 147 120
f 94 121 120
f 231 260 228
f 200 228 199
f 200 231 228
f 173 199 172
f 173 200 199
f 173 172 147
f 148 173 147
f 95 121 94
f 261 260 231
f 232 261 231
f 203 231 200
f 122 147 121
f 122 148 147
f 204 231 203
f 204 232 231
f 204 203 200
f 174 200 173
f 174 204 200
f 148 174 173
f 96 122 121
f 96 121 95
f 149 174 148
f 123 148 122
f 123 149 148
f 262 261 232
f 233 262 232
f 205 232 204
f 205 233 232
f 175 204 174
f 175 205 204
f 149 175 174
f 96 123 122
f 179 205 175
f 150 175 149
f 124 149 123
f 124 150 149
f 97 123 96
f 263 262 233
f 234 263 233
f 206 233 205
f 206 234 233
f 176 205 179
f 176 206 205
f 175 176 179
f 98 124 123
f 98 123 97
f 151 175 150
f 151 176 175
f 124 151 150
f 264 263 234
f 235 264 234
f 125 151 124
f 99 125 124
f 99 124 98
f 263 264 291
f 395 373 396
f 337 363 336
f 337 336 308
f 309 337 308
f 366 388 365
f 366 365 363
f 337 366 363
f 389 388 366
f 341 366 337
f 338 337 309
f 338 341 337
f 310 338 309
f 310 309 282
f 283 310 282
f 283 282 253
f 254 283 253
f 367 366 341
f 342 367 341
f 342 341 338
f 342 338 310
f 390 389 366
f 367 390 366
f 314 342 310
f 311 310 283
f 311 314 310
f 284 311 283
f 284 283 254
f 255 284 254
f 368 367 342
f 343 368 342
f 314 343 342
f 314 311 284
f 391 390 367
f 368 391 367
f 315 314 284
f 287 315 284
f 287 284 255
f 256 287 255
f 369 368 343
f 344 369 343
f 344 343 314
f 315 344 314
f 259 287 256
f 392 391 368
f 369 392 368
f 260 287 259
f 260 288 287
f 345 369 344
f 345 344 315
f 316 345 315
f 316 315 287
f 288 316 287
f 393 392 369
f 370 393 369
f 370 369 345
f 346 370 345
f 317 345 316
f 317 346 345
f 289 316 288
f 289 317 316
f 261 288 260
f 261 289 288
f 394 393 370
f 371 394 370
f 371 370 346
f 347 346 317
f 318 347 317
f 318 317 289
f 290 318 289
f 290 289 261
f 262 290 261
f 395 394 371
f 372 395 371
f 372 371 346
f 347 372 346
f 319 347 318
f 319 318 290
f 291 319 290
f 291 290 262
f 263 291 262
f 373 395 372
f 373 372 347
f 348 373 347
f 348 347 319
f 464 463 406
f 407 464 406
f 408 407 385
f 386 408 385
f 464 477 463
f 408 464 407
f 409 408 386
f 410 386 388
f 410 409 386
f 465 464 408
f 465 408 409
f 466 465 409
f 486 464 465
f 486 485 464
f 466 409 410
f 467 466 410
f 482 485 486
f 483 486 465
f 483 482 486
f 451 483 465
f 451 465 466
f 452 451 466
f 452 466 467
f 467 453 452
f 395 396 425
f 424 395 425
f 475 474 424
f 425 475 424
f 415 475 425
f 394 395 424
f 423 394 424
f 423 424 474
f 473 423 474
f 393 394 423
f 422 393 423
f 422 423 473
f 472 422 473
f 392 393 422
f 421 392 422
f 421 422 472
f 471 421 472
f 414 421 471
f 391 392 421
f 420 391 421
f 420 421 414
f 413 414 471
f 413 420 414
f 470 413 471
f 390 391 420
f 419 390 420
f 419 420 413
f 412 413 470
f 412 419 413
f 469 412 470
f 469 470 456
f 455 469 456
f 389 390 419
f 418 419 412
f 418 389 419
f 411 418 412
f 411 412 469
f 468 411 469
f 468 469 455
f 454 468 455
f 411 389 418
f 388 389 411
f 410 388 411
f 410 411 468
f 467 410 468
f 453 468 454
f 453 467 468
f 425 397 426
f 425 396 397
f 425 426 416
f 415 416 476
f 415 425 416
f 475 415 476
f 397 398 387
f 417 397 387
f 364 387 375
f 375 387 398
f 375 398 397
f 375 397 374
f 426 397 417
f 416 426 417
f 350 349 320
f 321 350 320
f 321 320 292
f 293 321 292
f 293 292 264
f 265 293 264
f 265 264 235
f 229 265 235
f 229 235 201
f 202 229 201
f 202 201 177
f 178 202 177
f 178 177 152
f 375 374 349
f 350 375 349
f 285 321 293
f 285 293 265
f 257 285 265
f 257 265 229
f 153 178 152
f 153 152 126
f 127 153 126
f 364 375 350
f 339 364 350
f 339 350 321
f 312 339 321
f 312 321 285
f 100 127 126
f 286 285 257
f 258 286 257
f 258 257 229
f 230 258 229
f 230 229 202
f 165 178 153
f 141 165 153
f 115 153 127
f 115 141 153
f 90 127 100
f 340 339 312
f 313 340 312
f 313 312 285
f 286 313 285
f 248 258 230
f 219 248 230
f 219 230 202
f 192 219 202
f 192 202 178
f 166 178 165
f 166 192 178
f 90 115 127
f 89 100 71
f 74 71 100
f 70 71 74
f 74 100 99
f 90 100 89
f 92 91 85
f 86 92 85
f 63 85 62
f 63 86 85
f 47 48 63
f 62 47 63
f 61 47 62
f 61 62 85
f 84 61 85
f 84 85 91
f 93 92 86
f 87 93 86
f 64 86 63
f 64 87 86
f 49 63 48
f 49 64 63
f 88 93 87
f 88 94 93
f 65 87 64
f 65 88 87
f 50 64 49
f 50 65 64
f 95 94 88
f 66 88 65
f 66 95 88
f 66 65 50
f 67 95 66
f 67 96 95
f 68 96 67
f 72 96 68
f 72 97 96
f 73 98 97
f 73 97 72
f 69 72 68
f 69 73 72
f 74 98 73
f 74 99 98
f 70 73 69
f 70 74 73
f 46 47 61
f 59 83 82
f 12 59 58
f 60 84 83
f 60 83 59
f 13 59 12
f 61 84 60
f 45 60 59
f 11 59 13
f 11 45 59
f 10 11 13
f 46 61 60
f 45 46 60
