# The left trackpad's touch face, cut from LeftPadTouch.obj by tools/steam_controller_2026_pads.py
v -43.206500 -16.620300 -75.094600
v -47.712100 -17.887800 -68.994200
v -47.760500 -17.779600 -69.383100
v -47.778700 -17.673100 -69.775100
v -47.766500 -17.568800 -70.167900
v -47.724200 -17.467400 -70.559400
v -47.651800 -17.369300 -70.947300
v -47.549800 -17.275300 -71.329400
v -47.418800 -17.185600 -71.703800
v -47.259500 -17.101000 -72.068100
v -47.072800 -17.021800 -72.420500
v -46.859700 -16.948400 -72.759000
v -46.621400 -16.881400 -73.081600
v -46.359400 -16.821100 -73.386500
v -46.074900 -16.767700 -73.672100
v -45.769600 -16.721700 -73.936700
v -45.445300 -16.683200 -74.178900
v -45.103700 -16.652500 -74.397200
v -44.746800 -16.629800 -74.590600
v -44.376500 -16.615200 -74.757900
v -43.994900 -16.608700 -74.898200
v -43.604200 -16.610400 -75.010600
v -44.437100 -23.505000 -49.026200
v -21.721600 -17.386000 -78.769900
v -22.529000 -17.341900 -78.689000
v -22.126500 -17.359900 -78.744100
v -44.250900 -23.723900 -48.266100
v -44.358800 -23.614200 -48.642400
v -21.316400 -17.420000 -78.766400
v -43.949300 -23.942000 -47.543700
v -44.114200 -23.833300 -47.899100
v -20.514500 -17.510700 -78.671600
v -20.913300 -17.461600 -78.733600
v -19.738600 -17.630200 -78.461700
v -20.122200 -17.567000 -78.580800
v -43.295900 -24.257200 -46.565900
v -43.539000 -24.154500 -46.875200
v -43.757200 -24.049300 -47.201800
v -19.365900 -17.699900 -78.314900
v -19.006100 -17.775700 -78.141300
v -42.740500 -24.452500 -46.005900
v -43.029200 -24.356700 -46.275600
v -18.661300 -17.857200 -77.941900
v -42.103300 -24.630900 -45.534100
v -42.431200 -24.544100 -45.758200
v -18.024200 -18.035600 -77.470100
v -18.333400 -17.944000 -77.717700
v -41.758500 -24.712400 -45.334600
v -17.468700 -18.230900 -76.910000
v -17.735400 -18.131400 -77.200300
v -41.026000 -24.857900 -45.014300
v -41.398700 -24.788200 -45.161000
v -17.225600 -18.333600 -76.600700
v -40.250100 -24.977400 -44.804300
v -40.642400 -24.921100 -44.895200
v -16.815300 -18.546100 -75.932200
v -17.007400 -18.438900 -76.274200
v -39.448200 -25.068100 -44.709500
v -39.851300 -25.026500 -44.742300
v -16.513700 -18.764200 -75.209900
v -16.650400 -18.654800 -75.576800
v -16.405900 -18.873900 -74.833500
v -38.235700 -25.146200 -44.787000
v -38.638100 -25.128200 -44.731900
v -39.043000 -25.102100 -44.706000
v -16.327500 -18.983100 -74.449800
v -17.558100 -25.867800 -48.381300
v -13.052500 -24.600300 -54.481800
v -12.986000 -24.815000 -53.700800
v -13.004100 -24.708500 -54.092800
v -16.769700 -25.879400 -48.577800
v -17.160400 -25.877700 -48.465300
v -16.388100 -25.873000 -48.718000
v -16.017800 -25.858300 -48.885300
v -13.112800 -25.118800 -52.528700
v -12.998100 -24.919300 -53.308000
v -13.040500 -25.020700 -52.916600
v -15.660900 -25.835600 -49.078700
v -13.214800 -25.212900 -52.146500
v -15.319300 -25.804900 -49.297100
v -13.505100 -25.387100 -51.407800
v -13.345800 -25.302500 -51.772200
v -14.689700 -25.720400 -49.803900
v -14.995000 -25.766400 -49.539300
v -13.691800 -25.466300 -51.055400
v -14.405300 -25.667000 -50.089500
v -14.143200 -25.606700 -50.394400
v -13.904900 -25.539700 -50.717000
vn -0.078500 -0.962900 -0.258000
vn -0.078500 -0.962900 -0.258000
vn -0.078500 -0.962900 -0.258000
vn -0.078500 -0.962900 -0.258000
vn -0.078500 -0.962900 -0.258000
vn -0.078500 -0.962900 -0.258000
vn -0.078500 -0.962900 -0.258000
vn -0.078500 -0.962900 -0.258000
vn -0.078500 -0.962900 -0.258000
vn -0.078500 -0.962900 -0.258000
vn -0.078500 -0.962900 -0.258000
vn -0.078500 -0.962900 -0.258000
vn -0.078500 -0.962900 -0.258000
vn -0.078500 -0.962900 -0.258000
vn -0.078500 -0.962900 -0.258000
vn -0.078500 -0.962900 -0.258000
vn -0.078500 -0.962900 -0.258000
vn -0.078500 -0.962900 -0.258000
vn -0.078500 -0.962900 -0.258000
vn -0.078500 -0.962900 -0.258000
vn -0.078500 -0.962900 -0.258000
vn -0.078500 -0.962900 -0.258000
vn -0.078500 -0.962900 -0.258000
vn -0.078500 -0.962900 -0.258000
vn -0.078500 -0.962900 -0.258000
vn -0.078500 -0.962900 -0.258000
vn -0.078500 -0.962900 -0.258000
vn -0.078500 -0.962900 -0.258000
vn -0.078500 -0.962900 -0.258000
vn -0.078500 -0.962900 -0.258000
vn -0.078500 -0.962900 -0.258000
vn -0.078500 -0.962900 -0.258000
vn -0.078500 -0.962900 -0.258000
vn -0.078500 -0.962900 -0.258000
vn -0.078500 -0.962900 -0.258000
vn -0.078500 -0.962900 -0.258000
vn -0.078500 -0.962900 -0.258000
vn -0.078500 -0.962900 -0.258000
vn -0.078500 -0.962900 -0.258000
vn -0.078500 -0.962900 -0.258000
vn -0.078500 -0.962900 -0.258000
vn -0.078500 -0.962900 -0.258000
vn -0.078500 -0.962900 -0.258000
vn -0.078500 -0.962900 -0.258000
vn -0.078500 -0.962900 -0.258000
vn -0.078500 -0.962900 -0.258000
vn -0.078500 -0.962900 -0.258000
vn -0.078500 -0.962900 -0.258000
vn -0.078500 -0.962900 -0.258000
vn -0.078500 -0.962900 -0.258000
vn -0.078500 -0.962900 -0.258000
vn -0.078500 -0.962900 -0.258000
vn -0.078500 -0.962900 -0.258000
vn -0.078500 -0.962900 -0.258000
vn -0.078500 -0.962900 -0.258000
vn -0.078500 -0.962900 -0.258000
vn -0.078500 -0.962900 -0.258000
vn -0.078500 -0.962900 -0.258000
vn -0.078500 -0.962900 -0.258000
vn -0.078500 -0.962900 -0.258000
vn -0.078500 -0.962900 -0.258000
vn -0.078500 -0.962900 -0.258000
vn -0.078500 -0.962900 -0.258000
vn -0.078500 -0.962900 -0.258000
vn -0.078500 -0.962900 -0.258000
vn -0.078500 -0.962900 -0.258000
vn -0.078500 -0.962900 -0.258000
vn -0.078500 -0.962900 -0.258000
vn -0.078500 -0.962900 -0.258000
vn -0.078500 -0.962900 -0.258000
vn -0.078500 -0.962900 -0.258000
vn -0.078500 -0.962900 -0.258000
vn -0.078500 -0.962900 -0.258000
vn -0.078500 -0.962900 -0.258000
vn -0.078500 -0.962900 -0.258000
vn -0.078500 -0.962900 -0.258000
vn -0.078500 -0.962900 -0.258000
vn -0.078500 -0.962900 -0.258000
vn -0.078500 -0.962900 -0.258000
vn -0.078500 -0.962900 -0.258000
vn -0.078500 -0.962900 -0.258000
vn -0.078500 -0.962900 -0.258000
vn -0.078500 -0.962900 -0.258000
vn -0.078500 -0.962900 -0.258000
vn -0.078500 -0.962900 -0.258000
vn -0.078500 -0.962900 -0.258000
vn -0.078500 -0.962900 -0.258000
vn -0.078500 -0.962900 -0.258000
f 1//1 2//2 3//3
f 1//1 3//3 4//4
f 1//1 4//4 5//5
f 1//1 5//5 6//6
f 1//1 6//6 7//7
f 1//1 7//7 8//8
f 1//1 8//8 9//9
f 1//1 9//9 10//10
f 1//1 10//10 11//11
f 1//1 11//11 12//12
f 1//1 12//12 13//13
f 1//1 13//13 14//14
f 1//1 14//14 15//15
f 1//1 15//15 16//16
f 1//1 16//16 17//17
f 1//1 17//17 18//18
f 1//1 18//18 19//19
f 1//1 19//19 20//20
f 1//1 20//20 21//21
f 1//1 21//21 22//22
f 23//23 2//2 1//1
f 24//24 25//25 26//26
f 27//27 28//28 23//23
f 29//29 25//25 24//24
f 30//30 27//27 23//23
f 30//30 31//31 27//27
f 32//32 29//29 33//33
f 34//34 32//32 35//35
f 36//36 30//30 23//23
f 36//36 37//37 38//38
f 36//36 38//38 30//30
f 39//39 25//25 29//29
f 39//39 29//29 32//32
f 39//39 32//32 34//34
f 40//40 25//25 39//39
f 41//41 36//36 23//23
f 41//41 42//42 36//36
f 43//43 25//25 40//40
f 44//44 45//45 41//41
f 46//46 43//43 47//47
f 48//48 41//41 23//23
f 48//48 44//44 41//41
f 49//49 46//46 50//50
f 49//49 25//25 43//43
f 49//49 43//43 46//46
f 51//51 52//52 48//48
f 53//53 25//25 49//49
f 54//54 55//55 51//51
f 54//54 51//51 48//48
f 54//54 48//48 23//23
f 56//56 53//53 57//57
f 56//56 25//25 53//53
f 58//58 59//59 54//54
f 60//60 56//56 61//61
f 62//62 56//56 60//60
f 62//62 25//25 56//56
f 63//63 58//58 54//54
f 63//63 1//1 25//25
f 63//63 23//23 1//1
f 63//63 64//64 65//65
f 63//63 65//65 58//58
f 63//63 54//54 23//23
f 66//66 25//25 62//62
f 67//67 63//63 25//25
f 68//68 25//25 66//66
f 68//68 67//67 25//25
f 69//69 67//67 68//68
f 69//69 68//68 70//70
f 71//71 72//72 67//67
f 73//73 71//71 67//67
f 74//74 73//73 67//67
f 75//75 76//76 77//77
f 78//78 74//74 67//67
f 79//79 67//67 69//69
f 79//79 76//76 75//75
f 79//79 69//69 76//76
f 80//80 78//78 67//67
f 81//81 79//79 82//82
f 83//83 80//80 67//67
f 83//83 84//84 80//80
f 85//85 67//67 79//79
f 85//85 79//79 81//81
f 86//86 83//83 67//67
f 87//87 85//85 88//88
f 87//87 67//67 85//85
f 87//87 86//86 67//67
