# Start.obj
# Valve Steam Controller (2026) CAD, CC BY-NC-SA 4.0
v 23.3363 -27.5171 -8.5079
v 23.3377 -27.6003 -8.4530
v 23.3506 -28.2394 -8.4460
v 23.3707 -27.5399 -8.9327
v 23.3778 -27.6348 -8.1313
v 23.3736 -28.1654 -8.2049
v 23.3518 -28.2515 -8.6923
v 23.3524 -27.6028 -8.8562
v 23.3737 -27.4958 -8.1503
v 23.3750 -28.1900 -8.9133
v 23.3945 -28.2642 -8.1679
v 23.4258 -28.3137 -9.0948
v 23.4156 -28.3926 -8.2900
v 23.4073 -28.4143 -8.6754
v 23.4453 -27.5544 -9.2322
v 23.4340 -28.2100 -9.1645
v 23.4395 -28.4278 -8.9287
v 23.4369 -28.2068 -7.9507
v 23.4792 -28.5039 -8.4172
v 23.4794 -28.5183 -8.6638
v 23.5187 -28.1853 -7.7241
v 23.5011 -28.3668 -7.9203
v 23.5032 -28.4399 -9.1760
v 23.5098 -28.4886 -8.1728
v 23.5104 -28.5314 -8.9085
v 23.4304 -27.4814 -7.9279
v 23.4772 -27.5975 -9.3285
v 23.6002 -28.1253 -7.5554
v 23.6311 -27.5712 -9.6290
v 23.5321 -28.2839 -9.4164
v 23.5706 -28.4724 -7.9341
v 23.5718 -28.5430 -9.1475
v 23.5688 -28.5948 -8.5272
v 23.6500 -28.3417 -7.5652
v 23.5973 -28.4503 -9.4134
v 23.6290 -28.5654 -8.0620
v 23.5332 -27.5208 -7.6614
v 23.6283 -27.4501 -7.4849
v 23.6607 -28.4557 -7.7051
v 23.6625 -28.5531 -9.3769
v 23.6257 -28.6198 -8.9933
v 23.6667 -28.1789 -7.4501
v 23.6831 -28.3413 -9.6670
v 23.6820 -28.6504 -8.5134
v 23.6442 -28.2291 -9.6372
v 23.7338 -28.6745 -8.9535
v 23.7203 -28.4592 -9.6373
v 23.8024 -28.5335 -7.6266
v 23.7061 -27.5985 -9.7532
v 23.7715 -28.6157 -7.9624
v 23.7781 -27.5896 -9.8502
v 23.7785 -28.4388 -7.4891
v 23.7812 -28.5617 -9.5931
v 23.8876 -27.5857 -9.9771
v 23.7993 -28.6872 -8.6673
v 23.7685 -28.1594 -7.2986
v 23.8364 -28.3485 -9.8778
v 23.8960 -28.6437 -7.9869
v 23.8909 -28.6924 -9.3651
v 23.7963 -28.6392 -9.4306
v 23.9481 -28.3070 -7.1523
v 23.8704 -28.4663 -9.8439
v 23.7876 -27.4320 -7.2559
v 23.9304 -28.0316 -7.1066
v 23.8866 -28.2417 -9.9631
v 23.9223 -28.4220 -7.2896
v 23.9260 -28.5685 -9.7927
v 24.0269 -28.5775 -7.4820
v 24.0778 -28.5015 -7.2478
v 24.0058 -28.1769 -7.0446
v 23.9790 -28.7151 -9.2596
v 23.9908 -27.4130 -7.0316
v 24.0149 -28.3540 -10.0678
v 24.2694 -28.6658 -7.9377
v 24.0451 -28.4716 -10.0302
v 24.0913 -28.0638 -6.9574
v 24.1442 -28.7051 -9.7219
v 24.0898 -28.4057 -7.1096
v 24.0945 -28.5737 -9.9726
v 24.0786 -28.2294 -10.1493
v 24.1256 -28.6092 -7.5489
v 24.1667 -27.5904 -10.2328
v 24.0698 -28.6523 -9.8117
v 24.2308 -28.7073 -8.4648
v 24.2514 -28.1379 -6.8383
v 24.2335 -28.2818 -6.9029
v 24.2417 -28.4753 -10.1931
v 24.2784 -28.3901 -6.9519
v 24.2841 -28.5772 -10.1300
v 24.2576 -28.3062 -10.2818
v 24.2598 -27.3926 -6.8175
v 24.4382 -28.4719 -6.9491
v 24.4078 -27.5932 -10.3908
v 24.3311 -28.5486 -7.1630
v 24.4656 -28.1201 -6.7076
v 24.7520 -28.6396 -7.5648
v 24.4358 -28.3597 -10.3738
v 24.4477 -28.2668 -6.7651
v 24.4571 -28.4772 -10.3301
v 24.4290 -28.7436 -9.1005
v 24.4852 -28.3757 -6.8190
v 24.4919 -28.5790 -10.2624
v 24.6125 -27.5938 -10.4899
v 24.3159 -28.7332 -9.7230
v 24.4291 -28.6590 -10.1129
v 24.7069 -28.5226 -6.9272
v 24.4798 -28.7112 -10.0086
v 24.5092 -28.2380 -10.4333
v 24.7084 -28.1084 -6.6003
v 24.6716 -28.3600 -10.4849
v 24.5663 -27.3738 -6.6458
v 24.6776 -28.2534 -6.6551
v 24.8332 -28.7361 -8.6162
v 24.6880 -28.4775 -10.4391
v 24.7071 -28.3627 -6.7128
v 24.6512 -28.5646 -7.0784
v 24.9247 -28.7347 -10.0910
v 24.7145 -28.5793 -10.3677
v 24.8613 -28.4473 -6.7488
v 24.9245 -28.0917 -6.5319
v 24.7430 -28.2302 -10.5313
v 24.9652 -27.5922 -10.6045
v 24.9195 -28.2417 -6.5746
v 24.9306 -28.4763 -10.5183
v 24.9405 -28.3514 -6.6352
v 24.9485 -28.5781 -10.4443
v 25.1173 -28.7436 -8.6939
v 24.8517 -28.6596 -10.3154
v 25.0923 -28.7553 -9.2461
v 24.9409 -28.3060 -10.5863
v 24.8988 -28.7189 -8.2923
v 24.9773 -28.7110 -10.2399
v 25.2440 -28.6066 -7.3119
v 24.9534 -27.3555 -6.5141
v 25.1603 -28.0736 -6.4858
v 24.9946 -28.7534 -9.6977
v 25.0975 -28.5415 -6.9252
v 25.1160 -28.5407 -6.9213
v 25.1955 -28.2355 -10.6355
v 25.1796 -28.2919 -6.5492
v 25.1776 -27.5897 -10.6441
v 25.1920 -28.4193 -10.5985
v 25.1903 -28.5753 -10.4910
v 25.1890 -27.8126 -6.4788
v 25.3354 -28.4377 -6.6702
v 25.2070 -28.6847 -7.9581
v 25.1082 -28.5133 -6.8215
v 25.2340 -28.5364 -6.9014
v 25.2440 -27.5887 -10.6513
v 25.3061 -27.5896 -10.6560
v 25.5017 -28.5285 -6.8834
v 25.4201 -28.0762 -6.4690
v 25.4242 -28.2246 -6.5070
v 25.4271 -28.2953 -6.5426
v 25.4276 -28.3515 -6.5825
v 25.4290 -28.4935 -6.7636
v 25.4350 -27.5852 -10.6600
v 25.4966 -28.6259 -7.4982
v 25.2915 -28.6439 -7.5890
v 25.4951 -28.6845 -10.3477
v 25.4502 -28.7493 -9.0920
v 25.4519 -28.7506 -9.5547
v 25.4358 -28.4690 -10.5830
v 25.3003 -28.6572 -10.4008
v 25.4535 -28.0733 -6.4687
v 25.6889 -27.5800 -10.6601
v 25.4300 -28.2270 -10.6489
v 26.5832 -27.5608 -10.6605
v 25.7762 -27.7955 -10.6564
v 26.5137 -28.0103 -6.4674
v 25.4942 -28.5708 -10.5074
v 25.4516 -28.7046 -8.2108
v 25.4244 -28.2041 -6.4977
v 26.1746 -28.2111 -10.6491
v 26.3926 -28.1898 -10.6495
v 26.9423 -28.4958 -6.8973
v 27.6172 -28.1522 -6.4996
v 25.4350 -27.3397 -6.4557
v 26.4257 -28.2056 -10.6492
v 26.8211 -27.4858 -6.4582
v 26.6978 -28.7106 -8.7562
v 26.6442 -27.3087 -6.4551
v 25.4360 -28.4091 -10.6130
v 26.5385 -27.6829 -6.4617
v 26.8329 -28.1963 -10.6494
v 27.2848 -28.3716 -10.6110
v 26.4092 -28.7277 -9.6889
v 25.6862 -28.4653 -6.7233
v 25.5123 -28.7281 -10.1669
v 31.1850 -27.4394 -10.6626
v 29.1034 -28.5951 -10.3528
v 27.8757 -27.9736 -6.4667
v 27.2729 -28.6087 -7.7097
v 27.1100 -28.6605 -8.1638
v 27.9394 -28.6920 -9.4609
v 27.3777 -27.2885 -6.4548
v 28.1532 -28.3504 -10.6114
v 28.0401 -28.5374 -7.3304
v 28.5421 -28.5896 -7.8331
v 27.9381 -28.1701 -10.6498
v 27.7094 -28.6853 -8.7477
v 28.6926 -28.6717 -9.5783
v 29.5894 -28.6273 -10.1687
v 27.5748 -28.6985 -9.0254
v 25.7004 -28.3547 -6.5893
v 29.0965 -27.9375 -6.4661
v 28.9090 -27.6686 -6.4614
v 29.2057 -28.6517 -9.8630
v 27.6267 -28.6970 -8.9897
v 28.7892 -27.4184 -6.4570
v 29.0144 -28.6320 -8.4514
v 29.6443 -27.9204 -6.4658
v 29.0226 -28.1417 -10.6503
v 29.9714 -28.5462 -7.8254
v 29.4707 -28.0969 -6.4985
v 28.3359 -28.5053 -10.5075
v 31.5223 -28.5388 -8.2510
v 29.8854 -28.6293 -8.8856
v 29.8858 -28.6392 -9.3562
v 28.9769 -28.3743 -6.7205
v 30.0173 -27.9084 -6.4656
v 30.0664 -28.1126 -10.6508
v 29.8444 -28.2354 -6.5864
v 29.5354 -28.3139 -10.6119
v 29.6314 -28.4854 -7.2999
v 28.9838 -28.4346 -6.8838
v 31.1805 -28.4249 -10.5085
v 30.0516 -28.6099 -8.5933
v 29.1021 -27.2369 -6.4539
v 31.1958 -28.5435 -10.3369
v 31.0039 -28.5108 -7.8092
v 31.1801 -28.5823 -8.7132
v 31.1875 -27.8826 -6.4653
v 31.1848 -27.6534 -10.6589
v 31.1238 2.0849 -6.7340
v 31.1976 -28.2050 -6.5951
v 31.1939 -28.3004 -6.7167
v 31.1886 -28.3589 -6.8664
v 31.0581 -28.4292 -7.2397
v 31.1850 -28.5793 -10.1684
v 31.1895 -28.2045 -10.6334
v 31.1754 -28.0408 -6.4975
v 31.1879 -28.2716 -10.6108
v 31.2026 -28.5182 -10.3868
v 31.2030 -28.5788 -10.1686
v 31.2530 2.1281 -6.8025
v 31.2562 -28.5768 -10.1680
v 31.2859 -28.5758 -10.1667
v 31.3198 2.1508 -6.8389
v 31.4133 -27.8663 -6.4772
v 31.4870 -28.5904 -9.3772
v 31.1756 -28.0831 -10.6529
v 31.4769 -27.4291 -10.6401
v 31.2891 -27.1652 -6.4578
v 31.9369 -28.5675 -9.0226
v 31.5456 -28.2492 -6.6831
v 31.4414 -28.1573 -6.5802
v 31.5731 -28.0449 -6.5346
v 31.4520 -28.3697 -10.5358
v 31.4500 -27.9230 -6.4861
v 31.4514 -28.1962 -10.6168
v 31.4577 2.1984 -6.9161
v 31.5158 2.2187 -6.9494
v 31.5655 -28.5674 -10.1319
v 31.5267 -28.3166 -6.7892
v 31.4967 -28.5859 -9.7599
v 31.4615 -28.0725 -10.6353
v 31.5623 -28.4915 -10.3777
v 31.6790 -27.9002 -6.5237
v 31.6695 -27.8569 -10.5980
v 31.6988 -28.3619 -10.4880
v 31.8564 -27.4123 -10.5506
v 31.6434 -28.3536 -6.9266
v 31.6942 -27.1552 -6.5178
v 31.7525 -28.5387 -10.2074
v 31.7146 -28.4734 -7.7036
v 31.9923 -28.2482 -6.8235
v 31.7599 -28.4048 -7.2564
v 31.8579 -28.0618 -10.5414
v 32.0409 -28.3943 -10.3221
v 31.8012 -28.1548 -6.6563
v 31.8612 -28.5350 -8.3658
v 31.9445 -28.2958 -10.4415
v 32.0619 -28.0436 -6.6921
v 31.9405 -27.9024 -6.6069
v 31.8340 -28.1853 -10.5344
v 32.1705 -28.4219 -7.5369
v 32.1018 -28.0470 -10.4414
v 32.0355 -28.5495 -9.9477
v 32.2364 -28.3644 -7.2310
v 32.1582 -28.5197 -10.0171
v 31.9424 -28.3168 -6.9190
v 32.1374 -27.3968 -10.4321
v 32.0047 -28.4756 -10.2310
v 32.0252 -27.1517 -6.6292
v 32.1600 -28.5037 -8.2037
v 32.1623 -27.9026 -6.7073
v 32.1228 -28.5594 -9.4633
v 32.3214 -27.4017 -10.3294
v 32.3945 -28.2562 -7.0730
v 32.2458 -28.1209 -10.3595
v 32.3548 -28.3748 -10.1345
v 32.2515 -28.1581 -6.8647
v 32.3883 -27.9078 -6.8452
v 32.3445 -28.5300 -9.7155
v 32.4217 -27.3780 -10.2612
v 32.2921 -28.2783 -10.2690
v 32.3949 -28.0476 -6.8921
v 32.4717 -28.4990 -8.4662
v 32.5865 -28.4892 -9.6431
v 32.4154 -28.1512 -10.2352
v 32.3599 -27.1534 -6.8127
v 32.4031 -28.4522 -9.9793
v 32.5767 -28.3127 -10.0066
v 32.5726 -28.1135 -7.0683
v 32.5754 -27.9181 -6.9935
v 32.4082 -28.3273 -7.2171
v 32.6422 -28.3983 -7.7340
v 32.6880 -27.3558 -10.0299
v 32.5447 -28.0941 -10.1495
v 32.7221 -28.2726 -7.4158
v 32.5718 -27.3775 -10.1450
v 32.6330 -28.5041 -9.3573
v 32.7519 -28.3516 -7.6575
v 32.6536 -27.1604 -7.0504
v 32.7990 -28.3386 -9.6971
v 32.7471 -28.1218 -7.2526
v 32.7255 -27.4291 -7.1293
v 32.8055 -28.4738 -8.8963
v 32.7675 -28.2397 -9.8466
v 32.7272 -28.4240 -9.6355
v 32.7316 -28.0871 -9.9675
v 32.8265 -27.9179 -7.2573
v 32.9036 -28.4450 -9.0585
v 32.9082 -27.4477 -9.7690
v 32.9248 -27.3306 -9.7382
v 32.8970 -28.1323 -7.4574
v 32.9532 -28.2966 -7.8300
v 32.8665 -28.0048 -9.8093
v 32.8874 -28.3926 -8.0702
v 32.9884 -27.9350 -7.4960
v 32.8715 -27.1708 -7.3012
v 32.9482 -28.4209 -8.4983
v 33.0385 -28.3049 -9.2631
v 33.0199 -28.1449 -7.6794
v 32.9557 -28.3923 -9.2216
v 33.0927 -27.9065 -7.6902
v 32.9887 -28.0692 -9.6187
v 32.9887 -28.2150 -9.5285
v 33.0732 -28.3263 -8.2893
v 33.0747 -28.0842 -9.4388
v 33.1328 -27.9704 -7.7905
v 33.1138 -28.1591 -7.9150
v 33.0945 -27.3070 -9.4451
v 33.0739 -28.3590 -8.7626
v 33.0614 -27.1857 -7.6035
v 33.1105 2.8235 -8.0345
v 33.1749 -27.4996 -7.8759
v 33.1812 -27.9430 -7.9204
v 33.1390 -28.2776 -8.9096
v 33.1773 -28.1748 -8.1604
v 33.1420 -28.0403 -9.3049
v 33.2094 -28.1916 -8.4118
v 33.2095 -28.2092 -8.6652
v 33.1416 -27.5533 -9.3311
v 33.1940 -27.9724 -9.1498
v 33.1853 -27.2021 -7.8992
v 33.2062 -27.2844 -9.1468
v 33.1926 2.8567 -8.0979
v 33.1777 -28.1787 -9.0522
v 33.2359 -28.0468 -8.9439
v 33.2510 -27.9599 -8.2114
v 33.2422 -27.9552 -8.9512
v 33.2664 -27.2634 -8.8531
v 33.2508 -27.8707 -8.2134
v 33.2728 -27.9969 -8.7097
v 33.2758 2.8905 -8.1627
v 33.2585 -27.2205 -8.2047
v 33.2757 -27.9802 -8.4500
v 33.2909 -27.2419 -8.5383
v 33.3788 2.9326 -8.2436
v 33.4367 2.9564 -8.2894
vn -0.9988 0.0347 0.0348
vn -0.9993 -0.0118 0.0360
vn -0.9910 -0.1218 0.0560
vn -0.9832 0.0998 -0.1531
vn -0.9712 -0.0137 0.2380
vn -0.9878 -0.0293 0.1533
vn -0.9947 -0.0848 -0.0583
vn -0.9874 -0.0082 -0.1580
vn -0.9870 -0.0072 0.1606
vn -0.9836 -0.0428 -0.1750
vn -0.9525 -0.2443 0.1820
vn -0.9320 -0.2718 -0.2396
vn -0.8887 -0.4375 0.1372
vn -0.8973 -0.4412 -0.0135
vn -0.9521 0.0332 -0.3040
vn -0.9605 -0.0210 -0.2776
vn -0.8866 -0.4403 -0.1418
vn -0.9519 -0.0677 0.2987
vn -0.7428 -0.6639 0.0862
vn -0.7354 -0.6776 -0.0044
vn -0.9096 -0.1202 0.3978
vn -0.8558 -0.4167 0.3065
vn -0.8277 -0.4989 -0.2569
vn -0.7190 -0.6721 0.1769
vn -0.7499 -0.6541 -0.0988
vn -0.9446 0.0042 0.3283
vn -0.9242 -0.0090 -0.3819
vn -0.8620 -0.0121 0.5068
vn -0.8510 0.2270 -0.4736
vn -0.9066 -0.1219 -0.4040
vn -0.7287 -0.6160 0.2993
vn -0.6876 -0.6996 -0.1941
vn -0.5475 -0.8354 0.0488
vn -0.7813 -0.4084 0.4720
vn -0.8204 -0.4453 -0.3587
vn -0.5272 -0.8280 0.1911
vn -0.9125 -0.0103 0.4090
vn -0.8507 -0.0058 0.5257
vn -0.6423 -0.6879 0.3380
vn -0.6921 -0.6629 -0.2856
vn -0.5298 -0.8429 -0.0940
vn -0.8364 -0.2153 0.5041
vn -0.8100 -0.2504 -0.5302
vn -0.3484 -0.9342 0.0771
vn -0.8555 -0.0261 -0.5171
vn -0.3166 -0.9482 -0.0243
vn -0.7596 -0.4677 -0.4520
vn -0.4739 -0.8158 0.3315
vn -0.8422 -0.0188 -0.5389
vn -0.2787 -0.9469 0.1605
vn -0.6146 0.6397 -0.4616
vn -0.7761 -0.0200 -0.6303
vn -0.6491 -0.5915 0.4784
vn -0.6076 -0.7067 -0.3624
vn -0.4619 0.8042 -0.3739
vn -0.6999 -0.0089 -0.7142
vn -0.0999 -0.9936 0.0520
vn -0.8099 -0.0709 0.5823
vn -0.7334 -0.2921 -0.6138
vn -0.1045 -0.9895 0.0995
vn -0.2808 -0.9536 -0.1086
vn -0.4776 -0.8486 -0.2275
vn -0.6662 -0.3927 0.6340
vn -0.6816 -0.4873 -0.5459
vn -0.7760 -0.0131 0.6306
vn -0.7293 -0.0237 0.6838
vn -0.7656 -0.0419 -0.6420
vn -0.5484 -0.6759 0.4923
vn -0.5897 -0.6695 -0.4517
vn -0.2766 -0.9214 0.2728
vn -0.3922 -0.8016 0.4513
vn -0.6774 -0.1780 0.7138
vn -0.0981 -0.9952 -0.0032
vn -0.6790 -0.0115 0.7341
vn -0.6467 -0.2712 -0.7129
vn -0.0507 -0.9941 0.0963
vn -0.6047 -0.4899 -0.6279
vn -0.6355 -0.0209 0.7719
vn -0.2667 -0.9426 -0.2007
vn -0.5144 -0.5992 0.6135
vn -0.4886 -0.7116 -0.5049
vn -0.6629 -0.0259 -0.7483
vn -0.0799 -0.9852 0.1516
vn -0.6145 -0.0110 -0.7889
vn -0.3937 -0.8529 -0.3427
vn -0.0499 -0.9969 0.0603
vn -0.5686 -0.0998 0.8165
vn -0.5355 -0.3843 0.7520
vn -0.5243 -0.4612 -0.7158
vn -0.4235 -0.6436 0.6375
vn -0.4499 -0.6736 -0.5864
vn -0.5546 -0.0883 -0.8274
vn -0.5543 -0.0108 0.8322
vn -0.2806 -0.7931 0.5406
vn -0.5055 -0.0156 -0.8627
vn -0.1876 -0.9297 0.3170
vn -0.4715 -0.0565 0.8800
vn -0.0223 -0.9920 0.1242
vn -0.4406 -0.2929 -0.8486
vn -0.4236 -0.3838 0.8205
vn -0.4288 -0.4857 -0.7617
vn -0.0384 -0.9991 0.0169
vn -0.3527 -0.5945 0.7226
vn -0.3386 -0.7139 -0.6129
vn -0.3666 -0.0088 -0.9303
vn -0.0599 -0.9974 -0.0404
vn -0.2764 -0.8613 -0.4263
vn -0.1374 -0.9039 0.4050
vn -0.1618 -0.9588 -0.2334
vn -0.4468 -0.0379 -0.8938
vn -0.3444 -0.0494 0.9375
vn -0.3414 -0.2698 -0.9004
vn -0.4012 -0.0092 0.9159
vn -0.3234 -0.3803 0.8665
vn -0.0287 -0.9985 0.0472
vn -0.3220 -0.4935 -0.8080
vn -0.2633 -0.6332 0.7278
vn -0.0387 -0.9834 0.1771
vn -0.0276 -0.9963 -0.0809
vn -0.2818 -0.6749 -0.6820
vn -0.1400 -0.7826 0.6066
vn -0.2342 -0.0665 0.9699
vn -0.3257 -0.0242 -0.9452
vn -0.2635 -0.0103 -0.9646
vn -0.2103 -0.3713 0.9044
vn -0.2130 -0.4657 -0.8589
vn -0.1775 -0.6064 0.7751
vn -0.1672 -0.7140 -0.6799
vn 0.0114 -0.9989 0.0446
vn -0.1751 -0.8420 -0.5102
vn -0.0038 -1.0000 0.0091
vn -0.2177 -0.0883 -0.9720
vn -0.0145 -0.9960 0.0884
vn -0.0722 -0.9541 -0.2908
vn 0.0199 -0.9883 0.1510
vn -0.2372 -0.0033 0.9715
vn -0.1239 -0.1603 0.9793
vn -0.0103 -0.9997 -0.0227
vn -0.0085 -0.9834 0.1813
vn -0.0099 -0.9647 0.2633
vn -0.0979 -0.0578 -0.9935
vn -0.0965 -0.5098 0.8549
vn -0.1653 -0.0180 -0.9861
vn -0.0613 -0.7410 -0.6687
vn -0.1031 -0.4187 -0.9022
vn -0.0838 -0.6481 -0.7569
vn -0.1192 -0.0067 0.9929
vn -0.0428 -0.7750 0.6305
vn 0.0110 -0.9949 0.1000
vn -0.0476 -0.9226 0.3829
vn 0.0122 -0.9818 0.1894
vn -0.0613 -0.7410 -0.6687
vn -0.0459 0.6756 -0.7358
vn -0.0613 -0.7410 -0.6687
vn -0.0613 -0.0212 -0.9979
vn -0.0459 0.6756 -0.7358
vn 0.0236 -0.9755 0.2189
vn -0.0676 -0.1594 0.9849
vn -0.9798 -0.0745 0.1854
vn 0.6654 -0.3138 0.6774
vn -0.9810 -0.0991 0.1666
vn -0.0541 -0.3819 0.9226
vn 0.0414 -0.4975 0.8665
vn -0.9813 -0.1171 0.1527
vn -0.0165 -0.6297 0.7767
vn -0.9813 -0.1171 0.1527
vn 0.0087 -0.9175 0.3975
vn -0.0459 0.6756 -0.7358
vn -0.0278 -0.0191 -0.9994
vn 0.0260 -0.9901 0.1377
vn 0.0182 -0.9939 0.1092
vn 0.0193 -0.8909 -0.4538
vn 0.0215 -0.9996 0.0179
vn 0.0209 -0.9997 -0.0089
vn -0.0264 -0.5532 -0.8326
vn -0.0558 -0.8418 -0.5369
vn -0.0052 -0.0337 0.9994
vn -0.0001 -0.0172 -0.9999
vn -0.0110 -0.0521 -0.9986
vn -0.0000 -0.0175 -0.9998
vn 0.0000 -0.0174 -0.9998
vn 0.0030 -0.1025 0.9947
vn 0.0122 -0.6906 -0.7231
vn 0.0228 -0.9965 0.0804
vn 0.0110 -0.3352 0.9421
vn 0.6654 -0.3138 0.6774
vn -0.9798 -0.0745 0.1854
vn 0.0012 -0.0716 -0.9974
vn -0.0000 -0.0176 -0.9998
vn 0.0260 -0.9797 0.1987
vn 0.0101 -0.3713 0.9285
vn -0.0231 -0.0135 0.9996
vn 0.0005 -0.0421 -0.9991
vn -0.0000 -0.0175 0.9998
vn 0.0237 -0.9983 0.0529
vn -0.0000 -0.0175 0.9998
vn 0.0065 -0.4014 -0.9159
vn -0.0001 -0.0174 0.9998
vn 0.0007 -0.0430 -0.9991
vn 0.0081 -0.3518 -0.9361
vn 0.0237 -0.9995 -0.0223
vn 0.0250 -0.8927 0.4499
vn 0.0216 -0.9948 -0.1000
vn 0.0009 -0.0175 -0.9998
vn 0.0235 -0.9143 -0.4044
vn 0.0017 -0.0767 0.9971
vn 0.0254 -0.9922 0.1220
vn 0.0251 -0.9959 0.0868
vn 0.0245 -0.9997 0.0010
vn 0.0000 -0.0173 0.9999
vn 0.0094 -0.3813 -0.9244
vn 0.0276 -0.9887 0.1472
vn 0.0283 -0.9939 0.1066
vn 0.0018 -0.0870 -0.9962
vn 0.0258 -0.9979 0.0594
vn 0.0268 -0.9996 -0.0075
vn 0.0270 -0.9936 -0.1099
vn 0.0239 -0.9997 0.0103
vn 0.0187 -0.6583 0.7525
vn 0.0014 -0.0646 0.9979
vn -0.0000 -0.0175 0.9998
vn 0.0268 -0.9990 -0.0347
vn 0.0280 -0.9993 0.0265
vn 0.0000 -0.0174 0.9998
vn 0.0287 -0.9968 0.0747
vn 0.0009 -0.0437 0.9990
vn 0.0012 -0.0600 -0.9982
vn 0.0302 -0.9934 0.1107
vn 0.0099 -0.3336 0.9427
vn 0.0171 -0.6909 -0.7228
vn 0.0335 -0.9959 0.0836
vn 0.0297 -0.9990 0.0334
vn 0.0291 -0.9996 0.0026
vn 0.0243 -0.8400 0.5421
vn 0.0020 -0.0443 0.9990
vn 0.0014 -0.0828 -0.9966
vn 0.0187 -0.6358 0.7716
vn 0.0105 -0.3943 -0.9189
vn 0.0311 -0.9885 0.1478
vn 0.0294 -0.9715 0.2350
vn 0.0219 -0.8161 -0.5775
vn 0.0197 -0.5646 -0.8251
vn 0.0306 -0.9975 0.0634
vn 0.0013 -0.0156 0.9999
vn 0.0329 -0.9345 -0.3544
vn 0.0330 -0.9914 0.1266
vn 0.0337 -0.9984 0.0447
vn 0.0129 -0.0577 0.9983
vn 0.0229 -0.0142 -0.9996
vn 0.1283 -0.9300 -0.3445
vn 0.0326 -0.6667 0.7446
vn 0.0302 -0.8746 0.4839
vn 0.0328 -0.9722 0.2318
vn 0.0333 -0.9869 0.1576
vn 0.0302 -0.9957 -0.0872
vn 0.0677 -0.1884 -0.9798
vn -0.7728 -0.1860 -0.6068
vn 0.0198 -0.3668 0.9301
vn 0.0160 -0.3572 -0.9339
vn -0.7728 -0.1860 -0.6068
vn 0.0560 -0.7987 -0.5992
vn 0.0969 -0.7813 -0.6166
vn 0.0355 -0.9780 -0.2055
vn 0.1283 -0.9300 -0.3445
vn 0.0401 -0.9779 -0.2052
vn 0.0404 -0.9954 -0.0871
vn 0.1418 -0.9355 -0.3236
vn 0.1307 -0.0115 0.9914
vn 0.0329 -0.9993 0.0150
vn 0.0119 -0.0716 -0.9974
vn -0.7728 -0.1860 -0.6068
vn 0.1494 -0.0056 -0.9888
vn 0.0193 -0.0121 0.9997
vn 0.0546 -0.9979 0.0356
vn 0.1434 -0.7810 0.6078
vn 0.1120 -0.5649 0.8175
vn 0.1807 -0.3476 0.9201
vn 0.1253 -0.5883 -0.7989
vn 0.1076 -0.2156 0.9705
vn 0.1527 -0.3182 -0.9356
vn 0.1580 -0.9413 -0.2981
vn 0.1580 -0.9413 -0.2981
vn 0.0568 -0.9957 -0.0736
vn 0.0798 -0.8919 0.4451
vn 0.0344 -0.9991 -0.0242
vn 0.1336 -0.0480 -0.9899
vn 0.1532 -0.8211 -0.5499
vn 0.2459 -0.0822 0.9658
vn 0.2304 -0.0130 -0.9730
vn 0.2306 -0.6195 -0.7504
vn 0.3057 -0.0057 -0.9521
vn 0.0616 -0.9785 0.1967
vn 0.2332 -0.0079 0.9724
vn 0.1226 -0.9520 -0.2804
vn 0.0448 -0.9912 0.1245
vn 0.2668 -0.7811 0.5646
vn 0.0483 -0.9865 0.1565
vn 0.3333 -0.0290 -0.9424
vn 0.3149 -0.6936 -0.6479
vn 0.2602 -0.5874 0.7663
vn 0.0489 -0.9957 0.0793
vn 0.3795 -0.4302 -0.8191
vn 0.3656 -0.3591 0.8587
vn 0.3418 -0.0378 0.9390
vn 0.2871 -0.2814 -0.9157
vn 0.0863 -0.9869 0.1363
vn 0.4394 -0.0349 -0.8976
vn 0.0856 -0.9936 -0.0731
vn 0.1175 -0.9723 0.2019
vn 0.2240 -0.9422 -0.2493
vn 0.1671 -0.9060 0.3889
vn 0.4140 -0.0066 -0.9103
vn 0.2727 -0.8395 -0.4700
vn 0.4069 -0.0090 0.9134
vn 0.0726 -0.9931 0.0918
vn 0.4759 -0.0495 0.8781
vn 0.0832 -0.9965 0.0010
vn 0.5512 -0.0182 -0.8342
vn 0.4183 -0.7362 0.5320
vn 0.5168 -0.1180 -0.8479
vn 0.4290 -0.7027 -0.5676
vn 0.4080 -0.5908 0.6960
vn 0.5740 -0.0739 0.8155
vn 0.1361 -0.9886 -0.0647
vn 0.4616 0.5313 -0.7104
vn 0.5837 -0.3043 -0.7527
vn 0.5056 -0.4489 -0.7368
vn 0.5203 -0.3328 0.7865
vn 0.1148 -0.9910 0.0687
vn 0.3272 -0.9281 -0.1775
vn 0.5688 -0.2778 -0.7741
vn 0.5619 -0.0086 0.8271
vn 0.4158 -0.8154 -0.4029
vn 0.6032 -0.5212 -0.6037
vn 0.5700 -0.5106 0.6437
vn 0.6663 -0.0641 0.7429
vn 0.2696 -0.9016 0.3383
vn 0.1444 -0.9794 0.1409
vn 0.4458 0.6828 -0.5788
vn 0.7569 -0.0384 -0.6524
vn 0.6251 -0.0902 -0.7753
vn 0.5173 -0.7373 0.4344
vn 0.4458 0.6828 -0.5788
vn 0.6918 -0.0180 -0.7218
vn 0.1583 -0.9872 -0.0192
vn 0.3559 -0.8966 0.2636
vn 0.6706 -0.0065 0.7418
vn 0.6222 -0.6677 -0.4088
vn 0.6820 -0.4078 0.6071
vn 0.7389 -0.0154 0.6737
vn 0.1389 -0.9899 0.0293
vn 0.7424 -0.3817 -0.5506
vn 0.5268 -0.7960 -0.2980
vn 0.7397 -0.0805 -0.6681
vn 0.7760 -0.0837 0.6252
vn 0.3818 -0.9223 -0.0598
vn 0.8179 -0.0109 -0.5753
vn 0.8193 0.0344 -0.5724
vn 0.7244 -0.4919 0.4830
vn 0.6000 -0.7438 0.2945
vn 0.8053 -0.0388 -0.5916
vn 0.2668 -0.9552 0.1283
vn 0.8644 -0.0594 0.4993
vn 0.8148 -0.0080 0.5797
vn 0.2879 -0.9553 0.0675
vn 0.7209 -0.6383 -0.2698
vn 0.8011 -0.4324 0.4138
vn 0.5510 -0.8186 -0.1621
vn 0.9104 -0.0064 0.4137
vn 0.8659 -0.0760 -0.4944
vn 0.8166 -0.4262 -0.3893
vn 0.6339 -0.7602 0.1425
vn 0.8786 -0.2512 -0.4061
vn 0.9054 -0.2637 0.3329
vn 0.7858 -0.5531 0.2767
vn 0.8980 -0.0188 -0.4396
vn 0.6237 -0.7817 -0.0041
vn 0.8870 -0.0152 0.4615
vn 0.1769 -0.9473 -0.2670
vn 0.9437 -0.0130 0.3305
vn 0.9582 -0.0280 0.2848
vn 0.7479 -0.6528 -0.1203
vn 0.8888 -0.4047 0.2149
vn 0.9264 -0.1289 -0.3539
vn 0.8576 -0.5073 0.0841
vn 0.9014 -0.4318 -0.0318
vn 0.9330 -0.0126 -0.3597
vn 0.9629 -0.0137 -0.2695
vn 0.9500 -0.0088 0.3120
vn 0.9603 -0.0417 -0.2758
vn 0.1769 -0.9473 -0.2670
vn 0.8996 -0.3830 -0.2100
vn 0.9620 -0.1883 -0.1977
vn 0.9541 -0.2314 0.1900
vn 0.9769 -0.0126 -0.2135
vn 0.9855 -0.0145 -0.1693
vn 0.9808 -0.0112 0.1945
vn 0.9944 -0.0793 -0.0705
vn 0.1340 -0.9387 -0.3175
vn 0.9869 -0.0125 0.1608
vn 0.9953 -0.0725 0.0638
vn 0.9999 -0.0117 0.0063
vn 0.0764 -0.9210 -0.3821
vn 0.0764 -0.9210 -0.3821
g Start
f 250//268 254//273 233//248
f 221//235 254//273 229//244
f 221//235 233//248 254//273
f 212//226 221//235 229//244
f 210//224 212//226 229//244
f 180//194 210//224 229//244
f 180//194 229//244 196//210
f 180//194 196//210 182//196
f 180//194 182//196 178//192
f 285//304 295//314 274//293
f 285//304 274//293 269//288
f 250//268 274//293 254//273
f 269//288 274//293 250//268
f 165//177 180//194 178//192
f 144//147 178//192 134//136
f 144//147 165//177 178//192
f 120//122 144//147 134//136
f 109//111 134//136 111//113
f 109//111 120//122 134//136
f 95//97 111//113 91//93
f 95//97 109//111 111//113
f 85//87 95//97 91//93
f 76//78 91//93 72//74
f 76//78 85//87 91//93
f 64//66 72//74 63//65
f 64//66 76//78 72//74
f 56//58 63//65 38//38
f 56//58 64//66 63//65
f 37//37 56//58 38//38
f 37//37 38//38 26//26
f 5//5 37//37 26//26
f 5//5 26//26 9//9
f 5//5 9//9 1//1
f 2//2 5//5 1//1
f 8//8 1//1 4//4
f 8//8 2//2 1//1
f 8//8 4//4 15//15
f 27//27 8//8 15//15
f 27//27 15//15 29//29
f 49//49 27//27 29//29
f 51//51 29//29 54//55
f 51//51 49//49 29//29
f 80//82 54//56 82//84
f 90//92 82//84 93//95
f 90//92 80//82 82//84
f 108//110 93//95 103//105
f 108//110 90//92 93//95
f 121//123 103//105 122//124
f 121//123 108//110 103//105
f 130//132 121//123 122//124
f 130//132 122//124 141//143
f 150//154 141//144 149//152
f 139//141 130//132 141//143
f 150//155 139//141 141//143
f 150//156 149//153 157//168
f 157//169 166//178 167//179
f 169//181 167//179 166//178
f 169//181 166//178 168//180
f 179//193 169//181 168//180
f 185//199 179//193 168//180
f 185//199 168//180 190//204
f 200//214 185//199 190//204
f 213//227 200//214 190//204
f 222//236 213//227 190//204
f 234//249 222//236 190//204
f 234//249 190//204 253//272
f 267//286 234//249 253//272
f 270//289 253//272 272//291
f 270//289 267//286 253//272
f 279//298 270//289 272//291
f 279//298 272//291 293//312
f 288//307 279//298 293//312
f 299//318 288//307 293//312
f 299//318 293//312 306//325
f 322//343 306//325 319//339
f 299//318 306//326 322//344
f 335//357 319//340 336//358
f 322//344 319//340 335//357
f 335//357 336//358 354//376
f 335//357 354//376 365//387
f 365//387 354//376 368//390
f 365//387 368//390 374//396
f 365//387 374//396 373//395
f 373//395 374//396 376//398
f 376//398 374//396 380//402
f 379//401 380//402 378//400
f 376//398 380//402 379//401
f 379//401 378//400 375//397
f 358//380 378//400 367//389
f 375//397 378//400 358//380
f 358//380 367//389 356//378
f 341//363 356//378 342//364
f 358//380 356//378 341//363
f 341//363 342//364 333//355
f 328//350 342//364 325//347
f 333//355 342//364 328//350
f 316//336 325//347 312//332
f 328//350 325//347 316//336
f 316//336 312//332 304//323
f 297//316 312//332 295//314
f 304//323 312//332 297//316
f 297//316 295//314 285//304
f 249//267 246//264 235//250
f 263//282 262//281 249//267
f 377//399 369//391 357//379
f 382//404 381//403 377//399
f 207//221 212//226 210//224
f 207//221 210//224 180//194
f 184//198 206//220 180//194
f 184//198 180//194 165//177
f 206//220 212//226 207//221
f 206//220 207//221 180//194
f 144//147 152//158 165//177
f 260//279 250//268 233//248
f 242//258 233//248 221//235
f 242//258 221//235 215//229
f 215//229 221//235 212//226
f 192//206 206//220 184//198
f 170//182 192//206 184//198
f 165//177 170//182 184//198
f 173//185 165//177 152//158
f 215//229 212//226 206//220
f 215//229 206//220 177//191
f 177//191 206//220 192//206
f 177//191 192//206 170//182
f 177//191 170//182 173//185
f 173//185 170//182 165//177
f 320//341 299//318 322//344
f 332//354 320//341 322//344
f 339//361 332//354 335//357
f 322//344 335//357 332//354
f 348//370 339//361 335//357
f 362//384 348//370 365//387
f 335//357 365//387 348//370
f 366//388 362//384 365//387
f 365//387 373//395 366//388
f 359//381 375//397 358//380
f 347//369 359//381 358//380
f 358//380 341//363 347//369
f 316//336 333//355 328//350
f 252//270 234//249 267//286
f 279//298 267//286 270//289
f 301//320 288//307 299//318
f 301//320 299//318 320//341
f 372//394 379//401 375//397
f 372//394 375//397 359//381
f 341//363 352//374 347//369
f 260//279 269//288 250//268
f 241//256 252//270 267//286
f 261//280 241//256 267//286
f 286//305 267//286 279//298
f 286//305 261//280 267//286
f 286//305 279//298 288//307
f 301//320 286//305 288//307
f 311//331 301//320 320//341
f 348//370 332//354 339//361
f 351//373 348//370 362//384
f 362//384 366//388 373//395
f 371//393 373//395 376//398
f 371//393 362//384 373//395
f 352//374 372//394 359//381
f 352//374 359//381 347//369
f 28//28 56//58 37//37
f 18//18 37//37 5//5
f 7//7 2//2 8//8
f 10//10 7//7 8//8
f 16//16 8//8 27//27
f 16//16 10//10 8//8
f 30//30 16//16 27//27
f 45//45 27//27 49//49
f 45//45 30//30 27//27
f 65//67 51//52 54//56
f 65//67 49//49 51//52
f 80//82 65//67 54//56
f 135//137 144//147 120//122
f 135//137 152//158 144//147
f 21//21 37//37 18//18
f 21//21 28//28 37//37
f 6//6 5//5 2//2
f 6//6 18//18 5//5
f 3//3 2//2 7//7
f 3//3 6//6 2//2
f 157//169 167//179 139//141
f 150//155 157//169 139//141
f 42//42 56//58 28//28
f 65//67 45//45 49//49
f 183//197 139//141 167//179
f 70//72 76//78 64//66
f 70//72 85//87 76//78
f 56//58 70//72 64//66
f 21//21 42//42 28//28
f 11//11 18//18 6//6
f 3//3 11//11 6//6
f 12//12 10//10 16//16
f 12//12 7//7 10//10
f 12//12 16//16 30//30
f 43//43 30//30 45//45
f 43//43 45//45 65//67
f 57//59 43//43 65//67
f 73//75 65//67 80//82
f 73//75 57//59 65//67
f 90//92 73//75 80//82
f 97//99 90//92 108//110
f 110//112 108//110 121//123
f 110//112 97//99 108//110
f 130//132 110//112 121//123
f 142//145 130//132 139//141
f 142//145 139//141 183//197
f 174//188 167//179 169//181
f 175//189 174//188 169//181
f 179//193 175//189 169//181
f 252//270 222//236 234//249
f 179//193 174//188 175//189
f 186//200 185//199 200//214
f 186//200 200//214 197//211
f 224//238 200//214 213//227
f 197//211 200//214 224//238
f 224//238 213//227 222//236
f 224//238 222//236 243//259
f 243//259 222//236 252//270
f 241//257 243//260 252//271
f 183//197 167//179 174//188
f 183//197 174//188 179//193
f 183//197 179//193 185//199
f 183//197 185//199 186//200
f 147//150 151//157 156//167
f 136//138 189//203 162//174
f 129//131 162//174 161//173
f 129//131 136//138 162//174
f 127//129 129//131 161//173
f 131//133 127//129 172//184
f 146//149 172//184 159//171
f 146//149 131//133 172//184
f 159//171 158//170 133//135
f 156//167 151//157 188//202
f 176//190 151//157 133//135
f 194//208 159//171 172//184
f 181//195 127//129 161//173
f 204//218 181//195 161//173
f 162//174 204//218 161//173
f 188//202 151//157 176//190
f 193//207 133//135 158//170
f 159//171 193//207 158//170
f 181//195 172//184 127//129
f 194//208 193//207 159//171
f 181//195 194//208 172//184
f 187//201 204//218 162//174
f 187//201 162//174 189//203
f 201//215 194//208 181//195
f 204//218 201//215 181//195
f 188//202 176//190 226//240
f 198//212 133//135 193//207
f 199//213 193//207 194//208
f 195//209 204//218 187//201
f 189//203 208//222 187//201
f 160//172 191//205 189//203
f 198//212 176//190 133//135
f 220//234 188//202 226//240
f 198//212 226//240 176//190
f 199//213 198//212 193//207
f 211//225 199//213 194//208
f 201//215 211//225 194//208
f 202//216 195//209 187//201
f 208//222 202//216 187//201
f 203//217 208//222 189//203
f 191//205 203//217 189//203
f 209//223 211//225 201//215
f 202//216 204//218 195//209
f 209//223 201//215 204//218
f 202//216 209//223 204//218
f 225//239 226//240 198//212
f 211//225 214//228 199//213
f 218//232 228//243 211//225
f 209//223 218//232 211//225
f 202//216 219//233 209//223
f 214//228 198//212 199//213
f 219//233 218//232 209//223
f 208//222 219//233 202//216
f 214//228 225//239 198//212
f 217//231 214//228 211//225
f 228//243 217//231 211//225
f 217//231 231//246 214//228
f 239//254 226//240 225//239
f 231//246 225//239 214//228
f 251//269 218//232 219//233
f 266//285 219//233 208//222
f 231//246 239//254 225//239
f 218//232 232//247 228//243
f 191//205 230//245 203//217
f 239//254 238//253 226//240
f 237//252 226//240 238//253
f 237//252 220//234 226//240
f 232//247 217//231 228//243
f 251//269 232//247 218//232
f 266//285 251//269 219//233
f 266//285 208//222 203//217
f 276//295 239//254 231//246
f 217//231 276//295 231//246
f 240//255 266//285 203//217
f 230//245 240//255 203//217
f 273//292 238//253 239//254
f 255//274 232//247 251//269
f 266//285 255//274 251//269
f 248//266 266//285 240//255
f 247//265 248//266 240//255
f 278//297 239//254 276//295
f 278//297 273//292 239//254
f 282//301 276//295 217//231
f 255//274 217//231 232//247
f 264//283 266//285 248//266
f 230//245 248//266 247//265
f 230//245 264//283 248//266
f 240//255 245//263 247//265
f 230//245 247//265 245//263
f 230//245 245//263 240//255
f 238//253 273//292 265//284
f 282//301 217//231 255//274
f 298//317 255//274 266//285
f 275//294 264//283 230//245
f 287//306 278//297 276//295
f 296//315 287//306 276//295
f 296//315 276//295 282//301
f 255//274 296//315 282//301
f 264//283 298//317 266//285
f 287//306 273//292 278//297
f 309//329 287//306 296//315
f 309//329 296//315 255//274
f 298//317 309//329 255//274
f 289//308 298//317 264//283
f 275//294 289//308 264//283
f 265//284 273//292 292//311
f 290//309 273//292 287//306
f 292//311 273//292 290//309
f 318//338 290//309 287//306
f 318//338 287//306 309//329
f 329//351 309//329 298//317
f 323//345 329//351 298//317
f 305//324 298//317 289//308
f 305//324 323//345 298//317
f 291//310 289//308 275//294
f 292//311 290//309 317//337
f 340//362 318//338 309//329
f 343//365 340//362 309//329
f 329//351 343//365 309//329
f 310//330 323//345 305//324
f 291//310 305//324 289//308
f 310//330 305//324 291//310
f 317//337 290//309 318//338
f 317//337 318//338 324//346
f 324//346 318//338 340//362
f 343//365 329//351 334//356
f 334//356 329//351 323//345
f 334//356 323//345 310//330
f 113//115 127//129 131//133
f 131//133 146//149 159//171
f 96//98 131//133 159//171
f 148//151 133//135 151//157
f 132//134 160//172 189//203
f 117//119 189//203 136//138
f 132//134 189//203 117//119
f 100//102 136//138 129//131
f 100//102 129//131 127//129
f 100//102 127//129 113//115
f 133//135 96//98 159//171
f 133//135 116//118 96//98
f 137//139 133//135 148//151
f 147//150 148//151 151//157
f 138//140 137//139 148//151
f 147//150 138//140 148//151
f 104//106 117//119 136//138
f 84//86 100//102 113//115
f 84//86 113//115 131//133
f 74//76 131//133 96//98
f 116//118 133//135 137//139
f 147//150 137//139 138//140
f 147//150 116//118 137//139
f 104//106 136//138 100//102
f 74//76 84//86 131//133
f 106//108 116//118 147//150
f 107//109 117//119 104//106
f 132//134 117//119 107//109
f 71//73 104//106 100//102
f 55//57 100//102 84//86
f 81//83 74//76 96//98
f 81//83 96//98 116//118
f 94//96 116//118 106//108
f 107//109 104//106 77//79
f 55//57 71//73 100//102
f 55//57 84//86 74//76
f 58//60 55//57 74//76
f 58//60 74//76 81//83
f 94//96 81//83 116//118
f 68//70 81//83 94//96
f 59//61 104//106 71//73
f 77//79 104//106 59//61
f 46//46 71//73 55//57
f 59//61 71//73 46//46
f 46//46 55//57 44//44
f 50//50 55//57 58//60
f 44//44 55//57 50//50
f 50//50 58//60 81//83
f 50//50 81//83 68//70
f 244//261 230//245 227//241
f 191//205 227//241 230//245
f 227//242 224//238 243//259
f 216//230 224//238 227//242
f 191//205 216//230 227//241
f 216//230 197//211 224//238
f 216//230 186//200 197//211
f 160//172 216//230 191//205
f 216//230 183//197 186//200
f 171//183 183//197 216//230
f 160//172 171//183 216//230
f 163//175 183//197 171//183
f 164//176 171//183 160//172
f 142//145 183//197 163//175
f 142//145 163//175 171//183
f 143//146 171//183 164//176
f 143//146 142//145 171//183
f 132//134 164//176 160//172
f 268//287 230//245 244//261
f 259//278 244//262 227//242
f 268//287 244//261 259//278
f 259//278 227//242 243//259
f 259//278 243//259 261//280
f 261//280 243//259 241//256
f 259//278 261//280 286//305
f 271//290 259//278 286//305
f 283//302 286//305 301//320
f 283//302 271//290 286//305
f 307//327 301//320 311//331
f 307//327 283//302 301//320
f 307//327 311//331 320//341
f 314//334 320//341 332//354
f 314//334 307//327 320//341
f 330//352 332//354 348//370
f 330//352 314//334 332//354
f 349//371 348//370 351//373
f 349//371 330//352 348//370
f 349//371 351//373 362//384
f 370//392 362//384 371//393
f 370//392 349//371 362//384
f 370//392 371//393 376//398
f 364//386 376//398 379//401
f 364//386 370//392 376//398
f 363//385 379//401 372//394
f 363//385 364//386 379//401
f 361//383 372//394 352//374
f 361//383 363//385 372//394
f 353//375 361//383 352//374
f 345//367 352//374 341//363
f 345//367 353//375 352//374
f 337//359 341//363 333//355
f 337//359 345//367 341//363
f 327//349 333//355 316//336
f 327//349 337//359 333//355
f 315//335 316//336 304//323
f 315//335 327//349 316//336
f 308//328 304//323 297//316
f 308//328 315//335 304//323
f 284//303 297//316 285//304
f 284//303 308//328 297//316
f 284//303 285//304 269//288
f 258//277 269//288 260//279
f 258//277 284//303 269//288
f 258//277 260//279 233//248
f 242//258 258//277 233//248
f 280//299 283//302 307//327
f 280//299 271//290 283//302
f 302//321 307//327 314//334
f 302//321 280//299 307//327
f 326//348 330//352 349//371
f 326//348 314//334 330//352
f 344//366 349//371 370//392
f 344//366 326//348 349//371
f 360//382 370//392 364//386
f 360//382 344//366 370//392
f 303//322 308//328 284//303
f 303//322 315//335 308//328
f 281//300 284//303 258//277
f 281//300 303//322 284//303
f 257//276 258//277 242//258
f 257//276 281//300 258//277
f 236//251 257//276 242//258
f 268//287 259//278 271//290
f 268//287 271//290 280//299
f 294//313 268//287 280//299
f 294//313 280//299 302//321
f 313//333 302//321 314//334
f 313//333 294//313 302//321
f 313//333 314//334 326//348
f 331//353 313//333 326//348
f 331//353 326//348 344//366
f 346//368 331//353 344//366
f 346//368 344//366 360//382
f 355//377 360//382 364//386
f 355//377 346//368 360//382
f 355//377 364//386 363//385
f 350//372 363//385 361//383
f 350//372 355//377 363//385
f 350//372 361//383 353//375
f 338//360 353//375 345//367
f 338//360 350//372 353//375
f 338//360 345//367 337//359
f 321//342 337//359 327//349
f 321//342 338//360 337//359
f 321//342 327//349 315//335
f 300//319 315//335 303//322
f 300//319 321//342 315//335
f 277//296 303//322 281//300
f 277//296 300//319 303//322
f 256//275 281//300 257//276
f 256//275 277//296 281//300
f 256//275 257//276 236//251
f 275//294 268//287 294//313
f 275//294 230//245 268//287
f 291//310 294//313 313//333
f 291//310 275//294 294//313
f 310//330 313//333 331//353
f 310//330 291//310 313//333
f 310//330 331//353 346//368
f 334//356 310//330 346//368
f 334//356 346//368 355//377
f 343//365 355//377 350//372
f 343//365 334//356 355//377
f 340//362 350//372 338//360
f 340//362 343//365 350//372
f 324//346 338//360 321//342
f 324//346 340//362 338//360
f 317//337 321//342 300//319
f 317//337 324//346 321//342
f 317//337 300//319 277//296
f 292//311 317//337 277//296
f 292//311 277//296 256//275
f 265//284 292//311 256//275
f 265//284 256//275 236//251
f 237//252 265//284 236//251
f 237//252 238//253 265//284
f 223//237 237//252 236//251
f 223//237 236//251 242//258
f 154//163 205//219 173//185
f 145//148 188//202 205//219
f 155//165 145//148 205//219
f 154//163 155//165 205//219
f 145//148 156//167 188//202
f 153//160 154//163 173//186
f 205//219 177//191 173//185
f 220//234 205//219 188//202
f 223//237 177//191 205//219
f 220//234 223//237 205//219
f 223//237 215//229 177//191
f 223//237 242//258 215//229
f 237//252 223//237 220//234
f 147//150 156//167 145//148
f 145//148 155//165 140//142
f 153//161 155//166 154//164
f 140//142 155//165 153//162
f 152//159 153//161 173//187
f 140//142 153//162 152//158
f 140//142 152//158 135//137
f 123//125 135//137 120//122
f 123//125 140//142 135//137
f 112//114 120//122 109//111
f 112//114 123//125 120//122
f 98//100 109//111 95//97
f 98//100 112//114 109//111
f 86//88 95//97 85//87
f 86//88 98//100 95//97
f 61//63 85//87 70//72
f 61//63 86//88 85//87
f 61//63 70//72 56//58
f 34//34 56//58 42//42
f 34//34 61//63 56//58
f 34//34 42//42 21//21
f 22//22 21//21 18//18
f 22//22 34//34 21//21
f 13//13 18//18 11//11
f 13//13 22//22 18//18
f 13//13 11//11 3//3
f 14//14 3//3 7//7
f 14//14 13//13 3//3
f 17//17 7//7 12//12
f 17//17 14//14 7//7
f 23//23 17//17 12//12
f 35//35 12//12 30//30
f 35//35 23//23 12//12
f 47//47 30//30 43//43
f 47//47 35//35 30//30
f 62//64 43//43 57//59
f 62//64 47//47 43//43
f 75//77 57//59 73//75
f 75//77 62//64 57//59
f 87//89 73//75 90//92
f 87//89 75//77 73//75
f 99//101 90//92 97//99
f 99//101 87//89 90//92
f 114//116 97//99 110//112
f 114//116 99//101 97//99
f 124//126 110//112 130//132
f 124//126 114//116 110//112
f 142//145 124//126 130//132
f 125//127 140//142 123//125
f 115//117 123//125 112//114
f 115//117 125//127 123//125
f 101//103 112//114 98//100
f 101//103 115//117 112//114
f 88//90 98//100 86//88
f 88//90 101//103 98//100
f 78//80 86//88 61//63
f 78//80 88//90 86//88
f 66//68 78//80 61//63
f 52//53 61//63 34//34
f 52//53 66//68 61//63
f 39//39 52//53 34//34
f 31//31 34//34 22//22
f 31//31 39//39 34//34
f 24//24 22//22 13//13
f 24//24 31//31 22//22
f 19//19 24//24 13//13
f 20//20 13//13 14//14
f 20//20 19//19 13//13
f 25//25 14//14 17//17
f 25//25 20//20 14//14
f 32//32 17//17 23//23
f 32//32 25//25 17//17
f 40//40 23//23 35//35
f 40//40 32//32 23//23
f 53//54 35//35 47//47
f 53//54 40//40 35//35
f 67//69 47//47 62//64
f 67//69 53//54 47//47
f 79//81 62//64 75//77
f 79//81 67//69 62//64
f 89//91 75//77 87//89
f 89//91 79//81 75//77
f 102//104 87//89 99//101
f 102//104 89//91 87//89
f 118//120 99//101 114//116
f 118//120 102//104 99//101
f 126//128 114//116 124//126
f 126//128 118//120 114//116
f 143//146 124//126 142//145
f 143//146 126//128 124//126
f 119//121 140//142 125//127
f 119//121 145//148 140//142
f 119//121 125//127 115//117
f 92//94 115//117 101//103
f 92//94 119//121 115//117
f 92//94 101//103 88//90
f 69//71 88//90 78//80
f 69//71 92//94 88//90
f 69//71 78//80 66//68
f 48//48 66//68 52//53
f 48//48 69//71 66//68
f 48//48 52//53 39//39
f 36//36 39//39 31//31
f 36//36 48//48 39//39
f 36//36 31//31 24//24
f 33//33 24//24 19//19
f 33//33 36//36 24//24
f 33//33 19//19 20//20
f 41//41 20//20 25//25
f 41//41 33//33 20//20
f 41//41 25//25 32//32
f 60//62 32//32 40//40
f 60//62 41//41 32//32
f 60//62 40//40 53//54
f 83//85 53//54 67//69
f 83//85 60//62 53//54
f 83//85 67//69 79//81
f 105//107 79//81 89//91
f 105//107 83//85 79//81
f 105//107 89//91 102//104
f 128//130 102//104 118//120
f 128//130 105//107 102//104
f 128//130 118//120 126//128
f 164//176 126//128 143//146
f 164//176 128//130 126//128
f 147//150 145//148 119//121
f 106//108 147//150 119//121
f 106//108 119//121 92//94
f 94//96 106//108 92//94
f 94//96 92//94 69//71
f 68//70 94//96 69//71
f 68//70 69//71 48//48
f 50//50 68//70 48//48
f 50//50 48//48 36//36
f 44//44 36//36 33//33
f 44//44 50//50 36//36
f 46//46 33//33 41//41
f 46//46 44//44 33//33
f 59//61 41//41 60//62
f 59//61 46//46 41//41
f 77//79 60//62 83//85
f 77//79 59//61 60//62
f 107//109 83//85 105//107
f 107//109 77//79 83//85
f 132//134 105//107 128//130
f 132//134 107//109 105//107
f 132//134 128//130 164//176
