# Blender 4.5.12 LTS
# www.blender.org
o B4
v 54.099689 -16.158083 35.676331
v 54.099689 -16.306875 35.676331
v 53.669312 -16.158083 36.479843
v 54.363392 -16.158083 34.803879
v 54.363392 -16.306799 34.803871
v 54.453556 -16.158083 33.896881
v 54.363361 -16.158083 32.989754
v 54.453556 -16.307287 33.896881
v 54.363361 -16.308344 32.989754
v 54.453556 -17.258085 33.896881
v 54.363361 -17.265902 32.989754
v 54.453556 -19.812071 33.896881
v 54.363392 -17.254534 34.803879
v 54.363392 -19.800253 34.803871
v 54.099689 -17.255056 35.676331
v 54.099689 -19.802011 35.676331
v 53.669312 -17.259512 36.479843
v 53.669312 -19.816790 36.479843
v 53.091724 -17.266928 37.185143
v 53.669312 -16.307482 36.479843
v 53.091721 -16.308489 37.185143
v 53.091721 -16.158083 37.185143
v 52.386356 -16.309774 37.762962
v 52.386356 -17.276365 37.762962
v 52.386356 -16.158083 37.762962
v 51.582542 -16.311197 38.193649
v 51.582542 -16.158083 38.193649
v 51.582542 -17.286921 38.193649
v 50.709526 -16.312654 38.457581
v 50.709526 -17.297659 38.457581
v 50.709526 -16.158083 38.457581
v 49.801903 -16.314096 38.547844
v 49.801903 -16.158083 38.547844
v 49.801910 -17.308294 38.547844
v 48.894264 -16.315493 38.457565
v 48.894264 -17.318571 38.457565
v 48.894264 -16.158083 38.457565
v 48.021172 -16.316854 38.193611
v 48.021172 -16.158083 38.193611
v 48.021179 -17.328657 38.193611
v 47.217175 -16.318224 37.762894
v 47.217175 -17.338724 37.762894
v 47.217175 -16.158083 37.762894
v 46.511574 -16.319571 37.184975
v 46.511574 -16.158083 37.184975
v 46.511574 -17.348604 37.184975
v 45.933647 -16.320856 36.479431
v 45.933647 -17.358126 36.479431
v 45.933643 -16.158083 36.479431
v 45.502960 -16.322050 35.675583
v 45.502960 -16.158083 35.675583
v 45.502960 -17.366915 35.675583
v 45.239075 -16.323095 34.802734
v 45.239075 -17.374659 34.802734
v 45.239075 -16.158083 34.802734
v 45.148827 -16.323942 33.895439
v 45.148827 -16.158083 33.895439
v 45.148827 -17.380838 33.895439
v 45.239044 -16.324484 32.988213
v 45.239044 -17.384981 32.988213
v 45.239044 -16.158083 32.988213
v 45.502869 -16.324785 32.115570
v 45.502869 -16.158083 32.115570
v 45.502869 -17.387094 32.115570
v 45.933403 -16.324800 31.311987
v 45.933403 -17.387175 31.311983
v 45.933403 -16.158083 31.311983
v 46.511131 -16.324545 30.606726
v 46.511131 -16.158083 30.606722
v 46.511143 -17.385263 30.606726
v 47.216492 -16.324015 30.029049
v 47.216488 -17.381380 30.029049
v 47.216488 -16.158083 30.029049
v 48.020226 -16.323221 29.598513
v 48.020237 -16.158083 29.598513
v 48.020237 -17.375597 29.598515
v 48.893116 -16.322191 29.334688
v 48.893116 -17.367956 29.334688
v 48.893116 -16.158083 29.334688
v 49.800598 -16.320913 29.244469
v 49.800598 -16.158083 29.244469
v 49.800606 -17.358572 29.244469
v 50.708187 -16.319426 29.334761
v 50.708187 -17.347593 29.334761
v 50.708187 -16.158083 29.334761
v 51.581284 -16.317717 29.598713
v 51.581284 -16.158083 29.598719
v 51.581284 -17.334986 29.598713
v 52.385345 -16.315783 30.029497
v 52.385345 -17.320738 30.029497
v 52.385345 -16.158083 30.029497
v 53.091003 -16.313742 30.607510
v 53.091003 -16.158083 30.607508
v 53.091003 -17.305696 30.607510
v 53.668934 -16.311728 31.313135
v 53.668934 -17.290758 31.313135
v 53.668934 -16.158083 31.313135
v 54.099567 -16.309862 32.117012
v 54.099567 -16.158083 32.117012
v 54.099552 -17.277086 32.117012
v 54.099567 -19.875189 32.117012
v 53.668934 -19.920588 31.313135
v 54.099552 -21.777220 32.117012
v 54.363361 -19.838041 32.989754
v 54.363361 -21.714090 32.989754
v 54.453556 -21.669989 33.896881
v 54.363361 -22.671659 32.989761
v 54.453556 -22.620783 33.896881
v 54.336807 -22.791796 32.993065
v 54.099567 -22.744444 32.117012
v 53.668926 -22.833376 31.313135
v 54.075348 -22.865267 32.123985
v 53.648708 -22.954985 31.324003
v 54.002750 -22.924177 32.144905
v 53.588043 -23.012510 31.356615
v 53.844345 -22.969904 32.190536
v 54.257172 -22.851683 33.002983
v 54.083405 -22.900381 33.024620
v 54.344231 -22.800856 33.895889
v 54.426228 -22.740412 33.896637
v 54.165329 -22.851362 33.894257
v 54.256859 -22.777555 34.788628
v 54.082542 -22.828608 34.763687
v 54.336754 -22.716970 34.800072
v 54.002338 -22.780638 35.646408
v 53.843048 -22.830999 35.597435
v 53.587940 -22.808981 36.434387
v 54.075352 -22.720354 35.668846
v 53.648972 -22.749453 36.468475
v 54.099689 -22.601072 35.676331
v 53.669312 -22.630014 36.479843
v 54.099693 -21.652899 35.676331
v 54.363392 -22.597628 34.803879
v 54.363392 -21.649900 34.803879
v 53.669312 -21.677992 36.479843
v 53.091724 -21.719866 37.185143
v 53.091721 -19.841433 37.185143
v 52.386356 -21.773176 37.762962
v 53.091721 -22.678297 37.185143
v 53.076073 -22.798063 37.169693
v 52.386356 -22.739775 37.762962
v 51.582542 -22.808451 38.193649
v 52.375134 -22.860041 37.743217
v 51.575428 -22.929350 38.170280
v 52.341434 -22.917479 37.683998
v 52.267937 -22.960035 37.554779
v 53.029137 -22.856581 37.123344
v 51.554047 -22.985807 38.100166
v 51.507408 -23.025457 37.947174
v 50.696159 -23.055693 38.355637
v 50.674263 -23.093042 38.188812
v 50.706184 -22.999937 38.432091
v 49.802986 -23.125238 38.442978
v 49.802177 -23.069971 38.521629
v 49.804771 -23.160719 38.271370
v 48.909786 -23.192511 38.354736
v 48.935162 -23.226366 38.186478
v 48.898151 -23.137640 38.431854
v 48.051594 -23.258486 38.098686
v 48.028790 -23.204039 38.169876
v 48.101376 -23.290655 37.943336
v 47.263481 -23.324121 37.682579
v 47.339241 -23.354246 37.551163
v 47.228752 -23.270292 37.742813
v 46.574886 -23.388147 37.122200
v 46.527397 -23.335188 37.169281
v 46.678490 -23.415648 37.019478
v 46.015221 -23.449278 36.433311
v 46.148716 -23.473291 36.357841
v 45.954044 -23.397570 36.467903
v 45.600075 -23.505678 35.645203
v 45.527245 -23.455236 35.667984
v 45.758999 -23.526297 35.595490
v 45.345028 -23.555555 34.787163
v 45.518410 -23.573713 34.761673
v 45.265568 -23.505983 34.798843
v 45.257488 -23.595701 33.894218
v 45.175987 -23.546598 33.895134
v 45.435310 -23.612356 33.892212
v 45.344887 -23.622904 33.001389
v 45.518082 -23.639048 33.022949
v 45.265526 -23.573904 32.991508
v 45.599781 -23.637182 32.143654
v 45.527103 -23.587896 32.122589
v 45.758385 -23.653776 32.189629
v 46.014736 -23.638563 31.355993
v 46.147797 -23.656500 31.428015
v 45.953743 -23.588652 31.322981
v 46.574142 -23.626707 30.667583
v 46.526886 -23.576223 30.621939
v 46.677280 -23.646055 30.767181
v 47.262486 -23.601313 30.107607
v 47.337749 -23.621252 30.236170
v 47.227989 -23.550703 30.048693
v 48.050343 -23.563128 29.691879
v 48.027748 -23.512518 29.621857
v 48.099609 -23.583460 29.844664
v 48.908356 -23.512877 29.436205
v 48.933296 -23.534117 29.602324
v 48.896919 -23.462114 29.360067
v 49.801491 -23.451445 29.348171
v 49.800823 -23.400354 29.270395
v 49.802925 -23.474131 29.517868
v 50.694691 -23.379725 29.435360
v 50.672600 -23.404463 29.599989
v 50.704826 -23.328062 29.359905
v 51.552784 -23.297815 29.690598
v 51.574162 -23.245173 29.621685
v 51.506104 -23.325583 29.840954
v 52.340569 -23.205805 30.106691
v 52.267277 -23.237951 30.233013
v 52.374146 -23.151648 30.048798
v 53.028748 -23.108953 30.667437
v 53.075439 -23.053061 30.622492
v 52.926872 -23.146009 30.765512
v 52.745770 -23.211870 30.939863
v 53.455692 -23.054228 31.427759
v 53.220421 -23.128386 31.554243
v 53.562733 -23.051214 32.271675
v 52.928802 -23.215788 31.709017
v 53.207634 -23.148581 32.370811
v 52.526588 -23.288050 31.156433
v 52.627483 -23.297239 31.865049
v 52.256886 -23.374044 31.966951
v 52.310535 -23.356031 31.381147
v 52.828785 -23.242491 32.470497
v 52.380939 -23.333769 32.542709
v 52.958916 -23.194036 33.158440
v 53.382347 -23.091478 33.110367
v 53.005615 -23.156973 33.887672
v 52.466045 -23.294382 33.195557
v 51.865604 -23.392229 33.209976
v 52.498528 -23.261469 33.887215
v 51.885254 -23.362169 33.886208
v 52.464691 -23.240644 34.579437
v 51.865410 -23.340712 34.563469
v 52.378288 -23.229948 35.232704
v 52.956657 -23.136374 34.616982
v 53.379814 -23.028944 34.666740
v 52.824848 -23.131266 35.304840
v 53.203533 -23.027739 35.405952
v 52.622974 -23.140650 35.909698
v 52.925041 -23.045092 36.067688
v 52.306858 -23.165030 36.393127
v 52.253010 -23.227400 35.807503
v 51.756271 -23.302763 35.814766
v 52.109982 -23.221445 36.185486
v 51.740501 -23.267912 36.327003
v 51.174706 -23.320379 36.450455
v 51.832329 -23.204954 36.716682
v 51.981377 -23.124140 37.032974
v 51.235455 -23.255239 36.923782
v 51.326710 -23.178747 37.321609
v 50.552330 -23.310728 37.057838
v 50.590889 -23.237734 37.502937
v 49.825836 -23.368177 37.105515
v 50.527740 -23.375402 36.535179
v 50.525154 -23.428736 35.913208
v 49.839722 -23.430975 36.567406
v 49.853210 -23.484259 35.931030
v 49.150757 -23.485079 36.533371
v 49.179333 -23.538179 35.911613
v 48.498600 -23.534819 36.447449
v 49.098846 -23.424387 37.053482
v 49.037426 -23.357676 37.496597
v 48.412415 -23.477907 36.916679
v 48.299404 -23.415232 37.311256
v 47.807518 -23.527342 36.710014
v 47.639423 -23.470324 37.023270
v 47.325523 -23.570890 36.387909
v 47.920948 -23.577238 36.323997
v 47.922428 -23.618422 35.811493
v 47.539909 -23.595137 36.181824
v 47.402740 -23.629080 35.803772
v 47.283958 -23.657957 35.227943
v 47.007805 -23.606794 35.904778
v 46.686085 -23.564726 36.062195
v 46.806973 -23.638952 35.299973
v 46.405056 -23.604296 35.401474
v 46.675621 -23.671274 34.612816
v 46.226719 -23.641985 34.662865
v 46.627228 -23.700857 33.884575
v 47.201469 -23.686522 34.575470
v 47.832333 -23.680410 34.560059
v 47.169281 -23.713350 33.884651
v 47.814354 -23.705275 33.884384
v 47.201317 -23.737040 33.193810
v 47.831562 -23.729536 33.208702
v 47.283836 -23.755987 32.542603
v 46.675232 -23.724821 33.156494
v 46.225925 -23.699530 33.108437
v 46.806362 -23.742762 32.470612
v 46.403618 -23.716124 32.370972
v 47.007347 -23.754244 31.868982
v 46.684265 -23.724298 31.712313
v 47.324745 -23.752562 31.388838
v 47.403099 -23.768614 31.970747
v 47.921017 -23.757795 31.962317
v 47.539478 -23.761633 31.594732
v 47.919365 -23.753233 31.453253
v 48.494926 -23.718718 31.328455
v 47.805130 -23.730963 31.067446
v 47.636482 -23.696829 30.754669
v 48.408638 -23.694944 30.860672
v 48.295933 -23.660490 30.467890
v 49.095360 -23.649950 30.724392
v 49.147522 -23.674437 31.241793
v 49.034096 -23.614397 30.284304
v 49.823189 -23.597563 30.672558
v 49.811474 -23.559793 30.216644
v 49.837608 -23.623030 31.207319
v 50.550018 -23.539320 30.719128
v 50.525654 -23.567213 31.239111
v 50.588581 -23.497972 30.277622
v 51.234032 -23.478098 30.851694
v 51.325336 -23.430834 30.456989
v 51.173275 -23.508993 31.323423
v 51.833466 -23.416655 31.057871
v 51.981731 -23.360289 30.744507
v 51.742085 -23.450365 31.446531
v 51.757454 -23.447599 31.959360
v 52.113281 -23.395597 31.588472
v 51.818878 -23.423243 32.559464
v 51.167057 -23.515722 31.903223
v 50.523487 -23.576284 31.859480
v 51.187683 -23.503885 32.547005
v 50.532482 -23.568632 32.531563
v 51.207500 -23.479052 33.210686
v 50.541595 -23.546305 33.206680
v 51.217354 -23.450785 33.884987
v 50.546333 -23.519030 33.883926
v 51.208141 -23.428644 34.560623
v 50.542179 -23.496534 34.562439
v 51.188839 -23.404226 35.226204
v 50.533630 -23.469526 35.239693
v 51.818329 -23.322649 35.215179
v 51.168430 -23.369085 35.870377
v 49.864040 -23.525858 35.246559
v 49.869934 -23.553587 34.564178
v 49.191399 -23.580534 35.237701
v 49.193798 -23.608992 34.561104
v 48.524635 -23.625406 35.222603
v 48.514393 -23.654165 34.558098
v 47.872669 -23.652327 35.210754
v 48.527679 -23.584795 35.867569
v 48.507133 -23.677778 33.883919
v 48.513054 -23.702971 33.209961
v 49.192341 -23.632017 33.883446
v 49.871548 -23.576323 33.883324
v 49.192844 -23.657980 33.206352
v 49.869514 -23.602961 33.203415
v 49.189556 -23.678144 32.531448
v 49.863152 -23.624418 32.523079
v 49.176685 -23.683729 31.860365
v 48.522137 -23.722113 32.546799
v 48.524433 -23.727568 31.905069
v 47.871330 -23.748579 32.559258
v 49.851715 -23.631536 31.840937
v 52.137005 -23.295069 30.457582
v 51.423161 -23.374952 30.108242
v 50.633331 -23.448454 29.892649
v 49.805489 -23.514452 29.819548
v 48.977650 -23.571863 29.897659
v 48.187195 -23.619623 30.116280
v 47.471550 -23.656664 30.464718
v 46.860634 -23.680433 30.944231
v 46.384369 -23.688402 31.556059
v 47.088383 -23.719416 31.163280
v 46.040302 -23.683271 32.271355
v 45.825989 -23.667765 33.061272
v 45.751434 -23.641977 33.888657
v 45.826637 -23.605993 34.716354
v 46.163013 -23.674749 33.885468
v 46.041542 -23.562956 35.507118
v 46.386024 -23.515997 36.223679
v 46.862663 -23.464491 36.836868
v 47.473942 -23.407804 37.317520
v 47.090591 -23.520861 36.613350
v 48.189842 -23.347860 37.667168
v 48.980286 -23.286543 37.887344
v 49.807915 -23.223776 37.966293
v 50.635353 -23.159452 37.892258
v 49.814323 -23.298307 37.565186
v 51.424500 -23.095976 37.675194
v 52.137234 -23.035719 37.325050
v 52.744709 -22.983301 36.842392
v 52.926746 -22.902205 37.022202
v 53.218063 -22.943365 36.227783
v 52.524326 -23.078165 36.620514
v 53.454777 -22.857351 36.360008
v 53.559860 -22.920500 35.510384
v 53.772644 -22.919386 34.719345
v 53.847271 -22.941141 33.891357
v 53.774479 -22.986944 33.063087
v 53.443047 -23.049822 33.888672
v 53.091003 -22.930651 30.607508
v 53.091003 -21.938688 30.607508
v 52.385345 -23.028460 30.029495
v 52.385345 -22.023516 30.029495
v 51.581291 -23.121214 29.598711
v 51.581284 -22.103949 29.598711
v 50.708187 -23.203260 29.334757
v 50.708187 -22.175108 29.334757
v 49.800598 -23.274748 29.244469
v 49.800606 -22.237101 29.244469
v 48.893116 -23.335794 29.334686
v 48.893116 -22.290037 29.334686
v 48.020226 -23.385553 29.598511
v 48.020237 -22.333189 29.598513
v 47.216488 -23.423201 30.029047
v 47.216488 -22.365843 30.029047
v 46.511131 -23.448431 30.606720
v 46.511131 -22.387705 30.606722
v 45.933403 -23.460882 31.311983
v 45.933403 -22.398500 31.311983
v 45.502869 -23.460356 32.115570
v 45.502869 -22.398043 32.115570
v 45.239056 -23.446623 32.988213
v 45.239044 -22.386141 32.988213
v 45.148827 -23.419661 33.895439
v 45.148827 -22.362757 33.895439
v 45.239082 -23.379438 34.802734
v 45.239082 -22.327890 34.802734
v 45.502960 -23.329107 35.675583
v 45.502960 -22.284231 35.675583
v 45.933643 -23.271826 36.479431
v 45.933647 -22.234556 36.479431
v 46.511574 -23.209887 37.184975
v 46.511574 -22.180841 37.184975
v 47.217186 -23.145575 37.762901
v 47.217186 -22.125074 37.762894
v 48.021179 -23.080042 38.193611
v 48.021172 -22.068243 38.193611
v 48.894264 -23.014421 38.457565
v 48.894264 -22.011335 38.457565
v 49.801903 -22.947550 38.547844
v 49.801903 -21.953337 38.547852
v 50.709526 -22.878302 38.457581
v 50.709526 -21.893301 38.457581
v 50.709526 -19.943510 38.457581
v 51.582542 -21.832731 38.193649
v 51.582542 -19.907866 38.193649
v 52.386356 -19.872812 37.762962
v 49.801903 -19.978872 38.547844
v 48.894268 -20.012999 38.457565
v 48.021179 -20.046484 38.193611
v 47.217175 -20.079935 37.762894
v 46.511574 -20.112761 37.184975
v 45.933647 -20.144369 36.479431
v 45.502960 -20.173620 35.675583
v 45.239075 -20.199312 34.802734
v 45.148827 -20.219839 33.895439
v 45.239044 -20.233603 32.988213
v 45.502869 -20.240602 32.115570
v 45.933403 -20.240877 31.311987
v 46.511131 -20.234518 30.606726
v 47.216492 -20.221651 30.029049
v 48.020226 -20.202425 29.598513
v 48.893116 -20.177031 29.334688
v 49.800598 -20.145872 29.244469
v 50.708187 -20.109385 29.334761
v 51.581284 -20.067499 29.598713
v 52.385345 -20.020163 30.029497
v 53.091003 -19.970240 30.607510
v 53.668934 -21.854338 31.313135
vn 0.9808 -0.0000 0.1950
vn 0.9239 -0.0000 0.3826
vn 0.8315 -0.0000 0.5555
vn 1.0000 -0.0000 -0.0000
vn 0.9808 -0.0000 -0.1951
vn 0.7072 -0.0000 0.7071
vn 0.5556 -0.0000 0.8314
vn 0.3827 -0.0000 0.9239
vn 0.1951 -0.0000 0.9808
vn -0.0000 -0.0000 1.0000
vn -0.1951 -0.0000 0.9808
vn -0.3827 -0.0000 0.9239
vn -0.5556 -0.0000 0.8315
vn -0.7071 -0.0000 0.7071
vn -0.8315 -0.0000 0.5556
vn -0.9239 -0.0000 0.3827
vn -0.9808 -0.0000 0.1951
vn -1.0000 -0.0000 -0.0000
vn -0.9808 -0.0000 -0.1951
vn -0.9239 -0.0000 -0.3827
vn -0.8314 -0.0000 -0.5556
vn -0.7071 -0.0000 -0.7071
vn -0.5555 -0.0000 -0.8315
vn -0.3826 -0.0000 -0.9239
vn -0.1950 -0.0000 -0.9808
vn -0.0000 -0.0000 -1.0000
vn 0.1951 -0.0000 -0.9808
vn 0.3827 -0.0000 -0.9239
vn 0.5556 -0.0000 -0.8315
vn 0.7071 -0.0000 -0.7071
vn 0.8315 -0.0000 -0.5555
vn 0.9239 -0.0000 -0.3826
vn 0.9239 -0.0000 -0.3827
vn 0.9766 -0.1070 -0.1864
vn 0.9229 -0.1008 -0.3717
vn 0.9940 -0.1094 0.0044
vn 0.8379 -0.5300 -0.1301
vn 0.8453 -0.5338 0.0211
vn 0.8076 -0.5166 -0.2845
vn 0.8335 -0.0931 -0.5446
vn 0.7478 -0.4990 -0.4379
vn 0.4387 -0.8797 -0.1835
vn 0.4518 -0.8864 -0.1008
vn 0.4524 -0.8914 -0.0276
vn 0.2708 -0.9610 -0.0563
vn 0.2747 -0.9614 -0.0158
vn 0.2730 -0.9619 0.0153
vn 0.4507 -0.8919 0.0365
vn 0.2723 -0.9614 0.0398
vn 0.8315 -0.5288 0.1703
vn 0.4484 -0.8883 0.0988
vn 0.2735 -0.9598 0.0634
vn 0.4448 -0.8801 0.1664
vn 0.2758 -0.9568 0.0917
vn 0.7962 -0.5143 0.3187
vn 0.4300 -0.8699 0.2416
vn 0.2728 -0.9535 0.1284
vn 0.7339 -0.4960 0.4640
vn 0.8303 -0.0955 0.5490
vn 0.9200 -0.1024 0.3782
vn 0.9749 -0.1079 0.1946
vn 0.7081 -0.0913 0.7002
vn 0.5582 -0.0927 0.8245
vn 0.6380 -0.4860 0.5973
vn 0.5102 -0.4945 0.7037
vn 0.3869 -0.0978 0.9169
vn 0.3617 -0.5139 0.7778
vn 0.3193 -0.8743 0.3656
vn 0.2356 -0.8894 0.3918
vn 0.3891 -0.8658 0.3145
vn 0.2101 -0.9583 0.1938
vn 0.1617 -0.9658 0.2026
vn 0.2514 -0.9532 0.1679
vn 0.2029 -0.5309 0.8228
vn 0.1511 -0.9024 0.4036
vn 0.1163 -0.9720 0.2040
vn 0.0687 -0.9100 0.4089
vn 0.0746 -0.9761 0.2039
vn 0.0391 -0.5394 0.8412
vn -0.1261 -0.5386 0.8331
vn -0.0129 -0.9125 0.4089
vn 0.0352 -0.9784 0.2037
vn -0.0954 -0.9098 0.4040
vn -0.0029 -0.9791 0.2033
vn -0.2891 -0.5282 0.7984
vn -0.4455 -0.5138 0.7332
vn -0.1792 -0.9049 0.3861
vn -0.0428 -0.9793 0.1977
vn -0.2528 -0.9051 0.3419
vn -0.0784 -0.9812 0.1762
vn -0.5843 -0.5082 0.6327
vn -0.6913 -0.5216 0.5000
vn -0.2980 -0.9154 0.2708
vn -0.0966 -0.9855 0.1395
vn -0.3165 -0.9293 0.1905
vn -0.0983 -0.9900 0.1015
vn -0.7634 -0.5441 0.3482
vn -0.8058 -0.5619 0.1871
vn -0.3229 -0.9398 0.1121
vn -0.0956 -0.9931 0.0685
vn -0.3264 -0.9446 0.0350
vn -0.0943 -0.9948 0.0374
vn -0.8224 -0.5686 0.0205
vn -0.8125 -0.5639 -0.1480
vn -0.3273 -0.9439 -0.0435
vn -0.0952 -0.9954 0.0059
vn -0.3246 -0.9374 -0.1263
vn -0.0976 -0.9948 -0.0282
vn -0.7753 -0.5477 -0.3145
vn -0.7063 -0.5260 -0.4737
vn -0.3083 -0.9272 -0.2129
vn -0.0955 -0.9931 -0.0677
vn -0.2629 -0.9201 -0.2902
vn -0.0766 -0.9914 -0.1058
vn -0.5996 -0.5133 -0.6140
vn -0.4586 -0.5203 -0.7204
vn -0.1868 -0.9223 -0.3384
vn -0.0400 -0.9910 -0.1281
vn -0.0992 -0.9285 -0.3578
vn 0.0005 -0.9910 -0.1336
vn -0.2981 -0.5367 -0.7893
vn -0.1304 -0.5483 -0.8260
vn -0.0138 -0.9317 -0.3630
vn 0.0377 -0.9903 -0.1338
vn 0.0683 -0.9293 -0.3630
vn 0.0735 -0.9882 -0.1341
vn 0.0387 -0.5493 -0.8348
vn 0.2064 -0.5402 -0.8159
vn 0.1510 -0.9214 -0.3580
vn 0.1117 -0.9846 -0.1347
vn 0.2379 -0.9075 -0.3463
vn 0.1559 -0.9786 -0.1340
vn 0.3694 -0.5215 -0.7691
vn 0.5216 -0.4999 -0.6913
vn 0.3249 -0.8904 -0.3187
vn 0.2050 -0.9706 -0.1257
vn 0.3972 -0.8791 -0.2635
vn 0.2481 -0.9637 -0.0987
vn 0.6517 -0.4899 -0.5790
vn 0.1971 -0.9728 -0.1218
vn 0.2435 -0.9653 -0.0942
vn 0.2679 -0.9622 -0.0493
vn 0.2704 -0.9627 -0.0098
vn 0.2561 -0.9661 -0.0344
vn 0.2557 -0.9668 0.0020
vn 0.2298 -0.9699 -0.0809
vn 0.2259 -0.9741 -0.0098
vn 0.2257 -0.9740 0.0179
vn 0.2008 -0.9782 -0.0523
vn 0.1759 -0.9843 0.0113
vn 0.1810 -0.9830 0.0303
vn 0.1653 -0.9861 -0.0176
vn 0.2219 -0.9746 0.0305
vn 0.2512 -0.9677 0.0236
vn 0.1823 -0.9826 0.0362
vn 0.2214 -0.9744 0.0389
vn 0.2502 -0.9674 0.0393
vn 0.1830 -0.9824 0.0383
vn 0.1455 -0.9886 0.0380
vn 0.1403 -0.9896 0.0312
vn 0.1472 -0.9884 0.0377
vn 0.1843 -0.9821 0.0402
vn 0.1473 -0.9884 0.0371
vn 0.2238 -0.9735 0.0469
vn 0.1848 -0.9817 0.0450
vn 0.1436 -0.9887 0.0430
vn 0.2293 -0.9716 0.0579
vn 0.2526 -0.9661 0.0543
vn 0.2584 -0.9632 0.0737
vn 0.2305 -0.9695 0.0833
vn 0.2596 -0.9598 0.1070
vn 0.1809 -0.9815 0.0626
vn 0.2060 -0.9707 0.1237
vn 0.2343 -0.9604 0.1509
vn 0.1709 -0.9811 0.0904
vn 0.1360 -0.9888 0.0610
vn 0.1367 -0.9857 0.0987
vn 0.1584 -0.9767 0.1446
vn 0.1077 -0.9919 0.0681
vn 0.1084 -0.9889 0.1020
vn 0.1215 -0.9823 0.1424
vn 0.1851 -0.9670 0.1753
vn 0.1398 -0.9745 0.1753
vn 0.0976 -0.9857 0.1376
vn 0.1055 -0.9796 0.1710
vn 0.0920 -0.9905 0.1021
vn 0.0768 -0.9876 0.1370
vn 0.0753 -0.9825 0.1701
vn 0.0788 -0.9916 0.1028
vn 0.0907 -0.9932 0.0725
vn 0.0806 -0.9940 0.0741
vn 0.0713 -0.9946 0.0754
vn 0.0664 -0.9922 0.1055
vn 0.0572 -0.9884 0.1408
vn 0.0570 -0.9957 0.0736
vn 0.0529 -0.9927 0.1085
vn 0.0373 -0.9882 0.1485
vn 0.0468 -0.9839 0.1728
vn 0.0180 -0.9837 0.1791
vn 0.0062 -0.9883 0.1527
vn -0.0199 -0.9832 0.1813
vn 0.0292 -0.9938 0.1074
vn -0.0356 -0.9905 0.1330
vn -0.0628 -0.9852 0.1592
vn -0.0014 -0.9950 0.1001
vn 0.0326 -0.9971 0.0684
vn -0.0087 -0.9974 0.0713
vn -0.0553 -0.9942 0.0926
vn -0.0101 -0.9986 0.0511
vn 0.0274 -0.9985 0.0480
vn -0.0513 -0.9966 0.0649
vn -0.0833 -0.9897 0.1168
vn -0.0795 -0.9935 0.0819
vn -0.0443 -0.9978 0.0500
vn -0.0724 -0.9957 0.0582
vn -0.0082 -0.9991 0.0428
vn -0.0418 -0.9985 0.0367
vn -0.0698 -0.9969 0.0369
vn -0.0069 -0.9993 0.0365
vn 0.0251 -0.9989 0.0391
vn 0.0252 -0.9990 0.0363
vn -0.0077 -0.9995 0.0302
vn 0.0255 -0.9991 0.0334
vn -0.0437 -0.9988 0.0234
vn -0.0092 -0.9997 0.0215
vn 0.0283 -0.9993 0.0241
vn -0.0501 -0.9987 0.0079
vn -0.0718 -0.9973 0.0154
vn -0.0782 -0.9969 -0.0089
vn -0.0537 -0.9983 -0.0208
vn -0.0815 -0.9957 -0.0451
vn -0.0072 -1.0000 0.0006
vn -0.0335 -0.9975 -0.0624
vn -0.0605 -0.9942 -0.0888
vn 0.0004 -0.9996 -0.0291
vn 0.0340 -0.9994 0.0030
vn 0.0310 -0.9988 -0.0370
vn 0.0084 -0.9965 -0.0832
vn 0.0580 -0.9983 -0.0028
vn 0.0544 -0.9978 -0.0388
vn 0.0394 -0.9960 -0.0798
vn -0.0172 -0.9936 -0.1119
vn 0.0208 -0.9937 -0.1101
vn 0.0485 -0.9934 -0.1041
vn 0.0582 -0.9957 -0.0726
vn 0.0668 -0.9971 -0.0364
vn 0.0755 -0.9948 -0.0690
vn 0.0774 -0.9964 -0.0337
vn 0.0740 -0.9921 -0.1015
vn 0.1011 -0.9896 -0.1024
vn 0.0937 -0.9932 -0.0690
vn 0.0888 -0.9955 -0.0324
vn 0.1163 -0.9905 -0.0730
vn 0.1040 -0.9941 -0.0311
vn 0.1342 -0.9852 -0.1066
vn 0.1528 -0.9854 -0.0744
vn 0.1796 -0.9780 -0.1065
vn 0.1315 -0.9910 -0.0268
vn 0.1315 -0.9912 0.0121
vn 0.1041 -0.9946 0.0040
vn 0.1106 -0.9935 0.0256
vn 0.0881 -0.9961 -0.0014
vn 0.0900 -0.9957 0.0216
vn 0.1148 -0.9927 0.0371
vn 0.0917 -0.9951 0.0358
vn 0.1164 -0.9925 0.0371
vn 0.0927 -0.9950 0.0365
vn 0.1162 -0.9925 0.0368
vn 0.0927 -0.9950 0.0371
vn 0.1132 -0.9924 0.0475
vn 0.0918 -0.9945 0.0505
vn 0.0829 -0.9959 0.0374
vn 0.0821 -0.9953 0.0518
vn 0.0738 -0.9966 0.0378
vn 0.0731 -0.9959 0.0525
vn 0.0528 -0.9979 0.0382
vn 0.0543 -0.9972 0.0511
vn 0.0527 -0.9980 0.0361
vn 0.0739 -0.9966 0.0360
vn 0.0530 -0.9980 0.0339
vn 0.0737 -0.9967 0.0340
vn 0.0829 -0.9959 0.0362
vn 0.0823 -0.9960 0.0347
vn 0.0730 -0.9972 0.0188
vn 0.0811 -0.9965 0.0196
vn 0.0548 -0.9983 0.0205
vn 0.0715 -0.9974 -0.0050
vn 0.0794 -0.9968 -0.0037
vn 0.1486 -0.9806 -0.1276
vn 0.1079 -0.9861 -0.1263
vn 0.0734 -0.9894 -0.1254
vn 0.0411 -0.9912 -0.1261
vn 0.0071 -0.9917 -0.1280
vn -0.0330 -0.9916 -0.1247
vn -0.0726 -0.9922 -0.1013
vn -0.0928 -0.9939 -0.0604
vn -0.0931 -0.9954 -0.0216
vn -0.0892 -0.9960 0.0092
vn -0.0879 -0.9954 0.0372
vn -0.0897 -0.9939 0.0649
vn -0.0941 -0.9910 0.0947
vn -0.0943 -0.9867 0.1321
vn -0.0747 -0.9823 0.1716
vn -0.0359 -0.9803 0.1942
vn 0.0038 -0.9803 0.1975
vn 0.0388 -0.9799 0.1956
vn 0.0746 -0.9780 0.1950
vn 0.1125 -0.9742 0.1955
vn 0.1545 -0.9683 0.1962
vn 0.2024 -0.9607 0.1900
vn 0.2473 -0.9550 0.1636
vn 0.2705 -0.9550 0.1215
vn 0.2721 -0.9585 0.0854
vn 0.2684 -0.9614 0.0602
vn 0.2667 -0.9630 0.0396
vn 0.2676 -0.9634 0.0181
vn 0.7111 -0.0884 -0.6976
vn 0.5606 -0.0895 -0.8233
vn 0.3885 -0.0945 -0.9166
vn 0.2017 -0.0990 -0.9744
vn 0.0072 -0.1007 -0.9949
vn -0.1878 -0.0992 -0.9772
vn -0.3760 -0.0945 -0.9218
vn -0.5503 -0.0888 -0.8302
vn -0.7032 -0.0863 -0.7057
vn -0.8282 -0.0896 -0.5532
vn -0.8315 -0.0000 -0.5556
vn -0.9202 -0.0964 -0.3793
vn -0.9762 -0.1021 -0.1912
vn -0.9945 -0.1044 0.0039
vn -0.9747 -0.1029 0.1986
vn -0.9176 -0.0979 0.3854
vn -0.8250 -0.0919 0.5576
vn -0.7000 -0.0891 0.7086
vn -0.5473 -0.0920 0.8319
vn -0.3737 -0.0979 0.9224
vn -0.1865 -0.1026 0.9771
vn 0.0076 -0.1042 0.9945
vn 0.2011 -0.1024 0.9742
vt 0.434776 0.822470
vt 0.434775 0.822030
vt 0.437468 0.822021
vt 0.437470 0.822461
vt 0.440162 0.822012
vt 0.440163 0.822453
vt 0.432082 0.822480
vt 0.432081 0.822039
vt 0.429388 0.822492
vt 0.429387 0.822048
vt 0.429398 0.825322
vt 0.432092 0.825290
vt 0.434786 0.825271
vt 0.429422 0.832925
vt 0.432117 0.832839
vt 0.434811 0.832796
vt 0.437479 0.825263
vt 0.437505 0.832792
vt 0.440173 0.825267
vt 0.440199 0.832826
vt 0.442868 0.825280
vt 0.442894 0.832890
vt 0.442858 0.822447
vt 0.442856 0.822002
vt 0.445551 0.821993
vt 0.445552 0.822441
vt 0.445563 0.825298
vt 0.448247 0.822436
vt 0.448258 0.825320
vt 0.448246 0.821983
vt 0.450941 0.821974
vt 0.450943 0.822430
vt 0.450954 0.825342
vt 0.453638 0.822425
vt 0.453649 0.825364
vt 0.453637 0.821964
vt 0.456332 0.821954
vt 0.456334 0.822419
vt 0.456345 0.825384
vt 0.459030 0.822413
vt 0.459041 0.825404
vt 0.459028 0.821944
vt 0.461724 0.821934
vt 0.461726 0.822407
vt 0.461737 0.825423
vt 0.464421 0.822400
vt 0.464433 0.825442
vt 0.464419 0.821923
vt 0.467115 0.821913
vt 0.467117 0.822394
vt 0.467129 0.825460
vt 0.469812 0.822387
vt 0.469824 0.825476
vt 0.469810 0.821903
vt 0.472505 0.821892
vt 0.472507 0.822380
vt 0.472519 0.825488
vt 0.475202 0.822372
vt 0.475214 0.825496
vt 0.475200 0.821882
vt 0.477895 0.821871
vt 0.477897 0.822363
vt 0.477909 0.825498
vt 0.480591 0.822353
vt 0.480604 0.825493
vt 0.480589 0.821861
vt 0.483284 0.821850
vt 0.483286 0.822343
vt 0.483298 0.825483
vt 0.485981 0.822332
vt 0.485993 0.825467
vt 0.485979 0.821840
vt 0.488674 0.821829
vt 0.488675 0.822319
vt 0.488688 0.825445
vt 0.491370 0.822307
vt 0.491383 0.825417
vt 0.491369 0.821818
vt 0.494064 0.821808
vt 0.494066 0.822293
vt 0.494078 0.825384
vt 0.496761 0.822279
vt 0.496773 0.825346
vt 0.496759 0.821797
vt 0.413213 0.822098
vt 0.413215 0.822575
vt 0.410519 0.822588
vt 0.410518 0.822106
vt 0.413224 0.825614
vt 0.410528 0.825655
vt 0.415911 0.822562
vt 0.415920 0.825569
vt 0.415909 0.822090
vt 0.418605 0.822082
vt 0.418607 0.822548
vt 0.418616 0.825518
vt 0.421303 0.822533
vt 0.421312 0.825465
vt 0.421301 0.822073
vt 0.423997 0.822065
vt 0.423999 0.822519
vt 0.424008 0.825413
vt 0.426694 0.822505
vt 0.426703 0.825364
vt 0.426692 0.822056
vt 0.424033 0.833186
vt 0.426728 0.833043
vt 0.424051 0.838902
vt 0.426746 0.838665
vt 0.429440 0.838470
vt 0.432135 0.838331
vt 0.429450 0.841301
vt 0.426755 0.841524
vt 0.432144 0.841141
vt 0.969761 0.309140
vt 0.970124 0.309103
vt 0.970356 0.311853
vt 0.969993 0.311834
vt 0.969013 0.306537
vt 0.969365 0.306440
vt 0.424060 0.841796
vt 0.967767 0.304127
vt 0.968096 0.303966
vt 0.967526 0.304240
vt 0.968737 0.306604
vt 0.969466 0.309165
vt 0.967113 0.304444
vt 0.968248 0.306729
vt 0.968932 0.309217
vt 0.969692 0.311820
vt 0.969143 0.311802
vt 0.969687 0.314516
vt 0.969393 0.314464
vt 0.968858 0.314376
vt 0.968592 0.316994
vt 0.968103 0.316834
vt 0.968865 0.317086
vt 0.967314 0.319308
vt 0.966904 0.319073
vt 0.967550 0.319443
vt 0.967857 0.319631
vt 0.969202 0.317217
vt 0.970041 0.314591
vt 0.440218 0.838328
vt 0.440228 0.841142
vt 0.437533 0.841065
vt 0.437523 0.838263
vt 0.434838 0.841064
vt 0.434829 0.838263
vt 0.442914 0.838442
vt 0.442923 0.841275
vt 0.445590 0.832973
vt 0.445610 0.838590
vt 0.445620 0.841447
vt 0.966061 0.321743
vt 0.965795 0.321499
vt 0.963874 0.323459
vt 0.963662 0.323165
vt 0.448306 0.838756
vt 0.448316 0.841640
vt 0.961394 0.324718
vt 0.961242 0.324385
vt 0.963522 0.322941
vt 0.961151 0.324128
vt 0.965607 0.321319
vt 0.963296 0.322544
vt 0.961008 0.323662
vt 0.965291 0.321004
vt 0.958630 0.325114
vt 0.958583 0.324837
vt 0.958517 0.324332
vt 0.955921 0.325049
vt 0.955927 0.324531
vt 0.955926 0.325333
vt 0.953232 0.325024
vt 0.953269 0.324744
vt 0.953346 0.324237
vt 0.950728 0.323945
vt 0.950878 0.323477
vt 0.950648 0.324206
vt 0.948274 0.322901
vt 0.948400 0.322673
vt 0.948629 0.322278
vt 0.946376 0.320976
vt 0.946688 0.320667
vt 0.946202 0.321158
vt 0.944522 0.319037
vt 0.944742 0.318901
vt 0.945142 0.318677
vt 0.943544 0.316540
vt 0.944018 0.316395
vt 0.943289 0.316629
vt 0.942550 0.314026
vt 0.942826 0.313981
vt 0.943341 0.313910
vt 0.942607 0.311328
vt 0.943134 0.311328
vt 0.942325 0.311332
vt 0.942630 0.308647
vt 0.942904 0.308684
vt 0.943417 0.308755
vt 0.943698 0.306153
vt 0.944167 0.306296
vt 0.943444 0.306071
vt 0.944747 0.303707
vt 0.944964 0.303835
vt 0.945357 0.304056
vt 0.946659 0.301820
vt 0.946960 0.302123
vt 0.946488 0.301644
vt 0.948610 0.299973
vt 0.948731 0.300194
vt 0.948947 0.300582
vt 0.951094 0.299003
vt 0.951229 0.299462
vt 0.951021 0.298750
vt 0.953628 0.298020
vt 0.953656 0.298292
vt 0.953717 0.298788
vt 0.956315 0.298079
vt 0.956305 0.298585
vt 0.956329 0.297804
vt 0.959024 0.298119
vt 0.958968 0.298385
vt 0.958887 0.298874
vt 0.961511 0.299187
vt 0.961356 0.299633
vt 0.961612 0.298943
vt 0.963993 0.300254
vt 0.963845 0.300461
vt 0.963609 0.300835
vt 0.965879 0.302163
vt 0.965557 0.302450
vt 0.966075 0.302002
vt 0.963189 0.301498
vt 0.964984 0.302960
vt 0.966379 0.304806
vt 0.967377 0.306951
vt 0.965473 0.305249
vt 0.966284 0.307223
vt 0.964293 0.303593
vt 0.964544 0.305693
vt 0.965126 0.307494
vt 0.963618 0.304248
vt 0.963423 0.305973
vt 0.963772 0.307680
vt 0.963014 0.304849
vt 0.965490 0.309536
vt 0.966780 0.309422
vt 0.964002 0.309615
vt 0.965601 0.311696
vt 0.966931 0.311731
vt 0.964072 0.311661
vt 0.962205 0.309621
vt 0.962091 0.307697
vt 0.962236 0.311620
vt 0.963940 0.313705
vt 0.962147 0.313619
vt 0.965422 0.313851
vt 0.963650 0.315629
vt 0.961976 0.315541
vt 0.964995 0.315876
vt 0.966708 0.314031
vt 0.966145 0.316208
vt 0.964359 0.317650
vt 0.965278 0.318148
vt 0.963247 0.317319
vt 0.963392 0.319058
vt 0.964053 0.319757
vt 0.962807 0.318428
vt 0.961764 0.317308
vt 0.961699 0.318822
vt 0.961968 0.319987
vt 0.960015 0.317439
vt 0.960016 0.319157
vt 0.960189 0.320568
vt 0.962418 0.320946
vt 0.960460 0.321764
vt 0.958157 0.320930
vt 0.958267 0.322262
vt 0.958095 0.319374
vt 0.956002 0.321033
vt 0.955960 0.322406
vt 0.956056 0.319434
vt 0.958107 0.317531
vt 0.956117 0.317549
vt 0.954123 0.317456
vt 0.954018 0.319298
vt 0.953850 0.320842
vt 0.952197 0.317292
vt 0.952092 0.319009
vt 0.951823 0.320402
vt 0.953659 0.322164
vt 0.951479 0.321579
vt 0.950042 0.319758
vt 0.949535 0.320693
vt 0.950389 0.318614
vt 0.948630 0.318781
vt 0.947926 0.319451
vt 0.949270 0.318177
vt 0.950412 0.317097
vt 0.948878 0.317052
vt 0.947708 0.317339
vt 0.948549 0.315345
vt 0.950288 0.315319
vt 0.947137 0.315542
vt 0.946750 0.317801
vt 0.945943 0.315832
vt 0.946776 0.313504
vt 0.945446 0.313637
vt 0.948331 0.313414
vt 0.946665 0.311348
vt 0.945292 0.311333
vt 0.948266 0.311371
vt 0.950195 0.313395
vt 0.950171 0.311399
vt 0.948391 0.309331
vt 0.950252 0.309405
vt 0.946839 0.309198
vt 0.948666 0.307412
vt 0.950400 0.307489
vt 0.947260 0.307177
vt 0.945512 0.309036
vt 0.946072 0.306863
vt 0.947884 0.305410
vt 0.946936 0.304929
vt 0.949047 0.305730
vt 0.948847 0.304008
vt 0.948160 0.303326
vt 0.949470 0.304627
vt 0.950576 0.305730
vt 0.950598 0.304228
vt 0.950282 0.303082
vt 0.952361 0.305591
vt 0.952305 0.303887
vt 0.952078 0.302499
vt 0.949802 0.302144
vt 0.951769 0.301328
vt 0.953966 0.300823
vt 0.954118 0.302131
vt 0.954240 0.303663
vt 0.956276 0.302016
vt 0.956285 0.303597
vt 0.956274 0.300664
vt 0.958577 0.300886
vt 0.958428 0.302192
vt 0.958321 0.303728
vt 0.960449 0.302622
vt 0.960235 0.304013
vt 0.960755 0.301457
vt 0.962216 0.303266
vt 0.962691 0.302344
vt 0.961915 0.304409
vt 0.961934 0.305923
vt 0.960184 0.305724
vt 0.960214 0.307625
vt 0.958279 0.305559
vt 0.958272 0.307544
vt 0.960245 0.309586
vt 0.958270 0.309537
vt 0.960247 0.311577
vt 0.958255 0.311537
vt 0.960189 0.313572
vt 0.958213 0.313540
vt 0.960102 0.315536
vt 0.958158 0.315540
vt 0.956221 0.313510
vt 0.956175 0.315525
vt 0.954219 0.313465
vt 0.954184 0.315464
vt 0.952210 0.313422
vt 0.952213 0.315385
vt 0.952218 0.311431
vt 0.954245 0.311465
vt 0.952265 0.309441
vt 0.954276 0.309465
vt 0.956256 0.311500
vt 0.956280 0.309492
vt 0.954297 0.307473
vt 0.956291 0.307483
vt 0.952322 0.307484
vt 0.954293 0.305491
vt 0.956291 0.305469
vt 0.961080 0.300425
vt 0.958743 0.299744
vt 0.956288 0.299484
vt 0.953827 0.299671
vt 0.951470 0.300277
vt 0.949330 0.301272
vt 0.947495 0.302661
vt 0.946053 0.304450
vt 0.945000 0.306551
vt 0.944329 0.308881
vt 0.944072 0.311328
vt 0.944258 0.313784
vt 0.944861 0.316138
vt 0.945853 0.318279
vt 0.947242 0.320119
vt 0.949036 0.321575
vt 0.951147 0.322646
vt 0.953484 0.323337
vt 0.955938 0.323611
vt 0.958399 0.323435
vt 0.960755 0.322835
vt 0.962894 0.321839
vt 0.964730 0.320445
vt 0.966176 0.318654
vt 0.967234 0.316550
vt 0.967908 0.314218
vt 0.968167 0.311769
vt 0.967982 0.309309
vt 0.966365 0.301775
vt 0.964229 0.299968
vt 0.421364 0.842092
vt 0.421355 0.839160
vt 0.418669 0.842389
vt 0.418660 0.839419
vt 0.415974 0.842672
vt 0.415964 0.839665
vt 0.961786 0.298611
vt 0.413278 0.842922
vt 0.413269 0.839883
vt 0.959129 0.297756
vt 0.410583 0.843142
vt 0.410573 0.840075
vt 0.956362 0.297426
vt 0.494147 0.843024
vt 0.494135 0.839933
vt 0.496830 0.839766
vt 0.496842 0.842833
vt 0.953587 0.297641
vt 0.491452 0.843181
vt 0.491440 0.840071
vt 0.950904 0.298385
vt 0.488757 0.843303
vt 0.488745 0.840178
vt 0.948418 0.299641
vt 0.486063 0.843388
vt 0.486051 0.840253
vt 0.946226 0.301364
vt 0.483368 0.843436
vt 0.483356 0.840296
vt 0.944427 0.303493
vt 0.480674 0.843445
vt 0.480661 0.840305
vt 0.943085 0.305931
vt 0.477978 0.843415
vt 0.477966 0.840280
vt 0.942250 0.308581
vt 0.475283 0.843345
vt 0.475271 0.840221
vt 0.941941 0.311342
vt 0.472588 0.843237
vt 0.472576 0.840129
vt 0.942177 0.314110
vt 0.469892 0.843099
vt 0.469880 0.840010
vt 0.942940 0.316784
vt 0.467195 0.842940
vt 0.467183 0.839874
vt 0.944215 0.319259
vt 0.464499 0.842767
vt 0.464487 0.839725
vt 0.945951 0.321439
vt 0.461802 0.842587
vt 0.461790 0.839571
vt 0.948089 0.323228
vt 0.459105 0.842403
vt 0.459093 0.839413
vt 0.950532 0.324562
vt 0.456408 0.842220
vt 0.456396 0.839255
vt 0.953185 0.325394
vt 0.453710 0.842032
vt 0.453700 0.839093
vt 0.955948 0.325703
vt 0.451013 0.841837
vt 0.451003 0.838926
vt 0.958718 0.325472
vt 0.450982 0.833162
vt 0.453678 0.833257
vt 0.448285 0.833067
vt 0.456375 0.833348
vt 0.459071 0.833437
vt 0.461767 0.833526
vt 0.464464 0.833612
vt 0.467160 0.833695
vt 0.469856 0.833772
vt 0.472551 0.833837
vt 0.475247 0.833887
vt 0.477942 0.833918
vt 0.480636 0.833928
vt 0.483331 0.833918
vt 0.486026 0.833889
vt 0.488720 0.833840
vt 0.491415 0.833773
vt 0.494110 0.833687
vt 0.496806 0.833584
vt 0.413250 0.833778
vt 0.410554 0.833894
vt 0.415946 0.833645
vt 0.418641 0.833497
vt 0.421337 0.833341
s 1
f 5/1/1 4/2/1 1/3/2 2/4/2
f 3/5/3 20/6/3 2/4/2 1/3/2
f 4/2/1 5/1/1 8/7/4 6/8/4
f 9/9/5 7/10/5 6/8/4 8/7/4
f 11/11/5 9/9/5 8/7/4 10/12/4
f 5/1/1 13/13/1 10/12/4 8/7/4
f 104/14/5 11/11/5 10/12/4 12/15/4
f 13/13/1 14/16/1 12/15/4 10/12/4
f 14/16/1 13/13/1 15/17/2 16/18/2
f 13/13/1 5/1/1 2/4/2 15/17/2
f 17/19/3 18/20/3 16/18/2 15/17/2
f 20/6/3 17/19/3 15/17/2 2/4/2
f 18/20/3 17/19/3 19/21/6 137/22/6
f 17/19/3 20/6/3 21/23/6 19/21/6
f 20/6/3 3/5/3 22/24/6 21/23/6
f 25/25/7 23/26/7 21/23/6 22/24/6
f 23/26/7 24/27/7 19/21/6 21/23/6
f 24/27/7 23/26/7 26/28/8 28/29/8
f 23/26/7 25/25/7 27/30/8 26/28/8
f 31/31/9 29/32/9 26/28/8 27/30/8
f 29/32/9 30/33/9 28/29/8 26/28/8
f 30/33/9 29/32/9 32/34/10 34/35/10
f 29/32/9 31/31/9 33/36/10 32/34/10
f 37/37/11 35/38/11 32/34/10 33/36/10
f 35/38/11 36/39/11 34/35/10 32/34/10
f 36/39/11 35/38/11 38/40/12 40/41/12
f 35/38/11 37/37/11 39/42/12 38/40/12
f 43/43/13 41/44/13 38/40/12 39/42/12
f 41/44/13 42/45/13 40/41/12 38/40/12
f 42/45/13 41/44/13 44/46/14 46/47/14
f 41/44/13 43/43/13 45/48/14 44/46/14
f 49/49/15 47/50/15 44/46/14 45/48/14
f 47/50/15 48/51/15 46/47/14 44/46/14
f 48/51/15 47/50/15 50/52/16 52/53/16
f 47/50/15 49/49/15 51/54/16 50/52/16
f 55/55/17 53/56/17 50/52/16 51/54/16
f 53/56/17 54/57/17 52/53/16 50/52/16
f 54/57/17 53/56/17 56/58/18 58/59/18
f 53/56/17 55/55/17 57/60/18 56/58/18
f 61/61/19 59/62/19 56/58/18 57/60/18
f 59/62/19 60/63/19 58/59/18 56/58/18
f 60/63/19 59/62/19 62/64/20 64/65/20
f 59/62/19 61/61/19 63/66/20 62/64/20
f 67/67/21 65/68/21 62/64/20 63/66/20
f 65/68/21 66/69/21 64/65/20 62/64/20
f 66/69/21 65/68/21 68/70/22 70/71/22
f 65/68/21 67/67/21 69/72/22 68/70/22
f 73/73/23 71/74/23 68/70/22 69/72/22
f 71/74/23 72/75/23 70/71/22 68/70/22
f 72/75/23 71/74/23 74/76/24 76/77/24
f 71/74/23 73/73/23 75/78/24 74/76/24
f 79/79/25 77/80/25 74/76/24 75/78/24
f 77/80/25 78/81/25 76/77/24 74/76/24
f 78/81/25 77/80/25 80/82/26 82/83/26
f 77/80/25 79/79/25 81/84/26 80/82/26
f 85/85/27 83/86/27 80/87/26 81/88/26
f 83/86/27 84/89/27 82/90/26 80/87/26
f 84/89/27 83/86/27 86/91/28 88/92/28
f 83/86/27 85/85/27 87/93/28 86/91/28
f 91/94/29 89/95/29 86/91/28 87/93/28
f 89/95/29 90/96/29 88/92/28 86/91/28
f 90/96/29 89/95/29 92/97/30 94/98/30
f 89/95/29 91/94/29 93/99/30 92/97/30
f 97/100/31 95/101/31 92/97/30 93/99/30
f 95/101/31 96/102/31 94/98/30 92/97/30
f 96/102/31 95/101/31 98/103/32 100/104/32
f 95/101/31 97/100/31 99/105/32 98/103/32
f 7/10/5 9/9/5 98/103/32 99/105/32
f 9/9/5 11/11/5 100/104/32 98/103/32
f 102/106/31 96/102/31 100/104/32 101/107/32
f 11/11/5 104/14/5 101/107/32 100/104/32
f 465/108/31 102/106/31 101/107/32 103/109/33
f 104/14/5 105/110/5 103/109/33 101/107/32
f 105/110/5 104/14/5 12/15/4 106/111/4
f 105/110/5 107/112/34 110/113/35 103/109/33
f 107/112/34 105/110/5 106/111/4 108/114/36
f 109/115/37 107/116/34 108/117/36 120/118/38
f 107/116/34 109/115/37 112/119/39 110/120/35
f 111/121/40 465/108/31 103/109/33 110/113/35
f 113/122/41 111/123/40 110/120/35 112/119/39
f 115/124/42 113/122/41 112/119/39 114/125/43
f 109/115/37 117/126/44 114/125/43 112/119/39
f 217/127/45 115/124/42 114/125/43 116/128/46
f 117/126/44 118/129/47 116/128/46 114/125/43
f 118/129/47 117/126/44 119/130/48 121/131/49
f 117/126/44 109/115/37 120/118/38 119/130/48
f 124/132/50 122/133/51 119/130/48 120/118/38
f 122/133/51 123/134/52 121/131/49 119/130/48
f 123/134/52 122/133/51 125/135/53 126/136/54
f 122/133/51 124/132/50 128/137/55 125/135/53
f 127/138/56 390/139/57 126/136/54 125/135/53
f 129/140/58 127/138/56 125/135/53 128/137/55
f 131/141/59 129/140/58 128/137/55 130/142/60
f 124/132/50 133/143/61 130/142/60 128/137/55
f 135/144/3 131/145/59 130/146/60 132/147/2
f 133/148/61 134/149/1 132/147/2 130/146/60
f 134/149/1 133/148/61 108/114/36 106/111/4
f 133/143/61 124/132/50 120/118/38 108/117/36
f 134/149/1 14/16/1 16/18/2 132/147/2
f 14/16/1 134/149/1 106/111/4 12/15/4
f 18/20/3 135/144/3 132/147/2 16/18/2
f 135/144/3 18/20/3 137/22/6 136/150/6
f 131/145/59 135/144/3 136/150/6 139/151/62
f 443/152/7 138/153/7 136/150/6 137/22/6
f 138/153/7 141/154/63 139/151/62 136/150/6
f 129/140/58 131/141/59 139/155/62 140/156/64
f 141/157/63 143/158/65 140/156/64 139/155/62
f 141/154/63 138/153/7 441/159/8 142/160/66
f 143/158/65 141/157/63 142/161/66 144/162/67
f 145/163/68 143/158/65 144/162/67 148/164/69
f 143/158/65 145/163/68 147/165/70 140/156/64
f 146/166/71 145/163/68 148/164/69 149/167/72
f 145/163/68 146/166/71 387/168/73 147/165/70
f 152/169/74 150/170/75 148/164/69 144/162/67
f 150/170/75 151/171/76 149/167/72 148/164/69
f 151/171/76 150/170/75 153/172/77 155/173/78
f 150/170/75 152/169/74 154/174/79 153/172/77
f 158/175/80 156/176/81 153/172/77 154/174/79
f 156/176/81 157/177/82 155/173/78 153/172/77
f 157/177/82 156/176/81 159/178/83 161/179/84
f 156/176/81 158/175/80 160/180/85 159/178/83
f 164/181/86 162/182/87 159/178/83 160/180/85
f 162/182/87 163/183/88 161/179/84 159/178/83
f 163/183/88 162/182/87 165/184/89 167/185/90
f 162/182/87 164/181/86 166/186/91 165/184/89
f 170/187/92 168/188/93 165/184/89 166/186/91
f 168/188/93 169/189/94 167/185/90 165/184/89
f 169/189/94 168/188/93 171/190/95 173/191/96
f 168/188/93 170/187/92 172/192/97 171/190/95
f 176/193/98 174/194/99 171/190/95 172/192/97
f 174/194/99 175/195/100 173/191/96 171/190/95
f 175/195/100 174/194/99 177/196/101 179/197/102
f 174/194/99 176/193/98 178/198/103 177/196/101
f 182/199/104 180/200/105 177/196/101 178/198/103
f 180/200/105 181/201/106 179/197/102 177/196/101
f 181/201/106 180/200/105 183/202/107 185/203/108
f 180/200/105 182/199/104 184/204/109 183/202/107
f 188/205/110 186/206/111 183/202/107 184/204/109
f 186/206/111 187/207/112 185/203/108 183/202/107
f 187/207/112 186/206/111 189/208/113 191/209/114
f 186/206/111 188/205/110 190/210/115 189/208/113
f 194/211/116 192/212/117 189/208/113 190/210/115
f 192/212/117 193/213/118 191/209/114 189/208/113
f 193/213/118 192/212/117 195/214/119 197/215/120
f 192/212/117 194/211/116 196/216/121 195/214/119
f 200/217/122 198/218/123 195/214/119 196/216/121
f 198/218/123 199/219/124 197/215/120 195/214/119
f 199/219/124 198/218/123 201/220/125 203/221/126
f 198/218/123 200/217/122 202/222/127 201/220/125
f 206/223/128 204/224/129 201/220/125 202/222/127
f 204/224/129 205/225/130 203/221/126 201/220/125
f 205/225/130 204/224/129 207/226/131 209/227/132
f 204/224/129 206/223/128 208/228/133 207/226/131
f 212/229/134 210/230/135 207/226/131 208/228/133
f 210/230/135 211/231/136 209/227/132 207/226/131
f 211/231/136 210/230/135 213/232/137 215/233/138
f 210/230/135 212/229/134 214/234/139 213/232/137
f 113/122/41 115/124/42 213/232/137 214/234/139
f 115/124/42 217/127/45 215/233/138 213/232/137
f 359/235/140 211/231/136 215/233/138 216/236/141
f 217/127/45 218/237/142 216/236/141 215/233/138
f 218/237/142 217/127/45 116/128/46 219/238/143
f 220/239/144 218/237/142 219/238/143 221/240/145
f 218/237/142 220/239/144 222/241/146 216/236/141
f 223/242/147 220/239/144 221/240/145 226/243/148
f 220/239/144 223/242/147 225/244/149 222/241/146
f 224/245/150 223/242/147 226/243/148 227/246/151
f 223/242/147 224/245/150 322/247/152 225/244/149
f 228/248/153 226/243/148 221/240/145 229/249/154
f 226/243/148 228/248/153 231/250/155 227/246/151
f 230/251/156 228/248/153 229/249/154 395/252/157
f 228/248/153 230/251/156 233/253/158 231/250/155
f 231/250/155 232/254/159 323/255/160 227/246/151
f 232/254/159 231/250/155 233/253/158 234/256/161
f 235/257/162 236/258/163 234/256/161 233/253/158
f 230/251/156 238/259/164 235/257/162 233/253/158
f 236/258/163 235/257/162 237/260/165 336/261/166
f 238/259/164 240/262/167 237/260/165 235/257/162
f 238/259/164 230/251/156 395/252/157 239/263/168
f 240/262/167 238/259/164 239/263/168 241/264/169
f 242/265/170 240/262/167 241/264/169 243/266/171
f 240/262/167 242/265/170 245/267/172 237/260/165
f 244/268/173 242/265/170 243/266/171 389/269/174
f 242/265/170 244/268/173 247/270/175 245/267/172
f 245/267/172 246/271/176 336/261/166 237/260/165
f 246/271/176 245/267/172 247/270/175 248/272/177
f 250/273/178 248/272/177 247/270/175 244/268/173
f 337/274/179 246/271/176 248/272/177 249/275/180
f 248/272/177 250/273/178 252/276/181 249/275/180
f 251/277/182 250/273/178 244/268/173 389/269/174
f 250/273/178 251/277/182 253/278/183 252/276/181
f 254/279/184 252/276/181 253/278/183 255/280/185
f 252/276/181 254/279/184 257/281/186 249/275/180
f 256/282/187 254/279/184 255/280/185 383/283/188
f 254/279/184 256/282/187 259/284/189 257/281/186
f 258/285/190 337/274/179 249/275/180 257/281/186
f 260/286/191 258/285/190 257/281/186 259/284/189
f 262/287/192 260/286/191 259/284/189 261/288/193
f 256/282/187 264/289/194 261/288/193 259/284/189
f 345/290/195 262/287/192 261/288/193 263/291/196
f 264/289/194 266/292/197 263/291/196 261/288/193
f 264/289/194 256/282/187 383/283/188 265/293/198
f 266/292/197 264/289/194 265/293/198 267/294/199
f 268/295/200 266/292/197 267/294/199 269/296/201
f 266/292/197 268/295/200 271/297/202 263/291/196
f 270/298/203 268/295/200 269/296/201 378/299/204
f 268/295/200 270/298/203 273/300/205 271/297/202
f 272/301/206 345/290/195 263/291/196 271/297/202
f 274/302/207 272/301/206 271/297/202 273/300/205
f 276/303/208 274/302/207 273/300/205 270/298/203
f 272/301/206 274/302/207 275/304/209 344/305/210
f 274/302/207 276/303/208 278/306/211 275/304/209
f 277/307/212 276/303/208 270/298/203 378/299/204
f 276/303/208 277/307/212 279/308/213 278/306/211
f 280/309/214 278/306/211 279/308/213 281/310/215
f 278/306/211 280/309/214 283/311/216 275/304/209
f 282/312/217 280/309/214 281/310/215 373/313/218
f 280/309/214 282/312/217 285/314/219 283/311/216
f 284/315/220 283/311/216 285/314/219 286/316/221
f 283/311/216 284/315/220 344/305/210 275/304/209
f 287/317/222 288/318/223 286/316/221 285/314/219
f 290/319/224 287/317/222 285/314/219 282/312/217
f 288/318/223 287/317/222 289/320/225 357/321/226
f 287/317/222 290/319/224 292/322/227 289/320/225
f 291/323/228 290/319/224 282/312/217 373/313/218
f 290/319/224 291/323/228 293/324/229 292/322/227
f 294/325/230 292/322/227 293/324/229 295/326/231
f 292/322/227 294/325/230 297/327/232 289/320/225
f 296/328/233 294/325/230 295/326/231 368/329/234
f 294/325/230 296/328/233 299/330/235 297/327/232
f 298/331/236 297/327/232 299/330/235 300/332/237
f 297/327/232 298/331/236 357/321/226 289/320/225
f 302/333/238 300/332/237 299/330/235 296/328/233
f 356/334/239 298/331/236 300/332/237 301/335/240
f 300/332/237 302/333/238 304/336/241 301/335/240
f 303/337/242 302/333/238 296/328/233 368/329/234
f 302/333/238 303/337/242 305/338/243 304/336/241
f 308/339/244 306/340/245 304/336/241 305/338/243
f 306/340/245 307/341/246 301/335/240 304/336/241
f 307/341/246 306/340/245 309/342/247 311/343/248
f 306/340/245 308/339/244 310/344/249 309/342/247
f 314/345/250 312/346/251 309/342/247 310/344/249
f 312/346/251 313/347/252 311/343/248 309/342/247
f 313/347/252 312/346/251 315/348/253 317/349/254
f 312/346/251 314/345/250 316/350/255 315/348/253
f 318/351/256 315/348/253 316/350/255 319/352/257
f 315/348/253 318/351/256 320/353/258 317/349/254
f 225/244/149 318/351/256 319/352/257 222/241/146
f 318/351/256 225/244/149 322/247/152 320/353/258
f 321/354/259 324/355/260 317/349/254 320/353/258
f 224/245/150 321/354/259 320/353/258 322/247/152
f 321/354/259 224/245/150 227/246/151 323/255/160
f 324/355/260 321/354/259 323/255/160 326/356/261
f 324/355/260 325/357/262 313/347/252 317/349/254
f 325/357/262 324/355/260 326/356/261 327/358/263
f 328/359/264 329/360/265 327/358/263 326/356/261
f 232/254/159 328/359/264 326/356/261 323/255/160
f 329/360/265 328/359/264 330/361/266 331/362/267
f 328/359/264 232/254/159 234/256/161 330/361/266
f 332/363/268 333/364/269 331/362/267 330/361/266
f 236/258/163 332/363/268 330/361/266 234/256/161
f 333/364/269 332/363/268 334/365/270 335/366/271
f 332/363/268 236/258/163 336/261/166 334/365/270
f 337/274/179 258/285/190 335/366/271 334/365/270
f 246/271/176 337/274/179 334/365/270 336/261/166
f 339/367/272 333/364/269 335/366/271 338/368/273
f 258/285/190 260/286/191 338/368/273 335/366/271
f 341/369/274 339/367/272 338/368/273 340/370/275
f 260/286/191 262/287/192 340/370/275 338/368/273
f 343/371/276 341/369/274 340/370/275 342/372/277
f 262/287/192 345/290/195 342/372/277 340/370/275
f 284/315/220 343/371/276 342/372/277 344/305/210
f 345/290/195 272/301/206 344/305/210 342/372/277
f 343/371/276 284/315/220 286/316/221 346/373/278
f 341/369/274 343/371/276 346/373/278 348/374/279
f 347/375/280 350/376/281 348/374/279 346/373/278
f 288/318/223 347/375/280 346/373/278 286/316/221
f 339/367/272 341/369/274 348/374/279 349/377/282
f 350/376/281 351/378/283 349/377/282 348/374/279
f 351/378/283 350/376/281 352/379/284 353/380/285
f 350/376/281 347/375/280 355/381/286 352/379/284
f 354/382/287 358/383/288 353/380/285 352/379/284
f 356/334/239 354/382/287 352/379/284 355/381/286
f 298/331/236 356/334/239 355/381/286 357/321/226
f 347/375/280 288/318/223 357/321/226 355/381/286
f 354/382/287 356/334/239 301/335/240 307/341/246
f 358/383/288 354/382/287 307/341/246 311/343/248
f 358/383/288 325/357/262 327/358/263 353/380/285
f 325/357/262 358/383/288 311/343/248 313/347/252
f 329/360/265 351/378/283 353/380/285 327/358/263
f 351/378/283 329/360/265 331/362/267 349/377/282
f 333/364/269 339/367/272 349/377/282 331/362/267
f 359/235/140 319/352/257 316/350/255 360/384/289
f 319/352/257 359/235/140 216/236/141 222/241/146
f 211/231/136 359/235/140 360/384/289 209/227/132
f 361/385/290 205/225/130 209/227/132 360/384/289
f 314/345/250 361/385/290 360/384/289 316/350/255
f 205/225/130 361/385/290 362/386/291 203/221/126
f 361/385/290 314/345/250 310/344/249 362/386/291
f 363/387/292 199/219/124 203/221/126 362/386/291
f 308/339/244 363/387/292 362/386/291 310/344/249
f 199/219/124 363/387/292 364/388/293 197/215/120
f 363/387/292 308/339/244 305/338/243 364/388/293
f 365/389/294 193/213/118 197/215/120 364/388/293
f 303/337/242 365/389/294 364/388/293 305/338/243
f 193/213/118 365/389/294 366/390/295 191/209/114
f 365/389/294 303/337/242 368/329/234 366/390/295
f 367/391/296 187/207/112 191/209/114 366/390/295
f 295/326/231 367/391/296 366/390/295 368/329/234
f 187/207/112 367/391/296 369/392/297 185/203/108
f 367/391/296 295/326/231 293/324/229 369/392/297
f 370/393/298 181/201/106 185/203/108 369/392/297
f 291/323/228 370/393/298 369/392/297 293/324/229
f 181/201/106 370/393/298 371/394/299 179/197/102
f 370/393/298 291/323/228 373/313/218 371/394/299
f 372/395/300 175/195/100 179/197/102 371/394/299
f 281/310/215 372/395/300 371/394/299 373/313/218
f 175/195/100 372/395/300 374/396/301 173/191/96
f 372/395/300 281/310/215 279/308/213 374/396/301
f 375/397/302 169/189/94 173/191/96 374/396/301
f 277/307/212 375/397/302 374/396/301 279/308/213
f 169/189/94 375/397/302 376/398/303 167/185/90
f 375/397/302 277/307/212 378/299/204 376/398/303
f 377/399/304 163/183/88 167/185/90 376/398/303
f 269/296/201 377/399/304 376/398/303 378/299/204
f 163/183/88 377/399/304 379/400/305 161/179/84
f 377/399/304 269/296/201 267/294/199 379/400/305
f 380/401/306 157/177/82 161/179/84 379/400/305
f 265/293/198 380/401/306 379/400/305 267/294/199
f 157/177/82 380/401/306 381/402/307 155/173/78
f 380/401/306 265/293/198 383/283/188 381/402/307
f 382/403/308 151/171/76 155/173/78 381/402/307
f 255/280/185 382/403/308 381/402/307 383/283/188
f 151/171/76 382/403/308 384/404/309 149/167/72
f 382/403/308 255/280/185 253/278/183 384/404/309
f 385/405/310 146/166/71 149/167/72 384/404/309
f 251/277/182 385/405/310 384/404/309 253/278/183
f 146/166/71 385/405/310 386/406/311 387/168/73
f 385/405/310 251/277/182 389/269/174 386/406/311
f 388/407/312 390/139/57 387/168/73 386/406/311
f 243/266/171 388/407/312 386/406/311 389/269/174
f 390/139/57 388/407/312 391/408/313 126/136/54
f 388/407/312 243/266/171 241/264/169 391/408/313
f 239/263/168 392/409/314 391/408/313 241/264/169
f 392/409/314 123/134/52 126/136/54 391/408/313
f 123/134/52 392/409/314 393/410/315 121/131/49
f 392/409/314 239/263/168 395/252/157 393/410/315
f 394/411/316 118/129/47 121/131/49 393/410/315
f 229/249/154 394/411/316 393/410/315 395/252/157
f 118/129/47 394/411/316 219/238/143 116/128/46
f 394/411/316 229/249/154 221/240/145 219/238/143
f 390/139/57 127/138/56 147/165/70 387/168/73
f 111/123/40 113/122/41 214/234/139 396/412/317
f 212/229/134 398/413/318 396/412/317 214/234/139
f 465/108/31 111/121/40 396/414/317 397/415/30
f 398/416/318 399/417/29 397/415/30 396/414/317
f 399/417/29 398/416/318 400/418/319 401/419/28
f 398/413/318 212/229/134 208/228/133 400/420/319
f 402/421/320 403/422/27 401/419/28 400/418/319
f 206/223/128 402/423/320 400/420/319 208/228/133
f 403/422/27 402/421/320 404/424/321 405/425/26
f 402/423/320 206/223/128 202/222/127 404/426/321
f 406/427/322 407/428/25 405/429/26 404/430/321
f 200/217/122 406/431/322 404/426/321 202/222/127
f 407/428/25 406/427/322 408/432/323 409/433/24
f 406/431/322 200/217/122 196/216/121 408/434/323
f 410/435/324 411/436/23 409/433/24 408/432/323
f 194/211/116 410/437/324 408/434/323 196/216/121
f 411/436/23 410/435/324 412/438/325 413/439/22
f 410/437/324 194/211/116 190/210/115 412/440/325
f 414/441/326 415/442/327 413/439/22 412/438/325
f 188/205/110 414/443/326 412/440/325 190/210/115
f 415/442/327 414/441/326 416/444/328 417/445/20
f 414/443/326 188/205/110 184/204/109 416/446/328
f 418/447/329 419/448/19 417/445/20 416/444/328
f 182/199/104 418/449/329 416/446/328 184/204/109
f 419/448/19 418/447/329 420/450/330 421/451/18
f 418/449/329 182/199/104 178/198/103 420/452/330
f 422/453/331 423/454/17 421/451/18 420/450/330
f 176/193/98 422/455/331 420/452/330 178/198/103
f 423/454/17 422/453/331 424/456/332 425/457/16
f 422/455/331 176/193/98 172/192/97 424/458/332
f 426/459/333 427/460/15 425/457/16 424/456/332
f 170/187/92 426/461/333 424/458/332 172/192/97
f 427/460/15 426/459/333 428/462/334 429/463/14
f 426/461/333 170/187/92 166/186/91 428/464/334
f 430/465/335 431/466/13 429/463/14 428/462/334
f 164/181/86 430/467/335 428/464/334 166/186/91
f 431/466/13 430/465/335 432/468/336 433/469/12
f 430/467/335 164/181/86 160/180/85 432/470/336
f 434/471/337 435/472/11 433/469/12 432/468/336
f 158/175/80 434/473/337 432/470/336 160/180/85
f 435/472/11 434/471/337 436/474/338 437/475/10
f 434/473/337 158/175/80 154/174/79 436/476/338
f 438/477/339 439/478/9 437/475/10 436/474/338
f 152/169/74 438/479/339 436/476/338 154/174/79
f 439/478/9 438/477/339 142/160/66 441/159/8
f 438/479/339 152/169/74 144/162/67 142/161/66
f 439/478/9 440/480/9 444/481/10 437/475/10
f 440/480/9 439/478/9 441/159/8 442/482/8
f 138/153/7 443/152/7 442/482/8 441/159/8
f 30/33/9 440/480/9 442/482/8 28/29/8
f 443/152/7 24/27/7 28/29/8 442/482/8
f 24/27/7 443/152/7 137/22/6 19/21/6
f 440/480/9 30/33/9 34/35/10 444/481/10
f 36/39/11 445/483/11 444/481/10 34/35/10
f 445/483/11 435/472/11 437/475/10 444/481/10
f 435/472/11 445/483/11 446/484/12 433/469/12
f 445/483/11 36/39/11 40/41/12 446/484/12
f 42/45/13 447/485/13 446/484/12 40/41/12
f 447/485/13 431/466/13 433/469/12 446/484/12
f 431/466/13 447/485/13 448/486/14 429/463/14
f 447/485/13 42/45/13 46/47/14 448/486/14
f 48/51/15 449/487/15 448/486/14 46/47/14
f 449/487/15 427/460/15 429/463/14 448/486/14
f 427/460/15 449/487/15 450/488/16 425/457/16
f 449/487/15 48/51/15 52/53/16 450/488/16
f 54/57/17 451/489/17 450/488/16 52/53/16
f 451/489/17 423/454/17 425/457/16 450/488/16
f 423/454/17 451/489/17 452/490/18 421/451/18
f 451/489/17 54/57/17 58/59/18 452/490/18
f 60/63/19 453/491/19 452/490/18 58/59/18
f 453/491/19 419/448/19 421/451/18 452/490/18
f 419/448/19 453/491/19 454/492/20 417/445/20
f 453/491/19 60/63/19 64/65/20 454/492/20
f 66/69/21 455/493/21 454/492/20 64/65/20
f 455/493/21 415/442/327 417/445/20 454/492/20
f 415/442/327 455/493/21 456/494/22 413/439/22
f 455/493/21 66/69/21 70/71/22 456/494/22
f 72/75/23 457/495/23 456/494/22 70/71/22
f 457/495/23 411/436/23 413/439/22 456/494/22
f 411/436/23 457/495/23 458/496/24 409/433/24
f 457/495/23 72/75/23 76/77/24 458/496/24
f 78/81/25 459/497/25 458/496/24 76/77/24
f 459/497/25 407/428/25 409/433/24 458/496/24
f 407/428/25 459/497/25 460/498/26 405/429/26
f 459/497/25 78/81/25 82/83/26 460/498/26
f 84/89/27 461/499/27 460/500/26 82/90/26
f 461/499/27 403/422/27 405/425/26 460/500/26
f 403/422/27 461/499/27 462/501/28 401/419/28
f 461/499/27 84/89/27 88/92/28 462/501/28
f 90/96/29 463/502/29 462/501/28 88/92/28
f 463/502/29 399/417/29 401/419/28 462/501/28
f 399/417/29 463/502/29 464/503/30 397/415/30
f 463/502/29 90/96/29 94/98/30 464/503/30
f 96/102/31 102/106/31 464/503/30 94/98/30
f 102/106/31 465/108/31 397/415/30 464/503/30
f 127/138/56 129/140/58 140/156/64 147/165/70
