# Blender 4.5.12 LTS
# www.blender.org
o Decal-Shoulder-Right-Trigger
v 44.364154 5.065091 51.035237
v 44.363988 7.561616 50.539808
v 41.879124 7.530783 50.345378
v 41.880489 5.032698 50.828098
v 39.411512 7.491841 49.893202
v 39.415348 4.995624 50.353370
v 44.364508 2.565367 51.463578
v 41.882331 2.531603 51.240144
v 39.420496 2.495899 50.738864
v 44.343114 3.819606 51.271104
v 41.878132 3.786865 51.057841
v 39.432319 3.750532 50.572404
v 44.344736 6.312455 50.786253
v 41.879690 6.281355 50.587824
v 39.431831 6.243799 50.129118
v 40.639513 7.520374 50.166480
v 40.641422 5.022395 50.637751
v 40.643963 2.521505 51.038245
v 40.638262 3.776140 50.861257
v 40.639960 6.271168 50.403467
v 43.117182 7.550997 50.466733
v 43.117433 5.053769 50.958757
v 43.118083 2.553256 51.381163
v 43.115791 3.808081 51.193778
v 43.117267 6.302019 50.713752
vn -0.0600 0.1936 0.9792
vn -0.0813 0.1921 0.9780
vn -0.0841 0.1879 0.9786
vn -0.0617 0.1896 0.9799
vn -0.1244 0.1880 0.9743
vn -0.1841 0.1821 0.9659
vn -0.1889 0.1771 0.9659
vn -0.1287 0.1835 0.9746
vn -0.0640 0.1674 0.9838
vn -0.0873 0.1655 0.9823
vn -0.0889 0.1467 0.9852
vn -0.0652 0.1488 0.9867
vn -0.1332 0.1608 0.9779
vn -0.1944 0.1546 0.9687
vn -0.1968 0.1360 0.9710
vn -0.1354 0.1420 0.9806
vn -0.0593 0.1939 0.9792
vn -0.0800 0.1926 0.9780
vn -0.1225 0.1889 0.9743
vn -0.1824 0.1832 0.9660
vn -0.2217 0.1786 0.9586
vn -0.2266 0.1732 0.9585
vn -0.2326 0.1509 0.9608
vn -0.2358 0.1324 0.9627
vn -0.2196 0.1798 0.9589
vt 0.584385 0.555797
vt 0.612337 0.555875
vt 0.612153 0.584363
vt 0.584204 0.584293
vt 0.640154 0.555954
vt 0.668151 0.555563
vt 0.667956 0.584013
vt 0.639960 0.584425
vt 0.584101 0.612674
vt 0.612044 0.612725
vt 0.611959 0.641119
vt 0.584006 0.641078
vt 0.639869 0.612770
vt 0.667891 0.612338
vt 0.667812 0.640690
vt 0.639781 0.641148
vt 0.584567 0.527273
vt 0.612522 0.527360
vt 0.640345 0.527444
vt 0.668341 0.527087
vt 0.696286 0.555187
vt 0.696098 0.583600
vt 0.696042 0.611899
vt 0.695997 0.640240
vt 0.696467 0.526741
s 1
f 13/1/1 25/2/2 22/3/3 1/4/4
f 14/5/5 20/6/6 17/7/7 4/8/8
f 10/9/9 24/10/10 23/11/11 7/12/12
f 11/13/13 19/14/14 18/15/15 8/16/16
f 1/4/4 22/3/3 24/10/10 10/9/9
f 4/8/8 17/7/7 19/14/14 11/13/13
f 2/17/17 21/18/18 25/2/2 13/1/1
f 3/19/19 16/20/20 20/6/6 14/5/5
f 20/6/6 15/21/21 6/22/22 17/7/7
f 19/14/14 12/23/23 9/24/24 18/15/15
f 17/7/7 6/22/22 12/23/23 19/14/14
f 16/20/20 5/25/25 15/21/21 20/6/6
f 14/5/5 4/8/8 22/3/3 25/2/2
f 11/13/13 8/16/16 23/11/11 24/10/10
f 4/8/8 11/13/13 24/10/10 22/3/3
f 3/19/19 14/5/5 25/2/2 21/18/18
