# B1.obj
# Valve Steam Controller (2015) CAD, CC BY-NC-SA 4.0
v 11.1555 -12.4377 -21.8056
v 16.6530 -12.1192 -27.1039
v 10.1470 -12.1314 -25.6270
v 13.5737 -1.6047 -24.2823
v 13.5392 -9.5286 -24.4556
v 13.5808 -2.9678 -21.4996
v 13.4253 -7.5090 -22.9982
v 14.1835 -6.1323 -25.8691
v 13.7299 -9.5567 -25.1643
v 14.2468 -12.4565 -22.7666
v 13.6684 -7.4181 -21.2666
v 13.5060 -10.0720 -21.1695
v 14.0623 -5.4265 -20.3957
v 14.1629 -1.0026 -25.7665
v 14.3914 -0.9241 -19.9840
v 14.1052 -11.8370 -28.2581
v 15.1300 -12.7657 -17.2061
v 15.0755 -3.3360 -26.9365
v 14.9618 -5.6346 -27.0552
v 14.4761 -3.0333 -23.0751
v 15.8221 -3.0806 -26.0231
v 15.5581 -13.3265 -25.5959
v 15.2714 -3.1148 -20.7254
v 14.6236 -12.1455 -24.9380
v 15.2429 -13.7395 -21.3032
v 15.1417 -12.7254 -20.3362
v 15.1068 -13.7818 -23.4636
v 14.8789 -3.5920 -19.1319
v 15.9322 -0.8415 -27.5948
v 16.0920 -1.0404 -18.3642
v 16.0770 -6.7377 -27.7768
v 17.2425 -14.1786 -24.1766
v 16.2021 -5.4632 -18.1845
v 17.2173 -7.0133 -17.7099
v 15.3821 -10.2630 -18.5266
v 16.9740 -8.6358 -28.3176
v 17.0083 -4.9408 -28.2239
v 17.5672 -7.7451 -28.4614
v 16.8616 -0.9085 -28.0802
v 16.7078 -1.0708 -26.8420
v 17.1410 -10.5141 -22.8953
v 17.2496 -12.7523 -18.7187
v 17.5049 -13.3991 -26.7439
v 17.2483 -3.1687 -23.7109
v 17.6032 -11.3977 -23.8780
v 17.1911 -3.2598 -22.5829
v 17.8345 -3.2478 -21.5896
v 17.0473 -14.1798 -20.8789
v 17.5691 -7.1916 -24.1413
v 16.8914 -13.8431 -19.5882
v 16.9585 -2.9430 -19.0818
v 17.5571 -10.1394 -17.5927
v 18.3199 -3.1825 -24.7982
v 18.3138 -14.4105 -22.7454
v 17.7254 -8.7850 -21.7653
v 17.7597 -11.2835 -21.9983
v 17.9635 -0.9149 -28.4543
v 18.6503 -7.9269 -24.8601
v 19.1035 -3.9033 -21.1855
v 17.6437 -1.0817 -17.6634
v 18.7459 -6.6196 -17.4920
v 18.7751 -11.3640 -21.2884
v 18.7127 -2.9389 -18.4996
v 19.2419 -11.7270 -22.7320
v 19.7336 -8.7225 -21.3991
v 18.9950 -12.6895 -18.3149
v 18.9912 -11.1987 -24.7847
v 18.6750 -3.0424 -27.5623
v 19.0550 -11.8731 -27.6939
v 18.8648 -13.2570 -27.1648
v 19.8915 -6.5761 -24.4986
v 20.2402 -14.1933 -24.4570
v 19.7261 -10.0206 -17.3147
v 20.0234 -3.1880 -24.6139
v 19.7646 -14.4723 -22.5845
v 19.7619 -3.1832 -21.2352
v 20.2760 -8.0053 -28.5338
v 20.3301 -4.3817 -28.4464
v 19.8052 -13.7021 -19.0993
v 20.4312 -0.9587 -17.6907
v 20.2134 -3.0929 -27.1068
v 21.1313 -12.8946 -26.8683
v 20.1276 -10.9930 -24.2032
v 20.8939 -3.1717 -22.9454
v 20.1458 -11.3669 -21.9826
v 20.3710 -14.1615 -20.6795
v 20.8131 -3.1196 -27.8497
v 20.6374 -7.7113 -23.5754
v 20.7820 -8.8701 -22.8044
v 20.6396 -11.3359 -23.1253
v 20.3554 -3.1060 -18.9932
v 21.1056 -3.0994 -18.4640
v 21.1383 -11.9067 -27.1179
v 20.9409 -13.7702 -25.3502
v 21.8223 -13.9880 -23.0092
v 20.3760 -7.7703 -17.6744
v 21.1851 -10.0128 -17.7457
v 22.4252 -13.3056 -20.4612
v 22.1040 -3.1755 -26.9911
v 21.5560 -2.9455 -19.2892
v 21.1531 -4.4871 -17.9512
v 21.9223 -3.0771 -26.2891
v 23.1044 -13.2729 -22.8195
v 21.8767 -12.3797 -19.4099
v 22.8829 -12.9915 -24.8374
v 22.1033 -7.7574 -18.3338
v 23.1051 -2.9581 -24.2002
v 22.9378 -2.8613 -21.0287
v 22.4550 -4.7285 -27.3868
v 23.1525 -11.9598 -25.1315
v 23.6575 -11.8739 -22.9108
v 22.9256 -3.6322 -19.0308
v 23.5143 -1.0987 -23.0127
v 23.3230 -3.0803 -22.6526
v 23.2589 -12.1256 -21.3412
v 23.8173 -0.9065 -25.6365
v 23.8001 -1.2381 -20.3736
v 23.7633 -9.1310 -20.0077
v 24.3073 -9.0464 -24.9015
v 24.3457 -4.2089 -24.4933
v 24.3512 -3.3527 -21.6001
v 23.8313 -5.5508 -20.3834
v 24.3477 -1.0731 -24.2068
g B1
f 4 6 7
f 7 11 12
f 3 24 2
f 14 9 8
f 14 4 9
f 4 5 9
f 26 10 1
f 13 6 15
f 13 15 28
f 14 8 18
f 24 10 27
f 18 8 19
f 24 27 22
f 10 25 27
f 25 10 26
f 26 50 25
f 29 18 31
f 20 21 44
f 44 23 20
f 25 32 27
f 33 28 30
f 24 22 2
f 27 43 22
f 53 44 21
f 25 48 32
f 40 68 21
f 46 23 44
f 50 48 25
f 26 42 50
f 33 34 35
f 17 66 42
f 37 36 38
f 22 43 2
f 81 21 68
f 44 49 41
f 46 44 41
f 47 23 46
f 33 60 34
f 57 39 38
f 38 39 37
f 32 43 27
f 49 45 41
f 45 56 41
f 48 54 32
f 47 46 41
f 47 41 55
f 2 69 16
f 43 69 2
f 44 53 49
f 49 58 45
f 61 52 34
f 78 57 38
f 70 69 43
f 53 21 81
f 62 56 45
f 41 56 55
f 48 86 54
f 58 49 53
f 58 67 45
f 56 62 55
f 59 47 62
f 62 47 55
f 79 50 42
f 23 63 51
f 79 42 66
f 80 61 60
f 77 78 38
f 43 94 70
f 64 62 45
f 59 76 47
f 50 86 48
f 61 73 52
f 32 94 43
f 53 74 58
f 45 67 64
f 75 54 86
f 65 59 62
f 76 23 47
f 50 79 86
f 74 71 58
f 72 94 32
f 54 75 32
f 85 62 64
f 85 65 62
f 91 63 23
f 96 73 61
f 58 71 67
f 71 83 67
f 32 75 72
f 70 82 69
f 74 53 81
f 83 90 67
f 90 64 67
f 85 64 90
f 65 76 59
f 89 65 85
f 80 96 61
f 82 93 69
f 83 71 88
f 99 74 81
f 74 84 71
f 71 84 88
f 88 89 83
f 75 95 72
f 75 86 95
f 89 85 90
f 89 84 65
f 84 76 65
f 79 66 104
f 99 81 87
f 102 74 99
f 82 70 94
f 88 84 89
f 90 83 89
f 91 23 76
f 98 79 104
f 96 106 97
f 102 84 74
f 72 95 94
f 86 98 95
f 91 76 84
f 79 98 86
f 101 106 96
f 109 99 87
f 93 82 110
f 82 94 105
f 91 84 114
f 108 91 114
f 91 108 100
f 110 82 105
f 105 94 95
f 102 114 84
f 98 103 95
f 100 112 92
f 112 101 92
f 114 102 107
f 105 95 103
f 104 115 98
f 111 110 105
f 111 105 103
f 98 111 103
f 115 111 98
f 112 118 106
f 113 114 107
f 112 117 122
f 120 116 119
f 117 121 122
f 121 123 120
