# L1.obj
# Valve Steam Controller (2015) CAD, CC BY-NC-SA 4.0
v -66.9985 -3.3621 20.1646
v -66.7649 -0.2988 20.6059
v -67.0081 -3.0536 20.8494
v -66.5815 0.2201 19.2626
v -66.9747 -1.6756 20.2965
v -66.5416 -1.0896 20.8077
v -66.6225 -2.5968 20.9164
v -66.5468 -2.9344 21.5512
v -66.4263 1.6485 21.1017
v -66.5325 0.6877 20.7222
v -66.5404 -0.2140 21.2065
v -66.5231 -1.6714 21.4152
v -66.0413 -2.4712 19.2932
v -66.2710 -5.0615 21.2567
v -65.9856 1.9988 21.0962
v -66.0967 -0.5833 21.8800
v -66.2120 -1.8947 22.2119
v -65.6191 -3.3802 20.2217
v -66.2162 -2.0941 20.5941
v -65.7956 -4.7658 21.6619
v -65.9489 0.7531 22.1433
v -65.3943 -0.6987 18.7513
v -65.6161 -0.1578 19.4980
v -65.4337 1.5623 19.6114
v -65.6745 -1.7079 21.1582
v -65.6826 0.0013 20.9846
v -65.2700 1.0942 22.8871
v -65.2797 -0.6762 23.3047
v -65.4763 -1.4150 22.9299
v -65.6326 -5.4623 23.0380
v -64.9687 -0.6267 19.1360
v -65.2751 -0.1254 19.1783
v -65.2332 -2.6228 19.3514
v -65.1880 -4.5207 19.7039
v -65.2675 -1.0833 20.5495
v -65.4145 -5.1848 21.0368
v -65.4384 1.8848 21.3414
v -65.2897 -5.4993 22.0930
v -64.8685 -5.2444 23.2538
v -64.8003 1.3691 19.9211
v -65.1548 0.7155 20.8642
v -64.8918 -0.4485 20.5578
v -64.9847 -1.1380 22.1873
v -64.9222 1.3527 21.9703
v -65.0922 -5.7677 22.3131
v -64.7368 1.9387 22.9162
v -65.0480 -0.7943 21.6787
v -65.2320 -6.3030 23.7794
v -64.8043 -6.9901 26.6140
v -64.8367 0.4178 19.6127
v -64.8723 0.6482 21.9548
v -64.3845 1.3187 21.9704
v -64.6003 -1.6954 23.5668
v -64.2385 -6.2130 23.1273
v -64.3843 3.5531 19.6381
v -64.0375 1.8231 20.6829
v -64.6487 4.0633 20.5551
v -64.6992 1.7092 20.6422
v -64.1275 1.7371 23.7119
v -64.4856 -3.8397 25.3006
v -64.3351 -5.2375 25.8519
v -64.3754 -3.5071 27.4732
v -64.0220 3.6370 20.5146
v -64.3868 2.3232 21.4184
v -63.8550 3.5486 22.2961
v -64.2384 -6.2952 21.9728
v -63.8098 2.8284 24.0066
v -64.3899 0.0872 23.7173
v -64.1331 -2.5535 28.2738
v -63.5656 -2.8866 21.9646
v -63.8880 -6.5006 25.0229
v -63.7639 -2.4810 29.9193
v -63.8866 -4.7685 29.8296
v -63.0292 5.1632 21.7926
v -63.4026 4.5830 21.3738
v -63.7061 3.9621 20.7885
v -63.6203 -7.1773 23.2431
v -63.4276 -5.3363 22.1898
v -63.7242 1.4176 27.1066
v -63.3091 -2.9063 24.8491
v -63.1546 -6.9475 28.0420
v -63.9199 -5.7110 28.4562
v -63.2885 -5.9741 31.1710
v -62.7970 1.6365 22.1147
v -62.6639 -2.7197 22.1035
v -63.4910 -5.1754 26.0070
v -63.0155 3.3083 22.0635
v -63.4350 -1.1105 22.0852
v -62.8345 -1.4629 25.0116
v -63.2708 4.2094 24.9297
v -63.3795 2.5694 27.6589
v -62.5782 -7.4919 29.8871
v -63.0837 -0.0481 30.1336
v -62.9447 4.7549 22.6843
v -62.5842 5.7092 22.3380
v -62.9058 5.0221 23.1897
v -61.9712 -2.6980 24.2107
v -62.7962 -7.3037 25.0931
v -62.3454 -5.4739 28.4928
v -63.2427 -4.1138 31.5168
v -62.7398 -10.2369 22.6392
v -62.2566 -1.8505 22.7442
v -62.3543 -8.9708 25.1660
v -61.8667 2.8814 24.5487
v -62.4325 -6.1253 24.7634
v -61.0893 -2.6870 26.6818
v -61.2825 -6.5251 27.3379
v -61.8811 -5.9575 28.9772
v -62.3327 -2.9375 27.3149
v -62.5611 2.6219 29.9188
v -62.8154 -8.1054 31.3010
v -61.8344 3.1776 22.1022
v -61.6610 0.6484 26.7813
v -62.2254 -1.3839 26.6614
v -62.2906 4.4758 29.3361
v -61.7566 5.0268 24.1245
v -61.4648 6.1373 27.0950
v -61.8103 -7.6161 31.2682
v -62.1116 -6.5731 33.1114
v -61.7963 -5.8332 34.0874
v -60.8140 -11.4528 26.0210
v -62.1521 5.4652 25.5510
v -61.4087 -1.8104 25.8720
v -61.2926 -1.4206 28.9023
v -60.8575 5.3046 31.2957
v -60.3581 0.1166 34.1225
v -61.8383 -2.4750 33.2123
v -60.8557 4.3363 23.3526
v -60.3797 5.7505 24.5909
v -61.3551 3.1148 26.0854
v -61.9054 -7.8795 27.0896
v -61.2361 -6.4040 27.0266
v -61.3640 -7.6438 28.0954
v -61.0521 -2.9312 29.8807
v -60.5027 -5.7853 27.5418
v -61.2712 0.8810 28.0286
v -60.2111 -6.9834 29.9362
v -60.7994 -8.1336 29.7250
v -60.6949 -6.5483 31.3016
v -60.4948 -3.7407 31.1921
v -60.6803 -8.0292 33.4333
v -61.4421 -4.0767 34.2381
v -60.9535 -9.1767 28.2376
v -59.2176 -1.7161 30.0426
v -60.6573 6.2121 29.9361
v -60.7802 3.2174 28.6923
v -60.6027 1.6013 29.6189
v -59.8690 -5.8906 32.6302
v -61.5753 0.0881 32.6304
v -61.1547 -8.6756 34.1960
v -60.2361 6.2748 25.7189
v -59.8658 -2.6585 28.8894
v -59.0392 1.9693 31.0644
v -60.3562 4.2591 24.0925
v -59.8805 6.6775 26.3535
v -59.8553 7.2699 27.9008
v -58.7455 3.9881 30.5291
v -58.4157 3.4400 32.0483
v -59.6344 -9.1263 31.3445
v -60.1814 -7.3497 35.5922
v -59.9109 4.3887 28.3437
v -59.2170 6.4721 32.4014
v -58.7313 -3.7567 33.5313
v -60.6860 2.6676 32.7211
v -59.1381 0.9088 35.0453
v -59.3327 5.5329 24.6497
v -59.2799 7.7176 28.4056
v -58.2531 -8.0140 30.7359
v -59.7027 -8.6111 30.4671
v -59.4939 0.3632 31.1101
v -59.6807 -2.4671 35.6847
v -59.0210 6.7474 25.4253
v -58.3912 5.7176 25.6375
v -59.4903 -4.0671 27.5607
v -58.8132 5.3409 29.5863
v -59.4460 -1.5276 31.7005
v -57.9980 -8.3643 35.8901
v -58.3959 -9.3141 31.1970
v -59.2891 -8.5603 34.7846
v -58.9918 -5.3117 36.9591
v -57.2058 6.7243 26.3586
v -58.7525 -7.8374 28.1750
v -58.8403 -7.3633 33.4439
v -57.5992 -5.2485 34.9046
v -57.3549 -6.9239 37.1817
v -57.7050 7.4818 25.9935
v -59.1099 0.0516 27.6937
v -57.6861 -2.8486 29.0701
v -58.7949 -2.7209 30.4617
v -57.5319 -8.9258 31.4519
v -59.3417 -2.8709 32.3448
v -58.4657 -9.6609 36.0102
v -57.4053 -3.0127 37.5824
v -57.6297 8.5660 29.2057
v -57.5668 -7.6292 29.2254
v -57.5350 7.4865 33.1306
v -57.3406 -10.2511 32.3276
v -58.4703 -1.0331 32.9377
v -57.8518 -10.4572 31.7362
v -58.0854 -7.4292 33.4317
v -58.6296 3.9609 34.1461
v -56.7792 2.4494 36.1767
v -58.5977 -6.3776 37.1000
v -58.3197 7.8539 30.8197
v -56.1958 2.1386 33.6496
v -57.2960 -2.8826 34.4486
v -56.5671 9.2516 29.4800
v -57.9649 5.8331 30.4205
v -55.6017 4.0204 33.2191
v -56.5468 3.3182 33.8919
v -56.2272 -1.5708 34.7349
v -55.5713 -1.0000 35.2179
v -56.7374 -5.3296 35.2904
v -57.7055 -0.5154 36.6626
v -56.5892 -2.7691 32.8203
v -56.6646 5.9346 34.6229
v -56.6635 -9.8248 31.3699
v -56.6384 -1.7749 32.5345
v -56.9842 0.4060 33.7480
v -55.4086 -2.8688 35.6975
v -54.8985 -1.3135 38.4866
v -56.1231 8.1419 27.2552
v -55.9973 -8.1785 32.1712
v -56.1893 -6.3316 34.3007
v -56.5862 9.0710 28.0364
v -55.9693 7.3509 28.0151
v -55.1844 8.6392 33.9680
v -55.5104 -3.9093 36.0739
v -55.1706 1.9269 37.2802
v -54.2336 9.0709 28.8233
v -55.8454 9.0921 32.0005
v -55.6748 -10.1604 31.7476
v -55.2069 -7.6230 36.4351
v -56.7606 6.8725 30.7643
v -54.5150 -1.8255 33.9880
v -55.6484 -5.8700 38.0068
v -55.9613 -4.5333 38.4483
v -55.4926 4.2414 36.1666
v -52.7499 -1.5084 36.6345
v -52.8285 4.3114 37.3643
v -53.0184 10.1702 33.6541
v -54.8003 -7.2410 32.8285
v -54.9292 3.0547 33.9968
v -53.6787 -3.6070 36.6046
v -54.9324 -3.3151 38.9373
v -54.2152 10.1466 28.8354
v -54.5872 10.2958 30.0388
v -53.1758 7.2896 35.7508
v -53.4297 -2.8765 36.4599
v -53.4818 -7.0568 36.5673
v -54.0909 0.8549 38.1503
v -53.2494 7.1659 32.8249
v -53.4434 1.9357 35.2837
v -53.6740 -5.0816 38.5217
v -54.3327 8.8300 31.1807
v -53.1517 -5.4605 34.5273
v -52.1400 11.1663 29.8516
v -52.1466 11.5255 30.4754
v -53.6446 -11.4624 32.4622
v -53.5090 -9.6579 32.1733
v -53.4953 10.5982 31.3443
v -51.6320 -8.3480 32.1948
v -53.0274 -6.8393 32.8023
v -51.3407 -9.9481 32.6095
v -51.6325 -1.6920 35.5497
v -52.3950 -2.7225 35.1745
v -52.7424 -2.7493 39.5036
v -52.7824 9.8249 31.4186
v -51.8565 1.8688 38.6559
v -51.0750 -6.9716 32.4668
v -50.8630 -4.7733 34.4940
v -51.3306 7.6416 36.3579
v -51.8341 -3.4184 36.2561
v -52.5247 -0.1486 36.4194
v -51.2527 -10.2204 37.7202
v -51.5889 5.4881 34.4550
v -50.9910 3.0310 35.8162
v -52.0784 -6.4881 36.7742
v -51.9351 -4.3473 38.8417
v -52.3964 10.1499 30.0937
v -50.4316 12.2857 30.9061
v -50.5155 11.7744 32.8439
v -50.6034 11.0162 31.5726
v -50.5852 8.4476 33.2688
v -50.7622 -11.7720 38.0716
v -51.4711 -12.2670 32.9799
v -49.6576 -10.1342 32.9171
v -49.8123 -2.9154 35.9687
v -52.9702 -1.2401 39.2095
v -49.3402 12.4379 30.3079
v -50.7455 -0.8304 39.8131
v -48.7785 12.0495 30.5667
v -50.2679 -5.7312 33.0994
v -51.6457 10.2465 34.7254
v -48.7688 -8.0346 32.5292
v -47.7084 -10.5068 33.2446
v -48.4920 -1.7310 36.3471
v -49.4043 7.4648 37.1326
v -48.9120 2.7307 36.6007
v -50.3861 4.7148 38.0628
v -50.3820 -0.9764 37.3833
v -49.8152 -5.7783 36.8271
v -49.1706 2.5330 39.2572
v -48.7506 6.3561 35.0711
v -47.6889 1.9862 37.1433
v -49.5705 -1.4901 37.3813
v -47.8577 -6.1028 32.4713
v -48.7956 8.9672 33.6425
v -48.2651 -11.7828 38.3459
v -47.9377 13.4286 31.1238
v -47.8237 -4.7821 33.1395
v -48.2373 11.6403 32.1384
v -49.1309 9.7427 35.9664
v -48.8571 -1.8978 39.8478
v -48.9842 -13.1566 33.4463
v -49.4910 -3.2999 39.1473
v -47.4030 -3.1158 38.7181
v -48.3583 12.8284 32.7941
v -47.3664 -0.3530 37.8031
v -47.8468 6.2896 38.1445
v -48.0731 -8.3075 37.7261
v -48.2246 -0.3473 40.1681
v -46.4537 11.7841 30.4904
v -49.0872 12.8580 30.9740
v -45.9724 -8.2118 32.9326
v -48.1848 -2.7303 35.7353
v -46.2033 -11.1755 33.5084
v -48.9881 11.6546 34.8337
v -47.7640 0.8107 37.3646
v -46.1714 8.8551 37.3907
v -47.6261 -4.9395 36.8753
v -48.2887 -9.8570 37.9859
v -46.6685 8.4596 34.6068
v -47.5014 4.2082 39.1004
v -46.3451 11.7428 32.5498
v -46.6664 -13.7064 33.8282
v -46.4466 1.4704 33.8565
v -47.0254 11.0374 35.9569
v -46.6953 4.5949 36.5296
v -48.0173 1.4478 39.8591
v -45.8380 -6.7902 32.5302
v -45.8784 8.4005 33.1338
v -46.5880 0.7918 34.1546
v -46.2768 7.1087 35.4245
v -45.1409 -4.0052 36.8865
v -46.3030 10.2076 33.7386
v -45.6360 7.3587 33.6290
v -45.7184 2.2520 37.5451
v -45.7657 0.5458 37.8999
v -45.1215 -1.1916 39.6032
v -46.0194 13.8582 30.4893
v -45.6143 13.8731 33.3544
v -44.3411 12.5165 32.8308
v -44.0336 8.0750 33.1511
v -45.5501 13.0321 35.1016
v -45.3187 6.9386 38.5443
v -43.8003 0.7717 33.6903
v -43.7963 8.0714 35.4106
v -45.3797 -3.8296 33.0957
v -42.7718 -7.0811 32.9372
v -43.7378 -10.1424 33.5762
v -44.9523 9.0188 34.3815
v -44.8576 -1.5845 35.5701
v -47.1872 1.8737 34.9355
v -43.9887 5.8618 36.6308
v -47.2689 -13.3813 38.7374
v -45.0971 4.6180 39.5081
v -45.7463 2.0247 40.2168
v -44.9671 12.4235 30.7587
v -43.8454 0.6195 37.1195
v -43.9939 3.7165 37.4297
v -46.7865 -12.4340 38.4730
v -43.8501 14.4826 33.8239
v -43.9492 -4.6579 32.3972
v -44.4898 -12.1418 33.8158
v -44.1402 1.9489 35.2520
v -45.2030 -9.9155 38.3319
v -43.4751 14.9197 30.5898
v -42.2982 13.4830 30.7435
v -42.7833 13.1257 32.8760
v -44.4163 11.5819 36.4026
v -43.9596 9.5376 37.6335
v -45.1291 -0.0470 40.2211
v -43.6959 6.4046 31.1993
v -45.3133 14.4796 31.2006
v -43.7032 4.4257 31.2289
v -43.6910 -1.3250 32.8813
v -43.6926 -4.2752 31.5175
v -43.7253 4.1332 32.6025
v -43.7735 -2.7037 33.4237
v -43.7766 1.8114 33.8908
v -43.7685 9.7593 34.6342
v -43.5906 1.6002 32.6758
v -44.0610 -14.4797 34.0840
v -43.7799 2.1309 37.8401
v -44.6953 -8.1298 38.0114
v -43.6869 1.9379 40.5399
v -42.6979 4.3683 31.0539
v -43.5913 -1.7661 31.2971
v -43.2802 -3.2187 36.8589
v -42.7204 -4.4395 31.2942
v -43.7121 7.1250 33.0035
v -41.6117 -5.5357 32.5304
v -44.0937 -6.5940 37.6830
v -42.5072 0.1660 39.8825
v -42.6505 6.4853 31.0927
v -42.5840 -1.6362 31.5393
v -42.5121 15.1598 33.3150
v -42.1603 -3.5688 32.3609
v -42.7726 -1.1660 32.7236
v -43.2392 9.4985 33.0787
v -41.6858 10.3651 34.3951
v -42.0599 -7.3528 38.0429
v -42.4389 -2.6729 32.6559
v -42.6756 3.9659 32.4137
v -42.6042 1.2337 32.8017
v -42.2448 2.3921 33.7314
v -42.3500 -1.6355 34.0023
v -40.4384 -9.1587 33.5726
v -42.3273 -0.0004 34.3286
v -42.4845 14.1621 35.2809
v -43.3102 7.8045 38.6326
v -42.2610 -8.7683 38.3045
v -42.2559 7.0319 33.1294
v -41.9160 1.0829 33.5534
v -40.5378 -12.1258 33.9711
v -41.0241 11.4227 34.5479
v -42.0388 0.7146 35.2308
v -41.9897 -0.5248 35.3770
v -42.1394 8.7011 35.6412
v -42.2049 4.2912 37.5391
v -42.2449 15.7099 31.2513
v -42.0064 1.8725 35.2720
v -41.3273 -13.0032 34.2323
v -41.2095 12.3753 36.7736
v -42.1947 2.0713 37.9064
v -41.4837 -2.5239 36.8220
v -42.7302 -12.4200 38.7673
v -42.7484 -8.3151 33.2414
v -42.1198 7.0918 36.5125
v -40.6200 7.4194 39.3751
v -42.6901 4.3495 40.0576
v -40.6696 3.1293 38.2383
v -38.6760 -6.2450 32.9374
v -39.7039 7.1157 37.0859
v -42.8293 -10.7444 38.6414
v -40.3795 -14.2670 39.0589
v -41.8098 1.9919 40.5045
v -40.8006 15.9605 30.5830
v -39.9423 14.3612 30.7319
v -41.0594 -4.1366 32.2770
v -40.6643 15.8528 33.4037
v -40.7380 14.0072 32.7551
v -40.8914 10.5331 33.1265
v -42.1865 8.8339 33.2466
v -40.9966 -15.0814 34.2492
v -39.9942 0.9103 33.7943
v -40.9200 -5.7897 37.7080
v -40.1897 4.2837 40.5011
v -40.1048 16.5360 31.1123
v -40.4702 -10.6336 33.8454
v -39.6417 1.6234 34.0174
v -40.0259 0.3559 35.3298
v -40.2187 9.0952 38.7340
v -39.8788 -1.6879 32.8021
v -39.7400 9.8769 33.2289
v -38.9015 0.6667 35.0346
v -39.5803 -1.9016 36.6010
v -39.8602 15.2648 35.1693
v -37.8510 17.3569 30.9413
v -41.6274 -4.8216 37.4302
v -37.7265 6.6968 37.5726
v -39.5100 1.3042 39.7766
v -39.1657 9.9412 35.7496
v -39.3427 -6.6172 37.9881
v -37.9906 15.0634 30.7418
v -38.6272 13.8832 36.5046
v -39.3082 6.4750 39.9487
v -37.9389 17.0801 32.8808
v -37.6943 -4.1615 32.2942
v -38.9389 14.6229 32.8387
v -37.8591 -13.9416 34.3812
v -39.0129 -2.3971 32.1715
v -38.9121 11.3958 33.2551
v -39.4941 11.2338 34.3906
v -39.1609 -8.0511 38.3313
v -39.3347 -9.6514 38.6440
v -41.8336 -12.6393 39.0397
v -38.3023 16.8861 30.4187
v -36.2430 -8.1410 33.4741
v -37.3704 -11.6339 34.1390
v -38.4601 -7.5025 33.2623
v -36.8271 -9.4401 33.6857
v -37.2407 15.2785 32.7792
v -37.5755 10.7190 33.2825
v -36.6301 6.0657 40.5268
v -36.1177 2.8574 39.7985
v -36.9870 -2.4809 31.9019
v -37.5546 12.3608 34.6496
v -38.6312 2.0410 36.5474
v -38.8239 11.4752 37.8773
v -35.5756 -6.8647 33.1760
v -36.3186 12.3721 33.0786
v -36.4682 11.0211 35.8078
v -36.4631 -6.9268 38.1555
v -38.3607 4.8891 38.0953
v -36.0825 9.4697 39.4203
v -36.6666 0.5894 37.8237
v -35.9167 15.7561 30.1958
v -37.3497 -0.6584 32.6007
v -35.9310 -4.6939 32.6042
v -36.1265 17.9467 30.6293
v -37.0529 -15.7219 34.4603
v -35.2554 11.6607 33.2365
v -34.0478 -12.7729 34.2609
v -37.3720 16.3116 35.0174
v -37.5688 -5.2431 37.7398
v -36.4458 17.0866 29.4092
v -35.4923 12.9263 34.3242
v -34.1920 -11.0199 34.1178
v -37.3335 -0.9481 36.4812
v -34.8915 6.8121 38.0315
v -38.0367 -13.9083 39.3401
v -35.8438 17.2485 27.8889
v -36.1878 17.7100 32.8919
v -33.3219 0.5542 31.9341
v -34.9552 0.4032 32.5325
v -37.1227 0.9459 34.6218
v -35.2053 13.9412 34.2811
v -37.0437 8.9066 36.8208
v -34.1285 0.2151 36.1501
v -35.4700 15.3701 33.0460
v -33.9413 12.0396 35.7761
v -35.9890 4.9177 38.0792
v -36.4118 -17.0674 39.3250
v -34.8710 16.0143 26.0807
v -34.0220 -5.2494 32.7865
v -35.4262 2.6031 35.5737
v -35.8241 14.9005 36.4968
v -34.4710 9.6179 37.0007
v -35.5670 12.0732 38.2429
v -36.1026 -12.7742 39.0651
v -34.5768 15.2743 27.6294
v -34.4372 17.9124 29.3380
v -34.1107 -1.7067 31.6911
v -33.6766 -7.1595 38.3213
v -37.2538 -10.6011 38.7694
v -37.4368 3.7385 40.5290
v -34.2895 15.5754 24.6792
v -34.4484 14.8261 29.6617
v -34.8629 15.1873 31.7402
v -33.3557 13.4648 29.2545
v -34.0110 13.2280 33.0211
v -34.1053 13.5522 34.1118
v -35.1697 16.8350 35.2002
v -33.9540 15.9975 35.5659
v -33.9279 10.0248 39.5461
v -35.0944 -8.8432 38.6223
v -34.0567 3.6627 39.5977
v -34.4994 17.7583 32.1264
v -34.3172 -9.6294 33.9340
v -33.7416 -16.4145 34.5210
v -33.2194 14.1931 25.4385
v -32.6474 -2.5172 31.9675
v -32.7381 -6.6074 33.2488
v -32.4955 -7.8277 33.5500
v -34.0593 14.4224 37.1709
v -32.5655 10.0867 37.0972
v -33.0246 13.4934 26.2435
v -32.7724 0.0059 31.5805
v -33.5279 13.3868 32.2060
v -33.2556 12.4883 33.2241
v -34.1078 -13.3522 34.5387
v -33.4271 4.3032 36.4101
v -35.3693 7.7354 40.1608
v -33.2462 16.4194 25.0889
v -33.5348 17.5080 27.3869
v -33.0524 17.1571 28.2197
v -33.1917 12.3539 35.0433
v -32.8461 13.1022 38.0963
v -32.0754 0.9860 35.8961
v -31.8050 9.3231 37.4500
v -31.7529 7.7809 37.9824
v -32.9561 16.7395 31.3665
v -32.4122 12.1529 29.7839
v -32.0439 16.0362 23.4535
v -32.0799 16.3987 24.6913
v -30.8752 -1.2767 31.5310
v -33.4072 16.7280 33.6876
v -32.2155 11.4168 33.6709
v -32.8750 2.4485 33.9820
v -32.1398 14.3820 35.9965
v -33.3863 -3.9536 37.5126
v -30.4825 -9.6064 38.7866
v -35.0813 -10.7788 39.0296
v -31.6700 -15.3917 39.3594
v -31.9988 11.9118 27.4816
v -31.8541 15.1512 32.3706
v -32.5196 -16.6229 34.8514
v -31.4722 -11.8633 39.0632
v -32.6171 16.8183 26.5209
v -31.6416 15.3429 28.3393
v -31.7653 11.1315 31.5236
v -31.9620 10.5495 35.8588
v -32.4096 6.6252 38.0239
v -33.0873 7.5966 40.5169
v -30.9870 5.4648 39.8368
v -30.9555 10.3540 29.0292
v -31.7710 14.8173 34.0582
v -31.3622 -5.4238 32.9326
v -31.0403 -10.9889 34.2307
v -30.8850 11.5599 38.5353
v -31.3488 9.3533 40.1440
v -31.0926 14.5229 24.8240
v -31.2863 14.4673 25.4892
v -30.3670 9.0974 33.3631
v -30.9896 -8.9545 33.7695
v -31.6155 -5.6418 38.0090
v -31.3067 -8.3312 38.6038
v -30.3223 -12.6534 34.4705
v -31.3979 6.9623 40.5700
v -30.1277 15.8712 25.0306
v -31.2815 15.3225 25.5722
v -29.8213 11.7355 27.8380
v -30.4168 9.3647 31.7146
v -30.1612 -17.0563 34.8361
v -29.6815 8.1360 34.0122
v -30.3095 8.0662 36.0713
v -30.1218 1.7148 35.6123
v -31.7827 11.4266 39.1585
v -30.5587 13.7860 24.7248
v -33.2512 -3.7973 32.3855
v -30.8818 4.7533 35.5891
v -29.5110 4.7406 34.4752
v -29.8927 6.4381 35.7089
v -31.6598 3.4676 38.3361
v -29.8779 13.0722 25.1226
v -30.1483 12.7620 26.1457
v -31.0955 14.3898 30.0382
v -27.3227 -4.1344 32.6203
v -30.7700 -15.5259 34.5583
v -29.3632 15.1698 25.0281
v -29.7341 13.3826 26.6161
v -29.4261 11.9484 27.1405
v -29.6552 8.6811 30.3883
v -29.1984 2.7096 32.0123
v -30.4161 12.9204 34.5832
v -28.7655 6.8364 33.5356
v -29.4944 12.0113 26.2494
v -29.2554 13.9892 25.3882
v -29.3751 12.3048 28.3691
v -30.3988 13.2918 31.6180
v -31.1189 -0.4381 31.2324
v -28.9939 11.0454 34.4595
v -28.8631 -15.7267 34.8378
v -28.9988 4.1579 37.7140
v -29.5969 6.8054 39.9945
v -30.2186 13.5381 27.3209
v -29.0679 -10.1102 33.9923
v -29.3975 -0.8750 36.5697
v -28.5703 9.2396 38.1140
v -29.0886 13.0839 27.3221
v -28.8686 11.1937 28.2373
v -29.6831 12.2637 32.4164
v -27.5976 -2.6996 32.1134
v -27.9956 -7.6218 33.5875
v -30.3352 -6.8048 38.3078
v -29.0641 8.5260 39.4142
v -27.8842 -15.3704 39.6418
v -29.1464 12.4457 27.3361
v -25.8057 -11.9090 34.2572
v -29.7746 11.5788 36.4937
v -28.4901 2.2702 35.4777
v -28.4586 13.7745 27.0002
v -28.2932 12.3066 26.7221
v -28.4757 7.2840 31.2977
v -28.2235 2.4854 31.2714
v -27.2862 4.7408 31.2790
v -27.8822 -3.2568 37.4385
v -28.2829 11.4212 28.3710
v -28.0667 10.5115 30.0365
v -28.8662 -3.3756 32.3848
v -27.4803 4.5208 37.0292
v -21.9663 -0.4190 31.3048
v -23.6708 -9.9421 33.9778
v -26.5941 -14.7350 34.5586
v -27.3747 0.1230 36.2931
v -31.5954 -12.4602 39.3432
v -27.7173 13.0891 27.3395
v -27.3565 10.3102 29.4280
v -27.4492 9.3932 29.8537
v -27.5500 9.6427 31.0293
v -27.4921 -6.3761 33.2513
v -27.3481 6.1995 37.6843
v -27.8198 8.9516 30.4768
v -23.3090 -10.2945 34.2312
v -27.9464 -14.8171 39.3577
v -27.3707 11.0319 28.0299
v -26.6758 10.9998 28.8125
v -30.4259 -4.4570 37.7117
v -26.1670 9.0157 31.2451
v -26.2956 8.2628 31.9324
v -27.2537 8.8198 35.0921
v -26.0806 -12.4454 34.5384
v -27.0170 7.2606 36.8018
v -26.6603 9.4385 30.3037
v -26.2341 8.4809 30.7228
v -25.3607 7.3016 31.3102
v -26.3395 -17.5870 34.8228
v -26.6683 3.1302 35.0443
v -29.6398 -2.0995 37.0627
v -24.6675 -11.2812 39.0655
v -25.2346 -1.7059 31.7724
v -24.7115 -8.7142 33.8417
v -26.0071 6.3731 35.2193
v -25.8348 10.3343 30.0971
v -25.6919 7.4495 32.4005
v -24.5852 -5.1838 32.9388
v -24.7964 7.4558 32.7951
v -25.2507 6.8860 32.3916
v -25.2586 5.8997 33.7652
v -18.3964 -7.2709 33.5179
v -24.7260 6.1288 31.3071
v -24.3383 4.8891 30.2903
v -24.5719 3.8598 31.2210
v -23.6236 1.1392 31.2412
v -24.6292 2.7792 31.3182
v -24.1765 3.7296 32.0976
v -25.7438 3.7686 34.8839
v -24.4116 2.3623 32.8255
v -28.7203 -0.5751 36.5835
v -23.4063 -3.9278 37.6238
v -24.9150 -6.5303 38.3213
v -23.6237 -9.3091 38.7768
v -23.2481 0.9529 33.4256
v -23.9354 -17.8645 34.8450
v -25.8472 -4.9160 37.8680
v -23.1751 -14.8957 39.6330
v -19.8610 -1.8285 31.8617
v -27.0399 -7.9960 38.6039
v -22.7943 -15.1451 34.8304
v -22.3843 0.8298 36.0203
v -22.0662 -19.0828 39.5867
v -24.6955 -11.9886 39.3332
v -21.0607 -1.1089 31.7086
v -21.1118 -18.2339 34.8258
v -22.2399 0.1576 33.7581
v -21.1982 -0.9186 34.0757
v -19.7670 -2.0143 37.0709
v -19.1294 -19.3538 39.6047
v -20.3801 -1.1764 36.7134
v -14.6907 -3.0129 37.4084
v -18.5668 -2.0406 32.1981
v -18.6456 0.2669 33.6879
v -19.5577 -1.8701 34.3418
v -21.7121 1.3322 35.9412
v -19.6554 -0.9828 36.7947
v -18.8172 1.9861 33.0610
v -18.5868 -1.7543 33.7264
v -18.6177 -11.7608 34.2720
v -18.3272 -12.1612 34.5394
v -18.0684 -18.5005 34.8493
v -18.1622 -1.8502 31.5570
v -18.2772 -0.8970 32.6144
v -28.1609 -10.2087 39.0442
v -15.5225 -7.8444 38.5635
v -15.7888 -6.5987 38.3878
v -14.9689 -9.8743 34.0116
v -16.5720 -15.2743 34.8432
v -17.1737 -20.0527 30.9429
v -17.8217 -6.0128 33.1807
v -16.6156 -1.9881 32.0221
v -16.8358 -0.2639 33.9194
v -16.9463 -1.7626 34.5389
v -16.7485 2.1471 35.5056
v -15.9150 -2.1723 31.5588
v -8.3763 -11.5690 34.2543
v -16.2919 -2.8671 32.2181
v -15.9599 -19.7770 28.4460
v -14.8402 -1.9532 31.7848
v -14.8453 -17.7186 31.6783
v -15.2163 -18.5661 34.8290
v -14.7653 -2.1655 34.2740
v -14.7217 -4.5841 32.7885
v -14.8295 -17.5145 34.7965
v -15.1187 -1.8476 34.5708
v -13.4735 -5.8571 33.1927
v -13.3035 -18.7886 33.8778
v -13.3573 -17.6517 31.8893
v -15.4567 -20.0547 29.6060
v -14.6899 -18.6750 31.7398
v -14.8558 -20.3958 30.8441
v -11.6000 -7.8661 31.6825
v -26.3694 -5.4575 38.1037
v -14.4861 -4.1887 31.6452
v -14.8871 -20.7870 32.5081
v -11.9125 -17.3966 34.8332
v -14.8879 -18.7420 33.6582
v -13.0583 -4.2150 35.2804
v -7.6095 -9.7243 39.0140
v -13.3863 -3.6662 31.6770
v -13.7962 -3.1948 34.9917
v -12.3966 -7.2073 33.5603
v -12.1561 -19.1473 33.6195
v -8.5956 -12.0994 34.5363
v -8.5259 -14.5262 34.5598
v -12.6841 -0.1979 36.4356
v -11.6919 -18.6306 31.5205
v -11.4861 -5.9743 31.6917
v -12.0817 -5.6786 31.5763
v -11.3076 -17.8011 34.6102
v -10.9030 -20.1242 29.3510
v -11.1861 -6.2743 31.6917
v -12.2059 -5.2470 35.5515
v -11.6002 -8.2293 33.6506
v -10.8998 -10.9665 39.0570
v -11.2222 -11.7824 39.3334
v -10.6040 -20.3938 30.4820
v -11.1810 -6.2712 31.6982
v -10.8861 -6.5661 31.6982
v -10.8861 -6.5743 31.6917
v -12.2630 -5.0347 31.8666
v -10.8861 -6.4341 31.9982
v -10.2187 -8.6527 31.5326
v -11.0661 -14.6902 39.6438
v -10.8779 -6.5743 31.6982
v -10.5861 -6.8620 31.6982
v -10.3932 -7.0403 31.6705
v -8.3477 -17.8263 32.0852
v -11.1577 -19.0046 31.7802
v -10.2147 -8.8625 33.9302
v -6.8159 -1.1505 34.3235
v -8.3849 -9.0899 33.8276
v -11.0256 -6.6081 35.9137
v -10.7959 -6.5905 32.4328
v -10.0415 -7.4815 35.8697
v -9.8264 -4.2462 35.3380
v -9.5977 -7.4614 33.6617
v -9.2568 -5.0317 37.9172
v -14.9750 -7.8872 38.7225
v -11.2456 -14.1632 39.3556
v -8.5695 -10.2303 34.2043
v -8.6026 -14.8092 34.8285
v -8.2796 -8.9231 31.9399
v -10.3623 -20.7095 31.6819
v -8.3849 -17.7396 34.7101
v -10.7296 -11.3716 39.2818
v -7.7793 -8.9049 31.5312
v -7.8543 -5.3272 35.6197
v -7.7894 -6.4398 35.8782
v -8.0965 -19.1171 33.6810
v -7.7260 -18.2140 31.5144
v -6.8599 -17.6965 31.9707
v -9.6107 -7.3492 31.7647
v -7.3791 -4.3129 37.8123
v -6.9225 -8.6456 31.8635
v -6.8363 -2.3301 37.2534
v -10.8881 -19.8238 28.1412
v -5.1417 -19.1199 33.7563
v -6.6653 -10.1137 34.0604
v -6.6531 -11.9704 34.4722
v -6.8161 -11.6035 34.1696
v -6.5124 -14.2855 34.5639
v -6.7534 -6.3786 34.5364
v -6.9427 -7.4308 35.9173
v -5.8251 -7.5431 31.5953
v -6.6047 -14.7629 34.8087
v -6.4478 -0.7751 36.7287
v -5.0505 -8.4865 32.0422
v -6.7702 -17.7569 34.6214
v -6.6867 -8.6746 33.8668
v -4.9946 -9.1146 33.9356
v -6.8504 -6.2263 38.1947
v -5.5685 -20.1378 29.2809
v -5.0734 -20.3648 30.5755
v -5.0335 -9.6473 34.9332
v 2.5248 -14.6743 39.6432
v -5.0398 -16.0192 35.2491
v -5.4534 -17.4946 34.8396
v -5.1975 -7.2548 32.2321
v -5.0477 -18.4053 31.8866
v -5.1426 -18.9911 31.8296
v -4.9219 -8.6494 33.2969
v -5.0238 -17.6547 33.1266
v -5.6106 -10.9336 34.6320
v -5.3067 -7.0915 38.4299
v -5.0025 -7.0964 29.1316
v -6.8111 -7.5718 34.4156
v -4.3918 -11.5002 34.2642
v -4.1537 -10.2306 34.2059
v -4.6762 -15.0991 34.8610
v -4.1362 -17.3513 29.1459
v -4.0792 -8.4673 31.7559
v -4.1591 -8.5243 33.1997
v -3.8309 -17.3963 29.8608
v -3.9600 -15.6738 30.0436
v -3.6683 -6.9535 30.3477
v -3.9481 -7.3231 32.1555
v -3.8685 -17.8230 33.3980
v -4.7629 -7.4293 33.6330
v -3.6259 -19.9856 30.0244
v -3.2687 -7.5698 31.4146
v -3.0111 -7.4989 34.4228
v -0.5172 -17.7100 34.8184
v -0.8267 -7.1743 34.5413
v -3.6957 -18.3398 31.2737
v 6.9226 -14.2711 34.5449
v 3.7696 -6.7834 30.3914
v 3.9413 -8.5066 32.0149
v -0.0028 -18.1140 34.0061
v -1.8861 -7.5235 34.3982
v 0.6545 -14.5243 34.6982
v -0.9861 -7.4743 34.4474
v -0.0861 -7.5235 34.3982
v -3.7316 -18.0985 32.5823
v 1.1139 -7.4743 34.4474
v 3.9283 -10.3757 34.2515
v -6.3632 -12.2943 34.5464
v 3.4217 -18.3680 31.2843
v 3.8386 -8.5920 33.7849
v 3.4236 -7.5372 33.8483
v 3.3156 -15.0297 30.3461
v 3.7554 -20.0353 30.0240
v -0.1259 -11.3743 39.2847
v 3.9408 -18.1518 31.8162
v 3.7402 -7.3778 31.7841
v 4.7598 -9.1331 33.9649
v 5.0707 -11.6641 34.3177
v 4.9137 -15.8316 35.0134
v 0.3311 -11.6743 39.3432
v 3.4600 -10.9243 39.0824
v 6.9009 -11.7342 34.3353
g L1
f 2 10 11
f 11 6 2
f 11 5 6
f 11 12 5
f 7 3 1
f 12 3 7
f 12 8 3
f 8 1 3
f 12 6 5
f 6 11 2
f 8 7 1
f 12 7 8
f 12 11 16
f 17 8 12
f 4 26 19
f 11 10 2
f 16 15 10
f 16 10 11
f 11 6 12
f 16 11 9
f 16 9 21
f 16 11 12
f 17 12 8
f 19 26 25
f 14 19 25
f 25 20 14
f 21 15 16
f 18 23 13
f 26 23 25
f 25 23 18
f 25 18 36
f 20 25 36
f 32 35 22
f 22 35 33
f 33 35 34
f 34 35 36
f 41 23 26
f 44 26 37
f 44 41 26
f 35 38 36
f 35 47 38
f 47 29 38
f 38 29 30
f 32 31 50
f 35 31 33
f 50 40 41
f 34 35 33
f 50 41 32
f 31 35 42
f 41 42 32
f 32 42 35
f 58 24 41
f 35 34 45
f 41 44 42
f 35 43 47
f 42 44 47
f 43 35 45
f 44 46 27
f 44 28 47
f 47 28 29
f 42 50 31
f 40 58 41
f 57 58 64
f 51 50 42
f 51 42 47
f 43 51 47
f 45 66 43
f 52 51 43
f 54 39 60
f 53 60 39
f 71 48 54
f 56 50 51
f 51 52 56
f 66 70 43
f 53 68 62
f 53 62 60
f 60 61 54
f 60 62 61
f 68 69 62
f 55 56 63
f 63 64 58
f 70 52 43
f 68 59 69
f 54 61 71
f 59 67 69
f 61 62 82
f 62 69 82
f 69 73 82
f 76 63 56
f 64 63 76
f 76 65 64
f 76 75 65
f 88 52 70
f 78 70 66
f 77 78 66
f 61 82 71
f 81 49 71
f 67 79 72
f 67 72 69
f 73 69 72
f 75 76 87
f 52 76 56
f 87 76 52
f 65 75 94
f 96 65 94
f 86 70 78
f 80 70 86
f 67 90 79
f 90 91 79
f 82 81 71
f 93 79 91
f 93 72 79
f 83 82 73
f 72 100 73
f 73 100 83
f 74 94 75
f 84 87 52
f 88 84 52
f 85 88 70
f 80 85 70
f 77 105 78
f 105 86 78
f 99 80 86
f 83 118 82
f 75 87 74
f 84 88 89
f 80 97 85
f 77 98 105
f 77 101 103
f 103 98 77
f 109 80 99
f 115 91 90
f 110 91 115
f 91 110 93
f 82 92 81
f 118 92 82
f 127 72 93
f 72 127 100
f 100 120 83
f 112 87 84
f 85 102 88
f 74 87 95
f 102 89 88
f 105 99 86
f 100 127 142
f 119 83 120
f 100 142 120
f 116 95 87
f 85 97 102
f 104 84 114
f 89 114 84
f 80 106 97
f 98 107 105
f 131 98 103
f 98 131 107
f 90 117 115
f 108 99 105
f 110 149 93
f 118 111 92
f 83 119 118
f 149 127 93
f 84 104 112
f 102 97 123
f 123 89 102
f 113 104 114
f 123 114 89
f 90 122 117
f 109 99 134
f 115 164 110
f 112 128 87
f 112 154 128
f 116 87 128
f 130 104 113
f 97 106 123
f 109 106 80
f 114 124 113
f 123 124 114
f 107 108 105
f 156 115 117
f 145 125 115
f 164 115 125
f 118 119 141
f 104 154 112
f 107 131 132
f 136 130 113
f 137 108 107
f 145 115 156
f 99 140 134
f 139 99 108
f 141 150 118
f 128 129 116
f 122 151 117
f 146 130 136
f 124 136 113
f 147 146 136
f 107 133 137
f 133 138 137
f 110 164 149
f 141 119 160
f 154 104 130
f 121 132 131
f 107 135 133
f 135 143 133
f 109 152 106
f 134 152 109
f 139 108 137
f 139 140 99
f 171 127 149
f 171 142 127
f 160 119 120
f 120 142 180
f 146 161 130
f 123 106 144
f 144 124 123
f 147 136 170
f 124 170 136
f 138 143 159
f 139 148 140
f 149 126 171
f 160 120 180
f 130 161 154
f 155 156 117
f 152 144 106
f 134 189 152
f 153 147 170
f 144 176 124
f 159 169 138
f 124 176 170
f 191 134 140
f 149 164 126
f 150 141 179
f 129 128 166
f 155 129 166
f 161 146 157
f 137 138 168
f 147 158 146
f 162 125 145
f 148 163 140
f 148 139 183
f 165 126 164
f 160 179 141
f 180 142 171
f 128 154 166
f 155 166 172
f 167 145 156
f 168 138 169
f 158 147 153
f 191 189 134
f 137 183 139
f 125 162 201
f 125 201 164
f 173 166 154
f 173 154 161
f 157 175 161
f 157 146 158
f 204 162 145
f 163 191 140
f 164 201 165
f 203 160 180
f 159 178 169
f 170 176 198
f 163 148 184
f 126 165 214
f 126 214 171
f 160 177 179
f 160 203 177
f 161 175 173
f 194 145 167
f 204 145 194
f 189 144 152
f 178 168 169
f 183 137 168
f 199 178 159
f 184 148 183
f 181 172 166
f 181 166 173
f 188 174 187
f 182 174 195
f 208 175 157
f 162 204 196
f 170 219 153
f 178 199 197
f 219 170 198
f 163 206 191
f 200 184 183
f 177 192 179
f 177 203 185
f 186 172 181
f 175 208 173
f 218 176 144
f 200 183 168
f 197 190 178
f 191 215 189
f 196 216 162
f 162 216 201
f 202 165 201
f 202 214 165
f 214 193 171
f 171 193 180
f 231 196 204
f 189 215 218
f 190 168 178
f 210 158 153
f 205 153 219
f 176 211 198
f 173 234 181
f 208 234 173
f 189 218 144
f 157 158 209
f 205 210 153
f 206 215 191
f 184 200 213
f 216 202 201
f 222 186 181
f 157 209 208
f 190 200 168
f 197 199 217
f 218 211 176
f 206 163 184
f 180 193 203
f 193 237 203
f 237 236 203
f 234 226 181
f 207 204 194
f 231 204 207
f 223 190 197
f 190 223 224
f 200 190 224
f 219 198 212
f 212 198 211
f 213 200 224
f 203 236 185
f 232 223 197
f 209 158 210
f 196 227 216
f 216 238 202
f 220 206 228
f 228 206 184
f 177 185 233
f 221 193 214
f 181 226 222
f 206 220 215
f 184 213 228
f 202 229 214
f 229 221 214
f 245 193 221
f 237 193 245
f 196 231 227
f 235 218 215
f 238 229 202
f 224 223 242
f 243 209 210
f 205 243 210
f 220 266 215
f 233 185 236
f 247 231 207
f 252 234 208
f 209 252 208
f 213 224 244
f 251 221 229
f 222 226 230
f 234 255 226
f 253 205 219
f 235 211 218
f 242 244 224
f 227 248 216
f 253 219 212
f 213 244 228
f 231 247 261
f 232 260 223
f 227 231 241
f 266 235 215
f 243 205 253
f 216 248 238
f 237 254 236
f 246 225 230
f 230 225 222
f 226 255 230
f 252 255 234
f 239 212 211
f 248 240 238
f 244 220 228
f 254 233 236
f 237 245 254
f 259 260 232
f 241 231 261
f 244 242 256
f 250 233 254
f 242 263 256
f 274 253 212
f 249 220 244
f 221 289 245
f 289 267 245
f 230 280 246
f 261 247 258
f 262 242 223
f 262 263 242
f 241 294 227
f 294 248 227
f 220 249 266
f 240 229 238
f 255 280 230
f 255 268 280
f 260 262 223
f 243 276 209
f 274 212 239
f 240 251 229
f 267 254 245
f 253 276 243
f 265 211 235
f 265 239 211
f 250 254 279
f 269 221 251
f 252 268 255
f 266 265 235
f 294 272 248
f 244 256 273
f 279 278 250
f 286 264 259
f 276 252 209
f 271 256 263
f 249 288 266
f 269 289 221
f 267 279 254
f 268 283 280
f 261 258 282
f 262 270 263
f 264 262 260
f 264 260 259
f 282 241 261
f 277 253 274
f 273 249 244
f 272 240 248
f 240 300 251
f 300 269 251
f 252 284 268
f 286 287 264
f 277 276 253
f 273 256 271
f 273 288 249
f 301 274 239
f 289 291 267
f 268 284 283
f 270 271 263
f 282 258 281
f 271 270 293
f 284 252 276
f 265 266 288
f 299 277 274
f 298 240 272
f 264 270 262
f 282 294 241
f 271 288 273
f 301 305 274
f 298 300 240
f 278 279 302
f 302 279 316
f 289 303 291
f 291 314 267
f 264 295 270
f 294 313 272
f 332 285 275
f 267 314 316
f 292 290 257
f 292 257 280
f 304 284 276
f 277 304 276
f 288 297 265
f 297 239 265
f 297 306 239
f 301 239 306
f 267 316 279
f 292 280 283
f 282 281 324
f 294 282 328
f 313 298 272
f 305 299 274
f 269 300 303
f 283 284 308
f 287 295 264
f 296 287 286
f 328 313 294
f 288 271 326
f 303 289 269
f 318 282 324
f 293 270 307
f 315 296 286
f 271 293 311
f 304 308 284
f 298 320 300
f 320 303 300
f 303 340 291
f 283 312 292
f 312 283 308
f 318 328 282
f 311 326 271
f 302 316 331
f 288 326 297
f 321 332 275
f 340 322 291
f 322 314 291
f 307 311 293
f 306 319 301
f 320 334 303
f 295 307 270
f 315 327 296
f 328 338 313
f 339 304 277
f 339 277 299
f 329 305 301
f 331 316 317
f 306 297 319
f 329 301 319
f 332 309 285
f 323 290 292
f 341 307 295
f 296 325 287
f 308 346 312
f 333 308 304
f 305 329 364
f 297 326 319
f 367 340 303
f 316 314 317
f 312 323 292
f 325 295 287
f 336 327 315
f 344 304 339
f 329 343 364
f 313 338 298
f 305 339 299
f 319 349 329
f 320 356 334
f 312 335 323
f 352 324 310
f 318 324 352
f 325 341 295
f 336 375 327
f 333 346 308
f 337 364 343
f 328 355 338
f 344 333 304
f 298 338 330
f 320 298 330
f 377 309 332
f 340 368 322
f 368 383 322
f 314 322 383
f 323 351 290
f 385 352 310
f 346 335 312
f 326 311 359
f 328 318 355
f 396 332 321
f 334 367 303
f 317 314 350
f 346 353 335
f 319 326 363
f 330 356 320
f 331 317 350
f 323 369 351
f 323 335 369
f 307 374 311
f 342 362 333
f 333 344 342
f 347 342 344
f 318 352 355
f 326 359 363
f 376 305 364
f 349 319 363
f 348 339 305
f 350 345 331
f 396 377 332
f 356 367 334
f 367 368 340
f 383 350 314
f 311 374 359
f 296 439 325
f 392 346 333
f 362 392 333
f 355 381 338
f 365 344 339
f 338 381 330
f 329 349 343
f 377 372 309
f 335 353 369
f 347 354 342
f 370 357 343
f 371 339 348
f 382 356 330
f 352 385 373
f 327 439 296
f 375 361 327
f 376 337 391
f 358 347 344
f 349 370 343
f 395 305 376
f 370 349 363
f 330 381 382
f 395 348 305
f 341 374 307
f 380 353 346
f 357 337 343
f 359 390 363
f 364 337 376
f 371 365 339
f 403 374 341
f 325 360 341
f 354 411 342
f 439 360 325
f 411 362 342
f 357 391 337
f 394 375 336
f 373 355 352
f 347 358 354
f 348 395 371
f 377 446 372
f 372 446 366
f 446 438 366
f 368 397 383
f 379 351 369
f 374 390 359
f 421 381 355
f 365 358 344
f 382 422 356
f 356 422 367
f 422 441 367
f 442 368 367
f 442 397 368
f 379 378 351
f 373 385 408
f 392 380 346
f 421 355 373
f 390 370 363
f 395 376 391
f 404 396 321
f 396 423 377
f 369 353 379
f 399 390 388
f 402 389 384
f 384 389 386
f 399 387 390
f 388 390 374
f 393 357 387
f 389 391 393
f 393 391 357
f 387 357 390
f 361 439 327
f 392 362 411
f 354 358 402
f 402 358 395
f 402 395 389
f 389 395 391
f 357 370 390
f 358 365 395
f 395 365 371
f 413 423 396
f 350 405 400
f 350 383 405
f 398 384 386
f 398 406 384
f 401 399 388
f 386 415 398
f 388 374 401
f 389 415 386
f 384 406 402
f 399 410 387
f 393 415 389
f 410 393 387
f 360 403 341
f 426 375 394
f 404 413 396
f 423 446 377
f 397 405 383
f 353 380 379
f 432 408 385
f 375 461 361
f 394 434 426
f 381 435 382
f 448 405 397
f 401 407 399
f 407 410 399
f 374 409 401
f 416 415 393
f 403 409 374
f 424 402 406
f 410 416 393
f 424 411 354
f 424 354 402
f 412 392 411
f 427 380 392
f 456 434 394
f 373 408 421
f 412 427 392
f 405 437 400
f 415 406 398
f 414 407 401
f 414 401 409
f 410 407 414
f 417 415 416
f 424 455 411
f 416 410 414
f 418 416 414
f 420 416 418
f 461 419 361
f 381 421 435
f 397 442 459
f 452 408 432
f 424 406 417
f 417 406 415
f 454 412 411
f 417 416 425
f 425 416 420
f 417 425 433
f 431 455 424
f 440 455 431
f 428 425 420
f 428 420 429
f 420 418 429
f 424 417 436
f 440 430 455
f 436 417 433
f 431 424 436
f 418 414 409
f 419 439 361
f 426 461 375
f 443 431 436
f 458 413 404
f 382 464 422
f 464 441 422
f 441 442 367
f 379 449 378
f 380 453 379
f 451 409 403
f 427 453 380
f 408 452 421
f 429 463 428
f 501 464 382
f 423 487 446
f 379 450 449
f 418 409 465
f 465 429 418
f 435 421 469
f 445 440 431
f 435 501 382
f 437 405 473
f 487 438 446
f 441 478 442
f 448 473 405
f 439 444 360
f 457 462 425
f 462 433 425
f 428 457 425
f 482 434 456
f 469 421 452
f 465 463 429
f 428 467 457
f 428 463 467
f 475 413 458
f 486 423 413
f 423 486 487
f 487 547 438
f 379 453 450
f 451 465 409
f 444 403 360
f 485 412 454
f 500 443 436
f 475 486 413
f 459 548 397
f 548 448 397
f 466 454 411
f 466 411 455
f 427 412 485
f 455 430 466
f 430 440 445
f 431 472 445
f 506 431 443
f 473 468 437
f 479 432 460
f 483 465 451
f 492 444 439
f 484 485 454
f 510 463 465
f 466 430 474
f 445 474 430
f 500 436 433
f 547 488 438
f 478 459 442
f 548 473 448
f 453 481 450
f 479 452 432
f 490 492 439
f 419 490 439
f 435 469 477
f 506 472 431
f 403 480 451
f 481 453 427
f 493 419 461
f 471 517 458
f 517 475 458
f 481 476 450
f 452 479 516
f 499 481 427
f 491 426 434
f 485 499 427
f 457 467 462
f 500 433 462
f 477 501 435
f 488 542 447
f 450 489 449
f 480 483 451
f 495 454 466
f 510 528 463
f 474 495 466
f 469 452 516
f 482 491 434
f 500 462 467
f 450 476 489
f 470 479 460
f 494 476 481
f 444 480 403
f 491 461 426
f 467 463 528
f 513 482 456
f 516 477 469
f 542 523 447
f 528 500 467
f 445 504 474
f 472 530 445
f 464 507 441
f 478 496 459
f 496 548 459
f 492 502 444
f 499 485 484
f 474 504 495
f 516 539 477
f 530 504 445
f 443 500 534
f 534 506 443
f 521 468 473
f 547 595 488
f 548 497 473
f 480 498 483
f 465 483 510
f 454 503 484
f 493 490 419
f 503 499 484
f 561 493 461
f 491 561 461
f 528 534 500
f 517 505 475
f 473 497 521
f 507 478 441
f 575 496 478
f 509 489 476
f 498 510 483
f 503 454 495
f 499 494 481
f 521 497 508
f 505 486 475
f 486 558 487
f 501 507 464
f 595 542 488
f 444 511 480
f 539 501 477
f 541 507 501
f 509 518 489
f 525 479 470
f 494 509 476
f 519 499 503
f 539 541 501
f 522 472 506
f 505 558 486
f 558 547 487
f 470 512 525
f 516 479 525
f 494 499 529
f 515 520 491
f 538 534 528
f 595 600 542
f 507 575 478
f 498 527 510
f 502 537 444
f 490 502 492
f 519 529 499
f 573 515 482
f 555 539 516
f 534 522 506
f 494 532 509
f 527 498 526
f 537 511 444
f 514 503 495
f 510 527 528
f 495 504 514
f 516 525 555
f 508 531 521
f 531 508 497
f 543 524 518
f 532 551 509
f 529 532 494
f 540 504 530
f 522 540 472
f 542 688 523
f 524 543 536
f 509 550 518
f 560 525 512
f 560 555 525
f 527 538 528
f 520 561 491
f 504 533 514
f 540 533 504
f 540 530 472
f 688 535 523
f 544 560 512
f 550 509 551
f 545 526 498
f 519 554 529
f 534 538 574
f 539 567 541
f 496 621 548
f 632 498 480
f 632 564 498
f 480 511 632
f 502 565 537
f 553 519 503
f 554 519 553
f 529 554 532
f 562 573 513
f 556 539 555
f 621 497 548
f 575 606 496
f 518 550 543
f 551 532 552
f 564 545 498
f 572 553 503
f 572 503 514
f 617 490 493
f 555 560 589
f 514 533 572
f 527 591 538
f 556 567 539
f 600 688 542
f 557 575 507
f 497 621 559
f 606 621 496
f 552 550 551
f 532 571 552
f 545 570 526
f 632 511 537
f 554 571 532
f 566 502 490
f 571 554 553
f 561 617 493
f 605 522 534
f 567 557 541
f 531 497 559
f 558 594 547
f 541 557 507
f 536 563 549
f 563 536 569
f 569 536 543
f 584 544 578
f 584 560 544
f 617 566 490
f 556 555 589
f 533 579 572
f 538 591 574
f 568 533 540
f 534 574 605
f 567 580 557
f 688 596 535
f 550 569 543
f 569 550 552
f 572 571 553
f 527 526 591
f 641 573 562
f 567 556 580
f 582 540 522
f 531 559 581
f 594 595 547
f 613 575 557
f 576 601 577
f 585 552 571
f 560 584 589
f 565 610 537
f 566 565 502
f 598 609 589
f 582 568 540
f 583 582 522
f 605 583 522
f 581 559 636
f 580 630 557
f 613 606 575
f 559 621 607
f 615 549 563
f 587 601 576
f 601 578 577
f 578 601 602
f 578 602 584
f 585 571 603
f 590 572 579
f 515 611 520
f 592 556 589
f 579 533 568
f 619 558 546
f 630 613 557
f 615 587 549
f 569 552 597
f 597 552 585
f 588 570 545
f 603 571 590
f 589 584 598
f 572 590 571
f 641 562 599
f 568 604 579
f 592 580 556
f 612 580 592
f 564 588 545
f 640 632 537
f 589 609 592
f 700 618 593
f 630 580 612
f 607 636 559
f 614 586 587
f 615 614 587
f 623 601 587
f 598 584 639
f 610 640 537
f 568 582 604
f 558 619 594
f 563 569 597
f 601 623 602
f 608 597 585
f 584 602 639
f 585 603 608
f 653 570 588
f 526 570 646
f 590 579 604
f 620 611 515
f 620 515 573
f 633 574 591
f 605 574 633
f 636 629 581
f 667 619 546
f 613 621 606
f 632 665 564
f 646 591 526
f 652 609 598
f 616 590 604
f 617 561 520
f 583 605 635
f 623 587 622
f 624 563 597
f 597 608 624
f 639 602 658
f 598 639 652
f 682 665 632
f 590 625 603
f 616 625 590
f 609 647 592
f 635 605 633
f 615 563 624
f 608 603 625
f 570 653 677
f 646 633 591
f 664 609 652
f 664 647 609
f 659 617 520
f 611 659 520
f 604 627 616
f 647 672 592
f 627 604 628
f 582 628 604
f 628 582 583
f 628 583 635
f 672 612 592
f 765 595 594
f 612 668 630
f 668 613 630
f 657 607 621
f 614 615 638
f 658 602 623
f 652 639 651
f 625 645 608
f 677 646 570
f 641 620 573
f 765 600 595
f 613 657 621
f 644 638 615
f 624 644 615
f 639 658 651
f 713 588 564
f 665 713 564
f 565 693 610
f 655 641 599
f 672 647 654
f 633 634 635
f 794 667 618
f 657 613 668
f 631 649 637
f 645 695 608
f 666 565 566
f 633 646 634
f 648 627 628
f 626 655 599
f 648 628 635
f 656 629 636
f 607 656 636
f 658 623 674
f 651 658 662
f 625 616 645
f 661 668 612
f 607 657 656
f 642 643 662
f 643 670 662
f 664 652 681
f 676 645 616
f 718 640 610
f 654 647 664
f 686 620 641
f 656 673 629
f 612 672 661
f 675 643 650
f 674 662 658
f 691 663 624
f 624 608 691
f 695 691 608
f 681 652 651
f 676 616 627
f 666 693 565
f 617 666 566
f 620 671 611
f 676 695 645
f 640 682 632
f 664 692 654
f 693 718 610
f 648 635 634
f 655 686 641
f 634 646 677
f 664 681 692
f 627 648 676
f 648 634 678
f 714 666 617
f 659 714 617
f 703 672 654
f 683 657 694
f 657 683 656
f 681 651 689
f 676 648 678
f 678 634 677
f 656 683 673
f 672 703 661
f 737 794 618
f 657 668 694
f 740 594 619
f 713 653 588
f 713 684 653
f 702 654 692
f 661 703 705
f 661 705 668
f 668 705 694
f 667 740 619
f 690 680 698
f 703 654 702
f 671 620 704
f 686 704 620
f 683 710 673
f 731 751 660
f 765 712 600
f 681 701 692
f 696 659 611
f 734 594 740
f 676 708 695
f 794 733 667
f 699 690 706
f 716 701 681
f 695 707 691
f 708 707 695
f 726 678 677
f 653 726 677
f 692 701 702
f 722 693 666
f 703 715 705
f 717 703 702
f 717 715 703
f 705 715 694
f 678 725 676
f 685 714 659
f 710 683 729
f 694 715 729
f 694 729 683
f 715 717 721
f 715 721 729
f 741 686 655
f 733 740 667
f 712 744 600
f 708 676 725
f 727 725 678
f 726 727 678
f 702 719 717
f 720 717 719
f 717 720 721
f 723 708 725
f 714 722 666
f 736 655 709
f 724 723 725
f 728 725 727
f 727 730 728
f 730 727 726
f 771 718 693
f 696 685 659
f 736 741 655
f 734 765 594
f 744 738 697
f 726 735 730
f 687 757 731
f 746 741 736
f 757 751 731
f 738 743 669
f 684 726 653
f 745 684 713
f 713 665 739
f 685 831 714
f 751 749 711
f 766 734 740
f 747 735 726
f 722 771 693
f 745 726 684
f 745 713 739
f 726 745 747
f 671 696 611
f 778 739 665
f 704 760 671
f 686 761 704
f 752 679 749
f 748 747 745
f 735 758 730
f 815 722 714
f 671 760 696
f 733 766 740
f 746 762 741
f 742 807 687
f 739 748 745
f 800 765 734
f 755 748 739
f 747 754 735
f 806 761 686
f 825 750 738
f 665 682 778
f 778 682 640
f 755 739 753
f 768 831 685
f 761 760 704
f 762 769 741
f 775 756 673
f 839 794 737
f 766 840 734
f 748 754 747
f 755 754 748
f 778 753 739
f 718 784 640
f 825 738 841
f 759 755 753
f 831 815 714
f 686 741 806
f 840 800 734
f 771 784 718
f 685 696 768
f 752 732 679
f 763 764 753
f 782 769 762
f 767 766 733
f 817 841 744
f 792 770 790
f 640 784 778
f 794 767 733
f 760 761 777
f 778 776 772
f 780 774 772
f 795 776 778
f 782 785 769
f 855 839 732
f 780 772 776
f 771 787 784
f 722 787 771
f 786 774 780
f 760 777 696
f 784 795 778
f 815 803 722
f 833 831 768
f 857 752 749
f 816 817 712
f 781 798 791
f 781 785 798
f 783 786 780
f 798 785 782
f 873 767 794
f 767 840 766
f 801 780 776
f 800 816 765
f 780 801 783
f 784 787 795
f 803 787 722
f 802 786 783
f 797 769 785
f 798 808 791
f 802 783 801
f 789 785 781
f 804 788 798
f 842 768 696
f 793 795 787
f 798 788 808
f 886 840 767
f 812 792 790
f 801 776 795
f 787 803 793
f 797 785 789
f 805 777 761
f 769 806 741
f 812 790 779
f 799 802 822
f 774 832 773
f 807 868 757
f 868 749 757
f 818 792 812
f 808 781 791
f 802 801 822
f 822 814 799
f 810 801 795
f 810 822 801
f 808 789 781
f 845 796 792
f 811 797 789
f 806 805 761
f 843 806 769
f 797 843 769
f 858 812 779
f 824 795 793
f 824 810 795
f 808 788 830
f 803 815 793
f 804 830 788
f 818 845 792
f 822 810 809
f 829 811 789
f 814 822 835
f 822 809 819
f 809 813 819
f 809 810 813
f 815 824 793
f 774 786 832
f 777 842 696
f 799 837 802
f 814 837 799
f 819 813 820
f 813 821 820
f 813 810 821
f 824 821 810
f 819 820 823
f 819 823 822
f 822 823 835
f 836 814 835
f 834 814 836
f 817 816 847
f 826 820 821
f 826 821 827
f 821 828 827
f 821 824 828
f 808 829 789
f 835 823 826
f 826 823 820
f 826 827 835
f 815 831 824
f 804 851 830
f 833 768 842
f 752 855 732
f 839 873 794
f 882 808 830
f 828 835 827
f 836 835 838
f 849 814 834
f 828 824 854
f 835 828 854
f 835 854 838
f 874 812 858
f 831 844 824
f 829 846 811
f 846 797 811
f 875 818 812
f 824 866 854
f 831 833 844
f 846 843 797
f 844 848 824
f 829 808 852
f 882 852 808
f 865 836 838
f 865 850 834
f 836 865 834
f 875 845 818
f 844 833 829
f 880 838 854
f 833 777 829
f 829 777 846
f 833 842 777
f 777 805 806
f 777 806 846
f 846 806 843
f 852 848 844
f 852 844 829
f 865 838 888
f 825 841 877
f 851 882 830
f 848 866 824
f 852 856 848
f 852 853 856
f 880 854 866
f 900 838 880
f 862 856 853
f 862 871 856
f 860 871 862
f 862 853 870
f 863 861 862
f 867 862 870
f 864 865 888
f 924 930 847
f 856 866 848
f 882 881 852
f 851 859 882
f 918 861 863
f 863 862 867
f 879 867 870
f 869 866 856
f 852 881 853
f 881 884 853
f 884 870 853
f 871 883 856
f 856 883 869
f 872 871 860
f 885 872 860
f 885 860 862
f 900 888 838
f 872 885 876
f 863 907 918
f 891 867 878
f 867 879 878
f 869 880 866
f 881 882 875
f 880 869 887
f 882 859 875
f 899 870 884
f 862 861 889
f 889 885 862
f 899 904 870
f 889 876 885
f 871 894 883
f 872 876 890
f 890 876 889
f 879 870 904
f 892 895 896
f 893 902 898
f 906 915 899
f 901 896 895
f 900 903 888
f 903 905 888
f 904 891 879
f 899 915 904
f 931 816 800
f 911 903 900
f 861 928 889
f 894 909 893
f 904 915 910
f 913 905 903
f 903 911 913
f 912 863 867
f 891 912 867
f 901 923 896
f 871 920 894
f 872 927 871
f 918 932 861
f 914 911 900
f 913 911 914
f 912 907 863
f 919 915 906
f 921 900 898
f 925 910 915
f 921 914 900
f 913 914 916
f 929 912 891
f 917 872 890
f 926 921 898
f 894 920 909
f 908 897 922
f 924 816 931
