# LeftGrip.obj
# Valve Steam Controller (2015) CAD, CC BY-NC-SA 4.0
v -77.4639 3.9207 -18.4071
v -77.4838 7.0745 -19.3135
v -77.3900 8.4344 -19.9291
v -77.4645 4.9419 -18.1691
v -77.4355 5.3978 -17.8656
v -77.2097 5.6630 -16.7743
v -77.0592 2.6904 -16.3756
v -77.2002 8.2470 -18.7349
v -77.0443 7.3963 -19.3413
v -77.1609 6.3843 -17.6697
v -76.9382 6.9382 -17.0717
v -77.1744 4.1098 -16.2477
v -76.8729 1.4097 -15.6633
v -77.0875 2.5462 -14.9042
v -76.6998 3.3109 -15.2904
v -77.1353 6.0658 -19.5484
v -76.7889 8.3174 -20.7006
v -76.8102 4.4568 -18.0009
v -76.6787 8.4930 -18.6897
v -76.7090 8.7062 -16.8903
v -76.7877 1.5942 -16.6209
v -76.8237 5.0229 -17.4102
v -76.8887 7.0224 -16.0890
v -76.8543 7.5319 -17.0151
v -76.6389 6.2304 -14.1740
v -76.4008 6.7288 -15.8757
v -76.8898 4.6900 -15.0720
v -76.7578 5.1281 -14.7225
v -76.9040 2.4962 -13.8240
v -76.5321 2.9424 -13.6794
v -76.4897 12.7869 -20.4730
v -76.4004 5.5871 -20.3502
v -76.4927 7.2224 -18.3540
v -76.1288 3.1874 -18.6977
v -76.4760 11.9342 -19.0086
v -76.4664 10.8321 -19.2755
v -76.8670 10.3667 -19.1252
v -76.4597 8.6920 -15.8151
v -76.5533 9.7775 -17.0150
v -76.5328 6.7466 -17.0148
v -76.4868 1.4199 -15.0389
v -76.2910 8.7091 -14.7200
v -76.1680 8.8709 -15.9507
v -76.4057 7.4197 -15.1599
v -76.5540 4.4601 -13.5447
v -76.3146 7.1416 -13.3862
v -76.2244 2.8558 -12.2029
v -76.3309 6.7874 -14.0505
v -76.5987 2.1705 -12.3686
v -76.2075 4.5389 -20.4214
v -76.0378 7.4056 -21.0127
v -76.0559 12.2816 -20.4058
v -76.2183 13.2742 -19.2831
v -76.2164 7.3927 -16.9204
v -76.0717 7.0586 -19.6330
v -76.2913 11.4342 -17.1556
v -76.1166 12.7269 -17.8053
v -75.9694 10.3068 -16.1309
v -76.0260 8.6655 -13.9551
v -76.2557 3.6053 -14.6836
v -76.0472 8.0386 -12.4948
v -76.0904 6.1469 -14.2103
v -75.8580 8.1372 -13.9913
v -76.2244 3.0140 -13.4715
v -75.9152 0.8613 -11.7057
v -75.9402 5.2776 -12.2879
v -76.2058 5.3018 -12.0592
v -76.3181 3.3686 -11.4397
v -75.6788 6.6415 -21.1318
v -75.8883 6.9542 -20.4110
v -75.7649 5.9619 -21.2990
v -75.8683 4.8277 -18.9698
v -75.7763 12.8394 -19.6086
v -75.6805 2.9778 -19.2799
v -75.9036 2.6838 -17.9196
v -75.7536 13.3445 -17.8437
v -75.7250 6.7397 -18.9534
v -75.8623 11.6816 -17.1276
v -75.7782 7.9353 -18.8734
v -75.8540 13.3410 -17.2185
v -75.8151 3.2424 -17.1831
v -75.9015 7.4586 -15.5597
v -76.2263 7.5155 -16.2534
v -75.7949 3.8126 -16.2843
v -75.9147 8.2296 -15.1865
v -75.7074 10.1797 -12.9682
v -75.9365 8.5590 -13.4153
v -75.8815 3.2373 -13.0949
v -75.7322 8.2751 -12.1130
v -75.9708 4.9991 -10.9402
v -75.9377 3.5121 -11.1962
v -75.6779 4.4550 -10.1777
v -75.6230 8.2514 -19.8385
v -75.4018 12.4583 -21.5224
v -75.3632 7.0936 -20.2625
v -75.5524 4.6284 -19.1765
v -75.4773 8.9092 -18.2655
v -75.3988 5.5976 -18.9267
v -75.4938 2.9679 -18.0821
v -75.5501 4.7715 -17.4501
v -75.5936 8.0270 -14.5686
v -75.5710 14.2149 -17.0200
v -75.4108 2.9827 -17.4992
v -75.3218 14.4513 -17.6838
v -75.6398 13.1035 -16.4697
v -75.2226 7.6334 -17.2894
v -75.3362 7.1914 -17.6249
v -75.3366 6.3409 -16.1933
v -75.4663 1.2408 -16.5029
v -75.2434 13.3303 -15.7668
v -75.5552 12.2660 -14.7679
v -75.4097 3.1575 -15.1798
v -75.5746 11.8358 -17.2399
v -75.5651 11.6765 -14.7989
v -75.3471 12.1150 -13.5655
v -75.6022 8.2101 -13.8329
v -75.9211 3.8626 -12.4249
v -75.4619 9.4460 -13.6785
v -75.2774 9.8898 -12.5995
v -75.6054 4.6643 -11.6330
v -75.5891 2.9980 -11.5515
v -75.4271 8.9637 -10.5922
v -75.5762 8.3729 -11.1843
v -75.5981 7.9311 -11.5055
v -75.5585 6.9243 -11.7403
v -75.7147 5.2950 -9.4799
v -75.3012 5.9710 -9.8927
v -75.4380 4.8313 -8.8384
v -75.4335 14.2689 -20.0243
v -74.8475 11.8971 -21.6862
v -75.3045 8.5663 -18.6475
v -75.0927 9.2826 -20.7978
v -75.0655 13.4192 -21.1550
v -75.1272 7.2287 -18.5338
v -75.2000 6.6271 -18.6814
v -75.1836 13.9550 -18.2271
v -75.3290 10.6780 -15.4208
v -75.3089 4.2383 -17.3509
v -75.1428 3.4212 -16.1979
v -75.0842 11.1940 -14.7444
v -75.0973 1.7204 -16.1763
v -75.5513 -0.1476 -15.8992
v -75.1118 0.6969 -15.3855
v -75.3339 13.8427 -15.1118
v -75.4794 -0.4273 -14.5810
v -75.0453 -0.4201 -14.0953
v -75.0145 2.9752 -13.9922
v -75.2209 12.2109 -13.9492
v -75.2915 6.7676 -12.3253
v -75.1808 3.0010 -13.1050
v -75.3806 11.0859 -12.4695
v -75.4352 2.2577 -10.1323
v -75.1395 8.9644 -10.8282
v -75.2187 7.4313 -9.5704
v -74.8923 5.4715 -8.2562
v -75.2019 6.9185 -9.0055
v -74.8834 12.3632 -20.8807
v -75.0525 9.7781 -18.3420
v -75.0327 8.0856 -18.7230
v -74.7784 9.0817 -18.8067
v -74.8106 11.8608 -18.0554
v -74.4289 8.3242 -18.0378
v -74.9919 10.5490 -17.9988
v -75.2845 5.7972 -16.5817
v -75.0053 6.3809 -17.0517
v -74.4273 6.8918 -16.4762
v -74.9105 14.5363 -14.1296
v -74.8835 14.4448 -15.2072
v -74.8680 13.2561 -15.7687
v -75.1638 7.9551 -11.9943
v -74.7380 3.1158 -12.6417
v -74.7993 8.6698 -11.1539
v -74.6096 3.7038 -11.8283
v -74.6546 1.7282 -11.3865
v -75.0014 11.1868 -12.3967
v -74.9244 11.8429 -11.3836
v -75.0518 10.4039 -10.7926
v -75.0007 5.4973 -9.2688
v -75.1268 5.2112 -10.2736
v -74.9719 8.9004 -8.8137
v -75.0014 2.2752 -8.6352
v -75.0580 7.5068 -8.4255
v -74.8583 8.1136 -7.2114
v -74.9859 6.2463 -7.1827
v -74.6160 6.1365 -7.2954
v -74.7924 1.9521 -4.2302
v -74.6907 13.5333 -22.9576
v -74.6986 12.8468 -19.8743
v -74.5157 12.2597 -20.4968
v -74.6102 10.1613 -18.6180
v -74.4252 12.9927 -18.6855
v -74.3694 15.4804 -14.7365
v -74.5465 14.0986 -15.4636
v -74.9149 3.2838 -15.6177
v -74.7253 2.4122 -13.4504
v -74.8166 1.5535 -14.2560
v -74.9539 12.5991 -12.8233
v -74.4962 1.5893 -13.0459
v -74.6047 14.2708 -13.5227
v -74.7535 -0.7233 -12.7813
v -74.7065 11.4438 -10.6060
v -74.5908 3.6141 -10.7147
v -74.7095 10.1704 -8.8246
v -74.6114 8.9299 -9.3074
v -74.6905 4.2628 -8.1561
v -74.3701 10.2307 -9.0848
v -75.0312 0.2133 -7.0441
v -74.6536 9.2945 -8.1610
v -74.7181 7.7274 -7.5076
v -74.8192 5.1448 -5.4293
v -74.4495 4.8955 -5.3579
v -74.4875 2.4339 -4.1189
v -74.3221 13.8874 -21.5150
v -74.2021 13.9230 -20.1338
v -74.3228 11.6181 -18.6034
v -74.3015 15.5949 -16.7112
v -74.3582 3.2732 -13.6304
v -74.5164 1.2552 -12.0780
v -74.1838 1.8279 -11.7729
v -74.4878 11.1911 -12.1451
v -74.2657 13.5562 -13.4597
v -74.1983 6.4638 -10.8677
v -74.1080 8.6028 -8.3387
v -74.6051 8.4282 -9.7568
v -74.3253 12.3456 -9.8639
v -74.1832 2.4810 -9.4827
v -74.5226 6.5552 -8.3815
v -74.4042 10.5125 -7.9532
v -74.3969 8.8564 -8.9885
v -74.2950 8.9876 -7.0527
v -74.2744 7.9064 -7.2692
v -74.3613 9.3424 -6.6629
v -74.2163 7.4235 -5.5620
v -74.4834 6.9614 -5.5926
v -74.3568 5.0388 -3.9591
v -74.4789 3.4512 -3.6722
v -74.2420 5.3012 -3.0622
v -74.1102 3.1488 -3.1880
v -74.4867 2.2537 -3.1379
v -74.3749 0.5566 -2.1443
v -74.0157 1.0165 -2.4577
v -74.0390 13.7308 -19.7726
v -74.3053 3.4600 -15.8619
v -73.9007 4.9637 -13.1955
v -73.8579 6.1231 -12.7042
v -73.6856 16.0424 -11.0269
v -73.7403 14.9746 -11.3103
v -74.1381 13.5215 -9.7486
v -74.1741 5.8790 -11.4305
v -74.0135 3.2812 -11.0311
v -74.2356 0.4680 -10.8611
v -73.8199 7.3100 -10.6574
v -73.9056 1.8986 -10.2778
v -73.8602 6.6155 -9.9160
v -74.1241 1.0849 -9.2449
v -74.1657 -0.8584 -9.2744
v -73.5400 2.4844 -8.9891
v -74.0651 11.2532 -7.4926
v -74.0874 10.4230 -7.6710
v -74.4036 4.7649 -6.3042
v -74.0764 9.2675 -5.7414
v -73.7998 4.6007 -4.4493
v -74.1766 8.5443 -5.2931
v -73.9378 8.0701 -3.5201
v -74.0777 7.3640 -4.1620
v -74.0478 6.1454 -4.7064
v -73.9255 5.6524 -3.2984
v -74.1268 1.8899 -1.7043
v -74.1637 3.3867 -2.3787
v -73.8724 5.2176 -1.9879
v -73.7885 3.2002 -1.9812
v -73.8959 -0.2103 -0.8698
v -73.5689 14.3934 -18.5950
v -73.5611 13.0436 -17.8763
v -74.0467 11.4013 -17.9886
v -73.0698 12.4601 -18.2433
v -73.9089 5.5127 -16.7003
v -73.8857 15.2739 -14.1863
v -73.9141 2.9613 -16.2510
v -73.8657 13.9645 -12.2971
v -73.7024 13.0902 -10.5577
v -73.5810 7.0874 -12.2384
v -73.4622 14.8187 -9.9202
v -73.7181 5.1443 -10.6416
v -73.8278 2.8763 -9.7440
v -73.8771 0.3566 -10.1421
v -74.0310 13.3932 -9.9299
v -73.5336 2.2904 -8.2385
v -73.5618 10.4134 -7.4589
v -73.7260 12.4017 -7.6040
v -73.9526 8.9802 -7.5125
v -73.8363 12.4772 -7.3453
v -74.0861 6.1604 -5.8360
v -73.5948 1.9923 -7.0402
v -73.7245 11.4961 -5.6230
v -73.8605 10.3074 -5.4746
v -73.5826 9.8655 -5.0799
v -73.6140 9.1291 -3.3129
v -74.0238 1.6290 -3.5244
v -73.7904 7.2838 -4.1898
v -73.7064 7.0274 -3.0343
v -73.6155 1.7733 -2.2151
v -73.8846 3.4262 -1.1872
v -73.8704 2.1292 -0.7112
v -72.8327 9.5001 -18.7426
v -73.1813 15.1000 -15.6799
v -72.7422 3.0071 -16.5419
v -73.1216 16.0483 -15.3131
v -73.7934 3.4759 -13.3969
v -73.1597 16.6507 -11.2611
v -72.8999 3.6583 -9.3183
v -73.0655 -0.0932 -9.3220
v -73.7838 14.7528 -9.5361
v -73.1822 0.1017 -8.6939
v -73.2939 14.9532 -7.9050
v -73.5637 13.9174 -7.7262
v -73.3629 13.9152 -8.1993
v -73.6242 11.2289 -6.3536
v -73.4691 2.4215 -6.1077
v -73.3465 11.5194 -5.5126
v -73.7680 7.7016 -5.5839
v -73.3379 11.4741 -3.9342
v -73.6620 4.7580 -3.5165
v -73.4488 10.1199 -4.0669
v -73.4757 8.4968 -3.8602
v -73.3995 8.3483 -2.2559
v -73.1954 8.7160 -1.2276
v -73.5738 7.0426 -1.8824
v -73.2644 8.2473 -2.5118
v -73.5873 5.6834 -0.8878
v -73.5063 4.5936 -1.4409
v -73.6043 3.5013 -0.5358
v -73.5099 2.9223 0.6382
v -72.3157 12.6961 -18.8911
v -73.8496 7.1795 -18.3330
v -72.6759 7.0085 -17.0057
v -72.6840 6.7300 -12.4067
v -72.9540 2.9427 -12.8320
v -73.3679 14.1042 -10.4364
v -73.1290 16.0725 -12.5426
v -72.9330 14.5408 -9.3776
v -73.2212 16.2870 -9.8471
v -73.0990 16.2236 -10.0541
v -73.0931 7.0830 -10.0360
v -73.4319 5.4567 -9.7218
v -73.3375 11.2652 -7.1723
v -72.9417 15.1825 -8.2258
v -73.1895 2.3889 -7.6160
v -72.8983 -0.8384 -8.4358
v -73.0899 11.2213 -5.9599
v -73.2316 12.5898 -5.2223
v -73.2262 13.1258 -6.2353
v -73.3801 7.6650 -4.1052
v -73.0965 11.6600 -4.2709
v -73.2135 5.7319 -2.6495
v -73.0128 10.6553 -3.1868
v -73.1198 10.1802 -2.9286
v -73.1959 4.8204 -1.4061
v -73.3586 2.8646 -1.5517
v -73.2945 6.9138 -0.4564
v -73.1395 6.4154 -0.3236
v -73.1448 5.8443 -0.9635
v -73.1449 4.6488 1.0648
v -73.1099 2.9971 0.3715
v -73.1496 13.2102 -16.0344
v -72.7573 15.5644 -16.8096
v -72.6456 16.0059 -13.4071
v -72.8022 2.2703 -9.1150
v -73.0397 14.8093 -6.8214
v -72.6316 14.5167 -6.0496
v -73.0165 13.2774 -5.6438
v -72.6300 2.1758 -5.7032
v -72.6344 -1.4250 -4.8015
v -72.9833 8.4180 -3.3715
v -72.8930 5.7165 -1.4449
v -72.6653 2.3375 -3.1172
v -72.7614 2.0874 -2.2373
v -72.6517 9.1689 -0.9455
v -72.8861 8.3586 -1.3834
v -72.7353 4.3264 0.2629
v -73.0513 1.3489 0.2680
v -72.7714 1.1311 1.3828
v -72.9329 7.3612 0.2106
v -72.9927 3.6622 1.0997
v -71.6798 7.2673 -19.1844
v -72.3522 13.1064 -17.2702
v -72.5270 15.8307 -15.9056
v -72.5982 7.0630 -16.5722
v -72.3541 5.5445 -15.3257
v -72.4234 3.0459 -15.1700
v -72.7890 15.1991 -14.4019
v -72.2122 17.3563 -13.6649
v -72.6236 13.3797 -13.5654
v -72.5777 16.5480 -11.0925
v -72.3060 15.7563 -11.5310
v -72.3669 6.7674 -10.1004
v -72.2078 2.2858 -6.3949
v -73.0334 1.8773 -6.6021
v -72.8994 2.2409 -6.2324
v -72.2513 -0.7285 -5.7256
v -72.6513 -0.4918 -5.7088
v -72.7413 10.9296 -4.4504
v -72.4215 2.3863 -4.8522
v -72.3455 1.0288 -3.7385
v -72.6450 -0.1105 -3.1401
v -72.6759 -2.1809 -2.1968
v -72.7160 7.9501 -1.7698
v -72.3910 7.7511 -0.4949
v -72.3435 2.1719 -1.6773
v -72.5117 11.2913 -1.7788
v -72.4497 1.6232 -0.9339
v -72.8263 9.3869 -0.2713
v -72.3297 9.9560 -0.3921
v -72.8127 8.0913 0.4301
v -72.4902 4.3590 1.2455
v -71.9994 16.6045 -15.2210
v -72.0187 17.1188 -14.8926
v -72.4852 16.1565 -15.3170
v -72.1583 6.6402 -14.5096
v -72.3889 15.1792 -12.7450
v -71.9340 3.1843 -13.3100
v -71.8903 1.9840 -10.0851
v -72.6129 14.3873 -7.8276
v -72.4201 13.3737 -5.9344
v -72.4539 10.4395 -2.8934
v -72.1317 2.3925 -2.7999
v -72.2234 13.1406 -2.6544
v -72.2514 1.9217 -2.3770
v -72.0861 -0.5621 -2.2121
v -72.1241 -0.4715 -1.4161
v -72.0161 1.5964 -0.3731
v -72.1299 9.1780 -0.5294
v -72.1561 2.0814 0.1019
v -72.2150 8.6284 1.6131
v -72.3631 10.1441 0.7418
v -72.5267 8.2245 0.6691
v -72.3804 8.6901 1.9072
v -72.1290 9.8041 -16.7829
v -71.7120 16.2273 -13.6347
v -71.9851 13.1497 -11.0549
v -72.2031 16.1645 -14.0455
v -71.8575 7.0036 -13.4513
v -72.1999 15.4460 -14.2416
v -71.4492 7.2086 -11.9115
v -71.6738 15.0909 -9.7812
v -72.1644 13.8260 -5.3620
v -71.8360 2.5275 -4.9213
v -71.7802 1.7730 -1.4201
v -71.7738 -0.2417 -1.0457
v -71.6086 0.3040 -0.0404
v -72.0243 11.0832 0.7408
v -71.8149 1.8780 0.6901
v -72.1324 6.5640 1.2069
v -71.9903 9.7662 0.9120
v -71.8033 9.4558 1.9645
v -71.8244 13.6592 -18.4598
v -71.6040 9.8577 -14.8766
v -71.6005 16.5618 -12.2154
v -71.9019 15.4692 -11.5406
v -71.7239 15.3304 -12.1768
v -72.0963 16.5827 -9.2822
v -71.0370 7.0166 -10.0143
v -71.2029 2.2484 -9.8618
v -71.9213 15.5594 -9.8978
v -71.1348 2.6227 -1.5297
v -71.8533 9.3870 0.3797
v -71.4768 1.9463 -0.1542
v -71.5621 1.4142 0.9216
v -70.8708 9.4148 -19.3780
v -71.5460 17.6860 -14.0649
v -71.1603 13.1132 -12.8504
v -71.3147 17.3175 -13.8872
v -71.1533 9.4693 -12.3726
v -71.2039 16.0185 -11.2155
v -71.3024 15.8749 -10.1271
v -71.3675 14.8921 -8.3626
v -71.1726 2.0150 -4.1151
v -71.6662 12.3212 -1.8737
v -71.3467 9.3889 2.0192
v -71.1858 1.6607 1.2705
v -71.4978 7.7559 2.6663
v -71.6189 2.0601 1.7156
v -70.9995 7.1781 -17.5374
v -71.0416 15.3685 -9.6527
v -71.5297 13.2611 -9.0820
v -70.7775 4.7473 -8.9964
v -70.8093 15.0932 -8.3262
v -71.3656 15.6963 -7.7851
v -70.6613 2.1212 -7.8801
v -70.8511 2.1359 1.7562
v -71.1726 1.1373 2.1868
v -70.8933 1.5348 2.8487
v -70.8894 -1.2566 2.7700
v -70.8680 11.6326 -17.2736
v -70.7479 8.9003 -17.4861
v -69.8931 11.8673 -14.5810
v -70.2782 13.6644 -11.8895
v -70.6939 6.7564 -8.4123
v -70.3482 3.9953 -6.9302
v -70.4309 13.1831 -4.9597
v -70.7162 2.0752 -1.8470
v -70.6379 3.6991 1.7306
v -70.5857 1.6922 3.1104
v -70.5964 -1.0346 3.7722
v -70.8886 -0.0014 3.7331
v -70.6307 5.2163 4.2366
v -70.5234 1.6102 5.9396
v -70.7057 13.3305 -19.3259
v -70.0744 13.1103 -8.7434
v -70.5767 9.5900 -10.1963
v -70.3156 6.8572 -7.1060
v -70.2755 1.6901 -0.3621
v -70.3407 3.6628 3.5798
v -70.6547 1.7292 4.0576
v -70.3313 1.6401 4.1840
v -70.3503 6.5543 4.6522
v -70.3231 -0.8556 4.6156
v -70.3528 0.4629 5.4255
v -70.2995 3.2090 6.3003
v -70.2788 0.3052 6.9888
v -70.0474 11.7754 -17.5728
v -70.2256 9.4072 -8.5284
v -70.0142 6.4822 -5.6859
v -70.0866 2.1106 -5.3888
v -69.6444 1.8664 -3.7096
v -70.0773 2.2296 1.3927
v -70.1474 6.0990 2.3702
v -70.3076 2.7591 4.6335
v -70.0103 7.4688 4.1925
v -70.2676 5.6455 4.1307
v -70.0426 4.0998 4.3730
v -70.0007 2.7765 4.8389
v -70.0741 0.9690 5.8718
v -70.0018 0.7609 5.4216
v -69.8831 5.2049 6.5006
v -69.3927 12.8776 -19.7166
v -71.0469 13.6683 -14.9815
v -69.8795 9.2584 -6.9084
v -69.5480 7.1025 -4.5323
v -69.7408 3.3564 -4.4773
v -69.7997 6.1277 4.7932
v -69.8253 5.0861 4.7560
v -69.5053 5.7602 5.7398
v -69.7920 3.6939 5.5464
v -69.7826 8.5787 5.0865
v -69.8078 2.5510 5.9255
v -69.7957 2.1438 6.9503
v -69.8233 1.4940 6.1958
v -69.7450 4.8235 7.4544
v -69.9514 2.1886 7.6150
v -70.0112 7.1169 -19.6259
v -69.0482 11.5840 -17.8856
v -68.3623 11.8653 -8.4061
v -69.1551 9.6658 -5.3237
v -69.3614 4.6835 1.9207
v -69.5223 7.2544 4.3955
v -69.3168 5.7951 6.5875
v -69.3715 4.7411 5.8614
v -69.6645 0.8615 6.8446
v -69.2099 4.4048 6.9911
v -69.4179 1.1384 7.2553
v -69.4125 7.3234 6.9541
v -69.3603 4.6555 8.5361
v -69.3978 13.6729 -8.8504
v -68.3774 13.6976 -4.7494
v -69.3767 7.3610 2.3384
v -69.0591 9.9173 3.5444
v -69.4428 8.2519 4.7329
v -69.0886 7.5034 6.4430
v -69.1636 7.6080 5.3174
v -68.8695 5.5912 7.5067
v -69.2603 3.1687 7.3381
v -69.2490 1.4133 8.0975
v -68.1083 13.6651 -14.3811
v -69.3858 11.8068 -12.0579
v -67.9342 1.6500 -3.3328
v -68.6132 1.6503 -1.9963
v -69.3710 8.8223 3.0090
v -68.9541 4.3388 7.8979
v -68.7747 3.8682 8.9919
v -69.1353 6.1072 8.6242
v -68.3462 7.3018 -20.0342
v -68.1761 11.6298 -12.6303
v -68.2958 6.9514 -5.3722
v -69.1311 4.1269 -4.5463
v -68.4861 0.3257 -0.4533
v -68.4862 0.3257 -0.4018
v -68.4861 0.3255 -0.4018
v -68.5299 0.4505 -0.2378
v -68.4861 0.3213 -0.1018
v -68.5803 1.5963 0.4867
v -68.5565 7.6526 6.9690
v -68.5620 5.7165 8.0547
v -68.7353 6.1807 8.1427
v -68.4945 3.5823 9.0636
v -68.5399 9.9507 -19.7998
v -67.2880 13.0732 -20.0484
v -68.2508 11.6841 -14.2933
v -68.4234 0.2922 -2.0696
v -68.2241 1.9432 -1.4717
v -68.4547 0.2973 -1.0372
v -68.4814 0.3257 -0.7018
v -68.3249 1.6340 -0.3368
v -68.4888 0.4021 0.1673
v -68.2717 13.5017 2.0344
v -68.3658 11.4962 4.0564
v -68.3112 7.0383 8.1846
v -68.7510 7.3414 -17.9633
v -67.2503 10.7345 -6.1598
v -67.8786 17.1486 -1.7685
v -67.9261 11.0399 0.4821
v -67.2483 2.4408 1.1285
v -67.9864 11.3810 1.8282
v -68.3211 10.9225 3.0885
v -68.8830 1.7675 2.3138
v -67.9579 13.6445 -19.6358
v -68.5330 13.5926 -13.2108
v -67.1385 4.5554 -5.6524
v -68.0044 1.7739 -5.0379
v -67.5201 9.7727 -2.6862
v -68.2787 0.5219 -1.6739
v -67.8160 10.6555 -2.2014
v -67.6211 4.9442 -2.0173
v -67.5986 0.6941 -1.8328
v -67.6140 2.5050 -1.7012
v -67.8571 11.0616 -1.7606
v -67.6231 5.5477 0.3596
v -67.6779 0.4757 0.7808
v -67.5085 5.6392 0.9953
v -67.5738 4.4856 3.5536
v -66.8666 13.6659 -12.2853
v -67.7153 11.8460 -6.1544
v -67.4779 5.0992 -2.7301
v -67.3779 16.5591 -2.2927
v -67.7317 2.2431 -2.3646
v -66.6761 9.9460 -2.8756
v -66.9485 6.1217 -2.5694
v -67.4645 11.5905 -0.1825
v -67.0035 2.7816 0.1244
v -67.4549 5.2491 -0.6143
v -67.8078 11.1326 0.0528
v -67.6182 10.3942 0.4128
v -67.6054 2.3103 -0.0887
v -66.8881 5.5863 1.1685
v -67.0195 10.2302 1.4194
v -67.6340 12.8038 4.7645
v -62.7655 7.2773 -20.0219
v -67.2955 11.7809 -18.1712
v -66.9237 1.6415 -3.8330
v -67.2266 17.4749 -3.0783
v -66.6627 0.3251 -3.7433
v -66.9515 5.9841 -2.8375
v -66.5565 15.8400 -3.0721
v -67.2391 1.2477 -2.4975
v -66.8494 17.6176 -2.3957
v -67.3843 11.2730 -1.6035
v -67.2222 5.2006 -1.6028
v -67.2142 2.5723 -1.3515
v -68.0091 9.1902 3.1854
v -66.1766 11.8438 -12.2789
v -67.0729 7.0349 -5.9299
v -66.7890 1.8121 -5.5937
v -66.5731 7.3685 -3.1521
v -66.9278 3.0031 -2.8164
v -65.3684 0.5817 -3.2658
v -66.6379 5.2256 -2.3401
v -66.6523 5.7780 0.6075
v -67.0874 5.5217 0.5083
v -66.5662 7.6931 1.3000
v -66.5829 2.4566 1.0512
v -66.6037 10.5905 1.2553
v -66.9508 7.4695 4.0617
v -68.0028 7.1666 -18.2837
v -66.1761 11.8471 -14.7875
v -66.3682 2.0740 -3.3862
v -66.4983 9.9770 -2.5557
v -66.3708 10.5149 0.9320
v -66.3678 14.2471 1.3737
v -67.1139 0.2655 1.8720
v -66.8339 1.6339 2.0994
v -67.4853 10.9318 2.9657
v -66.8491 1.7851 3.8416
v -65.3910 7.9973 -6.1800
v -65.4016 3.6945 -5.8740
v -66.0862 13.5256 -3.7018
v -66.0861 13.5255 -3.7018
v -66.0861 13.8257 -3.6519
v -66.0861 13.5257 -3.7016
v -66.2702 0.4740 1.7468
v -65.3511 13.4439 1.4810
v -66.1914 1.9379 1.7459
v -66.4361 12.2890 2.4148
v -65.5661 2.9409 4.0702
v -66.4856 4.5490 4.4362
v -66.1538 13.9155 -3.7239
v -65.7861 13.5257 -3.7060
v -65.7861 13.5176 -3.7018
v -64.9915 1.7227 -4.1367
v -65.2946 14.0592 -3.6199
v -66.4979 0.7285 -3.5259
v -66.2182 13.2646 -3.0345
v -65.4449 7.2489 5.3337
v -63.7841 11.7608 -18.1625
v -65.4861 13.5257 -3.7125
v -64.8271 1.9025 -3.3985
v -66.0528 14.5765 -2.7951
v -65.6596 6.5738 -2.7493
v -65.7125 2.4982 0.9076
v -64.9502 13.4845 1.0493
v -65.6730 7.1944 1.0436
v -65.6339 1.9500 2.2396
v -65.6699 9.3981 5.0865
v -65.1129 14.6254 -3.9626
v -65.0698 13.2264 -3.0618
v -65.8907 2.7828 -2.7044
v -64.8409 8.1354 0.9254
v -64.7091 14.3375 1.3343
v -64.3893 0.3340 1.9414
v -66.9330 15.0622 2.3274
v -65.0972 4.5282 5.4841
v -65.0720 -0.0713 -6.0968
v -65.0542 0.1297 -3.8156
v -65.0017 0.1171 -2.5360
v -64.8067 1.8183 1.7316
v -64.2930 1.4612 2.0806
v -63.8319 11.7927 5.2407
v -63.8632 10.5236 6.1946
v -66.1800 13.6546 -13.9396
v -63.1852 11.8602 -6.4926
v -64.2253 10.8267 -6.1965
v -64.8746 13.3893 -3.7580
v -65.0968 7.1778 -3.0808
v -64.5534 17.5710 -3.0753
v -64.0250 15.5807 -2.6241
v -64.4843 6.9735 -2.8225
v -64.7689 13.1665 -2.6355
v -64.9366 7.6690 -2.7340
v -64.3836 2.7961 -2.7368
v -64.7700 7.7823 1.3887
v -64.4723 0.5161 1.7381
v -64.2151 6.1672 -5.8697
v -64.1906 12.8104 -3.1469
v -63.9890 12.6879 -2.3923
v -64.5179 15.8816 -2.6060
v -64.4314 2.7409 -2.2374
v -64.4137 2.8225 1.0564
v -64.1931 12.5106 1.4222
v -63.0145 1.5831 1.0695
v -63.6093 7.1509 -18.2609
v -64.3968 2.0069 -5.5981
v -64.5054 14.9062 -4.0225
v -64.7307 0.7244 -3.6427
v -63.8507 2.7639 -1.1390
v -64.2350 2.8159 0.4118
v -63.8095 6.6309 -0.1827
v -63.7129 12.6038 -0.2514
v -64.3464 6.9322 1.0327
v -63.9499 15.6494 1.3481
v -64.1722 13.4542 2.3022
v -64.7143 4.3800 4.2914
v -64.2355 8.6349 6.3961
v -67.3887 13.7259 -4.0315
v -62.9580 11.5963 -5.9072
v -63.9549 1.4821 -3.6941
v -64.0689 16.7598 -3.4788
v -63.9780 0.3745 -3.5468
v -64.1423 6.9421 -3.0333
v -62.8419 0.2913 -2.2235
v -63.7099 5.4025 -2.0768
v -63.8792 6.3177 -1.6340
v -63.7544 12.3042 -1.5037
v -63.5556 15.8056 -0.8570
v -63.8602 7.2096 1.1119
v -62.9241 13.8366 1.8209
v -64.4659 1.7271 3.8255
v -63.9841 13.3240 -20.0022
v -63.1882 11.8681 -17.1133
v -63.1989 7.9657 -5.6283
v -63.3184 1.7118 -4.9459
v -63.7256 0.4469 -2.6870
v -63.8944 2.7579 -2.8161
v -63.3571 14.8244 -1.9014
v -63.6655 2.4993 -1.9762
v -63.4730 10.6326 -1.4860
v -63.4127 11.0158 -0.0208
v -63.4774 6.3034 0.0841
v -63.6349 15.4800 0.3880
v -63.6834 5.3868 0.3898
v -63.6582 2.6037 0.2944
v -63.6783 2.2180 1.0758
v -62.9278 0.2832 0.7026
v -63.2560 14.1285 3.3306
v -62.9252 2.2657 3.3555
v -63.5841 5.7474 4.2928
v -63.7667 6.0175 6.8512
v -63.0666 14.5211 -22.0760
v -62.5676 9.1724 -19.8058
v -62.9312 7.3079 -5.7989
v -62.7147 7.0817 -5.3224
v -62.3992 4.3811 -4.7983
v -63.3299 14.2199 -2.2720
v -63.4095 5.7865 -2.2893
v -63.4011 5.9163 -1.7065
v -62.8335 0.7351 -1.6999
v -63.0973 1.9328 -2.2546
v -63.3500 5.9656 0.3815
v -63.4212 12.7989 0.0964
v -63.3332 13.2143 0.5497
v -63.0565 1.9391 0.0827
v -63.4964 12.8198 4.2134
v -62.6016 16.9169 -21.5244
v -62.8050 14.5619 -20.0788
v -62.9243 7.3255 -17.4340
v -62.6713 7.0943 -17.9461
v -62.9364 10.9006 -17.0663
v -63.4543 13.7327 -3.7825
v -62.8750 14.4942 -0.2203
v -62.9344 0.6520 0.0229
v -62.9458 11.3265 4.1378
v -62.9886 9.3247 4.0947
v -63.5861 8.2354 4.2623
v -62.7861 18.9446 -20.8687
v -62.8061 19.0287 -19.3281
v -62.7941 16.0903 -19.5119
v -62.4925 15.7715 -19.3397
v -62.5018 14.3338 -19.1960
v -62.3909 2.2644 -4.6763
v -62.7846 14.2877 -1.5699
v -62.6753 1.5536 -1.8382
v -62.5464 1.6170 -0.4246
v -62.5948 14.6049 0.0812
v -62.4497 13.7619 0.3675
v -62.3429 8.3749 5.3045
v -63.0708 4.5381 7.2221
v -62.3578 14.8861 -21.5598
v -62.1439 14.5390 -21.2361
v -62.4622 19.4213 -18.9971
v -62.4853 17.7967 -17.3317
v -62.1373 21.6500 -16.7982
v -62.1287 17.7328 -17.1580
v -62.3622 14.3898 -17.4708
v -62.1948 18.4910 -16.5354
v -62.1861 16.8257 -15.7018
v -62.1861 16.8257 -15.7046
v -62.1861 16.5257 -15.7059
v -62.1861 16.5252 -15.7022
v -62.1899 16.8257 -15.4018
v -62.1873 16.5054 -15.3959
v -62.1861 16.5482 -15.3658
v -61.2548 7.1248 -19.2710
v -62.4190 13.8481 -2.0048
v -62.6510 0.5214 -0.8579
v -62.6954 6.4739 3.4817
v -62.8818 12.0831 4.5728
v -62.8567 6.4847 7.2405
v -61.9435 15.3985 -20.7837
v -61.9063 14.5353 -20.3682
v -61.8640 14.3639 -18.2261
v -62.1186 14.9993 -19.2861
v -62.1861 16.8267 -15.7025
v -62.1861 16.5257 -15.7018
v -62.1850 16.9105 -15.3935
v -62.1799 16.5257 -15.4018
v -61.8720 15.0915 -14.7439
v -61.8861 18.6257 -13.3018
v -61.8861 18.6257 -13.3044
v -61.8861 18.3257 -13.3044
v -61.8861 18.3253 -13.3022
v -61.8899 18.6257 -13.0018
v -61.8873 18.3055 -12.9959
v -61.8861 18.3481 -12.9660
v -61.5651 9.4007 2.9279
v -61.8028 5.1145 6.0222
v -61.8352 13.2740 -19.6419
v -61.8963 17.0593 -19.0831
v -61.1919 9.1249 -18.8763
v -61.9045 18.5445 -19.1950
v -61.5889 17.6378 -18.9475
v -61.5770 14.8681 -18.1102
v -62.1190 14.9116 -16.8692
v -62.0689 14.3629 -15.5227
v -61.8562 14.4714 -13.3470
v -61.8861 18.6266 -13.3026
v -61.8861 18.3257 -13.3018
v -61.8850 18.7105 -12.9936
v -61.8800 18.3257 -13.0018
v -61.6048 14.4257 -13.0018
v -61.5861 14.4101 -13.0018
v -61.5911 14.4257 -12.7018
v -61.5861 14.4205 -12.7018
v -61.5900 14.4257 -12.4018
v -61.5861 14.4216 -12.4018
v -61.5888 14.4257 -12.1018
v -61.5861 14.4228 -12.1018
v -61.5863 14.4257 -11.8018
v -61.5861 14.4255 -11.8018
v -61.5861 14.4744 -11.5018
v -61.5861 14.4257 -11.7928
v -61.4587 7.0179 -4.1539
v -61.1301 4.6169 -3.2529
v -62.6304 10.5667 7.1912
v -61.0031 10.5275 8.5488
v -61.4233 11.4752 -15.4010
v -61.4254 14.5477 -16.4025
v -61.4867 13.6668 -18.7940
v -61.6065 18.6570 -17.0859
v -61.6026 16.7083 -17.0232
v -61.2918 18.4462 -16.8173
v -61.3057 16.2644 -16.5188
v -61.3256 15.2170 -14.6576
v -61.5963 13.6583 -12.3297
v -61.5827 15.1597 -12.6041
v -61.1378 14.3659 -13.1443
v -61.5908 14.7885 -11.3877
v -61.2861 14.3782 -11.5018
v -61.2897 14.4257 -10.6018
v -60.6602 14.3592 -10.2916
v -61.2897 14.4257 -10.3018
v -61.2861 14.4220 -10.3018
v -61.2705 15.0532 -10.3811
v -61.2888 14.4257 -10.0018
v -61.2861 14.4229 -10.0018
v -61.2863 14.4257 -9.7018
v -61.2861 14.4255 -9.7018
v -61.2861 14.4329 -9.4018
v -61.2861 14.4257 -9.6445
v -61.6197 13.6549 -2.7131
v -61.0159 1.7762 -2.5012
v -61.2170 13.6182 1.2237
v -61.9896 13.5924 2.6855
v -61.9171 11.3534 2.9981
v -61.7826 4.3700 7.0424
v -61.4650 6.5464 8.2628
v -61.1419 10.8491 -15.5128
v -61.2677 14.3875 -13.9758
v -60.9799 14.7826 -14.0746
v -60.9861 14.4336 -13.6018
v -60.9861 14.4257 -13.3225
v -60.9861 14.4256 -13.3018
v -61.1454 13.1142 -11.4451
v -60.9876 17.0320 -12.5072
v -61.0615 15.0733 -12.4388
v -61.1599 14.3950 -11.3762
v -60.6936 14.4585 -11.8961
v -61.2954 14.7473 -8.9281
v -61.1501 13.3418 -2.7759
v -61.1435 1.8078 1.2177
v -60.9125 4.2686 1.2624
v -61.5845 7.5382 2.8310
v -60.5285 9.4016 3.7833
v -60.9241 11.3064 5.8091
v -59.7131 12.0092 7.1325
v -62.0510 12.1803 6.0395
v -60.7229 8.3063 6.6923
v -60.9860 14.4257 -13.3018
v -60.9835 14.4257 -13.0018
v -60.3149 14.3655 -9.0329
v -61.1421 7.2180 -5.4148
v -60.8435 13.3515 -1.6925
v -61.1115 8.9248 -3.1654
v -60.5750 6.9135 -2.4609
v -60.5755 3.0569 -0.7585
v -60.5963 8.4373 0.8972
v -60.8394 13.0361 1.1349
v -60.8175 4.5997 0.8192
v -60.7685 12.0274 7.5914
v -60.1019 5.2179 7.4078
v -60.7835 9.2652 9.0765
v -61.1973 6.0299 9.0636
v -60.7188 16.3487 -10.2993
v -60.4012 15.2536 -9.8906
v -60.9531 14.3699 -9.2413
v -60.6101 11.1147 -1.0941
v -60.4730 11.2576 1.3325
v -59.2749 5.1050 4.1905
v -61.7961 4.5899 2.6851
v -59.6777 13.6467 4.2560
v -60.4032 4.5947 9.3408
v -60.2341 7.5136 1.4262
v -59.8827 11.4972 4.3817
v -60.3100 11.4903 5.1993
v -59.5542 4.3488 9.1205
v -58.6030 13.4734 2.7505
v -59.1702 4.5838 2.2781
v -59.1080 4.3779 3.8972
v -59.3243 12.0484 8.7633
v -58.6399 4.4665 10.8014
v -58.9325 11.4553 2.4775
v -59.7756 13.4227 5.5603
v -60.6249 9.4440 6.0445
v -57.9944 9.4427 8.2420
v -58.7627 7.8846 2.4403
v -59.1274 11.7649 6.4287
v -58.7193 5.1026 8.6146
v -59.2802 9.4691 4.2683
v -57.9419 8.1018 9.0592
v -58.7510 9.0551 10.9118
v -57.8525 4.5333 9.3562
v -58.5240 6.2413 11.0872
v -58.2856 10.2762 4.6007
v -58.5555 13.5721 6.3852
v -57.5218 4.5172 2.5810
v -59.1032 12.9502 7.4561
v -58.0933 11.2593 10.4913
v -56.8261 9.5342 6.5755
v -57.5485 8.3082 2.6227
v -57.2097 10.4300 7.9328
v -57.8362 10.1900 11.1838
v -57.5662 4.5571 11.0446
v -56.7914 11.1601 2.7166
v -57.3718 8.1626 4.3858
v -56.2038 10.5611 6.3025
v -56.6156 12.0045 10.7195
v -57.2167 7.4070 11.0975
v -57.3050 13.6190 3.0441
v -57.1019 9.4638 8.9683
v -56.2147 4.6626 8.7786
v -55.8989 4.4394 10.5235
v -55.5842 13.1176 2.4328
v -55.2139 4.5122 2.3890
v -56.5447 13.6546 7.6102
v -57.0025 12.9899 9.2697
v -56.3621 10.2700 4.3725
v -55.0682 10.1397 10.2418
v -55.6445 7.0138 2.4238
v -55.9664 10.6466 8.4524
v -54.3468 9.3318 2.1543
v -54.6466 8.6016 4.3003
v -55.0571 9.1313 6.2126
v -55.2760 7.9382 8.4063
v -54.6419 10.7382 2.5434
v -55.5564 4.8364 4.2050
v -54.9227 13.6100 3.2579
v -54.5185 11.3243 3.4813
v -54.4687 13.6198 6.3796
v -54.0246 8.5747 7.8439
v -55.2625 13.0065 10.1684
v -53.9544 4.6335 9.9026
v -53.1388 4.4529 2.1505
v -54.5605 8.3305 3.9715
v -53.9465 12.8453 8.5903
v -53.8903 4.5389 8.0336
v -54.3928 11.4064 4.9211
v -53.8910 11.1558 7.0450
v -54.1724 13.4914 9.6792
v -52.5455 8.2318 3.7526
v -52.7192 8.2774 7.4745
v -53.0546 10.4299 9.0785
v -53.3821 4.5629 3.8299
v -53.1492 10.3823 5.7077
v -53.4755 10.3263 2.8743
v -52.5088 4.6557 1.8637
v -53.8122 10.0113 9.8534
v -52.6544 6.3645 9.3806
v -52.0129 9.5777 1.8923
v -51.6352 4.6208 7.2980
v -50.2381 8.5551 6.2707
v -51.1968 10.3670 7.7851
v -51.3168 9.4823 8.8975
v -51.1512 7.9197 6.9428
v -50.5173 8.2562 3.5330
v -50.8702 4.5000 8.8277
v -50.1427 9.9043 1.8441
v -50.8951 4.7700 3.4778
v -49.7709 9.4070 1.5626
v -50.5235 4.7428 1.6431
v -49.6663 9.6636 8.3177
v -49.9899 4.5109 2.7705
v -49.2177 8.0693 6.3075
v -49.4080 4.5826 8.3206
v -48.4059 5.4260 6.0822
v -49.6752 4.8660 6.6015
v -49.4868 4.5013 7.0443
v -48.7122 4.8424 3.1644
v -47.0750 8.1441 5.6093
v -47.7966 9.6269 1.3644
v -48.5087 4.9131 1.4270
v -46.6113 4.9642 1.2636
v -48.3251 10.3670 2.3987
v -48.3788 7.9966 3.1899
v -48.3764 9.9648 7.6904
v -46.1298 9.7653 7.0201
v -47.9534 8.4329 7.7758
v -48.0378 4.8985 7.8075
v -47.9763 8.5595 3.5568
v -46.5106 4.9475 2.7875
v -46.8743 4.7735 5.6605
v -46.1204 7.9980 2.8823
v -46.2982 4.9357 7.2320
v -45.9400 5.3067 0.9611
v -45.8090 5.1555 5.2541
v -44.7702 8.0905 4.8142
v -46.0585 8.1034 7.1391
v -43.9602 5.0717 4.6741
v -44.6538 10.8063 0.4410
v -44.9460 10.8248 1.2880
v -45.7810 9.7373 1.1229
v -45.3017 10.7906 1.7683
v -44.1092 8.2639 2.6601
v -44.3850 5.0994 -10.6199
v -44.2330 3.3257 -14.8018
v -44.2330 3.3257 -12.5518
v -44.1861 4.5209 -13.0018
v -44.1861 4.5209 -12.7018
v -44.1861 3.0305 -12.7018
v -44.1861 4.5209 -12.4018
v -44.1861 3.0305 -12.4018
v -44.2330 4.2257 -13.1518
v -44.1861 4.5209 -12.1018
v -44.1861 3.0305 -12.1018
v -44.1861 4.5209 -11.8018
v -44.1861 3.0305 -11.8018
v -44.1861 4.5209 -11.5018
v -44.1861 3.0305 -11.5018
v -44.2204 3.0919 -10.2673
v -44.1861 3.0305 -11.2018
v -44.2266 4.3889 -11.2652
v -44.1858 4.5252 -11.1801
v -44.2000 3.7620 -10.0532
v -44.3660 5.2015 -8.3086
v -44.1132 9.6048 0.8379
v -44.3503 10.4258 1.8587
v -43.8937 9.5432 6.3369
v -44.0489 7.8318 6.4604
v -44.6363 5.2080 6.6990
v -44.1813 4.5257 -13.0018
v -44.1390 4.1387 -16.2953
v -44.1813 4.5257 -12.7018
v -44.1813 4.5257 -12.4018
v -43.8810 4.3533 -10.1542
v -44.1813 4.5257 -12.1018
v -44.1813 3.0257 -12.1018
v -44.1217 3.4179 -9.9478
v -44.1813 4.5257 -11.8018
v -44.1813 3.0257 -11.8018
v -44.1813 4.5257 -11.5018
v -44.1813 3.0257 -11.5018
v -44.1835 4.5257 -11.2018
v -44.1813 3.0257 -11.2018
v -44.1813 3.0257 -10.9018
v -44.4954 7.9320 -9.4713
v -43.4458 10.1667 -9.8227
v -43.6993 7.9790 -10.3892
v -44.0592 3.0059 -9.6465
v -43.6196 4.0680 -9.2826
v -44.3221 9.6309 -9.2136
v -44.0022 4.6151 -9.0088
v -43.8861 3.0305 -8.2018
v -43.8861 3.0305 -7.9018
v -44.2060 7.6358 -7.9671
v -43.8861 3.0305 -7.6018
v -43.8861 3.0305 -7.3018
v -43.8127 5.1883 -6.7354
v -43.8861 3.0305 -7.0018
v -43.8170 4.5221 -5.4614
v -43.8861 3.0305 -6.7018
v -43.9130 3.0731 -5.6358
v -44.5295 5.1091 0.9403
v -43.4606 11.1143 1.6867
v -43.4474 11.2696 2.4380
v -42.8654 8.3944 2.5177
v -45.9233 8.5510 4.8377
v -43.4736 3.3993 -15.7715
v -43.8782 4.5600 -10.9434
v -43.9046 9.7505 -7.2604
v -43.8928 4.0098 -5.6798
v -43.8335 2.9953 -8.7063
v -43.8813 3.0257 -7.9018
v -43.8813 3.0257 -7.6018
v -43.8813 3.0257 -7.3018
v -43.8813 3.0257 -7.0018
v -43.8813 3.0257 -6.7018
v -41.4135 2.9910 -8.9617
v -43.8813 3.0257 -6.4018
v -43.6024 4.2581 -6.9569
v -43.8497 3.7518 -5.0958
v -43.2333 3.0779 -2.5346
v -43.4410 3.4171 -10.2481
v -43.4877 9.7854 -5.7641
v -43.4424 4.8520 -5.6114
v -43.6263 2.9754 -5.3208
v -43.2135 5.2749 -3.7483
v -43.6216 3.3338 -2.5931
v -43.0767 4.4599 -2.7555
v -43.3816 4.5372 -2.2046
v -43.3475 3.0860 -0.7078
v -43.1528 6.1278 -0.3003
v -42.9029 5.0759 6.0781
v -43.1775 4.2870 -5.0161
v -43.1822 3.3711 -5.9536
v -43.0665 9.5074 -0.3816
v -43.0185 4.3119 -1.2266
v -43.1521 5.0404 0.0166
v -43.0958 10.4848 1.4348
v -44.1560 5.3460 2.6180
v -42.3526 4.2691 -10.6095
v -43.2973 6.7675 -10.7400
v -43.9906 4.7939 -10.3940
v -42.1971 10.4110 -4.7060
v -43.1701 9.7326 -4.2204
v -43.0991 3.8002 -3.5256
v -42.9743 4.7567 -4.0307
v -42.6683 4.0627 -0.0986
v -42.8504 4.7572 -0.0565
v -41.2756 10.7360 1.9465
v -43.6140 4.1435 -10.3711
v -42.1500 4.2913 -8.9219
v -42.6398 4.6635 -9.0190
v -42.5414 10.0876 -1.1651
v -42.7198 3.3618 -1.8545
v -42.1952 3.0030 0.4020
v -42.7046 12.7196 1.4774
v -42.1757 5.0432 1.6056
v -44.6620 10.3751 5.6215
v -42.8778 8.2685 4.1571
v -42.1051 4.5655 -10.9682
v -43.5294 3.1035 -9.8316
v -42.2768 7.2054 -8.4034
v -42.7228 10.4103 -7.1688
v -42.2989 4.6685 -6.9802
v -42.2434 4.2347 -6.4101
v -41.7974 5.3326 -5.9859
v -43.4299 3.1469 -5.4276
v -41.6424 4.2102 -0.4198
v -43.3569 4.5521 -13.5051
v -41.7861 4.5348 -12.1018
v -41.7861 4.5348 -11.8018
v -41.7832 4.5333 -11.7169
v -42.1728 3.2876 -9.0281
v -41.3068 7.3375 -8.3400
v -41.4050 4.3306 -2.1491
v -41.5842 3.3622 -0.3040
v -42.0679 10.4737 3.2861
v -42.0879 5.2425 3.9987
v -41.4033 4.0888 -13.3492
v -41.8543 4.6305 -10.3972
v -41.7381 4.5838 -4.5290
v -41.5897 7.4255 -5.8469
v -41.3562 6.1101 -4.1428
v -41.7020 10.3758 -1.4151
v -41.6018 4.8148 -3.0138
v -41.7258 4.6138 0.6163
v -41.3069 4.4527 0.3421
v -41.6002 11.5332 0.1347
v -41.8818 7.9605 1.5066
v -39.9733 7.0223 2.2746
v -41.6587 8.0141 3.7362
v -40.2912 5.0684 3.4719
v -41.1142 7.6505 -5.0375
v -40.8254 3.1665 0.4754
v -41.3433 5.4986 0.3489
v -42.6437 3.1014 -0.6900
v -41.3179 7.4785 0.3594
v -41.3659 10.1477 1.3817
v -41.0380 10.1118 3.7376
v -41.7929 9.8412 5.5600
v -42.2425 4.2663 -14.7717
v -40.6665 4.2158 -10.0653
v -41.3610 8.6830 -10.3034
v -42.0101 9.9498 -9.3754
v -41.3361 4.7169 -9.4301
v -41.2763 3.0255 0.7040
v -40.6718 7.6516 0.6566
v -40.1854 6.3675 -10.6870
v -40.2909 6.4577 -8.6859
v -40.4297 9.6234 -5.4158
v -39.3912 3.2363 -6.1665
v -40.9223 6.8140 -6.0854
v -39.9234 10.3951 0.5061
v -41.6646 7.2991 5.6467
v -40.3556 4.5292 -12.0623
v -40.1301 5.0024 -10.7345
v -40.5603 3.9619 -9.1114
v -39.7302 4.8496 -9.1882
v -39.4707 4.4612 0.8814
v -39.7763 3.7834 1.0491
v -40.2969 6.8101 0.7832
v -40.0152 4.5343 1.2437
v -40.3094 4.1549 0.2620
v -40.7954 5.0678 5.3326
v -40.3851 4.5803 -7.7644
v -39.7338 6.6871 -6.5554
v -40.2219 7.3252 -2.7022
v -40.6641 9.9798 0.9671
v -39.2189 3.0015 1.5530
v -38.4908 5.0171 2.9357
v -40.0040 9.4893 4.1063
v -39.7210 11.0454 -11.0456
v -39.6565 7.2406 -10.7917
v -38.2718 4.3117 -5.2191
v -39.6009 6.7487 -4.8554
v -39.2036 6.6437 0.1734
v -40.0745 10.3320 3.5063
v -39.3222 2.9973 -8.8177
v -39.6968 9.2433 -4.1955
v -39.4433 11.5948 -1.5942
v -37.9870 4.5817 1.3513
v -39.8874 8.7363 4.9449
v -38.8528 5.7028 -8.0149
v -39.3784 8.9582 -5.7507
v -38.9414 9.0540 -2.3897
v -38.5952 8.5575 -1.5952
v -38.7010 8.6822 1.1929
v -39.4026 3.3941 0.5490
v -39.2618 9.8656 4.0647
v -39.0919 8.6377 4.5310
v -37.7729 4.7057 -10.9980
v -38.3888 4.5398 -6.7715
v -38.4874 4.6751 -8.1811
v -38.9118 3.0036 -5.8526
v -38.4298 10.1803 -2.2246
v -37.7383 7.8361 4.2288
v -39.3340 5.8221 4.8740
v -38.5858 4.2049 -6.0190
v -38.6960 6.0607 2.6663
v -38.7696 9.5603 3.9596
v -38.2973 11.8261 5.0148
v -38.0737 5.0707 -10.2990
v -39.4742 8.5650 -7.5675
v -37.5519 3.3804 -7.6549
v -38.6552 2.9708 -6.5956
v -37.8294 3.3364 -5.8016
v -37.9874 5.6484 -4.0511
v -37.8108 9.9629 -0.6332
v -38.1350 4.1396 1.2942
v -38.0163 5.8001 -1.6115
v -37.5778 4.7211 2.2395
v -37.9246 4.2524 1.7602
v -38.1511 11.9130 4.6994
v -37.4759 4.2421 -8.5857
v -37.9092 4.5742 -4.3262
v -22.0460 3.0015 -3.2332
v -37.7641 8.7677 -1.4303
v -38.9007 3.3516 -2.3675
v -37.5100 3.3571 1.2995
v -36.4723 4.8644 2.6776
v -37.5601 8.4028 4.4992
v -38.0633 8.9201 4.6594
v -37.4928 7.8514 5.3193
v -37.9503 7.0476 -9.7915
v -37.6141 4.2609 -10.5322
v -37.5645 7.5915 -5.8382
v -37.1797 4.6981 -8.0813
v -36.3384 4.4774 -8.5210
v -36.9786 3.2629 -8.4867
v -36.7481 5.2520 -7.9651
v -37.2306 3.3257 -5.8336
v -36.6833 3.7317 2.5735
v -37.3572 3.0072 2.3500
v -36.3884 4.3160 -10.7767
v -37.4564 3.3482 -8.7418
v -36.9463 2.9696 -8.2018
v -36.8013 6.7126 -7.6784
v -37.2839 4.0746 -7.3769
v -36.8286 3.3376 -5.8019
v -36.5716 7.3285 -2.7173
v -36.5625 8.1783 -2.8736
v -36.4548 4.0868 2.7681
v -37.4431 5.1071 4.2106
v -36.6615 6.8179 3.4711
v -36.3603 6.7738 4.5851
v -37.0642 3.3326 -8.4946
v -36.3861 3.0257 -7.8923
v -38.3543 3.5401 -7.0579
v -36.3861 3.0167 -6.4018
v -36.3220 6.4575 -5.7176
v -35.3361 2.9699 -6.1018
v -36.5801 4.1312 -5.5213
v -36.8170 7.7433 -5.0589
v -36.5668 4.7458 -2.8782
v -36.5280 7.2955 2.4546
v -36.1098 8.4132 1.9777
v -36.6614 7.8554 5.4518
v -35.8265 3.3289 -8.4697
v -36.0861 3.0167 -7.9018
v -36.0861 3.0257 -7.8923
v -37.0914 4.7443 -6.5087
v -35.9361 3.0257 -6.4114
v -36.0861 3.0167 -6.4018
v -37.9844 3.2387 -5.8013
v -36.4827 4.7860 -5.5270
v -36.7414 7.2689 -5.4984
v -36.0903 6.6106 -3.2157
v -36.1219 4.7649 -2.0505
v -36.4219 4.6784 1.5401
v -36.7450 4.1250 1.9798
v -38.1656 3.1553 1.4724
v -35.9973 5.2027 1.5695
v -35.7861 3.0167 -7.9018
v -35.7861 3.0257 -7.8923
v -36.2013 4.4357 -6.2723
v -35.7861 3.0167 -6.4018
v -36.6523 3.3257 -5.8344
v -35.9328 3.3377 -5.8018
v -35.9957 5.3128 -3.4040
v -36.0550 4.1665 -1.3416
v -35.9884 6.3879 1.4001
v -35.5853 4.1101 2.4425
v -35.3378 6.8781 2.8906
v -35.9887 4.4959 3.2455
v -35.4861 3.0167 -7.9018
v -35.4861 3.0257 -7.8923
v -35.4861 3.0257 -6.4114
v -35.4861 3.0167 -6.4018
v -34.4992 4.1732 -3.3923
v -35.4864 4.5257 0.4982
v -35.4861 4.5258 0.4982
v -35.4861 4.5257 0.4973
v -35.4861 4.5251 0.4982
v -35.4863 4.5257 0.7982
v -35.4861 4.5258 0.7982
v -35.4861 4.5251 0.7982
v -35.8151 8.2985 0.5995
v -35.4861 4.5257 0.7991
v -35.5934 3.3573 2.3596
v -35.5607 4.1574 -8.3543
v -35.0505 3.3377 -8.5018
v -35.1861 3.0167 -7.9018
v -35.1861 3.0257 -7.8923
v -29.1924 3.4967 -7.1939
v -35.1861 3.0257 -6.4114
v -35.1861 3.0167 -6.4018
v -34.3784 4.1652 -5.9197
v -35.2290 3.3257 -5.8344
v -35.4859 4.5257 0.4982
v -35.4858 4.5257 0.7982
v -35.2225 4.5660 -8.0775
v -35.4658 3.3257 -8.4693
v -34.8861 3.0167 -7.9018
v -34.7361 3.3257 -7.6966
v -34.8861 3.0257 -7.8923
v -34.8861 3.0257 -6.4114
v -34.8861 3.0167 -6.4018
v -34.8528 3.3377 -5.8018
v -35.7910 8.2142 -4.8214
v -35.1340 4.1893 3.3257
v -35.3845 6.4648 4.5137
v -34.5861 3.0167 -7.9018
v -34.5861 3.0257 -7.8923
v -34.5861 3.0257 -6.4114
v -34.5861 3.0167 -6.4018
v -36.3115 5.0979 -11.0689
v -33.9414 4.1297 -8.3760
v -34.5179 3.3257 -8.4693
v -34.2861 3.0167 -7.9018
v -34.2861 3.0257 -7.8923
v -34.2571 4.5533 -6.2680
v -34.2861 3.0257 -6.4114
v -34.2861 3.0167 -6.4018
v -34.8861 3.2382 -5.8018
v -32.4861 2.9848 -5.9518
v -37.1629 3.1747 -5.4990
v -34.1552 7.3706 1.7220
v -33.9925 3.3485 -8.5415
v -33.9861 3.0167 -7.9018
v -33.9861 3.0257 -7.8923
v -35.0361 3.3577 -6.6544
v -33.9861 3.0257 -6.4114
v -33.9861 3.0167 -6.4018
v -33.6861 3.0167 -7.9018
v -33.6861 3.0257 -7.8923
v -33.6861 3.0257 -6.4114
v -33.6861 3.0167 -6.4018
v -33.4309 6.9956 -4.8548
v -33.3861 3.0167 -7.9018
v -32.4861 3.3577 -7.6492
v -33.3861 3.0257 -7.8923
v -34.1949 3.3257 -5.8344
v -33.1783 4.4755 -8.0432
v -34.1361 2.9699 -8.2018
v -33.0861 3.0167 -7.9018
v -33.4918 3.3377 -5.8018
v -33.0754 3.2616 -5.8193
v -33.0880 4.1605 -1.5321
v -32.4377 3.3579 3.1864
v -33.9861 3.2067 -8.6518
v -30.6850 4.3130 -6.3529
v -31.6752 3.3377 -5.8018
v -36.1949 3.0047 2.1721
v -31.4757 4.1494 -0.7051
v -32.2517 2.9848 -8.3518
v -23.2637 3.1756 -2.3489
v -22.9061 3.0043 -4.1848
g LeftGrip
f 2 5 1
f 3 6 5
f 5 6 7
f 6 14 7
f 7 9 4
f 11 6 8
f 10 9 7
f 21 16 18
f 20 23 11
f 12 10 7
f 23 28 11
f 11 14 6
f 11 28 29
f 11 29 14
f 17 22 18
f 39 20 35
f 15 19 10
f 24 19 15
f 39 38 20
f 22 33 41
f 18 22 13
f 12 15 10
f 27 24 15
f 24 27 26
f 38 25 20
f 20 25 23
f 23 25 28
f 27 15 29
f 28 30 29
f 30 27 29
f 28 49 30
f 28 25 49
f 35 31 39
f 53 39 35
f 26 36 37
f 24 26 37
f 57 56 53
f 56 38 53
f 53 38 39
f 39 36 26
f 44 39 26
f 38 39 44
f 38 43 39
f 33 40 41
f 56 42 38
f 40 60 41
f 43 38 44
f 54 60 40
f 48 25 38
f 38 42 48
f 62 44 26
f 62 26 45
f 27 30 26
f 42 46 48
f 48 62 25
f 25 62 48
f 45 26 30
f 45 30 49
f 48 47 25
f 48 46 67
f 45 49 47
f 47 49 25
f 48 68 47
f 48 67 68
f 34 51 32
f 55 51 81
f 56 78 53
f 56 53 35
f 56 35 43
f 52 83 54
f 81 51 34
f 39 43 35
f 82 83 52
f 78 56 58
f 43 58 56
f 57 80 61
f 57 59 56
f 59 42 56
f 42 58 43
f 42 43 44
f 57 61 59
f 42 63 58
f 83 64 54
f 54 64 60
f 82 64 83
f 64 82 88
f 59 46 42
f 42 44 62
f 45 47 62
f 42 66 63
f 42 62 47
f 42 47 68
f 59 67 46
f 66 42 68
f 59 61 67
f 66 68 91
f 67 61 90
f 67 91 68
f 67 90 91
f 50 69 74
f 70 98 72
f 69 72 75
f 72 103 75
f 73 82 52
f 84 79 77
f 81 77 55
f 73 85 82
f 84 77 81
f 73 101 85
f 87 76 78
f 87 78 58
f 111 80 102
f 87 118 76
f 80 111 89
f 89 61 80
f 87 58 63
f 89 111 86
f 85 117 82
f 117 85 101
f 82 117 88
f 89 86 123
f 87 63 66
f 88 117 65
f 90 125 87
f 90 87 66
f 90 66 91
f 89 90 61
f 117 121 65
f 89 123 126
f 89 92 90
f 71 74 96
f 98 70 95
f 95 93 100
f 95 100 98
f 72 98 103
f 73 113 101
f 79 107 131
f 98 100 103
f 79 84 107
f 108 106 107
f 103 100 109
f 110 104 105
f 108 107 164
f 164 107 84
f 139 164 84
f 100 139 109
f 144 111 102
f 105 76 118
f 112 139 84
f 142 112 84
f 105 114 110
f 101 113 116
f 116 113 137
f 144 115 111
f 114 105 118
f 111 115 86
f 116 137 149
f 86 119 114
f 124 114 118
f 86 114 124
f 116 120 101
f 125 118 87
f 149 120 116
f 115 123 86
f 124 118 125
f 119 86 124
f 101 121 117
f 101 120 121
f 115 151 123
f 151 122 123
f 127 124 125
f 122 128 123
f 128 122 154
f 158 133 94
f 97 158 94
f 135 95 96
f 163 133 158
f 134 131 107
f 134 100 93
f 160 158 97
f 97 131 160
f 135 96 138
f 129 137 113
f 129 136 137
f 138 96 99
f 134 107 139
f 107 164 139
f 134 139 100
f 141 138 109
f 136 140 137
f 141 109 139
f 139 112 143
f 139 143 141
f 112 196 143
f 119 110 114
f 148 110 119
f 145 147 112
f 137 140 170
f 137 170 149
f 150 147 146
f 167 197 144
f 144 197 115
f 175 148 151
f 151 148 153
f 153 148 119
f 177 122 151
f 153 119 124
f 149 170 179
f 152 120 149
f 177 154 122
f 127 153 124
f 154 153 127
f 177 180 154
f 180 182 154
f 154 182 156
f 182 184 156
f 130 157 160
f 130 160 131
f 160 130 159
f 159 132 135
f 157 158 160
f 160 159 162
f 161 133 163
f 165 159 135
f 107 106 164
f 194 135 138
f 138 141 194
f 106 108 164
f 194 165 135
f 169 140 136
f 166 165 194
f 194 141 143
f 148 168 110
f 194 143 196
f 196 112 147
f 197 168 148
f 147 195 196
f 150 171 147
f 169 172 140
f 140 172 170
f 173 171 200
f 177 175 153
f 170 172 178
f 170 178 179
f 176 180 177
f 176 203 180
f 182 177 153
f 182 204 177
f 182 153 154
f 156 182 154
f 203 208 180
f 182 156 155
f 181 178 207
f 208 183 180
f 180 183 182
f 182 183 184
f 160 187 130
f 190 187 160
f 158 157 189
f 190 189 187
f 189 190 158
f 188 215 189
f 215 190 189
f 190 160 162
f 215 161 163
f 215 163 190
f 163 158 190
f 335 162 159
f 159 165 335
f 335 165 166
f 243 166 194
f 199 192 168
f 220 169 193
f 217 194 195
f 195 194 196
f 217 195 198
f 195 147 171
f 220 172 169
f 171 198 195
f 171 218 198
f 220 224 172
f 202 173 174
f 204 201 177
f 203 201 204
f 224 227 172
f 228 203 225
f 201 203 206
f 172 227 205
f 203 208 206
f 208 203 209
f 209 203 204
f 185 204 182
f 231 208 209
f 209 204 185
f 228 232 203
f 203 232 208
f 208 232 234
f 234 183 208
f 234 210 183
f 212 211 186
f 212 186 210
f 212 235 236
f 213 189 215
f 214 215 188
f 214 191 215
f 215 189 190
f 215 191 161
f 275 215 190
f 275 190 162
f 166 336 335
f 221 193 216
f 217 243 194
f 221 220 193
f 244 217 218
f 218 217 198
f 218 219 244
f 219 171 173
f 219 218 171
f 202 250 173
f 219 173 251
f 173 250 251
f 250 253 251
f 221 223 229
f 256 226 202
f 220 229 224
f 228 225 206
f 224 229 227
f 225 258 228
f 228 206 230
f 230 206 208
f 231 230 208
f 229 260 227
f 259 228 230
f 223 260 229
f 258 261 228
f 261 232 228
f 233 230 234
f 234 230 231
f 209 211 231
f 233 234 232
f 263 232 261
f 234 231 211
f 266 233 234
f 232 263 233
f 265 233 263
f 233 235 234
f 234 236 266
f 233 265 235
f 236 211 212
f 237 235 265
f 239 236 212
f 235 269 236
f 236 269 238
f 238 240 239
f 238 269 240
f 235 237 269
f 268 240 269
f 275 242 215
f 277 166 243
f 278 221 216
f 217 309 243
f 244 309 217
f 250 245 244
f 250 244 219
f 251 250 219
f 253 250 251
f 280 291 223
f 254 252 222
f 250 226 253
f 253 226 255
f 287 225 259
f 228 259 225
f 255 257 226
f 248 292 258
f 258 287 259
f 223 291 293
f 261 259 230
f 261 258 259
f 292 296 258
f 292 295 296
f 296 261 258
f 263 261 230
f 263 230 233
f 296 265 261
f 265 263 261
f 263 233 266
f 296 264 265
f 267 263 266
f 299 293 262
f 263 267 300
f 267 266 269
f 236 238 266
f 267 237 265
f 265 264 267
f 269 266 238
f 241 238 239
f 267 270 237
f 269 238 268
f 268 238 241
f 264 270 267
f 270 269 237
f 270 303 269
f 269 303 271
f 271 303 268
f 303 272 268
f 275 274 242
f 276 274 275
f 305 275 162
f 305 162 335
f 277 336 166
f 277 243 279
f 243 309 279
f 284 282 245
f 284 245 250
f 284 249 222
f 284 222 252
f 285 250 253
f 252 254 284
f 285 253 286
f 226 257 255
f 257 314 255
f 316 292 313
f 288 257 255
f 288 255 314
f 258 290 287
f 281 289 291
f 318 290 258
f 289 321 291
f 316 295 292
f 261 318 258
f 296 318 261
f 297 296 261
f 263 297 261
f 291 321 262
f 291 262 293
f 300 297 263
f 262 321 323
f 295 298 296
f 295 324 298
f 301 297 300
f 296 298 264
f 301 325 297
f 298 325 264
f 264 325 298
f 262 323 299
f 323 302 299
f 270 300 267
f 301 300 270
f 298 328 264
f 271 267 269
f 298 326 328
f 328 270 264
f 301 270 331
f 270 267 271
f 303 270 271
f 270 328 330
f 270 330 331
f 304 271 268
f 331 332 303
f 331 330 332
f 303 271 304
f 330 333 332
f 276 275 334
f 334 275 305
f 365 273 274
f 307 277 279
f 279 338 307
f 309 338 279
f 245 337 244
f 244 337 309
f 282 337 245
f 283 310 247
f 345 344 282
f 345 282 284
f 342 313 246
f 312 311 285
f 342 315 313
f 315 316 313
f 339 346 289
f 315 352 316
f 290 320 317
f 320 290 318
f 346 353 289
f 352 295 316
f 351 295 352
f 297 318 296
f 320 318 297
f 353 321 289
f 324 320 297
f 321 353 323
f 351 322 295
f 322 324 295
f 324 297 325
f 322 326 324
f 329 324 325
f 324 326 298
f 329 325 328
f 322 357 326
f 328 325 301
f 353 359 323
f 323 359 302
f 353 355 359
f 327 326 357
f 328 326 329
f 329 326 328
f 328 301 331
f 326 327 360
f 326 360 328
f 362 329 328
f 360 330 328
f 328 331 332
f 332 331 303
f 328 332 362
f 360 333 330
f 386 274 276
f 386 365 274
f 307 336 277
f 308 306 391
f 337 338 309
f 347 343 283
f 317 347 283
f 368 311 312
f 257 288 314
f 350 346 341
f 352 347 317
f 371 352 369
f 320 352 317
f 319 399 294
f 351 352 320
f 371 354 351
f 346 350 353
f 322 351 354
f 351 354 371
f 320 354 351
f 357 320 324
f 354 320 357
f 374 353 350
f 354 356 322
f 354 357 356
f 357 322 356
f 357 324 329
f 353 358 355
f 353 374 358
f 358 374 375
f 361 357 329
f 361 379 357
f 361 329 362
f 355 358 359
f 357 412 327
f 359 358 381
f 412 414 327
f 332 364 362
f 358 375 381
f 360 327 363
f 361 362 384
f 384 362 364
f 307 388 336
f 393 366 365
f 418 391 306
f 338 390 307
f 308 391 367
f 338 421 390
f 282 444 337
f 394 341 340
f 345 396 344
f 311 396 345
f 368 312 349
f 348 368 349
f 423 350 341
f 368 348 397
f 397 348 398
f 371 370 352
f 423 402 350
f 399 319 372
f 319 401 372
f 402 374 350
f 356 371 354
f 407 374 402
f 374 407 375
f 377 376 405
f 383 378 357
f 383 357 379
f 375 407 380
f 383 379 361
f 375 380 382
f 375 382 381
f 385 305 335
f 389 388 307
f 389 307 390
f 387 366 393
f 418 441 391
f 420 391 441
f 337 421 338
f 395 367 420
f 461 423 341
f 424 402 423
f 399 372 401
f 404 403 373
f 424 425 402
f 425 407 402
f 376 428 405
f 425 408 407
f 376 377 409
f 377 406 409
f 378 413 410
f 407 408 415
f 413 378 436
f 436 378 383
f 407 415 380
f 435 414 412
f 435 437 414
f 456 276 334
f 386 276 456
f 388 438 336
f 419 438 388
f 419 388 389
f 387 443 416
f 393 443 387
f 417 441 418
f 419 389 390
f 421 419 390
f 367 395 392
f 459 395 420
f 282 344 444
f 464 395 459
f 396 444 344
f 396 311 368
f 396 368 422
f 397 422 368
f 400 397 398
f 403 397 400
f 447 397 403
f 446 425 424
f 426 403 404
f 409 428 376
f 428 409 430
f 432 408 425
f 431 409 411
f 427 434 454
f 408 432 453
f 434 413 436
f 469 334 305
f 537 386 456
f 495 336 438
f 386 440 365
f 443 439 416
f 442 438 419
f 470 441 417
f 421 442 419
f 460 439 443
f 458 420 441
f 444 442 337
f 337 442 421
f 458 459 420
f 440 460 443
f 440 485 460
f 459 475 464
f 475 445 464
f 403 426 447
f 426 429 430
f 466 432 478
f 448 426 430
f 448 430 449
f 449 430 409
f 409 431 449
f 449 431 450
f 432 466 453
f 454 455 451
f 455 454 434
f 469 305 385
f 335 551 385
f 494 495 438
f 336 495 483
f 439 472 416
f 442 457 438
f 444 457 442
f 459 458 475
f 396 462 444
f 462 396 422
f 463 462 422
f 445 476 464
f 488 464 476
f 397 477 422
f 447 477 397
f 426 465 447
f 448 465 426
f 465 448 467
f 448 431 467
f 431 448 450
f 450 448 449
f 479 466 478
f 431 433 467
f 431 450 467
f 468 450 431
f 467 468 431
f 467 433 452
f 467 452 468
f 466 479 481
f 508 334 469
f 456 334 508
f 336 483 335
f 386 537 471
f 473 457 444
f 460 474 439
f 484 474 460
f 484 460 485
f 468 467 450
f 467 468 480
f 452 482 480
f 452 480 468
f 335 483 551
f 438 457 494
f 462 473 444
f 509 440 471
f 486 462 463
f 486 463 489
f 476 445 475
f 463 422 489
f 485 487 484
f 477 489 422
f 447 501 477
f 447 465 501
f 467 501 465
f 467 490 501
f 480 490 467
f 490 480 491
f 551 469 385
f 616 537 456
f 457 575 496
f 473 575 457
f 497 471 537
f 473 462 510
f 498 510 462
f 509 485 440
f 498 462 486
f 509 500 485
f 489 498 486
f 499 498 489
f 477 524 489
f 490 526 501
f 505 492 503
f 503 492 493
f 503 514 505
f 616 456 508
f 483 673 551
f 494 521 495
f 457 496 494
f 497 509 471
f 522 510 511
f 511 510 498
f 498 499 511
f 489 524 499
f 477 525 524
f 512 501 526
f 527 502 513
f 515 503 504
f 530 531 506
f 515 517 514
f 515 528 518
f 515 518 517
f 528 533 518
f 519 507 520
f 536 508 469
f 483 608 673
f 521 552 495
f 473 510 575
f 564 509 497
f 538 522 511
f 538 511 523
f 523 511 499
f 523 499 524
f 477 501 525
f 512 525 501
f 527 555 502
f 530 516 541
f 531 527 513
f 541 516 529
f 530 542 531
f 528 515 534
f 534 515 518
f 518 515 517
f 532 528 534
f 545 529 535
f 533 528 532
f 535 529 516
f 532 544 546
f 532 546 533
f 533 534 518
f 546 548 533
f 534 533 518
f 516 519 550
f 535 516 550
f 551 536 469
f 552 608 495
f 495 608 483
f 496 521 494
f 539 538 523
f 539 523 540
f 540 523 524
f 524 525 540
f 526 615 512
f 555 526 502
f 566 555 527
f 578 566 527
f 578 527 542
f 531 542 527
f 568 529 545
f 529 543 541
f 541 542 530
f 541 544 542
f 548 532 534
f 544 532 546
f 546 532 548
f 541 543 544
f 549 545 535
f 544 543 547
f 533 548 534
f 544 547 546
f 546 547 548
f 549 535 550
f 596 536 551
f 574 497 537
f 553 510 522
f 538 553 522
f 538 554 553
f 538 539 554
f 585 539 540
f 525 585 540
f 512 591 577
f 526 555 615
f 542 556 578
f 568 543 529
f 544 556 542
f 544 558 556
f 557 543 568
f 558 544 546
f 543 557 560
f 572 547 543
f 548 559 546
f 543 560 572
f 558 546 561
f 559 561 546
f 563 562 549
f 582 596 551
f 574 617 497
f 510 553 575
f 565 509 564
f 584 539 585
f 512 576 525
f 512 577 576
f 615 591 512
f 567 578 556
f 556 570 567
f 570 556 558
f 560 570 558
f 572 560 558
f 569 571 557
f 557 571 579
f 557 579 560
f 572 560 579
f 572 558 573
f 563 581 562
f 508 536 616
f 496 598 674
f 496 583 598
f 575 583 496
f 617 564 497
f 539 584 554
f 585 525 619
f 571 570 560
f 579 571 560
f 572 579 560
f 580 571 594
f 571 580 579
f 596 616 536
f 905 537 616
f 496 648 521
f 554 632 553
f 584 609 554
f 577 589 599
f 577 591 589
f 589 587 586
f 587 588 586
f 589 604 587
f 588 587 590
f 590 587 604
f 591 604 589
f 578 659 566
f 566 659 555
f 614 567 606
f 567 614 578
f 571 593 592
f 579 593 571
f 580 593 579
f 648 608 552
f 521 648 552
f 609 632 554
f 525 576 619
f 589 602 601
f 603 600 621
f 602 589 586
f 586 588 602
f 588 601 602
f 679 604 591
f 614 605 613
f 606 605 614
f 615 555 630
f 555 659 630
f 593 595 607
f 582 597 596
f 673 749 551
f 564 617 631
f 649 577 599
f 626 610 622
f 600 635 621
f 624 600 603
f 612 603 628
f 615 680 591
f 614 613 681
f 614 659 578
f 681 659 614
f 606 646 605
f 616 596 597
f 553 660 575
f 661 609 584
f 618 584 585
f 662 618 585
f 662 585 619
f 577 649 576
f 650 620 622
f 622 620 623
f 623 620 633
f 654 600 624
f 641 611 626
f 611 641 642
f 629 642 627
f 645 611 642
f 645 642 629
f 615 682 680
f 672 630 659
f 630 682 615
f 648 673 608
f 496 674 648
f 728 617 574
f 635 700 621
f 623 633 664
f 636 626 622
f 636 622 637
f 637 622 623
f 623 625 637
f 638 656 657
f 638 657 640
f 671 642 641
f 627 668 643
f 627 612 644
f 629 627 644
f 679 591 680
f 551 647 582
f 583 674 598
f 583 660 674
f 631 617 728
f 575 660 583
f 609 729 632
f 661 584 618
f 663 620 650
f 620 652 633
f 652 664 633
f 635 675 700
f 636 634 626
f 666 657 656
f 640 657 658
f 667 638 640
f 669 642 671
f 644 642 669
f 644 627 642
f 644 668 627
f 669 645 629
f 644 669 629
f 681 613 692
f 683 609 661
f 619 649 662
f 576 649 619
f 620 663 652
f 663 637 652
f 652 637 664
f 656 655 676
f 656 676 666
f 667 677 638
f 667 640 639
f 668 644 670
f 693 682 630
f 674 777 648
f 701 663 650
f 636 701 653
f 637 663 636
f 666 715 657
f 691 612 689
f 712 672 659
f 694 630 672
f 672 712 694
f 616 597 776
f 684 661 618
f 684 618 662
f 687 695 685
f 687 685 688
f 688 685 686
f 654 665 675
f 732 636 663
f 707 666 676
f 715 666 707
f 710 677 667
f 710 667 708
f 690 678 645
f 694 693 630
f 659 681 712
f 694 712 702
f 749 850 551
f 703 749 648
f 648 749 673
f 695 696 685
f 713 696 695
f 686 685 696
f 686 696 697
f 699 695 687
f 699 687 688
f 688 686 697
f 688 697 699
f 701 636 732
f 706 707 676
f 690 671 678
f 689 724 691
f 719 759 692
f 777 703 648
f 662 750 684
f 662 779 750
f 649 779 662
f 713 704 696
f 697 696 704
f 697 704 731
f 699 697 731
f 705 700 675
f 701 732 663
f 665 705 675
f 710 709 677
f 645 747 690
f 739 645 669
f 725 679 680
f 680 775 711
f 682 775 680
f 693 775 682
f 692 726 681
f 760 693 694
f 712 681 727
f 720 760 694
f 553 729 660
f 632 729 553
f 741 683 661
f 741 661 684
f 649 698 779
f 816 751 762
f 713 731 704
f 649 764 698
f 764 649 651
f 722 764 651
f 731 714 699
f 732 714 701
f 706 737 707
f 716 709 710
f 690 717 671
f 717 739 671
f 671 739 669
f 680 711 725
f 810 692 759
f 810 726 692
f 694 702 720
f 776 597 647
f 574 537 905
f 905 728 574
f 730 729 609
f 730 609 683
f 722 721 723
f 705 752 700
f 733 699 714
f 731 742 714
f 714 732 701
f 744 736 706
f 706 736 737
f 739 747 645
f 775 725 711
f 726 727 681
f 702 712 761
f 702 761 720
f 674 660 777
f 765 731 713
f 766 764 722
f 742 732 714
f 735 714 732
f 737 745 707
f 716 710 754
f 551 850 647
f 905 616 776
f 911 631 728
f 765 742 731
f 742 767 732
f 735 732 767
f 781 738 735
f 734 714 743
f 714 735 743
f 771 737 736
f 745 737 770
f 737 771 770
f 709 716 756
f 755 716 754
f 773 739 757
f 773 747 739
f 775 748 725
f 760 775 693
f 761 712 727
f 761 795 720
f 647 597 582
f 729 777 660
f 750 741 684
f 911 816 762
f 780 752 705
f 767 781 735
f 743 735 769
f 769 735 738
f 756 716 755
f 717 807 739
f 790 757 746
f 790 773 757
f 724 740 790
f 793 775 760
f 834 720 795
f 564 631 911
f 763 729 730
f 778 683 741
f 801 767 742
f 705 805 780
f 767 802 781
f 803 743 769
f 770 771 755
f 770 755 753
f 771 756 755
f 786 757 807
f 739 807 757
f 757 788 789
f 757 789 746
f 725 748 718
f 774 759 792
f 874 905 776
f 778 763 730
f 778 730 683
f 827 800 750
f 750 779 827
f 802 767 801
f 802 769 783
f 743 803 782
f 769 802 803
f 784 782 803
f 756 771 772
f 786 784 803
f 786 803 806
f 785 784 786
f 817 807 787
f 788 757 786
f 806 788 786
f 807 785 786
f 806 773 788
f 788 773 790
f 808 758 747
f 808 747 773
f 791 718 748
f 726 810 854
f 794 760 873
f 720 932 760
f 726 901 727
f 834 932 720
f 727 855 761
f 647 797 776
f 749 703 815
f 749 815 813
f 815 703 777
f 911 728 905
f 911 762 564
f 799 778 741
f 799 741 750
f 800 799 750
f 698 764 779
f 768 764 766
f 804 780 805
f 801 782 802
f 782 803 802
f 803 782 784
f 784 785 803
f 785 806 803
f 785 807 806
f 807 808 806
f 808 773 806
f 809 790 818
f 774 930 759
f 930 810 759
f 853 760 794
f 853 793 760
f 794 821 853
f 953 726 854
f 727 901 855
f 761 855 795
f 822 812 796
f 824 812 823
f 813 814 749
f 777 763 815
f 814 813 798
f 729 763 777
f 815 798 813
f 763 798 815
f 763 778 798
f 798 778 799
f 829 764 768
f 831 807 817
f 831 808 807
f 853 976 793
f 819 854 810
f 833 820 821
f 794 873 821
f 873 760 932
f 822 811 812
f 835 857 812
f 812 826 796
f 812 824 823
f 824 812 825
f 825 812 859
f 874 776 797
f 825 826 824
f 826 812 824
f 825 824 837
f 749 814 850
f 826 825 841
f 798 799 814
f 764 928 779
f 831 817 828
f 791 830 852
f 748 830 791
f 775 947 748
f 947 775 793
f 810 931 819
f 873 833 821
f 795 855 969
f 834 795 969
f 796 826 836
f 812 857 859
f 824 825 837
f 858 825 859
f 841 825 858
f 841 858 880
f 839 838 840
f 838 842 840
f 840 881 880
f 840 842 881
f 844 860 843
f 846 845 843
f 843 845 844
f 881 841 880
f 843 860 847
f 847 860 862
f 843 848 846
f 843 847 848
f 862 849 847
f 847 849 848
f 928 827 779
f 829 928 764
f 829 852 830
f 930 774 832
f 810 930 931
f 821 949 853
f 821 820 949
f 726 966 901
f 856 836 857
f 836 826 857
f 875 859 857
f 850 874 797
f 647 850 797
f 826 841 858
f 859 875 858
f 840 881 842
f 881 840 880
f 881 858 841
f 845 861 844
f 844 861 860
f 846 861 845
f 799 850 814
f 863 860 861
f 862 860 863
f 848 863 846
f 846 863 861
f 849 862 863
f 849 863 848
f 864 882 881
f 866 883 865
f 868 867 865
f 865 867 866
f 865 883 869
f 869 883 885
f 865 870 868
f 865 869 870
f 885 871 869
f 869 871 870
f 899 799 800
f 927 816 911
f 927 851 816
f 830 928 829
f 927 832 851
f 853 949 976
f 820 872 949
f 820 990 872
f 833 990 820
f 966 726 953
f 901 933 855
f 969 855 933
f 875 857 858
f 826 858 857
f 874 850 876
f 877 875 878
f 877 878 875
f 907 879 906
f 879 907 880
f 880 858 879
f 906 908 907
f 907 909 904
f 907 904 880
f 904 881 880
f 881 904 910
f 881 910 864
f 864 910 935
f 864 935 882
f 867 884 866
f 866 884 883
f 868 884 867
f 886 883 884
f 885 883 886
f 870 886 868
f 868 886 884
f 912 887 882
f 888 882 887
f 871 885 886
f 871 886 870
f 912 889 887
f 888 887 890
f 890 887 889
f 912 891 889
f 890 889 892
f 892 889 891
f 912 893 891
f 892 891 894
f 894 891 893
f 912 895 893
f 912 914 895
f 894 893 896
f 896 893 895
f 898 895 897
f 895 914 897
f 895 898 896
f 799 958 850
f 799 899 958
f 899 800 900
f 827 900 800
f 929 832 927
f 748 947 830
f 929 930 832
f 793 976 947
f 854 819 951
f 902 968 901
f 901 968 933
f 905 874 876
f 903 905 876
f 858 904 879
f 879 907 906
f 879 904 907
f 908 906 907
f 904 909 907
f 881 904 858
f 903 911 905
f 882 913 881
f 912 882 935
f 888 913 882
f 911 903 940
f 935 942 912
f 890 913 888
f 912 942 943
f 892 913 890
f 892 944 913
f 912 943 914
f 894 944 892
f 896 944 894
f 898 897 943
f 943 915 898
f 915 896 898
f 915 944 896
f 914 943 897
f 920 916 943
f 917 943 916
f 920 918 916
f 917 916 919
f 919 916 918
f 911 940 927
f 920 921 918
f 919 918 922
f 922 918 921
f 920 923 921
f 920 945 923
f 922 921 924
f 924 921 923
f 926 923 925
f 923 945 925
f 923 926 924
f 928 900 827
f 830 947 928
f 954 833 873
f 873 932 967
f 978 932 834
f 969 978 834
f 903 876 934
f 958 934 876
f 935 910 904
f 958 876 850
f 881 935 904
f 936 935 937
f 913 935 881
f 903 934 940
f 938 937 935
f 936 942 935
f 935 913 938
f 913 939 938
f 941 942 936
f 958 940 934
f 943 944 915
f 943 917 944
f 922 917 919
f 924 917 922
f 926 925 972
f 972 917 926
f 917 924 926
f 920 972 945
f 945 972 925
f 946 940 958
f 946 958 960
f 958 899 961
f 961 899 900
f 959 946 960
f 959 927 946
f 959 929 927
f 959 964 929
f 976 948 947
f 977 931 930
f 872 950 949
f 990 950 872
f 854 951 952
f 952 953 854
f 954 990 833
f 873 967 954
f 966 902 901
f 978 982 932
f 933 968 969
f 938 955 937
f 955 936 937
f 939 955 938
f 956 936 955
f 913 956 939
f 939 956 955
f 942 941 936
f 942 936 944
f 944 936 956
f 913 944 956
f 942 944 943
f 944 920 943
f 970 971 944
f 971 920 944
f 971 972 920
f 972 957 917
f 960 958 961
f 973 959 960
f 961 900 962
f 962 900 928
f 964 959 973
f 964 973 963
f 947 962 928
f 948 962 947
f 974 964 963
f 985 948 976
f 977 930 929
f 949 975 976
f 951 819 931
f 952 966 953
f 944 917 970
f 971 970 917
f 960 961 973
f 963 973 961
f 963 961 962
f 965 962 948
f 965 963 962
f 963 979 974
f 979 963 965
f 980 951 931
f 981 951 980
f 965 948 984
f 983 977 929
f 985 984 948
f 976 975 985
f 977 980 931
f 949 950 975
f 990 995 950
f 993 951 981
f 951 993 952
f 967 932 994
f 986 902 966
f 968 978 969
f 979 988 974
f 965 984 979
f 964 983 929
f 988 964 974
f 988 983 964
f 977 981 980
f 977 989 981
f 986 966 1003
f 902 997 968
f 979 992 988
f 995 975 950
f 993 981 989
f 1003 966 952
f 994 932 982
f 997 978 968
f 987 978 999
f 987 982 978
f 985 1002 984
f 1015 977 983
f 989 977 1001
f 989 1001 993
f 952 993 1003
f 991 990 954
f 954 996 991
f 996 954 994
f 994 954 967
f 978 997 999
f 984 992 979
f 1001 1003 993
f 986 1004 902
f 997 902 1004
f 1006 988 992
f 998 994 982
f 1002 992 984
f 990 1005 995
f 991 1005 990
f 987 998 982
f 1004 1008 997
f 1005 1000 995
f 1016 991 996
f 986 1003 1022
f 996 994 998
f 1022 1004 986
f 1011 995 1000
f 1000 1023 1011
f 1021 1003 1001
f 1008 1014 997
f 997 1014 999
f 1014 1009 999
f 999 1009 987
f 1010 983 988
f 1006 1010 988
f 975 995 1032
f 1032 985 975
f 1005 1012 1000
f 1022 1003 1021
f 991 1007 1005
f 1007 991 1016
f 998 1016 996
f 987 1018 998
f 987 1009 1018
f 1035 1001 977
f 1017 1016 998
f 1004 1022 1013
f 1004 1013 1008
f 1020 992 1002
f 1007 1012 1005
f 1007 1016 1026
f 1010 1015 983
f 1019 1010 1006
f 1011 1032 995
f 1033 1035 977
f 1012 1023 1000
f 1007 1026 1012
f 1013 1018 1008
f 1008 1018 1014
f 1014 1018 1009
f 1025 1006 992
f 1025 992 1020
f 1033 977 1015
f 1035 1021 1001
f 1013 1022 1037
f 1019 1015 1010
f 985 1020 1002
f 1023 1032 1011
f 1028 1032 1023
f 1026 1016 1030
f 1030 1016 1017
f 1031 1019 1006
f 1025 1031 1006
f 1015 1019 1033
f 1012 1029 1023
f 1022 1021 1037
f 1013 1037 1024
f 1024 1018 1013
f 1023 1029 1028
f 1026 1029 1012
f 1045 1037 1021
f 1031 1025 1027
f 1033 1019 1031
f 1026 1036 1029
f 1045 1021 1035
f 1042 1030 1017
f 1027 1025 1020
f 1033 1031 1034
f 1028 1040 1032
f 1036 1026 1030
f 998 1042 1017
f 1024 1038 1018
f 1032 1049 985
f 1043 1033 1034
f 1035 1033 1043
f 1037 1053 1024
f 1020 1039 1027
f 985 1039 1020
f 1034 1031 1051
f 1049 1039 985
f 1040 1049 1032
f 1043 1044 1035
f 1041 1035 1044
f 1042 1036 1030
f 1035 1041 1045
f 1037 1045 1053
f 1024 1053 1038
f 1031 1027 1051
f 1034 1051 1043
f 1046 1049 1040
f 1050 1044 1043
f 1029 1036 1028
f 998 1018 1042
f 1045 1041 1053
f 1048 1053 1041
f 1050 1043 1051
f 1041 1044 1048
f 1028 1046 1040
f 1036 1085 1028
f 1047 1036 1042
f 1027 1055 1051
f 1048 1044 1050
f 1053 1054 1038
f 1039 1055 1027
f 1047 1057 1036
f 1056 1047 1042
f 1048 1059 1053
f 1055 1039 1052
f 1049 1068 1039
f 1018 1062 1042
f 1053 1059 1054
f 1049 1064 1068
f 1064 1049 1046
f 1028 1085 1046
f 1036 1057 1085
f 1047 1060 1057
f 1042 1073 1056
f 1042 1062 1073
f 1059 1048 1058
f 1062 1018 1038
f 1054 1062 1038
f 1061 1046 1085
f 1048 1050 1058
f 1059 1062 1054
f 1063 1055 1052
f 1063 1052 1066
f 1039 1066 1052
f 1051 1055 1063
f 1046 1061 1064
f 1056 1060 1047
f 1039 1068 1066
f 1067 1059 1058
f 1072 1060 1056
f 1051 1063 1079
f 1062 1070 1073
f 1065 1063 1066
f 1079 1050 1051
f 1060 1069 1057
f 1056 1073 1072
f 1072 1069 1060
f 1059 1067 1062
f 1067 1070 1062
f 1064 1074 1068
f 1061 1080 1064
f 1080 1074 1064
f 1080 1061 1085
f 1071 1069 1072
f 1081 1067 1058
f 1076 1065 1066
f 1076 1066 1077
f 1068 1077 1066
f 1214 1081 1058
f 1081 1083 1067
f 1063 1065 1076
f 1073 1087 1072
f 1067 1083 1070
f 1214 1050 1079
f 1057 1162 1085
f 1069 1075 1057
f 1071 1075 1069
f 1073 1070 1084
f 1070 1083 1084
f 1068 1078 1077
f 1214 1058 1050
f 1057 1075 1162
f 1079 1063 1076
f 1074 1086 1068
f 1087 1071 1072
f 1068 1086 1078
f 1082 1081 1214
f 1073 1084 1089
f 1078 1076 1077
f 1088 1074 1080
f 1080 1085 1088
f 1075 1071 1087
f 1081 1082 1083
f 1083 1089 1084
f 1076 1097 1079
f 1088 1086 1074
f 1083 1082 1093
f 1093 1089 1083
f 1078 1097 1076
f 1091 1075 1087
f 1073 1089 1087
f 1087 1089 1091
f 1097 1078 1090
f 1086 1213 1078
f 1162 1075 1092
f 1092 1075 1091
f 1093 1125 1089
f 1078 1158 1090
f 1078 1213 1158
f 1086 1195 1213
f 1088 1195 1086
f 1088 1085 1099
f 1089 1094 1091
f 1093 1082 1124
f 1124 1125 1093
f 1121 1097 1090
f 1121 1090 1158
f 1122 1097 1121
f 1099 1195 1088
f 1094 1092 1091
f 1123 1124 1082
f 1100 1141 1120
f 1141 1150 1120
f 1082 1256 1123
f 1125 1188 1089
f 1119 1102 1101
f 1108 1103 1104
f 1108 1104 1106
f 1105 1102 1107
f 1108 1106 1109
f 1107 1102 1110
f 1108 1109 1117
f 1117 1109 1111
f 1108 1117 1119
f 1110 1102 1112
f 1117 1111 1113
f 1112 1102 1114
f 1117 1113 1118
f 1119 1115 1102
f 1114 1102 1116
f 1116 1102 1115
f 1118 1198 1117
f 1117 1198 1147
f 1117 1147 1119
f 1119 1144 1115
f 1143 1141 1100
f 1119 1147 1144
f 1120 1198 1100
f 1146 1150 1141
f 1146 1165 1150
f 1085 1161 1099
f 1089 1188 1094
f 1256 1082 1214
f 1128 1103 1126
f 1103 1128 1104
f 1129 1104 1128
f 1104 1129 1106
f 1129 1225 1131
f 1131 1106 1129
f 1106 1131 1109
f 1110 1132 1107
f 1131 1225 1134
f 1134 1225 1164
f 1134 1109 1131
f 1109 1134 1111
f 1132 1110 1135
f 1112 1135 1110
f 1134 1164 1136
f 1136 1111 1134
f 1111 1136 1113
f 1135 1112 1137
f 1114 1137 1112
f 1136 1164 1138
f 1138 1113 1136
f 1113 1138 1118
f 1133 1130 1127
f 1137 1114 1139
f 1116 1139 1114
f 1138 1164 1118
f 1164 1198 1118
f 1139 1116 1140
f 1115 1140 1116
f 1140 1115 1144
f 1143 1100 1197
f 1141 1143 1142
f 1142 1146 1141
f 1130 1133 1145
f 1217 1145 1133
f 1144 1147 1148
f 1147 1198 1120
f 1148 1147 1149
f 1149 1147 1151
f 1150 1153 1120
f 1151 1147 1152
f 1152 1147 1176
f 1150 1165 1153
f 1152 1176 1154
f 1154 1176 1156
f 1147 1155 1176
f 1193 1121 1158
f 1162 1161 1085
f 1092 1215 1162
f 1206 1178 1163
f 1145 1206 1130
f 1142 1165 1146
f 1166 1145 1217
f 1148 1167 1144
f 1175 1145 1166
f 1167 1148 1168
f 1149 1168 1148
f 1168 1149 1169
f 1151 1169 1149
f 1167 1168 1173
f 1173 1168 1169
f 1153 1180 1147
f 1153 1147 1120
f 1223 1166 1217
f 1169 1151 1170
f 1152 1170 1151
f 1173 1169 1170
f 1155 1147 1180
f 1170 1152 1171
f 1154 1171 1152
f 1173 1170 1171
f 1171 1154 1172
f 1156 1172 1154
f 1173 1171 1172
f 1172 1156 1174
f 1176 1174 1156
f 1173 1172 1181
f 1181 1172 1174
f 1165 1180 1153
f 1165 1179 1180
f 1174 1176 1157
f 1157 1181 1174
f 1157 1176 1181
f 1176 1155 1202
f 1183 1176 1202
f 1213 1193 1158
f 1098 1122 1194
f 1096 1159 1160
f 1094 1215 1092
f 1124 1188 1125
f 1178 1206 1145
f 1165 1142 1219
f 1145 1190 1178
f 1145 1175 1190
f 1219 1179 1165
f 1166 1189 1175
f 1166 1223 1189
f 1202 1155 1180
f 1179 1200 1182
f 1179 1182 1180
f 1176 1183 1181
f 1173 1181 1183
f 1183 1189 1223
f 1184 1189 1183
f 1223 1177 1183
f 1173 1183 1177
f 1185 1183 1202
f 1184 1183 1177
f 1183 1185 1177
f 1185 1186 1177
f 1186 1185 1204
f 1191 1121 1187
f 1187 1121 1193
f 1212 1095 1194
f 1194 1122 1121
f 1161 1195 1099
f 1162 1215 1161
f 1189 1190 1175
f 1189 1201 1190
f 1182 1202 1180
f 1177 1211 1173
f 1200 1187 1182
f 1191 1187 1200
f 1192 1184 1177
f 1204 1185 1202
f 1192 1177 1252
f 1182 1187 1193
f 1203 1186 1204
f 1211 1186 1203
f 1191 1194 1121
f 1234 1215 1094
f 1123 1256 1124
f 1130 1196 1257
f 1216 1164 1225
f 1216 1198 1164
f 1198 1236 1100
f 1196 1130 1206
f 1143 1259 1142
f 1142 1259 1260
f 1179 1219 1199
f 1199 1200 1179
f 1201 1210 1190
f 1184 1201 1189
f 1209 1191 1200
f 1201 1184 1210
f 1193 1204 1202
f 1193 1202 1182
f 1184 1192 1210
f 1186 1211 1177
f 1192 1252 1203
f 1191 1240 1194
f 1161 1245 1195
f 1195 1245 1213
f 1236 1198 1216
f 1229 1223 1217
f 1209 1200 1199
f 1250 1177 1223
f 1250 1252 1177
f 1232 1210 1192
f 1240 1191 1209
f 1213 1204 1193
f 1256 1270 1124
f 1124 1270 1188
f 1257 1196 1206
f 1236 1272 1100
f 1190 1229 1178
f 1261 1208 1218
f 1208 1220 1218
f 1260 1219 1142
f 1211 1310 1173
f 1240 1209 1199
f 1232 1192 1224
f 1203 1224 1192
f 1213 1242 1204
f 1242 1203 1204
f 1211 1203 1242
f 1254 1194 1240
f 1194 1254 1205
f 1247 1245 1161
f 1215 1247 1161
f 1256 1214 1233
f 1227 1216 1226
f 1228 1216 1227
f 1236 1216 1228
f 1100 1264 1197
f 1218 1274 1261
f 1222 1218 1220
f 1238 1218 1222
f 1237 1222 1220
f 1207 1221 1231
f 1203 1243 1224
f 1242 1262 1211
f 1247 1215 1234
f 1188 1280 1094
f 1143 1197 1264
f 1265 1274 1218
f 1230 1265 1218
f 1281 1220 1208
f 1218 1238 1230
f 1267 1223 1229
f 1266 1219 1260
f 1237 1238 1222
f 1239 1238 1237
f 1237 1241 1239
f 1241 1237 1242
f 1279 1232 1224
f 1262 1203 1252
f 1243 1203 1262
f 1213 1251 1242
f 1213 1245 1251
f 1245 1247 1246
f 1255 1256 1233
f 1094 1248 1234
f 1280 1248 1094
f 1270 1280 1188
f 1272 1264 1100
f 1258 1236 1235
f 1236 1258 1272
f 1281 1208 1261
f 1267 1229 1190
f 1314 1221 1207
f 1281 1237 1220
f 1266 1199 1219
f 1239 1249 1238
f 1253 1239 1251
f 1314 1224 1231
f 1253 1249 1239
f 1242 1239 1241
f 1251 1239 1242
f 1243 1231 1224
f 1250 1262 1252
f 1263 1253 1245
f 1245 1253 1251
f 1278 1262 1242
f 1284 1244 1205
f 1245 1246 1263
f 1248 1247 1234
f 1261 1273 1281
f 1230 1238 1268
f 1319 1266 1260
f 1295 1199 1266
f 1295 1240 1199
f 1284 1240 1295
f 1284 1254 1240
f 1253 1263 1249
f 1284 1205 1254
f 1255 1298 1256
f 1298 1270 1256
f 1264 1259 1143
f 1340 1260 1259
f 1274 1273 1261
f 1331 1237 1281
f 1249 1291 1238
f 1238 1291 1268
f 1314 1231 1221
f 1267 1250 1223
f 1249 1263 1283
f 1276 1275 1243
f 1276 1243 1262
f 1262 1250 1276
f 1285 1262 1278
f 1246 1247 1315
f 1270 1313 1280
f 1271 1272 1258
f 1340 1319 1260
f 1207 1290 1314
f 1231 1290 1207
f 1283 1291 1249
f 1292 1263 1277
f 1304 1232 1279
f 1277 1263 1246
f 1298 1255 1287
f 1264 1289 1259
f 1259 1289 1340
f 1268 1282 1230
f 1268 1291 1282
f 1331 1242 1237
f 1263 1292 1283
f 1275 1231 1243
f 1284 1303 1269
f 1248 1315 1247
f 1306 1298 1287
f 1298 1313 1270
f 1273 1274 1309
f 1308 1281 1273
f 1230 1282 1265
f 1331 1281 1308
f 1224 1314 1279
f 1295 1301 1284
f 1297 1278 1242
f 1277 1246 1292
f 1280 1286 1248
f 1265 1299 1274
f 1282 1299 1265
f 1334 1267 1190
f 1303 1284 1301
f 1276 1250 1387
f 1286 1315 1248
f 1316 1305 1293
f 1274 1299 1309
f 1283 1326 1291
f 1292 1326 1283
f 1231 1275 1290
f 1304 1279 1325
f 1280 1359 1286
f 1308 1273 1309
f 1282 1291 1299
f 1323 1291 1326
f 1285 1332 1262
f 1302 1303 1301
f 1331 1297 1242
f 1304 1334 1232
f 1292 1246 1315
f 1312 1298 1306
f 1359 1280 1313
f 1289 1307 1318
f 1353 1300 1319
f 1210 1334 1190
f 1279 1314 1290
f 1327 1278 1297
f 1328 1275 1276
f 1305 1338 1329
f 1316 1338 1305
f 1340 1289 1318
f 1299 1308 1309
f 1323 1299 1291
f 1325 1279 1290
f 1324 1311 1296
f 1275 1325 1290
f 1332 1211 1262
f 1275 1328 1325
f 1328 1276 1387
f 1278 1327 1285
f 1337 1338 1316
f 1306 1339 1312
f 1298 1359 1313
f 1312 1359 1298
f 1288 1442 1307
f 1353 1319 1340
f 1299 1323 1308
f 1334 1322 1267
f 1308 1323 1331
f 1301 1311 1333
f 1301 1333 1302
f 1333 1303 1302
f 1327 1326 1292
f 1327 1292 1315
f 1327 1349 1285
f 1315 1286 1327
f 1286 1336 1327
f 1286 1359 1336
f 1317 1339 1306
f 1318 1307 1343
f 1452 1250 1267
f 1323 1326 1331
f 1232 1334 1210
f 1387 1250 1452
f 1311 1324 1333
f 1326 1327 1331
f 1331 1327 1297
f 1325 1334 1304
f 1325 1335 1334
f 1335 1325 1328
f 1349 1479 1285
f 1377 1343 1354
f 1322 1347 1267
f 1380 1267 1347
f 1328 1386 1335
f 1346 1340 1318
f 1343 1346 1318
f 1353 1340 1346
f 1377 1346 1343
f 1391 1377 1354
f 1366 1342 1353
f 1355 1347 1322
f 1334 1355 1322
f 1348 1386 1328
f 1348 1328 1387
f 1360 1359 1312
f 1373 1338 1337
f 1350 1343 1307
f 1330 1344 1341
f 1377 1381 1346
f 1355 1393 1347
f 1380 1347 1393
f 1366 1382 1342
f 1357 1369 1356
f 1386 1348 1358
f 1358 1348 1327
f 1327 1348 1349
f 1361 1360 1312
f 1339 1361 1312
f 1350 1330 1341
f 1344 1350 1341
f 1344 1343 1350
f 1374 1362 1345
f 1381 1353 1346
f 1366 1353 1381
f 1391 1381 1377
f 1321 1367 1365
f 1310 1367 1321
f 1395 1381 1370
f 1370 1381 1368
f 1383 1356 1382
f 1211 1483 1310
f 1372 1357 1356
f 1371 1372 1356
f 1360 1371 1397
f 1358 1385 1386
f 1336 1400 1327
f 1327 1400 1358
f 1359 1360 1336
f 1360 1361 1371
f 1416 1330 1350
f 1330 1416 1344
f 1352 1481 1294
f 1344 1427 1343
f 1427 1354 1343
f 1354 1427 1469
f 1375 1363 1376
f 1364 1457 1420
f 1378 1457 1364
f 1364 1365 1378
f 1378 1365 1379
f 1367 1379 1365
f 1394 1393 1355
f 1368 1381 1391
f 1334 1394 1355
f 1452 1267 1380
f 1383 1382 1366
f 1395 1366 1381
f 1383 1366 1395
f 1395 1370 1384
f 1396 1384 1370
f 1368 1396 1370
f 1384 1385 1388
f 1385 1384 1396
f 1397 1356 1383
f 1397 1371 1356
f 1386 1385 1396
f 1415 1335 1386
f 1360 1397 1388
f 1385 1336 1388
f 1400 1336 1385
f 1336 1360 1388
f 1361 1437 1371
f 1416 1427 1344
f 1430 1390 1320
f 1375 1376 1389
f 1389 1376 1390
f 1378 1379 1392
f 1367 1392 1379
f 1380 1393 1450
f 1450 1452 1380
f 1384 1388 1395
f 1405 1396 1368
f 1397 1383 1395
f 1413 1435 1357
f 1388 1397 1395
f 1415 1386 1398
f 1358 1400 1385
f 1437 1399 1371
f 1374 1417 1351
f 1428 1417 1374
f 1374 1345 1428
f 1389 1401 1352
f 1430 1402 1390
f 1389 1390 1401
f 1401 1390 1402
f 1403 1457 1378
f 1378 1392 1403
f 1403 1392 1404
f 1423 1368 1391
f 1367 1404 1392
f 1394 1424 1393
f 1450 1393 1424
f 1405 1368 1423
f 1408 1407 1406
f 1406 1409 1408
f 1406 1407 1410
f 1410 1407 1411
f 1409 1406 1412
f 1412 1406 1410
f 1411 1414 1410
f 1410 1414 1412
f 1396 1398 1386
f 1352 1470 1481
f 1401 1470 1352
f 1401 1418 1470
f 1430 1419 1402
f 1401 1402 1418
f 1418 1402 1419
f 1421 1457 1403
f 1403 1404 1421
f 1421 1404 1422
f 1367 1422 1404
f 1434 1424 1394
f 1334 1434 1394
f 1425 1407 1408
f 1409 1425 1408
f 1426 1411 1425
f 1425 1411 1407
f 1412 1426 1409
f 1409 1426 1425
f 1426 1414 1411
f 1414 1426 1412
f 1428 1345 1476
f 1418 1429 1470
f 1430 1431 1419
f 1418 1419 1429
f 1429 1419 1431
f 1477 1391 1354
f 1432 1457 1421
f 1421 1422 1432
f 1432 1422 1433
f 1447 1423 1391
f 1367 1433 1422
f 1434 1468 1424
f 1450 1424 1468
f 1436 1398 1396
f 1417 1454 1351
f 1427 1416 1443
f 1444 1417 1428
f 1428 1476 1444
f 1469 1427 1443
f 1429 1438 1470
f 1430 1439 1431
f 1429 1431 1438
f 1438 1431 1439
f 1440 1457 1432
f 1432 1433 1440
f 1440 1433 1441
f 1367 1441 1433
f 1436 1396 1405
f 1444 1454 1417
f 1438 1445 1470
f 1430 1446 1439
f 1438 1439 1445
f 1445 1439 1446
f 1448 1457 1440
f 1440 1441 1448
f 1448 1441 1449
f 1367 1449 1441
f 1472 1468 1434
f 1310 1451 1367
f 1334 1472 1434
f 1445 1455 1470
f 1430 1456 1446
f 1445 1446 1455
f 1455 1446 1456
f 1458 1457 1448
f 1448 1449 1458
f 1458 1449 1459
f 1367 1459 1449
f 1367 1451 1459
f 1450 1468 1473
f 1473 1452 1450
f 1453 1464 1435
f 1455 1460 1470
f 1466 1430 1364
f 1430 1461 1456
f 1455 1456 1460
f 1460 1456 1461
f 1462 1457 1458
f 1458 1459 1462
f 1462 1459 1463
f 1474 1436 1405
f 1460 1465 1470
f 1430 1467 1461
f 1460 1461 1465
f 1482 1387 1452
f 1465 1471 1470
f 1415 1334 1335
f 1334 1478 1472
f 1480 1436 1474
f 1475 1334 1415
