# Shoulder-Right-Trigger.obj
# Valve Steam Controller (2015) CAD, CC BY-NC-SA 4.0
v 31.8971 13.7020 18.9062
v 31.9441 14.3991 18.8428
v 32.5137 14.4735 19.7671
v 32.4919 13.6811 20.1073
v 32.7043 13.1533 18.2530
v 32.8068 14.3025 19.5100
v 33.4042 16.5684 20.4239
v 33.2867 16.0446 24.6140
v 33.1803 15.2760 21.0250
v 32.4126 16.3395 23.5778
v 32.8634 15.7812 22.2605
v 33.6719 16.8720 19.0121
v 33.4398 14.3273 21.0499
v 33.2994 18.9004 22.5902
v 33.2778 15.6316 23.7556
v 34.1403 18.7287 18.7840
v 33.6649 20.5751 20.9919
v 33.9497 18.4937 21.8752
v 33.9383 19.2228 24.8021
v 34.0966 15.5689 24.6951
v 33.3259 17.4365 26.8639
v 33.6232 17.6433 27.9074
v 34.2548 19.1564 16.2851
v 34.4807 16.8366 19.3410
v 33.4202 17.2851 23.1896
v 34.6947 15.9649 26.0544
v 34.4984 17.8878 17.0956
v 34.8268 18.7863 18.8737
v 34.2614 17.9145 29.2534
v 34.6275 18.8840 16.5333
v 34.6747 20.0417 15.8037
v 34.8801 20.6572 17.4569
v 34.4203 22.9949 19.1191
v 34.5980 19.9446 21.6321
v 34.6498 20.8498 24.3418
v 34.9251 13.8813 21.5410
v 35.3009 20.8130 15.3735
v 35.0735 18.7855 16.0929
v 35.4744 18.6838 18.1092
v 35.2787 15.2049 20.2598
v 35.2474 18.6943 15.2535
v 35.0962 21.0881 14.9319
v 36.8731 23.8997 18.9292
v 35.6747 22.2087 20.0791
v 35.3669 14.0842 21.3830
v 34.6165 19.3418 29.2569
v 35.7745 22.5326 14.1904
v 35.7258 19.6441 14.9529
v 35.4630 22.1053 16.7090
v 36.1262 21.2470 17.2579
v 35.2259 22.0387 23.2719
v 35.8598 16.1905 22.0729
v 34.7501 21.2837 25.7544
v 35.0986 15.8736 25.3400
v 34.0104 19.3534 27.9210
v 35.8599 17.1174 28.5292
v 36.1611 23.2776 15.8791
v 36.0466 16.8113 19.0434
v 35.2388 21.1892 20.8039
v 36.0091 17.9891 25.0441
v 35.5025 16.7012 27.8657
v 36.0556 17.9888 30.6265
v 36.2082 21.9940 14.7316
v 36.4450 20.4338 16.9256
v 36.3284 16.8364 17.9958
v 36.2198 15.5251 17.9274
v 36.2175 15.6731 18.8661
v 35.8432 15.1297 20.7430
v 35.8368 14.9153 21.4763
v 35.8097 20.9091 28.5102
v 37.2831 24.2713 13.3187
v 36.3557 24.8553 17.8245
v 36.2235 23.8477 21.9049
v 36.2685 16.9686 20.7830
v 36.0245 23.6092 25.1068
v 36.2479 22.6568 14.1864
v 36.6090 23.3263 12.8978
v 36.9156 24.2416 15.2097
v 37.7443 22.4259 15.6153
v 36.7606 17.5436 19.2604
v 36.6249 18.6650 22.5976
v 37.0835 20.5075 25.0448
v 37.1030 19.6427 26.5326
v 37.4321 22.6315 13.0977
v 38.1440 24.5780 13.0915
v 37.5355 23.2376 15.9996
v 37.2405 18.4428 18.1338
v 37.1296 18.8171 19.6919
v 37.3354 20.0747 21.3799
v 36.7641 18.5531 21.1214
v 37.3493 17.0343 30.1141
v 37.0616 25.2567 21.5218
v 37.3616 22.6556 12.6695
v 38.0062 25.2367 12.5650
v 38.4551 25.7142 14.2570
v 37.8507 20.6657 20.0864
v 36.5503 17.2389 22.0903
v 37.1793 20.3298 22.9545
v 37.7913 17.4146 30.8627
v 38.7237 20.4549 16.8822
v 38.7161 19.9532 18.3721
v 39.2715 15.5044 18.0540
v 38.2685 27.0520 21.4435
v 37.3352 25.9668 23.5960
v 38.7289 21.6955 25.4439
v 37.4782 22.6431 27.6739
v 38.6093 19.9916 26.6959
v 36.5414 19.2951 30.4063
v 39.4451 18.0636 18.2567
v 38.8987 19.1329 21.3919
v 38.2733 22.2867 21.6981
v 37.9146 22.1341 23.3774
v 36.9180 23.7668 26.2691
v 39.6258 24.3809 14.2617
v 38.5388 20.8292 18.5183
v 38.6334 22.3341 20.4610
v 38.5349 16.7285 20.9718
v 38.8300 18.1655 22.2534
v 38.0444 20.6158 29.2482
v 38.9121 26.1283 12.0741
v 38.6229 24.6720 12.3156
v 39.1277 24.8096 14.8218
v 39.1047 16.4203 17.8224
v 39.1518 16.1742 18.9186
v 38.6912 14.8800 21.0048
v 38.6368 16.4503 21.8842
v 38.8131 20.4335 22.7985
v 39.1675 23.7795 23.7701
v 38.5189 24.3707 26.6374
v 39.1636 18.2862 27.8598
v 37.1006 17.2296 29.0032
v 39.0308 26.0828 13.2433
v 39.1598 18.8844 19.5533
v 39.5350 21.2964 19.9552
v 39.2188 21.1662 21.9046
v 39.3606 23.5063 22.4811
v 39.1209 27.4003 24.4391
v 39.2721 26.3950 25.4017
v 39.6898 16.7128 31.0363
v 40.2086 22.4537 15.4567
v 40.1785 27.1660 16.7469
v 38.3954 25.6802 17.6623
v 39.4988 23.3387 18.9429
v 39.7146 28.3562 20.5995
v 39.3391 21.8534 22.8522
v 38.3130 18.5305 30.8659
v 39.8300 26.0855 12.0359
v 39.9939 25.7430 11.9278
v 38.8462 26.9443 19.1933
v 39.7646 20.4122 19.0302
v 39.6914 24.9877 22.4440
v 39.7657 24.7679 11.1065
v 40.5013 27.3418 12.8904
v 40.2485 22.4003 16.2130
v 41.4060 26.1534 19.4841
v 40.8140 20.3551 26.2156
v 40.4592 24.8786 11.0395
v 40.5523 26.2081 14.4885
v 40.6803 28.2779 18.2503
v 39.6528 24.5803 20.9088
v 40.8821 26.3332 22.3661
v 40.3186 24.5202 23.9533
v 41.0240 19.6085 29.6356
v 40.3338 16.0157 29.5483
v 40.6841 26.3714 11.7603
v 41.6732 26.4983 11.4181
v 40.6343 18.6117 15.7385
v 40.7783 21.7138 16.1764
v 41.0642 27.8201 16.1904
v 40.0438 28.9092 22.6770
v 39.8745 21.8281 28.2322
v 40.3761 17.8536 31.0942
v 40.5080 27.1135 11.4018
v 41.6098 16.4186 14.4485
v 40.5448 16.1594 15.7687
v 41.4808 23.7471 15.8779
v 40.9710 22.6885 17.3441
v 41.4532 16.0014 31.2668
v 41.8616 27.6746 11.0283
v 40.9178 26.8341 15.1864
v 40.7312 17.5510 16.0690
v 40.7401 19.4983 16.5923
v 41.4515 25.2309 17.8841
v 41.5616 29.5073 23.6198
v 41.7260 21.0046 28.6120
v 41.4358 26.5781 11.1872
v 41.7707 23.5762 14.6390
v 41.5994 19.7490 15.2096
v 42.2124 28.8334 15.6063
v 41.6034 24.0649 26.8516
v 42.0850 26.1794 10.5286
v 42.3206 26.0196 10.5867
v 42.7724 28.7312 12.6347
v 42.8663 29.0878 15.3050
v 41.6553 29.5970 19.9633
v 42.0786 25.9210 23.5060
v 40.8093 26.2841 25.8371
v 42.2056 27.3467 10.3549
v 42.1234 27.0387 11.1785
v 42.4429 26.7614 11.1790
v 41.6929 17.9947 14.8083
v 43.0891 16.2123 14.7273
v 40.7309 21.3482 16.9084
v 41.9291 27.2234 21.5305
v 42.2194 28.2017 25.1807
v 43.4937 21.7088 28.0042
v 39.6088 16.4377 30.5679
v 41.8751 25.8329 13.2070
v 42.0994 22.4365 15.6799
v 40.4298 23.7386 17.4676
v 42.1477 22.8240 24.7859
v 42.2111 18.9717 27.0136
v 43.3333 27.2514 11.1894
v 43.2407 24.2487 14.1660
v 42.8625 20.1136 15.3735
v 42.4372 30.3667 21.6486
v 43.7624 27.5135 22.8373
v 41.8938 17.4581 31.1603
v 42.9729 26.4551 10.1539
v 43.4787 26.1085 10.0994
v 42.6247 24.9014 16.2325
v 43.0414 29.3220 17.9265
v 43.3596 27.7461 11.1416
v 44.0382 29.1142 12.5343
v 43.3853 18.5743 15.3662
v 43.1410 23.3137 16.1658
v 43.8295 20.0362 16.6378
v 43.6454 21.4435 16.9556
v 43.4599 28.0736 21.4118
v 43.8894 30.0569 23.9926
v 42.1612 17.3862 28.0746
v 43.4064 19.0920 29.6498
v 43.6922 29.0975 10.8859
v 43.8720 26.7299 10.4351
v 43.4990 28.5375 12.3248
v 43.8012 16.1679 15.7247
v 43.5925 21.5530 16.2083
v 43.6566 18.6149 16.2986
v 43.7635 17.3197 16.0090
v 43.1667 25.5888 16.2517
v 43.8580 23.1717 17.1884
v 43.7041 24.7244 17.6751
v 43.5619 26.7678 18.1574
v 43.4837 25.9440 7.8640
v 43.2797 26.7150 9.3551
v 44.0234 28.4880 10.9984
v 43.5602 28.5459 15.8818
v 44.9668 30.7670 20.4998
v 44.3340 21.6480 25.2727
v 43.4751 15.0177 29.6441
v 44.4634 27.9035 10.9159
v 44.5333 27.3842 10.9756
v 45.3263 24.8609 13.5416
v 44.2154 28.9240 25.0306
v 42.8746 25.3576 26.2610
v 43.5955 20.2290 26.0542
v 46.3982 13.8438 29.7010
v 45.1867 27.5229 8.7702
v 44.2448 26.8859 10.0773
v 44.9590 27.7372 9.8809
v 43.6495 27.9256 14.8071
v 44.1746 27.8401 19.9905
v 45.5950 28.3671 22.0844
v 44.3020 30.7406 22.7289
v 44.4967 23.8366 24.2699
v 45.0787 26.4524 9.2815
v 45.0633 25.4748 15.2392
v 43.9942 26.5270 17.4465
v 44.4787 30.0466 18.7821
v 44.1383 23.1128 27.2066
v 43.9497 16.7152 31.2656
v 45.3169 14.1290 30.6142
v 45.8418 28.2733 20.5859
v 46.1738 20.3212 25.6880
v 45.4825 18.0400 27.0535
v 44.2804 14.8748 31.2069
v 45.5035 27.2642 10.5304
v 45.8591 26.8132 17.2263
v 45.3737 18.0303 29.9523
v 45.4204 26.4446 9.6574
v 46.9790 27.7800 22.7200
v 46.2699 26.0025 23.4733
v 46.2990 16.0329 28.0969
v 46.5427 28.0313 11.3989
v 46.8121 27.2047 18.1243
v 45.6160 25.1803 26.2495
v 46.1085 27.8368 10.8276
v 45.8351 29.1641 15.3523
v 46.1222 28.7581 15.9532
v 46.6735 23.1890 24.2768
v 46.3424 21.6076 27.7289
v 47.0117 13.4312 30.2456
v 44.4813 26.4044 12.6633
v 45.6838 27.9602 14.4732
v 46.6298 23.7464 22.6644
v 46.5351 20.8555 22.6686
v 46.2107 24.5969 23.9137
v 47.3823 21.9279 24.6813
v 47.2237 15.6120 31.2068
v 47.0057 24.4730 13.7361
v 47.1946 24.9948 21.9571
v 46.9114 17.8411 21.4614
v 47.1580 19.1181 23.5920
v 46.9322 28.5607 15.1098
v 48.2282 30.7785 21.6813
v 46.8061 19.1024 28.9700
v 50.6102 12.9337 31.1625
v 47.3744 27.6308 10.4357
v 47.5932 28.4487 11.3581
v 47.5705 30.1512 19.0689
v 47.2321 22.1818 21.3968
v 47.4732 17.7951 21.6671
v 47.0124 17.6744 23.0835
v 48.6543 24.8367 26.1153
v 47.0408 25.7121 15.5649
v 48.4756 29.1963 17.2792
v 48.4123 27.0690 18.7876
v 47.0960 20.0443 21.0739
v 47.5877 18.0209 20.5528
v 48.1964 28.1052 20.8518
v 47.4321 21.4606 24.3761
v 47.5034 26.7487 25.6565
v 48.6311 20.5035 25.0450
v 47.7761 15.6503 27.9878
v 47.8930 26.4563 12.7086
v 47.9461 28.8969 12.4555
v 48.6368 25.9324 16.6542
v 48.2743 27.8890 21.9841
v 48.2820 18.6902 22.1377
v 48.7244 17.6909 22.7054
v 48.5371 19.0220 24.0705
v 48.4539 18.1898 26.3147
v 49.6403 12.2405 30.2696
v 46.9867 13.7529 31.1778
v 48.4774 23.9806 21.2632
v 47.8489 28.1720 25.2934
v 47.6019 23.0229 26.9016
v 49.0990 19.6698 28.1693
v 48.6835 16.7805 26.9329
v 48.3855 17.0748 29.8278
v 48.4507 27.7875 11.3820
v 48.7128 21.8200 15.1743
v 48.6608 23.9761 13.8520
v 48.6812 18.2300 20.1752
v 48.6501 20.8429 20.5582
v 48.5776 26.0026 21.5531
v 50.2731 12.2463 29.3994
v 49.3489 12.6990 30.9472
v 48.1463 27.3608 10.4742
v 49.6486 26.7321 13.4326
v 49.7731 25.5420 12.6243
v 48.8581 18.8373 16.9199
v 49.5156 18.0435 20.5496
v 49.1206 17.9606 21.4850
v 48.8679 17.2043 25.0291
v 49.5731 21.0323 15.5105
v 49.5520 19.2893 16.7193
v 49.3640 29.9557 19.6575
v 49.4467 18.5348 18.1962
v 48.4202 30.4260 23.3127
v 48.6034 29.5002 24.5505
v 49.7288 17.2370 26.4120
v 49.7979 28.1993 12.9594
v 49.3514 27.7306 14.6961
v 50.1315 20.0728 21.7591
v 49.4830 17.4426 23.4176
v 49.9065 19.6112 25.1023
v 49.9927 23.9002 13.6653
v 49.8950 23.5444 14.3087
v 49.2982 28.2393 15.9055
v 49.9094 25.0005 16.2623
v 49.9364 26.4355 18.7135
v 49.8496 21.1667 17.7070
v 49.7910 20.3965 20.6566
v 49.9221 23.8107 22.0358
v 50.1885 17.6288 22.2449
v 49.9555 26.7638 22.3869
v 50.0659 22.3026 24.0335
v 49.6780 19.2900 23.6956
v 51.8634 22.3701 14.9342
v 51.5869 28.9718 19.6601
v 50.3383 30.1622 21.8761
v 50.9002 26.9439 21.1086
v 50.4003 24.6410 23.3269
v 49.7638 26.9418 25.3871
v 51.3368 27.5284 16.2459
v 51.6826 25.7842 22.4408
v 51.1826 21.3253 26.8918
v 50.8606 28.6182 15.4376
v 51.8598 23.6418 23.2359
v 50.8111 27.3016 25.1558
v 52.3122 22.1524 14.4745
v 51.4634 19.0230 24.9992
v 51.7221 16.5758 26.0946
v 51.0507 13.6704 28.0994
v 51.7787 24.6008 13.0197
v 51.4359 26.0854 13.8341
v 51.6791 20.9200 24.0420
v 51.7591 17.4976 23.4749
v 51.4978 24.4573 25.7067
v 50.8503 16.5720 29.3507
v 50.7100 13.8658 31.1707
v 51.6327 11.4378 29.9627
v 50.7191 28.8521 18.2226
v 51.9097 17.4417 17.0406
v 51.9479 24.3673 17.6710
v 51.8688 22.4439 18.0905
v 51.9657 24.9166 19.0321
v 52.0683 24.1204 22.0749
v 51.8426 22.1311 22.2462
v 52.5662 22.0590 23.3237
v 52.4350 17.4197 23.5522
v 51.9117 11.5406 30.5446
v 51.7913 26.4197 10.9461
v 52.2005 26.4789 11.3548
v 52.6836 26.8693 13.3937
v 52.1237 15.0330 16.3860
v 52.3792 11.1459 15.2525
v 52.0466 19.7936 17.1698
v 52.7671 22.6738 17.1239
v 52.4771 14.5100 17.0469
v 52.3110 19.9174 18.2846
v 52.4816 22.4259 18.9191
v 52.2698 14.0567 20.1367
v 51.9590 15.3582 20.7851
v 52.7329 12.0826 20.8263
v 52.2706 10.1307 19.8971
v 52.6794 21.6467 21.2883
v 52.5158 19.9006 23.7161
v 52.8108 17.0246 25.4610
v 51.7418 18.7366 27.8881
v 53.6394 12.8888 27.3188
v 53.3665 10.4971 29.2891
v 52.7433 15.4130 15.8988
v 53.3018 20.3134 16.6335
v 52.6087 10.9676 16.1866
v 52.6309 17.0208 17.7119
v 52.5606 11.5093 19.3582
v 53.5298 23.4038 20.4982
v 53.2123 28.3396 21.9035
v 52.3163 25.5271 21.1276
v 53.0582 24.2488 21.7022
v 51.9261 18.5980 21.4303
v 52.1329 18.2829 21.9297
v 52.7571 19.7710 22.6832
v 52.7106 25.4483 14.3427
v 52.7794 14.0002 19.8693
v 53.2702 23.1900 19.2014
v 52.6347 16.6433 20.3483
v 52.3967 20.0448 21.0206
v 52.4907 15.5575 21.5647
v 51.1626 29.2752 23.4964
v 53.1889 19.5944 23.9663
v 54.3436 14.0619 29.3725
v 53.2781 12.7470 30.8067
v 53.7930 11.6462 30.6998
v 52.9208 26.4738 16.6010
v 53.5953 20.1094 15.7668
v 53.8118 13.4597 16.4489
v 53.8057 16.7114 17.2122
v 53.9665 20.1239 17.9996
v 53.9852 9.7876 20.1576
v 54.2662 10.3300 20.6916
v 53.7290 23.0688 21.8059
v 53.7500 24.9034 15.5554
v 53.2796 27.8045 15.7277
v 53.5692 13.4473 15.2882
v 53.8258 11.0931 15.9042
v 53.4191 27.6319 20.0207
v 53.9002 15.2969 20.4556
v 53.8539 18.1968 22.4431
v 52.5631 27.8094 24.1219
v 52.6068 15.4704 29.3287
v 53.8004 10.6261 30.2436
v 54.0937 25.9174 13.6047
v 53.6820 17.2371 16.0132
v 53.9885 18.5046 21.0869
v 54.1402 21.1687 21.6346
v 53.6045 12.9806 21.1993
v 52.9920 21.3195 26.3057
v 53.2519 9.6750 29.5675
v 53.7996 23.1283 13.7762
v 55.1087 21.4060 14.6955
v 54.5686 18.7227 16.2570
v 53.0732 18.3613 16.2662
v 54.4629 20.0970 18.8425
v 54.2821 12.1238 19.8415
v 54.6492 26.2809 22.9524
v 54.3285 16.4476 21.9859
v 53.7392 25.5905 24.5820
v 55.0581 11.3085 15.0679
v 54.1064 26.7198 16.1525
v 54.8890 10.8356 16.1607
v 54.0837 25.4852 17.1863
v 54.4908 14.1492 21.4904
v 53.6755 22.8894 25.4671
v 54.7219 16.6581 27.6803
v 53.9455 15.6876 15.7375
v 54.8863 23.7933 16.4176
v 54.9832 24.3453 17.4716
v 54.8671 13.8032 16.8901
v 54.9543 17.4795 17.8214
v 54.7459 20.6031 21.0618
v 54.8838 19.5156 22.8389
v 54.5290 18.2495 26.9409
v 54.9930 25.2167 15.1520
v 54.2015 10.2008 19.6391
v 54.6221 26.4143 20.8505
v 55.0392 19.0527 19.9869
v 54.8616 17.2534 20.5429
v 54.7679 12.0113 20.8904
v 55.4006 17.9339 22.0717
v 55.0872 17.2437 24.1691
v 55.7699 20.4713 15.4086
v 55.8430 15.7514 16.3869
v 55.5307 14.5557 17.9067
v 55.5376 10.5650 18.4318
v 55.0104 13.8708 19.7535
v 55.5564 23.3726 24.1763
v 55.5535 14.6957 25.1991
v 56.3023 11.3100 26.6922
v 55.5066 24.6982 13.4109
v 55.5036 22.9444 16.9110
v 55.6436 23.5463 16.1943
v 55.5801 10.8614 17.0234
v 56.6738 10.2955 18.3155
v 55.4526 25.0203 20.5419
v 55.5584 17.2816 19.6387
v 55.8021 17.5100 22.3359
v 55.5418 21.4050 25.0840
v 56.1132 10.3613 30.1165
v 56.9348 23.2930 15.8988
v 55.4383 13.5547 15.6951
v 56.1515 10.7400 16.1792
v 56.1558 23.5697 20.7953
v 55.9975 14.9758 21.0554
v 56.0598 16.1493 22.9391
v 56.1061 23.3887 16.5568
v 56.7376 14.1091 17.4137
v 56.1364 21.8750 17.5065
v 56.1565 10.3380 19.5111
v 56.0211 12.5393 20.3293
v 56.3669 14.5343 22.8371
v 55.6752 18.8583 26.1197
v 56.3274 14.1192 24.6946
v 56.4420 14.1947 28.1084
v 55.1751 9.8295 28.4338
v 55.1766 9.9563 29.9132
v 56.4016 19.1567 16.0554
v 56.1723 12.6417 16.2202
v 56.5766 22.1355 17.4813
v 56.4717 22.1172 16.6577
v 56.4302 21.0360 17.5161
v 56.2495 22.1130 18.2539
v 56.8018 13.4506 19.3136
v 56.3690 12.3281 20.1323
v 55.6764 24.3961 23.1550
v 56.7320 12.7891 24.8995
v 56.9913 9.6302 26.9605
v 55.8076 11.6303 30.1297
v 56.7459 11.0521 17.0003
v 57.0753 23.0712 17.2264
v 57.0245 19.7790 18.3385
v 56.8532 22.1592 21.6902
v 56.5750 10.6763 21.3017
v 56.9527 8.6409 22.5508
v 56.9613 11.4659 25.0384
v 56.7449 12.1089 22.9455
v 56.4333 9.2880 29.5621
v 57.3266 22.4479 16.2558
v 57.1009 17.6825 17.0368
v 57.5518 20.0171 17.4777
v 57.0874 20.1975 19.0423
v 56.8627 16.0038 17.7187
v 57.2714 9.0808 22.0158
v 56.8386 20.3992 24.4315
v 57.0887 7.2900 23.8256
v 57.1859 9.3823 25.7300
v 57.0496 8.5763 27.8056
v 57.3721 22.1356 16.8217
v 57.3174 22.6510 17.7135
v 57.4767 16.3970 17.7518
v 57.5750 21.5755 18.2658
v 57.8101 15.2660 18.3434
v 57.2717 20.5334 20.7903
v 57.0120 21.3895 23.1562
v 57.3498 7.5618 26.2609
v 57.6358 8.6042 29.0577
v 58.3638 9.2216 29.4662
v 57.4468 20.9076 18.0401
v 57.5868 18.3367 18.9594
v 58.0058 17.0803 19.5361
v 58.1913 13.6102 19.3047
v 57.8491 17.7573 20.1411
v 57.6033 19.9907 22.7327
v 58.0879 6.6855 23.3952
v 57.5440 17.3719 25.4861
v 57.6924 7.4035 25.6379
v 58.8788 19.1403 17.6345
v 57.8446 19.1487 18.5365
v 57.9203 18.4792 18.1859
v 57.8251 18.8807 22.3436
v 59.1771 8.2240 22.4012
v 57.6899 6.4646 25.9606
v 57.7499 14.2713 27.2027
v 58.2374 10.2618 29.3811
v 58.5545 17.8031 19.4216
v 57.6037 18.7661 19.7475
v 58.1471 16.4779 20.2182
v 58.3419 15.2725 19.9698
v 58.5228 11.8523 20.2933
v 58.1645 17.6838 22.7790
v 58.4425 11.2465 28.6051
v 58.9297 19.3386 17.8249
v 58.5834 20.6475 18.3010
v 58.5290 19.0374 18.8897
v 58.1504 16.5518 20.7412
v 58.8649 13.2596 21.5577
v 58.6607 14.0237 20.7520
v 58.5324 15.2163 21.2655
v 58.4089 16.6425 24.2638
v 59.5817 6.5978 25.3519
v 58.9222 7.8369 28.5919
v 58.3577 20.6307 17.3716
v 58.9147 10.0528 21.3728
v 58.9832 11.6604 22.1219
v 58.7159 15.0594 24.0814
v 58.6246 14.2208 26.0229
v 59.1412 19.4407 18.9130
v 59.2892 19.6132 18.4116
v 59.0059 17.9067 19.8068
v 59.4497 12.0526 21.2873
v 59.3803 12.1763 22.6950
v 59.2022 11.5851 22.7624
v 59.4233 6.7604 23.4416
v 58.9171 13.5671 24.8569
v 59.2023 11.5450 26.9120
v 59.6111 13.4496 20.4009
v 59.6036 14.4723 20.9663
v 59.0730 15.1855 21.3136
v 59.6655 10.3669 22.1688
v 59.3300 9.7211 23.5255
v 59.6999 8.7773 23.4291
v 59.6417 8.7962 24.0571
v 59.4734 8.7956 25.1726
v 59.3514 11.0712 24.9618
v 59.5672 9.5131 27.9834
v 59.7040 16.3109 20.4221
v 59.5810 12.5870 21.6503
v 60.1404 12.2769 22.0552
v 60.1940 11.5537 21.4061
v 59.0986 13.6476 21.9292
v 59.9006 10.7528 22.5800
v 59.8830 6.7214 24.5484
v 59.7549 8.6436 25.8313
v 59.7368 6.5426 26.0827
v 59.7923 7.3458 27.7656
v 59.8838 13.6734 20.5569
v 60.7804 12.1521 20.7377
v 60.4911 9.6306 22.2351
v 60.0753 9.0980 23.4048
v 59.8197 10.3778 23.5848
v 60.1958 6.9752 23.9166
v 60.3476 13.3291 20.1615
v 60.9091 12.8443 21.4878
v 60.6533 8.3946 22.8209
v 60.2500 8.4363 24.6954
v 60.6884 8.1283 24.1765
v 60.2203 6.3974 25.5651
v 60.9266 13.1332 20.3170
v 60.6227 11.9319 21.2559
v 60.4684 12.3257 22.2996
v 60.6128 9.7413 22.5137
v 60.7445 8.3891 23.2137
v 61.0923 7.9717 22.9325
v 60.5355 6.4451 24.6323
v 60.9422 12.5717 20.7273
v 60.7241 13.5192 21.6173
v 61.6173 11.2345 22.4745
v 61.0200 9.2730 23.8666
v 61.6636 12.8417 21.5787
v 60.7936 10.5994 23.1232
v 61.6858 8.7654 23.4369
v 61.2036 8.4931 24.1650
v 61.7752 8.3904 22.2541
v 61.2103 8.8318 23.7803
v 62.1225 7.2290 24.4509
v 61.5124 6.8318 24.9540
v 61.6085 5.6895 25.7109
v 61.9135 8.6632 22.5649
v 62.0599 8.9481 23.5418
v 62.0985 7.6582 22.9900
g Shoulder-Right-Trigger
f 3 2 1
f 4 6 5
f 25 10 18
f 10 15 11
f 25 15 10
f 9 15 13
f 11 15 9
f 25 8 15
f 25 21 8
f 16 12 7
f 7 9 13
f 8 20 15
f 19 21 25
f 19 55 21
f 21 55 22
f 13 24 7
f 18 14 34
f 18 19 25
f 29 22 55
f 55 46 29
f 24 28 16
f 24 16 7
f 40 24 13
f 59 34 17
f 18 35 19
f 53 55 19
f 30 31 23
f 36 40 13
f 15 36 13
f 35 18 34
f 34 51 35
f 54 36 15
f 53 19 35
f 26 54 20
f 29 46 62
f 37 42 31
f 41 31 30
f 32 38 27
f 39 28 24
f 45 40 36
f 34 59 51
f 31 41 37
f 38 32 48
f 58 39 24
f 40 58 24
f 54 45 36
f 51 53 35
f 55 70 46
f 38 48 41
f 49 63 32
f 32 63 48
f 50 49 32
f 50 32 28
f 39 50 28
f 44 33 43
f 54 52 45
f 26 61 54
f 46 108 62
f 63 47 37
f 49 57 63
f 64 50 39
f 68 40 45
f 68 45 69
f 59 73 51
f 52 69 45
f 73 75 51
f 75 53 51
f 54 60 52
f 75 55 53
f 61 60 54
f 113 55 75
f 70 108 46
f 87 39 58
f 65 87 58
f 65 58 67
f 65 67 66
f 40 74 58
f 44 73 59
f 68 74 40
f 60 81 52
f 61 83 60
f 55 113 70
f 71 77 47
f 47 76 71
f 57 49 50
f 74 80 58
f 73 44 43
f 69 125 68
f 81 97 52
f 75 73 104
f 56 83 61
f 56 91 131
f 63 57 84
f 85 57 78
f 50 64 79
f 87 64 39
f 74 88 80
f 90 88 74
f 60 82 81
f 83 82 60
f 70 113 106
f 106 108 70
f 71 76 93
f 57 85 84
f 86 78 57
f 86 57 50
f 86 50 79
f 43 92 73
f 90 89 88
f 104 73 92
f 81 82 98
f 75 104 113
f 131 83 56
f 106 119 108
f 86 122 78
f 142 43 72
f 117 90 74
f 52 126 69
f 146 62 108
f 146 99 62
f 78 95 85
f 100 64 87
f 123 65 66
f 67 102 66
f 149 43 142
f 58 124 67
f 92 149 103
f 149 92 43
f 89 96 88
f 125 74 68
f 104 92 103
f 97 126 52
f 82 112 98
f 104 137 113
f 130 83 131
f 146 108 119
f 100 79 64
f 123 87 65
f 80 124 58
f 133 88 96
f 125 117 74
f 111 96 89
f 117 110 90
f 110 89 90
f 126 125 69
f 81 118 97
f 97 118 126
f 82 83 105
f 107 105 83
f 113 129 106
f 130 107 83
f 71 85 94
f 132 85 95
f 122 86 79
f 101 100 87
f 115 100 101
f 123 109 87
f 110 111 89
f 98 127 81
f 127 118 81
f 82 128 112
f 128 82 105
f 146 139 99
f 122 95 78
f 79 114 122
f 102 123 66
f 109 101 87
f 67 124 102
f 133 80 88
f 133 124 80
f 111 116 96
f 110 135 111
f 98 112 127
f 137 129 113
f 91 164 131
f 120 121 147
f 157 85 132
f 143 100 115
f 134 133 96
f 116 134 96
f 149 144 103
f 126 117 125
f 110 117 126
f 170 104 103
f 170 137 104
f 145 127 112
f 128 145 112
f 171 119 106
f 91 207 164
f 111 160 116
f 111 151 160
f 118 110 126
f 135 136 111
f 135 110 118
f 136 151 111
f 127 135 118
f 127 145 135
f 129 137 138
f 156 107 130
f 172 139 146
f 132 148 157
f 95 153 132
f 95 158 153
f 122 158 95
f 140 114 79
f 140 79 100
f 140 100 154
f 100 143 154
f 159 149 142
f 109 123 102
f 150 115 101
f 150 101 109
f 124 109 102
f 150 143 115
f 109 133 150
f 133 109 124
f 150 133 134
f 160 134 116
f 145 136 135
f 128 136 145
f 156 105 107
f 164 130 131
f 171 146 119
f 148 147 121
f 159 142 141
f 210 154 143
f 134 143 150
f 160 143 134
f 170 103 144
f 128 151 136
f 162 151 128
f 105 162 128
f 148 132 153
f 143 160 155
f 138 197 129
f 129 190 106
f 171 163 146
f 163 172 146
f 165 148 152
f 165 147 148
f 158 122 208
f 208 122 114
f 143 155 210
f 149 159 195
f 195 144 149
f 161 160 151
f 137 197 138
f 231 130 164
f 163 171 185
f 166 157 148
f 165 173 147
f 166 148 165
f 167 181 175
f 168 182 167
f 181 167 182
f 203 168 154
f 168 203 182
f 177 154 210
f 154 177 203
f 137 170 184
f 137 205 197
f 197 190 129
f 212 156 130
f 148 153 165
f 208 180 158
f 187 114 140
f 174 167 175
f 154 176 140
f 188 168 167
f 168 176 154
f 155 183 210
f 155 160 204
f 195 170 144
f 204 160 161
f 161 151 162
f 137 184 205
f 105 211 162
f 106 190 171
f 231 212 130
f 199 179 173
f 186 173 165
f 186 199 173
f 201 167 174
f 188 167 201
f 209 176 168
f 172 178 139
f 153 166 165
f 168 188 209
f 247 159 141
f 170 195 216
f 196 161 162
f 105 156 211
f 255 190 197
f 186 191 199
f 199 166 186
f 186 166 199
f 199 166 186
f 186 166 199
f 214 208 114
f 114 187 214
f 175 202 174
f 176 187 140
f 247 141 169
f 159 247 195
f 184 170 216
f 171 206 185
f 190 206 171
f 172 163 218
f 207 250 164
f 172 218 178
f 199 200 191
f 200 199 192
f 192 166 200
f 153 193 200
f 153 200 166
f 225 188 201
f 236 202 175
f 215 209 188
f 226 176 209
f 182 238 181
f 238 239 181
f 203 227 182
f 177 228 203
f 183 155 243
f 211 265 162
f 256 211 156
f 199 200 219
f 191 200 199
f 213 179 199
f 213 223 179
f 180 208 261
f 201 174 202
f 189 247 169
f 176 221 240
f 247 222 195
f 242 177 210
f 183 242 210
f 204 161 217
f 217 161 196
f 205 184 230
f 250 231 164
f 199 200 213
f 200 193 235
f 202 225 201
f 214 187 176
f 225 215 188
f 176 240 214
f 239 175 181
f 221 176 226
f 227 238 182
f 241 228 177
f 195 222 269
f 269 216 195
f 229 204 217
f 156 212 256
f 232 218 163
f 218 271 178
f 223 199 219
f 192 213 220
f 192 200 213
f 223 213 199
f 200 199 213
f 235 213 200
f 237 209 215
f 226 209 237
f 239 236 175
f 228 227 203
f 242 241 177
f 243 242 183
f 204 262 155
f 204 229 262
f 184 216 264
f 184 264 230
f 265 297 162
f 190 270 206
f 232 163 185
f 207 272 250
f 232 271 218
f 271 276 178
f 223 219 234
f 261 208 293
f 239 225 202
f 241 221 226
f 230 254 205
f 286 270 190
f 246 245 198
f 220 259 234
f 259 223 234
f 234 223 213
f 234 213 223
f 213 234 220
f 202 236 239
f 288 247 194
f 215 227 237
f 225 227 215
f 221 241 240
f 242 240 241
f 262 243 155
f 264 216 248
f 297 196 162
f 249 211 256
f 205 322 197
f 197 286 255
f 275 256 212
f 275 212 231
f 185 206 232
f 233 244 258
f 223 259 251
f 251 246 223
f 214 293 208
f 238 225 239
f 225 238 227
f 237 227 228
f 228 241 237
f 237 241 226
f 240 242 268
f 243 268 242
f 248 216 269
f 249 265 211
f 246 260 245
f 252 259 234
f 234 213 252
f 235 252 213
f 253 293 214
f 268 267 240
f 247 269 222
f 282 217 196
f 297 282 196
f 255 286 190
f 231 250 275
f 272 257 250
f 279 271 232
f 234 259 252
f 235 224 252
f 267 214 240
f 229 273 262
f 229 217 263
f 279 232 206
f 277 280 234
f 259 266 251
f 277 234 252
f 277 252 224
f 294 261 293
f 289 269 247
f 268 243 278
f 262 278 243
f 263 273 229
f 290 265 249
f 322 286 197
f 291 206 270
f 251 266 277
f 251 277 287
f 277 224 284
f 214 267 253
f 268 278 267
f 305 264 248
f 275 274 256
f 294 304 261
f 274 290 249
f 274 249 256
f 286 291 270
f 250 283 275
f 291 279 206
f 283 250 257
f 267 300 253
f 300 267 315
f 248 269 310
f 263 217 281
f 282 281 217
f 254 336 205
f 291 306 279
f 271 279 299
f 287 277 284
f 325 294 293
f 247 288 289
f 262 285 278
f 262 273 285
f 360 230 264
f 254 230 361
f 290 297 265
f 336 322 205
f 337 291 286
f 267 278 315
f 292 257 272
f 271 334 276
f 287 284 309
f 300 293 253
f 310 269 289
f 305 360 264
f 295 290 296
f 297 295 282
f 295 297 290
f 298 290 274
f 324 275 283
f 306 299 279
f 300 351 293
f 273 320 285
f 263 320 273
f 318 295 296
f 318 296 313
f 318 313 302
f 301 281 282
f 301 282 295
f 296 303 313
f 303 296 321
f 298 296 290
f 296 298 321
f 360 361 230
f 361 336 254
f 322 314 286
f 308 309 284
f 351 325 293
f 364 294 325
f 343 300 315
f 278 327 315
f 285 327 278
f 316 310 289
f 305 248 310
f 263 281 320
f 311 295 318
f 274 323 298
f 314 337 286
f 275 332 274
f 283 257 324
f 306 340 299
f 299 307 271
f 271 307 334
f 364 304 294
f 317 285 320
f 319 318 302
f 312 319 302
f 301 295 311
f 313 312 302
f 291 338 306
f 341 284 326
f 343 351 300
f 317 327 285
f 318 345 311
f 335 301 311
f 281 328 320
f 303 321 331
f 332 323 274
f 324 332 275
f 341 349 284
f 343 315 327
f 289 288 370
f 344 318 319
f 335 346 301
f 328 281 301
f 346 328 301
f 330 329 312
f 313 330 312
f 303 331 313
f 334 307 348
f 316 289 370
f 316 358 310
f 320 346 317
f 382 305 310
f 345 318 344
f 345 335 311
f 312 354 319
f 328 346 320
f 329 354 312
f 321 323 331
f 298 323 321
f 385 322 336
f 324 339 332
f 338 291 337
f 338 340 306
f 343 327 345
f 342 344 352
f 343 344 342
f 343 345 344
f 327 317 345
f 317 346 345
f 353 344 319
f 346 335 345
f 354 353 319
f 313 366 330
f 355 313 331
f 355 366 313
f 361 391 336
f 323 339 331
f 323 332 339
f 331 339 355
f 292 347 257
f 333 347 292
f 350 364 325
f 352 356 342
f 344 359 352
f 358 382 310
f 382 360 305
f 354 329 330
f 338 401 340
f 257 395 324
f 395 257 347
f 340 402 299
f 350 325 351
f 368 343 342
f 288 389 370
f 357 356 352
f 357 352 359
f 353 359 344
f 330 376 354
f 330 366 376
f 391 385 336
f 355 362 366
f 363 364 350
f 343 368 351
f 369 368 342
f 369 342 356
f 370 404 316
f 374 373 356
f 374 356 357
f 404 358 316
f 353 374 357
f 353 357 359
f 354 376 353
f 360 452 361
f 367 379 362
f 362 379 366
f 322 400 314
f 314 388 337
f 355 339 362
f 388 338 337
f 373 369 356
f 374 371 369
f 375 371 374
f 369 373 374
f 375 372 371
f 353 365 374
f 376 365 353
f 377 372 375
f 375 374 365
f 379 376 366
f 367 378 379
f 394 362 339
f 395 339 324
f 386 404 370
f 404 381 358
f 377 383 372
f 384 377 375
f 378 375 365
f 378 365 376
f 384 375 378
f 378 376 379
f 385 400 322
f 388 431 338
f 401 338 431
f 340 401 402
f 299 402 307
f 397 350 351
f 396 351 368
f 371 380 369
f 370 389 386
f 381 382 358
f 377 387 383
f 452 360 382
f 387 377 384
f 339 395 394
f 396 397 351
f 380 368 369
f 372 406 371
f 383 406 372
f 472 361 452
f 472 391 361
f 393 378 367
f 391 400 385
f 362 393 367
f 400 480 314
f 333 403 347
f 348 307 413
f 416 363 350
f 406 380 371
f 408 406 383
f 390 387 384
f 398 384 378
f 393 398 378
f 397 416 350
f 380 392 368
f 381 440 382
f 394 393 362
f 314 480 388
f 455 307 402
f 363 416 414
f 383 441 408
f 384 411 390
f 411 384 398
f 399 398 394
f 398 393 394
f 473 402 401
f 446 397 396
f 392 396 368
f 406 420 380
f 386 466 457
f 417 405 421
f 419 422 405
f 419 407 422
f 386 381 404
f 406 408 407
f 469 440 381
f 443 444 425
f 410 443 450
f 409 387 390
f 409 390 410
f 452 382 440
f 410 390 411
f 429 398 399
f 399 430 412
f 394 430 399
f 347 403 433
f 403 481 433
f 473 455 402
f 456 413 307
f 392 482 396
f 418 417 421
f 418 421 436
f 485 405 434
f 434 405 417
f 485 419 405
f 420 407 419
f 405 437 421
f 420 406 407
f 437 405 422
f 422 407 423
f 423 407 408
f 448 408 441
f 438 424 427
f 449 425 424
f 424 425 426
f 424 426 427
f 449 443 425
f 425 451 426
f 451 425 444
f 387 441 383
f 428 410 450
f 428 409 410
f 443 445 444
f 410 445 443
f 411 445 410
f 412 429 399
f 411 398 429
f 347 432 395
f 431 473 401
f 433 432 347
f 455 456 307
f 446 416 397
f 446 396 482
f 467 434 417
f 467 417 418
f 476 485 434
f 435 419 485
f 435 420 419
f 457 381 386
f 457 469 381
f 408 448 423
f 438 447 424
f 448 441 439
f 449 450 443
f 426 451 479
f 441 387 442
f 428 442 409
f 409 442 387
f 445 411 429
f 430 429 412
f 472 490 391
f 490 400 391
f 496 480 400
f 388 505 431
f 395 432 394
f 475 415 416
f 507 438 427
f 487 447 438
f 447 449 424
f 426 463 427
f 442 439 441
f 445 471 444
f 452 440 472
f 430 453 429
f 490 496 400
f 480 505 388
f 497 473 431
f 413 456 474
f 446 482 465
f 380 458 392
f 436 468 418
f 498 476 434
f 458 380 420
f 435 458 420
f 484 435 485
f 421 459 436
f 460 421 437
f 421 460 459
f 460 437 461
f 437 422 461
f 448 461 423
f 422 423 461
f 507 487 438
f 507 427 462
f 470 449 447
f 427 463 462
f 479 451 495
f 464 442 428
f 444 489 451
f 429 453 445
f 505 497 431
f 454 455 473
f 446 475 416
f 436 459 468
f 457 494 469
f 487 470 447
f 449 477 450
f 428 450 477
f 464 439 442
f 464 428 478
f 471 489 444
f 432 430 394
f 446 465 475
f 483 392 458
f 467 498 434
f 435 484 458
f 460 501 459
f 502 460 461
f 510 449 470
f 510 477 449
f 477 478 428
f 504 471 445
f 453 504 445
f 488 472 440
f 472 488 490
f 513 453 430
f 483 482 392
f 491 467 418
f 468 493 418
f 494 457 492
f 461 448 486
f 469 494 527
f 448 439 486
f 486 439 503
f 518 470 487
f 426 511 463
f 469 508 488
f 503 439 464
f 479 511 426
f 440 469 488
f 464 478 503
f 489 495 451
f 513 504 453
f 530 480 496
f 544 505 480
f 493 491 418
f 483 458 484
f 459 493 468
f 492 500 494
f 502 501 460
f 461 486 502
f 469 527 508
f 503 478 477
f 496 490 519
f 433 547 432
f 546 473 497
f 546 454 473
f 560 455 454
f 482 483 499
f 498 467 533
f 533 467 491
f 482 499 465
f 485 476 515
f 515 476 498
f 515 484 485
f 501 493 459
f 486 509 502
f 509 486 503
f 518 510 470
f 503 477 510
f 557 490 488
f 519 490 557
f 519 530 496
f 521 430 432
f 456 455 560
f 474 456 548
f 515 498 533
f 502 516 501
f 500 527 494
f 502 509 528
f 509 503 510
f 510 528 509
f 495 511 479
f 508 527 488
f 536 495 489
f 504 512 471
f 489 471 512
f 520 513 430
f 531 548 456
f 506 522 475
f 523 499 483
f 534 491 493
f 549 483 484
f 501 516 493
f 527 500 554
f 517 487 507
f 517 518 487
f 528 510 518
f 462 541 507
f 462 463 541
f 542 463 511
f 511 495 542
f 512 536 489
f 488 527 557
f 520 545 513
f 521 520 430
f 547 521 432
f 560 531 456
f 549 514 483
f 533 491 550
f 483 514 523
f 525 534 493
f 525 493 516
f 516 517 525
f 502 528 516
f 516 528 517
f 507 526 517
f 528 518 517
f 507 541 526
f 463 542 541
f 542 495 536
f 529 536 512
f 512 504 529
f 504 513 529
f 530 544 480
f 523 552 524
f 523 514 540
f 523 540 552
f 484 515 574
f 526 534 525
f 581 554 500
f 517 526 525
f 527 554 535
f 557 527 535
f 529 537 536
f 537 529 545
f 545 529 513
f 605 546 497
f 491 534 550
f 549 540 514
f 515 533 539
f 539 533 550
f 540 549 553
f 540 551 552
f 536 543 542
f 536 537 543
f 537 545 543
f 530 519 576
f 576 544 530
f 571 549 484
f 574 571 484
f 561 550 534
f 551 562 538
f 551 540 553
f 561 534 526
f 535 554 573
f 555 526 556
f 556 526 541
f 542 556 541
f 535 573 564
f 543 556 542
f 557 535 564
f 543 565 556
f 557 564 586
f 543 545 565
f 565 545 568
f 519 557 576
f 557 586 576
f 576 597 544
f 558 545 520
f 520 521 558
f 597 505 544
f 597 605 505
f 605 497 505
f 579 521 547
f 546 560 454
f 531 569 548
f 606 531 560
f 552 570 532
f 580 551 538
f 550 561 539
f 549 571 563
f 515 539 574
f 549 563 553
f 526 539 561
f 555 574 539
f 555 539 526
f 568 566 565
f 568 567 566
f 545 558 568
f 568 558 567
f 567 558 521
f 567 521 559
f 571 591 563
f 582 571 574
f 563 572 553
f 583 554 581
f 584 574 555
f 585 564 573
f 566 575 565
f 586 564 585
f 567 578 566
f 566 578 577
f 567 559 578
f 559 521 579
f 613 560 546
f 588 569 589
f 569 531 589
f 582 591 571
f 582 574 584
f 573 615 629
f 608 585 573
f 611 555 556
f 595 585 608
f 625 556 565
f 595 586 585
f 576 586 595
f 577 596 566
f 576 595 597
f 598 577 578
f 578 587 598
f 578 559 579
f 578 579 587
f 605 613 546
f 613 606 560
f 606 589 531
f 601 572 563
f 591 601 563
f 584 591 582
f 592 591 584
f 593 584 555
f 611 593 555
f 602 608 594
f 595 608 602
f 577 622 596
f 597 595 621
f 598 622 577
f 600 624 614
f 601 599 572
f 616 590 600
f 601 591 592
f 610 584 593
f 592 584 609
f 584 610 609
f 617 594 609
f 625 611 556
f 612 602 594
f 612 594 617
f 575 625 565
f 566 603 575
f 596 603 566
f 595 602 612
f 621 595 612
f 587 604 598
f 628 605 597
f 607 616 600
f 629 608 573
f 631 594 608
f 619 610 593
f 612 617 620
f 621 612 620
f 596 635 603
f 597 621 628
f 594 631 609
f 619 593 611
f 631 617 609
f 618 619 611
f 617 640 620
f 620 619 618
f 627 620 618
f 603 625 575
f 620 627 621
f 628 621 627
f 628 637 605
f 605 637 613
f 588 589 623
f 630 629 616
f 616 629 630
f 629 631 608
f 648 640 617
f 652 619 620
f 626 618 611
f 626 611 625
f 652 620 640
f 636 627 618
f 636 618 626
f 634 636 626
f 628 627 636
f 637 628 636
f 657 623 589
f 631 648 617
f 619 652 638
f 638 652 632
f 652 633 632
f 634 626 625
f 642 625 603
f 634 625 642
f 646 634 642
f 596 622 635
f 637 636 634
f 637 634 646
f 637 647 613
f 606 613 647
f 606 647 589
f 649 639 658
f 640 678 652
f 632 633 641
f 641 633 662
f 603 643 642
f 635 643 603
f 646 642 644
f 645 644 643
f 645 643 635
f 622 654 635
f 645 646 644
f 655 645 635
f 647 646 645
f 637 646 647
f 645 655 647
f 589 647 657
f 632 659 638
f 649 658 677
f 650 639 649
f 641 651 632
f 653 649 651
f 633 652 672
f 650 649 653
f 643 666 641
f 644 662 667
f 654 655 635
f 622 655 654
f 656 655 622
f 657 655 656
f 647 655 657
f 659 664 638
f 670 677 658
f 651 659 632
f 665 639 650
f 671 649 677
f 671 651 649
f 678 672 652
f 633 672 679
f 644 666 643
f 644 663 666
f 644 667 663
f 667 669 663
f 673 674 661
f 661 674 668
f 680 667 682
f 668 674 676
f 664 659 670
f 659 671 651
f 651 671 659
f 678 665 672
f 665 672 650
f 650 672 665
f 663 675 666
f 686 661 668
f 680 684 667
f 656 689 657
f 672 665 681
f 666 674 675
f 675 674 666
f 686 684 668
f 668 684 686
f 688 669 667
f 666 685 660
f 666 674 675
f 675 674 666
f 686 683 691
f 686 691 683
f 691 686 680
f 668 683 686
f 686 684 680
f 685 690 666
f 666 690 685
f 675 685 666
f 667 684 687
f 690 692 674
