# Special.obj
# Valve Steam Controller (2015) CAD, CC BY-NC-SA 4.0
v -5.4570 -3.6052 9.2802
v -5.4499 -7.8138 9.3447
v -5.3688 -12.5156 9.2907
v -5.3631 -13.4634 9.3147
v -5.8683 -3.6052 10.2895
v -5.8282 -9.0316 10.2890
v -5.7697 -12.8449 10.3734
v -5.8186 -14.0108 10.5201
v -5.6461 -15.4354 10.1080
v -5.6036 -16.7139 10.0834
v -5.6076 -18.1463 10.1307
v -5.5116 -19.0960 10.2584
v -6.1265 -3.6052 11.4268
v -6.1063 -8.6586 11.6860
v -5.9540 -12.0267 10.8208
v -5.9705 -12.7456 11.1409
v -5.9477 -13.9852 11.0760
v -5.9492 -15.6411 11.3702
v -5.9381 -16.7704 11.3512
v -5.9398 -18.2108 11.3857
v -5.6748 -19.4640 11.4445
v -6.1588 -3.6052 12.5336
v -6.1257 -7.8163 12.6373
v -6.0982 -9.0795 12.6597
v -5.9997 -12.7033 13.0302
v -5.9942 -14.0901 12.9738
v -5.9894 -15.4698 12.8542
v -5.9420 -16.8000 12.8290
v -5.9694 -18.2594 12.6310
v -5.7171 -19.6297 12.6200
v -5.8298 -3.6052 14.0849
v -5.8598 -7.8150 14.0298
v -5.6697 -9.0300 14.5154
v -5.6828 -12.0347 14.3778
v -5.7353 -12.5573 14.1414
v -5.6922 -14.1027 14.2301
v -5.6876 -15.3160 14.1058
v -5.6762 -16.8144 14.0546
v -5.6995 -18.1442 14.0127
v -5.5920 -19.5720 13.9827
v -5.4358 -20.1237 13.8101
v -5.4295 -3.6052 15.0625
v -5.4569 -8.8417 14.9820
v -5.4658 -12.5270 14.8571
v -5.4157 -14.1903 14.9088
v -5.3994 -15.5436 14.9006
v -5.3803 -16.7647 14.8910
v -5.3660 -17.6819 14.8838
v -4.2424 -3.6052 7.6929
v -4.3704 -9.2108 7.8860
v -4.3480 -12.0629 7.8952
v -4.2289 -12.8020 7.8493
v -4.2468 -14.0226 7.8651
v -4.2028 -15.3348 7.8869
v -4.1624 -16.8208 7.8841
v -4.1463 -18.1594 7.8901
v -4.7821 -3.6052 8.6535
v -4.5561 -7.8035 8.8043
v -5.0863 -8.9126 8.7736
v -4.9445 -12.0492 8.6176
v -4.8003 -12.8317 8.5189
v -4.7513 -14.0001 8.4530
v -4.8394 -15.3333 8.6293
v -4.8587 -16.8439 8.7202
v -4.7472 -18.2991 8.6558
v -4.5714 -19.0041 8.9420
v -4.5464 -3.6052 10.1115
v -4.5063 -7.7914 10.1127
v -4.3982 -11.9776 9.9749
v -4.2767 -15.0856 9.8597
v -5.2028 -18.0295 9.5601
v -4.7340 -19.4232 10.0480
v -4.9361 -3.6052 11.3973
v -4.8991 -7.7914 11.3565
v -4.8832 -11.9776 11.5681
v -4.8722 -15.3368 11.8627
v -4.7181 -19.8848 11.3126
v -4.2643 -20.2338 11.8127
v -4.9017 -3.7434 12.5661
v -4.8812 -4.8223 12.5608
v -4.8993 -5.6580 12.5268
v -4.9258 -7.5858 12.4358
v -4.8745 -8.9745 12.4885
v -4.8815 -10.0494 12.4648
v -4.8570 -11.4137 12.4594
v -4.6680 -12.3183 12.5144
v -4.9549 -19.9999 12.3861
v -4.6374 -20.2643 12.6799
v -4.6625 -3.6963 14.0548
v -4.7581 -4.5557 13.5982
v -4.7422 -6.0043 13.6068
v -4.6711 -7.1948 13.8530
v -4.6568 -9.2921 13.5073
v -4.6558 -9.7487 13.5141
v -4.5616 -11.9936 14.0500
v -4.4562 -12.8030 13.4612
v -4.5547 -14.0038 13.5109
v -4.5659 -15.4894 13.6018
v -4.5636 -16.3089 13.8527
v -4.3010 -19.3806 13.7991
v -4.7032 -20.4871 14.0379
v -4.6109 -3.6052 15.3866
v -4.5775 -7.7992 15.0735
v -4.9841 -9.0527 15.7367
v -4.5923 -12.0225 15.4152
v -5.0988 -12.7432 15.4634
v -4.9539 -13.9653 15.6460
v -5.0507 -15.2827 15.4229
v -4.9884 -16.8653 15.4621
v -4.9985 -18.2117 15.4745
v -4.8651 -19.3950 15.5224
v -4.5865 -20.5179 15.3869
v -4.3724 -3.6052 16.5434
v -4.3822 -7.8082 16.4891
v -4.3255 -8.9288 16.5268
v -4.2677 -12.0554 16.5450
v -4.3333 -12.7640 16.4343
v -4.2383 -13.9146 16.4971
v -4.3023 -15.4939 16.4148
v -4.3225 -16.8889 16.3284
v -4.2492 -18.1805 16.4077
v -4.2486 -19.4818 16.2568
v -4.2056 -20.4735 16.2626
v -2.7420 -8.6419 6.6912
v -3.2800 -3.6052 6.9522
v -3.4799 -7.8056 7.1178
v -3.3868 -8.7926 7.0894
v -3.3430 -12.0468 7.0986
v -3.5029 -12.8574 7.2425
v -3.4895 -14.0893 7.2445
v -3.4959 -15.3629 7.2904
v -3.4114 -16.8323 7.2801
v -3.3241 -18.3197 7.4104
v -3.2669 -18.9644 7.9428
v -3.3639 -3.6052 8.4930
v -3.4466 -7.7914 8.6192
v -3.4648 -11.9776 8.7045
v -3.5485 -15.1564 8.8395
v -3.3487 -18.4626 8.7244
v -3.3495 -19.3292 8.8260
v -3.1290 -18.6416 9.7433
v -3.4403 -19.7658 10.0688
v -3.0988 -20.1620 10.6940
v -3.5012 -19.6318 11.2016
v -3.3845 -20.3286 11.4069
v -3.1672 -3.6052 12.7666
v -3.0639 -11.5322 12.6606
v -3.0368 -13.1530 12.8536
v -3.0365 -19.5922 12.7469
v -3.4239 -20.6007 12.6530
v -3.2309 -19.8279 14.0376
v -3.3297 -20.8454 13.9997
v -3.6511 -3.7156 15.5195
v -3.5504 -4.8422 15.6076
v -3.5343 -5.6432 15.5960
v -3.6378 -7.4506 15.4964
v -3.5282 -8.8153 15.5528
v -3.6055 -10.1554 15.5345
v -3.7090 -12.0043 15.3727
v -3.4866 -12.6688 15.4680
v -3.6116 -13.6200 15.4799
v -3.6625 -15.8178 15.3989
v -3.7010 -16.5935 15.3322
v -3.1854 -19.8820 14.9028
v -3.3259 -20.9748 15.3244
v -3.1424 -3.7231 16.6094
v -2.7589 -4.6553 16.1966
v -2.7385 -5.9530 16.1659
v -2.7948 -7.5391 16.3415
v -2.9546 -8.7644 16.4125
v -2.6906 -9.9448 16.2248
v -3.6113 -12.0444 17.1000
v -3.5199 -12.8769 17.0945
v -3.5458 -13.8843 17.0815
v -3.4366 -15.2790 17.0863
v -3.4187 -16.8727 17.0773
v -3.3316 -18.1693 17.1612
v -3.4925 -19.4168 16.9547
v -3.3396 -20.7393 16.7794
v -2.9502 -3.6052 17.6127
v -3.0709 -8.9217 17.4929
v -3.0139 -12.0419 17.4928
v -2.9790 -12.6877 17.4994
v -2.9710 -13.9367 17.4791
v -2.8482 -15.6886 17.5129
v -2.9219 -16.5270 17.4548
v -2.0141 -3.6052 6.3520
v -1.8472 -7.7986 6.3214
v -2.0011 -8.7579 6.3989
v -1.9372 -12.0434 6.4034
v -1.9763 -12.7667 6.4463
v -1.9068 -14.1473 6.4396
v -2.0035 -15.3525 6.5070
v -1.9918 -16.7907 6.5277
v -1.8249 -18.0301 6.5451
v -2.1343 -3.6052 7.6627
v -2.1226 -7.7914 7.7005
v -1.9344 -11.9776 7.6542
v -2.6484 -13.0023 6.7779
v -2.6119 -14.0396 6.7371
v -2.5538 -15.2547 6.8322
v -2.5287 -16.8428 6.7826
v -2.1759 -18.3378 6.9181
v -2.0055 -18.9565 7.6208
v -2.5033 -18.5078 9.1648
v -2.1191 -19.5608 8.7334
v -2.6120 -18.7555 9.7221
v -2.1820 -19.9390 9.6893
v -1.9933 -20.2492 10.3513
v -2.1313 -19.5348 11.4849
v -2.0938 -20.6290 11.4581
v -2.0089 -19.8753 12.6869
v -2.0033 -20.9207 12.7078
v -2.1981 -3.6052 14.5311
v -2.3516 -11.7189 14.3848
v -1.7498 -13.4543 14.6887
v -1.9387 -15.2869 14.4935
v -2.2298 -19.9955 13.9276
v -2.0475 -21.0888 13.9763
v -1.8599 -3.6052 14.9486
v -1.7590 -11.8245 14.9259
v -2.5825 -12.9672 16.0099
v -2.6180 -14.2662 16.0743
v -2.6082 -14.8492 16.0714
v -1.6105 -20.0936 14.8808
v -2.0133 -21.1726 15.2808
v -2.1213 -3.6052 16.7074
v -2.0927 -7.7914 16.6838
v -2.6716 -10.6671 16.0849
v -2.4084 -11.7568 16.3801
v -2.6401 -13.1147 16.2671
v -2.6307 -14.1303 16.2497
v -2.5645 -16.8633 17.1580
v -2.4490 -19.3406 17.1807
v -2.0992 -21.1203 16.7811
v -2.3832 -3.6950 17.9183
v -2.2851 -4.5355 17.9808
v -1.8977 -5.5257 18.3137
v -1.7025 -8.7547 18.0662
v -1.8915 -12.0375 17.9743
v -1.7685 -12.8211 17.9689
v -1.7550 -14.0139 17.9706
v -1.9417 -15.3561 17.8479
v -2.1292 -16.8902 17.7661
v -2.0787 -18.1263 17.7975
v -2.0520 -19.2139 17.7616
v -1.9715 -20.6910 17.6828
v -2.1448 -3.6052 18.9413
v -2.1364 -4.6187 18.9205
v -1.9858 -5.4479 18.8691
v -0.8222 -3.6584 4.8577
v -0.9657 -4.6113 4.8937
v -0.6637 -5.4231 4.9327
v -1.2864 -3.6718 6.0838
v -1.2215 -4.5613 5.7577
v -0.7150 -5.5523 5.9472
v -0.4536 -8.6694 6.0678
v -0.6958 -12.0283 6.1276
v -0.8286 -12.8443 6.1864
v -0.7041 -14.0409 6.1841
v -0.7132 -15.3288 6.2074
v -0.8261 -16.9016 6.2693
v -0.7100 -18.0905 6.3834
v -0.7872 -3.6650 7.3030
v -0.4767 -4.8148 7.3229
v -0.5075 -6.0533 7.3147
v -0.6422 -7.4418 7.3360
v -0.5445 -8.8967 7.3335
v -0.5397 -10.2787 7.3550
v -0.6218 -11.5833 7.3952
v -0.6239 -18.6279 6.8851
v -0.6721 -19.0625 7.5307
v -0.3220 -3.6052 8.2122
v -0.4481 -18.6192 8.9306
v -0.7156 -19.7413 8.8008
v -0.8718 -19.6781 9.7834
v -0.7110 -20.3569 10.1783
v -0.5316 -19.7018 11.3902
v -0.7360 -20.7655 11.4322
v -0.6034 -20.0017 12.4907
v -0.7450 -21.0349 12.7000
v -0.6675 -21.1019 14.0325
v -0.3346 -3.6052 15.7545
v -0.4399 -11.8665 15.7257
v -0.4236 -13.5200 15.6474
v -0.6915 -21.2105 15.3002
v -0.6841 -3.7040 17.0835
v -0.5211 -4.8023 17.0857
v -0.5124 -5.9775 17.0622
v -0.7815 -7.4578 17.0365
v -0.5619 -9.0284 17.0424
v -0.5463 -10.0421 17.0211
v -0.7099 -11.6460 17.0172
v -0.4796 -12.7976 16.7971
v -0.6838 -21.3047 16.7764
v -0.5767 -5.6209 18.3549
v -0.8114 -8.8118 18.2495
v -0.7855 -12.0232 18.2245
v -0.8214 -12.8086 18.1760
v -0.7859 -13.9858 18.1779
v -0.8084 -15.3654 18.1365
v -0.7260 -16.8426 18.1253
v -0.7977 -18.0948 18.1173
v -0.7593 -19.2010 18.0794
v -0.7332 -20.9031 17.8580
v -0.0000 -4.4570 19.0276
v 0.8038 -3.6570 4.8565
v 0.9983 -4.6079 4.8990
v 0.6285 -5.4304 4.9350
v 1.2820 -3.7391 6.0786
v 1.2268 -4.6060 5.8102
v 0.7769 -5.5430 5.9442
v 0.5454 -8.8016 6.0748
v 0.0437 -9.4668 6.0516
v 0.6640 -12.0149 6.1240
v 0.7554 -12.8120 6.1745
v 0.7247 -14.0303 6.1867
v 0.6377 -15.3233 6.2125
v 0.7615 -16.8860 6.2537
v 0.6986 -18.0769 6.3636
v 0.7502 -3.6868 7.2920
v 0.4793 -4.8204 7.3225
v 0.5035 -5.8720 7.3111
v 0.6979 -7.3765 7.3531
v 0.5634 -9.0148 7.3192
v 0.5559 -10.3312 7.3407
v 0.6497 -11.6153 7.3766
v 0.5569 -12.0684 7.3498
v 1.2047 -14.7830 7.4413
v 0.6614 -18.6297 6.9161
v 0.5836 -19.0792 7.5580
v 0.3111 -3.6052 8.2216
v 0.0007 -15.0256 8.4625
v 0.3582 -18.6040 8.9033
v 0.5970 -19.7256 8.8109
v 0.4167 -19.2233 10.1287
v 0.6071 -20.3217 10.1500
v 0.5961 -19.7034 11.4174
v 0.5774 -20.7584 11.4235
v 0.5966 -19.9992 12.4880
v 0.6342 -21.0338 12.6975
v 0.6221 -21.1139 14.0544
v 0.3051 -3.6052 15.7187
v 0.3116 -11.8700 15.5849
v 0.4249 -13.5200 15.6474
v 0.0007 -15.4168 15.4982
v 0.6493 -21.1372 15.3254
v 0.6970 -3.6791 17.0800
v 0.5199 -5.0410 17.0797
v 0.5112 -5.8196 17.0632
v 0.9145 -7.6781 17.0239
v 0.5624 -9.0390 17.0418
v 0.5445 -9.7478 17.0246
v 0.7439 -11.6940 17.0179
v 0.4809 -12.7976 16.7971
v 0.6297 -21.1918 16.6977
v 0.7345 -5.6138 18.3376
v 0.9202 -8.8937 18.2366
v 0.0436 -9.4648 18.3125
v 0.8253 -12.0064 18.2189
v 0.7257 -12.7558 18.2006
v 0.8681 -14.1816 18.1607
v 0.7503 -15.2976 18.1432
v 0.6657 -16.7901 18.1298
v 0.7227 -18.0724 18.1261
v 0.7586 -19.1447 18.0730
v 0.7264 -20.9163 17.8596
v 0.0000 -5.4294 18.9444
v 2.1256 -3.6052 6.3896
v 1.8485 -7.7826 6.3212
v 2.0586 -8.7283 6.4180
v 2.0168 -12.0070 6.4295
v 2.0334 -12.7503 6.4630
v 1.9172 -14.0954 6.4442
v 1.9818 -15.3153 6.5059
v 1.9652 -16.8185 6.5250
v 1.8289 -18.0018 6.5342
v 1.9633 -3.6052 7.5781
v 2.4528 -7.8231 7.8692
v 2.6724 -9.1256 8.0009
v 2.6605 -10.1049 8.0039
v 2.2781 -11.8317 7.8230
v 2.5777 -12.8815 7.1042
v 2.6036 -14.1039 6.7420
v 2.5592 -15.2136 6.8067
v 2.5319 -16.8624 6.7709
v 2.1837 -18.3049 6.8800
v 1.9862 -18.9561 7.6203
v 2.6501 -12.2883 8.2188
v 1.8582 -18.4082 9.0822
v 2.0634 -19.5572 8.7648
v 1.9338 -3.6052 9.7096
v 1.6500 -18.5211 9.3898
v 2.1822 -19.9205 9.7276
v 1.9823 -20.2376 10.3335
v 2.2436 -19.4981 11.4302
v 2.0402 -20.5745 11.3098
v 2.1640 -19.8947 12.9140
v 2.0358 -20.9252 12.6519
v 2.3401 -20.0085 13.8224
v 2.0640 -21.0797 13.9918
v 2.6289 -20.0675 15.3547
v 2.0438 -21.1470 15.3097
v 2.1130 -3.6052 16.7142
v 2.0564 -7.7914 16.7034
v 2.0333 -11.9776 16.6727
v 2.5779 -16.9402 17.2047
v 2.5624 -19.0291 17.2147
v 2.1097 -21.1582 16.7694
v 2.3976 -3.6769 17.9074
v 2.2850 -4.5630 17.9800
v 1.8238 -5.5472 18.2839
v 1.9248 -8.8371 17.9865
v 1.9479 -12.0055 17.9550
v 1.9804 -12.8068 17.8983
v 1.7272 -13.9742 17.9756
v 1.8782 -15.2114 17.8730
v 2.0814 -16.9220 17.7874
v 2.1458 -18.2263 17.7652
v 2.0597 -19.4489 17.7624
v 1.9684 -20.7589 17.6758
v 2.1182 -3.6052 18.9622
v 2.1298 -4.6966 18.9311
v 1.9810 -5.4380 18.8895
v 2.7436 -8.6133 6.6910
v 3.1688 -3.6526 7.2804
v 2.7317 -4.7379 7.9936
v 2.7158 -5.9280 7.9957
v 2.8840 -7.2904 7.7911
v 3.1488 -8.6679 7.3531
v 3.3678 -11.9915 7.1145
v 3.4896 -12.8252 7.2346
v 3.4834 -14.1003 7.2393
v 3.4828 -15.3385 7.2873
v 3.4004 -16.8054 7.2679
v 3.3107 -18.3275 7.4119
v 3.2705 -18.9647 7.9447
v 3.1577 -3.7917 8.4617
v 3.2947 -4.6679 8.5633
v 3.2896 -5.7805 8.5959
v 3.2929 -7.4179 8.6046
v 3.2736 -8.7301 8.6109
v 3.3571 -10.1943 8.6866
v 3.4369 -11.5220 8.7597
v 3.3524 -12.3369 8.9444
v 3.6092 -13.9995 8.8911
v 3.6348 -14.9191 8.9287
v 3.5212 -18.5481 8.6561
v 3.3725 -19.3127 8.8105
v 3.2283 -18.6120 9.7676
v 3.3996 -19.7818 10.1447
v 2.9352 -20.1897 10.6561
v 3.8584 -3.6052 11.4750
v 3.3651 -19.3606 11.4484
v 3.3737 -20.3355 11.4796
v 3.2070 -19.6628 12.9156
v 3.4740 -20.6357 12.6911
v 3.1542 -19.8359 13.8695
v 3.3913 -20.8502 14.0071
v 3.4724 -3.6052 15.7792
v 3.6752 -7.7914 15.5144
v 3.4343 -11.9776 15.7126
v 3.2643 -16.8727 15.7653
v 3.0767 -19.9649 15.1989
v 3.3457 -20.9735 15.3320
v 3.3239 -3.6052 16.8806
v 3.0682 -7.7857 16.5801
v 3.7078 -8.8448 17.0674
v 3.3356 -11.9827 16.8081
v 3.4969 -12.8632 17.1108
v 3.5875 -13.8706 17.0423
v 3.5356 -15.2069 17.0193
v 3.4513 -16.9143 17.0486
v 3.3944 -18.2204 17.0983
v 3.4808 -19.6281 16.9682
v 3.3781 -20.8031 16.7402
v 2.9498 -3.6052 17.6137
v 2.8382 -7.7768 17.6330
v 3.0222 -8.8326 17.5221
v 2.9775 -11.9957 17.5144
v 2.9541 -12.6761 17.5138
v 2.9850 -13.5121 17.4799
v 2.8543 -15.1678 17.5201
v 2.9354 -16.5085 17.4478
v 2.7401 -20.6482 17.4718
v 4.2178 -3.6052 7.6685
v 4.1903 -7.7722 7.6892
v 4.2428 -8.9045 7.7592
v 4.2573 -11.9961 7.8043
v 4.2356 -12.8599 7.8676
v 4.2177 -13.8967 7.8520
v 4.2009 -15.3465 7.8803
v 4.1583 -16.8558 7.8704
v 4.1501 -18.1566 7.8875
v 4.8764 -3.6052 8.6919
v 4.4859 -7.7784 8.7106
v 5.1139 -8.7312 8.8081
v 4.8517 -11.9733 8.4880
v 4.8942 -12.7868 8.6283
v 4.7337 -14.1039 8.4356
v 4.8652 -15.3560 8.6563
v 4.8610 -16.8574 8.7130
v 4.7435 -18.2661 8.6437
v 4.5488 -18.9871 8.9063
v 4.4616 -3.6052 9.9111
v 4.5829 -7.4681 10.3057
v 4.7148 -10.3390 10.7043
v 4.3872 -11.9831 9.9535
v 5.1888 -18.0546 9.5335
v 4.6819 -19.4250 10.0245
v 4.8496 -3.7749 11.4152
v 4.8682 -4.7089 11.4039
v 4.8395 -5.9503 11.4235
v 4.8163 -7.3446 11.3734
v 4.6862 -8.8324 10.8086
v 4.6535 -10.0137 10.8307
v 4.5874 -11.6683 10.9040
v 4.7623 -12.3977 11.8865
v 4.8686 -14.1694 11.9843
v 4.8464 -16.5670 12.0412
v 4.7481 -19.8521 11.2738
v 4.3510 -20.1619 11.8041
v 4.9727 -3.6052 12.7705
v 4.9287 -7.7914 12.8570
v 4.9026 -11.9776 12.7622
v 4.9212 -20.0252 12.1921
v 4.5870 -20.2857 12.7179
v 4.6482 -3.6052 14.0206
v 4.5602 -7.7914 14.1587
v 4.4763 -11.9776 14.2612
v 4.4512 -16.3594 14.1414
v 4.7401 -20.4727 13.9951
v 4.6123 -3.6052 15.4202
v 4.2728 -7.7889 14.9740
v 4.8591 -8.9092 15.9229
v 4.7370 -11.9774 15.4415
v 5.0694 -12.8017 15.4953
v 5.0923 -13.9738 15.4312
v 5.0008 -15.2269 15.4958
v 4.9740 -16.8696 15.4763
v 5.0140 -18.2896 15.4334
v 4.8617 -19.3638 15.5152
v 4.5964 -20.5086 15.3761
v 4.4591 -3.6052 16.4545
v 4.4517 -8.7694 16.3981
v 4.4196 -11.9866 16.3886
v 4.3169 -12.7977 16.4423
v 4.2005 -13.9212 16.5328
v 4.3315 -15.4018 16.3753
v 4.3124 -16.9055 16.3395
v 4.2837 -18.0799 16.3753
v 4.3150 -19.5295 16.2417
v 4.1857 -20.5152 16.2620
v 5.4558 -3.6052 9.2754
v 5.4388 -9.1537 9.3480
v 5.3741 -11.9755 9.2801
v 5.3669 -12.9611 9.3028
v 5.3634 -13.4935 9.3157
v 5.7726 -3.6052 10.0145
v 5.7870 -9.1515 10.1719
v 5.5399 -11.9716 9.6089
v 5.5798 -12.8797 9.9124
v 5.7145 -14.1183 10.2602
v 5.5970 -15.5058 10.0023
v 5.6226 -16.7155 10.1220
v 5.6208 -18.1807 10.1723
v 5.5254 -19.0896 10.2844
v 6.1324 -3.6052 11.4689
v 6.0780 -8.8724 11.5140
v 6.0265 -11.9705 11.2025
v 5.9651 -12.8182 11.1662
v 5.9582 -13.9543 11.1193
v 5.9401 -15.5259 11.3337
v 5.9304 -16.8122 11.3041
v 5.9206 -18.2822 11.3548
v 5.6906 -19.4273 11.4290
v 6.1607 -3.6052 12.5263
v 6.1345 -7.7632 12.5572
v 6.1348 -8.7056 12.2171
v 6.1050 -11.9712 12.2983
v 6.0299 -12.8719 12.7688
v 6.0020 -14.0483 12.9033
v 5.9977 -15.6816 12.4929
v 5.9587 -16.8260 12.7919
v 5.9580 -18.2518 12.6501
v 5.7361 -19.6088 12.6218
v 5.8449 -3.6052 14.1508
v 5.6464 -7.7650 14.5903
v 5.7247 -8.8184 14.3691
v 5.6647 -11.9468 14.4483
v 5.6921 -12.7684 14.2695
v 5.7157 -14.0764 14.1746
v 5.6044 -15.3575 14.3248
v 5.6817 -16.7960 14.0526
v 5.7137 -18.2183 13.9170
v 5.5918 -19.5391 14.0161
v 5.4392 -20.1254 13.7882
v 5.5168 -3.6052 14.9646
v 5.4976 -8.8354 14.9069
v 5.4845 -11.9813 14.8700
v 5.4644 -12.7578 14.8382
v 5.4103 -14.1983 14.9049
v 5.4016 -15.4488 14.9005
v 5.3805 -16.8044 14.8899
v 5.3663 -17.7109 14.8828
g Special
f 136 137 135
f 221 225 220
f 371 372 369
f 59 61 57
f 115 166 113
f 135 307 5
f 488 486 489
f 487 489 486
f 497 495 498
f 284 283 286
f 344 343 347
f 92 89 95
f 545 544 466
f 166 220 113
f 249 248 250
f 249 248 238
f 237 248 236
f 221 219 220
f 86 146 149
f 86 79 146
f 216 214 220
f 430 426 431
f 89 31 42
f 146 79 89
f 426 369 378
f 228 227 230
f 589 587 590
f 379 382 378
f 588 590 587
f 82 73 75
f 588 587 598
f 74 73 75
f 68 69 67
f 197 198 196
f 506 505 508
f 425 426 431
f 425 369 426
f 267 270 264
f 488 486 431
f 430 426 486
f 430 431 486
f 82 73 79
f 514 523 511
f 479 477 480
f 579 577 580
f 248 287 236
f 370 372 369
f 524 528 523
f 423 412 422
f 348 287 248
f 252 251 253
f 252 251 307
f 486 426 438
f 308 309 307
f 534 536 533
f 534 533 528
f 511 559 453
f 461 460 533
f 461 533 536
f 189 187 190
f 215 218 214
f 422 410 348
f 461 462 460
f 188 187 190
f 411 410 422
f 467 469 466
f 467 466 460
f 467 469 404
f 467 404 466
f 405 404 469
f 423 422 424
f 156 105 102
f 405 406 404
f 544 533 477
f 148 149 146
f 103 105 102
f 438 486 392
f 587 577 533
f 495 486 438
f 523 568 511
f 410 533 404
f 533 598 404
f 113 153 102
f 124 125 187
f 124 128 125
f 127 125 128
f 147 146 149
f 598 587 466
f 598 466 404
f 127 49 125
f 127 49 128
f 255 254 251
f 169 166 172
f 496 498 495
f 23 22 25
f 535 533 544
f 487 431 486
f 115 116 113
f 59 60 57
f 535 544 546
f 545 546 544
f 104 117 113
f 214 153 113
f 169 166 227
f 220 214 113
f 160 153 214
f 528 577 523
f 554 495 505
f 156 102 153
f 187 125 57
f 533 577 528
f 33 34 31
f 102 89 42
f 79 73 22
f 24 22 25
f 104 42 106
f 273 321 310
f 307 254 5
f 254 307 251
f 43 106 42
f 43 44 42
f 103 42 106
f 333 332 273
f 14 13 16
f 294 287 283
f 351 348 354
f 351 404 406
f 222 220 166
f 310 307 264
f 371 369 431
f 425 431 369
f 306 248 250
f 306 422 248
f 264 307 196
f 67 57 13
f 13 57 5
f 57 135 5
f 2 3 1
f 59 3 1
f 58 57 61
f 170 172 166
f 50 57 49
f 126 125 128
f 124 187 128
f 189 128 187
f 351 348 404
f 14 13 5
f 222 225 220
f 348 343 287
f 577 568 523
f 287 343 283
f 306 424 422
f 429 431 426
f 496 495 444
f 441 444 495
f 410 404 348
f 89 79 31
f 378 369 321
f 290 227 287
f 290 287 293
f 291 293 287
f 599 598 600
f 58 137 57
f 136 57 137
f 413 414 410
f 468 469 466
f 82 85 79
f 355 343 348
f 569 559 568
f 287 227 236
f 422 348 248
f 488 486 495
f 57 125 49
f 5 187 1
f 535 533 536
f 497 495 554
f 497 554 556
f 559 554 505
f 555 554 559
f 196 307 135
f 332 321 273
f 104 105 102
f 518 511 453
f 254 187 5
f 441 438 444
f 443 444 438
f 511 559 505
f 14 25 22
f 14 22 13
f 273 310 264
f 181 180 166
f 321 369 310
f 158 159 153
f 479 466 477
f 389 393 392
f 507 511 508
f 288 289 287
f 291 287 289
f 496 505 495
f 496 508 505
f 22 67 13
f 73 67 22
f 180 227 166
f 6 5 7
f 371 310 369
f 189 187 254
f 414 410 412
f 217 214 219
f 265 264 266
f 466 544 477
f 322 323 321
f 324 327 321
f 267 264 196
f 324 378 321
f 352 350 348
f 379 426 378
f 588 598 600
f 68 67 73
f 68 73 75
f 599 598 536
f 569 580 577
f 58 67 69
f 58 57 67
f 346 283 343
f 31 79 22
f 477 533 410
f 445 392 394
f 517 453 511
f 488 495 498
f 236 227 180
f 169 182 166
f 467 460 462
f 467 466 480
f 252 307 309
f 379 382 426
f 413 477 410
f 267 196 198
f 324 382 378
f 197 196 135
f 197 135 137
f 478 480 477
f 413 414 477
f 312 311 310
f 315 312 310
f 371 315 310
f 189 254 258
f 258 254 256
f 59 57 3
f 58 60 57
f 497 556 495
f 514 511 512
f 441 438 439
f 255 251 252
f 311 308 307
f 439 438 426
f 427 439 426
f 389 438 439
f 327 322 321
f 379 427 426
f 270 264 265
f 445 439 438
f 517 511 512
f 518 512 511
f 506 512 511
f 82 79 80
f 156 153 154
f 169 167 166
f 222 166 167
f 255 252 253
f 311 309 308
f 252 309 253
f 440 439 427
f 428 440 427
f 270 265 266
f 379 428 427
f 445 440 439
f 506 513 512
f 517 512 513
f 514 512 513
f 82 80 81
f 86 81 80
f 92 91 90
f 156 154 155
f 222 167 168
f 169 168 167
f 355 349 350
f 294 289 288
f 423 424 412
f 368 250 424
f 357 250 296
f 309 256 253
f 424 357 412
f 312 256 309
f 296 250 238
f 424 250 357
f 313 312 315
f 257 258 256
f 239 238 240
f 297 296 298
f 413 412 414
f 358 412 357
f 358 357 360
f 314 315 312
f 257 312 315
f 359 360 357
f 297 238 298
f 239 298 238
f 358 360 412
f 413 412 360
f 268 267 266
f 379 429 428
f 445 441 440
f 222 168 169
f 294 290 289
f 429 441 428
f 441 440 428
f 441 442 443
f 506 515 514
f 506 516 515
f 379 441 429
f 588 600 590
f 467 480 469
f 379 381 380
f 379 380 430
f 169 171 170
f 405 469 406
f 534 530 536
f 461 536 462
f 58 69 137
f 267 198 270
f 290 293 230
f 351 406 354
f 496 444 508
f 467 462 469
f 169 172 182
f 58 60 61
f 103 106 105
f 32 34 35
f 327 325 324
f 270 267 268
f 389 441 442
f 86 83 82
f 430 442 379
f 442 441 379
f 413 360 414
f 297 298 360
f 239 240 298
f 599 536 600
f 497 556 498
f 468 469 546
f 488 489 431
f 371 431 372
f 371 372 315
f 189 258 190
f 189 190 128
f 127 128 129
f 170 116 172
f 127 128 52
f 104 105 106
f 59 60 61
f 59 60 3
f 380 442 430
f 325 326 327
f 268 270 269
f 291 292 293
f 555 561 556
f 535 546 536
f 488 498 489
f 50 52 51
f 50 51 60
f 33 35 34
f 445 443 442
f 517 515 516
f 96 93 94
f 294 292 291
f 355 352 353
f 381 443 380
f 443 442 380
f 507 508 517
f 389 443 444
f 86 85 84
f 222 229 230
f 444 443 381
f 382 444 381
f 600 591 590
f 556 499 498
f 546 537 536
f 546 469 470
f 489 432 431
f 469 480 481
f 480 414 415
f 372 431 373
f 414 360 361
f 372 316 315
f 298 361 360
f 258 315 316
f 70 137 69
f 138 137 139
f 463 464 462
f 520 517 519
f 329 382 327
f 385 382 387
f 463 469 462
f 99 100 95
f 201 203 198
f 98 95 100
f 240 299 298
f 190 258 259
f 172 183 182
f 116 173 172
f 117 105 106
f 3 60 61
f 600 537 601
f 546 470 547
f 600 601 591
f 372 373 316
f 489 490 432
f 469 481 470
f 298 299 361
f 480 415 481
f 414 361 415
f 190 259 191
f 546 547 537
f 258 316 259
f 116 117 173
f 240 241 299
f 172 173 183
f 51 52 61
f 389 390 393
f 162 159 160
f 382 383 389
f 445 450 448
f 432 383 373
f 129 191 199
f 160 218 151
f 160 151 164
f 96 100 149
f 96 97 98
f 548 547 470
f 563 562 564
f 582 581 591
f 548 547 472
f 300 299 301
f 481 415 470
f 500 499 490
f 62 52 54
f 62 61 52
f 53 54 52
f 7 3 61
f 384 375 373
f 538 537 539
f 52 61 129
f 260 259 316
f 374 373 375
f 300 299 361
f 242 241 243
f 300 241 299
f 300 243 241
f 260 261 259
f 562 557 499
f 471 472 470
f 130 199 129
f 200 201 199
f 548 472 470
f 548 547 549
f 62 63 61
f 53 129 52
f 130 129 131
f 192 193 191
f 601 537 591
f 537 470 547
f 416 417 415
f 8 61 7
f 8 7 9
f 362 363 361
f 17 7 16
f 17 16 18
f 362 415 417
f 17 9 7
f 260 316 318
f 260 191 193
f 260 259 191
f 491 492 490
f 26 25 35
f 572 571 573
f 174 175 173
f 118 117 175
f 36 35 37
f 130 201 199
f 317 316 318
f 317 373 375
f 384 383 385
f 433 383 432
f 491 432 490
f 500 492 490
f 118 173 117
f 118 175 173
f 222 223 224
f 592 582 581
f 591 592 581
f 571 572 562
f 537 602 601
f 562 563 557
f 563 558 557
f 557 558 499
f 547 548 537
f 500 491 490
f 470 471 547
f 471 548 547
f 491 433 432
f 482 471 470
f 481 482 470
f 383 384 373
f 361 416 415
f 373 374 316
f 374 317 316
f 317 260 259
f 242 300 299
f 260 192 191
f 173 184 183
f 192 200 199
f 199 200 129
f 174 184 173
f 200 130 129
f 118 174 173
f 129 130 52
f 130 53 52
f 52 53 61
f 53 62 61
f 61 62 3
f 36 45 44
f 3 4 7
f 26 36 35
f 7 8 16
f 8 17 16
f 162 160 161
f 361 362 416
f 491 492 434
f 433 434 385
f 384 375 385
f 260 261 193
f 200 201 193
f 62 54 63
f 26 27 37
f 17 9 18
f 582 593 583
f 602 539 593
f 317 375 318
f 260 318 261
f 107 108 119
f 45 37 108
f 45 46 107
f 36 37 45
f 37 46 45
f 27 37 36
f 26 27 36
f 8 9 17
f 592 593 582
f 572 573 563
f 602 603 592
f 603 593 592
f 539 603 602
f 538 539 602
f 549 539 538
f 472 549 548
f 471 472 548
f 491 492 433
f 492 434 433
f 433 434 384
f 434 385 384
f 384 385 374
f 385 375 374
f 362 363 416
f 363 417 416
f 374 375 317
f 300 301 362
f 301 363 362
f 317 318 260
f 242 243 300
f 260 261 192
f 261 193 192
f 192 193 200
f 174 175 184
f 200 201 130
f 201 131 130
f 118 175 174
f 119 175 118
f 130 131 53
f 131 54 53
f 53 54 62
f 594 584 583
f 574 565 564
f 594 593 584
f 574 573 565
f 540 594 593
f 539 540 593
f 539 593 594
f 564 565 501
f 540 539 594
f 549 550 539
f 549 539 540
f 473 550 549
f 501 502 492
f 501 492 493
f 492 493 434
f 493 492 435
f 492 434 435
f 493 435 434
f 407 473 472
f 434 435 385
f 435 385 386
f 385 386 375
f 385 375 376
f 386 376 375
f 364 418 417
f 375 376 318
f 364 363 418
f 376 375 319
f 376 319 318
f 318 319 261
f 318 261 262
f 319 318 262
f 262 261 194
f 193 201 202
f 175 176 243
f 202 201 132
f 176 175 233
f 131 132 54
f 131 54 55
f 132 131 55
f 132 55 54
f 54 55 63
f 54 63 64
f 55 54 64
f 55 64 63
f 37 38 108
f 38 109 108
f 37 108 109
f 63 64 9
f 38 37 109
f 28 38 37
f 28 27 38
f 502 493 492
f 472 473 549
f 484 473 472
f 302 364 363
f 319 262 261
f 261 262 193
f 262 194 193
f 186 244 243
f 193 194 201
f 175 176 185
f 176 186 185
f 194 202 201
f 201 202 131
f 202 132 131
f 120 176 175
f 119 120 175
f 108 109 119
f 47 109 108
f 46 47 108
f 37 38 46
f 38 47 46
f 64 10 9
f 27 28 37
f 10 19 18
f 18 19 27
f 19 28 27
f 583 584 573
f 573 574 564
f 603 604 593
f 604 594 593
f 540 604 603
f 539 540 603
f 565 502 501
f 418 473 484
f 186 176 244
f 585 586 584
f 586 576 574
f 595 585 584
f 594 595 584
f 576 575 574
f 596 595 594
f 575 566 565
f 566 567 565
f 594 584 585
f 595 594 585
f 575 574 566
f 541 542 540
f 509 565 567
f 503 502 504
f 509 504 502
f 540 594 596
f 550 542 540
f 473 474 550
f 503 493 502
f 494 493 503
f 473 550 552
f 436 493 494
f 436 435 493
f 474 473 552
f 474 475 473
f 408 474 473
f 407 408 473
f 407 473 474
f 408 407 474
f 387 435 436
f 387 386 435
f 420 419 418
f 387 376 386
f 377 376 387
f 366 420 418
f 320 376 377
f 320 319 376
f 366 364 420
f 263 319 320
f 263 262 319
f 246 304 302
f 244 302 304
f 263 194 262
f 246 244 304
f 263 195 194
f 234 246 244
f 203 202 194
f 203 194 195
f 233 244 246
f 234 233 246
f 203 132 202
f 203 133 132
f 120 122 176
f 122 178 176
f 133 55 132
f 133 56 55
f 120 176 178
f 109 111 120
f 65 64 55
f 56 65 55
f 122 120 178
f 111 120 122
f 65 64 66
f 71 64 66
f 71 12 10
f 11 10 12
f 28 30 38
f 12 21 19
f 19 21 28
f 28 38 40
f 12 10 21
f 584 585 574
f 585 575 574
f 605 595 594
f 604 605 594
f 541 605 604
f 540 541 604
f 565 566 502
f 566 503 502
f 550 551 540
f 551 541 540
f 474 551 550
f 493 494 435
f 494 436 435
f 418 419 473
f 419 474 473
f 435 436 386
f 436 387 386
f 376 377 319
f 377 320 319
f 319 320 262
f 320 263 262
f 245 303 302
f 176 177 244
f 177 245 244
f 121 177 176
f 120 121 176
f 110 121 120
f 109 110 120
f 55 56 64
f 56 65 64
f 47 48 109
f 48 110 109
f 38 39 47
f 39 48 47
f 64 65 10
f 65 11 10
f 29 39 38
f 28 29 38
f 19 20 28
f 20 29 28
f 39 110 48
f 605 541 595
f 509 504 510
f 509 510 567
f 71 66 12
f 71 12 72
f 71 72 66
f 263 195 203
f 387 320 377
f 263 330 320
f 271 263 272
f 566 567 503
f 567 504 503
f 551 542 541
f 365 366 419
f 304 366 365
f 303 304 365
f 263 271 330
f 245 304 303
f 320 330 387
f 263 203 272
f 177 246 245
f 263 271 203
f 205 139 141
f 65 66 11
f 66 12 11
f 203 204 133
f 387 388 436
f 207 205 141
f 56 65 66
f 503 504 494
f 387 330 388
f 387 388 331
f 330 387 331
f 203 204 272
f 320 330 271
f 263 320 271
f 203 271 272
f 56 133 66
f 504 494 436
f 208 205 207
f 330 331 388
f 271 272 331
f 330 271 331
f 271 330 272
f 330 331 272
f 139 133 140
f 448 436 449
f 110 111 121
f 139 66 133
f 448 504 436
f 203 271 204
f 39 40 110
f 40 111 110
f 30 40 39
f 29 30 39
f 11 12 20
f 12 21 20
f 20 21 29
f 21 30 29
f 271 272 204
f 503 436 494
f 56 133 65
f 139 140 66
f 436 449 391
f 388 436 391
f 436 388 449
f 133 140 206
f 204 133 206
f 72 12 66
f 503 504 436
f 133 66 65
f 451 450 394
f 133 204 140
f 448 504 449
f 336 334 276
f 334 274 276
f 510 504 567
f 140 66 65
f 388 391 449
f 204 206 140
f 586 585 595
f 586 595 596
f 576 566 575
f 585 586 575
f 586 576 575
f 595 596 585
f 596 586 585
f 576 567 566
f 567 575 576
f 567 566 575
f 542 532 596
f 542 543 541
f 542 552 541
f 552 543 542
f 552 474 476
f 475 476 474
f 475 408 409
f 419 420 474
f 421 409 408
f 367 420 366
f 366 420 419
f 66 133 140
f 133 134 140
f 437 436 449
f 504 449 436
f 133 204 134
f 436 437 388
f 305 367 366
f 305 366 304
f 305 246 247
f 245 246 304
f 204 272 206
f 247 234 235
f 179 235 234
f 177 178 246
f 122 179 178
f 122 111 112
f 388 331 391
f 272 204 275
f 204 206 275
f 331 388 335
f 388 391 335
f 111 40 101
f 272 275 206
f 331 335 391
f 272 275 335
f 331 272 335
f 272 331 275
f 331 335 275
f 134 204 140
f 437 449 391
f 388 437 391
f 449 504 510
f 66 72 142
f 140 66 142
f 66 140 72
f 454 451 396
f 451 394 396
f 208 142 144
f 140 142 72
f 149 144 87
f 210 208 144
f 449 510 451
f 72 12 21
f 576 510 567
f 338 336 278
f 449 391 451
f 210 144 149
f 510 521 576
f 72 21 77
f 504 510 451
f 449 504 451
f 454 396 398
f 510 567 521
f 391 451 394
f 140 142 208
f 206 140 208
f 72 77 12
f 12 77 21
f 567 576 521
f 140 206 142
f 542 532 543
f 111 101 112
f 206 208 142
f 576 586 526
f 521 576 526
f 576 521 586
f 510 521 454
f 451 510 454
f 510 451 521
f 21 30 77
f 72 77 142
f 449 451 394
f 391 449 394
f 521 526 586
f 206 275 208
f 142 77 144
f 456 398 400
f 458 456 400
f 391 335 394
f 275 206 276
f 206 208 276
f 335 391 337
f 391 394 337
f 77 30 87
f 596 542 543
f 275 276 208
f 454 521 455
f 451 454 521
f 335 337 394
f 275 276 277
f 278 210 212
f 552 553 543
f 338 278 280
f 340 338 280
f 246 247 304
f 247 305 304
f 451 454 455
f 275 277 337
f 335 275 337
f 394 451 395
f 208 142 209
f 144 142 145
f 275 335 277
f 178 179 246
f 179 247 246
f 335 337 277
f 526 586 527
f 122 112 123
f 144 77 145
f 596 597 586
f 30 40 41
f 87 30 88
f 122 123 178
f 123 179 178
f 552 476 553
f 40 112 111
f 142 144 143
f 122 123 179
f 77 87 88
f 208 276 209
f 521 526 522
f 521 522 455
f 78 77 88
f 77 78 145
f 458 400 402
f 464 458 402
f 394 337 395
f 208 209 277
f 276 208 277
f 276 277 209
f 143 144 145
f 400 398 401
f 451 395 452
f 142 143 209
f 101 112 40
f 532 596 543
f 510 521 455
f 451 510 455
f 522 526 527
f 280 212 218
f 597 527 586
f 475 409 476
f 455 522 457
f 88 30 101
f 30 41 101
f 78 88 145
f 451 452 455
f 464 402 403
f 400 401 403
f 30 88 41
f 475 476 552
f 521 526 527
f 421 476 475
f 420 421 475
f 281 280 282
f 367 421 420
f 597 527 532
f 145 88 150
f 402 403 408
f 88 101 41
f 341 281 282
f 342 341 282
f 282 218 219
f 452 395 455
f 452 455 397
f 395 452 397
f 522 527 457
f 209 143 211
f 143 145 211
f 41 40 101
f 143 209 145
f 596 532 597
f 211 143 142
f 209 211 142
f 395 397 455
f 209 211 145
f 597 532 586
f 527 586 532
f 342 282 286
f 209 277 211
f 395 337 397
f 209 211 279
f 277 209 279
f 457 527 459
f 527 532 459
f 395 397 339
f 337 395 339
f 527 457 532
f 88 101 152
f 150 88 152
f 277 279 211
f 78 150 88
f 88 150 101
f 78 145 150
f 337 339 397
f 457 459 532
f 150 152 101
f 337 277 339
f 277 279 339
f 277 337 279
f 337 339 279
f 397 455 399
f 145 150 211
f 455 399 457
f 459 532 543
f 211 150 213
f 485 476 421
f 553 476 543
f 112 123 179
f 235 247 179
f 455 457 397
f 485 421 409
f 485 409 476
f 459 543 465
f 101 112 165
f 152 101 165
f 101 152 112
f 457 399 397
f 397 339 399
f 152 165 112
f 211 279 213
f 399 457 401
f 457 459 401
f 457 399 459
f 150 152 219
f 213 150 219
f 465 543 476
f 165 112 179
f 150 213 152
f 279 211 281
f 211 213 281
f 339 399 341
f 399 401 459
f 279 281 213
f 213 219 152
f 339 279 341
f 279 281 341
f 279 339 281
f 339 341 281
f 401 459 403
f 219 152 226
f 459 465 403
f 152 165 226
f 213 281 219
f 465 476 409
f 403 465 409
f 465 403 476
f 226 165 235
f 165 179 235
f 165 226 179
f 403 409 476
f 226 235 179
f 281 282 219
f 399 341 401
f 341 399 342
f 399 401 342
f 281 213 282
f 213 219 282
f 341 342 401
f 281 282 342
f 341 281 342
f 219 282 226
f 235 247 305
f 152 219 165
f 421 367 409
f 219 226 165
f 282 286 226
f 401 403 342
f 235 295 305
f 226 286 235
f 286 295 235
f 342 403 347
f 282 219 286
f 219 226 286
f 367 356 409
f 403 409 356
f 347 403 356
f 403 347 409
f 347 356 409
f 286 226 295
f 226 235 295
f 295 305 367
f 295 356 367
f 282 286 347
f 342 282 347
f 342 347 286
f 347 356 295
f 286 347 295
f 286 295 356
f 347 286 356
f 403 347 401
f 347 342 401
