# Blender 4.5.12 LTS
# www.blender.org
o B4_x
v 54.099689 -16.158083 35.676338
v 54.099689 -16.306875 35.676338
v 53.669312 -16.158083 36.479858
v 54.363392 -16.158083 34.803886
v 54.363392 -16.306799 34.803886
v 54.453556 -16.158083 33.896896
v 54.363361 -16.158083 32.989769
v 54.453556 -16.307287 33.896896
v 54.363361 -16.308344 32.989769
v 54.453556 -17.258085 33.896889
v 54.363361 -17.265902 32.989769
v 54.453556 -19.812071 33.896896
v 54.363392 -17.254534 34.803886
v 54.363392 -19.800253 34.803886
v 54.099689 -17.255056 35.676346
v 54.099689 -19.802011 35.676338
v 53.669312 -17.259512 36.479858
v 53.669312 -19.816790 36.479858
v 53.091724 -17.266928 37.185158
v 53.669312 -16.307482 36.479858
v 53.091721 -16.308489 37.185158
v 53.091721 -16.158083 37.185158
v 52.386356 -16.309774 37.762978
v 52.386356 -17.276365 37.762978
v 52.386356 -16.158083 37.762978
v 51.582542 -16.311197 38.193665
v 51.582542 -16.158083 38.193665
v 51.582542 -17.286921 38.193665
v 50.709526 -16.312654 38.457596
v 50.709526 -17.297659 38.457596
v 50.709526 -16.158083 38.457596
v 49.801903 -16.314096 38.547859
v 49.801903 -16.158083 38.547859
v 49.801910 -17.308294 38.547859
v 48.894264 -16.315493 38.457573
v 48.894264 -17.318571 38.457573
v 48.894264 -16.158083 38.457573
v 48.021172 -16.316854 38.193626
v 48.021172 -16.158083 38.193626
v 48.021179 -17.328657 38.193626
v 47.217175 -16.318224 37.762909
v 47.217175 -17.338724 37.762909
v 47.217175 -16.158083 37.762909
v 46.511574 -16.319571 37.184982
v 46.511574 -16.158083 37.184982
v 46.511574 -17.348604 37.184982
v 45.933647 -16.320856 36.479446
v 45.933647 -17.358126 36.479439
v 45.933643 -16.158083 36.479439
v 45.502960 -16.322050 35.675591
v 45.502960 -16.158083 35.675591
v 45.502960 -17.366915 35.675591
v 45.239075 -16.323095 34.802750
v 45.239075 -17.374659 34.802750
v 45.239075 -16.158083 34.802750
v 45.148827 -16.323942 33.895454
v 45.148827 -16.158083 33.895454
v 45.148827 -17.380838 33.895454
v 45.239044 -16.324484 32.988228
v 45.239044 -17.384981 32.988228
v 45.239044 -16.158083 32.988228
v 45.502869 -16.324785 32.115578
v 45.502869 -16.158083 32.115578
v 45.502869 -17.387094 32.115578
v 45.933403 -16.324800 31.311998
v 45.933403 -17.387175 31.311995
v 45.933403 -16.158083 31.311995
v 46.511131 -16.324545 30.606737
v 46.511131 -16.158083 30.606733
v 46.511143 -17.385263 30.606737
v 47.216492 -16.324015 30.029060
v 47.216488 -17.381380 30.029060
v 47.216488 -16.158083 30.029060
v 48.020226 -16.323221 29.598524
v 48.020237 -16.158083 29.598524
v 48.020237 -17.375597 29.598526
v 48.893116 -16.322191 29.334700
v 48.893116 -17.367956 29.334700
v 48.893116 -16.158083 29.334700
v 49.800598 -16.320913 29.244480
v 49.800598 -16.158083 29.244480
v 49.800606 -17.358572 29.244480
v 50.708187 -16.319426 29.334772
v 50.708187 -17.347593 29.334772
v 50.708187 -16.158083 29.334772
v 51.581284 -16.317717 29.598724
v 51.581284 -16.158083 29.598730
v 51.581284 -17.334986 29.598724
v 52.385345 -16.315783 30.029509
v 52.385345 -17.320738 30.029509
v 52.385345 -16.158083 30.029509
v 53.091003 -16.313742 30.607521
v 53.091003 -16.158083 30.607519
v 53.091003 -17.305696 30.607521
v 53.668934 -16.311728 31.313147
v 53.668934 -17.290758 31.313147
v 53.668934 -16.158083 31.313147
v 54.099567 -16.309862 32.117020
v 54.099567 -16.158083 32.117020
v 54.099552 -17.277086 32.117020
v 54.099567 -19.875189 32.117020
v 53.668934 -19.920588 31.313147
v 54.099552 -21.777220 32.117020
v 54.363361 -19.838041 32.989769
v 54.363361 -21.714090 32.989769
v 54.453556 -21.669989 33.896896
v 54.363361 -22.671659 32.989777
v 54.453556 -22.620783 33.896896
v 54.336807 -22.791796 32.993080
v 54.099567 -22.744444 32.117020
v 53.668926 -22.833376 31.313147
v 54.075348 -22.865267 32.124001
v 53.648708 -22.954985 31.324015
v 54.002750 -22.924177 32.144913
v 53.588043 -23.012510 31.356627
v 53.844345 -22.969904 32.190552
v 54.257172 -22.851683 33.002998
v 54.083405 -22.900381 33.024635
v 54.344231 -22.800856 33.895897
v 54.426228 -22.740412 33.896645
v 54.165329 -22.851362 33.894264
v 54.256859 -22.777555 34.788643
v 54.082542 -22.828608 34.763702
v 54.336754 -22.716970 34.800087
v 54.002338 -22.780638 35.646416
v 53.843048 -22.830999 35.597450
v 53.587940 -22.808981 36.434402
v 54.075352 -22.720354 35.668861
v 53.648972 -22.749453 36.468491
v 54.099689 -22.601072 35.676338
v 53.669312 -22.630014 36.479858
v 54.099693 -21.652899 35.676338
v 54.363392 -22.597628 34.803886
v 54.363392 -21.649900 34.803886
v 53.669312 -21.677992 36.479858
v 53.091724 -21.719866 37.185158
v 53.091721 -19.841433 37.185158
v 52.386356 -21.773176 37.762978
v 53.091721 -22.678297 37.185158
v 53.076073 -22.798063 37.169701
v 52.386356 -22.739775 37.762978
v 51.582542 -22.808451 38.193665
v 52.375134 -22.860041 37.743233
v 51.575428 -22.929350 38.170296
v 52.341434 -22.917479 37.684006
v 52.267937 -22.960035 37.554787
v 53.029137 -22.856581 37.123360
v 51.554047 -22.985807 38.100174
v 51.507408 -23.025457 37.947189
v 50.696159 -23.055693 38.355644
v 50.674263 -23.093042 38.188828
v 50.706184 -22.999937 38.432106
v 49.802986 -23.125238 38.442986
v 49.802177 -23.069971 38.521645
v 49.804771 -23.160719 38.271378
v 48.909786 -23.192511 38.354744
v 48.935162 -23.226366 38.186485
v 48.898151 -23.137640 38.431870
v 48.051594 -23.258486 38.098694
v 48.028790 -23.204039 38.169891
v 48.101376 -23.290655 37.943344
v 47.263481 -23.324121 37.682594
v 47.339241 -23.354246 37.551170
v 47.228752 -23.270292 37.742828
v 46.574886 -23.388147 37.122208
v 46.527397 -23.335188 37.169289
v 46.678490 -23.415648 37.019493
v 46.015221 -23.449278 36.433327
v 46.148716 -23.473291 36.357857
v 45.954044 -23.397570 36.467918
v 45.600075 -23.505678 35.645210
v 45.527245 -23.455236 35.667999
v 45.758999 -23.526297 35.595505
v 45.345028 -23.555555 34.787178
v 45.518410 -23.573713 34.761681
v 45.265568 -23.505983 34.798859
v 45.257488 -23.595701 33.894234
v 45.175987 -23.546598 33.895149
v 45.435310 -23.612356 33.892227
v 45.344887 -23.622904 33.001396
v 45.518082 -23.639048 33.022957
v 45.265526 -23.573904 32.991524
v 45.599781 -23.637182 32.143669
v 45.527103 -23.587896 32.122597
v 45.758385 -23.653776 32.189644
v 46.014736 -23.638563 31.356005
v 46.147797 -23.656500 31.428026
v 45.953743 -23.588652 31.322992
v 46.574142 -23.626707 30.667595
v 46.526886 -23.576223 30.621950
v 46.677280 -23.646055 30.767193
v 47.262486 -23.601313 30.107618
v 47.337749 -23.621252 30.236181
v 47.227989 -23.550703 30.048704
v 48.050343 -23.563128 29.691891
v 48.027748 -23.512518 29.621868
v 48.099609 -23.583460 29.844675
v 48.908356 -23.512877 29.436216
v 48.933296 -23.534117 29.602335
v 48.896919 -23.462114 29.360079
v 49.801491 -23.451445 29.348183
v 49.800823 -23.400354 29.270407
v 49.802925 -23.474131 29.517879
v 50.694691 -23.379725 29.435371
v 50.672600 -23.404463 29.600000
v 50.704826 -23.328062 29.359917
v 51.552784 -23.297815 29.690609
v 51.574162 -23.245173 29.621696
v 51.506104 -23.325583 29.840965
v 52.340569 -23.205805 30.106703
v 52.267277 -23.237951 30.233025
v 52.374146 -23.151648 30.048809
v 53.028748 -23.108953 30.667448
v 53.075439 -23.053061 30.622503
v 52.926872 -23.146009 30.765524
v 52.745770 -23.211870 30.939875
v 53.455692 -23.054228 31.427771
v 53.220421 -23.128386 31.554255
v 53.562733 -23.051214 32.271683
v 52.928802 -23.215788 31.709028
v 53.207634 -23.148581 32.370827
v 52.526588 -23.288050 31.156445
v 52.627483 -23.297239 31.865061
v 52.256886 -23.374044 31.966963
v 52.310535 -23.356031 31.381159
v 52.828785 -23.242491 32.470512
v 52.380939 -23.333769 32.542725
v 52.958916 -23.194036 33.158455
v 53.382347 -23.091478 33.110374
v 53.005615 -23.156973 33.887680
v 52.466045 -23.294382 33.195564
v 51.865604 -23.392229 33.209984
v 52.498528 -23.261469 33.887230
v 51.885254 -23.362169 33.886215
v 52.464691 -23.240644 34.579445
v 51.865410 -23.340712 34.563484
v 52.378288 -23.229948 35.232712
v 52.956657 -23.136374 34.616989
v 53.379814 -23.028944 34.666756
v 52.824848 -23.131266 35.304848
v 53.203533 -23.027739 35.405960
v 52.622974 -23.140650 35.909714
v 52.925041 -23.045092 36.067696
v 52.306858 -23.165030 36.393135
v 52.253010 -23.227400 35.807510
v 51.756271 -23.302763 35.814774
v 52.109982 -23.221445 36.185493
v 51.740501 -23.267912 36.327011
v 51.174706 -23.320379 36.450470
v 51.832329 -23.204954 36.716690
v 51.981377 -23.124140 37.032982
v 51.235455 -23.255239 36.923798
v 51.326710 -23.178747 37.321617
v 50.552330 -23.310728 37.057846
v 50.590889 -23.237734 37.502945
v 49.825836 -23.368177 37.105522
v 50.527740 -23.375402 36.535194
v 50.525154 -23.428736 35.913216
v 49.839722 -23.430975 36.567421
v 49.853210 -23.484259 35.931038
v 49.150757 -23.485079 36.533386
v 49.179333 -23.538179 35.911629
v 48.498600 -23.534819 36.447456
v 49.098846 -23.424387 37.053497
v 49.037426 -23.357676 37.496605
v 48.412415 -23.477907 36.916695
v 48.299404 -23.415232 37.311272
v 47.807518 -23.527342 36.710030
v 47.639423 -23.470324 37.023285
v 47.325523 -23.570890 36.387917
v 47.920948 -23.577238 36.324013
v 47.922428 -23.618422 35.811501
v 47.539909 -23.595137 36.181839
v 47.402740 -23.629080 35.803780
v 47.283958 -23.657957 35.227951
v 47.007805 -23.606794 35.904793
v 46.686085 -23.564726 36.062210
v 46.806973 -23.638952 35.299988
v 46.405056 -23.604296 35.401489
v 46.675621 -23.671274 34.612823
v 46.226719 -23.641985 34.662880
v 46.627228 -23.700857 33.884590
v 47.201469 -23.686522 34.575485
v 47.832333 -23.680410 34.560066
v 47.169281 -23.713350 33.884666
v 47.814354 -23.705275 33.884392
v 47.201317 -23.737040 33.193825
v 47.831562 -23.729536 33.208717
v 47.283836 -23.755987 32.542618
v 46.675232 -23.724821 33.156509
v 46.225925 -23.699530 33.108444
v 46.806362 -23.742762 32.470627
v 46.403618 -23.716124 32.370979
v 47.007347 -23.754244 31.868994
v 46.684265 -23.724298 31.712324
v 47.324745 -23.752562 31.388849
v 47.403099 -23.768614 31.970758
v 47.921017 -23.757795 31.962328
v 47.539478 -23.761633 31.594744
v 47.919365 -23.753233 31.453264
v 48.494926 -23.718718 31.328466
v 47.805130 -23.730963 31.067457
v 47.636482 -23.696829 30.754681
v 48.408638 -23.694944 30.860683
v 48.295933 -23.660490 30.467901
v 49.095360 -23.649950 30.724403
v 49.147522 -23.674437 31.241804
v 49.034096 -23.614397 30.284315
v 49.823189 -23.597563 30.672569
v 49.811474 -23.559793 30.216656
v 49.837608 -23.623030 31.207331
v 50.550018 -23.539320 30.719139
v 50.525654 -23.567213 31.239122
v 50.588581 -23.497972 30.277634
v 51.234032 -23.478098 30.851706
v 51.325336 -23.430834 30.457001
v 51.173275 -23.508993 31.323435
v 51.833466 -23.416655 31.057882
v 51.981731 -23.360289 30.744518
v 51.742085 -23.450365 31.446543
v 51.757454 -23.447599 31.959372
v 52.113281 -23.395597 31.588484
v 51.818878 -23.423243 32.559479
v 51.167057 -23.515722 31.903234
v 50.523487 -23.576284 31.859491
v 51.187683 -23.503885 32.547020
v 50.532482 -23.568632 32.531578
v 51.207500 -23.479052 33.210701
v 50.541595 -23.546305 33.206688
v 51.217354 -23.450785 33.885002
v 50.546333 -23.519030 33.883942
v 51.208141 -23.428644 34.560631
v 50.542179 -23.496534 34.562447
v 51.188839 -23.404226 35.226219
v 50.533630 -23.469526 35.239708
v 51.818329 -23.322649 35.215195
v 51.168430 -23.369085 35.870384
v 49.864040 -23.525858 35.246567
v 49.869934 -23.553587 34.564194
v 49.191399 -23.580534 35.237717
v 49.193798 -23.608992 34.561119
v 48.524635 -23.625406 35.222610
v 48.514393 -23.654165 34.558113
v 47.872669 -23.652327 35.210762
v 48.527679 -23.584795 35.867577
v 48.507133 -23.677778 33.883934
v 48.513054 -23.702971 33.209969
v 49.192341 -23.632017 33.883461
v 49.871548 -23.576323 33.883339
v 49.192844 -23.657980 33.206367
v 49.869514 -23.602961 33.203423
v 49.189556 -23.678144 32.531456
v 49.863152 -23.624418 32.523087
v 49.176685 -23.683729 31.860376
v 48.522137 -23.722113 32.546806
v 48.524433 -23.727568 31.905081
v 47.871330 -23.748579 32.559273
v 49.851715 -23.631536 31.840948
v 52.137005 -23.295069 30.457594
v 51.423161 -23.374952 30.108253
v 50.633331 -23.448454 29.892660
v 49.805489 -23.514452 29.819559
v 48.977650 -23.571863 29.897671
v 48.187195 -23.619623 30.116291
v 47.471550 -23.656664 30.464729
v 46.860634 -23.680433 30.944242
v 46.384369 -23.688402 31.556070
v 47.088383 -23.719416 31.163292
v 46.040302 -23.683271 32.271370
v 45.825989 -23.667765 33.061287
v 45.751434 -23.641977 33.888664
v 45.826637 -23.605993 34.716370
v 46.163013 -23.674749 33.885475
v 46.041542 -23.562956 35.507126
v 46.386024 -23.515997 36.223686
v 46.862663 -23.464491 36.836876
v 47.473942 -23.407804 37.317535
v 47.090591 -23.520861 36.613358
v 48.189842 -23.347860 37.667183
v 48.980286 -23.286543 37.887352
v 49.807915 -23.223776 37.966309
v 50.635353 -23.159452 37.892273
v 49.814323 -23.298307 37.565201
v 51.424500 -23.095976 37.675209
v 52.137234 -23.035719 37.325066
v 52.744709 -22.983301 36.842407
v 52.926746 -22.902205 37.022209
v 53.218063 -22.943365 36.227791
v 52.524326 -23.078165 36.620522
v 53.454777 -22.857351 36.360023
v 53.559860 -22.920500 35.510391
v 53.772644 -22.919386 34.719360
v 53.847271 -22.941141 33.891373
v 53.774479 -22.986944 33.063103
v 53.443047 -23.049822 33.888687
v 53.091003 -22.930651 30.607519
v 53.091003 -21.938688 30.607519
v 52.385345 -23.028460 30.029507
v 52.385345 -22.023516 30.029507
v 51.581291 -23.121214 29.598722
v 51.581284 -22.103949 29.598722
v 50.708187 -23.203260 29.334768
v 50.708187 -22.175108 29.334768
v 49.800598 -23.274748 29.244480
v 49.800606 -22.237101 29.244480
v 48.893116 -23.335794 29.334698
v 48.893116 -22.290037 29.334698
v 48.020226 -23.385553 29.598522
v 48.020237 -22.333189 29.598524
v 47.216488 -23.423201 30.029058
v 47.216488 -22.365843 30.029058
v 46.511131 -23.448431 30.606731
v 46.511131 -22.387705 30.606733
v 45.933403 -23.460882 31.311995
v 45.933403 -22.398500 31.311995
v 45.502869 -23.460356 32.115578
v 45.502869 -22.398043 32.115578
v 45.239056 -23.446623 32.988228
v 45.239044 -22.386141 32.988228
v 45.148827 -23.419661 33.895454
v 45.148827 -22.362757 33.895454
v 45.239082 -23.379438 34.802750
v 45.239082 -22.327890 34.802750
v 45.502960 -23.329107 35.675591
v 45.502960 -22.284231 35.675591
v 45.933643 -23.271826 36.479439
v 45.933647 -22.234556 36.479439
v 46.511574 -23.209887 37.184982
v 46.511574 -22.180841 37.184982
v 47.217186 -23.145575 37.762917
v 47.217186 -22.125074 37.762909
v 48.021179 -23.080042 38.193626
v 48.021172 -22.068243 38.193626
v 48.894264 -23.014421 38.457573
v 48.894264 -22.011335 38.457573
v 49.801903 -22.947550 38.547859
v 49.801903 -21.953337 38.547859
v 50.709526 -22.878302 38.457596
v 50.709526 -21.893301 38.457596
v 50.709526 -19.943510 38.457596
v 51.582542 -21.832731 38.193665
v 51.582542 -19.907866 38.193665
v 52.386356 -19.872812 37.762978
v 49.801903 -19.978872 38.547859
v 48.894268 -20.012999 38.457573
v 48.021179 -20.046484 38.193626
v 47.217175 -20.079935 37.762909
v 46.511574 -20.112761 37.184982
v 45.933647 -20.144369 36.479446
v 45.502960 -20.173620 35.675591
v 45.239075 -20.199312 34.802750
v 45.148827 -20.219839 33.895454
v 45.239044 -20.233603 32.988228
v 45.502869 -20.240602 32.115578
v 45.933403 -20.240877 31.311998
v 46.511131 -20.234518 30.606737
v 47.216492 -20.221651 30.029060
v 48.020226 -20.202425 29.598524
v 48.893116 -20.177031 29.334700
v 49.800598 -20.145872 29.244480
v 50.708187 -20.109385 29.334772
v 51.581284 -20.067499 29.598724
v 52.385345 -20.020163 30.029509
v 53.091003 -19.970240 30.607521
v 53.668934 -21.854338 31.313147
vn 0.9808 -0.0000 0.1950
vn 0.9239 -0.0000 0.3826
vn 0.8315 -0.0000 0.5555
vn 1.0000 -0.0000 -0.0000
vn 0.9808 -0.0000 -0.1951
vn 0.7072 -0.0000 0.7071
vn 0.5556 -0.0000 0.8314
vn 0.3827 -0.0000 0.9239
vn 0.1951 -0.0000 0.9808
vn -0.0000 -0.0000 1.0000
vn -0.1951 -0.0000 0.9808
vn -0.3827 -0.0000 0.9239
vn -0.5556 -0.0000 0.8315
vn -0.7071 -0.0000 0.7071
vn -0.8315 -0.0000 0.5556
vn -0.9239 -0.0000 0.3827
vn -0.9808 -0.0000 0.1951
vn -1.0000 -0.0000 -0.0000
vn -0.9808 -0.0000 -0.1951
vn -0.9239 -0.0000 -0.3827
vn -0.8314 -0.0000 -0.5556
vn -0.7071 -0.0000 -0.7071
vn -0.5555 -0.0000 -0.8315
vn -0.3826 -0.0000 -0.9239
vn -0.1950 -0.0000 -0.9808
vn -0.0000 -0.0000 -1.0000
vn 0.1951 -0.0000 -0.9808
vn 0.3827 -0.0000 -0.9239
vn 0.5556 -0.0000 -0.8315
vn 0.7071 -0.0000 -0.7071
vn 0.8315 -0.0000 -0.5555
vn 0.9239 -0.0000 -0.3826
vn 0.9766 -0.1070 -0.1864
vn 0.9229 -0.1008 -0.3717
vn 0.9940 -0.1094 0.0044
vn 0.8379 -0.5300 -0.1301
vn 0.8454 -0.5338 0.0211
vn 0.8076 -0.5166 -0.2845
vn 0.8335 -0.0931 -0.5446
vn 0.7478 -0.4990 -0.4379
vn 0.4387 -0.8797 -0.1835
vn 0.4518 -0.8864 -0.1008
vn 0.4524 -0.8914 -0.0276
vn 0.2708 -0.9610 -0.0563
vn 0.2747 -0.9614 -0.0158
vn 0.2730 -0.9619 0.0153
vn 0.4507 -0.8919 0.0365
vn 0.2723 -0.9614 0.0398
vn 0.8315 -0.5288 0.1704
vn 0.4485 -0.8883 0.0988
vn 0.2735 -0.9598 0.0634
vn 0.4448 -0.8801 0.1664
vn 0.2758 -0.9568 0.0917
vn 0.7962 -0.5143 0.3187
vn 0.4300 -0.8699 0.2416
vn 0.2728 -0.9535 0.1284
vn 0.7339 -0.4960 0.4640
vn 0.8303 -0.0955 0.5490
vn 0.9200 -0.1024 0.3782
vn 0.9749 -0.1079 0.1946
vn 0.7081 -0.0913 0.7002
vn 0.5582 -0.0927 0.8245
vn 0.6380 -0.4860 0.5973
vn 0.5102 -0.4945 0.7037
vn 0.3869 -0.0978 0.9169
vn 0.3617 -0.5140 0.7778
vn 0.3193 -0.8743 0.3656
vn 0.2356 -0.8894 0.3917
vn 0.3891 -0.8658 0.3145
vn 0.2101 -0.9583 0.1938
vn 0.1617 -0.9658 0.2026
vn 0.2514 -0.9532 0.1679
vn 0.2029 -0.5309 0.8228
vn 0.1511 -0.9024 0.4036
vn 0.1163 -0.9720 0.2040
vn 0.0687 -0.9100 0.4089
vn 0.0746 -0.9761 0.2039
vn 0.0391 -0.5394 0.8411
vn -0.1261 -0.5386 0.8331
vn -0.0129 -0.9125 0.4089
vn 0.0352 -0.9784 0.2037
vn -0.0954 -0.9098 0.4040
vn -0.0029 -0.9791 0.2033
vn -0.2891 -0.5282 0.7984
vn -0.4455 -0.5138 0.7332
vn -0.1792 -0.9049 0.3861
vn -0.0428 -0.9793 0.1977
vn -0.2528 -0.9051 0.3419
vn -0.0784 -0.9812 0.1762
vn -0.5843 -0.5082 0.6327
vn -0.6913 -0.5216 0.5000
vn -0.2980 -0.9154 0.2708
vn -0.0966 -0.9855 0.1395
vn -0.3165 -0.9293 0.1905
vn -0.0983 -0.9900 0.1015
vn -0.7634 -0.5441 0.3482
vn -0.8058 -0.5619 0.1871
vn -0.3229 -0.9398 0.1121
vn -0.0956 -0.9931 0.0685
vn -0.3263 -0.9446 0.0350
vn -0.0943 -0.9948 0.0374
vn -0.8224 -0.5686 0.0205
vn -0.8125 -0.5639 -0.1480
vn -0.3273 -0.9439 -0.0435
vn -0.0952 -0.9954 0.0059
vn -0.3246 -0.9374 -0.1263
vn -0.0976 -0.9948 -0.0282
vn -0.7753 -0.5477 -0.3145
vn -0.7063 -0.5260 -0.4737
vn -0.3083 -0.9272 -0.2129
vn -0.0955 -0.9931 -0.0677
vn -0.2629 -0.9201 -0.2902
vn -0.0766 -0.9914 -0.1058
vn -0.5996 -0.5133 -0.6140
vn -0.4586 -0.5203 -0.7204
vn -0.1868 -0.9223 -0.3384
vn -0.0400 -0.9910 -0.1281
vn -0.0992 -0.9285 -0.3578
vn 0.0005 -0.9910 -0.1336
vn -0.2981 -0.5367 -0.7893
vn -0.1304 -0.5483 -0.8260
vn -0.0138 -0.9317 -0.3630
vn 0.0377 -0.9903 -0.1338
vn 0.0683 -0.9293 -0.3630
vn 0.0735 -0.9882 -0.1341
vn 0.0387 -0.5493 -0.8348
vn 0.2064 -0.5402 -0.8159
vn 0.1510 -0.9214 -0.3580
vn 0.1117 -0.9846 -0.1347
vn 0.2379 -0.9075 -0.3463
vn 0.1559 -0.9786 -0.1340
vn 0.3694 -0.5215 -0.7691
vn 0.5216 -0.4999 -0.6913
vn 0.3249 -0.8904 -0.3187
vn 0.2050 -0.9706 -0.1257
vn 0.3972 -0.8791 -0.2635
vn 0.2481 -0.9637 -0.0987
vn 0.6517 -0.4899 -0.5790
vn 0.1971 -0.9728 -0.1218
vn 0.2435 -0.9653 -0.0942
vn 0.2679 -0.9622 -0.0493
vn 0.2704 -0.9627 -0.0098
vn 0.2561 -0.9661 -0.0344
vn 0.2557 -0.9668 0.0020
vn 0.2298 -0.9699 -0.0809
vn 0.2259 -0.9741 -0.0098
vn 0.2257 -0.9740 0.0179
vn 0.2008 -0.9782 -0.0523
vn 0.1759 -0.9843 0.0113
vn 0.1810 -0.9830 0.0303
vn 0.1653 -0.9861 -0.0176
vn 0.2219 -0.9746 0.0305
vn 0.2512 -0.9677 0.0236
vn 0.1823 -0.9826 0.0362
vn 0.2214 -0.9744 0.0389
vn 0.2502 -0.9674 0.0393
vn 0.1830 -0.9824 0.0383
vn 0.1455 -0.9886 0.0380
vn 0.1403 -0.9896 0.0312
vn 0.1472 -0.9884 0.0377
vn 0.1843 -0.9821 0.0402
vn 0.1473 -0.9884 0.0371
vn 0.2238 -0.9735 0.0469
vn 0.1848 -0.9817 0.0450
vn 0.1436 -0.9887 0.0430
vn 0.2293 -0.9716 0.0579
vn 0.2526 -0.9661 0.0543
vn 0.2584 -0.9632 0.0737
vn 0.2305 -0.9695 0.0833
vn 0.2596 -0.9598 0.1070
vn 0.1809 -0.9815 0.0626
vn 0.2060 -0.9707 0.1237
vn 0.2343 -0.9604 0.1509
vn 0.1709 -0.9811 0.0904
vn 0.1360 -0.9888 0.0610
vn 0.1367 -0.9857 0.0987
vn 0.1584 -0.9767 0.1446
vn 0.1077 -0.9919 0.0681
vn 0.1084 -0.9889 0.1020
vn 0.1215 -0.9823 0.1424
vn 0.1851 -0.9670 0.1753
vn 0.1398 -0.9745 0.1753
vn 0.0976 -0.9857 0.1376
vn 0.1055 -0.9796 0.1710
vn 0.0920 -0.9905 0.1021
vn 0.0768 -0.9876 0.1370
vn 0.0753 -0.9825 0.1701
vn 0.0788 -0.9916 0.1028
vn 0.0907 -0.9932 0.0725
vn 0.0806 -0.9940 0.0741
vn 0.0713 -0.9946 0.0754
vn 0.0664 -0.9922 0.1055
vn 0.0572 -0.9884 0.1408
vn 0.0570 -0.9957 0.0736
vn 0.0529 -0.9927 0.1085
vn 0.0373 -0.9882 0.1485
vn 0.0468 -0.9839 0.1728
vn 0.0180 -0.9837 0.1791
vn 0.0062 -0.9883 0.1527
vn -0.0199 -0.9832 0.1813
vn 0.0292 -0.9938 0.1074
vn -0.0356 -0.9905 0.1330
vn -0.0628 -0.9852 0.1592
vn -0.0014 -0.9950 0.1001
vn 0.0326 -0.9971 0.0684
vn -0.0087 -0.9974 0.0713
vn -0.0553 -0.9942 0.0926
vn -0.0101 -0.9986 0.0511
vn 0.0274 -0.9985 0.0480
vn -0.0513 -0.9966 0.0649
vn -0.0833 -0.9897 0.1168
vn -0.0795 -0.9935 0.0819
vn -0.0443 -0.9978 0.0500
vn -0.0724 -0.9957 0.0582
vn -0.0082 -0.9991 0.0428
vn -0.0418 -0.9985 0.0367
vn -0.0698 -0.9969 0.0369
vn -0.0069 -0.9993 0.0365
vn 0.0251 -0.9989 0.0391
vn 0.0252 -0.9990 0.0363
vn -0.0077 -0.9995 0.0302
vn 0.0255 -0.9991 0.0334
vn -0.0437 -0.9988 0.0234
vn -0.0092 -0.9997 0.0215
vn 0.0283 -0.9993 0.0241
vn -0.0501 -0.9987 0.0079
vn -0.0718 -0.9973 0.0154
vn -0.0782 -0.9969 -0.0089
vn -0.0537 -0.9983 -0.0208
vn -0.0815 -0.9957 -0.0451
vn -0.0072 -1.0000 0.0006
vn -0.0335 -0.9975 -0.0624
vn -0.0605 -0.9942 -0.0888
vn 0.0004 -0.9996 -0.0291
vn 0.0340 -0.9994 0.0030
vn 0.0310 -0.9988 -0.0370
vn 0.0084 -0.9965 -0.0832
vn 0.0580 -0.9983 -0.0028
vn 0.0544 -0.9978 -0.0388
vn 0.0394 -0.9960 -0.0798
vn -0.0172 -0.9936 -0.1119
vn 0.0208 -0.9937 -0.1101
vn 0.0485 -0.9934 -0.1041
vn 0.0582 -0.9957 -0.0726
vn 0.0668 -0.9971 -0.0364
vn 0.0755 -0.9948 -0.0690
vn 0.0774 -0.9964 -0.0337
vn 0.0740 -0.9921 -0.1015
vn 0.1011 -0.9896 -0.1024
vn 0.0937 -0.9932 -0.0690
vn 0.0888 -0.9955 -0.0324
vn 0.1163 -0.9905 -0.0730
vn 0.1040 -0.9941 -0.0311
vn 0.1342 -0.9852 -0.1066
vn 0.1528 -0.9854 -0.0744
vn 0.1796 -0.9780 -0.1065
vn 0.1315 -0.9910 -0.0268
vn 0.1315 -0.9912 0.0121
vn 0.1041 -0.9946 0.0040
vn 0.1106 -0.9935 0.0256
vn 0.0881 -0.9961 -0.0014
vn 0.0900 -0.9957 0.0216
vn 0.1148 -0.9927 0.0371
vn 0.0917 -0.9951 0.0358
vn 0.1164 -0.9925 0.0371
vn 0.0927 -0.9950 0.0365
vn 0.1162 -0.9925 0.0368
vn 0.0927 -0.9950 0.0371
vn 0.1132 -0.9924 0.0475
vn 0.0918 -0.9945 0.0505
vn 0.0829 -0.9959 0.0374
vn 0.0821 -0.9953 0.0518
vn 0.0738 -0.9966 0.0378
vn 0.0731 -0.9959 0.0525
vn 0.0528 -0.9979 0.0382
vn 0.0543 -0.9972 0.0511
vn 0.0527 -0.9980 0.0361
vn 0.0739 -0.9966 0.0360
vn 0.0530 -0.9980 0.0339
vn 0.0737 -0.9967 0.0340
vn 0.0829 -0.9959 0.0362
vn 0.0823 -0.9960 0.0347
vn 0.0730 -0.9972 0.0188
vn 0.0811 -0.9965 0.0196
vn 0.0548 -0.9983 0.0205
vn 0.0715 -0.9974 -0.0050
vn 0.0794 -0.9968 -0.0037
vn 0.1486 -0.9806 -0.1276
vn 0.1079 -0.9861 -0.1263
vn 0.0734 -0.9894 -0.1254
vn 0.0411 -0.9912 -0.1261
vn 0.0071 -0.9917 -0.1280
vn -0.0330 -0.9917 -0.1247
vn -0.0726 -0.9922 -0.1013
vn -0.0928 -0.9939 -0.0604
vn -0.0931 -0.9954 -0.0216
vn -0.0892 -0.9960 0.0092
vn -0.0879 -0.9954 0.0372
vn -0.0897 -0.9939 0.0649
vn -0.0941 -0.9910 0.0947
vn -0.0943 -0.9867 0.1321
vn -0.0747 -0.9823 0.1716
vn -0.0359 -0.9803 0.1942
vn 0.0038 -0.9803 0.1975
vn 0.0388 -0.9799 0.1956
vn 0.0746 -0.9780 0.1950
vn 0.1125 -0.9742 0.1955
vn 0.1545 -0.9683 0.1962
vn 0.2024 -0.9607 0.1900
vn 0.2473 -0.9550 0.1636
vn 0.2705 -0.9550 0.1215
vn 0.2721 -0.9585 0.0854
vn 0.2684 -0.9614 0.0602
vn 0.2667 -0.9630 0.0396
vn 0.2676 -0.9634 0.0181
vn 0.7111 -0.0884 -0.6976
vn 0.5606 -0.0895 -0.8233
vn 0.3885 -0.0945 -0.9166
vn 0.2017 -0.0990 -0.9744
vn 0.0072 -0.1007 -0.9949
vn -0.1878 -0.0992 -0.9772
vn -0.3760 -0.0945 -0.9218
vn -0.5503 -0.0888 -0.8302
vn -0.7032 -0.0863 -0.7057
vn -0.8282 -0.0896 -0.5532
vn -0.9202 -0.0964 -0.3793
vn -0.9762 -0.1021 -0.1912
vn -0.9945 -0.1044 0.0039
vn -0.9747 -0.1029 0.1986
vn -0.9176 -0.0979 0.3854
vn -0.8250 -0.0918 0.5576
vn -0.7000 -0.0890 0.7086
vn -0.5473 -0.0919 0.8319
vn -0.3737 -0.0979 0.9224
vn -0.1865 -0.1026 0.9771
vn 0.0076 -0.1042 0.9945
vn 0.2011 -0.1024 0.9742
vt 0.608351 0.792402
vt 0.608349 0.791963
vt 0.611039 0.791954
vt 0.611041 0.792393
vt 0.613730 0.791944
vt 0.613731 0.792385
vt 0.605660 0.792412
vt 0.605659 0.791971
vt 0.602970 0.792424
vt 0.602968 0.791980
vt 0.602979 0.795251
vt 0.605670 0.795219
vt 0.608360 0.795199
vt 0.603004 0.802844
vt 0.605695 0.802758
vt 0.608385 0.802714
vt 0.611050 0.795192
vt 0.611076 0.802710
vt 0.613741 0.795196
vt 0.613767 0.802745
vt 0.616432 0.795208
vt 0.616458 0.802808
vt 0.616422 0.792379
vt 0.616420 0.791935
vt 0.619112 0.791926
vt 0.619113 0.792373
vt 0.619123 0.795227
vt 0.621805 0.792368
vt 0.621815 0.795248
vt 0.621803 0.791916
vt 0.624495 0.791906
vt 0.624497 0.792363
vt 0.624507 0.795270
vt 0.627189 0.792357
vt 0.627200 0.795292
vt 0.627187 0.791896
vt 0.629879 0.791886
vt 0.629881 0.792351
vt 0.629892 0.795312
vt 0.632573 0.792345
vt 0.632585 0.795332
vt 0.632572 0.791876
vt 0.635264 0.791866
vt 0.635266 0.792339
vt 0.635277 0.795351
vt 0.637958 0.792333
vt 0.637969 0.795370
vt 0.637956 0.791856
vt 0.640648 0.791846
vt 0.640650 0.792326
vt 0.640662 0.795388
vt 0.643342 0.792319
vt 0.643354 0.795404
vt 0.643340 0.791835
vt 0.646032 0.791825
vt 0.646033 0.792312
vt 0.646045 0.795416
vt 0.648725 0.792304
vt 0.648737 0.795424
vt 0.648723 0.791814
vt 0.651414 0.791804
vt 0.651416 0.792295
vt 0.651428 0.795426
vt 0.654107 0.792286
vt 0.654119 0.795422
vt 0.654105 0.791793
vt 0.656796 0.791783
vt 0.656798 0.792275
vt 0.656811 0.795411
vt 0.659490 0.792264
vt 0.659502 0.795395
vt 0.659488 0.791772
vt 0.662179 0.791762
vt 0.662181 0.792252
vt 0.662193 0.795373
vt 0.664872 0.792239
vt 0.664885 0.795345
vt 0.664871 0.791751
vt 0.667562 0.791741
vt 0.667564 0.792225
vt 0.667576 0.795312
vt 0.670256 0.792211
vt 0.670268 0.795274
vt 0.670254 0.791730
vt 0.586816 0.792031
vt 0.586817 0.792507
vt 0.584125 0.792520
vt 0.584123 0.792039
vt 0.586826 0.795542
vt 0.584134 0.795583
vt 0.589510 0.792494
vt 0.589519 0.795497
vt 0.589508 0.792023
vt 0.592201 0.792014
vt 0.592202 0.792480
vt 0.592211 0.795446
vt 0.594895 0.792465
vt 0.594904 0.795394
vt 0.594893 0.792006
vt 0.597585 0.791997
vt 0.597587 0.792451
vt 0.597596 0.795341
vt 0.600279 0.792437
vt 0.600288 0.795292
vt 0.600277 0.791989
vt 0.597621 0.803104
vt 0.600313 0.802962
vt 0.597639 0.808813
vt 0.600331 0.808577
vt 0.603022 0.808382
vt 0.605713 0.808243
vt 0.603031 0.811208
vt 0.600340 0.811432
vt 0.605722 0.811049
vt 0.997140 0.287332
vt 0.997485 0.287297
vt 0.997706 0.289915
vt 0.997360 0.289896
vt 0.996427 0.284854
vt 0.996763 0.284761
vt 0.597648 0.811703
vt 0.995241 0.282560
vt 0.995554 0.282406
vt 0.995012 0.282667
vt 0.996165 0.284917
vt 0.996859 0.287356
vt 0.994619 0.282861
vt 0.995699 0.285036
vt 0.996350 0.287405
vt 0.997074 0.289883
vt 0.996551 0.289866
vt 0.997069 0.292450
vt 0.996789 0.292400
vt 0.996280 0.292316
vt 0.996027 0.294809
vt 0.995562 0.294657
vt 0.996287 0.294897
vt 0.994810 0.297012
vt 0.994420 0.296788
vt 0.995034 0.297141
vt 0.995327 0.297320
vt 0.996607 0.295022
vt 0.997406 0.292522
vt 0.613786 0.808239
vt 0.613795 0.811050
vt 0.611104 0.810973
vt 0.611094 0.808174
vt 0.608413 0.810972
vt 0.608403 0.808174
vt 0.616478 0.808353
vt 0.616488 0.811183
vt 0.619150 0.802891
vt 0.619170 0.808501
vt 0.619180 0.811355
vt 0.993617 0.299331
vt 0.993364 0.299098
vt 0.991535 0.300964
vt 0.991333 0.300684
vt 0.621863 0.808668
vt 0.621874 0.811548
vt 0.989174 0.302162
vt 0.989030 0.301846
vt 0.991200 0.300471
vt 0.988942 0.301601
vt 0.993185 0.298927
vt 0.990985 0.300093
vt 0.988807 0.301157
vt 0.992884 0.298627
vt 0.986543 0.302540
vt 0.986498 0.302276
vt 0.986435 0.301795
vt 0.983964 0.302477
vt 0.983969 0.301985
vt 0.983969 0.302748
vt 0.981404 0.302454
vt 0.981439 0.302188
vt 0.981512 0.301705
vt 0.979019 0.301426
vt 0.979163 0.300981
vt 0.978943 0.301675
vt 0.976684 0.300433
vt 0.976804 0.300216
vt 0.977022 0.299839
vt 0.974876 0.298600
vt 0.975173 0.298306
vt 0.974711 0.298774
vt 0.973111 0.296754
vt 0.973320 0.296625
vt 0.973701 0.296412
vt 0.972180 0.294377
vt 0.972632 0.294239
vt 0.971937 0.294461
vt 0.971234 0.291984
vt 0.971496 0.291940
vt 0.971987 0.291873
vt 0.971288 0.289415
vt 0.971790 0.289415
vt 0.971020 0.289419
vt 0.971310 0.286862
vt 0.971571 0.286898
vt 0.972060 0.286965
vt 0.972327 0.284488
vt 0.972773 0.284624
vt 0.972085 0.284410
vt 0.973325 0.282160
vt 0.973533 0.282282
vt 0.973906 0.282492
vt 0.975145 0.280363
vt 0.975432 0.280652
vt 0.974983 0.280196
vt 0.977004 0.278605
vt 0.977119 0.278815
vt 0.977324 0.279184
vt 0.979368 0.277681
vt 0.979497 0.278118
vt 0.979299 0.277440
vt 0.981780 0.276746
vt 0.981807 0.277004
vt 0.981866 0.277476
vt 0.984339 0.276801
vt 0.984330 0.277283
vt 0.984352 0.276540
vt 0.986918 0.276839
vt 0.986864 0.277092
vt 0.986787 0.277558
vt 0.989286 0.277856
vt 0.989138 0.278281
vt 0.989382 0.277623
vt 0.991648 0.278872
vt 0.991507 0.279069
vt 0.991283 0.279425
vt 0.993444 0.280689
vt 0.993137 0.280963
vt 0.993630 0.280536
vt 0.990883 0.280057
vt 0.992592 0.281448
vt 0.993920 0.283206
vt 0.994870 0.285248
vt 0.993058 0.283627
vt 0.993830 0.285506
vt 0.991934 0.282051
vt 0.992173 0.284051
vt 0.992727 0.285765
vt 0.991291 0.282674
vt 0.991105 0.284317
vt 0.991438 0.285942
vt 0.990717 0.283246
vt 0.993074 0.287709
vt 0.994302 0.287601
vt 0.991657 0.287784
vt 0.993179 0.289766
vt 0.994445 0.289798
vt 0.991723 0.289732
vt 0.989946 0.287790
vt 0.989838 0.285959
vt 0.989976 0.289693
vt 0.991598 0.291678
vt 0.989891 0.291596
vt 0.993009 0.291817
vt 0.991322 0.293510
vt 0.989728 0.293426
vt 0.992602 0.293745
vt 0.994233 0.291988
vt 0.993697 0.294061
vt 0.991997 0.295434
vt 0.992872 0.295908
vt 0.990938 0.295118
vt 0.991076 0.296774
vt 0.991706 0.297440
vt 0.990519 0.296174
vt 0.989526 0.295108
vt 0.989465 0.296550
vt 0.989721 0.297659
vt 0.987862 0.295233
vt 0.987862 0.296868
vt 0.988026 0.298212
vt 0.990149 0.298572
vt 0.988285 0.299351
vt 0.986093 0.298556
vt 0.986197 0.299824
vt 0.986034 0.297075
vt 0.984041 0.298655
vt 0.984001 0.299962
vt 0.984092 0.297132
vt 0.986045 0.295321
vt 0.984150 0.295337
vt 0.982252 0.295249
vt 0.982152 0.297002
vt 0.981992 0.298473
vt 0.980419 0.295093
vt 0.980318 0.296728
vt 0.980062 0.298054
vt 0.981810 0.299732
vt 0.979735 0.299174
vt 0.978366 0.297441
vt 0.977884 0.298330
vt 0.978697 0.296351
vt 0.977022 0.296510
vt 0.976353 0.297148
vt 0.977631 0.295935
vt 0.978718 0.294907
vt 0.977259 0.294864
vt 0.976145 0.295137
vt 0.976945 0.293239
vt 0.978600 0.293215
vt 0.975601 0.293427
vt 0.975232 0.295577
vt 0.974464 0.293703
vt 0.975258 0.291487
vt 0.973991 0.291614
vt 0.976738 0.291400
vt 0.975151 0.289434
vt 0.973844 0.289420
vt 0.976675 0.289456
vt 0.978512 0.291383
vt 0.978489 0.289483
vt 0.976795 0.287514
vt 0.978566 0.287584
vt 0.975317 0.287387
vt 0.977057 0.285687
vt 0.978707 0.285760
vt 0.975718 0.285463
vt 0.974054 0.287233
vt 0.974587 0.285164
vt 0.976312 0.283780
vt 0.975409 0.283323
vt 0.977420 0.284085
vt 0.977229 0.282446
vt 0.976574 0.281797
vt 0.977822 0.283035
vt 0.978875 0.284086
vt 0.978896 0.282656
vt 0.978595 0.281564
vt 0.980575 0.283953
vt 0.980521 0.282331
vt 0.980305 0.281010
vt 0.978138 0.280672
vt 0.980011 0.279895
vt 0.982102 0.279414
vt 0.982247 0.280659
vt 0.982363 0.282118
vt 0.984302 0.280549
vt 0.984310 0.282055
vt 0.984300 0.279263
vt 0.986492 0.279474
vt 0.986350 0.280717
vt 0.986248 0.282179
vt 0.988274 0.281127
vt 0.988071 0.282451
vt 0.988565 0.280018
vt 0.989957 0.281740
vt 0.990409 0.280862
vt 0.989670 0.282828
vt 0.989688 0.284269
vt 0.988022 0.284080
vt 0.988051 0.285890
vt 0.986208 0.283923
vt 0.986202 0.285812
vt 0.988080 0.287756
vt 0.986200 0.287710
vt 0.988082 0.289652
vt 0.986186 0.289614
vt 0.988027 0.291551
vt 0.986145 0.291521
vt 0.987944 0.293421
vt 0.986093 0.293425
vt 0.984249 0.291492
vt 0.984205 0.293411
vt 0.982343 0.291450
vt 0.982310 0.293352
vt 0.980430 0.291408
vt 0.980433 0.293277
vt 0.980438 0.289513
vt 0.982368 0.289545
vt 0.980483 0.287619
vt 0.982397 0.287642
vt 0.984283 0.289579
vt 0.984305 0.287667
vt 0.982417 0.285744
vt 0.984316 0.285754
vt 0.980538 0.285756
vt 0.982413 0.283858
vt 0.984316 0.283837
vt 0.988876 0.279035
vt 0.986650 0.278387
vt 0.984313 0.278139
vt 0.981970 0.278317
vt 0.979726 0.278894
vt 0.977689 0.279841
vt 0.975942 0.281164
vt 0.974569 0.282866
vt 0.973566 0.284867
vt 0.972928 0.287085
vt 0.972683 0.289415
vt 0.972860 0.291753
vt 0.973434 0.293994
vt 0.974378 0.296032
vt 0.975701 0.297785
vt 0.977409 0.299170
vt 0.979418 0.300190
vt 0.981643 0.300847
vt 0.983979 0.301109
vt 0.986323 0.300941
vt 0.988566 0.300370
vt 0.990602 0.299421
vt 0.992350 0.298094
vt 0.993727 0.296389
vt 0.994734 0.294386
vt 0.995376 0.292167
vt 0.995622 0.289834
vt 0.995446 0.287493
vt 0.993906 0.280320
vt 0.991874 0.278600
vt 0.594956 0.811999
vt 0.594947 0.809070
vt 0.592264 0.812296
vt 0.592255 0.809329
vt 0.589572 0.812578
vt 0.589563 0.809575
vt 0.989547 0.277308
vt 0.586880 0.812828
vt 0.586871 0.809793
vt 0.987018 0.276494
vt 0.584188 0.813047
vt 0.584179 0.809984
vt 0.984384 0.276180
vt 0.667645 0.812929
vt 0.667633 0.809842
vt 0.670325 0.809676
vt 0.670337 0.812739
vt 0.981741 0.276384
vt 0.664954 0.813087
vt 0.664942 0.809980
vt 0.979187 0.277093
vt 0.662263 0.813209
vt 0.662251 0.810087
vt 0.976821 0.278289
vt 0.659572 0.813294
vt 0.659559 0.810162
vt 0.974733 0.279929
vt 0.656880 0.813341
vt 0.656868 0.810205
vt 0.973021 0.281956
vt 0.654189 0.813350
vt 0.654177 0.810214
vt 0.971743 0.284277
vt 0.651498 0.813320
vt 0.651486 0.810189
vt 0.970948 0.286800
vt 0.648806 0.813251
vt 0.648794 0.810131
vt 0.970654 0.289428
vt 0.646114 0.813142
vt 0.646102 0.810038
vt 0.970879 0.292064
vt 0.643421 0.813004
vt 0.643409 0.809920
vt 0.971606 0.294609
vt 0.640728 0.812845
vt 0.640716 0.809783
vt 0.972819 0.296965
vt 0.638035 0.812673
vt 0.638023 0.809635
vt 0.974472 0.299041
vt 0.635342 0.812493
vt 0.635330 0.809481
vt 0.976507 0.300744
vt 0.632648 0.812310
vt 0.632637 0.809323
vt 0.978833 0.302015
vt 0.629954 0.812126
vt 0.629943 0.809165
vt 0.981359 0.302806
vt 0.627261 0.811939
vt 0.627250 0.809004
vt 0.983989 0.303100
vt 0.624567 0.811744
vt 0.624556 0.808837
vt 0.986626 0.302881
vt 0.624536 0.803081
vt 0.627228 0.803175
vt 0.621843 0.802985
vt 0.629921 0.803266
vt 0.632614 0.803355
vt 0.635307 0.803443
vt 0.638000 0.803530
vt 0.640693 0.803613
vt 0.643385 0.803689
vt 0.646078 0.803755
vt 0.648769 0.803805
vt 0.651461 0.803835
vt 0.654152 0.803845
vt 0.656843 0.803835
vt 0.659535 0.803806
vt 0.662226 0.803758
vt 0.664917 0.803690
vt 0.667609 0.803605
vt 0.670301 0.803502
vt 0.586852 0.803695
vt 0.584160 0.803811
vt 0.589544 0.803563
vt 0.592237 0.803415
vt 0.594929 0.803259
s 1
f 5/1/1 4/2/1 1/3/2 2/4/2
f 3/5/3 20/6/3 2/4/2 1/3/2
f 4/2/1 5/1/1 8/7/4 6/8/4
f 9/9/5 7/10/5 6/8/4 8/7/4
f 11/11/5 9/9/5 8/7/4 10/12/4
f 5/1/1 13/13/1 10/12/4 8/7/4
f 104/14/5 11/11/5 10/12/4 12/15/4
f 13/13/1 14/16/1 12/15/4 10/12/4
f 14/16/1 13/13/1 15/17/2 16/18/2
f 13/13/1 5/1/1 2/4/2 15/17/2
f 17/19/3 18/20/3 16/18/2 15/17/2
f 20/6/3 17/19/3 15/17/2 2/4/2
f 18/20/3 17/19/3 19/21/6 137/22/6
f 17/19/3 20/6/3 21/23/6 19/21/6
f 20/6/3 3/5/3 22/24/6 21/23/6
f 25/25/7 23/26/7 21/23/6 22/24/6
f 23/26/7 24/27/7 19/21/6 21/23/6
f 24/27/7 23/26/7 26/28/8 28/29/8
f 23/26/7 25/25/7 27/30/8 26/28/8
f 31/31/9 29/32/9 26/28/8 27/30/8
f 29/32/9 30/33/9 28/29/8 26/28/8
f 30/33/9 29/32/9 32/34/10 34/35/10
f 29/32/9 31/31/9 33/36/10 32/34/10
f 37/37/11 35/38/11 32/34/10 33/36/10
f 35/38/11 36/39/11 34/35/10 32/34/10
f 36/39/11 35/38/11 38/40/12 40/41/12
f 35/38/11 37/37/11 39/42/12 38/40/12
f 43/43/13 41/44/13 38/40/12 39/42/12
f 41/44/13 42/45/13 40/41/12 38/40/12
f 42/45/13 41/44/13 44/46/14 46/47/14
f 41/44/13 43/43/13 45/48/14 44/46/14
f 49/49/15 47/50/15 44/46/14 45/48/14
f 47/50/15 48/51/15 46/47/14 44/46/14
f 48/51/15 47/50/15 50/52/16 52/53/16
f 47/50/15 49/49/15 51/54/16 50/52/16
f 55/55/17 53/56/17 50/52/16 51/54/16
f 53/56/17 54/57/17 52/53/16 50/52/16
f 54/57/17 53/56/17 56/58/18 58/59/18
f 53/56/17 55/55/17 57/60/18 56/58/18
f 61/61/19 59/62/19 56/58/18 57/60/18
f 59/62/19 60/63/19 58/59/18 56/58/18
f 60/63/19 59/62/19 62/64/20 64/65/20
f 59/62/19 61/61/19 63/66/20 62/64/20
f 67/67/21 65/68/21 62/64/20 63/66/20
f 65/68/21 66/69/21 64/65/20 62/64/20
f 66/69/21 65/68/21 68/70/22 70/71/22
f 65/68/21 67/67/21 69/72/22 68/70/22
f 73/73/23 71/74/23 68/70/22 69/72/22
f 71/74/23 72/75/23 70/71/22 68/70/22
f 72/75/23 71/74/23 74/76/24 76/77/24
f 71/74/23 73/73/23 75/78/24 74/76/24
f 79/79/25 77/80/25 74/76/24 75/78/24
f 77/80/25 78/81/25 76/77/24 74/76/24
f 78/81/25 77/80/25 80/82/26 82/83/26
f 77/80/25 79/79/25 81/84/26 80/82/26
f 85/85/27 83/86/27 80/87/26 81/88/26
f 83/86/27 84/89/27 82/90/26 80/87/26
f 84/89/27 83/86/27 86/91/28 88/92/28
f 83/86/27 85/85/27 87/93/28 86/91/28
f 91/94/29 89/95/29 86/91/28 87/93/28
f 89/95/29 90/96/29 88/92/28 86/91/28
f 90/96/29 89/95/29 92/97/30 94/98/30
f 89/95/29 91/94/29 93/99/30 92/97/30
f 97/100/31 95/101/31 92/97/30 93/99/30
f 95/101/31 96/102/31 94/98/30 92/97/30
f 96/102/31 95/101/31 98/103/32 100/104/32
f 95/101/31 97/100/31 99/105/32 98/103/32
f 7/10/5 9/9/5 98/103/32 99/105/32
f 9/9/5 11/11/5 100/104/32 98/103/32
f 102/106/31 96/102/31 100/104/32 101/107/32
f 11/11/5 104/14/5 101/107/32 100/104/32
f 465/108/31 102/106/31 101/107/32 103/109/32
f 104/14/5 105/110/5 103/109/32 101/107/32
f 105/110/5 104/14/5 12/15/4 106/111/4
f 105/110/5 107/112/33 110/113/34 103/109/32
f 107/112/33 105/110/5 106/111/4 108/114/35
f 109/115/36 107/116/33 108/117/35 120/118/37
f 107/116/33 109/115/36 112/119/38 110/120/34
f 111/121/39 465/108/31 103/109/32 110/113/34
f 113/122/40 111/123/39 110/120/34 112/119/38
f 115/124/41 113/122/40 112/119/38 114/125/42
f 109/115/36 117/126/43 114/125/42 112/119/38
f 217/127/44 115/124/41 114/125/42 116/128/45
f 117/126/43 118/129/46 116/128/45 114/125/42
f 118/129/46 117/126/43 119/130/47 121/131/48
f 117/126/43 109/115/36 120/118/37 119/130/47
f 124/132/49 122/133/50 119/130/47 120/118/37
f 122/133/50 123/134/51 121/131/48 119/130/47
f 123/134/51 122/133/50 125/135/52 126/136/53
f 122/133/50 124/132/49 128/137/54 125/135/52
f 127/138/55 390/139/56 126/136/53 125/135/52
f 129/140/57 127/138/55 125/135/52 128/137/54
f 131/141/58 129/140/57 128/137/54 130/142/59
f 124/132/49 133/143/60 130/142/59 128/137/54
f 135/144/3 131/145/58 130/146/59 132/147/2
f 133/148/60 134/149/1 132/147/2 130/146/59
f 134/149/1 133/148/60 108/114/35 106/111/4
f 133/143/60 124/132/49 120/118/37 108/117/35
f 134/149/1 14/16/1 16/18/2 132/147/2
f 14/16/1 134/149/1 106/111/4 12/15/4
f 18/20/3 135/144/3 132/147/2 16/18/2
f 135/144/3 18/20/3 137/22/6 136/150/6
f 131/145/58 135/144/3 136/150/6 139/151/61
f 443/152/7 138/153/7 136/150/6 137/22/6
f 138/153/7 141/154/62 139/151/61 136/150/6
f 129/140/57 131/141/58 139/155/61 140/156/63
f 141/157/62 143/158/64 140/156/63 139/155/61
f 141/154/62 138/153/7 441/159/8 142/160/65
f 143/158/64 141/157/62 142/161/65 144/162/66
f 145/163/67 143/158/64 144/162/66 148/164/68
f 143/158/64 145/163/67 147/165/69 140/156/63
f 146/166/70 145/163/67 148/164/68 149/167/71
f 145/163/67 146/166/70 387/168/72 147/165/69
f 152/169/73 150/170/74 148/164/68 144/162/66
f 150/170/74 151/171/75 149/167/71 148/164/68
f 151/171/75 150/170/74 153/172/76 155/173/77
f 150/170/74 152/169/73 154/174/78 153/172/76
f 158/175/79 156/176/80 153/172/76 154/174/78
f 156/176/80 157/177/81 155/173/77 153/172/76
f 157/177/81 156/176/80 159/178/82 161/179/83
f 156/176/80 158/175/79 160/180/84 159/178/82
f 164/181/85 162/182/86 159/178/82 160/180/84
f 162/182/86 163/183/87 161/179/83 159/178/82
f 163/183/87 162/182/86 165/184/88 167/185/89
f 162/182/86 164/181/85 166/186/90 165/184/88
f 170/187/91 168/188/92 165/184/88 166/186/90
f 168/188/92 169/189/93 167/185/89 165/184/88
f 169/189/93 168/188/92 171/190/94 173/191/95
f 168/188/92 170/187/91 172/192/96 171/190/94
f 176/193/97 174/194/98 171/190/94 172/192/96
f 174/194/98 175/195/99 173/191/95 171/190/94
f 175/195/99 174/194/98 177/196/100 179/197/101
f 174/194/98 176/193/97 178/198/102 177/196/100
f 182/199/103 180/200/104 177/196/100 178/198/102
f 180/200/104 181/201/105 179/197/101 177/196/100
f 181/201/105 180/200/104 183/202/106 185/203/107
f 180/200/104 182/199/103 184/204/108 183/202/106
f 188/205/109 186/206/110 183/202/106 184/204/108
f 186/206/110 187/207/111 185/203/107 183/202/106
f 187/207/111 186/206/110 189/208/112 191/209/113
f 186/206/110 188/205/109 190/210/114 189/208/112
f 194/211/115 192/212/116 189/208/112 190/210/114
f 192/212/116 193/213/117 191/209/113 189/208/112
f 193/213/117 192/212/116 195/214/118 197/215/119
f 192/212/116 194/211/115 196/216/120 195/214/118
f 200/217/121 198/218/122 195/214/118 196/216/120
f 198/218/122 199/219/123 197/215/119 195/214/118
f 199/219/123 198/218/122 201/220/124 203/221/125
f 198/218/122 200/217/121 202/222/126 201/220/124
f 206/223/127 204/224/128 201/220/124 202/222/126
f 204/224/128 205/225/129 203/221/125 201/220/124
f 205/225/129 204/224/128 207/226/130 209/227/131
f 204/224/128 206/223/127 208/228/132 207/226/130
f 212/229/133 210/230/134 207/226/130 208/228/132
f 210/230/134 211/231/135 209/227/131 207/226/130
f 211/231/135 210/230/134 213/232/136 215/233/137
f 210/230/134 212/229/133 214/234/138 213/232/136
f 113/122/40 115/124/41 213/232/136 214/234/138
f 115/124/41 217/127/44 215/233/137 213/232/136
f 359/235/139 211/231/135 215/233/137 216/236/140
f 217/127/44 218/237/141 216/236/140 215/233/137
f 218/237/141 217/127/44 116/128/45 219/238/142
f 220/239/143 218/237/141 219/238/142 221/240/144
f 218/237/141 220/239/143 222/241/145 216/236/140
f 223/242/146 220/239/143 221/240/144 226/243/147
f 220/239/143 223/242/146 225/244/148 222/241/145
f 224/245/149 223/242/146 226/243/147 227/246/150
f 223/242/146 224/245/149 322/247/151 225/244/148
f 228/248/152 226/243/147 221/240/144 229/249/153
f 226/243/147 228/248/152 231/250/154 227/246/150
f 230/251/155 228/248/152 229/249/153 395/252/156
f 228/248/152 230/251/155 233/253/157 231/250/154
f 231/250/154 232/254/158 323/255/159 227/246/150
f 232/254/158 231/250/154 233/253/157 234/256/160
f 235/257/161 236/258/162 234/256/160 233/253/157
f 230/251/155 238/259/163 235/257/161 233/253/157
f 236/258/162 235/257/161 237/260/164 336/261/165
f 238/259/163 240/262/166 237/260/164 235/257/161
f 238/259/163 230/251/155 395/252/156 239/263/167
f 240/262/166 238/259/163 239/263/167 241/264/168
f 242/265/169 240/262/166 241/264/168 243/266/170
f 240/262/166 242/265/169 245/267/171 237/260/164
f 244/268/172 242/265/169 243/266/170 389/269/173
f 242/265/169 244/268/172 247/270/174 245/267/171
f 245/267/171 246/271/175 336/261/165 237/260/164
f 246/271/175 245/267/171 247/270/174 248/272/176
f 250/273/177 248/272/176 247/270/174 244/268/172
f 337/274/178 246/271/175 248/272/176 249/275/179
f 248/272/176 250/273/177 252/276/180 249/275/179
f 251/277/181 250/273/177 244/268/172 389/269/173
f 250/273/177 251/277/181 253/278/182 252/276/180
f 254/279/183 252/276/180 253/278/182 255/280/184
f 252/276/180 254/279/183 257/281/185 249/275/179
f 256/282/186 254/279/183 255/280/184 383/283/187
f 254/279/183 256/282/186 259/284/188 257/281/185
f 258/285/189 337/274/178 249/275/179 257/281/185
f 260/286/190 258/285/189 257/281/185 259/284/188
f 262/287/191 260/286/190 259/284/188 261/288/192
f 256/282/186 264/289/193 261/288/192 259/284/188
f 345/290/194 262/287/191 261/288/192 263/291/195
f 264/289/193 266/292/196 263/291/195 261/288/192
f 264/289/193 256/282/186 383/283/187 265/293/197
f 266/292/196 264/289/193 265/293/197 267/294/198
f 268/295/199 266/292/196 267/294/198 269/296/200
f 266/292/196 268/295/199 271/297/201 263/291/195
f 270/298/202 268/295/199 269/296/200 378/299/203
f 268/295/199 270/298/202 273/300/204 271/297/201
f 272/301/205 345/290/194 263/291/195 271/297/201
f 274/302/206 272/301/205 271/297/201 273/300/204
f 276/303/207 274/302/206 273/300/204 270/298/202
f 272/301/205 274/302/206 275/304/208 344/305/209
f 274/302/206 276/303/207 278/306/210 275/304/208
f 277/307/211 276/303/207 270/298/202 378/299/203
f 276/303/207 277/307/211 279/308/212 278/306/210
f 280/309/213 278/306/210 279/308/212 281/310/214
f 278/306/210 280/309/213 283/311/215 275/304/208
f 282/312/216 280/309/213 281/310/214 373/313/217
f 280/309/213 282/312/216 285/314/218 283/311/215
f 284/315/219 283/311/215 285/314/218 286/316/220
f 283/311/215 284/315/219 344/305/209 275/304/208
f 287/317/221 288/318/222 286/316/220 285/314/218
f 290/319/223 287/317/221 285/314/218 282/312/216
f 288/318/222 287/317/221 289/320/224 357/321/225
f 287/317/221 290/319/223 292/322/226 289/320/224
f 291/323/227 290/319/223 282/312/216 373/313/217
f 290/319/223 291/323/227 293/324/228 292/322/226
f 294/325/229 292/322/226 293/324/228 295/326/230
f 292/322/226 294/325/229 297/327/231 289/320/224
f 296/328/232 294/325/229 295/326/230 368/329/233
f 294/325/229 296/328/232 299/330/234 297/327/231
f 298/331/235 297/327/231 299/330/234 300/332/236
f 297/327/231 298/331/235 357/321/225 289/320/224
f 302/333/237 300/332/236 299/330/234 296/328/232
f 356/334/238 298/331/235 300/332/236 301/335/239
f 300/332/236 302/333/237 304/336/240 301/335/239
f 303/337/241 302/333/237 296/328/232 368/329/233
f 302/333/237 303/337/241 305/338/242 304/336/240
f 308/339/243 306/340/244 304/336/240 305/338/242
f 306/340/244 307/341/245 301/335/239 304/336/240
f 307/341/245 306/340/244 309/342/246 311/343/247
f 306/340/244 308/339/243 310/344/248 309/342/246
f 314/345/249 312/346/250 309/342/246 310/344/248
f 312/346/250 313/347/251 311/343/247 309/342/246
f 313/347/251 312/346/250 315/348/252 317/349/253
f 312/346/250 314/345/249 316/350/254 315/348/252
f 318/351/255 315/348/252 316/350/254 319/352/256
f 315/348/252 318/351/255 320/353/257 317/349/253
f 225/244/148 318/351/255 319/352/256 222/241/145
f 318/351/255 225/244/148 322/247/151 320/353/257
f 321/354/258 324/355/259 317/349/253 320/353/257
f 224/245/149 321/354/258 320/353/257 322/247/151
f 321/354/258 224/245/149 227/246/150 323/255/159
f 324/355/259 321/354/258 323/255/159 326/356/260
f 324/355/259 325/357/261 313/347/251 317/349/253
f 325/357/261 324/355/259 326/356/260 327/358/262
f 328/359/263 329/360/264 327/358/262 326/356/260
f 232/254/158 328/359/263 326/356/260 323/255/159
f 329/360/264 328/359/263 330/361/265 331/362/266
f 328/359/263 232/254/158 234/256/160 330/361/265
f 332/363/267 333/364/268 331/362/266 330/361/265
f 236/258/162 332/363/267 330/361/265 234/256/160
f 333/364/268 332/363/267 334/365/269 335/366/270
f 332/363/267 236/258/162 336/261/165 334/365/269
f 337/274/178 258/285/189 335/366/270 334/365/269
f 246/271/175 337/274/178 334/365/269 336/261/165
f 339/367/271 333/364/268 335/366/270 338/368/272
f 258/285/189 260/286/190 338/368/272 335/366/270
f 341/369/273 339/367/271 338/368/272 340/370/274
f 260/286/190 262/287/191 340/370/274 338/368/272
f 343/371/275 341/369/273 340/370/274 342/372/276
f 262/287/191 345/290/194 342/372/276 340/370/274
f 284/315/219 343/371/275 342/372/276 344/305/209
f 345/290/194 272/301/205 344/305/209 342/372/276
f 343/371/275 284/315/219 286/316/220 346/373/277
f 341/369/273 343/371/275 346/373/277 348/374/278
f 347/375/279 350/376/280 348/374/278 346/373/277
f 288/318/222 347/375/279 346/373/277 286/316/220
f 339/367/271 341/369/273 348/374/278 349/377/281
f 350/376/280 351/378/282 349/377/281 348/374/278
f 351/378/282 350/376/280 352/379/283 353/380/284
f 350/376/280 347/375/279 355/381/285 352/379/283
f 354/382/286 358/383/287 353/380/284 352/379/283
f 356/334/238 354/382/286 352/379/283 355/381/285
f 298/331/235 356/334/238 355/381/285 357/321/225
f 347/375/279 288/318/222 357/321/225 355/381/285
f 354/382/286 356/334/238 301/335/239 307/341/245
f 358/383/287 354/382/286 307/341/245 311/343/247
f 358/383/287 325/357/261 327/358/262 353/380/284
f 325/357/261 358/383/287 311/343/247 313/347/251
f 329/360/264 351/378/282 353/380/284 327/358/262
f 351/378/282 329/360/264 331/362/266 349/377/281
f 333/364/268 339/367/271 349/377/281 331/362/266
f 359/235/139 319/352/256 316/350/254 360/384/288
f 319/352/256 359/235/139 216/236/140 222/241/145
f 211/231/135 359/235/139 360/384/288 209/227/131
f 361/385/289 205/225/129 209/227/131 360/384/288
f 314/345/249 361/385/289 360/384/288 316/350/254
f 205/225/129 361/385/289 362/386/290 203/221/125
f 361/385/289 314/345/249 310/344/248 362/386/290
f 363/387/291 199/219/123 203/221/125 362/386/290
f 308/339/243 363/387/291 362/386/290 310/344/248
f 199/219/123 363/387/291 364/388/292 197/215/119
f 363/387/291 308/339/243 305/338/242 364/388/292
f 365/389/293 193/213/117 197/215/119 364/388/292
f 303/337/241 365/389/293 364/388/292 305/338/242
f 193/213/117 365/389/293 366/390/294 191/209/113
f 365/389/293 303/337/241 368/329/233 366/390/294
f 367/391/295 187/207/111 191/209/113 366/390/294
f 295/326/230 367/391/295 366/390/294 368/329/233
f 187/207/111 367/391/295 369/392/296 185/203/107
f 367/391/295 295/326/230 293/324/228 369/392/296
f 370/393/297 181/201/105 185/203/107 369/392/296
f 291/323/227 370/393/297 369/392/296 293/324/228
f 181/201/105 370/393/297 371/394/298 179/197/101
f 370/393/297 291/323/227 373/313/217 371/394/298
f 372/395/299 175/195/99 179/197/101 371/394/298
f 281/310/214 372/395/299 371/394/298 373/313/217
f 175/195/99 372/395/299 374/396/300 173/191/95
f 372/395/299 281/310/214 279/308/212 374/396/300
f 375/397/301 169/189/93 173/191/95 374/396/300
f 277/307/211 375/397/301 374/396/300 279/308/212
f 169/189/93 375/397/301 376/398/302 167/185/89
f 375/397/301 277/307/211 378/299/203 376/398/302
f 377/399/303 163/183/87 167/185/89 376/398/302
f 269/296/200 377/399/303 376/398/302 378/299/203
f 163/183/87 377/399/303 379/400/304 161/179/83
f 377/399/303 269/296/200 267/294/198 379/400/304
f 380/401/305 157/177/81 161/179/83 379/400/304
f 265/293/197 380/401/305 379/400/304 267/294/198
f 157/177/81 380/401/305 381/402/306 155/173/77
f 380/401/305 265/293/197 383/283/187 381/402/306
f 382/403/307 151/171/75 155/173/77 381/402/306
f 255/280/184 382/403/307 381/402/306 383/283/187
f 151/171/75 382/403/307 384/404/308 149/167/71
f 382/403/307 255/280/184 253/278/182 384/404/308
f 385/405/309 146/166/70 149/167/71 384/404/308
f 251/277/181 385/405/309 384/404/308 253/278/182
f 146/166/70 385/405/309 386/406/310 387/168/72
f 385/405/309 251/277/181 389/269/173 386/406/310
f 388/407/311 390/139/56 387/168/72 386/406/310
f 243/266/170 388/407/311 386/406/310 389/269/173
f 390/139/56 388/407/311 391/408/312 126/136/53
f 388/407/311 243/266/170 241/264/168 391/408/312
f 239/263/167 392/409/313 391/408/312 241/264/168
f 392/409/313 123/134/51 126/136/53 391/408/312
f 123/134/51 392/409/313 393/410/314 121/131/48
f 392/409/313 239/263/167 395/252/156 393/410/314
f 394/411/315 118/129/46 121/131/48 393/410/314
f 229/249/153 394/411/315 393/410/314 395/252/156
f 118/129/46 394/411/315 219/238/142 116/128/45
f 394/411/315 229/249/153 221/240/144 219/238/142
f 390/139/56 127/138/55 147/165/69 387/168/72
f 111/123/39 113/122/40 214/234/138 396/412/316
f 212/229/133 398/413/317 396/412/316 214/234/138
f 465/108/31 111/121/39 396/414/316 397/415/30
f 398/416/317 399/417/29 397/415/30 396/414/316
f 399/417/29 398/416/317 400/418/318 401/419/28
f 398/413/317 212/229/133 208/228/132 400/420/318
f 402/421/319 403/422/27 401/419/28 400/418/318
f 206/223/127 402/423/319 400/420/318 208/228/132
f 403/422/27 402/421/319 404/424/320 405/425/26
f 402/423/319 206/223/127 202/222/126 404/426/320
f 406/427/321 407/428/25 405/429/26 404/430/320
f 200/217/121 406/431/321 404/426/320 202/222/126
f 407/428/25 406/427/321 408/432/322 409/433/24
f 406/431/321 200/217/121 196/216/120 408/434/322
f 410/435/323 411/436/23 409/433/24 408/432/322
f 194/211/115 410/437/323 408/434/322 196/216/120
f 411/436/23 410/435/323 412/438/324 413/439/22
f 410/437/323 194/211/115 190/210/114 412/440/324
f 414/441/325 415/442/21 413/439/22 412/438/324
f 188/205/109 414/443/325 412/440/324 190/210/114
f 415/442/21 414/441/325 416/444/326 417/445/20
f 414/443/325 188/205/109 184/204/108 416/446/326
f 418/447/327 419/448/19 417/445/20 416/444/326
f 182/199/103 418/449/327 416/446/326 184/204/108
f 419/448/19 418/447/327 420/450/328 421/451/18
f 418/449/327 182/199/103 178/198/102 420/452/328
f 422/453/329 423/454/17 421/451/18 420/450/328
f 176/193/97 422/455/329 420/452/328 178/198/102
f 423/454/17 422/453/329 424/456/330 425/457/16
f 422/455/329 176/193/97 172/192/96 424/458/330
f 426/459/331 427/460/15 425/457/16 424/456/330
f 170/187/91 426/461/331 424/458/330 172/192/96
f 427/460/15 426/459/331 428/462/332 429/463/14
f 426/461/331 170/187/91 166/186/90 428/464/332
f 430/465/333 431/466/13 429/463/14 428/462/332
f 164/181/85 430/467/333 428/464/332 166/186/90
f 431/466/13 430/465/333 432/468/334 433/469/12
f 430/467/333 164/181/85 160/180/84 432/470/334
f 434/471/335 435/472/11 433/469/12 432/468/334
f 158/175/79 434/473/335 432/470/334 160/180/84
f 435/472/11 434/471/335 436/474/336 437/475/10
f 434/473/335 158/175/79 154/174/78 436/476/336
f 438/477/337 439/478/9 437/475/10 436/474/336
f 152/169/73 438/479/337 436/476/336 154/174/78
f 439/478/9 438/477/337 142/160/65 441/159/8
f 438/479/337 152/169/73 144/162/66 142/161/65
f 439/478/9 440/480/9 444/481/10 437/475/10
f 440/480/9 439/478/9 441/159/8 442/482/8
f 138/153/7 443/152/7 442/482/8 441/159/8
f 30/33/9 440/480/9 442/482/8 28/29/8
f 443/152/7 24/27/7 28/29/8 442/482/8
f 24/27/7 443/152/7 137/22/6 19/21/6
f 440/480/9 30/33/9 34/35/10 444/481/10
f 36/39/11 445/483/11 444/481/10 34/35/10
f 445/483/11 435/472/11 437/475/10 444/481/10
f 435/472/11 445/483/11 446/484/12 433/469/12
f 445/483/11 36/39/11 40/41/12 446/484/12
f 42/45/13 447/485/13 446/484/12 40/41/12
f 447/485/13 431/466/13 433/469/12 446/484/12
f 431/466/13 447/485/13 448/486/14 429/463/14
f 447/485/13 42/45/13 46/47/14 448/486/14
f 48/51/15 449/487/15 448/486/14 46/47/14
f 449/487/15 427/460/15 429/463/14 448/486/14
f 427/460/15 449/487/15 450/488/16 425/457/16
f 449/487/15 48/51/15 52/53/16 450/488/16
f 54/57/17 451/489/17 450/488/16 52/53/16
f 451/489/17 423/454/17 425/457/16 450/488/16
f 423/454/17 451/489/17 452/490/18 421/451/18
f 451/489/17 54/57/17 58/59/18 452/490/18
f 60/63/19 453/491/19 452/490/18 58/59/18
f 453/491/19 419/448/19 421/451/18 452/490/18
f 419/448/19 453/491/19 454/492/20 417/445/20
f 453/491/19 60/63/19 64/65/20 454/492/20
f 66/69/21 455/493/21 454/492/20 64/65/20
f 455/493/21 415/442/21 417/445/20 454/492/20
f 415/442/21 455/493/21 456/494/22 413/439/22
f 455/493/21 66/69/21 70/71/22 456/494/22
f 72/75/23 457/495/23 456/494/22 70/71/22
f 457/495/23 411/436/23 413/439/22 456/494/22
f 411/436/23 457/495/23 458/496/24 409/433/24
f 457/495/23 72/75/23 76/77/24 458/496/24
f 78/81/25 459/497/25 458/496/24 76/77/24
f 459/497/25 407/428/25 409/433/24 458/496/24
f 407/428/25 459/497/25 460/498/26 405/429/26
f 459/497/25 78/81/25 82/83/26 460/498/26
f 84/89/27 461/499/27 460/500/26 82/90/26
f 461/499/27 403/422/27 405/425/26 460/500/26
f 403/422/27 461/499/27 462/501/28 401/419/28
f 461/499/27 84/89/27 88/92/28 462/501/28
f 90/96/29 463/502/29 462/501/28 88/92/28
f 463/502/29 399/417/29 401/419/28 462/501/28
f 399/417/29 463/502/29 464/503/30 397/415/30
f 463/502/29 90/96/29 94/98/30 464/503/30
f 96/102/31 102/106/31 464/503/30 94/98/30
f 102/106/31 465/108/31 397/415/30 464/503/30
f 127/138/55 129/140/57 140/156/63 147/165/69
