# Blender 4.5.12 LTS
# www.blender.org
o Decal-Joystick-Right-Ring
v 34.314667 -28.776381 -0.100217
v 33.651535 -28.776381 3.233573
v 31.763094 -28.776381 6.059824
v 28.936844 -28.776381 7.948265
v 25.603054 -28.776381 8.611397
v 22.269264 -28.776381 7.948265
v 19.443014 -28.776381 6.059824
v 17.554571 -28.776381 3.233573
v 16.891439 -28.776381 -0.100216
v 17.554571 -28.776381 -3.434007
v 19.443014 -28.776381 -6.260257
v 22.269262 -28.776381 -8.148697
v 25.603054 -28.776381 -8.811828
v 28.936846 -28.776381 -8.148697
v 31.763098 -28.776381 -6.260255
v 33.651535 -28.776381 -3.434005
v 33.080437 -31.998407 -0.100191
v 32.511253 -31.998407 2.761276
v 30.890366 -31.998411 5.187111
v 28.464529 -31.998407 6.808003
v 25.603062 -31.998407 7.377184
v 22.741596 -31.998407 6.808004
v 20.315760 -31.998411 5.187112
v 18.694872 -31.998407 2.761276
v 18.125694 -31.998407 -0.100191
v 18.694872 -31.998407 -2.961657
v 20.315760 -31.998407 -5.387493
v 22.741596 -31.998407 -7.008384
v 25.603062 -31.998407 -7.577564
v 28.464531 -31.998407 -7.008385
v 30.890368 -31.998407 -5.387492
v 32.511257 -31.998407 -2.961656
v 31.801146 -32.063263 -0.100212
v 31.329342 -32.063263 2.271694
v 29.985769 -32.063263 4.282498
v 27.974962 -32.063263 5.626075
v 25.603056 -32.063263 6.097876
v 23.231150 -32.063263 5.626074
v 21.220346 -32.063263 4.282497
v 19.876772 -32.063263 2.271694
v 19.404968 -32.063263 -0.100212
v 19.876772 -32.063263 -2.472116
v 21.220346 -32.063263 -4.482922
v 23.231150 -32.063263 -5.826499
v 25.603056 -32.063263 -6.298301
v 27.974962 -32.063263 -5.826499
v 29.985771 -32.063263 -4.482920
v 31.329344 -32.063263 -2.472116
v 30.711065 -31.530424 -0.100206
v 30.322231 -31.530329 1.854533
v 29.214952 -31.530325 3.511685
v 27.557802 -31.530325 4.618959
v 25.603056 -31.530325 5.007783
v 23.648312 -31.530325 4.618959
v 21.991158 -31.530325 3.511684
v 20.883883 -31.530390 1.854541
v 20.495014 -31.531118 -0.100164
v 20.883669 -31.533377 -2.054993
v 21.990967 -31.534166 -3.712291
v 23.648207 -31.534258 -4.819638
v 25.603056 -31.534269 -5.208482
v 27.557911 -31.534204 -4.819631
v 29.215151 -31.533472 -3.712234
v 30.322308 -31.531210 -2.054935
v 31.073336 -31.617823 -0.100212
v 30.656935 -31.617823 1.993172
v 29.471125 -31.617823 3.767858
v 27.696440 -31.617823 4.953664
v 25.603056 -31.617823 5.370065
v 23.509672 -31.617823 4.953664
v 21.734987 -31.617823 3.767857
v 20.549179 -31.617823 1.993172
v 20.132778 -31.617823 -0.100212
v 20.549179 -31.617823 -2.193596
v 21.734983 -31.617823 -3.968282
v 23.509672 -31.617823 -5.154091
v 25.603056 -31.617823 -5.570492
v 27.696442 -31.617823 -5.154091
v 29.471127 -31.617823 -3.968282
v 30.656935 -31.617823 -2.193596
v 33.576912 -31.334757 -0.100203
v 33.631485 -29.622522 3.225269
v 31.747751 -29.622522 6.044479
v 28.928541 -29.622522 7.928215
v 25.603054 -29.622522 8.589698
v 22.277571 -29.622522 7.928216
v 19.458359 -29.622522 6.044479
v 17.574621 -29.622522 3.225269
v 16.913145 -29.622522 -0.100216
v 17.574621 -29.622522 -3.425701
v 19.458359 -29.622522 -6.244911
v 22.277571 -29.622522 -8.128647
v 25.603054 -29.622522 -8.790127
v 28.928545 -29.622522 -8.128647
v 31.747753 -29.622522 -6.244910
v 33.631485 -29.622522 -3.425699
v 34.292965 -29.622522 -0.100217
v 32.969944 -31.334757 2.951258
v 31.241425 -31.334761 5.538161
v 28.654520 -31.334757 7.266676
v 25.603060 -31.334757 7.873651
v 22.551600 -31.334757 7.266676
v 19.964695 -31.334761 5.538163
v 18.236181 -31.334757 2.951259
v 17.629208 -31.334757 -0.100202
v 18.236181 -31.334757 -3.151662
v 19.964693 -31.334757 -5.738567
v 22.551596 -31.334761 -7.467080
v 25.603060 -31.334757 -8.074055
v 28.654522 -31.334761 -7.467081
v 31.241425 -31.334757 -5.738566
v 32.969944 -31.334757 -3.151661
v 31.416971 -31.846575 -0.100212
v 30.974413 -31.846575 2.124676
v 29.714113 -31.846575 4.010846
v 27.827944 -31.846575 5.271144
v 25.603056 -31.846575 5.713702
v 23.378166 -31.846575 5.271144
v 21.491997 -31.846575 4.010845
v 20.231697 -31.846575 2.124676
v 19.789143 -31.846575 -0.100212
v 20.231697 -31.846575 -2.325100
v 21.491997 -31.846575 -4.211269
v 23.378166 -31.846575 -5.471570
v 25.603056 -31.846575 -5.914129
v 27.827946 -31.846575 -5.471570
v 29.714113 -31.846575 -4.211268
v 30.974415 -31.846575 -2.325099
v 32.242344 -32.094627 -0.100209
v 31.736959 -32.094627 2.440537
v 30.297741 -32.094635 4.594478
v 28.143801 -32.094627 6.033695
v 25.603058 -32.094627 6.539082
v 23.062309 -32.094627 6.033695
v 20.908369 -32.094635 4.594478
v 19.469154 -32.094627 2.440537
v 18.963768 -32.094627 -0.100209
v 19.469154 -32.094627 -2.640954
v 20.908369 -32.094627 -4.794896
v 23.062309 -32.094627 -6.234114
v 25.603058 -32.094627 -6.739499
v 28.143803 -32.094627 -6.234112
v 30.297745 -32.094627 -4.794895
v 31.736959 -32.094627 -2.640953
v 32.103058 -32.094627 2.592193
v 30.577946 -32.094635 4.874687
v 28.295448 -32.094627 6.399801
v 25.603062 -32.094627 6.935350
v 22.910679 -32.094627 6.399802
v 20.628185 -32.094635 4.874689
v 19.103071 -32.094627 2.592193
v 18.567524 -32.094627 -0.100192
v 19.103071 -32.094627 -2.792576
v 20.628180 -32.094627 -5.075072
v 22.910675 -32.094627 -6.600185
v 25.603062 -32.094627 -7.135733
v 28.295450 -32.094627 -6.600185
v 30.577948 -32.094627 -5.075071
v 32.103058 -32.094627 -2.792575
v 32.638603 -32.094627 -0.100192
v 33.353462 -30.509531 -3.310533
v 31.534966 -30.509531 -6.032115
v 28.813379 -30.509535 -7.850617
v 25.603056 -30.509535 -8.489189
v 22.392733 -30.509535 -7.850617
v 19.671148 -30.509535 -6.032115
v 17.852648 -30.509535 -3.310534
v 17.214079 -30.509531 -0.100211
v 17.852648 -30.509531 3.110112
v 19.671152 -30.509531 5.831693
v 22.392733 -30.509531 7.650196
v 25.603056 -30.509531 8.288771
v 28.813379 -30.509531 7.650196
v 31.534964 -30.509531 5.831692
v 33.353462 -30.509531 3.110112
v 33.992035 -30.509531 -0.100212
v 34.234806 -29.144148 1.616745
v 32.920700 -29.144148 4.789279
v 30.492548 -29.144148 7.217429
v 27.320017 -29.144148 8.531536
v 23.886091 -29.144148 8.531536
v 20.713560 -29.144148 7.217429
v 18.285408 -29.144148 4.789279
v 16.971302 -29.144148 1.616746
v 16.971302 -29.144148 -1.817178
v 18.285406 -29.144148 -4.989711
v 20.713558 -29.144148 -7.417863
v 23.886091 -29.144148 -8.731968
v 27.320019 -29.144148 -8.731968
v 30.492548 -29.144148 -7.417862
v 32.920700 -29.144148 -4.989709
v 34.234806 -29.144148 -1.817178
v 32.708878 -32.094200 1.313243
v 31.627079 -32.094200 3.924928
v 29.628181 -32.094200 5.923826
v 27.016495 -32.094200 7.005622
v 24.189632 -32.094200 7.005621
v 21.577946 -32.094200 5.923826
v 19.579050 -32.094200 3.924928
v 18.497255 -32.094200 1.313244
v 18.497255 -32.094200 -1.513622
v 19.579048 -32.094200 -4.125306
v 21.577946 -32.094200 -6.124204
v 24.189632 -32.094200 -7.205998
v 27.016499 -32.094200 -7.205998
v 29.628183 -32.094200 -6.124204
v 31.627083 -32.094200 -4.125305
v 32.708878 -32.094200 -1.513622
v 31.485706 -31.969736 1.069920
v 30.590126 -31.969736 3.232042
v 28.935308 -31.969736 4.886858
v 26.773190 -31.969736 5.782439
v 24.432922 -31.969736 5.782439
v 22.270802 -31.969736 4.886858
v 20.615982 -31.969736 3.232041
v 19.720404 -31.969736 1.069920
v 19.720407 -31.969736 -1.270344
v 20.615982 -31.969736 -3.432465
v 22.270802 -31.969736 -5.087283
v 24.432922 -31.969736 -5.982865
v 26.773190 -31.969736 -5.982865
v 28.935312 -31.969736 -5.087282
v 30.590128 -31.969736 -3.432464
v 31.485706 -31.969736 -1.270343
v 30.861767 -31.545511 0.945810
v 30.061174 -31.545511 2.878607
v 28.581875 -31.545511 4.357905
v 26.649078 -31.545511 5.158496
v 24.557034 -31.545511 5.158496
v 22.624235 -31.545511 4.357905
v 21.144936 -31.545511 2.878606
v 20.344337 -31.545511 0.945812
v 20.344282 -31.545534 -1.146247
v 21.144835 -31.545553 -3.079099
v 22.624161 -31.545557 -4.558442
v 24.557009 -31.545557 -5.359054
v 26.649105 -31.545557 -5.359053
v 28.581944 -31.545553 -4.558435
v 30.061234 -31.545534 -3.079068
v 30.861776 -31.545515 -1.146236
v 33.990208 -30.074812 1.568094
v 32.713345 -30.074812 4.650728
v 30.353996 -30.074812 7.010074
v 27.271364 -30.074812 8.286943
v 23.934744 -30.074812 8.286943
v 20.852112 -30.074812 7.010074
v 18.492767 -30.074812 4.650728
v 17.215900 -30.074812 1.568095
v 17.215900 -30.074812 -1.768523
v 18.492767 -30.074812 -4.851156
v 20.852108 -30.074812 -7.210501
v 23.934744 -30.074812 -8.487369
v 27.271366 -30.074812 -8.487370
v 30.354000 -30.074812 -7.210501
v 32.713345 -30.074812 -4.851155
v 33.990208 -30.074812 -1.768523
v 33.180717 -31.717134 1.407093
v 32.027092 -31.717134 4.192200
v 29.895456 -31.717131 6.323831
v 27.110350 -31.717131 7.477460
v 24.095772 -31.717134 7.477460
v 21.310665 -31.717134 6.323832
v 19.179037 -31.717134 4.192202
v 18.025408 -31.717134 1.407093
v 18.025408 -31.717134 -1.607485
v 19.179035 -31.717134 -4.392592
v 21.310663 -31.717134 -6.524222
v 24.095772 -31.717134 -7.677852
v 27.110350 -31.717134 -7.677852
v 29.895460 -31.717134 -6.524222
v 32.027092 -31.717134 -4.392591
v 33.180717 -31.717134 -1.607485
v 31.123955 -31.724226 0.997962
v 30.283447 -31.724230 3.027125
v 28.730394 -31.724230 4.580179
v 26.701229 -31.724230 5.420685
v 24.504883 -31.724230 5.420685
v 22.475719 -31.724230 4.580179
v 20.922665 -31.724230 3.027125
v 20.082161 -31.724226 0.997963
v 20.082161 -31.724226 -1.198387
v 20.922665 -31.724226 -3.227549
v 22.475719 -31.724226 -4.780604
v 24.504881 -31.724226 -5.621112
v 26.701229 -31.724230 -5.621112
v 28.730396 -31.724230 -4.780604
v 30.283447 -31.724226 -3.227548
v 31.123955 -31.724226 -1.198386
v 31.897795 -32.094589 1.151889
v 30.939478 -32.094589 3.465471
v 29.168737 -32.094589 5.236210
v 26.855158 -32.094589 6.194527
v 24.350952 -32.094589 6.194527
v 22.037373 -32.094589 5.236210
v 20.266634 -32.094589 3.465471
v 19.308317 -32.094589 1.151890
v 19.308317 -32.094589 -1.352313
v 20.266634 -32.094589 -3.665895
v 22.037373 -32.094589 -5.436635
v 24.350952 -32.094589 -6.394952
v 26.855160 -32.094589 -6.394952
v 29.168741 -32.094589 -5.436634
v 30.939478 -32.094589 -3.665893
v 31.897797 -32.094589 -1.352312
v 32.309795 -32.094627 1.233851
v 31.288754 -32.094627 3.698859
v 29.402119 -32.094627 5.585495
v 26.937113 -32.094627 6.606535
v 24.269009 -32.094627 6.606535
v 21.804001 -32.094627 5.585495
v 19.917368 -32.094627 3.698860
v 18.896326 -32.094627 1.233852
v 18.896326 -32.094627 -1.434253
v 19.917366 -32.094627 -3.899260
v 21.803999 -32.094627 -5.785896
v 24.269005 -32.094627 -6.806935
v 26.937115 -32.094627 -6.806935
v 29.402122 -32.094627 -5.785896
v 31.288757 -32.094627 -3.899259
v 32.309795 -32.094627 -1.434252
v 33.639118 -30.930979 1.498264
v 32.415703 -30.930979 4.451855
v 30.155121 -30.930979 6.712436
v 27.201530 -30.930979 7.935855
v 24.004587 -30.930979 7.935855
v 21.050993 -30.930979 6.712436
v 18.790413 -30.930979 4.451856
v 17.566996 -30.930979 1.498265
v 17.566996 -30.930979 -1.698678
v 18.790413 -30.930979 -4.652269
v 21.050993 -30.930979 -6.912851
v 24.004587 -30.930979 -8.136269
v 27.201530 -30.930979 -8.136269
v 30.155123 -30.930979 -6.912851
v 32.415703 -30.930979 -4.652270
v 33.639118 -30.930979 -1.698678
v 34.145672 -28.776384 1.599015
v 32.845135 -28.776384 4.738787
v 30.442057 -28.776384 7.141865
v 27.302286 -28.776384 8.442403
v 23.903822 -28.776384 8.442403
v 20.764050 -28.776384 7.141865
v 18.360971 -28.776384 4.738787
v 17.060436 -28.776384 1.599016
v 17.060436 -28.776384 -1.799449
v 18.360970 -28.776384 -4.939221
v 20.764048 -28.776384 -7.342298
v 23.903822 -28.776384 -8.642834
v 27.302286 -28.776384 -8.642834
v 30.442062 -28.776384 -7.342297
v 32.845135 -28.776384 -4.939219
v 34.145672 -28.776384 -1.799448
v 32.935383 -31.998407 1.358297
v 33.330624 -31.717134 -0.100196
v 33.735516 -29.144148 3.268358
v 31.819101 -31.998407 4.053233
v 31.827370 -29.144148 6.124099
v 29.756491 -31.998407 6.115849
v 28.971630 -29.144148 8.032244
v 27.061556 -31.998407 7.232129
v 25.603054 -29.144148 8.702295
v 24.144577 -31.998407 7.232129
v 22.234476 -29.144148 8.032244
v 21.449640 -31.998407 6.115850
v 19.378738 -29.144148 6.124099
v 19.387026 -31.998407 4.053234
v 17.470594 -29.144148 3.268359
v 18.270746 -31.998407 1.358298
v 16.800541 -29.144148 -0.100216
v 18.270746 -31.998407 -1.558679
v 17.470594 -29.144148 -3.468792
v 19.387024 -31.998407 -4.253614
v 19.378738 -29.144148 -6.324532
v 21.449636 -31.998407 -6.316230
v 22.234476 -29.144148 -8.232677
v 24.144577 -31.998407 -7.432508
v 25.603054 -29.144148 -8.902726
v 27.061556 -31.998407 -7.432508
v 28.971632 -29.144148 -8.232676
v 29.756493 -31.998407 -6.316230
v 31.827370 -29.144148 -6.324531
v 31.819105 -31.998407 -4.253614
v 33.735516 -29.144148 -3.468790
v 32.935383 -31.998407 -1.558679
v 31.680901 -32.063263 1.108746
v 32.022324 -32.094589 -0.100212
v 32.297859 -32.094200 2.672883
v 30.755604 -32.063263 3.342610
v 30.727036 -32.094200 5.023780
v 29.045877 -32.063263 5.052335
v 28.376135 -32.094200 6.594601
v 26.812014 -32.063263 5.977633
v 25.603065 -32.094200 7.146199
v 24.394098 -32.063263 5.977633
v 22.829992 -32.094200 6.594601
v 22.160233 -32.063263 5.052335
v 20.479095 -32.094200 5.023781
v 20.450510 -32.063263 3.342610
v 18.908276 -32.094200 2.672883
v 19.525211 -32.063263 1.108747
v 18.356680 -32.094200 -0.100189
v 19.525211 -32.063263 -1.309170
v 18.908276 -32.094200 -2.873261
v 20.450510 -32.063263 -3.543033
v 20.479094 -32.094200 -5.224159
v 22.160233 -32.063263 -5.252759
v 22.829992 -32.094200 -6.794979
v 24.394098 -32.063263 -6.178058
v 25.603065 -32.094200 -7.346576
v 26.812016 -32.063263 -6.178058
v 28.376139 -32.094200 -6.794979
v 29.045877 -32.063263 -5.252759
v 30.727036 -32.094200 -5.224159
v 30.755606 -32.063263 -3.543033
v 32.297859 -32.094200 -2.873259
v 31.680901 -32.063263 -1.309169
v 30.611963 -31.530344 0.896121
v 29.849400 -31.530325 2.737103
v 28.440372 -31.530325 4.146131
v 26.599386 -31.530325 4.908691
v 24.606724 -31.530325 4.908691
v 22.765739 -31.530325 4.146130
v 21.356710 -31.530325 2.737103
v 20.594141 -31.530577 0.896149
v 20.594015 -31.532248 -1.096513
v 21.356493 -31.533949 -2.937644
v 22.765587 -31.534250 -4.346781
v 24.606668 -31.534266 -5.109385
v 26.599443 -31.534269 -5.109385
v 28.440538 -31.534021 -4.346756
v 29.849554 -31.532343 -2.937558
v 30.611992 -31.530638 -1.096524
v 31.602093 -31.969736 -0.100212
v 31.145441 -31.969736 2.195518
v 29.845013 -31.969736 4.141744
v 27.898787 -31.969736 5.442170
v 25.603056 -31.969736 5.898821
v 23.307323 -31.969736 5.442170
v 21.361101 -31.969736 4.141744
v 20.060675 -31.969736 2.195518
v 19.604023 -31.969736 -0.100212
v 20.060675 -31.969736 -2.395941
v 21.361099 -31.969736 -4.342168
v 23.307323 -31.969736 -5.642597
v 25.603056 -31.969736 -6.099246
v 27.898787 -31.969736 -5.642596
v 29.845015 -31.969736 -4.342167
v 31.145441 -31.969736 -2.395940
v 33.505070 -30.074812 -3.373333
v 30.965801 -31.545507 -0.100212
v 30.557581 -31.545507 1.952018
v 29.395086 -31.545507 3.691815
v 27.655289 -31.545507 4.854311
v 25.603056 -31.545507 5.262527
v 23.550825 -31.545507 4.854311
v 21.811029 -31.545507 3.691815
v 20.648527 -31.545507 1.952019
v 20.240290 -31.545519 -0.100212
v 20.648434 -31.545546 -2.152483
v 21.810938 -31.545553 -3.892333
v 23.550774 -31.545553 -5.054860
v 25.603056 -31.545553 -5.463087
v 27.655338 -31.545553 -5.054859
v 29.395163 -31.545546 -3.892315
v 30.557610 -31.545519 -2.152453
v 30.967211 -31.617819 0.966784
v 30.150566 -31.617823 2.938337
v 28.641602 -31.617823 4.447297
v 26.670052 -31.617823 5.263942
v 24.536058 -31.617823 5.263942
v 22.564508 -31.617823 4.447297
v 21.055544 -31.617823 2.938336
v 20.238899 -31.617819 0.966784
v 20.238899 -31.617819 -1.167208
v 21.055544 -31.617819 -3.138762
v 22.564507 -31.617819 -4.647724
v 24.536058 -31.617819 -5.464370
v 26.670052 -31.617823 -5.464368
v 28.641607 -31.617823 -4.647723
v 30.150566 -31.617819 -3.138761
v 30.967211 -31.617819 -1.167208
v 33.798092 -30.930979 -0.100208
v 33.505070 -30.074812 3.172906
v 31.650993 -30.074812 5.947723
v 28.876177 -30.074812 7.801797
v 25.603054 -30.074812 8.452862
v 22.329933 -30.074812 7.801797
v 19.555117 -30.074812 5.947724
v 17.701042 -30.074812 3.172906
v 17.049978 -30.074812 -0.100214
v 17.701042 -30.074812 -3.373333
v 19.555115 -30.074812 -6.148151
v 22.329935 -30.074812 -8.002224
v 25.603056 -30.074812 -8.653290
v 28.876175 -30.074812 -8.002224
v 31.650995 -30.074812 -6.148151
v 34.405563 -29.144148 -0.100217
v 32.742397 -31.717134 2.857013
v 31.067272 -31.717134 5.364014
v 28.560272 -31.717134 7.039141
v 25.603060 -31.717134 7.627367
v 22.645851 -31.717134 7.039141
v 20.138849 -31.717134 5.364017
v 18.463726 -31.717134 2.857014
v 17.875500 -31.717134 -0.100196
v 18.463726 -31.717134 -3.057405
v 20.138849 -31.717134 -5.564407
v 22.645851 -31.717134 -7.239532
v 25.603060 -31.717134 -7.827758
v 28.560274 -31.717134 -7.239532
v 31.067276 -31.717134 -5.564407
v 32.742397 -31.717134 -3.057404
v 34.124393 -29.622522 1.594783
v 32.827095 -29.622522 4.726733
v 30.430004 -29.622522 7.123825
v 27.298054 -29.622519 8.421123
v 23.908058 -29.622519 8.421123
v 20.776102 -29.622522 7.123825
v 18.379013 -29.622522 4.726735
v 17.081715 -29.622522 1.594784
v 17.081715 -29.622522 -1.795215
v 18.379011 -29.622522 -4.927165
v 20.776102 -29.622522 -7.324257
v 23.908058 -29.622522 -8.621552
v 27.298056 -29.622522 -8.621552
v 30.430006 -29.622522 -7.324255
v 32.827099 -29.622522 -4.927164
v 34.124393 -29.622522 -1.795215
v 33.422226 -31.334757 1.455127
v 32.231831 -31.334757 4.329000
v 30.032263 -31.334757 6.528568
v 27.158386 -31.334757 7.718967
v 24.047731 -31.334757 7.718967
v 21.173855 -31.334757 6.528569
v 18.974289 -31.334761 4.329001
v 17.783892 -31.334757 1.455127
v 17.783892 -31.334757 -1.655531
v 18.974289 -31.334757 -4.529404
v 21.173853 -31.334757 -6.728972
v 24.047731 -31.334761 -7.919371
v 27.158388 -31.334757 -7.919371
v 30.032265 -31.334757 -6.728972
v 32.231831 -31.334757 -4.529404
v 33.422226 -31.334757 -1.655531
v 32.442474 -32.094627 -0.100201
v 31.233179 -31.724226 -0.100212
v 30.804611 -31.724226 2.054342
v 29.584152 -31.724230 3.880884
v 27.757612 -31.724230 5.101341
v 25.603056 -31.724230 5.529910
v 23.448503 -31.724230 5.101341
v 21.621960 -31.724230 3.880884
v 20.401501 -31.724226 2.054342
v 19.972935 -31.724226 -0.100212
v 20.401501 -31.724226 -2.254766
v 21.621958 -31.724226 -4.081309
v 23.448502 -31.724226 -5.301767
v 25.603056 -31.724226 -5.730336
v 27.757612 -31.724230 -5.301767
v 29.584154 -31.724226 -4.081308
v 30.804611 -31.724226 -2.254765
v 31.304180 -31.846575 1.033812
v 30.436237 -31.846575 3.129216
v 28.832483 -31.846575 4.732968
v 26.737080 -31.846575 5.600913
v 24.469032 -31.846575 5.600913
v 22.373629 -31.846575 4.732967
v 20.769875 -31.846575 3.129215
v 19.901932 -31.846575 1.033812
v 19.901932 -31.846575 -1.234236
v 20.769875 -31.846575 -3.329640
v 22.373629 -31.846575 -4.933393
v 24.469032 -31.846575 -5.801340
v 26.737082 -31.846575 -5.801340
v 28.832485 -31.846575 -4.933393
v 30.436237 -31.846575 -3.329638
v 31.304182 -31.846575 -1.234236
v 31.533689 -32.094589 2.356337
v 30.142166 -32.094589 4.438898
v 28.059605 -32.094589 5.830420
v 25.603056 -32.094589 6.319058
v 23.146505 -32.094589 5.830420
v 21.063944 -32.094589 4.438897
v 19.672422 -32.094589 2.356337
v 19.183786 -32.094589 -0.100212
v 19.672422 -32.094589 -2.556759
v 21.063944 -32.094589 -4.639321
v 23.146505 -32.094589 -6.030845
v 25.603056 -32.094589 -6.519483
v 28.059605 -32.094589 -6.030845
v 30.142166 -32.094589 -4.639321
v 31.533689 -32.094589 -2.556758
v 32.113548 -32.094627 1.194808
v 31.122383 -32.094627 3.587688
v 29.290956 -32.094627 5.419119
v 26.898073 -32.094627 6.410283
v 24.308041 -32.094627 6.410283
v 21.915159 -32.094627 5.419120
v 20.083727 -32.094627 3.587688
v 19.092567 -32.094627 1.194808
v 19.092567 -32.094627 -1.395226
v 20.083727 -32.094627 -3.788106
v 21.915159 -32.094627 -5.619539
v 24.308037 -32.094627 -6.610702
v 26.898073 -32.094627 -6.610701
v 29.290958 -32.094627 -5.619537
v 31.122387 -32.094627 -3.788105
v 32.113548 -32.094627 -1.395225
v 31.921856 -32.094627 2.517130
v 30.439257 -32.094627 4.735996
v 28.220390 -32.094627 6.218595
v 25.603060 -32.094627 6.739215
v 22.985729 -32.094627 6.218595
v 20.766865 -32.094627 4.735996
v 19.284266 -32.094627 2.517130
v 18.763647 -32.094627 -0.100200
v 19.284266 -32.094627 -2.717531
v 20.766865 -32.094627 -4.936397
v 22.985729 -32.094627 -6.418996
v 25.603060 -32.094627 -6.939615
v 28.220390 -32.094627 -6.418996
v 30.439257 -32.094627 -4.936396
v 31.921856 -32.094627 -2.717529
v 32.849449 -32.094200 -0.100190
v 32.502121 -32.094627 1.272115
v 31.451805 -32.094627 3.807809
v 29.511065 -32.094627 5.748547
v 26.975372 -32.094627 6.798866
v 24.230755 -32.094627 6.798866
v 21.695063 -32.094627 5.748547
v 19.754326 -32.094627 3.807810
v 18.704008 -32.094627 1.272116
v 18.704008 -32.094627 -1.472499
v 19.754324 -32.094627 -4.008193
v 21.695063 -32.094627 -5.948931
v 24.230755 -32.094627 -6.999249
v 26.975372 -32.094627 -6.999249
v 29.511066 -32.094627 -5.948931
v 31.451805 -32.094627 -4.008193
v 32.502121 -32.094627 -1.472499
v 33.174286 -30.930979 -3.236310
v 31.397823 -30.930979 -5.894972
v 28.739162 -30.930979 -7.671432
v 25.603058 -30.930979 -8.295242
v 22.466953 -30.930983 -7.671432
v 19.808292 -30.930979 -5.894973
v 18.031834 -30.930979 -3.236310
v 17.408022 -30.930979 -0.100207
v 18.031834 -30.930979 3.035897
v 19.808290 -30.930979 5.694558
v 22.466953 -30.930979 7.471019
v 25.603058 -30.930979 8.094830
v 28.739161 -30.930979 7.471019
v 31.397825 -30.930979 5.694557
v 33.174286 -30.930979 3.035896
v 34.156132 -30.074812 -0.100215
v 33.829300 -30.509531 1.536089
v 32.576927 -30.509531 4.559581
v 30.262850 -30.509531 6.873661
v 27.239357 -30.509531 8.126033
v 23.966755 -30.509531 8.126032
v 20.943260 -30.509531 6.873661
v 18.629185 -30.509531 4.559581
v 17.376812 -30.509531 1.536090
v 17.376814 -30.509531 -1.736512
v 18.629187 -30.509531 -4.760003
v 20.943262 -30.509535 -7.074083
v 23.966755 -30.509535 -8.326453
v 27.239359 -30.509535 -8.326453
v 30.262848 -30.509531 -7.074083
v 32.576927 -30.509531 -4.760002
v 33.829300 -30.509531 -1.736512
vn 0.9708 0.2399 -0.0000
vn 0.9521 0.2399 0.1894
vn 0.9808 0.0055 0.1951
vn 1.0000 0.0055 -0.0000
vn 0.8969 0.2399 0.3715
vn 0.9239 0.0055 0.3827
vn 0.8924 -0.2590 0.3696
vn 0.9473 -0.2589 0.1884
vn 0.9659 -0.2590 -0.0000
vn 0.8072 0.2399 0.5393
vn 0.8315 0.0055 0.5556
vn 0.6865 0.2399 0.6864
vn 0.7071 0.0055 0.7071
vn 0.6830 -0.2590 0.6830
vn 0.8031 -0.2589 0.5366
vn 0.5393 0.2399 0.8072
vn 0.5556 0.0055 0.8315
vn 0.3715 0.2399 0.8969
vn 0.3827 0.0055 0.9239
vn 0.3696 -0.2590 0.8924
vn 0.5366 -0.2589 0.8031
vn 0.1894 0.2399 0.9521
vn 0.1951 0.0055 0.9808
vn -0.0000 0.2399 0.9708
vn -0.0000 0.0055 1.0000
vn -0.0000 -0.2590 0.9659
vn 0.1884 -0.2589 0.9473
vn -0.1894 0.2399 0.9521
vn -0.1951 0.0055 0.9808
vn -0.3715 0.2399 0.8969
vn -0.3827 0.0055 0.9239
vn -0.3696 -0.2590 0.8924
vn -0.1884 -0.2589 0.9473
vn -0.5393 0.2399 0.8072
vn -0.5556 0.0055 0.8315
vn -0.6864 0.2399 0.6865
vn -0.7071 0.0055 0.7071
vn -0.6830 -0.2590 0.6830
vn -0.5366 -0.2589 0.8031
vn -0.8072 0.2399 0.5393
vn -0.8315 0.0055 0.5556
vn -0.8969 0.2399 0.3715
vn -0.9239 0.0055 0.3827
vn -0.8924 -0.2590 0.3696
vn -0.8031 -0.2589 0.5366
vn -0.9521 0.2399 0.1894
vn -0.9808 0.0055 0.1951
vn -0.9708 0.2399 -0.0000
vn -1.0000 0.0055 -0.0000
vn -0.9659 -0.2590 -0.0000
vn -0.9473 -0.2589 0.1884
vn -0.9521 0.2399 -0.1894
vn -0.9808 0.0055 -0.1951
vn -0.8969 0.2399 -0.3715
vn -0.9239 0.0055 -0.3827
vn -0.8924 -0.2590 -0.3696
vn -0.9473 -0.2589 -0.1884
vn -0.8072 0.2399 -0.5393
vn -0.8315 0.0055 -0.5556
vn -0.6864 0.2399 -0.6865
vn -0.7071 0.0055 -0.7071
vn -0.6830 -0.2590 -0.6830
vn -0.8031 -0.2589 -0.5366
vn -0.5393 0.2399 -0.8072
vn -0.5556 0.0055 -0.8315
vn -0.3715 0.2399 -0.8969
vn -0.3827 0.0055 -0.9239
vn -0.3696 -0.2590 -0.8924
vn -0.5366 -0.2589 -0.8031
vn -0.1894 0.2399 -0.9521
vn -0.1951 0.0055 -0.9808
vn -0.0000 0.2399 -0.9708
vn -0.0000 0.0055 -1.0000
vn -0.0000 -0.2590 -0.9659
vn -0.1884 -0.2589 -0.9473
vn 0.1894 0.2399 -0.9521
vn 0.1951 0.0055 -0.9808
vn 0.3715 0.2399 -0.8969
vn 0.3827 0.0055 -0.9239
vn 0.3696 -0.2590 -0.8924
vn 0.1884 -0.2589 -0.9473
vn 0.5393 0.2399 -0.8072
vn 0.5556 0.0055 -0.8315
vn 0.6865 0.2399 -0.6865
vn 0.7071 0.0055 -0.7071
vn 0.6830 -0.2590 -0.6830
vn 0.5366 -0.2589 -0.8031
vn 0.8072 0.2399 -0.5393
vn 0.8315 0.0055 -0.5556
vn 0.8969 0.2399 -0.3715
vn 0.9239 0.0055 -0.3827
vn 0.8924 -0.2590 -0.3696
vn 0.8031 -0.2589 -0.5366
vn 0.9521 0.2399 -0.1894
vn 0.9808 0.0055 -0.1951
vn 0.9473 -0.2589 -0.1884
vn 0.5890 -0.8081 -0.0000
vn 0.5776 -0.8082 0.1149
vn 0.2038 -0.9782 0.0405
vn 0.2080 -0.9781 -0.0000
vn 0.5442 -0.8081 0.2254
vn 0.1922 -0.9781 0.0796
vn 0.0010 -1.0000 0.0004
vn 0.0011 -1.0000 0.0002
vn 0.0011 -1.0000 -0.0000
vn 0.4896 -0.8082 0.3272
vn 0.1728 -0.9782 0.1155
vn 0.4165 -0.8081 0.4165
vn 0.1471 -0.9781 0.1471
vn 0.0008 -1.0000 0.0008
vn 0.0009 -1.0000 0.0006
vn 0.3272 -0.8082 0.4896
vn 0.1155 -0.9782 0.1728
vn 0.2254 -0.8081 0.5442
vn 0.0796 -0.9781 0.1922
vn 0.0004 -1.0000 0.0010
vn 0.0006 -1.0000 0.0009
vn 0.1149 -0.8082 0.5776
vn 0.0405 -0.9782 0.2038
vn -0.0000 -0.8081 0.5890
vn -0.0000 -0.9781 0.2080
vn -0.0000 -1.0000 0.0011
vn 0.0002 -1.0000 0.0011
vn -0.1149 -0.8082 0.5776
vn -0.0405 -0.9782 0.2038
vn -0.2254 -0.8081 0.5442
vn -0.0796 -0.9781 0.1922
vn -0.0004 -1.0000 0.0010
vn -0.0002 -1.0000 0.0011
vn -0.3272 -0.8082 0.4896
vn -0.1155 -0.9782 0.1728
vn -0.4165 -0.8081 0.4165
vn -0.1471 -0.9781 0.1471
vn -0.0008 -1.0000 0.0008
vn -0.0006 -1.0000 0.0009
vn -0.4896 -0.8082 0.3272
vn -0.1728 -0.9782 0.1155
vn -0.5442 -0.8081 0.2254
vn -0.1922 -0.9781 0.0796
vn -0.0010 -1.0000 0.0004
vn -0.0009 -1.0000 0.0006
vn -0.5776 -0.8082 0.1149
vn -0.2038 -0.9782 0.0405
vn -0.5890 -0.8081 -0.0000
vn -0.2080 -0.9781 -0.0000
vn -0.0011 -1.0000 -0.0000
vn -0.0011 -1.0000 0.0002
vn -0.5776 -0.8082 -0.1149
vn -0.2038 -0.9782 -0.0405
vn -0.5442 -0.8081 -0.2254
vn -0.1922 -0.9781 -0.0796
vn -0.0010 -1.0000 -0.0004
vn -0.0011 -1.0000 -0.0002
vn -0.4896 -0.8082 -0.3272
vn -0.1728 -0.9782 -0.1155
vn -0.4165 -0.8081 -0.4165
vn -0.1471 -0.9781 -0.1471
vn -0.0008 -1.0000 -0.0008
vn -0.0009 -1.0000 -0.0006
vn -0.3272 -0.8082 -0.4896
vn -0.1155 -0.9782 -0.1728
vn -0.2254 -0.8081 -0.5441
vn -0.0796 -0.9781 -0.1922
vn -0.0004 -1.0000 -0.0010
vn -0.0006 -1.0000 -0.0009
vn -0.1149 -0.8082 -0.5776
vn -0.0405 -0.9782 -0.2038
vn -0.0000 -0.8081 -0.5890
vn -0.0000 -0.9781 -0.2080
vn -0.0000 -1.0000 -0.0011
vn -0.0002 -1.0000 -0.0011
vn 0.1149 -0.8082 -0.5776
vn 0.0405 -0.9782 -0.2038
vn 0.2254 -0.8081 -0.5442
vn 0.0796 -0.9781 -0.1922
vn 0.0004 -1.0000 -0.0010
vn 0.0002 -1.0000 -0.0011
vn 0.3272 -0.8082 -0.4896
vn 0.1155 -0.9782 -0.1728
vn 0.4165 -0.8081 -0.4165
vn 0.1471 -0.9781 -0.1471
vn 0.0008 -1.0000 -0.0008
vn 0.0006 -1.0000 -0.0009
vn 0.4896 -0.8082 -0.3272
vn 0.1728 -0.9782 -0.1155
vn 0.5442 -0.8081 -0.2254
vn 0.1922 -0.9781 -0.0796
vn 0.0010 -1.0000 -0.0004
vn 0.0009 -1.0000 -0.0006
vn 0.5776 -0.8082 -0.1149
vn 0.2038 -0.9782 -0.0405
vn 0.0011 -1.0000 -0.0002
vn -0.2773 -0.9608 -0.0000
vn -0.2721 -0.9607 -0.0541
vn -0.4782 -0.8731 -0.0951
vn -0.4874 -0.8732 -0.0000
vn -0.2562 -0.9608 -0.1061
vn -0.4503 -0.8732 -0.1865
vn -0.5118 -0.8325 -0.2120
vn -0.5434 -0.8325 -0.1081
vn -0.5540 -0.8325 -0.0000
vn -0.2307 -0.9607 -0.1542
vn -0.4054 -0.8731 -0.2709
vn -0.1961 -0.9608 -0.1961
vn -0.3446 -0.8732 -0.3446
vn -0.3917 -0.8325 -0.3917
vn -0.4607 -0.8325 -0.3078
vn -0.1542 -0.9607 -0.2307
vn -0.2708 -0.8731 -0.4053
vn -0.1061 -0.9608 -0.2562
vn -0.1865 -0.8732 -0.4503
vn -0.2120 -0.8325 -0.5118
vn -0.3078 -0.8325 -0.4607
vn -0.0541 -0.9607 -0.2721
vn -0.0951 -0.8731 -0.4781
vn -0.0000 -0.9608 -0.2773
vn -0.0000 -0.8732 -0.4874
vn -0.0000 -0.8325 -0.5540
vn -0.1081 -0.8325 -0.5434
vn 0.0541 -0.9607 -0.2721
vn 0.0951 -0.8731 -0.4781
vn 0.1061 -0.9608 -0.2562
vn 0.1865 -0.8732 -0.4503
vn 0.2120 -0.8325 -0.5118
vn 0.1081 -0.8325 -0.5434
vn 0.1542 -0.9607 -0.2307
vn 0.2708 -0.8731 -0.4054
vn 0.1961 -0.9608 -0.1961
vn 0.3446 -0.8732 -0.3446
vn 0.3917 -0.8325 -0.3917
vn 0.3078 -0.8325 -0.4607
vn 0.2307 -0.9607 -0.1542
vn 0.4054 -0.8731 -0.2708
vn 0.2562 -0.9608 -0.1061
vn 0.4503 -0.8732 -0.1865
vn 0.5118 -0.8325 -0.2120
vn 0.4607 -0.8325 -0.3078
vn 0.2721 -0.9607 -0.0541
vn 0.4781 -0.8731 -0.0951
vn 0.2773 -0.9608 -0.0000
vn 0.4874 -0.8732 -0.0000
vn 0.5540 -0.8325 -0.0000
vn 0.5434 -0.8325 -0.1081
vn 0.2721 -0.9607 0.0541
vn 0.4781 -0.8731 0.0951
vn 0.2562 -0.9608 0.1061
vn 0.4503 -0.8732 0.1865
vn 0.5119 -0.8325 0.2120
vn 0.5434 -0.8325 0.1081
vn 0.2307 -0.9607 0.1542
vn 0.4054 -0.8731 0.2708
vn 0.1961 -0.9608 0.1961
vn 0.3446 -0.8732 0.3446
vn 0.3918 -0.8325 0.3918
vn 0.4607 -0.8325 0.3078
vn 0.1542 -0.9607 0.2307
vn 0.2709 -0.8731 0.4054
vn 0.1061 -0.9608 0.2562
vn 0.1865 -0.8732 0.4503
vn 0.2120 -0.8325 0.5119
vn 0.3078 -0.8325 0.4607
vn 0.0541 -0.9607 0.2721
vn 0.0951 -0.8731 0.4781
vn -0.0000 -0.9608 0.2773
vn -0.0000 -0.8732 0.4874
vn -0.0000 -0.8325 0.5540
vn 0.1081 -0.8325 0.5435
vn -0.0541 -0.9607 0.2721
vn -0.0951 -0.8731 0.4781
vn -0.1061 -0.9608 0.2562
vn -0.1865 -0.8732 0.4503
vn -0.2120 -0.8325 0.5119
vn -0.1081 -0.8325 0.5434
vn -0.1542 -0.9607 0.2307
vn -0.2709 -0.8731 0.4054
vn -0.1961 -0.9608 0.1961
vn -0.3446 -0.8732 0.3446
vn -0.3918 -0.8325 0.3918
vn -0.3078 -0.8325 0.4607
vn -0.2307 -0.9607 0.1542
vn -0.4054 -0.8731 0.2708
vn -0.2562 -0.9608 0.1061
vn -0.4503 -0.8732 0.1865
vn -0.5118 -0.8325 0.2120
vn -0.4607 -0.8325 0.3078
vn -0.2721 -0.9607 0.0541
vn -0.4781 -0.8731 0.0951
vn -0.5434 -0.8325 0.1081
vn -0.5137 -0.8312 -0.2128
vn -0.3093 -0.9423 -0.1281
vn -0.3281 -0.9424 -0.0652
vn -0.5454 -0.8311 -0.1085
vn -0.0549 -0.9982 -0.0228
vn -0.0582 -0.9982 -0.0116
vn -0.0590 -0.9983 -0.0000
vn -0.3345 -0.9424 -0.0000
vn -0.5560 -0.8312 -0.0000
vn -0.3931 -0.8312 -0.3931
vn -0.2367 -0.9423 -0.2367
vn -0.2782 -0.9424 -0.1859
vn -0.4623 -0.8311 -0.3089
vn -0.0421 -0.9982 -0.0421
vn -0.0495 -0.9982 -0.0331
vn -0.2128 -0.8312 -0.5137
vn -0.1281 -0.9423 -0.3093
vn -0.1859 -0.9424 -0.2782
vn -0.3089 -0.8311 -0.4623
vn -0.0228 -0.9982 -0.0550
vn -0.0331 -0.9982 -0.0495
vn -0.0000 -0.8312 -0.5560
vn -0.0000 -0.9423 -0.3348
vn -0.0653 -0.9424 -0.3281
vn -0.1085 -0.8311 -0.5454
vn -0.0000 -0.9982 -0.0595
vn -0.0116 -0.9982 -0.0584
vn 0.2128 -0.8312 -0.5137
vn 0.1281 -0.9423 -0.3093
vn 0.0653 -0.9424 -0.3281
vn 0.1085 -0.8311 -0.5454
vn 0.0228 -0.9982 -0.0550
vn 0.0116 -0.9982 -0.0584
vn 0.3931 -0.8312 -0.3931
vn 0.2367 -0.9423 -0.2367
vn 0.1859 -0.9424 -0.2782
vn 0.3089 -0.8311 -0.4623
vn 0.0421 -0.9982 -0.0421
vn 0.0331 -0.9982 -0.0495
vn 0.5137 -0.8312 -0.2128
vn 0.3091 -0.9424 -0.1280
vn 0.2781 -0.9424 -0.1858
vn 0.4623 -0.8311 -0.3089
vn 0.0546 -0.9983 -0.0226
vn 0.0494 -0.9982 -0.0330
vn 0.5560 -0.8312 -0.0000
vn 0.3332 -0.9429 0.0001
vn 0.3276 -0.9426 -0.0651
vn 0.5454 -0.8311 -0.1085
vn 0.0559 -0.9984 0.0002
vn 0.0571 -0.9983 -0.0112
vn 0.5137 -0.8311 0.2128
vn 0.3047 -0.9440 0.1264
vn 0.3249 -0.9435 0.0648
vn 0.5454 -0.8311 0.1085
vn 0.0445 -0.9988 0.0187
vn 0.0510 -0.9986 0.0105
vn 0.3932 -0.8311 0.3932
vn 0.2322 -0.9445 0.2322
vn 0.2732 -0.9445 0.1826
vn 0.4624 -0.8311 0.3090
vn 0.0317 -0.9990 0.0317
vn 0.0381 -0.9989 0.0256
vn 0.2128 -0.8311 0.5138
vn 0.1256 -0.9446 0.3032
vn 0.1822 -0.9447 0.2727
vn 0.3090 -0.8311 0.4624
vn 0.0170 -0.9990 0.0409
vn 0.0247 -0.9990 0.0370
vn -0.0000 -0.8311 0.5561
vn -0.0000 -0.9446 0.3282
vn 0.0640 -0.9447 0.3216
vn 0.1085 -0.8311 0.5455
vn -0.0000 -0.9990 0.0443
vn 0.0086 -0.9990 0.0435
vn -0.2128 -0.8311 0.5138
vn -0.1256 -0.9446 0.3033
vn -0.0640 -0.9447 0.3217
vn -0.1085 -0.8311 0.5455
vn -0.0171 -0.9990 0.0413
vn -0.0086 -0.9990 0.0435
vn -0.3932 -0.8311 0.3932
vn -0.2331 -0.9441 0.2333
vn -0.1825 -0.9445 0.2732
vn -0.3090 -0.8311 0.4624
vn -0.0337 -0.9989 0.0341
vn -0.0253 -0.9990 0.0380
vn -0.5137 -0.8312 0.2128
vn -0.3077 -0.9429 0.1276
vn -0.2753 -0.9436 0.1841
vn -0.4624 -0.8311 0.3090
vn -0.0512 -0.9985 0.0215
vn -0.0428 -0.9987 0.0290
vn -0.3274 -0.9426 0.0652
vn -0.5454 -0.8311 0.1085
vn -0.0568 -0.9983 0.0114
vn 0.8750 -0.3209 0.3624
vn 0.9289 -0.3209 0.1848
vn 0.8526 -0.3850 0.3532
vn 0.9052 -0.3850 0.1801
vn 0.9229 -0.3850 -0.0000
vn 0.9471 -0.3209 -0.0000
vn 0.6697 -0.3209 0.6697
vn 0.7875 -0.3209 0.5262
vn 0.6526 -0.3850 0.6526
vn 0.7674 -0.3850 0.5127
vn 0.3624 -0.3209 0.8750
vn 0.5262 -0.3209 0.7875
vn 0.3532 -0.3850 0.8526
vn 0.5127 -0.3850 0.7674
vn -0.0000 -0.3209 0.9471
vn 0.1848 -0.3209 0.9289
vn -0.0000 -0.3850 0.9229
vn 0.1801 -0.3850 0.9052
vn -0.3624 -0.3209 0.8750
vn -0.1848 -0.3209 0.9289
vn -0.3532 -0.3850 0.8526
vn -0.1801 -0.3850 0.9052
vn -0.6697 -0.3209 0.6697
vn -0.5262 -0.3209 0.7875
vn -0.6526 -0.3850 0.6526
vn -0.5127 -0.3850 0.7674
vn -0.8750 -0.3209 0.3624
vn -0.7875 -0.3209 0.5262
vn -0.8526 -0.3851 0.3532
vn -0.7674 -0.3850 0.5127
vn -0.9471 -0.3209 -0.0000
vn -0.9289 -0.3209 0.1848
vn -0.9229 -0.3851 -0.0000
vn -0.9052 -0.3850 0.1801
vn -0.8750 -0.3209 -0.3624
vn -0.9289 -0.3209 -0.1848
vn -0.8526 -0.3851 -0.3532
vn -0.9052 -0.3850 -0.1801
vn -0.6697 -0.3209 -0.6697
vn -0.7875 -0.3209 -0.5262
vn -0.6526 -0.3851 -0.6526
vn -0.7674 -0.3850 -0.5127
vn -0.3624 -0.3209 -0.8750
vn -0.5262 -0.3209 -0.7875
vn -0.3532 -0.3851 -0.8526
vn -0.5127 -0.3850 -0.7674
vn -0.0000 -0.3209 -0.9471
vn -0.1848 -0.3209 -0.9289
vn -0.0000 -0.3851 -0.9229
vn -0.1801 -0.3850 -0.9052
vn 0.3624 -0.3209 -0.8750
vn 0.1848 -0.3209 -0.9289
vn 0.3532 -0.3851 -0.8526
vn 0.1801 -0.3850 -0.9052
vn 0.6697 -0.3209 -0.6697
vn 0.5262 -0.3209 -0.7875
vn 0.6526 -0.3851 -0.6526
vn 0.5127 -0.3850 -0.7674
vn 0.8750 -0.3209 -0.3624
vn 0.7875 -0.3209 -0.5262
vn 0.8526 -0.3851 -0.3532
vn 0.7674 -0.3850 -0.5127
vn 0.9289 -0.3209 -0.1848
vn 0.9052 -0.3850 -0.1801
vn 0.7945 -0.5103 0.3291
vn 0.7373 -0.6025 0.3054
vn 0.7828 -0.6025 0.1557
vn 0.8435 -0.5102 0.1678
vn 0.7981 -0.6025 -0.0000
vn 0.8600 -0.5103 -0.0000
vn 0.6081 -0.5103 0.6081
vn 0.5643 -0.6025 0.5643
vn 0.6636 -0.6025 0.4434
vn 0.7151 -0.5102 0.4778
vn 0.3291 -0.5103 0.7945
vn 0.3054 -0.6025 0.7374
vn 0.4434 -0.6025 0.6636
vn 0.4778 -0.5102 0.7151
vn -0.0000 -0.5103 0.8600
vn -0.0000 -0.6025 0.7981
vn 0.1557 -0.6025 0.7828
vn 0.1678 -0.5102 0.8435
vn -0.3291 -0.5103 0.7945
vn -0.3054 -0.6025 0.7373
vn -0.1557 -0.6025 0.7828
vn -0.1678 -0.5102 0.8435
vn -0.6081 -0.5103 0.6081
vn -0.5643 -0.6025 0.5643
vn -0.4434 -0.6025 0.6636
vn -0.4778 -0.5102 0.7151
vn -0.7945 -0.5103 0.3291
vn -0.7373 -0.6025 0.3054
vn -0.6636 -0.6025 0.4434
vn -0.7151 -0.5103 0.4778
vn -0.8600 -0.5103 -0.0000
vn -0.7981 -0.6025 -0.0000
vn -0.7828 -0.6025 0.1557
vn -0.8435 -0.5103 0.1678
vn -0.7945 -0.5103 -0.3291
vn -0.7373 -0.6025 -0.3054
vn -0.7828 -0.6025 -0.1557
vn -0.8435 -0.5103 -0.1678
vn -0.6081 -0.5103 -0.6081
vn -0.5643 -0.6025 -0.5643
vn -0.6636 -0.6025 -0.4434
vn -0.7151 -0.5103 -0.4778
vn -0.3291 -0.5103 -0.7945
vn -0.3054 -0.6025 -0.7373
vn -0.4434 -0.6025 -0.6636
vn -0.4778 -0.5103 -0.7151
vn -0.0000 -0.5103 -0.8600
vn -0.0000 -0.6025 -0.7981
vn -0.1557 -0.6025 -0.7828
vn -0.1678 -0.5103 -0.8435
vn 0.3291 -0.5103 -0.7945
vn 0.3054 -0.6025 -0.7373
vn 0.1557 -0.6025 -0.7828
vn 0.1678 -0.5103 -0.8435
vn 0.6081 -0.5103 -0.6081
vn 0.5643 -0.6025 -0.5643
vn 0.4434 -0.6025 -0.6636
vn 0.4778 -0.5103 -0.7151
vn 0.7945 -0.5103 -0.3291
vn 0.7373 -0.6025 -0.3054
vn 0.6636 -0.6025 -0.4434
vn 0.7151 -0.5103 -0.4778
vn 0.7828 -0.6025 -0.1557
vn 0.8435 -0.5103 -0.1678
vn -0.5120 -0.8324 -0.2121
vn -0.5436 -0.8324 -0.1081
vn -0.5541 -0.8324 -0.0000
vn -0.3918 -0.8324 -0.3918
vn -0.4608 -0.8324 -0.3079
vn -0.2121 -0.8324 -0.5119
vn -0.3079 -0.8324 -0.4608
vn -0.0000 -0.8324 -0.5541
vn -0.1081 -0.8324 -0.5436
vn 0.2121 -0.8324 -0.5119
vn 0.1081 -0.8324 -0.5436
vn 0.3918 -0.8324 -0.3918
vn 0.3079 -0.8324 -0.4608
vn 0.5120 -0.8324 -0.2121
vn 0.4608 -0.8324 -0.3079
vn 0.5541 -0.8324 -0.0000
vn 0.5436 -0.8324 -0.1081
vn 0.5120 -0.8324 0.2121
vn 0.5436 -0.8324 0.1081
vn 0.3918 -0.8324 0.3918
vn 0.4608 -0.8324 0.3079
vn 0.2121 -0.8324 0.5120
vn 0.3079 -0.8324 0.4608
vn -0.0000 -0.8324 0.5541
vn 0.1081 -0.8324 0.5436
vn -0.2121 -0.8324 0.5120
vn -0.1081 -0.8324 0.5436
vn -0.3918 -0.8324 0.3918
vn -0.3079 -0.8324 0.4608
vn -0.5120 -0.8324 0.2121
vn -0.4608 -0.8324 0.3079
vn -0.5436 -0.8324 0.1081
vn -0.0001 -1.0000 -0.0000
vn -0.0609 -0.9978 -0.0252
vn -0.0648 -0.9978 -0.0129
vn -0.0660 -0.9978 -0.0000
vn -0.0001 -1.0000 -0.0001
vn -0.0467 -0.9978 -0.0466
vn -0.0549 -0.9978 -0.0367
vn -0.0000 -1.0000 -0.0001
vn -0.0252 -0.9978 -0.0609
vn -0.0367 -0.9978 -0.0549
vn -0.0000 -0.9978 -0.0660
vn -0.0129 -0.9978 -0.0648
vn 0.0252 -0.9978 -0.0609
vn 0.0129 -0.9978 -0.0648
vn 0.0001 -1.0000 -0.0001
vn 0.0467 -0.9978 -0.0467
vn 0.0367 -0.9978 -0.0549
vn 0.0001 -1.0000 -0.0000
vn 0.0609 -0.9978 -0.0252
vn 0.0549 -0.9978 -0.0367
vn 0.0660 -0.9978 -0.0000
vn 0.0648 -0.9978 -0.0129
vn 0.0609 -0.9978 0.0252
vn 0.0648 -0.9978 0.0129
vn 0.0001 -1.0000 0.0001
vn 0.0466 -0.9978 0.0466
vn 0.0549 -0.9978 0.0367
vn -0.0000 -1.0000 0.0001
vn 0.0252 -0.9978 0.0609
vn 0.0367 -0.9978 0.0549
vn -0.0000 -0.9978 0.0660
vn 0.0129 -0.9978 0.0648
vn -0.0252 -0.9978 0.0609
vn -0.0129 -0.9978 0.0648
vn -0.0001 -1.0000 0.0001
vn -0.0466 -0.9978 0.0466
vn -0.0367 -0.9978 0.0549
vn -0.0609 -0.9978 0.0252
vn -0.0549 -0.9978 0.0367
vn -0.0648 -0.9978 0.0129
vn -0.0000 -1.0000 -0.0000
vn 0.8257 -0.4486 0.3420
vn 0.8766 -0.4486 0.1744
vn 0.8937 -0.4486 -0.0000
vn 0.6320 -0.4486 0.6320
vn 0.7431 -0.4486 0.4965
vn 0.3420 -0.4486 0.8257
vn 0.4965 -0.4486 0.7431
vn -0.0000 -0.4486 0.8937
vn 0.1744 -0.4486 0.8766
vn -0.3420 -0.4486 0.8257
vn -0.1744 -0.4486 0.8766
vn -0.6320 -0.4486 0.6320
vn -0.4965 -0.4486 0.7431
vn -0.8257 -0.4486 0.3420
vn -0.7431 -0.4486 0.4965
vn -0.8937 -0.4486 -0.0000
vn -0.8766 -0.4486 0.1744
vn -0.8257 -0.4486 -0.3420
vn -0.8766 -0.4486 -0.1744
vn -0.6320 -0.4486 -0.6320
vn -0.7431 -0.4486 -0.4965
vn -0.3420 -0.4486 -0.8257
vn -0.4965 -0.4486 -0.7431
vn -0.0000 -0.4486 -0.8937
vn -0.1744 -0.4486 -0.8766
vn 0.3420 -0.4486 -0.8257
vn 0.1744 -0.4486 -0.8766
vn 0.6320 -0.4486 -0.6320
vn 0.4965 -0.4486 -0.7431
vn 0.8257 -0.4486 -0.3420
vn 0.7431 -0.4486 -0.4965
vn 0.8766 -0.4486 -0.1744
vt 0.485505 0.242623
vt 0.480860 0.289983
vt 0.472566 0.288337
vt 0.477051 0.242627
vt 0.467076 0.335530
vt 0.459263 0.332298
vt 0.449184 0.328115
vt 0.461861 0.286202
vt 0.466137 0.242620
vt 0.444660 0.377507
vt 0.437627 0.372813
vt 0.414495 0.414312
vt 0.408514 0.408337
vt 0.400803 0.400615
vt 0.428555 0.366743
vt 0.377722 0.444516
vt 0.373021 0.437488
vt 0.335769 0.466976
vt 0.332529 0.459167
vt 0.328360 0.449081
vt 0.366962 0.428408
vt 0.290236 0.480808
vt 0.288583 0.472516
vt 0.242881 0.485503
vt 0.242877 0.477049
vt 0.242884 0.466136
vt 0.286459 0.461809
vt 0.195522 0.480858
vt 0.197167 0.472564
vt 0.149974 0.467075
vt 0.153206 0.459262
vt 0.157389 0.449183
vt 0.199303 0.461860
vt 0.107997 0.444659
vt 0.112691 0.437626
vt 0.071192 0.414495
vt 0.077167 0.408513
vt 0.084889 0.400802
vt 0.118761 0.428554
vt 0.040988 0.377721
vt 0.048016 0.373020
vt 0.018527 0.335768
vt 0.026337 0.332529
vt 0.036422 0.328359
vt 0.057095 0.366961
vt 0.004695 0.290235
vt 0.012988 0.288582
vt 0.000000 0.242880
vt 0.008454 0.242876
vt 0.019367 0.242883
vt 0.023694 0.286458
vt 0.004646 0.195520
vt 0.012939 0.197166
vt 0.018430 0.149973
vt 0.026242 0.153204
vt 0.036322 0.157388
vt 0.023644 0.199301
vt 0.040846 0.107996
vt 0.047879 0.112690
vt 0.071011 0.071191
vt 0.076992 0.077166
vt 0.084703 0.084888
vt 0.056951 0.118760
vt 0.107784 0.040988
vt 0.112485 0.048016
vt 0.149737 0.018528
vt 0.152976 0.026337
vt 0.157146 0.036422
vt 0.118544 0.057095
vt 0.195269 0.004696
vt 0.196923 0.012988
vt 0.242624 0.000000
vt 0.242628 0.008455
vt 0.242621 0.019368
vt 0.199046 0.023695
vt 0.289984 0.004646
vt 0.288338 0.012940
vt 0.335531 0.018429
vt 0.332299 0.026242
vt 0.328116 0.036322
vt 0.286202 0.023644
vt 0.377507 0.040845
vt 0.372813 0.047878
vt 0.414313 0.071009
vt 0.408338 0.076990
vt 0.400616 0.084702
vt 0.366744 0.056950
vt 0.444516 0.107782
vt 0.437488 0.112483
vt 0.466977 0.149735
vt 0.459168 0.152975
vt 0.449082 0.157144
vt 0.428409 0.118542
vt 0.480809 0.195268
vt 0.472517 0.196921
vt 0.461810 0.199045
vt 0.407448 0.242713
vt 0.404269 0.274839
vt 0.398965 0.273785
vt 0.402041 0.242713
vt 0.394926 0.305742
vt 0.389931 0.303673
vt 0.385722 0.301931
vt 0.394497 0.272897
vt 0.397486 0.242714
vt 0.379695 0.334206
vt 0.375199 0.331202
vt 0.359237 0.359181
vt 0.355414 0.355358
vt 0.352192 0.352138
vt 0.371410 0.328672
vt 0.334273 0.379650
vt 0.331268 0.375154
vt 0.305815 0.394895
vt 0.303745 0.389900
vt 0.302001 0.385692
vt 0.328736 0.371367
vt 0.274918 0.404253
vt 0.273862 0.398949
vt 0.242791 0.407447
vt 0.242791 0.402040
vt 0.242790 0.397485
vt 0.272972 0.394481
vt 0.210665 0.404268
vt 0.211720 0.398964
vt 0.179762 0.394925
vt 0.181831 0.389930
vt 0.183574 0.385721
vt 0.212607 0.394496
vt 0.151298 0.379695
vt 0.154302 0.375198
vt 0.126323 0.359237
vt 0.130146 0.355413
vt 0.133366 0.352192
vt 0.156832 0.371409
vt 0.105854 0.334273
vt 0.110350 0.331268
vt 0.090608 0.305814
vt 0.095604 0.303745
vt 0.099812 0.302001
vt 0.114137 0.328736
vt 0.081251 0.274917
vt 0.086555 0.273862
vt 0.078057 0.242791
vt 0.083464 0.242791
vt 0.088019 0.242790
vt 0.091022 0.272972
vt 0.081236 0.210665
vt 0.086540 0.211719
vt 0.090579 0.179762
vt 0.095575 0.181831
vt 0.099784 0.183573
vt 0.091008 0.212607
vt 0.105811 0.151298
vt 0.110307 0.154302
vt 0.126269 0.126323
vt 0.130092 0.130146
vt 0.133314 0.133367
vt 0.114096 0.156832
vt 0.151233 0.105854
vt 0.154238 0.110350
vt 0.179691 0.090609
vt 0.181760 0.095605
vt 0.183504 0.099813
vt 0.156770 0.114138
vt 0.210588 0.081252
vt 0.211643 0.086556
vt 0.242714 0.078058
vt 0.242714 0.083465
vt 0.242715 0.088020
vt 0.212533 0.091023
vt 0.274840 0.081236
vt 0.273785 0.086540
vt 0.305743 0.090579
vt 0.303673 0.095575
vt 0.301931 0.099784
vt 0.272897 0.091009
vt 0.334207 0.105810
vt 0.331203 0.110307
vt 0.359182 0.126268
vt 0.355359 0.130091
vt 0.352138 0.133313
vt 0.328673 0.114095
vt 0.379651 0.151232
vt 0.375155 0.154237
vt 0.394896 0.179690
vt 0.389901 0.181759
vt 0.385693 0.183503
vt 0.371368 0.156769
vt 0.404254 0.210587
vt 0.398950 0.211643
vt 0.394482 0.212532
vt 0.379371 0.242718
vt 0.376730 0.269367
vt 0.372083 0.268443
vt 0.374632 0.242718
vt 0.368984 0.295002
vt 0.364606 0.293189
vt 0.360181 0.291355
vt 0.367386 0.267508
vt 0.369843 0.242718
vt 0.356346 0.318612
vt 0.352406 0.315980
vt 0.339380 0.339331
vt 0.336029 0.335980
vt 0.332642 0.332593
vt 0.348425 0.313319
vt 0.318668 0.356308
vt 0.316036 0.352368
vt 0.295065 0.368957
vt 0.293251 0.364579
vt 0.291419 0.360154
vt 0.313376 0.348386
vt 0.269434 0.376715
vt 0.268509 0.372068
vt 0.242786 0.379369
vt 0.242786 0.374630
vt 0.242786 0.369841
vt 0.267575 0.367372
vt 0.216137 0.376728
vt 0.217061 0.372081
vt 0.190502 0.368982
vt 0.192315 0.364604
vt 0.194148 0.360180
vt 0.217995 0.367385
vt 0.166892 0.356345
vt 0.169524 0.352405
vt 0.146172 0.339378
vt 0.149523 0.336027
vt 0.152910 0.332641
vt 0.172185 0.348424
vt 0.129196 0.318668
vt 0.133135 0.316035
vt 0.116546 0.295064
vt 0.120924 0.293250
vt 0.125349 0.291418
vt 0.137117 0.313375
vt 0.108787 0.269433
vt 0.113434 0.268508
vt 0.106134 0.242785
vt 0.110873 0.242785
vt 0.115662 0.242785
vt 0.118131 0.267575
vt 0.108775 0.216136
vt 0.113422 0.217060
vt 0.116522 0.190501
vt 0.120900 0.192315
vt 0.125324 0.194148
vt 0.118119 0.217995
vt 0.129160 0.166892
vt 0.133099 0.169524
vt 0.146126 0.146173
vt 0.149477 0.149523
vt 0.152863 0.152910
vt 0.137081 0.172185
vt 0.166837 0.129196
vt 0.169470 0.133136
vt 0.190441 0.116547
vt 0.192254 0.120925
vt 0.194086 0.125350
vt 0.172130 0.137118
vt 0.216071 0.108788
vt 0.216996 0.113435
vt 0.242719 0.106135
vt 0.242719 0.110874
vt 0.242719 0.115663
vt 0.217930 0.118132
vt 0.269368 0.108775
vt 0.268444 0.113422
vt 0.295003 0.116521
vt 0.293189 0.120899
vt 0.291356 0.125324
vt 0.267509 0.118119
vt 0.318612 0.129159
vt 0.315980 0.133099
vt 0.339332 0.146125
vt 0.335981 0.149476
vt 0.332594 0.152862
vt 0.313319 0.137080
vt 0.356308 0.166836
vt 0.352369 0.169468
vt 0.368958 0.190439
vt 0.364580 0.192253
vt 0.360155 0.194085
vt 0.348387 0.172128
vt 0.376717 0.216070
vt 0.372070 0.216995
vt 0.367373 0.217929
vt 0.351968 0.287959
vt 0.349389 0.286892
vt 0.355932 0.265237
vt 0.358668 0.265780
vt 0.344315 0.284792
vt 0.350546 0.264167
vt 0.352674 0.242726
vt 0.358165 0.242724
vt 0.360955 0.242723
vt 0.326354 0.326313
vt 0.324380 0.324340
vt 0.338711 0.306837
vt 0.341032 0.308386
vt 0.320496 0.320459
vt 0.334145 0.303787
vt 0.288012 0.351945
vt 0.286943 0.349367
vt 0.306882 0.338680
vt 0.308434 0.340999
vt 0.284841 0.344295
vt 0.303831 0.334115
vt 0.242781 0.360953
vt 0.242779 0.358163
vt 0.265290 0.355920
vt 0.265836 0.358656
vt 0.242778 0.352671
vt 0.264218 0.350534
vt 0.197544 0.351966
vt 0.198611 0.349387
vt 0.220267 0.355930
vt 0.219724 0.358667
vt 0.200711 0.344314
vt 0.221337 0.350544
vt 0.159191 0.326352
vt 0.161163 0.324378
vt 0.178666 0.338710
vt 0.177118 0.341031
vt 0.165044 0.320494
vt 0.181716 0.334143
vt 0.133558 0.288011
vt 0.136135 0.286942
vt 0.146822 0.306881
vt 0.144503 0.308433
vt 0.141208 0.284840
vt 0.151387 0.303829
vt 0.124550 0.242780
vt 0.127340 0.242778
vt 0.129583 0.265289
vt 0.126847 0.265835
vt 0.132830 0.242778
vt 0.134968 0.264218
vt 0.133538 0.197544
vt 0.136114 0.198610
vt 0.129572 0.220266
vt 0.126837 0.219723
vt 0.141183 0.200709
vt 0.134954 0.221337
vt 0.159152 0.159191
vt 0.161124 0.161161
vt 0.146792 0.178665
vt 0.144474 0.177118
vt 0.165003 0.165038
vt 0.151353 0.181712
vt 0.197493 0.133559
vt 0.198561 0.136134
vt 0.178622 0.146821
vt 0.177072 0.144505
vt 0.200661 0.141200
vt 0.181669 0.151380
vt 0.242724 0.124551
vt 0.242725 0.127338
vt 0.220214 0.129581
vt 0.219669 0.126848
vt 0.242727 0.132822
vt 0.221285 0.134960
vt 0.287959 0.133537
vt 0.286894 0.136113
vt 0.265238 0.129571
vt 0.265780 0.126837
vt 0.284797 0.141180
vt 0.264169 0.134950
vt 0.326313 0.159151
vt 0.324342 0.161124
vt 0.306838 0.146791
vt 0.308386 0.144473
vt 0.320466 0.165004
vt 0.303793 0.151352
vt 0.351946 0.197492
vt 0.349369 0.198561
vt 0.338682 0.178621
vt 0.341000 0.177071
vt 0.344299 0.200664
vt 0.334121 0.181672
vt 0.355922 0.220213
vt 0.358657 0.219668
vt 0.350537 0.221286
vt 0.439560 0.324149
vt 0.451647 0.284188
vt 0.430155 0.320272
vt 0.441664 0.282220
vt 0.445555 0.242655
vt 0.455728 0.242638
vt 0.393429 0.393267
vt 0.419888 0.360974
vt 0.386224 0.386087
vt 0.411419 0.355335
vt 0.324360 0.439471
vt 0.361163 0.419761
vt 0.320451 0.430080
vt 0.355496 0.411311
vt 0.242866 0.455727
vt 0.284411 0.451601
vt 0.242849 0.445554
vt 0.282409 0.441625
vt 0.161355 0.439559
vt 0.201316 0.451645
vt 0.165232 0.430154
vt 0.203285 0.441663
vt 0.092236 0.393428
vt 0.124530 0.419887
vt 0.099417 0.386223
vt 0.130169 0.411418
vt 0.046032 0.324359
vt 0.065742 0.361162
vt 0.055423 0.320450
vt 0.074192 0.355495
vt 0.029777 0.242865
vt 0.033902 0.284410
vt 0.039949 0.242848
vt 0.043878 0.282408
vt 0.045946 0.161354
vt 0.033859 0.201315
vt 0.055351 0.165231
vt 0.043841 0.203284
vt 0.092077 0.092236
vt 0.065617 0.124530
vt 0.099282 0.099417
vt 0.074087 0.130168
vt 0.161146 0.046032
vt 0.124343 0.065742
vt 0.165055 0.055424
vt 0.130010 0.074193
vt 0.242639 0.029777
vt 0.201095 0.033903
vt 0.242656 0.039950
vt 0.203096 0.043879
vt 0.324149 0.045945
vt 0.284189 0.033859
vt 0.320272 0.055350
vt 0.282220 0.043841
vt 0.393268 0.092075
vt 0.360974 0.065617
vt 0.386087 0.099281
vt 0.355336 0.074086
vt 0.439472 0.161145
vt 0.419762 0.124341
vt 0.430081 0.165053
vt 0.411312 0.130008
vt 0.451602 0.201093
vt 0.441627 0.203095
vt 0.411568 0.312608
vt 0.402457 0.308851
vt 0.412264 0.276420
vt 0.421935 0.278328
vt 0.415596 0.242703
vt 0.425450 0.242688
vt 0.371984 0.371893
vt 0.365005 0.364936
vt 0.386477 0.338726
vt 0.394681 0.344190
vt 0.312727 0.411518
vt 0.308942 0.402419
vt 0.338809 0.386421
vt 0.344297 0.394609
vt 0.242816 0.425449
vt 0.242801 0.415595
vt 0.276517 0.412244
vt 0.278454 0.421909
vt 0.172896 0.411566
vt 0.176653 0.402456
vt 0.209085 0.412263
vt 0.207176 0.421933
vt 0.113611 0.371983
vt 0.120568 0.365005
vt 0.146778 0.386476
vt 0.141314 0.394680
vt 0.073986 0.312726
vt 0.083084 0.308941
vt 0.099082 0.338808
vt 0.090895 0.344296
vt 0.060055 0.242815
vt 0.069909 0.242801
vt 0.073259 0.276516
vt 0.063595 0.278453
vt 0.073938 0.172895
vt 0.083048 0.176653
vt 0.073241 0.209084
vt 0.063571 0.207175
vt 0.113522 0.113611
vt 0.120500 0.120568
vt 0.099029 0.146778
vt 0.090825 0.141314
vt 0.172779 0.073987
vt 0.176564 0.083085
vt 0.146697 0.099083
vt 0.141209 0.090895
vt 0.242689 0.060055
vt 0.242704 0.069910
vt 0.208989 0.073260
vt 0.207051 0.063596
vt 0.312609 0.073938
vt 0.308852 0.083048
vt 0.276420 0.073241
vt 0.278329 0.063571
vt 0.371894 0.113521
vt 0.364936 0.120500
vt 0.338727 0.099029
vt 0.344191 0.090825
vt 0.411519 0.172778
vt 0.402420 0.176563
vt 0.386422 0.146696
vt 0.394609 0.141208
vt 0.412245 0.208988
vt 0.421910 0.207050
vt 0.355788 0.289539
vt 0.362723 0.266584
vt 0.365089 0.242721
vt 0.329279 0.329234
vt 0.344471 0.310680
vt 0.289597 0.355763
vt 0.310732 0.344435
vt 0.242783 0.365087
vt 0.266645 0.362710
vt 0.195965 0.355786
vt 0.218920 0.362722
vt 0.156269 0.329278
vt 0.174823 0.344469
vt 0.129740 0.289596
vt 0.141068 0.310731
vt 0.120416 0.242782
vt 0.122793 0.266644
vt 0.129718 0.195964
vt 0.122782 0.218919
vt 0.156227 0.156270
vt 0.141035 0.174823
vt 0.195909 0.129741
vt 0.174773 0.141069
vt 0.242722 0.120417
vt 0.218860 0.122794
vt 0.289539 0.129717
vt 0.266584 0.122782
vt 0.329234 0.156226
vt 0.310681 0.141034
vt 0.355764 0.195907
vt 0.344436 0.174772
vt 0.362712 0.218859
vt 0.377818 0.298659
vt 0.373433 0.296843
vt 0.381452 0.270305
vt 0.386107 0.271230
vt 0.384186 0.242717
vt 0.388931 0.242716
vt 0.346142 0.346090
vt 0.342785 0.342735
vt 0.360350 0.321286
vt 0.364296 0.323921
vt 0.298726 0.377789
vt 0.296908 0.373405
vt 0.321344 0.360310
vt 0.323982 0.364255
vt 0.242788 0.388930
vt 0.242787 0.384184
vt 0.270374 0.381437
vt 0.271301 0.386091
vt 0.186845 0.377816
vt 0.188660 0.373431
vt 0.215199 0.381451
vt 0.214274 0.386105
vt 0.139413 0.346141
vt 0.142768 0.342784
vt 0.164218 0.360349
vt 0.161583 0.364295
vt 0.107714 0.298725
vt 0.112098 0.296908
vt 0.125193 0.321344
vt 0.121248 0.323981
vt 0.096573 0.242787
vt 0.101319 0.242786
vt 0.104066 0.270373
vt 0.099412 0.271300
vt 0.107688 0.186845
vt 0.112073 0.188660
vt 0.104053 0.215198
vt 0.099399 0.214273
vt 0.139364 0.139414
vt 0.142720 0.142769
vt 0.125156 0.164218
vt 0.121210 0.161582
vt 0.186780 0.107715
vt 0.188597 0.112099
vt 0.164161 0.125194
vt 0.161524 0.121249
vt 0.242717 0.096574
vt 0.242718 0.101320
vt 0.215131 0.104067
vt 0.214204 0.099413
vt 0.298659 0.107687
vt 0.296844 0.112072
vt 0.270306 0.104053
vt 0.271230 0.099399
vt 0.346091 0.139363
vt 0.342736 0.142720
vt 0.321286 0.125155
vt 0.323922 0.121209
vt 0.377790 0.186779
vt 0.373406 0.188596
vt 0.360311 0.164160
vt 0.364256 0.161523
vt 0.381439 0.215130
vt 0.386093 0.214203
vt 0.381809 0.300311
vt 0.390343 0.272072
vt 0.393251 0.242715
vt 0.349197 0.349144
vt 0.367888 0.326320
vt 0.300380 0.381779
vt 0.326382 0.367846
vt 0.242789 0.393249
vt 0.272145 0.390327
vt 0.185193 0.381807
vt 0.213433 0.390342
vt 0.136360 0.349196
vt 0.159184 0.367887
vt 0.103724 0.300379
vt 0.117658 0.326382
vt 0.092254 0.242789
vt 0.095176 0.272144
vt 0.103697 0.185193
vt 0.095162 0.213432
vt 0.136309 0.136360
vt 0.117618 0.159184
vt 0.185126 0.103725
vt 0.159123 0.117658
vt 0.242716 0.092255
vt 0.213360 0.095177
vt 0.300311 0.103697
vt 0.272072 0.095162
vt 0.349144 0.136308
vt 0.326320 0.117617
vt 0.381780 0.185125
vt 0.367847 0.159122
vt 0.390329 0.213359
vt 0.420809 0.316419
vt 0.431745 0.280264
vt 0.435447 0.242672
vt 0.379064 0.378951
vt 0.403003 0.349732
vt 0.316567 0.420747
vt 0.349865 0.402914
vt 0.242832 0.435446
vt 0.280420 0.431712
vt 0.169085 0.420808
vt 0.205241 0.431743
vt 0.106553 0.379064
vt 0.135772 0.403002
vt 0.064756 0.316566
vt 0.082590 0.349864
vt 0.050058 0.242831
vt 0.053791 0.280419
vt 0.064696 0.169084
vt 0.053761 0.205240
vt 0.106442 0.106553
vt 0.082502 0.135772
vt 0.168939 0.064757
vt 0.135641 0.082590
vt 0.242673 0.050058
vt 0.205085 0.053792
vt 0.316420 0.064696
vt 0.280264 0.053761
vt 0.378951 0.106441
vt 0.349733 0.082502
vt 0.420748 0.168937
vt 0.402915 0.135639
vt 0.431713 0.205084
s 1
f 1/1/1 337/2/2 177/3/3 497/4/4
f 337/2/2 2/5/5 355/6/6 177/3/3
f 82/7/7 513/8/8 177/3/3 355/6/6
f 513/8/8 97/9/9 497/4/4 177/3/3
f 2/5/5 338/10/10 178/11/11 355/6/6
f 338/10/10 3/12/12 357/13/13 178/11/11
f 83/14/14 514/15/15 178/11/11 357/13/13
f 514/15/15 82/7/7 355/6/6 178/11/11
f 3/12/12 339/16/16 179/17/17 357/13/13
f 339/16/16 4/18/18 359/19/19 179/17/17
f 84/20/20 515/21/21 179/17/17 359/19/19
f 515/21/21 83/14/14 357/13/13 179/17/17
f 4/18/18 340/22/22 180/23/23 359/19/19
f 340/22/22 5/24/24 361/25/25 180/23/23
f 85/26/26 516/27/27 180/23/23 361/25/25
f 516/27/27 84/20/20 359/19/19 180/23/23
f 5/24/24 341/28/28 181/29/29 361/25/25
f 341/28/28 6/30/30 363/31/31 181/29/29
f 86/32/32 517/33/33 181/29/29 363/31/31
f 517/33/33 85/26/26 361/25/25 181/29/29
f 6/30/30 342/34/34 182/35/35 363/31/31
f 342/34/34 7/36/36 365/37/37 182/35/35
f 87/38/38 518/39/39 182/35/35 365/37/37
f 518/39/39 86/32/32 363/31/31 182/35/35
f 7/36/36 343/40/40 183/41/41 365/37/37
f 343/40/40 8/42/42 367/43/43 183/41/41
f 88/44/44 519/45/45 183/41/41 367/43/43
f 519/45/45 87/38/38 365/37/37 183/41/41
f 8/42/42 344/46/46 184/47/47 367/43/43
f 344/46/46 9/48/48 369/49/49 184/47/47
f 89/50/50 520/51/51 184/47/47 369/49/49
f 520/51/51 88/44/44 367/43/43 184/47/47
f 9/48/48 345/52/52 185/53/53 369/49/49
f 345/52/52 10/54/54 371/55/55 185/53/53
f 90/56/56 521/57/57 185/53/53 371/55/55
f 521/57/57 89/50/50 369/49/49 185/53/53
f 10/54/54 346/58/58 186/59/59 371/55/55
f 346/58/58 11/60/60 373/61/61 186/59/59
f 91/62/62 522/63/63 186/59/59 373/61/61
f 522/63/63 90/56/56 371/55/55 186/59/59
f 11/60/60 347/64/64 187/65/65 373/61/61
f 347/64/64 12/66/66 375/67/67 187/65/65
f 92/68/68 523/69/69 187/65/65 375/67/67
f 523/69/69 91/62/62 373/61/61 187/65/65
f 12/66/66 348/70/70 188/71/71 375/67/67
f 348/70/70 13/72/72 377/73/73 188/71/71
f 93/74/74 524/75/75 188/71/71 377/73/73
f 524/75/75 92/68/68 375/67/67 188/71/71
f 13/72/72 349/76/76 189/77/77 377/73/73
f 349/76/76 14/78/78 379/79/79 189/77/77
f 94/80/80 525/81/81 189/77/77 379/79/79
f 525/81/81 93/74/74 377/73/73 189/77/77
f 14/78/78 350/82/82 190/83/83 379/79/79
f 350/82/82 15/84/84 381/85/85 190/83/83
f 95/86/86 526/87/87 190/83/83 381/85/85
f 526/87/87 94/80/80 379/79/79 190/83/83
f 15/84/84 351/88/88 191/89/89 381/85/85
f 351/88/88 16/90/90 383/91/91 191/89/89
f 96/92/92 527/93/93 191/89/89 383/91/91
f 527/93/93 95/86/86 381/85/85 191/89/89
f 16/90/90 352/94/94 192/95/95 383/91/91
f 352/94/94 1/1/1 497/4/4 192/95/95
f 97/9/9 528/96/96 192/95/95 497/4/4
f 528/96/96 96/92/92 383/91/91 192/95/95
f 17/97/97 353/98/98 193/99/99 624/100/100
f 353/98/98 18/101/101 387/102/102 193/99/99
f 145/103/103 625/104/104 193/99/99 387/102/102
f 625/104/104 160/105/105 624/100/100 193/99/99
f 18/101/101 356/106/106 194/107/107 387/102/102
f 356/106/106 19/108/108 389/109/109 194/107/107
f 146/110/110 626/111/111 194/107/107 389/109/109
f 626/111/111 145/103/103 387/102/102 194/107/107
f 19/108/108 358/112/112 195/113/113 389/109/109
f 358/112/112 20/114/114 391/115/115 195/113/113
f 147/116/116 627/117/117 195/113/113 391/115/115
f 627/117/117 146/110/110 389/109/109 195/113/113
f 20/114/114 360/118/118 196/119/119 391/115/115
f 360/118/118 21/120/120 393/121/121 196/119/119
f 148/122/122 628/123/123 196/119/119 393/121/121
f 628/123/123 147/116/116 391/115/115 196/119/119
f 21/120/120 362/124/124 197/125/125 393/121/121
f 362/124/124 22/126/126 395/127/127 197/125/125
f 149/128/128 629/129/129 197/125/125 395/127/127
f 629/129/129 148/122/122 393/121/121 197/125/125
f 22/126/126 364/130/130 198/131/131 395/127/127
f 364/130/130 23/132/132 397/133/133 198/131/131
f 150/134/134 630/135/135 198/131/131 397/133/133
f 630/135/135 149/128/128 395/127/127 198/131/131
f 23/132/132 366/136/136 199/137/137 397/133/133
f 366/136/136 24/138/138 399/139/139 199/137/137
f 151/140/140 631/141/141 199/137/137 399/139/139
f 631/141/141 150/134/134 397/133/133 199/137/137
f 24/138/138 368/142/142 200/143/143 399/139/139
f 368/142/142 25/144/144 401/145/145 200/143/143
f 152/146/146 632/147/147 200/143/143 401/145/145
f 632/147/147 151/140/140 399/139/139 200/143/143
f 25/144/144 370/148/148 201/149/149 401/145/145
f 370/148/148 26/150/150 403/151/151 201/149/149
f 153/152/152 633/153/153 201/149/149 403/151/151
f 633/153/153 152/146/146 401/145/145 201/149/149
f 26/150/150 372/154/154 202/155/155 403/151/151
f 372/154/154 27/156/156 405/157/157 202/155/155
f 154/158/158 634/159/159 202/155/155 405/157/157
f 634/159/159 153/152/152 403/151/151 202/155/155
f 27/156/156 374/160/160 203/161/161 405/157/157
f 374/160/160 28/162/162 407/163/163 203/161/161
f 155/164/164 635/165/165 203/161/161 407/163/163
f 635/165/165 154/158/158 405/157/157 203/161/161
f 28/162/162 376/166/166 204/167/167 407/163/163
f 376/166/166 29/168/168 409/169/169 204/167/167
f 156/170/170 636/171/171 204/167/167 409/169/169
f 636/171/171 155/164/164 407/163/163 204/167/167
f 29/168/168 378/172/172 205/173/173 409/169/169
f 378/172/172 30/174/174 411/175/175 205/173/173
f 157/176/176 637/177/177 205/173/173 411/175/175
f 637/177/177 156/170/170 409/169/169 205/173/173
f 30/174/174 380/178/178 206/179/179 411/175/175
f 380/178/178 31/180/180 413/181/181 206/179/179
f 158/182/182 638/183/183 206/179/179 413/181/181
f 638/183/183 157/176/176 411/175/175 206/179/179
f 31/180/180 382/184/184 207/185/185 413/181/181
f 382/184/184 32/186/186 415/187/187 207/185/185
f 159/188/188 639/189/189 207/185/185 415/187/187
f 639/189/189 158/182/182 413/181/181 207/185/185
f 32/186/186 384/190/190 208/191/191 415/187/187
f 384/190/190 17/97/97 624/100/100 208/191/191
f 160/105/105 640/192/192 208/191/191 624/100/100
f 640/192/192 159/188/188 415/187/187 208/191/191
f 33/193/193 385/194/194 209/195/195 433/196/196
f 385/194/194 34/197/197 434/198/198 209/195/195
f 114/199/199 562/200/200 209/195/195 434/198/198
f 562/200/200 113/201/201 433/196/196 209/195/195
f 34/197/197 388/202/202 210/203/203 434/198/198
f 388/202/202 35/204/204 435/205/205 210/203/203
f 115/206/206 563/207/207 210/203/203 435/205/205
f 563/207/207 114/199/199 434/198/198 210/203/203
f 35/204/204 390/208/208 211/209/209 435/205/205
f 390/208/208 36/210/210 436/211/211 211/209/209
f 116/212/212 564/213/213 211/209/209 436/211/211
f 564/213/213 115/206/206 435/205/205 211/209/209
f 36/210/210 392/214/214 212/215/215 436/211/211
f 392/214/214 37/216/216 437/217/217 212/215/215
f 117/218/218 565/219/219 212/215/215 437/217/217
f 565/219/219 116/212/212 436/211/211 212/215/215
f 37/216/216 394/220/220 213/221/221 437/217/217
f 394/220/220 38/222/222 438/223/223 213/221/221
f 118/224/224 566/225/225 213/221/221 438/223/223
f 566/225/225 117/218/218 437/217/217 213/221/221
f 38/222/222 396/226/226 214/227/227 438/223/223
f 396/226/226 39/228/228 439/229/229 214/227/227
f 119/230/230 567/231/231 214/227/227 439/229/229
f 567/231/231 118/224/224 438/223/223 214/227/227
f 39/228/228 398/232/232 215/233/233 439/229/229
f 398/232/232 40/234/234 440/235/235 215/233/233
f 120/236/236 568/237/237 215/233/233 440/235/235
f 568/237/237 119/230/230 439/229/229 215/233/233
f 40/234/234 400/238/238 216/239/239 440/235/235
f 400/238/238 41/240/240 441/241/241 216/239/239
f 121/242/242 569/243/243 216/239/239 441/241/241
f 569/243/243 120/236/236 440/235/235 216/239/239
f 41/240/240 402/244/244 217/245/245 441/241/241
f 402/244/244 42/246/246 442/247/247 217/245/245
f 122/248/248 570/249/249 217/245/245 442/247/247
f 570/249/249 121/242/242 441/241/241 217/245/245
f 42/246/246 404/250/250 218/251/251 442/247/247
f 404/250/250 43/252/252 443/253/253 218/251/251
f 123/254/254 571/255/255 218/251/251 443/253/253
f 571/255/255 122/248/248 442/247/247 218/251/251
f 43/252/252 406/256/256 219/257/257 443/253/253
f 406/256/256 44/258/258 444/259/259 219/257/257
f 124/260/260 572/261/261 219/257/257 444/259/259
f 572/261/261 123/254/254 443/253/253 219/257/257
f 44/258/258 408/262/262 220/263/263 444/259/259
f 408/262/262 45/264/264 445/265/265 220/263/263
f 125/266/266 573/267/267 220/263/263 445/265/265
f 573/267/267 124/260/260 444/259/259 220/263/263
f 45/264/264 410/268/268 221/269/269 445/265/265
f 410/268/268 46/270/270 446/271/271 221/269/269
f 126/272/272 574/273/273 221/269/269 446/271/271
f 574/273/273 125/266/266 445/265/265 221/269/269
f 46/270/270 412/274/274 222/275/275 446/271/271
f 412/274/274 47/276/276 447/277/277 222/275/275
f 127/278/278 575/279/279 222/275/275 447/277/277
f 575/279/279 126/272/272 446/271/271 222/275/275
f 47/276/276 414/280/280 223/281/281 447/277/277
f 414/280/280 48/282/282 448/283/283 223/281/281
f 128/284/284 576/285/285 223/281/281 448/283/283
f 576/285/285 127/278/278 447/277/277 223/281/281
f 48/282/282 416/286/286 224/287/287 448/283/283
f 416/286/286 33/193/193 433/196/196 224/287/287
f 113/201/201 577/288/288 224/287/287 433/196/196
f 577/288/288 128/284/284 448/283/283 224/287/287
f 66/289/289 451/290/290 225/291/291 466/292/292
f 451/290/290 50/293/293 417/294/294 225/291/291
f 49/295/295 450/296/296 225/291/291 417/294/294
f 450/296/296 65/297/297 466/292/292 225/291/291
f 67/298/298 452/299/299 226/300/300 467/301/301
f 452/299/299 51/302/302 418/303/303 226/300/300
f 50/293/293 451/290/290 226/300/300 418/303/303
f 451/290/290 66/289/289 467/301/301 226/300/300
f 68/304/304 453/305/305 227/306/306 468/307/307
f 453/305/305 52/308/308 419/309/309 227/306/306
f 51/302/302 452/299/299 227/306/306 419/309/309
f 452/299/299 67/298/298 468/307/307 227/306/306
f 69/310/310 454/311/311 228/312/312 469/313/313
f 454/311/311 53/314/314 420/315/315 228/312/312
f 52/308/308 453/305/305 228/312/312 420/315/315
f 453/305/305 68/304/304 469/313/313 228/312/312
f 70/316/316 455/317/317 229/318/318 470/319/319
f 455/317/317 54/320/320 421/321/321 229/318/318
f 53/314/314 454/311/311 229/318/318 421/321/321
f 454/311/311 69/310/310 470/319/319 229/318/318
f 71/322/322 456/323/323 230/324/324 471/325/325
f 456/323/323 55/326/326 422/327/327 230/324/324
f 54/320/320 455/317/317 230/324/324 422/327/327
f 455/317/317 70/316/316 471/325/325 230/324/324
f 72/328/328 457/329/329 231/330/330 472/331/331
f 457/329/329 56/332/332 423/333/333 231/330/330
f 55/326/326 456/323/323 231/330/330 423/333/333
f 456/323/323 71/322/322 472/331/331 231/330/330
f 73/334/334 458/335/335 232/336/336 473/337/337
f 458/335/335 57/338/338 424/339/339 232/336/336
f 56/332/332 457/329/329 232/336/336 424/339/339
f 457/329/329 72/328/328 473/337/337 232/336/336
f 74/340/340 459/341/341 233/342/342 474/343/343
f 459/341/341 58/344/344 425/345/345 233/342/342
f 57/338/338 458/335/335 233/342/342 425/345/345
f 458/335/335 73/334/334 474/343/343 233/342/342
f 75/346/346 460/347/347 234/348/348 475/349/349
f 460/347/347 59/350/350 426/351/351 234/348/348
f 58/344/344 459/341/341 234/348/348 426/351/351
f 459/341/341 74/340/340 475/349/349 234/348/348
f 76/352/352 461/353/353 235/354/354 476/355/355
f 461/353/353 60/356/356 427/357/357 235/354/354
f 59/350/350 460/347/347 235/354/354 427/357/357
f 460/347/347 75/346/346 476/355/355 235/354/354
f 77/358/358 462/359/359 236/360/360 477/361/361
f 462/359/359 61/362/362 428/363/363 236/360/360
f 60/356/356 461/353/353 236/360/360 428/363/363
f 461/353/353 76/352/352 477/361/361 236/360/360
f 78/364/364 463/365/365 237/366/366 478/367/367
f 463/365/365 62/368/368 429/369/369 237/366/366
f 61/362/362 462/359/359 237/366/366 429/369/369
f 462/359/359 77/358/358 478/367/367 237/366/366
f 79/370/370 464/371/371 238/372/372 479/373/373
f 464/371/371 63/374/374 430/375/375 238/372/372
f 62/368/368 463/365/365 238/372/372 430/375/375
f 463/365/365 78/364/364 479/373/373 238/372/372
f 80/376/376 465/377/377 239/378/378 480/379/379
f 465/377/377 64/380/380 431/381/381 239/378/378
f 63/374/374 464/371/371 239/378/378 431/381/381
f 464/371/371 79/370/370 480/379/379 239/378/378
f 65/297/297 450/296/296 240/382/382 481/383/383
f 450/296/296 49/295/295 432/384/384 240/382/382
f 64/380/380 465/377/377 240/382/382 432/384/384
f 465/377/377 80/376/376 481/383/383 240/382/382
f 82/7/7 483/385/385 241/386/386 513/8/8
f 483/385/385 175/387/387 657/388/388 241/386/386
f 176/389/389 656/390/390 241/386/386 657/388/388
f 656/390/390 97/9/9 513/8/8 241/386/386
f 83/14/14 484/391/391 242/392/392 514/15/15
f 484/391/391 174/393/393 658/394/394 242/392/392
f 175/387/387 483/385/385 242/392/392 658/394/394
f 483/385/385 82/7/7 514/15/15 242/392/392
f 84/20/20 485/395/395 243/396/396 515/21/21
f 485/395/395 173/397/397 659/398/398 243/396/396
f 174/393/393 484/391/391 243/396/396 659/398/398
f 484/391/391 83/14/14 515/21/21 243/396/396
f 85/26/26 486/399/399 244/400/400 516/27/27
f 486/399/399 172/401/401 660/402/402 244/400/400
f 173/397/397 485/395/395 244/400/400 660/402/402
f 485/395/395 84/20/20 516/27/27 244/400/400
f 86/32/32 487/403/403 245/404/404 517/33/33
f 487/403/403 171/405/405 661/406/406 245/404/404
f 172/401/401 486/399/399 245/404/404 661/406/406
f 486/399/399 85/26/26 517/33/33 245/404/404
f 87/38/38 488/407/407 246/408/408 518/39/39
f 488/407/407 170/409/409 662/410/410 246/408/408
f 171/405/405 487/403/403 246/408/408 662/410/410
f 487/403/403 86/32/32 518/39/39 246/408/408
f 88/44/44 489/411/411 247/412/412 519/45/45
f 489/411/411 169/413/413 663/414/414 247/412/412
f 170/409/409 488/407/407 247/412/412 663/414/414
f 488/407/407 87/38/38 519/45/45 247/412/412
f 89/50/50 490/415/415 248/416/416 520/51/51
f 490/415/415 168/417/417 664/418/418 248/416/416
f 169/413/413 489/411/411 248/416/416 664/418/418
f 489/411/411 88/44/44 520/51/51 248/416/416
f 90/56/56 491/419/419 249/420/420 521/57/57
f 491/419/419 167/421/421 665/422/422 249/420/420
f 168/417/417 490/415/415 249/420/420 665/422/422
f 490/415/415 89/50/50 521/57/57 249/420/420
f 91/62/62 492/423/423 250/424/424 522/63/63
f 492/423/423 166/425/425 666/426/426 250/424/424
f 167/421/421 491/419/419 250/424/424 666/426/426
f 491/419/419 90/56/56 522/63/63 250/424/424
f 92/68/68 493/427/427 251/428/428 523/69/69
f 493/427/427 165/429/429 667/430/430 251/428/428
f 166/425/425 492/423/423 251/428/428 667/430/430
f 492/423/423 91/62/62 523/69/69 251/428/428
f 93/74/74 494/431/431 252/432/432 524/75/75
f 494/431/431 164/433/433 668/434/434 252/432/432
f 165/429/429 493/427/427 252/432/432 668/434/434
f 493/427/427 92/68/68 524/75/75 252/432/432
f 94/80/80 495/435/435 253/436/436 525/81/81
f 495/435/435 163/437/437 669/438/438 253/436/436
f 164/433/433 494/431/431 253/436/436 669/438/438
f 494/431/431 93/74/74 525/81/81 253/436/436
f 95/86/86 496/439/439 254/440/440 526/87/87
f 496/439/439 162/441/441 670/442/442 254/440/440
f 163/437/437 495/435/435 254/440/440 670/442/442
f 495/435/435 94/80/80 526/87/87 254/440/440
f 96/92/92 449/443/443 255/444/444 527/93/93
f 449/443/443 161/445/445 671/446/446 255/444/444
f 162/441/441 496/439/439 255/444/444 671/446/446
f 496/439/439 95/86/86 527/93/93 255/444/444
f 97/9/9 656/390/390 256/447/447 528/96/96
f 656/390/390 176/389/389 672/448/448 256/447/447
f 161/445/445 449/443/443 256/447/447 672/448/448
f 449/443/443 96/92/92 528/96/96 256/447/447
f 98/449/449 498/450/450 257/451/451 529/452/452
f 498/450/450 18/101/101 353/98/98 257/451/451
f 17/97/97 354/453/453 257/451/451 353/98/98
f 354/453/453 81/454/454 529/452/452 257/451/451
f 99/455/455 499/456/456 258/457/457 530/458/458
f 499/456/456 19/108/108 356/106/106 258/457/457
f 18/101/101 498/450/450 258/457/457 356/106/106
f 498/450/450 98/449/449 530/458/458 258/457/457
f 100/459/459 500/460/460 259/461/461 531/462/462
f 500/460/460 20/114/114 358/112/112 259/461/461
f 19/108/108 499/456/456 259/461/461 358/112/112
f 499/456/456 99/455/455 531/462/462 259/461/461
f 101/463/463 501/464/464 260/465/465 532/466/466
f 501/464/464 21/120/120 360/118/118 260/465/465
f 20/114/114 500/460/460 260/465/465 360/118/118
f 500/460/460 100/459/459 532/466/466 260/465/465
f 102/467/467 502/468/468 261/469/469 533/470/470
f 502/468/468 22/126/126 362/124/124 261/469/469
f 21/120/120 501/464/464 261/469/469 362/124/124
f 501/464/464 101/463/463 533/470/470 261/469/469
f 103/471/471 503/472/472 262/473/473 534/474/474
f 503/472/472 23/132/132 364/130/130 262/473/473
f 22/126/126 502/468/468 262/473/473 364/130/130
f 502/468/468 102/467/467 534/474/474 262/473/473
f 104/475/475 504/476/476 263/477/477 535/478/478
f 504/476/476 24/138/138 366/136/136 263/477/477
f 23/132/132 503/472/472 263/477/477 366/136/136
f 503/472/472 103/471/471 535/478/478 263/477/477
f 105/479/479 505/480/480 264/481/481 536/482/482
f 505/480/480 25/144/144 368/142/142 264/481/481
f 24/138/138 504/476/476 264/481/481 368/142/142
f 504/476/476 104/475/475 536/482/482 264/481/481
f 106/483/483 506/484/484 265/485/485 537/486/486
f 506/484/484 26/150/150 370/148/148 265/485/485
f 25/144/144 505/480/480 265/485/485 370/148/148
f 505/480/480 105/479/479 537/486/486 265/485/485
f 107/487/487 507/488/488 266/489/489 538/490/490
f 507/488/488 27/156/156 372/154/154 266/489/489
f 26/150/150 506/484/484 266/489/489 372/154/154
f 506/484/484 106/483/483 538/490/490 266/489/489
f 108/491/491 508/492/492 267/493/493 539/494/494
f 508/492/492 28/162/162 374/160/160 267/493/493
f 27/156/156 507/488/488 267/493/493 374/160/160
f 507/488/488 107/487/487 539/494/494 267/493/493
f 109/495/495 509/496/496 268/497/497 540/498/498
f 509/496/496 29/168/168 376/166/166 268/497/497
f 28/162/162 508/492/492 268/497/497 376/166/166
f 508/492/492 108/491/491 540/498/498 268/497/497
f 110/499/499 510/500/500 269/501/501 541/502/502
f 510/500/500 30/174/174 378/172/172 269/501/501
f 29/168/168 509/496/496 269/501/501 378/172/172
f 509/496/496 109/495/495 541/502/502 269/501/501
f 111/503/503 511/504/504 270/505/505 542/506/506
f 511/504/504 31/180/180 380/178/178 270/505/505
f 30/174/174 510/500/500 270/505/505 380/178/178
f 510/500/500 110/499/499 542/506/506 270/505/505
f 112/507/507 512/508/508 271/509/509 543/510/510
f 512/508/508 32/186/186 382/184/184 271/509/509
f 31/180/180 511/504/504 271/509/509 382/184/184
f 511/504/504 111/503/503 543/510/510 271/509/509
f 81/454/454 354/453/453 272/511/511 544/512/512
f 354/453/453 17/97/97 384/190/190 272/511/511
f 32/186/186 512/508/508 272/511/511 384/190/190
f 512/508/508 112/507/507 544/512/512 272/511/511
f 114/199/199 547/513/513 273/514/514 562/200/200
f 547/513/513 66/289/289 466/292/292 273/514/514
f 65/297/297 546/515/515 273/514/514 466/292/292
f 546/515/515 113/201/201 562/200/200 273/514/514
f 115/206/206 548/516/516 274/517/517 563/207/207
f 548/516/516 67/298/298 467/301/301 274/517/517
f 66/289/289 547/513/513 274/517/517 467/301/301
f 547/513/513 114/199/199 563/207/207 274/517/517
f 116/212/212 549/518/518 275/519/519 564/213/213
f 549/518/518 68/304/304 468/307/307 275/519/519
f 67/298/298 548/516/516 275/519/519 468/307/307
f 548/516/516 115/206/206 564/213/213 275/519/519
f 117/218/218 550/520/520 276/521/521 565/219/219
f 550/520/520 69/310/310 469/313/313 276/521/521
f 68/304/304 549/518/518 276/521/521 469/313/313
f 549/518/518 116/212/212 565/219/219 276/521/521
f 118/224/224 551/522/522 277/523/523 566/225/225
f 551/522/522 70/316/316 470/319/319 277/523/523
f 69/310/310 550/520/520 277/523/523 470/319/319
f 550/520/520 117/218/218 566/225/225 277/523/523
f 119/230/230 552/524/524 278/525/525 567/231/231
f 552/524/524 71/322/322 471/325/325 278/525/525
f 70/316/316 551/522/522 278/525/525 471/325/325
f 551/522/522 118/224/224 567/231/231 278/525/525
f 120/236/236 553/526/526 279/527/527 568/237/237
f 553/526/526 72/328/328 472/331/331 279/527/527
f 71/322/322 552/524/524 279/527/527 472/331/331
f 552/524/524 119/230/230 568/237/237 279/527/527
f 121/242/242 554/528/528 280/529/529 569/243/243
f 554/528/528 73/334/334 473/337/337 280/529/529
f 72/328/328 553/526/526 280/529/529 473/337/337
f 553/526/526 120/236/236 569/243/243 280/529/529
f 122/248/248 555/530/530 281/531/531 570/249/249
f 555/530/530 74/340/340 474/343/343 281/531/531
f 73/334/334 554/528/528 281/531/531 474/343/343
f 554/528/528 121/242/242 570/249/249 281/531/531
f 123/254/254 556/532/532 282/533/533 571/255/255
f 556/532/532 75/346/346 475/349/349 282/533/533
f 74/340/340 555/530/530 282/533/533 475/349/349
f 555/530/530 122/248/248 571/255/255 282/533/533
f 124/260/260 557/534/534 283/535/535 572/261/261
f 557/534/534 76/352/352 476/355/355 283/535/535
f 75/346/346 556/532/532 283/535/535 476/355/355
f 556/532/532 123/254/254 572/261/261 283/535/535
f 125/266/266 558/536/536 284/537/537 573/267/267
f 558/536/536 77/358/358 477/361/361 284/537/537
f 76/352/352 557/534/534 284/537/537 477/361/361
f 557/534/534 124/260/260 573/267/267 284/537/537
f 126/272/272 559/538/538 285/539/539 574/273/273
f 559/538/538 78/364/364 478/367/367 285/539/539
f 77/358/358 558/536/536 285/539/539 478/367/367
f 558/536/536 125/266/266 574/273/273 285/539/539
f 127/278/278 560/540/540 286/541/541 575/279/279
f 560/540/540 79/370/370 479/373/373 286/541/541
f 78/364/364 559/538/538 286/541/541 479/373/373
f 559/538/538 126/272/272 575/279/279 286/541/541
f 128/284/284 561/542/542 287/543/543 576/285/285
f 561/542/542 80/376/376 480/379/379 287/543/543
f 79/370/370 560/540/540 287/543/543 480/379/379
f 560/540/540 127/278/278 576/285/285 287/543/543
f 113/201/201 546/515/515 288/544/544 577/288/288
f 546/515/515 65/297/297 481/383/383 288/544/544
f 80/376/376 561/542/542 288/544/544 481/383/383
f 561/542/542 128/284/284 577/288/288 288/544/544
f 130/545/545 578/546/546 289/547/547 593/548/545
f 578/546/546 34/197/197 385/194/194 289/547/547
f 33/193/193 386/549/548 289/547/547 385/194/194
f 386/549/548 129/550/545 593/548/545 289/547/547
f 131/551/549 579/552/550 290/553/551 594/554/545
f 579/552/550 35/204/204 388/202/202 290/553/551
f 34/197/197 578/546/546 290/553/551 388/202/202
f 578/546/546 130/545/545 594/554/545 290/553/551
f 132/555/552 580/556/553 291/557/554 595/558/552
f 580/556/553 36/210/210 390/208/208 291/557/554
f 35/204/204 579/552/550 291/557/554 390/208/208
f 579/552/550 131/551/549 595/558/552 291/557/554
f 133/559/552 581/560/555 292/561/556 596/562/552
f 581/560/555 37/216/216 392/214/214 292/561/556
f 36/210/210 580/556/553 292/561/556 392/214/214
f 580/556/553 132/555/552 596/562/552 292/561/556
f 134/563/552 582/564/557 293/565/558 597/566/552
f 582/564/557 38/222/222 394/220/220 293/565/558
f 37/216/216 581/560/555 293/565/558 394/220/220
f 581/560/555 133/559/552 597/566/552 293/565/558
f 135/567/559 583/568/560 294/569/561 598/570/552
f 583/568/560 39/228/228 396/226/226 294/569/561
f 38/222/222 582/564/557 294/569/561 396/226/226
f 582/564/557 134/563/552 598/570/552 294/569/561
f 136/571/562 584/572/563 295/573/564 599/574/562
f 584/572/563 40/234/234 398/232/232 295/573/564
f 39/228/228 583/568/560 295/573/564 398/232/232
f 583/568/560 135/567/559 599/574/562 295/573/564
f 137/575/562 585/576/565 296/577/566 600/578/562
f 585/576/565 41/240/240 400/238/238 296/577/566
f 40/234/234 584/572/563 296/577/566 400/238/238
f 584/572/563 136/571/562 600/578/562 296/577/566
f 138/579/562 586/580/567 297/581/568 601/582/562
f 586/580/567 42/246/246 402/244/244 297/581/568
f 41/240/240 585/576/565 297/581/568 402/244/244
f 585/576/565 137/575/562 601/582/562 297/581/568
f 139/583/569 587/584/570 298/585/571 602/586/562
f 587/584/570 43/252/252 404/250/250 298/585/571
f 42/246/246 586/580/567 298/585/571 404/250/250
f 586/580/567 138/579/562 602/586/562 298/585/571
f 140/587/572 588/588/573 299/589/574 603/590/572
f 588/588/573 44/258/258 406/256/256 299/589/574
f 43/252/252 587/584/570 299/589/574 406/256/256
f 587/584/570 139/583/569 603/590/572 299/589/574
f 141/591/572 589/592/575 300/593/576 604/594/572
f 589/592/575 45/264/264 408/262/262 300/593/576
f 44/258/258 588/588/573 300/593/576 408/262/262
f 588/588/573 140/587/572 604/594/572 300/593/576
f 142/595/572 590/596/577 301/597/578 605/598/572
f 590/596/577 46/270/270 410/268/268 301/597/578
f 45/264/264 589/592/575 301/597/578 410/268/268
f 589/592/575 141/591/572 605/598/572 301/597/578
f 143/599/579 591/600/580 302/601/581 606/602/572
f 591/600/580 47/276/276 412/274/274 302/601/581
f 46/270/270 590/596/577 302/601/581 412/274/274
f 590/596/577 142/595/572 606/602/572 302/601/581
f 144/603/545 592/604/582 303/605/583 607/606/545
f 592/604/582 48/282/282 414/280/280 303/605/583
f 47/276/276 591/600/580 303/605/583 414/280/280
f 591/600/580 143/599/579 607/606/545 303/605/583
f 129/550/545 386/549/548 304/607/584 608/608/545
f 386/549/548 33/193/193 416/286/286 304/607/584
f 48/282/282 592/604/582 304/607/584 416/286/286
f 592/604/582 144/603/545 608/608/545 304/607/584
f 145/103/103 609/609/585 305/610/585 625/104/104
f 609/609/585 130/545/545 593/548/545 305/610/585
f 129/550/545 545/611/585 305/610/585 593/548/545
f 545/611/585 160/105/105 625/104/104 305/610/585
f 146/110/110 610/612/585 306/613/585 626/111/111
f 610/612/585 131/551/549 594/554/545 306/613/585
f 130/545/545 609/609/585 306/613/585 594/554/545
f 609/609/585 145/103/103 626/111/111 306/613/585
f 147/116/116 611/614/585 307/615/585 627/117/117
f 611/614/585 132/555/552 595/558/552 307/615/585
f 131/551/549 610/612/585 307/615/585 595/558/552
f 610/612/585 146/110/110 627/117/117 307/615/585
f 148/122/122 612/616/585 308/617/585 628/123/123
f 612/616/585 133/559/552 596/562/552 308/617/585
f 132/555/552 611/614/585 308/617/585 596/562/552
f 611/614/585 147/116/116 628/123/123 308/617/585
f 149/128/128 613/618/585 309/619/585 629/129/129
f 613/618/585 134/563/552 597/566/552 309/619/585
f 133/559/552 612/616/585 309/619/585 597/566/552
f 612/616/585 148/122/122 629/129/129 309/619/585
f 150/134/134 614/620/585 310/621/585 630/135/135
f 614/620/585 135/567/559 598/570/552 310/621/585
f 134/563/552 613/618/585 310/621/585 598/570/552
f 613/618/585 149/128/128 630/135/135 310/621/585
f 151/140/140 615/622/585 311/623/585 631/141/141
f 615/622/585 136/571/562 599/574/562 311/623/585
f 135/567/559 614/620/585 311/623/585 599/574/562
f 614/620/585 150/134/134 631/141/141 311/623/585
f 152/146/146 616/624/585 312/625/585 632/147/147
f 616/624/585 137/575/562 600/578/562 312/625/585
f 136/571/562 615/622/585 312/625/585 600/578/562
f 615/622/585 151/140/140 632/147/147 312/625/585
f 153/152/152 617/626/585 313/627/585 633/153/153
f 617/626/585 138/579/562 601/582/562 313/627/585
f 137/575/562 616/624/585 313/627/585 601/582/562
f 616/624/585 152/146/146 633/153/153 313/627/585
f 154/158/158 618/628/585 314/629/585 634/159/159
f 618/628/585 139/583/569 602/586/562 314/629/585
f 138/579/562 617/626/585 314/629/585 602/586/562
f 617/626/585 153/152/152 634/159/159 314/629/585
f 155/164/164 619/630/585 315/631/585 635/165/165
f 619/630/585 140/587/572 603/590/572 315/631/585
f 139/583/569 618/628/585 315/631/585 603/590/572
f 618/628/585 154/158/158 635/165/165 315/631/585
f 156/170/170 620/632/585 316/633/585 636/171/171
f 620/632/585 141/591/572 604/594/572 316/633/585
f 140/587/572 619/630/585 316/633/585 604/594/572
f 619/630/585 155/164/164 636/171/171 316/633/585
f 157/176/176 621/634/585 317/635/585 637/177/177
f 621/634/585 142/595/572 605/598/572 317/635/585
f 141/591/572 620/632/585 317/635/585 605/598/572
f 620/632/585 156/170/170 637/177/177 317/635/585
f 158/182/182 622/636/585 318/637/585 638/183/183
f 622/636/585 143/599/579 606/602/572 318/637/585
f 142/595/572 621/634/585 318/637/585 606/602/572
f 621/634/585 157/176/176 638/183/183 318/637/585
f 159/188/188 623/638/585 319/639/585 639/189/189
f 623/638/585 144/603/545 607/606/545 319/639/585
f 143/599/579 622/636/585 319/639/585 607/606/545
f 622/636/585 158/182/182 639/189/189 319/639/585
f 160/105/105 545/611/585 320/640/585 640/192/192
f 545/611/585 129/550/545 608/608/545 320/640/585
f 144/603/545 623/638/585 320/640/585 608/608/545
f 623/638/585 159/188/188 640/192/192 320/640/585
f 175/387/387 655/641/586 321/642/587 657/388/388
f 655/641/586 98/449/449 529/452/452 321/642/587
f 81/454/454 482/643/588 321/642/587 529/452/452
f 482/643/588 176/389/389 657/388/388 321/642/587
f 174/393/393 654/644/589 322/645/590 658/394/394
f 654/644/589 99/455/455 530/458/458 322/645/590
f 98/449/449 655/641/586 322/645/590 530/458/458
f 655/641/586 175/387/387 658/394/394 322/645/590
f 173/397/397 653/646/591 323/647/592 659/398/398
f 653/646/591 100/459/459 531/462/462 323/647/592
f 99/455/455 654/644/589 323/647/592 531/462/462
f 654/644/589 174/393/393 659/398/398 323/647/592
f 172/401/401 652/648/593 324/649/594 660/402/402
f 652/648/593 101/463/463 532/466/466 324/649/594
f 100/459/459 653/646/591 324/649/594 532/466/466
f 653/646/591 173/397/397 660/402/402 324/649/594
f 171/405/405 651/650/595 325/651/596 661/406/406
f 651/650/595 102/467/467 533/470/470 325/651/596
f 101/463/463 652/648/593 325/651/596 533/470/470
f 652/648/593 172/401/401 661/406/406 325/651/596
f 170/409/409 650/652/597 326/653/598 662/410/410
f 650/652/597 103/471/471 534/474/474 326/653/598
f 102/467/467 651/650/595 326/653/598 534/474/474
f 651/650/595 171/405/405 662/410/410 326/653/598
f 169/413/413 649/654/599 327/655/600 663/414/414
f 649/654/599 104/475/475 535/478/478 327/655/600
f 103/471/471 650/652/597 327/655/600 535/478/478
f 650/652/597 170/409/409 663/414/414 327/655/600
f 168/417/417 648/656/601 328/657/602 664/418/418
f 648/656/601 105/479/479 536/482/482 328/657/602
f 104/475/475 649/654/599 328/657/602 536/482/482
f 649/654/599 169/413/413 664/418/418 328/657/602
f 167/421/421 647/658/603 329/659/604 665/422/422
f 647/658/603 106/483/483 537/486/486 329/659/604
f 105/479/479 648/656/601 329/659/604 537/486/486
f 648/656/601 168/417/417 665/422/422 329/659/604
f 166/425/425 646/660/605 330/661/606 666/426/426
f 646/660/605 107/487/487 538/490/490 330/661/606
f 106/483/483 647/658/603 330/661/606 538/490/490
f 647/658/603 167/421/421 666/426/426 330/661/606
f 165/429/429 645/662/607 331/663/608 667/430/430
f 645/662/607 108/491/491 539/494/494 331/663/608
f 107/487/487 646/660/605 331/663/608 539/494/494
f 646/660/605 166/425/425 667/430/430 331/663/608
f 164/433/433 644/664/609 332/665/610 668/434/434
f 644/664/609 109/495/495 540/498/498 332/665/610
f 108/491/491 645/662/607 332/665/610 540/498/498
f 645/662/607 165/429/429 668/434/434 332/665/610
f 163/437/437 643/666/611 333/667/612 669/438/438
f 643/666/611 110/499/499 541/502/502 333/667/612
f 109/495/495 644/664/609 333/667/612 541/502/502
f 644/664/609 164/433/433 669/438/438 333/667/612
f 162/441/441 642/668/613 334/669/614 670/442/442
f 642/668/613 111/503/503 542/506/506 334/669/614
f 110/499/499 643/666/611 334/669/614 542/506/506
f 643/666/611 163/437/437 670/442/442 334/669/614
f 161/445/445 641/670/615 335/671/616 671/446/446
f 641/670/615 112/507/507 543/510/510 335/671/616
f 111/503/503 642/668/613 335/671/616 543/510/510
f 642/668/613 162/441/441 671/446/446 335/671/616
f 176/389/389 482/643/588 336/672/617 672/448/448
f 482/643/588 81/454/454 544/512/512 336/672/617
f 112/507/507 641/670/615 336/672/617 544/512/512
f 641/670/615 161/445/445 672/448/448 336/672/617
