# Blender 4.5.12 LTS
# www.blender.org
o DPadDown_x
v -49.717888 -23.149801 15.645401
v -49.719139 -23.178949 15.326063
v -50.361553 -23.121859 15.643593
v -49.716194 -23.111048 16.069702
v -49.074234 -23.178003 15.644262
v -49.027233 -23.209177 15.325815
v -49.179409 -23.134802 16.066265
v -48.430664 -23.205626 15.649408
v -48.039707 -23.221594 15.661423
v -48.335327 -23.239279 15.327036
v -48.643608 -23.156858 16.080866
v -48.913147 -23.101748 16.554655
v -48.329582 -23.167501 16.114351
v -48.078545 -23.172712 16.177273
v -48.688801 -23.106306 16.611855
v -48.514141 -23.104513 16.714808
v -49.039772 -23.048429 17.077003
v -49.178261 -23.049059 17.004011
v -48.938416 -23.039579 17.222145
v -49.340252 -23.001410 17.447649
v -49.512470 -22.976912 17.587189
v -49.296310 -22.986879 17.627275
v -49.350384 -23.014219 17.302696
v -49.534527 -22.996340 17.364174
v -49.440414 -23.036692 17.014090
v -49.710579 -22.982626 17.396076
v -49.712250 -23.021212 17.053562
v -49.886528 -22.980623 17.367022
v -49.709564 -22.959494 17.649502
v -49.708771 -22.941175 17.850107
v -49.904236 -22.959005 17.594847
v -49.924892 -22.940351 17.788935
v -50.081123 -22.969046 17.447649
v -50.384571 -22.989714 17.077005
v -50.072159 -22.982702 17.302696
v -50.123646 -22.950762 17.627281
v -50.181583 -22.926085 17.869463
v -50.484756 -22.972059 17.222147
v -50.913090 -22.999784 16.714811
v -50.613026 -22.948294 17.420732
v -50.771244 -22.918177 17.674421
v -51.128128 -22.977049 16.860596
v -51.373913 -22.948820 17.051846
v -51.655048 -23.007460 16.276726
v -51.986187 -22.980452 16.413897
v -52.091381 -23.035387 15.763151
v -51.352982 -23.029741 16.177273
v -51.102451 -23.046434 16.114357
v -51.714695 -23.058081 15.694862
v -51.908455 -23.080912 15.352877
v -51.395939 -23.075060 15.661421
v -51.005081 -23.093222 15.649406
v -51.541561 -23.099031 15.329948
v -51.605915 -23.128515 14.976974
v -51.102982 -23.118444 15.327036
v -51.145023 -23.149023 14.972731
v -50.411068 -23.148775 15.325661
v -50.432804 -23.180376 14.969860
v -49.720558 -23.211473 14.969798
v -50.439648 -23.212694 14.613315
v -49.721992 -23.244009 14.613534
v -50.485634 -23.357435 13.009139
v -51.157303 -23.181360 14.613342
v -51.242889 -23.324492 13.007915
v -51.628662 -23.160734 14.613870
v -51.746590 -23.302572 13.007127
v -52.031025 -23.141397 14.633172
v -52.179119 -23.282728 13.017603
v -52.492447 -23.116106 14.689449
v -51.995472 -23.109312 15.000938
v -52.443661 -23.084078 15.062794
v -52.895935 -23.056326 15.150242
v -52.334694 -23.056723 15.413897
v -52.772686 -23.029360 15.503792
v -52.491348 -23.008734 15.863548
v -52.992519 -22.931738 15.536575
v -52.736156 -22.914675 15.876345
v -53.090027 -22.954550 15.229134
v -53.134274 -22.759523 15.553444
v -52.898041 -22.740889 15.868380
v -53.208092 -22.780283 15.293558
v -53.130028 -21.898252 15.553698
v -53.125786 -21.036985 15.553949
v -52.894211 -21.884188 15.867870
v -53.203728 -21.913900 15.294991
v -53.245956 -21.937059 14.939644
v -53.199352 -21.047522 15.296415
v -53.190617 -20.357721 15.299278
v -53.241550 -21.063021 14.941274
v -53.232742 -20.357927 14.944531
v -53.448071 -21.138632 13.195992
v -53.436726 -20.358557 13.199235
v -53.609039 -21.216574 11.422548
v -53.453739 -22.050154 13.194370
v -53.459412 -22.961683 13.192749
v -53.616039 -22.166719 11.420832
v -53.647736 -22.222719 10.592540
v -53.623051 -23.116854 11.419116
v -53.503708 -23.283014 11.411373
v -53.655159 -23.191393 10.590550
v -53.537163 -23.355795 10.596071
v -53.592266 -23.226187 10.242296
v -53.481339 -23.389021 10.248082
v -53.459137 -23.264509 9.889160
v -53.584930 -22.248819 10.244709
v -53.577587 -21.271452 10.247122
v -53.451859 -22.277525 9.891787
v -53.444584 -21.290548 9.894416
v -53.255814 -22.305162 9.583632
v -53.248634 -21.308836 9.586369
v -52.997898 -22.329931 9.345529
v -53.262993 -23.301485 9.580896
v -53.233047 -23.449461 9.601992
v -53.004978 -23.334761 9.342752
v -52.952217 -23.483282 9.407980
v -52.649796 -23.367300 9.158318
v -52.596409 -23.516241 9.241503
v -52.149021 -23.401049 9.029202
v -52.642693 -22.354116 9.161059
v -52.635590 -21.340933 9.163802
v -52.141888 -22.379255 9.031930
v -52.134758 -21.357450 9.034659
v -51.479614 -22.405985 8.957088
v -51.472443 -21.375128 8.959807
v -50.615490 -22.436323 8.926701
v -51.486782 -23.436846 8.954372
v -51.460190 -23.583525 9.056189
v -50.622700 -23.477369 8.923991
v -50.606194 -23.623251 9.028398
v -49.756561 -23.514490 8.931590
v -49.749390 -22.464159 8.934302
v -49.750416 -23.659811 9.035709
v -48.890732 -23.552687 8.927334
v -48.894829 -23.697477 9.031675
v -48.026695 -23.587942 8.954412
v -48.883492 -22.492807 8.930044
v -48.876266 -21.432936 8.932755
v -48.019432 -22.519205 8.957121
v -48.012177 -21.450468 8.959832
v -47.356976 -22.535662 9.031954
v -46.855637 -22.543047 9.161019
v -47.349705 -21.461294 9.034680
v -47.364258 -23.610029 9.029228
v -46.862839 -23.620100 9.158248
v -47.395142 -23.753767 9.125369
v -46.903736 -23.763426 9.242747
v -48.040794 -23.732271 9.056727
v -47.434891 -23.831739 9.280608
v -48.057987 -23.810118 9.219640
v -47.514919 -23.782003 9.786108
v -46.957096 -23.843187 9.383564
v -47.061352 -23.797018 9.838436
v -46.593979 -23.845755 9.528828
v -46.648239 -23.809004 9.904757
v -46.335045 -23.847036 9.638353
v -46.546448 -23.761625 9.409320
v -46.267036 -23.752459 9.598866
v -46.506157 -23.618727 9.342791
v -46.246502 -23.608137 9.580961
v -46.499207 -22.541815 9.345591
v -46.239941 -22.533712 9.583757
v -46.492256 -21.464903 9.348394
v -46.233383 -21.459284 9.586555
v -46.478359 -20.354052 9.354001
v -46.848434 -21.465998 9.163792
v -46.834034 -20.354860 9.169338
v -47.335155 -20.355539 9.040134
v -46.824535 -20.279928 9.146033
v -47.330116 -20.280565 9.015680
v -46.463387 -20.279150 9.333554
v -46.797379 -20.255117 9.075604
v -46.779522 -20.255217 9.028573
v -46.419739 -20.254431 9.271687
v -47.316299 -20.255671 8.941808
v -47.307293 -20.255709 8.892509
v -47.989876 -20.256021 8.865674
v -47.986366 -20.256033 8.815757
v -47.995369 -20.280970 8.940487
v -48.857586 -20.256170 8.838444
v -48.855831 -20.256170 8.788451
v -49.727215 -20.256166 8.842706
v -48.860420 -20.281153 8.913370
v -48.861820 -20.356153 8.938175
v -49.727375 -20.281164 8.917642
v -50.594315 -20.281187 8.910041
v -49.727890 -20.356153 8.942447
v -50.593948 -20.356180 8.934844
v -49.742226 -21.413839 8.937016
v -50.608299 -21.395292 8.929414
v -51.458115 -20.356375 8.965245
v -52.120487 -20.356810 9.040118
v -51.459366 -20.281363 8.940485
v -52.124519 -20.281775 9.015674
v -51.464523 -20.256319 8.865674
v -50.596817 -20.256178 8.835103
v -51.468128 -20.256304 8.815760
v -52.137989 -20.256674 8.941805
v -52.147171 -20.256628 8.892526
v -52.656681 -20.257280 9.075575
v -52.674820 -20.257166 9.028619
v -53.033951 -20.258024 9.271582
v -52.629856 -20.282476 9.145998
v -52.990620 -20.283327 9.333430
v -52.621376 -20.357534 9.169291
v -52.976646 -20.358423 9.353860
v -52.990814 -21.325102 9.348304
v -53.234268 -20.359148 9.591845
v -53.430038 -20.359556 9.899675
v -53.253071 -20.284018 9.575893
v -53.451969 -20.284414 9.888638
v -53.310959 -20.258631 9.527490
v -53.349716 -20.258341 9.495264
v -53.519222 -20.258970 9.854995
v -53.564198 -20.258654 9.832560
v -53.658943 -20.259073 10.225449
v -53.707336 -20.258760 10.212079
v -53.725025 -20.259031 10.591587
v -53.586533 -20.284536 10.245448
v -53.649971 -20.284483 10.596884
v -53.562901 -20.359697 10.251948
v -53.625462 -20.359640 10.598513
v -53.640312 -21.254026 10.594531
v -53.595036 -20.359262 11.425982
v -53.619473 -20.284128 11.427690
v -53.461121 -20.283445 13.201931
v -53.694168 -20.258722 11.432448
v -53.744095 -20.258440 11.435551
v -53.535587 -20.258112 13.209661
v -53.585331 -20.257891 13.214751
v -53.331532 -20.257563 14.956399
v -53.381184 -20.257406 14.962238
v -53.288467 -20.257433 15.319273
v -53.257179 -20.282831 14.947590
v -53.214828 -20.282652 15.304359
v -53.139694 -20.282347 15.565819
v -53.117306 -20.357420 15.554457
v -53.207829 -20.257177 15.599848
v -52.901615 -20.282030 15.882328
v -52.327885 -20.281775 16.504778
v -52.882717 -20.357073 15.866343
v -52.959187 -20.256891 15.930391
v -52.997677 -20.256815 15.962412
v -52.382282 -20.256674 16.556301
v -52.418625 -20.256609 16.590647
v -51.639595 -20.256491 17.321486
v -51.675468 -20.256430 17.356304
v -50.898849 -20.256308 18.084864
v -51.585850 -20.281557 17.269279
v -50.846092 -20.281347 18.031626
v -51.568150 -20.356588 17.251930
v -50.828690 -20.356363 18.013939
v -51.573681 -20.992613 17.253248
v -52.310013 -20.356810 16.487652
v -52.316673 -21.011457 16.488914
v -52.890381 -21.027498 15.867363
v -52.320007 -21.860254 16.489546
v -51.576450 -21.832113 17.253908
v -52.323345 -22.709066 16.490177
v -51.579216 -22.671614 17.254570
v -52.190365 -22.880316 16.466743
v -51.504215 -22.842062 17.174652
v -50.825207 -22.811613 17.878906
v -50.255531 -22.791777 18.432083
v -50.837482 -22.634237 18.016867
v -50.222763 -22.607420 18.602745
v -50.835278 -21.804026 18.016136
v -50.833080 -20.973814 18.015404
v -50.221008 -21.783876 18.601788
v -50.219254 -20.960325 18.600832
v -49.979374 -21.777822 18.756594
v -49.980167 -22.599363 18.758377
v -49.978561 -20.956278 18.754803
v -49.718971 -21.780439 18.809341
v -49.455612 -21.795904 18.747210
v -49.718937 -22.602850 18.811502
v -49.719013 -20.958017 18.807180
v -49.456810 -20.968336 18.745665
v -49.719086 -20.356153 18.802858
v -49.459137 -20.356142 18.742596
v -49.719090 -20.281164 18.828434
v -49.976883 -20.356165 18.751186
v -50.215752 -20.356192 18.598921
v -49.985115 -20.281172 18.775162
v -50.231594 -20.281191 18.618116
v -50.010010 -20.256163 18.847528
v -50.026627 -20.256159 18.895809
v -49.719090 -20.256166 18.905691
v -50.279545 -20.256170 18.675947
v -50.311558 -20.256166 18.714506
v -50.934078 -20.256281 18.120356
v -50.359562 -20.231146 18.772367
v -50.986885 -20.231237 18.173618
v -50.375530 -20.156145 18.791660
v -50.051552 -20.231146 18.968233
v -50.059845 -20.156149 18.992374
v -49.719086 -20.231161 19.034563
v -49.719086 -20.156164 19.060335
v -49.383686 -20.231173 18.957165
v -49.719086 -20.256166 18.957241
v -49.408882 -20.256166 18.885584
v -49.425678 -20.256166 18.837852
v -49.127525 -20.256151 18.714687
v -48.506203 -20.256052 18.120623
v -49.159550 -20.256151 18.676125
v -49.079475 -20.231169 18.772509
v -49.063427 -20.156183 18.791780
v -48.453300 -20.231100 18.173836
v -48.435616 -20.156107 18.191566
v -47.712219 -20.230974 17.408762
v -47.694172 -20.155993 17.426151
v -46.969707 -20.230860 16.642433
v -47.766129 -20.255899 17.356577
v -47.802040 -20.255861 17.321783
v -47.024296 -20.255766 16.590940
v -47.060635 -20.255693 16.556597
v -46.446327 -20.255575 15.962767
v -46.484787 -20.255503 15.930725
v -46.191265 -20.255365 15.623001
v -46.388538 -20.230703 16.010790
v -46.369118 -20.155752 16.026787
v -46.122898 -20.230536 15.656937
v -46.099922 -20.155596 15.668230
v -46.033581 -20.230368 15.344511
v -46.008770 -20.155443 15.349413
v -45.989880 -20.230288 14.971455
v -46.107437 -20.255163 15.329752
v -46.156620 -20.255018 15.319862
v -46.064461 -20.255030 14.962793
v -46.114124 -20.254889 14.957014
v -45.862911 -20.254587 13.215463
v -45.912666 -20.254385 13.210380
v -45.706604 -20.254095 11.436237
v -45.788185 -20.229895 13.223032
v -45.763004 -20.155001 13.225533
v -45.631611 -20.229467 11.440843
v -45.606274 -20.154593 11.442353
v -45.601223 -20.229254 10.583116
v -45.575722 -20.154390 10.581280
v -45.672237 -20.229208 10.192343
v -45.676598 -20.253839 10.588564
v -45.726765 -20.253542 10.592165
v -45.744957 -20.253790 10.212491
v -45.793331 -20.253496 10.225919
v -45.888618 -20.253878 9.832808
v -45.933540 -20.253580 9.855360
v -46.103672 -20.254148 9.495303
v -45.821053 -20.229277 9.799028
v -45.798126 -20.154413 9.787754
v -46.045498 -20.229502 9.446784
v -46.025688 -20.154623 9.430606
v -46.347248 -20.229910 9.168397
v -46.332260 -20.155001 9.147741
v -46.752369 -20.230398 8.958076
v -46.390884 -20.254625 9.230334
v -46.742870 -20.155478 8.934569
v -47.293484 -20.230822 8.818571
v -47.288429 -20.155848 8.793923
v -47.980869 -20.231077 8.740881
v -47.978577 -20.156096 8.715921
v -48.852989 -20.231176 8.713462
v -48.851582 -20.156187 8.688464
v -49.727032 -20.231161 8.717706
v -49.726509 -20.156164 8.692704
v -50.601105 -20.231157 8.710102
v -49.727215 -20.256166 8.792706
v -50.598621 -20.256174 8.785102
v -50.601471 -20.156153 8.685102
v -51.473274 -20.231256 8.740885
v -51.474522 -20.156240 8.715928
v -52.160645 -20.231524 8.818590
v -52.164658 -20.156488 8.793948
v -52.701649 -20.231966 8.958132
v -52.710117 -20.156908 8.934643
v -53.106422 -20.232515 9.168470
v -53.120396 -20.157415 9.147843
v -53.407608 -20.232962 9.446798
v -53.063087 -20.257811 9.230378
v -53.426449 -20.157835 9.430648
v -53.631481 -20.233221 9.798852
v -53.653461 -20.158064 9.787627
v -53.779770 -20.233297 10.192025
v -53.803486 -20.158148 10.185357
v -53.850288 -20.233263 10.582655
v -53.874897 -20.158110 10.580898
v -53.818832 -20.233030 11.440274
v -53.775192 -20.258703 10.587996
v -53.843384 -20.157900 11.441875
v -53.659836 -20.232561 13.222447
v -53.684361 -20.157446 13.225038
v -53.455585 -20.232138 14.971003
v -53.480141 -20.157045 14.973939
v -53.411335 -20.232046 15.344011
v -53.435684 -20.156984 15.348991
v -53.321579 -20.231867 15.656471
v -53.337643 -20.257273 15.329134
v -53.253391 -20.257044 15.622446
v -53.344116 -20.156797 15.667831
v -53.055294 -20.231661 16.010492
v -53.074341 -20.156614 16.026529
v -52.473061 -20.231497 16.642191
v -52.491077 -20.156462 16.659386
v -51.729263 -20.231371 17.408537
v -51.747093 -20.156340 17.425957
v -51.746826 -19.973650 17.425980
v -51.004421 -20.156225 18.191380
v -51.004265 -19.973467 18.191406
v -50.375465 -19.973349 18.791683
v -50.986584 -19.898470 18.173662
v -50.359432 -19.898355 18.772404
v -51.728760 -19.898672 17.408583
v -50.933731 -19.873522 18.120415
v -50.828083 -19.873613 18.013893
v -50.311405 -19.873381 18.714552
v -51.674904 -19.873747 17.356358
v -51.567245 -19.873892 17.251900
v -52.417805 -19.873960 16.590710
v -52.308823 -19.874170 16.487625
v -52.996674 -19.874201 15.962482
v -52.472359 -19.898855 16.642239
v -52.490681 -19.973822 16.659405
v -53.054440 -19.899054 16.010546
v -53.073856 -19.974001 16.026558
v -53.320591 -19.899248 15.656572
v -53.343571 -19.974184 15.667885
v -53.410301 -19.899439 15.344124
v -53.252247 -19.874430 15.622576
v -53.115761 -19.874811 15.554491
v -53.336460 -19.874659 15.329273
v -53.188938 -19.875116 15.299519
v -53.379910 -19.874796 14.962323
v -53.230942 -19.875311 14.944802
v -53.583595 -19.875383 13.214924
v -53.454487 -19.899530 14.971081
v -53.479580 -19.974432 14.973984
v -53.658321 -19.900045 13.222581
v -53.683537 -19.974928 13.225109
v -53.816940 -19.900534 11.440408
v -53.842300 -19.975405 11.441942
v -53.848240 -19.900713 10.582767
v -53.741920 -19.875937 11.435724
v -53.592171 -19.876764 11.426303
v -53.772842 -19.876158 10.588139
v -53.622345 -19.877096 10.598837
v -53.704914 -19.876184 10.212184
v -53.559738 -19.877123 10.252329
v -53.561710 -19.876070 9.832631
v -53.777660 -19.900724 10.192106
v -53.802326 -19.975576 10.185398
v -53.629311 -19.900625 9.798910
v -53.652279 -19.975481 9.787661
v -53.405373 -19.900358 9.446817
v -53.425228 -19.975237 9.430655
v -53.104084 -19.899893 9.168509
v -53.347157 -19.875738 9.495294
v -53.231098 -19.876547 9.592324
v -53.060410 -19.875177 9.230427
v -52.973530 -19.875803 9.354319
v -52.672119 -19.874517 9.028658
v -52.618244 -19.874895 9.169672
v -52.144470 -19.873938 8.892541
v -52.699295 -19.899321 8.958166
v -52.708820 -19.974249 8.934663
v -52.158283 -19.898829 8.818605
v -52.163364 -19.973791 8.793956
v -51.470921 -19.898497 8.740891
v -50.598763 -19.898344 8.710104
v -51.473225 -19.973497 8.715930
v -51.465416 -19.873552 8.815766
v -51.454811 -19.873629 8.965518
v -50.595921 -19.873365 8.785104
v -49.724525 -19.873308 8.792706
v -50.590607 -19.873381 8.935104
v -49.724514 -19.873308 8.942705
v -48.858524 -19.873255 8.938432
v -48.853176 -19.873259 8.788450
v -47.994438 -19.873003 8.965501
v -47.983742 -19.873064 8.815751
v -47.332066 -19.872519 9.040354
v -47.304699 -19.872698 8.892491
v -46.831066 -19.871801 9.169489
v -46.776974 -19.872160 9.028532
v -46.475452 -19.870966 9.354083
v -46.388367 -19.871542 9.230281
v -46.217388 -19.870291 9.592211
v -46.101295 -19.871038 9.495264
v -46.021141 -19.869925 9.900239
v -45.886311 -19.870756 9.832732
v -45.887856 -19.869780 10.252648
v -45.742710 -19.870653 10.212386
v -45.824917 -19.869810 10.599309
v -45.674442 -19.870672 10.588428
v -45.854389 -19.870138 11.426855
v -45.704624 -19.870890 11.436078
v -46.010563 -19.870779 13.200138
v -45.861324 -19.871389 13.215303
v -46.212276 -19.871458 14.945371
v -46.063278 -19.871935 14.962708
v -46.253914 -19.871645 15.300114
v -46.106346 -19.872065 15.329630
v -46.326843 -19.871912 15.555052
v -46.190212 -19.872259 15.622887
v -46.560871 -19.872240 15.866669
v -46.445400 -19.872480 15.962708
v -47.132618 -19.872488 16.487894
v -47.023548 -19.872698 16.590881
v -47.873318 -19.872751 17.252153
v -47.765591 -19.872885 17.356531
v -48.611595 -19.873018 18.014139
v -48.505863 -19.873095 18.120569
v -49.223492 -19.873220 18.599001
v -49.127392 -19.873247 18.714647
v -49.459217 -19.873270 18.742403
v -49.408825 -19.873281 18.885571
v -49.719097 -19.873308 18.802595
v -49.719101 -19.873308 18.957239
v -49.976715 -19.873354 18.750967
v -50.026562 -19.873339 18.895817
v -50.215401 -19.873404 18.598827
v -50.051502 -19.898325 18.968239
v -49.719101 -19.898306 19.034559
v -50.059818 -19.973322 18.992380
v -49.719093 -19.973307 19.060335
v -49.375240 -19.973291 18.981016
v -49.375271 -20.156179 18.981026
v -49.383633 -19.898294 18.957153
v -49.063362 -19.973269 18.791759
v -48.435463 -19.973143 18.191542
v -49.079353 -19.898272 18.772478
v -48.453018 -19.898130 18.173794
v -47.711765 -19.897955 17.408724
v -47.693913 -19.972982 17.426128
v -46.969059 -19.897795 16.642387
v -46.387741 -19.897623 16.010744
v -46.951031 -19.972830 16.659563
v -46.951382 -20.155901 16.659586
v -46.368679 -19.972658 16.026764
v -46.099422 -19.972490 15.668182
v -46.008255 -19.972326 15.349360
v -46.121979 -19.897432 15.656845
v -46.032631 -19.897264 15.344416
v -45.988857 -19.897184 14.971381
v -45.786797 -19.896696 13.222907
v -45.964272 -19.972258 14.974285
v -45.762241 -19.971800 13.225466
v -45.964790 -20.155371 14.974327
v -45.605289 -19.971384 11.442286
v -45.574688 -19.971220 10.581223
v -45.629871 -19.896261 11.440717
v -45.599339 -19.896086 10.583011
v -45.670284 -19.896078 10.192262
v -45.646526 -19.971216 10.185569
v -45.819046 -19.896170 9.798966
v -46.043434 -19.896391 9.446758
v -45.797031 -19.971292 9.787723
v -46.024555 -19.971514 9.430596
v -46.331062 -19.971914 9.147717
v -46.741653 -19.972410 8.934548
v -46.345055 -19.896822 9.168352
v -46.750156 -19.897345 8.958039
v -47.291233 -19.897802 8.818556
v -47.978577 -19.898108 8.740876
v -47.287189 -19.972834 8.793916
v -47.977322 -19.973124 8.715919
v -48.850311 -19.973272 8.688463
v -48.850677 -19.898268 8.713461
v -49.725227 -19.973307 8.692704
v -50.600182 -19.973352 8.685102
v -49.724697 -19.898306 8.717706
v -45.647621 -20.154352 10.185615
v -52.117256 -19.874125 9.040421
v -53.119118 -19.974794 9.147862
v -53.426846 -19.876970 9.900105
v -53.873787 -19.975561 10.580956
v -53.434376 -19.876055 13.199556
v -53.435120 -19.974363 15.349049
v -52.881321 -19.874468 15.866320
v -46.142300 -20.253878 9.527723
v -46.200474 -20.278521 9.576169
v -46.220268 -20.353388 9.592149
v -46.001095 -20.278177 9.889074
v -46.023983 -20.353033 9.900147
v -45.866024 -20.278063 10.246003
v -45.890602 -20.352926 10.252542
v -45.802120 -20.278124 10.597554
v -45.827549 -20.352983 10.599216
v -45.831516 -20.278463 11.428476
v -45.856754 -20.353334 11.426795
v -45.987347 -20.279081 13.202746
v -45.756538 -20.253839 11.433135
v -46.012409 -20.353975 13.200080
v -46.188652 -20.279634 14.948293
v -46.213585 -20.354559 14.945248
v -46.230419 -20.279818 15.305056
v -46.255062 -20.354738 15.299997
v -46.305058 -20.280081 15.566355
v -46.327869 -20.355013 15.555004
v -46.542522 -20.280371 15.882700
v -46.236740 -20.255251 15.600304
v -46.561779 -20.355322 15.866684
v -47.115150 -20.280600 16.505104
v -47.133305 -20.355562 16.487940
v -47.855877 -20.280790 17.269600
v -47.873741 -20.355768 17.252207
v -48.594250 -20.280970 18.031921
v -48.611729 -20.355967 18.014194
v -49.207539 -20.281134 18.618311
v -48.541424 -20.256021 18.085133
v -49.223366 -20.356115 18.599073
v -49.450844 -20.281157 18.766314
v -49.219177 -20.982523 18.599871
v -48.608482 -21.022623 18.014402
v -49.217087 -21.817202 18.600273
v -48.606861 -21.877432 18.014505
v -49.214989 -22.651896 18.600670
v -48.605240 -22.732244 18.014610
v -49.170723 -22.839594 18.431252
v -49.454384 -22.623461 18.748756
v -49.427784 -22.806631 18.596621
v -49.712509 -22.782106 18.667469
v -49.414490 -22.910547 18.359285
v -49.151157 -22.943174 18.174356
v -49.459137 -22.938009 18.037767
v -49.706425 -22.887133 18.441900
v -49.707726 -22.917055 18.114168
v -49.995499 -22.884153 18.369549
v -49.953564 -22.915503 18.046848
v -49.994129 -22.780634 18.606449
v -50.264458 -22.894571 18.174360
v -49.490044 -22.960176 17.780659
v -49.236454 -22.967348 17.869469
v -48.808578 -23.027075 17.420738
v -48.297947 -23.100615 16.860594
v -48.648323 -23.010870 17.674423
v -48.050629 -23.093920 17.051847
v -48.606083 -22.908125 17.877159
v -47.934174 -22.996111 17.172173
v -47.869667 -22.834108 17.252382
v -47.255035 -23.092897 16.464388
v -47.131676 -22.936270 16.488045
v -46.714619 -23.174353 15.874405
v -47.443439 -23.178793 16.413893
v -46.942657 -23.251009 15.863543
v -47.775677 -23.176832 16.276726
v -47.343449 -23.242704 15.763147
v -47.102928 -23.285151 15.413895
v -47.720673 -23.232470 15.694859
v -47.529633 -23.272093 15.352875
v -47.896713 -23.258165 15.329948
v -47.445435 -23.307970 15.000942
v -46.996750 -23.321905 15.062794
v -47.412811 -23.343039 14.633175
v -47.835175 -23.293142 14.976973
v -47.815338 -23.327227 14.613874
v -48.296097 -23.273409 14.972731
v -49.008327 -23.242548 14.970106
v -48.286694 -23.306692 14.613339
v -48.213905 -23.456747 13.007915
v -49.004341 -23.275358 14.613333
v -48.971142 -23.423571 13.009077
v -48.941837 -23.572611 11.393906
v -49.728382 -23.390448 13.009645
v -49.734833 -23.537909 11.394759
v -49.737793 -23.605986 10.649225
v -50.527836 -23.503359 11.393999
v -50.545006 -23.570791 10.648721
v -51.320843 -23.468904 11.392160
v -51.352219 -23.535662 10.647493
v -51.847347 -23.446024 11.390978
v -51.882885 -23.512564 10.646704
v -52.298264 -23.426252 11.391974
v -52.333916 -23.493288 10.642096
v -52.811131 -23.403414 11.396848
v -52.846989 -23.472044 10.629521
v -53.312458 -23.380972 11.402915
v -52.672089 -23.258219 13.050295
v -53.157169 -23.232756 13.097030
v -52.953506 -23.088617 14.769871
v -53.344830 -23.131819 13.148311
v -53.139999 -22.986074 14.860460
v -53.250366 -22.811087 14.938013
v -53.348122 -23.452387 10.605175
v -53.301708 -23.486166 10.258157
v -52.835716 -23.503942 10.286205
v -53.210693 -23.521414 9.916204
v -52.833298 -23.538942 9.904757
v -53.148617 -23.549547 9.638350
v -53.366486 -23.422869 9.903539
v -52.890564 -23.570841 9.528830
v -52.528618 -23.599920 9.383561
v -52.420731 -23.563032 9.838436
v -52.051605 -23.630175 9.280602
v -52.105606 -23.549135 9.124373
v -51.429008 -23.662931 9.219638
v -51.967594 -23.587599 9.786106
v -51.393436 -23.615751 9.752300
v -51.905521 -23.545370 10.277379
v -52.352592 -23.525137 10.285178
v -51.366589 -23.569647 10.269131
v -50.552982 -23.605482 10.265685
v -49.739326 -23.640890 10.266974
v -50.567715 -23.653139 9.737723
v -50.587051 -23.702005 9.194373
v -49.741425 -23.688833 9.741946
v -48.915157 -23.725153 9.739367
v -49.743576 -23.738222 9.201089
v -48.900131 -23.775408 9.197170
v -48.925674 -23.676500 10.266102
v -48.089325 -23.760027 9.752300
v -48.112038 -23.711748 10.269135
v -48.123383 -23.676634 10.647494
v -47.573059 -23.734529 10.277380
v -47.592747 -23.699881 10.646704
v -47.125931 -23.753336 10.285180
v -47.141747 -23.719999 10.642099
v -46.642765 -23.774336 10.286205
v -46.628761 -23.743532 10.629526
v -46.177010 -23.797235 10.258160
v -46.127827 -23.767641 10.605177
v -46.270737 -23.824434 9.916203
v -46.014008 -23.712088 10.248428
v -45.955708 -23.683756 10.596286
v -45.912514 -23.561869 10.242580
v -46.131145 -23.736067 9.903618
v -46.048100 -23.588419 9.889465
v -46.042068 -22.518824 9.892134
v -45.907032 -22.498888 10.245070
v -46.036041 -21.449240 9.894806
v -45.901554 -21.435911 10.247561
v -45.837376 -21.421354 10.594932
v -45.864857 -21.383028 11.422818
v -45.842297 -22.477030 10.592788
v -45.847214 -23.532694 10.590649
v -45.868916 -22.419352 11.420829
v -45.872967 -23.455675 11.418841
v -46.020054 -22.292891 13.194297
v -46.022606 -23.286852 13.192370
v -46.216797 -22.166872 14.939358
v -46.017506 -21.298933 13.196224
v -46.215721 -21.215109 14.941321
v -46.256306 -21.198011 15.296532
v -46.328815 -21.184549 15.554071
v -46.256927 -22.141123 15.294794
v -46.257553 -23.084249 15.293060
v -46.329292 -22.120798 15.553606
v -46.329765 -23.057051 15.553141
v -46.562157 -22.091635 15.866405
v -46.562279 -23.018064 15.866312
v -46.562027 -21.165209 15.866499
v -47.132080 -22.030352 16.488016
v -47.870678 -21.953783 17.252338
v -47.132492 -21.124437 16.487991
v -47.871708 -21.073454 17.252296
v -46.461525 -23.213671 15.535717
v -46.365852 -23.245363 15.228302
v -46.664204 -23.296072 15.503792
v -46.543777 -23.333673 15.150235
v -46.489220 -23.370852 14.769873
v -46.298904 -23.532209 13.097032
v -46.950935 -23.358061 14.689451
v -46.318550 -23.281298 14.859653
v -46.217865 -23.118635 14.937395
v -46.127628 -23.444078 13.147825
v -45.982780 -23.608355 11.411202
v -46.157139 -23.693380 11.402916
v -46.658516 -23.672045 11.396850
v -47.171425 -23.650087 11.391974
v -46.784370 -23.515280 13.050297
v -47.277603 -23.496748 13.017601
v -47.710213 -23.478804 13.007126
v -47.622345 -23.630495 11.390979
v -48.148842 -23.607397 11.392161
v -48.930584 -23.641279 10.648659
v -47.997658 -20.355967 8.965255
v -50.788689 -23.063200 16.080868
v -50.515381 -23.031790 16.554661
v -50.253014 -23.088099 16.064352
v -50.117081 -23.050798 16.536978
v -49.984791 -23.013182 17.011211
v -49.714264 -23.066820 16.554062
v -49.311634 -23.085688 16.539997
v -50.246666 -23.002409 17.004009
v -50.739262 -23.016787 16.611856
vn -0.0434 -0.9949 0.0910
vn -0.0435 -0.9949 0.0910
vn -0.0449 -0.9948 0.0915
vn -0.0548 -0.9942 0.0923
vn -0.0516 -0.9944 0.0924
vn -0.0530 -0.9943 0.0927
vn -0.0565 -0.9937 0.0972
vn -0.0615 -0.9938 0.0929
vn -0.0595 -0.9939 0.0930
vn -0.0469 -0.9944 0.0948
vn -0.0436 -0.9942 0.0984
vn -0.0435 -0.9941 0.0997
vn -0.0435 -0.9948 0.0918
vn -0.0303 -0.9948 0.0971
vn -0.0400 -0.9947 0.0947
vn -0.0254 -0.9954 0.0928
vn -0.0274 -0.9953 0.0930
vn -0.0338 -0.9951 0.0927
vn -0.0320 -0.9952 0.0922
vn -0.0352 -0.9951 0.0924
vn -0.0420 -0.9949 0.0915
vn -0.0350 -0.9951 0.0926
vn -0.0295 -0.9952 0.0929
vn -0.1734 -0.9546 0.2420
vn -0.1946 -0.9521 0.2360
vn -0.1968 -0.9514 0.2368
vn -0.1946 -0.9526 0.2337
vn -0.1946 -0.9556 0.2212
vn -0.2380 -0.9623 0.1317
vn -0.2432 -0.9633 0.1140
vn -0.2194 -0.9574 0.1879
vn -0.4940 -0.7394 0.4575
vn -0.5566 -0.7576 0.3410
vn -0.6129 -0.7662 0.1930
vn -0.7316 -0.2892 0.6173
vn -0.8488 -0.3031 0.4332
vn -0.9249 -0.3114 0.2181
vn -0.8958 0.0043 0.4444
vn -0.7682 0.0037 0.6401
vn -0.9805 0.0047 0.1963
vn -0.9804 0.0082 0.1967
vn -0.8956 0.0075 0.4448
vn -0.7683 0.0066 0.6401
vn -0.9930 0.0051 0.1178
vn -0.9427 -0.3026 0.1406
vn -0.9930 0.0088 0.1174
vn -0.8837 -0.1584 0.4404
vn -0.9686 -0.1539 0.1952
vn -0.9816 -0.1515 0.1158
vn -0.9834 -0.1506 0.1016
vn -0.9946 0.0100 0.1034
vn -0.9945 0.0060 0.1043
vn -0.9868 -0.1496 0.0624
vn -0.9979 0.0114 0.0635
vn -0.9979 0.0070 0.0642
vn -0.9458 -0.2993 0.1263
vn -0.9499 -0.2999 0.0884
vn -0.9974 0.0122 -0.0709
vn -0.9975 0.0077 -0.0707
vn -0.9550 -0.2941 -0.0386
vn -0.6428 -0.7544 0.1328
vn -0.6492 -0.7528 0.1091
vn -0.6647 -0.7466 0.0271
vn -0.9333 -0.2825 -0.2219
vn -0.6759 -0.7304 -0.0985
vn -0.9637 0.0079 -0.2669
vn -0.8879 -0.2348 -0.3957
vn -0.7164 -0.6611 -0.2230
vn -0.8942 0.0078 -0.4477
vn -0.9637 0.0124 -0.2668
vn -0.8942 0.0121 -0.4475
vn -0.7673 0.0113 -0.6412
vn -0.7671 0.0073 -0.6415
vn -0.7666 -0.1895 -0.6135
vn -0.5747 0.0097 -0.8183
vn -0.5743 0.0063 -0.8186
vn -0.5614 -0.2217 -0.7973
vn -0.6604 -0.5863 -0.4691
vn -0.4297 -0.6460 -0.6310
vn -0.3600 -0.2741 -0.8918
vn -0.2758 -0.7249 -0.6312
vn -0.3573 0.0050 -0.9340
vn -0.1905 -0.2903 -0.9378
vn -0.1544 -0.7498 -0.6435
vn -0.1813 0.0039 -0.9834
vn -0.3576 0.0077 -0.9338
vn -0.1815 0.0059 -0.9834
vn -0.0738 0.0048 -0.9973
vn -0.0737 0.0031 -0.9973
vn -0.0854 -0.2990 -0.9504
vn -0.0132 0.0041 -0.9999
vn -0.0131 0.0027 -0.9999
vn -0.0264 -0.3034 -0.9525
vn -0.0821 -0.7611 -0.6434
vn -0.0417 -0.7661 -0.6414
vn -0.0114 -0.3054 -0.9521
vn -0.0323 -0.7685 -0.6390
vn 0.0020 0.0026 -1.0000
vn 0.0133 0.0025 -0.9999
vn -0.0004 -0.3041 -0.9526
vn -0.0245 -0.7660 -0.6424
vn 0.0160 -0.7610 -0.6485
vn 0.0571 -0.3006 -0.9520
vn 0.0719 0.0020 -0.9974
vn 0.0718 0.0030 -0.9974
vn 0.0132 0.0037 -0.9999
vn 0.0020 0.0038 -1.0000
vn 0.1812 0.0019 -0.9834
vn 0.1812 0.0013 -0.9834
vn 0.1648 -0.2930 -0.9418
vn 0.3569 -0.0000 -0.9342
vn 0.3368 -0.2763 -0.9001
vn 0.3569 0.0001 -0.9341
vn 0.2226 -0.7240 -0.6528
vn 0.0929 -0.7501 -0.6547
vn 0.0551 -0.9771 -0.2056
vn 0.0033 -0.9813 -0.1924
vn -0.0251 -0.9827 -0.1836
vn 0.1221 -0.9642 -0.2356
vn 0.3924 -0.6358 -0.6647
vn 0.3060 -0.9237 -0.2305
vn 0.2753 -0.9612 -0.0194
vn 0.6493 -0.5657 -0.5083
vn 0.7577 -0.1774 -0.6281
vn 0.5446 -0.2194 -0.8095
vn 0.5732 -0.0015 -0.8194
vn 0.7655 -0.0030 -0.6435
vn 0.5736 -0.0023 -0.8192
vn 0.7660 -0.0044 -0.6428
vn 0.5668 -0.1661 -0.8069
vn 0.7562 -0.1681 -0.6323
vn 0.3531 -0.1631 -0.9213
vn 0.1794 -0.1599 -0.9707
vn 0.2471 -0.7258 -0.6420
vn 0.3938 -0.7303 -0.5583
vn 0.1271 -0.7178 -0.6846
vn 0.0283 -0.9884 -0.1491
vn 0.0533 -0.9893 -0.1357
vn 0.0828 -0.9899 -0.1155
vn 0.0306 -0.9862 -0.1626
vn 0.0610 -0.9858 -0.1566
vn 0.0976 -0.9857 -0.1371
vn 0.0115 -0.9878 -0.1552
vn 0.0120 -0.9865 -0.1631
vn 0.0508 -0.7127 -0.6997
vn 0.0022 -0.9874 -0.1583
vn 0.0022 -0.9868 -0.1618
vn 0.0094 -0.7090 -0.7052
vn 0.0003 -0.9872 -0.1596
vn 0.0003 -0.9870 -0.1610
vn 0.0014 -0.7052 -0.7090
vn 0.0019 -0.1564 -0.9877
vn 0.0131 -0.1570 -0.9875
vn 0.0711 -0.1581 -0.9849
vn -0.0092 -0.7093 -0.7048
vn -0.0020 -0.9874 -0.1582
vn -0.0129 -0.1567 -0.9876
vn -0.0727 -0.1564 -0.9850
vn -0.0515 -0.7116 -0.7007
vn -0.1789 -0.1560 -0.9714
vn -0.1259 -0.7159 -0.6868
vn -0.0272 -0.9880 -0.1519
vn -0.0112 -0.9876 -0.1564
vn -0.0119 -0.9864 -0.1640
vn -0.0020 -0.9867 -0.1625
vn -0.0299 -0.9858 -0.1654
vn -0.0526 -0.9886 -0.1412
vn -0.0609 -0.9849 -0.1619
vn -0.2461 -0.7223 -0.6463
vn -0.0848 -0.9887 -0.1235
vn -0.1001 -0.9844 -0.1446
vn -0.3948 -0.7248 -0.5646
vn -0.3527 -0.1555 -0.9227
vn -0.5674 -0.1541 -0.8089
vn -0.7583 -0.1524 -0.6339
vn -0.5293 -0.7234 -0.4434
vn -0.8841 -0.1507 -0.4423
vn -0.6220 -0.7183 -0.3115
vn -0.1385 -0.9879 -0.0699
vn -0.1155 -0.9885 -0.0980
vn -0.1566 -0.9845 -0.0788
vn -0.1350 -0.9843 -0.1140
vn -0.1511 -0.9876 -0.0418
vn -0.1682 -0.9846 -0.0465
vn -0.6727 -0.7162 -0.1859
vn -0.1544 -0.9880 -0.0107
vn -0.1754 -0.9844 -0.0123
vn -0.6931 -0.7192 -0.0490
vn -0.9529 -0.1500 -0.2636
vn -0.9861 -0.1508 -0.0700
vn -0.7062 -0.7066 0.0447
vn -0.7051 -0.7054 0.0729
vn -0.1624 -0.9866 0.0170
vn -0.1627 -0.9866 0.0106
vn -0.1650 -0.9861 0.0173
vn -0.1677 -0.9858 0.0108
vn -0.1625 -0.9865 0.0195
vn -0.1626 -0.9865 0.0194
vn -0.7052 -0.7041 0.0833
vn -0.1515 -0.9880 0.0312
vn -0.1671 -0.9853 0.0342
vn -0.6834 -0.7168 0.1384
vn -0.6063 -0.7352 0.3030
vn -0.1270 -0.9898 0.0641
vn -0.7589 -0.1548 0.6326
vn -0.5387 -0.7126 0.4495
vn -0.1203 -0.9876 0.1008
vn -0.1163 -0.9871 0.1103
vn -0.5134 -0.7073 0.4859
vn -0.7176 -0.1546 0.6791
vn -0.1279 -0.9860 0.1071
vn -0.1590 -0.9840 0.0798
vn -0.1182 -0.9867 0.1120
vn -0.1156 -0.9869 0.1124
vn -0.1155 -0.9869 0.1123
vn -0.5083 -0.7057 0.4935
vn -0.1118 -0.9873 0.1129
vn -0.1144 -0.9867 0.1155
vn -0.4967 -0.7088 0.5010
vn -0.7088 -0.1550 0.6882
vn -0.6954 -0.1559 0.7015
vn -0.7039 0.0047 0.7103
vn -0.7172 0.0053 0.6968
vn -0.7261 0.0060 0.6876
vn -0.7258 0.0033 0.6879
vn -0.7169 0.0029 0.6972
vn -0.6902 -0.2795 0.6675
vn -0.6825 -0.2765 0.6766
vn -0.4785 -0.7273 0.4920
vn -0.4809 -0.7195 0.5010
vn -0.4779 -0.7169 0.5076
vn -0.6724 -0.2642 0.6914
vn -0.4187 -0.7290 0.5415
vn -0.5782 -0.2793 0.7666
vn -0.7037 0.0026 0.7105
vn -0.6176 0.0023 0.7865
vn -0.6174 0.0043 0.7867
vn -0.3754 0.0024 0.9269
vn -0.3746 0.0045 0.9272
vn -0.3469 -0.3040 0.8873
vn 0.0011 -0.3132 0.9497
vn 0.0160 0.0025 0.9999
vn 0.0156 0.0046 0.9999
vn 0.3821 0.0022 0.9241
vn 0.3803 0.0041 0.9248
vn 0.3311 -0.3056 0.8927
vn 0.3742 -0.1605 0.9134
vn 0.0153 -0.1641 0.9863
vn -0.3697 -0.1619 0.9149
vn 0.2574 -0.7320 0.6308
vn 0.0101 -0.7442 0.6679
vn -0.2523 -0.7376 0.6263
vn -0.6090 -0.1578 0.7773
vn -0.4275 -0.7206 0.5458
vn -0.0513 -0.9903 0.1295
vn -0.0930 -0.9886 0.1184
vn 0.0018 -0.9908 0.1351
vn -0.0664 -0.9845 0.1623
vn -0.1044 -0.9855 0.1340
vn 0.0030 -0.9844 0.1760
vn -0.4440 -0.6936 0.5672
vn -0.5001 -0.7040 0.5043
vn -0.2714 -0.6859 0.6752
vn -0.6089 -0.1586 0.7773
vn -0.6952 -0.1593 0.7009
vn -0.3668 -0.1601 0.9164
vn 0.0110 -0.6848 0.7287
vn 0.0144 -0.1613 0.9868
vn 0.3711 -0.1593 0.9148
vn 0.2737 -0.6875 0.6726
vn 0.0665 -0.9847 0.1610
vn 0.0534 -0.9897 0.1325
vn 0.0911 -0.9888 0.1180
vn 0.1034 -0.9854 0.1356
vn 0.4390 -0.6925 0.5725
vn 0.1139 -0.9869 0.1145
vn 0.5000 -0.7048 0.5032
vn 0.1113 -0.9875 0.1118
vn 0.6011 -0.1589 0.7832
vn 0.6957 -0.1604 0.7002
vn 0.7088 -0.1611 0.6867
vn 0.5074 -0.7078 0.4915
vn 0.1145 -0.9872 0.1107
vn 0.7176 -0.1613 0.6776
vn 0.5148 -0.7062 0.4860
vn 0.1166 -0.9871 0.1098
vn 0.1148 -0.9875 0.1081
vn 0.1146 -0.9872 0.1108
vn 0.1182 -0.9882 0.0978
vn 0.1257 -0.9866 0.1041
vn 0.5479 -0.7016 0.4556
vn 0.1235 -0.9905 0.0606
vn 0.1554 -0.9849 0.0767
vn 0.6506 -0.6872 0.3231
vn 0.7587 -0.1613 0.6312
vn 0.8837 -0.1620 0.4391
vn 0.9676 -0.1621 0.1937
vn 0.7018 -0.6985 0.1402
vn 0.1619 -0.9863 0.0319
vn 0.9800 -0.1634 0.1140
vn 0.7001 -0.7094 0.0812
vn 0.1560 -0.9876 0.0178
vn 0.1463 -0.9888 0.0287
vn 0.1541 -0.9879 0.0154
vn 0.1567 -0.9875 0.0157
vn 0.7025 -0.7081 0.0712
vn 0.1524 -0.9883 0.0091
vn 0.1575 -0.9875 0.0094
vn 0.7060 -0.7069 0.0433
vn 0.9814 -0.1640 0.0997
vn 0.9845 -0.1647 0.0607
vn 0.9838 -0.1647 -0.0711
vn 0.7150 -0.6972 -0.0518
vn 0.1641 -0.9864 -0.0121
vn 0.9504 -0.1649 -0.2637
vn 0.6889 -0.6992 -0.1912
vn 0.1570 -0.9866 -0.0436
vn 0.1397 -0.9894 -0.0387
vn 0.1428 -0.9897 -0.0105
vn 0.1288 -0.9896 -0.0640
vn 0.1469 -0.9864 -0.0732
vn 0.6406 -0.6976 -0.3208
vn 0.1092 -0.9899 -0.0899
vn 0.1286 -0.9860 -0.1064
vn 0.5523 -0.6943 -0.4614
vn 0.8819 -0.1646 -0.4418
vn 0.7568 -0.1641 -0.6327
vn 0.5669 -0.1631 -0.8075
vn 0.4145 -0.6932 -0.5897
vn 0.3529 -0.1618 -0.9216
vn 0.2576 -0.6945 -0.6718
vn 0.1791 -0.1607 -0.9706
vn 0.1300 -0.6988 -0.7034
vn 0.0710 -0.1602 -0.9845
vn 0.0513 -0.7020 -0.7103
vn 0.0094 -0.7047 -0.7094
vn 0.0132 -0.1600 -0.9870
vn 0.0014 -0.7080 -0.7062
vn 0.0019 -0.1603 -0.9871
vn -0.0094 -0.7039 -0.7102
vn -0.0132 -0.1598 -0.9871
vn -0.0525 -0.7014 -0.7108
vn -0.0729 -0.1591 -0.9846
vn -0.1791 -0.1581 -0.9710
vn -0.1299 -0.6968 -0.7054
vn -0.3532 -0.1568 -0.9223
vn -0.2582 -0.6908 -0.6753
vn -0.5679 -0.1554 -0.8083
vn -0.4170 -0.6877 -0.5943
vn -0.7584 -0.1543 -0.6333
vn -0.5573 -0.6874 -0.4657
vn -0.8838 -0.1535 -0.4419
vn -0.6475 -0.6898 -0.3239
vn -0.9525 -0.1533 -0.2633
vn -0.6968 -0.6910 -0.1926
vn -0.9857 -0.1534 -0.0701
vn -0.7228 -0.6891 -0.0513
vn -0.9861 -0.1544 0.0620
vn -0.7130 -0.6997 0.0450
vn -0.9826 -0.1556 0.1012
vn -0.7084 -0.7020 0.0731
vn -0.9809 -0.1567 0.1154
vn -0.7049 -0.7044 0.0832
vn -0.9682 -0.1565 0.1951
vn -0.7054 -0.6944 0.1424
vn -0.8839 -0.1573 0.4405
vn -0.6529 -0.6839 0.3256
vn -0.5492 -0.6990 0.4580
vn -0.7586 -0.1577 0.6322
vn -0.7173 -0.1586 0.6784
vn -0.5157 -0.7043 0.4879
vn -0.7085 -0.1592 0.6875
vn -0.5078 -0.7065 0.4930
vn -0.7083 0.1612 0.6872
vn -0.7171 0.1614 0.6781
vn -0.6951 0.1605 0.7007
vn -0.6089 0.1591 0.7772
vn -0.4439 0.6940 0.5668
vn -0.4996 0.7049 0.5035
vn -0.5071 0.7078 0.4918
vn -0.1042 0.9856 0.1334
vn -0.1138 0.9869 0.1145
vn -0.1144 0.9872 0.1107
vn 0.0005 1.0000 -0.0009
vn 0.0003 1.0000 -0.0006
vn -0.0000 1.0000 -0.0003
vn 0.0008 1.0000 -0.0012
vn -0.1165 0.9871 0.1098
vn -0.5145 0.7063 0.4863
vn 0.0012 1.0000 -0.0016
vn -0.1255 0.9866 0.1040
vn -0.5475 0.7017 0.4559
vn -0.7582 0.1614 0.6317
vn -0.8833 0.1621 0.4400
vn -0.6502 0.6874 0.3237
vn -0.1552 0.9849 0.0766
vn -0.9673 0.1623 0.1948
vn -0.7015 0.6986 0.1410
vn -0.1617 0.9863 0.0320
vn 0.0019 1.0000 -0.0018
vn 0.0028 1.0000 -0.0012
vn 0.0035 1.0000 -0.0008
vn -0.1557 0.9876 0.0179
vn -0.6999 0.7096 0.0820
vn 0.0044 1.0000 -0.0008
vn -0.1563 0.9876 0.0157
vn -0.7022 0.7083 0.0720
vn -0.9798 0.1636 0.1152
vn -0.9812 0.1644 0.1009
vn -0.9843 0.1652 0.0618
vn -0.7056 0.7072 0.0441
vn -0.1571 0.9875 0.0096
vn -0.9838 0.1652 -0.0701
vn -0.7148 0.6975 -0.0510
vn -0.1637 0.9864 -0.0118
vn 0.0060 1.0000 0.0002
vn 0.0054 1.0000 -0.0007
vn 0.0059 1.0000 0.0018
vn -0.1567 0.9867 -0.0432
vn -0.6888 0.6995 -0.1904
vn 0.0049 1.0000 0.0032
vn -0.1468 0.9865 -0.0728
vn -0.6406 0.6979 -0.3201
vn -0.9506 0.1653 -0.2628
vn -0.8822 0.1650 -0.4410
vn -0.7572 0.1644 -0.6321
vn -0.5525 0.6945 -0.4608
vn -0.1287 0.9860 -0.1060
vn -0.5673 0.1633 -0.8071
vn -0.4148 0.6933 -0.5893
vn -0.0978 0.9858 -0.1367
vn 0.0009 1.0000 0.0043
vn 0.0031 1.0000 0.0043
vn -0.0004 1.0000 0.0030
vn -0.0612 0.9858 -0.1562
vn -0.2578 0.6946 -0.6716
vn -0.0007 1.0000 0.0016
vn -0.0308 0.9863 -0.1624
vn -0.1301 0.6989 -0.7033
vn -0.3531 0.1619 -0.9215
vn -0.1792 0.1608 -0.9706
vn -0.0729 0.1602 -0.9844
vn -0.0527 0.7023 -0.7099
vn -0.0124 0.9866 -0.1627
vn -0.0022 0.9868 -0.1620
vn -0.0095 0.7042 -0.7099
vn -0.0132 0.1600 -0.9870
vn -0.0004 1.0000 0.0006
vn -0.0002 1.0000 0.0002
vn 0.0002 0.9872 -0.1595
vn 0.0013 0.7080 -0.7062
vn -0.0001 1.0000 -0.0000
vn -0.0002 1.0000 -0.0001
vn 0.0020 0.9868 -0.1621
vn -0.0004 1.0000 -0.0006
vn 0.0115 0.9864 -0.1642
vn -0.0006 1.0000 -0.0015
vn 0.0298 0.9858 -0.1655
vn -0.0004 1.0000 -0.0028
vn 0.0607 0.9849 -0.1618
vn 0.0009 1.0000 -0.0039
vn 0.0998 0.9845 -0.1444
vn 0.0029 1.0000 -0.0039
vn 0.1346 0.9844 -0.1137
vn 0.0046 1.0000 -0.0029
vn 0.1561 0.9846 -0.0787
vn 0.0055 1.0000 -0.0016
vn 0.1677 0.9847 -0.0466
vn 0.0055 1.0000 -0.0002
vn 0.1748 0.9845 -0.0125
vn 0.0049 1.0000 0.0006
vn 0.1672 0.9859 0.0106
vn 0.0040 1.0000 0.0007
vn 0.1647 0.9862 0.0171
vn 0.0032 1.0000 0.0008
vn 0.1624 0.9865 0.0193
vn 0.0025 1.0000 0.0011
vn 0.1669 0.9854 0.0339
vn 0.0017 1.0000 0.0016
vn 0.1589 0.9841 0.0796
vn 0.0011 1.0000 0.0015
vn 0.1279 0.9860 0.1069
vn 0.0008 1.0000 0.0011
vn 0.1182 0.9867 0.1119
vn 0.0005 1.0000 0.0008
vn 0.1155 0.9869 0.1122
vn 0.0002 1.0000 0.0005
vn 0.1144 0.9867 0.1155
vn -0.0000 1.0000 0.0003
vn 0.1036 0.9853 0.1361
vn 0.0665 0.9847 0.1612
vn -0.0001 1.0000 0.0001
vn 0.0030 0.9844 0.1760
vn -0.0001 1.0000 -0.0001
vn -0.0664 0.9845 0.1620
vn -0.2713 0.6861 0.6750
vn 0.0110 0.6848 0.7286
vn -0.3668 0.1602 0.9164
vn 0.0144 0.1614 0.9868
vn 0.3711 0.1592 0.9148
vn 0.2737 0.6874 0.6727
vn 0.6011 0.1585 0.7833
vn 0.4391 0.6921 0.5729
vn 0.6957 0.1594 0.7004
vn 0.5004 0.7040 0.5039
vn 0.5082 0.7065 0.4926
vn 0.7090 0.1593 0.6870
vn 0.7178 0.1587 0.6779
vn 0.5160 0.7043 0.4875
vn 0.5495 0.6990 0.4575
vn 0.7590 0.1578 0.6316
vn 0.8843 0.1575 0.4396
vn 0.6531 0.6840 0.3249
vn 0.9684 0.1567 0.1940
vn 0.7054 0.6946 0.1415
vn 0.9810 0.1570 0.1142
vn 0.7048 0.7046 0.0823
vn 0.7082 0.7023 0.0723
vn 0.9827 0.1559 0.1000
vn 0.9861 0.1549 0.0609
vn 0.7128 0.7000 0.0442
vn 0.9855 0.1539 -0.0711
vn 0.7224 0.6895 -0.0520
vn 0.6962 0.6913 -0.1932
vn 0.9521 0.1538 -0.2642
vn 0.8834 0.1540 -0.4426
vn 0.6469 0.6901 -0.3243
vn 0.5567 0.6877 -0.4659
vn 0.7579 0.1547 -0.6338
vn 0.5675 0.1557 -0.8085
vn 0.4166 0.6879 -0.5943
vn 0.3530 0.1569 -0.9224
vn 0.2580 0.6909 -0.6753
vn 0.1791 0.1582 -0.9710
vn 0.1298 0.6968 -0.7054
vn 0.0511 0.7012 -0.7112
vn 0.0710 0.1592 -0.9847
vn 0.0131 0.1598 -0.9871
vn 0.0094 0.7045 -0.7097
vn 0.0019 0.1603 -0.9871
vn 0.6147 -0.7264 -0.3074
vn 0.5247 -0.7304 -0.4373
vn 0.8811 -0.1685 -0.4419
vn 0.9496 -0.1687 -0.2642
vn 0.6640 -0.7247 -0.1842
vn 0.9829 -0.1694 -0.0717
vn 0.6844 -0.7274 -0.0497
vn 0.9842 -0.1664 0.0601
vn 0.6989 -0.7140 0.0428
vn 0.9813 -0.1647 0.0992
vn 0.6991 -0.7115 0.0708
vn 0.9801 -0.1628 0.1132
vn 0.7005 -0.7090 0.0811
vn 0.9675 -0.1638 0.1925
vn 0.6797 -0.7209 0.1354
vn 0.8834 -0.1670 0.4378
vn 0.6040 -0.7386 0.2994
vn 0.7591 -0.1616 0.6306
vn 0.5375 -0.7152 0.4467
vn 0.7180 -0.1600 0.6774
vn 0.5126 -0.7093 0.4838
vn 0.7093 -0.1588 0.6867
vn 0.5079 -0.7071 0.4919
vn 0.6962 -0.1581 0.7002
vn 0.4967 -0.7096 0.4998
vn 0.6015 -0.1588 0.7830
vn 0.4209 -0.7225 0.5484
vn 0.6109 0.0034 0.7917
vn 0.7056 0.0026 0.7086
vn 0.6121 0.0019 0.7908
vn 0.7061 0.0014 0.7081
vn 0.5570 -0.2766 0.7831
vn 0.6659 -0.2551 0.7011
vn 0.3760 -0.7321 0.5680
vn 0.4465 -0.7186 0.5332
vn 0.2029 -0.7621 0.6148
vn -0.0216 -0.7730 0.6341
vn -0.0373 -0.9589 0.2812
vn 0.0350 -0.9633 0.2661
vn 0.1002 -0.9623 0.2528
vn -0.0574 -0.9940 0.0929
vn -0.0518 -0.9944 0.0926
vn -0.1159 -0.9577 0.2633
vn -0.2560 -0.7576 0.6004
vn 0.1259 -0.9603 0.2489
vn 0.1305 -0.9589 0.2520
vn 0.4503 -0.7206 0.5272
vn 0.6744 -0.2733 0.6859
vn 0.1298 -0.9594 0.2503
vn 0.4475 -0.7289 0.5182
vn 0.6809 -0.2811 0.6763
vn 0.4634 -0.7437 0.4818
vn 0.7231 -0.2934 0.6254
vn 0.1308 -0.9625 0.2376
vn 0.1597 -0.9666 0.2007
vn -0.2554 -0.9614 0.1021
vn -0.2693 -0.9602 0.0747
vn -0.2499 -0.9621 0.1095
vn -0.6343 -0.7593 0.1453
vn -0.2805 -0.9594 0.0305
vn -0.3151 -0.9491 -0.0050
vn -0.1928 -0.9585 -0.2100
vn -0.3454 -0.9143 -0.2114
vn -0.1329 -0.9727 -0.1903
vn -0.0860 -0.9792 -0.1839
vn -0.0600 -0.9820 -0.1791
vn -0.0425 -0.9840 -0.1728
vn -0.0456 -0.9833 -0.1764
vn -0.0398 -0.9833 -0.1773
vn 0.2334 -0.9722 0.0211
vn 0.2200 -0.9728 0.0719
vn 0.6706 -0.7326 -0.1167
vn 0.6578 -0.7530 0.0192
vn 0.7194 -0.6484 -0.2489
vn 0.9294 -0.2866 -0.2326
vn 0.9524 -0.3014 -0.0459
vn 0.8839 -0.2292 -0.4077
vn 0.8926 -0.0039 -0.4509
vn 0.9626 -0.0043 -0.2711
vn 0.8931 -0.0057 -0.4498
vn 0.9629 -0.0064 -0.2697
vn 0.9972 -0.0066 -0.0742
vn 0.9971 -0.0044 -0.0756
vn 0.9983 -0.0039 0.0588
vn 0.9982 -0.0059 0.0599
vn 0.9485 -0.3056 0.0835
vn 0.9451 -0.3030 0.1222
vn 0.9951 -0.0027 0.0987
vn 0.9950 -0.0042 0.0997
vn 0.9424 -0.3050 0.1372
vn 0.9937 -0.0016 0.1122
vn 0.9935 -0.0025 0.1135
vn 0.9811 -0.0016 0.1933
vn 0.9815 -0.0010 0.1914
vn 0.8968 -0.0011 0.4424
vn 0.8977 -0.0007 0.4407
vn 0.9225 -0.3178 0.2190
vn 0.8434 -0.3111 0.4380
vn 0.7706 -0.0002 0.6373
vn 0.7699 -0.0003 0.6382
vn 0.7282 0.0003 0.6854
vn 0.7277 0.0006 0.6858
vn 0.7192 0.0009 0.6948
vn 0.7188 0.0015 0.6952
vn 0.5324 -0.7670 0.3580
vn 0.5983 -0.7757 0.2008
vn 0.1818 -0.9737 0.1371
vn 0.1885 -0.9751 0.1171
vn 0.6246 -0.7667 0.1483
vn 0.1969 -0.9740 0.1119
vn 0.6345 -0.7612 0.1341
vn 0.6416 -0.7594 0.1082
vn 0.2038 -0.9735 0.1034
vt 0.786118 0.030812
vt 0.788067 0.030811
vt 0.787931 0.031711
vt 0.786118 0.031713
vt 0.784305 0.031708
vt 0.784169 0.030810
vt 0.786118 0.032911
vt 0.784605 0.032896
vt 0.787631 0.032903
vt 0.790015 0.030815
vt 0.789743 0.031726
vt 0.789140 0.032945
vt 0.790844 0.031760
vt 0.790025 0.033041
vt 0.791249 0.030823
vt 0.788377 0.034283
vt 0.787253 0.034239
vt 0.789009 0.034446
vt 0.791741 0.031854
vt 0.790732 0.033219
vt 0.789500 0.034738
vt 0.788297 0.036168
vt 0.788014 0.035757
vt 0.787624 0.035549
vt 0.787160 0.036796
vt 0.787134 0.036388
vt 0.787280 0.037302
vt 0.786614 0.036561
vt 0.786672 0.037188
vt 0.786732 0.037733
vt 0.786884 0.035575
vt 0.786117 0.036651
vt 0.786117 0.035685
vt 0.786117 0.037364
vt 0.785622 0.036569
vt 0.785349 0.035567
vt 0.785570 0.037210
vt 0.786116 0.037927
vt 0.785511 0.037756
vt 0.784953 0.037302
vt 0.785074 0.036796
vt 0.785100 0.036388
vt 0.784220 0.035756
vt 0.783936 0.036167
vt 0.784610 0.035548
vt 0.784791 0.037985
vt 0.783574 0.036730
vt 0.785430 0.038481
vt 0.783226 0.034444
vt 0.782735 0.034736
vt 0.782127 0.035149
vt 0.784563 0.038846
vt 0.783128 0.037451
vt 0.781432 0.035691
vt 0.780651 0.033497
vt 0.779714 0.033883
vt 0.781504 0.033216
vt 0.779433 0.032042
vt 0.778305 0.032320
vt 0.780494 0.031852
vt 0.782210 0.033039
vt 0.781392 0.031758
vt 0.779955 0.030884
vt 0.780987 0.030821
vt 0.778757 0.031054
vt 0.783095 0.032944
vt 0.782492 0.031724
vt 0.782222 0.030813
vt 0.782108 0.029812
vt 0.780811 0.029823
vt 0.779715 0.029890
vt 0.784113 0.029805
vt 0.786118 0.029805
vt 0.784098 0.028797
vt 0.786119 0.028799
vt 0.782078 0.028797
vt 0.786120 0.024268
vt 0.783987 0.024266
vt 0.781854 0.024262
vt 0.780435 0.024260
vt 0.780751 0.028798
vt 0.779217 0.024289
vt 0.779618 0.028852
vt 0.778318 0.029012
vt 0.777827 0.024381
vt 0.778454 0.030064
vt 0.777182 0.030312
vt 0.777018 0.029243
vt 0.777527 0.031304
vt 0.777569 0.032398
vt 0.776861 0.031436
vt 0.776582 0.030573
vt 0.776915 0.032554
vt 0.776261 0.031611
vt 0.776029 0.030856
vt 0.486355 0.930361
vt 0.486558 0.933107
vt 0.485312 0.933140
vt 0.485101 0.930410
vt 0.487215 0.930351
vt 0.487414 0.933112
vt 0.487016 0.927583
vt 0.486150 0.927608
vt 0.484886 0.927676
vt 0.488360 0.930349
vt 0.488551 0.933134
vt 0.488171 0.927563
vt 0.485974 0.925427
vt 0.486865 0.925374
vt 0.488038 0.925313
vt 0.493652 0.924995
vt 0.493810 0.927476
vt 0.493988 0.930375
vt 0.499339 0.924670
vt 0.499524 0.927394
vt 0.499689 0.930418
vt 0.494165 0.933279
vt 0.499849 0.933446
vt 0.502200 0.927364
vt 0.502341 0.930458
vt 0.502477 0.933550
vt 0.775867 0.024686
vt 0.775308 0.024874
vt 0.774871 0.019845
vt 0.775442 0.019769
vt 0.774800 0.017473
vt 0.775369 0.017456
vt 0.774971 0.016445
vt 0.775527 0.016470
vt 0.503472 0.930490
vt 0.503594 0.933611
vt 0.775335 0.015392
vt 0.775846 0.015484
vt 0.504678 0.930533
vt 0.504785 0.933686
vt 0.503344 0.927363
vt 0.504566 0.927373
vt 0.505751 0.927391
vt 0.505846 0.930581
vt 0.505937 0.933764
vt 0.506889 0.927408
vt 0.506968 0.930627
vt 0.507044 0.933838
vt 0.775867 0.014403
vt 0.776230 0.014625
vt 0.776718 0.013686
vt 0.777032 0.014055
vt 0.777791 0.013155
vt 0.778048 0.013590
vt 0.508247 0.930674
vt 0.508306 0.933911
vt 0.779252 0.012775
vt 0.779439 0.013252
vt 0.509899 0.930725
vt 0.509939 0.933989
vt 0.508186 0.927430
vt 0.509858 0.927459
vt 0.512006 0.927497
vt 0.512028 0.930786
vt 0.512049 0.934078
vt 0.514785 0.927544
vt 0.514790 0.930862
vt 0.514795 0.934185
vt 0.781154 0.012556
vt 0.781265 0.013052
vt 0.783609 0.012467
vt 0.783678 0.012970
vt 0.786059 0.012483
vt 0.786094 0.012985
vt 0.517556 0.930936
vt 0.517549 0.934287
vt 0.520321 0.931014
vt 0.520300 0.934396
vt 0.788508 0.012476
vt 0.788510 0.012979
vt 0.790922 0.013055
vt 0.790962 0.012556
vt 0.523081 0.931092
vt 0.523042 0.934504
vt 0.523117 0.927683
vt 0.520339 0.927637
vt 0.517562 0.927589
vt 0.525266 0.927714
vt 0.525208 0.931150
vt 0.525149 0.934582
vt 0.526860 0.931185
vt 0.526781 0.934631
vt 0.526938 0.927737
vt 0.792862 0.012773
vt 0.794323 0.013149
vt 0.794139 0.013591
vt 0.792748 0.013254
vt 0.793969 0.014038
vt 0.792629 0.013742
vt 0.790876 0.013563
vt 0.792388 0.015168
vt 0.790774 0.015068
vt 0.793659 0.015322
vt 0.794974 0.014456
vt 0.794810 0.015518
vt 0.795160 0.014056
vt 0.795653 0.014795
vt 0.795880 0.015541
vt 0.795940 0.014629
vt 0.796268 0.014371
vt 0.795402 0.013667
vt 0.529154 0.934634
vt 0.528045 0.934644
vt 0.528140 0.931201
vt 0.529263 0.931200
vt 0.528236 0.927749
vt 0.529375 0.927755
vt 0.528335 0.924183
vt 0.529511 0.924206
vt 0.527001 0.924176
vt 0.525302 0.924180
vt 0.526996 0.923922
vt 0.528336 0.923929
vt 0.525296 0.923928
vt 0.525290 0.923676
vt 0.526990 0.923669
vt 0.528338 0.923675
vt 0.525285 0.923516
vt 0.526986 0.923508
vt 0.528337 0.923514
vt 0.523133 0.923688
vt 0.523130 0.923528
vt 0.523137 0.923940
vt 0.520365 0.923703
vt 0.520366 0.923543
vt 0.520362 0.923954
vt 0.517589 0.923558
vt 0.517590 0.923717
vt 0.517592 0.923969
vt 0.517591 0.924221
vt 0.520362 0.924206
vt 0.523141 0.924191
vt 0.514821 0.923981
vt 0.514817 0.923730
vt 0.514820 0.924233
vt 0.512042 0.924250
vt 0.512046 0.923998
vt 0.509881 0.924264
vt 0.509887 0.924012
vt 0.509892 0.923759
vt 0.512049 0.923746
vt 0.512050 0.923586
vt 0.514813 0.923570
vt 0.509894 0.923599
vt 0.508190 0.923772
vt 0.508192 0.923612
vt 0.508187 0.924026
vt 0.506842 0.923794
vt 0.506839 0.923633
vt 0.506844 0.924048
vt 0.508181 0.924279
vt 0.506845 0.924302
vt 0.505667 0.924334
vt 0.505657 0.924080
vt 0.504446 0.924386
vt 0.504431 0.924133
vt 0.504416 0.923879
vt 0.505646 0.923826
vt 0.504406 0.923719
vt 0.505639 0.923666
vt 0.503161 0.923941
vt 0.503152 0.923780
vt 0.503176 0.924194
vt 0.501980 0.924005
vt 0.501969 0.923845
vt 0.501997 0.924257
vt 0.503191 0.924446
vt 0.502020 0.924510
vt 0.499321 0.924419
vt 0.493637 0.924744
vt 0.493622 0.924492
vt 0.499305 0.924167
vt 0.493613 0.924333
vt 0.499295 0.924008
vt 0.488021 0.924808
vt 0.488016 0.924648
vt 0.488029 0.925061
vt 0.486861 0.924867
vt 0.486860 0.924707
vt 0.486861 0.925121
vt 0.485950 0.925172
vt 0.485930 0.924917
vt 0.484681 0.925544
vt 0.484650 0.925294
vt 0.484621 0.925043
vt 0.481917 0.925282
vt 0.481942 0.925533
vt 0.481966 0.925784
vt 0.484602 0.924884
vt 0.485918 0.924757
vt 0.481902 0.925123
vt 0.478527 0.925577
vt 0.478513 0.925418
vt 0.478549 0.925828
vt 0.475146 0.925870
vt 0.475133 0.925711
vt 0.475166 0.926122
vt 0.478572 0.926079
vt 0.475187 0.926373
vt 0.475366 0.928338
vt 0.478760 0.928099
vt 0.482169 0.927860
vt 0.482400 0.930558
vt 0.478998 0.930766
vt 0.482628 0.933257
vt 0.479236 0.933434
vt 0.780622 0.036518
vt 0.778531 0.034344
vt 0.779089 0.034087
vt 0.781011 0.036101
vt 0.782930 0.038090
vt 0.782714 0.038687
vt 0.784567 0.039628
vt 0.784504 0.040347
vt 0.475607 0.930978
vt 0.475848 0.933617
vt 0.473144 0.933778
vt 0.472903 0.931160
vt 0.472655 0.928540
vt 0.471990 0.931226
vt 0.471746 0.928617
vt 0.472226 0.933837
vt 0.471379 0.933925
vt 0.471146 0.931313
vt 0.470907 0.928713
vt 0.563940 0.931379
vt 0.563076 0.931340
vt 0.563348 0.928715
vt 0.564204 0.928782
vt 0.563682 0.933989
vt 0.562812 0.933968
vt 0.563595 0.926772
vt 0.564455 0.926916
vt 0.470671 0.926847
vt 0.471521 0.926709
vt 0.563649 0.926519
vt 0.564539 0.926685
vt 0.470588 0.926616
vt 0.471469 0.926453
vt 0.472459 0.926614
vt 0.472442 0.926362
vt 0.471404 0.926204
vt 0.472424 0.926111
vt 0.470464 0.926380
vt 0.471364 0.926048
vt 0.472414 0.925951
vt 0.470384 0.926225
vt 0.472397 0.925701
vt 0.475112 0.925459
vt 0.471307 0.925805
vt 0.472378 0.925451
vt 0.475091 0.925207
vt 0.471265 0.925561
vt 0.470269 0.925969
vt 0.470200 0.925704
vt 0.563858 0.925630
vt 0.564942 0.925786
vt 0.564870 0.926047
vt 0.563814 0.925874
vt 0.564751 0.926299
vt 0.563755 0.926116
vt 0.564668 0.926451
vt 0.563714 0.926272
vt 0.562722 0.926165
vt 0.562734 0.926007
vt 0.562753 0.925756
vt 0.560021 0.925741
vt 0.560043 0.925489
vt 0.560006 0.925900
vt 0.562775 0.925507
vt 0.560066 0.925237
vt 0.556693 0.924912
vt 0.556669 0.925164
vt 0.556645 0.925415
vt 0.553312 0.924587
vt 0.553286 0.924839
vt 0.553260 0.925090
vt 0.553243 0.925249
vt 0.556629 0.925574
vt 0.550542 0.924987
vt 0.550563 0.924828
vt 0.550594 0.924576
vt 0.549235 0.924850
vt 0.549249 0.924690
vt 0.549270 0.924441
vt 0.550624 0.924324
vt 0.549293 0.924197
vt 0.548321 0.924128
vt 0.548314 0.924381
vt 0.548310 0.924633
vt 0.547175 0.924061
vt 0.547164 0.924315
vt 0.547155 0.924568
vt 0.548309 0.924793
vt 0.547149 0.924728
vt 0.541548 0.924384
vt 0.541558 0.924224
vt 0.541573 0.923973
vt 0.535865 0.924034
vt 0.535876 0.923874
vt 0.535893 0.923622
vt 0.541589 0.923721
vt 0.535911 0.923370
vt 0.533241 0.923201
vt 0.533221 0.923451
vt 0.533203 0.923703
vt 0.532052 0.923131
vt 0.532037 0.923384
vt 0.532022 0.923638
vt 0.532013 0.923798
vt 0.533192 0.923862
vt 0.530760 0.923741
vt 0.530769 0.923580
vt 0.530783 0.923326
vt 0.529532 0.923698
vt 0.529537 0.923537
vt 0.529547 0.923284
vt 0.530796 0.923072
vt 0.529556 0.923032
vt 0.528341 0.923009
vt 0.528339 0.923261
vt 0.526979 0.923003
vt 0.526982 0.923255
vt 0.525276 0.923010
vt 0.525280 0.923263
vt 0.523123 0.923024
vt 0.523125 0.923276
vt 0.520369 0.923291
vt 0.520369 0.923039
vt 0.517588 0.923305
vt 0.517589 0.923052
vt 0.514809 0.923318
vt 0.514809 0.923066
vt 0.512053 0.923333
vt 0.512056 0.923080
vt 0.509902 0.923093
vt 0.509897 0.923346
vt 0.508198 0.923106
vt 0.508194 0.923358
vt 0.506835 0.923128
vt 0.506837 0.923380
vt 0.505620 0.923161
vt 0.505629 0.923413
vt 0.504379 0.923212
vt 0.504392 0.923465
vt 0.503122 0.923273
vt 0.503137 0.923526
vt 0.501933 0.923344
vt 0.501953 0.923594
vt 0.499262 0.923504
vt 0.499279 0.923756
vt 0.493584 0.923829
vt 0.493599 0.924081
vt 0.487998 0.924140
vt 0.488008 0.924394
vt 0.486851 0.924201
vt 0.486858 0.924453
vt 0.485879 0.924263
vt 0.485900 0.924508
vt 0.484573 0.924633
vt 0.484545 0.924381
vt 0.481853 0.924620
vt 0.481878 0.924871
vt 0.478469 0.924914
vt 0.478491 0.925166
vt 0.478417 0.924332
vt 0.481798 0.924037
vt 0.475040 0.924624
vt 0.472322 0.924877
vt 0.472294 0.924628
vt 0.475017 0.924372
vt 0.478394 0.924080
vt 0.472265 0.924378
vt 0.474994 0.924120
vt 0.478372 0.923828
vt 0.478331 0.923351
vt 0.474951 0.923644
vt 0.472212 0.923899
vt 0.481710 0.923056
vt 0.481753 0.923533
vt 0.481775 0.923785
vt 0.484409 0.922814
vt 0.484450 0.923290
vt 0.484469 0.923544
vt 0.484489 0.923797
vt 0.485837 0.923700
vt 0.485819 0.923456
vt 0.485799 0.923208
vt 0.486815 0.923621
vt 0.486791 0.923370
vt 0.486765 0.923119
vt 0.485757 0.922721
vt 0.486721 0.922644
vt 0.487909 0.922568
vt 0.487938 0.923046
vt 0.487954 0.923299
vt 0.493496 0.922265
vt 0.493522 0.922743
vt 0.493537 0.922995
vt 0.487969 0.923553
vt 0.493551 0.923247
vt 0.499223 0.922921
vt 0.499207 0.922669
vt 0.499190 0.922416
vt 0.501893 0.922766
vt 0.501877 0.922516
vt 0.501857 0.922264
vt 0.501816 0.921782
vt 0.499158 0.921938
vt 0.503031 0.921709
vt 0.503058 0.922180
vt 0.503073 0.922434
vt 0.504314 0.921641
vt 0.504335 0.922120
vt 0.504344 0.922374
vt 0.503088 0.922687
vt 0.504353 0.922627
vt 0.505603 0.922579
vt 0.505598 0.922327
vt 0.505592 0.922074
vt 0.506828 0.922548
vt 0.506823 0.922297
vt 0.506819 0.922045
vt 0.506809 0.921554
vt 0.505574 0.921595
vt 0.508191 0.921540
vt 0.508193 0.922019
vt 0.508196 0.922272
vt 0.509905 0.921524
vt 0.509907 0.922003
vt 0.509907 0.922255
vt 0.508198 0.922524
vt 0.509907 0.922508
vt 0.512061 0.922496
vt 0.512062 0.922243
vt 0.512062 0.921991
vt 0.514819 0.921978
vt 0.514815 0.922230
vt 0.514813 0.922483
vt 0.512059 0.921512
vt 0.514827 0.921500
vt 0.517590 0.921959
vt 0.517590 0.922213
vt 0.517588 0.921480
vt 0.520347 0.921471
vt 0.520360 0.921950
vt 0.523112 0.921455
vt 0.523116 0.921933
vt 0.525266 0.921440
vt 0.525270 0.921919
vt 0.526979 0.921436
vt 0.526982 0.921915
vt 0.528358 0.921441
vt 0.528358 0.921922
vt 0.529594 0.921455
vt 0.529585 0.921947
vt 0.530858 0.921506
vt 0.530842 0.921977
vt 0.532144 0.921558
vt 0.532118 0.922037
vt 0.533361 0.921638
vt 0.533320 0.922120
vt 0.536019 0.921803
vt 0.535985 0.922281
vt 0.541683 0.922155
vt 0.541654 0.922633
vt 0.547271 0.922487
vt 0.547239 0.922965
vt 0.548461 0.922569
vt 0.548413 0.923043
vt 0.549425 0.922654
vt 0.549379 0.923141
vt 0.550771 0.922758
vt 0.550725 0.923234
vt 0.553467 0.923024
vt 0.553420 0.923500
vt 0.556844 0.923349
vt 0.556798 0.923826
vt 0.560222 0.923674
vt 0.560174 0.924150
vt 0.562959 0.923961
vt 0.562899 0.924439
vt 0.563948 0.924565
vt 0.563944 0.924094
vt 0.564852 0.924117
vt 0.564967 0.924622
vt 0.470305 0.924023
vt 0.471204 0.924028
vt 0.471190 0.924501
vt 0.470188 0.924529
vt 0.471188 0.924749
vt 0.470138 0.924805
vt 0.471200 0.924995
vt 0.470135 0.925079
vt 0.565015 0.924895
vt 0.565015 0.925167
vt 0.563931 0.925060
vt 0.563946 0.924813
vt 0.562835 0.924935
vt 0.562866 0.924687
vt 0.560123 0.924654
vt 0.560148 0.924402
vt 0.556773 0.924077
vt 0.556749 0.924329
vt 0.553371 0.924004
vt 0.553395 0.923752
vt 0.550704 0.923486
vt 0.550683 0.923739
vt 0.549336 0.923632
vt 0.549356 0.923388
vt 0.548360 0.923547
vt 0.548384 0.923295
vt 0.547207 0.923473
vt 0.547222 0.923219
vt 0.541639 0.922885
vt 0.541624 0.923137
vt 0.535951 0.922785
vt 0.535968 0.922533
vt 0.533282 0.922621
vt 0.533299 0.922371
vt 0.532103 0.922291
vt 0.532088 0.922544
vt 0.530823 0.922485
vt 0.530833 0.922231
vt 0.529579 0.922198
vt 0.529573 0.922450
vt 0.528349 0.922426
vt 0.528354 0.922175
vt 0.526979 0.922420
vt 0.526981 0.922168
vt 0.525271 0.922425
vt 0.525271 0.922172
vt 0.523118 0.922186
vt 0.523119 0.922439
vt 0.520368 0.922455
vt 0.520366 0.922202
vt 0.517590 0.922466
vt 0.530745 0.923995
vt 0.529522 0.923952
vt 0.530730 0.924248
vt 0.531981 0.924304
vt 0.531997 0.924051
vt 0.533149 0.924367
vt 0.533173 0.924115
vt 0.535829 0.924537
vt 0.535847 0.924285
vt 0.541516 0.924887
vt 0.541532 0.924635
vt 0.547131 0.925233
vt 0.547140 0.924981
vt 0.548302 0.925300
vt 0.548306 0.925046
vt 0.549188 0.925360
vt 0.549214 0.925105
vt 0.550477 0.925488
vt 0.550510 0.925238
vt 0.553189 0.925751
vt 0.553216 0.925500
vt 0.556580 0.926076
vt 0.556605 0.925825
vt 0.559960 0.926402
vt 0.559983 0.926151
vt 0.562683 0.926669
vt 0.562703 0.926417
vt 0.562457 0.928663
vt 0.559748 0.928521
vt 0.562181 0.931316
vt 0.559475 0.931236
vt 0.561910 0.933967
vt 0.559203 0.933951
vt 0.789403 0.038702
vt 0.787604 0.040357
vt 0.787607 0.039624
vt 0.789247 0.038091
vt 0.786892 0.040090
vt 0.786844 0.040764
vt 0.786087 0.040286
vt 0.786044 0.040923
vt 0.786117 0.039592
vt 0.786927 0.039361
vt 0.787666 0.038845
vt 0.786812 0.038456
vt 0.787442 0.037985
vt 0.786116 0.038670
vt 0.785314 0.039389
vt 0.785295 0.040114
vt 0.785264 0.040779
vt 0.788660 0.036732
vt 0.789106 0.037453
vt 0.790108 0.035151
vt 0.790803 0.035693
vt 0.791166 0.036102
vt 0.791496 0.036530
vt 0.792521 0.033885
vt 0.793086 0.034090
vt 0.793585 0.034356
vt 0.794605 0.032403
vt 0.795201 0.032566
vt 0.793931 0.032323
vt 0.791585 0.033499
vt 0.792802 0.032045
vt 0.793479 0.031057
vt 0.794708 0.031307
vt 0.792281 0.030887
vt 0.792522 0.029893
vt 0.793782 0.030067
vt 0.791426 0.029826
vt 0.792620 0.028855
vt 0.793920 0.029016
vt 0.791487 0.028800
vt 0.790129 0.029814
vt 0.790160 0.028799
vt 0.788139 0.028798
vt 0.788124 0.029806
vt 0.791804 0.024263
vt 0.790385 0.024264
vt 0.788252 0.024267
vt 0.788353 0.019704
vt 0.790586 0.019701
vt 0.786121 0.019705
vt 0.783889 0.019703
vt 0.786121 0.017597
vt 0.788393 0.017597
vt 0.783850 0.017596
vt 0.781656 0.019699
vt 0.781578 0.017595
vt 0.780174 0.019696
vt 0.780085 0.017595
vt 0.778817 0.017583
vt 0.778903 0.019698
vt 0.777458 0.019709
vt 0.777374 0.017545
vt 0.776046 0.019721
vt 0.775965 0.017466
vt 0.776460 0.024513
vt 0.776433 0.029531
vt 0.775882 0.029823
vt 0.777412 0.016579
vt 0.776101 0.016491
vt 0.777427 0.015507
vt 0.776368 0.015536
vt 0.777271 0.014452
vt 0.776568 0.014772
vt 0.778279 0.014037
vt 0.778584 0.015318
vt 0.779855 0.015166
vt 0.779617 0.013739
vt 0.781370 0.013561
vt 0.781470 0.015066
vt 0.780026 0.016552
vt 0.778770 0.016576
vt 0.781542 0.016526
vt 0.783831 0.016514
vt 0.783795 0.015021
vt 0.786122 0.016516
vt 0.786122 0.015031
vt 0.786123 0.013500
vt 0.783743 0.013485
vt 0.788412 0.016516
vt 0.788450 0.015026
vt 0.788502 0.013494
vt 0.790701 0.016528
vt 0.792216 0.016556
vt 0.790664 0.017597
vt 0.792157 0.017598
vt 0.793472 0.016582
vt 0.793425 0.017587
vt 0.794830 0.016585
vt 0.794869 0.017550
vt 0.796145 0.016495
vt 0.796279 0.017471
vt 0.796663 0.016473
vt 0.796817 0.017462
vt 0.796348 0.015483
vt 0.797174 0.016444
vt 0.797340 0.017478
vt 0.796815 0.015379
vt 0.531500 0.934563
vt 0.530308 0.934604
vt 0.530432 0.931187
vt 0.531638 0.931168
vt 0.530561 0.927760
vt 0.531784 0.927767
vt 0.532928 0.927776
vt 0.532768 0.931149
vt 0.535418 0.931108
vt 0.535602 0.927809
vt 0.532616 0.934519
vt 0.535239 0.934410
vt 0.540911 0.934216
vt 0.541113 0.931051
vt 0.541317 0.927891
vt 0.546514 0.934042
vt 0.546735 0.931011
vt 0.546956 0.927979
vt 0.548110 0.928000
vt 0.547879 0.931011
vt 0.548973 0.928020
vt 0.548738 0.931011
vt 0.547650 0.934015
vt 0.548506 0.933994
vt 0.549744 0.933971
vt 0.549985 0.931020
vt 0.550231 0.928065
vt 0.552425 0.933947
vt 0.552683 0.931067
vt 0.552945 0.928189
vt 0.555815 0.933944
vt 0.556084 0.931148
vt 0.556354 0.928354
vt 0.795312 0.031442
vt 0.795854 0.031626
vt 0.796094 0.030867
vt 0.795593 0.030579
vt 0.795054 0.030317
vt 0.795219 0.029249
vt 0.795745 0.029537
vt 0.795780 0.024518
vt 0.796313 0.024691
vt 0.794413 0.024385
vt 0.796248 0.029831
vt 0.796825 0.024882
vt 0.797265 0.019852
vt 0.796741 0.019775
vt 0.796197 0.019726
vt 0.794784 0.019713
vt 0.793338 0.019702
vt 0.793023 0.024293
vt 0.792068 0.019699
vt 0.783858 0.034282
vt 0.784981 0.034230
vt 0.786117 0.034278
s 1
f 2/1/1 6/2/1 5/3/1 1/4/1
f 2/1/1 1/4/1 3/5/1 57/6/1
f 1/4/1 4/7/1 776/8/1 3/5/1
f 1/4/1 5/3/1 7/9/1 4/7/1
f 6/2/1 10/10/1 8/11/1 5/3/1
f 5/3/1 8/11/1 11/12/1 7/9/1
f 9/13/1 13/14/1 11/12/1 8/11/1
f 648/15/1 9/13/1 8/11/1 10/10/1
f 12/16/1 780/17/1 7/9/1 11/12/1
f 13/14/1 15/18/1 12/16/1 11/12/1
f 13/14/1 9/13/1 646/19/2 14/20/1
f 15/18/1 13/14/1 14/20/1 16/21/1
f 19/22/1 17/23/1 15/18/1 16/21/1
f 17/23/1 18/24/3 12/16/1 15/18/1
f 18/24/3 17/23/1 20/25/4 23/26/5
f 17/23/1 19/22/1 22/27/6 20/25/4
f 24/28/7 23/26/5 20/25/4 21/29/8
f 22/27/6 629/30/9 21/29/8 20/25/4
f 23/26/5 24/28/7 25/31/10 18/24/3
f 24/28/7 26/32/11 27/33/12 25/31/10
f 26/32/11 24/28/7 21/29/8 29/34/13
f 27/33/12 26/32/11 28/35/14 778/36/15
f 26/32/11 29/34/13 31/37/16 28/35/14
f 629/30/9 30/38/13 29/34/13 21/29/8
f 29/34/13 30/38/13 32/39/17 31/37/16
f 36/40/18 33/41/19 31/37/16 32/39/17
f 33/41/19 35/42/20 28/35/14 31/37/16
f 34/43/1 33/41/19 36/40/18 38/44/1
f 33/41/19 34/43/1 781/45/21 35/42/20
f 37/46/22 40/47/1 38/44/1 36/40/18
f 37/46/22 36/40/18 32/39/17 626/48/23
f 782/49/1 34/43/1 38/44/1 39/50/1
f 40/47/1 42/51/1 39/50/1 38/44/1
f 40/47/1 37/46/22 628/52/24 41/53/25
f 42/51/1 40/47/1 41/53/25 43/54/26
f 44/55/1 42/51/1 43/54/26 45/56/27
f 42/51/1 44/55/1 47/57/1 39/50/1
f 46/58/1 44/55/1 45/56/27 75/59/28
f 44/55/1 46/58/1 49/60/1 47/57/1
f 47/57/1 48/61/1 782/49/1 39/50/1
f 48/61/1 47/57/1 49/60/1 51/62/1
f 50/63/1 53/64/1 51/62/1 49/60/1
f 46/58/1 73/65/2 50/63/1 49/60/1
f 774/66/1 48/61/1 51/62/1 52/67/1
f 53/64/1 55/68/1 52/67/1 51/62/1
f 56/69/1 55/68/1 53/64/1 54/70/1
f 54/70/1 53/64/1 50/63/1 70/71/1
f 55/68/1 56/69/1 58/72/1 57/6/1
f 52/67/1 55/68/1 57/6/1 3/5/1
f 59/73/1 2/1/1 57/6/1 58/72/1
f 59/73/1 58/72/1 60/74/1 61/75/1
f 56/69/1 63/76/1 60/74/1 58/72/1
f 661/77/1 61/75/1 60/74/1 62/78/1
f 63/76/1 64/79/1 62/78/1 60/74/1
f 66/80/1 64/79/1 63/76/1 65/81/1
f 63/76/1 56/69/1 54/70/1 65/81/1
f 68/82/1 66/80/1 65/81/1 67/83/1
f 65/81/1 54/70/1 70/71/1 67/83/1
f 69/84/1 675/85/1 68/82/1 67/83/1
f 67/83/1 70/71/1 71/86/1 69/84/1
f 70/71/1 50/63/1 73/65/2 71/86/1
f 72/87/29 677/88/30 69/84/1 71/86/1
f 74/89/31 72/87/29 71/86/1 73/65/2
f 73/65/2 46/58/1 75/59/28 74/89/31
f 74/89/31 75/59/28 77/90/32 76/91/33
f 74/89/31 76/91/33 78/92/34 72/87/29
f 80/93/35 79/94/36 76/91/33 77/90/32
f 76/91/33 79/94/36 81/95/37 78/92/34
f 82/96/38 79/97/36 80/98/35 84/99/39
f 85/100/40 81/101/37 79/97/36 82/96/38
f 87/102/41 85/100/40 82/96/38 83/103/42
f 84/99/39 255/104/43 83/103/42 82/96/38
f 86/105/44 680/106/45 81/101/37 85/100/40
f 89/107/46 86/105/44 85/100/40 87/102/41
f 83/103/42 236/108/47 88/109/48 87/102/41
f 87/102/41 88/109/48 90/110/49 89/107/46
f 92/111/50 91/112/51 89/107/46 90/110/49
f 86/105/44 89/107/46 91/112/51 94/113/52
f 91/112/51 92/111/50 223/114/53 93/115/54
f 93/115/54 96/116/55 94/113/52 91/112/51
f 94/113/52 95/117/56 680/106/45 86/105/44
f 96/116/55 98/118/57 95/117/56 94/113/52
f 96/116/55 93/115/54 222/119/58 97/120/59
f 97/120/59 100/121/60 98/118/57 96/116/55
f 678/122/61 95/123/56 98/124/57 99/125/62
f 99/125/62 98/124/57 100/126/60 101/127/63
f 101/127/63 100/126/60 102/128/64 103/129/65
f 105/130/66 102/131/64 100/121/60 97/120/59
f 103/129/65 102/128/64 104/132/67 687/133/68
f 107/134/69 104/135/67 102/131/64 105/130/66
f 106/136/70 105/130/66 97/120/59 222/119/58
f 105/130/66 106/136/70 108/137/71 107/134/69
f 110/138/72 109/139/73 107/134/69 108/137/71
f 109/139/73 112/140/74 104/135/67 107/134/69
f 109/139/73 110/138/72 206/141/75 111/142/76
f 111/142/76 114/143/77 112/140/74 109/139/73
f 687/133/68 104/132/67 112/144/74 113/145/78
f 113/145/78 112/144/74 114/146/77 115/147/79
f 115/147/79 114/146/77 116/148/80 117/149/81
f 119/150/82 116/151/80 114/143/77 111/142/76
f 117/149/81 116/148/80 118/152/83 692/153/84
f 121/154/85 118/155/83 116/151/80 119/150/82
f 120/156/86 119/150/82 111/142/76 206/141/75
f 119/150/82 120/156/86 122/157/87 121/154/85
f 124/158/88 123/159/89 121/154/85 122/157/87
f 123/159/89 126/160/90 118/155/83 121/154/85
f 123/159/89 124/158/88 189/161/91 125/162/92
f 126/160/90 123/159/89 125/162/92 128/163/93
f 692/153/84 118/152/83 126/164/90 127/165/94
f 127/165/94 126/164/90 128/166/93 129/167/95
f 130/168/96 132/169/97 129/167/95 128/166/93
f 131/170/98 130/171/96 128/163/93 125/162/92
f 130/171/96 131/170/98 136/172/99 133/173/100
f 132/169/97 130/168/96 133/174/100 134/175/101
f 147/176/102 134/175/101 133/174/100 135/177/103
f 138/178/104 135/179/103 133/173/100 136/172/99
f 139/180/105 138/178/104 136/172/99 137/181/106
f 131/170/98 188/182/107 137/181/106 136/172/99
f 138/178/104 139/180/105 142/183/108 140/184/109
f 140/184/109 143/185/110 135/179/103 138/178/104
f 141/186/111 144/187/112 143/185/110 140/184/109
f 142/183/108 165/188/113 141/186/111 140/184/109
f 143/189/110 144/190/112 146/191/114 145/192/115
f 135/177/103 143/189/110 145/192/115 147/176/102
f 151/193/116 148/194/117 145/192/115 146/191/114
f 148/194/117 149/195/118 147/176/102 145/192/115
f 150/196/1 708/197/1 149/195/118 148/194/117
f 152/198/1 150/196/1 148/194/117 151/193/116
f 153/199/119 154/200/1 152/198/1 151/193/116
f 151/193/116 146/191/114 156/201/120 153/199/119
f 154/200/1 153/199/119 155/202/121 719/203/122
f 155/202/121 153/199/119 156/201/120 157/204/123
f 159/205/124 157/204/123 156/201/120 158/206/125
f 146/191/114 144/190/112 158/206/125 156/201/120
f 159/207/124 158/208/125 160/209/126 161/210/127
f 158/208/125 144/187/112 141/186/111 160/209/126
f 161/210/127 160/209/126 162/211/128 163/212/129
f 160/209/126 141/186/111 165/188/113 162/211/128
f 163/212/129 162/211/128 164/213/130 579/214/131
f 162/211/128 165/188/113 166/215/132 164/213/130
f 167/216/133 166/215/132 165/188/113 142/183/108
f 164/213/130 166/215/132 168/217/134 170/218/135
f 166/215/132 167/216/133 169/219/136 168/217/134
f 174/220/137 171/221/138 168/217/134 169/219/136
f 171/221/138 173/222/139 170/218/135 168/217/134
f 174/220/137 175/223/140 172/224/141 171/221/138
f 171/221/138 172/224/141 354/225/142 173/222/139
f 176/226/143 177/227/144 175/223/140 174/220/137
f 176/226/143 174/220/137 169/219/136 178/228/145
f 177/227/144 176/226/143 179/229/146 180/230/147
f 178/228/145 182/231/148 179/229/146 176/226/143
f 365/232/149 180/230/147 179/229/146 181/233/150
f 184/234/151 181/233/150 179/229/146 182/231/148
f 186/235/152 184/234/151 182/231/148 183/236/153
f 183/236/153 182/231/148 178/228/145 773/237/154
f 184/234/151 185/238/155 195/239/156 181/233/150
f 187/240/157 185/238/155 184/234/151 186/235/152
f 189/161/91 187/240/157 186/235/152 188/182/107
f 188/182/107 186/235/152 183/236/153 137/181/106
f 188/182/107 131/170/98 125/162/92 189/161/91
f 124/158/88 190/241/158 187/240/157 189/161/91
f 190/241/158 192/242/159 185/238/155 187/240/157
f 190/241/158 191/243/160 193/244/161 192/242/159
f 124/158/88 122/157/87 191/243/160 190/241/158
f 197/245/162 194/246/163 192/242/159 193/244/161
f 192/242/159 194/246/163 195/239/156 185/238/155
f 196/247/164 366/248/165 195/239/156 194/246/163
f 197/245/162 198/249/166 196/247/164 194/246/163
f 199/250/167 200/251/168 198/249/166 197/245/162
f 199/250/167 197/245/162 193/244/161 202/252/169
f 201/253/170 377/254/171 200/251/168 199/250/167
f 201/253/170 199/250/167 202/252/169 203/255/172
f 204/256/173 205/257/174 203/255/172 202/252/169
f 191/243/160 204/256/173 202/252/169 193/244/161
f 120/156/86 206/141/75 205/257/174 204/256/173
f 204/256/173 191/243/160 122/157/87 120/156/86
f 207/258/175 205/257/174 206/141/75 110/138/72
f 205/257/174 207/258/175 209/259/176 203/255/172
f 207/258/175 208/260/177 210/261/178 209/259/176
f 108/137/71 208/260/177 207/258/175 110/138/72
f 213/262/179 211/263/180 209/259/176 210/261/178
f 211/263/180 201/253/170 203/255/172 209/259/176
f 213/262/179 214/264/181 212/265/182 211/263/180
f 211/263/180 212/265/182 377/254/171 201/253/170
f 215/266/183 216/267/184 214/264/181 213/262/179
f 215/266/183 213/262/179 210/261/178 218/268/185
f 217/269/186 386/270/187 216/267/184 215/266/183
f 217/269/186 215/266/183 218/268/185 219/271/188
f 220/272/189 221/273/190 219/271/188 218/268/185
f 208/260/177 220/272/189 218/268/185 210/261/178
f 222/119/58 221/273/190 220/272/189 106/136/70
f 208/260/177 108/137/71 106/136/70 220/272/189
f 221/273/190 222/119/58 93/115/54 223/114/53
f 221/273/190 223/114/53 224/274/191 219/271/188
f 223/114/53 92/111/50 225/275/192 224/274/191
f 228/276/193 226/277/194 224/274/191 225/275/192
f 226/277/194 217/269/186 219/271/188 224/274/191
f 228/276/193 229/278/195 227/279/196 226/277/194
f 226/277/194 227/279/196 386/270/187 217/269/186
f 230/280/197 231/281/198 229/278/195 228/276/193
f 230/280/197 228/276/193 225/275/192 233/282/199
f 232/283/200 395/284/201 231/281/198 230/280/197
f 232/283/200 230/280/197 233/282/199 234/285/202
f 90/110/49 88/109/48 234/285/202 233/282/199
f 92/111/50 90/110/49 233/282/199 225/275/192
f 88/109/48 236/108/47 235/286/203 234/285/202
f 237/287/204 232/283/200 234/285/202 235/286/203
f 236/108/47 240/288/205 238/289/206 235/286/203
f 241/290/207 237/287/204 235/286/203 238/289/206
f 243/291/208 241/290/207 238/289/206 239/292/209
f 240/288/205 253/293/210 239/292/209 238/289/206
f 237/287/204 241/290/207 242/294/211 396/295/212
f 243/291/208 244/296/213 242/294/211 241/290/207
f 245/297/214 246/298/215 244/296/213 243/291/208
f 245/297/214 243/291/208 239/292/209 248/299/216
f 247/300/217 290/301/218 246/298/215 245/297/214
f 247/300/217 245/297/214 248/299/216 249/302/219
f 250/303/220 251/304/221 249/302/219 248/299/216
f 253/293/210 250/303/220 248/299/216 239/292/209
f 267/305/222 251/304/221 250/303/220 252/306/223
f 253/293/210 254/307/224 252/306/223 250/303/220
f 254/307/224 253/293/210 240/288/205 255/104/43
f 255/104/43 84/99/39 256/308/225 254/307/224
f 257/309/226 252/306/223 254/307/224 256/308/225
f 256/308/225 258/310/227 259/311/228 257/309/226
f 84/99/39 80/98/35 258/310/227 256/308/225
f 259/312/228 258/313/227 260/314/229 261/315/230
f 258/313/227 80/93/35 77/90/32 260/314/229
f 45/56/27 43/54/26 261/315/230 260/314/229
f 75/59/28 45/56/27 260/314/229 77/90/32
f 262/316/231 264/317/232 259/312/228 261/315/230
f 41/53/25 262/316/231 261/315/230 43/54/26
f 263/318/233 265/319/234 264/317/232 262/316/231
f 628/52/24 263/318/233 262/316/231 41/53/25
f 266/320/235 264/321/232 265/322/234 268/323/236
f 257/309/226 259/311/228 264/321/232 266/320/235
f 252/306/223 257/309/226 266/320/235 267/305/222
f 268/323/236 269/324/237 267/305/222 266/320/235
f 268/323/236 270/325/238 272/326/239 269/324/237
f 268/323/236 265/322/234 271/327/240 270/325/238
f 275/328/241 273/329/242 270/325/238 271/327/240
f 273/329/242 276/330/243 272/326/239 270/325/238
f 273/331/242 274/332/244 277/333/245 276/334/243
f 275/335/241 617/336/246 274/332/244 273/331/242
f 276/334/243 277/333/245 279/337/247 278/338/248
f 276/330/243 278/339/248 281/340/249 272/326/239
f 278/338/248 279/337/247 609/341/250 280/342/251
f 278/339/248 280/343/251 283/344/252 281/340/249
f 272/326/239 281/340/249 282/345/253 269/324/237
f 282/345/253 281/340/249 283/344/252 284/346/254
f 284/346/254 283/344/252 285/347/255 288/348/256
f 280/343/251 287/349/257 285/347/255 283/344/252
f 286/350/258 289/351/259 288/348/256 285/347/255
f 287/349/257 299/352/260 286/350/258 285/347/255
f 288/348/256 289/351/259 290/301/218 247/300/217
f 288/348/256 247/300/217 249/302/219 284/346/254
f 290/301/218 289/351/259 291/353/261 292/354/262
f 289/351/259 286/350/258 294/355/263 291/353/261
f 293/356/264 405/357/265 292/354/262 291/353/261
f 295/358/266 293/356/264 291/353/261 294/355/263
f 295/358/266 294/355/263 296/359/267 297/360/268
f 299/352/260 296/359/267 294/355/263 286/350/258
f 524/361/269 297/362/268 296/363/267 298/364/270
f 299/365/260 300/366/271 298/364/270 296/363/267
f 287/367/257 301/368/272 300/366/271 299/365/260
f 304/369/273 302/370/274 300/366/271 301/368/272
f 302/370/274 305/371/275 298/364/270 300/366/271
f 302/370/274 303/372/276 307/373/277 305/371/275
f 607/374/278 303/372/276 302/370/274 304/369/273
f 524/361/269 298/364/270 305/371/275 306/375/279
f 308/376/280 306/375/279 305/371/275 307/373/277
f 310/377/281 308/376/280 307/373/277 309/378/282
f 303/372/276 312/379/283 309/378/282 307/373/277
f 535/380/284 310/377/281 309/378/282 311/381/285
f 312/379/283 314/382/286 311/381/285 309/378/282
f 315/383/287 314/382/286 312/379/283 313/384/288
f 313/384/288 312/379/283 303/372/276 607/374/278
f 317/385/289 316/386/290 314/382/286 315/383/287
f 314/382/286 316/386/290 319/387/291 311/381/285
f 598/388/292 318/389/293 316/386/290 317/385/289
f 316/386/290 318/389/293 321/390/294 319/387/291
f 320/391/295 535/380/284 311/381/285 319/387/291
f 322/392/296 320/391/295 319/387/291 321/390/294
f 324/393/297 322/392/296 321/390/294 323/394/298
f 318/389/293 326/395/299 323/394/298 321/390/294
f 545/396/300 324/393/297 323/394/298 325/397/301
f 326/395/299 328/398/302 325/397/301 323/394/298
f 327/399/303 329/400/302 328/398/302 326/395/299
f 598/388/292 327/399/303 326/395/299 318/389/293
f 331/401/304 330/402/305 328/398/302 329/400/302
f 328/398/302 330/402/305 333/403/306 325/397/301
f 589/404/307 332/405/308 330/402/305 331/401/304
f 330/402/305 332/405/308 335/406/309 333/403/306
f 334/407/310 545/396/300 325/397/301 333/403/306
f 336/408/311 334/407/310 333/403/306 335/406/309
f 338/409/312 336/408/311 335/406/309 337/410/313
f 332/405/308 340/411/314 337/410/313 335/406/309
f 569/412/315 338/409/312 337/410/313 339/413/316
f 340/411/314 342/414/317 339/413/316 337/410/313
f 343/415/318 342/414/317 340/411/314 341/416/319
f 341/416/319 340/411/314 332/405/308 589/404/307
f 345/417/320 344/418/321 342/414/317 343/415/318
f 342/414/317 344/418/321 347/419/322 339/413/316
f 577/420/323 346/421/324 344/418/321 345/417/320
f 344/418/321 346/421/324 349/422/325 347/419/322
f 348/423/326 569/412/315 339/413/316 347/419/322
f 350/424/327 348/423/326 347/419/322 349/422/325
f 352/425/328 350/424/327 349/422/325 351/426/329
f 346/421/324 354/225/142 351/426/329 349/422/325
f 355/427/330 352/425/328 351/426/329 353/428/331
f 354/225/142 172/224/141 353/428/331 351/426/329
f 173/222/139 354/225/142 346/421/324 577/420/323
f 357/429/332 355/427/330 353/428/331 356/430/333
f 172/224/141 175/223/140 356/430/333 353/428/331
f 359/431/334 357/429/332 356/430/333 358/432/335
f 175/223/140 177/227/144 358/432/335 356/430/333
f 359/431/334 358/432/335 360/433/336 361/434/337
f 177/227/144 180/230/147 360/433/336 358/432/335
f 361/434/337 360/433/336 362/435/338 363/436/339
f 365/232/149 362/435/338 360/433/336 180/230/147
f 363/436/339 362/435/338 364/437/340 367/438/341
f 366/248/165 364/437/340 362/435/338 365/232/149
f 365/232/149 181/233/150 195/239/156 366/248/165
f 196/247/164 368/439/342 364/437/340 366/248/165
f 367/438/341 364/437/340 368/439/342 369/440/343
f 371/441/344 369/440/343 368/439/342 370/442/345
f 196/247/164 198/249/166 370/442/345 368/439/342
f 373/443/346 371/441/344 370/442/345 372/444/347
f 198/249/166 200/251/168 372/444/347 370/442/345
f 375/445/348 373/443/346 372/444/347 374/446/349
f 200/251/168 377/254/171 374/446/349 372/444/347
f 378/447/350 375/445/348 374/446/349 376/448/351
f 377/254/171 212/265/182 376/448/351 374/446/349
f 380/449/352 378/447/350 376/448/351 379/450/353
f 212/265/182 214/264/181 379/450/353 376/448/351
f 382/451/354 380/449/352 379/450/353 381/452/355
f 214/264/181 216/267/184 381/452/355 379/450/353
f 384/453/356 382/451/354 381/452/355 383/454/357
f 216/267/184 386/270/187 383/454/357 381/452/355
f 387/455/358 384/453/356 383/454/357 385/456/359
f 386/270/187 227/279/196 385/456/359 383/454/357
f 389/457/360 387/455/358 385/456/359 388/458/361
f 227/279/196 229/278/195 388/458/361 385/456/359
f 391/459/362 389/457/360 388/458/361 390/460/363
f 229/278/195 231/281/198 390/460/363 388/458/361
f 393/461/364 391/459/362 390/460/363 392/462/365
f 231/281/198 395/284/201 392/462/365 390/460/363
f 397/463/366 393/461/364 392/462/365 394/464/367
f 395/284/201 396/295/212 394/464/367 392/462/365
f 237/287/204 396/295/212 395/284/201 232/283/200
f 396/295/212 242/294/211 398/465/368 394/464/367
f 399/466/369 397/463/366 394/464/367 398/465/368
f 401/467/370 399/466/369 398/465/368 400/468/371
f 242/294/211 244/296/213 400/468/371 398/465/368
f 403/469/372 401/467/370 400/468/371 402/470/373
f 244/296/213 246/298/215 402/470/373 400/468/371
f 405/357/265 403/469/372 402/470/373 292/354/262
f 246/298/215 290/301/218 292/354/262 402/470/373
f 404/471/374 420/472/375 401/467/370 403/469/372
f 403/469/372 405/357/265 406/473/376 404/471/374
f 407/474/377 406/473/376 405/357/265 293/356/264
f 406/473/376 407/474/377 409/475/378 408/476/379
f 404/471/374 406/473/376 408/476/379 410/477/380
f 413/478/381 411/479/382 408/476/379 409/475/378
f 411/479/382 414/480/383 410/477/380 408/476/379
f 415/481/384 414/480/383 411/479/382 412/482/385
f 518/483/386 412/482/385 411/479/382 413/478/381
f 417/484/387 416/485/388 414/480/383 415/481/384
f 414/480/383 416/485/388 419/486/389 410/477/380
f 576/487/390 418/488/391 416/485/388 417/484/387
f 416/485/388 418/488/391 421/489/392 419/486/389
f 420/472/375 404/471/374 410/477/380 419/486/389
f 422/490/393 420/472/375 419/486/389 421/489/392
f 424/491/394 422/490/393 421/489/392 423/492/395
f 418/488/391 426/493/396 423/492/395 421/489/392
f 575/494/397 424/491/394 423/492/395 425/495/398
f 426/493/396 428/496/399 425/495/398 423/492/395
f 427/497/400 429/498/401 428/496/399 426/493/396
f 427/497/400 426/493/396 418/488/391 576/487/390
f 429/498/401 431/499/402 430/500/403 428/496/399
f 428/496/399 430/500/403 433/501/404 425/495/398
f 574/502/405 432/503/406 430/500/403 431/499/402
f 430/500/403 432/503/406 435/504/407 433/501/404
f 434/505/408 575/494/397 425/495/398 433/501/404
f 436/506/409 434/505/408 433/501/404 435/504/407
f 438/507/410 436/506/409 435/504/407 437/508/411
f 432/503/406 440/509/412 437/508/411 435/504/407
f 573/510/413 438/507/410 437/508/411 439/511/414
f 440/509/412 442/512/415 439/511/414 437/508/411
f 443/513/416 442/512/415 440/509/412 441/514/417
f 441/514/417 440/509/412 432/503/406 574/502/405
f 443/513/416 445/515/418 444/516/419 442/512/415
f 442/512/415 444/516/419 447/517/420 439/511/414
f 572/518/421 446/519/422 444/516/419 445/515/418
f 444/516/419 446/519/422 449/520/423 447/517/420
f 448/521/424 573/510/413 439/511/414 447/517/420
f 450/522/425 448/521/424 447/517/420 449/520/423
f 452/523/426 450/522/425 449/520/423 451/524/427
f 446/519/422 454/525/428 451/524/427 449/520/423
f 571/526/429 452/523/426 451/524/427 453/527/430
f 454/525/428 456/528/431 453/527/430 451/524/427
f 457/529/432 456/528/431 454/525/428 455/530/433
f 455/530/433 454/525/428 446/519/422 572/518/421
f 457/529/432 459/531/434 458/532/435 456/528/431
f 456/528/431 458/532/435 461/533/436 453/527/430
f 459/531/434 570/534/437 460/535/438 458/532/435
f 458/532/435 460/535/438 463/536/439 461/533/436
f 462/537/440 571/526/429 453/527/430 461/533/436
f 464/538/441 462/537/440 461/533/436 463/536/439
f 467/539/442 464/538/441 463/536/439 465/540/443
f 460/535/438 468/541/444 465/540/443 463/536/439
f 468/541/444 470/542/445 466/543/446 465/540/443
f 465/540/443 466/543/446 567/544/447 467/539/442
f 470/542/445 468/541/444 469/545/448 472/546/449
f 570/534/437 469/545/448 468/541/444 460/535/438
f 471/547/450 568/548/451 466/543/446 470/542/445
f 471/547/450 470/542/445 472/546/449 473/549/452
f 471/547/450 473/549/452 474/550/453 475/551/454
f 476/552/455 477/553/456 475/551/454 474/550/453
f 478/554/457 479/555/458 477/553/456 476/552/455
f 480/556/459 481/557/460 479/555/458 478/554/457
f 482/558/461 483/559/462 481/557/460 480/556/459
f 484/560/463 485/561/464 483/559/462 482/558/461
f 484/560/463 486/562/465 487/563/466 485/561/464
f 488/564/467 489/565/468 487/563/466 486/562/465
f 490/566/469 491/567/470 489/565/468 488/564/467
f 490/566/469 492/568/471 493/569/472 491/567/470
f 494/570/473 495/571/474 493/569/472 492/568/471
f 496/572/475 497/573/476 495/571/474 494/570/473
f 498/574/477 499/575/478 497/573/476 496/572/475
f 500/576/479 501/577/480 499/575/478 498/574/477
f 500/576/479 502/578/481 503/579/482 501/577/480
f 502/578/481 504/580/483 505/581/484 503/579/482
f 506/582/485 507/583/486 505/581/484 504/580/483
f 508/584/487 509/585/488 507/583/486 506/582/485
f 510/586/489 511/587/490 509/585/488 508/584/487
f 513/588/491 511/587/490 510/586/489 512/589/492
f 514/590/452 515/591/493 513/588/491 512/589/492
f 514/592/452 516/593/494 517/594/495 515/595/493
f 518/483/386 413/478/381 517/594/495 516/593/494
f 515/595/493 517/594/495 519/596/496 520/597/497
f 413/478/381 409/475/378 519/596/496 517/594/495
f 520/597/497 519/596/496 521/598/498 522/599/499
f 409/475/378 407/474/377 521/598/498 519/596/496
f 297/360/268 522/599/499 521/598/498 295/358/266
f 293/356/264 295/358/266 521/598/498 407/474/377
f 520/600/497 522/601/499 523/602/500 525/603/501
f 297/362/268 524/361/269 523/602/500 522/601/499
f 306/375/279 526/604/502 523/602/500 524/361/269
f 528/605/503 525/603/501 523/602/500 526/604/502
f 526/604/502 527/606/504 529/607/505 528/605/503
f 308/376/280 527/606/504 526/604/502 306/375/279
f 511/587/490 513/588/491 525/603/501 528/605/503
f 509/585/488 511/587/490 528/605/503 529/607/505
f 507/583/486 509/585/488 529/607/505 530/608/506
f 527/606/504 531/609/507 530/608/506 529/607/505
f 531/609/507 534/610/508 532/611/509 530/608/506
f 505/581/484 507/583/486 530/608/506 532/611/509
f 503/579/482 505/581/484 532/611/509 533/612/510
f 534/610/508 536/613/511 533/612/510 532/611/509
f 535/380/284 534/610/508 531/609/507 310/377/281
f 534/610/508 535/380/284 320/391/295 536/613/511
f 322/392/296 537/614/512 536/613/511 320/391/295
f 536/613/511 537/614/512 539/615/513 533/612/510
f 537/614/512 322/392/296 324/393/297 538/616/514
f 537/614/512 538/616/514 540/617/515 539/615/513
f 499/575/478 501/577/480 539/615/513 540/617/515
f 501/577/480 503/579/482 533/612/510 539/615/513
f 538/616/514 543/618/516 541/619/517 540/617/515
f 497/573/476 499/575/478 540/617/515 541/619/517
f 495/571/474 497/573/476 541/619/517 542/620/518
f 543/618/516 544/621/519 542/620/518 541/619/517
f 334/407/310 544/621/519 543/618/516 545/396/300
f 545/396/300 543/618/516 538/616/514 324/393/297
f 544/621/519 334/407/310 336/408/311 546/622/520
f 544/621/519 546/622/520 548/623/521 542/620/518
f 338/409/312 547/624/522 546/622/520 336/408/311
f 546/622/520 547/624/522 549/625/523 548/623/521
f 493/569/472 495/571/474 542/620/518 548/623/521
f 491/567/470 493/569/472 548/623/521 549/625/523
f 489/565/468 491/567/470 549/625/523 550/626/524
f 547/624/522 551/627/525 550/626/524 549/625/523
f 551/627/525 554/628/526 552/629/527 550/626/524
f 487/563/466 489/565/468 550/626/524 552/629/527
f 485/561/464 487/563/466 552/629/527 553/630/528
f 554/628/526 555/631/529 553/630/528 552/629/527
f 348/423/326 554/628/526 551/627/525 569/412/315
f 554/628/526 348/423/326 350/424/327 555/631/529
f 352/425/328 556/632/530 555/631/529 350/424/327
f 555/631/529 556/632/530 558/633/531 553/630/528
f 556/632/530 352/425/328 355/427/330 557/634/532
f 556/632/530 557/634/532 559/635/533 558/633/531
f 481/557/460 483/559/462 558/633/531 559/635/533
f 483/559/462 485/561/464 553/630/528 558/633/531
f 557/634/532 562/636/534 560/637/535 559/635/533
f 479/555/458 481/557/460 559/635/533 560/637/535
f 477/553/456 479/555/458 560/637/535 561/638/536
f 562/636/534 563/639/537 561/638/536 560/637/535
f 357/429/332 562/636/534 557/634/532 355/427/330
f 562/636/534 357/429/332 359/431/334 563/639/537
f 561/638/536 563/639/537 564/640/538 565/641/539
f 359/431/334 361/434/337 564/640/538 563/639/537
f 363/436/339 566/642/540 564/640/538 361/434/337
f 568/548/451 565/641/539 564/640/538 566/642/540
f 568/548/451 566/642/540 567/544/447 466/543/446
f 363/436/339 367/438/341 567/544/447 566/642/540
f 475/551/454 565/641/539 568/548/451 471/547/450
f 369/440/343 467/539/442 567/544/447 367/438/341
f 477/553/456 561/638/536 565/641/539 475/551/454
f 547/624/522 338/409/312 569/412/315 551/627/525
f 527/606/504 308/376/280 310/377/281 531/609/507
f 515/591/493 520/600/497 525/603/501 513/588/491
f 371/441/344 464/538/441 467/539/442 369/440/343
f 464/538/441 371/441/344 373/443/346 462/537/440
f 373/443/346 375/445/348 571/526/429 462/537/440
f 452/523/426 571/526/429 375/445/348 378/447/350
f 378/447/350 380/449/352 450/522/425 452/523/426
f 448/521/424 450/522/425 380/449/352 382/451/354
f 382/451/354 384/453/356 573/510/413 448/521/424
f 438/507/410 573/510/413 384/453/356 387/455/358
f 387/455/358 389/457/360 436/506/409 438/507/410
f 434/505/408 436/506/409 389/457/360 391/459/362
f 391/459/362 393/461/364 575/494/397 434/505/408
f 393/461/364 397/463/366 424/491/394 575/494/397
f 422/490/393 424/491/394 397/463/366 399/466/369
f 399/466/369 401/467/370 420/472/375 422/490/393
f 577/420/323 345/417/320 580/643/541 578/644/542
f 173/222/139 577/420/323 578/644/542 170/218/135
f 579/214/131 164/213/130 170/218/135 578/644/542
f 581/645/543 579/214/131 578/644/542 580/643/541
f 583/646/544 581/645/543 580/643/541 582/647/545
f 345/417/320 343/415/318 582/647/545 580/643/541
f 585/648/546 583/646/544 582/647/545 584/649/547
f 343/415/318 341/416/319 584/649/547 582/647/545
f 587/650/548 585/648/546 584/649/547 586/651/549
f 341/416/319 589/404/307 586/651/549 584/649/547
f 590/652/550 587/650/548 586/651/549 588/653/551
f 589/404/307 331/401/304 588/653/551 586/651/549
f 592/654/552 590/652/550 588/653/551 591/655/553
f 331/401/304 329/400/302 591/655/553 588/653/551
f 594/656/554 592/654/552 591/655/553 593/657/555
f 329/400/302 327/399/303 593/657/555 591/655/553
f 596/658/556 594/656/554 593/657/555 595/659/557
f 327/399/303 598/388/292 595/659/557 593/657/555
f 599/660/558 596/658/556 595/659/557 597/661/559
f 598/388/292 317/385/289 597/661/559 595/659/557
f 601/662/560 599/660/558 597/661/559 600/663/561
f 317/385/289 315/383/287 600/663/561 597/661/559
f 603/664/562 601/662/560 600/663/561 602/665/563
f 315/383/287 313/384/288 602/665/563 600/663/561
f 605/666/564 603/664/562 602/665/563 604/667/565
f 313/384/288 607/374/278 604/667/565 602/665/563
f 608/668/566 605/666/564 604/667/565 606/669/567
f 607/374/278 304/369/273 606/669/567 604/667/565
f 608/668/566 606/669/567 609/341/250 279/337/247
f 606/669/567 304/369/273 301/368/272 609/341/250
f 280/342/251 609/341/250 301/368/272 287/367/257
f 610/670/568 611/671/569 605/666/564 608/668/566
f 277/333/245 610/670/568 608/668/566 279/337/247
f 612/672/570 613/673/571 611/671/569 610/670/568
f 274/332/244 612/672/570 610/670/568 277/333/245
f 614/674/572 615/675/573 613/673/571 612/672/570
f 617/336/246 614/674/572 612/672/570 274/332/244
f 615/676/573 614/677/572 616/678/574 635/679/575
f 618/680/576 616/678/574 614/677/572 617/681/246
f 619/682/577 618/680/576 617/681/246 275/683/241
f 618/680/576 619/682/577 623/684/578 620/685/579
f 616/678/574 618/680/576 620/685/579 621/686/580
f 621/686/580 620/685/579 622/687/581 630/688/582
f 620/685/579 623/684/578 624/689/13 622/687/581
f 624/689/13 623/684/578 625/690/583 626/48/23
f 623/684/578 619/682/577 627/691/584 625/690/583
f 628/52/24 37/46/22 626/48/23 625/690/583
f 263/318/233 628/52/24 625/690/583 627/691/584
f 619/682/577 275/683/241 271/692/240 627/691/584
f 265/319/234 263/318/233 627/691/584 271/692/240
f 30/38/13 624/689/13 626/48/23 32/39/17
f 30/38/13 629/30/9 622/687/581 624/689/13
f 629/30/9 22/27/6 630/688/582 622/687/581
f 630/688/582 631/693/1 633/694/585 621/686/580
f 631/693/1 630/688/582 22/27/6 19/22/1
f 632/695/1 631/693/1 19/22/1 16/21/1
f 631/693/1 632/695/1 634/696/586 633/694/585
f 633/694/585 634/696/586 636/697/587 635/679/575
f 621/686/580 633/694/585 635/679/575 616/678/574
f 637/698/588 615/676/573 635/679/575 636/697/587
f 636/697/587 634/696/586 641/699/589 638/700/590
f 637/698/588 636/697/587 638/700/590 639/701/591
f 640/702/592 747/703/593 639/701/591 638/700/590
f 642/704/594 640/702/592 638/700/590 641/699/589
f 643/705/1 644/706/1 642/704/594 641/699/589
f 632/695/1 643/705/1 641/699/589 634/696/586
f 643/705/1 632/695/1 16/21/1 14/20/1
f 644/706/1 643/705/1 14/20/1 646/19/2
f 644/706/1 645/707/1 755/708/595 642/704/594
f 645/707/1 644/706/1 646/19/2 647/709/2
f 9/13/1 648/15/1 647/709/2 646/19/2
f 649/710/1 650/711/1 645/707/1 647/709/2
f 647/709/2 648/15/1 652/712/1 649/710/1
f 651/713/1 759/714/1 650/711/1 649/710/1
f 649/710/1 652/712/1 653/715/1 651/713/1
f 654/716/1 652/712/1 648/15/1 10/10/1
f 656/717/1 653/715/1 652/712/1 654/716/1
f 658/718/1 656/717/1 654/716/1 655/719/1
f 10/10/1 6/2/1 655/719/1 654/716/1
f 769/720/1 653/715/1 656/717/1 657/721/1
f 659/722/1 657/721/1 656/717/1 658/718/1
f 658/718/1 655/719/1 59/73/1 61/75/1
f 661/77/1 659/722/1 658/718/1 61/75/1
f 660/723/1 771/724/1 657/721/1 659/722/1
f 662/725/1 660/723/1 659/722/1 661/77/1
f 662/725/1 661/77/1 62/78/1 664/726/1
f 663/727/1 772/728/1 660/723/1 662/725/1
f 663/727/1 662/725/1 664/726/1 665/729/1
f 666/730/1 667/731/1 665/729/1 664/726/1
f 64/79/1 666/730/1 664/726/1 62/78/1
f 64/79/1 66/80/1 668/732/1 666/730/1
f 669/733/1 667/731/1 666/730/1 668/732/1
f 671/734/1 669/733/1 668/732/1 670/735/1
f 66/80/1 68/82/1 670/735/1 668/732/1
f 672/736/1 673/737/1 671/734/1 670/735/1
f 675/85/1 672/736/1 670/735/1 68/82/1
f 673/737/1 672/736/1 674/738/596 681/739/597
f 672/736/1 675/85/1 676/740/598 674/738/596
f 675/85/1 69/84/1 677/88/30 676/740/598
f 677/88/30 679/741/599 678/122/61 676/740/598
f 676/740/598 678/122/61 99/125/62 674/738/596
f 679/741/599 680/742/45 95/123/56 678/122/61
f 78/92/34 81/95/37 680/742/45 679/741/599
f 72/87/29 78/92/34 679/741/599 677/88/30
f 674/738/596 99/125/62 101/127/63 681/739/597
f 683/743/1 673/737/1 681/739/597 682/744/600
f 681/739/597 101/127/63 103/129/65 682/744/600
f 685/745/1 683/743/1 682/744/600 684/746/601
f 682/744/600 103/129/65 687/133/68 684/746/601
f 688/747/602 685/745/1 684/746/601 686/748/603
f 684/746/601 687/133/68 113/145/78 686/748/603
f 686/748/603 113/145/78 115/147/79 688/747/602
f 685/745/1 688/747/602 689/749/604 690/750/1
f 688/747/602 115/147/79 117/149/81 689/749/604
f 694/751/1 690/750/1 689/749/604 691/752/605
f 689/749/604 117/149/81 692/153/84 691/752/605
f 691/752/605 692/153/84 127/165/94 693/753/606
f 695/754/1 694/751/1 691/752/605 693/753/606
f 690/750/1 694/751/1 696/755/1 697/756/1
f 694/751/1 695/754/1 698/757/1 696/755/1
f 669/733/1 671/734/1 697/756/1 696/755/1
f 667/731/1 669/733/1 696/755/1 698/757/1
f 667/731/1 698/757/1 699/758/1 665/729/1
f 698/757/1 695/754/1 701/759/1 699/758/1
f 700/760/1 663/727/1 665/729/1 699/758/1
f 703/761/1 700/760/1 699/758/1 701/759/1
f 705/762/607 703/761/1 701/759/1 702/763/608
f 695/754/1 693/753/606 702/763/608 701/759/1
f 707/764/1 700/760/1 703/761/1 704/765/1
f 705/762/607 706/766/609 704/765/1 703/761/1
f 132/169/97 705/762/607 702/763/608 129/167/95
f 705/762/607 132/169/97 134/175/101 706/766/609
f 134/175/101 147/176/102 149/195/118 706/766/609
f 706/766/609 149/195/118 708/197/1 704/765/1
f 709/767/1 707/764/1 704/765/1 708/197/1
f 708/197/1 150/196/1 711/768/1 709/767/1
f 707/764/1 709/767/1 710/769/1 772/728/1
f 711/768/1 712/770/1 710/769/1 709/767/1
f 712/770/1 711/768/1 713/771/1 714/772/1
f 150/196/1 152/198/1 713/771/1 711/768/1
f 715/773/1 716/774/1 714/772/1 713/771/1
f 154/200/1 715/773/1 713/771/1 152/198/1
f 716/774/1 715/773/1 717/775/610 718/776/611
f 715/773/1 154/200/1 719/203/122 717/775/610
f 718/776/611 717/775/610 720/777/612 721/778/613
f 717/775/610 719/203/122 723/779/614 720/777/612
f 722/780/615 732/781/616 721/778/613 720/777/612
f 724/782/617 722/780/615 720/777/612 723/779/614
f 159/205/124 724/782/617 723/779/614 157/204/123
f 719/203/122 155/202/121 157/204/123 723/779/614
f 722/783/615 724/784/617 725/785/618 726/786/619
f 724/784/617 159/207/124 161/210/127 725/785/618
f 726/786/619 725/785/618 727/787/620 728/788/621
f 725/785/618 161/210/127 163/212/129 727/787/620
f 728/788/621 727/787/620 581/645/543 583/646/544
f 727/787/620 163/212/129 579/214/131 581/645/543
f 729/789/622 728/788/621 583/646/544 585/648/546
f 731/790/623 726/786/619 728/788/621 729/789/622
f 733/791/624 731/790/623 729/789/622 730/792/625
f 730/792/625 729/789/622 585/648/546 587/650/548
f 732/793/616 722/783/615 726/786/619 731/790/623
f 734/794/626 732/793/616 731/790/623 733/791/624
f 736/795/627 734/794/626 733/791/624 735/796/628
f 735/796/628 733/791/624 730/792/625 738/797/629
f 761/798/630 736/795/627 735/796/628 737/799/631
f 737/799/631 735/796/628 738/797/629 739/800/632
f 739/800/632 738/797/629 590/652/550 592/654/552
f 738/797/629 730/792/625 587/650/548 590/652/550
f 740/801/633 739/800/632 592/654/552 594/656/554
f 742/802/634 737/799/631 739/800/632 740/801/633
f 741/803/635 740/801/633 594/656/554 596/658/556
f 744/804/636 742/802/634 740/801/633 741/803/635
f 743/805/637 761/798/630 737/799/631 742/802/634
f 745/806/638 743/805/637 742/802/634 744/804/636
f 747/807/593 745/806/638 744/804/636 746/808/639
f 746/808/639 744/804/636 741/803/635 748/809/640
f 639/810/591 747/807/593 746/808/639 749/811/641
f 749/811/641 746/808/639 748/809/640 751/812/642
f 637/813/588 639/810/591 749/811/641 750/814/643
f 750/814/643 749/811/641 751/812/642 752/815/644
f 752/815/644 751/812/642 601/662/560 603/664/562
f 751/812/642 748/809/640 599/660/558 601/662/560
f 611/671/569 752/815/644 603/664/562 605/666/564
f 613/673/571 750/814/643 752/815/644 611/671/569
f 615/675/573 637/813/588 750/814/643 613/673/571
f 748/809/640 741/803/635 596/658/556 599/660/558
f 747/703/593 640/702/592 753/816/645 745/817/638
f 743/818/637 745/817/638 753/816/645 754/819/646
f 640/702/592 642/704/594 755/708/595 753/816/645
f 755/708/595 756/820/647 754/819/646 753/816/645
f 755/708/595 645/707/1 650/711/1 756/820/647
f 756/820/647 650/711/1 759/714/1 757/821/648
f 756/820/647 757/821/648 760/822/649 754/819/646
f 757/821/648 758/823/650 762/824/651 760/822/649
f 759/714/1 767/825/1 758/823/650 757/821/648
f 761/826/630 743/818/637 754/819/646 760/822/649
f 736/827/627 761/826/630 760/822/649 762/824/651
f 734/828/626 736/827/627 762/824/651 763/829/652
f 758/823/650 764/830/653 763/829/652 762/824/651
f 764/830/653 718/776/611 721/778/613 763/829/652
f 732/781/616 734/828/626 763/829/652 721/778/613
f 765/831/1 716/774/1 718/776/611 764/830/653
f 767/825/1 765/831/1 764/830/653 758/823/650
f 716/774/1 765/831/1 766/832/1 714/772/1
f 765/831/1 767/825/1 768/833/1 766/832/1
f 767/825/1 759/714/1 651/713/1 768/833/1
f 653/715/1 769/720/1 768/833/1 651/713/1
f 769/720/1 770/834/1 766/832/1 768/833/1
f 770/834/1 769/720/1 657/721/1 771/724/1
f 712/770/1 770/834/1 771/724/1 710/769/1
f 770/834/1 712/770/1 714/772/1 766/832/1
f 772/728/1 710/769/1 771/724/1 660/723/1
f 700/760/1 707/764/1 772/728/1 663/727/1
f 693/753/606 127/165/94 129/167/95 702/763/608
f 683/743/1 685/745/1 690/750/1 697/756/1
f 673/737/1 683/743/1 697/756/1 671/734/1
f 6/2/1 2/1/1 59/73/1 655/719/1
f 251/304/221 282/345/253 284/346/254 249/302/219
f 251/304/221 267/305/222 269/324/237 282/345/253
f 236/108/47 83/103/42 255/104/43 240/288/205
f 137/181/106 183/236/153 773/237/154 139/180/105
f 773/237/154 167/216/133 142/183/108 139/180/105
f 167/216/133 773/237/154 178/228/145 169/219/136
f 774/66/1 52/67/1 3/5/1 776/8/1
f 48/61/1 774/66/1 775/835/1 782/49/1
f 775/835/1 774/66/1 776/8/1 777/836/1
f 4/7/1 779/837/1 777/836/1 776/8/1
f 781/45/21 775/835/1 777/836/1 778/36/15
f 779/837/1 27/33/12 778/36/15 777/836/1
f 779/837/1 780/17/1 25/31/10 27/33/12
f 780/17/1 779/837/1 4/7/1 7/9/1
f 780/17/1 12/16/1 18/24/3 25/31/10
f 35/42/20 781/45/21 778/36/15 28/35/14
f 34/43/1 782/49/1 775/835/1 781/45/21
