# Blender 4.5.12 LTS
# www.blender.org
o DPadRight_x
v -43.930069 -23.402487 21.519463
v -43.612316 -23.445578 21.519453
v -43.928871 -23.402647 20.875193
v -44.352287 -23.345243 21.519463
v -43.928623 -23.402681 22.163727
v -43.612003 -23.445616 22.212029
v -44.347931 -23.345831 22.056776
v -43.934063 -23.401945 22.807884
v -43.946022 -23.400328 23.199181
v -43.613285 -23.445440 22.904600
v -44.363388 -23.343729 22.593021
v -44.834846 -23.279799 22.321339
v -44.396709 -23.339212 22.907213
v -44.459312 -23.330717 23.158237
v -44.891762 -23.272085 22.545668
v -44.994205 -23.258188 22.720070
v -45.354607 -23.209322 22.192497
v -45.281986 -23.219175 22.054169
v -45.499043 -23.189741 22.293364
v -45.723431 -23.159311 21.890261
v -45.866371 -23.134501 21.715652
v -45.902164 -23.135077 21.933527
v -45.579189 -23.178873 21.880695
v -45.644203 -23.164629 21.695026
v -45.289848 -23.218111 21.792009
v -45.671696 -23.155470 21.519457
v -45.331272 -23.212492 21.519463
v -45.639950 -23.164209 21.342947
v -45.923885 -23.121275 21.519455
v -46.123501 -23.094221 21.519463
v -45.862541 -23.134043 21.321939
v -46.055138 -23.107931 21.300295
v -45.723431 -23.159311 21.148661
v -45.354614 -23.209322 20.846424
v -45.579189 -23.178873 21.158222
v -45.902164 -23.135077 21.105404
v -46.143162 -23.102396 21.046448
v -45.499031 -23.189741 20.745554
v -44.994202 -23.258188 20.318851
v -45.696640 -23.162947 20.616379
v -45.949081 -23.128710 20.456985
v -45.139267 -23.238523 20.103020
v -45.329552 -23.212717 19.856230
v -44.558266 -23.317305 19.577923
v -44.694771 -23.298788 19.245922
v -44.047241 -23.386602 19.143227
v -44.459312 -23.330717 19.880678
v -44.396698 -23.339212 20.131706
v -43.979286 -23.395823 19.520550
v -43.638977 -23.441954 19.327951
v -43.946011 -23.400328 19.839737
v -43.934052 -23.401945 20.231030
v -43.616180 -23.445051 19.695301
v -43.264938 -23.492678 19.632301
v -43.613281 -23.445440 20.134306
v -43.260727 -23.493254 20.093636
v -43.612053 -23.445612 20.826878
v -43.258095 -23.493608 20.806543
v -43.257820 -23.493643 21.519463
v -42.903095 -23.541742 20.801126
v -42.903301 -23.541708 21.519463
v -41.306774 -23.758200 20.761496
v -42.903103 -23.541746 20.082790
v -41.305603 -23.758364 20.003529
v -42.903637 -23.541670 19.610979
v -41.304825 -23.758474 19.499338
v -42.922844 -23.539064 19.208155
v -41.315254 -23.757048 19.066362
v -42.978844 -23.531473 18.746071
v -43.288795 -23.489439 19.242281
v -43.350349 -23.481092 18.793411
v -43.437347 -23.469297 18.340345
v -43.699684 -23.433729 18.901073
v -43.789162 -23.421602 18.462305
v -44.147133 -23.373049 18.742470
v -43.805153 -23.331053 18.250807
v -44.142849 -23.288260 18.505394
v -43.498940 -23.371229 18.154724
v -43.805855 -23.166914 18.113552
v -44.118568 -23.124380 18.347811
v -43.546722 -23.202227 18.040726
v -43.803833 -22.203741 18.115416
v -43.801807 -21.240583 18.117279
v -44.116119 -22.171888 18.349688
v -43.545925 -22.230158 18.042553
v -43.191647 -22.266241 18.001366
v -43.545116 -21.258085 18.044382
v -43.543522 -20.356913 18.048037
v -43.190929 -21.282103 18.002983
v -43.189518 -20.356810 18.006218
v -41.451534 -21.399923 17.800470
v -41.447269 -20.356951 17.803516
v -39.684021 -21.519613 17.643585
v -41.453667 -22.442904 17.798948
v -41.455807 -23.485876 17.797424
v -39.687572 -22.622404 17.642153
v -38.863178 -22.706179 17.613062
v -39.691120 -23.725187 17.640718
v -39.700356 -23.884031 17.755476
v -38.867249 -23.837019 17.611872
v -38.889496 -23.993776 17.725096
v -38.520779 -23.884142 17.676123
v -38.543274 -24.039717 17.782263
v -38.169483 -23.931913 17.810610
v -38.516895 -22.741365 17.676954
v -38.513008 -21.598577 17.677782
v -38.165539 -22.777021 17.811102
v -38.161594 -21.622133 17.811598
v -37.858643 -22.808142 18.008108
v -37.854565 -21.642630 18.008303
v -37.621365 -22.832182 18.266943
v -37.862717 -23.973650 18.007917
v -37.894360 -24.119234 18.034529
v -37.625580 -24.005938 18.266998
v -37.706684 -24.149294 18.313393
v -37.441940 -24.030924 18.623156
v -37.540859 -24.174086 18.670105
v -37.313442 -24.048380 19.124752
v -37.437527 -22.850798 18.623049
v -37.433105 -21.670683 18.622942
v -37.308884 -22.863836 19.124666
v -37.304325 -21.679300 19.124582
v -37.234325 -22.871405 19.787716
v -37.238964 -24.058489 19.787760
v -37.229691 -21.684324 19.787676
v -37.206978 -22.874186 20.652630
v -37.211628 -22.873716 21.519457
v -37.202316 -21.686163 20.652615
v -37.211643 -24.062201 20.652649
v -37.330738 -24.203917 20.662910
v -37.216290 -24.061575 21.519461
v -37.335213 -24.203276 21.519455
v -37.210960 -24.062296 22.386253
v -37.330036 -24.203997 22.375994
v -37.238968 -24.058489 23.251120
v -37.206287 -22.874254 22.386269
v -37.234329 -22.871405 23.251165
v -37.201630 -21.686213 22.386290
v -37.229694 -21.684324 23.251215
v -37.192291 -20.353090 22.386337
v -37.206974 -21.685850 21.519455
v -37.197647 -20.353098 21.519451
v -37.172348 -20.278250 21.519451
v -37.192986 -20.353090 20.652569
v -37.220421 -20.353117 19.787590
v -37.167694 -20.278238 20.651684
v -37.092606 -20.253721 20.649021
v -37.195171 -20.278261 19.785822
v -37.270279 -20.278349 19.119865
v -37.120197 -20.253744 19.780502
v -37.070286 -20.254057 19.776955
v -37.196247 -20.253805 19.106251
v -37.146954 -20.254126 19.097157
v -37.329891 -20.253992 18.586800
v -37.282902 -20.254301 18.568777
v -37.525719 -20.254393 18.208870
v -37.400490 -20.278559 18.613739
v -37.587776 -20.279020 18.252296
v -37.424278 -20.353407 18.622726
v -37.608707 -20.353899 18.266777
v -37.295216 -20.353197 19.124409
v -37.617138 -21.658434 18.266886
v -37.846420 -20.354586 18.008690
v -38.153713 -20.355322 17.812584
v -37.829971 -20.279684 17.989372
v -38.142189 -20.280390 17.790154
v -37.781322 -20.254972 17.931395
v -37.749069 -20.255175 17.892662
v -38.108292 -20.255594 17.722763
v -38.085873 -20.255709 17.677790
v -38.478043 -20.256128 17.582754
v -38.464714 -20.256212 17.534340
v -38.843403 -20.256685 17.516411
v -38.498272 -20.281008 17.655306
v -38.848904 -20.281649 17.591627
v -38.505245 -20.355982 17.679440
v -38.850975 -20.356634 17.616631
v -38.859108 -21.575338 17.614252
v -39.676933 -20.356997 17.646450
v -39.678249 -20.282000 17.621584
v -41.449665 -20.281939 17.778755
v -39.682842 -20.256979 17.546736
v -39.685978 -20.256948 17.496819
v -41.457264 -20.256914 17.704174
v -41.462368 -20.256891 17.654428
v -43.201096 -20.256777 17.907068
v -43.206917 -20.256762 17.857409
v -43.563236 -20.256853 17.949869
v -43.192379 -20.281801 17.981516
v -43.548405 -20.281897 18.023588
v -43.808949 -20.282187 18.098402
v -43.797768 -20.357218 18.121008
v -43.842953 -20.257109 18.030197
v -44.124630 -20.282331 18.336245
v -44.745953 -20.282171 18.909908
v -44.108780 -20.357370 18.355316
v -44.172695 -20.257235 18.278648
v -44.204777 -20.257147 18.240217
v -44.797489 -20.257082 18.855513
v -44.831863 -20.257017 18.819206
v -45.561321 -20.256842 19.598221
v -45.596172 -20.256796 19.562370
v -46.323311 -20.256609 20.338966
v -45.509083 -20.281912 19.651947
v -46.270035 -20.281649 20.391680
v -45.491783 -20.356932 19.669706
v -46.252354 -20.356653 20.409101
v -45.494728 -21.125650 19.665758
v -44.728916 -20.357203 18.927902
v -44.733017 -21.177359 18.924023
v -44.113670 -21.219389 18.351564
v -44.735073 -22.108900 18.922083
v -45.496193 -22.031492 19.663782
v -44.737129 -23.040472 18.920143
v -45.497677 -22.937334 19.661808
v -44.729923 -23.204317 19.049171
v -45.433735 -23.105268 19.732925
v -46.134323 -23.014837 20.409136
v -46.685211 -22.946409 20.976669
v -46.256378 -22.834429 20.401300
v -46.839973 -22.755239 21.014524
v -46.255371 -21.954245 20.403252
v -46.254364 -21.074057 20.405201
v -46.839027 -21.894796 21.016388
v -46.838078 -21.034349 21.018250
v -46.986217 -21.874838 21.255701
v -46.988079 -22.728647 21.254620
v -46.984356 -21.021013 21.256765
v -47.046944 -21.865164 21.519081
v -46.987671 -21.875387 21.782782
v -47.049351 -22.715776 21.518961
v -47.044544 -21.014536 21.519201
v -47.039726 -20.356264 21.519438
v -46.985725 -21.021379 21.781761
v -46.981800 -20.356329 21.779772
v -46.837959 -21.034365 22.020990
v -46.254311 -21.074072 22.633791
v -46.836178 -20.356436 22.016954
v -46.838840 -21.894815 22.023008
v -46.255287 -21.954264 22.635782
v -46.839725 -22.755270 22.025024
v -46.256260 -22.834452 22.637772
v -46.685070 -22.946409 22.062569
v -46.989613 -22.729383 21.783825
v -46.852657 -22.915644 21.803701
v -46.920021 -22.899176 21.519203
v -46.634293 -23.030378 21.810999
v -46.446545 -23.061262 22.076635
v -46.314644 -23.073717 21.767361
v -46.712376 -23.014364 21.519453
v -46.386246 -23.058580 21.519457
v -46.631287 -23.029814 21.227041
v -46.311108 -23.073214 21.270409
v -46.850563 -22.915400 21.234617
v -46.446537 -23.061262 20.962278
v -46.058914 -23.108400 21.737341
v -46.143162 -23.102396 21.992474
v -45.696644 -23.162947 22.422543
v -45.139278 -23.238516 22.935890
v -45.949074 -23.128721 22.581932
v -45.329559 -23.212717 23.182678
v -46.134247 -23.014849 22.629862
v -45.433754 -23.105268 23.305969
v -45.497696 -22.937323 23.377069
v -44.729897 -23.204325 23.989771
v -44.737064 -23.040483 24.118814
v -44.142662 -23.288313 24.533619
v -44.694790 -23.298788 23.792995
v -44.147137 -23.373049 24.296448
v -44.558273 -23.317305 23.460999
v -44.047245 -23.386602 23.895689
v -43.699707 -23.433729 24.137835
v -43.979286 -23.395823 23.518372
v -43.638996 -23.441954 23.710957
v -43.616169 -23.445051 23.343607
v -43.288815 -23.489439 23.796635
v -43.350361 -23.481092 24.245508
v -42.922863 -23.539064 23.830761
v -43.264946 -23.492678 23.406620
v -42.903645 -23.541670 23.427942
v -43.260731 -23.493254 22.945280
v -43.258041 -23.493616 22.232376
v -42.903114 -23.541746 22.956127
v -41.305622 -23.758364 23.035393
v -42.903091 -23.541742 22.237795
v -41.306789 -23.758196 22.277428
v -39.699600 -23.976130 22.313210
v -41.307339 -23.758120 21.519463
v -39.700432 -23.976011 21.519457
v -38.958572 -24.076620 21.519455
v -39.699589 -23.976133 20.725706
v -38.958004 -24.076693 20.711477
v -39.697830 -23.976374 19.931955
v -38.956825 -24.076849 19.903498
v -39.696644 -23.976530 19.404940
v -38.956043 -24.076956 19.372343
v -39.697639 -23.976397 18.953600
v -38.951473 -24.077578 18.920893
v -39.702496 -23.975744 18.440229
v -38.938961 -24.079275 18.407377
v -39.708534 -23.974920 17.938395
v -41.347778 -23.752642 18.572788
v -41.394283 -23.746336 18.087055
v -43.058868 -23.520617 18.284235
v -41.428417 -23.650164 17.907839
v -43.131832 -23.420927 18.106201
v -43.192352 -23.250368 17.999748
v -38.914730 -24.082548 17.905867
v -38.569424 -24.129381 17.953714
v -38.597328 -24.125601 18.420031
v -38.229164 -24.175520 18.046171
v -38.217773 -24.177073 18.423981
v -37.952682 -24.213011 18.109430
v -38.200344 -24.083700 17.898283
v -37.843685 -24.227797 18.368162
v -37.699154 -24.247393 18.731039
v -38.151779 -24.186014 18.837217
v -37.596706 -24.261278 19.208914
v -37.424038 -24.190931 19.161749
v -37.536030 -24.269518 19.832344
v -38.099709 -24.193071 19.290998
v -38.066055 -24.197634 19.865837
v -38.588562 -24.126783 19.351160
v -38.596317 -24.125738 18.903631
v -38.580334 -24.127901 19.890633
v -38.577278 -24.128321 20.705025
v -38.578197 -24.128195 21.519451
v -38.053024 -24.199404 20.692396
v -37.513374 -24.272589 20.675196
v -38.055771 -24.199038 21.519455
v -38.052525 -24.199476 22.346521
v -37.517586 -24.272013 21.519455
v -37.512634 -24.272692 22.363724
v -37.536037 -24.269518 23.206577
v -37.596722 -24.261278 23.829998
v -37.355869 -24.200430 23.230850
v -38.066063 -24.197634 23.173084
v -38.580341 -24.127901 23.148272
v -38.099716 -24.193071 23.747921
v -38.151787 -24.186014 24.201698
v -38.588581 -24.126783 23.687744
v -38.956059 -24.076956 23.666559
v -38.596317 -24.125738 24.135275
v -38.951481 -24.077578 24.118013
v -38.597347 -24.125601 24.618874
v -38.938969 -24.079275 24.631529
v -38.569431 -24.129381 25.085188
v -38.217781 -24.177073 24.614927
v -37.843693 -24.227797 24.670753
v -38.229172 -24.175520 24.992743
v -37.952679 -24.213011 24.929487
v -38.200363 -24.083700 25.140631
v -38.543289 -24.039717 25.256636
v -38.169529 -23.931906 25.228310
v -37.894367 -24.119234 25.004385
v -37.862728 -23.973650 25.030994
v -37.706760 -24.149282 24.725609
v -37.625706 -24.005919 24.772091
v -37.540840 -24.174093 24.368784
v -37.699162 -24.247393 24.307880
v -37.441914 -24.030924 24.415712
v -37.424034 -24.190931 23.877111
v -37.313431 -24.048380 23.914061
v -37.308876 -22.863836 23.914169
v -37.437504 -22.850794 24.415827
v -37.304325 -21.679300 23.914280
v -37.433098 -21.670683 24.415945
v -37.295216 -20.353197 23.914499
v -37.424278 -20.353407 24.416180
v -37.220421 -20.353117 23.251310
v -37.270279 -20.278349 23.919046
v -37.400490 -20.278559 24.425163
v -37.195171 -20.278261 23.253084
v -37.196247 -20.253805 23.932653
v -37.146954 -20.254126 23.941755
v -37.329891 -20.253992 24.452112
v -37.120197 -20.253744 23.258398
v -37.070286 -20.254057 23.261951
v -37.091915 -20.253725 22.389885
v -37.041924 -20.254038 22.391663
v -37.097256 -20.253729 21.519451
v -37.167000 -20.278234 22.387222
v -37.047256 -20.254049 21.519451
v -36.972099 -20.229513 21.519451
v -37.042614 -20.254042 20.647245
v -36.967468 -20.229509 20.644583
v -36.941994 -20.154673 20.643696
v -36.995255 -20.229528 19.771637
v -36.969822 -20.154684 19.769863
v -37.072861 -20.229578 19.083544
v -37.047745 -20.154734 19.079010
v -37.212234 -20.229731 18.541836
v -37.188271 -20.154867 18.532864
v -37.422348 -20.230036 18.136387
v -37.401230 -20.155153 18.121925
v -37.700363 -20.230452 17.834673
v -37.484463 -20.254663 18.179817
v -37.683723 -20.155554 17.815346
v -38.051918 -20.230913 17.610395
v -38.040215 -20.155977 17.587929
v -38.444431 -20.231321 17.461769
v -38.437298 -20.156359 17.437582
v -38.834358 -20.231726 17.391005
v -38.832169 -20.156740 17.365919
v -39.690525 -20.231932 17.421936
v -38.839909 -20.256681 17.466249
v -39.691719 -20.156931 17.396975
v -41.469921 -20.231848 17.579813
v -41.472172 -20.156851 17.554941
v -43.215584 -20.231726 17.782921
v -43.218273 -20.156713 17.758095
v -43.587963 -20.231787 17.826929
v -43.592720 -20.156775 17.802343
v -43.899693 -20.231962 17.916483
v -43.573174 -20.256842 17.900696
v -43.865704 -20.257040 17.984737
v -43.910866 -20.156942 17.893730
v -44.252846 -20.232058 18.182573
v -44.268734 -20.157022 18.163361
v -44.883411 -20.231932 18.764763
v -44.900486 -20.156908 18.746620
v -45.648426 -20.231737 19.508593
v -45.665764 -20.156706 19.490675
v -46.412136 -20.231543 20.250999
v -46.429867 -20.156527 20.233421
v -47.009781 -20.231379 20.878344
v -46.358845 -20.256586 20.303770
v -46.951878 -20.256392 20.926285
v -46.913284 -20.256399 20.958271
v -47.123775 -20.256319 21.208727
v -47.194057 -20.256281 21.519451
v -47.075981 -20.256311 21.225485
v -47.195469 -20.231314 21.183611
v -47.219360 -20.156313 21.175241
v -47.271366 -20.231283 21.519449
v -47.297138 -20.156282 21.519449
v -47.197044 -20.231314 21.854923
v -47.220982 -20.156313 21.863281
v -47.009781 -20.231379 22.160570
v -47.125221 -20.256319 21.829838
v -47.077343 -20.256308 21.813105
v -46.951878 -20.256392 22.112627
v -46.358845 -20.256586 22.735138
v -46.913284 -20.256399 22.080645
v -46.323311 -20.256609 22.699947
v -46.855400 -20.281424 22.032759
v -46.270035 -20.281649 22.647228
v -47.005573 -20.281324 21.788050
v -47.065285 -20.281267 21.519451
v -47.142521 -20.256266 21.519451
v -47.004341 -20.281324 21.250572
v -46.980610 -20.356329 21.258850
v -46.855404 -20.281424 21.006159
v -46.836189 -20.356436 21.021975
v -46.252354 -20.356653 22.629808
v -45.509083 -20.281912 23.386961
v -44.745953 -20.282171 24.129000
v -45.491783 -20.356932 23.369198
v -45.561321 -20.256842 23.440685
v -45.596172 -20.256796 23.476542
v -44.797489 -20.257082 24.183393
v -44.831863 -20.257017 24.219704
v -44.172707 -20.257235 24.760263
v -44.204781 -20.257147 24.798689
v -43.842941 -20.257109 25.008707
v -44.124641 -20.282331 24.702665
v -43.808945 -20.282187 24.940500
v -44.108776 -20.357370 24.683596
v -43.797771 -20.357218 24.917891
v -44.113480 -21.219419 24.687429
v -44.728916 -20.357203 24.111004
v -44.732994 -21.177359 24.114906
v -45.494740 -21.125647 23.373133
v -44.735031 -22.108923 24.116859
v -45.496216 -22.031488 23.375101
v -44.115833 -22.171934 24.689350
v -43.804131 -22.203718 24.923271
v -44.118183 -23.124449 24.691269
v -43.806244 -23.166868 24.925064
v -43.805355 -23.331011 24.787935
v -43.546730 -23.202227 24.998178
v -43.498947 -23.371229 24.884184
v -43.192280 -23.250380 25.039167
v -43.545925 -22.230158 24.996351
v -43.191593 -22.266241 25.037550
v -43.545120 -21.258085 24.994524
v -43.190903 -21.282110 25.035929
v -43.543514 -20.356913 24.990868
v -43.802010 -21.240557 24.921476
v -43.189518 -20.356810 25.032692
v -43.548405 -20.281897 25.015314
v -43.192375 -20.281801 25.057396
v -43.563236 -20.256853 25.089035
v -43.573166 -20.256853 25.138208
v -43.201092 -20.256777 25.131840
v -43.206913 -20.256762 25.181503
v -41.457264 -20.256914 25.334730
v -41.462368 -20.256891 25.384476
v -39.682842 -20.256979 25.492165
v -41.449665 -20.281939 25.260155
v -41.447269 -20.356951 25.235390
v -39.678249 -20.282000 25.417320
v -38.848911 -20.281649 25.447279
v -39.676933 -20.356997 25.392456
v -38.850979 -20.356634 25.422279
v -39.683994 -21.519621 25.395319
v -38.859135 -21.575338 25.424646
v -41.451576 -21.399916 25.238428
v -39.687523 -22.622419 25.396749
v -38.863205 -22.706179 25.425835
v -39.691055 -23.725203 25.398180
v -41.453728 -22.442892 25.239948
v -41.455883 -23.485861 25.241468
v -41.428455 -23.650160 25.131067
v -43.131794 -23.420927 24.932718
v -39.700325 -23.884039 25.283432
v -41.394295 -23.746336 24.951862
v -39.708534 -23.974920 25.100523
v -41.347786 -23.752642 24.466124
v -43.058876 -23.520617 24.754681
v -42.978848 -23.531473 24.292850
v -43.437355 -23.469297 24.698563
v -43.789169 -23.421602 24.576607
v -41.315258 -23.757048 23.972553
v -39.702511 -23.975744 24.598684
v -39.697655 -23.976397 24.085312
v -39.696663 -23.976530 23.633976
v -39.697838 -23.976374 23.106962
v -41.304829 -23.758474 23.539581
v -38.956833 -24.076849 23.135416
v -38.958012 -24.076693 22.327436
v -38.577133 -24.128340 22.333878
v -38.914738 -24.082548 25.133039
v -38.889515 -23.993776 25.313797
v -38.867283 -23.837019 25.427017
v -38.520798 -23.884142 25.362772
v -38.516911 -22.741365 25.361944
v -38.165573 -22.777014 25.227814
v -38.513023 -21.598577 25.361120
v -38.161625 -21.622133 25.227318
v -38.505245 -20.355986 25.359470
v -38.153721 -20.355322 25.226326
v -38.498272 -20.281019 25.383600
v -38.142189 -20.280390 25.248756
v -38.478043 -20.256132 25.456154
v -38.464714 -20.256212 25.504570
v -38.843410 -20.256685 25.522499
v -38.108295 -20.255594 25.316143
v -38.085880 -20.255709 25.361118
v -37.781322 -20.254980 25.107508
v -37.749069 -20.255175 25.146248
v -37.525719 -20.254385 24.830030
v -37.829971 -20.279688 25.049534
v -37.587780 -20.279016 24.786606
v -37.846420 -20.354589 25.030216
v -37.608707 -20.353899 24.772129
v -37.854576 -21.642637 25.030607
v -37.617207 -21.658430 24.772112
v -37.858650 -22.808146 25.030798
v -37.621456 -22.832174 24.772100
v -37.484463 -20.254660 24.859079
v -37.282902 -20.254297 24.470131
v -37.422348 -20.230032 24.902506
v -37.401230 -20.155153 24.916971
v -37.212234 -20.229727 24.497070
v -37.700363 -20.230452 25.204231
v -38.051926 -20.230913 25.428514
v -37.683723 -20.155554 25.223560
v -38.040218 -20.155977 25.450983
v -37.682602 -19.971899 25.223555
v -38.039139 -19.972353 25.450983
v -37.400112 -19.971460 24.916945
v -37.698326 -19.896807 25.204222
v -38.049965 -19.897284 25.428514
v -37.420311 -19.896338 24.902460
v -37.746727 -19.871515 25.146236
v -37.843941 -19.870939 25.030327
v -37.482121 -19.870977 24.859028
v -38.083614 -19.872087 25.361118
v -38.151329 -19.871702 25.226364
v -38.462570 -19.872610 25.504545
v -38.502949 -19.872393 25.359444
v -38.837879 -19.873114 25.572680
v -38.442574 -19.897722 25.577116
v -38.436275 -19.972757 25.601311
v -38.832603 -19.898157 25.647924
v -38.831200 -19.973166 25.672998
v -39.688904 -19.898420 25.616968
v -39.690830 -19.973421 25.641922
v -41.468605 -19.898458 25.459089
v -39.684109 -19.873438 25.542088
v -39.674789 -19.873495 25.392326
v -41.460854 -19.873484 25.384474
v -41.445568 -19.873552 25.235239
v -43.205799 -19.873476 25.181498
v -43.188328 -19.873522 25.032520
v -43.572166 -19.873587 25.138191
v -43.214607 -19.898428 25.255989
v -43.217739 -19.973425 25.280821
v -43.587078 -19.898527 25.211958
v -43.592228 -19.973509 25.236549
v -43.898899 -19.898733 25.122435
v -43.910419 -19.973711 25.145180
v -44.252159 -19.898855 24.856298
v -43.864796 -19.873808 25.054178
v -43.796772 -19.873983 24.917622
v -44.203991 -19.873953 24.798643
v -44.107754 -19.874170 24.683340
v -44.831230 -19.873861 24.219646
v -44.728054 -19.874056 24.110750
v -45.595741 -19.873705 23.476496
v -44.882854 -19.898779 24.274103
v -44.900173 -19.973749 24.292261
v -45.648045 -19.898638 23.530272
v -45.665554 -19.973608 23.548212
v -46.411945 -19.898470 22.787867
v -46.429756 -19.973467 22.805473
v -47.009727 -19.898352 22.160524
v -46.358620 -19.873522 22.735085
v -46.252007 -19.873598 22.629532
v -46.951832 -19.873369 22.112566
v -46.836018 -19.873404 22.016670
v -47.125221 -19.873312 21.829811
v -47.194084 -19.873285 21.519449
v -46.981575 -19.873312 21.779634
v -47.197041 -19.898310 21.854904
v -47.220989 -19.973307 21.863276
v -47.271389 -19.898283 21.519449
v -47.195461 -19.898306 21.183632
v -47.297153 -19.973288 21.519449
v -47.219364 -19.973303 21.175251
v -47.029045 -19.973345 20.862392
v -46.429756 -19.973467 20.233438
v -47.029060 -20.156374 20.862370
v -47.009727 -19.898352 20.878391
v -46.411945 -19.898470 20.251040
v -46.951832 -19.873369 20.926342
v -46.358620 -19.873522 20.303825
v -46.836018 -19.873404 21.022243
v -47.123775 -19.873312 21.208750
v -46.980392 -19.873316 21.258991
v -47.039482 -19.873266 21.519449
v -46.252007 -19.873598 20.409374
v -45.491173 -19.873827 19.669971
v -45.595741 -19.873705 19.562416
v -44.728054 -19.874056 18.928156
v -44.831230 -19.873861 18.819260
v -44.107746 -19.874170 18.355568
v -44.203987 -19.873953 18.240265
v -43.796772 -19.873983 18.121284
v -43.864796 -19.873808 17.984734
v -43.542507 -19.873655 18.048252
v -43.572170 -19.873590 17.900715
v -43.188328 -19.873522 18.006392
v -43.205799 -19.873476 17.857414
v -41.445568 -19.873552 17.803665
v -41.460854 -19.873484 17.654432
v -39.674789 -19.873495 17.646580
v -39.684109 -19.873438 17.496819
v -38.848789 -19.873064 17.616718
v -38.837872 -19.873114 17.466227
v -38.502945 -19.872381 17.679462
v -38.462566 -19.872610 17.534359
v -38.151329 -19.871702 17.812542
v -38.083614 -19.872087 17.677788
v -37.843941 -19.870939 18.008579
v -37.746727 -19.871511 17.892673
v -37.606098 -19.870214 18.266642
v -37.482128 -19.870977 18.179871
v -37.421558 -19.869707 18.622648
v -37.280525 -19.870596 18.568815
v -37.292435 -19.869474 19.124382
v -37.144554 -19.870409 19.097170
v -37.217625 -19.869402 19.787588
v -37.067875 -19.870348 19.776960
v -37.190186 -19.869383 20.652569
v -37.040199 -19.870329 20.647247
v -37.194843 -19.869394 21.519451
v -37.044846 -19.870333 21.519451
v -37.189487 -19.869379 22.386337
v -37.039513 -19.870325 22.391661
v -37.217625 -19.869402 23.251314
v -37.067875 -19.870348 23.261948
v -37.292435 -19.869482 23.914528
v -37.144554 -19.870413 23.941738
v -37.421562 -19.869711 24.416256
v -37.280529 -19.870600 24.470093
v -37.606098 -19.870214 24.772255
v -37.210178 -19.896025 24.497042
v -37.187138 -19.971170 24.506027
v -37.070774 -19.895868 23.955355
v -36.993156 -19.895811 23.267262
v -37.046597 -19.971018 23.959896
v -37.047745 -20.154734 23.959904
v -36.968670 -19.970968 23.269035
v -36.940155 -19.970957 22.395208
v -36.969822 -20.154684 23.269037
v -36.941311 -20.154673 22.395208
v -36.995255 -20.229528 23.267269
v -37.072861 -20.229578 23.955366
v -36.966778 -20.229509 22.394323
v -36.946629 -20.154680 21.519451
v -36.945477 -19.970964 21.519451
v -36.940842 -19.970957 20.643696
v -36.970005 -19.895803 21.519451
v -36.964684 -19.895796 22.394320
v -36.965370 -19.895796 20.644587
v -36.993156 -19.895811 19.771645
v -36.968670 -19.970968 19.769863
v -37.070774 -19.895868 19.083555
v -37.210178 -19.896017 18.541868
v -37.046597 -19.971018 19.079014
v -37.187138 -19.971151 18.532881
v -37.400120 -19.971460 18.121950
v -37.682602 -19.971895 17.815351
v -37.420315 -19.896338 18.136438
v -37.698326 -19.896807 17.834684
v -38.049965 -19.897284 17.610390
v -38.442570 -19.897722 17.461788
v -38.039139 -19.972353 17.587923
v -38.436275 -19.972757 17.437595
v -38.831192 -19.973166 17.365906
v -39.690830 -19.973421 17.396980
v -38.832596 -19.898157 17.390984
v -39.688904 -19.898420 17.421940
v -41.468605 -19.898458 17.579817
v -43.214611 -19.898428 17.782923
v -41.471443 -19.973448 17.554945
v -43.217739 -19.973425 17.758089
v -43.592232 -19.973516 17.802357
v -43.910419 -19.973711 17.893726
v -43.587086 -19.898539 17.826948
v -43.898899 -19.898733 17.916475
v -44.252155 -19.898855 18.182613
v -44.268349 -19.973825 18.163389
v -44.882854 -19.898779 18.764803
v -45.648045 -19.898638 19.508633
v -44.900173 -19.973749 18.746645
v -45.665554 -19.973608 19.490700
v -37.188271 -20.154867 24.506044
v -47.029045 -19.973345 22.176523
v -47.029060 -20.156374 22.176542
v -46.429867 -20.156527 22.805490
v -45.665764 -20.156706 23.548231
v -46.412136 -20.231543 22.787912
v -45.648426 -20.231737 23.530310
v -44.883411 -20.231932 24.274149
v -44.900486 -20.156908 24.292290
v -44.252857 -20.232058 24.856333
v -44.268745 -20.157022 24.875546
v -43.899681 -20.231962 25.122419
v -43.910866 -20.156946 25.145178
v -43.587959 -20.231787 25.211973
v -43.865704 -20.257044 25.054169
v -43.592720 -20.156778 25.236561
v -43.215584 -20.231726 25.255989
v -43.218273 -20.156713 25.280819
v -41.469921 -20.231848 25.459091
v -41.472172 -20.156851 25.483957
v -39.690525 -20.231932 25.616972
v -39.691719 -20.156931 25.641930
v -38.834373 -20.231726 25.647900
v -39.685978 -20.256948 25.542088
v -38.839912 -20.256681 25.572657
v -38.832176 -20.156740 25.672989
v -38.444435 -20.231321 25.577137
v -38.437302 -20.156363 25.601328
v -41.471443 -19.973448 25.483957
v -44.268353 -19.973825 24.875519
v -45.491173 -19.873827 23.368937
v -43.542503 -19.873648 24.990654
v -38.848789 -19.873064 25.422190
v -37.355865 -24.200430 19.808044
v -44.363388 -23.343740 20.445900
v -44.834854 -23.279799 20.717583
v -44.348698 -23.345736 20.982151
v -44.820045 -23.281809 21.116386
v -45.291885 -23.217833 21.247173
v -44.834255 -23.279882 21.519463
v -44.818569 -23.282007 21.922581
v -45.281986 -23.219175 20.984737
v -44.891754 -23.272085 20.493246
vn -0.1344 -0.9909 -0.0000
vn -0.1349 -0.9909 -0.0018
vn -0.1359 -0.9906 -0.0145
vn -0.1362 -0.9906 -0.0103
vn -0.1365 -0.9906 -0.0122
vn -0.1427 -0.9896 -0.0196
vn -0.1368 -0.9902 -0.0268
vn -0.1370 -0.9903 -0.0238
vn -0.1393 -0.9902 -0.0050
vn -0.1450 -0.9894 -0.0020
vn -0.1467 -0.9892 -0.0007
vn -0.1355 -0.9908 -0.0025
vn -0.1436 -0.9895 0.0193
vn -0.1399 -0.9901 0.0051
vn -0.1370 -0.9902 0.0268
vn -0.1356 -0.9908 -0.0022
vn -0.1373 -0.9902 0.0238
vn -0.1369 -0.9905 0.0145
vn -0.1362 -0.9905 0.0172
vn -0.1365 -0.9906 0.0123
vn -0.1350 -0.9908 0.0022
vn -0.1367 -0.9905 0.0127
vn -0.1371 -0.9903 0.0206
vn -0.3016 -0.9425 -0.1440
vn -0.2942 -0.9403 -0.1711
vn -0.2951 -0.9396 -0.1736
vn -0.2917 -0.9411 -0.1710
vn -0.2778 -0.9454 -0.1703
vn -0.1779 -0.9602 -0.2156
vn -0.1583 -0.9623 -0.2210
vn -0.2408 -0.9505 -0.1964
vn -0.5103 -0.7059 -0.4912
vn -0.3867 -0.7367 -0.5547
vn -0.2307 -0.7568 -0.6115
vn -0.6323 -0.2666 -0.7275
vn -0.4440 -0.2909 -0.8475
vn -0.2294 -0.3060 -0.9240
vn -0.4433 0.0026 -0.8964
vn -0.6402 0.0030 -0.7682
vn -0.1941 0.0020 -0.9810
vn -0.1954 0.0032 -0.9807
vn -0.4445 0.0042 -0.8958
vn -0.6404 0.0049 -0.7680
vn -0.1154 0.0018 -0.9933
vn -0.1521 -0.2992 -0.9420
vn -0.1158 0.0027 -0.9933
vn -0.4397 -0.1616 -0.8835
vn -0.1941 -0.1589 -0.9680
vn -0.1148 -0.1576 -0.9808
vn -0.1007 -0.1580 -0.9823
vn -0.1019 0.0025 -0.9948
vn -0.1019 0.0017 -0.9948
vn -0.0613 -0.1586 -0.9854
vn -0.0619 0.0021 -0.9981
vn -0.0617 0.0015 -0.9981
vn -0.1372 -0.2966 -0.9451
vn -0.0984 -0.2986 -0.9493
vn 0.0727 0.0011 -0.9974
vn 0.0736 0.0008 -0.9973
vn 0.0322 -0.2985 -0.9539
vn -0.1666 -0.7475 -0.6431
vn -0.1417 -0.7476 -0.6488
vn -0.0566 -0.7478 -0.6615
vn 0.2174 -0.2931 -0.9310
vn 0.0733 -0.7399 -0.6688
vn 0.2702 -0.0002 -0.9628
vn 0.3937 -0.2482 -0.8851
vn 0.2014 -0.6751 -0.7097
vn 0.4507 -0.0012 -0.8927
vn 0.2690 -0.0003 -0.9631
vn 0.4497 -0.0016 -0.8932
vn 0.6431 -0.0030 -0.7658
vn 0.6439 -0.0021 -0.7651
vn 0.6140 -0.2125 -0.7601
vn 0.8195 -0.0041 -0.5731
vn 0.8200 -0.0030 -0.5724
vn 0.7937 -0.2572 -0.5512
vn 0.4537 -0.6207 -0.6395
vn 0.5928 -0.6995 -0.3992
vn 0.8838 -0.3133 -0.3476
vn 0.5833 -0.7755 -0.2417
vn 0.9345 -0.0035 -0.3559
vn 0.9269 -0.3307 -0.1774
vn 0.5884 -0.7997 -0.1197
vn 0.9836 -0.0038 -0.1806
vn 0.9343 -0.0049 -0.3564
vn 0.9835 -0.0053 -0.1808
vn 0.9974 -0.0054 -0.0718
vn 0.9974 -0.0039 -0.0718
vn 0.9382 -0.3388 -0.0705
vn 0.9999 -0.0039 -0.0131
vn 0.9394 -0.3426 -0.0129
vn 0.9999 -0.0055 -0.0131
vn 1.0000 -0.0039 -0.0004
vn 0.9389 -0.3443 -0.0004
vn 1.0000 -0.0055 -0.0004
vn 0.5849 -0.8098 -0.0469
vn 0.5804 -0.8143 -0.0084
vn 0.5775 -0.8164 -0.0003
vn 0.9999 -0.0039 0.0131
vn 0.9394 -0.3426 0.0130
vn 0.5805 -0.8142 0.0084
vn 0.5848 -0.8098 0.0472
vn 0.9382 -0.3388 0.0709
vn 0.9974 -0.0039 0.0722
vn 0.9999 -0.0055 0.0131
vn 0.9974 -0.0054 0.0722
vn 0.9835 -0.1664 0.0713
vn 0.9860 -0.1660 0.0129
vn 0.9862 -0.1656 -0.0004
vn 0.9860 -0.1660 -0.0129
vn 0.7043 -0.7099 -0.0003
vn 0.7005 -0.7136 0.0092
vn 0.7007 -0.7134 -0.0092
vn 0.9835 -0.1664 -0.0709
vn 0.6956 -0.7167 -0.0501
vn 0.1521 -0.9884 -0.0020
vn 0.1546 -0.9880 -0.0001
vn 0.1495 -0.9887 -0.0107
vn 0.1445 -0.9892 -0.0264
vn 0.6813 -0.7212 -0.1252
vn 0.9697 -0.1671 -0.1784
vn 0.1581 -0.9870 -0.0289
vn 0.1574 -0.9875 -0.0113
vn 0.1558 -0.9878 -0.0020
vn 0.1332 -0.9898 -0.0502
vn 0.1540 -0.9863 -0.0583
vn 0.6404 -0.7282 -0.2441
vn 0.1160 -0.9900 -0.0798
vn 0.1373 -0.9859 -0.0951
vn 0.5593 -0.7312 -0.3906
vn 0.9210 -0.1681 -0.3515
vn 0.8077 -0.1680 -0.5652
vn 0.6337 -0.1666 -0.7554
vn 0.4400 -0.7298 -0.5232
vn 0.4431 -0.1643 -0.8813
vn 0.3102 -0.7245 -0.6155
vn 0.0670 -0.9892 -0.1304
vn 0.0925 -0.9898 -0.1082
vn 0.0759 -0.9860 -0.1487
vn 0.1087 -0.9858 -0.1280
vn 0.0412 -0.9888 -0.1433
vn 0.0458 -0.9859 -0.1607
vn 0.1864 -0.7218 -0.6665
vn 0.0115 -0.9889 -0.1478
vn 0.0128 -0.9855 -0.1690
vn 0.0503 -0.7239 -0.6881
vn 0.2648 -0.1627 -0.9505
vn 0.0714 -0.1617 -0.9842
vn -0.0437 -0.7104 -0.7025
vn -0.0720 -0.7084 -0.7022
vn -0.0163 -0.9872 -0.1584
vn -0.0097 -0.9875 -0.1576
vn -0.0166 -0.9868 -0.1611
vn -0.0100 -0.9866 -0.1627
vn -0.0186 -0.9870 -0.1594
vn -0.0187 -0.9870 -0.1596
vn -0.0824 -0.7065 -0.7029
vn -0.0296 -0.9883 -0.1495
vn -0.0328 -0.9857 -0.1651
vn -0.1368 -0.7186 -0.6819
vn -0.3015 -0.7363 -0.6058
vn -0.0624 -0.9900 -0.1262
vn -0.6328 -0.1564 -0.7584
vn -0.4493 -0.7130 -0.5383
vn -0.1002 -0.9877 -0.1202
vn -0.1103 -0.9871 -0.1162
vn -0.4862 -0.7075 -0.5129
vn -0.6795 -0.1557 -0.7170
vn -0.1065 -0.9861 -0.1276
vn -0.0784 -0.9843 -0.1581
vn -0.1120 -0.9867 -0.1179
vn -0.1125 -0.9869 -0.1154
vn -0.1124 -0.9869 -0.1153
vn -0.4939 -0.7058 -0.5078
vn -0.1131 -0.9873 -0.1116
vn -0.1157 -0.9867 -0.1142
vn -0.5014 -0.7088 -0.4961
vn -0.6887 -0.1558 -0.7081
vn -0.7020 -0.1564 -0.6948
vn -0.7108 0.0042 -0.7033
vn -0.6974 0.0045 -0.7167
vn -0.6881 0.0049 -0.7256
vn -0.6883 0.0030 -0.7254
vn -0.6977 0.0027 -0.7164
vn -0.6833 -0.2532 -0.6848
vn -0.6925 -0.2495 -0.6769
vn -0.5469 -0.6890 -0.4756
vn -0.5563 -0.6792 -0.4787
vn -0.5628 -0.6764 -0.4752
vn -0.7065 -0.2356 -0.6674
vn -0.5998 -0.6909 -0.4036
vn -0.7870 -0.2537 -0.5623
vn -0.7110 0.0024 -0.7032
vn -0.7923 0.0023 -0.6102
vn -0.7927 0.0041 -0.6096
vn -0.9252 0.0025 -0.3794
vn -0.9258 0.0044 -0.3780
vn -0.8987 -0.2775 -0.3397
vn -0.9593 -0.2825 -0.0031
vn -1.0000 0.0027 -0.0027
vn -1.0000 0.0048 -0.0025
vn -0.9257 0.0025 0.3783
vn -0.9261 0.0045 0.3771
vn -0.8992 -0.2777 0.3382
vn -0.9144 -0.1606 0.3717
vn -0.9864 -0.1641 -0.0022
vn -0.9142 -0.1603 -0.3722
vn -0.7917 0.0042 0.6109
vn -0.7826 -0.1581 0.6021
vn -0.7912 0.0024 0.6115
vn -0.7109 0.0025 0.7032
vn -0.7108 0.0042 0.7034
vn -0.7020 -0.1564 0.6948
vn -0.7857 -0.2528 0.5646
vn -0.7064 -0.2357 0.6675
vn -0.5994 -0.6898 0.4062
vn -0.5627 -0.6764 0.4752
vn -0.6557 -0.7181 0.2332
vn -0.6849 -0.7287 -0.0029
vn -0.3392 -0.9407 -0.0023
vn -0.3208 -0.9440 0.0774
vn -0.3012 -0.9424 0.1458
vn -0.1369 -0.9904 -0.0207
vn -0.1363 -0.9906 -0.0107
vn -0.1355 -0.9908 -0.0019
vn -0.3195 -0.9445 -0.0764
vn -0.6547 -0.7190 -0.2332
vn -0.2942 -0.9403 0.1711
vn -0.2951 -0.9396 0.1736
vn -0.5563 -0.6792 0.4787
vn -0.6925 -0.2495 0.6769
vn -0.2917 -0.9411 0.1710
vn -0.5469 -0.6889 0.4757
vn -0.6833 -0.2531 0.6849
vn -0.5103 -0.7059 0.4912
vn -0.6323 -0.2665 0.7275
vn -0.2778 -0.9454 0.1704
vn -0.2408 -0.9505 0.1964
vn -0.1453 -0.9617 -0.2326
vn -0.1164 -0.9624 -0.2455
vn -0.1533 -0.9616 -0.2276
vn -0.1800 -0.7519 -0.6342
vn -0.0695 -0.9646 -0.2545
vn -0.0324 -0.9570 -0.2883
vn 0.1592 -0.9762 -0.1473
vn 0.1560 -0.9355 -0.3169
vn 0.1359 -0.9868 -0.0886
vn 0.1261 -0.9911 -0.0419
vn 0.1197 -0.9927 -0.0162
vn 0.1116 -0.9937 -0.0001
vn 0.1152 -0.9933 -0.0027
vn 0.1154 -0.9933 0.0027
vn 0.1197 -0.9927 0.0163
vn 0.1261 -0.9911 0.0419
vn 0.5884 -0.7997 0.1196
vn 0.1359 -0.9868 0.0886
vn -0.0695 -0.9646 0.2545
vn -0.1164 -0.9624 0.2455
vn -0.0324 -0.9570 0.2884
vn 0.1592 -0.9762 0.1473
vn 0.1561 -0.9355 0.3169
vn 0.4537 -0.6206 0.6395
vn 0.2014 -0.6751 0.7098
vn 0.0733 -0.7398 0.6688
vn 0.3937 -0.2482 0.8851
vn 0.2174 -0.2931 0.9310
vn 0.6140 -0.2124 0.7602
vn 0.5928 -0.6994 0.3992
vn 0.7937 -0.2572 0.5513
vn 0.8838 -0.3133 0.3476
vn 0.5833 -0.7754 0.2417
vn 0.9269 -0.3307 0.1774
vn 0.9836 -0.0038 0.1806
vn 0.9345 -0.0035 0.3559
vn 0.9835 -0.0053 0.1808
vn 0.9343 -0.0049 0.3564
vn 0.9697 -0.1670 0.1784
vn 0.9210 -0.1681 0.3515
vn 0.6813 -0.7212 0.1252
vn 0.6405 -0.7282 0.2441
vn 0.6956 -0.7166 0.0504
vn 0.1445 -0.9892 0.0264
vn 0.1332 -0.9898 0.0502
vn 0.1496 -0.9887 0.0108
vn 0.1574 -0.9875 0.0114
vn 0.1581 -0.9870 0.0289
vn 0.1541 -0.9863 0.0583
vn 0.1520 -0.9884 0.0020
vn 0.1559 -0.9878 0.0020
vn 0.1534 -0.9882 -0.0001
vn 0.7019 -0.7123 -0.0003
vn 0.7053 -0.7088 0.0093
vn 0.7052 -0.7090 -0.0093
vn 0.7063 -0.7060 -0.0510
vn 0.9860 -0.1665 -0.0004
vn 0.9860 -0.1661 -0.0131
vn 0.9836 -0.1658 -0.0710
vn 0.9699 -0.1654 -0.1786
vn 0.7003 -0.7021 -0.1288
vn 0.9214 -0.1649 -0.3520
vn 0.6702 -0.6967 -0.2558
vn 0.8078 -0.1642 -0.5661
vn 0.5899 -0.6939 -0.4129
vn 0.6335 -0.1631 -0.7564
vn 0.4628 -0.6936 -0.5520
vn 0.4425 -0.1619 -0.8820
vn 0.3225 -0.6958 -0.6418
vn 0.2641 -0.1608 -0.9510
vn 0.1925 -0.6963 -0.6914
vn 0.0708 -0.1598 -0.9846
vn 0.0519 -0.6938 -0.7183
vn -0.0615 -0.1596 -0.9853
vn -0.0442 -0.7034 -0.7094
vn -0.1007 -0.1596 -0.9820
vn -0.0724 -0.7049 -0.7056
vn -0.1150 -0.1598 -0.9804
vn -0.0824 -0.7066 -0.7028
vn -0.1948 -0.1588 -0.9679
vn -0.1415 -0.6960 -0.7040
vn -0.4407 -0.1587 -0.8835
vn -0.3251 -0.6849 -0.6520
vn -0.4580 -0.6995 -0.5486
vn -0.6328 -0.1582 -0.7580
vn -0.6791 -0.1588 -0.7167
vn -0.4882 -0.7045 -0.5151
vn -0.6882 -0.1593 -0.7078
vn -0.4934 -0.7065 -0.5073
vn -0.7016 -0.1594 -0.6945
vn -0.5048 -0.7040 -0.4995
vn -0.7835 -0.1585 -0.6008
vn -0.5729 -0.6923 -0.4387
vn -0.1360 -0.9853 -0.1034
vn -0.1187 -0.9887 -0.0911
vn -0.1613 -0.9847 -0.0661
vn -0.1324 -0.9898 -0.0528
vn -0.6734 -0.6872 -0.2725
vn -0.1768 -0.9843 -0.0004
vn -0.7298 -0.6837 -0.0016
vn -0.1342 -0.9909 -0.0002
vn -0.9155 -0.1593 -0.3695
vn -0.9869 -0.1612 -0.0021
vn -0.9156 -0.1594 0.3690
vn -0.6737 -0.6870 0.2723
vn -0.1614 -0.9847 0.0661
vn -0.5720 -0.6925 0.4395
vn -0.7826 -0.1585 0.6021
vn -0.1356 -0.9853 0.1035
vn -0.1187 -0.9887 0.0914
vn -0.1319 -0.9899 0.0525
vn -0.1157 -0.9867 0.1142
vn -0.5048 -0.7040 0.4995
vn -0.1131 -0.9873 0.1116
vn -0.5488 -0.7218 0.4218
vn -0.5014 -0.7088 0.4961
vn -0.6302 -0.7333 0.2552
vn -0.6667 -0.7453 -0.0014
vn -0.6310 -0.7324 -0.2558
vn -0.7836 -0.1581 -0.6008
vn -0.5493 -0.7220 -0.4208
vn -0.6887 -0.1558 0.7081
vn -0.4939 -0.7058 0.5078
vn -0.1125 -0.9869 0.1154
vn -0.1103 -0.9871 0.1162
vn -0.4862 -0.7075 0.5129
vn -0.6795 -0.1557 0.7170
vn -0.1120 -0.9867 0.1179
vn -0.1124 -0.9869 0.1153
vn -0.1002 -0.9877 0.1202
vn -0.1065 -0.9861 0.1276
vn -0.4493 -0.7130 0.5383
vn -0.0624 -0.9900 0.1262
vn -0.0785 -0.9843 0.1581
vn -0.3015 -0.7363 0.6058
vn -0.6328 -0.1564 0.7584
vn -0.4397 -0.1617 0.8835
vn -0.6404 0.0049 0.7680
vn -0.4447 0.0042 0.8957
vn -0.6881 0.0049 0.7256
vn -0.6974 0.0045 0.7167
vn -0.6977 0.0027 0.7164
vn -0.6883 0.0030 0.7254
vn -0.6402 0.0030 0.7682
vn -0.4436 0.0026 0.8962
vn -0.4443 -0.2908 0.8473
vn -0.3869 -0.7366 0.5547
vn -0.2308 -0.7568 0.6116
vn -0.2296 -0.3060 0.9239
vn -0.1943 0.0020 0.9809
vn -0.1521 -0.2992 0.9420
vn -0.1800 -0.7519 0.6342
vn -0.1154 0.0018 0.9933
vn -0.1158 0.0027 0.9933
vn -0.1955 0.0032 0.9807
vn -0.1148 -0.1576 0.9808
vn -0.1941 -0.1589 0.9680
vn -0.0824 -0.7065 0.7029
vn -0.1368 -0.7186 0.6818
vn -0.0186 -0.9870 0.1594
vn -0.0295 -0.9883 0.1494
vn -0.0328 -0.9857 0.1651
vn -0.0186 -0.9870 0.1596
vn -0.0163 -0.9872 0.1584
vn -0.0166 -0.9868 0.1611
vn -0.0720 -0.7084 0.7021
vn -0.0097 -0.9875 0.1576
vn -0.0100 -0.9866 0.1627
vn -0.0437 -0.7104 0.7025
vn -0.1007 -0.1580 0.9823
vn -0.0613 -0.1586 0.9854
vn 0.0115 -0.9889 0.1478
vn 0.0503 -0.7239 0.6881
vn 0.0714 -0.1617 0.9842
vn -0.0619 0.0021 0.9981
vn 0.0727 0.0011 0.9974
vn -0.1019 0.0025 0.9948
vn -0.0617 0.0014 0.9981
vn 0.0736 0.0008 0.9973
vn -0.1019 0.0017 0.9948
vn -0.0984 -0.2986 0.9493
vn 0.0322 -0.2984 0.9539
vn -0.1372 -0.2966 0.9451
vn -0.1666 -0.7474 0.6431
vn -0.1417 -0.7476 0.6489
vn -0.1583 -0.9623 0.2211
vn -0.1533 -0.9616 0.2276
vn -0.1453 -0.9617 0.2326
vn -0.1779 -0.9601 0.2156
vn -0.0566 -0.7478 0.6615
vn 0.2702 -0.0002 0.9628
vn 0.4507 -0.0012 0.8927
vn 0.4497 -0.0016 0.8932
vn 0.2690 -0.0003 0.9631
vn 0.4431 -0.1643 0.8813
vn 0.2648 -0.1627 0.9505
vn 0.3102 -0.7245 0.6155
vn 0.1864 -0.7218 0.6665
vn 0.0670 -0.9892 0.1305
vn 0.0412 -0.9888 0.1434
vn 0.0759 -0.9860 0.1487
vn 0.0458 -0.9859 0.1608
vn 0.0128 -0.9855 0.1690
vn 0.0926 -0.9898 0.1082
vn 0.1087 -0.9858 0.1280
vn 0.4400 -0.7298 0.5232
vn 0.1160 -0.9900 0.0798
vn 0.1374 -0.9859 0.0951
vn 0.5593 -0.7312 0.3906
vn 0.6337 -0.1666 0.7554
vn 0.8077 -0.1680 0.5652
vn 0.6430 -0.0030 0.7658
vn 0.8195 -0.0041 0.5731
vn 0.6439 -0.0021 0.7651
vn 0.8199 -0.0030 0.5725
vn 0.5898 -0.6940 0.4129
vn 0.4628 -0.6937 0.5519
vn 0.6702 -0.6967 0.2558
vn 0.8078 -0.1642 0.5661
vn 0.6335 -0.1631 0.7564
vn 0.9214 -0.1649 0.3520
vn 0.3225 -0.6958 0.6418
vn 0.4425 -0.1619 0.8820
vn 0.4426 0.1568 0.8829
vn 0.6340 0.1556 0.7575
vn 0.8090 0.1546 0.5671
vn 0.4653 0.6883 0.5566
vn 0.3231 0.6920 0.6456
vn 0.5947 0.6872 0.4173
vn 0.1115 0.9845 0.1353
vn 0.0760 0.9851 0.1545
vn 0.1441 0.9843 0.1023
vn 0.0012 1.0000 0.0040
vn -0.0002 1.0000 0.0031
vn 0.0033 1.0000 0.0039
vn -0.0011 1.0000 0.0018
vn 0.0442 0.9854 0.1642
vn 0.1919 0.6942 0.6937
vn -0.0009 1.0000 0.0006
vn 0.0114 0.9854 0.1701
vn 0.0514 0.6929 0.7192
vn 0.2639 0.1579 0.9515
vn 0.0707 0.1589 0.9848
vn -0.0615 0.1600 0.9852
vn -0.0443 0.7035 0.7093
vn -0.0103 0.9867 0.1623
vn -0.1006 0.1603 0.9819
vn -0.0723 0.7054 0.7051
vn -0.0164 0.9869 0.1603
vn -0.0000 1.0000 -0.0004
vn -0.0002 1.0000 -0.0002
vn -0.0001 1.0000 -0.0004
vn -0.0188 0.9872 0.1587
vn -0.0824 0.7073 0.7021
vn -0.0005 1.0000 -0.0007
vn -0.0335 0.9860 0.1636
vn -0.1417 0.6970 0.7029
vn -0.1150 0.1605 0.9803
vn -0.1949 0.1599 0.9677
vn -0.4406 0.1607 0.8832
vn -0.3248 0.6863 0.6508
vn -0.0784 0.9846 0.1560
vn -0.6325 0.1609 0.7577
vn -0.4569 0.7012 0.5473
vn -0.1050 0.9865 0.1256
vn -0.0001 1.0000 -0.0012
vn 0.0007 1.0000 -0.0011
vn 0.0009 1.0000 -0.0008
vn -0.1101 0.9871 0.1165
vn -0.4869 0.7061 0.5141
vn 0.0007 1.0000 -0.0005
vn -0.1109 0.9872 0.1144
vn -0.4923 0.7077 0.5067
vn -0.6787 0.1612 0.7165
vn -0.6879 0.1611 0.7077
vn -0.7014 0.1604 0.6945
vn -0.5040 0.7048 0.4992
vn -0.1146 0.9869 0.1138
vn -0.7824 0.1590 0.6021
vn -0.5716 0.6929 0.4395
vn -0.1350 0.9854 0.1035
vn 0.0003 1.0000 -0.0000
vn 0.0005 1.0000 -0.0002
vn -0.1613 0.9847 0.0664
vn 0.0001 1.0000 0.0001
vn -0.6735 0.6872 0.2724
vn -0.1768 0.9842 -0.0004
vn -0.7297 0.6837 -0.0016
vn -0.0000 1.0000 -0.0000
vn -0.9156 0.1595 0.3691
vn -0.9869 0.1612 -0.0021
vn -0.1612 0.9847 -0.0664
vn -0.6732 0.6874 -0.2727
vn -0.9154 0.1594 -0.3696
vn -0.7834 0.1589 -0.6009
vn -0.5725 0.6927 -0.4387
vn -0.7014 0.1604 -0.6945
vn -0.5040 0.7048 -0.4992
vn -0.1354 0.9854 -0.1034
vn -0.1146 0.9869 -0.1138
vn 0.0005 1.0000 0.0002
vn 0.0001 1.0000 -0.0001
vn 0.0007 1.0000 0.0005
vn -0.1109 0.9872 -0.1144
vn 0.0009 1.0000 0.0008
vn -0.1101 0.9871 -0.1165
vn 0.0007 1.0000 0.0011
vn -0.1050 0.9865 -0.1256
vn -0.0001 1.0000 0.0012
vn -0.0784 0.9846 -0.1560
vn -0.0005 1.0000 0.0007
vn -0.0335 0.9860 -0.1636
vn -0.0001 1.0000 0.0004
vn -0.0188 0.9871 -0.1587
vn -0.0000 1.0000 0.0004
vn -0.0164 0.9869 -0.1603
vn -0.0002 1.0000 0.0002
vn -0.0103 0.9867 -0.1623
vn -0.0009 1.0000 -0.0006
vn 0.0114 0.9854 -0.1701
vn -0.0011 1.0000 -0.0018
vn 0.0442 0.9854 -0.1642
vn -0.0002 1.0000 -0.0031
vn 0.0760 0.9851 -0.1545
vn 0.0012 1.0000 -0.0040
vn 0.1115 0.9845 -0.1353
vn 0.0033 1.0000 -0.0039
vn 0.1440 0.9843 -0.1023
vn 0.0051 1.0000 -0.0027
vn 0.1641 0.9844 -0.0633
vn 0.0060 1.0000 -0.0013
vn 0.1698 0.9850 -0.0315
vn 0.0063 1.0000 -0.0005
vn 0.1697 0.9854 -0.0123
vn 0.1682 0.9858 -0.0022
vn 0.0063 1.0000 -0.0001
vn 0.1658 0.9862 -0.0001
vn 0.0063 1.0000 -0.0000
vn 0.0063 1.0000 0.0001
vn 0.1682 0.9857 0.0022
vn 0.0063 1.0000 0.0005
vn 0.1697 0.9854 0.0124
vn 0.0060 1.0000 0.0013
vn 0.1698 0.9850 0.0315
vn 0.0051 1.0000 0.0027
vn 0.1641 0.9844 0.0633
vn 0.6771 0.6888 0.2590
vn 0.7085 0.6936 0.1306
vn 0.9230 0.1537 0.3528
vn 0.9718 0.1534 0.1790
vn 0.7149 0.6973 0.0519
vn 0.9855 0.1535 0.0715
vn 0.9699 -0.1654 0.1786
vn 0.9836 -0.1658 0.0714
vn 0.9880 0.1537 0.0132
vn 0.7141 0.7000 0.0095
vn 0.9860 -0.1661 0.0131
vn 0.7063 -0.7061 0.0512
vn 0.7003 -0.7021 0.1288
vn 0.9881 0.1540 -0.0004
vn 0.9880 0.1537 -0.0132
vn 0.7108 0.7034 -0.0003
vn 0.7140 0.7001 -0.0095
vn 0.7150 0.6972 -0.0516
vn 0.9856 0.1535 -0.0712
vn 0.9718 0.1534 -0.1790
vn 0.7085 0.6936 -0.1306
vn 0.6771 0.6888 -0.2590
vn 0.9230 0.1538 -0.3528
vn 0.8090 0.1546 -0.5671
vn 0.5947 0.6872 -0.4173
vn 0.6340 0.1556 -0.7575
vn 0.4653 0.6883 -0.5566
vn 0.4426 0.1568 -0.8829
vn 0.3231 0.6920 -0.6455
vn 0.1919 0.6942 -0.6937
vn 0.2639 0.1579 -0.9515
vn 0.0707 0.1589 -0.9848
vn 0.0514 0.6929 -0.7192
vn -0.0615 0.1601 -0.9852
vn -0.0443 0.7036 -0.7092
vn -0.1006 0.1604 -0.9819
vn -0.0723 0.7055 -0.7051
vn -0.0824 0.7073 -0.7021
vn -0.1150 0.1606 -0.9803
vn -0.1949 0.1599 -0.9677
vn -0.1417 0.6970 -0.7030
vn -0.4406 0.1607 -0.8832
vn -0.3248 0.6863 -0.6508
vn -0.4569 0.7012 -0.5473
vn -0.6325 0.1609 -0.7577
vn -0.6787 0.1612 -0.7165
vn -0.4869 0.7061 -0.5141
vn -0.4923 0.7077 -0.5067
vn -0.6879 0.1610 -0.7077
vn -0.7016 -0.1594 0.6945
vn -0.6882 -0.1593 0.7078
vn -0.4934 -0.7065 0.5073
vn -0.6791 -0.1588 0.7167
vn -0.4882 -0.7045 0.5151
vn -0.6328 -0.1583 0.7580
vn -0.4580 -0.6995 0.5486
vn -0.4407 -0.1588 0.8835
vn -0.3251 -0.6850 0.6520
vn -0.1948 -0.1589 0.9679
vn -0.1416 -0.6960 0.7040
vn -0.1150 -0.1598 0.9804
vn -0.0824 -0.7066 0.7028
vn -0.1007 -0.1596 0.9820
vn -0.0724 -0.7049 0.7056
vn -0.0615 -0.1596 0.9853
vn -0.0442 -0.7034 0.7095
vn 0.0708 -0.1598 0.9846
vn 0.0518 -0.6938 0.7183
vn 0.1925 -0.6963 0.6914
vn 0.2641 -0.1608 0.9510
vt 0.554203 0.283257
vt 0.552255 0.283258
vt 0.552390 0.282359
vt 0.554203 0.282355
vt 0.556017 0.282358
vt 0.556152 0.283258
vt 0.554203 0.281158
vt 0.555716 0.281167
vt 0.552690 0.281169
vt 0.550307 0.283255
vt 0.550578 0.282344
vt 0.551180 0.281125
vt 0.549477 0.282311
vt 0.550296 0.281030
vt 0.549073 0.283248
vt 0.551943 0.279787
vt 0.553067 0.279835
vt 0.551311 0.279624
vt 0.548580 0.282217
vt 0.549589 0.280852
vt 0.550820 0.279332
vt 0.552022 0.277901
vt 0.552305 0.278313
vt 0.552695 0.278520
vt 0.553158 0.277273
vt 0.553185 0.277681
vt 0.553038 0.276767
vt 0.553708 0.277497
vt 0.553650 0.276868
vt 0.553591 0.276324
vt 0.553434 0.278500
vt 0.554202 0.277417
vt 0.554202 0.278384
vt 0.554202 0.276705
vt 0.554699 0.277508
vt 0.554970 0.278494
vt 0.554757 0.276879
vt 0.554202 0.276141
vt 0.554816 0.276335
vt 0.555365 0.276767
vt 0.555245 0.277273
vt 0.555219 0.277681
vt 0.556100 0.278312
vt 0.556383 0.277901
vt 0.555710 0.278520
vt 0.555526 0.276085
vt 0.556746 0.277338
vt 0.554897 0.275611
vt 0.557094 0.279623
vt 0.557585 0.279331
vt 0.558193 0.278918
vt 0.555752 0.275225
vt 0.557190 0.276616
vt 0.558888 0.278376
vt 0.559670 0.280570
vt 0.560607 0.280184
vt 0.558817 0.280850
vt 0.560888 0.282024
vt 0.562016 0.281747
vt 0.559827 0.282215
vt 0.558110 0.281028
vt 0.558929 0.282309
vt 0.560366 0.283182
vt 0.559334 0.283246
vt 0.561564 0.283012
vt 0.557226 0.281124
vt 0.557829 0.282343
vt 0.558100 0.283254
vt 0.558214 0.284255
vt 0.559511 0.284243
vt 0.560607 0.284176
vt 0.556209 0.284263
vt 0.554203 0.284264
vt 0.554204 0.285270
vt 0.556224 0.285271
vt 0.558245 0.285271
vt 0.554204 0.289801
vt 0.556337 0.289802
vt 0.558470 0.289805
vt 0.559889 0.289807
vt 0.559572 0.285269
vt 0.561108 0.289777
vt 0.560705 0.285214
vt 0.562005 0.285054
vt 0.562497 0.289684
vt 0.561867 0.284002
vt 0.563140 0.283753
vt 0.563304 0.284821
vt 0.562793 0.282763
vt 0.562725 0.281701
vt 0.563430 0.282662
vt 0.563710 0.283526
vt 0.563357 0.281562
vt 0.564011 0.282510
vt 0.564237 0.283268
vt 0.267186 0.985719
vt 0.267376 0.988760
vt 0.266147 0.988708
vt 0.265950 0.985700
vt 0.268036 0.985749
vt 0.268223 0.988818
vt 0.267847 0.982674
vt 0.266994 0.982670
vt 0.265749 0.982689
vt 0.269168 0.985796
vt 0.269347 0.988902
vt 0.268987 0.982689
vt 0.266816 0.979862
vt 0.267692 0.979815
vt 0.268850 0.979763
vt 0.274406 0.979491
vt 0.274560 0.982777
vt 0.274720 0.986063
vt 0.280034 0.979214
vt 0.280207 0.982877
vt 0.280343 0.986356
vt 0.274877 0.989354
vt 0.280472 0.989839
vt 0.282846 0.982931
vt 0.282956 0.986511
vt 0.283058 0.990087
vt 0.564429 0.289414
vt 0.564967 0.289252
vt 0.565407 0.294282
vt 0.564856 0.294330
vt 0.565475 0.296655
vt 0.564930 0.296643
vt 0.565305 0.297685
vt 0.564773 0.297629
vt 0.284071 0.986583
vt 0.284160 0.990197
vt 0.564941 0.298743
vt 0.564457 0.298617
vt 0.285260 0.986660
vt 0.285335 0.990314
vt 0.283973 0.982961
vt 0.285178 0.982998
vt 0.286346 0.983035
vt 0.286413 0.986732
vt 0.286474 0.990420
vt 0.287470 0.983065
vt 0.287522 0.986788
vt 0.287570 0.990503
vt 0.564400 0.299744
vt 0.564058 0.299484
vt 0.563538 0.300437
vt 0.563266 0.300045
vt 0.562469 0.300969
vt 0.562250 0.300510
vt 0.288787 0.986833
vt 0.288821 0.990567
vt 0.561009 0.301346
vt 0.560860 0.300848
vt 0.290422 0.986868
vt 0.290438 0.990614
vt 0.288752 0.983092
vt 0.290406 0.983118
vt 0.292533 0.983145
vt 0.292530 0.986897
vt 0.292526 0.990649
vt 0.295263 0.986925
vt 0.295241 0.990679
vt 0.295286 0.983174
vt 0.298002 0.986948
vt 0.297963 0.990701
vt 0.298040 0.983202
vt 0.559034 0.301048
vt 0.559110 0.301564
vt 0.556656 0.301646
vt 0.556622 0.301125
vt 0.554206 0.301639
vt 0.554206 0.301118
vt 0.300740 0.986982
vt 0.300686 0.990735
vt 0.551790 0.301128
vt 0.551757 0.301649
vt 0.549378 0.301050
vt 0.549303 0.301566
vt 0.303474 0.987008
vt 0.303401 0.990764
vt 0.300794 0.983231
vt 0.303546 0.983259
vt 0.303584 0.979054
vt 0.300830 0.979026
vt 0.298083 0.979000
vt 0.295336 0.978970
vt 0.298086 0.978751
vt 0.300832 0.978776
vt 0.295339 0.978721
vt 0.292583 0.978944
vt 0.292589 0.978695
vt 0.295338 0.978472
vt 0.298088 0.978501
vt 0.292596 0.978445
vt 0.290459 0.978424
vt 0.290450 0.978674
vt 0.290441 0.978924
vt 0.290464 0.978266
vt 0.292599 0.978287
vt 0.295338 0.978314
vt 0.288775 0.978410
vt 0.288779 0.978252
vt 0.288767 0.978662
vt 0.287443 0.978412
vt 0.287443 0.978253
vt 0.287441 0.978664
vt 0.288758 0.978912
vt 0.287439 0.978915
vt 0.286278 0.978933
vt 0.286271 0.978681
vt 0.285074 0.978972
vt 0.285063 0.978721
vt 0.285051 0.978470
vt 0.286263 0.978430
vt 0.285042 0.978311
vt 0.286258 0.978271
vt 0.283813 0.978520
vt 0.283805 0.978361
vt 0.283826 0.978771
vt 0.282649 0.978575
vt 0.282638 0.978417
vt 0.282665 0.978825
vt 0.283838 0.979021
vt 0.282685 0.979075
vt 0.280019 0.978966
vt 0.274394 0.979242
vt 0.274382 0.978993
vt 0.280005 0.978717
vt 0.274374 0.978835
vt 0.279996 0.978559
vt 0.268840 0.979263
vt 0.268836 0.979104
vt 0.268845 0.979513
vt 0.267694 0.979312
vt 0.267694 0.979154
vt 0.267692 0.979564
vt 0.266794 0.979609
vt 0.266777 0.979356
vt 0.265540 0.979968
vt 0.265511 0.979720
vt 0.265483 0.979472
vt 0.262805 0.979687
vt 0.262827 0.979936
vt 0.262850 0.980184
vt 0.265465 0.979314
vt 0.266765 0.979198
vt 0.262791 0.979530
vt 0.259447 0.979952
vt 0.259435 0.979794
vt 0.259467 0.980201
vt 0.256099 0.980217
vt 0.256088 0.980059
vt 0.256117 0.980466
vt 0.259487 0.980450
vt 0.256136 0.980715
vt 0.256322 0.982976
vt 0.259685 0.982869
vt 0.263061 0.982764
vt 0.263279 0.985698
vt 0.259911 0.985720
vt 0.263493 0.988635
vt 0.260136 0.988573
vt 0.559650 0.277596
vt 0.561742 0.279770
vt 0.561206 0.280011
vt 0.559283 0.277998
vt 0.557364 0.276011
vt 0.557556 0.275426
vt 0.555723 0.274478
vt 0.555756 0.273769
vt 0.256552 0.985749
vt 0.256781 0.988521
vt 0.254098 0.988495
vt 0.253870 0.985785
vt 0.253637 0.983073
vt 0.252981 0.985798
vt 0.252752 0.983111
vt 0.253203 0.988486
vt 0.252346 0.988517
vt 0.252128 0.985840
vt 0.251904 0.983175
vt 0.343892 0.986774
vt 0.343040 0.986717
vt 0.343324 0.984035
vt 0.344170 0.984114
vt 0.343621 0.989447
vt 0.342763 0.989401
vt 0.343591 0.981947
vt 0.344442 0.982091
vt 0.251672 0.981146
vt 0.252527 0.981019
vt 0.342436 0.983977
vt 0.342681 0.981842
vt 0.342146 0.986683
vt 0.339467 0.986593
vt 0.339754 0.983825
vt 0.339987 0.981568
vt 0.341863 0.989389
vt 0.339181 0.989360
vt 0.550847 0.275427
vt 0.552646 0.273770
vt 0.552680 0.274478
vt 0.551040 0.276012
vt 0.553400 0.274004
vt 0.553408 0.273351
vt 0.554203 0.273814
vt 0.554204 0.273191
vt 0.554202 0.274476
vt 0.553394 0.274697
vt 0.552652 0.275224
vt 0.553510 0.275602
vt 0.552877 0.276085
vt 0.554202 0.275398
vt 0.555013 0.274705
vt 0.555007 0.274009
vt 0.555000 0.273354
vt 0.551659 0.277338
vt 0.551213 0.276617
vt 0.550212 0.278919
vt 0.549516 0.278378
vt 0.549121 0.278000
vt 0.548754 0.277598
vt 0.547799 0.280186
vt 0.547200 0.280014
vt 0.546664 0.279773
vt 0.545681 0.281704
vt 0.545048 0.281566
vt 0.546390 0.281749
vt 0.548736 0.280572
vt 0.547518 0.282027
vt 0.546843 0.283015
vt 0.545613 0.282765
vt 0.548041 0.283184
vt 0.547800 0.284179
vt 0.546539 0.284005
vt 0.548896 0.284245
vt 0.547702 0.285217
vt 0.546402 0.285056
vt 0.548836 0.285271
vt 0.550193 0.284257
vt 0.550163 0.285272
vt 0.552183 0.285271
vt 0.552198 0.284263
vt 0.548520 0.289809
vt 0.549939 0.289806
vt 0.552072 0.289803
vt 0.551973 0.294366
vt 0.549741 0.294370
vt 0.554205 0.294364
vt 0.556437 0.294365
vt 0.554205 0.296472
vt 0.551934 0.296472
vt 0.556477 0.296472
vt 0.558670 0.294369
vt 0.558749 0.296472
vt 0.560153 0.294371
vt 0.560242 0.296472
vt 0.561510 0.296483
vt 0.561423 0.294368
vt 0.562868 0.294356
vt 0.562954 0.296520
vt 0.564281 0.294344
vt 0.564362 0.296598
vt 0.563865 0.289552
vt 0.563861 0.284569
vt 0.564390 0.284303
vt 0.562915 0.297486
vt 0.564227 0.297573
vt 0.562901 0.298558
vt 0.563961 0.298527
vt 0.563056 0.299614
vt 0.563756 0.299292
vt 0.562049 0.300029
vt 0.561744 0.298748
vt 0.560472 0.298901
vt 0.560712 0.300328
vt 0.558959 0.300506
vt 0.558858 0.299002
vt 0.560301 0.297514
vt 0.561557 0.297490
vt 0.558785 0.297541
vt 0.556496 0.297554
vt 0.556533 0.299043
vt 0.554206 0.297553
vt 0.554206 0.299038
vt 0.554206 0.300568
vt 0.556585 0.300576
vt 0.551915 0.297555
vt 0.551878 0.299045
vt 0.551827 0.300579
vt 0.549453 0.300508
vt 0.549554 0.299003
vt 0.547940 0.298903
vt 0.547700 0.300330
vt 0.547551 0.300851
vt 0.549626 0.297543
vt 0.548111 0.297516
vt 0.546669 0.298750
vt 0.546361 0.300032
vt 0.546855 0.297491
vt 0.548170 0.296473
vt 0.549662 0.296473
vt 0.546901 0.296485
vt 0.545497 0.297488
vt 0.545458 0.296523
vt 0.545515 0.298556
vt 0.544183 0.297578
vt 0.544048 0.296602
vt 0.544448 0.298533
vt 0.545354 0.299618
vt 0.544666 0.299287
vt 0.544361 0.299485
vt 0.543955 0.298620
vt 0.543637 0.297634
vt 0.543470 0.298747
vt 0.543105 0.297689
vt 0.544016 0.299729
vt 0.545145 0.300044
vt 0.544866 0.300441
vt 0.545940 0.300971
vt 0.546160 0.300513
vt 0.547402 0.301348
vt 0.307108 0.990754
vt 0.305489 0.990769
vt 0.305581 0.987023
vt 0.307217 0.987021
vt 0.305673 0.983276
vt 0.307328 0.983282
vt 0.305724 0.979078
vt 0.307406 0.979102
vt 0.305720 0.978828
vt 0.307402 0.978851
vt 0.303582 0.978804
vt 0.305718 0.978578
vt 0.307401 0.978600
vt 0.303581 0.978555
vt 0.303580 0.978397
vt 0.305716 0.978420
vt 0.307400 0.978441
vt 0.300838 0.978527
vt 0.300842 0.978369
vt 0.298090 0.978343
vt 0.298092 0.978093
vt 0.300847 0.978119
vt 0.295337 0.978064
vt 0.292605 0.978036
vt 0.298095 0.977843
vt 0.295340 0.977814
vt 0.292611 0.977786
vt 0.290479 0.977764
vt 0.290471 0.978015
vt 0.288792 0.977751
vt 0.288786 0.978001
vt 0.287445 0.977753
vt 0.287444 0.978002
vt 0.286245 0.977770
vt 0.286251 0.978020
vt 0.285020 0.977808
vt 0.285030 0.978059
vt 0.283780 0.977858
vt 0.283792 0.978109
vt 0.282607 0.977920
vt 0.282624 0.978168
vt 0.279968 0.978059
vt 0.279982 0.978309
vt 0.274351 0.978336
vt 0.274362 0.978586
vt 0.268824 0.978601
vt 0.268831 0.978852
vt 0.267691 0.978653
vt 0.267695 0.978903
vt 0.266731 0.978708
vt 0.266749 0.978951
vt 0.265438 0.979065
vt 0.265412 0.978815
vt 0.262747 0.979031
vt 0.262769 0.979280
vt 0.259395 0.979295
vt 0.259415 0.979545
vt 0.256050 0.979559
vt 0.256069 0.979809
vt 0.253365 0.979782
vt 0.253382 0.980028
vt 0.253396 0.980276
vt 0.253405 0.980434
vt 0.252380 0.980367
vt 0.252417 0.980521
vt 0.252326 0.980125
vt 0.251391 0.980530
vt 0.251277 0.980279
vt 0.251469 0.980682
vt 0.252286 0.979883
vt 0.251211 0.980018
vt 0.343856 0.980815
vt 0.344925 0.980972
vt 0.344854 0.981231
vt 0.343811 0.981056
vt 0.344735 0.981480
vt 0.343752 0.981296
vt 0.342754 0.980937
vt 0.342776 0.980691
vt 0.342734 0.981185
vt 0.342722 0.981342
vt 0.343711 0.981450
vt 0.344654 0.981632
vt 0.340048 0.980914
vt 0.340072 0.980664
vt 0.340033 0.981071
vt 0.342702 0.981592
vt 0.340010 0.981320
vt 0.343646 0.981695
vt 0.344526 0.981862
vt 0.251593 0.980916
vt 0.252478 0.980767
vt 0.253436 0.980933
vt 0.253420 0.980683
vt 0.336641 0.981235
vt 0.336666 0.980986
vt 0.336691 0.980738
vt 0.333339 0.980404
vt 0.333312 0.980653
vt 0.333285 0.980901
vt 0.333357 0.980247
vt 0.336707 0.980581
vt 0.330667 0.980134
vt 0.330688 0.979977
vt 0.330634 0.980382
vt 0.329375 0.979993
vt 0.329389 0.979834
vt 0.329352 0.980245
vt 0.330599 0.980630
vt 0.329325 0.980498
vt 0.330334 0.983346
vt 0.329091 0.983301
vt 0.333020 0.983475
vt 0.336394 0.983649
vt 0.336110 0.986495
vt 0.332743 0.986405
vt 0.330072 0.986353
vt 0.332469 0.989336
vt 0.329813 0.989355
vt 0.335826 0.989343
vt 0.328837 0.986346
vt 0.328586 0.989383
vt 0.544977 0.282665
vt 0.544396 0.282511
vt 0.544697 0.283529
vt 0.544170 0.283271
vt 0.327737 0.989423
vt 0.327986 0.986359
vt 0.544017 0.284307
vt 0.544547 0.284572
vt 0.326611 0.989485
vt 0.326854 0.986383
vt 0.327097 0.983280
vt 0.328237 0.983288
vt 0.327294 0.980357
vt 0.328451 0.980433
vt 0.327304 0.980108
vt 0.328456 0.980181
vt 0.327315 0.979858
vt 0.328460 0.979931
vt 0.328462 0.979772
vt 0.327321 0.979699
vt 0.321779 0.979475
vt 0.321790 0.979317
vt 0.321762 0.979724
vt 0.316163 0.979084
vt 0.316175 0.978926
vt 0.316144 0.979333
vt 0.321745 0.979973
vt 0.316124 0.979582
vt 0.313522 0.978890
vt 0.313501 0.979140
vt 0.313475 0.979389
vt 0.315876 0.983240
vt 0.313237 0.983240
vt 0.321524 0.983255
vt 0.315669 0.986715
vt 0.313054 0.986817
vt 0.321297 0.986537
vt 0.315469 0.990194
vt 0.312879 0.990390
vt 0.321073 0.989824
vt 0.543441 0.289255
vt 0.543980 0.289417
vt 0.543003 0.294286
vt 0.543554 0.294334
vt 0.545103 0.284824
vt 0.544544 0.289555
vt 0.544129 0.294347
vt 0.545911 0.289687
vt 0.545542 0.294359
vt 0.545267 0.283756
vt 0.547301 0.289779
vt 0.546988 0.294370
vt 0.548258 0.294373
vt 0.543480 0.296646
vt 0.542935 0.296659
vt 0.311775 0.990478
vt 0.311938 0.986866
vt 0.310598 0.990571
vt 0.310747 0.986919
vt 0.310904 0.983258
vt 0.312109 0.983247
vt 0.311088 0.979239
vt 0.312323 0.979312
vt 0.311105 0.978988
vt 0.312341 0.979062
vt 0.311123 0.978737
vt 0.312359 0.978812
vt 0.311135 0.978578
vt 0.312371 0.978653
vt 0.313536 0.978732
vt 0.309911 0.978675
vt 0.309920 0.978516
vt 0.309898 0.978927
vt 0.308732 0.978630
vt 0.308735 0.978471
vt 0.308727 0.978882
vt 0.309885 0.979178
vt 0.308725 0.979134
vt 0.309735 0.983270
vt 0.308611 0.983279
vt 0.309593 0.986967
vt 0.308484 0.987002
vt 0.309457 0.990654
vt 0.308360 0.990714
vt 0.308741 0.978220
vt 0.309933 0.978265
vt 0.307399 0.978191
vt 0.308745 0.977971
vt 0.309944 0.978016
vt 0.307398 0.977941
vt 0.311152 0.978327
vt 0.311167 0.978076
vt 0.311198 0.977493
vt 0.309965 0.977437
vt 0.308757 0.977392
vt 0.309974 0.977189
vt 0.311210 0.977242
vt 0.308764 0.977143
vt 0.309983 0.976939
vt 0.311222 0.976990
vt 0.308772 0.976893
vt 0.310001 0.976453
vt 0.311247 0.976524
vt 0.308781 0.976417
vt 0.312512 0.976594
vt 0.312480 0.977068
vt 0.312462 0.977319
vt 0.313710 0.976688
vt 0.313663 0.977165
vt 0.313640 0.977413
vt 0.312445 0.977569
vt 0.313622 0.977660
vt 0.316256 0.977848
vt 0.316274 0.977598
vt 0.316293 0.977348
vt 0.321861 0.978240
vt 0.321878 0.977991
vt 0.321895 0.977741
vt 0.321927 0.977268
vt 0.316331 0.976876
vt 0.327449 0.977639
vt 0.327414 0.978112
vt 0.327396 0.978363
vt 0.328623 0.977729
vt 0.328573 0.978198
vt 0.328543 0.978447
vt 0.327378 0.978614
vt 0.328517 0.978696
vt 0.329481 0.978786
vt 0.329502 0.978545
vt 0.329527 0.978301
vt 0.330813 0.978899
vt 0.330834 0.978649
vt 0.330857 0.978399
vt 0.329575 0.977819
vt 0.330903 0.977928
vt 0.333570 0.978202
vt 0.333522 0.978673
vt 0.333497 0.978922
vt 0.336912 0.978535
vt 0.336865 0.979007
vt 0.336840 0.979256
vt 0.333471 0.979171
vt 0.336815 0.979505
vt 0.340153 0.979837
vt 0.340179 0.979588
vt 0.340205 0.979339
vt 0.342838 0.980123
vt 0.342870 0.979878
vt 0.342903 0.979632
vt 0.342963 0.979159
vt 0.340254 0.978867
vt 0.343948 0.979762
vt 0.343944 0.979295
vt 0.343945 0.980008
vt 0.344954 0.979817
vt 0.345000 0.980089
vt 0.344844 0.979316
vt 0.343929 0.980252
vt 0.344999 0.980358
vt 0.251206 0.978864
vt 0.252216 0.978828
vt 0.252214 0.979073
vt 0.251154 0.979134
vt 0.252225 0.979318
vt 0.251150 0.979403
vt 0.253314 0.979213
vt 0.253288 0.978967
vt 0.256004 0.978980
vt 0.255983 0.978731
vt 0.253260 0.978720
vt 0.255963 0.978481
vt 0.253209 0.978246
vt 0.255923 0.978010
vt 0.252228 0.978361
vt 0.251327 0.978366
vt 0.259272 0.977745
vt 0.259309 0.978218
vt 0.262620 0.977480
vt 0.262658 0.977953
vt 0.265291 0.977261
vt 0.265328 0.977733
vt 0.266623 0.977178
vt 0.266662 0.977661
vt 0.267575 0.977108
vt 0.267616 0.977579
vt 0.268750 0.977042
vt 0.268776 0.977515
vt 0.274279 0.976784
vt 0.274302 0.977257
vt 0.279881 0.976505
vt 0.279909 0.976978
vt 0.282506 0.976370
vt 0.282543 0.976847
vt 0.283705 0.976306
vt 0.283729 0.976772
vt 0.284972 0.976249
vt 0.284988 0.976723
vt 0.286217 0.976216
vt 0.286230 0.976691
vt 0.287438 0.976191
vt 0.287442 0.976677
vt 0.288806 0.976197
vt 0.288801 0.976671
vt 0.290502 0.976208
vt 0.290496 0.976682
vt 0.292636 0.976231
vt 0.292629 0.976705
vt 0.295360 0.976734
vt 0.295375 0.976261
vt 0.298106 0.976759
vt 0.298110 0.976284
vt 0.300846 0.976316
vt 0.300851 0.976789
vt 0.303587 0.976341
vt 0.303583 0.976815
vt 0.305721 0.976362
vt 0.305717 0.976836
vt 0.307417 0.976387
vt 0.307412 0.976861
vt 0.307407 0.977112
vt 0.305714 0.977087
vt 0.307402 0.977361
vt 0.305712 0.977337
vt 0.303581 0.977066
vt 0.303580 0.977316
vt 0.305711 0.977919
vt 0.303579 0.977898
vt 0.300853 0.977289
vt 0.300854 0.977039
vt 0.300850 0.977870
vt 0.303579 0.978147
vt 0.305714 0.978169
vt 0.298101 0.977260
vt 0.295348 0.977234
vt 0.298103 0.977009
vt 0.295353 0.976984
vt 0.292626 0.976955
vt 0.292622 0.977205
vt 0.290490 0.977182
vt 0.290493 0.976932
vt 0.288801 0.976921
vt 0.288800 0.977171
vt 0.287444 0.977175
vt 0.287443 0.976927
vt 0.286235 0.977191
vt 0.286232 0.976942
vt 0.285001 0.977225
vt 0.284994 0.976975
vt 0.283741 0.977023
vt 0.283753 0.977275
vt 0.282574 0.977344
vt 0.282561 0.977096
vt 0.279937 0.977479
vt 0.279924 0.977229
vt 0.274325 0.977757
vt 0.274314 0.977507
vt 0.268789 0.977766
vt 0.268801 0.978017
vt 0.267661 0.978076
vt 0.267640 0.977827
vt 0.266695 0.978148
vt 0.266680 0.977906
vt 0.265345 0.977984
vt 0.265362 0.978235
vt 0.262699 0.978452
vt 0.262678 0.978203
vt 0.259329 0.978468
vt 0.259349 0.978717
vt 0.340095 0.980415
vt 0.336757 0.980083
vt 0.336732 0.980332
vt 0.333411 0.979749
vt 0.333384 0.979998
vt 0.330751 0.979478
vt 0.330720 0.979728
vt 0.329435 0.979346
vt 0.329412 0.979588
vt 0.328476 0.979272
vt 0.328467 0.979522
vt 0.327344 0.979197
vt 0.327332 0.979448
vt 0.321824 0.978819
vt 0.321807 0.979068
vt 0.316213 0.978427
vt 0.316194 0.978677
vt 0.313578 0.978236
vt 0.313556 0.978483
vt 0.312389 0.978402
vt 0.312406 0.978152
vt 0.556462 0.279786
vt 0.555339 0.279830
vt 0.554203 0.279791
s 1
f 2/1/1 6/2/1 5/3/1 1/4/1
f 2/1/1 1/4/1 3/5/1 57/6/1
f 1/4/1 4/7/1 776/8/1 3/5/1
f 1/4/1 5/3/1 7/9/1 4/7/1
f 6/2/1 10/10/1 8/11/1 5/3/1
f 5/3/1 8/11/1 11/12/1 7/9/1
f 9/13/1 13/14/1 11/12/1 8/11/1
f 275/15/1 9/13/1 8/11/1 10/10/1
f 12/16/1 780/17/1 7/9/1 11/12/1
f 13/14/1 15/18/1 12/16/1 11/12/1
f 13/14/1 9/13/1 273/19/1 14/20/1
f 15/18/1 13/14/1 14/20/1 16/21/1
f 19/22/1 17/23/1 15/18/1 16/21/1
f 17/23/1 18/24/2 12/16/1 15/18/1
f 18/24/2 17/23/1 20/25/3 23/26/4
f 17/23/1 19/22/1 22/27/5 20/25/3
f 24/28/6 23/26/4 20/25/3 21/29/7
f 22/27/5 256/30/8 21/29/7 20/25/3
f 23/26/4 24/28/6 25/31/9 18/24/2
f 24/28/6 26/32/10 27/33/11 25/31/9
f 26/32/10 24/28/6 21/29/7 29/34/12
f 27/33/11 26/32/10 28/35/13 778/36/14
f 26/32/10 29/34/12 31/37/15 28/35/13
f 256/30/8 30/38/16 29/34/12 21/29/7
f 29/34/12 30/38/16 32/39/17 31/37/15
f 36/40/18 33/41/19 31/37/15 32/39/17
f 33/41/19 35/42/20 28/35/13 31/37/15
f 34/43/1 33/41/19 36/40/18 38/44/1
f 33/41/19 34/43/1 781/45/21 35/42/20
f 37/46/22 40/47/1 38/44/1 36/40/18
f 37/46/22 36/40/18 32/39/17 253/48/23
f 782/49/1 34/43/1 38/44/1 39/50/1
f 40/47/1 42/51/1 39/50/1 38/44/1
f 40/47/1 37/46/22 255/52/24 41/53/25
f 42/51/1 40/47/1 41/53/25 43/54/26
f 44/55/1 42/51/1 43/54/26 45/56/27
f 42/51/1 44/55/1 47/57/1 39/50/1
f 46/58/1 44/55/1 45/56/27 75/59/28
f 44/55/1 46/58/1 49/60/1 47/57/1
f 47/57/1 48/61/1 782/49/1 39/50/1
f 48/61/1 47/57/1 49/60/1 51/62/1
f 50/63/1 53/64/1 51/62/1 49/60/1
f 46/58/1 73/65/1 50/63/1 49/60/1
f 774/66/1 48/61/1 51/62/1 52/67/1
f 53/64/1 55/68/1 52/67/1 51/62/1
f 56/69/1 55/68/1 53/64/1 54/70/1
f 54/70/1 53/64/1 50/63/1 70/71/1
f 55/68/1 56/69/1 58/72/1 57/6/1
f 52/67/1 55/68/1 57/6/1 3/5/1
f 59/73/1 2/1/1 57/6/1 58/72/1
f 61/74/1 59/73/1 58/72/1 60/75/1
f 56/69/1 63/76/1 60/75/1 58/72/1
f 288/77/1 61/74/1 60/75/1 62/78/1
f 63/76/1 64/79/1 62/78/1 60/75/1
f 66/80/1 64/79/1 63/76/1 65/81/1
f 63/76/1 56/69/1 54/70/1 65/81/1
f 68/82/1 66/80/1 65/81/1 67/83/1
f 65/81/1 54/70/1 70/71/1 67/83/1
f 69/84/1 302/85/1 68/82/1 67/83/1
f 67/83/1 70/71/1 71/86/1 69/84/1
f 70/71/1 50/63/1 73/65/1 71/86/1
f 72/87/29 304/88/30 69/84/1 71/86/1
f 74/89/31 72/87/29 71/86/1 73/65/1
f 73/65/1 46/58/1 75/59/28 74/89/31
f 74/89/31 75/59/28 77/90/32 76/91/33
f 76/91/33 78/92/34 72/87/29 74/89/31
f 80/93/35 79/94/36 76/91/33 77/90/32
f 79/94/36 81/95/37 78/92/34 76/91/33
f 82/96/38 79/97/36 80/98/35 84/99/39
f 85/100/40 81/101/37 79/97/36 82/96/38
f 87/102/41 85/100/40 82/96/38 83/103/42
f 84/99/39 211/104/43 83/103/42 82/96/38
f 86/105/44 307/106/45 81/101/37 85/100/40
f 89/107/46 86/105/44 85/100/40 87/102/41
f 83/103/42 192/108/47 88/109/48 87/102/41
f 87/102/41 88/109/48 90/110/49 89/107/46
f 92/111/50 91/112/51 89/107/46 90/110/49
f 86/105/44 89/107/46 91/112/51 94/113/52
f 91/112/51 92/111/50 179/114/53 93/115/54
f 93/115/54 96/116/55 94/113/52 91/112/51
f 94/113/52 95/117/56 307/106/45 86/105/44
f 96/116/55 98/118/57 95/117/56 94/113/52
f 96/116/55 93/115/54 178/119/58 97/120/59
f 97/120/59 100/121/60 98/118/57 96/116/55
f 305/122/61 95/123/56 98/124/57 99/125/62
f 98/124/57 100/126/60 101/127/63 99/125/62
f 101/127/63 100/126/60 102/128/64 103/129/65
f 105/130/66 102/131/64 100/121/60 97/120/59
f 103/129/65 102/128/64 104/132/67 314/133/68
f 107/134/69 104/135/67 102/131/64 105/130/66
f 106/136/70 105/130/66 97/120/59 178/119/58
f 105/130/66 106/136/70 108/137/71 107/134/69
f 110/138/72 109/139/73 107/134/69 108/137/71
f 109/139/73 112/140/74 104/135/67 107/134/69
f 109/139/73 110/138/72 162/141/75 111/142/76
f 111/142/76 114/143/77 112/140/74 109/139/73
f 314/133/68 104/132/67 112/144/74 113/145/78
f 112/144/74 114/146/77 115/147/79 113/145/78
f 115/147/79 114/146/77 116/148/80 117/149/81
f 119/150/82 116/151/80 114/143/77 111/142/76
f 117/149/81 116/148/80 118/152/83 319/153/84
f 121/154/85 118/155/83 116/151/80 119/150/82
f 120/156/86 119/150/82 111/142/76 162/141/75
f 119/150/82 120/156/86 122/157/87 121/154/85
f 125/158/88 123/159/89 121/154/85 122/157/87
f 123/159/89 124/160/90 118/155/83 121/154/85
f 124/160/90 123/159/89 126/161/91 129/162/92
f 123/159/89 125/158/88 128/163/93 126/161/91
f 129/162/92 126/161/91 127/164/94 131/165/95
f 127/164/94 126/161/91 128/163/93 141/166/96
f 773/167/97 124/168/90 129/169/92 130/170/98
f 131/171/95 132/172/99 130/170/98 129/169/92
f 131/165/95 127/164/94 136/173/100 133/174/101
f 134/175/102 132/172/99 131/171/95 133/176/101
f 336/177/103 134/175/102 133/176/101 135/178/104
f 133/174/101 136/173/100 137/179/105 135/180/104
f 137/179/105 136/173/100 138/181/106 139/182/107
f 127/164/94 141/166/96 138/181/106 136/173/100
f 370/183/108 139/182/107 138/181/106 140/184/109
f 142/185/110 140/184/109 138/181/106 141/166/96
f 142/185/110 141/166/96 128/163/93 144/186/111
f 142/185/110 143/187/112 382/188/113 140/184/109
f 144/186/111 146/189/114 143/187/112 142/185/110
f 145/190/115 148/191/116 146/189/114 144/186/111
f 145/190/115 144/186/111 128/163/93 125/158/88
f 143/187/112 146/189/114 147/192/117 381/193/118
f 148/191/116 150/194/119 147/192/117 146/189/114
f 152/195/120 150/194/119 148/191/116 149/196/121
f 145/190/115 161/197/122 149/196/121 148/191/116
f 152/195/120 153/198/123 151/199/124 150/194/119
f 150/194/119 151/199/124 385/200/125 147/192/117
f 154/201/126 155/202/127 153/198/123 152/195/120
f 154/201/126 152/195/120 149/196/121 157/203/128
f 156/204/129 397/205/130 155/202/127 154/201/126
f 156/204/129 154/201/126 157/203/128 158/206/131
f 159/207/132 160/208/133 158/206/131 157/203/128
f 161/197/122 159/207/132 157/203/128 149/196/121
f 120/156/86 162/141/75 160/208/133 159/207/132
f 159/207/132 161/197/122 122/157/87 120/156/86
f 125/158/88 122/157/87 161/197/122 145/190/115
f 163/209/134 160/208/133 162/141/75 110/138/72
f 160/208/133 163/209/134 165/210/135 158/206/131
f 163/209/134 164/211/136 166/212/137 165/210/135
f 108/137/71 164/211/136 163/209/134 110/138/72
f 169/213/138 167/214/139 165/210/135 166/212/137
f 167/214/139 156/204/129 158/206/131 165/210/135
f 169/213/138 170/215/140 168/216/141 167/214/139
f 167/214/139 168/216/141 397/205/130 156/204/129
f 171/217/142 172/218/143 170/215/140 169/213/138
f 171/217/142 169/213/138 166/212/137 174/219/144
f 173/220/145 406/221/146 172/218/143 171/217/142
f 173/220/145 171/217/142 174/219/144 175/222/147
f 176/223/148 177/224/149 175/222/147 174/219/144
f 164/211/136 176/223/148 174/219/144 166/212/137
f 178/119/58 177/224/149 176/223/148 106/136/70
f 164/211/136 108/137/71 106/136/70 176/223/148
f 177/224/149 178/119/58 93/115/54 179/114/53
f 177/224/149 179/114/53 180/225/150 175/222/147
f 179/114/53 92/111/50 181/226/151 180/225/150
f 184/227/152 182/228/153 180/225/150 181/226/151
f 182/228/153 173/220/145 175/222/147 180/225/150
f 184/227/152 185/229/154 183/230/155 182/228/153
f 182/228/153 183/230/155 406/221/146 173/220/145
f 186/231/156 187/232/157 185/229/154 184/227/152
f 186/231/156 184/227/152 181/226/151 189/233/158
f 188/234/159 415/235/160 187/232/157 186/231/156
f 188/234/159 186/231/156 189/233/158 190/236/161
f 90/110/49 88/109/48 190/236/161 189/233/158
f 92/111/50 90/110/49 189/233/158 181/226/151
f 88/109/48 192/108/47 191/237/162 190/236/161
f 193/238/163 188/234/159 190/236/161 191/237/162
f 192/108/47 196/239/164 194/240/165 191/237/162
f 197/241/166 193/238/163 191/237/162 194/240/165
f 199/242/167 197/241/166 194/240/165 195/243/168
f 196/239/164 209/244/169 195/243/168 194/240/165
f 193/238/163 197/241/166 198/245/170 416/246/171
f 199/242/167 200/247/172 198/245/170 197/241/166
f 201/248/173 202/249/174 200/247/172 199/242/167
f 201/248/173 199/242/167 195/243/168 204/250/175
f 203/251/176 427/252/177 202/249/174 201/248/173
f 203/251/176 201/248/173 204/250/175 205/253/178
f 206/254/179 207/255/180 205/253/178 204/250/175
f 209/244/169 206/254/179 204/250/175 195/243/168
f 223/256/181 207/255/180 206/254/179 208/257/182
f 209/244/169 210/258/183 208/257/182 206/254/179
f 210/258/183 209/244/169 196/239/164 211/104/43
f 211/104/43 84/99/39 212/259/184 210/258/183
f 213/260/185 208/257/182 210/258/183 212/259/184
f 212/259/184 214/261/186 215/262/187 213/260/185
f 84/99/39 80/98/35 214/261/186 212/259/184
f 215/263/187 214/264/186 216/265/188 217/266/189
f 214/264/186 80/93/35 77/90/32 216/265/188
f 45/56/27 43/54/26 217/266/189 216/265/188
f 75/59/28 45/56/27 216/265/188 77/90/32
f 218/267/190 220/268/191 215/263/187 217/266/189
f 41/53/25 218/267/190 217/266/189 43/54/26
f 219/269/192 221/270/193 220/268/191 218/267/190
f 255/52/24 219/269/192 218/267/190 41/53/25
f 222/271/194 220/272/191 221/273/193 224/274/195
f 213/260/185 215/262/187 220/272/191 222/271/194
f 208/257/182 213/260/185 222/271/194 223/256/181
f 224/274/195 225/275/196 223/256/181 222/271/194
f 225/275/196 224/274/195 226/276/197 228/277/198
f 224/274/195 221/273/193 227/278/199 226/276/197
f 231/279/200 229/280/201 226/276/197 227/278/199
f 229/280/201 232/281/202 228/277/198 226/276/197
f 229/282/201 230/283/203 234/284/204 232/285/202
f 231/286/200 244/287/205 230/283/203 229/282/201
f 232/285/202 234/284/204 235/288/206 233/289/207
f 232/281/202 233/290/207 452/291/208 228/277/198
f 234/284/204 236/292/209 238/293/210 235/288/206
f 230/283/203 239/294/211 236/292/209 234/284/204
f 239/294/211 240/295/212 237/296/213 236/292/209
f 236/292/209 237/296/213 455/297/214 238/293/210
f 241/298/215 242/299/216 240/295/212 239/294/211
f 244/287/205 241/298/215 239/294/211 230/283/203
f 242/300/216 241/301/215 243/302/217 262/303/218
f 245/304/219 243/302/217 241/301/215 244/305/205
f 246/306/220 245/304/219 244/305/205 231/307/200
f 245/304/219 246/306/220 250/308/221 247/309/222
f 243/302/217 245/304/219 247/309/222 248/310/223
f 248/310/223 247/309/222 249/311/224 257/312/225
f 247/309/222 250/308/221 251/313/226 249/311/224
f 251/313/226 250/308/221 252/314/227 253/48/23
f 250/308/221 246/306/220 254/315/228 252/314/227
f 255/52/24 37/46/22 253/48/23 252/314/227
f 219/269/192 255/52/24 252/314/227 254/315/228
f 246/306/220 231/307/200 227/316/199 254/315/228
f 221/270/193 219/269/192 254/315/228 227/316/199
f 30/38/16 251/313/226 253/48/23 32/39/17
f 30/38/16 256/30/8 249/311/224 251/313/226
f 256/30/8 22/27/5 257/312/225 249/311/224
f 257/312/225 258/317/1 260/318/229 248/310/223
f 258/317/1 257/312/225 22/27/5 19/22/1
f 259/319/1 258/317/1 19/22/1 16/21/1
f 258/317/1 259/319/1 261/320/230 260/318/229
f 260/318/229 261/320/230 263/321/231 262/303/218
f 248/310/223 260/318/229 262/303/218 243/302/217
f 264/322/232 242/300/216 262/303/218 263/321/231
f 263/321/231 261/320/230 268/323/233 265/324/234
f 264/322/232 263/321/231 265/324/234 266/325/235
f 267/326/236 478/327/237 266/325/235 265/324/234
f 269/328/238 267/326/236 265/324/234 268/323/233
f 270/329/1 271/330/1 269/328/238 268/323/233
f 259/319/1 270/329/1 268/323/233 261/320/230
f 270/329/1 259/319/1 16/21/1 14/20/1
f 271/330/1 270/329/1 14/20/1 273/19/1
f 271/330/1 272/331/1 523/332/239 269/328/238
f 272/331/1 271/330/1 273/19/1 274/333/1
f 9/13/1 275/15/1 274/333/1 273/19/1
f 276/334/1 277/335/1 272/331/1 274/333/1
f 274/333/1 275/15/1 279/336/1 276/334/1
f 278/337/1 521/338/1 277/335/1 276/334/1
f 276/334/1 279/336/1 280/339/1 278/337/1
f 281/340/1 279/336/1 275/15/1 10/10/1
f 283/341/1 280/339/1 279/336/1 281/340/1
f 285/342/1 283/341/1 281/340/1 282/343/1
f 10/10/1 6/2/1 282/343/1 281/340/1
f 529/344/1 280/339/1 283/341/1 284/345/1
f 286/346/1 284/345/1 283/341/1 285/342/1
f 285/342/1 282/343/1 59/73/1 61/74/1
f 288/77/1 286/346/1 285/342/1 61/74/1
f 287/347/1 528/348/1 284/345/1 286/346/1
f 289/349/1 287/347/1 286/346/1 288/77/1
f 289/349/1 288/77/1 62/78/1 291/350/1
f 290/351/1 531/352/1 287/347/1 289/349/1
f 290/351/1 289/349/1 291/350/1 292/353/1
f 293/354/1 294/355/1 292/353/1 291/350/1
f 64/79/1 293/354/1 291/350/1 62/78/1
f 64/79/1 66/80/1 295/356/1 293/354/1
f 296/357/1 294/355/1 293/354/1 295/356/1
f 298/358/1 296/357/1 295/356/1 297/359/1
f 66/80/1 68/82/1 297/359/1 295/356/1
f 299/360/1 300/361/1 298/358/1 297/359/1
f 302/85/1 299/360/1 297/359/1 68/82/1
f 300/361/1 299/360/1 301/362/240 308/363/241
f 299/360/1 302/85/1 303/364/242 301/362/240
f 302/85/1 69/84/1 304/88/30 303/364/242
f 304/88/30 306/365/243 305/122/61 303/364/242
f 303/364/242 305/122/61 99/125/62 301/362/240
f 306/365/243 307/366/45 95/123/56 305/122/61
f 78/92/34 81/95/37 307/366/45 306/365/243
f 72/87/29 78/92/34 306/365/243 304/88/30
f 308/363/241 301/362/240 99/125/62 101/127/63
f 310/367/1 300/361/1 308/363/241 309/368/244
f 308/363/241 101/127/63 103/129/65 309/368/244
f 312/369/1 310/367/1 309/368/244 311/370/245
f 309/368/244 103/129/65 314/133/68 311/370/245
f 315/371/246 312/369/1 311/370/245 313/372/247
f 311/370/245 314/133/68 113/145/78 313/372/247
f 313/372/247 113/145/78 115/147/79 315/371/246
f 312/369/1 315/371/246 316/373/248 317/374/1
f 315/371/246 115/147/79 117/149/81 316/373/248
f 321/375/1 317/374/1 316/373/248 318/376/249
f 316/373/248 117/149/81 319/153/84 318/376/249
f 318/376/249 319/153/84 773/167/97 320/377/250
f 322/378/1 321/375/1 318/376/249 320/377/250
f 317/374/1 321/375/1 323/379/1 324/380/1
f 321/375/1 322/378/1 325/381/1 323/379/1
f 296/357/1 298/358/1 324/380/1 323/379/1
f 294/355/1 296/357/1 323/379/1 325/381/1
f 294/355/1 325/381/1 326/382/1 292/353/1
f 325/381/1 322/378/1 328/383/1 326/382/1
f 327/384/1 290/351/1 292/353/1 326/382/1
f 330/385/1 327/384/1 326/382/1 328/383/1
f 332/386/251 330/385/1 328/383/1 329/387/252
f 322/378/1 320/377/250 329/387/252 328/383/1
f 532/388/1 327/384/1 330/385/1 331/389/1
f 332/386/251 333/390/253 331/389/1 330/385/1
f 132/172/99 134/175/102 333/390/253 332/386/251
f 132/172/99 332/386/251 329/387/252 130/170/98
f 134/175/102 336/177/103 334/391/254 333/390/253
f 333/390/253 334/391/254 337/392/1 331/389/1
f 339/393/1 337/392/1 334/391/254 335/394/255
f 335/394/255 334/391/254 336/177/103 362/395/256
f 338/396/1 532/388/1 331/389/1 337/392/1
f 337/392/1 339/393/1 341/397/1 338/396/1
f 340/398/1 339/393/1 335/394/255 360/399/257
f 339/393/1 340/398/1 343/400/1 341/397/1
f 341/397/1 342/401/1 530/402/1 338/396/1
f 342/401/1 341/397/1 343/400/1 344/403/1
f 345/404/1 346/405/1 344/403/1 343/400/1
f 348/406/1 345/404/1 343/400/1 340/398/1
f 346/405/1 345/404/1 347/407/258 533/408/259
f 345/404/1 348/406/1 350/409/260 347/407/258
f 349/410/261 348/406/1 340/398/1 360/399/257
f 348/406/1 349/410/261 351/411/262 350/409/260
f 350/409/260 351/411/262 355/412/263 352/413/264
f 347/407/258 350/409/260 352/413/264 353/414/265
f 354/415/266 536/416/267 353/414/265 352/413/264
f 356/417/268 354/415/266 352/413/264 355/412/263
f 351/411/262 349/410/261 357/418/269 355/412/263
f 358/419/270 356/417/268 355/412/263 357/418/269
f 361/420/271 358/419/270 357/418/269 359/421/272
f 349/410/261 360/399/257 359/421/272 357/418/269
f 360/399/257 335/394/255 362/395/256 359/421/272
f 363/422/273 361/420/271 359/421/272 362/395/256
f 135/178/104 363/422/273 362/395/256 336/177/103
f 361/423/271 363/424/273 364/425/274 365/426/275
f 363/424/273 135/180/104 137/179/105 364/425/274
f 365/426/275 364/425/274 366/427/276 367/428/277
f 364/425/274 137/179/105 139/182/107 366/427/276
f 367/428/277 366/427/276 368/429/278 369/430/279
f 366/427/276 139/182/107 370/183/108 368/429/278
f 369/430/279 368/429/278 371/431/280 372/432/281
f 368/429/278 370/183/108 373/433/282 371/431/280
f 374/434/283 376/435/284 372/432/281 371/431/280
f 377/436/285 374/434/283 371/431/280 373/433/282
f 377/436/285 378/437/286 375/438/287 374/434/283
f 374/434/283 375/438/287 562/439/288 376/435/284
f 378/437/286 377/436/285 379/440/289 380/441/290
f 373/433/282 382/188/113 379/440/289 377/436/285
f 383/442/291 380/441/290 379/440/289 381/193/118
f 143/187/112 381/193/118 379/440/289 382/188/113
f 140/184/109 382/188/113 373/433/282 370/183/108
f 383/442/291 381/193/118 147/192/117 385/200/125
f 383/442/291 384/443/292 701/444/293 380/441/290
f 385/200/125 386/445/294 384/443/292 383/442/291
f 151/199/124 388/446/295 386/445/294 385/200/125
f 702/447/296 384/443/292 386/445/294 387/448/297
f 387/448/297 386/445/294 388/446/295 389/449/298
f 391/450/299 389/449/298 388/446/295 390/451/300
f 151/199/124 153/198/123 390/451/300 388/446/295
f 393/452/301 391/450/299 390/451/300 392/453/302
f 153/198/123 155/202/127 392/453/302 390/451/300
f 395/454/303 393/452/301 392/453/302 394/455/304
f 155/202/127 397/205/130 394/455/304 392/453/302
f 398/456/305 395/454/303 394/455/304 396/457/306
f 397/205/130 168/216/141 396/457/306 394/455/304
f 400/458/307 398/456/305 396/457/306 399/459/308
f 168/216/141 170/215/140 399/459/308 396/457/306
f 402/460/309 400/458/307 399/459/308 401/461/310
f 170/215/140 172/218/143 401/461/310 399/459/308
f 404/462/311 402/460/309 401/461/310 403/463/312
f 172/218/143 406/221/146 403/463/312 401/461/310
f 407/464/313 404/462/311 403/463/312 405/465/314
f 406/221/146 183/230/155 405/465/314 403/463/312
f 409/466/315 407/464/313 405/465/314 408/467/316
f 183/230/155 185/229/154 408/467/316 405/465/314
f 411/468/317 409/466/315 408/467/316 410/469/318
f 185/229/154 187/232/157 410/469/318 408/467/316
f 413/470/319 411/468/317 410/469/318 412/471/320
f 187/232/157 415/235/160 412/471/320 410/469/318
f 417/472/321 413/470/319 412/471/320 414/473/322
f 415/235/160 416/246/171 414/473/322 412/471/320
f 193/238/163 416/246/171 415/235/160 188/234/159
f 416/246/171 198/245/170 418/474/323 414/473/322
f 419/475/324 417/472/321 414/473/322 418/474/323
f 421/476/325 419/475/324 418/474/323 420/477/326
f 198/245/170 200/247/172 420/477/326 418/474/323
f 423/478/327 421/476/325 420/477/326 422/479/328
f 200/247/172 202/249/174 422/479/328 420/477/326
f 425/480/329 423/478/327 422/479/328 424/481/330
f 202/249/174 427/252/177 424/481/330 422/479/328
f 634/482/331 425/480/329 424/481/330 426/483/332
f 427/252/177 428/484/333 426/483/332 424/481/330
f 429/485/334 428/484/333 427/252/177 203/251/176
f 430/486/335 428/484/333 429/485/334 432/487/336
f 428/484/333 430/486/335 433/488/337 426/483/332
f 431/489/338 435/490/339 433/488/337 430/486/335
f 450/491/340 431/489/338 430/486/335 432/487/336
f 434/492/341 634/482/331 426/483/332 433/488/337
f 434/492/341 433/488/337 435/490/339 436/493/342
f 438/494/343 436/495/342 435/496/339 437/497/344
f 431/498/338 440/499/345 437/497/344 435/496/339
f 438/494/343 437/497/344 439/500/346 742/501/347
f 442/502/348 439/500/346 437/497/344 440/499/345
f 444/503/349 442/502/348 440/499/345 441/504/350
f 450/505/340 441/504/350 440/499/345 431/498/338
f 442/502/348 443/506/351 745/507/352 439/500/346
f 445/508/353 443/506/351 442/502/348 444/503/349
f 445/508/353 444/503/349 446/509/354 447/510/355
f 446/509/354 444/503/349 441/504/350 448/511/356
f 238/293/210 455/297/214 447/510/355 446/509/354
f 238/293/210 446/509/354 448/511/356 235/288/206
f 233/289/207 235/288/206 448/511/356 449/512/357
f 449/512/357 448/511/356 441/504/350 450/505/340
f 233/290/207 449/513/357 451/514/358 452/291/208
f 449/513/357 450/491/340 432/487/336 451/514/358
f 454/515/359 452/291/208 451/514/358 453/516/360
f 453/516/360 451/514/358 432/487/336 429/485/334
f 207/255/180 454/515/359 453/516/360 205/253/178
f 429/485/334 203/251/176 205/253/178 453/516/360
f 454/515/359 225/275/196 228/277/198 452/291/208
f 207/255/180 223/256/181 225/275/196 454/515/359
f 455/297/214 458/517/361 456/518/362 447/510/355
f 459/519/363 445/508/353 447/510/355 456/518/362
f 461/520/364 459/519/363 456/518/362 457/521/365
f 458/517/361 471/522/366 457/521/365 456/518/362
f 461/520/364 462/523/367 460/524/368 459/519/363
f 459/519/363 460/524/368 443/506/351 445/508/353
f 463/525/369 464/526/370 462/523/367 461/520/364
f 463/525/369 461/520/364 457/521/365 466/527/371
f 465/528/372 754/529/373 464/526/370 463/525/369
f 465/528/372 463/525/369 466/527/371 467/530/374
f 468/531/375 469/532/376 467/530/374 466/527/371
f 471/522/366 468/531/375 466/527/371 457/521/365
f 470/533/377 489/534/378 469/532/376 468/531/375
f 472/535/379 470/533/377 468/531/375 471/522/366
f 473/536/380 472/535/379 471/522/366 458/517/361
f 475/537/381 474/538/382 472/535/379 473/536/380
f 474/538/382 476/539/383 470/533/377 472/535/379
f 266/540/235 478/541/237 476/539/383 474/538/382
f 264/542/232 266/540/235 474/538/382 475/537/381
f 476/539/383 477/543/384 489/534/378 470/533/377
f 478/541/237 479/544/385 477/543/384 476/539/383
f 478/327/237 267/326/236 480/545/386 479/546/385
f 479/546/385 480/545/386 482/547/387 481/548/388
f 479/544/385 481/549/388 484/550/389 477/543/384
f 483/551/390 481/548/388 482/547/387 515/552/391
f 481/549/388 483/553/390 485/554/392 484/550/389
f 484/550/389 485/554/392 487/555/393 486/556/394
f 477/543/384 484/550/389 486/556/394 489/534/378
f 486/556/394 487/555/393 490/557/395 488/558/396
f 489/534/378 486/556/394 488/558/396 469/532/376
f 488/558/396 490/557/395 492/559/397 491/560/398
f 469/532/376 488/558/396 491/560/398 467/530/374
f 495/561/399 493/562/400 491/560/398 492/559/397
f 493/562/400 465/528/372 467/530/374 491/560/398
f 465/528/372 493/562/400 494/563/401 754/529/373
f 493/562/400 495/561/399 496/564/402 494/563/401
f 497/565/403 498/566/404 496/564/402 495/561/399
f 497/565/403 495/561/399 492/559/397 500/567/405
f 499/568/406 763/569/407 498/566/404 497/565/403
f 499/568/406 497/565/403 500/567/405 502/570/408
f 501/571/409 504/572/410 502/570/408 500/567/405
f 490/557/395 501/571/409 500/567/405 492/559/397
f 547/573/411 499/568/406 502/570/408 503/574/412
f 504/572/410 505/575/413 503/574/412 502/570/408
f 506/576/414 507/577/415 505/575/413 504/572/410
f 508/578/416 506/576/414 504/572/410 501/571/409
f 509/579/417 510/580/418 507/577/415 506/576/414
f 512/581/419 509/579/417 506/576/414 508/578/416
f 511/582/420 535/583/421 510/580/418 509/579/417
f 513/584/422 511/582/420 509/579/417 512/581/419
f 483/553/390 513/584/422 512/581/419 485/554/392
f 485/554/392 512/581/419 508/578/416 487/555/393
f 513/585/422 483/551/390 515/552/391 514/586/423
f 511/587/420 513/585/422 514/586/423 516/588/424
f 520/589/425 517/590/426 514/586/423 515/552/391
f 517/590/426 518/591/427 516/588/424 514/586/423
f 519/592/1 525/593/1 518/591/427 517/590/426
f 521/338/1 519/592/1 517/590/426 520/589/425
f 522/594/428 277/335/1 521/338/1 520/589/425
f 522/594/428 520/589/425 515/552/391 482/547/387
f 523/332/239 272/331/1 277/335/1 522/594/428
f 480/545/386 523/332/239 522/594/428 482/547/387
f 267/326/236 269/328/238 523/332/239 480/545/386
f 519/592/1 521/338/1 278/337/1 524/595/1
f 525/593/1 519/592/1 524/595/1 526/596/1
f 525/593/1 346/405/1 533/408/259 518/591/427
f 346/405/1 525/593/1 526/596/1 344/403/1
f 527/597/1 342/401/1 344/403/1 526/596/1
f 529/344/1 527/597/1 526/596/1 524/595/1
f 342/401/1 527/597/1 528/348/1 530/402/1
f 527/597/1 529/344/1 284/345/1 528/348/1
f 280/339/1 529/344/1 524/595/1 278/337/1
f 531/352/1 530/402/1 528/348/1 287/347/1
f 532/388/1 338/396/1 530/402/1 531/352/1
f 327/384/1 532/388/1 531/352/1 290/351/1
f 516/588/424 518/591/427 533/408/259 534/598/429
f 533/408/259 347/407/258 353/414/265 534/598/429
f 511/587/420 516/588/424 534/598/429 535/599/421
f 536/416/267 535/599/421 534/598/429 353/414/265
f 535/583/421 536/600/267 537/601/430 510/580/418
f 536/600/267 354/602/266 538/603/431 537/601/430
f 537/601/430 538/603/431 540/604/432 539/605/433
f 510/580/418 537/601/430 539/605/433 507/577/415
f 539/605/433 540/604/432 542/606/434 541/607/435
f 507/577/415 539/605/433 541/607/435 505/575/413
f 541/607/435 542/606/434 544/608/436 543/609/437
f 505/575/413 541/607/435 543/609/437 503/574/412
f 548/610/438 545/611/439 543/609/437 544/608/436
f 545/611/439 547/573/411 503/574/412 543/609/437
f 548/610/438 549/612/440 546/613/441 545/611/439
f 545/611/439 546/613/441 764/614/442 547/573/411
f 550/615/443 551/616/444 549/612/440 548/610/438
f 550/615/443 548/610/438 544/608/436 553/617/445
f 552/618/446 561/619/447 551/616/444 550/615/443
f 552/618/446 550/615/443 553/617/445 554/620/448
f 555/621/449 556/622/450 554/620/448 553/617/445
f 542/606/434 555/621/449 553/617/445 544/608/436
f 557/623/451 558/624/452 556/622/450 555/621/449
f 540/604/432 557/623/451 555/621/449 542/606/434
f 559/625/453 560/626/454 558/624/452 557/623/451
f 538/603/431 559/625/453 557/623/451 540/604/432
f 356/627/268 358/628/270 560/626/454 559/625/453
f 354/602/266 356/627/268 559/625/453 538/603/431
f 358/628/270 361/423/271 365/426/275 560/626/454
f 560/626/454 365/426/275 367/428/277 558/624/452
f 558/624/452 367/428/277 369/430/279 556/622/450
f 556/622/450 369/430/279 372/432/281 554/620/448
f 376/435/284 552/618/446 554/620/448 372/432/281
f 376/435/284 562/439/288 561/619/447 552/618/446
f 551/616/444 561/619/447 563/629/455 566/630/456
f 561/619/447 562/439/288 565/631/457 563/629/455
f 564/632/458 568/633/459 566/630/456 563/629/455
f 740/634/460 564/632/458 563/629/455 565/631/457
f 549/612/440 551/616/444 566/630/456 567/635/461
f 568/633/459 569/636/462 567/635/461 566/630/456
f 571/637/463 569/636/462 568/633/459 570/638/464
f 564/632/458 572/639/465 570/638/464 568/633/459
f 571/637/463 570/638/464 573/640/466 574/641/467
f 570/638/464 572/639/465 575/642/468 573/640/466
f 576/643/469 579/644/470 574/641/467 573/640/466
f 578/645/471 576/643/469 573/640/466 575/642/468
f 577/646/472 580/647/473 579/644/470 576/643/469
f 577/646/472 576/643/469 578/645/471 688/648/474
f 582/649/475 581/650/476 579/644/470 580/647/473
f 579/644/470 581/650/476 584/651/477 574/641/467
f 772/652/478 583/653/479 581/650/476 582/649/475
f 581/650/476 583/653/479 586/654/480 584/651/477
f 585/655/481 571/637/463 574/641/467 584/651/477
f 587/656/482 585/655/481 584/651/477 586/654/480
f 589/657/483 587/656/482 586/654/480 588/658/484
f 583/653/479 591/659/485 588/658/484 586/654/480
f 768/660/486 589/657/483 588/658/484 590/661/487
f 591/659/485 593/662/488 590/661/487 588/658/484
f 594/663/489 593/662/488 591/659/485 592/664/490
f 772/652/478 592/664/490 591/659/485 583/653/479
f 596/665/491 595/666/492 593/662/488 594/663/489
f 593/662/488 595/666/492 598/667/493 590/661/487
f 771/668/494 597/669/495 595/666/492 596/665/491
f 595/666/492 597/669/495 600/670/496 598/667/493
f 599/671/497 768/660/486 590/661/487 598/667/493
f 601/672/498 599/671/497 598/667/493 600/670/496
f 603/673/499 601/672/498 600/670/496 602/674/500
f 597/669/495 605/675/501 602/674/500 600/670/496
f 769/676/502 603/673/499 602/674/500 604/677/503
f 605/675/501 607/678/504 604/677/503 602/674/500
f 606/679/505 608/680/506 607/678/504 605/675/501
f 606/679/505 605/675/501 597/669/495 771/668/494
f 608/680/506 610/681/507 609/682/508 607/678/504
f 607/678/504 609/682/508 612/683/509 604/677/503
f 770/684/510 611/685/511 609/682/508 610/681/507
f 609/682/508 611/685/511 614/686/512 612/683/509
f 613/687/513 769/676/502 604/677/503 612/683/509
f 615/688/514 613/687/513 612/683/509 614/686/512
f 617/689/515 615/688/514 614/686/512 616/690/516
f 611/685/511 619/691/517 616/690/516 614/686/512
f 741/692/518 617/689/515 616/690/516 618/693/519
f 619/691/517 621/694/520 618/693/519 616/690/516
f 622/695/521 621/694/520 619/691/517 620/696/522
f 620/696/522 619/691/517 611/685/511 770/684/510
f 623/697/523 621/694/520 622/695/521 625/698/524
f 621/694/520 623/697/523 626/699/525 618/693/519
f 624/700/526 628/701/527 626/699/525 623/697/523
f 642/702/528 624/700/526 623/697/523 625/698/524
f 618/693/519 626/699/525 627/703/529 741/692/518
f 628/701/527 630/704/530 627/703/529 626/699/525
f 624/705/526 640/706/531 629/707/532 628/708/527
f 628/708/527 629/707/532 631/709/533 630/710/530
f 436/495/342 438/494/343 627/703/529 630/704/530
f 436/493/342 630/710/530 631/709/533 434/492/341
f 634/482/331 434/492/341 631/709/533 632/711/534
f 635/712/535 632/711/534 631/709/533 629/707/532
f 633/713/536 632/711/534 635/712/535 636/714/537
f 632/711/534 633/713/536 425/480/329 634/482/331
f 637/715/538 638/716/539 636/714/537 635/712/535
f 637/715/538 635/712/535 629/707/532 640/706/531
f 639/717/521 643/718/540 638/716/539 637/715/538
f 639/717/521 637/715/538 640/706/531 641/719/541
f 642/720/528 641/719/541 640/706/531 624/705/526
f 644/721/542 645/722/543 638/716/539 643/718/540
f 646/723/544 647/724/545 645/722/543 644/721/542
f 648/725/546 649/726/547 647/724/545 646/723/544
f 650/727/548 651/728/549 649/726/547 648/725/546
f 650/727/548 652/729/550 653/730/551 651/728/549
f 652/729/550 654/731/552 655/732/553 653/730/551
f 656/733/554 657/734/555 655/732/553 654/731/552
f 658/735/556 659/736/557 657/734/555 656/733/554
f 660/737/558 661/738/559 659/736/557 658/735/556
f 660/737/558 662/739/560 663/740/561 661/738/559
f 664/741/562 665/742/563 663/740/561 662/739/560
f 666/743/564 667/744/565 665/742/563 664/741/562
f 668/745/566 669/746/567 667/744/565 666/743/564
f 668/745/566 670/747/568 671/748/569 669/746/567
f 670/747/568 672/749/570 673/750/571 671/748/569
f 672/749/570 674/751/572 675/752/573 673/750/571
f 677/753/574 675/752/573 674/751/572 676/754/575
f 679/755/576 677/753/574 676/754/575 678/756/577
f 679/755/576 678/756/577 680/757/578 681/758/579
f 682/759/580 683/760/581 681/758/579 680/757/578
f 684/761/582 685/762/583 683/760/581 682/759/580
f 686/763/584 687/764/585 685/762/583 684/761/582
f 688/648/474 578/645/471 687/764/585 686/763/584
f 685/762/583 687/764/585 689/765/586 691/766/587
f 687/764/585 578/645/471 575/642/468 689/765/586
f 690/767/588 693/768/589 691/766/587 689/765/586
f 572/639/465 690/767/588 689/765/586 575/642/468
f 683/760/581 685/762/583 691/766/587 692/769/590
f 693/768/589 695/770/591 692/769/590 691/766/587
f 694/771/592 693/768/589 690/767/588 740/634/460
f 693/768/589 694/771/592 697/772/593 695/770/591
f 692/769/590 695/770/591 696/773/594 706/774/595
f 697/772/593 698/775/596 696/773/594 695/770/591
f 697/772/593 699/776/597 701/444/293 698/775/596
f 697/772/593 694/771/592 700/777/598 699/776/597
f 375/438/287 378/437/286 699/776/597 700/777/598
f 380/441/290 701/444/293 699/776/597 378/437/286
f 698/775/596 701/444/293 384/443/292 702/447/296
f 694/771/592 740/634/460 565/631/457 700/777/598
f 562/439/288 375/438/287 700/777/598 565/631/457
f 702/447/296 703/778/599 696/773/594 698/775/596
f 702/447/296 387/448/297 704/779/600 703/778/599
f 705/780/601 703/778/599 704/779/600 707/781/602
f 705/780/601 706/774/595 696/773/594 703/778/599
f 681/758/579 706/774/595 705/780/601 679/755/576
f 679/755/576 705/780/601 707/781/602 677/753/574
f 675/752/573 677/753/574 707/781/602 708/782/603
f 708/782/603 707/781/602 704/779/600 709/783/604
f 709/783/604 712/784/605 710/785/606 708/782/603
f 673/750/571 675/752/573 708/782/603 710/785/606
f 671/748/569 673/750/571 710/785/606 711/786/607
f 712/784/605 713/787/608 711/786/607 710/785/606
f 391/450/299 712/784/605 709/783/604 389/449/298
f 712/784/605 391/450/299 393/452/301 713/787/608
f 395/454/303 714/788/609 713/787/608 393/452/301
f 713/787/608 714/788/609 716/789/610 711/786/607
f 714/788/609 715/790/611 717/791/612 716/789/610
f 715/790/611 714/788/609 395/454/303 398/456/305
f 667/744/565 669/746/567 716/789/610 717/791/612
f 669/746/567 671/748/569 711/786/607 716/789/610
f 715/790/611 720/792/613 718/793/614 717/791/612
f 665/742/563 667/744/565 717/791/612 718/793/614
f 663/740/561 665/742/563 718/793/614 719/794/615
f 720/792/613 721/795/616 719/794/615 718/793/614
f 721/795/616 720/792/613 400/458/307 402/460/309
f 398/456/305 400/458/307 720/792/613 715/790/611
f 402/460/309 404/462/311 722/796/617 721/795/616
f 721/795/616 722/796/617 724/797/618 719/794/615
f 722/796/617 723/798/619 725/799/620 724/797/618
f 723/798/619 722/796/617 404/462/311 407/464/313
f 659/736/557 661/738/559 724/797/618 725/799/620
f 661/738/559 663/740/561 719/794/615 724/797/618
f 723/798/619 728/800/621 726/801/622 725/799/620
f 657/734/555 659/736/557 725/799/620 726/801/622
f 655/732/553 657/734/555 726/801/622 727/802/623
f 728/800/621 729/803/624 727/802/623 726/801/622
f 729/803/624 728/800/621 409/466/315 411/468/317
f 407/464/313 409/466/315 728/800/621 723/798/619
f 411/468/317 413/470/319 730/804/625 729/803/624
f 729/803/624 730/804/625 732/805/626 727/802/623
f 413/470/319 417/472/321 731/806/627 730/804/625
f 730/804/625 731/806/627 733/807/628 732/805/626
f 653/730/551 655/732/553 727/802/623 732/805/626
f 651/728/549 653/730/551 732/805/626 733/807/628
f 649/726/547 651/728/549 733/807/628 734/808/629
f 731/806/627 735/809/630 734/808/629 733/807/628
f 735/809/630 738/810/631 736/811/632 734/808/629
f 647/724/545 649/726/547 734/808/629 736/811/632
f 645/722/543 647/724/545 736/811/632 737/812/633
f 738/810/631 739/813/634 737/812/633 736/811/632
f 739/813/634 738/810/631 421/476/325 423/478/327
f 419/475/324 421/476/325 738/810/631 735/809/630
f 423/478/327 425/480/329 633/713/536 739/813/634
f 739/813/634 633/713/536 636/714/537 737/812/633
f 638/716/539 645/722/543 737/812/633 636/714/537
f 735/809/630 731/806/627 417/472/321 419/475/324
f 389/449/298 709/783/604 704/779/600 387/448/297
f 683/760/581 692/769/590 706/774/595 681/758/579
f 572/639/465 564/632/458 740/634/460 690/767/588
f 742/501/347 741/692/518 627/703/529 438/494/343
f 743/814/635 617/689/515 741/692/518 742/501/347
f 743/814/635 742/501/347 439/500/346 745/507/352
f 617/689/515 743/814/635 744/815/636 615/688/514
f 744/815/636 743/814/635 745/507/352 746/816/637
f 443/506/351 460/524/368 746/816/637 745/507/352
f 748/817/638 744/815/636 746/816/637 747/818/639
f 460/524/368 462/523/367 747/818/639 746/816/637
f 750/819/640 748/817/638 747/818/639 749/820/641
f 462/523/367 464/526/370 749/820/641 747/818/639
f 752/821/642 750/819/640 749/820/641 751/822/643
f 464/526/370 754/529/373 751/822/643 749/820/641
f 755/823/644 752/821/642 751/822/643 753/824/645
f 754/529/373 494/563/401 753/824/645 751/822/643
f 757/825/646 755/823/644 753/824/645 756/826/647
f 494/563/401 496/564/402 756/826/647 753/824/645
f 759/827/648 757/825/646 756/826/647 758/828/649
f 496/564/402 498/566/404 758/828/649 756/826/647
f 761/829/650 759/827/648 758/828/649 760/830/651
f 498/566/404 763/569/407 760/830/651 758/828/649
f 765/831/652 761/829/650 760/830/651 762/832/653
f 763/569/407 764/614/442 762/832/653 760/830/651
f 547/573/411 764/614/442 763/569/407 499/568/406
f 764/614/442 546/613/441 766/833/654 762/832/653
f 767/834/655 765/831/652 762/832/653 766/833/654
f 569/636/462 767/834/655 766/833/654 567/635/461
f 546/613/441 549/612/440 567/635/461 766/833/654
f 587/656/482 765/831/652 767/834/655 585/655/481
f 569/636/462 571/637/463 585/655/481 767/834/655
f 765/831/652 587/656/482 589/657/483 761/829/650
f 768/660/486 759/827/648 761/829/650 589/657/483
f 759/827/648 768/660/486 599/671/497 757/825/646
f 757/825/646 599/671/497 601/672/498 755/823/644
f 603/673/499 752/821/642 755/823/644 601/672/498
f 752/821/642 603/673/499 769/676/502 750/819/640
f 613/687/513 748/817/638 750/819/640 769/676/502
f 748/817/638 613/687/513 615/688/514 744/815/636
f 487/555/393 508/578/416 501/571/409 490/557/395
f 242/299/216 264/542/232 475/537/381 240/295/212
f 240/295/212 475/537/381 473/536/380 237/296/213
f 237/296/213 473/536/380 458/517/361 455/297/214
f 320/377/250 773/167/97 130/170/98 329/387/252
f 310/367/1 312/369/1 317/374/1 324/380/1
f 300/361/1 310/367/1 324/380/1 298/358/1
f 319/153/84 118/152/83 124/168/90 773/167/97
f 6/2/1 2/1/1 59/73/1 282/343/1
f 192/108/47 83/103/42 211/104/43 196/239/164
f 774/66/1 52/67/1 3/5/1 776/8/1
f 48/61/1 774/66/1 775/835/1 782/49/1
f 775/835/1 774/66/1 776/8/1 777/836/1
f 4/7/1 779/837/1 777/836/1 776/8/1
f 781/45/21 775/835/1 777/836/1 778/36/14
f 779/837/1 27/33/11 778/36/14 777/836/1
f 779/837/1 780/17/1 25/31/9 27/33/11
f 780/17/1 779/837/1 4/7/1 7/9/1
f 780/17/1 12/16/1 18/24/2 25/31/9
f 35/42/20 781/45/21 778/36/14 28/35/13
f 34/43/1 782/49/1 775/835/1 781/45/21
