# PadForge: shell re-filed to the part it belongs to
o Decal-L1
v -43.161987 -7.068006 52.430714
v -43.160248 -5.809710 52.239418
v -44.409668 -5.803878 52.234535
v -44.412823 -7.062395 52.429035
v -40.676071 -7.091444 52.253212
v -40.667404 -5.838838 52.066792
v -41.912659 -5.827753 52.186470
v -41.917927 -7.082009 52.373875
v -43.162228 -9.558719 52.610760
v -43.161457 -8.308829 52.546947
v -44.410763 -8.303354 52.548409
v -44.412945 -9.555934 52.612610
v -40.676834 -9.571034 52.427643
v -40.673382 -8.327065 52.365376
v -41.916260 -8.318643 52.487560
v -41.918377 -9.565969 52.550182
v -39.435589 -7.108865 52.077332
v -39.434509 -8.339534 52.188755
v -41.916988 -4.593484 51.866581
v -43.161598 -4.574056 51.912369
v -39.428261 -5.861656 51.892109
v -39.433430 -4.633364 51.580967
v -40.674477 -4.607608 51.751602
v -39.436584 -9.580201 52.250950
v -44.412579 -4.566271 51.903248
vn 0.0228 0.1219 0.9923
vn 0.0204 0.2030 0.9790
vn -0.0030 0.2048 0.9788
vn -0.0008 0.1231 0.9924
vn 0.1189 0.1179 0.9859
vn 0.1174 0.1965 0.9734
vn 0.0695 0.1993 0.9775
vn 0.0716 0.1195 0.9902
vn 0.0250 0.0508 0.9984
vn 0.0244 0.0721 0.9971
vn 0.0009 0.0729 0.9973
vn 0.0015 0.0511 0.9987
vn 0.1197 0.0494 0.9916
vn 0.1196 0.0698 0.9904
vn 0.0729 0.0708 0.9948
vn 0.0733 0.0500 0.9961
vn 0.1411 0.1173 0.9830
vn 0.1413 0.0694 0.9875
vn 0.0678 0.2511 0.9656
vn 0.0189 0.2553 0.9667
vn 0.1398 0.1955 0.9707
vn 0.1384 0.2451 0.9596
vn 0.1161 0.2470 0.9621
vn 0.1413 0.0492 0.9887
vn -0.0040 0.2572 0.9663
vt 0.782415 0.584284
vt 0.782201 0.555828
vt 0.810249 0.555484
vt 0.810465 0.584028
vt 0.726600 0.584532
vt 0.726249 0.556214
vt 0.754253 0.556212
vt 0.754534 0.584553
vt 0.782502 0.640266
vt 0.782472 0.612192
vt 0.810528 0.612005
vt 0.810577 0.640161
vt 0.726560 0.640262
vt 0.726567 0.612320
vt 0.754546 0.612351
vt 0.754557 0.640363
vt 0.698498 0.584532
vt 0.698460 0.612264
vt 0.753975 0.527662
vt 0.781943 0.527203
vt 0.698149 0.556269
vt 0.697817 0.527857
vt 0.725952 0.527748
vt 0.698437 0.640152
vt 0.810031 0.526757
s 0
f 1/1/1 2/2/2 3/3/3 4/4/4
f 5/5/5 6/6/6 7/7/7 8/8/8
f 9/9/9 10/10/10 11/11/11 12/12/12
f 13/13/13 14/14/14 15/15/15 16/16/16
f 8/8/8 1/1/1 10/10/10 15/15/15
f 17/17/17 5/5/5 14/14/14 18/18/18
f 19/19/19 20/20/20 2/2/2 7/7/7
f 21/21/21 22/22/22 23/23/23 6/6/6
f 8/8/8 7/7/7 2/2/2 1/1/1
f 17/17/17 21/21/21 6/6/6 5/5/5
f 16/16/16 15/15/15 10/10/10 9/9/9
f 24/24/24 18/18/18 14/14/14 13/13/13
f 1/1/1 4/4/4 11/11/11 10/10/10
f 8/8/8 15/15/15 14/14/14 5/5/5
f 20/20/20 25/25/25 3/3/3 2/2/2
f 19/19/19 7/7/7 6/6/6 23/23/23
