# Blender 4.5.3 LTS
# www.blender.org
o Dualsense.053
v -55.607758 -22.892288 21.484200
v -55.928062 -22.907516 21.484200
v -55.609581 -22.892378 22.128464
v -55.182171 -22.872053 21.484200
v -55.608906 -22.892344 20.839935
v -55.928303 -22.907528 20.791626
v -55.185616 -22.872217 20.946892
v -55.603737 -22.892096 20.195778
v -55.591679 -22.891521 19.804474
v -55.927086 -22.907473 20.099052
v -55.170959 -22.871519 20.410645
v -54.695724 -22.848923 20.682320
v -55.137363 -22.869923 20.096436
v -55.074257 -22.866922 19.845421
v -54.638355 -22.846188 20.457985
v -54.535088 -22.841282 20.283600
v -54.171810 -22.824015 20.811165
v -54.245014 -22.827497 20.949486
v -54.026237 -22.817097 20.710289
v -53.800049 -22.806343 21.113396
v -53.659954 -22.797491 21.286530
v -53.619862 -22.797770 21.070137
v -53.945442 -22.813261 21.122963
v -53.883659 -22.808126 21.307716
v -54.234909 -22.827017 21.211937
v -53.851532 -22.804979 21.484200
v -54.195328 -22.825132 21.484200
v -53.880806 -22.807947 21.660080
v -53.597332 -22.792898 21.484200
v -53.396118 -22.783323 21.484200
v -53.652267 -22.797077 21.678734
v -53.457588 -22.787817 21.700172
v -53.800049 -22.806343 21.855003
v -54.171822 -22.824015 22.157242
v -53.945442 -22.813261 21.845444
v -53.619862 -22.797770 21.898262
v -53.376942 -22.786222 21.957214
v -54.026237 -22.817097 22.258102
v -54.535095 -22.841282 22.684807
v -53.827034 -22.807623 22.387283
v -53.572567 -22.795521 22.546677
v -54.388882 -22.834341 22.900642
v -54.197029 -22.825211 23.147430
v -54.974518 -22.862173 23.425728
v -54.836941 -22.855639 23.757729
v -55.489655 -22.886679 23.860435
v -55.074268 -22.866922 23.122986
v -55.137367 -22.869923 22.871956
v -55.558167 -22.889931 23.483116
v -55.901173 -22.906237 23.675705
v -55.591686 -22.891521 23.163925
v -55.603748 -22.892096 22.772629
v -55.924171 -22.907339 23.308365
v -56.278217 -22.924162 23.371353
v -55.927094 -22.907473 22.869347
v -56.282471 -22.924366 22.910019
v -55.928463 -22.907536 22.176773
v -56.285351 -22.924505 22.197113
v -56.285416 -22.924505 21.484200
v -56.642990 -22.941511 22.202538
v -56.642757 -22.941500 21.484200
v -58.252022 -23.018005 22.242172
v -56.642956 -22.941507 22.920876
v -58.253250 -23.018068 23.000130
v -56.642406 -22.941481 23.392677
v -58.254036 -23.018106 23.504318
v -56.623062 -22.940554 23.795502
v -58.243542 -23.017603 23.937294
v -56.566616 -22.937868 24.257591
v -56.254177 -22.923018 23.761383
v -56.192131 -22.920069 24.210251
v -56.104416 -22.915895 24.663307
v -55.839966 -22.903318 24.102577
v -55.749794 -22.899038 24.541351
v -55.388966 -22.881884 24.261177
v -55.724171 -22.810402 24.752472
v -55.383568 -22.797194 24.497307
v -56.032207 -22.823698 24.848656
v -55.713482 -22.647007 24.889488
v -55.397873 -22.631927 24.654190
v -55.973423 -22.659498 24.962486
v -55.710976 -21.812956 24.887741
v -55.708462 -20.978878 24.886002
v -55.396309 -21.801586 24.652664
v -55.969677 -21.822399 24.960770
v -56.325432 -21.835182 25.002022
v -55.965935 -20.985306 24.959045
v -55.958431 -20.354080 24.955605
v -56.321339 -20.993862 25.000488
v -56.313160 -20.354200 24.997444
v -58.069206 -21.035418 25.203056
v -58.058315 -20.354048 25.200165
v -59.845257 -21.077696 25.360023
v -58.074646 -21.897587 25.204514
v -58.080082 -22.759766 25.205963
v -59.852142 -21.961037 25.361412
v -60.682522 -21.990858 25.390694
v -59.859032 -22.844374 25.362808
v -59.860973 -23.003492 25.248116
v -60.690411 -22.883978 25.391907
v -60.678829 -23.042168 25.278648
v -61.039570 -22.900679 25.327850
v -61.027782 -23.057747 25.221588
v -61.393879 -22.917627 25.193367
v -61.031017 -22.003584 25.326942
v -61.022457 -21.106493 25.326035
v -61.384804 -22.016495 25.192772
v -61.375721 -21.115374 25.192177
v -61.693829 -22.027845 24.995590
v -61.684361 -21.123245 24.995323
v -61.932533 -22.036659 24.736626
v -61.703300 -22.932436 24.995857
v -61.682266 -23.080364 24.969086
v -61.942207 -22.943899 24.736618
v -61.871250 -23.093987 24.690262
v -62.127106 -22.952753 24.380486
v -62.038349 -23.104242 24.333565
v -62.256546 -22.958937 23.878967
v -62.117378 -22.043451 24.380547
v -62.107643 -21.134153 24.380608
v -62.246761 -22.048172 23.879005
v -62.321770 -22.050882 23.215950
v -62.236977 -21.137409 23.879044
v -62.311951 -21.139248 23.215973
v -62.217407 -20.358837 23.879135
v -62.292278 -20.358946 23.216011
v -62.241234 -20.283646 23.883690
v -62.088181 -20.358532 24.380722
v -61.903530 -20.357922 24.736641
v -62.110882 -20.283356 24.389725
v -61.923378 -20.282770 24.751129
v -62.181107 -20.257814 24.416687
v -62.228142 -20.257431 24.434586
v -62.314911 -20.258068 23.897316
v -61.985054 -20.257305 24.794586
v -62.026424 -20.256962 24.823433
v -61.729092 -20.256559 25.072105
v -61.761589 -20.256310 25.110680
v -61.401596 -20.255770 25.280800
v -61.680824 -20.281906 25.014107
v -61.368073 -20.281019 25.213402
v -61.665436 -20.357027 24.994789
v -61.357571 -20.356092 25.190979
v -61.005341 -20.355268 25.324211
v -60.658855 -20.354452 25.387062
v -61.011333 -20.280220 25.348328
v -60.659985 -20.279436 25.412033
v -61.031216 -20.255074 25.420876
v -61.044754 -20.254995 25.469200
v -60.665169 -20.254393 25.487244
v -60.668911 -20.254395 25.537415
v -59.824463 -20.254023 25.456917
v -59.821381 -20.254076 25.506844
v -58.047501 -20.254101 25.299469
v -59.829323 -20.279009 25.382072
v -58.055294 -20.279064 25.224907
v -59.831470 -20.353998 25.357231
v -56.309883 -20.279205 25.022133
v -55.953156 -20.279106 24.980042
v -56.301029 -20.254238 25.096581
v -56.295227 -20.254253 25.146240
v -55.938210 -20.254156 25.053757
v -55.928364 -20.254156 25.102936
v -55.657806 -20.253851 24.973335
v -55.635189 -20.253929 25.018906
v -55.327370 -20.253706 24.724785
v -55.691887 -20.278759 24.905121
v -55.703438 -20.353731 24.882523
v -55.375484 -20.278606 24.667145
v -54.753071 -20.278795 24.093437
v -55.391659 -20.353567 24.648056
v -54.770351 -20.353756 24.075409
v -55.394764 -20.971264 24.651123
v -54.772366 -20.956528 24.078445
v -54.006901 -20.938459 23.336647
v -54.773369 -21.779406 24.079971
v -54.007324 -21.752134 23.338181
v -54.774361 -22.602266 24.081497
v -54.007744 -22.565811 23.339706
v -54.791775 -22.764671 23.953308
v -54.082317 -22.727310 23.269485
v -53.376274 -22.698324 22.593376
v -52.821426 -22.678188 22.026047
v -53.243233 -22.529457 22.600296
v -52.655823 -22.501488 21.987419
v -53.243431 -21.724943 22.598770
v -53.243629 -20.920422 22.597244
v -52.656631 -21.704029 21.985893
v -52.657436 -20.906567 21.984375
v -52.501480 -21.696749 21.744804
v -52.499729 -22.491734 21.745659
v -52.503227 -20.901751 21.743958
v -52.448410 -21.693621 21.484589
v -52.510178 -21.697092 21.221039
v -52.450615 -20.899679 21.484459
v -52.446201 -22.487558 21.484703
v -52.508465 -22.492195 21.220192
v -52.585304 -22.658466 21.484459
v -52.802544 -22.755112 21.484200
v -52.646561 -22.665295 21.765678
v -52.656212 -22.665771 21.199661
v -52.821587 -22.678165 20.942024
v -52.885517 -22.760670 21.191528
v -53.071129 -22.771679 20.927032
v -53.208004 -22.775999 21.234932
v -53.465885 -22.788256 21.264847
v -53.131264 -22.770737 21.484200
v -53.376938 -22.786222 21.011192
v -53.827030 -22.807623 20.581131
v -54.388866 -22.834341 20.067764
v -53.572559 -22.795521 20.421730
v -54.197021 -22.825211 19.820984
v -53.376335 -22.698324 20.374954
v -53.243351 -22.529461 20.367943
v -54.082287 -22.727310 19.698944
v -54.007721 -22.565811 19.628738
v -54.791809 -22.764675 19.015068
v -54.774437 -22.602270 18.886856
v -55.383755 -22.797222 18.470993
v -54.836937 -22.855639 19.210663
v -55.388962 -22.881887 18.707214
v -54.974510 -22.862173 19.542664
v -55.489643 -22.886679 19.107971
v -55.839958 -22.903322 18.865822
v -55.558155 -22.889931 19.485291
v -55.901165 -22.906237 19.292702
v -55.924164 -22.907339 19.660042
v -56.254173 -22.923021 19.207024
v -56.192116 -22.920073 18.758148
v -56.623051 -22.940554 19.172897
v -56.278210 -22.924162 19.597031
v -56.642399 -22.941481 19.575722
v -56.282463 -22.924366 20.058380
v -56.285103 -22.924494 20.771286
v -56.642952 -22.941507 20.047531
v -58.253242 -23.018068 19.968269
v -56.642963 -22.941507 20.765869
v -58.252079 -23.018013 20.726234
v -59.872158 -23.095037 20.690445
v -58.251514 -23.017982 21.484200
v -59.871307 -23.095003 21.484200
v -60.619102 -23.130554 21.484200
v -59.872063 -23.095034 22.277954
v -60.619606 -23.130585 22.292175
v -59.873909 -23.095116 23.071709
v -60.620827 -23.130644 23.100159
v -59.875099 -23.095175 23.598717
v -60.621628 -23.130676 23.631317
v -59.874096 -23.095131 24.050049
v -60.626255 -23.130890 24.082771
v -59.869209 -23.094893 24.563431
v -60.638866 -23.131493 24.596275
v -59.863117 -23.094612 25.065269
v -58.210751 -23.016047 24.430870
v -58.163868 -23.013823 24.916603
v -56.485943 -22.934038 24.719421
v -58.118900 -22.921106 25.095665
v -56.401699 -22.841208 24.897255
v -56.329517 -22.676497 25.003548
v -60.663280 -23.132660 25.097794
v -61.011364 -23.149202 25.049942
v -60.983223 -23.147869 24.583618
v -61.354351 -23.165512 24.957497
v -61.365829 -23.166052 24.579674
v -61.633053 -23.178757 24.894226
v -61.373543 -23.071653 25.105583
v -61.742889 -23.183975 24.635498
v -61.888584 -23.190912 24.272621
v -61.432350 -23.169209 24.166435
v -61.991882 -23.195833 23.794746
v -62.156094 -23.110817 23.841949
v -62.053040 -23.198730 23.171326
v -61.484852 -23.171722 23.712662
v -61.518742 -23.173325 23.137825
v -60.992073 -23.148291 23.652489
v -60.984249 -23.147919 24.100021
v -61.000347 -23.148678 23.113014
v -61.003799 -23.148846 22.298630
v -61.002502 -23.148790 21.484200
v -61.533379 -23.174021 22.311256
v -62.078377 -23.199942 22.328453
v -61.529152 -23.173828 21.484200
v -61.531719 -23.173943 20.657143
v -62.071636 -23.199621 21.484200
v -62.075569 -23.199804 20.639946
v -62.245644 -23.115377 21.484200
v -62.249790 -23.115601 20.627647
v -62.252876 -23.115768 22.340744
v -62.354485 -22.963606 21.484192
v -62.344631 -22.051695 21.484200
v -62.362095 -22.963970 22.351013
v -62.358753 -22.963810 20.617386
v -62.331604 -22.962517 19.752487
v -62.348900 -22.051855 20.617378
v -62.321766 -22.050882 19.752464
v -62.339046 -21.139908 20.617371
v -62.311939 -21.139248 19.752449
v -62.319351 -20.358976 20.617355
v -62.334778 -21.139803 21.484200
v -62.342388 -21.139990 22.351028
v -62.315079 -20.358969 21.484200
v -62.339272 -20.283770 21.484200
v -62.322674 -20.358982 22.351059
v -62.346870 -20.283781 22.351936
v -62.421597 -20.258200 22.354607
v -62.316425 -20.283751 23.217796
v -62.391029 -20.258165 23.223114
v -62.440945 -20.257755 23.226654
v -62.471592 -20.257793 22.356377
v -62.364201 -20.257666 23.906372
v -62.515617 -20.232166 23.231979
v -62.546398 -20.232201 22.359047
v -62.539989 -20.156967 23.233757
v -62.437923 -20.232092 23.920006
v -62.461994 -20.156904 23.924545
v -62.298439 -20.231880 24.461555
v -62.321358 -20.156700 24.470551
v -62.088169 -20.231504 24.866882
v -62.108250 -20.156353 24.881386
v -61.809933 -20.230951 25.168686
v -61.825542 -20.155836 25.188019
v -61.457859 -20.230371 25.393082
v -61.468575 -20.155291 25.415558
v -61.064709 -20.229856 25.541779
v -61.424259 -20.255629 25.325684
v -61.070915 -20.154804 25.565979
v -60.674141 -20.229343 25.612656
v -60.675468 -20.154331 25.637733
v -59.816566 -20.229082 25.581718
v -59.814575 -20.154085 25.606682
v -58.034649 -20.229149 25.423843
v -58.031773 -20.154175 25.448715
v -56.286415 -20.229290 25.220734
v -58.042416 -20.254124 25.349228
v -56.283249 -20.154308 25.245567
v -55.913460 -20.229219 25.176712
v -55.908298 -20.154238 25.201309
v -55.601135 -20.229015 25.087173
v -55.589584 -20.154032 25.109924
v -55.247181 -20.228914 24.820923
v -55.230980 -20.153950 24.840164
v -54.615543 -20.229055 24.238693
v -55.295315 -20.253811 24.763237
v -54.667133 -20.253952 24.184196
v -54.701508 -20.253889 24.147881
v -53.901527 -20.254206 23.441025
v -53.137497 -20.254448 22.699615
v -53.936348 -20.254160 23.405151
v -53.849251 -20.229277 23.494850
v -53.831738 -20.154301 23.512794
v -53.084225 -20.229488 22.752434
v -53.066422 -20.154509 22.770065
v -52.485531 -20.229671 22.125114
v -52.466240 -20.154680 22.141113
v -52.543400 -20.254656 22.077103
v -52.289680 -20.229731 21.816895
v -52.265541 -20.154734 21.825211
v -52.223373 -20.229753 21.484192
v -52.362110 -20.254726 21.791977
v -52.300690 -20.254749 21.484200
v -52.410389 -20.254723 21.775368
v -52.352226 -20.254757 21.484192
v -52.482750 -20.279716 21.750473
v -52.581993 -20.254641 22.045120
v -53.173031 -20.254425 22.664413
v -52.639839 -20.279623 21.997169
v -52.659050 -20.354612 21.981316
v -53.226284 -20.279377 22.611641
v -53.244015 -20.354370 22.594177
v -53.988598 -20.279079 23.351379
v -54.006050 -20.354065 23.333580
v -52.506733 -20.354710 21.742249
v -52.455036 -20.354755 21.484215
v -52.515347 -20.354702 21.223557
v -52.429466 -20.279757 21.484200
v -52.491634 -20.279701 21.215248
v -52.420097 -20.254711 21.190102
v -52.639828 -20.279612 20.971245
v -53.226284 -20.279377 20.356766
v -52.659054 -20.354607 20.987083
v -52.581982 -20.254631 20.923294
v -52.543392 -20.254641 20.891312
v -53.173031 -20.254425 20.303993
v -53.137497 -20.254448 20.268791
v -53.936348 -20.254160 19.563255
v -53.901527 -20.254206 19.527382
v -54.701508 -20.253893 18.820526
v -53.988598 -20.279079 19.617027
v -54.753071 -20.278799 18.874969
v -54.006050 -20.354065 19.634819
v -54.770359 -20.353760 18.892990
v -54.006886 -20.938459 19.631775
v -53.244022 -20.354370 20.374229
v -53.243679 -20.920422 20.371078
v -52.657566 -20.906555 20.983711
v -53.243519 -21.724943 20.369514
v -52.656830 -21.704029 20.982040
v -54.007298 -21.752134 19.630257
v -54.773418 -21.779409 18.888390
v -54.772396 -20.956535 18.889923
v -55.396603 -21.801609 18.315598
v -55.710674 -21.812944 18.080879
v -55.398258 -22.631954 18.314018
v -55.394958 -20.971283 18.317177
v -55.708256 -20.978882 18.082550
v -55.391663 -20.353571 18.320351
v -55.703430 -20.353735 18.085899
v -55.375484 -20.278610 18.301262
v -55.691875 -20.278763 18.063286
v -55.327370 -20.253710 18.243622
v -55.295315 -20.253815 18.205170
v -55.657806 -20.253855 17.995071
v -55.635189 -20.253933 17.949509
v -55.938210 -20.254160 17.914650
v -55.928371 -20.254160 17.865463
v -56.301025 -20.254242 17.871826
v -55.953156 -20.279110 17.988373
v -56.309883 -20.279209 17.946274
v -55.958431 -20.354084 18.012802
v -56.313160 -20.354204 17.970970
v -55.965923 -20.985308 18.009354
v -56.321369 -20.993866 17.967911
v -55.969673 -21.822403 18.007629
v -56.325478 -21.835186 17.966377
v -55.973415 -22.659502 18.005913
v -56.032200 -22.823702 18.119743
v -55.713093 -22.647003 18.079208
v -56.329594 -22.676504 17.964851
v -58.080009 -22.759769 17.762459
v -56.401733 -22.841211 18.071144
v -58.118862 -22.921110 17.872742
v -56.485939 -22.934042 18.248978
v -58.163857 -23.013826 18.051796
v -56.566608 -22.937872 18.710808
v -56.104408 -22.915899 18.305092
v -55.749790 -22.899042 18.427048
v -55.723972 -22.810385 18.216087
v -58.210739 -23.016050 18.537529
v -58.243530 -23.017607 19.031105
v -59.869198 -23.094896 18.404968
v -60.638855 -23.131496 18.372124
v -59.874092 -23.095135 18.918343
v -59.863110 -23.094616 17.903137
v -60.663273 -23.132662 17.870613
v -59.860992 -23.003496 17.720299
v -59.859093 -22.844378 17.605614
v -60.678806 -23.042171 17.689766
v -60.690369 -22.883974 17.576515
v -61.027775 -23.057751 17.746826
v -61.011353 -23.149206 17.918465
v -61.039551 -22.900681 17.640564
v -61.373520 -23.071657 17.862831
v -61.393833 -22.917631 17.775024
v -61.682251 -23.080368 17.999321
v -61.354340 -23.165516 18.010918
v -61.633049 -23.178759 18.074181
v -61.365826 -23.166056 18.388725
v -60.983219 -23.147873 18.384781
v -61.432343 -23.169212 18.801964
v -61.742882 -23.183979 18.332909
v -61.888577 -23.190916 18.695786
v -61.871178 -23.093983 18.278053
v -61.942070 -22.943899 18.231606
v -62.038364 -23.104246 18.634865
v -62.127136 -22.952757 18.587967
v -62.156086 -23.110817 19.126511
v -62.256561 -22.958941 19.089539
v -62.224800 -23.114342 19.772781
v -61.991871 -23.195833 19.173653
v -62.053032 -23.198730 19.797081
v -61.484848 -23.171722 19.255745
v -60.992069 -23.148291 19.315918
v -61.518734 -23.173325 19.830582
v -61.000343 -23.148678 19.855385
v -61.003380 -23.148823 20.669777
v -60.620823 -23.130644 19.868248
v -59.873905 -23.095116 19.896698
v -60.621620 -23.130676 19.337090
v -60.619663 -23.130589 20.676231
v -60.626247 -23.130894 18.885643
v -59.875088 -23.095175 19.369690
v -58.254032 -23.018106 19.464081
v -60.984245 -23.147921 18.868378
v -62.246769 -22.048176 19.089470
v -62.117393 -22.043455 18.587891
v -62.236980 -21.137417 19.089401
v -62.107658 -21.134167 18.587814
v -62.217407 -20.358845 19.089279
v -62.088181 -20.358540 18.587685
v -62.292278 -20.358946 19.752396
v -62.241234 -20.283657 19.084724
v -62.110882 -20.283363 18.578682
v -62.316425 -20.283758 19.750618
v -62.314911 -20.258076 19.071098
v -62.364201 -20.257677 19.062035
v -62.181099 -20.257818 18.551712
v -62.391029 -20.258165 19.745300
v -62.440945 -20.257767 19.741753
v -62.418259 -20.258192 20.613792
v -62.468250 -20.257797 20.612022
v -62.413998 -20.258184 21.484200
v -62.343544 -20.283785 20.616463
v -62.463997 -20.257786 21.484200
v -62.538792 -20.232193 21.484200
v -62.543037 -20.232193 20.609360
v -62.563198 -20.156998 21.484200
v -62.570797 -20.156998 22.359932
v -62.561752 -19.974995 21.484200
v -62.567436 -20.156998 20.608475
v -62.539989 -20.156971 19.734657
v -62.565987 -19.974991 20.608475
v -62.538536 -19.974972 19.734657
v -62.540401 -19.900198 20.609352
v -62.536152 -19.900194 21.484200
v -62.465199 -19.875786 20.612022
v -62.512978 -19.900173 19.736427
v -62.435318 -19.900105 19.048393
v -62.437897 -19.875765 19.741745
v -62.288158 -19.876961 19.752396
v -62.361183 -19.875687 19.062012
v -62.213310 -19.876860 19.089294
v -62.225159 -19.875437 18.533760
v -62.084167 -19.876547 18.587753
v -62.023487 -19.874941 18.144897
v -62.295845 -19.899889 18.506805
v -62.319935 -19.974716 18.497826
v -62.085629 -19.899479 18.101456
v -62.106850 -19.974325 18.086990
v -61.807381 -19.898907 17.799706
v -61.824139 -19.973783 17.780380
v -61.455441 -19.898291 17.575325
v -61.758667 -19.874264 17.857712
v -61.661739 -19.874987 17.973816
v -61.421452 -19.873541 17.642723
v -61.354034 -19.874025 17.777596
v -61.042118 -19.872885 17.499176
v -61.001972 -19.873161 17.644363
v -60.666420 -19.872259 17.431023
v -61.062420 -19.897739 17.426605
v -61.069649 -19.972696 17.402412
v -60.671997 -19.897200 17.355782
v -60.674286 -19.972189 17.330696
v -59.814613 -19.896887 17.386681
v -59.813499 -19.971891 17.361717
v -58.033131 -19.896843 17.544571
v -59.819130 -19.871872 17.461563
v -59.828476 -19.871811 17.611328
v -58.040657 -19.871811 17.619179
v -58.055943 -19.871737 17.768417
v -56.293945 -19.871845 17.822166
v -56.311398 -19.871782 17.971146
v -55.927223 -19.871719 17.865456
v -56.285301 -19.896875 17.747673
v -56.282654 -19.971891 17.722847
v -55.912464 -19.896778 17.791687
v -55.907745 -19.971794 17.767097
v -55.600227 -19.896536 17.881241
v -55.589104 -19.971567 17.858475
v -55.246407 -19.896414 18.147423
v -55.634182 -19.871454 17.949509
v -55.702248 -19.871250 18.086006
v -55.294434 -19.871305 18.205109
v -55.390602 -19.871059 18.320465
v -54.666428 -19.871395 18.784157
v -54.769516 -19.871181 18.893127
v -53.901051 -19.871592 19.527328
v -54.614922 -19.896492 18.729668
v -54.597881 -19.971527 18.711517
v -53.848843 -19.896664 19.473518
v -53.831520 -19.971684 19.455582
v -53.084011 -19.896835 20.215927
v -53.066292 -19.971851 20.198326
v -52.485485 -19.896969 20.843262
v -53.137264 -19.871794 20.268730
v -53.243793 -19.871704 20.374359
v -52.543350 -19.871954 20.891251
v -52.659084 -19.871927 20.987244
v -52.372368 -19.872017 21.173309
v -52.300713 -19.872047 21.484192
v -52.515549 -19.872013 21.223640
v -52.300774 -19.897024 21.148148
v -52.276909 -19.972033 21.139755
v -52.223392 -19.897051 21.484192
v -52.289684 -19.897017 21.816917
v -52.197617 -19.972048 21.484192
v -52.197605 -20.154751 21.484192
v -52.265541 -19.972012 21.825218
v -52.466225 -19.971954 22.141144
v -53.066292 -19.971851 22.770081
v -52.485504 -19.896950 22.125160
v -53.084011 -19.896835 22.752480
v -52.543362 -19.871935 22.077179
v -53.137264 -19.871794 22.699677
v -52.659096 -19.871897 21.981186
v -52.362110 -19.872005 21.792007
v -52.506947 -19.871998 21.742165
v -52.455334 -19.872061 21.484192
v -53.243793 -19.871704 22.594040
v -54.005524 -19.871450 23.333450
v -53.901051 -19.871592 23.441078
v -54.769524 -19.871181 24.075272
v -54.666439 -19.871391 24.184250
v -55.390602 -19.871056 24.647942
v -55.294437 -19.871302 24.763298
v -55.702248 -19.871246 24.882401
v -55.634182 -19.871450 25.018890
v -55.956913 -19.871630 24.955414
v -55.927223 -19.871704 25.102951
v -56.311398 -19.871778 24.997261
v -56.293945 -19.871841 25.146240
v -58.055943 -19.871733 25.199997
v -58.040657 -19.871809 25.349228
v -59.828476 -19.871809 25.357086
v -59.819126 -19.871868 25.506844
v -60.655739 -19.872311 25.386902
v -60.666420 -19.872255 25.537392
v -61.001972 -19.873158 25.324051
v -61.042118 -19.872881 25.469238
v -61.354034 -19.874022 25.190819
v -61.421452 -19.873537 25.325691
v -61.661739 -19.874983 24.994598
v -61.758671 -19.874260 25.110703
v -61.899643 -19.875898 24.736496
v -62.023487 -19.874937 24.823509
v -62.084179 -19.876558 24.380638
v -62.225159 -19.875441 24.434631
v -62.213303 -19.876863 23.879128
v -62.361172 -19.875683 23.906395
v -62.288158 -19.876972 23.216019
v -62.437897 -19.875780 23.226669
v -62.318550 -19.877001 22.351059
v -62.468548 -19.875805 22.356384
v -62.310963 -19.876982 21.484200
v -62.460949 -19.875786 21.484200
v -62.315231 -19.876993 20.617355
v -62.543751 -19.900202 22.359047
v -62.512978 -19.900181 23.231987
v -62.569351 -19.975002 22.359932
v -62.538536 -19.974979 23.233757
v -62.460548 -19.974920 23.924561
v -62.319946 -19.974730 24.470573
v -62.435310 -19.900112 23.920021
v -62.295845 -19.899893 24.461594
v -62.085629 -19.899475 24.866959
v -61.807388 -19.898903 25.168694
v -62.106850 -19.974321 24.881416
v -61.824139 -19.973780 25.188034
v -61.467251 -19.973204 25.415558
v -61.069649 -19.972692 25.566002
v -61.455441 -19.898287 25.393089
v -61.062420 -19.897736 25.541817
v -60.671997 -19.897196 25.612625
v -59.814613 -19.896883 25.581718
v -60.674286 -19.972185 25.637718
v -59.813484 -19.971888 25.606689
v -58.030933 -19.971848 25.448715
v -56.282654 -19.971888 25.245560
v -58.033131 -19.896839 25.423843
v -56.285301 -19.896875 25.220734
v -55.912464 -19.896774 25.176720
v -55.907745 -19.971790 25.201309
v -55.600227 -19.896532 25.087166
v -55.246407 -19.896410 24.820976
v -55.589104 -19.971563 25.109917
v -55.230545 -19.971437 24.840195
v -54.597881 -19.971523 24.256889
v -53.831520 -19.971684 23.512817
v -54.598221 -20.154085 24.256859
v -54.614933 -19.896488 24.238739
v -53.848843 -19.896664 23.494888
v -52.276913 -20.154730 21.139771
v -52.300781 -20.229727 21.148163
v -52.466228 -20.154673 20.827293
v -52.466202 -19.971985 20.827271
v -53.066422 -20.154509 20.198349
v -52.485527 -20.229671 20.843307
v -53.084225 -20.229488 20.215965
v -53.849251 -20.229277 19.473557
v -53.831738 -20.154301 19.455605
v -54.615543 -20.229059 18.729721
v -54.598221 -20.154099 18.711548
v -55.247181 -20.228918 18.147476
v -54.667133 -20.253967 18.784210
v -55.230980 -20.153954 18.128242
v -55.601135 -20.229019 17.881233
v -55.589584 -20.154036 17.858475
v -55.913460 -20.229219 17.791695
v -55.908302 -20.154242 17.767105
v -56.286415 -20.229294 17.747673
v -56.283249 -20.154312 17.722839
v -58.034649 -20.229153 17.544571
v -56.295223 -20.254257 17.822166
v -58.042416 -20.254128 17.619186
v -58.047501 -20.254105 17.668938
v -59.821377 -20.254078 17.461571
v -59.824463 -20.254026 17.511490
v -60.668911 -20.254398 17.430992
v -59.816566 -20.229086 17.386688
v -59.814571 -20.154089 17.361732
v -60.674149 -20.229347 17.355759
v -60.675472 -20.154335 17.330681
v -61.064709 -20.229849 17.426628
v -61.070915 -20.154808 17.402435
v -61.457859 -20.230375 17.575317
v -61.044754 -20.254995 17.499207
v -61.031216 -20.255077 17.547539
v -61.424259 -20.255632 17.642731
v -61.401596 -20.255774 17.687607
v -61.761589 -20.256313 17.857742
v -61.729076 -20.256563 17.896301
v -62.026424 -20.256966 18.144974
v -61.809933 -20.230955 17.799728
v -61.825531 -20.155840 17.780388
v -62.088169 -20.231506 18.101517
v -62.108250 -20.156357 18.087021
v -62.298439 -20.231888 18.506844
v -62.321350 -20.156715 18.497849
v -62.437935 -20.232107 19.048409
v -62.228130 -20.257439 18.533813
v -62.461994 -20.156912 19.043869
v -62.515617 -20.232166 19.736435
v -62.460560 -19.974924 19.043861
v -61.468575 -20.155294 17.552856
v -61.467251 -19.973207 17.552856
v -61.985054 -20.257309 18.173813
v -61.923378 -20.282774 18.217285
v -61.903519 -20.357925 18.231758
v -61.680824 -20.281910 17.954308
v -61.665432 -20.357031 17.973625
v -61.368073 -20.281023 17.755005
v -61.357571 -20.356096 17.777420
v -61.011333 -20.280220 17.620087
v -61.005341 -20.355272 17.644203
v -60.659985 -20.279440 17.556381
v -60.658855 -20.354456 17.581352
v -59.829323 -20.279013 17.586334
v -60.665169 -20.254395 17.481163
v -59.831459 -20.354002 17.611168
v -58.055294 -20.279068 17.743500
v -58.058315 -20.354052 17.768250
v -58.069157 -21.035421 17.765350
v -59.845276 -21.077700 17.608391
v -58.074589 -21.897587 17.763908
v -59.852177 -21.961040 17.607010
v -60.682487 -21.990847 17.577728
v -60.674610 -21.097738 17.578934
v -61.030998 -22.003588 17.641472
v -61.384758 -22.016499 17.775627
v -61.022442 -21.106497 17.642380
v -61.375690 -21.115377 17.776222
v -61.684341 -21.123249 17.973083
v -61.922791 -21.129421 18.231674
v -61.693806 -22.027849 17.972824
v -61.932430 -22.036655 18.231644
v -61.703266 -22.932440 17.972549
v -58.031773 -20.154179 17.519699
v -58.030933 -19.971851 17.519691
v -55.230545 -19.971441 18.128212
v -52.372368 -20.254711 21.173332
v -54.005524 -19.871450 19.634956
v -55.956917 -19.871641 18.012985
v -60.655739 -19.872314 17.581512
v -61.899643 -19.875902 18.231918
v -52.656094 -22.501488 20.980362
v -52.511894 -20.901970 21.221878
v -62.352230 -22.051975 22.351021
v -62.331612 -22.962517 23.215935
v -62.224800 -23.114349 23.195641
v -53.198891 -22.775518 21.729881
v -52.875225 -22.760134 21.773140
v -53.071136 -22.771679 22.041382
v -60.674633 -21.097734 25.389481
v -61.922859 -21.129421 24.736633
v -55.170967 -22.871519 22.557762
v -54.695732 -22.848923 22.286072
v -55.187538 -22.872309 22.021507
v -54.713474 -22.849768 21.887337
v -54.237804 -22.827152 21.756821
v -54.696350 -22.848951 21.484200
v -54.710438 -22.849623 21.081131
v -54.245022 -22.827497 22.018913
v -54.638359 -22.846188 22.510406
vn 0.0475 -0.9989 -0.0000
vn 0.0477 -0.9989 0.0007
vn 0.0482 -0.9988 0.0059
vn 0.0482 -0.9988 0.0042
vn 0.0484 -0.9988 0.0050
vn 0.0507 -0.9987 0.0068
vn 0.0485 -0.9988 0.0095
vn 0.0485 -0.9988 0.0084
vn 0.0494 -0.9988 0.0018
vn 0.0514 -0.9987 0.0001
vn 0.0520 -0.9986 -0.0000
vn 0.0479 -0.9989 0.0001
vn 0.0507 -0.9987 -0.0069
vn 0.0494 -0.9988 -0.0018
vn 0.0484 -0.9988 -0.0094
vn 0.0479 -0.9989 -0.0000
vn 0.0485 -0.9988 -0.0084
vn 0.0484 -0.9988 -0.0050
vn 0.0481 -0.9988 -0.0060
vn 0.0482 -0.9988 -0.0043
vn 0.0477 -0.9989 -0.0008
vn 0.0483 -0.9988 -0.0044
vn 0.0485 -0.9988 -0.0073
vn 0.2157 -0.9648 0.1507
vn 0.2106 -0.9626 0.1705
vn 0.2116 -0.9619 0.1730
vn 0.2080 -0.9632 0.1704
vn 0.1936 -0.9663 0.1694
vn 0.0933 -0.9722 0.2149
vn 0.0738 -0.9726 0.2204
vn 0.1564 -0.9682 0.1955
vn 0.4501 -0.7438 0.4942
vn 0.3240 -0.7648 0.5568
vn 0.1649 -0.7733 0.6122
vn 0.6134 -0.2895 0.7348
vn 0.4239 -0.3081 0.8517
vn 0.2049 -0.3154 0.9266
vn 0.4425 0.0006 0.8968
vn 0.6385 0.0002 0.7696
vn 0.1940 0.0012 0.9810
vn 0.1950 0.0022 0.9808
vn 0.4435 0.0010 0.8963
vn 0.6391 0.0004 0.7691
vn 0.1150 0.0012 0.9934
vn 0.1256 -0.3055 0.9439
vn 0.1155 0.0022 0.9933
vn 0.4395 -0.1649 0.8830
vn 0.1943 -0.1599 0.9678
vn 0.1146 -0.1580 0.9808
vn 0.1005 -0.1587 0.9822
vn 0.1015 0.0018 0.9948
vn 0.1014 0.0011 0.9948
vn 0.0614 -0.1589 0.9854
vn 0.0617 0.0019 0.9981
vn 0.0616 0.0011 0.9981
vn 0.1111 -0.3025 0.9467
vn 0.0727 -0.3030 0.9502
vn -0.0728 0.0034 0.9973
vn -0.0728 0.0020 0.9973
vn -0.0553 -0.2974 0.9531
vn 0.1010 -0.7589 0.6434
vn 0.0762 -0.7570 0.6489
vn -0.0080 -0.7504 0.6610
vn -0.2389 -0.2840 0.9286
vn -0.1365 -0.7321 0.6674
vn -0.2685 0.0036 0.9633
vn -0.4098 -0.2315 0.8823
vn -0.2580 -0.6576 0.7078
vn -0.4488 0.0051 0.8936
vn -0.2683 0.0060 0.9633
vn -0.4488 0.0086 0.8936
vn -0.6422 0.0117 0.7664
vn -0.6421 0.0070 0.7666
vn -0.6255 -0.1857 0.7578
vn -0.8188 0.0146 0.5738
vn -0.8187 0.0087 0.5741
vn -0.8060 -0.2218 0.5487
vn -0.5040 -0.5820 0.6381
vn -0.6495 -0.6480 0.3978
vn -0.8980 -0.2730 0.3450
vn -0.6458 -0.7246 0.2407
vn -0.9339 0.0100 0.3574
vn -0.9413 -0.2882 0.1758
vn -0.6528 -0.7481 0.1192
vn -0.9833 0.0106 0.1815
vn -0.9339 0.0167 0.3571
vn -0.9833 0.0176 0.1813
vn -0.9972 0.0107 0.0738
vn -0.9525 -0.2960 0.0714
vn -0.9971 0.0179 0.0738
vn -0.9731 -0.1443 0.1795
vn -0.9870 -0.1433 0.0730
vn -0.9238 -0.1465 0.3538
vn -0.6913 -0.7112 0.1277
vn -0.7060 -0.7063 0.0523
vn -0.6490 -0.7189 0.2491
vn -0.8091 -0.1492 0.5684
vn -0.5645 -0.7232 0.3979
vn -0.1236 -0.9884 0.0885
vn -0.1448 -0.9879 0.0563
vn -0.1580 -0.9870 0.0294
vn -0.1451 -0.9840 0.1032
vn -0.1656 -0.9841 0.0640
vn -0.1715 -0.9847 0.0319
vn -0.0954 -0.9885 0.1170
vn -0.1120 -0.9843 0.1362
vn -0.4413 -0.7236 0.5306
vn -0.0666 -0.9883 0.1371
vn -0.0761 -0.9850 0.1551
vn -0.3092 -0.7202 0.6211
vn -0.6336 -0.1521 0.7586
vn -0.4421 -0.1542 0.8836
vn -0.2635 -0.1564 0.9519
vn -0.1840 -0.7192 0.6699
vn -0.0703 -0.1596 0.9847
vn -0.0483 -0.7231 0.6890
vn -0.0096 -0.9888 0.1489
vn -0.0390 -0.9883 0.1472
vn -0.0114 -0.9854 0.1701
vn -0.0441 -0.9854 0.1644
vn 0.0100 -0.9876 0.1569
vn 0.0103 -0.9867 0.1621
vn 0.0440 -0.7106 0.7022
vn 0.0161 -0.9874 0.1576
vn 0.0163 -0.9869 0.1603
vn 0.0718 -0.7088 0.7017
vn 0.0823 -0.7069 0.7025
vn 0.0187 -0.9871 0.1587
vn 0.0304 -0.9885 0.1480
vn 0.1375 -0.7193 0.6810
vn 0.0334 -0.9860 0.1636
vn 0.0187 -0.9871 0.1588
vn 0.0624 -0.9903 0.1238
vn 0.0781 -0.9847 0.1559
vn 0.3016 -0.7378 0.6039
vn 0.0984 -0.9881 0.1180
vn 0.1047 -0.9866 0.1255
vn 0.4477 -0.7150 0.5370
vn 0.6316 -0.1609 0.7584
vn 0.1082 -0.9875 0.1147
vn 0.4843 -0.7092 0.5123
vn 0.6782 -0.1596 0.7174
vn 0.6866 0.0010 0.7270
vn 0.6863 0.0005 0.7274
vn 0.6959 0.0019 0.7181
vn 0.6875 -0.1584 0.7087
vn 0.6956 0.0010 0.7185
vn 0.6655 -0.2775 0.6929
vn 0.6749 -0.2737 0.6852
vn 0.4880 -0.7298 0.4789
vn 0.4982 -0.7206 0.4822
vn 0.5051 -0.7180 0.4789
vn 0.6905 -0.2591 0.6754
vn 0.5396 -0.7308 0.4180
vn 0.7670 -0.2756 0.5795
vn 0.7090 0.0015 0.7052
vn 0.7852 0.0020 0.6193
vn 0.7094 0.0029 0.7048
vn 0.7859 0.0038 0.6183
vn 0.9262 0.0024 0.3770
vn 0.9268 0.0047 0.3755
vn 0.8883 -0.3064 0.3420
vn 0.9479 -0.3184 -0.0131
vn 0.9999 0.0026 -0.0145
vn 0.9999 0.0051 -0.0146
vn 0.8860 -0.3081 -0.3464
vn 0.9248 0.0024 -0.3805
vn 0.9253 0.0046 -0.3791
vn 0.6246 -0.7809 -0.0091
vn 0.5948 -0.7662 -0.2434
vn 0.5978 -0.7635 0.2443
vn 0.2537 -0.9673 -0.0037
vn 0.2341 -0.9683 -0.0876
vn 0.2368 -0.9674 0.0897
vn 0.5416 -0.7325 -0.4124
vn 0.7732 -0.2784 -0.5698
vn 0.2166 -0.9647 -0.1499
vn 0.0485 -0.9988 0.0073
vn 0.0483 -0.9988 0.0044
vn 0.2105 -0.9626 -0.1705
vn 0.2116 -0.9619 -0.1730
vn 0.4982 -0.7206 -0.4822
vn 0.5050 -0.7181 -0.4789
vn 0.6904 -0.2592 -0.6754
vn 0.6749 -0.2737 -0.6852
vn 0.2080 -0.9632 -0.1704
vn 0.4880 -0.7297 -0.4789
vn 0.6654 -0.2774 -0.6930
vn 0.4501 -0.7437 -0.4943
vn 0.6134 -0.2895 -0.7348
vn 0.1936 -0.9663 -0.1694
vn 0.1564 -0.9682 -0.1955
vn 0.0608 -0.9708 0.2320
vn 0.0320 -0.9690 0.2450
vn 0.0689 -0.9715 0.2270
vn 0.1140 -0.7644 0.6346
vn -0.0149 -0.9670 0.2543
vn -0.0513 -0.9561 0.2886
vn -0.2450 -0.9582 0.1477
vn -0.2383 -0.9180 0.3171
vn -0.2229 -0.9708 0.0889
vn -0.2136 -0.9760 0.0422
vn -0.6497 -0.7587 0.0479
vn -0.2070 -0.9782 0.0167
vn -0.1992 -0.9800 -0.0004
vn -0.2032 -0.9791 0.0027
vn -0.2029 -0.9792 -0.0028
vn -0.6432 -0.7657 -0.0012
vn -0.6461 -0.7632 -0.0083
vn -0.6460 -0.7633 0.0083
vn -0.9535 -0.3014 -0.0018
vn -0.9540 -0.2995 -0.0128
vn -0.9540 -0.2996 0.0129
vn -0.9999 0.0108 -0.0019
vn -0.9999 0.0108 -0.0132
vn -0.9999 0.0108 0.0132
vn -0.6501 -0.7584 -0.0466
vn -0.9527 -0.2957 -0.0696
vn -0.9974 0.0107 -0.0719
vn -0.9998 0.0180 -0.0132
vn -0.9973 0.0179 -0.0718
vn -0.9998 0.0180 -0.0019
vn -0.9871 -0.1434 -0.0711
vn -0.9897 -0.1429 -0.0130
vn -0.9898 -0.1424 -0.0019
vn -0.9998 0.0180 0.0132
vn -0.9896 -0.1429 0.0130
vn -0.7146 -0.6995 -0.0014
vn -0.7110 -0.7031 -0.0094
vn -0.7104 -0.7037 0.0094
vn -0.1659 -0.9861 0.0023
vn -0.1688 -0.9856 -0.0003
vn -0.1638 -0.9864 0.0122
vn -0.1713 -0.9851 0.0128
vn -0.1702 -0.9854 0.0022
vn -0.7158 -0.6963 0.0530
vn -0.7156 -0.6985 0.0095
vn -0.7095 -0.6925 0.1309
vn -0.9883 -0.1521 0.0132
vn -0.9857 -0.1520 0.0729
vn -0.9720 -0.1519 0.1792
vn -0.9231 -0.1523 0.3531
vn -0.6780 -0.6877 0.2596
vn -0.8089 -0.1533 0.5675
vn -0.5952 -0.6863 0.4181
vn -0.6339 -0.1547 0.7578
vn -0.4654 -0.6876 0.5573
vn -0.4424 -0.1562 0.8831
vn -0.3230 -0.6916 0.6461
vn -0.2638 -0.1576 0.9516
vn -0.1918 -0.6940 0.6940
vn -0.0707 -0.1588 0.9848
vn -0.0514 -0.6928 0.7193
vn 0.0614 -0.1601 0.9852
vn 0.0442 -0.7036 0.7093
vn 0.1005 -0.1604 0.9819
vn 0.0721 -0.7055 0.7051
vn 0.1148 -0.1606 0.9803
vn 0.0823 -0.7074 0.7020
vn 0.1946 -0.1600 0.9678
vn 0.1415 -0.6970 0.7029
vn 0.4401 -0.1609 0.8834
vn 0.3243 -0.6864 0.6509
vn 0.6319 -0.1611 0.7581
vn 0.4564 -0.7013 0.5476
vn 0.6782 -0.1613 0.7169
vn 0.4864 -0.7062 0.5144
vn 0.1099 -0.9871 0.1165
vn 0.1108 -0.9872 0.1145
vn 0.1108 -0.9872 0.1144
vn 0.4919 -0.7078 0.5070
vn 0.1145 -0.9869 0.1139
vn 0.5036 -0.7048 0.4996
vn 0.1119 -0.9875 0.1113
vn 0.6874 -0.1611 0.7082
vn 0.7009 -0.1605 0.6950
vn 0.7773 -0.1591 0.6086
vn 0.5670 -0.6940 0.4438
vn 0.1334 -0.9856 0.1043
vn 0.9165 -0.1602 0.3666
vn 0.6751 -0.6861 0.2712
vn 0.1621 -0.9845 0.0664
vn 0.7286 -0.6849 -0.0110
vn 0.9868 -0.1613 -0.0144
vn 0.1760 -0.9844 -0.0030
vn 0.1351 -0.9908 -0.0018
vn 0.1293 -0.9903 0.0514
vn 0.1178 -0.9887 0.0929
vn 0.6680 -0.7441 -0.0101
vn 0.6263 -0.7377 0.2523
vn 0.5454 -0.7210 0.4274
vn 0.5002 -0.7096 0.4963
vn 0.7770 -0.1583 0.6092
vn 0.9149 -0.1617 0.3698
vn 0.7009 -0.1577 0.6956
vn 0.4923 -0.7071 0.5076
vn 0.9864 -0.1636 -0.0149
vn 0.9137 -0.1600 -0.3736
vn 0.6309 -0.7319 -0.2572
vn 0.1325 -0.9897 -0.0535
vn 0.7836 -0.1584 -0.6008
vn 0.5487 -0.7225 -0.4206
vn 0.1180 -0.9888 -0.0911
vn 0.1119 -0.9875 -0.1113
vn 0.5002 -0.7096 -0.4963
vn 0.7009 -0.1577 -0.6956
vn 0.1355 -0.9854 -0.1034
vn 0.1609 -0.9847 -0.0665
vn 0.1145 -0.9869 -0.1139
vn 0.1108 -0.9872 -0.1145
vn 0.1108 -0.9872 -0.1144
vn 0.4923 -0.7071 -0.5076
vn 0.1082 -0.9875 -0.1147
vn 0.1099 -0.9871 -0.1165
vn 0.4843 -0.7092 -0.5123
vn 0.6875 -0.1584 -0.7087
vn 0.6782 -0.1596 -0.7174
vn 0.6959 0.0019 -0.7181
vn 0.6866 0.0010 -0.7270
vn 0.7094 0.0030 -0.7048
vn 0.7924 0.0039 -0.6099
vn 0.7917 0.0020 -0.6109
vn 0.7089 0.0015 -0.7053
vn 0.6955 0.0010 -0.7185
vn 0.6862 0.0005 -0.7274
vn 0.6385 0.0002 -0.7696
vn 0.6391 0.0004 -0.7691
vn 0.4428 0.0005 -0.8966
vn 0.4437 0.0010 -0.8962
vn 0.4243 -0.3080 -0.8515
vn 0.4396 -0.1650 -0.8829
vn 0.6316 -0.1610 -0.7584
vn 0.3016 -0.7378 -0.6039
vn 0.4477 -0.7150 -0.5370
vn 0.0624 -0.9903 -0.1238
vn 0.0984 -0.9881 -0.1180
vn 0.0781 -0.9847 -0.1559
vn 0.1047 -0.9866 -0.1255
vn 0.0304 -0.9885 -0.1480
vn 0.0334 -0.9860 -0.1637
vn 0.1375 -0.7193 -0.6809
vn 0.0187 -0.9872 -0.1587
vn 0.0187 -0.9871 -0.1588
vn 0.0823 -0.7070 -0.7024
vn 0.1943 -0.1599 -0.9678
vn 0.1146 -0.1581 -0.9808
vn 0.1952 0.0021 -0.9808
vn 0.1155 0.0022 -0.9933
vn 0.1942 0.0012 -0.9810
vn 0.1150 0.0012 -0.9934
vn 0.2051 -0.3154 -0.9265
vn 0.1256 -0.3055 -0.9439
vn 0.1650 -0.7733 -0.6123
vn 0.1139 -0.7644 -0.6346
vn 0.3241 -0.7648 -0.5568
vn 0.1111 -0.3024 -0.9467
vn 0.1014 0.0010 -0.9948
vn 0.1010 -0.7588 -0.6434
vn 0.0738 -0.9726 -0.2204
vn 0.0689 -0.9715 -0.2270
vn 0.0933 -0.9722 -0.2149
vn 0.0608 -0.9708 -0.2320
vn 0.0320 -0.9690 -0.2450
vn 0.0762 -0.7570 -0.6490
vn -0.0080 -0.7503 -0.6610
vn 0.0727 -0.3030 -0.9502
vn -0.0553 -0.2974 -0.9531
vn -0.2389 -0.2840 -0.9286
vn -0.1365 -0.7320 -0.6675
vn -0.0149 -0.9670 -0.2543
vn -0.0513 -0.9561 -0.2886
vn -0.2580 -0.6576 -0.7078
vn -0.4098 -0.2315 -0.8823
vn -0.6254 -0.1857 -0.7579
vn -0.5040 -0.5820 -0.6381
vn -0.2383 -0.9180 -0.3171
vn -0.2450 -0.9582 -0.1477
vn -0.2229 -0.9708 -0.0889
vn -0.6458 -0.7246 -0.2407
vn -0.6495 -0.6480 -0.3978
vn -0.8060 -0.2217 -0.5488
vn -0.8980 -0.2730 -0.3451
vn -0.2137 -0.9760 -0.0421
vn -0.6528 -0.7481 -0.1192
vn -0.9413 -0.2883 -0.1758
vn -0.2074 -0.9781 -0.0162
vn -0.9833 0.0106 -0.1814
vn -0.9339 0.0100 -0.3574
vn -0.9833 0.0176 -0.1813
vn -0.9339 0.0167 -0.3571
vn -0.9731 -0.1443 -0.1795
vn -0.9238 -0.1465 -0.3538
vn -0.6913 -0.7112 -0.1277
vn -0.6490 -0.7189 -0.2491
vn -0.7059 -0.7065 -0.0509
vn -0.1580 -0.9870 -0.0294
vn -0.1448 -0.9879 -0.0563
vn -0.1635 -0.9865 -0.0119
vn -0.1714 -0.9851 -0.0124
vn -0.1714 -0.9847 -0.0319
vn -0.1655 -0.9841 -0.0640
vn -0.1663 -0.9861 -0.0022
vn -0.1698 -0.9855 -0.0022
vn -0.1674 -0.9859 -0.0003
vn -0.7118 -0.7024 -0.0014
vn -0.7151 -0.6989 -0.0095
vn -0.9883 -0.1521 -0.0132
vn -0.9883 -0.1524 -0.0019
vn -0.9857 0.1677 0.0131
vn -0.9858 0.1681 -0.0019
vn -0.9857 0.1678 -0.0131
vn -0.9858 -0.1519 -0.0710
vn -0.7162 -0.6960 -0.0516
vn -0.9833 0.1675 -0.0708
vn -0.7052 0.7072 -0.0508
vn -0.7040 0.7102 -0.0093
vn -0.7005 0.7137 -0.0013
vn -0.1541 0.9881 -0.0020
vn -0.1517 0.9884 -0.0003
vn -0.1559 0.9877 -0.0112
vn -0.9696 0.1670 -0.1787
vn -0.6992 0.7032 -0.1287
vn -0.1566 0.9873 -0.0286
vn 0.0075 1.0000 0.0017
vn 0.0079 1.0000 0.0006
vn 0.0080 1.0000 0.0001
vn 0.0064 1.0000 0.0034
vn -0.1529 0.9866 -0.0577
vn -0.6693 0.6977 -0.2556
vn 0.0041 1.0000 0.0049
vn -0.1367 0.9861 -0.0942
vn -0.5891 0.6948 -0.4125
vn -0.9210 0.1663 -0.3521
vn -0.8075 0.1654 -0.5662
vn -0.6332 0.1640 -0.7564
vn -0.4624 0.6943 -0.5515
vn -0.1084 0.9860 -0.1269
vn -0.4423 0.1625 -0.8820
vn -0.3223 0.6962 -0.6414
vn -0.0760 0.9861 -0.1479
vn 0.0015 1.0000 0.0050
vn -0.0003 1.0000 0.0038
vn -0.0013 1.0000 0.0022
vn -0.0461 0.9860 -0.1602
vn -0.1925 0.6966 -0.6911
vn -0.0012 1.0000 0.0007
vn -0.0131 0.9856 -0.1687
vn -0.0520 0.6939 -0.7182
vn -0.2640 0.1611 -0.9510
vn -0.0708 0.1599 -0.9846
vn 0.0613 0.1595 -0.9853
vn 0.0441 0.7034 -0.7094
vn 0.0099 0.9867 -0.1625
vn 0.1006 0.1595 -0.9821
vn 0.0723 0.7049 -0.7056
vn 0.0165 0.9868 -0.1611
vn -0.0000 1.0000 -0.0004
vn -0.0003 1.0000 -0.0002
vn -0.0001 1.0000 -0.0005
vn 0.0185 0.9870 -0.1597
vn 0.0822 0.7066 -0.7028
vn -0.0006 1.0000 -0.0009
vn 0.0326 0.9857 -0.1653
vn 0.1413 0.6960 -0.7041
vn 0.1148 0.1597 -0.9805
vn 0.1945 0.1588 -0.9680
vn 0.4401 0.1586 -0.8838
vn 0.3247 0.6849 -0.6523
vn 0.0782 0.9843 -0.1583
vn 0.6322 0.1581 -0.7585
vn 0.4576 0.6994 -0.5490
vn 0.1064 0.9861 -0.1278
vn -0.0001 1.0000 -0.0014
vn 0.0008 1.0000 -0.0012
vn 0.0011 1.0000 -0.0009
vn 0.1120 0.9867 -0.1181
vn 0.4879 0.7044 -0.5155
vn 0.0008 1.0000 -0.0005
vn 0.1124 0.9869 -0.1155
vn 0.4931 0.7065 -0.5077
vn 0.6786 0.1587 -0.7172
vn 0.6877 0.1593 -0.7083
vn 0.7011 0.1594 -0.6951
vn 0.5044 0.7041 -0.4999
vn 0.1156 0.9867 -0.1144
vn 0.7838 0.1584 -0.6004
vn 0.5733 0.6921 -0.4386
vn 0.1362 0.9853 -0.1034
vn 0.0003 1.0000 -0.0000
vn 0.0006 1.0000 -0.0003
vn 0.1612 0.9847 -0.0663
vn 0.0001 1.0000 0.0002
vn 0.6729 0.6874 -0.2732
vn 0.1760 0.9844 -0.0030
vn 0.7286 0.6848 -0.0110
vn -0.0000 1.0000 -0.0000
vn 0.9151 0.1592 -0.3706
vn 0.9868 0.1614 -0.0144
vn 0.1624 0.9845 0.0662
vn 0.6752 0.6860 0.2710
vn 0.9165 0.1602 0.3665
vn 0.9150 -0.1593 -0.3706
vn 0.7774 0.1587 0.6086
vn 0.5674 0.6936 0.4437
vn 0.7011 0.1594 0.6951
vn 0.5044 0.7040 0.4999
vn 0.1341 0.9855 0.1043
vn 0.1156 0.9867 0.1144
vn 0.0004 1.0000 -0.0000
vn 0.0006 1.0000 0.0003
vn 0.0001 1.0000 -0.0002
vn 0.0008 1.0000 0.0005
vn 0.1124 0.9869 0.1155
vn 0.0010 1.0000 0.0009
vn 0.1119 0.9867 0.1181
vn 0.0008 1.0000 0.0012
vn 0.1064 0.9861 0.1278
vn -0.0001 1.0000 0.0013
vn 0.0782 0.9843 0.1583
vn -0.0006 1.0000 0.0009
vn 0.0326 0.9857 0.1653
vn -0.0001 1.0000 0.0005
vn 0.0185 0.9870 0.1597
vn -0.0000 1.0000 0.0005
vn 0.0165 0.9868 0.1611
vn -0.0003 1.0000 0.0002
vn 0.0099 0.9866 0.1626
vn -0.0012 1.0000 -0.0007
vn -0.0131 0.9856 0.1687
vn -0.0013 1.0000 -0.0023
vn -0.0461 0.9860 0.1602
vn -0.0003 1.0000 -0.0038
vn -0.0760 0.9861 0.1479
vn 0.0015 1.0000 -0.0050
vn -0.1084 0.9860 0.1270
vn 0.0041 1.0000 -0.0049
vn -0.1367 0.9861 0.0942
vn 0.0064 1.0000 -0.0034
vn -0.1529 0.9866 0.0576
vn 0.0076 1.0000 -0.0017
vn -0.1566 0.9873 0.0286
vn 0.0079 1.0000 -0.0007
vn -0.1556 0.9877 0.0114
vn -0.1544 0.9880 0.0020
vn 0.0080 1.0000 -0.0001
vn 0.0080 1.0000 -0.0000
vn -0.7044 0.7097 0.0093
vn -0.7049 0.7074 0.0521
vn -0.9832 0.1675 0.0727
vn -0.9696 0.1670 0.1787
vn -0.6992 0.7032 0.1287
vn -0.9210 0.1664 0.3521
vn -0.6692 0.6977 0.2556
vn -0.8075 0.1654 0.5662
vn -0.5891 0.6948 0.4125
vn -0.4624 0.6943 0.5515
vn -0.6332 0.1640 0.7564
vn -0.4423 0.1625 0.8820
vn -0.3223 0.6962 0.6414
vn -0.2640 0.1611 0.9510
vn -0.1925 0.6966 0.6912
vn -0.0708 0.1599 0.9846
vn -0.0519 0.6939 0.7182
vn 0.0441 0.7034 0.7094
vn 0.0614 0.1596 0.9853
vn 0.1006 0.1595 0.9821
vn 0.0723 0.7049 0.7056
vn 0.1148 0.1597 0.9805
vn 0.0822 0.7066 0.7028
vn 0.1945 0.1588 0.9680
vn 0.1413 0.6959 0.7041
vn 0.4402 0.1586 0.8838
vn 0.3247 0.6849 0.6523
vn 0.4576 0.6994 0.5490
vn 0.6322 0.1581 0.7585
vn 0.6786 0.1587 0.7172
vn 0.4879 0.7044 0.5155
vn 0.6877 0.1593 0.7084
vn 0.4931 0.7065 0.5077
vn 0.6727 -0.6876 -0.2734
vn 0.7837 -0.1589 -0.6005
vn 0.5728 -0.6925 -0.4386
vn 0.7009 -0.1605 -0.6950
vn 0.5036 -0.7048 -0.4996
vn 0.6874 -0.1612 -0.7082
vn 0.4919 -0.7078 -0.5070
vn 0.6782 -0.1613 -0.7169
vn 0.4865 -0.7062 -0.5144
vn 0.6319 -0.1611 -0.7581
vn 0.4564 -0.7013 -0.5476
vn 0.4400 -0.1609 -0.8834
vn 0.3243 -0.6864 -0.6509
vn 0.1946 -0.1600 -0.9678
vn 0.1415 -0.6970 -0.7030
vn 0.1148 -0.1606 -0.9803
vn 0.0823 -0.7074 -0.7021
vn 0.1005 -0.1605 -0.9819
vn 0.0721 -0.7055 -0.7051
vn 0.0163 -0.9869 -0.1602
vn 0.0161 -0.9874 -0.1576
vn 0.0100 -0.9876 -0.1569
vn 0.0103 -0.9867 -0.1621
vn 0.0442 -0.7036 -0.7093
vn -0.0096 -0.9888 -0.1489
vn -0.0114 -0.9854 -0.1701
vn -0.0514 -0.6928 -0.7193
vn 0.0614 -0.1601 -0.9852
vn -0.0707 -0.1588 -0.9848
vn -0.2638 -0.1575 -0.9516
vn -0.1918 -0.6939 -0.6940
vn -0.0441 -0.9854 -0.1645
vn -0.4424 -0.1561 -0.8831
vn -0.3230 -0.6915 -0.6461
vn -0.0761 -0.9850 -0.1551
vn -0.0666 -0.9883 -0.1371
vn -0.0390 -0.9883 -0.1472
vn -0.0954 -0.9885 -0.1170
vn -0.1120 -0.9843 -0.1362
vn -0.4654 -0.6876 -0.5573
vn -0.1236 -0.9884 -0.0885
vn -0.1451 -0.9840 -0.1032
vn -0.5952 -0.6863 -0.4181
vn -0.6339 -0.1547 -0.7578
vn -0.8089 -0.1533 -0.5676
vn -0.9231 -0.1523 -0.3531
vn -0.6780 -0.6877 -0.2596
vn -0.9720 -0.1519 -0.1792
vn -0.7095 -0.6924 -0.1309
vn -0.4413 -0.7236 -0.5306
vn -0.5645 -0.7232 -0.3979
vn -0.8091 -0.1492 -0.5684
vn -0.6336 -0.1521 -0.7586
vn -0.4421 -0.1542 -0.8836
vn -0.3092 -0.7202 -0.6211
vn -0.2635 -0.1564 -0.9519
vn -0.1840 -0.7192 -0.6699
vn -0.0703 -0.1596 -0.9847
vn -0.0483 -0.7231 -0.6891
vn 0.0614 -0.1589 -0.9854
vn 0.0440 -0.7106 -0.7022
vn 0.1005 -0.1587 -0.9822
vn 0.0718 -0.7089 -0.7017
vn 0.1015 0.0018 -0.9948
vn 0.0617 0.0019 -0.9981
vn 0.0616 0.0011 -0.9981
vn -0.0728 0.0020 -0.9973
vn -0.0728 0.0034 -0.9973
vn -0.2685 0.0036 -0.9633
vn -0.2683 0.0060 -0.9633
vn -0.4487 0.0051 -0.8936
vn -0.4488 0.0086 -0.8936
vn -0.6422 0.0117 -0.7665
vn -0.6420 0.0070 -0.7667
vn -0.8187 0.0087 -0.5742
vn -0.8188 0.0146 -0.5739
vn 0.0475 -0.9989 -0.0000
vn 0.0475 -0.9989 0.0000
vn 0.0475 -0.9989 -0.0000
vn 0.0475 -0.9989 -0.0000
vn 0.0475 -0.9989 -0.0000
vn 0.0475 -0.9989 -0.0000
vn 0.0475 -0.9989 -0.0000
vn 0.0475 -0.9989 0.0000
vn 0.0475 -0.9989 0.0000
vn 0.0475 -0.9989 0.0000
vn 0.0475 -0.9989 0.0000
vn 0.0475 -0.9989 -0.0000
vn 0.0475 -0.9989 0.0000
vn 0.0475 -0.9989 0.0000
vn 0.0475 -0.9989 0.0000
vn 0.0475 -0.9989 0.0000
vn 0.0475 -0.9989 -0.0000
vn 0.0475 -0.9989 -0.0000
vn 0.0475 -0.9989 0.0000
vn 0.0475 -0.9989 -0.0000
vn 0.0475 -0.9989 -0.0000
vn 0.0475 -0.9989 0.0000
vt 0.878294 0.179407
vt 0.876345 0.179400
vt 0.876484 0.178501
vt 0.878298 0.178505
vt 0.880111 0.178517
vt 0.880242 0.179416
vt 0.878302 0.177307
vt 0.879815 0.177328
vt 0.876789 0.177310
vt 0.874398 0.179389
vt 0.874672 0.178479
vt 0.875280 0.177262
vt 0.873572 0.178441
vt 0.874396 0.177163
vt 0.873164 0.179376
vt 0.876048 0.175927
vt 0.877172 0.175975
vt 0.875417 0.175762
vt 0.872675 0.178344
vt 0.873690 0.176982
vt 0.874927 0.175468
vt 0.876135 0.174042
vt 0.876417 0.174454
vt 0.876806 0.174664
vt 0.877274 0.173418
vt 0.877299 0.173827
vt 0.877156 0.172912
vt 0.877820 0.173656
vt 0.877763 0.173029
vt 0.877706 0.172485
vt 0.877545 0.174641
vt 0.878317 0.173569
vt 0.878313 0.174534
vt 0.878320 0.172856
vt 0.878812 0.173652
vt 0.879081 0.174655
vt 0.878866 0.173012
vt 0.878322 0.172293
vt 0.878927 0.172466
vt 0.879483 0.172921
vt 0.879361 0.173427
vt 0.879333 0.173835
vt 0.880211 0.174470
vt 0.880496 0.174060
vt 0.879820 0.174676
vt 0.879647 0.172239
vt 0.880861 0.173498
vt 0.879010 0.171741
vt 0.881200 0.175785
vt 0.881692 0.175495
vt 0.882302 0.175084
vt 0.879877 0.171379
vt 0.881309 0.172778
vt 0.882999 0.174545
vt 0.883772 0.176742
vt 0.884710 0.176360
vt 0.882918 0.177019
vt 0.884983 0.178202
vt 0.886112 0.177929
vt 0.883921 0.178388
vt 0.882210 0.177194
vt 0.883023 0.178478
vt 0.884456 0.179357
vt 0.883424 0.179417
vt 0.885655 0.179192
vt 0.881325 0.177286
vt 0.881923 0.178507
vt 0.882190 0.179420
vt 0.882300 0.180421
vt 0.883597 0.180415
vt 0.884693 0.180352
vt 0.880295 0.180421
vt 0.878290 0.180413
vt 0.880306 0.181428
vt 0.878286 0.181420
vt 0.882327 0.181437
vt 0.880400 0.185960
vt 0.878268 0.185951
vt 0.882533 0.185972
vt 0.883952 0.185980
vt 0.883654 0.181441
vt 0.885171 0.185955
vt 0.884787 0.181391
vt 0.886087 0.181236
vt 0.886561 0.185868
vt 0.885955 0.180184
vt 0.887228 0.179940
vt 0.887388 0.181009
vt 0.886885 0.178948
vt 0.886818 0.177880
vt 0.887521 0.178845
vt 0.887798 0.179708
vt 0.887452 0.177753
vt 0.888105 0.178706
vt 0.888327 0.179463
vt 0.358168 0.937198
vt 0.358415 0.939886
vt 0.357158 0.939954
vt 0.356901 0.937279
vt 0.359036 0.937154
vt 0.359278 0.939851
vt 0.358795 0.934450
vt 0.357920 0.934502
vt 0.356641 0.934601
vt 0.360194 0.937103
vt 0.360424 0.939813
vt 0.359965 0.934391
vt 0.357715 0.932474
vt 0.358615 0.932406
vt 0.359801 0.932328
vt 0.365481 0.931928
vt 0.365672 0.934118
vt 0.365887 0.936891
vt 0.371236 0.931528
vt 0.371454 0.933852
vt 0.371657 0.936695
vt 0.366103 0.939668
vt 0.371856 0.939542
vt 0.374166 0.933737
vt 0.374344 0.936623
vt 0.374515 0.939507
vt 0.888492 0.185598
vt 0.889032 0.185446
vt 0.889451 0.190478
vt 0.888900 0.190517
vt 0.889510 0.192854
vt 0.888964 0.192831
vt 0.889336 0.193883
vt 0.888804 0.193817
vt 0.375489 0.936603
vt 0.375644 0.939502
vt 0.888967 0.194940
vt 0.888484 0.194803
vt 0.376712 0.936590
vt 0.376849 0.939503
vt 0.375328 0.933700
vt 0.376571 0.933669
vt 0.377776 0.933649
vt 0.377897 0.936583
vt 0.378015 0.939509
vt 0.378934 0.933637
vt 0.379035 0.936579
vt 0.379135 0.939514
vt 0.888420 0.195939
vt 0.888081 0.195672
vt 0.887554 0.196631
vt 0.887287 0.196226
vt 0.886484 0.197149
vt 0.886269 0.196688
vt 0.380332 0.936573
vt 0.380411 0.939514
vt 0.885025 0.197523
vt 0.884878 0.197021
vt 0.382005 0.936564
vt 0.382063 0.939507
vt 0.380252 0.933628
vt 0.381949 0.933615
vt 0.384162 0.936550
vt 0.384197 0.939498
vt 0.384129 0.933609
vt 0.381931 0.931098
vt 0.384124 0.931090
vt 0.380203 0.931106
vt 0.381935 0.930842
vt 0.384127 0.930834
vt 0.380206 0.930850
vt 0.378844 0.931128
vt 0.378841 0.930871
vt 0.378838 0.930614
vt 0.380209 0.930593
vt 0.381939 0.930586
vt 0.378836 0.930451
vt 0.380211 0.930431
vt 0.381941 0.930424
vt 0.377622 0.930646
vt 0.377616 0.930483
vt 0.377633 0.930903
vt 0.376373 0.930697
vt 0.376364 0.930534
vt 0.376389 0.930953
vt 0.377646 0.931160
vt 0.376406 0.931209
vt 0.375135 0.931271
vt 0.375116 0.931016
vt 0.373948 0.931341
vt 0.373922 0.931086
vt 0.373902 0.930830
vt 0.375100 0.930760
vt 0.373891 0.930669
vt 0.375090 0.930598
vt 0.371195 0.931020
vt 0.371183 0.930859
vt 0.371214 0.931274
vt 0.365444 0.931419
vt 0.365432 0.931258
vt 0.365462 0.931674
vt 0.359788 0.932072
vt 0.359776 0.931817
vt 0.358602 0.931893
vt 0.358607 0.932150
vt 0.358599 0.931731
vt 0.359769 0.931654
vt 0.357661 0.931959
vt 0.357646 0.931797
vt 0.357685 0.932216
vt 0.356337 0.932111
vt 0.356316 0.931951
vt 0.356372 0.932364
vt 0.356408 0.932617
vt 0.353605 0.932407
vt 0.353635 0.932661
vt 0.353665 0.932914
vt 0.353893 0.934846
vt 0.354172 0.937487
vt 0.350447 0.935159
vt 0.350234 0.933285
vt 0.350734 0.937770
vt 0.354448 0.940132
vt 0.351020 0.940383
vt 0.883761 0.173772
vt 0.885844 0.175954
vt 0.885306 0.176185
vt 0.883392 0.174165
vt 0.881481 0.172170
vt 0.881677 0.171595
vt 0.879850 0.170626
vt 0.879891 0.169928
vt 0.347308 0.938059
vt 0.347598 0.940643
vt 0.344866 0.940861
vt 0.344575 0.938300
vt 0.347017 0.935474
vt 0.344277 0.935738
vt 0.343653 0.938383
vt 0.343358 0.935833
vt 0.343940 0.940936
vt 0.343083 0.941019
vt 0.342800 0.938471
vt 0.342510 0.935938
vt 0.436451 0.940856
vt 0.435576 0.940775
vt 0.435854 0.938222
vt 0.436724 0.938308
vt 0.436141 0.935669
vt 0.437008 0.935775
vt 0.878333 0.169968
vt 0.877528 0.170158
vt 0.877534 0.169513
vt 0.878335 0.169357
vt 0.879122 0.169498
vt 0.879124 0.170140
vt 0.878329 0.170630
vt 0.877517 0.170856
vt 0.879129 0.170835
vt 0.876809 0.170615
vt 0.876774 0.169917
vt 0.876776 0.171367
vt 0.877629 0.171761
vt 0.876997 0.172229
vt 0.878325 0.171551
vt 0.875774 0.173477
vt 0.875331 0.172754
vt 0.874321 0.175052
vt 0.873628 0.174508
vt 0.873238 0.174125
vt 0.875164 0.172144
vt 0.874973 0.171567
vt 0.872872 0.173729
vt 0.871903 0.176309
vt 0.871308 0.176130
vt 0.870772 0.175895
vt 0.869782 0.177812
vt 0.869148 0.177681
vt 0.870487 0.177866
vt 0.872838 0.176699
vt 0.871615 0.178149
vt 0.870935 0.179134
vt 0.869707 0.178879
vt 0.872132 0.179308
vt 0.871887 0.180302
vt 0.870627 0.180122
vt 0.872983 0.180373
vt 0.871785 0.181339
vt 0.870486 0.181173
vt 0.872918 0.181398
vt 0.874280 0.180389
vt 0.874245 0.181405
vt 0.876265 0.181412
vt 0.876284 0.180404
vt 0.872583 0.185934
vt 0.874003 0.185938
vt 0.876135 0.185943
vt 0.876018 0.190506
vt 0.873785 0.190500
vt 0.878250 0.190513
vt 0.880482 0.190523
vt 0.878241 0.192621
vt 0.875970 0.192612
vt 0.880513 0.192630
vt 0.882714 0.190536
vt 0.882785 0.192640
vt 0.884197 0.190545
vt 0.884277 0.192646
vt 0.885546 0.192663
vt 0.885467 0.190547
vt 0.886912 0.190541
vt 0.886989 0.192705
vt 0.888325 0.190534
vt 0.888397 0.192789
vt 0.887929 0.185741
vt 0.887944 0.180750
vt 0.888476 0.180495
vt 0.886947 0.193671
vt 0.888258 0.193763
vt 0.886927 0.194742
vt 0.887988 0.194716
vt 0.887078 0.195799
vt 0.887780 0.195480
vt 0.886070 0.196211
vt 0.885770 0.194928
vt 0.884498 0.195076
vt 0.884731 0.196503
vt 0.883051 0.197213
vt 0.882978 0.196675
vt 0.882883 0.195170
vt 0.884332 0.193688
vt 0.885589 0.193669
vt 0.882817 0.193709
vt 0.880527 0.193713
vt 0.880558 0.195206
vt 0.878237 0.193702
vt 0.878231 0.195187
vt 0.878225 0.196717
vt 0.880604 0.196741
vt 0.875947 0.193694
vt 0.875904 0.195183
vt 0.875846 0.196715
vt 0.878223 0.197262
vt 0.875807 0.197259
vt 0.880639 0.197287
vt 0.878220 0.197788
vt 0.875771 0.197785
vt 0.880670 0.197813
vt 0.389765 0.939482
vt 0.389761 0.936535
vt 0.392562 0.936535
vt 0.392555 0.939481
vt 0.386976 0.939490
vt 0.386959 0.936543
vt 0.873395 0.197175
vt 0.873318 0.197695
vt 0.395359 0.936534
vt 0.395334 0.939484
vt 0.392569 0.933590
vt 0.395382 0.933590
vt 0.389756 0.933594
vt 0.395379 0.931069
vt 0.392562 0.931070
vt 0.389753 0.931075
vt 0.386944 0.933599
vt 0.386943 0.931079
vt 0.389752 0.930820
vt 0.392562 0.930815
vt 0.386942 0.930824
vt 0.386938 0.930569
vt 0.389751 0.930565
vt 0.384129 0.930578
vt 0.384131 0.930417
vt 0.386935 0.930408
vt 0.384133 0.930161
vt 0.386931 0.930152
vt 0.381945 0.930168
vt 0.386930 0.929897
vt 0.384135 0.929905
vt 0.381947 0.929912
vt 0.380215 0.929920
vt 0.380214 0.930175
vt 0.378829 0.929940
vt 0.378833 0.930195
vt 0.377594 0.929972
vt 0.377605 0.930227
vt 0.376333 0.930021
vt 0.376349 0.930277
vt 0.375056 0.930084
vt 0.375074 0.930341
vt 0.373850 0.930161
vt 0.373873 0.930414
vt 0.371143 0.930349
vt 0.371164 0.930604
vt 0.365395 0.930748
vt 0.365414 0.931003
vt 0.359742 0.931140
vt 0.359757 0.931397
vt 0.358582 0.931220
vt 0.358593 0.931474
vt 0.357598 0.931298
vt 0.357623 0.931545
vt 0.356248 0.931442
vt 0.356282 0.931697
vt 0.353526 0.931738
vt 0.353556 0.931992
vt 0.353586 0.932247
vt 0.350178 0.932777
vt 0.350161 0.932617
vt 0.350133 0.932362
vt 0.346745 0.932987
vt 0.346719 0.932732
vt 0.346761 0.933148
vt 0.350105 0.932108
vt 0.346692 0.932478
vt 0.343949 0.932783
vt 0.343974 0.933035
vt 0.343997 0.933288
vt 0.342825 0.932920
vt 0.342872 0.933165
vt 0.342936 0.933410
vt 0.341824 0.933355
vt 0.341748 0.933088
vt 0.341946 0.933612
vt 0.342030 0.933767
vt 0.342979 0.933567
vt 0.344011 0.933449
vt 0.342161 0.934003
vt 0.343050 0.933818
vt 0.344034 0.933703
vt 0.346788 0.933403
vt 0.344057 0.933957
vt 0.343108 0.934075
vt 0.346814 0.933657
vt 0.350206 0.933031
vt 0.342249 0.934236
vt 0.437249 0.934064
vt 0.436382 0.933914
vt 0.436438 0.933657
vt 0.437338 0.933831
vt 0.436505 0.933406
vt 0.437470 0.933595
vt 0.435455 0.933801
vt 0.435477 0.933546
vt 0.435499 0.933291
vt 0.432748 0.932999
vt 0.432723 0.933253
vt 0.432698 0.933507
vt 0.435512 0.933130
vt 0.436547 0.933250
vt 0.432764 0.932838
vt 0.429330 0.932641
vt 0.429347 0.932480
vt 0.429303 0.932895
vt 0.425902 0.932283
vt 0.425921 0.932122
vt 0.425873 0.932536
vt 0.429276 0.933148
vt 0.425844 0.932790
vt 0.429069 0.935024
vt 0.425623 0.934722
vt 0.432501 0.935327
vt 0.435241 0.935578
vt 0.434952 0.938143
vt 0.432219 0.937912
vt 0.428792 0.937636
vt 0.431938 0.940498
vt 0.428515 0.940250
vt 0.434670 0.940705
vt 0.425353 0.937365
vt 0.425087 0.940011
vt 0.422375 0.939842
vt 0.422622 0.937167
vt 0.422873 0.934488
vt 0.421357 0.937091
vt 0.421595 0.934393
vt 0.421120 0.939779
vt 0.421793 0.932364
vt 0.423100 0.932503
vt 0.421820 0.932106
vt 0.423135 0.932250
vt 0.421844 0.931849
vt 0.423169 0.931996
vt 0.421858 0.931687
vt 0.423190 0.931836
vt 0.420904 0.931787
vt 0.420906 0.931625
vt 0.420899 0.932043
vt 0.419729 0.931715
vt 0.419735 0.931553
vt 0.419718 0.931971
vt 0.420892 0.932300
vt 0.419705 0.932226
vt 0.420719 0.934345
vt 0.419549 0.934290
vt 0.420488 0.937050
vt 0.419330 0.937002
vt 0.420256 0.939748
vt 0.419109 0.939713
vt 0.868104 0.180414
vt 0.868261 0.179383
vt 0.868788 0.179632
vt 0.868633 0.180673
vt 0.868490 0.178627
vt 0.869072 0.178771
vt 0.413430 0.939589
vt 0.413636 0.936811
vt 0.867508 0.185361
vt 0.868046 0.185517
vt 0.869188 0.180936
vt 0.868609 0.185664
vt 0.869356 0.179868
vt 0.869976 0.185802
vt 0.871365 0.185900
vt 0.869587 0.190472
vt 0.871033 0.190489
vt 0.868174 0.190455
vt 0.869494 0.192636
vt 0.868084 0.192709
vt 0.870938 0.192604
vt 0.867599 0.190432
vt 0.867516 0.192746
vt 0.867049 0.190389
vt 0.866970 0.192765
vt 0.867136 0.193796
vt 0.867668 0.193734
vt 0.868215 0.193685
vt 0.868476 0.194641
vt 0.867981 0.194723
vt 0.867497 0.194857
vt 0.868047 0.195848
vt 0.868389 0.195585
vt 0.868693 0.195393
vt 0.869544 0.194669
vt 0.869377 0.195731
vt 0.869529 0.193601
vt 0.870887 0.193609
vt 0.870696 0.194868
vt 0.870382 0.196149
vt 0.870180 0.196625
vt 0.869165 0.196155
vt 0.868892 0.196550
vt 0.869960 0.197088
vt 0.871720 0.196452
vt 0.871570 0.196968
vt 0.871419 0.197470
vt 0.873472 0.196637
vt 0.871966 0.195026
vt 0.873579 0.195133
vt 0.872143 0.193640
vt 0.873658 0.193673
vt 0.873698 0.192604
vt 0.872206 0.192597
vt 0.872303 0.190497
vt 0.399120 0.939483
vt 0.397469 0.939483
vt 0.397516 0.936537
vt 0.399190 0.936542
vt 0.397561 0.933592
vt 0.399259 0.933596
vt 0.397572 0.931072
vt 0.399299 0.931079
vt 0.397567 0.930817
vt 0.399295 0.930822
vt 0.395376 0.930814
vt 0.397563 0.930562
vt 0.399292 0.930566
vt 0.395373 0.930559
vt 0.395371 0.930398
vt 0.397560 0.930400
vt 0.399290 0.930403
vt 0.392565 0.930560
vt 0.392567 0.930398
vt 0.389751 0.930403
vt 0.389750 0.930147
vt 0.392571 0.930143
vt 0.392571 0.929888
vt 0.389750 0.929891
vt 0.386930 0.929309
vt 0.389749 0.929301
vt 0.392568 0.929300
vt 0.395366 0.929887
vt 0.395368 0.930142
vt 0.395362 0.929298
vt 0.395362 0.929042
vt 0.392566 0.929044
vt 0.389748 0.929044
vt 0.392561 0.928789
vt 0.389748 0.928788
vt 0.395361 0.928786
vt 0.397550 0.929299
vt 0.397551 0.929042
vt 0.397551 0.928786
vt 0.397550 0.928301
vt 0.395360 0.928302
vt 0.392550 0.928304
vt 0.399293 0.928309
vt 0.399293 0.928794
vt 0.399290 0.929050
vt 0.400695 0.928322
vt 0.400693 0.928808
vt 0.400688 0.929064
vt 0.399287 0.929305
vt 0.400682 0.929319
vt 0.401926 0.929347
vt 0.401934 0.929093
vt 0.401941 0.928838
vt 0.403197 0.929385
vt 0.403208 0.929128
vt 0.403218 0.928871
vt 0.401951 0.928341
vt 0.403235 0.928395
vt 0.404542 0.928448
vt 0.404516 0.928933
vt 0.404499 0.929190
vt 0.405779 0.928530
vt 0.405737 0.929018
vt 0.405715 0.929272
vt 0.404482 0.929446
vt 0.405696 0.929525
vt 0.408404 0.929697
vt 0.408423 0.929442
vt 0.408442 0.929187
vt 0.414147 0.930079
vt 0.414165 0.929824
vt 0.414182 0.929569
vt 0.414214 0.929085
vt 0.408478 0.928704
vt 0.419870 0.929449
vt 0.419836 0.929933
vt 0.419817 0.930190
vt 0.421075 0.929539
vt 0.421025 0.930019
vt 0.420994 0.930274
vt 0.419798 0.930447
vt 0.420967 0.930528
vt 0.421955 0.930619
vt 0.421978 0.930372
vt 0.422004 0.930123
vt 0.423321 0.930736
vt 0.423345 0.930481
vt 0.423368 0.930225
vt 0.422052 0.929630
vt 0.423417 0.929744
vt 0.426149 0.930034
vt 0.426098 0.930516
vt 0.426071 0.930770
vt 0.429568 0.930391
vt 0.429517 0.930873
vt 0.429490 0.931128
vt 0.426043 0.931025
vt 0.429463 0.931383
vt 0.432878 0.931740
vt 0.432905 0.931485
vt 0.432933 0.931230
vt 0.435623 0.932046
vt 0.435657 0.931796
vt 0.435692 0.931545
vt 0.435756 0.931062
vt 0.432986 0.930748
vt 0.436754 0.931681
vt 0.436754 0.931204
vt 0.436750 0.931932
vt 0.437787 0.931746
vt 0.437833 0.932023
vt 0.437675 0.931234
vt 0.436732 0.932182
vt 0.437831 0.932298
vt 0.341710 0.931900
vt 0.342726 0.931848
vt 0.342729 0.932100
vt 0.341667 0.932180
vt 0.342746 0.932348
vt 0.341669 0.932458
vt 0.437752 0.932924
vt 0.436655 0.932758
vt 0.343881 0.932203
vt 0.343848 0.931952
vt 0.346628 0.931889
vt 0.346599 0.931634
vt 0.343813 0.931700
vt 0.346570 0.931380
vt 0.343749 0.931216
vt 0.346517 0.930899
vt 0.342729 0.931369
vt 0.341818 0.931385
vt 0.349933 0.930528
vt 0.349985 0.931011
vt 0.353350 0.930159
vt 0.353403 0.930641
vt 0.356081 0.929859
vt 0.356132 0.930341
vt 0.357447 0.929740
vt 0.357498 0.930232
vt 0.358423 0.929646
vt 0.358475 0.930126
vt 0.359627 0.929552
vt 0.359663 0.930035
vt 0.365282 0.929167
vt 0.365316 0.929651
vt 0.371017 0.928766
vt 0.371054 0.929250
vt 0.373716 0.928584
vt 0.373760 0.929071
vt 0.374952 0.928503
vt 0.374981 0.928980
vt 0.376258 0.928433
vt 0.376279 0.928918
vt 0.377541 0.928387
vt 0.377557 0.928873
vt 0.378796 0.928348
vt 0.378805 0.928845
vt 0.380203 0.928337
vt 0.380204 0.928822
vt 0.381946 0.928326
vt 0.381946 0.928811
vt 0.384135 0.928320
vt 0.384136 0.928805
vt 0.386936 0.928798
vt 0.386945 0.928314
vt 0.389748 0.928303
vt 0.386931 0.929054
vt 0.384137 0.929060
vt 0.384137 0.929316
vt 0.381949 0.929322
vt 0.381947 0.929066
vt 0.380211 0.929333
vt 0.380206 0.929078
vt 0.378816 0.929355
vt 0.378810 0.929101
vt 0.377563 0.929129
vt 0.377571 0.929384
vt 0.376301 0.929431
vt 0.376289 0.929175
vt 0.375016 0.929494
vt 0.374998 0.929237
vt 0.373802 0.929579
vt 0.373783 0.929325
vt 0.371075 0.929505
vt 0.371095 0.929760
vt 0.365352 0.930161
vt 0.365333 0.929906
vt 0.359703 0.930548
vt 0.359683 0.930291
vt 0.358534 0.930633
vt 0.358506 0.930379
vt 0.357545 0.930729
vt 0.357522 0.930482
vt 0.356156 0.930597
vt 0.356181 0.930852
vt 0.353459 0.931150
vt 0.353431 0.930895
vt 0.350041 0.931520
vt 0.350013 0.931265
vt 0.437678 0.933188
vt 0.436608 0.933004
vt 0.435557 0.932625
vt 0.435533 0.932877
vt 0.432815 0.932328
vt 0.432790 0.932583
vt 0.429401 0.931971
vt 0.429374 0.932226
vt 0.425978 0.931613
vt 0.425950 0.931867
vt 0.423256 0.931326
vt 0.423224 0.931581
vt 0.421906 0.931188
vt 0.421881 0.931436
vt 0.420922 0.931114
vt 0.420911 0.931370
vt 0.419760 0.931040
vt 0.419747 0.931297
vt 0.414106 0.930666
vt 0.414088 0.930921
vt 0.414071 0.931176
vt 0.414060 0.931337
vt 0.408308 0.930957
vt 0.408319 0.930796
vt 0.408338 0.930541
vt 0.405600 0.930777
vt 0.405610 0.930616
vt 0.405628 0.930361
vt 0.408358 0.930286
vt 0.405650 0.930108
vt 0.404444 0.930036
vt 0.404427 0.930293
vt 0.404411 0.930550
vt 0.403167 0.929976
vt 0.403152 0.930233
vt 0.403138 0.930490
vt 0.403129 0.930653
vt 0.404402 0.930712
vt 0.401880 0.930608
vt 0.401885 0.930445
vt 0.401895 0.930189
vt 0.400664 0.930580
vt 0.400664 0.930417
vt 0.400667 0.930161
vt 0.401906 0.929934
vt 0.400671 0.929905
vt 0.399285 0.929892
vt 0.399287 0.930147
vt 0.397553 0.929888
vt 0.397557 0.930144
vt 0.401868 0.930865
vt 0.400661 0.930837
vt 0.400658 0.931094
vt 0.401856 0.931122
vt 0.403097 0.931165
vt 0.403114 0.930909
vt 0.404369 0.931223
vt 0.404386 0.930968
vt 0.405556 0.931288
vt 0.405581 0.931033
vt 0.408268 0.931466
vt 0.408289 0.931212
vt 0.414024 0.931846
vt 0.414043 0.931592
vt 0.413842 0.934037
vt 0.408058 0.933791
vt 0.407865 0.936635
vt 0.407676 0.939482
vt 0.405178 0.936572
vt 0.405346 0.933685
vt 0.405017 0.939457
vt 0.403887 0.939455
vt 0.404033 0.936556
vt 0.404184 0.933652
vt 0.402810 0.936547
vt 0.402941 0.933626
vt 0.402683 0.939460
vt 0.401736 0.933610
vt 0.401625 0.936544
vt 0.400487 0.936544
vt 0.400578 0.933601
vt 0.401517 0.939470
vt 0.400398 0.939479
vt 0.437555 0.933442
vt 0.883124 0.197734
vt 0.880567 0.175945
vt 0.879444 0.175993
vt 0.878308 0.175941
s 1
f 2/1/1 6/2/1 5/3/1 1/4/1
f 2/1/1 1/4/1 3/5/1 57/6/1
f 1/4/1 4/7/1 776/8/1 3/5/1
f 1/4/1 5/3/1 7/9/1 4/7/1
f 6/2/1 10/10/1 8/11/1 5/3/1
f 5/3/1 8/11/1 11/12/1 7/9/1
f 9/13/1 13/14/1 11/12/1 8/11/1
f 227/15/1 9/13/1 8/11/1 10/10/1
f 12/16/1 780/17/1 7/9/1 11/12/1
f 13/14/1 15/18/1 12/16/1 11/12/1
f 13/14/1 9/13/1 225/19/1 14/20/1
f 15/18/1 13/14/1 14/20/1 16/21/1
f 19/22/1 17/23/1 15/18/1 16/21/1
f 17/23/1 18/24/2 12/16/1 15/18/1
f 18/24/2 17/23/1 20/25/3 23/26/4
f 17/23/1 19/22/1 22/27/5 20/25/3
f 24/28/6 23/26/4 20/25/3 21/29/7
f 22/27/5 206/30/8 21/29/7 20/25/3
f 23/26/4 24/28/6 25/31/9 18/24/2
f 24/28/6 26/32/10 27/33/11 25/31/9
f 26/32/10 24/28/6 21/29/7 29/34/12
f 27/33/11 26/32/10 28/35/13 778/36/14
f 26/32/10 29/34/12 31/37/15 28/35/13
f 206/30/8 30/38/16 29/34/12 21/29/7
f 29/34/12 30/38/16 32/39/17 31/37/15
f 36/40/18 33/41/19 31/37/15 32/39/17
f 33/41/19 35/42/20 28/35/13 31/37/15
f 34/43/1 33/41/19 36/40/18 38/44/1
f 33/41/19 34/43/1 781/45/21 35/42/20
f 37/46/22 40/47/1 38/44/1 36/40/18
f 37/46/22 36/40/18 32/39/17 769/48/23
f 782/49/1 34/43/1 38/44/1 39/50/1
f 40/47/1 42/51/1 39/50/1 38/44/1
f 40/47/1 37/46/22 771/52/24 41/53/25
f 42/51/1 40/47/1 41/53/25 43/54/26
f 44/55/1 42/51/1 43/54/26 45/56/27
f 42/51/1 44/55/1 47/57/1 39/50/1
f 46/58/1 44/55/1 45/56/27 75/59/28
f 44/55/1 46/58/1 49/60/1 47/57/1
f 47/57/1 48/61/1 782/49/1 39/50/1
f 48/61/1 47/57/1 49/60/1 51/62/1
f 50/63/1 53/64/1 51/62/1 49/60/1
f 46/58/1 73/65/1 50/63/1 49/60/1
f 774/66/1 48/61/1 51/62/1 52/67/1
f 53/64/1 55/68/1 52/67/1 51/62/1
f 56/69/1 55/68/1 53/64/1 54/70/1
f 54/70/1 53/64/1 50/63/1 70/71/1
f 55/68/1 56/69/1 58/72/1 57/6/1
f 52/67/1 55/68/1 57/6/1 3/5/1
f 59/73/1 2/1/1 57/6/1 58/72/1
f 59/73/1 58/72/1 60/74/1 61/75/1
f 56/69/1 63/76/1 60/74/1 58/72/1
f 61/75/1 60/74/1 62/77/1 240/78/1
f 63/76/1 64/79/1 62/77/1 60/74/1
f 66/80/1 64/79/1 63/76/1 65/81/1
f 63/76/1 56/69/1 54/70/1 65/81/1
f 68/82/1 66/80/1 65/81/1 67/83/1
f 65/81/1 54/70/1 70/71/1 67/83/1
f 69/84/1 254/85/1 68/82/1 67/83/1
f 67/83/1 70/71/1 71/86/1 69/84/1
f 70/71/1 50/63/1 73/65/1 71/86/1
f 72/87/29 256/88/30 69/84/1 71/86/1
f 74/89/31 72/87/29 71/86/1 73/65/1
f 73/65/1 46/58/1 75/59/28 74/89/31
f 74/89/31 75/59/28 77/90/32 76/91/33
f 76/91/33 78/92/34 72/87/29 74/89/31
f 80/93/35 79/94/36 76/91/33 77/90/32
f 79/94/36 81/95/37 78/92/34 76/91/33
f 82/96/38 79/97/36 80/98/35 84/99/39
f 85/100/40 81/101/37 79/97/36 82/96/38
f 87/102/41 85/100/40 82/96/38 83/103/42
f 84/99/39 173/104/43 83/103/42 82/96/38
f 86/105/44 259/106/45 81/101/37 85/100/40
f 89/107/46 86/105/44 85/100/40 87/102/41
f 83/103/42 168/108/47 88/109/48 87/102/41
f 87/102/41 88/109/48 90/110/49 89/107/46
f 92/111/50 91/112/51 89/107/46 90/110/49
f 86/105/44 89/107/46 91/112/51 94/113/52
f 91/112/51 92/111/50 157/114/53 93/115/54
f 93/115/54 96/116/55 94/113/52 91/112/51
f 94/113/52 95/117/56 259/106/45 86/105/44
f 96/116/55 98/118/57 95/117/56 94/113/52
f 96/116/55 93/115/54 772/119/58 97/120/59
f 97/120/59 100/121/60 98/118/57 96/116/55
f 257/122/61 95/123/56 98/124/57 99/125/62
f 98/124/57 100/126/60 101/127/63 99/125/62
f 101/127/63 100/126/60 102/128/64 103/129/65
f 105/130/66 102/131/64 100/121/60 97/120/59
f 103/129/65 102/128/64 104/132/67 266/133/68
f 107/134/69 104/135/67 102/131/64 105/130/66
f 106/136/70 105/130/66 97/120/59 772/119/58
f 105/130/66 106/136/70 108/137/71 107/134/69
f 110/138/72 109/139/73 107/134/69 108/137/71
f 109/139/73 112/140/74 104/135/67 107/134/69
f 109/139/73 110/138/72 773/141/75 111/142/76
f 111/142/76 114/143/77 112/140/74 109/139/73
f 266/133/68 104/132/67 112/144/74 113/145/78
f 112/144/74 114/146/77 115/147/79 113/145/78
f 114/146/77 116/148/80 117/149/81 115/147/79
f 119/150/82 116/151/80 114/143/77 111/142/76
f 117/149/81 116/148/80 118/152/83 271/153/84
f 121/154/85 118/155/83 116/151/80 119/150/82
f 120/156/86 119/150/82 111/142/76 773/141/75
f 119/150/82 120/156/86 123/157/87 121/154/85
f 122/158/88 767/159/89 118/155/83 121/154/85
f 123/157/87 124/160/90 122/158/88 121/154/85
f 125/161/91 126/162/92 124/160/90 123/157/87
f 128/163/93 125/161/91 123/157/87 120/156/86
f 126/162/92 125/161/91 127/164/94 306/165/95
f 125/161/91 128/163/93 130/166/96 127/164/94
f 128/163/93 129/167/97 131/168/98 130/166/96
f 773/141/75 129/167/97 128/163/93 120/156/86
f 135/169/99 132/170/100 130/166/96 131/168/98
f 132/170/100 134/171/101 127/164/94 130/166/96
f 135/169/99 136/172/102 133/173/103 132/170/100
f 132/170/100 133/173/103 310/174/104 134/171/101
f 137/175/105 138/176/106 136/172/102 135/169/99
f 137/175/105 135/169/99 131/168/98 140/177/107
f 139/178/108 325/179/109 138/176/106 137/175/105
f 139/178/108 137/175/105 140/177/107 141/180/110
f 142/181/111 143/182/112 141/180/110 140/177/107
f 129/167/97 142/181/111 140/177/107 131/168/98
f 108/137/71 143/182/112 142/181/111 110/138/72
f 129/167/97 773/141/75 110/138/72 142/181/111
f 143/182/112 108/137/71 106/136/70 144/183/113
f 143/182/112 144/183/113 146/184/114 141/180/110
f 144/183/113 145/185/115 147/186/116 146/184/114
f 772/119/58 145/185/115 144/183/113 106/136/70
f 150/187/117 148/188/118 146/184/114 147/186/116
f 148/188/118 139/178/108 141/180/110 146/184/114
f 150/187/117 151/189/119 149/190/120 148/188/118
f 148/188/118 149/190/120 325/179/109 139/178/108
f 152/191/121 153/192/122 151/189/119 150/187/117
f 152/191/121 150/187/117 147/186/116 155/193/123
f 154/194/124 334/195/125 153/192/122 152/191/121
f 154/194/124 152/191/121 155/193/123 156/196/126
f 157/114/53 92/111/50 156/196/126 155/193/123
f 145/185/115 157/114/53 155/193/123 147/186/116
f 145/185/115 772/119/58 93/115/54 157/114/53
f 92/111/50 90/110/49 158/197/127 156/196/126
f 160/198/128 154/194/124 156/196/126 158/197/127
f 162/199/129 160/198/128 158/197/127 159/200/130
f 90/110/49 88/109/48 159/200/130 158/197/127
f 162/199/129 163/201/131 161/202/132 160/198/128
f 160/198/128 161/202/132 334/195/125 154/194/124
f 164/203/133 165/204/134 163/201/131 162/199/129
f 164/203/133 162/199/129 159/200/130 167/205/135
f 164/203/133 166/206/136 343/207/137 165/204/134
f 166/206/136 164/203/133 167/205/135 169/208/138
f 168/108/47 171/209/139 169/208/138 167/205/135
f 88/109/48 168/108/47 167/205/135 159/200/130
f 345/210/140 166/206/136 169/208/138 170/211/141
f 171/209/139 172/212/142 170/211/141 169/208/138
f 174/213/143 172/212/142 171/209/139 173/104/43
f 168/108/47 83/103/42 173/104/43 171/209/139
f 173/104/43 84/99/39 176/214/144 174/213/143
f 172/212/142 174/213/143 175/215/145 371/216/146
f 177/217/147 175/215/145 174/213/143 176/214/144
f 176/214/144 178/218/148 179/219/149 177/217/147
f 84/99/39 80/98/35 178/218/148 176/214/144
f 179/220/149 178/221/148 180/222/150 181/223/151
f 178/221/148 80/93/35 77/90/32 180/222/150
f 45/56/27 43/54/26 181/223/151 180/222/150
f 75/59/28 45/56/27 180/222/150 77/90/32
f 182/224/152 184/225/153 179/220/149 181/223/151
f 41/53/25 182/224/152 181/223/151 43/54/26
f 183/226/154 185/227/155 184/225/153 182/224/152
f 771/52/24 183/226/154 182/224/152 41/53/25
f 186/228/156 184/229/153 185/230/155 188/231/157
f 177/217/147 179/219/149 184/229/153 186/228/156
f 175/215/145 177/217/147 186/228/156 187/232/158
f 188/231/157 189/233/159 187/232/158 186/228/156
f 189/233/159 188/231/157 190/234/160 192/235/161
f 188/231/157 185/230/155 191/236/162 190/234/160
f 196/237/163 193/238/164 190/234/160 191/236/162
f 193/238/164 195/239/165 192/235/161 190/234/160
f 196/240/163 197/241/166 194/242/167 193/243/164
f 193/243/164 194/242/167 765/244/168 195/245/165
f 198/246/169 201/247/170 197/248/166 196/249/163
f 198/246/169 196/249/163 191/250/162 200/251/171
f 201/247/170 198/246/169 199/252/172 203/253/173
f 199/252/172 198/246/169 200/251/171 770/254/174
f 201/247/170 202/255/175 764/256/176 197/248/166
f 202/255/175 201/247/170 203/253/173 204/257/177
f 204/257/177 203/253/173 205/258/178 208/259/179
f 203/253/173 199/252/172 207/260/16 205/258/178
f 206/30/8 22/27/5 208/259/179 205/258/178
f 30/38/16 206/30/8 205/258/178 207/260/16
f 208/259/179 209/261/1 211/262/180 204/257/177
f 209/261/1 208/259/179 22/27/5 19/22/1
f 210/263/1 209/261/1 19/22/1 16/21/1
f 209/261/1 210/263/1 212/264/181 211/262/180
f 211/262/180 212/264/181 215/265/182 213/266/183
f 204/257/177 211/262/180 213/266/183 202/255/175
f 214/267/184 764/256/176 202/255/175 213/266/183
f 216/268/185 214/267/184 213/266/183 215/265/182
f 215/265/182 212/264/181 220/269/186 217/270/187
f 216/268/185 215/265/182 217/270/187 218/271/188
f 219/272/189 403/273/190 218/271/188 217/270/187
f 221/274/191 219/272/189 217/270/187 220/269/186
f 222/275/1 223/276/1 221/274/191 220/269/186
f 210/263/1 222/275/1 220/269/186 212/264/181
f 222/275/1 210/263/1 16/21/1 14/20/1
f 223/276/1 222/275/1 14/20/1 225/19/1
f 223/276/1 224/277/1 436/278/192 221/274/191
f 224/277/1 223/276/1 225/19/1 226/279/1
f 9/13/1 227/15/1 226/279/1 225/19/1
f 228/280/1 229/281/1 224/277/1 226/279/1
f 226/279/1 227/15/1 231/282/1 228/280/1
f 230/283/1 434/284/1 229/281/1 228/280/1
f 228/280/1 231/282/1 232/285/1 230/283/1
f 233/286/1 231/282/1 227/15/1 10/10/1
f 235/287/1 232/285/1 231/282/1 233/286/1
f 237/288/1 235/287/1 233/286/1 234/289/1
f 10/10/1 6/2/1 234/289/1 233/286/1
f 482/290/1 232/285/1 235/287/1 236/291/1
f 238/292/1 236/291/1 235/287/1 237/288/1
f 240/78/1 238/292/1 237/288/1 61/75/1
f 61/75/1 237/288/1 234/289/1 59/73/1
f 239/293/1 477/294/1 236/291/1 238/292/1
f 241/295/1 239/293/1 238/292/1 240/78/1
f 241/295/1 240/78/1 62/77/1 243/296/1
f 242/297/1 479/298/1 239/293/1 241/295/1
f 242/297/1 241/295/1 243/296/1 244/299/1
f 245/300/1 246/301/1 244/299/1 243/296/1
f 64/79/1 245/300/1 243/296/1 62/77/1
f 64/79/1 66/80/1 247/302/1 245/300/1
f 248/303/1 246/301/1 245/300/1 247/302/1
f 250/304/1 248/303/1 247/302/1 249/305/1
f 66/80/1 68/82/1 249/305/1 247/302/1
f 251/306/1 252/307/1 250/304/1 249/305/1
f 254/85/1 251/306/1 249/305/1 68/82/1
f 252/307/1 251/306/1 253/308/193 260/309/194
f 251/306/1 254/85/1 255/310/195 253/308/193
f 254/85/1 69/84/1 256/88/30 255/310/195
f 256/88/30 258/311/196 257/122/61 255/310/195
f 255/310/195 257/122/61 99/125/62 253/308/193
f 258/311/196 259/312/45 95/123/56 257/122/61
f 78/92/34 81/95/37 259/312/45 258/311/196
f 72/87/29 78/92/34 258/311/196 256/88/30
f 260/309/194 253/308/193 99/125/62 101/127/63
f 262/313/1 252/307/1 260/309/194 261/314/658
f 260/309/194 101/127/63 103/129/65 261/314/197
f 264/315/1 262/313/1 261/314/659 263/316/660
f 261/314/197 103/129/65 266/133/68 263/316/198
f 267/317/661 264/315/1 263/316/662 265/318/656
f 263/316/198 266/133/68 113/145/78 265/318/200
f 265/318/200 113/145/78 115/147/79 267/317/199
f 264/315/1 267/317/663 268/319/664 269/320/1
f 267/317/199 115/147/79 117/149/81 268/319/201
f 273/321/1 269/320/1 268/319/665 270/322/666
f 268/319/201 117/149/81 271/153/84 270/322/202
f 270/322/202 271/153/84 768/323/203 272/324/204
f 274/325/1 273/321/1 270/322/667 272/324/204
f 269/320/1 273/321/1 275/326/1 276/327/1
f 273/321/1 274/325/1 277/328/1 275/326/1
f 248/303/1 250/304/1 276/327/1 275/326/1
f 246/301/1 248/303/1 275/326/1 277/328/1
f 246/301/1 277/328/1 278/329/1 244/299/1
f 277/328/1 274/325/1 280/330/1 278/329/1
f 279/331/1 242/297/1 244/299/1 278/329/1
f 279/331/1 278/329/1 280/330/1 282/332/1
f 284/333/205 282/332/1 280/330/1 281/334/206
f 274/325/1 272/324/204 281/334/206 280/330/1
f 475/335/1 279/331/1 282/332/1 283/336/1
f 284/333/205 285/337/207 283/336/1 282/332/1
f 286/338/208 287/339/209 285/337/207 284/333/205
f 286/338/208 284/333/205 281/334/206 288/340/210
f 287/339/209 286/338/208 289/341/211 292/342/212
f 289/341/211 286/338/208 288/340/210 291/343/213
f 289/344/211 290/345/214 294/346/215 292/347/212
f 291/348/213 766/349/216 290/345/214 289/344/211
f 468/350/217 287/339/209 292/342/212 293/351/218
f 292/347/212 294/346/215 295/352/219 293/353/218
f 295/352/219 294/346/215 296/354/220 297/355/221
f 290/345/214 299/356/222 296/354/220 294/346/215
f 490/357/223 297/355/221 296/354/220 298/358/224
f 301/359/225 298/358/224 296/354/220 299/356/222
f 301/359/225 299/356/222 300/360/226 303/361/227
f 290/345/214 766/349/216 300/360/226 299/356/222
f 301/359/225 302/362/228 502/363/229 298/358/224
f 303/361/227 304/364/230 302/362/228 301/359/225
f 126/162/92 306/165/95 304/364/230 303/361/227
f 126/162/92 303/361/227 300/360/226 124/160/90
f 302/362/228 304/364/230 305/365/231 501/366/232
f 306/165/95 307/367/233 305/365/231 304/364/230
f 134/171/101 307/367/233 306/165/95 127/164/94
f 308/368/234 309/369/235 305/365/231 307/367/233
f 134/171/101 310/174/104 308/368/234 307/367/233
f 308/368/234 311/370/236 312/371/237 309/369/235
f 308/368/234 310/174/104 314/372/238 311/370/236
f 507/373/239 312/371/237 311/370/236 313/374/240
f 315/375/241 313/374/240 311/370/236 314/372/238
f 317/376/242 315/375/241 314/372/238 316/377/243
f 310/174/104 133/173/103 316/377/243 314/372/238
f 319/378/244 317/376/242 316/377/243 318/379/245
f 133/173/103 136/172/102 318/379/245 316/377/243
f 321/380/246 319/378/244 318/379/245 320/381/247
f 136/172/102 138/176/106 320/381/247 318/379/245
f 323/382/248 321/380/246 320/381/247 322/383/249
f 138/176/106 325/179/109 322/383/249 320/381/247
f 326/384/250 323/382/248 322/383/249 324/385/251
f 325/179/109 149/190/120 324/385/251 322/383/249
f 328/386/252 326/384/250 324/385/251 327/387/253
f 149/190/120 151/189/119 327/387/253 324/385/251
f 330/388/254 328/386/252 327/387/253 329/389/255
f 151/189/119 153/192/122 329/389/255 327/387/253
f 332/390/256 330/388/254 329/389/255 331/391/257
f 153/192/122 334/195/125 331/391/257 329/389/255
f 335/392/258 332/390/256 331/391/257 333/393/259
f 334/195/125 161/202/132 333/393/259 331/391/257
f 337/394/260 335/392/258 333/393/259 336/395/261
f 161/202/132 163/201/131 336/395/261 333/393/259
f 339/396/262 337/394/260 336/395/261 338/397/263
f 163/201/131 165/204/134 338/397/263 336/395/261
f 341/398/264 339/396/262 338/397/263 340/399/265
f 165/204/134 343/207/137 340/399/265 338/397/263
f 668/400/266 341/398/264 340/399/265 342/401/267
f 343/207/137 344/402/268 342/401/267 340/399/265
f 345/210/140 344/402/268 343/207/137 166/206/136
f 348/403/269 346/404/270 344/402/268 345/210/140
f 344/402/268 346/404/270 349/405/271 342/401/267
f 346/404/270 347/406/272 351/407/273 349/405/271
f 365/408/274 347/406/272 346/404/270 348/403/269
f 350/409/275 668/400/266 342/401/267 349/405/271
f 352/410/276 350/409/275 349/405/271 351/407/273
f 354/411/277 352/410/276 351/407/273 353/412/278
f 347/406/272 355/413/279 353/412/278 351/407/273
f 357/414/280 354/411/277 353/412/278 356/415/281
f 355/413/279 359/416/282 356/415/281 353/412/278
f 357/414/280 356/415/281 358/417/283 586/418/284
f 360/419/285 358/417/283 356/415/281 359/416/282
f 362/420/286 360/419/285 359/416/282 361/421/287
f 359/416/282 355/413/279 364/422/288 361/421/287
f 375/423/289 362/420/286 361/421/287 363/424/290
f 366/425/291 363/424/290 361/421/287 364/422/288
f 364/422/288 355/413/279 347/406/272 365/408/274
f 364/422/288 365/408/274 368/426/292 366/425/291
f 367/427/293 372/428/294 363/424/290 366/425/291
f 369/429/295 367/427/293 366/425/291 368/426/292
f 371/216/146 369/429/295 368/426/292 370/430/296
f 365/408/274 348/403/269 370/430/296 368/426/292
f 172/212/142 371/216/146 370/430/296 170/211/141
f 348/403/269 345/210/140 170/211/141 370/430/296
f 187/232/158 369/429/295 371/216/146 175/215/145
f 367/427/293 369/429/295 187/232/158 189/233/159
f 192/235/161 372/428/294 367/427/293 189/233/159
f 195/239/165 373/431/297 372/428/294 192/235/161
f 373/431/297 375/423/289 363/424/290 372/428/294
f 373/432/297 195/245/165 765/244/168 374/433/298
f 373/432/297 374/433/298 376/434/299 375/435/289
f 375/435/289 376/434/299 377/436/300 362/437/286
f 380/438/301 378/439/302 376/434/299 374/433/298
f 378/439/302 381/440/303 377/436/300 376/434/299
f 383/441/304 381/440/303 378/439/302 379/442/305
f 380/438/301 393/443/306 379/442/305 378/439/302
f 381/440/303 382/444/307 759/445/308 377/436/300
f 383/441/304 384/446/309 382/444/307 381/440/303
f 385/447/310 386/448/311 384/446/309 383/441/304
f 385/447/310 383/441/304 379/442/305 388/449/312
f 387/450/313 683/451/314 386/448/311 385/447/310
f 387/450/313 385/447/310 388/449/312 389/452/315
f 390/453/316 391/454/317 389/452/315 388/449/312
f 393/443/306 390/453/316 388/449/312 379/442/305
f 392/455/318 400/456/319 391/454/317 390/453/316
f 394/457/320 392/455/318 390/453/316 393/443/306
f 395/458/321 394/457/320 393/443/306 380/438/301
f 397/459/322 396/460/323 394/457/320 395/458/321
f 396/460/323 398/461/324 392/455/318 394/457/320
f 214/462/184 216/463/185 398/461/324 396/460/323
f 764/464/176 214/462/184 396/460/323 397/459/322
f 398/461/324 399/465/325 400/456/319 392/455/318
f 216/463/185 218/466/188 399/465/325 398/461/324
f 218/466/188 403/467/190 401/468/326 399/465/325
f 399/465/325 401/468/326 404/469/327 400/456/319
f 401/468/326 402/470/328 405/471/329 404/469/327
f 403/467/190 427/472/330 402/470/328 401/468/326
f 404/469/327 405/471/329 407/473/331 406/474/332
f 400/456/319 404/469/327 406/474/332 391/454/317
f 406/474/332 407/473/331 409/475/333 408/476/334
f 391/454/317 406/474/332 408/476/334 389/452/315
f 412/477/335 410/478/336 408/476/334 409/475/333
f 410/478/336 387/450/313 389/452/315 408/476/334
f 412/477/335 413/479/337 411/480/338 410/478/336
f 410/478/336 411/480/338 683/451/314 387/450/313
f 412/477/335 414/481/339 415/482/340 413/479/337
f 414/481/339 412/477/335 409/475/333 417/483/341
f 414/481/339 416/484/342 692/485/343 415/482/340
f 416/484/342 414/481/339 417/483/341 418/486/344
f 419/487/345 420/488/346 418/486/344 417/483/341
f 407/473/331 419/487/345 417/483/341 409/475/333
f 421/489/347 422/490/348 420/488/346 419/487/345
f 405/471/329 421/489/347 419/487/345 407/473/331
f 423/491/349 424/492/350 422/490/348 421/489/347
f 402/470/328 423/491/349 421/489/347 405/471/329
f 425/493/351 428/494/352 424/492/350 423/491/349
f 427/472/330 425/493/351 423/491/349 402/470/328
f 428/495/352 425/496/351 426/497/353 430/498/354
f 427/499/330 437/500/355 426/497/353 425/496/351
f 428/494/352 429/501/356 743/502/357 424/492/350
f 429/503/356 428/495/352 430/498/354 431/504/358
f 432/505/359 433/506/360 431/504/358 430/498/354
f 435/507/361 432/505/359 430/498/354 426/497/353
f 434/284/1 438/508/1 433/506/360 432/505/359
f 435/507/361 229/281/1 434/284/1 432/505/359
f 436/278/192 224/277/1 229/281/1 435/507/361
f 437/500/355 436/278/192 435/507/361 426/497/353
f 219/272/189 221/274/191 436/278/192 437/500/355
f 403/273/190 219/272/189 437/500/355 427/499/330
f 438/508/1 434/284/1 230/283/1 439/509/1
f 440/510/1 438/508/1 439/509/1 442/511/1
f 438/508/1 440/510/1 443/512/362 433/506/360
f 440/510/1 441/513/1 444/514/363 443/512/362
f 441/513/1 440/510/1 442/511/1 480/515/1
f 445/516/364 443/512/362 444/514/363 447/517/365
f 433/506/360 443/512/362 445/516/364 431/504/358
f 446/518/366 429/503/356 431/504/358 445/516/364
f 446/518/366 445/516/364 447/517/365 448/519/367
f 451/520/368 448/519/367 447/517/365 449/521/369
f 444/514/363 450/522/370 449/521/369 447/517/365
f 450/522/370 455/523/371 452/524/372 449/521/369
f 453/525/373 451/520/368 449/521/369 452/524/372
f 755/526/374 453/525/373 452/524/372 454/527/375
f 455/523/371 456/528/376 454/527/375 452/524/372
f 457/529/1 460/530/668 456/528/657 455/523/669
f 458/531/1 457/529/1 455/523/670 450/522/671
f 457/529/1 458/531/1 483/532/1 459/533/1
f 460/530/672 457/529/1 459/533/1 461/534/673
f 460/530/377 461/534/378 464/535/379 462/536/380
f 456/528/376 460/530/377 462/536/380 454/527/375
f 755/526/374 454/527/375 462/536/380 463/537/381
f 465/538/382 463/537/381 462/536/380 464/535/379
f 461/534/378 469/539/383 466/540/384 464/535/379
f 467/541/385 465/538/382 464/535/379 466/540/384
f 293/351/218 467/541/385 466/540/384 468/350/217
f 469/539/383 470/542/386 468/350/217 466/540/384
f 471/543/1 473/544/1 470/542/386 469/539/674
f 459/533/1 471/543/1 469/539/675 461/534/676
f 471/543/1 459/533/1 483/532/1 472/545/1
f 473/544/1 471/543/1 472/545/1 474/546/1
f 285/337/207 470/542/386 473/544/1 283/336/1
f 474/546/1 475/335/1 283/336/1 473/544/1
f 475/335/1 474/546/1 476/547/1 479/298/1
f 472/545/1 478/548/1 476/547/1 474/546/1
f 479/298/1 476/547/1 477/294/1 239/293/1
f 478/548/1 481/549/1 477/294/1 476/547/1
f 279/331/1 475/335/1 479/298/1 242/297/1
f 478/548/1 472/545/1 483/532/1 480/515/1
f 481/549/1 478/548/1 480/515/1 442/511/1
f 482/290/1 481/549/1 442/511/1 439/509/1
f 481/549/1 482/290/1 236/291/1 477/294/1
f 232/285/1 482/290/1 439/509/1 230/283/1
f 458/531/1 441/513/1 480/515/1 483/532/1
f 287/339/209 468/350/217 470/542/386 285/337/207
f 465/550/382 467/551/385 484/552/387 485/553/388
f 467/551/385 293/353/218 295/352/219 484/552/387
f 485/553/388 484/552/387 486/554/389 487/555/390
f 484/552/387 295/352/219 297/355/221 486/554/389
f 487/555/390 486/554/389 488/556/391 489/557/392
f 486/554/389 297/355/221 490/357/223 488/556/391
f 489/557/392 488/556/391 491/558/393 492/559/394
f 488/556/391 490/357/223 493/560/395 491/558/393
f 494/561/396 496/562/397 492/559/394 491/558/393
f 497/563/398 494/561/396 491/558/393 493/560/395
f 497/563/398 498/564/399 495/565/400 494/561/396
f 494/561/396 495/565/400 719/566/401 496/562/397
f 498/564/399 497/563/398 499/567/402 500/568/403
f 493/560/395 502/363/229 499/567/402 497/563/398
f 503/569/404 500/568/403 499/567/402 501/366/232
f 302/362/228 501/366/232 499/567/402 502/363/229
f 298/358/224 502/363/229 493/560/395 490/357/223
f 503/569/404 501/366/232 305/365/231 309/369/235
f 503/569/404 504/570/405 505/571/406 500/568/403
f 309/369/235 312/371/237 504/570/405 503/569/404
f 509/572/407 505/571/406 504/570/405 506/573/408
f 506/573/408 504/570/405 312/371/237 507/373/239
f 506/573/408 507/373/239 638/574/409 508/575/410
f 506/573/408 508/575/410 511/576/411 509/572/407
f 510/577/412 721/578/413 505/571/406 509/572/407
f 510/577/412 509/572/407 511/576/411 512/579/414
f 516/580/415 512/579/414 511/576/411 513/581/416
f 514/582/417 513/581/416 511/576/411 508/575/410
f 515/583/418 513/581/416 514/582/417 634/584/419
f 518/585/420 516/580/415 513/581/416 515/583/418
f 722/586/421 512/579/414 516/580/415 517/587/422
f 518/585/420 520/588/423 517/587/422 516/580/415
f 521/589/424 520/588/423 518/585/420 519/590/425
f 519/590/425 518/585/420 515/583/418 635/591/426
f 523/592/427 522/593/428 520/588/423 521/589/424
f 520/588/423 522/593/428 525/594/429 517/587/422
f 763/595/430 524/596/431 522/593/428 523/592/427
f 522/593/428 524/596/431 527/597/432 525/594/429
f 526/598/433 722/586/421 517/587/422 525/594/429
f 528/599/434 526/598/433 525/594/429 527/597/432
f 530/600/435 528/599/434 527/597/432 529/601/436
f 524/596/431 532/602/437 529/601/436 527/597/432
f 724/603/438 530/600/435 529/601/436 531/604/439
f 532/602/437 534/605/440 531/604/439 529/601/436
f 533/606/441 535/607/442 534/605/440 532/602/437
f 533/606/441 532/602/437 524/596/431 763/595/430
f 537/608/443 536/609/444 534/605/440 535/607/442
f 534/605/440 536/609/444 539/610/445 531/604/439
f 762/611/446 538/612/447 536/609/444 537/608/443
f 536/609/444 538/612/447 541/613/448 539/610/445
f 540/614/449 724/603/438 531/604/439 539/610/445
f 542/615/450 540/614/449 539/610/445 541/613/448
f 544/616/451 542/615/450 541/613/448 543/617/452
f 538/612/447 546/618/453 543/617/452 541/613/448
f 757/619/454 544/616/451 543/617/452 545/620/455
f 546/618/453 548/621/456 545/620/455 543/617/452
f 549/622/457 548/621/456 546/618/453 547/623/458
f 762/611/446 547/623/458 546/618/453 538/612/447
f 551/624/459 550/625/460 548/621/456 549/622/457
f 548/621/456 550/625/460 553/626/461 545/620/455
f 761/627/462 552/628/463 550/625/460 551/624/459
f 550/625/460 552/628/463 555/629/464 553/626/461
f 554/630/465 757/619/454 545/620/455 553/626/461
f 556/631/466 554/630/465 553/626/461 555/629/464
f 558/632/467 556/631/466 555/629/464 557/633/468
f 552/628/463 560/634/469 557/633/468 555/629/464
f 758/635/470 558/632/467 557/633/468 559/636/471
f 560/634/469 562/637/472 559/636/471 557/633/468
f 561/638/473 563/639/474 562/637/472 560/634/469
f 561/638/473 560/634/469 552/628/463 761/627/462
f 563/639/474 565/640/475 564/641/476 562/637/472
f 562/637/472 564/641/476 567/642/477 559/636/471
f 760/643/478 566/644/479 564/641/476 565/640/475
f 564/641/476 566/644/479 569/645/480 567/642/477
f 568/646/481 758/635/470 559/636/471 567/642/477
f 570/647/482 568/646/481 567/642/477 569/645/480
f 572/648/483 570/647/482 569/645/480 571/649/484
f 566/644/479 574/650/485 571/649/484 569/645/480
f 674/651/486 572/648/483 571/649/484 573/652/487
f 574/650/485 576/653/488 573/652/487 571/649/484
f 577/654/489 576/653/488 574/650/485 575/655/490
f 575/655/490 574/650/485 566/644/479 760/643/478
f 578/656/491 576/653/488 577/654/489 580/657/492
f 576/653/488 578/656/491 581/658/493 573/652/487
f 579/659/494 583/660/495 581/658/493 578/656/491
f 597/661/496 579/659/494 578/656/491 580/657/492
f 573/652/487 581/658/493 582/662/497 674/651/486
f 583/660/495 585/663/498 582/662/497 581/658/493
f 579/664/494 595/665/499 584/666/500 583/667/495
f 583/667/495 584/666/500 587/668/501 585/669/498
f 586/670/284 671/671/502 582/662/497 585/663/498
f 586/418/284 585/669/498 587/668/501 357/414/280
f 354/411/277 357/414/280 587/668/501 588/672/503
f 590/673/504 588/672/503 587/668/501 584/666/500
f 589/674/505 588/672/503 590/673/504 591/675/506
f 588/672/503 589/674/505 352/410/276 354/411/277
f 592/676/507 593/677/508 591/675/506 590/673/504
f 592/676/507 590/673/504 584/666/500 595/665/499
f 594/678/509 598/679/510 593/677/508 592/676/507
f 594/678/509 592/676/507 595/665/499 596/680/511
f 597/681/496 596/680/511 595/665/499 579/664/494
f 599/682/512 600/683/513 593/677/508 598/679/510
f 601/684/514 602/685/515 600/683/513 599/682/512
f 603/686/516 604/687/517 602/685/515 601/684/514
f 605/688/518 606/689/519 604/687/517 603/686/516
f 605/688/518 607/690/520 608/691/521 606/689/519
f 607/690/520 609/692/522 610/693/523 608/691/521
f 611/694/524 612/695/525 610/693/523 609/692/522
f 613/696/526 614/697/527 612/695/525 611/694/524
f 615/698/528 616/699/529 614/697/527 613/696/526
f 615/698/528 617/700/530 618/701/531 616/699/529
f 619/702/532 620/703/533 618/701/531 617/700/530
f 621/704/534 622/705/535 620/703/533 619/702/532
f 623/706/536 624/707/537 622/705/535 621/704/534
f 623/706/536 625/708/538 626/709/539 624/707/537
f 625/708/538 627/710/540 628/711/541 626/709/539
f 627/710/540 629/712/542 630/713/543 628/711/541
f 632/714/544 630/713/543 629/712/542 631/715/545
f 634/584/419 632/714/544 631/715/545 633/716/546
f 634/584/419 633/716/546 635/591/426 515/583/418
f 634/584/419 514/582/417 636/717/547 632/714/544
f 632/714/544 636/717/547 637/718/548 630/713/543
f 637/718/548 636/717/547 638/574/409 639/719/549
f 514/582/417 508/575/410 638/574/409 636/717/547
f 313/374/240 639/719/549 638/574/409 507/373/239
f 639/719/549 640/720/550 642/721/551 637/718/548
f 315/375/241 640/720/550 639/719/549 313/374/240
f 640/720/550 315/375/241 317/376/242 641/722/552
f 640/720/550 641/722/552 643/723/553 642/721/551
f 626/709/539 628/711/541 642/721/551 643/723/553
f 628/711/541 630/713/543 637/718/548 642/721/551
f 641/722/552 646/724/554 644/725/555 643/723/553
f 624/707/537 626/709/539 643/723/553 644/725/555
f 622/705/535 624/707/537 644/725/555 645/726/556
f 646/724/554 647/727/557 645/726/556 644/725/555
f 647/727/557 646/724/554 319/378/244 321/380/246
f 317/376/242 319/378/244 646/724/554 641/722/552
f 647/727/557 321/380/246 323/382/248 648/728/558
f 647/727/557 648/728/558 650/729/559 645/726/556
f 648/728/558 649/730/560 651/731/561 650/729/559
f 326/384/250 649/730/560 648/728/558 323/382/248
f 618/701/531 620/703/533 650/729/559 651/731/561
f 620/703/533 622/705/535 645/726/556 650/729/559
f 649/730/560 654/732/562 652/733/563 651/731/561
f 616/699/529 618/701/531 651/731/561 652/733/563
f 614/697/527 616/699/529 652/733/563 653/734/564
f 654/732/562 655/735/565 653/734/564 652/733/563
f 655/735/565 654/732/562 328/386/252 330/388/254
f 649/730/560 326/384/250 328/386/252 654/732/562
f 330/388/254 332/390/256 656/736/566 655/735/565
f 655/735/565 656/736/566 658/737/567 653/734/564
f 656/736/566 657/738/568 659/739/569 658/737/567
f 657/738/568 656/736/566 332/390/256 335/392/258
f 610/693/523 612/695/525 658/737/567 659/739/569
f 612/695/525 614/697/527 653/734/564 658/737/567
f 657/738/568 661/740/570 660/741/571 659/739/569
f 608/691/521 610/693/523 659/739/569 660/741/571
f 661/740/570 664/742/572 662/743/573 660/741/571
f 606/689/519 608/691/521 660/741/571 662/743/573
f 604/687/517 606/689/519 662/743/573 663/744/574
f 664/742/572 665/745/575 663/744/574 662/743/573
f 665/745/575 664/742/572 339/396/262 341/398/264
f 337/394/260 339/396/262 664/742/572 661/740/570
f 341/398/264 668/400/266 666/746/576 665/745/575
f 665/745/575 666/746/576 669/747/577 663/744/574
f 666/746/576 667/748/578 670/749/579 669/747/577
f 667/748/578 666/746/576 668/400/266 350/409/275
f 600/683/513 602/685/515 669/747/577 670/749/579
f 602/685/515 604/687/517 663/744/574 669/747/577
f 667/748/578 589/674/505 591/675/506 670/749/579
f 593/677/508 600/683/513 670/749/579 591/675/506
f 350/409/275 352/410/276 589/674/505 667/748/578
f 335/392/258 337/394/260 661/740/570 657/738/568
f 671/671/502 586/670/284 358/750/283 672/751/580
f 673/752/581 674/651/486 582/662/497 671/671/502
f 671/671/502 672/751/580 676/753/582 673/752/581
f 675/754/583 572/648/483 674/651/486 673/752/581
f 675/754/583 673/752/581 676/753/582 677/755/584
f 382/444/307 676/753/582 672/751/580 759/445/308
f 382/444/307 384/446/309 677/755/584 676/753/582
f 679/756/585 675/754/583 677/755/584 678/757/586
f 384/446/309 386/448/311 678/757/586 677/755/584
f 681/758/587 679/756/585 678/757/586 680/759/588
f 386/448/311 683/451/314 680/759/588 678/757/586
f 684/760/589 681/758/587 680/759/588 682/761/590
f 683/451/314 411/480/338 682/761/590 680/759/588
f 686/762/591 684/760/589 682/761/590 685/763/592
f 411/480/338 413/479/337 685/763/592 682/761/590
f 688/764/593 686/762/591 685/763/592 687/765/594
f 413/479/337 415/482/340 687/765/594 685/763/592
f 690/766/595 688/764/593 687/765/594 689/767/596
f 415/482/340 692/485/343 689/767/596 687/765/594
f 756/768/597 690/766/595 689/767/596 691/769/598
f 692/485/343 693/770/599 691/769/598 689/767/596
f 694/771/600 693/770/599 692/485/343 416/484/342
f 696/772/601 695/773/602 693/770/599 694/771/600
f 693/770/599 695/773/602 698/774/603 691/769/598
f 737/775/604 697/776/605 695/773/602 696/772/601
f 695/773/602 697/776/605 700/777/606 698/774/603
f 699/778/607 756/768/597 691/769/598 698/774/603
f 701/779/608 699/778/607 698/774/603 700/777/606
f 703/780/609 701/779/608 700/777/606 702/781/610
f 697/776/605 705/782/611 702/781/610 700/777/606
f 723/783/612 703/780/609 702/781/610 704/784/613
f 705/782/611 707/785/614 704/784/613 702/781/610
f 708/786/615 707/785/614 705/782/611 706/787/616
f 706/787/616 705/782/611 697/776/605 737/775/604
f 710/788/617 709/789/618 707/785/614 708/786/615
f 707/785/614 709/789/618 712/790/619 704/784/613
f 725/791/620 711/792/621 709/789/618 710/788/617
f 709/789/618 711/792/621 714/793/622 712/790/619
f 713/794/623 723/783/612 704/784/613 712/790/619
f 715/795/624 713/794/623 712/790/619 714/793/622
f 717/796/625 715/795/624 714/793/622 716/797/626
f 711/792/621 719/566/401 716/797/626 714/793/622
f 720/798/627 717/796/625 716/797/626 718/799/628
f 719/566/401 495/565/400 718/799/628 716/797/626
f 496/562/397 719/566/401 711/792/621 725/791/620
f 510/577/412 720/798/627 718/799/628 721/578/413
f 495/565/400 498/564/399 721/578/413 718/799/628
f 498/564/399 500/568/403 505/571/406 721/578/413
f 720/798/627 722/586/421 526/598/433 717/796/625
f 722/586/421 720/798/627 510/577/412 512/579/414
f 528/599/434 715/795/624 717/796/625 526/598/433
f 715/795/624 528/599/434 530/600/435 713/794/623
f 530/600/435 724/603/438 723/783/612 713/794/623
f 703/780/609 723/783/612 724/603/438 540/614/449
f 725/791/620 710/788/617 728/800/629 726/801/630
f 496/562/397 725/791/620 726/801/630 492/559/394
f 727/802/631 489/557/392 492/559/394 726/801/630
f 729/803/632 727/802/631 726/801/630 728/800/629
f 731/804/633 729/803/632 728/800/629 730/805/634
f 710/788/617 708/786/615 730/805/634 728/800/629
f 733/806/635 731/804/633 730/805/634 732/807/636
f 708/786/615 706/787/616 732/807/636 730/805/634
f 735/808/637 733/806/635 732/807/636 734/809/638
f 706/787/616 737/775/604 734/809/638 732/807/636
f 738/810/639 735/808/637 734/809/638 736/811/640
f 737/775/604 696/772/601 736/811/640 734/809/638
f 740/812/641 738/810/639 736/811/640 739/813/642
f 696/772/601 694/771/600 739/813/642 736/811/640
f 420/488/346 740/812/641 739/813/642 418/486/344
f 694/771/600 416/484/342 418/486/344 739/813/642
f 741/814/643 742/815/644 738/810/639 740/812/641
f 422/490/348 741/814/643 740/812/641 420/488/346
f 424/492/350 743/502/357 741/814/643 422/490/348
f 743/502/357 744/816/645 742/815/644 741/814/643
f 429/501/356 446/817/366 744/816/645 743/502/357
f 744/816/645 745/818/646 746/819/647 742/815/644
f 446/817/366 448/820/367 745/818/646 744/816/645
f 448/820/367 451/821/368 747/822/648 745/818/646
f 745/818/646 747/822/648 749/823/649 746/819/647
f 747/822/648 748/824/650 750/825/651 749/823/649
f 451/821/368 453/826/373 748/824/650 747/822/648
f 749/823/649 750/825/651 731/804/633 733/806/635
f 746/819/647 749/823/649 733/806/635 735/808/637
f 750/825/651 751/827/652 729/803/632 731/804/633
f 748/824/650 753/828/653 751/827/652 750/825/651
f 753/828/653 754/829/654 752/830/655 751/827/652
f 751/827/652 752/830/655 727/802/631 729/803/632
f 755/831/374 463/832/381 754/829/654 753/828/653
f 453/826/373 755/831/374 753/828/653 748/824/650
f 463/832/381 465/550/382 485/553/388 754/829/654
f 754/829/654 485/553/388 487/555/390 752/830/655
f 752/830/655 487/555/390 489/557/392 727/802/631
f 742/815/644 746/819/647 735/808/637 738/810/639
f 540/614/449 542/615/450 701/779/608 703/780/609
f 701/779/608 542/615/450 544/616/451 699/778/607
f 757/619/454 756/768/597 699/778/607 544/616/451
f 756/768/597 757/619/454 554/630/465 690/766/595
f 690/766/595 554/630/465 556/631/466 688/764/593
f 558/632/467 686/762/591 688/764/593 556/631/466
f 686/762/591 558/632/467 758/635/470 684/760/589
f 568/646/481 681/758/587 684/760/589 758/635/470
f 681/758/587 568/646/481 570/647/482 679/756/585
f 572/648/483 675/754/583 679/756/585 570/647/482
f 360/833/285 759/445/308 672/751/580 358/750/283
f 362/437/286 377/436/300 759/445/308 360/833/285
f 441/513/1 458/531/1 450/522/677 444/514/363
f 197/241/166 764/464/176 397/459/322 194/242/167
f 194/242/167 397/459/322 395/458/321 765/244/168
f 380/438/301 374/433/298 765/244/168 395/458/321
f 122/158/88 124/160/90 300/360/226 766/349/216
f 767/159/89 122/158/88 766/349/216 291/348/213
f 768/323/203 767/834/89 291/343/213 288/340/210
f 271/153/84 118/152/83 767/834/89 768/323/203
f 272/324/204 768/323/203 288/340/210 281/334/206
f 262/313/1 264/315/1 269/320/1 276/327/1
f 252/307/1 262/313/1 276/327/1 250/304/1
f 6/2/1 2/1/1 59/73/1 234/289/1
f 207/260/16 199/252/172 770/254/174 769/48/23
f 30/38/16 207/260/16 769/48/23 32/39/17
f 771/52/24 37/46/22 769/48/23 770/254/174
f 183/226/154 771/52/24 770/254/174 200/251/171
f 185/227/155 183/226/154 200/251/171 191/250/162
f 774/66/1 52/67/1 3/5/1 776/8/1
f 48/61/1 774/66/1 775/835/1 782/49/1
f 775/835/1 774/66/1 776/8/1 777/836/1
f 4/7/1 779/837/1 777/836/1 776/8/1
f 781/45/21 775/835/1 777/836/1 778/36/14
f 779/837/1 27/33/11 778/36/14 777/836/1
f 779/837/1 780/17/1 25/31/9 27/33/11
f 780/17/1 779/837/1 4/7/1 7/9/1
f 780/17/1 12/16/1 18/24/2 25/31/9
f 35/42/20 781/45/21 778/36/14 28/35/13
f 34/43/1 782/49/1 775/835/1 781/45/21
