# Blender 4.5.12 LTS
# www.blender.org
o B3
v 43.868118 -15.238996 30.193542
v 43.758057 -15.238996 31.300148
v 43.868118 -16.722702 30.193542
v 43.758057 -15.238996 29.086937
v 43.436260 -15.238996 28.022446
v 43.758057 -16.722702 29.086937
v 43.436260 -16.722702 28.022446
v 43.758057 -18.206406 29.086937
v 43.868118 -18.206406 30.193542
v 43.436264 -18.206406 28.022446
v 43.758057 -19.690109 29.086937
v 43.868118 -19.690113 30.193542
v 43.758057 -20.864288 29.086937
v 43.436260 -19.690109 28.022446
v 42.911098 -19.690109 27.042198
v 43.436253 -20.864285 28.022446
v 43.436260 -21.419407 28.022446
v 42.911098 -20.864288 27.042198
v 42.911098 -21.419407 27.042198
v 42.206436 -20.864285 26.181885
v 42.206432 -21.419407 26.181885
v 41.346127 -20.864288 25.477219
v 42.206432 -19.690109 26.181885
v 42.206436 -18.206406 26.181885
v 41.346127 -19.690109 25.477219
v 41.346127 -18.206406 25.477219
v 40.365871 -19.690109 24.952057
v 40.365871 -18.206406 24.952057
v 39.301380 -19.690109 24.630257
v 40.365871 -20.864285 24.952057
v 40.365871 -21.419407 24.952057
v 39.301380 -20.864288 24.630257
v 39.301380 -21.419407 24.630257
v 38.194771 -20.864285 24.520203
v 38.194771 -21.419407 24.520203
v 37.088165 -20.864288 24.630257
v 38.194771 -19.690109 24.520203
v 38.194771 -18.206406 24.520203
v 37.088165 -19.690109 24.630257
v 37.088165 -18.206406 24.630257
v 36.023682 -19.690113 24.952065
v 36.023678 -18.206409 24.952057
v 35.043423 -19.690117 25.477242
v 36.023678 -20.864288 24.952057
v 36.023682 -21.419411 24.952072
v 35.043423 -20.864296 25.477257
v 35.043423 -21.419418 25.477272
v 34.183109 -20.864300 26.181938
v 34.183109 -21.419426 26.181969
v 33.478451 -20.864300 27.042274
v 34.183113 -19.690125 26.181923
v 34.183109 -18.206413 26.181915
v 33.478451 -19.690121 27.042252
v 33.478451 -18.206409 27.042236
v 32.953289 -19.690117 28.022499
v 32.953289 -18.206409 28.022476
v 32.631489 -19.690113 29.086967
v 32.953289 -20.864296 28.022514
v 32.953289 -21.419411 28.022537
v 32.631489 -20.864288 29.086975
v 32.631489 -21.419407 29.086990
v 32.521435 -20.864288 30.193550
v 32.521431 -21.419407 30.193558
v 32.631489 -20.864288 31.300148
v 32.521431 -19.690113 30.193550
v 32.521431 -18.206409 30.193542
v 32.631493 -19.690109 31.300148
v 32.631489 -18.206406 31.300148
v 32.953293 -19.690109 32.364639
v 32.953293 -18.206406 32.364624
v 33.478451 -19.690109 33.344887
v 32.953289 -20.864285 32.364624
v 32.953293 -21.419407 32.364639
v 33.478455 -20.864288 33.344887
v 33.478451 -21.419407 33.344887
v 34.183113 -20.864285 34.205200
v 34.183113 -21.419407 34.205185
v 35.043430 -20.864288 34.909866
v 34.183113 -19.690109 34.205185
v 34.183113 -18.206406 34.205185
v 35.043430 -19.690109 34.909866
v 35.043430 -18.206406 34.909866
v 36.023682 -19.690113 35.435036
v 36.023682 -18.206409 35.435020
v 37.088165 -19.690113 35.756828
v 36.023682 -20.864285 35.435020
v 36.023682 -21.419407 35.435036
v 37.088165 -20.864288 35.756828
v 37.088165 -21.419407 35.756828
v 38.194771 -20.864285 35.866890
v 38.194771 -21.419407 35.866890
v 39.301380 -20.864288 35.756828
v 38.194771 -19.690113 35.866890
v 38.194771 -18.206409 35.866882
v 39.301380 -19.690113 35.756828
v 39.301380 -18.206409 35.756828
v 40.365868 -19.690113 35.435036
v 40.365868 -18.206409 35.435036
v 41.346119 -19.690113 34.909866
v 40.365868 -20.864285 35.435043
v 40.365868 -21.419407 35.435036
v 41.346119 -20.864288 34.909866
v 41.346119 -21.419407 34.909866
v 42.206432 -20.864288 34.205185
v 42.206429 -21.419407 34.205200
v 42.911095 -20.864288 33.344902
v 42.206429 -19.690113 34.205185
v 42.206429 -18.206409 34.205185
v 42.911095 -19.690113 33.344894
v 42.911095 -18.206409 33.344887
v 43.436253 -19.690113 32.364639
v 43.436260 -18.206406 32.364639
v 43.758057 -19.690113 31.300156
v 43.436260 -20.864288 32.364647
v 43.436253 -21.419407 32.364647
v 43.758053 -20.864288 31.300156
v 43.758057 -21.419407 31.300156
v 43.868118 -20.864288 30.193542
v 43.868118 -21.419407 30.193542
v 43.792320 -21.624401 30.193604
v 43.758057 -21.419407 29.086937
v 43.683685 -21.624409 29.101768
v 43.366112 -21.624424 28.051529
v 43.460564 -21.748234 29.146301
v 43.155659 -21.748291 28.138786
v 43.564919 -21.748199 30.193748
v 43.163067 -21.831474 29.205666
v 43.261723 -21.831406 30.193954
v 42.875057 -21.831585 28.255127
v 42.865570 -21.914711 29.265038
v 42.958527 -21.914612 30.194168
v 42.488159 -21.991501 29.319412
v 42.594456 -21.914875 28.371452
v 42.152958 -21.915012 27.549065
v 42.249737 -21.990414 28.480743
v 41.863487 -21.989094 27.714844
v 41.776764 -22.050442 28.575951
v 41.500507 -22.044659 27.874321
v 41.202808 -22.098381 28.636665
v 41.950920 -22.055401 29.363823
v 42.012463 -22.057659 30.194778
v 41.305645 -22.108013 29.393204
v 40.604137 -22.150951 29.402481
v 41.343624 -22.112022 30.195045
v 40.622826 -22.155422 30.195084
v 41.305637 -22.107956 30.996918
v 40.604122 -22.150887 30.987839
v 41.202782 -22.098270 31.753441
v 41.950912 -22.055347 31.025665
v 42.488144 -21.991455 31.069359
v 41.776752 -22.050343 31.813400
v 42.249722 -21.990322 31.907875
v 41.500511 -22.044537 32.514915
v 41.863514 -21.988976 32.673676
v 41.098503 -22.040813 33.092224
v 41.046139 -22.085430 32.419281
v 40.482567 -22.115482 32.443359
v 40.874989 -22.070961 32.860359
v 40.456619 -22.083946 33.040688
v 39.810398 -22.095295 33.202187
v 40.547058 -22.042080 33.507355
v 40.699188 -21.986179 33.870918
v 39.861671 -22.045837 33.793221
v 39.946003 -21.984921 34.269348
v 39.057835 -22.049603 33.982788
v 39.094872 -21.983814 34.529053
v 38.194771 -22.051487 34.053467
v 39.034904 -22.104336 33.311638
v 39.029579 -22.147079 32.564758
v 38.194775 -22.108276 33.353310
v 37.354645 -22.104336 33.311546
v 38.194771 -22.150562 32.583511
v 38.194771 -22.181408 31.782066
v 37.359966 -22.147079 32.564766
v 37.356960 -22.178413 31.778282
v 36.579315 -22.135696 32.515640
v 36.557442 -22.165188 31.766960
v 35.906975 -22.115486 32.443222
v 36.579151 -22.095303 33.201988
v 35.932922 -22.083958 33.040405
v 36.527874 -22.045845 33.793053
v 36.443542 -21.984928 34.269257
v 37.331715 -22.049606 33.982697
v 35.842480 -22.042095 33.507088
v 35.690353 -21.986198 33.870743
v 35.291027 -22.040836 33.091927
v 35.047157 -21.987568 33.337494
v 35.514545 -22.070980 32.860062
v 34.889027 -22.044548 32.514687
v 34.526035 -21.988991 32.673500
v 34.612793 -22.050350 31.813309
v 35.343395 -22.085438 32.419052
v 35.186768 -22.098274 31.753448
v 35.834518 -22.137516 31.748329
v 35.083908 -22.107956 30.997314
v 35.785416 -22.150883 30.988533
v 35.045918 -22.112019 30.195839
v 34.438637 -22.055347 31.025787
v 33.901398 -21.991459 31.069267
v 34.377075 -22.057659 30.195122
v 33.819122 -21.991978 30.194405
v 34.438625 -22.055412 29.364334
v 33.901379 -21.991512 29.319534
v 34.612778 -22.050461 28.576530
v 35.083904 -22.108032 29.394165
v 35.785416 -22.150970 29.403725
v 35.186745 -22.098412 28.637596
v 35.834442 -22.137676 28.643600
v 35.343319 -22.085587 27.971497
v 35.906704 -22.115669 27.948326
v 35.514194 -22.071110 27.530159
v 34.889034 -22.044678 27.874786
v 34.526051 -21.989101 27.715057
v 35.290585 -22.040932 27.297310
v 35.046532 -21.987621 27.050819
v 35.840618 -22.042088 26.882309
v 35.687695 -21.986057 26.517326
v 36.525063 -22.045879 26.598503
v 35.932121 -22.084095 27.350395
v 36.577950 -22.095562 27.192703
v 36.578915 -22.135620 27.878769
v 37.353848 -22.104927 27.093086
v 37.359703 -22.146126 27.836327
v 38.194771 -22.109085 27.057724
v 37.329838 -22.050018 26.414619
v 37.291981 -21.983486 25.858932
v 38.194771 -22.052174 26.347672
v 38.194771 -21.983009 25.763847
v 39.059715 -22.050022 26.414597
v 39.097569 -21.983505 25.859062
v 39.864483 -22.045887 26.598419
v 39.035702 -22.104916 27.092834
v 39.029854 -22.146107 27.835861
v 39.811596 -22.095543 27.192261
v 39.810642 -22.135586 27.877983
v 40.457424 -22.084076 27.349869
v 40.482849 -22.115635 27.947464
v 40.875355 -22.071095 27.529633
v 40.548923 -22.042088 26.882141
v 40.701843 -21.986069 26.517380
v 41.098961 -22.040920 27.297012
v 41.342999 -21.987621 27.050720
v 41.566547 -21.914425 26.825584
v 41.779842 -21.831284 26.611015
v 40.860695 -21.912415 26.228783
v 41.022507 -21.829945 25.978264
v 40.048977 -21.909817 25.775894
v 40.154606 -21.828209 25.501274
v 39.144951 -21.907452 25.484131
v 39.950039 -21.984638 26.118828
v 39.197094 -21.826633 25.199516
v 38.194771 -21.906326 25.378510
v 37.244598 -21.907436 25.484001
v 38.194771 -21.825878 25.092415
v 37.192455 -21.826622 25.199417
v 38.194771 -21.745438 24.806305
v 38.194771 -21.623707 24.591728
v 37.140312 -21.745808 24.914841
v 39.249237 -21.745815 24.914879
v 40.260239 -21.746605 25.226669
v 39.288342 -21.623802 24.701416
v 40.339462 -21.624001 25.020706
v 41.305668 -21.624218 25.539848
v 42.153114 -21.624382 26.235535
v 41.346127 -21.419407 25.477219
v 41.184315 -21.747471 25.727737
v 41.993137 -21.748138 26.396446
v 42.658386 -21.748333 27.211159
v 42.847923 -21.624432 27.084435
v 42.405670 -21.831673 27.380104
v 37.101204 -21.623802 24.701408
v 36.129311 -21.746597 25.226608
v 36.050083 -21.624004 25.020706
v 35.205231 -21.747475 25.727753
v 36.234943 -21.828194 25.501160
v 35.367039 -21.829941 25.978218
v 36.340572 -21.909790 25.775688
v 35.528851 -21.912403 26.228683
v 36.439510 -21.984612 26.118652
v 34.822994 -21.914429 26.825630
v 34.609695 -21.831291 26.611092
v 34.236580 -21.915020 27.549179
v 33.983868 -21.831684 27.380241
v 33.795086 -21.914883 28.371574
v 33.514484 -21.831589 28.255234
v 33.523968 -21.914715 29.265045
v 34.139805 -21.990425 28.480972
v 33.226475 -21.831478 29.205704
v 33.431011 -21.914616 30.194054
v 33.127823 -21.831409 30.193909
v 33.523987 -21.914680 31.123108
v 33.226490 -21.831451 31.182121
v 33.795109 -21.914810 32.016586
v 33.514500 -21.831543 32.132599
v 34.236568 -21.914928 32.838875
v 34.139832 -21.990334 31.907745
v 33.983864 -21.831619 33.007545
v 34.823555 -21.914391 33.562225
v 34.610073 -21.831261 33.776543
v 35.531242 -21.912552 34.158859
v 35.368637 -21.830032 34.409203
v 36.344208 -21.910145 34.611092
v 36.237362 -21.828426 34.885742
v 37.247028 -21.907909 34.901237
v 37.194073 -21.826942 35.186440
v 37.294674 -21.983822 34.529015
v 38.194771 -21.906834 35.005798
v 39.142521 -21.907906 34.901260
v 38.194771 -21.983303 34.624191
v 38.194771 -21.826221 35.292816
v 39.195473 -21.826942 35.186447
v 38.194771 -21.745609 35.579857
v 38.194771 -21.623749 35.795128
v 39.248425 -21.745968 35.471626
v 37.141121 -21.745968 35.471626
v 36.130520 -21.746712 35.160385
v 37.101406 -21.623840 35.685524
v 36.050392 -21.624027 35.366371
v 35.084080 -21.624226 34.847275
v 34.236485 -21.624382 34.151611
v 35.043430 -21.419407 34.909866
v 35.206032 -21.747513 34.659531
v 34.396595 -21.748127 33.990875
v 33.731159 -21.748310 33.176216
v 33.541630 -21.624428 33.302704
v 33.233894 -21.748268 32.248611
v 33.023441 -21.624416 32.335625
v 32.928989 -21.748222 31.241127
v 32.705868 -21.624405 31.285393
v 32.824623 -21.748203 30.193726
v 32.597229 -21.624397 30.193604
v 32.928986 -21.748238 29.146355
v 32.705864 -21.624409 29.101837
v 33.233887 -21.748295 28.138916
v 33.023441 -21.624428 28.051659
v 33.731159 -21.748348 27.211288
v 33.541622 -21.624451 27.084564
v 34.396404 -21.748158 26.396545
v 34.236431 -21.624405 26.235619
v 35.083874 -21.624229 25.539894
v 33.478451 -21.419418 27.042297
v 32.631493 -21.419407 31.300148
v 39.288139 -21.623840 35.685524
v 40.259026 -21.746712 35.160393
v 40.339157 -21.624027 35.366371
v 41.183514 -21.747509 34.659561
v 40.152180 -21.828426 34.885757
v 41.020912 -21.830025 34.409264
v 40.045341 -21.910141 34.611130
v 40.858307 -21.912537 34.158981
v 41.565990 -21.914371 33.562386
v 41.779472 -21.831249 33.776657
v 42.152977 -21.914917 32.839012
v 41.342381 -21.987545 33.337708
v 42.405685 -21.831612 33.007637
v 42.594444 -21.914803 32.016693
v 42.875046 -21.831535 32.132683
v 42.865555 -21.914673 31.123230
v 43.163055 -21.831448 31.182205
v 43.460552 -21.748222 31.241180
v 43.683678 -21.624405 31.285408
v 43.155647 -21.748268 32.248672
v 43.366100 -21.624413 32.335655
v 42.658390 -21.748306 33.176270
v 42.847916 -21.624428 33.302750
v 41.992954 -21.748123 33.990913
v 42.153057 -21.624378 34.151634
v 41.305466 -21.624226 34.847275
v 42.911095 -21.419407 33.344902
v 39.301380 -21.419407 35.756828
v 37.088165 -21.419407 24.630257
v 41.046227 -22.085560 27.970757
v 40.555115 -22.137638 28.642464
v 39.832226 -22.164703 28.624878
v 39.032673 -22.176052 28.615395
v 39.846951 -22.181572 29.402260
v 39.034645 -22.197227 29.403122
v 39.852589 -22.187038 30.195045
v 39.035416 -22.206047 30.195122
v 39.846928 -22.181946 30.988129
v 39.034626 -22.198925 30.987473
v 39.832096 -22.165192 31.766632
v 39.032581 -22.178413 31.778069
v 40.555031 -22.137520 31.748146
v 39.810230 -22.135696 32.515663
v 38.194771 -22.203892 30.987038
v 38.194771 -22.212399 30.195374
v 37.354912 -22.198917 30.987968
v 37.354122 -22.206047 30.195831
v 36.542606 -22.181938 30.988922
v 36.536938 -22.187038 30.196205
v 35.766705 -22.155422 30.196205
v 36.542599 -22.181591 29.403481
v 36.557335 -22.164738 28.625938
v 37.354908 -22.197239 29.403862
v 37.356892 -22.176075 28.616028
v 38.194778 -22.201321 29.404015
v 38.194782 -22.177803 28.612854
v 38.194778 -22.149014 27.821770
v 42.570412 -21.991978 30.194427
v 43.758053 -18.206409 31.300148
v 43.758057 -16.722702 31.300148
v 43.436253 -16.722702 32.364639
v 43.436260 -15.238996 32.364639
v 42.911095 -16.722702 33.344887
v 42.911095 -15.238996 33.344887
v 42.206429 -16.722702 34.205185
v 42.206429 -15.238996 34.205185
v 41.346119 -16.722702 34.909866
v 41.346119 -15.238996 34.909866
v 40.365868 -16.722702 35.435036
v 41.346119 -18.206409 34.909866
v 40.365868 -15.238996 35.435036
v 39.301380 -16.722702 35.756828
v 39.301380 -15.238996 35.756828
v 38.194771 -16.722702 35.866890
v 38.194771 -15.238996 35.866882
v 37.088165 -16.722702 35.756828
v 37.088165 -15.238996 35.756828
v 36.023682 -16.722702 35.435036
v 37.088165 -18.206409 35.756828
v 36.023682 -15.238996 35.435036
v 35.043430 -16.722702 34.909866
v 35.043430 -15.238996 34.909866
v 34.183117 -16.722702 34.205185
v 34.183117 -15.238996 34.205185
v 33.478455 -16.722702 33.344887
v 33.478455 -15.238996 33.344887
v 32.953293 -16.722702 32.364639
v 33.478455 -18.206406 33.344887
v 32.953293 -15.238996 32.364639
v 32.631493 -16.722702 31.300148
v 32.631489 -15.238996 31.300148
v 32.521431 -16.722702 30.193542
v 32.521431 -15.238996 30.193542
v 32.631489 -16.722702 29.086945
v 32.631489 -15.238996 29.086937
v 32.953289 -16.722702 28.022469
v 32.631489 -18.206406 29.086952
v 32.953289 -15.238996 28.022446
v 33.478451 -16.722702 27.042221
v 33.478451 -15.238996 27.042198
v 34.183113 -16.722706 26.181900
v 34.183113 -15.238996 26.181885
v 35.043423 -16.722706 25.477226
v 35.043427 -15.238996 25.477219
v 36.023682 -16.722702 24.952057
v 35.043423 -18.206409 25.477242
v 36.023682 -15.238996 24.952057
v 37.088165 -16.722702 24.630257
v 37.088165 -15.238996 24.630257
v 38.194771 -16.722702 24.520203
v 38.194771 -15.238996 24.520203
v 39.301380 -16.722702 24.630257
v 39.301380 -15.238996 24.630257
v 40.365871 -16.722702 24.952057
v 39.301380 -18.206406 24.630257
v 40.365871 -15.238996 24.952057
v 41.346127 -16.722702 25.477219
v 41.346127 -15.238996 25.477219
v 42.206432 -16.722702 26.181885
v 42.206432 -15.238996 26.181885
v 42.911098 -16.722702 27.042198
v 42.911098 -15.238996 27.042198
v 42.911098 -18.206406 27.042198
vn 1.0000 -0.0000 -0.0000
vn 0.9808 -0.0000 0.1951
vn 0.9808 -0.0000 -0.1951
vn 0.9239 -0.0000 -0.3827
vn 0.8315 -0.0000 -0.5556
vn 0.9097 -0.1745 -0.3768
vn 0.8187 -0.1745 -0.5470
vn 0.7071 -0.0000 -0.7071
vn 0.6965 -0.1735 -0.6963
vn 0.5556 -0.0000 -0.8315
vn 0.3827 -0.0000 -0.9239
vn 0.1951 -0.0000 -0.9808
vn 0.3771 -0.1698 -0.9105
vn 0.1924 -0.1678 -0.9669
vn -0.0000 -0.0000 -1.0000
vn -0.0000 -0.1668 -0.9860
vn -0.1951 -0.0000 -0.9808
vn -0.3827 -0.0000 -0.9239
vn -0.5556 -0.0000 -0.8315
vn -0.3771 -0.1698 -0.9105
vn -0.5474 -0.1718 -0.8191
vn -0.7071 -0.0000 -0.7071
vn -0.6965 -0.1736 -0.6963
vn -0.8315 -0.0000 -0.5556
vn -0.9239 -0.0000 -0.3827
vn -0.9808 -0.0000 -0.1951
vn -0.9097 -0.1746 -0.3768
vn -0.9657 -0.1744 -0.1921
vn -1.0000 -0.0000 -0.0000
vn -0.9847 -0.1743 -0.0000
vn -0.9808 -0.0000 0.1951
vn -0.9239 -0.0000 0.3827
vn -0.8315 -0.0000 0.5556
vn -0.9097 -0.1745 0.3768
vn -0.8187 -0.1744 0.5470
vn -0.7071 -0.0000 0.7071
vn -0.6964 -0.1736 0.6963
vn -0.5556 -0.0000 0.8315
vn -0.3827 -0.0000 0.9239
vn -0.1951 -0.0000 0.9808
vn -0.3771 -0.1700 0.9104
vn -0.1924 -0.1681 0.9668
vn -0.0000 -0.0000 1.0000
vn -0.0000 -0.1672 0.9859
vn 0.1951 -0.0000 0.9808
vn 0.3827 -0.0000 0.9239
vn 0.5556 -0.0000 0.8315
vn 0.3771 -0.1700 0.9104
vn 0.5474 -0.1719 0.8190
vn 0.7071 -0.0000 0.7071
vn 0.6964 -0.1735 0.6963
vn 0.8315 -0.0000 0.5556
vn 0.9239 -0.0000 0.3827
vn 0.9097 -0.1745 0.3768
vn 0.9658 -0.1744 0.1921
vn 0.9847 -0.1743 -0.0000
vn 0.7654 -0.6436 -0.0000
vn 0.9658 -0.1744 -0.1921
vn 0.7504 -0.6438 -0.1493
vn 0.7068 -0.6439 -0.2928
vn 0.3726 -0.9250 -0.0741
vn 0.3508 -0.9251 -0.1454
vn 0.3800 -0.9250 -0.0000
vn 0.2595 -0.9644 -0.0517
vn 0.2646 -0.9644 -0.0000
vn 0.2443 -0.9644 -0.1012
vn 0.2293 -0.9723 -0.0451
vn 0.2326 -0.9726 -0.0000
vn 0.1583 -0.9869 -0.0308
vn 0.2193 -0.9715 -0.0899
vn 0.2018 -0.9703 -0.1334
vn 0.1566 -0.9857 -0.0628
vn 0.1513 -0.9836 -0.0979
vn 0.1002 -0.9942 -0.0390
vn 0.0995 -0.9931 -0.0625
vn 0.0701 -0.9971 -0.0296
vn 0.0997 -0.9948 -0.0195
vn 0.0998 -0.9950 -0.0000
vn 0.0709 -0.9974 -0.0153
vn 0.0504 -0.9986 -0.0142
vn 0.0710 -0.9975 -0.0000
vn 0.0508 -0.9987 -0.0000
vn 0.0709 -0.9974 0.0153
vn 0.0506 -0.9986 0.0141
vn 0.0701 -0.9971 0.0297
vn 0.0998 -0.9948 0.0196
vn 0.1583 -0.9869 0.0308
vn 0.1003 -0.9942 0.0391
vn 0.1567 -0.9857 0.0628
vn 0.0996 -0.9931 0.0626
vn 0.1514 -0.9836 0.0980
vn 0.0883 -0.9922 0.0877
vn 0.0676 -0.9966 0.0466
vn 0.0457 -0.9979 0.0460
vn 0.0633 -0.9960 0.0627
vn 0.0464 -0.9966 0.0674
vn 0.0286 -0.9972 0.0695
vn 0.0634 -0.9929 0.1004
vn 0.0998 -0.9833 0.1520
vn 0.0392 -0.9941 0.1015
vn 0.0641 -0.9854 0.1580
vn 0.0197 -0.9947 0.1008
vn 0.0319 -0.9867 0.1597
vn -0.0000 -0.9949 0.1008
vn 0.0144 -0.9975 0.0692
vn 0.0117 -0.9988 0.0483
vn -0.0000 -0.9976 0.0688
vn -0.0144 -0.9975 0.0692
vn -0.0000 -0.9989 0.0477
vn -0.0000 -0.9995 0.0331
vn -0.0117 -0.9988 0.0483
vn -0.0113 -0.9994 0.0325
vn -0.0265 -0.9985 0.0482
vn -0.0282 -0.9991 0.0308
vn -0.0457 -0.9979 0.0460
vn -0.0286 -0.9972 0.0695
vn -0.0464 -0.9966 0.0674
vn -0.0392 -0.9941 0.1015
vn -0.0641 -0.9854 0.1580
vn -0.0197 -0.9947 0.1008
vn -0.0634 -0.9929 0.1004
vn -0.0998 -0.9833 0.1520
vn -0.0883 -0.9922 0.0877
vn -0.1332 -0.9823 0.1320
vn -0.0633 -0.9960 0.0627
vn -0.0996 -0.9931 0.0626
vn -0.1514 -0.9836 0.0980
vn -0.1003 -0.9942 0.0391
vn -0.0676 -0.9966 0.0466
vn -0.0701 -0.9971 0.0297
vn -0.0489 -0.9984 0.0288
vn -0.0709 -0.9974 0.0153
vn -0.0506 -0.9986 0.0141
vn -0.0710 -0.9975 -0.0000
vn -0.0998 -0.9948 0.0196
vn -0.1583 -0.9869 0.0308
vn -0.0998 -0.9950 -0.0000
vn -0.1590 -0.9873 -0.0000
vn -0.0997 -0.9948 -0.0195
vn -0.1583 -0.9869 -0.0308
vn -0.1002 -0.9942 -0.0390
vn -0.0709 -0.9974 -0.0153
vn -0.0504 -0.9986 -0.0141
vn -0.0701 -0.9971 -0.0296
vn -0.0485 -0.9984 -0.0287
vn -0.0675 -0.9966 -0.0465
vn -0.0454 -0.9979 -0.0458
vn -0.0632 -0.9960 -0.0627
vn -0.0995 -0.9931 -0.0625
vn -0.1513 -0.9836 -0.0979
vn -0.0882 -0.9923 -0.0875
vn -0.1331 -0.9823 -0.1318
vn -0.0632 -0.9929 -0.1003
vn -0.0997 -0.9834 -0.1518
vn -0.0389 -0.9941 -0.1013
vn -0.0462 -0.9967 -0.0673
vn -0.0280 -0.9972 -0.0690
vn -0.0255 -0.9985 -0.0476
vn -0.0138 -0.9976 -0.0681
vn -0.0105 -0.9989 -0.0468
vn -0.0000 -0.9977 -0.0673
vn -0.0194 -0.9948 -0.1001
vn -0.0317 -0.9868 -0.1589
vn -0.0000 -0.9950 -0.0999
vn -0.0000 -0.9872 -0.1595
vn 0.0194 -0.9948 -0.1002
vn 0.0317 -0.9868 -0.1589
vn 0.0389 -0.9941 -0.1013
vn 0.0138 -0.9976 -0.0681
vn 0.0105 -0.9989 -0.0468
vn 0.0280 -0.9972 -0.0690
vn 0.0255 -0.9985 -0.0476
vn 0.0462 -0.9967 -0.0673
vn 0.0454 -0.9979 -0.0458
vn 0.0632 -0.9960 -0.0627
vn 0.0632 -0.9929 -0.1003
vn 0.0997 -0.9834 -0.1518
vn 0.0882 -0.9922 -0.0876
vn 0.1331 -0.9823 -0.1318
vn 0.1741 -0.9695 -0.1725
vn 0.1882 -0.9642 -0.1870
vn 0.1358 -0.9699 -0.2021
vn 0.1490 -0.9638 -0.2210
vn 0.0921 -0.9710 -0.2207
vn 0.1036 -0.9635 -0.2467
vn 0.0471 -0.9717 -0.2313
vn 0.0639 -0.9854 -0.1576
vn 0.0538 -0.9632 -0.2634
vn -0.0000 -0.9719 -0.2353
vn -0.0471 -0.9717 -0.2313
vn -0.0000 -0.9630 -0.2695
vn -0.0538 -0.9632 -0.2635
vn -0.0000 -0.9209 -0.3899
vn -0.0000 -0.6318 -0.7751
vn -0.0768 -0.9215 -0.3807
vn 0.0768 -0.9215 -0.3807
vn 0.1487 -0.9226 -0.3560
vn 0.1515 -0.6336 -0.7587
vn 0.2958 -0.6366 -0.7122
vn 0.4275 -0.6398 -0.6387
vn 0.5422 -0.6424 -0.5416
vn 0.5474 -0.1718 -0.8191
vn 0.2138 -0.9236 -0.3182
vn 0.2699 -0.9245 -0.2691
vn 0.3159 -0.9251 -0.2109
vn 0.6362 -0.6440 -0.4250
vn 0.2201 -0.9644 -0.1469
vn -0.1516 -0.6336 -0.7587
vn -0.1487 -0.9226 -0.3560
vn -0.2958 -0.6365 -0.7123
vn -0.2138 -0.9236 -0.3182
vn -0.1037 -0.9635 -0.2467
vn -0.1491 -0.9638 -0.2210
vn -0.0921 -0.9710 -0.2207
vn -0.1358 -0.9699 -0.2021
vn -0.0638 -0.9854 -0.1576
vn -0.1741 -0.9695 -0.1725
vn -0.1882 -0.9642 -0.1870
vn -0.2018 -0.9703 -0.1334
vn -0.2201 -0.9644 -0.1468
vn -0.2193 -0.9715 -0.0899
vn -0.2443 -0.9644 -0.1013
vn -0.2293 -0.9723 -0.0451
vn -0.1566 -0.9857 -0.0628
vn -0.2595 -0.9644 -0.0517
vn -0.2326 -0.9726 -0.0000
vn -0.2646 -0.9644 -0.0000
vn -0.2293 -0.9723 0.0452
vn -0.2595 -0.9644 0.0517
vn -0.2193 -0.9715 0.0899
vn -0.2443 -0.9644 0.1013
vn -0.2018 -0.9703 0.1335
vn -0.1567 -0.9857 0.0628
vn -0.2201 -0.9643 0.1469
vn -0.1740 -0.9695 0.1726
vn -0.1881 -0.9642 0.1871
vn -0.1357 -0.9699 0.2022
vn -0.1489 -0.9638 0.2210
vn -0.0921 -0.9709 0.2209
vn -0.1035 -0.9636 0.2466
vn -0.0471 -0.9716 0.2317
vn -0.0536 -0.9632 0.2633
vn -0.0319 -0.9867 0.1597
vn -0.0000 -0.9718 0.2357
vn 0.0471 -0.9716 0.2317
vn -0.0000 -0.9870 0.1605
vn -0.0000 -0.9630 0.2694
vn 0.0536 -0.9632 0.2633
vn -0.0000 -0.9210 0.3895
vn -0.0000 -0.6324 0.7746
vn 0.0766 -0.9217 0.3803
vn -0.0766 -0.9217 0.3803
vn -0.1485 -0.9227 0.3558
vn -0.1514 -0.6341 0.7583
vn -0.2956 -0.6369 0.7120
vn -0.4274 -0.6400 0.6386
vn -0.5422 -0.6424 0.5416
vn -0.5474 -0.1719 0.8190
vn -0.2136 -0.9237 0.3181
vn -0.2698 -0.9245 0.2691
vn -0.3159 -0.9250 0.2110
vn -0.6362 -0.6439 0.4250
vn -0.3509 -0.9251 0.1454
vn -0.7069 -0.6438 0.2928
vn -0.3726 -0.9250 0.0742
vn -0.7505 -0.6438 0.1493
vn -0.3801 -0.9250 -0.0000
vn -0.7654 -0.6436 -0.0000
vn -0.3726 -0.9250 -0.0741
vn -0.7504 -0.6439 -0.1493
vn -0.3508 -0.9251 -0.1454
vn -0.7068 -0.6439 -0.2928
vn -0.3158 -0.9251 -0.2109
vn -0.6362 -0.6440 -0.4250
vn -0.2699 -0.9245 -0.2690
vn -0.5422 -0.6424 -0.5416
vn -0.4275 -0.6398 -0.6387
vn -0.8187 -0.1745 -0.5470
vn -0.9658 -0.1744 0.1921
vn 0.1514 -0.6341 0.7583
vn 0.1485 -0.9227 0.3558
vn 0.2956 -0.6369 0.7120
vn 0.2136 -0.9237 0.3181
vn 0.1035 -0.9636 0.2467
vn 0.1489 -0.9638 0.2210
vn 0.0921 -0.9709 0.2209
vn 0.1357 -0.9699 0.2022
vn 0.1740 -0.9695 0.1726
vn 0.1881 -0.9642 0.1871
vn 0.2018 -0.9703 0.1335
vn 0.1332 -0.9823 0.1320
vn 0.2201 -0.9643 0.1469
vn 0.2193 -0.9715 0.0899
vn 0.2443 -0.9644 0.1013
vn 0.2293 -0.9723 0.0452
vn 0.2595 -0.9644 0.0517
vn 0.3726 -0.9250 0.0742
vn 0.7505 -0.6438 0.1493
vn 0.3509 -0.9251 0.1454
vn 0.7069 -0.6438 0.2929
vn 0.3159 -0.9250 0.2110
vn 0.6363 -0.6438 0.4250
vn 0.2698 -0.9245 0.2691
vn 0.5422 -0.6424 0.5417
vn 0.4274 -0.6400 0.6386
vn 0.8187 -0.1744 0.5470
vn 0.1924 -0.1681 0.9668
vn -0.1924 -0.1678 -0.9669
vn 0.0675 -0.9966 -0.0465
vn 0.0485 -0.9984 -0.0287
vn 0.0268 -0.9992 -0.0306
vn 0.0097 -0.9994 -0.0323
vn 0.0296 -0.9994 -0.0154
vn 0.0120 -0.9998 -0.0186
vn 0.0313 -0.9995 -0.0004
vn 0.0141 -0.9999 -0.0010
vn 0.0305 -0.9994 0.0149
vn 0.0131 -0.9998 0.0172
vn 0.0282 -0.9991 0.0308
vn 0.0113 -0.9994 0.0325
vn 0.0489 -0.9984 0.0288
vn 0.0265 -0.9985 0.0482
vn -0.0000 -0.9998 0.0185
vn -0.0000 -1.0000 -0.0013
vn -0.0131 -0.9998 0.0172
vn -0.0141 -0.9999 -0.0010
vn -0.0305 -0.9994 0.0149
vn -0.0313 -0.9995 -0.0004
vn -0.0508 -0.9987 -0.0000
vn -0.0296 -0.9994 -0.0154
vn -0.0268 -0.9992 -0.0306
vn -0.0120 -0.9998 -0.0186
vn -0.0097 -0.9994 -0.0323
vn -0.0000 -0.9998 -0.0204
vn -0.0000 -0.9995 -0.0328
vn -0.0000 -0.9990 -0.0456
vn 0.1590 -0.9873 -0.0000
vt 0.904604 0.771592
vt 0.908543 0.771583
vt 0.908554 0.776836
vt 0.904616 0.776845
vt 0.900664 0.771602
vt 0.900678 0.776855
vt 0.896725 0.771613
vt 0.896740 0.776866
vt 0.900693 0.782108
vt 0.896756 0.782119
vt 0.904629 0.782098
vt 0.904642 0.787351
vt 0.900707 0.787361
vt 0.896772 0.787372
vt 0.904652 0.791508
vt 0.900718 0.791518
vt 0.896784 0.791529
vt 0.892837 0.787384
vt 0.892819 0.782131
vt 0.892851 0.791541
vt 0.896790 0.793494
vt 0.900724 0.793483
vt 0.892857 0.793507
vt 0.888924 0.793519
vt 0.888917 0.791554
vt 0.888902 0.787397
vt 0.884991 0.793534
vt 0.884984 0.791568
vt 0.884966 0.787412
vt 0.888883 0.782145
vt 0.884946 0.782160
vt 0.881030 0.787428
vt 0.881008 0.782176
vt 0.881050 0.791584
vt 0.877093 0.787447
vt 0.877071 0.782193
vt 0.877116 0.791603
vt 0.881060 0.793549
vt 0.877131 0.793566
vt 0.873197 0.793604
vt 0.873180 0.791633
vt 0.873156 0.787469
vt 0.999071 0.791579
vt 0.999055 0.793550
vt 0.995124 0.793515
vt 0.995136 0.791552
vt 0.999092 0.787414
vt 0.995155 0.787396
vt 0.873134 0.782211
vt 0.999111 0.782156
vt 0.995173 0.782142
vt 0.991218 0.787381
vt 0.991235 0.782128
vt 0.991202 0.791536
vt 0.987282 0.787368
vt 0.987298 0.782116
vt 0.987269 0.791525
vt 0.991194 0.793501
vt 0.987262 0.793490
vt 0.983330 0.793479
vt 0.983335 0.791514
vt 0.983346 0.787357
vt 0.979397 0.793470
vt 0.979401 0.791505
vt 0.979411 0.787348
vt 0.983361 0.782105
vt 0.979424 0.782095
vt 0.975476 0.787339
vt 0.975487 0.782086
vt 0.975467 0.791496
vt 0.971541 0.787332
vt 0.971551 0.782079
vt 0.971533 0.791489
vt 0.975463 0.793461
vt 0.971530 0.793454
vt 0.967596 0.793447
vt 0.967599 0.791482
vt 0.967606 0.787325
vt 0.963663 0.793442
vt 0.963665 0.791476
vt 0.963671 0.787319
vt 0.967614 0.782072
vt 0.963678 0.782066
vt 0.959736 0.787315
vt 0.959741 0.782062
vt 0.959731 0.791472
vt 0.955800 0.787311
vt 0.955805 0.782058
vt 0.955797 0.791468
vt 0.959729 0.793437
vt 0.955796 0.793434
vt 0.951862 0.793431
vt 0.951863 0.791466
vt 0.951865 0.787308
vt 0.947928 0.793430
vt 0.947929 0.791464
vt 0.947930 0.787307
vt 0.951868 0.782055
vt 0.947932 0.782054
vt 0.943995 0.787306
vt 0.943995 0.782053
vt 0.943994 0.791463
vt 0.940059 0.787307
vt 0.940058 0.782053
vt 0.940060 0.791464
vt 0.943994 0.793429
vt 0.940060 0.793429
vt 0.936126 0.793430
vt 0.936126 0.791465
vt 0.936124 0.787308
vt 0.932192 0.793432
vt 0.932191 0.791467
vt 0.932189 0.787310
vt 0.936122 0.782054
vt 0.932185 0.782056
vt 0.928253 0.787312
vt 0.928249 0.782059
vt 0.928257 0.791470
vt 0.924318 0.787316
vt 0.924312 0.782063
vt 0.924323 0.791473
vt 0.928258 0.793435
vt 0.924325 0.793439
vt 0.920391 0.793443
vt 0.920388 0.791478
vt 0.920383 0.787321
vt 0.916458 0.793450
vt 0.916454 0.791484
vt 0.916448 0.787327
vt 0.920376 0.782068
vt 0.916439 0.782074
vt 0.912512 0.787334
vt 0.912502 0.782081
vt 0.912520 0.791491
vt 0.908577 0.787342
vt 0.908566 0.782089
vt 0.908586 0.791499
vt 0.912524 0.793456
vt 0.908590 0.793464
vt 0.904657 0.793473
vt 0.904659 0.794247
vt 0.900726 0.794257
vt 0.908593 0.794238
vt 0.896793 0.794268
vt 0.911652 0.305449
vt 0.912787 0.309210
vt 0.911887 0.309388
vt 0.910803 0.305800
vt 0.913174 0.313118
vt 0.912257 0.313118
vt 0.910796 0.309606
vt 0.909773 0.306226
vt 0.911145 0.313119
vt 0.910032 0.313119
vt 0.909704 0.309823
vt 0.908744 0.306653
vt 0.908632 0.313120
vt 0.908342 0.310020
vt 0.907498 0.307049
vt 0.907179 0.303734
vt 0.908107 0.303115
vt 0.906131 0.304336
vt 0.905813 0.307391
vt 0.904836 0.304907
vt 0.906429 0.310179
vt 0.903777 0.307608
vt 0.903223 0.305252
vt 0.904140 0.310284
vt 0.906646 0.313120
vt 0.904273 0.313121
vt 0.901482 0.307629
vt 0.901654 0.310317
vt 0.901720 0.313120
vt 0.904138 0.315957
vt 0.901653 0.315923
vt 0.906427 0.316061
vt 0.903773 0.318633
vt 0.901479 0.318612
vt 0.905810 0.318849
vt 0.908340 0.316219
vt 0.907495 0.319189
vt 0.906126 0.321901
vt 0.904831 0.321331
vt 0.903219 0.320989
vt 0.904279 0.324252
vt 0.903407 0.323374
vt 0.902614 0.322550
vt 0.901223 0.321072
vt 0.901132 0.323187
vt 0.901456 0.324843
vt 0.898846 0.323758
vt 0.898844 0.321326
vt 0.899030 0.325855
vt 0.902001 0.326141
vt 0.899333 0.327552
vt 0.896318 0.328472
vt 0.896184 0.326526
vt 0.896102 0.324144
vt 0.893129 0.328808
vt 0.893130 0.326775
vt 0.893130 0.324291
vt 0.896083 0.321499
vt 0.893131 0.321565
vt 0.890158 0.324142
vt 0.890075 0.326523
vt 0.890179 0.321497
vt 0.893132 0.318729
vt 0.896094 0.318715
vt 0.890170 0.318714
vt 0.887343 0.318674
vt 0.887418 0.321323
vt 0.887415 0.323754
vt 0.884785 0.318608
vt 0.885040 0.321067
vt 0.885129 0.323181
vt 0.887230 0.325851
vt 0.884805 0.324837
vt 0.886926 0.327548
vt 0.884258 0.326135
vt 0.889940 0.328469
vt 0.881981 0.324245
vt 0.882854 0.323367
vt 0.883648 0.322544
vt 0.880136 0.321893
vt 0.881431 0.321324
vt 0.883044 0.320982
vt 0.878768 0.319180
vt 0.880454 0.318841
vt 0.882490 0.318627
vt 0.882127 0.315952
vt 0.884612 0.315921
vt 0.879838 0.316054
vt 0.881994 0.313117
vt 0.884547 0.313119
vt 0.879621 0.313114
vt 0.877925 0.316209
vt 0.877634 0.313111
vt 0.877927 0.310012
vt 0.879840 0.310174
vt 0.882129 0.310281
vt 0.878772 0.307042
vt 0.880457 0.307385
vt 0.882493 0.307605
vt 0.884614 0.310317
vt 0.884788 0.307629
vt 0.883048 0.305248
vt 0.885043 0.305169
vt 0.881436 0.304902
vt 0.883652 0.303686
vt 0.885132 0.303051
vt 0.882858 0.302859
vt 0.880141 0.304329
vt 0.881985 0.301977
vt 0.884257 0.300088
vt 0.884805 0.301390
vt 0.886920 0.298675
vt 0.887227 0.300386
vt 0.887417 0.302494
vt 0.887422 0.304924
vt 0.890162 0.302142
vt 0.890183 0.304775
vt 0.890076 0.299735
vt 0.893137 0.302018
vt 0.893136 0.304724
vt 0.893137 0.299499
vt 0.889940 0.297756
vt 0.893138 0.297420
vt 0.896336 0.297758
vt 0.896199 0.299737
vt 0.896111 0.302143
vt 0.899355 0.298680
vt 0.899047 0.300389
vt 0.898856 0.302496
vt 0.896089 0.304775
vt 0.898850 0.304925
vt 0.901141 0.303054
vt 0.901228 0.305171
vt 0.901469 0.301395
vt 0.902620 0.303690
vt 0.903415 0.302864
vt 0.902018 0.300093
vt 0.904288 0.301983
vt 0.905100 0.301167
vt 0.902596 0.299048
vt 0.905883 0.300380
vt 0.903191 0.298129
vt 0.899716 0.297441
vt 0.900105 0.296433
vt 0.896509 0.296406
vt 0.896702 0.295360
vt 0.893139 0.296030
vt 0.893139 0.294979
vt 0.889576 0.295358
vt 0.889768 0.296403
vt 0.889384 0.294312
vt 0.893139 0.293928
vt 0.896894 0.294315
vt 0.893139 0.293055
vt 0.897054 0.293447
vt 0.889224 0.293445
vt 0.900494 0.295425
vt 0.900818 0.294592
vt 0.881070 0.794318
vt 0.877141 0.794334
vt 0.873231 0.794371
vt 0.884999 0.794305
vt 0.904278 0.296451
vt 0.903785 0.297210
vt 0.907313 0.298943
vt 0.906666 0.299592
vt 0.888928 0.794293
vt 0.909034 0.302495
vt 0.909799 0.301985
vt 0.892860 0.794281
vt 0.885460 0.294587
vt 0.885783 0.295420
vt 0.886171 0.296429
vt 0.881999 0.296444
vt 0.882491 0.297203
vt 0.883085 0.298123
vt 0.886560 0.297437
vt 0.883679 0.299042
vt 0.881174 0.301159
vt 0.880391 0.300372
vt 0.879093 0.303726
vt 0.878166 0.303107
vt 0.877527 0.306644
vt 0.876498 0.306217
vt 0.876565 0.309814
vt 0.875473 0.309596
vt 0.876235 0.313109
vt 0.875122 0.313108
vt 0.876563 0.316405
vt 0.875471 0.316621
vt 0.877523 0.319575
vt 0.876494 0.320000
vt 0.879087 0.322493
vt 0.878160 0.323112
vt 0.881169 0.325060
vt 0.880386 0.325846
vt 0.883679 0.327178
vt 0.883082 0.328096
vt 0.886564 0.328783
vt 0.886170 0.329791
vt 0.889766 0.329812
vt 0.889571 0.330860
vt 0.893128 0.330184
vt 0.893128 0.331239
vt 0.896685 0.330862
vt 0.896491 0.329815
vt 0.896880 0.331910
vt 0.893128 0.332293
vt 0.889376 0.331908
vt 0.893127 0.333168
vt 0.889213 0.332776
vt 0.897042 0.332779
vt 0.885777 0.330799
vt 0.885450 0.331633
vt 0.944000 0.794198
vt 0.940064 0.794197
vt 0.936127 0.794197
vt 0.947932 0.794201
vt 0.881990 0.329774
vt 0.882484 0.329015
vt 0.878954 0.327282
vt 0.879601 0.326633
vt 0.951862 0.794204
vt 0.877232 0.323730
vt 0.876468 0.324239
vt 0.874615 0.320776
vt 0.875464 0.320425
vt 0.873480 0.317015
vt 0.874379 0.316837
vt 0.873092 0.313106
vt 0.874009 0.313107
vt 0.873482 0.309198
vt 0.874382 0.309378
vt 0.874620 0.305438
vt 0.875468 0.305790
vt 0.876475 0.301975
vt 0.877239 0.302486
vt 0.878963 0.298935
vt 0.879608 0.299584
vt 0.983327 0.794253
vt 0.979395 0.794244
vt 0.987256 0.794261
vt 0.991185 0.794270
vt 0.975462 0.794235
vt 0.971528 0.794228
vt 0.967595 0.794221
vt 0.963662 0.794216
vt 0.959728 0.794211
vt 0.955795 0.794208
vt 0.900806 0.331637
vt 0.900479 0.330804
vt 0.900087 0.329795
vt 0.904267 0.329780
vt 0.903773 0.329022
vt 0.903176 0.328103
vt 0.899694 0.328787
vt 0.902579 0.327184
vt 0.905091 0.325068
vt 0.905875 0.325855
vt 0.907174 0.322502
vt 0.908101 0.323121
vt 0.908740 0.319584
vt 0.909769 0.320010
vt 0.909702 0.316415
vt 0.910793 0.316631
vt 0.911885 0.316848
vt 0.910799 0.320436
vt 0.912785 0.317027
vt 0.911647 0.320787
vt 0.909792 0.324250
vt 0.909028 0.323740
vt 0.907304 0.327290
vt 0.906658 0.326641
vt 0.920392 0.794217
vt 0.916459 0.794223
vt 0.924322 0.794210
vt 0.928253 0.794205
vt 0.912526 0.794230
vt 0.932190 0.794200
vt 0.995114 0.794282
vt 0.999021 0.794316
vt 0.898924 0.307567
vt 0.898975 0.310316
vt 0.896097 0.307533
vt 0.896103 0.310319
vt 0.898994 0.313119
vt 0.896105 0.313118
vt 0.898973 0.315923
vt 0.896101 0.315920
vt 0.898921 0.318676
vt 0.893133 0.315917
vt 0.893133 0.313119
vt 0.890162 0.313119
vt 0.890164 0.315920
vt 0.887273 0.313120
vt 0.887292 0.315922
vt 0.887293 0.310317
vt 0.890165 0.310319
vt 0.887346 0.307568
vt 0.890173 0.307533
vt 0.893135 0.307523
vt 0.893134 0.310321
vt 0.912492 0.776828
vt 0.912483 0.771575
vt 0.916422 0.771568
vt 0.916430 0.776821
vt 0.920361 0.771562
vt 0.920368 0.776815
vt 0.924300 0.771557
vt 0.924306 0.776810
vt 0.928239 0.771553
vt 0.928244 0.776806
vt 0.932178 0.771550
vt 0.932182 0.776803
vt 0.936118 0.771548
vt 0.936120 0.776801
vt 0.940057 0.771547
vt 0.940058 0.776800
vt 0.943996 0.771547
vt 0.943995 0.776800
vt 0.947935 0.771548
vt 0.947933 0.776801
vt 0.951874 0.771549
vt 0.951871 0.776802
vt 0.955813 0.771552
vt 0.955809 0.776805
vt 0.959752 0.771556
vt 0.959747 0.776809
vt 0.963691 0.771560
vt 0.963685 0.776813
vt 0.967631 0.771566
vt 0.967622 0.776819
vt 0.971570 0.771572
vt 0.971560 0.776826
vt 0.975509 0.771580
vt 0.975498 0.776833
vt 0.979449 0.771589
vt 0.979436 0.776842
vt 0.983388 0.771599
vt 0.983374 0.776852
vt 0.987327 0.771611
vt 0.987312 0.776864
vt 0.991266 0.771623
vt 0.991250 0.776876
vt 0.995203 0.771635
vt 0.995188 0.776888
vt 0.999141 0.771647
vt 0.999125 0.776901
vt 0.873092 0.771702
vt 0.877030 0.771686
vt 0.877051 0.776940
vt 0.873113 0.776956
vt 0.880968 0.771670
vt 0.880988 0.776923
vt 0.884907 0.771654
vt 0.884926 0.776907
vt 0.888846 0.771639
vt 0.888864 0.776892
vt 0.892785 0.771626
vt 0.892802 0.776879
s 1
f 1/1/1 2/2/2 402/3/2 3/4/1
f 4/5/3 1/1/1 3/4/1 6/6/3
f 5/7/4 4/5/3 6/6/3 7/8/4
f 8/9/3 10/10/4 7/8/4 6/6/3
f 9/11/1 8/9/3 6/6/3 3/4/1
f 9/11/1 12/12/1 11/13/3 8/9/3
f 14/14/4 10/10/4 8/9/3 11/13/3
f 12/12/1 118/15/1 13/16/3 11/13/3
f 16/17/4 14/14/4 11/13/3 13/16/3
f 10/10/4 14/14/4 15/18/5 465/19/5
f 14/14/4 16/17/4 18/20/5 15/18/5
f 17/21/6 16/17/4 13/16/3 121/22/58
f 16/17/4 17/21/6 19/23/7 18/20/5
f 21/24/9 20/25/8 18/20/5 19/23/7
f 20/25/8 23/26/8 15/18/5 18/20/5
f 20/25/8 21/24/9 265/27/202 22/28/10
f 23/26/8 20/25/8 22/28/10 25/29/10
f 23/26/8 24/30/8 465/19/5 15/18/5
f 24/30/8 23/26/8 25/29/10 26/31/10
f 27/32/11 28/33/11 26/31/10 25/29/10
f 30/34/11 27/32/11 25/29/10 22/28/10
f 28/33/11 27/32/11 29/35/12 457/36/12
f 27/32/11 30/34/11 32/37/12 29/35/12
f 31/38/13 30/34/11 22/28/10 265/27/202
f 30/34/11 31/38/13 33/39/14 32/37/12
f 35/40/16 34/41/15 32/37/12 33/39/14
f 34/41/15 37/42/15 29/35/12 32/37/12
f 34/43/15 35/44/16 371/45/308 36/46/17
f 37/47/15 34/43/15 36/46/17 39/48/17
f 37/42/15 38/49/15 457/36/12 29/35/12
f 38/50/15 37/47/15 39/48/17 40/51/17
f 41/52/18 42/53/18 40/51/17 39/48/17
f 44/54/18 41/52/18 39/48/17 36/46/17
f 42/53/18 41/52/18 43/55/19 448/56/19
f 41/52/18 44/54/18 46/57/19 43/55/19
f 45/58/20 44/54/18 36/46/17 371/45/308
f 44/54/18 45/58/20 47/59/21 46/57/19
f 49/60/23 48/61/22 46/57/19 47/59/21
f 48/61/22 51/62/22 43/55/19 46/57/19
f 48/61/22 49/60/23 341/63/278 50/64/24
f 51/62/22 48/61/22 50/64/24 53/65/24
f 51/62/22 52/66/22 448/56/19 43/55/19
f 52/66/22 51/62/22 53/65/24 54/67/24
f 55/68/25 56/69/25 54/67/24 53/65/24
f 58/70/25 55/68/25 53/65/24 50/64/24
f 56/69/25 55/68/25 57/71/26 439/72/26
f 55/68/25 58/70/25 60/73/26 57/71/26
f 59/74/27 58/70/25 50/64/24 341/63/278
f 58/70/25 59/74/27 61/75/28 60/73/26
f 63/76/30 62/77/29 60/73/26 61/75/28
f 62/77/29 65/78/29 57/71/26 60/73/26
f 62/77/29 63/76/30 342/79/279 64/80/31
f 65/78/29 62/77/29 64/80/31 67/81/31
f 65/78/29 66/82/29 439/72/26 57/71/26
f 66/82/29 65/78/29 67/81/31 68/83/31
f 69/84/32 70/85/32 68/83/31 67/81/31
f 72/86/32 69/84/32 67/81/31 64/80/31
f 70/85/32 69/84/32 71/87/33 430/88/33
f 69/84/32 72/86/32 74/89/33 71/87/33
f 73/90/34 72/86/32 64/80/31 342/79/279
f 72/86/32 73/90/34 75/91/35 74/89/33
f 77/92/37 76/93/36 74/89/33 75/91/35
f 76/93/36 79/94/36 71/87/33 74/89/33
f 76/93/36 77/92/37 321/95/258 78/96/38
f 79/94/36 76/93/36 78/96/38 81/97/38
f 79/94/36 80/98/36 430/88/33 71/87/33
f 80/98/36 79/94/36 81/97/38 82/99/38
f 83/100/39 84/101/39 82/99/38 81/97/38
f 86/102/39 83/100/39 81/97/38 78/96/38
f 84/101/39 83/100/39 85/103/40 421/104/40
f 83/100/39 86/102/39 88/105/40 85/103/40
f 87/106/41 86/102/39 78/96/38 321/95/258
f 86/102/39 87/106/41 89/107/42 88/105/40
f 91/108/44 90/109/43 88/105/40 89/107/42
f 90/109/43 93/110/43 85/103/40 88/105/40
f 90/109/43 91/108/44 370/111/307 92/112/45
f 93/110/43 90/109/43 92/112/45 95/113/45
f 93/110/43 94/114/43 421/104/40 85/103/40
f 94/114/43 93/110/43 95/113/45 96/115/45
f 97/116/46 98/117/46 96/115/45 95/113/45
f 100/118/46 97/116/46 95/113/45 92/112/45
f 98/117/46 97/116/46 99/119/47 412/120/47
f 97/116/46 100/118/46 102/121/47 99/119/47
f 101/122/48 100/118/46 92/112/45 370/111/307
f 100/118/46 101/122/48 103/123/49 102/121/47
f 105/124/51 104/125/50 102/121/47 103/123/49
f 104/125/50 107/126/50 99/119/47 102/121/47
f 104/125/50 105/124/51 369/127/306 106/128/52
f 107/126/50 104/125/50 106/128/52 109/129/52
f 107/126/50 108/130/50 412/120/47 99/119/47
f 108/130/50 107/126/50 109/129/52 110/131/52
f 111/132/53 112/133/53 110/131/52 109/129/52
f 114/134/53 111/132/53 109/129/52 106/128/52
f 112/133/53 111/132/53 113/135/2 401/136/2
f 111/132/53 114/134/53 116/137/2 113/135/2
f 115/138/54 114/134/53 106/128/52 369/127/306
f 114/134/53 115/138/54 117/139/55 116/137/2
f 119/140/56 118/15/1 116/137/2 117/139/55
f 118/15/1 12/12/1 113/135/2 116/137/2
f 118/15/1 119/140/56 121/22/58 13/16/3
f 119/140/56 120/141/57 122/142/59 121/22/58
f 120/141/57 119/140/56 117/139/55 361/143/298
f 123/144/60 17/21/6 121/22/58 122/142/59
f 123/145/60 122/146/59 124/147/61 125/148/62
f 122/146/59 120/149/57 126/150/63 124/147/61
f 127/151/64 129/152/66 125/148/62 124/147/61
f 128/153/65 127/151/64 124/147/61 126/150/63
f 128/153/65 131/154/68 130/155/67 127/151/64
f 133/156/70 129/152/66 127/151/64 130/155/67
f 131/154/68 400/157/337 132/158/69 130/155/67
f 135/159/72 133/156/70 130/155/67 132/158/69
f 129/152/66 133/156/70 134/160/71 270/161/207
f 133/156/70 135/159/72 136/162/73 134/160/71
f 136/162/73 135/159/72 137/163/74 138/164/75
f 135/159/72 132/158/69 140/165/77 137/163/74
f 139/166/76 372/167/309 138/164/75 137/163/74
f 142/168/79 139/166/76 137/163/74 140/165/77
f 132/158/69 400/157/337 141/169/78 140/165/77
f 144/170/81 142/168/79 140/165/77 141/169/78
f 373/171/310 139/166/76 142/168/79 143/172/80
f 144/170/81 145/173/82 143/172/80 142/168/79
f 145/173/82 144/170/81 146/174/83 147/175/84
f 146/174/83 144/170/81 141/169/78 149/176/86
f 148/177/85 384/178/321 147/175/84 146/174/83
f 148/177/85 146/174/83 149/176/86 151/179/88
f 150/180/87 152/181/89 151/179/88 149/176/86
f 400/157/337 150/180/87 149/176/86 141/169/78
f 152/181/89 154/182/91 153/183/90 151/179/88
f 156/184/93 148/177/85 151/179/88 153/183/90
f 154/182/91 354/185/291 155/186/92 153/183/90
f 158/187/95 156/184/93 153/183/90 155/186/92
f 384/178/321 148/177/85 156/184/93 157/188/94
f 158/187/95 159/189/96 157/188/94 156/184/93
f 159/189/96 158/187/95 155/186/92 161/190/98
f 159/189/96 160/191/97 385/192/322 157/188/94
f 160/191/97 159/189/96 161/190/98 163/193/100
f 162/194/99 164/195/101 163/193/100 161/190/98
f 354/185/291 162/194/99 161/190/98 155/186/92
f 164/195/101 166/196/103 165/197/102 163/193/100
f 168/198/105 160/191/97 163/193/100 165/197/102
f 166/196/103 309/199/246 167/200/104 165/197/102
f 170/201/107 168/198/105 165/197/102 167/200/104
f 160/191/97 168/198/105 169/202/106 385/192/322
f 168/198/105 170/201/107 172/203/109 169/202/106
f 171/204/108 170/201/107 167/200/104 183/205/120
f 170/201/107 171/204/108 174/206/111 172/203/109
f 173/207/110 383/208/320 169/202/106 172/203/109
f 175/209/112 173/207/110 172/203/109 174/206/111
f 177/210/114 175/209/112 174/206/111 176/211/113
f 171/204/108 179/212/116 176/211/113 174/206/111
f 194/213/131 177/210/114 176/211/113 178/214/115
f 179/212/116 180/215/117 178/214/115 176/211/113
f 180/215/117 179/212/116 181/216/118 184/217/121
f 179/212/116 171/204/108 183/205/120 181/216/118
f 182/218/119 185/219/122 184/217/121 181/216/118
f 306/220/243 182/218/119 181/216/118 183/205/120
f 185/219/122 187/221/124 186/222/123 184/217/121
f 188/223/125 180/215/117 184/217/121 186/222/123
f 187/221/124 190/224/127 189/225/126 186/222/123
f 192/226/129 188/223/125 186/222/123 189/225/126
f 190/224/127 296/227/233 191/228/128 189/225/126
f 193/229/130 192/226/129 189/225/126 191/228/128
f 180/215/117 188/223/125 192/226/129 178/214/115
f 193/229/130 194/213/131 178/214/115 192/226/129
f 194/213/131 193/229/130 195/230/132 196/231/133
f 195/230/132 193/229/130 191/228/128 198/232/135
f 197/233/134 392/234/329 196/231/133 195/230/132
f 197/233/134 195/230/132 198/232/135 200/235/137
f 199/236/136 201/237/138 200/235/137 198/232/135
f 296/227/233 199/236/136 198/232/135 191/228/128
f 201/237/138 203/238/140 202/239/139 200/235/137
f 205/240/142 197/233/134 200/235/137 202/239/139
f 203/238/140 287/241/224 204/242/141 202/239/139
f 207/243/144 205/240/142 202/239/139 204/242/141
f 392/234/329 197/233/134 205/240/142 206/244/143
f 207/243/144 208/245/145 206/244/143 205/240/142
f 208/245/145 207/243/144 209/246/146 210/247/147
f 209/246/146 207/243/144 204/242/141 212/248/149
f 211/249/148 219/250/156 210/247/147 209/246/146
f 211/249/148 209/246/146 212/248/149 214/251/151
f 213/252/150 215/253/152 214/251/151 212/248/149
f 287/241/224 213/252/150 212/248/149 204/242/141
f 215/253/152 217/254/154 216/255/153 214/251/151
f 219/250/156 211/249/148 214/251/151 216/255/153
f 217/254/154 279/256/216 218/257/155 216/255/153
f 220/258/157 219/250/156 216/255/153 218/257/155
f 219/250/156 220/258/157 221/259/158 210/247/147
f 220/258/157 222/260/159 223/261/160 221/259/158
f 222/260/159 220/258/157 218/257/155 225/262/162
f 222/260/159 224/263/161 399/264/336 223/261/160
f 224/263/161 222/260/159 225/262/162 227/265/164
f 226/266/163 228/267/165 227/265/164 225/262/162
f 279/256/216 226/266/163 225/262/162 218/257/155
f 228/267/165 230/268/167 229/269/166 227/265/164
f 232/270/169 224/263/161 227/265/164 229/269/166
f 230/268/167 250/271/187 231/272/168 229/269/166
f 234/273/171 232/270/169 229/269/166 231/272/168
f 224/263/161 232/270/169 233/274/170 399/264/336
f 232/270/169 234/273/171 235/275/172 233/274/170
f 234/273/171 236/276/173 237/277/174 235/275/172
f 236/276/173 234/273/171 231/272/168 239/278/176
f 236/276/173 238/279/175 372/167/309 237/277/174
f 238/279/175 236/276/173 239/278/176 241/280/178
f 240/281/177 242/282/179 241/280/178 239/278/176
f 250/271/187 240/281/177 239/278/176 231/272/168
f 242/282/179 136/162/73 138/164/75 241/280/178
f 372/167/309 238/279/175 241/280/178 138/164/75
f 243/283/180 242/282/179 240/281/177 245/284/182
f 242/282/179 243/283/180 134/160/71 136/162/73
f 243/283/180 244/285/181 270/161/207 134/160/71
f 244/285/181 243/283/180 245/284/182 246/286/183
f 247/287/184 248/288/185 246/286/183 245/284/182
f 250/271/187 247/287/184 245/284/182 240/281/177
f 248/288/185 247/287/184 249/289/186 251/290/188
f 247/287/184 250/271/187 230/268/167 249/289/186
f 252/291/189 254/292/191 251/290/188 249/289/186
f 228/267/165 252/291/189 249/289/186 230/268/167
f 255/293/192 254/292/191 252/291/189 253/294/190
f 228/267/165 226/266/163 253/294/190 252/291/189
f 254/292/191 255/293/192 258/295/195 256/296/193
f 254/292/191 256/296/193 259/297/196 251/290/188
f 256/296/193 257/298/194 261/299/198 259/297/196
f 271/300/208 257/298/194 256/296/193 258/295/195
f 260/301/197 248/288/185 251/290/188 259/297/196
f 262/302/199 260/301/197 259/297/196 261/299/198
f 31/38/13 262/303/199 261/304/198 33/39/14
f 257/305/194 35/40/16 33/39/14 261/304/198
f 262/303/199 31/38/13 265/27/202 263/306/200
f 260/301/197 262/302/199 263/307/200 266/308/203
f 264/309/201 267/310/204 266/308/203 263/307/200
f 21/24/9 264/311/201 263/306/200 265/27/202
f 267/310/204 244/285/181 246/286/183 266/308/203
f 248/288/185 260/301/197 266/308/203 246/286/183
f 270/161/207 244/285/181 267/310/204 268/312/205
f 264/309/201 269/313/206 268/312/205 267/310/204
f 269/313/206 123/145/60 125/148/62 268/312/205
f 129/152/66 270/161/207 268/312/205 125/148/62
f 264/311/201 21/24/9 19/23/7 269/314/206
f 17/21/6 123/144/60 269/314/206 19/23/7
f 273/315/210 271/300/208 258/295/195 272/316/209
f 255/293/192 275/317/212 272/316/209 258/295/195
f 340/318/277 273/315/210 272/316/209 274/319/211
f 275/317/212 276/320/213 274/319/211 272/316/209
f 276/320/213 275/317/212 277/321/214 278/322/215
f 275/317/212 255/293/192 253/294/190 277/321/214
f 279/256/216 217/254/154 278/322/215 277/321/214
f 226/266/163 279/256/216 277/321/214 253/294/190
f 217/254/154 215/253/152 280/323/217 278/322/215
f 281/324/218 276/320/213 278/322/215 280/323/217
f 281/324/218 280/323/217 282/325/219 283/326/220
f 280/323/217 215/253/152 213/252/150 282/325/219
f 284/327/221 285/328/222 283/326/220 282/325/219
f 287/241/224 284/327/221 282/325/219 213/252/150
f 285/328/222 284/327/221 286/329/223 288/330/225
f 284/327/221 287/241/224 203/238/140 286/329/223
f 289/331/226 290/332/227 288/330/225 286/329/223
f 201/237/138 289/331/226 286/329/223 203/238/140
f 290/332/227 289/331/226 291/333/228 292/334/229
f 289/331/226 201/237/138 199/236/136 291/333/228
f 293/335/230 294/336/231 292/334/229 291/333/228
f 296/227/233 293/335/230 291/333/228 199/236/136
f 294/336/231 293/335/230 295/337/232 297/338/234
f 293/335/230 296/227/233 190/224/127 295/337/232
f 298/339/235 299/340/236 297/338/234 295/337/232
f 187/221/124 298/339/235 295/337/232 190/224/127
f 298/339/235 187/221/124 185/219/122 300/341/237
f 299/340/236 298/339/235 300/341/237 301/342/238
f 302/343/239 303/344/240 301/342/238 300/341/237
f 182/218/119 302/343/239 300/341/237 185/219/122
f 303/344/240 302/343/239 304/345/241 305/346/242
f 302/343/239 182/218/119 306/220/243 304/345/241
f 307/347/244 310/348/247 305/346/242 304/345/241
f 309/199/246 307/347/244 304/345/241 306/220/243
f 311/349/248 310/348/247 307/347/244 308/350/245
f 309/199/246 166/196/103 308/350/245 307/347/244
f 310/348/247 311/349/248 314/351/251 312/352/249
f 310/348/247 312/352/249 315/353/252 305/346/242
f 312/352/249 313/354/250 317/355/254 315/353/252
f 343/356/280 313/354/250 312/352/249 314/351/251
f 316/357/253 303/344/240 305/346/242 315/353/252
f 318/358/255 316/357/253 315/353/252 317/355/254
f 87/106/41 318/359/255 317/360/254 89/107/42
f 313/361/250 91/108/44 89/107/42 317/360/254
f 318/359/255 87/106/41 321/95/258 319/362/256
f 316/357/253 318/358/255 319/363/256 322/364/259
f 320/365/257 323/366/260 322/364/259 319/363/256
f 77/92/37 320/367/257 319/362/256 321/95/258
f 323/366/260 299/340/236 301/342/238 322/364/259
f 303/344/240 316/357/253 322/364/259 301/342/238
f 297/338/234 299/340/236 323/366/260 324/368/261
f 320/365/257 325/369/262 324/368/261 323/366/260
f 325/369/262 327/370/264 326/371/263 324/368/261
f 294/336/231 297/338/234 324/368/261 326/371/263
f 327/370/264 329/372/266 328/373/265 326/371/263
f 292/334/229 294/336/231 326/371/263 328/373/265
f 329/372/266 331/374/268 330/375/267 328/373/265
f 290/332/227 292/334/229 328/373/265 330/375/267
f 331/374/268 333/376/270 332/377/269 330/375/267
f 288/330/225 290/332/227 330/375/267 332/377/269
f 333/376/270 335/378/272 334/379/271 332/377/269
f 285/328/222 288/330/225 332/377/269 334/379/271
f 335/378/272 337/380/274 336/381/273 334/379/271
f 283/326/220 285/328/222 334/379/271 336/381/273
f 337/380/274 339/382/276 338/383/275 336/381/273
f 281/324/218 283/326/220 336/381/273 338/383/275
f 339/382/276 340/318/277 274/319/211 338/383/275
f 276/320/213 281/324/218 338/383/275 274/319/211
f 49/60/23 339/384/276 337/385/274 341/63/278
f 339/384/276 49/60/23 47/59/21 340/386/277
f 45/58/20 273/387/210 340/386/277 47/59/21
f 335/388/272 59/74/27 341/63/278 337/385/274
f 59/74/27 335/388/272 333/389/270 61/75/28
f 331/390/268 63/76/30 61/75/28 333/389/270
f 63/76/30 331/390/268 329/391/266 342/79/279
f 327/392/264 73/90/34 342/79/279 329/391/266
f 73/90/34 327/392/264 325/393/262 75/91/35
f 320/367/257 77/92/37 75/91/35 325/393/262
f 345/394/282 343/356/280 314/351/251 344/395/281
f 311/349/248 347/396/284 344/395/281 314/351/251
f 368/397/305 345/394/282 344/395/281 346/398/283
f 347/396/284 348/399/285 346/398/283 344/395/281
f 348/399/285 347/396/284 349/400/286 350/401/287
f 347/396/284 311/349/248 308/350/245 349/400/286
f 164/195/101 162/194/99 350/401/287 349/400/286
f 166/196/103 164/195/101 349/400/286 308/350/245
f 162/194/99 354/185/291 351/402/288 350/401/287
f 352/403/289 348/399/285 350/401/287 351/402/288
f 352/403/289 351/402/288 353/404/290 355/405/292
f 351/402/288 354/185/291 154/182/91 353/404/290
f 356/406/293 357/407/294 355/405/292 353/404/290
f 152/181/89 356/406/293 353/404/290 154/182/91
f 357/407/294 356/406/293 358/408/295 359/409/296
f 356/406/293 152/181/89 150/180/87 358/408/295
f 131/154/68 128/153/65 359/409/296 358/408/295
f 400/157/337 131/154/68 358/408/295 150/180/87
f 357/407/294 359/409/296 360/410/297 362/411/299
f 359/409/296 128/153/65 126/150/63 360/410/297
f 361/412/298 363/413/300 362/411/299 360/410/297
f 120/149/57 361/412/298 360/410/297 126/150/63
f 363/413/300 365/414/302 364/415/301 362/411/299
f 355/405/292 357/407/294 362/411/299 364/415/301
f 365/414/302 367/416/304 366/417/303 364/415/301
f 352/403/289 355/405/292 364/415/301 366/417/303
f 367/416/304 368/397/305 346/398/283 366/417/303
f 348/399/285 352/403/289 366/417/303 346/398/283
f 105/124/51 367/418/304 365/419/302 369/127/306
f 367/418/304 105/124/51 103/123/49 368/420/305
f 101/122/48 345/421/282 368/420/305 103/123/49
f 363/422/300 115/138/54 369/127/306 365/419/302
f 115/138/54 363/422/300 361/143/298 117/139/55
f 345/421/282 101/122/48 370/111/307 343/423/280
f 91/108/44 313/361/250 343/423/280 370/111/307
f 309/199/246 306/220/243 183/205/120 167/200/104
f 273/387/210 45/58/20 371/45/308 271/424/208
f 35/44/16 257/425/194 271/424/208 371/45/308
f 139/166/76 373/171/310 237/277/174 372/167/309
f 373/171/310 374/426/311 235/275/172 237/277/174
f 374/426/311 373/171/310 143/172/80 376/427/313
f 375/428/312 374/426/311 376/427/313 377/429/314
f 374/426/311 375/428/312 233/274/170 235/275/172
f 378/430/315 379/431/316 377/429/314 376/427/313
f 145/173/82 378/430/315 376/427/313 143/172/80
f 379/431/316 378/430/315 380/432/317 381/433/318
f 378/430/315 145/173/82 147/175/84 380/432/317
f 382/434/319 383/208/320 381/433/318 380/432/317
f 384/178/321 382/434/319 380/432/317 147/175/84
f 383/208/320 382/434/319 385/192/322 169/202/106
f 382/434/319 384/178/321 157/188/94 385/192/322
f 383/208/320 173/207/110 386/435/323 381/433/318
f 387/436/324 379/431/316 381/433/318 386/435/323
f 389/437/326 387/436/324 386/435/323 388/438/325
f 173/207/110 175/209/112 388/438/325 386/435/323
f 391/439/328 389/437/326 388/438/325 390/440/327
f 175/209/112 177/210/114 390/440/327 388/438/325
f 392/234/329 391/439/328 390/440/327 196/231/133
f 177/210/114 194/213/131 196/231/133 390/440/327
f 391/439/328 392/234/329 206/244/143 393/441/330
f 389/437/326 391/439/328 393/441/330 395/442/332
f 394/443/331 396/444/333 395/442/332 393/441/330
f 208/245/145 394/443/331 393/441/330 206/244/143
f 396/444/333 398/445/335 397/446/334 395/442/332
f 387/436/324 389/437/326 395/442/332 397/446/334
f 398/445/335 375/428/312 377/429/314 397/446/334
f 379/431/316 387/436/324 397/446/334 377/429/314
f 398/445/335 396/444/333 223/261/160 399/264/336
f 375/428/312 398/445/335 399/264/336 233/274/170
f 396/444/333 394/443/331 221/259/158 223/261/160
f 394/443/331 208/245/145 210/247/147 221/259/158
f 12/12/1 9/11/1 401/136/2 113/135/2
f 112/133/53 401/136/2 402/3/2 403/447/53
f 401/136/2 9/11/1 3/4/1 402/3/2
f 2/2/2 404/448/53 403/447/53 402/3/2
f 404/448/53 406/449/52 405/450/52 403/447/53
f 110/131/52 112/133/53 403/447/53 405/450/52
f 406/449/52 408/451/50 407/452/50 405/450/52
f 108/130/50 110/131/52 405/450/52 407/452/50
f 408/451/50 410/453/47 409/454/47 407/452/50
f 412/120/47 108/130/50 407/452/50 409/454/47
f 410/453/47 413/455/46 411/456/46 409/454/47
f 98/117/46 412/120/47 409/454/47 411/456/46
f 413/455/46 415/457/45 414/458/45 411/456/46
f 96/115/45 98/117/46 411/456/46 414/458/45
f 415/457/45 417/459/43 416/460/43 414/458/45
f 94/114/43 96/115/45 414/458/45 416/460/43
f 417/459/43 419/461/40 418/462/40 416/460/43
f 421/104/40 94/114/43 416/460/43 418/462/40
f 419/461/40 422/463/39 420/464/39 418/462/40
f 84/101/39 421/104/40 418/462/40 420/464/39
f 422/463/39 424/465/38 423/466/38 420/464/39
f 82/99/38 84/101/39 420/464/39 423/466/38
f 424/465/38 426/467/36 425/468/36 423/466/38
f 80/98/36 82/99/38 423/466/38 425/468/36
f 426/467/36 428/469/33 427/470/33 425/468/36
f 430/88/33 80/98/36 425/468/36 427/470/33
f 428/469/33 431/471/32 429/472/32 427/470/33
f 70/85/32 430/88/33 427/470/33 429/472/32
f 431/471/32 433/473/31 432/474/31 429/472/32
f 68/83/31 70/85/32 429/472/32 432/474/31
f 433/473/31 435/475/29 434/476/29 432/474/31
f 66/82/29 68/83/31 432/474/31 434/476/29
f 435/475/29 437/477/26 436/478/26 434/476/29
f 439/72/26 66/82/29 434/476/29 436/478/26
f 437/477/26 440/479/25 438/480/25 436/478/26
f 56/69/25 439/72/26 436/478/26 438/480/25
f 440/479/25 442/481/24 441/482/24 438/480/25
f 54/67/24 56/69/25 438/480/25 441/482/24
f 442/481/24 444/483/22 443/484/22 441/482/24
f 52/66/22 54/67/24 441/482/24 443/484/22
f 444/483/22 446/485/19 445/486/19 443/484/22
f 448/56/19 52/66/22 443/484/22 445/486/19
f 446/485/19 449/487/18 447/488/18 445/486/19
f 42/53/18 448/56/19 445/486/19 447/488/18
f 449/487/18 451/489/17 450/490/17 447/488/18
f 40/51/17 42/53/18 447/488/18 450/490/17
f 451/489/17 453/491/15 452/492/15 450/490/17
f 38/50/15 40/51/17 450/490/17 452/492/15
f 453/493/15 455/494/12 454/495/12 452/496/15
f 457/36/12 38/49/15 452/496/15 454/495/12
f 455/494/12 458/497/11 456/498/11 454/495/12
f 28/33/11 457/36/12 454/495/12 456/498/11
f 458/497/11 460/499/10 459/500/10 456/498/11
f 26/31/10 28/33/11 456/498/11 459/500/10
f 460/499/10 462/501/8 461/502/8 459/500/10
f 24/30/8 26/31/10 459/500/10 461/502/8
f 462/501/8 464/503/5 463/504/5 461/502/8
f 465/19/5 24/30/8 461/502/8 463/504/5
f 464/503/5 5/7/4 7/8/4 463/504/5
f 10/10/4 465/19/5 463/504/5 7/8/4
