# Blender 4.5.12 LTS
# www.blender.org
o B4
v 31.943533 -15.238996 19.943901
v 31.833473 -15.238996 21.050507
v 31.943533 -16.722702 19.943901
v 31.833473 -15.238996 18.837303
v 31.511675 -15.238996 17.772812
v 31.833477 -16.722702 18.837303
v 31.511675 -16.722702 17.772812
v 31.833473 -18.206406 18.837303
v 31.943529 -18.206406 19.943901
v 31.511675 -18.206406 17.772812
v 31.833477 -19.690109 18.837303
v 31.943533 -19.690113 19.943901
v 31.833473 -20.864288 18.837303
v 31.511675 -19.690109 17.772812
v 30.986517 -19.690109 16.792572
v 31.511675 -20.864285 17.772812
v 31.511675 -21.419407 17.772812
v 30.986517 -20.864288 16.792572
v 30.986517 -21.419407 16.792572
v 30.281855 -20.864285 15.932251
v 30.281851 -21.419407 15.932251
v 29.421541 -20.864288 15.227592
v 30.281851 -19.690109 15.932251
v 30.281855 -18.206406 15.932251
v 29.421539 -19.690109 15.227585
v 29.421541 -18.206406 15.227592
v 28.441290 -19.690109 14.702423
v 28.441288 -18.206406 14.702423
v 27.376801 -19.690109 14.380623
v 28.441288 -20.864285 14.702423
v 28.441290 -21.419407 14.702423
v 27.376797 -20.864288 14.380623
v 27.376801 -21.419407 14.380623
v 26.270191 -20.864285 14.270561
v 26.270193 -21.419407 14.270561
v 25.163588 -20.864288 14.380623
v 26.270193 -19.690109 14.270561
v 26.270191 -18.206406 14.270554
v 25.163588 -19.690109 14.380623
v 25.163588 -18.206406 14.380623
v 24.099098 -19.690113 14.702431
v 24.099100 -18.206409 14.702423
v 23.118845 -19.690117 15.227608
v 24.099098 -20.864288 14.702431
v 24.099098 -21.419411 14.702438
v 23.118843 -20.864296 15.227615
v 23.118843 -21.419418 15.227631
v 22.258533 -20.864300 15.932312
v 22.258528 -21.419426 15.932335
v 21.553869 -20.864296 16.792633
v 22.258533 -19.690125 15.932297
v 22.258535 -18.206413 15.932274
v 21.553871 -19.690117 16.792618
v 21.553871 -18.206409 16.792595
v 21.028709 -19.690113 17.772865
v 21.028711 -18.206409 17.772842
v 20.706909 -19.690109 18.837326
v 21.028709 -20.864288 17.772888
v 21.028709 -21.419411 17.772911
v 20.706909 -20.864288 18.837334
v 20.706909 -21.419407 18.837357
v 20.596849 -20.864285 19.943916
v 20.596851 -21.419407 19.943916
v 20.706909 -20.864288 21.050507
v 20.596851 -19.690109 19.943916
v 20.596851 -18.206406 19.943909
v 20.706913 -19.690109 21.050507
v 20.706909 -18.206406 21.050507
v 21.028713 -19.690109 22.114998
v 21.028711 -18.206406 22.114998
v 21.553873 -19.690109 23.095253
v 21.028711 -20.864285 22.114998
v 21.028713 -21.419407 22.114998
v 21.553873 -20.864288 23.095245
v 21.553873 -21.419407 23.095245
v 22.258541 -20.864285 23.955559
v 22.258537 -21.419407 23.955559
v 23.118849 -20.864288 24.660225
v 22.258537 -19.690109 23.955566
v 22.258537 -18.206406 23.955566
v 23.118849 -19.690109 24.660233
v 23.118849 -18.206406 24.660233
v 24.099100 -19.690109 25.185387
v 24.099100 -18.206406 25.185387
v 25.163588 -19.690109 25.507187
v 24.099098 -20.864285 25.185387
v 24.099100 -21.419407 25.185387
v 25.163588 -20.864288 25.507187
v 25.163588 -21.419407 25.507187
v 26.270191 -20.864285 25.617249
v 26.270193 -21.419407 25.617249
v 27.376797 -20.864288 25.507187
v 26.270193 -19.690109 25.617249
v 26.270191 -18.206406 25.617249
v 27.376797 -19.690109 25.507195
v 27.376797 -18.206406 25.507187
v 28.441290 -19.690109 25.185387
v 28.441288 -18.206406 25.185387
v 29.421539 -19.690109 24.660233
v 28.441288 -20.864285 25.185387
v 28.441290 -21.419407 25.185387
v 29.421539 -20.864288 24.660225
v 29.421539 -21.419407 24.660225
v 30.281851 -20.864288 23.955566
v 30.281851 -21.419407 23.955566
v 30.986511 -20.864288 23.095253
v 30.281851 -19.690113 23.955566
v 30.281851 -18.206409 23.955566
v 30.986511 -19.690113 23.095253
v 30.986511 -18.206406 23.095253
v 31.511671 -19.690113 22.115013
v 31.511671 -18.206406 22.115005
v 31.833469 -19.690113 21.050514
v 31.511671 -20.864288 22.115013
v 31.511671 -21.419407 22.115013
v 31.833469 -20.864288 21.050514
v 31.833469 -21.419407 21.050514
v 31.943529 -20.864288 19.943901
v 31.943533 -21.419407 19.943901
v 31.867735 -21.624401 19.943954
v 31.833477 -21.419407 18.837303
v 31.759102 -21.624409 18.852142
v 31.441528 -21.624424 17.801903
v 31.535984 -21.748234 18.896667
v 31.231077 -21.748291 17.889145
v 31.640335 -21.748199 19.944115
v 31.238485 -21.831474 18.956032
v 31.337143 -21.831406 19.944313
v 30.950478 -21.831585 18.005478
v 30.940989 -21.914711 19.015388
v 31.033943 -21.914612 19.944527
v 30.563580 -21.991501 19.069778
v 30.669876 -21.914875 18.121811
v 30.228374 -21.915012 17.299416
v 30.325151 -21.990414 18.231102
v 29.938906 -21.989094 17.465210
v 29.852184 -22.050442 18.326317
v 29.575926 -22.044659 17.624680
v 29.278225 -22.098381 18.387032
v 30.026337 -22.055401 19.114189
v 30.087885 -22.057659 19.945152
v 29.381063 -22.108013 19.143562
v 28.679554 -22.150951 19.152847
v 29.419044 -22.112022 19.945419
v 28.698248 -22.155422 19.945442
v 29.381060 -22.107956 20.747284
v 28.679541 -22.150887 20.738213
v 29.278200 -22.098270 21.503799
v 30.026325 -22.055347 20.776031
v 30.563559 -21.991451 20.819710
v 29.852175 -22.050343 21.563766
v 30.325136 -21.990322 21.658234
v 29.575928 -22.044537 22.265282
v 29.938931 -21.988972 22.424042
v 29.173920 -22.040813 22.842583
v 29.121559 -22.085430 22.169647
v 28.557981 -22.115482 22.193718
v 28.950409 -22.070961 22.610710
v 28.532032 -22.083946 22.791046
v 27.885815 -22.095295 22.952560
v 28.622478 -22.042080 23.257706
v 28.774611 -21.986179 23.621269
v 27.937092 -22.045837 23.543587
v 28.021421 -21.984921 24.019707
v 27.133253 -22.049603 23.733147
v 27.170292 -21.983814 24.279404
v 26.270193 -22.051487 23.803825
v 27.110321 -22.104336 23.061996
v 27.104998 -22.147079 22.315125
v 26.270193 -22.108276 23.103683
v 25.430065 -22.104336 23.061897
v 26.270193 -22.150562 22.333870
v 26.270191 -22.181408 21.532433
v 25.435387 -22.147079 22.315132
v 25.432381 -22.178413 21.528641
v 24.654736 -22.135696 22.266014
v 24.632862 -22.165188 21.517326
v 23.982393 -22.115486 22.193588
v 24.654568 -22.095303 22.952362
v 24.008339 -22.083958 22.790771
v 24.603294 -22.045845 23.543411
v 24.518963 -21.984928 24.019615
v 25.407133 -22.049606 23.733055
v 23.917896 -22.042095 23.257454
v 23.765772 -21.986198 23.621109
v 23.366447 -22.040836 22.842293
v 23.122581 -21.987568 23.087845
v 23.589964 -22.070980 22.610428
v 22.964447 -22.044548 22.265045
v 22.601456 -21.988991 22.423851
v 22.688213 -22.050350 21.563667
v 23.418812 -22.085438 22.169418
v 23.262184 -22.098274 21.503792
v 23.909933 -22.137516 21.498695
v 23.159325 -22.107956 20.747673
v 23.860834 -22.150883 20.738899
v 23.121338 -22.112019 19.946198
v 22.514057 -22.055347 20.776138
v 21.976818 -21.991459 20.819633
v 22.452494 -22.057659 19.945480
v 21.894539 -21.991978 19.944771
v 22.514044 -22.055412 19.114700
v 21.976799 -21.991508 19.069901
v 22.688198 -22.050461 18.326881
v 23.159323 -22.108032 19.144516
v 23.860832 -22.150970 19.154091
v 23.262163 -22.098408 18.387970
v 23.909863 -22.137676 18.393959
v 23.418739 -22.085587 17.721863
v 23.982122 -22.115669 17.698692
v 23.589611 -22.071110 17.280525
v 22.964451 -22.044678 17.625153
v 22.601467 -21.989101 17.465424
v 23.366003 -22.040932 17.047684
v 23.121954 -21.987621 16.801193
v 23.916039 -22.042088 16.632675
v 23.763115 -21.986057 16.267685
v 24.600483 -22.045879 16.348862
v 24.007538 -22.084095 17.100761
v 24.653374 -22.095562 16.943069
v 24.654335 -22.135620 17.629128
v 25.429266 -22.104927 16.843445
v 25.435122 -22.146126 17.586693
v 26.270191 -22.109085 16.808090
v 25.405254 -22.050018 16.165001
v 25.367401 -21.983486 15.609306
v 26.270193 -22.052174 16.098038
v 26.270193 -21.983009 15.514214
v 27.135130 -22.050018 16.164963
v 27.172989 -21.983505 15.609436
v 27.939905 -22.045887 16.348778
v 27.111118 -22.104916 16.843193
v 27.105272 -22.146103 17.586235
v 27.887012 -22.095539 16.942627
v 27.886059 -22.135586 17.628349
v 28.532846 -22.084076 17.100243
v 28.558271 -22.115635 17.697830
v 28.950771 -22.071095 17.279991
v 28.624342 -22.042088 16.632492
v 28.777264 -21.986069 16.267746
v 29.174376 -22.040920 17.047379
v 29.418419 -21.987621 16.801086
v 29.641960 -21.914425 16.575943
v 29.855259 -21.831284 16.361389
v 28.936111 -21.912415 15.979149
v 29.097921 -21.829945 15.728630
v 28.124392 -21.909817 15.526253
v 28.230026 -21.828209 15.251640
v 27.220369 -21.907452 15.234505
v 28.025455 -21.984634 15.869186
v 27.272512 -21.826633 14.949875
v 26.270193 -21.906326 15.128868
v 25.320017 -21.907436 15.234352
v 26.270195 -21.825878 14.842766
v 25.267878 -21.826622 14.949783
v 26.270193 -21.745438 14.556664
v 26.270191 -21.623707 14.342079
v 25.215733 -21.745808 14.665199
v 27.324656 -21.745815 14.665253
v 28.335655 -21.746605 14.977028
v 27.363764 -21.623802 14.451782
v 28.414879 -21.624001 14.771072
v 29.381090 -21.624218 15.290215
v 30.228529 -21.624382 15.985893
v 29.421539 -21.419407 15.227585
v 29.259731 -21.747471 15.478104
v 30.068558 -21.748138 16.146812
v 30.733803 -21.748333 16.961510
v 30.923338 -21.624432 16.834801
v 30.481089 -21.831673 17.130463
v 25.176624 -21.623802 14.451767
v 24.204729 -21.746597 14.976967
v 24.125505 -21.624004 14.771065
v 23.280651 -21.747475 15.478111
v 24.310364 -21.828194 15.251503
v 23.442459 -21.829941 15.728577
v 24.415993 -21.909790 15.526047
v 23.604269 -21.912403 15.979042
v 24.514931 -21.984612 15.869026
v 22.898409 -21.914425 16.575989
v 22.685116 -21.831291 16.361443
v 22.311998 -21.915020 17.299545
v 22.059286 -21.831684 17.130592
v 21.870501 -21.914883 18.121941
v 21.589905 -21.831585 18.005600
v 21.599386 -21.914715 19.015396
v 22.215225 -21.990421 18.231339
v 21.301895 -21.831478 18.956055
v 21.506430 -21.914616 19.944420
v 21.203236 -21.831409 19.944244
v 21.599409 -21.914680 20.873459
v 21.301907 -21.831451 20.932480
v 21.870525 -21.914810 21.766945
v 21.589920 -21.831543 21.882957
v 22.311989 -21.914928 22.589233
v 22.215252 -21.990334 21.658104
v 22.059282 -21.831619 22.757904
v 22.898975 -21.914391 23.312584
v 22.685492 -21.831261 23.526909
v 23.606663 -21.912552 23.909218
v 23.444056 -21.830032 24.159554
v 24.419626 -21.910145 24.361450
v 24.312782 -21.828426 24.636101
v 25.322445 -21.907906 24.651604
v 25.269491 -21.826939 24.936798
v 25.370092 -21.983818 24.279373
v 26.270193 -21.906834 24.756165
v 27.217939 -21.907906 24.651619
v 26.270195 -21.983303 24.374573
v 26.270193 -21.826218 25.043190
v 27.270893 -21.826939 24.936813
v 26.270193 -21.745609 25.330223
v 26.270191 -21.623749 25.545479
v 27.323845 -21.745968 25.222000
v 25.216541 -21.745968 25.221985
v 24.205940 -21.746712 24.910736
v 25.176823 -21.623840 25.435890
v 24.125809 -21.624027 25.116722
v 23.159498 -21.624226 24.597641
v 22.311903 -21.624382 23.901970
v 23.118849 -21.419407 24.660225
v 23.281452 -21.747513 24.409889
v 22.472015 -21.748127 23.741234
v 21.806578 -21.748310 22.926575
v 21.617050 -21.624428 23.053085
v 21.309315 -21.748268 21.998985
v 21.098860 -21.624416 22.085991
v 21.004408 -21.748222 20.991493
v 20.781284 -21.624405 21.035759
v 20.900043 -21.748203 19.944092
v 20.672649 -21.624397 19.943962
v 21.004402 -21.748238 18.896721
v 20.781282 -21.624409 18.852211
v 21.309307 -21.748295 17.889275
v 21.098858 -21.624428 17.802017
v 21.806578 -21.748348 16.961647
v 21.617044 -21.624451 16.834923
v 22.471823 -21.748158 16.146904
v 22.311853 -21.624405 15.985985
v 23.159296 -21.624229 15.290260
v 21.553869 -21.419418 16.792664
v 20.706913 -21.419407 21.050507
v 27.363562 -21.623840 25.435890
v 28.334444 -21.746712 24.910759
v 28.414574 -21.624027 25.116730
v 29.258930 -21.747509 24.409927
v 28.227602 -21.828426 24.636124
v 29.096329 -21.830025 24.159630
v 28.120760 -21.910141 24.361496
v 28.933725 -21.912537 23.909332
v 29.641413 -21.914371 23.312752
v 29.854889 -21.831245 23.527016
v 30.228399 -21.914913 22.589378
v 29.417797 -21.987545 23.088074
v 30.481104 -21.831608 22.758003
v 30.669863 -21.914803 21.767052
v 30.950464 -21.831532 21.883034
v 30.940973 -21.914673 20.873589
v 31.238474 -21.831448 20.932564
v 31.535973 -21.748222 20.991547
v 31.759094 -21.624405 21.035782
v 31.231068 -21.748268 21.999023
v 31.441521 -21.624413 22.086014
v 30.733805 -21.748302 22.926628
v 30.923336 -21.624424 23.053101
v 30.068369 -21.748119 23.741287
v 30.228479 -21.624378 23.901993
v 29.380888 -21.624226 24.597649
v 30.986511 -21.419407 23.095253
v 27.376797 -21.419407 25.507195
v 25.163588 -21.419407 14.380623
v 29.121645 -22.085560 17.721123
v 28.630535 -22.137638 18.392838
v 27.907644 -22.164703 18.375244
v 27.108089 -22.176052 18.365768
v 27.922369 -22.181572 19.152618
v 27.110064 -22.197227 19.153481
v 27.928007 -22.187038 19.945404
v 27.110838 -22.206047 19.945480
v 27.922348 -22.181946 20.738503
v 27.110046 -22.198925 20.737839
v 27.907516 -22.165192 21.517006
v 27.108000 -22.178413 21.528435
v 28.630449 -22.137520 21.498505
v 27.885647 -22.135696 22.266029
v 26.270191 -22.203892 20.737396
v 26.270197 -22.212399 19.945732
v 25.430328 -22.198917 20.738335
v 25.429543 -22.206047 19.946198
v 24.618025 -22.181938 20.739288
v 24.612358 -22.187038 19.946571
v 23.842127 -22.155422 19.946564
v 24.618017 -22.181591 19.153847
v 24.632755 -22.164738 18.376297
v 25.430326 -22.197239 19.154228
v 25.432312 -22.176075 18.366394
v 26.270199 -22.201321 19.154381
v 26.270201 -22.177803 18.363220
v 26.270197 -22.149014 17.572136
v 30.645830 -21.991978 19.944786
v 31.833473 -18.206406 21.050507
v 31.833473 -16.722702 21.050507
v 31.511675 -16.722702 22.114998
v 31.511675 -15.238996 22.114998
v 30.986513 -16.722702 23.095253
v 30.986517 -15.238996 23.095253
v 30.281851 -16.722702 23.955566
v 30.281851 -15.238996 23.955566
v 29.421539 -16.722702 24.660233
v 29.421539 -15.238996 24.660233
v 28.441290 -16.722702 25.185387
v 29.421539 -18.206406 24.660233
v 28.441290 -15.238996 25.185387
v 27.376797 -16.722702 25.507187
v 27.376797 -15.238996 25.507187
v 26.270193 -16.722702 25.617249
v 26.270193 -15.238996 25.617249
v 25.163588 -16.722702 25.507187
v 25.163588 -15.238996 25.507187
v 24.099100 -16.722702 25.185387
v 25.163588 -18.206406 25.507187
v 24.099100 -15.238996 25.185387
v 23.118849 -16.722702 24.660233
v 23.118849 -15.238996 24.660233
v 22.258537 -16.722702 23.955566
v 22.258537 -15.238996 23.955566
v 21.553873 -16.722702 23.095253
v 21.553873 -15.238996 23.095253
v 21.028711 -16.722702 22.114998
v 21.553873 -18.206406 23.095253
v 21.028711 -15.238996 22.114998
v 20.706909 -16.722702 21.050507
v 20.706909 -15.238996 21.050507
v 20.596851 -16.722702 19.943901
v 20.596851 -15.238996 19.943901
v 20.706909 -16.722702 18.837311
v 20.706909 -15.238996 18.837303
v 21.028709 -16.722702 17.772827
v 20.706909 -18.206406 18.837318
v 21.028709 -15.238996 17.772812
v 21.553871 -16.722702 16.792580
v 21.553871 -15.238996 16.792564
v 22.258533 -16.722706 15.932266
v 22.258535 -15.238996 15.932251
v 23.118849 -16.722706 15.227592
v 23.118849 -15.238996 15.227592
v 24.099100 -16.722702 14.702431
v 23.118849 -18.206409 15.227600
v 24.099100 -15.238996 14.702423
v 25.163588 -16.722702 14.380623
v 25.163588 -15.238996 14.380623
v 26.270193 -16.722702 14.270561
v 26.270193 -15.238996 14.270561
v 27.376797 -16.722702 14.380623
v 27.376797 -15.238996 14.380623
v 28.441290 -16.722702 14.702431
v 27.376797 -18.206406 14.380623
v 28.441288 -15.238996 14.702431
v 29.421539 -16.722702 15.227592
v 29.421541 -15.238996 15.227592
v 30.281851 -16.722702 15.932251
v 30.281851 -15.238996 15.932251
v 30.986517 -16.722702 16.792572
v 30.986517 -15.238996 16.792564
v 30.986517 -18.206406 16.792572
vn 1.0000 -0.0000 -0.0000
vn 0.9808 -0.0000 0.1951
vn 0.9808 -0.0000 -0.1951
vn 0.9239 -0.0000 -0.3827
vn 0.8315 -0.0000 -0.5556
vn 0.9193 -0.0994 -0.3808
vn 0.9759 -0.0993 -0.1941
vn 0.8274 -0.0995 -0.5528
vn 0.7037 -0.0990 -0.7036
vn 0.7071 -0.0000 -0.7071
vn 0.5530 -0.0976 -0.8275
vn 0.5556 -0.0000 -0.8315
vn 0.3827 -0.0000 -0.9239
vn 0.1951 -0.0000 -0.9808
vn 0.3809 -0.0964 -0.9196
vn 0.1943 -0.0948 -0.9764
vn -0.0000 -0.0938 -0.9956
vn -0.0000 -0.0000 -1.0000
vn -0.1943 -0.0948 -0.9764
vn -0.1951 -0.0000 -0.9808
vn -0.3827 -0.0000 -0.9239
vn -0.5556 -0.0000 -0.8315
vn -0.3809 -0.0963 -0.9196
vn -0.5530 -0.0977 -0.8274
vn -0.7037 -0.0991 -0.7035
vn -0.7071 -0.0000 -0.7071
vn -0.8274 -0.0995 -0.5528
vn -0.8315 -0.0000 -0.5556
vn -0.9239 -0.0000 -0.3827
vn -0.9808 -0.0000 -0.1951
vn -0.9193 -0.0994 -0.3808
vn -0.9759 -0.0993 -0.1942
vn -0.9951 -0.0993 -0.0000
vn -1.0000 -0.0000 -0.0000
vn -0.9759 -0.0993 0.1941
vn -0.9808 -0.0000 0.1951
vn -0.9239 -0.0000 0.3827
vn -0.8315 -0.0000 0.5556
vn -0.9193 -0.0994 0.3808
vn -0.8274 -0.0995 0.5528
vn -0.7037 -0.0990 0.7036
vn -0.7071 -0.0000 0.7071
vn -0.5530 -0.0978 0.8274
vn -0.5556 -0.0000 0.8315
vn -0.3827 -0.0000 0.9239
vn -0.1951 -0.0000 0.9808
vn -0.3809 -0.0965 0.9196
vn -0.1943 -0.0951 0.9763
vn -0.0000 -0.0941 0.9956
vn -0.0000 -0.0000 1.0000
vn 0.1943 -0.0951 0.9763
vn 0.1951 -0.0000 0.9808
vn 0.3827 -0.0000 0.9239
vn 0.5556 -0.0000 0.8315
vn 0.3809 -0.0965 0.9196
vn 0.5530 -0.0978 0.8274
vn 0.7037 -0.0990 0.7036
vn 0.7071 -0.0000 0.7071
vn 0.8274 -0.0995 0.5528
vn 0.8315 -0.0000 0.5556
vn 0.9239 -0.0000 0.3827
vn 0.9193 -0.0994 0.3808
vn 0.9759 -0.0993 0.1941
vn 0.9951 -0.0992 -0.0000
vn 0.7352 -0.6779 -0.0000
vn 0.7209 -0.6781 -0.1434
vn 0.7210 -0.6780 0.1435
vn 0.6787 -0.6785 -0.2812
vn 0.3564 -0.9316 -0.0709
vn 0.3355 -0.9317 -0.1390
vn 0.3635 -0.9316 -0.0000
vn 0.2595 -0.9644 -0.0517
vn 0.2443 -0.9644 -0.1012
vn 0.2646 -0.9644 -0.0000
vn 0.2263 -0.9741 -0.0000
vn 0.2234 -0.9737 -0.0445
vn 0.2150 -0.9725 -0.0891
vn 0.1495 -0.9888 -0.0000
vn 0.1489 -0.9884 -0.0288
vn 0.1488 -0.9871 -0.0594
vn 0.1997 -0.9708 -0.1331
vn 0.2201 -0.9644 -0.1469
vn 0.1479 -0.9844 -0.0957
vn 0.0971 -0.9946 -0.0365
vn 0.0986 -0.9933 -0.0596
vn 0.0969 -0.9951 -0.0185
vn 0.0697 -0.9972 -0.0286
vn 0.0664 -0.9968 -0.0443
vn 0.0704 -0.9974 -0.0151
vn 0.0975 -0.9952 -0.0000
vn 0.0704 -0.9975 -0.0000
vn 0.0486 -0.9984 -0.0282
vn 0.0504 -0.9986 -0.0142
vn 0.0508 -0.9987 -0.0000
vn 0.0709 -0.9974 0.0153
vn 0.0506 -0.9986 0.0138
vn 0.0969 -0.9951 0.0186
vn 0.0697 -0.9972 0.0287
vn 0.0490 -0.9984 0.0285
vn 0.0972 -0.9946 0.0366
vn 0.1490 -0.9884 0.0288
vn 0.1488 -0.9871 0.0595
vn 0.1480 -0.9843 0.0958
vn 0.0986 -0.9933 0.0597
vn 0.0664 -0.9968 0.0442
vn 0.1332 -0.9823 0.1320
vn 0.0881 -0.9923 0.0871
vn 0.0620 -0.9962 0.0612
vn 0.0441 -0.9980 0.0448
vn 0.0440 -0.9968 0.0661
vn 0.0604 -0.9932 0.0994
vn 0.0275 -0.9972 0.0691
vn 0.0259 -0.9985 0.0489
vn 0.0364 -0.9945 0.0982
vn 0.0976 -0.9840 0.1491
vn 0.0602 -0.9868 0.1502
vn 0.0294 -0.9883 0.1497
vn 0.0186 -0.9951 0.0976
vn 0.0144 -0.9976 0.0684
vn -0.0000 -0.9887 0.1502
vn -0.0000 -0.9952 0.0979
vn -0.0000 -0.9977 0.0672
vn 0.0117 -0.9988 0.0483
vn -0.0000 -0.9989 0.0468
vn -0.0144 -0.9976 0.0683
vn -0.0186 -0.9950 0.0977
vn -0.0117 -0.9988 0.0483
vn -0.0000 -0.9995 0.0331
vn 0.0102 -0.9994 0.0329
vn -0.0102 -0.9994 0.0329
vn -0.0277 -0.9991 0.0309
vn -0.0261 -0.9985 0.0487
vn -0.0274 -0.9972 0.0690
vn -0.0490 -0.9984 0.0285
vn -0.0442 -0.9980 0.0448
vn -0.0440 -0.9968 0.0661
vn -0.0364 -0.9945 0.0983
vn -0.0603 -0.9932 0.0993
vn -0.0602 -0.9868 0.1502
vn -0.0976 -0.9840 0.1490
vn -0.0294 -0.9883 0.1497
vn -0.1331 -0.9823 0.1317
vn -0.0881 -0.9923 0.0872
vn -0.0620 -0.9962 0.0612
vn -0.1480 -0.9843 0.0958
vn -0.0986 -0.9933 0.0597
vn -0.0664 -0.9968 0.0442
vn -0.1488 -0.9871 0.0595
vn -0.0972 -0.9946 0.0366
vn -0.0697 -0.9972 0.0286
vn -0.0709 -0.9974 0.0153
vn -0.0506 -0.9986 0.0137
vn -0.0969 -0.9951 0.0186
vn -0.0707 -0.9975 0.0001
vn -0.0504 -0.9987 -0.0000
vn -0.0974 -0.9952 -0.0000
vn -0.1490 -0.9884 0.0288
vn -0.1495 -0.9888 -0.0000
vn -0.1489 -0.9884 -0.0288
vn -0.0969 -0.9951 -0.0186
vn -0.0709 -0.9974 -0.0153
vn -0.1488 -0.9871 -0.0594
vn -0.0971 -0.9946 -0.0365
vn -0.0697 -0.9972 -0.0285
vn -0.0503 -0.9986 -0.0138
vn -0.0485 -0.9984 -0.0284
vn -0.0664 -0.9968 -0.0443
vn -0.0437 -0.9980 -0.0446
vn -0.0986 -0.9933 -0.0596
vn -0.0621 -0.9962 -0.0613
vn -0.0439 -0.9968 -0.0661
vn -0.0880 -0.9923 -0.0869
vn -0.1479 -0.9844 -0.0957
vn -0.1331 -0.9823 -0.1318
vn -0.0974 -0.9841 -0.1488
vn -0.0602 -0.9932 -0.0992
vn -0.0599 -0.9869 -0.1498
vn -0.0361 -0.9945 -0.0981
vn -0.0274 -0.9973 -0.0688
vn -0.0247 -0.9985 -0.0485
vn -0.0140 -0.9977 -0.0669
vn -0.0105 -0.9989 -0.0468
vn -0.0183 -0.9951 -0.0970
vn -0.0000 -0.9978 -0.0656
vn -0.0000 -0.9990 -0.0442
vn -0.0000 -0.9953 -0.0970
vn -0.0292 -0.9884 -0.1488
vn -0.0000 -0.9889 -0.1488
vn 0.0292 -0.9884 -0.1488
vn 0.0183 -0.9951 -0.0970
vn 0.0140 -0.9976 -0.0671
vn 0.0599 -0.9869 -0.1499
vn 0.0361 -0.9945 -0.0981
vn 0.0273 -0.9973 -0.0688
vn 0.0102 -0.9989 -0.0467
vn 0.0248 -0.9985 -0.0484
vn 0.0439 -0.9968 -0.0661
vn 0.0438 -0.9980 -0.0447
vn 0.0602 -0.9932 -0.0993
vn 0.0621 -0.9962 -0.0613
vn 0.0882 -0.9922 -0.0876
vn 0.0975 -0.9840 -0.1489
vn 0.1331 -0.9823 -0.1318
vn 0.1741 -0.9695 -0.1725
vn 0.1356 -0.9703 -0.2004
vn 0.1882 -0.9642 -0.1870
vn 0.1490 -0.9638 -0.2210
vn 0.0910 -0.9721 -0.2161
vn 0.1036 -0.9635 -0.2467
vn 0.0463 -0.9734 -0.2245
vn 0.0538 -0.9632 -0.2635
vn -0.0000 -0.9737 -0.2279
vn -0.0000 -0.9626 -0.2708
vn -0.0538 -0.9632 -0.2635
vn -0.0463 -0.9734 -0.2246
vn -0.0737 -0.9283 -0.3646
vn -0.0000 -0.9272 -0.3744
vn 0.0738 -0.9283 -0.3645
vn -0.0000 -0.6596 -0.7516
vn 0.1472 -0.6633 -0.7337
vn -0.1467 -0.6633 -0.7339
vn 0.1421 -0.9295 -0.3403
vn 0.2853 -0.6685 -0.6868
vn 0.4117 -0.6726 -0.6149
vn 0.2047 -0.9303 -0.3044
vn 0.5207 -0.6772 -0.5199
vn 0.2579 -0.9314 -0.2568
vn 0.3019 -0.9318 -0.2016
vn 0.6107 -0.6787 -0.4079
vn -0.2853 -0.6685 -0.6868
vn -0.1422 -0.9295 -0.3404
vn -0.1037 -0.9635 -0.2467
vn -0.4118 -0.6726 -0.6149
vn -0.2047 -0.9303 -0.3044
vn -0.1491 -0.9638 -0.2210
vn -0.0910 -0.9721 -0.2161
vn -0.1356 -0.9703 -0.2004
vn -0.1739 -0.9696 -0.1722
vn -0.1881 -0.9642 -0.1868
vn -0.1998 -0.9707 -0.1331
vn -0.2201 -0.9644 -0.1468
vn -0.2149 -0.9726 -0.0891
vn -0.2443 -0.9644 -0.1013
vn -0.2234 -0.9737 -0.0445
vn -0.2595 -0.9644 -0.0517
vn -0.2262 -0.9741 -0.0000
vn -0.2646 -0.9644 -0.0000
vn -0.2234 -0.9737 0.0445
vn -0.2595 -0.9644 0.0517
vn -0.2150 -0.9725 0.0891
vn -0.2443 -0.9644 0.1013
vn -0.1998 -0.9708 0.1332
vn -0.2201 -0.9643 0.1469
vn -0.1740 -0.9695 0.1726
vn -0.1881 -0.9642 0.1871
vn -0.1355 -0.9703 0.2005
vn -0.1489 -0.9638 0.2210
vn -0.0910 -0.9721 0.2164
vn -0.1035 -0.9636 0.2466
vn -0.0463 -0.9732 0.2252
vn -0.0536 -0.9632 0.2633
vn -0.0000 -0.9735 0.2287
vn -0.0000 -0.9628 0.2702
vn 0.0536 -0.9632 0.2633
vn 0.0463 -0.9732 0.2252
vn 0.0735 -0.9284 0.3642
vn -0.0000 -0.9275 0.3739
vn -0.0736 -0.9284 0.3642
vn -0.0000 -0.6606 0.7507
vn -0.1469 -0.6641 0.7331
vn 0.1465 -0.6641 0.7332
vn -0.1420 -0.9296 0.3401
vn -0.2851 -0.6690 0.6864
vn -0.4115 -0.6729 0.6147
vn -0.2045 -0.9304 0.3043
vn -0.5206 -0.6772 0.5200
vn -0.2579 -0.9314 0.2569
vn -0.3020 -0.9317 0.2017
vn -0.6108 -0.6785 0.4081
vn -0.6788 -0.6784 0.2812
vn -0.3355 -0.9317 0.1391
vn -0.7209 -0.6780 0.1435
vn -0.3564 -0.9316 0.0710
vn -0.7352 -0.6779 -0.0000
vn -0.3635 -0.9316 -0.0000
vn -0.7209 -0.6781 -0.1434
vn -0.3564 -0.9316 -0.0709
vn -0.6787 -0.6785 -0.2811
vn -0.3355 -0.9317 -0.1390
vn -0.6107 -0.6787 -0.4079
vn -0.3019 -0.9318 -0.2015
vn -0.5207 -0.6772 -0.5199
vn -0.2579 -0.9314 -0.2568
vn 0.2851 -0.6690 0.6864
vn 0.1420 -0.9296 0.3401
vn 0.1035 -0.9636 0.2466
vn 0.4115 -0.6729 0.6147
vn 0.2045 -0.9304 0.3043
vn 0.1489 -0.9638 0.2210
vn 0.0910 -0.9721 0.2163
vn 0.1355 -0.9703 0.2004
vn 0.1740 -0.9695 0.1726
vn 0.1881 -0.9642 0.1871
vn 0.1997 -0.9708 0.1332
vn 0.2201 -0.9643 0.1469
vn 0.2149 -0.9726 0.0891
vn 0.2443 -0.9644 0.1013
vn 0.2234 -0.9737 0.0445
vn 0.2595 -0.9644 0.0517
vn 0.3565 -0.9316 0.0710
vn 0.3355 -0.9317 0.1391
vn 0.6788 -0.6783 0.2812
vn 0.6108 -0.6785 0.4081
vn 0.3020 -0.9317 0.2016
vn 0.5207 -0.6771 0.5200
vn 0.2579 -0.9314 0.2569
vn 0.0260 -0.9992 -0.0307
vn 0.0295 -0.9995 -0.0145
vn 0.0083 -0.9994 -0.0326
vn 0.0119 -0.9997 -0.0192
vn 0.0319 -0.9995 -0.0002
vn 0.0153 -0.9999 -0.0011
vn 0.0305 -0.9994 0.0149
vn 0.0131 -0.9998 0.0172
vn 0.0273 -0.9991 0.0309
vn -0.0000 -0.9998 0.0194
vn -0.0000 -1.0000 -0.0013
vn -0.0153 -0.9999 -0.0011
vn -0.0131 -0.9998 0.0172
vn -0.0318 -0.9995 -0.0002
vn -0.0305 -0.9994 0.0149
vn -0.0295 -0.9995 -0.0146
vn -0.0119 -0.9997 -0.0189
vn -0.0257 -0.9992 -0.0307
vn -0.0083 -0.9994 -0.0326
vn -0.0000 -0.9995 -0.0328
vn -0.0000 -0.9998 -0.0216
vt 0.051942 0.768494
vt 0.055882 0.768484
vt 0.055893 0.773738
vt 0.051955 0.773747
vt 0.048003 0.768504
vt 0.048017 0.773757
vt 0.044063 0.768515
vt 0.044079 0.773768
vt 0.048031 0.779010
vt 0.044095 0.779021
vt 0.051968 0.779000
vt 0.051981 0.784253
vt 0.048046 0.784263
vt 0.044111 0.784274
vt 0.051991 0.788410
vt 0.048057 0.788420
vt 0.044123 0.788431
vt 0.040176 0.784286
vt 0.040158 0.779033
vt 0.040189 0.788443
vt 0.044129 0.790396
vt 0.048062 0.790385
vt 0.040196 0.790408
vt 0.036263 0.790421
vt 0.036256 0.788456
vt 0.036241 0.784299
vt 0.032330 0.790436
vt 0.032322 0.788470
vt 0.032305 0.784314
vt 0.036222 0.779047
vt 0.032284 0.779062
vt 0.028369 0.784330
vt 0.028347 0.779078
vt 0.028389 0.788486
vt 0.024432 0.784349
vt 0.024410 0.779095
vt 0.024455 0.788505
vt 0.028399 0.790451
vt 0.024470 0.790468
vt 0.020536 0.790505
vt 0.020519 0.788535
vt 0.020495 0.784371
vt 0.146410 0.788481
vt 0.146394 0.790452
vt 0.142463 0.790417
vt 0.142475 0.788454
vt 0.146431 0.784316
vt 0.142494 0.784297
vt 0.020473 0.779113
vt 0.146449 0.779058
vt 0.142511 0.779044
vt 0.138557 0.784282
vt 0.138574 0.779030
vt 0.138541 0.788438
vt 0.134621 0.784270
vt 0.134636 0.779018
vt 0.134607 0.788426
vt 0.138533 0.790403
vt 0.134601 0.790392
vt 0.130668 0.790381
vt 0.130674 0.788416
vt 0.130685 0.784259
vt 0.126735 0.790372
vt 0.126740 0.788406
vt 0.126750 0.784250
vt 0.130699 0.779007
vt 0.126763 0.778997
vt 0.122815 0.784241
vt 0.122826 0.778988
vt 0.122806 0.788398
vt 0.118880 0.784233
vt 0.118890 0.778980
vt 0.118872 0.788391
vt 0.122802 0.790363
vt 0.118869 0.790356
vt 0.114935 0.790349
vt 0.114938 0.788384
vt 0.114945 0.784227
vt 0.111002 0.790344
vt 0.111004 0.788378
vt 0.111010 0.784221
vt 0.114953 0.778974
vt 0.111016 0.778968
vt 0.107074 0.784216
vt 0.107080 0.778964
vt 0.107070 0.788374
vt 0.103139 0.784213
vt 0.103143 0.778960
vt 0.103136 0.788370
vt 0.107068 0.790339
vt 0.103134 0.790336
vt 0.099201 0.790333
vt 0.099202 0.788367
vt 0.099204 0.784210
vt 0.095267 0.790331
vt 0.095267 0.788366
vt 0.095269 0.784209
vt 0.099207 0.778957
vt 0.095270 0.778956
vt 0.091333 0.784208
vt 0.091334 0.778955
vt 0.091333 0.788365
vt 0.087398 0.784208
vt 0.087397 0.778955
vt 0.087399 0.788366
vt 0.091333 0.790331
vt 0.087399 0.790331
vt 0.083465 0.790332
vt 0.083464 0.788367
vt 0.083463 0.784209
vt 0.079531 0.790334
vt 0.079530 0.788369
vt 0.079527 0.784211
vt 0.083461 0.778956
vt 0.079524 0.778958
vt 0.075592 0.784214
vt 0.075587 0.778961
vt 0.075596 0.788371
vt 0.071657 0.784218
vt 0.071651 0.778965
vt 0.071661 0.788375
vt 0.075597 0.790337
vt 0.071663 0.790341
vt 0.067730 0.790345
vt 0.067727 0.788380
vt 0.067722 0.784223
vt 0.063796 0.790351
vt 0.063793 0.788386
vt 0.063786 0.784229
vt 0.067714 0.778970
vt 0.063778 0.778976
vt 0.059851 0.784236
vt 0.059841 0.778983
vt 0.059859 0.788393
vt 0.055916 0.784244
vt 0.055905 0.778991
vt 0.055925 0.788401
vt 0.059863 0.790358
vt 0.055929 0.790366
vt 0.051996 0.790375
vt 0.051998 0.791149
vt 0.048065 0.791159
vt 0.055931 0.791140
vt 0.044132 0.791170
vt 0.643322 0.231698
vt 0.644458 0.235458
vt 0.643558 0.235637
vt 0.642474 0.232049
vt 0.644845 0.239367
vt 0.643928 0.239367
vt 0.642466 0.235854
vt 0.641444 0.232475
vt 0.642815 0.239367
vt 0.641703 0.239368
vt 0.641374 0.236072
vt 0.640414 0.232901
vt 0.640303 0.239369
vt 0.640013 0.236269
vt 0.639169 0.233298
vt 0.638850 0.229983
vt 0.639777 0.229363
vt 0.637802 0.230585
vt 0.637484 0.233639
vt 0.636506 0.231156
vt 0.638099 0.236428
vt 0.635447 0.233856
vt 0.634894 0.231500
vt 0.635810 0.236533
vt 0.638316 0.239369
vt 0.635943 0.239369
vt 0.633153 0.233878
vt 0.633325 0.236566
vt 0.633390 0.239369
vt 0.635808 0.242206
vt 0.633323 0.242172
vt 0.638098 0.242310
vt 0.635444 0.244882
vt 0.633149 0.244861
vt 0.637480 0.245098
vt 0.640011 0.242467
vt 0.639165 0.245437
vt 0.637797 0.248149
vt 0.636501 0.247580
vt 0.634889 0.247238
vt 0.635950 0.250501
vt 0.635078 0.249622
vt 0.634284 0.248799
vt 0.632893 0.247320
vt 0.632803 0.249436
vt 0.633126 0.251092
vt 0.630516 0.250007
vt 0.630514 0.247575
vt 0.630700 0.252104
vt 0.633671 0.252389
vt 0.631003 0.253801
vt 0.627988 0.254720
vt 0.627855 0.252774
vt 0.627773 0.250393
vt 0.624799 0.255056
vt 0.624800 0.253023
vt 0.624801 0.250539
vt 0.627754 0.247748
vt 0.624802 0.247813
vt 0.621829 0.250391
vt 0.621745 0.252772
vt 0.621849 0.247746
vt 0.624802 0.244978
vt 0.627764 0.244964
vt 0.621840 0.244963
vt 0.619013 0.244922
vt 0.619089 0.247571
vt 0.619085 0.250003
vt 0.616455 0.244857
vt 0.616710 0.247315
vt 0.616799 0.249430
vt 0.618900 0.252100
vt 0.616475 0.251086
vt 0.618596 0.253797
vt 0.615929 0.252384
vt 0.621611 0.254718
vt 0.613651 0.250494
vt 0.614524 0.249615
vt 0.615318 0.248792
vt 0.611806 0.248141
vt 0.613101 0.247572
vt 0.614714 0.247231
vt 0.610439 0.245428
vt 0.612124 0.245090
vt 0.614161 0.244876
vt 0.613798 0.242201
vt 0.616283 0.242169
vt 0.611508 0.242302
vt 0.613665 0.239366
vt 0.616218 0.239368
vt 0.611292 0.239362
vt 0.609595 0.242458
vt 0.609305 0.239359
vt 0.609597 0.236260
vt 0.611510 0.236422
vt 0.613800 0.236530
vt 0.610443 0.233290
vt 0.612128 0.233634
vt 0.614164 0.233854
vt 0.616285 0.236566
vt 0.616458 0.233877
vt 0.614718 0.231497
vt 0.616714 0.231418
vt 0.613106 0.231151
vt 0.615322 0.229935
vt 0.616802 0.229300
vt 0.614529 0.229108
vt 0.611811 0.230578
vt 0.613656 0.228226
vt 0.615927 0.226336
vt 0.616475 0.227639
vt 0.618590 0.224924
vt 0.618898 0.226634
vt 0.619087 0.228743
vt 0.619092 0.231173
vt 0.621832 0.228391
vt 0.621853 0.231023
vt 0.621746 0.225984
vt 0.624807 0.228267
vt 0.624806 0.230972
vt 0.624808 0.225748
vt 0.621610 0.224005
vt 0.624809 0.223669
vt 0.628007 0.224007
vt 0.627869 0.225986
vt 0.627782 0.228392
vt 0.631026 0.224929
vt 0.630718 0.226637
vt 0.630527 0.228744
vt 0.627759 0.231023
vt 0.630521 0.231173
vt 0.632811 0.229303
vt 0.632899 0.231419
vt 0.633139 0.227643
vt 0.634291 0.229938
vt 0.635085 0.229113
vt 0.633688 0.226342
vt 0.635959 0.228232
vt 0.636770 0.227415
vt 0.634266 0.225297
vt 0.637553 0.226628
vt 0.634861 0.224378
vt 0.631387 0.223690
vt 0.631776 0.222682
vt 0.628180 0.222654
vt 0.628372 0.221609
vt 0.624809 0.222279
vt 0.624809 0.221228
vt 0.621246 0.221606
vt 0.621438 0.222652
vt 0.621055 0.220561
vt 0.624810 0.220176
vt 0.628564 0.220563
vt 0.624810 0.219304
vt 0.628725 0.219696
vt 0.620895 0.219694
vt 0.632164 0.221674
vt 0.632488 0.220840
vt 0.028409 0.791220
vt 0.024480 0.791236
vt 0.020570 0.791273
vt 0.032338 0.791207
vt 0.635948 0.222699
vt 0.635456 0.223458
vt 0.638983 0.225191
vt 0.638337 0.225841
vt 0.036267 0.791195
vt 0.640705 0.228744
vt 0.641469 0.228234
vt 0.040199 0.791182
vt 0.617131 0.220836
vt 0.617454 0.221669
vt 0.617842 0.222677
vt 0.613670 0.222693
vt 0.614161 0.223452
vt 0.614755 0.224372
vt 0.618230 0.223685
vt 0.615350 0.225291
vt 0.612844 0.227408
vt 0.612062 0.226621
vt 0.610764 0.229975
vt 0.609836 0.229355
vt 0.609198 0.232893
vt 0.608168 0.232466
vt 0.608235 0.236062
vt 0.607144 0.235844
vt 0.607905 0.239358
vt 0.606793 0.239357
vt 0.608234 0.242653
vt 0.607142 0.242870
vt 0.609194 0.245823
vt 0.608164 0.246249
vt 0.610758 0.248742
vt 0.609831 0.249360
vt 0.612840 0.251309
vt 0.612056 0.252095
vt 0.615350 0.253427
vt 0.614752 0.254345
vt 0.618234 0.255031
vt 0.617841 0.256039
vt 0.621437 0.256061
vt 0.621241 0.257109
vt 0.624799 0.256433
vt 0.624798 0.257487
vt 0.628356 0.257111
vt 0.628161 0.256063
vt 0.628550 0.258159
vt 0.624798 0.258542
vt 0.621046 0.258156
vt 0.624798 0.259417
vt 0.620884 0.259025
vt 0.628713 0.259027
vt 0.617448 0.257048
vt 0.617121 0.257881
vt 0.091339 0.791100
vt 0.087403 0.791099
vt 0.083466 0.791099
vt 0.095270 0.791103
vt 0.613661 0.256022
vt 0.614155 0.255264
vt 0.610625 0.253531
vt 0.611272 0.252882
vt 0.099201 0.791106
vt 0.608903 0.249979
vt 0.608138 0.250488
vt 0.606285 0.247024
vt 0.607134 0.246674
vt 0.605150 0.243264
vt 0.606050 0.243086
vt 0.604763 0.239355
vt 0.605680 0.239356
vt 0.605153 0.235446
vt 0.606052 0.235626
vt 0.606290 0.231687
vt 0.607139 0.232039
vt 0.608145 0.228224
vt 0.608909 0.228735
vt 0.610634 0.225184
vt 0.611279 0.225833
vt 0.130666 0.791154
vt 0.126734 0.791146
vt 0.134595 0.791163
vt 0.138524 0.791172
vt 0.122800 0.791137
vt 0.118867 0.791130
vt 0.114934 0.791123
vt 0.111001 0.791117
vt 0.107067 0.791113
vt 0.103134 0.791109
vt 0.632476 0.257886
vt 0.632150 0.257052
vt 0.631757 0.256044
vt 0.635938 0.256029
vt 0.635444 0.255271
vt 0.634847 0.254351
vt 0.631365 0.255035
vt 0.634250 0.253433
vt 0.636762 0.251317
vt 0.637545 0.252103
vt 0.638844 0.248750
vt 0.639771 0.249369
vt 0.640410 0.245833
vt 0.641440 0.246259
vt 0.641372 0.242663
vt 0.642464 0.242880
vt 0.643556 0.243097
vt 0.642469 0.246684
vt 0.644455 0.243276
vt 0.643318 0.247036
vt 0.641463 0.250498
vt 0.640699 0.249988
vt 0.638974 0.253538
vt 0.638328 0.252890
vt 0.067731 0.791118
vt 0.063798 0.791125
vt 0.071661 0.791112
vt 0.075592 0.791106
vt 0.059865 0.791132
vt 0.079528 0.791102
vt 0.142453 0.791183
vt 0.146360 0.791218
vt 0.630595 0.233816
vt 0.630646 0.236565
vt 0.627768 0.233781
vt 0.627774 0.236567
vt 0.630665 0.239368
vt 0.627775 0.239367
vt 0.630644 0.242172
vt 0.627772 0.242168
vt 0.630591 0.244924
vt 0.624803 0.242166
vt 0.624804 0.239367
vt 0.621832 0.239368
vt 0.621834 0.242168
vt 0.618943 0.239369
vt 0.618962 0.242171
vt 0.618964 0.236566
vt 0.621836 0.236568
vt 0.619016 0.233816
vt 0.621843 0.233782
vt 0.624806 0.233771
vt 0.624805 0.236569
vt 0.059831 0.773730
vt 0.059821 0.768476
vt 0.063761 0.768470
vt 0.063769 0.773723
vt 0.067700 0.768464
vt 0.067707 0.773717
vt 0.071639 0.768459
vt 0.071645 0.773712
vt 0.075578 0.768455
vt 0.075583 0.773708
vt 0.079517 0.768452
vt 0.079521 0.773705
vt 0.083456 0.768450
vt 0.083458 0.773703
vt 0.087395 0.768449
vt 0.087396 0.773702
vt 0.091334 0.768449
vt 0.091334 0.773702
vt 0.095274 0.768450
vt 0.095272 0.773703
vt 0.099213 0.768451
vt 0.099210 0.773704
vt 0.103152 0.768454
vt 0.103148 0.773707
vt 0.107091 0.768457
vt 0.107086 0.773710
vt 0.111030 0.768462
vt 0.111023 0.773715
vt 0.114970 0.768468
vt 0.114961 0.773721
vt 0.118909 0.768474
vt 0.118899 0.773727
vt 0.122848 0.768482
vt 0.122837 0.773735
vt 0.126788 0.768491
vt 0.126775 0.773744
vt 0.130727 0.768501
vt 0.130713 0.773754
vt 0.134666 0.768512
vt 0.134651 0.773765
vt 0.138604 0.768525
vt 0.138589 0.773778
vt 0.142542 0.768537
vt 0.142527 0.773790
vt 0.146480 0.768549
vt 0.146464 0.773803
vt 0.020431 0.768604
vt 0.024369 0.768588
vt 0.024389 0.773842
vt 0.020452 0.773858
vt 0.028307 0.768572
vt 0.028327 0.773825
vt 0.032245 0.768556
vt 0.032265 0.773809
vt 0.036185 0.768541
vt 0.036203 0.773794
vt 0.040124 0.768528
vt 0.040141 0.773780
s 1
f 1/1/1 2/2/2 402/3/2 3/4/1
f 4/5/3 1/1/1 3/4/1 6/6/3
f 5/7/4 4/5/3 6/6/3 7/8/4
f 8/9/3 10/10/4 7/8/4 6/6/3
f 9/11/1 8/9/3 6/6/3 3/4/1
f 9/11/1 12/12/1 11/13/3 8/9/3
f 14/14/4 10/10/4 8/9/3 11/13/3
f 12/12/1 118/15/1 13/16/3 11/13/3
f 16/17/4 14/14/4 11/13/3 13/16/3
f 10/10/4 14/14/4 15/18/5 465/19/5
f 14/14/4 16/17/4 18/20/5 15/18/5
f 17/21/6 16/17/4 13/16/3 121/22/7
f 16/17/4 17/21/6 19/23/8 18/20/5
f 21/24/9 20/25/10 18/20/5 19/23/8
f 20/25/10 23/26/10 15/18/5 18/20/5
f 20/25/10 21/24/9 265/27/11 22/28/12
f 23/26/10 20/25/10 22/28/12 25/29/12
f 23/26/10 24/30/10 465/19/5 15/18/5
f 24/30/10 23/26/10 25/29/12 26/31/12
f 27/32/13 28/33/13 26/31/12 25/29/12
f 30/34/13 27/32/13 25/29/12 22/28/12
f 28/33/13 27/32/13 29/35/14 457/36/14
f 27/32/13 30/34/13 32/37/14 29/35/14
f 31/38/15 30/34/13 22/28/12 265/27/11
f 30/34/13 31/38/15 33/39/16 32/37/14
f 35/40/17 34/41/18 32/37/14 33/39/16
f 34/41/18 37/42/18 29/35/14 32/37/14
f 34/43/18 35/44/17 371/45/19 36/46/20
f 37/47/18 34/43/18 36/46/20 39/48/20
f 37/42/18 38/49/18 457/36/14 29/35/14
f 38/50/18 37/47/18 39/48/20 40/51/20
f 41/52/21 42/53/21 40/51/20 39/48/20
f 44/54/21 41/52/21 39/48/20 36/46/20
f 42/53/21 41/52/21 43/55/22 448/56/22
f 41/52/21 44/54/21 46/57/22 43/55/22
f 45/58/23 44/54/21 36/46/20 371/45/19
f 44/54/21 45/58/23 47/59/24 46/57/22
f 49/60/25 48/61/26 46/57/22 47/59/24
f 48/61/26 51/62/26 43/55/22 46/57/22
f 48/61/26 49/60/25 341/63/27 50/64/28
f 51/62/26 48/61/26 50/64/28 53/65/28
f 51/62/26 52/66/26 448/56/22 43/55/22
f 52/66/26 51/62/26 53/65/28 54/67/28
f 55/68/29 56/69/29 54/67/28 53/65/28
f 58/70/29 55/68/29 53/65/28 50/64/28
f 56/69/29 55/68/29 57/71/30 439/72/30
f 55/68/29 58/70/29 60/73/30 57/71/30
f 59/74/31 58/70/29 50/64/28 341/63/27
f 58/70/29 59/74/31 61/75/32 60/73/30
f 63/76/33 62/77/34 60/73/30 61/75/32
f 62/77/34 65/78/34 57/71/30 60/73/30
f 62/77/34 63/76/33 342/79/35 64/80/36
f 65/78/34 62/77/34 64/80/36 67/81/36
f 65/78/34 66/82/34 439/72/30 57/71/30
f 66/82/34 65/78/34 67/81/36 68/83/36
f 69/84/37 70/85/37 68/83/36 67/81/36
f 72/86/37 69/84/37 67/81/36 64/80/36
f 70/85/37 69/84/37 71/87/38 430/88/38
f 69/84/37 72/86/37 74/89/38 71/87/38
f 73/90/39 72/86/37 64/80/36 342/79/35
f 72/86/37 73/90/39 75/91/40 74/89/38
f 77/92/41 76/93/42 74/89/38 75/91/40
f 76/93/42 79/94/42 71/87/38 74/89/38
f 76/93/42 77/92/41 321/95/43 78/96/44
f 79/94/42 76/93/42 78/96/44 81/97/44
f 79/94/42 80/98/42 430/88/38 71/87/38
f 80/98/42 79/94/42 81/97/44 82/99/44
f 83/100/45 84/101/45 82/99/44 81/97/44
f 86/102/45 83/100/45 81/97/44 78/96/44
f 84/101/45 83/100/45 85/103/46 421/104/46
f 83/100/45 86/102/45 88/105/46 85/103/46
f 87/106/47 86/102/45 78/96/44 321/95/43
f 86/102/45 87/106/47 89/107/48 88/105/46
f 91/108/49 90/109/50 88/105/46 89/107/48
f 90/109/50 93/110/50 85/103/46 88/105/46
f 90/109/50 91/108/49 370/111/51 92/112/52
f 93/110/50 90/109/50 92/112/52 95/113/52
f 93/110/50 94/114/50 421/104/46 85/103/46
f 94/114/50 93/110/50 95/113/52 96/115/52
f 97/116/53 98/117/53 96/115/52 95/113/52
f 100/118/53 97/116/53 95/113/52 92/112/52
f 98/117/53 97/116/53 99/119/54 412/120/54
f 97/116/53 100/118/53 102/121/54 99/119/54
f 101/122/55 100/118/53 92/112/52 370/111/51
f 100/118/53 101/122/55 103/123/56 102/121/54
f 105/124/57 104/125/58 102/121/54 103/123/56
f 104/125/58 107/126/58 99/119/54 102/121/54
f 104/125/58 105/124/57 369/127/59 106/128/60
f 107/126/58 104/125/58 106/128/60 109/129/60
f 107/126/58 108/130/58 412/120/54 99/119/54
f 108/130/58 107/126/58 109/129/60 110/131/60
f 111/132/61 112/133/61 110/131/60 109/129/60
f 114/134/61 111/132/61 109/129/60 106/128/60
f 112/133/61 111/132/61 113/135/2 401/136/2
f 111/132/61 114/134/61 116/137/2 113/135/2
f 115/138/62 114/134/61 106/128/60 369/127/59
f 114/134/61 115/138/62 117/139/63 116/137/2
f 119/140/64 118/15/1 116/137/2 117/139/63
f 118/15/1 12/12/1 113/135/2 116/137/2
f 118/15/1 119/140/64 121/22/7 13/16/3
f 119/140/64 120/141/65 122/142/66 121/22/7
f 120/141/65 119/140/64 117/139/63 361/143/67
f 123/144/68 17/21/6 121/22/7 122/142/66
f 123/145/68 122/146/66 124/147/69 125/148/70
f 122/146/66 120/149/65 126/150/71 124/147/69
f 127/151/72 129/152/73 125/148/70 124/147/69
f 128/153/74 127/151/72 124/147/69 126/150/71
f 128/153/74 131/154/75 130/155/76 127/151/72
f 133/156/77 129/152/73 127/151/72 130/155/76
f 131/154/75 400/157/78 132/158/79 130/155/76
f 135/159/80 133/156/77 130/155/76 132/158/79
f 129/152/73 133/156/77 134/160/81 270/161/82
f 133/156/77 135/159/80 136/162/83 134/160/81
f 136/162/83 135/159/80 137/163/84 138/164/85
f 135/159/80 132/158/79 140/165/86 137/163/84
f 139/166/87 372/167/88 138/164/85 137/163/84
f 142/168/89 139/166/87 137/163/84 140/165/86
f 132/158/79 400/157/78 141/169/90 140/165/86
f 144/170/91 142/168/89 140/165/86 141/169/90
f 373/171/92 139/166/87 142/168/89 143/172/93
f 144/170/91 145/173/94 143/172/93 142/168/89
f 145/173/94 144/170/91 146/174/95 147/175/96
f 146/174/95 144/170/91 141/169/90 149/176/97
f 148/177/98 384/178/99 147/175/96 146/174/95
f 148/177/98 146/174/95 149/176/97 151/179/100
f 150/180/101 152/181/102 151/179/100 149/176/97
f 400/157/78 150/180/101 149/176/97 141/169/90
f 152/181/102 154/182/103 153/183/104 151/179/100
f 156/184/105 148/177/98 151/179/100 153/183/104
f 154/182/103 354/185/106 155/186/107 153/183/104
f 158/187/108 156/184/105 153/183/104 155/186/107
f 384/178/99 148/177/98 156/184/105 157/188/109
f 158/187/108 159/189/110 157/188/109 156/184/105
f 159/189/110 158/187/108 155/186/107 161/190/111
f 159/189/110 160/191/112 385/192/113 157/188/109
f 160/191/112 159/189/110 161/190/111 163/193/114
f 162/194/115 164/195/116 163/193/114 161/190/111
f 354/185/106 162/194/115 161/190/111 155/186/107
f 164/195/116 166/196/117 165/197/118 163/193/114
f 168/198/119 160/191/112 163/193/114 165/197/118
f 166/196/117 309/199/120 167/200/121 165/197/118
f 170/201/122 168/198/119 165/197/118 167/200/121
f 160/191/112 168/198/119 169/202/123 385/192/113
f 168/198/119 170/201/122 172/203/124 169/202/123
f 171/204/125 170/201/122 167/200/121 183/205/126
f 170/201/122 171/204/125 174/206/127 172/203/124
f 173/207/128 383/208/129 169/202/123 172/203/124
f 175/209/130 173/207/128 172/203/124 174/206/127
f 177/210/131 175/209/130 174/206/127 176/211/132
f 171/204/125 179/212/133 176/211/132 174/206/127
f 194/213/134 177/210/131 176/211/132 178/214/135
f 179/212/133 180/215/136 178/214/135 176/211/132
f 180/215/136 179/212/133 181/216/137 184/217/138
f 179/212/133 171/204/125 183/205/126 181/216/137
f 182/218/139 185/219/140 184/217/138 181/216/137
f 306/220/141 182/218/139 181/216/137 183/205/126
f 185/219/140 187/221/142 186/222/143 184/217/138
f 188/223/144 180/215/136 184/217/138 186/222/143
f 187/221/142 190/224/145 189/225/146 186/222/143
f 192/226/147 188/223/144 186/222/143 189/225/146
f 190/224/145 296/227/148 191/228/149 189/225/146
f 193/229/150 192/226/147 189/225/146 191/228/149
f 180/215/136 188/223/144 192/226/147 178/214/135
f 193/229/150 194/213/134 178/214/135 192/226/147
f 194/213/134 193/229/150 195/230/151 196/231/152
f 195/230/151 193/229/150 191/228/149 198/232/153
f 197/233/154 392/234/155 196/231/152 195/230/151
f 197/233/154 195/230/151 198/232/153 200/235/156
f 199/236/157 201/237/158 200/235/156 198/232/153
f 296/227/148 199/236/157 198/232/153 191/228/149
f 201/237/158 203/238/159 202/239/160 200/235/156
f 205/240/161 197/233/154 200/235/156 202/239/160
f 203/238/159 287/241/162 204/242/163 202/239/160
f 207/243/164 205/240/161 202/239/160 204/242/163
f 392/234/155 197/233/154 205/240/161 206/244/165
f 207/243/164 208/245/166 206/244/165 205/240/161
f 208/245/166 207/243/164 209/246/167 210/247/168
f 209/246/167 207/243/164 204/242/163 212/248/169
f 211/249/170 219/250/171 210/247/168 209/246/167
f 211/249/170 209/246/167 212/248/169 214/251/172
f 213/252/173 215/253/174 214/251/172 212/248/169
f 287/241/162 213/252/173 212/248/169 204/242/163
f 215/253/174 217/254/175 216/255/176 214/251/172
f 219/250/171 211/249/170 214/251/172 216/255/176
f 217/254/175 279/256/177 218/257/178 216/255/176
f 220/258/179 219/250/171 216/255/176 218/257/178
f 219/250/171 220/258/179 221/259/180 210/247/168
f 220/258/179 222/260/181 223/261/182 221/259/180
f 222/260/181 220/258/179 218/257/178 225/262/183
f 222/260/181 224/263/184 399/264/185 223/261/182
f 224/263/184 222/260/181 225/262/183 227/265/186
f 226/266/187 228/267/188 227/265/186 225/262/183
f 279/256/177 226/266/187 225/262/183 218/257/178
f 228/267/188 230/268/189 229/269/190 227/265/186
f 232/270/191 224/263/184 227/265/186 229/269/190
f 230/268/189 250/271/192 231/272/193 229/269/190
f 234/273/194 232/270/191 229/269/190 231/272/193
f 224/263/184 232/270/191 233/274/195 399/264/185
f 232/270/191 234/273/194 235/275/196 233/274/195
f 234/273/194 236/276/197 237/277/198 235/275/196
f 236/276/197 234/273/194 231/272/193 239/278/199
f 236/276/197 238/279/200 372/167/88 237/277/198
f 238/279/200 236/276/197 239/278/199 241/280/201
f 240/281/202 242/282/203 241/280/201 239/278/199
f 250/271/192 240/281/202 239/278/199 231/272/193
f 242/282/203 136/162/83 138/164/85 241/280/201
f 372/167/88 238/279/200 241/280/201 138/164/85
f 243/283/204 242/282/203 240/281/202 245/284/205
f 242/282/203 243/283/204 134/160/81 136/162/83
f 243/283/204 244/285/206 270/161/82 134/160/81
f 244/285/206 243/283/204 245/284/205 246/286/207
f 247/287/208 248/288/209 246/286/207 245/284/205
f 250/271/192 247/287/208 245/284/205 240/281/202
f 248/288/209 247/287/208 249/289/210 251/290/211
f 247/287/208 250/271/192 230/268/189 249/289/210
f 252/291/212 254/292/213 251/290/211 249/289/210
f 228/267/188 252/291/212 249/289/210 230/268/189
f 255/293/214 254/292/213 252/291/212 253/294/215
f 228/267/188 226/266/187 253/294/215 252/291/212
f 254/292/213 255/293/214 258/295/216 256/296/217
f 254/292/213 256/296/217 259/297/218 251/290/211
f 256/296/217 257/298/219 261/299/220 259/297/218
f 271/300/221 257/298/219 256/296/217 258/295/216
f 260/301/222 248/288/209 251/290/211 259/297/218
f 262/302/223 260/301/222 259/297/218 261/299/220
f 31/38/15 262/303/223 261/304/220 33/39/16
f 257/305/219 35/40/17 33/39/16 261/304/220
f 262/303/223 31/38/15 265/27/11 263/306/224
f 260/301/222 262/302/223 263/307/224 266/308/225
f 264/309/226 267/310/227 266/308/225 263/307/224
f 21/24/9 264/311/226 263/306/224 265/27/11
f 267/310/227 244/285/206 246/286/207 266/308/225
f 248/288/209 260/301/222 266/308/225 246/286/207
f 270/161/82 244/285/206 267/310/227 268/312/228
f 264/309/226 269/313/229 268/312/228 267/310/227
f 269/313/229 123/145/68 125/148/70 268/312/228
f 129/152/73 270/161/82 268/312/228 125/148/70
f 264/311/226 21/24/9 19/23/8 269/314/229
f 17/21/6 123/144/68 269/314/229 19/23/8
f 273/315/230 271/300/221 258/295/216 272/316/231
f 255/293/214 275/317/232 272/316/231 258/295/216
f 340/318/233 273/315/230 272/316/231 274/319/234
f 275/317/232 276/320/235 274/319/234 272/316/231
f 276/320/235 275/317/232 277/321/236 278/322/237
f 275/317/232 255/293/214 253/294/215 277/321/236
f 279/256/177 217/254/175 278/322/237 277/321/236
f 226/266/187 279/256/177 277/321/236 253/294/215
f 217/254/175 215/253/174 280/323/238 278/322/237
f 281/324/239 276/320/235 278/322/237 280/323/238
f 281/324/239 280/323/238 282/325/240 283/326/241
f 280/323/238 215/253/174 213/252/173 282/325/240
f 284/327/242 285/328/243 283/326/241 282/325/240
f 287/241/162 284/327/242 282/325/240 213/252/173
f 285/328/243 284/327/242 286/329/244 288/330/245
f 284/327/242 287/241/162 203/238/159 286/329/244
f 289/331/246 290/332/247 288/330/245 286/329/244
f 201/237/158 289/331/246 286/329/244 203/238/159
f 290/332/247 289/331/246 291/333/248 292/334/249
f 289/331/246 201/237/158 199/236/157 291/333/248
f 293/335/250 294/336/251 292/334/249 291/333/248
f 296/227/148 293/335/250 291/333/248 199/236/157
f 294/336/251 293/335/250 295/337/252 297/338/253
f 293/335/250 296/227/148 190/224/145 295/337/252
f 298/339/254 299/340/255 297/338/253 295/337/252
f 187/221/142 298/339/254 295/337/252 190/224/145
f 298/339/254 187/221/142 185/219/140 300/341/256
f 299/340/255 298/339/254 300/341/256 301/342/257
f 302/343/258 303/344/259 301/342/257 300/341/256
f 182/218/139 302/343/258 300/341/256 185/219/140
f 303/344/259 302/343/258 304/345/260 305/346/261
f 302/343/258 182/218/139 306/220/141 304/345/260
f 307/347/262 310/348/263 305/346/261 304/345/260
f 309/199/120 307/347/262 304/345/260 306/220/141
f 311/349/264 310/348/263 307/347/262 308/350/265
f 309/199/120 166/196/117 308/350/265 307/347/262
f 310/348/263 311/349/264 314/351/266 312/352/267
f 310/348/263 312/352/267 315/353/268 305/346/261
f 312/352/267 313/354/269 317/355/270 315/353/268
f 343/356/271 313/354/269 312/352/267 314/351/266
f 316/357/272 303/344/259 305/346/261 315/353/268
f 318/358/273 316/357/272 315/353/268 317/355/270
f 87/106/47 318/359/273 317/360/270 89/107/48
f 313/361/269 91/108/49 89/107/48 317/360/270
f 318/359/273 87/106/47 321/95/43 319/362/274
f 316/357/272 318/358/273 319/363/274 322/364/275
f 320/365/276 323/366/277 322/364/275 319/363/274
f 77/92/41 320/367/276 319/362/274 321/95/43
f 323/366/277 299/340/255 301/342/257 322/364/275
f 303/344/259 316/357/272 322/364/275 301/342/257
f 297/338/253 299/340/255 323/366/277 324/368/278
f 320/365/276 325/369/279 324/368/278 323/366/277
f 325/369/279 327/370/280 326/371/281 324/368/278
f 294/336/251 297/338/253 324/368/278 326/371/281
f 327/370/280 329/372/282 328/373/283 326/371/281
f 292/334/249 294/336/251 326/371/281 328/373/283
f 329/372/282 331/374/284 330/375/285 328/373/283
f 290/332/247 292/334/249 328/373/283 330/375/285
f 331/374/284 333/376/286 332/377/287 330/375/285
f 288/330/245 290/332/247 330/375/285 332/377/287
f 333/376/286 335/378/288 334/379/289 332/377/287
f 285/328/243 288/330/245 332/377/287 334/379/289
f 335/378/288 337/380/290 336/381/291 334/379/289
f 283/326/241 285/328/243 334/379/289 336/381/291
f 337/380/290 339/382/292 338/383/293 336/381/291
f 281/324/239 283/326/241 336/381/291 338/383/293
f 339/382/292 340/318/233 274/319/234 338/383/293
f 276/320/235 281/324/239 338/383/293 274/319/234
f 49/60/25 339/384/292 337/385/290 341/63/27
f 339/384/292 49/60/25 47/59/24 340/386/233
f 45/58/23 273/387/230 340/386/233 47/59/24
f 335/388/288 59/74/31 341/63/27 337/385/290
f 59/74/31 335/388/288 333/389/286 61/75/32
f 331/390/284 63/76/33 61/75/32 333/389/286
f 63/76/33 331/390/284 329/391/282 342/79/35
f 327/392/280 73/90/39 342/79/35 329/391/282
f 73/90/39 327/392/280 325/393/279 75/91/40
f 320/367/276 77/92/41 75/91/40 325/393/279
f 345/394/294 343/356/271 314/351/266 344/395/295
f 311/349/264 347/396/296 344/395/295 314/351/266
f 368/397/297 345/394/294 344/395/295 346/398/298
f 347/396/296 348/399/299 346/398/298 344/395/295
f 348/399/299 347/396/296 349/400/300 350/401/301
f 347/396/296 311/349/264 308/350/265 349/400/300
f 164/195/116 162/194/115 350/401/301 349/400/300
f 166/196/117 164/195/116 349/400/300 308/350/265
f 162/194/115 354/185/106 351/402/302 350/401/301
f 352/403/303 348/399/299 350/401/301 351/402/302
f 352/403/303 351/402/302 353/404/304 355/405/305
f 351/402/302 354/185/106 154/182/103 353/404/304
f 356/406/306 357/407/307 355/405/305 353/404/304
f 152/181/102 356/406/306 353/404/304 154/182/103
f 357/407/307 356/406/306 358/408/308 359/409/309
f 356/406/306 152/181/102 150/180/101 358/408/308
f 131/154/75 128/153/74 359/409/309 358/408/308
f 400/157/78 131/154/75 358/408/308 150/180/101
f 357/407/307 359/409/309 360/410/310 362/411/311
f 359/409/309 128/153/74 126/150/71 360/410/310
f 361/412/67 363/413/312 362/411/311 360/410/310
f 120/149/65 361/412/67 360/410/310 126/150/71
f 363/413/312 365/414/313 364/415/314 362/411/311
f 355/405/305 357/407/307 362/411/311 364/415/314
f 365/414/313 367/416/315 366/417/316 364/415/314
f 352/403/303 355/405/305 364/415/314 366/417/316
f 367/416/315 368/397/297 346/398/298 366/417/316
f 348/399/299 352/403/303 366/417/316 346/398/298
f 105/124/57 367/418/315 365/419/313 369/127/59
f 367/418/315 105/124/57 103/123/56 368/420/297
f 101/122/55 345/421/294 368/420/297 103/123/56
f 363/422/312 115/138/62 369/127/59 365/419/313
f 115/138/62 363/422/312 361/143/67 117/139/63
f 345/421/294 101/122/55 370/111/51 343/423/271
f 91/108/49 313/361/269 343/423/271 370/111/51
f 309/199/120 306/220/141 183/205/126 167/200/121
f 273/387/230 45/58/23 371/45/19 271/424/221
f 35/44/17 257/425/219 271/424/221 371/45/19
f 139/166/87 373/171/92 237/277/198 372/167/88
f 373/171/92 374/426/317 235/275/196 237/277/198
f 374/426/317 373/171/92 143/172/93 376/427/318
f 375/428/319 374/426/317 376/427/318 377/429/320
f 374/426/317 375/428/319 233/274/195 235/275/196
f 378/430/321 379/431/322 377/429/320 376/427/318
f 145/173/94 378/430/321 376/427/318 143/172/93
f 379/431/322 378/430/321 380/432/323 381/433/324
f 378/430/321 145/173/94 147/175/96 380/432/323
f 382/434/325 383/208/129 381/433/324 380/432/323
f 384/178/99 382/434/325 380/432/323 147/175/96
f 383/208/129 382/434/325 385/192/113 169/202/123
f 382/434/325 384/178/99 157/188/109 385/192/113
f 383/208/129 173/207/128 386/435/326 381/433/324
f 387/436/327 379/431/322 381/433/324 386/435/326
f 389/437/328 387/436/327 386/435/326 388/438/329
f 173/207/128 175/209/130 388/438/329 386/435/326
f 391/439/330 389/437/328 388/438/329 390/440/331
f 175/209/130 177/210/131 390/440/331 388/438/329
f 392/234/155 391/439/330 390/440/331 196/231/152
f 177/210/131 194/213/134 196/231/152 390/440/331
f 391/439/330 392/234/155 206/244/165 393/441/332
f 389/437/328 391/439/330 393/441/332 395/442/333
f 394/443/334 396/444/335 395/442/333 393/441/332
f 208/245/166 394/443/334 393/441/332 206/244/165
f 396/444/335 398/445/336 397/446/337 395/442/333
f 387/436/327 389/437/328 395/442/333 397/446/337
f 398/445/336 375/428/319 377/429/320 397/446/337
f 379/431/322 387/436/327 397/446/337 377/429/320
f 398/445/336 396/444/335 223/261/182 399/264/185
f 375/428/319 398/445/336 399/264/185 233/274/195
f 396/444/335 394/443/334 221/259/180 223/261/182
f 394/443/334 208/245/166 210/247/168 221/259/180
f 12/12/1 9/11/1 401/136/2 113/135/2
f 112/133/61 401/136/2 402/3/2 403/447/61
f 401/136/2 9/11/1 3/4/1 402/3/2
f 2/2/2 404/448/61 403/447/61 402/3/2
f 404/448/61 406/449/60 405/450/60 403/447/61
f 110/131/60 112/133/61 403/447/61 405/450/60
f 406/449/60 408/451/58 407/452/58 405/450/60
f 108/130/58 110/131/60 405/450/60 407/452/58
f 408/451/58 410/453/54 409/454/54 407/452/58
f 412/120/54 108/130/58 407/452/58 409/454/54
f 410/453/54 413/455/53 411/456/53 409/454/54
f 98/117/53 412/120/54 409/454/54 411/456/53
f 413/455/53 415/457/52 414/458/52 411/456/53
f 96/115/52 98/117/53 411/456/53 414/458/52
f 415/457/52 417/459/50 416/460/50 414/458/52
f 94/114/50 96/115/52 414/458/52 416/460/50
f 417/459/50 419/461/46 418/462/46 416/460/50
f 421/104/46 94/114/50 416/460/50 418/462/46
f 419/461/46 422/463/45 420/464/45 418/462/46
f 84/101/45 421/104/46 418/462/46 420/464/45
f 422/463/45 424/465/44 423/466/44 420/464/45
f 82/99/44 84/101/45 420/464/45 423/466/44
f 424/465/44 426/467/42 425/468/42 423/466/44
f 80/98/42 82/99/44 423/466/44 425/468/42
f 426/467/42 428/469/38 427/470/38 425/468/42
f 430/88/38 80/98/42 425/468/42 427/470/38
f 428/469/38 431/471/37 429/472/37 427/470/38
f 70/85/37 430/88/38 427/470/38 429/472/37
f 431/471/37 433/473/36 432/474/36 429/472/37
f 68/83/36 70/85/37 429/472/37 432/474/36
f 433/473/36 435/475/34 434/476/34 432/474/36
f 66/82/34 68/83/36 432/474/36 434/476/34
f 435/475/34 437/477/30 436/478/30 434/476/34
f 439/72/30 66/82/34 434/476/34 436/478/30
f 437/477/30 440/479/29 438/480/29 436/478/30
f 56/69/29 439/72/30 436/478/30 438/480/29
f 440/479/29 442/481/28 441/482/28 438/480/29
f 54/67/28 56/69/29 438/480/29 441/482/28
f 442/481/28 444/483/26 443/484/26 441/482/28
f 52/66/26 54/67/28 441/482/28 443/484/26
f 444/483/26 446/485/22 445/486/22 443/484/26
f 448/56/22 52/66/26 443/484/26 445/486/22
f 446/485/22 449/487/21 447/488/21 445/486/22
f 42/53/21 448/56/22 445/486/22 447/488/21
f 449/487/21 451/489/20 450/490/20 447/488/21
f 40/51/20 42/53/21 447/488/21 450/490/20
f 451/489/20 453/491/18 452/492/18 450/490/20
f 38/50/18 40/51/20 450/490/20 452/492/18
f 453/493/18 455/494/14 454/495/14 452/496/18
f 457/36/14 38/49/18 452/496/18 454/495/14
f 455/494/14 458/497/13 456/498/13 454/495/14
f 28/33/13 457/36/14 454/495/14 456/498/13
f 458/497/13 460/499/12 459/500/12 456/498/13
f 26/31/12 28/33/13 456/498/13 459/500/12
f 460/499/12 462/501/10 461/502/10 459/500/12
f 24/30/10 26/31/12 459/500/12 461/502/10
f 462/501/10 464/503/5 463/504/5 461/502/10
f 465/19/5 24/30/10 461/502/10 463/504/5
f 464/503/5 5/7/4 7/8/4 463/504/5
f 10/10/4 465/19/5 463/504/5 7/8/4
