# resplit fleet-anatomy cap cut
v -42.9708 -29.4603 18.0564
v -42.2513 -29.4603 17.4672
v -42.2513 -33.5862 17.4672
v -42.9708 -33.5862 18.0564
v -41.4315 -29.4603 17.0279
v -41.4315 -33.5862 17.0280
v -43.5601 -33.5862 18.7759
v -43.5601 -29.4603 18.7759
v -40.5413 -29.4603 16.7588
v -40.5413 -33.5862 16.7588
v -39.6158 -33.5862 16.6668
v -39.6158 -29.4603 16.6668
v -38.6904 -29.4603 16.7588
v -38.6904 -33.5862 16.7588
v -37.8002 -29.4603 17.0279
v -36.9804 -29.4603 17.4672
v -36.9804 -33.5862 17.4672
v -37.8002 -33.5862 17.0280
v -36.2609 -29.4603 18.0564
v -36.2609 -33.5862 18.0565
v -35.6716 -29.4603 18.7759
v -35.6716 -33.5862 18.7759
v -35.2324 -29.4603 19.5957
v -34.9633 -29.4603 20.4859
v -34.9633 -33.5862 20.4859
v -35.2324 -33.5862 19.5957
v -34.8712 -29.4603 21.4259
v -34.8713 -33.5862 21.4114
v -34.9633 -29.4603 22.3368
v -34.9633 -33.5862 22.3368
v -35.2324 -29.4603 23.2271
v -35.6716 -29.4603 24.0469
v -35.6716 -33.5862 24.0469
v -35.2324 -33.5862 23.2271
v -36.2609 -29.4603 24.7663
v -36.2609 -33.5862 24.7663
v -36.9804 -29.4603 25.3556
v -36.9804 -33.5862 25.3556
v -37.8002 -29.4603 25.7948
v -38.6904 -29.4603 26.0639
v -38.6904 -33.5862 26.0639
v -37.8002 -33.5862 25.7948
v -39.6158 -29.4603 26.1560
v -39.6158 -33.5862 26.1560
v -40.5413 -29.4603 26.0639
v -40.5413 -33.5862 26.0639
v -41.4315 -29.4603 25.7948
v -42.2513 -29.4603 25.3556
v -42.2513 -33.5862 25.3556
v -41.4315 -33.5862 25.7948
v -42.9708 -29.4603 24.7663
v -42.9708 -33.5862 24.7663
v -43.5601 -29.4603 24.0469
v -43.5601 -33.5862 24.0469
v -43.9993 -29.4603 23.2271
v -44.2684 -29.4603 22.3368
v -44.2684 -33.5862 22.3368
v -43.9993 -33.5862 23.2271
v -44.3604 -29.4603 21.4259
v -44.3604 -33.5862 21.4114
v -44.2684 -29.4603 20.4859
v -44.2684 -33.5862 20.4859
v -43.9993 -29.4603 19.5957
v -43.9993 -33.5862 19.5957
v -39.6158 -29.3144 16.6457
v -39.6158 -29.4603 16.6668
v -40.5413 -29.4603 16.7588
v -40.5454 -29.3144 16.7382
v -38.6863 -29.3144 16.7382
v -38.6904 -29.4603 16.7588
v -39.6158 -29.2356 16.5826
v -38.6739 -29.2356 16.6762
v -40.5577 -29.2356 16.6762
v -39.6158 -29.0714 16.2772
v -38.6144 -29.0714 16.3768
v -40.6173 -29.0714 16.3768
v -41.4637 -29.2356 16.9501
v -41.5806 -29.0714 16.6680
v -41.4396 -29.3144 17.0085
v -42.2981 -29.2356 17.3971
v -42.4677 -29.0714 17.1433
v -42.2630 -29.3144 17.4496
v -41.4315 -29.4603 17.0279
v -42.2513 -29.4603 17.4672
v -42.9857 -29.3144 18.0416
v -43.0303 -29.2356 17.9969
v -42.9708 -29.4603 18.0564
v -43.5601 -29.4603 18.7759
v -43.5776 -29.3144 18.7642
v -44.0187 -29.3144 19.5877
v -43.9993 -29.4603 19.5957
v -44.2684 -29.4603 20.4859
v -44.2890 -29.3144 20.4818
v -44.0771 -29.2356 19.5635
v -44.3510 -29.2356 20.4695
v -43.6301 -29.2356 18.7291
v -44.3592 -29.0714 19.4466
v -43.8840 -29.0714 18.5595
v -44.6504 -29.0714 20.4099
v -43.2463 -29.0714 17.7810
v -43.7749 -28.6694 17.2523
v -44.5055 -28.6694 18.1442
v -45.0500 -28.6694 19.1605
v -42.8830 -28.6694 16.5217
v -41.8667 -28.6694 15.9773
v -44.4581 -28.1095 16.5692
v -43.4196 -28.1095 15.7186
v -42.2364 -28.1095 15.0847
v -40.9516 -28.1095 14.6963
v -40.7631 -28.6694 15.6437
v -39.6158 -28.1095 14.5634
v -39.6158 -28.6694 15.5295
v -38.4686 -28.6694 15.6437
v -38.2801 -28.1095 14.6963
v -39.6158 -27.4720 13.6027
v -38.0927 -27.4720 13.7541
v -41.1390 -27.4720 13.7541
v -39.6158 -26.7314 12.7011
v -37.9169 -26.7314 12.8700
v -41.3148 -26.7314 12.8700
v -42.9491 -26.7314 13.3641
v -42.6041 -27.4720 14.1971
v -44.4541 -26.7314 14.1704
v -43.9533 -27.4720 14.9199
v -45.7750 -26.7314 15.2522
v -45.1374 -27.4720 15.8898
v -46.8568 -26.7314 16.5731
v -46.1073 -27.4720 17.0739
v -45.3086 -28.1095 17.6076
v -45.9425 -28.1095 18.7908
v -46.8302 -27.4720 18.4231
v -45.3836 -28.6694 20.2641
v -46.3309 -28.1096 20.0756
v -47.2731 -27.4723 19.8882
v -47.6631 -26.7322 18.0780
v -48.1572 -26.7345 19.7121
v -48.3262 -26.7374 21.4355
v -47.4246 -27.4728 21.4329
v -46.4638 -28.1098 21.4307
v -48.1572 -26.7398 23.1096
v -47.2731 -27.4734 22.9344
v -46.3309 -28.1099 22.7471
v -45.4977 -28.6694 21.4287
v -45.3836 -28.6694 22.5587
v -45.9425 -28.1100 24.0319
v -46.8302 -27.4737 24.3995
v -45.0500 -28.6694 23.6623
v -44.3592 -29.0714 23.3762
v -44.6504 -29.0714 22.4128
v -44.7500 -29.0715 21.4273
v -44.0771 -29.2356 23.2593
v -44.3510 -29.2356 22.3533
v -44.4447 -29.2357 21.4267
v -44.3815 -29.3145 21.4264
v -44.2890 -29.3144 22.3410
v -44.0187 -29.3144 23.2351
v -43.6301 -29.2356 24.0936
v -43.8840 -29.0714 24.2633
v -43.5776 -29.3144 24.0585
v -43.9993 -29.4603 23.2271
v -44.2684 -29.4603 22.3368
v -43.5601 -29.4603 24.0469
v -42.9857 -29.3144 24.7812
v -43.0303 -29.2356 24.8259
v -42.9708 -29.4603 24.7663
v -42.2513 -29.4603 25.3556
v -42.2630 -29.3144 25.3731
v -42.2981 -29.2356 25.4257
v -43.2463 -29.0714 25.0418
v -42.4677 -29.0714 25.6795
v -41.4637 -29.2356 25.8727
v -41.5806 -29.0714 26.1548
v -41.4396 -29.3144 25.8143
v -40.5577 -29.2356 26.1466
v -40.6173 -29.0714 26.4460
v -40.5454 -29.3144 26.0846
v -41.4315 -29.4603 25.7948
v -40.5413 -29.4603 26.0639
v -39.6158 -29.3144 26.1770
v -39.6158 -29.2356 26.2402
v -39.6158 -29.4603 26.1560
v -38.6904 -29.4603 26.0639
v -38.6863 -29.3144 26.0846
v -38.6739 -29.2356 26.1466
v -39.6158 -29.0714 26.5456
v -38.6144 -29.0714 26.4460
v -37.7679 -29.2356 25.8727
v -37.6511 -29.0714 26.1548
v -37.7921 -29.3144 25.8143
v -36.9336 -29.2356 25.4257
v -36.7640 -29.0714 25.6795
v -36.9687 -29.3144 25.3731
v -37.8002 -29.4603 25.7948
v -36.9804 -29.4603 25.3556
v -36.2460 -29.3144 24.7812
v -36.2013 -29.2356 24.8259
v -36.2609 -29.4603 24.7663
v -35.6716 -29.4603 24.0469
v -35.6541 -29.3144 24.0585
v -35.6016 -29.2356 24.0936
v -35.9854 -29.0714 25.0418
v -35.3477 -29.0714 24.2633
v -35.1546 -29.2356 23.2593
v -34.8724 -29.0714 23.3762
v -35.2129 -29.3144 23.2351
v -34.8807 -29.2356 22.3533
v -34.5812 -29.0714 22.4128
v -34.9426 -29.3144 22.3410
v -35.2324 -29.4603 23.2271
v -34.9633 -29.4603 22.3368
v -34.8502 -29.3145 21.4264
v -34.7870 -29.2357 21.4267
v -34.8712 -29.4603 21.4259
v -34.9633 -29.4603 20.4859
v -34.9426 -29.3144 20.4818
v -34.8807 -29.2356 20.4695
v -34.4816 -29.0715 21.4273
v -34.5812 -29.0714 20.4099
v -35.1546 -29.2356 19.5635
v -34.8724 -29.0714 19.4466
v -35.2129 -29.3144 19.5877
v -35.6016 -29.2356 18.7291
v -35.3477 -29.0714 18.5595
v -35.6541 -29.3144 18.7642
v -35.2324 -29.4603 19.5957
v -35.6716 -29.4603 18.7759
v -36.2460 -29.3144 18.0416
v -36.2013 -29.2356 17.9969
v -36.2609 -29.4603 18.0564
v -36.9804 -29.4603 17.4672
v -36.9687 -29.3144 17.4496
v -36.9336 -29.2356 17.3971
v -35.9854 -29.0714 17.7810
v -36.7640 -29.0714 17.1433
v -37.7679 -29.2356 16.9501
v -37.6511 -29.0714 16.6680
v -37.7921 -29.3144 17.0085
v -37.8002 -29.4603 17.0279
v -37.3649 -28.6694 15.9773
v -36.3487 -28.6694 16.5217
v -36.9952 -28.1095 15.0847
v -35.8120 -28.1095 15.7186
v -35.4567 -28.6694 17.2523
v -34.7736 -28.1095 16.5692
v -33.9230 -28.1095 17.6076
v -34.7262 -28.6694 18.1442
v -34.1817 -28.6694 19.1605
v -33.2891 -28.1095 18.7908
v -32.9007 -28.1095 20.0757
v -33.8481 -28.6694 20.2641
v -33.7340 -28.6694 21.4287
v -32.7679 -28.1096 21.4307
v -32.9007 -28.1095 22.7471
v -33.8481 -28.6694 22.5587
v -34.1817 -28.6694 23.6623
v -33.2891 -28.1095 24.0320
v -33.9230 -28.1095 25.2152
v -34.7262 -28.6694 24.6785
v -35.4567 -28.6694 25.5705
v -34.7736 -28.1095 26.2536
v -35.8120 -28.1095 27.1042
v -36.3487 -28.6694 26.3010
v -37.3649 -28.6694 26.8455
v -36.9952 -28.1095 27.7381
v -38.2801 -28.1095 28.1265
v -38.4686 -28.6694 27.1791
v -39.6158 -28.6694 27.2932
v -39.6158 -28.1095 28.2594
v -40.9516 -28.1095 28.1265
v -40.7631 -28.6693 27.1791
v -41.8667 -28.6694 26.8455
v -42.2364 -28.1095 27.7381
v -43.4196 -28.1095 27.1042
v -42.8830 -28.6694 26.3010
v -43.7749 -28.6694 25.5705
v -44.4581 -28.1096 26.2536
v -45.3086 -28.1098 25.2152
v -44.5055 -28.6694 24.6785
v -45.1375 -27.4722 26.9330
v -46.1073 -27.4731 25.7488
v -46.8568 -26.7368 26.2492
v -47.6631 -26.7401 24.7439
v -45.7750 -26.7329 27.5704
v -47.5124 -25.8785 26.6863
v -48.3916 -25.8887 25.0441
v -48.9304 -25.8889 23.2618
v -49.1147 -25.8827 21.4385
v -49.6184 -24.9503 23.3971
v -49.8165 -24.9383 21.4419
v -49.0396 -24.9492 25.3113
v -49.6187 -24.9194 19.4199
v -48.9304 -25.8733 19.5576
v -49.0401 -24.9026 17.5073
v -48.3916 -25.8652 17.7761
v -48.0959 -24.8971 15.7452
v -47.5124 -25.8625 16.1351
v -46.8289 -24.8971 14.1983
v -46.3325 -25.8625 14.6947
v -45.2820 -24.8971 12.9313
v -44.8921 -25.8625 13.5149
v -43.5195 -24.8971 11.9871
v -43.2509 -25.8625 12.6356
v -41.6055 -24.8971 11.4085
v -41.4686 -25.8625 12.0968
v -39.6158 -24.8971 11.2106
v -39.6158 -25.8625 11.9125
v -37.7631 -25.8625 12.0968
v -37.6261 -24.8971 11.4085
v -39.6158 -23.8668 10.5687
v -37.5009 -23.8668 10.7791
v -41.7307 -23.8668 10.7791
v -39.6158 -22.8041 9.9569
v -37.3816 -22.8041 10.1791
v -41.8500 -22.8041 10.1791
v -43.9993 -22.8041 10.8289
v -43.7651 -23.8668 11.3941
v -45.9784 -22.8041 11.8892
v -45.6385 -23.8668 12.3978
v -47.7153 -22.8041 13.3119
v -47.2827 -23.8668 13.7445
v -49.1381 -22.8041 15.0488
v -48.6295 -23.8668 15.3887
v -50.1984 -22.8171 17.0274
v -49.6331 -23.8759 17.2616
v -50.8481 -22.8559 19.1751
v -50.2481 -23.9032 19.2945
v -51.0695 -22.8996 21.4490
v -50.4581 -23.9340 21.4454
v -50.8452 -22.9269 23.6414
v -50.2467 -23.9532 23.5219
v -50.1940 -22.9243 25.7910
v -49.6310 -23.9514 25.5566
v -49.1350 -22.8778 27.7715
v -48.6279 -23.9185 27.4316
v -48.0955 -24.9289 27.0753
v -46.8288 -24.9062 28.6237
v -47.2822 -23.8819 29.0775
v -46.3325 -25.8670 28.1277
v -45.2820 -24.8980 29.8914
v -44.8921 -25.8629 29.3079
v -44.4541 -26.7315 28.6524
v -43.9533 -27.4720 27.9029
v -42.9491 -26.7314 29.4587
v -43.2509 -25.8626 30.1872
v -42.6041 -27.4720 28.6257
v -41.3148 -26.7314 29.9528
v -41.1390 -27.4720 29.0687
v -39.6158 -26.7314 30.1217
v -39.6158 -27.4720 29.2201
v -37.9169 -26.7314 29.9528
v -38.0927 -27.4720 29.0687
v -36.2825 -26.7314 29.4587
v -36.6276 -27.4720 28.6257
v -34.7775 -26.7314 28.6524
v -35.2783 -27.4720 27.9029
v -33.4567 -26.7314 27.5705
v -34.0942 -27.4720 26.9330
v -32.3748 -26.7314 26.2497
v -33.1243 -27.4720 25.7489
v -31.5685 -26.7314 24.7447
v -32.4015 -27.4720 24.3997
v -31.9586 -27.4720 22.9345
v -31.0745 -26.7314 23.1104
v -30.9055 -26.7315 21.4355
v -31.8071 -27.4720 21.4329
v -31.0745 -26.7314 19.7124
v -31.9586 -27.4720 19.8883
v -31.5685 -26.7314 18.0781
v -32.4015 -27.4720 18.4231
v -33.1243 -27.4720 17.0739
v -32.3748 -26.7314 16.5731
v -33.4567 -26.7314 15.2522
v -34.0942 -27.4720 15.8898
v -34.7775 -26.7314 14.1704
v -35.2783 -27.4720 14.9199
v -36.2825 -26.7314 13.3641
v -36.6276 -27.4720 14.1971
v -35.9808 -25.8625 12.6356
v -34.3396 -25.8625 13.5149
v -35.7122 -24.8971 11.9871
v -33.9496 -24.8971 12.9313
v -32.4028 -24.8971 14.1983
v -32.8991 -25.8625 14.6947
v -31.1358 -24.8971 15.7452
v -31.7193 -25.8625 16.1351
v -30.1915 -24.8970 17.5077
v -30.8400 -25.8625 17.7763
v -29.6129 -24.8970 19.4217
v -30.3013 -25.8625 19.5586
v -29.4150 -24.8972 21.4420
v -30.1170 -25.8626 21.4386
v -29.6129 -24.8971 23.4011
v -30.3013 -25.8625 23.2642
v -30.1915 -24.8971 25.3151
v -30.8400 -25.8625 25.0464
v -31.1358 -24.8971 27.0776
v -31.7193 -25.8625 26.6877
v -32.4028 -24.8971 28.6245
v -32.8991 -25.8625 28.1281
v -33.9496 -24.8970 29.8915
v -34.3396 -25.8625 29.3079
v -35.7122 -24.8970 30.8357
v -35.9808 -25.8625 30.1872
v -37.6261 -24.8970 31.4143
v -37.7631 -25.8625 30.7260
v -39.6158 -24.8970 31.6122
v -39.6158 -25.8625 30.9102
v -41.6055 -24.8970 31.4143
v -41.4686 -25.8625 30.7260
v -43.5195 -24.8973 30.8357
v -41.7307 -23.8668 32.0437
v -43.7651 -23.8672 31.4287
v -45.6385 -23.8685 30.4249
v -43.9992 -22.8047 31.9938
v -45.9782 -22.8066 30.9334
v -41.8501 -22.8041 32.6436
v -47.7143 -22.8257 29.5100
v -39.6158 -22.8041 32.8658
v -39.6158 -23.8668 32.2541
v -37.3816 -22.8041 32.6436
v -37.5009 -23.8668 32.0437
v -35.2324 -22.8041 31.9939
v -35.4665 -23.8668 31.4287
v -33.2533 -22.8041 30.9336
v -33.5931 -23.8668 30.4250
v -31.5163 -22.8041 29.5109
v -31.9489 -23.8668 29.0783
v -30.0936 -22.8041 27.7739
v -30.6022 -23.8668 27.4341
v -29.0333 -22.8041 25.7948
v -29.5985 -23.8668 25.5607
v -28.3836 -22.8041 23.6456
v -28.9835 -23.8668 23.5263
v -28.1614 -22.8042 21.4494
v -28.7732 -23.8669 21.4456
v -28.9835 -23.8668 19.2965
v -28.3836 -22.8041 19.1772
v -29.0333 -22.8041 17.0279
v -29.5985 -23.8668 17.2621
v -30.0936 -22.8041 15.0488
v -30.6022 -23.8668 15.3887
v -31.5163 -22.8041 13.3119
v -31.9489 -23.8668 13.7445
v -33.2533 -22.8041 11.8892
v -33.5931 -23.8668 12.3978
v -35.2324 -22.8041 10.8289
v -35.4665 -23.8668 11.3941
v -44.3604 -29.4603 21.4259
vt 0.045392 0.826790
vt 0.049161 0.826800
vt 0.049132 0.843513
vt 0.045352 0.843503
vt 0.052921 0.826810
vt 0.052891 0.843513
vt 0.041583 0.843493
vt 0.041633 0.826780
vt 0.056690 0.826810
vt 0.056670 0.843523
vt 0.060440 0.843523
vt 0.060460 0.826810
vt 0.064219 0.826820
vt 0.064219 0.843523
vt 0.067978 0.826820
vt 0.071748 0.826810
vt 0.071758 0.843523
vt 0.067988 0.843523
vt 0.075517 0.826810
vt 0.075537 0.843523
vt 0.079277 0.826800
vt 0.079307 0.843513
vt 0.083046 0.826800
vt 0.086805 0.826790
vt 0.086845 0.843493
vt 0.083076 0.843503
vt 0.090635 0.826780
vt 0.090625 0.843483
vt 0.094344 0.826760
vt 0.094404 0.843473
vt 0.098104 0.826750
vt 0.101863 0.826730
vt 0.101943 0.843443
vt 0.098173 0.843453
vt 0.105632 0.826710
vt 0.105712 0.843423
vt 0.109402 0.826691
vt 0.109491 0.843403
vt 0.113161 0.826671
vt 0.116931 0.826651
vt 0.117030 0.843364
vt 0.113261 0.843383
vt 0.120690 0.826631
vt 0.120800 0.843314
vt 0.000209 0.826561
vt 0.003979 0.826591
vt 0.003849 0.843294
vt 0.000090 0.843254
vt 0.007748 0.826621
vt 0.011508 0.826631
vt 0.011398 0.843343
vt 0.007619 0.843314
vt 0.015277 0.826661
vt 0.015177 0.843364
vt 0.019036 0.826681
vt 0.018937 0.843393
vt 0.022806 0.826700
vt 0.026565 0.826720
vt 0.026485 0.843433
vt 0.022716 0.843413
vt 0.030275 0.826740
vt 0.030265 0.843443
vt 0.034094 0.826750
vt 0.034034 0.843463
vt 0.037863 0.826770
vt 0.037804 0.843473
vt 0.060460 0.826222
vt 0.060460 0.826810
vt 0.056690 0.826810
vt 0.056690 0.826212
vt 0.064219 0.826222
vt 0.064219 0.826820
vt 0.920252 0.410556
vt 0.920252 0.410177
vt 0.923842 0.410506
vt 0.923772 0.410895
vt 0.916732 0.410935
vt 0.916652 0.410556
vt 0.920242 0.408861
vt 0.924091 0.409229
vt 0.916393 0.409279
vt 0.913202 0.411633
vt 0.912693 0.410416
vt 0.913351 0.411982
vt 0.910031 0.413358
vt 0.909303 0.412271
vt 0.910250 0.413667
vt 0.052921 0.826810
vt 0.052921 0.826212
vt 0.049161 0.826800
vt 0.049161 0.826202
vt 0.907518 0.415931
vt 0.907239 0.415651
vt 0.045392 0.826790
vt 0.045402 0.826192
vt 0.041633 0.826780
vt 0.041633 0.826182
vt 0.037863 0.826172
vt 0.037863 0.826770
vt 0.034094 0.826750
vt 0.034094 0.826152
vt 0.903290 0.421655
vt 0.903639 0.421804
vt 0.902631 0.425195
vt 0.902263 0.425115
vt 0.904975 0.418464
vt 0.905294 0.418683
vt 0.902063 0.421166
vt 0.903878 0.417736
vt 0.900976 0.424876
vt 0.906311 0.414734
vt 0.904028 0.412480
vt 0.901195 0.415971
vt 0.899091 0.419949
vt 0.907498 0.409598
vt 0.911447 0.407454
vt 0.901006 0.409489
vt 0.905114 0.406088
vt 0.909801 0.403535
vt 0.914897 0.401970
vt 0.915745 0.406128
vt 0.920202 0.401421
vt 0.920222 0.405649
vt 0.924700 0.406068
vt 0.925497 0.401910
vt 0.920172 0.397004
vt 0.926345 0.397582
vt 0.914010 0.397652
vt 0.920152 0.392516
vt 0.927193 0.393174
vt 0.913122 0.393244
vt 0.906361 0.395328
vt 0.908096 0.399467
vt 0.900148 0.398709
vt 0.902651 0.402438
vt 0.894704 0.403216
vt 0.897875 0.406387
vt 0.890236 0.408721
vt 0.893986 0.411204
vt 0.897655 0.413627
vt 0.895162 0.418344
vt 0.891084 0.416679
vt 0.897815 0.424267
vt 0.893647 0.423460
vt 0.889319 0.422622
vt 0.886925 0.414973
vt 0.884911 0.421764
vt 0.884253 0.428914
vt 0.888730 0.428884
vt 0.893148 0.428854
vt 0.884991 0.435865
vt 0.889379 0.434957
vt 0.893696 0.434080
vt 0.897386 0.428815
vt 0.897855 0.433232
vt 0.895272 0.439176
vt 0.891213 0.440891
vt 0.899191 0.437520
vt 0.902153 0.436274
vt 0.901006 0.432574
vt 0.900607 0.428785
vt 0.903369 0.435765
vt 0.902302 0.432305
vt 0.901923 0.428775
vt 0.902302 0.428775
vt 0.902671 0.432235
vt 0.903718 0.435605
vt 0.905095 0.438936
vt 0.904008 0.439664
vt 0.905414 0.438717
vt 0.022806 0.826700
vt 0.022806 0.826112
vt 0.026575 0.826122
vt 0.026565 0.826720
vt 0.019036 0.826681
vt 0.019036 0.826092
vt 0.907677 0.441439
vt 0.907398 0.441708
vt 0.015277 0.826661
vt 0.015287 0.826072
vt 0.011508 0.826631
vt 0.011518 0.826042
vt 0.910420 0.443663
vt 0.910210 0.443982
vt 0.906481 0.442646
vt 0.909492 0.445079
vt 0.913411 0.445667
vt 0.912923 0.446874
vt 0.913551 0.445308
vt 0.916871 0.446694
vt 0.916622 0.447971
vt 0.916951 0.446315
vt 0.007748 0.826621
vt 0.007748 0.826022
vt 0.003979 0.826591
vt 0.003979 0.825992
vt 0.920471 0.446645
vt 0.920471 0.447024
vt 0.000209 0.826561
vt 0.000209 0.825963
vt 0.120700 0.826032
vt 0.120690 0.826631
vt 0.116931 0.826651
vt 0.116931 0.826062
vt 0.923982 0.446266
vt 0.924061 0.446645
vt 0.920481 0.448340
vt 0.924331 0.447921
vt 0.927522 0.445578
vt 0.928030 0.446784
vt 0.927362 0.445229
vt 0.930683 0.443842
vt 0.931421 0.444929
vt 0.930473 0.443533
vt 0.113161 0.826671
vt 0.113161 0.826082
vt 0.109402 0.826691
vt 0.109392 0.826102
vt 0.933196 0.441270
vt 0.933465 0.441549
vt 0.105632 0.826710
vt 0.105632 0.826112
vt 0.101863 0.826730
vt 0.101863 0.826132
vt 0.935410 0.438527
vt 0.935739 0.438737
vt 0.934402 0.442466
vt 0.936836 0.439455
vt 0.937424 0.435536
vt 0.938641 0.436034
vt 0.937065 0.435406
vt 0.938451 0.432085
vt 0.939738 0.432325
vt 0.938072 0.432006
vt 0.098104 0.826750
vt 0.098104 0.826152
vt 0.094344 0.826760
vt 0.094334 0.826162
vt 0.938401 0.428545
vt 0.938780 0.428545
vt 0.090635 0.826780
vt 0.090635 0.826182
vt 0.086805 0.826790
vt 0.086805 0.826192
vt 0.938022 0.424975
vt 0.938411 0.424896
vt 0.940087 0.428545
vt 0.939688 0.424626
vt 0.937344 0.421445
vt 0.938541 0.420937
vt 0.936985 0.421595
vt 0.935609 0.418264
vt 0.936696 0.417536
vt 0.935300 0.418484
vt 0.083046 0.826800
vt 0.083046 0.826202
vt 0.079277 0.826800
vt 0.079277 0.826202
vt 0.933036 0.415761
vt 0.933306 0.415492
vt 0.075517 0.826810
vt 0.075517 0.826212
vt 0.071748 0.826810
vt 0.071748 0.826212
vt 0.930284 0.413537
vt 0.930503 0.413218
vt 0.934233 0.414564
vt 0.931221 0.412121
vt 0.927302 0.411533
vt 0.927801 0.410326
vt 0.927163 0.411892
vt 0.067978 0.826820
vt 0.067978 0.826222
vt 0.929018 0.407345
vt 0.932996 0.409439
vt 0.930613 0.403416
vt 0.935330 0.405899
vt 0.936487 0.412271
vt 0.939478 0.409249
vt 0.942879 0.413348
vt 0.939368 0.415731
vt 0.941502 0.419690
vt 0.945422 0.418035
vt 0.946987 0.423121
vt 0.942839 0.423978
vt 0.943307 0.428525
vt 0.947556 0.428505
vt 0.947067 0.433741
vt 0.942909 0.432933
vt 0.941612 0.437241
vt 0.945541 0.438836
vt 0.943068 0.443553
vt 0.939518 0.441220
vt 0.936696 0.444720
vt 0.939717 0.447702
vt 0.935619 0.451102
vt 0.933236 0.447592
vt 0.929277 0.449746
vt 0.930932 0.453645
vt 0.925846 0.455221
vt 0.924979 0.451072
vt 0.920511 0.451551
vt 0.920541 0.455789
vt 0.915236 0.455300
vt 0.916034 0.451132
vt 0.911706 0.449866
vt 0.910120 0.453795
vt 0.905404 0.451312
vt 0.907727 0.447771
vt 0.904217 0.444939
vt 0.901245 0.447961
vt 0.897835 0.443862
vt 0.901345 0.441479
vt 0.898154 0.451102
vt 0.894185 0.446345
vt 0.890476 0.448848
vt 0.887085 0.442626
vt 0.895003 0.454293
vt 0.886736 0.451391
vt 0.882937 0.444361
vt 0.880583 0.436752
vt 0.879736 0.428944
vt 0.876066 0.437650
vt 0.875119 0.428964
vt 0.878699 0.446156
vt 0.875916 0.419969
vt 0.880474 0.420877
vt 0.878419 0.411453
vt 0.882737 0.413238
vt 0.882568 0.403605
vt 0.886447 0.406198
vt 0.888162 0.396715
vt 0.891483 0.400005
vt 0.895003 0.391060
vt 0.897606 0.394929
vt 0.902811 0.386832
vt 0.904616 0.391140
vt 0.911297 0.384210
vt 0.912215 0.388797
vt 0.920122 0.383292
vt 0.920142 0.387969
vt 0.928060 0.388707
vt 0.928958 0.384120
vt 0.920103 0.378476
vt 0.929885 0.379383
vt 0.910340 0.379483
vt 0.920093 0.373520
vt 0.930832 0.374527
vt 0.909353 0.374636
vt 0.899042 0.377807
vt 0.900956 0.382375
vt 0.889548 0.382943
vt 0.892310 0.387052
vt 0.881241 0.389814
vt 0.884752 0.393304
vt 0.874440 0.398180
vt 0.878559 0.400933
vt 0.869424 0.407704
vt 0.873972 0.409608
vt 0.866443 0.418055
vt 0.871239 0.419022
vt 0.865545 0.428994
vt 0.870382 0.428984
vt 0.866732 0.439544
vt 0.871449 0.438577
vt 0.869923 0.449886
vt 0.874371 0.447981
vt 0.874969 0.459429
vt 0.878988 0.456676
vt 0.882907 0.453994
vt 0.888551 0.460865
vt 0.885190 0.464285
vt 0.891812 0.457534
vt 0.895452 0.466459
vt 0.898014 0.462540
vt 0.900507 0.458751
vt 0.902981 0.454991
vt 0.906770 0.462031
vt 0.905065 0.466250
vt 0.908465 0.457873
vt 0.913561 0.464046
vt 0.914408 0.459628
vt 0.920611 0.464684
vt 0.920581 0.460197
vt 0.927631 0.463946
vt 0.926734 0.459538
vt 0.934392 0.461852
vt 0.932647 0.457714
vt 0.940605 0.458471
vt 0.938082 0.454752
vt 0.946050 0.453954
vt 0.942849 0.450793
vt 0.950487 0.448450
vt 0.946748 0.445976
vt 0.953798 0.442197
vt 0.949630 0.440502
vt 0.951395 0.434568
vt 0.955783 0.435406
vt 0.956441 0.428475
vt 0.951963 0.428486
vt 0.955713 0.421345
vt 0.951315 0.422243
vt 0.953619 0.414584
vt 0.949470 0.416330
vt 0.946538 0.410885
vt 0.950248 0.408372
vt 0.945731 0.402927
vt 0.942580 0.406118
vt 0.940226 0.398480
vt 0.937753 0.402219
vt 0.933974 0.395179
vt 0.932278 0.399337
vt 0.935699 0.390971
vt 0.942739 0.394690
vt 0.937464 0.386643
vt 0.945322 0.390781
vt 0.952213 0.396375
vt 0.948932 0.399696
vt 0.957877 0.403216
vt 0.954037 0.405819
vt 0.962145 0.411004
vt 0.957807 0.412839
vt 0.964777 0.419501
vt 0.960180 0.420428
vt 0.965655 0.428475
vt 0.960988 0.428466
vt 0.964857 0.437171
vt 0.960260 0.436284
vt 0.962334 0.445687
vt 0.958006 0.443922
vt 0.958196 0.453545
vt 0.954287 0.450962
vt 0.952601 0.460436
vt 0.949281 0.457155
vt 0.945761 0.466120
vt 0.943158 0.462241
vt 0.937962 0.470348
vt 0.936158 0.466040
vt 0.929486 0.472981
vt 0.928559 0.468394
vt 0.920661 0.473918
vt 0.920631 0.469241
vt 0.911826 0.473100
vt 0.912703 0.468503
vt 0.903310 0.470587
vt 0.910898 0.477827
vt 0.901495 0.475045
vt 0.892809 0.470478
vt 0.899630 0.479632
vt 0.890087 0.474616
vt 0.909971 0.482694
vt 0.881750 0.467815
vt 0.920711 0.483681
vt 0.920691 0.478725
vt 0.931441 0.482554
vt 0.930453 0.477698
vt 0.941742 0.479363
vt 0.939837 0.474796
vt 0.951235 0.474207
vt 0.948463 0.470109
vt 0.959542 0.467317
vt 0.956022 0.463836
vt 0.966333 0.458930
vt 0.962205 0.456208
vt 0.971369 0.449397
vt 0.966792 0.447512
vt 0.974440 0.439046
vt 0.969594 0.438089
vt 0.975497 0.428466
vt 0.970511 0.428475
vt 0.969464 0.418543
vt 0.974281 0.417556
vt 0.971139 0.407235
vt 0.966582 0.409150
vt 0.965984 0.397752
vt 0.961885 0.400514
vt 0.959103 0.389445
vt 0.955613 0.392955
vt 0.950717 0.382644
vt 0.947984 0.386772
vt 0.941173 0.377598
vt 0.939299 0.382185
vt 0.030275 0.826142
vt 0.030275 0.826740
vn -0.7071 -0.0000 -0.7071
vn -0.5556 -0.0000 -0.8315
vn -0.4967 0.4479 -0.7434
vn -0.6321 0.4482 -0.6321
vn -0.3827 -0.0000 -0.9239
vn -0.3421 0.4482 -0.8259
vn -0.7434 0.4479 -0.4967
vn -0.8315 -0.0000 -0.5556
vn -0.1951 -0.0000 -0.9808
vn -0.1744 0.4479 -0.8769
vn -0.0000 0.4482 -0.8940
vn -0.0000 -0.0000 -1.0000
vn 0.1951 -0.0000 -0.9808
vn 0.1744 0.4479 -0.8769
vn 0.3827 -0.0000 -0.9239
vn 0.5556 -0.0000 -0.8315
vn 0.4967 0.4479 -0.7434
vn 0.3421 0.4482 -0.8259
vn 0.7071 -0.0000 -0.7071
vn 0.6321 0.4482 -0.6321
vn 0.8315 -0.0000 -0.5556
vn 0.7434 0.4479 -0.4967
vn 0.9239 -0.0000 -0.3827
vn 0.9809 0.0001 -0.1947
vn 0.8769 0.4480 -0.1742
vn 0.8259 0.4482 -0.3421
vn 1.0000 -0.0000 0.0010
vn 0.8939 0.4482 0.0003
vn 0.9807 -0.0001 0.1955
vn 0.8769 0.4478 0.1746
vn 0.9239 -0.0000 0.3827
vn 0.8315 -0.0000 0.5556
vn 0.7434 0.4479 0.4967
vn 0.8259 0.4482 0.3421
vn 0.7071 -0.0000 0.7071
vn 0.6321 0.4482 0.6321
vn 0.5556 -0.0000 0.8315
vn 0.4967 0.4479 0.7434
vn 0.3827 -0.0000 0.9239
vn 0.1951 -0.0000 0.9808
vn 0.1744 0.4479 0.8769
vn 0.3421 0.4482 0.8259
vn -0.0000 -0.0000 1.0000
vn -0.0000 0.4482 0.8939
vn -0.1951 -0.0000 0.9808
vn -0.1744 0.4479 0.8769
vn -0.3827 -0.0000 0.9239
vn -0.5556 -0.0000 0.8315
vn -0.4967 0.4479 0.7434
vn -0.3421 0.4482 0.8259
vn -0.7071 -0.0000 0.7071
vn -0.6321 0.4482 0.6321
vn -0.8315 -0.0000 0.5556
vn -0.7434 0.4479 0.4967
vn -0.9239 -0.0000 0.3827
vn -0.9807 -0.0001 0.1955
vn -0.8769 0.4478 0.1746
vn -0.8259 0.4482 0.3421
vn -1.0000 -0.0000 0.0010
vn -0.8939 0.4482 0.0003
vn -0.9809 0.0001 -0.1947
vn -0.8769 0.4480 -0.1742
vn -0.9239 -0.0000 -0.3827
vn -0.8259 0.4482 -0.3421
vn -0.0000 -0.4043 -0.9146
vn -0.0000 -0.1430 -0.9897
vn -0.1931 -0.1429 -0.9707
vn -0.1784 -0.4042 -0.8971
vn 0.1784 -0.4042 -0.8971
vn 0.1931 -0.1429 -0.9707
vn -0.0000 -0.7747 -0.6323
vn 0.1234 -0.7746 -0.6204
vn -0.1234 -0.7746 -0.6204
vn -0.0000 -0.8807 -0.4736
vn 0.0924 -0.8807 -0.4646
vn -0.0924 -0.8807 -0.4646
vn -0.2420 -0.7747 -0.5842
vn -0.1812 -0.8807 -0.4376
vn -0.3500 -0.4043 -0.8450
vn -0.3514 -0.7746 -0.5259
vn -0.2632 -0.8807 -0.3939
vn -0.5082 -0.4042 -0.7605
vn -0.3787 -0.1429 -0.9144
vn -0.5499 -0.1429 -0.8229
vn -0.6467 -0.4044 -0.6467
vn -0.4471 -0.7748 -0.4471
vn -0.6998 -0.1429 -0.6999
vn -0.8229 -0.1428 -0.5499
vn -0.7605 -0.4042 -0.5082
vn -0.8450 -0.4044 -0.3500
vn -0.9144 -0.1428 -0.3788
vn -0.9709 -0.1428 -0.1923
vn -0.8972 -0.4042 -0.1777
vn -0.5841 -0.7748 -0.2420
vn -0.6203 -0.7747 -0.1229
vn -0.5259 -0.7746 -0.3514
vn -0.4376 -0.8807 -0.1812
vn -0.3938 -0.8807 -0.2632
vn -0.4646 -0.8807 -0.0921
vn -0.3349 -0.8807 -0.3349
vn -0.3453 -0.8727 -0.3453
vn -0.4061 -0.8726 -0.2713
vn -0.4511 -0.8727 -0.1869
vn -0.2713 -0.8726 -0.4061
vn -0.1869 -0.8727 -0.4511
vn -0.3739 -0.8488 -0.3739
vn -0.2938 -0.8487 -0.4397
vn -0.2024 -0.8488 -0.4885
vn -0.1032 -0.8487 -0.5187
vn -0.0953 -0.8726 -0.4790
vn -0.0000 -0.8488 -0.5288
vn -0.0000 -0.8727 -0.4883
vn 0.0953 -0.8726 -0.4790
vn 0.1032 -0.8487 -0.5187
vn -0.0000 -0.8025 -0.5967
vn 0.1164 -0.8025 -0.5852
vn -0.1164 -0.8025 -0.5852
vn -0.0000 -0.7220 -0.6919
vn 0.1350 -0.7220 -0.6786
vn -0.1350 -0.7220 -0.6786
vn -0.2648 -0.7220 -0.6392
vn -0.2283 -0.8025 -0.5512
vn -0.3844 -0.7220 -0.5753
vn -0.3315 -0.8025 -0.4961
vn -0.4892 -0.7220 -0.4892
vn -0.4219 -0.8025 -0.4219
vn -0.5750 -0.7221 -0.3845
vn -0.4961 -0.8025 -0.3315
vn -0.4397 -0.8487 -0.2938
vn -0.4885 -0.8488 -0.2024
vn -0.5509 -0.8027 -0.2285
vn -0.4790 -0.8727 -0.0950
vn -0.5186 -0.8488 -0.1029
vn -0.5844 -0.8031 -0.1163
vn -0.6380 -0.7228 -0.2653
vn -0.6761 -0.7243 -0.1356
vn -0.6878 -0.7259 -0.0005
vn -0.5951 -0.8037 0.0003
vn -0.5285 -0.8489 0.0006
vn -0.6735 -0.7269 0.1339
vn -0.5831 -0.8040 0.1161
vn -0.5182 -0.8490 0.1034
vn -0.4882 -0.8727 0.0007
vn -0.4788 -0.8727 0.0956
vn -0.4881 -0.8491 0.2022
vn -0.5493 -0.8040 0.2278
vn -0.4510 -0.8727 0.1868
vn -0.4376 -0.8807 0.1812
vn -0.4645 -0.8807 0.0928
vn -0.4736 -0.8807 0.0007
vn -0.5841 -0.7748 0.2420
vn -0.6203 -0.7746 0.1239
vn -0.6322 -0.7748 0.0010
vn -0.9146 -0.4044 0.0015
vn -0.8969 -0.4042 0.1792
vn -0.8450 -0.4044 0.3500
vn -0.5259 -0.7746 0.3514
vn -0.3939 -0.8807 0.2632
vn -0.7605 -0.4042 0.5082
vn -0.9144 -0.1428 0.3788
vn -0.9706 -0.1429 0.1939
vn -0.8229 -0.1428 0.5499
vn -0.6467 -0.4044 0.6467
vn -0.4471 -0.7748 0.4471
vn -0.6999 -0.1428 0.6999
vn -0.5499 -0.1429 0.8229
vn -0.5082 -0.4042 0.7605
vn -0.3514 -0.7746 0.5259
vn -0.3349 -0.8807 0.3349
vn -0.2632 -0.8807 0.3939
vn -0.2420 -0.7748 0.5841
vn -0.1812 -0.8807 0.4376
vn -0.3500 -0.4044 0.8450
vn -0.1234 -0.7746 0.6203
vn -0.0924 -0.8807 0.4646
vn -0.1784 -0.4042 0.8971
vn -0.3787 -0.1429 0.9144
vn -0.1931 -0.1429 0.9707
vn -0.0000 -0.4044 0.9146
vn -0.0000 -0.7748 0.6322
vn -0.0000 -0.1429 0.9897
vn 0.1931 -0.1429 0.9707
vn 0.1784 -0.4042 0.8971
vn 0.1234 -0.7746 0.6203
vn -0.0000 -0.8807 0.4736
vn 0.0924 -0.8807 0.4646
vn 0.2419 -0.7748 0.5841
vn 0.1812 -0.8807 0.4376
vn 0.3500 -0.4044 0.8450
vn 0.3514 -0.7746 0.5259
vn 0.2632 -0.8807 0.3939
vn 0.5082 -0.4042 0.7605
vn 0.3788 -0.1429 0.9144
vn 0.5499 -0.1428 0.8229
vn 0.6467 -0.4043 0.6467
vn 0.4471 -0.7747 0.4471
vn 0.6999 -0.1429 0.6999
vn 0.8229 -0.1429 0.5499
vn 0.7605 -0.4042 0.5082
vn 0.5259 -0.7746 0.3514
vn 0.3349 -0.8807 0.3349
vn 0.3939 -0.8807 0.2632
vn 0.5841 -0.7748 0.2420
vn 0.4376 -0.8807 0.1812
vn 0.8450 -0.4044 0.3500
vn 0.6203 -0.7745 0.1239
vn 0.4645 -0.8807 0.0928
vn 0.8969 -0.4042 0.1792
vn 0.9144 -0.1429 0.3788
vn 0.9706 -0.1430 0.1939
vn 0.9146 -0.4044 0.0015
vn 0.6322 -0.7748 0.0010
vn 0.9897 -0.1429 0.0013
vn 0.9709 -0.1428 -0.1923
vn 0.8972 -0.4043 -0.1777
vn 0.6203 -0.7747 -0.1229
vn 0.4736 -0.8807 0.0007
vn 0.4646 -0.8807 -0.0921
vn 0.5841 -0.7748 -0.2420
vn 0.4376 -0.8807 -0.1812
vn 0.8450 -0.4044 -0.3500
vn 0.5259 -0.7746 -0.3514
vn 0.3939 -0.8807 -0.2632
vn 0.7605 -0.4042 -0.5082
vn 0.9144 -0.1429 -0.3788
vn 0.8229 -0.1429 -0.5499
vn 0.6467 -0.4044 -0.6467
vn 0.4471 -0.7748 -0.4471
vn 0.6998 -0.1429 -0.6999
vn 0.5499 -0.1429 -0.8229
vn 0.5082 -0.4042 -0.7605
vn 0.3514 -0.7746 -0.5259
vn 0.3349 -0.8807 -0.3349
vn 0.2632 -0.8807 -0.3939
vn 0.2420 -0.7747 -0.5841
vn 0.1812 -0.8807 -0.4376
vn 0.3500 -0.4043 -0.8450
vn 0.3788 -0.1429 -0.9144
vn 0.1869 -0.8727 -0.4511
vn 0.2713 -0.8726 -0.4061
vn 0.2024 -0.8488 -0.4885
vn 0.2938 -0.8487 -0.4397
vn 0.3453 -0.8727 -0.3453
vn 0.3739 -0.8488 -0.3739
vn 0.4397 -0.8487 -0.2938
vn 0.4061 -0.8726 -0.2713
vn 0.4511 -0.8727 -0.1869
vn 0.4885 -0.8488 -0.2024
vn 0.5187 -0.8487 -0.1028
vn 0.4790 -0.8726 -0.0949
vn 0.4883 -0.8727 0.0007
vn 0.5288 -0.8488 0.0007
vn 0.5186 -0.8487 0.1036
vn 0.4789 -0.8726 0.0957
vn 0.4511 -0.8727 0.1869
vn 0.4885 -0.8488 0.2024
vn 0.4397 -0.8487 0.2938
vn 0.4061 -0.8726 0.2713
vn 0.3453 -0.8727 0.3453
vn 0.3739 -0.8488 0.3739
vn 0.2938 -0.8487 0.4397
vn 0.2713 -0.8726 0.4061
vn 0.1869 -0.8727 0.4511
vn 0.2024 -0.8488 0.4885
vn 0.1032 -0.8487 0.5186
vn 0.0953 -0.8726 0.4790
vn -0.0000 -0.8727 0.4883
vn -0.0000 -0.8488 0.5288
vn -0.1032 -0.8487 0.5186
vn -0.0953 -0.8726 0.4790
vn -0.1869 -0.8727 0.4511
vn -0.2024 -0.8488 0.4885
vn -0.2938 -0.8488 0.4397
vn -0.2713 -0.8726 0.4061
vn -0.3452 -0.8727 0.3453
vn -0.3737 -0.8488 0.3739
vn -0.4393 -0.8489 0.2938
vn -0.4060 -0.8727 0.2713
vn -0.4212 -0.8029 0.4219
vn -0.4946 -0.8035 0.3313
vn -0.5716 -0.7249 0.3843
vn -0.6344 -0.7266 0.2637
vn -0.4874 -0.7232 0.4894
vn -0.6407 -0.6343 0.4326
vn -0.7113 -0.6372 0.2966
vn -0.7555 -0.6378 0.1498
vn -0.7715 -0.6362 -0.0017
vn -0.8072 -0.5683 0.1597
vn -0.8242 -0.5663 -0.0031
vn -0.7595 -0.5676 0.3178
vn -0.8099 -0.5627 -0.1657
vn -0.7585 -0.6333 -0.1536
vn -0.7645 -0.5595 -0.3203
vn -0.7161 -0.6308 -0.2989
vn -0.6895 -0.5579 -0.4618
vn -0.6458 -0.6295 -0.4321
vn -0.5869 -0.5577 -0.5869
vn -0.5495 -0.6293 -0.5495
vn -0.4612 -0.5577 -0.6902
vn -0.4318 -0.6293 -0.6462
vn -0.3176 -0.5577 -0.7668
vn -0.2974 -0.6293 -0.7180
vn -0.1619 -0.5577 -0.8141
vn -0.1516 -0.6293 -0.7623
vn -0.0000 -0.5577 -0.8300
vn -0.0000 -0.6293 -0.7772
vn 0.1516 -0.6293 -0.7623
vn 0.1619 -0.5577 -0.8141
vn -0.0000 -0.5134 -0.8581
vn 0.1674 -0.5134 -0.8417
vn -0.1674 -0.5134 -0.8417
vn -0.0000 -0.4989 -0.8666
vn 0.1691 -0.4989 -0.8500
vn -0.1691 -0.4989 -0.8500
vn -0.3317 -0.4989 -0.8007
vn -0.3284 -0.5134 -0.7928
vn -0.4815 -0.4989 -0.7206
vn -0.4768 -0.5134 -0.7135
vn -0.6128 -0.4989 -0.6128
vn -0.6068 -0.5134 -0.6068
vn -0.7197 -0.4991 -0.4826
vn -0.7127 -0.5137 -0.4776
vn -0.7974 -0.5009 -0.3366
vn -0.7900 -0.5153 -0.3322
vn -0.8453 -0.5043 -0.1766
vn -0.8372 -0.5188 -0.1731
vn -0.8611 -0.5084 -0.0058
vn -0.8525 -0.5227 -0.0044
vn -0.8436 -0.5105 0.1663
vn -0.8350 -0.5249 0.1650
vn -0.7928 -0.5097 0.3342
vn -0.7852 -0.5241 0.3298
vn -0.7116 -0.5058 0.4877
vn -0.7056 -0.5202 0.4811
vn -0.6834 -0.5640 0.4636
vn -0.5829 -0.5601 0.5887
vn -0.6017 -0.5161 0.6096
vn -0.5465 -0.6312 0.5503
vn -0.4600 -0.5582 0.6905
vn -0.4310 -0.6297 0.6464
vn -0.3839 -0.7222 0.5753
vn -0.3313 -0.8025 0.4961
vn -0.2647 -0.7221 0.6392
vn -0.2973 -0.6294 0.7180
vn -0.2283 -0.8025 0.5512
vn -0.1350 -0.7220 0.6786
vn -0.1164 -0.8025 0.5852
vn -0.0000 -0.7220 0.6919
vn -0.0000 -0.8025 0.5967
vn 0.1350 -0.7220 0.6786
vn 0.1164 -0.8025 0.5852
vn 0.2648 -0.7220 0.6392
vn 0.2283 -0.8025 0.5512
vn 0.3844 -0.7220 0.5753
vn 0.3315 -0.8025 0.4961
vn 0.4892 -0.7220 0.4892
vn 0.4219 -0.8025 0.4219
vn 0.5753 -0.7220 0.3844
vn 0.4961 -0.8025 0.3315
vn 0.6392 -0.7220 0.2648
vn 0.5512 -0.8025 0.2283
vn 0.5851 -0.8025 0.1168
vn 0.6785 -0.7220 0.1355
vn 0.6919 -0.7220 0.0010
vn 0.5967 -0.8025 0.0008
vn 0.6787 -0.7220 -0.1345
vn 0.5853 -0.8025 -0.1160
vn 0.6392 -0.7220 -0.2648
vn 0.5512 -0.8025 -0.2283
vn 0.4961 -0.8025 -0.3315
vn 0.5753 -0.7220 -0.3844
vn 0.4892 -0.7220 -0.4892
vn 0.4219 -0.8025 -0.4219
vn 0.3844 -0.7220 -0.5753
vn 0.3315 -0.8025 -0.4961
vn 0.2648 -0.7220 -0.6392
vn 0.2283 -0.8025 -0.5512
vn 0.2974 -0.6293 -0.7180
vn 0.4318 -0.6293 -0.6462
vn 0.3176 -0.5577 -0.7668
vn 0.4612 -0.5577 -0.6902
vn 0.5869 -0.5577 -0.5869
vn 0.5495 -0.6293 -0.5495
vn 0.6902 -0.5577 -0.4612
vn 0.6462 -0.6293 -0.4318
vn 0.7668 -0.5577 -0.3176
vn 0.7180 -0.6293 -0.2974
vn 0.8142 -0.5577 -0.1613
vn 0.7624 -0.6292 -0.1511
vn 0.8300 -0.5577 0.0012
vn 0.7771 -0.6293 0.0011
vn 0.8140 -0.5577 0.1626
vn 0.7621 -0.6293 0.1522
vn 0.7668 -0.5577 0.3176
vn 0.7180 -0.6293 0.2974
vn 0.6902 -0.5577 0.4612
vn 0.6462 -0.6293 0.4318
vn 0.5869 -0.5577 0.5869
vn 0.5495 -0.6293 0.5495
vn 0.4612 -0.5577 0.6902
vn 0.4318 -0.6293 0.6462
vn 0.3176 -0.5577 0.7668
vn 0.2974 -0.6293 0.7180
vn 0.1619 -0.5577 0.8141
vn 0.1516 -0.6293 0.7623
vn -0.0000 -0.5577 0.8300
vn -0.0000 -0.6293 0.7772
vn -0.1619 -0.5577 0.8141
vn -0.1516 -0.6293 0.7623
vn -0.3175 -0.5578 0.7668
vn -0.1674 -0.5134 0.8417
vn -0.3282 -0.5135 0.7928
vn -0.4752 -0.5139 0.7142
vn -0.3314 -0.4990 0.8007
vn -0.4796 -0.4994 0.7215
vn -0.1690 -0.4988 0.8500
vn -0.6066 -0.5016 0.6168
vn -0.0000 -0.4989 0.8667
vn -0.0000 -0.5134 0.8581
vn 0.1691 -0.4988 0.8500
vn 0.1674 -0.5134 0.8417
vn 0.3316 -0.4989 0.8007
vn 0.3284 -0.5134 0.7928
vn 0.4815 -0.4989 0.7206
vn 0.4768 -0.5134 0.7135
vn 0.6128 -0.4989 0.6128
vn 0.6068 -0.5134 0.6068
vn 0.7206 -0.4989 0.4815
vn 0.7135 -0.5134 0.4768
vn 0.8007 -0.4989 0.3317
vn 0.7928 -0.5134 0.3284
vn 0.8499 -0.4989 0.1698
vn 0.8415 -0.5134 0.1681
vn 0.8666 -0.4989 0.0015
vn 0.8581 -0.5134 0.0014
vn 0.8418 -0.5134 -0.1668
vn 0.8502 -0.4988 -0.1684
vn 0.8007 -0.4989 -0.3316
vn 0.7928 -0.5134 -0.3284
vn 0.7206 -0.4989 -0.4815
vn 0.7135 -0.5134 -0.4768
vn 0.6128 -0.4989 -0.6128
vn 0.6068 -0.5134 -0.6068
vn 0.4815 -0.4989 -0.7206
vn 0.4768 -0.5134 -0.7135
vn 0.3317 -0.4989 -0.8007
vn 0.3284 -0.5134 -0.7928
vn -0.9897 -0.1429 0.0013
f 1/1/1 2/2/2 3/3/3 4/4/4
f 3/3/3 2/2/2 5/5/5 6/6/6
f 7/7/7 8/8/8 1/1/1 4/4/4
f 9/9/9 10/10/10 6/6/6 5/5/5
f 11/11/11 10/10/10 9/9/9 12/12/12
f 12/12/12 13/13/13 14/14/14 11/11/11
f 15/15/15 16/16/16 17/17/17 18/18/18
f 14/14/14 13/13/13 15/15/15 18/18/18
f 17/17/17 16/16/16 19/19/19 20/20/20
f 19/19/19 21/21/21 22/22/22 20/20/20
f 23/23/23 24/24/24 25/25/25 26/26/26
f 22/22/22 21/21/21 23/23/23 26/26/26
f 25/25/25 24/24/24 27/27/27 28/28/28
f 27/27/27 29/29/29 30/30/30 28/28/28
f 31/31/31 32/32/32 33/33/33 34/34/34
f 30/30/30 29/29/29 31/31/31 34/34/34
f 33/33/33 32/32/32 35/35/35 36/36/36
f 35/35/35 37/37/37 38/38/38 36/36/36
f 39/39/39 40/40/40 41/41/41 42/42/42
f 38/38/38 37/37/37 39/39/39 42/42/42
f 41/41/41 40/40/40 43/43/43 44/44/44
f 43/45/43 45/46/45 46/47/46 44/48/44
f 47/49/47 48/50/48 49/51/49 50/52/50
f 46/47/46 45/46/45 47/49/47 50/52/50
f 49/51/49 48/50/48 51/53/51 52/54/52
f 51/53/51 53/55/53 54/56/54 52/54/52
f 55/57/55 56/58/56 57/59/57 58/60/58
f 54/56/54 53/55/53 55/57/55 58/60/58
f 57/59/57 56/58/56 59/61/59 60/62/60
f 59/61/59 61/63/61 62/64/62 60/62/60
f 63/65/63 8/8/8 7/7/7 64/66/64
f 62/64/62 61/63/61 63/65/63 64/66/64
f 65/67/65 66/68/66 67/69/67 68/70/68
f 66/68/66 65/67/65 69/71/69 70/72/70
f 65/73/65 71/74/71 72/75/72 69/76/69
f 71/74/71 65/73/65 68/77/68 73/78/73
f 71/74/71 74/79/74 75/80/75 72/75/72
f 74/79/74 71/74/71 73/78/73 76/81/76
f 77/82/77 78/83/78 76/81/76 73/78/73
f 79/84/79 77/82/77 73/78/73 68/77/68
f 78/83/78 77/82/77 80/85/80 81/86/81
f 77/82/77 79/84/79 82/87/82 80/85/80
f 83/88/83 79/89/79 68/70/68 67/69/67
f 79/89/79 83/88/83 84/90/84 82/91/82
f 85/92/85 86/93/86 80/85/80 82/87/82
f 87/94/87 85/95/85 82/91/82 84/90/84
f 85/95/85 87/94/87 88/96/88 89/97/89
f 90/98/90 91/99/91 92/100/92 93/101/93
f 91/99/91 90/98/90 89/97/89 88/96/88
f 94/102/94 90/103/90 93/104/93 95/105/95
f 90/103/90 94/102/94 96/106/96 89/107/89
f 94/102/94 97/108/97 98/109/98 96/106/96
f 97/108/97 94/102/94 95/105/95 99/110/99
f 86/93/86 85/92/85 89/107/89 96/106/96
f 100/111/100 86/93/86 96/106/96 98/109/98
f 101/112/101 100/111/100 98/109/98 102/113/102
f 97/108/97 103/114/103 102/113/102 98/109/98
f 100/111/100 101/112/101 104/115/104 81/86/81
f 86/93/86 100/111/100 81/86/81 80/85/80
f 105/116/105 78/83/78 81/86/81 104/115/104
f 101/112/101 106/117/106 107/118/107 104/115/104
f 108/119/108 105/116/105 104/115/104 107/118/107
f 108/119/108 109/120/109 110/121/110 105/116/105
f 76/81/76 78/83/78 105/116/105 110/121/110
f 109/120/109 111/122/111 112/123/112 110/121/110
f 74/79/74 76/81/76 110/121/110 112/123/112
f 74/79/74 112/123/112 113/124/113 75/80/75
f 112/123/112 111/122/111 114/125/114 113/124/113
f 114/125/114 111/122/111 115/126/115 116/127/116
f 111/122/111 109/120/109 117/128/117 115/126/115
f 118/129/118 119/130/119 116/127/116 115/126/115
f 120/131/120 118/129/118 115/126/115 117/128/117
f 121/132/121 120/131/120 117/128/117 122/133/122
f 109/120/109 108/119/108 122/133/122 117/128/117
f 123/134/123 121/132/121 122/133/122 124/135/124
f 108/119/108 107/118/107 124/135/124 122/133/122
f 125/136/125 123/134/123 124/135/124 126/137/126
f 107/118/107 106/117/106 126/137/126 124/135/124
f 127/138/127 125/136/125 126/137/126 128/139/128
f 106/117/106 129/140/129 128/139/128 126/137/126
f 106/117/106 101/112/101 102/113/102 129/140/129
f 129/140/129 130/141/130 131/142/131 128/139/128
f 103/114/103 130/141/130 129/140/129 102/113/102
f 130/141/130 103/114/103 132/143/132 133/144/133
f 130/141/130 133/144/133 134/145/134 131/142/131
f 135/146/135 127/138/127 128/139/128 131/142/131
f 136/147/136 135/146/135 131/142/131 134/145/134
f 137/148/137 136/147/136 134/145/134 138/149/138
f 133/144/133 139/150/139 138/149/138 134/145/134
f 140/151/140 137/148/137 138/149/138 141/152/141
f 139/150/139 142/153/142 141/152/141 138/149/138
f 143/154/143 139/150/139 133/144/133 132/143/132
f 139/150/139 143/154/143 144/155/144 142/153/142
f 142/153/142 145/156/145 146/157/146 141/152/141
f 147/158/147 145/156/145 142/153/142 144/155/144
f 148/159/148 147/158/147 144/155/144 149/160/149
f 143/154/143 150/161/150 149/160/149 144/155/144
f 151/162/151 148/159/148 149/160/149 152/163/152
f 150/161/150 153/164/153 152/163/152 149/160/149
f 153/164/153 154/165/154 155/166/155 152/163/152
f 156/167/156 151/162/151 152/163/152 155/166/155
f 148/159/148 151/162/151 157/168/157 158/169/158
f 151/162/151 156/167/156 159/170/159 157/168/157
f 160/171/160 156/172/156 155/173/155 161/174/161
f 156/172/156 160/171/160 162/175/162 159/176/159
f 163/177/163 164/178/164 157/168/157 159/170/159
f 165/179/165 163/180/163 159/176/159 162/175/162
f 163/180/163 165/179/165 166/181/166 167/182/167
f 164/178/164 163/177/163 167/183/167 168/184/168
f 164/178/164 169/185/169 158/169/158 157/168/157
f 169/185/169 164/178/164 168/184/168 170/186/170
f 171/187/171 172/188/172 170/186/170 168/184/168
f 173/189/173 171/187/171 168/184/168 167/183/167
f 172/188/172 171/187/171 174/190/174 175/191/175
f 171/187/171 173/189/173 176/192/176 174/190/174
f 177/193/177 173/194/173 167/182/167 166/181/166
f 173/194/173 177/193/177 178/195/178 176/196/176
f 179/197/179 180/198/180 174/190/174 176/192/176
f 181/199/181 179/200/179 176/196/176 178/195/178
f 179/201/179 181/202/181 182/203/182 183/204/183
f 180/198/180 179/197/179 183/205/183 184/206/184
f 180/198/180 185/207/185 175/191/175 174/190/174
f 185/207/185 180/198/180 184/206/184 186/208/186
f 187/209/187 188/210/188 186/208/186 184/206/184
f 189/211/189 187/209/187 184/206/184 183/205/183
f 188/210/188 187/209/187 190/212/190 191/213/191
f 187/209/187 189/211/189 192/214/192 190/212/190
f 193/215/193 189/216/189 183/204/183 182/203/182
f 189/216/189 193/215/193 194/217/194 192/218/192
f 195/219/195 196/220/196 190/212/190 192/214/192
f 197/221/197 195/222/195 192/218/192 194/217/194
f 195/222/195 197/221/197 198/223/198 199/224/199
f 196/220/196 195/219/195 199/225/199 200/226/200
f 196/220/196 201/227/201 191/213/191 190/212/190
f 201/227/201 196/220/196 200/226/200 202/228/202
f 203/229/203 204/230/204 202/228/202 200/226/200
f 205/231/205 203/229/203 200/226/200 199/225/199
f 204/230/204 203/229/203 206/232/206 207/233/207
f 203/229/203 205/231/205 208/234/208 206/232/206
f 209/235/209 205/236/205 199/224/199 198/223/198
f 205/236/205 209/235/209 210/237/210 208/238/208
f 211/239/211 212/240/212 206/232/206 208/234/208
f 213/241/213 211/242/211 208/238/208 210/237/210
f 211/242/211 213/241/213 214/243/214 215/244/215
f 212/240/212 211/239/211 215/245/215 216/246/216
f 212/240/212 217/247/217 207/233/207 206/232/206
f 217/247/217 212/240/212 216/246/216 218/248/218
f 219/249/219 220/250/220 218/248/218 216/246/216
f 221/251/221 219/249/219 216/246/216 215/245/215
f 220/250/220 219/249/219 222/252/222 223/253/223
f 219/249/219 221/251/221 224/254/224 222/252/222
f 225/255/225 221/256/221 215/244/215 214/243/214
f 221/256/221 225/255/225 226/257/226 224/258/224
f 227/259/227 228/260/228 222/252/222 224/254/224
f 229/261/229 227/262/227 224/258/224 226/257/226
f 227/262/227 229/261/229 230/263/230 231/264/231
f 228/260/228 227/259/227 231/265/231 232/266/232
f 228/260/228 233/267/233 223/253/223 222/252/222
f 233/267/233 228/260/228 232/266/232 234/268/234
f 235/269/235 236/270/236 234/268/234 232/266/232
f 237/271/237 235/269/235 232/266/232 231/265/231
f 236/270/236 235/269/235 72/75/72 75/80/75
f 235/269/235 237/271/237 69/76/69 72/75/72
f 238/272/238 237/273/237 231/264/231 230/263/230
f 237/273/237 238/272/238 70/72/70 69/71/69
f 236/270/236 239/274/239 240/275/240 234/268/234
f 239/274/239 236/270/236 75/80/75 113/124/113
f 239/274/239 241/276/241 242/277/242 240/275/240
f 241/276/241 239/274/239 113/124/113 114/125/114
f 243/278/243 233/267/233 234/268/234 240/275/240
f 244/279/244 243/278/243 240/275/240 242/277/242
f 243/278/243 244/279/244 245/280/245 246/281/246
f 233/267/233 243/278/243 246/281/246 223/253/223
f 247/282/247 220/250/220 223/253/223 246/281/246
f 248/283/248 247/282/247 246/281/246 245/280/245
f 248/283/248 249/284/249 250/285/250 247/282/247
f 220/250/220 247/282/247 250/285/250 218/248/218
f 251/286/251 217/247/217 218/248/218 250/285/250
f 252/287/252 251/286/251 250/285/250 249/284/249
f 252/287/252 253/288/253 254/289/254 251/286/251
f 217/247/217 251/286/251 254/289/254 207/233/207
f 255/290/255 204/230/204 207/233/207 254/289/254
f 256/291/256 255/290/255 254/289/254 253/288/253
f 255/290/255 256/291/256 257/292/257 258/293/258
f 204/230/204 255/290/255 258/293/258 202/228/202
f 259/294/259 201/227/201 202/228/202 258/293/258
f 260/295/260 259/294/259 258/293/258 257/292/257
f 259/294/259 260/295/260 261/296/261 262/297/262
f 201/227/201 259/294/259 262/297/262 191/213/191
f 263/298/263 188/210/188 191/213/191 262/297/262
f 264/299/264 263/298/263 262/297/262 261/296/261
f 263/298/263 264/299/264 265/300/265 266/301/266
f 188/210/188 263/298/263 266/301/266 186/208/186
f 267/302/267 185/207/185 186/208/186 266/301/266
f 268/303/268 267/302/267 266/301/266 265/300/265
f 267/302/267 268/303/268 269/304/269 270/305/270
f 185/207/185 267/302/267 270/305/270 175/191/175
f 271/306/271 172/188/172 175/191/175 270/305/270
f 272/307/272 271/306/271 270/305/270 269/304/269
f 271/306/271 272/307/272 273/308/273 274/309/274
f 172/188/172 271/306/271 274/309/274 170/186/170
f 275/310/275 169/185/169 170/186/170 274/309/274
f 276/311/276 275/310/275 274/309/274 273/308/273
f 275/310/275 276/311/276 277/312/277 278/313/278
f 169/185/169 275/310/275 278/313/278 158/169/158
f 147/158/147 148/159/148 158/169/158 278/313/278
f 145/156/145 147/158/147 278/313/278 277/312/277
f 277/312/277 276/311/276 279/314/279 280/315/280
f 145/156/145 277/312/277 280/315/280 146/157/146
f 281/316/281 282/317/282 146/157/146 280/315/280
f 283/318/283 281/316/281 280/315/280 279/314/279
f 282/317/282 140/151/140 141/152/141 146/157/146
f 282/317/282 281/316/281 284/319/284 285/320/285
f 140/151/140 282/317/282 285/320/285 286/321/286
f 137/148/137 140/151/140 286/321/286 287/322/287
f 288/323/288 289/324/289 287/322/287 286/321/286
f 290/325/290 288/323/288 286/321/286 285/320/285
f 289/324/289 291/326/291 292/327/292 287/322/287
f 136/147/136 137/148/137 287/322/287 292/327/292
f 291/326/291 293/328/293 294/329/294 292/327/292
f 135/146/135 136/147/136 292/327/292 294/329/294
f 293/328/293 295/330/295 296/331/296 294/329/294
f 127/138/127 135/146/135 294/329/294 296/331/296
f 295/330/295 297/332/297 298/333/298 296/331/296
f 125/136/125 127/138/127 296/331/296 298/333/298
f 297/332/297 299/334/299 300/335/300 298/333/298
f 123/134/123 125/136/125 298/333/298 300/335/300
f 299/334/299 301/336/301 302/337/302 300/335/300
f 121/132/121 123/134/123 300/335/300 302/337/302
f 301/336/301 303/338/303 304/339/304 302/337/302
f 120/131/120 121/132/121 302/337/302 304/339/304
f 303/338/303 305/340/305 306/341/306 304/339/304
f 118/129/118 120/131/120 304/339/304 306/341/306
f 119/130/119 118/129/118 306/341/306 307/342/307
f 305/340/305 308/343/308 307/342/307 306/341/306
f 308/343/308 305/340/305 309/344/309 310/345/310
f 305/340/305 303/338/303 311/346/311 309/344/309
f 312/347/312 313/348/313 310/345/310 309/344/309
f 314/349/314 312/347/312 309/344/309 311/346/311
f 315/350/315 314/349/314 311/346/311 316/351/316
f 303/338/303 301/336/301 316/351/316 311/346/311
f 317/352/317 315/350/315 316/351/316 318/353/318
f 301/336/301 299/334/299 318/353/318 316/351/316
f 319/354/319 317/352/317 318/353/318 320/355/320
f 299/334/299 297/332/297 320/355/320 318/353/318
f 321/356/321 319/354/319 320/355/320 322/357/322
f 297/332/297 295/330/295 322/357/322 320/355/320
f 323/358/323 321/356/321 322/357/322 324/359/324
f 295/330/295 293/328/293 324/359/324 322/357/322
f 325/360/325 323/358/323 324/359/324 326/361/326
f 293/328/293 291/326/291 326/361/326 324/359/324
f 327/362/327 325/360/325 326/361/326 328/363/328
f 291/326/291 289/324/289 328/363/328 326/361/326
f 329/364/329 327/362/327 328/363/328 330/365/330
f 289/324/289 288/323/288 330/365/330 328/363/328
f 331/366/331 329/364/329 330/365/330 332/367/332
f 288/323/288 290/325/290 332/367/332 330/365/330
f 333/368/333 331/366/331 332/367/332 334/369/334
f 290/325/290 335/370/335 334/369/334 332/367/332
f 335/370/335 290/325/290 285/320/285 284/319/284
f 335/370/335 336/371/336 337/372/337 334/369/334
f 336/371/336 335/370/335 284/319/284 338/373/338
f 281/316/281 283/318/283 338/373/338 284/319/284
f 339/374/339 336/371/336 338/373/338 340/375/340
f 283/318/283 341/376/341 340/375/340 338/373/338
f 341/376/341 283/318/283 279/314/279 342/377/342
f 341/376/341 343/378/343 344/379/344 340/375/340
f 343/378/343 341/376/341 342/377/342 345/380/345
f 273/308/273 272/307/272 345/380/345 342/377/342
f 276/311/276 273/308/273 342/377/342 279/314/279
f 346/381/346 343/378/343 345/380/345 347/382/347
f 272/307/272 269/304/269 347/382/347 345/380/345
f 348/383/348 346/381/346 347/382/347 349/384/349
f 269/304/269 268/303/268 349/384/349 347/382/347
f 350/385/350 348/383/348 349/384/349 351/386/351
f 268/303/268 265/300/265 351/386/351 349/384/349
f 352/387/352 350/385/350 351/386/351 353/388/353
f 265/300/265 264/299/264 353/388/353 351/386/351
f 354/389/354 352/387/352 353/388/353 355/390/355
f 264/299/264 261/296/261 355/390/355 353/388/353
f 356/391/356 354/389/354 355/390/355 357/392/357
f 261/296/261 260/295/260 357/392/357 355/390/355
f 358/393/358 356/391/356 357/392/357 359/394/359
f 260/295/260 257/292/257 359/394/359 357/392/357
f 360/395/360 358/393/358 359/394/359 361/396/361
f 257/292/257 256/291/256 361/396/361 359/394/359
f 360/395/360 361/396/361 362/397/362 363/398/363
f 253/288/253 362/397/362 361/396/361 256/291/256
f 364/399/364 363/398/363 362/397/362 365/400/365
f 253/288/253 252/287/252 365/400/365 362/397/362
f 366/401/366 364/399/364 365/400/365 367/402/367
f 252/287/252 249/284/249 367/402/367 365/400/365
f 368/403/368 366/401/366 367/402/367 369/404/369
f 249/284/249 248/283/248 369/404/369 367/402/367
f 368/403/368 369/404/369 370/405/370 371/406/371
f 248/283/248 245/280/245 370/405/370 369/404/369
f 372/407/372 371/406/371 370/405/370 373/408/373
f 245/280/245 244/279/244 373/408/373 370/405/370
f 374/409/374 372/407/372 373/408/373 375/410/375
f 244/279/244 242/277/242 375/410/375 373/408/373
f 376/411/376 374/409/374 375/410/375 377/412/377
f 242/277/242 241/276/241 377/412/377 375/410/375
f 119/130/119 376/411/376 377/412/377 116/127/116
f 241/276/241 114/125/114 116/127/116 377/412/377
f 376/411/376 119/130/119 307/342/307 378/413/378
f 374/409/374 376/411/376 378/413/378 379/414/379
f 380/415/380 381/416/381 379/414/379 378/413/378
f 308/343/308 380/415/380 378/413/378 307/342/307
f 381/416/381 382/417/382 383/418/383 379/414/379
f 372/407/372 374/409/374 379/414/379 383/418/383
f 382/417/382 384/419/384 385/420/385 383/418/383
f 371/406/371 372/407/372 383/418/383 385/420/385
f 386/421/386 387/422/387 385/420/385 384/419/384
f 368/403/368 371/406/371 385/420/385 387/422/387
f 386/421/386 388/423/388 389/424/389 387/422/387
f 366/401/366 368/403/368 387/422/387 389/424/389
f 388/423/388 390/425/390 391/426/391 389/424/389
f 364/399/364 366/401/366 389/424/389 391/426/391
f 390/425/390 392/427/392 393/428/393 391/426/391
f 363/398/363 364/399/364 391/426/391 393/428/393
f 392/427/392 394/429/394 395/430/395 393/428/393
f 360/395/360 363/398/363 393/428/393 395/430/395
f 394/429/394 396/431/396 397/432/397 395/430/395
f 358/393/358 360/395/360 395/430/395 397/432/397
f 396/431/396 398/433/398 399/434/399 397/432/397
f 356/391/356 358/393/358 397/432/397 399/434/399
f 398/433/398 400/435/400 401/436/401 399/434/399
f 354/389/354 356/391/356 399/434/399 401/436/401
f 400/435/400 402/437/402 403/438/403 401/436/401
f 352/387/352 354/389/354 401/436/401 403/438/403
f 402/437/402 404/439/404 405/440/405 403/438/403
f 350/385/350 352/387/352 403/438/403 405/440/405
f 404/439/404 406/441/406 407/442/407 405/440/405
f 348/383/348 350/385/350 405/440/405 407/442/407
f 406/441/406 408/443/408 409/444/409 407/442/407
f 346/381/346 348/383/348 407/442/407 409/444/409
f 408/443/408 410/445/410 344/379/344 409/444/409
f 343/378/343 346/381/346 409/444/409 344/379/344
f 410/445/410 339/374/339 340/375/340 344/379/344
f 410/445/410 408/443/408 411/446/411 412/447/412
f 339/374/339 410/445/410 412/447/412 413/448/413
f 414/449/414 415/450/415 413/448/413 412/447/412
f 416/451/416 414/449/414 412/447/412 411/446/411
f 415/450/415 417/452/417 337/372/337 413/448/413
f 336/371/336 339/374/339 413/448/413 337/372/337
f 417/452/417 333/368/333 334/369/334 337/372/337
f 418/453/418 416/451/416 411/446/411 419/454/419
f 408/443/408 406/441/406 419/454/419 411/446/411
f 420/455/420 418/453/418 419/454/419 421/456/421
f 406/441/406 404/439/404 421/456/421 419/454/419
f 422/457/422 420/455/420 421/456/421 423/458/423
f 404/439/404 402/437/402 423/458/423 421/456/421
f 424/459/424 422/457/422 423/458/423 425/460/425
f 402/437/402 400/435/400 425/460/425 423/458/423
f 426/461/426 424/459/424 425/460/425 427/462/427
f 400/435/400 398/433/398 427/462/427 425/460/425
f 428/463/428 426/461/426 427/462/427 429/464/429
f 398/433/398 396/431/396 429/464/429 427/462/427
f 430/465/430 428/463/428 429/464/429 431/466/431
f 396/431/396 394/429/394 431/466/431 429/464/429
f 432/467/432 430/465/430 431/466/431 433/468/433
f 394/429/394 392/427/392 433/468/433 431/466/431
f 434/469/434 432/467/432 433/468/433 435/470/435
f 392/427/392 390/425/390 435/470/435 433/468/433
f 434/469/434 435/470/435 436/471/436 437/472/437
f 388/423/388 436/471/436 435/470/435 390/425/390
f 438/473/438 437/472/437 436/471/436 439/474/439
f 388/423/388 386/421/386 439/474/439 436/471/436
f 440/475/440 438/473/438 439/474/439 441/476/441
f 386/421/386 384/419/384 441/476/441 439/474/439
f 442/477/442 440/475/440 441/476/441 443/478/443
f 384/419/384 382/417/382 443/478/443 441/476/441
f 444/479/444 442/477/442 443/478/443 445/480/445
f 382/417/382 381/416/381 445/480/445 443/478/443
f 446/481/446 444/479/444 445/480/445 447/482/447
f 381/416/381 380/415/380 447/482/447 445/480/445
f 313/348/313 446/481/446 447/482/447 310/345/310
f 380/415/380 308/343/308 310/345/310 447/482/447
f 154/483/154 448/484/448 161/174/161 155/173/155
f 448/484/448 154/483/154 93/101/93 92/100/92
f 154/165/154 153/164/153 95/105/95 93/104/93
f 153/164/153 150/161/150 99/110/99 95/105/95
f 150/161/150 143/154/143 132/143/132 99/110/99
f 103/114/103 97/108/97 99/110/99 132/143/132
