# Blender 4.5.3 LTS
# www.blender.org
o DecalStatic
v 9.556282 -28.205517 20.771782
v 9.704860 -28.170509 20.200468
v 10.267396 -28.193785 20.057005
v 10.261452 -28.249437 20.779898
v 11.065329 -28.201208 19.989058
v 11.048516 -28.264936 20.764067
v 11.873393 -28.188658 20.045931
v 11.851269 -28.246279 20.772297
v 12.459556 -28.159760 20.185625
v 12.600524 -28.194391 20.760599
v 9.489264 -28.226126 21.572104
v 10.244195 -28.276777 21.571814
v 11.044746 -28.299883 21.571421
v 11.862829 -28.273798 21.571140
v 12.667069 -28.215065 21.571075
v 9.550499 -28.225121 22.375141
v 10.258671 -28.269373 22.367094
v 11.049922 -28.285086 22.382631
v 11.856864 -28.266163 22.373589
v 12.608888 -28.213993 22.384581
v 9.696128 -28.205441 22.952139
v 10.262561 -28.230209 23.097546
v 11.067551 -28.238577 23.166296
v 11.882582 -28.224415 23.107841
v 12.472107 -28.194517 22.965717
v 13.296515 -28.098452 22.534153
v 13.443270 -28.091616 21.571051
v 12.845173 -28.101759 23.313841
v 12.066681 -28.118948 23.773582
v 11.099599 -28.130983 23.928400
v 10.136308 -28.128325 23.769598
v 9.364912 -28.119007 23.308298
v 8.913678 -28.120491 22.530748
v 8.766677 -28.114683 21.571846
v 8.928689 -28.096327 20.619101
v 9.385830 -28.075394 19.855978
v 10.150035 -28.073515 19.407629
v 11.097955 -28.072737 19.252903
v 12.050076 -28.064650 19.402414
v 12.821775 -28.057676 19.849257
v 13.280309 -28.073954 20.614138
v -9.010755 -28.098440 22.534153
v -8.863999 -28.091597 21.571051
v -9.462100 -28.101740 23.313839
v -10.240591 -28.118937 23.773588
v -11.207674 -28.130972 23.928408
v -12.170965 -28.128305 23.769606
v -12.942366 -28.118980 23.308298
v -13.393592 -28.120472 22.530748
v -13.540594 -28.114668 21.571846
v -13.378585 -28.096308 20.619101
v -12.921446 -28.075371 19.855978
v -12.157236 -28.073509 19.407629
v -11.209316 -28.072721 19.252911
v -10.257200 -28.064634 19.402414
v -9.485496 -28.057653 19.849255
v -9.026960 -28.073940 20.614138
v -12.750990 -28.205502 20.771790
v -12.602413 -28.170494 20.200468
v -12.039874 -28.193768 20.057013
v -12.045821 -28.249430 20.779913
v -11.241940 -28.201200 19.989065
v -11.258755 -28.264929 20.764067
v -10.433880 -28.188650 20.045938
v -10.456008 -28.246267 20.772297
v -9.847713 -28.159744 20.185633
v -9.706747 -28.194387 20.760599
v -12.818009 -28.226122 21.572105
v -12.063075 -28.276766 21.571821
v -11.262524 -28.299871 21.571428
v -10.444443 -28.273787 21.571140
v -9.640203 -28.215046 21.571077
v -12.756771 -28.225094 22.375141
v -12.048600 -28.269354 22.367102
v -11.257349 -28.285082 22.382631
v -10.450409 -28.266144 22.373596
v -9.698392 -28.213980 22.384581
v -12.611144 -28.205433 22.952139
v -12.044712 -28.230188 23.097546
v -11.239728 -28.238564 23.166304
v -10.424698 -28.224392 23.107849
v -9.835173 -28.194498 22.965717
v 3.310066 -28.007740 14.851362
v 3.408754 -28.007811 14.342663
v 3.026060 -28.007700 15.280433
v 2.596189 -28.007824 15.555979
v 1.892190 -28.007936 15.663186
v 2.596189 -28.007814 13.129355
v 1.892191 -28.007940 13.022148
v 3.026058 -28.007700 13.404894
v 3.310066 -28.007751 13.833965
v 2.365370 -28.094116 14.342662
v 1.923047 -27.853426 12.534347
v 2.783222 -27.853354 12.687608
v 3.364351 -27.853388 13.075985
v 3.752628 -27.853403 13.657168
v 3.888965 -27.853413 14.342655
v 3.752626 -27.853409 15.028166
v 3.364352 -27.853388 15.609339
v 2.783221 -27.853361 15.997725
v 1.923047 -27.853426 16.150978
v 0.000120 -28.007988 15.675036
v 0.000119 -27.853537 16.167904
v 0.000119 -27.853527 12.517428
v 2.813693 -28.084398 14.342664
v 2.386526 -28.084387 15.004200
v 2.684167 -28.076792 14.959903
v 2.386528 -28.084387 13.681117
v 2.684167 -28.076788 13.725429
v 2.361176 -28.094116 14.057338
v 2.768778 -28.084381 14.011369
v 2.361176 -28.094120 14.627995
v 0.000119 -28.094116 14.623768
v 2.768780 -28.084375 14.673948
v 1.832313 -28.094116 14.342663
v 1.841602 -28.084417 15.032862
v 1.841602 -28.084417 13.652471
v 1.832522 -28.094128 14.623906
v 1.832522 -28.094116 14.061420
v -3.752386 -27.853409 15.028166
v -3.888725 -27.853413 14.342663
v -3.364110 -27.853388 15.609340
v -2.782982 -27.853361 15.997725
v -1.922813 -27.853434 16.150978
v -2.782981 -27.853350 12.687608
v -1.922813 -27.853420 12.534354
v -3.364112 -27.853388 13.075993
v -3.752388 -27.853399 13.657166
v -2.813453 -28.084398 14.342664
v -3.408519 -28.007811 14.342663
v -3.309826 -28.007755 14.851370
v -2.768538 -28.084377 14.673949
v -2.595949 -28.007814 13.129355
v -3.025819 -28.007700 13.404895
v -2.683927 -28.076788 13.725429
v -2.386287 -28.084377 13.681117
v -1.891952 -28.007936 15.663186
v -2.365131 -28.094116 14.342663
v -2.360938 -28.094116 14.627995
v -1.832289 -28.094128 14.623906
v -1.832080 -28.094116 14.342663
v -1.891952 -28.007940 13.022147
v -1.841368 -28.084417 13.652471
v 0.000119 -28.084417 13.649239
v 0.000120 -28.007996 13.010297
v -3.025820 -28.007700 15.280432
v -2.595950 -28.007824 15.555979
v -3.309826 -28.007751 13.833963
v -2.360936 -28.094116 14.057338
v -2.768538 -28.084381 14.011369
v -2.386289 -28.084387 15.004200
v -2.683925 -28.076792 14.959903
v -1.832288 -28.094116 14.061420
v -1.841368 -28.084417 15.032862
v 0.000119 -28.094116 14.342664
v 0.000119 -28.094112 14.061565
v 0.000119 -28.084417 15.036086
v 13.770440 -27.982216 22.113813
v 13.401454 -27.990665 23.116121
v 12.669054 -28.003044 23.867546
v 11.665888 -28.017580 24.263279
v 10.564713 -28.022953 24.267258
v 9.557926 -28.017988 23.876755
v 8.817514 -28.013296 23.125551
v 8.442198 -28.008923 22.118088
v 8.457674 -27.996019 21.028261
v 8.854351 -27.977448 20.042118
v 9.594213 -27.964552 19.321003
v 10.579127 -27.959923 18.950069
v 11.650330 -27.955189 18.952459
v 12.631962 -27.949623 19.328384
v 13.364506 -27.954327 20.050444
v 13.755532 -27.969439 21.031307
v 9.931458 -28.211870 20.439465
v 10.654366 -28.235386 20.384155
v 11.458954 -28.233658 20.378769
v 12.207027 -28.205099 20.426146
v 9.872298 -28.247250 21.170982
v 10.642701 -28.281477 21.167679
v 11.452364 -28.280373 21.165382
v 12.256691 -28.240904 21.165136
v 9.870019 -28.257156 21.973871
v 10.642268 -28.291914 21.976622
v 11.454273 -28.290836 21.978243
v 12.260432 -28.250814 21.977997
v 9.925991 -28.239811 22.710148
v 10.653308 -28.263817 22.766270
v 11.463889 -28.261835 22.771187
v 12.216256 -28.232712 22.722206
v 13.034918 -28.170078 22.020365
v 12.833835 -28.165735 22.818432
v 12.333501 -28.173544 23.318287
v 11.532290 -28.193792 23.521711
v 10.635166 -28.197712 23.516752
v 9.847108 -28.184561 23.306351
v 9.354885 -28.181374 22.807095
v 9.152701 -28.187229 22.016369
v 9.157214 -28.176165 21.128704
v 9.365896 -28.149605 20.344225
v 9.857421 -28.140560 19.852352
v 10.638026 -28.149900 19.645790
v 11.525231 -28.146385 19.640402
v 12.319347 -28.129845 19.839373
v 12.819869 -28.133722 20.331400
v 13.029271 -28.158871 21.122801
v -8.536831 -27.982201 22.113811
v -8.905816 -27.990656 23.116121
v -9.638215 -28.003029 23.867554
v -10.641382 -28.017565 24.263287
v -11.742558 -28.022938 24.267258
v -12.749347 -28.017971 23.876762
v -13.489760 -28.013283 23.125551
v -13.865076 -28.008917 22.118088
v -13.849597 -27.996008 21.028261
v -13.452923 -27.977432 20.042118
v -12.713061 -27.964540 19.321003
v -11.728142 -27.959909 18.950077
v -10.656946 -27.955173 18.952467
v -9.675316 -27.949608 19.328392
v -8.942765 -27.954311 20.050444
v -8.551738 -27.969423 21.031309
v -12.375813 -28.211855 20.439463
v -11.652905 -28.235371 20.384163
v -10.848321 -28.233646 20.378777
v -10.100247 -28.205084 20.426153
v -12.434972 -28.247244 21.170990
v -11.664570 -28.281469 21.167685
v -10.854910 -28.280354 21.165380
v -10.050584 -28.240904 21.165136
v -12.437254 -28.257137 21.973871
v -11.665003 -28.291906 21.976622
v -10.852998 -28.290829 21.978251
v -10.046841 -28.250799 21.977997
v -12.381281 -28.239796 22.710155
v -11.653967 -28.263802 22.766270
v -10.843386 -28.261822 22.771196
v -10.091022 -28.232693 22.722214
v -9.272356 -28.170067 22.020365
v -9.473442 -28.165720 22.818432
v -9.973775 -28.173527 23.318293
v -10.774986 -28.193779 23.521711
v -11.672107 -28.197693 23.516768
v -12.460166 -28.184542 23.306360
v -12.952387 -28.181356 22.807100
v -13.154567 -28.187216 22.016369
v -13.150057 -28.176161 21.128704
v -12.941376 -28.149590 20.344225
v -12.449852 -28.140545 19.852352
v -11.669244 -28.149891 19.645798
v -10.782042 -28.146381 19.640409
v -9.987924 -28.129829 19.839373
v -9.487404 -28.133715 20.331398
v -9.277999 -28.158859 21.122801
v 3.091176 -28.055298 14.552089
v 2.662037 -28.055122 13.482571
v 1.047895 -27.942350 15.946148
v 2.196819 -28.094042 14.477677
v 1.036088 -28.055443 13.335754
v 3.639390 -27.942083 14.649715
v 3.404556 -27.942001 15.217217
v 2.970163 -27.942013 15.651546
v 2.401500 -27.942152 15.886320
v 2.401502 -27.942158 12.799013
v 2.970162 -27.942013 13.033793
v 3.404555 -27.942009 13.468108
v 3.639390 -27.942083 14.035610
v 1.047895 -27.942350 12.739178
v 2.563304 -28.094078 14.195741
v 2.521370 -28.094034 14.792702
v 2.200019 -28.093977 13.885487
v 2.662039 -28.055134 15.202754
v 2.277741 -28.055313 15.320094
v 2.947005 -28.055120 13.747887
v 2.277742 -28.055305 13.365238
v 2.200019 -28.093981 14.799839
v 2.521370 -28.094034 13.892625
v 2.563305 -28.094078 14.489584
v 2.196820 -28.094042 14.207640
v 2.947006 -28.055120 14.937438
v 3.091177 -28.055298 14.133238
v 1.025706 -28.094109 14.476586
v 1.025715 -28.094067 13.882086
v 1.025715 -28.094063 14.803247
v 1.025706 -28.094112 14.208738
v 1.036088 -28.055443 15.349579
v -3.090937 -28.055298 14.552088
v -2.661797 -28.055122 13.482572
v -1.047657 -27.942350 15.946148
v -2.196584 -28.094042 14.477677
v -1.035850 -28.055443 13.335754
v -3.639153 -27.942076 14.649715
v -3.404315 -27.942005 15.217217
v -2.969922 -27.942005 15.651546
v -2.401263 -27.942154 15.886320
v -2.401263 -27.942148 12.799021
v -2.969922 -27.942013 13.033786
v -3.404315 -27.942005 13.468108
v -3.639152 -27.942083 14.035610
v -1.047657 -27.942350 12.739177
v -2.563063 -28.094078 14.195741
v -2.521131 -28.094019 14.792702
v -2.199784 -28.093977 13.885487
v -2.661798 -28.055126 15.202754
v -2.277503 -28.055313 15.320094
v -2.946765 -28.055120 13.747886
v -2.277503 -28.055305 13.365239
v -2.199783 -28.093981 14.799840
v -2.521129 -28.094034 13.892624
v -2.563064 -28.094078 14.489592
v -2.196584 -28.094042 14.207640
v -2.946765 -28.055120 14.937439
v -3.090938 -28.055298 14.133239
v -1.025470 -28.094109 14.476587
v -1.025479 -28.094063 13.882087
v -1.025479 -28.094063 14.803247
v -1.025471 -28.094112 14.208738
v -1.035850 -28.055443 15.349579
v 13.628242 -27.988525 22.634789
v 13.406976 -28.096510 22.062761
v 13.809821 -27.977467 21.569561
v 13.075103 -27.997686 23.529421
v 13.109517 -28.099791 22.955873
v 12.190052 -28.012688 24.108101
v 12.488742 -28.110115 23.581900
v 11.115627 -28.023329 24.311525
v 11.594617 -28.126980 23.887190
v 10.039256 -28.023134 24.115406
v 10.605771 -28.131750 23.885067
v 9.148698 -28.016621 23.539408
v 9.718238 -28.123709 23.576761
v 8.586470 -28.013906 22.642324
v 9.101213 -28.119883 22.951120
v 8.404950 -28.005245 21.571642
v 8.804352 -28.119638 22.062119
v 8.615129 -27.988970 20.512667
v 8.812494 -28.107288 21.083311
v 9.188531 -27.971680 19.643528
v 9.120787 -28.085226 20.205608
v 10.066927 -27.963947 19.095222
v 9.737082 -28.073593 19.594889
v 11.114908 -27.959747 18.907869
v 10.612367 -28.074408 19.295616
v 12.161725 -27.954294 19.100096
v 11.584904 -28.070028 19.292753
v 13.034419 -27.952013 19.652504
v 12.467214 -28.060047 19.588516
v 13.600291 -27.963594 20.518818
v 13.088045 -28.064623 20.199511
v 13.397007 -28.084259 21.080259
v 9.931336 -28.182335 20.126810
v 10.275452 -28.226665 20.409763
v 9.896180 -28.232328 20.788624
v 9.624943 -28.187099 20.431543
v 10.654232 -28.199886 20.007927
v 11.056105 -28.237961 20.373295
v 10.648341 -28.261007 20.772678
v 11.481243 -28.197330 20.002003
v 11.850101 -28.222717 20.399641
v 11.452791 -28.259768 20.768610
v 12.222292 -28.174084 20.110914
v 12.532916 -28.176702 20.418770
v 12.234405 -28.225977 20.779982
v 10.250144 -28.266897 21.172941
v 9.859961 -28.255648 21.573076
v 9.505803 -28.218159 21.159552
v 11.045381 -28.287325 21.167152
v 10.639913 -28.293129 21.573854
v 11.857718 -28.263927 21.168579
v 11.454020 -28.292006 21.573484
v 12.648881 -28.207197 21.154215
v 12.267565 -28.249407 21.573315
v 10.248530 -28.277109 21.976204
v 9.891810 -28.251585 22.360603
v 9.502694 -28.228071 21.985441
v 11.046081 -28.297621 21.981266
v 10.647318 -28.280926 22.378841
v 11.860754 -28.274181 21.979265
v 11.456483 -28.279667 22.382298
v 12.653320 -28.217087 21.990936
v 12.241514 -28.245073 22.370247
v 10.270059 -28.254496 22.744120
v 9.922529 -28.218113 23.027985
v 9.617398 -28.215967 22.718075
v 11.056818 -28.266245 22.780527
v 10.651456 -28.236845 23.148529
v 11.856647 -28.250259 22.753262
v 11.486249 -28.233898 23.154060
v 12.544161 -28.205221 22.732206
v 12.232428 -28.209639 23.042591
v 12.958014 -28.169556 22.444729
v 13.060163 -28.166710 21.571064
v 12.634613 -28.164909 23.118244
v 11.957829 -28.185244 23.443930
v 11.082708 -28.198261 23.547419
v 10.214956 -28.192900 23.434746
v 9.552526 -28.178644 23.105560
v 9.230010 -28.186319 22.436415
v 9.127046 -28.183914 21.572042
v 9.238416 -28.164551 20.711168
v 9.564319 -28.138988 20.049816
v 10.222151 -28.146685 19.726400
v 11.080589 -28.149914 19.615482
v 11.946590 -28.139610 19.716410
v 12.619314 -28.125156 20.035881
v 12.947452 -28.147564 20.701139
v -8.679028 -27.988510 22.634789
v -8.900297 -28.096498 22.062761
v -8.497450 -27.977451 21.569561
v -9.232169 -27.997675 23.529421
v -9.197756 -28.099775 22.955873
v -10.117218 -28.012684 24.108099
v -9.818529 -28.110100 23.581898
v -11.191644 -28.023314 24.311535
v -10.712657 -28.126968 23.887197
v -12.268015 -28.023113 24.115414
v -11.701502 -28.131735 23.885075
v -13.158578 -28.016603 23.539413
v -12.589037 -28.123697 23.576769
v -13.720805 -28.013893 22.642324
v -13.206062 -28.119864 22.951120
v -13.902319 -28.005234 21.571640
v -13.502919 -28.119631 22.062119
v -13.692143 -27.988955 20.512667
v -13.494777 -28.107275 21.083311
v -13.118742 -27.971664 19.643528
v -13.186489 -28.085215 20.205608
v -12.240343 -27.963932 19.095230
v -12.570192 -28.073576 19.594896
v -11.192365 -27.959736 18.907869
v -11.694903 -28.074392 19.295624
v -10.145552 -27.954275 19.100096
v -10.722370 -28.070021 19.292761
v -9.272855 -27.951994 19.652512
v -9.840062 -28.060028 19.588516
v -8.706978 -27.963587 20.518818
v -9.219226 -28.064610 20.199511
v -8.910263 -28.084246 21.080261
v -12.375936 -28.182320 20.126810
v -12.031820 -28.226650 20.409763
v -12.411090 -28.232325 20.788624
v -12.682329 -28.187086 20.431541
v -11.653039 -28.199873 20.007935
v -11.251166 -28.237946 20.373302
v -11.658929 -28.260992 20.772686
v -10.826028 -28.197319 20.002018
v -10.457174 -28.222704 20.399641
v -10.854484 -28.259750 20.768618
v -10.084979 -28.174068 20.110914
v -9.774356 -28.176695 20.418770
v -10.072870 -28.225969 20.779982
v -12.057126 -28.266888 21.172949
v -12.447309 -28.255644 21.573086
v -12.801466 -28.218155 21.159557
v -11.261889 -28.287313 21.167152
v -11.667358 -28.293121 21.573856
v -10.449558 -28.263916 21.168579
v -10.853252 -28.291994 21.573484
v -9.658388 -28.207193 21.154215
v -10.039708 -28.249395 21.573317
v -12.058740 -28.277090 21.976213
v -12.415460 -28.251570 22.360603
v -12.804577 -28.228058 21.985443
v -11.261189 -28.297611 21.981274
v -11.659954 -28.280916 22.378841
v -10.446518 -28.274166 21.979265
v -10.850789 -28.279652 22.382305
v -9.653955 -28.217072 21.990942
v -10.065761 -28.245058 22.370247
v -12.037212 -28.254480 22.744120
v -12.384743 -28.218098 23.027992
v -12.689871 -28.215956 22.718081
v -11.250457 -28.266241 22.780527
v -11.655819 -28.236830 23.148537
v -10.450628 -28.250242 22.753269
v -10.821029 -28.233879 23.154068
v -9.763119 -28.205206 22.732208
v -10.074852 -28.209620 23.042591
v -9.349262 -28.169548 22.444731
v -9.247109 -28.166695 21.571064
v -9.672663 -28.164890 23.118244
v -10.349447 -28.185230 23.443935
v -11.224568 -28.198242 23.547419
v -12.092317 -28.192888 23.434752
v -12.754748 -28.178640 23.105560
v -13.077259 -28.186300 22.436415
v -13.180226 -28.183903 21.572042
v -13.068858 -28.164543 20.711168
v -12.742955 -28.138973 20.049816
v -12.085119 -28.146669 19.726400
v -11.226682 -28.149899 19.615490
v -10.360684 -28.139599 19.716410
v -9.687956 -28.125141 20.035889
v -9.359818 -28.147545 20.701139
v 3.854212 -27.853413 14.692060
v 3.586822 -27.853392 15.337687
v 3.092723 -27.853378 15.831860
v 2.447040 -27.853376 16.099295
v 2.447041 -27.853376 12.586037
v 3.092723 -27.853371 12.853465
v 3.586823 -27.853401 13.347648
v 3.854212 -27.853416 13.993266
v 3.108857 -28.055372 14.342663
v 3.384927 -28.007423 14.603909
v 3.034499 -28.055449 14.754588
v 2.799865 -28.084530 14.510413
v 2.540194 -28.084337 13.711879
v 2.477395 -28.055040 13.408054
v 2.827506 -28.007393 13.245290
v 2.823745 -28.055046 13.596510
v 1.049140 -27.853519 16.167921
v -0.000311 -27.942751 15.944789
v 1.044869 -28.008266 15.673474
v 1.910598 -27.942757 15.929678
v 2.200599 -28.094116 14.624313
v 1.831133 -28.094032 14.473299
v 2.200999 -28.094011 14.339335
v 2.369340 -28.093887 14.480937
v 1.028538 -28.084417 13.649221
v -0.000315 -28.055275 13.334511
v 1.044863 -28.007706 13.008924
v 1.866307 -28.055443 13.343480
v 1.049140 -27.853527 12.517411
v 3.668226 -27.942591 14.341318
v 3.548176 -27.942532 14.945737
v 3.187476 -28.007565 15.083898
v 3.206906 -27.942480 15.455812
v 2.822964 -28.008018 15.439378
v 2.696210 -27.942562 15.796107
v 2.346023 -28.008442 15.624028
v 2.346791 -28.007217 13.055257
v 1.909802 -27.942270 12.753963
v 2.698055 -27.942076 12.888235
v 3.208731 -27.942518 13.231494
v 3.191090 -28.007643 13.607509
v 3.549128 -27.942558 13.742106
v 3.381792 -28.008081 14.082050
v -0.000743 -27.942280 12.738972
v 2.366648 -28.093973 14.201348
v 2.548988 -28.093899 14.043836
v 2.802980 -28.084381 14.174388
v 2.568546 -28.094078 14.342593
v 2.546654 -28.093796 14.644069
v 2.709932 -28.083902 14.832773
v 2.537335 -28.084101 14.976206
v 2.355331 -28.093876 14.798568
v 2.197873 -28.093977 14.058023
v 1.832520 -28.094088 13.883621
v 2.223950 -28.084461 13.663079
v 2.358172 -28.094070 13.889341
v 2.476646 -28.055429 15.274706
v 2.821467 -28.055025 15.092532
v 1.864676 -28.055712 15.339269
v 2.220192 -28.084328 15.022758
v 3.034862 -28.055416 13.930690
v 2.712493 -28.084190 13.858047
v 1.830767 -28.094030 14.801848
v 1.829920 -28.094069 14.208754
v 0.000119 -28.094112 14.475956
v 1.025269 -28.094017 14.339283
v 1.025274 -28.094011 14.627272
v -0.000316 -28.094110 13.885189
v 1.025276 -28.094080 14.063577
v -0.000321 -28.093994 14.804576
v 1.027869 -28.084196 15.038564
v -0.000756 -28.094109 14.209054
v -0.000751 -28.055449 15.349476
v -3.853971 -27.853413 14.692060
v -3.586582 -27.853390 15.337687
v -3.092482 -27.853378 15.831859
v -2.446804 -27.853376 16.099295
v -2.446804 -27.853373 12.586039
v -3.092482 -27.853371 12.853473
v -3.586584 -27.853386 13.347646
v -3.853972 -27.853416 13.993266
v -2.802458 -28.084393 14.510869
v -3.037261 -28.054998 14.755738
v -3.385225 -28.007448 14.600625
v -3.108801 -28.055195 14.338412
v -2.820209 -28.055237 13.593808
v -2.824542 -28.007322 13.243224
v -2.476622 -28.055454 13.410940
v -2.539823 -28.084497 13.715147
v -1.909329 -27.942652 15.930075
v -1.044505 -28.008310 15.673217
v -1.048796 -27.850307 16.174669
v -2.363822 -28.094120 14.480748
v -2.196972 -28.093977 14.339468
v -1.830899 -28.094021 14.479441
v -2.198848 -28.093794 14.630334
v -1.864990 -28.055443 13.343367
v -1.044531 -28.007751 13.009129
v -1.028623 -28.084473 13.650176
v -1.049758 -27.852005 12.513981
v -3.547929 -27.942535 14.945722
v -3.668002 -27.942587 14.341316
v -3.206387 -27.942991 15.453609
v -3.186886 -28.007984 15.081415
v -2.696586 -27.943048 15.794030
v -2.823392 -28.008335 15.436950
v -2.345778 -28.008440 15.624031
v -2.695964 -27.942551 12.889210
v -1.910361 -27.942757 12.755627
v -2.345374 -28.007923 13.058296
v -3.208475 -27.942522 13.231496
v -3.546869 -27.943031 13.741497
v -3.188519 -28.008020 13.606844
v -3.381563 -28.008080 14.082038
v -2.567817 -28.093798 14.336723
v -2.802355 -28.084124 14.169201
v -2.544189 -28.094032 14.044493
v -2.361901 -28.093994 14.201249
v -2.360468 -28.093903 14.797855
v -2.543140 -28.083948 14.975461
v -2.710703 -28.084354 14.826345
v -2.547220 -28.094078 14.638352
v -2.352254 -28.093847 13.889461
v -2.219956 -28.084326 13.662563
v -1.832299 -28.094055 13.887991
v -2.196083 -28.093922 14.063162
v -2.821284 -28.055023 15.092448
v -2.476435 -28.055433 15.274669
v -2.218818 -28.084108 15.024514
v -1.863356 -28.055550 15.340893
v -2.714786 -28.083937 13.859833
v -3.036787 -28.055250 13.932127
v -1.830523 -28.094028 14.801891
v -1.829661 -28.094063 14.208792
v -1.025462 -28.094107 14.624844
v -1.025480 -28.094116 14.342700
v -1.025467 -28.094105 14.060574
v -1.028077 -28.084339 15.037113
v -8.392162 -16.923113 47.741219
v -8.391639 -20.925102 47.741871
v 2.500022 2.200713 7.974725
v 2.499662 1.029362 3.958439
v -2.500698 1.029481 3.958853
v -2.500338 2.200831 7.975138
v -4.953615 -16.923113 47.741207
v -4.954139 -20.925102 47.741871
v 13.626809 2.297673 39.563919
v 13.625782 -2.577458 42.213455
v 13.626461 0.777620 40.391205
v 13.625413 -4.156862 43.103287
v 13.625045 -5.665088 43.961494
v 13.624760 -7.025998 44.701229
v 13.626090 -0.777765 41.224968
v -13.625544 -4.156485 43.103096
v -13.625295 -5.665135 43.961533
v -13.624866 -7.026003 44.701229
v -13.626249 -0.778179 41.225208
v -13.626822 2.314351 39.593857
v -13.625813 -2.577655 42.213566
v -13.626483 0.777680 40.391174
v 36.648346 -26.372869 18.868780
v 39.649704 -26.075693 18.869091
v 42.649281 -25.666616 18.869324
v 36.647892 -26.419743 21.869656
v 39.650024 -26.126575 21.869740
v 42.648991 -25.674379 21.869574
v 36.648407 -26.379234 24.869320
v 39.649612 -26.141018 24.869026
v 42.649487 -25.657860 24.868849
v 36.649803 -26.404007 23.369463
v 39.648857 -26.126177 23.369356
v 42.647259 -25.661062 23.369093
v 36.650494 -26.408766 20.369091
v 39.650982 -26.110172 20.369318
v 42.648903 -25.677313 20.369516
v 38.153919 -26.319069 21.869448
v 38.151443 -26.244350 18.868477
v 41.148628 -25.898369 21.869637
v 41.150429 -25.880974 18.869240
v 38.152355 -26.291801 24.869402
v 41.152168 -25.920263 24.868864
v 38.152279 -26.296358 23.369600
v 41.149158 -25.901758 23.369139
v 38.153969 -26.294495 20.368546
v 41.150269 -25.894449 20.369501
vn 0.2877 -0.9530 0.0949
vn 0.2424 -0.9670 0.0781
vn 0.2469 -0.9685 0.0310
vn 0.2956 -0.9545 0.0392
vn 0.2488 -0.9685 -0.0146
vn 0.2981 -0.9544 -0.0151
vn 0.2297 -0.9506 0.2090
vn 0.1967 -0.9641 0.1784
vn 0.2289 -0.9648 0.1291
vn 0.2690 -0.9508 0.1539
vn 0.1138 -0.9580 0.2634
vn 0.0954 -0.9705 0.2214
vn 0.1467 -0.9668 0.2092
vn 0.1732 -0.9535 0.2465
vn 0.0056 -0.9624 0.2715
vn 0.0043 -0.9741 0.2259
vn 0.0487 -0.9732 0.2247
vn 0.0585 -0.9611 0.2698
vn -0.1031 -0.9590 0.2638
vn -0.0873 -0.9712 0.2218
vn -0.0402 -0.9736 0.2249
vn -0.0475 -0.9617 0.2699
vn -0.2197 -0.9523 0.2118
vn -0.1892 -0.9653 0.1802
vn -0.1389 -0.9678 0.2101
vn -0.1630 -0.9550 0.2478
vn -0.2792 -0.9553 0.0969
vn -0.2361 -0.9685 0.0796
vn -0.2218 -0.9662 0.1317
vn -0.2597 -0.9528 0.1572
vn -0.2907 -0.9567 -0.0149
vn -0.2432 -0.9699 -0.0144
vn -0.2409 -0.9700 0.0314
vn -0.2877 -0.9569 0.0398
vn -0.2391 -0.9648 -0.1098
vn -0.2427 -0.9682 -0.0606
vn -0.2896 -0.9546 -0.0699
vn -0.2829 -0.9506 -0.1278
vn -0.1931 -0.9577 -0.2134
vn -0.2254 -0.9605 -0.1630
vn -0.2645 -0.9456 -0.1896
vn -0.2247 -0.9425 -0.2472
vn -0.0908 -0.9616 -0.2591
vn -0.1429 -0.9588 -0.2456
vn -0.1673 -0.9434 -0.2865
vn -0.1066 -0.9466 -0.3043
vn -0.0425 -0.9639 -0.2627
vn -0.0499 -0.9492 -0.3108
vn 0.0050 -0.9500 -0.3121
vn 0.0035 -0.9646 -0.2637
vn 0.0988 -0.9610 -0.2583
vn 0.0498 -0.9637 -0.2622
vn 0.0601 -0.9488 -0.3100
vn 0.1178 -0.9458 -0.3028
vn 0.2016 -0.9562 -0.2120
vn 0.1518 -0.9577 -0.2445
vn 0.1792 -0.9418 -0.2844
vn 0.2358 -0.9405 -0.2446
vn 0.2449 -0.9634 -0.1088
vn 0.2325 -0.9591 -0.1613
vn 0.2734 -0.9435 -0.1871
vn 0.2903 -0.9486 -0.1262
vn 0.2480 -0.9669 -0.0606
vn 0.2966 -0.9525 -0.0695
vn -0.0921 -0.9898 -0.1090
vn -0.0701 -0.9912 -0.1121
vn -0.0637 -0.9948 -0.0793
vn -0.0951 -0.9917 -0.0863
vn -0.0436 -0.9925 -0.1142
vn -0.0393 -0.9961 -0.0784
vn -0.0404 -0.9977 -0.0551
vn -0.0632 -0.9965 -0.0543
vn -0.0968 -0.9936 -0.0591
vn -0.0198 -0.9931 -0.1155
vn -0.0188 -0.9966 -0.0801
vn 0.0022 -0.9932 -0.1162
vn 0.0017 -0.9967 -0.0814
vn 0.0013 -0.9982 -0.0607
vn -0.0215 -0.9980 -0.0586
vn 0.0244 -0.9929 -0.1161
vn 0.0224 -0.9965 -0.0805
vn 0.0488 -0.9922 -0.1150
vn 0.0440 -0.9959 -0.0789
vn 0.0449 -0.9975 -0.0550
vn 0.0245 -0.9980 -0.0586
vn 0.0765 -0.9907 -0.1129
vn 0.0698 -0.9944 -0.0792
vn 0.0995 -0.9890 -0.1092
vn 0.1024 -0.9911 -0.0857
vn 0.1038 -0.9929 -0.0587
vn 0.0694 -0.9961 -0.0539
vn -0.0649 -0.9973 -0.0334
vn -0.0979 -0.9946 -0.0347
vn -0.0442 -0.9984 -0.0359
vn -0.0465 -0.9988 -0.0128
vn -0.0665 -0.9977 -0.0125
vn -0.0981 -0.9951 -0.0126
vn -0.0255 -0.9989 -0.0399
vn 0.0012 -0.9991 -0.0418
vn 0.0012 -0.9999 -0.0129
vn -0.0275 -0.9995 -0.0128
vn 0.0283 -0.9988 -0.0397
vn 0.0486 -0.9982 -0.0356
vn 0.0509 -0.9986 -0.0128
vn 0.0304 -0.9995 -0.0128
vn 0.0710 -0.9969 -0.0332
vn 0.1045 -0.9939 -0.0348
vn 0.1045 -0.9944 -0.0126
vn 0.0724 -0.9973 -0.0125
vn -0.0655 -0.9978 0.0083
vn -0.0974 -0.9952 0.0093
vn -0.0446 -0.9989 0.0109
vn -0.0404 -0.9987 0.0313
vn -0.0632 -0.9976 0.0293
vn -0.0955 -0.9949 0.0323
vn -0.0254 -0.9996 0.0148
vn 0.0012 -0.9999 0.0169
vn 0.0015 -0.9993 0.0378
vn -0.0211 -0.9991 0.0356
vn 0.0283 -0.9995 0.0146
vn 0.0491 -0.9987 0.0107
vn 0.0452 -0.9985 0.0318
vn 0.0245 -0.9991 0.0359
vn 0.0716 -0.9974 0.0083
vn 0.1039 -0.9945 0.0093
vn 0.1023 -0.9942 0.0320
vn 0.0694 -0.9972 0.0294
vn -0.0618 -0.9966 0.0536
vn -0.0926 -0.9940 0.0583
vn -0.0381 -0.9978 0.0549
vn -0.0409 -0.9954 0.0865
vn -0.0663 -0.9943 0.0840
vn -0.0883 -0.9929 0.0802
vn -0.0182 -0.9982 0.0572
vn 0.0021 -0.9983 0.0589
vn 0.0028 -0.9960 0.0888
vn -0.0186 -0.9959 0.0881
vn 0.0226 -0.9981 0.0581
vn 0.0432 -0.9975 0.0560
vn 0.0466 -0.9951 0.0876
vn 0.0243 -0.9958 0.0888
vn 0.0678 -0.9962 0.0542
vn 0.0994 -0.9934 0.0579
vn 0.0949 -0.9922 0.0805
vn 0.0722 -0.9938 0.0850
vn 0.1575 -0.9864 0.0469
vn 0.1587 -0.9872 0.0162
vn 0.1594 -0.9871 -0.0134
vn 0.1520 -0.9850 0.0822
vn 0.1328 -0.9842 0.1172
vn 0.0627 -0.9881 0.1408
vn 0.0977 -0.9859 0.1359
vn 0.0035 -0.9899 0.1416
vn 0.0323 -0.9894 0.1415
vn -0.0562 -0.9884 0.1408
vn -0.0255 -0.9896 0.1415
vn -0.0916 -0.9864 0.1361
vn -0.1266 -0.9849 0.1182
vn -0.1520 -0.9872 0.0480
vn -0.1460 -0.9857 0.0839
vn -0.1545 -0.9879 -0.0132
vn -0.1537 -0.9880 0.0164
vn -0.1551 -0.9869 -0.0433
vn -0.1543 -0.9851 -0.0763
vn -0.1486 -0.9824 -0.1133
vn -0.1300 -0.9804 -0.1481
vn -0.0594 -0.9831 -0.1731
vn -0.0957 -0.9813 -0.1672
vn -0.0273 -0.9843 -0.1743
vn 0.0028 -0.9847 -0.1744
vn 0.0329 -0.9841 -0.1744
vn 0.0656 -0.9827 -0.1732
vn 0.1025 -0.9806 -0.1671
vn 0.1371 -0.9795 -0.1475
vn 0.1599 -0.9842 -0.0755
vn 0.1552 -0.9815 -0.1120
vn 0.1602 -0.9861 -0.0434
vn -0.0403 -0.9736 0.2249
vn -0.2597 -0.9528 0.1571
vn -0.2906 -0.9567 -0.0149
vn -0.1673 -0.9434 -0.2864
vn 0.0498 -0.9637 -0.2623
vn 0.2016 -0.9562 -0.2121
vn -0.0981 -0.9951 -0.0125
vn -0.0212 -0.9991 0.0356
vn 0.0021 -0.9983 0.0590
vn -0.0187 -0.9959 0.0881
vn 0.1574 -0.9864 0.0469
vn 0.1595 -0.9871 -0.0134
vn -0.1552 -0.9869 -0.0433
vn 0.0657 -0.9827 -0.1732
vn 0.0705 -0.9975 0.0001
vn 0.1295 -0.9916 0.0002
vn 0.1289 -0.9914 0.0230
vn 0.0703 -0.9975 0.0104
vn 0.2035 -0.9791 -0.0000
vn 0.2010 -0.9788 0.0391
vn 0.1918 -0.9783 0.0779
vn 0.1258 -0.9909 0.0474
vn 0.0720 -0.9972 0.0226
vn 0.0675 -0.9948 -0.0759
vn 0.0351 -0.9966 -0.0751
vn 0.0665 -0.9905 -0.1203
vn 0.0974 -0.9899 -0.1033
vn 0.0143 -0.9972 -0.0739
vn 0.0388 -0.9915 -0.1246
vn 0.0732 -0.9793 -0.1887
vn 0.1118 -0.9781 -0.1753
vn 0.1478 -0.9775 -0.1502
vn 0.0213 -0.9272 0.3740
vn 0.0035 -0.9281 0.3722
vn 0.0027 -0.9523 0.3051
vn 0.0170 -0.9513 0.3079
vn -0.0001 -0.9282 0.3720
vn -0.0001 -0.9526 0.3042
vn -0.0000 -0.9818 0.1898
vn 0.0014 -0.9817 0.1904
vn 0.0091 -0.9811 0.1931
vn 0.0004 -1.0000 0.0001
vn 0.0002 -1.0000 -0.0000
vn 0.0002 -1.0000 -0.0002
vn 0.0001 -1.0000 0.0002
vn -0.0000 -1.0000 0.0001
vn -0.0000 -1.0000 -0.0001
vn 0.0001 -1.0000 0.0001
vn -0.0001 -1.0000 0.0002
vn 0.0014 -0.9977 -0.0680
vn 0.0002 -0.9978 -0.0670
vn 0.0006 -0.9929 -0.1187
vn 0.0041 -0.9927 -0.1206
vn -0.0000 -0.9978 -0.0667
vn -0.0000 -0.9930 -0.1183
vn -0.0000 -0.9818 -0.1901
vn 0.0014 -0.9816 -0.1909
vn 0.0092 -0.9811 -0.1933
vn 0.3088 -0.9492 0.0612
vn 0.2914 -0.9490 0.1206
vn 0.3139 -0.9495 -0.0002
vn 0.3749 -0.9271 0.0001
vn 0.3677 -0.9271 0.0731
vn 0.3467 -0.9270 0.1435
vn 0.1478 -0.9775 0.1505
vn 0.1751 -0.9777 0.1162
vn 0.2636 -0.9485 0.1759
vn 0.2238 -0.9484 0.2245
vn 0.3122 -0.9268 0.2086
vn 0.2659 -0.9267 0.2656
vn 0.0732 -0.9793 0.1887
vn 0.1111 -0.9783 0.1751
vn 0.1751 -0.9486 0.2638
vn 0.1193 -0.9492 0.2912
vn 0.2091 -0.9265 0.3128
vn 0.1443 -0.9264 0.3479
vn 0.0348 -0.9803 0.1943
vn 0.0596 -0.9497 0.3074
vn 0.0730 -0.9266 0.3689
vn 0.0351 -0.9801 -0.1954
vn 0.0597 -0.9496 -0.3076
vn 0.1198 -0.9490 -0.2916
vn 0.0170 -0.9511 -0.3084
vn 0.0214 -0.9270 -0.3743
vn 0.0731 -0.9265 -0.3692
vn 0.1444 -0.9262 -0.3482
vn 0.1753 -0.9485 -0.2638
vn 0.2241 -0.9484 -0.2241
vn 0.2093 -0.9265 -0.3128
vn 0.2658 -0.9267 -0.2657
vn 0.1919 -0.9783 -0.0778
vn 0.1753 -0.9777 -0.1156
vn 0.2637 -0.9485 -0.1758
vn 0.2915 -0.9490 -0.1201
vn 0.3123 -0.9268 -0.2085
vn 0.3466 -0.9270 -0.1436
vn 0.2004 -0.9789 -0.0390
vn 0.3087 -0.9492 -0.0611
vn 0.3679 -0.9270 -0.0731
vn 0.0027 -0.9522 -0.3054
vn -0.0000 -0.9525 -0.3045
vn -0.0000 -0.9282 -0.3720
vn 0.0035 -0.9280 -0.3725
vn -0.0001 -1.0000 -0.0002
vn 0.0206 -0.9998 -0.0024
vn 0.0202 -0.9998 -0.0000
vn 0.0223 -0.9997 -0.0050
vn 0.0721 -0.9971 -0.0222
vn 0.0709 -0.9974 -0.0104
vn 0.0221 -0.9997 0.0053
vn 0.0229 -0.9994 0.0275
vn 0.0023 -0.9997 0.0238
vn 0.0688 -0.9966 0.0449
vn 0.0671 -0.9949 0.0756
vn 0.0348 -0.9966 0.0753
vn 0.0141 -0.9972 0.0737
vn -0.0001 -1.0000 -0.0000
vn 0.0008 -0.9998 -0.0218
vn 0.0021 -0.9997 -0.0232
vn 0.0001 -1.0000 -0.0001
vn 0.0003 -0.9998 -0.0210
vn 0.0062 -0.9975 -0.0704
vn 0.0386 -0.9915 0.1240
vn 0.0662 -0.9905 0.1203
vn 0.0971 -0.9899 0.1034
vn 0.0041 -0.9927 0.1203
vn 0.0173 -0.9922 0.1232
vn 0.0014 -0.9977 0.0680
vn 0.0060 -0.9975 0.0703
vn 0.1260 -0.9909 -0.0474
vn 0.1177 -0.9902 -0.0754
vn 0.0692 -0.9966 -0.0444
vn 0.0174 -0.9922 -0.1235
vn 0.0010 -0.9998 0.0221
vn 0.0002 -0.9998 0.0212
vn 0.0228 -0.9994 -0.0275
vn 0.0205 -0.9998 0.0027
vn 0.0001 -1.0000 -0.0000
vn 0.1176 -0.9902 0.0753
vn 0.1289 -0.9914 -0.0230
vn -0.0000 -1.0000 0.0002
vn -0.0000 -1.0000 -0.0000
vn -0.0000 -0.9998 -0.0206
vn -0.0000 -0.9998 -0.0208
vn -0.0000 -0.9978 0.0668
vn -0.0000 -0.9998 0.0210
vn -0.0000 -0.9998 0.0209
vn 0.0002 -0.9977 0.0671
vn 0.0006 -0.9929 0.1186
vn -0.0000 -0.9930 0.1182
vn -0.0703 -0.9975 -0.0004
vn -0.0709 -0.9974 0.0101
vn -0.1290 -0.9914 0.0228
vn -0.1295 -0.9916 -0.0003
vn -0.0723 -0.9971 0.0223
vn -0.1264 -0.9908 0.0475
vn -0.1919 -0.9783 0.0777
vn -0.2010 -0.9788 0.0387
vn -0.2034 -0.9791 -0.0000
vn -0.0672 -0.9949 -0.0753
vn -0.0968 -0.9899 -0.1034
vn -0.0663 -0.9905 -0.1204
vn -0.0348 -0.9966 -0.0742
vn -0.1478 -0.9775 -0.1504
vn -0.1115 -0.9781 -0.1756
vn -0.0732 -0.9793 -0.1886
vn -0.0387 -0.9915 -0.1239
vn -0.0142 -0.9972 -0.0737
vn -0.0212 -0.9270 0.3745
vn -0.0169 -0.9512 0.3082
vn -0.0027 -0.9522 0.3056
vn -0.0034 -0.9278 0.3731
vn -0.0091 -0.9811 0.1931
vn -0.0014 -0.9817 0.1904
vn 0.0005 -1.0000 0.0004
vn 0.0002 -1.0000 -0.0001
vn 0.0003 -1.0000 0.0003
vn -0.0002 -1.0000 -0.0002
vn -0.0001 -1.0000 0.0001
vn -0.0002 -1.0000 0.0002
vn -0.0002 -1.0000 0.0001
vn -0.0014 -0.9977 -0.0678
vn -0.0041 -0.9927 -0.1205
vn -0.0006 -0.9929 -0.1187
vn -0.0002 -0.9978 -0.0668
vn -0.0091 -0.9811 -0.1932
vn -0.0014 -0.9816 -0.1908
vn -0.2914 -0.9490 0.1205
vn -0.3088 -0.9492 0.0612
vn -0.3467 -0.9270 0.1435
vn -0.3677 -0.9271 0.0731
vn -0.3749 -0.9271 0.0001
vn -0.3139 -0.9494 -0.0003
vn -0.1478 -0.9775 0.1505
vn -0.2235 -0.9486 0.2240
vn -0.2636 -0.9485 0.1759
vn -0.1749 -0.9777 0.1159
vn -0.2656 -0.9268 0.2654
vn -0.3121 -0.9269 0.2086
vn -0.0732 -0.9793 0.1887
vn -0.1193 -0.9494 0.2906
vn -0.1751 -0.9486 0.2637
vn -0.1111 -0.9783 0.1747
vn -0.1441 -0.9265 0.3476
vn -0.2089 -0.9267 0.3124
vn -0.0596 -0.9497 0.3074
vn -0.0348 -0.9803 0.1943
vn -0.0732 -0.9267 0.3687
vn -0.1194 -0.9492 -0.2913
vn -0.0596 -0.9497 -0.3075
vn -0.0350 -0.9802 -0.1948
vn -0.1443 -0.9263 -0.3479
vn -0.0730 -0.9266 -0.3689
vn -0.0213 -0.9271 -0.3742
vn -0.0170 -0.9512 -0.3081
vn -0.2241 -0.9484 -0.2241
vn -0.1752 -0.9485 -0.2638
vn -0.2658 -0.9267 -0.2657
vn -0.2091 -0.9265 -0.3127
vn -0.1919 -0.9783 -0.0778
vn -0.2910 -0.9491 -0.1201
vn -0.2637 -0.9485 -0.1758
vn -0.1750 -0.9778 -0.1156
vn -0.3464 -0.9271 -0.1434
vn -0.3123 -0.9269 -0.2083
vn -0.3087 -0.9492 -0.0612
vn -0.2004 -0.9789 -0.0389
vn -0.3677 -0.9271 -0.0732
vn -0.0027 -0.9522 -0.3054
vn -0.0035 -0.9280 -0.3726
vn -0.0205 -0.9998 -0.0003
vn -0.0210 -0.9998 -0.0019
vn -0.0709 -0.9974 -0.0103
vn -0.0720 -0.9972 -0.0220
vn -0.0218 -0.9998 -0.0050
vn 0.0002 -1.0000 -0.0003
vn -0.0019 -0.9997 0.0238
vn -0.0226 -0.9994 0.0279
vn -0.0220 -0.9997 0.0051
vn -0.0141 -0.9972 0.0737
vn -0.0354 -0.9965 0.0754
vn -0.0672 -0.9949 0.0757
vn -0.0689 -0.9966 0.0442
vn -0.0018 -0.9997 -0.0233
vn -0.0010 -0.9998 -0.0218
vn -0.0000 -1.0000 -0.0002
vn -0.0061 -0.9975 -0.0701
vn -0.0003 -0.9998 -0.0207
vn -0.0002 -1.0000 -0.0001
vn -0.0662 -0.9905 0.1203
vn -0.0386 -0.9915 0.1239
vn -0.0971 -0.9899 0.1035
vn -0.0173 -0.9922 0.1232
vn -0.0041 -0.9927 0.1203
vn -0.0059 -0.9975 0.0706
vn -0.0015 -0.9977 0.0680
vn -0.1176 -0.9902 -0.0752
vn -0.1260 -0.9909 -0.0472
vn -0.0695 -0.9966 -0.0441
vn -0.0174 -0.9922 -0.1233
vn -0.0008 -0.9998 0.0218
vn -0.0004 -0.9998 0.0211
vn -0.0227 -0.9994 -0.0277
vn -0.0209 -0.9998 0.0017
vn -0.0001 -1.0000 -0.0001
vn -0.1176 -0.9902 0.0752
vn -0.1287 -0.9914 -0.0227
vn -0.0001 -0.9998 -0.0207
vn -0.0002 -0.9978 0.0670
vn -0.0006 -0.9929 0.1186
vn -0.0000 0.9600 -0.2800
vn -0.0000 0.0002 1.0000
vn 0.0003 0.4709 0.8822
vn -0.0000 0.4769 0.8789
vn -0.0000 0.4861 0.8739
vn -0.0000 0.4927 0.8702
vn -0.0000 0.4776 0.8786
vn 0.0006 0.4693 0.8830
vn 0.0758 -0.9969 -0.0202
vn 0.0984 -0.9949 -0.0205
vn 0.0964 -0.9953 -0.0012
vn 0.0702 -0.9975 0.0005
vn 0.1310 -0.9913 -0.0160
vn 0.1425 -0.9898 -0.0077
vn 0.1486 -0.9889 -0.0011
vn 0.1352 -0.9908 -0.0033
vn 0.0669 -0.9977 0.0113
vn 0.0902 -0.9959 0.0067
vn 0.0857 -0.9963 0.0032
vn 0.0647 -0.9979 0.0098
vn 0.1307 -0.9914 -0.0020
vn 0.1537 -0.9881 -0.0035
vn 0.1561 -0.9877 -0.0083
vn 0.1266 -0.9919 -0.0073
vn 0.0804 -0.9963 -0.0287
vn 0.0988 -0.9947 -0.0284
vn 0.1263 -0.9917 -0.0220
vn 0.1390 -0.9902 -0.0119
vn 0.1440 -0.9896 -0.0041
vn 0.1493 -0.9888 0.0015
vn 0.1594 -0.9872 -0.0010
vn 0.1656 -0.9862 -0.0053
vn 0.1425 -0.9898 -0.0079
vt 0.759244 0.399400
vt 0.752184 0.397218
vt 0.754539 0.387595
vt 0.762151 0.388672
vt 0.755332 0.377490
vt 0.763080 0.377513
vt 0.747726 0.417734
vt 0.742826 0.413107
vt 0.748328 0.405851
vt 0.754410 0.409219
vt 0.729440 0.429544
vt 0.726841 0.422438
vt 0.735531 0.418595
vt 0.739274 0.424553
vt 0.707282 0.433610
vt 0.706992 0.425499
vt 0.717156 0.424764
vt 0.718609 0.432588
vt 0.685136 0.429419
vt 0.687262 0.422108
vt 0.696859 0.424595
vt 0.695959 0.432525
vt 0.666888 0.417433
vt 0.671547 0.412540
vt 0.678704 0.418128
vt 0.675321 0.424345
vt 0.655423 0.398900
vt 0.662400 0.396576
vt 0.666153 0.405229
vt 0.660217 0.408820
vt 0.651807 0.376822
vt 0.659498 0.376902
vt 0.660161 0.386967
vt 0.652605 0.388069
vt 0.662954 0.357390
vt 0.660454 0.366880
vt 0.653066 0.365652
vt 0.656289 0.355033
vt 0.672422 0.341831
vt 0.666907 0.348920
vt 0.661379 0.345439
vt 0.668215 0.337219
vt 0.688111 0.332731
vt 0.679606 0.336483
vt 0.676662 0.330722
vt 0.686360 0.326025
vt 0.697593 0.330433
vt 0.696953 0.323199
vt 0.707978 0.322293
vt 0.707571 0.329674
vt 0.727073 0.332874
vt 0.717560 0.330505
vt 0.718987 0.323388
vt 0.729518 0.326406
vt 0.742804 0.342135
vt 0.735615 0.336704
vt 0.739108 0.331274
vt 0.747405 0.337903
vt 0.752107 0.357845
vt 0.748256 0.349302
vt 0.754056 0.346194
vt 0.758952 0.355806
vt 0.754492 0.367407
vt 0.761988 0.366403
vt 0.678908 0.348954
vt 0.683555 0.347486
vt 0.683506 0.353879
vt 0.677304 0.353691
vt 0.690443 0.346107
vt 0.690533 0.353306
vt 0.690233 0.360917
vt 0.682776 0.361017
vt 0.675801 0.360640
vt 0.698350 0.345175
vt 0.698323 0.352862
vt 0.706793 0.344819
vt 0.706528 0.352672
vt 0.706344 0.360711
vt 0.698154 0.360781
vt 0.715289 0.345163
vt 0.714801 0.352858
vt 0.723336 0.346091
vt 0.722783 0.353307
vt 0.722773 0.360969
vt 0.714616 0.360804
vt 0.730437 0.347488
vt 0.730119 0.353903
vt 0.735320 0.349009
vt 0.736758 0.353770
vt 0.738117 0.360805
vt 0.730621 0.361113
vt 0.682215 0.368866
vt 0.674765 0.368579
vt 0.689956 0.368921
vt 0.689789 0.377130
vt 0.681940 0.377078
vt 0.674324 0.377025
vt 0.697996 0.368923
vt 0.706226 0.368925
vt 0.706161 0.377231
vt 0.697891 0.377181
vt 0.714545 0.368981
vt 0.722846 0.369041
vt 0.722892 0.377326
vt 0.714521 0.377280
vt 0.731022 0.369055
vt 0.739035 0.368853
vt 0.739380 0.377416
vt 0.731189 0.377372
vt 0.682065 0.385309
vt 0.674594 0.385491
vt 0.689822 0.385356
vt 0.689971 0.393403
vt 0.682487 0.393200
vt 0.675473 0.393479
vt 0.697882 0.385457
vt 0.706135 0.385556
vt 0.706162 0.393816
vt 0.697928 0.393643
vt 0.714477 0.385596
vt 0.722800 0.385628
vt 0.722677 0.393742
vt 0.714479 0.393818
vt 0.730991 0.385703
vt 0.739018 0.385991
vt 0.738078 0.394069
vt 0.730555 0.393680
vt 0.683097 0.400394
vt 0.676851 0.400495
vt 0.690153 0.401073
vt 0.689945 0.408352
vt 0.683029 0.406853
vt 0.678371 0.405305
vt 0.697990 0.401625
vt 0.706253 0.401920
vt 0.706423 0.409870
vt 0.697907 0.409403
vt 0.714589 0.401830
vt 0.722630 0.401465
vt 0.723127 0.408773
vt 0.715001 0.409624
vt 0.730010 0.400937
vt 0.736684 0.401141
vt 0.735217 0.405943
vt 0.730291 0.407427
vt 0.745216 0.395347
vt 0.746858 0.386663
vt 0.747439 0.377456
vt 0.742613 0.402973
vt 0.738502 0.409057
vt 0.724637 0.415647
vt 0.732339 0.413107
vt 0.706687 0.417669
vt 0.715907 0.417198
vt 0.688921 0.415232
vt 0.697517 0.416981
vt 0.681416 0.412539
vt 0.675442 0.408392
vt 0.668922 0.394690
vt 0.671443 0.402285
vt 0.666914 0.376968
vt 0.667382 0.386077
vt 0.667590 0.367885
vt 0.669318 0.359342
vt 0.671986 0.351850
vt 0.676076 0.345870
vt 0.689553 0.339330
vt 0.682076 0.341871
vt 0.698082 0.337722
vt 0.707158 0.337158
vt 0.716270 0.337728
vt 0.724892 0.339350
vt 0.732502 0.341924
vt 0.738594 0.345975
vt 0.745228 0.359611
vt 0.742655 0.352028
vt 0.746860 0.368262
vt 0.894918 0.953179
vt 0.887894 0.950885
vt 0.890402 0.941301
vt 0.897996 0.942499
vt 0.891356 0.931209
vt 0.899103 0.931356
vt 0.883109 0.971327
vt 0.878284 0.966622
vt 0.883900 0.959455
vt 0.889928 0.962920
vt 0.864637 0.982843
vt 0.862152 0.975697
vt 0.870902 0.971993
vt 0.874550 0.978010
vt 0.842418 0.986551
vt 0.842255 0.978444
vt 0.852431 0.977868
vt 0.853759 0.985713
vt 0.820341 0.982012
vt 0.822583 0.974735
vt 0.832139 0.977372
vt 0.831112 0.985294
vt 0.802286 0.969736
vt 0.807023 0.964918
vt 0.814090 0.970619
vt 0.810608 0.976782
vt 0.791119 0.951022
vt 0.798131 0.948810
vt 0.801746 0.957521
vt 0.795754 0.961017
vt 0.787855 0.928889
vt 0.795544 0.929092
vt 0.796046 0.939166
vt 0.788474 0.940148
vt 0.799312 0.909637
vt 0.796660 0.919087
vt 0.789292 0.917741
vt 0.792684 0.907174
vt 0.809027 0.894232
vt 0.803399 0.901232
vt 0.797927 0.897662
vt 0.804894 0.889552
vt 0.824859 0.885383
vt 0.816295 0.888999
vt 0.813443 0.883192
vt 0.823215 0.878650
vt 0.844364 0.882634
vt 0.834377 0.883240
vt 0.833851 0.875989
vt 0.844890 0.875267
vt 0.863813 0.886148
vt 0.854340 0.883628
vt 0.855880 0.876536
vt 0.866361 0.879720
vt 0.879394 0.895659
vt 0.872294 0.890114
vt 0.875872 0.884740
vt 0.884062 0.891502
vt 0.888446 0.911515
vt 0.884731 0.902912
vt 0.890580 0.899897
vt 0.895322 0.909586
vt 0.890678 0.921115
vt 0.898189 0.920230
vt 0.815398 0.901457
vt 0.820068 0.900064
vt 0.819916 0.906455
vt 0.813718 0.906168
vt 0.826977 0.898795
vt 0.826951 0.905995
vt 0.826531 0.913600
vt 0.819073 0.913581
vt 0.812104 0.913092
vt 0.834897 0.897990
vt 0.834748 0.905675
vt 0.843345 0.897768
vt 0.842955 0.905616
vt 0.842643 0.913650
vt 0.834452 0.913590
vt 0.851834 0.898247
vt 0.851223 0.905934
vt 0.859866 0.899304
vt 0.859198 0.906510
vt 0.859065 0.914171
vt 0.850912 0.913876
vt 0.866944 0.900814
vt 0.866523 0.907223
vt 0.871802 0.902412
vt 0.873164 0.907196
vt 0.874411 0.914251
vt 0.866910 0.914440
vt 0.818387 0.921419
vt 0.810942 0.921014
vt 0.826125 0.921598
vt 0.825828 0.929803
vt 0.817980 0.929626
vt 0.810366 0.929452
vt 0.834164 0.921728
vt 0.842394 0.921862
vt 0.842196 0.930166
vt 0.833928 0.929984
vt 0.850710 0.922050
vt 0.859009 0.922243
vt 0.858923 0.930527
vt 0.850554 0.930347
vt 0.867184 0.922388
vt 0.875200 0.922313
vt 0.875408 0.930880
vt 0.867218 0.930706
vt 0.817974 0.937858
vt 0.810501 0.937920
vt 0.825729 0.938029
vt 0.825750 0.946077
vt 0.818270 0.945754
vt 0.811253 0.945922
vt 0.833786 0.938259
vt 0.842037 0.938489
vt 0.841932 0.946748
vt 0.833702 0.946444
vt 0.850378 0.938662
vt 0.858699 0.938827
vt 0.858446 0.946939
vt 0.850248 0.946884
vt 0.866887 0.939032
vt 0.874909 0.939449
vt 0.873839 0.947510
vt 0.866324 0.947002
vt 0.818765 0.952958
vt 0.812519 0.952959
vt 0.825809 0.953749
vt 0.825485 0.961024
vt 0.818595 0.959415
vt 0.813961 0.957792
vt 0.833636 0.954426
vt 0.841894 0.954853
vt 0.841937 0.962805
vt 0.833429 0.962201
vt 0.850230 0.954896
vt 0.858276 0.954659
vt 0.858656 0.961975
vt 0.850517 0.962696
vt 0.865663 0.954250
vt 0.872333 0.954560
vt 0.870790 0.959338
vt 0.865841 0.960743
vt 0.880956 0.948902
vt 0.882737 0.940246
vt 0.883465 0.931050
vt 0.878232 0.956486
vt 0.874025 0.962503
vt 0.860056 0.968872
vt 0.867798 0.966455
vt 0.842076 0.970608
vt 0.851302 0.970283
vt 0.824352 0.967886
vt 0.832919 0.969771
vt 0.816890 0.965074
vt 0.810983 0.960833
vt 0.804683 0.947028
vt 0.807082 0.954662
vt 0.802958 0.929276
vt 0.803281 0.938392
vt 0.803780 0.920205
vt 0.805643 0.911690
vt 0.808430 0.904242
vt 0.812616 0.898328
vt 0.826195 0.892004
vt 0.818679 0.894426
vt 0.834749 0.890533
vt 0.843832 0.890112
vt 0.852934 0.890830
vt 0.861529 0.892588
vt 0.869097 0.895284
vt 0.875124 0.899432
vt 0.881540 0.913172
vt 0.879088 0.905548
vt 0.883033 0.921848
vt 0.751328 0.950239
vt 0.757317 0.950241
vt 0.756948 0.954486
vt 0.751102 0.953660
vt 0.763427 0.950242
vt 0.762920 0.955494
vt 0.761431 0.960544
vt 0.755846 0.958559
vt 0.750409 0.956976
vt 0.748713 0.937727
vt 0.745808 0.937441
vt 0.748306 0.932827
vt 0.751493 0.935072
vt 0.742695 0.936791
vt 0.744611 0.931307
vt 0.747045 0.925598
vt 0.751670 0.927995
vt 0.755711 0.931244
vt 0.733471 0.987465
vt 0.715405 0.987931
vt 0.715351 0.983142
vt 0.733133 0.982728
vt 0.693718 0.987953
vt 0.693720 0.983163
vt 0.693721 0.977570
vt 0.715241 0.977550
vt 0.732683 0.977213
vt 0.742158 0.956079
vt 0.738868 0.956010
vt 0.738847 0.952991
vt 0.742213 0.953063
vt 0.731327 0.956016
vt 0.731318 0.952980
vt 0.731317 0.950232
vt 0.738846 0.950234
vt 0.742238 0.950235
vt 0.731548 0.936130
vt 0.714865 0.936009
vt 0.715051 0.929591
vt 0.732080 0.929823
vt 0.693732 0.935991
vt 0.693734 0.929565
vt 0.693736 0.922874
vt 0.715255 0.922907
vt 0.732701 0.923254
vt 0.768168 0.956468
vt 0.766366 0.962455
vt 0.768785 0.950245
vt 0.773507 0.950249
vt 0.772800 0.957378
vt 0.770735 0.964238
vt 0.755701 0.969237
vt 0.758991 0.965191
vt 0.763426 0.967974
vt 0.759481 0.972824
vt 0.767369 0.970560
vt 0.762851 0.976116
vt 0.747032 0.974878
vt 0.751658 0.972483
vt 0.754663 0.976811
vt 0.749171 0.979801
vt 0.757337 0.980682
vt 0.751054 0.984108
vt 0.741992 0.976370
vt 0.743199 0.981670
vt 0.744230 0.986252
vt 0.742006 0.924101
vt 0.743220 0.918804
vt 0.749191 0.920677
vt 0.733153 0.917740
vt 0.733493 0.913001
vt 0.744259 0.914226
vt 0.751082 0.916374
vt 0.754681 0.923671
vt 0.759496 0.927660
vt 0.757362 0.919803
vt 0.762872 0.924374
vt 0.761436 0.939940
vt 0.758999 0.935291
vt 0.763438 0.932513
vt 0.766374 0.938034
vt 0.767385 0.929933
vt 0.770746 0.936258
vt 0.762922 0.944991
vt 0.768172 0.944023
vt 0.772806 0.943119
vt 0.715368 0.917315
vt 0.693738 0.917278
vt 0.693739 0.912484
vt 0.715425 0.912525
vt 0.742214 0.947408
vt 0.746248 0.947237
vt 0.746353 0.950237
vt 0.742160 0.944392
vt 0.745931 0.944198
vt 0.750413 0.943501
vt 0.751104 0.946817
vt 0.745928 0.956275
vt 0.745397 0.959393
vt 0.742097 0.959470
vt 0.749231 0.960079
vt 0.748706 0.962749
vt 0.745801 0.963033
vt 0.742688 0.963681
vt 0.738871 0.944458
vt 0.738934 0.940916
vt 0.742101 0.941001
vt 0.731329 0.944448
vt 0.731354 0.940832
vt 0.739381 0.936379
vt 0.744601 0.969166
vt 0.748296 0.967648
vt 0.751485 0.965406
vt 0.732069 0.970641
vt 0.740553 0.970110
vt 0.731546 0.964332
vt 0.739374 0.964091
vt 0.755851 0.941921
vt 0.754020 0.938191
vt 0.749236 0.940398
vt 0.740564 0.930361
vt 0.738930 0.959552
vt 0.731350 0.959632
vt 0.745402 0.941081
vt 0.746247 0.953236
vt 0.738848 0.947477
vt 0.731319 0.947485
vt 0.754013 0.962288
vt 0.756951 0.945995
vt 0.693727 0.956033
vt 0.693728 0.952979
vt 0.714784 0.952980
vt 0.714786 0.956031
vt 0.693729 0.950224
vt 0.714783 0.950229
vt 0.693730 0.944416
vt 0.693731 0.940762
vt 0.714797 0.940777
vt 0.714789 0.944427
vt 0.693725 0.964461
vt 0.693726 0.959687
vt 0.714791 0.959681
vt 0.714856 0.964448
vt 0.693729 0.947470
vt 0.714785 0.947478
vt 0.715040 0.970866
vt 0.693723 0.970883
vt 0.636129 0.950207
vt 0.636353 0.953629
vt 0.630506 0.954452
vt 0.630139 0.950206
vt 0.637044 0.956945
vt 0.631607 0.958525
vt 0.626021 0.960507
vt 0.624535 0.955456
vt 0.624030 0.950204
vt 0.638751 0.937697
vt 0.635972 0.935040
vt 0.639161 0.932798
vt 0.641656 0.937412
vt 0.631756 0.931210
vt 0.635799 0.927964
vt 0.640426 0.925569
vt 0.642856 0.931279
vt 0.644769 0.936764
vt 0.653965 0.987444
vt 0.654306 0.982706
vt 0.672088 0.983130
vt 0.672031 0.987919
vt 0.654759 0.977192
vt 0.672201 0.977539
vt 0.645296 0.956052
vt 0.645243 0.953037
vt 0.648609 0.952967
vt 0.648585 0.955986
vt 0.645219 0.950209
vt 0.648611 0.950210
vt 0.656140 0.950212
vt 0.656137 0.952959
vt 0.656127 0.955996
vt 0.655916 0.936109
vt 0.655388 0.929802
vt 0.672417 0.929579
vt 0.672600 0.935997
vt 0.654771 0.923233
vt 0.672216 0.922895
vt 0.621085 0.962415
vt 0.619286 0.956427
vt 0.616714 0.964196
vt 0.614653 0.957335
vt 0.613950 0.950206
vt 0.618672 0.950204
vt 0.631746 0.969203
vt 0.627964 0.972788
vt 0.624021 0.967936
vt 0.628458 0.965156
vt 0.624592 0.976079
vt 0.620077 0.970520
vt 0.640412 0.974849
vt 0.638270 0.979771
vt 0.632779 0.976778
vt 0.635787 0.972452
vt 0.636384 0.984076
vt 0.630103 0.980648
vt 0.644241 0.981643
vt 0.645451 0.976344
vt 0.643208 0.986225
vt 0.638283 0.920647
vt 0.644254 0.918777
vt 0.645465 0.924075
vt 0.636394 0.916342
vt 0.643218 0.914198
vt 0.653984 0.912979
vt 0.654322 0.917718
vt 0.627974 0.927624
vt 0.632791 0.923638
vt 0.624600 0.924336
vt 0.630112 0.919768
vt 0.626027 0.939903
vt 0.621090 0.937994
vt 0.624029 0.932475
vt 0.628466 0.935255
vt 0.616718 0.936216
vt 0.620083 0.929893
vt 0.619289 0.943982
vt 0.624537 0.944953
vt 0.614655 0.943076
vt 0.672107 0.917303
vt 0.672052 0.912513
vt 0.641104 0.950208
vt 0.641211 0.947209
vt 0.645245 0.947381
vt 0.636355 0.946785
vt 0.637048 0.943470
vt 0.641529 0.944170
vt 0.645300 0.944366
vt 0.645355 0.959444
vt 0.642055 0.959364
vt 0.641525 0.956247
vt 0.644762 0.963654
vt 0.641649 0.963005
vt 0.638744 0.962719
vt 0.638221 0.960048
vt 0.645361 0.940974
vt 0.648528 0.940892
vt 0.648589 0.944433
vt 0.648084 0.936354
vt 0.656108 0.940811
vt 0.656131 0.944428
vt 0.639151 0.967619
vt 0.642846 0.969138
vt 0.635964 0.965375
vt 0.646893 0.970084
vt 0.655376 0.970620
vt 0.648075 0.964066
vt 0.655904 0.964311
vt 0.633444 0.938158
vt 0.631611 0.941887
vt 0.638226 0.940367
vt 0.646904 0.930335
vt 0.648522 0.959527
vt 0.656101 0.959611
vt 0.642060 0.941052
vt 0.641209 0.953208
vt 0.648611 0.947452
vt 0.656139 0.947465
vt 0.633438 0.962255
vt 0.630509 0.945960
vt 0.672668 0.956019
vt 0.672672 0.952969
vt 0.672674 0.950217
vt 0.672671 0.944415
vt 0.672665 0.940765
vt 0.672594 0.964437
vt 0.672661 0.959669
vt 0.672673 0.947466
vt 0.672406 0.970855
vt 0.000500 0.478871
vt 0.103574 0.478871
vt 0.103574 0.565106
vt 0.000500 0.565106
vt 0.217680 0.478871
vt 0.217680 0.561362
vt 0.146817 0.561362
vt 0.146817 0.478871
vt 0.602446 0.298407
vt 0.602439 0.333729
vt 0.040640 0.333726
vt 0.040635 0.298405
vt 0.602430 0.374801
vt 0.602423 0.411046
vt 0.040653 0.411041
vt 0.040647 0.374798
vt 0.602413 0.445751
vt 0.602436 0.476745
vt 0.040665 0.476738
vt 0.040659 0.445744
vt 0.040630 0.263825
vt 0.602453 0.263827
vt 0.702301 0.650677
vt 0.751878 0.650691
vt 0.751789 0.700002
vt 0.702216 0.699994
vt 0.801409 0.650706
vt 0.851192 0.650682
vt 0.851120 0.700003
vt 0.801304 0.700023
vt 0.702287 0.749298
vt 0.751816 0.749316
vt 0.751836 0.798640
vt 0.702337 0.798628
vt 0.801273 0.749331
vt 0.851116 0.749319
vt 0.851122 0.798649
vt 0.801240 0.798660
vt 0.702396 0.601339
vt 0.751976 0.601359
vt 0.801511 0.601372
vt 0.851252 0.601353
vt 0.901022 0.650664
vt 0.901001 0.699984
vt 0.901039 0.749303
vt 0.901091 0.798629
vt 0.901035 0.601337
s 1
f 318/1/1 26/2/2 319/3/3 158/4/4
f 27/5/5 320/6/6 158/4/4 319/3/3
f 321/7/7 28/8/8 322/9/9 159/10/10
f 26/2/2 318/1/1 159/10/10 322/9/9
f 323/11/11 29/12/12 324/13/13 160/14/14
f 28/8/8 321/7/7 160/14/14 324/13/13
f 325/15/15 30/16/16 326/17/17 161/18/18
f 29/12/12 323/11/11 161/18/18 326/17/17
f 327/19/19 31/20/20 328/21/21 162/22/22
f 325/15/15 162/22/22 328/21/21 30/16/16
f 329/23/23 32/24/24 330/25/25 163/26/26
f 31/20/20 327/19/19 163/26/26 330/25/25
f 331/27/27 33/28/28 332/29/29 164/30/30
f 32/24/24 329/23/23 164/30/30 332/29/29
f 333/31/31 34/32/32 334/33/33 165/34/34
f 33/28/28 331/27/27 165/34/34 334/33/33
f 35/35/35 336/36/36 166/37/37 335/38/38
f 336/36/36 34/32/32 333/31/31 166/37/37
f 36/39/39 338/40/40 167/41/41 337/42/42
f 338/40/40 35/35/35 335/38/38 167/41/41
f 37/43/43 340/44/44 168/45/45 339/46/46
f 340/44/44 36/39/39 337/42/42 168/45/45
f 342/47/47 169/48/48 341/49/49 38/50/50
f 342/47/47 37/43/43 339/46/46 169/48/48
f 39/51/51 344/52/52 170/53/53 343/54/54
f 344/52/52 38/50/50 341/49/49 170/53/53
f 40/55/55 346/56/56 171/57/57 345/58/58
f 346/56/56 39/51/51 343/54/54 171/57/57
f 41/59/59 348/60/60 172/61/61 347/62/62
f 348/60/60 40/55/55 345/58/58 172/61/61
f 27/5/5 349/63/63 173/64/64 320/6/6
f 349/63/63 41/59/59 347/62/62 173/64/64
f 2/65/65 350/66/66 174/67/67 353/68/68
f 350/66/66 3/69/69 351/70/70 174/67/67
f 4/71/71 352/72/72 174/67/67 351/70/70
f 352/72/72 1/73/73 353/68/68 174/67/67
f 3/69/69 354/74/74 175/75/75 351/70/70
f 354/74/74 5/76/76 355/77/77 175/75/75
f 6/78/78 356/79/79 175/75/75 355/77/77
f 356/79/79 4/71/71 351/70/70 175/75/75
f 5/76/76 357/80/80 176/81/81 355/77/77
f 357/80/80 7/82/82 358/83/83 176/81/81
f 8/84/84 359/85/85 176/81/81 358/83/83
f 6/78/78 355/77/77 176/81/81 359/85/85
f 7/82/82 360/86/86 177/87/87 358/83/83
f 360/86/86 9/88/88 361/89/89 177/87/87
f 10/90/90 362/91/91 177/87/87 361/89/89
f 362/91/91 8/84/84 358/83/83 177/87/87
f 1/73/73 352/72/72 178/92/92 365/93/93
f 352/72/72 4/71/71 363/94/94 178/92/92
f 12/95/95 364/96/96 178/92/92 363/94/94
f 364/96/96 11/97/97 365/93/93 178/92/92
f 4/71/71 356/79/79 179/98/98 363/94/94
f 356/79/79 6/78/78 366/99/99 179/98/98
f 13/100/100 367/101/101 179/98/98 366/99/99
f 367/101/101 12/95/95 363/94/94 179/98/98
f 359/85/85 180/102/102 366/99/99 6/78/78
f 359/85/85 8/84/84 368/103/103 180/102/102
f 14/104/104 369/105/105 180/102/102 368/103/103
f 13/100/100 366/99/99 180/102/102 369/105/105
f 8/84/84 362/91/91 181/106/106 368/103/103
f 362/91/91 10/90/90 370/107/107 181/106/106
f 15/108/108 371/109/109 181/106/106 370/107/107
f 371/109/109 14/104/104 368/103/103 181/106/106
f 11/97/97 364/96/96 182/110/110 374/111/111
f 364/96/96 12/95/95 372/112/112 182/110/110
f 17/113/113 373/114/114 182/110/110 372/112/112
f 373/114/114 16/115/115 374/111/111 182/110/110
f 12/95/95 367/101/101 183/116/116 372/112/112
f 367/101/101 13/100/100 375/117/117 183/116/116
f 18/118/118 376/119/119 183/116/116 375/117/117
f 376/119/119 17/113/113 372/112/112 183/116/116
f 13/100/100 369/105/105 184/120/120 375/117/117
f 369/105/105 14/104/104 377/121/121 184/120/120
f 19/122/122 378/123/123 184/120/120 377/121/121
f 378/123/123 18/118/118 375/117/117 184/120/120
f 14/104/104 371/109/109 185/124/124 377/121/121
f 371/109/109 15/108/108 379/125/125 185/124/124
f 20/126/126 380/127/127 185/124/124 379/125/125
f 380/127/127 19/122/122 377/121/121 185/124/124
f 16/115/115 373/114/114 186/128/128 383/129/129
f 373/114/114 17/113/113 381/130/130 186/128/128
f 22/131/131 382/132/132 186/128/128 381/130/130
f 382/132/132 21/133/133 383/129/129 186/128/128
f 17/113/113 376/119/119 187/134/134 381/130/130
f 376/119/119 18/118/118 384/135/135 187/134/134
f 23/136/136 385/137/137 187/134/134 384/135/135
f 385/137/137 22/131/131 381/130/130 187/134/134
f 18/118/118 378/123/123 188/138/138 384/135/135
f 378/123/123 19/122/122 386/139/139 188/138/138
f 24/140/140 387/141/141 188/138/138 386/139/139
f 387/141/141 23/136/136 384/135/135 188/138/138
f 19/122/122 380/127/127 189/142/142 386/139/139
f 380/127/127 20/126/126 388/143/143 189/142/142
f 25/144/144 389/145/145 189/142/142 388/143/143
f 389/145/145 24/140/140 386/139/139 189/142/142
f 26/2/2 390/146/146 190/147/147 319/3/3
f 390/146/146 20/126/126 379/125/125 190/147/147
f 15/108/108 391/148/148 190/147/147 379/125/125
f 391/148/148 27/5/5 319/3/3 190/147/147
f 25/144/144 388/143/143 191/149/149 392/150/150
f 388/143/143 20/126/126 390/146/146 191/149/149
f 26/2/2 322/9/9 191/149/149 390/146/146
f 322/9/9 28/8/8 392/150/150 191/149/149
f 29/12/12 393/151/151 192/152/152 324/13/13
f 393/151/151 24/140/140 389/145/145 192/152/152
f 25/144/144 392/150/150 192/152/152 389/145/145
f 392/150/150 28/8/8 324/13/13 192/152/152
f 30/16/16 394/153/153 193/154/154 326/17/17
f 394/153/153 23/136/136 387/141/141 193/154/154
f 24/140/140 393/151/151 193/154/154 387/141/141
f 393/151/151 29/12/12 326/17/17 193/154/154
f 31/20/20 395/155/155 194/156/156 328/21/21
f 395/155/155 22/131/131 385/137/137 194/156/156
f 23/136/136 394/153/153 194/156/156 385/137/137
f 394/153/153 30/16/16 328/21/21 194/156/156
f 21/133/133 382/132/132 195/157/157 396/158/158
f 382/132/132 22/131/131 395/155/155 195/157/157
f 31/20/20 330/25/25 195/157/157 395/155/155
f 330/25/25 32/24/24 396/158/158 195/157/157
f 33/28/28 397/159/159 196/160/160 332/29/29
f 397/159/159 16/115/115 383/129/129 196/160/160
f 21/133/133 396/158/158 196/160/160 383/129/129
f 396/158/158 32/24/24 332/29/29 196/160/160
f 34/32/32 398/161/161 197/162/162 334/33/33
f 398/161/161 11/97/97 374/111/111 197/162/162
f 16/115/115 397/159/159 197/162/162 374/111/111
f 397/159/159 33/28/28 334/33/33 197/162/162
f 1/73/73 365/93/93 198/163/163 399/164/164
f 365/93/93 11/97/97 398/161/161 198/163/163
f 34/32/32 336/36/36 198/163/163 398/161/161
f 336/36/36 35/35/35 399/164/164 198/163/163
f 2/65/65 353/68/68 199/165/165 400/166/166
f 353/68/68 1/73/73 399/164/164 199/165/165
f 35/35/35 338/40/40 199/165/165 399/164/164
f 338/40/40 36/39/39 400/166/166 199/165/165
f 37/43/43 401/167/167 200/168/168 340/44/44
f 401/167/167 3/69/69 350/66/66 200/168/168
f 2/65/65 400/166/166 200/168/168 350/66/66
f 400/166/166 36/39/39 340/44/44 200/168/168
f 5/76/76 354/74/74 201/169/169 402/170/170
f 354/74/74 3/69/69 401/167/167 201/169/169
f 37/43/43 342/47/47 201/169/169 401/167/167
f 342/47/47 38/50/50 402/170/170 201/169/169
f 7/82/82 357/80/80 202/171/171 403/172/172
f 5/76/76 402/170/170 202/171/171 357/80/80
f 38/50/50 344/52/52 202/171/171 402/170/170
f 344/52/52 39/51/51 403/172/172 202/171/171
f 9/88/88 360/86/86 203/173/173 404/174/174
f 360/86/86 7/82/82 403/172/172 203/173/173
f 39/51/51 346/56/56 203/173/173 403/172/172
f 346/56/56 40/55/55 404/174/174 203/173/173
f 41/59/59 405/175/175 204/176/176 348/60/60
f 405/175/175 10/90/90 361/89/89 204/176/176
f 9/88/88 404/174/174 204/176/176 361/89/89
f 404/174/174 40/55/55 348/60/60 204/176/176
f 15/108/108 370/107/107 205/177/177 391/148/148
f 370/107/107 10/90/90 405/175/175 205/177/177
f 41/59/59 349/63/63 205/177/177 405/175/175
f 349/63/63 27/5/5 391/148/148 205/177/177
f 406/178/1 42/179/2 407/180/3 206/181/4
f 43/182/5 408/183/6 206/181/4 407/180/3
f 409/184/7 44/185/8 410/186/9 207/187/10
f 42/179/2 406/178/1 207/187/10 410/186/9
f 411/188/11 45/189/12 412/190/13 208/191/14
f 44/185/8 409/184/7 208/191/14 412/190/13
f 413/192/15 46/193/16 414/194/17 209/195/18
f 45/189/12 411/188/11 209/195/18 414/194/17
f 415/196/19 47/197/20 416/198/178 210/199/22
f 46/193/16 413/192/15 210/199/22 416/198/178
f 417/200/23 48/201/24 418/202/25 211/203/26
f 47/197/20 415/196/19 211/203/26 418/202/25
f 419/204/27 49/205/28 420/206/29 212/207/179
f 48/201/24 417/200/23 212/207/179 420/206/29
f 421/208/180 50/209/32 422/210/33 213/211/34
f 49/205/28 419/204/27 213/211/34 422/210/33
f 51/212/35 424/213/36 214/214/37 423/215/38
f 424/213/36 50/209/32 421/208/180 214/214/37
f 52/216/39 426/217/40 215/218/41 425/219/42
f 426/217/40 51/212/35 423/215/38 215/218/41
f 53/220/43 428/221/44 216/222/181 427/223/46
f 428/221/44 52/216/39 425/219/42 216/222/181
f 54/224/50 430/225/47 217/226/48 429/227/49
f 430/225/47 53/220/43 427/223/46 217/226/48
f 55/228/51 432/229/182 218/230/53 431/231/54
f 432/229/182 54/224/50 429/227/49 218/230/53
f 56/232/183 434/233/56 219/234/57 433/235/58
f 434/233/56 55/228/51 431/231/54 219/234/57
f 57/236/59 436/237/60 220/238/61 435/239/62
f 436/237/60 56/232/183 433/235/58 220/238/61
f 43/182/5 437/240/63 221/241/64 408/183/6
f 437/240/63 57/236/59 435/239/62 221/241/64
f 59/242/65 438/243/66 222/244/67 441/245/68
f 438/243/66 60/246/69 439/247/70 222/244/67
f 61/248/71 440/249/72 222/244/67 439/247/70
f 440/249/72 58/250/73 441/245/68 222/244/67
f 60/246/69 442/251/74 223/252/75 439/247/70
f 442/251/74 62/253/76 443/254/77 223/252/75
f 63/255/78 444/256/79 223/252/75 443/254/77
f 444/256/79 61/248/71 439/247/70 223/252/75
f 62/253/76 445/257/80 224/258/81 443/254/77
f 445/257/80 64/259/82 446/260/83 224/258/81
f 65/261/84 447/262/85 224/258/81 446/260/83
f 447/262/85 63/255/78 443/254/77 224/258/81
f 64/259/82 448/263/86 225/264/87 446/260/83
f 448/263/86 66/265/88 449/266/89 225/264/87
f 67/267/90 450/268/91 225/264/87 449/266/89
f 450/268/91 65/261/84 446/260/83 225/264/87
f 58/250/73 440/249/72 226/269/92 453/270/93
f 440/249/72 61/248/71 451/271/94 226/269/92
f 69/272/95 452/273/96 226/269/92 451/271/94
f 452/273/96 68/274/184 453/270/93 226/269/92
f 61/248/71 444/256/79 227/275/98 451/271/94
f 444/256/79 63/255/78 454/276/99 227/275/98
f 70/277/100 455/278/101 227/275/98 454/276/99
f 455/278/101 69/272/95 451/271/94 227/275/98
f 63/255/78 447/262/85 228/279/102 454/276/99
f 447/262/85 65/261/84 456/280/103 228/279/102
f 71/281/104 457/282/105 228/279/102 456/280/103
f 457/282/105 70/277/100 454/276/99 228/279/102
f 65/261/84 450/268/91 229/283/106 456/280/103
f 450/268/91 67/267/90 458/284/107 229/283/106
f 72/285/108 459/286/109 229/283/106 458/284/107
f 459/286/109 71/281/104 456/280/103 229/283/106
f 68/274/184 452/273/96 230/287/110 462/288/111
f 452/273/96 69/272/95 460/289/112 230/287/110
f 74/290/113 461/291/114 230/287/110 460/289/112
f 461/291/114 73/292/115 462/288/111 230/287/110
f 69/272/95 455/278/101 231/293/116 460/289/112
f 455/278/101 70/277/100 463/294/117 231/293/116
f 75/295/118 464/296/185 231/293/116 463/294/117
f 464/296/185 74/290/113 460/289/112 231/293/116
f 70/277/100 457/282/105 232/297/120 463/294/117
f 457/282/105 71/281/104 465/298/121 232/297/120
f 76/299/122 466/300/123 232/297/120 465/298/121
f 466/300/123 75/295/118 463/294/117 232/297/120
f 71/281/104 459/286/109 233/301/124 465/298/121
f 459/286/109 72/285/108 467/302/125 233/301/124
f 77/303/126 468/304/127 233/301/124 467/302/125
f 468/304/127 76/299/122 465/298/121 233/301/124
f 73/292/115 461/291/114 234/305/128 471/306/129
f 461/291/114 74/290/113 469/307/130 234/305/128
f 79/308/131 470/309/132 234/305/128 469/307/130
f 470/309/132 78/310/133 471/306/129 234/305/128
f 74/290/113 464/296/185 235/311/134 469/307/130
f 464/296/185 75/295/118 472/312/186 235/311/134
f 80/313/136 473/314/187 235/311/134 472/312/186
f 473/314/187 79/308/131 469/307/130 235/311/134
f 75/295/118 466/300/123 236/315/138 472/312/186
f 466/300/123 76/299/122 474/316/139 236/315/138
f 81/317/140 475/318/141 236/315/138 474/316/139
f 475/318/141 80/313/136 472/312/186 236/315/138
f 76/299/122 468/304/127 237/319/142 474/316/139
f 468/304/127 77/303/126 476/320/143 237/319/142
f 82/321/144 477/322/145 237/319/142 476/320/143
f 477/322/145 81/317/140 474/316/139 237/319/142
f 42/179/2 478/323/188 238/324/147 407/180/3
f 478/323/188 77/303/126 467/302/125 238/324/147
f 72/285/108 479/325/189 238/324/147 467/302/125
f 479/325/189 43/182/5 407/180/3 238/324/147
f 82/321/144 476/320/143 239/326/149 480/327/150
f 476/320/143 77/303/126 478/323/188 239/326/149
f 42/179/2 410/186/9 239/326/149 478/323/188
f 410/186/9 44/185/8 480/327/150 239/326/149
f 45/189/12 481/328/151 240/329/152 412/190/13
f 481/328/151 81/317/140 477/322/145 240/329/152
f 82/321/144 480/327/150 240/329/152 477/322/145
f 480/327/150 44/185/8 412/190/13 240/329/152
f 46/193/16 482/330/153 241/331/154 414/194/17
f 482/330/153 80/313/136 475/318/141 241/331/154
f 81/317/140 481/328/151 241/331/154 475/318/141
f 481/328/151 45/189/12 414/194/17 241/331/154
f 47/197/20 483/332/155 242/333/156 416/198/178
f 483/332/155 79/308/131 473/314/187 242/333/156
f 80/313/136 482/330/153 242/333/156 473/314/187
f 482/330/153 46/193/16 416/198/178 242/333/156
f 78/310/133 470/309/132 243/334/157 484/335/158
f 470/309/132 79/308/131 483/332/155 243/334/157
f 47/197/20 418/202/25 243/334/157 483/332/155
f 418/202/25 48/201/24 484/335/158 243/334/157
f 49/205/28 485/336/159 244/337/160 420/206/29
f 485/336/159 73/292/115 471/306/129 244/337/160
f 78/310/133 484/335/158 244/337/160 471/306/129
f 484/335/158 48/201/24 420/206/29 244/337/160
f 50/209/32 486/338/161 245/339/162 422/210/33
f 486/338/161 68/274/184 462/288/111 245/339/162
f 73/292/115 485/336/159 245/339/162 462/288/111
f 485/336/159 49/205/28 422/210/33 245/339/162
f 58/250/73 453/270/93 246/340/190 487/341/164
f 453/270/93 68/274/184 486/338/161 246/340/190
f 50/209/32 424/213/36 246/340/190 486/338/161
f 424/213/36 51/212/35 487/341/164 246/340/190
f 59/242/65 441/245/68 247/342/165 488/343/166
f 441/245/68 58/250/73 487/341/164 247/342/165
f 51/212/35 426/217/40 247/342/165 487/341/164
f 426/217/40 52/216/39 488/343/166 247/342/165
f 53/220/43 489/344/167 248/345/168 428/221/44
f 489/344/167 60/246/69 438/243/66 248/345/168
f 59/242/65 488/343/166 248/345/168 438/243/66
f 488/343/166 52/216/39 428/221/44 248/345/168
f 62/253/76 442/251/74 249/346/169 490/347/170
f 442/251/74 60/246/69 489/344/167 249/346/169
f 53/220/43 430/225/47 249/346/169 489/344/167
f 430/225/47 54/224/50 490/347/170 249/346/169
f 64/259/82 445/257/80 250/348/171 491/349/191
f 445/257/80 62/253/76 490/347/170 250/348/171
f 54/224/50 432/229/182 250/348/171 490/347/170
f 432/229/182 55/228/51 491/349/191 250/348/171
f 66/265/88 448/263/86 251/350/173 492/351/174
f 448/263/86 64/259/82 491/349/191 251/350/173
f 55/228/51 434/233/56 251/350/173 491/349/191
f 434/233/56 56/232/183 492/351/174 251/350/173
f 57/236/59 493/352/175 252/353/176 436/237/60
f 493/352/175 67/267/90 449/266/89 252/353/176
f 66/265/88 492/351/174 252/353/176 449/266/89
f 492/351/174 56/232/183 436/237/60 252/353/176
f 72/285/108 458/284/107 253/354/177 479/325/189
f 458/284/107 67/267/90 493/352/175 253/354/177
f 57/236/59 437/240/63 253/354/177 493/352/175
f 437/240/63 43/182/5 479/325/189 253/354/177
f 105/355/192 502/356/193 254/357/194 505/358/195
f 502/356/193 84/359/196 503/360/197 254/357/194
f 83/361/198 504/362/199 254/357/194 503/360/197
f 504/362/199 114/363/200 505/358/195 254/357/194
f 109/364/201 506/365/202 255/366/203 509/367/204
f 506/365/202 108/368/205 507/369/206 255/366/203
f 88/370/207 508/371/208 255/366/203 507/369/206
f 508/371/208 90/372/209 509/367/204 255/366/203
f 101/373/210 510/374/211 256/375/212 513/376/213
f 510/374/211 103/377/214 511/378/215 256/375/212
f 102/379/216 512/380/217 256/375/212 511/378/215
f 512/380/217 87/381/218 513/376/213 256/375/212
f 112/382/219 514/383/220 257/384/221 517/385/222
f 514/383/220 118/386/223 515/387/224 257/384/221
f 115/388/225 516/389/225 257/384/221 515/387/224
f 516/389/225 92/390/226 517/385/222 257/384/221
f 117/391/227 518/392/228 258/393/229 521/394/230
f 518/392/228 144/395/231 519/396/232 258/393/229
f 145/397/233 520/398/234 258/393/229 519/396/232
f 520/398/234 89/399/235 521/394/230 258/393/229
f 83/361/198 503/360/197 259/400/236 524/401/237
f 503/360/197 84/359/196 523/402/238 259/400/236
f 97/403/239 494/404/240 259/400/236 523/402/238
f 494/404/240 98/405/241 524/401/237 259/400/236
f 85/406/242 525/407/243 260/408/244 526/409/245
f 525/407/243 83/361/198 524/401/237 260/408/244
f 98/405/241 495/410/246 260/408/244 524/401/237
f 495/410/246 99/411/247 526/409/245 260/408/244
f 86/412/248 527/413/249 261/414/250 528/415/251
f 527/413/249 85/406/242 526/409/245 261/414/250
f 99/411/247 496/416/252 261/414/250 526/409/245
f 496/416/252 100/417/253 528/415/251 261/414/250
f 87/381/218 529/418/254 262/419/255 513/376/213
f 529/418/254 86/412/248 528/415/251 262/419/255
f 100/417/253 497/420/256 262/419/255 528/415/251
f 497/420/256 101/373/210 513/376/213 262/419/255
f 88/370/207 530/421/257 263/422/258 532/423/259
f 530/421/257 89/399/235 531/424/260 263/422/258
f 93/425/261 498/426/262 263/422/258 531/424/260
f 498/426/262 94/427/263 532/423/259 263/422/258
f 90/372/209 508/371/208 264/428/264 533/429/265
f 508/371/208 88/370/207 532/423/259 264/428/264
f 94/427/263 499/430/266 264/428/264 532/423/259
f 499/430/266 95/431/267 533/429/265 264/428/264
f 91/432/268 534/433/269 265/434/270 535/435/271
f 534/433/269 90/372/209 533/429/265 265/434/270
f 95/431/267 500/436/272 265/434/270 533/429/265
f 500/436/272 96/437/273 535/435/271 265/434/270
f 84/359/196 536/438/274 266/439/275 523/402/238
f 536/438/274 91/432/268 535/435/271 266/439/275
f 96/437/273 501/440/276 266/439/275 535/435/271
f 501/440/276 97/403/239 523/402/238 266/439/275
f 89/399/235 520/398/234 267/441/277 531/424/260
f 520/398/234 145/397/233 537/442/278 267/441/277
f 104/443/279 522/444/280 267/441/277 537/442/278
f 522/444/280 93/425/261 531/424/260 267/441/277
f 92/390/226 538/445/281 268/446/282 541/447/283
f 538/445/281 110/448/223 539/449/284 268/446/282
f 111/450/285 540/451/286 268/446/282 539/449/284
f 540/451/286 105/355/192 541/447/283 268/446/282
f 112/382/219 542/452/287 269/453/288 545/454/289
f 542/452/287 114/363/200 543/455/290 269/453/288
f 107/456/291 544/457/292 269/453/288 543/455/290
f 544/457/292 106/458/293 545/454/289 269/453/288
f 110/448/223 546/459/294 270/460/295 549/461/296
f 546/459/294 119/462/297 547/463/298 270/460/295
f 117/391/227 548/464/299 270/460/295 547/463/298
f 548/464/299 108/368/205 549/461/296 270/460/295
f 86/412/248 550/465/300 271/466/301 527/413/249
f 550/465/300 106/458/293 544/457/292 271/466/301
f 107/456/291 551/467/302 271/466/301 544/457/292
f 551/467/302 85/406/242 527/413/249 271/466/301
f 87/381/218 552/468/303 272/469/304 529/418/254
f 552/468/303 116/470/305 553/471/306 272/469/304
f 106/458/293 550/465/300 272/469/304 553/471/306
f 550/465/300 86/412/248 529/418/254 272/469/304
f 91/432/268 554/472/307 273/473/308 534/433/269
f 554/472/307 111/450/285 555/474/309 273/473/308
f 109/364/201 509/367/204 273/473/308 555/474/309
f 509/367/204 90/372/209 534/433/269 273/473/308
f 108/368/205 548/464/299 274/475/310 507/369/206
f 548/464/299 117/391/227 521/394/230 274/475/310
f 89/399/235 530/421/257 274/475/310 521/394/230
f 530/421/257 88/370/207 507/369/206 274/475/310
f 106/458/293 553/471/306 275/476/311 545/454/289
f 553/471/306 116/470/305 556/477/312 275/476/311
f 118/386/223 514/383/220 275/476/311 556/477/312
f 514/383/220 112/382/219 545/454/289 275/476/311
f 110/448/223 549/461/296 276/478/313 539/449/284
f 549/461/296 108/368/205 506/365/202 276/478/313
f 109/364/201 555/474/309 276/478/313 506/365/202
f 555/474/309 111/450/285 539/449/284 276/478/313
f 92/390/226 541/447/283 277/479/314 517/385/222
f 541/447/283 105/355/192 505/358/195 277/479/314
f 114/363/200 542/452/287 277/479/314 505/358/195
f 542/452/287 112/382/219 517/385/222 277/479/314
f 92/390/226 516/389/225 278/480/224 538/445/281
f 516/389/225 115/388/225 557/481/315 278/480/224
f 119/462/297 546/459/294 278/480/224 557/481/315
f 546/459/294 110/448/223 538/445/281 278/480/224
f 83/361/198 525/407/243 279/482/316 504/362/199
f 525/407/243 85/406/242 551/467/302 279/482/316
f 107/456/291 543/455/290 279/482/316 551/467/302
f 543/455/290 114/363/200 504/362/199 279/482/316
f 91/432/268 536/438/274 280/483/317 554/472/307
f 536/438/274 84/359/196 502/356/193 280/483/317
f 105/355/192 540/451/286 280/483/317 502/356/193
f 540/451/286 111/450/285 554/472/307 280/483/317
f 113/484/318 558/485/319 281/486/319 560/487/318
f 558/485/319 155/488/319 559/489/319 281/486/319
f 115/388/225 515/387/224 281/486/319 559/489/319
f 515/387/224 118/386/223 560/487/318 281/486/319
f 156/490/224 561/491/320 282/492/321 562/493/319
f 561/491/320 144/395/231 518/392/228 282/492/321
f 117/391/227 547/463/298 282/492/321 518/392/228
f 547/463/298 119/462/297 562/493/319 282/492/321
f 157/494/322 563/495/323 283/496/324 564/497/325
f 563/495/323 113/484/318 560/487/318 283/496/324
f 118/386/223 556/477/312 283/496/324 560/487/318
f 556/477/312 116/470/305 564/497/325 283/496/324
f 155/488/319 565/498/319 284/499/223 559/489/319
f 565/498/319 156/490/224 562/493/319 284/499/223
f 119/462/297 557/481/315 284/499/223 562/493/319
f 557/481/315 115/388/225 559/489/319 284/499/223
f 87/381/218 512/380/217 285/500/326 552/468/303
f 512/380/217 102/379/216 566/501/327 285/500/326
f 157/494/322 564/497/325 285/500/326 566/501/327
f 564/497/325 116/470/305 552/468/303 285/500/326
f 129/502/328 575/503/329 286/504/330 578/505/331
f 575/503/329 132/506/332 576/507/333 286/504/330
f 131/508/334 577/509/335 286/504/330 576/507/333
f 577/509/335 130/510/336 578/505/331 286/504/330
f 135/511/337 579/512/338 287/513/339 582/514/340
f 579/512/338 134/515/341 580/516/342 287/513/339
f 133/517/343 581/518/344 287/513/339 580/516/342
f 581/518/344 136/519/345 582/514/340 287/513/339
f 124/520/346 583/521/347 288/522/348 585/523/349
f 583/521/347 137/524/350 584/525/351 288/522/348
f 102/379/216 511/378/215 288/522/348 584/525/351
f 511/378/215 103/377/214 585/523/349 288/522/348
f 139/526/352 586/527/353 289/528/354 589/529/354
f 586/527/353 138/530/355 587/531/297 289/528/354
f 141/532/356 588/533/357 289/528/354 587/531/297
f 588/533/357 140/534/358 589/529/354 289/528/354
f 143/535/359 590/536/360 290/537/361 592/538/362
f 590/536/360 142/539/363 591/540/364 290/537/361
f 145/397/233 519/396/232 290/537/361 591/540/364
f 519/396/232 144/395/231 592/538/362 290/537/361
f 131/508/334 594/541/365 291/542/366 577/509/335
f 594/541/365 120/543/367 567/544/368 291/542/366
f 121/545/369 595/546/370 291/542/366 567/544/368
f 595/546/370 130/510/336 577/509/335 291/542/366
f 146/547/371 596/548/372 292/549/373 597/550/374
f 596/548/372 122/551/375 568/552/376 292/549/373
f 120/543/367 594/541/365 292/549/373 568/552/376
f 594/541/365 131/508/334 597/550/374 292/549/373
f 147/553/377 598/554/378 293/555/379 599/556/380
f 598/554/378 123/557/381 569/558/382 293/555/379
f 122/551/375 596/548/372 293/555/379 569/558/382
f 596/548/372 146/547/371 599/556/380 293/555/379
f 137/524/350 583/521/347 294/559/383 600/560/384
f 583/521/347 124/520/346 570/561/385 294/559/383
f 123/557/381 598/554/378 294/559/383 570/561/385
f 598/554/378 147/553/377 600/560/384 294/559/383
f 133/517/343 601/562/386 295/563/387 603/564/388
f 601/562/386 125/565/389 571/566/390 295/563/387
f 126/567/391 602/568/392 295/563/387 571/566/390
f 602/568/392 142/539/363 603/564/388 295/563/387
f 134/515/341 604/569/393 296/570/394 580/516/342
f 604/569/393 127/571/395 572/572/396 296/570/394
f 125/565/389 601/562/386 296/570/394 572/572/396
f 601/562/386 133/517/343 580/516/342 296/570/394
f 148/573/397 605/574/398 297/575/399 606/576/400
f 605/574/398 128/577/401 573/578/402 297/575/399
f 127/571/395 604/569/393 297/575/399 573/578/402
f 604/569/393 134/515/341 606/576/400 297/575/399
f 130/510/336 595/546/370 298/579/403 607/580/404
f 595/546/370 121/545/369 574/581/405 298/579/403
f 128/577/401 605/574/398 298/579/403 574/581/405
f 605/574/398 148/573/397 607/580/404 298/579/403
f 142/539/363 602/568/392 299/582/406 591/540/364
f 602/568/392 126/567/391 593/583/407 299/582/406
f 104/443/279 537/442/278 299/582/406 593/583/407
f 537/442/278 145/397/233 591/540/364 299/582/406
f 138/530/355 608/584/408 300/585/409 611/586/318
f 608/584/408 129/502/328 609/587/410 300/585/409
f 150/588/411 610/589/412 300/585/409 609/587/410
f 610/589/412 149/590/413 611/586/318 300/585/409
f 139/526/352 612/591/414 301/592/415 615/593/416
f 612/591/414 151/594/417 613/595/418 301/592/415
f 152/596/419 614/597/420 301/592/415 613/595/418
f 614/597/420 132/506/332 615/593/416 301/592/415
f 149/590/413 616/598/421 302/599/422 619/600/423
f 616/598/421 136/519/345 617/601/424 302/599/422
f 143/535/359 618/602/425 302/599/422 617/601/424
f 618/602/425 153/603/426 619/600/423 302/599/422
f 147/553/377 599/556/380 303/604/427 621/605/428
f 599/556/380 146/547/371 620/606/429 303/604/427
f 152/596/419 613/595/418 303/604/427 620/606/429
f 613/595/418 151/594/417 621/605/428 303/604/427
f 137/524/350 600/560/384 304/607/430 623/608/431
f 600/560/384 147/553/377 621/605/428 304/607/430
f 151/594/417 622/609/432 304/607/430 621/605/428
f 622/609/432 154/610/433 623/608/431 304/607/430
f 148/573/397 606/576/400 305/611/434 625/612/435
f 606/576/400 134/515/341 579/512/338 305/611/434
f 135/511/337 624/613/436 305/611/434 579/512/338
f 624/613/436 150/588/411 625/612/435 305/611/434
f 136/519/345 581/518/344 306/614/437 617/601/424
f 581/518/344 133/517/343 603/564/388 306/614/437
f 142/539/363 590/536/360 306/614/437 603/564/388
f 590/536/360 143/535/359 617/601/424 306/614/437
f 151/594/417 612/591/414 307/615/438 622/609/432
f 612/591/414 139/526/352 589/529/354 307/615/438
f 140/534/358 626/616/439 307/615/438 589/529/354
f 626/616/439 154/610/433 622/609/432 307/615/438
f 149/590/413 610/589/412 308/617/440 616/598/421
f 610/589/412 150/588/411 624/613/436 308/617/440
f 135/511/337 582/514/340 308/617/440 624/613/436
f 582/514/340 136/519/345 616/598/421 308/617/440
f 138/530/355 586/527/353 309/618/441 608/584/408
f 586/527/353 139/526/352 615/593/416 309/618/441
f 132/506/332 575/503/329 309/618/441 615/593/416
f 575/503/329 129/502/328 608/584/408 309/618/441
f 138/530/355 611/586/318 310/619/297 587/531/297
f 611/586/318 149/590/413 619/600/423 310/619/297
f 153/603/426 627/620/442 310/619/297 619/600/423
f 627/620/442 141/532/356 587/531/297 310/619/297
f 131/508/334 576/507/333 311/621/443 597/550/374
f 576/507/333 132/506/332 614/597/420 311/621/443
f 152/596/419 620/606/429 311/621/443 614/597/420
f 620/606/429 146/547/371 597/550/374 311/621/443
f 148/573/397 625/612/435 312/622/444 607/580/404
f 625/612/435 150/588/411 609/587/410 312/622/444
f 129/502/328 578/505/331 312/622/444 609/587/410
f 578/505/331 130/510/336 607/580/404 312/622/444
f 113/484/318 628/623/223 313/624/319 558/485/319
f 628/623/223 140/534/358 588/533/357 313/624/319
f 141/532/356 629/625/319 313/624/319 588/533/357
f 629/625/319 155/488/319 558/485/319 313/624/319
f 156/490/224 630/626/224 314/627/445 561/491/320
f 630/626/224 153/603/426 618/602/425 314/627/445
f 143/535/359 592/538/362 314/627/445 618/602/425
f 592/538/362 144/395/231 561/491/320 314/627/445
f 157/494/322 631/628/446 315/629/323 563/495/323
f 631/628/446 154/610/433 626/616/439 315/629/323
f 140/534/358 628/623/223 315/629/323 626/616/439
f 628/623/223 113/484/318 563/495/323 315/629/323
f 155/488/319 629/625/319 316/630/319 565/498/319
f 629/625/319 141/532/356 627/620/442 316/630/319
f 153/603/426 630/626/224 316/630/319 627/620/442
f 630/626/224 156/490/224 565/498/319 316/630/319
f 137/524/350 623/608/431 317/631/447 584/525/351
f 623/608/431 154/610/433 631/628/446 317/631/447
f 157/494/322 566/501/327 317/631/447 631/628/446
f 566/501/327 102/379/216 584/525/351 317/631/447
f 635/632/448 636/633/448 637/634/448 634/635/448
f 632/636/449 633/637/449 639/638/449 638/639/449
f 653/640/450 650/641/451 646/642/451 642/643/450
f 652/644/452 647/645/453 643/646/453 641/647/452
f 650/641/451 652/644/452 641/647/452 646/642/451
f 648/648/452 649/649/454 645/650/454 644/651/452
f 642/643/450 640/652/455 651/653/455 653/640/450
f 644/651/452 643/646/453 647/645/453 648/648/452
f 666/654/456 677/655/457 669/656/458 657/657/459
f 667/658/460 678/659/461 671/660/462 658/661/463
f 663/662/464 675/663/465 673/664/466 660/665/467
f 664/666/468 676/667/469 674/668/470 661/669/471
f 657/657/459 669/656/458 675/663/465 663/662/464
f 658/661/463 671/660/462 676/667/469 664/666/468
f 654/670/472 670/671/473 677/655/457 666/654/456
f 655/672/474 672/673/475 678/659/461 667/658/460
f 667/658/460 658/661/463 669/656/458 677/655/457
f 668/674/476 659/675/477 671/660/462 678/659/461
f 664/666/468 661/669/471 673/664/466 675/663/465
f 665/676/478 662/677/479 674/668/470 676/667/469
f 658/661/463 664/666/468 675/663/465 669/656/458
f 659/675/477 665/676/478 676/667/469 671/660/462
f 655/672/474 667/658/460 677/655/457 670/671/473
f 656/678/480 668/674/476 678/659/461 672/673/475
