# Blender 4.5.3 LTS
# www.blender.org
o Halo_Infinite.037
v 37.929424 -25.536257 35.080780
v 38.016872 -26.535433 35.056190
v 36.717644 -25.642250 35.078201
v 39.499039 -25.320709 31.906868
v 41.068645 -25.261703 35.087585
v 39.586487 -26.319897 31.882233
v 41.156075 -26.260868 35.062973
v 39.027489 -26.344021 30.875854
v 39.568611 -26.238771 28.525620
v 40.109737 -26.247704 30.810921
v 40.022285 -25.248529 30.835548
v 40.109737 -26.191446 28.526787
v 42.368031 -26.154863 35.065575
v 42.280594 -25.155687 35.090187
v 40.022285 -25.192255 28.551399
v 39.481159 -25.239592 28.550240
v 38.940048 -25.286924 28.549072
v 38.940048 -25.344830 30.900482
v 39.027489 -26.286097 28.524422
v 36.805088 -26.641407 35.053581
v 44.443356 -19.605581 31.794846
v 44.345299 -19.605581 30.809044
v 44.448177 -24.343281 31.794724
v 44.345299 -19.605581 32.780624
v 44.349548 -24.357513 32.780487
v 44.058662 -19.605581 33.728859
v 44.061001 -24.392971 33.728790
v 43.590839 -19.605581 34.602081
v 43.590229 -24.448662 34.602112
v 42.963112 -19.605581 35.368431
v 42.958912 -24.522047 35.368523
v 42.196747 -19.605581 35.996147
v 42.188728 -24.610573 35.996399
v 41.323544 -19.605581 36.463989
v 41.311295 -24.710636 36.464325
v 40.375298 -19.605581 36.750618
v 40.358356 -24.818602 36.751106
v 39.389526 -19.605581 36.848671
v 39.369816 -24.929905 36.849220
v 38.403755 -19.605581 36.750618
v 38.385517 -25.039976 36.751152
v 37.455494 -19.605583 36.463989
v 37.441143 -25.144903 36.464348
v 36.582279 -19.605583 35.996147
v 36.572384 -25.240740 35.996437
v 35.815918 -19.605583 35.368431
v 35.810562 -25.324080 35.368591
v 35.188190 -19.605583 34.602081
v 35.187027 -25.391470 34.602112
v 34.720383 -19.605583 33.728859
v 34.722637 -25.440683 33.728790
v 34.433731 -19.605583 32.780624
v 34.438225 -25.469511 32.780472
v 34.335686 -19.605583 31.794846
v 34.340324 -25.477343 31.794724
v 34.433731 -19.605583 30.809044
v 34.435539 -25.463593 30.809036
v 34.720383 -19.605583 29.860817
v 34.719322 -25.428804 29.860817
v 35.188190 -19.605583 28.987602
v 35.187164 -25.373518 28.987648
v 35.815926 -19.605583 28.221245
v 35.814529 -25.300707 28.221260
v 36.582279 -19.605583 27.593521
v 36.576908 -25.213274 27.593674
v 37.455494 -19.605583 27.125710
v 37.444401 -25.114613 27.126022
v 38.403755 -19.605581 26.839050
v 38.387104 -25.008095 26.839539
v 39.389523 -19.605589 26.741005
v 39.369732 -24.897635 26.741577
v 40.375298 -19.605581 26.839050
v 40.356922 -24.787167 26.839577
v 41.323544 -19.605581 27.125710
v 41.309017 -24.681137 27.126114
v 42.196758 -19.605581 27.593521
v 42.186367 -24.584076 27.593819
v 42.963112 -19.605581 28.221245
v 42.956989 -24.499500 28.221420
v 43.590824 -19.605581 28.987602
v 43.589027 -24.430910 28.987663
v 44.058651 -19.605581 29.860817
v 44.060417 -24.380701 29.860779
v 44.060558 -24.755049 29.860779
v 44.349316 -24.351244 30.808975
v 44.349636 -24.725601 30.808968
v 44.448563 -24.717630 31.794693
v 43.860920 -24.780746 30.907883
v 43.949894 -24.773565 31.794609
v 42.827267 -24.897360 31.107651
v 43.600735 -24.807274 30.054695
v 42.638851 -24.916433 30.441879
v 43.175892 -24.852516 29.268555
v 43.588882 -24.805275 28.987671
v 42.328991 -24.949326 29.830917
v 42.606045 -24.914341 28.578163
v 41.903996 -24.995407 29.301216
v 42.956520 -24.873890 28.221428
v 41.910770 -24.990652 28.012291
v 42.185581 -24.958483 27.593849
v 41.370132 -25.054045 28.879120
v 41.118999 -25.078249 27.590385
v 40.753895 -25.122288 28.571022
v 41.307941 -25.055569 27.126167
v 40.259640 -25.173937 27.331848
v 40.355583 -25.161606 26.839622
v 40.081749 -25.197168 28.383415
v 39.369076 -25.273607 27.243340
v 39.383480 -25.275328 28.319611
v 39.368320 -25.272104 26.741615
v 38.483631 -25.373163 27.331528
v 38.385960 -25.382540 26.839577
v 38.688927 -25.353390 28.382866
v 37.634594 -25.469103 27.589676
v 38.024258 -25.428469 28.569855
v 37.443653 -25.489025 27.126045
v 36.853237 -25.557959 28.011093
v 36.576557 -25.587667 27.593689
v 37.415581 -25.497633 28.877129
v 36.166489 -25.636709 28.576584
v 36.888245 -25.558046 29.298584
v 35.814442 -25.675062 28.221260
v 35.601360 -25.702293 29.266884
v 35.187099 -25.747881 28.987648
v 36.467594 -25.606913 29.828194
v 35.180004 -25.752081 30.053246
v 36.161102 -25.643240 30.439568
v 34.719257 -25.803164 29.860817
v 34.924633 -25.783386 30.906860
v 34.435658 -25.837934 30.809021
v 35.976162 -25.666058 31.106392
v 34.839134 -25.795731 31.794395
v 35.914547 -25.675140 31.801285
v 34.340626 -25.851669 31.794701
v 34.927414 -25.788671 32.682526
v 34.438522 -25.843832 32.780434
v 35.978043 -25.670242 32.496933
v 35.183525 -25.762716 33.537064
v 36.163639 -25.651604 33.164757
v 34.722786 -25.815027 33.728790
v 35.601578 -25.718412 34.323708
v 35.186962 -25.765823 34.602112
v 36.468353 -25.619450 33.776306
v 36.162853 -25.657768 35.014000
v 36.886635 -25.574303 34.305656
v 35.810200 -25.698452 35.368599
v 36.848640 -25.582766 35.579399
v 36.571716 -25.615164 35.996452
v 37.413021 -25.516689 34.726921
v 37.630890 -25.496462 36.000885
v 38.021839 -25.449444 35.034126
v 37.440170 -25.519325 36.464371
v 38.481533 -25.401934 36.259224
v 38.384247 -25.414433 36.751152
v 38.687504 -25.375433 35.221085
v 39.368793 -25.302713 36.347542
v 39.383331 -25.297590 35.284279
v 39.368420 -25.304356 36.849274
v 40.260826 -25.202288 36.258919
v 40.357162 -25.193037 36.751152
v 40.082706 -25.218866 35.220192
v 41.121078 -25.104811 36.000130
v 40.755550 -25.142687 35.032188
v 41.310413 -25.085058 36.464340
v 41.912949 -25.014511 35.578003
v 42.188114 -24.984980 35.996414
v 41.371895 -25.072456 34.723671
v 42.607780 -24.934654 35.011925
v 41.905510 -25.011160 34.301216
v 42.958569 -24.896421 35.368576
v 43.177010 -24.868484 34.321266
v 43.590195 -24.823038 34.602112
v 42.330109 -24.961744 33.771339
v 43.601238 -24.818302 33.534851
v 44.061180 -24.767326 33.728783
v 43.861115 -24.786383 32.681450
v 42.639481 -24.925018 33.160301
v 42.827583 -24.901756 32.494331
v 42.166115 -24.977646 33.003700
v 42.309410 -24.959669 32.419640
v 41.929104 -25.005987 33.534096
v 41.749626 -25.024038 32.895103
v 41.345459 -25.069199 32.834419
v 41.593594 -25.043068 33.360741
v 41.844536 -25.011702 32.371902
v 41.397449 -25.061794 32.346855
v 41.876541 -25.006340 31.819862
v 42.357548 -24.952320 31.808876
v 41.843838 -25.008255 31.267708
v 41.415340 -25.058136 31.830612
v 40.941082 -25.111380 31.838028
v 41.396538 -25.058601 31.314186
v 40.931625 -25.110836 31.335129
v 41.343712 -25.062981 30.825203
v 40.907101 -25.112064 30.851448
v 41.259655 -25.071056 30.391472
v 41.748253 -25.017332 30.743866
v 42.165192 -24.970127 30.613960
v 41.591713 -25.033447 30.276817
v 41.927685 -24.995148 30.083099
v 41.341663 -25.060352 29.901833
v 41.163120 -25.080984 30.095428
v 41.587658 -25.031940 29.634483
v 40.965763 -25.101789 29.654373
v 41.136108 -25.081593 29.297127
v 40.872589 -25.113297 30.005882
v 40.498035 -25.153811 29.500511
v 40.441521 -25.161446 29.925995
v 40.601849 -25.140837 29.061661
v 39.972542 -25.212496 29.406425
v 40.013454 -25.206451 28.918869
v 39.953594 -25.216034 29.875542
v 39.418774 -25.274536 29.374283
v 39.437420 -25.273901 29.857674
v 39.399120 -25.275225 28.870544
v 38.866180 -25.336607 29.406311
v 38.787060 -25.344025 28.918419
v 38.921612 -25.331804 29.875816
v 38.342693 -25.395607 29.500229
v 38.433308 -25.386728 29.926476
v 38.203220 -25.409904 29.060722
v 37.876194 -25.448374 29.653770
v 37.673569 -25.470007 29.295601
v 37.999706 -25.435610 30.006210
v 37.502304 -25.491072 29.901039
v 37.702133 -25.469255 30.095451
v 37.226604 -25.521164 29.632576
v 37.256638 -25.519802 30.276085
v 36.890858 -25.560226 30.081184
v 37.616077 -25.479843 30.391907
v 37.104794 -25.538315 30.743706
v 37.538643 -25.489897 30.826027
v 36.657185 -25.588131 30.612549
v 37.012440 -25.550331 31.268341
v 36.516483 -25.605747 31.197723
v 37.489777 -25.496939 31.315643
v 36.981392 -25.555571 31.821648
v 37.472794 -25.500484 31.832817
v 36.469711 -25.612911 31.809959
v 37.013557 -25.553738 32.375015
v 36.517796 -25.609497 32.422585
v 37.490940 -25.500105 32.349907
v 37.106609 -25.544991 32.899300
v 37.540623 -25.496115 32.838196
v 36.659077 -25.595531 33.008102
v 37.258232 -25.529503 33.365334
v 36.891891 -25.571163 33.539062
v 37.618183 -25.488806 33.269196
v 37.503349 -25.503244 33.739319
v 37.703861 -25.480146 33.559448
v 37.226383 -25.535135 33.987206
v 37.876934 -25.462168 33.987343
v 37.672722 -25.486206 34.324326
v 38.001598 -25.447071 33.654503
v 38.343426 -25.410372 34.142067
v 38.435268 -25.398697 33.736969
v 38.202377 -25.427607 34.559517
v 38.867298 -25.351919 34.236275
v 38.786789 -25.362551 34.701782
v 38.923801 -25.344069 33.788460
v 39.420395 -25.289974 34.267914
v 39.439922 -25.286222 33.806259
v 39.399681 -25.293938 34.749428
v 39.974667 -25.227669 34.235115
v 40.014740 -25.224756 34.700684
v 39.956367 -25.228207 33.787376
v 40.500477 -25.168325 34.139725
v 40.444458 -25.173252 33.734734
v 40.603680 -25.158152 34.557213
v 40.968262 -25.115314 33.983795
v 41.138107 -25.097374 34.320747
v 40.875504 -25.124609 33.651192
v 41.343967 -25.072309 33.734917
v 41.165688 -25.091726 33.555458
v 41.589420 -25.045591 33.982605
v 41.262020 -25.079958 33.265114
v 40.872910 -25.123617 33.261139
v 40.434204 -25.172966 33.297188
v 40.909107 -25.118124 32.821648
v 40.932709 -25.113926 32.340393
v 40.445229 -25.170216 32.831718
v 39.958538 -25.224848 32.839836
v 40.453098 -25.167753 32.343124
v 39.961361 -25.222933 32.345764
v 40.455925 -25.165831 31.842560
v 39.962032 -25.221260 31.845001
v 40.451935 -25.164682 31.341339
v 39.960167 -25.219875 31.343445
v 40.443111 -25.164125 30.849327
v 39.956371 -25.218723 30.845520
v 40.431442 -25.163965 30.376617
v 39.951191 -25.217775 30.355698
v 40.870224 -25.114803 30.406631
v 39.450089 -25.273979 30.347710
v 38.948639 -25.330257 30.356277
v 39.457867 -25.274649 30.843346
v 38.958530 -25.330687 30.846176
v 39.461853 -25.275778 31.343605
v 38.962467 -25.331829 31.344215
v 39.463200 -25.277225 31.845871
v 38.963253 -25.333319 31.845886
v 39.463032 -25.278860 32.347244
v 38.963627 -25.334881 32.346733
v 39.459984 -25.280798 32.843613
v 38.960594 -25.336817 32.840843
v 39.452702 -25.283203 33.330688
v 38.951099 -25.339453 33.322411
v 39.953941 -25.226936 33.321335
v 38.468105 -25.393562 33.299339
v 38.022633 -25.443420 33.264381
v 38.469406 -25.391903 32.833817
v 37.995480 -25.445036 32.824638
v 38.466648 -25.390633 32.345009
v 37.975533 -25.445726 32.342995
v 38.463959 -25.389326 31.844231
v 37.967056 -25.445057 31.840141
v 38.465488 -25.387573 31.342766
v 37.974369 -25.442644 31.336830
v 38.467381 -25.385792 30.850533
v 37.993462 -25.438965 30.852753
v 38.465775 -25.384491 30.377449
v 38.020340 -25.434540 30.407547
v 42.308933 -24.955837 31.198112
v 42.891228 -24.892387 31.800934
v 44.349865 -24.731857 32.780472
vn 0.8925 0.0671 0.4459
vn -0.0000 -0.0246 0.9997
vn -0.8925 -0.0890 0.4421
vn 0.0872 -0.9959 -0.0245
vn 0.0871 -0.9959 -0.0245
vn 0.9665 0.0905 -0.2404
vn 0.8790 0.0885 -0.4685
vn 0.9962 0.0871 0.0021
vn -0.0000 0.0246 -0.9997
vn -0.0000 0.0247 -0.9997
vn -0.9665 -0.0786 -0.2445
vn -0.9962 -0.0871 -0.0021
vn -0.8790 -0.0653 -0.4723
vn 1.0000 0.0009 -0.0001
vn 0.9806 0.0008 -0.1962
vn 0.9806 0.0008 -0.1958
vn 0.9807 0.0008 0.1957
vn 0.9806 0.0008 0.1960
vn 0.9232 0.0004 0.3842
vn 0.9235 0.0004 0.3837
vn 0.8307 -0.0001 0.5567
vn 0.8303 -0.0001 0.5573
vn 0.7057 -0.0006 0.7085
vn 0.7062 -0.0006 0.7080
vn 0.5548 -0.0008 0.8320
vn 0.5543 -0.0008 0.8323
vn 0.3816 -0.0008 0.9243
vn 0.3821 -0.0008 0.9241
vn 0.1950 -0.0005 0.9808
vn 0.1946 -0.0005 0.9809
vn -0.0002 0.0001 1.0000
vn 0.0001 0.0001 1.0000
vn -0.1953 0.0007 0.9807
vn -0.1957 0.0007 0.9807
vn -0.3840 0.0010 0.9233
vn -0.3834 0.0010 0.9236
vn -0.5566 0.0010 0.8308
vn -0.5573 0.0010 0.8303
vn -0.7089 0.0007 0.7054
vn -0.7082 0.0007 0.7060
vn -0.8324 0.0002 0.5542
vn -0.8328 0.0002 0.5535
vn -0.9247 -0.0003 0.3808
vn -0.9244 -0.0003 0.3815
vn -0.9809 -0.0007 0.1945
vn -0.9810 -0.0007 0.1942
vn -1.0000 -0.0007 0.0010
vn -1.0000 -0.0007 0.0007
vn -0.9811 -0.0003 -0.1937
vn -0.9812 -0.0003 -0.1930
vn -0.9243 -0.0000 -0.3817
vn -0.9241 -0.0000 -0.3821
vn -0.8315 0.0002 -0.5555
vn -0.7079 0.0003 -0.7063
vn -0.7076 0.0003 -0.7066
vn -0.5566 0.0005 -0.8308
vn -0.5572 0.0005 -0.8304
vn -0.3842 0.0007 -0.9233
vn -0.3835 0.0007 -0.9235
vn -0.1953 0.0005 -0.9807
vn -0.1958 0.0005 -0.9807
vn -0.0001 -0.0001 -1.0000
vn 0.0001 -0.0001 -1.0000
vn 0.1950 -0.0007 -0.9808
vn 0.1946 -0.0008 -0.9809
vn 0.3816 -0.0011 -0.9243
vn 0.3821 -0.0011 -0.9241
vn 0.5547 -0.0012 -0.8321
vn 0.5541 -0.0012 -0.8325
vn 0.7054 -0.0009 -0.7088
vn 0.7061 -0.0009 -0.7081
vn 0.8306 -0.0003 -0.5569
vn 0.8301 -0.0003 -0.5577
vn 0.9231 0.0003 -0.3846
vn 0.9234 0.0003 -0.3839
vn 0.9218 0.0003 -0.3876
vn 0.8275 -0.0003 -0.5615
vn 0.9802 0.0008 -0.1978
vn 1.0000 0.0009 0.0001
vn 0.1115 -0.9938 -0.0032
vn 0.1115 -0.9938 -0.0031
vn 0.1116 -0.9938 -0.0031
vn 0.1116 -0.9937 -0.0031
vn 0.1116 -0.9938 -0.0030
vn 0.1115 -0.9938 -0.0030
vn 0.1114 -0.9938 -0.0030
vn 0.1114 -0.9938 -0.0031
vn 0.1114 -0.9938 -0.0032
vn 0.1113 -0.9938 -0.0031
vn 0.1114 -0.9938 -0.0033
vn 0.1115 -0.9938 -0.0033
vn 0.1116 -0.9938 -0.0033
vn 0.1116 -0.9937 -0.0032
vn 0.1116 -0.9937 -0.0033
vn 0.1116 -0.9938 -0.0032
vn 0.1115 -0.9938 -0.0034
vn 0.1114 -0.9938 -0.0034
vn 0.9219 0.0004 0.3875
vn 0.9802 0.0008 0.1978
vn 0.8277 -0.0001 0.5612
vn 0.7016 -0.0006 0.7126
vn 0.5489 -0.0008 0.8359
vn 0.3751 -0.0008 0.9270
vn 0.1876 -0.0004 0.9823
vn -0.0075 0.0001 1.0000
vn -0.2027 0.0007 0.9792
vn -0.3905 0.0010 0.9206
vn -0.5627 0.0010 0.8267
vn -0.7129 0.0007 0.7013
vn -0.8354 0.0002 0.5497
vn -0.9259 -0.0003 0.3779
vn -0.9812 -0.0007 0.1928
vn -1.0000 -0.0007 0.0016
vn -0.9816 -0.0003 -0.1908
vn -0.9255 -0.0000 -0.3787
vn -0.8338 0.0002 -0.5521
vn -0.7117 0.0002 -0.7025
vn -0.5627 0.0005 -0.8267
vn -0.3909 0.0007 -0.9204
vn -0.2029 0.0005 -0.9792
vn -0.0075 -0.0001 -1.0000
vn 0.1877 -0.0007 -0.9822
vn 0.3751 -0.0012 -0.9270
vn 0.5488 -0.0012 -0.8360
vn 0.7014 -0.0009 -0.7128
vt 0.981605 0.087535
vt 0.977791 0.087535
vt 0.977791 0.074095
vt 0.981605 0.074095
vt 0.977791 0.038480
vt 0.977791 0.034673
vt 0.982406 0.034673
vt 0.982406 0.038480
vt 0.981605 0.060654
vt 0.977791 0.060654
vt 0.988394 0.022606
vt 0.990384 0.018537
vt 0.998977 0.034673
vt 0.994362 0.034673
vt 0.986253 0.018789
vt 0.986263 0.009872
vt 0.988323 0.009872
vt 0.990384 0.009872
vt 0.994996 0.048632
vt 0.998797 0.048632
vt 0.998797 0.066951
vt 0.994996 0.066951
vt 0.994996 0.039948
vt 0.998797 0.039948
vt 0.998977 0.038480
vt 0.994362 0.038480
vt 0.988323 0.006065
vt 0.990384 0.006065
vt 0.986263 0.006065
vt 0.987333 0.082911
vt 0.983526 0.082911
vt 0.983526 0.073986
vt 0.987333 0.073986
vt 0.987333 0.100914
vt 0.983526 0.100914
vt 0.584994 0.909480
vt 0.581237 0.909501
vt 0.581287 0.891493
vt 0.585044 0.891503
vt 0.588801 0.891503
vt 0.588761 0.909541
vt 0.592518 0.909682
vt 0.592558 0.891513
vt 0.596326 0.891513
vt 0.596285 0.909905
vt 0.600052 0.910187
vt 0.600083 0.891523
vt 0.603840 0.891533
vt 0.603819 0.910531
vt 0.607597 0.910925
vt 0.607597 0.891543
vt 0.611364 0.891554
vt 0.611374 0.911339
vt 0.615141 0.911773
vt 0.615121 0.891564
vt 0.618878 0.891574
vt 0.618898 0.912197
vt 0.622635 0.912601
vt 0.622635 0.891584
vt 0.626402 0.891594
vt 0.626382 0.912975
vt 0.630129 0.913308
vt 0.630159 0.891604
vt 0.633916 0.891604
vt 0.633876 0.913571
vt 0.637633 0.913753
vt 0.637673 0.891614
vt 0.641431 0.891624
vt 0.641390 0.913874
vt 0.645147 0.913914
vt 0.645198 0.891634
vt 0.648955 0.891634
vt 0.648904 0.913864
vt 0.652661 0.913742
vt 0.652712 0.891634
vt 0.656469 0.891644
vt 0.656418 0.913540
vt 0.660176 0.913278
vt 0.660236 0.891654
vt 0.663993 0.891665
vt 0.663923 0.912945
vt 0.667680 0.912581
vt 0.667750 0.891675
vt 0.671507 0.891685
vt 0.671416 0.912187
vt 0.675163 0.911773
vt 0.675274 0.891685
vt 0.558725 0.891432
vt 0.558623 0.911096
vt 0.554856 0.911510
vt 0.554967 0.891422
vt 0.562391 0.910702
vt 0.562492 0.891442
vt 0.566249 0.891453
vt 0.566168 0.910339
vt 0.569935 0.910036
vt 0.570006 0.891463
vt 0.573763 0.891473
vt 0.573712 0.909783
vt 0.577480 0.909602
vt 0.577520 0.891483
vt 0.577469 0.911026
vt 0.573702 0.911197
vt 0.581237 0.910925
vt 0.584994 0.910904
vt 0.769792 0.209183
vt 0.767883 0.209183
vt 0.767550 0.205820
vt 0.769408 0.205447
vt 0.766560 0.202589
vt 0.768318 0.201841
vt 0.763844 0.209204
vt 0.763591 0.206568
vt 0.762884 0.204053
vt 0.761703 0.201720
vt 0.764934 0.199589
vt 0.766510 0.198529
vt 0.762763 0.196973
vt 0.764096 0.195620
vt 0.760077 0.199720
vt 0.758047 0.198115
vt 0.760107 0.194822
vt 0.761157 0.193237
vt 0.757087 0.193227
vt 0.757814 0.191459
vt 0.755693 0.196943
vt 0.753128 0.196236
vt 0.753805 0.192237
vt 0.754179 0.190379
vt 0.750401 0.191904
vt 0.750401 0.189995
vt 0.750452 0.195984
vt 0.747806 0.196226
vt 0.747028 0.192237
vt 0.746655 0.190369
vt 0.743776 0.193217
vt 0.743049 0.191449
vt 0.745271 0.196933
vt 0.742928 0.198094
vt 0.740797 0.194822
vt 0.739747 0.193227
vt 0.738161 0.196953
vt 0.736828 0.195610
vt 0.740928 0.199710
vt 0.739313 0.201710
vt 0.736010 0.199579
vt 0.734425 0.198519
vt 0.734394 0.202568
vt 0.732637 0.201831
vt 0.738141 0.204033
vt 0.737434 0.206568
vt 0.733425 0.205800
vt 0.731556 0.205426
vt 0.733101 0.209163
vt 0.731193 0.209163
vt 0.737192 0.209193
vt 0.737444 0.211839
vt 0.733425 0.212536
vt 0.731556 0.212910
vt 0.734394 0.215778
vt 0.732647 0.216515
vt 0.738141 0.214384
vt 0.739302 0.216697
vt 0.736000 0.218778
vt 0.734414 0.219818
vt 0.738131 0.221393
vt 0.736788 0.222726
vt 0.740898 0.218707
vt 0.742908 0.220293
vt 0.740757 0.223534
vt 0.739696 0.225120
vt 0.743746 0.225140
vt 0.743009 0.226897
vt 0.745241 0.221464
vt 0.747786 0.222181
vt 0.746988 0.226120
vt 0.746614 0.227988
vt 0.750371 0.226453
vt 0.750371 0.228362
vt 0.750432 0.222413
vt 0.753108 0.222181
vt 0.753785 0.226120
vt 0.754158 0.227988
vt 0.757067 0.225140
vt 0.757794 0.226908
vt 0.755673 0.221464
vt 0.758037 0.220293
vt 0.760087 0.223534
vt 0.761137 0.225130
vt 0.762753 0.221393
vt 0.764096 0.222747
vt 0.760067 0.218697
vt 0.761692 0.216687
vt 0.764924 0.218778
vt 0.766500 0.219838
vt 0.766550 0.215788
vt 0.768307 0.216515
vt 0.762874 0.214374
vt 0.767540 0.212546
vt 0.769408 0.212920
vt 0.763591 0.211839
vt 0.761066 0.213768
vt 0.761612 0.211547
vt 0.760157 0.215778
vt 0.759481 0.213364
vt 0.759844 0.211375
vt 0.758885 0.215132
vt 0.757946 0.213132
vt 0.758127 0.211274
vt 0.757612 0.214758
vt 0.759965 0.209274
vt 0.761804 0.209244
vt 0.758198 0.209315
vt 0.759844 0.207184
vt 0.761612 0.206921
vt 0.758127 0.207355
vt 0.756401 0.209345
vt 0.756360 0.211244
vt 0.756360 0.207436
vt 0.756269 0.205598
vt 0.757946 0.205497
vt 0.759481 0.205194
vt 0.756128 0.203912
vt 0.757612 0.203851
vt 0.758885 0.203417
vt 0.761076 0.204699
vt 0.760167 0.202679
vt 0.757936 0.201993
vt 0.758875 0.200983
vt 0.757249 0.202720
vt 0.756138 0.202387
vt 0.756501 0.201064
vt 0.757148 0.199710
vt 0.754704 0.200468
vt 0.755108 0.198801
vt 0.754492 0.202094
vt 0.752633 0.201892
vt 0.752704 0.200114
vt 0.752856 0.198256
vt 0.750583 0.199993
vt 0.750513 0.198074
vt 0.750664 0.201831
vt 0.748685 0.201892
vt 0.748473 0.200114
vt 0.748180 0.198256
vt 0.746473 0.200458
vt 0.745938 0.198801
vt 0.746826 0.202094
vt 0.745160 0.202387
vt 0.744695 0.201054
vt 0.743918 0.199700
vt 0.743271 0.201983
vt 0.742221 0.200963
vt 0.744029 0.202720
vt 0.743696 0.203851
vt 0.742332 0.203407
vt 0.740938 0.202669
vt 0.741746 0.205184
vt 0.740030 0.204679
vt 0.743403 0.205497
vt 0.743221 0.207355
vt 0.741393 0.207174
vt 0.739504 0.206911
vt 0.741272 0.209274
vt 0.739323 0.209234
vt 0.743150 0.209325
vt 0.743221 0.211284
vt 0.741393 0.211375
vt 0.739504 0.211547
vt 0.741746 0.213375
vt 0.740030 0.213779
vt 0.743403 0.213132
vt 0.743696 0.214768
vt 0.742322 0.215132
vt 0.740928 0.215798
vt 0.743261 0.216556
vt 0.742201 0.217495
vt 0.744029 0.215869
vt 0.745160 0.216243
vt 0.744685 0.217495
vt 0.743908 0.218778
vt 0.746463 0.218081
vt 0.745917 0.219666
vt 0.746816 0.216546
vt 0.748685 0.216748
vt 0.748462 0.218434
vt 0.748159 0.220212
vt 0.750583 0.218566
vt 0.750503 0.220394
vt 0.750664 0.216818
vt 0.752633 0.216748
vt 0.752694 0.218434
vt 0.752846 0.220212
vt 0.754694 0.218081
vt 0.755098 0.219666
vt 0.754492 0.216536
vt 0.756138 0.216233
vt 0.756491 0.217485
vt 0.757138 0.218778
vt 0.757936 0.216536
vt 0.758865 0.217485
vt 0.757249 0.215859
vt 0.756128 0.214748
vt 0.756269 0.213072
vt 0.754451 0.214879
vt 0.754502 0.213122
vt 0.754532 0.211254
vt 0.752644 0.213142
vt 0.752623 0.214970
vt 0.752654 0.211264
vt 0.752664 0.209365
vt 0.754552 0.209365
vt 0.752654 0.207477
vt 0.754532 0.207467
vt 0.752644 0.205578
vt 0.754502 0.205598
vt 0.752623 0.203720
vt 0.754451 0.203800
vt 0.750735 0.205568
vt 0.750705 0.203679
vt 0.748786 0.203720
vt 0.748816 0.205588
vt 0.750755 0.207477
vt 0.748836 0.207477
vt 0.750755 0.209365
vt 0.748836 0.209365
vt 0.750755 0.211274
vt 0.748836 0.211274
vt 0.750735 0.213152
vt 0.748826 0.213142
vt 0.750705 0.215011
vt 0.748786 0.214970
vt 0.746937 0.214889
vt 0.746948 0.213122
vt 0.745150 0.213082
vt 0.745251 0.214758
vt 0.745069 0.211254
vt 0.746937 0.211264
vt 0.745029 0.209355
vt 0.746927 0.209365
vt 0.745059 0.207436
vt 0.746937 0.207467
vt 0.745140 0.205598
vt 0.746948 0.205598
vt 0.745251 0.203912
vt 0.746937 0.203800
vt 0.592518 0.911106
vt 0.588751 0.910955
vt 0.596285 0.911319
vt 0.600052 0.911611
vt 0.603819 0.911945
vt 0.607597 0.912339
vt 0.611374 0.912763
vt 0.615141 0.913197
vt 0.618898 0.913621
vt 0.622635 0.914025
vt 0.626382 0.914399
vt 0.630129 0.914722
vt 0.633876 0.914985
vt 0.637623 0.915177
vt 0.641380 0.915298
vt 0.645137 0.915328
vt 0.648904 0.915288
vt 0.652651 0.915167
vt 0.656418 0.914954
vt 0.660176 0.914692
vt 0.663923 0.914369
vt 0.667669 0.914005
vt 0.671406 0.913601
vt 0.675153 0.913197
vt 0.558613 0.912520
vt 0.554846 0.912934
vt 0.562381 0.912126
vt 0.566158 0.911763
vt 0.569935 0.911450
s 1
f 1/1/1 2/2/1 6/3/1 4/4/1
f 3/5/2 20/6/2 2/7/2 1/8/2
f 5/9/3 4/4/3 6/3/3 7/10/3
f 6/11/4 10/12/4 13/13/4 7/14/4
f 6/11/4 2/7/5 20/6/5 8/15/5
f 8/15/5 19/16/5 9/17/4 6/11/4
f 9/17/4 12/18/4 10/12/4 6/11/4
f 10/19/6 11/20/6 14/21/7 13/22/7
f 12/23/8 15/24/8 11/20/6 10/19/6
f 14/25/2 5/26/2 7/14/2 13/13/2
f 12/18/9 9/17/9 16/27/9 15/28/9
f 19/16/10 17/29/10 16/27/9 9/17/9
f 8/30/11 18/31/11 17/32/12 19/33/12
f 20/34/13 3/35/13 18/31/11 8/30/11
f 23/36/14 85/37/15 22/38/16 21/39/14
f 24/40/17 25/41/18 23/36/14 21/39/14
f 27/42/19 25/41/18 24/40/17 26/43/20
f 28/44/21 29/45/22 27/42/19 26/43/20
f 31/46/23 29/45/22 28/44/21 30/47/24
f 32/48/25 33/49/26 31/46/23 30/47/24
f 35/50/27 33/49/26 32/48/25 34/51/28
f 36/52/29 37/53/30 35/50/27 34/51/28
f 39/54/31 37/53/30 36/52/29 38/55/32
f 40/56/33 41/57/34 39/54/31 38/55/32
f 43/58/35 41/57/34 40/56/33 42/59/36
f 44/60/37 45/61/38 43/58/35 42/59/36
f 47/62/39 45/61/38 44/60/37 46/63/40
f 48/64/41 49/65/42 47/62/39 46/63/40
f 51/66/43 49/65/42 48/64/41 50/67/44
f 52/68/45 53/69/46 51/66/43 50/67/44
f 55/70/47 53/69/46 52/68/45 54/71/48
f 55/70/47 54/71/48 56/72/49 57/73/50
f 59/74/51 57/73/50 56/72/49 58/75/52
f 60/76/53 61/77/53 59/74/51 58/75/52
f 63/78/54 61/77/53 60/76/53 62/79/55
f 64/80/56 65/81/57 63/78/54 62/79/55
f 67/82/58 65/81/57 64/80/56 66/83/59
f 68/84/60 69/85/61 67/82/58 66/83/59
f 71/86/62 69/85/61 68/84/60 70/87/63
f 72/88/64 73/89/65 71/90/62 70/91/63
f 75/92/66 73/89/65 72/88/64 74/93/67
f 76/94/68 77/95/69 75/92/66 74/93/67
f 79/96/70 77/95/69 76/94/68 78/97/71
f 80/98/72 81/99/73 79/96/70 78/97/71
f 83/100/74 81/99/73 80/98/72 82/101/75
f 22/38/16 85/37/15 83/100/74 82/101/75
f 84/102/76 94/103/77 81/99/73 83/100/74
f 86/104/78 84/102/76 83/100/74 85/37/15
f 87/105/79 86/104/78 85/37/15 23/36/14
f 87/106/80 89/107/80 88/108/81 86/109/81
f 91/110/81 84/111/81 86/109/81 88/108/81
f 89/107/80 324/112/80 90/113/81 88/108/81
f 88/108/81 90/113/81 92/114/81 91/110/81
f 91/110/81 92/114/81 95/115/82 93/116/82
f 84/111/81 91/110/81 93/116/82 94/117/82
f 96/118/82 98/119/82 94/117/82 93/116/82
f 93/116/82 95/115/82 97/120/82 96/118/82
f 96/118/82 97/120/82 101/121/82 99/122/82
f 98/119/82 96/118/82 99/122/82 100/123/83
f 102/124/83 104/125/83 100/123/83 99/122/82
f 99/122/82 101/121/82 103/126/84 102/124/83
f 102/124/83 103/126/84 107/127/85 105/128/82
f 104/125/83 102/124/83 105/128/82 106/129/82
f 108/130/81 110/131/80 106/129/82 105/128/82
f 105/128/82 107/127/85 109/132/85 108/130/81
f 108/130/81 109/132/85 113/133/86 111/134/87
f 110/131/80 108/130/81 111/134/87 112/135/88
f 114/136/87 116/137/89 112/135/88 111/134/87
f 111/134/87 113/133/86 115/138/87 114/136/87
f 114/136/87 115/138/87 119/139/87 117/140/87
f 116/137/89 114/136/87 117/140/87 118/141/87
f 120/142/87 122/143/87 118/141/87 117/140/87
f 117/140/87 119/139/87 121/144/87 120/142/87
f 120/142/87 121/144/87 125/145/80 123/146/80
f 122/143/87 120/142/87 123/146/80 124/147/80
f 126/148/81 128/149/81 124/147/80 123/146/80
f 123/146/80 125/145/80 127/150/81 126/148/81
f 126/148/81 127/150/81 131/151/81 129/152/81
f 128/149/81 126/148/81 129/152/81 130/153/81
f 132/154/81 134/155/81 130/153/81 129/152/81
f 129/152/81 131/151/81 133/156/87 132/154/81
f 132/154/81 133/156/87 137/157/88 135/158/80
f 134/155/81 132/154/81 135/158/80 136/159/80
f 138/160/80 140/161/80 136/159/80 135/158/80
f 135/158/80 137/157/88 139/162/88 138/160/80
f 138/160/80 139/162/88 143/163/90 141/164/90
f 140/161/80 138/160/80 141/164/90 142/165/90
f 144/166/90 146/167/90 142/165/90 141/164/90
f 141/164/90 143/163/90 145/168/90 144/166/90
f 144/166/90 145/168/90 149/169/90 147/170/90
f 146/167/90 144/166/90 147/170/90 148/171/88
f 150/172/88 152/173/88 148/171/88 147/170/90
f 147/170/90 149/169/90 151/174/90 150/172/88
f 150/172/88 151/174/90 155/175/91 153/176/88
f 152/173/88 150/172/88 153/176/88 154/177/88
f 156/178/80 158/179/80 154/177/88 153/176/88
f 153/176/88 155/175/91 157/180/91 156/178/80
f 156/178/80 157/180/91 161/181/92 159/182/93
f 158/179/80 156/178/80 159/182/93 160/183/93
f 162/184/93 164/185/93 160/183/93 159/182/93
f 159/182/93 161/181/92 163/186/94 162/184/93
f 162/184/93 163/186/94 167/187/92 165/188/93
f 164/185/93 162/184/93 165/188/93 166/189/93
f 168/190/95 170/191/95 166/189/93 165/188/93
f 165/188/93 167/187/92 169/192/92 168/190/95
f 168/190/95 169/192/92 173/193/92 171/194/91
f 170/191/95 168/190/95 171/194/91 172/195/80
f 174/196/80 175/197/80 172/195/80 171/194/91
f 171/194/91 173/193/92 177/198/80 174/196/80
f 175/197/80 174/196/80 176/199/80 325/200/80
f 177/198/80 178/201/80 176/199/80 174/196/80
f 177/198/80 179/202/80 180/203/80 178/201/80
f 179/202/80 177/198/80 173/193/92 181/204/91
f 179/202/80 182/205/80 185/206/80 180/203/80
f 182/205/80 179/202/80 181/204/91 184/207/91
f 182/205/80 183/208/80 186/209/80 185/206/80
f 183/208/80 182/205/80 184/207/91 276/210/91
f 187/211/80 188/212/80 180/203/80 185/206/80
f 190/213/80 187/211/80 185/206/80 186/209/80
f 188/212/80 187/211/80 189/214/81 323/215/81
f 187/211/80 190/213/80 192/216/80 189/214/81
f 191/217/80 190/213/80 186/209/80 280/218/80
f 190/213/80 191/217/80 193/219/81 192/216/80
f 195/220/81 194/221/81 192/216/80 193/219/81
f 194/221/81 197/222/81 189/214/81 192/216/80
f 194/221/81 195/220/81 293/223/81 196/224/81
f 197/222/81 194/221/81 196/224/81 199/225/81
f 197/222/81 198/226/81 323/215/81 189/214/81
f 198/226/81 197/222/81 199/225/81 200/227/81
f 201/228/85 203/229/85 200/227/81 199/225/81
f 202/230/85 201/228/85 199/225/81 196/224/81
f 201/228/85 202/230/85 206/231/85 204/232/85
f 203/229/85 201/228/85 204/232/85 205/233/85
f 207/234/85 209/235/85 205/233/85 204/232/85
f 208/236/85 207/234/85 204/232/85 206/231/85
f 207/234/85 208/236/85 212/237/85 210/238/85
f 209/235/85 207/234/85 210/238/85 211/239/85
f 213/240/85 215/241/85 211/239/85 210/238/85
f 214/242/85 213/240/85 210/238/85 212/237/85
f 213/240/85 214/242/85 218/243/85 216/244/85
f 215/241/85 213/240/85 216/244/85 217/245/86
f 219/246/86 221/247/86 217/245/86 216/244/85
f 220/248/85 219/246/86 216/244/85 218/243/85
f 219/246/86 220/248/85 224/249/81 222/250/86
f 221/247/86 219/246/86 222/250/86 223/251/87
f 225/252/81 227/253/87 223/251/87 222/250/86
f 226/254/81 225/252/81 222/250/86 224/249/81
f 225/252/81 226/254/81 230/255/81 228/256/81
f 227/253/87 225/252/81 228/256/81 229/257/81
f 231/258/81 233/259/81 229/257/81 228/256/81
f 232/260/81 231/258/81 228/256/81 230/255/81
f 231/258/81 232/260/81 236/261/80 234/262/81
f 233/259/81 231/258/81 234/262/81 235/263/81
f 237/264/80 239/265/88 235/263/81 234/262/81
f 238/266/80 237/264/80 234/262/81 236/261/80
f 237/264/80 238/266/80 242/267/80 240/268/80
f 239/265/88 237/264/80 240/268/80 241/269/88
f 243/270/80 245/271/88 241/269/88 240/268/80
f 244/272/80 243/270/80 240/268/80 242/267/80
f 243/270/80 244/272/80 248/273/80 246/274/91
f 245/271/88 243/270/80 246/274/91 247/275/91
f 249/276/91 251/277/91 247/275/91 246/274/91
f 250/278/91 249/276/91 246/274/91 248/273/80
f 249/276/91 250/278/91 254/279/91 252/280/91
f 251/277/91 249/276/91 252/280/91 253/281/91
f 255/282/96 257/283/97 253/281/91 252/280/91
f 256/284/91 255/282/96 252/280/91 254/279/91
f 255/282/96 256/284/91 260/285/91 258/286/96
f 257/283/97 255/282/96 258/286/96 259/287/96
f 261/288/96 263/289/96 259/287/96 258/286/96
f 262/290/91 261/288/96 258/286/96 260/285/91
f 261/288/96 262/290/91 266/291/91 264/292/96
f 263/289/96 261/288/96 264/292/96 265/293/96
f 267/294/91 269/295/92 265/293/96 264/292/96
f 268/296/91 267/294/91 264/292/96 266/291/91
f 267/294/91 268/296/91 272/297/91 270/298/91
f 269/295/92 267/294/91 270/298/91 271/299/91
f 273/300/91 275/301/91 271/299/91 270/298/91
f 274/302/91 273/300/91 270/298/91 272/297/91
f 273/300/91 274/302/91 276/210/91 184/207/91
f 275/301/91 273/300/91 184/207/91 181/204/91
f 169/192/92 275/301/91 181/204/91 173/193/92
f 275/301/91 169/192/92 167/187/92 271/299/91
f 274/302/91 272/297/91 277/303/80 276/210/91
f 279/304/80 183/208/80 276/210/91 277/303/80
f 272/297/91 268/296/91 278/305/91 277/303/80
f 281/306/80 279/304/80 277/303/80 278/305/91
f 183/208/80 279/304/80 280/218/80 186/209/80
f 279/304/80 281/306/80 283/307/80 280/218/80
f 282/308/80 281/306/80 278/305/91 308/309/91
f 281/306/80 282/308/80 284/310/80 283/307/80
f 286/311/80 285/312/80 283/307/80 284/310/80
f 285/312/80 191/217/80 280/218/80 283/307/80
f 285/312/80 286/311/80 288/313/80 287/314/81
f 191/217/80 285/312/80 287/314/81 193/219/81
f 290/315/81 289/316/81 287/314/81 288/313/80
f 289/316/81 195/220/81 193/219/81 287/314/81
f 289/316/81 290/315/81 292/317/81 291/318/81
f 195/220/81 289/316/81 291/318/81 293/223/81
f 212/237/85 208/236/85 291/318/81 292/317/81
f 208/236/85 206/231/85 293/223/81 291/318/81
f 206/231/85 202/230/85 196/224/81 293/223/81
f 290/315/81 296/319/81 294/320/81 292/317/81
f 214/242/85 212/237/85 292/317/81 294/320/81
f 218/243/85 214/242/85 294/320/81 295/321/81
f 296/319/81 297/322/81 295/321/81 294/320/81
f 297/322/81 296/319/81 298/323/81 299/324/81
f 296/319/81 290/315/81 288/313/80 298/323/81
f 300/325/80 301/326/80 299/324/81 298/323/81
f 286/311/80 300/325/80 298/323/81 288/313/80
f 301/326/80 300/325/80 302/327/80 303/328/80
f 300/325/80 286/311/80 284/310/80 302/327/80
f 304/329/80 305/330/80 303/328/80 302/327/80
f 282/308/80 304/329/80 302/327/80 284/310/80
f 305/330/80 304/329/80 306/331/91 307/332/91
f 304/329/80 282/308/80 308/309/91 306/331/91
f 262/290/91 260/285/91 307/332/91 306/331/91
f 266/291/91 262/290/91 306/331/91 308/309/91
f 268/296/91 266/291/91 308/309/91 278/305/91
f 260/285/91 256/284/91 309/333/91 307/332/91
f 311/334/80 305/330/80 307/332/91 309/333/91
f 312/335/80 311/334/80 309/333/91 310/336/91
f 256/284/91 254/279/91 310/336/91 309/333/91
f 311/334/80 312/335/80 314/337/80 313/338/80
f 305/330/80 311/334/80 313/338/80 303/328/80
f 316/339/80 315/340/80 313/338/80 314/337/80
f 315/340/80 301/326/80 303/328/80 313/338/80
f 315/340/80 316/339/80 318/341/80 317/342/81
f 301/326/80 315/340/80 317/342/81 299/324/81
f 320/343/81 319/344/81 317/342/81 318/341/80
f 319/344/81 297/322/81 299/324/81 317/342/81
f 319/344/81 320/343/81 322/345/81 321/346/81
f 297/322/81 319/344/81 321/346/81 295/321/81
f 224/249/81 220/248/85 321/346/81 322/345/81
f 220/248/85 218/243/85 295/321/81 321/346/81
f 320/343/81 232/260/81 230/255/81 322/345/81
f 226/254/81 224/249/81 322/345/81 230/255/81
f 232/260/81 320/343/81 318/341/80 236/261/80
f 316/339/80 238/266/80 236/261/80 318/341/80
f 238/266/80 316/339/80 314/337/80 242/267/80
f 312/335/80 244/272/80 242/267/80 314/337/80
f 244/272/80 312/335/80 310/336/91 248/273/80
f 254/279/91 250/278/91 248/273/80 310/336/91
f 163/186/94 269/295/92 271/299/91 167/187/92
f 269/295/92 163/186/94 161/181/92 265/293/96
f 157/180/91 263/289/96 265/293/96 161/181/92
f 263/289/96 157/180/91 155/175/91 259/287/96
f 151/174/90 257/283/97 259/287/96 155/175/91
f 257/283/97 151/174/90 149/169/90 253/281/91
f 145/168/90 251/277/91 253/281/91 149/169/90
f 251/277/91 145/168/90 143/163/90 247/275/91
f 139/162/88 245/271/88 247/275/91 143/163/90
f 245/271/88 139/162/88 137/157/88 241/269/88
f 133/156/87 239/265/88 241/269/88 137/157/88
f 239/265/88 133/156/87 131/151/81 235/263/81
f 127/150/81 233/259/81 235/263/81 131/151/81
f 233/259/81 127/150/81 125/145/80 229/257/81
f 121/144/87 227/253/87 229/257/81 125/145/80
f 227/253/87 121/144/87 119/139/87 223/251/87
f 115/138/87 221/247/86 223/251/87 119/139/87
f 221/247/86 115/138/87 113/133/86 217/245/86
f 109/132/85 215/241/85 217/245/86 113/133/86
f 215/241/85 109/132/85 107/127/85 211/239/85
f 103/126/84 209/235/85 211/239/85 107/127/85
f 209/235/85 103/126/84 101/121/82 205/233/85
f 97/120/82 203/229/85 205/233/85 101/121/82
f 203/229/85 97/120/82 95/115/82 200/227/81
f 92/114/81 198/226/81 200/227/81 95/115/82
f 198/226/81 92/114/81 90/113/81 323/215/81
f 324/112/80 188/212/80 323/215/81 90/113/81
f 188/212/80 324/112/80 178/201/80 180/203/80
f 176/199/80 178/201/80 324/112/80 89/107/80
f 89/107/80 87/106/80 325/200/80 176/199/80
f 27/42/19 175/347/98 325/348/99 25/41/18
f 87/105/79 23/36/14 25/41/18 325/348/99
f 175/347/98 27/42/19 29/45/22 172/349/100
f 31/46/23 170/350/101 172/349/100 29/45/22
f 170/350/101 31/46/23 33/49/26 166/351/102
f 35/50/27 164/352/103 166/351/102 33/49/26
f 164/352/103 35/50/27 37/53/30 160/353/104
f 39/54/31 158/354/105 160/353/104 37/53/30
f 158/354/105 39/54/31 41/57/34 154/355/106
f 43/58/35 152/356/107 154/355/106 41/57/34
f 152/356/107 43/58/35 45/61/38 148/357/108
f 47/62/39 146/358/109 148/357/108 45/61/38
f 146/358/109 47/62/39 49/65/42 142/359/110
f 51/66/43 140/360/111 142/359/110 49/65/42
f 140/360/111 51/66/43 53/69/46 136/361/112
f 55/70/47 134/362/113 136/361/112 53/69/46
f 134/362/113 55/70/47 57/73/50 130/363/114
f 59/74/51 128/364/115 130/363/114 57/73/50
f 124/365/116 128/364/115 59/74/51 61/77/53
f 122/366/117 124/365/116 61/77/53 63/78/54
f 118/367/118 122/366/117 63/78/54 65/81/57
f 116/368/119 118/367/118 65/81/57 67/82/58
f 112/369/120 116/368/119 67/82/58 69/85/61
f 110/370/121 112/369/120 69/85/61 71/86/62
f 106/371/122 110/372/121 71/90/62 73/89/65
f 104/373/123 106/371/122 73/89/65 75/92/66
f 100/374/124 104/373/123 75/92/66 77/95/69
f 98/375/125 100/374/124 77/95/69 79/96/70
f 94/103/77 98/375/125 79/96/70 81/99/73
