# PadForge: decal shells re-partitioned to their host part
o Decal-L1
v -38.077186 -12.440810 49.952630
v -38.211647 -12.544499 49.979042
v -36.718658 -12.913866 50.261807
v -36.605629 -12.806544 50.222766
v -32.321974 -8.991918 47.758173
v -31.876459 -8.642895 47.452103
v -32.459400 -8.412832 47.560725
v -32.977796 -8.743489 47.868025
v -31.865127 -8.043809 47.183987
v -31.810458 -8.008582 47.108773
v -32.227076 -7.825995 47.204722
v -32.285816 -7.856255 47.274921
v -32.545432 -7.681644 47.337208
v -32.610095 -7.706771 47.402870
v -32.925538 -8.181421 47.656011
v -33.505495 -8.491686 47.952872
v -33.292241 -8.008903 47.748838
v -33.928692 -8.291339 48.039522
v -40.537375 -11.409072 49.367052
v -39.587363 -10.940553 49.350616
v -40.331627 -10.506188 49.182121
v -41.354153 -10.923614 49.146365
v -31.345471 -8.250711 47.079522
v -31.295437 -8.212523 47.001492
v -31.958955 -8.089093 47.255445
v -31.431346 -8.300414 47.149990
v -32.385348 -7.895054 47.346491
v -36.605629 -12.806544 50.222766
v -35.979505 -12.226758 49.986545
v -37.332638 -11.880459 49.786378
v -38.077186 -12.440810 49.952630
v -38.539588 -11.442648 49.566116
v -39.395276 -11.961961 49.656253
v -35.141020 -10.268582 48.948917
v -35.865373 -10.792659 49.274255
v -34.747183 -11.102950 49.356136
v -34.139189 -10.563547 48.983213
v -36.031175 -9.919068 48.910540
v -36.859508 -10.418320 49.183462
v -35.190138 -9.427769 48.620414
v -35.807203 -9.128636 48.635159
v -36.726630 -9.577507 48.879873
v -38.650609 -10.468641 49.248677
v -37.646982 -10.027496 49.105946
v -38.234144 -9.678153 49.038310
v -39.228047 -10.057261 49.133014
v -36.596707 -11.330547 49.550433
v -35.361427 -11.658167 49.688477
v -37.696432 -10.926394 49.398389
v -33.696252 -9.238152 48.250209
v -34.417181 -9.748077 48.609015
v -33.529545 -10.026516 48.601877
v -32.924618 -9.501772 48.199270
v -34.319065 -8.960722 48.301686
v -34.834537 -8.716846 48.355292
v -42.703944 -9.831099 48.689585
v -42.909305 -9.883048 48.665006
v -42.311705 -10.428929 48.893180
v -42.115281 -10.363826 48.910472
v -39.549864 -12.057943 49.668889
v -38.211647 -12.544499 49.979042
v -40.709092 -11.495599 49.366657
v -35.224839 -7.439731 48.311930
v -34.428804 -7.289657 48.132192
v -34.555259 -7.149482 48.148286
v -35.354274 -7.302979 48.318591
v -33.544268 -7.138256 47.877062
v -33.473144 -7.126942 47.824714
v -33.633414 -6.970692 47.864858
v -33.656518 -7.027740 47.905501
v -33.764846 -6.998831 47.950465
v -33.638093 -7.147927 47.924552
v -33.495630 -7.264486 47.866259
v -33.393826 -7.249868 47.812935
v -43.478455 -8.832721 48.333239
v -42.315542 -8.614095 48.535068
v -42.371544 -8.511601 48.404280
v -43.540075 -8.731911 48.197459
v -33.759712 -6.904896 47.896888
v -34.555621 -7.055526 48.080880
v -42.029540 -8.953368 48.678499
v -42.187984 -8.756963 48.598241
v -43.353680 -8.977482 48.405465
v -43.180644 -9.197881 48.507336
v -41.570886 -9.547682 48.824232
v -38.698326 -8.097196 48.668351
v -39.863545 -8.317230 48.720103
v -39.701565 -8.472649 48.759896
v -38.532033 -8.253003 48.696551
v -38.831591 -7.958380 48.637006
v -40.002397 -8.141154 48.726629
v -38.869835 -7.840676 48.526611
v -40.042724 -8.050868 48.565511
v -41.026398 -8.536959 48.691060
v -40.853067 -8.691476 48.739742
v -41.164852 -8.365786 48.678692
v -41.211507 -8.270452 48.522349
v -36.373331 -7.656550 48.477974
v -37.533614 -7.876450 48.593160
v -37.362023 -8.032294 48.606452
v -36.196477 -7.812200 48.472304
v -36.506574 -7.487705 48.526544
v -37.667035 -7.739568 48.573617
v -36.528069 -7.394248 48.389669
v -37.698480 -7.612528 48.478689
v -35.042464 -7.594740 48.281383
v -35.361218 -7.203178 48.234004
v -32.717957 -7.739304 47.473807
v -32.964206 -7.615300 47.603186
v -33.605254 -7.858748 47.847766
v -43.757978 -8.751133 48.172917
v -43.688587 -8.874638 48.294354
v -43.565090 -9.017998 48.370521
v -43.389390 -9.242801 48.476312
v -34.262921 -7.427582 48.078898
v -34.835155 -7.772913 48.247088
v -34.090432 -7.573871 48.022997
v -33.323611 -7.238483 47.759581
v -33.243115 -7.362762 47.748748
v -33.172420 -7.348830 47.693100
v -33.200692 -7.483413 47.734942
v -33.086273 -7.459594 47.670219
v -33.353756 -7.383907 47.807794
v -38.792162 -9.286871 48.958462
v -37.743713 -8.939331 48.810881
v -38.079093 -8.677652 48.772324
v -39.169218 -8.984489 48.889730
v -36.696113 -8.591553 48.643652
v -35.655166 -8.250089 48.443954
v -35.907156 -8.067833 48.462767
v -36.990143 -8.370547 48.634667
v -39.776533 -9.601818 49.011592
v -40.233220 -9.247245 48.914794
v -34.623570 -7.918412 48.202973
v -41.030399 -10.009372 48.997465
v -32.784513 -7.566920 47.471706
v -32.852984 -7.586600 47.533836
v -34.281871 -8.114042 48.122089
v -36.260913 -8.874575 48.643511
v -37.247072 -9.276239 48.850622
v -35.252682 -8.496189 48.402321
v -41.539128 -11.000422 49.137335
v -33.906154 -7.695963 47.955204
v -33.015627 -7.443761 47.611799
vn -0.0721 0.3927 0.9168
vn 0.2804 0.3814 0.8809
vn 0.3078 0.3630 0.8795
vn 0.3161 0.3416 0.8851
vn 0.2768 0.3502 0.8949
vn 0.3935 0.5777 0.7151
vn 0.4097 0.6759 0.6127
vn 0.4573 0.6228 0.6348
vn 0.4507 0.5137 0.7301
vn 0.5392 0.5143 0.6669
vn 0.5321 0.3652 0.7638
vn 0.3419 0.2605 0.9029
vn 0.2848 0.2713 0.9194
vn 0.3578 0.1425 0.9229
vn 0.2883 0.1948 0.9375
vn -0.1122 0.2459 0.9628
vn -0.0685 0.2633 0.9623
vn -0.0892 0.2254 0.9702
vn -0.1302 0.2156 0.9678
vn 0.3884 0.6243 0.6778
vn 0.4010 0.6875 0.6055
vn 0.3473 0.4087 0.8441
vn 0.3417 0.4474 0.8264
vn 0.3986 0.3248 0.8577
vn -0.0546 0.3901 0.9191
vn -0.0217 0.4198 0.9073
vn -0.0365 0.3816 0.9236
vn -0.0749 0.3428 0.9364
vn -0.0514 0.3195 0.9462
vn -0.0946 0.2976 0.9500
vn 0.1082 0.4208 0.9007
vn 0.0623 0.4243 0.9034
vn 0.0695 0.4628 0.8837
vn 0.1105 0.4558 0.8832
vn 0.1109 0.3461 0.9316
vn 0.0608 0.3533 0.9335
vn 0.1580 0.3149 0.9359
vn 0.1512 0.2496 0.9565
vn 0.1055 0.2860 0.9524
vn -0.0093 0.2799 0.9600
vn 0.0527 0.2931 0.9546
vn 0.0377 0.2527 0.9668
vn -0.0266 0.2395 0.9705
vn 0.0135 0.4093 0.9123
vn 0.0236 0.4446 0.8954
vn 0.0047 0.3418 0.9398
vn 0.2115 0.3693 0.9049
vn 0.1536 0.3959 0.9053
vn 0.1554 0.4376 0.8857
vn 0.2195 0.4127 0.8840
vn 0.2166 0.2824 0.9345
vn 0.2110 0.2092 0.9548
vn -0.1631 0.1805 0.9700
vn -0.1661 0.1787 0.9698
vn -0.1587 0.2168 0.9632
vn -0.1505 0.2096 0.9661
vn -0.1099 0.2854 0.9521
vn -0.0975 0.3237 0.9411
vn -0.1251 0.2392 0.9629
vn 0.1757 0.0568 0.9828
vn 0.2327 0.0347 0.9719
vn 0.1415 0.3560 0.9237
vn 0.0997 0.3807 0.9193
vn 0.4848 0.2146 0.8479
vn 0.5541 0.3043 0.7749
vn 0.4676 0.3871 0.7947
vn 0.4486 0.3054 0.8399
vn 0.2655 0.3227 0.9085
vn 0.3362 0.0522 0.9403
vn 0.3650 0.0054 0.9310
vn 0.5107 0.1996 0.8363
vn -0.2309 0.5108 0.8281
vn -0.2197 0.4955 0.8404
vn -0.2403 0.7210 0.6499
vn -0.2205 0.6946 0.6848
vn 0.2667 0.4846 0.8331
vn 0.0753 0.5721 0.8167
vn -0.1422 0.2005 0.9693
vn -0.1639 0.2189 0.9619
vn -0.2084 0.2756 0.9384
vn -0.1836 0.2072 0.9609
vn -0.1302 0.1853 0.9740
vn 0.0208 0.1924 0.9811
vn -0.0159 0.1557 0.9877
vn -0.0201 0.2251 0.9741
vn 0.0299 0.2066 0.9780
vn -0.0282 0.4396 0.8978
vn -0.0781 0.4651 0.8818
vn -0.0863 0.6948 0.7140
vn -0.1374 0.7880 0.6002
vn -0.0846 0.1531 0.9846
vn -0.0804 0.2092 0.9746
vn -0.1611 0.4776 0.8637
vn -0.2058 0.7731 0.6000
vn 0.1157 0.0474 0.9922
vn 0.0528 0.1106 0.9925
vn 0.0688 0.1578 0.9851
vn 0.1223 0.0991 0.9875
vn 0.0266 0.3783 0.9253
vn -0.0255 0.4065 0.9133
vn -0.0523 0.7076 0.7047
vn -0.0877 0.6499 0.7549
vn 0.1995 0.0438 0.9789
vn 0.0173 0.6700 0.7422
vn 0.4479 0.1620 0.8793
vn 0.4432 0.0139 0.8963
vn 0.3492 0.0369 0.9363
vn -0.2025 0.6874 0.6975
vn -0.2143 0.5617 0.7991
vn -0.2153 0.2948 0.9310
vn -0.1911 0.2357 0.9529
vn 0.2669 -0.0274 0.9633
vn 0.2254 0.0590 0.9725
vn 0.2926 -0.0219 0.9560
vn 0.5676 0.3223 0.7576
vn 0.5248 0.2022 0.8268
vn 0.5751 0.3201 0.7528
vn 0.4130 -0.0303 0.9102
vn 0.5443 0.1663 0.8223
vn 0.3851 -0.0095 0.9228
vn 0.0197 0.2335 0.9722
vn 0.0721 0.2272 0.9712
vn 0.0499 0.2181 0.9747
vn -0.0013 0.2290 0.9734
vn 0.1138 0.1815 0.9768
vn 0.1705 0.1231 0.9776
vn 0.1437 0.1149 0.9829
vn 0.0896 0.1712 0.9812
vn -0.0467 0.2187 0.9747
vn -0.0690 0.2108 0.9751
vn 0.2558 0.0728 0.9640
vn -0.1137 0.2082 0.9715
vn 0.5939 0.3602 0.7194
vn 0.5593 0.2024 0.8039
vn 0.2792 0.1236 0.9522
vn 0.1351 0.2065 0.9691
vn 0.0910 0.2487 0.9643
vn 0.1948 0.1543 0.9686
vn -0.1415 0.2152 0.9663
vn 0.3229 -0.0145 0.9463
vn 0.5917 0.2908 0.7519
vt 0.578467 0.931278
vt 0.581426 0.932779
vt 0.554780 0.946867
vt 0.552208 0.945134
vt 0.452119 0.878982
vt 0.441298 0.873367
vt 0.451720 0.866924
vt 0.463934 0.872169
vt 0.437134 0.861029
vt 0.435339 0.860100
vt 0.442877 0.855244
vt 0.444702 0.856006
vt 0.449229 0.851847
vt 0.451116 0.852442
vt 0.460130 0.861173
vt 0.473432 0.865895
vt 0.467002 0.857051
vt 0.481242 0.861023
vt 0.621050 0.900298
vt 0.601124 0.895198
vt 0.613601 0.883690
vt 0.634740 0.887338
vt 0.427865 0.866983
vt 0.426121 0.865941
vt 0.439648 0.861951
vt 0.430233 0.868013
vt 0.447331 0.856806
vt 0.552208 0.945134
vt 0.538001 0.935636
vt 0.562107 0.923006
vt 0.578467 0.931278
vt 0.583199 0.909327
vt 0.601501 0.916043
vt 0.513329 0.897061
vt 0.529582 0.905741
vt 0.509727 0.916167
vt 0.495564 0.906516
vt 0.528958 0.887242
vt 0.546994 0.894780
vt 0.510629 0.879880
vt 0.521486 0.872278
vt 0.541021 0.878367
vt 0.581424 0.889527
vt 0.560523 0.884408
vt 0.570414 0.875554
vt 0.590840 0.879329
vt 0.545835 0.914388
vt 0.523866 0.925874
vt 0.565068 0.902132
vt 0.480544 0.880154
vt 0.496988 0.888493
vt 0.481265 0.897048
vt 0.466852 0.887848
vt 0.491623 0.873018
vt 0.500877 0.866941
vt 0.656305 0.860055
vt 0.660433 0.860086
vt 0.651116 0.873452
vt 0.647109 0.873096
vt 0.604811 0.917262
vt 0.581426 0.932779
vt 0.624656 0.901223
vt 0.504778 0.841493
vt 0.488746 0.840685
vt 0.490898 0.837187
vt 0.506925 0.837989
vt 0.470357 0.839475
vt 0.468580 0.839310
vt 0.471521 0.835824
vt 0.472380 0.837009
vt 0.474786 0.836232
vt 0.472607 0.839652
vt 0.469901 0.842291
vt 0.467393 0.841964
vt 0.667086 0.836446
vt 0.643935 0.837959
vt 0.644768 0.834320
vt 0.668090 0.832778
vt 0.474190 0.834003
vt 0.490441 0.834613
vt 0.639818 0.846441
vt 0.642076 0.841789
vt 0.665273 0.840339
vt 0.662794 0.845635
vt 0.633505 0.859831
vt 0.573437 0.843056
vt 0.596340 0.843077
vt 0.593840 0.846732
vt 0.570819 0.846671
vt 0.575478 0.839388
vt 0.598321 0.839351
vt 0.575726 0.835846
vt 0.598740 0.835720
vt 0.619185 0.842616
vt 0.616492 0.846371
vt 0.621109 0.838831
vt 0.621735 0.835164
vt 0.527598 0.842334
vt 0.550514 0.842846
vt 0.547750 0.846413
vt 0.524659 0.845853
vt 0.529744 0.838782
vt 0.552603 0.839240
vt 0.529642 0.835552
vt 0.552689 0.835823
vt 0.501606 0.844974
vt 0.506582 0.835044
vt 0.453905 0.853139
vt 0.459118 0.850343
vt 0.473058 0.853571
vt 0.672308 0.832491
vt 0.671287 0.836168
vt 0.669480 0.840069
vt 0.666966 0.845487
vt 0.485689 0.843805
vt 0.497990 0.848917
vt 0.482493 0.847031
vt 0.465571 0.841753
vt 0.464454 0.844478
vt 0.462579 0.844201
vt 0.464126 0.847262
vt 0.461264 0.846731
vt 0.467197 0.844936
vt 0.579586 0.865959
vt 0.558220 0.862688
vt 0.563703 0.856479
vt 0.585638 0.858695
vt 0.536837 0.859287
vt 0.515486 0.855794
vt 0.519843 0.851586
vt 0.541760 0.854113
vt 0.599542 0.868383
vt 0.606869 0.859724
vt 0.494155 0.852239
vt 0.624989 0.871113
vt 0.454351 0.849251
vt 0.456264 0.849694
vt 0.487828 0.856806
vt 0.529390 0.866049
vt 0.549913 0.870850
vt 0.508371 0.861605
vt 0.638568 0.887998
vt 0.478933 0.849819
vt 0.459362 0.846403
s 0
f 1/1/1 2/2/1 3/3/1 4/4/1
f 5/5/2 6/6/3 7/7/4 8/8/5
f 9/9/6 10/10/7 11/11/8 12/12/9
f 12/12/9 11/11/8 13/13/10 14/14/11
f 8/8/5 7/7/4 15/15/12 16/16/13
f 16/16/13 15/15/12 17/17/14 18/18/15
f 19/19/16 20/20/17 21/21/18 22/22/19
f 23/23/20 24/24/21 10/10/7 9/9/6
f 9/9/6 25/25/22 26/26/23 23/23/20
f 12/12/9 27/27/24 25/25/22 9/9/6
f 28/28/25 29/29/26 30/30/27 31/31/28
f 31/31/28 30/30/27 32/32/29 33/33/30
f 33/33/30 32/32/29 20/20/17 19/19/16
f 34/34/31 35/35/32 36/36/33 37/37/34
f 38/38/35 39/39/36 35/35/32 34/34/31
f 38/38/35 40/40/37 41/41/38 42/42/39
f 43/43/40 44/44/41 45/45/42 46/46/43
f 47/47/44 30/30/27 29/29/26 48/48/45
f 49/49/46 32/32/29 30/30/27 47/47/44
f 43/43/40 20/20/17 32/32/29 49/49/46
f 50/50/47 51/51/48 52/52/49 53/53/50
f 54/54/51 40/40/37 51/51/48 50/50/47
f 54/54/51 16/16/13 18/18/15 55/55/52
f 35/35/32 47/47/44 48/48/45 36/36/33
f 39/39/36 49/49/46 47/47/44 35/35/32
f 8/8/5 50/50/47 53/53/50 5/5/2
f 16/16/13 54/54/51 50/50/47 8/8/5
f 51/51/48 34/34/31 37/37/34 52/52/49
f 40/40/37 38/38/35 34/34/31 51/51/48
f 6/6/3 26/26/23 25/25/22 7/7/4
f 7/7/4 25/25/22 27/27/24 15/15/12
f 56/56/53 57/57/54 58/58/55 59/59/56
f 33/33/30 60/60/57 61/61/58 31/31/28
f 19/19/16 62/62/59 60/60/57 33/33/30
f 63/63/60 64/64/61 65/65/62 66/66/63
f 67/67/64 68/68/65 69/69/66 70/70/67
f 70/70/67 71/71/68 72/72/69 67/67/64
f 67/67/64 72/72/69 73/73/70 74/74/71
f 75/75/72 76/76/73 77/77/74 78/78/75
f 70/70/67 69/69/66 79/79/76 71/71/68
f 71/71/68 79/79/76 80/80/77 65/65/62
f 81/81/78 82/82/79 83/83/80 84/84/81
f 83/83/80 82/82/79 76/76/73 75/75/72
f 56/56/53 85/85/82 81/81/78 84/84/81
f 86/86/83 87/87/84 88/88/85 89/89/86
f 90/90/87 91/91/88 87/87/84 86/86/83
f 92/92/89 93/93/90 91/91/88 90/90/87
f 94/94/91 82/82/79 81/81/78 95/95/92
f 96/96/93 76/76/73 82/82/79 94/94/91
f 97/97/94 77/77/74 76/76/73 96/96/93
f 98/98/95 99/99/96 100/100/97 101/101/98
f 102/102/99 103/103/100 99/99/96 98/98/95
f 102/102/99 104/104/101 105/105/102 103/103/100
f 87/87/84 94/94/91 95/95/92 88/88/85
f 91/91/88 96/96/93 94/94/91 87/87/84
f 93/93/90 97/97/94 96/96/93 91/91/88
f 63/63/60 98/98/95 101/101/98 106/106/103
f 66/66/63 102/102/99 98/98/95 63/63/60
f 104/104/101 102/102/99 66/66/63 107/107/104
f 99/99/96 86/86/83 89/89/86 100/100/97
f 103/103/100 90/90/87 86/86/83 99/99/96
f 92/92/89 90/90/87 103/103/100 105/105/102
f 17/17/14 108/108/105 109/109/106 110/110/107
f 64/64/61 72/72/69 71/71/68 65/65/62
f 107/107/104 66/66/63 65/65/62 80/80/77
f 78/78/75 111/111/108 112/112/109 75/75/72
f 83/83/80 113/113/110 114/114/111 84/84/81
f 75/75/72 112/112/109 113/113/110 83/83/80
f 84/84/81 114/114/111 57/57/54 56/56/53
f 115/115/112 106/106/103 116/116/113 117/117/114
f 118/118/115 74/74/71 119/119/116 120/120/117
f 121/121/118 122/122/119 119/119/116 123/123/120
f 124/124/121 125/125/122 126/126/123 127/127/124
f 128/128/125 129/129/126 130/130/127 131/131/128
f 132/132/129 124/124/121 127/127/124 133/133/130
f 129/129/126 134/134/131 116/116/113 130/130/127
f 125/125/122 128/128/125 131/131/128 126/126/123
f 73/73/70 115/115/112 117/117/114 123/123/120
f 135/135/132 132/132/129 133/133/130 85/85/82
f 136/136/133 137/137/134 14/14/11 13/13/10
f 110/110/107 138/138/135 18/18/15 17/17/14
f 139/139/136 140/140/137 42/42/39 41/41/38
f 138/138/135 141/141/138 55/55/52 18/18/15
f 27/27/24 12/12/9 14/14/11 108/108/105
f 15/15/12 27/27/24 108/108/105 17/17/14
f 39/39/36 38/38/35 42/42/39 44/44/41
f 40/40/37 54/54/51 55/55/52 41/41/38
f 49/49/46 39/39/36 44/44/41 43/43/40
f 123/123/120 119/119/116 74/74/71 73/73/70
f 127/127/124 126/126/123 89/89/86 88/88/85
f 131/131/128 130/130/127 101/101/98 100/100/97
f 133/133/130 127/127/124 88/88/85 95/95/92
f 130/130/127 116/116/113 106/106/103 101/101/98
f 126/126/123 131/131/128 100/100/97 89/89/86
f 64/64/61 63/63/60 106/106/103 115/115/112
f 68/68/65 67/67/64 74/74/71 118/118/115
f 72/72/69 64/64/61 115/115/112 73/73/70
f 85/85/82 133/133/130 95/95/92 81/81/78
f 85/85/82 56/56/53 59/59/56 135/135/132
f 142/142/139 22/22/19 59/59/56 58/58/55
f 117/117/114 116/116/113 134/134/131 143/143/140
f 120/120/117 119/119/116 122/122/119 144/144/141
f 123/123/120 117/117/114 143/143/140 121/121/118
f 109/109/106 137/137/134 122/122/119 121/121/118
f 45/45/42 140/140/137 125/125/122 124/124/121
f 139/139/136 141/141/138 129/129/126 128/128/125
f 21/21/18 46/46/43 132/132/129 135/135/132
f 135/135/132 59/59/56 22/22/19 21/21/18
f 124/124/121 132/132/129 46/46/43 45/45/42
f 121/121/118 143/143/140 110/110/107 109/109/106
f 144/144/141 122/122/119 137/137/134 136/136/133
f 143/143/140 134/134/131 138/138/135 110/110/107
f 128/128/125 125/125/122 140/140/137 139/139/136
f 134/134/131 129/129/126 141/141/138 138/138/135
f 62/62/59 19/19/16 22/22/19 142/142/139
f 108/108/105 14/14/11 137/137/134 109/109/106
f 44/44/41 42/42/39 140/140/137 45/45/42
f 41/41/38 55/55/52 141/141/138 139/139/136
f 20/20/17 43/43/40 46/46/43 21/21/18
