# Blender 4.5.3 LTS
# www.blender.org
o LeftStickClick
v -39.613445 -28.615311 16.204887
v -39.613441 -28.761181 16.225952
v -38.683880 -28.615320 16.297333
v -40.542995 -28.615320 16.297333
v -39.613441 -28.536489 16.141716
v -38.671555 -28.536495 16.235390
v -39.613438 -28.372267 15.836334
v -40.555325 -28.536489 16.235390
v -40.614887 -28.372267 15.935905
v -41.461357 -28.536489 16.509285
v -41.578213 -28.372271 16.227150
v -42.295692 -28.536495 16.956284
v -41.437172 -28.615320 16.567657
v -41.429100 -28.761181 16.587090
v -42.260597 -28.615305 17.008774
v -42.983273 -28.615301 17.600716
v -42.248878 -28.761177 17.026299
v -42.248878 -32.887081 17.026299
v -42.968376 -28.761177 17.615585
v -43.557686 -28.761177 18.335075
v -42.968369 -32.887077 17.615585
v -43.557682 -32.887081 18.335075
v -41.429100 -32.887081 16.587097
v -40.538883 -32.887085 16.317993
v -39.613453 -32.887085 16.225952
v -40.538891 -28.761181 16.317993
v -38.687992 -32.887085 16.317993
v -37.797764 -32.887085 16.587097
v -37.797756 -28.761181 16.587090
v -36.977985 -32.887081 17.026299
v -36.977982 -28.761177 17.026299
v -36.258514 -32.887077 17.615593
v -36.258507 -28.761177 17.615585
v -35.669209 -32.887085 18.335075
v -35.230022 -32.887077 19.154846
v -35.230015 -28.761171 19.154846
v -34.960896 -32.887077 20.045090
v -34.960892 -28.761171 20.045090
v -34.868858 -32.887077 20.970535
v -34.868851 -28.761213 20.985062
v -34.960896 -32.887074 21.895973
v -35.230022 -32.887074 22.786217
v -35.230015 -28.761187 22.786217
v -35.669209 -32.887074 23.605995
v -35.669209 -28.761187 23.605995
v -36.258514 -32.887077 24.325470
v -36.258507 -28.761181 24.325470
v -36.977985 -32.887074 24.914780
v -37.797764 -32.887081 25.353973
v -37.797756 -28.761177 25.353973
v -38.687992 -32.887077 25.623077
v -38.687981 -28.761177 25.623077
v -39.613453 -32.887077 25.715126
v -39.613441 -28.761181 25.715126
v -40.538891 -32.887077 25.623077
v -41.429100 -32.887081 25.353973
v -41.429100 -28.761177 25.353973
v -42.248882 -32.887077 24.914780
v -42.248882 -28.761168 24.914780
v -42.968369 -32.887077 24.325478
v -42.968376 -28.761171 24.325478
v -43.557686 -32.887077 23.605995
v -43.996872 -32.887077 22.786217
v -43.996876 -28.761181 22.786217
v -44.265987 -32.887077 21.895973
v -44.265984 -28.761177 21.895973
v -44.358025 -32.887081 20.970535
v -44.358025 -28.761217 20.985062
v -44.265987 -32.887081 20.045090
v -43.996872 -32.887077 19.154846
v -43.996876 -28.761177 19.154846
v -44.265987 -28.761177 20.045090
v -44.016331 -28.615305 19.146805
v -44.286640 -28.615311 20.040977
v -43.575188 -28.615305 18.323387
v -44.074696 -28.536489 19.122604
v -44.356823 -28.372280 19.005768
v -44.348591 -28.536495 20.028641
v -43.627708 -28.536495 18.288292
v -43.027943 -28.536489 17.556038
v -43.881577 -28.372271 18.118645
v -44.503101 -27.970243 17.703377
v -43.243855 -28.372280 17.340103
v -43.772533 -27.970243 16.811447
v -42.465305 -28.372267 16.702408
v -42.880604 -27.970238 16.080856
v -43.417248 -27.410414 15.277740
v -41.864326 -27.970238 15.536400
v -42.234039 -27.410423 14.643852
v -40.760723 -27.970234 15.202797
v -40.949162 -27.410414 14.255409
v -39.613441 -27.970234 15.088692
v -38.466164 -27.970234 15.202797
v -39.613438 -27.410419 14.122566
v -38.277721 -27.410414 14.255409
v -39.613441 -26.772852 13.161804
v -38.090305 -26.772846 13.313286
v -39.613438 -26.032269 12.260208
v -41.136570 -26.772852 13.313286
v -41.312416 -26.032278 12.429176
v -42.601715 -26.772856 13.756203
v -42.946735 -26.032269 12.923241
v -43.950924 -26.772856 14.479027
v -44.451733 -26.032274 13.729507
v -45.135048 -26.772846 15.448914
v -45.772572 -26.032274 14.811386
v -46.104946 -26.772846 16.633034
v -44.455681 -27.410419 16.128304
v -45.306225 -27.410414 17.166740
v -45.940136 -27.410431 18.349945
v -45.047562 -27.970243 18.719635
v -46.328548 -27.410503 19.634789
v -46.827770 -26.772930 17.982254
v -47.660721 -26.033041 17.637146
v -47.270695 -26.773167 19.447380
v -48.154789 -26.035376 19.271263
v -47.422180 -26.773687 20.992073
v -48.323769 -26.038328 20.994644
v -47.270695 -26.774273 22.493530
v -46.461399 -27.410667 20.989830
v -45.495281 -27.970297 20.987854
v -46.328548 -27.410761 22.306213
v -45.940136 -27.410839 23.591080
v -45.381180 -27.970234 22.117813
v -45.047562 -27.970234 23.221420
v -44.648045 -28.372271 21.971970
v -44.356831 -28.372267 22.935295
v -44.747643 -28.372334 20.986443
v -44.348602 -28.536495 21.912422
v -44.442272 -28.536549 20.985847
v -44.286640 -28.615311 21.900101
v -44.074707 -28.536489 22.818451
v -43.627716 -28.536495 23.652763
v -44.016331 -28.615311 22.794258
v -43.575188 -28.615305 23.617683
v -42.983269 -28.615305 24.340347
v -43.557686 -28.761187 23.605995
v -42.260597 -28.615301 24.932289
v -43.027943 -28.536486 24.385017
v -43.243855 -28.372271 24.600975
v -42.295692 -28.536486 24.984810
v -42.465305 -28.372267 25.238655
v -41.461357 -28.536486 25.431801
v -41.578213 -28.372261 25.713921
v -40.555325 -28.536489 25.705696
v -41.437172 -28.615301 25.373428
v -40.542995 -28.615305 25.643730
v -39.613445 -28.615320 25.736183
v -40.538891 -28.761177 25.623077
v -38.683876 -28.615305 25.643730
v -39.613441 -28.536489 25.799370
v -39.613438 -28.372261 26.104744
v -38.671555 -28.536489 25.705696
v -38.611992 -28.372267 26.005150
v -37.765522 -28.536489 25.431801
v -37.648663 -28.372271 25.713921
v -36.931190 -28.536495 24.984802
v -37.789703 -28.615311 25.373421
v -36.966282 -28.615311 24.932281
v -36.243610 -28.615320 24.340332
v -36.977982 -28.761177 24.914780
v -35.651688 -28.615320 23.617676
v -36.198944 -28.536489 24.385017
v -35.983006 -28.372280 24.600975
v -35.599171 -28.536495 23.652763
v -35.345303 -28.372271 23.822418
v -35.152180 -28.536495 22.818451
v -34.870052 -28.372261 22.935295
v -34.878284 -28.536499 21.912422
v -35.210552 -28.615311 22.794258
v -34.940239 -28.615305 21.900101
v -34.847790 -28.615364 20.985596
v -34.960888 -28.761171 21.895973
v -34.940243 -28.615305 20.040977
v -34.784603 -28.536549 20.985847
v -34.479225 -28.372339 20.986443
v -34.878288 -28.536495 20.028641
v -34.578835 -28.372267 19.969093
v -35.152180 -28.536489 19.122604
v -34.870052 -28.372271 19.005768
v -35.599171 -28.536489 18.288292
v -35.210552 -28.615301 19.146805
v -35.651688 -28.615305 18.323387
v -36.243610 -28.615305 17.600716
v -35.669209 -28.761171 18.335075
v -36.966274 -28.615305 17.008774
v -36.198940 -28.536489 17.556038
v -35.983006 -28.372280 17.340103
v -36.931183 -28.536495 16.956268
v -36.761555 -28.372267 16.702408
v -37.765522 -28.536489 16.509285
v -37.648663 -28.372271 16.227150
v -37.789703 -28.615320 16.567657
v -37.362553 -27.970238 15.536407
v -38.611992 -28.372271 15.935905
v -36.992840 -27.410423 14.643852
v -36.346283 -27.970238 16.080856
v -35.809631 -27.410414 15.277740
v -35.454342 -27.970238 16.811447
v -34.771202 -27.410419 16.128304
v -34.723778 -27.970238 17.703377
v -35.345303 -28.372267 18.118645
v -33.920643 -27.410410 17.166740
v -34.179321 -27.970238 18.719635
v -33.286751 -27.410414 18.349945
v -33.845699 -27.970234 19.823265
v -32.898319 -27.410414 19.634804
v -33.731594 -27.970297 20.987854
v -32.765480 -27.410479 20.989830
v -33.845699 -27.970238 22.117821
v -34.578835 -28.372271 21.971970
v -32.898319 -27.410410 22.306259
v -34.179321 -27.970238 23.221420
v -33.286751 -27.410410 23.591141
v -34.723778 -27.970234 24.237671
v -33.920639 -27.410410 24.774323
v -35.454342 -27.970234 25.129631
v -34.771202 -27.410410 25.812767
v -36.346283 -27.970234 25.860184
v -36.761555 -28.372271 25.238655
v -35.809631 -27.410410 26.663345
v -37.362553 -27.970234 26.404655
v -36.992844 -27.410410 27.297226
v -38.466164 -27.970234 26.738281
v -38.277721 -27.410414 27.685654
v -39.613441 -27.970234 26.852379
v -39.613438 -27.410404 27.818504
v -40.760723 -27.970228 26.738281
v -40.614887 -28.372267 26.005150
v -40.949162 -27.410410 27.685654
v -41.864326 -27.970234 26.404655
v -42.234047 -27.410410 27.297226
v -42.880608 -27.970234 25.860184
v -43.417252 -27.410404 26.663345
v -43.772545 -27.970238 25.129631
v -44.455688 -27.410479 25.812767
v -44.503105 -27.970238 24.237671
v -43.881580 -28.372267 23.822418
v -45.306244 -27.410683 24.774300
v -46.104950 -26.773952 25.307930
v -46.854446 -26.037672 25.808357
v -45.135059 -26.773127 26.492126
v -46.827770 -26.774591 23.958641
v -47.660721 -26.041006 24.303055
v -48.389240 -25.189611 24.603271
v -48.154789 -26.040665 22.668762
v -48.928020 -25.189808 22.820938
v -49.615997 -24.251133 22.956276
v -49.112293 -25.183611 20.997665
v -49.814148 -24.239212 21.000999
v -48.928020 -25.174200 19.116730
v -49.616337 -24.220232 18.979073
v -48.389240 -25.166094 17.335220
v -49.037750 -24.203520 17.066399
v -47.509964 -25.163389 15.694252
v -48.093502 -24.197947 15.304337
v -46.330132 -25.163391 14.253822
v -46.854446 -26.032269 16.132256
v -46.826492 -24.197947 13.757477
v -44.889706 -25.163389 13.074013
v -45.279633 -24.197935 12.490471
v -43.248489 -25.163395 12.194733
v -43.517101 -24.197939 11.546219
v -41.466225 -25.163389 11.655952
v -41.603146 -24.197939 10.967625
v -39.613445 -25.163391 11.471664
v -37.760658 -25.163389 11.655960
v -39.613441 -24.197933 10.769737
v -37.623741 -24.197939 10.967625
v -39.613445 -23.167664 10.127869
v -37.498539 -23.167667 10.338226
v -39.613445 -22.104961 9.516090
v -41.728329 -23.167664 10.338223
v -41.847645 -22.104958 9.738289
v -43.762741 -23.167664 10.953228
v -43.996857 -22.104958 10.388004
v -45.636135 -23.167664 11.956894
v -45.975964 -22.104959 11.448299
v -47.280354 -23.167667 13.303627
v -47.712944 -22.104973 12.871002
v -48.627079 -23.167683 14.947807
v -49.135674 -22.105017 14.607986
v -49.630745 -23.176785 16.820724
v -50.195976 -22.117981 16.586586
v -50.245750 -23.204050 18.853607
v -50.845669 -22.156744 18.734261
v -50.455730 -23.234846 21.004539
v -51.067142 -22.200483 21.008156
v -50.244316 -23.254072 23.081055
v -50.842800 -22.227798 23.200531
v -49.628567 -23.252266 25.115738
v -50.191612 -22.225220 25.350105
v -48.625542 -23.219421 26.990730
v -49.037205 -24.250113 24.870453
v -48.093105 -24.229790 26.634430
v -46.826382 -24.207090 28.182892
v -47.509964 -25.179409 26.245422
v -46.330132 -25.167913 27.686844
v -44.889725 -25.163794 28.867027
v -45.772572 -26.033747 27.129532
v -44.451733 -26.032377 28.211502
v -42.946739 -26.032293 29.017830
v -43.950924 -26.772842 27.462044
v -42.601715 -26.772846 28.184883
v -41.136574 -26.772846 28.627792
v -41.312428 -26.032251 29.511887
v -39.613441 -26.772846 28.779282
v -39.613441 -26.032251 29.680862
v -38.090313 -26.772846 28.627792
v -37.914463 -26.032255 29.511887
v -36.625156 -26.772846 28.184883
v -36.280136 -26.032255 29.017830
v -35.275948 -26.772842 27.462044
v -34.775150 -26.032259 28.211510
v -34.091835 -26.772842 26.492142
v -33.454308 -26.032255 27.129662
v -33.121925 -26.772842 25.308014
v -32.372417 -26.032255 25.808815
v -32.399090 -26.772846 23.958794
v -31.566143 -26.032259 24.303818
v -31.956184 -26.772842 22.493645
v -31.072077 -26.032259 22.669510
v -31.804699 -26.772921 20.992073
v -30.903105 -26.032333 20.994675
v -31.956188 -26.772846 19.447403
v -31.072079 -26.032255 19.271545
v -32.399097 -26.772846 17.982254
v -31.566151 -26.032259 17.637245
v -33.121929 -26.772846 16.633034
v -32.372425 -26.032269 16.132256
v -34.091835 -26.772846 15.448914
v -33.454315 -26.032278 14.811386
v -35.275948 -26.772852 14.479027
v -34.775150 -26.032269 13.729515
v -36.625156 -26.772856 13.756210
v -36.280136 -26.032269 12.923248
v -37.914463 -26.032278 12.429184
v -35.978382 -25.163393 12.194748
v -35.709759 -24.197945 11.546227
v -34.337158 -25.163387 13.074028
v -33.947247 -24.197935 12.490471
v -32.896740 -25.163385 14.253822
v -32.400387 -24.197935 13.757477
v -31.716925 -25.163385 15.694252
v -31.133381 -24.197941 15.304344
v -30.837650 -25.163383 17.335495
v -30.189135 -24.197931 17.066841
v -30.298864 -25.163383 19.117722
v -29.610529 -24.197931 18.980835
v -30.114580 -25.163486 20.997749
v -29.412632 -24.198046 21.001144
v -30.298857 -25.163380 22.823326
v -29.610521 -24.197935 22.960243
v -30.837635 -25.163391 24.605568
v -30.189117 -24.197935 24.874207
v -31.716902 -25.163385 26.246819
v -31.133375 -24.197935 26.636726
v -32.896732 -25.163383 27.687233
v -32.400372 -24.197935 28.183594
v -34.337154 -25.163380 28.867065
v -33.947247 -24.197931 29.450600
v -35.978382 -25.163385 29.746338
v -35.709759 -24.197927 30.394852
v -37.760658 -25.163382 30.285133
v -37.623741 -24.197927 30.973442
v -39.613445 -25.163378 30.469353
v -39.613441 -24.197922 31.171341
v -41.466225 -25.163383 30.285133
v -41.603146 -24.197926 30.973442
v -43.248501 -25.163483 29.746323
v -43.517113 -24.198164 30.394836
v -45.279598 -24.198879 29.450508
v -43.762722 -23.168072 30.987793
v -43.996819 -22.105589 31.552963
v -41.728333 -23.167645 31.602852
v -45.636066 -23.169359 29.984009
v -45.975796 -22.107529 30.492523
v -47.279854 -23.182735 28.636612
v -47.711941 -22.126616 29.069130
v -49.132595 -22.178667 27.330643
v -41.847656 -22.104940 32.202736
v -39.613445 -23.167645 31.813194
v -39.613445 -22.104939 32.424965
v -37.498539 -23.167648 31.602852
v -37.379211 -22.104940 32.202736
v -35.464130 -23.167652 30.987831
v -35.230015 -22.104950 31.553078
v -33.590717 -23.167652 29.984169
v -33.250885 -22.104940 30.492775
v -31.946526 -23.167648 28.637451
v -31.513914 -22.104940 29.070015
v -30.599794 -23.167648 26.993248
v -30.091190 -22.104931 27.333099
v -29.596130 -23.167656 25.119812
v -29.030897 -22.104931 25.353973
v -28.981129 -23.167658 23.085426
v -28.381199 -22.104946 23.204765
v -28.770782 -23.167776 21.004776
v -28.158993 -22.105083 21.008492
v -28.981134 -23.167658 18.855621
v -28.381199 -22.104952 18.736298
v -29.596138 -23.167658 16.821236
v -29.030901 -22.104956 16.587082
v -30.599808 -23.167658 14.947815
v -30.091198 -22.104958 14.607986
v -31.946531 -23.167656 13.303627
v -31.513922 -22.104958 12.871002
v -33.590725 -23.167664 11.956902
v -33.250893 -22.104959 11.448299
v -35.464134 -23.167665 10.953243
v -35.230019 -22.104961 10.388004
v -37.379211 -22.104963 9.738289
v -44.379070 -28.615364 20.985596
v -44.648045 -28.372271 19.969093
v -45.381180 -27.970234 19.823235
v -38.687981 -28.761181 16.317993
vn -0.0000 -0.4043 -0.9146
vn -0.0000 -0.0720 -0.9974
vn -0.1946 -0.0719 -0.9782
vn -0.1784 -0.4042 -0.8971
vn 0.1784 -0.4041 -0.8971
vn 0.1946 -0.0719 -0.9782
vn -0.0000 -0.7747 -0.6323
vn 0.1234 -0.7746 -0.6203
vn -0.1234 -0.7746 -0.6204
vn -0.0000 -0.8807 -0.4736
vn 0.0924 -0.8807 -0.4646
vn -0.0924 -0.8807 -0.4646
vn -0.2420 -0.7747 -0.5842
vn -0.1812 -0.8807 -0.4376
vn -0.3500 -0.4043 -0.8450
vn -0.3514 -0.7746 -0.5259
vn -0.2632 -0.8807 -0.3938
vn -0.5082 -0.4042 -0.7605
vn -0.3817 -0.0720 -0.9215
vn -0.5541 -0.0719 -0.8293
vn -0.6467 -0.4044 -0.6467
vn -0.4471 -0.7748 -0.4471
vn -0.7053 -0.0719 -0.7053
vn -0.5556 -0.0000 -0.8315
vn -0.7071 -0.0000 -0.7071
vn -0.3827 -0.0000 -0.9239
vn -0.8293 -0.0719 -0.5541
vn -0.7605 -0.4042 -0.5082
vn -0.8315 -0.0000 -0.5556
vn -0.1951 -0.0000 -0.9808
vn -0.0000 -0.0000 -1.0000
vn 0.1951 -0.0000 -0.9808
vn 0.3817 -0.0719 -0.9215
vn 0.5541 -0.0719 -0.8293
vn 0.5556 -0.0000 -0.8315
vn 0.3827 -0.0000 -0.9239
vn 0.7053 -0.0720 -0.7053
vn 0.7071 -0.0000 -0.7071
vn 0.8293 -0.0719 -0.5541
vn 0.8315 -0.0000 -0.5556
vn 0.9215 -0.0719 -0.3817
vn 0.9784 -0.0719 -0.1940
vn 0.9809 0.0001 -0.1947
vn 0.9239 -0.0000 -0.3827
vn 0.9974 -0.0720 0.0012
vn 1.0000 -0.0000 0.0006
vn 0.9781 -0.0720 0.1952
vn 0.9807 -0.0001 0.1955
vn 0.9215 -0.0720 0.3817
vn 0.8293 -0.0719 0.5541
vn 0.8315 -0.0000 0.5556
vn 0.9239 -0.0000 0.3827
vn 0.7053 -0.0719 0.7053
vn 0.7071 -0.0000 0.7071
vn 0.5541 -0.0719 0.8293
vn 0.5556 -0.0000 0.8315
vn 0.3817 -0.0719 0.9215
vn 0.1946 -0.0719 0.9782
vn 0.1951 -0.0000 0.9808
vn 0.3827 -0.0000 0.9239
vn -0.0000 -0.0720 0.9974
vn -0.0000 -0.0000 1.0000
vn -0.1946 -0.0719 0.9782
vn -0.1951 -0.0000 0.9808
vn -0.3817 -0.0720 0.9215
vn -0.5541 -0.0719 0.8293
vn -0.5556 -0.0000 0.8315
vn -0.3827 -0.0000 0.9239
vn -0.7053 -0.0719 0.7053
vn -0.7071 -0.0000 0.7071
vn -0.8293 -0.0719 0.5541
vn -0.8315 -0.0000 0.5556
vn -0.9215 -0.0719 0.3817
vn -0.9781 -0.0720 0.1952
vn -0.9807 -0.0001 0.1955
vn -0.9239 -0.0000 0.3827
vn -0.9974 -0.0720 0.0012
vn -1.0000 -0.0000 0.0006
vn -0.9784 -0.0718 -0.1940
vn -0.9809 0.0001 -0.1947
vn -0.9215 -0.0719 -0.3817
vn -0.9239 -0.0000 -0.3827
vn -0.8450 -0.4044 -0.3500
vn -0.8972 -0.4042 -0.1777
vn -0.5841 -0.7748 -0.2420
vn -0.6203 -0.7747 -0.1229
vn -0.5259 -0.7746 -0.3514
vn -0.4376 -0.8807 -0.1812
vn -0.3938 -0.8807 -0.2632
vn -0.4646 -0.8807 -0.0921
vn -0.3349 -0.8807 -0.3349
vn -0.3453 -0.8727 -0.3453
vn -0.4061 -0.8726 -0.2713
vn -0.4511 -0.8727 -0.1869
vn -0.2713 -0.8726 -0.4061
vn -0.1869 -0.8727 -0.4511
vn -0.3739 -0.8488 -0.3739
vn -0.2938 -0.8487 -0.4397
vn -0.2024 -0.8488 -0.4885
vn -0.1032 -0.8487 -0.5187
vn -0.0953 -0.8726 -0.4790
vn -0.0000 -0.8488 -0.5288
vn -0.0000 -0.8727 -0.4883
vn 0.0953 -0.8726 -0.4790
vn 0.1032 -0.8487 -0.5187
vn -0.0000 -0.8025 -0.5967
vn 0.1164 -0.8025 -0.5852
vn -0.1164 -0.8025 -0.5852
vn -0.0000 -0.7220 -0.6919
vn 0.1350 -0.7220 -0.6786
vn -0.1350 -0.7220 -0.6786
vn -0.2648 -0.7220 -0.6392
vn -0.2283 -0.8025 -0.5512
vn -0.3844 -0.7220 -0.5753
vn -0.3315 -0.8025 -0.4961
vn -0.4892 -0.7220 -0.4892
vn -0.4219 -0.8025 -0.4219
vn -0.5750 -0.7221 -0.3845
vn -0.4961 -0.8025 -0.3315
vn -0.4397 -0.8487 -0.2938
vn -0.4885 -0.8488 -0.2024
vn -0.5509 -0.8027 -0.2285
vn -0.4790 -0.8727 -0.0950
vn -0.5186 -0.8488 -0.1029
vn -0.5844 -0.8031 -0.1163
vn -0.6380 -0.7228 -0.2653
vn -0.6761 -0.7243 -0.1356
vn -0.6878 -0.7259 -0.0005
vn -0.5951 -0.8037 0.0003
vn -0.5285 -0.8489 0.0006
vn -0.6735 -0.7269 0.1339
vn -0.5831 -0.8040 0.1161
vn -0.5182 -0.8490 0.1034
vn -0.4882 -0.8727 0.0007
vn -0.4788 -0.8727 0.0956
vn -0.4881 -0.8491 0.2022
vn -0.5493 -0.8040 0.2278
vn -0.4510 -0.8727 0.1868
vn -0.4376 -0.8807 0.1812
vn -0.4645 -0.8807 0.0928
vn -0.4736 -0.8807 0.0007
vn -0.5841 -0.7748 0.2420
vn -0.6202 -0.7746 0.1239
vn -0.6322 -0.7748 0.0010
vn -0.9146 -0.4044 0.0015
vn -0.8969 -0.4042 0.1792
vn -0.8450 -0.4044 0.3500
vn -0.5259 -0.7746 0.3514
vn -0.3939 -0.8807 0.2632
vn -0.7605 -0.4042 0.5082
vn -0.6467 -0.4043 0.6467
vn -0.4471 -0.7748 0.4471
vn -0.5082 -0.4042 0.7605
vn -0.3514 -0.7746 0.5259
vn -0.3349 -0.8807 0.3349
vn -0.2632 -0.8807 0.3939
vn -0.2420 -0.7748 0.5841
vn -0.1812 -0.8807 0.4376
vn -0.3500 -0.4044 0.8450
vn -0.1234 -0.7746 0.6203
vn -0.0924 -0.8807 0.4646
vn -0.1784 -0.4042 0.8971
vn -0.0000 -0.4044 0.9146
vn -0.0000 -0.7748 0.6322
vn 0.1784 -0.4042 0.8971
vn 0.1234 -0.7746 0.6203
vn -0.0000 -0.8807 0.4736
vn 0.0924 -0.8807 0.4646
vn 0.2419 -0.7748 0.5841
vn 0.1812 -0.8807 0.4376
vn 0.3500 -0.4044 0.8450
vn 0.3514 -0.7746 0.5259
vn 0.2632 -0.8807 0.3939
vn 0.5082 -0.4042 0.7605
vn 0.6467 -0.4043 0.6467
vn 0.4471 -0.7747 0.4471
vn 0.7605 -0.4042 0.5082
vn 0.5259 -0.7746 0.3514
vn 0.3349 -0.8807 0.3349
vn 0.3939 -0.8807 0.2632
vn 0.5841 -0.7748 0.2420
vn 0.4376 -0.8807 0.1812
vn 0.8450 -0.4044 0.3500
vn 0.6203 -0.7745 0.1239
vn 0.4645 -0.8807 0.0928
vn 0.8969 -0.4042 0.1792
vn 0.9146 -0.4044 0.0015
vn 0.6322 -0.7748 0.0010
vn 0.8972 -0.4043 -0.1777
vn 0.6203 -0.7747 -0.1229
vn 0.4736 -0.8807 0.0007
vn 0.4646 -0.8807 -0.0921
vn 0.5841 -0.7748 -0.2419
vn 0.4376 -0.8807 -0.1812
vn 0.8450 -0.4044 -0.3500
vn 0.5259 -0.7746 -0.3514
vn 0.3939 -0.8807 -0.2632
vn 0.7605 -0.4042 -0.5082
vn 0.6467 -0.4044 -0.6467
vn 0.4471 -0.7748 -0.4471
vn 0.5082 -0.4042 -0.7605
vn 0.3514 -0.7746 -0.5259
vn 0.3349 -0.8807 -0.3349
vn 0.2632 -0.8807 -0.3939
vn 0.2420 -0.7747 -0.5841
vn 0.1812 -0.8807 -0.4376
vn 0.3500 -0.4043 -0.8450
vn 0.1869 -0.8727 -0.4511
vn 0.2713 -0.8726 -0.4061
vn 0.2024 -0.8488 -0.4885
vn 0.2938 -0.8487 -0.4397
vn 0.3453 -0.8727 -0.3453
vn 0.3739 -0.8488 -0.3739
vn 0.4397 -0.8487 -0.2938
vn 0.4061 -0.8726 -0.2713
vn 0.4511 -0.8727 -0.1869
vn 0.4885 -0.8488 -0.2024
vn 0.5187 -0.8487 -0.1028
vn 0.4790 -0.8726 -0.0949
vn 0.4883 -0.8727 0.0007
vn 0.5288 -0.8488 0.0007
vn 0.5186 -0.8487 0.1036
vn 0.4789 -0.8726 0.0957
vn 0.4511 -0.8727 0.1869
vn 0.4885 -0.8488 0.2024
vn 0.4397 -0.8487 0.2938
vn 0.4061 -0.8726 0.2713
vn 0.3453 -0.8727 0.3453
vn 0.3739 -0.8488 0.3739
vn 0.2938 -0.8487 0.4397
vn 0.2713 -0.8726 0.4061
vn 0.1869 -0.8727 0.4511
vn 0.2024 -0.8488 0.4885
vn 0.1032 -0.8487 0.5186
vn 0.0953 -0.8726 0.4790
vn -0.0000 -0.8727 0.4883
vn -0.0000 -0.8488 0.5288
vn -0.1032 -0.8487 0.5187
vn -0.0953 -0.8726 0.4790
vn -0.1869 -0.8727 0.4511
vn -0.2024 -0.8488 0.4885
vn -0.2938 -0.8488 0.4397
vn -0.2713 -0.8726 0.4061
vn -0.3452 -0.8727 0.3453
vn -0.3737 -0.8488 0.3739
vn -0.4393 -0.8489 0.2938
vn -0.4060 -0.8727 0.2713
vn -0.4212 -0.8029 0.4219
vn -0.4946 -0.8035 0.3313
vn -0.5716 -0.7250 0.3843
vn -0.6344 -0.7266 0.2637
vn -0.4874 -0.7232 0.4894
vn -0.6407 -0.6343 0.4326
vn -0.7113 -0.6372 0.2966
vn -0.7555 -0.6378 0.1498
vn -0.7715 -0.6362 -0.0017
vn -0.8072 -0.5683 0.1597
vn -0.8242 -0.5663 -0.0031
vn -0.7595 -0.5676 0.3178
vn -0.8099 -0.5627 -0.1657
vn -0.7585 -0.6333 -0.1536
vn -0.7645 -0.5595 -0.3203
vn -0.7161 -0.6308 -0.2989
vn -0.6895 -0.5579 -0.4618
vn -0.6458 -0.6295 -0.4321
vn -0.5869 -0.5577 -0.5869
vn -0.5495 -0.6293 -0.5495
vn -0.4612 -0.5577 -0.6902
vn -0.4318 -0.6293 -0.6462
vn -0.3176 -0.5577 -0.7668
vn -0.2974 -0.6293 -0.7180
vn -0.1619 -0.5577 -0.8141
vn -0.1516 -0.6293 -0.7623
vn -0.0000 -0.5577 -0.8300
vn -0.0000 -0.6293 -0.7772
vn 0.1516 -0.6293 -0.7623
vn 0.1619 -0.5577 -0.8141
vn -0.0000 -0.5134 -0.8581
vn 0.1674 -0.5134 -0.8417
vn -0.1674 -0.5134 -0.8417
vn -0.0000 -0.4989 -0.8666
vn 0.1691 -0.4989 -0.8500
vn -0.1691 -0.4989 -0.8500
vn -0.3317 -0.4989 -0.8007
vn -0.3284 -0.5134 -0.7928
vn -0.4815 -0.4989 -0.7206
vn -0.4768 -0.5134 -0.7135
vn -0.6128 -0.4989 -0.6128
vn -0.6068 -0.5134 -0.6068
vn -0.7197 -0.4991 -0.4826
vn -0.7127 -0.5137 -0.4776
vn -0.7974 -0.5009 -0.3366
vn -0.7900 -0.5153 -0.3322
vn -0.8453 -0.5043 -0.1766
vn -0.8372 -0.5188 -0.1731
vn -0.8611 -0.5084 -0.0058
vn -0.8525 -0.5227 -0.0044
vn -0.8436 -0.5105 0.1663
vn -0.8350 -0.5249 0.1650
vn -0.7928 -0.5097 0.3342
vn -0.7852 -0.5241 0.3298
vn -0.7116 -0.5058 0.4877
vn -0.7056 -0.5202 0.4811
vn -0.6834 -0.5640 0.4636
vn -0.5828 -0.5601 0.5887
vn -0.6017 -0.5161 0.6096
vn -0.5465 -0.6312 0.5503
vn -0.4600 -0.5582 0.6905
vn -0.4310 -0.6297 0.6464
vn -0.3839 -0.7222 0.5753
vn -0.3313 -0.8025 0.4961
vn -0.2647 -0.7221 0.6392
vn -0.2973 -0.6294 0.7180
vn -0.2283 -0.8025 0.5512
vn -0.1350 -0.7220 0.6786
vn -0.1164 -0.8025 0.5852
vn -0.0000 -0.7220 0.6919
vn -0.0000 -0.8025 0.5967
vn 0.1350 -0.7220 0.6786
vn 0.1164 -0.8025 0.5852
vn 0.2648 -0.7220 0.6392
vn 0.2283 -0.8025 0.5513
vn 0.3844 -0.7220 0.5753
vn 0.3315 -0.8025 0.4961
vn 0.4892 -0.7220 0.4892
vn 0.4219 -0.8025 0.4219
vn 0.5753 -0.7220 0.3844
vn 0.4961 -0.8025 0.3315
vn 0.6392 -0.7220 0.2648
vn 0.5512 -0.8025 0.2283
vn 0.5851 -0.8025 0.1168
vn 0.6785 -0.7220 0.1355
vn 0.6919 -0.7220 0.0010
vn 0.5967 -0.8025 0.0008
vn 0.6787 -0.7220 -0.1345
vn 0.5853 -0.8025 -0.1160
vn 0.6392 -0.7220 -0.2648
vn 0.5512 -0.8025 -0.2283
vn 0.4961 -0.8025 -0.3315
vn 0.5753 -0.7220 -0.3844
vn 0.4892 -0.7220 -0.4892
vn 0.4219 -0.8025 -0.4219
vn 0.3844 -0.7220 -0.5753
vn 0.3315 -0.8025 -0.4961
vn 0.2648 -0.7220 -0.6392
vn 0.2283 -0.8025 -0.5512
vn 0.2974 -0.6293 -0.7180
vn 0.4318 -0.6293 -0.6462
vn 0.3176 -0.5577 -0.7668
vn 0.4612 -0.5577 -0.6902
vn 0.5869 -0.5577 -0.5869
vn 0.5495 -0.6293 -0.5495
vn 0.6902 -0.5577 -0.4612
vn 0.6462 -0.6293 -0.4318
vn 0.7668 -0.5577 -0.3176
vn 0.7180 -0.6293 -0.2974
vn 0.8142 -0.5577 -0.1613
vn 0.7624 -0.6292 -0.1511
vn 0.8300 -0.5577 0.0012
vn 0.7771 -0.6293 0.0011
vn 0.8140 -0.5577 0.1626
vn 0.7621 -0.6293 0.1522
vn 0.7668 -0.5577 0.3176
vn 0.7180 -0.6293 0.2974
vn 0.6902 -0.5577 0.4612
vn 0.6462 -0.6293 0.4318
vn 0.5869 -0.5577 0.5869
vn 0.5495 -0.6293 0.5495
vn 0.4612 -0.5577 0.6902
vn 0.4318 -0.6293 0.6462
vn 0.3176 -0.5577 0.7668
vn 0.2974 -0.6293 0.7180
vn 0.1619 -0.5577 0.8141
vn 0.1516 -0.6293 0.7623
vn -0.0000 -0.5577 0.8300
vn -0.0000 -0.6293 0.7772
vn -0.1619 -0.5577 0.8141
vn -0.1516 -0.6293 0.7623
vn -0.3175 -0.5578 0.7668
vn -0.1674 -0.5134 0.8417
vn -0.3282 -0.5135 0.7928
vn -0.4752 -0.5139 0.7142
vn -0.3314 -0.4990 0.8007
vn -0.4796 -0.4994 0.7215
vn -0.1690 -0.4988 0.8500
vn -0.6066 -0.5016 0.6168
vn -0.0000 -0.4989 0.8667
vn -0.0000 -0.5134 0.8581
vn 0.1691 -0.4988 0.8500
vn 0.1674 -0.5134 0.8417
vn 0.3316 -0.4989 0.8007
vn 0.3284 -0.5134 0.7928
vn 0.4815 -0.4989 0.7206
vn 0.4768 -0.5134 0.7135
vn 0.6128 -0.4989 0.6128
vn 0.6068 -0.5134 0.6068
vn 0.7206 -0.4989 0.4815
vn 0.7135 -0.5134 0.4768
vn 0.8007 -0.4989 0.3316
vn 0.7928 -0.5134 0.3284
vn 0.8499 -0.4989 0.1698
vn 0.8415 -0.5134 0.1681
vn 0.8666 -0.4989 0.0015
vn 0.8581 -0.5134 0.0014
vn 0.8418 -0.5134 -0.1668
vn 0.8502 -0.4988 -0.1684
vn 0.8007 -0.4989 -0.3316
vn 0.7928 -0.5134 -0.3284
vn 0.7206 -0.4989 -0.4815
vn 0.7135 -0.5134 -0.4768
vn 0.6128 -0.4989 -0.6128
vn 0.6068 -0.5134 -0.6068
vn 0.4815 -0.4989 -0.7206
vn 0.4768 -0.5134 -0.7135
vn 0.3317 -0.4989 -0.8007
vn 0.3284 -0.5134 -0.7928
vt 0.532659 0.943781
vt 0.532659 0.944337
vt 0.529124 0.944337
vt 0.529124 0.943771
vt 0.536184 0.943781
vt 0.536184 0.944347
vt 0.451281 0.697391
vt 0.451281 0.697037
vt 0.454654 0.697350
vt 0.454583 0.697714
vt 0.447988 0.697744
vt 0.447907 0.697391
vt 0.451271 0.695805
vt 0.454886 0.696148
vt 0.447665 0.696199
vt 0.444676 0.698401
vt 0.444201 0.697259
vt 0.444817 0.698734
vt 0.441706 0.700016
vt 0.441020 0.699007
vt 0.441908 0.700309
vt 0.525589 0.944337
vt 0.525589 0.943771
vt 0.522075 0.944327
vt 0.522075 0.943761
vt 0.439353 0.702430
vt 0.439091 0.702168
vt 0.518540 0.944317
vt 0.518550 0.943751
vt 0.522045 0.959990
vt 0.518500 0.959980
vt 0.525569 0.959990
vt 0.515016 0.944306
vt 0.515016 0.943751
vt 0.514965 0.959970
vt 0.529104 0.960001
vt 0.532639 0.960001
vt 0.536184 0.960001
vt 0.539708 0.944347
vt 0.543243 0.944337
vt 0.543253 0.960001
vt 0.539718 0.960001
vt 0.546768 0.944337
vt 0.546788 0.960001
vt 0.550292 0.944327
vt 0.550322 0.959990
vt 0.553827 0.944327
vt 0.557352 0.944317
vt 0.557392 0.959970
vt 0.553857 0.959980
vt 0.560937 0.944306
vt 0.560927 0.959960
vt 0.564421 0.944286
vt 0.564472 0.959950
vt 0.567946 0.944276
vt 0.571460 0.944256
vt 0.571541 0.959920
vt 0.568006 0.959930
vt 0.574995 0.944246
vt 0.575076 0.959910
vt 0.578530 0.944226
vt 0.578610 0.959889
vt 0.582054 0.944205
vt 0.585589 0.944185
vt 0.585680 0.959849
vt 0.582145 0.959869
vt 0.589114 0.944165
vt 0.589215 0.959799
vt 0.476194 0.944104
vt 0.479719 0.944125
vt 0.479598 0.959789
vt 0.476073 0.959748
vt 0.483253 0.944155
vt 0.486778 0.944165
vt 0.486677 0.959829
vt 0.483132 0.959799
vt 0.490313 0.944195
vt 0.490222 0.959849
vt 0.493838 0.944215
vt 0.493747 0.959879
vt 0.497372 0.944236
vt 0.500887 0.944246
vt 0.500816 0.959920
vt 0.497281 0.959900
vt 0.504371 0.944266
vt 0.504361 0.959920
vt 0.507946 0.944276
vt 0.507896 0.959940
vt 0.511481 0.944296
vt 0.511420 0.959950
vt 0.511481 0.943741
vt 0.507946 0.943721
vt 0.435384 0.707793
vt 0.435717 0.707935
vt 0.434768 0.711116
vt 0.434425 0.711035
vt 0.436970 0.704804
vt 0.437263 0.705016
vt 0.434233 0.707339
vt 0.435940 0.704127
vt 0.433223 0.710813
vt 0.438222 0.701309
vt 0.436081 0.699198
vt 0.433425 0.702471
vt 0.431455 0.706198
vt 0.439333 0.696492
vt 0.443029 0.694482
vt 0.433243 0.696391
vt 0.437101 0.693210
vt 0.441494 0.690816
vt 0.446261 0.689341
vt 0.447059 0.693240
vt 0.451240 0.688836
vt 0.451261 0.692795
vt 0.455452 0.693189
vt 0.456199 0.689291
vt 0.451210 0.684696
vt 0.456997 0.685231
vt 0.445433 0.685302
vt 0.451190 0.680484
vt 0.457795 0.681100
vt 0.444605 0.681171
vt 0.438262 0.683120
vt 0.439888 0.686998
vt 0.432445 0.686291
vt 0.434788 0.689786
vt 0.427335 0.690513
vt 0.430314 0.693482
vt 0.423154 0.695674
vt 0.426668 0.697997
vt 0.430102 0.700269
vt 0.427769 0.704693
vt 0.423941 0.703137
vt 0.430254 0.710247
vt 0.426345 0.709490
vt 0.422295 0.708702
vt 0.420053 0.701531
vt 0.418164 0.707904
vt 0.417548 0.714600
vt 0.421740 0.714570
vt 0.425880 0.714550
vt 0.418235 0.721114
vt 0.422346 0.720266
vt 0.426396 0.719438
vt 0.429850 0.714509
vt 0.430294 0.718650
vt 0.427870 0.724215
vt 0.424063 0.725831
vt 0.431546 0.722670
vt 0.434324 0.721498
vt 0.433243 0.718034
vt 0.432869 0.714479
vt 0.435465 0.721024
vt 0.434465 0.717782
vt 0.434101 0.714469
vt 0.434465 0.714469
vt 0.434808 0.717711
vt 0.435788 0.720872
vt 0.437081 0.723993
vt 0.436061 0.724680
vt 0.437374 0.723791
vt 0.497372 0.943680
vt 0.500897 0.943690
vt 0.493838 0.943660
vt 0.439495 0.726336
vt 0.439242 0.726588
vt 0.490323 0.943640
vt 0.486788 0.943620
vt 0.442070 0.728427
vt 0.441868 0.728719
vt 0.438374 0.727467
vt 0.441201 0.729750
vt 0.444878 0.730305
vt 0.444413 0.731436
vt 0.444999 0.729972
vt 0.448120 0.731264
vt 0.447887 0.732466
vt 0.448190 0.730911
vt 0.483253 0.943599
vt 0.479719 0.943569
vt 0.451493 0.731224
vt 0.451493 0.731578
vt 0.476194 0.943539
vt 0.589124 0.943609
vt 0.585589 0.943630
vt 0.454785 0.730860
vt 0.454856 0.731224
vt 0.451503 0.732810
vt 0.455108 0.732416
vt 0.458098 0.730214
vt 0.458573 0.731345
vt 0.457946 0.729891
vt 0.461057 0.728588
vt 0.461754 0.729608
vt 0.460865 0.728305
vt 0.582054 0.943650
vt 0.578520 0.943670
vt 0.463420 0.726184
vt 0.463673 0.726447
vt 0.574995 0.943680
vt 0.571460 0.943700
vt 0.465491 0.723609
vt 0.465804 0.723811
vt 0.464552 0.727306
vt 0.466824 0.724478
vt 0.467379 0.720811
vt 0.468521 0.721276
vt 0.467046 0.720690
vt 0.468339 0.717570
vt 0.469551 0.717802
vt 0.467985 0.717499
vt 0.567946 0.943721
vt 0.564411 0.943731
vt 0.468298 0.714257
vt 0.468652 0.714257
vt 0.560937 0.943751
vt 0.557352 0.943751
vt 0.467945 0.710914
vt 0.468309 0.710833
vt 0.469874 0.714257
vt 0.469500 0.710581
vt 0.467309 0.707601
vt 0.468430 0.707127
vt 0.466965 0.707743
vt 0.465683 0.704622
vt 0.466693 0.703935
vt 0.465390 0.704824
vt 0.553827 0.943761
vt 0.550292 0.943761
vt 0.463269 0.702269
vt 0.463521 0.702016
vt 0.546768 0.943771
vt 0.543243 0.943771
vt 0.460683 0.700188
vt 0.460896 0.699885
vt 0.464390 0.701148
vt 0.461562 0.698865
vt 0.457896 0.698310
vt 0.458361 0.697179
vt 0.457765 0.698643
vt 0.539708 0.943781
vt 0.459502 0.694381
vt 0.463228 0.696350
vt 0.460997 0.690705
vt 0.465420 0.693028
vt 0.466501 0.699007
vt 0.469308 0.696169
vt 0.472490 0.700006
vt 0.469197 0.702249
vt 0.471207 0.705955
vt 0.474873 0.704400
vt 0.476348 0.709167
vt 0.472459 0.709975
vt 0.472894 0.714237
vt 0.476873 0.714216
vt 0.476418 0.719125
vt 0.472520 0.718367
vt 0.471308 0.722407
vt 0.474984 0.723902
vt 0.472672 0.728325
vt 0.469339 0.726134
vt 0.466693 0.729416
vt 0.469531 0.732214
vt 0.465693 0.735395
vt 0.463451 0.732103
vt 0.459744 0.734123
vt 0.461299 0.737779
vt 0.456533 0.739253
vt 0.455714 0.735365
vt 0.451523 0.735819
vt 0.451553 0.739788
vt 0.446584 0.739334
vt 0.447332 0.735425
vt 0.443272 0.734234
vt 0.441787 0.737920
vt 0.437364 0.735597
vt 0.439545 0.732274
vt 0.436253 0.729618
vt 0.433465 0.732456
vt 0.430274 0.728608
vt 0.433566 0.726376
vt 0.430577 0.735395
vt 0.426850 0.730941
vt 0.423376 0.733284
vt 0.420194 0.727457
vt 0.427618 0.738385
vt 0.419871 0.735668
vt 0.416306 0.729083
vt 0.414104 0.721942
vt 0.413307 0.714630
vt 0.409873 0.722791
vt 0.408984 0.714651
vt 0.412337 0.730760
vt 0.409731 0.706218
vt 0.414003 0.707066
vt 0.412074 0.698239
vt 0.416124 0.699905
vt 0.415963 0.690876
vt 0.419599 0.693310
vt 0.421204 0.684423
vt 0.424315 0.687503
vt 0.427618 0.679121
vt 0.430062 0.682746
vt 0.434940 0.675162
vt 0.436626 0.679191
vt 0.442888 0.672697
vt 0.443757 0.677000
vt 0.451160 0.671839
vt 0.451180 0.676222
vt 0.458603 0.676919
vt 0.459441 0.672616
vt 0.451149 0.667324
vt 0.460310 0.668173
vt 0.441999 0.668274
vt 0.451139 0.662679
vt 0.461198 0.663628
vt 0.441070 0.663729
vt 0.431405 0.666698
vt 0.433203 0.670980
vt 0.422507 0.671516
vt 0.425093 0.675364
vt 0.414720 0.677949
vt 0.418013 0.681221
vt 0.408348 0.685796
vt 0.412206 0.688372
vt 0.403641 0.694724
vt 0.407903 0.696502
vt 0.400854 0.704420
vt 0.405348 0.705329
vt 0.400005 0.714671
vt 0.404540 0.714671
vt 0.401127 0.724568
vt 0.405540 0.723660
vt 0.404116 0.734254
vt 0.408277 0.732476
vt 0.408843 0.743202
vt 0.412610 0.740627
vt 0.416286 0.738112
vt 0.421568 0.744545
vt 0.418427 0.747757
vt 0.424628 0.741425
vt 0.428042 0.749787
vt 0.430445 0.746121
vt 0.432778 0.742566
vt 0.435101 0.739041
vt 0.438646 0.745636
vt 0.437051 0.749595
vt 0.440242 0.741748
vt 0.445009 0.747525
vt 0.445807 0.743384
vt 0.451624 0.748131
vt 0.451594 0.743919
vt 0.458199 0.747434
vt 0.457361 0.743303
vt 0.464541 0.745474
vt 0.462905 0.741596
vt 0.470359 0.742303
vt 0.467995 0.738819
vt 0.475469 0.738072
vt 0.472459 0.735102
vt 0.479620 0.732911
vt 0.476115 0.730588
vt 0.482731 0.727053
vt 0.478822 0.725457
vt 0.480479 0.719903
vt 0.484589 0.720690
vt 0.485205 0.714186
vt 0.481004 0.714196
vt 0.484518 0.707510
vt 0.480398 0.708349
vt 0.482559 0.701168
vt 0.478671 0.702804
vt 0.475924 0.697704
vt 0.479398 0.695351
vt 0.475166 0.690240
vt 0.472207 0.693230
vt 0.470005 0.686079
vt 0.467692 0.689584
vt 0.464148 0.682979
vt 0.462552 0.686877
vt 0.465764 0.679040
vt 0.472358 0.682524
vt 0.467420 0.674980
vt 0.474782 0.678858
vt 0.481236 0.684100
vt 0.478166 0.687210
vt 0.486548 0.690513
vt 0.482953 0.692957
vt 0.490548 0.697815
vt 0.486488 0.699532
vt 0.493022 0.705773
vt 0.488710 0.706652
vt 0.493840 0.714186
vt 0.489467 0.714176
vt 0.493093 0.722336
vt 0.488780 0.721508
vt 0.490729 0.730325
vt 0.486670 0.728669
vt 0.486851 0.737688
vt 0.483185 0.735264
vt 0.481610 0.744141
vt 0.478489 0.741071
vt 0.475196 0.749474
vt 0.472752 0.745838
vt 0.467884 0.753433
vt 0.466188 0.749393
vt 0.459936 0.755907
vt 0.459068 0.751605
vt 0.451665 0.756786
vt 0.451644 0.752403
vt 0.443383 0.756018
vt 0.444211 0.751706
vt 0.435404 0.753665
vt 0.442514 0.760442
vt 0.433708 0.757836
vt 0.425567 0.753554
vt 0.431960 0.762139
vt 0.423012 0.757432
vt 0.441646 0.765007
vt 0.415195 0.751060
vt 0.451715 0.765936
vt 0.451695 0.761290
vt 0.461774 0.764876
vt 0.460845 0.760321
vt 0.471429 0.761886
vt 0.469642 0.757604
vt 0.480327 0.757049
vt 0.477721 0.753211
vt 0.488114 0.750595
vt 0.484811 0.747333
vt 0.494476 0.742737
vt 0.490608 0.740182
vt 0.499193 0.733799
vt 0.494901 0.732032
vt 0.502071 0.724094
vt 0.497537 0.723195
vt 0.503061 0.714176
vt 0.498395 0.714186
vt 0.497405 0.704885
vt 0.501920 0.703955
vt 0.498981 0.694280
vt 0.494709 0.696078
vt 0.494153 0.685392
vt 0.490305 0.687978
vt 0.487700 0.677606
vt 0.484427 0.680898
vt 0.479842 0.671233
vt 0.477277 0.675101
vt 0.470894 0.666506
vt 0.469137 0.670799
vt 0.504371 0.943710
s 1
f 1/1/1 2/2/2 26/3/3 4/4/4
f 2/2/2 1/1/1 3/5/5 416/6/6
f 1/7/1 5/8/7 6/9/8 3/10/5
f 5/8/7 1/7/1 4/11/4 8/12/9
f 5/8/7 7/13/10 195/14/11 6/9/8
f 7/13/10 5/8/7 8/12/9 9/15/12
f 10/16/13 11/17/14 9/15/12 8/12/9
f 13/18/15 10/16/13 8/12/9 4/11/4
f 11/17/14 10/16/13 12/19/16 85/20/17
f 10/16/13 13/18/15 15/21/18 12/19/16
f 14/22/19 13/23/15 4/4/4 26/3/3
f 13/23/15 14/22/19 17/24/20 15/25/18
f 16/26/21 80/27/22 12/19/16 15/21/18
f 19/28/23 16/29/21 15/25/18 17/24/20
f 19/28/23 17/24/20 18/30/24 21/31/25
f 18/30/24 17/24/20 14/22/19 23/32/26
f 16/29/21 19/28/23 20/33/27 75/34/28
f 22/35/29 20/33/27 19/28/23 21/31/25
f 26/3/3 24/36/30 23/32/26 14/22/19
f 25/37/31 24/36/30 26/3/3 2/2/2
f 2/2/2 416/6/6 27/38/32 25/37/31
f 29/39/33 31/40/34 30/41/35 28/42/36
f 27/38/32 416/6/6 29/39/33 28/42/36
f 30/41/35 31/40/34 33/43/37 32/44/38
f 33/43/37 185/45/39 34/46/40 32/44/38
f 36/47/41 38/48/42 37/49/43 35/50/44
f 34/46/40 185/45/39 36/47/41 35/50/44
f 37/49/43 38/48/42 40/51/45 39/52/46
f 40/51/45 173/53/47 41/54/48 39/52/46
f 43/55/49 45/56/50 44/57/51 42/58/52
f 41/54/48 173/53/47 43/55/49 42/58/52
f 44/57/51 45/56/50 47/59/53 46/60/54
f 47/59/53 161/61/55 48/62/56 46/60/54
f 50/63/57 52/64/58 51/65/59 49/66/60
f 48/62/56 161/61/55 50/63/57 49/66/60
f 51/65/59 52/64/58 54/67/61 53/68/62
f 54/69/61 149/70/63 55/71/64 53/72/62
f 57/73/65 59/74/66 58/75/67 56/76/68
f 55/71/64 149/70/63 57/73/65 56/76/68
f 58/75/67 59/74/66 61/77/69 60/78/70
f 61/77/69 137/79/71 62/80/72 60/78/70
f 64/81/73 66/82/74 65/83/75 63/84/76
f 62/80/72 137/79/71 64/81/73 63/84/76
f 65/83/75 66/82/74 68/85/77 67/86/78
f 68/85/77 72/87/79 69/88/80 67/86/78
f 71/89/81 20/33/27 22/35/29 70/90/82
f 69/88/80 72/87/79 71/89/81 70/90/82
f 73/91/83 71/89/81 72/87/79 74/92/84
f 71/89/81 73/91/83 75/34/28 20/33/27
f 76/93/85 73/94/83 74/95/84 78/96/86
f 73/94/83 76/93/85 79/97/87 75/98/28
f 76/93/85 77/99/88 81/100/89 79/97/87
f 77/99/88 76/93/85 78/96/86 414/101/90
f 80/27/22 16/26/21 75/98/28 79/97/87
f 83/102/91 80/27/22 79/97/87 81/100/89
f 84/103/92 83/102/91 81/100/89 82/104/93
f 77/99/88 111/105/94 82/104/93 81/100/89
f 83/102/91 84/103/92 86/106/95 85/20/17
f 80/27/22 83/102/91 85/20/17 12/19/16
f 88/107/96 11/17/14 85/20/17 86/106/95
f 84/103/92 108/108/97 87/109/98 86/106/95
f 89/110/99 88/107/96 86/106/95 87/109/98
f 89/110/99 91/111/100 90/112/101 88/107/96
f 9/15/12 11/17/14 88/107/96 90/112/101
f 91/111/100 94/113/102 92/114/103 90/112/101
f 7/13/10 9/15/12 90/112/101 92/114/103
f 7/13/10 92/114/103 93/115/104 195/14/11
f 92/114/103 94/113/102 95/116/105 93/115/104
f 95/116/105 94/113/102 96/117/106 97/118/107
f 94/113/102 91/111/100 99/119/108 96/117/106
f 98/120/109 337/121/110 97/118/107 96/117/106
f 100/122/111 98/120/109 96/117/106 99/119/108
f 102/123/112 100/122/111 99/119/108 101/124/113
f 91/111/100 89/110/99 101/124/113 99/119/108
f 104/125/114 102/123/112 101/124/113 103/126/115
f 89/110/99 87/109/98 103/126/115 101/124/113
f 106/127/116 104/125/114 103/126/115 105/128/117
f 87/109/98 108/108/97 105/128/117 103/126/115
f 258/129/118 106/127/116 105/128/117 107/130/119
f 108/108/97 109/131/120 107/130/119 105/128/117
f 108/108/97 84/103/92 82/104/93 109/131/120
f 109/131/120 110/132/121 113/133/122 107/130/119
f 111/105/94 110/132/121 109/131/120 82/104/93
f 110/132/121 111/105/94 415/134/123 112/135/124
f 110/132/121 112/135/124 115/136/125 113/133/122
f 114/137/126 258/129/118 107/130/119 113/133/122
f 116/138/127 114/137/126 113/133/122 115/136/125
f 118/139/128 116/138/127 115/136/125 117/140/129
f 112/135/124 120/141/130 117/140/129 115/136/125
f 246/142/131 118/139/128 117/140/129 119/143/132
f 120/141/130 122/144/133 119/143/132 117/140/129
f 121/145/134 120/141/130 112/135/124 415/134/123
f 120/141/130 121/145/134 124/146/135 122/144/133
f 122/144/133 123/147/136 243/148/137 119/143/132
f 125/149/138 123/147/136 122/144/133 124/146/135
f 127/150/139 125/149/138 124/146/135 126/151/140
f 121/145/134 128/152/141 126/151/140 124/146/135
f 132/153/142 127/150/139 126/151/140 129/154/143
f 128/152/141 130/155/144 129/154/143 126/151/140
f 130/155/144 413/156/145 131/157/146 129/154/143
f 134/158/147 132/153/142 129/154/143 131/157/146
f 127/150/139 132/153/142 133/159/148 238/160/149
f 132/153/142 134/158/147 135/161/150 133/159/148
f 64/81/73 134/162/147 131/163/146 66/82/74
f 134/162/147 64/81/73 137/79/71 135/164/150
f 136/165/151 139/166/152 133/159/148 135/161/150
f 61/77/69 136/167/151 135/164/150 137/79/71
f 136/167/151 61/77/69 59/74/66 138/168/153
f 139/166/152 136/165/151 138/169/153 141/170/154
f 139/166/152 140/171/155 238/160/149 133/159/148
f 140/171/155 139/166/152 141/170/154 142/172/156
f 143/173/157 144/174/158 142/172/156 141/170/154
f 146/175/159 143/173/157 141/170/154 138/169/153
f 144/174/158 143/173/157 145/176/160 229/177/161
f 143/173/157 146/175/159 147/178/162 145/176/160
f 57/73/65 146/179/159 138/168/153 59/74/66
f 146/179/159 57/73/65 149/70/63 147/180/162
f 148/181/163 151/182/164 145/176/160 147/178/162
f 54/69/61 148/183/163 147/180/162 149/70/63
f 148/184/163 54/67/61 52/64/58 150/185/165
f 151/182/164 148/181/163 150/186/165 153/187/166
f 151/182/164 152/188/167 229/177/161 145/176/160
f 152/188/167 151/182/164 153/187/166 154/189/168
f 155/190/169 156/191/170 154/189/168 153/187/166
f 158/192/171 155/190/169 153/187/166 150/186/165
f 156/191/170 155/190/169 157/193/172 220/194/173
f 155/190/169 158/192/171 159/195/174 157/193/172
f 50/63/57 158/196/171 150/185/165 52/64/58
f 158/196/171 50/63/57 161/61/55 159/197/174
f 160/198/175 163/199/176 157/193/172 159/195/174
f 47/59/53 160/200/175 159/197/174 161/61/55
f 160/200/175 47/59/53 45/56/50 162/201/177
f 163/199/176 160/198/175 162/202/177 165/203/178
f 163/199/176 164/204/179 220/194/173 157/193/172
f 164/204/179 163/199/176 165/203/178 166/205/180
f 167/206/181 168/207/182 166/205/180 165/203/178
f 170/208/183 167/206/181 165/203/178 162/202/177
f 168/207/182 167/206/181 169/209/184 211/210/185
f 167/206/181 170/208/183 171/211/186 169/209/184
f 43/55/49 170/212/183 162/201/177 45/56/50
f 170/212/183 43/55/49 173/53/47 171/213/186
f 172/214/187 175/215/188 169/209/184 171/211/186
f 40/51/45 172/216/187 171/213/186 173/53/47
f 172/216/187 40/51/45 38/48/42 174/217/189
f 175/215/188 172/214/187 174/218/189 177/219/190
f 175/215/188 176/220/191 211/210/185 169/209/184
f 176/220/191 175/215/188 177/219/190 178/221/192
f 179/222/193 180/223/194 178/221/192 177/219/190
f 182/224/195 179/222/193 177/219/190 174/218/189
f 180/223/194 179/222/193 181/225/196 202/226/197
f 179/222/193 182/224/195 183/227/198 181/225/196
f 36/47/41 182/228/195 174/217/189 38/48/42
f 182/228/195 36/47/41 185/45/39 183/229/198
f 184/230/199 187/231/200 181/225/196 183/227/198
f 33/43/37 184/232/199 183/229/198 185/45/39
f 184/232/199 33/43/37 31/40/34 186/233/201
f 187/231/200 184/230/199 186/234/201 189/235/202
f 187/231/200 188/236/203 202/226/197 181/225/196
f 188/236/203 187/231/200 189/235/202 190/237/204
f 191/238/205 192/239/206 190/237/204 189/235/202
f 193/240/207 191/238/205 189/235/202 186/234/201
f 192/239/206 191/238/205 6/9/8 195/14/11
f 191/238/205 193/240/207 3/10/5 6/9/8
f 29/39/33 193/241/207 186/233/201 31/40/34
f 193/241/207 29/39/33 416/6/6 3/5/5
f 192/239/206 194/242/208 197/243/209 190/237/204
f 194/242/208 192/239/206 195/14/11 93/115/104
f 194/242/208 196/244/210 198/245/211 197/243/209
f 196/244/210 194/242/208 93/115/104 95/116/105
f 199/246/212 188/236/203 190/237/204 197/243/209
f 200/247/213 199/246/212 197/243/209 198/245/211
f 199/246/212 200/247/213 203/248/214 201/249/215
f 188/236/203 199/246/212 201/249/215 202/226/197
f 204/250/216 180/223/194 202/226/197 201/249/215
f 205/251/217 204/250/216 201/249/215 203/248/214
f 205/251/217 207/252/218 206/253/219 204/250/216
f 180/223/194 204/250/216 206/253/219 178/221/192
f 208/254/220 176/220/191 178/221/192 206/253/219
f 209/255/221 208/254/220 206/253/219 207/252/218
f 209/255/221 212/256/222 210/257/223 208/254/220
f 176/220/191 208/254/220 210/257/223 211/210/185
f 213/258/224 168/207/182 211/210/185 210/257/223
f 214/259/225 213/258/224 210/257/223 212/256/222
f 213/258/224 214/259/225 216/260/226 215/261/227
f 168/207/182 213/258/224 215/261/227 166/205/180
f 217/262/228 164/204/179 166/205/180 215/261/227
f 218/263/229 217/262/228 215/261/227 216/260/226
f 217/262/228 218/263/229 221/264/230 219/265/231
f 164/204/179 217/262/228 219/265/231 220/194/173
f 222/266/232 156/191/170 220/194/173 219/265/231
f 223/267/233 222/266/232 219/265/231 221/264/230
f 222/266/232 223/267/233 225/268/234 224/269/235
f 156/191/170 222/266/232 224/269/235 154/189/168
f 226/270/236 152/188/167 154/189/168 224/269/235
f 227/271/237 226/270/236 224/269/235 225/268/234
f 226/270/236 227/271/237 230/272/238 228/273/239
f 152/188/167 226/270/236 228/273/239 229/177/161
f 231/274/240 144/174/158 229/177/161 228/273/239
f 232/275/241 231/274/240 228/273/239 230/272/238
f 231/274/240 232/275/241 234/276/242 233/277/243
f 144/174/158 231/274/240 233/277/243 142/172/156
f 235/278/244 140/171/155 142/172/156 233/277/243
f 236/279/245 235/278/244 233/277/243 234/276/242
f 235/278/244 236/279/245 239/280/246 237/281/247
f 140/171/155 235/278/244 237/281/247 238/160/149
f 125/149/138 127/150/139 238/160/149 237/281/247
f 123/147/136 125/149/138 237/281/247 239/280/246
f 239/280/246 236/279/245 242/282/248 240/283/249
f 123/147/136 239/280/246 240/283/249 243/148/137
f 241/284/250 244/285/251 243/148/137 240/283/249
f 300/286/252 241/284/250 240/283/249 242/282/248
f 244/285/251 246/142/131 119/143/132 243/148/137
f 244/285/251 241/284/250 297/287/253 245/288/254
f 246/142/131 244/285/251 245/288/254 247/289/255
f 118/139/128 246/142/131 247/289/255 249/290/256
f 248/291/257 250/292/258 249/290/256 247/289/255
f 294/293/259 248/291/257 247/289/255 245/288/254
f 250/292/258 252/294/260 251/295/261 249/290/256
f 116/138/127 118/139/128 249/290/256 251/295/261
f 252/294/260 254/296/262 253/297/263 251/295/261
f 114/137/126 116/138/127 251/295/261 253/297/263
f 254/296/262 256/298/264 255/299/265 253/297/263
f 258/129/118 114/137/126 253/297/263 255/299/265
f 256/298/264 259/300/266 257/301/267 255/299/265
f 106/127/116 258/129/118 255/299/265 257/301/267
f 259/300/266 261/302/268 260/303/269 257/301/267
f 104/125/114 106/127/116 257/301/267 260/303/269
f 261/302/268 263/304/270 262/305/271 260/303/269
f 102/123/112 104/125/114 260/303/269 262/305/271
f 263/304/270 265/306/272 264/307/273 262/305/271
f 100/122/111 102/123/112 262/305/271 264/307/273
f 265/306/272 268/308/274 266/309/275 264/307/273
f 98/120/109 100/122/111 264/307/273 266/309/275
f 337/121/110 98/120/109 266/309/275 267/310/276
f 268/308/274 269/311/277 267/310/276 266/309/275
f 269/311/277 268/308/274 270/312/278 271/313/279
f 268/308/274 265/306/272 273/314/280 270/312/278
f 272/315/281 412/316/282 271/313/279 270/312/278
f 274/317/283 272/315/281 270/312/278 273/314/280
f 276/318/284 274/317/283 273/314/280 275/319/285
f 265/306/272 263/304/270 275/319/285 273/314/280
f 278/320/286 276/318/284 275/319/285 277/321/287
f 263/304/270 261/302/268 277/321/287 275/319/285
f 280/322/288 278/320/286 277/321/287 279/323/289
f 261/302/268 259/300/266 279/323/289 277/321/287
f 282/324/290 280/322/288 279/323/289 281/325/291
f 259/300/266 256/298/264 281/325/291 279/323/289
f 284/326/292 282/324/290 281/325/291 283/327/293
f 256/298/264 254/296/262 283/327/293 281/325/291
f 286/328/294 284/326/292 283/327/293 285/329/295
f 254/296/262 252/294/260 285/329/295 283/327/293
f 288/330/296 286/328/294 285/329/295 287/331/297
f 252/294/260 250/292/258 287/331/297 285/329/295
f 290/332/298 288/330/296 287/331/297 289/333/299
f 250/292/258 248/291/257 289/333/299 287/331/297
f 292/334/300 290/332/298 289/333/299 291/335/301
f 248/291/257 294/293/259 291/335/301 289/333/299
f 380/336/302 292/334/300 291/335/301 293/337/303
f 294/293/259 295/338/304 293/337/303 291/335/301
f 295/338/304 294/293/259 245/288/254 297/287/253
f 295/338/304 296/339/305 378/340/306 293/337/303
f 296/339/305 295/338/304 297/287/253 298/341/307
f 241/284/250 300/286/252 298/341/307 297/287/253
f 372/342/308 296/339/305 298/341/307 299/343/309
f 300/286/252 301/344/310 299/343/309 298/341/307
f 301/344/310 300/286/252 242/282/248 303/345/311
f 301/344/310 302/346/312 370/347/313 299/343/309
f 302/346/312 301/344/310 303/345/311 304/348/314
f 234/276/242 232/275/241 304/348/314 303/345/311
f 236/279/245 234/276/242 303/345/311 242/282/248
f 306/349/315 302/346/312 304/348/314 305/350/316
f 232/275/241 230/272/238 305/350/316 304/348/314
f 308/351/317 306/349/315 305/350/316 307/352/318
f 230/272/238 227/271/237 307/352/318 305/350/316
f 310/353/319 308/351/317 307/352/318 309/354/320
f 227/271/237 225/268/234 309/354/320 307/352/318
f 312/355/321 310/353/319 309/354/320 311/356/322
f 225/268/234 223/267/233 311/356/322 309/354/320
f 314/357/323 312/355/321 311/356/322 313/358/324
f 223/267/233 221/264/230 313/358/324 311/356/322
f 316/359/325 314/357/323 313/358/324 315/360/326
f 221/264/230 218/263/229 315/360/326 313/358/324
f 318/361/327 316/359/325 315/360/326 317/362/328
f 218/263/229 216/260/226 317/362/328 315/360/326
f 320/363/329 318/361/327 317/362/328 319/364/330
f 216/260/226 214/259/225 319/364/330 317/362/328
f 320/363/329 319/364/330 321/365/331 322/366/332
f 212/256/222 321/365/331 319/364/330 214/259/225
f 324/367/333 322/366/332 321/365/331 323/368/334
f 212/256/222 209/255/221 323/368/334 321/365/331
f 326/369/335 324/367/333 323/368/334 325/370/336
f 209/255/221 207/252/218 325/370/336 323/368/334
f 328/371/337 326/369/335 325/370/336 327/372/338
f 207/252/218 205/251/217 327/372/338 325/370/336
f 328/371/337 327/372/338 329/373/339 330/374/340
f 205/251/217 203/248/214 329/373/339 327/372/338
f 332/375/341 330/374/340 329/373/339 331/376/342
f 203/248/214 200/247/213 331/376/342 329/373/339
f 334/377/343 332/375/341 331/376/342 333/378/344
f 200/247/213 198/245/211 333/378/344 331/376/342
f 336/379/345 334/377/343 333/378/344 335/380/346
f 198/245/211 196/244/210 335/380/346 333/378/344
f 337/121/110 336/379/345 335/380/346 97/118/107
f 196/244/210 95/116/105 97/118/107 335/380/346
f 336/379/345 337/121/110 267/310/276 338/381/347
f 334/377/343 336/379/345 338/381/347 340/382/348
f 339/383/349 341/384/350 340/382/348 338/381/347
f 269/311/277 339/383/349 338/381/347 267/310/276
f 341/384/350 343/385/351 342/386/352 340/382/348
f 332/375/341 334/377/343 340/382/348 342/386/352
f 343/385/351 345/387/353 344/388/354 342/386/352
f 330/374/340 332/375/341 342/386/352 344/388/354
f 347/389/355 346/390/356 344/388/354 345/387/353
f 328/371/337 330/374/340 344/388/354 346/390/356
f 347/389/355 349/391/357 348/392/358 346/390/356
f 326/369/335 328/371/337 346/390/356 348/392/358
f 349/391/357 351/393/359 350/394/360 348/392/358
f 324/367/333 326/369/335 348/392/358 350/394/360
f 351/393/359 353/395/361 352/396/362 350/394/360
f 322/366/332 324/367/333 350/394/360 352/396/362
f 353/395/361 355/397/363 354/398/364 352/396/362
f 320/363/329 322/366/332 352/396/362 354/398/364
f 355/397/363 357/399/365 356/400/366 354/398/364
f 318/361/327 320/363/329 354/398/364 356/400/366
f 357/399/365 359/401/367 358/402/368 356/400/366
f 316/359/325 318/361/327 356/400/366 358/402/368
f 359/401/367 361/403/369 360/404/370 358/402/368
f 314/357/323 316/359/325 358/402/368 360/404/370
f 361/403/369 363/405/371 362/406/372 360/404/370
f 312/355/321 314/357/323 360/404/370 362/406/372
f 363/405/371 365/407/373 364/408/374 362/406/372
f 310/353/319 312/355/321 362/406/372 364/408/374
f 365/407/373 367/409/375 366/410/376 364/408/374
f 308/351/317 310/353/319 364/408/374 366/410/376
f 367/409/375 369/411/377 368/412/378 366/410/376
f 306/349/315 308/351/317 366/410/376 368/412/378
f 369/411/377 371/413/379 370/347/313 368/412/378
f 302/346/312 306/349/315 368/412/378 370/347/313
f 371/413/379 372/342/308 299/343/309 370/347/313
f 371/413/379 369/411/377 375/414/380 373/415/381
f 372/342/308 371/413/379 373/415/381 376/416/382
f 374/417/383 377/418/384 376/416/382 373/415/381
f 381/419/385 374/417/383 373/415/381 375/414/380
f 377/418/384 379/420/386 378/340/306 376/416/382
f 296/339/305 372/342/308 376/416/382 378/340/306
f 379/420/386 380/336/302 293/337/303 378/340/306
f 383/421/387 381/419/385 375/414/380 382/422/388
f 369/411/377 367/409/375 382/422/388 375/414/380
f 385/423/389 383/421/387 382/422/388 384/424/390
f 367/409/375 365/407/373 384/424/390 382/422/388
f 387/425/391 385/423/389 384/424/390 386/426/392
f 365/407/373 363/405/371 386/426/392 384/424/390
f 389/427/393 387/425/391 386/426/392 388/428/394
f 363/405/371 361/403/369 388/428/394 386/426/392
f 391/429/395 389/427/393 388/428/394 390/430/396
f 361/403/369 359/401/367 390/430/396 388/428/394
f 393/431/397 391/429/395 390/430/396 392/432/398
f 359/401/367 357/399/365 392/432/398 390/430/396
f 395/433/399 393/431/397 392/432/398 394/434/400
f 357/399/365 355/397/363 394/434/400 392/432/398
f 397/435/401 395/433/399 394/434/400 396/436/402
f 355/397/363 353/395/361 396/436/402 394/434/400
f 399/437/403 397/435/401 396/436/402 398/438/404
f 353/395/361 351/393/359 398/438/404 396/436/402
f 399/437/403 398/438/404 400/439/405 401/440/406
f 349/391/357 400/439/405 398/438/404 351/393/359
f 403/441/407 401/440/406 400/439/405 402/442/408
f 349/391/357 347/389/355 402/442/408 400/439/405
f 405/443/409 403/441/407 402/442/408 404/444/410
f 347/389/355 345/387/353 404/444/410 402/442/408
f 407/445/411 405/443/409 404/444/410 406/446/412
f 345/387/353 343/385/351 406/446/412 404/444/410
f 409/447/413 407/445/411 406/446/412 408/448/414
f 343/385/351 341/384/350 408/448/414 406/446/412
f 411/449/415 409/447/413 408/448/414 410/450/416
f 341/384/350 339/383/349 410/450/416 408/448/414
f 412/316/282 411/449/415 410/450/416 271/313/279
f 339/383/349 269/311/277 271/313/279 410/450/416
f 413/451/145 68/85/77 66/82/74 131/163/146
f 68/85/77 413/451/145 74/92/84 72/87/79
f 413/156/145 130/155/144 78/96/86 74/95/84
f 130/155/144 128/152/141 414/101/90 78/96/86
f 128/152/141 121/145/134 415/134/123 414/101/90
f 111/105/94 77/99/88 414/101/90 415/134/123
