# Blender 4.5.3 LTS
# www.blender.org
o Halo_Infinite.045
v 4.033606 -20.583136 15.169380
v 4.033606 -21.238945 15.169380
v 4.152275 -20.583136 14.776840
v 3.839941 -20.583130 15.530861
v 3.839941 -21.238945 15.530861
v 3.580084 -20.583130 15.848129
v 3.580084 -21.238945 15.848129
v 3.262829 -20.583130 16.107964
v 3.262829 -21.238939 16.107986
v 2.901345 -20.583130 16.301643
v 2.901345 -21.238945 16.301651
v 2.508800 -20.583130 16.420319
v 2.508800 -21.238945 16.420319
v 1.940466 -20.583128 16.481171
v 1.940466 -21.238947 16.481194
v 1.051622 -20.583128 16.501465
v 1.051622 -21.238941 16.501465
v 0.002522 -20.583128 16.501465
v 0.002522 -21.238941 16.501465
v -1.046574 -20.583128 16.501465
v -1.046574 -21.238935 16.501465
v -1.935416 -20.583128 16.481171
v -2.503752 -20.583134 16.420319
v -1.935416 -21.238941 16.481194
v -2.503752 -21.238947 16.420319
v -1.935422 -26.755833 16.481194
v -1.046578 -26.755831 16.501465
v -1.933538 -26.873669 16.442184
v -2.503755 -26.755842 16.420319
v -2.496219 -26.873688 16.382431
v -2.896302 -26.755842 16.301651
v -2.881516 -26.873688 16.265953
v -3.257785 -26.755842 16.107986
v -2.896302 -21.238947 16.301651
v -3.257787 -21.238947 16.107986
v -2.896302 -20.583134 16.301643
v -3.257787 -20.583134 16.107964
v -3.575040 -20.583134 15.848129
v -3.575040 -21.238947 15.848129
v -3.834895 -20.583128 15.530861
v -3.834895 -21.238947 15.530861
v -4.028554 -20.583128 15.169380
v -4.028554 -21.238941 15.169380
v -4.147222 -20.583128 14.776840
v -4.147222 -21.238941 14.776840
v -4.187809 -20.583134 14.368744
v -4.187809 -21.238941 14.368744
v -4.147222 -20.583134 13.960678
v -4.147222 -21.238941 13.960686
v -4.028554 -20.583128 13.568130
v -4.028554 -21.238941 13.568130
v -3.834895 -20.583128 13.206635
v -3.834895 -21.238941 13.206635
v -3.575040 -20.583134 12.889397
v -3.575040 -21.238941 12.889397
v -3.257787 -20.583138 12.629532
v -3.257787 -21.238947 12.629532
v -2.896302 -20.583138 12.435875
v -2.503752 -20.583138 12.317207
v -2.896302 -21.238947 12.435883
v -2.503752 -21.238947 12.317207
v -2.896302 -26.755833 12.435883
v -2.881516 -26.873690 12.471573
v -2.503755 -26.755833 12.317207
v -3.257785 -26.755842 12.629532
v -3.236324 -26.873688 12.661652
v -3.575039 -26.755842 12.889404
v -3.547719 -26.873697 12.916718
v -3.834898 -26.755842 13.206657
v -3.802779 -26.873688 13.228111
v -4.028562 -26.755838 13.568138
v -3.992865 -26.873678 13.582916
v -4.147231 -26.755842 13.960686
v -4.109343 -26.873693 13.968224
v -4.187817 -26.755838 14.368744
v -4.147231 -26.755842 14.776840
v -4.149179 -26.873678 14.368744
v -4.109343 -26.873690 14.769310
v -4.033267 -26.999260 14.368744
v -3.995680 -26.999258 14.746674
v -3.859066 -27.114391 14.368744
v -3.995680 -26.999260 13.990807
v -3.885777 -26.999252 13.627281
v -3.824845 -27.114391 14.024658
v -3.724787 -27.114388 13.693695
v -3.615444 -27.200935 14.065941
v -3.645561 -27.200920 14.368744
v -3.367020 -27.264668 14.112152
v -3.527383 -27.200935 13.774643
v -3.293998 -27.264668 13.865494
v -3.383672 -27.200920 13.506401
v -3.174386 -27.264668 13.638664
v -3.561496 -27.114388 13.388885
v -3.190840 -27.200935 13.270981
v -3.013063 -27.264668 13.441528
v -2.955416 -27.200920 13.078140
v -3.342388 -27.114391 13.121399
v -3.074887 -27.114388 12.902283
v -3.465759 -26.999252 12.998657
v -3.171941 -26.999260 12.758003
v -3.706421 -26.999252 13.292503
v -2.837160 -26.999249 12.578659
v -2.473612 -26.999249 12.468758
v -2.770092 -27.114382 12.738998
v -2.439104 -27.114382 12.638939
v -2.687170 -27.200916 12.934418
v -2.588414 -27.264668 13.168648
v -2.395873 -27.200920 12.846375
v -2.342118 -27.264668 13.097984
v -1.906808 -27.200920 12.801193
v -1.918848 -27.114382 12.587608
v -1.888912 -27.264668 13.061752
v -1.045263 -27.200920 12.786140
v -1.041697 -27.264668 13.049660
v -1.046249 -27.114388 12.570496
v 0.002522 -27.200920 12.786140
v 0.002523 -27.264668 13.049660
v 1.050307 -27.200920 12.786140
v 0.002522 -27.114382 12.570496
v 1.051290 -27.114391 12.570496
v 0.002522 -26.999252 12.393585
v 1.051618 -26.999260 12.393585
v 0.002522 -26.873688 12.275406
v -1.046578 -26.999252 12.393585
v -1.927886 -26.999252 12.412384
v -1.046578 -26.873688 12.275406
v -1.933538 -26.873688 12.295341
v -1.046578 -26.755842 12.236023
v 0.002522 -26.755842 12.236023
v -1.935422 -26.755842 12.256317
v -1.046574 -21.238947 12.236023
v 0.002522 -21.238947 12.236023
v -1.046574 -20.583132 12.236023
v -1.935416 -21.238947 12.256317
v -1.935416 -20.583132 12.256317
v 0.002522 -20.583132 12.236023
v 1.051622 -20.583132 12.236023
v 1.051622 -21.238947 12.236023
v 1.940466 -20.583132 12.256317
v 1.940466 -21.238947 12.256317
v 2.508800 -20.583136 12.317207
v 2.508800 -21.238945 12.317207
v 2.901345 -20.583136 12.435875
v 2.901345 -21.238947 12.435883
v 3.262829 -20.583136 12.629532
v 3.262829 -21.238947 12.629532
v 3.580084 -20.583136 12.889397
v 3.580084 -21.238947 12.889397
v 3.839941 -20.583136 13.206635
v 3.839941 -21.238947 13.206635
v 4.033606 -20.583136 13.568130
v 4.033606 -21.238947 13.568130
v 4.152275 -20.583136 13.960678
v 4.152275 -21.238945 13.960686
v 4.192860 -20.583136 14.368744
v 4.192860 -21.238947 14.368744
v 4.152275 -21.238947 14.776840
v 4.192862 -26.755838 14.368744
v 4.154225 -26.873690 14.368744
v 4.152276 -26.755838 14.776840
v 4.152276 -26.755842 13.960686
v 4.114389 -26.873690 13.968224
v 4.033607 -26.755838 13.568138
v 3.839944 -26.755842 13.206657
v 3.997912 -26.873682 13.582916
v 3.890823 -26.999252 13.627281
v 3.807825 -26.873690 13.228111
v 3.711466 -26.999260 13.292503
v 3.552765 -26.873697 12.916718
v 3.470804 -26.999260 12.998657
v 3.241370 -26.873690 12.661652
v 3.580086 -26.755842 12.889404
v 3.262831 -26.755842 12.629532
v 2.901347 -26.755842 12.435883
v 2.508798 -26.755842 12.317207
v 2.886561 -26.873697 12.471573
v 2.842204 -26.999260 12.578659
v 2.501261 -26.873690 12.355110
v 2.478652 -26.999252 12.468758
v 1.938577 -26.873690 12.295341
v 1.932925 -26.999260 12.412384
v 1.051619 -26.873688 12.275406
v 1.940464 -26.755842 12.256317
v 1.051621 -26.755842 12.236023
v 1.923888 -27.114391 12.587608
v 2.444146 -27.114391 12.638939
v 1.911851 -27.200935 12.801193
v 1.893957 -27.264668 13.061752
v 2.400916 -27.200935 12.846375
v 2.347162 -27.264668 13.097984
v 2.692215 -27.200935 12.934418
v 2.593459 -27.264668 13.168648
v 2.775136 -27.114391 12.738998
v 2.960462 -27.200920 13.078140
v 2.819946 -27.264668 13.284004
v 3.195885 -27.200935 13.270981
v 3.079933 -27.114391 12.902283
v 3.347434 -27.114391 13.121391
v 3.176986 -26.999260 12.758003
v 3.566540 -27.114397 13.388885
v 3.729832 -27.114397 13.693695
v 3.388718 -27.200935 13.506401
v 3.179433 -27.264668 13.638664
v 3.532429 -27.200935 13.774643
v 3.299043 -27.264668 13.865494
v 3.620488 -27.200935 14.065941
v 3.372062 -27.264668 14.112152
v 3.650604 -27.200935 14.368744
v 3.829890 -27.114397 14.024658
v 3.864110 -27.114397 14.368744
v 4.000726 -26.999260 13.990807
v 4.038312 -26.999258 14.368744
v 4.000726 -26.999252 14.746674
v 3.890823 -26.999249 15.110252
v 4.114389 -26.873682 14.769310
v 3.829890 -27.114388 14.712830
v 3.729831 -27.114391 15.043839
v 3.620488 -27.200935 14.671577
v 3.372062 -27.264668 14.625320
v 3.532429 -27.200920 14.962883
v 3.299043 -27.264668 14.872025
v 3.388718 -27.200916 15.231133
v 3.179433 -27.264668 15.098869
v 3.195885 -27.200920 15.466560
v 3.566540 -27.114388 15.348610
v 3.347434 -27.114391 15.616135
v 3.711466 -26.999252 15.445030
v 3.470804 -26.999260 15.738831
v 3.807825 -26.873688 15.509415
v 3.552765 -26.873672 15.820816
v 3.997912 -26.873690 15.154610
v 3.839944 -26.755842 15.530861
v 3.580086 -26.755842 15.848129
v 4.033607 -26.755838 15.169388
v 3.262831 -26.755842 16.107986
v 3.241370 -26.873688 16.075844
v 2.901347 -26.755842 16.301651
v 2.886560 -26.873688 16.265953
v 2.508798 -26.755842 16.420319
v 2.501261 -26.873688 16.382431
v 1.940464 -26.755833 16.481194
v 1.051621 -26.755831 16.501465
v 1.938577 -26.873669 16.442184
v 1.932925 -26.999249 16.325142
v 1.051619 -26.873688 16.462090
v 0.002522 -26.873672 16.462090
v 1.051618 -26.999252 16.343948
v 0.002522 -26.999252 16.343948
v 1.051290 -27.114382 16.167030
v 1.923889 -27.114388 16.149925
v 1.050307 -27.200916 15.951393
v 0.002522 -27.114382 16.167030
v 0.002522 -27.200916 15.951393
v -1.046249 -27.114382 16.167030
v -1.045263 -27.200916 15.951393
v -1.918848 -27.114391 16.149925
v -1.046578 -26.999252 16.343948
v -1.927886 -26.999249 16.325142
v -1.046578 -26.873688 16.462090
v -2.473611 -26.999249 16.268768
v -2.837160 -26.999252 16.158867
v -2.439104 -27.114388 16.098602
v -2.770091 -27.114388 15.998520
v -2.395873 -27.200920 15.891167
v -1.906808 -27.200916 15.936340
v -2.342118 -27.264668 15.639549
v -2.687170 -27.200935 15.803101
v -2.588414 -27.264668 15.568893
v -2.955416 -27.200920 15.659401
v -2.814900 -27.264668 15.453529
v -3.074887 -27.114388 15.835243
v -3.190840 -27.200920 15.466560
v -3.013063 -27.264668 15.296005
v -3.383672 -27.200920 15.231133
v -3.342388 -27.114391 15.616135
v -3.561496 -27.114388 15.348610
v -3.465759 -26.999260 15.738831
v -3.706421 -26.999260 15.445030
v -3.547719 -26.873672 15.820816
v -3.171941 -26.999260 15.979485
v -3.236324 -26.873688 16.075844
v -3.802779 -26.873688 15.509415
v -3.575039 -26.755842 15.848129
v -3.834898 -26.755842 15.530861
v -4.028562 -26.755842 15.169388
v -3.992865 -26.873693 15.154610
v -3.885777 -26.999249 15.110252
v -3.724787 -27.114391 15.043839
v -3.824845 -27.114388 14.712830
v -3.527383 -27.200920 14.962883
v -3.293998 -27.264668 14.872025
v -3.615444 -27.200920 14.671577
v -3.367020 -27.264668 14.625320
v -3.079117 -27.311363 14.576546
v -3.391883 -27.264668 14.368744
v -3.097162 -27.311357 14.368744
v -2.806130 -27.339981 14.368744
v -3.079117 -27.311357 14.160957
v -3.025063 -27.311363 13.961655
v -2.795092 -27.339981 14.201256
v -2.558301 -27.349510 14.222069
v -2.761086 -27.339987 14.038994
v -2.542574 -27.349510 14.073509
v -2.703214 -27.339975 13.887222
v -2.676800 -27.332558 13.756874
v -2.935076 -27.311357 13.779335
v -2.516276 -27.349514 13.921104
v -2.355086 -27.349514 13.917900
v -2.535094 -27.339981 13.743271
v -2.654714 -27.311346 13.518288
v -2.382912 -27.339987 13.712372
v -2.473841 -27.311346 13.445297
v -2.221029 -27.339981 13.693260
v -2.200468 -27.349514 13.914421
v -1.838876 -27.339981 13.683319
v -2.276041 -27.311346 13.400681
v -1.862306 -27.311357 13.377876
v -1.033627 -27.311357 13.370293
v -1.025886 -27.339981 13.680016
v 0.002522 -27.311357 13.370293
v 0.002522 -27.339981 13.680016
v 1.038671 -27.311357 13.370293
v 1.030928 -27.339981 13.680016
v 1.867348 -27.311357 13.377876
v 1.046742 -27.264668 13.049660
v 1.843916 -27.339981 13.683319
v 2.281085 -27.311346 13.400681
v 2.226071 -27.339981 13.693260
v 2.478887 -27.311346 13.445297
v 2.387957 -27.339987 13.712372
v 2.659760 -27.311346 13.518288
v 2.540139 -27.339981 13.743271
v 2.816055 -27.311357 13.627167
v 2.681846 -27.332561 13.756874
v 3.018109 -27.264668 13.441528
v 2.940122 -27.311357 13.779335
v 3.030108 -27.311363 13.961655
v 2.708260 -27.339975 13.887222
v 2.766132 -27.339987 14.038994
v 2.521322 -27.349514 13.921104
v 2.360130 -27.349514 13.917900
v 2.547621 -27.349510 14.073509
v 2.363578 -27.349514 14.083435
v 2.563348 -27.349510 14.222069
v 2.366467 -27.349520 14.230682
v 2.568569 -27.349520 14.368744
v 2.800138 -27.339981 14.201256
v 2.811174 -27.339981 14.368744
v 3.084161 -27.311357 14.160957
v 3.102204 -27.311357 14.368744
v 3.084161 -27.311363 14.576546
v 3.396924 -27.264668 14.368744
v 2.800138 -27.339975 14.536232
v 3.030108 -27.311346 14.775879
v 2.766132 -27.339975 14.698494
v 2.940122 -27.311346 14.958191
v 2.816055 -27.311357 15.110359
v 2.708260 -27.339981 14.850281
v 2.521322 -27.349514 14.816399
v 2.681846 -27.332569 14.980644
v 2.540139 -27.339987 14.994255
v 2.387957 -27.339981 15.025131
v 2.659760 -27.311363 15.219200
v 2.478887 -27.311363 15.292229
v 2.819946 -27.264668 15.453529
v 2.593459 -27.264668 15.568893
v 2.960462 -27.200935 15.659401
v 3.018109 -27.264668 15.296005
v 2.692215 -27.200935 15.803101
v 3.079933 -27.114388 15.835243
v 2.775136 -27.114388 15.998520
v 3.176986 -26.999252 15.979485
v 2.842204 -26.999252 16.158867
v 2.478652 -26.999252 16.268768
v 2.444146 -27.114388 16.098602
v 2.400916 -27.200920 15.891167
v 2.347162 -27.264668 15.639549
v 1.911851 -27.200916 15.936340
v 1.893957 -27.264668 15.675781
v 1.046742 -27.264668 15.687828
v 1.867348 -27.311346 15.359612
v 2.281085 -27.311363 15.336823
v 1.843916 -27.339981 15.054207
v 1.038671 -27.311346 15.367226
v 0.002522 -27.311346 15.367226
v 1.030928 -27.339981 15.057518
v 1.028347 -27.349514 14.826714
v 0.002522 -27.339981 15.057518
v 0.002522 -27.349514 14.826714
v -1.025886 -27.339981 15.057518
v -1.023306 -27.349514 14.826714
v -1.838876 -27.339981 15.054207
v -1.033627 -27.311346 15.367226
v -1.862306 -27.311346 15.359612
v -1.041697 -27.264668 15.687828
v -1.888912 -27.264668 15.675781
v 0.002523 -27.264668 15.687828
v -2.276041 -27.311363 15.336823
v -2.473841 -27.311363 15.292229
v -2.221029 -27.339981 15.044266
v -2.382912 -27.339981 15.025131
v -2.200468 -27.349510 14.823112
v -2.355086 -27.349510 14.819641
v -2.197965 -27.349514 14.650414
v -1.830511 -27.349504 14.825813
v -1.829885 -27.349514 14.650002
v -1.829677 -27.349510 14.502342
v -1.023306 -27.349510 14.649864
v 0.002522 -27.349510 14.649864
v -1.023306 -27.349514 14.502052
v 0.002522 -27.349514 14.502052
v -1.023306 -27.349520 14.368744
v -1.829676 -27.349514 14.368744
v 0.002522 -27.349520 14.368744
v -1.023306 -27.349510 14.235466
v 0.002522 -27.349510 14.235466
v -1.829677 -27.349510 14.235176
v -1.023306 -27.349510 14.087639
v 0.002522 -27.349504 14.087639
v -1.023306 -27.349510 13.910820
v -1.829885 -27.349514 14.087524
v -1.830511 -27.349510 13.911720
v -2.197965 -27.349514 14.087105
v -2.358533 -27.349514 14.083435
v -2.197131 -27.349510 14.234306
v -2.361422 -27.349520 14.230682
v -2.197131 -27.349520 14.368744
v -2.362728 -27.349520 14.368744
v -2.197131 -27.349520 14.503197
v -2.361422 -27.349520 14.506844
v -2.358533 -27.349510 14.654091
v -2.558301 -27.349514 14.515434
v -2.563523 -27.349520 14.368744
v -2.542574 -27.349504 14.664024
v -2.795092 -27.339975 14.536232
v -2.761086 -27.339975 14.698494
v -3.025063 -27.311346 14.775879
v -2.703214 -27.339975 14.850281
v -2.676800 -27.332561 14.980644
v -2.516276 -27.349504 14.816399
v -2.935076 -27.311346 14.958191
v -3.174386 -27.264668 15.098869
v -2.811009 -27.311346 15.110359
v -2.654714 -27.311357 15.219200
v -2.535094 -27.339975 14.994255
v 0.002522 -27.349510 13.910820
v 1.028347 -27.349510 13.910820
v 1.028347 -27.349514 14.087639
v 1.835549 -27.349514 13.911720
v 1.834924 -27.349514 14.087524
v 2.205509 -27.349514 13.914421
v 2.203007 -27.349514 14.087120
v 2.202173 -27.349510 14.234306
v 2.202173 -27.349520 14.368744
v 1.834715 -27.349510 14.235176
v 1.834715 -27.349520 14.368744
v 1.028347 -27.349514 14.235466
v 1.028347 -27.349520 14.368744
v 1.028347 -27.349514 14.502052
v 1.028347 -27.349510 14.649864
v 1.834715 -27.349510 14.502342
v 1.834924 -27.349514 14.650002
v 2.202173 -27.349520 14.503197
v 2.203007 -27.349514 14.650414
v 2.366467 -27.349520 14.506844
v 2.363578 -27.349514 14.654091
v 2.367772 -27.349520 14.368744
v 2.563348 -27.349514 14.515434
v 2.547621 -27.349514 14.664024
v 2.360131 -27.349514 14.819641
v 2.205509 -27.349510 14.823112
v 2.226071 -27.339981 15.044266
v 1.835549 -27.349504 14.825813
v -2.811009 -27.311346 13.627167
v -2.814900 -27.264668 13.284004
v 0.002522 -26.755831 16.501465
v -2.496219 -26.873672 12.355110
vn 0.9239 -0.0000 0.3827
vn 0.8315 -0.0000 0.5556
vn 0.9808 -0.0000 0.1951
vn 0.7071 -0.0000 0.7071
vn 0.5556 -0.0000 0.8315
vn 0.3827 -0.0000 0.9239
vn 0.1988 -0.0000 0.9800
vn 0.0647 -0.0000 0.9979
vn 0.0114 -0.0000 0.9999
vn -0.0000 -0.0000 1.0000
vn -0.0114 -0.0000 0.9999
vn -0.0647 -0.0000 0.9979
vn -0.1988 -0.0000 0.9800
vn -0.1962 -0.1568 0.9679
vn -0.0637 -0.1585 0.9853
vn -0.0112 -0.1600 0.9870
vn -0.0550 -0.5073 0.8600
vn -0.0096 -0.5116 0.8592
vn -0.1714 -0.5021 0.8476
vn -0.3313 -0.5008 0.7997
vn -0.3780 -0.1562 0.9125
vn -0.3827 -0.0000 0.9239
vn -0.4809 -0.5008 0.7197
vn -0.5487 -0.1563 0.8213
vn -0.5556 -0.0000 0.8315
vn -0.7071 -0.0000 0.7071
vn -0.8315 -0.0000 0.5556
vn -0.9239 -0.0000 0.3827
vn -0.9808 -0.0000 0.1951
vn -1.0000 -0.0000 -0.0000
vn -0.9808 -0.0000 -0.1951
vn -0.9239 -0.0000 -0.3827
vn -0.8315 -0.0000 -0.5556
vn -0.7071 -0.0000 -0.7071
vn -0.5556 -0.0000 -0.8315
vn -0.3827 -0.0000 -0.9239
vn -0.1988 -0.0000 -0.9800
vn -0.1962 -0.1568 -0.9679
vn -0.3780 -0.1562 -0.9125
vn -0.5487 -0.1562 -0.8213
vn -0.3312 -0.5007 -0.7997
vn -0.4809 -0.5008 -0.7197
vn -0.1715 -0.5021 -0.8476
vn -0.6121 -0.5007 -0.6121
vn -0.6984 -0.1562 -0.6984
vn -0.7197 -0.5008 -0.4809
vn -0.8213 -0.1562 -0.5487
vn -0.7997 -0.5007 -0.3313
vn -0.9125 -0.1562 -0.3780
vn -0.8489 -0.5008 -0.1689
vn -0.9687 -0.1562 -0.1927
vn -0.8656 -0.5007 -0.0000
vn -0.9877 -0.1562 -0.0000
vn -0.9687 -0.1562 0.1927
vn -0.8489 -0.5008 0.1689
vn -0.6522 -0.7581 -0.0000
vn -0.6396 -0.7581 0.1272
vn -0.6396 -0.7581 -0.1272
vn -0.4707 -0.8823 -0.0000
vn -0.4616 -0.8823 0.0918
vn -0.4617 -0.8823 -0.0918
vn -0.6026 -0.7580 -0.2496
vn -0.4350 -0.8822 -0.1802
vn -0.2920 -0.9488 -0.1205
vn -0.3089 -0.9491 -0.0612
vn -0.3145 -0.9493 -0.0000
vn -0.2034 -0.9791 -0.0000
vn -0.2006 -0.9789 -0.0388
vn -0.1918 -0.9784 -0.0777
vn -0.2637 -0.9484 -0.1759
vn -0.1750 -0.9777 -0.1158
vn -0.3917 -0.8821 -0.2617
vn -0.2243 -0.9483 -0.2247
vn -0.1477 -0.9775 -0.1503
vn -0.3333 -0.8820 -0.3332
vn -0.1752 -0.9485 -0.2639
vn -0.1114 -0.9782 -0.1751
vn -0.2620 -0.8818 -0.3921
vn -0.4613 -0.7579 -0.4612
vn -0.3625 -0.7579 -0.5425
vn -0.5423 -0.7580 -0.3623
vn -0.2497 -0.7577 -0.6029
vn -0.1806 -0.8816 -0.4361
vn -0.0919 -0.8821 -0.4620
vn -0.1284 -0.7588 -0.6385
vn -0.1199 -0.9490 -0.2917
vn -0.0598 -0.9496 -0.3077
vn -0.0732 -0.9793 -0.1885
vn -0.0350 -0.9802 -0.1947
vn -0.0170 -0.9511 -0.3086
vn -0.0091 -0.9811 -0.1931
vn -0.0277 -0.8845 -0.4657
vn -0.0046 -0.8867 -0.4624
vn -0.0027 -0.9522 -0.3056
vn -0.0014 -0.9817 -0.1905
vn -0.0000 -0.9525 -0.3046
vn -0.0000 -0.9818 -0.1898
vn -0.0000 -0.8873 -0.4611
vn 0.0014 -0.9817 -0.1905
vn 0.0027 -0.9522 -0.3055
vn 0.0046 -0.8867 -0.4624
vn -0.0000 -0.7672 -0.6414
vn 0.0069 -0.7661 -0.6426
vn -0.0069 -0.7661 -0.6426
vn -0.0000 -0.5131 -0.8583
vn 0.0096 -0.5117 -0.8591
vn -0.0096 -0.5117 -0.8591
vn -0.0402 -0.7627 -0.6455
vn -0.0550 -0.5073 -0.8600
vn -0.0637 -0.1585 -0.9853
vn -0.0112 -0.1601 -0.9870
vn -0.0000 -0.1606 -0.9870
vn -0.0114 -0.0000 -0.9999
vn -0.0000 -0.0000 -1.0000
vn -0.0647 -0.0000 -0.9979
vn 0.0114 -0.0000 -0.9999
vn 0.0647 -0.0000 -0.9979
vn 0.1988 -0.0000 -0.9800
vn 0.3827 -0.0000 -0.9239
vn 0.5556 -0.0000 -0.8315
vn 0.7071 -0.0000 -0.7071
vn 0.8315 -0.0000 -0.5556
vn 0.9239 -0.0000 -0.3827
vn 0.9808 -0.0000 -0.1951
vn 1.0000 -0.0000 -0.0000
vn 0.9687 -0.1562 0.1927
vn 0.9877 -0.1562 -0.0000
vn 0.9687 -0.1562 -0.1927
vn 0.8656 -0.5007 -0.0000
vn 0.8489 -0.5008 -0.1689
vn 0.8489 -0.5008 0.1689
vn 0.7997 -0.5007 -0.3313
vn 0.9125 -0.1562 -0.3780
vn 0.8213 -0.1562 -0.5488
vn 0.7197 -0.5008 -0.4809
vn 0.6026 -0.7580 -0.2496
vn 0.6396 -0.7581 -0.1272
vn 0.5424 -0.7580 -0.3623
vn 0.4613 -0.7579 -0.4613
vn 0.6121 -0.5007 -0.6121
vn 0.6984 -0.1562 -0.6984
vn 0.3625 -0.7579 -0.5425
vn 0.4809 -0.5008 -0.7197
vn 0.5488 -0.1562 -0.8213
vn 0.3312 -0.5007 -0.7997
vn 0.3780 -0.1562 -0.9125
vn 0.1962 -0.1568 -0.9679
vn 0.1715 -0.5022 -0.8476
vn 0.2497 -0.7578 -0.6029
vn 0.1284 -0.7588 -0.6385
vn 0.0402 -0.7627 -0.6455
vn 0.0550 -0.5073 -0.8600
vn 0.0637 -0.1585 -0.9853
vn 0.0112 -0.1601 -0.9870
vn 0.0277 -0.8845 -0.4657
vn 0.0919 -0.8821 -0.4621
vn 0.0598 -0.9496 -0.3077
vn 0.0170 -0.9511 -0.3085
vn 0.0091 -0.9811 -0.1931
vn 0.0350 -0.9802 -0.1947
vn 0.0732 -0.9793 -0.1885
vn 0.1199 -0.9490 -0.2917
vn 0.1806 -0.8816 -0.4361
vn 0.1114 -0.9782 -0.1751
vn 0.1753 -0.9485 -0.2638
vn 0.2620 -0.8818 -0.3921
vn 0.1477 -0.9775 -0.1503
vn 0.2243 -0.9483 -0.2247
vn 0.3333 -0.8820 -0.3332
vn 0.3917 -0.8821 -0.2617
vn 0.2637 -0.9484 -0.1759
vn 0.4350 -0.8822 -0.1802
vn 0.2920 -0.9488 -0.1205
vn 0.1750 -0.9777 -0.1158
vn 0.1918 -0.9784 -0.0777
vn 0.2006 -0.9789 -0.0388
vn 0.3088 -0.9491 -0.0612
vn 0.4617 -0.8823 -0.0918
vn 0.2033 -0.9791 -0.0000
vn 0.3145 -0.9493 -0.0000
vn 0.4707 -0.8823 -0.0000
vn 0.6522 -0.7581 -0.0000
vn 0.6396 -0.7581 0.1272
vn 0.4617 -0.8823 0.0918
vn 0.6026 -0.7580 0.2496
vn 0.4350 -0.8822 0.1802
vn 0.7997 -0.5007 0.3313
vn 0.2920 -0.9488 0.1205
vn 0.3088 -0.9491 0.0612
vn 0.2006 -0.9789 0.0388
vn 0.1918 -0.9784 0.0777
vn 0.1751 -0.9777 0.1158
vn 0.2637 -0.9484 0.1759
vn 0.3916 -0.8821 0.2617
vn 0.1477 -0.9775 0.1503
vn 0.2243 -0.9482 0.2247
vn 0.3333 -0.8820 0.3333
vn 0.4613 -0.7579 0.4613
vn 0.5423 -0.7580 0.3624
vn 0.6121 -0.5007 0.6121
vn 0.7197 -0.5008 0.4809
vn 0.8213 -0.1562 0.5487
vn 0.6984 -0.1562 0.6984
vn 0.9125 -0.1562 0.3780
vn 0.4809 -0.5008 0.7197
vn 0.5487 -0.1563 0.8213
vn 0.3313 -0.5008 0.7997
vn 0.3780 -0.1562 0.9125
vn 0.1714 -0.5021 0.8476
vn 0.1962 -0.1568 0.9679
vn 0.0550 -0.5073 0.8600
vn 0.0637 -0.1585 0.9853
vn 0.0096 -0.5116 0.8592
vn 0.0112 -0.1600 0.9870
vn 0.0069 -0.7661 0.6427
vn 0.0402 -0.7626 0.6456
vn 0.1284 -0.7588 0.6385
vn -0.0000 -0.5130 0.8584
vn -0.0000 -0.7672 0.6415
vn -0.0000 -0.1605 0.9870
vn 0.0046 -0.8867 0.4624
vn 0.0277 -0.8845 0.4657
vn -0.0000 -0.8873 0.4611
vn 0.0027 -0.9522 0.3055
vn 0.0170 -0.9511 0.3086
vn -0.0000 -0.9525 0.3046
vn -0.0046 -0.8867 0.4624
vn -0.0027 -0.9522 0.3055
vn -0.0069 -0.7661 0.6427
vn -0.0277 -0.8845 0.4657
vn -0.0170 -0.9511 0.3085
vn -0.0402 -0.7626 0.6456
vn -0.0920 -0.8821 0.4621
vn -0.1284 -0.7588 0.6385
vn -0.2498 -0.7577 0.6029
vn -0.1807 -0.8816 0.4361
vn -0.1199 -0.9490 0.2917
vn -0.0598 -0.9496 0.3077
vn -0.0091 -0.9811 0.1931
vn -0.0350 -0.9802 0.1947
vn -0.0732 -0.9793 0.1885
vn -0.1753 -0.9485 0.2639
vn -0.1114 -0.9782 0.1751
vn -0.2620 -0.8818 0.3921
vn -0.2243 -0.9482 0.2247
vn -0.1477 -0.9775 0.1503
vn -0.3333 -0.8820 0.3333
vn -0.2637 -0.9484 0.1759
vn -0.1751 -0.9777 0.1158
vn -0.3916 -0.8821 0.2617
vn -0.4613 -0.7579 0.4613
vn -0.5423 -0.7580 0.3623
vn -0.3625 -0.7578 0.5425
vn -0.6121 -0.5007 0.6121
vn -0.7197 -0.5008 0.4809
vn -0.6984 -0.1562 0.6984
vn -0.8213 -0.1562 0.5487
vn -0.7997 -0.5007 0.3313
vn -0.9125 -0.1562 0.3780
vn -0.6026 -0.7580 0.2496
vn -0.4350 -0.8822 0.1802
vn -0.2920 -0.9488 0.1205
vn -0.3089 -0.9491 0.0612
vn -0.1918 -0.9784 0.0777
vn -0.2006 -0.9789 0.0388
vn -0.1288 -0.9914 0.0229
vn -0.1260 -0.9909 0.0473
vn -0.1295 -0.9916 -0.0000
vn -0.1288 -0.9914 -0.0229
vn -0.0704 -0.9975 -0.0000
vn -0.0708 -0.9974 0.0103
vn -0.0708 -0.9974 -0.0103
vn -0.1260 -0.9909 -0.0473
vn -0.0721 -0.9971 -0.0222
vn -0.0203 -0.9998 -0.0000
vn -0.0206 -0.9998 -0.0022
vn -0.0219 -0.9997 -0.0048
vn -0.0688 -0.9966 -0.0442
vn -0.0225 -0.9994 -0.0275
vn -0.1175 -0.9902 -0.0752
vn -0.0672 -0.9949 -0.0757
vn -0.0348 -0.9966 -0.0750
vn -0.0969 -0.9899 -0.1034
vn -0.0000 -1.0000 -0.0000
vn -0.0021 -0.9997 -0.0232
vn -0.0143 -0.9972 -0.0738
vn -0.0389 -0.9915 -0.1241
vn -0.0662 -0.9905 -0.1201
vn -0.0175 -0.9922 -0.1232
vn -0.0061 -0.9975 -0.0704
vn -0.0009 -0.9998 -0.0217
vn -0.0013 -0.9977 -0.0680
vn -0.0002 -0.9998 -0.0210
vn -0.0041 -0.9927 -0.1205
vn -0.0006 -0.9929 -0.1186
vn -0.0002 -0.9978 -0.0669
vn -0.0000 -0.9930 -0.1181
vn -0.0000 -0.9978 -0.0667
vn 0.0002 -0.9978 -0.0669
vn 0.0006 -0.9929 -0.1186
vn 0.0013 -0.9977 -0.0680
vn 0.0041 -0.9927 -0.1205
vn 0.0061 -0.9975 -0.0704
vn 0.0175 -0.9922 -0.1232
vn 0.0143 -0.9972 -0.0738
vn 0.0389 -0.9915 -0.1241
vn 0.0348 -0.9966 -0.0750
vn 0.0662 -0.9905 -0.1202
vn 0.0672 -0.9949 -0.0756
vn 0.0969 -0.9899 -0.1034
vn 0.1175 -0.9902 -0.0752
vn 0.0688 -0.9967 -0.0442
vn 0.1260 -0.9909 -0.0473
vn 0.0721 -0.9971 -0.0222
vn 0.0219 -0.9997 -0.0048
vn 0.0225 -0.9994 -0.0275
vn 0.0021 -0.9997 -0.0232
vn 0.0206 -0.9998 -0.0022
vn 0.0708 -0.9974 -0.0103
vn 0.0203 -0.9998 -0.0000
vn 0.0704 -0.9975 -0.0000
vn 0.1288 -0.9914 -0.0228
vn 0.1295 -0.9916 -0.0000
vn 0.1288 -0.9914 0.0229
vn 0.0708 -0.9974 0.0103
vn 0.1260 -0.9909 0.0473
vn 0.0722 -0.9971 0.0222
vn 0.1175 -0.9902 0.0751
vn 0.0688 -0.9966 0.0442
vn 0.0970 -0.9899 0.1034
vn 0.0672 -0.9949 0.0756
vn 0.0219 -0.9997 0.0048
vn 0.0225 -0.9994 0.0275
vn 0.0348 -0.9966 0.0749
vn 0.0662 -0.9905 0.1201
vn 0.0143 -0.9972 0.0737
vn 0.0021 -0.9997 0.0232
vn 0.0389 -0.9915 0.1241
vn 0.0732 -0.9793 0.1885
vn 0.1114 -0.9782 0.1751
vn 0.1753 -0.9485 0.2639
vn 0.1199 -0.9490 0.2917
vn 0.2620 -0.8818 0.3921
vn 0.1807 -0.8816 0.4361
vn 0.2498 -0.7577 0.6029
vn 0.3625 -0.7578 0.5425
vn 0.0919 -0.8821 0.4621
vn 0.0598 -0.9496 0.3077
vn 0.0350 -0.9802 0.1947
vn 0.0091 -0.9811 0.1931
vn 0.0014 -0.9817 0.1905
vn 0.0006 -0.9929 0.1186
vn 0.0040 -0.9927 0.1205
vn 0.0175 -0.9922 0.1232
vn 0.0013 -0.9977 0.0680
vn 0.0061 -0.9975 0.0704
vn 0.0002 -0.9978 0.0669
vn -0.0000 -0.9818 0.1898
vn -0.0000 -0.9930 0.1181
vn -0.0000 -0.9978 0.0667
vn 0.0002 -0.9998 0.0210
vn -0.0000 -0.9998 0.0207
vn -0.0000 -0.9998 0.0206
vn -0.0002 -0.9978 0.0669
vn -0.0006 -0.9929 0.1186
vn -0.0013 -0.9977 0.0680
vn -0.0002 -0.9998 0.0210
vn -0.0040 -0.9927 0.1205
vn -0.0014 -0.9817 0.1905
vn -0.0175 -0.9922 0.1232
vn -0.0061 -0.9975 0.0704
vn -0.0389 -0.9915 0.1241
vn -0.0143 -0.9972 0.0737
vn -0.0021 -0.9997 0.0232
vn -0.0009 -0.9998 0.0217
vn -0.0000 -0.9998 -0.0207
vn -0.0000 -0.9998 -0.0206
vn -0.0219 -0.9997 0.0049
vn -0.0206 -0.9998 0.0022
vn -0.0721 -0.9971 0.0222
vn -0.0688 -0.9967 0.0442
vn -0.1175 -0.9902 0.0752
vn -0.0225 -0.9994 0.0275
vn -0.0672 -0.9949 0.0756
vn -0.0970 -0.9899 0.1034
vn -0.0348 -0.9966 0.0749
vn -0.0663 -0.9905 0.1201
vn 0.0002 -0.9998 -0.0210
vn 0.0009 -0.9998 -0.0217
vn 0.0206 -0.9998 0.0022
vn 0.0009 -0.9998 0.0217
vt 0.513107 0.449442
vt 0.513109 0.446952
vt 0.514663 0.446953
vt 0.514662 0.449443
vt 0.511553 0.449441
vt 0.511554 0.446952
vt 0.516216 0.446955
vt 0.516215 0.449444
vt 0.517770 0.446955
vt 0.517768 0.449445
vt 0.519323 0.446956
vt 0.519322 0.449446
vt 0.520877 0.446957
vt 0.520876 0.449447
vt 0.523045 0.446958
vt 0.523044 0.449448
vt 0.526420 0.446959
vt 0.526418 0.449448
vt 0.530402 0.446960
vt 0.530401 0.449449
vt 0.448752 0.446944
vt 0.452735 0.446944
vt 0.452735 0.449433
vt 0.448752 0.449433
vt 0.456110 0.446943
vt 0.456111 0.449433
vt 0.458279 0.446943
vt 0.458280 0.449433
vt 0.458282 0.470377
vt 0.456113 0.470377
vt 0.452738 0.470377
vt 0.456117 0.470847
vt 0.452740 0.470848
vt 0.458284 0.470847
vt 0.459837 0.470847
vt 0.459836 0.470376
vt 0.459835 0.449433
vt 0.461391 0.470847
vt 0.461391 0.470376
vt 0.461390 0.449433
vt 0.459835 0.446943
vt 0.461390 0.446943
vt 0.462945 0.446943
vt 0.462945 0.449433
vt 0.464500 0.446943
vt 0.464500 0.449432
vt 0.466056 0.446943
vt 0.466056 0.449432
vt 0.467611 0.446942
vt 0.467612 0.449432
vt 0.469168 0.446942
vt 0.469168 0.449431
vt 0.470724 0.446942
vt 0.470725 0.449431
vt 0.472281 0.446942
vt 0.472281 0.449431
vt 0.473837 0.446942
vt 0.473837 0.449432
vt 0.475393 0.446943
vt 0.475392 0.449432
vt 0.476948 0.446943
vt 0.476948 0.449432
vt 0.478503 0.446943
vt 0.478502 0.449432
vt 0.480058 0.446943
vt 0.480057 0.449432
vt 0.480055 0.470376
vt 0.478502 0.470376
vt 0.476947 0.470376
vt 0.478501 0.470846
vt 0.476947 0.470846
vt 0.480054 0.470847
vt 0.475391 0.470846
vt 0.475392 0.470376
vt 0.473836 0.470846
vt 0.473836 0.470375
vt 0.472280 0.470845
vt 0.472280 0.470375
vt 0.470725 0.470845
vt 0.470725 0.470375
vt 0.469169 0.470846
vt 0.469169 0.470375
vt 0.467614 0.470376
vt 0.467614 0.470846
vt 0.253656 0.082623
vt 0.253505 0.081017
vt 0.254151 0.081017
vt 0.254293 0.082492
vt 0.253656 0.079441
vt 0.254293 0.079552
vt 0.254939 0.081017
vt 0.255070 0.082340
vt 0.255070 0.079714
vt 0.254121 0.077906
vt 0.254727 0.078148
vt 0.255444 0.078451
vt 0.256262 0.078775
vt 0.255919 0.079886
vt 0.255818 0.081017
vt 0.256798 0.081017
vt 0.256889 0.080058
vt 0.257161 0.079128
vt 0.256798 0.077755
vt 0.257616 0.078270
vt 0.256070 0.077280
vt 0.257525 0.076876
vt 0.258222 0.077522
vt 0.256899 0.076260
vt 0.258414 0.076128
vt 0.258959 0.076936
vt 0.257909 0.075421
vt 0.256343 0.075704
vt 0.257474 0.074765
vt 0.255414 0.076856
vt 0.255889 0.075250
vt 0.257111 0.074229
vt 0.254879 0.076492
vt 0.258515 0.073472
vt 0.258767 0.074068
vt 0.259070 0.074785
vt 0.260323 0.074391
vt 0.260171 0.073623
vt 0.260030 0.072987
vt 0.259414 0.075583
vt 0.260525 0.075239
vt 0.259808 0.076492
vt 0.260757 0.076209
vt 0.262373 0.075048
vt 0.262464 0.076058
vt 0.262313 0.074159
vt 0.265646 0.074088
vt 0.265656 0.074967
vt 0.265676 0.075997
vt 0.269636 0.074967
vt 0.269636 0.075997
vt 0.269636 0.074078
vt 0.273605 0.075997
vt 0.273625 0.074967
vt 0.273636 0.074088
vt 0.269636 0.073270
vt 0.273646 0.073280
vt 0.265646 0.073270
vt 0.269636 0.072613
vt 0.273656 0.072623
vt 0.265636 0.072623
vt 0.262262 0.073371
vt 0.262222 0.072724
vt 0.485595 0.470847
vt 0.482219 0.470847
vt 0.482223 0.470376
vt 0.485597 0.470376
vt 0.489579 0.470848
vt 0.489579 0.470376
vt 0.485599 0.449433
vt 0.489580 0.449433
vt 0.482225 0.449432
vt 0.489580 0.446943
vt 0.485599 0.446943
vt 0.482226 0.446943
vt 0.493561 0.446944
vt 0.493561 0.449433
vt 0.496934 0.446944
vt 0.496935 0.449434
vt 0.499103 0.446945
vt 0.499103 0.449435
vt 0.500658 0.446947
vt 0.500658 0.449436
vt 0.502214 0.446948
vt 0.502214 0.449437
vt 0.503770 0.446948
vt 0.503769 0.449438
vt 0.505326 0.446949
vt 0.505326 0.449438
vt 0.506884 0.446950
vt 0.506884 0.449439
vt 0.508442 0.446950
vt 0.508441 0.449440
vt 0.509998 0.446951
vt 0.509997 0.449440
vt 0.511539 0.470385
vt 0.509985 0.470384
vt 0.508429 0.470383
vt 0.509985 0.470854
vt 0.508429 0.470854
vt 0.511539 0.470854
vt 0.506874 0.470853
vt 0.506874 0.470383
vt 0.505320 0.470382
vt 0.505320 0.470853
vt 0.284564 0.078148
vt 0.285160 0.077906
vt 0.285615 0.079441
vt 0.284989 0.079563
vt 0.283878 0.076856
vt 0.284403 0.076492
vt 0.282938 0.075714
vt 0.283403 0.075250
vt 0.503767 0.470851
vt 0.503767 0.470381
vt 0.281807 0.074765
vt 0.282181 0.074240
vt 0.502212 0.470851
vt 0.502212 0.470380
vt 0.500658 0.470850
vt 0.500658 0.470380
vt 0.499104 0.470379
vt 0.499105 0.470849
vt 0.280514 0.074078
vt 0.280767 0.073482
vt 0.279130 0.073623
vt 0.279262 0.072987
vt 0.277019 0.073371
vt 0.277070 0.072724
vt 0.496940 0.470848
vt 0.496936 0.470378
vt 0.493564 0.470848
vt 0.493562 0.470377
vt 0.276969 0.074169
vt 0.278948 0.074391
vt 0.278757 0.075239
vt 0.276898 0.075048
vt 0.276827 0.076068
vt 0.278534 0.076219
vt 0.279464 0.076492
vt 0.279858 0.075583
vt 0.280211 0.074785
vt 0.280312 0.076936
vt 0.280878 0.076128
vt 0.281363 0.075421
vt 0.281060 0.077522
vt 0.281756 0.076876
vt 0.282383 0.076260
vt 0.283211 0.077290
vt 0.282484 0.077765
vt 0.283827 0.078462
vt 0.283019 0.078775
vt 0.281666 0.078270
vt 0.282120 0.079128
vt 0.282393 0.080058
vt 0.283362 0.079886
vt 0.284211 0.079724
vt 0.282484 0.081027
vt 0.283474 0.081027
vt 0.284342 0.081027
vt 0.285140 0.081027
vt 0.285787 0.081027
vt 0.284989 0.082502
vt 0.284211 0.082350
vt 0.285615 0.082623
vt 0.284564 0.083906
vt 0.283827 0.083613
vt 0.285160 0.084158
vt 0.283019 0.083280
vt 0.283362 0.082179
vt 0.282393 0.081997
vt 0.282120 0.082926
vt 0.281666 0.083785
vt 0.282484 0.084300
vt 0.283211 0.084785
vt 0.281060 0.084532
vt 0.281756 0.085189
vt 0.282383 0.085795
vt 0.282938 0.086350
vt 0.283868 0.085209
vt 0.283403 0.086795
vt 0.284403 0.085562
vt 0.516208 0.470858
vt 0.514651 0.470856
vt 0.514651 0.470387
vt 0.516209 0.470388
vt 0.513094 0.470855
vt 0.513095 0.470385
vt 0.517764 0.470859
vt 0.517766 0.470389
vt 0.519319 0.470860
vt 0.519320 0.470390
vt 0.520871 0.470861
vt 0.520873 0.470391
vt 0.523036 0.470862
vt 0.523041 0.470391
vt 0.526412 0.470864
vt 0.526415 0.470392
vt 0.277060 0.089330
vt 0.273646 0.089431
vt 0.273646 0.088774
vt 0.277019 0.088683
vt 0.279130 0.088431
vt 0.279251 0.089067
vt 0.269636 0.089431
vt 0.269636 0.088784
vt 0.530397 0.470864
vt 0.530398 0.470393
vt 0.273636 0.087976
vt 0.276969 0.087896
vt 0.269636 0.087976
vt 0.273625 0.087098
vt 0.276898 0.087017
vt 0.269636 0.087098
vt 0.265646 0.087976
vt 0.265656 0.087098
vt 0.265646 0.088774
vt 0.262303 0.087886
vt 0.262373 0.087017
vt 0.262262 0.088683
vt 0.262222 0.089330
vt 0.265636 0.089431
vt 0.448755 0.470848
vt 0.448754 0.470377
vt 0.260323 0.087673
vt 0.260171 0.088431
vt 0.260030 0.089067
vt 0.258505 0.088582
vt 0.258767 0.087987
vt 0.259070 0.087269
vt 0.259414 0.086471
vt 0.260525 0.086815
vt 0.262454 0.085997
vt 0.260747 0.085835
vt 0.259808 0.085562
vt 0.258414 0.085916
vt 0.258959 0.085128
vt 0.257909 0.086643
vt 0.257525 0.085189
vt 0.258222 0.084532
vt 0.256899 0.085795
vt 0.256798 0.084290
vt 0.257616 0.083785
vt 0.256070 0.084775
vt 0.256343 0.086340
vt 0.255414 0.085209
vt 0.257464 0.087290
vt 0.255889 0.086795
vt 0.254879 0.085562
vt 0.257111 0.087815
vt 0.462946 0.470847
vt 0.462946 0.470376
vt 0.464503 0.470847
vt 0.464503 0.470376
vt 0.466058 0.470846
vt 0.466058 0.470376
vt 0.254121 0.084158
vt 0.254727 0.083906
vt 0.255444 0.083603
vt 0.256262 0.083280
vt 0.255919 0.082169
vt 0.257161 0.082916
vt 0.256889 0.081997
vt 0.257990 0.081815
vt 0.258192 0.082552
vt 0.257919 0.081017
vt 0.257990 0.080249
vt 0.259030 0.081017
vt 0.259070 0.081653
vt 0.259070 0.080401
vt 0.258192 0.079492
vt 0.259202 0.079785
vt 0.259939 0.081017
vt 0.259959 0.080472
vt 0.260030 0.079916
vt 0.259414 0.079219
vt 0.260121 0.079340
vt 0.258535 0.078805
vt 0.259515 0.078724
vt 0.260040 0.078664
vt 0.259000 0.078239
vt 0.260717 0.079956
vt 0.260737 0.079330
vt 0.260626 0.078542
vt 0.260272 0.077532
vt 0.259585 0.077825
vt 0.261020 0.077371
vt 0.261232 0.078482
vt 0.261303 0.079310
vt 0.262676 0.078431
vt 0.262717 0.079290
vt 0.262575 0.077260
vt 0.265706 0.077229
vt 0.265747 0.078411
vt 0.269636 0.077219
vt 0.269636 0.078411
vt 0.273534 0.078411
vt 0.273575 0.077229
vt 0.276615 0.078431
vt 0.276716 0.077270
vt 0.278050 0.078482
vt 0.278272 0.077371
vt 0.278666 0.078552
vt 0.279009 0.077532
vt 0.279241 0.078674
vt 0.279706 0.077825
vt 0.279767 0.078724
vt 0.280282 0.078239
vt 0.280746 0.078815
vt 0.279868 0.079219
vt 0.281090 0.079502
vt 0.280090 0.079785
vt 0.279262 0.079916
vt 0.279161 0.079350
vt 0.278555 0.079330
vt 0.278565 0.079956
vt 0.278575 0.080512
vt 0.279312 0.080472
vt 0.280221 0.080401
vt 0.278585 0.081027
vt 0.279332 0.081027
vt 0.280262 0.081027
vt 0.281282 0.080249
vt 0.281363 0.081027
vt 0.281282 0.081815
vt 0.280221 0.081653
vt 0.281090 0.082562
vt 0.280090 0.082270
vt 0.280746 0.083259
vt 0.279868 0.082845
vt 0.280272 0.083825
vt 0.279767 0.083340
vt 0.279262 0.082148
vt 0.279161 0.082724
vt 0.279241 0.083391
vt 0.279696 0.084239
vt 0.278666 0.083512
vt 0.278555 0.082734
vt 0.279009 0.084522
vt 0.279464 0.085572
vt 0.280312 0.085128
vt 0.280868 0.085916
vt 0.279858 0.086471
vt 0.281363 0.086643
vt 0.280211 0.087269
vt 0.280514 0.087997
vt 0.281807 0.087290
vt 0.280767 0.088593
vt 0.282181 0.087815
vt 0.278948 0.087673
vt 0.278757 0.086815
vt 0.278534 0.085845
vt 0.276827 0.086007
vt 0.273605 0.086057
vt 0.273565 0.084835
vt 0.276706 0.084795
vt 0.278272 0.084694
vt 0.276615 0.083633
vt 0.278050 0.083583
vt 0.273534 0.083653
vt 0.269636 0.086067
vt 0.269636 0.084835
vt 0.269636 0.083653
vt 0.276575 0.082764
vt 0.273514 0.082775
vt 0.269636 0.082775
vt 0.265747 0.083653
vt 0.265757 0.082775
vt 0.265706 0.084835
vt 0.262676 0.083633
vt 0.262707 0.082764
vt 0.262575 0.084785
vt 0.265676 0.086057
vt 0.261010 0.084694
vt 0.261232 0.083583
vt 0.260272 0.084522
vt 0.260626 0.083502
vt 0.260737 0.082734
vt 0.261303 0.082744
vt 0.260717 0.082108
vt 0.261313 0.082088
vt 0.262717 0.082098
vt 0.265757 0.082098
vt 0.262717 0.081532
vt 0.265757 0.081532
vt 0.261323 0.081532
vt 0.269636 0.082098
vt 0.269636 0.081532
vt 0.265757 0.081017
vt 0.269636 0.081017
vt 0.262717 0.081017
vt 0.262717 0.080512
vt 0.265757 0.080512
vt 0.269636 0.080512
vt 0.265757 0.079967
vt 0.269636 0.079967
vt 0.262717 0.079967
vt 0.265757 0.079280
vt 0.269636 0.079280
vt 0.261313 0.079967
vt 0.261323 0.080512
vt 0.260707 0.080502
vt 0.260707 0.081017
vt 0.261323 0.081017
vt 0.260707 0.081542
vt 0.260030 0.082148
vt 0.259959 0.081583
vt 0.259202 0.082270
vt 0.259414 0.082845
vt 0.258535 0.083249
vt 0.260121 0.082714
vt 0.259515 0.083340
vt 0.259000 0.083825
vt 0.260040 0.083381
vt 0.259585 0.084239
vt 0.273514 0.079290
vt 0.273514 0.079967
vt 0.276575 0.079300
vt 0.276575 0.079967
vt 0.277959 0.079967
vt 0.277969 0.079310
vt 0.277959 0.080512
vt 0.276565 0.080512
vt 0.277959 0.081027
vt 0.276565 0.081027
vt 0.273514 0.081027
vt 0.273514 0.080512
vt 0.273514 0.081532
vt 0.276565 0.081532
vt 0.273514 0.082098
vt 0.276575 0.082098
vt 0.277959 0.082098
vt 0.277959 0.081532
vt 0.278565 0.082108
vt 0.278575 0.081542
vt 0.279312 0.081583
vt 0.277969 0.082754
s 1
f 2/1/1 1/2/1 4/3/2 5/4/2
f 1/2/1 2/1/1 157/5/3 3/6/3
f 6/7/4 7/8/4 5/4/2 4/3/2
f 7/8/4 6/7/4 8/9/5 9/10/5
f 10/11/6 11/12/6 9/10/5 8/9/5
f 11/12/6 10/11/6 12/13/7 13/14/7
f 14/15/8 15/16/8 13/14/7 12/13/7
f 14/15/8 16/17/9 17/18/9 15/16/8
f 16/17/9 18/19/10 19/20/10 17/18/9
f 18/21/10 20/22/11 21/23/11 19/24/10
f 20/22/11 22/25/12 24/26/12 21/23/11
f 22/25/12 23/27/13 25/28/13 24/26/12
f 25/28/13 29/29/14 26/30/15 24/26/12
f 26/30/15 27/31/16 21/23/11 24/26/12
f 26/30/15 28/32/17 259/33/18 27/31/16
f 30/34/19 28/32/17 26/30/15 29/29/14
f 32/35/20 30/34/19 29/29/14 31/36/21
f 25/28/13 34/37/22 31/36/21 29/29/14
f 281/38/23 32/35/20 31/36/21 33/39/24
f 34/37/22 35/40/25 33/39/24 31/36/21
f 36/41/22 37/42/25 35/40/25 34/37/22
f 23/27/13 36/41/22 34/37/22 25/28/13
f 38/43/26 39/44/26 35/40/25 37/42/25
f 40/45/27 41/46/27 39/44/26 38/43/26
f 40/45/27 42/47/28 43/48/28 41/46/27
f 44/49/29 45/50/29 43/48/28 42/47/28
f 44/49/29 46/51/30 47/52/30 45/50/29
f 48/53/31 49/54/31 47/52/30 46/51/30
f 48/53/31 50/55/32 51/56/32 49/54/31
f 52/57/33 53/58/33 51/56/32 50/55/32
f 52/57/33 54/59/34 55/60/34 53/58/33
f 56/61/35 57/62/35 55/60/34 54/59/34
f 56/61/35 58/63/36 60/64/36 57/62/35
f 58/63/36 59/65/37 61/66/37 60/64/36
f 60/64/36 61/66/37 64/67/38 62/68/39
f 57/62/35 60/64/36 62/68/39 65/69/40
f 63/70/41 66/71/42 65/69/40 62/68/39
f 477/72/43 63/70/41 62/68/39 64/67/38
f 66/71/42 68/73/44 67/74/45 65/69/40
f 55/60/34 57/62/35 65/69/40 67/74/45
f 68/73/44 70/75/46 69/76/47 67/74/45
f 53/58/33 55/60/34 67/74/45 69/76/47
f 70/75/46 72/77/48 71/78/49 69/76/47
f 51/56/32 53/58/33 69/76/47 71/78/49
f 72/77/48 74/79/50 73/80/51 71/78/49
f 51/56/32 71/78/49 73/80/51 49/54/31
f 74/79/50 77/81/52 75/82/53 73/80/51
f 47/52/30 49/54/31 73/80/51 75/82/53
f 47/52/30 75/82/53 76/83/54 45/50/29
f 77/81/52 78/84/55 76/83/54 75/82/53
f 78/85/55 77/86/52 79/87/56 80/88/57
f 77/86/52 74/89/50 82/90/58 79/87/56
f 81/91/59 289/92/60 80/88/57 79/87/56
f 84/93/61 81/91/59 79/87/56 82/90/58
f 74/89/50 72/94/48 83/95/62 82/90/58
f 85/96/63 84/93/61 82/90/58 83/95/62
f 85/96/63 89/97/64 86/98/65 84/93/61
f 87/99/66 81/91/59 84/93/61 86/98/65
f 295/100/67 87/99/66 86/98/65 88/101/68
f 89/97/64 90/102/69 88/101/68 86/98/65
f 90/102/69 89/97/64 91/103/70 92/104/71
f 89/97/64 85/96/63 93/105/72 91/103/70
f 94/106/73 95/107/74 92/104/71 91/103/70
f 97/108/75 94/106/73 91/103/70 93/105/72
f 95/107/74 94/106/73 96/109/76 475/110/77
f 94/106/73 97/108/75 98/111/78 96/109/76
f 98/111/78 97/108/75 99/112/79 100/113/80
f 97/108/75 93/105/72 101/114/81 99/112/79
f 68/115/44 66/116/42 100/113/80 99/112/79
f 70/117/46 68/115/44 99/112/79 101/114/81
f 72/94/48 70/117/46 101/114/81 83/95/62
f 93/105/72 85/96/63 83/95/62 101/114/81
f 66/116/42 63/118/41 102/119/82 100/113/80
f 104/120/83 98/111/78 100/113/80 102/119/82
f 105/121/84 104/120/83 102/119/82 103/122/85
f 63/118/41 477/123/43 103/122/85 102/119/82
f 106/124/86 104/120/83 105/121/84 108/125/87
f 104/120/83 106/124/86 96/109/76 98/111/78
f 106/124/86 107/126/88 475/110/77 96/109/76
f 107/126/88 106/124/86 108/125/87 109/127/89
f 110/128/90 112/129/91 109/127/89 108/125/87
f 111/130/92 110/128/90 108/125/87 105/121/84
f 110/128/90 111/130/92 115/131/93 113/132/94
f 112/129/91 110/128/90 113/132/94 114/133/95
f 116/134/96 117/135/97 114/133/95 113/132/94
f 119/136/98 116/134/96 113/132/94 115/131/93
f 325/137/99 117/135/97 116/134/96 118/138/100
f 119/136/98 120/139/101 118/138/100 116/134/96
f 120/139/101 119/136/98 121/140/102 122/141/103
f 121/140/102 119/136/98 115/131/93 124/142/104
f 123/143/105 182/144/106 122/141/103 121/140/102
f 123/143/105 121/140/102 124/142/104 126/145/107
f 125/146/108 127/147/109 126/145/107 124/142/104
f 111/130/92 125/146/108 124/142/104 115/131/93
f 126/148/107 127/149/109 130/150/110 128/151/111
f 123/152/105 126/148/107 128/151/111 129/153/112
f 131/154/113 132/155/114 129/153/112 128/151/111
f 131/154/113 128/151/111 130/150/110 134/156/115
f 136/157/114 132/155/114 131/154/113 133/158/113
f 134/156/115 135/159/115 133/158/113 131/154/113
f 59/65/37 135/159/115 134/156/115 61/66/37
f 134/156/115 130/150/110 64/67/38 61/66/37
f 136/157/114 137/160/116 138/161/116 132/155/114
f 137/160/116 139/162/117 140/163/117 138/161/116
f 140/163/117 139/162/117 141/164/118 142/165/118
f 143/166/119 144/167/119 142/165/118 141/164/118
f 144/167/119 143/166/119 145/168/120 146/169/120
f 147/170/121 148/171/121 146/169/120 145/168/120
f 148/171/121 147/170/121 149/172/122 150/173/122
f 151/174/123 152/175/123 150/173/122 149/172/122
f 152/175/123 151/174/123 153/176/124 154/177/124
f 155/178/125 156/179/125 154/177/124 153/176/124
f 156/179/125 155/178/125 3/6/3 157/5/3
f 156/179/125 157/5/3 160/180/126 158/181/127
f 154/177/124 156/179/125 158/181/127 161/182/128
f 159/183/129 162/184/130 161/182/128 158/181/127
f 215/185/131 159/183/129 158/181/127 160/180/126
f 162/184/130 165/186/132 163/187/133 161/182/128
f 154/177/124 161/182/128 163/187/133 152/175/123
f 150/173/122 152/175/123 163/187/133 164/188/134
f 165/186/132 167/189/135 164/188/134 163/187/133
f 166/190/136 165/191/132 162/192/130 211/193/137
f 165/191/132 166/190/136 168/194/138 167/195/135
f 170/196/139 169/197/140 167/195/135 168/194/138
f 167/189/135 169/198/140 172/199/141 164/188/134
f 169/197/140 170/196/139 199/200/142 171/201/143
f 169/198/140 171/202/143 173/203/144 172/199/141
f 146/169/120 148/171/121 172/199/141 173/203/144
f 148/171/121 150/173/122 164/188/134 172/199/141
f 171/202/143 176/204/145 174/205/146 173/203/144
f 144/167/119 146/169/120 173/203/144 174/205/146
f 142/165/118 144/167/119 174/205/146 175/206/147
f 176/204/145 178/207/148 175/206/147 174/205/146
f 177/208/149 176/209/145 171/201/143 199/200/142
f 176/209/145 177/208/149 179/210/150 178/211/148
f 181/212/151 180/213/152 178/211/148 179/210/150
f 178/207/148 180/214/152 183/215/153 175/206/147
f 182/144/106 180/213/152 181/212/151 122/141/103
f 180/214/152 182/216/106 184/217/154 183/215/153
f 140/163/117 142/165/118 175/206/147 183/215/153
f 138/161/116 140/163/117 183/215/153 184/217/154
f 182/216/106 123/152/105 129/153/112 184/217/154
f 132/155/114 138/161/116 184/217/154 129/153/112
f 185/218/155 120/139/101 122/141/103 181/212/151
f 185/218/155 181/212/151 179/210/150 186/219/156
f 185/218/155 186/219/156 189/220/157 187/221/158
f 120/139/101 185/218/155 187/221/158 118/138/100
f 188/222/159 325/137/99 118/138/100 187/221/158
f 190/223/160 188/222/159 187/221/158 189/220/157
f 192/224/161 190/223/160 189/220/157 191/225/162
f 186/219/156 193/226/163 191/225/162 189/220/157
f 195/227/164 192/224/161 191/225/162 194/228/165
f 193/226/163 197/229/166 194/228/165 191/225/162
f 335/230/167 195/227/164 194/228/165 196/231/168
f 197/229/166 198/232/169 196/231/168 194/228/165
f 170/196/139 198/232/169 197/229/166 199/200/142
f 193/226/163 177/208/149 199/200/142 197/229/166
f 198/232/169 170/196/139 168/194/138 200/233/170
f 198/232/169 200/233/170 202/234/171 196/231/168
f 200/233/170 201/235/172 204/236/173 202/234/171
f 166/190/136 201/235/172 200/233/170 168/194/138
f 203/237/174 335/230/167 196/231/168 202/234/171
f 205/238/175 203/237/174 202/234/171 204/236/173
f 207/239/176 205/238/175 204/236/173 206/240/177
f 201/235/172 209/241/178 206/240/177 204/236/173
f 352/242/179 207/239/176 206/240/177 208/243/180
f 209/241/178 210/244/181 208/243/180 206/240/177
f 212/245/182 210/244/181 209/241/178 211/193/137
f 201/235/172 166/190/136 211/193/137 209/241/178
f 159/246/129 212/245/182 211/193/137 162/192/130
f 210/244/181 212/245/182 213/247/183 216/248/184
f 212/245/182 159/246/129 215/249/131 213/247/183
f 214/250/185 217/251/186 216/248/184 213/247/183
f 231/252/187 214/250/185 213/247/183 215/249/131
f 216/248/184 217/251/186 220/253/188 218/254/189
f 210/244/181 216/248/184 218/254/189 208/243/180
f 219/255/190 352/242/179 208/243/180 218/254/189
f 221/256/191 219/255/190 218/254/189 220/253/188
f 223/257/192 221/256/191 220/253/188 222/258/193
f 217/251/186 225/259/194 222/258/193 220/253/188
f 368/260/195 223/257/192 222/258/193 224/261/196
f 225/259/194 226/262/197 224/261/196 222/258/193
f 228/263/198 226/262/197 225/259/194 227/264/199
f 217/251/186 214/250/185 227/264/199 225/259/194
f 230/265/200 228/263/198 227/264/199 229/266/201
f 214/250/185 231/252/187 229/266/201 227/264/199
f 230/267/200 229/268/201 232/269/202 233/270/203
f 229/268/201 231/271/187 234/272/204 232/269/202
f 5/4/2 7/8/4 233/270/203 232/269/202
f 2/1/1 5/4/2 232/269/202 234/272/204
f 157/5/3 2/1/1 234/272/204 160/180/126
f 231/271/187 215/185/131 160/180/126 234/272/204
f 236/273/205 230/267/200 233/270/203 235/274/206
f 7/8/4 9/10/5 235/274/206 233/270/203
f 238/275/207 236/273/205 235/274/206 237/276/208
f 9/10/5 11/12/6 237/276/208 235/274/206
f 240/277/209 238/275/207 237/276/208 239/278/210
f 11/12/6 13/14/7 239/278/210 237/276/208
f 243/279/211 240/277/209 239/278/210 241/280/212
f 15/16/8 241/280/212 239/278/210 13/14/7
f 245/281/213 243/279/211 241/280/212 242/282/214
f 15/16/8 17/18/9 242/282/214 241/280/212
f 243/283/211 245/284/213 247/285/215 244/286/216
f 243/283/211 244/286/216 374/287/217 240/288/209
f 245/284/213 246/289/218 248/290/219 247/285/215
f 246/291/218 245/281/213 242/282/214 476/292/220
f 249/293/221 250/294/222 244/286/216 247/285/215
f 252/295/223 249/293/221 247/285/215 248/290/219
f 250/294/222 249/293/221 251/296/224 378/297/225
f 249/293/221 252/295/223 253/298/226 251/296/224
f 253/298/226 252/295/223 254/299/227 255/300/228
f 252/295/223 248/290/219 257/301/229 254/299/227
f 256/302/230 265/303/231 255/300/228 254/299/227
f 258/304/232 256/302/230 254/299/227 257/301/229
f 28/305/17 258/304/232 257/301/229 259/306/18
f 248/290/219 246/289/218 259/306/18 257/301/229
f 246/307/218 476/308/220 27/31/16 259/33/18
f 262/309/233 256/302/230 258/304/232 260/310/234
f 28/305/17 30/311/19 260/310/234 258/304/232
f 30/311/19 32/312/20 261/313/235 260/310/234
f 263/314/236 262/309/233 260/310/234 261/313/235
f 263/314/236 267/315/237 264/316/238 262/309/233
f 265/303/231 256/302/230 262/309/233 264/316/238
f 396/317/239 265/303/231 264/316/238 266/318/240
f 267/315/237 268/319/241 266/318/240 264/316/238
f 268/319/241 267/315/237 269/320/242 270/321/243
f 267/315/237 263/314/236 271/322/244 269/320/242
f 272/323/245 273/324/246 270/321/243 269/320/242
f 275/325/247 272/323/245 269/320/242 271/322/244
f 273/324/246 272/323/245 274/326/248 442/327/249
f 272/323/245 275/325/247 276/328/250 274/326/248
f 276/328/250 275/325/247 277/329/251 278/330/252
f 275/325/247 271/322/244 280/331/253 277/329/251
f 279/332/254 282/333/255 278/330/252 277/329/251
f 281/334/23 279/332/254 277/329/251 280/331/253
f 32/312/20 281/334/23 280/331/253 261/313/235
f 271/322/244 263/314/236 261/313/235 280/331/253
f 279/335/254 281/38/23 33/39/24 283/336/256
f 282/337/255 279/335/254 283/336/256 284/338/257
f 39/44/26 41/46/27 284/338/257 283/336/256
f 35/40/25 39/44/26 283/336/256 33/39/24
f 286/339/258 282/337/255 284/338/257 285/340/259
f 41/46/27 43/48/28 285/340/259 284/338/257
f 78/84/55 286/339/258 285/340/259 76/83/54
f 43/48/28 45/50/29 76/83/54 285/340/259
f 286/341/258 78/85/55 80/88/57 287/342/260
f 282/333/255 286/341/258 287/342/260 278/330/252
f 289/92/60 288/343/261 287/342/260 80/88/57
f 288/343/261 276/328/250 278/330/252 287/342/260
f 290/344/262 288/343/261 289/92/60 292/345/263
f 288/343/261 290/344/262 274/326/248 276/328/250
f 290/344/262 291/346/264 442/327/249 274/326/248
f 291/346/264 290/344/262 292/345/263 293/347/265
f 87/99/66 295/100/67 293/347/265 292/345/263
f 81/91/59 87/99/66 292/345/263 289/92/60
f 291/346/264 293/347/265 294/348/266 437/349/267
f 293/347/265 295/100/67 296/350/268 294/348/266
f 296/350/268 295/100/67 88/101/68 298/351/269
f 297/352/270 435/353/271 294/348/266 296/350/268
f 297/352/270 296/350/268 298/351/269 300/354/272
f 299/355/273 302/356/274 300/354/272 298/351/269
f 90/102/69 299/355/273 298/351/269 88/101/68
f 433/357/275 297/352/270 300/354/272 301/358/276
f 302/356/274 303/359/277 301/358/276 300/354/272
f 303/359/277 302/356/274 304/360/278 307/361/279
f 304/360/278 302/356/274 299/355/273 306/362/280
f 305/363/281 309/364/282 307/361/279 304/360/278
f 305/363/281 304/360/278 306/362/280 474/365/283
f 424/366/284 303/359/277 307/361/279 308/367/285
f 309/364/282 311/368/286 308/367/285 307/361/279
f 312/369/287 311/368/286 309/364/282 310/370/288
f 305/363/281 474/365/283 310/370/288 309/364/282
f 311/368/286 312/369/287 316/371/289 313/372/290
f 308/367/285 311/368/286 313/372/290 314/373/291
f 315/374/292 422/375/293 314/373/291 313/372/290
f 317/376/294 315/374/292 313/372/290 316/371/289
f 312/369/287 107/126/88 109/127/89 316/371/289
f 112/129/91 317/376/294 316/371/289 109/127/89
f 315/374/292 317/376/294 318/377/295 319/378/296
f 317/376/294 112/129/91 114/133/95 318/377/295
f 320/379/297 321/380/298 319/378/296 318/377/295
f 117/135/97 320/379/297 318/377/295 114/133/95
f 323/381/299 321/380/298 320/379/297 322/382/300
f 117/135/97 325/137/99 322/382/300 320/379/297
f 326/383/301 323/381/299 322/382/300 324/384/302
f 325/137/99 188/222/159 324/384/302 322/382/300
f 328/385/303 326/383/301 324/384/302 327/386/304
f 188/222/159 190/223/160 327/386/304 324/384/302
f 330/387/305 328/385/303 327/386/304 329/388/306
f 190/223/160 192/224/161 329/388/306 327/386/304
f 332/389/307 330/387/305 329/388/306 331/390/308
f 192/224/161 195/227/164 331/390/308 329/388/306
f 334/391/309 332/389/307 331/390/308 333/392/310
f 195/227/164 335/230/167 333/392/310 331/390/308
f 334/391/309 333/392/310 336/393/311 338/394/312
f 333/392/310 335/230/167 203/237/174 336/393/311
f 337/395/313 339/396/314 338/394/312 336/393/311
f 205/238/175 337/395/313 336/393/311 203/237/174
f 338/394/312 339/396/314 342/397/315 340/398/316
f 334/391/309 338/394/312 340/398/316 332/389/307
f 341/399/317 330/387/305 332/389/307 340/398/316
f 343/400/284 341/399/317 340/398/316 342/397/315
f 345/401/284 343/400/284 342/397/315 344/402/318
f 339/396/314 347/403/319 344/402/318 342/397/315
f 467/404/284 345/401/284 344/402/318 346/405/320
f 347/403/319 348/406/321 346/405/320 344/402/318
f 347/403/319 339/396/314 337/395/313 349/407/322
f 348/406/321 347/403/319 349/407/322 350/408/323
f 207/239/176 352/242/179 350/408/323 349/407/322
f 205/238/175 207/239/176 349/407/322 337/395/313
f 348/406/321 350/408/323 351/409/324 353/410/325
f 350/408/323 352/242/179 219/255/190 351/409/324
f 354/411/326 355/412/327 353/410/325 351/409/324
f 221/256/191 354/411/326 351/409/324 219/255/190
f 221/256/191 223/257/192 356/413/328 354/411/326
f 358/414/329 355/412/327 354/411/326 356/413/328
f 223/257/192 368/260/195 357/415/330 356/413/328
f 360/416/331 358/414/329 356/413/328 357/415/330
f 469/417/332 355/412/327 358/414/329 359/418/333
f 360/416/331 361/419/334 359/418/333 358/414/329
f 360/416/331 357/415/330 363/420/335 361/419/334
f 361/419/334 362/421/336 470/422/337 359/418/333
f 364/423/338 362/421/336 361/419/334 363/420/335
f 366/424/339 364/423/338 363/420/335 365/425/340
f 357/415/330 368/260/195 365/425/340 363/420/335
f 366/424/339 365/425/340 367/426/341 369/427/342
f 365/425/340 368/260/195 224/261/196 367/426/341
f 370/428/343 371/429/344 369/427/342 367/426/341
f 226/262/197 370/428/343 367/426/341 224/261/196
f 373/430/345 371/429/344 370/428/343 372/431/346
f 226/262/197 228/263/198 372/431/346 370/428/343
f 238/432/207 373/430/345 372/431/346 236/433/205
f 228/263/198 230/265/200 236/433/205 372/431/346
f 373/430/345 238/432/207 240/288/209 374/287/217
f 371/429/344 373/430/345 374/287/217 375/434/347
f 244/286/216 250/294/222 375/434/347 374/287/217
f 375/434/347 250/294/222 378/297/225 376/435/348
f 371/429/344 375/434/347 376/435/348 369/427/342
f 377/436/349 366/424/339 369/427/342 376/435/348
f 379/437/350 377/436/349 376/435/348 378/297/225
f 380/438/351 379/437/350 378/297/225 251/296/224
f 379/437/350 380/438/351 384/439/352 381/440/353
f 379/437/350 381/440/353 382/441/354 377/436/349
f 381/440/353 383/442/355 472/443/356 382/441/354
f 386/444/357 383/442/355 381/440/353 384/439/352
f 380/438/351 397/445/358 385/446/359 384/439/352
f 388/447/360 386/444/357 384/439/352 385/446/359
f 473/448/361 383/442/355 386/444/357 387/449/362
f 388/447/360 389/450/363 387/449/362 386/444/357
f 388/447/360 390/451/364 391/452/362 389/450/363
f 388/447/360 385/446/359 393/453/365 390/451/364
f 390/451/364 392/454/366 405/455/367 391/452/362
f 394/456/368 392/454/366 390/451/364 393/453/365
f 396/317/239 394/456/368 393/453/365 395/457/369
f 385/446/359 397/445/358 395/457/369 393/453/365
f 265/303/231 396/317/239 395/457/369 255/300/228
f 397/445/358 253/298/226 255/300/228 395/457/369
f 397/445/358 380/438/351 251/296/224 253/298/226
f 396/317/239 266/318/240 398/458/370 394/456/368
f 400/459/371 392/454/366 394/456/368 398/458/370
f 266/318/240 268/319/241 399/460/372 398/458/370
f 401/461/373 400/459/371 398/458/370 399/460/372
f 401/461/373 403/462/374 402/463/375 400/459/371
f 405/455/367 392/454/366 400/459/371 402/463/375
f 403/462/374 431/464/284 404/465/284 402/463/375
f 406/466/284 405/455/367 402/463/375 404/465/284
f 406/466/284 408/467/284 391/452/362 405/455/367
f 408/467/284 406/466/284 407/468/284 410/469/284
f 407/468/284 406/466/284 404/465/284 429/470/284
f 408/467/284 409/471/284 389/450/363 391/452/362
f 409/471/284 408/467/284 410/469/284 411/472/284
f 412/473/284 414/474/284 411/472/284 410/469/284
f 413/475/284 412/473/284 410/469/284 407/468/284
f 412/473/284 413/475/284 417/476/284 415/477/284
f 414/474/284 412/473/284 415/477/284 416/478/284
f 418/479/284 419/480/284 416/478/284 415/477/284
f 421/481/284 418/479/284 415/477/284 417/476/284
f 419/480/284 418/479/284 420/482/376 446/483/377
f 418/479/284 421/481/284 422/375/293 420/482/376
f 422/375/293 421/481/284 423/484/284 314/373/291
f 421/481/284 417/476/284 425/485/284 423/484/284
f 424/366/284 308/367/285 314/373/291 423/484/284
f 426/486/284 424/366/284 423/484/284 425/485/284
f 428/487/284 426/486/284 425/485/284 427/488/284
f 417/476/284 413/475/284 427/488/284 425/485/284
f 430/489/284 428/487/284 427/488/284 429/470/284
f 413/475/284 407/468/284 429/470/284 427/488/284
f 431/464/284 430/489/284 429/470/284 404/465/284
f 430/489/284 431/464/284 434/490/378 432/491/379
f 428/487/284 430/489/284 432/491/379 433/357/275
f 435/353/271 297/352/270 433/357/275 432/491/379
f 436/492/380 435/353/271 432/491/379 434/490/378
f 435/353/271 436/492/380 437/349/267 294/348/266
f 437/349/267 436/492/380 438/493/381 441/494/382
f 438/493/381 436/492/380 434/490/378 440/495/383
f 439/496/384 443/497/385 441/494/382 438/493/381
f 439/496/384 438/493/381 440/495/383 445/498/386
f 291/346/264 437/349/267 441/494/382 442/327/249
f 443/497/385 273/324/246 442/327/249 441/494/382
f 270/321/243 273/324/246 443/497/385 444/499/387
f 439/496/384 445/498/386 444/499/387 443/497/385
f 268/319/241 270/321/243 444/499/387 399/460/372
f 445/498/386 401/461/373 399/460/372 444/499/387
f 403/462/374 401/461/373 445/498/386 440/495/383
f 431/464/284 403/462/374 440/495/383 434/490/378
f 428/487/284 433/357/275 301/358/276 426/486/284
f 303/359/277 424/366/284 426/486/284 301/358/276
f 315/374/292 319/378/296 420/482/376 422/375/293
f 319/378/296 321/380/298 446/483/377 420/482/376
f 419/480/284 446/483/377 447/500/376 448/501/284
f 446/483/377 321/380/298 323/381/299 447/500/376
f 449/502/388 450/503/284 448/501/284 447/500/376
f 326/383/301 449/502/388 447/500/376 323/381/299
f 452/504/284 450/503/284 449/502/388 451/505/389
f 326/383/301 328/385/303 451/505/389 449/502/388
f 343/400/284 452/504/284 451/505/389 341/399/317
f 328/385/303 330/387/305 341/399/317 451/505/389
f 452/504/284 343/400/284 345/401/284 453/506/284
f 450/503/284 452/504/284 453/506/284 455/507/284
f 454/508/284 456/509/284 455/507/284 453/506/284
f 467/404/284 454/508/284 453/506/284 345/401/284
f 455/507/284 456/509/284 458/510/284 457/511/284
f 450/503/284 455/507/284 457/511/284 448/501/284
f 416/478/284 419/480/284 448/501/284 457/511/284
f 414/474/284 416/478/284 457/511/284 458/510/284
f 411/472/284 414/474/284 458/510/284 459/512/284
f 456/509/284 461/513/284 459/512/284 458/510/284
f 409/471/284 411/472/284 459/512/284 460/514/284
f 461/513/284 462/515/284 460/514/284 459/512/284
f 464/516/284 462/515/284 461/513/284 463/517/284
f 456/509/284 454/508/284 463/517/284 461/513/284
f 466/518/284 464/516/284 463/517/284 465/519/284
f 454/508/284 467/404/284 465/519/284 463/517/284
f 469/417/332 466/518/284 465/519/284 468/520/390
f 467/404/284 346/405/320 468/520/390 465/519/284
f 346/405/320 348/406/321 353/410/325 468/520/390
f 355/412/327 469/417/332 468/520/390 353/410/325
f 466/518/284 469/417/332 359/418/333 470/422/337
f 464/516/284 466/518/284 470/422/337 471/521/391
f 362/421/336 472/443/356 471/521/391 470/422/337
f 472/443/356 383/442/355 473/448/361 471/521/391
f 462/515/284 464/516/284 471/521/391 473/448/361
f 462/515/284 473/448/361 387/449/362 460/514/284
f 362/421/336 364/423/338 382/441/354 472/443/356
f 389/450/363 409/471/284 460/514/284 387/449/362
f 364/423/338 366/424/339 377/436/349 382/441/354
f 107/126/88 312/369/287 310/370/288 475/110/77
f 474/365/283 95/107/74 475/110/77 310/370/288
f 92/104/71 95/107/74 474/365/283 306/362/280
f 90/102/69 92/104/71 306/362/280 299/355/273
f 476/308/220 19/24/10 21/23/11 27/31/16
f 17/18/9 19/20/10 476/292/220 242/282/214
f 177/208/149 193/226/163 186/219/156 179/210/150
f 127/149/109 477/72/43 64/67/38 130/150/110
f 477/123/43 127/147/109 125/146/108 103/122/85
f 111/130/92 105/121/84 103/122/85 125/146/108
