# Blender 4.5.3 LTS
# www.blender.org
o Back
v -36.163563 -17.581219 16.239510
v -34.797985 -16.918316 20.443939
v -34.774067 -17.515669 18.595268
v -36.452358 -17.769722 12.928764
v -34.899464 -17.662516 13.013046
v -33.520603 -17.594704 12.986580
v -34.798176 -17.249249 19.585617
v -34.532295 -17.579494 16.150406
v -34.991131 -17.593781 14.866745
v -34.015774 -17.594841 13.717850
v -36.734177 -17.650898 15.486092
v -35.806896 -17.663357 14.077713
v -32.990101 -15.665560 20.478203
v -34.805965 -15.665560 21.230347
v -36.621834 -15.665560 20.478203
v -37.398899 -15.665560 18.619324
v -37.166660 -15.665560 12.988335
v -35.788708 -15.665560 11.658104
v -33.823227 -15.665560 11.658104
v -32.433422 -15.665560 13.047905
v -32.434559 -15.665560 19.650742
v -33.823227 -15.665560 21.034843
v -35.788708 -15.665560 21.034843
v -37.178513 -15.665560 19.645081
v -37.411957 -15.665560 14.096924
v -36.621834 -15.665560 12.214767
v -34.805965 -15.665560 11.462631
v -32.990101 -15.665560 12.214767
v -32.213322 -15.665560 14.048920
v -32.220566 -15.665560 18.616531
v -37.423809 -15.665560 17.320778
v -37.423809 -15.665560 15.032677
v -37.327789 -15.665560 13.547897
v -32.192474 -15.665560 16.269936
v -37.423809 -15.665560 16.048531
v -36.613918 -17.760283 12.217720
v -35.782375 -17.633179 11.662430
v -34.801067 -17.724297 11.678864
v -34.801193 -17.529610 11.467484
v -33.898914 -17.652222 11.858971
v -33.820274 -17.446049 11.662636
v -33.136097 -17.591923 12.368637
v -32.988735 -17.380945 12.218246
v -32.626026 -17.580858 13.133858
v -32.433109 -17.369761 13.049828
v -32.421432 -17.579063 14.076706
v -32.213356 -17.368008 14.049553
v -32.402134 -17.577135 16.271103
v -32.192505 -17.366631 16.269348
v -32.219845 -17.321638 18.608215
v -32.428787 -17.534739 18.605431
v -32.635380 -17.250568 19.592743
v -32.434330 -17.019489 19.648247
v -33.181503 -16.916018 20.443298
v -32.989841 -16.683424 20.477554
v -33.820793 -16.296257 21.031715
v -34.798016 -16.486654 21.058144
v -34.801212 -16.145094 21.226494
v -35.781582 -16.296251 21.031715
v -36.414646 -16.910370 20.443199
v -36.612473 -16.677444 20.477554
v -36.962276 -17.201468 19.586983
v -37.169067 -16.967138 19.642914
v -37.174999 -17.430119 18.589928
v -37.389732 -17.207640 18.611618
v -37.198303 -17.521164 17.173836
v -37.414162 -17.299210 17.306152
v -37.198265 -17.626398 15.927292
v -37.414074 -17.406931 16.042053
v -37.414066 -17.496027 15.024826
v -37.198299 -17.688778 15.177307
v -37.179779 -17.749048 14.100685
v -37.401268 -17.552992 14.091103
v -37.059250 -17.788441 13.317444
v -37.312290 -17.594944 13.518394
v -36.937462 -17.838268 12.967102
v -37.156036 -17.714952 12.983803
v -35.677834 -16.613935 20.893951
v -33.918205 -16.613935 20.893951
v -36.477177 -17.871296 12.344872
v -35.714466 -17.789303 11.850418
v -34.617260 -17.570309 17.147591
v -32.403816 -17.576233 17.144150
v -32.193909 -17.366140 17.139771
v -32.194172 -15.665560 17.144753
v -35.587887 -17.548008 17.030708
v -32.400036 -17.578043 15.188774
v -32.190430 -17.367228 15.178917
v -32.190357 -15.665560 15.178696
v -34.156475 -17.639620 12.568016
v -32.763966 -17.584057 14.208206
v -32.537148 -17.582903 15.222069
v -32.736923 -17.581856 16.253334
v -32.774399 -17.580269 17.142914
v -32.795811 -17.539930 18.597389
v -32.972328 -17.264532 19.569298
v -33.437351 -16.943285 20.406395
v -33.983570 -16.677809 20.815903
v -34.797939 -16.589523 20.931465
v -35.612366 -16.677816 20.815880
v -36.158798 -16.938519 20.406174
v -36.625160 -17.222656 19.564133
v -36.808674 -17.460777 18.488098
v -37.002987 -17.534397 17.063530
v -37.081360 -17.633053 15.892815
v -37.072475 -17.686436 15.207146
v -36.949341 -17.736311 14.116798
v -36.846703 -17.764418 13.316696
v -36.828159 -17.806309 12.963387
v -36.415524 -17.832855 12.418648
v -35.792545 -17.772650 12.062805
v -34.824284 -17.716150 11.909813
v -33.970650 -17.653667 12.017273
v -33.238071 -17.596258 12.490067
v -32.803230 -17.585844 13.156708
v -32.237587 -17.423664 16.269745
v -32.343929 -17.531429 16.270737
v -37.108871 -17.753218 12.979683
v -36.997749 -17.816727 12.970100
v -34.801102 -17.583250 11.513008
v -34.800941 -17.683010 11.620293
v -33.837143 -17.502159 11.704926
v -33.876972 -17.607746 11.804588
v -33.020409 -17.438101 12.250626
v -33.095139 -17.546146 12.326996
v -32.474594 -17.426937 13.067947
v -32.572449 -17.535013 13.110588
v -32.258106 -17.425165 14.055397
v -32.363659 -17.533216 14.069244
v -32.477638 -17.080830 19.636505
v -32.579823 -17.198740 19.608894
v -33.031551 -16.744473 20.471413
v -33.130001 -16.861675 20.456978
v -33.841827 -16.376245 21.002296
v -33.891640 -16.538095 20.932854
v -34.800388 -16.230356 21.190239
v -34.798725 -16.404659 21.104752
v -35.758953 -16.376238 21.002296
v -35.705811 -16.538090 20.932854
v -36.569256 -16.738558 20.471397
v -36.467506 -16.855927 20.456902
v -37.124363 -17.029179 19.631081
v -37.019108 -17.148741 19.603233
v -37.343403 -17.267258 18.606941
v -37.234287 -17.381109 18.596001
v -37.367599 -17.358862 17.275749
v -37.257915 -17.472767 17.204300
v -37.367527 -17.466064 16.015709
v -37.257870 -17.578753 15.953629
v -37.353409 -17.606981 14.093094
v -37.240688 -17.707552 14.097801
v -37.257240 -17.648811 13.472145
v -37.127602 -17.749117 13.363426
v -36.584473 -17.795774 12.245056
v -36.515125 -17.852755 12.309517
v -32.239052 -17.423077 17.140800
v -32.345543 -17.530609 17.143234
v -32.235504 -17.424332 15.181129
v -32.341835 -17.532259 15.186417
v -35.733376 -17.758730 11.798035
v -35.767761 -17.678528 11.702820
v -32.370808 -17.488081 18.607155
v -32.264790 -17.379166 18.607864
v -37.257893 -17.647530 15.142189
v -37.367531 -17.549103 15.059753
v -32.215908 -17.052280 18.609543
v -37.419800 -17.205290 15.022896
v -36.617794 -17.438160 12.214767
v -37.419903 -17.032465 17.311203
v -34.802464 -16.020208 21.230347
v -37.174652 -16.741676 19.644302
v -32.209316 -17.092888 14.048920
v -32.986103 -17.104218 12.214767
v -34.801949 -17.234621 11.462631
v -32.430500 -16.787542 19.649704
v -37.319675 -17.291771 13.527168
v -37.161949 -17.398243 12.984856
v -35.784676 -17.326027 11.658104
v -37.419807 -17.126768 16.045456
v -37.407253 -17.255054 14.091835
v -32.986244 -16.493517 20.478203
v -35.785049 -16.152966 21.034843
v -37.395374 -16.952337 18.613281
v -32.188438 -17.091694 16.269379
v -33.819572 -16.152966 21.034843
v -36.617981 -16.488276 20.478203
v -33.819218 -17.161272 11.658104
v -32.429420 -17.094431 13.047905
v -32.189877 -17.091274 17.140457
v -32.186359 -17.092216 15.178696
v -36.828999 -17.600309 16.221199
v -36.863495 -17.785563 13.098083
v -34.157104 -17.619415 13.051819
v -33.115292 -17.586868 12.862068
v -37.036301 -17.662390 15.557991
v -32.383041 -17.479950 13.555260
v -35.275913 -16.354277 21.100128
v -34.323204 -16.354277 21.100128
v -36.847782 -17.819483 12.638031
v -33.071861 -17.582626 15.475784
v -35.035496 -17.567291 16.787247
v -34.357327 -16.552780 20.979279
v -35.238556 -16.552774 20.979279
v -32.880783 -17.587164 12.749634
v -32.533951 -17.584724 13.593590
v -32.301731 -17.394821 13.534531
v -32.464348 -17.565077 13.576027
v -35.297165 -16.218491 21.165474
v -35.254654 -16.490063 21.034775
v -34.304573 -16.218491 21.165474
v -34.341835 -16.490063 21.034760
v -36.919464 -17.775841 12.610550
v -36.776093 -17.863113 12.665504
v -35.302189 -17.538227 11.512436
v -34.300392 -17.447624 11.512436
v -33.374855 -17.369629 11.895813
v -32.666470 -17.332064 12.604195
v -32.283096 -17.329895 13.529732
v -32.184586 -17.328672 14.604645
v -37.319889 -17.061281 19.159660
v -37.419510 -17.223520 17.978943
v -37.419159 -17.311932 16.654221
v -37.419144 -17.490314 14.526489
v -37.368553 -17.529766 13.776230
v -37.268917 -17.614645 13.275314
v -36.936108 -17.720493 12.604195
v -36.227722 -17.669746 11.895813
v -32.188446 -17.327553 16.671143
v -37.419147 -17.416592 15.514053
v -32.190273 -17.326897 17.856750
v -32.186806 -17.328053 15.752693
v -36.561619 -17.724266 13.775665
v -34.053806 -17.584909 14.697830
v -33.177864 -17.585743 13.484085
v -33.877335 -17.097633 20.028008
v -35.403206 -16.758596 20.710617
v -34.192753 -16.758577 20.710686
v -35.718849 -17.086735 20.027725
v -35.552097 -17.535580 17.847626
v -36.033958 -17.715504 13.331230
v -36.449425 -17.800564 12.585037
v -35.513577 -17.732157 12.422157
v -35.904285 -17.375759 19.125412
v -33.694145 -17.416443 19.136055
v -33.648655 -17.579916 16.672401
v -35.906311 -17.620779 15.161888
v -36.685944 -17.688011 14.733185
v -32.289780 -17.477907 15.755196
v -32.766724 -16.974251 20.070526
v -36.149101 -16.618742 20.759392
v -33.450012 -16.618742 20.759392
v -37.312702 -17.468393 16.571152
v -37.147591 -17.740086 13.203850
v -36.832539 -16.950930 20.070351
v -37.312927 -17.378510 17.941864
v -36.178150 -17.779974 11.976662
v -35.284809 -17.672251 11.612785
v -33.431362 -17.518745 11.982819
v -32.751793 -17.482275 12.662369
v -37.216148 -17.220526 19.143707
v -32.387642 -17.307190 19.165047
v -34.319363 -17.593555 11.615013
v -37.312801 -17.630424 14.590958
v -37.249584 -17.675730 13.709686
v -32.293545 -17.476242 17.860146
v -37.312687 -17.564009 15.530098
v -34.838783 -17.620104 13.865715
v -34.451393 -17.671070 12.280937
v -36.480312 -17.527508 17.286545
v -33.649803 -17.574320 17.858406
v -32.291485 -17.477232 16.672249
v -32.287567 -17.478683 14.612312
v -33.719597 -17.619961 12.449348
v -32.443035 -17.583422 14.622452
v -32.445240 -17.582466 15.757706
v -32.447014 -17.581537 16.673386
v -32.449310 -17.580908 17.861313
v -32.539314 -17.421787 19.137978
v -32.911926 -17.097916 20.028008
v -33.556438 -16.776905 20.687073
v -36.039520 -16.776917 20.687042
v -36.684414 -17.075676 20.027550
v -37.061584 -17.339363 19.116692
v -37.154125 -17.489542 17.902748
v -37.154022 -17.579302 16.488235
v -37.154003 -17.664886 15.546196
v -37.154282 -17.722414 14.657928
v -37.078068 -17.768156 13.645866
v -36.972012 -17.802519 13.132721
v -36.715065 -17.849878 12.689148
v -36.103218 -17.825979 12.099396
v -35.259026 -17.752533 11.764313
v -34.348972 -17.692131 11.768829
v -33.517132 -17.621948 12.113358
v -32.206009 -17.392937 15.753159
v -32.373550 -17.562880 15.757309
v -32.685165 -16.883902 20.085381
v -32.848289 -17.064598 20.055710
v -36.212894 -16.509851 20.790085
v -36.085308 -16.727627 20.728706
v -33.388844 -16.509851 20.790085
v -33.511181 -16.727627 20.728706
v -37.399090 -17.378061 16.638481
v -37.226315 -17.558727 16.503815
v -37.246017 -17.674961 13.261612
v -37.049164 -17.805223 13.146088
v -36.916603 -16.860058 20.085312
v -36.748466 -17.041788 20.055397
v -37.399429 -17.289368 17.971733
v -37.226429 -17.467649 17.911934
v -36.218342 -17.727207 11.910973
v -36.137947 -17.832747 12.042404
v -35.298840 -17.600149 11.531250
v -35.270779 -17.744352 11.694321
v -33.385349 -17.434378 11.912125
v -33.477379 -17.603107 12.053535
v -32.682365 -17.397013 12.615097
v -32.821224 -17.567547 12.709641
v -37.300323 -17.127920 19.156578
v -37.131969 -17.313122 19.130821
v -32.305874 -17.217201 19.177933
v -32.469402 -17.397184 19.152145
v -34.334862 -17.675335 11.698341
v -34.303852 -17.511772 11.531654
v -37.226490 -17.707476 14.643555
v -37.399101 -17.553377 14.538445
v -37.153076 -17.757538 13.655960
v -37.346096 -17.593922 13.763412
v -32.209518 -17.391691 17.857231
v -32.377567 -17.560795 17.863068
v -37.226292 -17.646999 15.543251
v -37.399090 -17.481018 15.516899
v -32.207661 -17.392405 16.671257
v -32.375313 -17.562069 16.673248
v -32.203789 -17.393587 14.606117
v -32.371342 -17.563774 14.618553
v -32.287167 -17.151154 19.181061
v -32.666527 -16.817778 20.088791
v -33.375011 -16.439442 20.797157
v -34.300694 -16.141882 21.180557
v -35.302502 -16.141874 21.180557
v -36.227901 -16.439442 20.797157
v -36.936192 -16.793810 20.088791
v -35.348495 -17.574226 16.095146
v -37.046585 -17.584421 16.421463
v -36.968136 -17.640497 15.798119
v -36.461990 -17.616064 15.822884
v -36.654514 -17.557440 16.744804
v -36.650288 -17.764174 13.173698
v -36.917660 -17.789410 13.124046
v -36.738773 -17.793570 12.935211
v -34.423763 -17.648668 12.704140
v -33.915646 -17.619143 12.746201
v -33.719200 -17.594658 13.314896
v -34.459614 -17.619989 13.410294
v -33.376369 -17.595470 12.686546
v -32.961174 -17.587061 12.792297
v -33.116417 -17.586140 13.131599
v -35.306866 -15.665560 11.512436
v -35.302845 -17.275843 11.512436
v -34.305069 -15.665560 11.512436
v -34.301052 -17.196568 11.512436
v -33.379520 -15.665560 11.895813
v -33.375511 -17.128326 11.895813
v -32.671131 -15.665560 12.604195
v -32.667130 -17.095449 12.604195
v -32.287766 -15.665560 13.529732
v -32.283764 -17.093554 13.529732
v -32.189247 -15.665560 14.604645
v -32.185242 -17.092485 14.604645
v -37.324173 -15.665560 19.163231
v -37.320515 -16.858509 19.160194
v -37.423809 -15.665560 16.661049
v -37.419815 -17.077839 16.655212
v -37.423809 -15.665560 14.534088
v -37.419792 -17.233927 14.527565
v -37.376400 -15.665560 13.792290
v -37.369652 -17.268440 13.778473
v -36.940807 -15.665560 12.604195
v -36.936764 -17.435329 12.604195
v -36.232414 -15.665560 11.895813
v -36.228374 -17.390924 11.895813
v -32.193260 -15.665560 16.673630
v -32.189133 -17.091499 16.671463
v -37.423809 -15.665560 15.521660
v -37.419807 -17.169409 15.515121
v -37.098408 -17.663635 15.549088
v -36.932373 -17.674545 15.283379
v -32.523521 -17.480972 13.089249
v -32.331444 -17.425922 13.542122
v -32.310879 -17.479185 14.062317
v -32.434643 -17.533972 13.568451
v -34.799557 -16.317507 21.147514
v -35.289402 -16.268108 21.141563
v -35.732388 -16.457163 20.967590
v -35.262424 -16.440449 21.058617
v -33.866730 -16.457169 20.967590
v -34.311378 -16.268108 21.141563
v -34.335026 -16.440449 21.058617
v -37.053310 -17.784969 12.974884
v -36.893276 -17.791788 12.620598
v -36.549797 -17.824265 12.277283
v -36.802288 -17.847172 12.655464
v -32.626427 -17.583223 14.837074
v -32.628075 -17.582495 15.687164
v -33.504288 -17.581551 16.200340
v -33.604473 -17.583286 15.140388
v -35.173138 -17.567064 16.556923
v -34.570007 -17.576008 16.700676
v -35.224037 -17.555763 17.167473
v -32.191467 -15.665560 15.752693
v -32.187469 -17.091942 15.752693
v -34.347858 -16.521412 21.013344
v -34.797939 -16.518766 21.023094
v -34.321777 -16.619915 20.891914
v -33.936794 -16.642824 20.862411
v -35.248173 -16.521408 21.013344
v -35.659107 -16.642824 20.862396
v -35.274120 -16.619921 20.891914
v -32.844124 -17.582283 12.725075
v -32.666668 -17.585752 13.151306
v -33.167278 -17.596664 12.399864
v -32.491135 -17.579809 13.582802
v -32.465218 -17.583984 14.082092
v -32.720352 -17.584980 13.572601
v -32.446419 -17.395819 13.055664
v -32.287693 -17.368765 13.530914
v -32.227715 -17.394066 14.051445
v -32.394039 -17.564322 14.073227
v -32.600620 -17.566124 13.122849
v -34.800865 -16.180185 21.214813
v -35.300953 -16.183676 21.176765
v -35.774250 -16.329643 21.022255
v -35.690517 -16.584686 20.912857
v -34.798241 -16.454832 21.080185
v -33.827492 -16.329643 21.022255
v -34.301456 -16.183676 21.176765
v -33.905972 -16.584690 20.912842
v -37.140858 -17.734936 12.982445
v -36.931896 -17.756969 12.605797
v -36.604439 -17.779373 12.226479
v -36.495163 -17.869156 12.328064
v -36.752567 -17.864843 12.674583
v -36.965752 -17.835009 12.967323
v -34.801292 -17.491116 11.462631
v -35.301292 -17.576344 11.517143
v -35.784023 -17.595575 11.658104
v -33.818554 -17.407291 11.658104
v -34.301193 -17.486303 11.517250
v -32.985432 -17.342079 12.214767
v -33.377415 -17.408455 11.899895
v -32.428757 -17.330889 13.047905
v -32.670380 -17.370937 12.606918
v -32.208656 -17.329140 14.048920
v -32.185696 -17.328363 15.178696
v -32.189316 -17.367546 14.605011
v -37.394787 -17.168499 18.612259
v -37.314926 -17.100576 19.158844
v -37.173977 -16.927742 19.644165
v -37.419247 -17.260078 17.309601
v -37.414433 -17.262615 17.976982
v -37.420132 -17.000477 17.980446
v -37.419159 -17.367846 16.044937
v -37.414078 -17.351101 16.650200
v -37.406490 -17.514462 14.090996
v -37.414066 -17.528721 14.529350
v -37.419144 -17.457598 15.021301
v -37.318356 -17.556429 13.523773
v -37.362843 -17.568439 13.772812
v -37.161182 -17.678110 12.984306
v -37.263100 -17.652359 13.271713
v -37.270016 -17.342716 13.277557
v -36.617146 -17.723728 12.214767
v -36.225330 -17.706753 11.899605
v -32.189167 -17.327290 17.139748
v -32.193188 -17.366402 16.671143
v -32.187771 -17.327770 16.269302
v -37.414066 -17.455334 15.514656
v -32.215137 -17.282732 18.608414
v -32.195011 -17.365736 17.856766
v -32.191021 -17.090933 17.857834
v -32.191540 -17.366911 15.752823
v -36.496025 -17.704136 14.149826
v -36.922585 -17.753052 13.679466
v -36.294533 -17.715326 13.593529
v -34.769653 -17.581936 15.457047
v -34.453896 -17.594757 14.241745
v -33.442646 -17.585415 13.984474
v -34.026024 -16.930557 20.425934
v -34.798016 -17.088537 20.040085
v -33.761707 -17.259655 19.577766
v -33.175678 -17.104080 20.015892
v -34.797958 -16.737343 20.739716
v -35.864918 -16.784424 20.675629
v -35.570038 -16.927849 20.425781
v -33.731083 -16.784395 20.675713
v -36.420692 -17.084898 20.015388
v -35.835106 -17.235838 19.574814
v -36.161224 -17.517790 17.702179
v -34.699444 -17.561037 17.855476
v -35.839054 -17.483370 18.582146
v -35.775215 -17.722034 12.952766
v -35.326221 -17.660501 13.564095
v -36.626408 -17.825891 12.671715
v -36.177044 -17.810156 12.241707
v -36.104893 -17.770460 12.483673
v -35.318405 -17.743204 11.954391
v -34.890686 -17.695684 12.366089
v -36.746780 -17.350903 19.113281
v -34.798580 -17.401686 19.138031
v -33.661301 -17.532999 18.597908
v -32.853546 -17.422365 19.131920
v -32.292301 -15.665560 19.186035
v -32.287910 -16.937159 19.181732
v -32.671135 -15.665560 20.088791
v -32.667221 -16.645445 20.088791
v -33.379520 -15.665560 20.797157
v -33.375755 -16.314413 20.797157
v -34.305069 -15.665560 21.180557
v -34.301514 -16.054043 21.180557
v -35.303310 -16.054043 21.180557
v -35.306866 -15.665560 21.180557
v -36.228649 -16.314413 20.797157
v -36.232414 -15.665560 20.797157
v -36.936890 -16.624481 20.088791
v -36.940804 -15.665560 20.088791
v -37.423809 -15.665560 17.989342
v -37.276772 -15.665560 13.291420
v -33.649109 -17.577568 17.141815
v -32.773605 -17.581079 16.673035
v -36.283012 -17.655430 14.876877
v -35.314411 -17.620207 14.441704
v -35.585056 -17.591297 15.573067
v -37.011051 -17.712385 14.677879
v -32.288670 -17.478296 15.183769
v -32.236622 -17.423986 15.753906
v -32.290756 -17.477547 16.270226
v -32.342941 -17.531834 15.756554
v -32.528728 -17.139784 19.622711
v -32.714970 -16.916914 20.079971
v -33.080776 -16.803074 20.464188
v -32.818489 -17.031582 20.061119
v -36.189590 -16.549633 20.778854
v -36.518379 -16.797241 20.464134
v -36.108616 -16.687838 20.739914
v -33.411198 -16.549633 20.778854
v -33.488834 -16.687838 20.739914
v -37.312759 -17.415815 17.240044
v -37.367527 -17.411064 16.613907
v -37.312698 -17.522409 15.984680
v -37.257877 -17.525723 16.528404
v -37.192421 -17.698965 13.417778
v -37.210056 -17.698757 13.240494
v -37.085125 -17.781425 13.167168
v -36.885891 -16.893257 20.079842
v -37.071743 -17.088959 19.617157
v -36.779190 -17.008593 20.060867
v -37.288845 -17.324179 18.601456
v -37.367817 -17.321936 17.960823
v -37.258041 -17.435080 17.922890
v -36.203659 -17.746490 11.934967
v -35.750568 -17.718626 11.750458
v -36.152637 -17.813457 12.018379
v -35.293713 -17.626493 11.561028
v -34.801022 -17.633133 11.566643
v -35.275909 -17.718008 11.664520
v -33.402164 -17.465204 11.937981
v -33.057774 -17.492121 12.288818
v -33.460567 -17.572283 12.027679
v -33.857063 -17.554953 11.754761
v -32.707733 -17.428171 12.632370
v -32.795856 -17.536390 12.692390
v -37.269566 -17.161757 19.151886
v -37.162724 -17.279287 19.135536
v -32.335754 -17.250076 19.173210
v -32.439526 -17.364296 19.156868
v -32.317795 -17.433626 18.607513
v -34.329197 -17.645458 11.667900
v -34.309509 -17.541653 11.562119
v -37.258026 -17.679327 14.624359
v -37.312710 -17.598318 15.100983
v -37.367569 -17.581533 14.557632
v -37.297050 -17.657263 14.095451
v -37.188335 -17.727646 13.675606
v -37.310825 -17.623819 13.743782
v -32.292301 -17.476841 17.142044
v -32.240219 -17.422583 17.858299
v -32.346867 -17.529892 17.862000
v -37.257866 -17.616678 15.538445
v -37.367519 -17.511337 15.521698
v -34.379841 -17.685820 11.922470
v -34.094696 -17.648947 12.273201
v -35.886627 -17.557512 16.681747
v -36.959503 -17.499687 17.747536
v -32.775616 -17.579559 17.859375
v -32.195564 -15.665560 17.864227
v -32.238289 -17.423401 16.671646
v -32.344685 -17.531069 16.672852
v -32.234398 -17.424681 14.608376
v -32.340733 -17.532681 14.616257
v -33.582310 -17.621132 12.219109
v -32.398937 -17.578506 14.620239
v -32.444138 -17.582945 15.189430
v -32.401142 -17.577589 15.757660
v -32.446232 -17.581999 16.271057
v -32.402908 -17.576721 16.673401
v -32.447922 -17.581146 17.143745
v -32.405197 -17.575573 17.862953
v -32.472626 -17.541039 18.601074
v -32.496311 -17.413717 19.147133
v -32.676647 -17.261339 19.578255
v -32.873608 -17.083351 20.047081
v -33.215172 -16.935204 20.420029
v -33.529552 -16.752508 20.714767
v -36.066494 -16.752508 20.714752
v -36.380924 -16.929667 20.419853
v -36.722755 -17.060745 20.046684
v -36.920975 -17.212919 19.572403
v -37.104660 -17.330368 19.125793
v -37.131042 -17.437437 18.585159
v -37.198372 -17.483414 17.906189
v -37.154049 -17.526541 17.170174
v -37.198273 -17.574295 16.492126
v -37.154011 -17.631018 15.924446
v -37.198250 -17.661047 15.545494
v -37.154076 -17.691740 15.181412
v -37.198479 -17.720100 14.653221
v -37.135368 -17.750135 14.103516
v -37.123184 -17.769630 13.647240
v -37.013294 -17.783321 13.312965
v -37.018520 -17.812059 13.136055
v -36.892998 -17.824955 12.969894
v -36.448406 -17.856979 12.371811
v -36.124630 -17.837137 12.064224
v -35.699944 -17.782595 11.890625
v -35.266220 -17.754719 11.721191
v -34.801643 -17.725731 11.722900
v -34.340183 -17.688972 11.725548
v -33.915855 -17.656075 11.899750
v -33.492630 -17.617550 12.076645
v -32.206978 -17.392647 16.269463
v -32.204895 -17.393265 15.179604
v -32.372444 -17.563328 15.187912
v -32.374538 -17.562454 16.270973
v -32.671097 -16.856945 20.087906
v -33.003208 -16.710728 20.475578
v -32.448223 -17.046885 19.644478
v -32.609238 -17.232683 19.600945
v -33.158340 -16.895412 20.452835
v -36.224010 -16.479685 20.795380
v -36.598541 -16.704765 20.475563
v -36.438217 -16.889711 20.452736
v -33.378326 -16.479685 20.795380
v -37.399174 -17.326069 17.296318
v -37.399090 -17.433613 16.033569
v -37.226295 -17.611197 15.935776
v -37.226345 -17.505556 17.183739
v -37.294556 -17.619938 13.503441
v -37.090282 -17.777987 13.332123
v -36.931202 -16.833012 20.087875
v -37.154671 -16.994757 19.639069
v -36.988808 -17.183165 19.595222
v -37.374821 -17.234480 18.610069
v -37.202873 -17.413879 18.592865
v -35.777664 -17.655432 11.675415
v -35.723480 -17.781824 11.825478
v -34.801144 -17.554533 11.482117
v -34.800896 -17.711727 11.651169
v -32.998898 -17.407001 12.228638
v -33.825676 -17.471762 11.676216
v -33.888439 -17.638138 11.833298
v -33.116650 -17.577244 12.348976
v -32.291763 -17.190308 19.180199
v -32.234268 -17.347813 18.608078
v -32.401329 -17.519440 18.606956
v -37.226334 -17.675863 15.165932
v -37.208244 -17.736494 14.099159
v -37.385860 -17.578032 14.091705
v -37.399090 -17.520771 15.036011
v -32.208397 -17.392118 17.140083
v -32.376205 -17.561560 17.143967
v -32.429810 -16.980173 19.649551
v -32.985531 -16.644140 20.478203
v -33.818794 -16.254942 21.034843
v -34.801632 -16.103212 21.230347
v -35.784271 -16.254942 21.034843
v -36.617264 -16.638149 20.478203
vn -0.0046 -0.9979 0.0651
vn 0.0065 -0.9964 0.0843
vn 0.0205 -0.9967 0.0787
vn 0.0054 -0.9979 0.0641
vn 0.0112 -0.9959 0.0899
vn 0.0280 -0.9963 0.0812
vn 0.0548 -0.9966 0.0619
vn 0.0424 -0.9973 0.0603
vn 0.0215 -0.9985 0.0505
vn 0.0798 -0.9938 0.0769
vn 0.0682 -0.9946 0.0784
vn 0.1233 -0.9829 0.1365
vn 0.1529 -0.9763 0.1530
vn 0.0891 -0.9934 0.0724
vn 0.1791 -0.9699 0.1649
vn 0.2451 -0.9408 0.2342
vn 0.0596 -0.9970 0.0488
vn 0.0590 -0.9972 0.0461
vn 0.0473 -0.9982 0.0356
vn 0.0461 -0.9983 0.0370
vn 0.0572 -0.9974 0.0435
vn 0.0497 -0.9981 0.0352
vn 0.0312 -0.9994 0.0179
vn 0.0268 -0.9995 0.0179
vn 0.0245 -0.9995 0.0193
vn 0.0333 -0.9992 0.0236
vn 0.0128 -0.9999 0.0106
vn 0.0092 -0.9999 0.0047
vn 0.0294 -0.9992 0.0273
vn 0.0069 -0.9999 0.0108
vn 0.0008 -1.0000 0.0024
vn -0.3828 -0.0009 -0.9238
vn -0.1952 -0.0005 -0.9808
vn -0.1950 -0.0005 -0.9808
vn -0.3826 -0.0009 -0.9239
vn -0.0002 -0.0000 -1.0000
vn -0.0000 -0.0000 -1.0000
vn 0.1949 0.0005 -0.9808
vn 0.1951 0.0005 -0.9808
vn 0.3825 0.0010 -0.9240
vn 0.3826 0.0010 -0.9239
vn 0.5554 0.0015 -0.8316
vn 0.5555 0.0015 -0.8315
vn 0.7070 0.0020 -0.7072
vn 0.7071 0.0020 -0.7071
vn 0.8314 0.0023 -0.5557
vn 0.8315 0.0023 -0.5556
vn 0.9239 0.0026 -0.3827
vn 0.9763 0.0027 -0.2163
vn 0.9957 0.0028 -0.0927
vn 0.9998 0.0028 -0.0207
vn 1.0000 0.0028 0.0019
vn -0.9239 -0.0036 0.3827
vn -0.9769 -0.0035 0.2135
vn -0.9770 -0.0035 0.2134
vn -0.9961 -0.0032 0.0880
vn -0.9961 -0.0032 0.0879
vn -1.0000 -0.0028 -0.0000
vn -1.0000 -0.0028 0.0001
vn -1.0000 -0.0028 -0.0001
vn -1.0000 -0.0027 0.0001
vn -1.0000 -0.0027 0.0002
vn -1.0000 -0.0026 0.0001
vn -0.9999 -0.0026 -0.0139
vn -0.9999 -0.0026 -0.0141
vn -0.9974 -0.0028 -0.0727
vn -0.9973 -0.0028 -0.0734
vn -0.9877 -0.0027 -0.1561
vn -0.9876 -0.0026 -0.1568
vn -0.9808 -0.0024 -0.1949
vn -0.9808 -0.0024 -0.1948
vn -0.9040 -0.0015 -0.4275
vn -0.8200 -0.0017 -0.5724
vn -0.8197 -0.0017 -0.5728
vn -0.9035 -0.0015 -0.4287
vn -0.7071 -0.0016 -0.7071
vn -0.5556 -0.0013 -0.8314
vn -0.5555 -0.0013 -0.8315
vn 1.0000 0.0029 0.0018
vn 1.0000 0.0029 0.0017
vn 1.0000 0.0028 0.0018
vn 1.0000 0.0030 0.0018
vn 1.0000 0.0030 0.0017
vn 0.0236 -0.9967 0.0779
vn 0.0350 -0.9966 0.0741
vn 0.0481 -0.9969 0.0616
vn 0.0543 -0.9968 0.0595
vn 0.6585 -0.7025 -0.2700
vn 0.6583 -0.7025 -0.2703
vn 0.6958 -0.7019 -0.1522
vn 0.6959 -0.7019 -0.1518
vn 0.6582 -0.7025 -0.2706
vn 0.6957 -0.7019 -0.1525
vn 0.7096 -0.7016 -0.0649
vn 0.7097 -0.7015 -0.0646
vn 0.7098 -0.7015 -0.0642
vn 0.0001 -0.4402 0.8979
vn 0.0001 -0.4403 0.8979
vn -0.1065 -0.4410 0.8912
vn -0.1050 -0.4407 0.8915
vn -0.1079 -0.4411 0.8910
vn -0.2162 -0.4371 0.8730
vn -0.2114 -0.4361 0.8747
vn -0.2062 -0.4348 0.8766
vn 0.2077 -0.4316 0.8778
vn 0.2131 -0.4327 0.8760
vn 0.1069 -0.4393 0.8919
vn 0.1054 -0.4391 0.8922
vn 0.2180 -0.4337 0.8743
vn 0.1084 -0.4394 0.8917
vn -0.5133 -0.8444 -0.1535
vn -0.5111 -0.8491 -0.1335
vn -0.4407 -0.8582 -0.2633
vn -0.4399 -0.8574 -0.2669
vn -0.5090 -0.8528 -0.1165
vn -0.4415 -0.8588 -0.2598
vn -0.3417 -0.8507 -0.3995
vn -0.3435 -0.8507 -0.3980
vn -0.3453 -0.8507 -0.3963
vn 0.0010 -1.0000 0.0014
vn 0.0002 -1.0000 0.0010
vn -0.0004 -1.0000 0.0013
vn -0.0000 -1.0000 0.0022
vn -0.0001 -1.0000 0.0008
vn -0.0003 -1.0000 0.0010
vn -0.0007 -1.0000 0.0015
vn -0.0014 -1.0000 0.0024
vn -0.0055 -1.0000 0.0061
vn -0.0204 -0.9995 0.0238
vn -0.0142 -0.9998 0.0156
vn -0.0216 -0.9997 0.0127
vn -0.0271 -0.9995 0.0151
vn -0.0111 -0.9999 0.0082
vn -0.0157 -0.9998 0.0112
vn 0.0861 -0.6621 0.7445
vn 0.0472 -0.6539 0.7551
vn 0.0098 -0.7652 0.6437
vn 0.0148 -0.7723 0.6350
vn 0.0001 -0.6508 0.7593
vn -0.0000 -0.7632 0.6462
vn -0.0000 -0.7925 0.6098
vn 0.0001 -0.7937 0.6083
vn -0.0007 -0.7957 0.6057
vn -0.0469 -0.6544 0.7547
vn -0.0098 -0.7653 0.6436
vn -0.0855 -0.6629 0.7438
vn -0.0148 -0.7724 0.6350
vn 0.0007 -0.7957 0.6057
vn -0.0001 -0.7937 0.6083
vn 0.2412 -0.9517 -0.1898
vn 0.2614 -0.9518 -0.1607
vn 0.0551 -0.9982 -0.0225
vn 0.0684 -0.9976 -0.0130
vn 0.2840 -0.9520 -0.1142
vn 0.0551 -0.9983 -0.0199
vn 0.2976 -0.9526 -0.0633
vn 0.0574 -0.9983 -0.0106
vn 0.3006 -0.9534 -0.0260
vn 0.0575 -0.9983 -0.0038
vn 0.0011 -1.0000 0.0016
vn 0.7423 -0.5962 -0.3059
vn 0.7840 -0.5964 -0.1725
vn 0.8796 -0.3065 -0.3638
vn 0.9294 -0.3067 -0.2055
vn 0.9476 -0.3072 -0.0880
vn 0.7988 -0.5971 -0.0736
vn 0.5994 -0.7986 -0.0537
vn 0.5893 -0.7977 -0.1279
vn 0.5589 -0.7972 -0.2283
vn 0.0001 -0.3744 0.9273
vn -0.1252 -0.3754 0.9184
vn 0.0002 -0.1984 0.9801
vn -0.1629 -0.1998 0.9662
vn -0.3233 -0.1975 0.9254
vn -0.2512 -0.3717 0.8937
vn -0.1716 -0.5030 0.8471
vn -0.0891 -0.5033 0.8595
vn 0.0001 -0.5012 0.8653
vn 0.2532 -0.3676 0.8948
vn 0.1258 -0.3734 0.9191
vn 0.3253 -0.1923 0.9258
vn 0.1637 -0.1970 0.9667
vn 0.0897 -0.5021 0.8601
vn 0.1730 -0.5006 0.8482
vn -0.6610 -0.7231 -0.2005
vn -0.5843 -0.7249 -0.3648
vn -0.8679 -0.3547 -0.3479
vn -0.7788 -0.3510 -0.5199
vn -0.6505 -0.3498 -0.6741
vn -0.4677 -0.7172 -0.5167
vn -0.2084 -0.9431 -0.2590
vn -0.2740 -0.9505 -0.1466
vn 0.0968 -0.9939 0.0519
vn 0.0861 -0.9896 0.1155
vn 0.0592 -0.9870 0.1495
vn -0.3327 -0.9410 -0.0622
vn 0.0055 -0.0623 -0.9980
vn -0.1884 -0.0619 -0.9801
vn 0.0278 -0.3181 -0.9476
vn -0.1526 -0.3221 -0.9343
vn -0.3228 -0.3269 -0.8882
vn -0.3746 -0.0610 -0.9252
vn 0.3863 -0.0613 -0.9204
vn 0.1997 -0.0619 -0.9779
vn 0.3852 -0.3110 -0.8689
vn 0.2100 -0.3141 -0.9259
vn 0.7074 -0.0594 -0.7043
vn 0.5577 -0.0603 -0.8278
vn 0.6811 -0.3051 -0.6656
vn 0.5446 -0.3077 -0.7802
vn 0.9223 -0.0593 -0.3819
vn 0.8304 -0.0592 -0.5541
vn 0.7935 -0.3055 -0.5263
vn 0.9940 -0.0591 -0.0926
vn 0.9746 -0.0592 -0.2159
vn 0.9982 -0.0592 0.0020
vn 0.9980 -0.0591 -0.0206
vn 0.9511 -0.3090 0.0020
vn 0.9511 -0.3082 -0.0195
vn -0.9930 -0.0682 0.0969
vn -0.9716 -0.0667 0.2270
vn -0.9396 -0.3177 0.1270
vn -0.9129 -0.3068 0.2691
vn -0.8526 -0.2928 0.4329
vn -0.9160 -0.0640 0.3960
vn -0.9978 -0.0658 0.0041
vn -0.9975 -0.0670 0.0243
vn -0.9998 -0.0029 0.0196
vn -0.9482 -0.3172 0.0203
vn -0.9470 -0.3186 0.0416
vn -0.9978 -0.0664 0.0061
vn -0.9978 -0.0662 0.0055
vn -0.9465 -0.3213 0.0295
vn -0.9471 -0.3199 0.0269
vn -0.9951 -0.0686 -0.0706
vn -0.9977 -0.0676 -0.0107
vn -0.9408 -0.3348 -0.0531
vn -0.9437 -0.3307 0.0051
vn -0.9453 -0.3253 0.0238
vn -0.9978 -0.0668 0.0050
vn -0.9806 -0.0639 -0.1851
vn -0.9863 -0.0661 -0.1512
vn -0.9322 -0.3355 -0.1356
vn -0.9356 -0.3306 -0.1237
vn -0.9059 -0.0624 -0.4188
vn -0.9648 -0.0656 -0.2548
vn -0.9627 -0.0019 -0.2707
vn -0.9165 -0.3606 -0.1731
vn -0.7035 -0.0621 -0.7079
vn -0.8201 -0.0613 -0.5690
vn -0.5478 -0.0614 -0.8343
vn -0.4869 -0.3386 -0.8051
vn 0.9982 -0.0592 0.0016
vn 0.9982 -0.0592 0.0017
vn 0.9508 -0.3099 0.0016
vn 0.9509 -0.3096 0.0017
vn 0.9510 -0.3093 0.0019
vn 0.9982 -0.0592 0.0018
vn -0.9978 -0.0666 0.0058
vn -0.9462 -0.3223 0.0281
vn 0.9969 0.0030 0.0788
vn 0.9942 -0.0617 0.0879
vn 0.9980 -0.0601 0.0191
vn 0.9998 0.0031 0.0173
vn 0.9426 -0.3120 0.1190
vn 0.9498 -0.3118 0.0255
vn 0.9982 -0.0592 0.0019
vn 0.9510 -0.3091 0.0020
vn 0.0584 -0.9972 0.0467
vn 0.0652 -0.9968 0.0458
vn 0.0658 -0.9969 0.0438
vn 0.0611 -0.9967 0.0527
vn 0.0699 -0.9964 0.0471
vn 0.0778 -0.9958 0.0481
vn 0.0062 -1.0000 0.0075
vn 0.0066 -1.0000 0.0053
vn 0.0055 -0.9999 0.0120
vn 0.0260 -0.9994 0.0249
vn 0.0242 -0.9995 0.0215
vn 0.0073 -1.0000 0.0043
vn -0.0004 -0.8952 0.4457
vn -0.0045 -0.8929 0.4503
vn -0.0045 -0.9328 0.3603
vn 0.0012 -0.9324 0.3614
vn -0.0022 -0.8915 0.4530
vn -0.0061 -0.9341 0.3571
vn -0.0119 -0.9457 0.3247
vn -0.0054 -0.9425 0.3341
vn -0.0012 -0.9408 0.3389
vn -0.0004 -0.8244 0.5660
vn 0.0006 -0.8277 0.5612
vn 0.0003 -0.8974 0.4413
vn 0.0024 -0.8352 0.5500
vn -0.0046 -0.9030 0.4297
vn -0.0013 -0.8262 0.5633
vn -0.0032 -0.8322 0.5545
vn -0.0142 -0.9432 0.3319
vn -0.0075 -0.9392 0.3433
vn -0.0230 -0.9556 0.2937
vn -0.0182 -0.9512 0.3081
vn -0.0300 -0.9932 0.1125
vn -0.0246 -0.9988 0.0414
vn -0.0308 -0.9988 0.0368
vn -0.0324 -0.9917 0.1244
vn -0.0207 -0.9992 0.0345
vn -0.0222 -0.9911 0.1310
vn 0.0610 -0.9964 0.0594
vn 0.0574 -0.9971 0.0494
vn 0.0650 -0.9963 0.0559
vn 0.2657 -0.9325 0.2446
vn 0.1807 -0.9698 0.1640
vn 0.2751 -0.9282 0.2506
vn 0.2104 -0.9590 0.1901
vn 0.1253 -0.9855 0.1144
vn 0.0998 -0.9914 0.0843
vn 0.0670 -0.9963 0.0534
vn 0.0719 -0.9952 0.0671
vn 0.0643 -0.9963 0.0569
vn 0.0635 -0.9966 0.0517
vn -0.0294 -0.9722 0.2322
vn -0.0284 -0.9691 0.2452
vn -0.0184 -0.9650 0.2617
vn -0.0105 -0.9910 0.1337
vn -0.0085 -0.9623 0.2719
vn -0.0055 -0.9909 0.1342
vn -0.0043 -0.9611 0.2763
vn 0.9969 0.0030 0.0791
vn 0.9779 0.0028 0.2091
vn 0.9780 0.0028 0.2085
vn 0.9229 0.0029 0.3851
vn 0.9231 0.0030 0.3845
vn 0.8308 0.0032 0.5566
vn 0.8311 0.0033 0.5561
vn 0.7073 0.0033 0.7069
vn 0.7077 0.0034 0.7065
vn 0.5557 0.0032 0.8314
vn 0.5562 0.0032 0.8311
vn 0.3826 0.0027 0.9239
vn 0.3832 0.0028 0.9237
vn 0.1947 0.0017 0.9809
vn 0.1953 0.0017 0.9807
vn -0.0006 -0.0000 1.0000
vn -0.0000 -0.0000 1.0000
vn -0.3828 -0.0027 0.9238
vn -0.3822 -0.0028 0.9241
vn -0.1949 -0.0017 0.9808
vn -0.1955 -0.0017 0.9807
vn -0.7069 -0.0033 0.7073
vn -0.7066 -0.0034 0.7077
vn -0.5549 -0.0032 0.8319
vn -0.5554 -0.0032 0.8316
vn -0.8312 -0.0035 0.5559
vn -0.8314 -0.0035 0.5557
vn -0.9998 -0.0029 0.0197
vn -0.9629 -0.0019 -0.2697
vn -0.0031 -1.0000 0.0020
vn -0.0057 -1.0000 0.0057
vn -0.0031 -1.0000 0.0048
vn -0.0016 -1.0000 0.0022
vn 0.0598 -0.9970 0.0491
vn 0.0487 -0.9978 0.0441
vn 0.0470 -0.9981 0.0390
vn 0.0278 -0.9991 0.0334
vn 0.0640 -0.9966 0.0511
vn 0.0631 -0.9966 0.0529
vn 0.7124 -0.7018 0.0019
vn 0.7121 -0.7021 0.0019
vn 0.7124 -0.7018 0.0018
vn 0.7121 -0.7021 0.0018
vn 0.7118 -0.7024 0.0017
vn 0.7118 -0.7024 0.0018
vn 0.7118 -0.7024 0.0019
vn 0.6063 -0.6314 0.4834
vn 0.6063 -0.6314 0.4835
vn 0.5507 -0.5842 0.5962
vn 0.5527 -0.5853 0.5933
vn 0.6061 -0.6314 0.4836
vn 0.5487 -0.5830 0.5992
vn 0.4670 -0.5001 0.7292
vn 0.4684 -0.5011 0.7277
vn 0.4697 -0.5020 0.7262
vn -0.3382 -0.4455 0.8290
vn -0.3342 -0.4443 0.8312
vn -0.3419 -0.4464 0.8269
vn -0.4690 -0.5122 0.7196
vn -0.4703 -0.5132 0.7180
vn -0.4716 -0.5142 0.7164
vn 0.3436 -0.4398 0.8298
vn 0.3398 -0.4387 0.8319
vn 0.3357 -0.4376 0.8342
vn -0.7053 -0.7074 0.0462
vn -0.7053 -0.7074 0.0465
vn -0.6987 -0.7128 0.0608
vn -0.6988 -0.7128 0.0608
vn -0.7052 -0.7075 0.0468
vn -0.6966 -0.7145 0.0656
vn -0.6188 -0.7850 -0.0293
vn -0.6109 -0.7916 -0.0115
vn -0.5536 -0.8327 -0.0086
vn -0.5637 -0.8251 -0.0379
vn -0.6040 -0.7969 0.0039
vn -0.5443 -0.8387 0.0157
vn -0.5575 -0.5982 0.5756
vn -0.5591 -0.5992 0.5730
vn -0.6227 -0.6451 0.4429
vn -0.6225 -0.6450 0.4433
vn -0.6222 -0.6449 0.4437
vn -0.5607 -0.6002 0.5704
vn -0.7060 -0.6918 0.1517
vn -0.7055 -0.6917 0.1540
vn -0.7091 -0.7025 0.0604
vn -0.7093 -0.7025 0.0591
vn -0.7051 -0.6917 0.1562
vn -0.7088 -0.7027 0.0617
vn -0.2302 -0.8197 -0.5245
vn -0.2347 -0.8200 -0.5220
vn -0.1437 -0.7838 -0.6041
vn -0.1488 -0.7842 -0.6024
vn -0.1543 -0.7846 -0.6006
vn -0.2395 -0.8203 -0.5194
vn -0.0535 -0.7545 -0.6541
vn -0.0575 -0.7547 -0.6535
vn 0.0642 -0.7333 -0.6768
vn 0.0619 -0.7334 -0.6769
vn 0.0595 -0.7336 -0.6770
vn -0.0616 -0.7549 -0.6529
vn 0.3190 -0.7117 -0.6259
vn 0.4307 -0.7061 -0.5620
vn 0.4308 -0.7060 -0.5620
vn 0.3190 -0.7116 -0.6260
vn 0.5213 -0.7028 -0.4840
vn 0.5215 -0.7028 -0.4839
vn 0.5216 -0.7028 -0.4838
vn 0.4309 -0.7062 -0.5619
vn 0.5966 -0.7020 -0.3889
vn 0.5967 -0.7020 -0.3887
vn 0.5969 -0.7020 -0.3885
vn -0.6783 -0.6692 0.3034
vn -0.6783 -0.6693 0.3032
vn -0.6783 -0.6691 0.3037
vn 0.7077 -0.6897 0.1532
vn 0.6690 -0.6624 0.3371
vn 0.6690 -0.6623 0.3373
vn 0.7078 -0.6898 0.1523
vn 0.6689 -0.6624 0.3374
vn 0.7080 -0.6898 0.1514
vn 0.1919 -0.7196 -0.6673
vn 0.1926 -0.7196 -0.6672
vn 0.1933 -0.7196 -0.6669
vn -0.6660 -0.7458 -0.0143
vn -0.6761 -0.7361 0.0315
vn -0.6764 -0.7358 0.0325
vn -0.6660 -0.7458 -0.0133
vn -0.6882 -0.7238 0.0506
vn -0.6885 -0.7234 0.0517
vn -0.6887 -0.7231 0.0528
vn -0.6767 -0.7355 0.0335
vn -0.6661 -0.7458 -0.0123
vn -0.6591 -0.7500 -0.0564
vn -0.6575 -0.7517 -0.0518
vn -0.6606 -0.7483 -0.0607
vn 0.7104 -0.7038 0.0020
vn 0.7104 -0.7038 0.0018
vn 0.7113 -0.7022 0.0324
vn 0.7113 -0.7021 0.0321
vn 0.7104 -0.7037 0.0017
vn 0.7113 -0.7021 0.0327
vn -0.6949 -0.7165 0.0607
vn -0.6951 -0.7163 0.0614
vn -0.6951 -0.7162 0.0620
vn 0.0456 -0.9982 0.0382
vn 0.0662 -0.9963 0.0542
vn 0.0640 -0.9966 0.0512
vn 0.0625 -0.9968 0.0489
vn 0.0605 -0.9971 0.0467
vn -0.0106 -0.9988 0.0479
vn -0.0183 -0.9984 0.0540
vn -0.0012 -0.9993 0.0375
vn -0.0090 -0.9995 0.0308
vn -0.0048 -0.9996 0.0279
vn 0.9998 0.0031 0.0175
vn 0.7113 -0.7029 0.0017
vn 0.7112 -0.7029 0.0018
vn 0.7113 -0.7029 0.0020
vn 0.7124 -0.7016 -0.0138
vn 0.7125 -0.7016 -0.0137
vn 0.7124 -0.7016 -0.0140
vn 0.0520 -0.9978 0.0403
vn 0.0520 -0.9979 0.0373
vn 0.2986 -0.9544 -0.0049
vn 0.0564 -0.9984 -0.0001
vn 0.2959 -0.9552 0.0013
vn 0.0552 -0.9985 0.0009
vn 0.2954 -0.9554 0.0014
vn 0.0549 -0.9985 0.0010
vn 0.2948 -0.9555 0.0015
vn 0.0544 -0.9985 0.0012
vn 0.2946 -0.9556 0.0015
vn 0.0540 -0.9985 0.0013
vn 0.2964 -0.9551 0.0014
vn 0.0550 -0.9985 0.0010
vn 0.3035 -0.9523 0.0318
vn 0.0593 -0.9978 0.0280
vn 0.3071 -0.9393 0.1530
vn 0.0626 -0.9885 0.1374
vn 0.2900 -0.9010 0.3227
vn 0.0583 -0.9565 0.2859
vn 0.2701 -0.8627 0.4276
vn 0.0592 -0.9297 0.3636
vn 0.2622 -0.8277 0.4961
vn 0.0694 -0.9148 0.3978
vn 0.2220 -0.7623 0.6080
vn 0.0606 -0.8746 0.4810
vn 0.1452 -0.6939 0.7053
vn 0.0316 -0.8140 0.5800
vn -0.1473 -0.6966 0.7022
vn -0.0344 -0.8175 0.5748
vn -0.2319 -0.7688 0.5960
vn -0.0711 -0.8828 0.4644
vn -0.2826 -0.8372 0.4682
vn -0.0900 -0.9263 0.3659
vn -0.3008 -0.8754 0.3785
vn -0.0900 -0.9460 0.3114
vn -0.3178 -0.9067 0.2775
vn -0.0896 -0.9670 0.2384
vn -0.3239 -0.9344 0.1485
vn -0.0891 -0.9868 0.1355
vn -0.3142 -0.9471 0.0657
vn -0.0805 -0.9947 0.0641
vn -0.2993 -0.9521 0.0624
vn -0.0629 -0.9961 0.0618
vn -0.2877 -0.9542 0.0817
vn -0.0503 -0.9953 0.0833
vn -0.2809 -0.9558 0.0873
vn -0.0426 -0.9950 0.0903
vn -0.2729 -0.9588 0.0795
vn -0.0315 -0.9962 0.0808
vn -0.2607 -0.9632 0.0655
vn -0.0132 -0.9978 0.0649
vn -0.2446 -0.9683 0.0509
vn 0.0032 -0.9985 0.0542
vn -0.2197 -0.9751 0.0301
vn 0.0254 -0.9986 0.0474
vn -0.1728 -0.9847 0.0214
vn 0.0659 -0.9964 0.0539
vn -0.0833 -0.9934 0.0787
vn 0.1248 -0.9873 0.0985
vn -0.0060 -0.9906 0.1364
vn 0.2022 -0.9610 0.1885
vn 0.2698 -0.9281 0.2567
vn 0.2800 -0.9251 0.2565
vn 0.2695 -0.9331 0.2381
vn 0.0940 -0.9953 -0.0245
vn 0.2078 -0.9617 0.1789
vn 0.0593 -0.9933 -0.0988
vn 0.1252 -0.9860 0.1105
vn 0.0401 -0.9843 -0.1717
vn 0.0751 -0.9956 0.0567
vn 0.0711 -0.9712 -0.2276
vn 0.0681 -0.9975 0.0177
vn 0.1259 -0.9610 -0.2462
vn 0.0788 -0.9969 0.0003
vn 0.1773 -0.9557 -0.2349
vn 0.0851 -0.9964 -0.0032
vn 0.2165 -0.9530 -0.2120
vn 0.0823 -0.9966 -0.0049
vn 0.8004 -0.5994 0.0019
vn 0.8006 -0.5992 0.0019
vn 0.8002 -0.5998 0.0018
vn 0.5981 -0.8015 0.0018
vn 0.5976 -0.8018 0.0019
vn 0.5984 -0.8012 0.0018
vn 0.8469 -0.2808 0.4515
vn 0.7555 -0.2572 0.6025
vn 0.6190 -0.4957 0.6092
vn 0.6911 -0.5385 0.4820
vn 0.6351 -0.2197 0.7406
vn 0.5225 -0.4249 0.7392
vn 0.4729 -0.6700 0.5723
vn 0.4000 -0.5899 0.7014
vn 0.5152 -0.7139 0.4742
vn -0.3884 -0.3796 0.8397
vn -0.4829 -0.2011 0.8523
vn -0.6346 -0.2308 0.7376
vn -0.5236 -0.4373 0.7312
vn -0.2804 -0.5246 0.8038
vn -0.4040 -0.6000 0.6905
vn 0.4852 -0.1933 0.8527
vn 0.3906 -0.3723 0.8419
vn 0.2810 -0.5193 0.8071
vn -0.7944 -0.6062 0.0396
vn -0.7898 -0.6111 0.0518
vn -0.7880 -0.6131 0.0563
vn -0.5825 -0.8094 0.0742
vn -0.5863 -0.8072 0.0689
vn -0.5951 -0.8019 0.0523
vn -0.7374 -0.6743 -0.0410
vn -0.6972 -0.7154 -0.0467
vn -0.4705 -0.8824 -0.0032
vn -0.4071 -0.9134 -0.0039
vn -0.7590 -0.2699 0.5925
vn -0.6262 -0.5108 0.5891
vn -0.7039 -0.5522 0.4469
vn -0.4842 -0.6825 0.5474
vn -0.5355 -0.7262 0.4311
vn -0.7892 -0.5952 0.1513
vn -0.7953 -0.6035 0.0577
vn -0.6022 -0.7960 0.0618
vn -0.6018 -0.7838 0.1532
vn -0.3287 -0.6898 -0.6451
vn -0.2085 -0.6594 -0.7223
vn -0.1387 -0.9173 -0.3732
vn -0.0923 -0.8838 -0.4586
vn -0.0867 -0.6376 -0.7654
vn 0.0547 -0.6220 -0.7811
vn -0.0325 -0.8535 -0.5201
vn 0.0640 -0.8295 -0.5548
vn 0.4762 -0.5990 -0.6437
vn 0.3471 -0.6042 -0.7173
vn 0.5834 -0.5955 -0.5523
vn 0.3751 -0.8002 -0.4680
vn 0.4481 -0.7968 -0.4054
vn 0.2827 -0.8056 -0.5207
vn 0.6718 -0.5953 -0.4409
vn 0.5082 -0.7965 -0.3277
vn -0.7619 -0.5748 0.2985
vn -0.5808 -0.7565 0.3006
vn 0.9115 -0.2998 0.2817
vn 0.7558 -0.5678 0.3260
vn 0.7926 -0.5920 0.1459
vn 0.5648 -0.7523 0.3392
vn 0.5965 -0.7874 0.1555
vn 0.1758 -0.8140 -0.5537
vn 0.2032 -0.6110 -0.7651
vn -0.5566 -0.8299 0.0389
vn -0.5435 -0.8394 -0.0009
vn -0.5695 -0.8200 0.0564
vn -0.7749 -0.6316 0.0261
vn -0.7825 -0.6211 0.0454
vn -0.7682 -0.6397 -0.0249
vn -0.5292 -0.8476 -0.0394
vn -0.7635 -0.6413 -0.0761
vn 0.7990 -0.6005 0.0313
vn 0.7993 -0.6010 0.0016
vn 0.5989 -0.8001 0.0329
vn 0.5969 -0.8023 0.0019
vn -0.5785 -0.8128 0.0681
vn -0.7869 -0.6147 0.0535
vn 0.7998 -0.6002 0.0017
vn 0.5971 -0.8022 0.0019
vn 0.8012 -0.5982 -0.0161
vn 0.5999 -0.8000 -0.0111
vn 0.9723 -0.0601 0.2257
vn 0.9145 -0.0559 0.4007
vn 0.8210 -0.0508 0.5686
vn 0.6963 -0.0435 0.7165
vn 0.5437 -0.0392 0.8383
vn 0.3726 -0.0399 0.9271
vn 0.1894 -0.0421 0.9810
vn 0.0001 -0.0438 0.9990
vn -0.3711 -0.0456 0.9275
vn -0.1888 -0.0454 0.9810
vn -0.6949 -0.0514 0.7172
vn -0.5417 -0.0463 0.8393
vn -0.8216 -0.0592 0.5669
vn 0.0034 -0.9997 0.0226
vt 0.886793 0.174674
vt 0.886644 0.172501
vt 0.887381 0.171813
vt 0.887970 0.173568
vt 0.886514 0.170706
vt 0.886903 0.170377
vt 0.887691 0.169320
vt 0.888618 0.170457
vt 0.889635 0.171853
vt 0.888648 0.160687
vt 0.887970 0.161504
vt 0.887252 0.161225
vt 0.887691 0.160687
vt 0.887292 0.161973
vt 0.887072 0.161305
vt 0.887381 0.160766
vt 0.893892 0.160986
vt 0.895497 0.159949
vt 0.896394 0.161115
vt 0.895377 0.162322
vt 0.896394 0.159500
vt 0.897202 0.160098
vt 0.898538 0.160906
vt 0.897870 0.162003
vt 0.896873 0.163349
vt 0.899026 0.159899
vt 0.899903 0.160487
vt 0.899903 0.161385
vt 0.899485 0.159231
vt 0.900422 0.160248
vt 0.900960 0.161464
vt 0.346324 0.501676
vt 0.348039 0.501686
vt 0.348029 0.507110
vt 0.346324 0.507260
vt 0.349734 0.501696
vt 0.349734 0.507000
vt 0.264122 0.502254
vt 0.265827 0.502234
vt 0.265887 0.507389
vt 0.264191 0.507559
vt 0.267532 0.502204
vt 0.267592 0.507230
vt 0.269247 0.502184
vt 0.269297 0.507110
vt 0.270972 0.502164
vt 0.270992 0.507010
vt 0.272677 0.502164
vt 0.272697 0.506980
vt 0.274392 0.502154
vt 0.274392 0.506970
vt 0.276087 0.502144
vt 0.276097 0.506961
vt 0.277852 0.502134
vt 0.277862 0.506941
vt 0.279727 0.502125
vt 0.279727 0.506931
vt 0.281651 0.502115
vt 0.281651 0.506921
vt 0.317178 0.501835
vt 0.318873 0.501825
vt 0.318883 0.505844
vt 0.317178 0.505455
vt 0.320718 0.501805
vt 0.320738 0.506143
vt 0.325085 0.501775
vt 0.327289 0.501766
vt 0.327319 0.506522
vt 0.325115 0.506382
vt 0.329343 0.501756
vt 0.329363 0.506671
vt 0.332743 0.501726
vt 0.334408 0.501716
vt 0.334438 0.507000
vt 0.332783 0.506921
vt 0.335874 0.501716
vt 0.335904 0.507060
vt 0.336901 0.501706
vt 0.336951 0.507100
vt 0.337739 0.501696
vt 0.337809 0.507170
vt 0.339703 0.501686
vt 0.341209 0.501676
vt 0.341219 0.507639
vt 0.339723 0.507519
vt 0.342904 0.501676
vt 0.342924 0.507648
vt 0.344609 0.501676
vt 0.344629 0.507479
vt 0.285300 0.502095
vt 0.286647 0.502085
vt 0.286647 0.506891
vt 0.285300 0.506901
vt 0.288222 0.502075
vt 0.288212 0.506881
vt 0.331108 0.501746
vt 0.331138 0.506811
vt 0.886454 0.169540
vt 0.886664 0.169560
vt 0.886544 0.168373
vt 0.887013 0.168633
vt 0.901778 0.161275
vt 0.902007 0.161175
vt 0.902496 0.162750
vt 0.902256 0.162820
vt 0.902246 0.161066
vt 0.902745 0.162681
vt 0.903034 0.164415
vt 0.902775 0.164455
vt 0.902526 0.164495
vt 0.894390 0.189190
vt 0.894390 0.189519
vt 0.892765 0.189310
vt 0.892825 0.188991
vt 0.894390 0.189848
vt 0.892715 0.189629
vt 0.891100 0.189031
vt 0.891210 0.188742
vt 0.891320 0.188452
vt 0.897451 0.188413
vt 0.897561 0.188702
vt 0.896015 0.189290
vt 0.895956 0.188971
vt 0.897670 0.188991
vt 0.896065 0.189609
vt 0.886783 0.160756
vt 0.886574 0.160766
vt 0.887282 0.159610
vt 0.887451 0.159690
vt 0.886355 0.160766
vt 0.887112 0.159540
vt 0.888159 0.158244
vt 0.888289 0.158384
vt 0.888428 0.158513
vt 0.901120 0.164984
vt 0.901598 0.167087
vt 0.900093 0.169241
vt 0.898288 0.168114
vt 0.901907 0.168383
vt 0.901608 0.169949
vt 0.901239 0.171853
vt 0.898637 0.171673
vt 0.895158 0.171514
vt 0.891609 0.174485
vt 0.892995 0.172890
vt 0.893473 0.173647
vt 0.892845 0.174933
vt 0.895038 0.173358
vt 0.894889 0.174854
vt 0.283575 0.502105
vt 0.283575 0.506911
vt 0.897341 0.188133
vt 0.895906 0.188672
vt 0.895866 0.188512
vt 0.897271 0.187994
vt 0.894390 0.188871
vt 0.894390 0.188712
vt 0.894380 0.188303
vt 0.895975 0.188133
vt 0.897112 0.187804
vt 0.892875 0.188672
vt 0.892905 0.188512
vt 0.891429 0.188173
vt 0.891499 0.188024
vt 0.891649 0.187814
vt 0.892785 0.188143
vt 0.899834 0.158822
vt 0.900811 0.160019
vt 0.900691 0.160098
vt 0.899724 0.158932
vt 0.901549 0.161385
vt 0.901419 0.161444
vt 0.902017 0.162890
vt 0.901878 0.162920
vt 0.902276 0.164535
vt 0.902127 0.164555
vt 0.901249 0.162860
vt 0.902386 0.161006
vt 0.902884 0.162641
vt 0.902476 0.160966
vt 0.902974 0.162611
vt 0.903283 0.164375
vt 0.903174 0.164395
vt 0.902386 0.164525
vt 0.902117 0.162860
vt 0.901648 0.161345
vt 0.894390 0.190038
vt 0.892685 0.189808
vt 0.894390 0.190167
vt 0.892666 0.189928
vt 0.890991 0.189310
vt 0.891030 0.189200
vt 0.891389 0.188283
vt 0.892855 0.188801
vt 0.894390 0.189001
vt 0.897740 0.189160
vt 0.896095 0.189788
vt 0.897780 0.189280
vt 0.896115 0.189908
vt 0.895926 0.188791
vt 0.897381 0.188253
vt 0.886235 0.160776
vt 0.887013 0.159500
vt 0.886145 0.160766
vt 0.886943 0.159470
vt 0.888030 0.158114
vt 0.888079 0.158174
vt 0.888498 0.158593
vt 0.887551 0.159730
vt 0.888558 0.158653
vt 0.887631 0.159759
vt 0.887003 0.160756
vt 0.886903 0.160746
vt 0.349724 0.507878
vt 0.348019 0.507987
vt 0.349714 0.508017
vt 0.348019 0.508107
vt 0.346324 0.508287
vt 0.346324 0.508157
vt 0.267602 0.508057
vt 0.265907 0.508227
vt 0.267602 0.508187
vt 0.265916 0.508346
vt 0.264231 0.508576
vt 0.264221 0.508436
vt 0.271002 0.507808
vt 0.269297 0.507918
vt 0.271002 0.507938
vt 0.269307 0.508047
vt 0.274402 0.507758
vt 0.272697 0.507768
vt 0.274402 0.507888
vt 0.272697 0.507898
vt 0.277862 0.507738
vt 0.276097 0.507748
vt 0.277862 0.507868
vt 0.276097 0.507878
vt 0.281651 0.507718
vt 0.279727 0.507728
vt 0.281661 0.507848
vt 0.279737 0.507858
vt 0.320748 0.506871
vt 0.318883 0.506522
vt 0.320748 0.507000
vt 0.318883 0.506651
vt 0.317178 0.506213
vt 0.317178 0.506083
vt 0.325125 0.507150
vt 0.322882 0.507040
vt 0.322872 0.506292
vt 0.325135 0.507280
vt 0.322882 0.507170
vt 0.329363 0.507479
vt 0.327319 0.507309
vt 0.329373 0.507619
vt 0.327339 0.507439
vt 0.335904 0.507938
vt 0.334448 0.507868
vt 0.335914 0.508067
vt 0.334438 0.507998
vt 0.332783 0.507898
vt 0.332793 0.507768
vt 0.337829 0.508057
vt 0.336971 0.507978
vt 0.337848 0.508187
vt 0.336981 0.508117
vt 0.339723 0.508466
vt 0.338676 0.508247
vt 0.338666 0.507339
vt 0.339733 0.508586
vt 0.338696 0.508376
vt 0.342924 0.508616
vt 0.341219 0.508606
vt 0.342924 0.508735
vt 0.341219 0.508725
vt 0.344629 0.508416
vt 0.344629 0.508536
vt 0.288212 0.507668
vt 0.286647 0.507678
vt 0.288212 0.507798
vt 0.286647 0.507808
vt 0.285300 0.507818
vt 0.285300 0.507688
vt 0.331138 0.507639
vt 0.331138 0.507768
vt 0.293148 0.506721
vt 0.293148 0.507499
vt 0.290615 0.507658
vt 0.290615 0.506861
vt 0.293148 0.507629
vt 0.290615 0.507788
vt 0.283575 0.507698
vt 0.283575 0.507838
vt 0.890831 0.164555
vt 0.888488 0.164794
vt 0.888269 0.163528
vt 0.889176 0.162910
vt 0.886953 0.164675
vt 0.887043 0.163189
vt 0.896763 0.166639
vt 0.898817 0.164236
vt 0.894350 0.169191
vt 0.893593 0.167207
vt 0.895407 0.165103
vt 0.899704 0.162561
vt 0.898926 0.186139
vt 0.896953 0.186229
vt 0.897441 0.184774
vt 0.899794 0.184714
vt 0.894360 0.186309
vt 0.894350 0.184833
vt 0.894340 0.183208
vt 0.897820 0.183158
vt 0.900462 0.183119
vt 0.894370 0.187485
vt 0.892346 0.187366
vt 0.891778 0.186239
vt 0.890801 0.187226
vt 0.889804 0.186169
vt 0.896404 0.187356
vt 0.897949 0.187196
vt 0.888927 0.184754
vt 0.891260 0.184793
vt 0.888209 0.183168
vt 0.890861 0.183188
vt 0.887571 0.179460
vt 0.889684 0.176758
vt 0.891758 0.177226
vt 0.890821 0.179729
vt 0.894629 0.177246
vt 0.894400 0.179749
vt 0.890053 0.162043
vt 0.892456 0.162830
vt 0.890941 0.160766
vt 0.888059 0.159769
vt 0.888658 0.159500
vt 0.888777 0.158922
vt 0.889595 0.158344
vt 0.890901 0.157775
vt 0.889834 0.159181
vt 0.891828 0.158982
vt 0.892496 0.157407
vt 0.894151 0.157267
vt 0.893932 0.158802
vt 0.887800 0.181583
vt 0.890612 0.181603
vt 0.894330 0.181613
vt 0.898129 0.179739
vt 0.898029 0.181593
vt 0.901040 0.179729
vt 0.900851 0.181563
vt 0.293168 0.502055
vt 0.295092 0.502035
vt 0.295082 0.506322
vt 0.296737 0.502025
vt 0.296727 0.505804
vt 0.298412 0.502025
vt 0.298412 0.505325
vt 0.300108 0.502015
vt 0.300118 0.504807
vt 0.301813 0.501995
vt 0.301823 0.504179
vt 0.303518 0.501975
vt 0.303518 0.503610
vt 0.305223 0.501955
vt 0.305223 0.503271
vt 0.306928 0.501935
vt 0.306928 0.503132
vt 0.310338 0.501905
vt 0.310348 0.503540
vt 0.308633 0.503231
vt 0.308633 0.501925
vt 0.313758 0.501855
vt 0.313768 0.504627
vt 0.312053 0.504069
vt 0.312043 0.501875
vt 0.315473 0.505076
vt 0.315473 0.501845
vt 0.322842 0.501795
vt 0.338616 0.501686
vt 0.901110 0.174834
vt 0.898159 0.174824
vt 0.898159 0.173258
vt 0.901120 0.173258
vt 0.889216 0.167257
vt 0.890492 0.168214
vt 0.892496 0.165781
vt 0.891589 0.169590
vt 0.887850 0.166768
vt 0.886743 0.166579
vt 0.902635 0.168264
vt 0.902894 0.168254
vt 0.902904 0.170188
vt 0.902645 0.170188
vt 0.903154 0.168234
vt 0.903164 0.170178
vt 0.903164 0.171933
vt 0.902914 0.171923
vt 0.902655 0.171923
vt 0.901788 0.183318
vt 0.902027 0.183448
vt 0.901219 0.185073
vt 0.900990 0.184943
vt 0.902256 0.183577
vt 0.901439 0.185202
vt 0.900382 0.186688
vt 0.900173 0.186548
vt 0.899963 0.186399
vt 0.889814 0.187804
vt 0.889984 0.187595
vt 0.889645 0.188014
vt 0.888359 0.186748
vt 0.888568 0.186608
vt 0.888787 0.186458
vt 0.899116 0.187974
vt 0.898946 0.187764
vt 0.898787 0.187555
vt 0.885896 0.175213
vt 0.885637 0.175362
vt 0.885607 0.173069
vt 0.885866 0.172900
vt 0.885378 0.175512
vt 0.885348 0.173239
vt 0.885338 0.171185
vt 0.885597 0.171065
vt 0.885856 0.170946
vt 0.886295 0.162102
vt 0.886016 0.162282
vt 0.886215 0.161544
vt 0.886474 0.161424
vt 0.885737 0.162471
vt 0.885966 0.161664
vt 0.887272 0.185292
vt 0.887501 0.185162
vt 0.886414 0.183687
vt 0.886654 0.183557
vt 0.886893 0.183428
vt 0.887730 0.185033
vt 0.886125 0.179928
vt 0.885866 0.180008
vt 0.885716 0.177755
vt 0.885976 0.177645
vt 0.885607 0.180078
vt 0.885457 0.177855
vt 0.889485 0.157197
vt 0.889575 0.157377
vt 0.890991 0.156400
vt 0.891050 0.156609
vt 0.891110 0.156828
vt 0.889675 0.157546
vt 0.892616 0.155931
vt 0.892636 0.156160
vt 0.894301 0.155742
vt 0.894281 0.155991
vt 0.894261 0.156250
vt 0.892656 0.156400
vt 0.897591 0.156430
vt 0.899066 0.157237
vt 0.898926 0.157437
vt 0.897481 0.156659
vt 0.900382 0.158284
vt 0.900203 0.158463
vt 0.900013 0.158643
vt 0.898777 0.157646
vt 0.897371 0.156888
vt 0.901439 0.159590
vt 0.901230 0.159740
vt 0.901020 0.159879
vt 0.886155 0.181882
vt 0.886404 0.181783
vt 0.885916 0.181982
vt 0.902934 0.179888
vt 0.902695 0.181872
vt 0.902456 0.181783
vt 0.902685 0.179838
vt 0.902216 0.181693
vt 0.902436 0.179799
vt 0.895846 0.156440
vt 0.895906 0.156210
vt 0.895975 0.155971
vt 0.885906 0.164605
vt 0.885856 0.166399
vt 0.885597 0.166290
vt 0.885647 0.164605
vt 0.885856 0.168164
vt 0.885597 0.168034
vt 0.885348 0.167905
vt 0.885348 0.166190
vt 0.885388 0.164595
vt 0.885816 0.163279
vt 0.885537 0.163398
vt 0.886085 0.163169
vt 0.902635 0.174864
vt 0.902884 0.174874
vt 0.902815 0.177306
vt 0.902565 0.177286
vt 0.903144 0.174884
vt 0.903074 0.177326
vt 0.885856 0.169520
vt 0.885597 0.169510
vt 0.885338 0.169490
vt 0.894101 0.163847
vt 0.895646 0.157317
vt 0.895407 0.158523
vt 0.897022 0.157646
vt 0.896604 0.158503
vt 0.888588 0.175382
vt 0.887013 0.176977
vt 0.890582 0.173328
vt 0.898169 0.177236
vt 0.901100 0.177236
vt 0.290635 0.502065
vt 0.903164 0.173288
vt 0.902904 0.173288
vt 0.902645 0.173278
vt 0.902874 0.166320
vt 0.902615 0.166339
vt 0.903134 0.166300
vt 0.898328 0.158324
vt 0.897870 0.159101
vt 0.902366 0.166359
vt 0.902216 0.166369
vt 0.902376 0.168274
vt 0.902226 0.168274
vt 0.902386 0.170188
vt 0.902226 0.170188
vt 0.902386 0.171913
vt 0.902226 0.171913
vt 0.902386 0.173268
vt 0.902226 0.173258
vt 0.902376 0.174844
vt 0.902216 0.174834
vt 0.902316 0.177256
vt 0.902187 0.177246
vt 0.902226 0.179749
vt 0.902097 0.179729
vt 0.902007 0.181603
vt 0.901887 0.181573
vt 0.901568 0.183198
vt 0.901439 0.183139
vt 0.900781 0.184823
vt 0.900661 0.184744
vt 0.899764 0.186269
vt 0.899654 0.186179
vt 0.898617 0.187346
vt 0.898528 0.187226
vt 0.890143 0.187386
vt 0.890223 0.187266
vt 0.888987 0.186319
vt 0.889076 0.186219
vt 0.887940 0.184893
vt 0.888059 0.184813
vt 0.887112 0.183288
vt 0.887232 0.183228
vt 0.886634 0.181683
vt 0.886763 0.181633
vt 0.886375 0.179858
vt 0.886504 0.179829
vt 0.886225 0.177545
vt 0.886375 0.177526
vt 0.886145 0.175073
vt 0.886295 0.175053
vt 0.886115 0.172750
vt 0.886275 0.172730
vt 0.886115 0.170826
vt 0.886275 0.170816
vt 0.886115 0.169530
vt 0.886265 0.169530
vt 0.886105 0.168274
vt 0.886265 0.168284
vt 0.886105 0.166489
vt 0.886255 0.166509
vt 0.886165 0.164615
vt 0.886315 0.164625
vt 0.886355 0.163069
vt 0.886514 0.163069
vt 0.886574 0.161943
vt 0.886724 0.161943
vt 0.886724 0.161325
vt 0.886883 0.161325
vt 0.887162 0.160776
vt 0.887760 0.159819
vt 0.888658 0.158753
vt 0.889764 0.157736
vt 0.889844 0.157855
vt 0.891170 0.157048
vt 0.891220 0.157197
vt 0.892685 0.156629
vt 0.892705 0.156769
vt 0.894241 0.156499
vt 0.894231 0.156639
vt 0.895786 0.156669
vt 0.895756 0.156808
vt 0.897271 0.157117
vt 0.897212 0.157247
vt 0.898637 0.157845
vt 0.898548 0.157965
vt 0.903393 0.168224
vt 0.903413 0.170178
vt 0.903313 0.170178
vt 0.903293 0.168234
vt 0.903413 0.171933
vt 0.903313 0.171933
vt 0.902496 0.170188
vt 0.902496 0.171923
vt 0.902486 0.168274
vt 0.902476 0.183717
vt 0.901648 0.185342
vt 0.901568 0.185272
vt 0.902396 0.183657
vt 0.900591 0.186847
vt 0.900512 0.186777
vt 0.900871 0.184873
vt 0.899844 0.186319
vt 0.901658 0.183238
vt 0.889545 0.188133
vt 0.889485 0.188223
vt 0.888149 0.186907
vt 0.888229 0.186837
vt 0.890073 0.187475
vt 0.888907 0.186379
vt 0.899265 0.188183
vt 0.899216 0.188093
vt 0.898687 0.187435
vt 0.885228 0.175601
vt 0.885198 0.173338
vt 0.885128 0.175641
vt 0.885098 0.173388
vt 0.885088 0.171294
vt 0.885188 0.171265
vt 0.886006 0.170866
vt 0.886016 0.172810
vt 0.886046 0.175123
vt 0.885577 0.162571
vt 0.885816 0.161733
vt 0.885467 0.162621
vt 0.885716 0.161773
vt 0.886454 0.161993
vt 0.886614 0.161355
vt 0.887062 0.185432
vt 0.887142 0.185362
vt 0.886185 0.183826
vt 0.886275 0.183767
vt 0.887860 0.184953
vt 0.887023 0.183348
vt 0.885457 0.180118
vt 0.885308 0.177914
vt 0.885358 0.180148
vt 0.885208 0.177944
vt 0.886125 0.177585
vt 0.886275 0.179888
vt 0.889395 0.157028
vt 0.889435 0.157107
vt 0.890931 0.156180
vt 0.890951 0.156270
vt 0.889724 0.157656
vt 0.891140 0.156958
vt 0.892596 0.155712
vt 0.892606 0.155801
vt 0.894320 0.155502
vt 0.894311 0.155602
vt 0.892675 0.156529
vt 0.894251 0.156400
vt 0.897700 0.156200
vt 0.899216 0.157038
vt 0.899156 0.157117
vt 0.897650 0.156290
vt 0.900571 0.158104
vt 0.900492 0.158174
vt 0.898697 0.157766
vt 0.899903 0.158753
vt 0.897311 0.157028
vt 0.901638 0.159460
vt 0.901558 0.159510
vt 0.900900 0.159959
vt 0.885766 0.182032
vt 0.885677 0.182072
vt 0.886544 0.181723
vt 0.903184 0.179938
vt 0.902924 0.181972
vt 0.902835 0.181922
vt 0.903084 0.179908
vt 0.902097 0.181633
vt 0.902306 0.179769
vt 0.895816 0.156569
vt 0.896035 0.155732
vt 0.896005 0.155821
vt 0.885996 0.166459
vt 0.886056 0.164605
vt 0.886006 0.168244
vt 0.885098 0.167795
vt 0.885108 0.166100
vt 0.885198 0.166130
vt 0.885198 0.167835
vt 0.885138 0.164595
vt 0.885248 0.164595
vt 0.886245 0.163099
vt 0.885378 0.163468
vt 0.885278 0.163498
vt 0.903393 0.174894
vt 0.903313 0.177346
vt 0.903214 0.177336
vt 0.903283 0.174894
vt 0.902416 0.177266
vt 0.902486 0.174854
vt 0.886006 0.169530
vt 0.885088 0.169480
vt 0.885188 0.169480
vt 0.903413 0.173298
vt 0.903313 0.173298
vt 0.902496 0.173268
vt 0.903273 0.166280
vt 0.903373 0.166270
vt 0.902466 0.166359
vt 0.296737 0.506592
vt 0.295082 0.507180
vt 0.295082 0.507040
vt 0.296737 0.506452
vt 0.300128 0.505435
vt 0.298422 0.506033
vt 0.298412 0.505904
vt 0.300118 0.505305
vt 0.303518 0.504089
vt 0.301823 0.504737
vt 0.301823 0.504597
vt 0.303518 0.503949
vt 0.306928 0.503540
vt 0.305223 0.503710
vt 0.305223 0.503570
vt 0.306928 0.503401
vt 0.310348 0.503879
vt 0.308633 0.503530
vt 0.310348 0.504009
vt 0.308633 0.503670
vt 0.313778 0.505126
vt 0.312053 0.504488
vt 0.313768 0.505255
vt 0.312053 0.504627
vt 0.315473 0.505644
vt 0.315473 0.505774
vt 0.892396 0.171344
s 1
f 104/1/1 345/2/2 191/3/3 348/4/4
f 345/2/2 105/5/5 346/6/6 191/3/3
f 11/7/7 347/8/8 191/3/3 346/6/6
f 347/8/8 1/9/9 348/4/4 191/3/3
f 4/10/10 349/11/11 192/12/12 351/13/13
f 349/11/11 108/14/14 350/15/15 192/12/12
f 109/16/16 351/13/13 192/12/12 350/15/15
f 5/17/17 352/18/18 193/19/19 355/20/20
f 352/18/18 90/21/21 353/22/22 193/19/19
f 6/23/23 354/24/24 193/19/19 353/22/22
f 354/24/24 10/25/25 355/20/20 193/19/19
f 6/23/23 356/26/26 194/27/27 358/28/28
f 356/26/26 114/29/29 357/30/30 194/27/27
f 115/31/31 358/28/28 194/27/27 357/30/30
f 18/32/32 359/33/33 360/34/34 178/35/35
f 359/33/33 27/36/36 174/37/37 360/34/34
f 27/38/36 361/39/38 362/40/39 174/41/37
f 361/39/38 19/42/40 187/43/41 362/40/39
f 19/42/40 363/44/42 364/45/43 187/43/41
f 363/44/42 28/46/44 173/47/45 364/45/43
f 28/46/44 365/48/46 366/49/47 173/47/45
f 365/48/46 20/50/48 188/51/48 366/49/47
f 20/50/48 367/52/49 368/53/49 188/51/48
f 367/52/49 29/54/50 172/55/50 368/53/49
f 29/54/50 369/56/51 370/57/51 172/55/50
f 369/56/51 89/58/52 190/59/52 370/57/51
f 24/60/53 371/61/54 372/62/55 171/63/53
f 371/61/54 16/64/56 183/65/57 372/62/55
f 31/66/58 373/67/59 374/68/59 169/69/60
f 373/67/59 35/70/61 179/71/62 374/68/59
f 32/72/63 375/73/64 376/74/65 167/75/63
f 375/73/64 25/76/66 180/77/67 376/74/65
f 25/76/66 377/78/68 378/79/69 180/77/67
f 377/78/68 33/80/70 176/81/71 378/79/69
f 17/82/72 379/83/73 380/84/74 177/85/75
f 379/83/73 26/86/76 168/87/76 380/84/74
f 26/86/76 381/88/77 382/89/78 168/87/76
f 381/88/77 18/32/32 178/35/35 382/89/78
f 34/90/52 383/91/79 384/92/80 184/93/81
f 383/91/79 85/94/82 189/95/83 384/92/80
f 35/70/61 385/96/61 386/97/62 179/71/62
f 385/96/61 32/72/63 167/75/63 386/97/62
f 105/5/5 387/98/84 195/99/85 346/6/6
f 387/98/84 106/100/86 388/101/87 195/99/85
f 11/7/7 346/6/6 195/99/85 388/101/87
f 127/102/88 389/103/89 196/104/90 392/105/91
f 389/103/89 126/106/92 390/107/93 196/104/90
f 128/108/94 391/109/95 196/104/90 390/107/93
f 391/109/95 129/110/96 392/105/91 196/104/90
f 137/111/97 393/112/98 197/113/99 396/114/100
f 393/112/98 136/115/97 394/116/101 197/113/99
f 138/117/102 395/118/103 197/113/99 394/116/101
f 395/118/103 139/119/104 396/114/100 197/113/99
f 135/120/105 397/121/106 198/122/107 399/123/108
f 397/121/106 134/124/109 398/125/110 198/122/107
f 136/115/97 393/112/98 198/122/107 398/125/110
f 393/112/98 137/111/97 399/123/108 198/122/107
f 119/126/111 400/127/112 199/128/113 403/129/114
f 400/127/112 118/130/115 401/131/116 199/128/113
f 154/132/117 402/133/118 199/128/113 401/131/116
f 402/133/118 155/134/119 403/129/114 199/128/113
f 91/135/120 404/136/121 200/137/122 407/138/123
f 404/136/121 92/139/124 405/140/125 200/137/122
f 93/141/126 406/142/127 200/137/122 405/140/125
f 406/142/127 8/143/128 407/138/123 200/137/122
f 86/144/129 408/145/130 201/146/131 410/147/132
f 408/145/130 8/143/128 409/148/133 201/146/131
f 82/149/134 410/147/132 201/146/131 409/148/133
f 89/58/52 411/150/52 412/151/52 190/59/52
f 411/150/52 34/90/52 184/93/81 412/151/52
f 79/152/135 413/153/136 202/154/137 416/155/138
f 413/153/136 57/156/139 414/157/140 202/154/137
f 99/158/141 415/159/142 202/154/137 414/157/140
f 415/159/142 98/160/143 416/155/138 202/154/137
f 57/156/139 417/161/144 203/162/145 414/157/140
f 417/161/144 78/163/146 418/164/147 203/162/145
f 100/165/148 419/166/149 203/162/145 418/164/147
f 419/166/149 99/158/141 414/157/140 203/162/145
f 42/167/150 420/168/151 204/169/152 422/170/153
f 420/168/151 44/171/154 421/172/155 204/169/152
f 115/31/31 357/30/30 204/169/152 421/172/155
f 357/30/30 114/29/29 422/170/153 204/169/152
f 44/171/154 423/173/156 205/174/157 421/172/155
f 423/173/156 46/175/158 424/176/159 205/174/157
f 91/135/120 425/177/160 205/174/157 424/176/159
f 425/177/160 115/31/31 421/172/155 205/174/157
f 126/106/92 426/178/161 206/179/162 390/107/93
f 426/178/161 45/180/163 427/181/164 206/179/162
f 47/182/165 428/183/166 206/179/162 427/181/164
f 428/183/166 128/108/94 390/107/93 206/179/162
f 129/110/96 429/184/167 207/185/168 392/105/91
f 429/184/167 46/175/158 423/173/156 207/185/168
f 44/171/154 430/186/169 207/185/168 423/173/156
f 430/186/169 127/102/88 392/105/91 207/185/168
f 136/115/97 431/187/170 208/188/171 394/116/101
f 431/187/170 58/189/172 432/190/173 208/188/171
f 59/191/174 433/192/175 208/188/171 432/190/173
f 433/192/175 138/117/102 394/116/101 208/188/171
f 139/119/104 434/193/176 209/194/177 396/114/100
f 434/193/176 78/163/146 417/161/144 209/194/177
f 57/156/139 435/195/178 209/194/177 417/161/144
f 435/195/178 137/111/97 396/114/100 209/194/177
f 134/124/109 436/196/179 210/197/180 398/125/110
f 436/196/179 56/198/181 437/199/182 210/197/180
f 58/189/172 431/187/170 210/197/180 437/199/182
f 431/187/170 136/115/97 398/125/110 210/197/180
f 137/111/97 435/195/178 211/200/183 399/123/108
f 435/195/178 57/156/139 413/153/136 211/200/183
f 79/152/135 438/201/184 211/200/183 413/153/136
f 438/201/184 135/120/105 399/123/108 211/200/183
f 118/130/115 439/202/185 212/203/186 401/131/116
f 439/202/185 77/204/187 440/205/188 212/203/186
f 36/206/189 441/207/190 212/203/186 440/205/188
f 441/207/190 154/132/117 401/131/116 212/203/186
f 155/134/119 442/208/191 213/209/192 403/129/114
f 442/208/191 80/210/193 443/211/194 213/209/192
f 76/212/195 444/213/196 213/209/192 443/211/194
f 444/213/196 119/126/111 403/129/114 213/209/192
f 174/37/37 445/214/197 214/215/198 360/34/34
f 445/214/197 39/216/199 446/217/200 214/215/198
f 37/218/201 447/219/202 214/215/198 446/217/200
f 447/219/202 178/35/35 360/34/34 214/215/198
f 187/43/41 448/220/203 215/221/204 362/40/39
f 448/220/203 41/222/205 449/223/206 215/221/204
f 39/224/199 445/225/197 215/221/204 449/223/206
f 445/225/197 174/41/37 362/40/39 215/221/204
f 173/47/45 450/226/207 216/227/208 364/45/43
f 450/226/207 43/228/209 451/229/210 216/227/208
f 41/222/205 448/220/203 216/227/208 451/229/210
f 448/220/203 187/43/41 364/45/43 216/227/208
f 188/51/48 452/230/211 217/231/212 366/49/47
f 452/230/211 45/232/163 453/233/213 217/231/212
f 43/228/209 450/226/207 217/231/212 453/233/213
f 450/226/207 173/47/45 366/49/47 217/231/212
f 172/55/50 454/234/214 218/235/215 368/53/49
f 454/234/214 47/236/165 427/237/164 218/235/215
f 45/232/163 452/230/211 218/235/215 427/237/164
f 452/230/211 188/51/48 368/53/49 218/235/215
f 190/59/52 455/238/216 219/239/217 370/57/51
f 455/238/216 88/240/218 456/241/219 219/239/217
f 47/236/165 454/234/214 219/239/217 456/241/219
f 454/234/214 172/55/50 370/57/51 219/239/217
f 183/65/57 457/242/220 220/243/221 372/62/55
f 457/242/220 65/244/222 458/245/223 220/243/221
f 63/246/224 459/247/225 220/243/221 458/245/223
f 459/247/225 171/63/53 372/62/55 220/243/221
f 169/69/60 460/248/226 221/249/227 462/250/228
f 460/248/226 67/251/229 461/252/230 221/249/227
f 65/244/222 457/242/220 221/249/227 461/252/230
f 457/242/220 183/65/57 462/250/228 221/249/227
f 179/71/62 463/253/231 222/254/232 374/68/59
f 463/253/231 69/255/233 464/256/234 222/254/232
f 67/251/229 460/248/226 222/254/232 464/256/234
f 460/248/226 169/69/60 374/68/59 222/254/232
f 180/77/67 465/257/235 223/258/236 376/74/65
f 465/257/235 73/259/237 466/260/238 223/258/236
f 70/261/239 467/262/240 223/258/236 466/260/238
f 467/262/240 167/75/63 376/74/65 223/258/236
f 176/81/71 468/263/241 224/264/242 378/79/69
f 468/263/241 75/265/243 469/266/244 224/264/242
f 73/259/237 465/257/235 224/264/242 469/266/244
f 465/257/235 180/77/67 378/79/69 224/264/242
f 177/85/75 470/267/245 225/268/246 472/269/247
f 470/267/245 77/270/187 471/271/248 225/268/246
f 75/265/243 468/263/241 225/268/246 471/271/248
f 468/263/241 176/81/71 472/269/247 225/268/246
f 168/87/76 473/272/249 226/273/250 380/84/74
f 473/272/249 36/274/189 440/275/188 226/273/250
f 77/270/187 470/267/245 226/273/250 440/275/188
f 470/267/245 177/85/75 380/84/74 226/273/250
f 178/35/35 447/219/202 227/276/251 382/89/78
f 447/219/202 37/218/201 474/277/252 227/276/251
f 36/274/189 473/272/249 227/276/251 474/277/252
f 473/272/249 168/87/76 382/89/78 227/276/251
f 189/95/83 475/278/253 228/279/254 384/92/80
f 475/278/253 84/280/255 476/281/256 228/279/254
f 49/282/257 477/283/258 228/279/254 476/281/256
f 477/283/258 184/93/81 384/92/80 228/279/254
f 167/75/63 467/262/240 229/284/259 386/97/62
f 467/262/240 70/261/239 478/285/260 229/284/259
f 69/255/233 463/253/231 229/284/259 478/285/260
f 463/253/231 179/71/62 386/97/62 229/284/259
f 166/286/261 479/287/262 230/288/263 481/289/264
f 479/287/262 50/290/265 480/291/266 230/288/263
f 84/280/255 475/278/253 230/288/263 480/291/266
f 475/278/253 189/95/83 481/289/264 230/288/263
f 184/93/81 477/283/258 231/292/267 412/151/52
f 477/283/258 49/282/257 482/293/268 231/292/267
f 88/240/218 455/238/216 231/292/267 482/293/268
f 455/238/216 190/59/52 412/151/52 231/292/267
f 12/294/269 483/295/270 232/296/271 485/297/272
f 483/295/270 107/298/273 484/299/274 232/296/271
f 108/14/14 485/297/272 232/296/271 484/299/274
f 91/135/120 407/138/123 233/300/275 488/301/276
f 407/138/123 8/143/128 486/302/277 233/300/275
f 9/303/278 487/304/279 233/300/275 486/302/277
f 487/304/279 10/25/25 488/301/276 233/300/275
f 91/135/120 488/301/276 234/305/280 425/177/160
f 488/301/276 10/25/25 354/24/24 234/305/280
f 6/23/23 358/28/28 234/305/280 354/24/24
f 358/28/28 115/31/31 425/177/160 234/305/280
f 97/306/281 489/307/282 235/308/283 492/309/284
f 489/307/282 2/310/285 490/311/286 235/308/283
f 7/312/287 491/313/288 235/308/283 490/311/286
f 491/313/288 96/314/289 492/309/284 235/308/283
f 2/310/285 493/315/290 236/316/291 495/317/292
f 493/315/290 99/158/141 419/166/149 236/316/291
f 100/165/148 494/318/293 236/316/291 419/166/149
f 494/318/293 101/319/294 495/317/292 236/316/291
f 98/160/143 415/159/142 237/320/295 496/321/296
f 415/159/142 99/158/141 493/315/290 237/320/295
f 2/310/285 489/307/282 237/320/295 493/315/290
f 489/307/282 97/306/281 496/321/296 237/320/295
f 101/319/294 497/322/297 238/323/298 495/317/292
f 497/322/297 102/324/299 498/325/300 238/323/298
f 7/312/287 490/311/286 238/323/298 498/325/300
f 490/311/286 2/310/285 495/317/292 238/323/298
f 103/326/301 499/327/302 239/328/303 501/329/304
f 499/327/302 86/144/129 410/147/132 239/328/303
f 82/149/134 500/330/305 239/328/303 410/147/132
f 500/330/305 3/331/306 501/329/304 239/328/303
f 12/294/269 485/297/272 240/332/307 503/333/308
f 485/297/272 108/14/14 349/11/11 240/332/307
f 4/10/10 502/334/309 240/332/307 349/11/11
f 502/334/309 5/17/17 503/333/308 240/332/307
f 109/16/16 504/335/310 241/336/311 351/13/13
f 504/335/310 110/337/312 505/338/313 241/336/311
f 111/339/314 506/340/315 241/336/311 505/338/313
f 506/340/315 4/10/10 351/13/13 241/336/311
f 4/10/10 506/340/315 242/341/316 502/334/309
f 506/340/315 111/339/314 507/342/317 242/341/316
f 112/343/318 508/344/319 242/341/316 507/342/317
f 508/344/319 5/17/17 502/334/309 242/341/316
f 102/324/299 509/345/320 243/346/321 498/325/300
f 509/345/320 103/326/301 501/329/304 243/346/321
f 3/331/306 510/347/322 243/346/321 501/329/304
f 510/347/322 7/312/287 498/325/300 243/346/321
f 3/331/306 511/348/323 244/349/324 510/347/322
f 511/348/323 95/350/325 512/351/326 244/349/324
f 96/314/289 491/313/288 244/349/324 512/351/326
f 491/313/288 7/312/287 510/347/322 244/349/324
f 30/352/327 513/353/328 514/354/329 166/286/261
f 513/353/328 21/355/330 175/356/331 514/354/329
f 21/355/330 515/357/332 516/358/333 175/356/331
f 515/357/332 13/359/334 181/360/335 516/358/333
f 13/359/334 517/361/336 518/362/337 181/360/335
f 517/361/336 22/363/338 185/364/339 518/362/337
f 22/363/338 519/365/340 520/366/341 185/364/339
f 519/365/340 14/367/342 170/368/343 520/366/341
f 23/369/344 182/370/345 521/371/346 522/372/347
f 170/368/343 14/367/342 522/372/347 521/371/346
f 15/373/348 186/374/349 523/375/350 524/376/351
f 182/370/345 23/369/344 524/376/351 523/375/350
f 24/60/53 171/63/53 525/377/352 526/378/353
f 186/374/349 15/373/348 526/378/353 525/377/352
f 31/66/58 169/69/60 462/250/228 527/379/354
f 183/65/57 16/64/56 527/379/354 462/250/228
f 17/82/72 177/85/75 472/269/247 528/380/355
f 176/81/71 33/80/70 528/380/355 472/269/247
f 94/381/356 529/382/357 245/383/358 530/384/359
f 529/382/357 82/149/134 409/148/133 245/383/358
f 8/143/128 406/142/127 245/383/358 409/148/133
f 406/142/127 93/141/126 530/384/359 245/383/358
f 11/7/7 531/385/360 246/386/361 347/8/8
f 531/385/360 12/294/269 532/387/362 246/386/361
f 9/303/278 533/388/363 246/386/361 532/387/362
f 533/388/363 1/9/9 347/8/8 246/386/361
f 11/7/7 388/101/87 247/389/364 531/385/360
f 388/101/87 106/100/86 534/390/365 247/389/364
f 107/298/273 483/295/270 247/389/364 534/390/365
f 483/295/270 12/294/269 531/385/360 247/389/364
f 159/391/366 535/392/366 248/393/367 538/394/367
f 535/392/366 158/395/368 536/396/369 248/393/367
f 116/397/370 537/398/371 248/393/367 536/396/369
f 537/398/371 117/399/372 538/394/367 248/393/367
f 131/400/373 539/401/374 249/402/375 542/403/376
f 539/401/374 130/404/377 540/405/378 249/402/375
f 132/406/379 541/407/380 249/402/375 540/405/378
f 541/407/380 133/408/381 542/403/376 249/402/375
f 139/119/104 395/118/103 250/409/382 545/410/383
f 395/118/103 138/117/102 543/411/384 250/409/382
f 140/412/385 544/413/386 250/409/382 543/411/384
f 544/413/386 141/414/387 545/410/383 250/409/382
f 132/406/379 546/415/388 251/416/389 541/407/380
f 546/415/388 134/124/109 397/121/106 251/416/389
f 135/120/105 547/417/390 251/416/389 397/121/106
f 547/417/390 133/408/381 541/407/380 251/416/389
f 147/418/391 548/419/392 252/420/393 551/421/394
f 548/419/392 146/422/395 549/423/394 252/420/393
f 148/424/396 550/425/396 252/420/393 549/423/394
f 550/425/396 149/426/396 551/421/394 252/420/393
f 153/427/397 552/428/398 253/429/399 554/430/400
f 552/428/398 152/431/401 553/432/402 253/429/399
f 118/130/115 400/127/112 253/429/399 553/432/402
f 400/127/112 119/126/111 554/430/400 253/429/399
f 140/412/385 555/433/403 254/434/404 544/413/386
f 555/433/403 142/435/405 556/436/406 254/434/404
f 143/437/407 557/438/408 254/434/404 556/436/406
f 557/438/408 141/414/387 544/413/386 254/434/404
f 145/439/409 558/440/410 255/441/411 560/442/412
f 558/440/410 144/443/413 559/444/414 255/441/411
f 146/422/395 548/419/392 255/441/411 559/444/414
f 548/419/392 147/418/391 560/442/412 255/441/411
f 154/132/117 561/445/415 256/446/416 402/133/118
f 561/445/415 161/447/417 562/448/418 256/446/416
f 160/449/419 563/450/420 256/446/416 562/448/418
f 563/450/420 155/134/119 402/133/118 256/446/416
f 161/447/417 564/451/421 257/452/422 562/448/418
f 564/451/421 120/453/423 565/454/424 257/452/422
f 121/455/425 566/456/426 257/452/422 565/454/424
f 566/456/426 160/449/419 562/448/418 257/452/422
f 122/457/427 567/458/428 258/459/429 570/460/430
f 567/458/428 124/461/431 568/462/432 258/459/429
f 125/463/433 569/464/434 258/459/429 568/462/432
f 569/464/434 123/465/427 570/460/430 258/459/429
f 124/461/431 571/466/435 259/467/436 568/462/432
f 571/466/435 126/106/92 389/103/89 259/467/436
f 127/102/88 572/468/437 259/467/436 389/103/89
f 572/468/437 125/463/433 568/462/432 259/467/436
f 143/437/407 556/436/406 260/469/438 574/470/439
f 556/436/406 142/435/405 573/471/440 260/469/438
f 144/443/413 558/440/410 260/469/438 573/471/440
f 558/440/410 145/439/409 574/470/439 260/469/438
f 163/472/441 575/473/442 261/474/443 577/475/444
f 575/473/442 130/404/377 539/401/374 261/474/443
f 131/400/373 576/476/445 261/474/443 539/401/374
f 576/476/445 162/477/446 577/475/444 261/474/443
f 123/465/427 578/478/447 262/479/448 570/460/430
f 578/478/447 121/455/425 565/454/424 262/479/448
f 120/453/423 579/480/449 262/479/448 565/454/424
f 579/480/449 122/457/427 570/460/430 262/479/448
f 151/481/450 580/482/451 263/483/452 583/484/453
f 580/482/451 164/485/454 581/486/455 263/483/452
f 165/487/456 582/488/457 263/483/452 581/486/455
f 582/488/457 150/489/458 583/484/453 263/483/452
f 152/431/401 552/428/398 264/490/459 585/491/460
f 552/428/398 153/427/397 584/492/461 264/490/459
f 151/481/450 583/484/453 264/490/459 584/492/461
f 583/484/453 150/489/458 585/491/460 264/490/459
f 157/493/462 586/494/463 265/495/464 588/496/465
f 586/494/463 156/497/466 587/498/467 265/495/464
f 163/472/441 577/475/444 265/495/464 587/498/467
f 577/475/444 162/477/446 588/496/465 265/495/464
f 164/485/454 589/499/468 266/500/469 581/486/455
f 589/499/468 149/426/396 550/425/396 266/500/469
f 148/424/396 590/501/470 266/500/469 550/425/396
f 590/501/470 165/487/456 581/486/455 266/500/469
f 10/25/25 487/304/279 267/502/471 355/20/20
f 487/304/279 9/303/278 532/387/362 267/502/471
f 12/294/269 503/333/308 267/502/471 532/387/362
f 503/333/308 5/17/17 355/20/20 267/502/471
f 112/343/318 591/503/472 268/504/473 508/344/319
f 591/503/472 113/505/474 592/506/475 268/504/473
f 90/21/21 352/18/18 268/504/473 592/506/475
f 352/18/18 5/17/17 508/344/319 268/504/473
f 104/1/1 348/4/4 269/507/476 594/508/477
f 348/4/4 1/9/9 593/509/478 269/507/476
f 86/144/129 499/327/302 269/507/476 593/509/478
f 499/327/302 103/326/301 594/508/477 269/507/476
f 95/350/325 511/348/323 270/510/479 595/511/480
f 511/348/323 3/331/306 500/330/305 270/510/479
f 82/149/134 529/382/357 270/510/479 500/330/305
f 529/382/357 94/381/356 595/511/480 270/510/479
f 85/94/82 596/512/481 481/289/264 189/95/83
f 596/512/481 30/352/327 166/286/261 481/289/264
f 116/397/370 597/513/482 271/514/483 537/398/371
f 597/513/482 156/497/466 586/494/463 271/514/483
f 157/493/462 598/515/484 271/514/483 586/494/463
f 598/515/484 117/399/372 537/398/371 271/514/483
f 129/110/96 391/109/95 272/516/485 600/517/486
f 391/109/95 128/108/94 599/518/487 272/516/485
f 158/395/368 535/392/366 272/516/485 599/518/487
f 535/392/366 159/391/366 600/517/486 272/516/485
f 113/505/474 601/519/488 273/520/489 592/506/475
f 601/519/488 114/29/29 356/26/26 273/520/489
f 6/23/23 353/22/22 273/520/489 356/26/26
f 353/22/22 90/21/21 592/506/475 273/520/489
f 46/175/158 602/521/490 274/522/491 424/176/159
f 602/521/490 87/523/492 603/524/493 274/522/491
f 92/139/124 404/136/121 274/522/491 603/524/493
f 404/136/121 91/135/120 424/176/159 274/522/491
f 87/523/492 604/525/494 275/526/495 603/524/493
f 604/525/494 48/527/496 605/528/497 275/526/495
f 93/141/126 405/140/125 275/526/495 605/528/497
f 405/140/125 92/139/124 603/524/493 275/526/495
f 48/527/496 606/529/498 276/530/499 605/528/497
f 606/529/498 83/531/500 607/532/501 276/530/499
f 94/381/356 530/384/359 276/530/499 607/532/501
f 530/384/359 93/141/126 605/528/497 276/530/499
f 83/531/500 608/533/502 277/534/503 607/532/501
f 608/533/502 51/535/504 609/536/505 277/534/503
f 95/350/325 595/511/480 277/534/503 609/536/505
f 595/511/480 94/381/356 607/532/501 277/534/503
f 51/535/504 610/537/506 278/538/507 609/536/505
f 610/537/506 52/539/508 611/540/509 278/538/507
f 96/314/289 512/351/326 278/538/507 611/540/509
f 512/351/326 95/350/325 609/536/505 278/538/507
f 52/539/508 612/541/510 279/542/511 611/540/509
f 612/541/510 54/543/512 613/544/513 279/542/511
f 97/306/281 492/309/284 279/542/511 613/544/513
f 492/309/284 96/314/289 611/540/509 279/542/511
f 54/543/512 614/545/514 280/546/515 613/544/513
f 614/545/514 79/152/135 416/155/138 280/546/515
f 98/160/143 496/321/296 280/546/515 416/155/138
f 496/321/296 97/306/281 613/544/513 280/546/515
f 78/163/146 615/547/516 281/548/517 418/164/147
f 615/547/516 60/549/518 616/550/519 281/548/517
f 101/319/294 494/318/293 281/548/517 616/550/519
f 494/318/293 100/165/148 418/164/147 281/548/517
f 60/549/518 617/551/520 282/552/521 616/550/519
f 617/551/520 62/553/522 618/554/523 282/552/521
f 102/324/299 497/322/297 282/552/521 618/554/523
f 497/322/297 101/319/294 616/550/519 282/552/521
f 62/553/522 619/555/524 283/556/525 618/554/523
f 619/555/524 64/557/526 620/558/527 283/556/525
f 103/326/301 509/345/320 283/556/525 620/558/527
f 509/345/320 102/324/299 618/554/523 283/556/525
f 64/557/526 621/559/528 284/560/529 620/558/527
f 621/559/528 66/561/530 622/562/531 284/560/529
f 104/1/1 594/508/477 284/560/529 622/562/531
f 594/508/477 103/326/301 620/558/527 284/560/529
f 66/561/530 623/563/532 285/564/533 622/562/531
f 623/563/532 68/565/534 624/566/535 285/564/533
f 105/5/5 345/2/2 285/564/533 624/566/535
f 345/2/2 104/1/1 622/562/531 285/564/533
f 68/565/534 625/567/536 286/568/537 624/566/535
f 625/567/536 71/569/538 626/570/539 286/568/537
f 106/100/86 387/98/84 286/568/537 626/570/539
f 387/98/84 105/5/5 624/566/535 286/568/537
f 71/569/538 627/571/540 287/572/541 626/570/539
f 627/571/540 72/573/542 628/574/543 287/572/541
f 107/298/273 534/390/365 287/572/541 628/574/543
f 534/390/365 106/100/86 626/570/539 287/572/541
f 72/573/542 629/575/544 288/576/545 628/574/543
f 629/575/544 74/577/546 630/578/547 288/576/545
f 108/14/14 484/299/274 288/576/545 630/578/547
f 484/299/274 107/298/273 628/574/543 288/576/545
f 74/577/546 631/579/548 289/580/549 630/578/547
f 631/579/548 76/212/195 632/581/550 289/580/549
f 109/16/16 350/15/15 289/580/549 632/581/550
f 350/15/15 108/14/14 630/578/547 289/580/549
f 76/212/195 443/211/194 290/582/551 632/581/550
f 443/211/194 80/210/193 633/583/552 290/582/551
f 110/337/312 504/335/310 290/582/551 633/583/552
f 504/335/310 109/16/16 632/581/550 290/582/551
f 80/210/193 634/584/553 291/585/554 633/583/552
f 634/584/553 81/586/555 635/587/556 291/585/554
f 111/339/314 505/338/313 291/585/554 635/587/556
f 505/338/313 110/337/312 633/583/552 291/585/554
f 81/586/555 636/588/557 292/589/558 635/587/556
f 636/588/557 38/590/559 637/591/560 292/589/558
f 112/343/318 507/342/317 292/589/558 637/591/560
f 507/342/317 111/339/314 635/587/556 292/589/558
f 38/590/559 638/592/561 293/593/562 637/591/560
f 638/592/561 40/594/563 639/595/564 293/593/562
f 113/505/474 591/503/472 293/593/562 639/595/564
f 591/503/472 112/343/318 637/591/560 293/593/562
f 40/594/563 640/596/565 294/597/566 639/595/564
f 640/596/565 42/167/150 422/170/153 294/597/566
f 114/29/29 601/519/488 294/597/566 422/170/153
f 601/519/488 113/505/474 639/595/564 294/597/566
f 88/598/218 482/599/268 295/600/567 642/601/568
f 482/599/268 49/602/257 641/603/569 295/600/567
f 116/397/370 536/396/369 295/600/567 641/603/569
f 536/396/369 158/395/368 642/601/568 295/600/567
f 48/527/496 604/525/494 296/604/570 644/605/571
f 604/525/494 87/523/492 643/606/572 296/604/570
f 159/391/366 538/394/367 296/604/570 643/606/572
f 538/394/367 117/399/372 644/605/571 296/604/570
f 53/607/573 645/608/574 297/609/575 647/610/576
f 645/608/574 55/611/577 646/612/578 297/609/575
f 132/406/379 540/405/378 297/609/575 646/612/578
f 540/405/378 130/404/377 647/610/576 297/609/575
f 54/543/512 612/541/510 298/613/579 649/614/580
f 612/541/510 52/539/508 648/615/581 298/613/579
f 131/400/373 542/403/376 298/613/579 648/615/581
f 542/403/376 133/408/381 649/614/580 298/613/579
f 138/117/102 433/192/175 299/616/582 543/411/384
f 433/192/175 59/191/174 650/617/583 299/616/582
f 61/618/584 651/619/585 299/616/582 650/617/583
f 651/619/585 140/412/385 543/411/384 299/616/582
f 60/549/518 615/547/516 300/620/586 652/621/587
f 615/547/516 78/163/146 434/193/176 300/620/586
f 139/119/104 545/410/383 300/620/586 434/193/176
f 545/410/383 141/414/387 652/621/587 300/620/586
f 55/611/577 653/622/588 301/623/589 646/612/578
f 653/622/588 56/198/181 436/196/179 301/623/589
f 134/124/109 546/415/388 301/623/589 436/196/179
f 546/415/388 132/406/379 646/612/578 301/623/589
f 79/152/135 614/545/514 302/624/590 438/201/184
f 614/545/514 54/543/512 649/614/580 302/624/590
f 133/408/381 547/417/390 302/624/590 649/614/580
f 547/417/390 135/120/105 438/201/184 302/624/590
f 146/422/395 654/625/591 303/626/592 549/423/394
f 654/625/591 67/627/229 464/628/234 303/626/592
f 69/629/233 655/630/593 303/626/592 464/628/234
f 655/630/593 148/424/396 549/423/394 303/626/592
f 149/426/396 656/631/594 304/632/595 551/421/394
f 656/631/594 68/565/534 623/563/532 304/632/595
f 66/561/530 657/633/596 304/632/595 623/563/532
f 657/633/596 147/418/391 551/421/394 304/632/595
f 152/431/401 658/634/597 305/635/598 553/432/402
f 658/634/597 75/636/243 471/637/248 305/635/598
f 77/204/187 439/202/185 305/635/598 471/637/248
f 439/202/185 118/130/115 553/432/402 305/635/598
f 74/577/546 659/638/599 306/639/600 631/579/548
f 659/638/599 153/427/397 554/430/400 306/639/600
f 119/126/111 444/213/196 306/639/600 554/430/400
f 444/213/196 76/212/195 631/579/548 306/639/600
f 61/618/584 660/640/601 307/641/602 651/619/585
f 660/640/601 63/642/224 661/643/603 307/641/602
f 142/435/405 555/433/403 307/641/602 661/643/603
f 555/433/403 140/412/385 651/619/585 307/641/602
f 62/553/522 617/551/520 308/644/604 662/645/605
f 617/551/520 60/549/518 652/621/587 308/644/604
f 141/414/387 557/438/408 308/644/604 652/621/587
f 557/438/408 143/437/407 662/645/605 308/644/604
f 144/443/413 663/646/606 309/647/607 559/444/414
f 663/646/606 65/648/222 461/649/230 309/647/607
f 67/627/229 654/625/591 309/647/607 461/649/230
f 654/625/591 146/422/395 559/444/414 309/647/607
f 147/418/391 657/633/596 310/650/608 560/442/412
f 657/633/596 66/561/530 621/559/528 310/650/608
f 64/557/526 664/651/609 310/650/608 621/559/528
f 664/651/609 145/439/409 560/442/412 310/650/608
f 36/206/189 474/652/252 311/653/610 441/207/190
f 474/652/252 37/654/201 665/655/611 311/653/610
f 161/447/417 561/445/415 311/653/610 665/655/611
f 561/445/415 154/132/117 441/207/190 311/653/610
f 81/586/555 634/584/553 312/656/612 666/657/613
f 634/584/553 80/210/193 442/208/191 312/656/612
f 155/134/119 563/450/420 312/656/612 442/208/191
f 563/450/420 160/449/419 666/657/613 312/656/612
f 37/654/201 446/658/200 313/659/614 665/655/611
f 446/658/200 39/660/199 667/661/615 313/659/614
f 120/453/423 564/451/421 313/659/614 667/661/615
f 564/451/421 161/447/417 665/655/611 313/659/614
f 38/590/559 636/588/557 314/662/616 668/663/617
f 636/588/557 81/586/555 666/657/613 314/662/616
f 160/449/419 566/456/426 314/662/616 666/657/613
f 566/456/426 121/455/425 668/663/617 314/662/616
f 41/664/205 451/665/210 315/666/618 670/667/619
f 451/665/210 43/668/209 669/669/620 315/666/618
f 124/461/431 567/458/428 315/666/618 669/669/620
f 567/458/428 122/457/427 670/667/619 315/666/618
f 42/167/150 640/596/565 316/670/621 672/671/622
f 640/596/565 40/594/563 671/672/623 316/670/621
f 123/465/427 569/464/434 316/670/621 671/672/623
f 569/464/434 125/463/433 672/671/622 316/670/621
f 43/668/209 453/673/213 317/674/624 669/669/620
f 453/673/213 45/180/163 426/178/161 317/674/624
f 126/106/92 571/466/435 317/674/624 426/178/161
f 571/466/435 124/461/431 669/669/620 317/674/624
f 44/171/154 420/168/151 318/675/625 430/186/169
f 420/168/151 42/167/150 672/671/622 318/675/625
f 125/463/433 572/468/437 318/675/625 672/671/622
f 572/468/437 127/102/88 430/186/169 318/675/625
f 142/435/405 661/643/603 319/676/626 573/471/440
f 661/643/603 63/642/224 458/677/223 319/676/626
f 65/648/222 663/646/606 319/676/626 458/677/223
f 663/646/606 144/443/413 573/471/440 319/676/626
f 145/439/409 664/651/609 320/678/627 574/470/439
f 664/651/609 64/557/526 619/555/524 320/678/627
f 62/553/522 662/645/605 320/678/627 619/555/524
f 662/645/605 143/437/407 574/470/439 320/678/627
f 50/679/265 673/680/628 321/681/629 674/682/630
f 673/680/628 53/607/573 647/610/576 321/681/629
f 130/404/377 575/473/442 321/681/629 647/610/576
f 575/473/442 163/472/441 674/682/630 321/681/629
f 52/539/508 610/537/506 322/683/631 648/615/581
f 610/537/506 51/535/504 675/684/632 322/683/631
f 162/477/446 576/476/445 322/683/631 675/684/632
f 576/476/445 131/400/373 648/615/581 322/683/631
f 40/594/563 638/592/561 323/685/633 671/672/623
f 638/592/561 38/590/559 668/663/617 323/685/633
f 121/455/425 578/478/447 323/685/633 668/663/617
f 578/478/447 123/465/427 671/672/623 323/685/633
f 39/660/199 449/686/206 324/687/634 667/661/615
f 449/686/206 41/664/205 670/667/619 324/687/634
f 122/457/427 579/480/449 324/687/634 670/667/619
f 579/480/449 120/453/423 667/661/615 324/687/634
f 72/573/542 627/571/540 325/688/635 677/689/636
f 627/571/540 71/569/538 676/690/637 325/688/635
f 164/485/454 580/482/451 325/688/635 676/690/637
f 580/482/451 151/481/450 677/689/636 325/688/635
f 70/691/239 466/692/238 326/693/638 679/694/639
f 466/692/238 73/695/237 678/696/640 326/693/638
f 150/489/458 582/488/457 326/693/638 678/696/640
f 582/488/457 165/487/456 679/694/639 326/693/638
f 153/427/397 659/638/599 327/697/641 584/492/461
f 659/638/599 74/577/546 629/575/544 327/697/641
f 72/573/542 677/689/636 327/697/641 629/575/544
f 677/689/636 151/481/450 584/492/461 327/697/641
f 150/489/458 678/696/640 328/698/642 585/491/460
f 678/696/640 73/695/237 469/699/244 328/698/642
f 75/636/243 658/634/597 328/698/642 469/699/244
f 658/634/597 152/431/401 585/491/460 328/698/642
f 84/700/255 480/701/266 329/702/643 680/703/644
f 480/701/266 50/679/265 674/682/630 329/702/643
f 163/472/441 587/498/467 329/702/643 674/682/630
f 587/498/467 156/497/466 680/703/644 329/702/643
f 51/535/504 608/533/502 330/704/645 675/684/632
f 608/533/502 83/531/500 681/705/646 330/704/645
f 157/493/462 588/496/465 330/704/645 681/705/646
f 588/496/465 162/477/446 675/684/632 330/704/645
f 71/569/538 625/567/536 331/706/647 676/690/637
f 625/567/536 68/565/534 656/631/594 331/706/647
f 149/426/396 589/499/468 331/706/647 656/631/594
f 589/499/468 164/485/454 676/690/637 331/706/647
f 69/629/233 478/707/260 332/708/648 655/630/593
f 478/707/260 70/691/239 679/694/639 332/708/648
f 165/487/456 590/501/470 332/708/648 679/694/639
f 590/501/470 148/424/396 655/630/593 332/708/648
f 49/602/257 476/709/256 333/710/649 641/603/569
f 476/709/256 84/700/255 680/703/644 333/710/649
f 156/497/466 597/513/482 333/710/649 680/703/644
f 597/513/482 116/397/370 641/603/569 333/710/649
f 83/531/500 606/529/498 334/711/650 681/705/646
f 606/529/498 48/527/496 644/605/571 334/711/650
f 117/399/372 598/515/484 334/711/650 644/605/571
f 598/515/484 157/493/462 681/705/646 334/711/650
f 128/108/94 428/183/166 335/712/651 599/518/487
f 428/183/166 47/182/165 456/713/219 335/712/651
f 88/598/218 642/601/568 335/712/651 456/713/219
f 642/601/568 158/395/368 599/518/487 335/712/651
f 159/391/366 643/606/572 336/714/652 600/517/486
f 643/606/572 87/523/492 602/521/490 336/714/652
f 46/175/158 429/184/167 336/714/652 602/521/490
f 429/184/167 129/110/96 600/517/486 336/714/652
f 53/715/573 673/716/628 337/717/653 682/718/654
f 673/716/628 50/290/265 479/287/262 337/717/653
f 166/286/261 514/354/329 337/717/653 479/287/262
f 514/354/329 175/356/331 682/718/654 337/717/653
f 55/719/577 645/720/574 338/721/655 683/722/656
f 645/720/574 53/715/573 682/718/654 338/721/655
f 175/356/331 516/358/333 338/721/655 682/718/654
f 516/358/333 181/360/335 683/722/656 338/721/655
f 56/723/181 653/724/588 339/725/657 684/726/658
f 653/724/588 55/719/577 683/722/656 339/725/657
f 181/360/335 518/362/337 339/725/657 683/722/656
f 518/362/337 185/364/339 684/726/658 339/725/657
f 58/727/172 437/728/182 340/729/659 685/730/660
f 437/728/182 56/723/181 684/726/658 340/729/659
f 185/364/339 520/366/341 340/729/659 684/726/658
f 520/366/341 170/368/343 685/730/660 340/729/659
f 182/370/345 686/731/661 341/732/662 521/371/346
f 686/731/661 59/733/174 432/734/173 341/732/662
f 58/727/172 685/730/660 341/732/662 432/734/173
f 685/730/660 170/368/343 521/371/346 341/732/662
f 186/374/349 687/735/663 342/736/664 523/375/350
f 687/735/663 61/737/584 650/738/583 342/736/664
f 59/733/174 686/731/661 342/736/664 650/738/583
f 686/731/661 182/370/345 523/375/350 342/736/664
f 171/63/53 459/247/225 343/739/665 525/377/352
f 459/247/225 63/246/224 660/740/601 343/739/665
f 61/737/584 687/735/663 343/739/665 660/740/601
f 687/735/663 186/374/349 525/377/352 343/739/665
f 1/9/9 533/388/363 344/741/666 593/509/478
f 533/388/363 9/303/278 486/302/277 344/741/666
f 8/143/128 408/145/130 344/741/666 486/302/277
f 408/145/130 86/144/129 593/509/478 344/741/666
