# Blender 4.5.3 LTS
# www.blender.org
o DPadLeftArrow
v -66.813034 -19.699530 0.013466
v -66.670074 -19.682165 1.804161
v -66.533577 -19.665405 2.241364
v -64.396088 -15.931181 4.361839
v -64.393951 -15.931181 4.112061
v -67.673729 -15.931181 0.871582
v -67.614273 -15.931181 1.547272
v -67.367531 -15.931181 1.455162
v -67.424446 -15.931181 0.808090
v -67.506325 -15.931181 2.159340
v -67.264137 -15.931181 2.041298
v -67.062653 -15.980587 1.943718
v -67.162064 -15.980587 1.379425
v -67.216774 -15.980587 0.756180
v -67.709946 -15.931181 -0.286530
v -67.703194 -15.931181 0.082741
v -67.452660 -15.931181 0.052635
v -67.459129 -15.931181 -0.300964
v -67.234749 -15.980587 0.392357
v -67.443146 -15.931181 0.430618
v -66.151154 -15.931181 4.011963
v -65.559166 -15.931181 4.246567
v -65.500916 -15.931181 4.023308
v -66.035538 -15.931181 3.801857
v -64.397858 -15.980587 3.901566
v -65.452507 -15.980587 3.837311
v -65.939507 -15.980587 3.626648
v -67.056160 -15.931181 3.193871
v -66.656708 -15.931181 3.645592
v -66.485565 -15.931181 3.457069
v -66.841805 -15.931181 3.030144
v -66.343414 -15.980587 3.299904
v -66.663742 -15.980587 2.893806
v -67.329819 -15.931181 2.703323
v -67.095116 -15.931181 2.562225
v -66.900009 -15.980587 2.445145
v -66.965645 -18.228697 -0.318558
v -66.959908 -18.228313 0.015999
v -67.107765 -16.752605 -0.317329
v -67.101753 -16.752502 0.018555
v -66.656616 -18.208765 2.306618
v -66.447639 -18.195040 2.715538
v -66.802650 -18.218363 1.846542
v -66.930130 -16.750023 1.889267
v -66.774460 -16.747625 2.372307
v -66.551140 -16.744190 2.803200
v -64.437042 -15.097509 4.734718
v -62.389584 -15.097509 4.771141
v -62.389584 -15.664755 4.771141
v -64.437042 -15.664755 4.734718
v -68.065437 -15.097509 0.971367
v -68.002037 -15.097509 1.692039
v -68.002029 -15.664755 1.692039
v -68.065437 -15.664755 0.971367
v -67.886894 -15.097509 2.344826
v -67.886902 -15.664755 2.344826
v -68.104073 -15.097507 -0.263794
v -68.096863 -15.097507 0.130028
v -68.096863 -15.664755 0.130028
v -68.104073 -15.664755 -0.263794
v -66.332825 -15.097509 4.342171
v -65.650711 -15.097509 4.597435
v -65.650711 -15.664755 4.597435
v -66.332825 -15.664755 4.342171
v -67.392998 -15.097509 3.451187
v -66.925644 -15.097509 3.941826
v -66.925644 -15.664755 3.941826
v -67.392998 -15.664755 3.451187
v -67.698639 -15.097509 2.925011
v -67.698639 -15.664755 2.925011
v -64.381287 -14.831078 4.411102
v -62.389584 -14.831078 4.448418
v -62.389584 -14.831074 4.642075
v -64.414749 -14.831074 4.605247
v -64.431458 -14.856863 4.702324
v -65.640938 -14.856859 4.566124
v -65.611595 -14.831074 4.472290
v -66.317276 -14.856863 4.313225
v -66.270660 -14.831074 4.226440
v -66.177414 -14.831078 4.052811
v -65.552933 -14.831074 4.284599
v -67.366615 -14.856863 3.431656
v -67.287453 -14.831074 3.373039
v -66.840118 -14.831074 3.842743
v -66.904266 -14.856859 3.917046
v -67.129112 -14.831078 3.255859
v -66.711807 -14.831074 3.694153
v -67.855408 -14.856863 2.335884
v -67.760941 -14.831074 2.309082
v -67.580132 -14.831074 2.869118
v -67.669029 -14.856859 2.911026
v -67.572014 -14.831078 2.255470
v -67.402336 -14.831074 2.785248
v -68.032822 -14.856863 0.968689
v -67.935028 -14.831074 0.960602
v -67.872688 -14.831074 1.671074
v -67.969696 -14.856859 1.686775
v -67.739403 -14.831078 0.944412
v -67.678665 -14.831074 1.639633
v -67.973244 -14.831074 -0.266251
v -67.966118 -14.831074 0.124924
v -68.064171 -14.856859 0.128754
v -68.071350 -14.856859 -0.264404
v -67.776993 -14.831074 -0.269928
v -67.769997 -14.831074 0.117271
v -62.389584 -14.856863 4.738884
v -62.389584 -14.934212 4.771141
v -64.437042 -14.934212 4.734718
v -62.389584 -15.828049 4.771141
v -64.437042 -15.828049 4.734718
v -68.002037 -14.934212 1.692039
v -68.065437 -14.934212 0.971367
v -67.886894 -14.934212 2.344826
v -67.841927 -15.905403 2.322899
v -67.956223 -15.905403 1.674927
v -68.002029 -15.828049 1.692039
v -67.886894 -15.828049 2.344826
v -68.019135 -15.905403 0.959579
v -68.065437 -15.828049 0.971367
v -68.096855 -14.934210 0.130028
v -68.104073 -14.934210 -0.263794
v -68.086258 -15.097509 0.550980
v -68.086250 -14.934212 0.550980
v -68.039810 -15.905403 0.542297
v -68.086250 -15.828049 0.550980
v -68.096855 -15.828049 0.130028
v -68.104073 -15.828049 -0.263794
v -65.650711 -14.934212 4.597435
v -66.332817 -14.934212 4.342171
v -64.431000 -15.905403 4.691246
v -65.639893 -15.905403 4.555954
v -65.650711 -15.828049 4.597435
v -66.311348 -15.905403 4.303146
v -66.332817 -15.828049 4.342171
v -66.925644 -14.934212 3.941826
v -67.392998 -14.934212 3.451187
v -66.893860 -15.905403 3.906822
v -66.925644 -15.828049 3.941826
v -67.353188 -15.905403 3.420776
v -67.392998 -15.828049 3.451187
v -67.698639 -14.934212 2.925011
v -67.655052 -15.905403 2.898827
v -67.698647 -15.828049 2.925011
v -67.250160 -15.980587 -0.312782
v -67.243919 -15.980587 0.028053
v -67.161682 -16.128824 0.019623
v -67.167809 -16.128824 -0.316849
v -67.075699 -16.752111 0.736191
v -67.092903 -16.752359 0.377579
v -67.152679 -16.128824 0.379250
v -67.135017 -16.128824 0.738426
v -66.824364 -16.128824 2.400169
v -66.984055 -16.128824 1.907356
v -66.595009 -16.128824 2.840393
v -64.258652 -14.831074 3.699135
v -62.389584 -14.831074 3.738022
v -65.835510 -14.831074 3.416245
v -65.337799 -14.831074 3.596382
v -66.548592 -14.831074 2.826141
v -66.241356 -14.831074 3.149246
v -66.879257 -14.831074 2.058899
v -66.750465 -14.831074 2.477737
v -67.022156 -14.831074 0.885185
v -66.967232 -14.831074 1.524361
v -67.057449 -14.831074 -0.283424
v -67.050934 -14.831074 0.089134
v -64.412888 -15.931181 4.560921
v -67.818726 -15.931181 1.623589
v -67.880257 -15.931181 0.924210
v -67.706985 -15.931181 2.257126
v -68.057487 -15.905403 -0.266487
v -68.050339 -15.905403 0.124435
v -67.910759 -15.931181 0.107666
v -67.917747 -15.931181 -0.274529
v -67.693253 -15.931181 0.477386
v -67.900459 -15.931181 0.516205
v -65.607437 -15.931181 4.431580
v -66.246941 -15.931181 4.186066
v -66.798531 -15.931181 3.801788
v -67.233765 -15.931181 3.329521
v -67.524292 -15.931181 2.820221
v -66.790039 -19.696711 0.725731
v -66.748863 -19.691748 1.301491
v -64.398750 -16.709843 3.771759
v -67.024323 -16.751396 1.343422
v -66.889107 -18.223856 1.322350
v -66.935371 -18.226704 0.730949
v -65.878891 -16.734064 3.507118
v -65.421959 -16.727076 3.713440
v -65.394188 -18.126583 3.594810
v -65.823624 -18.154516 3.389359
v -66.253944 -16.739721 3.192596
v -66.172379 -18.177145 3.086365
v -64.399124 -16.128824 3.820412
v -67.081482 -16.128824 1.352318
v -65.433792 -16.128824 3.764153
v -65.902397 -16.128824 3.557312
v -66.288574 -16.128824 3.237770
v -67.462051 -15.931181 -0.627853
v -67.712990 -15.931181 -0.627853
v -66.968346 -18.228897 -0.627853
v -67.110519 -16.752649 -0.627853
v -68.107323 -15.664755 -0.627853
v -68.107323 -15.097509 -0.627853
v -68.074608 -14.856863 -0.627853
v -67.976440 -14.831078 -0.627853
v -67.780136 -14.831078 -0.627853
v -68.107315 -14.934212 -0.627853
v -68.107315 -15.828049 -0.627853
v -67.170586 -16.128824 -0.627853
v -67.252975 -15.980587 -0.627853
v -67.060318 -14.831078 -0.627853
v -67.920914 -15.931181 -0.627853
v -68.060715 -15.905403 -0.627853
v -66.804962 -19.698534 0.369743
v -66.951447 -18.227730 0.373619
v -68.086258 -15.664755 0.550980
v -67.955635 -14.831074 0.543030
v -68.053604 -14.856863 0.549019
v -67.759705 -14.831078 0.531105
v -67.041298 -14.831074 0.487373
v -67.673729 -15.931181 -2.127251
v -67.424446 -15.931181 -2.063751
v -67.367531 -15.931181 -2.710808
v -67.614288 -15.931181 -2.802956
v -67.264183 -15.931181 -3.296944
v -67.506439 -15.931181 -3.414963
v -67.062660 -15.980587 -3.199394
v -67.162064 -15.980587 -2.635101
v -67.216774 -15.980587 -2.011902
v -67.709946 -15.931181 -0.969139
v -67.459129 -15.931181 -0.954697
v -67.452660 -15.931181 -1.308304
v -67.703194 -15.931181 -1.338402
v -67.443146 -15.931181 -1.686287
v -67.234749 -15.980587 -1.648048
v -66.842140 -15.931181 -4.285706
v -66.663925 -15.980587 -4.149437
v -67.095284 -15.931181 -3.817856
v -67.330139 -15.931181 -3.958908
v -66.900101 -15.980587 -3.700813
v -66.965645 -18.228697 -0.937080
v -66.959908 -18.228313 -1.271645
v -67.107765 -16.752605 -0.938316
v -67.101753 -16.752502 -1.274193
v -66.930130 -16.750023 -3.144928
v -66.774460 -16.747625 -3.627998
v -68.065483 -15.097507 -2.227043
v -68.065437 -15.664755 -2.227043
v -68.002151 -15.664755 -2.947655
v -68.002335 -15.097507 -2.947609
v -67.887306 -15.664755 -3.600372
v -67.887604 -15.097507 -3.600281
v -68.104073 -15.097507 -0.991882
v -68.104073 -15.664755 -0.991882
v -68.096863 -15.664755 -1.385704
v -68.096863 -15.097507 -1.385704
v -67.699806 -15.097507 -4.180344
v -67.130478 -14.831074 -4.511101
v -67.856247 -14.856859 -3.591286
v -67.670326 -14.856857 -4.166290
v -67.581352 -14.831072 -4.124413
v -67.761726 -14.831072 -3.564529
v -67.403374 -14.831072 -4.040581
v -67.572670 -14.831074 -3.510933
v -68.032898 -14.856859 -2.224350
v -67.970093 -14.856857 -2.942337
v -67.873039 -14.831072 -2.926651
v -67.935081 -14.831072 -2.216248
v -67.678932 -14.831072 -2.895233
v -67.739449 -14.831074 -2.200089
v -67.973244 -14.831074 -0.989418
v -68.071350 -14.856859 -0.991264
v -68.064171 -14.856859 -1.384422
v -67.966118 -14.831074 -1.380569
v -67.776993 -14.831074 -0.985756
v -67.769997 -14.831074 -1.372940
v -68.065498 -14.934210 -2.227013
v -68.002411 -14.934210 -2.947594
v -67.887703 -14.934210 -3.600235
v -67.842201 -15.905403 -3.578484
v -67.887238 -15.828049 -3.600388
v -68.002113 -15.828049 -2.947670
v -67.956276 -15.905403 -2.930573
v -68.065437 -15.828049 -2.227043
v -68.019135 -15.905403 -2.215256
v -68.104073 -14.934210 -0.991882
v -68.096855 -14.934210 -1.385704
v -68.086250 -14.934210 -1.806641
v -68.086258 -15.097507 -1.806641
v -68.086250 -15.828049 -1.806641
v -68.039810 -15.905403 -1.797943
v -68.104073 -15.828049 -0.991882
v -68.096855 -15.828049 -1.385704
v -67.699928 -14.934210 -4.180328
v -67.250160 -15.980587 -0.942924
v -67.167809 -16.128824 -0.938820
v -67.161682 -16.128824 -1.275291
v -67.243919 -15.980587 -1.283722
v -67.075699 -16.752111 -1.991890
v -67.135017 -16.128824 -1.994110
v -67.152679 -16.128824 -1.634926
v -67.092903 -16.752359 -1.633247
v -66.984055 -16.128824 -3.163017
v -66.824394 -16.128824 -3.655838
v -66.595108 -16.128824 -4.096039
v -66.549202 -14.831072 -4.081604
v -66.750931 -14.831072 -3.733253
v -66.879524 -14.831072 -3.314461
v -66.967316 -14.831072 -2.780037
v -67.022156 -14.831072 -2.140862
v -67.057449 -14.831074 -0.972237
v -67.050934 -14.831074 -1.344810
v -67.880257 -15.931181 -2.179871
v -67.818756 -15.931181 -2.879272
v -67.707199 -15.931181 -3.512741
v -68.057487 -15.905403 -0.989189
v -67.917747 -15.931181 -0.981117
v -67.910759 -15.931181 -1.363335
v -68.050339 -15.905403 -1.380104
v -67.900459 -15.931181 -1.771858
v -67.693253 -15.931181 -1.733101
v -67.524750 -15.931181 -4.075737
v -66.935371 -18.226704 -1.986610
v -66.889107 -18.223856 -2.578041
v -67.024323 -16.751396 -2.599075
v -67.081482 -16.128824 -2.607979
v -66.951447 -18.227730 -1.629326
v -68.086258 -15.664755 -1.806641
v -68.053604 -14.856859 -1.804657
v -67.955635 -14.831074 -1.798676
v -67.759705 -14.831074 -1.786781
v -67.041298 -14.831074 -1.743080
v -68.034210 -18.057560 7.795731
v -70.800491 -18.057613 -0.652649
v -69.675201 -18.057663 5.315147
v -64.573967 -17.841120 4.312546
v -66.266273 -17.841120 4.001556
v -67.077553 -17.841120 3.165939
v -67.528557 -17.841120 1.918312
v -67.693634 -17.841114 -0.627823
v -67.528557 -17.841114 -3.173958
v -71.337326 -18.057774 6.744324
v -69.520592 -18.057779 10.064240
v -66.470528 -18.057489 4.397179
v -67.419472 -18.057508 3.418365
v -67.923126 -18.057507 2.018005
v -68.100929 -18.057507 -0.629402
v -67.922989 -18.057507 -3.276886
v -69.161789 -18.057554 -0.639610
v -66.744621 -18.057381 5.973633
v -68.297440 -18.057579 4.172462
v -64.570076 -16.128824 4.278427
v -66.248108 -16.128851 3.972160
v -67.049217 -16.129023 3.147171
v -67.495224 -16.128878 1.910080
v -67.659332 -16.128824 -0.627823
v -67.495155 -16.128824 -3.165665
v -68.940773 -18.057543 -3.515152
v -70.518059 -18.057638 2.643456
v -68.941841 -18.057566 2.234535
v -71.143402 -18.057716 4.551132
v -69.824249 -18.057739 7.549385
v -67.510590 -18.057480 10.591530
v -69.865334 -18.057573 -2.245621
v -68.301071 -18.057535 3.121689
v -65.884209 -18.056950 8.457001
v -68.358978 -18.057625 5.688194
v -69.379967 -18.057608 3.645760
v -70.842628 -18.057774 8.776085
v -65.751259 -18.057503 4.339828
v -66.791466 -18.057503 3.701653
v -67.437653 -18.057503 2.699493
v -67.751976 -18.057503 0.763390
v -67.751976 -18.057495 -2.019043
v -68.687172 -18.057522 -2.131973
v -67.492836 -18.057543 4.534554
v -65.668716 -18.057243 5.427406
v -65.706741 -17.191982 4.209656
v -66.695015 -17.191982 3.603477
v -67.310966 -17.191982 2.646210
v -67.615265 -17.191982 0.747650
v -67.615265 -17.191977 -2.003304
v -67.310966 -17.191977 -3.901855
v -71.795807 -18.057680 1.155899
v -69.866173 -18.057587 0.953537
v -68.687485 -18.057533 0.863625
v -70.570351 -18.057734 6.089340
v -71.974487 -18.057755 4.977203
v -71.549789 -18.057695 2.913658
v -70.171753 -18.057653 4.047806
v -68.829536 -18.057680 9.020378
v -70.523430 -18.057781 8.436783
v -69.013351 -18.057676 6.503349
v -70.727913 -18.057606 -2.350830
v -68.316589 -18.057734 11.636543
v -66.585747 -18.057175 9.375572
v -69.679634 -18.057566 -3.718864
v -69.104706 -18.057550 -2.152985
v -69.929405 -18.057579 -0.645470
v -67.716850 -18.057508 2.831680
v -67.958099 -18.057535 3.855202
v -68.678169 -18.057573 3.294418
v -68.538582 -18.057533 2.176857
v -67.409454 -18.057461 6.854767
v -65.124710 -18.056694 7.829735
v -68.945061 -18.057617 4.703232
v -67.782852 -18.057585 4.988449
v -69.681175 -18.057600 2.425842
v -69.832474 -18.057779 10.462875
v -65.752884 -18.057434 4.676773
v -66.320923 -18.057503 4.089821
v -65.717873 -17.841120 4.242180
v -67.015030 -18.057508 3.958954
v -67.163513 -18.057503 3.222481
v -66.719131 -17.841120 3.628021
v -67.628838 -18.057503 1.943047
v -67.342628 -17.841120 2.659538
v -68.054207 -18.057507 0.796341
v -67.796539 -18.057495 -0.627823
v -67.649445 -17.841120 0.751617
v -68.054131 -18.057507 -2.055153
v -67.628838 -18.057495 -3.198692
v -67.649445 -17.841114 -2.007233
v -68.538025 -18.057522 -3.445564
v -68.739685 -18.057528 -0.633995
v -66.773613 -18.057470 5.083885
v -64.570076 -17.191982 4.278427
v -66.248062 -17.191982 3.972145
v -65.706741 -16.128824 4.209656
v -67.048897 -17.191982 3.147072
v -66.695236 -16.128962 3.603577
v -67.495125 -17.191982 1.910049
v -67.311272 -16.129005 2.646324
v -67.659332 -17.191977 -0.627823
v -67.615265 -16.128824 0.747650
v -67.495125 -17.191977 -3.165695
v -67.615265 -16.128824 -2.003304
v -67.311172 -16.128824 -3.901802
v -70.729073 -18.057632 1.044411
v -69.105270 -18.057562 0.873047
v -64.847343 -18.056770 6.457550
vn -0.0000 -1.0000 -0.0000
vn -0.1132 -0.9935 0.0080
vn -0.1091 -0.9939 0.0150
vn -0.1023 -0.9944 0.0264
vn -0.5646 -0.8132 0.1412
vn -0.5871 -0.8058 0.0776
vn -0.5975 -0.8008 0.0410
vn -0.1154 -0.9933 0.0016
vn -0.1154 -0.9933 0.0025
vn -0.1145 -0.9934 0.0044
vn -0.6006 -0.7993 0.0224
vn -0.0556 -0.9939 0.0953
vn -0.0259 -0.9940 0.1061
vn -0.0081 -0.9934 0.1144
vn -0.0366 -0.7962 0.6039
vn -0.1371 -0.8097 0.5706
vn -0.3054 -0.8066 0.5061
vn -0.0853 -0.9947 0.0573
vn -0.0743 -0.9943 0.0763
vn -0.4142 -0.8125 0.4102
vn -0.4824 -0.8177 0.3141
vn -0.0937 -0.9948 0.0407
vn -0.5288 -0.8188 0.2237
vn -0.9953 -0.0958 0.0132
vn -0.9951 -0.0969 0.0216
vn -0.9952 -0.0957 0.0211
vn -0.9953 -0.0958 0.0133
vn -0.9488 -0.0942 0.3015
vn -0.9304 -0.0923 0.3548
vn -0.9679 -0.0930 0.2336
vn -0.9687 -0.0948 0.2295
vn -0.9671 -0.0912 0.2376
vn -0.9191 -0.0913 0.3832
vn -0.8438 -0.0916 0.5287
vn -0.8412 -0.0916 0.5330
vn -0.0652 -0.0000 0.9979
vn -0.0178 -0.0000 0.9998
vn -0.9976 -0.0000 0.0686
vn -0.9914 -0.0000 0.1308
vn -0.9703 -0.0000 0.2417
vn -0.9703 -0.0000 0.2418
vn -0.9999 -0.0000 0.0136
vn -0.9998 -0.0000 0.0217
vn -0.4583 -0.0000 0.8888
vn -0.2332 -0.0000 0.9724
vn -0.7999 -0.0000 0.6001
vn -0.6456 -0.0000 0.7637
vn -0.9131 -0.0000 0.4078
vn -0.0000 1.0000 -0.0000
vn -0.0082 0.9911 0.1326
vn -0.0024 0.9914 0.1309
vn -0.0429 0.7479 0.6625
vn -0.0313 0.9905 0.1340
vn -0.1563 0.7398 0.6544
vn -0.0626 0.9906 0.1219
vn -0.3077 0.7406 0.5974
vn -0.5375 0.7406 0.4033
vn -0.4331 0.7415 0.5125
vn -0.0881 0.9906 0.1044
vn -0.1096 0.9906 0.0823
vn -0.6460 0.7463 0.1606
vn -0.6124 0.7419 0.2732
vn -0.1246 0.9907 0.0554
vn -0.1298 0.9910 0.0320
vn -0.6563 0.7532 0.0451
vn -0.6559 0.7499 0.0864
vn -0.1305 0.9913 0.0171
vn -0.1294 0.9916 0.0089
vn -0.6554 0.7552 0.0089
vn -0.6552 0.7553 0.0142
vn -0.1284 0.9917 0.0028
vn -0.1285 0.9917 0.0017
vn -0.0644 0.1963 0.9784
vn -0.0175 0.1965 0.9804
vn -0.0118 0.7512 0.6599
vn -0.0783 -0.1682 0.9826
vn -0.9778 0.1982 0.0672
vn -0.9718 0.1976 0.1283
vn -0.9513 0.1970 0.2372
vn -0.5524 -0.8225 0.1359
vn -0.9323 -0.2753 0.2344
vn -0.9542 -0.2708 0.1273
vn -0.5663 -0.8209 0.0736
vn -0.9609 -0.2688 0.0665
vn -0.5690 -0.8214 0.0388
vn -0.9800 0.1986 0.0133
vn -0.9798 0.1986 0.0213
vn -0.9794 0.1984 0.0366
vn -0.9993 -0.0000 0.0373
vn -0.9628 -0.2679 0.0362
vn -0.5702 -0.8213 0.0211
vn -0.9634 -0.2677 0.0131
vn -0.9632 -0.2678 0.0210
vn -0.4495 0.1966 0.8714
vn -0.2295 0.1964 0.9533
vn -0.0650 -0.8118 0.5803
vn -0.2262 -0.2491 0.9417
vn -0.1415 -0.7948 0.5901
vn -0.4438 -0.2547 0.8592
vn -0.2751 -0.8005 0.5325
vn -0.7844 0.1965 0.5884
vn -0.6331 0.1964 0.7487
vn -0.6231 -0.2663 0.7354
vn -0.3775 -0.8118 0.4455
vn -0.7689 -0.2762 0.5766
vn -0.4587 -0.8198 0.3428
vn -0.8952 0.1966 0.4000
vn -0.8762 -0.2788 0.3931
vn -0.5197 -0.8228 0.2300
vn -0.6026 -0.7980 0.0082
vn -0.9547 -0.2972 0.0129
vn -0.9546 -0.2971 0.0205
vn -0.6026 -0.7979 0.0131
vn -0.9525 -0.2978 0.0642
vn -0.9541 -0.2975 0.0350
vn -0.9948 -0.0954 0.0359
vn -0.9934 -0.0943 0.0653
vn -0.9250 -0.3041 0.2276
vn -0.8777 -0.3086 0.3665
vn -0.8017 -0.3072 0.5127
vn -0.0912 -0.9958 0.0061
vn -0.0909 -0.9958 0.0114
vn -0.0883 -0.9959 0.0211
vn -0.5698 -0.8217 0.0077
vn -0.0913 -0.9958 0.0012
vn -0.0912 -0.9958 0.0020
vn -0.5694 -0.8219 0.0124
vn -0.0914 -0.9958 0.0033
vn -0.0470 -0.9948 0.0904
vn -0.0244 -0.9945 0.1022
vn -0.0107 -0.9952 0.0974
vn -0.0737 -0.9958 0.0545
vn -0.0623 -0.9954 0.0730
vn -0.0828 -0.9959 0.0359
vn -0.9935 -0.0962 0.0615
vn -0.9882 -0.0943 0.1206
vn -0.9877 -0.0925 0.1260
vn -0.9885 -0.0961 0.1169
vn -0.9934 -0.0980 0.0593
vn -0.5308 -0.0901 0.8427
vn -0.5403 -0.0901 0.8366
vn -0.4168 -0.0881 0.9047
vn -0.2968 -0.0882 0.9508
vn -0.7264 -0.0914 0.6811
vn -0.7207 -0.0914 0.6872
vn -0.9462 -0.2996 0.1224
vn -0.0547 -0.0844 0.9949
vn -0.0539 -0.2817 0.9580
vn -0.2235 -0.2890 0.9309
vn -0.5027 -0.2907 0.8141
vn -0.6854 -0.2999 0.6636
vn -0.1151 -0.9934 -0.0000
vn -0.9954 -0.0958 -0.0000
vn -0.9954 -0.0959 -0.0000
vn -1.0000 -0.0000 -0.0000
vn -0.1288 0.9917 -0.0000
vn -0.6561 0.7547 -0.0000
vn -0.9801 0.1985 -0.0000
vn -0.9636 -0.2675 -0.0000
vn -0.6020 -0.7985 -0.0000
vn -0.9547 -0.2974 -0.0000
vn -0.5707 -0.8212 -0.0000
vn -0.0916 -0.9958 -0.0000
vn -0.9948 -0.0992 0.0233
vn -0.9945 -0.0990 0.0334
vn -0.9947 -0.0972 0.0343
vn -0.6563 0.7541 0.0245
vn -0.1290 0.9916 0.0048
vn -0.1092 -0.9939 -0.0150
vn -0.1132 -0.9935 -0.0080
vn -0.1023 -0.9944 -0.0264
vn -0.5646 -0.8132 -0.1412
vn -0.5871 -0.8058 -0.0776
vn -0.5975 -0.8008 -0.0410
vn -0.1154 -0.9933 -0.0025
vn -0.1154 -0.9933 -0.0016
vn -0.6006 -0.7993 -0.0224
vn -0.1145 -0.9934 -0.0044
vn -0.1236 -0.9909 -0.0536
vn -0.4957 -0.8284 -0.2607
vn -0.5287 -0.8189 -0.2236
vn -0.1897 -0.9766 -0.1013
vn -0.9952 -0.0957 -0.0211
vn -0.9952 -0.0957 -0.0208
vn -0.9953 -0.0958 -0.0132
vn -0.9953 -0.0958 -0.0133
vn -0.9977 -0.0001 -0.0684
vn -0.9915 -0.0003 -0.1304
vn -0.9915 -0.0003 -0.1305
vn -0.9977 -0.0001 -0.0685
vn -0.9758 -0.0005 -0.2186
vn -0.9849 -0.0004 -0.1733
vn -0.9998 -0.0000 -0.0217
vn -0.9999 -0.0000 -0.0136
vn -0.6461 0.7462 -0.1602
vn -0.1298 0.9910 -0.0319
vn -0.1321 0.9903 -0.0426
vn -0.6435 0.7366 -0.2081
vn -0.6563 0.7532 -0.0449
vn -0.1293 0.9916 -0.0088
vn -0.1304 0.9913 -0.0170
vn -0.6561 0.7498 -0.0860
vn -0.1284 0.9917 -0.0028
vn -0.6552 0.7553 -0.0142
vn -0.6554 0.7552 -0.0089
vn -0.1285 0.9917 -0.0017
vn -0.9720 0.1973 -0.1278
vn -0.9779 0.1981 -0.0670
vn -0.9515 0.1966 -0.2366
vn -0.6023 -0.7912 -0.1060
vn -0.5661 -0.8210 -0.0735
vn -0.9541 -0.2711 -0.1271
vn -0.9507 -0.2611 -0.1673
vn -0.5690 -0.8214 -0.0387
vn -0.9609 -0.2689 -0.0665
vn -0.9798 0.1986 -0.0213
vn -0.9800 0.1986 -0.0133
vn -0.9993 -0.0000 -0.0373
vn -0.9794 0.1984 -0.0365
vn -0.5701 -0.8213 -0.0211
vn -0.9628 -0.2679 -0.0362
vn -0.9632 -0.2678 -0.0210
vn -0.9634 -0.2677 -0.0131
vn -0.9333 0.1945 -0.3020
vn -0.9514 -0.0006 -0.3080
vn -0.6026 -0.7980 -0.0082
vn -0.6026 -0.7979 -0.0131
vn -0.9546 -0.2971 -0.0205
vn -0.9547 -0.2972 -0.0129
vn -0.9948 -0.0954 -0.0359
vn -0.9541 -0.2975 -0.0350
vn -0.9525 -0.2978 -0.0642
vn -0.9934 -0.0943 -0.0653
vn -0.8648 -0.3782 -0.3304
vn -0.9250 -0.3042 -0.2276
vn -0.7644 -0.5055 -0.4003
vn -0.9476 -0.0907 -0.3064
vn -0.9668 -0.0912 -0.2387
vn -0.0909 -0.9958 -0.0114
vn -0.0912 -0.9958 -0.0061
vn -0.0662 -0.9977 -0.0116
vn -0.5698 -0.8217 -0.0077
vn -0.5694 -0.8219 -0.0124
vn -0.0912 -0.9958 -0.0020
vn -0.0913 -0.9958 -0.0012
vn -0.0914 -0.9958 -0.0033
vn -0.9893 -0.0929 -0.1125
vn -0.9923 -0.0935 -0.0811
vn -0.9935 -0.0943 -0.0637
vn -0.9462 -0.2996 -0.1224
vn -0.9948 -0.0954 -0.0353
vn -0.1290 0.9916 -0.0048
vn -0.6563 0.7541 -0.0244
vn 0.0002 -1.0000 -0.0000
vn 0.0001 -1.0000 -0.0000
vn 0.0002 -1.0000 -0.0001
vn 0.0003 -1.0000 -0.0000
vn 0.0002 -1.0000 0.0001
vn 0.0003 -1.0000 0.0001
vn -0.0000 -1.0000 0.0001
vn 0.2608 -0.8675 -0.4236
vn 0.1869 -0.8853 -0.4259
vn 0.0001 -1.0000 0.0001
vn 0.5071 -0.2519 -0.8242
vn 0.2848 -0.1859 -0.9404
vn 0.3626 -0.8627 -0.3524
vn 0.6950 -0.2499 -0.6741
vn 0.4305 -0.8591 -0.2769
vn 0.8150 -0.2484 -0.5235
vn 0.4704 -0.8639 -0.1801
vn 0.9049 -0.2502 -0.3445
vn 0.5082 -0.8565 -0.0906
vn 0.9541 -0.2480 -0.1679
vn 0.5241 -0.8509 -0.0358
vn 0.9669 -0.2468 -0.0654
vn 0.5262 -0.8503 -0.0000
vn 0.9691 -0.2468 -0.0000
vn 0.5241 -0.8509 0.0358
vn 0.9669 -0.2468 0.0654
vn 0.4958 -0.8669 0.0516
vn 0.9632 -0.2495 0.0999
vn 0.0002 -1.0000 0.0002
vn 0.5238 -0.0266 -0.8514
vn 0.2345 -0.0266 -0.9717
vn 0.5240 0.0001 -0.8517
vn 0.2347 -0.0000 -0.9721
vn 0.0604 -0.0000 -0.9982
vn 0.0606 -0.0259 -0.9978
vn 0.0608 -0.0519 -0.9968
vn 0.8412 -0.0263 -0.5402
vn 0.7174 -0.0264 -0.6961
vn 0.8415 0.0003 -0.5403
vn 0.7176 0.0002 -0.6964
vn 0.9846 -0.0264 -0.1731
vn 0.9343 -0.0264 -0.3555
vn 0.9849 0.0001 -0.1731
vn 0.9347 0.0003 -0.3556
vn 0.9997 -0.0264 -0.0000
vn 0.9974 -0.0264 -0.0674
vn 1.0000 -0.0000 -0.0000
vn 0.9977 -0.0000 -0.0674
vn 0.9886 -0.0176 0.1497
vn 0.9974 -0.0264 0.0674
vn 0.9849 0.0001 0.1731
vn 0.9977 -0.0000 0.0675
vn 0.9701 0.0001 0.2426
vt 0.786656 0.362767
vt 0.787493 0.362558
vt 0.787682 0.364730
vt 0.786855 0.365049
vt 0.788031 0.366713
vt 0.787224 0.367112
vt 0.788729 0.366375
vt 0.788400 0.364481
vt 0.788210 0.362379
vt 0.786526 0.358861
vt 0.787373 0.358821
vt 0.787393 0.360007
vt 0.786556 0.360107
vt 0.787433 0.361282
vt 0.788151 0.361153
vt 0.791788 0.373360
vt 0.792176 0.372653
vt 0.793980 0.373400
vt 0.793781 0.374157
vt 0.797717 0.373699
vt 0.797707 0.374546
vt 0.797697 0.372972
vt 0.794150 0.372752
vt 0.792515 0.372045
vt 0.788738 0.370600
vt 0.789456 0.370052
vt 0.790662 0.371487
vt 0.790084 0.372124
vt 0.791150 0.370949
vt 0.790074 0.369573
vt 0.788609 0.368467
vt 0.787812 0.368946
vt 0.789277 0.368069
vt 0.805652 0.539891
vt 0.804526 0.539891
vt 0.804516 0.534899
vt 0.805642 0.534899
vt 0.796963 0.544844
vt 0.796714 0.539921
vt 0.798338 0.539911
vt 0.798498 0.544854
vt 0.798169 0.534949
vt 0.796455 0.534999
vt 0.795169 0.539951
vt 0.794821 0.535068
vt 0.277555 0.512970
vt 0.270659 0.512990
vt 0.270649 0.511077
vt 0.277545 0.511057
vt 0.297554 0.511047
vt 0.297554 0.512960
vt 0.295123 0.512950
vt 0.295123 0.511047
vt 0.292891 0.512950
vt 0.292891 0.511037
vt 0.301719 0.512960
vt 0.300394 0.512960
vt 0.300394 0.511047
vt 0.301719 0.511047
vt 0.284112 0.511037
vt 0.284112 0.512950
vt 0.281660 0.512950
vt 0.281660 0.511047
vt 0.288795 0.511037
vt 0.288795 0.512940
vt 0.286513 0.512950
vt 0.286513 0.511037
vt 0.290838 0.512950
vt 0.290838 0.511037
vt 0.499770 0.411251
vt 0.499879 0.411899
vt 0.493063 0.412028
vt 0.493063 0.411370
vt 0.499939 0.412227
vt 0.503915 0.411450
vt 0.504015 0.411769
vt 0.506137 0.410623
vt 0.506287 0.410912
vt 0.505819 0.410035
vt 0.503716 0.410822
vt 0.509825 0.407942
vt 0.508270 0.409587
vt 0.508051 0.409328
vt 0.509556 0.407753
vt 0.507622 0.408829
vt 0.509027 0.407354
vt 0.511469 0.404255
vt 0.510841 0.406198
vt 0.510542 0.406049
vt 0.511150 0.404166
vt 0.509944 0.405770
vt 0.510512 0.403986
vt 0.512067 0.399651
vt 0.511858 0.402073
vt 0.511529 0.402013
vt 0.511738 0.399621
vt 0.510881 0.401913
vt 0.511080 0.399571
vt 0.512197 0.395496
vt 0.512177 0.396821
vt 0.511848 0.396811
vt 0.511868 0.395496
vt 0.511180 0.396781
vt 0.511210 0.395476
vt 0.277535 0.510220
vt 0.277545 0.510509
vt 0.270649 0.510529
vt 0.270649 0.510250
vt 0.277555 0.513518
vt 0.270659 0.513538
vt 0.297564 0.510210
vt 0.297554 0.510499
vt 0.295123 0.510489
vt 0.295123 0.510210
vt 0.292891 0.510489
vt 0.292901 0.510210
vt 0.292920 0.513807
vt 0.292891 0.513498
vt 0.295123 0.513508
vt 0.295153 0.513807
vt 0.297554 0.513508
vt 0.297584 0.513817
vt 0.301719 0.510499
vt 0.300394 0.510499
vt 0.300394 0.510220
vt 0.301719 0.510220
vt 0.298979 0.510499
vt 0.298969 0.511047
vt 0.298969 0.513508
vt 0.298999 0.513817
vt 0.301719 0.513508
vt 0.300394 0.513508
vt 0.284102 0.510210
vt 0.284112 0.510489
vt 0.281660 0.510499
vt 0.281650 0.510210
vt 0.277545 0.513817
vt 0.281660 0.513498
vt 0.281660 0.513797
vt 0.284112 0.513498
vt 0.284112 0.513797
vt 0.288795 0.510200
vt 0.288795 0.510489
vt 0.286513 0.510489
vt 0.286513 0.510200
vt 0.286513 0.513498
vt 0.286513 0.513797
vt 0.288795 0.513498
vt 0.288795 0.513807
vt 0.290838 0.510489
vt 0.290848 0.510200
vt 0.290838 0.513498
vt 0.290858 0.513807
vt 0.805632 0.532218
vt 0.805642 0.532786
vt 0.804516 0.532786
vt 0.804487 0.532218
vt 0.802085 0.532796
vt 0.803301 0.532786
vt 0.803301 0.534899
vt 0.802095 0.534899
vt 0.798029 0.532278
vt 0.798099 0.532846
vt 0.796345 0.532906
vt 0.796285 0.532328
vt 0.794671 0.532986
vt 0.794611 0.532418
vt 0.499361 0.408849
vt 0.493063 0.408979
vt 0.504673 0.407892
vt 0.502989 0.408500
vt 0.507074 0.405909
vt 0.506038 0.406996
vt 0.507752 0.404733
vt 0.508180 0.403318
vt 0.508479 0.401525
vt 0.508669 0.399372
vt 0.508758 0.396691
vt 0.508788 0.395436
vt 0.785480 0.363066
vt 0.785958 0.362947
vt 0.786168 0.365308
vt 0.785699 0.365478
vt 0.786546 0.367441
vt 0.786088 0.367660
vt 0.785350 0.358931
vt 0.785829 0.358911
vt 0.785859 0.360196
vt 0.785380 0.360256
vt 0.785888 0.361571
vt 0.786586 0.361442
vt 0.791240 0.374347
vt 0.791469 0.373948
vt 0.793621 0.374775
vt 0.793512 0.375204
vt 0.797647 0.375214
vt 0.797588 0.375662
vt 0.787732 0.371367
vt 0.788141 0.371058
vt 0.789605 0.372653
vt 0.789277 0.373011
vt 0.787164 0.369334
vt 0.786716 0.369603
vt 0.802125 0.539891
vt 0.800122 0.539901
vt 0.800042 0.534919
vt 0.800202 0.544864
vt 0.802135 0.544874
vt 0.791512 0.535297
vt 0.792070 0.540061
vt 0.790466 0.540160
vt 0.789828 0.535467
vt 0.793625 0.540001
vt 0.793166 0.535168
vt 0.800002 0.532816
vt 0.802045 0.532228
vt 0.799942 0.532238
vt 0.786400 0.535945
vt 0.786091 0.534012
vt 0.789549 0.533464
vt 0.791273 0.533265
vt 0.791203 0.532707
vt 0.789489 0.532906
vt 0.785992 0.533444
vt 0.792967 0.533105
vt 0.792907 0.532537
vt 0.493063 0.412347
vt 0.788121 0.359927
vt 0.788101 0.358781
vt 0.300404 0.513817
vt 0.301729 0.513817
vt 0.786516 0.357715
vt 0.787363 0.357715
vt 0.806699 0.534899
vt 0.806689 0.539891
vt 0.302945 0.511047
vt 0.302945 0.512960
vt 0.511878 0.394270
vt 0.512206 0.394270
vt 0.511220 0.394270
vt 0.302945 0.510220
vt 0.302945 0.510499
vt 0.302945 0.513508
vt 0.806699 0.532218
vt 0.806699 0.532786
vt 0.508798 0.394270
vt 0.785340 0.357715
vt 0.785819 0.357715
vt 0.788091 0.357715
vt 0.302945 0.513807
vt 0.804526 0.544874
vt 0.803331 0.544874
vt 0.803321 0.539891
vt 0.298969 0.512960
vt 0.512137 0.398236
vt 0.511808 0.398216
vt 0.511150 0.398176
vt 0.298979 0.510220
vt 0.803261 0.532218
vt 0.508729 0.398027
vt 0.785410 0.361661
vt 0.786656 0.352663
vt 0.786855 0.350390
vt 0.787682 0.350699
vt 0.787493 0.352882
vt 0.787214 0.348328
vt 0.788031 0.348726
vt 0.788729 0.349055
vt 0.788390 0.350958
vt 0.788210 0.353051
vt 0.786526 0.356569
vt 0.786556 0.355323
vt 0.787393 0.355423
vt 0.787373 0.356619
vt 0.788151 0.354277
vt 0.787423 0.354147
vt 0.787812 0.346494
vt 0.788599 0.346963
vt 0.790074 0.345856
vt 0.789277 0.347371
vt 0.789456 0.345388
vt 0.808871 0.534899
vt 0.808851 0.539891
vt 0.807735 0.539891
vt 0.807745 0.534899
vt 0.308326 0.511037
vt 0.310757 0.511027
vt 0.310767 0.512940
vt 0.308336 0.512950
vt 0.312990 0.511017
vt 0.313000 0.512930
vt 0.305496 0.511047
vt 0.305496 0.512950
vt 0.304171 0.512960
vt 0.304171 0.511047
vt 0.511469 0.384295
vt 0.511150 0.384384
vt 0.510542 0.382501
vt 0.510841 0.382351
vt 0.510512 0.384564
vt 0.509944 0.382780
vt 0.512067 0.388899
vt 0.511738 0.388928
vt 0.511529 0.386527
vt 0.511858 0.386477
vt 0.511080 0.388978
vt 0.510881 0.386636
vt 0.511848 0.391739
vt 0.512177 0.391729
vt 0.512197 0.393054
vt 0.511868 0.393054
vt 0.511180 0.391769
vt 0.511210 0.393064
vt 0.308326 0.510200
vt 0.310757 0.510190
vt 0.310757 0.510479
vt 0.308326 0.510489
vt 0.312980 0.510180
vt 0.312990 0.510469
vt 0.312970 0.513787
vt 0.310738 0.513787
vt 0.310767 0.513488
vt 0.313000 0.513479
vt 0.308306 0.513797
vt 0.308336 0.513498
vt 0.305486 0.510210
vt 0.305496 0.510489
vt 0.304171 0.510499
vt 0.304161 0.510210
vt 0.306911 0.511037
vt 0.306911 0.510489
vt 0.306891 0.513807
vt 0.306921 0.513498
vt 0.305496 0.513508
vt 0.304171 0.513508
vt 0.315042 0.510180
vt 0.315042 0.510459
vt 0.315042 0.511007
vt 0.807755 0.532218
vt 0.808901 0.532218
vt 0.808881 0.532796
vt 0.807745 0.532786
vt 0.810087 0.534909
vt 0.810097 0.532796
vt 0.811303 0.532806
vt 0.811293 0.534909
vt 0.815358 0.532288
vt 0.817112 0.532348
vt 0.817042 0.532916
vt 0.815288 0.532856
vt 0.818786 0.532438
vt 0.818726 0.533006
vt 0.816933 0.535008
vt 0.815219 0.534959
vt 0.508180 0.385221
vt 0.507752 0.383816
vt 0.509027 0.381195
vt 0.507074 0.382640
vt 0.508669 0.389178
vt 0.508479 0.387025
vt 0.508758 0.391858
vt 0.508788 0.393114
vt 0.785480 0.352364
vt 0.785689 0.349952
vt 0.786168 0.350131
vt 0.785958 0.352483
vt 0.786078 0.347770
vt 0.786536 0.347999
vt 0.785350 0.356499
vt 0.785380 0.355184
vt 0.785859 0.355234
vt 0.785829 0.356529
vt 0.786586 0.353988
vt 0.785888 0.353858
vt 0.787154 0.346096
vt 0.813355 0.534929
vt 0.813256 0.539911
vt 0.811263 0.539901
vt 0.813385 0.532826
vt 0.811352 0.532228
vt 0.813455 0.532248
vt 0.788121 0.355503
vt 0.788101 0.356659
vt 0.305486 0.513807
vt 0.304161 0.513807
vt 0.810057 0.539901
vt 0.306911 0.512950
vt 0.511808 0.390334
vt 0.512137 0.390314
vt 0.511150 0.390373
vt 0.306901 0.510210
vt 0.810127 0.532228
vt 0.508729 0.390523
vt 0.785410 0.353769
vt 0.838515 0.223313
vt 0.835512 0.225931
vt 0.833545 0.220712
vt 0.836807 0.219008
vt 0.832938 0.228148
vt 0.830754 0.222158
vt 0.832137 0.215150
vt 0.835602 0.214233
vt 0.844096 0.231741
vt 0.841426 0.235872
vt 0.838053 0.230882
vt 0.840773 0.227349
vt 0.839104 0.239394
vt 0.835706 0.233880
vt 0.845890 0.241205
vt 0.843177 0.244725
vt 0.849002 0.237112
vt 0.834617 0.203016
vt 0.834883 0.197236
vt 0.837777 0.197601
vt 0.837541 0.203044
vt 0.840915 0.193288
vt 0.840326 0.197925
vt 0.838444 0.192588
vt 0.840115 0.203067
vt 0.844285 0.212090
vt 0.845010 0.214883
vt 0.843069 0.215873
vt 0.842234 0.212644
vt 0.846044 0.216909
vt 0.844260 0.218383
vt 0.843131 0.219455
vt 0.841810 0.216459
vt 0.840885 0.212844
vt 0.846196 0.228570
vt 0.851363 0.234023
vt 0.848437 0.225609
vt 0.853926 0.231922
vt 0.840963 0.221247
vt 0.842968 0.224598
vt 0.844900 0.222240
vt 0.838410 0.213495
vt 0.839462 0.217648
vt 0.838055 0.240739
vt 0.834634 0.235026
vt 0.849342 0.220294
vt 0.849835 0.219271
vt 0.851840 0.220159
vt 0.851816 0.221282
vt 0.850243 0.218590
vt 0.852063 0.219395
vt 0.848184 0.217914
vt 0.848737 0.217346
vt 0.847453 0.218776
vt 0.846885 0.216247
vt 0.847545 0.215807
vt 0.845931 0.214426
vt 0.846662 0.214119
vt 0.845262 0.211820
vt 0.846043 0.211643
vt 0.844841 0.207814
vt 0.845642 0.207737
vt 0.843829 0.207933
vt 0.843673 0.203106
vt 0.844694 0.203113
vt 0.845499 0.203114
vt 0.844854 0.198412
vt 0.845654 0.198492
vt 0.843842 0.198279
vt 0.844308 0.194125
vt 0.845286 0.194408
vt 0.846065 0.194586
vt 0.841724 0.198003
vt 0.841531 0.203088
vt 0.842261 0.193532
vt 0.848327 0.222598
vt 0.845866 0.220709
vt 0.852088 0.223806
vt 0.954986 0.593610
vt 0.954986 0.591435
vt 0.957074 0.591435
vt 0.957063 0.593610
vt 0.954986 0.587887
vt 0.957063 0.587887
vt 0.960936 0.587887
vt 0.960936 0.591435
vt 0.960925 0.593610
vt 0.950929 0.593610
vt 0.950918 0.591435
vt 0.952941 0.591435
vt 0.952941 0.593610
vt 0.950929 0.587887
vt 0.952941 0.587887
vt 0.946461 0.593610
vt 0.946461 0.591435
vt 0.948993 0.591435
vt 0.948993 0.593610
vt 0.946461 0.587887
vt 0.948993 0.587887
vt 0.938001 0.593610
vt 0.938001 0.591435
vt 0.942577 0.591435
vt 0.942588 0.593610
vt 0.938001 0.587887
vt 0.942577 0.587887
vt 0.929423 0.593610
vt 0.929423 0.591435
vt 0.933393 0.591435
vt 0.933382 0.593610
vt 0.929423 0.587887
vt 0.933382 0.587887
vt 0.926794 0.591435
vt 0.926794 0.587887
vt 0.834863 0.208792
vt 0.831278 0.209169
vt 0.837759 0.208484
vt 0.840309 0.208208
vt 0.841709 0.208172
vt 0.854864 0.227302
s 1
f 6/1/1 9/2/2 8/3/3 7/4/1
f 7/4/1 8/3/3 11/5/4 10/6/1
f 12/7/5 11/5/4 8/3/3 13/8/6
f 13/8/6 8/3/3 9/2/2 14/9/7
f 15/10/1 18/11/8 17/12/9 16/13/1
f 14/9/7 9/2/2 20/14/10 19/15/11
f 21/16/1 24/17/12 23/18/13 22/19/1
f 22/19/1 23/18/13 5/20/14 4/21/1
f 25/22/15 5/20/14 23/18/13 26/23/16
f 26/23/16 23/18/13 24/17/12 27/24/17
f 28/25/1 31/26/18 30/27/19 29/28/1
f 29/28/1 30/27/19 24/17/12 21/16/1
f 27/24/17 24/17/12 30/27/19 32/29/20
f 32/29/20 30/27/19 31/26/18 33/30/21
f 10/6/1 11/5/4 35/31/22 34/32/1
f 34/32/1 35/31/22 31/26/18 28/25/1
f 33/30/21 31/26/18 35/31/22 36/33/23
f 36/33/23 35/31/22 11/5/4 12/7/5
f 37/34/24 38/35/25 40/36/26 39/37/27
f 3/38/28 41/39/29 43/40/30 2/41/31
f 44/42/32 43/40/30 41/39/29 45/43/33
f 45/43/33 41/39/29 42/44/34 46/45/35
f 50/46/36 49/47/37 48/48/37 47/49/36
f 51/50/38 54/51/38 53/52/39 52/53/39
f 52/53/39 53/52/39 56/54/40 55/55/41
f 60/56/42 59/57/43 58/58/43 57/59/42
f 61/60/44 64/61/44 63/62/45 62/63/45
f 62/63/45 63/62/45 50/46/36 47/49/36
f 65/64/46 68/65/46 67/66/47 66/67/47
f 66/67/47 67/66/47 64/61/44 61/60/44
f 55/55/41 56/54/40 70/68/48 69/69/48
f 69/69/48 70/68/48 68/65/46 65/64/46
f 71/70/49 74/71/50 73/72/51 72/73/49
f 75/74/52 74/71/50 77/75/53 76/76/54
f 76/76/54 77/75/53 79/77/55 78/78/56
f 80/79/49 79/77/55 77/75/53 81/80/49
f 81/80/49 77/75/53 74/71/50 71/70/49
f 82/81/57 85/82/58 84/83/59 83/84/60
f 83/84/60 84/83/59 87/85/49 86/86/49
f 80/79/49 87/85/49 84/83/59 79/77/55
f 79/77/55 84/83/59 85/82/58 78/78/56
f 88/87/61 91/88/62 90/89/63 89/90/64
f 89/90/64 90/89/63 93/91/49 92/92/49
f 86/86/49 93/91/49 90/89/63 83/84/60
f 83/84/60 90/89/63 91/88/62 82/81/57
f 94/93/65 97/94/66 96/95/67 95/96/68
f 95/96/68 96/95/67 99/97/49 98/98/49
f 92/92/49 99/97/49 96/95/67 89/90/64
f 89/90/64 96/95/67 97/94/66 88/87/61
f 103/99/69 102/100/70 101/101/71 100/102/72
f 100/102/72 101/101/71 105/103/49 104/104/49
f 75/105/52 108/106/73 107/107/74 106/108/75
f 110/109/76 109/110/37 49/47/37 50/46/36
f 94/111/65 112/112/77 111/113/78 97/114/66
f 97/114/66 111/113/78 113/115/79 88/116/61
f 55/55/41 113/115/79 111/113/78 52/53/39
f 52/53/39 111/113/78 112/112/77 51/50/38
f 114/117/80 117/118/81 116/119/82 115/120/83
f 115/120/83 116/119/82 119/121/84 118/122/85
f 54/51/38 119/121/84 116/119/82 53/52/39
f 53/52/39 116/119/82 117/118/81 56/54/40
f 121/123/86 120/124/87 102/125/70 103/126/69
f 112/112/77 123/127/88 122/128/89 51/50/38
f 118/122/85 119/121/84 125/129/90 124/130/91
f 127/131/92 126/132/93 59/57/43 60/56/42
f 78/133/56 129/134/94 128/135/95 76/136/54
f 76/136/54 128/135/95 108/106/73 75/105/52
f 47/49/36 108/106/73 128/135/95 62/63/45
f 62/63/45 128/135/95 129/134/94 61/60/44
f 130/137/96 110/109/76 132/138/97 131/139/98
f 131/139/98 132/138/97 134/140/99 133/141/100
f 64/61/44 134/140/99 132/138/97 63/62/45
f 63/62/45 132/138/97 110/109/76 50/46/36
f 82/142/57 136/143/101 135/144/102 85/145/58
f 85/145/58 135/144/102 129/134/94 78/133/56
f 61/60/44 129/134/94 135/144/102 66/67/47
f 66/67/47 135/144/102 136/143/101 65/64/46
f 133/141/100 134/140/99 138/146/103 137/147/104
f 137/147/104 138/146/103 140/148/105 139/149/106
f 68/65/46 140/148/105 138/146/103 67/66/47
f 67/66/47 138/146/103 134/140/99 64/61/44
f 88/116/61 113/115/79 141/150/107 91/151/62
f 91/151/62 141/150/107 136/143/101 82/142/57
f 65/64/46 136/143/101 141/150/107 69/69/48
f 69/69/48 141/150/107 113/115/79 55/55/41
f 139/149/106 140/148/105 143/152/108 142/153/109
f 142/153/109 143/152/108 117/118/81 114/117/80
f 56/54/40 117/118/81 143/152/108 70/68/48
f 70/68/48 143/152/108 140/148/105 68/65/46
f 144/154/110 147/155/111 146/156/112 145/157/113
f 151/158/114 150/159/115 149/160/116 148/161/117
f 12/162/5 153/163/118 152/164/119 36/165/23
f 36/165/23 152/164/119 154/166/120 33/167/21
f 46/45/35 154/166/120 152/164/119 45/43/33
f 45/43/33 152/164/119 153/163/118 44/42/32
f 155/168/49 71/70/49 72/73/49 156/169/49
f 157/170/49 80/79/49 81/80/49 158/171/49
f 158/171/49 81/80/49 71/70/49 155/168/49
f 159/172/49 86/86/49 87/85/49 160/173/49
f 160/173/49 87/85/49 80/79/49 157/170/49
f 92/92/49 93/91/49 162/174/49 161/175/49
f 162/174/49 93/91/49 86/86/49 159/172/49
f 98/98/49 99/97/49 164/176/49 163/177/49
f 161/175/49 164/176/49 99/97/49 92/92/49
f 104/104/49 105/103/49 166/178/49 165/179/49
f 118/180/85 169/181/121 168/182/122 115/183/83
f 115/183/83 168/182/122 170/184/123 114/185/80
f 10/6/1 170/184/123 168/182/122 7/4/1
f 7/4/1 168/182/122 169/181/121 6/1/1
f 171/186/124 174/187/125 173/188/126 172/189/127
f 6/1/1 169/181/121 176/190/128 175/191/1
f 133/192/100 178/193/129 177/194/130 131/195/98
f 131/195/98 177/194/130 167/196/131 130/197/96
f 4/21/1 167/196/131 177/194/130 22/19/1
f 22/19/1 177/194/130 178/193/129 21/16/1
f 139/198/106 180/199/132 179/200/133 137/201/104
f 137/201/104 179/200/133 178/193/129 133/192/100
f 21/16/1 178/193/129 179/200/133 29/28/1
f 29/28/1 179/200/133 180/199/132 28/25/1
f 114/185/80 170/184/123 181/202/134 142/203/109
f 142/203/109 181/202/134 180/199/132 139/198/106
f 28/25/1 180/199/132 181/202/134 34/32/1
f 34/32/1 181/202/134 170/184/123 10/6/1
f 148/161/117 187/204/135 186/205/136 185/206/137
f 185/206/137 186/205/136 43/40/30 44/42/32
f 2/41/31 43/40/30 186/205/136 183/207/138
f 183/207/138 186/205/136 187/204/135 182/208/139
f 188/209/140 191/210/141 190/211/142 189/212/143
f 46/45/35 42/44/34 193/213/144 192/214/145
f 192/214/145 193/213/144 191/210/141 188/209/140
f 44/42/32 153/163/118 195/215/146 185/206/137
f 185/206/137 195/215/146 151/158/114 148/161/117
f 14/216/7 151/158/114 195/215/146 13/217/6
f 13/217/6 195/215/146 153/163/118 12/162/5
f 184/218/147 194/219/148 196/220/149 189/212/143
f 189/212/143 196/220/149 197/221/150 188/209/140
f 27/222/17 197/221/150 196/220/149 26/223/16
f 26/223/16 196/220/149 194/219/148 25/224/15
f 188/209/140 197/221/150 198/225/151 192/214/145
f 192/214/145 198/225/151 154/166/120 46/45/35
f 33/167/21 154/166/120 198/225/151 32/226/20
f 32/226/20 198/225/151 197/221/150 27/222/17
f 106/227/75 73/72/51 74/71/50 75/74/52
f 107/107/74 108/106/73 47/49/36 48/48/37
f 145/228/113 17/12/9 18/11/8 144/229/110
f 58/58/43 120/124/87 121/123/86 57/59/42
f 172/230/127 126/132/93 127/131/92 171/231/124
f 40/36/26 146/156/112 147/155/111 39/37/27
f 16/13/1 173/188/126 174/187/125 15/10/1
f 18/11/8 15/10/1 200/232/1 199/233/152
f 39/37/27 202/234/153 201/235/154 37/34/24
f 57/59/42 204/236/155 203/237/155 60/56/42
f 100/102/72 206/238/156 205/239/157 103/99/69
f 104/104/49 207/240/49 206/238/156 100/102/72
f 103/126/69 205/241/157 208/242/158 121/123/86
f 60/56/42 203/237/155 209/243/159 127/131/92
f 144/154/110 211/244/160 210/245/161 147/155/111
f 165/179/49 212/246/49 207/240/49 104/104/49
f 174/187/125 171/186/124 214/247/162 213/248/163
f 144/229/110 18/11/8 199/233/152 211/249/160
f 121/123/86 208/242/158 204/236/155 57/59/42
f 127/131/92 209/243/159 214/250/162 171/231/124
f 147/155/111 210/245/161 202/234/153 39/37/27
f 15/10/1 174/187/125 213/248/163 200/232/1
f 16/13/1 17/12/9 20/14/10 175/191/1
f 1/251/164 215/252/165 216/253/166 38/35/25
f 38/35/25 216/253/166 149/160/116 40/36/26
f 59/57/43 217/254/89 122/128/89 58/58/43
f 102/100/70 219/255/167 218/256/168 101/101/71
f 101/101/71 218/256/168 220/257/49 105/103/49
f 120/124/87 123/127/88 219/258/167 102/125/70
f 126/132/93 125/129/90 217/254/89 59/57/43
f 145/157/113 146/156/112 150/159/115 19/259/11
f 105/103/49 220/257/49 221/260/49 166/178/49
f 172/189/127 173/188/126 176/190/128 124/261/91
f 19/15/11 20/14/10 17/12/9 145/228/113
f 123/127/88 120/124/87 58/58/43 122/128/89
f 124/130/91 125/129/90 126/132/93 172/230/127
f 150/159/115 146/156/112 40/36/26 149/160/116
f 175/191/1 176/190/128 173/188/126 16/13/1
f 175/191/1 20/14/10 9/2/2 6/1/1
f 215/252/165 182/208/139 187/204/135 216/253/166
f 216/253/166 187/204/135 148/161/117 149/160/116
f 217/254/89 54/51/38 51/50/38 122/128/89
f 219/255/167 94/93/65 95/96/68 218/256/168
f 218/256/168 95/96/68 98/98/49 220/257/49
f 123/127/88 112/112/77 94/111/65 219/258/167
f 125/129/90 119/121/84 54/51/38 217/254/89
f 19/259/11 150/159/115 151/158/114 14/216/7
f 220/257/49 98/98/49 163/177/49 221/260/49
f 124/261/91 176/190/128 169/181/121 118/180/85
f 222/262/1 225/263/1 224/264/169 223/265/170
f 225/263/1 227/266/1 226/267/171 224/264/169
f 228/268/172 229/269/173 224/264/169 226/267/171
f 229/269/173 230/270/174 223/265/170 224/264/169
f 231/271/1 234/272/1 233/273/175 232/274/176
f 230/270/174 236/275/177 235/276/178 223/265/170
f 227/266/1 240/277/1 239/278/179 226/267/171
f 238/279/180 241/280/181 239/278/179 237/281/182
f 241/280/181 228/268/172 226/267/171 239/278/179
f 245/282/183 243/283/184 242/284/185 244/285/186
f 248/286/187 251/287/188 250/288/189 249/289/190
f 251/287/188 253/290/191 252/291/192 250/288/189
f 257/292/193 256/293/193 255/294/194 254/295/194
f 260/296/195 263/297/196 262/298/197 261/299/198
f 263/297/196 265/300/49 264/301/49 262/298/197
f 266/302/199 269/303/200 268/304/201 267/305/202
f 269/303/200 271/306/49 270/307/49 268/304/201
f 265/300/49 263/297/196 268/304/201 270/307/49
f 263/297/196 260/296/195 267/305/202 268/304/201
f 275/308/203 274/309/204 273/310/205 272/311/206
f 277/312/49 275/308/203 272/311/206 276/313/49
f 266/314/199 267/315/202 279/316/207 278/317/208
f 267/315/202 260/318/195 280/319/209 279/316/207
f 253/290/191 251/287/188 279/316/207 280/319/209
f 251/287/188 248/286/187 278/317/208 279/316/207
f 281/320/210 284/321/211 283/322/212 282/323/213
f 284/321/211 286/324/214 285/325/215 283/322/212
f 249/289/190 250/288/189 283/322/212 285/325/215
f 250/288/189 252/291/192 282/323/213 283/322/212
f 274/326/204 288/327/216 287/328/217 273/329/205
f 290/330/218 289/331/219 278/317/208 248/286/187
f 286/324/214 292/332/220 291/333/221 285/325/215
f 256/293/193 294/334/222 293/335/223 255/294/194
f 260/318/195 261/336/198 295/337/224 280/319/209
f 258/338/225 253/290/191 280/319/209 295/337/224
f 296/339/226 299/340/227 298/341/228 297/342/229
f 303/343/230 302/344/231 301/345/232 300/346/233
f 228/347/172 241/348/181 305/349/234 304/350/235
f 241/348/181 238/351/180 306/352/236 305/349/234
f 247/353/237 246/354/238 304/350/235 305/349/234
f 265/300/49 309/355/49 308/356/49 264/301/49
f 259/357/49 264/301/49 308/356/49 307/358/49
f 271/306/49 311/359/49 310/360/49 270/307/49
f 309/355/49 265/300/49 270/307/49 310/360/49
f 313/361/49 277/312/49 276/313/49 312/362/49
f 286/363/214 284/364/211 315/365/239 314/366/240
f 284/364/211 281/367/210 316/368/241 315/365/239
f 227/266/1 225/263/1 315/365/239 316/368/241
f 225/263/1 222/262/1 314/366/240 315/365/239
f 317/369/242 320/370/243 319/371/244 318/372/245
f 222/262/1 322/373/1 321/374/246 314/366/240
f 240/277/1 227/266/1 316/368/241 323/375/1
f 300/346/233 326/376/247 325/377/248 324/378/249
f 246/354/238 326/376/247 327/379/250 304/350/235
f 326/376/247 300/346/233 301/345/232 327/379/250
f 230/380/174 229/381/173 327/379/250 301/345/232
f 229/381/173 228/347/172 304/350/235 327/379/250
f 232/274/176 233/273/175 299/382/227 296/383/226
f 287/328/217 288/327/216 257/292/193 254/295/194
f 293/335/223 294/334/222 320/384/243 317/385/242
f 297/342/229 298/341/228 245/282/183 244/285/186
f 318/372/245 319/371/244 234/272/1 231/271/1
f 232/274/176 199/233/152 200/232/1 231/271/1
f 201/235/154 202/234/153 244/285/186 242/284/185
f 203/237/155 204/236/155 254/295/194 255/294/194
f 205/239/157 206/238/156 272/311/206 273/310/205
f 206/238/156 207/240/49 276/313/49 272/311/206
f 208/242/158 205/241/157 273/329/205 287/328/217
f 209/243/159 203/237/155 255/294/194 293/335/223
f 210/245/161 211/244/160 296/339/226 297/342/229
f 207/240/49 212/246/49 312/362/49 276/313/49
f 318/372/245 213/248/163 214/247/162 317/369/242
f 296/383/226 211/249/160 199/233/152 232/274/176
f 204/236/155 208/242/158 287/328/217 254/295/194
f 214/250/162 209/243/159 293/335/223 317/385/242
f 202/234/153 210/245/161 297/342/229 244/285/186
f 231/271/1 200/232/1 213/248/163 318/372/245
f 234/272/1 322/373/1 235/276/178 233/273/175
f 303/343/230 328/386/251 243/283/184 245/282/183
f 290/330/218 329/387/218 256/293/193 257/292/193
f 331/388/252 330/389/253 274/309/204 275/308/203
f 332/390/49 331/388/252 275/308/203 277/312/49
f 330/391/253 289/331/219 288/327/216 274/326/204
f 329/387/218 291/333/221 294/334/222 256/293/193
f 299/340/227 236/392/177 302/344/231 298/341/228
f 333/393/49 332/390/49 277/312/49 313/361/49
f 320/370/243 292/394/220 321/374/246 319/371/244
f 236/275/177 299/382/227 233/273/175 235/276/178
f 257/292/193 288/327/216 289/331/219 290/330/218
f 292/332/220 320/384/243 294/334/222 291/333/221
f 245/282/183 298/341/228 302/344/231 303/343/230
f 322/373/1 234/272/1 319/371/244 321/374/246
f 322/373/1 222/262/1 223/265/170 235/276/178
f 300/346/233 324/378/249 328/386/251 303/343/230
f 248/286/187 249/289/190 329/387/218 290/330/218
f 269/303/200 266/302/199 330/389/253 331/388/252
f 271/306/49 269/303/200 331/388/252 332/390/49
f 266/314/199 278/317/208 289/331/219 330/391/253
f 249/289/190 285/325/215 291/333/221 329/387/218
f 236/392/177 230/380/174 301/345/232 302/344/231
f 311/359/49 271/306/49 332/390/49 333/393/49
f 292/394/220 286/363/214 314/366/240 321/374/246
f 336/395/1 388/396/1 362/397/1 391/398/1
f 388/396/1 343/399/1 389/400/1 362/397/1
f 390/401/1 360/402/1 391/398/1 362/397/1
f 334/403/254 392/404/255 363/405/255 394/406/255
f 392/404/255 344/407/255 393/408/1 363/405/255
f 343/399/1 388/396/1 363/405/255 393/408/1
f 388/396/1 336/395/1 394/406/255 363/405/255
f 344/407/255 392/404/255 364/409/254 396/410/256
f 392/404/255 334/403/254 397/411/254 364/409/254
f 335/412/1 395/413/1 365/414/1 400/415/1
f 359/416/1 399/417/1 365/414/1 398/418/1
f 399/417/1 350/419/1 400/415/1 365/414/1
f 347/420/1 401/421/1 366/422/255 404/423/255
f 401/421/1 346/424/1 402/425/255 366/422/255
f 352/426/255 403/427/255 366/422/255 402/425/255
f 403/427/255 361/428/255 404/423/255 366/422/255
f 334/403/254 405/429/254 367/430/257 397/411/254
f 405/429/254 351/431/258 406/432/259 367/430/257
f 336/395/1 407/433/1 368/434/255 394/406/255
f 407/433/1 352/426/255 408/435/255 368/434/255
f 351/431/258 405/429/254 368/434/255 408/435/255
f 405/429/254 334/403/254 394/406/255 368/434/255
f 360/402/1 409/436/1 369/437/1 391/398/1
f 409/436/1 361/428/255 403/427/255 369/437/1
f 352/426/255 407/433/1 369/437/1 403/427/255
f 407/433/1 336/395/1 391/398/1 369/437/1
f 344/407/255 410/438/1 370/439/1 393/408/1
f 345/440/260 412/441/261 371/442/262 411/443/263
f 412/441/261 338/444/264 413/445/265 371/442/262
f 338/444/264 412/441/261 372/446/266 416/447/267
f 412/441/261 345/440/260 414/448/1 372/446/266
f 346/424/1 415/449/268 372/446/266 414/448/1
f 415/449/268 339/450/269 416/447/267 372/446/266
f 339/450/269 415/449/268 373/451/270 418/452/271
f 415/449/268 346/424/1 401/421/1 373/451/270
f 347/420/1 417/453/272 373/451/270 401/421/1
f 417/453/272 340/454/273 418/452/271 373/451/270
f 340/454/273 417/453/272 374/455/274 421/456/275
f 417/453/272 347/420/1 419/457/1 374/455/274
f 348/458/1 420/459/276 374/455/274 419/457/1
f 420/459/276 341/460/277 421/456/275 374/455/274
f 341/460/277 420/459/276 375/461/278 424/462/279
f 420/459/276 348/458/1 422/463/1 375/461/278
f 349/464/1 423/465/280 375/461/278 422/463/1
f 423/465/280 342/466/281 424/462/279 375/461/278
f 350/419/1 399/417/1 376/467/1 426/468/1
f 399/417/1 359/416/1 425/469/1 376/467/1
f 349/464/1 422/463/1 376/467/1 425/469/1
f 422/463/1 348/458/1 426/468/1 376/467/1
f 345/440/260 427/470/263 377/471/255 414/448/1
f 427/470/263 351/431/258 408/435/255 377/471/255
f 352/426/255 402/425/255 377/471/255 408/435/255
f 402/425/255 346/424/1 414/448/1 377/471/255
f 427/470/263 345/440/260 411/443/263 378/472/282
f 338/473/264 429/474/283 379/475/284 413/476/265
f 429/474/283 354/477/285 430/478/286 379/475/284
f 353/479/287 428/480/288 379/475/284 430/478/286
f 428/480/288 337/481/289 413/476/265 379/475/284
f 339/482/269 431/483/290 380/484/291 416/485/267
f 431/483/290 355/486/292 432/487/293 380/484/291
f 354/477/285 429/474/283 380/484/291 432/487/293
f 429/474/283 338/473/264 416/485/267 380/484/291
f 340/488/273 433/489/294 381/490/295 418/491/271
f 433/489/294 356/492/296 434/493/297 381/490/295
f 355/486/292 431/483/290 381/490/295 434/493/297
f 431/483/290 339/482/269 418/491/271 381/490/295
f 341/494/277 435/495/298 382/496/299 421/497/275
f 435/495/298 357/498/300 436/499/301 382/496/299
f 356/492/296 433/489/294 382/496/299 436/499/301
f 433/489/294 340/488/273 421/497/275 382/496/299
f 342/500/281 437/501/302 383/502/303 424/503/279
f 437/501/302 358/504/304 438/505/305 383/502/303
f 357/498/300 435/495/298 383/502/303 438/505/305
f 435/495/298 341/494/277 424/503/279 383/502/303
f 358/504/304 437/501/302 384/506/306 439/507/306
f 440/508/1 360/402/1 390/401/1 385/509/1
f 360/402/1 440/508/1 386/510/1 409/436/1
f 440/508/1 335/412/1 400/415/1 386/510/1
f 350/419/1 441/511/255 386/510/1 400/415/1
f 441/511/255 361/428/255 409/436/1 386/510/1
f 361/428/255 441/511/255 387/512/255 404/423/255
f 441/511/255 350/419/1 426/468/1 387/512/255
f 348/458/1 419/457/1 387/512/255 426/468/1
f 419/457/1 347/420/1 404/423/255 387/512/255
f 351/431/258 427/470/263 378/472/282 442/513/282
