# Blender 4.5.3 LTS
# www.blender.org
o DPadUpArrow
v -55.057480 -16.670086 20.361031
v -54.942814 -15.741468 21.044746
v -52.791389 -15.945997 21.116760
v -52.976139 -16.787188 20.442230
v -53.173527 -17.730280 19.746971
v -44.796986 -16.729282 19.265396
v -48.818108 -16.324528 20.640541
v -46.778709 -16.526812 20.067863
v -47.029686 -17.121264 19.462318
v -49.015079 -17.005171 19.999161
v -49.202339 -17.730280 19.370697
v -50.786079 -16.135633 20.986115
v -50.979618 -16.896353 20.323685
v -51.178028 -17.730280 19.655891
v -44.486099 -16.347662 19.807907
v -44.171711 -16.027130 20.345772
v -46.533161 -16.096827 20.619858
v -48.641594 -15.868126 21.197670
v -48.475319 -15.523848 21.712631
v -46.290348 -15.749071 21.145073
v -54.868660 -15.211332 21.592545
v -52.676769 -15.443947 21.671272
v -54.814747 -14.880445 22.072380
v -52.597206 -15.111450 22.165733
v -50.645275 -15.656687 21.543869
v -50.530842 -15.318611 22.049324
v -41.403137 -15.943375 20.380791
v -43.148201 -15.247307 21.579193
v -45.372238 -14.289770 23.200058
v -45.757286 -14.949547 22.315384
v -48.117382 -14.767942 22.850166
v -47.874950 -14.221621 23.687721
v -50.287300 -14.597450 23.153076
v -52.424061 -14.411957 23.241455
v -43.857330 -15.706598 20.883667
v -41.963997 -16.156282 19.868561
v -52.517639 -14.778955 22.660187
v -50.416409 -14.980539 22.554794
v -48.309055 -15.179571 22.227638
v -46.047520 -15.401304 21.670319
vn -0.0509 -0.6801 0.7314
vn -0.0852 -0.6591 0.7472
vn -0.0744 -0.5992 0.7971
vn -0.0179 -0.6169 0.7868
vn 0.0802 -0.7430 0.6644
vn 0.1011 -0.6833 0.7231
vn 0.1322 -0.7164 0.6851
vn 0.1144 -0.7819 0.6128
vn 0.0488 -0.6469 0.7610
vn 0.0183 -0.7129 0.7010
vn 0.0589 -0.6304 0.7741
vn 0.0986 -0.6505 0.7531
vn 0.0248 -0.6119 0.7905
vn 0.1268 -0.8265 0.5484
vn 0.1041 -0.8461 0.5228
vn 0.0868 -0.8327 0.5468
vn 0.0447 -0.8113 0.5829
vn 0.0305 -0.8368 0.5466
vn 0.0647 -0.8515 0.5203
vn 0.0759 -0.8616 0.5019
vn -0.0720 -0.7796 0.6221
vn -0.1022 -0.7671 0.6333
vn -0.1079 -0.8148 0.5696
vn -0.0691 -0.8220 0.5653
vn -0.0107 -0.7962 0.6049
vn -0.0216 -0.8289 0.5590
vn 0.0468 -0.8347 0.5487
vn 0.0644 -0.8370 0.5435
vn 0.0739 -0.8293 0.5539
vn 0.0497 -0.8608 0.5065
vn 0.0127 -0.8793 0.4760
vn 0.0332 -0.8661 0.4987
vn -0.0517 -0.8383 0.5428
vn -0.0513 -0.8314 0.5532
vn -0.0218 -0.8342 0.5511
vn -0.0209 -0.8390 0.5437
vn 0.0310 -0.8371 0.5462
vn 0.0599 -0.8458 0.5302
vt 0.212457 0.653306
vt 0.204785 0.653306
vt 0.205107 0.649445
vt 0.212295 0.649649
vt 0.226516 0.651109
vt 0.225989 0.647980
vt 0.232862 0.646047
vt 0.233674 0.648877
vt 0.219192 0.649158
vt 0.219571 0.652559
vt 0.218836 0.645567
vt 0.225499 0.644746
vt 0.212167 0.645698
vt 0.240605 0.645913
vt 0.241637 0.648144
vt 0.234445 0.651215
vt 0.226996 0.653519
vt 0.227462 0.655591
vt 0.235206 0.653322
vt 0.242666 0.650260
vt 0.212577 0.655826
vt 0.204647 0.655863
vt 0.204595 0.657822
vt 0.212669 0.657832
vt 0.219864 0.655034
vt 0.220118 0.657079
vt 0.228505 0.660152
vt 0.236905 0.658056
vt 0.238149 0.661742
vt 0.229238 0.663489
vt 0.243698 0.652380
vt 0.250313 0.648360
vt 0.252207 0.650231
vt 0.246090 0.655182
vt 0.212932 0.662159
vt 0.212776 0.659841
vt 0.220388 0.659123
vt 0.220710 0.661509
vt 0.227941 0.657661
vt 0.235974 0.655427
s 1
f 3/1/1 2/2/2 1/3/3 4/4/4
f 7/5/5 10/6/6 9/7/7 8/8/8
f 3/1/1 4/4/4 13/9/9 12/10/10
f 12/10/10 13/9/9 10/6/6 7/5/5
f 14/11/11 11/12/12 10/6/6 13/9/9
f 14/11/11 13/9/9 4/4/4 5/13/13
f 6/14/14 15/15/15 17/16/16 8/8/8
f 8/8/8 17/16/16 18/17/17 7/5/5
f 19/18/18 18/17/17 17/16/16 20/19/19
f 20/19/19 17/16/16 15/15/15 16/20/20
f 3/1/1 22/21/21 21/22/22 2/2/2
f 23/23/23 21/22/22 22/21/21 24/24/24
f 7/5/5 18/17/17 25/25/25 12/10/10
f 12/10/10 25/25/25 22/21/21 3/1/1
f 24/24/24 22/21/21 25/25/25 26/26/26
f 26/26/26 25/25/25 18/17/17 19/18/18
f 31/27/27 30/28/28 29/29/29 32/30/29
f 35/31/30 36/32/31 27/33/31 28/34/32
f 34/35/33 37/36/34 38/37/35 33/38/36
f 33/38/36 38/37/35 39/39/37 31/27/27
f 19/18/18 39/39/37 38/37/35 26/26/26
f 26/26/26 38/37/35 37/36/34 24/24/24
f 31/27/27 39/39/37 40/40/38 30/28/28
f 30/28/28 40/40/38 35/31/30 28/34/32
f 16/20/20 35/31/30 40/40/38 20/19/19
f 20/19/19 40/40/38 39/39/37 19/18/18
