# Blender 4.5.3 LTS
# www.blender.org
o DPadRightArrow
v -28.070639 -16.800791 -0.121246
v -27.972355 -17.037447 -0.115623
v -27.497232 -17.688234 -0.090279
v -27.686539 -17.451582 -0.100281
v -27.327236 -16.771175 -0.103676
v -26.989874 -17.717806 -0.080154
v -27.624018 -16.014139 8.157707
v -27.626535 -16.014080 3.667145
v -27.619551 -16.014812 -0.337280
v -28.244921 -16.014139 8.157707
v -28.240341 -16.014961 -0.337860
v -28.247610 -16.014080 3.667046
v -28.208469 -16.020641 -2.543304
v -27.925983 -16.751015 8.060341
v -27.316399 -17.719366 -3.155724
v -27.429686 -17.713688 8.025482
v -27.980688 -16.895954 -3.329224
v -27.616062 -17.593353 8.029839
v -27.498438 -17.601746 -3.198051
v -28.106089 -16.871359 8.055992
v -28.022873 -16.014051 1.479187
v -28.025448 -16.014107 6.051239
v -26.867558 -16.014051 1.479721
v -26.870085 -16.014107 6.051239
v -28.017778 -16.017508 -1.608383
v -27.016369 -17.713684 8.025604
v -27.352465 -16.751011 8.060341
v -27.895964 -16.771193 -0.113029
v -27.977186 -16.807716 -3.333168
v -28.101900 -16.781107 8.059273
v -27.398857 -17.717812 -0.085320
v -27.412737 -17.689968 -3.176521
v -27.528633 -17.683603 8.026558
v -27.880217 -17.042995 -3.301895
v -28.074423 -16.889547 -0.121056
v -27.584467 -17.599487 -0.094826
v -27.718147 -17.442942 8.035286
v -27.598906 -17.454706 -3.225357
v -28.004004 -17.021770 8.050552
v -28.018978 -16.014902 -0.337646
v -27.623325 -16.014051 1.479370
v -28.026136 -16.014080 3.667107
v -27.625883 -16.014107 6.051239
v -28.023518 -16.014139 8.157707
v -26.870667 -16.014080 3.667229
v -26.863981 -16.014668 -0.336769
v -27.618486 -16.017160 -1.608116
v -27.985987 -16.020243 -2.526016
v -28.244310 -16.014051 1.479057
v -28.246899 -16.014107 6.051239
v -28.239050 -16.017744 -1.608551
v -28.208462 -16.020641 -2.543304
v -28.207752 -16.544207 -2.542267
v -28.207466 -16.753633 -2.541862
v -28.244925 -16.014139 8.157707
v -28.246902 -16.014107 6.051239
v -28.246902 -16.537680 6.051239
v -28.244925 -16.537703 8.157707
v -28.247610 -16.014080 3.667046
v -28.247581 -16.537647 3.667145
v -28.247564 -16.747076 3.667191
v -28.246902 -16.747099 6.051239
v -28.244925 -16.747126 8.157692
v -28.225266 -17.031855 -2.542435
v -28.207239 -16.921171 -2.541550
v -28.265991 -17.025255 3.667206
v -28.265345 -17.025023 6.051239
v -28.246901 -16.914644 6.051239
v -28.247555 -16.914616 3.667206
v -28.263374 -17.024813 8.157593
v -28.244923 -16.914671 8.157654
v -30.772184 -17.194662 -2.612640
v -30.703968 -17.188194 -3.786804
v -31.440287 -17.236111 -2.646774
v -28.235178 -16.748783 -0.659126
v -28.235327 -16.539358 -0.659126
v -28.235697 -16.015793 -0.659126
v -28.244112 -16.747051 1.479568
v -28.244167 -16.537617 1.479393
v -28.244310 -16.014051 1.479057
v -28.235054 -16.916328 -0.659126
v -28.253391 -17.027103 -0.659126
v -28.244072 -16.914587 1.479660
v -28.262489 -17.025358 1.479607
v -31.889471 -17.330660 -0.659126
v -32.350357 -17.535894 -0.654488
v -32.234196 -17.327215 3.522377
v -31.954807 -17.329901 1.442780
v -32.450218 -17.535969 1.396416
v -32.757065 -17.536077 3.423409
v -33.338512 -17.317993 7.476181
v -32.700623 -17.321936 5.567955
v -31.590780 -17.224373 3.598511
v -31.420860 -17.235645 1.460480
v -30.831430 -17.176506 3.647430
v -30.776363 -17.194214 1.464478
v -30.761877 -17.199514 -0.659126
v -31.380474 -17.238815 -0.659126
v -32.397751 -17.187191 7.813896
v -31.881128 -17.203030 5.795662
v -31.191076 -17.103477 8.411690
v -30.933750 -17.143072 5.987320
v -29.949320 -17.146624 1.469772
v -29.941580 -17.151091 -0.659126
v -29.960783 -17.132591 3.664719
v -29.186140 -17.098156 3.665939
v -29.180658 -17.105082 1.474640
v -29.171001 -17.107828 -0.659126
v -29.984316 -17.105730 6.051239
v -30.002758 -17.080275 8.157906
v -29.194681 -17.071127 8.157738
v -29.191540 -17.084332 6.051239
v -29.918766 -17.148035 -2.612640
v -29.137753 -17.108089 -2.589622
v -29.844864 -17.144484 -3.625824
v -29.027367 -17.104818 -3.538628
v -28.711298 -17.081823 1.477348
v -28.701359 -17.083858 -0.659126
v -28.714790 -17.078697 3.666626
v -28.456573 -17.069038 3.666962
v -28.453075 -17.070419 1.478706
v -28.443609 -17.072290 -0.659126
v -28.714149 -17.072201 6.051239
v -28.455935 -17.066141 6.051239
v -28.712181 -17.065941 8.157654
v -28.453960 -17.063360 8.157639
v -28.667410 -17.086315 -2.569191
v -28.412996 -17.076071 -2.553757
v -28.317818 -17.064444 1.479393
v -28.321325 -17.063971 3.667145
v -28.308594 -17.066233 -0.659126
v -28.320671 -17.062971 6.051239
v -28.318701 -17.062010 8.157593
v -28.279732 -17.070698 -2.545700
vn -0.0000 1.0000 -0.0025
vn -0.0857 0.9963 -0.0028
vn -0.0842 0.9964 -0.0028
vn -0.9004 0.4348 -0.0150
vn -0.7424 0.6699 -0.0045
vn -0.5196 -0.8544 -0.0076
vn -0.5406 -0.8412 -0.0143
vn -0.2890 -0.9573 -0.0073
vn -0.1955 -0.9807 -0.0025
vn -0.0000 -1.0000 0.0005
vn -0.1471 -0.9891 -0.0000
vn -0.5220 -0.8530 -0.0015
vn -0.8229 -0.5677 -0.0228
vn -0.8241 -0.5663 -0.0125
vn -0.9612 -0.2754 -0.0154
vn -0.9654 -0.2592 -0.0276
vn -0.9988 0.0404 -0.0292
vn -0.8241 -0.5662 -0.0125
vn -0.7726 -0.6348 -0.0117
vn -0.7745 -0.6326 -0.0025
vn -0.8252 -0.5648 -0.0025
vn -0.8230 -0.5676 -0.0226
vn -0.8252 -0.5648 -0.0022
vn -0.7762 -0.6301 -0.0211
vn -0.9637 -0.2669 -0.0032
vn -0.0000 -1.0000 -0.0000
vn 0.0001 -1.0000 0.0002
vn 0.0004 -1.0000 0.0013
vn 0.0004 -1.0000 0.0012
vn 0.0003 -1.0000 0.0009
vn -0.0000 -1.0000 0.0002
vn 0.0001 -1.0000 0.0004
vn 0.0005 -1.0000 0.0019
vn 0.0008 -1.0000 0.0024
vn 0.0010 -1.0000 0.0026
vn 0.0013 -1.0000 0.0031
vn 1.0000 -0.0000 -0.0009
vn 1.0000 -0.0000 -0.0006
vn 1.0000 0.0001 0.0006
vn 0.8454 -0.5341 0.0007
vn 0.9966 -0.0824 0.0007
vn 0.9966 -0.0827 -0.0006
vn 0.8432 -0.5376 -0.0004
vn 0.9966 -0.0828 -0.0009
vn 0.8420 -0.5395 -0.0007
vn 0.9999 0.0011 0.0147
vn 0.9999 0.0010 0.0146
vn 1.0000 0.0008 0.0094
vn 1.0000 0.0008 0.0093
vn 0.9999 0.0010 0.0145
vn 1.0000 0.0003 0.0028
vn 1.0000 0.0003 0.0029
vn 0.9966 -0.0813 0.0096
vn 0.9966 -0.0810 0.0150
vn 0.8451 -0.5345 0.0140
vn 0.8476 -0.5306 0.0090
vn 0.9966 -0.0821 0.0029
vn 0.8469 -0.5318 0.0027
vn 0.2238 -0.9740 0.0353
vn 0.3703 -0.9274 0.0534
vn 0.3824 -0.9233 0.0347
vn 0.2743 -0.9614 0.0238
vn 0.3945 -0.9188 0.0158
vn 0.2845 -0.9586 0.0105
vn 0.1157 -0.9932 0.0097
vn 0.1069 -0.9941 0.0199
vn 0.0597 -0.9982 0.0059
vn 0.0553 -0.9984 0.0124
vn 0.0603 -0.9982 0.0001
vn 0.1002 -0.9950 0.0017
vn 0.1270 -0.9910 0.0423
vn 0.1352 -0.9901 0.0371
vn 0.0957 -0.9950 0.0283
vn 0.0895 -0.9955 0.0316
vn 0.0479 -0.9987 0.0176
vn 0.0438 -0.9989 0.0193
vn 0.0627 -0.9980 -0.0030
vn 0.0575 -0.9983 -0.0020
vn 0.0559 -0.9984 0.0007
vn 0.0540 -0.9985 0.0044
vn 0.0456 -0.9989 0.0089
vn 0.0408 -0.9992 0.0051
vn 0.0499 -0.9987 0.0027
vn 0.0518 -0.9987 0.0012
vn 0.0319 -0.9994 0.0120
vn 0.0248 -0.9996 0.0129
vn 0.0186 -0.9998 0.0070
vn 0.0265 -0.9996 0.0067
vn 0.0532 -0.9986 -0.0005
vn 0.0506 -0.9987 0.0009
vn 0.0528 -0.9986 -0.0011
vn 0.0513 -0.9987 -0.0000
vn 0.0497 -0.9988 0.0012
vn 0.0465 -0.9989 0.0016
vn 0.0452 -0.9990 0.0015
vn 0.0375 -0.9993 0.0024
vn 0.0356 -0.9994 0.0011
vn 0.0426 -0.9991 0.0009
vn 0.0435 -0.9991 0.0018
vn 0.0236 -0.9997 0.0014
vn 0.0246 -0.9997 0.0033
vn 0.0174 -0.9998 0.0034
vn 0.0167 -0.9999 0.0015
vn 0.0456 -0.9990 0.0019
vn 0.0425 -0.9991 0.0026
vn 0.3168 -0.9485 0.0006
vn 0.3224 -0.9466 0.0015
vn 0.3233 -0.9463 0.0046
vn 0.3020 -0.9533 0.0003
vn 0.3073 -0.9516 0.0004
vn 0.3168 -0.9485 0.0070
vt 0.541115 0.749848
vt 0.541091 0.722362
vt 0.543006 0.722335
vt 0.543046 0.749852
vt 0.543603 0.722308
vt 0.543647 0.749849
vt 0.000704 0.706774
vt 0.001017 0.696384
vt 0.001356 0.696456
vt 0.001050 0.706792
vt 0.002426 0.706813
vt 0.002263 0.734103
vt 0.000872 0.734098
vt 0.000523 0.734101
vt 0.747315 0.312872
vt 0.747108 0.323036
vt 0.746530 0.322995
vt 0.746782 0.312737
vt 0.746234 0.322982
vt 0.746527 0.312677
vt 0.748690 0.323113
vt 0.749244 0.323151
vt 0.749164 0.348889
vt 0.748600 0.348916
vt 0.749631 0.323171
vt 0.749556 0.348875
vt 0.748864 0.313220
vt 0.746994 0.348977
vt 0.749808 0.313436
vt 0.749418 0.313351
vt 0.746435 0.349002
vt 0.746161 0.349015
vt 0.584449 0.750305
vt 0.584459 0.742945
vt 0.585207 0.742945
vt 0.585197 0.750305
vt 0.584479 0.736822
vt 0.585217 0.736822
vt 0.586563 0.736822
vt 0.586553 0.742945
vt 0.586544 0.750305
vt 0.584459 0.765432
vt 0.584459 0.758332
vt 0.585197 0.758332
vt 0.585207 0.765432
vt 0.586544 0.758332
vt 0.586553 0.765432
vt 0.589086 0.750305
vt 0.589096 0.742945
vt 0.589106 0.736822
vt 0.589096 0.758332
vt 0.586563 0.732544
vt 0.585227 0.732544
vt 0.584479 0.732544
vt 0.584579 0.729402
vt 0.585327 0.729452
vt 0.556791 0.975853
vt 0.556791 0.977616
vt 0.549737 0.977606
vt 0.549747 0.975843
vt 0.541767 0.977586
vt 0.541767 0.975823
vt 0.541767 0.978294
vt 0.549737 0.978304
vt 0.556791 0.978324
vt 0.541757 0.979230
vt 0.541767 0.978852
vt 0.549737 0.978872
vt 0.549737 0.979250
vt 0.556791 0.978882
vt 0.556791 0.979260
vt 0.520904 0.978274
vt 0.520904 0.977567
vt 0.527270 0.977567
vt 0.527270 0.978264
vt 0.527270 0.975803
vt 0.520904 0.975803
vt 0.534444 0.977567
vt 0.534444 0.978274
vt 0.534454 0.975803
vt 0.527270 0.978832
vt 0.520914 0.978842
vt 0.520914 0.979220
vt 0.527270 0.979210
vt 0.534444 0.978842
vt 0.534444 0.979220
vt 0.283786 0.590782
vt 0.281897 0.590424
vt 0.282868 0.583419
vt 0.284673 0.583584
vt 0.283107 0.576342
vt 0.284801 0.576321
vt 0.286497 0.583638
vt 0.285979 0.591039
vt 0.288672 0.583640
vt 0.288541 0.591197
vt 0.288625 0.576300
vt 0.286540 0.576313
vt 0.280065 0.604465
vt 0.282232 0.597864
vt 0.285014 0.598645
vt 0.283247 0.605623
vt 0.288208 0.599297
vt 0.287304 0.607674
vt 0.286209 0.569467
vt 0.288461 0.569570
vt 0.291393 0.576275
vt 0.291463 0.583639
vt 0.291479 0.591244
vt 0.294094 0.591237
vt 0.294059 0.583635
vt 0.293994 0.576245
vt 0.291410 0.599512
vt 0.291315 0.606795
vt 0.294041 0.606799
vt 0.294084 0.599509
vt 0.291337 0.569542
vt 0.293974 0.569582
vt 0.288589 0.565539
vt 0.291499 0.566061
vt 0.294263 0.566317
vt 0.295580 0.576222
vt 0.295644 0.583630
vt 0.295685 0.591233
vt 0.296557 0.591231
vt 0.296516 0.583626
vt 0.296450 0.576209
vt 0.296566 0.599511
vt 0.295694 0.599510
vt 0.295668 0.606805
vt 0.296539 0.606809
vt 0.295563 0.569623
vt 0.296422 0.569658
vt 0.297241 0.591229
vt 0.297014 0.591230
vt 0.296973 0.583624
vt 0.297201 0.583623
vt 0.296906 0.576201
vt 0.297134 0.576198
vt 0.297220 0.606813
vt 0.296995 0.606812
vt 0.297022 0.599511
vt 0.297248 0.599512
vt 0.297099 0.569684
vt 0.296873 0.569675
s 1
f 27/1/1 5/2/1 28/3/2 14/4/3
f 1/5/4 30/6/5 14/4/3 28/3/2
f 3/7/6 32/8/7 15/9/8 31/10/9
f 6/11/10 26/12/10 16/13/11 31/10/9
f 33/14/12 3/7/6 31/10/9 16/13/11
f 34/15/13 2/16/14 35/17/15 17/18/16
f 1/19/4 29/20/17 17/18/16 35/17/15
f 4/21/18 36/22/19 18/23/20 37/24/21
f 36/22/19 3/25/6 33/26/12 18/23/20
f 38/27/22 4/21/18 2/16/14 34/15/13
f 2/16/14 4/21/18 37/24/21 39/28/23
f 32/29/7 3/25/6 36/22/19 19/30/24
f 4/21/18 38/27/22 19/30/24 36/22/19
f 1/19/4 35/17/15 20/31/25 30/32/5
f 35/17/15 2/16/14 39/28/23 20/31/25
f 12/33/26 49/34/27 21/35/27 42/36/26
f 49/34/27 11/37/28 40/38/29 21/35/27
f 9/39/30 41/40/27 21/35/27 40/38/29
f 41/40/27 8/41/26 42/36/26 21/35/27
f 10/42/26 50/43/26 22/44/26 44/45/26
f 50/43/26 12/33/26 42/36/26 22/44/26
f 8/41/26 43/46/26 22/44/26 42/36/26
f 43/46/26 7/47/26 44/45/26 22/44/26
f 45/48/26 8/41/26 41/40/27 23/49/31
f 9/39/30 46/50/32 23/49/31 41/40/27
f 8/41/26 45/48/26 24/51/26 43/46/26
f 47/52/33 9/39/30 40/38/29 25/53/34
f 11/37/28 51/54/35 25/53/34 40/38/29
f 51/54/35 13/55/36 48/56/36 25/53/34
f 55/57/37 58/58/37 57/59/38 56/60/38
f 56/60/38 57/59/38 60/61/39 59/62/39
f 61/63/39 60/61/39 57/59/38 62/64/38
f 62/64/38 57/59/38 58/58/37 63/65/37
f 66/66/40 69/67/41 68/68/42 67/69/43
f 67/69/43 68/68/42 71/70/44 70/71/45
f 63/65/37 71/70/44 68/68/42 62/64/38
f 62/64/38 68/68/42 69/67/41 61/63/39
f 54/72/46 53/73/47 76/74/48 75/75/48
f 77/76/49 76/74/48 53/73/47 52/77/50
f 75/75/48 76/74/48 79/78/51 78/79/52
f 78/79/52 79/78/51 60/61/39 61/63/39
f 60/61/39 79/78/51 80/80/51 59/62/39
f 80/80/51 79/78/51 76/74/48 77/76/49
f 75/75/48 81/81/53 65/82/54 54/72/46
f 64/83/55 65/82/54 81/81/53 82/84/56
f 61/63/39 69/67/41 83/85/57 78/79/52
f 78/79/52 83/85/57 81/81/53 75/75/48
f 82/84/56 81/81/53 83/85/57 84/86/58
f 84/86/58 83/85/57 69/67/41 66/66/40
f 87/87/59 90/88/60 89/89/61 88/90/62
f 88/90/62 89/89/61 86/91/63 85/92/64
f 87/87/59 88/90/62 94/93/65 93/94/66
f 93/94/66 94/93/65 96/95/67 95/96/68
f 97/97/69 96/95/67 94/93/65 98/98/70
f 98/98/70 94/93/65 88/90/62 85/92/64
f 91/99/71 92/100/72 100/101/73 99/102/74
f 99/102/74 100/101/73 102/103/75 101/104/76
f 95/96/68 102/103/75 100/101/73 93/94/66
f 93/94/66 100/101/73 92/100/72 87/87/59
f 97/97/69 98/98/70 74/105/77 72/106/78
f 97/97/69 104/107/79 103/108/80 96/95/67
f 96/95/67 103/108/80 105/109/81 95/96/68
f 106/110/82 105/109/81 103/108/80 107/111/83
f 107/111/83 103/108/80 104/107/79 108/112/84
f 95/96/68 105/109/81 109/113/85 102/103/75
f 102/103/75 109/113/85 110/114/86 101/104/76
f 111/115/87 110/114/86 109/113/85 112/116/88
f 112/116/88 109/113/85 105/109/81 106/110/82
f 72/106/78 113/117/89 104/107/79 97/97/69
f 108/112/84 104/107/79 113/117/89 114/118/90
f 72/106/78 73/119/91 115/120/92 113/117/89
f 113/117/89 115/120/92 116/121/93 114/118/90
f 108/112/84 118/122/94 117/123/95 107/111/83
f 107/111/83 117/123/95 119/124/96 106/110/82
f 120/125/97 119/124/96 117/123/95 121/126/98
f 121/126/98 117/123/95 118/122/94 122/127/99
f 120/125/97 124/128/100 123/129/101 119/124/96
f 119/124/96 123/129/101 112/116/88 106/110/82
f 111/115/87 112/116/88 123/129/101 125/130/102
f 125/130/102 123/129/101 124/128/100 126/131/103
f 114/118/90 127/132/104 118/122/94 108/112/84
f 122/127/99 118/122/94 127/132/104 128/133/105
f 66/134/40 130/135/106 129/136/107 84/137/58
f 84/137/58 129/136/107 131/138/108 82/139/56
f 122/127/99 131/138/108 129/136/107 121/126/98
f 121/126/98 129/136/107 130/135/106 120/125/97
f 70/140/45 133/141/109 132/142/110 67/143/43
f 67/143/43 132/142/110 130/135/106 66/134/40
f 120/125/97 130/135/106 132/142/110 124/128/100
f 124/128/100 132/142/110 133/141/109 126/131/103
f 64/144/55 82/139/56 131/138/108 134/145/111
f 128/133/105 134/145/111 131/138/108 122/127/99
