# Blender 4.5.3 LTS
# www.blender.org
o RightStickClick
v 31.769655 -23.046202 -23.912239
v 31.404257 -23.046200 -22.075279
v 30.363707 -23.046200 -20.517990
v 28.806400 -23.046200 -19.477448
v 26.969435 -23.046200 -19.112030
v 25.132471 -23.046200 -19.477448
v 23.575167 -23.046200 -20.517990
v 22.534616 -23.046200 -22.075279
v 22.169216 -23.046202 -23.912239
v 22.534613 -23.046202 -25.749210
v 23.575167 -23.046202 -27.306522
v 25.132471 -23.046202 -28.347084
v 26.969435 -23.046202 -28.712467
v 28.806400 -23.046202 -28.347084
v 30.363707 -23.046202 -27.306522
v 31.404264 -23.046202 -25.749210
v 31.769590 -19.276585 -23.912239
v 31.404205 -19.276583 -22.075298
v 30.363665 -19.276594 -20.518024
v 28.806376 -19.276594 -19.477489
v 26.969437 -19.276594 -19.112091
v 25.132498 -19.276594 -19.477489
v 23.575207 -19.276594 -20.518024
v 22.534672 -19.276594 -22.075298
v 22.169283 -19.276596 -23.912239
v 22.534672 -19.276596 -25.749195
v 23.575207 -19.276596 -27.306473
v 25.132498 -19.276585 -28.347015
v 26.969437 -19.276590 -28.712402
v 28.806376 -19.276585 -28.347015
v 30.363665 -19.276585 -27.306473
v 31.404205 -19.276596 -25.749195
v 31.718214 -22.620047 -23.912239
v 31.356735 -22.620045 -22.094963
v 30.327324 -22.620045 -20.554352
v 28.786715 -22.620045 -19.524940
v 26.969435 -22.620045 -19.163460
v 25.152155 -22.620045 -19.524940
v 23.611544 -22.620045 -20.554352
v 22.582134 -22.620045 -22.094963
v 22.220655 -22.620047 -23.912239
v 22.582132 -22.620047 -25.729515
v 23.611542 -22.620047 -27.270145
v 25.152155 -22.620047 -28.299557
v 26.969435 -22.620047 -28.661018
v 28.786716 -22.620047 -28.299557
v 30.327326 -22.620047 -27.270145
v 31.356741 -22.620047 -25.729515
v 38.323608 -15.945532 -23.912239
v 37.461910 -15.942070 -19.566288
v 35.006062 -15.931581 -15.876060
v 31.324411 -15.913939 -13.399395
v 26.969854 -15.889433 -12.513550
v 22.598635 -15.859705 -13.359196
v 18.875492 -15.829065 -15.817883
v 16.376163 -15.804958 -19.524189
v 15.495857 -15.795668 -23.912239
v 16.376152 -15.804985 -28.300289
v 18.875481 -15.829094 -32.006611
v 22.598629 -15.859739 -34.465286
v 26.969854 -15.889463 -35.310928
v 31.324413 -15.913965 -34.425095
v 35.006062 -15.931610 -31.948448
v 37.461922 -15.942087 -28.258186
v 40.077576 -11.888304 -23.912239
v 39.079826 -11.888313 -18.896233
v 36.238487 -11.888304 -14.643871
v 31.986116 -11.888309 -11.802509
v 26.970102 -11.888309 -10.804752
v 21.954092 -11.888309 -11.802490
v 17.701717 -11.888304 -14.643856
v 14.860366 -11.888313 -18.896233
v 13.862611 -11.888304 -23.912239
v 14.860365 -11.888317 -28.928257
v 17.701706 -11.888317 -33.180626
v 21.954084 -11.888313 -36.021973
v 26.970102 -11.888313 -37.019730
v 31.986118 -11.888313 -36.021973
v 36.238491 -11.888317 -33.180607
v 39.079830 -11.888317 -28.928242
v 18.023769 -13.610596 -14.965939
v 22.129791 -13.622227 -12.226772
v 26.970049 -13.634844 -11.268055
v 31.807310 -13.646408 -12.234077
v 35.906017 -13.655504 -14.976307
v 38.643665 -13.661245 -19.076878
v 39.604824 -13.663206 -23.912239
v 38.643661 -13.661285 -28.747616
v 35.906017 -13.655544 -32.848186
v 31.807312 -13.646448 -35.590420
v 26.970049 -13.634892 -36.556419
v 22.129784 -13.622272 -35.597721
v 18.023762 -13.610641 -32.858555
v 15.278750 -13.602348 -28.754951
v 14.314524 -13.599289 -23.912239
v 15.278746 -13.602310 -19.069546
v 20.255156 -17.689018 -17.197563
v 23.335890 -17.689014 -15.139057
v 26.969856 -17.689014 -14.416229
v 30.603827 -17.688999 -15.139057
v 33.684555 -17.688999 -17.197563
v 35.743034 -17.688990 -20.278290
v 36.465878 -17.688992 -23.912239
v 35.743042 -17.688992 -27.546238
v 33.673153 -17.689009 -30.640888
v 30.603828 -17.689009 -32.685421
v 26.969856 -17.689009 -33.408283
v 23.335890 -17.689032 -32.685421
v 20.255157 -17.689032 -30.626949
v 18.196676 -17.689018 -27.546238
v 17.473827 -17.689018 -23.912239
v 18.196674 -17.689018 -20.278275
v 31.718214 -21.052486 -23.912239
v 31.356741 -21.052485 -22.094963
v 30.327324 -21.052485 -20.554352
v 28.786715 -21.052485 -19.524940
v 26.969435 -21.052485 -19.163460
v 25.152155 -21.052485 -19.524940
v 23.611544 -21.052485 -20.554352
v 22.582134 -21.052485 -22.094963
v 22.220655 -21.052486 -23.912239
v 22.582132 -21.052486 -25.729515
v 23.611542 -21.052486 -27.270145
v 25.152155 -21.052486 -28.299557
v 26.969435 -21.052486 -28.661018
v 28.786715 -21.052486 -28.299557
v 30.327326 -21.052486 -27.270145
v 31.356741 -21.052486 -25.729515
v 33.970558 -18.860920 -23.912239
v 22.019070 -18.860931 -18.961781
v 24.290367 -18.860937 -17.444168
v 26.969542 -18.860922 -16.911217
v 29.648712 -18.860922 -17.444168
v 31.920015 -18.860920 -18.961781
v 33.437630 -18.860920 -21.233082
v 33.437645 -18.860920 -26.591427
v 31.920031 -18.860920 -28.862743
v 29.648712 -18.860933 -30.380360
v 26.969542 -18.860933 -30.913277
v 24.290371 -18.860945 -30.380341
v 22.019056 -18.860939 -28.862743
v 20.501402 -18.860933 -26.591427
v 19.968494 -18.860933 -23.912239
v 20.501429 -18.860931 -21.233067
v 31.718214 -19.629349 -23.912239
v 31.356741 -19.629347 -22.094963
v 30.327324 -19.629347 -20.554352
v 28.786715 -19.629347 -19.524940
v 26.969435 -19.629347 -19.163460
v 25.152155 -19.629347 -19.524940
v 23.611544 -19.629347 -20.554352
v 22.582134 -19.629347 -22.094963
v 22.220654 -19.629349 -23.912239
v 22.582132 -19.629349 -25.729515
v 23.611542 -19.629349 -27.270145
v 25.152155 -19.629349 -28.299557
v 26.969435 -19.629349 -28.661018
v 28.786716 -19.629349 -28.299557
v 30.327326 -19.629349 -27.270145
v 31.356741 -19.629349 -25.729515
v 35.412003 -23.080067 -22.232929
v 34.126709 -23.080067 -19.129940
v 31.751764 -23.080067 -16.755009
v 28.648787 -23.080067 -15.469707
v 25.290138 -23.080067 -15.469707
v 22.187149 -23.080067 -16.755009
v 19.812225 -23.080067 -19.129940
v 18.526924 -23.080067 -22.232929
v 18.526924 -23.080069 -25.591583
v 19.812225 -23.080069 -28.694557
v 22.187149 -23.080069 -31.069489
v 25.290138 -23.080069 -32.354790
v 28.648787 -23.080069 -32.354790
v 31.751781 -23.080069 -31.069489
v 34.126709 -23.080069 -28.694557
v 35.412003 -23.080069 -25.591583
v 31.626091 -22.944574 -22.985977
v 30.917158 -22.944572 -21.274452
v 29.607222 -22.944572 -19.964527
v 27.895704 -22.944572 -19.255592
v 26.043163 -22.944572 -19.255592
v 24.331648 -22.944572 -19.964527
v 23.021709 -22.944572 -21.274452
v 22.312777 -22.944574 -22.985977
v 22.312777 -22.944574 -24.838501
v 23.021709 -22.944574 -26.550026
v 24.331648 -22.944574 -27.859982
v 26.043163 -22.944574 -28.568920
v 27.895704 -22.944574 -28.568920
v 29.607222 -22.944574 -27.859982
v 30.917158 -22.944574 -26.550026
v 31.626091 -22.944574 -24.838501
v 31.827860 -23.080069 -22.945869
v 31.088209 -23.080067 -21.160187
v 29.721510 -23.080067 -19.793472
v 27.935839 -23.080067 -19.053833
v 26.003035 -23.080067 -19.053833
v 24.217356 -23.080067 -19.793472
v 22.850666 -23.080067 -21.160187
v 22.111008 -23.080069 -22.945869
v 22.111008 -23.080069 -24.878658
v 22.850662 -23.080069 -26.664345
v 24.217356 -23.080069 -28.031010
v 26.003035 -23.080069 -28.770679
v 27.935839 -23.080069 -28.770679
v 29.721510 -23.080069 -28.031010
v 31.088209 -23.080069 -26.664345
v 31.827860 -23.080069 -24.878658
v 37.193546 -16.940136 -21.878674
v 35.645790 -16.931633 -18.115261
v 32.779037 -16.913971 -15.218414
v 29.016562 -16.886053 -13.623501
v 24.914158 -16.847298 -13.576775
v 21.082996 -16.799763 -15.101677
v 18.110561 -16.751904 -17.992542
v 16.481249 -16.720098 -21.825901
v 16.481245 -16.720100 -25.998589
v 18.110561 -16.751913 -29.831955
v 21.082991 -16.799774 -32.722805
v 24.914158 -16.847307 -34.247688
v 29.016562 -16.886068 -34.200981
v 32.779045 -16.913986 -32.606094
v 35.645786 -16.931654 -29.709221
v 37.193546 -16.940138 -25.945835
v 38.841743 -14.767588 -21.550800
v 37.036629 -14.762383 -17.185936
v 33.699272 -14.752159 -13.841171
v 29.334497 -14.737440 -12.025059
v 24.603662 -14.719484 -12.015873
v 20.225758 -14.700636 -13.818783
v 16.869461 -14.684443 -17.163288
v 15.050714 -14.674952 -21.541359
v 15.050714 -14.674955 -26.283154
v 16.869461 -14.684465 -30.661201
v 20.225748 -14.700653 -34.005730
v 24.603659 -14.719505 -35.808617
v 29.334501 -14.737467 -35.799404
v 33.699268 -14.752176 -33.983303
v 37.036629 -14.762403 -30.638557
v 38.841747 -14.767590 -26.273678
v 39.633472 -12.738201 -21.393345
v 37.705727 -12.738205 -16.738945
v 34.143604 -12.738194 -13.176350
v 29.489185 -12.738195 -11.247948
v 24.450924 -12.738184 -11.247421
v 19.795797 -12.738182 -13.175106
v 16.232668 -12.738176 -16.737701
v 14.304222 -12.738174 -21.392849
v 14.304221 -12.738176 -26.431644
v 16.232666 -12.738201 -31.086777
v 19.795792 -12.738205 -34.649357
v 24.450924 -12.738214 -36.577042
v 29.489185 -12.738214 -36.576530
v 34.143604 -12.738224 -34.648144
v 37.705727 -12.738230 -31.085548
v 39.633472 -12.738205 -26.431152
v 35.139751 -18.356863 -22.287121
v 33.895935 -18.356863 -19.284283
v 31.597672 -18.356863 -16.985981
v 28.594818 -18.356863 -15.742134
v 25.344542 -18.356865 -15.742100
v 22.341682 -18.356865 -16.985931
v 20.043364 -18.356865 -19.284237
v 18.799524 -18.356865 -22.287102
v 18.799555 -18.356876 -25.537376
v 20.043371 -18.356876 -28.540260
v 22.341681 -18.356876 -30.838547
v 25.344545 -18.356876 -32.082363
v 28.594818 -18.356876 -32.082333
v 31.597668 -18.356876 -30.838512
v 33.895962 -18.356865 -28.540226
v 35.139767 -18.356865 -25.537376
v 32.704029 -23.080067 -22.771572
v 31.830994 -23.080067 -20.663864
v 30.217833 -23.080067 -19.050705
v 28.110123 -23.080067 -18.177681
v 25.828768 -23.080067 -18.177681
v 23.721071 -23.080067 -19.050705
v 22.107903 -23.080067 -20.663864
v 21.234873 -23.080067 -22.771572
v 21.234873 -23.080069 -25.052937
v 22.107903 -23.080069 -27.160625
v 23.721069 -23.080069 -28.773785
v 25.828768 -23.080069 -29.646828
v 28.110126 -23.080069 -29.646828
v 30.217833 -23.080069 -28.773785
v 31.830994 -23.080069 -27.160625
v 32.704037 -23.080069 -25.052937
v 34.056297 -23.080067 -22.502579
v 32.977386 -23.080067 -19.897900
v 30.983824 -23.080067 -17.904331
v 28.379114 -23.080067 -16.825436
v 25.559803 -23.080067 -16.825436
v 22.955099 -23.080067 -17.904331
v 20.961544 -23.080067 -19.897900
v 19.882633 -23.080067 -22.502579
v 19.882633 -23.080069 -25.321915
v 20.961538 -23.080069 -27.926628
v 22.955097 -23.080069 -29.920162
v 25.559803 -23.080069 -30.999096
v 28.379114 -23.080069 -30.999096
v 30.983833 -23.080069 -29.920162
v 32.977390 -23.080069 -27.926628
v 34.056297 -23.080069 -25.321915
v 31.827623 -19.205626 -22.945900
v 31.088017 -19.205624 -21.160313
v 29.721386 -19.205624 -19.793697
v 27.935802 -19.205624 -19.054070
v 26.003098 -19.205624 -19.054070
v 24.217514 -19.205624 -19.793678
v 22.850887 -19.205624 -21.160297
v 22.111265 -19.205626 -22.945900
v 22.111265 -19.205626 -24.878593
v 22.850882 -19.205626 -26.664185
v 24.217508 -19.205626 -28.030800
v 26.003094 -19.205620 -28.770439
v 27.935802 -19.205620 -28.770439
v 29.721386 -19.205626 -28.030800
v 31.088017 -19.205626 -26.664185
v 31.827623 -19.205626 -24.878593
v 31.626091 -19.362825 -22.985977
v 30.917158 -19.362823 -21.274452
v 29.607222 -19.362823 -19.964527
v 27.895704 -19.362823 -19.255592
v 26.043163 -19.362823 -19.255592
v 24.331648 -19.362823 -19.964527
v 23.021709 -19.362823 -21.274452
v 22.312777 -19.362825 -22.985977
v 22.312777 -19.362825 -24.838501
v 23.021709 -19.362825 -26.550026
v 24.331642 -19.362825 -27.859962
v 26.043163 -19.362825 -28.568920
v 27.895704 -19.362825 -28.568920
v 29.607222 -19.362825 -27.859982
v 30.917158 -19.362825 -26.550026
v 31.626091 -19.362825 -24.838501
v 35.579021 -23.080069 -23.912239
v 34.923660 -23.080067 -20.617504
v 33.057343 -23.080067 -17.824383
v 30.264206 -23.080067 -15.958065
v 26.969463 -23.080067 -15.302700
v 23.674728 -23.080067 -15.958065
v 20.881588 -23.080067 -17.824383
v 19.015270 -23.080067 -20.617504
v 18.359903 -23.080069 -23.912239
v 19.015266 -23.080069 -27.206974
v 20.881582 -23.080069 -30.000141
v 23.674728 -23.080069 -31.866444
v 26.969463 -23.080069 -32.521828
v 30.264206 -23.080069 -31.866444
v 33.057343 -23.080069 -30.000141
v 34.923660 -23.080069 -27.206974
v 31.676535 -23.046202 -22.975948
v 30.959917 -23.046200 -21.245888
v 29.635790 -23.046200 -19.921757
v 27.905733 -23.046200 -19.205147
v 26.033140 -23.046200 -19.205147
v 24.303074 -23.046200 -19.921757
v 22.978952 -23.046200 -21.245888
v 22.262337 -23.046202 -22.975948
v 22.262337 -23.046202 -24.848549
v 22.978949 -23.046202 -26.578606
v 24.303074 -23.046202 -27.902737
v 26.033140 -23.046202 -28.619347
v 27.905739 -23.046202 -28.619347
v 29.635790 -23.046202 -27.902737
v 30.959917 -23.046202 -26.578606
v 31.676535 -23.046202 -24.848549
v 31.718214 -22.944574 -23.912239
v 31.356741 -22.944572 -22.094963
v 30.327324 -22.944572 -20.554352
v 28.786715 -22.944572 -19.524940
v 26.969435 -22.944572 -19.163460
v 25.152155 -22.944572 -19.524940
v 23.611544 -22.944572 -20.554352
v 22.582134 -22.944572 -22.094963
v 22.220654 -22.944574 -23.912239
v 22.582132 -22.944574 -25.729515
v 23.611542 -22.944574 -27.270145
v 25.152155 -22.944574 -28.299557
v 26.969435 -22.944574 -28.661018
v 28.786716 -22.944574 -28.299557
v 30.327326 -22.944574 -27.270145
v 31.356741 -22.944574 -25.729515
v 31.676472 -19.276585 -22.975979
v 30.959871 -19.276583 -21.245937
v 29.635759 -19.276594 -19.921806
v 27.905722 -19.276594 -19.205212
v 26.033148 -19.276594 -19.205212
v 24.303118 -19.276594 -19.921806
v 22.979004 -19.276594 -21.245937
v 22.262407 -19.276596 -22.975948
v 22.262407 -19.276596 -24.848549
v 22.979000 -19.276596 -26.578590
v 24.303118 -19.276585 -27.902672
v 26.033148 -19.276583 -28.619286
v 27.905722 -19.276583 -28.619286
v 29.635759 -19.276585 -27.902672
v 30.959871 -19.276585 -26.578590
v 31.676481 -19.276596 -24.848549
v 31.626091 -22.620047 -22.985977
v 30.917158 -22.620045 -21.274452
v 29.607222 -22.620045 -19.964527
v 27.895704 -22.620045 -19.255592
v 26.043163 -22.620045 -19.255592
v 24.331648 -22.620045 -19.964527
v 23.021709 -22.620045 -21.274452
v 22.312777 -22.620047 -22.985977
v 22.312777 -22.620047 -24.838501
v 23.021709 -22.620047 -26.550026
v 24.331648 -22.620047 -27.859982
v 26.043163 -22.620047 -28.568920
v 27.895704 -22.620047 -28.568920
v 29.607222 -22.620047 -27.859982
v 30.917158 -22.620047 -26.550026
v 31.626091 -22.620047 -24.838501
v 31.923971 -23.080069 -23.912239
v 31.546837 -23.080067 -22.016239
v 30.472824 -23.080067 -20.408844
v 28.865450 -23.080067 -19.334854
v 26.969435 -23.080067 -18.957714
v 25.073420 -23.080067 -19.334854
v 23.466047 -23.080067 -20.408844
v 22.392040 -23.080067 -22.016239
v 22.014896 -23.080069 -23.912239
v 22.392040 -23.080069 -25.808285
v 23.466047 -23.080069 -27.415619
v 25.073420 -23.080069 -28.489624
v 26.969435 -23.080069 -28.866798
v 28.865458 -23.080069 -28.489624
v 30.472824 -23.080069 -27.415619
v 31.546837 -23.080069 -25.808285
v 31.923738 -19.205626 -23.912239
v 38.104042 -15.944660 -21.697521
v 36.605759 -16.936985 -19.920990
v 36.413582 -15.937706 -17.602165
v 34.356159 -16.924023 -16.526104
v 33.286186 -15.923653 -14.459164
v 30.978022 -16.901365 -14.236031
v 29.191158 -15.902489 -12.744953
v 26.970003 -16.868004 -13.397770
v 24.744240 -15.875031 -12.723358
v 22.925735 -16.824287 -14.148460
v 20.618065 -15.844118 -14.406116
v 19.454309 -16.774979 -16.396526
v 17.444719 -15.815657 -17.547749
v 17.102337 -16.732765 -19.824905
v 15.720344 -15.798079 -21.674587
v 16.268202 -16.715595 -23.912239
v 15.720346 -15.798082 -26.149906
v 17.102318 -16.732759 -27.999592
v 17.444723 -15.815699 -30.276745
v 19.454308 -16.774990 -31.427952
v 20.618063 -15.844145 -33.418377
v 22.925730 -16.824297 -33.676003
v 24.744238 -15.875065 -35.101131
v 26.970003 -16.868021 -34.426723
v 29.191158 -15.902512 -35.079540
v 30.978029 -16.901375 -33.588463
v 33.286182 -15.923679 -33.365318
v 34.356159 -16.924032 -31.298409
v 36.413574 -15.937740 -30.222328
v 36.605770 -16.936983 -27.903519
v 38.104046 -15.944662 -26.126976
v 39.076256 -14.768248 -23.912239
v 39.823303 -11.888311 -21.355595
v 38.901039 -12.738205 -18.970299
v 37.866516 -11.888313 -16.631508
v 36.101822 -12.738194 -14.780544
v 34.250854 -11.888309 -13.015831
v 31.912300 -12.738195 -11.980709
v 29.526762 -11.888309 -11.059025
v 26.970104 -12.738199 -10.997147
v 24.413445 -11.888309 -11.059025
v 22.027523 -12.738184 -11.979771
v 19.689348 -11.888309 -13.015816
v 17.837076 -12.738176 -14.779205
v 16.073681 -11.888313 -16.631489
v 15.036938 -12.738182 -18.969372
v 14.116890 -11.888311 -21.355595
v 14.053620 -12.738176 -23.912239
v 14.116888 -11.888304 -26.468918
v 15.036937 -12.738201 -28.855152
v 16.073677 -11.888317 -31.193024
v 17.837067 -12.738205 -33.045277
v 19.689341 -11.888313 -34.808662
v 22.027515 -12.738205 -35.844707
v 24.413443 -11.888313 -36.765438
v 26.970104 -12.738214 -36.827316
v 29.526762 -11.888313 -36.765438
v 31.912304 -12.738214 -35.843769
v 34.250854 -11.888313 -34.808662
v 36.101826 -12.738224 -33.043949
v 37.866524 -11.888317 -31.192989
v 38.901035 -12.738230 -28.854198
v 39.823307 -11.888304 -26.468918
v 18.381365 -14.691936 -15.323608
v 22.325480 -14.709970 -12.699375
v 26.969994 -14.728752 -11.785362
v 31.607437 -14.745312 -12.716457
v 35.534241 -14.757879 -15.348022
v 38.155987 -14.765636 -19.278877
v 39.883965 -12.738205 -23.912239
v 38.155987 -14.765652 -28.545635
v 35.534233 -14.757904 -32.476486
v 31.607439 -14.745331 -35.108006
v 26.969994 -14.728773 -36.039116
v 22.325474 -14.709988 -35.125103
v 18.381357 -14.691954 -32.500874
v 15.741949 -14.678644 -28.563049
v 14.814242 -14.673683 -23.912239
v 15.741949 -14.678625 -19.261433
v 39.359886 -13.662701 -21.447742
v 37.474728 -13.658819 -16.893261
v 33.990444 -13.651327 -13.405521
v 29.435976 -13.640865 -11.515297
v 24.503366 -13.628553 -11.511341
v 19.943308 -13.616144 -13.395939
v 16.451075 -13.605902 -16.883675
v 14.560269 -13.600069 -21.443790
v 14.560269 -13.600071 -26.380722
v 16.451073 -13.605942 -30.940807
v 19.943304 -13.616192 -34.428524
v 24.503361 -13.628597 -36.313152
v 29.435976 -13.640907 -36.309181
v 33.990440 -13.651379 -34.419003
v 37.474720 -13.658871 -30.931252
v 39.359890 -13.662704 -26.376732
v 21.078226 -18.356865 -18.020786
v 23.781244 -18.356863 -16.214703
v 26.969683 -18.356865 -15.580467
v 30.158102 -18.356857 -16.214722
v 32.861103 -18.356863 -18.020832
v 34.667168 -18.356863 -20.723846
v 37.394501 -16.941195 -23.912239
v 34.667179 -18.356865 -27.100666
v 32.861103 -18.356876 -29.803661
v 30.158096 -18.356876 -31.609760
v 26.969683 -18.356876 -32.243980
v 23.781254 -18.356876 -31.609791
v 21.078232 -18.356876 -29.803677
v 19.272144 -18.356876 -27.100681
v 18.637926 -18.356884 -23.912239
v 19.272118 -18.356865 -20.723816
v 36.281658 -17.688990 -22.060001
v 34.864021 -17.688990 -18.637543
v 32.244572 -17.688999 -16.018082
v 28.822092 -17.688999 -14.600445
v 25.117624 -17.689014 -14.600445
v 21.695147 -17.689014 -16.018082
v 19.075687 -17.689018 -18.637543
v 17.658047 -17.689018 -22.060001
v 17.658047 -17.689018 -25.764492
v 19.075691 -17.689035 -29.186954
v 21.695145 -17.689032 -31.806416
v 25.117624 -17.689032 -33.224037
v 28.822092 -17.689009 -33.224068
v 32.244572 -17.689009 -31.806416
v 34.875443 -17.689001 -29.173027
v 36.281662 -17.688992 -25.764477
v 35.301380 -18.356865 -23.912239
v 31.626091 -21.052486 -22.985977
v 30.917158 -21.052485 -21.274452
v 29.607222 -21.052485 -19.964527
v 27.895704 -21.052485 -19.255592
v 26.043163 -21.052485 -19.255592
v 24.331648 -21.052485 -19.964527
v 23.021709 -21.052485 -21.274452
v 22.312777 -21.052486 -22.985977
v 22.312777 -21.052486 -24.838501
v 23.021709 -21.052486 -26.550026
v 24.331648 -21.052486 -27.859982
v 26.043163 -21.052486 -28.568920
v 27.895704 -21.052486 -28.568920
v 29.607222 -21.052486 -27.859982
v 30.917158 -21.052486 -26.550026
v 31.626091 -21.052486 -24.838501
v 32.817478 -23.080069 -23.912239
v 32.372326 -23.080067 -21.674301
v 31.104630 -23.080067 -19.777077
v 29.207397 -23.080067 -18.509369
v 26.969452 -23.080067 -18.064209
v 24.731506 -23.080067 -18.509369
v 22.834269 -23.080067 -19.777077
v 21.566574 -23.080067 -21.674301
v 21.121420 -23.080069 -23.912239
v 21.566572 -23.080069 -26.150177
v 22.834265 -23.080069 -28.047432
v 24.731506 -23.080069 -29.315125
v 26.969452 -23.080069 -29.760281
v 29.207397 -23.080069 -29.315125
v 31.104631 -23.080069 -28.047432
v 32.372326 -23.080069 -26.150177
v 34.196491 -23.080069 -23.912239
v 33.646374 -23.080067 -21.146599
v 32.079746 -23.080067 -18.801964
v 29.735126 -23.080067 -17.235344
v 26.969463 -23.080067 -16.685234
v 24.203794 -23.080067 -17.235344
v 21.859180 -23.080067 -18.801964
v 20.292566 -23.080067 -21.146599
v 19.742434 -23.080069 -23.912239
v 20.292566 -23.080069 -26.677898
v 21.859180 -23.080069 -29.022526
v 24.203794 -23.080069 -30.589149
v 26.969463 -23.080069 -31.139278
v 29.735126 -23.080069 -30.589149
v 32.079746 -23.080069 -29.022526
v 33.646374 -23.080069 -26.677898
v 23.466238 -19.205624 -20.409031
v 25.073524 -19.205624 -19.335094
v 26.969452 -19.205624 -18.957954
v 28.865372 -19.205624 -19.335094
v 30.472660 -19.205624 -20.409031
v 31.546612 -19.205624 -22.016338
v 31.546610 -19.205626 -25.808174
v 30.472652 -19.205626 -27.415443
v 28.865372 -19.205626 -28.489418
v 26.969452 -19.205620 -28.866539
v 25.073523 -19.205626 -28.489418
v 23.466236 -19.205626 -27.415443
v 22.392279 -19.205626 -25.808174
v 22.015152 -19.205626 -23.912239
v 22.392279 -19.205624 -22.016338
v 33.834740 -18.860920 -22.546673
v 32.789577 -18.860920 -20.023426
v 30.858364 -18.860922 -18.092201
v 28.335115 -18.860922 -17.047047
v 25.603968 -18.860937 -17.047047
v 23.080721 -18.860937 -18.092201
v 21.149490 -18.860931 -20.023407
v 20.104319 -18.860931 -22.546673
v 20.104307 -18.860933 -25.277821
v 21.149469 -18.860933 -27.801098
v 23.080713 -18.860941 -29.732296
v 25.603970 -18.860945 -30.777416
v 28.335115 -18.860933 -30.777451
v 30.858360 -18.860933 -29.732296
v 32.789581 -18.860924 -27.801071
v 33.834740 -18.860920 -25.277821
v 31.718214 -19.362825 -23.912239
v 31.356741 -19.362823 -22.094963
v 30.327326 -19.362823 -20.554352
v 28.786715 -19.362823 -19.524940
v 26.969435 -19.362823 -19.163460
v 25.152155 -19.362823 -19.524940
v 23.611544 -19.362823 -20.554352
v 22.582134 -19.362823 -22.094963
v 22.220654 -19.362825 -23.912239
v 22.582132 -19.362825 -25.729515
v 23.611542 -19.362825 -27.270145
v 25.152155 -19.362825 -28.299557
v 26.969435 -19.362825 -28.661018
v 28.786716 -19.362825 -28.299557
v 30.327326 -19.362825 -27.270145
v 31.356741 -19.362825 -25.729515
v 31.626091 -19.629349 -22.985977
v 30.917158 -19.629347 -21.274452
v 29.607222 -19.629347 -19.964527
v 27.895704 -19.629347 -19.255592
v 26.043163 -19.629347 -19.255592
v 24.331648 -19.629347 -19.964527
v 23.021709 -19.629347 -21.274452
v 22.312777 -19.629349 -22.985977
v 22.312777 -19.629349 -24.838501
v 23.021709 -19.629349 -26.550026
v 24.331642 -19.629349 -27.859962
v 26.043163 -19.629349 -28.568920
v 27.895704 -19.629349 -28.568920
v 29.607222 -19.629349 -27.859982
v 30.917158 -19.629349 -26.550026
v 31.626091 -19.629349 -24.838501
v 31.192892 -19.066359 -28.135677
v 30.287167 -19.066368 -28.877514
v 29.255177 -19.066360 -29.430401
v 28.134504 -19.066368 -29.769150
v 26.969492 -19.066359 -29.885029
v 25.804474 -19.066372 -29.769150
v 24.683802 -19.066372 -29.430367
v 23.651808 -19.066372 -28.877514
v 22.746084 -19.066359 -28.135643
v 22.004225 -19.066359 -27.229923
v 21.451338 -19.066359 -26.197929
v 21.112562 -19.066360 -25.077255
v 20.996695 -19.066359 -23.912239
v 21.112572 -19.066359 -22.747234
v 21.451353 -19.066357 -21.626568
v 22.004240 -19.066357 -20.594559
v 22.746098 -19.066357 -19.688850
v 23.651825 -19.066357 -18.946999
v 24.683804 -19.066357 -18.394112
v 25.804485 -19.066357 -18.055347
v 26.969492 -19.066351 -17.939449
v 28.134504 -19.066351 -18.055328
v 29.255171 -19.066351 -18.394112
v 30.287167 -19.066351 -18.946999
v 31.192890 -19.066343 -19.688850
v 31.934748 -19.066359 -20.594559
v 32.487625 -19.066357 -21.626568
v 32.826408 -19.066357 -22.747234
v 32.942280 -19.066360 -23.912239
v 32.826397 -19.066345 -25.077255
v 32.487625 -19.066345 -26.197929
v 31.934748 -19.066360 -27.229923
vn -0.0000 1.0000 -0.0000
vn 0.5497 0.8037 0.2277
vn 0.5839 0.8034 0.1162
vn 0.9532 0.2354 0.1896
vn 0.8979 0.2355 0.3719
vn 0.5950 0.8037 -0.0000
vn 0.9719 0.2355 -0.0000
vn 1.0000 -0.0000 -0.0000
vn 0.9808 -0.0000 0.1951
vn 0.9239 -0.0000 0.3827
vn 0.4207 0.8037 0.4207
vn 0.4951 0.8034 0.3308
vn 0.8081 0.2354 0.5400
vn 0.6872 0.2355 0.6872
vn 0.8315 -0.0000 0.5556
vn 0.7071 -0.0000 0.7071
vn 0.2277 0.8037 0.5497
vn 0.3308 0.8034 0.4951
vn 0.5400 0.2354 0.8081
vn 0.3719 0.2355 0.8979
vn 0.5556 -0.0000 0.8315
vn 0.3827 -0.0000 0.9239
vn -0.0000 0.8037 0.5950
vn 0.1162 0.8034 0.5840
vn 0.1896 0.2354 0.9532
vn -0.0000 0.2355 0.9719
vn 0.1951 -0.0000 0.9808
vn -0.0000 -0.0000 1.0000
vn -0.2277 0.8037 0.5497
vn -0.1162 0.8034 0.5840
vn -0.1896 0.2354 0.9532
vn -0.3719 0.2355 0.8979
vn -0.1951 -0.0000 0.9808
vn -0.3827 -0.0000 0.9239
vn -0.4207 0.8037 0.4207
vn -0.3308 0.8034 0.4950
vn -0.5400 0.2354 0.8081
vn -0.6872 0.2355 0.6872
vn -0.5556 -0.0000 0.8315
vn -0.7071 -0.0000 0.7071
vn -0.5497 0.8037 0.2277
vn -0.4951 0.8034 0.3308
vn -0.8081 0.2354 0.5400
vn -0.8979 0.2355 0.3719
vn -0.8315 -0.0000 0.5556
vn -0.9239 -0.0000 0.3827
vn -0.5950 0.8037 -0.0000
vn -0.5839 0.8034 0.1162
vn -0.9532 0.2354 0.1896
vn -0.9719 0.2355 -0.0000
vn -0.9808 -0.0000 0.1951
vn -1.0000 -0.0000 -0.0000
vn -0.5497 0.8037 -0.2277
vn -0.5839 0.8034 -0.1162
vn -0.9532 0.2354 -0.1896
vn -0.8979 0.2355 -0.3719
vn -0.9808 -0.0000 -0.1951
vn -0.9239 -0.0000 -0.3827
vn -0.4207 0.8037 -0.4207
vn -0.4950 0.8035 -0.3308
vn -0.8081 0.2354 -0.5400
vn -0.6872 0.2355 -0.6872
vn -0.8315 -0.0000 -0.5556
vn -0.7071 -0.0000 -0.7071
vn -0.2277 0.8037 -0.5497
vn -0.3308 0.8034 -0.4951
vn -0.5400 0.2354 -0.8081
vn -0.3719 0.2355 -0.8979
vn -0.5556 -0.0000 -0.8315
vn -0.3827 -0.0000 -0.9239
vn -0.0000 0.8037 -0.5950
vn -0.1162 0.8034 -0.5840
vn -0.1896 0.2354 -0.9532
vn -0.0000 0.2355 -0.9719
vn -0.1951 -0.0000 -0.9808
vn -0.0000 -0.0000 -1.0000
vn 0.2277 0.8037 -0.5497
vn 0.1162 0.8034 -0.5839
vn 0.1896 0.2354 -0.9532
vn 0.3719 0.2355 -0.8979
vn 0.1951 -0.0000 -0.9808
vn 0.3827 -0.0000 -0.9239
vn 0.4207 0.8037 -0.4207
vn 0.3308 0.8034 -0.4951
vn 0.5400 0.2354 -0.8081
vn 0.6872 0.2355 -0.6872
vn 0.5556 -0.0000 -0.8315
vn 0.7071 -0.0000 -0.7071
vn 0.5497 0.8038 -0.2277
vn 0.4950 0.8035 -0.3308
vn 0.8081 0.2354 -0.5400
vn 0.8979 0.2355 -0.3719
vn 0.8315 -0.0000 -0.5556
vn 0.9239 -0.0000 -0.3827
vn 0.5839 0.8035 -0.1162
vn 0.9532 0.2354 -0.1896
vn 0.9808 -0.0000 -0.1951
vn 0.0993 0.9949 0.0197
vn 0.1011 0.9949 -0.0000
vn 0.0934 0.9949 0.0387
vn 0.0842 0.9949 0.0562
vn 0.0715 0.9949 0.0715
vn 0.0562 0.9949 0.0842
vn 0.0387 0.9949 0.0934
vn 0.0197 0.9949 0.0993
vn -0.0000 0.9949 0.1011
vn -0.0197 0.9949 0.0993
vn -0.0387 0.9949 0.0934
vn -0.0562 0.9949 0.0842
vn -0.0715 0.9949 0.0715
vn -0.0842 0.9949 0.0562
vn -0.0934 0.9949 0.0387
vn -0.0993 0.9949 0.0197
vn -0.1011 0.9949 -0.0000
vn -0.0993 0.9949 -0.0197
vn -0.0934 0.9949 -0.0387
vn -0.0842 0.9949 -0.0562
vn -0.0715 0.9949 -0.0715
vn -0.0562 0.9949 -0.0842
vn -0.0387 0.9949 -0.0934
vn -0.0197 0.9949 -0.0993
vn -0.0000 0.9949 -0.1011
vn 0.0197 0.9949 -0.0993
vn 0.0387 0.9949 -0.0934
vn 0.0562 0.9949 -0.0842
vn 0.0715 0.9949 -0.0715
vn 0.0842 0.9949 -0.0562
vn 0.0934 0.9949 -0.0387
vn 0.0993 0.9949 -0.0197
vn 0.7923 -0.6102 -0.0000
vn 0.7772 -0.6100 0.1546
vn 0.6703 -0.7301 0.1333
vn 0.6833 -0.7302 -0.0000
vn 0.5243 -0.8234 0.2172
vn 0.5566 -0.8234 0.1107
vn 0.6316 -0.7298 0.2616
vn 0.5675 -0.8234 -0.0000
vn 0.4013 -0.8234 0.4013
vn 0.4719 -0.8234 0.3153
vn 0.5689 -0.7294 0.3800
vn 0.4843 -0.7288 0.4841
vn 0.2172 -0.8233 0.5244
vn 0.3153 -0.8233 0.4719
vn 0.3811 -0.7280 0.5700
vn 0.2630 -0.7270 0.6343
vn -0.0000 -0.8232 0.5677
vn 0.1107 -0.8233 0.5568
vn 0.1345 -0.7257 0.6747
vn 0.0004 -0.7243 0.6895
vn -0.2173 -0.8232 0.5246
vn -0.1108 -0.8232 0.5569
vn -0.1344 -0.7225 0.6782
vn -0.2648 -0.7206 0.6408
vn -0.4016 -0.8231 0.4016
vn -0.3155 -0.8231 0.4722
vn -0.3859 -0.7185 0.5787
vn -0.4929 -0.7164 0.4938
vn -0.5248 -0.8230 0.2174
vn -0.4723 -0.8230 0.3155
vn -0.5816 -0.7143 0.3893
vn -0.6481 -0.7125 0.2690
vn -0.5681 -0.8230 -0.0000
vn -0.5571 -0.8230 0.1108
vn -0.6893 -0.7113 0.1374
vn -0.7033 -0.7109 -0.0000
vn -0.5248 -0.8230 -0.2174
vn -0.5571 -0.8230 -0.1108
vn -0.6893 -0.7113 -0.1374
vn -0.6481 -0.7125 -0.2690
vn -0.4016 -0.8231 -0.4016
vn -0.4723 -0.8230 -0.3155
vn -0.5816 -0.7143 -0.3893
vn -0.4929 -0.7164 -0.4938
vn -0.2173 -0.8231 -0.5246
vn -0.3155 -0.8231 -0.4722
vn -0.3859 -0.7185 -0.5787
vn -0.2648 -0.7206 -0.6408
vn -0.0000 -0.8232 -0.5677
vn -0.1108 -0.8232 -0.5569
vn -0.1344 -0.7225 -0.6781
vn 0.0004 -0.7243 -0.6895
vn 0.2172 -0.8233 -0.5244
vn 0.1107 -0.8233 -0.5568
vn 0.1345 -0.7257 -0.6747
vn 0.2630 -0.7270 -0.6343
vn 0.3151 -0.8233 -0.4721
vn 0.3811 -0.7278 -0.5702
vn 0.4724 -0.8233 -0.3147
vn 0.4008 -0.8233 -0.4019
vn 0.4845 -0.7286 -0.4841
vn 0.5689 -0.7292 -0.3802
vn 0.7772 -0.6100 -0.1545
vn 0.6703 -0.7301 -0.1333
vn 0.5566 -0.8234 -0.1107
vn 0.5244 -0.8234 -0.2169
vn 0.6318 -0.7297 -0.2615
vn 0.8749 -0.4843 -0.0000
vn 0.8581 -0.4842 0.1707
vn 0.9331 -0.3596 -0.0000
vn 0.9152 -0.3596 0.1820
vn 0.8621 -0.3595 0.3571
vn 0.8085 -0.4840 0.3349
vn 0.7324 -0.6096 0.3033
vn 0.7759 -0.3593 0.5185
vn 0.7278 -0.4835 0.4863
vn -0.8151 -0.4707 0.3377
vn -0.8635 -0.3555 0.3577
vn -0.9168 -0.3553 0.1824
vn -0.8657 -0.4700 0.1722
vn -0.9348 -0.3553 -0.0000
vn -0.8827 -0.4698 -0.0000
vn -0.8140 -0.5808 -0.0000
vn -0.7980 -0.5814 0.1590
vn -0.8657 -0.4700 -0.1722
vn -0.7980 -0.5814 -0.1590
vn -0.9168 -0.3553 -0.1824
vn -0.8635 -0.3555 -0.3577
vn -0.8151 -0.4707 -0.3377
vn 0.8621 -0.3595 -0.3571
vn 0.8085 -0.4840 -0.3349
vn 0.7278 -0.4835 -0.4863
vn 0.7759 -0.3593 -0.5185
vn 0.7324 -0.6096 -0.3033
vn 0.8582 -0.4842 -0.1707
vn 0.9152 -0.3596 -0.1820
vn 0.9669 -0.2551 -0.0000
vn 0.9483 -0.2551 0.1886
vn 0.9750 -0.2221 -0.0000
vn 0.9563 -0.2220 0.1902
vn 0.9008 -0.2220 0.3731
vn 0.8933 -0.2551 0.3700
vn 0.8040 -0.2550 0.5372
vn 0.8108 -0.2219 0.5417
vn 0.6895 -0.2217 0.6895
vn 0.6838 -0.2550 0.6837
vn 0.6599 -0.3591 0.6599
vn 0.5373 -0.2549 0.8040
vn 0.5186 -0.3589 0.7761
vn 0.5418 -0.2215 0.8108
vn 0.3732 -0.2213 0.9010
vn 0.3701 -0.2548 0.8934
vn 0.3572 -0.3586 0.8624
vn 0.1887 -0.2547 0.9484
vn 0.1821 -0.3582 0.9157
vn 0.1903 -0.2210 0.9565
vn -0.0000 -0.2208 0.9753
vn 0.0001 -0.2546 0.9670
vn -0.0000 -0.3578 0.9338
vn -0.1886 -0.2545 0.9485
vn -0.1822 -0.3573 0.9160
vn -0.1902 -0.2205 0.9567
vn -0.3732 -0.2202 0.9012
vn -0.3700 -0.2545 0.8935
vn -0.3575 -0.3569 0.8630
vn -0.5373 -0.2543 0.8042
vn -0.5191 -0.3565 0.7768
vn -0.5419 -0.2199 0.8111
vn -0.6898 -0.2197 0.6898
vn -0.6838 -0.2543 0.6839
vn -0.6608 -0.3561 0.6607
vn -0.8041 -0.2542 0.5373
vn -0.7771 -0.3557 0.5192
vn -0.8112 -0.2195 0.5420
vn -0.9014 -0.2194 0.3734
vn -0.8935 -0.2543 0.3701
vn -0.9486 -0.2542 0.1887
vn -0.9569 -0.2193 0.1904
vn -0.9757 -0.2193 -0.0000
vn -0.9671 -0.2542 -0.0000
vn -0.9486 -0.2542 -0.1887
vn -0.9569 -0.2193 -0.1904
vn -0.9014 -0.2194 -0.3734
vn -0.8935 -0.2543 -0.3701
vn -0.8041 -0.2542 -0.5373
vn -0.7771 -0.3557 -0.5192
vn -0.8112 -0.2195 -0.5420
vn -0.6898 -0.2197 -0.6898
vn -0.6838 -0.2543 -0.6839
vn -0.6608 -0.3561 -0.6607
vn -0.5373 -0.2543 -0.8042
vn -0.5191 -0.3565 -0.7768
vn -0.5419 -0.2199 -0.8111
vn -0.3732 -0.2202 -0.9012
vn -0.3700 -0.2544 -0.8935
vn -0.3575 -0.3569 -0.8630
vn -0.1886 -0.2545 -0.9485
vn -0.1822 -0.3573 -0.9160
vn -0.1902 -0.2205 -0.9567
vn -0.0000 -0.2208 -0.9753
vn 0.0001 -0.2546 -0.9670
vn -0.0000 -0.3578 -0.9338
vn 0.1887 -0.2547 -0.9484
vn 0.1821 -0.3582 -0.9157
vn 0.1903 -0.2210 -0.9565
vn 0.3732 -0.2213 -0.9010
vn 0.3701 -0.2548 -0.8934
vn 0.3572 -0.3586 -0.8624
vn 0.5373 -0.2549 -0.8040
vn 0.5186 -0.3589 -0.7761
vn 0.5418 -0.2215 -0.8108
vn 0.6895 -0.2217 -0.6895
vn 0.6838 -0.2550 -0.6837
vn 0.6599 -0.3591 -0.6599
vn 0.8040 -0.2550 -0.5372
vn 0.8108 -0.2218 -0.5417
vn 0.9008 -0.2220 -0.3731
vn 0.8933 -0.2551 -0.3700
vn 0.9483 -0.2551 -0.1886
vn 0.9563 -0.2220 -0.1902
vn 0.3984 -0.9022 0.1650
vn 0.4230 -0.9022 0.0841
vn 0.2594 -0.9598 0.1075
vn 0.2753 -0.9598 0.0548
vn 0.2808 -0.9598 -0.0000
vn 0.4313 -0.9022 -0.0000
vn 0.3050 -0.9022 0.3050
vn 0.3586 -0.9022 0.2396
vn 0.1985 -0.9598 0.1985
vn 0.2334 -0.9598 0.1560
vn 0.1650 -0.9022 0.3985
vn 0.2396 -0.9022 0.3586
vn 0.1075 -0.9598 0.2594
vn 0.1560 -0.9598 0.2334
vn -0.0000 -0.9022 0.4313
vn 0.0841 -0.9022 0.4230
vn -0.0000 -0.9598 0.2808
vn 0.0548 -0.9598 0.2753
vn -0.1651 -0.9022 0.3985
vn -0.0841 -0.9022 0.4230
vn -0.1075 -0.9598 0.2594
vn -0.0548 -0.9598 0.2754
vn -0.3050 -0.9022 0.3050
vn -0.2396 -0.9022 0.3586
vn -0.1986 -0.9598 0.1986
vn -0.1560 -0.9598 0.2334
vn -0.3985 -0.9022 0.1651
vn -0.3586 -0.9022 0.2396
vn -0.2594 -0.9598 0.1075
vn -0.2334 -0.9598 0.1560
vn -0.4314 -0.9022 -0.0000
vn -0.4231 -0.9022 0.0842
vn -0.2808 -0.9598 -0.0000
vn -0.2754 -0.9598 0.0548
vn -0.3985 -0.9022 -0.1651
vn -0.4231 -0.9022 -0.0842
vn -0.2594 -0.9598 -0.1075
vn -0.2754 -0.9598 -0.0548
vn -0.3050 -0.9022 -0.3050
vn -0.3586 -0.9022 -0.2396
vn -0.1986 -0.9598 -0.1986
vn -0.2334 -0.9598 -0.1560
vn -0.1651 -0.9022 -0.3985
vn -0.2396 -0.9022 -0.3586
vn -0.1075 -0.9598 -0.2594
vn -0.1560 -0.9598 -0.2334
vn -0.0000 -0.9022 -0.4313
vn -0.0841 -0.9022 -0.4230
vn -0.0000 -0.9598 -0.2808
vn -0.0548 -0.9598 -0.2754
vn 0.1650 -0.9022 -0.3985
vn 0.0841 -0.9022 -0.4230
vn 0.1075 -0.9598 -0.2594
vn 0.0548 -0.9598 -0.2754
vn 0.3049 -0.9023 -0.3048
vn 0.1985 -0.9598 -0.1985
vn 0.1560 -0.9598 -0.2334
vn 0.2394 -0.9023 -0.3586
vn 0.3984 -0.9023 -0.1648
vn 0.2594 -0.9598 -0.1074
vn 0.2334 -0.9598 -0.1560
vn 0.3584 -0.9023 -0.2396
vn 0.4230 -0.9022 -0.0841
vn 0.2753 -0.9598 -0.0548
vn 0.1549 -0.9858 0.0642
vn 0.1644 -0.9858 0.0327
vn 0.2506 -0.9625 0.1038
vn 0.6080 -0.7529 0.2519
vn 0.6458 -0.7527 0.1284
vn 0.2663 -0.9624 0.0530
vn 0.6581 -0.7529 -0.0000
vn 0.2713 -0.9625 -0.0000
vn 0.1677 -0.9858 -0.0000
vn 0.1185 -0.9858 0.1185
vn 0.1394 -0.9858 0.0931
vn 0.1918 -0.9625 0.1918
vn 0.4654 -0.7529 0.4654
vn 0.5474 -0.7527 0.3658
vn 0.2257 -0.9624 0.1508
vn 0.0642 -0.9858 0.1549
vn 0.0931 -0.9858 0.1394
vn 0.1038 -0.9625 0.2507
vn 0.2519 -0.7529 0.6081
vn 0.3658 -0.7527 0.5474
vn 0.1509 -0.9624 0.2258
vn -0.0000 -0.9858 0.1677
vn 0.0327 -0.9858 0.1644
vn -0.0000 -0.9625 0.2713
vn -0.0000 -0.7529 0.6581
vn 0.1284 -0.7527 0.6458
vn 0.0530 -0.9624 0.2663
vn -0.0642 -0.9858 0.1549
vn -0.0327 -0.9858 0.1644
vn -0.1038 -0.9625 0.2507
vn -0.2519 -0.7529 0.6081
vn -0.1285 -0.7527 0.6458
vn -0.0530 -0.9624 0.2663
vn -0.1186 -0.9858 0.1186
vn -0.0931 -0.9858 0.1394
vn -0.1918 -0.9625 0.1919
vn -0.4654 -0.7529 0.4654
vn -0.3658 -0.7527 0.5475
vn -0.1509 -0.9624 0.2258
vn -0.1549 -0.9858 0.0642
vn -0.1394 -0.9858 0.0931
vn -0.2507 -0.9625 0.1038
vn -0.6081 -0.7529 0.2519
vn -0.5475 -0.7526 0.3658
vn -0.2258 -0.9624 0.1509
vn -0.1677 -0.9858 -0.0000
vn -0.1644 -0.9858 0.0327
vn -0.2713 -0.9625 -0.0000
vn -0.6582 -0.7529 -0.0000
vn -0.6458 -0.7526 0.1285
vn -0.2663 -0.9624 0.0530
vn -0.1549 -0.9858 -0.0642
vn -0.1644 -0.9858 -0.0327
vn -0.2507 -0.9625 -0.1038
vn -0.6080 -0.7529 -0.2519
vn -0.6458 -0.7527 -0.1285
vn -0.2663 -0.9624 -0.0530
vn -0.1186 -0.9858 -0.1185
vn -0.1394 -0.9858 -0.0931
vn -0.1919 -0.9625 -0.1919
vn -0.4654 -0.7529 -0.4654
vn -0.5474 -0.7527 -0.3658
vn -0.2258 -0.9624 -0.1509
vn -0.0642 -0.9858 -0.1549
vn -0.0931 -0.9858 -0.1394
vn -0.1038 -0.9625 -0.2506
vn -0.2519 -0.7529 -0.6081
vn -0.3658 -0.7526 -0.5475
vn -0.1508 -0.9624 -0.2258
vn -0.0000 -0.9858 -0.1676
vn -0.0327 -0.9858 -0.1644
vn -0.0000 -0.9625 -0.2713
vn -0.0000 -0.7529 -0.6581
vn -0.1285 -0.7526 -0.6458
vn -0.0530 -0.9624 -0.2663
vn 0.0642 -0.9858 -0.1549
vn 0.0327 -0.9858 -0.1644
vn 0.1038 -0.9625 -0.2506
vn 0.2519 -0.7529 -0.6081
vn 0.1284 -0.7526 -0.6458
vn 0.0530 -0.9624 -0.2663
vn 0.1185 -0.9858 -0.1185
vn 0.0931 -0.9858 -0.1394
vn 0.1918 -0.9625 -0.1918
vn 0.4654 -0.7529 -0.4654
vn 0.3658 -0.7526 -0.5475
vn 0.1508 -0.9624 -0.2257
vn 0.1549 -0.9858 -0.0642
vn 0.1394 -0.9858 -0.0931
vn 0.2507 -0.9625 -0.1038
vn 0.6080 -0.7529 -0.2518
vn 0.5474 -0.7527 -0.3658
vn 0.2257 -0.9624 -0.1508
vn 0.1644 -0.9858 -0.0327
vn 0.6457 -0.7527 -0.1284
vn 0.2663 -0.9624 -0.0530
vn 0.9629 -0.2698 -0.0000
vn 0.9445 -0.2697 0.1879
vn 0.8896 -0.2698 0.3685
vn 0.8007 -0.2697 0.5350
vn 0.6809 -0.2698 0.6809
vn 0.5350 -0.2697 0.8007
vn 0.3685 -0.2698 0.8896
vn 0.1879 -0.2697 0.9444
vn -0.0000 -0.2698 0.9629
vn -0.1879 -0.2697 0.9444
vn -0.3685 -0.2698 0.8896
vn -0.5350 -0.2697 0.8007
vn -0.6809 -0.2698 0.6809
vn -0.8007 -0.2697 0.5350
vn -0.8896 -0.2698 0.3685
vn -0.9444 -0.2697 0.1879
vn -0.9629 -0.2698 -0.0000
vn -0.9444 -0.2697 -0.1879
vn -0.8896 -0.2698 -0.3685
vn -0.8007 -0.2697 -0.5350
vn -0.6809 -0.2698 -0.6809
vn -0.5350 -0.2697 -0.8007
vn -0.3685 -0.2698 -0.8896
vn -0.1879 -0.2696 -0.9445
vn -0.0000 -0.2698 -0.9629
vn 0.1879 -0.2696 -0.9445
vn 0.3685 -0.2698 -0.8896
vn 0.5350 -0.2696 -0.8007
vn 0.6809 -0.2698 -0.6809
vn 0.8007 -0.2697 -0.5350
vn 0.8896 -0.2699 -0.3685
vn 0.9444 -0.2697 -0.1878
vn 0.6596 -0.6089 0.4406
vn 0.5616 -0.6079 0.5613
vn 0.4419 -0.6065 0.6609
vn 0.3050 -0.6049 0.7356
vn 0.1560 -0.6029 0.7824
vn 0.0005 -0.6005 0.7996
vn -0.1558 -0.5978 0.7863
vn -0.3070 -0.5949 0.7429
vn -0.4473 -0.5917 0.6707
vn -0.5712 -0.5885 0.5722
vn -0.6737 -0.5855 0.4510
vn -0.7504 -0.5830 0.3114
vn -0.7504 -0.5830 -0.3114
vn -0.6737 -0.5855 -0.4510
vn -0.5712 -0.5885 -0.5722
vn -0.4473 -0.5917 -0.6707
vn -0.3070 -0.5949 -0.7429
vn -0.1558 -0.5978 -0.7863
vn 0.0005 -0.6005 -0.7996
vn 0.1560 -0.6029 -0.7824
vn 0.3050 -0.6049 -0.7356
vn 0.4419 -0.6065 -0.6609
vn 0.5616 -0.6079 -0.5613
vn 0.6596 -0.6089 -0.4406
vn 0.6192 -0.4829 0.6192
vn 0.4868 -0.4821 0.7285
vn 0.3355 -0.4811 0.8099
vn 0.1712 -0.4800 0.8604
vn 0.0001 -0.4787 0.8780
vn -0.1714 -0.4773 0.8619
vn -0.3365 -0.4759 0.8126
vn -0.4890 -0.4743 0.7320
vn -0.6229 -0.4730 0.6231
vn -0.7331 -0.4717 0.4900
vn -0.7331 -0.4717 -0.4900
vn -0.6229 -0.4730 -0.6231
vn -0.4890 -0.4743 -0.7320
vn -0.3365 -0.4759 -0.8126
vn -0.1714 -0.4773 -0.8619
vn 0.0001 -0.4787 -0.8780
vn 0.1712 -0.4800 -0.8604
vn 0.3355 -0.4811 -0.8099
vn 0.4868 -0.4821 -0.7285
vn 0.6192 -0.4829 -0.6192
vt 0.699886 0.329130
vt 0.699417 0.324374
vt 0.703993 0.323467
vt 0.704532 0.329130
vt 0.698051 0.319808
vt 0.702348 0.318023
vt 0.695808 0.315590
vt 0.699666 0.313018
vt 0.692777 0.311891
vt 0.696097 0.308611
vt 0.689108 0.308881
vt 0.691700 0.305012
vt 0.684900 0.306607
vt 0.686685 0.302320
vt 0.680334 0.305231
vt 0.681241 0.300665
vt 0.675578 0.304753
vt 0.675578 0.300107
vt 0.670842 0.305221
vt 0.669925 0.300655
vt 0.666266 0.306607
vt 0.664481 0.302290
vt 0.662059 0.308831
vt 0.659496 0.304962
vt 0.658380 0.311852
vt 0.655080 0.308551
vt 0.655339 0.315531
vt 0.651470 0.312948
vt 0.653076 0.319738
vt 0.648778 0.317953
vt 0.651700 0.324314
vt 0.647133 0.323397
vt 0.651211 0.329060
vt 0.646565 0.329060
vt 0.651680 0.333816
vt 0.647113 0.334713
vt 0.653056 0.338362
vt 0.648749 0.340157
vt 0.655319 0.342590
vt 0.651421 0.345162
vt 0.658330 0.346269
vt 0.655020 0.349559
vt 0.662019 0.349310
vt 0.659417 0.353168
vt 0.666206 0.351553
vt 0.664412 0.355860
vt 0.670773 0.352939
vt 0.669855 0.357515
vt 0.675518 0.353427
vt 0.675518 0.358073
vt 0.680264 0.352959
vt 0.681172 0.357525
vt 0.684831 0.351593
vt 0.686615 0.355890
vt 0.689048 0.349339
vt 0.691630 0.353198
vt 0.692727 0.346308
vt 0.696027 0.349619
vt 0.695768 0.342639
vt 0.699636 0.345222
vt 0.698031 0.338442
vt 0.702318 0.340227
vt 0.699407 0.333866
vt 0.703973 0.334783
vt 0.515642 0.491345
vt 0.512511 0.491335
vt 0.512511 0.490946
vt 0.515652 0.490966
vt 0.509381 0.491325
vt 0.509381 0.490936
vt 0.509390 0.489849
vt 0.512521 0.489859
vt 0.515652 0.489869
vt 0.521913 0.491385
vt 0.518782 0.491365
vt 0.518782 0.490976
vt 0.521913 0.490996
vt 0.518782 0.489889
vt 0.521923 0.489909
vt 0.528174 0.491415
vt 0.525044 0.491395
vt 0.525044 0.491016
vt 0.528174 0.491036
vt 0.525054 0.489919
vt 0.528184 0.489939
vt 0.534446 0.491464
vt 0.531305 0.491435
vt 0.531305 0.491056
vt 0.534456 0.491076
vt 0.531315 0.489959
vt 0.534456 0.489989
vt 0.440486 0.491415
vt 0.437355 0.491435
vt 0.437355 0.491046
vt 0.440486 0.491026
vt 0.434215 0.491464
vt 0.434215 0.491076
vt 0.434205 0.489999
vt 0.437335 0.489959
vt 0.440476 0.489939
vt 0.446747 0.491375
vt 0.443616 0.491385
vt 0.443616 0.491006
vt 0.446747 0.490986
vt 0.443607 0.489909
vt 0.446737 0.489899
vt 0.453009 0.491335
vt 0.449878 0.491355
vt 0.449878 0.490966
vt 0.453009 0.490956
vt 0.449868 0.489879
vt 0.452998 0.489859
vt 0.459270 0.491305
vt 0.456139 0.491325
vt 0.456139 0.490936
vt 0.459270 0.490926
vt 0.456129 0.489849
vt 0.459270 0.489829
vt 0.465531 0.491285
vt 0.462401 0.491295
vt 0.462401 0.490916
vt 0.465531 0.490906
vt 0.462401 0.489819
vt 0.465531 0.489809
vt 0.471803 0.491275
vt 0.468662 0.491275
vt 0.468662 0.490896
vt 0.471792 0.490886
vt 0.468662 0.489799
vt 0.471792 0.489799
vt 0.478064 0.491265
vt 0.474933 0.491265
vt 0.474933 0.490886
vt 0.478064 0.490886
vt 0.474923 0.489789
vt 0.478064 0.489789
vt 0.484325 0.491265
vt 0.481195 0.491265
vt 0.481195 0.490876
vt 0.484325 0.490886
vt 0.481195 0.489789
vt 0.484325 0.489789
vt 0.490587 0.491265
vt 0.487456 0.491265
vt 0.487456 0.490886
vt 0.490587 0.490886
vt 0.487456 0.489789
vt 0.490587 0.489789
vt 0.496848 0.491285
vt 0.493717 0.491275
vt 0.493717 0.490886
vt 0.496848 0.490896
vt 0.493727 0.489799
vt 0.496858 0.489809
vt 0.503119 0.491295
vt 0.499988 0.491285
vt 0.499988 0.490906
vt 0.503119 0.490916
vt 0.499988 0.489809
vt 0.503119 0.489819
vt 0.506250 0.491305
vt 0.506250 0.490926
vt 0.506250 0.489829
vt 0.509410 0.484565
vt 0.512541 0.484575
vt 0.515682 0.484595
vt 0.518812 0.484605
vt 0.521943 0.484625
vt 0.525084 0.484645
vt 0.528214 0.484665
vt 0.531355 0.484685
vt 0.534486 0.484705
vt 0.434165 0.484715
vt 0.437295 0.484685
vt 0.440436 0.484655
vt 0.443567 0.484635
vt 0.446707 0.484615
vt 0.449838 0.484595
vt 0.452979 0.484585
vt 0.456109 0.484565
vt 0.459250 0.484555
vt 0.462381 0.484545
vt 0.465511 0.484535
vt 0.468652 0.484525
vt 0.471783 0.484515
vt 0.474923 0.484515
vt 0.478054 0.484515
vt 0.481195 0.484505
vt 0.484325 0.484505
vt 0.487466 0.484515
vt 0.490596 0.484515
vt 0.493727 0.484515
vt 0.496868 0.484525
vt 0.499998 0.484535
vt 0.503139 0.484545
vt 0.506270 0.484555
vt 0.691919 0.325850
vt 0.694881 0.325281
vt 0.695259 0.329120
vt 0.692238 0.329110
vt 0.691700 0.329100
vt 0.691401 0.325949
vt 0.690494 0.322918
vt 0.690982 0.322719
vt 0.693754 0.321582
vt 0.689437 0.319838
vt 0.691959 0.318173
vt 0.688998 0.320127
vt 0.686994 0.317674
vt 0.687373 0.317315
vt 0.689507 0.315182
vt 0.684841 0.315241
vt 0.686516 0.312729
vt 0.684541 0.315670
vt 0.681760 0.314175
vt 0.681959 0.313676
vt 0.683126 0.310894
vt 0.678819 0.312739
vt 0.679427 0.309768
vt 0.678719 0.313257
vt 0.675568 0.312938
vt 0.675578 0.312390
vt 0.675578 0.309389
vt 0.672318 0.312719
vt 0.671740 0.309778
vt 0.672428 0.313247
vt 0.669377 0.314145
vt 0.669177 0.313656
vt 0.668041 0.310885
vt 0.666296 0.315202
vt 0.664631 0.312699
vt 0.666595 0.315630
vt 0.664142 0.317644
vt 0.663774 0.317265
vt 0.661650 0.315152
vt 0.661700 0.319798
vt 0.659187 0.318123
vt 0.662138 0.320087
vt 0.660633 0.322899
vt 0.660144 0.322689
vt 0.657373 0.321523
vt 0.659197 0.325800
vt 0.656226 0.325232
vt 0.659716 0.325920
vt 0.659407 0.329070
vt 0.658858 0.329070
vt 0.655857 0.329070
vt 0.659187 0.332330
vt 0.656236 0.332919
vt 0.659706 0.332211
vt 0.660623 0.335262
vt 0.660125 0.335441
vt 0.657343 0.336598
vt 0.661670 0.338332
vt 0.659167 0.340017
vt 0.662109 0.338043
vt 0.664103 0.340496
vt 0.663734 0.340865
vt 0.661600 0.342988
vt 0.666256 0.342949
vt 0.664591 0.345451
vt 0.666545 0.342500
vt 0.669357 0.344005
vt 0.669147 0.344504
vt 0.667981 0.347266
vt 0.672258 0.345441
vt 0.671700 0.348392
vt 0.672378 0.344923
vt 0.675538 0.345242
vt 0.675528 0.345780
vt 0.675528 0.348781
vt 0.678799 0.345451
vt 0.679377 0.348412
vt 0.678699 0.344943
vt 0.681710 0.344005
vt 0.681909 0.344514
vt 0.683066 0.347296
vt 0.684801 0.342969
vt 0.686476 0.345481
vt 0.684512 0.342530
vt 0.686964 0.340526
vt 0.687323 0.340905
vt 0.689457 0.343028
vt 0.689407 0.338382
vt 0.691909 0.340047
vt 0.688968 0.338093
vt 0.690474 0.335282
vt 0.690962 0.335491
vt 0.693734 0.336657
vt 0.691919 0.332360
vt 0.694851 0.332958
vt 0.691381 0.332261
vt 0.093840 0.291376
vt 0.093132 0.299093
vt 0.088824 0.298265
vt 0.089443 0.291396
vt 0.083331 0.303440
vt 0.085056 0.297548
vt 0.086890 0.304886
vt 0.085614 0.291426
vt 0.076611 0.313659
vt 0.080469 0.308874
vt 0.083710 0.311007
vt 0.079403 0.316411
vt 0.066501 0.320539
vt 0.071895 0.317598
vt 0.074118 0.320878
vt 0.068067 0.324248
vt 0.054527 0.323021
vt 0.060639 0.322363
vt 0.061466 0.326391
vt 0.054557 0.327219
vt 0.042513 0.320728
vt 0.048405 0.322463
vt 0.047598 0.326690
vt 0.040848 0.324826
vt 0.032294 0.314018
vt 0.037079 0.317877
vt 0.034567 0.321675
vt 0.029003 0.317348
vt 0.025414 0.303908
vt 0.028365 0.309302
vt 0.024387 0.311984
vt 0.020907 0.305803
vt 0.022931 0.291934
vt 0.023590 0.298036
vt 0.018734 0.299033
vt 0.017956 0.291964
vt 0.025225 0.279920
vt 0.023490 0.285813
vt 0.018624 0.284875
vt 0.020688 0.278076
vt 0.031935 0.269691
vt 0.028076 0.274476
vt 0.024078 0.271844
vt 0.028605 0.266411
vt 0.042044 0.262821
vt 0.036651 0.265763
vt 0.034098 0.261994
vt 0.040329 0.258743
vt 0.054019 0.260339
vt 0.047917 0.260987
vt 0.047039 0.256769
vt 0.053989 0.256131
vt 0.066033 0.262622
vt 0.060140 0.260897
vt 0.060918 0.256859
vt 0.067548 0.258893
vt 0.071476 0.265483
vt 0.073660 0.262163
vt 0.080230 0.274108
vt 0.076222 0.269292
vt 0.079014 0.266550
vt 0.083401 0.271884
vt 0.093022 0.283659
vt 0.088715 0.284546
vt 0.084956 0.285314
vt 0.083131 0.279452
vt 0.086681 0.277956
vt 0.098376 0.291326
vt 0.097598 0.299940
vt 0.102394 0.291286
vt 0.101546 0.300688
vt 0.098894 0.309731
vt 0.095166 0.308236
vt 0.090958 0.306541
vt 0.094517 0.318096
vt 0.091158 0.315903
vt 0.013350 0.309013
vt 0.009761 0.310539
vt 0.006929 0.301496
vt 0.010738 0.300698
vt 0.005912 0.292064
vt 0.009811 0.292034
vt 0.014078 0.291984
vt 0.014925 0.299821
vt 0.010598 0.283350
vt 0.014806 0.284148
vt 0.006780 0.282622
vt 0.009462 0.273539
vt 0.013081 0.274995
vt 0.098595 0.272901
vt 0.094896 0.274476
vt 0.090769 0.266879
vt 0.094079 0.264616
vt 0.090719 0.276251
vt 0.097459 0.282732
vt 0.101397 0.281904
vt 0.105604 0.291256
vt 0.104697 0.301276
vt 0.108536 0.291226
vt 0.107578 0.301825
vt 0.104577 0.312024
vt 0.101856 0.310928
vt 0.097190 0.319841
vt 0.099642 0.321446
vt 0.092962 0.329731
vt 0.090868 0.327677
vt 0.088595 0.325444
vt 0.083141 0.334118
vt 0.081357 0.331506
vt 0.084797 0.336541
vt 0.075454 0.341636
vt 0.074308 0.338944
vt 0.073072 0.336042
vt 0.064707 0.341945
vt 0.064059 0.338874
vt 0.065305 0.344806
vt 0.054726 0.345943
vt 0.054696 0.343012
vt 0.054667 0.339901
vt 0.044676 0.342114
vt 0.045245 0.339073
vt 0.044128 0.344986
vt 0.033919 0.341985
vt 0.035015 0.339273
vt 0.036162 0.336421
vt 0.026102 0.334597
vt 0.027767 0.332044
vt 0.024497 0.337049
vt 0.016212 0.330369
vt 0.018265 0.328286
vt 0.020389 0.326122
vt 0.011815 0.320549
vt 0.014307 0.318854
vt 0.009402 0.322204
vt 0.004297 0.312862
vt 0.006999 0.311715
vt 0.003998 0.302104
vt 0.001127 0.302702
vt 0.000000 0.292124
vt 0.002931 0.292094
vt 0.003839 0.282074
vt 0.000957 0.281525
vt 0.003958 0.271316
vt 0.006680 0.272413
vt 0.011356 0.263499
vt 0.013879 0.265154
vt 0.008903 0.261894
vt 0.015583 0.253619
vt 0.017677 0.255663
vt 0.019841 0.257786
vt 0.025404 0.249222
vt 0.027119 0.251744
vt 0.023759 0.246799
vt 0.033101 0.241704
vt 0.034248 0.244406
vt 0.035444 0.247228
vt 0.043849 0.241405
vt 0.044487 0.244436
vt 0.043251 0.238544
vt 0.053829 0.237407
vt 0.053859 0.240339
vt 0.053889 0.243449
vt 0.063879 0.241246
vt 0.063301 0.244327
vt 0.064427 0.238374
vt 0.074627 0.241375
vt 0.073530 0.244087
vt 0.072354 0.247009
vt 0.082444 0.248763
vt 0.080709 0.251415
vt 0.084049 0.246311
vt 0.092334 0.252991
vt 0.090280 0.255084
vt 0.088047 0.257358
vt 0.096721 0.262811
vt 0.099144 0.261156
vt 0.104238 0.270498
vt 0.101536 0.271645
vt 0.104537 0.281256
vt 0.107409 0.280658
vt 0.079343 0.301825
vt 0.080838 0.296740
vt 0.075125 0.300120
vt 0.076362 0.295892
vt 0.076771 0.291506
vt 0.081317 0.291466
vt 0.073550 0.310648
vt 0.076870 0.306521
vt 0.070300 0.307458
vt 0.073072 0.304028
vt 0.064816 0.316581
vt 0.069472 0.314038
vt 0.063042 0.312393
vt 0.066920 0.310279
vt 0.054487 0.318724
vt 0.059761 0.318156
vt 0.054447 0.314168
vt 0.058834 0.313699
vt 0.044128 0.316740
vt 0.049213 0.318236
vt 0.045833 0.312523
vt 0.050060 0.313769
vt 0.035304 0.310947
vt 0.039432 0.314277
vt 0.038495 0.307707
vt 0.041925 0.310479
vt 0.029372 0.302224
vt 0.031915 0.306880
vt 0.033560 0.300449
vt 0.035673 0.304317
vt 0.027229 0.291894
vt 0.027797 0.297159
vt 0.031775 0.291855
vt 0.032254 0.296241
vt 0.029213 0.281525
vt 0.027717 0.286610
vt 0.033420 0.283230
vt 0.032184 0.287458
vt 0.034995 0.272702
vt 0.031675 0.276829
vt 0.038246 0.275892
vt 0.035474 0.279332
vt 0.043729 0.266770
vt 0.039073 0.269312
vt 0.045504 0.270957
vt 0.041636 0.273071
vt 0.054058 0.264636
vt 0.048784 0.265194
vt 0.054098 0.269182
vt 0.049711 0.269651
vt 0.064427 0.266610
vt 0.059343 0.265114
vt 0.062723 0.270827
vt 0.058485 0.269581
vt 0.073241 0.272403
vt 0.070061 0.275643
vt 0.066621 0.272881
vt 0.069123 0.269073
vt 0.079173 0.281127
vt 0.074986 0.282911
vt 0.072872 0.279033
vt 0.076641 0.276480
vt 0.080749 0.286191
vt 0.076302 0.287119
vt 0.509430 0.479769
vt 0.512561 0.479789
vt 0.515702 0.479799
vt 0.518832 0.479819
vt 0.521973 0.479839
vt 0.525114 0.479849
vt 0.528244 0.479869
vt 0.531385 0.479889
vt 0.534526 0.479909
vt 0.434125 0.479919
vt 0.437265 0.479889
vt 0.440396 0.479869
vt 0.443537 0.479849
vt 0.446677 0.479829
vt 0.449818 0.479809
vt 0.452949 0.479789
vt 0.456089 0.479779
vt 0.459230 0.479759
vt 0.462361 0.479749
vt 0.465501 0.479739
vt 0.468642 0.479729
vt 0.471773 0.479729
vt 0.474913 0.479719
vt 0.478054 0.479719
vt 0.481195 0.479719
vt 0.484325 0.479719
vt 0.487466 0.479719
vt 0.490606 0.479719
vt 0.493737 0.479729
vt 0.496878 0.479739
vt 0.500018 0.479739
vt 0.503149 0.479749
vt 0.506290 0.479759
vt 0.072015 0.298864
vt 0.073082 0.295264
vt 0.068974 0.297637
vt 0.068475 0.297428
vt 0.069323 0.294546
vt 0.069851 0.294646
vt 0.069592 0.291555
vt 0.070140 0.291555
vt 0.073421 0.291525
vt 0.067917 0.305105
vt 0.070270 0.302184
vt 0.065574 0.302802
vt 0.065195 0.302423
vt 0.067079 0.300090
vt 0.067528 0.300389
vt 0.061735 0.309312
vt 0.065036 0.307508
vt 0.060459 0.306281
vt 0.060250 0.305783
vt 0.062882 0.304347
vt 0.063191 0.304796
vt 0.054427 0.310828
vt 0.058156 0.310419
vt 0.054397 0.307538
vt 0.054397 0.306999
vt 0.057378 0.306680
vt 0.057488 0.307209
vt 0.047089 0.309422
vt 0.050689 0.310479
vt 0.048316 0.306381
vt 0.048525 0.305883
vt 0.051406 0.306730
vt 0.051307 0.307258
vt 0.040838 0.305324
vt 0.043769 0.307677
vt 0.043141 0.302981
vt 0.043530 0.302592
vt 0.045863 0.304477
vt 0.045564 0.304935
vt 0.036641 0.299143
vt 0.038445 0.302433
vt 0.039661 0.297867
vt 0.040160 0.297647
vt 0.041606 0.300289
vt 0.041157 0.300588
vt 0.035125 0.291825
vt 0.035534 0.295563
vt 0.038415 0.291805
vt 0.038954 0.291795
vt 0.039273 0.294786
vt 0.038744 0.294895
vt 0.036531 0.284487
vt 0.035474 0.288086
vt 0.039572 0.285723
vt 0.040070 0.285922
vt 0.039223 0.288804
vt 0.038694 0.288704
vt 0.040629 0.278245
vt 0.038276 0.281166
vt 0.042972 0.280548
vt 0.043350 0.280927
vt 0.041466 0.283270
vt 0.041017 0.282971
vt 0.046810 0.274048
vt 0.043510 0.275842
vt 0.048086 0.277069
vt 0.048296 0.277567
vt 0.045664 0.279003
vt 0.045355 0.278554
vt 0.054128 0.272532
vt 0.050389 0.272931
vt 0.054148 0.275812
vt 0.054158 0.276351
vt 0.051167 0.276680
vt 0.051057 0.276142
vt 0.061466 0.273928
vt 0.057857 0.272871
vt 0.060230 0.276969
vt 0.060031 0.277477
vt 0.057139 0.276630
vt 0.057249 0.276092
vt 0.067708 0.278036
vt 0.064786 0.275673
vt 0.065405 0.280369
vt 0.065026 0.280758
vt 0.062683 0.278873
vt 0.062982 0.278425
vt 0.071905 0.284207
vt 0.070110 0.280917
vt 0.068884 0.285494
vt 0.068386 0.285703
vt 0.066940 0.283071
vt 0.067389 0.282762
vt 0.073022 0.287797
vt 0.069273 0.288574
vt 0.069801 0.288465
vt 0.509430 0.478872
vt 0.512571 0.478892
vt 0.509430 0.478543
vt 0.512571 0.478553
vt 0.515702 0.478563
vt 0.515702 0.478902
vt 0.518842 0.478922
vt 0.518842 0.478583
vt 0.521983 0.478603
vt 0.521983 0.478942
vt 0.525114 0.478952
vt 0.525114 0.478623
vt 0.528254 0.478633
vt 0.528254 0.478972
vt 0.531385 0.478992
vt 0.531385 0.478663
vt 0.534536 0.478683
vt 0.534526 0.479022
vt 0.434115 0.479022
vt 0.437255 0.478992
vt 0.434115 0.478683
vt 0.437255 0.478653
vt 0.440396 0.478633
vt 0.440396 0.478972
vt 0.443537 0.478952
vt 0.443527 0.478613
vt 0.446667 0.478593
vt 0.446667 0.478932
vt 0.449808 0.478912
vt 0.449808 0.478573
vt 0.452949 0.478553
vt 0.452949 0.478892
vt 0.456089 0.478882
vt 0.456079 0.478543
vt 0.459220 0.478523
vt 0.459220 0.478862
vt 0.462361 0.478852
vt 0.462361 0.478513
vt 0.465501 0.478503
vt 0.465501 0.478842
vt 0.468642 0.478832
vt 0.468642 0.478503
vt 0.471773 0.478493
vt 0.471773 0.478832
vt 0.474913 0.478822
vt 0.474913 0.478483
vt 0.478054 0.478483
vt 0.478054 0.478822
vt 0.481195 0.478822
vt 0.481195 0.478483
vt 0.484325 0.478483
vt 0.484325 0.478822
vt 0.487466 0.478822
vt 0.487466 0.478483
vt 0.490606 0.478493
vt 0.490606 0.478822
vt 0.493737 0.478832
vt 0.493747 0.478493
vt 0.496878 0.478503
vt 0.496878 0.478842
vt 0.500018 0.478842
vt 0.500018 0.478503
vt 0.503159 0.478513
vt 0.503159 0.478852
vt 0.506290 0.478862
vt 0.506290 0.478523
vt 0.087369 0.313420
vt 0.082503 0.319482
vt 0.076561 0.324477
vt 0.069752 0.328236
vt 0.062334 0.330599
vt 0.054587 0.331476
vt 0.046800 0.330828
vt 0.039283 0.328684
vt 0.032313 0.325095
vt 0.026172 0.320220
vt 0.021097 0.314218
vt 0.017288 0.307328
vt 0.017059 0.276600
vt 0.020758 0.269651
vt 0.025733 0.263569
vt 0.031805 0.258604
vt 0.038714 0.254905
vt 0.046192 0.252652
vt 0.053969 0.251874
vt 0.061726 0.252642
vt 0.069183 0.254885
vt 0.076053 0.258534
vt 0.082075 0.263439
vt 0.087020 0.269432
vt 0.085734 0.322643
vt 0.079104 0.328196
vt 0.071506 0.332373
vt 0.063241 0.334976
vt 0.054627 0.335933
vt 0.045983 0.335175
vt 0.037638 0.332762
vt 0.029921 0.328754
vt 0.023131 0.323320
vt 0.017538 0.316650
vt 0.017149 0.267288
vt 0.022632 0.260538
vt 0.029342 0.254995
vt 0.036989 0.250857
vt 0.045295 0.248315
vt 0.053929 0.247427
vt 0.062553 0.248245
vt 0.070858 0.250717
vt 0.078515 0.254765
vt 0.085235 0.260219
s 1
f 594/1/1 289/2/1 161/3/1 337/4/1
f 595/5/1 338/6/1 161/3/1 289/2/1
f 595/5/1 290/7/1 162/8/1 338/6/1
f 596/9/1 339/10/1 162/8/1 290/7/1
f 596/9/1 291/11/1 163/12/1 339/10/1
f 597/13/1 340/14/1 163/12/1 291/11/1
f 597/13/1 292/15/1 164/16/1 340/14/1
f 598/17/1 341/18/1 164/16/1 292/15/1
f 598/17/1 293/19/1 165/20/1 341/18/1
f 599/21/1 342/22/1 165/20/1 293/19/1
f 599/21/1 294/23/1 166/24/1 342/22/1
f 600/25/1 343/26/1 166/24/1 294/23/1
f 600/25/1 295/27/1 167/28/1 343/26/1
f 601/29/1 344/30/1 167/28/1 295/27/1
f 601/29/1 296/31/1 168/32/1 344/30/1
f 602/33/1 345/34/1 168/32/1 296/31/1
f 602/33/1 297/35/1 169/36/1 345/34/1
f 603/37/1 346/38/1 169/36/1 297/35/1
f 603/37/1 298/39/1 170/40/1 346/38/1
f 604/41/1 347/42/1 170/40/1 298/39/1
f 604/41/1 299/43/1 171/44/1 347/42/1
f 605/45/1 348/46/1 171/44/1 299/43/1
f 605/45/1 300/47/1 172/48/1 348/46/1
f 606/49/1 349/50/1 172/48/1 300/47/1
f 606/49/1 301/51/1 173/52/1 349/50/1
f 607/53/1 350/54/1 173/52/1 301/51/1
f 607/53/1 302/55/1 174/56/1 350/54/1
f 608/57/1 351/58/1 174/56/1 302/55/1
f 608/57/1 303/59/1 175/60/1 351/58/1
f 609/61/1 352/62/1 175/60/1 303/59/1
f 609/61/1 304/63/1 176/64/1 352/62/1
f 304/63/1 594/1/1 337/4/1 176/64/1
f 2/65/2 353/66/3 177/67/4 370/68/5
f 353/66/3 1/69/6 369/70/7 177/67/4
f 33/71/8 401/72/9 177/67/4 369/70/7
f 401/72/9 34/73/10 370/68/5 177/67/4
f 3/74/11 354/75/12 178/76/13 371/77/14
f 354/75/12 2/65/2 370/68/5 178/76/13
f 34/73/10 402/78/15 178/76/13 370/68/5
f 402/78/15 35/79/16 371/77/14 178/76/13
f 4/80/17 355/81/18 179/82/19 372/83/20
f 355/81/18 3/74/11 371/77/14 179/82/19
f 35/79/16 403/84/21 179/82/19 371/77/14
f 403/84/21 36/85/22 372/83/20 179/82/19
f 5/86/23 356/87/24 180/88/25 373/89/26
f 356/87/24 4/80/17 372/83/20 180/88/25
f 36/85/22 404/90/27 180/88/25 372/83/20
f 404/90/27 37/91/28 373/89/26 180/88/25
f 6/92/29 357/93/30 181/94/31 374/95/32
f 357/93/30 5/96/23 373/97/26 181/94/31
f 37/98/28 405/99/33 181/94/31 373/97/26
f 405/99/33 38/100/34 374/95/32 181/94/31
f 7/101/35 358/102/36 182/103/37 375/104/38
f 358/102/36 6/92/29 374/95/32 182/103/37
f 38/100/34 406/105/39 182/103/37 374/95/32
f 406/105/39 39/106/40 375/104/38 182/103/37
f 8/107/41 359/108/42 183/109/43 376/110/44
f 359/108/42 7/101/35 375/104/38 183/109/43
f 39/106/40 407/111/45 183/109/43 375/104/38
f 407/111/45 40/112/46 376/110/44 183/109/43
f 9/113/47 360/114/48 184/115/49 377/116/50
f 360/114/48 8/107/41 376/110/44 184/115/49
f 40/112/46 408/117/51 184/115/49 376/110/44
f 408/117/51 41/118/52 377/116/50 184/115/49
f 10/119/53 361/120/54 185/121/55 378/122/56
f 361/120/54 9/113/47 377/116/50 185/121/55
f 41/118/52 409/123/57 185/121/55 377/116/50
f 409/123/57 42/124/58 378/122/56 185/121/55
f 11/125/59 362/126/60 186/127/61 379/128/62
f 362/126/60 10/119/53 378/122/56 186/127/61
f 42/124/58 410/129/63 186/127/61 378/122/56
f 410/129/63 43/130/64 379/128/62 186/127/61
f 12/131/65 363/132/66 187/133/67 380/134/68
f 363/132/66 11/125/59 379/128/62 187/133/67
f 43/130/64 411/135/69 187/133/67 379/128/62
f 411/135/69 44/136/70 380/134/68 187/133/67
f 13/137/71 364/138/72 188/139/73 381/140/74
f 364/138/72 12/131/65 380/134/68 188/139/73
f 44/136/70 412/141/75 188/139/73 380/134/68
f 412/141/75 45/142/76 381/140/74 188/139/73
f 14/143/77 365/144/78 189/145/79 382/146/80
f 365/144/78 13/137/71 381/140/74 189/145/79
f 45/142/76 413/147/81 189/145/79 381/140/74
f 413/147/81 46/148/82 382/146/80 189/145/79
f 15/149/83 366/150/84 190/151/85 383/152/86
f 366/150/84 14/143/77 382/146/80 190/151/85
f 46/148/82 414/153/87 190/151/85 382/146/80
f 414/153/87 47/154/88 383/152/86 190/151/85
f 16/155/89 367/156/90 191/157/91 384/158/92
f 367/156/90 15/149/83 383/152/86 191/157/91
f 47/154/88 415/159/93 191/157/91 383/152/86
f 415/159/93 48/160/94 384/158/92 191/157/91
f 1/69/6 368/161/95 192/162/96 369/70/7
f 368/161/95 16/155/89 384/158/92 192/162/96
f 48/160/94 416/163/97 192/162/96 384/158/92
f 416/163/97 33/71/8 369/70/7 192/162/96
f 113/164/8 562/165/9 401/72/9 33/71/8
f 114/166/10 34/73/10 401/72/9 562/165/9
f 114/166/10 563/167/15 402/78/15 34/73/10
f 115/168/16 35/79/16 402/78/15 563/167/15
f 115/168/16 564/169/21 403/84/21 35/79/16
f 116/170/22 36/85/22 403/84/21 564/169/21
f 116/170/22 565/171/27 404/90/27 36/85/22
f 117/172/28 37/91/28 404/90/27 565/171/27
f 117/173/28 566/174/33 405/99/33 37/98/28
f 118/175/34 38/100/34 405/99/33 566/174/33
f 118/175/34 567/176/39 406/105/39 38/100/34
f 119/177/40 39/106/40 406/105/39 567/176/39
f 119/177/40 568/178/45 407/111/45 39/106/40
f 120/179/46 40/112/46 407/111/45 568/178/45
f 120/179/46 569/180/51 408/117/51 40/112/46
f 121/181/52 41/118/52 408/117/51 569/180/51
f 121/181/52 570/182/57 409/123/57 41/118/52
f 122/183/58 42/124/58 409/123/57 570/182/57
f 122/183/58 571/184/63 410/129/63 42/124/58
f 123/185/64 43/130/64 410/129/63 571/184/63
f 123/185/64 572/186/69 411/135/69 43/130/64
f 124/187/70 44/136/70 411/135/69 572/186/69
f 124/187/70 573/188/75 412/141/75 44/136/70
f 125/189/76 45/142/76 412/141/75 573/188/75
f 125/189/76 574/190/81 413/147/81 45/142/76
f 126/191/82 46/148/82 413/147/81 574/190/81
f 126/191/82 575/192/87 414/153/87 46/148/82
f 127/193/88 47/154/88 414/153/87 575/192/87
f 127/193/88 576/194/93 415/159/93 47/154/88
f 128/195/94 48/160/94 415/159/93 576/194/93
f 48/160/94 128/195/94 577/196/97 416/163/97
f 113/164/8 33/71/8 416/163/97 577/196/97
f 193/197/98 273/198/1 578/199/1 417/200/99
f 417/200/99 1/201/6 353/202/3 193/197/98
f 2/203/2 418/204/100 193/197/98 353/202/3
f 418/204/100 579/205/1 273/198/1 193/197/98
f 194/206/101 274/207/1 579/205/1 418/204/100
f 418/204/100 2/203/2 354/208/12 194/206/101
f 3/209/11 419/210/102 194/206/101 354/208/12
f 419/210/102 580/211/1 274/207/1 194/206/101
f 195/212/103 275/213/1 580/211/1 419/210/102
f 419/210/102 3/209/11 355/214/18 195/212/103
f 4/215/17 420/216/104 195/212/103 355/214/18
f 420/216/104 581/217/1 275/213/1 195/212/103
f 196/218/105 276/219/1 581/217/1 420/216/104
f 420/216/104 4/215/17 356/220/24 196/218/105
f 5/221/23 421/222/106 196/218/105 356/220/24
f 421/222/106 582/223/1 276/219/1 196/218/105
f 197/224/107 277/225/1 582/223/1 421/222/106
f 421/222/106 5/221/23 357/226/30 197/224/107
f 6/227/29 422/228/108 197/224/107 357/226/30
f 422/228/108 583/229/1 277/225/1 197/224/107
f 198/230/109 278/231/1 583/229/1 422/228/108
f 422/228/108 6/227/29 358/232/36 198/230/109
f 7/233/35 423/234/110 198/230/109 358/232/36
f 423/234/110 584/235/1 278/231/1 198/230/109
f 199/236/111 279/237/1 584/235/1 423/234/110
f 423/234/110 7/233/35 359/238/42 199/236/111
f 8/239/41 424/240/112 199/236/111 359/238/42
f 424/240/112 585/241/1 279/237/1 199/236/111
f 200/242/113 280/243/1 585/241/1 424/240/112
f 424/240/112 8/239/41 360/244/48 200/242/113
f 9/245/47 425/246/114 200/242/113 360/244/48
f 425/246/114 586/247/1 280/243/1 200/242/113
f 201/248/115 281/249/1 586/247/1 425/246/114
f 425/246/114 9/245/47 361/250/54 201/248/115
f 10/251/53 426/252/116 201/248/115 361/250/54
f 426/252/116 587/253/1 281/249/1 201/248/115
f 202/254/117 282/255/1 587/253/1 426/252/116
f 426/252/116 10/251/53 362/256/60 202/254/117
f 11/257/59 427/258/118 202/254/117 362/256/60
f 427/258/118 588/259/1 282/255/1 202/254/117
f 203/260/119 283/261/1 588/259/1 427/258/118
f 427/258/118 11/257/59 363/262/66 203/260/119
f 12/263/65 428/264/120 203/260/119 363/262/66
f 428/264/120 589/265/1 283/261/1 203/260/119
f 204/266/121 284/267/1 589/265/1 428/264/120
f 428/264/120 12/263/65 364/268/72 204/266/121
f 13/269/71 429/270/122 204/266/121 364/268/72
f 429/270/122 590/271/1 284/267/1 204/266/121
f 205/272/123 285/273/1 590/271/1 429/270/122
f 429/270/122 13/269/71 365/274/78 205/272/123
f 14/275/77 430/276/124 205/272/123 365/274/78
f 430/276/124 591/277/1 285/273/1 205/272/123
f 206/278/125 286/279/1 591/277/1 430/276/124
f 430/276/124 14/275/77 366/280/84 206/278/125
f 15/281/83 431/282/126 206/278/125 366/280/84
f 431/282/126 592/283/1 286/279/1 206/278/125
f 207/284/127 287/285/1 592/283/1 431/282/126
f 431/282/126 15/281/83 367/286/90 207/284/127
f 16/287/89 432/288/128 207/284/127 367/286/90
f 432/288/128 593/289/1 287/285/1 207/284/127
f 208/290/129 288/291/1 593/289/1 432/288/128
f 432/288/128 16/287/89 368/292/95 208/290/129
f 1/201/6 417/200/99 208/290/129 368/292/95
f 578/199/1 288/291/1 208/290/129 417/200/99
f 49/293/130 434/294/131 209/295/132 535/296/133
f 102/297/134 545/298/135 209/295/132 435/299/136
f 545/298/135 103/300/137 535/296/133 209/295/132
f 101/301/138 546/302/139 210/303/140 437/304/141
f 546/302/139 102/297/134 435/299/136 210/303/140
f 100/305/142 547/306/143 211/307/144 439/308/145
f 547/306/143 101/301/138 437/304/141 211/307/144
f 99/309/146 548/310/147 212/311/148 441/312/149
f 548/310/147 100/305/142 439/308/145 212/311/148
f 98/313/150 549/314/151 213/315/152 443/316/153
f 549/314/151 99/309/146 441/312/149 213/315/152
f 97/317/154 550/318/155 214/319/156 445/320/157
f 550/318/155 98/313/150 443/316/153 214/319/156
f 112/321/158 551/322/159 215/323/160 447/324/161
f 551/322/159 97/317/154 445/320/157 215/323/160
f 111/325/162 552/326/163 216/327/164 449/328/165
f 552/326/163 112/321/158 447/324/161 216/327/164
f 110/329/166 553/330/167 217/331/168 451/332/169
f 553/330/167 111/325/162 449/328/165 217/331/168
f 109/333/170 554/334/171 218/335/172 453/336/173
f 554/334/171 110/329/166 451/332/169 218/335/172
f 108/337/174 555/338/175 219/339/176 455/340/177
f 555/338/175 109/333/170 453/336/173 219/339/176
f 107/341/178 556/342/179 220/343/180 457/344/181
f 556/342/179 108/337/174 455/340/177 220/343/180
f 106/345/182 557/346/183 221/347/184 459/348/185
f 557/346/183 107/341/178 457/344/181 221/347/184
f 558/349/186 106/345/182 459/348/185 222/350/187
f 559/351/188 105/352/189 461/353/190 223/354/191
f 464/355/192 49/293/130 535/296/133 224/356/193
f 103/300/137 560/357/194 224/356/193 535/296/133
f 560/357/194 104/358/195 463/359/196 224/356/193
f 49/293/130 465/360/197 225/361/198 434/294/131
f 465/360/197 87/362/199 513/363/200 225/361/198
f 86/364/201 502/365/202 225/361/198 513/363/200
f 502/365/202 50/366/203 434/294/131 225/361/198
f 502/365/202 86/364/201 514/367/204 226/368/205
f 512/369/206 96/370/207 520/371/208 232/372/209
f 95/373/210 511/374/211 232/372/209 520/371/208
f 511/374/211 57/375/212 448/376/213 232/372/209
f 57/375/212 511/374/211 233/377/214 450/378/215
f 511/374/211 95/373/210 521/379/216 233/377/214
f 94/380/217 510/381/218 233/377/214 521/379/216
f 88/382/219 504/383/220 239/384/221 527/385/222
f 64/386/223 504/383/220 240/387/224 464/355/192
f 504/383/220 88/382/219 528/388/225 240/387/224
f 87/362/199 465/360/197 240/387/224 528/388/225
f 465/360/197 49/293/130 464/355/192 240/387/224
f 87/362/199 503/389/226 241/390/227 513/363/200
f 503/389/226 65/391/228 466/392/229 241/390/227
f 66/393/230 467/394/231 241/390/227 466/392/229
f 467/394/231 86/364/201 513/363/200 241/390/227
f 86/364/201 467/394/231 242/395/232 514/367/204
f 467/394/231 66/393/230 468/396/233 242/395/232
f 67/397/234 469/398/235 242/395/232 468/396/233
f 469/398/235 85/399/236 514/367/204 242/395/232
f 85/399/236 469/398/235 243/400/237 515/401/238
f 469/398/235 67/397/234 470/402/239 243/400/237
f 68/403/240 471/404/241 243/400/237 470/402/239
f 471/404/241 84/405/242 515/401/238 243/400/237
f 84/405/242 471/404/241 244/406/243 516/407/244
f 471/404/241 68/403/240 472/408/245 244/406/243
f 69/409/246 473/410/247 244/406/243 472/408/245
f 473/410/247 83/411/248 516/407/244 244/406/243
f 83/411/248 473/410/247 245/412/249 517/413/250
f 473/410/247 69/409/246 474/414/251 245/412/249
f 70/415/252 475/416/253 245/412/249 474/414/251
f 475/416/253 82/417/254 517/413/250 245/412/249
f 82/417/254 475/416/253 246/418/255 518/419/256
f 475/416/253 70/415/252 476/420/257 246/418/255
f 71/421/258 477/422/259 246/418/255 476/420/257
f 477/422/259 81/423/260 518/419/256 246/418/255
f 81/423/260 477/422/259 247/424/261 519/425/262
f 477/422/259 71/421/258 478/426/263 247/424/261
f 72/427/264 479/428/265 247/424/261 478/426/263
f 479/428/265 96/370/207 519/425/262 247/424/261
f 96/370/207 479/428/265 248/429/266 520/371/208
f 479/428/265 72/427/264 480/430/267 248/429/266
f 73/431/268 481/432/269 248/429/266 480/430/267
f 481/432/269 95/373/210 520/371/208 248/429/266
f 95/373/210 481/432/269 249/433/270 521/379/216
f 481/432/269 73/431/268 482/434/271 249/433/270
f 74/435/272 483/436/273 249/433/270 482/434/271
f 483/436/273 94/380/217 521/379/216 249/433/270
f 94/380/217 483/436/273 250/437/274 522/438/275
f 483/436/273 74/435/272 484/439/276 250/437/274
f 75/440/277 485/441/278 250/437/274 484/439/276
f 485/441/278 93/442/279 522/438/275 250/437/274
f 93/442/279 485/441/278 251/443/280 523/444/281
f 485/441/278 75/440/277 486/445/282 251/443/280
f 76/446/283 487/447/284 251/443/280 486/445/282
f 487/447/284 92/448/285 523/444/281 251/443/280
f 92/448/285 487/447/284 252/449/286 524/450/287
f 487/447/284 76/446/283 488/451/288 252/449/286
f 77/452/289 489/453/290 252/449/286 488/451/288
f 489/453/290 91/454/291 524/450/287 252/449/286
f 91/454/291 489/453/290 253/455/292 525/456/293
f 489/453/290 77/452/289 490/457/294 253/455/292
f 78/458/295 491/459/296 253/455/292 490/457/294
f 491/459/296 90/460/297 525/456/293 253/455/292
f 90/460/297 491/459/296 254/461/298 526/462/299
f 491/459/296 78/458/295 492/463/300 254/461/298
f 79/464/301 493/465/302 254/461/298 492/463/300
f 493/465/302 89/466/303 526/462/299 254/461/298
f 89/466/303 493/465/302 255/467/304 527/385/222
f 493/465/302 79/464/301 494/468/305 255/467/304
f 80/469/306 495/470/307 255/467/304 494/468/305
f 495/470/307 88/382/219 527/385/222 255/467/304
f 88/382/219 495/470/307 256/471/308 528/388/225
f 495/470/307 80/469/306 496/472/309 256/471/308
f 65/391/228 503/389/226 256/471/308 496/472/309
f 503/389/226 87/362/199 528/388/225 256/471/308
f 102/297/134 534/473/310 257/474/311 545/298/135
f 534/473/310 135/475/312 625/476/313 257/474/311
f 129/477/314 561/478/315 257/474/311 625/476/313
f 561/478/315 103/300/137 545/298/135 257/474/311
f 101/301/138 533/479/316 258/480/317 546/302/139
f 533/479/316 134/481/318 626/482/319 258/480/317
f 135/475/312 534/473/310 258/480/317 626/482/319
f 534/473/310 102/297/134 546/302/139 258/480/317
f 100/305/142 532/483/320 259/484/321 547/306/143
f 532/483/320 133/485/322 627/486/323 259/484/321
f 134/481/318 533/479/316 259/484/321 627/486/323
f 533/479/316 101/301/138 547/306/143 259/484/321
f 99/309/146 531/487/324 260/488/325 548/310/147
f 531/487/324 132/489/326 628/490/327 260/488/325
f 133/485/322 532/483/320 260/488/325 628/490/327
f 532/483/320 100/305/142 548/310/147 260/488/325
f 98/313/150 530/491/328 261/492/329 549/314/151
f 530/491/328 131/493/330 629/494/331 261/492/329
f 132/489/326 531/487/324 261/492/329 629/494/331
f 531/487/324 99/309/146 549/314/151 261/492/329
f 97/317/154 529/495/332 262/496/333 550/318/155
f 529/495/332 130/497/334 630/498/335 262/496/333
f 131/493/330 530/491/328 262/496/333 630/498/335
f 530/491/328 98/313/150 550/318/155 262/496/333
f 112/321/158 544/499/336 263/500/337 551/322/159
f 544/499/336 144/501/338 631/502/339 263/500/337
f 130/497/334 529/495/332 263/500/337 631/502/339
f 529/495/332 97/317/154 551/322/159 263/500/337
f 111/325/162 543/503/340 264/504/341 552/326/163
f 543/503/340 143/505/342 632/506/343 264/504/341
f 144/501/338 544/499/336 264/504/341 632/506/343
f 544/499/336 112/321/158 552/326/163 264/504/341
f 110/329/166 542/507/344 265/508/345 553/330/167
f 542/507/344 142/509/346 633/510/347 265/508/345
f 143/505/342 543/503/340 265/508/345 633/510/347
f 543/503/340 111/325/162 553/330/167 265/508/345
f 109/333/170 541/511/348 266/512/349 554/334/171
f 541/511/348 141/513/350 634/514/351 266/512/349
f 142/509/346 542/507/344 266/512/349 634/514/351
f 542/507/344 110/329/166 554/334/171 266/512/349
f 108/337/174 540/515/352 267/516/353 555/338/175
f 540/515/352 140/517/354 635/518/355 267/516/353
f 141/513/350 541/511/348 267/516/353 635/518/355
f 541/511/348 109/333/170 555/338/175 267/516/353
f 107/341/178 539/519/356 268/520/357 556/342/179
f 539/519/356 139/521/358 636/522/359 268/520/357
f 140/517/354 540/515/352 268/520/357 636/522/359
f 540/515/352 108/337/174 556/342/179 268/520/357
f 106/345/182 538/523/360 269/524/361 557/346/183
f 538/523/360 138/525/362 637/526/363 269/524/361
f 139/521/358 539/519/356 269/524/361 637/526/363
f 539/519/356 107/341/178 557/346/183 269/524/361
f 537/527/364 137/528/365 638/529/366 270/530/367
f 138/525/362 538/523/360 270/530/367 638/529/366
f 538/523/360 106/345/182 558/349/186 270/530/367
f 536/531/368 136/532/369 639/533/370 271/534/371
f 137/528/365 537/527/364 271/534/371 639/533/370
f 537/527/364 105/352/189 559/351/188 271/534/371
f 103/300/137 561/478/315 272/535/372 560/357/194
f 561/478/315 129/477/314 640/536/373 272/535/372
f 136/532/369 536/531/368 272/535/372 640/536/373
f 536/531/368 104/358/195 560/357/194 272/535/372
f 145/537/8 657/538/9 562/165/9 113/164/8
f 146/539/10 114/166/10 562/165/9 657/538/9
f 146/539/10 658/540/15 563/167/15 114/166/10
f 147/541/16 115/168/16 563/167/15 658/540/15
f 147/541/16 659/542/21 564/169/21 115/168/16
f 148/543/22 116/170/22 564/169/21 659/542/21
f 148/543/22 660/544/27 565/171/27 116/170/22
f 149/545/28 117/172/28 565/171/27 660/544/27
f 149/546/28 661/547/33 566/174/33 117/173/28
f 150/548/34 118/175/34 566/174/33 661/547/33
f 150/548/34 662/549/39 567/176/39 118/175/34
f 151/550/40 119/177/40 567/176/39 662/549/39
f 151/550/40 663/551/45 568/178/45 119/177/40
f 152/552/46 120/179/46 568/178/45 663/551/45
f 152/552/46 664/553/51 569/180/51 120/179/46
f 153/554/52 121/181/52 569/180/51 664/553/51
f 153/554/52 665/555/57 570/182/57 121/181/52
f 154/556/58 122/183/58 570/182/57 665/555/57
f 154/556/58 666/557/63 571/184/63 122/183/58
f 155/558/64 123/185/64 571/184/63 666/557/63
f 155/558/64 667/559/69 572/186/69 123/185/64
f 156/560/70 124/187/70 572/186/69 667/559/69
f 156/560/70 668/561/75 573/188/75 124/187/70
f 157/562/76 125/189/76 573/188/75 668/561/75
f 157/562/76 669/563/81 574/190/81 125/189/76
f 158/564/82 126/191/82 574/190/81 669/563/81
f 158/564/82 670/565/87 575/192/87 126/191/82
f 159/566/88 127/193/88 575/192/87 670/565/87
f 159/566/88 671/567/93 576/194/93 127/193/88
f 160/568/94 128/195/94 576/194/93 671/567/93
f 128/195/94 160/568/94 672/569/97 577/196/97
f 145/537/8 113/164/8 577/196/97 672/569/97
f 273/198/1 289/2/1 594/1/1 578/199/1
f 579/205/1 595/5/1 289/2/1 273/198/1
f 274/207/1 290/7/1 595/5/1 579/205/1
f 580/211/1 596/9/1 290/7/1 274/207/1
f 275/213/1 291/11/1 596/9/1 580/211/1
f 581/217/1 597/13/1 291/11/1 275/213/1
f 276/219/1 292/15/1 597/13/1 581/217/1
f 582/223/1 598/17/1 292/15/1 276/219/1
f 277/225/1 293/19/1 598/17/1 582/223/1
f 583/229/1 599/21/1 293/19/1 277/225/1
f 278/231/1 294/23/1 599/21/1 583/229/1
f 584/235/1 600/25/1 294/23/1 278/231/1
f 279/237/1 295/27/1 600/25/1 584/235/1
f 585/241/1 601/29/1 295/27/1 279/237/1
f 280/243/1 296/31/1 601/29/1 585/241/1
f 586/247/1 602/33/1 296/31/1 280/243/1
f 281/249/1 297/35/1 602/33/1 586/247/1
f 587/253/1 603/37/1 297/35/1 281/249/1
f 282/255/1 298/39/1 603/37/1 587/253/1
f 588/259/1 604/41/1 298/39/1 282/255/1
f 283/261/1 299/43/1 604/41/1 588/259/1
f 589/265/1 605/45/1 299/43/1 283/261/1
f 284/267/1 300/47/1 605/45/1 589/265/1
f 590/271/1 606/49/1 300/47/1 284/267/1
f 285/273/1 301/51/1 606/49/1 590/271/1
f 591/277/1 607/53/1 301/51/1 285/273/1
f 286/279/1 302/55/1 607/53/1 591/277/1
f 592/283/1 608/57/1 302/55/1 286/279/1
f 287/285/1 303/59/1 608/57/1 592/283/1
f 593/289/1 609/61/1 303/59/1 287/285/1
f 288/291/1 304/63/1 609/61/1 593/289/1
f 594/1/1 304/63/1 288/291/1 578/199/1
f 699/570/374 700/571/375 625/476/313 135/475/312
f 615/572/376 18/573/377 385/574/378 305/575/379
f 17/576/380 433/577/381 305/575/379 385/574/378
f 701/578/382 700/571/375 305/575/379 433/577/381
f 697/579/383 698/580/384 626/482/319 134/481/318
f 614/581/385 19/582/386 386/583/387 306/584/388
f 18/573/377 615/572/376 306/584/388 386/583/387
f 699/570/374 698/580/384 306/584/388 615/572/376
f 695/585/389 696/586/390 627/486/323 133/485/322
f 613/587/391 20/588/392 387/589/393 307/590/394
f 19/582/386 614/581/385 307/590/394 387/589/393
f 697/579/383 696/586/390 307/590/394 614/581/385
f 693/591/395 694/592/396 628/490/327 132/489/326
f 612/593/397 21/594/398 388/595/399 308/596/400
f 20/588/392 613/587/391 308/596/400 388/595/399
f 695/585/389 694/592/396 308/596/400 613/587/391
f 691/597/401 692/598/402 629/494/331 131/493/330
f 611/599/403 22/600/404 389/601/405 309/602/406
f 21/594/398 612/593/397 309/602/406 389/601/405
f 693/591/395 692/598/402 309/602/406 612/593/397
f 689/603/407 690/604/408 630/498/335 130/497/334
f 610/605/409 23/606/410 390/607/411 310/608/412
f 22/600/404 611/599/403 310/608/412 390/607/411
f 691/597/401 690/604/408 310/608/412 611/599/403
f 687/609/413 688/610/414 631/502/339 144/501/338
f 624/611/415 24/612/416 391/613/417 311/614/418
f 23/606/410 610/605/409 311/614/418 391/613/417
f 689/603/407 688/610/414 311/614/418 610/605/409
f 685/615/419 686/616/420 632/506/343 143/505/342
f 623/617/421 25/618/422 392/619/423 312/620/424
f 24/612/416 624/611/415 312/620/424 392/619/423
f 687/609/413 686/616/420 312/620/424 624/611/415
f 683/621/425 684/622/426 633/510/347 142/509/346
f 622/623/427 26/624/428 393/625/429 313/626/430
f 25/618/422 623/617/421 313/626/430 393/625/429
f 685/615/419 684/622/426 313/626/430 623/617/421
f 681/627/431 682/628/432 634/514/351 141/513/350
f 621/629/433 27/630/434 394/631/435 314/632/436
f 26/624/428 622/623/427 314/632/436 394/631/435
f 683/621/425 682/628/432 314/632/436 622/623/427
f 679/633/437 680/634/438 635/518/355 140/517/354
f 620/635/439 28/636/440 395/637/441 315/638/442
f 27/630/434 621/629/433 315/638/442 395/637/441
f 681/627/431 680/634/438 315/638/442 621/629/433
f 677/639/443 678/640/444 636/522/359 139/521/358
f 619/641/445 29/642/446 396/643/447 316/644/448
f 28/636/440 620/635/439 316/644/448 396/643/447
f 679/633/437 678/640/444 316/644/448 620/635/439
f 675/645/449 676/646/450 637/526/363 138/525/362
f 618/647/451 30/648/452 397/649/453 317/650/454
f 29/642/446 619/641/445 317/650/454 397/649/453
f 677/639/443 676/646/450 317/650/454 619/641/445
f 673/651/455 674/652/456 638/529/366 137/528/365
f 617/653/457 31/654/458 398/655/459 318/656/460
f 30/648/452 618/647/451 318/656/460 398/655/459
f 675/645/449 674/652/456 318/656/460 618/647/451
f 703/657/461 704/658/462 639/533/370 136/532/369
f 616/659/463 32/660/464 399/661/465 319/662/466
f 31/654/458 617/653/457 319/662/466 399/661/465
f 673/651/455 704/658/462 319/662/466 617/653/457
f 701/578/382 702/663/467 640/536/373 129/477/314
f 433/577/381 17/576/380 400/664/468 320/665/469
f 32/660/464 616/659/463 320/665/469 400/664/468
f 703/657/461 702/663/467 320/665/469 616/659/463
f 145/537/8 641/666/470 321/667/471 657/538/9
f 641/666/470 17/668/380 385/669/378 321/667/471
f 18/670/377 642/671/472 321/667/471 385/669/378
f 642/671/472 146/539/10 657/538/9 321/667/471
f 146/539/10 642/671/472 322/672/473 658/540/15
f 642/671/472 18/670/377 386/673/387 322/672/473
f 19/674/386 643/675/474 322/672/473 386/673/387
f 643/675/474 147/541/16 658/540/15 322/672/473
f 147/541/16 643/675/474 323/676/475 659/542/21
f 643/675/474 19/674/386 387/677/393 323/676/475
f 20/678/392 644/679/476 323/676/475 387/677/393
f 644/679/476 148/543/22 659/542/21 323/676/475
f 148/543/22 644/679/476 324/680/477 660/544/27
f 644/679/476 20/678/392 388/681/399 324/680/477
f 21/682/398 645/683/478 324/680/477 388/681/399
f 645/683/478 149/545/28 660/544/27 324/680/477
f 149/546/28 645/684/478 325/685/479 661/547/33
f 645/684/478 21/686/398 389/687/405 325/685/479
f 22/688/404 646/689/480 325/685/479 389/687/405
f 646/689/480 150/548/34 661/547/33 325/685/479
f 150/548/34 646/689/480 326/690/481 662/549/39
f 646/689/480 22/688/404 390/691/411 326/690/481
f 23/692/410 647/693/482 326/690/481 390/691/411
f 647/693/482 151/550/40 662/549/39 326/690/481
f 151/550/40 647/693/482 327/694/483 663/551/45
f 647/693/482 23/692/410 391/695/417 327/694/483
f 24/696/416 648/697/484 327/694/483 391/695/417
f 648/697/484 152/552/46 663/551/45 327/694/483
f 152/552/46 648/697/484 328/698/485 664/553/51
f 648/697/484 24/696/416 392/699/423 328/698/485
f 25/700/422 649/701/486 328/698/485 392/699/423
f 649/701/486 153/554/52 664/553/51 328/698/485
f 153/554/52 649/701/486 329/702/487 665/555/57
f 649/701/486 25/700/422 393/703/429 329/702/487
f 26/704/428 650/705/488 329/702/487 393/703/429
f 650/705/488 154/556/58 665/555/57 329/702/487
f 154/556/58 650/705/488 330/706/489 666/557/63
f 650/705/488 26/704/428 394/707/435 330/706/489
f 27/708/434 651/709/490 330/706/489 394/707/435
f 651/709/490 155/558/64 666/557/63 330/706/489
f 155/558/64 651/709/490 331/710/491 667/559/69
f 651/709/490 27/708/434 395/711/441 331/710/491
f 28/712/440 652/713/492 331/710/491 395/711/441
f 652/713/492 156/560/70 667/559/69 331/710/491
f 156/560/70 652/713/492 332/714/493 668/561/75
f 652/713/492 28/712/440 396/715/447 332/714/493
f 29/716/446 653/717/494 332/714/493 396/715/447
f 653/717/494 157/562/76 668/561/75 332/714/493
f 157/562/76 653/717/494 333/718/495 669/563/81
f 653/717/494 29/716/446 397/719/453 333/718/495
f 30/720/452 654/721/496 333/718/495 397/719/453
f 654/721/496 158/564/82 669/563/81 333/718/495
f 158/564/82 654/721/496 334/722/497 670/565/87
f 654/721/496 30/720/452 398/723/459 334/722/497
f 31/724/458 655/725/498 334/722/497 398/723/459
f 655/725/498 159/566/88 670/565/87 334/722/497
f 159/566/88 655/725/498 335/726/499 671/567/93
f 655/725/498 31/724/458 399/727/465 335/726/499
f 32/728/464 656/729/500 335/726/499 399/727/465
f 656/729/500 160/568/94 671/567/93 335/726/499
f 160/568/94 656/729/500 336/730/501 672/569/97
f 656/729/500 32/728/464 400/731/468 336/730/501
f 17/668/380 641/666/470 336/730/501 400/731/468
f 641/666/470 145/537/8 672/569/97 336/730/501
f 615/572/376 305/575/379 700/571/375 699/570/374
f 129/477/314 625/476/313 700/571/375 701/578/382
f 614/581/385 306/584/388 698/580/384 697/579/383
f 135/475/312 626/482/319 698/580/384 699/570/374
f 613/587/391 307/590/394 696/586/390 695/585/389
f 134/481/318 627/486/323 696/586/390 697/579/383
f 612/593/397 308/596/400 694/592/396 693/591/395
f 133/485/322 628/490/327 694/592/396 695/585/389
f 611/599/403 309/602/406 692/598/402 691/597/401
f 132/489/326 629/494/331 692/598/402 693/591/395
f 610/605/409 310/608/412 690/604/408 689/603/407
f 131/493/330 630/498/335 690/604/408 691/597/401
f 624/611/415 311/614/418 688/610/414 687/609/413
f 130/497/334 631/502/339 688/610/414 689/603/407
f 623/617/421 312/620/424 686/616/420 685/615/419
f 144/501/338 632/506/343 686/616/420 687/609/413
f 622/623/427 313/626/430 684/622/426 683/621/425
f 143/505/342 633/510/347 684/622/426 685/615/419
f 621/629/433 314/632/436 682/628/432 681/627/431
f 142/509/346 634/514/351 682/628/432 683/621/425
f 620/635/439 315/638/442 680/634/438 679/633/437
f 141/513/350 635/518/355 680/634/438 681/627/431
f 619/641/445 316/644/448 678/640/444 677/639/443
f 140/517/354 636/522/359 678/640/444 679/633/437
f 618/647/451 317/650/454 676/646/450 675/645/449
f 139/521/358 637/526/363 676/646/450 677/639/443
f 617/653/457 318/656/460 674/652/456 673/651/455
f 138/525/362 638/529/366 674/652/456 675/645/449
f 616/659/463 319/662/466 704/658/462 703/657/461
f 137/528/365 639/533/370 704/658/462 673/651/455
f 433/577/381 320/665/469 702/663/467 701/578/382
f 136/532/369 640/536/373 702/663/467 703/657/461
f 435/299/136 209/295/132 434/294/131 50/366/203
f 210/303/140 435/299/136 50/366/203 436/732/502
f 437/304/141 210/303/140 436/732/502 51/733/503
f 211/307/144 437/304/141 51/733/503 438/734/504
f 439/308/145 211/307/144 438/734/504 52/735/505
f 212/311/148 439/308/145 52/735/505 440/736/506
f 441/312/149 212/311/148 440/736/506 53/737/507
f 213/315/152 441/312/149 53/737/507 442/738/508
f 443/316/153 213/315/152 442/738/508 54/739/509
f 214/319/156 443/316/153 54/739/509 444/740/510
f 445/320/157 214/319/156 444/740/510 55/741/511
f 215/323/160 445/320/157 55/741/511 446/742/512
f 447/324/161 215/323/160 446/742/512 56/743/513
f 216/327/164 447/324/161 56/743/513 448/376/213
f 449/328/165 216/327/164 448/376/213 57/375/212
f 217/331/168 449/328/165 57/375/212 450/378/215
f 451/332/169 217/331/168 450/378/215 58/744/514
f 218/335/172 451/332/169 58/744/514 452/745/515
f 453/336/173 218/335/172 452/745/515 59/746/516
f 219/339/176 453/336/173 59/746/516 454/747/517
f 455/340/177 219/339/176 454/747/517 60/748/518
f 220/343/180 455/340/177 60/748/518 456/749/519
f 457/344/181 220/343/180 456/749/519 61/750/520
f 221/347/184 457/344/181 61/750/520 458/751/521
f 459/348/185 221/347/184 458/751/521 62/752/522
f 222/350/187 459/348/185 62/752/522 460/753/523
f 461/353/190 222/350/187 460/753/523 63/754/524
f 222/350/187 461/353/190 105/352/189 558/349/186
f 223/354/191 461/353/190 63/754/524 462/755/525
f 463/359/196 223/354/191 462/755/525 64/386/223
f 223/354/191 463/359/196 104/358/195 559/351/188
f 224/356/193 463/359/196 64/386/223 464/355/192
f 226/368/205 436/732/502 50/366/203 502/365/202
f 226/368/205 514/367/204 85/399/236 501/756/526
f 436/732/502 226/368/205 501/756/526 51/733/503
f 227/757/527 438/734/504 51/733/503 501/756/526
f 515/401/238 227/757/527 501/756/526 85/399/236
f 227/757/527 515/401/238 84/405/242 500/758/528
f 438/734/504 227/757/527 500/758/528 52/735/505
f 228/759/529 440/736/506 52/735/505 500/758/528
f 516/407/244 228/759/529 500/758/528 84/405/242
f 228/759/529 516/407/244 83/411/248 499/760/530
f 440/736/506 228/759/529 499/760/530 53/737/507
f 229/761/531 442/738/508 53/737/507 499/760/530
f 517/413/250 229/761/531 499/760/530 83/411/248
f 229/761/531 517/413/250 82/417/254 498/762/532
f 442/738/508 229/761/531 498/762/532 54/739/509
f 230/763/533 444/740/510 54/739/509 498/762/532
f 518/419/256 230/763/533 498/762/532 82/417/254
f 230/763/533 518/419/256 81/423/260 497/764/534
f 444/740/510 230/763/533 497/764/534 55/741/511
f 231/765/535 446/742/512 55/741/511 497/764/534
f 519/425/262 231/765/535 497/764/534 81/423/260
f 231/765/535 519/425/262 96/370/207 512/369/206
f 446/742/512 231/765/535 512/369/206 56/743/513
f 232/372/209 448/376/213 56/743/513 512/369/206
f 450/378/215 233/377/214 510/381/218 58/744/514
f 234/766/536 452/745/515 58/744/514 510/381/218
f 522/438/275 234/766/536 510/381/218 94/380/217
f 234/766/536 522/438/275 93/442/279 509/767/537
f 452/745/515 234/766/536 509/767/537 59/746/516
f 235/768/538 454/747/517 59/746/516 509/767/537
f 523/444/281 235/768/538 509/767/537 93/442/279
f 235/768/538 523/444/281 92/448/285 508/769/539
f 454/747/517 235/768/538 508/769/539 60/748/518
f 236/770/540 456/749/519 60/748/518 508/769/539
f 524/450/287 236/770/540 508/769/539 92/448/285
f 236/770/540 524/450/287 91/454/291 507/771/541
f 456/749/519 236/770/540 507/771/541 61/750/520
f 237/772/542 458/751/521 61/750/520 507/771/541
f 525/456/293 237/772/542 507/771/541 91/454/291
f 237/772/542 525/456/293 90/460/297 506/773/543
f 458/751/521 237/772/542 506/773/543 62/752/522
f 238/774/544 460/753/523 62/752/522 506/773/543
f 526/462/299 238/774/544 506/773/543 90/460/297
f 238/774/544 526/462/299 89/466/303 505/775/545
f 460/753/523 238/774/544 505/775/545 63/754/524
f 239/384/221 462/755/525 63/754/524 505/775/545
f 527/385/222 239/384/221 505/775/545 89/466/303
f 462/755/525 239/384/221 504/383/220 64/386/223
f 270/530/367 558/349/186 105/352/189 537/527/364
f 271/534/371 559/351/188 104/358/195 536/531/368
