# Blender 4.5.3 LTS
# www.blender.org
o Special
v 4.548257 -13.872564 -25.046463
v 0.002140 -12.400387 -29.678600
v -1.726226 -12.513037 -29.321762
v -3.197874 -12.835205 -28.305283
v -4.184330 -13.314766 -26.793552
v -4.531029 -13.869564 -25.045555
v 4.201538 -13.317530 -26.794430
v 1.741109 -12.514185 -29.322128
v 3.214974 -12.837320 -28.305939
v 0.002171 -15.313700 -20.501659
v -1.727609 -15.203487 -20.846870
v -3.199200 -14.890776 -21.830242
v -4.184656 -14.422615 -23.303837
v 1.742693 -15.204752 -20.846855
v 3.216414 -14.893074 -21.830318
v 4.201875 -14.425486 -23.304363
v 4.576715 -13.123993 -24.935081
v 0.000160 -11.642221 -29.594070
v -1.750889 -11.755756 -29.233807
v -3.235436 -12.080248 -28.209660
v -4.227382 -12.562317 -26.690067
v -4.575714 -13.119843 -24.933807
v 4.228362 -12.566141 -26.691277
v 1.751593 -11.757345 -29.234318
v 3.236309 -12.083178 -28.210583
v 0.000188 -14.574192 -20.361000
v -1.750800 -14.462748 -20.709206
v -3.235379 -14.147335 -21.700153
v -4.227373 -13.675968 -23.183018
v 1.751685 -14.464453 -20.709335
v 3.236367 -14.150440 -21.700535
v 4.228369 -13.679901 -23.183907
v 4.576716 -12.180334 -24.935081
v 0.000160 -10.698559 -29.594070
v -1.750889 -10.812099 -29.233807
v -3.235436 -11.136589 -28.209660
v -4.227382 -11.618658 -26.690067
v -4.575714 -12.176184 -24.933807
v 4.228362 -11.622482 -26.691277
v 1.751593 -10.813683 -29.234318
v 3.236309 -11.139515 -28.210583
v 0.000188 -13.630533 -20.361000
v -1.750800 -13.519089 -20.709206
v -3.235379 -13.203676 -21.700153
v -4.227373 -12.732307 -23.183018
v 1.751685 -13.520794 -20.709335
v 3.236367 -13.206783 -21.700535
v 4.228370 -12.736242 -23.183891
v 0.014922 -12.667387 -29.574520
v -1.562383 -12.768723 -29.250473
v -2.941975 -13.064499 -28.311756
v -3.863877 -13.524326 -26.864922
v -4.188576 -14.059179 -25.180954
v -3.866534 -14.589760 -23.507240
v -2.951867 -15.034227 -22.104134
v -1.573110 -15.322973 -21.199543
v 0.014930 -15.423685 -20.885799
v 1.677201 -15.323757 -21.199833
v 3.069573 -15.035641 -22.104324
v 3.984454 -14.591616 -23.507828
v 4.306698 -14.061226 -25.181831
v 3.981791 -13.526262 -26.865543
v 3.059590 -13.065998 -28.312061
v 1.666410 -12.769773 -29.250473
v -2.407453 -13.374422 -27.807892
v -1.387156 -13.283619 -28.114754
v 0.017630 -13.246220 -28.237377
v 1.510081 -13.284775 -28.114780
v 2.548453 -13.376381 -27.808216
v -2.719812 -13.717958 -26.742058
v -1.407015 -13.721107 -26.748341
v 0.016917 -13.714067 -26.771431
v 1.525409 -13.721758 -26.748531
v 2.859108 -13.719835 -26.742615
v -2.846570 -14.189867 -25.256626
v -1.433720 -14.191368 -25.266464
v 0.016797 -14.190510 -25.269989
v 1.551342 -14.192026 -25.266609
v 2.985648 -14.191790 -25.257454
v -2.722798 -14.658712 -23.777622
v -1.408969 -14.660021 -23.790077
v 0.016928 -14.665493 -23.773682
v 1.527433 -14.660706 -23.790142
v 2.862151 -14.660452 -23.778389
v -2.414774 -14.986601 -22.727047
v -1.393291 -15.084558 -22.438389
v 0.017616 -15.122385 -22.322891
v 1.516150 -15.085402 -22.438881
v 2.555843 -14.988171 -22.727890
v -2.691937 -13.230305 -28.125580
v -3.380136 -13.650230 -26.818115
v -3.616103 -14.153662 -25.241348
v -3.384754 -14.648510 -23.670258
v -2.703976 -15.049231 -22.389763
v -1.452216 -15.268358 -21.726978
v 0.019405 -15.343388 -21.507484
v 1.586479 -15.269684 -21.729847
v 2.850653 -15.051569 -22.392567
v 3.532722 -14.652235 -23.674007
v 3.765108 -14.158508 -25.244663
v 3.528006 -13.655069 -26.819786
v 2.838665 -13.234169 -28.125832
v 1.573754 -13.023466 -28.823753
v 0.019611 -12.953575 -29.057247
v -1.438287 -13.019903 -28.824566
v -0.892372 -12.293470 -29.502197
v 0.892842 -12.294271 -29.502453
v 2.542339 -12.519228 -28.796673
v 3.804735 -12.932514 -27.497196
v 4.487940 -13.463030 -25.827629
v 4.487940 -14.029922 -24.042408
v 3.804764 -14.553099 -22.393764
v 2.542425 -14.952932 -21.132626
v 0.892898 -15.168941 -20.449829
v -0.892318 -15.168068 -20.449764
v -2.541438 -14.950474 -21.132420
v -3.803772 -14.549500 -22.393158
v -4.486938 -14.025810 -24.041290
v -4.486940 -13.458971 -25.826355
v -3.803802 -12.929071 -27.496109
v -2.541521 -12.516928 -28.795937
v -0.892372 -11.229418 -29.502197
v 0.892842 -11.230225 -29.502453
v 2.542338 -11.455175 -28.796673
v 3.804734 -11.868464 -27.497196
v 4.487940 -12.398977 -25.827629
v 4.487940 -12.965868 -24.042408
v 3.804764 -13.489044 -22.393764
v 2.542425 -13.888885 -21.132626
v 0.892898 -14.104891 -20.449829
v -0.892318 -14.104021 -20.449780
v -2.541438 -13.886421 -21.132420
v -3.803772 -13.485453 -22.393158
v -4.486939 -12.961756 -24.041290
v -4.486940 -12.394918 -25.826355
v -3.803802 -11.865023 -27.496109
v -2.541521 -11.452881 -28.795937
v -2.411487 -12.793137 -28.873768
v -3.639792 -13.195200 -27.606007
v -4.309539 -13.714851 -25.968227
v 2.484226 -15.172470 -21.381432
v 3.709501 -14.783743 -22.607197
v 4.376234 -14.272539 -24.218391
v -2.051007 -13.506386 -27.424744
v -0.702986 -13.472698 -27.531693
v 0.771134 -13.473032 -27.531784
v 2.188251 -13.507376 -27.425064
v -2.165720 -13.955542 -26.009247
v -0.706315 -13.955027 -26.011539
v 0.773452 -13.955339 -26.011639
v 2.301571 -13.956570 -26.009514
v -2.166813 -14.429466 -24.516033
v -0.706787 -14.425886 -24.527958
v 0.773944 -14.426208 -24.528023
v 2.302691 -14.430517 -24.516220
v -2.055335 -14.874920 -23.112942
v -0.704919 -14.905148 -23.018482
v 0.773142 -14.905502 -23.018482
v 2.192691 -14.875992 -23.113003
v -0.839307 -12.577040 -29.555927
v -4.309922 -14.270380 -24.217930
v -3.643199 -14.781799 -22.607182
v -2.417877 -15.171120 -21.381592
v -0.842671 -15.381025 -20.721600
v 0.875911 -15.381489 -20.721535
v 4.375860 -13.716946 -25.968864
v 3.706049 -13.196976 -27.606552
v 2.477619 -12.794317 -28.874161
v 0.872384 -12.577456 -29.556053
v -0.753819 -12.829252 -29.283997
v 0.827680 -12.830700 -29.283646
v 2.339486 -13.001064 -28.726231
v 3.433342 -13.357798 -27.597107
v 3.990540 -13.853443 -26.050453
v 3.992130 -14.379381 -24.391766
v 3.441458 -14.858027 -22.866512
v 2.353619 -15.204010 -21.776882
v 0.835286 -15.377918 -21.244278
v -0.761891 -15.377356 -21.243179
v -2.210282 -15.202526 -21.775078
v -3.300355 -14.855642 -22.864452
v -3.849546 -14.376055 -24.389244
v -3.847980 -13.849720 -26.048637
v -3.292341 -13.354609 -27.596428
v -2.195762 -12.998276 -28.726471
v -0.713684 -13.100626 -28.664703
v 0.789119 -13.102135 -28.664337
v 2.191197 -13.202528 -28.327690
v 3.046797 -13.479815 -27.449066
v 3.386786 -13.933987 -26.033039
v 3.388630 -14.427605 -24.476402
v 3.053907 -14.867767 -23.072720
v 2.202085 -15.138536 -22.220215
v 0.794743 -15.243891 -21.903412
v -0.719825 -15.243282 -21.902248
v -2.055415 -15.136938 -22.218239
v -2.909439 -14.865269 -23.070518
v -3.243101 -14.424183 -24.473785
v -3.241297 -13.930157 -26.031223
v -2.902453 -13.476471 -27.448299
v -2.044091 -13.199591 -28.327896
v -1.750889 -12.378273 -29.233807
v -0.892372 -11.670956 -29.502197
v 0.000160 -12.264732 -29.594070
v -0.879159 -12.428928 -29.587677
v 0.892842 -11.671762 -29.502453
v 1.751593 -12.379854 -29.234318
v 2.542339 -11.896715 -28.796673
v 3.236309 -12.705687 -28.210583
v 2.526107 -12.652287 -28.888008
v 3.804734 -12.310005 -27.497196
v 4.228364 -13.188650 -26.691277
v 3.780012 -13.062761 -27.596455
v 4.487940 -12.840521 -25.827629
v 4.576716 -13.746500 -24.935081
v 4.459868 -13.590521 -25.934799
v 4.487940 -13.407412 -24.042408
v 4.228370 -14.302412 -23.183891
v 4.459961 -14.154507 -24.158237
v 3.804764 -13.930588 -22.393764
v 3.236367 -14.772953 -21.700535
v 3.780896 -14.674665 -22.518940
v 2.542425 -14.330425 -21.132626
v 1.751685 -15.086964 -20.709316
v 2.527822 -15.071756 -21.266670
v 0.000188 -15.196699 -20.361000
v 0.888598 -15.286102 -20.589630
v -0.892318 -14.545557 -20.449780
v -1.750800 -15.085258 -20.709206
v -0.879958 -15.285456 -20.589645
v -2.541438 -14.327965 -21.132420
v -3.235379 -14.769844 -21.700153
v -2.510600 -15.069931 -21.266670
v -3.803772 -13.926991 -22.393158
v -4.227373 -14.298479 -23.183018
v -3.763681 -14.672016 -22.518669
v -4.486939 -13.403294 -24.041290
v -4.575714 -13.742353 -24.933807
v -4.442736 -14.151512 -24.157486
v -4.486940 -12.836462 -25.826355
v -4.227382 -13.184824 -26.690067
v -4.442641 -13.587584 -25.933891
v -3.803802 -12.306562 -27.496109
v -3.235436 -12.702763 -28.209660
v -3.762852 -13.060278 -27.595657
v -2.541521 -11.894417 -28.795937
v -2.509065 -12.650629 -28.887463
v -1.750889 -11.314222 -29.233807
v -0.892372 -10.727301 -29.502197
v 0.000160 -11.200680 -29.594070
v 0.892842 -10.728104 -29.502453
v 1.751593 -11.315802 -29.234318
v 2.542338 -10.953058 -28.796673
v 3.236309 -11.641634 -28.210583
v 3.804734 -11.366343 -27.497196
v 4.228362 -12.124599 -26.691277
v 4.487940 -11.896860 -25.827629
v 4.576716 -12.682451 -24.935081
v 4.487940 -12.463753 -24.042408
v 4.228370 -13.238363 -23.183891
v 3.804764 -12.986931 -22.393764
v 3.236367 -13.708900 -21.700535
v 2.542425 -13.386766 -21.132626
v 1.751685 -14.022911 -20.709335
v 0.892898 -13.602770 -20.449829
v 0.000188 -14.132650 -20.361000
v -0.892318 -13.601900 -20.449780
v -1.750800 -14.021208 -20.709206
v -2.541438 -13.384304 -21.132420
v -3.235379 -13.705799 -21.700153
v -3.803772 -12.983332 -22.393158
v -4.227373 -13.234426 -23.183018
v -4.486939 -12.459641 -24.041290
v -4.575714 -12.678297 -24.933807
v -4.486940 -11.892799 -25.826355
v -4.227382 -12.120773 -26.690067
v -3.803802 -11.362904 -27.496109
v -3.235436 -11.638708 -28.209660
v -2.541521 -10.950758 -28.795937
v -1.652026 -12.658886 -29.297379
v -2.292523 -12.893486 -28.853386
v -3.084979 -12.973877 -28.303764
v -3.470908 -13.279060 -27.636070
v -4.054965 -13.445919 -26.815739
v -4.105433 -13.787477 -26.036804
v -4.396772 -13.992748 -25.092598
v 1.715925 -15.302233 -20.971966
v 2.422491 -15.201672 -21.582409
v 3.156767 -14.997784 -21.932358
v 3.594876 -14.829205 -22.756470
v 4.122599 -14.539076 -23.378410
v 4.224372 -14.332106 -24.327461
v 4.463091 -13.994900 -25.093208
v -2.012807 -13.323809 -27.984249
v -1.391525 -13.487322 -27.485203
v -2.116156 -13.724548 -26.737194
v -2.586345 -13.509550 -27.396961
v -0.707131 -13.256416 -28.203468
v 0.017078 -13.466589 -27.551468
v -0.702348 -13.716547 -26.763123
v 0.777488 -13.257046 -28.203453
v 1.510939 -13.487978 -27.485394
v 2.153046 -13.325281 -27.984425
v 2.725921 -13.511299 -27.397396
v 2.252524 -13.725559 -26.737446
v -1.424364 -13.956047 -26.007969
v -2.186880 -14.192724 -25.261871
v -2.811121 -13.948559 -26.016598
v 0.016825 -13.954208 -26.014603
v -0.709567 -14.190636 -25.269127
v 1.542167 -13.956703 -26.008129
v 2.950248 -13.950485 -26.017330
v 2.322568 -14.193768 -25.262146
v -1.425228 -14.426292 -24.526318
v -2.118604 -14.659082 -23.792709
v -2.812465 -14.430420 -24.498173
v 0.016830 -14.426453 -24.526638
v -0.703422 -14.663231 -23.780315
v 1.543062 -14.426962 -24.526428
v 2.951617 -14.432268 -24.499016
v 2.255034 -14.660151 -23.792820
v -1.395023 -14.891750 -23.060265
v -2.019955 -15.044893 -22.560261
v -2.591569 -14.863234 -23.131424
v 0.017096 -14.911081 -23.000301
v -0.710610 -15.111780 -22.354946
v 1.514560 -14.892462 -23.060295
v 2.731240 -14.864838 -23.132000
v 2.160197 -15.046099 -22.560787
v 0.008289 -12.549322 -29.643974
v -0.791386 -12.692909 -29.492371
v -4.056295 -14.536985 -23.378170
v -4.106303 -14.330120 -24.326633
v -3.090453 -14.996090 -21.932484
v -3.477186 -14.827539 -22.756119
v -1.657828 -15.301294 -20.972092
v -2.304180 -15.200548 -21.582184
v 0.008330 -15.408388 -20.636086
v -0.797637 -15.397949 -20.965572
v 0.857278 -15.398352 -20.965778
v 4.121270 -13.447893 -26.816341
v 4.223506 -13.789509 -26.037582
v 3.151174 -12.975382 -28.304245
v 3.588546 -13.280792 -27.636536
v 1.709864 -12.659700 -29.297630
v 2.410742 -12.894804 -28.853546
v -0.727597 -12.970015 -28.997490
v -1.491244 -12.893026 -29.072464
v 0.018494 -12.808100 -29.356079
v 1.619442 -12.895535 -29.071938
v 0.805895 -12.972086 -28.996933
v 2.955043 -13.153183 -28.237583
v 2.265684 -13.105621 -28.544968
v 3.249673 -13.424725 -27.531708
v 3.777478 -13.597137 -26.852242
v 3.702958 -13.902996 -26.047249
v 4.064700 -14.117319 -25.220634
v 3.781494 -14.629625 -23.596245
v 3.705034 -14.411610 -24.442608
v 2.967131 -15.053263 -22.245655
v 3.258158 -14.870319 -22.971931
v 2.279509 -15.181711 -21.992001
v 1.632485 -15.311739 -21.447361
v 0.813309 -15.324478 -21.565552
v 0.018377 -15.400476 -21.174076
v -1.504963 -15.310671 -21.445541
v -0.735830 -15.323772 -21.563862
v -2.826021 -15.051374 -22.243965
v -2.129571 -15.179874 -21.989067
v -3.111512 -14.867311 -22.968719
v -3.639468 -14.626732 -23.593822
v -3.556278 -14.407230 -24.438843
v -3.921934 -14.113695 -25.218334
v -3.635507 -13.593559 -26.851028
v -3.554251 -13.897989 -26.044697
v -2.813940 -13.150356 -28.237343
v -3.103170 -13.420406 -27.530781
v -2.115022 -13.101740 -28.545395
v 0.018898 -13.087414 -28.711845
v -1.403167 -13.138962 -28.533276
v 1.534160 -13.141581 -28.532795
v 2.711616 -13.307701 -27.987118
v 3.253076 -13.696152 -26.776649
v 3.435959 -14.181686 -25.254284
v 3.257160 -14.660164 -23.736748
v 2.721380 -15.033026 -22.546467
v 1.543912 -15.202694 -22.027885
v 0.018768 -15.258595 -21.857849
v -1.413673 -15.201542 -22.025936
v -2.576765 -15.031006 -22.544601
v -3.112023 -14.657175 -23.734165
v -3.290312 -14.177950 -25.251953
v -3.108022 -13.692444 -26.775406
v -2.567004 -13.304703 -27.986801
v 0.887675 -12.429506 -29.587872
v 0.892898 -14.546429 -20.449829
v 0.769855 -13.716867 -26.763206
v 0.776593 -14.190960 -25.269192
v 0.770972 -14.663570 -23.780365
v 0.780913 -15.112213 -22.355217
v 0.850995 -12.693489 -29.492329
vn -0.3999 0.0763 -0.9134
vn -0.4205 0.2262 -0.8786
vn -0.2172 0.2611 -0.9406
vn -0.2084 0.1397 -0.9680
vn -0.3935 -0.0000 -0.9193
vn -0.2014 -0.0000 -0.9795
vn -0.0002 -0.0000 -1.0000
vn -0.0005 0.2745 -0.9616
vn -0.0011 0.1671 -0.9859
vn 0.2152 0.2680 -0.9391
vn 0.2048 0.1633 -0.9651
vn 0.2011 -0.0000 -0.9796
vn 0.3932 -0.0000 -0.9195
vn 0.4179 0.2453 -0.8748
vn 0.3990 0.1381 -0.9065
vn 0.5964 0.2074 -0.7754
vn 0.5721 0.0897 -0.8153
vn 0.5675 -0.0000 -0.8234
vn 0.7171 -0.0000 -0.6969
vn 0.7442 0.1567 -0.6493
vn 0.7138 0.0188 -0.7001
vn 0.8571 0.0986 -0.5056
vn 0.8203 -0.0657 -0.5682
vn 0.8374 -0.0000 -0.5467
vn 0.9257 -0.0000 -0.3783
vn 0.9365 0.0361 -0.3488
vn 0.8914 -0.1553 -0.4258
vn 0.9829 -0.0290 -0.1819
vn 0.9288 -0.2484 -0.2750
vn 0.9809 -0.0000 -0.1943
vn 1.0000 -0.0000 -0.0000
vn 0.9954 -0.0950 -0.0079
vn 0.9321 -0.3415 -0.1207
vn 0.9735 -0.1587 0.1649
vn 0.9017 -0.4312 0.0307
vn 0.9808 -0.0000 0.1951
vn 0.9238 -0.0000 0.3828
vn 0.9173 -0.2189 0.3327
vn 0.8402 -0.5138 0.1734
vn 0.8283 -0.2736 0.4889
vn 0.7495 -0.5883 0.3036
vn 0.8312 -0.0000 0.5559
vn 0.7068 -0.0000 0.7074
vn 0.7077 -0.3218 0.6289
vn 0.6332 -0.6526 0.4162
vn 0.5592 -0.3621 0.7457
vn 0.4936 -0.7070 0.5064
vn 0.5553 -0.0000 0.8317
vn 0.3825 -0.0000 0.9240
vn 0.3867 -0.3936 0.8340
vn 0.3361 -0.7512 0.5680
vn 0.1978 -0.4139 0.8886
vn 0.1694 -0.7808 0.6013
vn 0.1951 -0.0000 0.9808
vn -0.0000 -0.0000 1.0000
vn -0.0005 -0.4214 0.9069
vn -0.0011 -0.7929 0.6093
vn -0.1994 -0.4174 0.8866
vn -0.1711 -0.7921 0.5859
vn -0.1950 -0.0000 0.9808
vn -0.3825 -0.0000 0.9240
vn -0.3886 -0.4034 0.8284
vn -0.3294 -0.7827 0.5281
vn -0.5598 -0.3797 0.7365
vn -0.4696 -0.7616 0.4465
vn -0.5552 -0.0000 0.8317
vn -0.7067 -0.0000 0.7075
vn -0.7067 -0.3461 0.6171
vn -0.5920 -0.7269 0.3482
vn -0.8256 -0.3040 0.4753
vn -0.6942 -0.6800 0.2358
vn -0.8312 -0.0000 0.5560
vn -0.9238 -0.0000 0.3829
vn -0.9132 -0.2550 0.3180
vn -0.7753 -0.6217 0.1114
vn -0.9683 -0.1999 0.1497
vn -0.8328 -0.5532 -0.0221
vn -0.9808 -0.0000 0.1952
vn -1.0000 -0.0000 -0.0000
vn -0.9899 -0.1400 -0.0228
vn -0.8652 -0.4743 -0.1630
vn -0.9777 -0.0761 -0.1958
vn -0.8692 -0.3875 -0.3072
vn -0.9809 -0.0000 -0.1943
vn -0.9257 -0.0000 -0.3782
vn -0.9324 -0.0109 -0.3614
vn -0.8429 -0.2951 -0.4499
vn -0.8546 0.0543 -0.5165
vn -0.7848 -0.1998 -0.5867
vn -0.8374 -0.0000 -0.5465
vn -0.7172 -0.0000 -0.6968
vn -0.7435 0.1175 -0.6583
vn -0.6916 -0.1025 -0.7149
vn -0.5976 0.1765 -0.7821
vn -0.5626 -0.0087 -0.8267
vn -0.5676 -0.0000 -0.8233
vn -0.3860 -0.0000 -0.9225
vn -0.1974 -0.0000 -0.9803
vn -0.0001 -0.0000 -1.0000
vn 0.1970 -0.0000 -0.9804
vn 0.3856 -0.0000 -0.9227
vn 0.5581 -0.0000 -0.8298
vn 0.7072 -0.0000 -0.7071
vn 0.8286 -0.0000 -0.5598
vn 0.9189 -0.0000 -0.3945
vn 0.9772 -0.0000 -0.2125
vn 0.9998 -0.0000 -0.0194
vn 0.9842 -0.0000 0.1768
vn 0.9305 -0.0000 0.3663
vn 0.8399 -0.0000 0.5427
vn 0.7164 -0.0000 0.6977
vn 0.5640 -0.0000 0.8258
vn 0.3893 -0.0000 0.9211
vn 0.1987 -0.0000 0.9801
vn -0.1987 -0.0000 0.9801
vn -0.3894 -0.0000 0.9211
vn -0.5640 -0.0000 0.8258
vn -0.7163 -0.0000 0.6978
vn -0.8399 -0.0000 0.5428
vn -0.9305 -0.0000 0.3663
vn -0.9842 -0.0000 0.1769
vn -0.9998 -0.0000 -0.0194
vn -0.9772 -0.0000 -0.2125
vn -0.9189 -0.0000 -0.3944
vn -0.8287 -0.0000 -0.5597
vn -0.7073 -0.0000 -0.7069
vn -0.5584 -0.0000 -0.8296
vn -0.3057 -0.4300 -0.8495
vn -0.4211 -0.4878 -0.7647
vn -0.1917 -0.6954 -0.6926
vn -0.2780 -0.7070 -0.6503
vn -0.3450 -0.7358 -0.5828
vn -0.5017 -0.5575 -0.6614
vn -0.5451 -0.6304 -0.5527
vn -0.3649 -0.7893 -0.4937
vn -0.3522 -0.8396 -0.4135
vn -0.5643 -0.6933 -0.4483
vn -0.5701 -0.7445 -0.3473
vn -0.3358 -0.8755 -0.3475
vn -0.3226 -0.9011 -0.2896
vn -0.5655 -0.7867 -0.2477
vn 0.2514 -0.9117 0.3251
vn 0.3744 -0.8821 0.2860
vn 0.1296 -0.9915 0.0064
vn 0.2106 -0.9775 0.0082
vn 0.2903 -0.9568 -0.0176
vn 0.4841 -0.8471 0.2193
vn 0.5706 -0.8114 0.1265
vn 0.3394 -0.9373 -0.0793
vn 0.3609 -0.9203 -0.1507
vn 0.6319 -0.7748 0.0181
vn 0.6720 -0.7342 -0.0968
vn 0.3764 -0.9006 -0.2174
vn 0.3935 -0.8746 -0.2833
vn 0.6945 -0.6867 -0.2146
vn -0.0289 -0.9450 -0.3259
vn -0.0154 -0.9459 -0.3240
vn -0.0063 -0.9516 -0.3074
vn -0.0280 -0.9486 -0.3154
vn -0.0059 -0.9480 -0.3182
vn -0.0009 -0.9523 -0.3053
vn -0.0002 -0.9532 -0.3024
vn -0.0042 -0.9530 -0.3031
vn -0.0230 -0.9513 -0.3074
vn -0.0028 -0.9494 -0.3140
vn -0.0006 -0.9525 -0.3046
vn -0.0005 -0.9500 -0.3124
vn -0.0003 -0.9526 -0.3043
vn 0.0017 -0.9497 -0.3131
vn -0.0000 -0.9525 -0.3044
vn 0.0047 -0.9485 -0.3166
vn 0.0003 -0.9524 -0.3050
vn -0.0003 -0.9532 -0.3024
vn 0.0136 -0.9467 -0.3219
vn 0.0052 -0.9517 -0.3069
vn 0.0259 -0.9457 -0.3239
vn 0.0245 -0.9490 -0.3144
vn 0.0195 -0.9515 -0.3071
vn 0.0032 -0.9530 -0.3030
vn -0.0036 -0.9531 -0.3028
vn -0.0195 -0.9523 -0.3047
vn -0.0001 -0.9532 -0.3025
vn -0.0001 -0.9531 -0.3025
vn -0.0035 -0.9531 -0.3025
vn -0.0185 -0.9530 -0.3024
vn -0.0002 -0.9532 -0.3025
vn -0.0002 -0.9531 -0.3025
vn -0.0003 -0.9532 -0.3025
vn -0.0004 -0.9531 -0.3025
vn -0.0003 -0.9531 -0.3025
vn 0.0026 -0.9531 -0.3028
vn 0.0160 -0.9524 -0.3045
vn 0.0151 -0.9531 -0.3024
vn 0.0024 -0.9531 -0.3025
vn -0.0037 -0.9532 -0.3022
vn -0.0197 -0.9537 -0.3001
vn -0.0001 -0.9531 -0.3026
vn -0.0043 -0.9533 -0.3019
vn -0.0235 -0.9545 -0.2973
vn -0.0002 -0.9531 -0.3026
vn -0.0003 -0.9531 -0.3026
vn 0.0027 -0.9532 -0.3022
vn 0.0164 -0.9537 -0.3003
vn 0.0203 -0.9545 -0.2975
vn 0.0033 -0.9533 -0.3020
vn -0.0064 -0.9548 -0.2972
vn -0.0287 -0.9570 -0.2886
vn -0.0009 -0.9542 -0.2992
vn -0.0058 -0.9589 -0.2836
vn -0.0155 -0.9604 -0.2782
vn -0.0295 -0.9605 -0.2767
vn -0.0005 -0.9540 -0.2999
vn -0.0003 -0.9539 -0.3001
vn -0.0004 -0.9574 -0.2887
vn -0.0028 -0.9578 -0.2874
vn -0.0000 -0.9539 -0.3000
vn 0.0003 -0.9541 -0.2994
vn 0.0047 -0.9586 -0.2846
vn 0.0018 -0.9576 -0.2879
vn 0.0054 -0.9547 -0.2975
vn 0.0257 -0.9569 -0.2894
vn 0.0270 -0.9602 -0.2781
vn 0.0140 -0.9600 -0.2795
vn -0.1622 -0.3852 -0.9085
vn -0.0986 -0.6863 -0.7206
vn -0.0005 -0.3626 -0.9319
vn 0.0002 -0.6800 -0.7332
vn -0.3023 -0.9365 -0.1775
vn -0.5223 -0.8512 -0.0509
vn -0.5497 -0.8219 -0.1493
vn -0.3116 -0.9208 -0.2345
vn -0.2519 -0.9661 -0.0557
vn -0.4164 -0.8986 0.1383
vn -0.4795 -0.8763 0.0465
vn -0.2885 -0.9506 -0.1146
vn -0.1237 -0.9922 -0.0126
vn -0.2342 -0.9309 0.2804
vn -0.3329 -0.9178 0.2165
vn -0.1895 -0.9816 -0.0234
vn -0.0005 -1.0000 -0.0034
vn 0.0001 -0.9386 0.3451
vn -0.1220 -0.9376 0.3256
vn -0.0615 -0.9981 -0.0068
vn 0.1252 -0.9311 0.3426
vn 0.0609 -0.9981 -0.0001
vn 0.4344 -0.7897 -0.4332
vn 0.6886 -0.5650 -0.4546
vn 0.6998 -0.6311 -0.3345
vn 0.4126 -0.8396 -0.3534
vn 0.4156 -0.6588 -0.6271
vn 0.5921 -0.4063 -0.6960
vn 0.6573 -0.4866 -0.5755
vn 0.4479 -0.7215 -0.5280
vn 0.2108 -0.6562 -0.7245
vn 0.3269 -0.3467 -0.8791
vn 0.4779 -0.3557 -0.8032
vn 0.3241 -0.6419 -0.6949
vn 0.1641 -0.3538 -0.9208
vn 0.1020 -0.6723 -0.7332
vn -0.0012 -0.9151 -0.4033
vn -0.0236 -0.9138 -0.4056
vn -0.0446 -0.8678 -0.4949
vn -0.0010 -0.8687 -0.4953
vn -0.0496 -0.9091 -0.4136
vn -0.0918 -0.8628 -0.4971
vn 0.0423 -0.8658 -0.4986
vn 0.0206 -0.9136 -0.4060
vn 0.0932 -0.8571 -0.5067
vn 0.0475 -0.9085 -0.4152
vn 0.1605 -0.8441 -0.5115
vn 0.0892 -0.9001 -0.4264
vn 0.2245 -0.8445 -0.4863
vn 0.1350 -0.8999 -0.4148
vn 0.1335 -0.9301 -0.3422
vn 0.1480 -0.9145 -0.3765
vn 0.2449 -0.8695 -0.4289
vn 0.2309 -0.8982 -0.3740
vn 0.1183 -0.9465 -0.3003
vn 0.1220 -0.9397 -0.3195
vn 0.2178 -0.9176 -0.3324
vn 0.2122 -0.9313 -0.2961
vn 0.2124 -0.9420 -0.2598
vn 0.1210 -0.9521 -0.2810
vn 0.2191 -0.9511 -0.2179
vn 0.1311 -0.9574 -0.2574
vn 0.2255 -0.9605 -0.1629
vn 0.1440 -0.9646 -0.2209
vn 0.2008 -0.9735 -0.1095
vn 0.1295 -0.9749 -0.1810
vn 0.0437 -0.9817 -0.1853
vn 0.0836 -0.9817 -0.1712
vn 0.1393 -0.9859 -0.0932
vn 0.0794 -0.9913 -0.1053
vn -0.0008 -0.9800 -0.1989
vn 0.0190 -0.9805 -0.1958
vn 0.0358 -0.9926 -0.1164
vn -0.0007 -0.9927 -0.1202
vn -0.0379 -0.9922 -0.1190
vn -0.0213 -0.9804 -0.1961
vn -0.0792 -0.9905 -0.1126
vn -0.0456 -0.9814 -0.1865
vn -0.1317 -0.9857 -0.1053
vn -0.0832 -0.9814 -0.1730
vn -0.1859 -0.9748 -0.1235
vn -0.1277 -0.9748 -0.1829
vn -0.1296 -0.9572 -0.2590
vn -0.1424 -0.9644 -0.2229
vn -0.2074 -0.9625 -0.1750
vn -0.2005 -0.9532 -0.2261
vn -0.1166 -0.9466 -0.3005
vn -0.1193 -0.9520 -0.2818
vn -0.1935 -0.9448 -0.2643
vn -0.1928 -0.9351 -0.2972
vn -0.1976 -0.9231 -0.3300
vn -0.1202 -0.9401 -0.3189
vn -0.2095 -0.9061 -0.3677
vn -0.1316 -0.9309 -0.3408
vn -0.2226 -0.8807 -0.4182
vn -0.1460 -0.9156 -0.3746
vn -0.2048 -0.8572 -0.4726
vn -0.1325 -0.9011 -0.4129
vn -0.0882 -0.9011 -0.4245
vn -0.1491 -0.8544 -0.4978
vn -0.0100 -0.9386 -0.3447
vn -0.0215 -0.9352 -0.3535
vn -0.0010 -0.9398 -0.3416
vn 0.0076 -0.9391 -0.3435
vn 0.0190 -0.9361 -0.3513
vn 0.0409 -0.9310 -0.3627
vn 0.0692 -0.9305 -0.3597
vn 0.0743 -0.9384 -0.3375
vn 0.0628 -0.9454 -0.3198
vn 0.0543 -0.9492 -0.3099
vn 0.0520 -0.9519 -0.3019
vn 0.0549 -0.9543 -0.2938
vn 0.0639 -0.9569 -0.2834
vn 0.0757 -0.9616 -0.2639
vn 0.0701 -0.9686 -0.2386
vn 0.0407 -0.9713 -0.2344
vn 0.0188 -0.9691 -0.2460
vn 0.0077 -0.9672 -0.2541
vn -0.0007 -0.9666 -0.2561
vn -0.0095 -0.9673 -0.2533
vn -0.0208 -0.9694 -0.2447
vn -0.0427 -0.9717 -0.2324
vn -0.0732 -0.9689 -0.2366
vn -0.0801 -0.9615 -0.2628
vn -0.0686 -0.9567 -0.2830
vn -0.0598 -0.9541 -0.2936
vn -0.0571 -0.9516 -0.3019
vn -0.0595 -0.9488 -0.3101
vn -0.0681 -0.9449 -0.3203
vn -0.0795 -0.9375 -0.3387
vn -0.0731 -0.9292 -0.3624
vn -0.0433 -0.9297 -0.3657
vt 0.934893 0.006126
vt 0.934696 0.005608
vt 0.937741 0.005359
vt 0.937845 0.005898
vt 0.934727 0.003516
vt 0.937762 0.003267
vt 0.940786 0.003195
vt 0.940776 0.005287
vt 0.940786 0.005825
vt 0.943822 0.005390
vt 0.943739 0.005929
vt 0.943811 0.003298
vt 0.946846 0.003578
vt 0.946867 0.005670
vt 0.946712 0.006188
vt 0.949933 0.006116
vt 0.949705 0.006613
vt 0.949902 0.004013
vt 0.952968 0.004593
vt 0.953009 0.006696
vt 0.952740 0.007172
vt 0.956106 0.007390
vt 0.955796 0.007856
vt 0.956065 0.005297
vt 0.959152 0.006084
vt 0.959204 0.008177
vt 0.958862 0.008622
vt 0.962270 0.009016
vt 0.961918 0.009461
vt 0.962208 0.006923
vt 0.965253 0.007783
vt 0.965315 0.009876
vt 0.964953 0.010321
vt 0.968360 0.010746
vt 0.968008 0.011202
vt 0.968298 0.008643
vt 0.971344 0.009482
vt 0.971395 0.011574
vt 0.971054 0.012051
vt 0.974420 0.012341
vt 0.974109 0.012838
vt 0.974379 0.010248
vt 0.977403 0.010922
vt 0.977434 0.013024
vt 0.977155 0.013553
vt 0.980449 0.013584
vt 0.980210 0.014143
vt 0.980428 0.011491
vt 0.983442 0.011926
vt 0.983442 0.014019
vt 0.983276 0.014599
vt 0.986436 0.014299
vt 0.986342 0.014899
vt 0.986456 0.012206
vt 0.989481 0.012341
vt 0.989440 0.014454
vt 0.989367 0.015065
vt 0.892227 0.015096
vt 0.892165 0.014475
vt 0.895179 0.014330
vt 0.895251 0.014941
vt 0.892144 0.012372
vt 0.895158 0.012237
vt 0.898172 0.011947
vt 0.898172 0.014040
vt 0.898297 0.014640
vt 0.901166 0.013605
vt 0.901363 0.014185
vt 0.901187 0.011512
vt 0.904201 0.010932
vt 0.904180 0.013024
vt 0.904429 0.013584
vt 0.907195 0.012331
vt 0.907485 0.012859
vt 0.907226 0.010238
vt 0.910250 0.009451
vt 0.910209 0.011543
vt 0.910551 0.012040
vt 0.913244 0.010694
vt 0.913606 0.011170
vt 0.913285 0.008601
vt 0.916331 0.007711
vt 0.916279 0.009813
vt 0.916652 0.010269
vt 0.919324 0.008933
vt 0.919697 0.009378
vt 0.919366 0.006841
vt 0.922432 0.005991
vt 0.922380 0.008084
vt 0.922742 0.008529
vt 0.925467 0.007296
vt 0.925808 0.007752
vt 0.925518 0.005194
vt 0.928605 0.004500
vt 0.928564 0.006602
vt 0.928874 0.007068
vt 0.931640 0.006033
vt 0.931899 0.006519
vt 0.931671 0.003940
vt 0.934748 0.002034
vt 0.937783 0.001775
vt 0.934768 0.000336
vt 0.937793 0.000087
vt 0.940807 0.000014
vt 0.940797 0.001703
vt 0.943811 0.001806
vt 0.943811 0.000118
vt 0.946836 0.000398
vt 0.946836 0.002086
vt 0.949881 0.002532
vt 0.949860 0.000843
vt 0.952916 0.001423
vt 0.952947 0.003112
vt 0.956024 0.003816
vt 0.955993 0.002117
vt 0.959069 0.002904
vt 0.959110 0.004603
vt 0.962166 0.005432
vt 0.962125 0.003743
vt 0.965160 0.004614
vt 0.965211 0.006302
vt 0.968257 0.007162
vt 0.968215 0.005473
vt 0.971261 0.006302
vt 0.971302 0.007990
vt 0.974347 0.008757
vt 0.974306 0.007068
vt 0.977351 0.007752
vt 0.977382 0.009441
vt 0.980417 0.010010
vt 0.980397 0.008311
vt 0.983442 0.008747
vt 0.983442 0.010435
vt 0.986467 0.010725
vt 0.986477 0.009037
vt 0.989502 0.009161
vt 0.989491 0.010849
vt 0.892123 0.010880
vt 0.895148 0.010756
vt 0.892113 0.009192
vt 0.895138 0.009057
vt 0.898172 0.008767
vt 0.898172 0.010466
vt 0.901197 0.010021
vt 0.901207 0.008332
vt 0.904242 0.007752
vt 0.904222 0.009451
vt 0.907246 0.008747
vt 0.907278 0.007058
vt 0.910323 0.006271
vt 0.910281 0.007959
vt 0.913327 0.007110
vt 0.913358 0.005422
vt 0.916403 0.004541
vt 0.916362 0.006229
vt 0.919407 0.005349
vt 0.919448 0.003661
vt 0.922504 0.002811
vt 0.922463 0.004500
vt 0.925550 0.003712
vt 0.925581 0.002024
vt 0.928667 0.001330
vt 0.928636 0.003018
vt 0.931702 0.002449
vt 0.931733 0.000760
vt 0.977685 0.169258
vt 0.978032 0.169691
vt 0.975434 0.171182
vt 0.974982 0.170817
vt 0.978378 0.170066
vt 0.975896 0.171442
vt 0.973683 0.173337
vt 0.973125 0.173193
vt 0.972596 0.172904
vt 0.971230 0.175675
vt 0.970652 0.175464
vt 0.971874 0.175714
vt 0.970527 0.178437
vt 0.969806 0.178475
vt 0.969200 0.178350
vt 0.968930 0.181486
vt 0.968305 0.181429
vt 0.969681 0.181361
vt 0.969373 0.184382
vt 0.968613 0.184594
vt 0.967978 0.184613
vt 0.989356 0.199949
vt 0.989183 0.199430
vt 0.991809 0.198015
vt 0.992088 0.198477
vt 0.989038 0.198670
vt 0.991569 0.197342
vt 0.993782 0.195514
vt 0.994118 0.196082
vt 0.994484 0.196466
vt 0.996023 0.193696
vt 0.996456 0.194003
vt 0.995571 0.193224
vt 0.996908 0.190569
vt 0.997447 0.190963
vt 0.997928 0.191175
vt 0.998332 0.187981
vt 0.998842 0.188106
vt 0.997745 0.187673
vt 0.998053 0.184652
vt 0.998659 0.184873
vt 0.999179 0.184912
vt 0.975501 0.175319
vt 0.976839 0.174723
vt 0.976685 0.176695
vt 0.974886 0.176772
vt 0.978946 0.174280
vt 0.978907 0.176503
vt 0.978830 0.179100
vt 0.976444 0.179120
vt 0.974414 0.179081
vt 0.981236 0.173992
vt 0.981226 0.176358
vt 0.983670 0.173895
vt 0.983651 0.176320
vt 0.983622 0.179072
vt 0.981197 0.179072
vt 0.986229 0.174040
vt 0.986181 0.176407
vt 0.988692 0.174376
vt 0.988673 0.176599
vt 0.988692 0.179197
vt 0.986152 0.179120
vt 0.990847 0.174857
vt 0.990943 0.176830
vt 0.992165 0.175483
vt 0.992752 0.176945
vt 0.993185 0.179254
vt 0.991145 0.179264
vt 0.976252 0.181688
vt 0.974077 0.181640
vt 0.978744 0.181717
vt 0.978686 0.184334
vt 0.976156 0.184325
vt 0.973933 0.184315
vt 0.981159 0.181727
vt 0.983593 0.181737
vt 0.983574 0.184373
vt 0.981130 0.184344
vt 0.986142 0.181775
vt 0.988730 0.181814
vt 0.988730 0.184430
vt 0.986123 0.184392
vt 0.991280 0.181833
vt 0.993464 0.181823
vt 0.993560 0.184498
vt 0.991328 0.184469
vt 0.976194 0.186961
vt 0.974020 0.186999
vt 0.978696 0.186951
vt 0.978724 0.189549
vt 0.976338 0.189510
vt 0.974299 0.189539
vt 0.981111 0.186961
vt 0.983545 0.186990
vt 0.983525 0.189645
vt 0.981101 0.189607
vt 0.986094 0.187009
vt 0.988682 0.187038
vt 0.988605 0.189635
vt 0.986056 0.189645
vt 0.991242 0.187105
vt 0.993425 0.187182
vt 0.993098 0.189722
vt 0.991049 0.189655
vt 0.976531 0.191916
vt 0.974722 0.191829
vt 0.978753 0.192118
vt 0.978734 0.194311
vt 0.976627 0.193859
vt 0.975309 0.193253
vt 0.981072 0.192291
vt 0.983497 0.192377
vt 0.983477 0.194764
vt 0.981024 0.194629
vt 0.986037 0.192339
vt 0.988538 0.192214
vt 0.988519 0.194408
vt 0.986046 0.194677
vt 0.990818 0.192050
vt 0.992637 0.191993
vt 0.992031 0.193407
vt 0.990693 0.193994
vt 0.980803 0.168796
vt 0.980985 0.169239
vt 0.980620 0.168306
vt 0.983670 0.167998
vt 0.983689 0.168508
vt 0.983708 0.168969
vt 0.970402 0.190319
vt 0.969709 0.190694
vt 0.968882 0.187702
vt 0.969623 0.187413
vt 0.969103 0.190877
vt 0.968247 0.187807
vt 0.973442 0.195322
vt 0.972923 0.195870
vt 0.971076 0.193455
vt 0.971691 0.192993
vt 0.972423 0.196216
vt 0.970508 0.193715
vt 0.978070 0.198564
vt 0.977762 0.199324
vt 0.975194 0.197842
vt 0.975617 0.197188
vt 0.977435 0.199805
vt 0.974761 0.198275
vt 0.983420 0.199718
vt 0.983391 0.200565
vt 0.980514 0.200238
vt 0.980678 0.199411
vt 0.983362 0.201113
vt 0.980341 0.200767
vt 0.986335 0.200296
vt 0.986267 0.199468
vt 0.986412 0.200834
vt 0.997014 0.178677
vt 0.997572 0.178725
vt 0.998400 0.181756
vt 0.997803 0.181621
vt 0.998073 0.178581
vt 0.998919 0.181698
vt 0.993955 0.173520
vt 0.994359 0.173366
vt 0.996216 0.175887
vt 0.995715 0.175935
vt 0.994763 0.173058
vt 0.996677 0.175666
vt 0.989269 0.170162
vt 0.989471 0.169787
vt 0.992079 0.171307
vt 0.991780 0.171586
vt 0.989683 0.169325
vt 0.992396 0.170913
vt 0.986633 0.168844
vt 0.986527 0.169287
vt 0.986739 0.168344
vt 0.983708 0.170961
vt 0.981188 0.171144
vt 0.981111 0.170076
vt 0.983718 0.169845
vt 0.978792 0.171731
vt 0.978619 0.170788
vt 0.986441 0.170124
vt 0.986354 0.171201
vt 0.989096 0.170894
vt 0.988932 0.171836
vt 0.991511 0.172135
vt 0.991251 0.172827
vt 0.993570 0.173876
vt 0.993156 0.174328
vt 0.995436 0.178956
vt 0.994522 0.176435
vt 0.995157 0.176156
vt 0.996293 0.178802
vt 0.996187 0.184536
vt 0.996004 0.181698
vt 0.996985 0.181640
vt 0.997207 0.184575
vt 0.996937 0.187509
vt 0.995956 0.187365
vt 0.996206 0.190309
vt 0.995350 0.190068
vt 0.995032 0.192878
vt 0.994407 0.192531
vt 0.993416 0.195052
vt 0.993012 0.194561
vt 0.988740 0.196871
vt 0.991078 0.195966
vt 0.991328 0.196688
vt 0.988884 0.197833
vt 0.983458 0.197611
vt 0.986133 0.197429
vt 0.986200 0.198525
vt 0.983439 0.198747
vt 0.980812 0.198477
vt 0.980918 0.197390
vt 0.978320 0.197736
vt 0.978513 0.196784
vt 0.975954 0.196553
vt 0.976242 0.195831
vt 0.973895 0.194869
vt 0.974318 0.194398
vt 0.972067 0.189857
vt 0.972961 0.192339
vt 0.972317 0.192666
vt 0.971201 0.190078
vt 0.971335 0.184305
vt 0.971518 0.187144
vt 0.970518 0.187259
vt 0.970296 0.184325
vt 0.970576 0.181400
vt 0.971576 0.181467
vt 0.971316 0.178562
vt 0.972192 0.178744
vt 0.972500 0.175935
vt 0.973144 0.176233
vt 0.974135 0.173693
vt 0.974549 0.174146
vt 0.976512 0.172683
vt 0.976233 0.171981
vt 0.981226 0.172346
vt 0.978907 0.172789
vt 0.983689 0.172212
vt 0.986287 0.172404
vt 0.988788 0.172885
vt 0.990982 0.173626
vt 0.992723 0.174848
vt 0.993839 0.176753
vt 0.994513 0.179129
vt 0.994936 0.181765
vt 0.995080 0.184517
vt 0.994888 0.187259
vt 0.994426 0.189866
vt 0.993714 0.192195
vt 0.992579 0.194042
vt 0.990818 0.195177
vt 0.988605 0.195841
vt 0.986075 0.196264
vt 0.983468 0.196399
vt 0.980985 0.196216
vt 0.978648 0.195754
vt 0.976502 0.195052
vt 0.974761 0.193878
vt 0.973654 0.192012
vt 0.972990 0.189674
vt 0.972577 0.187057
vt 0.972442 0.184305
vt 0.972634 0.181554
vt 0.973106 0.178927
vt 0.973827 0.176560
vt 0.974972 0.174675
vt 0.976743 0.173491
s 1
f 3/1/1 202/2/2 106/3/3 205/4/4
f 202/2/2 19/5/5 203/6/6 106/3/3
f 18/7/7 204/8/8 106/3/3 203/6/6
f 204/8/8 2/9/9 205/4/4 106/3/3
f 2/9/9 204/8/8 107/10/10 395/11/11
f 204/8/8 18/7/7 206/12/12 107/10/10
f 24/13/13 207/14/14 107/10/10 206/12/12
f 207/14/14 8/15/15 395/11/11 107/10/10
f 8/15/15 207/14/14 108/16/16 210/17/17
f 207/14/14 24/13/13 208/18/18 108/16/16
f 25/19/19 209/20/20 108/16/16 208/18/18
f 209/20/20 9/21/21 210/17/17 108/16/16
f 9/21/21 209/20/20 109/22/22 213/23/23
f 209/20/20 25/19/19 211/24/24 109/22/22
f 23/25/25 212/26/26 109/22/22 211/24/24
f 212/26/26 7/27/27 213/23/23 109/22/22
f 7/27/27 212/26/26 110/28/28 216/29/29
f 212/26/26 23/25/25 214/30/30 110/28/28
f 17/31/31 215/32/32 110/28/28 214/30/30
f 215/32/32 1/33/33 216/29/29 110/28/28
f 1/33/33 215/32/32 111/34/34 219/35/35
f 215/32/32 17/31/31 217/36/36 111/34/34
f 32/37/37 218/38/38 111/34/34 217/36/36
f 218/38/38 16/39/39 219/35/35 111/34/34
f 16/39/39 218/38/38 112/40/40 222/41/41
f 218/38/38 32/37/37 220/42/42 112/40/40
f 31/43/43 221/44/44 112/40/40 220/42/42
f 221/44/44 15/45/45 222/41/41 112/40/40
f 15/45/45 221/44/44 113/46/46 225/47/47
f 221/44/44 31/43/43 223/48/48 113/46/46
f 30/49/49 224/50/50 113/46/46 223/48/48
f 224/50/50 14/51/51 225/47/47 113/46/46
f 14/51/51 224/50/50 114/52/52 227/53/53
f 224/50/50 30/49/49 396/54/54 114/52/52
f 26/55/55 226/56/56 114/52/52 396/54/54
f 226/56/56 10/57/57 227/53/53 114/52/52
f 10/58/57 226/59/56 115/60/58 230/61/59
f 226/59/56 26/62/55 228/63/60 115/60/58
f 27/64/61 229/65/62 115/60/58 228/63/60
f 229/65/62 11/66/63 230/61/59 115/60/58
f 11/66/63 229/65/62 116/67/64 233/68/65
f 229/65/62 27/64/61 231/69/66 116/67/64
f 28/70/67 232/71/68 116/67/64 231/69/66
f 232/71/68 12/72/69 233/68/65 116/67/64
f 12/72/69 232/71/68 117/73/70 236/74/71
f 232/71/68 28/70/67 234/75/72 117/73/70
f 29/76/73 235/77/74 117/73/70 234/75/72
f 235/77/74 13/78/75 236/74/71 117/73/70
f 13/78/75 235/77/74 118/79/76 239/80/77
f 235/77/74 29/76/73 237/81/78 118/79/76
f 22/82/79 238/83/80 118/79/76 237/81/78
f 238/83/80 6/84/81 239/80/77 118/79/76
f 6/84/81 238/83/80 119/85/82 242/86/83
f 238/83/80 22/82/79 240/87/84 119/85/82
f 21/88/85 241/89/86 119/85/82 240/87/84
f 241/89/86 5/90/87 242/86/83 119/85/82
f 5/90/87 241/89/86 120/91/88 245/92/89
f 241/89/86 21/88/85 243/93/90 120/91/88
f 20/94/91 244/95/92 120/91/88 243/93/90
f 244/95/92 4/96/93 245/92/89 120/91/88
f 4/96/93 244/95/92 121/97/94 247/98/95
f 244/95/92 20/94/91 246/99/96 121/97/94
f 19/5/5 202/2/2 121/97/94 246/99/96
f 202/2/2 3/1/1 247/98/95 121/97/94
f 19/5/5 248/100/5 122/101/6 203/6/6
f 248/100/5 35/102/97 249/103/98 122/101/6
f 34/104/7 250/105/99 122/101/6 249/103/98
f 250/105/99 18/7/7 203/6/6 122/101/6
f 18/7/7 250/105/99 123/106/12 206/12/12
f 250/105/99 34/104/7 251/107/100 123/106/12
f 40/108/101 252/109/13 123/106/12 251/107/100
f 252/109/13 24/13/13 206/12/12 123/106/12
f 24/13/13 252/109/13 124/110/18 208/18/18
f 252/109/13 40/108/101 253/111/102 124/110/18
f 41/112/103 254/113/19 124/110/18 253/111/102
f 254/113/19 25/19/19 208/18/18 124/110/18
f 25/19/19 254/113/19 125/114/24 211/24/24
f 254/113/19 41/112/103 255/115/104 125/114/24
f 39/116/105 256/117/25 125/114/24 255/115/104
f 256/117/25 23/25/25 211/24/24 125/114/24
f 23/25/25 256/117/25 126/118/30 214/30/30
f 256/117/25 39/116/105 257/119/106 126/118/30
f 33/120/107 258/121/31 126/118/30 257/119/106
f 258/121/31 17/31/31 214/30/30 126/118/30
f 17/31/31 258/121/31 127/122/36 217/36/36
f 258/121/31 33/120/107 259/123/108 127/122/36
f 48/124/109 260/125/37 127/122/36 259/123/108
f 260/125/37 32/37/37 217/36/36 127/122/36
f 32/37/37 260/125/37 128/126/42 220/42/42
f 260/125/37 48/124/109 261/127/110 128/126/42
f 47/128/111 262/129/43 128/126/42 261/127/110
f 262/129/43 31/43/43 220/42/42 128/126/42
f 31/43/43 262/129/43 129/130/48 223/48/48
f 262/129/43 47/128/111 263/131/112 129/130/48
f 46/132/113 264/133/49 129/130/48 263/131/112
f 264/133/49 30/49/49 223/48/48 129/130/48
f 30/49/49 264/133/49 130/134/54 396/54/54
f 264/133/49 46/132/113 265/135/114 130/134/54
f 42/136/55 266/137/55 130/134/54 265/135/114
f 266/137/55 26/55/55 396/54/54 130/134/54
f 26/62/55 266/138/55 131/139/60 228/63/60
f 266/138/55 42/140/55 267/141/115 131/139/60
f 43/142/116 268/143/61 131/139/60 267/141/115
f 268/143/61 27/64/61 228/63/60 131/139/60
f 27/64/61 268/143/61 132/144/66 231/69/66
f 268/143/61 43/142/116 269/145/117 132/144/66
f 44/146/118 270/147/67 132/144/66 269/145/117
f 270/147/67 28/70/67 231/69/66 132/144/66
f 28/70/67 270/147/67 133/148/72 234/75/72
f 270/147/67 44/146/118 271/149/119 133/148/72
f 45/150/120 272/151/73 133/148/72 271/149/119
f 272/151/73 29/76/73 234/75/72 133/148/72
f 29/76/73 272/151/73 134/152/78 237/81/78
f 272/151/73 45/150/120 273/153/121 134/152/78
f 38/154/122 274/155/79 134/152/78 273/153/121
f 274/155/79 22/82/79 237/81/78 134/152/78
f 22/82/79 274/155/79 135/156/84 240/87/84
f 274/155/79 38/154/122 275/157/123 135/156/84
f 37/158/124 276/159/85 135/156/84 275/157/123
f 276/159/85 21/88/85 240/87/84 135/156/84
f 21/88/85 276/159/85 136/160/90 243/93/90
f 276/159/85 37/158/124 277/161/125 136/160/90
f 36/162/126 278/163/91 136/160/90 277/161/125
f 278/163/91 20/94/91 243/93/90 136/160/90
f 20/94/91 278/163/91 137/164/96 246/99/96
f 278/163/91 36/162/126 279/165/127 137/164/96
f 35/102/97 248/100/5 137/164/96 279/165/127
f 248/100/5 19/5/5 246/99/96 137/164/96
f 3/166/1 280/167/128 138/168/129 247/169/95
f 280/167/128 50/170/130 281/171/131 138/168/129
f 51/172/132 282/173/133 138/168/129 281/171/131
f 282/173/133 4/174/93 247/169/95 138/168/129
f 4/174/93 282/173/133 139/175/134 245/176/89
f 282/173/133 51/172/132 283/177/135 139/175/134
f 52/178/136 284/179/137 139/175/134 283/177/135
f 284/179/137 5/180/87 245/176/89 139/175/134
f 5/180/87 284/179/137 140/181/138 242/182/83
f 284/179/137 52/178/136 285/183/139 140/181/138
f 53/184/140 286/185/141 140/181/138 285/183/139
f 286/185/141 6/186/81 242/182/83 140/181/138
f 14/187/51 287/188/142 141/189/143 225/190/47
f 287/188/142 58/191/144 288/192/145 141/189/143
f 59/193/146 289/194/147 141/189/143 288/192/145
f 289/194/147 15/195/45 225/190/47 141/189/143
f 15/195/45 289/194/147 142/196/148 222/197/41
f 289/194/147 59/193/146 290/198/149 142/196/148
f 60/199/150 291/200/151 142/196/148 290/198/149
f 291/200/151 16/201/39 222/197/41 142/196/148
f 16/201/39 291/200/151 143/202/152 219/203/35
f 291/200/151 60/199/150 292/204/153 143/202/152
f 61/205/154 293/206/155 143/202/152 292/204/153
f 293/206/155 1/207/33 219/203/35 143/202/152
f 65/208/156 294/209/157 144/210/158 297/211/159
f 294/209/157 66/212/160 295/213/161 144/210/158
f 71/214/162 296/215/163 144/210/158 295/213/161
f 296/215/163 70/216/164 297/211/159 144/210/158
f 66/212/160 298/217/165 145/218/166 295/213/161
f 298/217/165 67/219/167 299/220/168 145/218/166
f 72/221/162 300/222/162 145/218/166 299/220/168
f 300/222/162 71/214/162 295/213/161 145/218/166
f 67/219/167 301/223/169 146/224/170 299/220/168
f 301/223/169 68/225/171 302/226/172 146/224/170
f 73/227/173 397/228/173 146/224/170 302/226/172
f 397/228/173 72/221/162 299/220/168 146/224/170
f 68/225/171 303/229/174 147/230/175 302/226/172
f 303/229/174 69/231/176 304/232/177 147/230/175
f 74/233/178 305/234/179 147/230/175 304/232/177
f 305/234/179 73/227/173 302/226/172 147/230/175
f 70/216/164 296/215/163 148/235/180 308/236/181
f 296/215/163 71/214/162 306/237/182 148/235/180
f 76/238/183 307/239/184 148/235/180 306/237/182
f 307/239/184 75/240/185 308/236/181 148/235/180
f 71/214/162 300/222/162 149/241/186 306/237/182
f 300/222/162 72/221/162 309/242/186 149/241/186
f 77/243/187 310/244/187 149/241/186 309/242/186
f 310/244/187 76/238/183 306/237/182 149/241/186
f 72/221/162 397/228/173 150/245/188 309/242/186
f 397/228/173 73/227/173 311/246/188 150/245/188
f 78/247/189 398/248/190 150/245/188 311/246/188
f 398/248/190 77/243/187 309/242/186 150/245/188
f 73/227/173 305/234/179 151/249/191 311/246/188
f 305/234/179 74/233/178 312/250/192 151/249/191
f 79/251/193 313/252/194 151/249/191 312/250/192
f 313/252/194 78/247/189 311/246/188 151/249/191
f 75/240/185 307/239/184 152/253/195 316/254/196
f 307/239/184 76/238/183 314/255/197 152/253/195
f 81/256/197 315/257/198 152/253/195 314/255/197
f 315/257/198 80/258/199 316/254/196 152/253/195
f 76/238/183 310/244/187 153/259/200 314/255/197
f 310/244/187 77/243/187 317/260/200 153/259/200
f 82/261/200 318/262/200 153/259/200 317/260/200
f 318/262/200 81/256/197 314/255/197 153/259/200
f 77/243/187 398/248/190 154/263/201 317/260/200
f 398/248/190 78/247/189 319/264/201 154/263/201
f 83/265/201 399/266/201 154/263/201 319/264/201
f 399/266/201 82/261/200 317/260/200 154/263/201
f 78/247/189 313/252/194 155/267/202 319/264/201
f 313/252/194 79/251/193 320/268/203 155/267/202
f 84/269/204 321/270/205 155/267/202 320/268/203
f 321/270/205 83/265/201 319/264/201 155/267/202
f 80/258/199 315/257/198 156/271/206 324/272/207
f 315/257/198 81/256/197 322/273/208 156/271/206
f 86/274/209 323/275/210 156/271/206 322/273/208
f 323/275/210 85/276/211 324/272/207 156/271/206
f 81/256/197 318/262/200 157/277/212 322/273/208
f 318/262/200 82/261/200 325/278/213 157/277/212
f 87/279/214 326/280/215 157/277/212 325/278/213
f 326/280/215 86/274/209 322/273/208 157/277/212
f 82/261/200 399/266/201 158/281/216 325/278/213
f 399/266/201 83/265/201 327/282/217 158/281/216
f 88/283/218 400/284/219 158/281/216 327/282/217
f 400/284/219 87/279/214 325/278/213 158/281/216
f 83/265/201 321/270/205 159/285/220 327/282/217
f 321/270/205 84/269/204 328/286/221 159/285/220
f 89/287/222 329/288/223 159/285/220 328/286/221
f 329/288/223 88/283/218 327/282/217 159/285/220
f 50/170/130 280/167/128 160/289/224 331/290/225
f 280/167/128 3/166/1 205/291/4 160/289/224
f 2/292/9 330/293/226 160/289/224 205/291/4
f 330/293/226 49/294/227 331/290/225 160/289/224
f 54/295/228 332/296/229 161/297/230 333/298/231
f 332/296/229 13/299/75 239/300/77 161/297/230
f 6/186/81 286/185/141 161/297/230 239/300/77
f 286/185/141 53/184/140 333/298/231 161/297/230
f 55/301/232 334/302/233 162/303/234 335/304/235
f 334/302/233 12/305/69 236/306/71 162/303/234
f 13/299/75 332/296/229 162/303/234 236/306/71
f 332/296/229 54/295/228 335/304/235 162/303/234
f 56/307/236 336/308/237 163/309/238 337/310/239
f 336/308/237 11/311/63 233/312/65 163/309/238
f 12/305/69 334/302/233 163/309/238 233/312/65
f 334/302/233 55/301/232 337/310/239 163/309/238
f 57/313/240 338/314/241 164/315/242 339/316/243
f 338/314/241 10/317/57 230/318/59 164/315/242
f 11/311/63 336/308/237 164/315/242 230/318/59
f 336/308/237 56/307/236 339/316/243 164/315/242
f 58/191/144 287/188/142 165/319/244 340/320/245
f 287/188/142 14/187/51 227/321/53 165/319/244
f 10/317/57 338/314/241 165/319/244 227/321/53
f 338/314/241 57/313/240 340/320/245 165/319/244
f 62/322/246 341/323/247 166/324/248 342/325/249
f 341/323/247 7/326/27 216/327/29 166/324/248
f 1/207/33 293/206/155 166/324/248 216/327/29
f 293/206/155 61/205/154 342/325/249 166/324/248
f 63/328/250 343/329/251 167/330/252 344/331/253
f 343/329/251 9/332/21 213/333/23 167/330/252
f 7/326/27 341/323/247 167/330/252 213/333/23
f 341/323/247 62/322/246 344/331/253 167/330/252
f 64/334/254 345/335/255 168/336/256 346/337/257
f 345/335/255 8/338/15 210/339/17 168/336/256
f 9/332/21 343/329/251 168/336/256 210/339/17
f 343/329/251 63/328/250 346/337/257 168/336/256
f 49/294/227 330/293/226 169/340/258 401/341/259
f 330/293/226 2/292/9 395/342/11 169/340/258
f 8/338/15 345/335/255 169/340/258 395/342/11
f 345/335/255 64/334/254 401/341/259 169/340/258
f 104/343/260 347/344/261 170/345/262 349/346/263
f 347/344/261 105/347/264 348/348/265 170/345/262
f 50/170/130 331/290/225 170/345/262 348/348/265
f 331/290/225 49/294/227 349/346/263 170/345/262
f 104/343/260 349/346/263 171/349/266 351/350/267
f 349/346/263 49/294/227 401/341/259 171/349/266
f 64/334/254 350/351/268 171/349/266 401/341/259
f 350/351/268 103/352/269 351/350/267 171/349/266
f 103/352/269 350/351/268 172/353/270 353/354/271
f 350/351/268 64/334/254 346/337/257 172/353/270
f 63/328/250 352/355/272 172/353/270 346/337/257
f 352/355/272 102/356/273 353/354/271 172/353/270
f 101/357/274 354/358/275 173/359/276 355/360/277
f 354/358/275 102/356/273 352/355/272 173/359/276
f 63/328/250 344/331/253 173/359/276 352/355/272
f 344/331/253 62/322/246 355/360/277 173/359/276
f 100/361/278 356/362/279 174/363/280 357/364/281
f 356/362/279 101/357/274 355/360/277 174/363/280
f 62/322/246 342/325/249 174/363/280 355/360/277
f 342/325/249 61/205/154 357/364/281 174/363/280
f 100/361/278 357/364/281 175/365/282 359/366/283
f 357/364/281 61/205/154 292/204/153 175/365/282
f 60/199/150 358/367/284 175/365/282 292/204/153
f 358/367/284 99/368/285 359/366/283 175/365/282
f 99/368/285 358/367/284 176/369/286 361/370/287
f 358/367/284 60/199/150 290/198/149 176/369/286
f 59/193/146 360/371/288 176/369/286 290/198/149
f 360/371/288 98/372/289 361/370/287 176/369/286
f 97/373/290 362/374/291 177/375/292 363/376/293
f 362/374/291 98/372/289 360/371/288 177/375/292
f 59/193/146 288/192/145 177/375/292 360/371/288
f 288/192/145 58/191/144 363/376/293 177/375/292
f 96/377/294 364/378/295 178/379/296 365/380/297
f 364/378/295 97/373/290 363/376/293 178/379/296
f 58/191/144 340/320/245 178/379/296 363/376/293
f 340/320/245 57/313/240 365/380/297 178/379/296
f 96/377/294 365/380/297 179/381/298 367/382/299
f 365/380/297 57/313/240 339/316/243 179/381/298
f 56/307/236 366/383/300 179/381/298 339/316/243
f 366/383/300 95/384/301 367/382/299 179/381/298
f 95/384/301 366/383/300 180/385/302 369/386/303
f 366/383/300 56/307/236 337/310/239 180/385/302
f 55/301/232 368/387/304 180/385/302 337/310/239
f 368/387/304 94/388/305 369/386/303 180/385/302
f 93/389/306 370/390/307 181/391/308 371/392/309
f 370/390/307 94/388/305 368/387/304 181/391/308
f 55/301/232 335/304/235 181/391/308 368/387/304
f 335/304/235 54/295/228 371/392/309 181/391/308
f 92/393/310 372/394/311 182/395/312 373/396/313
f 372/394/311 93/389/306 371/392/309 182/395/312
f 54/295/228 333/298/231 182/395/312 371/392/309
f 333/298/231 53/184/140 373/396/313 182/395/312
f 92/393/310 373/396/313 183/397/314 375/398/315
f 373/396/313 53/184/140 285/183/139 183/397/314
f 52/178/136 374/399/316 183/397/314 285/183/139
f 374/399/316 91/400/317 375/398/315 183/397/314
f 91/400/317 374/399/316 184/401/318 377/402/319
f 374/399/316 52/178/136 283/177/135 184/401/318
f 51/172/132 376/403/320 184/401/318 283/177/135
f 376/403/320 90/404/321 377/402/319 184/401/318
f 105/347/264 378/405/322 185/406/323 348/348/265
f 378/405/322 90/404/321 376/403/320 185/406/323
f 51/172/132 281/171/131 185/406/323 376/403/320
f 281/171/131 50/170/130 348/348/265 185/406/323
f 105/347/264 347/344/261 186/407/324 380/408/325
f 347/344/261 104/343/260 379/409/326 186/407/324
f 67/219/167 298/217/165 186/407/324 379/409/326
f 298/217/165 66/212/160 380/408/325 186/407/324
f 67/219/167 379/409/326 187/410/327 301/223/169
f 379/409/326 104/343/260 351/350/267 187/410/327
f 103/352/269 381/411/328 187/410/327 351/350/267
f 381/411/328 68/225/171 301/223/169 187/410/327
f 68/225/171 381/411/328 188/412/329 303/229/174
f 381/411/328 103/352/269 353/354/271 188/412/329
f 102/356/273 382/413/330 188/412/329 353/354/271
f 382/413/330 69/231/176 303/229/174 188/412/329
f 69/231/176 382/413/330 189/414/331 304/232/177
f 382/413/330 102/356/273 354/358/275 189/414/331
f 101/357/274 383/415/332 189/414/331 354/358/275
f 383/415/332 74/233/178 304/232/177 189/414/331
f 101/357/274 356/362/279 190/416/333 383/415/332
f 356/362/279 100/361/278 384/417/334 190/416/333
f 79/251/193 312/250/192 190/416/333 384/417/334
f 312/250/192 74/233/178 383/415/332 190/416/333
f 100/361/278 359/366/283 191/418/335 384/417/334
f 359/366/283 99/368/285 385/419/336 191/418/335
f 84/269/204 320/268/203 191/418/335 385/419/336
f 320/268/203 79/251/193 384/417/334 191/418/335
f 99/368/285 361/370/287 192/420/337 385/419/336
f 361/370/287 98/372/289 386/421/338 192/420/337
f 89/287/222 328/286/221 192/420/337 386/421/338
f 328/286/221 84/269/204 385/419/336 192/420/337
f 98/372/289 362/374/291 193/422/339 386/421/338
f 362/374/291 97/373/290 387/423/340 193/422/339
f 88/283/218 329/288/223 193/422/339 387/423/340
f 329/288/223 89/287/222 386/421/338 193/422/339
f 97/373/290 364/378/295 194/424/341 387/423/340
f 364/378/295 96/377/294 388/425/342 194/424/341
f 87/279/214 400/284/219 194/424/341 388/425/342
f 400/284/219 88/283/218 387/423/340 194/424/341
f 87/279/214 388/425/342 195/426/343 326/280/215
f 388/425/342 96/377/294 367/382/299 195/426/343
f 95/384/301 389/427/344 195/426/343 367/382/299
f 389/427/344 86/274/209 326/280/215 195/426/343
f 95/384/301 369/386/303 196/428/345 389/427/344
f 369/386/303 94/388/305 390/429/346 196/428/345
f 85/276/211 323/275/210 196/428/345 390/429/346
f 323/275/210 86/274/209 389/427/344 196/428/345
f 85/276/211 390/429/346 197/430/347 324/272/207
f 390/429/346 94/388/305 370/390/307 197/430/347
f 93/389/306 391/431/348 197/430/347 370/390/307
f 391/431/348 80/258/199 324/272/207 197/430/347
f 93/389/306 372/394/311 198/432/349 391/431/348
f 372/394/311 92/393/310 392/433/350 198/432/349
f 75/240/185 316/254/196 198/432/349 392/433/350
f 316/254/196 80/258/199 391/431/348 198/432/349
f 75/240/185 392/433/350 199/434/351 308/236/181
f 392/433/350 92/393/310 375/398/315 199/434/351
f 91/400/317 393/435/352 199/434/351 375/398/315
f 393/435/352 70/216/164 308/236/181 199/434/351
f 91/400/317 377/402/319 200/436/353 393/435/352
f 377/402/319 90/404/321 394/437/354 200/436/353
f 65/208/156 297/211/159 200/436/353 394/437/354
f 297/211/159 70/216/164 393/435/352 200/436/353
f 90/404/321 378/405/322 201/438/355 394/437/354
f 378/405/322 105/347/264 380/408/325 201/438/355
f 66/212/160 294/209/157 201/438/355 380/408/325
f 294/209/157 65/208/156 394/437/354 201/438/355
