# Blender 4.5.3 LTS
# www.blender.org
o Shoulder-Left-Middle
v -51.334572 5.208475 29.243500
v -53.644806 5.208474 29.170372
v -51.334579 0.515604 29.243080
v -53.644806 0.515604 29.169960
v -56.305408 5.208474 28.563499
v -56.305420 0.515604 28.564285
v -61.204983 5.164674 26.436752
v -61.735386 0.559406 26.437042
v -61.485725 5.208473 21.867691
v -62.416176 0.515604 21.868263
v -48.443062 5.208475 29.084320
v -48.443069 0.515604 29.084236
v -42.487446 5.164674 27.372330
v -42.476379 0.559405 27.372330
v -41.771820 5.208473 21.867691
v -41.376293 0.515604 21.867691
v -51.331100 5.264788 21.867691
v -53.641335 5.264788 21.867691
v -51.331261 0.459290 21.867691
v -53.641491 0.459290 21.867691
v -56.302631 5.264788 21.867691
v -56.302765 0.459290 21.867691
v -48.440044 5.264788 21.867691
v -48.440182 0.459290 21.867691
v -45.316158 0.515604 28.412766
v -45.316753 5.208475 28.412766
v -45.205044 0.459290 21.867691
v -45.247169 5.264788 21.867691
v -58.942558 0.515604 27.720520
v -58.885643 5.208474 27.715317
v -58.909676 5.264788 21.867691
v -59.008606 0.459290 21.867691
v -43.118652 0.515604 27.651215
v -42.318615 0.459290 21.867691
v -43.123405 5.208474 27.651215
v -42.623367 5.264788 21.867691
v -62.020939 2.862038 21.867691
v -42.436871 2.862037 27.395088
v -41.487255 2.862038 21.867691
v -58.913586 2.862040 27.771973
v -51.334599 2.862039 29.297340
v -53.644829 2.862040 29.224205
v -56.305439 2.862040 28.617966
v -61.513435 2.862038 26.454803
v -48.443100 2.862038 29.138306
v -45.317307 2.862038 28.466797
v -43.127239 2.862037 27.705276
v -61.903126 0.515604 25.604507
v -42.324108 5.208474 26.427170
v -51.334000 5.264789 28.044571
v -53.644234 5.264789 27.980591
v -53.644264 0.459291 27.980186
v -45.296875 0.459291 27.317642
v -45.304684 5.264789 27.317657
v -58.889492 5.264789 26.707344
v -58.955181 0.459292 26.712013
v -61.285347 5.208474 25.604362
v -42.247768 0.515604 26.427170
v -48.442593 0.459291 27.905197
v -48.442581 5.264789 27.905266
v -56.304955 5.264789 27.449570
v -56.304981 0.459291 27.450272
v -51.334045 0.459291 28.044174
v -42.979530 0.459292 26.651321
v -43.036480 5.264789 26.651321
v -61.657032 2.862038 25.577271
v -42.215897 2.862037 26.405479
v -62.378639 1.097519 21.867760
v -42.440132 4.626558 27.395088
v -41.639633 4.626557 21.867691
v -58.934818 1.097522 27.773918
v -51.334599 4.626558 29.297493
v -53.644829 1.097522 29.224037
v -56.305443 1.097522 28.618263
v -61.719322 1.097522 26.454872
v -48.443100 4.626558 29.138321
v -45.317383 4.626558 28.466797
v -43.127941 4.626558 27.705276
v -61.663387 4.626557 21.867691
v -42.433605 1.097519 27.395088
v -41.334881 1.097519 21.867691
v -58.892368 4.626558 27.770012
v -51.334599 1.097522 29.297173
v -53.644829 4.626558 29.224358
v -56.305443 4.626558 28.617676
v -61.307549 4.626558 26.454765
v -48.443100 1.097522 29.138268
v -45.317238 1.097522 28.466797
v -43.126526 1.097522 27.705276
v -61.418972 4.626557 25.577271
v -42.186352 1.097518 26.405479
v -61.895084 1.097521 25.577271
v -42.245434 4.626557 26.405479
v -60.680286 5.208475 26.774567
v -60.856937 5.264788 21.867691
v -61.572376 0.459290 21.867790
v -61.091908 0.515604 26.776337
v -60.882366 2.862038 26.829475
v -61.183857 0.459292 25.885818
v -60.708645 5.264789 25.884209
v -61.035885 1.097522 26.830162
v -60.728848 4.626558 26.828819
v -52.502434 3.838156 29.308212
v -54.941437 1.885923 28.973305
v -49.961643 3.838156 29.264046
v -46.838440 3.838156 28.850693
v -46.837563 0.459291 25.143036
v -49.959805 5.264788 25.349709
v -57.649181 5.264788 24.826996
v -52.500576 5.264788 25.371872
v -54.939732 0.459291 25.204292
v -49.959888 0.459291 25.349625
v -43.899639 5.264788 24.743874
v -52.500656 0.459291 25.371620
v -54.939655 5.264788 25.204422
v -60.294971 0.459291 24.350639
v -44.049168 1.885922 28.052368
v -43.808624 0.459291 24.743874
v -46.837513 5.264788 25.143036
v -59.974220 5.264788 24.348602
v -57.649227 0.459291 24.828751
v -42.310120 5.264788 24.479393
v -42.106049 0.459291 24.479393
v -52.502434 1.885923 29.308022
v -54.941437 3.838157 28.973404
v -49.961643 1.885922 29.263908
v -46.838440 1.885922 28.850693
v -44.049507 3.838155 28.052368
v -46.838390 0.459291 28.634521
v -49.961536 5.264789 29.047928
v -57.649963 5.264789 28.002495
v -52.502335 5.264789 29.092186
v -54.941330 0.459291 28.757019
v -49.961548 0.459291 29.047668
v -44.039265 5.264789 27.836174
v -52.502342 0.459291 29.091721
v -54.941330 5.264789 28.757301
v -60.162033 0.459291 27.049797
v -44.032131 0.459291 27.836174
v -46.838383 5.264789 28.634521
v -59.923447 5.264789 27.045670
v -57.649963 0.459291 28.005943
v -42.621609 5.264789 27.307312
v -42.603821 0.459291 27.307312
v -52.502434 5.039531 29.308357
v -54.941437 0.684548 28.973236
v -49.961643 5.039531 29.264084
v -46.838440 5.039531 28.850693
v -44.048962 0.684547 28.052368
v -42.645309 5.039531 27.523483
v -52.502445 0.684548 29.307907
v -54.941437 5.039531 28.973457
v -49.961647 0.684548 29.263863
v -46.838440 0.684548 28.850693
v -44.049725 5.039531 28.052368
v -42.642117 0.684547 27.523483
v -61.908154 0.459291 24.018806
v -61.192173 5.264788 24.018471
v -61.611603 0.459292 26.386086
v -61.078876 5.264789 26.385468
v -57.650013 1.885923 28.221085
v -61.655453 3.838155 23.956581
v -41.852737 1.885922 24.429817
v -60.081535 1.885923 27.264778
v -42.644432 3.838155 27.523483
v -57.650013 3.838156 28.219696
v -61.976582 1.885922 23.956581
v -41.944592 3.838155 24.429817
v -59.987591 3.838156 27.263107
v -42.643002 1.885922 27.523483
v -61.470413 3.838155 26.261642
v -42.340454 1.885922 27.208130
v -61.709393 1.885922 26.261642
v -42.349106 3.838155 27.208130
v -57.650013 0.684547 28.221977
v -61.457832 5.039529 23.956581
v -41.796207 0.684547 24.429817
v -60.139359 0.684549 27.265770
v -57.650013 5.039531 28.218842
v -62.174210 0.684547 23.956581
v -42.001118 5.039529 24.429817
v -59.929764 5.039531 27.262032
v -61.323334 5.039531 26.261642
v -42.335133 0.684547 27.208130
v -61.856468 0.684549 26.261642
v -42.354431 5.039531 27.208130
v -61.431259 1.885922 26.602043
v -61.221661 3.838155 26.601799
v -61.560238 0.684549 26.602234
v -61.092678 5.039531 26.601646
v -53.644829 3.838157 29.224258
v -52.502434 2.862040 29.308136
v -51.334595 3.838156 29.297447
v -52.502434 4.626558 29.308319
v -53.644829 1.885923 29.224106
v -54.941437 2.862040 28.973320
v -56.305439 1.885923 28.618126
v -54.941437 1.097522 28.973251
v -49.961643 2.862038 29.263992
v -48.443100 3.838156 29.138321
v -49.961643 4.626558 29.264069
v -46.838440 2.862038 28.850693
v -45.317360 3.838156 28.466797
v -46.838440 4.626558 28.850693
v -48.441544 0.459291 25.286819
v -46.836781 0.459290 21.867691
v -45.256916 0.459291 24.951065
v -46.838158 0.459291 27.653542
v -49.958157 5.264788 21.867691
v -51.332752 5.264788 25.366463
v -49.961048 5.264789 28.015274
v -48.441479 5.264788 25.286865
v -57.648441 5.264788 21.867691
v -58.898293 5.264788 24.602318
v -57.649757 5.264789 27.100540
v -56.303951 5.264788 25.026443
v -52.498917 5.264788 21.867691
v -53.642982 5.264788 25.329880
v -52.501842 5.264789 28.054047
v -56.304008 0.459291 25.026840
v -54.938236 0.459290 21.867691
v -53.643055 0.459291 25.329674
v -54.940880 0.459291 27.760742
v -51.332832 0.459291 25.366257
v -49.958313 0.459290 21.867691
v -49.961086 0.459291 28.015053
v -42.856705 5.264788 24.570290
v -43.770493 5.264788 21.867691
v -45.279659 5.264788 24.951065
v -43.999111 5.264789 26.955002
v -52.499069 0.459290 21.867691
v -52.501881 0.459291 28.053612
v -54.938084 5.264788 21.867691
v -54.940868 5.264789 27.760963
v -60.416084 0.459290 21.867691
v -58.978493 0.459291 24.604973
v -60.201183 0.459292 26.266930
v -61.353302 0.459291 24.132874
v -43.126846 1.885922 27.705276
v -44.049339 2.862038 28.052368
v -45.317272 1.885922 28.466797
v -44.049034 1.097522 28.052368
v -43.601906 0.459290 21.867691
v -42.691917 0.459291 24.570290
v -43.967861 0.459292 26.955002
v -46.836697 5.264788 21.867691
v -46.838146 5.264789 27.653542
v -59.938400 5.264789 26.263351
v -60.020496 5.264788 21.867691
v -60.773373 5.264788 24.131981
v -57.648525 0.459290 21.867691
v -57.649761 0.459291 27.103546
v -42.022495 5.264788 21.867691
v -42.531807 5.264789 26.492233
v -42.083660 5.208473 24.442245
v -42.460312 0.459292 26.492233
v -41.646416 0.459290 21.867691
v -41.868366 0.515604 24.442245
v -51.334602 1.885922 29.297272
v -52.502434 1.097522 29.307968
v -56.305439 3.838157 28.617775
v -54.941437 4.626559 28.973434
v -49.961647 1.097522 29.263863
v -48.443100 1.885922 29.138268
v -46.838440 1.097522 28.850693
v -43.127628 3.838155 27.705276
v -44.049648 4.626558 28.052368
v -45.313004 0.459291 28.250603
v -46.838428 0.515604 28.796616
v -48.443005 0.459291 28.922127
v -51.334492 5.264789 29.081383
v -49.961617 5.208475 29.210037
v -48.442997 5.264789 28.922173
v -58.885796 5.264789 27.553116
v -57.650009 5.208475 28.164680
v -56.305351 5.264789 28.401390
v -53.644730 5.264789 29.008194
v -52.502415 5.208475 29.254356
v -53.644730 0.459291 29.007767
v -54.941406 0.515604 28.919205
v -56.305351 0.459291 28.402191
v -49.961628 0.515604 29.209816
v -51.334511 0.459291 29.080978
v -45.314789 5.264789 28.250603
v -44.047131 5.208475 27.998306
v -43.109119 5.264789 27.489128
v -52.502419 0.515604 29.253860
v -54.941406 5.208475 28.919426
v -58.945450 0.459291 27.558472
v -60.150448 0.515604 27.211891
v -61.112995 0.459292 26.614243
v -43.095741 0.459291 27.489128
v -44.044731 0.515604 27.998306
v -46.838428 5.208475 28.796616
v -59.922768 5.208475 27.207855
v -60.681564 5.264789 26.612373
v -57.650009 0.515604 28.168045
v -42.639462 5.208475 27.469421
v -42.421726 5.208475 27.232910
v -42.401806 0.515604 27.232910
v -42.632458 0.515604 27.469421
v -51.334595 5.039531 29.297523
v -53.644829 5.039531 29.224403
v -56.305439 0.684548 28.618332
v -53.644829 0.684548 29.223991
v -48.443100 5.039531 29.138321
v -45.317413 5.039531 28.466797
v -45.317211 0.684548 28.466797
v -43.126358 0.684547 27.705276
v -42.440891 5.039531 27.395088
v -43.128109 5.039531 27.705276
v -42.645008 4.626558 27.523483
v -51.334602 0.684548 29.297157
v -56.305439 5.039531 28.617569
v -48.443100 0.684548 29.138268
v -42.432854 0.684547 27.395088
v -42.642426 1.097520 27.523483
v -61.699322 0.459292 25.686180
v -62.126274 0.515604 23.972137
v -62.179333 0.459290 21.868126
v -61.295078 5.264788 21.867691
v -61.372887 5.208473 23.972054
v -61.112392 5.264789 25.685600
v -61.585178 0.515604 26.548187
v -61.809040 0.515604 26.292747
v -61.248432 5.208475 26.292580
v -61.077133 5.208475 26.547577
v -58.925335 1.885923 27.773041
v -57.650013 1.097522 28.221672
v -57.650013 2.862040 28.220413
v -61.525337 3.838156 25.577271
v -61.525764 4.626557 23.956581
v -61.823147 3.838154 21.867691
v -61.816025 2.862038 23.956581
v -42.199554 1.885922 26.405479
v -41.815636 1.097519 24.429817
v -41.402962 1.885922 21.867691
v -41.898666 2.862037 24.429817
v -60.034565 2.862039 27.263916
v -60.967289 1.885922 26.829842
v -60.119484 1.097522 27.265396
v -42.438671 3.838155 27.395088
v -42.643719 2.862038 27.523483
v -57.650013 4.626558 28.219139
v -58.901844 3.838156 27.770851
v -62.218727 1.885922 21.867691
v -62.106274 1.097521 23.956581
v -61.788719 1.885922 25.577271
v -41.571548 3.838154 21.867691
v -41.981689 4.626557 24.429817
v -42.232239 3.838155 26.405479
v -59.949638 4.626558 27.262405
v -60.797443 3.838155 26.829124
v -42.435066 1.885922 27.395088
v -61.589901 2.862038 26.261642
v -61.399544 3.838155 26.454788
v -61.373890 4.626558 26.261642
v -42.344784 2.862037 27.208130
v -42.336964 1.097519 27.208130
v -61.805904 1.097522 26.261642
v -61.627327 1.885922 26.454834
v -42.352596 4.626558 27.208130
v -58.939785 0.684549 27.774399
v -61.579704 5.039529 21.867691
v -61.363262 5.039531 25.577271
v -41.299221 0.684546 21.867691
v -42.179436 0.684547 26.405479
v -61.071812 0.684549 26.830338
v -58.887394 5.039531 27.769547
v -61.950802 0.684549 25.577271
v -62.463764 0.684546 21.868080
v -42.252354 5.039531 26.405479
v -41.675293 5.039529 21.867691
v -60.692928 5.039531 26.828629
v -61.259373 5.039531 26.454727
v -61.767506 0.684549 26.454887
v -61.515903 1.097522 26.602165
v -61.326458 2.862038 26.601944
v -61.137020 4.626558 26.601677
vn -0.1319 -0.0001 0.9913
vn -0.0321 -0.0001 0.9995
vn -0.0320 -0.0001 0.9995
vn -0.1318 -0.0001 0.9913
vn 0.0168 -0.0001 0.9999
vn -0.2211 -0.0000 0.9753
vn -0.2210 -0.0000 0.9753
vn -0.2211 -0.0000 0.9752
vn -0.2679 0.0002 0.9635
vn -0.2676 0.0002 0.9635
vn -0.2674 0.0002 0.9636
vn 0.0534 -0.0000 0.9986
vn 0.0535 -0.0000 0.9986
vn 0.0534 -0.0001 0.9986
vn 0.1296 -0.0000 0.9916
vn 0.2107 -0.0000 0.9776
vn 0.2779 -0.0000 0.9606
vn -0.0000 -1.0000 -0.0000
vn -0.0000 1.0000 -0.0000
vn 0.3519 0.0002 0.9361
vn 0.3520 0.0002 0.9360
vn 0.3315 0.0001 0.9435
vn 0.3521 0.0002 0.9360
vn 0.3316 0.0001 0.9434
vn 0.2778 -0.0000 0.9606
vn 0.6310 0.7719 0.0773
vn 0.1247 0.9921 0.0144
vn 0.1244 0.9921 0.0144
vn 0.6286 0.7739 0.0769
vn 0.1360 0.9906 0.0157
vn 0.6576 0.7491 0.0804
vn 0.6623 -0.7386 0.1262
vn 0.1357 -0.9904 0.0249
vn 0.1205 -0.9925 0.0221
vn 0.6415 -0.7573 0.1224
vn 0.1224 -0.9922 0.0225
vn 0.6624 -0.7383 0.1265
vn 0.0167 -0.0001 0.9999
vn -0.2683 0.0003 0.9633
vn -0.2681 0.0002 0.9634
vn -0.2212 -0.0000 0.9752
vn -0.2213 -0.0000 0.9752
vn 0.3522 0.0002 0.9359
vn 0.3523 0.0002 0.9359
vn 0.0374 -0.9848 0.1698
vn 0.0230 -0.9850 0.1711
vn 0.0504 -0.9840 0.1708
vn 0.2026 -0.6831 0.7016
vn 0.1528 -0.6883 0.7091
vn 0.0938 -0.6898 0.7179
vn 0.0092 0.9855 0.1694
vn 0.0230 0.9850 0.1711
vn 0.0028 0.9859 0.1672
vn 0.0121 0.6972 0.7168
vn 0.0385 0.6939 0.7191
vn 0.0939 0.6898 0.7179
vn -0.0567 0.9840 0.1687
vn -0.0472 0.9847 0.1675
vn -0.0752 0.9825 0.1705
vn -0.2877 0.6760 0.6785
vn -0.2285 0.6836 0.6932
vn -0.1948 0.6881 0.6990
vn -0.0238 0.9848 0.1722
vn -0.0056 0.9853 0.1706
vn -0.0957 0.6882 0.7192
vn -0.0231 0.6924 0.7212
vn -0.0238 -0.9848 0.1722
vn -0.0391 -0.9848 0.1692
vn -0.0956 -0.6882 0.7191
vn -0.1602 -0.6885 0.7073
vn -0.1939 -0.6881 0.6993
vn -0.0469 -0.9848 0.1675
vn 0.0092 -0.9855 0.1694
vn 0.0028 -0.9859 0.1672
vn 0.0384 -0.6939 0.7190
vn 0.0120 -0.6973 0.7167
vn 0.0503 0.9841 0.1702
vn 0.0607 0.9834 0.1708
vn 0.2026 0.6838 0.7010
vn 0.2430 0.6791 0.6927
vn 0.2587 0.6772 0.6888
vn 0.0638 0.9833 0.1705
vn -0.0056 -0.9853 0.1706
vn -0.0231 -0.6924 0.7211
vn -0.0392 0.9848 0.1693
vn -0.1605 0.6885 0.7073
vn -0.0769 -0.9820 0.1725
vn -0.0803 -0.9814 0.1745
vn -0.0667 -0.9831 0.1706
vn -0.2646 -0.6743 0.6894
vn -0.3031 -0.6628 0.6846
vn -0.3185 -0.6531 0.6871
vn 0.0612 -0.9831 0.1726
vn 0.0646 -0.9827 0.1737
vn 0.2593 -0.6731 0.6926
vn 0.2432 -0.6769 0.6947
vn 0.0374 0.9848 0.1698
vn 0.1528 0.6884 0.7090
vn -0.3638 0.6790 0.6377
vn -0.3445 0.6744 0.6531
vn -0.0911 0.9816 0.1680
vn -0.0942 0.9818 0.1649
vn -0.0547 -0.9842 0.1683
vn -0.2226 -0.6837 0.6949
vn 0.2102 0.9583 0.1936
vn 0.3683 0.6550 0.6598
vn 0.6235 0.5349 0.5702
vn 0.6714 0.7011 0.2400
vn 0.2115 -0.9553 0.2065
vn 0.6655 -0.6926 0.2783
vn 0.6126 -0.5224 0.5931
vn 0.3640 -0.6487 0.6684
vn 0.0166 0.1540 0.9879
vn -0.0315 0.1534 0.9877
vn -0.1296 0.1520 0.9798
vn -0.2640 -0.1486 0.9530
vn -0.2178 -0.1502 0.9644
vn -0.1296 -0.1521 0.9798
vn 0.0527 0.1535 0.9867
vn 0.1276 0.1523 0.9801
vn 0.2739 0.1474 0.9504
vn 0.2076 0.1504 0.9666
vn 0.2738 -0.1469 0.9505
vn 0.3271 -0.1421 0.9343
vn 0.3482 -0.1381 0.9272
vn 0.7484 0.0018 0.6632
vn 0.7442 0.1546 0.6498
vn 0.4415 0.1409 0.8861
vn 0.4438 0.0004 0.8961
vn 0.3487 0.1409 0.9266
vn -0.0315 -0.1536 0.9876
vn 0.0165 -0.1541 0.9879
vn -0.2182 0.1502 0.9643
vn -0.2650 0.1490 0.9527
vn 0.0526 -0.1536 0.9867
vn 0.1275 -0.1523 0.9801
vn 0.2076 -0.1504 0.9666
vn 0.3274 0.1436 0.9339
vn 0.4362 -0.1362 0.8895
vn 0.4398 0.0004 0.8981
vn 0.7265 -0.1455 0.6716
vn 0.7333 0.0018 0.6799
vn -0.1301 -0.9914 0.0171
vn -0.1322 -0.9911 0.0174
vn -0.1410 -0.9898 0.0185
vn -0.7099 -0.6977 0.0964
vn -0.6992 -0.7086 0.0954
vn -0.7165 -0.6906 0.0982
vn -0.1520 0.9884 0.0077
vn -0.1527 0.9882 0.0077
vn -0.6447 0.7636 0.0353
vn -0.6479 0.7609 0.0354
vn -0.6662 0.7449 0.0364
vn -0.1600 0.9871 0.0081
vn -0.2356 -0.9500 0.2050
vn -0.4235 -0.6204 0.6601
vn -0.6696 -0.4711 0.5742
vn -0.7137 -0.6529 0.2536
vn -0.2515 0.9528 0.1700
vn -0.6870 0.7064 0.1702
vn -0.6932 0.5458 0.4707
vn -0.4612 0.6632 0.5895
vn -0.3740 0.0081 0.9274
vn -0.3676 0.0079 0.9300
vn -0.3075 0.0016 0.9515
vn -0.3091 0.0017 0.9510
vn -0.3626 0.0078 0.9319
vn -0.3062 0.0017 0.9520
vn -0.9858 0.1372 0.0967
vn -0.9873 0.1374 0.0801
vn -0.9833 0.1638 0.0798
vn -0.9818 0.1636 0.0963
vn -0.9882 0.1375 0.0668
vn -0.9842 0.1640 0.0665
vn -0.9814 0.1801 0.0664
vn -0.9804 0.1800 0.0796
vn -0.9790 0.1797 0.0961
vn 0.9871 0.0210 0.1585
vn 0.9848 0.0209 0.1722
vn 0.9839 0.0485 0.1720
vn 0.9862 0.0486 0.1583
vn 0.9829 0.0209 0.1830
vn 0.9820 0.0484 0.1828
vn 0.9810 0.0654 0.1827
vn 0.9829 0.0656 0.1719
vn 0.9852 0.0657 0.1583
vn -0.4223 0.0217 0.9062
vn -0.4129 0.0212 0.9105
vn -0.4346 0.0223 0.9004
vn -0.4558 0.0379 0.8893
vn -0.4412 0.0367 0.8966
vn -0.4302 0.0358 0.9020
vn 0.7408 0.0018 0.6717
vn 0.7451 0.0018 0.6670
vn 0.4429 0.0004 0.8966
vn 0.4418 0.0004 0.8971
vn -0.3107 0.0017 0.9505
vn -0.3120 0.0017 0.9501
vn -0.3862 0.0084 0.9224
vn -0.3807 0.0083 0.9247
vn -0.9773 0.1794 0.1126
vn -0.9801 0.1633 0.1128
vn -0.9756 0.1800 0.1258
vn -0.9785 0.1635 0.1259
vn -0.9825 0.1367 0.1263
vn -0.9841 0.1370 0.1132
vn 0.9873 0.0659 0.1445
vn 0.9883 0.0487 0.1446
vn 0.9889 0.0660 0.1335
vn 0.9898 0.0488 0.1336
vn 0.9908 0.0210 0.1337
vn 0.9892 0.0210 0.1447
vn -0.4583 0.0236 0.8885
vn -0.4475 0.0230 0.8940
vn -0.4842 0.0403 0.8740
vn -0.4713 0.0392 0.8811
vn 0.4407 0.0004 0.8977
vn 0.7366 0.0018 0.6763
vn -0.9649 0.1199 0.2337
vn -0.9694 0.1204 0.2139
vn -0.7980 0.0930 0.5955
vn -0.8116 0.0946 0.5765
vn -0.8225 0.0958 0.5607
vn -0.9728 0.1208 0.1978
vn 0.9528 0.0067 0.3036
vn 0.9491 0.0067 0.3150
vn 0.9460 0.0067 0.3241
vn -0.9560 0.1188 0.2683
vn -0.9601 0.1193 0.2531
vn -0.7737 0.0903 0.6270
vn -0.7844 0.0915 0.6134
vn 0.9592 0.0067 0.2826
vn 0.9564 0.0067 0.2920
vn -0.3016 -0.1454 0.9423
vn -0.3553 -0.1360 0.9248
vn -0.9441 0.3248 0.0559
vn -0.9492 0.3096 0.0562
vn -0.9581 0.2806 0.0567
vn 0.9689 -0.1633 0.1857
vn 0.9679 -0.1693 0.1855
vn 0.9678 -0.1699 0.1855
vn -0.4216 -0.1013 0.9011
vn -0.4039 -0.1188 0.9071
vn -0.3833 0.1496 0.9114
vn -0.3085 0.1481 0.9396
vn -0.9892 -0.0584 0.1342
vn -0.9897 -0.0489 0.1346
vn -0.9900 -0.0419 0.1350
vn 0.9705 0.2072 0.1236
vn 0.9613 0.2470 0.1225
vn 0.9565 0.2651 0.1219
vn -0.4578 0.1579 0.8749
vn -0.4853 0.1710 0.8575
vn -0.9491 0.2566 0.1828
vn -0.8118 0.2228 0.5398
vn 0.9327 -0.1625 0.3220
vn -0.7739 -0.0614 0.6304
vn -0.9599 -0.0589 0.2740
vn 0.9458 0.1789 0.2710
vn -0.5229 0.0554 0.8506
vn -0.5389 0.0571 0.8404
vn -0.5107 0.0542 0.8581
vn -0.5557 0.0589 0.8293
vn -0.5696 0.0603 0.8197
vn -0.5035 -0.0828 0.8600
vn -0.5695 0.1876 0.8003
vt 0.411042 0.420124
vt 0.411032 0.422776
vt 0.407173 0.422766
vt 0.407183 0.420104
vt 0.411022 0.426066
vt 0.407163 0.426046
vt 0.403225 0.426036
vt 0.403245 0.422746
vt 0.403255 0.420094
vt 0.410992 0.432008
vt 0.411002 0.429346
vt 0.415448 0.429366
vt 0.415438 0.432018
vt 0.415468 0.426086
vt 0.420214 0.426096
vt 0.420194 0.429386
vt 0.420184 0.432038
vt 0.398619 0.422726
vt 0.398629 0.420074
vt 0.398609 0.426016
vt 0.393475 0.425996
vt 0.393485 0.422716
vt 0.393495 0.420054
vt 0.388002 0.422686
vt 0.388011 0.420034
vt 0.387991 0.425976
vt 0.382707 0.425956
vt 0.382717 0.422666
vt 0.382727 0.420014
vt 0.974097 0.378581
vt 0.974097 0.369737
vt 0.979481 0.369259
vt 0.979481 0.377733
vt 0.974097 0.358171
vt 0.979481 0.358181
vt 0.984965 0.358191
vt 0.984785 0.368610
vt 0.984656 0.376617
vt 0.286555 0.138839
vt 0.291650 0.138839
vt 0.291660 0.150584
vt 0.286555 0.150365
vt 0.296266 0.138839
vt 0.296266 0.150634
vt 0.296276 0.159677
vt 0.291660 0.159577
vt 0.286565 0.159208
vt 0.312937 0.138849
vt 0.317463 0.138859
vt 0.317463 0.148839
vt 0.312947 0.149507
vt 0.321701 0.138859
vt 0.321661 0.148081
vt 0.321631 0.155190
vt 0.317473 0.156506
vt 0.312947 0.157683
vt 0.300185 0.150654
vt 0.300185 0.159707
vt 0.300175 0.138839
vt 0.304003 0.138839
vt 0.304013 0.150514
vt 0.304013 0.159468
vt 0.947775 0.377065
vt 0.947775 0.368880
vt 0.952351 0.369468
vt 0.952341 0.378112
vt 0.947775 0.358191
vt 0.952351 0.358181
vt 0.956698 0.358181
vt 0.956688 0.369887
vt 0.956688 0.378840
vt 0.964406 0.379050
vt 0.964406 0.370006
vt 0.969002 0.369947
vt 0.969002 0.378960
vt 0.964416 0.358171
vt 0.969012 0.358171
vt 0.268379 0.154991
vt 0.267781 0.147972
vt 0.271280 0.148550
vt 0.271619 0.156008
vt 0.266993 0.138859
vt 0.270852 0.138849
vt 0.275817 0.138849
vt 0.275927 0.149248
vt 0.276006 0.157234
vt 0.960507 0.358171
vt 0.960507 0.370026
vt 0.960497 0.379089
vt 0.308360 0.138849
vt 0.308360 0.150095
vt 0.308370 0.158720
vt 0.930077 0.358261
vt 0.933966 0.358231
vt 0.934374 0.366626
vt 0.930805 0.365918
vt 0.938702 0.358221
vt 0.938801 0.367474
vt 0.938871 0.374593
vt 0.934684 0.373097
vt 0.931373 0.371831
vt 0.374871 0.431868
vt 0.374881 0.429216
vt 0.378201 0.429226
vt 0.378191 0.431878
vt 0.374891 0.425926
vt 0.378211 0.425936
vt 0.382688 0.429246
vt 0.382688 0.431898
vt 0.990349 0.358201
vt 0.989651 0.367932
vt 0.994666 0.358231
vt 0.993410 0.367364
vt 0.992443 0.374383
vt 0.989123 0.375400
vt 0.281161 0.138839
vt 0.281171 0.149886
vt 0.281171 0.158361
vt 0.327753 0.152429
vt 0.325161 0.153695
vt 0.325280 0.147244
vt 0.327972 0.146516
vt 0.325440 0.138869
vt 0.328251 0.138879
vt 0.943258 0.368212
vt 0.943258 0.375899
vt 0.943268 0.358201
vt 0.264122 0.138869
vt 0.264979 0.138869
vt 0.265936 0.147673
vt 0.265159 0.147553
vt 0.266674 0.154463
vt 0.265946 0.154253
vt 0.994935 0.373675
vt 0.994197 0.373875
vt 0.995374 0.367075
vt 0.996202 0.366965
vt 0.996909 0.358251
vt 0.997827 0.358251
vt 0.403205 0.431978
vt 0.403215 0.429326
vt 0.407153 0.429336
vt 0.407143 0.431988
vt 0.420234 0.420154
vt 0.420224 0.422816
vt 0.415478 0.422796
vt 0.415488 0.420144
vt 0.398589 0.429306
vt 0.393465 0.429286
vt 0.398579 0.431958
vt 0.393455 0.431938
vt 0.387972 0.429266
vt 0.387962 0.431918
vt 0.378221 0.422656
vt 0.378241 0.420004
vt 0.374911 0.422646
vt 0.374921 0.419984
vt 0.979481 0.381034
vt 0.974097 0.382021
vt 0.984616 0.379777
vt 0.984626 0.380376
vt 0.979491 0.381602
vt 0.974107 0.382599
vt 0.291660 0.163067
vt 0.286565 0.162638
vt 0.296276 0.163187
vt 0.296276 0.163765
vt 0.291660 0.163655
vt 0.286555 0.163227
vt 0.317463 0.159537
vt 0.312957 0.160903
vt 0.321631 0.158062
vt 0.321661 0.158660
vt 0.317473 0.160106
vt 0.312977 0.161502
vt 0.304023 0.162937
vt 0.300185 0.163227
vt 0.304033 0.163526
vt 0.300195 0.163815
vt 0.956688 0.382320
vt 0.952341 0.381462
vt 0.956678 0.382898
vt 0.952341 0.382031
vt 0.947755 0.380884
vt 0.947765 0.380296
vt 0.969002 0.382450
vt 0.964406 0.382559
vt 0.969002 0.383028
vt 0.964406 0.383137
vt 0.276036 0.160405
vt 0.271749 0.158979
vt 0.276016 0.161003
vt 0.271759 0.159557
vt 0.268668 0.158361
vt 0.268628 0.157793
vt 0.960497 0.382599
vt 0.960497 0.383177
vt 0.308370 0.162080
vt 0.308370 0.162648
vt 0.934823 0.375719
vt 0.931603 0.374284
vt 0.938891 0.377464
vt 0.938881 0.378062
vt 0.934853 0.376268
vt 0.931662 0.374852
vt 0.988913 0.378362
vt 0.992054 0.377185
vt 0.991984 0.377733
vt 0.988893 0.378940
vt 0.281171 0.161651
vt 0.281161 0.162219
vt 0.327673 0.155460
vt 0.325111 0.156875
vt 0.325101 0.156317
vt 0.327663 0.154881
vt 0.943258 0.378930
vt 0.943258 0.379488
vt 0.266973 0.157214
vt 0.267023 0.157793
vt 0.266455 0.157503
vt 0.266265 0.156985
vt 0.993719 0.376617
vt 0.994427 0.376397
vt 0.994207 0.376916
vt 0.993629 0.377195
vt 0.403255 0.418698
vt 0.407193 0.418718
vt 0.403255 0.418100
vt 0.407203 0.418120
vt 0.411072 0.418140
vt 0.411042 0.418738
vt 0.420184 0.433433
vt 0.415438 0.433413
vt 0.420224 0.434031
vt 0.415468 0.434012
vt 0.411012 0.433992
vt 0.410992 0.433393
vt 0.398629 0.418688
vt 0.393505 0.418668
vt 0.393485 0.418070
vt 0.398629 0.418090
vt 0.382737 0.418628
vt 0.388011 0.418648
vt 0.382688 0.418030
vt 0.387982 0.418050
vt 0.382678 0.433284
vt 0.378181 0.433274
vt 0.382618 0.433882
vt 0.378111 0.433862
vt 0.374772 0.433852
vt 0.374871 0.433264
vt 0.372369 0.419974
vt 0.372379 0.418578
vt 0.373196 0.418588
vt 0.373186 0.419984
vt 0.372488 0.418130
vt 0.373107 0.418000
vt 0.374851 0.418000
vt 0.374931 0.418598
vt 0.407133 0.433383
vt 0.407143 0.433982
vt 0.403195 0.433962
vt 0.403205 0.433363
vt 0.415488 0.418748
vt 0.415538 0.418150
vt 0.420294 0.418170
vt 0.420234 0.418768
vt 0.398579 0.433354
vt 0.393445 0.433324
vt 0.398569 0.433942
vt 0.393425 0.433922
vt 0.387962 0.433304
vt 0.387922 0.433902
vt 0.378241 0.418608
vt 0.378181 0.418020
vt 0.373127 0.433254
vt 0.373127 0.431868
vt 0.373027 0.433842
vt 0.372399 0.433702
vt 0.372299 0.433254
vt 0.372309 0.431858
vt 0.928940 0.365550
vt 0.928043 0.358271
vt 0.929638 0.371183
vt 0.928921 0.370914
vt 0.928183 0.365400
vt 0.927235 0.358281
vt 0.329717 0.138889
vt 0.329378 0.146147
vt 0.330385 0.138889
vt 0.330016 0.145988
vt 0.329727 0.151501
vt 0.329119 0.151770
vt 0.929918 0.373536
vt 0.929987 0.374114
vt 0.929419 0.373775
vt 0.929230 0.373247
vt 0.328999 0.154133
vt 0.329607 0.153834
vt 0.329508 0.154363
vt 0.329019 0.154702
vt 0.429446 0.426135
vt 0.429466 0.429425
vt 0.424920 0.429406
vt 0.424929 0.426115
vt 0.429486 0.432077
vt 0.424910 0.432057
vt 0.760333 0.045493
vt 0.760283 0.042173
vt 0.765767 0.042163
vt 0.765816 0.045493
vt 0.760253 0.039491
vt 0.765717 0.039471
vt 0.772765 0.039431
vt 0.772815 0.042143
vt 0.772885 0.045493
vt 0.831857 0.156293
vt 0.831837 0.159585
vt 0.825085 0.159555
vt 0.825125 0.156273
vt 0.831817 0.162238
vt 0.825055 0.162218
vt 0.816278 0.162198
vt 0.816318 0.159535
vt 0.816378 0.156233
vt 0.433723 0.429435
vt 0.433823 0.432087
vt 0.433593 0.426145
vt 0.436794 0.426155
vt 0.437043 0.429445
vt 0.437242 0.432107
vt 0.372339 0.425916
vt 0.372359 0.422636
vt 0.373167 0.422636
vt 0.373156 0.425926
vt 0.424939 0.422835
vt 0.424949 0.420174
vt 0.429406 0.420193
vt 0.429426 0.422845
vt 0.772955 0.048843
vt 0.765866 0.048823
vt 0.773005 0.051555
vt 0.765916 0.051515
vt 0.760413 0.051485
vt 0.760373 0.048803
vt 0.816438 0.152942
vt 0.825155 0.152982
vt 0.816478 0.150269
vt 0.825185 0.150319
vt 0.831897 0.150349
vt 0.831877 0.153012
vt 0.433354 0.420203
vt 0.433454 0.422855
vt 0.436355 0.420203
vt 0.436554 0.422865
vt 0.373147 0.429206
vt 0.372319 0.429206
vt 0.758020 0.045493
vt 0.757980 0.042183
vt 0.757322 0.045473
vt 0.757282 0.042163
vt 0.757252 0.039491
vt 0.757940 0.039511
vt 0.834600 0.156303
vt 0.834580 0.159594
vt 0.835298 0.156303
vt 0.835288 0.159594
vt 0.835278 0.162247
vt 0.834570 0.162247
vt 0.758090 0.051475
vt 0.758060 0.048803
vt 0.757372 0.051455
vt 0.757352 0.048773
vt 0.834620 0.150369
vt 0.834610 0.153022
vt 0.835318 0.150359
vt 0.835308 0.153022
vt 0.424900 0.433453
vt 0.424949 0.434042
vt 0.429496 0.433463
vt 0.429565 0.434061
vt 0.772715 0.037358
vt 0.772745 0.038016
vt 0.765697 0.038066
vt 0.765627 0.037427
vt 0.760233 0.038095
vt 0.760124 0.037467
vt 0.816298 0.164212
vt 0.816248 0.163594
vt 0.825035 0.163604
vt 0.825125 0.164222
vt 0.831817 0.163624
vt 0.831927 0.164232
vt 0.437342 0.433493
vt 0.433882 0.433483
vt 0.437481 0.434081
vt 0.433992 0.434071
vt 0.429456 0.418209
vt 0.429396 0.418808
vt 0.424959 0.418788
vt 0.425019 0.418190
vt 0.760313 0.053479
vt 0.760423 0.052890
vt 0.765936 0.052920
vt 0.765856 0.053509
vt 0.773034 0.052970
vt 0.773005 0.053558
vt 0.832017 0.148344
vt 0.831907 0.148963
vt 0.825205 0.148933
vt 0.825284 0.148304
vt 0.816507 0.148883
vt 0.816547 0.148224
vt 0.433354 0.418219
vt 0.433294 0.418818
vt 0.436305 0.418219
vt 0.436245 0.418818
vt 0.757930 0.038105
vt 0.757791 0.037497
vt 0.757242 0.038076
vt 0.757272 0.037607
vt 0.834560 0.163634
vt 0.834700 0.164232
vt 0.835268 0.163654
vt 0.835248 0.164113
vt 0.757412 0.053309
vt 0.757392 0.052861
vt 0.758110 0.052871
vt 0.757970 0.053449
vt 0.835288 0.148504
vt 0.835318 0.148963
vt 0.834630 0.148982
vt 0.834759 0.148374
vt 0.439276 0.426155
vt 0.439605 0.429445
vt 0.438787 0.429455
vt 0.438478 0.426155
vt 0.439874 0.432107
vt 0.439037 0.432107
vt 0.438678 0.420193
vt 0.438947 0.422855
vt 0.438169 0.422865
vt 0.437920 0.420203
vt 0.440014 0.433503
vt 0.439156 0.433503
vt 0.439954 0.433942
vt 0.439316 0.434081
vt 0.438429 0.418349
vt 0.438538 0.418798
vt 0.437790 0.418818
vt 0.437840 0.418219
s 1
f 84/1/1 191/2/1 103/3/2 194/4/3
f 191/2/1 42/5/4 192/6/3 103/3/2
f 41/7/5 193/8/5 103/3/2 192/6/3
f 193/8/5 72/9/5 194/4/3 103/3/2
f 73/10/4 195/11/4 104/12/6 198/13/7
f 195/11/4 42/5/4 196/14/8 104/12/6
f 43/15/9 197/16/10 104/12/6 196/14/8
f 197/16/10 74/17/11 198/13/7 104/12/6
f 72/9/5 193/8/5 105/18/12 201/19/13
f 193/8/5 41/7/5 199/20/14 105/18/12
f 45/21/15 200/22/15 105/18/12 199/20/14
f 200/22/15 76/23/15 201/19/13 105/18/12
f 76/23/15 200/22/15 106/24/16 204/25/16
f 200/22/15 45/21/15 202/26/16 106/24/16
f 46/27/17 203/28/17 106/24/16 202/26/16
f 203/28/17 77/29/17 204/25/16 106/24/16
f 59/30/18 205/31/18 107/32/18 208/33/18
f 205/31/18 24/34/18 206/35/18 107/32/18
f 27/36/18 207/37/18 107/32/18 206/35/18
f 207/37/18 53/38/18 208/33/18 107/32/18
f 23/39/19 209/40/19 108/41/19 212/42/19
f 209/40/19 17/43/19 210/44/19 108/41/19
f 50/45/19 211/46/19 108/41/19 210/44/19
f 211/46/19 60/47/19 212/42/19 108/41/19
f 21/48/19 213/49/19 109/50/19 216/51/19
f 213/49/19 31/52/19 214/53/19 109/50/19
f 55/54/19 215/55/19 109/50/19 214/53/19
f 215/55/19 61/56/19 216/51/19 109/50/19
f 50/45/19 210/44/19 110/57/19 219/58/19
f 210/44/19 17/43/19 217/59/19 110/57/19
f 18/60/19 218/61/19 110/57/19 217/59/19
f 218/61/19 51/62/19 219/58/19 110/57/19
f 62/63/18 220/64/18 111/65/18 223/66/18
f 220/64/18 22/67/18 221/68/18 111/65/18
f 20/69/18 222/70/18 111/65/18 221/68/18
f 222/70/18 52/71/18 223/66/18 111/65/18
f 63/72/18 224/73/18 112/74/18 226/75/18
f 224/73/18 19/76/18 225/77/18 112/74/18
f 24/34/18 205/31/18 112/74/18 225/77/18
f 205/31/18 59/30/18 226/75/18 112/74/18
f 65/78/19 227/79/19 113/80/19 230/81/19
f 227/79/19 36/82/19 228/83/19 113/80/19
f 28/84/19 229/85/19 113/80/19 228/83/19
f 229/85/19 54/86/19 230/81/19 113/80/19
f 20/69/18 231/87/18 114/88/18 222/70/18
f 231/87/18 19/76/18 224/73/18 114/88/18
f 63/72/18 232/89/18 114/88/18 224/73/18
f 232/89/18 52/71/18 222/70/18 114/88/18
f 18/60/19 233/90/19 115/91/19 218/61/19
f 233/90/19 21/48/19 216/51/19 115/91/19
f 61/56/19 234/92/19 115/91/19 216/51/19
f 234/92/19 51/62/19 218/61/19 115/91/19
f 96/93/18 235/94/18 116/95/18 238/96/18
f 235/94/18 32/97/18 236/98/18 116/95/18
f 56/99/18 237/100/18 116/95/18 236/98/18
f 237/100/18 99/101/18 238/96/18 116/95/18
f 89/102/20 239/103/21 117/104/22 242/105/22
f 239/103/21 47/106/23 240/107/24 117/104/22
f 46/27/17 241/108/25 117/104/22 240/107/24
f 241/108/25 88/109/25 242/105/22 117/104/22
f 27/36/18 243/110/18 118/111/18 207/37/18
f 243/110/18 34/112/18 244/113/18 118/111/18
f 64/114/18 245/115/18 118/111/18 244/113/18
f 245/115/18 53/38/18 207/37/18 118/111/18
f 28/84/19 246/116/19 119/117/19 229/85/19
f 246/116/19 23/39/19 212/42/19 119/117/19
f 60/47/19 247/118/19 119/117/19 212/42/19
f 247/118/19 54/86/19 229/85/19 119/117/19
f 100/119/19 248/120/19 120/121/19 250/122/19
f 248/120/19 55/54/19 214/53/19 120/121/19
f 31/52/19 249/123/19 120/121/19 214/53/19
f 249/123/19 95/124/19 250/122/19 120/121/19
f 56/99/18 236/98/18 121/125/18 252/126/18
f 236/98/18 32/97/18 251/127/18 121/125/18
f 22/67/18 220/64/18 121/125/18 251/127/18
f 220/64/18 62/63/18 252/126/18 121/125/18
f 15/128/26 253/129/27 122/130/28 255/131/29
f 253/129/27 36/82/19 227/79/19 122/130/28
f 65/78/19 254/132/30 122/130/28 227/79/19
f 254/132/30 49/133/31 255/131/29 122/130/28
f 58/134/32 256/135/33 123/136/34 258/137/35
f 256/135/33 64/114/18 244/113/18 123/136/34
f 34/112/18 257/138/36 123/136/34 244/113/18
f 257/138/36 16/139/37 258/137/35 123/136/34
f 83/140/38 259/141/5 124/142/3 260/143/3
f 259/141/5 41/7/5 192/6/3 124/142/3
f 42/5/4 195/11/4 124/142/3 192/6/3
f 195/11/4 73/10/4 260/143/3 124/142/3
f 85/144/39 261/145/40 125/146/41 262/147/42
f 261/145/40 43/15/9 196/14/8 125/146/41
f 42/5/4 191/2/1 125/146/41 196/14/8
f 191/2/1 84/1/1 262/147/42 125/146/41
f 45/21/15 199/20/14 126/148/14 264/149/15
f 199/20/14 41/7/5 259/141/5 126/148/14
f 83/140/38 263/150/12 126/148/14 259/141/5
f 263/150/12 87/151/15 264/149/15 126/148/14
f 88/109/25 241/108/25 127/152/16 265/153/16
f 241/108/25 46/27/17 202/26/16 127/152/16
f 45/21/15 264/149/15 127/152/16 202/26/16
f 264/149/15 87/151/15 265/153/16 127/152/16
f 77/29/17 203/28/17 128/154/24 267/155/24
f 203/28/17 46/27/17 240/107/24 128/154/24
f 47/106/23 266/156/43 128/154/24 240/107/24
f 266/156/43 78/157/44 267/155/24 128/154/24
f 59/30/18 208/33/18 129/158/45 270/159/46
f 208/33/18 53/38/18 268/160/47 129/158/45
f 25/161/48 269/162/49 129/158/45 268/160/47
f 269/162/49 12/163/50 270/159/46 129/158/45
f 60/47/19 211/46/19 130/164/51 273/165/52
f 211/46/19 50/45/19 271/166/53 130/164/51
f 1/167/54 272/168/55 130/164/51 271/166/53
f 272/168/55 11/169/56 273/165/52 130/164/51
f 61/56/19 215/55/19 131/170/57 276/171/58
f 215/55/19 55/54/19 274/172/59 131/170/57
f 30/173/60 275/174/61 131/170/57 274/172/59
f 275/174/61 5/175/62 276/171/58 131/170/57
f 51/62/19 277/176/63 132/177/64 219/58/19
f 277/176/63 2/178/65 278/179/66 132/177/64
f 1/167/54 271/166/53 132/177/64 278/179/66
f 271/166/53 50/45/19 219/58/19 132/177/64
f 52/71/18 279/180/67 133/181/68 223/66/18
f 279/180/67 4/182/69 280/183/70 133/181/68
f 6/184/71 281/185/72 133/181/68 280/183/70
f 281/185/72 62/63/18 223/66/18 133/181/68
f 63/72/18 226/75/18 134/186/73 283/187/74
f 226/75/18 59/30/18 270/159/46 134/186/73
f 12/163/50 282/188/75 134/186/73 270/159/46
f 282/188/75 3/189/76 283/187/74 134/186/73
f 54/86/19 284/190/77 135/191/78 230/81/19
f 284/190/77 26/192/79 285/193/80 135/191/78
f 35/194/81 286/195/82 135/191/78 285/193/80
f 286/195/82 65/78/19 230/81/19 135/191/78
f 63/72/18 283/187/74 136/196/83 232/89/18
f 283/187/74 3/189/76 287/197/84 136/196/83
f 4/182/69 279/180/67 136/196/83 287/197/84
f 279/180/67 52/71/18 232/89/18 136/196/83
f 51/62/19 234/92/19 137/198/85 277/176/63
f 234/92/19 61/56/19 276/171/58 137/198/85
f 5/175/62 288/199/86 137/198/85 276/171/58
f 288/199/86 2/178/65 277/176/63 137/198/85
f 99/101/18 237/100/18 138/200/87 291/201/88
f 237/100/18 56/99/18 289/202/89 138/200/87
f 29/203/90 290/204/91 138/200/87 289/202/89
f 290/204/91 97/205/92 291/201/88 138/200/87
f 53/38/18 245/115/18 139/206/93 268/160/47
f 245/115/18 64/114/18 292/207/94 139/206/93
f 33/208/95 293/209/96 139/206/93 292/207/94
f 293/209/96 25/161/48 268/160/47 139/206/93
f 60/47/19 273/165/52 140/210/97 247/118/19
f 273/165/52 11/169/56 294/211/98 140/210/97
f 26/192/79 284/190/77 140/210/97 294/211/98
f 284/190/77 54/86/19 247/118/19 140/210/97
f 94/212/99 295/213/100 141/214/101 296/215/102
f 295/213/100 30/173/60 274/172/59 141/214/101
f 55/54/19 248/120/19 141/214/101 274/172/59
f 248/120/19 100/119/19 296/215/102 141/214/101
f 62/63/18 281/185/72 142/216/103 252/126/18
f 281/185/72 6/184/71 297/217/104 142/216/103
f 29/203/90 289/202/89 142/216/103 297/217/104
f 289/202/89 56/99/18 252/126/18 142/216/103
f 65/78/19 286/195/82 143/218/105 254/132/30
f 286/195/82 35/194/81 298/219/106 143/218/105
f 13/220/107 299/221/108 143/218/105 298/219/106
f 299/221/108 49/133/31 254/132/30 143/218/105
f 64/114/18 256/135/33 144/222/109 292/207/94
f 256/135/33 58/134/32 300/223/110 144/222/109
f 14/224/111 301/225/112 144/222/109 300/223/110
f 301/225/112 33/208/95 292/207/94 144/222/109
f 72/9/5 302/226/113 145/227/114 194/4/3
f 302/226/113 1/228/54 278/229/66 145/227/114
f 2/230/65 303/231/115 145/227/114 278/229/66
f 303/231/115 84/1/1 194/4/3 145/227/114
f 74/17/11 304/232/116 146/233/117 198/13/7
f 304/232/116 6/234/71 280/235/70 146/233/117
f 4/236/69 305/237/118 146/233/117 280/235/70
f 305/237/118 73/10/4 198/13/7 146/233/117
f 72/9/5 201/19/13 147/238/119 302/226/113
f 201/19/13 76/23/15 306/239/120 147/238/119
f 11/240/56 272/241/55 147/238/119 306/239/120
f 272/241/55 1/228/54 302/226/113 147/238/119
f 77/29/17 307/242/121 148/243/122 204/25/16
f 307/242/121 26/244/79 294/245/98 148/243/122
f 11/240/56 306/239/120 148/243/122 294/245/98
f 306/239/120 76/23/15 204/25/16 148/243/122
f 88/109/25 308/246/123 149/247/124 242/105/22
f 308/246/123 25/248/48 293/249/96 149/247/124
f 33/250/95 309/251/125 149/247/124 293/249/96
f 309/251/125 89/102/20 242/105/22 149/247/124
f 69/252/126 310/253/127 150/254/128 312/255/129
f 310/253/127 13/256/107 298/257/106 150/254/128
f 35/258/81 311/259/130 150/254/128 298/257/106
f 311/259/130 78/157/44 312/255/129 150/254/128
f 73/10/4 305/237/118 151/260/131 260/143/3
f 305/237/118 4/236/69 287/261/84 151/260/131
f 3/262/76 313/263/132 151/260/131 287/261/84
f 313/263/132 83/140/38 260/143/3 151/260/131
f 84/1/1 303/231/115 152/264/133 262/147/42
f 303/231/115 2/230/65 288/265/86 152/264/133
f 5/266/62 314/267/134 152/264/133 288/265/86
f 314/267/134 85/144/39 262/147/42 152/264/133
f 87/151/15 263/150/12 153/268/135 315/269/136
f 263/150/12 83/140/38 313/263/132 153/268/135
f 3/262/76 282/270/75 153/268/135 313/263/132
f 282/270/75 12/271/50 315/269/136 153/268/135
f 87/151/15 315/269/136 154/272/137 265/153/16
f 315/269/136 12/271/50 269/273/49 154/272/137
f 25/248/48 308/246/123 154/272/137 269/273/49
f 308/246/123 88/109/25 265/153/16 154/272/137
f 78/157/44 311/259/130 155/274/138 267/155/24
f 311/259/130 35/258/81 285/275/80 155/274/138
f 26/244/79 307/242/121 155/274/138 285/275/80
f 307/242/121 77/29/17 267/155/24 155/274/138
f 89/102/20 309/251/125 156/276/139 317/277/140
f 309/251/125 33/250/95 301/278/112 156/276/139
f 14/279/111 316/280/141 156/276/139 301/278/112
f 316/280/141 80/281/142 317/277/140 156/276/139
f 96/93/18 238/96/18 157/282/143 320/283/144
f 238/96/18 99/101/18 318/284/145 157/282/143
f 48/285/146 319/286/147 157/282/143 318/284/145
f 319/286/147 10/287/148 320/283/144 157/282/143
f 95/124/19 321/288/149 158/289/150 250/122/19
f 321/288/149 9/290/151 322/291/152 158/289/150
f 57/292/153 323/293/154 158/289/150 322/291/152
f 323/293/154 100/119/19 250/122/19 158/289/150
f 99/101/18 291/201/88 159/294/155 318/284/145
f 291/201/88 97/205/92 324/295/156 159/294/155
f 8/296/157 325/297/158 159/294/155 324/295/156
f 325/297/158 48/285/146 318/284/145 159/294/155
f 100/119/19 323/293/154 160/298/159 296/215/102
f 323/293/154 57/292/153 326/299/160 160/298/159
f 7/300/161 327/301/162 160/298/159 326/299/160
f 327/301/162 94/212/99 296/215/102 160/298/159
f 40/302/163 328/303/164 161/304/165 330/305/166
f 328/303/164 71/306/167 329/307/168 161/304/165
f 74/17/11 197/16/10 161/304/165 329/307/168
f 197/16/10 43/15/9 330/305/166 161/304/165
f 66/308/169 331/309/170 162/310/171 334/311/172
f 331/309/170 90/312/173 332/313/174 162/310/171
f 79/314/175 333/315/176 162/310/171 332/313/174
f 333/315/176 37/316/177 334/311/172 162/310/171
f 67/317/178 335/318/179 163/319/180 338/320/181
f 335/318/179 91/321/182 336/322/183 163/319/180
f 81/323/184 337/324/185 163/319/180 336/322/183
f 337/324/185 39/325/186 338/320/181 163/319/180
f 71/306/167 328/303/164 164/326/187 341/327/188
f 328/303/164 40/302/163 339/328/189 164/326/187
f 98/329/190 340/330/191 164/326/187 339/328/189
f 340/330/191 101/331/192 341/327/188 164/326/187
f 38/332/193 342/333/194 165/334/195 343/335/196
f 342/333/194 69/252/126 312/255/129 165/334/195
f 78/157/44 266/156/43 165/334/195 312/255/129
f 266/156/43 47/106/23 343/335/196 165/334/195
f 43/15/9 261/145/40 166/336/197 330/305/166
f 261/145/40 85/144/39 344/337/198 166/336/197
f 82/338/199 345/339/200 166/336/197 344/337/198
f 345/339/200 40/302/163 330/305/166 166/336/197
f 37/316/177 346/340/201 167/341/202 334/311/172
f 346/340/201 68/342/203 347/343/204 167/341/202
f 92/344/205 348/345/206 167/341/202 347/343/204
f 348/345/206 66/308/169 334/311/172 167/341/202
f 39/325/186 349/346/207 168/347/208 338/320/181
f 349/346/207 70/348/209 350/349/210 168/347/208
f 93/350/211 351/351/212 168/347/208 350/349/210
f 351/351/212 67/317/178 338/320/181 168/347/208
f 82/338/199 352/352/213 169/353/214 345/339/200
f 352/352/213 102/354/215 353/355/216 169/353/214
f 98/329/190 339/328/189 169/353/214 353/355/216
f 339/328/189 40/302/163 345/339/200 169/353/214
f 47/106/23 239/103/21 170/356/217 343/335/196
f 239/103/21 89/102/20 317/277/140 170/356/217
f 80/281/142 354/357/218 170/356/217 317/277/140
f 354/357/218 38/332/193 343/335/196 170/356/217
f 66/308/169 355/358/219 171/359/220 331/309/170
f 355/358/219 44/360/221 356/361/222 171/359/220
f 86/362/223 357/363/224 171/359/220 356/361/222
f 357/363/224 90/312/173 331/309/170 171/359/220
f 67/317/178 358/364/225 172/365/226 335/318/179
f 358/364/225 38/366/193 354/367/218 172/365/226
f 80/368/142 359/369/227 172/365/226 354/367/218
f 359/369/227 91/321/182 335/318/179 172/365/226
f 92/344/205 360/370/228 173/371/229 348/345/206
f 360/370/228 75/372/230 361/373/231 173/371/229
f 44/360/221 355/358/219 173/371/229 361/373/231
f 355/358/219 66/308/169 348/345/206 173/371/229
f 93/350/211 362/374/232 174/375/233 351/351/212
f 362/374/232 69/376/126 342/377/194 174/375/233
f 38/366/193 358/364/225 174/375/233 342/377/194
f 358/364/225 67/317/178 351/351/212 174/375/233
f 6/234/71 304/232/116 175/378/234 297/379/104
f 304/232/116 74/17/11 329/307/168 175/378/234
f 71/306/167 363/380/235 175/378/234 329/307/168
f 363/380/235 29/381/90 297/379/104 175/378/234
f 9/382/151 364/383/236 176/384/237 322/385/152
f 364/383/236 79/314/175 332/313/174 176/384/237
f 90/312/173 365/386/238 176/384/237 332/313/174
f 365/386/238 57/387/153 322/385/152 176/384/237
f 16/388/37 366/389/239 177/390/240 258/391/35
f 366/389/239 81/323/184 336/322/183 177/390/240
f 91/321/182 367/392/241 177/390/240 336/322/183
f 367/392/241 58/393/32 258/391/35 177/390/240
f 101/331/192 368/394/242 178/395/243 341/327/188
f 368/394/242 97/396/92 290/397/91 178/395/243
f 29/381/90 363/380/235 178/395/243 290/397/91
f 363/380/235 71/306/167 341/327/188 178/395/243
f 30/398/60 369/399/244 179/400/245 275/401/61
f 369/399/244 82/338/199 344/337/198 179/400/245
f 85/144/39 314/267/134 179/400/245 344/337/198
f 314/267/134 5/266/62 275/401/61 179/400/245
f 48/402/146 370/403/246 180/404/247 319/405/147
f 370/403/246 92/344/205 347/343/204 180/404/247
f 68/342/203 371/406/248 180/404/247 347/343/204
f 371/406/248 10/407/148 319/405/147 180/404/247
f 49/408/31 372/409/249 181/410/250 255/411/29
f 372/409/249 93/350/211 350/349/210 181/410/250
f 70/348/209 373/412/251 181/410/250 350/349/210
f 373/412/251 15/413/26 255/411/29 181/410/250
f 30/398/60 295/414/100 182/415/252 369/399/244
f 295/414/100 94/416/99 374/417/253 182/415/252
f 102/354/215 352/352/213 182/415/252 374/417/253
f 352/352/213 82/338/199 369/399/244 182/415/252
f 57/387/153 365/386/238 183/418/254 326/419/160
f 365/386/238 90/312/173 357/363/224 183/418/254
f 86/362/223 375/420/255 183/418/254 357/363/224
f 375/420/255 7/421/161 326/419/160 183/418/254
f 58/393/32 367/392/241 184/422/256 300/423/110
f 367/392/241 91/321/182 359/369/227 184/422/256
f 80/368/142 316/424/141 184/422/256 359/369/227
f 316/424/141 14/425/111 300/423/110 184/422/256
f 8/426/157 376/427/257 185/428/258 325/429/158
f 376/427/257 75/372/230 360/370/228 185/428/258
f 92/344/205 370/403/246 185/428/258 360/370/228
f 370/403/246 48/402/146 325/429/158 185/428/258
f 13/430/107 310/431/127 186/432/259 299/433/108
f 310/431/127 69/376/126 362/374/232 186/432/259
f 93/350/211 372/409/249 186/432/259 362/374/232
f 372/409/249 49/408/31 299/433/108 186/432/259
f 44/434/221 361/435/231 187/436/260 378/437/261
f 361/435/231 75/438/230 377/439/262 187/436/260
f 101/331/192 340/330/191 187/436/260 377/439/262
f 340/330/191 98/329/190 378/437/261 187/436/260
f 86/440/223 356/441/222 188/442/263 379/443/264
f 356/441/222 44/434/221 378/437/261 188/442/263
f 98/329/190 353/355/216 188/442/263 378/437/261
f 353/355/216 102/354/215 379/443/264 188/442/263
f 75/438/230 376/444/257 189/445/265 377/439/262
f 376/444/257 8/446/157 324/447/156 189/445/265
f 97/396/92 368/394/242 189/445/265 324/447/156
f 368/394/242 101/331/192 377/439/262 189/445/265
f 7/448/161 375/449/255 190/450/266 327/451/162
f 375/449/255 86/440/223 379/443/264 190/450/266
f 102/354/215 374/417/253 190/450/266 379/443/264
f 374/417/253 94/416/99 327/451/162 190/450/266
