# Blender 4.5.3 LTS
# www.blender.org
o B2
v 59.944023 -16.118153 27.340641
v 58.427956 -16.118258 26.328999
v 57.415684 -16.116301 24.817348
v 57.060017 -16.115011 23.034473
v 57.414928 -16.115248 21.251362
v 58.427200 -16.116508 19.738491
v 59.944130 -16.117109 18.726192
v 61.736107 -16.115816 18.370037
v 63.529671 -16.113340 18.726582
v 65.048592 -16.112333 19.741383
v 66.059822 -16.114281 21.255772
v 66.412987 -16.117119 23.035656
v 66.058769 -16.117657 24.813862
v 65.048592 -16.115976 26.325748
v 63.530884 -16.114901 27.339977
v 61.736572 -16.116070 27.696934
v 59.424866 -22.690712 20.782482
v 60.356888 -22.451544 20.532024
v 61.692059 -22.083574 20.417812
v 63.043732 -21.708900 20.531872
v 64.014130 -21.414557 20.785168
v 59.179749 -22.775578 21.727291
v 60.379528 -22.522047 21.741055
v 61.714298 -22.165443 21.723873
v 63.062649 -21.784920 21.745907
v 64.281799 -21.363350 21.736065
v 59.065025 -22.806057 23.062115
v 60.358730 -22.535654 23.076229
v 61.717838 -22.173689 23.082081
v 63.093292 -21.783978 23.077274
v 64.405983 -21.327381 23.064335
v 59.166157 -22.774961 24.390324
v 60.373363 -22.519558 24.399456
v 61.714420 -22.160816 24.427311
v 63.074497 -21.776730 24.398251
v 64.298454 -21.353979 24.385914
v 59.399845 -22.689791 25.327419
v 60.340904 -22.447649 25.584911
v 61.689613 -22.075418 25.700596
v 63.065990 -21.694056 25.579296
v 64.041260 -21.399700 25.317570
v 59.848583 -22.236994 27.317219
v 58.380135 -22.692436 26.317570
v 57.424946 -22.987988 24.816051
v 57.094475 -23.091599 23.037189
v 57.441917 -22.988064 21.257450
v 58.417061 -22.691547 19.751942
v 59.885654 -22.241043 18.749561
v 61.640686 -21.700392 18.397434
v 63.425587 -21.150578 18.751972
v 64.964584 -20.678263 19.760952
v 66.006195 -20.359894 21.269016
v 66.383965 -20.244535 23.039318
v 66.036842 -20.348038 24.805920
v 65.013931 -20.655823 26.307178
v 63.464394 -21.125471 27.313931
v 61.632507 -21.685944 27.669193
v 58.420788 -17.174578 26.329731
v 58.387451 -21.774357 26.333164
v 59.875721 -21.301836 27.341671
v 59.931915 -17.090780 27.340824
v 57.414951 -17.227467 24.818295
v 57.411526 -22.081947 24.822681
v 57.062290 -17.245462 23.034840
v 57.072853 -22.189457 23.036518
v 57.416935 -17.226437 21.251064
v 57.426247 -22.080904 21.249645
v 58.425858 -17.172607 19.738003
v 58.419598 -21.771294 19.735752
v 59.937771 -17.090153 18.725925
v 59.908276 -21.303152 18.724735
v 61.725773 -16.989723 18.369968
v 61.677731 -20.742395 18.369656
v 63.518837 -16.886635 18.726612
v 63.468452 -20.172115 18.726849
v 65.041191 -16.798899 19.741833
v 65.006813 -19.681625 19.743755
v 66.057419 -16.741859 21.256527
v 66.046303 -19.350700 21.260098
v 66.414398 -16.723026 23.036129
v 66.420891 -19.231232 23.038494
v 66.061134 -16.742643 24.813793
v 66.072136 -19.339457 24.813511
v 65.048592 -16.798117 26.325390
v 65.048515 -19.660345 26.323757
v 63.525623 -16.883787 27.339756
v 63.501144 -20.148745 27.338741
v 61.724773 -16.987810 27.696888
v 61.670033 -20.730453 27.696606
v 58.524551 -22.759661 26.163776
v 57.654289 -23.024639 24.741932
v 57.353992 -23.117342 23.040279
v 57.670685 -23.024780 21.337154
v 58.560020 -22.758883 19.910526
v 59.952499 -22.337225 18.995678
v 61.637524 -21.826622 18.673725
v 63.351807 -21.307877 18.996563
v 64.815262 -20.866169 19.917988
v 65.765923 -20.577316 21.348248
v 66.110329 -20.472227 23.042721
v 65.795158 -20.565260 24.732883
v 64.862480 -20.843950 26.155140
v 63.389591 -21.283522 27.074780
v 61.630028 -21.813158 27.398769
v 59.917728 -22.333549 27.076572
v 65.352501 -20.892294 23.052776
v 65.137924 -20.951876 24.537876
v 64.482002 -21.140480 25.752903
v 63.211491 -21.503738 26.404217
v 61.659607 -21.949656 26.625439
v 60.149391 -22.385139 26.400249
v 58.953926 -22.732702 25.755215
v 58.347122 -22.909475 24.540745
v 58.144913 -22.969812 23.050373
v 58.362282 -22.909798 21.556316
v 58.985592 -22.732758 20.336872
v 60.175476 -22.389044 19.693172
v 61.664734 -21.960764 19.468174
v 63.180134 -21.524237 19.685047
v 64.444458 -21.159277 20.333614
v 65.115143 -20.962666 21.562199
v 59.102737 -19.498184 26.909870
v 57.835304 -19.730988 25.625393
v 57.154846 -19.854259 23.945606
v 57.158768 -19.853823 22.125706
v 57.849197 -19.728956 20.444302
v 59.123356 -19.496506 19.157368
v 60.793739 -19.188026 18.460407
v 62.613392 -18.847834 18.460812
v 64.307495 -18.528416 19.160877
v 65.612236 -18.281904 20.452045
v 66.322586 -18.147989 22.131336
v 66.330231 -18.145470 23.942516
v 65.633041 -18.273643 25.617519
v 64.332123 -18.515463 26.905399
v 62.621822 -18.837172 27.605419
v 60.780064 -19.184681 27.606121
v 59.792938 -22.636497 21.153797
v 61.028652 -22.319704 21.059422
v 62.384956 -21.947140 21.061008
v 63.644890 -21.578157 21.159664
v 59.700684 -22.682184 22.395702
v 61.039925 -22.361301 22.405010
v 62.400501 -21.987438 22.406612
v 63.757198 -21.567532 22.400921
v 59.695831 -22.681414 23.740337
v 61.038548 -22.359507 23.752361
v 62.403690 -21.984097 23.752514
v 63.764824 -21.562822 23.739819
v 59.776581 -22.634649 24.968487
v 61.022148 -22.314999 25.074406
v 62.393402 -21.937874 25.072453
v 63.665760 -21.565775 24.960583
v 59.134892 -16.256519 26.908428
v 59.056404 -22.373541 26.911312
v 57.847412 -16.264915 25.622433
v 57.816185 -22.751431 25.628338
v 57.150925 -16.268147 23.943287
v 57.156639 -22.952477 23.947903
v 57.150673 -16.267626 22.125706
v 57.164532 -22.952652 22.125706
v 57.847115 -16.263388 20.445766
v 57.843765 -22.750677 20.442852
v 59.135460 -16.254986 19.158604
v 59.096340 -22.374294 19.156094
v 60.821278 -16.242102 18.460865
v 60.745579 -21.875429 18.459957
v 62.648762 -16.226177 18.460880
v 62.556389 -21.326178 18.460735
v 64.337753 -16.211164 19.160191
v 64.259521 -20.810398 19.161533
v 65.627892 -16.201584 20.450024
v 65.585075 -20.410856 20.454067
v 66.323303 -16.198790 22.129101
v 66.314934 -20.191956 22.133564
v 66.322960 -16.200531 23.941822
v 66.330757 -20.186148 23.943195
v 65.628059 -16.204996 25.618313
v 65.627075 -20.393583 25.616695
v 64.339485 -16.213230 26.906391
v 64.307831 -20.785494 26.904385
v 62.650051 -16.226391 27.605885
v 62.572803 -21.305683 27.604961
v 60.820740 -16.242447 27.606030
v 60.719601 -21.866716 27.606197
v 59.090294 -22.528633 26.827923
v 57.885197 -22.901613 25.581097
v 57.249310 -23.098173 23.933727
v 57.257263 -23.098383 22.142200
v 57.912815 -22.900942 20.491901
v 59.130138 -22.529297 19.241039
v 60.748577 -22.031946 18.568684
v 62.531731 -21.483679 18.569569
v 64.204720 -20.970694 19.246838
v 65.494751 -20.575815 20.503658
v 66.199875 -20.359924 22.150455
v 66.215805 -20.353832 23.929050
v 65.537003 -20.557919 25.569401
v 64.253479 -20.945292 26.821140
v 62.548443 -21.463184 27.498051
v 60.722679 -22.023474 27.499241
v 59.659603 -22.576872 25.835613
v 58.897766 -22.793322 25.051388
v 58.614216 -22.874498 23.771656
v 58.621346 -22.874737 22.338543
v 58.921471 -22.793480 21.052670
v 59.686890 -22.578701 20.267765
v 60.958801 -22.219994 19.958897
v 62.403786 -21.814034 19.955463
v 63.722359 -21.443296 20.263493
v 64.539948 -21.210962 21.056583
v 64.862724 -21.116503 22.344357
v 64.872917 -21.111246 23.771091
v 64.566864 -21.197161 25.045048
v 63.754879 -21.425058 25.831242
v 62.416172 -21.799791 26.147236
v 60.944687 -22.213545 26.146938
v 58.421787 -22.735876 26.268681
v 57.490883 -23.023252 24.793385
v 57.168644 -23.124006 23.038044
v 57.507706 -23.023338 21.281651
v 58.458328 -22.734982 19.802006
v 59.902233 -22.292187 18.824718
v 61.636143 -21.758984 18.480961
v 63.399841 -21.217192 18.827259
v 64.913887 -20.753702 19.811298
v 65.929398 -20.442669 21.293522
v 66.298050 -20.329617 23.040325
v 65.959877 -20.430588 24.783215
v 64.962959 -20.731062 26.258427
v 63.438641 -21.192135 27.240147
v 59.061298 -22.481125 26.890522
v 58.426983 -16.261532 26.329105
v 59.847858 -22.132168 27.341816
v 57.830334 -22.862595 25.616611
v 57.415588 -16.267015 24.817471
v 57.177067 -23.065088 23.944424
v 57.060322 -16.268345 23.034496
v 57.415207 -16.265968 21.251316
v 57.185062 -23.065283 22.129818
v 58.427025 -16.259764 19.738415
v 57.858215 -22.861877 20.455090
v 59.943268 -16.249098 18.726162
v 59.101616 -22.481884 19.177319
v 61.734703 -16.234346 18.370037
v 60.742832 -21.977106 18.487103
v 63.528210 -16.218241 18.726582
v 62.546612 -21.421190 18.487949
v 65.047600 -16.205462 19.741444
v 64.242393 -20.899658 19.182865
v 66.059486 -16.199404 21.255856
v 65.559525 -20.496267 20.466534
v 66.413170 -16.199306 23.035717
v 66.283585 -20.275347 22.137806
v 66.299606 -20.269392 23.939663
v 66.059105 -16.202425 24.813862
v 65.602051 -20.478605 25.604839
v 65.048592 -16.208492 26.325672
v 64.291328 -20.874336 26.883541
v 63.530163 -16.219194 27.339962
v 62.563229 -21.400484 27.578251
v 61.734974 -16.234310 27.696934
v 60.716606 -21.968365 27.579456
v 60.382648 -22.491598 21.101086
v 59.793591 -22.603796 20.648983
v 59.294323 -22.741459 21.157589
v 59.742706 -22.666182 21.747570
v 61.704826 -22.133888 21.041752
v 61.002804 -22.274088 20.450130
v 61.039856 -22.350792 21.729954
v 63.040997 -21.761311 21.104565
v 62.385258 -21.892088 20.449711
v 62.393250 -21.978998 21.732372
v 64.157539 -21.395462 21.164341
v 63.628750 -21.543308 20.650555
v 63.708435 -21.576630 21.755054
v 60.367580 -22.534365 22.403805
v 59.098778 -22.797930 22.375629
v 59.680485 -22.686562 23.069523
v 61.717632 -22.175009 22.404247
v 61.036835 -22.360952 23.080456
v 63.082401 -21.788357 22.407146
v 62.404663 -21.984962 23.080936
v 64.369270 -21.338923 22.381962
v 63.779800 -21.559910 23.071194
v 60.364807 -22.533052 23.745121
v 59.092175 -22.797569 23.746357
v 59.732601 -22.664759 24.382015
v 61.717922 -22.172590 23.756618
v 61.036526 -22.347374 24.417904
v 63.088417 -21.784134 23.745197
v 62.399345 -21.972527 24.417576
v 64.378006 -21.333954 23.745419
v 63.723164 -21.567669 24.378895
v 60.371880 -22.488243 25.028187
v 59.272953 -22.740822 24.955997
v 59.771122 -22.601789 25.464703
v 61.703854 -22.127380 25.093678
v 60.992531 -22.268381 25.668560
v 63.058228 -21.749620 25.023746
v 62.395718 -21.880255 25.666035
v 64.180496 -21.382803 24.946514
v 63.655357 -21.527956 25.454769
v 61.628117 -21.744843 27.587063
v 59.865623 -22.288321 27.243298
v 64.913513 -21.101048 23.058331
v 59.136246 -16.118515 26.908360
v 57.847927 -16.117369 25.622303
v 57.150749 -16.115482 23.943195
v 57.150322 -16.114954 22.125706
v 57.847034 -16.115854 20.445812
v 59.135983 -16.116987 19.158665
v 60.822453 -16.116682 18.460880
v 62.650269 -16.114571 18.460880
v 64.339027 -16.112528 19.160175
v 65.628563 -16.113022 20.449902
v 66.323341 -16.115812 22.128994
v 66.322639 -16.117739 23.941761
v 65.627838 -16.116928 25.618359
v 64.339790 -16.115215 26.906452
v 62.651268 -16.115248 27.605900
v 60.822460 -16.117191 27.606030
v 58.404121 -19.627169 26.331470
v 58.370724 -22.582663 26.333797
v 59.903820 -19.349014 27.341251
v 59.942379 -16.250078 27.340672
v 57.413231 -19.807413 24.820507
v 57.406818 -22.875967 24.823521
v 57.067570 -19.870169 23.035702
v 57.073273 -22.978771 23.036861
v 57.421577 -19.806383 21.250362
v 57.423599 -22.876013 21.249378
v 58.422718 -19.624659 19.736858
v 58.407249 -22.581755 19.735332
v 59.923031 -19.349363 18.725323
v 59.884590 -22.136215 18.724499
v 61.701752 -19.018757 18.369816
v 61.647003 -21.602057 18.369579
v 63.493641 -18.682089 18.726742
v 63.438908 -21.058655 18.726894
v 65.024025 -18.392965 19.742802
v 64.985764 -20.591194 19.744114
v 66.051880 -18.198980 21.258327
v 66.035477 -20.275679 21.260807
v 66.417633 -18.129841 23.037327
v 66.415878 -20.161493 23.038898
v 66.066628 -18.193766 24.813656
v 66.065735 -20.264107 24.813465
v 65.048538 -18.381933 26.324574
v 65.034523 -20.569170 26.323444
v 63.513382 -18.668972 27.339260
v 63.477230 -21.033873 27.338535
v 61.697414 -19.011833 27.696758
v 61.638897 -21.587704 27.696575
v 59.126167 -17.135929 26.908787
v 59.079304 -21.555012 26.910938
v 57.844131 -17.205212 25.623226
v 57.826488 -21.951349 25.627560
v 57.151993 -17.241007 23.943943
v 57.157730 -22.162079 23.947292
v 57.152878 -17.240511 22.125706
v 57.164650 -22.161722 22.125706
v 57.847683 -17.203547 20.445347
v 57.850704 -21.948971 20.443226
v 59.132175 -17.134363 19.158260
v 59.114521 -21.553251 19.156437
v 60.813816 -17.041294 18.460751
v 60.773670 -21.029352 18.460064
v 62.639164 -16.937389 18.460865
v 62.587608 -20.452847 18.460751
v 64.329536 -16.839806 19.160389
v 64.285439 -19.911610 19.161350
v 65.623627 -16.765938 20.450573
v 65.600845 -19.492443 20.453518
v 66.323112 -16.727579 22.129719
v 66.322067 -19.262983 22.132954
v 66.324928 -16.728170 23.941982
v 66.335548 -19.257345 23.943035
v 65.629417 -16.766186 25.618092
v 65.636696 -19.475679 25.616909
v 64.337502 -16.837791 26.906124
v 64.326775 -19.887720 26.904667
v 62.642395 -16.934666 27.605747
v 62.601250 -20.434288 27.605091
v 60.809711 -17.040627 27.606045
v 60.750412 -21.023298 27.606182
v 59.166534 -22.563219 26.690243
v 58.019909 -22.913420 25.503956
v 57.429363 -23.093462 23.908955
v 57.437088 -23.093714 22.171329
v 58.046841 -22.912855 20.572796
v 59.204781 -22.563911 19.382603
v 60.774483 -22.088074 18.756428
v 62.508305 -21.562967 18.756351
v 64.132950 -21.072168 19.386440
v 65.362259 -20.700188 20.583202
v 66.018196 -20.500582 22.179295
v 66.033516 -20.494492 23.904919
v 65.402832 -20.682476 25.493671
v 64.180115 -21.047352 26.685093
v 62.524693 -21.543217 27.315540
v 60.749947 -22.080050 27.315929
v 64.753242 -21.144230 24.445644
v 64.253967 -21.285580 25.522495
v 63.124130 -21.601261 26.022449
v 61.675091 -22.008097 26.192966
v 60.260937 -22.406389 26.023151
v 59.189098 -22.710634 25.529858
v 58.725983 -22.842199 24.449039
v 58.575123 -22.886557 23.055927
v 58.740841 -22.842545 21.657963
v 59.218399 -22.711037 20.572582
v 60.282009 -22.410381 20.081936
v 61.678909 -22.017780 19.912212
v 63.097115 -21.619085 20.076542
v 64.222343 -21.302105 20.571705
v 64.733788 -21.154268 21.665134
v 59.490715 -22.576374 26.141888
v 58.586220 -22.839735 25.204990
v 58.196404 -22.953876 23.811985
v 58.203560 -22.954161 22.287601
v 58.611000 -22.839716 20.889118
v 59.522083 -22.577845 19.950413
v 60.900620 -22.180397 19.528576
v 62.434898 -21.738997 19.523464
v 63.869400 -21.325565 19.943317
v 64.846939 -21.041698 20.891163
v 65.287392 -20.911955 22.292866
v 65.299263 -20.906389 23.811390
v 64.878830 -21.026400 25.201435
v 63.907661 -21.304642 26.143116
v 62.448986 -21.722597 26.568371
v 60.882690 -22.173372 26.565418
v 59.328621 -22.570236 26.416080
v 58.739235 -22.746620 25.959484
v 60.033554 -22.359777 26.738430
v 58.303070 -22.877022 25.354473
v 58.000698 -22.967497 24.641338
v 57.812889 -23.024111 23.860462
v 57.749454 -23.044016 23.045322
v 57.820328 -23.024376 22.229450
v 58.016483 -22.967731 21.446728
v 58.328926 -22.876722 20.730946
v 58.772804 -22.746260 20.123676
v 59.363434 -22.571318 19.666508
v 60.063992 -22.363573 19.344402
v 60.837547 -22.134680 19.142521
v 61.651127 -21.894133 19.070942
v 62.471592 -21.651419 19.139935
v 63.265972 -21.416498 19.340778
v 64.001175 -21.199305 19.664883
v 64.629852 -21.013157 20.125797
v 65.104599 -20.871382 20.737202
v 65.440521 -20.770432 21.455189
v 65.652794 -20.706705 22.236080
v 65.731400 -20.682697 23.047741
v 65.466545 -20.759007 24.635387
v 65.666374 -20.700882 23.858112
v 65.140831 -20.854877 25.347553
v 64.672241 -20.992647 25.954014
v 64.043900 -21.176434 26.414104
v 63.300533 -21.394068 26.739483
v 62.486835 -21.633339 26.941952
v 61.644829 -21.881840 27.012096
v 60.816319 -22.127150 26.940670
vn 0.1304 -0.9780 0.1628
vn 0.1763 -0.9778 0.1133
vn 0.2045 -0.9684 0.1427
vn 0.1680 -0.9661 0.1960
vn 0.2365 -0.9614 0.1406
vn 0.2319 -0.9603 0.1552
vn 0.2121 -0.9684 0.1313
vn 0.1171 -0.9869 0.1110
vn 0.1233 -0.9902 0.0652
vn 0.1734 -0.9840 0.0403
vn 0.1670 -0.9833 0.0717
vn 0.1815 -0.9781 0.1017
vn 0.1698 -0.9837 0.0593
vn 0.1303 -0.9910 0.0306
vn 0.1329 -0.9911 0.0010
vn 0.1818 -0.9833 0.0010
vn 0.1797 -0.9835 0.0190
vn 0.1835 -0.9829 0.0151
vn 0.1766 -0.9838 0.0316
vn 0.1244 -0.9902 -0.0636
vn 0.1738 -0.9840 -0.0382
vn 0.1799 -0.9835 -0.0170
vn 0.1309 -0.9910 -0.0291
vn 0.1856 -0.9826 0.0011
vn 0.1835 -0.9829 -0.0132
vn 0.1320 -0.9785 -0.1583
vn 0.1772 -0.9781 -0.1095
vn 0.1677 -0.9834 -0.0693
vn 0.1187 -0.9870 -0.1087
vn 0.1769 -0.9838 -0.0294
vn 0.1702 -0.9838 -0.0569
vn 0.1693 -0.9672 -0.1895
vn 0.2100 -0.9566 -0.2018
vn 0.2326 -0.9612 -0.1483
vn 0.2053 -0.9690 -0.1371
vn 0.1823 -0.9784 -0.0979
vn 0.2131 -0.9689 -0.1258
vn 0.2460 -0.9459 -0.2116
vn 0.2818 -0.9329 -0.2244
vn 0.2798 -0.9448 -0.1707
vn 0.2556 -0.9538 -0.1579
vn 0.2549 -0.9567 -0.1403
vn 0.2373 -0.9621 -0.1340
vn 0.3672 -0.8944 -0.2556
vn 0.3420 -0.9171 -0.2047
vn 0.3077 -0.9331 -0.1864
vn 0.3210 -0.9163 -0.2394
vn 0.2955 -0.9409 -0.1654
vn 0.2737 -0.9499 -0.1509
vn 0.4252 -0.8657 -0.2641
vn 0.4869 -0.8401 -0.2391
vn 0.4498 -0.8715 -0.1955
vn 0.3905 -0.8946 -0.2174
vn 0.3656 -0.9095 -0.1978
vn 0.3225 -0.9285 -0.1842
vn 0.5232 -0.8336 -0.1772
vn 0.5313 -0.8398 -0.1115
vn 0.4892 -0.8682 -0.0834
vn 0.4848 -0.8637 -0.1375
vn 0.4630 -0.8792 -0.1119
vn 0.4268 -0.8877 -0.1727
vn 0.5316 -0.8452 -0.0548
vn 0.5317 -0.8469 -0.0016
vn 0.4863 -0.8738 -0.0009
vn 0.4870 -0.8724 -0.0408
vn 0.4594 -0.8877 -0.0311
vn 0.4643 -0.8833 -0.0641
vn 0.5315 -0.8399 0.1098
vn 0.4890 -0.8684 0.0826
vn 0.4869 -0.8726 0.0392
vn 0.5317 -0.8453 0.0519
vn 0.4577 -0.8891 -0.0003
vn 0.4591 -0.8878 0.0305
vn 0.4866 -0.8393 0.2424
vn 0.4498 -0.8708 0.1986
vn 0.4845 -0.8638 0.1384
vn 0.5232 -0.8335 0.1776
vn 0.4639 -0.8836 0.0639
vn 0.4626 -0.8794 0.1130
vn 0.3657 -0.8927 0.2634
vn 0.3413 -0.9158 0.2120
vn 0.3900 -0.8933 0.2231
vn 0.4243 -0.8643 0.2701
vn 0.4265 -0.8871 0.1762
vn 0.3655 -0.9083 0.2035
vn 0.2810 -0.9309 0.2335
vn 0.2793 -0.9434 0.1788
vn 0.3071 -0.9316 0.1943
vn 0.3197 -0.9144 0.2482
vn 0.3224 -0.9271 0.1912
vn 0.2954 -0.9396 0.1729
vn 0.2091 -0.9551 0.2098
vn 0.2549 -0.9527 0.1656
vn 0.2453 -0.9440 0.2206
vn 0.2736 -0.9487 0.1586
vn 0.2545 -0.9557 0.1478
vn -0.5523 0.0060 0.8336
vn -0.5635 0.0092 0.8261
vn -0.3525 0.0065 0.9358
vn -0.3552 0.0048 0.9348
vn -0.5310 0.0056 0.8473
vn -0.3638 0.0046 0.9314
vn -0.7105 0.0051 0.7036
vn -0.7135 0.0055 0.7007
vn -0.7167 0.0084 0.6973
vn -0.8370 0.0036 0.5472
vn -0.8400 0.0058 0.5426
vn -0.8344 0.0033 0.5512
vn -0.9256 0.0011 0.3786
vn -0.9271 0.0012 0.3747
vn -0.9288 0.0025 0.3705
vn -0.9818 -0.0008 0.1897
vn -0.9823 -0.0001 0.1871
vn -0.9813 -0.0008 0.1924
vn -0.9986 -0.0020 -0.0530
vn -0.9991 -0.0021 -0.0435
vn -0.9992 -0.0019 -0.0398
vn -0.9809 -0.0022 -0.1943
vn -0.9810 -0.0019 -0.1939
vn -0.9809 -0.0020 -0.1945
vn -0.9432 -0.0017 -0.3323
vn -0.9402 -0.0017 -0.3406
vn -0.9391 -0.0010 -0.3435
vn -0.8347 -0.0002 -0.5508
vn -0.8364 0.0018 -0.5482
vn -0.8333 -0.0002 -0.5529
vn -0.7099 0.0012 -0.7043
vn -0.7119 0.0013 -0.7023
vn -0.7143 0.0041 -0.6998
vn -0.5610 0.0025 -0.8278
vn -0.5635 0.0055 -0.8261
vn -0.5589 0.0023 -0.8292
vn -0.3548 0.0026 -0.9349
vn -0.3781 0.0028 -0.9258
vn -0.3895 0.0054 -0.9210
vn -0.1666 0.0018 -0.9860
vn -0.1636 0.0027 -0.9865
vn -0.1760 0.0017 -0.9844
vn -0.0030 -0.0000 -1.0000
vn -0.0029 -0.0000 -1.0000
vn -0.0023 -0.0000 -1.0000
vn 0.1915 -0.0028 -0.9815
vn 0.1929 -0.0037 -0.9812
vn 0.1910 -0.0025 -0.9816
vn 0.3797 -0.0053 -0.9251
vn 0.3798 -0.0058 -0.9250
vn 0.3809 -0.0075 -0.9246
vn 0.5259 -0.0077 -0.8505
vn 0.5251 -0.0103 -0.8510
vn 0.5354 -0.0071 -0.8446
vn 0.6803 -0.0078 -0.7329
vn 0.6949 -0.0085 -0.7190
vn 0.7015 -0.0123 -0.7125
vn 0.8268 -0.0073 -0.5624
vn 0.8252 -0.0109 -0.5647
vn 0.8286 -0.0066 -0.5598
vn 0.9219 -0.0040 -0.3874
vn 0.9205 -0.0045 -0.3906
vn 0.9190 -0.0078 -0.3942
vn 0.9794 -0.0009 -0.2021
vn 0.9786 -0.0042 -0.2058
vn 0.9800 -0.0008 -0.1989
vn 0.9995 0.0023 0.0315
vn 1.0000 0.0023 0.0069
vn 1.0000 -0.0013 -0.0069
vn 0.9739 0.0039 0.2272
vn 0.9741 0.0015 0.2263
vn 0.9763 0.0034 0.2162
vn 0.9310 0.0032 0.3649
vn 0.9350 0.0037 0.3546
vn 0.9350 0.0010 0.3547
vn 0.8339 0.0019 0.5519
vn 0.8273 -0.0027 0.5617
vn 0.8472 0.0019 0.5313
vn 0.7034 -0.0004 0.7108
vn 0.7016 -0.0005 0.7125
vn 0.7008 -0.0049 0.7133
vn 0.5492 -0.0023 0.8357
vn 0.5486 -0.0061 0.8361
vn 0.5512 -0.0021 0.8344
vn 0.3478 -0.0028 0.9376
vn 0.3668 -0.0030 0.9303
vn 0.3762 -0.0059 0.9265
vn 0.1593 -0.0019 0.9872
vn 0.1578 -0.0030 0.9875
vn 0.1698 -0.0019 0.9855
vn -0.0028 -0.0000 1.0000
vn -0.0022 -0.0000 1.0000
vn -0.1978 0.0029 0.9802
vn -0.1975 0.0037 0.9803
vn -0.1976 0.0027 0.9803
vn 0.2197 -0.9744 -0.0472
vn 0.2435 -0.9681 -0.0584
vn 0.2376 -0.9710 -0.0273
vn 0.2095 -0.9776 -0.0211
vn 0.1808 -0.9826 -0.0430
vn 0.1763 -0.9841 -0.0203
vn 0.1894 -0.9786 -0.0810
vn 0.2235 -0.9703 -0.0923
vn 0.2442 -0.9645 -0.1001
vn 0.2592 -0.9639 -0.0609
vn 0.2647 -0.9625 -0.0598
vn 0.2648 -0.9638 -0.0315
vn 0.2602 -0.9651 -0.0313
vn 0.2559 -0.9611 -0.1036
vn 0.2654 -0.9583 -0.1062
vn 0.2703 -0.9608 -0.0621
vn 0.2860 -0.9562 -0.0616
vn 0.2912 -0.9563 -0.0273
vn 0.2695 -0.9625 -0.0312
vn 0.2755 -0.9549 -0.1106
vn 0.2889 -0.9505 -0.1147
vn 0.3151 -0.9476 -0.0527
vn 0.3741 -0.9257 -0.0555
vn 0.3780 -0.9254 -0.0260
vn 0.3242 -0.9457 -0.0220
vn 0.3164 -0.9418 -0.1139
vn 0.3644 -0.9251 -0.1069
vn 0.2072 -0.9783 -0.0044
vn 0.2305 -0.9731 -0.0046
vn 0.2278 -0.9737 0.0014
vn 0.2084 -0.9781 0.0013
vn 0.1760 -0.9844 -0.0081
vn 0.1767 -0.9843 0.0011
vn 0.2613 -0.9652 -0.0044
vn 0.2650 -0.9642 -0.0037
vn 0.2651 -0.9642 0.0017
vn 0.2621 -0.9651 0.0016
vn 0.2687 -0.9632 -0.0043
vn 0.2980 -0.9546 -0.0045
vn 0.3005 -0.9538 0.0016
vn 0.2680 -0.9634 0.0017
vn 0.3249 -0.9457 -0.0048
vn 0.3776 -0.9259 -0.0111
vn 0.3767 -0.9263 0.0009
vn 0.3229 -0.9464 0.0015
vn 0.2072 -0.9783 0.0071
vn 0.2305 -0.9730 0.0076
vn 0.2374 -0.9709 0.0307
vn 0.2092 -0.9776 0.0242
vn 0.1760 -0.9843 0.0104
vn 0.1761 -0.9841 0.0228
vn 0.2609 -0.9654 0.0061
vn 0.2651 -0.9642 0.0049
vn 0.2650 -0.9636 0.0355
vn 0.2580 -0.9655 0.0346
vn 0.2693 -0.9630 0.0062
vn 0.2981 -0.9545 0.0078
vn 0.2915 -0.9561 0.0309
vn 0.2720 -0.9617 0.0348
vn 0.3248 -0.9457 0.0076
vn 0.3775 -0.9259 0.0130
vn 0.3779 -0.9254 0.0278
vn 0.3242 -0.9457 0.0248
vn 0.2191 -0.9744 0.0509
vn 0.2429 -0.9680 0.0627
vn 0.2433 -0.9642 0.1056
vn 0.2224 -0.9701 0.0971
vn 0.1805 -0.9825 0.0460
vn 0.1886 -0.9784 0.0848
vn 0.2577 -0.9637 0.0690
vn 0.2650 -0.9617 0.0704
vn 0.2657 -0.9575 0.1125
vn 0.2556 -0.9605 0.1096
vn 0.2721 -0.9597 0.0706
vn 0.2865 -0.9558 0.0662
vn 0.2896 -0.9495 0.1209
vn 0.2761 -0.9540 0.1170
vn 0.3154 -0.9473 0.0564
vn 0.3741 -0.9256 0.0579
vn 0.3648 -0.9245 0.1108
vn 0.3170 -0.9409 0.1193
vn -0.5125 0.0056 0.8587
vn -0.3633 0.0046 0.9317
vn -0.5122 0.0056 0.8588
vn -0.3632 0.0045 0.9317
vn -0.7077 0.0051 0.7065
vn -0.7082 0.0051 0.7060
vn -0.5606 -0.0078 0.8281
vn -0.7163 -0.0068 0.6977
vn -0.3756 -0.5025 0.7788
vn -0.5551 -0.4806 0.6789
vn -0.1789 -0.5361 0.8250
vn -0.3810 -0.0132 0.9245
vn -0.8321 0.0033 0.5546
vn -0.8317 0.0033 0.5551
vn -0.9240 0.0011 0.3824
vn -0.9242 0.0011 0.3819
vn -0.8407 -0.0102 0.5415
vn -0.9293 -0.0159 0.3689
vn -0.6908 -0.4872 0.5343
vn -0.7771 -0.5128 0.3650
vn -0.9808 -0.0008 0.1948
vn -0.9807 -0.0008 0.1954
vn -0.9977 -0.0018 -0.0680
vn -0.9977 -0.0020 -0.0681
vn -0.9824 -0.0208 0.1858
vn -0.9997 -0.0231 -0.0041
vn -0.8242 -0.5356 0.1840
vn -0.8387 -0.5447 -0.0036
vn -0.9809 -0.0020 -0.1946
vn -0.9809 -0.0020 -0.1947
vn -0.9478 -0.0018 -0.3187
vn -0.9479 -0.0016 -0.3186
vn -0.9807 -0.0222 -0.1943
vn -0.9258 -0.0186 -0.3776
vn -0.8213 -0.5376 -0.1912
vn -0.7714 -0.5164 -0.3720
vn -0.8321 -0.0002 -0.5547
vn -0.8318 -0.0002 -0.5550
vn -0.7079 0.0012 -0.7063
vn -0.7082 0.0012 -0.7061
vn -0.8361 -0.0140 -0.5484
vn -0.7134 -0.0108 -0.7007
vn -0.6840 -0.4918 -0.5388
vn -0.5505 -0.4860 -0.6788
vn -0.5571 0.0023 -0.8304
vn -0.5569 0.0024 -0.8306
vn -0.3343 0.0026 -0.9425
vn -0.3345 0.0026 -0.9424
vn -0.5608 -0.0112 -0.8279
vn -0.3836 -0.0153 -0.9234
vn -0.3746 -0.5084 -0.7754
vn -0.1795 -0.5427 -0.8205
vn -0.1756 0.0017 -0.9845
vn -0.1755 0.0018 -0.9845
vn -0.1902 -0.0218 -0.9815
vn 0.0098 -0.0292 -0.9995
vn 0.0080 -0.5668 -0.8238
vn 0.1760 -0.5746 -0.7993
vn 0.1605 -0.0021 -0.9870
vn 0.1034 -0.0013 -0.9946
vn 0.3798 -0.0052 -0.9251
vn 0.3797 -0.0052 -0.9251
vn 0.2064 -0.0358 -0.9778
vn 0.3915 -0.0403 -0.9193
vn 0.3237 -0.5682 -0.7566
vn 0.4545 -0.5508 -0.7001
vn 0.5626 -0.0073 -0.8267
vn 0.6274 -0.0072 -0.7787
vn 0.6669 -0.0078 -0.7451
vn 0.6667 -0.0082 -0.7453
vn 0.5592 -0.0422 -0.8280
vn 0.7056 -0.0422 -0.7074
vn 0.5716 -0.5299 -0.6265
vn 0.6717 -0.5205 -0.5272
vn 0.8300 -0.0067 -0.5577
vn 0.8303 -0.0067 -0.5572
vn 0.9233 -0.0042 -0.3840
vn 0.9231 -0.0041 -0.3845
vn 0.8270 -0.0414 -0.5607
vn 0.9192 -0.0400 -0.3917
vn 0.7455 -0.5305 -0.4035
vn 0.7900 -0.5506 -0.2697
vn 0.9806 -0.0008 -0.1962
vn 0.9807 -0.0009 -0.1957
vn 0.9986 0.0019 0.0535
vn 0.9986 0.0026 0.0532
vn 0.9780 -0.0383 -0.2051
vn 0.9993 -0.0367 -0.0080
vn 0.8130 -0.5659 -0.1367
vn 0.8209 -0.5710 -0.0054
vn 0.9763 0.0035 0.2165
vn 0.9762 0.0035 0.2166
vn 0.9312 0.0033 0.3644
vn 0.9312 0.0033 0.3645
vn 0.9809 -0.0357 0.1910
vn 0.9234 -0.0354 0.3823
vn 0.8153 -0.5649 0.1272
vn 0.7935 -0.5484 0.2638
vn 0.8584 0.0021 0.5129
vn 0.8586 0.0021 0.5127
vn 0.7051 -0.0006 0.7091
vn 0.7049 -0.0005 0.7093
vn 0.8297 -0.0356 0.5570
vn 0.7051 -0.0366 0.7082
vn 0.7484 -0.5271 0.4025
vn 0.6723 -0.5159 0.5310
vn 0.5528 -0.0021 0.8333
vn 0.5531 -0.0022 0.8331
vn 0.3306 -0.0028 0.9438
vn 0.3303 -0.0028 0.9439
vn 0.5551 -0.0377 0.8309
vn 0.3851 -0.0375 0.9221
vn 0.5688 -0.5246 0.6334
vn 0.4489 -0.5452 0.7080
vn 0.1703 -0.0019 0.9854
vn 0.1704 -0.0021 0.9854
vn 0.2020 -0.0346 0.9788
vn 0.0099 -0.0288 0.9995
vn 0.3184 -0.5620 0.7634
vn 0.1737 -0.5679 0.8046
vn -0.1975 0.0027 0.9803
vn -0.1975 0.0026 0.9803
vn -0.1875 -0.0210 0.9820
vn 0.0081 -0.5599 0.8285
vn 0.0237 -0.9209 0.3890
vn 0.1156 -0.9077 0.4034
vn -0.0620 -0.9383 0.3403
vn -0.1066 -0.9615 0.2531
vn -0.1120 -0.9809 0.1591
vn -0.1071 -0.9913 0.0761
vn -0.1045 -0.9945 -0.0003
vn -0.1055 -0.9915 -0.0767
vn -0.1087 -0.9812 -0.1594
vn -0.1019 -0.9623 -0.2522
vn -0.0581 -0.9402 -0.3355
vn 0.0261 -0.9241 -0.3813
vn 0.1171 -0.9117 -0.3939
vn 0.1967 -0.8962 -0.3976
vn 0.2688 -0.8756 -0.4013
vn 0.3392 -0.8493 -0.4045
vn 0.4123 -0.8162 -0.4047
vn 0.4907 -0.7784 -0.3915
vn 0.5644 -0.7505 -0.3438
vn 0.6122 -0.7463 -0.2614
vn 0.6321 -0.7559 -0.1702
vn 0.6394 -0.7642 -0.0849
vn 0.6418 -0.7669 -0.0031
vn 0.6401 -0.7642 0.0794
vn 0.6333 -0.7558 0.1667
vn 0.6131 -0.7456 0.2610
vn 0.5643 -0.7490 0.3471
vn 0.4892 -0.7761 0.3980
vn 0.4094 -0.8132 0.4135
vn 0.3365 -0.8456 0.4144
vn 0.2671 -0.8713 0.4116
vn 0.1954 -0.8919 0.4079
vn 0.2183 -0.9680 0.1238
vn 0.1833 -0.9785 0.0940
vn 0.2404 -0.9618 0.1309
vn 0.1649 -0.9850 0.0508
vn 0.1669 -0.9856 0.0262
vn 0.1722 -0.9850 0.0128
vn 0.1742 -0.9847 0.0010
vn 0.1723 -0.9850 -0.0106
vn 0.1671 -0.9857 -0.0240
vn 0.1653 -0.9851 -0.0483
vn 0.1843 -0.9787 -0.0901
vn 0.2196 -0.9684 -0.1183
vn 0.2412 -0.9625 -0.1245
vn 0.2546 -0.9587 -0.1267
vn 0.2683 -0.9541 -0.1328
vn 0.2838 -0.9482 -0.1427
vn 0.3025 -0.9401 -0.1569
vn 0.3366 -0.9270 -0.1652
vn 0.3941 -0.9087 -0.1381
vn 0.4268 -0.9009 -0.0789
vn 0.4269 -0.9033 -0.0415
vn 0.4215 -0.9066 -0.0198
vn 0.4194 -0.9078 0.0003
vn 0.4212 -0.9067 0.0205
vn 0.4264 -0.9035 0.0423
vn 0.4263 -0.9010 0.0805
vn 0.3941 -0.9081 0.1418
vn 0.3371 -0.9258 0.1711
vn 0.3029 -0.9389 0.1636
vn 0.2842 -0.9470 0.1499
vn 0.2688 -0.9530 0.1399
vn 0.2543 -0.9579 0.1336
vt 0.857520 0.021031
vt 0.858104 0.020496
vt 0.859726 0.021773
vt 0.859281 0.022505
vt 0.861992 0.021783
vt 0.861675 0.022703
vt 0.860161 0.021041
vt 0.856145 0.019210
vt 0.855175 0.017132
vt 0.856125 0.016885
vt 0.856926 0.018834
vt 0.858687 0.019952
vt 0.857698 0.018448
vt 0.854601 0.014877
vt 0.854463 0.012522
vt 0.855541 0.012562
vt 0.855660 0.014768
vt 0.856709 0.014659
vt 0.857075 0.016638
vt 0.855482 0.007961
vt 0.856412 0.008287
vt 0.855798 0.010375
vt 0.854750 0.010197
vt 0.856619 0.012611
vt 0.856837 0.010563
vt 0.858084 0.004191
vt 0.858638 0.004785
vt 0.857332 0.006378
vt 0.856590 0.005933
vt 0.857342 0.008604
vt 0.858094 0.006833
vt 0.859934 0.002816
vt 0.862071 0.001827
vt 0.862318 0.002776
vt 0.860320 0.003598
vt 0.859182 0.005379
vt 0.860716 0.004379
vt 0.864396 0.001233
vt 0.866840 0.001085
vt 0.866790 0.002163
vt 0.864495 0.002292
vt 0.864604 0.003340
vt 0.862566 0.003736
vt 0.871658 0.002074
vt 0.871322 0.003004
vt 0.869106 0.002401
vt 0.869293 0.001362
vt 0.868898 0.003449
vt 0.866751 0.003241
vt 0.873835 0.003182
vt 0.875725 0.004676
vt 0.875091 0.005240
vt 0.873360 0.003934
vt 0.872885 0.004706
vt 0.870975 0.003944
vt 0.877228 0.006516
vt 0.878307 0.008614
vt 0.877278 0.008891
vt 0.876387 0.006922
vt 0.875556 0.007328
vt 0.874468 0.005804
vt 0.878950 0.010889
vt 0.879138 0.013234
vt 0.877980 0.013215
vt 0.877822 0.011008
vt 0.876694 0.011137
vt 0.876259 0.009158
vt 0.878129 0.017776
vt 0.877110 0.017469
vt 0.877733 0.015391
vt 0.878861 0.015549
vt 0.876813 0.013185
vt 0.876605 0.015223
vt 0.875388 0.021545
vt 0.874775 0.020961
vt 0.876140 0.019368
vt 0.876961 0.019804
vt 0.876100 0.017162
vt 0.875319 0.018933
vt 0.871163 0.023910
vt 0.870857 0.022980
vt 0.872974 0.022159
vt 0.873419 0.022930
vt 0.874171 0.020388
vt 0.872529 0.021397
vt 0.866167 0.024632
vt 0.866187 0.023573
vt 0.868551 0.023465
vt 0.868700 0.024494
vt 0.870560 0.022050
vt 0.868413 0.022436
vt 0.861369 0.023613
vt 0.863862 0.023306
vt 0.863694 0.024325
vt 0.866207 0.022525
vt 0.864040 0.022297
vt 0.328154 0.072123
vt 0.328183 0.077654
vt 0.325759 0.076962
vt 0.325710 0.071718
vt 0.328144 0.065771
vt 0.325680 0.065642
vt 0.330598 0.065890
vt 0.330598 0.072479
vt 0.330608 0.078268
vt 0.333042 0.072776
vt 0.333032 0.078753
vt 0.333052 0.065979
vt 0.335505 0.066038
vt 0.335486 0.072984
vt 0.335466 0.079099
vt 0.337939 0.073113
vt 0.337910 0.079327
vt 0.337959 0.066088
vt 0.340413 0.066107
vt 0.340393 0.073172
vt 0.340374 0.079406
vt 0.342847 0.073123
vt 0.342837 0.079336
vt 0.342867 0.066107
vt 0.345331 0.066078
vt 0.345311 0.073004
vt 0.345301 0.079119
vt 0.347765 0.072806
vt 0.347755 0.078782
vt 0.347785 0.066008
vt 0.350248 0.065939
vt 0.350218 0.072529
vt 0.350199 0.078317
vt 0.352672 0.072202
vt 0.352633 0.077734
vt 0.352702 0.065840
vt 0.355166 0.065731
vt 0.355106 0.071807
vt 0.355057 0.077061
vt 0.357550 0.071381
vt 0.357501 0.076338
vt 0.357620 0.065613
vt 0.360083 0.065464
vt 0.360014 0.070926
vt 0.359945 0.075557
vt 0.283727 0.070243
vt 0.283688 0.074547
vt 0.281224 0.075349
vt 0.281263 0.070718
vt 0.283767 0.065098
vt 0.281293 0.065256
vt 0.286231 0.064940
vt 0.286181 0.069778
vt 0.286141 0.073786
vt 0.288664 0.069353
vt 0.288635 0.073073
vt 0.288704 0.064811
vt 0.291178 0.064692
vt 0.291148 0.068977
vt 0.291118 0.072450
vt 0.293622 0.068690
vt 0.293612 0.071935
vt 0.293642 0.064613
vt 0.296105 0.064554
vt 0.296095 0.068462
vt 0.296085 0.071559
vt 0.298559 0.068334
vt 0.298549 0.071332
vt 0.298569 0.064514
vt 0.301023 0.064505
vt 0.301013 0.068294
vt 0.301003 0.071262
vt 0.303457 0.068344
vt 0.303447 0.071342
vt 0.303477 0.064544
vt 0.305921 0.064594
vt 0.305891 0.068482
vt 0.305881 0.071569
vt 0.308355 0.068720
vt 0.308335 0.071945
vt 0.308374 0.064663
vt 0.310838 0.064752
vt 0.310818 0.069016
vt 0.310799 0.072450
vt 0.313302 0.069383
vt 0.313292 0.073073
vt 0.313312 0.064871
vt 0.315785 0.065009
vt 0.315785 0.069818
vt 0.315795 0.073795
vt 0.318289 0.070283
vt 0.318309 0.074577
vt 0.318269 0.065167
vt 0.320753 0.065326
vt 0.320782 0.070768
vt 0.320822 0.075398
vt 0.323256 0.071253
vt 0.323305 0.076200
vt 0.323226 0.065484
vt 0.861289 0.007654
vt 0.862922 0.007545
vt 0.862843 0.009267
vt 0.861091 0.009237
vt 0.859914 0.007615
vt 0.859558 0.009128
vt 0.860320 0.006625
vt 0.861349 0.006289
vt 0.862922 0.006012
vt 0.864723 0.007486
vt 0.866602 0.007496
vt 0.866553 0.009326
vt 0.864673 0.009297
vt 0.864732 0.005844
vt 0.866662 0.005814
vt 0.868492 0.007595
vt 0.870322 0.007773
vt 0.870303 0.009494
vt 0.868433 0.009405
vt 0.868591 0.005952
vt 0.870412 0.006239
vt 0.872004 0.007971
vt 0.873459 0.008020
vt 0.873765 0.009564
vt 0.872133 0.009574
vt 0.872024 0.006595
vt 0.873103 0.006991
vt 0.860913 0.010969
vt 0.862754 0.011048
vt 0.862675 0.012858
vt 0.860805 0.012789
vt 0.859271 0.010870
vt 0.859133 0.012720
vt 0.864614 0.011097
vt 0.866494 0.011147
vt 0.866444 0.012977
vt 0.864554 0.012918
vt 0.868393 0.011216
vt 0.870303 0.011275
vt 0.870283 0.013066
vt 0.868363 0.013027
vt 0.872212 0.011315
vt 0.873963 0.011305
vt 0.874013 0.013135
vt 0.872222 0.013106
vt 0.860805 0.014580
vt 0.862645 0.014649
vt 0.862625 0.016410
vt 0.860864 0.016311
vt 0.859152 0.014550
vt 0.859311 0.016291
vt 0.864515 0.014718
vt 0.866395 0.014788
vt 0.866345 0.016578
vt 0.864455 0.016509
vt 0.868304 0.014827
vt 0.870223 0.014857
vt 0.870144 0.016608
vt 0.868255 0.016608
vt 0.872133 0.014896
vt 0.873884 0.014966
vt 0.873617 0.016667
vt 0.871965 0.016608
vt 0.860953 0.017894
vt 0.862605 0.018092
vt 0.862506 0.019596
vt 0.860923 0.019220
vt 0.859578 0.017825
vt 0.859914 0.018834
vt 0.864396 0.018280
vt 0.866296 0.018379
vt 0.866256 0.020012
vt 0.864317 0.019873
vt 0.868225 0.018369
vt 0.870065 0.018290
vt 0.870105 0.019784
vt 0.868225 0.019972
vt 0.871787 0.018161
vt 0.873251 0.018161
vt 0.872845 0.019151
vt 0.871747 0.019487
vt 0.328134 0.063406
vt 0.325670 0.063377
vt 0.328134 0.063040
vt 0.325670 0.063030
vt 0.330598 0.063050
vt 0.330598 0.063426
vt 0.328213 0.079861
vt 0.330627 0.080435
vt 0.859024 0.023108
vt 0.858925 0.023395
vt 0.856976 0.021753
vt 0.857124 0.021496
vt 0.861220 0.024325
vt 0.861200 0.024622
vt 0.325809 0.079198
vt 0.333052 0.063446
vt 0.333052 0.063060
vt 0.335515 0.063060
vt 0.335515 0.063456
vt 0.333042 0.080900
vt 0.335466 0.081236
vt 0.855620 0.019547
vt 0.855403 0.019744
vt 0.854265 0.017479
vt 0.854542 0.017350
vt 0.337969 0.063466
vt 0.337969 0.063060
vt 0.340413 0.063070
vt 0.340413 0.063475
vt 0.337900 0.081454
vt 0.340364 0.081523
vt 0.853909 0.014956
vt 0.853602 0.015025
vt 0.853434 0.012482
vt 0.853740 0.012492
vt 0.342877 0.063475
vt 0.342877 0.063080
vt 0.345331 0.063080
vt 0.345331 0.063485
vt 0.342827 0.081464
vt 0.345291 0.081266
vt 0.854067 0.010048
vt 0.853770 0.009959
vt 0.854591 0.007545
vt 0.854849 0.007704
vt 0.347794 0.063485
vt 0.347794 0.063090
vt 0.350258 0.063099
vt 0.350248 0.063485
vt 0.347735 0.080939
vt 0.350169 0.080494
vt 0.856085 0.005557
vt 0.855868 0.005339
vt 0.857579 0.003429
vt 0.857718 0.003697
vt 0.352712 0.063475
vt 0.352722 0.063109
vt 0.355186 0.063119
vt 0.355186 0.063466
vt 0.352583 0.079940
vt 0.354998 0.079307
vt 0.859706 0.002193
vt 0.859637 0.001896
vt 0.861962 0.000798
vt 0.861962 0.001095
vt 0.357639 0.063456
vt 0.357639 0.063119
vt 0.360113 0.063119
vt 0.360113 0.063436
vt 0.357422 0.078604
vt 0.359866 0.077872
vt 0.864416 0.000442
vt 0.864465 0.000164
vt 0.867077 0.000006
vt 0.866968 0.000263
vt 0.283777 0.063188
vt 0.281303 0.063218
vt 0.283777 0.062882
vt 0.281303 0.062902
vt 0.286250 0.062862
vt 0.286250 0.063149
vt 0.283608 0.076902
vt 0.286082 0.076160
vt 0.869531 0.000570
vt 0.869669 0.000343
vt 0.872182 0.001144
vt 0.872014 0.001342
vt 0.281165 0.077654
vt 0.288714 0.063119
vt 0.288714 0.062852
vt 0.291188 0.062842
vt 0.291178 0.063099
vt 0.288585 0.075487
vt 0.291089 0.074894
vt 0.874319 0.002569
vt 0.874498 0.002401
vt 0.876546 0.004063
vt 0.876338 0.004201
vt 0.293651 0.063090
vt 0.293651 0.062852
vt 0.296115 0.062852
vt 0.296115 0.063090
vt 0.293582 0.074409
vt 0.296076 0.074043
vt 0.877970 0.006180
vt 0.878198 0.006081
vt 0.879405 0.008347
vt 0.879167 0.008396
vt 0.298569 0.063099
vt 0.298569 0.062872
vt 0.301023 0.062882
vt 0.301023 0.063109
vt 0.298539 0.073835
vt 0.300993 0.073766
vt 0.879890 0.010791
vt 0.880127 0.010761
vt 0.880345 0.013254
vt 0.880098 0.013244
vt 0.303477 0.063119
vt 0.303477 0.062892
vt 0.305921 0.062902
vt 0.305921 0.063139
vt 0.303437 0.073835
vt 0.305871 0.074053
vt 0.879801 0.015678
vt 0.880028 0.015708
vt 0.879227 0.018082
vt 0.878990 0.018023
vt 0.308384 0.063149
vt 0.308384 0.062911
vt 0.310848 0.062921
vt 0.310848 0.063169
vt 0.308335 0.074419
vt 0.310818 0.074894
vt 0.877703 0.020160
vt 0.877921 0.020259
vt 0.876180 0.022178
vt 0.875972 0.022040
vt 0.313312 0.063198
vt 0.313312 0.062931
vt 0.315785 0.062941
vt 0.315785 0.063228
vt 0.313322 0.075487
vt 0.315835 0.076170
vt 0.873874 0.023554
vt 0.874043 0.023722
vt 0.871638 0.024850
vt 0.871480 0.024642
vt 0.318259 0.063258
vt 0.318259 0.062961
vt 0.320733 0.062981
vt 0.320733 0.063297
vt 0.318368 0.076922
vt 0.320881 0.077694
vt 0.868898 0.025275
vt 0.869016 0.025513
vt 0.866335 0.025701
vt 0.866256 0.025443
vt 0.323197 0.063337
vt 0.323197 0.063010
vt 0.323365 0.078466
vt 0.863664 0.025117
vt 0.863703 0.025404
vt 0.859093 0.022901
vt 0.861250 0.024088
vt 0.857243 0.021327
vt 0.855779 0.019428
vt 0.854730 0.017271
vt 0.854116 0.014926
vt 0.853968 0.012502
vt 0.854275 0.010088
vt 0.855046 0.007793
vt 0.856244 0.005695
vt 0.857826 0.003865
vt 0.859766 0.002401
vt 0.861982 0.001332
vt 0.864386 0.000709
vt 0.866899 0.000521
vt 0.869432 0.000827
vt 0.871876 0.001589
vt 0.874141 0.002776
vt 0.876100 0.004359
vt 0.877703 0.006289
vt 0.878871 0.008465
vt 0.879563 0.010820
vt 0.879781 0.013244
vt 0.879474 0.015639
vt 0.878683 0.017934
vt 0.877436 0.020041
vt 0.875764 0.021872
vt 0.873706 0.023326
vt 0.871351 0.024404
vt 0.868809 0.025018
vt 0.866207 0.025166
vt 0.863654 0.024850
vt 0.860626 0.020219
vt 0.859330 0.019368
vt 0.862289 0.020773
vt 0.858559 0.018053
vt 0.858113 0.016420
vt 0.857846 0.014590
vt 0.857797 0.012660
vt 0.857985 0.010741
vt 0.858361 0.008911
vt 0.858915 0.007298
vt 0.859786 0.006032
vt 0.861121 0.005250
vt 0.862793 0.004795
vt 0.864693 0.004508
vt 0.866711 0.004439
vt 0.868730 0.004627
vt 0.870659 0.005003
vt 0.872390 0.005557
vt 0.873756 0.006437
vt 0.874606 0.007763
vt 0.875101 0.009405
vt 0.875418 0.011246
vt 0.875507 0.013165
vt 0.875339 0.015075
vt 0.874953 0.016885
vt 0.874389 0.018468
vt 0.873469 0.019725
vt 0.872054 0.020526
vt 0.870293 0.021001
vt 0.868304 0.021278
vt 0.866236 0.021357
vt 0.864198 0.021169
s 1
f 90/1/1 435/2/2 434/3/3 387/4/4
f 111/5/5 436/6/6 434/3/3 418/7/7
f 388/8/8 91/9/9 438/10/10 437/11/11
f 112/12/12 435/2/2 437/11/11 419/13/13
f 389/14/14 92/15/15 440/16/16 439/17/17
f 420/18/18 113/19/19 438/10/10 439/17/17
f 93/20/20 442/21/21 441/22/22 390/23/23
f 114/24/24 440/16/16 441/22/22 421/25/25
f 94/26/26 444/27/27 443/28/28 391/29/29
f 115/30/30 442/21/21 443/28/28 422/31/31
f 392/32/32 95/33/33 446/34/34 445/35/35
f 116/36/36 444/27/27 445/35/35 423/37/37
f 393/38/38 96/39/39 448/40/40 447/41/41
f 424/42/42 117/43/43 446/34/34 447/41/41
f 97/44/44 450/45/45 449/46/46 394/47/47
f 425/48/48 118/49/49 448/40/40 449/46/46
f 395/50/50 98/51/51 452/52/52 451/53/53
f 426/54/54 119/55/55 450/45/45 451/53/53
f 396/56/56 99/57/57 454/58/58 453/59/59
f 427/60/60 120/61/61 452/52/52 453/59/59
f 397/62/62 100/63/63 456/64/64 455/65/65
f 428/66/66 121/67/67 454/58/58 455/65/65
f 101/68/68 457/69/69 458/70/70 398/71/71
f 106/72/72 456/64/64 458/70/70 429/73/73
f 102/74/74 460/75/75 459/76/76 399/77/77
f 107/78/78 457/69/69 459/76/76 430/79/79
f 103/80/80 462/81/81 461/82/82 400/83/83
f 108/84/84 460/75/75 461/82/82 431/85/85
f 104/86/86 464/87/87 463/88/88 401/89/89
f 109/90/90 462/81/81 463/88/88 432/91/91
f 105/92/92 436/6/6 465/93/93 402/94/94
f 110/95/95 464/87/87 465/93/93 433/96/96
f 122/97/97 356/98/98 60/99/99 325/100/100
f 355/101/101 122/97/97 325/100/100 61/102/102
f 122/97/97 355/101/101 58/103/103 323/104/104
f 356/98/98 122/97/97 323/104/104 59/105/105
f 123/106/106 358/107/107 59/105/105 323/104/104
f 357/108/108 123/106/106 323/104/104 58/103/103
f 123/106/106 357/108/108 62/109/109 327/110/110
f 358/107/107 123/106/106 327/110/110 63/111/111
f 124/112/112 360/113/113 63/111/111 327/110/110
f 359/114/114 124/112/112 327/110/110 62/109/109
f 124/112/112 359/114/114 64/115/115 329/116/116
f 360/113/113 124/112/112 329/116/116 65/117/117
f 125/118/118 362/119/119 65/117/117 329/116/116
f 361/120/120 125/118/118 329/116/116 64/115/115
f 125/118/118 361/120/120 66/121/121 331/122/122
f 362/119/119 125/118/118 331/122/122 67/123/123
f 126/124/124 364/125/125 67/123/123 331/122/122
f 363/126/126 126/124/124 331/122/122 66/121/121
f 126/124/124 363/126/126 68/127/127 333/128/128
f 364/125/125 126/124/124 333/128/128 69/129/129
f 127/130/130 366/131/131 69/129/129 333/128/128
f 365/132/132 127/130/130 333/128/128 68/127/127
f 127/130/130 365/132/132 70/133/133 335/134/134
f 366/131/131 127/130/130 335/134/134 71/135/135
f 128/136/136 368/137/137 71/135/135 335/134/134
f 367/138/138 128/136/136 335/134/134 70/133/133
f 128/136/136 367/138/138 72/139/139 337/140/140
f 368/137/137 128/136/136 337/140/140 73/141/141
f 129/142/142 370/143/143 73/144/141 337/145/140
f 369/146/144 129/142/142 337/145/140 72/147/139
f 129/142/142 369/146/144 74/148/145 339/149/146
f 370/143/143 129/142/142 339/149/146 75/150/147
f 130/151/148 372/152/149 75/150/147 339/149/146
f 371/153/150 130/151/148 339/149/146 74/148/145
f 130/151/148 371/153/150 76/154/151 341/155/152
f 372/152/149 130/151/148 341/155/152 77/156/153
f 131/157/154 374/158/155 77/156/153 341/155/152
f 373/159/156 131/157/154 341/155/152 76/154/151
f 131/157/154 373/159/156 78/160/157 343/161/158
f 374/158/155 131/157/154 343/161/158 79/162/159
f 132/163/160 376/164/161 79/162/159 343/161/158
f 375/165/162 132/163/160 343/161/158 78/160/157
f 132/163/160 375/165/162 80/166/163 345/167/164
f 376/164/161 132/163/160 345/167/164 81/168/165
f 133/169/166 378/170/167 81/168/165 345/167/164
f 377/171/168 133/169/166 345/167/164 80/166/163
f 133/169/166 377/171/168 82/172/169 347/173/170
f 378/170/167 133/169/166 347/173/170 83/174/171
f 134/175/172 380/176/173 83/174/171 347/173/170
f 379/177/174 134/175/172 347/173/170 82/172/169
f 134/175/172 379/177/174 84/178/175 349/179/176
f 380/176/173 134/175/172 349/179/176 85/180/177
f 135/181/178 382/182/179 85/180/177 349/179/176
f 381/183/180 135/181/178 349/179/176 84/178/175
f 135/181/178 381/183/180 86/184/181 351/185/182
f 382/182/179 135/181/178 351/185/182 87/186/183
f 136/187/184 384/188/185 87/186/183 351/185/182
f 383/189/186 136/187/184 351/185/182 86/184/181
f 136/187/184 383/189/186 88/190/187 353/191/187
f 384/188/185 136/187/184 353/191/187 89/192/188
f 137/193/189 386/194/190 89/192/188 353/191/187
f 385/195/191 137/193/189 353/191/187 88/190/187
f 137/193/189 385/195/191 61/102/102 325/100/100
f 386/194/190 137/193/189 325/100/100 60/99/99
f 138/196/192 264/197/193 23/198/194 267/199/195
f 266/200/196 138/196/192 267/199/195 22/201/197
f 138/196/192 266/200/196 17/202/198 265/203/199
f 264/197/193 138/196/192 265/203/199 18/204/200
f 139/205/201 268/206/202 24/207/203 270/208/204
f 264/197/193 139/205/201 270/208/204 23/198/194
f 139/205/201 264/197/193 18/204/200 269/209/205
f 268/206/202 139/205/201 269/209/205 19/210/206
f 140/211/207 271/212/208 25/213/209 273/214/210
f 268/206/202 140/211/207 273/214/210 24/207/203
f 140/211/207 268/206/202 19/210/206 272/215/211
f 271/212/208 140/211/207 272/215/211 20/216/212
f 141/217/213 274/218/214 26/219/215 276/220/216
f 271/212/208 141/217/213 276/220/216 25/213/209
f 141/217/213 271/212/208 20/216/212 275/221/217
f 274/218/214 141/217/213 275/221/217 21/222/218
f 142/223/219 277/224/220 28/225/221 279/226/222
f 278/227/223 142/223/219 279/226/222 27/228/224
f 142/223/219 278/227/223 22/201/197 267/199/195
f 277/224/220 142/223/219 267/199/195 23/198/194
f 143/229/225 280/230/226 29/231/227 281/232/228
f 277/224/220 143/229/225 281/232/228 28/225/221
f 143/229/225 277/224/220 23/198/194 270/208/204
f 280/230/226 143/229/225 270/208/204 24/207/203
f 144/233/229 282/234/230 30/235/231 283/236/232
f 280/230/226 144/233/229 283/236/232 29/231/227
f 144/233/229 280/230/226 24/207/203 273/214/210
f 282/234/230 144/233/229 273/214/210 25/213/209
f 145/237/233 284/238/234 31/239/235 285/240/236
f 282/234/230 145/237/233 285/240/236 30/235/231
f 145/237/233 282/234/230 25/213/209 276/220/216
f 284/238/234 145/237/233 276/220/216 26/219/215
f 146/241/237 286/242/238 33/243/239 288/244/240
f 287/245/241 146/241/237 288/244/240 32/246/242
f 146/241/237 287/245/241 27/228/224 279/226/222
f 286/242/238 146/241/237 279/226/222 28/225/221
f 147/247/243 289/248/244 34/249/245 290/250/246
f 286/242/238 147/247/243 290/250/246 33/243/239
f 147/247/243 286/242/238 28/225/221 281/232/228
f 289/248/244 147/247/243 281/232/228 29/231/227
f 148/251/247 291/252/248 35/253/249 292/254/250
f 289/248/244 148/251/247 292/254/250 34/249/245
f 148/251/247 289/248/244 29/231/227 283/236/232
f 291/252/248 148/251/247 283/236/232 30/235/231
f 149/255/251 293/256/252 36/257/253 294/258/254
f 291/252/248 149/255/251 294/258/254 35/253/249
f 149/255/251 291/252/248 30/235/231 285/240/236
f 293/256/252 149/255/251 285/240/236 31/239/235
f 150/259/255 295/260/256 38/261/257 297/262/258
f 296/263/259 150/259/255 297/262/258 37/264/260
f 150/259/255 296/263/259 32/246/242 288/244/240
f 295/260/256 150/259/255 288/244/240 33/243/239
f 151/265/261 298/266/262 39/267/263 299/268/264
f 295/260/256 151/265/261 299/268/264 38/261/257
f 151/265/261 295/260/256 33/243/239 290/250/246
f 298/266/262 151/265/261 290/250/246 34/249/245
f 152/269/265 300/270/266 40/271/267 301/272/268
f 298/266/262 152/269/265 301/272/268 39/267/263
f 152/269/265 298/266/262 34/249/245 292/254/250
f 300/270/266 152/269/265 292/254/250 35/253/249
f 153/273/269 302/274/270 41/275/271 303/276/272
f 300/270/266 153/273/269 303/276/272 40/271/267
f 153/273/269 300/270/266 35/253/249 294/258/254
f 302/274/270 153/273/269 294/258/254 36/257/253
f 154/277/273 355/101/101 61/102/102 326/278/274
f 307/279/275 154/277/273 326/278/274 1/280/276
f 154/277/273 307/279/275 2/281/277 233/282/278
f 355/101/101 154/277/273 233/282/278 58/103/103
f 155/283/279 356/98/98 59/105/105 324/284/280
f 232/285/281 155/286/279 324/287/280 43/288/282
f 155/286/279 232/285/281 42/289/283 234/290/284
f 356/98/98 155/283/279 234/291/284 60/99/99
f 156/292/285 357/108/108 58/103/103 233/282/278
f 308/293/286 156/292/285 233/282/278 2/281/277
f 156/292/285 308/293/286 3/294/287 236/295/288
f 357/108/108 156/292/285 236/295/288 62/109/109
f 157/296/289 358/107/107 63/111/111 328/297/290
f 235/298/291 157/299/289 328/300/290 44/301/292
f 157/299/289 235/298/291 43/288/282 324/287/280
f 358/107/107 157/296/289 324/284/280 59/105/105
f 158/302/293 359/114/114 62/109/109 236/295/288
f 309/303/294 158/302/293 236/295/288 3/294/287
f 158/302/293 309/303/294 4/304/295 238/305/296
f 359/114/114 158/302/293 238/305/296 64/115/115
f 159/306/297 360/113/113 65/117/117 330/307/298
f 237/308/299 159/309/297 330/310/298 45/311/300
f 159/309/297 237/308/299 44/301/292 328/300/290
f 360/113/113 159/306/297 328/297/290 63/111/111
f 160/312/301 361/120/120 64/115/115 238/305/296
f 310/313/302 160/312/301 238/305/296 4/304/295
f 160/312/301 310/313/302 5/314/303 239/315/304
f 361/120/120 160/312/301 239/315/304 66/121/121
f 161/316/305 362/119/119 67/123/123 332/317/306
f 240/318/307 161/319/305 332/320/306 46/321/308
f 161/319/305 240/318/307 45/311/300 330/310/298
f 362/119/119 161/316/305 330/307/298 65/117/117
f 162/322/309 363/126/126 66/121/121 239/315/304
f 311/323/310 162/322/309 239/315/304 5/314/303
f 162/322/309 311/323/310 6/324/311 241/325/312
f 363/126/126 162/322/309 241/325/312 68/127/127
f 163/326/313 364/125/125 69/129/129 334/327/314
f 242/328/315 163/329/313 334/330/314 47/331/316
f 163/329/313 242/328/315 46/321/308 332/320/306
f 364/125/125 163/326/313 332/317/306 67/123/123
f 164/332/317 365/132/132 68/127/127 241/325/312
f 312/333/318 164/332/317 241/325/312 6/324/311
f 164/332/317 312/333/318 7/334/319 243/335/320
f 365/132/132 164/332/317 243/335/320 70/133/133
f 165/336/321 366/131/131 71/135/135 336/337/322
f 244/338/323 165/339/321 336/340/322 48/341/324
f 165/339/321 244/338/323 47/331/316 334/330/314
f 366/131/131 165/336/321 334/327/314 69/129/129
f 166/342/325 367/138/138 70/133/133 243/335/320
f 313/343/326 166/342/325 243/335/320 7/334/319
f 166/342/325 313/343/326 8/344/139 245/345/139
f 367/138/138 166/342/325 245/345/139 72/139/139
f 167/346/327 368/137/137 73/141/141 338/347/328
f 246/348/329 167/349/327 338/350/328 49/351/330
f 167/349/327 246/348/329 48/341/324 336/340/322
f 368/137/137 167/346/327 336/337/322 71/135/135
f 168/352/331 369/146/144 72/147/139 245/353/139
f 314/354/332 168/352/331 245/353/139 8/355/139
f 168/352/331 314/354/332 9/356/333 247/357/334
f 369/146/144 168/352/331 247/357/334 74/148/145
f 169/358/335 370/143/143 75/150/147 340/359/336
f 248/360/337 169/361/335 340/362/336 50/363/338
f 169/361/335 248/360/337 49/351/330 338/350/328
f 370/143/143 169/358/335 338/364/328 73/144/141
f 170/365/339 371/153/150 74/148/145 247/357/334
f 315/366/340 170/365/339 247/357/334 9/356/333
f 170/365/339 315/366/340 10/367/341 249/368/342
f 371/153/150 170/365/339 249/368/342 76/154/151
f 171/369/343 372/152/149 77/156/153 342/370/344
f 250/371/345 171/372/343 342/373/344 51/374/346
f 171/372/343 250/371/345 50/363/338 340/362/336
f 372/152/149 171/369/343 340/359/336 75/150/147
f 172/375/347 373/159/156 76/154/151 249/368/342
f 316/376/348 172/375/347 249/368/342 10/367/341
f 172/375/347 316/376/348 11/377/349 251/378/350
f 373/159/156 172/375/347 251/378/350 78/160/157
f 173/379/351 374/158/155 79/162/159 344/380/352
f 252/381/353 173/382/351 344/383/352 52/384/354
f 173/382/351 252/381/353 51/374/346 342/373/344
f 374/158/155 173/379/351 342/370/344 77/156/153
f 174/385/355 375/165/162 78/160/157 251/378/350
f 317/386/356 174/385/355 251/378/350 11/377/349
f 174/385/355 317/386/356 12/387/357 253/388/358
f 375/165/162 174/385/355 253/388/358 80/166/163
f 175/389/359 376/164/161 81/168/165 346/390/360
f 254/391/361 175/392/359 346/393/360 53/394/362
f 175/392/359 254/391/361 52/384/354 344/383/352
f 376/164/161 175/389/359 344/380/352 79/162/159
f 176/395/363 377/171/168 80/166/163 253/388/358
f 318/396/364 176/395/363 253/388/358 12/387/357
f 176/395/363 318/396/364 13/397/365 256/398/366
f 377/171/168 176/395/363 256/398/366 82/172/169
f 177/399/367 378/170/167 83/174/171 348/400/368
f 255/401/369 177/402/367 348/403/368 54/404/370
f 177/402/367 255/401/369 53/394/362 346/393/360
f 378/170/167 177/399/367 346/390/360 81/168/165
f 178/405/371 379/177/174 82/172/169 256/398/366
f 319/406/372 178/405/371 256/398/366 13/397/365
f 178/405/371 319/406/372 14/407/373 258/408/374
f 379/177/174 178/405/371 258/408/374 84/178/175
f 179/409/375 380/176/173 85/180/177 350/410/376
f 257/411/377 179/412/375 350/413/376 55/414/378
f 179/412/375 257/411/377 54/404/370 348/403/368
f 380/176/173 179/409/375 348/400/368 83/174/171
f 180/415/379 381/183/180 84/178/175 258/408/374
f 320/416/380 180/415/379 258/408/374 14/407/373
f 180/415/379 320/416/380 15/417/381 260/418/382
f 381/183/180 180/415/379 260/418/382 86/184/181
f 181/419/383 382/182/179 87/186/183 352/420/384
f 259/421/385 181/422/383 352/423/384 56/424/386
f 181/422/383 259/421/385 55/414/378 350/413/376
f 382/182/179 181/419/383 350/410/376 85/180/177
f 182/425/387 383/189/186 86/184/181 260/418/382
f 321/426/388 182/425/387 260/418/382 15/417/381
f 182/425/387 321/426/388 16/427/187 262/428/187
f 383/189/186 182/425/387 262/428/187 88/190/187
f 183/429/389 384/188/185 89/192/188 354/430/390
f 261/431/391 183/432/389 354/433/390 57/434/392
f 183/432/389 261/431/391 56/424/386 352/423/384
f 384/188/185 183/429/389 352/420/384 87/186/183
f 184/435/393 385/195/191 88/190/187 262/428/187
f 322/436/394 184/435/393 262/428/187 16/427/187
f 184/435/393 322/436/394 1/280/276 326/278/274
f 385/195/191 184/435/393 326/278/274 61/102/102
f 185/437/395 386/194/190 60/99/99 234/291/284
f 263/438/396 185/439/395 234/290/284 42/289/283
f 185/439/395 263/438/396 57/434/392 354/433/390
f 386/194/190 185/437/395 354/430/390 89/192/188
f 186/440/397 387/4/4 105/92/92 305/441/398
f 232/285/281 186/440/397 305/441/398 42/289/283
f 186/440/397 232/285/281 43/288/282 218/442/399
f 387/4/4 186/440/397 218/442/399 90/1/1
f 187/443/400 388/8/8 90/1/1 218/442/399
f 235/298/291 187/443/400 218/442/399 43/288/282
f 187/443/400 235/298/291 44/301/292 219/444/401
f 388/8/8 187/443/400 219/444/401 91/9/9
f 188/445/402 389/14/14 91/9/9 219/444/401
f 237/308/299 188/445/402 219/444/401 44/301/292
f 188/445/402 237/308/299 45/311/300 220/446/403
f 389/14/14 188/445/402 220/446/403 92/15/15
f 189/447/404 390/23/23 92/15/15 220/446/403
f 240/318/307 189/447/404 220/446/403 45/311/300
f 189/447/404 240/318/307 46/321/308 221/448/405
f 390/23/23 189/447/404 221/448/405 93/20/20
f 190/449/406 391/29/29 93/20/20 221/448/405
f 242/328/315 190/449/406 221/448/405 46/321/308
f 190/449/406 242/328/315 47/331/316 222/450/407
f 391/29/29 190/449/406 222/450/407 94/26/26
f 191/451/408 392/32/32 94/26/26 222/450/407
f 244/338/323 191/451/408 222/450/407 47/331/316
f 191/451/408 244/338/323 48/341/324 223/452/409
f 392/32/32 191/451/408 223/452/409 95/33/33
f 192/453/410 393/38/38 95/33/33 223/452/409
f 246/348/329 192/453/410 223/452/409 48/341/324
f 192/453/410 246/348/329 49/351/330 224/454/411
f 393/38/38 192/453/410 224/454/411 96/39/39
f 193/455/412 394/47/47 96/39/39 224/454/411
f 248/360/337 193/455/412 224/454/411 49/351/330
f 193/455/412 248/360/337 50/363/338 225/456/413
f 394/47/47 193/455/412 225/456/413 97/44/44
f 194/457/414 395/50/50 97/44/44 225/456/413
f 250/371/345 194/457/414 225/456/413 50/363/338
f 194/457/414 250/371/345 51/374/346 226/458/415
f 395/50/50 194/457/414 226/458/415 98/51/51
f 195/459/416 396/56/56 98/51/51 226/458/415
f 252/381/353 195/459/416 226/458/415 51/374/346
f 195/459/416 252/381/353 52/384/354 227/460/417
f 396/56/56 195/459/416 227/460/417 99/57/57
f 196/461/418 397/62/62 99/57/57 227/460/417
f 254/391/361 196/461/418 227/460/417 52/384/354
f 196/461/418 254/391/361 53/394/362 228/462/419
f 397/62/62 196/461/418 228/462/419 100/63/63
f 197/463/420 398/71/71 100/63/63 228/462/419
f 255/401/369 197/463/420 228/462/419 53/394/362
f 197/463/420 255/401/369 54/404/370 229/464/421
f 398/71/71 197/463/420 229/464/421 101/68/68
f 198/465/422 399/77/77 101/68/68 229/464/421
f 257/411/377 198/465/422 229/464/421 54/404/370
f 198/465/422 257/411/377 55/414/378 230/466/423
f 399/77/77 198/465/422 230/466/423 102/74/74
f 199/467/424 400/83/83 102/74/74 230/466/423
f 259/421/385 199/467/424 230/466/423 55/414/378
f 199/467/424 259/421/385 56/424/386 231/468/425
f 400/83/83 199/467/424 231/468/425 103/80/80
f 200/469/426 401/89/89 103/80/80 231/468/425
f 261/431/391 200/469/426 231/468/425 56/424/386
f 200/469/426 261/431/391 57/434/392 304/470/427
f 401/89/89 200/469/426 304/470/427 104/86/86
f 201/471/428 402/94/94 104/86/86 304/470/427
f 263/438/396 201/471/428 304/470/427 57/434/392
f 201/471/428 263/438/396 42/289/283 305/441/398
f 402/94/94 201/471/428 305/441/398 105/92/92
f 202/472/429 418/7/7 112/12/12 408/473/430
f 297/262/258 202/472/429 408/473/430 37/264/260
f 202/472/429 297/262/258 38/261/257 407/474/431
f 418/7/7 202/472/429 407/474/431 111/5/5
f 203/475/432 419/13/13 113/19/19 409/476/433
f 296/263/259 203/475/432 409/476/433 32/246/242
f 203/475/432 296/263/259 37/264/260 408/473/430
f 419/13/13 203/475/432 408/473/430 112/12/12
f 204/477/434 420/18/18 114/24/24 410/478/435
f 287/245/241 204/477/434 410/478/435 27/228/224
f 204/477/434 287/245/241 32/246/242 409/476/433
f 420/18/18 204/477/434 409/476/433 113/19/19
f 205/479/436 421/25/25 115/30/30 411/480/437
f 278/227/223 205/479/436 411/480/437 22/201/197
f 205/479/436 278/227/223 27/228/224 410/478/435
f 421/25/25 205/479/436 410/478/435 114/24/24
f 206/481/438 422/31/31 116/36/36 412/482/439
f 266/200/196 206/481/438 412/482/439 17/202/198
f 206/481/438 266/200/196 22/201/197 411/480/437
f 422/31/31 206/481/438 411/480/437 115/30/30
f 207/483/440 423/37/37 117/43/43 413/484/441
f 265/203/199 207/483/440 413/484/441 18/204/200
f 207/483/440 265/203/199 17/202/198 412/482/439
f 423/37/37 207/483/440 412/482/439 116/36/36
f 208/485/442 424/42/42 118/49/49 414/486/443
f 269/209/205 208/485/442 414/486/443 19/210/206
f 208/485/442 269/209/205 18/204/200 413/484/441
f 424/42/42 208/485/442 413/484/441 117/43/43
f 209/487/444 425/48/48 119/55/55 415/488/445
f 272/215/211 209/487/444 415/488/445 20/216/212
f 209/487/444 272/215/211 19/210/206 414/486/443
f 425/48/48 209/487/444 414/486/443 118/49/49
f 210/489/446 426/54/54 120/61/61 416/490/447
f 275/221/217 210/489/446 416/490/447 21/222/218
f 210/489/446 275/221/217 20/216/212 415/488/445
f 426/54/54 210/489/446 415/488/445 119/55/55
f 211/491/448 427/60/60 121/67/67 417/492/449
f 274/218/214 211/491/448 417/492/449 26/219/215
f 211/491/448 274/218/214 21/222/218 416/490/447
f 427/60/60 211/491/448 416/490/447 120/61/61
f 212/493/450 428/66/66 106/72/72 306/494/451
f 284/238/234 212/493/450 306/494/451 31/239/235
f 212/493/450 284/238/234 26/219/215 417/492/449
f 428/66/66 212/493/450 417/492/449 121/67/67
f 213/495/452 429/73/73 107/78/78 403/496/453
f 293/256/252 213/495/452 403/496/453 36/257/253
f 213/495/452 293/256/252 31/239/235 306/494/451
f 429/73/73 213/495/452 306/494/451 106/72/72
f 214/497/454 430/79/79 108/84/84 404/498/455
f 302/274/270 214/497/454 404/498/455 41/275/271
f 214/497/454 302/274/270 36/257/253 403/496/453
f 430/79/79 214/497/454 403/496/453 107/78/78
f 215/499/456 431/85/85 109/90/90 405/500/457
f 303/276/272 215/499/456 405/500/457 40/271/267
f 215/499/456 303/276/272 41/275/271 404/498/455
f 431/85/85 215/499/456 404/498/455 108/84/84
f 216/501/458 432/91/91 110/95/95 406/502/459
f 301/272/268 216/501/458 406/502/459 39/267/263
f 216/501/458 301/272/268 40/271/267 405/500/457
f 432/91/91 216/501/458 405/500/457 109/90/90
f 217/503/460 433/96/96 111/5/5 407/474/431
f 299/268/264 217/503/460 407/474/431 38/261/257
f 217/503/460 299/268/264 39/267/263 406/502/459
f 433/96/96 217/503/460 406/502/459 110/95/95
f 112/12/12 418/7/7 434/3/3 435/2/2
f 436/6/6 105/92/92 387/4/4 434/3/3
f 113/19/19 419/13/13 437/11/11 438/10/10
f 90/1/1 388/8/8 437/11/11 435/2/2
f 114/24/24 420/18/18 439/17/17 440/16/16
f 91/9/9 389/14/14 439/17/17 438/10/10
f 442/21/21 115/30/30 421/25/25 441/22/22
f 440/16/16 92/15/15 390/23/23 441/22/22
f 116/36/36 422/31/31 443/28/28 444/27/27
f 442/21/21 93/20/20 391/29/29 443/28/28
f 117/43/43 423/37/37 445/35/35 446/34/34
f 94/26/26 392/32/32 445/35/35 444/27/27
f 118/49/49 424/42/42 447/41/41 448/40/40
f 95/33/33 393/38/38 447/41/41 446/34/34
f 119/55/55 425/48/48 449/46/46 450/45/45
f 96/39/39 394/47/47 449/46/46 448/40/40
f 120/61/61 426/54/54 451/53/53 452/52/52
f 97/44/44 395/50/50 451/53/53 450/45/45
f 121/67/67 427/60/60 453/59/59 454/58/58
f 98/51/51 396/56/56 453/59/59 452/52/52
f 106/72/72 428/66/66 455/65/65 456/64/64
f 99/57/57 397/62/62 455/65/65 454/58/58
f 457/69/69 107/78/78 429/73/73 458/70/70
f 456/64/64 100/63/63 398/71/71 458/70/70
f 460/75/75 108/84/84 430/79/79 459/76/76
f 457/69/69 101/68/68 399/77/77 459/76/76
f 462/81/81 109/90/90 431/85/85 461/82/82
f 460/75/75 102/74/74 400/83/83 461/82/82
f 464/87/87 110/95/95 432/91/91 463/88/88
f 103/80/80 401/89/89 463/88/88 462/81/81
f 436/6/6 111/5/5 433/96/96 465/93/93
f 464/87/87 104/86/86 402/94/94 465/93/93
